<?xml version="1.0" encoding="utf-8" standalone="no"?>
<!DOCTYPE svg PUBLIC "-//W3C//DTD SVG 1.1//EN"
  "http://www.w3.org/Graphics/SVG/1.1/DTD/svg11.dtd">
<!-- Created with matplotlib (http://matplotlib.org/) -->
<svg height="345pt" version="1.1" viewBox="0 0 460 345" width="460pt" xmlns="http://www.w3.org/2000/svg" xmlns:xlink="http://www.w3.org/1999/xlink">
 <defs>
  <style type="text/css">
*{stroke-linecap:butt;stroke-linejoin:round;}
  </style>
 </defs>
 <g id="figure_1">
  <g id="patch_1">
   <path d="M 0 345.6 
L 460.8 345.6 
L 460.8 0 
L 0 0 
z
" style="fill:#ffffff;"/>
  </g>
  <g id="axes_1">
   <g id="patch_2">
    <path d="M 56.12 294.88 
L 333.168 294.88 
L 333.168 24.84 
L 56.12 24.84 
z
" style="fill:#ffffff;"/>
   </g>
   <g id="line2d_1">
    <path d="M 155.871232 294.88 
L 155.871232 289.637523 
L 162.741791 289.637523 
L 162.741791 284.395046 
L 182.733131 284.395046 
L 182.733131 279.152568 
L 198.544864 279.152568 
L 198.544864 273.910091 
L 232.802031 273.910091 
L 232.802031 268.667614 
L 247.091646 268.667614 
L 247.091646 263.425137 
L 247.425916 263.425137 
L 247.425916 258.18266 
L 263.435632 258.18266 
L 263.435632 252.940182 
L 263.496989 252.940182 
L 263.496989 247.697705 
L 271.361776 247.697705 
L 271.361776 242.455228 
L 276.684822 242.455228 
L 276.684822 237.212751 
L 283.265502 237.212751 
L 283.265502 231.970274 
L 291.117921 231.970274 
L 291.117921 226.727797 
L 300.993062 226.727797 
L 300.993062 221.485319 
L 309.991797 221.485319 
L 309.991797 216.242842 
L 309.993367 216.242842 
L 309.993367 211.000365 
L 309.994445 211.000365 
L 309.994445 205.757888 
L 309.995718 205.757888 
L 309.995718 200.515411 
L 309.996772 200.515411 
L 309.996772 195.272933 
L 309.998188 195.272933 
L 309.998188 190.030456 
L 309.9995 190.030456 
L 309.9995 184.787979 
L 310.00051 184.787979 
L 310.00051 179.545502 
L 310.001463 179.545502 
L 310.001463 174.303025 
L 310.002567 174.303025 
L 310.002567 169.060547 
L 310.003257 169.060547 
L 310.003257 163.81807 
L 310.004831 163.81807 
L 310.004831 158.575593 
L 310.005681 158.575593 
L 310.005681 153.333116 
L 310.006994 153.333116 
L 310.006994 148.090639 
L 310.008307 148.090639 
L 310.008307 142.848162 
L 310.009477 142.848162 
L 310.009477 137.605684 
L 310.010624 137.605684 
L 310.010624 132.363207 
L 310.010923 132.363207 
L 310.010923 127.12073 
L 310.013048 127.12073 
L 310.013048 121.878253 
L 310.013568 121.878253 
L 310.013568 116.635776 
L 310.014695 116.635776 
L 310.014695 111.393298 
L 310.016198 111.393298 
L 310.016198 106.150821 
L 310.017188 106.150821 
L 310.017188 100.908344 
L 310.01887 100.908344 
L 310.01887 95.665867 
L 310.019777 95.665867 
L 310.019777 90.42339 
L 310.020715 90.42339 
L 310.020715 85.180912 
L 310.022008 85.180912 
L 310.022008 79.938435 
L 310.022957 79.938435 
L 310.022957 74.695958 
L 310.023793 74.695958 
L 310.023793 69.453481 
L 310.024998 69.453481 
L 310.024998 64.211004 
L 310.026074 64.211004 
L 310.026074 58.968526 
L 310.027286 58.968526 
L 310.027286 53.726049 
L 310.029056 53.726049 
L 310.029056 48.483572 
L 310.029747 48.483572 
L 310.029747 43.241095 
L 310.030814 43.241095 
L 310.030814 37.998618 
L 310.031784 37.998618 
L 310.031784 32.756141 
L 310.033209 32.756141 
L 310.033209 27.513663 
L 333.168 27.513663 
" style="fill:none;stroke:#f5deb3;stroke-linecap:square;stroke-width:4;"/>
   </g>
   <g id="line2d_2">
    <defs>
     <path d="M -0 7.778175 
L 7.778175 0 
L 0 -7.778175 
L -7.778175 -0 
z
" id="m2ddec04167" style="stroke:#f5deb3;stroke-linejoin:miter;stroke-width:1.5;"/>
    </defs>
    <g>
     <use style="fill:#f5deb3;stroke:#f5deb3;stroke-linejoin:miter;stroke-width:1.5;" x="309.994445" xlink:href="#m2ddec04167" y="205.757888"/>
     <use style="fill:#f5deb3;stroke:#f5deb3;stroke-linejoin:miter;stroke-width:1.5;" x="310.033209" xlink:href="#m2ddec04167" y="32.756141"/>
     <use style="fill:#f5deb3;stroke:#f5deb3;stroke-linejoin:miter;stroke-width:1.5;" x="310.033209" xlink:href="#m2ddec04167" y="27.513663"/>
     <use style="fill:#f5deb3;stroke:#f5deb3;stroke-linejoin:miter;stroke-width:1.5;" x="333.168" xlink:href="#m2ddec04167" y="27.513663"/>
    </g>
   </g>
   <g id="line2d_3">
    <path style="fill:none;stroke:#f5deb3;stroke-linecap:square;stroke-width:4;"/>
    <g/>
   </g>
   <g id="line2d_4">
    <path d="M 333.168 27.513663 
L 363.64328 32.86099 
" style="fill:none;stroke:#f5deb3;stroke-linecap:square;stroke-width:4;"/>
    <g>
     <use style="fill:#f5deb3;stroke:#f5deb3;stroke-linejoin:miter;stroke-width:1.5;" x="333.168" xlink:href="#m2ddec04167" y="27.513663"/>
     <use style="fill:#f5deb3;stroke:#f5deb3;stroke-linejoin:miter;stroke-width:1.5;" x="363.64328" xlink:href="#m2ddec04167" y="32.86099"/>
    </g>
   </g>
   <g id="matplotlib.axis_1">
    <g id="xtick_1">
     <g id="line2d_5">
      <path clip-path="url(#pd4f767061c)" d="M 56.12 294.88 
L 56.12 24.84 
" style="fill:none;stroke:#b0b0b0;stroke-linecap:square;stroke-width:0.8;"/>
     </g>
     <g id="line2d_6">
      <defs>
       <path d="M 0 0 
L 0 3.5 
" id="m2cc49c81dd" style="stroke:#000000;stroke-width:0.8;"/>
      </defs>
      <g>
       <use style="stroke:#000000;stroke-width:0.8;" x="56.12" xlink:href="#m2cc49c81dd" y="294.88"/>
      </g>
     </g>
     <g id="text_1">
      <!-- 0 -->
      <defs>
       <path d="M 31.78125 66.40625 
Q 24.171875 66.40625 20.328125 58.90625 
Q 16.5 51.421875 16.5 36.375 
Q 16.5 21.390625 20.328125 13.890625 
Q 24.171875 6.390625 31.78125 6.390625 
Q 39.453125 6.390625 43.28125 13.890625 
Q 47.125 21.390625 47.125 36.375 
Q 47.125 51.421875 43.28125 58.90625 
Q 39.453125 66.40625 31.78125 66.40625 
z
M 31.78125 74.21875 
Q 44.046875 74.21875 50.515625 64.515625 
Q 56.984375 54.828125 56.984375 36.375 
Q 56.984375 17.96875 50.515625 8.265625 
Q 44.046875 -1.421875 31.78125 -1.421875 
Q 19.53125 -1.421875 13.0625 8.265625 
Q 6.59375 17.96875 6.59375 36.375 
Q 6.59375 54.828125 13.0625 64.515625 
Q 19.53125 74.21875 31.78125 74.21875 
z
" id="DejaVuSans-30"/>
      </defs>
      <g transform="translate(49.7575 317.076875)scale(0.2 -0.2)">
       <use xlink:href="#DejaVuSans-30"/>
      </g>
     </g>
    </g>
    <g id="xtick_2">
     <g id="line2d_7">
      <path clip-path="url(#pd4f767061c)" d="M 135.276571 294.88 
L 135.276571 24.84 
" style="fill:none;stroke:#b0b0b0;stroke-linecap:square;stroke-width:0.8;"/>
     </g>
     <g id="line2d_8">
      <g>
       <use style="stroke:#000000;stroke-width:0.8;" x="135.276571" xlink:href="#m2cc49c81dd" y="294.88"/>
      </g>
     </g>
     <g id="text_2">
      <!-- 2 -->
      <defs>
       <path d="M 19.1875 8.296875 
L 53.609375 8.296875 
L 53.609375 0 
L 7.328125 0 
L 7.328125 8.296875 
Q 12.9375 14.109375 22.625 23.890625 
Q 32.328125 33.6875 34.8125 36.53125 
Q 39.546875 41.84375 41.421875 45.53125 
Q 43.3125 49.21875 43.3125 52.78125 
Q 43.3125 58.59375 39.234375 62.25 
Q 35.15625 65.921875 28.609375 65.921875 
Q 23.96875 65.921875 18.8125 64.3125 
Q 13.671875 62.703125 7.8125 59.421875 
L 7.8125 69.390625 
Q 13.765625 71.78125 18.9375 73 
Q 24.125 74.21875 28.421875 74.21875 
Q 39.75 74.21875 46.484375 68.546875 
Q 53.21875 62.890625 53.21875 53.421875 
Q 53.21875 48.921875 51.53125 44.890625 
Q 49.859375 40.875 45.40625 35.40625 
Q 44.1875 33.984375 37.640625 27.21875 
Q 31.109375 20.453125 19.1875 8.296875 
z
" id="DejaVuSans-32"/>
      </defs>
      <g transform="translate(128.914071 317.076875)scale(0.2 -0.2)">
       <use xlink:href="#DejaVuSans-32"/>
      </g>
     </g>
    </g>
    <g id="xtick_3">
     <g id="line2d_9">
      <path clip-path="url(#pd4f767061c)" d="M 214.433143 294.88 
L 214.433143 24.84 
" style="fill:none;stroke:#b0b0b0;stroke-linecap:square;stroke-width:0.8;"/>
     </g>
     <g id="line2d_10">
      <g>
       <use style="stroke:#000000;stroke-width:0.8;" x="214.433143" xlink:href="#m2cc49c81dd" y="294.88"/>
      </g>
     </g>
     <g id="text_3">
      <!-- 4 -->
      <defs>
       <path d="M 37.796875 64.3125 
L 12.890625 25.390625 
L 37.796875 25.390625 
z
M 35.203125 72.90625 
L 47.609375 72.90625 
L 47.609375 25.390625 
L 58.015625 25.390625 
L 58.015625 17.1875 
L 47.609375 17.1875 
L 47.609375 0 
L 37.796875 0 
L 37.796875 17.1875 
L 4.890625 17.1875 
L 4.890625 26.703125 
z
" id="DejaVuSans-34"/>
      </defs>
      <g transform="translate(208.070643 317.076875)scale(0.2 -0.2)">
       <use xlink:href="#DejaVuSans-34"/>
      </g>
     </g>
    </g>
    <g id="xtick_4">
     <g id="line2d_11">
      <path clip-path="url(#pd4f767061c)" d="M 293.589714 294.88 
L 293.589714 24.84 
" style="fill:none;stroke:#b0b0b0;stroke-linecap:square;stroke-width:0.8;"/>
     </g>
     <g id="line2d_12">
      <g>
       <use style="stroke:#000000;stroke-width:0.8;" x="293.589714" xlink:href="#m2cc49c81dd" y="294.88"/>
      </g>
     </g>
     <g id="text_4">
      <!-- 6 -->
      <defs>
       <path d="M 33.015625 40.375 
Q 26.375 40.375 22.484375 35.828125 
Q 18.609375 31.296875 18.609375 23.390625 
Q 18.609375 15.53125 22.484375 10.953125 
Q 26.375 6.390625 33.015625 6.390625 
Q 39.65625 6.390625 43.53125 10.953125 
Q 47.40625 15.53125 47.40625 23.390625 
Q 47.40625 31.296875 43.53125 35.828125 
Q 39.65625 40.375 33.015625 40.375 
z
M 52.59375 71.296875 
L 52.59375 62.3125 
Q 48.875 64.0625 45.09375 64.984375 
Q 41.3125 65.921875 37.59375 65.921875 
Q 27.828125 65.921875 22.671875 59.328125 
Q 17.53125 52.734375 16.796875 39.40625 
Q 19.671875 43.65625 24.015625 45.921875 
Q 28.375 48.1875 33.59375 48.1875 
Q 44.578125 48.1875 50.953125 41.515625 
Q 57.328125 34.859375 57.328125 23.390625 
Q 57.328125 12.15625 50.6875 5.359375 
Q 44.046875 -1.421875 33.015625 -1.421875 
Q 20.359375 -1.421875 13.671875 8.265625 
Q 6.984375 17.96875 6.984375 36.375 
Q 6.984375 53.65625 15.1875 63.9375 
Q 23.390625 74.21875 37.203125 74.21875 
Q 40.921875 74.21875 44.703125 73.484375 
Q 48.484375 72.75 52.59375 71.296875 
z
" id="DejaVuSans-36"/>
      </defs>
      <g transform="translate(287.227214 317.076875)scale(0.2 -0.2)">
       <use xlink:href="#DejaVuSans-36"/>
      </g>
     </g>
    </g>
    <g id="xtick_5">
     <g id="line2d_13">
      <path clip-path="url(#pd4f767061c)" d="M 56.12 294.88 
L 56.12 24.84 
" style="fill:none;stroke:#b0b0b0;stroke-linecap:square;stroke-width:0.8;"/>
     </g>
     <g id="line2d_14">
      <defs>
       <path d="M 0 0 
L 0 2 
" id="m5d4074f59b" style="stroke:#000000;stroke-width:0.6;"/>
      </defs>
      <g>
       <use style="stroke:#000000;stroke-width:0.6;" x="56.12" xlink:href="#m5d4074f59b" y="294.88"/>
      </g>
     </g>
    </g>
    <g id="xtick_6">
     <g id="line2d_15">
      <path clip-path="url(#pd4f767061c)" d="M 95.698286 294.88 
L 95.698286 24.84 
" style="fill:none;stroke:#b0b0b0;stroke-linecap:square;stroke-width:0.8;"/>
     </g>
     <g id="line2d_16">
      <g>
       <use style="stroke:#000000;stroke-width:0.6;" x="95.698286" xlink:href="#m5d4074f59b" y="294.88"/>
      </g>
     </g>
    </g>
    <g id="xtick_7">
     <g id="line2d_17">
      <path clip-path="url(#pd4f767061c)" d="M 135.276571 294.88 
L 135.276571 24.84 
" style="fill:none;stroke:#b0b0b0;stroke-linecap:square;stroke-width:0.8;"/>
     </g>
     <g id="line2d_18">
      <g>
       <use style="stroke:#000000;stroke-width:0.6;" x="135.276571" xlink:href="#m5d4074f59b" y="294.88"/>
      </g>
     </g>
    </g>
    <g id="xtick_8">
     <g id="line2d_19">
      <path clip-path="url(#pd4f767061c)" d="M 174.854857 294.88 
L 174.854857 24.84 
" style="fill:none;stroke:#b0b0b0;stroke-linecap:square;stroke-width:0.8;"/>
     </g>
     <g id="line2d_20">
      <g>
       <use style="stroke:#000000;stroke-width:0.6;" x="174.854857" xlink:href="#m5d4074f59b" y="294.88"/>
      </g>
     </g>
    </g>
    <g id="xtick_9">
     <g id="line2d_21">
      <path clip-path="url(#pd4f767061c)" d="M 214.433143 294.88 
L 214.433143 24.84 
" style="fill:none;stroke:#b0b0b0;stroke-linecap:square;stroke-width:0.8;"/>
     </g>
     <g id="line2d_22">
      <g>
       <use style="stroke:#000000;stroke-width:0.6;" x="214.433143" xlink:href="#m5d4074f59b" y="294.88"/>
      </g>
     </g>
    </g>
    <g id="xtick_10">
     <g id="line2d_23">
      <path clip-path="url(#pd4f767061c)" d="M 254.011429 294.88 
L 254.011429 24.84 
" style="fill:none;stroke:#b0b0b0;stroke-linecap:square;stroke-width:0.8;"/>
     </g>
     <g id="line2d_24">
      <g>
       <use style="stroke:#000000;stroke-width:0.6;" x="254.011429" xlink:href="#m5d4074f59b" y="294.88"/>
      </g>
     </g>
    </g>
    <g id="xtick_11">
     <g id="line2d_25">
      <path clip-path="url(#pd4f767061c)" d="M 293.589714 294.88 
L 293.589714 24.84 
" style="fill:none;stroke:#b0b0b0;stroke-linecap:square;stroke-width:0.8;"/>
     </g>
     <g id="line2d_26">
      <g>
       <use style="stroke:#000000;stroke-width:0.6;" x="293.589714" xlink:href="#m5d4074f59b" y="294.88"/>
      </g>
     </g>
    </g>
    <g id="xtick_12">
     <g id="line2d_27">
      <path clip-path="url(#pd4f767061c)" d="M 333.168 294.88 
L 333.168 24.84 
" style="fill:none;stroke:#b0b0b0;stroke-linecap:square;stroke-width:0.8;"/>
     </g>
     <g id="line2d_28">
      <g>
       <use style="stroke:#000000;stroke-width:0.6;" x="333.168" xlink:href="#m5d4074f59b" y="294.88"/>
      </g>
     </g>
    </g>
    <g id="text_5">
     <!-- log10(# f-evals / dimension) -->
     <defs>
      <path d="M 9.421875 75.984375 
L 18.40625 75.984375 
L 18.40625 0 
L 9.421875 0 
z
" id="DejaVuSans-6c"/>
      <path d="M 30.609375 48.390625 
Q 23.390625 48.390625 19.1875 42.75 
Q 14.984375 37.109375 14.984375 27.296875 
Q 14.984375 17.484375 19.15625 11.84375 
Q 23.34375 6.203125 30.609375 6.203125 
Q 37.796875 6.203125 41.984375 11.859375 
Q 46.1875 17.53125 46.1875 27.296875 
Q 46.1875 37.015625 41.984375 42.703125 
Q 37.796875 48.390625 30.609375 48.390625 
z
M 30.609375 56 
Q 42.328125 56 49.015625 48.375 
Q 55.71875 40.765625 55.71875 27.296875 
Q 55.71875 13.875 49.015625 6.21875 
Q 42.328125 -1.421875 30.609375 -1.421875 
Q 18.84375 -1.421875 12.171875 6.21875 
Q 5.515625 13.875 5.515625 27.296875 
Q 5.515625 40.765625 12.171875 48.375 
Q 18.84375 56 30.609375 56 
z
" id="DejaVuSans-6f"/>
      <path d="M 45.40625 27.984375 
Q 45.40625 37.75 41.375 43.109375 
Q 37.359375 48.484375 30.078125 48.484375 
Q 22.859375 48.484375 18.828125 43.109375 
Q 14.796875 37.75 14.796875 27.984375 
Q 14.796875 18.265625 18.828125 12.890625 
Q 22.859375 7.515625 30.078125 7.515625 
Q 37.359375 7.515625 41.375 12.890625 
Q 45.40625 18.265625 45.40625 27.984375 
z
M 54.390625 6.78125 
Q 54.390625 -7.171875 48.1875 -13.984375 
Q 42 -20.796875 29.203125 -20.796875 
Q 24.46875 -20.796875 20.265625 -20.09375 
Q 16.0625 -19.390625 12.109375 -17.921875 
L 12.109375 -9.1875 
Q 16.0625 -11.328125 19.921875 -12.34375 
Q 23.78125 -13.375 27.78125 -13.375 
Q 36.625 -13.375 41.015625 -8.765625 
Q 45.40625 -4.15625 45.40625 5.171875 
L 45.40625 9.625 
Q 42.625 4.78125 38.28125 2.390625 
Q 33.9375 0 27.875 0 
Q 17.828125 0 11.671875 7.65625 
Q 5.515625 15.328125 5.515625 27.984375 
Q 5.515625 40.671875 11.671875 48.328125 
Q 17.828125 56 27.875 56 
Q 33.9375 56 38.28125 53.609375 
Q 42.625 51.21875 45.40625 46.390625 
L 45.40625 54.6875 
L 54.390625 54.6875 
z
" id="DejaVuSans-67"/>
      <path d="M 12.40625 8.296875 
L 28.515625 8.296875 
L 28.515625 63.921875 
L 10.984375 60.40625 
L 10.984375 69.390625 
L 28.421875 72.90625 
L 38.28125 72.90625 
L 38.28125 8.296875 
L 54.390625 8.296875 
L 54.390625 0 
L 12.40625 0 
z
" id="DejaVuSans-31"/>
      <path d="M 31 75.875 
Q 24.46875 64.65625 21.28125 53.65625 
Q 18.109375 42.671875 18.109375 31.390625 
Q 18.109375 20.125 21.3125 9.0625 
Q 24.515625 -2 31 -13.1875 
L 23.1875 -13.1875 
Q 15.875 -1.703125 12.234375 9.375 
Q 8.59375 20.453125 8.59375 31.390625 
Q 8.59375 42.28125 12.203125 53.3125 
Q 15.828125 64.359375 23.1875 75.875 
z
" id="DejaVuSans-28"/>
      <path d="M 51.125 44 
L 36.921875 44 
L 32.8125 27.6875 
L 47.125 27.6875 
z
M 43.796875 71.78125 
L 38.71875 51.515625 
L 52.984375 51.515625 
L 58.109375 71.78125 
L 65.921875 71.78125 
L 60.890625 51.515625 
L 76.125 51.515625 
L 76.125 44 
L 58.984375 44 
L 54.984375 27.6875 
L 70.515625 27.6875 
L 70.515625 20.21875 
L 53.078125 20.21875 
L 48 0 
L 40.1875 0 
L 45.21875 20.21875 
L 30.90625 20.21875 
L 25.875 0 
L 18.015625 0 
L 23.09375 20.21875 
L 7.71875 20.21875 
L 7.71875 27.6875 
L 24.90625 27.6875 
L 29 44 
L 13.28125 44 
L 13.28125 51.515625 
L 30.90625 51.515625 
L 35.890625 71.78125 
z
" id="DejaVuSans-23"/>
      <path id="DejaVuSans-20"/>
      <path d="M 37.109375 75.984375 
L 37.109375 68.5 
L 28.515625 68.5 
Q 23.6875 68.5 21.796875 66.546875 
Q 19.921875 64.59375 19.921875 59.515625 
L 19.921875 54.6875 
L 34.71875 54.6875 
L 34.71875 47.703125 
L 19.921875 47.703125 
L 19.921875 0 
L 10.890625 0 
L 10.890625 47.703125 
L 2.296875 47.703125 
L 2.296875 54.6875 
L 10.890625 54.6875 
L 10.890625 58.5 
Q 10.890625 67.625 15.140625 71.796875 
Q 19.390625 75.984375 28.609375 75.984375 
z
" id="DejaVuSans-66"/>
      <path d="M 4.890625 31.390625 
L 31.203125 31.390625 
L 31.203125 23.390625 
L 4.890625 23.390625 
z
" id="DejaVuSans-2d"/>
      <path d="M 56.203125 29.59375 
L 56.203125 25.203125 
L 14.890625 25.203125 
Q 15.484375 15.921875 20.484375 11.0625 
Q 25.484375 6.203125 34.421875 6.203125 
Q 39.59375 6.203125 44.453125 7.46875 
Q 49.3125 8.734375 54.109375 11.28125 
L 54.109375 2.78125 
Q 49.265625 0.734375 44.1875 -0.34375 
Q 39.109375 -1.421875 33.890625 -1.421875 
Q 20.796875 -1.421875 13.15625 6.1875 
Q 5.515625 13.8125 5.515625 26.8125 
Q 5.515625 40.234375 12.765625 48.109375 
Q 20.015625 56 32.328125 56 
Q 43.359375 56 49.78125 48.890625 
Q 56.203125 41.796875 56.203125 29.59375 
z
M 47.21875 32.234375 
Q 47.125 39.59375 43.09375 43.984375 
Q 39.0625 48.390625 32.421875 48.390625 
Q 24.90625 48.390625 20.390625 44.140625 
Q 15.875 39.890625 15.1875 32.171875 
z
" id="DejaVuSans-65"/>
      <path d="M 2.984375 54.6875 
L 12.5 54.6875 
L 29.59375 8.796875 
L 46.6875 54.6875 
L 56.203125 54.6875 
L 35.6875 0 
L 23.484375 0 
z
" id="DejaVuSans-76"/>
      <path d="M 34.28125 27.484375 
Q 23.390625 27.484375 19.1875 25 
Q 14.984375 22.515625 14.984375 16.5 
Q 14.984375 11.71875 18.140625 8.90625 
Q 21.296875 6.109375 26.703125 6.109375 
Q 34.1875 6.109375 38.703125 11.40625 
Q 43.21875 16.703125 43.21875 25.484375 
L 43.21875 27.484375 
z
M 52.203125 31.203125 
L 52.203125 0 
L 43.21875 0 
L 43.21875 8.296875 
Q 40.140625 3.328125 35.546875 0.953125 
Q 30.953125 -1.421875 24.3125 -1.421875 
Q 15.921875 -1.421875 10.953125 3.296875 
Q 6 8.015625 6 15.921875 
Q 6 25.140625 12.171875 29.828125 
Q 18.359375 34.515625 30.609375 34.515625 
L 43.21875 34.515625 
L 43.21875 35.40625 
Q 43.21875 41.609375 39.140625 45 
Q 35.0625 48.390625 27.6875 48.390625 
Q 23 48.390625 18.546875 47.265625 
Q 14.109375 46.140625 10.015625 43.890625 
L 10.015625 52.203125 
Q 14.9375 54.109375 19.578125 55.046875 
Q 24.21875 56 28.609375 56 
Q 40.484375 56 46.34375 49.84375 
Q 52.203125 43.703125 52.203125 31.203125 
z
" id="DejaVuSans-61"/>
      <path d="M 44.28125 53.078125 
L 44.28125 44.578125 
Q 40.484375 46.53125 36.375 47.5 
Q 32.28125 48.484375 27.875 48.484375 
Q 21.1875 48.484375 17.84375 46.4375 
Q 14.5 44.390625 14.5 40.28125 
Q 14.5 37.15625 16.890625 35.375 
Q 19.28125 33.59375 26.515625 31.984375 
L 29.59375 31.296875 
Q 39.15625 29.25 43.1875 25.515625 
Q 47.21875 21.78125 47.21875 15.09375 
Q 47.21875 7.46875 41.1875 3.015625 
Q 35.15625 -1.421875 24.609375 -1.421875 
Q 20.21875 -1.421875 15.453125 -0.5625 
Q 10.6875 0.296875 5.421875 2 
L 5.421875 11.28125 
Q 10.40625 8.6875 15.234375 7.390625 
Q 20.0625 6.109375 24.8125 6.109375 
Q 31.15625 6.109375 34.5625 8.28125 
Q 37.984375 10.453125 37.984375 14.40625 
Q 37.984375 18.0625 35.515625 20.015625 
Q 33.0625 21.96875 24.703125 23.78125 
L 21.578125 24.515625 
Q 13.234375 26.265625 9.515625 29.90625 
Q 5.8125 33.546875 5.8125 39.890625 
Q 5.8125 47.609375 11.28125 51.796875 
Q 16.75 56 26.8125 56 
Q 31.78125 56 36.171875 55.265625 
Q 40.578125 54.546875 44.28125 53.078125 
z
" id="DejaVuSans-73"/>
      <path d="M 25.390625 72.90625 
L 33.6875 72.90625 
L 8.296875 -9.28125 
L 0 -9.28125 
z
" id="DejaVuSans-2f"/>
      <path d="M 45.40625 46.390625 
L 45.40625 75.984375 
L 54.390625 75.984375 
L 54.390625 0 
L 45.40625 0 
L 45.40625 8.203125 
Q 42.578125 3.328125 38.25 0.953125 
Q 33.9375 -1.421875 27.875 -1.421875 
Q 17.96875 -1.421875 11.734375 6.484375 
Q 5.515625 14.40625 5.515625 27.296875 
Q 5.515625 40.1875 11.734375 48.09375 
Q 17.96875 56 27.875 56 
Q 33.9375 56 38.25 53.625 
Q 42.578125 51.265625 45.40625 46.390625 
z
M 14.796875 27.296875 
Q 14.796875 17.390625 18.875 11.75 
Q 22.953125 6.109375 30.078125 6.109375 
Q 37.203125 6.109375 41.296875 11.75 
Q 45.40625 17.390625 45.40625 27.296875 
Q 45.40625 37.203125 41.296875 42.84375 
Q 37.203125 48.484375 30.078125 48.484375 
Q 22.953125 48.484375 18.875 42.84375 
Q 14.796875 37.203125 14.796875 27.296875 
z
" id="DejaVuSans-64"/>
      <path d="M 9.421875 54.6875 
L 18.40625 54.6875 
L 18.40625 0 
L 9.421875 0 
z
M 9.421875 75.984375 
L 18.40625 75.984375 
L 18.40625 64.59375 
L 9.421875 64.59375 
z
" id="DejaVuSans-69"/>
      <path d="M 52 44.1875 
Q 55.375 50.25 60.0625 53.125 
Q 64.75 56 71.09375 56 
Q 79.640625 56 84.28125 50.015625 
Q 88.921875 44.046875 88.921875 33.015625 
L 88.921875 0 
L 79.890625 0 
L 79.890625 32.71875 
Q 79.890625 40.578125 77.09375 44.375 
Q 74.3125 48.1875 68.609375 48.1875 
Q 61.625 48.1875 57.5625 43.546875 
Q 53.515625 38.921875 53.515625 30.90625 
L 53.515625 0 
L 44.484375 0 
L 44.484375 32.71875 
Q 44.484375 40.625 41.703125 44.40625 
Q 38.921875 48.1875 33.109375 48.1875 
Q 26.21875 48.1875 22.15625 43.53125 
Q 18.109375 38.875 18.109375 30.90625 
L 18.109375 0 
L 9.078125 0 
L 9.078125 54.6875 
L 18.109375 54.6875 
L 18.109375 46.1875 
Q 21.1875 51.21875 25.484375 53.609375 
Q 29.78125 56 35.6875 56 
Q 41.65625 56 45.828125 52.96875 
Q 50 49.953125 52 44.1875 
z
" id="DejaVuSans-6d"/>
      <path d="M 54.890625 33.015625 
L 54.890625 0 
L 45.90625 0 
L 45.90625 32.71875 
Q 45.90625 40.484375 42.875 44.328125 
Q 39.84375 48.1875 33.796875 48.1875 
Q 26.515625 48.1875 22.3125 43.546875 
Q 18.109375 38.921875 18.109375 30.90625 
L 18.109375 0 
L 9.078125 0 
L 9.078125 54.6875 
L 18.109375 54.6875 
L 18.109375 46.1875 
Q 21.34375 51.125 25.703125 53.5625 
Q 30.078125 56 35.796875 56 
Q 45.21875 56 50.046875 50.171875 
Q 54.890625 44.34375 54.890625 33.015625 
z
" id="DejaVuSans-6e"/>
      <path d="M 8.015625 75.875 
L 15.828125 75.875 
Q 23.140625 64.359375 26.78125 53.3125 
Q 30.421875 42.28125 30.421875 31.390625 
Q 30.421875 20.453125 26.78125 9.375 
Q 23.140625 -1.703125 15.828125 -13.1875 
L 8.015625 -13.1875 
Q 14.5 -2 17.703125 9.0625 
Q 20.90625 20.125 20.90625 31.390625 
Q 20.90625 42.671875 17.703125 53.65625 
Q 14.5 64.65625 8.015625 75.875 
z
" id="DejaVuSans-29"/>
     </defs>
     <g transform="translate(73.803219 338.153594)scale(0.17 -0.17)">
      <use xlink:href="#DejaVuSans-6c"/>
      <use x="27.783203" xlink:href="#DejaVuSans-6f"/>
      <use x="88.964844" xlink:href="#DejaVuSans-67"/>
      <use x="152.441406" xlink:href="#DejaVuSans-31"/>
      <use x="216.064453" xlink:href="#DejaVuSans-30"/>
      <use x="279.6875" xlink:href="#DejaVuSans-28"/>
      <use x="318.701172" xlink:href="#DejaVuSans-23"/>
      <use x="402.490234" xlink:href="#DejaVuSans-20"/>
      <use x="434.277344" xlink:href="#DejaVuSans-66"/>
      <use x="469.404297" xlink:href="#DejaVuSans-2d"/>
      <use x="505.488281" xlink:href="#DejaVuSans-65"/>
      <use x="567.011719" xlink:href="#DejaVuSans-76"/>
      <use x="626.191406" xlink:href="#DejaVuSans-61"/>
      <use x="687.470703" xlink:href="#DejaVuSans-6c"/>
      <use x="715.253906" xlink:href="#DejaVuSans-73"/>
      <use x="767.353516" xlink:href="#DejaVuSans-20"/>
      <use x="799.140625" xlink:href="#DejaVuSans-2f"/>
      <use x="832.832031" xlink:href="#DejaVuSans-20"/>
      <use x="864.619141" xlink:href="#DejaVuSans-64"/>
      <use x="928.095703" xlink:href="#DejaVuSans-69"/>
      <use x="955.878906" xlink:href="#DejaVuSans-6d"/>
      <use x="1053.291016" xlink:href="#DejaVuSans-65"/>
      <use x="1114.814453" xlink:href="#DejaVuSans-6e"/>
      <use x="1178.193359" xlink:href="#DejaVuSans-73"/>
      <use x="1230.292969" xlink:href="#DejaVuSans-69"/>
      <use x="1258.076172" xlink:href="#DejaVuSans-6f"/>
      <use x="1319.257812" xlink:href="#DejaVuSans-6e"/>
      <use x="1382.636719" xlink:href="#DejaVuSans-29"/>
     </g>
    </g>
   </g>
   <g id="matplotlib.axis_2">
    <g id="ytick_1">
     <g id="line2d_29">
      <path clip-path="url(#pd4f767061c)" d="M 56.12 294.88 
L 333.168 294.88 
" style="fill:none;stroke:#b0b0b0;stroke-linecap:square;stroke-width:0.8;"/>
     </g>
     <g id="line2d_30">
      <defs>
       <path d="M 0 0 
L -3.5 0 
" id="ma97c0eed6b" style="stroke:#000000;stroke-width:0.8;"/>
      </defs>
      <g>
       <use style="stroke:#000000;stroke-width:0.8;" x="56.12" xlink:href="#ma97c0eed6b" y="294.88"/>
      </g>
     </g>
     <g id="text_6">
      <!-- 0.0 -->
      <defs>
       <path d="M 10.6875 12.40625 
L 21 12.40625 
L 21 0 
L 10.6875 0 
z
" id="DejaVuSans-2e"/>
      </defs>
      <g transform="translate(23.675 300.95875)scale(0.16 -0.16)">
       <use xlink:href="#DejaVuSans-30"/>
       <use x="63.623047" xlink:href="#DejaVuSans-2e"/>
       <use x="95.410156" xlink:href="#DejaVuSans-30"/>
      </g>
     </g>
    </g>
    <g id="ytick_2">
     <g id="line2d_31">
      <path clip-path="url(#pd4f767061c)" d="M 56.12 241.406733 
L 333.168 241.406733 
" style="fill:none;stroke:#b0b0b0;stroke-linecap:square;stroke-width:0.8;"/>
     </g>
     <g id="line2d_32">
      <g>
       <use style="stroke:#000000;stroke-width:0.8;" x="56.12" xlink:href="#ma97c0eed6b" y="241.406733"/>
      </g>
     </g>
     <g id="text_7">
      <!-- 0.2 -->
      <g transform="translate(23.675 247.485483)scale(0.16 -0.16)">
       <use xlink:href="#DejaVuSans-30"/>
       <use x="63.623047" xlink:href="#DejaVuSans-2e"/>
       <use x="95.410156" xlink:href="#DejaVuSans-32"/>
      </g>
     </g>
    </g>
    <g id="ytick_3">
     <g id="line2d_33">
      <path clip-path="url(#pd4f767061c)" d="M 56.12 187.933465 
L 333.168 187.933465 
" style="fill:none;stroke:#b0b0b0;stroke-linecap:square;stroke-width:0.8;"/>
     </g>
     <g id="line2d_34">
      <g>
       <use style="stroke:#000000;stroke-width:0.8;" x="56.12" xlink:href="#ma97c0eed6b" y="187.933465"/>
      </g>
     </g>
     <g id="text_8">
      <!-- 0.4 -->
      <g transform="translate(23.675 194.012215)scale(0.16 -0.16)">
       <use xlink:href="#DejaVuSans-30"/>
       <use x="63.623047" xlink:href="#DejaVuSans-2e"/>
       <use x="95.410156" xlink:href="#DejaVuSans-34"/>
      </g>
     </g>
    </g>
    <g id="ytick_4">
     <g id="line2d_35">
      <path clip-path="url(#pd4f767061c)" d="M 56.12 134.460198 
L 333.168 134.460198 
" style="fill:none;stroke:#b0b0b0;stroke-linecap:square;stroke-width:0.8;"/>
     </g>
     <g id="line2d_36">
      <g>
       <use style="stroke:#000000;stroke-width:0.8;" x="56.12" xlink:href="#ma97c0eed6b" y="134.460198"/>
      </g>
     </g>
     <g id="text_9">
      <!-- 0.6 -->
      <g transform="translate(23.675 140.538948)scale(0.16 -0.16)">
       <use xlink:href="#DejaVuSans-30"/>
       <use x="63.623047" xlink:href="#DejaVuSans-2e"/>
       <use x="95.410156" xlink:href="#DejaVuSans-36"/>
      </g>
     </g>
    </g>
    <g id="ytick_5">
     <g id="line2d_37">
      <path clip-path="url(#pd4f767061c)" d="M 56.12 80.986931 
L 333.168 80.986931 
" style="fill:none;stroke:#b0b0b0;stroke-linecap:square;stroke-width:0.8;"/>
     </g>
     <g id="line2d_38">
      <g>
       <use style="stroke:#000000;stroke-width:0.8;" x="56.12" xlink:href="#ma97c0eed6b" y="80.986931"/>
      </g>
     </g>
     <g id="text_10">
      <!-- 0.8 -->
      <defs>
       <path d="M 31.78125 34.625 
Q 24.75 34.625 20.71875 30.859375 
Q 16.703125 27.09375 16.703125 20.515625 
Q 16.703125 13.921875 20.71875 10.15625 
Q 24.75 6.390625 31.78125 6.390625 
Q 38.8125 6.390625 42.859375 10.171875 
Q 46.921875 13.96875 46.921875 20.515625 
Q 46.921875 27.09375 42.890625 30.859375 
Q 38.875 34.625 31.78125 34.625 
z
M 21.921875 38.8125 
Q 15.578125 40.375 12.03125 44.71875 
Q 8.5 49.078125 8.5 55.328125 
Q 8.5 64.0625 14.71875 69.140625 
Q 20.953125 74.21875 31.78125 74.21875 
Q 42.671875 74.21875 48.875 69.140625 
Q 55.078125 64.0625 55.078125 55.328125 
Q 55.078125 49.078125 51.53125 44.71875 
Q 48 40.375 41.703125 38.8125 
Q 48.828125 37.15625 52.796875 32.3125 
Q 56.78125 27.484375 56.78125 20.515625 
Q 56.78125 9.90625 50.3125 4.234375 
Q 43.84375 -1.421875 31.78125 -1.421875 
Q 19.734375 -1.421875 13.25 4.234375 
Q 6.78125 9.90625 6.78125 20.515625 
Q 6.78125 27.484375 10.78125 32.3125 
Q 14.796875 37.15625 21.921875 38.8125 
z
M 18.3125 54.390625 
Q 18.3125 48.734375 21.84375 45.5625 
Q 25.390625 42.390625 31.78125 42.390625 
Q 38.140625 42.390625 41.71875 45.5625 
Q 45.3125 48.734375 45.3125 54.390625 
Q 45.3125 60.0625 41.71875 63.234375 
Q 38.140625 66.40625 31.78125 66.40625 
Q 25.390625 66.40625 21.84375 63.234375 
Q 18.3125 60.0625 18.3125 54.390625 
z
" id="DejaVuSans-38"/>
      </defs>
      <g transform="translate(23.675 87.065681)scale(0.16 -0.16)">
       <use xlink:href="#DejaVuSans-30"/>
       <use x="63.623047" xlink:href="#DejaVuSans-2e"/>
       <use x="95.410156" xlink:href="#DejaVuSans-38"/>
      </g>
     </g>
    </g>
    <g id="ytick_6">
     <g id="line2d_39">
      <path clip-path="url(#pd4f767061c)" d="M 56.12 27.513663 
L 333.168 27.513663 
" style="fill:none;stroke:#b0b0b0;stroke-linecap:square;stroke-width:0.8;"/>
     </g>
     <g id="line2d_40">
      <g>
       <use style="stroke:#000000;stroke-width:0.8;" x="56.12" xlink:href="#ma97c0eed6b" y="27.513663"/>
      </g>
     </g>
     <g id="text_11">
      <!-- 1.0 -->
      <g transform="translate(23.675 33.592413)scale(0.16 -0.16)">
       <use xlink:href="#DejaVuSans-31"/>
       <use x="63.623047" xlink:href="#DejaVuSans-2e"/>
       <use x="95.410156" xlink:href="#DejaVuSans-30"/>
      </g>
     </g>
    </g>
    <g id="text_12">
     <!-- Fraction of function,target pairs -->
     <defs>
      <path d="M 9.8125 72.90625 
L 51.703125 72.90625 
L 51.703125 64.59375 
L 19.671875 64.59375 
L 19.671875 43.109375 
L 48.578125 43.109375 
L 48.578125 34.8125 
L 19.671875 34.8125 
L 19.671875 0 
L 9.8125 0 
z
" id="DejaVuSans-46"/>
      <path d="M 41.109375 46.296875 
Q 39.59375 47.171875 37.8125 47.578125 
Q 36.03125 48 33.890625 48 
Q 26.265625 48 22.1875 43.046875 
Q 18.109375 38.09375 18.109375 28.8125 
L 18.109375 0 
L 9.078125 0 
L 9.078125 54.6875 
L 18.109375 54.6875 
L 18.109375 46.1875 
Q 20.953125 51.171875 25.484375 53.578125 
Q 30.03125 56 36.53125 56 
Q 37.453125 56 38.578125 55.875 
Q 39.703125 55.765625 41.0625 55.515625 
z
" id="DejaVuSans-72"/>
      <path d="M 48.78125 52.59375 
L 48.78125 44.1875 
Q 44.96875 46.296875 41.140625 47.34375 
Q 37.3125 48.390625 33.40625 48.390625 
Q 24.65625 48.390625 19.8125 42.84375 
Q 14.984375 37.3125 14.984375 27.296875 
Q 14.984375 17.28125 19.8125 11.734375 
Q 24.65625 6.203125 33.40625 6.203125 
Q 37.3125 6.203125 41.140625 7.25 
Q 44.96875 8.296875 48.78125 10.40625 
L 48.78125 2.09375 
Q 45.015625 0.34375 40.984375 -0.53125 
Q 36.96875 -1.421875 32.421875 -1.421875 
Q 20.0625 -1.421875 12.78125 6.34375 
Q 5.515625 14.109375 5.515625 27.296875 
Q 5.515625 40.671875 12.859375 48.328125 
Q 20.21875 56 33.015625 56 
Q 37.15625 56 41.109375 55.140625 
Q 45.0625 54.296875 48.78125 52.59375 
z
" id="DejaVuSans-63"/>
      <path d="M 18.3125 70.21875 
L 18.3125 54.6875 
L 36.8125 54.6875 
L 36.8125 47.703125 
L 18.3125 47.703125 
L 18.3125 18.015625 
Q 18.3125 11.328125 20.140625 9.421875 
Q 21.96875 7.515625 27.59375 7.515625 
L 36.8125 7.515625 
L 36.8125 0 
L 27.59375 0 
Q 17.1875 0 13.234375 3.875 
Q 9.28125 7.765625 9.28125 18.015625 
L 9.28125 47.703125 
L 2.6875 47.703125 
L 2.6875 54.6875 
L 9.28125 54.6875 
L 9.28125 70.21875 
z
" id="DejaVuSans-74"/>
      <path d="M 8.5 21.578125 
L 8.5 54.6875 
L 17.484375 54.6875 
L 17.484375 21.921875 
Q 17.484375 14.15625 20.5 10.265625 
Q 23.53125 6.390625 29.59375 6.390625 
Q 36.859375 6.390625 41.078125 11.03125 
Q 45.3125 15.671875 45.3125 23.6875 
L 45.3125 54.6875 
L 54.296875 54.6875 
L 54.296875 0 
L 45.3125 0 
L 45.3125 8.40625 
Q 42.046875 3.421875 37.71875 1 
Q 33.40625 -1.421875 27.6875 -1.421875 
Q 18.265625 -1.421875 13.375 4.4375 
Q 8.5 10.296875 8.5 21.578125 
z
M 31.109375 56 
z
" id="DejaVuSans-75"/>
      <path d="M 11.71875 12.40625 
L 22.015625 12.40625 
L 22.015625 4 
L 14.015625 -11.625 
L 7.71875 -11.625 
L 11.71875 4 
z
" id="DejaVuSans-2c"/>
      <path d="M 18.109375 8.203125 
L 18.109375 -20.796875 
L 9.078125 -20.796875 
L 9.078125 54.6875 
L 18.109375 54.6875 
L 18.109375 46.390625 
Q 20.953125 51.265625 25.265625 53.625 
Q 29.59375 56 35.59375 56 
Q 45.5625 56 51.78125 48.09375 
Q 58.015625 40.1875 58.015625 27.296875 
Q 58.015625 14.40625 51.78125 6.484375 
Q 45.5625 -1.421875 35.59375 -1.421875 
Q 29.59375 -1.421875 25.265625 0.953125 
Q 20.953125 3.328125 18.109375 8.203125 
z
M 48.6875 27.296875 
Q 48.6875 37.203125 44.609375 42.84375 
Q 40.53125 48.484375 33.40625 48.484375 
Q 26.265625 48.484375 22.1875 42.84375 
Q 18.109375 37.203125 18.109375 27.296875 
Q 18.109375 17.390625 22.1875 11.75 
Q 26.265625 6.109375 33.40625 6.109375 
Q 40.53125 6.109375 44.609375 11.75 
Q 48.6875 17.390625 48.6875 27.296875 
z
" id="DejaVuSans-70"/>
     </defs>
     <g transform="translate(16.139531 294.999375)rotate(-90)scale(0.17 -0.17)">
      <use xlink:href="#DejaVuSans-46"/>
      <use x="57.410156" xlink:href="#DejaVuSans-72"/>
      <use x="98.523438" xlink:href="#DejaVuSans-61"/>
      <use x="159.802734" xlink:href="#DejaVuSans-63"/>
      <use x="214.783203" xlink:href="#DejaVuSans-74"/>
      <use x="253.992188" xlink:href="#DejaVuSans-69"/>
      <use x="281.775391" xlink:href="#DejaVuSans-6f"/>
      <use x="342.957031" xlink:href="#DejaVuSans-6e"/>
      <use x="406.335938" xlink:href="#DejaVuSans-20"/>
      <use x="438.123047" xlink:href="#DejaVuSans-6f"/>
      <use x="499.304688" xlink:href="#DejaVuSans-66"/>
      <use x="534.509766" xlink:href="#DejaVuSans-20"/>
      <use x="566.296875" xlink:href="#DejaVuSans-66"/>
      <use x="601.501953" xlink:href="#DejaVuSans-75"/>
      <use x="664.880859" xlink:href="#DejaVuSans-6e"/>
      <use x="728.259766" xlink:href="#DejaVuSans-63"/>
      <use x="783.240234" xlink:href="#DejaVuSans-74"/>
      <use x="822.449219" xlink:href="#DejaVuSans-69"/>
      <use x="850.232422" xlink:href="#DejaVuSans-6f"/>
      <use x="911.414062" xlink:href="#DejaVuSans-6e"/>
      <use x="974.792969" xlink:href="#DejaVuSans-2c"/>
      <use x="1006.580078" xlink:href="#DejaVuSans-74"/>
      <use x="1045.789062" xlink:href="#DejaVuSans-61"/>
      <use x="1107.068359" xlink:href="#DejaVuSans-72"/>
      <use x="1148.166016" xlink:href="#DejaVuSans-67"/>
      <use x="1211.642578" xlink:href="#DejaVuSans-65"/>
      <use x="1273.166016" xlink:href="#DejaVuSans-74"/>
      <use x="1312.375" xlink:href="#DejaVuSans-20"/>
      <use x="1344.162109" xlink:href="#DejaVuSans-70"/>
      <use x="1407.638672" xlink:href="#DejaVuSans-61"/>
      <use x="1468.917969" xlink:href="#DejaVuSans-69"/>
      <use x="1496.701172" xlink:href="#DejaVuSans-72"/>
      <use x="1537.814453" xlink:href="#DejaVuSans-73"/>
     </g>
    </g>
   </g>
   <g id="line2d_41">
    <defs>
     <path d="M 0 1.5 
C 0.397805 1.5 0.77937 1.341951 1.06066 1.06066 
C 1.341951 0.77937 1.5 0.397805 1.5 0 
C 1.5 -0.397805 1.341951 -0.77937 1.06066 -1.06066 
C 0.77937 -1.341951 0.397805 -1.5 0 -1.5 
C -0.397805 -1.5 -0.77937 -1.341951 -1.06066 -1.06066 
C -1.341951 -0.77937 -1.5 -0.397805 -1.5 0 
C -1.5 0.397805 -1.341951 0.77937 -1.06066 1.06066 
C -0.77937 1.341951 -0.397805 1.5 0 1.5 
z
" id="m011fe8339a" style="stroke:#f5deb3;"/>
    </defs>
    <g>
     <use style="fill:#f5deb3;stroke:#f5deb3;" x="310.033209" xlink:href="#m011fe8339a" y="27.513663"/>
     <use style="fill:#f5deb3;stroke:#f5deb3;" x="310.033209" xlink:href="#m011fe8339a" y="27.513663"/>
    </g>
   </g>
   <g id="line2d_42">
    <defs>
     <path d="M 0 1.5 
C 0.397805 1.5 0.77937 1.341951 1.06066 1.06066 
C 1.341951 0.77937 1.5 0.397805 1.5 0 
C 1.5 -0.397805 1.341951 -0.77937 1.06066 -1.06066 
C 0.77937 -1.341951 0.397805 -1.5 0 -1.5 
C -0.397805 -1.5 -0.77937 -1.341951 -1.06066 -1.06066 
C -1.341951 -0.77937 -1.5 -0.397805 -1.5 0 
C -1.5 0.397805 -1.341951 0.77937 -1.06066 1.06066 
C -0.77937 1.341951 -0.397805 1.5 0 1.5 
z
" id="m5cc6c850e8" style="stroke:#000080;"/>
    </defs>
    <g>
     <use style="fill:#000080;stroke:#000080;" x="267.050686" xlink:href="#m5cc6c850e8" y="289.637523"/>
     <use style="fill:#000080;stroke:#000080;" x="267.050686" xlink:href="#m5cc6c850e8" y="289.637523"/>
    </g>
   </g>
   <g id="line2d_43">
    <path d="M 200.042781 294.88 
L 200.042781 294.355752 
L 220.61614 294.355752 
L 220.61614 293.831505 
L 234.321157 293.831505 
L 234.321157 293.307257 
L 240.432228 293.307257 
L 240.432228 292.783009 
L 243.524501 292.783009 
L 243.524501 292.258761 
L 247.202823 292.258761 
L 247.202823 291.734514 
L 253.631166 291.734514 
L 253.631166 291.210266 
L 258.745995 291.210266 
L 258.745995 290.686018 
L 263.326964 290.686018 
L 263.326964 290.161771 
L 267.050686 290.161771 
L 267.050686 289.637523 
L 333.168 289.637523 
" style="fill:none;stroke:#000080;stroke-linecap:square;stroke-width:1.5;"/>
   </g>
   <g id="line2d_44">
    <defs>
     <path d="M 0 6 
C 1.591219 6 3.117479 5.367802 4.242641 4.242641 
C 5.367802 3.117479 6 1.591219 6 0 
C 6 -1.591219 5.367802 -3.117479 4.242641 -4.242641 
C 3.117479 -5.367802 1.591219 -6 0 -6 
C -1.591219 -6 -3.117479 -5.367802 -4.242641 -4.242641 
C -5.367802 -3.117479 -6 -1.591219 -6 0 
C -6 1.591219 -5.367802 3.117479 -4.242641 4.242641 
C -3.117479 5.367802 -1.591219 6 0 6 
z
" id="m9cb378190f" style="stroke:#000080;stroke-width:1.5;"/>
    </defs>
    <g>
     <use style="fill:none;stroke:#000080;stroke-width:1.5;" x="258.745995" xlink:href="#m9cb378190f" y="290.686018"/>
     <use style="fill:none;stroke:#000080;stroke-width:1.5;" x="267.050686" xlink:href="#m9cb378190f" y="289.637523"/>
     <use style="fill:none;stroke:#000080;stroke-width:1.5;" x="267.050686" xlink:href="#m9cb378190f" y="289.637523"/>
     <use style="fill:none;stroke:#000080;stroke-width:1.5;" x="333.168" xlink:href="#m9cb378190f" y="289.637523"/>
    </g>
   </g>
   <g id="line2d_45">
    <path style="fill:none;stroke:#000080;stroke-linecap:square;stroke-width:1.5;"/>
    <g/>
   </g>
   <g id="line2d_46">
    <path clip-path="url(#pd4f767061c)" d="M 214.433143 294.355752 
" style="fill:none;stroke:#000080;stroke-linecap:square;stroke-width:1.5;"/>
    <defs>
     <path d="M -12 12 
L 12 -12 
M -12 -12 
L 12 12 
" id="m78ba2d49b6" style="stroke:#000080;"/>
    </defs>
    <g clip-path="url(#pd4f767061c)">
     <use style="fill:#000080;stroke:#000080;" x="214.433143" xlink:href="#m78ba2d49b6" y="294.355752"/>
    </g>
   </g>
   <g id="line2d_47">
    <defs>
     <path d="M 0 1.5 
C 0.397805 1.5 0.77937 1.341951 1.06066 1.06066 
C 1.341951 0.77937 1.5 0.397805 1.5 0 
C 1.5 -0.397805 1.341951 -0.77937 1.06066 -1.06066 
C 0.77937 -1.341951 0.397805 -1.5 0 -1.5 
C -0.397805 -1.5 -0.77937 -1.341951 -1.06066 -1.06066 
C -1.341951 -0.77937 -1.5 -0.397805 -1.5 0 
C -1.5 0.397805 -1.341951 0.77937 -1.06066 1.06066 
C -0.77937 1.341951 -0.397805 1.5 0 1.5 
z
" id="me823ee08a5" style="stroke:#ff00ff;"/>
    </defs>
    <g>
     <use style="fill:#ff00ff;stroke:#ff00ff;" x="266.862754" xlink:href="#me823ee08a5" y="252.940182"/>
     <use style="fill:#ff00ff;stroke:#ff00ff;" x="266.862754" xlink:href="#me823ee08a5" y="252.940182"/>
    </g>
   </g>
   <g id="line2d_48">
    <path d="M 152.25025 294.88 
L 152.25025 294.355752 
L 157.903827 294.355752 
L 157.903827 293.831505 
L 160.053855 293.831505 
L 160.053855 293.307257 
L 165.472469 293.307257 
L 165.472469 292.783009 
L 167.503095 292.783009 
L 167.503095 292.258761 
L 168.764571 292.258761 
L 168.764571 291.734514 
L 169.49596 291.734514 
L 169.49596 291.210266 
L 171.966072 291.210266 
L 171.966072 290.686018 
L 173.671113 290.686018 
L 173.671113 290.161771 
L 174.191635 290.161771 
L 174.191635 289.637523 
L 174.514615 289.637523 
L 174.514615 289.113275 
L 174.75833 289.113275 
L 174.824751 288.06478 
L 175.208713 288.06478 
L 175.208713 287.540532 
L 175.333704 287.540532 
L 175.401272 285.967789 
L 175.713126 285.967789 
L 175.713126 285.443541 
L 175.922776 285.443541 
L 175.922776 284.919293 
L 176.4446 284.919293 
L 176.4446 284.395046 
L 176.744404 284.395046 
L 176.762874 283.34655 
L 177.178524 283.34655 
L 177.234739 282.298055 
L 177.539574 282.298055 
L 177.539574 281.773807 
L 178.596628 281.773807 
L 178.596628 281.249559 
L 179.464077 281.249559 
L 179.464077 280.725312 
L 179.706216 280.725312 
L 179.706216 280.201064 
L 179.976281 280.201064 
L 179.976281 279.676816 
L 180.563914 279.676816 
L 180.563914 279.152568 
L 180.885195 279.152568 
L 180.885195 278.628321 
L 181.237377 278.628321 
L 181.237377 278.104073 
L 181.397881 278.104073 
L 181.397881 277.579825 
L 181.530694 277.579825 
L 181.530694 277.055578 
L 182.105545 277.055578 
L 182.105545 276.53133 
L 182.304487 276.53133 
L 182.304487 276.007082 
L 182.600016 276.007082 
L 182.600016 275.482834 
L 183.16725 275.482834 
L 183.213817 274.434339 
L 183.328112 274.434339 
L 183.328112 273.910091 
L 183.811047 273.910091 
L 183.811047 273.385844 
L 184.077449 273.385844 
L 184.077449 272.861596 
L 184.94712 272.861596 
L 184.94712 272.337348 
L 185.500912 272.337348 
L 185.500912 271.8131 
L 186.145144 271.8131 
L 186.145144 271.288853 
L 187.779587 271.288853 
L 187.779587 270.764605 
L 193.187754 270.764605 
L 193.187754 270.240357 
L 194.491798 270.240357 
L 194.491798 269.716109 
L 196.433015 269.716109 
L 196.433015 269.191862 
L 197.207353 269.191862 
L 197.207353 268.667614 
L 197.84439 268.667614 
L 197.84439 268.143366 
L 207.927297 268.143366 
L 207.927297 267.619119 
L 216.121792 267.619119 
L 216.121792 267.094871 
L 216.333543 267.094871 
L 216.333543 266.570623 
L 217.023206 266.570623 
L 217.062561 265.522128 
L 219.482066 265.522128 
L 219.482066 264.99788 
L 227.668856 264.99788 
L 227.668856 264.473632 
L 229.056575 264.473632 
L 229.056575 263.949385 
L 231.102763 263.949385 
L 231.102763 263.425137 
L 233.944706 263.425137 
L 233.944706 262.900889 
L 234.905116 262.900889 
L 234.905116 262.376641 
L 235.212644 262.376641 
L 235.212644 261.852394 
L 238.787734 261.852394 
L 238.787734 261.328146 
L 239.702702 261.328146 
L 239.702702 260.803898 
L 240.160776 260.803898 
L 240.160776 260.279651 
L 240.660673 260.279651 
L 240.660673 259.755403 
L 243.605587 259.755403 
L 243.605587 259.231155 
L 245.698162 259.231155 
L 245.698162 258.706907 
L 250.1482 258.706907 
L 250.1482 258.18266 
L 250.928806 258.18266 
L 250.928806 257.658412 
L 254.514313 257.658412 
L 254.514313 257.134164 
L 255.248461 257.134164 
L 255.248461 256.609917 
L 255.360063 256.609917 
L 255.360063 256.085669 
L 255.823219 256.085669 
L 255.823219 255.561421 
L 260.060539 255.561421 
L 260.060539 255.037173 
L 260.778654 255.037173 
L 260.778654 254.512926 
L 262.111845 254.512926 
L 262.111845 253.988678 
L 265.532944 253.988678 
L 265.532944 253.46443 
L 266.862754 253.46443 
L 266.862754 252.940182 
L 333.168 252.940182 
L 333.168 252.940182 
" style="fill:none;stroke:#ff00ff;stroke-linecap:square;stroke-width:1.5;"/>
   </g>
   <g id="line2d_49">
    <defs>
     <path d="M -0 8.485281 
L 5.091169 0 
L 0 -8.485281 
L -5.091169 -0 
z
" id="m3e6f1f5738" style="stroke:#ff00ff;stroke-linejoin:miter;stroke-width:1.5;"/>
    </defs>
    <g>
     <use style="fill:none;stroke:#ff00ff;stroke-linejoin:miter;stroke-width:1.5;" x="255.823219" xlink:href="#m3e6f1f5738" y="256.085669"/>
     <use style="fill:none;stroke:#ff00ff;stroke-linejoin:miter;stroke-width:1.5;" x="266.862754" xlink:href="#m3e6f1f5738" y="252.940182"/>
     <use style="fill:none;stroke:#ff00ff;stroke-linejoin:miter;stroke-width:1.5;" x="266.862754" xlink:href="#m3e6f1f5738" y="252.940182"/>
     <use style="fill:none;stroke:#ff00ff;stroke-linejoin:miter;stroke-width:1.5;" x="333.168" xlink:href="#m3e6f1f5738" y="252.940182"/>
    </g>
   </g>
   <g id="line2d_50">
    <path style="fill:none;stroke:#ff00ff;stroke-linecap:square;stroke-width:1.5;"/>
    <g/>
   </g>
   <g id="line2d_51">
    <path clip-path="url(#pd4f767061c)" d="M 214.433143 267.619119 
" style="fill:none;stroke:#ff00ff;stroke-linecap:square;stroke-width:1.5;"/>
    <defs>
     <path d="M -12 12 
L 12 -12 
M -12 -12 
L 12 12 
" id="m29d6159f05" style="stroke:#ff00ff;"/>
    </defs>
    <g clip-path="url(#pd4f767061c)">
     <use style="fill:#ff00ff;stroke:#ff00ff;" x="214.433143" xlink:href="#m29d6159f05" y="267.619119"/>
    </g>
   </g>
   <g id="line2d_52">
    <defs>
     <path d="M 0 1.5 
C 0.397805 1.5 0.77937 1.341951 1.06066 1.06066 
C 1.341951 0.77937 1.5 0.397805 1.5 0 
C 1.5 -0.397805 1.341951 -0.77937 1.06066 -1.06066 
C 0.77937 -1.341951 0.397805 -1.5 0 -1.5 
C -0.397805 -1.5 -0.77937 -1.341951 -1.06066 -1.06066 
C -1.341951 -0.77937 -1.5 -0.397805 -1.5 0 
C -1.5 0.397805 -1.341951 0.77937 -1.06066 1.06066 
C -0.77937 1.341951 -0.397805 1.5 0 1.5 
z
" id="mbd6b9a290e" style="stroke:#ff7500;"/>
    </defs>
    <g>
     <use style="fill:#ff7500;stroke:#ff7500;" x="259.268133" xlink:href="#mbd6b9a290e" y="268.667614"/>
     <use style="fill:#ff7500;stroke:#ff7500;" x="259.268133" xlink:href="#mbd6b9a290e" y="268.667614"/>
    </g>
   </g>
   <g id="line2d_53">
    <path d="M 151.278882 294.88 
L 151.278882 294.355752 
L 153.193908 294.355752 
L 153.193908 293.831505 
L 158.501595 293.831505 
L 158.501595 293.307257 
L 158.871447 293.307257 
L 158.871447 292.783009 
L 159.394825 292.783009 
L 159.394825 292.258761 
L 160.437873 292.258761 
L 160.437873 291.734514 
L 162.933729 291.734514 
L 162.933729 291.210266 
L 163.428644 291.210266 
L 163.428644 290.686018 
L 165.503593 290.686018 
L 165.503593 290.161771 
L 165.684768 290.161771 
L 165.684768 289.637523 
L 166.484916 289.637523 
L 166.484916 289.113275 
L 170.630361 289.113275 
L 170.630361 288.589027 
L 170.844403 288.589027 
L 170.844403 288.06478 
L 171.07831 288.06478 
L 171.07831 287.540532 
L 171.368129 287.540532 
L 171.368129 287.016284 
L 171.610638 287.016284 
L 171.610638 286.492036 
L 171.638641 286.492036 
L 171.638641 285.967789 
L 175.683668 285.967789 
L 175.683668 285.443541 
L 178.9524 285.443541 
L 178.9524 284.919293 
L 183.686054 284.919293 
L 183.686054 284.395046 
L 185.000071 284.395046 
L 185.000071 283.870798 
L 185.144731 283.870798 
L 185.144731 283.34655 
L 185.251142 283.34655 
L 185.251142 282.822302 
L 185.553109 282.822302 
L 185.553109 282.298055 
L 185.761692 282.298055 
L 185.761692 281.773807 
L 185.976776 281.773807 
L 185.976776 281.249559 
L 190.049872 281.249559 
L 190.049872 280.725312 
L 193.502258 280.725312 
L 193.502258 280.201064 
L 194.910826 280.201064 
L 194.910826 279.676816 
L 195.144707 279.676816 
L 195.144707 279.152568 
L 197.186737 279.152568 
L 197.186737 278.628321 
L 200.225634 278.628321 
L 200.225634 278.104073 
L 201.257448 278.104073 
L 201.257448 277.579825 
L 201.317645 277.579825 
L 201.317645 277.055578 
L 201.44601 277.055578 
L 201.44601 276.53133 
L 202.525078 276.53133 
L 202.525078 276.007082 
L 207.912232 276.007082 
L 207.912232 275.482834 
L 208.057308 275.482834 
L 208.057308 274.958587 
L 208.496867 274.958587 
L 208.496867 274.434339 
L 211.198159 274.434339 
L 211.198159 273.910091 
L 212.813016 273.910091 
L 212.813016 273.385844 
L 216.510075 273.385844 
L 216.510075 272.861596 
L 216.55214 272.861596 
L 216.55214 272.337348 
L 220.706826 272.337348 
L 220.706826 271.8131 
L 227.158055 271.8131 
L 227.158055 271.288853 
L 232.258533 271.288853 
L 232.258533 270.764605 
L 236.3423 270.764605 
L 236.3423 270.240357 
L 244.742622 270.240357 
L 244.742622 269.716109 
L 244.971456 269.716109 
L 244.971456 269.191862 
L 259.268133 269.191862 
L 259.268133 268.667614 
L 333.168 268.667614 
" style="fill:none;stroke:#ff7500;stroke-linecap:square;stroke-width:1.5;"/>
   </g>
   <g id="line2d_54">
    <defs>
     <path d="M 0 -6 
L -1.347084 -1.854102 
L -5.706339 -1.854102 
L -2.179628 0.708204 
L -3.526712 4.854102 
L -0 2.291796 
L 3.526712 4.854102 
L 2.179628 0.708204 
L 5.706339 -1.854102 
L 1.347084 -1.854102 
z
" id="ma1baf8a5ff" style="stroke:#ff7500;stroke-linejoin:bevel;stroke-width:1.5;"/>
    </defs>
    <g>
     <use style="fill:none;stroke:#ff7500;stroke-linejoin:bevel;stroke-width:1.5;" x="220.706826" xlink:href="#ma1baf8a5ff" y="271.8131"/>
     <use style="fill:none;stroke:#ff7500;stroke-linejoin:bevel;stroke-width:1.5;" x="259.268133" xlink:href="#ma1baf8a5ff" y="268.667614"/>
     <use style="fill:none;stroke:#ff7500;stroke-linejoin:bevel;stroke-width:1.5;" x="259.268133" xlink:href="#ma1baf8a5ff" y="268.667614"/>
     <use style="fill:none;stroke:#ff7500;stroke-linejoin:bevel;stroke-width:1.5;" x="333.168" xlink:href="#ma1baf8a5ff" y="268.667614"/>
    </g>
   </g>
   <g id="line2d_55">
    <path style="fill:none;stroke:#ff7500;stroke-linecap:square;stroke-width:1.5;"/>
    <g/>
   </g>
   <g id="line2d_56">
    <path clip-path="url(#pd4f767061c)" d="M 242.097315 270.240357 
" style="fill:none;stroke:#ff7500;stroke-linecap:square;stroke-width:1.5;"/>
    <defs>
     <path d="M -12 12 
L 12 -12 
M -12 -12 
L 12 12 
" id="m4ab990a78d" style="stroke:#ff7500;"/>
    </defs>
    <g clip-path="url(#pd4f767061c)">
     <use style="fill:#ff7500;stroke:#ff7500;" x="242.097315" xlink:href="#m4ab990a78d" y="270.240357"/>
    </g>
   </g>
   <g id="line2d_57">
    <defs>
     <path d="M 0 1.5 
C 0.397805 1.5 0.77937 1.341951 1.06066 1.06066 
C 1.341951 0.77937 1.5 0.397805 1.5 0 
C 1.5 -0.397805 1.341951 -0.77937 1.06066 -1.06066 
C 0.77937 -1.341951 0.397805 -1.5 0 -1.5 
C -0.397805 -1.5 -0.77937 -1.341951 -1.06066 -1.06066 
C -1.341951 -0.77937 -1.5 -0.397805 -1.5 0 
C -1.5 0.397805 -1.341951 0.77937 -1.06066 1.06066 
C -0.77937 1.341951 -0.397805 1.5 0 1.5 
z
" id="m423da28bd5" style="stroke:#6495ed;"/>
    </defs>
    <g>
     <use style="fill:#6495ed;stroke:#6495ed;" x="332.870781" xlink:href="#m423da28bd5" y="27.513663"/>
     <use style="fill:#6495ed;stroke:#6495ed;" x="332.870781" xlink:href="#m423da28bd5" y="27.513663"/>
    </g>
   </g>
   <g id="line2d_58">
    <path d="M 118.186736 294.88 
L 118.186736 294.355752 
L 121.797821 294.355752 
L 121.797821 293.831505 
L 122.077925 293.831505 
L 122.077925 293.307257 
L 122.207094 293.307257 
L 122.207094 292.783009 
L 122.732117 292.783009 
L 122.732117 292.258761 
L 122.891847 292.258761 
L 122.891847 291.734514 
L 123.258878 291.734514 
L 123.258878 291.210266 
L 125.839208 291.210266 
L 125.839208 290.686018 
L 126.163531 290.686018 
L 126.163531 290.161771 
L 126.294465 290.161771 
L 126.294465 289.637523 
L 127.087492 289.637523 
L 127.087492 289.113275 
L 129.047315 289.113275 
L 129.047315 288.589027 
L 157.012461 288.589027 
L 157.012461 288.06478 
L 157.43198 288.06478 
L 157.43198 287.540532 
L 158.023225 287.540532 
L 158.023225 287.016284 
L 158.137254 287.016284 
L 158.137254 286.492036 
L 158.421295 286.492036 
L 158.421295 285.967789 
L 158.616926 285.967789 
L 158.616926 285.443541 
L 158.962679 285.443541 
L 158.977838 283.870798 
L 159.132983 283.870798 
L 159.132983 283.34655 
L 159.269723 283.34655 
L 159.269723 282.822302 
L 159.491733 282.822302 
L 159.548361 281.773807 
L 159.906838 281.773807 
L 159.960072 280.725312 
L 160.161278 280.725312 
L 160.161278 280.201064 
L 172.996041 280.201064 
L 172.996041 279.676816 
L 173.280001 279.676816 
L 173.352374 278.628321 
L 173.451509 278.628321 
L 173.487839 277.579825 
L 173.716168 277.579825 
L 173.751944 276.53133 
L 174.640386 276.53133 
L 174.640386 276.007082 
L 185.126301 276.007082 
L 185.126301 275.482834 
L 185.392317 275.482834 
L 185.392317 274.958587 
L 185.525414 274.958587 
L 185.525414 274.434339 
L 185.704183 274.434339 
L 185.704183 273.910091 
L 185.943445 273.910091 
L 185.943445 273.385844 
L 195.971334 273.385844 
L 195.971334 272.861596 
L 196.163718 272.861596 
L 196.205462 271.8131 
L 196.280742 271.8131 
L 196.324668 270.764605 
L 196.397466 270.764605 
L 196.490229 269.716109 
L 196.583222 269.716109 
L 196.583222 269.191862 
L 196.773237 269.191862 
L 196.773237 268.667614 
L 217.216601 268.667614 
L 217.216601 268.143366 
L 217.42309 268.143366 
L 217.42309 267.619119 
L 217.733849 267.619119 
L 217.733849 267.094871 
L 227.237478 267.094871 
L 227.237478 266.570623 
L 236.859812 266.570623 
L 236.935385 265.522128 
L 236.977065 265.522128 
L 236.977065 264.99788 
L 237.128947 264.99788 
L 237.128947 264.473632 
L 237.320081 264.473632 
L 237.374826 263.425137 
L 237.677916 263.425137 
L 237.677916 262.900889 
L 237.977415 262.900889 
L 238.08147 261.852394 
L 238.5046 261.852394 
L 238.556276 260.803898 
L 238.73976 260.803898 
L 238.796588 259.755403 
L 238.865493 259.755403 
L 238.865493 259.231155 
L 239.11327 259.231155 
L 239.218821 258.18266 
L 239.434361 258.18266 
L 239.434361 257.134164 
L 239.730085 257.134164 
L 239.730085 256.609917 
L 239.948308 256.609917 
L 240.057793 255.561421 
L 240.143337 255.561421 
L 240.143337 255.037173 
L 240.265631 255.037173 
L 240.265631 254.512926 
L 240.386454 254.512926 
L 240.386454 253.988678 
L 240.499757 253.988678 
L 240.499757 253.46443 
L 240.847753 253.46443 
L 240.924404 252.415935 
L 248.314315 252.415935 
L 248.314315 251.891687 
L 254.171208 251.891687 
L 254.21057 250.318944 
L 254.335269 250.318944 
L 254.413652 249.270448 
L 254.583342 249.270448 
L 254.659379 246.64921 
L 256.004569 246.64921 
L 256.004569 246.124962 
L 257.163561 246.124962 
L 257.163561 245.600714 
L 259.213096 245.600714 
L 259.319947 244.027971 
L 259.337545 244.027971 
L 259.433469 240.882485 
L 259.508692 240.882485 
L 259.619663 238.785494 
L 259.643702 238.785494 
L 259.739588 235.11576 
L 259.804684 235.11576 
L 259.83529 234.067265 
L 260.005887 234.067265 
L 260.005887 233.543017 
L 260.203186 233.543017 
L 260.306982 230.921778 
L 260.355957 230.921778 
L 260.394256 229.873283 
L 260.49527 229.873283 
L 260.593783 228.824787 
L 260.61489 228.824787 
L 260.61489 228.30054 
L 265.964148 228.30054 
L 266.027957 226.727797 
L 266.247159 226.727797 
L 266.247159 226.203549 
L 266.945164 226.203549 
L 266.952889 225.155053 
L 267.680884 225.155053 
L 267.680884 224.630806 
L 268.752166 224.630806 
L 268.857962 223.058063 
L 268.938131 223.058063 
L 269.033183 220.961072 
L 269.106784 220.961072 
L 269.212525 218.864081 
L 269.240399 218.864081 
L 269.34776 214.670099 
L 269.357857 214.670099 
L 269.449789 213.621604 
L 269.544756 213.621604 
L 269.544756 213.097356 
L 273.020535 213.097356 
L 273.117979 210.476117 
L 273.580651 210.476117 
L 273.580651 209.95187 
L 274.916502 209.95187 
L 274.99666 205.757888 
L 275.034859 205.757888 
L 275.145829 202.612401 
L 275.214249 202.612401 
L 275.321725 200.515411 
L 275.331585 200.515411 
L 275.380746 198.942667 
L 276.600382 198.942667 
L 276.600382 198.41842 
L 277.817844 198.41842 
L 277.817844 197.894172 
L 277.94158 197.894172 
L 277.999649 196.845677 
L 278.301386 196.845677 
L 278.301386 196.321429 
L 279.369327 196.321429 
L 279.435598 192.651695 
L 279.490979 192.651695 
L 279.594933 188.981961 
L 279.603126 188.981961 
L 279.676601 185.312227 
L 281.653368 185.312227 
L 281.740487 182.690988 
L 282.281579 182.690988 
L 282.363488 181.118245 
L 282.790369 181.118245 
L 282.899541 179.021254 
L 282.914722 179.021254 
L 283.023152 174.303025 
L 283.060987 174.303025 
L 283.170742 169.060547 
L 283.181607 169.060547 
L 283.209978 168.012052 
L 283.966581 168.012052 
L 283.966581 167.487804 
L 284.853162 167.487804 
L 284.898325 165.915061 
L 285.021966 165.915061 
L 285.021966 165.390813 
L 285.816688 165.390813 
L 285.902345 161.721079 
L 285.928937 161.721079 
L 286.027988 154.905859 
L 286.052893 154.905859 
L 286.121241 153.333116 
L 286.736608 153.333116 
L 286.744611 152.28462 
L 287.376236 152.28462 
L 287.376236 151.760373 
L 287.694579 151.760373 
L 287.694579 151.236125 
L 287.915701 151.236125 
L 287.955868 150.18763 
L 288.337251 150.18763 
L 288.439975 145.993648 
L 288.466415 145.993648 
L 288.535703 142.323914 
L 290.472096 142.323914 
L 290.571722 138.65418 
L 290.595896 138.65418 
L 290.697344 132.887455 
L 290.715944 132.887455 
L 290.741724 131.314712 
L 291.929589 131.314712 
L 291.929589 130.790464 
L 292.408367 130.790464 
L 292.501027 127.644978 
L 292.527282 127.644978 
L 292.629831 126.596482 
L 294.223126 126.596482 
L 294.333559 122.4025 
L 294.36223 122.4025 
L 294.36223 121.878253 
L 295.246214 121.878253 
L 295.255811 120.829757 
L 295.753936 120.829757 
L 295.845547 117.160023 
L 295.870495 117.160023 
L 295.948635 114.538785 
L 296.872936 114.538785 
L 296.872936 114.014537 
L 297.229881 114.014537 
L 297.339151 110.344803 
L 297.347263 110.344803 
L 297.383873 109.296308 
L 298.590797 109.296308 
L 298.668472 104.05383 
L 299.792656 104.05383 
L 299.896594 100.384096 
L 299.913525 100.384096 
L 299.947145 99.335601 
L 300.952643 99.335601 
L 301.057074 95.665867 
L 301.074737 95.665867 
L 301.074737 95.141619 
L 301.989734 95.141619 
L 302.066472 92.520381 
L 302.10319 92.520381 
L 302.161488 89.899142 
L 303.02013 89.899142 
L 303.128923 86.229408 
L 303.141553 86.229408 
L 303.174595 84.656665 
L 303.988587 84.656665 
L 304.073843 81.511178 
L 304.932731 81.511178 
L 304.979944 78.365692 
L 305.777415 78.365692 
L 305.847359 75.744454 
L 306.644878 75.744454 
L 306.687971 74.17171 
L 307.411691 74.17171 
L 307.481432 70.501976 
L 308.134074 70.501976 
L 308.225471 67.35649 
L 308.859167 67.35649 
L 308.956391 65.259499 
L 309.568697 65.259499 
L 309.654787 62.638261 
L 310.224968 62.638261 
L 310.276355 60.017022 
L 310.874166 60.017022 
L 310.954078 57.395783 
L 311.508515 57.395783 
L 311.552224 54.774545 
L 312.110759 54.774545 
L 312.146182 52.677554 
L 312.677107 52.677554 
L 312.702384 51.629058 
L 313.186704 51.629058 
L 313.22534 50.580563 
L 313.793606 50.580563 
L 313.793606 50.056315 
L 314.272078 50.056315 
L 314.31975 48.483572 
L 315.266037 48.483572 
L 315.329584 44.813838 
L 315.749998 44.813838 
L 315.757983 43.765343 
L 316.224813 43.765343 
L 316.254222 42.716847 
L 316.728648 42.716847 
L 316.728648 42.192599 
L 317.119968 42.192599 
L 317.171899 40.619856 
L 317.563752 40.619856 
L 317.563752 40.095609 
L 318.007109 40.095609 
L 318.017773 39.047113 
L 318.428037 39.047113 
L 318.428037 38.522865 
L 318.758896 38.522865 
L 318.80407 37.47437 
L 319.186047 37.47437 
L 319.186047 36.950122 
L 319.945237 36.950122 
L 319.947647 35.901627 
L 320.286031 35.901627 
L 320.325625 34.853131 
L 320.683939 34.853131 
L 320.683939 34.328884 
L 321.015354 34.328884 
L 321.015354 33.804636 
L 321.350073 33.804636 
L 321.350073 33.280388 
L 322.028426 33.280388 
L 322.028426 32.756141 
L 322.972429 32.756141 
L 322.972429 32.231893 
L 323.901246 32.231893 
L 323.901246 31.707645 
L 326.635178 31.707645 
L 326.635178 31.183397 
L 327.099914 31.183397 
L 327.099914 30.65915 
L 327.589357 30.65915 
L 327.589357 30.134902 
L 328.053963 30.134902 
L 328.053963 29.610654 
L 328.530985 29.610654 
L 328.530985 29.086407 
L 329.802664 29.086407 
L 329.802664 28.562159 
L 330.645092 28.562159 
L 330.645092 28.037911 
L 332.870781 28.037911 
L 332.870781 27.513663 
L 333.168 27.513663 
L 333.168 27.513663 
" style="fill:none;stroke:#6495ed;stroke-linecap:square;stroke-width:1.5;"/>
   </g>
   <g id="line2d_59">
    <defs>
     <path d="M -0 6 
L 6 -6 
L -6 -6 
z
" id="me6efc49b68" style="stroke:#6495ed;stroke-linejoin:miter;stroke-width:1.5;"/>
    </defs>
    <g>
     <use style="fill:none;stroke:#6495ed;stroke-linejoin:miter;stroke-width:1.5;" x="240.924404" xlink:href="#me6efc49b68" y="252.940182"/>
     <use style="fill:none;stroke:#6495ed;stroke-linejoin:miter;stroke-width:1.5;" x="290.536701" xlink:href="#me6efc49b68" y="139.702675"/>
     <use style="fill:none;stroke:#6495ed;stroke-linejoin:miter;stroke-width:1.5;" x="321.350073" xlink:href="#me6efc49b68" y="33.804636"/>
     <use style="fill:none;stroke:#6495ed;stroke-linejoin:miter;stroke-width:1.5;" x="332.870781" xlink:href="#me6efc49b68" y="27.513663"/>
     <use style="fill:none;stroke:#6495ed;stroke-linejoin:miter;stroke-width:1.5;" x="333.168" xlink:href="#me6efc49b68" y="27.513663"/>
    </g>
   </g>
   <g id="line2d_60">
    <path style="fill:none;stroke:#6495ed;stroke-linecap:square;stroke-width:1.5;"/>
    <g/>
   </g>
   <g id="line2d_61">
    <path clip-path="url(#pd4f767061c)" d="M 254.029484 251.891687 
" style="fill:none;stroke:#6495ed;stroke-linecap:square;stroke-width:1.5;"/>
    <defs>
     <path d="M -12 12 
L 12 -12 
M -12 -12 
L 12 12 
" id="m34dfa031e1" style="stroke:#6495ed;"/>
    </defs>
    <g clip-path="url(#pd4f767061c)">
     <use style="fill:#6495ed;stroke:#6495ed;" x="254.029484" xlink:href="#m34dfa031e1" y="251.891687"/>
    </g>
   </g>
   <g id="line2d_62">
    <defs>
     <path d="M 0 1.5 
C 0.397805 1.5 0.77937 1.341951 1.06066 1.06066 
C 1.341951 0.77937 1.5 0.397805 1.5 0 
C 1.5 -0.397805 1.341951 -0.77937 1.06066 -1.06066 
C 0.77937 -1.341951 0.397805 -1.5 0 -1.5 
C -0.397805 -1.5 -0.77937 -1.341951 -1.06066 -1.06066 
C -1.341951 -0.77937 -1.5 -0.397805 -1.5 0 
C -1.5 0.397805 -1.341951 0.77937 -1.06066 1.06066 
C -0.77937 1.341951 -0.397805 1.5 0 1.5 
z
" id="m528cf272c6" style="stroke:#ff0000;"/>
    </defs>
    <g>
     <use style="fill:#ff0000;stroke:#ff0000;" x="320.94162" xlink:href="#m528cf272c6" y="258.18266"/>
     <use style="fill:#ff0000;stroke:#ff0000;" x="320.94162" xlink:href="#m528cf272c6" y="258.18266"/>
    </g>
   </g>
   <g id="line2d_63">
    <path d="M 151.224595 294.88 
L 151.224595 294.355752 
L 151.547775 294.355752 
L 151.547775 293.831505 
L 152.773642 293.831505 
L 152.773642 293.307257 
L 153.464506 293.307257 
L 153.464506 292.783009 
L 153.639614 292.783009 
L 153.639614 292.258761 
L 154.163077 292.258761 
L 154.163077 291.734514 
L 154.985202 291.734514 
L 154.985202 291.210266 
L 155.226516 291.210266 
L 155.226516 290.686018 
L 157.02944 290.686018 
L 157.068186 289.637523 
L 157.360786 289.637523 
L 157.360786 289.113275 
L 158.875802 289.113275 
L 158.875802 288.589027 
L 159.552548 288.589027 
L 159.552548 288.06478 
L 160.002949 288.06478 
L 160.002949 287.540532 
L 160.592263 287.540532 
L 160.592263 287.016284 
L 160.836827 287.016284 
L 160.836827 286.492036 
L 161.072212 286.492036 
L 161.072212 285.967789 
L 161.364807 285.967789 
L 161.364807 285.443541 
L 161.561487 285.443541 
L 161.561487 284.919293 
L 161.999133 284.919293 
L 161.999133 284.395046 
L 163.075863 284.395046 
L 163.075863 283.870798 
L 165.496187 283.870798 
L 165.496187 283.34655 
L 166.229889 283.34655 
L 166.229889 282.822302 
L 167.077378 282.822302 
L 167.077378 282.298055 
L 168.639178 282.298055 
L 168.639178 281.773807 
L 177.134172 281.773807 
L 177.134172 281.249559 
L 179.353297 281.249559 
L 179.353297 280.725312 
L 180.135674 280.725312 
L 180.135674 280.201064 
L 180.250333 280.201064 
L 180.328641 279.152568 
L 180.560831 279.152568 
L 180.560831 278.628321 
L 184.7022 278.628321 
L 184.7022 278.104073 
L 189.481005 278.104073 
L 189.481005 277.579825 
L 189.778977 277.579825 
L 189.778977 277.055578 
L 191.491664 277.055578 
L 191.491664 276.53133 
L 192.941366 276.53133 
L 192.941366 276.007082 
L 194.877613 276.007082 
L 194.877613 275.482834 
L 195.38352 275.482834 
L 195.38352 274.958587 
L 196.365532 274.958587 
L 196.365532 274.434339 
L 199.426168 274.434339 
L 199.426168 273.910091 
L 201.786035 273.910091 
L 201.786035 273.385844 
L 204.000168 273.385844 
L 204.000168 272.861596 
L 205.05209 272.861596 
L 205.05209 272.337348 
L 205.441614 272.337348 
L 205.441614 271.8131 
L 205.960519 271.8131 
L 205.960519 271.288853 
L 216.709221 271.288853 
L 216.709221 270.764605 
L 254.544759 270.764605 
L 254.558077 269.716109 
L 266.031433 269.716109 
L 266.03707 268.667614 
L 266.217868 268.667614 
L 266.231302 267.619119 
L 272.966469 267.619119 
L 272.966469 267.094871 
L 273.112973 267.094871 
L 273.112973 266.570623 
L 281.768615 266.570623 
L 281.768615 266.046375 
L 284.884165 266.046375 
L 284.99062 263.949385 
L 287.498996 263.949385 
L 287.498996 263.425137 
L 296.821978 263.425137 
L 296.821978 262.900889 
L 298.155177 262.900889 
L 298.155177 262.376641 
L 299.456568 262.376641 
L 299.456568 261.852394 
L 301.743852 261.852394 
L 301.743852 261.328146 
L 302.783527 261.328146 
L 302.783527 260.803898 
L 303.762855 260.803898 
L 303.762855 260.279651 
L 304.69185 260.279651 
L 304.69185 259.755403 
L 309.369184 259.755403 
L 309.369184 259.231155 
L 318.698619 259.231155 
L 318.698619 258.706907 
L 320.94162 258.706907 
L 320.94162 258.18266 
L 333.168 258.18266 
L 333.168 258.18266 
" style="fill:none;stroke:#ff0000;stroke-linecap:square;stroke-width:1.5;"/>
   </g>
   <g id="line2d_64">
    <defs>
     <path d="M 0 -6 
L -5.196152 -3 
L -5.196152 3 
L -0 6 
L 5.196152 3 
L 5.196152 -3 
z
" id="mb2d7c421b3" style="stroke:#ff0000;stroke-linejoin:miter;stroke-width:1.5;"/>
    </defs>
    <g>
     <use style="fill:none;stroke:#ff0000;stroke-linejoin:miter;stroke-width:1.5;" x="205.960519" xlink:href="#mb2d7c421b3" y="271.8131"/>
     <use style="fill:none;stroke:#ff0000;stroke-linejoin:miter;stroke-width:1.5;" x="287.498996" xlink:href="#mb2d7c421b3" y="263.949385"/>
     <use style="fill:none;stroke:#ff0000;stroke-linejoin:miter;stroke-width:1.5;" x="320.94162" xlink:href="#mb2d7c421b3" y="258.18266"/>
     <use style="fill:none;stroke:#ff0000;stroke-linejoin:miter;stroke-width:1.5;" x="333.168" xlink:href="#mb2d7c421b3" y="258.18266"/>
    </g>
   </g>
   <g id="line2d_65">
    <path style="fill:none;stroke:#ff0000;stroke-linecap:square;stroke-width:1.5;"/>
    <g/>
   </g>
   <g id="line2d_66">
    <path clip-path="url(#pd4f767061c)" d="M 254.026694 270.764605 
" style="fill:none;stroke:#ff0000;stroke-linecap:square;stroke-width:1.5;"/>
    <defs>
     <path d="M -12 12 
L 12 -12 
M -12 -12 
L 12 12 
" id="m4155f4cf51" style="stroke:#ff0000;"/>
    </defs>
    <g clip-path="url(#pd4f767061c)">
     <use style="fill:#ff0000;stroke:#ff0000;" x="254.026694" xlink:href="#m4155f4cf51" y="270.764605"/>
    </g>
   </g>
   <g id="line2d_67">
    <defs>
     <path d="M 0 1.5 
C 0.397805 1.5 0.77937 1.341951 1.06066 1.06066 
C 1.341951 0.77937 1.5 0.397805 1.5 0 
C 1.5 -0.397805 1.341951 -0.77937 1.06066 -1.06066 
C 0.77937 -1.341951 0.397805 -1.5 0 -1.5 
C -0.397805 -1.5 -0.77937 -1.341951 -1.06066 -1.06066 
C -1.341951 -0.77937 -1.5 -0.397805 -1.5 0 
C -1.5 0.397805 -1.341951 0.77937 -1.06066 1.06066 
C -0.77937 1.341951 -0.397805 1.5 0 1.5 
z
" id="m466283c858" style="stroke:#9acd32;"/>
    </defs>
    <g>
     <use style="fill:#9acd32;stroke:#9acd32;" x="321.085262" xlink:href="#m466283c858" y="237.212751"/>
     <use style="fill:#9acd32;stroke:#9acd32;" x="321.085262" xlink:href="#m466283c858" y="237.212751"/>
    </g>
   </g>
   <g id="line2d_68">
    <path d="M 135.447604 294.88 
L 135.447604 294.355752 
L 137.835115 294.355752 
L 137.835115 293.831505 
L 139.132718 293.831505 
L 139.132718 293.307257 
L 142.078997 293.307257 
L 142.078997 292.783009 
L 144.717888 292.783009 
L 144.717888 292.258761 
L 146.118124 292.258761 
L 146.118124 291.734514 
L 146.457786 291.734514 
L 146.466753 290.686018 
L 148.204543 290.686018 
L 148.204543 290.161771 
L 148.782132 290.161771 
L 148.782132 289.637523 
L 149.911525 289.637523 
L 149.911525 289.113275 
L 152.202161 289.113275 
L 152.202161 288.589027 
L 152.342842 288.589027 
L 152.342842 288.06478 
L 156.417434 288.06478 
L 156.417434 287.540532 
L 157.720832 287.540532 
L 157.720832 287.016284 
L 157.910738 287.016284 
L 157.910738 286.492036 
L 159.269723 286.492036 
L 159.269723 285.967789 
L 166.405011 285.967789 
L 166.430284 284.919293 
L 167.119214 284.919293 
L 167.119214 284.395046 
L 172.507499 284.395046 
L 172.534079 283.34655 
L 173.058172 283.34655 
L 173.058172 282.822302 
L 173.463628 282.822302 
L 173.463628 282.298055 
L 174.755737 282.298055 
L 174.755737 281.773807 
L 175.207029 281.773807 
L 175.207029 281.249559 
L 175.867767 281.249559 
L 175.867767 280.725312 
L 176.719748 280.725312 
L 176.719748 280.201064 
L 178.384476 280.201064 
L 178.384476 279.676816 
L 178.740507 279.676816 
L 178.740507 279.152568 
L 183.89963 279.152568 
L 183.89963 278.628321 
L 186.164739 278.628321 
L 186.164739 278.104073 
L 190.668806 278.104073 
L 190.668806 277.579825 
L 192.764009 277.579825 
L 192.764009 277.055578 
L 195.068514 277.055578 
L 195.068514 276.53133 
L 195.217147 276.53133 
L 195.217147 276.007082 
L 195.483198 276.007082 
L 195.483198 275.482834 
L 197.447516 275.482834 
L 197.447516 274.958587 
L 198.207144 274.958587 
L 198.207144 274.434339 
L 198.706334 274.434339 
L 198.810514 273.385844 
L 201.207432 273.385844 
L 201.207432 272.861596 
L 202.243047 272.861596 
L 202.243047 272.337348 
L 205.115902 272.337348 
L 205.115902 271.8131 
L 212.854047 271.8131 
L 212.854047 271.288853 
L 214.156076 271.288853 
L 214.156076 270.764605 
L 239.636524 270.764605 
L 239.728724 269.716109 
L 239.786685 269.716109 
L 239.864741 268.667614 
L 240.001905 268.667614 
L 240.001905 268.143366 
L 254.227569 268.143366 
L 254.227569 267.619119 
L 254.610322 267.619119 
L 254.610322 267.094871 
L 255.544752 267.094871 
L 255.544752 266.570623 
L 260.224059 266.570623 
L 260.273145 264.473632 
L 266.027705 264.473632 
L 266.045773 263.425137 
L 266.186598 263.425137 
L 266.198081 262.376641 
L 269.349627 262.376641 
L 269.406457 260.803898 
L 272.969034 260.803898 
L 272.969034 260.279651 
L 273.099067 260.279651 
L 273.121686 259.231155 
L 275.279985 259.231155 
L 275.279985 258.706907 
L 277.980209 258.706907 
L 278.000162 257.658412 
L 279.647983 257.658412 
L 279.674121 255.561421 
L 283.131146 255.561421 
L 283.154075 253.988678 
L 284.865635 253.988678 
L 284.865635 253.46443 
L 286.037128 253.46443 
L 286.063256 251.891687 
L 287.554844 251.891687 
L 287.554844 251.367439 
L 288.527734 251.367439 
L 288.527734 250.843192 
L 289.836123 250.843192 
L 289.845295 249.794696 
L 289.974863 249.794696 
L 289.974863 249.270448 
L 290.67527 249.270448 
L 290.702679 247.697705 
L 292.606437 247.697705 
L 292.606437 247.173458 
L 294.353705 247.173458 
L 294.353705 246.64921 
L 295.926227 246.64921 
L 295.935814 245.076467 
L 299.933947 245.076467 
L 299.933947 244.552219 
L 301.077531 244.552219 
L 301.089698 242.455228 
L 304.125589 242.455228 
L 304.130696 241.406733 
L 305.904231 241.406733 
L 305.904231 240.882485 
L 306.722774 240.882485 
L 306.722774 240.358237 
L 309.666297 240.358237 
L 309.666297 239.83399 
L 314.869543 239.83399 
L 314.869543 239.309742 
L 315.846478 239.309742 
L 315.846478 238.785494 
L 316.759371 238.785494 
L 316.759371 238.261246 
L 318.456769 238.261246 
L 318.456769 237.736999 
L 321.085262 237.736999 
L 321.085262 237.212751 
L 333.168 237.212751 
L 333.168 237.212751 
" style="fill:none;stroke:#9acd32;stroke-linecap:square;stroke-width:1.5;"/>
   </g>
   <g id="line2d_69">
    <defs>
     <path d="M 0 -6 
L -6 6 
L 6 6 
z
" id="me44f5599e7" style="stroke:#9acd32;stroke-linejoin:miter;stroke-width:1.5;"/>
    </defs>
    <g>
     <use style="fill:none;stroke:#9acd32;stroke-linejoin:miter;stroke-width:1.5;" x="167.119214" xlink:href="#me44f5599e7" y="284.395046"/>
     <use style="fill:none;stroke:#9acd32;stroke-linejoin:miter;stroke-width:1.5;" x="214.156076" xlink:href="#me44f5599e7" y="270.764605"/>
     <use style="fill:none;stroke:#9acd32;stroke-linejoin:miter;stroke-width:1.5;" x="292.606437" xlink:href="#me44f5599e7" y="247.697705"/>
     <use style="fill:none;stroke:#9acd32;stroke-linejoin:miter;stroke-width:1.5;" x="321.085262" xlink:href="#me44f5599e7" y="237.212751"/>
     <use style="fill:none;stroke:#9acd32;stroke-linejoin:miter;stroke-width:1.5;" x="333.168" xlink:href="#me44f5599e7" y="237.212751"/>
    </g>
   </g>
   <g id="line2d_70">
    <path style="fill:none;stroke:#9acd32;stroke-linecap:square;stroke-width:1.5;"/>
    <g/>
   </g>
   <g id="line2d_71">
    <path clip-path="url(#pd4f767061c)" d="M 254.03133 268.143366 
" style="fill:none;stroke:#9acd32;stroke-linecap:square;stroke-width:1.5;"/>
    <defs>
     <path d="M -12 12 
L 12 -12 
M -12 -12 
L 12 12 
" id="m4c8ea85620" style="stroke:#9acd32;"/>
    </defs>
    <g clip-path="url(#pd4f767061c)">
     <use style="fill:#9acd32;stroke:#9acd32;" x="254.03133" xlink:href="#m4c8ea85620" y="268.143366"/>
    </g>
   </g>
   <g id="line2d_72">
    <path d="M 333.168 289.637523 
L 363.64328 289.532673 
" style="fill:none;stroke:#000080;stroke-linecap:square;stroke-width:1.5;"/>
    <g>
     <use style="fill:none;stroke:#000080;stroke-width:1.5;" x="333.168" xlink:href="#m9cb378190f" y="289.637523"/>
     <use style="fill:none;stroke:#000080;stroke-width:1.5;" x="363.64328" xlink:href="#m9cb378190f" y="289.532673"/>
    </g>
   </g>
   <g id="line2d_73">
    <path d="M 333.168 268.667614 
L 363.64328 246.754059 
" style="fill:none;stroke:#ff7500;stroke-linecap:square;stroke-width:1.5;"/>
    <g>
     <use style="fill:none;stroke:#ff7500;stroke-linejoin:bevel;stroke-width:1.5;" x="333.168" xlink:href="#ma1baf8a5ff" y="268.667614"/>
     <use style="fill:none;stroke:#ff7500;stroke-linejoin:bevel;stroke-width:1.5;" x="363.64328" xlink:href="#ma1baf8a5ff" y="246.754059"/>
    </g>
   </g>
   <g id="line2d_74">
    <path d="M 333.168 258.18266 
L 363.64328 203.975446 
" style="fill:none;stroke:#ff0000;stroke-linecap:square;stroke-width:1.5;"/>
    <g>
     <use style="fill:none;stroke:#ff0000;stroke-linejoin:miter;stroke-width:1.5;" x="333.168" xlink:href="#mb2d7c421b3" y="258.18266"/>
     <use style="fill:none;stroke:#ff0000;stroke-linejoin:miter;stroke-width:1.5;" x="363.64328" xlink:href="#mb2d7c421b3" y="203.975446"/>
    </g>
   </g>
   <g id="line2d_75">
    <path d="M 333.168 252.940182 
L 363.64328 161.196832 
" style="fill:none;stroke:#ff00ff;stroke-linecap:square;stroke-width:1.5;"/>
    <g>
     <use style="fill:none;stroke:#ff00ff;stroke-linejoin:miter;stroke-width:1.5;" x="333.168" xlink:href="#m3e6f1f5738" y="252.940182"/>
     <use style="fill:none;stroke:#ff00ff;stroke-linejoin:miter;stroke-width:1.5;" x="363.64328" xlink:href="#m3e6f1f5738" y="161.196832"/>
    </g>
   </g>
   <g id="line2d_76">
    <path d="M 333.168 237.212751 
L 363.64328 118.418218 
" style="fill:none;stroke:#9acd32;stroke-linecap:square;stroke-width:1.5;"/>
    <g>
     <use style="fill:none;stroke:#9acd32;stroke-linejoin:miter;stroke-width:1.5;" x="333.168" xlink:href="#me44f5599e7" y="237.212751"/>
     <use style="fill:none;stroke:#9acd32;stroke-linejoin:miter;stroke-width:1.5;" x="363.64328" xlink:href="#me44f5599e7" y="118.418218"/>
    </g>
   </g>
   <g id="line2d_77">
    <path d="M 333.168 27.513663 
L 363.64328 75.639604 
" style="fill:none;stroke:#6495ed;stroke-linecap:square;stroke-width:1.5;"/>
    <g>
     <use style="fill:none;stroke:#6495ed;stroke-linejoin:miter;stroke-width:1.5;" x="333.168" xlink:href="#me6efc49b68" y="27.513663"/>
     <use style="fill:none;stroke:#6495ed;stroke-linejoin:miter;stroke-width:1.5;" x="363.64328" xlink:href="#me6efc49b68" y="75.639604"/>
    </g>
   </g>
   <g id="line2d_78">
    <path d="M 333.168 294.88 
L 333.168 27.513663 
" style="fill:none;stroke:#000000;stroke-linecap:square;stroke-width:1.5;"/>
   </g>
   <g id="patch_3">
    <path d="M 56.12 294.88 
L 56.12 24.84 
" style="fill:none;stroke:#000000;stroke-linecap:square;stroke-linejoin:miter;stroke-width:0.8;"/>
   </g>
   <g id="patch_4">
    <path d="M 333.168 294.88 
L 333.168 24.84 
" style="fill:none;stroke:#000000;stroke-linecap:square;stroke-linejoin:miter;stroke-width:0.8;"/>
   </g>
   <g id="patch_5">
    <path d="M 56.12 294.88 
L 333.168 294.88 
" style="fill:none;stroke:#000000;stroke-linecap:square;stroke-linejoin:miter;stroke-width:0.8;"/>
   </g>
   <g id="patch_6">
    <path d="M 56.12 24.84 
L 333.168 24.84 
" style="fill:none;stroke:#000000;stroke-linecap:square;stroke-linejoin:miter;stroke-width:0.8;"/>
   </g>
   <g id="text_13">
    <!-- CMA ES PPM -->
    <defs>
     <path d="M 64.40625 67.28125 
L 64.40625 56.890625 
Q 59.421875 61.53125 53.78125 63.8125 
Q 48.140625 66.109375 41.796875 66.109375 
Q 29.296875 66.109375 22.65625 58.46875 
Q 16.015625 50.828125 16.015625 36.375 
Q 16.015625 21.96875 22.65625 14.328125 
Q 29.296875 6.6875 41.796875 6.6875 
Q 48.140625 6.6875 53.78125 8.984375 
Q 59.421875 11.28125 64.40625 15.921875 
L 64.40625 5.609375 
Q 59.234375 2.09375 53.4375 0.328125 
Q 47.65625 -1.421875 41.21875 -1.421875 
Q 24.65625 -1.421875 15.125 8.703125 
Q 5.609375 18.84375 5.609375 36.375 
Q 5.609375 53.953125 15.125 64.078125 
Q 24.65625 74.21875 41.21875 74.21875 
Q 47.75 74.21875 53.53125 72.484375 
Q 59.328125 70.75 64.40625 67.28125 
z
" id="DejaVuSans-43"/>
     <path d="M 9.8125 72.90625 
L 24.515625 72.90625 
L 43.109375 23.296875 
L 61.8125 72.90625 
L 76.515625 72.90625 
L 76.515625 0 
L 66.890625 0 
L 66.890625 64.015625 
L 48.09375 14.015625 
L 38.1875 14.015625 
L 19.390625 64.015625 
L 19.390625 0 
L 9.8125 0 
z
" id="DejaVuSans-4d"/>
     <path d="M 34.1875 63.1875 
L 20.796875 26.90625 
L 47.609375 26.90625 
z
M 28.609375 72.90625 
L 39.796875 72.90625 
L 67.578125 0 
L 57.328125 0 
L 50.6875 18.703125 
L 17.828125 18.703125 
L 11.1875 0 
L 0.78125 0 
z
" id="DejaVuSans-41"/>
     <path d="M 9.8125 72.90625 
L 55.90625 72.90625 
L 55.90625 64.59375 
L 19.671875 64.59375 
L 19.671875 43.015625 
L 54.390625 43.015625 
L 54.390625 34.71875 
L 19.671875 34.71875 
L 19.671875 8.296875 
L 56.78125 8.296875 
L 56.78125 0 
L 9.8125 0 
z
" id="DejaVuSans-45"/>
     <path d="M 53.515625 70.515625 
L 53.515625 60.890625 
Q 47.90625 63.578125 42.921875 64.890625 
Q 37.9375 66.21875 33.296875 66.21875 
Q 25.25 66.21875 20.875 63.09375 
Q 16.5 59.96875 16.5 54.203125 
Q 16.5 49.359375 19.40625 46.890625 
Q 22.3125 44.4375 30.421875 42.921875 
L 36.375 41.703125 
Q 47.40625 39.59375 52.65625 34.296875 
Q 57.90625 29 57.90625 20.125 
Q 57.90625 9.515625 50.796875 4.046875 
Q 43.703125 -1.421875 29.984375 -1.421875 
Q 24.8125 -1.421875 18.96875 -0.25 
Q 13.140625 0.921875 6.890625 3.21875 
L 6.890625 13.375 
Q 12.890625 10.015625 18.65625 8.296875 
Q 24.421875 6.59375 29.984375 6.59375 
Q 38.421875 6.59375 43.015625 9.90625 
Q 47.609375 13.234375 47.609375 19.390625 
Q 47.609375 24.75 44.3125 27.78125 
Q 41.015625 30.8125 33.5 32.328125 
L 27.484375 33.5 
Q 16.453125 35.6875 11.515625 40.375 
Q 6.59375 45.0625 6.59375 53.421875 
Q 6.59375 63.09375 13.40625 68.65625 
Q 20.21875 74.21875 32.171875 74.21875 
Q 37.3125 74.21875 42.625 73.28125 
Q 47.953125 72.359375 53.515625 70.515625 
z
" id="DejaVuSans-53"/>
     <path d="M 19.671875 64.796875 
L 19.671875 37.40625 
L 32.078125 37.40625 
Q 38.96875 37.40625 42.71875 40.96875 
Q 46.484375 44.53125 46.484375 51.125 
Q 46.484375 57.671875 42.71875 61.234375 
Q 38.96875 64.796875 32.078125 64.796875 
z
M 9.8125 72.90625 
L 32.078125 72.90625 
Q 44.34375 72.90625 50.609375 67.359375 
Q 56.890625 61.8125 56.890625 51.125 
Q 56.890625 40.328125 50.609375 34.8125 
Q 44.34375 29.296875 32.078125 29.296875 
L 19.671875 29.296875 
L 19.671875 0 
L 9.8125 0 
z
" id="DejaVuSans-50"/>
    </defs>
    <g transform="translate(369.18424 294.223611)scale(0.17 -0.17)">
     <use xlink:href="#DejaVuSans-43"/>
     <use x="69.824219" xlink:href="#DejaVuSans-4d"/>
     <use x="156.103516" xlink:href="#DejaVuSans-41"/>
     <use x="224.511719" xlink:href="#DejaVuSans-20"/>
     <use x="256.298828" xlink:href="#DejaVuSans-45"/>
     <use x="319.482422" xlink:href="#DejaVuSans-53"/>
     <use x="382.958984" xlink:href="#DejaVuSans-20"/>
     <use x="414.746094" xlink:href="#DejaVuSans-50"/>
     <use x="475.048828" xlink:href="#DejaVuSans-50"/>
     <use x="535.351562" xlink:href="#DejaVuSans-4d"/>
    </g>
   </g>
   <g id="text_14">
    <!-- CMAES posi -->
    <g transform="translate(369.18424 251.444997)scale(0.17 -0.17)">
     <use xlink:href="#DejaVuSans-43"/>
     <use x="69.824219" xlink:href="#DejaVuSans-4d"/>
     <use x="156.103516" xlink:href="#DejaVuSans-41"/>
     <use x="224.511719" xlink:href="#DejaVuSans-45"/>
     <use x="287.695312" xlink:href="#DejaVuSans-53"/>
     <use x="351.171875" xlink:href="#DejaVuSans-20"/>
     <use x="382.958984" xlink:href="#DejaVuSans-70"/>
     <use x="446.435547" xlink:href="#DejaVuSans-6f"/>
     <use x="507.617188" xlink:href="#DejaVuSans-73"/>
     <use x="559.716797" xlink:href="#DejaVuSans-69"/>
    </g>
   </g>
   <g id="text_15">
    <!-- CMA-CSA At -->
    <g transform="translate(369.18424 208.666383)scale(0.17 -0.17)">
     <use xlink:href="#DejaVuSans-43"/>
     <use x="69.824219" xlink:href="#DejaVuSans-4d"/>
     <use x="156.103516" xlink:href="#DejaVuSans-41"/>
     <use x="224.480469" xlink:href="#DejaVuSans-2d"/>
     <use x="260.564453" xlink:href="#DejaVuSans-43"/>
     <use x="330.388672" xlink:href="#DejaVuSans-53"/>
     <use x="393.880859" xlink:href="#DejaVuSans-41"/>
     <use x="462.289062" xlink:href="#DejaVuSans-20"/>
     <use x="494.076172" xlink:href="#DejaVuSans-41"/>
     <use x="562.46875" xlink:href="#DejaVuSans-74"/>
    </g>
   </g>
   <g id="text_16">
    <!-- CMA ES CSA -->
    <g transform="translate(369.18424 165.887769)scale(0.17 -0.17)">
     <use xlink:href="#DejaVuSans-43"/>
     <use x="69.824219" xlink:href="#DejaVuSans-4d"/>
     <use x="156.103516" xlink:href="#DejaVuSans-41"/>
     <use x="224.511719" xlink:href="#DejaVuSans-20"/>
     <use x="256.298828" xlink:href="#DejaVuSans-45"/>
     <use x="319.482422" xlink:href="#DejaVuSans-53"/>
     <use x="382.958984" xlink:href="#DejaVuSans-20"/>
     <use x="414.746094" xlink:href="#DejaVuSans-43"/>
     <use x="484.570312" xlink:href="#DejaVuSans-53"/>
     <use x="548.0625" xlink:href="#DejaVuSans-41"/>
    </g>
   </g>
   <g id="text_17">
    <!-- CMA-TPA At -->
    <defs>
     <path d="M -0.296875 72.90625 
L 61.375 72.90625 
L 61.375 64.59375 
L 35.5 64.59375 
L 35.5 0 
L 25.59375 0 
L 25.59375 64.59375 
L -0.296875 64.59375 
z
" id="DejaVuSans-54"/>
    </defs>
    <g transform="translate(369.18424 123.109155)scale(0.17 -0.17)">
     <use xlink:href="#DejaVuSans-43"/>
     <use x="69.824219" xlink:href="#DejaVuSans-4d"/>
     <use x="156.103516" xlink:href="#DejaVuSans-41"/>
     <use x="224.480469" xlink:href="#DejaVuSans-2d"/>
     <use x="260.423828" xlink:href="#DejaVuSans-54"/>
     <use x="321.507812" xlink:href="#DejaVuSans-50"/>
     <use x="381.716797" xlink:href="#DejaVuSans-41"/>
     <use x="450.125" xlink:href="#DejaVuSans-20"/>
     <use x="481.912109" xlink:href="#DejaVuSans-41"/>
     <use x="550.304688" xlink:href="#DejaVuSans-74"/>
    </g>
   </g>
   <g id="text_18">
    <!-- CMA-MSR At -->
    <defs>
     <path d="M 44.390625 34.1875 
Q 47.5625 33.109375 50.5625 29.59375 
Q 53.5625 26.078125 56.59375 19.921875 
L 66.609375 0 
L 56 0 
L 46.6875 18.703125 
Q 43.0625 26.03125 39.671875 28.421875 
Q 36.28125 30.8125 30.421875 30.8125 
L 19.671875 30.8125 
L 19.671875 0 
L 9.8125 0 
L 9.8125 72.90625 
L 32.078125 72.90625 
Q 44.578125 72.90625 50.734375 67.671875 
Q 56.890625 62.453125 56.890625 51.90625 
Q 56.890625 45.015625 53.6875 40.46875 
Q 50.484375 35.9375 44.390625 34.1875 
z
M 19.671875 64.796875 
L 19.671875 38.921875 
L 32.078125 38.921875 
Q 39.203125 38.921875 42.84375 42.21875 
Q 46.484375 45.515625 46.484375 51.90625 
Q 46.484375 58.296875 42.84375 61.546875 
Q 39.203125 64.796875 32.078125 64.796875 
z
" id="DejaVuSans-52"/>
    </defs>
    <g transform="translate(369.18424 80.330541)scale(0.17 -0.17)">
     <use xlink:href="#DejaVuSans-43"/>
     <use x="69.824219" xlink:href="#DejaVuSans-4d"/>
     <use x="156.103516" xlink:href="#DejaVuSans-41"/>
     <use x="224.480469" xlink:href="#DejaVuSans-2d"/>
     <use x="260.564453" xlink:href="#DejaVuSans-4d"/>
     <use x="346.84375" xlink:href="#DejaVuSans-53"/>
     <use x="410.320312" xlink:href="#DejaVuSans-52"/>
     <use x="479.802734" xlink:href="#DejaVuSans-20"/>
     <use x="511.589844" xlink:href="#DejaVuSans-41"/>
     <use x="579.982422" xlink:href="#DejaVuSans-74"/>
    </g>
   </g>
   <g id="text_19">
    <!-- best 2009 -->
    <defs>
     <path d="M 48.6875 27.296875 
Q 48.6875 37.203125 44.609375 42.84375 
Q 40.53125 48.484375 33.40625 48.484375 
Q 26.265625 48.484375 22.1875 42.84375 
Q 18.109375 37.203125 18.109375 27.296875 
Q 18.109375 17.390625 22.1875 11.75 
Q 26.265625 6.109375 33.40625 6.109375 
Q 40.53125 6.109375 44.609375 11.75 
Q 48.6875 17.390625 48.6875 27.296875 
z
M 18.109375 46.390625 
Q 20.953125 51.265625 25.265625 53.625 
Q 29.59375 56 35.59375 56 
Q 45.5625 56 51.78125 48.09375 
Q 58.015625 40.1875 58.015625 27.296875 
Q 58.015625 14.40625 51.78125 6.484375 
Q 45.5625 -1.421875 35.59375 -1.421875 
Q 29.59375 -1.421875 25.265625 0.953125 
Q 20.953125 3.328125 18.109375 8.203125 
L 18.109375 0 
L 9.078125 0 
L 9.078125 75.984375 
L 18.109375 75.984375 
z
" id="DejaVuSans-62"/>
     <path d="M 10.984375 1.515625 
L 10.984375 10.5 
Q 14.703125 8.734375 18.5 7.8125 
Q 22.3125 6.890625 25.984375 6.890625 
Q 35.75 6.890625 40.890625 13.453125 
Q 46.046875 20.015625 46.78125 33.40625 
Q 43.953125 29.203125 39.59375 26.953125 
Q 35.25 24.703125 29.984375 24.703125 
Q 19.046875 24.703125 12.671875 31.3125 
Q 6.296875 37.9375 6.296875 49.421875 
Q 6.296875 60.640625 12.9375 67.421875 
Q 19.578125 74.21875 30.609375 74.21875 
Q 43.265625 74.21875 49.921875 64.515625 
Q 56.59375 54.828125 56.59375 36.375 
Q 56.59375 19.140625 48.40625 8.859375 
Q 40.234375 -1.421875 26.421875 -1.421875 
Q 22.703125 -1.421875 18.890625 -0.6875 
Q 15.09375 0.046875 10.984375 1.515625 
z
M 30.609375 32.421875 
Q 37.25 32.421875 41.125 36.953125 
Q 45.015625 41.5 45.015625 49.421875 
Q 45.015625 57.28125 41.125 61.84375 
Q 37.25 66.40625 30.609375 66.40625 
Q 23.96875 66.40625 20.09375 61.84375 
Q 16.21875 57.28125 16.21875 49.421875 
Q 16.21875 41.5 20.09375 36.953125 
Q 23.96875 32.421875 30.609375 32.421875 
z
" id="DejaVuSans-39"/>
    </defs>
    <g transform="translate(369.18424 37.551928)scale(0.17 -0.17)">
     <use xlink:href="#DejaVuSans-62"/>
     <use x="63.476562" xlink:href="#DejaVuSans-65"/>
     <use x="125" xlink:href="#DejaVuSans-73"/>
     <use x="177.099609" xlink:href="#DejaVuSans-74"/>
     <use x="216.308594" xlink:href="#DejaVuSans-20"/>
     <use x="248.095703" xlink:href="#DejaVuSans-32"/>
     <use x="311.71875" xlink:href="#DejaVuSans-30"/>
     <use x="375.341797" xlink:href="#DejaVuSans-30"/>
     <use x="438.964844" xlink:href="#DejaVuSans-39"/>
    </g>
   </g>
   <g id="text_20">
    <!-- bbob f24, 20-D -->
    <defs>
     <path d="M 19.671875 64.796875 
L 19.671875 8.109375 
L 31.59375 8.109375 
Q 46.6875 8.109375 53.6875 14.9375 
Q 60.6875 21.78125 60.6875 36.53125 
Q 60.6875 51.171875 53.6875 57.984375 
Q 46.6875 64.796875 31.59375 64.796875 
z
M 9.8125 72.90625 
L 30.078125 72.90625 
Q 51.265625 72.90625 61.171875 64.09375 
Q 71.09375 55.28125 71.09375 36.53125 
Q 71.09375 17.671875 61.125 8.828125 
Q 51.171875 0 30.078125 0 
L 9.8125 0 
z
" id="DejaVuSans-44"/>
    </defs>
    <g transform="translate(58.89048 35.290806)scale(0.102 -0.102)">
     <use xlink:href="#DejaVuSans-62"/>
     <use x="63.476562" xlink:href="#DejaVuSans-62"/>
     <use x="126.953125" xlink:href="#DejaVuSans-6f"/>
     <use x="188.134766" xlink:href="#DejaVuSans-62"/>
     <use x="251.611328" xlink:href="#DejaVuSans-20"/>
     <use x="283.398438" xlink:href="#DejaVuSans-66"/>
     <use x="318.603516" xlink:href="#DejaVuSans-32"/>
     <use x="382.226562" xlink:href="#DejaVuSans-34"/>
     <use x="445.849609" xlink:href="#DejaVuSans-2c"/>
     <use x="477.636719" xlink:href="#DejaVuSans-20"/>
     <use x="509.423828" xlink:href="#DejaVuSans-32"/>
     <use x="573.046875" xlink:href="#DejaVuSans-30"/>
     <use x="636.669922" xlink:href="#DejaVuSans-2d"/>
     <use x="672.753906" xlink:href="#DejaVuSans-44"/>
    </g>
    <!-- 51 targets: 100..1e-08 -->
    <defs>
     <path d="M 10.796875 72.90625 
L 49.515625 72.90625 
L 49.515625 64.59375 
L 19.828125 64.59375 
L 19.828125 46.734375 
Q 21.96875 47.46875 24.109375 47.828125 
Q 26.265625 48.1875 28.421875 48.1875 
Q 40.625 48.1875 47.75 41.5 
Q 54.890625 34.8125 54.890625 23.390625 
Q 54.890625 11.625 47.5625 5.09375 
Q 40.234375 -1.421875 26.90625 -1.421875 
Q 22.3125 -1.421875 17.546875 -0.640625 
Q 12.796875 0.140625 7.71875 1.703125 
L 7.71875 11.625 
Q 12.109375 9.234375 16.796875 8.0625 
Q 21.484375 6.890625 26.703125 6.890625 
Q 35.15625 6.890625 40.078125 11.328125 
Q 45.015625 15.765625 45.015625 23.390625 
Q 45.015625 31 40.078125 35.4375 
Q 35.15625 39.890625 26.703125 39.890625 
Q 22.75 39.890625 18.8125 39.015625 
Q 14.890625 38.140625 10.796875 36.28125 
z
" id="DejaVuSans-35"/>
     <path d="M 11.71875 12.40625 
L 22.015625 12.40625 
L 22.015625 0 
L 11.71875 0 
z
M 11.71875 51.703125 
L 22.015625 51.703125 
L 22.015625 39.3125 
L 11.71875 39.3125 
z
" id="DejaVuSans-3a"/>
    </defs>
    <g transform="translate(58.89048 46.712575)scale(0.102 -0.102)">
     <use xlink:href="#DejaVuSans-35"/>
     <use x="63.623047" xlink:href="#DejaVuSans-31"/>
     <use x="127.246094" xlink:href="#DejaVuSans-20"/>
     <use x="159.033203" xlink:href="#DejaVuSans-74"/>
     <use x="198.242188" xlink:href="#DejaVuSans-61"/>
     <use x="259.521484" xlink:href="#DejaVuSans-72"/>
     <use x="300.619141" xlink:href="#DejaVuSans-67"/>
     <use x="364.095703" xlink:href="#DejaVuSans-65"/>
     <use x="425.619141" xlink:href="#DejaVuSans-74"/>
     <use x="464.828125" xlink:href="#DejaVuSans-73"/>
     <use x="516.927734" xlink:href="#DejaVuSans-3a"/>
     <use x="550.619141" xlink:href="#DejaVuSans-20"/>
     <use x="582.40625" xlink:href="#DejaVuSans-31"/>
     <use x="646.029297" xlink:href="#DejaVuSans-30"/>
     <use x="709.652344" xlink:href="#DejaVuSans-30"/>
     <use x="773.275391" xlink:href="#DejaVuSans-2e"/>
     <use x="805.0625" xlink:href="#DejaVuSans-2e"/>
     <use x="836.849609" xlink:href="#DejaVuSans-31"/>
     <use x="900.472656" xlink:href="#DejaVuSans-65"/>
     <use x="961.996094" xlink:href="#DejaVuSans-2d"/>
     <use x="998.080078" xlink:href="#DejaVuSans-30"/>
     <use x="1061.703125" xlink:href="#DejaVuSans-38"/>
    </g>
    <!-- 15 instances -->
    <g transform="translate(58.89048 58.134344)scale(0.102 -0.102)">
     <use xlink:href="#DejaVuSans-31"/>
     <use x="63.623047" xlink:href="#DejaVuSans-35"/>
     <use x="127.246094" xlink:href="#DejaVuSans-20"/>
     <use x="159.033203" xlink:href="#DejaVuSans-69"/>
     <use x="186.816406" xlink:href="#DejaVuSans-6e"/>
     <use x="250.195312" xlink:href="#DejaVuSans-73"/>
     <use x="302.294922" xlink:href="#DejaVuSans-74"/>
     <use x="341.503906" xlink:href="#DejaVuSans-61"/>
     <use x="402.783203" xlink:href="#DejaVuSans-6e"/>
     <use x="466.162109" xlink:href="#DejaVuSans-63"/>
     <use x="521.142578" xlink:href="#DejaVuSans-65"/>
     <use x="582.666016" xlink:href="#DejaVuSans-73"/>
    </g>
   </g>
   <g id="text_21">
    <!-- v0.0.0 -->
    <g style="fill:#808080;" transform="translate(178.96275 290.099912)scale(0.1 -0.1)">
     <use xlink:href="#DejaVuSans-76"/>
     <use x="59.179688" xlink:href="#DejaVuSans-30"/>
     <use x="122.802734" xlink:href="#DejaVuSans-2e"/>
     <use x="154.589844" xlink:href="#DejaVuSans-30"/>
     <use x="218.212891" xlink:href="#DejaVuSans-2e"/>
     <use x="250" xlink:href="#DejaVuSans-30"/>
    </g>
   </g>
   <g id="text_22">
    <!-- 24 Lunacek bi-Rastrigin -->
    <defs>
     <path d="M 9.8125 72.90625 
L 19.671875 72.90625 
L 19.671875 8.296875 
L 55.171875 8.296875 
L 55.171875 0 
L 9.8125 0 
z
" id="DejaVuSans-4c"/>
     <path d="M 9.078125 75.984375 
L 18.109375 75.984375 
L 18.109375 31.109375 
L 44.921875 54.6875 
L 56.390625 54.6875 
L 27.390625 29.109375 
L 57.625 0 
L 45.90625 0 
L 18.109375 26.703125 
L 18.109375 0 
L 9.078125 0 
z
" id="DejaVuSans-6b"/>
    </defs>
    <g transform="translate(76.4565 18.84)scale(0.2 -0.2)">
     <use xlink:href="#DejaVuSans-32"/>
     <use x="63.623047" xlink:href="#DejaVuSans-34"/>
     <use x="127.246094" xlink:href="#DejaVuSans-20"/>
     <use x="159.033203" xlink:href="#DejaVuSans-4c"/>
     <use x="214.730469" xlink:href="#DejaVuSans-75"/>
     <use x="278.109375" xlink:href="#DejaVuSans-6e"/>
     <use x="341.488281" xlink:href="#DejaVuSans-61"/>
     <use x="402.767578" xlink:href="#DejaVuSans-63"/>
     <use x="457.748047" xlink:href="#DejaVuSans-65"/>
     <use x="519.271484" xlink:href="#DejaVuSans-6b"/>
     <use x="577.181641" xlink:href="#DejaVuSans-20"/>
     <use x="608.96875" xlink:href="#DejaVuSans-62"/>
     <use x="672.445312" xlink:href="#DejaVuSans-69"/>
     <use x="700.228516" xlink:href="#DejaVuSans-2d"/>
     <use x="736.3125" xlink:href="#DejaVuSans-52"/>
     <use x="805.763672" xlink:href="#DejaVuSans-61"/>
     <use x="867.042969" xlink:href="#DejaVuSans-73"/>
     <use x="919.142578" xlink:href="#DejaVuSans-74"/>
     <use x="958.351562" xlink:href="#DejaVuSans-72"/>
     <use x="999.464844" xlink:href="#DejaVuSans-69"/>
     <use x="1027.248047" xlink:href="#DejaVuSans-67"/>
     <use x="1090.724609" xlink:href="#DejaVuSans-69"/>
     <use x="1118.507812" xlink:href="#DejaVuSans-6e"/>
    </g>
   </g>
  </g>
 </g>
 <defs>
  <clipPath id="pd4f767061c">
   <rect height="270.04" width="277.048" x="56.12" y="24.84"/>
  </clipPath>
 </defs>
</svg>
