<?xml version="1.0" encoding="utf-8" standalone="no"?>
<!DOCTYPE svg PUBLIC "-//W3C//DTD SVG 1.1//EN"
  "http://www.w3.org/Graphics/SVG/1.1/DTD/svg11.dtd">
<!-- Created with matplotlib (http://matplotlib.org/) -->
<svg height="345pt" version="1.1" viewBox="0 0 460 345" width="460pt" xmlns="http://www.w3.org/2000/svg" xmlns:xlink="http://www.w3.org/1999/xlink">
 <defs>
  <style type="text/css">
*{stroke-linecap:butt;stroke-linejoin:round;}
  </style>
 </defs>
 <g id="figure_1">
  <g id="patch_1">
   <path d="M 0 345.6 
L 460.8 345.6 
L 460.8 0 
L 0 0 
z
" style="fill:#ffffff;"/>
  </g>
  <g id="axes_1">
   <g id="patch_2">
    <path d="M 56.12 294.88 
L 333.168 294.88 
L 333.168 24.84 
L 56.12 24.84 
z
" style="fill:#ffffff;"/>
   </g>
   <g id="line2d_1">
    <path d="M 106.08565 294.88 
L 106.08565 289.637523 
L 143.171684 289.637523 
L 143.171684 284.395046 
L 147.730159 284.395046 
L 147.730159 279.152568 
L 152.235837 279.152568 
L 152.235837 273.910091 
L 156.384744 273.910091 
L 156.384744 268.667614 
L 158.588166 268.667614 
L 158.588166 263.425137 
L 158.592593 263.425137 
L 158.592593 258.18266 
L 158.601445 258.18266 
L 158.601445 252.940182 
L 158.661078 252.940182 
L 158.661078 242.455228 
L 158.672099 242.455228 
L 158.672099 237.212751 
L 158.68091 237.212751 
L 158.68091 226.727797 
L 158.683112 226.727797 
L 158.683112 211.000365 
L 158.684213 211.000365 
L 158.684213 205.757888 
L 158.685314 205.757888 
L 158.685314 200.515411 
L 158.713912 200.515411 
L 158.713912 190.030456 
L 158.715011 190.030456 
L 158.715011 179.545502 
L 158.71611 179.545502 
L 158.71611 174.303025 
L 158.717209 174.303025 
L 158.717209 169.060547 
L 158.718308 169.060547 
L 158.718308 163.81807 
L 158.720505 163.81807 
L 158.720505 153.333116 
L 158.721604 153.333116 
L 158.721604 148.090639 
L 158.722702 148.090639 
L 158.722702 142.848162 
L 158.724899 142.848162 
L 158.724899 121.878253 
L 158.725997 121.878253 
L 158.725997 106.150821 
L 158.727095 106.150821 
L 158.727095 100.908344 
L 158.728194 100.908344 
L 158.728194 79.938435 
L 158.729292 79.938435 
L 158.729292 69.453481 
L 158.73039 69.453481 
L 158.73039 64.211004 
L 158.731488 64.211004 
L 158.731488 43.241095 
L 158.732585 43.241095 
L 158.732585 32.756141 
L 158.733683 32.756141 
L 158.733683 27.513663 
L 333.168 27.513663 
" style="fill:none;stroke:#f5deb3;stroke-linecap:square;stroke-width:4;"/>
   </g>
   <g id="line2d_2">
    <defs>
     <path d="M -0 7.778175 
L 7.778175 0 
L 0 -7.778175 
L -7.778175 -0 
z
" id="m9332432277" style="stroke:#f5deb3;stroke-linejoin:miter;stroke-width:1.5;"/>
    </defs>
    <g>
     <use style="fill:#f5deb3;stroke:#f5deb3;stroke-linejoin:miter;stroke-width:1.5;" x="158.672099" xlink:href="#m9332432277" y="237.212751"/>
     <use style="fill:#f5deb3;stroke:#f5deb3;stroke-linejoin:miter;stroke-width:1.5;" x="158.728194" xlink:href="#m9332432277" y="79.938435"/>
     <use style="fill:#f5deb3;stroke:#f5deb3;stroke-linejoin:miter;stroke-width:1.5;" x="158.733683" xlink:href="#m9332432277" y="32.756141"/>
     <use style="fill:#f5deb3;stroke:#f5deb3;stroke-linejoin:miter;stroke-width:1.5;" x="158.733683" xlink:href="#m9332432277" y="27.513663"/>
     <use style="fill:#f5deb3;stroke:#f5deb3;stroke-linejoin:miter;stroke-width:1.5;" x="333.168" xlink:href="#m9332432277" y="27.513663"/>
    </g>
   </g>
   <g id="line2d_3">
    <path style="fill:none;stroke:#f5deb3;stroke-linecap:square;stroke-width:4;"/>
    <g/>
   </g>
   <g id="line2d_4">
    <path d="M 333.168 27.513663 
L 363.64328 32.86099 
" style="fill:none;stroke:#f5deb3;stroke-linecap:square;stroke-width:4;"/>
    <g>
     <use style="fill:#f5deb3;stroke:#f5deb3;stroke-linejoin:miter;stroke-width:1.5;" x="333.168" xlink:href="#m9332432277" y="27.513663"/>
     <use style="fill:#f5deb3;stroke:#f5deb3;stroke-linejoin:miter;stroke-width:1.5;" x="363.64328" xlink:href="#m9332432277" y="32.86099"/>
    </g>
   </g>
   <g id="matplotlib.axis_1">
    <g id="xtick_1">
     <g id="line2d_5">
      <path clip-path="url(#paa21576362)" d="M 56.12 294.88 
L 56.12 24.84 
" style="fill:none;stroke:#b0b0b0;stroke-linecap:square;stroke-width:0.8;"/>
     </g>
     <g id="line2d_6">
      <defs>
       <path d="M 0 0 
L 0 3.5 
" id="m020549fe93" style="stroke:#000000;stroke-width:0.8;"/>
      </defs>
      <g>
       <use style="stroke:#000000;stroke-width:0.8;" x="56.12" xlink:href="#m020549fe93" y="294.88"/>
      </g>
     </g>
     <g id="text_1">
      <!-- 0 -->
      <defs>
       <path d="M 31.78125 66.40625 
Q 24.171875 66.40625 20.328125 58.90625 
Q 16.5 51.421875 16.5 36.375 
Q 16.5 21.390625 20.328125 13.890625 
Q 24.171875 6.390625 31.78125 6.390625 
Q 39.453125 6.390625 43.28125 13.890625 
Q 47.125 21.390625 47.125 36.375 
Q 47.125 51.421875 43.28125 58.90625 
Q 39.453125 66.40625 31.78125 66.40625 
z
M 31.78125 74.21875 
Q 44.046875 74.21875 50.515625 64.515625 
Q 56.984375 54.828125 56.984375 36.375 
Q 56.984375 17.96875 50.515625 8.265625 
Q 44.046875 -1.421875 31.78125 -1.421875 
Q 19.53125 -1.421875 13.0625 8.265625 
Q 6.59375 17.96875 6.59375 36.375 
Q 6.59375 54.828125 13.0625 64.515625 
Q 19.53125 74.21875 31.78125 74.21875 
z
" id="DejaVuSans-30"/>
      </defs>
      <g transform="translate(49.7575 317.076875)scale(0.2 -0.2)">
       <use xlink:href="#DejaVuSans-30"/>
      </g>
     </g>
    </g>
    <g id="xtick_2">
     <g id="line2d_7">
      <path clip-path="url(#paa21576362)" d="M 135.276571 294.88 
L 135.276571 24.84 
" style="fill:none;stroke:#b0b0b0;stroke-linecap:square;stroke-width:0.8;"/>
     </g>
     <g id="line2d_8">
      <g>
       <use style="stroke:#000000;stroke-width:0.8;" x="135.276571" xlink:href="#m020549fe93" y="294.88"/>
      </g>
     </g>
     <g id="text_2">
      <!-- 2 -->
      <defs>
       <path d="M 19.1875 8.296875 
L 53.609375 8.296875 
L 53.609375 0 
L 7.328125 0 
L 7.328125 8.296875 
Q 12.9375 14.109375 22.625 23.890625 
Q 32.328125 33.6875 34.8125 36.53125 
Q 39.546875 41.84375 41.421875 45.53125 
Q 43.3125 49.21875 43.3125 52.78125 
Q 43.3125 58.59375 39.234375 62.25 
Q 35.15625 65.921875 28.609375 65.921875 
Q 23.96875 65.921875 18.8125 64.3125 
Q 13.671875 62.703125 7.8125 59.421875 
L 7.8125 69.390625 
Q 13.765625 71.78125 18.9375 73 
Q 24.125 74.21875 28.421875 74.21875 
Q 39.75 74.21875 46.484375 68.546875 
Q 53.21875 62.890625 53.21875 53.421875 
Q 53.21875 48.921875 51.53125 44.890625 
Q 49.859375 40.875 45.40625 35.40625 
Q 44.1875 33.984375 37.640625 27.21875 
Q 31.109375 20.453125 19.1875 8.296875 
z
" id="DejaVuSans-32"/>
      </defs>
      <g transform="translate(128.914071 317.076875)scale(0.2 -0.2)">
       <use xlink:href="#DejaVuSans-32"/>
      </g>
     </g>
    </g>
    <g id="xtick_3">
     <g id="line2d_9">
      <path clip-path="url(#paa21576362)" d="M 214.433143 294.88 
L 214.433143 24.84 
" style="fill:none;stroke:#b0b0b0;stroke-linecap:square;stroke-width:0.8;"/>
     </g>
     <g id="line2d_10">
      <g>
       <use style="stroke:#000000;stroke-width:0.8;" x="214.433143" xlink:href="#m020549fe93" y="294.88"/>
      </g>
     </g>
     <g id="text_3">
      <!-- 4 -->
      <defs>
       <path d="M 37.796875 64.3125 
L 12.890625 25.390625 
L 37.796875 25.390625 
z
M 35.203125 72.90625 
L 47.609375 72.90625 
L 47.609375 25.390625 
L 58.015625 25.390625 
L 58.015625 17.1875 
L 47.609375 17.1875 
L 47.609375 0 
L 37.796875 0 
L 37.796875 17.1875 
L 4.890625 17.1875 
L 4.890625 26.703125 
z
" id="DejaVuSans-34"/>
      </defs>
      <g transform="translate(208.070643 317.076875)scale(0.2 -0.2)">
       <use xlink:href="#DejaVuSans-34"/>
      </g>
     </g>
    </g>
    <g id="xtick_4">
     <g id="line2d_11">
      <path clip-path="url(#paa21576362)" d="M 293.589714 294.88 
L 293.589714 24.84 
" style="fill:none;stroke:#b0b0b0;stroke-linecap:square;stroke-width:0.8;"/>
     </g>
     <g id="line2d_12">
      <g>
       <use style="stroke:#000000;stroke-width:0.8;" x="293.589714" xlink:href="#m020549fe93" y="294.88"/>
      </g>
     </g>
     <g id="text_4">
      <!-- 6 -->
      <defs>
       <path d="M 33.015625 40.375 
Q 26.375 40.375 22.484375 35.828125 
Q 18.609375 31.296875 18.609375 23.390625 
Q 18.609375 15.53125 22.484375 10.953125 
Q 26.375 6.390625 33.015625 6.390625 
Q 39.65625 6.390625 43.53125 10.953125 
Q 47.40625 15.53125 47.40625 23.390625 
Q 47.40625 31.296875 43.53125 35.828125 
Q 39.65625 40.375 33.015625 40.375 
z
M 52.59375 71.296875 
L 52.59375 62.3125 
Q 48.875 64.0625 45.09375 64.984375 
Q 41.3125 65.921875 37.59375 65.921875 
Q 27.828125 65.921875 22.671875 59.328125 
Q 17.53125 52.734375 16.796875 39.40625 
Q 19.671875 43.65625 24.015625 45.921875 
Q 28.375 48.1875 33.59375 48.1875 
Q 44.578125 48.1875 50.953125 41.515625 
Q 57.328125 34.859375 57.328125 23.390625 
Q 57.328125 12.15625 50.6875 5.359375 
Q 44.046875 -1.421875 33.015625 -1.421875 
Q 20.359375 -1.421875 13.671875 8.265625 
Q 6.984375 17.96875 6.984375 36.375 
Q 6.984375 53.65625 15.1875 63.9375 
Q 23.390625 74.21875 37.203125 74.21875 
Q 40.921875 74.21875 44.703125 73.484375 
Q 48.484375 72.75 52.59375 71.296875 
z
" id="DejaVuSans-36"/>
      </defs>
      <g transform="translate(287.227214 317.076875)scale(0.2 -0.2)">
       <use xlink:href="#DejaVuSans-36"/>
      </g>
     </g>
    </g>
    <g id="xtick_5">
     <g id="line2d_13">
      <path clip-path="url(#paa21576362)" d="M 56.12 294.88 
L 56.12 24.84 
" style="fill:none;stroke:#b0b0b0;stroke-linecap:square;stroke-width:0.8;"/>
     </g>
     <g id="line2d_14">
      <defs>
       <path d="M 0 0 
L 0 2 
" id="m6210035a79" style="stroke:#000000;stroke-width:0.6;"/>
      </defs>
      <g>
       <use style="stroke:#000000;stroke-width:0.6;" x="56.12" xlink:href="#m6210035a79" y="294.88"/>
      </g>
     </g>
    </g>
    <g id="xtick_6">
     <g id="line2d_15">
      <path clip-path="url(#paa21576362)" d="M 95.698286 294.88 
L 95.698286 24.84 
" style="fill:none;stroke:#b0b0b0;stroke-linecap:square;stroke-width:0.8;"/>
     </g>
     <g id="line2d_16">
      <g>
       <use style="stroke:#000000;stroke-width:0.6;" x="95.698286" xlink:href="#m6210035a79" y="294.88"/>
      </g>
     </g>
    </g>
    <g id="xtick_7">
     <g id="line2d_17">
      <path clip-path="url(#paa21576362)" d="M 135.276571 294.88 
L 135.276571 24.84 
" style="fill:none;stroke:#b0b0b0;stroke-linecap:square;stroke-width:0.8;"/>
     </g>
     <g id="line2d_18">
      <g>
       <use style="stroke:#000000;stroke-width:0.6;" x="135.276571" xlink:href="#m6210035a79" y="294.88"/>
      </g>
     </g>
    </g>
    <g id="xtick_8">
     <g id="line2d_19">
      <path clip-path="url(#paa21576362)" d="M 174.854857 294.88 
L 174.854857 24.84 
" style="fill:none;stroke:#b0b0b0;stroke-linecap:square;stroke-width:0.8;"/>
     </g>
     <g id="line2d_20">
      <g>
       <use style="stroke:#000000;stroke-width:0.6;" x="174.854857" xlink:href="#m6210035a79" y="294.88"/>
      </g>
     </g>
    </g>
    <g id="xtick_9">
     <g id="line2d_21">
      <path clip-path="url(#paa21576362)" d="M 214.433143 294.88 
L 214.433143 24.84 
" style="fill:none;stroke:#b0b0b0;stroke-linecap:square;stroke-width:0.8;"/>
     </g>
     <g id="line2d_22">
      <g>
       <use style="stroke:#000000;stroke-width:0.6;" x="214.433143" xlink:href="#m6210035a79" y="294.88"/>
      </g>
     </g>
    </g>
    <g id="xtick_10">
     <g id="line2d_23">
      <path clip-path="url(#paa21576362)" d="M 254.011429 294.88 
L 254.011429 24.84 
" style="fill:none;stroke:#b0b0b0;stroke-linecap:square;stroke-width:0.8;"/>
     </g>
     <g id="line2d_24">
      <g>
       <use style="stroke:#000000;stroke-width:0.6;" x="254.011429" xlink:href="#m6210035a79" y="294.88"/>
      </g>
     </g>
    </g>
    <g id="xtick_11">
     <g id="line2d_25">
      <path clip-path="url(#paa21576362)" d="M 293.589714 294.88 
L 293.589714 24.84 
" style="fill:none;stroke:#b0b0b0;stroke-linecap:square;stroke-width:0.8;"/>
     </g>
     <g id="line2d_26">
      <g>
       <use style="stroke:#000000;stroke-width:0.6;" x="293.589714" xlink:href="#m6210035a79" y="294.88"/>
      </g>
     </g>
    </g>
    <g id="xtick_12">
     <g id="line2d_27">
      <path clip-path="url(#paa21576362)" d="M 333.168 294.88 
L 333.168 24.84 
" style="fill:none;stroke:#b0b0b0;stroke-linecap:square;stroke-width:0.8;"/>
     </g>
     <g id="line2d_28">
      <g>
       <use style="stroke:#000000;stroke-width:0.6;" x="333.168" xlink:href="#m6210035a79" y="294.88"/>
      </g>
     </g>
    </g>
    <g id="text_5">
     <!-- log10(# f-evals / dimension) -->
     <defs>
      <path d="M 9.421875 75.984375 
L 18.40625 75.984375 
L 18.40625 0 
L 9.421875 0 
z
" id="DejaVuSans-6c"/>
      <path d="M 30.609375 48.390625 
Q 23.390625 48.390625 19.1875 42.75 
Q 14.984375 37.109375 14.984375 27.296875 
Q 14.984375 17.484375 19.15625 11.84375 
Q 23.34375 6.203125 30.609375 6.203125 
Q 37.796875 6.203125 41.984375 11.859375 
Q 46.1875 17.53125 46.1875 27.296875 
Q 46.1875 37.015625 41.984375 42.703125 
Q 37.796875 48.390625 30.609375 48.390625 
z
M 30.609375 56 
Q 42.328125 56 49.015625 48.375 
Q 55.71875 40.765625 55.71875 27.296875 
Q 55.71875 13.875 49.015625 6.21875 
Q 42.328125 -1.421875 30.609375 -1.421875 
Q 18.84375 -1.421875 12.171875 6.21875 
Q 5.515625 13.875 5.515625 27.296875 
Q 5.515625 40.765625 12.171875 48.375 
Q 18.84375 56 30.609375 56 
z
" id="DejaVuSans-6f"/>
      <path d="M 45.40625 27.984375 
Q 45.40625 37.75 41.375 43.109375 
Q 37.359375 48.484375 30.078125 48.484375 
Q 22.859375 48.484375 18.828125 43.109375 
Q 14.796875 37.75 14.796875 27.984375 
Q 14.796875 18.265625 18.828125 12.890625 
Q 22.859375 7.515625 30.078125 7.515625 
Q 37.359375 7.515625 41.375 12.890625 
Q 45.40625 18.265625 45.40625 27.984375 
z
M 54.390625 6.78125 
Q 54.390625 -7.171875 48.1875 -13.984375 
Q 42 -20.796875 29.203125 -20.796875 
Q 24.46875 -20.796875 20.265625 -20.09375 
Q 16.0625 -19.390625 12.109375 -17.921875 
L 12.109375 -9.1875 
Q 16.0625 -11.328125 19.921875 -12.34375 
Q 23.78125 -13.375 27.78125 -13.375 
Q 36.625 -13.375 41.015625 -8.765625 
Q 45.40625 -4.15625 45.40625 5.171875 
L 45.40625 9.625 
Q 42.625 4.78125 38.28125 2.390625 
Q 33.9375 0 27.875 0 
Q 17.828125 0 11.671875 7.65625 
Q 5.515625 15.328125 5.515625 27.984375 
Q 5.515625 40.671875 11.671875 48.328125 
Q 17.828125 56 27.875 56 
Q 33.9375 56 38.28125 53.609375 
Q 42.625 51.21875 45.40625 46.390625 
L 45.40625 54.6875 
L 54.390625 54.6875 
z
" id="DejaVuSans-67"/>
      <path d="M 12.40625 8.296875 
L 28.515625 8.296875 
L 28.515625 63.921875 
L 10.984375 60.40625 
L 10.984375 69.390625 
L 28.421875 72.90625 
L 38.28125 72.90625 
L 38.28125 8.296875 
L 54.390625 8.296875 
L 54.390625 0 
L 12.40625 0 
z
" id="DejaVuSans-31"/>
      <path d="M 31 75.875 
Q 24.46875 64.65625 21.28125 53.65625 
Q 18.109375 42.671875 18.109375 31.390625 
Q 18.109375 20.125 21.3125 9.0625 
Q 24.515625 -2 31 -13.1875 
L 23.1875 -13.1875 
Q 15.875 -1.703125 12.234375 9.375 
Q 8.59375 20.453125 8.59375 31.390625 
Q 8.59375 42.28125 12.203125 53.3125 
Q 15.828125 64.359375 23.1875 75.875 
z
" id="DejaVuSans-28"/>
      <path d="M 51.125 44 
L 36.921875 44 
L 32.8125 27.6875 
L 47.125 27.6875 
z
M 43.796875 71.78125 
L 38.71875 51.515625 
L 52.984375 51.515625 
L 58.109375 71.78125 
L 65.921875 71.78125 
L 60.890625 51.515625 
L 76.125 51.515625 
L 76.125 44 
L 58.984375 44 
L 54.984375 27.6875 
L 70.515625 27.6875 
L 70.515625 20.21875 
L 53.078125 20.21875 
L 48 0 
L 40.1875 0 
L 45.21875 20.21875 
L 30.90625 20.21875 
L 25.875 0 
L 18.015625 0 
L 23.09375 20.21875 
L 7.71875 20.21875 
L 7.71875 27.6875 
L 24.90625 27.6875 
L 29 44 
L 13.28125 44 
L 13.28125 51.515625 
L 30.90625 51.515625 
L 35.890625 71.78125 
z
" id="DejaVuSans-23"/>
      <path id="DejaVuSans-20"/>
      <path d="M 37.109375 75.984375 
L 37.109375 68.5 
L 28.515625 68.5 
Q 23.6875 68.5 21.796875 66.546875 
Q 19.921875 64.59375 19.921875 59.515625 
L 19.921875 54.6875 
L 34.71875 54.6875 
L 34.71875 47.703125 
L 19.921875 47.703125 
L 19.921875 0 
L 10.890625 0 
L 10.890625 47.703125 
L 2.296875 47.703125 
L 2.296875 54.6875 
L 10.890625 54.6875 
L 10.890625 58.5 
Q 10.890625 67.625 15.140625 71.796875 
Q 19.390625 75.984375 28.609375 75.984375 
z
" id="DejaVuSans-66"/>
      <path d="M 4.890625 31.390625 
L 31.203125 31.390625 
L 31.203125 23.390625 
L 4.890625 23.390625 
z
" id="DejaVuSans-2d"/>
      <path d="M 56.203125 29.59375 
L 56.203125 25.203125 
L 14.890625 25.203125 
Q 15.484375 15.921875 20.484375 11.0625 
Q 25.484375 6.203125 34.421875 6.203125 
Q 39.59375 6.203125 44.453125 7.46875 
Q 49.3125 8.734375 54.109375 11.28125 
L 54.109375 2.78125 
Q 49.265625 0.734375 44.1875 -0.34375 
Q 39.109375 -1.421875 33.890625 -1.421875 
Q 20.796875 -1.421875 13.15625 6.1875 
Q 5.515625 13.8125 5.515625 26.8125 
Q 5.515625 40.234375 12.765625 48.109375 
Q 20.015625 56 32.328125 56 
Q 43.359375 56 49.78125 48.890625 
Q 56.203125 41.796875 56.203125 29.59375 
z
M 47.21875 32.234375 
Q 47.125 39.59375 43.09375 43.984375 
Q 39.0625 48.390625 32.421875 48.390625 
Q 24.90625 48.390625 20.390625 44.140625 
Q 15.875 39.890625 15.1875 32.171875 
z
" id="DejaVuSans-65"/>
      <path d="M 2.984375 54.6875 
L 12.5 54.6875 
L 29.59375 8.796875 
L 46.6875 54.6875 
L 56.203125 54.6875 
L 35.6875 0 
L 23.484375 0 
z
" id="DejaVuSans-76"/>
      <path d="M 34.28125 27.484375 
Q 23.390625 27.484375 19.1875 25 
Q 14.984375 22.515625 14.984375 16.5 
Q 14.984375 11.71875 18.140625 8.90625 
Q 21.296875 6.109375 26.703125 6.109375 
Q 34.1875 6.109375 38.703125 11.40625 
Q 43.21875 16.703125 43.21875 25.484375 
L 43.21875 27.484375 
z
M 52.203125 31.203125 
L 52.203125 0 
L 43.21875 0 
L 43.21875 8.296875 
Q 40.140625 3.328125 35.546875 0.953125 
Q 30.953125 -1.421875 24.3125 -1.421875 
Q 15.921875 -1.421875 10.953125 3.296875 
Q 6 8.015625 6 15.921875 
Q 6 25.140625 12.171875 29.828125 
Q 18.359375 34.515625 30.609375 34.515625 
L 43.21875 34.515625 
L 43.21875 35.40625 
Q 43.21875 41.609375 39.140625 45 
Q 35.0625 48.390625 27.6875 48.390625 
Q 23 48.390625 18.546875 47.265625 
Q 14.109375 46.140625 10.015625 43.890625 
L 10.015625 52.203125 
Q 14.9375 54.109375 19.578125 55.046875 
Q 24.21875 56 28.609375 56 
Q 40.484375 56 46.34375 49.84375 
Q 52.203125 43.703125 52.203125 31.203125 
z
" id="DejaVuSans-61"/>
      <path d="M 44.28125 53.078125 
L 44.28125 44.578125 
Q 40.484375 46.53125 36.375 47.5 
Q 32.28125 48.484375 27.875 48.484375 
Q 21.1875 48.484375 17.84375 46.4375 
Q 14.5 44.390625 14.5 40.28125 
Q 14.5 37.15625 16.890625 35.375 
Q 19.28125 33.59375 26.515625 31.984375 
L 29.59375 31.296875 
Q 39.15625 29.25 43.1875 25.515625 
Q 47.21875 21.78125 47.21875 15.09375 
Q 47.21875 7.46875 41.1875 3.015625 
Q 35.15625 -1.421875 24.609375 -1.421875 
Q 20.21875 -1.421875 15.453125 -0.5625 
Q 10.6875 0.296875 5.421875 2 
L 5.421875 11.28125 
Q 10.40625 8.6875 15.234375 7.390625 
Q 20.0625 6.109375 24.8125 6.109375 
Q 31.15625 6.109375 34.5625 8.28125 
Q 37.984375 10.453125 37.984375 14.40625 
Q 37.984375 18.0625 35.515625 20.015625 
Q 33.0625 21.96875 24.703125 23.78125 
L 21.578125 24.515625 
Q 13.234375 26.265625 9.515625 29.90625 
Q 5.8125 33.546875 5.8125 39.890625 
Q 5.8125 47.609375 11.28125 51.796875 
Q 16.75 56 26.8125 56 
Q 31.78125 56 36.171875 55.265625 
Q 40.578125 54.546875 44.28125 53.078125 
z
" id="DejaVuSans-73"/>
      <path d="M 25.390625 72.90625 
L 33.6875 72.90625 
L 8.296875 -9.28125 
L 0 -9.28125 
z
" id="DejaVuSans-2f"/>
      <path d="M 45.40625 46.390625 
L 45.40625 75.984375 
L 54.390625 75.984375 
L 54.390625 0 
L 45.40625 0 
L 45.40625 8.203125 
Q 42.578125 3.328125 38.25 0.953125 
Q 33.9375 -1.421875 27.875 -1.421875 
Q 17.96875 -1.421875 11.734375 6.484375 
Q 5.515625 14.40625 5.515625 27.296875 
Q 5.515625 40.1875 11.734375 48.09375 
Q 17.96875 56 27.875 56 
Q 33.9375 56 38.25 53.625 
Q 42.578125 51.265625 45.40625 46.390625 
z
M 14.796875 27.296875 
Q 14.796875 17.390625 18.875 11.75 
Q 22.953125 6.109375 30.078125 6.109375 
Q 37.203125 6.109375 41.296875 11.75 
Q 45.40625 17.390625 45.40625 27.296875 
Q 45.40625 37.203125 41.296875 42.84375 
Q 37.203125 48.484375 30.078125 48.484375 
Q 22.953125 48.484375 18.875 42.84375 
Q 14.796875 37.203125 14.796875 27.296875 
z
" id="DejaVuSans-64"/>
      <path d="M 9.421875 54.6875 
L 18.40625 54.6875 
L 18.40625 0 
L 9.421875 0 
z
M 9.421875 75.984375 
L 18.40625 75.984375 
L 18.40625 64.59375 
L 9.421875 64.59375 
z
" id="DejaVuSans-69"/>
      <path d="M 52 44.1875 
Q 55.375 50.25 60.0625 53.125 
Q 64.75 56 71.09375 56 
Q 79.640625 56 84.28125 50.015625 
Q 88.921875 44.046875 88.921875 33.015625 
L 88.921875 0 
L 79.890625 0 
L 79.890625 32.71875 
Q 79.890625 40.578125 77.09375 44.375 
Q 74.3125 48.1875 68.609375 48.1875 
Q 61.625 48.1875 57.5625 43.546875 
Q 53.515625 38.921875 53.515625 30.90625 
L 53.515625 0 
L 44.484375 0 
L 44.484375 32.71875 
Q 44.484375 40.625 41.703125 44.40625 
Q 38.921875 48.1875 33.109375 48.1875 
Q 26.21875 48.1875 22.15625 43.53125 
Q 18.109375 38.875 18.109375 30.90625 
L 18.109375 0 
L 9.078125 0 
L 9.078125 54.6875 
L 18.109375 54.6875 
L 18.109375 46.1875 
Q 21.1875 51.21875 25.484375 53.609375 
Q 29.78125 56 35.6875 56 
Q 41.65625 56 45.828125 52.96875 
Q 50 49.953125 52 44.1875 
z
" id="DejaVuSans-6d"/>
      <path d="M 54.890625 33.015625 
L 54.890625 0 
L 45.90625 0 
L 45.90625 32.71875 
Q 45.90625 40.484375 42.875 44.328125 
Q 39.84375 48.1875 33.796875 48.1875 
Q 26.515625 48.1875 22.3125 43.546875 
Q 18.109375 38.921875 18.109375 30.90625 
L 18.109375 0 
L 9.078125 0 
L 9.078125 54.6875 
L 18.109375 54.6875 
L 18.109375 46.1875 
Q 21.34375 51.125 25.703125 53.5625 
Q 30.078125 56 35.796875 56 
Q 45.21875 56 50.046875 50.171875 
Q 54.890625 44.34375 54.890625 33.015625 
z
" id="DejaVuSans-6e"/>
      <path d="M 8.015625 75.875 
L 15.828125 75.875 
Q 23.140625 64.359375 26.78125 53.3125 
Q 30.421875 42.28125 30.421875 31.390625 
Q 30.421875 20.453125 26.78125 9.375 
Q 23.140625 -1.703125 15.828125 -13.1875 
L 8.015625 -13.1875 
Q 14.5 -2 17.703125 9.0625 
Q 20.90625 20.125 20.90625 31.390625 
Q 20.90625 42.671875 17.703125 53.65625 
Q 14.5 64.65625 8.015625 75.875 
z
" id="DejaVuSans-29"/>
     </defs>
     <g transform="translate(73.803219 338.153594)scale(0.17 -0.17)">
      <use xlink:href="#DejaVuSans-6c"/>
      <use x="27.783203" xlink:href="#DejaVuSans-6f"/>
      <use x="88.964844" xlink:href="#DejaVuSans-67"/>
      <use x="152.441406" xlink:href="#DejaVuSans-31"/>
      <use x="216.064453" xlink:href="#DejaVuSans-30"/>
      <use x="279.6875" xlink:href="#DejaVuSans-28"/>
      <use x="318.701172" xlink:href="#DejaVuSans-23"/>
      <use x="402.490234" xlink:href="#DejaVuSans-20"/>
      <use x="434.277344" xlink:href="#DejaVuSans-66"/>
      <use x="469.404297" xlink:href="#DejaVuSans-2d"/>
      <use x="505.488281" xlink:href="#DejaVuSans-65"/>
      <use x="567.011719" xlink:href="#DejaVuSans-76"/>
      <use x="626.191406" xlink:href="#DejaVuSans-61"/>
      <use x="687.470703" xlink:href="#DejaVuSans-6c"/>
      <use x="715.253906" xlink:href="#DejaVuSans-73"/>
      <use x="767.353516" xlink:href="#DejaVuSans-20"/>
      <use x="799.140625" xlink:href="#DejaVuSans-2f"/>
      <use x="832.832031" xlink:href="#DejaVuSans-20"/>
      <use x="864.619141" xlink:href="#DejaVuSans-64"/>
      <use x="928.095703" xlink:href="#DejaVuSans-69"/>
      <use x="955.878906" xlink:href="#DejaVuSans-6d"/>
      <use x="1053.291016" xlink:href="#DejaVuSans-65"/>
      <use x="1114.814453" xlink:href="#DejaVuSans-6e"/>
      <use x="1178.193359" xlink:href="#DejaVuSans-73"/>
      <use x="1230.292969" xlink:href="#DejaVuSans-69"/>
      <use x="1258.076172" xlink:href="#DejaVuSans-6f"/>
      <use x="1319.257812" xlink:href="#DejaVuSans-6e"/>
      <use x="1382.636719" xlink:href="#DejaVuSans-29"/>
     </g>
    </g>
   </g>
   <g id="matplotlib.axis_2">
    <g id="ytick_1">
     <g id="line2d_29">
      <path clip-path="url(#paa21576362)" d="M 56.12 294.88 
L 333.168 294.88 
" style="fill:none;stroke:#b0b0b0;stroke-linecap:square;stroke-width:0.8;"/>
     </g>
     <g id="line2d_30">
      <defs>
       <path d="M 0 0 
L -3.5 0 
" id="me3c5185b1d" style="stroke:#000000;stroke-width:0.8;"/>
      </defs>
      <g>
       <use style="stroke:#000000;stroke-width:0.8;" x="56.12" xlink:href="#me3c5185b1d" y="294.88"/>
      </g>
     </g>
     <g id="text_6">
      <!-- 0.0 -->
      <defs>
       <path d="M 10.6875 12.40625 
L 21 12.40625 
L 21 0 
L 10.6875 0 
z
" id="DejaVuSans-2e"/>
      </defs>
      <g transform="translate(23.675 300.95875)scale(0.16 -0.16)">
       <use xlink:href="#DejaVuSans-30"/>
       <use x="63.623047" xlink:href="#DejaVuSans-2e"/>
       <use x="95.410156" xlink:href="#DejaVuSans-30"/>
      </g>
     </g>
    </g>
    <g id="ytick_2">
     <g id="line2d_31">
      <path clip-path="url(#paa21576362)" d="M 56.12 241.406733 
L 333.168 241.406733 
" style="fill:none;stroke:#b0b0b0;stroke-linecap:square;stroke-width:0.8;"/>
     </g>
     <g id="line2d_32">
      <g>
       <use style="stroke:#000000;stroke-width:0.8;" x="56.12" xlink:href="#me3c5185b1d" y="241.406733"/>
      </g>
     </g>
     <g id="text_7">
      <!-- 0.2 -->
      <g transform="translate(23.675 247.485483)scale(0.16 -0.16)">
       <use xlink:href="#DejaVuSans-30"/>
       <use x="63.623047" xlink:href="#DejaVuSans-2e"/>
       <use x="95.410156" xlink:href="#DejaVuSans-32"/>
      </g>
     </g>
    </g>
    <g id="ytick_3">
     <g id="line2d_33">
      <path clip-path="url(#paa21576362)" d="M 56.12 187.933465 
L 333.168 187.933465 
" style="fill:none;stroke:#b0b0b0;stroke-linecap:square;stroke-width:0.8;"/>
     </g>
     <g id="line2d_34">
      <g>
       <use style="stroke:#000000;stroke-width:0.8;" x="56.12" xlink:href="#me3c5185b1d" y="187.933465"/>
      </g>
     </g>
     <g id="text_8">
      <!-- 0.4 -->
      <g transform="translate(23.675 194.012215)scale(0.16 -0.16)">
       <use xlink:href="#DejaVuSans-30"/>
       <use x="63.623047" xlink:href="#DejaVuSans-2e"/>
       <use x="95.410156" xlink:href="#DejaVuSans-34"/>
      </g>
     </g>
    </g>
    <g id="ytick_4">
     <g id="line2d_35">
      <path clip-path="url(#paa21576362)" d="M 56.12 134.460198 
L 333.168 134.460198 
" style="fill:none;stroke:#b0b0b0;stroke-linecap:square;stroke-width:0.8;"/>
     </g>
     <g id="line2d_36">
      <g>
       <use style="stroke:#000000;stroke-width:0.8;" x="56.12" xlink:href="#me3c5185b1d" y="134.460198"/>
      </g>
     </g>
     <g id="text_9">
      <!-- 0.6 -->
      <g transform="translate(23.675 140.538948)scale(0.16 -0.16)">
       <use xlink:href="#DejaVuSans-30"/>
       <use x="63.623047" xlink:href="#DejaVuSans-2e"/>
       <use x="95.410156" xlink:href="#DejaVuSans-36"/>
      </g>
     </g>
    </g>
    <g id="ytick_5">
     <g id="line2d_37">
      <path clip-path="url(#paa21576362)" d="M 56.12 80.986931 
L 333.168 80.986931 
" style="fill:none;stroke:#b0b0b0;stroke-linecap:square;stroke-width:0.8;"/>
     </g>
     <g id="line2d_38">
      <g>
       <use style="stroke:#000000;stroke-width:0.8;" x="56.12" xlink:href="#me3c5185b1d" y="80.986931"/>
      </g>
     </g>
     <g id="text_10">
      <!-- 0.8 -->
      <defs>
       <path d="M 31.78125 34.625 
Q 24.75 34.625 20.71875 30.859375 
Q 16.703125 27.09375 16.703125 20.515625 
Q 16.703125 13.921875 20.71875 10.15625 
Q 24.75 6.390625 31.78125 6.390625 
Q 38.8125 6.390625 42.859375 10.171875 
Q 46.921875 13.96875 46.921875 20.515625 
Q 46.921875 27.09375 42.890625 30.859375 
Q 38.875 34.625 31.78125 34.625 
z
M 21.921875 38.8125 
Q 15.578125 40.375 12.03125 44.71875 
Q 8.5 49.078125 8.5 55.328125 
Q 8.5 64.0625 14.71875 69.140625 
Q 20.953125 74.21875 31.78125 74.21875 
Q 42.671875 74.21875 48.875 69.140625 
Q 55.078125 64.0625 55.078125 55.328125 
Q 55.078125 49.078125 51.53125 44.71875 
Q 48 40.375 41.703125 38.8125 
Q 48.828125 37.15625 52.796875 32.3125 
Q 56.78125 27.484375 56.78125 20.515625 
Q 56.78125 9.90625 50.3125 4.234375 
Q 43.84375 -1.421875 31.78125 -1.421875 
Q 19.734375 -1.421875 13.25 4.234375 
Q 6.78125 9.90625 6.78125 20.515625 
Q 6.78125 27.484375 10.78125 32.3125 
Q 14.796875 37.15625 21.921875 38.8125 
z
M 18.3125 54.390625 
Q 18.3125 48.734375 21.84375 45.5625 
Q 25.390625 42.390625 31.78125 42.390625 
Q 38.140625 42.390625 41.71875 45.5625 
Q 45.3125 48.734375 45.3125 54.390625 
Q 45.3125 60.0625 41.71875 63.234375 
Q 38.140625 66.40625 31.78125 66.40625 
Q 25.390625 66.40625 21.84375 63.234375 
Q 18.3125 60.0625 18.3125 54.390625 
z
" id="DejaVuSans-38"/>
      </defs>
      <g transform="translate(23.675 87.065681)scale(0.16 -0.16)">
       <use xlink:href="#DejaVuSans-30"/>
       <use x="63.623047" xlink:href="#DejaVuSans-2e"/>
       <use x="95.410156" xlink:href="#DejaVuSans-38"/>
      </g>
     </g>
    </g>
    <g id="ytick_6">
     <g id="line2d_39">
      <path clip-path="url(#paa21576362)" d="M 56.12 27.513663 
L 333.168 27.513663 
" style="fill:none;stroke:#b0b0b0;stroke-linecap:square;stroke-width:0.8;"/>
     </g>
     <g id="line2d_40">
      <g>
       <use style="stroke:#000000;stroke-width:0.8;" x="56.12" xlink:href="#me3c5185b1d" y="27.513663"/>
      </g>
     </g>
     <g id="text_11">
      <!-- 1.0 -->
      <g transform="translate(23.675 33.592413)scale(0.16 -0.16)">
       <use xlink:href="#DejaVuSans-31"/>
       <use x="63.623047" xlink:href="#DejaVuSans-2e"/>
       <use x="95.410156" xlink:href="#DejaVuSans-30"/>
      </g>
     </g>
    </g>
    <g id="text_12">
     <!-- Fraction of function,target pairs -->
     <defs>
      <path d="M 9.8125 72.90625 
L 51.703125 72.90625 
L 51.703125 64.59375 
L 19.671875 64.59375 
L 19.671875 43.109375 
L 48.578125 43.109375 
L 48.578125 34.8125 
L 19.671875 34.8125 
L 19.671875 0 
L 9.8125 0 
z
" id="DejaVuSans-46"/>
      <path d="M 41.109375 46.296875 
Q 39.59375 47.171875 37.8125 47.578125 
Q 36.03125 48 33.890625 48 
Q 26.265625 48 22.1875 43.046875 
Q 18.109375 38.09375 18.109375 28.8125 
L 18.109375 0 
L 9.078125 0 
L 9.078125 54.6875 
L 18.109375 54.6875 
L 18.109375 46.1875 
Q 20.953125 51.171875 25.484375 53.578125 
Q 30.03125 56 36.53125 56 
Q 37.453125 56 38.578125 55.875 
Q 39.703125 55.765625 41.0625 55.515625 
z
" id="DejaVuSans-72"/>
      <path d="M 48.78125 52.59375 
L 48.78125 44.1875 
Q 44.96875 46.296875 41.140625 47.34375 
Q 37.3125 48.390625 33.40625 48.390625 
Q 24.65625 48.390625 19.8125 42.84375 
Q 14.984375 37.3125 14.984375 27.296875 
Q 14.984375 17.28125 19.8125 11.734375 
Q 24.65625 6.203125 33.40625 6.203125 
Q 37.3125 6.203125 41.140625 7.25 
Q 44.96875 8.296875 48.78125 10.40625 
L 48.78125 2.09375 
Q 45.015625 0.34375 40.984375 -0.53125 
Q 36.96875 -1.421875 32.421875 -1.421875 
Q 20.0625 -1.421875 12.78125 6.34375 
Q 5.515625 14.109375 5.515625 27.296875 
Q 5.515625 40.671875 12.859375 48.328125 
Q 20.21875 56 33.015625 56 
Q 37.15625 56 41.109375 55.140625 
Q 45.0625 54.296875 48.78125 52.59375 
z
" id="DejaVuSans-63"/>
      <path d="M 18.3125 70.21875 
L 18.3125 54.6875 
L 36.8125 54.6875 
L 36.8125 47.703125 
L 18.3125 47.703125 
L 18.3125 18.015625 
Q 18.3125 11.328125 20.140625 9.421875 
Q 21.96875 7.515625 27.59375 7.515625 
L 36.8125 7.515625 
L 36.8125 0 
L 27.59375 0 
Q 17.1875 0 13.234375 3.875 
Q 9.28125 7.765625 9.28125 18.015625 
L 9.28125 47.703125 
L 2.6875 47.703125 
L 2.6875 54.6875 
L 9.28125 54.6875 
L 9.28125 70.21875 
z
" id="DejaVuSans-74"/>
      <path d="M 8.5 21.578125 
L 8.5 54.6875 
L 17.484375 54.6875 
L 17.484375 21.921875 
Q 17.484375 14.15625 20.5 10.265625 
Q 23.53125 6.390625 29.59375 6.390625 
Q 36.859375 6.390625 41.078125 11.03125 
Q 45.3125 15.671875 45.3125 23.6875 
L 45.3125 54.6875 
L 54.296875 54.6875 
L 54.296875 0 
L 45.3125 0 
L 45.3125 8.40625 
Q 42.046875 3.421875 37.71875 1 
Q 33.40625 -1.421875 27.6875 -1.421875 
Q 18.265625 -1.421875 13.375 4.4375 
Q 8.5 10.296875 8.5 21.578125 
z
M 31.109375 56 
z
" id="DejaVuSans-75"/>
      <path d="M 11.71875 12.40625 
L 22.015625 12.40625 
L 22.015625 4 
L 14.015625 -11.625 
L 7.71875 -11.625 
L 11.71875 4 
z
" id="DejaVuSans-2c"/>
      <path d="M 18.109375 8.203125 
L 18.109375 -20.796875 
L 9.078125 -20.796875 
L 9.078125 54.6875 
L 18.109375 54.6875 
L 18.109375 46.390625 
Q 20.953125 51.265625 25.265625 53.625 
Q 29.59375 56 35.59375 56 
Q 45.5625 56 51.78125 48.09375 
Q 58.015625 40.1875 58.015625 27.296875 
Q 58.015625 14.40625 51.78125 6.484375 
Q 45.5625 -1.421875 35.59375 -1.421875 
Q 29.59375 -1.421875 25.265625 0.953125 
Q 20.953125 3.328125 18.109375 8.203125 
z
M 48.6875 27.296875 
Q 48.6875 37.203125 44.609375 42.84375 
Q 40.53125 48.484375 33.40625 48.484375 
Q 26.265625 48.484375 22.1875 42.84375 
Q 18.109375 37.203125 18.109375 27.296875 
Q 18.109375 17.390625 22.1875 11.75 
Q 26.265625 6.109375 33.40625 6.109375 
Q 40.53125 6.109375 44.609375 11.75 
Q 48.6875 17.390625 48.6875 27.296875 
z
" id="DejaVuSans-70"/>
     </defs>
     <g transform="translate(16.139531 294.999375)rotate(-90)scale(0.17 -0.17)">
      <use xlink:href="#DejaVuSans-46"/>
      <use x="57.410156" xlink:href="#DejaVuSans-72"/>
      <use x="98.523438" xlink:href="#DejaVuSans-61"/>
      <use x="159.802734" xlink:href="#DejaVuSans-63"/>
      <use x="214.783203" xlink:href="#DejaVuSans-74"/>
      <use x="253.992188" xlink:href="#DejaVuSans-69"/>
      <use x="281.775391" xlink:href="#DejaVuSans-6f"/>
      <use x="342.957031" xlink:href="#DejaVuSans-6e"/>
      <use x="406.335938" xlink:href="#DejaVuSans-20"/>
      <use x="438.123047" xlink:href="#DejaVuSans-6f"/>
      <use x="499.304688" xlink:href="#DejaVuSans-66"/>
      <use x="534.509766" xlink:href="#DejaVuSans-20"/>
      <use x="566.296875" xlink:href="#DejaVuSans-66"/>
      <use x="601.501953" xlink:href="#DejaVuSans-75"/>
      <use x="664.880859" xlink:href="#DejaVuSans-6e"/>
      <use x="728.259766" xlink:href="#DejaVuSans-63"/>
      <use x="783.240234" xlink:href="#DejaVuSans-74"/>
      <use x="822.449219" xlink:href="#DejaVuSans-69"/>
      <use x="850.232422" xlink:href="#DejaVuSans-6f"/>
      <use x="911.414062" xlink:href="#DejaVuSans-6e"/>
      <use x="974.792969" xlink:href="#DejaVuSans-2c"/>
      <use x="1006.580078" xlink:href="#DejaVuSans-74"/>
      <use x="1045.789062" xlink:href="#DejaVuSans-61"/>
      <use x="1107.068359" xlink:href="#DejaVuSans-72"/>
      <use x="1148.166016" xlink:href="#DejaVuSans-67"/>
      <use x="1211.642578" xlink:href="#DejaVuSans-65"/>
      <use x="1273.166016" xlink:href="#DejaVuSans-74"/>
      <use x="1312.375" xlink:href="#DejaVuSans-20"/>
      <use x="1344.162109" xlink:href="#DejaVuSans-70"/>
      <use x="1407.638672" xlink:href="#DejaVuSans-61"/>
      <use x="1468.917969" xlink:href="#DejaVuSans-69"/>
      <use x="1496.701172" xlink:href="#DejaVuSans-72"/>
      <use x="1537.814453" xlink:href="#DejaVuSans-73"/>
     </g>
    </g>
   </g>
   <g id="line2d_41">
    <defs>
     <path d="M 0 1.5 
C 0.397805 1.5 0.77937 1.341951 1.06066 1.06066 
C 1.341951 0.77937 1.5 0.397805 1.5 0 
C 1.5 -0.397805 1.341951 -0.77937 1.06066 -1.06066 
C 0.77937 -1.341951 0.397805 -1.5 0 -1.5 
C -0.397805 -1.5 -0.77937 -1.341951 -1.06066 -1.06066 
C -1.341951 -0.77937 -1.5 -0.397805 -1.5 0 
C -1.5 0.397805 -1.341951 0.77937 -1.06066 1.06066 
C -0.77937 1.341951 -0.397805 1.5 0 1.5 
z
" id="m8134532b4a" style="stroke:#f5deb3;"/>
    </defs>
    <g>
     <use style="fill:#f5deb3;stroke:#f5deb3;" x="158.733683" xlink:href="#m8134532b4a" y="27.513663"/>
     <use style="fill:#f5deb3;stroke:#f5deb3;" x="158.733683" xlink:href="#m8134532b4a" y="27.513663"/>
    </g>
   </g>
   <g id="line2d_42">
    <defs>
     <path d="M 0 1.5 
C 0.397805 1.5 0.77937 1.341951 1.06066 1.06066 
C 1.341951 0.77937 1.5 0.397805 1.5 0 
C 1.5 -0.397805 1.341951 -0.77937 1.06066 -1.06066 
C 0.77937 -1.341951 0.397805 -1.5 0 -1.5 
C -0.397805 -1.5 -0.77937 -1.341951 -1.06066 -1.06066 
C -1.341951 -0.77937 -1.5 -0.397805 -1.5 0 
C -1.5 0.397805 -1.341951 0.77937 -1.06066 1.06066 
C -0.77937 1.341951 -0.397805 1.5 0 1.5 
z
" id="mdd21ecff51" style="stroke:#000080;"/>
    </defs>
    <g>
     <use style="fill:#000080;stroke:#000080;" x="282.692934" xlink:href="#mdd21ecff51" y="252.940182"/>
     <use style="fill:#000080;stroke:#000080;" x="282.692934" xlink:href="#mdd21ecff51" y="252.940182"/>
    </g>
   </g>
   <g id="line2d_43">
    <path d="M 150.633435 294.88 
L 150.633435 294.355752 
L 150.764827 294.355752 
L 150.764827 293.831505 
L 151.475923 293.831505 
L 151.475923 293.307257 
L 151.886259 293.307257 
L 151.886259 292.783009 
L 152.603557 292.783009 
L 152.603557 292.258761 
L 153.642566 292.258761 
L 153.642566 291.734514 
L 154.643238 291.734514 
L 154.644631 290.686018 
L 156.163083 290.686018 
L 156.163083 290.161771 
L 156.301482 290.161771 
L 156.301482 289.637523 
L 156.801255 289.637523 
L 156.801255 289.113275 
L 157.338179 289.113275 
L 157.338179 288.589027 
L 157.857683 288.589027 
L 157.857683 288.06478 
L 159.120107 288.06478 
L 159.120107 287.540532 
L 159.495934 287.540532 
L 159.495934 287.016284 
L 160.106637 287.016284 
L 160.106637 286.492036 
L 160.429918 286.492036 
L 160.429918 285.967789 
L 161.084663 285.967789 
L 161.084663 285.443541 
L 161.561487 285.443541 
L 161.561487 284.919293 
L 162.095093 284.919293 
L 162.095093 284.395046 
L 162.619638 284.395046 
L 162.619638 283.870798 
L 163.407747 283.870798 
L 163.407747 283.34655 
L 164.14448 283.34655 
L 164.14448 282.822302 
L 166.080908 282.822302 
L 166.080908 282.298055 
L 170.619919 282.298055 
L 170.619919 281.773807 
L 170.759542 281.773807 
L 170.779707 280.725312 
L 170.933166 280.725312 
L 170.933166 280.201064 
L 171.105054 280.201064 
L 171.143493 279.152568 
L 171.27524 279.152568 
L 171.27524 278.628321 
L 171.483538 278.628321 
L 171.483538 278.104073 
L 172.101776 278.104073 
L 172.101776 277.579825 
L 173.650845 277.579825 
L 173.719841 276.53133 
L 173.936971 276.53133 
L 173.936971 276.007082 
L 174.445222 276.007082 
L 174.445222 275.482834 
L 174.916625 275.482834 
L 174.916625 274.958587 
L 176.029861 274.958587 
L 176.029861 274.434339 
L 176.430491 274.434339 
L 176.430491 273.910091 
L 176.810877 273.910091 
L 176.810877 273.385844 
L 180.87884 273.385844 
L 180.87884 272.861596 
L 181.369077 272.861596 
L 181.369077 272.337348 
L 182.304208 272.337348 
L 182.304208 271.8131 
L 184.960254 271.8131 
L 184.960254 271.288853 
L 185.151578 271.288853 
L 185.151578 270.764605 
L 185.447628 270.764605 
L 185.447628 270.240357 
L 215.04259 270.240357 
L 215.04259 269.716109 
L 215.232446 269.716109 
L 215.232446 269.191862 
L 215.402244 269.191862 
L 215.402244 268.667614 
L 216.525985 268.667614 
L 216.525985 268.143366 
L 216.898828 268.143366 
L 216.898828 267.619119 
L 226.751691 267.619119 
L 226.855657 266.046375 
L 227.243842 266.046375 
L 227.243842 265.522128 
L 233.587369 265.522128 
L 233.587369 264.99788 
L 234.043082 264.99788 
L 234.043082 264.473632 
L 238.517655 264.473632 
L 238.517655 263.949385 
L 242.30229 263.949385 
L 242.30229 263.425137 
L 247.997162 263.425137 
L 247.997162 262.900889 
L 254.095575 262.900889 
L 254.095575 262.376641 
L 255.7239 262.376641 
L 255.7239 261.852394 
L 257.213333 261.852394 
L 257.213333 261.328146 
L 259.868461 261.328146 
L 259.868461 260.803898 
L 261.049462 260.803898 
L 261.049462 260.279651 
L 262.142788 260.279651 
L 262.142788 259.755403 
L 263.18175 259.755403 
L 263.18175 259.231155 
L 264.160071 259.231155 
L 264.160071 258.706907 
L 267.610763 258.706907 
L 267.610763 257.658412 
L 268.364632 257.658412 
L 268.364632 257.134164 
L 269.094649 257.134164 
L 269.094649 256.609917 
L 271.739277 256.609917 
L 271.739277 256.085669 
L 274.029948 256.085669 
L 274.029948 255.561421 
L 274.558864 255.561421 
L 274.558864 255.037173 
L 276.52774 255.037173 
L 276.52774 254.512926 
L 277.425719 254.512926 
L 277.425719 253.988678 
L 279.887372 253.988678 
L 279.887372 253.46443 
L 282.692934 253.46443 
L 282.692934 252.940182 
L 333.168 252.940182 
L 333.168 252.940182 
" style="fill:none;stroke:#000080;stroke-linecap:square;stroke-width:1.5;"/>
   </g>
   <g id="line2d_44">
    <defs>
     <path d="M 0 6 
C 1.591219 6 3.117479 5.367802 4.242641 4.242641 
C 5.367802 3.117479 6 1.591219 6 0 
C 6 -1.591219 5.367802 -3.117479 4.242641 -4.242641 
C 3.117479 -5.367802 1.591219 -6 0 -6 
C -1.591219 -6 -3.117479 -5.367802 -4.242641 -4.242641 
C -5.367802 -3.117479 -6 -1.591219 -6 0 
C -6 1.591219 -5.367802 3.117479 -4.242641 4.242641 
C -3.117479 5.367802 -1.591219 6 0 6 
z
" id="maafa584fda" style="stroke:#000080;stroke-width:1.5;"/>
    </defs>
    <g>
     <use style="fill:none;stroke:#000080;stroke-width:1.5;" x="257.213333" xlink:href="#maafa584fda" y="261.852394"/>
     <use style="fill:none;stroke:#000080;stroke-width:1.5;" x="282.692934" xlink:href="#maafa584fda" y="252.940182"/>
     <use style="fill:none;stroke:#000080;stroke-width:1.5;" x="282.692934" xlink:href="#maafa584fda" y="252.940182"/>
     <use style="fill:none;stroke:#000080;stroke-width:1.5;" x="333.168" xlink:href="#maafa584fda" y="252.940182"/>
    </g>
   </g>
   <g id="line2d_45">
    <path style="fill:none;stroke:#000080;stroke-linecap:square;stroke-width:1.5;"/>
    <g/>
   </g>
   <g id="line2d_46">
    <path clip-path="url(#paa21576362)" d="M 214.433143 270.240357 
" style="fill:none;stroke:#000080;stroke-linecap:square;stroke-width:1.5;"/>
    <defs>
     <path d="M -12 12 
L 12 -12 
M -12 -12 
L 12 12 
" id="mbaaff5cfce" style="stroke:#000080;"/>
    </defs>
    <g clip-path="url(#paa21576362)">
     <use style="fill:#000080;stroke:#000080;" x="214.433143" xlink:href="#mbaaff5cfce" y="270.240357"/>
    </g>
   </g>
   <g id="line2d_47">
    <defs>
     <path d="M 0 1.5 
C 0.397805 1.5 0.77937 1.341951 1.06066 1.06066 
C 1.341951 0.77937 1.5 0.397805 1.5 0 
C 1.5 -0.397805 1.341951 -0.77937 1.06066 -1.06066 
C 0.77937 -1.341951 0.397805 -1.5 0 -1.5 
C -0.397805 -1.5 -0.77937 -1.341951 -1.06066 -1.06066 
C -1.341951 -0.77937 -1.5 -0.397805 -1.5 0 
C -1.5 0.397805 -1.341951 0.77937 -1.06066 1.06066 
C -0.77937 1.341951 -0.397805 1.5 0 1.5 
z
" id="mb0489c0c3c" style="stroke:#ff00ff;"/>
    </defs>
    <g>
     <use style="fill:#ff00ff;stroke:#ff00ff;" x="277.390172" xlink:href="#mb0489c0c3c" y="263.425137"/>
     <use style="fill:#ff00ff;stroke:#ff00ff;" x="277.390172" xlink:href="#mb0489c0c3c" y="263.425137"/>
    </g>
   </g>
   <g id="line2d_48">
    <path d="M 162.972376 294.88 
L 162.972376 294.355752 
L 163.75139 294.355752 
L 163.75139 293.831505 
L 163.778424 293.831505 
L 163.778424 293.307257 
L 164.20607 293.307257 
L 164.20607 292.783009 
L 164.540531 292.783009 
L 164.540531 292.258761 
L 164.660699 292.258761 
L 164.660699 291.734514 
L 164.687117 291.734514 
L 164.687117 291.210266 
L 165.127846 291.210266 
L 165.127846 290.686018 
L 165.138437 290.686018 
L 165.138437 290.161771 
L 165.175454 290.161771 
L 165.175454 289.637523 
L 165.754955 289.637523 
L 165.754955 289.113275 
L 165.766626 289.113275 
L 165.766626 288.589027 
L 165.967419 288.589027 
L 165.967419 288.06478 
L 166.178711 288.06478 
L 166.178711 287.540532 
L 166.305665 287.540532 
L 166.305665 287.016284 
L 166.441505 287.016284 
L 166.441505 286.492036 
L 166.458322 286.492036 
L 166.458322 285.967789 
L 166.726563 285.967789 
L 166.726563 285.443541 
L 167.264845 285.443541 
L 167.264845 284.919293 
L 167.308894 284.919293 
L 167.308894 284.395046 
L 167.56625 284.395046 
L 167.56625 283.870798 
L 167.714018 283.870798 
L 167.714018 283.34655 
L 167.718574 283.34655 
L 167.718574 282.822302 
L 168.026265 282.822302 
L 168.026265 282.298055 
L 168.126346 282.298055 
L 168.126346 281.773807 
L 169.158714 281.773807 
L 169.158714 281.249559 
L 169.647887 281.249559 
L 169.647887 280.725312 
L 170.090103 280.725312 
L 170.090103 280.201064 
L 170.286849 280.201064 
L 170.286849 279.676816 
L 170.77099 279.676816 
L 170.77099 279.152568 
L 171.477786 279.152568 
L 171.477786 278.628321 
L 171.793896 278.628321 
L 171.793896 278.104073 
L 171.998577 278.104073 
L 171.998577 277.579825 
L 172.11438 277.579825 
L 172.11438 277.055578 
L 172.14409 277.055578 
L 172.14409 276.53133 
L 172.5267 276.53133 
L 172.5267 276.007082 
L 172.73796 276.007082 
L 172.73796 275.482834 
L 173.05006 275.482834 
L 173.05006 274.958587 
L 173.722136 274.958587 
L 173.722136 274.434339 
L 173.955093 274.434339 
L 173.955093 273.910091 
L 196.332799 273.910091 
L 196.332799 273.385844 
L 196.657111 273.385844 
L 196.657111 272.861596 
L 215.544701 272.861596 
L 215.544701 272.337348 
L 215.548527 272.337348 
L 215.548527 271.288853 
L 215.737725 271.288853 
L 215.737725 270.764605 
L 215.872303 270.764605 
L 215.872303 270.240357 
L 229.192397 270.240357 
L 229.192397 269.716109 
L 233.126271 269.716109 
L 233.126271 269.191862 
L 233.762738 269.191862 
L 233.762738 268.667614 
L 233.810015 268.667614 
L 233.810015 268.143366 
L 238.54735 268.143366 
L 238.54735 267.619119 
L 239.743878 267.619119 
L 239.743878 267.094871 
L 242.394811 267.094871 
L 242.394811 266.570623 
L 250.319342 266.570623 
L 250.319342 266.046375 
L 259.017029 266.046375 
L 259.017029 265.522128 
L 265.122844 265.522128 
L 265.122844 264.99788 
L 267.8587 264.99788 
L 267.8587 264.473632 
L 272.221145 264.473632 
L 272.221145 263.949385 
L 277.390172 263.949385 
L 277.390172 263.425137 
L 333.168 263.425137 
" style="fill:none;stroke:#ff00ff;stroke-linecap:square;stroke-width:1.5;"/>
   </g>
   <g id="line2d_49">
    <defs>
     <path d="M -0 8.485281 
L 5.091169 0 
L 0 -8.485281 
L -5.091169 -0 
z
" id="m351ec13854" style="stroke:#ff00ff;stroke-linejoin:miter;stroke-width:1.5;"/>
    </defs>
    <g>
     <use style="fill:none;stroke:#ff00ff;stroke-linejoin:miter;stroke-width:1.5;" x="242.394811" xlink:href="#m351ec13854" y="266.570623"/>
     <use style="fill:none;stroke:#ff00ff;stroke-linejoin:miter;stroke-width:1.5;" x="277.390172" xlink:href="#m351ec13854" y="263.425137"/>
     <use style="fill:none;stroke:#ff00ff;stroke-linejoin:miter;stroke-width:1.5;" x="277.390172" xlink:href="#m351ec13854" y="263.425137"/>
     <use style="fill:none;stroke:#ff00ff;stroke-linejoin:miter;stroke-width:1.5;" x="333.168" xlink:href="#m351ec13854" y="263.425137"/>
    </g>
   </g>
   <g id="line2d_50">
    <path style="fill:none;stroke:#ff00ff;stroke-linecap:square;stroke-width:1.5;"/>
    <g/>
   </g>
   <g id="line2d_51">
    <path clip-path="url(#paa21576362)" d="M 214.433143 272.861596 
" style="fill:none;stroke:#ff00ff;stroke-linecap:square;stroke-width:1.5;"/>
    <defs>
     <path d="M -12 12 
L 12 -12 
M -12 -12 
L 12 12 
" id="m663a011491" style="stroke:#ff00ff;"/>
    </defs>
    <g clip-path="url(#paa21576362)">
     <use style="fill:#ff00ff;stroke:#ff00ff;" x="214.433143" xlink:href="#m663a011491" y="272.861596"/>
    </g>
   </g>
   <g id="line2d_52">
    <defs>
     <path d="M 0 1.5 
C 0.397805 1.5 0.77937 1.341951 1.06066 1.06066 
C 1.341951 0.77937 1.5 0.397805 1.5 0 
C 1.5 -0.397805 1.341951 -0.77937 1.06066 -1.06066 
C 0.77937 -1.341951 0.397805 -1.5 0 -1.5 
C -0.397805 -1.5 -0.77937 -1.341951 -1.06066 -1.06066 
C -1.341951 -0.77937 -1.5 -0.397805 -1.5 0 
C -1.5 0.397805 -1.341951 0.77937 -1.06066 1.06066 
C -0.77937 1.341951 -0.397805 1.5 0 1.5 
z
" id="m6b0f0c9648" style="stroke:#ff7500;"/>
    </defs>
    <g>
     <use style="fill:#ff7500;stroke:#ff7500;" x="261.309314" xlink:href="#m6b0f0c9648" y="279.152568"/>
     <use style="fill:#ff7500;stroke:#ff7500;" x="261.309314" xlink:href="#m6b0f0c9648" y="279.152568"/>
    </g>
   </g>
   <g id="line2d_53">
    <path d="M 131.19216 294.88 
L 131.19216 294.355752 
L 133.693236 294.355752 
L 133.693236 293.831505 
L 134.561463 293.831505 
L 134.561463 293.307257 
L 134.565942 293.307257 
L 134.565942 292.783009 
L 134.695332 292.783009 
L 134.695332 292.258761 
L 135.016789 292.258761 
L 135.016789 291.734514 
L 135.138509 291.734514 
L 135.138509 291.210266 
L 136.270024 291.210266 
L 136.270024 290.686018 
L 139.02249 290.686018 
L 139.02249 290.161771 
L 141.127463 290.161771 
L 141.127463 289.637523 
L 163.276773 289.637523 
L 163.276773 289.113275 
L 163.359168 289.113275 
L 163.359168 288.589027 
L 163.987513 288.589027 
L 163.987513 288.06478 
L 164.104369 288.06478 
L 164.104369 287.540532 
L 174.111055 287.540532 
L 174.111055 287.016284 
L 190.058392 287.016284 
L 190.058392 286.492036 
L 193.118247 286.492036 
L 193.118247 285.967789 
L 193.561406 285.967789 
L 193.561406 285.443541 
L 195.648822 285.443541 
L 195.648822 284.919293 
L 196.036495 284.919293 
L 196.036495 284.395046 
L 213.511675 284.395046 
L 213.511675 283.870798 
L 216.134135 283.870798 
L 216.134135 283.34655 
L 225.77693 283.34655 
L 225.77693 282.822302 
L 231.705815 282.822302 
L 231.705815 282.298055 
L 240.507828 282.298055 
L 240.507828 281.773807 
L 245.83155 281.773807 
L 245.83155 281.249559 
L 249.589372 281.249559 
L 249.589372 280.725312 
L 249.589383 280.725312 
L 249.589383 280.201064 
L 260.46724 280.201064 
L 260.46724 279.676816 
L 261.309314 279.676816 
L 261.309314 279.152568 
L 333.168 279.152568 
" style="fill:none;stroke:#ff7500;stroke-linecap:square;stroke-width:1.5;"/>
   </g>
   <g id="line2d_54">
    <defs>
     <path d="M 0 -6 
L -1.347084 -1.854102 
L -5.706339 -1.854102 
L -2.179628 0.708204 
L -3.526712 4.854102 
L -0 2.291796 
L 3.526712 4.854102 
L 2.179628 0.708204 
L 5.706339 -1.854102 
L 1.347084 -1.854102 
z
" id="m1faf9ea6ad" style="stroke:#ff7500;stroke-linejoin:bevel;stroke-width:1.5;"/>
    </defs>
    <g>
     <use style="fill:none;stroke:#ff7500;stroke-linejoin:bevel;stroke-width:1.5;" x="190.058392" xlink:href="#m1faf9ea6ad" y="286.492036"/>
     <use style="fill:none;stroke:#ff7500;stroke-linejoin:bevel;stroke-width:1.5;" x="260.46724" xlink:href="#m1faf9ea6ad" y="279.676816"/>
     <use style="fill:none;stroke:#ff7500;stroke-linejoin:bevel;stroke-width:1.5;" x="261.309314" xlink:href="#m1faf9ea6ad" y="279.152568"/>
     <use style="fill:none;stroke:#ff7500;stroke-linejoin:bevel;stroke-width:1.5;" x="261.309314" xlink:href="#m1faf9ea6ad" y="279.152568"/>
     <use style="fill:none;stroke:#ff7500;stroke-linejoin:bevel;stroke-width:1.5;" x="333.168" xlink:href="#m1faf9ea6ad" y="279.152568"/>
    </g>
   </g>
   <g id="line2d_55">
    <path style="fill:none;stroke:#ff7500;stroke-linecap:square;stroke-width:1.5;"/>
    <g/>
   </g>
   <g id="line2d_56">
    <path clip-path="url(#paa21576362)" d="M 242.097255 281.773807 
" style="fill:none;stroke:#ff7500;stroke-linecap:square;stroke-width:1.5;"/>
    <defs>
     <path d="M -12 12 
L 12 -12 
M -12 -12 
L 12 12 
" id="md6a4cb857f" style="stroke:#ff7500;"/>
    </defs>
    <g clip-path="url(#paa21576362)">
     <use style="fill:#ff7500;stroke:#ff7500;" x="242.097255" xlink:href="#md6a4cb857f" y="281.773807"/>
    </g>
   </g>
   <g id="line2d_57">
    <defs>
     <path d="M 0 1.5 
C 0.397805 1.5 0.77937 1.341951 1.06066 1.06066 
C 1.341951 0.77937 1.5 0.397805 1.5 0 
C 1.5 -0.397805 1.341951 -0.77937 1.06066 -1.06066 
C 0.77937 -1.341951 0.397805 -1.5 0 -1.5 
C -0.397805 -1.5 -0.77937 -1.341951 -1.06066 -1.06066 
C -1.341951 -0.77937 -1.5 -0.397805 -1.5 0 
C -1.5 0.397805 -1.341951 0.77937 -1.06066 1.06066 
C -0.77937 1.341951 -0.397805 1.5 0 1.5 
z
" id="mbd47735ef2" style="stroke:#6495ed;"/>
    </defs>
    <g>
     <use style="fill:#6495ed;stroke:#6495ed;" x="274.945185" xlink:href="#mbd47735ef2" y="27.513663"/>
     <use style="fill:#6495ed;stroke:#6495ed;" x="274.945185" xlink:href="#mbd47735ef2" y="27.513663"/>
    </g>
   </g>
   <g id="line2d_58">
    <path d="M 120.849643 294.88 
L 120.849643 294.355752 
L 155.416625 294.355752 
L 155.498976 293.307257 
L 155.620451 293.307257 
L 155.620451 292.783009 
L 155.9075 292.783009 
L 155.9075 292.258761 
L 156.346948 292.258761 
L 156.407383 291.210266 
L 156.557546 291.210266 
L 156.557546 290.686018 
L 156.991821 290.686018 
L 156.991821 290.161771 
L 157.209112 290.161771 
L 157.209112 289.637523 
L 157.923401 289.637523 
L 157.923401 289.113275 
L 158.107679 289.113275 
L 158.107679 288.589027 
L 158.944255 288.589027 
L 158.944255 288.06478 
L 169.305924 288.06478 
L 169.305924 287.540532 
L 169.422437 287.540532 
L 169.422437 287.016284 
L 169.763846 287.016284 
L 169.84513 285.967789 
L 169.894519 285.967789 
L 169.894519 285.443541 
L 170.47139 285.443541 
L 170.571471 284.395046 
L 170.597363 284.395046 
L 170.597363 283.870798 
L 170.764995 283.870798 
L 170.82377 282.822302 
L 170.998364 282.822302 
L 171.094361 281.773807 
L 171.540433 281.773807 
L 171.540433 281.249559 
L 171.711027 281.249559 
L 171.775915 280.201064 
L 181.71331 280.201064 
L 181.71331 279.676816 
L 182.127232 279.676816 
L 182.127232 279.152568 
L 182.250356 279.152568 
L 182.314513 277.579825 
L 182.445981 277.579825 
L 182.540491 276.007082 
L 182.716004 276.007082 
L 182.716004 275.482834 
L 182.863875 275.482834 
L 182.863875 274.958587 
L 182.984797 274.958587 
L 182.984797 274.434339 
L 183.587313 274.434339 
L 183.587313 273.910091 
L 193.036078 273.910091 
L 193.036078 273.385844 
L 193.204311 273.385844 
L 193.204311 272.861596 
L 193.393434 272.861596 
L 193.447276 271.8131 
L 193.508211 271.8131 
L 193.5378 270.240357 
L 193.630012 270.240357 
L 193.711405 268.667614 
L 193.755106 268.667614 
L 193.755106 268.143366 
L 193.889807 268.143366 
L 193.889807 267.619119 
L 194.013454 267.619119 
L 194.023742 266.570623 
L 194.268949 266.570623 
L 194.268949 266.046375 
L 203.904339 266.046375 
L 203.904339 265.522128 
L 204.562127 265.522128 
L 204.66097 263.425137 
L 204.686369 263.425137 
L 204.686369 262.900889 
L 204.934506 262.900889 
L 204.994514 261.328146 
L 205.248248 261.328146 
L 205.290944 260.279651 
L 205.425002 260.279651 
L 205.449008 259.231155 
L 205.598807 259.231155 
L 205.598807 258.706907 
L 207.391171 258.706907 
L 207.391171 258.18266 
L 215.431787 258.18266 
L 215.431787 257.658412 
L 215.670279 257.658412 
L 215.68347 256.609917 
L 215.845883 256.609917 
L 215.928842 255.561421 
L 215.965869 255.561421 
L 216.066081 253.988678 
L 216.089004 253.988678 
L 216.183884 252.940182 
L 216.227723 252.940182 
L 216.335467 251.891687 
L 216.379189 251.891687 
L 216.475348 249.794696 
L 216.588494 249.794696 
L 216.608763 248.746201 
L 216.712119 248.746201 
L 216.712119 248.221953 
L 216.861484 248.221953 
L 216.966971 246.64921 
L 217.020915 246.64921 
L 217.077379 245.600714 
L 217.18408 245.600714 
L 217.18408 245.076467 
L 217.305764 245.076467 
L 217.322008 244.027971 
L 217.439765 244.027971 
L 217.439765 243.503724 
L 217.609669 243.503724 
L 217.712629 241.93098 
L 217.890556 241.93098 
L 217.899339 240.882485 
L 218.040936 240.882485 
L 218.145508 239.309742 
L 218.164991 239.309742 
L 218.164991 238.785494 
L 218.277027 238.785494 
L 218.289323 237.736999 
L 218.544527 237.736999 
L 218.646459 236.164255 
L 218.824745 236.164255 
L 218.916692 234.591512 
L 219.091818 234.591512 
L 219.176907 233.018769 
L 219.212673 233.018769 
L 219.295548 231.970274 
L 219.362226 231.970274 
L 219.362226 231.446026 
L 219.552397 231.446026 
L 219.552397 230.921778 
L 219.710515 230.921778 
L 219.810085 229.873283 
L 219.852775 229.873283 
L 219.852775 229.349035 
L 220.047671 229.349035 
L 220.047671 228.824787 
L 220.180137 228.824787 
L 220.180137 228.30054 
L 220.30411 228.30054 
L 220.403924 227.252044 
L 220.543413 227.252044 
L 220.565865 226.203549 
L 220.682437 226.203549 
L 220.785163 224.630806 
L 220.95054 224.630806 
L 221.012075 223.58231 
L 221.123835 223.58231 
L 221.123835 223.058063 
L 221.277404 223.058063 
L 221.365222 221.485319 
L 221.487093 221.485319 
L 221.487093 220.961072 
L 226.262185 220.961072 
L 226.342 219.912576 
L 226.376697 219.912576 
L 226.41982 218.864081 
L 226.525786 218.864081 
L 226.607182 216.76709 
L 226.645847 216.76709 
L 226.74235 215.194347 
L 226.829291 215.194347 
L 226.845245 213.621604 
L 226.959682 213.621604 
L 227.033068 212.04886 
L 227.074495 212.04886 
L 227.158855 209.95187 
L 227.187053 209.95187 
L 227.251957 208.903374 
L 227.343808 208.903374 
L 227.399475 207.330631 
L 227.498904 207.330631 
L 227.498964 206.282136 
L 227.631112 206.282136 
L 227.632667 205.23364 
L 227.777937 205.23364 
L 227.838248 202.612401 
L 227.936079 202.612401 
L 228.04206 200.515411 
L 228.059515 200.515411 
L 228.158303 198.942667 
L 228.180854 198.942667 
L 228.277278 197.369924 
L 228.292558 197.369924 
L 228.374501 195.272933 
L 228.464549 195.272933 
L 228.537604 193.175943 
L 228.601532 193.175943 
L 228.679786 192.127447 
L 228.744759 192.127447 
L 228.833878 190.554704 
L 228.921427 190.554704 
L 228.991685 188.981961 
L 229.055767 188.981961 
L 229.102651 187.409218 
L 229.185367 187.409218 
L 229.236841 185.836474 
L 229.30926 185.836474 
L 229.41635 184.787979 
L 229.466707 184.787979 
L 229.522062 183.215236 
L 229.618658 183.215236 
L 229.708425 180.593997 
L 229.759784 180.593997 
L 229.859857 179.021254 
L 229.91466 179.021254 
L 230.025239 177.448511 
L 230.059499 177.448511 
L 230.059499 176.924263 
L 230.170821 176.924263 
L 230.279119 175.35152 
L 230.34165 175.35152 
L 230.437605 173.778777 
L 230.458491 173.778777 
L 230.562173 172.206034 
L 230.581497 172.206034 
L 230.636512 170.633291 
L 230.707048 170.633291 
L 230.804621 169.584795 
L 230.856019 169.584795 
L 230.958454 168.5363 
L 230.974105 168.5363 
L 231.020105 166.439309 
L 231.1238 166.439309 
L 231.230949 163.81807 
L 231.301089 163.81807 
L 231.408182 161.721079 
L 231.436505 161.721079 
L 231.513594 160.148336 
L 231.55608 160.148336 
L 231.614378 158.051345 
L 231.698766 158.051345 
L 231.795673 156.478602 
L 231.888659 156.478602 
L 231.99846 154.905859 
L 232.009607 154.905859 
L 232.066266 153.857364 
L 237.094143 153.857364 
L 237.194571 152.28462 
L 237.231534 152.28462 
L 237.231534 151.760373 
L 237.356152 151.760373 
L 237.417058 149.663382 
L 237.50304 149.663382 
L 237.582662 148.614886 
L 237.623371 148.614886 
L 237.704048 146.517896 
L 237.743608 146.517896 
L 237.819248 144.420905 
L 238.07187 144.420905 
L 238.164848 142.848162 
L 238.250738 142.848162 
L 238.320405 141.275418 
L 238.413127 141.275418 
L 238.478948 139.702675 
L 238.559591 139.702675 
L 238.661692 137.081437 
L 238.694942 137.081437 
L 238.708251 136.032941 
L 238.82175 136.032941 
L 238.901218 132.887455 
L 238.93437 132.887455 
L 239.029026 131.838959 
L 239.047078 131.838959 
L 239.13395 129.741969 
L 239.168063 129.741969 
L 239.265671 127.12073 
L 239.304903 127.12073 
L 239.391793 125.547987 
L 239.424213 125.547987 
L 239.529504 123.975244 
L 239.608118 123.975244 
L 239.678205 121.354005 
L 239.759038 121.354005 
L 239.81204 119.781262 
L 239.878016 119.781262 
L 239.979114 117.684271 
L 240.009486 117.684271 
L 240.079311 116.111528 
L 240.156706 116.111528 
L 240.239128 111.917546 
L 240.327397 111.917546 
L 240.426698 108.77206 
L 240.472998 108.77206 
L 240.534712 106.150821 
L 240.589084 106.150821 
L 240.647288 104.578078 
L 240.700822 104.578078 
L 240.75916 101.956839 
L 240.819078 101.956839 
L 240.926355 99.859849 
L 240.933309 99.859849 
L 240.961601 98.287105 
L 241.060656 98.287105 
L 241.141818 95.141619 
L 241.241406 95.141619 
L 241.343797 93.568876 
L 241.376451 93.568876 
L 241.457994 91.471885 
L 241.564736 91.471885 
L 241.674256 89.374894 
L 241.690552 89.374894 
L 241.801628 87.802151 
L 241.805912 87.802151 
L 241.911973 85.70516 
L 241.942326 85.70516 
L 242.020301 84.132417 
L 242.07659 84.132417 
L 242.07659 83.608169 
L 247.118086 83.608169 
L 247.118086 83.083922 
L 247.543951 83.083922 
L 247.543951 82.559674 
L 247.688355 82.559674 
L 247.688355 82.035426 
L 247.9636 82.035426 
L 248.067782 80.986931 
L 248.331432 80.986931 
L 248.331432 80.462683 
L 248.473352 80.462683 
L 248.473352 79.938435 
L 248.807157 79.938435 
L 248.807157 79.414188 
L 248.928407 79.414188 
L 249.017734 78.365692 
L 249.318192 78.365692 
L 249.403965 77.317197 
L 249.533385 77.317197 
L 249.632569 76.268701 
L 249.777024 76.268701 
L 249.777024 75.744454 
L 249.89426 75.744454 
L 249.89426 75.220206 
L 250.645865 75.220206 
L 250.645865 74.695958 
L 250.782321 74.695958 
L 250.782321 74.17171 
L 250.905073 74.17171 
L 250.980264 73.123215 
L 251.094666 73.123215 
L 251.170409 72.074719 
L 251.292428 72.074719 
L 251.292428 71.550472 
L 251.512518 71.550472 
L 251.512518 71.026224 
L 251.626686 71.026224 
L 251.626686 70.501976 
L 255.234719 70.501976 
L 255.264764 68.929233 
L 255.399659 68.929233 
L 255.42006 67.880738 
L 255.537235 67.880738 
L 255.639344 65.783747 
L 255.790939 65.783747 
L 255.822043 64.211004 
L 256.810935 64.211004 
L 256.915815 61.589765 
L 256.96138 61.589765 
L 257.050603 58.444279 
L 257.147614 58.444279 
L 257.216368 57.395783 
L 257.263812 57.395783 
L 257.298469 56.347288 
L 257.667715 56.347288 
L 257.697012 55.298792 
L 259.028519 55.298792 
L 259.081078 54.250297 
L 259.158133 54.250297 
L 259.260599 53.201802 
L 259.285908 53.201802 
L 259.285908 52.677554 
L 259.447387 52.677554 
L 259.539642 50.580563 
L 259.573569 50.580563 
L 259.573569 50.056315 
L 259.689896 50.056315 
L 259.762089 49.00782 
L 259.982777 49.00782 
L 260.061627 47.959324 
L 260.101271 47.959324 
L 260.186122 45.862334 
L 260.277867 45.862334 
L 260.374539 43.241095 
L 262.795919 43.241095 
L 262.795919 42.716847 
L 262.907185 42.716847 
L 262.969252 41.668352 
L 263.738716 41.668352 
L 263.738716 41.144104 
L 264.09263 41.144104 
L 264.181913 40.095609 
L 266.390157 40.095609 
L 266.447755 38.522865 
L 266.508052 38.522865 
L 266.508052 37.998618 
L 267.246414 37.998618 
L 267.246414 37.47437 
L 267.359514 37.47437 
L 267.398253 36.425875 
L 267.594215 36.425875 
L 267.610744 34.853131 
L 268.504927 34.853131 
L 268.504927 34.328884 
L 268.844633 34.328884 
L 268.94645 33.280388 
L 268.974613 33.280388 
L 268.989196 32.231893 
L 270.628866 32.231893 
L 270.628866 31.707645 
L 270.93862 31.707645 
L 270.93862 31.183397 
L 273.587185 31.183397 
L 273.587185 30.65915 
L 273.739838 30.65915 
L 273.818555 28.562159 
L 274.759875 28.562159 
L 274.759875 28.037911 
L 274.945185 28.037911 
L 274.945185 27.513663 
L 333.168 27.513663 
L 333.168 27.513663 
" style="fill:none;stroke:#6495ed;stroke-linecap:square;stroke-width:1.5;"/>
   </g>
   <g id="line2d_59">
    <defs>
     <path d="M -0 6 
L 6 -6 
L -6 -6 
z
" id="m9169e4090c" style="stroke:#6495ed;stroke-linejoin:miter;stroke-width:1.5;"/>
    </defs>
    <g>
     <use style="fill:none;stroke:#6495ed;stroke-linejoin:miter;stroke-width:1.5;" x="194.268949" xlink:href="#m9169e4090c" y="266.046375"/>
     <use style="fill:none;stroke:#6495ed;stroke-linejoin:miter;stroke-width:1.5;" x="231.795673" xlink:href="#m9169e4090c" y="156.478602"/>
     <use style="fill:none;stroke:#6495ed;stroke-linejoin:miter;stroke-width:1.5;" x="274.945185" xlink:href="#m9169e4090c" y="28.037911"/>
     <use style="fill:none;stroke:#6495ed;stroke-linejoin:miter;stroke-width:1.5;" x="274.945185" xlink:href="#m9169e4090c" y="27.513663"/>
     <use style="fill:none;stroke:#6495ed;stroke-linejoin:miter;stroke-width:1.5;" x="333.168" xlink:href="#m9169e4090c" y="27.513663"/>
    </g>
   </g>
   <g id="line2d_60">
    <path style="fill:none;stroke:#6495ed;stroke-linecap:square;stroke-width:1.5;"/>
    <g/>
   </g>
   <g id="line2d_61">
    <path clip-path="url(#paa21576362)" d="M 253.363831 70.501976 
" style="fill:none;stroke:#6495ed;stroke-linecap:square;stroke-width:1.5;"/>
    <defs>
     <path d="M -12 12 
L 12 -12 
M -12 -12 
L 12 12 
" id="mc689df7e62" style="stroke:#6495ed;"/>
    </defs>
    <g clip-path="url(#paa21576362)">
     <use style="fill:#6495ed;stroke:#6495ed;" x="253.363831" xlink:href="#mc689df7e62" y="70.501976"/>
    </g>
   </g>
   <g id="line2d_62">
    <defs>
     <path d="M 0 1.5 
C 0.397805 1.5 0.77937 1.341951 1.06066 1.06066 
C 1.341951 0.77937 1.5 0.397805 1.5 0 
C 1.5 -0.397805 1.341951 -0.77937 1.06066 -1.06066 
C 0.77937 -1.341951 0.397805 -1.5 0 -1.5 
C -0.397805 -1.5 -0.77937 -1.341951 -1.06066 -1.06066 
C -1.341951 -0.77937 -1.5 -0.397805 -1.5 0 
C -1.5 0.397805 -1.341951 0.77937 -1.06066 1.06066 
C -0.77937 1.341951 -0.397805 1.5 0 1.5 
z
" id="md4a07829fd" style="stroke:#ff0000;"/>
    </defs>
    <g>
     <use style="fill:#ff0000;stroke:#ff0000;" x="257.33925" xlink:href="#md4a07829fd" y="268.667614"/>
     <use style="fill:#ff0000;stroke:#ff0000;" x="257.33925" xlink:href="#md4a07829fd" y="268.667614"/>
    </g>
   </g>
   <g id="line2d_63">
    <path d="M 130.525419 294.88 
L 130.525419 294.355752 
L 132.063463 294.355752 
L 132.063463 293.831505 
L 135.540952 293.831505 
L 135.540952 293.307257 
L 135.671632 293.307257 
L 135.671632 292.783009 
L 136.527657 292.783009 
L 136.527657 292.258761 
L 137.573942 292.258761 
L 137.573942 291.734514 
L 138.147011 291.734514 
L 138.147011 291.210266 
L 138.560176 291.210266 
L 138.560176 290.686018 
L 162.256827 290.686018 
L 162.256827 290.161771 
L 162.678205 290.161771 
L 162.678205 289.637523 
L 162.68693 289.637523 
L 162.68693 289.113275 
L 162.935449 289.113275 
L 162.935449 288.589027 
L 163.162618 288.589027 
L 163.162618 288.06478 
L 163.211755 288.06478 
L 163.211755 287.540532 
L 163.308769 287.540532 
L 163.308769 287.016284 
L 163.328106 287.016284 
L 163.328106 286.492036 
L 163.494512 286.492036 
L 163.494512 285.967789 
L 163.784971 285.967789 
L 163.784971 285.443541 
L 163.917016 285.443541 
L 163.917016 284.919293 
L 164.767673 284.919293 
L 164.767673 284.395046 
L 164.840929 284.395046 
L 164.840929 283.870798 
L 165.155067 283.870798 
L 165.155067 283.34655 
L 175.785329 283.34655 
L 175.785329 282.822302 
L 177.332861 282.822302 
L 177.332861 282.298055 
L 177.36074 282.298055 
L 177.36074 281.773807 
L 177.380414 281.773807 
L 177.380414 281.249559 
L 177.653878 281.249559 
L 177.653878 280.725312 
L 177.714384 280.725312 
L 177.714384 280.201064 
L 177.800765 280.201064 
L 177.800765 279.676816 
L 177.882751 279.676816 
L 177.882751 279.152568 
L 178.0477 279.152568 
L 178.0477 278.628321 
L 178.648398 278.628321 
L 178.648398 278.104073 
L 178.731936 278.104073 
L 178.731936 277.579825 
L 178.959508 277.579825 
L 178.959508 277.055578 
L 179.012897 277.055578 
L 179.012897 276.53133 
L 187.975587 276.53133 
L 187.975587 276.007082 
L 188.460406 276.007082 
L 188.460406 275.482834 
L 188.485896 275.482834 
L 188.485896 274.958587 
L 189.369628 274.958587 
L 189.369628 274.434339 
L 189.452907 274.434339 
L 189.452907 273.910091 
L 189.479537 273.910091 
L 189.479537 273.385844 
L 189.637548 273.385844 
L 189.637548 272.861596 
L 190.233865 272.861596 
L 190.233865 272.337348 
L 190.286825 272.337348 
L 190.286825 271.8131 
L 200.852712 271.8131 
L 200.852712 271.288853 
L 201.458995 271.288853 
L 201.458995 270.764605 
L 214.777735 270.764605 
L 214.777735 270.240357 
L 248.935395 270.240357 
L 248.935395 269.716109 
L 254.420737 269.716109 
L 254.420737 269.191862 
L 257.33925 269.191862 
L 257.33925 268.667614 
L 333.168 268.667614 
" style="fill:none;stroke:#ff0000;stroke-linecap:square;stroke-width:1.5;"/>
   </g>
   <g id="line2d_64">
    <defs>
     <path d="M 0 -6 
L -5.196152 -3 
L -5.196152 3 
L -0 6 
L 5.196152 3 
L 5.196152 -3 
z
" id="m33826c7163" style="stroke:#ff0000;stroke-linejoin:miter;stroke-width:1.5;"/>
    </defs>
    <g>
     <use style="fill:none;stroke:#ff0000;stroke-linejoin:miter;stroke-width:1.5;" x="165.155067" xlink:href="#m33826c7163" y="283.870798"/>
     <use style="fill:none;stroke:#ff0000;stroke-linejoin:miter;stroke-width:1.5;" x="214.777735" xlink:href="#m33826c7163" y="270.240357"/>
     <use style="fill:none;stroke:#ff0000;stroke-linejoin:miter;stroke-width:1.5;" x="257.33925" xlink:href="#m33826c7163" y="268.667614"/>
     <use style="fill:none;stroke:#ff0000;stroke-linejoin:miter;stroke-width:1.5;" x="257.33925" xlink:href="#m33826c7163" y="268.667614"/>
     <use style="fill:none;stroke:#ff0000;stroke-linejoin:miter;stroke-width:1.5;" x="333.168" xlink:href="#m33826c7163" y="268.667614"/>
    </g>
   </g>
   <g id="line2d_65">
    <path style="fill:none;stroke:#ff0000;stroke-linecap:square;stroke-width:1.5;"/>
    <g/>
   </g>
   <g id="line2d_66">
    <path clip-path="url(#paa21576362)" d="M 254.025153 269.716109 
" style="fill:none;stroke:#ff0000;stroke-linecap:square;stroke-width:1.5;"/>
    <defs>
     <path d="M -12 12 
L 12 -12 
M -12 -12 
L 12 12 
" id="m655ea273da" style="stroke:#ff0000;"/>
    </defs>
    <g clip-path="url(#paa21576362)">
     <use style="fill:#ff0000;stroke:#ff0000;" x="254.025153" xlink:href="#m655ea273da" y="269.716109"/>
    </g>
   </g>
   <g id="line2d_67">
    <defs>
     <path d="M 0 1.5 
C 0.397805 1.5 0.77937 1.341951 1.06066 1.06066 
C 1.341951 0.77937 1.5 0.397805 1.5 0 
C 1.5 -0.397805 1.341951 -0.77937 1.06066 -1.06066 
C 0.77937 -1.341951 0.397805 -1.5 0 -1.5 
C -0.397805 -1.5 -0.77937 -1.341951 -1.06066 -1.06066 
C -1.341951 -0.77937 -1.5 -0.397805 -1.5 0 
C -1.5 0.397805 -1.341951 0.77937 -1.06066 1.06066 
C -0.77937 1.341951 -0.397805 1.5 0 1.5 
z
" id="m66bf75ccd6" style="stroke:#9acd32;"/>
    </defs>
    <g>
     <use style="fill:#9acd32;stroke:#9acd32;" x="300.090676" xlink:href="#m66bf75ccd6" y="263.425137"/>
     <use style="fill:#9acd32;stroke:#9acd32;" x="300.090676" xlink:href="#m66bf75ccd6" y="263.425137"/>
    </g>
   </g>
   <g id="line2d_68">
    <path d="M 121.551317 294.88 
L 121.551317 294.355752 
L 123.36232 294.355752 
L 123.36232 293.831505 
L 123.422375 293.831505 
L 123.422375 293.307257 
L 124.331421 293.307257 
L 124.331421 292.783009 
L 125.538962 292.783009 
L 125.538962 292.258761 
L 126.294465 292.258761 
L 126.294465 291.734514 
L 126.730912 291.734514 
L 126.730912 291.210266 
L 127.551708 291.210266 
L 127.551708 290.686018 
L 129.456079 290.686018 
L 129.456079 290.161771 
L 131.844497 290.161771 
L 131.844497 289.637523 
L 156.790197 289.637523 
L 156.790197 289.113275 
L 156.902909 289.113275 
L 156.902909 288.589027 
L 157.180298 288.589027 
L 157.180298 288.06478 
L 157.369107 288.06478 
L 157.369107 287.540532 
L 157.545281 287.540532 
L 157.545281 287.016284 
L 159.369454 287.016284 
L 159.369454 286.492036 
L 159.558827 286.492036 
L 159.558827 285.967789 
L 159.759586 285.967789 
L 159.759586 285.443541 
L 160.102582 285.443541 
L 160.102582 284.919293 
L 161.205828 284.919293 
L 161.205828 284.395046 
L 165.787029 284.395046 
L 165.787029 283.870798 
L 171.746591 283.870798 
L 171.746591 283.34655 
L 172.809743 283.34655 
L 172.809743 282.822302 
L 172.922149 282.822302 
L 172.922149 282.298055 
L 173.129108 282.298055 
L 173.129108 281.773807 
L 173.133383 281.773807 
L 173.133383 281.249559 
L 173.733607 281.249559 
L 173.733607 280.725312 
L 173.801815 280.725312 
L 173.801815 280.201064 
L 175.30275 280.201064 
L 175.30275 279.676816 
L 175.458622 279.676816 
L 175.458622 279.152568 
L 175.980829 279.152568 
L 175.980829 278.628321 
L 176.367644 278.628321 
L 176.367644 278.104073 
L 176.602532 278.104073 
L 176.602532 277.579825 
L 177.311642 277.579825 
L 177.311642 277.055578 
L 187.427964 277.055578 
L 187.427964 276.53133 
L 187.466175 276.53133 
L 187.466175 276.007082 
L 188.571622 276.007082 
L 188.571622 275.482834 
L 190.264398 275.482834 
L 190.264398 274.958587 
L 190.667094 274.958587 
L 190.667094 274.434339 
L 194.285607 274.434339 
L 194.285607 273.910091 
L 200.438312 273.910091 
L 200.438312 273.385844 
L 202.23868 273.385844 
L 202.23868 272.861596 
L 205.214265 272.861596 
L 205.214265 272.337348 
L 215.064972 272.337348 
L 215.064972 271.8131 
L 215.976635 271.8131 
L 215.976635 271.288853 
L 226.339851 271.288853 
L 226.339851 270.764605 
L 238.425092 270.764605 
L 238.425092 270.240357 
L 245.484071 270.240357 
L 245.484071 269.716109 
L 255.67244 269.716109 
L 255.67244 269.191862 
L 255.798946 269.191862 
L 255.798946 268.667614 
L 259.844814 268.667614 
L 259.844814 268.143366 
L 261.906381 268.143366 
L 261.906381 267.619119 
L 261.912121 267.619119 
L 261.912121 267.094871 
L 262.187596 267.094871 
L 262.187596 266.570623 
L 280.183473 266.570623 
L 280.183473 266.046375 
L 291.024699 266.046375 
L 291.024699 265.522128 
L 292.914801 265.522128 
L 292.914801 264.99788 
L 296.129655 264.99788 
L 296.129655 264.473632 
L 296.166236 264.473632 
L 296.166236 263.949385 
L 300.090676 263.949385 
L 300.090676 263.425137 
L 333.168 263.425137 
" style="fill:none;stroke:#9acd32;stroke-linecap:square;stroke-width:1.5;"/>
   </g>
   <g id="line2d_69">
    <defs>
     <path d="M 0 -6 
L -6 6 
L 6 6 
z
" id="meb59e78e35" style="stroke:#9acd32;stroke-linejoin:miter;stroke-width:1.5;"/>
    </defs>
    <g>
     <use style="fill:none;stroke:#9acd32;stroke-linejoin:miter;stroke-width:1.5;" x="177.311642" xlink:href="#meb59e78e35" y="277.579825"/>
     <use style="fill:none;stroke:#9acd32;stroke-linejoin:miter;stroke-width:1.5;" x="226.339851" xlink:href="#meb59e78e35" y="271.288853"/>
     <use style="fill:none;stroke:#9acd32;stroke-linejoin:miter;stroke-width:1.5;" x="280.183473" xlink:href="#meb59e78e35" y="266.570623"/>
     <use style="fill:none;stroke:#9acd32;stroke-linejoin:miter;stroke-width:1.5;" x="300.090676" xlink:href="#meb59e78e35" y="263.425137"/>
     <use style="fill:none;stroke:#9acd32;stroke-linejoin:miter;stroke-width:1.5;" x="333.168" xlink:href="#meb59e78e35" y="263.425137"/>
    </g>
   </g>
   <g id="line2d_70">
    <path style="fill:none;stroke:#9acd32;stroke-linecap:square;stroke-width:1.5;"/>
    <g/>
   </g>
   <g id="line2d_71">
    <path clip-path="url(#paa21576362)" d="M 254.023929 269.716109 
" style="fill:none;stroke:#9acd32;stroke-linecap:square;stroke-width:1.5;"/>
    <defs>
     <path d="M -12 12 
L 12 -12 
M -12 -12 
L 12 12 
" id="m491633c162" style="stroke:#9acd32;"/>
    </defs>
    <g clip-path="url(#paa21576362)">
     <use style="fill:#9acd32;stroke:#9acd32;" x="254.023929" xlink:href="#m491633c162" y="269.716109"/>
    </g>
   </g>
   <g id="line2d_72">
    <path d="M 333.168 279.152568 
L 363.64328 289.532673 
" style="fill:none;stroke:#ff7500;stroke-linecap:square;stroke-width:1.5;"/>
    <g>
     <use style="fill:none;stroke:#ff7500;stroke-linejoin:bevel;stroke-width:1.5;" x="333.168" xlink:href="#m1faf9ea6ad" y="279.152568"/>
     <use style="fill:none;stroke:#ff7500;stroke-linejoin:bevel;stroke-width:1.5;" x="363.64328" xlink:href="#m1faf9ea6ad" y="289.532673"/>
    </g>
   </g>
   <g id="line2d_73">
    <path d="M 333.168 268.667614 
L 363.64328 246.754059 
" style="fill:none;stroke:#ff0000;stroke-linecap:square;stroke-width:1.5;"/>
    <g>
     <use style="fill:none;stroke:#ff0000;stroke-linejoin:miter;stroke-width:1.5;" x="333.168" xlink:href="#m33826c7163" y="268.667614"/>
     <use style="fill:none;stroke:#ff0000;stroke-linejoin:miter;stroke-width:1.5;" x="363.64328" xlink:href="#m33826c7163" y="246.754059"/>
    </g>
   </g>
   <g id="line2d_74">
    <path d="M 333.168 263.425137 
L 363.64328 203.975446 
" style="fill:none;stroke:#9acd32;stroke-linecap:square;stroke-width:1.5;"/>
    <g>
     <use style="fill:none;stroke:#9acd32;stroke-linejoin:miter;stroke-width:1.5;" x="333.168" xlink:href="#meb59e78e35" y="263.425137"/>
     <use style="fill:none;stroke:#9acd32;stroke-linejoin:miter;stroke-width:1.5;" x="363.64328" xlink:href="#meb59e78e35" y="203.975446"/>
    </g>
   </g>
   <g id="line2d_75">
    <path d="M 333.168 263.425137 
L 363.64328 161.196832 
" style="fill:none;stroke:#ff00ff;stroke-linecap:square;stroke-width:1.5;"/>
    <g>
     <use style="fill:none;stroke:#ff00ff;stroke-linejoin:miter;stroke-width:1.5;" x="333.168" xlink:href="#m351ec13854" y="263.425137"/>
     <use style="fill:none;stroke:#ff00ff;stroke-linejoin:miter;stroke-width:1.5;" x="363.64328" xlink:href="#m351ec13854" y="161.196832"/>
    </g>
   </g>
   <g id="line2d_76">
    <path d="M 333.168 252.940182 
L 363.64328 118.418218 
" style="fill:none;stroke:#000080;stroke-linecap:square;stroke-width:1.5;"/>
    <g>
     <use style="fill:none;stroke:#000080;stroke-width:1.5;" x="333.168" xlink:href="#maafa584fda" y="252.940182"/>
     <use style="fill:none;stroke:#000080;stroke-width:1.5;" x="363.64328" xlink:href="#maafa584fda" y="118.418218"/>
    </g>
   </g>
   <g id="line2d_77">
    <path d="M 333.168 27.513663 
L 363.64328 75.639604 
" style="fill:none;stroke:#6495ed;stroke-linecap:square;stroke-width:1.5;"/>
    <g>
     <use style="fill:none;stroke:#6495ed;stroke-linejoin:miter;stroke-width:1.5;" x="333.168" xlink:href="#m9169e4090c" y="27.513663"/>
     <use style="fill:none;stroke:#6495ed;stroke-linejoin:miter;stroke-width:1.5;" x="363.64328" xlink:href="#m9169e4090c" y="75.639604"/>
    </g>
   </g>
   <g id="line2d_78">
    <path d="M 333.168 294.88 
L 333.168 27.513663 
" style="fill:none;stroke:#000000;stroke-linecap:square;stroke-width:1.5;"/>
   </g>
   <g id="patch_3">
    <path d="M 56.12 294.88 
L 56.12 24.84 
" style="fill:none;stroke:#000000;stroke-linecap:square;stroke-linejoin:miter;stroke-width:0.8;"/>
   </g>
   <g id="patch_4">
    <path d="M 333.168 294.88 
L 333.168 24.84 
" style="fill:none;stroke:#000000;stroke-linecap:square;stroke-linejoin:miter;stroke-width:0.8;"/>
   </g>
   <g id="patch_5">
    <path d="M 56.12 294.88 
L 333.168 294.88 
" style="fill:none;stroke:#000000;stroke-linecap:square;stroke-linejoin:miter;stroke-width:0.8;"/>
   </g>
   <g id="patch_6">
    <path d="M 56.12 24.84 
L 333.168 24.84 
" style="fill:none;stroke:#000000;stroke-linecap:square;stroke-linejoin:miter;stroke-width:0.8;"/>
   </g>
   <g id="text_13">
    <!-- CMAES posi -->
    <defs>
     <path d="M 64.40625 67.28125 
L 64.40625 56.890625 
Q 59.421875 61.53125 53.78125 63.8125 
Q 48.140625 66.109375 41.796875 66.109375 
Q 29.296875 66.109375 22.65625 58.46875 
Q 16.015625 50.828125 16.015625 36.375 
Q 16.015625 21.96875 22.65625 14.328125 
Q 29.296875 6.6875 41.796875 6.6875 
Q 48.140625 6.6875 53.78125 8.984375 
Q 59.421875 11.28125 64.40625 15.921875 
L 64.40625 5.609375 
Q 59.234375 2.09375 53.4375 0.328125 
Q 47.65625 -1.421875 41.21875 -1.421875 
Q 24.65625 -1.421875 15.125 8.703125 
Q 5.609375 18.84375 5.609375 36.375 
Q 5.609375 53.953125 15.125 64.078125 
Q 24.65625 74.21875 41.21875 74.21875 
Q 47.75 74.21875 53.53125 72.484375 
Q 59.328125 70.75 64.40625 67.28125 
z
" id="DejaVuSans-43"/>
     <path d="M 9.8125 72.90625 
L 24.515625 72.90625 
L 43.109375 23.296875 
L 61.8125 72.90625 
L 76.515625 72.90625 
L 76.515625 0 
L 66.890625 0 
L 66.890625 64.015625 
L 48.09375 14.015625 
L 38.1875 14.015625 
L 19.390625 64.015625 
L 19.390625 0 
L 9.8125 0 
z
" id="DejaVuSans-4d"/>
     <path d="M 34.1875 63.1875 
L 20.796875 26.90625 
L 47.609375 26.90625 
z
M 28.609375 72.90625 
L 39.796875 72.90625 
L 67.578125 0 
L 57.328125 0 
L 50.6875 18.703125 
L 17.828125 18.703125 
L 11.1875 0 
L 0.78125 0 
z
" id="DejaVuSans-41"/>
     <path d="M 9.8125 72.90625 
L 55.90625 72.90625 
L 55.90625 64.59375 
L 19.671875 64.59375 
L 19.671875 43.015625 
L 54.390625 43.015625 
L 54.390625 34.71875 
L 19.671875 34.71875 
L 19.671875 8.296875 
L 56.78125 8.296875 
L 56.78125 0 
L 9.8125 0 
z
" id="DejaVuSans-45"/>
     <path d="M 53.515625 70.515625 
L 53.515625 60.890625 
Q 47.90625 63.578125 42.921875 64.890625 
Q 37.9375 66.21875 33.296875 66.21875 
Q 25.25 66.21875 20.875 63.09375 
Q 16.5 59.96875 16.5 54.203125 
Q 16.5 49.359375 19.40625 46.890625 
Q 22.3125 44.4375 30.421875 42.921875 
L 36.375 41.703125 
Q 47.40625 39.59375 52.65625 34.296875 
Q 57.90625 29 57.90625 20.125 
Q 57.90625 9.515625 50.796875 4.046875 
Q 43.703125 -1.421875 29.984375 -1.421875 
Q 24.8125 -1.421875 18.96875 -0.25 
Q 13.140625 0.921875 6.890625 3.21875 
L 6.890625 13.375 
Q 12.890625 10.015625 18.65625 8.296875 
Q 24.421875 6.59375 29.984375 6.59375 
Q 38.421875 6.59375 43.015625 9.90625 
Q 47.609375 13.234375 47.609375 19.390625 
Q 47.609375 24.75 44.3125 27.78125 
Q 41.015625 30.8125 33.5 32.328125 
L 27.484375 33.5 
Q 16.453125 35.6875 11.515625 40.375 
Q 6.59375 45.0625 6.59375 53.421875 
Q 6.59375 63.09375 13.40625 68.65625 
Q 20.21875 74.21875 32.171875 74.21875 
Q 37.3125 74.21875 42.625 73.28125 
Q 47.953125 72.359375 53.515625 70.515625 
z
" id="DejaVuSans-53"/>
    </defs>
    <g transform="translate(369.18424 294.223611)scale(0.17 -0.17)">
     <use xlink:href="#DejaVuSans-43"/>
     <use x="69.824219" xlink:href="#DejaVuSans-4d"/>
     <use x="156.103516" xlink:href="#DejaVuSans-41"/>
     <use x="224.511719" xlink:href="#DejaVuSans-45"/>
     <use x="287.695312" xlink:href="#DejaVuSans-53"/>
     <use x="351.171875" xlink:href="#DejaVuSans-20"/>
     <use x="382.958984" xlink:href="#DejaVuSans-70"/>
     <use x="446.435547" xlink:href="#DejaVuSans-6f"/>
     <use x="507.617188" xlink:href="#DejaVuSans-73"/>
     <use x="559.716797" xlink:href="#DejaVuSans-69"/>
    </g>
   </g>
   <g id="text_14">
    <!-- CMA-CSA At -->
    <g transform="translate(369.18424 251.444997)scale(0.17 -0.17)">
     <use xlink:href="#DejaVuSans-43"/>
     <use x="69.824219" xlink:href="#DejaVuSans-4d"/>
     <use x="156.103516" xlink:href="#DejaVuSans-41"/>
     <use x="224.480469" xlink:href="#DejaVuSans-2d"/>
     <use x="260.564453" xlink:href="#DejaVuSans-43"/>
     <use x="330.388672" xlink:href="#DejaVuSans-53"/>
     <use x="393.880859" xlink:href="#DejaVuSans-41"/>
     <use x="462.289062" xlink:href="#DejaVuSans-20"/>
     <use x="494.076172" xlink:href="#DejaVuSans-41"/>
     <use x="562.46875" xlink:href="#DejaVuSans-74"/>
    </g>
   </g>
   <g id="text_15">
    <!-- CMA-TPA At -->
    <defs>
     <path d="M -0.296875 72.90625 
L 61.375 72.90625 
L 61.375 64.59375 
L 35.5 64.59375 
L 35.5 0 
L 25.59375 0 
L 25.59375 64.59375 
L -0.296875 64.59375 
z
" id="DejaVuSans-54"/>
     <path d="M 19.671875 64.796875 
L 19.671875 37.40625 
L 32.078125 37.40625 
Q 38.96875 37.40625 42.71875 40.96875 
Q 46.484375 44.53125 46.484375 51.125 
Q 46.484375 57.671875 42.71875 61.234375 
Q 38.96875 64.796875 32.078125 64.796875 
z
M 9.8125 72.90625 
L 32.078125 72.90625 
Q 44.34375 72.90625 50.609375 67.359375 
Q 56.890625 61.8125 56.890625 51.125 
Q 56.890625 40.328125 50.609375 34.8125 
Q 44.34375 29.296875 32.078125 29.296875 
L 19.671875 29.296875 
L 19.671875 0 
L 9.8125 0 
z
" id="DejaVuSans-50"/>
    </defs>
    <g transform="translate(369.18424 208.666383)scale(0.17 -0.17)">
     <use xlink:href="#DejaVuSans-43"/>
     <use x="69.824219" xlink:href="#DejaVuSans-4d"/>
     <use x="156.103516" xlink:href="#DejaVuSans-41"/>
     <use x="224.480469" xlink:href="#DejaVuSans-2d"/>
     <use x="260.423828" xlink:href="#DejaVuSans-54"/>
     <use x="321.507812" xlink:href="#DejaVuSans-50"/>
     <use x="381.716797" xlink:href="#DejaVuSans-41"/>
     <use x="450.125" xlink:href="#DejaVuSans-20"/>
     <use x="481.912109" xlink:href="#DejaVuSans-41"/>
     <use x="550.304688" xlink:href="#DejaVuSans-74"/>
    </g>
   </g>
   <g id="text_16">
    <!-- CMA ES CSA -->
    <g transform="translate(369.18424 165.887769)scale(0.17 -0.17)">
     <use xlink:href="#DejaVuSans-43"/>
     <use x="69.824219" xlink:href="#DejaVuSans-4d"/>
     <use x="156.103516" xlink:href="#DejaVuSans-41"/>
     <use x="224.511719" xlink:href="#DejaVuSans-20"/>
     <use x="256.298828" xlink:href="#DejaVuSans-45"/>
     <use x="319.482422" xlink:href="#DejaVuSans-53"/>
     <use x="382.958984" xlink:href="#DejaVuSans-20"/>
     <use x="414.746094" xlink:href="#DejaVuSans-43"/>
     <use x="484.570312" xlink:href="#DejaVuSans-53"/>
     <use x="548.0625" xlink:href="#DejaVuSans-41"/>
    </g>
   </g>
   <g id="text_17">
    <!-- CMA ES PPM -->
    <g transform="translate(369.18424 123.109155)scale(0.17 -0.17)">
     <use xlink:href="#DejaVuSans-43"/>
     <use x="69.824219" xlink:href="#DejaVuSans-4d"/>
     <use x="156.103516" xlink:href="#DejaVuSans-41"/>
     <use x="224.511719" xlink:href="#DejaVuSans-20"/>
     <use x="256.298828" xlink:href="#DejaVuSans-45"/>
     <use x="319.482422" xlink:href="#DejaVuSans-53"/>
     <use x="382.958984" xlink:href="#DejaVuSans-20"/>
     <use x="414.746094" xlink:href="#DejaVuSans-50"/>
     <use x="475.048828" xlink:href="#DejaVuSans-50"/>
     <use x="535.351562" xlink:href="#DejaVuSans-4d"/>
    </g>
   </g>
   <g id="text_18">
    <!-- CMA-MSR At -->
    <defs>
     <path d="M 44.390625 34.1875 
Q 47.5625 33.109375 50.5625 29.59375 
Q 53.5625 26.078125 56.59375 19.921875 
L 66.609375 0 
L 56 0 
L 46.6875 18.703125 
Q 43.0625 26.03125 39.671875 28.421875 
Q 36.28125 30.8125 30.421875 30.8125 
L 19.671875 30.8125 
L 19.671875 0 
L 9.8125 0 
L 9.8125 72.90625 
L 32.078125 72.90625 
Q 44.578125 72.90625 50.734375 67.671875 
Q 56.890625 62.453125 56.890625 51.90625 
Q 56.890625 45.015625 53.6875 40.46875 
Q 50.484375 35.9375 44.390625 34.1875 
z
M 19.671875 64.796875 
L 19.671875 38.921875 
L 32.078125 38.921875 
Q 39.203125 38.921875 42.84375 42.21875 
Q 46.484375 45.515625 46.484375 51.90625 
Q 46.484375 58.296875 42.84375 61.546875 
Q 39.203125 64.796875 32.078125 64.796875 
z
" id="DejaVuSans-52"/>
    </defs>
    <g transform="translate(369.18424 80.330541)scale(0.17 -0.17)">
     <use xlink:href="#DejaVuSans-43"/>
     <use x="69.824219" xlink:href="#DejaVuSans-4d"/>
     <use x="156.103516" xlink:href="#DejaVuSans-41"/>
     <use x="224.480469" xlink:href="#DejaVuSans-2d"/>
     <use x="260.564453" xlink:href="#DejaVuSans-4d"/>
     <use x="346.84375" xlink:href="#DejaVuSans-53"/>
     <use x="410.320312" xlink:href="#DejaVuSans-52"/>
     <use x="479.802734" xlink:href="#DejaVuSans-20"/>
     <use x="511.589844" xlink:href="#DejaVuSans-41"/>
     <use x="579.982422" xlink:href="#DejaVuSans-74"/>
    </g>
   </g>
   <g id="text_19">
    <!-- best 2009 -->
    <defs>
     <path d="M 48.6875 27.296875 
Q 48.6875 37.203125 44.609375 42.84375 
Q 40.53125 48.484375 33.40625 48.484375 
Q 26.265625 48.484375 22.1875 42.84375 
Q 18.109375 37.203125 18.109375 27.296875 
Q 18.109375 17.390625 22.1875 11.75 
Q 26.265625 6.109375 33.40625 6.109375 
Q 40.53125 6.109375 44.609375 11.75 
Q 48.6875 17.390625 48.6875 27.296875 
z
M 18.109375 46.390625 
Q 20.953125 51.265625 25.265625 53.625 
Q 29.59375 56 35.59375 56 
Q 45.5625 56 51.78125 48.09375 
Q 58.015625 40.1875 58.015625 27.296875 
Q 58.015625 14.40625 51.78125 6.484375 
Q 45.5625 -1.421875 35.59375 -1.421875 
Q 29.59375 -1.421875 25.265625 0.953125 
Q 20.953125 3.328125 18.109375 8.203125 
L 18.109375 0 
L 9.078125 0 
L 9.078125 75.984375 
L 18.109375 75.984375 
z
" id="DejaVuSans-62"/>
     <path d="M 10.984375 1.515625 
L 10.984375 10.5 
Q 14.703125 8.734375 18.5 7.8125 
Q 22.3125 6.890625 25.984375 6.890625 
Q 35.75 6.890625 40.890625 13.453125 
Q 46.046875 20.015625 46.78125 33.40625 
Q 43.953125 29.203125 39.59375 26.953125 
Q 35.25 24.703125 29.984375 24.703125 
Q 19.046875 24.703125 12.671875 31.3125 
Q 6.296875 37.9375 6.296875 49.421875 
Q 6.296875 60.640625 12.9375 67.421875 
Q 19.578125 74.21875 30.609375 74.21875 
Q 43.265625 74.21875 49.921875 64.515625 
Q 56.59375 54.828125 56.59375 36.375 
Q 56.59375 19.140625 48.40625 8.859375 
Q 40.234375 -1.421875 26.421875 -1.421875 
Q 22.703125 -1.421875 18.890625 -0.6875 
Q 15.09375 0.046875 10.984375 1.515625 
z
M 30.609375 32.421875 
Q 37.25 32.421875 41.125 36.953125 
Q 45.015625 41.5 45.015625 49.421875 
Q 45.015625 57.28125 41.125 61.84375 
Q 37.25 66.40625 30.609375 66.40625 
Q 23.96875 66.40625 20.09375 61.84375 
Q 16.21875 57.28125 16.21875 49.421875 
Q 16.21875 41.5 20.09375 36.953125 
Q 23.96875 32.421875 30.609375 32.421875 
z
" id="DejaVuSans-39"/>
    </defs>
    <g transform="translate(369.18424 37.551928)scale(0.17 -0.17)">
     <use xlink:href="#DejaVuSans-62"/>
     <use x="63.476562" xlink:href="#DejaVuSans-65"/>
     <use x="125" xlink:href="#DejaVuSans-73"/>
     <use x="177.099609" xlink:href="#DejaVuSans-74"/>
     <use x="216.308594" xlink:href="#DejaVuSans-20"/>
     <use x="248.095703" xlink:href="#DejaVuSans-32"/>
     <use x="311.71875" xlink:href="#DejaVuSans-30"/>
     <use x="375.341797" xlink:href="#DejaVuSans-30"/>
     <use x="438.964844" xlink:href="#DejaVuSans-39"/>
    </g>
   </g>
   <g id="text_20">
    <!-- bbob f3, 40-D -->
    <defs>
     <path d="M 40.578125 39.3125 
Q 47.65625 37.796875 51.625 33 
Q 55.609375 28.21875 55.609375 21.1875 
Q 55.609375 10.40625 48.1875 4.484375 
Q 40.765625 -1.421875 27.09375 -1.421875 
Q 22.515625 -1.421875 17.65625 -0.515625 
Q 12.796875 0.390625 7.625 2.203125 
L 7.625 11.71875 
Q 11.71875 9.328125 16.59375 8.109375 
Q 21.484375 6.890625 26.8125 6.890625 
Q 36.078125 6.890625 40.9375 10.546875 
Q 45.796875 14.203125 45.796875 21.1875 
Q 45.796875 27.640625 41.28125 31.265625 
Q 36.765625 34.90625 28.71875 34.90625 
L 20.21875 34.90625 
L 20.21875 43.015625 
L 29.109375 43.015625 
Q 36.375 43.015625 40.234375 45.921875 
Q 44.09375 48.828125 44.09375 54.296875 
Q 44.09375 59.90625 40.109375 62.90625 
Q 36.140625 65.921875 28.71875 65.921875 
Q 24.65625 65.921875 20.015625 65.03125 
Q 15.375 64.15625 9.8125 62.3125 
L 9.8125 71.09375 
Q 15.4375 72.65625 20.34375 73.4375 
Q 25.25 74.21875 29.59375 74.21875 
Q 40.828125 74.21875 47.359375 69.109375 
Q 53.90625 64.015625 53.90625 55.328125 
Q 53.90625 49.265625 50.4375 45.09375 
Q 46.96875 40.921875 40.578125 39.3125 
z
" id="DejaVuSans-33"/>
     <path d="M 19.671875 64.796875 
L 19.671875 8.109375 
L 31.59375 8.109375 
Q 46.6875 8.109375 53.6875 14.9375 
Q 60.6875 21.78125 60.6875 36.53125 
Q 60.6875 51.171875 53.6875 57.984375 
Q 46.6875 64.796875 31.59375 64.796875 
z
M 9.8125 72.90625 
L 30.078125 72.90625 
Q 51.265625 72.90625 61.171875 64.09375 
Q 71.09375 55.28125 71.09375 36.53125 
Q 71.09375 17.671875 61.125 8.828125 
Q 51.171875 0 30.078125 0 
L 9.8125 0 
z
" id="DejaVuSans-44"/>
    </defs>
    <g transform="translate(58.89048 35.290806)scale(0.102 -0.102)">
     <use xlink:href="#DejaVuSans-62"/>
     <use x="63.476562" xlink:href="#DejaVuSans-62"/>
     <use x="126.953125" xlink:href="#DejaVuSans-6f"/>
     <use x="188.134766" xlink:href="#DejaVuSans-62"/>
     <use x="251.611328" xlink:href="#DejaVuSans-20"/>
     <use x="283.398438" xlink:href="#DejaVuSans-66"/>
     <use x="318.603516" xlink:href="#DejaVuSans-33"/>
     <use x="382.226562" xlink:href="#DejaVuSans-2c"/>
     <use x="414.013672" xlink:href="#DejaVuSans-20"/>
     <use x="445.800781" xlink:href="#DejaVuSans-34"/>
     <use x="509.423828" xlink:href="#DejaVuSans-30"/>
     <use x="573.046875" xlink:href="#DejaVuSans-2d"/>
     <use x="609.130859" xlink:href="#DejaVuSans-44"/>
    </g>
    <!-- 51 targets: 100..1e-08 -->
    <defs>
     <path d="M 10.796875 72.90625 
L 49.515625 72.90625 
L 49.515625 64.59375 
L 19.828125 64.59375 
L 19.828125 46.734375 
Q 21.96875 47.46875 24.109375 47.828125 
Q 26.265625 48.1875 28.421875 48.1875 
Q 40.625 48.1875 47.75 41.5 
Q 54.890625 34.8125 54.890625 23.390625 
Q 54.890625 11.625 47.5625 5.09375 
Q 40.234375 -1.421875 26.90625 -1.421875 
Q 22.3125 -1.421875 17.546875 -0.640625 
Q 12.796875 0.140625 7.71875 1.703125 
L 7.71875 11.625 
Q 12.109375 9.234375 16.796875 8.0625 
Q 21.484375 6.890625 26.703125 6.890625 
Q 35.15625 6.890625 40.078125 11.328125 
Q 45.015625 15.765625 45.015625 23.390625 
Q 45.015625 31 40.078125 35.4375 
Q 35.15625 39.890625 26.703125 39.890625 
Q 22.75 39.890625 18.8125 39.015625 
Q 14.890625 38.140625 10.796875 36.28125 
z
" id="DejaVuSans-35"/>
     <path d="M 11.71875 12.40625 
L 22.015625 12.40625 
L 22.015625 0 
L 11.71875 0 
z
M 11.71875 51.703125 
L 22.015625 51.703125 
L 22.015625 39.3125 
L 11.71875 39.3125 
z
" id="DejaVuSans-3a"/>
    </defs>
    <g transform="translate(58.89048 46.712575)scale(0.102 -0.102)">
     <use xlink:href="#DejaVuSans-35"/>
     <use x="63.623047" xlink:href="#DejaVuSans-31"/>
     <use x="127.246094" xlink:href="#DejaVuSans-20"/>
     <use x="159.033203" xlink:href="#DejaVuSans-74"/>
     <use x="198.242188" xlink:href="#DejaVuSans-61"/>
     <use x="259.521484" xlink:href="#DejaVuSans-72"/>
     <use x="300.619141" xlink:href="#DejaVuSans-67"/>
     <use x="364.095703" xlink:href="#DejaVuSans-65"/>
     <use x="425.619141" xlink:href="#DejaVuSans-74"/>
     <use x="464.828125" xlink:href="#DejaVuSans-73"/>
     <use x="516.927734" xlink:href="#DejaVuSans-3a"/>
     <use x="550.619141" xlink:href="#DejaVuSans-20"/>
     <use x="582.40625" xlink:href="#DejaVuSans-31"/>
     <use x="646.029297" xlink:href="#DejaVuSans-30"/>
     <use x="709.652344" xlink:href="#DejaVuSans-30"/>
     <use x="773.275391" xlink:href="#DejaVuSans-2e"/>
     <use x="805.0625" xlink:href="#DejaVuSans-2e"/>
     <use x="836.849609" xlink:href="#DejaVuSans-31"/>
     <use x="900.472656" xlink:href="#DejaVuSans-65"/>
     <use x="961.996094" xlink:href="#DejaVuSans-2d"/>
     <use x="998.080078" xlink:href="#DejaVuSans-30"/>
     <use x="1061.703125" xlink:href="#DejaVuSans-38"/>
    </g>
    <!-- 15 instances -->
    <g transform="translate(58.89048 58.134344)scale(0.102 -0.102)">
     <use xlink:href="#DejaVuSans-31"/>
     <use x="63.623047" xlink:href="#DejaVuSans-35"/>
     <use x="127.246094" xlink:href="#DejaVuSans-20"/>
     <use x="159.033203" xlink:href="#DejaVuSans-69"/>
     <use x="186.816406" xlink:href="#DejaVuSans-6e"/>
     <use x="250.195312" xlink:href="#DejaVuSans-73"/>
     <use x="302.294922" xlink:href="#DejaVuSans-74"/>
     <use x="341.503906" xlink:href="#DejaVuSans-61"/>
     <use x="402.783203" xlink:href="#DejaVuSans-6e"/>
     <use x="466.162109" xlink:href="#DejaVuSans-63"/>
     <use x="521.142578" xlink:href="#DejaVuSans-65"/>
     <use x="582.666016" xlink:href="#DejaVuSans-73"/>
    </g>
   </g>
   <g id="text_21">
    <!-- v0.0.0 -->
    <g style="fill:#808080;" transform="translate(178.96275 290.099912)scale(0.1 -0.1)">
     <use xlink:href="#DejaVuSans-76"/>
     <use x="59.179688" xlink:href="#DejaVuSans-30"/>
     <use x="122.802734" xlink:href="#DejaVuSans-2e"/>
     <use x="154.589844" xlink:href="#DejaVuSans-30"/>
     <use x="218.212891" xlink:href="#DejaVuSans-2e"/>
     <use x="250" xlink:href="#DejaVuSans-30"/>
    </g>
   </g>
   <g id="text_22">
    <!-- 3 Rastrigin separable -->
    <g transform="translate(88.011188 18.84)scale(0.2 -0.2)">
     <use xlink:href="#DejaVuSans-33"/>
     <use x="63.623047" xlink:href="#DejaVuSans-20"/>
     <use x="95.410156" xlink:href="#DejaVuSans-52"/>
     <use x="164.861328" xlink:href="#DejaVuSans-61"/>
     <use x="226.140625" xlink:href="#DejaVuSans-73"/>
     <use x="278.240234" xlink:href="#DejaVuSans-74"/>
     <use x="317.449219" xlink:href="#DejaVuSans-72"/>
     <use x="358.5625" xlink:href="#DejaVuSans-69"/>
     <use x="386.345703" xlink:href="#DejaVuSans-67"/>
     <use x="449.822266" xlink:href="#DejaVuSans-69"/>
     <use x="477.605469" xlink:href="#DejaVuSans-6e"/>
     <use x="540.984375" xlink:href="#DejaVuSans-20"/>
     <use x="572.771484" xlink:href="#DejaVuSans-73"/>
     <use x="624.871094" xlink:href="#DejaVuSans-65"/>
     <use x="686.394531" xlink:href="#DejaVuSans-70"/>
     <use x="749.871094" xlink:href="#DejaVuSans-61"/>
     <use x="811.150391" xlink:href="#DejaVuSans-72"/>
     <use x="852.263672" xlink:href="#DejaVuSans-61"/>
     <use x="913.542969" xlink:href="#DejaVuSans-62"/>
     <use x="977.019531" xlink:href="#DejaVuSans-6c"/>
     <use x="1004.802734" xlink:href="#DejaVuSans-65"/>
    </g>
   </g>
  </g>
 </g>
 <defs>
  <clipPath id="paa21576362">
   <rect height="270.04" width="277.048" x="56.12" y="24.84"/>
  </clipPath>
 </defs>
</svg>
