<?xml version="1.0" encoding="utf-8" standalone="no"?>
<!DOCTYPE svg PUBLIC "-//W3C//DTD SVG 1.1//EN"
  "http://www.w3.org/Graphics/SVG/1.1/DTD/svg11.dtd">
<!-- Created with matplotlib (http://matplotlib.org/) -->
<svg height="345pt" version="1.1" viewBox="0 0 460 345" width="460pt" xmlns="http://www.w3.org/2000/svg" xmlns:xlink="http://www.w3.org/1999/xlink">
 <defs>
  <style type="text/css">
*{stroke-linecap:butt;stroke-linejoin:round;}
  </style>
 </defs>
 <g id="figure_1">
  <g id="patch_1">
   <path d="M 0 345.6 
L 460.8 345.6 
L 460.8 0 
L 0 0 
z
" style="fill:#ffffff;"/>
  </g>
  <g id="axes_1">
   <g id="patch_2">
    <path d="M 56.12 294.88 
L 333.168 294.88 
L 333.168 24.84 
L 56.12 24.84 
z
" style="fill:#ffffff;"/>
   </g>
   <g id="line2d_1">
    <path d="M 99.874198 294.88 
L 99.874198 289.637523 
L 105.169349 289.637523 
L 105.169349 284.395046 
L 105.464018 284.395046 
L 105.464018 279.152568 
L 143.763994 279.152568 
L 143.763994 273.910091 
L 147.349087 273.910091 
L 147.349087 268.667614 
L 151.25176 268.667614 
L 151.25176 263.425137 
L 155.667752 263.425137 
L 155.667752 258.18266 
L 158.125885 258.18266 
L 158.125885 252.940182 
L 158.255046 252.940182 
L 158.255046 247.697705 
L 158.264074 247.697705 
L 158.264074 242.455228 
L 158.282115 242.455228 
L 158.282115 237.212751 
L 158.297886 237.212751 
L 158.297886 231.970274 
L 158.300137 231.970274 
L 158.300137 221.485319 
L 158.302389 221.485319 
L 158.302389 205.757888 
L 158.30464 205.757888 
L 158.30464 200.515411 
L 158.306891 200.515411 
L 158.306891 179.545502 
L 158.311392 179.545502 
L 158.311392 174.303025 
L 158.313642 174.303025 
L 158.313642 169.060547 
L 158.315891 169.060547 
L 158.315891 163.81807 
L 158.32039 163.81807 
L 158.32039 153.333116 
L 158.322638 153.333116 
L 158.322638 142.848162 
L 158.324887 142.848162 
L 158.324887 116.635776 
L 158.327135 116.635776 
L 158.327135 100.908344 
L 158.329383 100.908344 
L 158.329383 90.42339 
L 158.331631 90.42339 
L 158.331631 85.180912 
L 158.333878 85.180912 
L 158.333878 69.453481 
L 158.336125 69.453481 
L 158.336125 58.968526 
L 158.338372 58.968526 
L 158.338372 53.726049 
L 158.340618 53.726049 
L 158.340618 32.756141 
L 158.342864 32.756141 
L 158.342864 27.513663 
L 333.168 27.513663 
" style="fill:none;stroke:#f5deb3;stroke-linecap:square;stroke-width:4;"/>
   </g>
   <g id="line2d_2">
    <defs>
     <path d="M -0 7.778175 
L 7.778175 0 
L 0 -7.778175 
L -7.778175 -0 
z
" id="m5c03628334" style="stroke:#f5deb3;stroke-linejoin:miter;stroke-width:1.5;"/>
    </defs>
    <g>
     <use style="fill:#f5deb3;stroke:#f5deb3;stroke-linejoin:miter;stroke-width:1.5;" x="158.313642" xlink:href="#m5c03628334" y="169.060547"/>
     <use style="fill:#f5deb3;stroke:#f5deb3;stroke-linejoin:miter;stroke-width:1.5;" x="158.338372" xlink:href="#m5c03628334" y="58.968526"/>
     <use style="fill:#f5deb3;stroke:#f5deb3;stroke-linejoin:miter;stroke-width:1.5;" x="158.342864" xlink:href="#m5c03628334" y="27.513663"/>
     <use style="fill:#f5deb3;stroke:#f5deb3;stroke-linejoin:miter;stroke-width:1.5;" x="158.342864" xlink:href="#m5c03628334" y="27.513663"/>
     <use style="fill:#f5deb3;stroke:#f5deb3;stroke-linejoin:miter;stroke-width:1.5;" x="333.168" xlink:href="#m5c03628334" y="27.513663"/>
    </g>
   </g>
   <g id="line2d_3">
    <path style="fill:none;stroke:#f5deb3;stroke-linecap:square;stroke-width:4;"/>
    <g/>
   </g>
   <g id="line2d_4">
    <path d="M 333.168 27.513663 
L 363.64328 32.86099 
" style="fill:none;stroke:#f5deb3;stroke-linecap:square;stroke-width:4;"/>
    <g>
     <use style="fill:#f5deb3;stroke:#f5deb3;stroke-linejoin:miter;stroke-width:1.5;" x="333.168" xlink:href="#m5c03628334" y="27.513663"/>
     <use style="fill:#f5deb3;stroke:#f5deb3;stroke-linejoin:miter;stroke-width:1.5;" x="363.64328" xlink:href="#m5c03628334" y="32.86099"/>
    </g>
   </g>
   <g id="matplotlib.axis_1">
    <g id="xtick_1">
     <g id="line2d_5">
      <path clip-path="url(#p023db8276a)" d="M 56.12 294.88 
L 56.12 24.84 
" style="fill:none;stroke:#b0b0b0;stroke-linecap:square;stroke-width:0.8;"/>
     </g>
     <g id="line2d_6">
      <defs>
       <path d="M 0 0 
L 0 3.5 
" id="m444058f554" style="stroke:#000000;stroke-width:0.8;"/>
      </defs>
      <g>
       <use style="stroke:#000000;stroke-width:0.8;" x="56.12" xlink:href="#m444058f554" y="294.88"/>
      </g>
     </g>
     <g id="text_1">
      <!-- 0 -->
      <defs>
       <path d="M 31.78125 66.40625 
Q 24.171875 66.40625 20.328125 58.90625 
Q 16.5 51.421875 16.5 36.375 
Q 16.5 21.390625 20.328125 13.890625 
Q 24.171875 6.390625 31.78125 6.390625 
Q 39.453125 6.390625 43.28125 13.890625 
Q 47.125 21.390625 47.125 36.375 
Q 47.125 51.421875 43.28125 58.90625 
Q 39.453125 66.40625 31.78125 66.40625 
z
M 31.78125 74.21875 
Q 44.046875 74.21875 50.515625 64.515625 
Q 56.984375 54.828125 56.984375 36.375 
Q 56.984375 17.96875 50.515625 8.265625 
Q 44.046875 -1.421875 31.78125 -1.421875 
Q 19.53125 -1.421875 13.0625 8.265625 
Q 6.59375 17.96875 6.59375 36.375 
Q 6.59375 54.828125 13.0625 64.515625 
Q 19.53125 74.21875 31.78125 74.21875 
z
" id="DejaVuSans-30"/>
      </defs>
      <g transform="translate(49.7575 317.076875)scale(0.2 -0.2)">
       <use xlink:href="#DejaVuSans-30"/>
      </g>
     </g>
    </g>
    <g id="xtick_2">
     <g id="line2d_7">
      <path clip-path="url(#p023db8276a)" d="M 135.276571 294.88 
L 135.276571 24.84 
" style="fill:none;stroke:#b0b0b0;stroke-linecap:square;stroke-width:0.8;"/>
     </g>
     <g id="line2d_8">
      <g>
       <use style="stroke:#000000;stroke-width:0.8;" x="135.276571" xlink:href="#m444058f554" y="294.88"/>
      </g>
     </g>
     <g id="text_2">
      <!-- 2 -->
      <defs>
       <path d="M 19.1875 8.296875 
L 53.609375 8.296875 
L 53.609375 0 
L 7.328125 0 
L 7.328125 8.296875 
Q 12.9375 14.109375 22.625 23.890625 
Q 32.328125 33.6875 34.8125 36.53125 
Q 39.546875 41.84375 41.421875 45.53125 
Q 43.3125 49.21875 43.3125 52.78125 
Q 43.3125 58.59375 39.234375 62.25 
Q 35.15625 65.921875 28.609375 65.921875 
Q 23.96875 65.921875 18.8125 64.3125 
Q 13.671875 62.703125 7.8125 59.421875 
L 7.8125 69.390625 
Q 13.765625 71.78125 18.9375 73 
Q 24.125 74.21875 28.421875 74.21875 
Q 39.75 74.21875 46.484375 68.546875 
Q 53.21875 62.890625 53.21875 53.421875 
Q 53.21875 48.921875 51.53125 44.890625 
Q 49.859375 40.875 45.40625 35.40625 
Q 44.1875 33.984375 37.640625 27.21875 
Q 31.109375 20.453125 19.1875 8.296875 
z
" id="DejaVuSans-32"/>
      </defs>
      <g transform="translate(128.914071 317.076875)scale(0.2 -0.2)">
       <use xlink:href="#DejaVuSans-32"/>
      </g>
     </g>
    </g>
    <g id="xtick_3">
     <g id="line2d_9">
      <path clip-path="url(#p023db8276a)" d="M 214.433143 294.88 
L 214.433143 24.84 
" style="fill:none;stroke:#b0b0b0;stroke-linecap:square;stroke-width:0.8;"/>
     </g>
     <g id="line2d_10">
      <g>
       <use style="stroke:#000000;stroke-width:0.8;" x="214.433143" xlink:href="#m444058f554" y="294.88"/>
      </g>
     </g>
     <g id="text_3">
      <!-- 4 -->
      <defs>
       <path d="M 37.796875 64.3125 
L 12.890625 25.390625 
L 37.796875 25.390625 
z
M 35.203125 72.90625 
L 47.609375 72.90625 
L 47.609375 25.390625 
L 58.015625 25.390625 
L 58.015625 17.1875 
L 47.609375 17.1875 
L 47.609375 0 
L 37.796875 0 
L 37.796875 17.1875 
L 4.890625 17.1875 
L 4.890625 26.703125 
z
" id="DejaVuSans-34"/>
      </defs>
      <g transform="translate(208.070643 317.076875)scale(0.2 -0.2)">
       <use xlink:href="#DejaVuSans-34"/>
      </g>
     </g>
    </g>
    <g id="xtick_4">
     <g id="line2d_11">
      <path clip-path="url(#p023db8276a)" d="M 293.589714 294.88 
L 293.589714 24.84 
" style="fill:none;stroke:#b0b0b0;stroke-linecap:square;stroke-width:0.8;"/>
     </g>
     <g id="line2d_12">
      <g>
       <use style="stroke:#000000;stroke-width:0.8;" x="293.589714" xlink:href="#m444058f554" y="294.88"/>
      </g>
     </g>
     <g id="text_4">
      <!-- 6 -->
      <defs>
       <path d="M 33.015625 40.375 
Q 26.375 40.375 22.484375 35.828125 
Q 18.609375 31.296875 18.609375 23.390625 
Q 18.609375 15.53125 22.484375 10.953125 
Q 26.375 6.390625 33.015625 6.390625 
Q 39.65625 6.390625 43.53125 10.953125 
Q 47.40625 15.53125 47.40625 23.390625 
Q 47.40625 31.296875 43.53125 35.828125 
Q 39.65625 40.375 33.015625 40.375 
z
M 52.59375 71.296875 
L 52.59375 62.3125 
Q 48.875 64.0625 45.09375 64.984375 
Q 41.3125 65.921875 37.59375 65.921875 
Q 27.828125 65.921875 22.671875 59.328125 
Q 17.53125 52.734375 16.796875 39.40625 
Q 19.671875 43.65625 24.015625 45.921875 
Q 28.375 48.1875 33.59375 48.1875 
Q 44.578125 48.1875 50.953125 41.515625 
Q 57.328125 34.859375 57.328125 23.390625 
Q 57.328125 12.15625 50.6875 5.359375 
Q 44.046875 -1.421875 33.015625 -1.421875 
Q 20.359375 -1.421875 13.671875 8.265625 
Q 6.984375 17.96875 6.984375 36.375 
Q 6.984375 53.65625 15.1875 63.9375 
Q 23.390625 74.21875 37.203125 74.21875 
Q 40.921875 74.21875 44.703125 73.484375 
Q 48.484375 72.75 52.59375 71.296875 
z
" id="DejaVuSans-36"/>
      </defs>
      <g transform="translate(287.227214 317.076875)scale(0.2 -0.2)">
       <use xlink:href="#DejaVuSans-36"/>
      </g>
     </g>
    </g>
    <g id="xtick_5">
     <g id="line2d_13">
      <path clip-path="url(#p023db8276a)" d="M 56.12 294.88 
L 56.12 24.84 
" style="fill:none;stroke:#b0b0b0;stroke-linecap:square;stroke-width:0.8;"/>
     </g>
     <g id="line2d_14">
      <defs>
       <path d="M 0 0 
L 0 2 
" id="me65e65ea7b" style="stroke:#000000;stroke-width:0.6;"/>
      </defs>
      <g>
       <use style="stroke:#000000;stroke-width:0.6;" x="56.12" xlink:href="#me65e65ea7b" y="294.88"/>
      </g>
     </g>
    </g>
    <g id="xtick_6">
     <g id="line2d_15">
      <path clip-path="url(#p023db8276a)" d="M 95.698286 294.88 
L 95.698286 24.84 
" style="fill:none;stroke:#b0b0b0;stroke-linecap:square;stroke-width:0.8;"/>
     </g>
     <g id="line2d_16">
      <g>
       <use style="stroke:#000000;stroke-width:0.6;" x="95.698286" xlink:href="#me65e65ea7b" y="294.88"/>
      </g>
     </g>
    </g>
    <g id="xtick_7">
     <g id="line2d_17">
      <path clip-path="url(#p023db8276a)" d="M 135.276571 294.88 
L 135.276571 24.84 
" style="fill:none;stroke:#b0b0b0;stroke-linecap:square;stroke-width:0.8;"/>
     </g>
     <g id="line2d_18">
      <g>
       <use style="stroke:#000000;stroke-width:0.6;" x="135.276571" xlink:href="#me65e65ea7b" y="294.88"/>
      </g>
     </g>
    </g>
    <g id="xtick_8">
     <g id="line2d_19">
      <path clip-path="url(#p023db8276a)" d="M 174.854857 294.88 
L 174.854857 24.84 
" style="fill:none;stroke:#b0b0b0;stroke-linecap:square;stroke-width:0.8;"/>
     </g>
     <g id="line2d_20">
      <g>
       <use style="stroke:#000000;stroke-width:0.6;" x="174.854857" xlink:href="#me65e65ea7b" y="294.88"/>
      </g>
     </g>
    </g>
    <g id="xtick_9">
     <g id="line2d_21">
      <path clip-path="url(#p023db8276a)" d="M 214.433143 294.88 
L 214.433143 24.84 
" style="fill:none;stroke:#b0b0b0;stroke-linecap:square;stroke-width:0.8;"/>
     </g>
     <g id="line2d_22">
      <g>
       <use style="stroke:#000000;stroke-width:0.6;" x="214.433143" xlink:href="#me65e65ea7b" y="294.88"/>
      </g>
     </g>
    </g>
    <g id="xtick_10">
     <g id="line2d_23">
      <path clip-path="url(#p023db8276a)" d="M 254.011429 294.88 
L 254.011429 24.84 
" style="fill:none;stroke:#b0b0b0;stroke-linecap:square;stroke-width:0.8;"/>
     </g>
     <g id="line2d_24">
      <g>
       <use style="stroke:#000000;stroke-width:0.6;" x="254.011429" xlink:href="#me65e65ea7b" y="294.88"/>
      </g>
     </g>
    </g>
    <g id="xtick_11">
     <g id="line2d_25">
      <path clip-path="url(#p023db8276a)" d="M 293.589714 294.88 
L 293.589714 24.84 
" style="fill:none;stroke:#b0b0b0;stroke-linecap:square;stroke-width:0.8;"/>
     </g>
     <g id="line2d_26">
      <g>
       <use style="stroke:#000000;stroke-width:0.6;" x="293.589714" xlink:href="#me65e65ea7b" y="294.88"/>
      </g>
     </g>
    </g>
    <g id="xtick_12">
     <g id="line2d_27">
      <path clip-path="url(#p023db8276a)" d="M 333.168 294.88 
L 333.168 24.84 
" style="fill:none;stroke:#b0b0b0;stroke-linecap:square;stroke-width:0.8;"/>
     </g>
     <g id="line2d_28">
      <g>
       <use style="stroke:#000000;stroke-width:0.6;" x="333.168" xlink:href="#me65e65ea7b" y="294.88"/>
      </g>
     </g>
    </g>
    <g id="text_5">
     <!-- log10(# f-evals / dimension) -->
     <defs>
      <path d="M 9.421875 75.984375 
L 18.40625 75.984375 
L 18.40625 0 
L 9.421875 0 
z
" id="DejaVuSans-6c"/>
      <path d="M 30.609375 48.390625 
Q 23.390625 48.390625 19.1875 42.75 
Q 14.984375 37.109375 14.984375 27.296875 
Q 14.984375 17.484375 19.15625 11.84375 
Q 23.34375 6.203125 30.609375 6.203125 
Q 37.796875 6.203125 41.984375 11.859375 
Q 46.1875 17.53125 46.1875 27.296875 
Q 46.1875 37.015625 41.984375 42.703125 
Q 37.796875 48.390625 30.609375 48.390625 
z
M 30.609375 56 
Q 42.328125 56 49.015625 48.375 
Q 55.71875 40.765625 55.71875 27.296875 
Q 55.71875 13.875 49.015625 6.21875 
Q 42.328125 -1.421875 30.609375 -1.421875 
Q 18.84375 -1.421875 12.171875 6.21875 
Q 5.515625 13.875 5.515625 27.296875 
Q 5.515625 40.765625 12.171875 48.375 
Q 18.84375 56 30.609375 56 
z
" id="DejaVuSans-6f"/>
      <path d="M 45.40625 27.984375 
Q 45.40625 37.75 41.375 43.109375 
Q 37.359375 48.484375 30.078125 48.484375 
Q 22.859375 48.484375 18.828125 43.109375 
Q 14.796875 37.75 14.796875 27.984375 
Q 14.796875 18.265625 18.828125 12.890625 
Q 22.859375 7.515625 30.078125 7.515625 
Q 37.359375 7.515625 41.375 12.890625 
Q 45.40625 18.265625 45.40625 27.984375 
z
M 54.390625 6.78125 
Q 54.390625 -7.171875 48.1875 -13.984375 
Q 42 -20.796875 29.203125 -20.796875 
Q 24.46875 -20.796875 20.265625 -20.09375 
Q 16.0625 -19.390625 12.109375 -17.921875 
L 12.109375 -9.1875 
Q 16.0625 -11.328125 19.921875 -12.34375 
Q 23.78125 -13.375 27.78125 -13.375 
Q 36.625 -13.375 41.015625 -8.765625 
Q 45.40625 -4.15625 45.40625 5.171875 
L 45.40625 9.625 
Q 42.625 4.78125 38.28125 2.390625 
Q 33.9375 0 27.875 0 
Q 17.828125 0 11.671875 7.65625 
Q 5.515625 15.328125 5.515625 27.984375 
Q 5.515625 40.671875 11.671875 48.328125 
Q 17.828125 56 27.875 56 
Q 33.9375 56 38.28125 53.609375 
Q 42.625 51.21875 45.40625 46.390625 
L 45.40625 54.6875 
L 54.390625 54.6875 
z
" id="DejaVuSans-67"/>
      <path d="M 12.40625 8.296875 
L 28.515625 8.296875 
L 28.515625 63.921875 
L 10.984375 60.40625 
L 10.984375 69.390625 
L 28.421875 72.90625 
L 38.28125 72.90625 
L 38.28125 8.296875 
L 54.390625 8.296875 
L 54.390625 0 
L 12.40625 0 
z
" id="DejaVuSans-31"/>
      <path d="M 31 75.875 
Q 24.46875 64.65625 21.28125 53.65625 
Q 18.109375 42.671875 18.109375 31.390625 
Q 18.109375 20.125 21.3125 9.0625 
Q 24.515625 -2 31 -13.1875 
L 23.1875 -13.1875 
Q 15.875 -1.703125 12.234375 9.375 
Q 8.59375 20.453125 8.59375 31.390625 
Q 8.59375 42.28125 12.203125 53.3125 
Q 15.828125 64.359375 23.1875 75.875 
z
" id="DejaVuSans-28"/>
      <path d="M 51.125 44 
L 36.921875 44 
L 32.8125 27.6875 
L 47.125 27.6875 
z
M 43.796875 71.78125 
L 38.71875 51.515625 
L 52.984375 51.515625 
L 58.109375 71.78125 
L 65.921875 71.78125 
L 60.890625 51.515625 
L 76.125 51.515625 
L 76.125 44 
L 58.984375 44 
L 54.984375 27.6875 
L 70.515625 27.6875 
L 70.515625 20.21875 
L 53.078125 20.21875 
L 48 0 
L 40.1875 0 
L 45.21875 20.21875 
L 30.90625 20.21875 
L 25.875 0 
L 18.015625 0 
L 23.09375 20.21875 
L 7.71875 20.21875 
L 7.71875 27.6875 
L 24.90625 27.6875 
L 29 44 
L 13.28125 44 
L 13.28125 51.515625 
L 30.90625 51.515625 
L 35.890625 71.78125 
z
" id="DejaVuSans-23"/>
      <path id="DejaVuSans-20"/>
      <path d="M 37.109375 75.984375 
L 37.109375 68.5 
L 28.515625 68.5 
Q 23.6875 68.5 21.796875 66.546875 
Q 19.921875 64.59375 19.921875 59.515625 
L 19.921875 54.6875 
L 34.71875 54.6875 
L 34.71875 47.703125 
L 19.921875 47.703125 
L 19.921875 0 
L 10.890625 0 
L 10.890625 47.703125 
L 2.296875 47.703125 
L 2.296875 54.6875 
L 10.890625 54.6875 
L 10.890625 58.5 
Q 10.890625 67.625 15.140625 71.796875 
Q 19.390625 75.984375 28.609375 75.984375 
z
" id="DejaVuSans-66"/>
      <path d="M 4.890625 31.390625 
L 31.203125 31.390625 
L 31.203125 23.390625 
L 4.890625 23.390625 
z
" id="DejaVuSans-2d"/>
      <path d="M 56.203125 29.59375 
L 56.203125 25.203125 
L 14.890625 25.203125 
Q 15.484375 15.921875 20.484375 11.0625 
Q 25.484375 6.203125 34.421875 6.203125 
Q 39.59375 6.203125 44.453125 7.46875 
Q 49.3125 8.734375 54.109375 11.28125 
L 54.109375 2.78125 
Q 49.265625 0.734375 44.1875 -0.34375 
Q 39.109375 -1.421875 33.890625 -1.421875 
Q 20.796875 -1.421875 13.15625 6.1875 
Q 5.515625 13.8125 5.515625 26.8125 
Q 5.515625 40.234375 12.765625 48.109375 
Q 20.015625 56 32.328125 56 
Q 43.359375 56 49.78125 48.890625 
Q 56.203125 41.796875 56.203125 29.59375 
z
M 47.21875 32.234375 
Q 47.125 39.59375 43.09375 43.984375 
Q 39.0625 48.390625 32.421875 48.390625 
Q 24.90625 48.390625 20.390625 44.140625 
Q 15.875 39.890625 15.1875 32.171875 
z
" id="DejaVuSans-65"/>
      <path d="M 2.984375 54.6875 
L 12.5 54.6875 
L 29.59375 8.796875 
L 46.6875 54.6875 
L 56.203125 54.6875 
L 35.6875 0 
L 23.484375 0 
z
" id="DejaVuSans-76"/>
      <path d="M 34.28125 27.484375 
Q 23.390625 27.484375 19.1875 25 
Q 14.984375 22.515625 14.984375 16.5 
Q 14.984375 11.71875 18.140625 8.90625 
Q 21.296875 6.109375 26.703125 6.109375 
Q 34.1875 6.109375 38.703125 11.40625 
Q 43.21875 16.703125 43.21875 25.484375 
L 43.21875 27.484375 
z
M 52.203125 31.203125 
L 52.203125 0 
L 43.21875 0 
L 43.21875 8.296875 
Q 40.140625 3.328125 35.546875 0.953125 
Q 30.953125 -1.421875 24.3125 -1.421875 
Q 15.921875 -1.421875 10.953125 3.296875 
Q 6 8.015625 6 15.921875 
Q 6 25.140625 12.171875 29.828125 
Q 18.359375 34.515625 30.609375 34.515625 
L 43.21875 34.515625 
L 43.21875 35.40625 
Q 43.21875 41.609375 39.140625 45 
Q 35.0625 48.390625 27.6875 48.390625 
Q 23 48.390625 18.546875 47.265625 
Q 14.109375 46.140625 10.015625 43.890625 
L 10.015625 52.203125 
Q 14.9375 54.109375 19.578125 55.046875 
Q 24.21875 56 28.609375 56 
Q 40.484375 56 46.34375 49.84375 
Q 52.203125 43.703125 52.203125 31.203125 
z
" id="DejaVuSans-61"/>
      <path d="M 44.28125 53.078125 
L 44.28125 44.578125 
Q 40.484375 46.53125 36.375 47.5 
Q 32.28125 48.484375 27.875 48.484375 
Q 21.1875 48.484375 17.84375 46.4375 
Q 14.5 44.390625 14.5 40.28125 
Q 14.5 37.15625 16.890625 35.375 
Q 19.28125 33.59375 26.515625 31.984375 
L 29.59375 31.296875 
Q 39.15625 29.25 43.1875 25.515625 
Q 47.21875 21.78125 47.21875 15.09375 
Q 47.21875 7.46875 41.1875 3.015625 
Q 35.15625 -1.421875 24.609375 -1.421875 
Q 20.21875 -1.421875 15.453125 -0.5625 
Q 10.6875 0.296875 5.421875 2 
L 5.421875 11.28125 
Q 10.40625 8.6875 15.234375 7.390625 
Q 20.0625 6.109375 24.8125 6.109375 
Q 31.15625 6.109375 34.5625 8.28125 
Q 37.984375 10.453125 37.984375 14.40625 
Q 37.984375 18.0625 35.515625 20.015625 
Q 33.0625 21.96875 24.703125 23.78125 
L 21.578125 24.515625 
Q 13.234375 26.265625 9.515625 29.90625 
Q 5.8125 33.546875 5.8125 39.890625 
Q 5.8125 47.609375 11.28125 51.796875 
Q 16.75 56 26.8125 56 
Q 31.78125 56 36.171875 55.265625 
Q 40.578125 54.546875 44.28125 53.078125 
z
" id="DejaVuSans-73"/>
      <path d="M 25.390625 72.90625 
L 33.6875 72.90625 
L 8.296875 -9.28125 
L 0 -9.28125 
z
" id="DejaVuSans-2f"/>
      <path d="M 45.40625 46.390625 
L 45.40625 75.984375 
L 54.390625 75.984375 
L 54.390625 0 
L 45.40625 0 
L 45.40625 8.203125 
Q 42.578125 3.328125 38.25 0.953125 
Q 33.9375 -1.421875 27.875 -1.421875 
Q 17.96875 -1.421875 11.734375 6.484375 
Q 5.515625 14.40625 5.515625 27.296875 
Q 5.515625 40.1875 11.734375 48.09375 
Q 17.96875 56 27.875 56 
Q 33.9375 56 38.25 53.625 
Q 42.578125 51.265625 45.40625 46.390625 
z
M 14.796875 27.296875 
Q 14.796875 17.390625 18.875 11.75 
Q 22.953125 6.109375 30.078125 6.109375 
Q 37.203125 6.109375 41.296875 11.75 
Q 45.40625 17.390625 45.40625 27.296875 
Q 45.40625 37.203125 41.296875 42.84375 
Q 37.203125 48.484375 30.078125 48.484375 
Q 22.953125 48.484375 18.875 42.84375 
Q 14.796875 37.203125 14.796875 27.296875 
z
" id="DejaVuSans-64"/>
      <path d="M 9.421875 54.6875 
L 18.40625 54.6875 
L 18.40625 0 
L 9.421875 0 
z
M 9.421875 75.984375 
L 18.40625 75.984375 
L 18.40625 64.59375 
L 9.421875 64.59375 
z
" id="DejaVuSans-69"/>
      <path d="M 52 44.1875 
Q 55.375 50.25 60.0625 53.125 
Q 64.75 56 71.09375 56 
Q 79.640625 56 84.28125 50.015625 
Q 88.921875 44.046875 88.921875 33.015625 
L 88.921875 0 
L 79.890625 0 
L 79.890625 32.71875 
Q 79.890625 40.578125 77.09375 44.375 
Q 74.3125 48.1875 68.609375 48.1875 
Q 61.625 48.1875 57.5625 43.546875 
Q 53.515625 38.921875 53.515625 30.90625 
L 53.515625 0 
L 44.484375 0 
L 44.484375 32.71875 
Q 44.484375 40.625 41.703125 44.40625 
Q 38.921875 48.1875 33.109375 48.1875 
Q 26.21875 48.1875 22.15625 43.53125 
Q 18.109375 38.875 18.109375 30.90625 
L 18.109375 0 
L 9.078125 0 
L 9.078125 54.6875 
L 18.109375 54.6875 
L 18.109375 46.1875 
Q 21.1875 51.21875 25.484375 53.609375 
Q 29.78125 56 35.6875 56 
Q 41.65625 56 45.828125 52.96875 
Q 50 49.953125 52 44.1875 
z
" id="DejaVuSans-6d"/>
      <path d="M 54.890625 33.015625 
L 54.890625 0 
L 45.90625 0 
L 45.90625 32.71875 
Q 45.90625 40.484375 42.875 44.328125 
Q 39.84375 48.1875 33.796875 48.1875 
Q 26.515625 48.1875 22.3125 43.546875 
Q 18.109375 38.921875 18.109375 30.90625 
L 18.109375 0 
L 9.078125 0 
L 9.078125 54.6875 
L 18.109375 54.6875 
L 18.109375 46.1875 
Q 21.34375 51.125 25.703125 53.5625 
Q 30.078125 56 35.796875 56 
Q 45.21875 56 50.046875 50.171875 
Q 54.890625 44.34375 54.890625 33.015625 
z
" id="DejaVuSans-6e"/>
      <path d="M 8.015625 75.875 
L 15.828125 75.875 
Q 23.140625 64.359375 26.78125 53.3125 
Q 30.421875 42.28125 30.421875 31.390625 
Q 30.421875 20.453125 26.78125 9.375 
Q 23.140625 -1.703125 15.828125 -13.1875 
L 8.015625 -13.1875 
Q 14.5 -2 17.703125 9.0625 
Q 20.90625 20.125 20.90625 31.390625 
Q 20.90625 42.671875 17.703125 53.65625 
Q 14.5 64.65625 8.015625 75.875 
z
" id="DejaVuSans-29"/>
     </defs>
     <g transform="translate(73.803219 338.153594)scale(0.17 -0.17)">
      <use xlink:href="#DejaVuSans-6c"/>
      <use x="27.783203" xlink:href="#DejaVuSans-6f"/>
      <use x="88.964844" xlink:href="#DejaVuSans-67"/>
      <use x="152.441406" xlink:href="#DejaVuSans-31"/>
      <use x="216.064453" xlink:href="#DejaVuSans-30"/>
      <use x="279.6875" xlink:href="#DejaVuSans-28"/>
      <use x="318.701172" xlink:href="#DejaVuSans-23"/>
      <use x="402.490234" xlink:href="#DejaVuSans-20"/>
      <use x="434.277344" xlink:href="#DejaVuSans-66"/>
      <use x="469.404297" xlink:href="#DejaVuSans-2d"/>
      <use x="505.488281" xlink:href="#DejaVuSans-65"/>
      <use x="567.011719" xlink:href="#DejaVuSans-76"/>
      <use x="626.191406" xlink:href="#DejaVuSans-61"/>
      <use x="687.470703" xlink:href="#DejaVuSans-6c"/>
      <use x="715.253906" xlink:href="#DejaVuSans-73"/>
      <use x="767.353516" xlink:href="#DejaVuSans-20"/>
      <use x="799.140625" xlink:href="#DejaVuSans-2f"/>
      <use x="832.832031" xlink:href="#DejaVuSans-20"/>
      <use x="864.619141" xlink:href="#DejaVuSans-64"/>
      <use x="928.095703" xlink:href="#DejaVuSans-69"/>
      <use x="955.878906" xlink:href="#DejaVuSans-6d"/>
      <use x="1053.291016" xlink:href="#DejaVuSans-65"/>
      <use x="1114.814453" xlink:href="#DejaVuSans-6e"/>
      <use x="1178.193359" xlink:href="#DejaVuSans-73"/>
      <use x="1230.292969" xlink:href="#DejaVuSans-69"/>
      <use x="1258.076172" xlink:href="#DejaVuSans-6f"/>
      <use x="1319.257812" xlink:href="#DejaVuSans-6e"/>
      <use x="1382.636719" xlink:href="#DejaVuSans-29"/>
     </g>
    </g>
   </g>
   <g id="matplotlib.axis_2">
    <g id="ytick_1">
     <g id="line2d_29">
      <path clip-path="url(#p023db8276a)" d="M 56.12 294.88 
L 333.168 294.88 
" style="fill:none;stroke:#b0b0b0;stroke-linecap:square;stroke-width:0.8;"/>
     </g>
     <g id="line2d_30">
      <defs>
       <path d="M 0 0 
L -3.5 0 
" id="m50eab740fd" style="stroke:#000000;stroke-width:0.8;"/>
      </defs>
      <g>
       <use style="stroke:#000000;stroke-width:0.8;" x="56.12" xlink:href="#m50eab740fd" y="294.88"/>
      </g>
     </g>
     <g id="text_6">
      <!-- 0.0 -->
      <defs>
       <path d="M 10.6875 12.40625 
L 21 12.40625 
L 21 0 
L 10.6875 0 
z
" id="DejaVuSans-2e"/>
      </defs>
      <g transform="translate(23.675 300.95875)scale(0.16 -0.16)">
       <use xlink:href="#DejaVuSans-30"/>
       <use x="63.623047" xlink:href="#DejaVuSans-2e"/>
       <use x="95.410156" xlink:href="#DejaVuSans-30"/>
      </g>
     </g>
    </g>
    <g id="ytick_2">
     <g id="line2d_31">
      <path clip-path="url(#p023db8276a)" d="M 56.12 241.406733 
L 333.168 241.406733 
" style="fill:none;stroke:#b0b0b0;stroke-linecap:square;stroke-width:0.8;"/>
     </g>
     <g id="line2d_32">
      <g>
       <use style="stroke:#000000;stroke-width:0.8;" x="56.12" xlink:href="#m50eab740fd" y="241.406733"/>
      </g>
     </g>
     <g id="text_7">
      <!-- 0.2 -->
      <g transform="translate(23.675 247.485483)scale(0.16 -0.16)">
       <use xlink:href="#DejaVuSans-30"/>
       <use x="63.623047" xlink:href="#DejaVuSans-2e"/>
       <use x="95.410156" xlink:href="#DejaVuSans-32"/>
      </g>
     </g>
    </g>
    <g id="ytick_3">
     <g id="line2d_33">
      <path clip-path="url(#p023db8276a)" d="M 56.12 187.933465 
L 333.168 187.933465 
" style="fill:none;stroke:#b0b0b0;stroke-linecap:square;stroke-width:0.8;"/>
     </g>
     <g id="line2d_34">
      <g>
       <use style="stroke:#000000;stroke-width:0.8;" x="56.12" xlink:href="#m50eab740fd" y="187.933465"/>
      </g>
     </g>
     <g id="text_8">
      <!-- 0.4 -->
      <g transform="translate(23.675 194.012215)scale(0.16 -0.16)">
       <use xlink:href="#DejaVuSans-30"/>
       <use x="63.623047" xlink:href="#DejaVuSans-2e"/>
       <use x="95.410156" xlink:href="#DejaVuSans-34"/>
      </g>
     </g>
    </g>
    <g id="ytick_4">
     <g id="line2d_35">
      <path clip-path="url(#p023db8276a)" d="M 56.12 134.460198 
L 333.168 134.460198 
" style="fill:none;stroke:#b0b0b0;stroke-linecap:square;stroke-width:0.8;"/>
     </g>
     <g id="line2d_36">
      <g>
       <use style="stroke:#000000;stroke-width:0.8;" x="56.12" xlink:href="#m50eab740fd" y="134.460198"/>
      </g>
     </g>
     <g id="text_9">
      <!-- 0.6 -->
      <g transform="translate(23.675 140.538948)scale(0.16 -0.16)">
       <use xlink:href="#DejaVuSans-30"/>
       <use x="63.623047" xlink:href="#DejaVuSans-2e"/>
       <use x="95.410156" xlink:href="#DejaVuSans-36"/>
      </g>
     </g>
    </g>
    <g id="ytick_5">
     <g id="line2d_37">
      <path clip-path="url(#p023db8276a)" d="M 56.12 80.986931 
L 333.168 80.986931 
" style="fill:none;stroke:#b0b0b0;stroke-linecap:square;stroke-width:0.8;"/>
     </g>
     <g id="line2d_38">
      <g>
       <use style="stroke:#000000;stroke-width:0.8;" x="56.12" xlink:href="#m50eab740fd" y="80.986931"/>
      </g>
     </g>
     <g id="text_10">
      <!-- 0.8 -->
      <defs>
       <path d="M 31.78125 34.625 
Q 24.75 34.625 20.71875 30.859375 
Q 16.703125 27.09375 16.703125 20.515625 
Q 16.703125 13.921875 20.71875 10.15625 
Q 24.75 6.390625 31.78125 6.390625 
Q 38.8125 6.390625 42.859375 10.171875 
Q 46.921875 13.96875 46.921875 20.515625 
Q 46.921875 27.09375 42.890625 30.859375 
Q 38.875 34.625 31.78125 34.625 
z
M 21.921875 38.8125 
Q 15.578125 40.375 12.03125 44.71875 
Q 8.5 49.078125 8.5 55.328125 
Q 8.5 64.0625 14.71875 69.140625 
Q 20.953125 74.21875 31.78125 74.21875 
Q 42.671875 74.21875 48.875 69.140625 
Q 55.078125 64.0625 55.078125 55.328125 
Q 55.078125 49.078125 51.53125 44.71875 
Q 48 40.375 41.703125 38.8125 
Q 48.828125 37.15625 52.796875 32.3125 
Q 56.78125 27.484375 56.78125 20.515625 
Q 56.78125 9.90625 50.3125 4.234375 
Q 43.84375 -1.421875 31.78125 -1.421875 
Q 19.734375 -1.421875 13.25 4.234375 
Q 6.78125 9.90625 6.78125 20.515625 
Q 6.78125 27.484375 10.78125 32.3125 
Q 14.796875 37.15625 21.921875 38.8125 
z
M 18.3125 54.390625 
Q 18.3125 48.734375 21.84375 45.5625 
Q 25.390625 42.390625 31.78125 42.390625 
Q 38.140625 42.390625 41.71875 45.5625 
Q 45.3125 48.734375 45.3125 54.390625 
Q 45.3125 60.0625 41.71875 63.234375 
Q 38.140625 66.40625 31.78125 66.40625 
Q 25.390625 66.40625 21.84375 63.234375 
Q 18.3125 60.0625 18.3125 54.390625 
z
" id="DejaVuSans-38"/>
      </defs>
      <g transform="translate(23.675 87.065681)scale(0.16 -0.16)">
       <use xlink:href="#DejaVuSans-30"/>
       <use x="63.623047" xlink:href="#DejaVuSans-2e"/>
       <use x="95.410156" xlink:href="#DejaVuSans-38"/>
      </g>
     </g>
    </g>
    <g id="ytick_6">
     <g id="line2d_39">
      <path clip-path="url(#p023db8276a)" d="M 56.12 27.513663 
L 333.168 27.513663 
" style="fill:none;stroke:#b0b0b0;stroke-linecap:square;stroke-width:0.8;"/>
     </g>
     <g id="line2d_40">
      <g>
       <use style="stroke:#000000;stroke-width:0.8;" x="56.12" xlink:href="#m50eab740fd" y="27.513663"/>
      </g>
     </g>
     <g id="text_11">
      <!-- 1.0 -->
      <g transform="translate(23.675 33.592413)scale(0.16 -0.16)">
       <use xlink:href="#DejaVuSans-31"/>
       <use x="63.623047" xlink:href="#DejaVuSans-2e"/>
       <use x="95.410156" xlink:href="#DejaVuSans-30"/>
      </g>
     </g>
    </g>
    <g id="text_12">
     <!-- Fraction of function,target pairs -->
     <defs>
      <path d="M 9.8125 72.90625 
L 51.703125 72.90625 
L 51.703125 64.59375 
L 19.671875 64.59375 
L 19.671875 43.109375 
L 48.578125 43.109375 
L 48.578125 34.8125 
L 19.671875 34.8125 
L 19.671875 0 
L 9.8125 0 
z
" id="DejaVuSans-46"/>
      <path d="M 41.109375 46.296875 
Q 39.59375 47.171875 37.8125 47.578125 
Q 36.03125 48 33.890625 48 
Q 26.265625 48 22.1875 43.046875 
Q 18.109375 38.09375 18.109375 28.8125 
L 18.109375 0 
L 9.078125 0 
L 9.078125 54.6875 
L 18.109375 54.6875 
L 18.109375 46.1875 
Q 20.953125 51.171875 25.484375 53.578125 
Q 30.03125 56 36.53125 56 
Q 37.453125 56 38.578125 55.875 
Q 39.703125 55.765625 41.0625 55.515625 
z
" id="DejaVuSans-72"/>
      <path d="M 48.78125 52.59375 
L 48.78125 44.1875 
Q 44.96875 46.296875 41.140625 47.34375 
Q 37.3125 48.390625 33.40625 48.390625 
Q 24.65625 48.390625 19.8125 42.84375 
Q 14.984375 37.3125 14.984375 27.296875 
Q 14.984375 17.28125 19.8125 11.734375 
Q 24.65625 6.203125 33.40625 6.203125 
Q 37.3125 6.203125 41.140625 7.25 
Q 44.96875 8.296875 48.78125 10.40625 
L 48.78125 2.09375 
Q 45.015625 0.34375 40.984375 -0.53125 
Q 36.96875 -1.421875 32.421875 -1.421875 
Q 20.0625 -1.421875 12.78125 6.34375 
Q 5.515625 14.109375 5.515625 27.296875 
Q 5.515625 40.671875 12.859375 48.328125 
Q 20.21875 56 33.015625 56 
Q 37.15625 56 41.109375 55.140625 
Q 45.0625 54.296875 48.78125 52.59375 
z
" id="DejaVuSans-63"/>
      <path d="M 18.3125 70.21875 
L 18.3125 54.6875 
L 36.8125 54.6875 
L 36.8125 47.703125 
L 18.3125 47.703125 
L 18.3125 18.015625 
Q 18.3125 11.328125 20.140625 9.421875 
Q 21.96875 7.515625 27.59375 7.515625 
L 36.8125 7.515625 
L 36.8125 0 
L 27.59375 0 
Q 17.1875 0 13.234375 3.875 
Q 9.28125 7.765625 9.28125 18.015625 
L 9.28125 47.703125 
L 2.6875 47.703125 
L 2.6875 54.6875 
L 9.28125 54.6875 
L 9.28125 70.21875 
z
" id="DejaVuSans-74"/>
      <path d="M 8.5 21.578125 
L 8.5 54.6875 
L 17.484375 54.6875 
L 17.484375 21.921875 
Q 17.484375 14.15625 20.5 10.265625 
Q 23.53125 6.390625 29.59375 6.390625 
Q 36.859375 6.390625 41.078125 11.03125 
Q 45.3125 15.671875 45.3125 23.6875 
L 45.3125 54.6875 
L 54.296875 54.6875 
L 54.296875 0 
L 45.3125 0 
L 45.3125 8.40625 
Q 42.046875 3.421875 37.71875 1 
Q 33.40625 -1.421875 27.6875 -1.421875 
Q 18.265625 -1.421875 13.375 4.4375 
Q 8.5 10.296875 8.5 21.578125 
z
M 31.109375 56 
z
" id="DejaVuSans-75"/>
      <path d="M 11.71875 12.40625 
L 22.015625 12.40625 
L 22.015625 4 
L 14.015625 -11.625 
L 7.71875 -11.625 
L 11.71875 4 
z
" id="DejaVuSans-2c"/>
      <path d="M 18.109375 8.203125 
L 18.109375 -20.796875 
L 9.078125 -20.796875 
L 9.078125 54.6875 
L 18.109375 54.6875 
L 18.109375 46.390625 
Q 20.953125 51.265625 25.265625 53.625 
Q 29.59375 56 35.59375 56 
Q 45.5625 56 51.78125 48.09375 
Q 58.015625 40.1875 58.015625 27.296875 
Q 58.015625 14.40625 51.78125 6.484375 
Q 45.5625 -1.421875 35.59375 -1.421875 
Q 29.59375 -1.421875 25.265625 0.953125 
Q 20.953125 3.328125 18.109375 8.203125 
z
M 48.6875 27.296875 
Q 48.6875 37.203125 44.609375 42.84375 
Q 40.53125 48.484375 33.40625 48.484375 
Q 26.265625 48.484375 22.1875 42.84375 
Q 18.109375 37.203125 18.109375 27.296875 
Q 18.109375 17.390625 22.1875 11.75 
Q 26.265625 6.109375 33.40625 6.109375 
Q 40.53125 6.109375 44.609375 11.75 
Q 48.6875 17.390625 48.6875 27.296875 
z
" id="DejaVuSans-70"/>
     </defs>
     <g transform="translate(16.139531 294.999375)rotate(-90)scale(0.17 -0.17)">
      <use xlink:href="#DejaVuSans-46"/>
      <use x="57.410156" xlink:href="#DejaVuSans-72"/>
      <use x="98.523438" xlink:href="#DejaVuSans-61"/>
      <use x="159.802734" xlink:href="#DejaVuSans-63"/>
      <use x="214.783203" xlink:href="#DejaVuSans-74"/>
      <use x="253.992188" xlink:href="#DejaVuSans-69"/>
      <use x="281.775391" xlink:href="#DejaVuSans-6f"/>
      <use x="342.957031" xlink:href="#DejaVuSans-6e"/>
      <use x="406.335938" xlink:href="#DejaVuSans-20"/>
      <use x="438.123047" xlink:href="#DejaVuSans-6f"/>
      <use x="499.304688" xlink:href="#DejaVuSans-66"/>
      <use x="534.509766" xlink:href="#DejaVuSans-20"/>
      <use x="566.296875" xlink:href="#DejaVuSans-66"/>
      <use x="601.501953" xlink:href="#DejaVuSans-75"/>
      <use x="664.880859" xlink:href="#DejaVuSans-6e"/>
      <use x="728.259766" xlink:href="#DejaVuSans-63"/>
      <use x="783.240234" xlink:href="#DejaVuSans-74"/>
      <use x="822.449219" xlink:href="#DejaVuSans-69"/>
      <use x="850.232422" xlink:href="#DejaVuSans-6f"/>
      <use x="911.414062" xlink:href="#DejaVuSans-6e"/>
      <use x="974.792969" xlink:href="#DejaVuSans-2c"/>
      <use x="1006.580078" xlink:href="#DejaVuSans-74"/>
      <use x="1045.789062" xlink:href="#DejaVuSans-61"/>
      <use x="1107.068359" xlink:href="#DejaVuSans-72"/>
      <use x="1148.166016" xlink:href="#DejaVuSans-67"/>
      <use x="1211.642578" xlink:href="#DejaVuSans-65"/>
      <use x="1273.166016" xlink:href="#DejaVuSans-74"/>
      <use x="1312.375" xlink:href="#DejaVuSans-20"/>
      <use x="1344.162109" xlink:href="#DejaVuSans-70"/>
      <use x="1407.638672" xlink:href="#DejaVuSans-61"/>
      <use x="1468.917969" xlink:href="#DejaVuSans-69"/>
      <use x="1496.701172" xlink:href="#DejaVuSans-72"/>
      <use x="1537.814453" xlink:href="#DejaVuSans-73"/>
     </g>
    </g>
   </g>
   <g id="line2d_41">
    <defs>
     <path d="M 0 1.5 
C 0.397805 1.5 0.77937 1.341951 1.06066 1.06066 
C 1.341951 0.77937 1.5 0.397805 1.5 0 
C 1.5 -0.397805 1.341951 -0.77937 1.06066 -1.06066 
C 0.77937 -1.341951 0.397805 -1.5 0 -1.5 
C -0.397805 -1.5 -0.77937 -1.341951 -1.06066 -1.06066 
C -1.341951 -0.77937 -1.5 -0.397805 -1.5 0 
C -1.5 0.397805 -1.341951 0.77937 -1.06066 1.06066 
C -0.77937 1.341951 -0.397805 1.5 0 1.5 
z
" id="m2395bea0f6" style="stroke:#f5deb3;"/>
    </defs>
    <g>
     <use style="fill:#f5deb3;stroke:#f5deb3;" x="158.342864" xlink:href="#m2395bea0f6" y="27.513663"/>
     <use style="fill:#f5deb3;stroke:#f5deb3;" x="158.342864" xlink:href="#m2395bea0f6" y="27.513663"/>
    </g>
   </g>
   <g id="line2d_42">
    <defs>
     <path d="M 0 1.5 
C 0.397805 1.5 0.77937 1.341951 1.06066 1.06066 
C 1.341951 0.77937 1.5 0.397805 1.5 0 
C 1.5 -0.397805 1.341951 -0.77937 1.06066 -1.06066 
C 0.77937 -1.341951 0.397805 -1.5 0 -1.5 
C -0.397805 -1.5 -0.77937 -1.341951 -1.06066 -1.06066 
C -1.341951 -0.77937 -1.5 -0.397805 -1.5 0 
C -1.5 0.397805 -1.341951 0.77937 -1.06066 1.06066 
C -0.77937 1.341951 -0.397805 1.5 0 1.5 
z
" id="mdf894890a0" style="stroke:#000080;"/>
    </defs>
    <g>
     <use style="fill:#000080;stroke:#000080;" x="262.710499" xlink:href="#mdf894890a0" y="263.425137"/>
     <use style="fill:#000080;stroke:#000080;" x="262.710499" xlink:href="#mdf894890a0" y="263.425137"/>
    </g>
   </g>
   <g id="line2d_43">
    <path d="M 167.608225 294.88 
L 167.608225 294.355752 
L 168.826927 294.355752 
L 168.826927 293.831505 
L 169.112563 293.831505 
L 169.112563 293.307257 
L 169.30355 293.307257 
L 169.30355 292.783009 
L 169.983178 292.783009 
L 169.983178 292.258761 
L 170.495773 292.258761 
L 170.495773 291.734514 
L 185.072316 291.734514 
L 185.072316 291.210266 
L 185.454588 291.210266 
L 185.454588 290.686018 
L 194.836544 290.686018 
L 194.836544 290.161771 
L 195.439141 290.161771 
L 195.439141 289.637523 
L 200.694323 289.637523 
L 200.694323 289.113275 
L 205.672505 289.113275 
L 205.672505 288.589027 
L 205.693096 288.589027 
L 205.693096 288.06478 
L 207.74336 288.06478 
L 207.74336 287.540532 
L 207.834439 287.540532 
L 207.834439 287.016284 
L 208.144513 287.016284 
L 208.144513 286.492036 
L 209.860089 286.492036 
L 209.860089 285.967789 
L 212.499473 285.967789 
L 212.499473 285.443541 
L 212.514854 285.443541 
L 212.514854 284.919293 
L 212.545576 284.919293 
L 212.545576 284.395046 
L 212.634072 284.395046 
L 212.634072 283.870798 
L 214.141921 283.870798 
L 214.141921 283.34655 
L 215.681352 283.34655 
L 215.681352 282.298055 
L 217.692591 282.298055 
L 217.692591 281.773807 
L 220.53775 281.773807 
L 220.53775 281.249559 
L 220.843504 281.249559 
L 220.843504 280.725312 
L 223.327872 280.725312 
L 223.327872 280.201064 
L 223.362771 280.201064 
L 223.362771 279.676816 
L 223.489084 279.676816 
L 223.489084 279.152568 
L 225.199519 279.152568 
L 225.199519 278.628321 
L 225.313073 278.628321 
L 225.313073 278.104073 
L 226.958625 278.104073 
L 226.958625 277.579825 
L 230.854432 277.579825 
L 230.854432 277.055578 
L 230.88614 277.055578 
L 230.88614 276.53133 
L 231.688282 276.53133 
L 231.688282 276.007082 
L 231.735961 276.007082 
L 231.735961 275.482834 
L 234.065697 275.482834 
L 234.065697 274.958587 
L 234.482822 274.958587 
L 234.482822 274.434339 
L 234.740617 274.434339 
L 234.740617 273.910091 
L 236.453936 273.910091 
L 236.453936 272.861596 
L 236.82551 272.861596 
L 236.82551 272.337348 
L 237.682139 272.337348 
L 237.682139 271.8131 
L 238.822249 271.8131 
L 238.822249 271.288853 
L 240.66654 271.288853 
L 240.66654 270.764605 
L 240.894087 270.764605 
L 240.894087 270.240357 
L 241.156503 270.240357 
L 241.156503 269.716109 
L 243.266561 269.716109 
L 243.266561 269.191862 
L 244.630524 269.191862 
L 244.630524 268.667614 
L 244.923489 268.667614 
L 244.923489 268.143366 
L 244.943965 268.143366 
L 244.943965 267.619119 
L 245.82567 267.619119 
L 245.82567 267.094871 
L 246.875536 267.094871 
L 246.875536 266.570623 
L 247.270837 266.570623 
L 247.270837 266.046375 
L 247.62139 266.046375 
L 247.62139 265.522128 
L 249.583141 265.522128 
L 249.583141 264.99788 
L 250.622481 264.99788 
L 250.622481 264.473632 
L 252.597959 264.473632 
L 252.597959 263.949385 
L 262.710499 263.949385 
L 262.710499 263.425137 
L 333.168 263.425137 
" style="fill:none;stroke:#000080;stroke-linecap:square;stroke-width:1.5;"/>
   </g>
   <g id="line2d_44">
    <defs>
     <path d="M 0 6 
C 1.591219 6 3.117479 5.367802 4.242641 4.242641 
C 5.367802 3.117479 6 1.591219 6 0 
C 6 -1.591219 5.367802 -3.117479 4.242641 -4.242641 
C 3.117479 -5.367802 1.591219 -6 0 -6 
C -1.591219 -6 -3.117479 -5.367802 -4.242641 -4.242641 
C -5.367802 -3.117479 -6 -1.591219 -6 0 
C -6 1.591219 -5.367802 3.117479 -4.242641 4.242641 
C -3.117479 5.367802 -1.591219 6 0 6 
z
" id="m79c80fbac5" style="stroke:#000080;stroke-width:1.5;"/>
    </defs>
    <g>
     <use style="fill:none;stroke:#000080;stroke-width:1.5;" x="214.141921" xlink:href="#m79c80fbac5" y="283.34655"/>
     <use style="fill:none;stroke:#000080;stroke-width:1.5;" x="262.710499" xlink:href="#m79c80fbac5" y="263.949385"/>
     <use style="fill:none;stroke:#000080;stroke-width:1.5;" x="262.710499" xlink:href="#m79c80fbac5" y="263.425137"/>
     <use style="fill:none;stroke:#000080;stroke-width:1.5;" x="333.168" xlink:href="#m79c80fbac5" y="263.425137"/>
    </g>
   </g>
   <g id="line2d_45">
    <path style="fill:none;stroke:#000080;stroke-linecap:square;stroke-width:1.5;"/>
    <g/>
   </g>
   <g id="line2d_46">
    <path clip-path="url(#p023db8276a)" d="M 214.433143 283.34655 
" style="fill:none;stroke:#000080;stroke-linecap:square;stroke-width:1.5;"/>
    <defs>
     <path d="M -12 12 
L 12 -12 
M -12 -12 
L 12 12 
" id="m97fef36496" style="stroke:#000080;"/>
    </defs>
    <g clip-path="url(#p023db8276a)">
     <use style="fill:#000080;stroke:#000080;" x="214.433143" xlink:href="#m97fef36496" y="283.34655"/>
    </g>
   </g>
   <g id="line2d_47">
    <defs>
     <path d="M 0 1.5 
C 0.397805 1.5 0.77937 1.341951 1.06066 1.06066 
C 1.341951 0.77937 1.5 0.397805 1.5 0 
C 1.5 -0.397805 1.341951 -0.77937 1.06066 -1.06066 
C 0.77937 -1.341951 0.397805 -1.5 0 -1.5 
C -0.397805 -1.5 -0.77937 -1.341951 -1.06066 -1.06066 
C -1.341951 -0.77937 -1.5 -0.397805 -1.5 0 
C -1.5 0.397805 -1.341951 0.77937 -1.06066 1.06066 
C -0.77937 1.341951 -0.397805 1.5 0 1.5 
z
" id="mf0be24ef04" style="stroke:#ff00ff;"/>
    </defs>
    <g>
     <use style="fill:#ff00ff;stroke:#ff00ff;" x="278.229817" xlink:href="#mf0be24ef04" y="258.18266"/>
     <use style="fill:#ff00ff;stroke:#ff00ff;" x="278.229817" xlink:href="#mf0be24ef04" y="258.18266"/>
    </g>
   </g>
   <g id="line2d_48">
    <path d="M 142.428336 294.88 
L 142.428336 294.355752 
L 147.186525 294.355752 
L 147.186525 293.831505 
L 148.041732 293.831505 
L 148.107041 292.783009 
L 154.76536 292.783009 
L 154.867386 291.210266 
L 155.315138 291.210266 
L 155.315138 290.686018 
L 155.917848 290.686018 
L 155.917848 290.161771 
L 156.829485 290.161771 
L 156.932191 289.113275 
L 157.296458 289.113275 
L 157.296458 288.589027 
L 157.998037 288.589027 
L 158.046091 287.540532 
L 158.284369 287.540532 
L 158.284369 286.492036 
L 158.407875 286.492036 
L 158.407875 285.967789 
L 158.537164 285.967789 
L 158.537164 285.443541 
L 158.910606 285.443541 
L 158.910606 284.919293 
L 159.122254 284.919293 
L 159.158705 283.870798 
L 159.631913 283.870798 
L 159.631913 283.34655 
L 159.80606 283.34655 
L 159.841091 282.298055 
L 159.988669 282.298055 
L 160.004989 281.249559 
L 160.362152 281.249559 
L 160.417979 280.201064 
L 160.655203 280.201064 
L 160.702258 279.152568 
L 160.770649 279.152568 
L 160.770649 278.628321 
L 161.064545 278.628321 
L 161.064545 278.104073 
L 161.509258 278.104073 
L 161.607985 276.007082 
L 162.208467 276.007082 
L 162.208467 275.482834 
L 162.468366 275.482834 
L 162.468366 274.958587 
L 162.713947 274.958587 
L 162.740052 273.910091 
L 163.436996 273.910091 
L 163.436996 273.385844 
L 163.578357 273.385844 
L 163.578357 272.861596 
L 163.891826 272.861596 
L 163.976188 271.8131 
L 164.68634 271.8131 
L 164.68634 271.288853 
L 165.245494 271.288853 
L 165.245494 270.764605 
L 165.866953 270.764605 
L 165.866953 270.240357 
L 189.803486 270.240357 
L 189.803486 269.716109 
L 190.022156 269.716109 
L 190.022156 269.191862 
L 190.43918 269.191862 
L 190.43918 268.667614 
L 190.571262 268.667614 
L 190.571262 268.143366 
L 190.907569 268.143366 
L 190.907569 267.619119 
L 191.842616 267.619119 
L 191.842616 267.094871 
L 215.237613 267.094871 
L 215.302691 264.473632 
L 218.282695 264.473632 
L 218.282695 263.949385 
L 218.417638 263.949385 
L 218.417638 263.425137 
L 230.034777 263.425137 
L 230.034777 262.900889 
L 233.653119 262.900889 
L 233.653119 262.376641 
L 242.277891 262.376641 
L 242.277891 261.852394 
L 248.509622 261.852394 
L 248.509622 261.328146 
L 257.514963 261.328146 
L 257.514963 260.803898 
L 258.862632 260.803898 
L 258.862632 260.279651 
L 268.094809 260.279651 
L 268.094809 259.755403 
L 275.304599 259.755403 
L 275.304599 259.231155 
L 276.713396 259.231155 
L 276.713396 258.706907 
L 278.229817 258.706907 
L 278.229817 258.18266 
L 333.168 258.18266 
L 333.168 258.18266 
" style="fill:none;stroke:#ff00ff;stroke-linecap:square;stroke-width:1.5;"/>
   </g>
   <g id="line2d_49">
    <defs>
     <path d="M -0 8.485281 
L 5.091169 0 
L 0 -8.485281 
L -5.091169 -0 
z
" id="m4991c04abe" style="stroke:#ff00ff;stroke-linejoin:miter;stroke-width:1.5;"/>
    </defs>
    <g>
     <use style="fill:none;stroke:#ff00ff;stroke-linejoin:miter;stroke-width:1.5;" x="165.866953" xlink:href="#m4991c04abe" y="270.240357"/>
     <use style="fill:none;stroke:#ff00ff;stroke-linejoin:miter;stroke-width:1.5;" x="233.653119" xlink:href="#m4991c04abe" y="262.900889"/>
     <use style="fill:none;stroke:#ff00ff;stroke-linejoin:miter;stroke-width:1.5;" x="278.229817" xlink:href="#m4991c04abe" y="258.706907"/>
     <use style="fill:none;stroke:#ff00ff;stroke-linejoin:miter;stroke-width:1.5;" x="278.229817" xlink:href="#m4991c04abe" y="258.18266"/>
     <use style="fill:none;stroke:#ff00ff;stroke-linejoin:miter;stroke-width:1.5;" x="333.168" xlink:href="#m4991c04abe" y="258.18266"/>
    </g>
   </g>
   <g id="line2d_50">
    <path style="fill:none;stroke:#ff00ff;stroke-linecap:square;stroke-width:1.5;"/>
    <g/>
   </g>
   <g id="line2d_51">
    <path clip-path="url(#p023db8276a)" d="M 214.433143 267.094871 
" style="fill:none;stroke:#ff00ff;stroke-linecap:square;stroke-width:1.5;"/>
    <defs>
     <path d="M -12 12 
L 12 -12 
M -12 -12 
L 12 12 
" id="mc7b6dc4558" style="stroke:#ff00ff;"/>
    </defs>
    <g clip-path="url(#p023db8276a)">
     <use style="fill:#ff00ff;stroke:#ff00ff;" x="214.433143" xlink:href="#mc7b6dc4558" y="267.094871"/>
    </g>
   </g>
   <g id="line2d_52">
    <defs>
     <path d="M 0 1.5 
C 0.397805 1.5 0.77937 1.341951 1.06066 1.06066 
C 1.341951 0.77937 1.5 0.397805 1.5 0 
C 1.5 -0.397805 1.341951 -0.77937 1.06066 -1.06066 
C 0.77937 -1.341951 0.397805 -1.5 0 -1.5 
C -0.397805 -1.5 -0.77937 -1.341951 -1.06066 -1.06066 
C -1.341951 -0.77937 -1.5 -0.397805 -1.5 0 
C -1.5 0.397805 -1.341951 0.77937 -1.06066 1.06066 
C -0.77937 1.341951 -0.397805 1.5 0 1.5 
z
" id="mad19162190" style="stroke:#ff7500;"/>
    </defs>
    <g>
     <use style="fill:#ff7500;stroke:#ff7500;" x="290.676412" xlink:href="#mad19162190" y="263.425137"/>
     <use style="fill:#ff7500;stroke:#ff7500;" x="290.676412" xlink:href="#mad19162190" y="263.425137"/>
    </g>
   </g>
   <g id="line2d_53">
    <path d="M 128.973066 294.88 
L 128.973066 294.355752 
L 129.462107 294.355752 
L 129.462107 293.831505 
L 129.52227 293.831505 
L 129.52227 293.307257 
L 130.728171 293.307257 
L 130.728171 292.783009 
L 131.537454 292.783009 
L 131.537454 292.258761 
L 131.696954 292.258761 
L 131.696954 291.734514 
L 131.865471 291.734514 
L 131.865471 291.210266 
L 132.300126 291.210266 
L 132.300126 290.686018 
L 132.853186 290.686018 
L 132.853186 290.161771 
L 134.485139 290.161771 
L 134.485139 289.637523 
L 134.574897 289.637523 
L 134.574897 289.113275 
L 135.10382 289.113275 
L 135.10382 288.589027 
L 135.173129 288.589027 
L 135.173129 288.06478 
L 135.834638 288.06478 
L 135.834638 287.540532 
L 135.991991 287.540532 
L 135.991991 287.016284 
L 136.082436 287.016284 
L 136.082436 286.492036 
L 137.070377 286.492036 
L 137.070377 285.967789 
L 137.738571 285.967789 
L 137.738571 285.443541 
L 137.84992 285.443541 
L 137.84992 284.919293 
L 138.077782 284.919293 
L 138.077782 284.395046 
L 138.266591 284.395046 
L 138.266591 283.870798 
L 138.33866 283.870798 
L 138.33866 283.34655 
L 138.489031 283.34655 
L 138.489031 282.822302 
L 138.750809 282.822302 
L 138.750809 282.298055 
L 138.778873 282.298055 
L 138.778873 281.773807 
L 139.344294 281.773807 
L 139.344294 281.249559 
L 139.806076 281.249559 
L 139.806076 280.725312 
L 141.010888 280.725312 
L 141.010888 280.201064 
L 144.214377 280.201064 
L 144.214377 279.676816 
L 162.425912 279.676816 
L 162.425912 279.152568 
L 163.351617 279.152568 
L 163.351617 278.628321 
L 163.423631 278.628321 
L 163.423631 278.104073 
L 163.430315 278.104073 
L 163.430315 277.579825 
L 166.178711 277.579825 
L 166.178711 277.055578 
L 173.072478 277.055578 
L 173.072478 276.53133 
L 173.129583 276.53133 
L 173.129583 276.007082 
L 183.552892 276.007082 
L 183.552892 275.482834 
L 187.271759 275.482834 
L 187.271759 274.958587 
L 189.483574 274.958587 
L 189.483574 274.434339 
L 189.880033 274.434339 
L 189.880033 273.910091 
L 192.556595 273.910091 
L 192.556595 273.385844 
L 207.487929 273.385844 
L 207.487929 272.861596 
L 213.006465 272.861596 
L 213.006465 272.337348 
L 213.126877 272.337348 
L 213.126877 271.8131 
L 217.667689 271.8131 
L 217.667689 271.288853 
L 218.174914 271.288853 
L 218.174914 270.764605 
L 219.059181 270.764605 
L 219.059181 270.240357 
L 227.71277 270.240357 
L 227.71277 269.716109 
L 228.519492 269.716109 
L 228.519492 269.191862 
L 236.764226 269.191862 
L 236.764226 268.667614 
L 236.7788 268.667614 
L 236.7788 268.143366 
L 245.020189 268.143366 
L 245.020189 267.619119 
L 245.114806 267.619119 
L 245.114806 267.094871 
L 245.914053 267.094871 
L 245.914053 266.570623 
L 255.535073 266.570623 
L 255.535073 266.046375 
L 260.290045 266.046375 
L 260.290045 265.522128 
L 265.410255 265.522128 
L 265.410255 264.99788 
L 266.490172 264.99788 
L 266.490172 264.473632 
L 275.869576 264.473632 
L 275.869576 263.949385 
L 290.676412 263.949385 
L 290.676412 263.425137 
L 333.168 263.425137 
" style="fill:none;stroke:#ff7500;stroke-linecap:square;stroke-width:1.5;"/>
   </g>
   <g id="line2d_54">
    <defs>
     <path d="M 0 -6 
L -1.347084 -1.854102 
L -5.706339 -1.854102 
L -2.179628 0.708204 
L -3.526712 4.854102 
L -0 2.291796 
L 3.526712 4.854102 
L 2.179628 0.708204 
L 5.706339 -1.854102 
L 1.347084 -1.854102 
z
" id="m4ac24dfd47" style="stroke:#ff7500;stroke-linejoin:bevel;stroke-width:1.5;"/>
    </defs>
    <g>
     <use style="fill:none;stroke:#ff7500;stroke-linejoin:bevel;stroke-width:1.5;" x="192.556595" xlink:href="#m4ac24dfd47" y="273.385844"/>
     <use style="fill:none;stroke:#ff7500;stroke-linejoin:bevel;stroke-width:1.5;" x="266.490172" xlink:href="#m4ac24dfd47" y="264.99788"/>
     <use style="fill:none;stroke:#ff7500;stroke-linejoin:bevel;stroke-width:1.5;" x="290.676412" xlink:href="#m4ac24dfd47" y="263.949385"/>
     <use style="fill:none;stroke:#ff7500;stroke-linejoin:bevel;stroke-width:1.5;" x="290.676412" xlink:href="#m4ac24dfd47" y="263.425137"/>
     <use style="fill:none;stroke:#ff7500;stroke-linejoin:bevel;stroke-width:1.5;" x="333.168" xlink:href="#m4ac24dfd47" y="263.425137"/>
    </g>
   </g>
   <g id="line2d_55">
    <path style="fill:none;stroke:#ff7500;stroke-linecap:square;stroke-width:1.5;"/>
    <g/>
   </g>
   <g id="line2d_56">
    <path clip-path="url(#p023db8276a)" d="M 242.097281 268.143366 
" style="fill:none;stroke:#ff7500;stroke-linecap:square;stroke-width:1.5;"/>
    <defs>
     <path d="M -12 12 
L 12 -12 
M -12 -12 
L 12 12 
" id="m685f81aef7" style="stroke:#ff7500;"/>
    </defs>
    <g clip-path="url(#p023db8276a)">
     <use style="fill:#ff7500;stroke:#ff7500;" x="242.097281" xlink:href="#m685f81aef7" y="268.143366"/>
    </g>
   </g>
   <g id="line2d_57">
    <defs>
     <path d="M 0 1.5 
C 0.397805 1.5 0.77937 1.341951 1.06066 1.06066 
C 1.341951 0.77937 1.5 0.397805 1.5 0 
C 1.5 -0.397805 1.341951 -0.77937 1.06066 -1.06066 
C 0.77937 -1.341951 0.397805 -1.5 0 -1.5 
C -0.397805 -1.5 -0.77937 -1.341951 -1.06066 -1.06066 
C -1.341951 -0.77937 -1.5 -0.397805 -1.5 0 
C -1.5 0.397805 -1.341951 0.77937 -1.06066 1.06066 
C -0.77937 1.341951 -0.397805 1.5 0 1.5 
z
" id="mb8673fbbb0" style="stroke:#6495ed;"/>
    </defs>
    <g>
     <use style="fill:#6495ed;stroke:#6495ed;" x="251.237888" xlink:href="#mb8673fbbb0" y="27.513663"/>
     <use style="fill:#6495ed;stroke:#6495ed;" x="251.237888" xlink:href="#mb8673fbbb0" y="27.513663"/>
    </g>
   </g>
   <g id="line2d_58">
    <path d="M 116.349905 294.88 
L 116.401522 293.831505 
L 116.934349 293.831505 
L 116.934349 293.307257 
L 117.353906 293.307257 
L 117.353906 292.783009 
L 118.140217 292.783009 
L 118.140217 292.258761 
L 118.325541 292.258761 
L 118.325541 291.734514 
L 119.676534 291.734514 
L 119.676534 291.210266 
L 119.846091 291.210266 
L 119.846091 290.686018 
L 119.993093 290.686018 
L 119.993093 290.161771 
L 120.118102 290.161771 
L 120.180267 289.113275 
L 120.589052 289.113275 
L 120.589052 288.589027 
L 121.262426 288.589027 
L 121.262426 288.06478 
L 122.353537 288.06478 
L 122.353537 287.540532 
L 123.769975 287.540532 
L 123.769975 287.016284 
L 123.953634 287.016284 
L 123.953634 286.492036 
L 124.764569 286.492036 
L 124.764569 285.967789 
L 125.371564 285.967789 
L 125.371564 285.443541 
L 125.644646 285.443541 
L 125.644646 284.919293 
L 127.672519 284.919293 
L 127.672519 284.395046 
L 128.39291 284.395046 
L 128.39291 283.870798 
L 136.82081 283.870798 
L 136.82081 283.34655 
L 156.023561 283.34655 
L 156.023561 282.822302 
L 156.939504 282.822302 
L 156.94925 281.773807 
L 157.133372 281.773807 
L 157.133372 281.249559 
L 157.502881 281.249559 
L 157.566442 279.676816 
L 157.63211 279.676816 
L 157.667187 278.628321 
L 157.792872 278.628321 
L 157.792872 278.104073 
L 158.112232 278.104073 
L 158.128159 277.055578 
L 158.997308 277.055578 
L 158.997308 276.53133 
L 159.487531 276.53133 
L 159.487531 276.007082 
L 159.789551 276.007082 
L 159.789551 275.482834 
L 161.097105 275.482834 
L 161.097105 274.958587 
L 171.664528 274.958587 
L 171.664528 274.434339 
L 172.019874 274.434339 
L 172.099758 273.385844 
L 172.274406 273.385844 
L 172.274406 272.861596 
L 172.419593 272.861596 
L 172.419593 272.337348 
L 172.765642 272.337348 
L 172.8518 269.716109 
L 172.950016 269.716109 
L 172.950016 269.191862 
L 174.447863 269.191862 
L 174.447863 268.667614 
L 183.910798 268.667614 
L 183.910798 268.143366 
L 184.043241 268.143366 
L 184.110586 267.094871 
L 184.383285 267.094871 
L 184.383285 266.570623 
L 184.591837 266.570623 
L 184.591837 266.046375 
L 184.869067 266.046375 
L 184.869067 265.522128 
L 185.002928 265.522128 
L 185.002928 264.99788 
L 185.680393 264.99788 
L 185.680393 264.473632 
L 185.800379 264.473632 
L 185.800379 263.949385 
L 186.23891 263.949385 
L 186.23891 263.425137 
L 195.227658 263.425137 
L 195.298442 262.376641 
L 195.41629 262.376641 
L 195.474136 260.279651 
L 195.532304 260.279651 
L 195.532304 259.755403 
L 195.65036 259.755403 
L 195.742899 258.706907 
L 195.816928 258.706907 
L 195.906557 257.134164 
L 196.063917 257.134164 
L 196.063917 256.609917 
L 197.59556 256.609917 
L 197.59556 256.085669 
L 197.992425 256.085669 
L 197.992425 255.561421 
L 205.618912 255.561421 
L 205.618912 255.037173 
L 205.841784 255.037173 
L 205.841784 254.512926 
L 205.974302 254.512926 
L 206.069494 252.940182 
L 206.151783 252.940182 
L 206.151783 252.415935 
L 206.27324 252.415935 
L 206.365833 250.843192 
L 206.412355 250.843192 
L 206.514425 249.794696 
L 206.563671 249.794696 
L 206.650393 248.746201 
L 206.766912 248.746201 
L 206.840323 247.697705 
L 206.94866 247.697705 
L 207.047603 246.64921 
L 207.595726 246.64921 
L 207.595726 246.124962 
L 207.730164 246.124962 
L 207.730164 245.600714 
L 207.985423 245.600714 
L 207.985423 245.076467 
L 208.267731 245.076467 
L 208.316748 244.027971 
L 208.745856 244.027971 
L 208.745856 243.503724 
L 208.872574 243.503724 
L 208.872574 242.979476 
L 209.04605 242.979476 
L 209.068023 241.93098 
L 209.279843 241.93098 
L 209.279843 240.882485 
L 209.643991 240.882485 
L 209.643991 240.358237 
L 209.75537 240.358237 
L 209.852687 239.309742 
L 210.044462 239.309742 
L 210.144463 238.261246 
L 210.269308 238.261246 
L 210.269308 237.736999 
L 210.839867 237.736999 
L 210.839867 237.212751 
L 211.019527 237.212751 
L 211.019527 236.688503 
L 211.224697 236.688503 
L 211.268765 235.640008 
L 211.525335 235.640008 
L 211.525335 235.11576 
L 216.260828 235.11576 
L 216.349618 234.067265 
L 216.422265 234.067265 
L 216.468135 232.494521 
L 216.580077 232.494521 
L 216.690993 229.873283 
L 216.780517 229.873283 
L 216.853834 227.776292 
L 216.995834 227.776292 
L 217.072957 226.203549 
L 217.16162 226.203549 
L 217.16162 225.679301 
L 217.326258 225.679301 
L 217.424534 224.630806 
L 217.459451 224.630806 
L 217.555323 223.058063 
L 217.600629 223.058063 
L 217.600629 222.533815 
L 217.719303 222.533815 
L 217.816352 220.961072 
L 217.873222 220.961072 
L 217.928783 218.864081 
L 218.035257 218.864081 
L 218.145439 217.291338 
L 218.340579 217.291338 
L 218.433171 215.718594 
L 218.483899 215.718594 
L 218.561941 214.670099 
L 218.63741 214.670099 
L 218.696058 213.097356 
L 218.802031 213.097356 
L 218.83486 212.04886 
L 218.924106 212.04886 
L 218.960336 210.476117 
L 219.056817 210.476117 
L 219.117785 208.379126 
L 219.370998 208.379126 
L 219.405591 207.330631 
L 219.543398 207.330631 
L 219.583316 206.282136 
L 219.672824 206.282136 
L 219.743769 204.709392 
L 219.890855 204.709392 
L 219.936778 203.660897 
L 220.033096 203.660897 
L 220.095773 202.088154 
L 220.221059 202.088154 
L 220.269292 200.515411 
L 220.371558 200.515411 
L 220.425861 198.942667 
L 220.550278 198.942667 
L 220.550278 198.41842 
L 220.685454 198.41842 
L 220.7854 196.845677 
L 220.810326 196.845677 
L 220.889964 194.748686 
L 220.994424 194.748686 
L 221.075259 193.175943 
L 221.254418 193.175943 
L 221.306582 192.127447 
L 225.941895 192.127447 
L 226.035224 189.506209 
L 226.058007 189.506209 
L 226.058007 188.981961 
L 226.206213 188.981961 
L 226.312853 186.360722 
L 226.317804 186.360722 
L 226.400768 184.263731 
L 226.450987 184.263731 
L 226.547121 182.690988 
L 226.595687 182.690988 
L 226.657161 180.06975 
L 226.788797 180.06975 
L 226.874942 176.400016 
L 226.913861 176.400016 
L 227.023899 174.827272 
L 227.037775 174.827272 
L 227.145261 172.206034 
L 227.172397 172.206034 
L 227.277093 169.584795 
L 227.305281 169.584795 
L 227.386051 166.439309 
L 227.443558 166.439309 
L 227.537882 163.293823 
L 227.570529 163.293823 
L 227.681148 159.624089 
L 227.693867 159.624089 
L 227.799591 157.00285 
L 227.835253 157.00285 
L 227.938703 153.857364 
L 227.955148 153.857364 
L 228.014217 151.760373 
L 228.087149 151.760373 
L 228.153661 148.090639 
L 228.199905 148.090639 
L 228.252949 147.042143 
L 228.354229 147.042143 
L 228.444611 144.420905 
L 228.477366 144.420905 
L 228.580808 140.751171 
L 228.624902 140.751171 
L 228.730793 137.605684 
L 228.754269 137.605684 
L 228.86334 135.508693 
L 228.872543 135.508693 
L 228.937125 133.411703 
L 228.999034 133.411703 
L 229.108544 128.693473 
L 229.17746 128.693473 
L 229.285263 126.072235 
L 229.294134 126.072235 
L 229.308971 124.499491 
L 229.418938 124.499491 
L 229.526563 121.878253 
L 229.532741 121.878253 
L 229.622441 120.30551 
L 229.669968 120.30551 
L 229.775298 116.635776 
L 229.790112 116.635776 
L 229.863079 113.490289 
L 229.941038 113.490289 
L 230.010348 109.296308 
L 230.077789 109.296308 
L 230.176944 106.150821 
L 230.210784 106.150821 
L 230.318763 103.005335 
L 230.333729 103.005335 
L 230.382254 101.956839 
L 230.466625 101.956839 
L 230.577651 99.335601 
L 230.620266 99.335601 
L 230.726877 98.287105 
L 230.777096 98.287105 
L 230.777096 97.762858 
L 235.82076 97.762858 
L 235.82076 97.23861 
L 235.940178 97.23861 
L 236.048683 95.141619 
L 236.135219 95.141619 
L 236.1668 93.568876 
L 236.27572 93.568876 
L 236.33771 92.520381 
L 236.470279 92.520381 
L 236.516786 90.947637 
L 236.617632 90.947637 
L 236.725739 89.374894 
L 236.759678 89.374894 
L 236.858623 87.802151 
L 236.976509 87.802151 
L 237.009333 86.753656 
L 237.129176 86.753656 
L 237.189038 85.180912 
L 237.257236 85.180912 
L 237.36788 84.132417 
L 237.411731 84.132417 
L 237.490247 82.035426 
L 237.551173 82.035426 
L 237.634339 79.938435 
L 237.76525 79.938435 
L 237.839486 77.841444 
L 237.890716 77.841444 
L 237.985255 76.792949 
L 238.039906 76.792949 
L 238.149144 75.744454 
L 238.156798 75.744454 
L 238.237779 74.17171 
L 238.282302 74.17171 
L 238.385664 72.598967 
L 238.478015 72.598967 
L 238.563413 71.550472 
L 238.619647 71.550472 
L 238.687125 70.501976 
L 238.751625 70.501976 
L 238.791735 69.453481 
L 238.927406 69.453481 
L 239.027649 66.832242 
L 239.1296 66.832242 
L 239.198589 65.259499 
L 239.269085 65.259499 
L 239.321082 64.211004 
L 239.398621 64.211004 
L 239.505638 62.638261 
L 239.572201 62.638261 
L 239.634957 61.065517 
L 239.737421 61.065517 
L 239.77148 60.017022 
L 239.861531 60.017022 
L 239.872764 58.968526 
L 239.98924 58.968526 
L 239.999691 57.920031 
L 240.166758 57.920031 
L 240.262055 56.347288 
L 240.287091 56.347288 
L 240.380814 54.774545 
L 246.285448 54.774545 
L 246.285448 54.250297 
L 246.504322 54.250297 
L 246.58066 52.677554 
L 246.693405 52.677554 
L 246.764037 51.629058 
L 246.854175 51.629058 
L 246.854175 51.104811 
L 247.040938 51.104811 
L 247.068377 50.056315 
L 247.280629 50.056315 
L 247.381306 49.00782 
L 247.445723 49.00782 
L 247.445723 48.483572 
L 247.589602 48.483572 
L 247.589602 47.959324 
L 247.8352 47.959324 
L 247.8352 47.435077 
L 248.016053 47.435077 
L 248.120978 46.386581 
L 248.128168 46.386581 
L 248.224774 45.338086 
L 248.340729 45.338086 
L 248.451442 43.765343 
L 248.590452 43.765343 
L 248.590452 43.241095 
L 248.825818 43.241095 
L 248.825818 42.716847 
L 248.988192 42.716847 
L 248.988192 42.192599 
L 249.116857 42.192599 
L 249.190519 40.619856 
L 249.340142 40.619856 
L 249.441952 39.047113 
L 249.566419 39.047113 
L 249.597379 37.998618 
L 249.706847 37.998618 
L 249.773037 36.950122 
L 249.838678 36.950122 
L 249.923921 34.853131 
L 250.063914 34.853131 
L 250.173694 33.280388 
L 250.280418 33.280388 
L 250.280418 32.756141 
L 250.40057 32.756141 
L 250.511599 31.707645 
L 250.546719 31.707645 
L 250.634713 30.65915 
L 250.769203 30.65915 
L 250.801988 29.086407 
L 250.948793 29.086407 
L 250.948793 28.562159 
L 251.106521 28.562159 
L 251.106521 28.037911 
L 251.237888 28.037911 
L 251.237888 27.513663 
L 333.168 27.513663 
L 333.168 27.513663 
" style="fill:none;stroke:#6495ed;stroke-linecap:square;stroke-width:1.5;"/>
   </g>
   <g id="line2d_59">
    <defs>
     <path d="M -0 6 
L 6 -6 
L -6 -6 
z
" id="m4d7e307e9d" style="stroke:#6495ed;stroke-linejoin:miter;stroke-width:1.5;"/>
    </defs>
    <g>
     <use style="fill:none;stroke:#6495ed;stroke-linejoin:miter;stroke-width:1.5;" x="172.809259" xlink:href="#m4d7e307e9d" y="270.764605"/>
     <use style="fill:none;stroke:#6495ed;stroke-linejoin:miter;stroke-width:1.5;" x="219.543398" xlink:href="#m4d7e307e9d" y="206.806383"/>
     <use style="fill:none;stroke:#6495ed;stroke-linejoin:miter;stroke-width:1.5;" x="251.237888" xlink:href="#m4d7e307e9d" y="28.037911"/>
     <use style="fill:none;stroke:#6495ed;stroke-linejoin:miter;stroke-width:1.5;" x="251.237888" xlink:href="#m4d7e307e9d" y="27.513663"/>
     <use style="fill:none;stroke:#6495ed;stroke-linejoin:miter;stroke-width:1.5;" x="333.168" xlink:href="#m4d7e307e9d" y="27.513663"/>
    </g>
   </g>
   <g id="line2d_60">
    <path style="fill:none;stroke:#6495ed;stroke-linecap:square;stroke-width:1.5;"/>
    <g/>
   </g>
   <g id="line2d_61">
    <defs>
     <path d="M 0 1.5 
C 0.397805 1.5 0.77937 1.341951 1.06066 1.06066 
C 1.341951 0.77937 1.5 0.397805 1.5 0 
C 1.5 -0.397805 1.341951 -0.77937 1.06066 -1.06066 
C 0.77937 -1.341951 0.397805 -1.5 0 -1.5 
C -0.397805 -1.5 -0.77937 -1.341951 -1.06066 -1.06066 
C -1.341951 -0.77937 -1.5 -0.397805 -1.5 0 
C -1.5 0.397805 -1.341951 0.77937 -1.06066 1.06066 
C -0.77937 1.341951 -0.397805 1.5 0 1.5 
z
" id="m94ccadc9ce" style="stroke:#ff0000;"/>
    </defs>
    <g>
     <use style="fill:#ff0000;stroke:#ff0000;" x="307.23788" xlink:href="#m94ccadc9ce" y="252.940182"/>
     <use style="fill:#ff0000;stroke:#ff0000;" x="307.23788" xlink:href="#m94ccadc9ce" y="252.940182"/>
    </g>
   </g>
   <g id="line2d_62">
    <path d="M 128.482468 294.88 
L 128.482468 294.355752 
L 129.08432 294.355752 
L 129.08432 293.831505 
L 129.641969 293.831505 
L 129.71339 292.783009 
L 130.67209 292.783009 
L 130.67209 292.258761 
L 130.817521 292.258761 
L 130.817521 291.734514 
L 131.19216 291.734514 
L 131.235703 290.686018 
L 131.760342 290.686018 
L 131.760342 290.161771 
L 132.310342 290.161771 
L 132.310342 289.637523 
L 132.483094 289.637523 
L 132.483094 289.113275 
L 132.912457 289.113275 
L 132.912457 288.589027 
L 133.263855 288.589027 
L 133.292817 287.540532 
L 134.148898 287.540532 
L 134.148898 287.016284 
L 134.276899 287.016284 
L 134.358685 285.967789 
L 134.45812 285.967789 
L 134.45812 285.443541 
L 134.690886 285.443541 
L 134.690886 284.919293 
L 134.999329 284.919293 
L 134.999329 284.395046 
L 135.557869 284.395046 
L 135.557869 283.870798 
L 136.057816 283.870798 
L 136.057816 283.34655 
L 138.114253 283.34655 
L 138.114253 282.822302 
L 139.02249 282.822302 
L 139.02249 282.298055 
L 142.268865 282.298055 
L 142.268865 281.773807 
L 144.74268 281.773807 
L 144.74268 281.249559 
L 145.226349 281.249559 
L 145.226349 280.725312 
L 161.389281 280.725312 
L 161.389281 280.201064 
L 162.69129 280.201064 
L 162.729615 278.628321 
L 162.907917 278.628321 
L 162.907917 278.104073 
L 163.022914 278.104073 
L 163.022914 277.579825 
L 163.287725 277.579825 
L 163.287725 277.055578 
L 163.508653 277.055578 
L 163.608144 275.482834 
L 163.761226 275.482834 
L 163.761226 274.958587 
L 163.938925 274.958587 
L 164.047249 273.385844 
L 164.194888 273.385844 
L 164.298439 272.337348 
L 164.773081 272.337348 
L 164.773081 271.8131 
L 165.859702 271.8131 
L 165.859702 271.288853 
L 176.374725 271.288853 
L 176.374725 270.764605 
L 176.573395 270.764605 
L 176.640919 269.716109 
L 176.725915 269.716109 
L 176.765181 268.667614 
L 177.008768 268.667614 
L 177.008768 268.143366 
L 177.284803 268.143366 
L 177.30121 267.094871 
L 177.860036 267.094871 
L 177.860036 266.570623 
L 178.467562 266.570623 
L 178.467562 266.046375 
L 188.611238 266.046375 
L 188.611238 265.522128 
L 189.165819 265.522128 
L 189.165819 264.99788 
L 189.537795 264.99788 
L 189.537795 264.473632 
L 190.185321 264.473632 
L 190.185321 263.949385 
L 199.53754 263.949385 
L 199.53754 263.425137 
L 200.241929 263.425137 
L 200.241929 262.900889 
L 200.742422 262.900889 
L 200.742422 262.376641 
L 200.943658 262.376641 
L 200.943658 261.852394 
L 201.653145 261.852394 
L 201.653145 261.328146 
L 201.986123 261.328146 
L 201.986123 260.803898 
L 202.161283 260.803898 
L 202.161283 260.279651 
L 212.525517 260.279651 
L 212.525517 259.755403 
L 213.197854 259.755403 
L 213.197854 259.231155 
L 233.206914 259.231155 
L 233.206914 258.706907 
L 233.997131 258.706907 
L 233.997131 258.18266 
L 255.485331 258.18266 
L 255.505198 257.134164 
L 258.431264 257.134164 
L 258.431264 256.609917 
L 273.218331 256.609917 
L 273.218331 256.085669 
L 278.235132 256.085669 
L 278.235132 255.561421 
L 291.895384 255.561421 
L 291.895384 255.037173 
L 293.762257 255.037173 
L 293.762257 254.512926 
L 302.827433 254.512926 
L 302.827433 253.988678 
L 303.765767 253.988678 
L 303.765767 253.46443 
L 307.23788 253.46443 
L 307.23788 252.940182 
L 333.168 252.940182 
L 333.168 252.940182 
" style="fill:none;stroke:#ff0000;stroke-linecap:square;stroke-width:1.5;"/>
   </g>
   <g id="line2d_63">
    <defs>
     <path d="M 0 -6 
L -5.196152 -3 
L -5.196152 3 
L -0 6 
L 5.196152 3 
L 5.196152 -3 
z
" id="m54b138d004" style="stroke:#ff0000;stroke-linejoin:miter;stroke-width:1.5;"/>
    </defs>
    <g>
     <use style="fill:none;stroke:#ff0000;stroke-linejoin:miter;stroke-width:1.5;" x="178.467562" xlink:href="#m54b138d004" y="266.570623"/>
     <use style="fill:none;stroke:#ff0000;stroke-linejoin:miter;stroke-width:1.5;" x="233.997131" xlink:href="#m54b138d004" y="258.18266"/>
     <use style="fill:none;stroke:#ff0000;stroke-linejoin:miter;stroke-width:1.5;" x="302.827433" xlink:href="#m54b138d004" y="254.512926"/>
     <use style="fill:none;stroke:#ff0000;stroke-linejoin:miter;stroke-width:1.5;" x="307.23788" xlink:href="#m54b138d004" y="252.940182"/>
     <use style="fill:none;stroke:#ff0000;stroke-linejoin:miter;stroke-width:1.5;" x="333.168" xlink:href="#m54b138d004" y="252.940182"/>
    </g>
   </g>
   <g id="line2d_64">
    <path style="fill:none;stroke:#ff0000;stroke-linecap:square;stroke-width:1.5;"/>
    <g/>
   </g>
   <g id="line2d_65">
    <path clip-path="url(#p023db8276a)" d="M 254.035356 258.18266 
" style="fill:none;stroke:#ff0000;stroke-linecap:square;stroke-width:1.5;"/>
    <defs>
     <path d="M -12 12 
L 12 -12 
M -12 -12 
L 12 12 
" id="m1df30d0837" style="stroke:#ff0000;"/>
    </defs>
    <g clip-path="url(#p023db8276a)">
     <use style="fill:#ff0000;stroke:#ff0000;" x="254.035356" xlink:href="#m1df30d0837" y="258.18266"/>
    </g>
   </g>
   <g id="line2d_66">
    <defs>
     <path d="M 0 1.5 
C 0.397805 1.5 0.77937 1.341951 1.06066 1.06066 
C 1.341951 0.77937 1.5 0.397805 1.5 0 
C 1.5 -0.397805 1.341951 -0.77937 1.06066 -1.06066 
C 0.77937 -1.341951 0.397805 -1.5 0 -1.5 
C -0.397805 -1.5 -0.77937 -1.341951 -1.06066 -1.06066 
C -1.341951 -0.77937 -1.5 -0.397805 -1.5 0 
C -1.5 0.397805 -1.341951 0.77937 -1.06066 1.06066 
C -0.77937 1.341951 -0.397805 1.5 0 1.5 
z
" id="mb3a7aedd94" style="stroke:#9acd32;"/>
    </defs>
    <g>
     <use style="fill:#9acd32;stroke:#9acd32;" x="310.855586" xlink:href="#mb3a7aedd94" y="237.212751"/>
     <use style="fill:#9acd32;stroke:#9acd32;" x="310.855586" xlink:href="#mb3a7aedd94" y="237.212751"/>
    </g>
   </g>
   <g id="line2d_67">
    <path d="M 121.359263 294.88 
L 121.397846 293.831505 
L 122.624799 293.831505 
L 122.624799 293.307257 
L 123.533353 293.307257 
L 123.550363 292.258761 
L 124.249997 292.258761 
L 124.249997 291.734514 
L 124.52528 291.734514 
L 124.52528 291.210266 
L 124.716977 291.210266 
L 124.716977 290.686018 
L 124.906559 290.686018 
L 124.906559 290.161771 
L 125.062963 290.161771 
L 125.062963 289.637523 
L 125.463074 289.637523 
L 125.463074 289.113275 
L 126.381204 289.113275 
L 126.381204 288.589027 
L 126.92061 288.589027 
L 126.92061 288.06478 
L 127.12896 288.06478 
L 127.12896 287.540532 
L 127.26647 287.540532 
L 127.26647 287.016284 
L 127.416471 287.016284 
L 127.457154 285.967789 
L 127.858776 285.967789 
L 127.858776 285.443541 
L 129.182611 285.443541 
L 129.182611 284.919293 
L 129.31685 284.919293 
L 129.31685 284.395046 
L 129.925889 284.395046 
L 129.937618 283.34655 
L 130.502743 283.34655 
L 130.502743 282.822302 
L 130.928559 282.822302 
L 130.928559 282.298055 
L 133.749684 282.298055 
L 133.749684 281.773807 
L 138.172446 281.773807 
L 138.172446 281.249559 
L 157.346511 281.249559 
L 157.346511 280.725312 
L 157.836878 280.725312 
L 157.836878 280.201064 
L 158.105402 280.201064 
L 158.105402 279.676816 
L 158.277607 279.676816 
L 158.277607 279.152568 
L 158.514942 279.152568 
L 158.514942 278.628321 
L 159.203625 278.628321 
L 159.203625 278.104073 
L 160.070112 278.104073 
L 160.070112 277.579825 
L 160.408023 277.579825 
L 160.408023 277.055578 
L 160.647348 277.055578 
L 160.647348 276.53133 
L 161.486826 276.53133 
L 161.486826 276.007082 
L 161.661766 276.007082 
L 161.661766 275.482834 
L 161.78538 275.482834 
L 161.78538 274.958587 
L 161.953682 274.958587 
L 161.953682 274.434339 
L 162.267556 274.434339 
L 162.267556 273.910091 
L 162.552961 273.910091 
L 162.552961 273.385844 
L 172.728723 273.385844 
L 172.728723 272.861596 
L 173.784902 272.861596 
L 173.784902 272.337348 
L 173.962336 272.337348 
L 173.962336 271.288853 
L 174.27184 271.288853 
L 174.27184 270.764605 
L 175.524049 270.764605 
L 175.524049 270.240357 
L 177.234739 270.240357 
L 177.234739 269.716109 
L 177.34662 269.716109 
L 177.34662 269.191862 
L 178.681449 269.191862 
L 178.791162 268.143366 
L 187.182637 268.143366 
L 187.182637 267.619119 
L 187.3849 267.619119 
L 187.484116 266.570623 
L 188.495421 266.570623 
L 188.593084 265.522128 
L 189.266446 265.522128 
L 189.266446 264.99788 
L 189.733108 264.99788 
L 189.733108 264.473632 
L 191.379314 264.473632 
L 191.379314 263.949385 
L 192.017658 263.949385 
L 192.017658 263.425137 
L 199.037426 263.425137 
L 199.052363 262.376641 
L 200.387115 262.376641 
L 200.496704 260.803898 
L 200.741469 260.803898 
L 200.741469 260.279651 
L 200.909527 260.279651 
L 200.909527 259.755403 
L 201.258373 259.755403 
L 201.258373 259.231155 
L 202.807966 259.231155 
L 202.807966 258.706907 
L 213.990382 258.706907 
L 213.990382 258.18266 
L 214.282167 258.18266 
L 214.282167 257.658412 
L 222.160494 257.658412 
L 222.160494 257.134164 
L 223.392191 257.134164 
L 223.392191 256.609917 
L 223.953324 256.609917 
L 223.953324 256.085669 
L 230.414709 256.085669 
L 230.414709 255.561421 
L 231.512528 255.561421 
L 231.512528 255.037173 
L 233.373984 255.037173 
L 233.373984 254.512926 
L 235.466322 254.512926 
L 235.466322 253.988678 
L 254.786447 253.988678 
L 254.79402 252.940182 
L 255.647094 252.940182 
L 255.736396 251.367439 
L 256.783839 251.367439 
L 256.783839 250.843192 
L 257.952368 250.843192 
L 258.041225 249.270448 
L 266.775145 249.270448 
L 266.775145 248.746201 
L 273.478953 248.746201 
L 273.478953 248.221953 
L 274.333195 248.221953 
L 274.392177 247.173458 
L 278.284521 247.173458 
L 278.286759 246.124962 
L 278.983305 246.124962 
L 278.983305 245.600714 
L 282.694384 245.600714 
L 282.694384 245.076467 
L 285.572111 245.076467 
L 285.589263 244.027971 
L 288.111642 244.027971 
L 288.126283 242.979476 
L 289.994039 242.979476 
L 289.994039 242.455228 
L 290.324042 242.455228 
L 290.324042 241.93098 
L 291.980298 241.93098 
L 291.996224 240.358237 
L 293.774842 240.358237 
L 293.774842 239.83399 
L 295.653573 239.83399 
L 295.653573 239.309742 
L 301.795827 239.309742 
L 301.795827 238.785494 
L 302.987165 238.785494 
L 303.01053 237.736999 
L 310.855586 237.736999 
L 310.855586 237.212751 
L 333.168 237.212751 
L 333.168 237.212751 
" style="fill:none;stroke:#9acd32;stroke-linecap:square;stroke-width:1.5;"/>
   </g>
   <g id="line2d_68">
    <defs>
     <path d="M 0 -6 
L -6 6 
L 6 6 
z
" id="mb64b35c1c2" style="stroke:#9acd32;stroke-linejoin:miter;stroke-width:1.5;"/>
    </defs>
    <g>
     <use style="fill:none;stroke:#9acd32;stroke-linejoin:miter;stroke-width:1.5;" x="177.34662" xlink:href="#mb64b35c1c2" y="269.716109"/>
     <use style="fill:none;stroke:#9acd32;stroke-linejoin:miter;stroke-width:1.5;" x="235.466322" xlink:href="#mb64b35c1c2" y="253.988678"/>
     <use style="fill:none;stroke:#9acd32;stroke-linejoin:miter;stroke-width:1.5;" x="303.01053" xlink:href="#mb64b35c1c2" y="237.736999"/>
     <use style="fill:none;stroke:#9acd32;stroke-linejoin:miter;stroke-width:1.5;" x="310.855586" xlink:href="#mb64b35c1c2" y="237.212751"/>
     <use style="fill:none;stroke:#9acd32;stroke-linejoin:miter;stroke-width:1.5;" x="333.168" xlink:href="#mb64b35c1c2" y="237.212751"/>
    </g>
   </g>
   <g id="line2d_69">
    <path style="fill:none;stroke:#9acd32;stroke-linecap:square;stroke-width:1.5;"/>
    <g/>
   </g>
   <g id="line2d_70">
    <path clip-path="url(#p023db8276a)" d="M 254.029175 253.988678 
" style="fill:none;stroke:#9acd32;stroke-linecap:square;stroke-width:1.5;"/>
    <defs>
     <path d="M -12 12 
L 12 -12 
M -12 -12 
L 12 12 
" id="mb5a2b207e5" style="stroke:#9acd32;"/>
    </defs>
    <g clip-path="url(#p023db8276a)">
     <use style="fill:#9acd32;stroke:#9acd32;" x="254.029175" xlink:href="#mb5a2b207e5" y="253.988678"/>
    </g>
   </g>
   <g id="line2d_71">
    <path d="M 333.168 263.425137 
L 363.64328 289.532673 
" style="fill:none;stroke:#ff7500;stroke-linecap:square;stroke-width:1.5;"/>
    <g>
     <use style="fill:none;stroke:#ff7500;stroke-linejoin:bevel;stroke-width:1.5;" x="333.168" xlink:href="#m4ac24dfd47" y="263.425137"/>
     <use style="fill:none;stroke:#ff7500;stroke-linejoin:bevel;stroke-width:1.5;" x="363.64328" xlink:href="#m4ac24dfd47" y="289.532673"/>
    </g>
   </g>
   <g id="line2d_72">
    <path d="M 333.168 263.425137 
L 363.64328 246.754059 
" style="fill:none;stroke:#000080;stroke-linecap:square;stroke-width:1.5;"/>
    <g>
     <use style="fill:none;stroke:#000080;stroke-width:1.5;" x="333.168" xlink:href="#m79c80fbac5" y="263.425137"/>
     <use style="fill:none;stroke:#000080;stroke-width:1.5;" x="363.64328" xlink:href="#m79c80fbac5" y="246.754059"/>
    </g>
   </g>
   <g id="line2d_73">
    <path d="M 333.168 258.18266 
L 363.64328 203.975446 
" style="fill:none;stroke:#ff00ff;stroke-linecap:square;stroke-width:1.5;"/>
    <g>
     <use style="fill:none;stroke:#ff00ff;stroke-linejoin:miter;stroke-width:1.5;" x="333.168" xlink:href="#m4991c04abe" y="258.18266"/>
     <use style="fill:none;stroke:#ff00ff;stroke-linejoin:miter;stroke-width:1.5;" x="363.64328" xlink:href="#m4991c04abe" y="203.975446"/>
    </g>
   </g>
   <g id="line2d_74">
    <path d="M 333.168 252.940182 
L 363.64328 161.196832 
" style="fill:none;stroke:#ff0000;stroke-linecap:square;stroke-width:1.5;"/>
    <g>
     <use style="fill:none;stroke:#ff0000;stroke-linejoin:miter;stroke-width:1.5;" x="333.168" xlink:href="#m54b138d004" y="252.940182"/>
     <use style="fill:none;stroke:#ff0000;stroke-linejoin:miter;stroke-width:1.5;" x="363.64328" xlink:href="#m54b138d004" y="161.196832"/>
    </g>
   </g>
   <g id="line2d_75">
    <path d="M 333.168 237.212751 
L 363.64328 118.418218 
" style="fill:none;stroke:#9acd32;stroke-linecap:square;stroke-width:1.5;"/>
    <g>
     <use style="fill:none;stroke:#9acd32;stroke-linejoin:miter;stroke-width:1.5;" x="333.168" xlink:href="#mb64b35c1c2" y="237.212751"/>
     <use style="fill:none;stroke:#9acd32;stroke-linejoin:miter;stroke-width:1.5;" x="363.64328" xlink:href="#mb64b35c1c2" y="118.418218"/>
    </g>
   </g>
   <g id="line2d_76">
    <path d="M 333.168 27.513663 
L 363.64328 75.639604 
" style="fill:none;stroke:#6495ed;stroke-linecap:square;stroke-width:1.5;"/>
    <g>
     <use style="fill:none;stroke:#6495ed;stroke-linejoin:miter;stroke-width:1.5;" x="333.168" xlink:href="#m4d7e307e9d" y="27.513663"/>
     <use style="fill:none;stroke:#6495ed;stroke-linejoin:miter;stroke-width:1.5;" x="363.64328" xlink:href="#m4d7e307e9d" y="75.639604"/>
    </g>
   </g>
   <g id="line2d_77">
    <path d="M 333.168 294.88 
L 333.168 27.513663 
" style="fill:none;stroke:#000000;stroke-linecap:square;stroke-width:1.5;"/>
   </g>
   <g id="patch_3">
    <path d="M 56.12 294.88 
L 56.12 24.84 
" style="fill:none;stroke:#000000;stroke-linecap:square;stroke-linejoin:miter;stroke-width:0.8;"/>
   </g>
   <g id="patch_4">
    <path d="M 333.168 294.88 
L 333.168 24.84 
" style="fill:none;stroke:#000000;stroke-linecap:square;stroke-linejoin:miter;stroke-width:0.8;"/>
   </g>
   <g id="patch_5">
    <path d="M 56.12 294.88 
L 333.168 294.88 
" style="fill:none;stroke:#000000;stroke-linecap:square;stroke-linejoin:miter;stroke-width:0.8;"/>
   </g>
   <g id="patch_6">
    <path d="M 56.12 24.84 
L 333.168 24.84 
" style="fill:none;stroke:#000000;stroke-linecap:square;stroke-linejoin:miter;stroke-width:0.8;"/>
   </g>
   <g id="text_13">
    <!-- CMAES posi -->
    <defs>
     <path d="M 64.40625 67.28125 
L 64.40625 56.890625 
Q 59.421875 61.53125 53.78125 63.8125 
Q 48.140625 66.109375 41.796875 66.109375 
Q 29.296875 66.109375 22.65625 58.46875 
Q 16.015625 50.828125 16.015625 36.375 
Q 16.015625 21.96875 22.65625 14.328125 
Q 29.296875 6.6875 41.796875 6.6875 
Q 48.140625 6.6875 53.78125 8.984375 
Q 59.421875 11.28125 64.40625 15.921875 
L 64.40625 5.609375 
Q 59.234375 2.09375 53.4375 0.328125 
Q 47.65625 -1.421875 41.21875 -1.421875 
Q 24.65625 -1.421875 15.125 8.703125 
Q 5.609375 18.84375 5.609375 36.375 
Q 5.609375 53.953125 15.125 64.078125 
Q 24.65625 74.21875 41.21875 74.21875 
Q 47.75 74.21875 53.53125 72.484375 
Q 59.328125 70.75 64.40625 67.28125 
z
" id="DejaVuSans-43"/>
     <path d="M 9.8125 72.90625 
L 24.515625 72.90625 
L 43.109375 23.296875 
L 61.8125 72.90625 
L 76.515625 72.90625 
L 76.515625 0 
L 66.890625 0 
L 66.890625 64.015625 
L 48.09375 14.015625 
L 38.1875 14.015625 
L 19.390625 64.015625 
L 19.390625 0 
L 9.8125 0 
z
" id="DejaVuSans-4d"/>
     <path d="M 34.1875 63.1875 
L 20.796875 26.90625 
L 47.609375 26.90625 
z
M 28.609375 72.90625 
L 39.796875 72.90625 
L 67.578125 0 
L 57.328125 0 
L 50.6875 18.703125 
L 17.828125 18.703125 
L 11.1875 0 
L 0.78125 0 
z
" id="DejaVuSans-41"/>
     <path d="M 9.8125 72.90625 
L 55.90625 72.90625 
L 55.90625 64.59375 
L 19.671875 64.59375 
L 19.671875 43.015625 
L 54.390625 43.015625 
L 54.390625 34.71875 
L 19.671875 34.71875 
L 19.671875 8.296875 
L 56.78125 8.296875 
L 56.78125 0 
L 9.8125 0 
z
" id="DejaVuSans-45"/>
     <path d="M 53.515625 70.515625 
L 53.515625 60.890625 
Q 47.90625 63.578125 42.921875 64.890625 
Q 37.9375 66.21875 33.296875 66.21875 
Q 25.25 66.21875 20.875 63.09375 
Q 16.5 59.96875 16.5 54.203125 
Q 16.5 49.359375 19.40625 46.890625 
Q 22.3125 44.4375 30.421875 42.921875 
L 36.375 41.703125 
Q 47.40625 39.59375 52.65625 34.296875 
Q 57.90625 29 57.90625 20.125 
Q 57.90625 9.515625 50.796875 4.046875 
Q 43.703125 -1.421875 29.984375 -1.421875 
Q 24.8125 -1.421875 18.96875 -0.25 
Q 13.140625 0.921875 6.890625 3.21875 
L 6.890625 13.375 
Q 12.890625 10.015625 18.65625 8.296875 
Q 24.421875 6.59375 29.984375 6.59375 
Q 38.421875 6.59375 43.015625 9.90625 
Q 47.609375 13.234375 47.609375 19.390625 
Q 47.609375 24.75 44.3125 27.78125 
Q 41.015625 30.8125 33.5 32.328125 
L 27.484375 33.5 
Q 16.453125 35.6875 11.515625 40.375 
Q 6.59375 45.0625 6.59375 53.421875 
Q 6.59375 63.09375 13.40625 68.65625 
Q 20.21875 74.21875 32.171875 74.21875 
Q 37.3125 74.21875 42.625 73.28125 
Q 47.953125 72.359375 53.515625 70.515625 
z
" id="DejaVuSans-53"/>
    </defs>
    <g transform="translate(369.18424 294.223611)scale(0.17 -0.17)">
     <use xlink:href="#DejaVuSans-43"/>
     <use x="69.824219" xlink:href="#DejaVuSans-4d"/>
     <use x="156.103516" xlink:href="#DejaVuSans-41"/>
     <use x="224.511719" xlink:href="#DejaVuSans-45"/>
     <use x="287.695312" xlink:href="#DejaVuSans-53"/>
     <use x="351.171875" xlink:href="#DejaVuSans-20"/>
     <use x="382.958984" xlink:href="#DejaVuSans-70"/>
     <use x="446.435547" xlink:href="#DejaVuSans-6f"/>
     <use x="507.617188" xlink:href="#DejaVuSans-73"/>
     <use x="559.716797" xlink:href="#DejaVuSans-69"/>
    </g>
   </g>
   <g id="text_14">
    <!-- CMA ES PPM -->
    <defs>
     <path d="M 19.671875 64.796875 
L 19.671875 37.40625 
L 32.078125 37.40625 
Q 38.96875 37.40625 42.71875 40.96875 
Q 46.484375 44.53125 46.484375 51.125 
Q 46.484375 57.671875 42.71875 61.234375 
Q 38.96875 64.796875 32.078125 64.796875 
z
M 9.8125 72.90625 
L 32.078125 72.90625 
Q 44.34375 72.90625 50.609375 67.359375 
Q 56.890625 61.8125 56.890625 51.125 
Q 56.890625 40.328125 50.609375 34.8125 
Q 44.34375 29.296875 32.078125 29.296875 
L 19.671875 29.296875 
L 19.671875 0 
L 9.8125 0 
z
" id="DejaVuSans-50"/>
    </defs>
    <g transform="translate(369.18424 251.444997)scale(0.17 -0.17)">
     <use xlink:href="#DejaVuSans-43"/>
     <use x="69.824219" xlink:href="#DejaVuSans-4d"/>
     <use x="156.103516" xlink:href="#DejaVuSans-41"/>
     <use x="224.511719" xlink:href="#DejaVuSans-20"/>
     <use x="256.298828" xlink:href="#DejaVuSans-45"/>
     <use x="319.482422" xlink:href="#DejaVuSans-53"/>
     <use x="382.958984" xlink:href="#DejaVuSans-20"/>
     <use x="414.746094" xlink:href="#DejaVuSans-50"/>
     <use x="475.048828" xlink:href="#DejaVuSans-50"/>
     <use x="535.351562" xlink:href="#DejaVuSans-4d"/>
    </g>
   </g>
   <g id="text_15">
    <!-- CMA ES CSA -->
    <g transform="translate(369.18424 208.666383)scale(0.17 -0.17)">
     <use xlink:href="#DejaVuSans-43"/>
     <use x="69.824219" xlink:href="#DejaVuSans-4d"/>
     <use x="156.103516" xlink:href="#DejaVuSans-41"/>
     <use x="224.511719" xlink:href="#DejaVuSans-20"/>
     <use x="256.298828" xlink:href="#DejaVuSans-45"/>
     <use x="319.482422" xlink:href="#DejaVuSans-53"/>
     <use x="382.958984" xlink:href="#DejaVuSans-20"/>
     <use x="414.746094" xlink:href="#DejaVuSans-43"/>
     <use x="484.570312" xlink:href="#DejaVuSans-53"/>
     <use x="548.0625" xlink:href="#DejaVuSans-41"/>
    </g>
   </g>
   <g id="text_16">
    <!-- CMA-CSA At -->
    <g transform="translate(369.18424 165.887769)scale(0.17 -0.17)">
     <use xlink:href="#DejaVuSans-43"/>
     <use x="69.824219" xlink:href="#DejaVuSans-4d"/>
     <use x="156.103516" xlink:href="#DejaVuSans-41"/>
     <use x="224.480469" xlink:href="#DejaVuSans-2d"/>
     <use x="260.564453" xlink:href="#DejaVuSans-43"/>
     <use x="330.388672" xlink:href="#DejaVuSans-53"/>
     <use x="393.880859" xlink:href="#DejaVuSans-41"/>
     <use x="462.289062" xlink:href="#DejaVuSans-20"/>
     <use x="494.076172" xlink:href="#DejaVuSans-41"/>
     <use x="562.46875" xlink:href="#DejaVuSans-74"/>
    </g>
   </g>
   <g id="text_17">
    <!-- CMA-TPA At -->
    <defs>
     <path d="M -0.296875 72.90625 
L 61.375 72.90625 
L 61.375 64.59375 
L 35.5 64.59375 
L 35.5 0 
L 25.59375 0 
L 25.59375 64.59375 
L -0.296875 64.59375 
z
" id="DejaVuSans-54"/>
    </defs>
    <g transform="translate(369.18424 123.109155)scale(0.17 -0.17)">
     <use xlink:href="#DejaVuSans-43"/>
     <use x="69.824219" xlink:href="#DejaVuSans-4d"/>
     <use x="156.103516" xlink:href="#DejaVuSans-41"/>
     <use x="224.480469" xlink:href="#DejaVuSans-2d"/>
     <use x="260.423828" xlink:href="#DejaVuSans-54"/>
     <use x="321.507812" xlink:href="#DejaVuSans-50"/>
     <use x="381.716797" xlink:href="#DejaVuSans-41"/>
     <use x="450.125" xlink:href="#DejaVuSans-20"/>
     <use x="481.912109" xlink:href="#DejaVuSans-41"/>
     <use x="550.304688" xlink:href="#DejaVuSans-74"/>
    </g>
   </g>
   <g id="text_18">
    <!-- CMA-MSR At -->
    <defs>
     <path d="M 44.390625 34.1875 
Q 47.5625 33.109375 50.5625 29.59375 
Q 53.5625 26.078125 56.59375 19.921875 
L 66.609375 0 
L 56 0 
L 46.6875 18.703125 
Q 43.0625 26.03125 39.671875 28.421875 
Q 36.28125 30.8125 30.421875 30.8125 
L 19.671875 30.8125 
L 19.671875 0 
L 9.8125 0 
L 9.8125 72.90625 
L 32.078125 72.90625 
Q 44.578125 72.90625 50.734375 67.671875 
Q 56.890625 62.453125 56.890625 51.90625 
Q 56.890625 45.015625 53.6875 40.46875 
Q 50.484375 35.9375 44.390625 34.1875 
z
M 19.671875 64.796875 
L 19.671875 38.921875 
L 32.078125 38.921875 
Q 39.203125 38.921875 42.84375 42.21875 
Q 46.484375 45.515625 46.484375 51.90625 
Q 46.484375 58.296875 42.84375 61.546875 
Q 39.203125 64.796875 32.078125 64.796875 
z
" id="DejaVuSans-52"/>
    </defs>
    <g transform="translate(369.18424 80.330541)scale(0.17 -0.17)">
     <use xlink:href="#DejaVuSans-43"/>
     <use x="69.824219" xlink:href="#DejaVuSans-4d"/>
     <use x="156.103516" xlink:href="#DejaVuSans-41"/>
     <use x="224.480469" xlink:href="#DejaVuSans-2d"/>
     <use x="260.564453" xlink:href="#DejaVuSans-4d"/>
     <use x="346.84375" xlink:href="#DejaVuSans-53"/>
     <use x="410.320312" xlink:href="#DejaVuSans-52"/>
     <use x="479.802734" xlink:href="#DejaVuSans-20"/>
     <use x="511.589844" xlink:href="#DejaVuSans-41"/>
     <use x="579.982422" xlink:href="#DejaVuSans-74"/>
    </g>
   </g>
   <g id="text_19">
    <!-- best 2009 -->
    <defs>
     <path d="M 48.6875 27.296875 
Q 48.6875 37.203125 44.609375 42.84375 
Q 40.53125 48.484375 33.40625 48.484375 
Q 26.265625 48.484375 22.1875 42.84375 
Q 18.109375 37.203125 18.109375 27.296875 
Q 18.109375 17.390625 22.1875 11.75 
Q 26.265625 6.109375 33.40625 6.109375 
Q 40.53125 6.109375 44.609375 11.75 
Q 48.6875 17.390625 48.6875 27.296875 
z
M 18.109375 46.390625 
Q 20.953125 51.265625 25.265625 53.625 
Q 29.59375 56 35.59375 56 
Q 45.5625 56 51.78125 48.09375 
Q 58.015625 40.1875 58.015625 27.296875 
Q 58.015625 14.40625 51.78125 6.484375 
Q 45.5625 -1.421875 35.59375 -1.421875 
Q 29.59375 -1.421875 25.265625 0.953125 
Q 20.953125 3.328125 18.109375 8.203125 
L 18.109375 0 
L 9.078125 0 
L 9.078125 75.984375 
L 18.109375 75.984375 
z
" id="DejaVuSans-62"/>
     <path d="M 10.984375 1.515625 
L 10.984375 10.5 
Q 14.703125 8.734375 18.5 7.8125 
Q 22.3125 6.890625 25.984375 6.890625 
Q 35.75 6.890625 40.890625 13.453125 
Q 46.046875 20.015625 46.78125 33.40625 
Q 43.953125 29.203125 39.59375 26.953125 
Q 35.25 24.703125 29.984375 24.703125 
Q 19.046875 24.703125 12.671875 31.3125 
Q 6.296875 37.9375 6.296875 49.421875 
Q 6.296875 60.640625 12.9375 67.421875 
Q 19.578125 74.21875 30.609375 74.21875 
Q 43.265625 74.21875 49.921875 64.515625 
Q 56.59375 54.828125 56.59375 36.375 
Q 56.59375 19.140625 48.40625 8.859375 
Q 40.234375 -1.421875 26.421875 -1.421875 
Q 22.703125 -1.421875 18.890625 -0.6875 
Q 15.09375 0.046875 10.984375 1.515625 
z
M 30.609375 32.421875 
Q 37.25 32.421875 41.125 36.953125 
Q 45.015625 41.5 45.015625 49.421875 
Q 45.015625 57.28125 41.125 61.84375 
Q 37.25 66.40625 30.609375 66.40625 
Q 23.96875 66.40625 20.09375 61.84375 
Q 16.21875 57.28125 16.21875 49.421875 
Q 16.21875 41.5 20.09375 36.953125 
Q 23.96875 32.421875 30.609375 32.421875 
z
" id="DejaVuSans-39"/>
    </defs>
    <g transform="translate(369.18424 37.551928)scale(0.17 -0.17)">
     <use xlink:href="#DejaVuSans-62"/>
     <use x="63.476562" xlink:href="#DejaVuSans-65"/>
     <use x="125" xlink:href="#DejaVuSans-73"/>
     <use x="177.099609" xlink:href="#DejaVuSans-74"/>
     <use x="216.308594" xlink:href="#DejaVuSans-20"/>
     <use x="248.095703" xlink:href="#DejaVuSans-32"/>
     <use x="311.71875" xlink:href="#DejaVuSans-30"/>
     <use x="375.341797" xlink:href="#DejaVuSans-30"/>
     <use x="438.964844" xlink:href="#DejaVuSans-39"/>
    </g>
   </g>
   <g id="text_20">
    <!-- bbob f3, 20-D -->
    <defs>
     <path d="M 40.578125 39.3125 
Q 47.65625 37.796875 51.625 33 
Q 55.609375 28.21875 55.609375 21.1875 
Q 55.609375 10.40625 48.1875 4.484375 
Q 40.765625 -1.421875 27.09375 -1.421875 
Q 22.515625 -1.421875 17.65625 -0.515625 
Q 12.796875 0.390625 7.625 2.203125 
L 7.625 11.71875 
Q 11.71875 9.328125 16.59375 8.109375 
Q 21.484375 6.890625 26.8125 6.890625 
Q 36.078125 6.890625 40.9375 10.546875 
Q 45.796875 14.203125 45.796875 21.1875 
Q 45.796875 27.640625 41.28125 31.265625 
Q 36.765625 34.90625 28.71875 34.90625 
L 20.21875 34.90625 
L 20.21875 43.015625 
L 29.109375 43.015625 
Q 36.375 43.015625 40.234375 45.921875 
Q 44.09375 48.828125 44.09375 54.296875 
Q 44.09375 59.90625 40.109375 62.90625 
Q 36.140625 65.921875 28.71875 65.921875 
Q 24.65625 65.921875 20.015625 65.03125 
Q 15.375 64.15625 9.8125 62.3125 
L 9.8125 71.09375 
Q 15.4375 72.65625 20.34375 73.4375 
Q 25.25 74.21875 29.59375 74.21875 
Q 40.828125 74.21875 47.359375 69.109375 
Q 53.90625 64.015625 53.90625 55.328125 
Q 53.90625 49.265625 50.4375 45.09375 
Q 46.96875 40.921875 40.578125 39.3125 
z
" id="DejaVuSans-33"/>
     <path d="M 19.671875 64.796875 
L 19.671875 8.109375 
L 31.59375 8.109375 
Q 46.6875 8.109375 53.6875 14.9375 
Q 60.6875 21.78125 60.6875 36.53125 
Q 60.6875 51.171875 53.6875 57.984375 
Q 46.6875 64.796875 31.59375 64.796875 
z
M 9.8125 72.90625 
L 30.078125 72.90625 
Q 51.265625 72.90625 61.171875 64.09375 
Q 71.09375 55.28125 71.09375 36.53125 
Q 71.09375 17.671875 61.125 8.828125 
Q 51.171875 0 30.078125 0 
L 9.8125 0 
z
" id="DejaVuSans-44"/>
    </defs>
    <g transform="translate(58.89048 35.290806)scale(0.102 -0.102)">
     <use xlink:href="#DejaVuSans-62"/>
     <use x="63.476562" xlink:href="#DejaVuSans-62"/>
     <use x="126.953125" xlink:href="#DejaVuSans-6f"/>
     <use x="188.134766" xlink:href="#DejaVuSans-62"/>
     <use x="251.611328" xlink:href="#DejaVuSans-20"/>
     <use x="283.398438" xlink:href="#DejaVuSans-66"/>
     <use x="318.603516" xlink:href="#DejaVuSans-33"/>
     <use x="382.226562" xlink:href="#DejaVuSans-2c"/>
     <use x="414.013672" xlink:href="#DejaVuSans-20"/>
     <use x="445.800781" xlink:href="#DejaVuSans-32"/>
     <use x="509.423828" xlink:href="#DejaVuSans-30"/>
     <use x="573.046875" xlink:href="#DejaVuSans-2d"/>
     <use x="609.130859" xlink:href="#DejaVuSans-44"/>
    </g>
    <!-- 51 targets: 100..1e-08 -->
    <defs>
     <path d="M 10.796875 72.90625 
L 49.515625 72.90625 
L 49.515625 64.59375 
L 19.828125 64.59375 
L 19.828125 46.734375 
Q 21.96875 47.46875 24.109375 47.828125 
Q 26.265625 48.1875 28.421875 48.1875 
Q 40.625 48.1875 47.75 41.5 
Q 54.890625 34.8125 54.890625 23.390625 
Q 54.890625 11.625 47.5625 5.09375 
Q 40.234375 -1.421875 26.90625 -1.421875 
Q 22.3125 -1.421875 17.546875 -0.640625 
Q 12.796875 0.140625 7.71875 1.703125 
L 7.71875 11.625 
Q 12.109375 9.234375 16.796875 8.0625 
Q 21.484375 6.890625 26.703125 6.890625 
Q 35.15625 6.890625 40.078125 11.328125 
Q 45.015625 15.765625 45.015625 23.390625 
Q 45.015625 31 40.078125 35.4375 
Q 35.15625 39.890625 26.703125 39.890625 
Q 22.75 39.890625 18.8125 39.015625 
Q 14.890625 38.140625 10.796875 36.28125 
z
" id="DejaVuSans-35"/>
     <path d="M 11.71875 12.40625 
L 22.015625 12.40625 
L 22.015625 0 
L 11.71875 0 
z
M 11.71875 51.703125 
L 22.015625 51.703125 
L 22.015625 39.3125 
L 11.71875 39.3125 
z
" id="DejaVuSans-3a"/>
    </defs>
    <g transform="translate(58.89048 46.712575)scale(0.102 -0.102)">
     <use xlink:href="#DejaVuSans-35"/>
     <use x="63.623047" xlink:href="#DejaVuSans-31"/>
     <use x="127.246094" xlink:href="#DejaVuSans-20"/>
     <use x="159.033203" xlink:href="#DejaVuSans-74"/>
     <use x="198.242188" xlink:href="#DejaVuSans-61"/>
     <use x="259.521484" xlink:href="#DejaVuSans-72"/>
     <use x="300.619141" xlink:href="#DejaVuSans-67"/>
     <use x="364.095703" xlink:href="#DejaVuSans-65"/>
     <use x="425.619141" xlink:href="#DejaVuSans-74"/>
     <use x="464.828125" xlink:href="#DejaVuSans-73"/>
     <use x="516.927734" xlink:href="#DejaVuSans-3a"/>
     <use x="550.619141" xlink:href="#DejaVuSans-20"/>
     <use x="582.40625" xlink:href="#DejaVuSans-31"/>
     <use x="646.029297" xlink:href="#DejaVuSans-30"/>
     <use x="709.652344" xlink:href="#DejaVuSans-30"/>
     <use x="773.275391" xlink:href="#DejaVuSans-2e"/>
     <use x="805.0625" xlink:href="#DejaVuSans-2e"/>
     <use x="836.849609" xlink:href="#DejaVuSans-31"/>
     <use x="900.472656" xlink:href="#DejaVuSans-65"/>
     <use x="961.996094" xlink:href="#DejaVuSans-2d"/>
     <use x="998.080078" xlink:href="#DejaVuSans-30"/>
     <use x="1061.703125" xlink:href="#DejaVuSans-38"/>
    </g>
    <!-- 15 instances -->
    <g transform="translate(58.89048 58.134344)scale(0.102 -0.102)">
     <use xlink:href="#DejaVuSans-31"/>
     <use x="63.623047" xlink:href="#DejaVuSans-35"/>
     <use x="127.246094" xlink:href="#DejaVuSans-20"/>
     <use x="159.033203" xlink:href="#DejaVuSans-69"/>
     <use x="186.816406" xlink:href="#DejaVuSans-6e"/>
     <use x="250.195312" xlink:href="#DejaVuSans-73"/>
     <use x="302.294922" xlink:href="#DejaVuSans-74"/>
     <use x="341.503906" xlink:href="#DejaVuSans-61"/>
     <use x="402.783203" xlink:href="#DejaVuSans-6e"/>
     <use x="466.162109" xlink:href="#DejaVuSans-63"/>
     <use x="521.142578" xlink:href="#DejaVuSans-65"/>
     <use x="582.666016" xlink:href="#DejaVuSans-73"/>
    </g>
   </g>
   <g id="text_21">
    <!-- v0.0.0 -->
    <g style="fill:#808080;" transform="translate(178.96275 290.099912)scale(0.1 -0.1)">
     <use xlink:href="#DejaVuSans-76"/>
     <use x="59.179688" xlink:href="#DejaVuSans-30"/>
     <use x="122.802734" xlink:href="#DejaVuSans-2e"/>
     <use x="154.589844" xlink:href="#DejaVuSans-30"/>
     <use x="218.212891" xlink:href="#DejaVuSans-2e"/>
     <use x="250" xlink:href="#DejaVuSans-30"/>
    </g>
   </g>
   <g id="text_22">
    <!-- 3 Rastrigin separable -->
    <g transform="translate(88.011188 18.84)scale(0.2 -0.2)">
     <use xlink:href="#DejaVuSans-33"/>
     <use x="63.623047" xlink:href="#DejaVuSans-20"/>
     <use x="95.410156" xlink:href="#DejaVuSans-52"/>
     <use x="164.861328" xlink:href="#DejaVuSans-61"/>
     <use x="226.140625" xlink:href="#DejaVuSans-73"/>
     <use x="278.240234" xlink:href="#DejaVuSans-74"/>
     <use x="317.449219" xlink:href="#DejaVuSans-72"/>
     <use x="358.5625" xlink:href="#DejaVuSans-69"/>
     <use x="386.345703" xlink:href="#DejaVuSans-67"/>
     <use x="449.822266" xlink:href="#DejaVuSans-69"/>
     <use x="477.605469" xlink:href="#DejaVuSans-6e"/>
     <use x="540.984375" xlink:href="#DejaVuSans-20"/>
     <use x="572.771484" xlink:href="#DejaVuSans-73"/>
     <use x="624.871094" xlink:href="#DejaVuSans-65"/>
     <use x="686.394531" xlink:href="#DejaVuSans-70"/>
     <use x="749.871094" xlink:href="#DejaVuSans-61"/>
     <use x="811.150391" xlink:href="#DejaVuSans-72"/>
     <use x="852.263672" xlink:href="#DejaVuSans-61"/>
     <use x="913.542969" xlink:href="#DejaVuSans-62"/>
     <use x="977.019531" xlink:href="#DejaVuSans-6c"/>
     <use x="1004.802734" xlink:href="#DejaVuSans-65"/>
    </g>
   </g>
  </g>
 </g>
 <defs>
  <clipPath id="p023db8276a">
   <rect height="270.04" width="277.048" x="56.12" y="24.84"/>
  </clipPath>
 </defs>
</svg>
