<?xml version="1.0" encoding="utf-8" standalone="no"?>
<!DOCTYPE svg PUBLIC "-//W3C//DTD SVG 1.1//EN"
  "http://www.w3.org/Graphics/SVG/1.1/DTD/svg11.dtd">
<!-- Created with matplotlib (http://matplotlib.org/) -->
<svg height="345pt" version="1.1" viewBox="0 0 460 345" width="460pt" xmlns="http://www.w3.org/2000/svg" xmlns:xlink="http://www.w3.org/1999/xlink">
 <defs>
  <style type="text/css">
*{stroke-linecap:butt;stroke-linejoin:round;}
  </style>
 </defs>
 <g id="figure_1">
  <g id="patch_1">
   <path d="M 0 345.6 
L 460.8 345.6 
L 460.8 0 
L 0 0 
z
" style="fill:#ffffff;"/>
  </g>
  <g id="axes_1">
   <g id="patch_2">
    <path d="M 56.12 294.88 
L 333.168 294.88 
L 333.168 24.84 
L 56.12 24.84 
z
" style="fill:#ffffff;"/>
   </g>
   <g id="line2d_1">
    <path d="M 28.455965 294.88 
L 28.455965 289.637523 
L 75.003641 289.637523 
L 75.003641 284.395046 
L 90.522701 284.395046 
L 90.522701 279.152568 
L 110.457504 279.152568 
L 110.457504 273.910091 
L 140.862496 273.910091 
L 140.862496 268.667614 
L 155.504275 268.667614 
L 155.504275 263.425137 
L 175.956664 263.425137 
L 175.956664 258.18266 
L 190.566095 258.18266 
L 190.566095 252.940182 
L 205.42551 252.940182 
L 205.42551 247.697705 
L 225.718082 247.697705 
L 225.718082 242.455228 
L 239.617731 242.455228 
L 239.617731 237.212751 
L 247.372203 237.212751 
L 247.372203 231.970274 
L 247.381104 231.970274 
L 247.381104 226.727797 
L 254.542418 226.727797 
L 254.542418 221.485319 
L 254.542685 221.485319 
L 254.542685 216.242842 
L 297.718212 216.242842 
L 297.718212 211.000365 
L 297.754042 211.000365 
L 297.754042 205.757888 
L 297.765316 205.757888 
L 297.765316 200.515411 
L 300.913621 200.515411 
L 300.913621 195.272933 
L 304.753236 195.272933 
L 304.753236 190.030456 
L 304.770739 190.030456 
L 304.770739 184.787979 
L 304.782922 184.787979 
L 304.782922 179.545502 
L 304.798525 179.545502 
L 304.798525 174.303025 
L 304.802137 174.303025 
L 304.802137 169.060547 
L 304.803555 169.060547 
L 304.803555 163.81807 
L 304.835319 163.81807 
L 304.835319 158.575593 
L 304.836563 158.575593 
L 304.836563 153.333116 
L 304.840109 153.333116 
L 304.840109 148.090639 
L 304.841485 148.090639 
L 304.841485 142.848162 
L 304.841749 142.848162 
L 304.841749 137.605684 
L 304.842451 137.605684 
L 304.842451 132.363207 
L 304.842834 132.363207 
L 304.842834 127.12073 
L 309.788001 127.12073 
L 309.788001 121.878253 
L 309.788672 121.878253 
L 309.788672 116.635776 
L 309.788699 116.635776 
L 309.788699 111.393298 
L 309.789344 111.393298 
L 309.789344 106.150821 
L 309.789477 106.150821 
L 309.789477 100.908344 
L 309.789856 100.908344 
L 309.789856 95.665867 
L 309.790625 95.665867 
L 309.790625 90.42339 
L 309.790832 90.42339 
L 309.790832 85.180912 
L 309.791055 85.180912 
L 309.791055 79.938435 
L 309.791569 79.938435 
L 309.791569 74.695958 
L 309.791919 74.695958 
L 309.791919 69.453481 
L 309.791971 69.453481 
L 309.791971 64.211004 
L 309.793289 64.211004 
L 309.793289 58.968526 
L 309.793629 58.968526 
L 309.793629 53.726049 
L 309.793839 53.726049 
L 309.793839 48.483572 
L 309.794343 48.483572 
L 309.794343 43.241095 
L 309.794728 43.241095 
L 309.794728 37.998618 
L 309.795042 37.998618 
L 309.795042 32.756141 
L 309.795296 32.756141 
L 309.795296 27.513663 
L 333.168 27.513663 
" style="fill:none;stroke:#f5deb3;stroke-linecap:square;stroke-width:4;"/>
   </g>
   <g id="line2d_2">
    <defs>
     <path d="M -0 7.778175 
L 7.778175 0 
L 0 -7.778175 
L -7.778175 -0 
z
" id="m0213c92194" style="stroke:#f5deb3;stroke-linejoin:miter;stroke-width:1.5;"/>
    </defs>
    <g>
     <use style="fill:#f5deb3;stroke:#f5deb3;stroke-linejoin:miter;stroke-width:1.5;" x="140.862496" xlink:href="#m0213c92194" y="268.667614"/>
     <use style="fill:#f5deb3;stroke:#f5deb3;stroke-linejoin:miter;stroke-width:1.5;" x="225.718082" xlink:href="#m0213c92194" y="247.697705"/>
     <use style="fill:#f5deb3;stroke:#f5deb3;stroke-linejoin:miter;stroke-width:1.5;" x="304.836563" xlink:href="#m0213c92194" y="158.575593"/>
     <use style="fill:#f5deb3;stroke:#f5deb3;stroke-linejoin:miter;stroke-width:1.5;" x="309.791919" xlink:href="#m0213c92194" y="74.695958"/>
     <use style="fill:#f5deb3;stroke:#f5deb3;stroke-linejoin:miter;stroke-width:1.5;" x="309.795296" xlink:href="#m0213c92194" y="27.513663"/>
     <use style="fill:#f5deb3;stroke:#f5deb3;stroke-linejoin:miter;stroke-width:1.5;" x="333.168" xlink:href="#m0213c92194" y="27.513663"/>
    </g>
   </g>
   <g id="line2d_3">
    <path style="fill:none;stroke:#f5deb3;stroke-linecap:square;stroke-width:4;"/>
    <g/>
   </g>
   <g id="line2d_4">
    <path d="M 333.168 27.513663 
L 363.64328 32.86099 
" style="fill:none;stroke:#f5deb3;stroke-linecap:square;stroke-width:4;"/>
    <g>
     <use style="fill:#f5deb3;stroke:#f5deb3;stroke-linejoin:miter;stroke-width:1.5;" x="333.168" xlink:href="#m0213c92194" y="27.513663"/>
     <use style="fill:#f5deb3;stroke:#f5deb3;stroke-linejoin:miter;stroke-width:1.5;" x="363.64328" xlink:href="#m0213c92194" y="32.86099"/>
    </g>
   </g>
   <g id="matplotlib.axis_1">
    <g id="xtick_1">
     <g id="line2d_5">
      <path clip-path="url(#paf4457263e)" d="M 56.12 294.88 
L 56.12 24.84 
" style="fill:none;stroke:#b0b0b0;stroke-linecap:square;stroke-width:0.8;"/>
     </g>
     <g id="line2d_6">
      <defs>
       <path d="M 0 0 
L 0 3.5 
" id="m6d84cb7dfa" style="stroke:#000000;stroke-width:0.8;"/>
      </defs>
      <g>
       <use style="stroke:#000000;stroke-width:0.8;" x="56.12" xlink:href="#m6d84cb7dfa" y="294.88"/>
      </g>
     </g>
     <g id="text_1">
      <!-- 0 -->
      <defs>
       <path d="M 31.78125 66.40625 
Q 24.171875 66.40625 20.328125 58.90625 
Q 16.5 51.421875 16.5 36.375 
Q 16.5 21.390625 20.328125 13.890625 
Q 24.171875 6.390625 31.78125 6.390625 
Q 39.453125 6.390625 43.28125 13.890625 
Q 47.125 21.390625 47.125 36.375 
Q 47.125 51.421875 43.28125 58.90625 
Q 39.453125 66.40625 31.78125 66.40625 
z
M 31.78125 74.21875 
Q 44.046875 74.21875 50.515625 64.515625 
Q 56.984375 54.828125 56.984375 36.375 
Q 56.984375 17.96875 50.515625 8.265625 
Q 44.046875 -1.421875 31.78125 -1.421875 
Q 19.53125 -1.421875 13.0625 8.265625 
Q 6.59375 17.96875 6.59375 36.375 
Q 6.59375 54.828125 13.0625 64.515625 
Q 19.53125 74.21875 31.78125 74.21875 
z
" id="DejaVuSans-30"/>
      </defs>
      <g transform="translate(49.7575 317.076875)scale(0.2 -0.2)">
       <use xlink:href="#DejaVuSans-30"/>
      </g>
     </g>
    </g>
    <g id="xtick_2">
     <g id="line2d_7">
      <path clip-path="url(#paf4457263e)" d="M 135.276571 294.88 
L 135.276571 24.84 
" style="fill:none;stroke:#b0b0b0;stroke-linecap:square;stroke-width:0.8;"/>
     </g>
     <g id="line2d_8">
      <g>
       <use style="stroke:#000000;stroke-width:0.8;" x="135.276571" xlink:href="#m6d84cb7dfa" y="294.88"/>
      </g>
     </g>
     <g id="text_2">
      <!-- 2 -->
      <defs>
       <path d="M 19.1875 8.296875 
L 53.609375 8.296875 
L 53.609375 0 
L 7.328125 0 
L 7.328125 8.296875 
Q 12.9375 14.109375 22.625 23.890625 
Q 32.328125 33.6875 34.8125 36.53125 
Q 39.546875 41.84375 41.421875 45.53125 
Q 43.3125 49.21875 43.3125 52.78125 
Q 43.3125 58.59375 39.234375 62.25 
Q 35.15625 65.921875 28.609375 65.921875 
Q 23.96875 65.921875 18.8125 64.3125 
Q 13.671875 62.703125 7.8125 59.421875 
L 7.8125 69.390625 
Q 13.765625 71.78125 18.9375 73 
Q 24.125 74.21875 28.421875 74.21875 
Q 39.75 74.21875 46.484375 68.546875 
Q 53.21875 62.890625 53.21875 53.421875 
Q 53.21875 48.921875 51.53125 44.890625 
Q 49.859375 40.875 45.40625 35.40625 
Q 44.1875 33.984375 37.640625 27.21875 
Q 31.109375 20.453125 19.1875 8.296875 
z
" id="DejaVuSans-32"/>
      </defs>
      <g transform="translate(128.914071 317.076875)scale(0.2 -0.2)">
       <use xlink:href="#DejaVuSans-32"/>
      </g>
     </g>
    </g>
    <g id="xtick_3">
     <g id="line2d_9">
      <path clip-path="url(#paf4457263e)" d="M 214.433143 294.88 
L 214.433143 24.84 
" style="fill:none;stroke:#b0b0b0;stroke-linecap:square;stroke-width:0.8;"/>
     </g>
     <g id="line2d_10">
      <g>
       <use style="stroke:#000000;stroke-width:0.8;" x="214.433143" xlink:href="#m6d84cb7dfa" y="294.88"/>
      </g>
     </g>
     <g id="text_3">
      <!-- 4 -->
      <defs>
       <path d="M 37.796875 64.3125 
L 12.890625 25.390625 
L 37.796875 25.390625 
z
M 35.203125 72.90625 
L 47.609375 72.90625 
L 47.609375 25.390625 
L 58.015625 25.390625 
L 58.015625 17.1875 
L 47.609375 17.1875 
L 47.609375 0 
L 37.796875 0 
L 37.796875 17.1875 
L 4.890625 17.1875 
L 4.890625 26.703125 
z
" id="DejaVuSans-34"/>
      </defs>
      <g transform="translate(208.070643 317.076875)scale(0.2 -0.2)">
       <use xlink:href="#DejaVuSans-34"/>
      </g>
     </g>
    </g>
    <g id="xtick_4">
     <g id="line2d_11">
      <path clip-path="url(#paf4457263e)" d="M 293.589714 294.88 
L 293.589714 24.84 
" style="fill:none;stroke:#b0b0b0;stroke-linecap:square;stroke-width:0.8;"/>
     </g>
     <g id="line2d_12">
      <g>
       <use style="stroke:#000000;stroke-width:0.8;" x="293.589714" xlink:href="#m6d84cb7dfa" y="294.88"/>
      </g>
     </g>
     <g id="text_4">
      <!-- 6 -->
      <defs>
       <path d="M 33.015625 40.375 
Q 26.375 40.375 22.484375 35.828125 
Q 18.609375 31.296875 18.609375 23.390625 
Q 18.609375 15.53125 22.484375 10.953125 
Q 26.375 6.390625 33.015625 6.390625 
Q 39.65625 6.390625 43.53125 10.953125 
Q 47.40625 15.53125 47.40625 23.390625 
Q 47.40625 31.296875 43.53125 35.828125 
Q 39.65625 40.375 33.015625 40.375 
z
M 52.59375 71.296875 
L 52.59375 62.3125 
Q 48.875 64.0625 45.09375 64.984375 
Q 41.3125 65.921875 37.59375 65.921875 
Q 27.828125 65.921875 22.671875 59.328125 
Q 17.53125 52.734375 16.796875 39.40625 
Q 19.671875 43.65625 24.015625 45.921875 
Q 28.375 48.1875 33.59375 48.1875 
Q 44.578125 48.1875 50.953125 41.515625 
Q 57.328125 34.859375 57.328125 23.390625 
Q 57.328125 12.15625 50.6875 5.359375 
Q 44.046875 -1.421875 33.015625 -1.421875 
Q 20.359375 -1.421875 13.671875 8.265625 
Q 6.984375 17.96875 6.984375 36.375 
Q 6.984375 53.65625 15.1875 63.9375 
Q 23.390625 74.21875 37.203125 74.21875 
Q 40.921875 74.21875 44.703125 73.484375 
Q 48.484375 72.75 52.59375 71.296875 
z
" id="DejaVuSans-36"/>
      </defs>
      <g transform="translate(287.227214 317.076875)scale(0.2 -0.2)">
       <use xlink:href="#DejaVuSans-36"/>
      </g>
     </g>
    </g>
    <g id="xtick_5">
     <g id="line2d_13">
      <path clip-path="url(#paf4457263e)" d="M 56.12 294.88 
L 56.12 24.84 
" style="fill:none;stroke:#b0b0b0;stroke-linecap:square;stroke-width:0.8;"/>
     </g>
     <g id="line2d_14">
      <defs>
       <path d="M 0 0 
L 0 2 
" id="m3dff6c45f7" style="stroke:#000000;stroke-width:0.6;"/>
      </defs>
      <g>
       <use style="stroke:#000000;stroke-width:0.6;" x="56.12" xlink:href="#m3dff6c45f7" y="294.88"/>
      </g>
     </g>
    </g>
    <g id="xtick_6">
     <g id="line2d_15">
      <path clip-path="url(#paf4457263e)" d="M 95.698286 294.88 
L 95.698286 24.84 
" style="fill:none;stroke:#b0b0b0;stroke-linecap:square;stroke-width:0.8;"/>
     </g>
     <g id="line2d_16">
      <g>
       <use style="stroke:#000000;stroke-width:0.6;" x="95.698286" xlink:href="#m3dff6c45f7" y="294.88"/>
      </g>
     </g>
    </g>
    <g id="xtick_7">
     <g id="line2d_17">
      <path clip-path="url(#paf4457263e)" d="M 135.276571 294.88 
L 135.276571 24.84 
" style="fill:none;stroke:#b0b0b0;stroke-linecap:square;stroke-width:0.8;"/>
     </g>
     <g id="line2d_18">
      <g>
       <use style="stroke:#000000;stroke-width:0.6;" x="135.276571" xlink:href="#m3dff6c45f7" y="294.88"/>
      </g>
     </g>
    </g>
    <g id="xtick_8">
     <g id="line2d_19">
      <path clip-path="url(#paf4457263e)" d="M 174.854857 294.88 
L 174.854857 24.84 
" style="fill:none;stroke:#b0b0b0;stroke-linecap:square;stroke-width:0.8;"/>
     </g>
     <g id="line2d_20">
      <g>
       <use style="stroke:#000000;stroke-width:0.6;" x="174.854857" xlink:href="#m3dff6c45f7" y="294.88"/>
      </g>
     </g>
    </g>
    <g id="xtick_9">
     <g id="line2d_21">
      <path clip-path="url(#paf4457263e)" d="M 214.433143 294.88 
L 214.433143 24.84 
" style="fill:none;stroke:#b0b0b0;stroke-linecap:square;stroke-width:0.8;"/>
     </g>
     <g id="line2d_22">
      <g>
       <use style="stroke:#000000;stroke-width:0.6;" x="214.433143" xlink:href="#m3dff6c45f7" y="294.88"/>
      </g>
     </g>
    </g>
    <g id="xtick_10">
     <g id="line2d_23">
      <path clip-path="url(#paf4457263e)" d="M 254.011429 294.88 
L 254.011429 24.84 
" style="fill:none;stroke:#b0b0b0;stroke-linecap:square;stroke-width:0.8;"/>
     </g>
     <g id="line2d_24">
      <g>
       <use style="stroke:#000000;stroke-width:0.6;" x="254.011429" xlink:href="#m3dff6c45f7" y="294.88"/>
      </g>
     </g>
    </g>
    <g id="xtick_11">
     <g id="line2d_25">
      <path clip-path="url(#paf4457263e)" d="M 293.589714 294.88 
L 293.589714 24.84 
" style="fill:none;stroke:#b0b0b0;stroke-linecap:square;stroke-width:0.8;"/>
     </g>
     <g id="line2d_26">
      <g>
       <use style="stroke:#000000;stroke-width:0.6;" x="293.589714" xlink:href="#m3dff6c45f7" y="294.88"/>
      </g>
     </g>
    </g>
    <g id="xtick_12">
     <g id="line2d_27">
      <path clip-path="url(#paf4457263e)" d="M 333.168 294.88 
L 333.168 24.84 
" style="fill:none;stroke:#b0b0b0;stroke-linecap:square;stroke-width:0.8;"/>
     </g>
     <g id="line2d_28">
      <g>
       <use style="stroke:#000000;stroke-width:0.6;" x="333.168" xlink:href="#m3dff6c45f7" y="294.88"/>
      </g>
     </g>
    </g>
    <g id="text_5">
     <!-- log10(# f-evals / dimension) -->
     <defs>
      <path d="M 9.421875 75.984375 
L 18.40625 75.984375 
L 18.40625 0 
L 9.421875 0 
z
" id="DejaVuSans-6c"/>
      <path d="M 30.609375 48.390625 
Q 23.390625 48.390625 19.1875 42.75 
Q 14.984375 37.109375 14.984375 27.296875 
Q 14.984375 17.484375 19.15625 11.84375 
Q 23.34375 6.203125 30.609375 6.203125 
Q 37.796875 6.203125 41.984375 11.859375 
Q 46.1875 17.53125 46.1875 27.296875 
Q 46.1875 37.015625 41.984375 42.703125 
Q 37.796875 48.390625 30.609375 48.390625 
z
M 30.609375 56 
Q 42.328125 56 49.015625 48.375 
Q 55.71875 40.765625 55.71875 27.296875 
Q 55.71875 13.875 49.015625 6.21875 
Q 42.328125 -1.421875 30.609375 -1.421875 
Q 18.84375 -1.421875 12.171875 6.21875 
Q 5.515625 13.875 5.515625 27.296875 
Q 5.515625 40.765625 12.171875 48.375 
Q 18.84375 56 30.609375 56 
z
" id="DejaVuSans-6f"/>
      <path d="M 45.40625 27.984375 
Q 45.40625 37.75 41.375 43.109375 
Q 37.359375 48.484375 30.078125 48.484375 
Q 22.859375 48.484375 18.828125 43.109375 
Q 14.796875 37.75 14.796875 27.984375 
Q 14.796875 18.265625 18.828125 12.890625 
Q 22.859375 7.515625 30.078125 7.515625 
Q 37.359375 7.515625 41.375 12.890625 
Q 45.40625 18.265625 45.40625 27.984375 
z
M 54.390625 6.78125 
Q 54.390625 -7.171875 48.1875 -13.984375 
Q 42 -20.796875 29.203125 -20.796875 
Q 24.46875 -20.796875 20.265625 -20.09375 
Q 16.0625 -19.390625 12.109375 -17.921875 
L 12.109375 -9.1875 
Q 16.0625 -11.328125 19.921875 -12.34375 
Q 23.78125 -13.375 27.78125 -13.375 
Q 36.625 -13.375 41.015625 -8.765625 
Q 45.40625 -4.15625 45.40625 5.171875 
L 45.40625 9.625 
Q 42.625 4.78125 38.28125 2.390625 
Q 33.9375 0 27.875 0 
Q 17.828125 0 11.671875 7.65625 
Q 5.515625 15.328125 5.515625 27.984375 
Q 5.515625 40.671875 11.671875 48.328125 
Q 17.828125 56 27.875 56 
Q 33.9375 56 38.28125 53.609375 
Q 42.625 51.21875 45.40625 46.390625 
L 45.40625 54.6875 
L 54.390625 54.6875 
z
" id="DejaVuSans-67"/>
      <path d="M 12.40625 8.296875 
L 28.515625 8.296875 
L 28.515625 63.921875 
L 10.984375 60.40625 
L 10.984375 69.390625 
L 28.421875 72.90625 
L 38.28125 72.90625 
L 38.28125 8.296875 
L 54.390625 8.296875 
L 54.390625 0 
L 12.40625 0 
z
" id="DejaVuSans-31"/>
      <path d="M 31 75.875 
Q 24.46875 64.65625 21.28125 53.65625 
Q 18.109375 42.671875 18.109375 31.390625 
Q 18.109375 20.125 21.3125 9.0625 
Q 24.515625 -2 31 -13.1875 
L 23.1875 -13.1875 
Q 15.875 -1.703125 12.234375 9.375 
Q 8.59375 20.453125 8.59375 31.390625 
Q 8.59375 42.28125 12.203125 53.3125 
Q 15.828125 64.359375 23.1875 75.875 
z
" id="DejaVuSans-28"/>
      <path d="M 51.125 44 
L 36.921875 44 
L 32.8125 27.6875 
L 47.125 27.6875 
z
M 43.796875 71.78125 
L 38.71875 51.515625 
L 52.984375 51.515625 
L 58.109375 71.78125 
L 65.921875 71.78125 
L 60.890625 51.515625 
L 76.125 51.515625 
L 76.125 44 
L 58.984375 44 
L 54.984375 27.6875 
L 70.515625 27.6875 
L 70.515625 20.21875 
L 53.078125 20.21875 
L 48 0 
L 40.1875 0 
L 45.21875 20.21875 
L 30.90625 20.21875 
L 25.875 0 
L 18.015625 0 
L 23.09375 20.21875 
L 7.71875 20.21875 
L 7.71875 27.6875 
L 24.90625 27.6875 
L 29 44 
L 13.28125 44 
L 13.28125 51.515625 
L 30.90625 51.515625 
L 35.890625 71.78125 
z
" id="DejaVuSans-23"/>
      <path id="DejaVuSans-20"/>
      <path d="M 37.109375 75.984375 
L 37.109375 68.5 
L 28.515625 68.5 
Q 23.6875 68.5 21.796875 66.546875 
Q 19.921875 64.59375 19.921875 59.515625 
L 19.921875 54.6875 
L 34.71875 54.6875 
L 34.71875 47.703125 
L 19.921875 47.703125 
L 19.921875 0 
L 10.890625 0 
L 10.890625 47.703125 
L 2.296875 47.703125 
L 2.296875 54.6875 
L 10.890625 54.6875 
L 10.890625 58.5 
Q 10.890625 67.625 15.140625 71.796875 
Q 19.390625 75.984375 28.609375 75.984375 
z
" id="DejaVuSans-66"/>
      <path d="M 4.890625 31.390625 
L 31.203125 31.390625 
L 31.203125 23.390625 
L 4.890625 23.390625 
z
" id="DejaVuSans-2d"/>
      <path d="M 56.203125 29.59375 
L 56.203125 25.203125 
L 14.890625 25.203125 
Q 15.484375 15.921875 20.484375 11.0625 
Q 25.484375 6.203125 34.421875 6.203125 
Q 39.59375 6.203125 44.453125 7.46875 
Q 49.3125 8.734375 54.109375 11.28125 
L 54.109375 2.78125 
Q 49.265625 0.734375 44.1875 -0.34375 
Q 39.109375 -1.421875 33.890625 -1.421875 
Q 20.796875 -1.421875 13.15625 6.1875 
Q 5.515625 13.8125 5.515625 26.8125 
Q 5.515625 40.234375 12.765625 48.109375 
Q 20.015625 56 32.328125 56 
Q 43.359375 56 49.78125 48.890625 
Q 56.203125 41.796875 56.203125 29.59375 
z
M 47.21875 32.234375 
Q 47.125 39.59375 43.09375 43.984375 
Q 39.0625 48.390625 32.421875 48.390625 
Q 24.90625 48.390625 20.390625 44.140625 
Q 15.875 39.890625 15.1875 32.171875 
z
" id="DejaVuSans-65"/>
      <path d="M 2.984375 54.6875 
L 12.5 54.6875 
L 29.59375 8.796875 
L 46.6875 54.6875 
L 56.203125 54.6875 
L 35.6875 0 
L 23.484375 0 
z
" id="DejaVuSans-76"/>
      <path d="M 34.28125 27.484375 
Q 23.390625 27.484375 19.1875 25 
Q 14.984375 22.515625 14.984375 16.5 
Q 14.984375 11.71875 18.140625 8.90625 
Q 21.296875 6.109375 26.703125 6.109375 
Q 34.1875 6.109375 38.703125 11.40625 
Q 43.21875 16.703125 43.21875 25.484375 
L 43.21875 27.484375 
z
M 52.203125 31.203125 
L 52.203125 0 
L 43.21875 0 
L 43.21875 8.296875 
Q 40.140625 3.328125 35.546875 0.953125 
Q 30.953125 -1.421875 24.3125 -1.421875 
Q 15.921875 -1.421875 10.953125 3.296875 
Q 6 8.015625 6 15.921875 
Q 6 25.140625 12.171875 29.828125 
Q 18.359375 34.515625 30.609375 34.515625 
L 43.21875 34.515625 
L 43.21875 35.40625 
Q 43.21875 41.609375 39.140625 45 
Q 35.0625 48.390625 27.6875 48.390625 
Q 23 48.390625 18.546875 47.265625 
Q 14.109375 46.140625 10.015625 43.890625 
L 10.015625 52.203125 
Q 14.9375 54.109375 19.578125 55.046875 
Q 24.21875 56 28.609375 56 
Q 40.484375 56 46.34375 49.84375 
Q 52.203125 43.703125 52.203125 31.203125 
z
" id="DejaVuSans-61"/>
      <path d="M 44.28125 53.078125 
L 44.28125 44.578125 
Q 40.484375 46.53125 36.375 47.5 
Q 32.28125 48.484375 27.875 48.484375 
Q 21.1875 48.484375 17.84375 46.4375 
Q 14.5 44.390625 14.5 40.28125 
Q 14.5 37.15625 16.890625 35.375 
Q 19.28125 33.59375 26.515625 31.984375 
L 29.59375 31.296875 
Q 39.15625 29.25 43.1875 25.515625 
Q 47.21875 21.78125 47.21875 15.09375 
Q 47.21875 7.46875 41.1875 3.015625 
Q 35.15625 -1.421875 24.609375 -1.421875 
Q 20.21875 -1.421875 15.453125 -0.5625 
Q 10.6875 0.296875 5.421875 2 
L 5.421875 11.28125 
Q 10.40625 8.6875 15.234375 7.390625 
Q 20.0625 6.109375 24.8125 6.109375 
Q 31.15625 6.109375 34.5625 8.28125 
Q 37.984375 10.453125 37.984375 14.40625 
Q 37.984375 18.0625 35.515625 20.015625 
Q 33.0625 21.96875 24.703125 23.78125 
L 21.578125 24.515625 
Q 13.234375 26.265625 9.515625 29.90625 
Q 5.8125 33.546875 5.8125 39.890625 
Q 5.8125 47.609375 11.28125 51.796875 
Q 16.75 56 26.8125 56 
Q 31.78125 56 36.171875 55.265625 
Q 40.578125 54.546875 44.28125 53.078125 
z
" id="DejaVuSans-73"/>
      <path d="M 25.390625 72.90625 
L 33.6875 72.90625 
L 8.296875 -9.28125 
L 0 -9.28125 
z
" id="DejaVuSans-2f"/>
      <path d="M 45.40625 46.390625 
L 45.40625 75.984375 
L 54.390625 75.984375 
L 54.390625 0 
L 45.40625 0 
L 45.40625 8.203125 
Q 42.578125 3.328125 38.25 0.953125 
Q 33.9375 -1.421875 27.875 -1.421875 
Q 17.96875 -1.421875 11.734375 6.484375 
Q 5.515625 14.40625 5.515625 27.296875 
Q 5.515625 40.1875 11.734375 48.09375 
Q 17.96875 56 27.875 56 
Q 33.9375 56 38.25 53.625 
Q 42.578125 51.265625 45.40625 46.390625 
z
M 14.796875 27.296875 
Q 14.796875 17.390625 18.875 11.75 
Q 22.953125 6.109375 30.078125 6.109375 
Q 37.203125 6.109375 41.296875 11.75 
Q 45.40625 17.390625 45.40625 27.296875 
Q 45.40625 37.203125 41.296875 42.84375 
Q 37.203125 48.484375 30.078125 48.484375 
Q 22.953125 48.484375 18.875 42.84375 
Q 14.796875 37.203125 14.796875 27.296875 
z
" id="DejaVuSans-64"/>
      <path d="M 9.421875 54.6875 
L 18.40625 54.6875 
L 18.40625 0 
L 9.421875 0 
z
M 9.421875 75.984375 
L 18.40625 75.984375 
L 18.40625 64.59375 
L 9.421875 64.59375 
z
" id="DejaVuSans-69"/>
      <path d="M 52 44.1875 
Q 55.375 50.25 60.0625 53.125 
Q 64.75 56 71.09375 56 
Q 79.640625 56 84.28125 50.015625 
Q 88.921875 44.046875 88.921875 33.015625 
L 88.921875 0 
L 79.890625 0 
L 79.890625 32.71875 
Q 79.890625 40.578125 77.09375 44.375 
Q 74.3125 48.1875 68.609375 48.1875 
Q 61.625 48.1875 57.5625 43.546875 
Q 53.515625 38.921875 53.515625 30.90625 
L 53.515625 0 
L 44.484375 0 
L 44.484375 32.71875 
Q 44.484375 40.625 41.703125 44.40625 
Q 38.921875 48.1875 33.109375 48.1875 
Q 26.21875 48.1875 22.15625 43.53125 
Q 18.109375 38.875 18.109375 30.90625 
L 18.109375 0 
L 9.078125 0 
L 9.078125 54.6875 
L 18.109375 54.6875 
L 18.109375 46.1875 
Q 21.1875 51.21875 25.484375 53.609375 
Q 29.78125 56 35.6875 56 
Q 41.65625 56 45.828125 52.96875 
Q 50 49.953125 52 44.1875 
z
" id="DejaVuSans-6d"/>
      <path d="M 54.890625 33.015625 
L 54.890625 0 
L 45.90625 0 
L 45.90625 32.71875 
Q 45.90625 40.484375 42.875 44.328125 
Q 39.84375 48.1875 33.796875 48.1875 
Q 26.515625 48.1875 22.3125 43.546875 
Q 18.109375 38.921875 18.109375 30.90625 
L 18.109375 0 
L 9.078125 0 
L 9.078125 54.6875 
L 18.109375 54.6875 
L 18.109375 46.1875 
Q 21.34375 51.125 25.703125 53.5625 
Q 30.078125 56 35.796875 56 
Q 45.21875 56 50.046875 50.171875 
Q 54.890625 44.34375 54.890625 33.015625 
z
" id="DejaVuSans-6e"/>
      <path d="M 8.015625 75.875 
L 15.828125 75.875 
Q 23.140625 64.359375 26.78125 53.3125 
Q 30.421875 42.28125 30.421875 31.390625 
Q 30.421875 20.453125 26.78125 9.375 
Q 23.140625 -1.703125 15.828125 -13.1875 
L 8.015625 -13.1875 
Q 14.5 -2 17.703125 9.0625 
Q 20.90625 20.125 20.90625 31.390625 
Q 20.90625 42.671875 17.703125 53.65625 
Q 14.5 64.65625 8.015625 75.875 
z
" id="DejaVuSans-29"/>
     </defs>
     <g transform="translate(73.803219 338.153594)scale(0.17 -0.17)">
      <use xlink:href="#DejaVuSans-6c"/>
      <use x="27.783203" xlink:href="#DejaVuSans-6f"/>
      <use x="88.964844" xlink:href="#DejaVuSans-67"/>
      <use x="152.441406" xlink:href="#DejaVuSans-31"/>
      <use x="216.064453" xlink:href="#DejaVuSans-30"/>
      <use x="279.6875" xlink:href="#DejaVuSans-28"/>
      <use x="318.701172" xlink:href="#DejaVuSans-23"/>
      <use x="402.490234" xlink:href="#DejaVuSans-20"/>
      <use x="434.277344" xlink:href="#DejaVuSans-66"/>
      <use x="469.404297" xlink:href="#DejaVuSans-2d"/>
      <use x="505.488281" xlink:href="#DejaVuSans-65"/>
      <use x="567.011719" xlink:href="#DejaVuSans-76"/>
      <use x="626.191406" xlink:href="#DejaVuSans-61"/>
      <use x="687.470703" xlink:href="#DejaVuSans-6c"/>
      <use x="715.253906" xlink:href="#DejaVuSans-73"/>
      <use x="767.353516" xlink:href="#DejaVuSans-20"/>
      <use x="799.140625" xlink:href="#DejaVuSans-2f"/>
      <use x="832.832031" xlink:href="#DejaVuSans-20"/>
      <use x="864.619141" xlink:href="#DejaVuSans-64"/>
      <use x="928.095703" xlink:href="#DejaVuSans-69"/>
      <use x="955.878906" xlink:href="#DejaVuSans-6d"/>
      <use x="1053.291016" xlink:href="#DejaVuSans-65"/>
      <use x="1114.814453" xlink:href="#DejaVuSans-6e"/>
      <use x="1178.193359" xlink:href="#DejaVuSans-73"/>
      <use x="1230.292969" xlink:href="#DejaVuSans-69"/>
      <use x="1258.076172" xlink:href="#DejaVuSans-6f"/>
      <use x="1319.257812" xlink:href="#DejaVuSans-6e"/>
      <use x="1382.636719" xlink:href="#DejaVuSans-29"/>
     </g>
    </g>
   </g>
   <g id="matplotlib.axis_2">
    <g id="ytick_1">
     <g id="line2d_29">
      <path clip-path="url(#paf4457263e)" d="M 56.12 294.88 
L 333.168 294.88 
" style="fill:none;stroke:#b0b0b0;stroke-linecap:square;stroke-width:0.8;"/>
     </g>
     <g id="line2d_30">
      <defs>
       <path d="M 0 0 
L -3.5 0 
" id="m0d46e76d71" style="stroke:#000000;stroke-width:0.8;"/>
      </defs>
      <g>
       <use style="stroke:#000000;stroke-width:0.8;" x="56.12" xlink:href="#m0d46e76d71" y="294.88"/>
      </g>
     </g>
     <g id="text_6">
      <!-- 0.0 -->
      <defs>
       <path d="M 10.6875 12.40625 
L 21 12.40625 
L 21 0 
L 10.6875 0 
z
" id="DejaVuSans-2e"/>
      </defs>
      <g transform="translate(23.675 300.95875)scale(0.16 -0.16)">
       <use xlink:href="#DejaVuSans-30"/>
       <use x="63.623047" xlink:href="#DejaVuSans-2e"/>
       <use x="95.410156" xlink:href="#DejaVuSans-30"/>
      </g>
     </g>
    </g>
    <g id="ytick_2">
     <g id="line2d_31">
      <path clip-path="url(#paf4457263e)" d="M 56.12 241.406733 
L 333.168 241.406733 
" style="fill:none;stroke:#b0b0b0;stroke-linecap:square;stroke-width:0.8;"/>
     </g>
     <g id="line2d_32">
      <g>
       <use style="stroke:#000000;stroke-width:0.8;" x="56.12" xlink:href="#m0d46e76d71" y="241.406733"/>
      </g>
     </g>
     <g id="text_7">
      <!-- 0.2 -->
      <g transform="translate(23.675 247.485483)scale(0.16 -0.16)">
       <use xlink:href="#DejaVuSans-30"/>
       <use x="63.623047" xlink:href="#DejaVuSans-2e"/>
       <use x="95.410156" xlink:href="#DejaVuSans-32"/>
      </g>
     </g>
    </g>
    <g id="ytick_3">
     <g id="line2d_33">
      <path clip-path="url(#paf4457263e)" d="M 56.12 187.933465 
L 333.168 187.933465 
" style="fill:none;stroke:#b0b0b0;stroke-linecap:square;stroke-width:0.8;"/>
     </g>
     <g id="line2d_34">
      <g>
       <use style="stroke:#000000;stroke-width:0.8;" x="56.12" xlink:href="#m0d46e76d71" y="187.933465"/>
      </g>
     </g>
     <g id="text_8">
      <!-- 0.4 -->
      <g transform="translate(23.675 194.012215)scale(0.16 -0.16)">
       <use xlink:href="#DejaVuSans-30"/>
       <use x="63.623047" xlink:href="#DejaVuSans-2e"/>
       <use x="95.410156" xlink:href="#DejaVuSans-34"/>
      </g>
     </g>
    </g>
    <g id="ytick_4">
     <g id="line2d_35">
      <path clip-path="url(#paf4457263e)" d="M 56.12 134.460198 
L 333.168 134.460198 
" style="fill:none;stroke:#b0b0b0;stroke-linecap:square;stroke-width:0.8;"/>
     </g>
     <g id="line2d_36">
      <g>
       <use style="stroke:#000000;stroke-width:0.8;" x="56.12" xlink:href="#m0d46e76d71" y="134.460198"/>
      </g>
     </g>
     <g id="text_9">
      <!-- 0.6 -->
      <g transform="translate(23.675 140.538948)scale(0.16 -0.16)">
       <use xlink:href="#DejaVuSans-30"/>
       <use x="63.623047" xlink:href="#DejaVuSans-2e"/>
       <use x="95.410156" xlink:href="#DejaVuSans-36"/>
      </g>
     </g>
    </g>
    <g id="ytick_5">
     <g id="line2d_37">
      <path clip-path="url(#paf4457263e)" d="M 56.12 80.986931 
L 333.168 80.986931 
" style="fill:none;stroke:#b0b0b0;stroke-linecap:square;stroke-width:0.8;"/>
     </g>
     <g id="line2d_38">
      <g>
       <use style="stroke:#000000;stroke-width:0.8;" x="56.12" xlink:href="#m0d46e76d71" y="80.986931"/>
      </g>
     </g>
     <g id="text_10">
      <!-- 0.8 -->
      <defs>
       <path d="M 31.78125 34.625 
Q 24.75 34.625 20.71875 30.859375 
Q 16.703125 27.09375 16.703125 20.515625 
Q 16.703125 13.921875 20.71875 10.15625 
Q 24.75 6.390625 31.78125 6.390625 
Q 38.8125 6.390625 42.859375 10.171875 
Q 46.921875 13.96875 46.921875 20.515625 
Q 46.921875 27.09375 42.890625 30.859375 
Q 38.875 34.625 31.78125 34.625 
z
M 21.921875 38.8125 
Q 15.578125 40.375 12.03125 44.71875 
Q 8.5 49.078125 8.5 55.328125 
Q 8.5 64.0625 14.71875 69.140625 
Q 20.953125 74.21875 31.78125 74.21875 
Q 42.671875 74.21875 48.875 69.140625 
Q 55.078125 64.0625 55.078125 55.328125 
Q 55.078125 49.078125 51.53125 44.71875 
Q 48 40.375 41.703125 38.8125 
Q 48.828125 37.15625 52.796875 32.3125 
Q 56.78125 27.484375 56.78125 20.515625 
Q 56.78125 9.90625 50.3125 4.234375 
Q 43.84375 -1.421875 31.78125 -1.421875 
Q 19.734375 -1.421875 13.25 4.234375 
Q 6.78125 9.90625 6.78125 20.515625 
Q 6.78125 27.484375 10.78125 32.3125 
Q 14.796875 37.15625 21.921875 38.8125 
z
M 18.3125 54.390625 
Q 18.3125 48.734375 21.84375 45.5625 
Q 25.390625 42.390625 31.78125 42.390625 
Q 38.140625 42.390625 41.71875 45.5625 
Q 45.3125 48.734375 45.3125 54.390625 
Q 45.3125 60.0625 41.71875 63.234375 
Q 38.140625 66.40625 31.78125 66.40625 
Q 25.390625 66.40625 21.84375 63.234375 
Q 18.3125 60.0625 18.3125 54.390625 
z
" id="DejaVuSans-38"/>
      </defs>
      <g transform="translate(23.675 87.065681)scale(0.16 -0.16)">
       <use xlink:href="#DejaVuSans-30"/>
       <use x="63.623047" xlink:href="#DejaVuSans-2e"/>
       <use x="95.410156" xlink:href="#DejaVuSans-38"/>
      </g>
     </g>
    </g>
    <g id="ytick_6">
     <g id="line2d_39">
      <path clip-path="url(#paf4457263e)" d="M 56.12 27.513663 
L 333.168 27.513663 
" style="fill:none;stroke:#b0b0b0;stroke-linecap:square;stroke-width:0.8;"/>
     </g>
     <g id="line2d_40">
      <g>
       <use style="stroke:#000000;stroke-width:0.8;" x="56.12" xlink:href="#m0d46e76d71" y="27.513663"/>
      </g>
     </g>
     <g id="text_11">
      <!-- 1.0 -->
      <g transform="translate(23.675 33.592413)scale(0.16 -0.16)">
       <use xlink:href="#DejaVuSans-31"/>
       <use x="63.623047" xlink:href="#DejaVuSans-2e"/>
       <use x="95.410156" xlink:href="#DejaVuSans-30"/>
      </g>
     </g>
    </g>
    <g id="text_12">
     <!-- Fraction of function,target pairs -->
     <defs>
      <path d="M 9.8125 72.90625 
L 51.703125 72.90625 
L 51.703125 64.59375 
L 19.671875 64.59375 
L 19.671875 43.109375 
L 48.578125 43.109375 
L 48.578125 34.8125 
L 19.671875 34.8125 
L 19.671875 0 
L 9.8125 0 
z
" id="DejaVuSans-46"/>
      <path d="M 41.109375 46.296875 
Q 39.59375 47.171875 37.8125 47.578125 
Q 36.03125 48 33.890625 48 
Q 26.265625 48 22.1875 43.046875 
Q 18.109375 38.09375 18.109375 28.8125 
L 18.109375 0 
L 9.078125 0 
L 9.078125 54.6875 
L 18.109375 54.6875 
L 18.109375 46.1875 
Q 20.953125 51.171875 25.484375 53.578125 
Q 30.03125 56 36.53125 56 
Q 37.453125 56 38.578125 55.875 
Q 39.703125 55.765625 41.0625 55.515625 
z
" id="DejaVuSans-72"/>
      <path d="M 48.78125 52.59375 
L 48.78125 44.1875 
Q 44.96875 46.296875 41.140625 47.34375 
Q 37.3125 48.390625 33.40625 48.390625 
Q 24.65625 48.390625 19.8125 42.84375 
Q 14.984375 37.3125 14.984375 27.296875 
Q 14.984375 17.28125 19.8125 11.734375 
Q 24.65625 6.203125 33.40625 6.203125 
Q 37.3125 6.203125 41.140625 7.25 
Q 44.96875 8.296875 48.78125 10.40625 
L 48.78125 2.09375 
Q 45.015625 0.34375 40.984375 -0.53125 
Q 36.96875 -1.421875 32.421875 -1.421875 
Q 20.0625 -1.421875 12.78125 6.34375 
Q 5.515625 14.109375 5.515625 27.296875 
Q 5.515625 40.671875 12.859375 48.328125 
Q 20.21875 56 33.015625 56 
Q 37.15625 56 41.109375 55.140625 
Q 45.0625 54.296875 48.78125 52.59375 
z
" id="DejaVuSans-63"/>
      <path d="M 18.3125 70.21875 
L 18.3125 54.6875 
L 36.8125 54.6875 
L 36.8125 47.703125 
L 18.3125 47.703125 
L 18.3125 18.015625 
Q 18.3125 11.328125 20.140625 9.421875 
Q 21.96875 7.515625 27.59375 7.515625 
L 36.8125 7.515625 
L 36.8125 0 
L 27.59375 0 
Q 17.1875 0 13.234375 3.875 
Q 9.28125 7.765625 9.28125 18.015625 
L 9.28125 47.703125 
L 2.6875 47.703125 
L 2.6875 54.6875 
L 9.28125 54.6875 
L 9.28125 70.21875 
z
" id="DejaVuSans-74"/>
      <path d="M 8.5 21.578125 
L 8.5 54.6875 
L 17.484375 54.6875 
L 17.484375 21.921875 
Q 17.484375 14.15625 20.5 10.265625 
Q 23.53125 6.390625 29.59375 6.390625 
Q 36.859375 6.390625 41.078125 11.03125 
Q 45.3125 15.671875 45.3125 23.6875 
L 45.3125 54.6875 
L 54.296875 54.6875 
L 54.296875 0 
L 45.3125 0 
L 45.3125 8.40625 
Q 42.046875 3.421875 37.71875 1 
Q 33.40625 -1.421875 27.6875 -1.421875 
Q 18.265625 -1.421875 13.375 4.4375 
Q 8.5 10.296875 8.5 21.578125 
z
M 31.109375 56 
z
" id="DejaVuSans-75"/>
      <path d="M 11.71875 12.40625 
L 22.015625 12.40625 
L 22.015625 4 
L 14.015625 -11.625 
L 7.71875 -11.625 
L 11.71875 4 
z
" id="DejaVuSans-2c"/>
      <path d="M 18.109375 8.203125 
L 18.109375 -20.796875 
L 9.078125 -20.796875 
L 9.078125 54.6875 
L 18.109375 54.6875 
L 18.109375 46.390625 
Q 20.953125 51.265625 25.265625 53.625 
Q 29.59375 56 35.59375 56 
Q 45.5625 56 51.78125 48.09375 
Q 58.015625 40.1875 58.015625 27.296875 
Q 58.015625 14.40625 51.78125 6.484375 
Q 45.5625 -1.421875 35.59375 -1.421875 
Q 29.59375 -1.421875 25.265625 0.953125 
Q 20.953125 3.328125 18.109375 8.203125 
z
M 48.6875 27.296875 
Q 48.6875 37.203125 44.609375 42.84375 
Q 40.53125 48.484375 33.40625 48.484375 
Q 26.265625 48.484375 22.1875 42.84375 
Q 18.109375 37.203125 18.109375 27.296875 
Q 18.109375 17.390625 22.1875 11.75 
Q 26.265625 6.109375 33.40625 6.109375 
Q 40.53125 6.109375 44.609375 11.75 
Q 48.6875 17.390625 48.6875 27.296875 
z
" id="DejaVuSans-70"/>
     </defs>
     <g transform="translate(16.139531 294.999375)rotate(-90)scale(0.17 -0.17)">
      <use xlink:href="#DejaVuSans-46"/>
      <use x="57.410156" xlink:href="#DejaVuSans-72"/>
      <use x="98.523438" xlink:href="#DejaVuSans-61"/>
      <use x="159.802734" xlink:href="#DejaVuSans-63"/>
      <use x="214.783203" xlink:href="#DejaVuSans-74"/>
      <use x="253.992188" xlink:href="#DejaVuSans-69"/>
      <use x="281.775391" xlink:href="#DejaVuSans-6f"/>
      <use x="342.957031" xlink:href="#DejaVuSans-6e"/>
      <use x="406.335938" xlink:href="#DejaVuSans-20"/>
      <use x="438.123047" xlink:href="#DejaVuSans-6f"/>
      <use x="499.304688" xlink:href="#DejaVuSans-66"/>
      <use x="534.509766" xlink:href="#DejaVuSans-20"/>
      <use x="566.296875" xlink:href="#DejaVuSans-66"/>
      <use x="601.501953" xlink:href="#DejaVuSans-75"/>
      <use x="664.880859" xlink:href="#DejaVuSans-6e"/>
      <use x="728.259766" xlink:href="#DejaVuSans-63"/>
      <use x="783.240234" xlink:href="#DejaVuSans-74"/>
      <use x="822.449219" xlink:href="#DejaVuSans-69"/>
      <use x="850.232422" xlink:href="#DejaVuSans-6f"/>
      <use x="911.414062" xlink:href="#DejaVuSans-6e"/>
      <use x="974.792969" xlink:href="#DejaVuSans-2c"/>
      <use x="1006.580078" xlink:href="#DejaVuSans-74"/>
      <use x="1045.789062" xlink:href="#DejaVuSans-61"/>
      <use x="1107.068359" xlink:href="#DejaVuSans-72"/>
      <use x="1148.166016" xlink:href="#DejaVuSans-67"/>
      <use x="1211.642578" xlink:href="#DejaVuSans-65"/>
      <use x="1273.166016" xlink:href="#DejaVuSans-74"/>
      <use x="1312.375" xlink:href="#DejaVuSans-20"/>
      <use x="1344.162109" xlink:href="#DejaVuSans-70"/>
      <use x="1407.638672" xlink:href="#DejaVuSans-61"/>
      <use x="1468.917969" xlink:href="#DejaVuSans-69"/>
      <use x="1496.701172" xlink:href="#DejaVuSans-72"/>
      <use x="1537.814453" xlink:href="#DejaVuSans-73"/>
     </g>
    </g>
   </g>
   <g id="line2d_41">
    <defs>
     <path d="M 0 1.5 
C 0.397805 1.5 0.77937 1.341951 1.06066 1.06066 
C 1.341951 0.77937 1.5 0.397805 1.5 0 
C 1.5 -0.397805 1.341951 -0.77937 1.06066 -1.06066 
C 0.77937 -1.341951 0.397805 -1.5 0 -1.5 
C -0.397805 -1.5 -0.77937 -1.341951 -1.06066 -1.06066 
C -1.341951 -0.77937 -1.5 -0.397805 -1.5 0 
C -1.5 0.397805 -1.341951 0.77937 -1.06066 1.06066 
C -0.77937 1.341951 -0.397805 1.5 0 1.5 
z
" id="m2aff89be42" style="stroke:#f5deb3;"/>
    </defs>
    <g>
     <use style="fill:#f5deb3;stroke:#f5deb3;" x="309.795296" xlink:href="#m2aff89be42" y="27.513663"/>
     <use style="fill:#f5deb3;stroke:#f5deb3;" x="309.795296" xlink:href="#m2aff89be42" y="27.513663"/>
    </g>
   </g>
   <g id="line2d_42">
    <defs>
     <path d="M 0 1.5 
C 0.397805 1.5 0.77937 1.341951 1.06066 1.06066 
C 1.341951 0.77937 1.5 0.397805 1.5 0 
C 1.5 -0.397805 1.341951 -0.77937 1.06066 -1.06066 
C 0.77937 -1.341951 0.397805 -1.5 0 -1.5 
C -0.397805 -1.5 -0.77937 -1.341951 -1.06066 -1.06066 
C -1.341951 -0.77937 -1.5 -0.397805 -1.5 0 
C -1.5 0.397805 -1.341951 0.77937 -1.06066 1.06066 
C -0.77937 1.341951 -0.397805 1.5 0 1.5 
z
" id="mef4524c2ab" style="stroke:#000080;"/>
    </defs>
    <g>
     <use style="fill:#000080;stroke:#000080;" x="218.42745" xlink:href="#mef4524c2ab" y="268.667614"/>
     <use style="fill:#000080;stroke:#000080;" x="218.42745" xlink:href="#mef4524c2ab" y="268.667614"/>
    </g>
   </g>
   <g id="line2d_43">
    <path d="M 28.455965 294.88 
L 28.455965 289.113275 
L 52.284468 289.113275 
L 52.284468 288.589027 
L 59.253858 288.589027 
L 59.253858 287.540532 
L 61.903497 287.540532 
L 61.903497 286.492036 
L 64.198719 286.492036 
L 64.198719 285.967789 
L 66.223248 285.967789 
L 66.223248 285.443541 
L 69.672503 285.443541 
L 69.672503 284.919293 
L 76.11297 284.919293 
L 76.11297 284.395046 
L 79.066841 284.395046 
L 79.066841 283.870798 
L 103.777005 283.870798 
L 103.777005 282.822302 
L 109.406343 282.822302 
L 109.406343 282.298055 
L 117.715785 282.298055 
L 117.715785 281.773807 
L 121.854208 281.773807 
L 121.854208 281.249559 
L 125.734717 281.249559 
L 125.734717 280.725312 
L 129.437982 280.725312 
L 129.437982 279.676816 
L 132.279675 279.676816 
L 132.279675 279.152568 
L 136.599426 279.152568 
L 136.599426 278.628321 
L 143.35529 278.628321 
L 143.35529 278.104073 
L 143.568817 278.104073 
L 143.568817 277.579825 
L 148.433916 277.579825 
L 148.433916 277.055578 
L 150.324681 277.055578 
L 150.324681 276.53133 
L 156.472615 276.53133 
L 156.472615 276.007082 
L 165.609878 276.007082 
L 165.609878 275.482834 
L 170.495773 275.482834 
L 170.495773 274.958587 
L 173.849719 274.958587 
L 173.849719 274.434339 
L 181.467634 274.434339 
L 181.467634 273.910091 
L 181.58423 273.910091 
L 181.58423 273.385844 
L 184.804634 273.385844 
L 184.804634 272.861596 
L 188.74774 272.861596 
L 188.74774 272.337348 
L 189.408923 272.337348 
L 189.408923 271.8131 
L 190.00579 271.8131 
L 190.00579 271.288853 
L 197.978104 271.288853 
L 197.978104 270.764605 
L 210.954834 270.764605 
L 210.954834 270.240357 
L 211.436247 270.240357 
L 211.436247 269.716109 
L 214.155901 269.716109 
L 214.155901 269.191862 
L 218.42745 269.191862 
L 218.42745 268.667614 
L 333.168 268.667614 
" style="fill:none;stroke:#000080;stroke-linecap:square;stroke-width:1.5;"/>
   </g>
   <g id="line2d_44">
    <defs>
     <path d="M 0 6 
C 1.591219 6 3.117479 5.367802 4.242641 4.242641 
C 5.367802 3.117479 6 1.591219 6 0 
C 6 -1.591219 5.367802 -3.117479 4.242641 -4.242641 
C 3.117479 -5.367802 1.591219 -6 0 -6 
C -1.591219 -6 -3.117479 -5.367802 -4.242641 -4.242641 
C -5.367802 -3.117479 -6 -1.591219 -6 0 
C -6 1.591219 -5.367802 3.117479 -4.242641 4.242641 
C -3.117479 5.367802 -1.591219 6 0 6 
z
" id="m3191dae266" style="stroke:#000080;stroke-width:1.5;"/>
    </defs>
    <g>
     <use style="fill:none;stroke:#000080;stroke-width:1.5;" x="129.437982" xlink:href="#m3191dae266" y="279.676816"/>
     <use style="fill:none;stroke:#000080;stroke-width:1.5;" x="189.408923" xlink:href="#m3191dae266" y="271.8131"/>
     <use style="fill:none;stroke:#000080;stroke-width:1.5;" x="218.42745" xlink:href="#m3191dae266" y="269.191862"/>
     <use style="fill:none;stroke:#000080;stroke-width:1.5;" x="218.42745" xlink:href="#m3191dae266" y="268.667614"/>
     <use style="fill:none;stroke:#000080;stroke-width:1.5;" x="218.42745" xlink:href="#m3191dae266" y="268.667614"/>
     <use style="fill:none;stroke:#000080;stroke-width:1.5;" x="333.168" xlink:href="#m3191dae266" y="268.667614"/>
    </g>
   </g>
   <g id="line2d_45">
    <path style="fill:none;stroke:#000080;stroke-linecap:square;stroke-width:1.5;"/>
    <g/>
   </g>
   <g id="line2d_46">
    <path clip-path="url(#paf4457263e)" d="M 191.978349 271.288853 
" style="fill:none;stroke:#000080;stroke-linecap:square;stroke-width:1.5;"/>
    <defs>
     <path d="M -12 12 
L 12 -12 
M -12 -12 
L 12 12 
" id="m0d4834679d" style="stroke:#000080;"/>
    </defs>
    <g clip-path="url(#paf4457263e)">
     <use style="fill:#000080;stroke:#000080;" x="191.978349" xlink:href="#m0d4834679d" y="271.288853"/>
    </g>
   </g>
   <g id="line2d_47">
    <defs>
     <path d="M 0 1.5 
C 0.397805 1.5 0.77937 1.341951 1.06066 1.06066 
C 1.341951 0.77937 1.5 0.397805 1.5 0 
C 1.5 -0.397805 1.341951 -0.77937 1.06066 -1.06066 
C 0.77937 -1.341951 0.397805 -1.5 0 -1.5 
C -0.397805 -1.5 -0.77937 -1.341951 -1.06066 -1.06066 
C -1.341951 -0.77937 -1.5 -0.397805 -1.5 0 
C -1.5 0.397805 -1.341951 0.77937 -1.06066 1.06066 
C -0.77937 1.341951 -0.397805 1.5 0 1.5 
z
" id="mbda4be3002" style="stroke:#ff00ff;"/>
    </defs>
    <g>
     <use style="fill:#ff00ff;stroke:#ff00ff;" x="278.909651" xlink:href="#mbda4be3002" y="237.212751"/>
     <use style="fill:#ff00ff;stroke:#ff00ff;" x="278.909651" xlink:href="#mbda4be3002" y="237.212751"/>
    </g>
   </g>
   <g id="line2d_48">
    <path d="M 28.455965 294.88 
L 28.455965 290.686018 
L 40.370217 290.686018 
L 40.370217 287.540532 
L 47.339607 287.540532 
L 47.339607 286.492036 
L 59.253858 286.492036 
L 59.253858 285.967789 
L 66.223248 285.967789 
L 66.223248 285.443541 
L 68.034251 285.443541 
L 68.034251 284.919293 
L 69.672503 284.919293 
L 69.672503 284.395046 
L 71.168109 284.395046 
L 71.168109 283.870798 
L 73.817748 283.870798 
L 73.817748 283.34655 
L 76.11297 283.34655 
L 76.11297 282.822302 
L 85.732 282.822302 
L 85.732 282.298055 
L 90.981092 282.298055 
L 90.981092 281.773807 
L 93.105847 281.773807 
L 93.105847 281.249559 
L 95.351029 281.249559 
L 95.351029 280.725312 
L 101.23446 280.725312 
L 101.23446 280.201064 
L 104.409787 280.201064 
L 104.409787 279.676816 
L 111.855724 279.676816 
L 111.855724 279.152568 
L 111.989488 279.152568 
L 111.989488 278.104073 
L 112.253934 278.104073 
L 112.253934 277.055578 
L 112.643127 277.055578 
L 112.643127 276.53133 
L 112.770924 276.53133 
L 112.770924 276.007082 
L 113.760471 276.007082 
L 113.760471 274.958587 
L 121.474753 274.958587 
L 121.474753 274.434339 
L 125.432625 274.434339 
L 125.432625 273.910091 
L 126.948537 273.910091 
L 126.948537 273.385844 
L 128.748375 273.385844 
L 128.748375 272.861596 
L 130.604552 272.861596 
L 130.604552 272.337348 
L 131.311639 272.337348 
L 131.311639 271.8131 
L 131.441039 271.8131 
L 131.441039 271.288853 
L 136.694654 271.288853 
L 136.757848 270.240357 
L 137.224536 270.240357 
L 137.224536 269.716109 
L 138.237678 269.716109 
L 138.237678 269.191862 
L 138.918505 269.191862 
L 138.918505 268.667614 
L 140.178407 268.667614 
L 140.178407 268.143366 
L 145.531932 268.143366 
L 145.531932 267.619119 
L 147.831886 267.619119 
L 147.897996 266.570623 
L 150.481525 266.570623 
L 150.481525 266.046375 
L 151.779655 266.046375 
L 151.779655 265.522128 
L 152.323726 265.522128 
L 152.323726 264.99788 
L 152.739448 264.99788 
L 152.739448 264.473632 
L 153.02336 264.473632 
L 153.02336 263.949385 
L 153.565633 263.949385 
L 153.565633 263.425137 
L 153.812956 263.425137 
L 153.812956 262.900889 
L 154.845378 262.900889 
L 154.845378 262.376641 
L 155.140141 262.376641 
L 155.140141 261.852394 
L 155.408635 261.852394 
L 155.408635 261.328146 
L 155.536037 261.328146 
L 155.536037 260.803898 
L 156.67179 260.803898 
L 156.67179 260.279651 
L 157.188707 260.279651 
L 157.188707 259.755403 
L 157.322695 259.755403 
L 157.322695 259.231155 
L 157.811415 259.231155 
L 157.811415 258.706907 
L 158.268586 258.706907 
L 158.268586 258.18266 
L 158.492691 258.18266 
L 158.492691 257.658412 
L 158.766584 257.658412 
L 158.766584 257.134164 
L 158.932322 257.134164 
L 158.932322 256.609917 
L 159.795744 256.609917 
L 159.845207 255.037173 
L 160.499399 255.037173 
L 160.499399 254.512926 
L 160.952993 254.512926 
L 160.952993 253.988678 
L 163.240495 253.988678 
L 163.240495 253.46443 
L 164.390315 253.46443 
L 164.390315 252.940182 
L 165.138437 252.940182 
L 165.138437 252.415935 
L 165.533182 252.415935 
L 165.533182 251.891687 
L 166.431687 251.891687 
L 166.431687 251.367439 
L 167.75953 251.367439 
L 167.75953 250.843192 
L 179.057711 250.843192 
L 179.162381 249.794696 
L 180.763132 249.794696 
L 180.763132 249.270448 
L 196.055908 249.270448 
L 196.055908 248.746201 
L 196.375364 248.746201 
L 196.375364 248.221953 
L 197.804412 248.221953 
L 197.804412 247.697705 
L 203.946469 247.697705 
L 203.946469 247.173458 
L 211.032102 247.173458 
L 211.032102 246.64921 
L 211.241986 246.64921 
L 211.241986 246.124962 
L 211.423146 246.124962 
L 211.453018 245.076467 
L 213.215667 245.076467 
L 213.29225 244.027971 
L 221.139725 244.027971 
L 221.139725 243.503724 
L 223.384637 243.503724 
L 223.384637 242.979476 
L 225.726994 242.979476 
L 225.726994 242.455228 
L 229.799852 242.455228 
L 229.799852 241.93098 
L 230.939253 241.93098 
L 230.939253 241.406733 
L 235.174785 241.406733 
L 235.174785 240.882485 
L 236.021633 240.882485 
L 236.021633 240.358237 
L 237.861953 240.358237 
L 237.861953 239.83399 
L 238.014422 239.83399 
L 238.014422 239.309742 
L 252.067869 239.309742 
L 252.067869 238.785494 
L 266.162668 238.785494 
L 266.162668 238.261246 
L 266.673764 238.261246 
L 266.673764 237.736999 
L 278.909651 237.736999 
L 278.909651 237.212751 
L 333.168 237.212751 
L 333.168 237.212751 
" style="fill:none;stroke:#ff00ff;stroke-linecap:square;stroke-width:1.5;"/>
   </g>
   <g id="line2d_49">
    <defs>
     <path d="M -0 8.485281 
L 5.091169 0 
L 0 -8.485281 
L -5.091169 -0 
z
" id="m367b0aa806" style="stroke:#ff00ff;stroke-linejoin:miter;stroke-width:1.5;"/>
    </defs>
    <g>
     <use style="fill:none;stroke:#ff00ff;stroke-linejoin:miter;stroke-width:1.5;" x="69.672503" xlink:href="#m367b0aa806" y="284.395046"/>
     <use style="fill:none;stroke:#ff00ff;stroke-linejoin:miter;stroke-width:1.5;" x="131.311639" xlink:href="#m367b0aa806" y="272.337348"/>
     <use style="fill:none;stroke:#ff00ff;stroke-linejoin:miter;stroke-width:1.5;" x="203.946469" xlink:href="#m367b0aa806" y="247.173458"/>
     <use style="fill:none;stroke:#ff00ff;stroke-linejoin:miter;stroke-width:1.5;" x="252.067869" xlink:href="#m367b0aa806" y="238.785494"/>
     <use style="fill:none;stroke:#ff00ff;stroke-linejoin:miter;stroke-width:1.5;" x="278.909651" xlink:href="#m367b0aa806" y="237.212751"/>
     <use style="fill:none;stroke:#ff00ff;stroke-linejoin:miter;stroke-width:1.5;" x="333.168" xlink:href="#m367b0aa806" y="237.212751"/>
    </g>
   </g>
   <g id="line2d_50">
    <path style="fill:none;stroke:#ff00ff;stroke-linecap:square;stroke-width:1.5;"/>
    <g/>
   </g>
   <g id="line2d_51">
    <path clip-path="url(#paf4457263e)" d="M 200.677304 247.697705 
" style="fill:none;stroke:#ff00ff;stroke-linecap:square;stroke-width:1.5;"/>
    <defs>
     <path d="M -12 12 
L 12 -12 
M -12 -12 
L 12 12 
" id="m57bc7373e1" style="stroke:#ff00ff;"/>
    </defs>
    <g clip-path="url(#paf4457263e)">
     <use style="fill:#ff00ff;stroke:#ff00ff;" x="200.677304" xlink:href="#m57bc7373e1" y="247.697705"/>
    </g>
   </g>
   <g id="line2d_52">
    <defs>
     <path d="M 0 1.5 
C 0.397805 1.5 0.77937 1.341951 1.06066 1.06066 
C 1.341951 0.77937 1.5 0.397805 1.5 0 
C 1.5 -0.397805 1.341951 -0.77937 1.06066 -1.06066 
C 0.77937 -1.341951 0.397805 -1.5 0 -1.5 
C -0.397805 -1.5 -0.77937 -1.341951 -1.06066 -1.06066 
C -1.341951 -0.77937 -1.5 -0.397805 -1.5 0 
C -1.5 0.397805 -1.341951 0.77937 -1.06066 1.06066 
C -0.77937 1.341951 -0.397805 1.5 0 1.5 
z
" id="me5f174014d" style="stroke:#ff7500;"/>
    </defs>
    <g>
     <use style="fill:#ff7500;stroke:#ff7500;" x="312.677546" xlink:href="#me5f174014d" y="226.727797"/>
     <use style="fill:#ff7500;stroke:#ff7500;" x="312.677546" xlink:href="#me5f174014d" y="226.727797"/>
    </g>
   </g>
   <g id="line2d_53">
    <path d="M 28.455965 294.88 
L 28.455965 294.355752 
L 47.339607 294.355752 
L 47.339607 293.831505 
L 52.284468 293.831505 
L 52.284468 292.783009 
L 56.12 292.783009 
L 56.12 291.734514 
L 66.223248 291.734514 
L 66.223248 291.210266 
L 69.672503 291.210266 
L 69.672503 290.161771 
L 79.066841 290.161771 
L 79.066841 289.113275 
L 79.948502 289.113275 
L 79.948502 288.589027 
L 81.586754 288.589027 
L 81.586754 288.06478 
L 82.350819 288.06478 
L 82.350819 287.540532 
L 83.08236 287.540532 
L 83.08236 287.016284 
L 83.784035 287.016284 
L 83.784035 286.492036 
L 84.458185 286.492036 
L 84.458185 285.967789 
L 85.732 285.967789 
L 85.732 285.443541 
L 88.556144 285.443541 
L 88.556144 284.919293 
L 90.05175 284.919293 
L 90.05175 284.395046 
L 91.862754 284.395046 
L 91.862754 283.870798 
L 93.501005 283.870798 
L 93.501005 282.822302 
L 93.887283 282.822302 
L 93.887283 281.773807 
L 100.207968 281.773807 
L 100.207968 281.249559 
L 102.436953 281.249559 
L 102.436953 280.725312 
L 107.952917 280.725312 
L 107.952917 280.201064 
L 108.775496 280.201064 
L 108.775496 279.676816 
L 108.935392 279.676816 
L 108.935392 279.152568 
L 110.457504 279.152568 
L 110.457504 278.628321 
L 112.384646 278.628321 
L 112.384646 278.104073 
L 112.770924 278.104073 
L 112.770924 277.579825 
L 114.23467 277.579825 
L 114.23467 277.055578 
L 115.475044 277.055578 
L 115.475044 276.53133 
L 120.034863 276.53133 
L 120.034863 276.007082 
L 120.200938 276.007082 
L 120.200938 274.434339 
L 123.154809 274.434339 
L 123.154809 273.910091 
L 127.115148 273.910091 
L 127.115148 273.385844 
L 127.605507 273.385844 
L 127.605507 272.337348 
L 136.016705 272.337348 
L 136.016705 271.8131 
L 138.609803 271.8131 
L 138.609803 271.288853 
L 141.400449 271.288853 
L 141.400449 270.764605 
L 142.518803 270.764605 
L 142.518803 270.240357 
L 143.095508 270.240357 
L 143.095508 269.716109 
L 145.99879 269.716109 
L 145.99879 269.191862 
L 148.703609 269.191862 
L 148.703609 268.667614 
L 149.933519 268.667614 
L 149.933519 268.143366 
L 153.181782 268.143366 
L 153.181782 267.619119 
L 154.251642 267.619119 
L 154.251642 267.094871 
L 157.130962 267.094871 
L 157.130962 266.570623 
L 157.653165 266.570623 
L 157.653165 266.046375 
L 159.02755 266.046375 
L 159.02755 265.522128 
L 161.869737 265.522128 
L 161.869737 264.99788 
L 163.739909 264.99788 
L 163.739909 264.473632 
L 171.393375 264.473632 
L 171.393375 263.949385 
L 172.461133 263.949385 
L 172.461133 263.425137 
L 173.226229 263.425137 
L 173.226229 262.900889 
L 173.706983 262.900889 
L 173.706983 262.376641 
L 177.164254 262.376641 
L 177.164254 261.852394 
L 178.298173 261.852394 
L 178.298173 261.328146 
L 178.580029 261.328146 
L 178.580029 260.803898 
L 182.471933 260.803898 
L 182.471933 260.279651 
L 187.343806 260.279651 
L 187.343806 259.755403 
L 187.791739 259.755403 
L 187.791739 259.231155 
L 192.148879 259.231155 
L 192.148879 258.706907 
L 192.626114 258.706907 
L 192.626114 258.18266 
L 198.840772 258.18266 
L 198.840772 257.658412 
L 201.507192 257.658412 
L 201.507192 257.134164 
L 201.938541 257.134164 
L 202.019422 255.037173 
L 205.10023 255.037173 
L 205.178154 253.988678 
L 206.169167 253.988678 
L 206.169167 253.46443 
L 207.186511 253.46443 
L 207.186511 252.940182 
L 212.082435 252.940182 
L 212.124165 251.891687 
L 212.7663 251.891687 
L 212.84943 250.843192 
L 217.212434 250.843192 
L 217.212434 250.318944 
L 219.556353 250.318944 
L 219.556353 249.794696 
L 220.110233 249.794696 
L 220.110233 249.270448 
L 222.209272 249.270448 
L 222.209272 248.746201 
L 224.887815 248.746201 
L 224.902965 247.697705 
L 227.836396 247.697705 
L 227.836396 247.173458 
L 228.702264 247.173458 
L 228.702264 246.64921 
L 229.586069 246.64921 
L 229.586069 246.124962 
L 235.113377 246.124962 
L 235.128337 245.076467 
L 236.274514 245.076467 
L 236.328841 243.503724 
L 236.558021 243.503724 
L 236.558021 242.979476 
L 238.530849 242.979476 
L 238.530849 242.455228 
L 239.39301 242.455228 
L 239.39301 241.93098 
L 246.979099 241.93098 
L 246.979099 241.406733 
L 248.591618 241.406733 
L 248.591618 240.882485 
L 248.870187 240.882485 
L 248.870187 239.83399 
L 250.872056 239.83399 
L 250.872056 239.309742 
L 251.368188 239.309742 
L 251.375563 238.261246 
L 255.92206 238.261246 
L 255.92206 237.736999 
L 257.729568 237.736999 
L 257.729568 237.212751 
L 259.256913 237.212751 
L 259.269323 235.640008 
L 261.716781 235.640008 
L 261.716781 235.11576 
L 262.766839 235.11576 
L 262.766839 234.591512 
L 264.655189 234.591512 
L 264.658261 233.543017 
L 268.752472 233.543017 
L 268.752472 233.018769 
L 272.060856 233.018769 
L 272.060856 232.494521 
L 274.832258 232.494521 
L 274.832258 231.970274 
L 277.216493 231.970274 
L 277.216493 231.446026 
L 279.311483 231.446026 
L 279.311483 230.921778 
L 281.179865 230.921778 
L 281.179865 230.397531 
L 288.258938 230.397531 
L 288.258938 229.873283 
L 289.446261 229.873283 
L 289.446261 229.349035 
L 294.193847 229.349035 
L 294.193847 228.824787 
L 295.778537 228.824787 
L 295.778537 228.30054 
L 301.515392 228.30054 
L 301.515392 227.776292 
L 302.048577 227.776292 
L 302.048577 227.252044 
L 312.677546 227.252044 
L 312.677546 226.727797 
L 333.168 226.727797 
L 333.168 226.727797 
" style="fill:none;stroke:#ff7500;stroke-linecap:square;stroke-width:1.5;"/>
   </g>
   <g id="line2d_54">
    <defs>
     <path d="M 0 -6 
L -1.347084 -1.854102 
L -5.706339 -1.854102 
L -2.179628 0.708204 
L -3.526712 4.854102 
L -0 2.291796 
L 3.526712 4.854102 
L 2.179628 0.708204 
L 5.706339 -1.854102 
L 1.347084 -1.854102 
z
" id="m3a59854d8e" style="stroke:#ff7500;stroke-linejoin:bevel;stroke-width:1.5;"/>
    </defs>
    <g>
     <use style="fill:none;stroke:#ff7500;stroke-linejoin:bevel;stroke-width:1.5;" x="84.458185" xlink:href="#m3a59854d8e" y="285.967789"/>
     <use style="fill:none;stroke:#ff7500;stroke-linejoin:bevel;stroke-width:1.5;" x="127.605507" xlink:href="#m3a59854d8e" y="272.337348"/>
     <use style="fill:none;stroke:#ff7500;stroke-linejoin:bevel;stroke-width:1.5;" x="222.209272" xlink:href="#m3a59854d8e" y="248.746201"/>
     <use style="fill:none;stroke:#ff7500;stroke-linejoin:bevel;stroke-width:1.5;" x="264.658261" xlink:href="#m3a59854d8e" y="233.543017"/>
     <use style="fill:none;stroke:#ff7500;stroke-linejoin:bevel;stroke-width:1.5;" x="312.677546" xlink:href="#m3a59854d8e" y="226.727797"/>
     <use style="fill:none;stroke:#ff7500;stroke-linejoin:bevel;stroke-width:1.5;" x="333.168" xlink:href="#m3a59854d8e" y="226.727797"/>
    </g>
   </g>
   <g id="line2d_55">
    <path style="fill:none;stroke:#ff7500;stroke-linecap:square;stroke-width:1.5;"/>
    <g/>
   </g>
   <g id="line2d_56">
    <path clip-path="url(#paf4457263e)" d="M 242.09759 241.93098 
" style="fill:none;stroke:#ff7500;stroke-linecap:square;stroke-width:1.5;"/>
    <defs>
     <path d="M -12 12 
L 12 -12 
M -12 -12 
L 12 12 
" id="mea6253e644" style="stroke:#ff7500;"/>
    </defs>
    <g clip-path="url(#paf4457263e)">
     <use style="fill:#ff7500;stroke:#ff7500;" x="242.09759" xlink:href="#mea6253e644" y="241.93098"/>
    </g>
   </g>
   <g id="line2d_57">
    <defs>
     <path d="M 0 1.5 
C 0.397805 1.5 0.77937 1.341951 1.06066 1.06066 
C 1.341951 0.77937 1.5 0.397805 1.5 0 
C 1.5 -0.397805 1.341951 -0.77937 1.06066 -1.06066 
C 0.77937 -1.341951 0.397805 -1.5 0 -1.5 
C -0.397805 -1.5 -0.77937 -1.341951 -1.06066 -1.06066 
C -1.341951 -0.77937 -1.5 -0.397805 -1.5 0 
C -1.5 0.397805 -1.341951 0.77937 -1.06066 1.06066 
C -0.77937 1.341951 -0.397805 1.5 0 1.5 
z
" id="m25af02435d" style="stroke:#6495ed;"/>
    </defs>
    <g>
     <use style="fill:#6495ed;stroke:#6495ed;" x="318.846571" xlink:href="#m25af02435d" y="211.000365"/>
     <use style="fill:#6495ed;stroke:#6495ed;" x="318.846571" xlink:href="#m25af02435d" y="211.000365"/>
    </g>
   </g>
   <g id="line2d_58">
    <path d="M 28.455965 294.88 
L 28.455965 294.355752 
L 40.370217 294.355752 
L 40.370217 293.831505 
L 47.339607 293.831505 
L 47.339607 293.307257 
L 56.12 293.307257 
L 56.12 292.783009 
L 61.903497 292.783009 
L 61.903497 292.258761 
L 64.198719 292.258761 
L 64.198719 291.734514 
L 66.223248 291.734514 
L 66.223248 289.113275 
L 68.034251 289.113275 
L 68.034251 288.589027 
L 72.543934 288.589027 
L 72.543934 287.540532 
L 73.817748 287.540532 
L 73.817748 287.016284 
L 86.917893 287.016284 
L 86.917893 286.492036 
L 88.556144 286.492036 
L 88.556144 285.967789 
L 92.287186 285.967789 
L 92.287186 285.443541 
L 99.395756 285.443541 
L 99.395756 284.919293 
L 99.67078 284.919293 
L 99.67078 284.395046 
L 99.941473 284.395046 
L 99.941473 283.870798 
L 100.207968 283.870798 
L 100.207968 283.34655 
L 100.983527 283.34655 
L 100.983527 282.298055 
L 104.819059 282.298055 
L 104.819059 281.773807 
L 105.020098 281.773807 
L 105.020098 281.249559 
L 109.406343 281.249559 
L 109.406343 280.201064 
L 110.014853 280.201064 
L 110.014853 279.676816 
L 110.163674 279.676816 
L 110.163674 279.152568 
L 115.904782 279.152568 
L 115.904782 278.628321 
L 116.427273 278.628321 
L 116.427273 278.104073 
L 117.133064 278.104073 
L 117.133064 277.579825 
L 117.426894 277.579825 
L 117.426894 277.055578 
L 118.186736 277.055578 
L 118.186736 276.53133 
L 121.70343 276.53133 
L 121.70343 276.007082 
L 121.929105 276.007082 
L 121.929105 275.482834 
L 122.298767 275.482834 
L 122.298767 274.434339 
L 125.734717 274.434339 
L 125.734717 273.910091 
L 126.323427 273.910091 
L 126.323427 272.861596 
L 126.836558 272.861596 
L 126.836558 272.337348 
L 129.582224 272.337348 
L 129.582224 271.8131 
L 130.604552 271.8131 
L 130.604552 271.288853 
L 132.032353 271.288853 
L 132.032353 270.764605 
L 132.483094 270.764605 
L 132.52349 269.191862 
L 134.431058 269.191862 
L 134.431058 268.667614 
L 135.06906 268.667614 
L 135.06906 268.143366 
L 135.24216 268.143366 
L 135.24216 267.619119 
L 138.004608 267.619119 
L 138.004608 267.094871 
L 138.324271 267.094871 
L 138.324271 266.570623 
L 162.037219 266.570623 
L 162.037219 266.046375 
L 164.20607 266.046375 
L 164.269826 264.99788 
L 164.659921 264.99788 
L 164.659921 264.473632 
L 164.998716 264.473632 
L 164.998716 263.949385 
L 165.71551 263.949385 
L 165.791398 262.900889 
L 166.896722 262.900889 
L 166.896722 262.376641 
L 177.676501 262.376641 
L 177.784103 261.328146 
L 178.816434 261.328146 
L 178.816434 260.803898 
L 179.092672 260.803898 
L 179.092672 260.279651 
L 179.522476 260.279651 
L 179.522476 259.755403 
L 188.593857 259.755403 
L 188.593857 259.231155 
L 198.592881 259.231155 
L 198.592881 258.706907 
L 206.728205 258.706907 
L 206.728205 258.18266 
L 208.223139 258.18266 
L 208.292564 257.134164 
L 208.368071 257.134164 
L 208.409605 256.085669 
L 208.527794 256.085669 
L 208.527794 255.561421 
L 209.07448 255.561421 
L 209.07448 255.037173 
L 228.744927 255.037173 
L 228.744927 254.512926 
L 228.910529 254.512926 
L 228.910529 253.988678 
L 255.195708 253.988678 
L 255.273251 251.891687 
L 257.586452 251.891687 
L 257.667346 249.794696 
L 257.817839 249.794696 
L 257.825771 248.746201 
L 266.596243 248.746201 
L 266.596243 248.221953 
L 267.862545 248.221953 
L 267.967801 245.600714 
L 273.369391 245.600714 
L 273.381916 242.979476 
L 277.963886 242.979476 
L 277.963886 242.455228 
L 278.184372 242.455228 
L 278.239375 240.358237 
L 278.903851 240.358237 
L 278.903851 239.83399 
L 281.962077 239.83399 
L 282.01552 238.261246 
L 282.527262 238.261246 
L 282.539376 237.212751 
L 284.918426 237.212751 
L 284.918426 236.688503 
L 285.065609 236.688503 
L 285.099517 235.11576 
L 287.689217 235.11576 
L 287.739311 234.067265 
L 288.062123 234.067265 
L 288.062123 233.543017 
L 289.997603 233.543017 
L 289.997603 233.018769 
L 290.304414 233.018769 
L 290.304414 232.494521 
L 291.870159 232.494521 
L 291.870159 231.970274 
L 292.296422 231.970274 
L 292.327494 230.921778 
L 293.764416 230.921778 
L 293.79348 228.824787 
L 294.059712 228.824787 
L 294.059712 228.30054 
L 295.662889 228.30054 
L 295.662889 227.776292 
L 296.911314 227.776292 
L 296.9184 226.727797 
L 297.126842 226.727797 
L 297.147747 225.155053 
L 298.485164 225.155053 
L 298.485164 224.630806 
L 300.71592 224.630806 
L 300.71592 224.106558 
L 300.903111 224.106558 
L 300.912419 223.058063 
L 302.865016 223.058063 
L 302.865016 222.533815 
L 303.029185 222.533815 
L 303.032027 220.961072 
L 303.843212 220.961072 
L 303.843212 220.436824 
L 303.987154 220.436824 
L 303.987154 219.912576 
L 304.756774 219.912576 
L 304.770744 217.815585 
L 304.889814 217.815585 
L 304.889814 217.291338 
L 305.649688 217.291338 
L 305.649688 216.76709 
L 308.769484 216.76709 
L 308.782625 215.718594 
L 310.133878 215.718594 
L 310.243526 214.145851 
L 313.689042 214.145851 
L 313.689042 213.621604 
L 314.821832 213.621604 
L 314.821832 213.097356 
L 316.711292 213.097356 
L 316.711292 212.573108 
L 318.011538 212.573108 
L 318.029904 211.524613 
L 318.846571 211.524613 
L 318.846571 211.000365 
L 333.168 211.000365 
L 333.168 211.000365 
" style="fill:none;stroke:#6495ed;stroke-linecap:square;stroke-width:1.5;"/>
   </g>
   <g id="line2d_59">
    <defs>
     <path d="M -0 6 
L 6 -6 
L -6 -6 
z
" id="mab62e985b9" style="stroke:#6495ed;stroke-linejoin:miter;stroke-width:1.5;"/>
    </defs>
    <g>
     <use style="fill:none;stroke:#6495ed;stroke-linejoin:miter;stroke-width:1.5;" x="132.52349" xlink:href="#mab62e985b9" y="269.716109"/>
     <use style="fill:none;stroke:#6495ed;stroke-linejoin:miter;stroke-width:1.5;" x="188.593857" xlink:href="#mab62e985b9" y="259.755403"/>
     <use style="fill:none;stroke:#6495ed;stroke-linejoin:miter;stroke-width:1.5;" x="266.596243" xlink:href="#mab62e985b9" y="248.221953"/>
     <use style="fill:none;stroke:#6495ed;stroke-linejoin:miter;stroke-width:1.5;" x="318.846571" xlink:href="#mab62e985b9" y="211.000365"/>
     <use style="fill:none;stroke:#6495ed;stroke-linejoin:miter;stroke-width:1.5;" x="318.846571" xlink:href="#mab62e985b9" y="211.000365"/>
     <use style="fill:none;stroke:#6495ed;stroke-linejoin:miter;stroke-width:1.5;" x="333.168" xlink:href="#mab62e985b9" y="211.000365"/>
    </g>
   </g>
   <g id="line2d_60">
    <path style="fill:none;stroke:#6495ed;stroke-linecap:square;stroke-width:1.5;"/>
    <g/>
   </g>
   <g id="line2d_61">
    <path clip-path="url(#paf4457263e)" d="M 254.101193 253.988678 
" style="fill:none;stroke:#6495ed;stroke-linecap:square;stroke-width:1.5;"/>
    <defs>
     <path d="M -12 12 
L 12 -12 
M -12 -12 
L 12 12 
" id="me8e145e262" style="stroke:#6495ed;"/>
    </defs>
    <g clip-path="url(#paf4457263e)">
     <use style="fill:#6495ed;stroke:#6495ed;" x="254.101193" xlink:href="#me8e145e262" y="253.988678"/>
    </g>
   </g>
   <g id="line2d_62">
    <defs>
     <path d="M 0 1.5 
C 0.397805 1.5 0.77937 1.341951 1.06066 1.06066 
C 1.341951 0.77937 1.5 0.397805 1.5 0 
C 1.5 -0.397805 1.341951 -0.77937 1.06066 -1.06066 
C 0.77937 -1.341951 0.397805 -1.5 0 -1.5 
C -0.397805 -1.5 -0.77937 -1.341951 -1.06066 -1.06066 
C -1.341951 -0.77937 -1.5 -0.397805 -1.5 0 
C -1.5 0.397805 -1.341951 0.77937 -1.06066 1.06066 
C -0.77937 1.341951 -0.397805 1.5 0 1.5 
z
" id="madd8d41b90" style="stroke:#ff0000;"/>
    </defs>
    <g>
     <use style="fill:#ff0000;stroke:#ff0000;" x="305.526504" xlink:href="#madd8d41b90" y="247.697705"/>
     <use style="fill:#ff0000;stroke:#ff0000;" x="305.526504" xlink:href="#madd8d41b90" y="247.697705"/>
    </g>
   </g>
   <g id="line2d_63">
    <path d="M 28.455965 294.88 
L 28.455965 294.355752 
L 40.370217 294.355752 
L 40.370217 293.307257 
L 47.339607 293.307257 
L 47.339607 292.258761 
L 59.253858 292.258761 
L 59.253858 291.210266 
L 61.903497 291.210266 
L 61.903497 289.637523 
L 68.034251 289.637523 
L 68.034251 289.113275 
L 71.168109 289.113275 
L 71.168109 288.589027 
L 79.948502 288.589027 
L 79.948502 288.06478 
L 81.586754 288.06478 
L 81.586754 287.540532 
L 83.784035 287.540532 
L 83.784035 287.016284 
L 85.732 287.016284 
L 85.732 286.492036 
L 86.335171 286.492036 
L 86.335171 285.443541 
L 86.917893 285.443541 
L 86.917893 284.919293 
L 89.069276 284.919293 
L 89.069276 284.395046 
L 89.567532 284.395046 
L 89.567532 283.870798 
L 93.501005 283.870798 
L 93.501005 283.34655 
L 93.887283 283.34655 
L 93.887283 282.822302 
L 96.372436 282.822302 
L 96.372436 282.298055 
L 97.646251 282.298055 
L 97.646251 281.773807 
L 99.67078 281.773807 
L 99.67078 281.249559 
L 103.120034 281.249559 
L 103.120034 280.725312 
L 103.341826 280.725312 
L 103.341826 280.201064 
L 103.560793 280.201064 
L 103.560793 279.676816 
L 104.201437 279.676816 
L 104.201437 279.152568 
L 104.409787 279.152568 
L 104.409787 278.628321 
L 107.783569 278.628321 
L 107.783569 278.104073 
L 108.120612 278.104073 
L 108.120612 277.055578 
L 108.451173 277.055578 
L 108.451173 276.53133 
L 111.989488 276.53133 
L 111.989488 276.007082 
L 115.145539 276.007082 
L 115.145539 275.482834 
L 115.904782 275.482834 
L 115.904782 274.958587 
L 119.09161 274.958587 
L 119.09161 274.434339 
L 121.551317 274.434339 
L 121.551317 273.385844 
L 122.588877 273.385844 
L 122.588877 272.861596 
L 123.430938 272.861596 
L 123.430938 272.337348 
L 132.684132 272.337348 
L 132.684132 271.8131 
L 134.999329 271.8131 
L 134.999329 271.288853 
L 136.375154 271.288853 
L 136.375154 270.764605 
L 139.626853 270.764605 
L 139.626853 270.240357 
L 142.898061 270.240357 
L 142.964129 269.191862 
L 145.924939 269.191862 
L 145.980357 268.143366 
L 146.127269 268.143366 
L 146.127269 267.619119 
L 149.412837 267.619119 
L 149.518243 266.570623 
L 149.548241 266.570623 
L 149.548241 266.046375 
L 149.977424 266.046375 
L 149.977424 265.522128 
L 152.68959 265.522128 
L 152.68959 264.99788 
L 155.954019 264.99788 
L 155.954019 264.473632 
L 170.406943 264.473632 
L 170.406943 263.949385 
L 171.237095 263.949385 
L 171.237095 263.425137 
L 175.904998 263.425137 
L 175.904998 262.900889 
L 177.073851 262.900889 
L 177.073851 262.376641 
L 177.272114 262.376641 
L 177.272114 261.852394 
L 177.673584 261.852394 
L 177.673584 261.328146 
L 182.421096 261.328146 
L 182.421096 260.803898 
L 184.302127 260.803898 
L 184.302127 259.755403 
L 187.793358 259.755403 
L 187.862853 258.706907 
L 190.480435 258.706907 
L 190.480435 258.18266 
L 191.595822 258.18266 
L 191.595822 257.658412 
L 192.969849 257.658412 
L 192.969849 257.134164 
L 195.474395 257.134164 
L 195.474395 256.609917 
L 200.617507 256.609917 
L 200.617507 256.085669 
L 254.066379 256.085669 
L 254.097671 253.988678 
L 265.994485 253.988678 
L 266.095776 252.940182 
L 266.119995 252.940182 
L 266.119995 252.415935 
L 272.938799 252.415935 
L 273.013207 250.843192 
L 287.500506 250.843192 
L 287.500506 250.318944 
L 289.777839 250.318944 
L 289.796144 249.270448 
L 299.397413 249.270448 
L 299.397413 248.746201 
L 301.715614 248.746201 
L 301.715614 248.221953 
L 305.526504 248.221953 
L 305.526504 247.697705 
L 333.168 247.697705 
L 333.168 247.697705 
" style="fill:none;stroke:#ff0000;stroke-linecap:square;stroke-width:1.5;"/>
   </g>
   <g id="line2d_64">
    <defs>
     <path d="M 0 -6 
L -5.196152 -3 
L -5.196152 3 
L -0 6 
L 5.196152 3 
L 5.196152 -3 
z
" id="m2c36dff6e3" style="stroke:#ff0000;stroke-linejoin:miter;stroke-width:1.5;"/>
    </defs>
    <g>
     <use style="fill:none;stroke:#ff0000;stroke-linejoin:miter;stroke-width:1.5;" x="79.948502" xlink:href="#m2c36dff6e3" y="288.06478"/>
     <use style="fill:none;stroke:#ff0000;stroke-linejoin:miter;stroke-width:1.5;" x="155.954019" xlink:href="#m2c36dff6e3" y="264.99788"/>
     <use style="fill:none;stroke:#ff0000;stroke-linejoin:miter;stroke-width:1.5;" x="200.617507" xlink:href="#m2c36dff6e3" y="256.085669"/>
     <use style="fill:none;stroke:#ff0000;stroke-linejoin:miter;stroke-width:1.5;" x="289.796144" xlink:href="#m2c36dff6e3" y="249.794696"/>
     <use style="fill:none;stroke:#ff0000;stroke-linejoin:miter;stroke-width:1.5;" x="305.526504" xlink:href="#m2c36dff6e3" y="247.697705"/>
     <use style="fill:none;stroke:#ff0000;stroke-linejoin:miter;stroke-width:1.5;" x="333.168" xlink:href="#m2c36dff6e3" y="247.697705"/>
    </g>
   </g>
   <g id="line2d_65">
    <path style="fill:none;stroke:#ff0000;stroke-linecap:square;stroke-width:1.5;"/>
    <g/>
   </g>
   <g id="line2d_66">
    <path clip-path="url(#paf4457263e)" d="M 254.05102 256.085669 
" style="fill:none;stroke:#ff0000;stroke-linecap:square;stroke-width:1.5;"/>
    <defs>
     <path d="M -12 12 
L 12 -12 
M -12 -12 
L 12 12 
" id="mafaa5c25a0" style="stroke:#ff0000;"/>
    </defs>
    <g clip-path="url(#paf4457263e)">
     <use style="fill:#ff0000;stroke:#ff0000;" x="254.05102" xlink:href="#mafaa5c25a0" y="256.085669"/>
    </g>
   </g>
   <g id="line2d_67">
    <defs>
     <path d="M 0 1.5 
C 0.397805 1.5 0.77937 1.341951 1.06066 1.06066 
C 1.341951 0.77937 1.5 0.397805 1.5 0 
C 1.5 -0.397805 1.341951 -0.77937 1.06066 -1.06066 
C 0.77937 -1.341951 0.397805 -1.5 0 -1.5 
C -0.397805 -1.5 -0.77937 -1.341951 -1.06066 -1.06066 
C -1.341951 -0.77937 -1.5 -0.397805 -1.5 0 
C -1.5 0.397805 -1.341951 0.77937 -1.06066 1.06066 
C -0.77937 1.341951 -0.397805 1.5 0 1.5 
z
" id="m54e8a2a614" style="stroke:#9acd32;"/>
    </defs>
    <g>
     <use style="fill:#9acd32;stroke:#9acd32;" x="316.619005" xlink:href="#m54e8a2a614" y="216.242842"/>
     <use style="fill:#9acd32;stroke:#9acd32;" x="316.619005" xlink:href="#m54e8a2a614" y="216.242842"/>
    </g>
   </g>
   <g id="line2d_68">
    <path d="M 28.455965 294.88 
L 28.455965 294.355752 
L 40.370217 294.355752 
L 40.370217 293.831505 
L 47.339607 293.831505 
L 47.339607 292.258761 
L 56.12 292.258761 
L 56.12 291.734514 
L 61.903497 291.734514 
L 61.903497 291.210266 
L 64.198719 291.210266 
L 64.198719 290.686018 
L 69.672503 290.686018 
L 69.672503 289.637523 
L 71.168109 289.637523 
L 71.168109 289.113275 
L 79.948502 289.113275 
L 79.948502 288.589027 
L 80.787138 288.589027 
L 80.787138 288.06478 
L 84.458185 288.06478 
L 84.458185 287.016284 
L 87.481505 287.016284 
L 87.481505 286.492036 
L 92.287186 286.492036 
L 92.287186 285.967789 
L 93.501005 285.967789 
L 93.501005 284.919293 
L 93.887283 284.919293 
L 93.887283 284.395046 
L 97.336537 284.395046 
L 97.336537 283.870798 
L 99.11626 283.870798 
L 99.11626 283.34655 
L 100.470395 283.34655 
L 100.470395 282.822302 
L 101.23446 282.822302 
L 101.23446 282.298055 
L 104.201437 282.298055 
L 104.201437 281.773807 
L 104.615641 281.773807 
L 104.615641 280.725312 
L 104.819059 280.725312 
L 104.819059 280.201064 
L 106.910863 280.201064 
L 106.910863 279.676816 
L 108.451173 279.676816 
L 108.451173 279.152568 
L 109.864733 279.152568 
L 109.864733 278.628321 
L 111.030511 278.628321 
L 111.030511 278.104073 
L 115.034286 278.104073 
L 115.034286 277.579825 
L 115.58349 277.579825 
L 115.58349 277.055578 
L 116.220179 277.055578 
L 116.220179 276.007082 
L 118.279397 276.007082 
L 118.279397 275.482834 
L 118.914406 275.482834 
L 118.914406 274.958587 
L 122.371755 274.958587 
L 122.371755 274.434339 
L 127.28016 274.434339 
L 127.28016 273.910091 
L 130.193648 273.910091 
L 130.193648 273.385844 
L 131.311639 273.385844 
L 131.311639 272.861596 
L 131.990784 272.861596 
L 131.990784 272.337348 
L 136.310535 272.337348 
L 136.310535 271.8131 
L 136.694654 271.8131 
L 136.694654 271.288853 
L 137.008324 271.288853 
L 137.008324 270.764605 
L 137.768335 270.764605 
L 137.768335 270.240357 
L 137.945844 270.240357 
L 137.945844 269.716109 
L 138.381758 269.716109 
L 138.381758 269.191862 
L 143.398208 269.191862 
L 143.398208 268.667614 
L 143.590024 268.667614 
L 143.590024 268.143366 
L 146.145545 268.143366 
L 146.145545 267.619119 
L 147.463664 267.619119 
L 147.463664 267.094871 
L 148.813441 267.094871 
L 148.813441 266.570623 
L 149.860095 266.570623 
L 149.860095 266.046375 
L 151.660793 266.046375 
L 151.660793 265.522128 
L 165.402605 265.522128 
L 165.402605 264.99788 
L 167.466148 264.99788 
L 167.466148 264.473632 
L 167.618703 264.473632 
L 167.618703 263.949385 
L 167.816575 263.949385 
L 167.816575 263.425137 
L 168.109176 263.425137 
L 168.109176 262.900889 
L 168.870806 262.900889 
L 168.870806 262.376641 
L 169.534653 262.376641 
L 169.534653 261.852394 
L 170.187348 261.852394 
L 170.187348 261.328146 
L 174.034603 261.328146 
L 174.034603 260.803898 
L 176.32667 260.803898 
L 176.32667 260.279651 
L 181.134506 260.279651 
L 181.134506 259.755403 
L 183.955397 259.755403 
L 183.955397 259.231155 
L 186.124634 259.231155 
L 186.124634 258.706907 
L 196.860894 258.706907 
L 196.860894 257.658412 
L 197.020683 257.658412 
L 197.020683 257.134164 
L 198.894339 257.134164 
L 198.894339 256.609917 
L 199.489224 256.609917 
L 199.489224 256.085669 
L 200.97697 256.085669 
L 200.97697 255.561421 
L 206.584443 255.561421 
L 206.584443 255.037173 
L 207.941095 255.037173 
L 207.941095 254.512926 
L 208.209812 254.512926 
L 208.209812 253.988678 
L 209.790873 253.988678 
L 209.790873 253.46443 
L 215.154827 253.46443 
L 215.154827 252.415935 
L 215.465164 252.415935 
L 215.465164 251.891687 
L 220.883942 251.891687 
L 220.883942 251.367439 
L 221.016412 251.367439 
L 221.016412 250.843192 
L 221.435046 250.843192 
L 221.530853 249.794696 
L 254.137644 249.794696 
L 254.188825 248.746201 
L 254.623489 248.746201 
L 254.629061 247.697705 
L 255.075147 247.697705 
L 255.109495 246.64921 
L 255.223314 246.64921 
L 255.237853 245.600714 
L 255.753156 245.600714 
L 255.75589 244.552219 
L 266.008022 244.552219 
L 266.008022 244.027971 
L 266.499729 244.027971 
L 266.532547 242.979476 
L 266.834661 242.979476 
L 266.834661 242.455228 
L 267.173841 242.455228 
L 267.237135 241.406733 
L 273.127972 241.406733 
L 273.127972 240.882485 
L 273.264635 240.882485 
L 273.286446 239.83399 
L 273.50452 239.83399 
L 273.527664 238.261246 
L 273.743045 238.261246 
L 273.772307 237.212751 
L 277.892182 237.212751 
L 277.892182 236.688503 
L 278.0079 236.688503 
L 278.0079 236.164255 
L 278.139836 236.164255 
L 278.139836 235.640008 
L 278.312023 235.640008 
L 278.312023 235.11576 
L 278.507287 235.11576 
L 278.507287 234.591512 
L 282.221212 234.591512 
L 282.221212 234.067265 
L 285.144606 234.067265 
L 285.144606 233.543017 
L 285.26279 233.543017 
L 285.26279 233.018769 
L 287.647712 233.018769 
L 287.744509 230.921778 
L 287.862893 230.921778 
L 287.904318 228.824787 
L 290.02611 228.824787 
L 290.126626 227.252044 
L 291.832016 227.252044 
L 291.938799 225.679301 
L 293.726393 225.679301 
L 293.806754 223.58231 
L 295.362398 223.58231 
L 295.362398 223.058063 
L 296.756314 223.058063 
L 296.756314 222.533815 
L 296.917921 222.533815 
L 296.917921 222.009567 
L 298.334376 222.009567 
L 298.334376 221.485319 
L 299.588115 221.485319 
L 299.595667 220.436824 
L 300.766095 220.436824 
L 300.766095 219.912576 
L 302.897578 219.912576 
L 302.897578 219.388328 
L 303.879554 219.388328 
L 303.879554 218.864081 
L 307.300472 218.864081 
L 307.300472 218.339833 
L 308.753729 218.339833 
L 308.753729 217.815585 
L 309.480181 217.815585 
L 309.480181 217.291338 
L 313.155566 217.291338 
L 313.155566 216.76709 
L 316.619005 216.76709 
L 316.619005 216.242842 
L 333.168 216.242842 
L 333.168 216.242842 
" style="fill:none;stroke:#9acd32;stroke-linecap:square;stroke-width:1.5;"/>
   </g>
   <g id="line2d_69">
    <defs>
     <path d="M 0 -6 
L -6 6 
L 6 6 
z
" id="m5c89fd5a7b" style="stroke:#9acd32;stroke-linejoin:miter;stroke-width:1.5;"/>
    </defs>
    <g>
     <use style="fill:none;stroke:#9acd32;stroke-linejoin:miter;stroke-width:1.5;" x="127.28016" xlink:href="#m5c89fd5a7b" y="274.434339"/>
     <use style="fill:none;stroke:#9acd32;stroke-linejoin:miter;stroke-width:1.5;" x="186.124634" xlink:href="#m5c89fd5a7b" y="259.231155"/>
     <use style="fill:none;stroke:#9acd32;stroke-linejoin:miter;stroke-width:1.5;" x="255.75589" xlink:href="#m5c89fd5a7b" y="245.076467"/>
     <use style="fill:none;stroke:#9acd32;stroke-linejoin:miter;stroke-width:1.5;" x="316.619005" xlink:href="#m5c89fd5a7b" y="216.242842"/>
     <use style="fill:none;stroke:#9acd32;stroke-linejoin:miter;stroke-width:1.5;" x="316.619005" xlink:href="#m5c89fd5a7b" y="216.242842"/>
     <use style="fill:none;stroke:#9acd32;stroke-linejoin:miter;stroke-width:1.5;" x="333.168" xlink:href="#m5c89fd5a7b" y="216.242842"/>
    </g>
   </g>
   <g id="line2d_70">
    <path style="fill:none;stroke:#9acd32;stroke-linecap:square;stroke-width:1.5;"/>
    <g/>
   </g>
   <g id="line2d_71">
    <path clip-path="url(#paf4457263e)" d="M 254.051843 249.794696 
" style="fill:none;stroke:#9acd32;stroke-linecap:square;stroke-width:1.5;"/>
    <defs>
     <path d="M -12 12 
L 12 -12 
M -12 -12 
L 12 12 
" id="m572f8195a6" style="stroke:#9acd32;"/>
    </defs>
    <g clip-path="url(#paf4457263e)">
     <use style="fill:#9acd32;stroke:#9acd32;" x="254.051843" xlink:href="#m572f8195a6" y="249.794696"/>
    </g>
   </g>
   <g id="line2d_72">
    <path d="M 333.168 268.667614 
L 363.64328 289.532673 
" style="fill:none;stroke:#000080;stroke-linecap:square;stroke-width:1.5;"/>
    <g>
     <use style="fill:none;stroke:#000080;stroke-width:1.5;" x="333.168" xlink:href="#m3191dae266" y="268.667614"/>
     <use style="fill:none;stroke:#000080;stroke-width:1.5;" x="363.64328" xlink:href="#m3191dae266" y="289.532673"/>
    </g>
   </g>
   <g id="line2d_73">
    <path d="M 333.168 247.697705 
L 363.64328 246.754059 
" style="fill:none;stroke:#ff0000;stroke-linecap:square;stroke-width:1.5;"/>
    <g>
     <use style="fill:none;stroke:#ff0000;stroke-linejoin:miter;stroke-width:1.5;" x="333.168" xlink:href="#m2c36dff6e3" y="247.697705"/>
     <use style="fill:none;stroke:#ff0000;stroke-linejoin:miter;stroke-width:1.5;" x="363.64328" xlink:href="#m2c36dff6e3" y="246.754059"/>
    </g>
   </g>
   <g id="line2d_74">
    <path d="M 333.168 237.212751 
L 363.64328 203.975446 
" style="fill:none;stroke:#ff00ff;stroke-linecap:square;stroke-width:1.5;"/>
    <g>
     <use style="fill:none;stroke:#ff00ff;stroke-linejoin:miter;stroke-width:1.5;" x="333.168" xlink:href="#m367b0aa806" y="237.212751"/>
     <use style="fill:none;stroke:#ff00ff;stroke-linejoin:miter;stroke-width:1.5;" x="363.64328" xlink:href="#m367b0aa806" y="203.975446"/>
    </g>
   </g>
   <g id="line2d_75">
    <path d="M 333.168 226.727797 
L 363.64328 161.196832 
" style="fill:none;stroke:#ff7500;stroke-linecap:square;stroke-width:1.5;"/>
    <g>
     <use style="fill:none;stroke:#ff7500;stroke-linejoin:bevel;stroke-width:1.5;" x="333.168" xlink:href="#m3a59854d8e" y="226.727797"/>
     <use style="fill:none;stroke:#ff7500;stroke-linejoin:bevel;stroke-width:1.5;" x="363.64328" xlink:href="#m3a59854d8e" y="161.196832"/>
    </g>
   </g>
   <g id="line2d_76">
    <path d="M 333.168 216.242842 
L 363.64328 118.418218 
" style="fill:none;stroke:#9acd32;stroke-linecap:square;stroke-width:1.5;"/>
    <g>
     <use style="fill:none;stroke:#9acd32;stroke-linejoin:miter;stroke-width:1.5;" x="333.168" xlink:href="#m5c89fd5a7b" y="216.242842"/>
     <use style="fill:none;stroke:#9acd32;stroke-linejoin:miter;stroke-width:1.5;" x="363.64328" xlink:href="#m5c89fd5a7b" y="118.418218"/>
    </g>
   </g>
   <g id="line2d_77">
    <path d="M 333.168 211.000365 
L 363.64328 75.639604 
" style="fill:none;stroke:#6495ed;stroke-linecap:square;stroke-width:1.5;"/>
    <g>
     <use style="fill:none;stroke:#6495ed;stroke-linejoin:miter;stroke-width:1.5;" x="333.168" xlink:href="#mab62e985b9" y="211.000365"/>
     <use style="fill:none;stroke:#6495ed;stroke-linejoin:miter;stroke-width:1.5;" x="363.64328" xlink:href="#mab62e985b9" y="75.639604"/>
    </g>
   </g>
   <g id="line2d_78">
    <path d="M 333.168 294.88 
L 333.168 27.513663 
" style="fill:none;stroke:#000000;stroke-linecap:square;stroke-width:1.5;"/>
   </g>
   <g id="patch_3">
    <path d="M 56.12 294.88 
L 56.12 24.84 
" style="fill:none;stroke:#000000;stroke-linecap:square;stroke-linejoin:miter;stroke-width:0.8;"/>
   </g>
   <g id="patch_4">
    <path d="M 333.168 294.88 
L 333.168 24.84 
" style="fill:none;stroke:#000000;stroke-linecap:square;stroke-linejoin:miter;stroke-width:0.8;"/>
   </g>
   <g id="patch_5">
    <path d="M 56.12 294.88 
L 333.168 294.88 
" style="fill:none;stroke:#000000;stroke-linecap:square;stroke-linejoin:miter;stroke-width:0.8;"/>
   </g>
   <g id="patch_6">
    <path d="M 56.12 24.84 
L 333.168 24.84 
" style="fill:none;stroke:#000000;stroke-linecap:square;stroke-linejoin:miter;stroke-width:0.8;"/>
   </g>
   <g id="text_13">
    <!-- CMA ES PPM -->
    <defs>
     <path d="M 64.40625 67.28125 
L 64.40625 56.890625 
Q 59.421875 61.53125 53.78125 63.8125 
Q 48.140625 66.109375 41.796875 66.109375 
Q 29.296875 66.109375 22.65625 58.46875 
Q 16.015625 50.828125 16.015625 36.375 
Q 16.015625 21.96875 22.65625 14.328125 
Q 29.296875 6.6875 41.796875 6.6875 
Q 48.140625 6.6875 53.78125 8.984375 
Q 59.421875 11.28125 64.40625 15.921875 
L 64.40625 5.609375 
Q 59.234375 2.09375 53.4375 0.328125 
Q 47.65625 -1.421875 41.21875 -1.421875 
Q 24.65625 -1.421875 15.125 8.703125 
Q 5.609375 18.84375 5.609375 36.375 
Q 5.609375 53.953125 15.125 64.078125 
Q 24.65625 74.21875 41.21875 74.21875 
Q 47.75 74.21875 53.53125 72.484375 
Q 59.328125 70.75 64.40625 67.28125 
z
" id="DejaVuSans-43"/>
     <path d="M 9.8125 72.90625 
L 24.515625 72.90625 
L 43.109375 23.296875 
L 61.8125 72.90625 
L 76.515625 72.90625 
L 76.515625 0 
L 66.890625 0 
L 66.890625 64.015625 
L 48.09375 14.015625 
L 38.1875 14.015625 
L 19.390625 64.015625 
L 19.390625 0 
L 9.8125 0 
z
" id="DejaVuSans-4d"/>
     <path d="M 34.1875 63.1875 
L 20.796875 26.90625 
L 47.609375 26.90625 
z
M 28.609375 72.90625 
L 39.796875 72.90625 
L 67.578125 0 
L 57.328125 0 
L 50.6875 18.703125 
L 17.828125 18.703125 
L 11.1875 0 
L 0.78125 0 
z
" id="DejaVuSans-41"/>
     <path d="M 9.8125 72.90625 
L 55.90625 72.90625 
L 55.90625 64.59375 
L 19.671875 64.59375 
L 19.671875 43.015625 
L 54.390625 43.015625 
L 54.390625 34.71875 
L 19.671875 34.71875 
L 19.671875 8.296875 
L 56.78125 8.296875 
L 56.78125 0 
L 9.8125 0 
z
" id="DejaVuSans-45"/>
     <path d="M 53.515625 70.515625 
L 53.515625 60.890625 
Q 47.90625 63.578125 42.921875 64.890625 
Q 37.9375 66.21875 33.296875 66.21875 
Q 25.25 66.21875 20.875 63.09375 
Q 16.5 59.96875 16.5 54.203125 
Q 16.5 49.359375 19.40625 46.890625 
Q 22.3125 44.4375 30.421875 42.921875 
L 36.375 41.703125 
Q 47.40625 39.59375 52.65625 34.296875 
Q 57.90625 29 57.90625 20.125 
Q 57.90625 9.515625 50.796875 4.046875 
Q 43.703125 -1.421875 29.984375 -1.421875 
Q 24.8125 -1.421875 18.96875 -0.25 
Q 13.140625 0.921875 6.890625 3.21875 
L 6.890625 13.375 
Q 12.890625 10.015625 18.65625 8.296875 
Q 24.421875 6.59375 29.984375 6.59375 
Q 38.421875 6.59375 43.015625 9.90625 
Q 47.609375 13.234375 47.609375 19.390625 
Q 47.609375 24.75 44.3125 27.78125 
Q 41.015625 30.8125 33.5 32.328125 
L 27.484375 33.5 
Q 16.453125 35.6875 11.515625 40.375 
Q 6.59375 45.0625 6.59375 53.421875 
Q 6.59375 63.09375 13.40625 68.65625 
Q 20.21875 74.21875 32.171875 74.21875 
Q 37.3125 74.21875 42.625 73.28125 
Q 47.953125 72.359375 53.515625 70.515625 
z
" id="DejaVuSans-53"/>
     <path d="M 19.671875 64.796875 
L 19.671875 37.40625 
L 32.078125 37.40625 
Q 38.96875 37.40625 42.71875 40.96875 
Q 46.484375 44.53125 46.484375 51.125 
Q 46.484375 57.671875 42.71875 61.234375 
Q 38.96875 64.796875 32.078125 64.796875 
z
M 9.8125 72.90625 
L 32.078125 72.90625 
Q 44.34375 72.90625 50.609375 67.359375 
Q 56.890625 61.8125 56.890625 51.125 
Q 56.890625 40.328125 50.609375 34.8125 
Q 44.34375 29.296875 32.078125 29.296875 
L 19.671875 29.296875 
L 19.671875 0 
L 9.8125 0 
z
" id="DejaVuSans-50"/>
    </defs>
    <g transform="translate(369.18424 294.223611)scale(0.17 -0.17)">
     <use xlink:href="#DejaVuSans-43"/>
     <use x="69.824219" xlink:href="#DejaVuSans-4d"/>
     <use x="156.103516" xlink:href="#DejaVuSans-41"/>
     <use x="224.511719" xlink:href="#DejaVuSans-20"/>
     <use x="256.298828" xlink:href="#DejaVuSans-45"/>
     <use x="319.482422" xlink:href="#DejaVuSans-53"/>
     <use x="382.958984" xlink:href="#DejaVuSans-20"/>
     <use x="414.746094" xlink:href="#DejaVuSans-50"/>
     <use x="475.048828" xlink:href="#DejaVuSans-50"/>
     <use x="535.351562" xlink:href="#DejaVuSans-4d"/>
    </g>
   </g>
   <g id="text_14">
    <!-- CMA-CSA At -->
    <g transform="translate(369.18424 251.444997)scale(0.17 -0.17)">
     <use xlink:href="#DejaVuSans-43"/>
     <use x="69.824219" xlink:href="#DejaVuSans-4d"/>
     <use x="156.103516" xlink:href="#DejaVuSans-41"/>
     <use x="224.480469" xlink:href="#DejaVuSans-2d"/>
     <use x="260.564453" xlink:href="#DejaVuSans-43"/>
     <use x="330.388672" xlink:href="#DejaVuSans-53"/>
     <use x="393.880859" xlink:href="#DejaVuSans-41"/>
     <use x="462.289062" xlink:href="#DejaVuSans-20"/>
     <use x="494.076172" xlink:href="#DejaVuSans-41"/>
     <use x="562.46875" xlink:href="#DejaVuSans-74"/>
    </g>
   </g>
   <g id="text_15">
    <!-- CMA ES CSA -->
    <g transform="translate(369.18424 208.666383)scale(0.17 -0.17)">
     <use xlink:href="#DejaVuSans-43"/>
     <use x="69.824219" xlink:href="#DejaVuSans-4d"/>
     <use x="156.103516" xlink:href="#DejaVuSans-41"/>
     <use x="224.511719" xlink:href="#DejaVuSans-20"/>
     <use x="256.298828" xlink:href="#DejaVuSans-45"/>
     <use x="319.482422" xlink:href="#DejaVuSans-53"/>
     <use x="382.958984" xlink:href="#DejaVuSans-20"/>
     <use x="414.746094" xlink:href="#DejaVuSans-43"/>
     <use x="484.570312" xlink:href="#DejaVuSans-53"/>
     <use x="548.0625" xlink:href="#DejaVuSans-41"/>
    </g>
   </g>
   <g id="text_16">
    <!-- CMAES posi -->
    <g transform="translate(369.18424 165.887769)scale(0.17 -0.17)">
     <use xlink:href="#DejaVuSans-43"/>
     <use x="69.824219" xlink:href="#DejaVuSans-4d"/>
     <use x="156.103516" xlink:href="#DejaVuSans-41"/>
     <use x="224.511719" xlink:href="#DejaVuSans-45"/>
     <use x="287.695312" xlink:href="#DejaVuSans-53"/>
     <use x="351.171875" xlink:href="#DejaVuSans-20"/>
     <use x="382.958984" xlink:href="#DejaVuSans-70"/>
     <use x="446.435547" xlink:href="#DejaVuSans-6f"/>
     <use x="507.617188" xlink:href="#DejaVuSans-73"/>
     <use x="559.716797" xlink:href="#DejaVuSans-69"/>
    </g>
   </g>
   <g id="text_17">
    <!-- CMA-TPA At -->
    <defs>
     <path d="M -0.296875 72.90625 
L 61.375 72.90625 
L 61.375 64.59375 
L 35.5 64.59375 
L 35.5 0 
L 25.59375 0 
L 25.59375 64.59375 
L -0.296875 64.59375 
z
" id="DejaVuSans-54"/>
    </defs>
    <g transform="translate(369.18424 123.109155)scale(0.17 -0.17)">
     <use xlink:href="#DejaVuSans-43"/>
     <use x="69.824219" xlink:href="#DejaVuSans-4d"/>
     <use x="156.103516" xlink:href="#DejaVuSans-41"/>
     <use x="224.480469" xlink:href="#DejaVuSans-2d"/>
     <use x="260.423828" xlink:href="#DejaVuSans-54"/>
     <use x="321.507812" xlink:href="#DejaVuSans-50"/>
     <use x="381.716797" xlink:href="#DejaVuSans-41"/>
     <use x="450.125" xlink:href="#DejaVuSans-20"/>
     <use x="481.912109" xlink:href="#DejaVuSans-41"/>
     <use x="550.304688" xlink:href="#DejaVuSans-74"/>
    </g>
   </g>
   <g id="text_18">
    <!-- CMA-MSR At -->
    <defs>
     <path d="M 44.390625 34.1875 
Q 47.5625 33.109375 50.5625 29.59375 
Q 53.5625 26.078125 56.59375 19.921875 
L 66.609375 0 
L 56 0 
L 46.6875 18.703125 
Q 43.0625 26.03125 39.671875 28.421875 
Q 36.28125 30.8125 30.421875 30.8125 
L 19.671875 30.8125 
L 19.671875 0 
L 9.8125 0 
L 9.8125 72.90625 
L 32.078125 72.90625 
Q 44.578125 72.90625 50.734375 67.671875 
Q 56.890625 62.453125 56.890625 51.90625 
Q 56.890625 45.015625 53.6875 40.46875 
Q 50.484375 35.9375 44.390625 34.1875 
z
M 19.671875 64.796875 
L 19.671875 38.921875 
L 32.078125 38.921875 
Q 39.203125 38.921875 42.84375 42.21875 
Q 46.484375 45.515625 46.484375 51.90625 
Q 46.484375 58.296875 42.84375 61.546875 
Q 39.203125 64.796875 32.078125 64.796875 
z
" id="DejaVuSans-52"/>
    </defs>
    <g transform="translate(369.18424 80.330541)scale(0.17 -0.17)">
     <use xlink:href="#DejaVuSans-43"/>
     <use x="69.824219" xlink:href="#DejaVuSans-4d"/>
     <use x="156.103516" xlink:href="#DejaVuSans-41"/>
     <use x="224.480469" xlink:href="#DejaVuSans-2d"/>
     <use x="260.564453" xlink:href="#DejaVuSans-4d"/>
     <use x="346.84375" xlink:href="#DejaVuSans-53"/>
     <use x="410.320312" xlink:href="#DejaVuSans-52"/>
     <use x="479.802734" xlink:href="#DejaVuSans-20"/>
     <use x="511.589844" xlink:href="#DejaVuSans-41"/>
     <use x="579.982422" xlink:href="#DejaVuSans-74"/>
    </g>
   </g>
   <g id="text_19">
    <!-- best 2009 -->
    <defs>
     <path d="M 48.6875 27.296875 
Q 48.6875 37.203125 44.609375 42.84375 
Q 40.53125 48.484375 33.40625 48.484375 
Q 26.265625 48.484375 22.1875 42.84375 
Q 18.109375 37.203125 18.109375 27.296875 
Q 18.109375 17.390625 22.1875 11.75 
Q 26.265625 6.109375 33.40625 6.109375 
Q 40.53125 6.109375 44.609375 11.75 
Q 48.6875 17.390625 48.6875 27.296875 
z
M 18.109375 46.390625 
Q 20.953125 51.265625 25.265625 53.625 
Q 29.59375 56 35.59375 56 
Q 45.5625 56 51.78125 48.09375 
Q 58.015625 40.1875 58.015625 27.296875 
Q 58.015625 14.40625 51.78125 6.484375 
Q 45.5625 -1.421875 35.59375 -1.421875 
Q 29.59375 -1.421875 25.265625 0.953125 
Q 20.953125 3.328125 18.109375 8.203125 
L 18.109375 0 
L 9.078125 0 
L 9.078125 75.984375 
L 18.109375 75.984375 
z
" id="DejaVuSans-62"/>
     <path d="M 10.984375 1.515625 
L 10.984375 10.5 
Q 14.703125 8.734375 18.5 7.8125 
Q 22.3125 6.890625 25.984375 6.890625 
Q 35.75 6.890625 40.890625 13.453125 
Q 46.046875 20.015625 46.78125 33.40625 
Q 43.953125 29.203125 39.59375 26.953125 
Q 35.25 24.703125 29.984375 24.703125 
Q 19.046875 24.703125 12.671875 31.3125 
Q 6.296875 37.9375 6.296875 49.421875 
Q 6.296875 60.640625 12.9375 67.421875 
Q 19.578125 74.21875 30.609375 74.21875 
Q 43.265625 74.21875 49.921875 64.515625 
Q 56.59375 54.828125 56.59375 36.375 
Q 56.59375 19.140625 48.40625 8.859375 
Q 40.234375 -1.421875 26.421875 -1.421875 
Q 22.703125 -1.421875 18.890625 -0.6875 
Q 15.09375 0.046875 10.984375 1.515625 
z
M 30.609375 32.421875 
Q 37.25 32.421875 41.125 36.953125 
Q 45.015625 41.5 45.015625 49.421875 
Q 45.015625 57.28125 41.125 61.84375 
Q 37.25 66.40625 30.609375 66.40625 
Q 23.96875 66.40625 20.09375 61.84375 
Q 16.21875 57.28125 16.21875 49.421875 
Q 16.21875 41.5 20.09375 36.953125 
Q 23.96875 32.421875 30.609375 32.421875 
z
" id="DejaVuSans-39"/>
    </defs>
    <g transform="translate(369.18424 37.551928)scale(0.17 -0.17)">
     <use xlink:href="#DejaVuSans-62"/>
     <use x="63.476562" xlink:href="#DejaVuSans-65"/>
     <use x="125" xlink:href="#DejaVuSans-73"/>
     <use x="177.099609" xlink:href="#DejaVuSans-74"/>
     <use x="216.308594" xlink:href="#DejaVuSans-20"/>
     <use x="248.095703" xlink:href="#DejaVuSans-32"/>
     <use x="311.71875" xlink:href="#DejaVuSans-30"/>
     <use x="375.341797" xlink:href="#DejaVuSans-30"/>
     <use x="438.964844" xlink:href="#DejaVuSans-39"/>
    </g>
   </g>
   <g id="text_20">
    <!-- bbob f24, 5-D -->
    <defs>
     <path d="M 10.796875 72.90625 
L 49.515625 72.90625 
L 49.515625 64.59375 
L 19.828125 64.59375 
L 19.828125 46.734375 
Q 21.96875 47.46875 24.109375 47.828125 
Q 26.265625 48.1875 28.421875 48.1875 
Q 40.625 48.1875 47.75 41.5 
Q 54.890625 34.8125 54.890625 23.390625 
Q 54.890625 11.625 47.5625 5.09375 
Q 40.234375 -1.421875 26.90625 -1.421875 
Q 22.3125 -1.421875 17.546875 -0.640625 
Q 12.796875 0.140625 7.71875 1.703125 
L 7.71875 11.625 
Q 12.109375 9.234375 16.796875 8.0625 
Q 21.484375 6.890625 26.703125 6.890625 
Q 35.15625 6.890625 40.078125 11.328125 
Q 45.015625 15.765625 45.015625 23.390625 
Q 45.015625 31 40.078125 35.4375 
Q 35.15625 39.890625 26.703125 39.890625 
Q 22.75 39.890625 18.8125 39.015625 
Q 14.890625 38.140625 10.796875 36.28125 
z
" id="DejaVuSans-35"/>
     <path d="M 19.671875 64.796875 
L 19.671875 8.109375 
L 31.59375 8.109375 
Q 46.6875 8.109375 53.6875 14.9375 
Q 60.6875 21.78125 60.6875 36.53125 
Q 60.6875 51.171875 53.6875 57.984375 
Q 46.6875 64.796875 31.59375 64.796875 
z
M 9.8125 72.90625 
L 30.078125 72.90625 
Q 51.265625 72.90625 61.171875 64.09375 
Q 71.09375 55.28125 71.09375 36.53125 
Q 71.09375 17.671875 61.125 8.828125 
Q 51.171875 0 30.078125 0 
L 9.8125 0 
z
" id="DejaVuSans-44"/>
    </defs>
    <g transform="translate(58.89048 35.290806)scale(0.102 -0.102)">
     <use xlink:href="#DejaVuSans-62"/>
     <use x="63.476562" xlink:href="#DejaVuSans-62"/>
     <use x="126.953125" xlink:href="#DejaVuSans-6f"/>
     <use x="188.134766" xlink:href="#DejaVuSans-62"/>
     <use x="251.611328" xlink:href="#DejaVuSans-20"/>
     <use x="283.398438" xlink:href="#DejaVuSans-66"/>
     <use x="318.603516" xlink:href="#DejaVuSans-32"/>
     <use x="382.226562" xlink:href="#DejaVuSans-34"/>
     <use x="445.849609" xlink:href="#DejaVuSans-2c"/>
     <use x="477.636719" xlink:href="#DejaVuSans-20"/>
     <use x="509.423828" xlink:href="#DejaVuSans-35"/>
     <use x="573.046875" xlink:href="#DejaVuSans-2d"/>
     <use x="609.130859" xlink:href="#DejaVuSans-44"/>
    </g>
    <!-- 51 targets: 100..1e-08 -->
    <defs>
     <path d="M 11.71875 12.40625 
L 22.015625 12.40625 
L 22.015625 0 
L 11.71875 0 
z
M 11.71875 51.703125 
L 22.015625 51.703125 
L 22.015625 39.3125 
L 11.71875 39.3125 
z
" id="DejaVuSans-3a"/>
    </defs>
    <g transform="translate(58.89048 46.712575)scale(0.102 -0.102)">
     <use xlink:href="#DejaVuSans-35"/>
     <use x="63.623047" xlink:href="#DejaVuSans-31"/>
     <use x="127.246094" xlink:href="#DejaVuSans-20"/>
     <use x="159.033203" xlink:href="#DejaVuSans-74"/>
     <use x="198.242188" xlink:href="#DejaVuSans-61"/>
     <use x="259.521484" xlink:href="#DejaVuSans-72"/>
     <use x="300.619141" xlink:href="#DejaVuSans-67"/>
     <use x="364.095703" xlink:href="#DejaVuSans-65"/>
     <use x="425.619141" xlink:href="#DejaVuSans-74"/>
     <use x="464.828125" xlink:href="#DejaVuSans-73"/>
     <use x="516.927734" xlink:href="#DejaVuSans-3a"/>
     <use x="550.619141" xlink:href="#DejaVuSans-20"/>
     <use x="582.40625" xlink:href="#DejaVuSans-31"/>
     <use x="646.029297" xlink:href="#DejaVuSans-30"/>
     <use x="709.652344" xlink:href="#DejaVuSans-30"/>
     <use x="773.275391" xlink:href="#DejaVuSans-2e"/>
     <use x="805.0625" xlink:href="#DejaVuSans-2e"/>
     <use x="836.849609" xlink:href="#DejaVuSans-31"/>
     <use x="900.472656" xlink:href="#DejaVuSans-65"/>
     <use x="961.996094" xlink:href="#DejaVuSans-2d"/>
     <use x="998.080078" xlink:href="#DejaVuSans-30"/>
     <use x="1061.703125" xlink:href="#DejaVuSans-38"/>
    </g>
    <!-- 15 instances -->
    <g transform="translate(58.89048 58.134344)scale(0.102 -0.102)">
     <use xlink:href="#DejaVuSans-31"/>
     <use x="63.623047" xlink:href="#DejaVuSans-35"/>
     <use x="127.246094" xlink:href="#DejaVuSans-20"/>
     <use x="159.033203" xlink:href="#DejaVuSans-69"/>
     <use x="186.816406" xlink:href="#DejaVuSans-6e"/>
     <use x="250.195312" xlink:href="#DejaVuSans-73"/>
     <use x="302.294922" xlink:href="#DejaVuSans-74"/>
     <use x="341.503906" xlink:href="#DejaVuSans-61"/>
     <use x="402.783203" xlink:href="#DejaVuSans-6e"/>
     <use x="466.162109" xlink:href="#DejaVuSans-63"/>
     <use x="521.142578" xlink:href="#DejaVuSans-65"/>
     <use x="582.666016" xlink:href="#DejaVuSans-73"/>
    </g>
   </g>
   <g id="text_21">
    <!-- v0.0.0 -->
    <g style="fill:#808080;" transform="translate(178.96275 290.099912)scale(0.1 -0.1)">
     <use xlink:href="#DejaVuSans-76"/>
     <use x="59.179688" xlink:href="#DejaVuSans-30"/>
     <use x="122.802734" xlink:href="#DejaVuSans-2e"/>
     <use x="154.589844" xlink:href="#DejaVuSans-30"/>
     <use x="218.212891" xlink:href="#DejaVuSans-2e"/>
     <use x="250" xlink:href="#DejaVuSans-30"/>
    </g>
   </g>
   <g id="text_22">
    <!-- 24 Lunacek bi-Rastrigin -->
    <defs>
     <path d="M 9.8125 72.90625 
L 19.671875 72.90625 
L 19.671875 8.296875 
L 55.171875 8.296875 
L 55.171875 0 
L 9.8125 0 
z
" id="DejaVuSans-4c"/>
     <path d="M 9.078125 75.984375 
L 18.109375 75.984375 
L 18.109375 31.109375 
L 44.921875 54.6875 
L 56.390625 54.6875 
L 27.390625 29.109375 
L 57.625 0 
L 45.90625 0 
L 18.109375 26.703125 
L 18.109375 0 
L 9.078125 0 
z
" id="DejaVuSans-6b"/>
    </defs>
    <g transform="translate(76.4565 18.84)scale(0.2 -0.2)">
     <use xlink:href="#DejaVuSans-32"/>
     <use x="63.623047" xlink:href="#DejaVuSans-34"/>
     <use x="127.246094" xlink:href="#DejaVuSans-20"/>
     <use x="159.033203" xlink:href="#DejaVuSans-4c"/>
     <use x="214.730469" xlink:href="#DejaVuSans-75"/>
     <use x="278.109375" xlink:href="#DejaVuSans-6e"/>
     <use x="341.488281" xlink:href="#DejaVuSans-61"/>
     <use x="402.767578" xlink:href="#DejaVuSans-63"/>
     <use x="457.748047" xlink:href="#DejaVuSans-65"/>
     <use x="519.271484" xlink:href="#DejaVuSans-6b"/>
     <use x="577.181641" xlink:href="#DejaVuSans-20"/>
     <use x="608.96875" xlink:href="#DejaVuSans-62"/>
     <use x="672.445312" xlink:href="#DejaVuSans-69"/>
     <use x="700.228516" xlink:href="#DejaVuSans-2d"/>
     <use x="736.3125" xlink:href="#DejaVuSans-52"/>
     <use x="805.763672" xlink:href="#DejaVuSans-61"/>
     <use x="867.042969" xlink:href="#DejaVuSans-73"/>
     <use x="919.142578" xlink:href="#DejaVuSans-74"/>
     <use x="958.351562" xlink:href="#DejaVuSans-72"/>
     <use x="999.464844" xlink:href="#DejaVuSans-69"/>
     <use x="1027.248047" xlink:href="#DejaVuSans-67"/>
     <use x="1090.724609" xlink:href="#DejaVuSans-69"/>
     <use x="1118.507812" xlink:href="#DejaVuSans-6e"/>
    </g>
   </g>
  </g>
 </g>
 <defs>
  <clipPath id="paf4457263e">
   <rect height="270.04" width="277.048" x="56.12" y="24.84"/>
  </clipPath>
 </defs>
</svg>
