<?xml version="1.0" encoding="utf-8" standalone="no"?>
<!DOCTYPE svg PUBLIC "-//W3C//DTD SVG 1.1//EN"
  "http://www.w3.org/Graphics/SVG/1.1/DTD/svg11.dtd">
<!-- Created with matplotlib (http://matplotlib.org/) -->
<svg height="345pt" version="1.1" viewBox="0 0 460 345" width="460pt" xmlns="http://www.w3.org/2000/svg" xmlns:xlink="http://www.w3.org/1999/xlink">
 <defs>
  <style type="text/css">
*{stroke-linecap:butt;stroke-linejoin:round;}
  </style>
 </defs>
 <g id="figure_1">
  <g id="patch_1">
   <path d="M 0 345.6 
L 460.8 345.6 
L 460.8 0 
L 0 0 
z
" style="fill:#ffffff;"/>
  </g>
  <g id="axes_1">
   <g id="patch_2">
    <path d="M 56.12 294.88 
L 333.168 294.88 
L 333.168 24.84 
L 56.12 24.84 
z
" style="fill:#ffffff;"/>
   </g>
   <g id="line2d_1">
    <path d="M -1 279.152568 
L 11.596853 279.152568 
L 11.596853 273.910091 
L 61.278387 273.910091 
L 61.278387 268.667614 
L 95.65526 268.667614 
L 95.65526 263.425137 
L 105.020098 263.425137 
L 105.020098 258.18266 
L 113.319127 258.18266 
L 113.319127 252.940182 
L 118.81392 252.940182 
L 118.81392 247.697705 
L 123.293428 247.697705 
L 123.293428 242.455228 
L 136.196864 242.455228 
L 136.196864 237.212751 
L 138.033915 237.212751 
L 138.033915 231.970274 
L 145.117613 231.970274 
L 145.117613 226.727797 
L 149.503224 226.727797 
L 149.503224 221.485319 
L 150.912534 221.485319 
L 150.912534 216.242842 
L 157.002751 216.242842 
L 157.002751 211.000365 
L 161.26467 211.000365 
L 161.26467 205.757888 
L 164.728991 205.757888 
L 164.728991 200.515411 
L 168.058839 200.515411 
L 168.058839 195.272933 
L 170.723513 195.272933 
L 170.723513 190.030456 
L 172.534079 190.030456 
L 172.534079 184.787979 
L 174.616874 184.787979 
L 174.616874 179.545502 
L 175.777186 179.545502 
L 175.777186 174.303025 
L 177.825727 174.303025 
L 177.825727 169.060547 
L 178.967629 169.060547 
L 178.967629 163.81807 
L 179.350651 163.81807 
L 179.350651 158.575593 
L 181.100476 158.575593 
L 181.100476 153.333116 
L 184.084232 153.333116 
L 184.084232 148.090639 
L 185.362496 148.090639 
L 185.362496 142.848162 
L 186.414615 142.848162 
L 186.414615 137.605684 
L 188.534049 137.605684 
L 188.534049 132.363207 
L 189.932484 132.363207 
L 189.932484 127.12073 
L 192.241173 127.12073 
L 192.241173 121.878253 
L 194.255611 121.878253 
L 194.255611 116.635776 
L 195.302496 116.635776 
L 195.302496 111.393298 
L 195.535917 111.393298 
L 195.535917 106.150821 
L 200.102827 106.150821 
L 200.102827 100.908344 
L 200.377481 100.908344 
L 200.377481 95.665867 
L 203.576712 95.665867 
L 203.576712 90.42339 
L 204.289376 90.42339 
L 204.289376 85.180912 
L 205.354533 85.180912 
L 205.354533 79.938435 
L 205.519957 79.938435 
L 205.519957 74.695958 
L 205.736198 74.695958 
L 205.736198 69.453481 
L 206.528519 69.453481 
L 206.528519 64.211004 
L 207.272566 64.211004 
L 207.272566 58.968526 
L 207.386445 58.968526 
L 207.386445 53.726049 
L 208.035375 53.726049 
L 208.035375 48.483572 
L 208.125172 48.483572 
L 208.125172 43.241095 
L 208.214071 43.241095 
L 208.214071 37.998618 
L 208.291888 37.998618 
L 208.291888 32.756141 
L 208.371312 32.756141 
L 208.371312 27.513663 
L 333.168 27.513663 
" style="fill:none;stroke:#f5deb3;stroke-linecap:square;stroke-width:4;"/>
   </g>
   <g id="line2d_2">
    <defs>
     <path d="M -0 7.778175 
L 7.778175 0 
L 0 -7.778175 
L -7.778175 -0 
z
" id="me81bf3f409" style="stroke:#f5deb3;stroke-linejoin:miter;stroke-width:1.5;"/>
    </defs>
    <g>
     <use style="fill:#f5deb3;stroke:#f5deb3;stroke-linejoin:miter;stroke-width:1.5;" x="61.278387" xlink:href="#me81bf3f409" y="268.667614"/>
     <use style="fill:#f5deb3;stroke:#f5deb3;stroke-linejoin:miter;stroke-width:1.5;" x="161.26467" xlink:href="#me81bf3f409" y="205.757888"/>
     <use style="fill:#f5deb3;stroke:#f5deb3;stroke-linejoin:miter;stroke-width:1.5;" x="200.102827" xlink:href="#me81bf3f409" y="106.150821"/>
     <use style="fill:#f5deb3;stroke:#f5deb3;stroke-linejoin:miter;stroke-width:1.5;" x="208.371312" xlink:href="#me81bf3f409" y="27.513663"/>
     <use style="fill:#f5deb3;stroke:#f5deb3;stroke-linejoin:miter;stroke-width:1.5;" x="208.371312" xlink:href="#me81bf3f409" y="27.513663"/>
     <use style="fill:#f5deb3;stroke:#f5deb3;stroke-linejoin:miter;stroke-width:1.5;" x="333.168" xlink:href="#me81bf3f409" y="27.513663"/>
    </g>
   </g>
   <g id="line2d_3">
    <path style="fill:none;stroke:#f5deb3;stroke-linecap:square;stroke-width:4;"/>
    <g/>
   </g>
   <g id="line2d_4">
    <path d="M 333.168 27.513663 
L 363.64328 32.86099 
" style="fill:none;stroke:#f5deb3;stroke-linecap:square;stroke-width:4;"/>
    <g>
     <use style="fill:#f5deb3;stroke:#f5deb3;stroke-linejoin:miter;stroke-width:1.5;" x="333.168" xlink:href="#me81bf3f409" y="27.513663"/>
     <use style="fill:#f5deb3;stroke:#f5deb3;stroke-linejoin:miter;stroke-width:1.5;" x="363.64328" xlink:href="#me81bf3f409" y="32.86099"/>
    </g>
   </g>
   <g id="matplotlib.axis_1">
    <g id="xtick_1">
     <g id="line2d_5">
      <path clip-path="url(#p769ba925bd)" d="M 56.12 294.88 
L 56.12 24.84 
" style="fill:none;stroke:#b0b0b0;stroke-linecap:square;stroke-width:0.8;"/>
     </g>
     <g id="line2d_6">
      <defs>
       <path d="M 0 0 
L 0 3.5 
" id="macd3e39542" style="stroke:#000000;stroke-width:0.8;"/>
      </defs>
      <g>
       <use style="stroke:#000000;stroke-width:0.8;" x="56.12" xlink:href="#macd3e39542" y="294.88"/>
      </g>
     </g>
     <g id="text_1">
      <!-- 0 -->
      <defs>
       <path d="M 31.78125 66.40625 
Q 24.171875 66.40625 20.328125 58.90625 
Q 16.5 51.421875 16.5 36.375 
Q 16.5 21.390625 20.328125 13.890625 
Q 24.171875 6.390625 31.78125 6.390625 
Q 39.453125 6.390625 43.28125 13.890625 
Q 47.125 21.390625 47.125 36.375 
Q 47.125 51.421875 43.28125 58.90625 
Q 39.453125 66.40625 31.78125 66.40625 
z
M 31.78125 74.21875 
Q 44.046875 74.21875 50.515625 64.515625 
Q 56.984375 54.828125 56.984375 36.375 
Q 56.984375 17.96875 50.515625 8.265625 
Q 44.046875 -1.421875 31.78125 -1.421875 
Q 19.53125 -1.421875 13.0625 8.265625 
Q 6.59375 17.96875 6.59375 36.375 
Q 6.59375 54.828125 13.0625 64.515625 
Q 19.53125 74.21875 31.78125 74.21875 
z
" id="DejaVuSans-30"/>
      </defs>
      <g transform="translate(49.7575 317.076875)scale(0.2 -0.2)">
       <use xlink:href="#DejaVuSans-30"/>
      </g>
     </g>
    </g>
    <g id="xtick_2">
     <g id="line2d_7">
      <path clip-path="url(#p769ba925bd)" d="M 135.276571 294.88 
L 135.276571 24.84 
" style="fill:none;stroke:#b0b0b0;stroke-linecap:square;stroke-width:0.8;"/>
     </g>
     <g id="line2d_8">
      <g>
       <use style="stroke:#000000;stroke-width:0.8;" x="135.276571" xlink:href="#macd3e39542" y="294.88"/>
      </g>
     </g>
     <g id="text_2">
      <!-- 2 -->
      <defs>
       <path d="M 19.1875 8.296875 
L 53.609375 8.296875 
L 53.609375 0 
L 7.328125 0 
L 7.328125 8.296875 
Q 12.9375 14.109375 22.625 23.890625 
Q 32.328125 33.6875 34.8125 36.53125 
Q 39.546875 41.84375 41.421875 45.53125 
Q 43.3125 49.21875 43.3125 52.78125 
Q 43.3125 58.59375 39.234375 62.25 
Q 35.15625 65.921875 28.609375 65.921875 
Q 23.96875 65.921875 18.8125 64.3125 
Q 13.671875 62.703125 7.8125 59.421875 
L 7.8125 69.390625 
Q 13.765625 71.78125 18.9375 73 
Q 24.125 74.21875 28.421875 74.21875 
Q 39.75 74.21875 46.484375 68.546875 
Q 53.21875 62.890625 53.21875 53.421875 
Q 53.21875 48.921875 51.53125 44.890625 
Q 49.859375 40.875 45.40625 35.40625 
Q 44.1875 33.984375 37.640625 27.21875 
Q 31.109375 20.453125 19.1875 8.296875 
z
" id="DejaVuSans-32"/>
      </defs>
      <g transform="translate(128.914071 317.076875)scale(0.2 -0.2)">
       <use xlink:href="#DejaVuSans-32"/>
      </g>
     </g>
    </g>
    <g id="xtick_3">
     <g id="line2d_9">
      <path clip-path="url(#p769ba925bd)" d="M 214.433143 294.88 
L 214.433143 24.84 
" style="fill:none;stroke:#b0b0b0;stroke-linecap:square;stroke-width:0.8;"/>
     </g>
     <g id="line2d_10">
      <g>
       <use style="stroke:#000000;stroke-width:0.8;" x="214.433143" xlink:href="#macd3e39542" y="294.88"/>
      </g>
     </g>
     <g id="text_3">
      <!-- 4 -->
      <defs>
       <path d="M 37.796875 64.3125 
L 12.890625 25.390625 
L 37.796875 25.390625 
z
M 35.203125 72.90625 
L 47.609375 72.90625 
L 47.609375 25.390625 
L 58.015625 25.390625 
L 58.015625 17.1875 
L 47.609375 17.1875 
L 47.609375 0 
L 37.796875 0 
L 37.796875 17.1875 
L 4.890625 17.1875 
L 4.890625 26.703125 
z
" id="DejaVuSans-34"/>
      </defs>
      <g transform="translate(208.070643 317.076875)scale(0.2 -0.2)">
       <use xlink:href="#DejaVuSans-34"/>
      </g>
     </g>
    </g>
    <g id="xtick_4">
     <g id="line2d_11">
      <path clip-path="url(#p769ba925bd)" d="M 293.589714 294.88 
L 293.589714 24.84 
" style="fill:none;stroke:#b0b0b0;stroke-linecap:square;stroke-width:0.8;"/>
     </g>
     <g id="line2d_12">
      <g>
       <use style="stroke:#000000;stroke-width:0.8;" x="293.589714" xlink:href="#macd3e39542" y="294.88"/>
      </g>
     </g>
     <g id="text_4">
      <!-- 6 -->
      <defs>
       <path d="M 33.015625 40.375 
Q 26.375 40.375 22.484375 35.828125 
Q 18.609375 31.296875 18.609375 23.390625 
Q 18.609375 15.53125 22.484375 10.953125 
Q 26.375 6.390625 33.015625 6.390625 
Q 39.65625 6.390625 43.53125 10.953125 
Q 47.40625 15.53125 47.40625 23.390625 
Q 47.40625 31.296875 43.53125 35.828125 
Q 39.65625 40.375 33.015625 40.375 
z
M 52.59375 71.296875 
L 52.59375 62.3125 
Q 48.875 64.0625 45.09375 64.984375 
Q 41.3125 65.921875 37.59375 65.921875 
Q 27.828125 65.921875 22.671875 59.328125 
Q 17.53125 52.734375 16.796875 39.40625 
Q 19.671875 43.65625 24.015625 45.921875 
Q 28.375 48.1875 33.59375 48.1875 
Q 44.578125 48.1875 50.953125 41.515625 
Q 57.328125 34.859375 57.328125 23.390625 
Q 57.328125 12.15625 50.6875 5.359375 
Q 44.046875 -1.421875 33.015625 -1.421875 
Q 20.359375 -1.421875 13.671875 8.265625 
Q 6.984375 17.96875 6.984375 36.375 
Q 6.984375 53.65625 15.1875 63.9375 
Q 23.390625 74.21875 37.203125 74.21875 
Q 40.921875 74.21875 44.703125 73.484375 
Q 48.484375 72.75 52.59375 71.296875 
z
" id="DejaVuSans-36"/>
      </defs>
      <g transform="translate(287.227214 317.076875)scale(0.2 -0.2)">
       <use xlink:href="#DejaVuSans-36"/>
      </g>
     </g>
    </g>
    <g id="xtick_5">
     <g id="line2d_13">
      <path clip-path="url(#p769ba925bd)" d="M 56.12 294.88 
L 56.12 24.84 
" style="fill:none;stroke:#b0b0b0;stroke-linecap:square;stroke-width:0.8;"/>
     </g>
     <g id="line2d_14">
      <defs>
       <path d="M 0 0 
L 0 2 
" id="md73cd131f3" style="stroke:#000000;stroke-width:0.6;"/>
      </defs>
      <g>
       <use style="stroke:#000000;stroke-width:0.6;" x="56.12" xlink:href="#md73cd131f3" y="294.88"/>
      </g>
     </g>
    </g>
    <g id="xtick_6">
     <g id="line2d_15">
      <path clip-path="url(#p769ba925bd)" d="M 95.698286 294.88 
L 95.698286 24.84 
" style="fill:none;stroke:#b0b0b0;stroke-linecap:square;stroke-width:0.8;"/>
     </g>
     <g id="line2d_16">
      <g>
       <use style="stroke:#000000;stroke-width:0.6;" x="95.698286" xlink:href="#md73cd131f3" y="294.88"/>
      </g>
     </g>
    </g>
    <g id="xtick_7">
     <g id="line2d_17">
      <path clip-path="url(#p769ba925bd)" d="M 135.276571 294.88 
L 135.276571 24.84 
" style="fill:none;stroke:#b0b0b0;stroke-linecap:square;stroke-width:0.8;"/>
     </g>
     <g id="line2d_18">
      <g>
       <use style="stroke:#000000;stroke-width:0.6;" x="135.276571" xlink:href="#md73cd131f3" y="294.88"/>
      </g>
     </g>
    </g>
    <g id="xtick_8">
     <g id="line2d_19">
      <path clip-path="url(#p769ba925bd)" d="M 174.854857 294.88 
L 174.854857 24.84 
" style="fill:none;stroke:#b0b0b0;stroke-linecap:square;stroke-width:0.8;"/>
     </g>
     <g id="line2d_20">
      <g>
       <use style="stroke:#000000;stroke-width:0.6;" x="174.854857" xlink:href="#md73cd131f3" y="294.88"/>
      </g>
     </g>
    </g>
    <g id="xtick_9">
     <g id="line2d_21">
      <path clip-path="url(#p769ba925bd)" d="M 214.433143 294.88 
L 214.433143 24.84 
" style="fill:none;stroke:#b0b0b0;stroke-linecap:square;stroke-width:0.8;"/>
     </g>
     <g id="line2d_22">
      <g>
       <use style="stroke:#000000;stroke-width:0.6;" x="214.433143" xlink:href="#md73cd131f3" y="294.88"/>
      </g>
     </g>
    </g>
    <g id="xtick_10">
     <g id="line2d_23">
      <path clip-path="url(#p769ba925bd)" d="M 254.011429 294.88 
L 254.011429 24.84 
" style="fill:none;stroke:#b0b0b0;stroke-linecap:square;stroke-width:0.8;"/>
     </g>
     <g id="line2d_24">
      <g>
       <use style="stroke:#000000;stroke-width:0.6;" x="254.011429" xlink:href="#md73cd131f3" y="294.88"/>
      </g>
     </g>
    </g>
    <g id="xtick_11">
     <g id="line2d_25">
      <path clip-path="url(#p769ba925bd)" d="M 293.589714 294.88 
L 293.589714 24.84 
" style="fill:none;stroke:#b0b0b0;stroke-linecap:square;stroke-width:0.8;"/>
     </g>
     <g id="line2d_26">
      <g>
       <use style="stroke:#000000;stroke-width:0.6;" x="293.589714" xlink:href="#md73cd131f3" y="294.88"/>
      </g>
     </g>
    </g>
    <g id="xtick_12">
     <g id="line2d_27">
      <path clip-path="url(#p769ba925bd)" d="M 333.168 294.88 
L 333.168 24.84 
" style="fill:none;stroke:#b0b0b0;stroke-linecap:square;stroke-width:0.8;"/>
     </g>
     <g id="line2d_28">
      <g>
       <use style="stroke:#000000;stroke-width:0.6;" x="333.168" xlink:href="#md73cd131f3" y="294.88"/>
      </g>
     </g>
    </g>
    <g id="text_5">
     <!-- log10(# f-evals / dimension) -->
     <defs>
      <path d="M 9.421875 75.984375 
L 18.40625 75.984375 
L 18.40625 0 
L 9.421875 0 
z
" id="DejaVuSans-6c"/>
      <path d="M 30.609375 48.390625 
Q 23.390625 48.390625 19.1875 42.75 
Q 14.984375 37.109375 14.984375 27.296875 
Q 14.984375 17.484375 19.15625 11.84375 
Q 23.34375 6.203125 30.609375 6.203125 
Q 37.796875 6.203125 41.984375 11.859375 
Q 46.1875 17.53125 46.1875 27.296875 
Q 46.1875 37.015625 41.984375 42.703125 
Q 37.796875 48.390625 30.609375 48.390625 
z
M 30.609375 56 
Q 42.328125 56 49.015625 48.375 
Q 55.71875 40.765625 55.71875 27.296875 
Q 55.71875 13.875 49.015625 6.21875 
Q 42.328125 -1.421875 30.609375 -1.421875 
Q 18.84375 -1.421875 12.171875 6.21875 
Q 5.515625 13.875 5.515625 27.296875 
Q 5.515625 40.765625 12.171875 48.375 
Q 18.84375 56 30.609375 56 
z
" id="DejaVuSans-6f"/>
      <path d="M 45.40625 27.984375 
Q 45.40625 37.75 41.375 43.109375 
Q 37.359375 48.484375 30.078125 48.484375 
Q 22.859375 48.484375 18.828125 43.109375 
Q 14.796875 37.75 14.796875 27.984375 
Q 14.796875 18.265625 18.828125 12.890625 
Q 22.859375 7.515625 30.078125 7.515625 
Q 37.359375 7.515625 41.375 12.890625 
Q 45.40625 18.265625 45.40625 27.984375 
z
M 54.390625 6.78125 
Q 54.390625 -7.171875 48.1875 -13.984375 
Q 42 -20.796875 29.203125 -20.796875 
Q 24.46875 -20.796875 20.265625 -20.09375 
Q 16.0625 -19.390625 12.109375 -17.921875 
L 12.109375 -9.1875 
Q 16.0625 -11.328125 19.921875 -12.34375 
Q 23.78125 -13.375 27.78125 -13.375 
Q 36.625 -13.375 41.015625 -8.765625 
Q 45.40625 -4.15625 45.40625 5.171875 
L 45.40625 9.625 
Q 42.625 4.78125 38.28125 2.390625 
Q 33.9375 0 27.875 0 
Q 17.828125 0 11.671875 7.65625 
Q 5.515625 15.328125 5.515625 27.984375 
Q 5.515625 40.671875 11.671875 48.328125 
Q 17.828125 56 27.875 56 
Q 33.9375 56 38.28125 53.609375 
Q 42.625 51.21875 45.40625 46.390625 
L 45.40625 54.6875 
L 54.390625 54.6875 
z
" id="DejaVuSans-67"/>
      <path d="M 12.40625 8.296875 
L 28.515625 8.296875 
L 28.515625 63.921875 
L 10.984375 60.40625 
L 10.984375 69.390625 
L 28.421875 72.90625 
L 38.28125 72.90625 
L 38.28125 8.296875 
L 54.390625 8.296875 
L 54.390625 0 
L 12.40625 0 
z
" id="DejaVuSans-31"/>
      <path d="M 31 75.875 
Q 24.46875 64.65625 21.28125 53.65625 
Q 18.109375 42.671875 18.109375 31.390625 
Q 18.109375 20.125 21.3125 9.0625 
Q 24.515625 -2 31 -13.1875 
L 23.1875 -13.1875 
Q 15.875 -1.703125 12.234375 9.375 
Q 8.59375 20.453125 8.59375 31.390625 
Q 8.59375 42.28125 12.203125 53.3125 
Q 15.828125 64.359375 23.1875 75.875 
z
" id="DejaVuSans-28"/>
      <path d="M 51.125 44 
L 36.921875 44 
L 32.8125 27.6875 
L 47.125 27.6875 
z
M 43.796875 71.78125 
L 38.71875 51.515625 
L 52.984375 51.515625 
L 58.109375 71.78125 
L 65.921875 71.78125 
L 60.890625 51.515625 
L 76.125 51.515625 
L 76.125 44 
L 58.984375 44 
L 54.984375 27.6875 
L 70.515625 27.6875 
L 70.515625 20.21875 
L 53.078125 20.21875 
L 48 0 
L 40.1875 0 
L 45.21875 20.21875 
L 30.90625 20.21875 
L 25.875 0 
L 18.015625 0 
L 23.09375 20.21875 
L 7.71875 20.21875 
L 7.71875 27.6875 
L 24.90625 27.6875 
L 29 44 
L 13.28125 44 
L 13.28125 51.515625 
L 30.90625 51.515625 
L 35.890625 71.78125 
z
" id="DejaVuSans-23"/>
      <path id="DejaVuSans-20"/>
      <path d="M 37.109375 75.984375 
L 37.109375 68.5 
L 28.515625 68.5 
Q 23.6875 68.5 21.796875 66.546875 
Q 19.921875 64.59375 19.921875 59.515625 
L 19.921875 54.6875 
L 34.71875 54.6875 
L 34.71875 47.703125 
L 19.921875 47.703125 
L 19.921875 0 
L 10.890625 0 
L 10.890625 47.703125 
L 2.296875 47.703125 
L 2.296875 54.6875 
L 10.890625 54.6875 
L 10.890625 58.5 
Q 10.890625 67.625 15.140625 71.796875 
Q 19.390625 75.984375 28.609375 75.984375 
z
" id="DejaVuSans-66"/>
      <path d="M 4.890625 31.390625 
L 31.203125 31.390625 
L 31.203125 23.390625 
L 4.890625 23.390625 
z
" id="DejaVuSans-2d"/>
      <path d="M 56.203125 29.59375 
L 56.203125 25.203125 
L 14.890625 25.203125 
Q 15.484375 15.921875 20.484375 11.0625 
Q 25.484375 6.203125 34.421875 6.203125 
Q 39.59375 6.203125 44.453125 7.46875 
Q 49.3125 8.734375 54.109375 11.28125 
L 54.109375 2.78125 
Q 49.265625 0.734375 44.1875 -0.34375 
Q 39.109375 -1.421875 33.890625 -1.421875 
Q 20.796875 -1.421875 13.15625 6.1875 
Q 5.515625 13.8125 5.515625 26.8125 
Q 5.515625 40.234375 12.765625 48.109375 
Q 20.015625 56 32.328125 56 
Q 43.359375 56 49.78125 48.890625 
Q 56.203125 41.796875 56.203125 29.59375 
z
M 47.21875 32.234375 
Q 47.125 39.59375 43.09375 43.984375 
Q 39.0625 48.390625 32.421875 48.390625 
Q 24.90625 48.390625 20.390625 44.140625 
Q 15.875 39.890625 15.1875 32.171875 
z
" id="DejaVuSans-65"/>
      <path d="M 2.984375 54.6875 
L 12.5 54.6875 
L 29.59375 8.796875 
L 46.6875 54.6875 
L 56.203125 54.6875 
L 35.6875 0 
L 23.484375 0 
z
" id="DejaVuSans-76"/>
      <path d="M 34.28125 27.484375 
Q 23.390625 27.484375 19.1875 25 
Q 14.984375 22.515625 14.984375 16.5 
Q 14.984375 11.71875 18.140625 8.90625 
Q 21.296875 6.109375 26.703125 6.109375 
Q 34.1875 6.109375 38.703125 11.40625 
Q 43.21875 16.703125 43.21875 25.484375 
L 43.21875 27.484375 
z
M 52.203125 31.203125 
L 52.203125 0 
L 43.21875 0 
L 43.21875 8.296875 
Q 40.140625 3.328125 35.546875 0.953125 
Q 30.953125 -1.421875 24.3125 -1.421875 
Q 15.921875 -1.421875 10.953125 3.296875 
Q 6 8.015625 6 15.921875 
Q 6 25.140625 12.171875 29.828125 
Q 18.359375 34.515625 30.609375 34.515625 
L 43.21875 34.515625 
L 43.21875 35.40625 
Q 43.21875 41.609375 39.140625 45 
Q 35.0625 48.390625 27.6875 48.390625 
Q 23 48.390625 18.546875 47.265625 
Q 14.109375 46.140625 10.015625 43.890625 
L 10.015625 52.203125 
Q 14.9375 54.109375 19.578125 55.046875 
Q 24.21875 56 28.609375 56 
Q 40.484375 56 46.34375 49.84375 
Q 52.203125 43.703125 52.203125 31.203125 
z
" id="DejaVuSans-61"/>
      <path d="M 44.28125 53.078125 
L 44.28125 44.578125 
Q 40.484375 46.53125 36.375 47.5 
Q 32.28125 48.484375 27.875 48.484375 
Q 21.1875 48.484375 17.84375 46.4375 
Q 14.5 44.390625 14.5 40.28125 
Q 14.5 37.15625 16.890625 35.375 
Q 19.28125 33.59375 26.515625 31.984375 
L 29.59375 31.296875 
Q 39.15625 29.25 43.1875 25.515625 
Q 47.21875 21.78125 47.21875 15.09375 
Q 47.21875 7.46875 41.1875 3.015625 
Q 35.15625 -1.421875 24.609375 -1.421875 
Q 20.21875 -1.421875 15.453125 -0.5625 
Q 10.6875 0.296875 5.421875 2 
L 5.421875 11.28125 
Q 10.40625 8.6875 15.234375 7.390625 
Q 20.0625 6.109375 24.8125 6.109375 
Q 31.15625 6.109375 34.5625 8.28125 
Q 37.984375 10.453125 37.984375 14.40625 
Q 37.984375 18.0625 35.515625 20.015625 
Q 33.0625 21.96875 24.703125 23.78125 
L 21.578125 24.515625 
Q 13.234375 26.265625 9.515625 29.90625 
Q 5.8125 33.546875 5.8125 39.890625 
Q 5.8125 47.609375 11.28125 51.796875 
Q 16.75 56 26.8125 56 
Q 31.78125 56 36.171875 55.265625 
Q 40.578125 54.546875 44.28125 53.078125 
z
" id="DejaVuSans-73"/>
      <path d="M 25.390625 72.90625 
L 33.6875 72.90625 
L 8.296875 -9.28125 
L 0 -9.28125 
z
" id="DejaVuSans-2f"/>
      <path d="M 45.40625 46.390625 
L 45.40625 75.984375 
L 54.390625 75.984375 
L 54.390625 0 
L 45.40625 0 
L 45.40625 8.203125 
Q 42.578125 3.328125 38.25 0.953125 
Q 33.9375 -1.421875 27.875 -1.421875 
Q 17.96875 -1.421875 11.734375 6.484375 
Q 5.515625 14.40625 5.515625 27.296875 
Q 5.515625 40.1875 11.734375 48.09375 
Q 17.96875 56 27.875 56 
Q 33.9375 56 38.25 53.625 
Q 42.578125 51.265625 45.40625 46.390625 
z
M 14.796875 27.296875 
Q 14.796875 17.390625 18.875 11.75 
Q 22.953125 6.109375 30.078125 6.109375 
Q 37.203125 6.109375 41.296875 11.75 
Q 45.40625 17.390625 45.40625 27.296875 
Q 45.40625 37.203125 41.296875 42.84375 
Q 37.203125 48.484375 30.078125 48.484375 
Q 22.953125 48.484375 18.875 42.84375 
Q 14.796875 37.203125 14.796875 27.296875 
z
" id="DejaVuSans-64"/>
      <path d="M 9.421875 54.6875 
L 18.40625 54.6875 
L 18.40625 0 
L 9.421875 0 
z
M 9.421875 75.984375 
L 18.40625 75.984375 
L 18.40625 64.59375 
L 9.421875 64.59375 
z
" id="DejaVuSans-69"/>
      <path d="M 52 44.1875 
Q 55.375 50.25 60.0625 53.125 
Q 64.75 56 71.09375 56 
Q 79.640625 56 84.28125 50.015625 
Q 88.921875 44.046875 88.921875 33.015625 
L 88.921875 0 
L 79.890625 0 
L 79.890625 32.71875 
Q 79.890625 40.578125 77.09375 44.375 
Q 74.3125 48.1875 68.609375 48.1875 
Q 61.625 48.1875 57.5625 43.546875 
Q 53.515625 38.921875 53.515625 30.90625 
L 53.515625 0 
L 44.484375 0 
L 44.484375 32.71875 
Q 44.484375 40.625 41.703125 44.40625 
Q 38.921875 48.1875 33.109375 48.1875 
Q 26.21875 48.1875 22.15625 43.53125 
Q 18.109375 38.875 18.109375 30.90625 
L 18.109375 0 
L 9.078125 0 
L 9.078125 54.6875 
L 18.109375 54.6875 
L 18.109375 46.1875 
Q 21.1875 51.21875 25.484375 53.609375 
Q 29.78125 56 35.6875 56 
Q 41.65625 56 45.828125 52.96875 
Q 50 49.953125 52 44.1875 
z
" id="DejaVuSans-6d"/>
      <path d="M 54.890625 33.015625 
L 54.890625 0 
L 45.90625 0 
L 45.90625 32.71875 
Q 45.90625 40.484375 42.875 44.328125 
Q 39.84375 48.1875 33.796875 48.1875 
Q 26.515625 48.1875 22.3125 43.546875 
Q 18.109375 38.921875 18.109375 30.90625 
L 18.109375 0 
L 9.078125 0 
L 9.078125 54.6875 
L 18.109375 54.6875 
L 18.109375 46.1875 
Q 21.34375 51.125 25.703125 53.5625 
Q 30.078125 56 35.796875 56 
Q 45.21875 56 50.046875 50.171875 
Q 54.890625 44.34375 54.890625 33.015625 
z
" id="DejaVuSans-6e"/>
      <path d="M 8.015625 75.875 
L 15.828125 75.875 
Q 23.140625 64.359375 26.78125 53.3125 
Q 30.421875 42.28125 30.421875 31.390625 
Q 30.421875 20.453125 26.78125 9.375 
Q 23.140625 -1.703125 15.828125 -13.1875 
L 8.015625 -13.1875 
Q 14.5 -2 17.703125 9.0625 
Q 20.90625 20.125 20.90625 31.390625 
Q 20.90625 42.671875 17.703125 53.65625 
Q 14.5 64.65625 8.015625 75.875 
z
" id="DejaVuSans-29"/>
     </defs>
     <g transform="translate(73.803219 338.153594)scale(0.17 -0.17)">
      <use xlink:href="#DejaVuSans-6c"/>
      <use x="27.783203" xlink:href="#DejaVuSans-6f"/>
      <use x="88.964844" xlink:href="#DejaVuSans-67"/>
      <use x="152.441406" xlink:href="#DejaVuSans-31"/>
      <use x="216.064453" xlink:href="#DejaVuSans-30"/>
      <use x="279.6875" xlink:href="#DejaVuSans-28"/>
      <use x="318.701172" xlink:href="#DejaVuSans-23"/>
      <use x="402.490234" xlink:href="#DejaVuSans-20"/>
      <use x="434.277344" xlink:href="#DejaVuSans-66"/>
      <use x="469.404297" xlink:href="#DejaVuSans-2d"/>
      <use x="505.488281" xlink:href="#DejaVuSans-65"/>
      <use x="567.011719" xlink:href="#DejaVuSans-76"/>
      <use x="626.191406" xlink:href="#DejaVuSans-61"/>
      <use x="687.470703" xlink:href="#DejaVuSans-6c"/>
      <use x="715.253906" xlink:href="#DejaVuSans-73"/>
      <use x="767.353516" xlink:href="#DejaVuSans-20"/>
      <use x="799.140625" xlink:href="#DejaVuSans-2f"/>
      <use x="832.832031" xlink:href="#DejaVuSans-20"/>
      <use x="864.619141" xlink:href="#DejaVuSans-64"/>
      <use x="928.095703" xlink:href="#DejaVuSans-69"/>
      <use x="955.878906" xlink:href="#DejaVuSans-6d"/>
      <use x="1053.291016" xlink:href="#DejaVuSans-65"/>
      <use x="1114.814453" xlink:href="#DejaVuSans-6e"/>
      <use x="1178.193359" xlink:href="#DejaVuSans-73"/>
      <use x="1230.292969" xlink:href="#DejaVuSans-69"/>
      <use x="1258.076172" xlink:href="#DejaVuSans-6f"/>
      <use x="1319.257812" xlink:href="#DejaVuSans-6e"/>
      <use x="1382.636719" xlink:href="#DejaVuSans-29"/>
     </g>
    </g>
   </g>
   <g id="matplotlib.axis_2">
    <g id="ytick_1">
     <g id="line2d_29">
      <path clip-path="url(#p769ba925bd)" d="M 56.12 294.88 
L 333.168 294.88 
" style="fill:none;stroke:#b0b0b0;stroke-linecap:square;stroke-width:0.8;"/>
     </g>
     <g id="line2d_30">
      <defs>
       <path d="M 0 0 
L -3.5 0 
" id="m6079e7e28e" style="stroke:#000000;stroke-width:0.8;"/>
      </defs>
      <g>
       <use style="stroke:#000000;stroke-width:0.8;" x="56.12" xlink:href="#m6079e7e28e" y="294.88"/>
      </g>
     </g>
     <g id="text_6">
      <!-- 0.0 -->
      <defs>
       <path d="M 10.6875 12.40625 
L 21 12.40625 
L 21 0 
L 10.6875 0 
z
" id="DejaVuSans-2e"/>
      </defs>
      <g transform="translate(23.675 300.95875)scale(0.16 -0.16)">
       <use xlink:href="#DejaVuSans-30"/>
       <use x="63.623047" xlink:href="#DejaVuSans-2e"/>
       <use x="95.410156" xlink:href="#DejaVuSans-30"/>
      </g>
     </g>
    </g>
    <g id="ytick_2">
     <g id="line2d_31">
      <path clip-path="url(#p769ba925bd)" d="M 56.12 241.406733 
L 333.168 241.406733 
" style="fill:none;stroke:#b0b0b0;stroke-linecap:square;stroke-width:0.8;"/>
     </g>
     <g id="line2d_32">
      <g>
       <use style="stroke:#000000;stroke-width:0.8;" x="56.12" xlink:href="#m6079e7e28e" y="241.406733"/>
      </g>
     </g>
     <g id="text_7">
      <!-- 0.2 -->
      <g transform="translate(23.675 247.485483)scale(0.16 -0.16)">
       <use xlink:href="#DejaVuSans-30"/>
       <use x="63.623047" xlink:href="#DejaVuSans-2e"/>
       <use x="95.410156" xlink:href="#DejaVuSans-32"/>
      </g>
     </g>
    </g>
    <g id="ytick_3">
     <g id="line2d_33">
      <path clip-path="url(#p769ba925bd)" d="M 56.12 187.933465 
L 333.168 187.933465 
" style="fill:none;stroke:#b0b0b0;stroke-linecap:square;stroke-width:0.8;"/>
     </g>
     <g id="line2d_34">
      <g>
       <use style="stroke:#000000;stroke-width:0.8;" x="56.12" xlink:href="#m6079e7e28e" y="187.933465"/>
      </g>
     </g>
     <g id="text_8">
      <!-- 0.4 -->
      <g transform="translate(23.675 194.012215)scale(0.16 -0.16)">
       <use xlink:href="#DejaVuSans-30"/>
       <use x="63.623047" xlink:href="#DejaVuSans-2e"/>
       <use x="95.410156" xlink:href="#DejaVuSans-34"/>
      </g>
     </g>
    </g>
    <g id="ytick_4">
     <g id="line2d_35">
      <path clip-path="url(#p769ba925bd)" d="M 56.12 134.460198 
L 333.168 134.460198 
" style="fill:none;stroke:#b0b0b0;stroke-linecap:square;stroke-width:0.8;"/>
     </g>
     <g id="line2d_36">
      <g>
       <use style="stroke:#000000;stroke-width:0.8;" x="56.12" xlink:href="#m6079e7e28e" y="134.460198"/>
      </g>
     </g>
     <g id="text_9">
      <!-- 0.6 -->
      <g transform="translate(23.675 140.538948)scale(0.16 -0.16)">
       <use xlink:href="#DejaVuSans-30"/>
       <use x="63.623047" xlink:href="#DejaVuSans-2e"/>
       <use x="95.410156" xlink:href="#DejaVuSans-36"/>
      </g>
     </g>
    </g>
    <g id="ytick_5">
     <g id="line2d_37">
      <path clip-path="url(#p769ba925bd)" d="M 56.12 80.986931 
L 333.168 80.986931 
" style="fill:none;stroke:#b0b0b0;stroke-linecap:square;stroke-width:0.8;"/>
     </g>
     <g id="line2d_38">
      <g>
       <use style="stroke:#000000;stroke-width:0.8;" x="56.12" xlink:href="#m6079e7e28e" y="80.986931"/>
      </g>
     </g>
     <g id="text_10">
      <!-- 0.8 -->
      <defs>
       <path d="M 31.78125 34.625 
Q 24.75 34.625 20.71875 30.859375 
Q 16.703125 27.09375 16.703125 20.515625 
Q 16.703125 13.921875 20.71875 10.15625 
Q 24.75 6.390625 31.78125 6.390625 
Q 38.8125 6.390625 42.859375 10.171875 
Q 46.921875 13.96875 46.921875 20.515625 
Q 46.921875 27.09375 42.890625 30.859375 
Q 38.875 34.625 31.78125 34.625 
z
M 21.921875 38.8125 
Q 15.578125 40.375 12.03125 44.71875 
Q 8.5 49.078125 8.5 55.328125 
Q 8.5 64.0625 14.71875 69.140625 
Q 20.953125 74.21875 31.78125 74.21875 
Q 42.671875 74.21875 48.875 69.140625 
Q 55.078125 64.0625 55.078125 55.328125 
Q 55.078125 49.078125 51.53125 44.71875 
Q 48 40.375 41.703125 38.8125 
Q 48.828125 37.15625 52.796875 32.3125 
Q 56.78125 27.484375 56.78125 20.515625 
Q 56.78125 9.90625 50.3125 4.234375 
Q 43.84375 -1.421875 31.78125 -1.421875 
Q 19.734375 -1.421875 13.25 4.234375 
Q 6.78125 9.90625 6.78125 20.515625 
Q 6.78125 27.484375 10.78125 32.3125 
Q 14.796875 37.15625 21.921875 38.8125 
z
M 18.3125 54.390625 
Q 18.3125 48.734375 21.84375 45.5625 
Q 25.390625 42.390625 31.78125 42.390625 
Q 38.140625 42.390625 41.71875 45.5625 
Q 45.3125 48.734375 45.3125 54.390625 
Q 45.3125 60.0625 41.71875 63.234375 
Q 38.140625 66.40625 31.78125 66.40625 
Q 25.390625 66.40625 21.84375 63.234375 
Q 18.3125 60.0625 18.3125 54.390625 
z
" id="DejaVuSans-38"/>
      </defs>
      <g transform="translate(23.675 87.065681)scale(0.16 -0.16)">
       <use xlink:href="#DejaVuSans-30"/>
       <use x="63.623047" xlink:href="#DejaVuSans-2e"/>
       <use x="95.410156" xlink:href="#DejaVuSans-38"/>
      </g>
     </g>
    </g>
    <g id="ytick_6">
     <g id="line2d_39">
      <path clip-path="url(#p769ba925bd)" d="M 56.12 27.513663 
L 333.168 27.513663 
" style="fill:none;stroke:#b0b0b0;stroke-linecap:square;stroke-width:0.8;"/>
     </g>
     <g id="line2d_40">
      <g>
       <use style="stroke:#000000;stroke-width:0.8;" x="56.12" xlink:href="#m6079e7e28e" y="27.513663"/>
      </g>
     </g>
     <g id="text_11">
      <!-- 1.0 -->
      <g transform="translate(23.675 33.592413)scale(0.16 -0.16)">
       <use xlink:href="#DejaVuSans-31"/>
       <use x="63.623047" xlink:href="#DejaVuSans-2e"/>
       <use x="95.410156" xlink:href="#DejaVuSans-30"/>
      </g>
     </g>
    </g>
    <g id="text_12">
     <!-- Fraction of function,target pairs -->
     <defs>
      <path d="M 9.8125 72.90625 
L 51.703125 72.90625 
L 51.703125 64.59375 
L 19.671875 64.59375 
L 19.671875 43.109375 
L 48.578125 43.109375 
L 48.578125 34.8125 
L 19.671875 34.8125 
L 19.671875 0 
L 9.8125 0 
z
" id="DejaVuSans-46"/>
      <path d="M 41.109375 46.296875 
Q 39.59375 47.171875 37.8125 47.578125 
Q 36.03125 48 33.890625 48 
Q 26.265625 48 22.1875 43.046875 
Q 18.109375 38.09375 18.109375 28.8125 
L 18.109375 0 
L 9.078125 0 
L 9.078125 54.6875 
L 18.109375 54.6875 
L 18.109375 46.1875 
Q 20.953125 51.171875 25.484375 53.578125 
Q 30.03125 56 36.53125 56 
Q 37.453125 56 38.578125 55.875 
Q 39.703125 55.765625 41.0625 55.515625 
z
" id="DejaVuSans-72"/>
      <path d="M 48.78125 52.59375 
L 48.78125 44.1875 
Q 44.96875 46.296875 41.140625 47.34375 
Q 37.3125 48.390625 33.40625 48.390625 
Q 24.65625 48.390625 19.8125 42.84375 
Q 14.984375 37.3125 14.984375 27.296875 
Q 14.984375 17.28125 19.8125 11.734375 
Q 24.65625 6.203125 33.40625 6.203125 
Q 37.3125 6.203125 41.140625 7.25 
Q 44.96875 8.296875 48.78125 10.40625 
L 48.78125 2.09375 
Q 45.015625 0.34375 40.984375 -0.53125 
Q 36.96875 -1.421875 32.421875 -1.421875 
Q 20.0625 -1.421875 12.78125 6.34375 
Q 5.515625 14.109375 5.515625 27.296875 
Q 5.515625 40.671875 12.859375 48.328125 
Q 20.21875 56 33.015625 56 
Q 37.15625 56 41.109375 55.140625 
Q 45.0625 54.296875 48.78125 52.59375 
z
" id="DejaVuSans-63"/>
      <path d="M 18.3125 70.21875 
L 18.3125 54.6875 
L 36.8125 54.6875 
L 36.8125 47.703125 
L 18.3125 47.703125 
L 18.3125 18.015625 
Q 18.3125 11.328125 20.140625 9.421875 
Q 21.96875 7.515625 27.59375 7.515625 
L 36.8125 7.515625 
L 36.8125 0 
L 27.59375 0 
Q 17.1875 0 13.234375 3.875 
Q 9.28125 7.765625 9.28125 18.015625 
L 9.28125 47.703125 
L 2.6875 47.703125 
L 2.6875 54.6875 
L 9.28125 54.6875 
L 9.28125 70.21875 
z
" id="DejaVuSans-74"/>
      <path d="M 8.5 21.578125 
L 8.5 54.6875 
L 17.484375 54.6875 
L 17.484375 21.921875 
Q 17.484375 14.15625 20.5 10.265625 
Q 23.53125 6.390625 29.59375 6.390625 
Q 36.859375 6.390625 41.078125 11.03125 
Q 45.3125 15.671875 45.3125 23.6875 
L 45.3125 54.6875 
L 54.296875 54.6875 
L 54.296875 0 
L 45.3125 0 
L 45.3125 8.40625 
Q 42.046875 3.421875 37.71875 1 
Q 33.40625 -1.421875 27.6875 -1.421875 
Q 18.265625 -1.421875 13.375 4.4375 
Q 8.5 10.296875 8.5 21.578125 
z
M 31.109375 56 
z
" id="DejaVuSans-75"/>
      <path d="M 11.71875 12.40625 
L 22.015625 12.40625 
L 22.015625 4 
L 14.015625 -11.625 
L 7.71875 -11.625 
L 11.71875 4 
z
" id="DejaVuSans-2c"/>
      <path d="M 18.109375 8.203125 
L 18.109375 -20.796875 
L 9.078125 -20.796875 
L 9.078125 54.6875 
L 18.109375 54.6875 
L 18.109375 46.390625 
Q 20.953125 51.265625 25.265625 53.625 
Q 29.59375 56 35.59375 56 
Q 45.5625 56 51.78125 48.09375 
Q 58.015625 40.1875 58.015625 27.296875 
Q 58.015625 14.40625 51.78125 6.484375 
Q 45.5625 -1.421875 35.59375 -1.421875 
Q 29.59375 -1.421875 25.265625 0.953125 
Q 20.953125 3.328125 18.109375 8.203125 
z
M 48.6875 27.296875 
Q 48.6875 37.203125 44.609375 42.84375 
Q 40.53125 48.484375 33.40625 48.484375 
Q 26.265625 48.484375 22.1875 42.84375 
Q 18.109375 37.203125 18.109375 27.296875 
Q 18.109375 17.390625 22.1875 11.75 
Q 26.265625 6.109375 33.40625 6.109375 
Q 40.53125 6.109375 44.609375 11.75 
Q 48.6875 17.390625 48.6875 27.296875 
z
" id="DejaVuSans-70"/>
     </defs>
     <g transform="translate(16.139531 294.999375)rotate(-90)scale(0.17 -0.17)">
      <use xlink:href="#DejaVuSans-46"/>
      <use x="57.410156" xlink:href="#DejaVuSans-72"/>
      <use x="98.523438" xlink:href="#DejaVuSans-61"/>
      <use x="159.802734" xlink:href="#DejaVuSans-63"/>
      <use x="214.783203" xlink:href="#DejaVuSans-74"/>
      <use x="253.992188" xlink:href="#DejaVuSans-69"/>
      <use x="281.775391" xlink:href="#DejaVuSans-6f"/>
      <use x="342.957031" xlink:href="#DejaVuSans-6e"/>
      <use x="406.335938" xlink:href="#DejaVuSans-20"/>
      <use x="438.123047" xlink:href="#DejaVuSans-6f"/>
      <use x="499.304688" xlink:href="#DejaVuSans-66"/>
      <use x="534.509766" xlink:href="#DejaVuSans-20"/>
      <use x="566.296875" xlink:href="#DejaVuSans-66"/>
      <use x="601.501953" xlink:href="#DejaVuSans-75"/>
      <use x="664.880859" xlink:href="#DejaVuSans-6e"/>
      <use x="728.259766" xlink:href="#DejaVuSans-63"/>
      <use x="783.240234" xlink:href="#DejaVuSans-74"/>
      <use x="822.449219" xlink:href="#DejaVuSans-69"/>
      <use x="850.232422" xlink:href="#DejaVuSans-6f"/>
      <use x="911.414062" xlink:href="#DejaVuSans-6e"/>
      <use x="974.792969" xlink:href="#DejaVuSans-2c"/>
      <use x="1006.580078" xlink:href="#DejaVuSans-74"/>
      <use x="1045.789062" xlink:href="#DejaVuSans-61"/>
      <use x="1107.068359" xlink:href="#DejaVuSans-72"/>
      <use x="1148.166016" xlink:href="#DejaVuSans-67"/>
      <use x="1211.642578" xlink:href="#DejaVuSans-65"/>
      <use x="1273.166016" xlink:href="#DejaVuSans-74"/>
      <use x="1312.375" xlink:href="#DejaVuSans-20"/>
      <use x="1344.162109" xlink:href="#DejaVuSans-70"/>
      <use x="1407.638672" xlink:href="#DejaVuSans-61"/>
      <use x="1468.917969" xlink:href="#DejaVuSans-69"/>
      <use x="1496.701172" xlink:href="#DejaVuSans-72"/>
      <use x="1537.814453" xlink:href="#DejaVuSans-73"/>
     </g>
    </g>
   </g>
   <g id="line2d_41">
    <defs>
     <path d="M 0 1.5 
C 0.397805 1.5 0.77937 1.341951 1.06066 1.06066 
C 1.341951 0.77937 1.5 0.397805 1.5 0 
C 1.5 -0.397805 1.341951 -0.77937 1.06066 -1.06066 
C 0.77937 -1.341951 0.397805 -1.5 0 -1.5 
C -0.397805 -1.5 -0.77937 -1.341951 -1.06066 -1.06066 
C -1.341951 -0.77937 -1.5 -0.397805 -1.5 0 
C -1.5 0.397805 -1.341951 0.77937 -1.06066 1.06066 
C -0.77937 1.341951 -0.397805 1.5 0 1.5 
z
" id="me2973add8c" style="stroke:#f5deb3;"/>
    </defs>
    <g>
     <use style="fill:#f5deb3;stroke:#f5deb3;" x="208.371312" xlink:href="#me2973add8c" y="27.513663"/>
     <use style="fill:#f5deb3;stroke:#f5deb3;" x="208.371312" xlink:href="#me2973add8c" y="27.513663"/>
    </g>
   </g>
   <g id="line2d_42">
    <defs>
     <path d="M 0 1.5 
C 0.397805 1.5 0.77937 1.341951 1.06066 1.06066 
C 1.341951 0.77937 1.5 0.397805 1.5 0 
C 1.5 -0.397805 1.341951 -0.77937 1.06066 -1.06066 
C 0.77937 -1.341951 0.397805 -1.5 0 -1.5 
C -0.397805 -1.5 -0.77937 -1.341951 -1.06066 -1.06066 
C -1.341951 -0.77937 -1.5 -0.397805 -1.5 0 
C -1.5 0.397805 -1.341951 0.77937 -1.06066 1.06066 
C -0.77937 1.341951 -0.397805 1.5 0 1.5 
z
" id="m8376ffb07c" style="stroke:#000080;"/>
    </defs>
    <g>
     <use style="fill:#000080;stroke:#000080;" x="261.056505" xlink:href="#m8376ffb07c" y="200.515411"/>
     <use style="fill:#000080;stroke:#000080;" x="261.056505" xlink:href="#m8376ffb07c" y="200.515411"/>
    </g>
   </g>
   <g id="line2d_43">
    <path d="M -1 274.958587 
L 4.627463 274.958587 
L 4.627463 273.385844 
L 11.596853 273.385844 
L 11.596853 270.240357 
L 20.377246 270.240357 
L 20.377246 269.716109 
L 28.455965 269.716109 
L 28.455965 269.191862 
L 43.324087 269.191862 
L 43.324087 268.667614 
L 103.777005 268.667614 
L 103.777005 268.143366 
L 110.746395 268.143366 
L 110.746395 267.619119 
L 115.691256 267.619119 
L 115.785 266.570623 
L 116.181069 266.570623 
L 116.207152 265.522128 
L 116.375733 265.522128 
L 116.375733 264.99788 
L 117.206993 264.99788 
L 117.206993 264.473632 
L 122.489703 264.473632 
L 122.489703 263.949385 
L 123.643618 263.949385 
L 123.643618 263.425137 
L 124.581413 263.425137 
L 124.581413 262.900889 
L 125.310285 262.900889 
L 125.310285 262.376641 
L 126.30171 262.376641 
L 126.30171 261.852394 
L 128.431349 261.852394 
L 128.431349 261.328146 
L 128.811084 261.328146 
L 128.811084 260.803898 
L 129.504243 260.803898 
L 129.504243 260.279651 
L 129.630036 260.279651 
L 129.630036 259.755403 
L 130.077743 259.755403 
L 130.077743 259.231155 
L 130.559378 259.231155 
L 130.559378 258.706907 
L 131.175802 258.706907 
L 131.175802 258.18266 
L 132.279675 258.18266 
L 132.279675 257.134164 
L 132.634093 257.134164 
L 132.634093 256.609917 
L 134.574897 256.609917 
L 134.606202 255.561421 
L 135.051654 255.561421 
L 135.051654 255.037173 
L 135.276571 255.037173 
L 135.276571 254.512926 
L 135.950722 254.512926 
L 135.983745 252.415935 
L 136.237547 252.415935 
L 136.237547 251.891687 
L 137.415311 251.891687 
L 137.415311 251.367439 
L 137.827708 251.367439 
L 137.861016 250.318944 
L 138.410429 250.318944 
L 138.410429 249.270448 
L 139.606823 249.270448 
L 139.606823 248.746201 
L 139.858822 248.746201 
L 139.858822 248.221953 
L 140.048681 248.221953 
L 140.048681 247.697705 
L 140.561812 247.697705 
L 140.561812 246.124962 
L 141.276626 246.124962 
L 141.379371 245.076467 
L 141.544287 245.076467 
L 141.544287 244.552219 
L 142.920112 244.552219 
L 142.928374 242.979476 
L 143.35529 242.979476 
L 143.35529 241.93098 
L 143.769239 241.93098 
L 143.769239 241.406733 
L 144.508207 241.406733 
L 144.508207 240.882485 
L 144.993542 240.882485 
L 144.993542 239.83399 
L 145.37982 239.83399 
L 145.37982 238.785494 
L 146.127269 238.785494 
L 146.127269 238.261246 
L 146.489148 238.261246 
L 146.489148 236.688503 
L 148.192385 236.688503 
L 148.192385 236.164255 
L 148.303508 236.164255 
L 148.303508 235.640008 
L 148.801707 235.640008 
L 148.801707 235.11576 
L 149.138788 235.11576 
L 149.138788 234.591512 
L 151.163317 234.591512 
L 151.163317 234.067265 
L 152.003577 234.067265 
L 152.003577 233.543017 
L 152.476064 233.543017 
L 152.476064 233.018769 
L 154.188837 233.018769 
L 154.188837 232.494521 
L 155.521487 232.494521 
L 155.521487 231.970274 
L 173.718004 231.970274 
L 173.718004 231.446026 
L 174.581108 231.446026 
L 174.581108 230.921778 
L 176.049915 230.921778 
L 176.049915 230.397531 
L 177.633783 230.397531 
L 177.740199 229.349035 
L 178.643917 229.349035 
L 178.643917 228.824787 
L 179.145315 228.824787 
L 179.164387 227.776292 
L 179.682544 227.776292 
L 179.682544 227.252044 
L 181.07476 227.252044 
L 181.07476 226.727797 
L 181.396707 226.727797 
L 181.453589 225.155053 
L 181.961209 225.155053 
L 181.961209 224.630806 
L 182.278838 224.630806 
L 182.278838 224.106558 
L 182.494541 224.106558 
L 182.494541 223.58231 
L 183.06201 223.58231 
L 183.06201 223.058063 
L 184.49965 223.058063 
L 184.49965 222.533815 
L 189.730757 222.533815 
L 189.730757 222.009567 
L 190.271409 222.009567 
L 190.271409 221.485319 
L 190.895743 221.485319 
L 190.895743 220.961072 
L 192.582506 220.961072 
L 192.582506 220.436824 
L 192.989012 220.436824 
L 193.046818 218.864081 
L 193.255949 218.864081 
L 193.255949 218.339833 
L 197.909916 218.339833 
L 197.909916 217.815585 
L 198.679707 217.815585 
L 198.679707 217.291338 
L 201.054447 217.291338 
L 201.054447 216.76709 
L 202.518892 216.76709 
L 202.518892 216.242842 
L 210.003031 216.242842 
L 210.003031 215.718594 
L 212.932535 215.718594 
L 212.932535 215.194347 
L 213.354955 215.194347 
L 213.354955 214.670099 
L 214.270719 214.670099 
L 214.270719 214.145851 
L 214.760036 214.145851 
L 214.760036 213.621604 
L 214.882083 213.621604 
L 214.942053 212.573108 
L 216.787563 212.573108 
L 216.787563 212.04886 
L 216.94868 212.04886 
L 216.94868 211.524613 
L 217.498108 211.524613 
L 217.498108 211.000365 
L 218.905134 211.000365 
L 218.905134 210.476117 
L 219.799082 210.476117 
L 219.799082 209.95187 
L 221.206558 209.95187 
L 221.206558 209.427622 
L 223.820735 209.427622 
L 223.820735 208.903374 
L 227.46302 208.903374 
L 227.491066 207.854879 
L 227.838701 207.854879 
L 227.838701 207.330631 
L 232.809763 207.330631 
L 232.809763 206.806383 
L 233.558016 206.806383 
L 233.558016 206.282136 
L 235.656185 206.282136 
L 235.656185 205.757888 
L 236.697688 205.757888 
L 236.697688 205.23364 
L 242.797751 205.23364 
L 242.797751 204.709392 
L 245.992546 204.709392 
L 245.992546 204.185145 
L 246.855205 204.185145 
L 246.855205 203.660897 
L 248.114924 203.660897 
L 248.114924 203.136649 
L 248.458549 203.136649 
L 248.458549 202.612401 
L 249.329921 202.612401 
L 249.329921 202.088154 
L 250.860363 202.088154 
L 250.860363 201.563906 
L 256.380524 201.563906 
L 256.380524 201.039658 
L 261.056505 201.039658 
L 261.056505 200.515411 
L 333.168 200.515411 
L 333.168 200.515411 
" style="fill:none;stroke:#000080;stroke-linecap:square;stroke-width:1.5;"/>
   </g>
   <g id="line2d_44">
    <defs>
     <path d="M 0 6 
C 1.591219 6 3.117479 5.367802 4.242641 4.242641 
C 5.367802 3.117479 6 1.591219 6 0 
C 6 -1.591219 5.367802 -3.117479 4.242641 -4.242641 
C 3.117479 -5.367802 1.591219 -6 0 -6 
C -1.591219 -6 -3.117479 -5.367802 -4.242641 -4.242641 
C -5.367802 -3.117479 -6 -1.591219 -6 0 
C -6 1.591219 -5.367802 3.117479 -4.242641 4.242641 
C -3.117479 5.367802 -1.591219 6 0 6 
z
" id="mecea306da2" style="stroke:#000080;stroke-width:1.5;"/>
    </defs>
    <g>
     <use style="fill:none;stroke:#000080;stroke-width:1.5;" x="144.993542" xlink:href="#mecea306da2" y="239.83399"/>
     <use style="fill:none;stroke:#000080;stroke-width:1.5;" x="235.656185" xlink:href="#mecea306da2" y="206.282136"/>
     <use style="fill:none;stroke:#000080;stroke-width:1.5;" x="261.056505" xlink:href="#mecea306da2" y="201.039658"/>
     <use style="fill:none;stroke:#000080;stroke-width:1.5;" x="261.056505" xlink:href="#mecea306da2" y="200.515411"/>
     <use style="fill:none;stroke:#000080;stroke-width:1.5;" x="333.168" xlink:href="#mecea306da2" y="200.515411"/>
    </g>
   </g>
   <g id="line2d_45">
    <path style="fill:none;stroke:#000080;stroke-linecap:square;stroke-width:1.5;"/>
    <g/>
   </g>
   <g id="line2d_46">
    <path clip-path="url(#p769ba925bd)" d="M 204.356002 216.242842 
" style="fill:none;stroke:#000080;stroke-linecap:square;stroke-width:1.5;"/>
    <defs>
     <path d="M -12 12 
L 12 -12 
M -12 -12 
L 12 12 
" id="macea76a567" style="stroke:#000080;"/>
    </defs>
    <g clip-path="url(#p769ba925bd)">
     <use style="fill:#000080;stroke:#000080;" x="204.356002" xlink:href="#macea76a567" y="216.242842"/>
    </g>
   </g>
   <g id="line2d_47">
    <defs>
     <path d="M 0 1.5 
C 0.397805 1.5 0.77937 1.341951 1.06066 1.06066 
C 1.341951 0.77937 1.5 0.397805 1.5 0 
C 1.5 -0.397805 1.341951 -0.77937 1.06066 -1.06066 
C 0.77937 -1.341951 0.397805 -1.5 0 -1.5 
C -0.397805 -1.5 -0.77937 -1.341951 -1.06066 -1.06066 
C -1.341951 -0.77937 -1.5 -0.397805 -1.5 0 
C -1.5 0.397805 -1.341951 0.77937 -1.06066 1.06066 
C -0.77937 1.341951 -0.397805 1.5 0 1.5 
z
" id="m1c768b1b23" style="stroke:#ff00ff;"/>
    </defs>
    <g>
     <use style="fill:#ff00ff;stroke:#ff00ff;" x="236.598282" xlink:href="#m1c768b1b23" y="27.513663"/>
     <use style="fill:#ff00ff;stroke:#ff00ff;" x="236.598282" xlink:href="#m1c768b1b23" y="27.513663"/>
    </g>
   </g>
   <g id="line2d_48">
    <path d="M -1 273.910091 
L 11.596853 273.910091 
L 11.596853 273.385844 
L 16.541714 273.385844 
L 16.541714 272.861596 
L 20.377246 272.861596 
L 20.377246 272.337348 
L 28.455965 272.337348 
L 28.455965 271.8131 
L 36.80118 271.8131 
L 36.80118 271.288853 
L 38.074995 271.288853 
L 38.074995 270.764605 
L 44.205749 270.764605 
L 44.205749 270.240357 
L 49.989246 270.240357 
L 49.989246 269.716109 
L 80.267805 269.716109 
L 80.267805 269.191862 
L 80.889148 269.191862 
L 80.889148 268.667614 
L 85.265311 268.667614 
L 85.265311 268.143366 
L 87.481505 268.143366 
L 87.481505 267.619119 
L 88.942422 267.619119 
L 88.942422 267.094871 
L 94.124371 267.094871 
L 94.124371 266.570623 
L 99.602435 266.570623 
L 99.602435 266.046375 
L 104.717651 266.046375 
L 104.717651 265.522128 
L 120.180267 265.522128 
L 120.180267 264.99788 
L 122.114929 264.99788 
L 122.114929 264.473632 
L 123.635161 264.473632 
L 123.635161 263.949385 
L 129.456079 263.949385 
L 129.462107 262.900889 
L 129.689616 262.900889 
L 129.689616 262.376641 
L 130.02533 262.376641 
L 130.02533 261.852394 
L 132.207906 261.852394 
L 132.207906 261.328146 
L 134.295108 261.328146 
L 134.295108 260.803898 
L 135.473113 260.803898 
L 135.473113 260.279651 
L 136.615334 260.279651 
L 136.615334 259.755403 
L 137.186126 259.755403 
L 137.186126 259.231155 
L 138.019268 259.231155 
L 138.019268 258.706907 
L 139.976912 258.706907 
L 139.976912 258.18266 
L 143.818981 258.18266 
L 143.847714 256.609917 
L 144.096453 256.609917 
L 144.096453 256.085669 
L 144.633325 256.085669 
L 144.633325 255.561421 
L 145.839153 255.561421 
L 145.839153 255.037173 
L 146.594019 255.037173 
L 146.594019 254.512926 
L 146.95066 254.512926 
L 146.95066 253.988678 
L 147.571179 253.988678 
L 147.571179 253.46443 
L 147.895934 253.46443 
L 147.895934 252.940182 
L 148.587129 252.940182 
L 148.681952 251.891687 
L 148.723273 251.891687 
L 148.723273 251.367439 
L 148.903138 251.367439 
L 148.903138 250.843192 
L 149.407172 250.843192 
L 149.407172 250.318944 
L 150.106655 250.318944 
L 150.106655 249.794696 
L 150.365812 249.794696 
L 150.365812 249.270448 
L 151.187173 249.270448 
L 151.187173 248.746201 
L 151.848613 248.746201 
L 151.871538 247.697705 
L 152.267849 247.697705 
L 152.267849 247.173458 
L 153.228723 247.173458 
L 153.263467 246.124962 
L 153.449584 246.124962 
L 153.449584 245.600714 
L 153.571563 245.600714 
L 153.571563 245.076467 
L 153.856749 245.076467 
L 153.856749 244.552219 
L 154.304278 244.552219 
L 154.304278 244.027971 
L 154.74599 244.027971 
L 154.74599 243.503724 
L 155.076432 243.503724 
L 155.076432 242.979476 
L 155.443233 242.979476 
L 155.524133 241.93098 
L 155.555859 241.93098 
L 155.555859 241.406733 
L 155.700523 241.406733 
L 155.700523 240.882485 
L 155.939818 240.882485 
L 155.939818 240.358237 
L 157.02944 240.358237 
L 157.02944 239.83399 
L 157.147824 239.83399 
L 157.147824 239.309742 
L 157.395233 239.309742 
L 157.395233 238.785494 
L 157.579361 238.785494 
L 157.675361 237.736999 
L 158.246014 237.736999 
L 158.246014 237.212751 
L 158.673201 237.212751 
L 158.683112 236.164255 
L 158.795048 236.164255 
L 158.795048 235.640008 
L 158.991902 235.640008 
L 158.991902 235.11576 
L 159.813278 235.11576 
L 159.813278 234.591512 
L 160.009066 234.591512 
L 160.072144 233.018769 
L 160.764798 233.018769 
L 160.801823 231.970274 
L 160.905653 231.970274 
L 160.905653 231.446026 
L 161.108582 231.446026 
L 161.108582 230.921778 
L 161.276982 230.921778 
L 161.365749 229.349035 
L 161.898981 229.349035 
L 162.001856 228.30054 
L 162.39134 228.30054 
L 162.409078 227.252044 
L 162.531851 227.252044 
L 162.531851 226.727797 
L 163.097167 226.727797 
L 163.132049 225.679301 
L 163.433656 225.679301 
L 163.482858 224.630806 
L 163.696374 224.630806 
L 163.696374 224.106558 
L 163.807866 224.106558 
L 163.807866 223.58231 
L 163.94379 223.58231 
L 163.994789 222.533815 
L 164.780805 222.533815 
L 164.890106 220.436824 
L 165.04212 220.436824 
L 165.04212 219.912576 
L 165.236472 219.912576 
L 165.236472 219.388328 
L 165.745468 219.388328 
L 165.745468 218.864081 
L 166.076612 218.864081 
L 166.076612 218.339833 
L 166.207162 218.339833 
L 166.277377 216.76709 
L 166.445711 216.76709 
L 166.445711 216.242842 
L 166.864603 216.242842 
L 166.864603 215.718594 
L 167.04018 215.718594 
L 167.04018 215.194347 
L 167.184464 215.194347 
L 167.184464 214.670099 
L 167.407926 214.670099 
L 167.407926 214.145851 
L 167.52878 214.145851 
L 167.60888 212.573108 
L 167.848256 212.573108 
L 167.914019 211.000365 
L 168.152386 211.000365 
L 168.152386 210.476117 
L 168.765184 210.476117 
L 168.765184 209.95187 
L 168.957626 209.95187 
L 168.957626 209.427622 
L 169.259573 209.427622 
L 169.270875 208.379126 
L 169.545776 208.379126 
L 169.545776 207.854879 
L 169.786367 207.854879 
L 169.786367 207.330631 
L 169.962056 207.330631 
L 170.018514 205.23364 
L 170.086133 205.23364 
L 170.086133 204.709392 
L 170.869346 204.709392 
L 170.926147 203.660897 
L 171.053132 203.660897 
L 171.154155 202.612401 
L 171.181846 202.612401 
L 171.181846 202.088154 
L 171.299566 202.088154 
L 171.299566 201.563906 
L 171.462089 201.563906 
L 171.568029 200.515411 
L 171.707415 200.515411 
L 171.714122 199.466915 
L 171.839535 199.466915 
L 171.941654 197.894172 
L 172.059863 197.894172 
L 172.059863 197.369924 
L 172.220895 197.369924 
L 172.220895 196.845677 
L 172.391844 196.845677 
L 172.497645 195.272933 
L 172.643898 195.272933 
L 172.643898 194.748686 
L 172.759818 194.748686 
L 172.840692 193.70019 
L 173.049105 193.70019 
L 173.049105 193.175943 
L 173.206848 193.175943 
L 173.272464 192.127447 
L 173.361282 192.127447 
L 173.361282 191.603199 
L 173.826012 191.603199 
L 173.921552 190.030456 
L 174.155421 190.030456 
L 174.155421 189.506209 
L 174.320226 189.506209 
L 174.320226 188.981961 
L 174.447863 188.981961 
L 174.447863 188.457713 
L 174.656912 188.457713 
L 174.760491 186.88497 
L 174.999065 186.88497 
L 174.999065 186.360722 
L 175.144185 186.360722 
L 175.193131 185.312227 
L 175.484325 185.312227 
L 175.578519 183.739484 
L 175.788179 183.739484 
L 175.876678 182.690988 
L 176.110338 182.690988 
L 176.188054 180.593997 
L 176.307725 180.593997 
L 176.38377 179.021254 
L 176.575339 179.021254 
L 176.65176 177.448511 
L 176.720133 177.448511 
L 176.720133 176.924263 
L 176.898093 176.924263 
L 176.898093 176.400016 
L 177.129655 176.400016 
L 177.218268 174.827272 
L 177.252689 174.827272 
L 177.252689 174.303025 
L 177.506829 174.303025 
L 177.601949 172.730281 
L 177.693268 172.730281 
L 177.693268 172.206034 
L 177.895357 172.206034 
L 177.895357 171.681786 
L 178.021271 171.681786 
L 178.02949 170.633291 
L 178.143076 170.633291 
L 178.143076 170.109043 
L 178.302393 170.109043 
L 178.302393 169.584795 
L 178.459201 169.584795 
L 178.459201 169.060547 
L 178.60354 169.060547 
L 178.60354 168.5363 
L 178.828374 168.5363 
L 178.860741 166.963557 
L 179.055692 166.963557 
L 179.137278 165.915061 
L 179.219812 165.915061 
L 179.259102 164.866566 
L 179.369828 164.866566 
L 179.443031 163.293823 
L 179.551274 163.293823 
L 179.60449 162.245327 
L 179.795098 162.245327 
L 179.897629 160.672584 
L 180.158099 160.672584 
L 180.20475 158.575593 
L 180.337077 158.575593 
L 180.419655 157.00285 
L 180.511428 157.00285 
L 180.603327 154.905859 
L 180.688925 154.905859 
L 180.742093 153.857364 
L 180.896688 153.857364 
L 181.004895 150.711877 
L 181.12317 150.711877 
L 181.180666 148.614886 
L 181.313685 148.614886 
L 181.361722 147.042143 
L 181.4325 147.042143 
L 181.512909 145.993648 
L 181.620215 145.993648 
L 181.699176 143.896657 
L 181.735497 143.896657 
L 181.786104 142.848162 
L 182.043714 142.848162 
L 182.099062 141.799666 
L 182.238056 141.799666 
L 182.238056 141.275418 
L 182.387582 141.275418 
L 182.476071 140.226923 
L 182.517119 140.226923 
L 182.517119 139.702675 
L 182.668885 139.702675 
L 182.668885 139.178427 
L 182.834997 139.178427 
L 182.834997 138.65418 
L 182.98801 138.65418 
L 183.02171 137.081437 
L 183.09929 137.081437 
L 183.09929 136.557189 
L 183.238373 136.557189 
L 183.330736 134.984446 
L 183.361414 134.984446 
L 183.44869 133.93595 
L 183.552374 133.93595 
L 183.581107 132.887455 
L 183.692222 132.887455 
L 183.783719 131.314712 
L 183.836549 131.314712 
L 183.936912 128.693473 
L 183.987254 128.693473 
L 184.01073 127.644978 
L 184.108329 127.644978 
L 184.108329 127.12073 
L 184.292452 127.12073 
L 184.394636 126.072235 
L 184.424952 126.072235 
L 184.533697 123.975244 
L 184.658528 123.975244 
L 184.768948 122.4025 
L 184.864987 122.4025 
L 184.942581 121.354005 
L 185.079429 121.354005 
L 185.118498 120.30551 
L 185.194487 120.30551 
L 185.194487 119.781262 
L 185.306441 119.781262 
L 185.411161 117.684271 
L 185.51178 117.684271 
L 185.567401 116.635776 
L 185.728397 116.635776 
L 185.728397 116.111528 
L 191.755869 116.111528 
L 191.755869 115.58728 
L 192.061299 115.58728 
L 192.162386 114.538785 
L 192.322401 114.538785 
L 192.427225 113.490289 
L 192.496805 113.490289 
L 192.496805 112.966042 
L 192.730778 112.966042 
L 192.730778 112.441794 
L 192.847637 112.441794 
L 192.920948 110.869051 
L 193.024734 110.869051 
L 193.042195 109.820555 
L 193.194852 109.820555 
L 193.244013 108.247812 
L 193.343527 108.247812 
L 193.347044 107.199317 
L 193.484677 107.199317 
L 193.562129 105.626573 
L 193.660975 105.626573 
L 193.743941 104.578078 
L 193.785417 104.578078 
L 193.785417 104.05383 
L 193.987921 104.05383 
L 194.017119 103.005335 
L 194.236697 103.005335 
L 194.236697 102.481087 
L 194.423801 102.481087 
L 194.423801 101.956839 
L 194.673041 101.956839 
L 194.673041 101.432592 
L 194.805071 101.432592 
L 194.896236 98.811353 
L 195.040518 98.811353 
L 195.040518 98.287105 
L 195.168316 98.287105 
L 195.170161 97.23861 
L 195.337118 97.23861 
L 195.337118 96.714362 
L 195.460147 96.714362 
L 195.460147 96.190115 
L 195.617776 96.190115 
L 195.700015 94.617371 
L 195.833294 94.617371 
L 195.838111 93.568876 
L 196.079549 93.568876 
L 196.179011 92.520381 
L 196.308147 92.520381 
L 196.38077 91.471885 
L 196.528388 91.471885 
L 196.531189 90.42339 
L 196.88405 90.42339 
L 196.989531 87.802151 
L 197.06819 87.802151 
L 197.06819 87.277903 
L 197.514455 87.277903 
L 197.514455 86.753656 
L 197.654286 86.753656 
L 197.737914 84.656665 
L 197.829381 84.656665 
L 197.876622 83.608169 
L 198.008186 83.608169 
L 198.067971 82.559674 
L 198.243112 82.559674 
L 198.243112 82.035426 
L 198.656804 82.035426 
L 198.767699 79.938435 
L 198.784261 79.938435 
L 198.842581 78.88994 
L 199.007091 78.88994 
L 199.070859 76.792949 
L 199.184341 76.792949 
L 199.214157 75.744454 
L 199.341698 75.744454 
L 199.341698 75.220206 
L 199.52087 75.220206 
L 199.545307 74.17171 
L 199.741483 74.17171 
L 199.847022 72.598967 
L 199.948125 72.598967 
L 199.975749 71.550472 
L 200.192998 71.550472 
L 200.294733 69.977729 
L 200.34162 69.977729 
L 200.439863 68.404985 
L 200.469227 68.404985 
L 200.526936 66.832242 
L 200.655383 66.832242 
L 200.763185 65.259499 
L 200.939325 65.259499 
L 200.939325 64.735251 
L 201.100896 64.735251 
L 201.100896 64.211004 
L 204.432753 64.211004 
L 204.432753 63.686756 
L 204.638269 63.686756 
L 204.638269 63.162508 
L 204.784427 63.162508 
L 204.784427 62.638261 
L 205.02262 62.638261 
L 205.02262 62.114013 
L 205.17808 62.114013 
L 205.17808 61.589765 
L 205.706095 61.589765 
L 205.706095 61.065517 
L 205.833282 61.065517 
L 205.905207 60.017022 
L 205.947922 60.017022 
L 206.007027 58.968526 
L 206.223222 58.968526 
L 206.332202 57.395783 
L 206.480128 57.395783 
L 206.480128 56.871536 
L 206.644039 56.871536 
L 206.731299 55.82304 
L 207.746213 55.82304 
L 207.845286 53.726049 
L 208.00386 53.726049 
L 208.00386 53.201802 
L 208.286236 53.201802 
L 208.371801 51.104811 
L 208.57245 51.104811 
L 208.57245 50.580563 
L 208.738975 50.580563 
L 208.738975 50.056315 
L 211.249021 50.056315 
L 211.249021 49.532068 
L 212.073071 49.532068 
L 212.073071 49.00782 
L 212.203554 49.00782 
L 212.297474 47.959324 
L 212.496587 47.959324 
L 212.496587 47.435077 
L 212.659913 47.435077 
L 212.739196 46.386581 
L 213.939025 46.386581 
L 213.985972 45.338086 
L 215.847941 45.338086 
L 215.847941 44.813838 
L 216.097899 44.813838 
L 216.166838 43.765343 
L 216.235115 43.765343 
L 216.235115 43.241095 
L 216.437798 43.241095 
L 216.542945 42.192599 
L 216.622615 42.192599 
L 216.655271 40.619856 
L 216.751141 40.619856 
L 216.823909 39.047113 
L 217.067907 39.047113 
L 217.10293 37.998618 
L 217.202525 37.998618 
L 217.202525 37.47437 
L 217.36373 37.47437 
L 217.36373 36.950122 
L 219.478798 36.950122 
L 219.478798 36.425875 
L 220.254903 36.425875 
L 220.297696 35.377379 
L 220.392868 35.377379 
L 220.467353 33.804636 
L 220.509167 33.804636 
L 220.509167 33.280388 
L 220.79947 33.280388 
L 220.79947 32.756141 
L 223.122056 32.756141 
L 223.122056 32.231893 
L 223.30319 32.231893 
L 223.30319 31.707645 
L 225.556547 31.707645 
L 225.605544 30.134902 
L 226.030979 30.134902 
L 226.030979 29.610654 
L 228.175408 29.610654 
L 228.175408 29.086407 
L 230.040151 29.086407 
L 230.040151 28.562159 
L 235.248435 28.562159 
L 235.248435 28.037911 
L 236.598282 28.037911 
L 236.598282 27.513663 
L 333.168 27.513663 
L 333.168 27.513663 
" style="fill:none;stroke:#ff00ff;stroke-linecap:square;stroke-width:1.5;"/>
   </g>
   <g id="line2d_49">
    <defs>
     <path d="M -0 8.485281 
L 5.091169 0 
L 0 -8.485281 
L -5.091169 -0 
z
" id="m89f2bccecb" style="stroke:#ff00ff;stroke-linejoin:miter;stroke-width:1.5;"/>
    </defs>
    <g>
     <use style="fill:none;stroke:#ff00ff;stroke-linejoin:miter;stroke-width:1.5;" x="145.839153" xlink:href="#m89f2bccecb" y="255.561421"/>
     <use style="fill:none;stroke:#ff00ff;stroke-linejoin:miter;stroke-width:1.5;" x="185.306441" xlink:href="#m89f2bccecb" y="119.257014"/>
     <use style="fill:none;stroke:#ff00ff;stroke-linejoin:miter;stroke-width:1.5;" x="236.598282" xlink:href="#m89f2bccecb" y="28.037911"/>
     <use style="fill:none;stroke:#ff00ff;stroke-linejoin:miter;stroke-width:1.5;" x="236.598282" xlink:href="#m89f2bccecb" y="27.513663"/>
     <use style="fill:none;stroke:#ff00ff;stroke-linejoin:miter;stroke-width:1.5;" x="333.168" xlink:href="#m89f2bccecb" y="27.513663"/>
    </g>
   </g>
   <g id="line2d_50">
    <path style="fill:none;stroke:#ff00ff;stroke-linecap:square;stroke-width:1.5;"/>
    <g/>
   </g>
   <g id="line2d_51">
    <path clip-path="url(#p769ba925bd)" d="M 191.567241 116.111528 
" style="fill:none;stroke:#ff00ff;stroke-linecap:square;stroke-width:1.5;"/>
    <defs>
     <path d="M -12 12 
L 12 -12 
M -12 -12 
L 12 12 
" id="m42b1d8cd1c" style="stroke:#ff00ff;"/>
    </defs>
    <g clip-path="url(#p769ba925bd)">
     <use style="fill:#ff00ff;stroke:#ff00ff;" x="191.567241" xlink:href="#m42b1d8cd1c" y="116.111528"/>
    </g>
   </g>
   <g id="line2d_52">
    <defs>
     <path d="M 0 1.5 
C 0.397805 1.5 0.77937 1.341951 1.06066 1.06066 
C 1.341951 0.77937 1.5 0.397805 1.5 0 
C 1.5 -0.397805 1.341951 -0.77937 1.06066 -1.06066 
C 0.77937 -1.341951 0.397805 -1.5 0 -1.5 
C -0.397805 -1.5 -0.77937 -1.341951 -1.06066 -1.06066 
C -1.341951 -0.77937 -1.5 -0.397805 -1.5 0 
C -1.5 0.397805 -1.341951 0.77937 -1.06066 1.06066 
C -0.77937 1.341951 -0.397805 1.5 0 1.5 
z
" id="m5c3e4f64e5" style="stroke:#6495ed;"/>
    </defs>
    <g>
     <use style="fill:#6495ed;stroke:#6495ed;" x="314.262427" xlink:href="#m5c3e4f64e5" y="169.060547"/>
     <use style="fill:#6495ed;stroke:#6495ed;" x="314.262427" xlink:href="#m5c3e4f64e5" y="169.060547"/>
    </g>
   </g>
   <g id="line2d_53">
    <path d="M -1 280.725312 
L 33.929749 280.725312 
L 33.929749 280.201064 
L 45.044385 280.201064 
L 45.044385 279.152568 
L 52.813391 279.152568 
L 52.813391 278.628321 
L 54.308997 278.628321 
L 54.308997 278.104073 
L 58.144529 278.104073 
L 58.144529 277.579825 
L 58.891979 277.579825 
L 58.891979 277.055578 
L 60.295912 277.055578 
L 60.295912 276.53133 
L 61.593784 276.53133 
L 61.593784 276.007082 
L 62.800499 276.007082 
L 62.800499 275.482834 
L 64.986122 275.482834 
L 64.986122 274.958587 
L 69.672503 274.958587 
L 69.672503 274.434339 
L 73.817748 274.434339 
L 73.817748 273.910091 
L 77.530064 273.910091 
L 77.530064 273.385844 
L 79.291532 273.385844 
L 79.291532 272.861596 
L 80.787138 272.861596 
L 80.889148 271.8131 
L 81.29124 271.8131 
L 81.29124 271.288853 
L 81.973032 271.288853 
L 81.973032 270.764605 
L 83.08236 270.764605 
L 83.08236 270.240357 
L 87.060538 270.240357 
L 87.060538 269.716109 
L 88.22748 269.716109 
L 88.22748 269.191862 
L 88.750368 269.191862 
L 88.750368 268.667614 
L 89.444315 268.667614 
L 89.444315 268.143366 
L 90.580673 268.143366 
L 90.580673 267.619119 
L 93.598391 267.619119 
L 93.598391 267.094871 
L 94.029928 267.094871 
L 94.029928 266.570623 
L 94.404627 266.570623 
L 94.404627 266.046375 
L 96.861245 266.046375 
L 96.861245 265.522128 
L 97.297428 265.522128 
L 97.297428 264.99788 
L 98.470264 264.99788 
L 98.470264 264.473632 
L 99.04567 264.473632 
L 99.04567 263.949385 
L 99.256576 263.949385 
L 99.256576 263.425137 
L 100.43781 263.425137 
L 100.535381 262.376641 
L 103.258989 262.376641 
L 103.258989 261.852394 
L 104.017036 261.852394 
L 104.096307 260.279651 
L 104.894724 260.279651 
L 104.894724 259.755403 
L 105.317315 259.755403 
L 105.317315 259.231155 
L 105.729765 259.231155 
L 105.729765 258.706907 
L 107.910736 258.706907 
L 107.910736 258.18266 
L 109.231245 258.18266 
L 109.231245 257.658412 
L 109.464315 257.658412 
L 109.464315 257.134164 
L 110.977596 257.134164 
L 110.977596 256.609917 
L 112.105684 256.609917 
L 112.188203 255.037173 
L 112.514373 255.037173 
L 112.514373 254.512926 
L 113.226383 254.512926 
L 113.226383 253.988678 
L 113.745439 253.988678 
L 113.745439 253.46443 
L 113.954695 253.46443 
L 113.954695 252.940182 
L 114.75296 252.940182 
L 114.75296 252.415935 
L 116.542676 252.415935 
L 116.542676 251.891687 
L 116.745944 251.891687 
L 116.745944 251.367439 
L 117.219284 251.367439 
L 117.219284 250.843192 
L 117.499573 250.843192 
L 117.559905 249.794696 
L 118.325541 249.794696 
L 118.383048 248.746201 
L 118.914406 248.746201 
L 119.014308 247.697705 
L 119.612517 247.697705 
L 119.612517 247.173458 
L 120.659601 247.173458 
L 120.659601 246.64921 
L 121.16504 246.64921 
L 121.16504 246.124962 
L 122.133402 246.124962 
L 122.133402 245.600714 
L 122.516807 245.600714 
L 122.543869 244.552219 
L 122.785525 244.552219 
L 122.874172 243.503724 
L 122.962364 243.503724 
L 122.962364 242.979476 
L 123.172198 242.979476 
L 123.172198 242.455228 
L 123.609766 242.455228 
L 123.609766 241.93098 
L 124.028205 241.93098 
L 124.028205 241.406733 
L 125.727229 241.406733 
L 125.787042 240.358237 
L 125.913457 240.358237 
L 125.913457 239.83399 
L 126.141612 239.83399 
L 126.141612 239.309742 
L 126.560515 239.309742 
L 126.560515 238.785494 
L 126.780294 238.785494 
L 126.780294 238.261246 
L 126.913622 238.261246 
L 126.913622 237.736999 
L 127.15655 237.736999 
L 127.15655 237.212751 
L 127.957732 237.212751 
L 128.056122 236.164255 
L 128.39291 236.164255 
L 128.39291 235.640008 
L 128.67282 235.640008 
L 128.735805 234.067265 
L 129.127391 234.067265 
L 129.213212 233.018769 
L 129.462107 233.018769 
L 129.462107 231.970274 
L 129.925889 231.970274 
L 129.925889 231.446026 
L 130.778487 231.446026 
L 130.795227 230.397531 
L 131.153969 230.397531 
L 131.181257 229.349035 
L 131.333273 229.349035 
L 131.40878 228.30054 
L 131.707535 228.30054 
L 131.781419 227.252044 
L 132.068643 227.252044 
L 132.068643 226.727797 
L 132.808598 226.727797 
L 132.808598 226.203549 
L 133.263855 226.203549 
L 133.350594 225.155053 
L 133.693236 225.155053 
L 133.693236 224.630806 
L 133.996806 224.630806 
L 134.024559 223.58231 
L 134.295108 223.58231 
L 134.367749 222.533815 
L 134.574897 222.533815 
L 134.574897 222.009567 
L 135.375123 222.009567 
L 135.375123 221.485319 
L 136.419439 221.485319 
L 136.419439 220.961072 
L 136.68278 220.961072 
L 136.68278 220.436824 
L 136.840439 220.436824 
L 136.891368 218.864081 
L 137.220699 218.864081 
L 137.220699 218.339833 
L 137.719942 218.339833 
L 137.719942 217.815585 
L 138.683975 217.815585 
L 138.683975 217.291338 
L 138.970576 217.291338 
L 139.008661 216.242842 
L 139.570042 216.242842 
L 139.570042 215.718594 
L 139.739914 215.718594 
L 139.739914 215.194347 
L 139.868694 215.194347 
L 139.868694 214.670099 
L 140.326392 214.670099 
L 140.399909 213.621604 
L 142.577914 213.621604 
L 142.577914 213.097356 
L 143.441019 213.097356 
L 143.441019 212.573108 
L 145.312845 212.573108 
L 145.312845 212.04886 
L 153.752925 212.04886 
L 153.752925 211.524613 
L 171.053668 211.524613 
L 171.053668 211.000365 
L 171.315413 211.000365 
L 171.315413 210.476117 
L 172.139058 210.476117 
L 172.139058 209.95187 
L 172.349639 209.95187 
L 172.349639 209.427622 
L 172.499123 209.427622 
L 172.522271 208.379126 
L 172.642921 208.379126 
L 172.748649 206.806383 
L 172.85518 206.806383 
L 172.892792 205.757888 
L 173.144779 205.757888 
L 173.144779 205.23364 
L 173.566757 205.23364 
L 173.566757 204.709392 
L 174.16437 204.709392 
L 174.188062 203.660897 
L 174.41483 203.660897 
L 174.446102 202.612401 
L 174.694689 202.612401 
L 174.694689 202.088154 
L 174.935027 202.088154 
L 174.935027 201.563906 
L 175.078566 201.563906 
L 175.078566 201.039658 
L 182.221268 201.039658 
L 182.221268 200.515411 
L 182.344556 200.515411 
L 182.37427 199.466915 
L 182.580015 199.466915 
L 182.580015 198.942667 
L 182.756212 198.942667 
L 182.756212 198.41842 
L 184.254442 198.41842 
L 184.254442 197.894172 
L 184.864747 197.894172 
L 184.864747 197.369924 
L 189.361685 197.369924 
L 189.361685 196.845677 
L 189.591299 196.845677 
L 189.591299 196.321429 
L 197.11839 196.321429 
L 197.11839 195.797181 
L 199.331045 195.797181 
L 199.331045 195.272933 
L 199.476508 195.272933 
L 199.476508 194.748686 
L 200.209324 194.748686 
L 200.209324 194.224438 
L 201.668774 194.224438 
L 201.668774 193.70019 
L 207.559612 193.70019 
L 207.559612 193.175943 
L 208.27923 193.175943 
L 208.27923 192.651695 
L 209.29051 192.651695 
L 209.29051 192.127447 
L 211.096818 192.127447 
L 211.170335 191.078952 
L 212.864784 191.078952 
L 212.864784 190.554704 
L 214.600771 190.554704 
L 214.600771 190.030456 
L 215.23384 190.030456 
L 215.23384 189.506209 
L 215.66612 189.506209 
L 215.705113 188.457713 
L 216.571086 188.457713 
L 216.571086 187.933465 
L 217.883878 187.933465 
L 217.883878 187.409218 
L 218.168552 187.409218 
L 218.168552 186.88497 
L 218.511647 186.88497 
L 218.511647 186.360722 
L 221.5804 186.360722 
L 221.5804 185.836474 
L 221.773415 185.836474 
L 221.773415 185.312227 
L 223.833026 185.312227 
L 223.833026 184.787979 
L 226.938292 184.787979 
L 226.958314 183.739484 
L 227.408224 183.739484 
L 227.408224 183.215236 
L 228.525872 183.215236 
L 228.525872 182.690988 
L 229.376008 182.690988 
L 229.389334 181.642493 
L 230.445207 181.642493 
L 230.445207 181.118245 
L 231.211062 181.118245 
L 231.211062 180.593997 
L 232.772265 180.593997 
L 232.772265 180.06975 
L 233.467056 180.06975 
L 233.467056 179.545502 
L 239.716675 179.545502 
L 239.716675 179.021254 
L 245.406379 179.021254 
L 245.406379 178.497006 
L 246.648142 178.497006 
L 246.648142 177.448511 
L 247.383373 177.448511 
L 247.383373 176.924263 
L 248.051677 176.924263 
L 248.051677 176.400016 
L 249.973778 176.400016 
L 249.973778 175.875768 
L 250.23244 175.875768 
L 250.23244 175.35152 
L 252.862405 175.35152 
L 252.862405 174.827272 
L 257.433844 174.827272 
L 257.433844 174.303025 
L 258.394032 174.303025 
L 258.397048 172.730281 
L 264.025192 172.730281 
L 264.025197 171.157538 
L 268.258025 171.157538 
L 268.258025 170.633291 
L 284.198936 170.633291 
L 284.198936 170.109043 
L 292.325119 170.109043 
L 292.325119 169.584795 
L 314.262427 169.584795 
L 314.262427 169.060547 
L 333.168 169.060547 
L 333.168 169.060547 
" style="fill:none;stroke:#6495ed;stroke-linecap:square;stroke-width:1.5;"/>
   </g>
   <g id="line2d_54">
    <defs>
     <path d="M -0 6 
L 6 -6 
L -6 -6 
z
" id="m5ac2b8487a" style="stroke:#6495ed;stroke-linejoin:miter;stroke-width:1.5;"/>
    </defs>
    <g>
     <use style="fill:none;stroke:#6495ed;stroke-linejoin:miter;stroke-width:1.5;" x="143.441019" xlink:href="#m5ac2b8487a" y="213.097356"/>
     <use style="fill:none;stroke:#6495ed;stroke-linejoin:miter;stroke-width:1.5;" x="212.864784" xlink:href="#m5ac2b8487a" y="191.078952"/>
     <use style="fill:none;stroke:#6495ed;stroke-linejoin:miter;stroke-width:1.5;" x="292.325119" xlink:href="#m5ac2b8487a" y="170.109043"/>
     <use style="fill:none;stroke:#6495ed;stroke-linejoin:miter;stroke-width:1.5;" x="314.262427" xlink:href="#m5ac2b8487a" y="169.060547"/>
     <use style="fill:none;stroke:#6495ed;stroke-linejoin:miter;stroke-width:1.5;" x="333.168" xlink:href="#m5ac2b8487a" y="169.060547"/>
    </g>
   </g>
   <g id="line2d_55">
    <path style="fill:none;stroke:#6495ed;stroke-linecap:square;stroke-width:1.5;"/>
    <g/>
   </g>
   <g id="line2d_56">
    <path clip-path="url(#p769ba925bd)" d="M 242.097272 179.021254 
" style="fill:none;stroke:#6495ed;stroke-linecap:square;stroke-width:1.5;"/>
    <defs>
     <path d="M -12 12 
L 12 -12 
M -12 -12 
L 12 12 
" id="m9ce842defb" style="stroke:#6495ed;"/>
    </defs>
    <g clip-path="url(#p769ba925bd)">
     <use style="fill:#6495ed;stroke:#6495ed;" x="242.097272" xlink:href="#m9ce842defb" y="179.021254"/>
    </g>
   </g>
   <g id="line2d_57">
    <defs>
     <path d="M 0 1.5 
C 0.397805 1.5 0.77937 1.341951 1.06066 1.06066 
C 1.341951 0.77937 1.5 0.397805 1.5 0 
C 1.5 -0.397805 1.341951 -0.77937 1.06066 -1.06066 
C 0.77937 -1.341951 0.397805 -1.5 0 -1.5 
C -0.397805 -1.5 -0.77937 -1.341951 -1.06066 -1.06066 
C -1.341951 -0.77937 -1.5 -0.397805 -1.5 0 
C -1.5 0.397805 -1.341951 0.77937 -1.06066 1.06066 
C -0.77937 1.341951 -0.397805 1.5 0 1.5 
z
" id="m4fae582b74" style="stroke:#ff0000;"/>
    </defs>
    <g>
     <use style="fill:#ff0000;stroke:#ff0000;" x="263.585493" xlink:href="#m4fae582b74" y="195.272933"/>
     <use style="fill:#ff0000;stroke:#ff0000;" x="263.585493" xlink:href="#m4fae582b74" y="195.272933"/>
    </g>
   </g>
   <g id="line2d_58">
    <path d="M -1 274.434339 
L 4.627463 274.434339 
L 4.627463 271.288853 
L 11.596853 271.288853 
L 11.596853 270.240357 
L 16.541714 270.240357 
L 16.541714 269.716109 
L 39.260888 269.716109 
L 39.260888 269.191862 
L 40.370217 269.191862 
L 40.370217 268.667614 
L 41.412271 268.667614 
L 41.412271 268.143366 
L 61.593784 268.143366 
L 61.593784 267.619119 
L 63.08939 267.619119 
L 63.08939 267.094871 
L 67.377281 267.094871 
L 67.377281 266.570623 
L 67.818039 266.570623 
L 67.818039 266.046375 
L 68.667033 266.046375 
L 68.667033 265.522128 
L 69.076305 265.522128 
L 69.076305 264.99788 
L 69.476059 264.99788 
L 69.476059 264.473632 
L 75.978157 264.473632 
L 75.978157 263.949385 
L 78.839174 263.949385 
L 78.839174 263.425137 
L 83.524252 263.425137 
L 83.524252 262.900889 
L 89.382374 262.900889 
L 89.382374 262.376641 
L 90.522701 262.376641 
L 90.522701 261.852394 
L 92.598771 261.852394 
L 92.598771 261.328146 
L 96.495948 261.328146 
L 96.495948 260.803898 
L 97.988135 260.803898 
L 97.988135 260.279651 
L 99.806659 260.279651 
L 99.806659 259.755403 
L 100.008485 259.755403 
L 100.008485 259.231155 
L 101.664967 259.231155 
L 101.664967 258.706907 
L 102.552701 258.706907 
L 102.552701 258.18266 
L 103.314258 258.18266 
L 103.314258 257.658412 
L 106.434316 257.658412 
L 106.434316 257.134164 
L 107.26528 257.134164 
L 107.26528 256.609917 
L 107.762283 256.609917 
L 107.762283 256.085669 
L 109.113514 256.085669 
L 109.113514 255.561421 
L 109.348175 255.561421 
L 109.348175 255.037173 
L 110.530183 255.037173 
L 110.530183 254.512926 
L 110.692596 254.512926 
L 110.692596 253.988678 
L 111.855724 253.988678 
L 111.855724 253.46443 
L 113.288268 253.46443 
L 113.38068 252.415935 
L 115.623981 252.415935 
L 115.677822 251.367439 
L 116.909347 251.367439 
L 116.909347 250.843192 
L 117.390438 250.843192 
L 117.390438 250.318944 
L 118.645127 250.318944 
L 118.645127 249.794696 
L 118.858653 249.794696 
L 118.925535 248.746201 
L 119.429829 248.746201 
L 119.429829 248.221953 
L 120.138848 248.221953 
L 120.138848 247.697705 
L 121.076918 247.697705 
L 121.076918 247.173458 
L 121.291534 247.173458 
L 121.291534 246.64921 
L 121.684489 246.64921 
L 121.684489 246.124962 
L 121.966431 246.124962 
L 122.04084 245.076467 
L 122.507777 245.076467 
L 122.507777 244.552219 
L 123.711124 244.552219 
L 123.711124 244.027971 
L 124.501167 244.027971 
L 124.501167 243.503724 
L 125.225669 243.503724 
L 125.225669 242.979476 
L 125.463074 242.979476 
L 125.463074 242.455228 
L 125.950462 242.455228 
L 125.950462 241.93098 
L 126.617502 241.93098 
L 126.617502 241.406733 
L 126.766199 241.406733 
L 126.87163 240.358237 
L 127.639046 240.358237 
L 127.639046 239.83399 
L 127.832291 239.83399 
L 127.832291 239.309742 
L 127.944571 239.309742 
L 127.944571 238.785494 
L 128.603269 238.785494 
L 128.603269 238.261246 
L 129.164224 238.261246 
L 129.164224 237.736999 
L 129.413824 237.736999 
L 129.413824 237.212751 
L 129.600169 237.212751 
L 129.600169 236.688503 
L 130.251309 236.688503 
L 130.251309 236.164255 
L 130.756143 236.164255 
L 130.756143 235.640008 
L 132.213043 235.640008 
L 132.213043 235.11576 
L 132.709098 235.11576 
L 132.709098 234.591512 
L 133.059747 234.591512 
L 133.059747 234.067265 
L 133.403386 234.067265 
L 133.403386 233.543017 
L 134.135127 233.543017 
L 134.135127 233.018769 
L 134.859013 233.018769 
L 134.859013 231.970274 
L 135.073409 231.970274 
L 135.10382 230.921778 
L 135.255072 230.921778 
L 135.255072 230.397531 
L 135.417796 230.397531 
L 135.451858 229.349035 
L 137.155336 229.349035 
L 137.2015 228.30054 
L 137.407721 228.30054 
L 137.415311 227.252044 
L 138.503283 227.252044 
L 138.602722 226.203549 
L 139.070801 226.203549 
L 139.070801 225.679301 
L 140.313574 225.679301 
L 140.313574 225.155053 
L 140.428591 225.155053 
L 140.428591 224.630806 
L 141.026272 224.630806 
L 141.026272 224.106558 
L 142.159803 224.106558 
L 142.159803 223.58231 
L 142.274585 223.58231 
L 142.274585 223.058063 
L 143.35529 223.058063 
L 143.35529 222.533815 
L 144.303563 222.533815 
L 144.303563 222.009567 
L 180.870363 222.009567 
L 180.870363 221.485319 
L 181.071768 221.485319 
L 181.071768 220.961072 
L 181.443633 220.961072 
L 181.5097 219.912576 
L 181.899426 219.912576 
L 181.899426 219.388328 
L 182.257062 219.388328 
L 182.257062 218.864081 
L 182.521521 218.864081 
L 182.521521 218.339833 
L 182.810669 218.339833 
L 182.845528 217.291338 
L 183.260522 217.291338 
L 183.360628 216.242842 
L 184.319727 216.242842 
L 184.319727 215.718594 
L 184.64346 215.718594 
L 184.64346 215.194347 
L 184.849138 215.194347 
L 184.920584 214.145851 
L 193.110672 214.145851 
L 193.131162 212.573108 
L 193.243275 212.573108 
L 193.243275 212.04886 
L 193.357299 212.04886 
L 193.399425 211.000365 
L 193.7927 211.000365 
L 193.7927 210.476117 
L 194.366586 210.476117 
L 194.366586 209.95187 
L 195.253515 209.95187 
L 195.253515 209.427622 
L 200.675869 209.427622 
L 200.675869 208.903374 
L 208.281381 208.903374 
L 208.281381 208.379126 
L 212.634931 208.379126 
L 212.634931 207.854879 
L 214.545191 207.854879 
L 214.646372 205.23364 
L 214.692741 205.23364 
L 214.692741 204.709392 
L 216.835497 204.709392 
L 216.835497 204.185145 
L 217.31198 204.185145 
L 217.31198 203.660897 
L 226.450987 203.660897 
L 226.47779 202.088154 
L 234.352299 202.088154 
L 234.352299 201.563906 
L 234.935675 201.563906 
L 235.014728 199.991163 
L 238.905927 199.991163 
L 238.905927 199.466915 
L 240.746716 199.466915 
L 240.746716 198.942667 
L 242.700021 198.942667 
L 242.700021 198.41842 
L 243.651194 198.41842 
L 243.651194 197.894172 
L 244.964897 197.894172 
L 244.964897 197.369924 
L 246.074855 197.369924 
L 246.074855 196.845677 
L 256.577584 196.845677 
L 256.577584 196.321429 
L 258.652734 196.321429 
L 258.652734 195.797181 
L 263.585493 195.797181 
L 263.585493 195.272933 
L 333.168 195.272933 
L 333.168 195.272933 
" style="fill:none;stroke:#ff0000;stroke-linecap:square;stroke-width:1.5;"/>
   </g>
   <g id="line2d_59">
    <defs>
     <path d="M 0 -6 
L -5.196152 -3 
L -5.196152 3 
L -0 6 
L 5.196152 3 
L 5.196152 -3 
z
" id="me86eeb96c1" style="stroke:#ff0000;stroke-linejoin:miter;stroke-width:1.5;"/>
    </defs>
    <g>
     <use style="fill:none;stroke:#ff0000;stroke-linejoin:miter;stroke-width:1.5;" x="89.382374" xlink:href="#me86eeb96c1" y="262.376641"/>
     <use style="fill:none;stroke:#ff0000;stroke-linejoin:miter;stroke-width:1.5;" x="144.303563" xlink:href="#me86eeb96c1" y="222.533815"/>
     <use style="fill:none;stroke:#ff0000;stroke-linejoin:miter;stroke-width:1.5;" x="226.47779" xlink:href="#me86eeb96c1" y="202.088154"/>
     <use style="fill:none;stroke:#ff0000;stroke-linejoin:miter;stroke-width:1.5;" x="263.585493" xlink:href="#me86eeb96c1" y="195.272933"/>
     <use style="fill:none;stroke:#ff0000;stroke-linejoin:miter;stroke-width:1.5;" x="263.585493" xlink:href="#me86eeb96c1" y="195.272933"/>
     <use style="fill:none;stroke:#ff0000;stroke-linejoin:miter;stroke-width:1.5;" x="333.168" xlink:href="#me86eeb96c1" y="195.272933"/>
    </g>
   </g>
   <g id="line2d_60">
    <path style="fill:none;stroke:#ff0000;stroke-linecap:square;stroke-width:1.5;"/>
    <g/>
   </g>
   <g id="line2d_61">
    <path clip-path="url(#p769ba925bd)" d="M 214.433358 207.854879 
" style="fill:none;stroke:#ff0000;stroke-linecap:square;stroke-width:1.5;"/>
    <defs>
     <path d="M -12 12 
L 12 -12 
M -12 -12 
L 12 12 
" id="m6e3d67bfed" style="stroke:#ff0000;"/>
    </defs>
    <g clip-path="url(#p769ba925bd)">
     <use style="fill:#ff0000;stroke:#ff0000;" x="214.433358" xlink:href="#m6e3d67bfed" y="207.854879"/>
    </g>
   </g>
   <g id="line2d_62">
    <path d="M 333.168 200.515411 
L 363.64328 289.532673 
" style="fill:none;stroke:#000080;stroke-linecap:square;stroke-width:1.5;"/>
    <g>
     <use style="fill:none;stroke:#000080;stroke-width:1.5;" x="333.168" xlink:href="#mecea306da2" y="200.515411"/>
     <use style="fill:none;stroke:#000080;stroke-width:1.5;" x="363.64328" xlink:href="#mecea306da2" y="289.532673"/>
    </g>
   </g>
   <g id="line2d_63">
    <path d="M 333.168 195.272933 
L 363.64328 225.364752 
" style="fill:none;stroke:#ff0000;stroke-linecap:square;stroke-width:1.5;"/>
    <g>
     <use style="fill:none;stroke:#ff0000;stroke-linejoin:miter;stroke-width:1.5;" x="333.168" xlink:href="#me86eeb96c1" y="195.272933"/>
     <use style="fill:none;stroke:#ff0000;stroke-linejoin:miter;stroke-width:1.5;" x="363.64328" xlink:href="#me86eeb96c1" y="225.364752"/>
    </g>
   </g>
   <g id="line2d_64">
    <path d="M 333.168 169.060547 
L 363.64328 161.196832 
" style="fill:none;stroke:#6495ed;stroke-linecap:square;stroke-width:1.5;"/>
    <g>
     <use style="fill:none;stroke:#6495ed;stroke-linejoin:miter;stroke-width:1.5;" x="333.168" xlink:href="#m5ac2b8487a" y="169.060547"/>
     <use style="fill:none;stroke:#6495ed;stroke-linejoin:miter;stroke-width:1.5;" x="363.64328" xlink:href="#m5ac2b8487a" y="161.196832"/>
    </g>
   </g>
   <g id="line2d_65">
    <path d="M 333.168 27.513663 
L 363.64328 97.028911 
" style="fill:none;stroke:#ff00ff;stroke-linecap:square;stroke-width:1.5;"/>
    <g>
     <use style="fill:none;stroke:#ff00ff;stroke-linejoin:miter;stroke-width:1.5;" x="333.168" xlink:href="#m89f2bccecb" y="27.513663"/>
     <use style="fill:none;stroke:#ff00ff;stroke-linejoin:miter;stroke-width:1.5;" x="363.64328" xlink:href="#m89f2bccecb" y="97.028911"/>
    </g>
   </g>
   <g id="line2d_66">
    <path d="M 333.168 294.88 
L 333.168 27.513663 
" style="fill:none;stroke:#000000;stroke-linecap:square;stroke-width:1.5;"/>
   </g>
   <g id="patch_3">
    <path d="M 56.12 294.88 
L 56.12 24.84 
" style="fill:none;stroke:#000000;stroke-linecap:square;stroke-linejoin:miter;stroke-width:0.8;"/>
   </g>
   <g id="patch_4">
    <path d="M 333.168 294.88 
L 333.168 24.84 
" style="fill:none;stroke:#000000;stroke-linecap:square;stroke-linejoin:miter;stroke-width:0.8;"/>
   </g>
   <g id="patch_5">
    <path d="M 56.12 294.88 
L 333.168 294.88 
" style="fill:none;stroke:#000000;stroke-linecap:square;stroke-linejoin:miter;stroke-width:0.8;"/>
   </g>
   <g id="patch_6">
    <path d="M 56.12 24.84 
L 333.168 24.84 
" style="fill:none;stroke:#000000;stroke-linecap:square;stroke-linejoin:miter;stroke-width:0.8;"/>
   </g>
   <g id="text_13">
    <!-- CMA ES PPM -->
    <defs>
     <path d="M 64.40625 67.28125 
L 64.40625 56.890625 
Q 59.421875 61.53125 53.78125 63.8125 
Q 48.140625 66.109375 41.796875 66.109375 
Q 29.296875 66.109375 22.65625 58.46875 
Q 16.015625 50.828125 16.015625 36.375 
Q 16.015625 21.96875 22.65625 14.328125 
Q 29.296875 6.6875 41.796875 6.6875 
Q 48.140625 6.6875 53.78125 8.984375 
Q 59.421875 11.28125 64.40625 15.921875 
L 64.40625 5.609375 
Q 59.234375 2.09375 53.4375 0.328125 
Q 47.65625 -1.421875 41.21875 -1.421875 
Q 24.65625 -1.421875 15.125 8.703125 
Q 5.609375 18.84375 5.609375 36.375 
Q 5.609375 53.953125 15.125 64.078125 
Q 24.65625 74.21875 41.21875 74.21875 
Q 47.75 74.21875 53.53125 72.484375 
Q 59.328125 70.75 64.40625 67.28125 
z
" id="DejaVuSans-43"/>
     <path d="M 9.8125 72.90625 
L 24.515625 72.90625 
L 43.109375 23.296875 
L 61.8125 72.90625 
L 76.515625 72.90625 
L 76.515625 0 
L 66.890625 0 
L 66.890625 64.015625 
L 48.09375 14.015625 
L 38.1875 14.015625 
L 19.390625 64.015625 
L 19.390625 0 
L 9.8125 0 
z
" id="DejaVuSans-4d"/>
     <path d="M 34.1875 63.1875 
L 20.796875 26.90625 
L 47.609375 26.90625 
z
M 28.609375 72.90625 
L 39.796875 72.90625 
L 67.578125 0 
L 57.328125 0 
L 50.6875 18.703125 
L 17.828125 18.703125 
L 11.1875 0 
L 0.78125 0 
z
" id="DejaVuSans-41"/>
     <path d="M 9.8125 72.90625 
L 55.90625 72.90625 
L 55.90625 64.59375 
L 19.671875 64.59375 
L 19.671875 43.015625 
L 54.390625 43.015625 
L 54.390625 34.71875 
L 19.671875 34.71875 
L 19.671875 8.296875 
L 56.78125 8.296875 
L 56.78125 0 
L 9.8125 0 
z
" id="DejaVuSans-45"/>
     <path d="M 53.515625 70.515625 
L 53.515625 60.890625 
Q 47.90625 63.578125 42.921875 64.890625 
Q 37.9375 66.21875 33.296875 66.21875 
Q 25.25 66.21875 20.875 63.09375 
Q 16.5 59.96875 16.5 54.203125 
Q 16.5 49.359375 19.40625 46.890625 
Q 22.3125 44.4375 30.421875 42.921875 
L 36.375 41.703125 
Q 47.40625 39.59375 52.65625 34.296875 
Q 57.90625 29 57.90625 20.125 
Q 57.90625 9.515625 50.796875 4.046875 
Q 43.703125 -1.421875 29.984375 -1.421875 
Q 24.8125 -1.421875 18.96875 -0.25 
Q 13.140625 0.921875 6.890625 3.21875 
L 6.890625 13.375 
Q 12.890625 10.015625 18.65625 8.296875 
Q 24.421875 6.59375 29.984375 6.59375 
Q 38.421875 6.59375 43.015625 9.90625 
Q 47.609375 13.234375 47.609375 19.390625 
Q 47.609375 24.75 44.3125 27.78125 
Q 41.015625 30.8125 33.5 32.328125 
L 27.484375 33.5 
Q 16.453125 35.6875 11.515625 40.375 
Q 6.59375 45.0625 6.59375 53.421875 
Q 6.59375 63.09375 13.40625 68.65625 
Q 20.21875 74.21875 32.171875 74.21875 
Q 37.3125 74.21875 42.625 73.28125 
Q 47.953125 72.359375 53.515625 70.515625 
z
" id="DejaVuSans-53"/>
     <path d="M 19.671875 64.796875 
L 19.671875 37.40625 
L 32.078125 37.40625 
Q 38.96875 37.40625 42.71875 40.96875 
Q 46.484375 44.53125 46.484375 51.125 
Q 46.484375 57.671875 42.71875 61.234375 
Q 38.96875 64.796875 32.078125 64.796875 
z
M 9.8125 72.90625 
L 32.078125 72.90625 
Q 44.34375 72.90625 50.609375 67.359375 
Q 56.890625 61.8125 56.890625 51.125 
Q 56.890625 40.328125 50.609375 34.8125 
Q 44.34375 29.296875 32.078125 29.296875 
L 19.671875 29.296875 
L 19.671875 0 
L 9.8125 0 
z
" id="DejaVuSans-50"/>
    </defs>
    <g transform="translate(369.18424 294.223611)scale(0.17 -0.17)">
     <use xlink:href="#DejaVuSans-43"/>
     <use x="69.824219" xlink:href="#DejaVuSans-4d"/>
     <use x="156.103516" xlink:href="#DejaVuSans-41"/>
     <use x="224.511719" xlink:href="#DejaVuSans-20"/>
     <use x="256.298828" xlink:href="#DejaVuSans-45"/>
     <use x="319.482422" xlink:href="#DejaVuSans-53"/>
     <use x="382.958984" xlink:href="#DejaVuSans-20"/>
     <use x="414.746094" xlink:href="#DejaVuSans-50"/>
     <use x="475.048828" xlink:href="#DejaVuSans-50"/>
     <use x="535.351562" xlink:href="#DejaVuSans-4d"/>
    </g>
   </g>
   <g id="text_14">
    <!-- csa-classi -->
    <g transform="translate(369.18424 230.05569)scale(0.17 -0.17)">
     <use xlink:href="#DejaVuSans-63"/>
     <use x="54.980469" xlink:href="#DejaVuSans-73"/>
     <use x="107.080078" xlink:href="#DejaVuSans-61"/>
     <use x="168.359375" xlink:href="#DejaVuSans-2d"/>
     <use x="204.443359" xlink:href="#DejaVuSans-63"/>
     <use x="259.423828" xlink:href="#DejaVuSans-6c"/>
     <use x="287.207031" xlink:href="#DejaVuSans-61"/>
     <use x="348.486328" xlink:href="#DejaVuSans-73"/>
     <use x="400.585938" xlink:href="#DejaVuSans-73"/>
     <use x="452.685547" xlink:href="#DejaVuSans-69"/>
    </g>
   </g>
   <g id="text_15">
    <!-- CMAES posi -->
    <g transform="translate(369.18424 165.887769)scale(0.17 -0.17)">
     <use xlink:href="#DejaVuSans-43"/>
     <use x="69.824219" xlink:href="#DejaVuSans-4d"/>
     <use x="156.103516" xlink:href="#DejaVuSans-41"/>
     <use x="224.511719" xlink:href="#DejaVuSans-45"/>
     <use x="287.695312" xlink:href="#DejaVuSans-53"/>
     <use x="351.171875" xlink:href="#DejaVuSans-20"/>
     <use x="382.958984" xlink:href="#DejaVuSans-70"/>
     <use x="446.435547" xlink:href="#DejaVuSans-6f"/>
     <use x="507.617188" xlink:href="#DejaVuSans-73"/>
     <use x="559.716797" xlink:href="#DejaVuSans-69"/>
    </g>
   </g>
   <g id="text_16">
    <!-- CMA ES CSA -->
    <g transform="translate(369.18424 101.719848)scale(0.17 -0.17)">
     <use xlink:href="#DejaVuSans-43"/>
     <use x="69.824219" xlink:href="#DejaVuSans-4d"/>
     <use x="156.103516" xlink:href="#DejaVuSans-41"/>
     <use x="224.511719" xlink:href="#DejaVuSans-20"/>
     <use x="256.298828" xlink:href="#DejaVuSans-45"/>
     <use x="319.482422" xlink:href="#DejaVuSans-53"/>
     <use x="382.958984" xlink:href="#DejaVuSans-20"/>
     <use x="414.746094" xlink:href="#DejaVuSans-43"/>
     <use x="484.570312" xlink:href="#DejaVuSans-53"/>
     <use x="548.0625" xlink:href="#DejaVuSans-41"/>
    </g>
   </g>
   <g id="text_17">
    <!-- best 2009 -->
    <defs>
     <path d="M 48.6875 27.296875 
Q 48.6875 37.203125 44.609375 42.84375 
Q 40.53125 48.484375 33.40625 48.484375 
Q 26.265625 48.484375 22.1875 42.84375 
Q 18.109375 37.203125 18.109375 27.296875 
Q 18.109375 17.390625 22.1875 11.75 
Q 26.265625 6.109375 33.40625 6.109375 
Q 40.53125 6.109375 44.609375 11.75 
Q 48.6875 17.390625 48.6875 27.296875 
z
M 18.109375 46.390625 
Q 20.953125 51.265625 25.265625 53.625 
Q 29.59375 56 35.59375 56 
Q 45.5625 56 51.78125 48.09375 
Q 58.015625 40.1875 58.015625 27.296875 
Q 58.015625 14.40625 51.78125 6.484375 
Q 45.5625 -1.421875 35.59375 -1.421875 
Q 29.59375 -1.421875 25.265625 0.953125 
Q 20.953125 3.328125 18.109375 8.203125 
L 18.109375 0 
L 9.078125 0 
L 9.078125 75.984375 
L 18.109375 75.984375 
z
" id="DejaVuSans-62"/>
     <path d="M 10.984375 1.515625 
L 10.984375 10.5 
Q 14.703125 8.734375 18.5 7.8125 
Q 22.3125 6.890625 25.984375 6.890625 
Q 35.75 6.890625 40.890625 13.453125 
Q 46.046875 20.015625 46.78125 33.40625 
Q 43.953125 29.203125 39.59375 26.953125 
Q 35.25 24.703125 29.984375 24.703125 
Q 19.046875 24.703125 12.671875 31.3125 
Q 6.296875 37.9375 6.296875 49.421875 
Q 6.296875 60.640625 12.9375 67.421875 
Q 19.578125 74.21875 30.609375 74.21875 
Q 43.265625 74.21875 49.921875 64.515625 
Q 56.59375 54.828125 56.59375 36.375 
Q 56.59375 19.140625 48.40625 8.859375 
Q 40.234375 -1.421875 26.421875 -1.421875 
Q 22.703125 -1.421875 18.890625 -0.6875 
Q 15.09375 0.046875 10.984375 1.515625 
z
M 30.609375 32.421875 
Q 37.25 32.421875 41.125 36.953125 
Q 45.015625 41.5 45.015625 49.421875 
Q 45.015625 57.28125 41.125 61.84375 
Q 37.25 66.40625 30.609375 66.40625 
Q 23.96875 66.40625 20.09375 61.84375 
Q 16.21875 57.28125 16.21875 49.421875 
Q 16.21875 41.5 20.09375 36.953125 
Q 23.96875 32.421875 30.609375 32.421875 
z
" id="DejaVuSans-39"/>
    </defs>
    <g transform="translate(369.18424 37.551928)scale(0.17 -0.17)">
     <use xlink:href="#DejaVuSans-62"/>
     <use x="63.476562" xlink:href="#DejaVuSans-65"/>
     <use x="125" xlink:href="#DejaVuSans-73"/>
     <use x="177.099609" xlink:href="#DejaVuSans-74"/>
     <use x="216.308594" xlink:href="#DejaVuSans-20"/>
     <use x="248.095703" xlink:href="#DejaVuSans-32"/>
     <use x="311.71875" xlink:href="#DejaVuSans-30"/>
     <use x="375.341797" xlink:href="#DejaVuSans-30"/>
     <use x="438.964844" xlink:href="#DejaVuSans-39"/>
    </g>
   </g>
   <g id="text_18">
    <!-- bbob f17, 40-D -->
    <defs>
     <path d="M 8.203125 72.90625 
L 55.078125 72.90625 
L 55.078125 68.703125 
L 28.609375 0 
L 18.3125 0 
L 43.21875 64.59375 
L 8.203125 64.59375 
z
" id="DejaVuSans-37"/>
     <path d="M 19.671875 64.796875 
L 19.671875 8.109375 
L 31.59375 8.109375 
Q 46.6875 8.109375 53.6875 14.9375 
Q 60.6875 21.78125 60.6875 36.53125 
Q 60.6875 51.171875 53.6875 57.984375 
Q 46.6875 64.796875 31.59375 64.796875 
z
M 9.8125 72.90625 
L 30.078125 72.90625 
Q 51.265625 72.90625 61.171875 64.09375 
Q 71.09375 55.28125 71.09375 36.53125 
Q 71.09375 17.671875 61.125 8.828125 
Q 51.171875 0 30.078125 0 
L 9.8125 0 
z
" id="DejaVuSans-44"/>
    </defs>
    <g transform="translate(58.89048 35.290806)scale(0.102 -0.102)">
     <use xlink:href="#DejaVuSans-62"/>
     <use x="63.476562" xlink:href="#DejaVuSans-62"/>
     <use x="126.953125" xlink:href="#DejaVuSans-6f"/>
     <use x="188.134766" xlink:href="#DejaVuSans-62"/>
     <use x="251.611328" xlink:href="#DejaVuSans-20"/>
     <use x="283.398438" xlink:href="#DejaVuSans-66"/>
     <use x="318.603516" xlink:href="#DejaVuSans-31"/>
     <use x="382.226562" xlink:href="#DejaVuSans-37"/>
     <use x="445.849609" xlink:href="#DejaVuSans-2c"/>
     <use x="477.636719" xlink:href="#DejaVuSans-20"/>
     <use x="509.423828" xlink:href="#DejaVuSans-34"/>
     <use x="573.046875" xlink:href="#DejaVuSans-30"/>
     <use x="636.669922" xlink:href="#DejaVuSans-2d"/>
     <use x="672.753906" xlink:href="#DejaVuSans-44"/>
    </g>
    <!-- 51 targets: 100..1e-08 -->
    <defs>
     <path d="M 10.796875 72.90625 
L 49.515625 72.90625 
L 49.515625 64.59375 
L 19.828125 64.59375 
L 19.828125 46.734375 
Q 21.96875 47.46875 24.109375 47.828125 
Q 26.265625 48.1875 28.421875 48.1875 
Q 40.625 48.1875 47.75 41.5 
Q 54.890625 34.8125 54.890625 23.390625 
Q 54.890625 11.625 47.5625 5.09375 
Q 40.234375 -1.421875 26.90625 -1.421875 
Q 22.3125 -1.421875 17.546875 -0.640625 
Q 12.796875 0.140625 7.71875 1.703125 
L 7.71875 11.625 
Q 12.109375 9.234375 16.796875 8.0625 
Q 21.484375 6.890625 26.703125 6.890625 
Q 35.15625 6.890625 40.078125 11.328125 
Q 45.015625 15.765625 45.015625 23.390625 
Q 45.015625 31 40.078125 35.4375 
Q 35.15625 39.890625 26.703125 39.890625 
Q 22.75 39.890625 18.8125 39.015625 
Q 14.890625 38.140625 10.796875 36.28125 
z
" id="DejaVuSans-35"/>
     <path d="M 11.71875 12.40625 
L 22.015625 12.40625 
L 22.015625 0 
L 11.71875 0 
z
M 11.71875 51.703125 
L 22.015625 51.703125 
L 22.015625 39.3125 
L 11.71875 39.3125 
z
" id="DejaVuSans-3a"/>
    </defs>
    <g transform="translate(58.89048 46.712575)scale(0.102 -0.102)">
     <use xlink:href="#DejaVuSans-35"/>
     <use x="63.623047" xlink:href="#DejaVuSans-31"/>
     <use x="127.246094" xlink:href="#DejaVuSans-20"/>
     <use x="159.033203" xlink:href="#DejaVuSans-74"/>
     <use x="198.242188" xlink:href="#DejaVuSans-61"/>
     <use x="259.521484" xlink:href="#DejaVuSans-72"/>
     <use x="300.619141" xlink:href="#DejaVuSans-67"/>
     <use x="364.095703" xlink:href="#DejaVuSans-65"/>
     <use x="425.619141" xlink:href="#DejaVuSans-74"/>
     <use x="464.828125" xlink:href="#DejaVuSans-73"/>
     <use x="516.927734" xlink:href="#DejaVuSans-3a"/>
     <use x="550.619141" xlink:href="#DejaVuSans-20"/>
     <use x="582.40625" xlink:href="#DejaVuSans-31"/>
     <use x="646.029297" xlink:href="#DejaVuSans-30"/>
     <use x="709.652344" xlink:href="#DejaVuSans-30"/>
     <use x="773.275391" xlink:href="#DejaVuSans-2e"/>
     <use x="805.0625" xlink:href="#DejaVuSans-2e"/>
     <use x="836.849609" xlink:href="#DejaVuSans-31"/>
     <use x="900.472656" xlink:href="#DejaVuSans-65"/>
     <use x="961.996094" xlink:href="#DejaVuSans-2d"/>
     <use x="998.080078" xlink:href="#DejaVuSans-30"/>
     <use x="1061.703125" xlink:href="#DejaVuSans-38"/>
    </g>
    <!-- 15 instances -->
    <g transform="translate(58.89048 58.134344)scale(0.102 -0.102)">
     <use xlink:href="#DejaVuSans-31"/>
     <use x="63.623047" xlink:href="#DejaVuSans-35"/>
     <use x="127.246094" xlink:href="#DejaVuSans-20"/>
     <use x="159.033203" xlink:href="#DejaVuSans-69"/>
     <use x="186.816406" xlink:href="#DejaVuSans-6e"/>
     <use x="250.195312" xlink:href="#DejaVuSans-73"/>
     <use x="302.294922" xlink:href="#DejaVuSans-74"/>
     <use x="341.503906" xlink:href="#DejaVuSans-61"/>
     <use x="402.783203" xlink:href="#DejaVuSans-6e"/>
     <use x="466.162109" xlink:href="#DejaVuSans-63"/>
     <use x="521.142578" xlink:href="#DejaVuSans-65"/>
     <use x="582.666016" xlink:href="#DejaVuSans-73"/>
    </g>
   </g>
   <g id="text_19">
    <!-- v0.0.0 -->
    <g style="fill:#808080;" transform="translate(178.96275 290.099912)scale(0.1 -0.1)">
     <use xlink:href="#DejaVuSans-76"/>
     <use x="59.179688" xlink:href="#DejaVuSans-30"/>
     <use x="122.802734" xlink:href="#DejaVuSans-2e"/>
     <use x="154.589844" xlink:href="#DejaVuSans-30"/>
     <use x="218.212891" xlink:href="#DejaVuSans-2e"/>
     <use x="250" xlink:href="#DejaVuSans-30"/>
    </g>
   </g>
   <g id="text_20">
    <!-- 17 Schaffer F7, condition 10 -->
    <defs>
     <path d="M 54.890625 33.015625 
L 54.890625 0 
L 45.90625 0 
L 45.90625 32.71875 
Q 45.90625 40.484375 42.875 44.328125 
Q 39.84375 48.1875 33.796875 48.1875 
Q 26.515625 48.1875 22.3125 43.546875 
Q 18.109375 38.921875 18.109375 30.90625 
L 18.109375 0 
L 9.078125 0 
L 9.078125 75.984375 
L 18.109375 75.984375 
L 18.109375 46.1875 
Q 21.34375 51.125 25.703125 53.5625 
Q 30.078125 56 35.796875 56 
Q 45.21875 56 50.046875 50.171875 
Q 54.890625 44.34375 54.890625 33.015625 
z
" id="DejaVuSans-68"/>
    </defs>
    <g transform="translate(53.336187 18.84)scale(0.2 -0.2)">
     <use xlink:href="#DejaVuSans-31"/>
     <use x="63.623047" xlink:href="#DejaVuSans-37"/>
     <use x="127.246094" xlink:href="#DejaVuSans-20"/>
     <use x="159.033203" xlink:href="#DejaVuSans-53"/>
     <use x="222.509766" xlink:href="#DejaVuSans-63"/>
     <use x="277.490234" xlink:href="#DejaVuSans-68"/>
     <use x="340.869141" xlink:href="#DejaVuSans-61"/>
     <use x="402.148438" xlink:href="#DejaVuSans-66"/>
     <use x="437.353516" xlink:href="#DejaVuSans-66"/>
     <use x="472.558594" xlink:href="#DejaVuSans-65"/>
     <use x="534.082031" xlink:href="#DejaVuSans-72"/>
     <use x="575.195312" xlink:href="#DejaVuSans-20"/>
     <use x="606.982422" xlink:href="#DejaVuSans-46"/>
     <use x="664.501953" xlink:href="#DejaVuSans-37"/>
     <use x="728.125" xlink:href="#DejaVuSans-2c"/>
     <use x="759.912109" xlink:href="#DejaVuSans-20"/>
     <use x="791.699219" xlink:href="#DejaVuSans-63"/>
     <use x="846.679688" xlink:href="#DejaVuSans-6f"/>
     <use x="907.861328" xlink:href="#DejaVuSans-6e"/>
     <use x="971.240234" xlink:href="#DejaVuSans-64"/>
     <use x="1034.716797" xlink:href="#DejaVuSans-69"/>
     <use x="1062.5" xlink:href="#DejaVuSans-74"/>
     <use x="1101.708984" xlink:href="#DejaVuSans-69"/>
     <use x="1129.492188" xlink:href="#DejaVuSans-6f"/>
     <use x="1190.673828" xlink:href="#DejaVuSans-6e"/>
     <use x="1254.052734" xlink:href="#DejaVuSans-20"/>
     <use x="1285.839844" xlink:href="#DejaVuSans-31"/>
     <use x="1349.462891" xlink:href="#DejaVuSans-30"/>
    </g>
   </g>
  </g>
 </g>
 <defs>
  <clipPath id="p769ba925bd">
   <rect height="270.04" width="277.048" x="56.12" y="24.84"/>
  </clipPath>
 </defs>
</svg>
