<?xml version="1.0" encoding="utf-8" standalone="no"?>
<!DOCTYPE svg PUBLIC "-//W3C//DTD SVG 1.1//EN"
  "http://www.w3.org/Graphics/SVG/1.1/DTD/svg11.dtd">
<!-- Created with matplotlib (http://matplotlib.org/) -->
<svg height="345pt" version="1.1" viewBox="0 0 460 345" width="460pt" xmlns="http://www.w3.org/2000/svg" xmlns:xlink="http://www.w3.org/1999/xlink">
 <defs>
  <style type="text/css">
*{stroke-linecap:butt;stroke-linejoin:round;}
  </style>
 </defs>
 <g id="figure_1">
  <g id="patch_1">
   <path d="M 0 345.6 
L 460.8 345.6 
L 460.8 0 
L 0 0 
z
" style="fill:#ffffff;"/>
  </g>
  <g id="axes_1">
   <g id="patch_2">
    <path d="M 56.12 294.88 
L 333.168 294.88 
L 333.168 24.84 
L 56.12 24.84 
z
" style="fill:#ffffff;"/>
   </g>
   <g id="line2d_1">
    <path d="M 106.272485 294.88 
L 106.272485 289.637523 
L 106.365146 289.637523 
L 106.365146 268.667614 
L 106.45731 268.667614 
L 106.45731 263.425137 
L 106.64017 263.425137 
L 106.64017 252.940182 
L 106.730875 252.940182 
L 106.730875 231.970274 
L 106.821105 231.970274 
L 106.821105 174.303025 
L 106.910863 174.303025 
L 106.910863 163.81807 
L 107.000154 163.81807 
L 107.000154 121.878253 
L 107.088985 121.878253 
L 107.088985 74.695958 
L 107.177358 74.695958 
L 107.177358 53.726049 
L 107.26528 53.726049 
L 107.26528 27.513663 
L 333.168 27.513663 
" style="fill:none;stroke:#f5deb3;stroke-linecap:square;stroke-width:4;"/>
   </g>
   <g id="line2d_2">
    <defs>
     <path d="M -0 7.778175 
L 7.778175 0 
L 0 -7.778175 
L -7.778175 -0 
z
" id="m6bd249899e" style="stroke:#f5deb3;stroke-linejoin:miter;stroke-width:1.5;"/>
    </defs>
    <g>
     <use style="fill:#f5deb3;stroke:#f5deb3;stroke-linejoin:miter;stroke-width:1.5;" x="107.000154" xlink:href="#m6bd249899e" y="163.81807"/>
     <use style="fill:#f5deb3;stroke:#f5deb3;stroke-linejoin:miter;stroke-width:1.5;" x="107.26528" xlink:href="#m6bd249899e" y="53.726049"/>
     <use style="fill:#f5deb3;stroke:#f5deb3;stroke-linejoin:miter;stroke-width:1.5;" x="107.26528" xlink:href="#m6bd249899e" y="27.513663"/>
     <use style="fill:#f5deb3;stroke:#f5deb3;stroke-linejoin:miter;stroke-width:1.5;" x="107.26528" xlink:href="#m6bd249899e" y="27.513663"/>
     <use style="fill:#f5deb3;stroke:#f5deb3;stroke-linejoin:miter;stroke-width:1.5;" x="333.168" xlink:href="#m6bd249899e" y="27.513663"/>
    </g>
   </g>
   <g id="line2d_3">
    <path style="fill:none;stroke:#f5deb3;stroke-linecap:square;stroke-width:4;"/>
    <g/>
   </g>
   <g id="line2d_4">
    <path d="M 333.168 27.513663 
L 363.64328 32.86099 
" style="fill:none;stroke:#f5deb3;stroke-linecap:square;stroke-width:4;"/>
    <g>
     <use style="fill:#f5deb3;stroke:#f5deb3;stroke-linejoin:miter;stroke-width:1.5;" x="333.168" xlink:href="#m6bd249899e" y="27.513663"/>
     <use style="fill:#f5deb3;stroke:#f5deb3;stroke-linejoin:miter;stroke-width:1.5;" x="363.64328" xlink:href="#m6bd249899e" y="32.86099"/>
    </g>
   </g>
   <g id="matplotlib.axis_1">
    <g id="xtick_1">
     <g id="line2d_5">
      <path clip-path="url(#pc14ab5b1ea)" d="M 56.12 294.88 
L 56.12 24.84 
" style="fill:none;stroke:#b0b0b0;stroke-linecap:square;stroke-width:0.8;"/>
     </g>
     <g id="line2d_6">
      <defs>
       <path d="M 0 0 
L 0 3.5 
" id="m4af2ebbe06" style="stroke:#000000;stroke-width:0.8;"/>
      </defs>
      <g>
       <use style="stroke:#000000;stroke-width:0.8;" x="56.12" xlink:href="#m4af2ebbe06" y="294.88"/>
      </g>
     </g>
     <g id="text_1">
      <!-- 0 -->
      <defs>
       <path d="M 31.78125 66.40625 
Q 24.171875 66.40625 20.328125 58.90625 
Q 16.5 51.421875 16.5 36.375 
Q 16.5 21.390625 20.328125 13.890625 
Q 24.171875 6.390625 31.78125 6.390625 
Q 39.453125 6.390625 43.28125 13.890625 
Q 47.125 21.390625 47.125 36.375 
Q 47.125 51.421875 43.28125 58.90625 
Q 39.453125 66.40625 31.78125 66.40625 
z
M 31.78125 74.21875 
Q 44.046875 74.21875 50.515625 64.515625 
Q 56.984375 54.828125 56.984375 36.375 
Q 56.984375 17.96875 50.515625 8.265625 
Q 44.046875 -1.421875 31.78125 -1.421875 
Q 19.53125 -1.421875 13.0625 8.265625 
Q 6.59375 17.96875 6.59375 36.375 
Q 6.59375 54.828125 13.0625 64.515625 
Q 19.53125 74.21875 31.78125 74.21875 
z
" id="DejaVuSans-30"/>
      </defs>
      <g transform="translate(49.7575 317.076875)scale(0.2 -0.2)">
       <use xlink:href="#DejaVuSans-30"/>
      </g>
     </g>
    </g>
    <g id="xtick_2">
     <g id="line2d_7">
      <path clip-path="url(#pc14ab5b1ea)" d="M 135.276571 294.88 
L 135.276571 24.84 
" style="fill:none;stroke:#b0b0b0;stroke-linecap:square;stroke-width:0.8;"/>
     </g>
     <g id="line2d_8">
      <g>
       <use style="stroke:#000000;stroke-width:0.8;" x="135.276571" xlink:href="#m4af2ebbe06" y="294.88"/>
      </g>
     </g>
     <g id="text_2">
      <!-- 2 -->
      <defs>
       <path d="M 19.1875 8.296875 
L 53.609375 8.296875 
L 53.609375 0 
L 7.328125 0 
L 7.328125 8.296875 
Q 12.9375 14.109375 22.625 23.890625 
Q 32.328125 33.6875 34.8125 36.53125 
Q 39.546875 41.84375 41.421875 45.53125 
Q 43.3125 49.21875 43.3125 52.78125 
Q 43.3125 58.59375 39.234375 62.25 
Q 35.15625 65.921875 28.609375 65.921875 
Q 23.96875 65.921875 18.8125 64.3125 
Q 13.671875 62.703125 7.8125 59.421875 
L 7.8125 69.390625 
Q 13.765625 71.78125 18.9375 73 
Q 24.125 74.21875 28.421875 74.21875 
Q 39.75 74.21875 46.484375 68.546875 
Q 53.21875 62.890625 53.21875 53.421875 
Q 53.21875 48.921875 51.53125 44.890625 
Q 49.859375 40.875 45.40625 35.40625 
Q 44.1875 33.984375 37.640625 27.21875 
Q 31.109375 20.453125 19.1875 8.296875 
z
" id="DejaVuSans-32"/>
      </defs>
      <g transform="translate(128.914071 317.076875)scale(0.2 -0.2)">
       <use xlink:href="#DejaVuSans-32"/>
      </g>
     </g>
    </g>
    <g id="xtick_3">
     <g id="line2d_9">
      <path clip-path="url(#pc14ab5b1ea)" d="M 214.433143 294.88 
L 214.433143 24.84 
" style="fill:none;stroke:#b0b0b0;stroke-linecap:square;stroke-width:0.8;"/>
     </g>
     <g id="line2d_10">
      <g>
       <use style="stroke:#000000;stroke-width:0.8;" x="214.433143" xlink:href="#m4af2ebbe06" y="294.88"/>
      </g>
     </g>
     <g id="text_3">
      <!-- 4 -->
      <defs>
       <path d="M 37.796875 64.3125 
L 12.890625 25.390625 
L 37.796875 25.390625 
z
M 35.203125 72.90625 
L 47.609375 72.90625 
L 47.609375 25.390625 
L 58.015625 25.390625 
L 58.015625 17.1875 
L 47.609375 17.1875 
L 47.609375 0 
L 37.796875 0 
L 37.796875 17.1875 
L 4.890625 17.1875 
L 4.890625 26.703125 
z
" id="DejaVuSans-34"/>
      </defs>
      <g transform="translate(208.070643 317.076875)scale(0.2 -0.2)">
       <use xlink:href="#DejaVuSans-34"/>
      </g>
     </g>
    </g>
    <g id="xtick_4">
     <g id="line2d_11">
      <path clip-path="url(#pc14ab5b1ea)" d="M 293.589714 294.88 
L 293.589714 24.84 
" style="fill:none;stroke:#b0b0b0;stroke-linecap:square;stroke-width:0.8;"/>
     </g>
     <g id="line2d_12">
      <g>
       <use style="stroke:#000000;stroke-width:0.8;" x="293.589714" xlink:href="#m4af2ebbe06" y="294.88"/>
      </g>
     </g>
     <g id="text_4">
      <!-- 6 -->
      <defs>
       <path d="M 33.015625 40.375 
Q 26.375 40.375 22.484375 35.828125 
Q 18.609375 31.296875 18.609375 23.390625 
Q 18.609375 15.53125 22.484375 10.953125 
Q 26.375 6.390625 33.015625 6.390625 
Q 39.65625 6.390625 43.53125 10.953125 
Q 47.40625 15.53125 47.40625 23.390625 
Q 47.40625 31.296875 43.53125 35.828125 
Q 39.65625 40.375 33.015625 40.375 
z
M 52.59375 71.296875 
L 52.59375 62.3125 
Q 48.875 64.0625 45.09375 64.984375 
Q 41.3125 65.921875 37.59375 65.921875 
Q 27.828125 65.921875 22.671875 59.328125 
Q 17.53125 52.734375 16.796875 39.40625 
Q 19.671875 43.65625 24.015625 45.921875 
Q 28.375 48.1875 33.59375 48.1875 
Q 44.578125 48.1875 50.953125 41.515625 
Q 57.328125 34.859375 57.328125 23.390625 
Q 57.328125 12.15625 50.6875 5.359375 
Q 44.046875 -1.421875 33.015625 -1.421875 
Q 20.359375 -1.421875 13.671875 8.265625 
Q 6.984375 17.96875 6.984375 36.375 
Q 6.984375 53.65625 15.1875 63.9375 
Q 23.390625 74.21875 37.203125 74.21875 
Q 40.921875 74.21875 44.703125 73.484375 
Q 48.484375 72.75 52.59375 71.296875 
z
" id="DejaVuSans-36"/>
      </defs>
      <g transform="translate(287.227214 317.076875)scale(0.2 -0.2)">
       <use xlink:href="#DejaVuSans-36"/>
      </g>
     </g>
    </g>
    <g id="xtick_5">
     <g id="line2d_13">
      <path clip-path="url(#pc14ab5b1ea)" d="M 56.12 294.88 
L 56.12 24.84 
" style="fill:none;stroke:#b0b0b0;stroke-linecap:square;stroke-width:0.8;"/>
     </g>
     <g id="line2d_14">
      <defs>
       <path d="M 0 0 
L 0 2 
" id="m3c261682f7" style="stroke:#000000;stroke-width:0.6;"/>
      </defs>
      <g>
       <use style="stroke:#000000;stroke-width:0.6;" x="56.12" xlink:href="#m3c261682f7" y="294.88"/>
      </g>
     </g>
    </g>
    <g id="xtick_6">
     <g id="line2d_15">
      <path clip-path="url(#pc14ab5b1ea)" d="M 95.698286 294.88 
L 95.698286 24.84 
" style="fill:none;stroke:#b0b0b0;stroke-linecap:square;stroke-width:0.8;"/>
     </g>
     <g id="line2d_16">
      <g>
       <use style="stroke:#000000;stroke-width:0.6;" x="95.698286" xlink:href="#m3c261682f7" y="294.88"/>
      </g>
     </g>
    </g>
    <g id="xtick_7">
     <g id="line2d_17">
      <path clip-path="url(#pc14ab5b1ea)" d="M 135.276571 294.88 
L 135.276571 24.84 
" style="fill:none;stroke:#b0b0b0;stroke-linecap:square;stroke-width:0.8;"/>
     </g>
     <g id="line2d_18">
      <g>
       <use style="stroke:#000000;stroke-width:0.6;" x="135.276571" xlink:href="#m3c261682f7" y="294.88"/>
      </g>
     </g>
    </g>
    <g id="xtick_8">
     <g id="line2d_19">
      <path clip-path="url(#pc14ab5b1ea)" d="M 174.854857 294.88 
L 174.854857 24.84 
" style="fill:none;stroke:#b0b0b0;stroke-linecap:square;stroke-width:0.8;"/>
     </g>
     <g id="line2d_20">
      <g>
       <use style="stroke:#000000;stroke-width:0.6;" x="174.854857" xlink:href="#m3c261682f7" y="294.88"/>
      </g>
     </g>
    </g>
    <g id="xtick_9">
     <g id="line2d_21">
      <path clip-path="url(#pc14ab5b1ea)" d="M 214.433143 294.88 
L 214.433143 24.84 
" style="fill:none;stroke:#b0b0b0;stroke-linecap:square;stroke-width:0.8;"/>
     </g>
     <g id="line2d_22">
      <g>
       <use style="stroke:#000000;stroke-width:0.6;" x="214.433143" xlink:href="#m3c261682f7" y="294.88"/>
      </g>
     </g>
    </g>
    <g id="xtick_10">
     <g id="line2d_23">
      <path clip-path="url(#pc14ab5b1ea)" d="M 254.011429 294.88 
L 254.011429 24.84 
" style="fill:none;stroke:#b0b0b0;stroke-linecap:square;stroke-width:0.8;"/>
     </g>
     <g id="line2d_24">
      <g>
       <use style="stroke:#000000;stroke-width:0.6;" x="254.011429" xlink:href="#m3c261682f7" y="294.88"/>
      </g>
     </g>
    </g>
    <g id="xtick_11">
     <g id="line2d_25">
      <path clip-path="url(#pc14ab5b1ea)" d="M 293.589714 294.88 
L 293.589714 24.84 
" style="fill:none;stroke:#b0b0b0;stroke-linecap:square;stroke-width:0.8;"/>
     </g>
     <g id="line2d_26">
      <g>
       <use style="stroke:#000000;stroke-width:0.6;" x="293.589714" xlink:href="#m3c261682f7" y="294.88"/>
      </g>
     </g>
    </g>
    <g id="xtick_12">
     <g id="line2d_27">
      <path clip-path="url(#pc14ab5b1ea)" d="M 333.168 294.88 
L 333.168 24.84 
" style="fill:none;stroke:#b0b0b0;stroke-linecap:square;stroke-width:0.8;"/>
     </g>
     <g id="line2d_28">
      <g>
       <use style="stroke:#000000;stroke-width:0.6;" x="333.168" xlink:href="#m3c261682f7" y="294.88"/>
      </g>
     </g>
    </g>
    <g id="text_5">
     <!-- log10(# f-evals / dimension) -->
     <defs>
      <path d="M 9.421875 75.984375 
L 18.40625 75.984375 
L 18.40625 0 
L 9.421875 0 
z
" id="DejaVuSans-6c"/>
      <path d="M 30.609375 48.390625 
Q 23.390625 48.390625 19.1875 42.75 
Q 14.984375 37.109375 14.984375 27.296875 
Q 14.984375 17.484375 19.15625 11.84375 
Q 23.34375 6.203125 30.609375 6.203125 
Q 37.796875 6.203125 41.984375 11.859375 
Q 46.1875 17.53125 46.1875 27.296875 
Q 46.1875 37.015625 41.984375 42.703125 
Q 37.796875 48.390625 30.609375 48.390625 
z
M 30.609375 56 
Q 42.328125 56 49.015625 48.375 
Q 55.71875 40.765625 55.71875 27.296875 
Q 55.71875 13.875 49.015625 6.21875 
Q 42.328125 -1.421875 30.609375 -1.421875 
Q 18.84375 -1.421875 12.171875 6.21875 
Q 5.515625 13.875 5.515625 27.296875 
Q 5.515625 40.765625 12.171875 48.375 
Q 18.84375 56 30.609375 56 
z
" id="DejaVuSans-6f"/>
      <path d="M 45.40625 27.984375 
Q 45.40625 37.75 41.375 43.109375 
Q 37.359375 48.484375 30.078125 48.484375 
Q 22.859375 48.484375 18.828125 43.109375 
Q 14.796875 37.75 14.796875 27.984375 
Q 14.796875 18.265625 18.828125 12.890625 
Q 22.859375 7.515625 30.078125 7.515625 
Q 37.359375 7.515625 41.375 12.890625 
Q 45.40625 18.265625 45.40625 27.984375 
z
M 54.390625 6.78125 
Q 54.390625 -7.171875 48.1875 -13.984375 
Q 42 -20.796875 29.203125 -20.796875 
Q 24.46875 -20.796875 20.265625 -20.09375 
Q 16.0625 -19.390625 12.109375 -17.921875 
L 12.109375 -9.1875 
Q 16.0625 -11.328125 19.921875 -12.34375 
Q 23.78125 -13.375 27.78125 -13.375 
Q 36.625 -13.375 41.015625 -8.765625 
Q 45.40625 -4.15625 45.40625 5.171875 
L 45.40625 9.625 
Q 42.625 4.78125 38.28125 2.390625 
Q 33.9375 0 27.875 0 
Q 17.828125 0 11.671875 7.65625 
Q 5.515625 15.328125 5.515625 27.984375 
Q 5.515625 40.671875 11.671875 48.328125 
Q 17.828125 56 27.875 56 
Q 33.9375 56 38.28125 53.609375 
Q 42.625 51.21875 45.40625 46.390625 
L 45.40625 54.6875 
L 54.390625 54.6875 
z
" id="DejaVuSans-67"/>
      <path d="M 12.40625 8.296875 
L 28.515625 8.296875 
L 28.515625 63.921875 
L 10.984375 60.40625 
L 10.984375 69.390625 
L 28.421875 72.90625 
L 38.28125 72.90625 
L 38.28125 8.296875 
L 54.390625 8.296875 
L 54.390625 0 
L 12.40625 0 
z
" id="DejaVuSans-31"/>
      <path d="M 31 75.875 
Q 24.46875 64.65625 21.28125 53.65625 
Q 18.109375 42.671875 18.109375 31.390625 
Q 18.109375 20.125 21.3125 9.0625 
Q 24.515625 -2 31 -13.1875 
L 23.1875 -13.1875 
Q 15.875 -1.703125 12.234375 9.375 
Q 8.59375 20.453125 8.59375 31.390625 
Q 8.59375 42.28125 12.203125 53.3125 
Q 15.828125 64.359375 23.1875 75.875 
z
" id="DejaVuSans-28"/>
      <path d="M 51.125 44 
L 36.921875 44 
L 32.8125 27.6875 
L 47.125 27.6875 
z
M 43.796875 71.78125 
L 38.71875 51.515625 
L 52.984375 51.515625 
L 58.109375 71.78125 
L 65.921875 71.78125 
L 60.890625 51.515625 
L 76.125 51.515625 
L 76.125 44 
L 58.984375 44 
L 54.984375 27.6875 
L 70.515625 27.6875 
L 70.515625 20.21875 
L 53.078125 20.21875 
L 48 0 
L 40.1875 0 
L 45.21875 20.21875 
L 30.90625 20.21875 
L 25.875 0 
L 18.015625 0 
L 23.09375 20.21875 
L 7.71875 20.21875 
L 7.71875 27.6875 
L 24.90625 27.6875 
L 29 44 
L 13.28125 44 
L 13.28125 51.515625 
L 30.90625 51.515625 
L 35.890625 71.78125 
z
" id="DejaVuSans-23"/>
      <path id="DejaVuSans-20"/>
      <path d="M 37.109375 75.984375 
L 37.109375 68.5 
L 28.515625 68.5 
Q 23.6875 68.5 21.796875 66.546875 
Q 19.921875 64.59375 19.921875 59.515625 
L 19.921875 54.6875 
L 34.71875 54.6875 
L 34.71875 47.703125 
L 19.921875 47.703125 
L 19.921875 0 
L 10.890625 0 
L 10.890625 47.703125 
L 2.296875 47.703125 
L 2.296875 54.6875 
L 10.890625 54.6875 
L 10.890625 58.5 
Q 10.890625 67.625 15.140625 71.796875 
Q 19.390625 75.984375 28.609375 75.984375 
z
" id="DejaVuSans-66"/>
      <path d="M 4.890625 31.390625 
L 31.203125 31.390625 
L 31.203125 23.390625 
L 4.890625 23.390625 
z
" id="DejaVuSans-2d"/>
      <path d="M 56.203125 29.59375 
L 56.203125 25.203125 
L 14.890625 25.203125 
Q 15.484375 15.921875 20.484375 11.0625 
Q 25.484375 6.203125 34.421875 6.203125 
Q 39.59375 6.203125 44.453125 7.46875 
Q 49.3125 8.734375 54.109375 11.28125 
L 54.109375 2.78125 
Q 49.265625 0.734375 44.1875 -0.34375 
Q 39.109375 -1.421875 33.890625 -1.421875 
Q 20.796875 -1.421875 13.15625 6.1875 
Q 5.515625 13.8125 5.515625 26.8125 
Q 5.515625 40.234375 12.765625 48.109375 
Q 20.015625 56 32.328125 56 
Q 43.359375 56 49.78125 48.890625 
Q 56.203125 41.796875 56.203125 29.59375 
z
M 47.21875 32.234375 
Q 47.125 39.59375 43.09375 43.984375 
Q 39.0625 48.390625 32.421875 48.390625 
Q 24.90625 48.390625 20.390625 44.140625 
Q 15.875 39.890625 15.1875 32.171875 
z
" id="DejaVuSans-65"/>
      <path d="M 2.984375 54.6875 
L 12.5 54.6875 
L 29.59375 8.796875 
L 46.6875 54.6875 
L 56.203125 54.6875 
L 35.6875 0 
L 23.484375 0 
z
" id="DejaVuSans-76"/>
      <path d="M 34.28125 27.484375 
Q 23.390625 27.484375 19.1875 25 
Q 14.984375 22.515625 14.984375 16.5 
Q 14.984375 11.71875 18.140625 8.90625 
Q 21.296875 6.109375 26.703125 6.109375 
Q 34.1875 6.109375 38.703125 11.40625 
Q 43.21875 16.703125 43.21875 25.484375 
L 43.21875 27.484375 
z
M 52.203125 31.203125 
L 52.203125 0 
L 43.21875 0 
L 43.21875 8.296875 
Q 40.140625 3.328125 35.546875 0.953125 
Q 30.953125 -1.421875 24.3125 -1.421875 
Q 15.921875 -1.421875 10.953125 3.296875 
Q 6 8.015625 6 15.921875 
Q 6 25.140625 12.171875 29.828125 
Q 18.359375 34.515625 30.609375 34.515625 
L 43.21875 34.515625 
L 43.21875 35.40625 
Q 43.21875 41.609375 39.140625 45 
Q 35.0625 48.390625 27.6875 48.390625 
Q 23 48.390625 18.546875 47.265625 
Q 14.109375 46.140625 10.015625 43.890625 
L 10.015625 52.203125 
Q 14.9375 54.109375 19.578125 55.046875 
Q 24.21875 56 28.609375 56 
Q 40.484375 56 46.34375 49.84375 
Q 52.203125 43.703125 52.203125 31.203125 
z
" id="DejaVuSans-61"/>
      <path d="M 44.28125 53.078125 
L 44.28125 44.578125 
Q 40.484375 46.53125 36.375 47.5 
Q 32.28125 48.484375 27.875 48.484375 
Q 21.1875 48.484375 17.84375 46.4375 
Q 14.5 44.390625 14.5 40.28125 
Q 14.5 37.15625 16.890625 35.375 
Q 19.28125 33.59375 26.515625 31.984375 
L 29.59375 31.296875 
Q 39.15625 29.25 43.1875 25.515625 
Q 47.21875 21.78125 47.21875 15.09375 
Q 47.21875 7.46875 41.1875 3.015625 
Q 35.15625 -1.421875 24.609375 -1.421875 
Q 20.21875 -1.421875 15.453125 -0.5625 
Q 10.6875 0.296875 5.421875 2 
L 5.421875 11.28125 
Q 10.40625 8.6875 15.234375 7.390625 
Q 20.0625 6.109375 24.8125 6.109375 
Q 31.15625 6.109375 34.5625 8.28125 
Q 37.984375 10.453125 37.984375 14.40625 
Q 37.984375 18.0625 35.515625 20.015625 
Q 33.0625 21.96875 24.703125 23.78125 
L 21.578125 24.515625 
Q 13.234375 26.265625 9.515625 29.90625 
Q 5.8125 33.546875 5.8125 39.890625 
Q 5.8125 47.609375 11.28125 51.796875 
Q 16.75 56 26.8125 56 
Q 31.78125 56 36.171875 55.265625 
Q 40.578125 54.546875 44.28125 53.078125 
z
" id="DejaVuSans-73"/>
      <path d="M 25.390625 72.90625 
L 33.6875 72.90625 
L 8.296875 -9.28125 
L 0 -9.28125 
z
" id="DejaVuSans-2f"/>
      <path d="M 45.40625 46.390625 
L 45.40625 75.984375 
L 54.390625 75.984375 
L 54.390625 0 
L 45.40625 0 
L 45.40625 8.203125 
Q 42.578125 3.328125 38.25 0.953125 
Q 33.9375 -1.421875 27.875 -1.421875 
Q 17.96875 -1.421875 11.734375 6.484375 
Q 5.515625 14.40625 5.515625 27.296875 
Q 5.515625 40.1875 11.734375 48.09375 
Q 17.96875 56 27.875 56 
Q 33.9375 56 38.25 53.625 
Q 42.578125 51.265625 45.40625 46.390625 
z
M 14.796875 27.296875 
Q 14.796875 17.390625 18.875 11.75 
Q 22.953125 6.109375 30.078125 6.109375 
Q 37.203125 6.109375 41.296875 11.75 
Q 45.40625 17.390625 45.40625 27.296875 
Q 45.40625 37.203125 41.296875 42.84375 
Q 37.203125 48.484375 30.078125 48.484375 
Q 22.953125 48.484375 18.875 42.84375 
Q 14.796875 37.203125 14.796875 27.296875 
z
" id="DejaVuSans-64"/>
      <path d="M 9.421875 54.6875 
L 18.40625 54.6875 
L 18.40625 0 
L 9.421875 0 
z
M 9.421875 75.984375 
L 18.40625 75.984375 
L 18.40625 64.59375 
L 9.421875 64.59375 
z
" id="DejaVuSans-69"/>
      <path d="M 52 44.1875 
Q 55.375 50.25 60.0625 53.125 
Q 64.75 56 71.09375 56 
Q 79.640625 56 84.28125 50.015625 
Q 88.921875 44.046875 88.921875 33.015625 
L 88.921875 0 
L 79.890625 0 
L 79.890625 32.71875 
Q 79.890625 40.578125 77.09375 44.375 
Q 74.3125 48.1875 68.609375 48.1875 
Q 61.625 48.1875 57.5625 43.546875 
Q 53.515625 38.921875 53.515625 30.90625 
L 53.515625 0 
L 44.484375 0 
L 44.484375 32.71875 
Q 44.484375 40.625 41.703125 44.40625 
Q 38.921875 48.1875 33.109375 48.1875 
Q 26.21875 48.1875 22.15625 43.53125 
Q 18.109375 38.875 18.109375 30.90625 
L 18.109375 0 
L 9.078125 0 
L 9.078125 54.6875 
L 18.109375 54.6875 
L 18.109375 46.1875 
Q 21.1875 51.21875 25.484375 53.609375 
Q 29.78125 56 35.6875 56 
Q 41.65625 56 45.828125 52.96875 
Q 50 49.953125 52 44.1875 
z
" id="DejaVuSans-6d"/>
      <path d="M 54.890625 33.015625 
L 54.890625 0 
L 45.90625 0 
L 45.90625 32.71875 
Q 45.90625 40.484375 42.875 44.328125 
Q 39.84375 48.1875 33.796875 48.1875 
Q 26.515625 48.1875 22.3125 43.546875 
Q 18.109375 38.921875 18.109375 30.90625 
L 18.109375 0 
L 9.078125 0 
L 9.078125 54.6875 
L 18.109375 54.6875 
L 18.109375 46.1875 
Q 21.34375 51.125 25.703125 53.5625 
Q 30.078125 56 35.796875 56 
Q 45.21875 56 50.046875 50.171875 
Q 54.890625 44.34375 54.890625 33.015625 
z
" id="DejaVuSans-6e"/>
      <path d="M 8.015625 75.875 
L 15.828125 75.875 
Q 23.140625 64.359375 26.78125 53.3125 
Q 30.421875 42.28125 30.421875 31.390625 
Q 30.421875 20.453125 26.78125 9.375 
Q 23.140625 -1.703125 15.828125 -13.1875 
L 8.015625 -13.1875 
Q 14.5 -2 17.703125 9.0625 
Q 20.90625 20.125 20.90625 31.390625 
Q 20.90625 42.671875 17.703125 53.65625 
Q 14.5 64.65625 8.015625 75.875 
z
" id="DejaVuSans-29"/>
     </defs>
     <g transform="translate(73.803219 338.153594)scale(0.17 -0.17)">
      <use xlink:href="#DejaVuSans-6c"/>
      <use x="27.783203" xlink:href="#DejaVuSans-6f"/>
      <use x="88.964844" xlink:href="#DejaVuSans-67"/>
      <use x="152.441406" xlink:href="#DejaVuSans-31"/>
      <use x="216.064453" xlink:href="#DejaVuSans-30"/>
      <use x="279.6875" xlink:href="#DejaVuSans-28"/>
      <use x="318.701172" xlink:href="#DejaVuSans-23"/>
      <use x="402.490234" xlink:href="#DejaVuSans-20"/>
      <use x="434.277344" xlink:href="#DejaVuSans-66"/>
      <use x="469.404297" xlink:href="#DejaVuSans-2d"/>
      <use x="505.488281" xlink:href="#DejaVuSans-65"/>
      <use x="567.011719" xlink:href="#DejaVuSans-76"/>
      <use x="626.191406" xlink:href="#DejaVuSans-61"/>
      <use x="687.470703" xlink:href="#DejaVuSans-6c"/>
      <use x="715.253906" xlink:href="#DejaVuSans-73"/>
      <use x="767.353516" xlink:href="#DejaVuSans-20"/>
      <use x="799.140625" xlink:href="#DejaVuSans-2f"/>
      <use x="832.832031" xlink:href="#DejaVuSans-20"/>
      <use x="864.619141" xlink:href="#DejaVuSans-64"/>
      <use x="928.095703" xlink:href="#DejaVuSans-69"/>
      <use x="955.878906" xlink:href="#DejaVuSans-6d"/>
      <use x="1053.291016" xlink:href="#DejaVuSans-65"/>
      <use x="1114.814453" xlink:href="#DejaVuSans-6e"/>
      <use x="1178.193359" xlink:href="#DejaVuSans-73"/>
      <use x="1230.292969" xlink:href="#DejaVuSans-69"/>
      <use x="1258.076172" xlink:href="#DejaVuSans-6f"/>
      <use x="1319.257812" xlink:href="#DejaVuSans-6e"/>
      <use x="1382.636719" xlink:href="#DejaVuSans-29"/>
     </g>
    </g>
   </g>
   <g id="matplotlib.axis_2">
    <g id="ytick_1">
     <g id="line2d_29">
      <path clip-path="url(#pc14ab5b1ea)" d="M 56.12 294.88 
L 333.168 294.88 
" style="fill:none;stroke:#b0b0b0;stroke-linecap:square;stroke-width:0.8;"/>
     </g>
     <g id="line2d_30">
      <defs>
       <path d="M 0 0 
L -3.5 0 
" id="m452d6f6a90" style="stroke:#000000;stroke-width:0.8;"/>
      </defs>
      <g>
       <use style="stroke:#000000;stroke-width:0.8;" x="56.12" xlink:href="#m452d6f6a90" y="294.88"/>
      </g>
     </g>
     <g id="text_6">
      <!-- 0.0 -->
      <defs>
       <path d="M 10.6875 12.40625 
L 21 12.40625 
L 21 0 
L 10.6875 0 
z
" id="DejaVuSans-2e"/>
      </defs>
      <g transform="translate(23.675 300.95875)scale(0.16 -0.16)">
       <use xlink:href="#DejaVuSans-30"/>
       <use x="63.623047" xlink:href="#DejaVuSans-2e"/>
       <use x="95.410156" xlink:href="#DejaVuSans-30"/>
      </g>
     </g>
    </g>
    <g id="ytick_2">
     <g id="line2d_31">
      <path clip-path="url(#pc14ab5b1ea)" d="M 56.12 241.406733 
L 333.168 241.406733 
" style="fill:none;stroke:#b0b0b0;stroke-linecap:square;stroke-width:0.8;"/>
     </g>
     <g id="line2d_32">
      <g>
       <use style="stroke:#000000;stroke-width:0.8;" x="56.12" xlink:href="#m452d6f6a90" y="241.406733"/>
      </g>
     </g>
     <g id="text_7">
      <!-- 0.2 -->
      <g transform="translate(23.675 247.485483)scale(0.16 -0.16)">
       <use xlink:href="#DejaVuSans-30"/>
       <use x="63.623047" xlink:href="#DejaVuSans-2e"/>
       <use x="95.410156" xlink:href="#DejaVuSans-32"/>
      </g>
     </g>
    </g>
    <g id="ytick_3">
     <g id="line2d_33">
      <path clip-path="url(#pc14ab5b1ea)" d="M 56.12 187.933465 
L 333.168 187.933465 
" style="fill:none;stroke:#b0b0b0;stroke-linecap:square;stroke-width:0.8;"/>
     </g>
     <g id="line2d_34">
      <g>
       <use style="stroke:#000000;stroke-width:0.8;" x="56.12" xlink:href="#m452d6f6a90" y="187.933465"/>
      </g>
     </g>
     <g id="text_8">
      <!-- 0.4 -->
      <g transform="translate(23.675 194.012215)scale(0.16 -0.16)">
       <use xlink:href="#DejaVuSans-30"/>
       <use x="63.623047" xlink:href="#DejaVuSans-2e"/>
       <use x="95.410156" xlink:href="#DejaVuSans-34"/>
      </g>
     </g>
    </g>
    <g id="ytick_4">
     <g id="line2d_35">
      <path clip-path="url(#pc14ab5b1ea)" d="M 56.12 134.460198 
L 333.168 134.460198 
" style="fill:none;stroke:#b0b0b0;stroke-linecap:square;stroke-width:0.8;"/>
     </g>
     <g id="line2d_36">
      <g>
       <use style="stroke:#000000;stroke-width:0.8;" x="56.12" xlink:href="#m452d6f6a90" y="134.460198"/>
      </g>
     </g>
     <g id="text_9">
      <!-- 0.6 -->
      <g transform="translate(23.675 140.538948)scale(0.16 -0.16)">
       <use xlink:href="#DejaVuSans-30"/>
       <use x="63.623047" xlink:href="#DejaVuSans-2e"/>
       <use x="95.410156" xlink:href="#DejaVuSans-36"/>
      </g>
     </g>
    </g>
    <g id="ytick_5">
     <g id="line2d_37">
      <path clip-path="url(#pc14ab5b1ea)" d="M 56.12 80.986931 
L 333.168 80.986931 
" style="fill:none;stroke:#b0b0b0;stroke-linecap:square;stroke-width:0.8;"/>
     </g>
     <g id="line2d_38">
      <g>
       <use style="stroke:#000000;stroke-width:0.8;" x="56.12" xlink:href="#m452d6f6a90" y="80.986931"/>
      </g>
     </g>
     <g id="text_10">
      <!-- 0.8 -->
      <defs>
       <path d="M 31.78125 34.625 
Q 24.75 34.625 20.71875 30.859375 
Q 16.703125 27.09375 16.703125 20.515625 
Q 16.703125 13.921875 20.71875 10.15625 
Q 24.75 6.390625 31.78125 6.390625 
Q 38.8125 6.390625 42.859375 10.171875 
Q 46.921875 13.96875 46.921875 20.515625 
Q 46.921875 27.09375 42.890625 30.859375 
Q 38.875 34.625 31.78125 34.625 
z
M 21.921875 38.8125 
Q 15.578125 40.375 12.03125 44.71875 
Q 8.5 49.078125 8.5 55.328125 
Q 8.5 64.0625 14.71875 69.140625 
Q 20.953125 74.21875 31.78125 74.21875 
Q 42.671875 74.21875 48.875 69.140625 
Q 55.078125 64.0625 55.078125 55.328125 
Q 55.078125 49.078125 51.53125 44.71875 
Q 48 40.375 41.703125 38.8125 
Q 48.828125 37.15625 52.796875 32.3125 
Q 56.78125 27.484375 56.78125 20.515625 
Q 56.78125 9.90625 50.3125 4.234375 
Q 43.84375 -1.421875 31.78125 -1.421875 
Q 19.734375 -1.421875 13.25 4.234375 
Q 6.78125 9.90625 6.78125 20.515625 
Q 6.78125 27.484375 10.78125 32.3125 
Q 14.796875 37.15625 21.921875 38.8125 
z
M 18.3125 54.390625 
Q 18.3125 48.734375 21.84375 45.5625 
Q 25.390625 42.390625 31.78125 42.390625 
Q 38.140625 42.390625 41.71875 45.5625 
Q 45.3125 48.734375 45.3125 54.390625 
Q 45.3125 60.0625 41.71875 63.234375 
Q 38.140625 66.40625 31.78125 66.40625 
Q 25.390625 66.40625 21.84375 63.234375 
Q 18.3125 60.0625 18.3125 54.390625 
z
" id="DejaVuSans-38"/>
      </defs>
      <g transform="translate(23.675 87.065681)scale(0.16 -0.16)">
       <use xlink:href="#DejaVuSans-30"/>
       <use x="63.623047" xlink:href="#DejaVuSans-2e"/>
       <use x="95.410156" xlink:href="#DejaVuSans-38"/>
      </g>
     </g>
    </g>
    <g id="ytick_6">
     <g id="line2d_39">
      <path clip-path="url(#pc14ab5b1ea)" d="M 56.12 27.513663 
L 333.168 27.513663 
" style="fill:none;stroke:#b0b0b0;stroke-linecap:square;stroke-width:0.8;"/>
     </g>
     <g id="line2d_40">
      <g>
       <use style="stroke:#000000;stroke-width:0.8;" x="56.12" xlink:href="#m452d6f6a90" y="27.513663"/>
      </g>
     </g>
     <g id="text_11">
      <!-- 1.0 -->
      <g transform="translate(23.675 33.592413)scale(0.16 -0.16)">
       <use xlink:href="#DejaVuSans-31"/>
       <use x="63.623047" xlink:href="#DejaVuSans-2e"/>
       <use x="95.410156" xlink:href="#DejaVuSans-30"/>
      </g>
     </g>
    </g>
    <g id="text_12">
     <!-- Fraction of function,target pairs -->
     <defs>
      <path d="M 9.8125 72.90625 
L 51.703125 72.90625 
L 51.703125 64.59375 
L 19.671875 64.59375 
L 19.671875 43.109375 
L 48.578125 43.109375 
L 48.578125 34.8125 
L 19.671875 34.8125 
L 19.671875 0 
L 9.8125 0 
z
" id="DejaVuSans-46"/>
      <path d="M 41.109375 46.296875 
Q 39.59375 47.171875 37.8125 47.578125 
Q 36.03125 48 33.890625 48 
Q 26.265625 48 22.1875 43.046875 
Q 18.109375 38.09375 18.109375 28.8125 
L 18.109375 0 
L 9.078125 0 
L 9.078125 54.6875 
L 18.109375 54.6875 
L 18.109375 46.1875 
Q 20.953125 51.171875 25.484375 53.578125 
Q 30.03125 56 36.53125 56 
Q 37.453125 56 38.578125 55.875 
Q 39.703125 55.765625 41.0625 55.515625 
z
" id="DejaVuSans-72"/>
      <path d="M 48.78125 52.59375 
L 48.78125 44.1875 
Q 44.96875 46.296875 41.140625 47.34375 
Q 37.3125 48.390625 33.40625 48.390625 
Q 24.65625 48.390625 19.8125 42.84375 
Q 14.984375 37.3125 14.984375 27.296875 
Q 14.984375 17.28125 19.8125 11.734375 
Q 24.65625 6.203125 33.40625 6.203125 
Q 37.3125 6.203125 41.140625 7.25 
Q 44.96875 8.296875 48.78125 10.40625 
L 48.78125 2.09375 
Q 45.015625 0.34375 40.984375 -0.53125 
Q 36.96875 -1.421875 32.421875 -1.421875 
Q 20.0625 -1.421875 12.78125 6.34375 
Q 5.515625 14.109375 5.515625 27.296875 
Q 5.515625 40.671875 12.859375 48.328125 
Q 20.21875 56 33.015625 56 
Q 37.15625 56 41.109375 55.140625 
Q 45.0625 54.296875 48.78125 52.59375 
z
" id="DejaVuSans-63"/>
      <path d="M 18.3125 70.21875 
L 18.3125 54.6875 
L 36.8125 54.6875 
L 36.8125 47.703125 
L 18.3125 47.703125 
L 18.3125 18.015625 
Q 18.3125 11.328125 20.140625 9.421875 
Q 21.96875 7.515625 27.59375 7.515625 
L 36.8125 7.515625 
L 36.8125 0 
L 27.59375 0 
Q 17.1875 0 13.234375 3.875 
Q 9.28125 7.765625 9.28125 18.015625 
L 9.28125 47.703125 
L 2.6875 47.703125 
L 2.6875 54.6875 
L 9.28125 54.6875 
L 9.28125 70.21875 
z
" id="DejaVuSans-74"/>
      <path d="M 8.5 21.578125 
L 8.5 54.6875 
L 17.484375 54.6875 
L 17.484375 21.921875 
Q 17.484375 14.15625 20.5 10.265625 
Q 23.53125 6.390625 29.59375 6.390625 
Q 36.859375 6.390625 41.078125 11.03125 
Q 45.3125 15.671875 45.3125 23.6875 
L 45.3125 54.6875 
L 54.296875 54.6875 
L 54.296875 0 
L 45.3125 0 
L 45.3125 8.40625 
Q 42.046875 3.421875 37.71875 1 
Q 33.40625 -1.421875 27.6875 -1.421875 
Q 18.265625 -1.421875 13.375 4.4375 
Q 8.5 10.296875 8.5 21.578125 
z
M 31.109375 56 
z
" id="DejaVuSans-75"/>
      <path d="M 11.71875 12.40625 
L 22.015625 12.40625 
L 22.015625 4 
L 14.015625 -11.625 
L 7.71875 -11.625 
L 11.71875 4 
z
" id="DejaVuSans-2c"/>
      <path d="M 18.109375 8.203125 
L 18.109375 -20.796875 
L 9.078125 -20.796875 
L 9.078125 54.6875 
L 18.109375 54.6875 
L 18.109375 46.390625 
Q 20.953125 51.265625 25.265625 53.625 
Q 29.59375 56 35.59375 56 
Q 45.5625 56 51.78125 48.09375 
Q 58.015625 40.1875 58.015625 27.296875 
Q 58.015625 14.40625 51.78125 6.484375 
Q 45.5625 -1.421875 35.59375 -1.421875 
Q 29.59375 -1.421875 25.265625 0.953125 
Q 20.953125 3.328125 18.109375 8.203125 
z
M 48.6875 27.296875 
Q 48.6875 37.203125 44.609375 42.84375 
Q 40.53125 48.484375 33.40625 48.484375 
Q 26.265625 48.484375 22.1875 42.84375 
Q 18.109375 37.203125 18.109375 27.296875 
Q 18.109375 17.390625 22.1875 11.75 
Q 26.265625 6.109375 33.40625 6.109375 
Q 40.53125 6.109375 44.609375 11.75 
Q 48.6875 17.390625 48.6875 27.296875 
z
" id="DejaVuSans-70"/>
     </defs>
     <g transform="translate(16.139531 294.999375)rotate(-90)scale(0.17 -0.17)">
      <use xlink:href="#DejaVuSans-46"/>
      <use x="57.410156" xlink:href="#DejaVuSans-72"/>
      <use x="98.523438" xlink:href="#DejaVuSans-61"/>
      <use x="159.802734" xlink:href="#DejaVuSans-63"/>
      <use x="214.783203" xlink:href="#DejaVuSans-74"/>
      <use x="253.992188" xlink:href="#DejaVuSans-69"/>
      <use x="281.775391" xlink:href="#DejaVuSans-6f"/>
      <use x="342.957031" xlink:href="#DejaVuSans-6e"/>
      <use x="406.335938" xlink:href="#DejaVuSans-20"/>
      <use x="438.123047" xlink:href="#DejaVuSans-6f"/>
      <use x="499.304688" xlink:href="#DejaVuSans-66"/>
      <use x="534.509766" xlink:href="#DejaVuSans-20"/>
      <use x="566.296875" xlink:href="#DejaVuSans-66"/>
      <use x="601.501953" xlink:href="#DejaVuSans-75"/>
      <use x="664.880859" xlink:href="#DejaVuSans-6e"/>
      <use x="728.259766" xlink:href="#DejaVuSans-63"/>
      <use x="783.240234" xlink:href="#DejaVuSans-74"/>
      <use x="822.449219" xlink:href="#DejaVuSans-69"/>
      <use x="850.232422" xlink:href="#DejaVuSans-6f"/>
      <use x="911.414062" xlink:href="#DejaVuSans-6e"/>
      <use x="974.792969" xlink:href="#DejaVuSans-2c"/>
      <use x="1006.580078" xlink:href="#DejaVuSans-74"/>
      <use x="1045.789062" xlink:href="#DejaVuSans-61"/>
      <use x="1107.068359" xlink:href="#DejaVuSans-72"/>
      <use x="1148.166016" xlink:href="#DejaVuSans-67"/>
      <use x="1211.642578" xlink:href="#DejaVuSans-65"/>
      <use x="1273.166016" xlink:href="#DejaVuSans-74"/>
      <use x="1312.375" xlink:href="#DejaVuSans-20"/>
      <use x="1344.162109" xlink:href="#DejaVuSans-70"/>
      <use x="1407.638672" xlink:href="#DejaVuSans-61"/>
      <use x="1468.917969" xlink:href="#DejaVuSans-69"/>
      <use x="1496.701172" xlink:href="#DejaVuSans-72"/>
      <use x="1537.814453" xlink:href="#DejaVuSans-73"/>
     </g>
    </g>
   </g>
   <g id="line2d_41">
    <defs>
     <path d="M 0 1.5 
C 0.397805 1.5 0.77937 1.341951 1.06066 1.06066 
C 1.341951 0.77937 1.5 0.397805 1.5 0 
C 1.5 -0.397805 1.341951 -0.77937 1.06066 -1.06066 
C 0.77937 -1.341951 0.397805 -1.5 0 -1.5 
C -0.397805 -1.5 -0.77937 -1.341951 -1.06066 -1.06066 
C -1.341951 -0.77937 -1.5 -0.397805 -1.5 0 
C -1.5 0.397805 -1.341951 0.77937 -1.06066 1.06066 
C -0.77937 1.341951 -0.397805 1.5 0 1.5 
z
" id="mc690d4bc06" style="stroke:#f5deb3;"/>
    </defs>
    <g>
     <use style="fill:#f5deb3;stroke:#f5deb3;" x="107.26528" xlink:href="#mc690d4bc06" y="27.513663"/>
     <use style="fill:#f5deb3;stroke:#f5deb3;" x="107.26528" xlink:href="#mc690d4bc06" y="27.513663"/>
    </g>
   </g>
   <g id="line2d_42">
    <defs>
     <path d="M 0 1.5 
C 0.397805 1.5 0.77937 1.341951 1.06066 1.06066 
C 1.341951 0.77937 1.5 0.397805 1.5 0 
C 1.5 -0.397805 1.341951 -0.77937 1.06066 -1.06066 
C 0.77937 -1.341951 0.397805 -1.5 0 -1.5 
C -0.397805 -1.5 -0.77937 -1.341951 -1.06066 -1.06066 
C -1.341951 -0.77937 -1.5 -0.397805 -1.5 0 
C -1.5 0.397805 -1.341951 0.77937 -1.06066 1.06066 
C -0.77937 1.341951 -0.397805 1.5 0 1.5 
z
" id="mc10878b69e" style="stroke:#000080;"/>
    </defs>
    <g>
     <use style="fill:#000080;stroke:#000080;" x="238.613228" xlink:href="#mc10878b69e" y="27.513663"/>
     <use style="fill:#000080;stroke:#000080;" x="238.613228" xlink:href="#mc10878b69e" y="27.513663"/>
    </g>
   </g>
   <g id="line2d_43">
    <path d="M 152.782956 294.88 
L 152.782956 293.831505 
L 154.506209 293.831505 
L 154.506209 293.307257 
L 155.05333 293.307257 
L 155.05333 292.783009 
L 155.210354 292.783009 
L 155.210354 292.258761 
L 155.392643 292.258761 
L 155.483068 291.210266 
L 155.730618 291.210266 
L 155.730618 290.686018 
L 155.9075 290.686018 
L 155.974653 289.637523 
L 156.235596 289.637523 
L 156.235596 289.113275 
L 156.612279 289.113275 
L 156.612279 288.589027 
L 156.839293 288.589027 
L 156.839293 288.06478 
L 157.931454 288.06478 
L 157.931454 287.540532 
L 158.055229 287.540532 
L 158.055229 287.016284 
L 158.200781 287.016284 
L 158.200781 286.492036 
L 158.45703 286.492036 
L 158.537164 284.919293 
L 158.757817 284.919293 
L 158.823464 283.870798 
L 158.941001 283.870798 
L 158.98433 282.298055 
L 159.229242 282.298055 
L 159.28036 281.249559 
L 159.449666 281.249559 
L 159.449666 280.725312 
L 159.613149 280.725312 
L 159.688082 279.152568 
L 160.078236 279.152568 
L 160.183489 277.055578 
L 160.239898 277.055578 
L 160.328169 276.007082 
L 160.594233 276.007082 
L 160.65324 274.958587 
L 160.743325 274.958587 
L 160.743325 274.434339 
L 160.949133 274.434339 
L 160.949133 273.910091 
L 161.186803 273.910091 
L 161.205828 272.861596 
L 161.383636 272.861596 
L 161.383636 272.337348 
L 161.622838 272.337348 
L 161.65621 271.288853 
L 161.759623 271.288853 
L 161.759623 270.764605 
L 161.960962 270.764605 
L 161.960962 270.240357 
L 162.159969 270.240357 
L 162.159969 269.716109 
L 162.353142 269.716109 
L 162.413509 268.143366 
L 162.498374 268.143366 
L 162.533611 267.094871 
L 162.663364 267.094871 
L 162.74353 266.046375 
L 162.968086 266.046375 
L 162.968086 265.522128 
L 163.084387 265.522128 
L 163.084387 264.99788 
L 163.240495 264.99788 
L 163.240495 264.473632 
L 163.468695 264.473632 
L 163.521952 263.425137 
L 163.614756 263.425137 
L 163.71035 262.376641 
L 163.877183 262.376641 
L 163.877183 261.852394 
L 164.006909 261.852394 
L 164.077844 260.803898 
L 164.212456 260.803898 
L 164.263461 259.231155 
L 164.516239 259.231155 
L 164.606961 257.658412 
L 164.675467 257.658412 
L 164.768446 255.037173 
L 164.888571 255.037173 
L 164.943731 253.46443 
L 165.077828 253.46443 
L 165.132385 251.891687 
L 165.250003 251.891687 
L 165.330961 249.794696 
L 165.36682 249.794696 
L 165.387704 248.221953 
L 165.491743 248.221953 
L 165.583368 247.173458 
L 165.609878 247.173458 
L 165.609878 246.64921 
L 165.768084 246.64921 
L 165.852449 245.600714 
L 165.968139 245.600714 
L 166.074464 243.503724 
L 166.268173 243.503724 
L 166.268173 242.979476 
L 166.465325 242.979476 
L 166.465325 242.455228 
L 166.576976 242.455228 
L 166.646391 240.882485 
L 166.721046 240.882485 
L 166.770637 239.309742 
L 166.891259 239.309742 
L 166.891259 238.785494 
L 167.081431 238.785494 
L 167.10573 237.212751 
L 167.25348 237.212751 
L 167.304227 235.11576 
L 167.402623 235.11576 
L 167.489909 233.543017 
L 167.58725 233.543017 
L 167.691868 232.494521 
L 167.743939 232.494521 
L 167.816575 230.921778 
L 167.91981 230.921778 
L 167.927528 229.873283 
L 168.042879 229.873283 
L 168.124439 227.776292 
L 168.225847 227.776292 
L 168.32666 225.155053 
L 168.354281 225.155053 
L 168.434379 222.533815 
L 168.504161 222.533815 
L 168.543909 220.961072 
L 168.625601 220.961072 
L 168.625601 220.436824 
L 168.822044 220.436824 
L 168.919431 217.291338 
L 168.948539 217.291338 
L 169.052442 214.670099 
L 169.112563 214.670099 
L 169.208322 211.000365 
L 169.30355 211.000365 
L 169.398253 208.379126 
L 169.426563 208.379126 
L 169.504175 205.23364 
L 169.572091 205.23364 
L 169.679273 202.088154 
L 169.693204 202.088154 
L 169.771934 198.942667 
L 169.829595 198.942667 
L 169.898533 194.748686 
L 169.955771 194.748686 
L 170.058322 187.409218 
L 170.07422 187.409218 
L 170.158006 183.215236 
L 170.227893 183.215236 
L 170.33331 175.35152 
L 170.406943 175.35152 
L 170.504631 170.633291 
L 170.566508 170.633291 
L 170.672068 161.196832 
L 170.759542 161.196832 
L 170.846573 155.430107 
L 170.911559 155.430107 
L 171.019325 149.663382 
L 171.045089 149.663382 
L 171.109329 144.420905 
L 171.190358 144.420905 
L 171.27524 139.178427 
L 171.359705 139.178427 
L 171.443757 129.741969 
L 171.5274 129.741969 
L 171.610638 123.450996 
L 171.693475 123.450996 
L 171.775915 118.732766 
L 171.857961 118.732766 
L 171.939617 111.393298 
L 172.020888 111.393298 
L 172.101776 106.150821 
L 172.182285 106.150821 
L 172.262418 99.335601 
L 172.34218 99.335601 
L 172.421573 93.568876 
L 172.500602 93.568876 
L 172.600839 87.277903 
L 172.657576 87.277903 
L 172.73553 83.608169 
L 172.813131 83.608169 
L 172.894237 79.938435 
L 172.940412 79.938435 
L 173.043854 75.744454 
L 173.076291 75.744454 
L 173.076291 75.220206 
L 173.195967 75.220206 
L 173.271521 74.17171 
L 175.262512 74.17171 
L 175.262512 73.123215 
L 177.582894 73.123215 
L 177.582894 72.598967 
L 184.335824 72.598967 
L 184.335824 72.074719 
L 190.958497 72.074719 
L 190.958497 71.550472 
L 191.256961 71.550472 
L 191.256961 71.026224 
L 191.384243 71.026224 
L 191.384243 70.501976 
L 192.280354 70.501976 
L 192.386054 68.929233 
L 192.41083 68.929233 
L 192.503425 66.832242 
L 192.531721 66.832242 
L 192.552605 65.259499 
L 192.650547 65.259499 
L 192.747933 64.211004 
L 192.868895 64.211004 
L 192.917042 62.638261 
L 193.036824 62.638261 
L 193.132052 60.54127 
L 193.162296 60.54127 
L 193.162296 60.017022 
L 193.273913 60.017022 
L 193.273913 59.492774 
L 194.826328 59.492774 
L 194.826328 58.968526 
L 215.387941 58.968526 
L 215.434706 56.871536 
L 215.570381 56.871536 
L 215.673678 51.104811 
L 215.69062 51.104811 
L 215.800503 40.619856 
L 215.806852 40.619856 
L 215.88917 35.901627 
L 215.933332 35.901627 
L 215.933332 35.377379 
L 218.503849 35.377379 
L 218.503849 34.853131 
L 218.701825 34.853131 
L 218.788762 32.756141 
L 226.842114 32.756141 
L 226.947341 31.183397 
L 227.017577 31.183397 
L 227.09082 29.086407 
L 228.59959 29.086407 
L 228.59959 28.562159 
L 238.5143 28.562159 
L 238.613228 27.513663 
L 333.168 27.513663 
L 333.168 27.513663 
" style="fill:none;stroke:#000080;stroke-linecap:square;stroke-width:1.5;"/>
   </g>
   <g id="line2d_44">
    <defs>
     <path d="M 0 6 
C 1.591219 6 3.117479 5.367802 4.242641 4.242641 
C 5.367802 3.117479 6 1.591219 6 0 
C 6 -1.591219 5.367802 -3.117479 4.242641 -4.242641 
C 3.117479 -5.367802 1.591219 -6 0 -6 
C -1.591219 -6 -3.117479 -5.367802 -4.242641 -4.242641 
C -5.367802 -3.117479 -6 -1.591219 -6 0 
C -6 1.591219 -5.367802 3.117479 -4.242641 4.242641 
C -3.117479 5.367802 -1.591219 6 0 6 
z
" id="m0c97bfb585" style="stroke:#000080;stroke-width:1.5;"/>
    </defs>
    <g>
     <use style="fill:none;stroke:#000080;stroke-width:1.5;" x="184.335824" xlink:href="#m0c97bfb585" y="72.074719"/>
     <use style="fill:none;stroke:#000080;stroke-width:1.5;" x="238.613228" xlink:href="#m0c97bfb585" y="27.513663"/>
     <use style="fill:none;stroke:#000080;stroke-width:1.5;" x="238.613228" xlink:href="#m0c97bfb585" y="27.513663"/>
     <use style="fill:none;stroke:#000080;stroke-width:1.5;" x="333.168" xlink:href="#m0c97bfb585" y="27.513663"/>
    </g>
   </g>
   <g id="line2d_45">
    <path style="fill:none;stroke:#000080;stroke-linecap:square;stroke-width:1.5;"/>
    <g/>
   </g>
   <g id="line2d_46">
    <path clip-path="url(#pc14ab5b1ea)" d="M 214.433143 58.968526 
" style="fill:none;stroke:#000080;stroke-linecap:square;stroke-width:1.5;"/>
    <defs>
     <path d="M -12 12 
L 12 -12 
M -12 -12 
L 12 12 
" id="mb932fed7cf" style="stroke:#000080;"/>
    </defs>
    <g clip-path="url(#pc14ab5b1ea)">
     <use style="fill:#000080;stroke:#000080;" x="214.433143" xlink:href="#mb932fed7cf" y="58.968526"/>
    </g>
   </g>
   <g id="line2d_47">
    <defs>
     <path d="M 0 1.5 
C 0.397805 1.5 0.77937 1.341951 1.06066 1.06066 
C 1.341951 0.77937 1.5 0.397805 1.5 0 
C 1.5 -0.397805 1.341951 -0.77937 1.06066 -1.06066 
C 0.77937 -1.341951 0.397805 -1.5 0 -1.5 
C -0.397805 -1.5 -0.77937 -1.341951 -1.06066 -1.06066 
C -1.341951 -0.77937 -1.5 -0.397805 -1.5 0 
C -1.5 0.397805 -1.341951 0.77937 -1.06066 1.06066 
C -0.77937 1.341951 -0.397805 1.5 0 1.5 
z
" id="m24b2e0ddf6" style="stroke:#ff00ff;"/>
    </defs>
    <g>
     <use style="fill:#ff00ff;stroke:#ff00ff;" x="173.135283" xlink:href="#m24b2e0ddf6" y="27.513663"/>
     <use style="fill:#ff00ff;stroke:#ff00ff;" x="173.135283" xlink:href="#m24b2e0ddf6" y="27.513663"/>
    </g>
   </g>
   <g id="line2d_48">
    <path d="M 151.305962 294.88 
L 151.305962 294.355752 
L 151.507709 294.355752 
L 151.507709 293.831505 
L 152.124937 293.831505 
L 152.176458 292.783009 
L 152.253451 292.783009 
L 152.342842 291.734514 
L 152.495011 291.734514 
L 152.495011 291.210266 
L 153.060049 291.210266 
L 153.060049 290.686018 
L 153.242327 290.686018 
L 153.242327 290.161771 
L 153.482395 290.161771 
L 153.512169 289.113275 
L 154.004815 289.113275 
L 154.004815 288.589027 
L 154.734911 288.589027 
L 154.734911 288.06478 
L 154.922285 288.06478 
L 154.922285 287.540532 
L 155.091364 287.540532 
L 155.113059 285.967789 
L 155.323172 285.967789 
L 155.328526 284.919293 
L 155.525456 284.919293 
L 155.525456 284.395046 
L 156.154157 284.395046 
L 156.225437 282.822302 
L 156.341902 282.822302 
L 156.341902 282.298055 
L 156.627176 282.298055 
L 156.627176 281.773807 
L 156.844195 281.773807 
L 156.951685 280.201064 
L 156.966291 280.201064 
L 156.980885 279.152568 
L 157.436716 279.152568 
L 157.446184 278.104073 
L 157.65784 278.104073 
L 157.760375 276.53133 
L 157.88077 276.53133 
L 157.986575 275.482834 
L 158.241496 275.482834 
L 158.309141 273.385844 
L 158.479327 273.385844 
L 158.519389 272.337348 
L 158.683112 272.337348 
L 158.683112 271.8131 
L 158.80161 271.8131 
L 158.80161 271.288853 
L 159.014596 271.288853 
L 159.040495 270.240357 
L 159.156562 270.240357 
L 159.156562 269.716109 
L 159.579741 269.716109 
L 159.579741 268.667614 
L 159.72957 268.667614 
L 159.766824 267.619119 
L 160.159257 267.619119 
L 160.159257 267.094871 
L 160.292113 267.094871 
L 160.292113 266.570623 
L 160.423949 266.570623 
L 160.523157 264.99788 
L 160.554783 264.99788 
L 160.645384 263.425137 
L 160.991541 263.425137 
L 160.991541 262.900889 
L 161.152506 262.900889 
L 161.205828 260.803898 
L 161.323312 260.803898 
L 161.334639 259.231155 
L 161.503653 259.231155 
L 161.503653 258.706907 
L 161.65621 258.706907 
L 161.755941 255.561421 
L 161.829444 255.561421 
L 161.866078 253.988678 
L 161.979149 253.988678 
L 162.000948 252.940182 
L 162.123957 252.940182 
L 162.152773 251.891687 
L 162.260404 251.891687 
L 162.28185 249.794696 
L 162.547686 249.794696 
L 162.586332 248.221953 
L 162.666857 248.221953 
L 162.736574 246.124962 
L 162.916525 246.124962 
L 162.978379 243.503724 
L 163.142244 243.503724 
L 163.226976 240.882485 
L 163.270872 240.882485 
L 163.287725 239.83399 
L 163.442005 239.83399 
L 163.548519 237.736999 
L 163.627973 237.736999 
L 163.654377 235.640008 
L 163.825017 235.640008 
L 163.922699 234.067265 
L 163.987513 234.067265 
L 164.064968 232.494521 
L 164.13887 232.494521 
L 164.237977 229.349035 
L 164.282549 229.349035 
L 164.393474 225.679301 
L 164.406106 225.679301 
L 164.440795 224.630806 
L 164.575732 224.630806 
L 164.681681 222.533815 
L 164.740605 222.533815 
L 164.805497 220.436824 
L 164.894709 220.436824 
L 164.894709 219.912576 
L 165.086933 219.912576 
L 165.171681 218.339833 
L 165.265024 218.339833 
L 165.360849 214.670099 
L 165.393666 214.670099 
L 165.479884 211.000365 
L 165.515435 211.000365 
L 165.618706 208.903374 
L 165.642223 208.903374 
L 165.735975 206.806383 
L 165.759333 206.806383 
L 165.866953 204.185145 
L 165.878547 204.185145 
L 165.965256 202.612401 
L 166.002695 202.612401 
L 166.103088 199.991163 
L 166.120239 199.991163 
L 166.22847 196.321429 
L 166.239823 196.321429 
L 166.338844 192.127447 
L 166.386735 192.127447 
L 166.386735 190.554704 
L 166.532402 190.554704 
L 166.629757 187.933465 
L 166.657472 187.933465 
L 166.759629 185.836474 
L 166.811853 185.836474 
L 166.910372 183.739484 
L 166.948532 183.739484 
L 167.046272 175.35152 
L 167.089534 175.35152 
L 167.186478 171.681786 
L 167.202583 171.681786 
L 167.312226 168.5363 
L 167.357484 168.5363 
L 167.444999 165.390813 
L 167.511002 165.390813 
L 167.621321 161.196832 
L 167.673606 161.196832 
L 167.772511 158.575593 
L 167.785483 158.575593 
L 167.881169 155.430107 
L 167.917237 155.430107 
L 167.996832 152.28462 
L 168.035213 152.28462 
L 168.121896 148.614886 
L 168.147308 148.614886 
L 168.218262 145.993648 
L 168.298996 145.993648 
L 168.331686 143.896657 
L 168.429384 143.896657 
L 168.536463 140.751171 
L 168.558791 140.751171 
L 168.655211 137.081437 
L 168.682309 137.081437 
L 168.782935 132.363207 
L 168.800056 132.363207 
L 168.895136 127.644978 
L 168.926712 127.644978 
L 168.984856 125.547987 
L 169.071704 125.547987 
L 169.182041 119.781262 
L 169.186823 119.781262 
L 169.260763 114.538785 
L 169.313044 114.538785 
L 169.41949 109.820555 
L 169.426563 109.820555 
L 169.527625 106.150821 
L 169.539337 106.150821 
L 169.625765 99.859849 
L 169.702485 99.859849 
L 169.806554 97.762858 
L 169.822686 97.762858 
L 169.93061 88.326399 
L 169.948913 88.326399 
L 170.024207 83.608169 
L 170.081029 83.608169 
L 170.144447 80.986931 
L 170.200874 80.986931 
L 170.304217 78.88994 
L 170.319889 78.88994 
L 170.424745 75.744454 
L 170.43364 75.744454 
L 170.522333 71.026224 
L 170.548852 71.026224 
L 170.63915 66.832242 
L 170.661102 66.832242 
L 170.744266 63.686756 
L 170.822684 63.686756 
L 170.881263 60.54127 
L 170.969836 60.54127 
L 171.07938 56.871536 
L 171.092222 56.871536 
L 171.186102 54.250297 
L 171.211617 54.250297 
L 171.300623 50.580563 
L 171.325969 50.580563 
L 171.422783 46.386581 
L 171.45633 46.386581 
L 171.554497 44.28959 
L 171.575311 44.28959 
L 171.674872 40.619856 
L 171.695541 40.619856 
L 171.786192 38.522865 
L 171.868189 38.522865 
L 171.953868 36.425875 
L 171.998577 36.425875 
L 172.057334 34.853131 
L 172.127982 34.853131 
L 172.238417 32.231893 
L 172.33422 32.231893 
L 172.443342 31.183397 
L 172.514394 31.183397 
L 172.620425 29.610654 
L 172.677098 29.610654 
L 172.747192 28.037911 
L 173.135283 28.037911 
L 173.135283 27.513663 
L 333.168 27.513663 
L 333.168 27.513663 
" style="fill:none;stroke:#ff00ff;stroke-linecap:square;stroke-width:1.5;"/>
   </g>
   <g id="line2d_49">
    <defs>
     <path d="M -0 8.485281 
L 5.091169 0 
L 0 -8.485281 
L -5.091169 -0 
z
" id="mf0d97ad5a5" style="stroke:#ff00ff;stroke-linejoin:miter;stroke-width:1.5;"/>
    </defs>
    <g>
     <use style="fill:none;stroke:#ff00ff;stroke-linejoin:miter;stroke-width:1.5;" x="169.625765" xlink:href="#mf0d97ad5a5" y="100.908344"/>
     <use style="fill:none;stroke:#ff00ff;stroke-linejoin:miter;stroke-width:1.5;" x="173.135283" xlink:href="#mf0d97ad5a5" y="27.513663"/>
     <use style="fill:none;stroke:#ff00ff;stroke-linejoin:miter;stroke-width:1.5;" x="173.135283" xlink:href="#mf0d97ad5a5" y="27.513663"/>
     <use style="fill:none;stroke:#ff00ff;stroke-linejoin:miter;stroke-width:1.5;" x="333.168" xlink:href="#mf0d97ad5a5" y="27.513663"/>
    </g>
   </g>
   <g id="line2d_50">
    <path style="fill:none;stroke:#ff00ff;stroke-linecap:square;stroke-width:1.5;"/>
    <g/>
   </g>
   <g id="line2d_51">
    <defs>
     <path d="M 0 1.5 
C 0.397805 1.5 0.77937 1.341951 1.06066 1.06066 
C 1.341951 0.77937 1.5 0.397805 1.5 0 
C 1.5 -0.397805 1.341951 -0.77937 1.06066 -1.06066 
C 0.77937 -1.341951 0.397805 -1.5 0 -1.5 
C -0.397805 -1.5 -0.77937 -1.341951 -1.06066 -1.06066 
C -1.341951 -0.77937 -1.5 -0.397805 -1.5 0 
C -1.5 0.397805 -1.341951 0.77937 -1.06066 1.06066 
C -0.77937 1.341951 -0.397805 1.5 0 1.5 
z
" id="m1fe49a0703" style="stroke:#ff7500;"/>
    </defs>
    <g>
     <use style="fill:#ff7500;stroke:#ff7500;" x="215.186936" xlink:href="#m1fe49a0703" y="27.513663"/>
     <use style="fill:#ff7500;stroke:#ff7500;" x="215.186936" xlink:href="#m1fe49a0703" y="27.513663"/>
    </g>
   </g>
   <g id="line2d_52">
    <path d="M 155.488372 294.88 
L 155.498976 293.831505 
L 156.331806 293.831505 
L 156.331806 293.307257 
L 157.825308 293.307257 
L 157.825308 292.783009 
L 158.45703 292.783009 
L 158.45703 292.258761 
L 158.854014 292.258761 
L 158.862733 291.210266 
L 159.11796 291.210266 
L 159.11796 290.686018 
L 159.783356 290.686018 
L 159.820493 289.637523 
L 160.47164 289.637523 
L 160.47164 289.113275 
L 161.361039 289.113275 
L 161.361039 288.589027 
L 161.659915 288.589027 
L 161.726451 287.540532 
L 161.807426 287.540532 
L 161.807426 287.016284 
L 162.051706 287.016284 
L 162.051706 286.492036 
L 162.367365 286.492036 
L 162.392228 285.443541 
L 162.708721 285.443541 
L 162.708721 284.919293 
L 163.220213 284.919293 
L 163.24725 283.870798 
L 163.418617 283.870798 
L 163.418617 283.34655 
L 164.0166 283.34655 
L 164.0166 282.822302 
L 165.013958 282.822302 
L 165.013958 282.298055 
L 165.183753 282.298055 
L 165.183753 281.773807 
L 165.423445 281.773807 
L 165.423445 281.249559 
L 165.621647 281.249559 
L 165.689163 280.201064 
L 166.640848 280.201064 
L 166.751369 278.628321 
L 166.861183 278.628321 
L 166.9703 277.579825 
L 167.124605 277.579825 
L 167.191848 276.007082 
L 167.309561 276.007082 
L 167.309561 275.482834 
L 167.610845 275.482834 
L 167.717923 274.434339 
L 167.834686 274.434339 
L 167.834686 273.910091 
L 168.065857 273.910091 
L 168.129524 272.861596 
L 168.429384 272.861596 
L 168.489231 270.764605 
L 168.650279 270.764605 
L 168.650279 270.240357 
L 168.846443 270.240357 
L 168.926712 268.667614 
L 169.018682 268.667614 
L 169.018682 267.094871 
L 169.256002 267.094871 
L 169.256002 266.570623 
L 169.506521 266.570623 
L 169.604782 264.99788 
L 169.68624 264.99788 
L 169.68624 264.473632 
L 169.868694 264.473632 
L 169.958057 262.900889 
L 170.049232 262.900889 
L 170.049232 262.376641 
L 170.225643 262.376641 
L 170.230142 261.328146 
L 170.360122 261.328146 
L 170.411395 259.231155 
L 170.61057 259.231155 
L 170.67426 257.658412 
L 170.766085 257.658412 
L 170.774805 256.085669 
L 170.937484 256.085669 
L 171.021473 255.037173 
L 171.107192 255.037173 
L 171.122149 253.988678 
L 171.27524 253.988678 
L 171.30485 251.891687 
L 171.529486 251.891687 
L 171.612714 250.318944 
L 171.703802 250.318944 
L 171.788247 248.746201 
L 171.862053 248.746201 
L 171.862053 248.221953 
L 172.022915 248.221953 
L 172.123953 247.173458 
L 172.346158 247.173458 
L 172.451251 246.124962 
L 172.524239 246.124962 
L 172.58123 245.076467 
L 172.661483 245.076467 
L 172.723859 244.027971 
L 172.778254 244.027971 
L 172.83441 242.979476 
L 172.89231 242.979476 
L 172.946175 241.93098 
L 173.026657 241.93098 
L 173.026657 241.406733 
L 173.245115 241.406733 
L 173.35425 239.83399 
L 173.572314 239.83399 
L 173.649923 237.736999 
L 173.723513 237.736999 
L 173.754693 236.688503 
L 173.917015 236.688503 
L 174.018369 235.640008 
L 174.154973 235.640008 
L 174.226436 234.591512 
L 174.297604 234.591512 
L 174.368477 232.494521 
L 174.43906 232.494521 
L 174.511108 231.446026 
L 174.579362 231.446026 
L 174.654304 229.873283 
L 174.716795 229.873283 
L 174.810109 227.252044 
L 174.835939 227.252044 
L 174.926898 225.155053 
L 174.993524 225.155053 
L 175.078566 223.058063 
L 175.131082 223.058063 
L 175.203661 221.485319 
L 175.262512 221.485319 
L 175.291024 219.388328 
L 175.397942 219.388328 
L 175.47438 216.76709 
L 175.53066 216.76709 
L 175.636102 214.145851 
L 175.72947 214.145851 
L 175.802825 212.04886 
L 175.895294 212.04886 
L 176.004961 211.000365 
L 176.054725 211.000365 
L 176.160196 209.427622 
L 176.179304 209.427622 
L 176.290342 205.757888 
L 176.307725 205.757888 
L 176.386522 202.612401 
L 176.432059 202.612401 
L 176.532129 199.991163 
L 176.558613 199.991163 
L 176.56017 198.942667 
L 176.681151 198.942667 
L 176.759797 195.272933 
L 176.804357 195.272933 
L 176.86563 193.175943 
L 176.926685 193.175943 
L 176.989043 191.603199 
L 177.067807 191.603199 
L 177.171766 188.981961 
L 177.183779 188.981961 
L 177.291517 185.836474 
L 177.318346 185.836474 
L 177.376333 181.118245 
L 177.46664 181.118245 
L 177.531486 178.497006 
L 177.58436 178.497006 
L 177.64292 174.303025 
L 177.70128 174.303025 
L 177.763798 171.681786 
L 177.81741 171.681786 
L 177.919823 164.866566 
L 177.929887 164.866566 
L 178.00017 158.575593 
L 178.045915 158.575593 
L 178.152655 151.760373 
L 178.164002 151.760373 
L 178.27424 144.420905 
L 178.279874 144.420905 
L 178.390774 140.226923 
L 178.442469 140.226923 
L 178.534297 131.838959 
L 178.555099 131.838959 
L 178.6546 125.547987 
L 178.668374 125.547987 
L 178.720615 122.926748 
L 178.782274 122.926748 
L 178.889989 117.160023 
L 178.898142 117.160023 
L 179.003786 110.344803 
L 179.024027 110.344803 
L 179.107441 106.150821 
L 179.154352 106.150821 
L 179.261097 100.384096 
L 179.274394 100.384096 
L 179.367184 95.141619 
L 179.417347 95.141619 
L 179.48838 87.277903 
L 179.576107 87.277903 
L 179.686762 78.88994 
L 179.689357 78.88994 
L 179.783811 74.695958 
L 179.803156 74.695958 
L 179.89186 70.501976 
L 179.921326 70.501976 
L 180.010698 66.307995 
L 180.053939 66.307995 
L 180.143889 64.211004 
L 180.191839 64.211004 
L 180.242168 61.589765 
L 180.342386 61.589765 
L 180.442024 58.444279 
L 180.492865 58.444279 
L 180.590405 54.250297 
L 180.607633 54.250297 
L 180.64081 52.677554 
L 180.738737 52.677554 
L 180.849455 49.00782 
L 180.88701 49.00782 
L 180.94741 47.959324 
L 181.171443 47.959324 
L 181.235598 45.338086 
L 181.285331 45.338086 
L 181.313685 44.28959 
L 181.411385 44.28959 
L 181.411385 43.765343 
L 213.289127 43.765343 
L 213.375623 42.716847 
L 213.945172 42.716847 
L 213.945172 42.192599 
L 214.057976 42.192599 
L 214.093251 41.144104 
L 214.190976 41.144104 
L 214.205787 40.095609 
L 214.302184 40.095609 
L 214.316034 39.047113 
L 214.48823 39.047113 
L 214.590896 37.998618 
L 214.6982 37.998618 
L 214.787167 34.328884 
L 214.818794 34.328884 
L 214.915332 30.65915 
L 214.968232 30.65915 
L 215.008007 29.610654 
L 215.094562 29.610654 
L 215.186936 27.513663 
L 333.168 27.513663 
L 333.168 27.513663 
" style="fill:none;stroke:#ff7500;stroke-linecap:square;stroke-width:1.5;"/>
   </g>
   <g id="line2d_53">
    <defs>
     <path d="M 0 -6 
L -1.347084 -1.854102 
L -5.706339 -1.854102 
L -2.179628 0.708204 
L -3.526712 4.854102 
L -0 2.291796 
L 3.526712 4.854102 
L 2.179628 0.708204 
L 5.706339 -1.854102 
L 1.347084 -1.854102 
z
" id="mae3abd79b2" style="stroke:#ff7500;stroke-linejoin:bevel;stroke-width:1.5;"/>
    </defs>
    <g>
     <use style="fill:none;stroke:#ff7500;stroke-linejoin:bevel;stroke-width:1.5;" x="178.839624" xlink:href="#mae3abd79b2" y="120.829757"/>
     <use style="fill:none;stroke:#ff7500;stroke-linejoin:bevel;stroke-width:1.5;" x="215.186936" xlink:href="#mae3abd79b2" y="28.037911"/>
     <use style="fill:none;stroke:#ff7500;stroke-linejoin:bevel;stroke-width:1.5;" x="215.186936" xlink:href="#mae3abd79b2" y="27.513663"/>
     <use style="fill:none;stroke:#ff7500;stroke-linejoin:bevel;stroke-width:1.5;" x="333.168" xlink:href="#mae3abd79b2" y="27.513663"/>
    </g>
   </g>
   <g id="line2d_54">
    <path style="fill:none;stroke:#ff7500;stroke-linecap:square;stroke-width:1.5;"/>
    <g/>
   </g>
   <g id="line2d_55">
    <path clip-path="url(#pc14ab5b1ea)" d="M 212.683147 43.765343 
" style="fill:none;stroke:#ff7500;stroke-linecap:square;stroke-width:1.5;"/>
    <defs>
     <path d="M -12 12 
L 12 -12 
M -12 -12 
L 12 12 
" id="mfd7f5816d0" style="stroke:#ff7500;"/>
    </defs>
    <g clip-path="url(#pc14ab5b1ea)">
     <use style="fill:#ff7500;stroke:#ff7500;" x="212.683147" xlink:href="#mfd7f5816d0" y="43.765343"/>
    </g>
   </g>
   <g id="line2d_56">
    <defs>
     <path d="M 0 1.5 
C 0.397805 1.5 0.77937 1.341951 1.06066 1.06066 
C 1.341951 0.77937 1.5 0.397805 1.5 0 
C 1.5 -0.397805 1.341951 -0.77937 1.06066 -1.06066 
C 0.77937 -1.341951 0.397805 -1.5 0 -1.5 
C -0.397805 -1.5 -0.77937 -1.341951 -1.06066 -1.06066 
C -1.341951 -0.77937 -1.5 -0.397805 -1.5 0 
C -1.5 0.397805 -1.341951 0.77937 -1.06066 1.06066 
C -0.77937 1.341951 -0.397805 1.5 0 1.5 
z
" id="mb6301afe34" style="stroke:#6495ed;"/>
    </defs>
    <g>
     <use style="fill:#6495ed;stroke:#6495ed;" x="167.845026" xlink:href="#mb6301afe34" y="27.513663"/>
     <use style="fill:#6495ed;stroke:#6495ed;" x="167.845026" xlink:href="#mb6301afe34" y="27.513663"/>
    </g>
   </g>
   <g id="line2d_57">
    <path d="M 147.715578 294.88 
L 147.715578 294.355752 
L 148.992369 294.355752 
L 148.992369 293.831505 
L 149.245882 293.831505 
L 149.337149 292.783009 
L 150.338998 292.783009 
L 150.446004 291.734514 
L 150.874425 291.734514 
L 150.874425 291.210266 
L 151.258545 291.210266 
L 151.258545 290.686018 
L 151.447433 290.686018 
L 151.447433 290.161771 
L 151.726929 290.161771 
L 151.726929 289.637523 
L 152.195739 289.637523 
L 152.195739 289.113275 
L 152.507631 289.113275 
L 152.507631 288.589027 
L 152.714537 288.589027 
L 152.714537 288.06478 
L 152.962038 288.06478 
L 152.962038 287.540532 
L 153.290609 287.540532 
L 153.398752 285.967789 
L 153.754391 285.967789 
L 153.836326 284.919293 
L 153.91206 284.919293 
L 154.016374 283.34655 
L 154.027926 283.34655 
L 154.027926 282.822302 
L 154.188837 282.822302 
L 154.188837 282.298055 
L 154.421772 282.298055 
L 154.433054 281.249559 
L 154.579054 281.249559 
L 154.579054 280.725312 
L 155.020662 280.725312 
L 155.042447 279.676816 
L 155.472454 279.676816 
L 155.530748 278.628321 
L 155.793255 278.628321 
L 155.793255 278.104073 
L 155.969497 278.104073 
L 155.969497 277.579825 
L 156.123518 277.579825 
L 156.179648 276.53133 
L 156.402354 276.53133 
L 156.402354 276.007082 
L 156.607311 276.007082 
L 156.64206 274.958587 
L 156.765596 274.958587 
L 156.839293 273.910091 
L 156.902909 273.910091 
L 156.995466 272.861596 
L 157.01974 272.861596 
L 157.01974 272.337348 
L 157.159859 272.337348 
L 157.255831 270.764605 
L 157.398793 270.764605 
L 157.427243 269.716109 
L 157.596962 269.716109 
L 157.685865 268.667614 
L 157.792872 268.667614 
L 157.885384 266.570623 
L 157.917646 266.570623 
L 157.917646 266.046375 
L 158.050661 266.046375 
L 158.050661 265.522128 
L 158.187188 265.522128 
L 158.187188 264.99788 
L 158.430236 264.99788 
L 158.537164 263.425137 
L 158.585951 263.425137 
L 158.687516 262.376641 
L 158.845291 262.376641 
L 158.910606 260.279651 
L 159.036181 260.279651 
L 159.092177 259.231155 
L 159.207897 259.231155 
L 159.233507 257.658412 
L 159.356754 257.658412 
L 159.458088 256.609917 
L 159.58392 256.609917 
L 159.650656 255.561421 
L 159.725426 255.561421 
L 159.725426 255.037173 
L 159.894529 255.037173 
L 159.972334 253.988678 
L 160.04572 253.988678 
L 160.102582 252.415935 
L 160.179453 252.415935 
L 160.272049 251.367439 
L 160.336171 251.367439 
L 160.392082 250.318944 
L 160.5192 250.318944 
L 160.5192 249.794696 
L 160.712045 249.794696 
L 160.758944 248.746201 
L 160.90662 248.746201 
L 160.90662 248.221953 
L 161.064545 248.221953 
L 161.167758 246.124962 
L 161.213431 246.124962 
L 161.311977 245.076467 
L 161.477471 245.076467 
L 161.555898 244.027971 
L 161.589401 244.027971 
L 161.663618 242.455228 
L 161.796406 242.455228 
L 161.898981 239.83399 
L 161.920882 239.83399 
L 162.029971 236.688503 
L 162.058944 236.688503 
L 162.159969 234.591512 
L 162.324661 234.591512 
L 162.392228 231.446026 
L 162.441844 231.446026 
L 162.533611 227.776292 
L 162.554719 227.776292 
L 162.663364 223.58231 
L 162.680823 223.58231 
L 162.785208 218.864081 
L 162.812937 218.864081 
L 162.909639 215.194347 
L 162.92685 215.194347 
L 163.033175 211.524613 
L 163.084387 211.524613 
L 163.193134 206.806383 
L 163.199907 206.806383 
L 163.307927 199.991163 
L 163.31802 199.991163 
L 163.415273 194.224438 
L 163.448681 194.224438 
L 163.558471 190.554704 
L 163.565102 190.554704 
L 163.664268 187.933465 
L 163.677446 187.933465 
L 163.766141 180.593997 
L 163.798875 180.593997 
L 163.909707 174.827272 
L 163.951895 174.827272 
L 164.035963 167.487804 
L 164.071407 167.487804 
L 164.177302 160.672584 
L 164.215648 160.672584 
L 164.323833 154.905859 
L 164.336516 154.905859 
L 164.447095 147.042143 
L 164.462834 147.042143 
L 164.569479 137.605684 
L 164.575732 137.605684 
L 164.684787 133.93595 
L 164.712719 133.93595 
L 164.811664 124.499491 
L 164.830153 124.499491 
L 164.940672 120.829757 
L 164.959023 120.829757 
L 165.053524 118.208519 
L 165.071755 118.208519 
L 165.1747 110.869051 
L 165.183753 110.869051 
L 165.265024 101.956839 
L 165.304017 101.956839 
L 165.414517 94.093124 
L 165.429395 94.093124 
L 165.536139 87.802151 
L 165.550912 87.802151 
L 165.656906 80.986931 
L 165.662775 80.986931 
L 165.768084 75.220206 
L 165.803044 75.220206 
L 165.898818 69.453481 
L 165.930625 69.453481 
L 166.037182 65.259499 
L 166.048662 65.259499 
L 166.131664 60.017022 
L 166.168742 60.017022 
L 166.211426 57.395783 
L 166.28799 57.395783 
L 166.372663 53.201802 
L 166.406416 53.201802 
L 166.504485 49.00782 
L 166.546344 49.00782 
L 166.64362 44.28959 
L 166.663009 44.28959 
L 166.740349 39.571361 
L 166.806364 39.571361 
L 166.902183 34.853131 
L 166.951255 34.853131 
L 167.03544 31.707645 
L 167.140767 31.707645 
L 167.215991 30.134902 
L 167.296225 30.134902 
L 167.357484 29.086407 
L 167.437061 29.086407 
L 167.437061 28.037911 
L 167.845026 28.037911 
L 167.845026 27.513663 
L 333.168 27.513663 
L 333.168 27.513663 
" style="fill:none;stroke:#6495ed;stroke-linecap:square;stroke-width:1.5;"/>
   </g>
   <g id="line2d_58">
    <defs>
     <path d="M -0 6 
L 6 -6 
L -6 -6 
z
" id="m42046fc7d9" style="stroke:#6495ed;stroke-linejoin:miter;stroke-width:1.5;"/>
    </defs>
    <g>
     <use style="fill:none;stroke:#6495ed;stroke-linejoin:miter;stroke-width:1.5;" x="164.647475" xlink:href="#m42046fc7d9" y="135.508693"/>
     <use style="fill:none;stroke:#6495ed;stroke-linejoin:miter;stroke-width:1.5;" x="167.845026" xlink:href="#m42046fc7d9" y="28.037911"/>
     <use style="fill:none;stroke:#6495ed;stroke-linejoin:miter;stroke-width:1.5;" x="167.845026" xlink:href="#m42046fc7d9" y="27.513663"/>
     <use style="fill:none;stroke:#6495ed;stroke-linejoin:miter;stroke-width:1.5;" x="167.845026" xlink:href="#m42046fc7d9" y="27.513663"/>
     <use style="fill:none;stroke:#6495ed;stroke-linejoin:miter;stroke-width:1.5;" x="333.168" xlink:href="#m42046fc7d9" y="27.513663"/>
    </g>
   </g>
   <g id="line2d_59">
    <path style="fill:none;stroke:#6495ed;stroke-linecap:square;stroke-width:1.5;"/>
    <g/>
   </g>
   <g id="line2d_60">
    <defs>
     <path d="M 0 1.5 
C 0.397805 1.5 0.77937 1.341951 1.06066 1.06066 
C 1.341951 0.77937 1.5 0.397805 1.5 0 
C 1.5 -0.397805 1.341951 -0.77937 1.06066 -1.06066 
C 0.77937 -1.341951 0.397805 -1.5 0 -1.5 
C -0.397805 -1.5 -0.77937 -1.341951 -1.06066 -1.06066 
C -1.341951 -0.77937 -1.5 -0.397805 -1.5 0 
C -1.5 0.397805 -1.341951 0.77937 -1.06066 1.06066 
C -0.77937 1.341951 -0.397805 1.5 0 1.5 
z
" id="mc29219e40d" style="stroke:#ff0000;"/>
    </defs>
    <g>
     <use style="fill:#ff0000;stroke:#ff0000;" x="199.593874" xlink:href="#mc29219e40d" y="27.513663"/>
     <use style="fill:#ff0000;stroke:#ff0000;" x="199.593874" xlink:href="#mc29219e40d" y="27.513663"/>
    </g>
   </g>
   <g id="line2d_61">
    <path d="M 144.407453 294.88 
L 144.407453 294.355752 
L 147.02675 294.355752 
L 147.02675 293.831505 
L 147.798735 293.831505 
L 147.798735 293.307257 
L 148.369839 293.307257 
L 148.369839 292.783009 
L 148.577222 292.783009 
L 148.679982 291.734514 
L 148.836885 291.734514 
L 148.836885 291.210266 
L 149.268744 291.210266 
L 149.268744 290.686018 
L 149.660268 290.686018 
L 149.67515 289.113275 
L 150.202495 289.113275 
L 150.202495 288.589027 
L 150.338998 288.589027 
L 150.338998 288.06478 
L 150.686112 288.06478 
L 150.686112 287.540532 
L 151.217797 287.540532 
L 151.278882 285.967789 
L 151.48764 285.967789 
L 151.48764 285.443541 
L 152.008448 285.443541 
L 152.053843 283.870798 
L 152.570594 283.870798 
L 152.570594 283.34655 
L 152.980457 283.34655 
L 152.980457 282.822302 
L 153.127109 282.822302 
L 153.127109 282.298055 
L 154.404834 282.298055 
L 154.483733 281.249559 
L 154.539868 281.249559 
L 154.539868 280.725312 
L 154.734911 280.725312 
L 154.734911 280.201064 
L 154.977008 280.201064 
L 155.037003 279.152568 
L 155.307101 279.152568 
L 155.307101 278.628321 
L 155.604655 278.628321 
L 155.604655 278.104073 
L 155.829688 278.104073 
L 155.829688 277.579825 
L 156.051813 277.579825 
L 156.051813 277.055578 
L 156.30654 277.055578 
L 156.377192 275.482834 
L 156.577469 275.482834 
L 156.577469 274.958587 
L 156.750818 274.958587 
L 156.750818 274.434339 
L 156.898024 274.434339 
L 156.966291 273.385844 
L 157.048824 273.385844 
L 157.130962 272.337348 
L 157.535868 272.337348 
L 157.535868 271.8131 
L 157.926853 271.8131 
L 157.926853 271.288853 
L 158.236977 271.288853 
L 158.318141 270.240357 
L 158.372038 270.240357 
L 158.416823 269.191862 
L 158.656668 269.191862 
L 158.656668 268.667614 
L 159.100776 268.667614 
L 159.122254 267.619119 
L 159.445454 267.619119 
L 159.537889 266.570623 
L 159.762689 266.570623 
L 159.841091 263.949385 
L 160.483543 263.949385 
L 160.511282 262.900889 
L 160.7003 262.900889 
L 160.794035 260.803898 
L 160.875636 260.803898 
L 160.875636 260.279651 
L 161.186803 260.279651 
L 161.213431 259.231155 
L 161.300635 259.231155 
L 161.402444 258.18266 
L 161.477471 258.18266 
L 161.552172 257.134164 
L 161.671022 257.134164 
L 161.722762 256.085669 
L 161.803753 256.085669 
L 161.803753 255.561421 
L 162.260404 255.561421 
L 162.349585 254.512926 
L 162.431224 254.512926 
L 162.470133 253.46443 
L 162.596857 253.46443 
L 162.687802 251.367439 
L 162.736574 251.367439 
L 162.736574 250.843192 
L 162.895857 250.843192 
L 162.985238 249.270448 
L 163.022914 249.270448 
L 163.053678 248.221953 
L 163.142244 248.221953 
L 163.166011 247.173458 
L 163.31802 247.173458 
L 163.378448 246.124962 
L 163.435326 246.124962 
L 163.541881 241.93098 
L 163.598221 241.93098 
L 163.637879 239.309742 
L 163.739909 239.309742 
L 163.838074 237.736999 
L 163.877183 237.736999 
L 163.961617 235.640008 
L 164.023057 235.640008 
L 164.100352 233.018769 
L 164.180501 233.018769 
L 164.263461 230.397531 
L 164.295262 230.397531 
L 164.396633 228.30054 
L 164.453392 228.30054 
L 164.547577 226.203549 
L 164.610081 226.203549 
L 164.690998 222.533815 
L 164.722019 222.533815 
L 164.805497 218.339833 
L 164.882431 218.339833 
L 164.986512 214.670099 
L 165.017005 214.670099 
L 165.123304 208.903374 
L 165.135411 208.903374 
L 165.21691 205.757888 
L 165.259017 205.757888 
L 165.360849 202.612401 
L 165.405584 202.612401 
L 165.503593 197.894172 
L 165.530226 197.894172 
L 165.639285 194.748686 
L 165.645161 194.748686 
L 165.738896 187.409218 
L 165.788486 187.409218 
L 165.881445 181.118245 
L 165.927736 181.118245 
L 166.031439 173.778777 
L 166.05153 173.778777 
L 166.154491 169.060547 
L 166.163043 169.060547 
L 166.273837 161.196832 
L 166.2795 161.196832 
L 166.375479 158.575593 
L 166.409226 158.575593 
L 166.512865 151.236125 
L 166.532402 151.236125 
L 166.640848 145.993648 
L 166.646391 145.993648 
L 166.754123 141.275418 
L 166.762382 141.275418 
L 166.869391 132.887455 
L 166.904913 132.887455 
L 167.013754 126.072235 
L 167.030021 126.072235 
L 167.135382 120.829757 
L 167.146151 120.829757 
L 167.250805 113.490289 
L 167.258829 113.490289 
L 167.368116 108.247812 
L 167.370773 108.247812 
L 167.444999 104.05383 
L 167.484631 104.05383 
L 167.582003 99.335601 
L 167.605605 99.335601 
L 167.702295 94.093124 
L 167.717923 94.093124 
L 167.801036 88.850646 
L 167.855361 88.850646 
L 167.948091 83.083922 
L 167.978891 83.083922 
L 168.081159 77.841444 
L 168.104085 77.841444 
L 168.213204 75.220206 
L 168.215733 75.220206 
L 168.324147 68.929233 
L 168.341732 68.929233 
L 168.44187 65.783747 
L 168.533981 65.783747 
L 168.62807 61.589765 
L 168.679847 61.589765 
L 168.77804 57.920031 
L 168.804945 57.920031 
L 168.878109 55.82304 
L 168.924285 55.82304 
L 169.030747 51.629058 
L 169.037982 51.629058 
L 169.102958 49.532068 
L 169.155721 49.532068 
L 169.155721 48.483572 
L 169.305924 48.483572 
L 169.410055 46.910829 
L 169.518249 46.910829 
L 169.586109 45.338086 
L 169.753442 45.338086 
L 169.753442 44.813838 
L 182.834456 44.813838 
L 182.91853 43.765343 
L 183.75481 43.765343 
L 183.75481 43.241095 
L 183.979674 43.241095 
L 183.979674 42.716847 
L 184.520968 42.716847 
L 184.559127 41.668352 
L 184.734155 41.668352 
L 184.734155 41.144104 
L 184.853702 41.144104 
L 184.853702 40.619856 
L 185.074213 40.619856 
L 185.179175 37.47437 
L 185.220605 37.47437 
L 185.274127 35.377379 
L 185.377879 35.377379 
L 185.378811 34.328884 
L 185.49212 34.328884 
L 185.527261 33.280388 
L 185.637764 33.280388 
L 185.673525 32.231893 
L 185.802197 32.231893 
L 185.909145 30.65915 
L 186.113031 30.65915 
L 186.190536 29.610654 
L 186.399035 29.610654 
L 186.399035 28.562159 
L 194.279917 28.562159 
L 194.279917 28.037911 
L 199.593874 28.037911 
L 199.593874 27.513663 
L 333.168 27.513663 
L 333.168 27.513663 
" style="fill:none;stroke:#ff0000;stroke-linecap:square;stroke-width:1.5;"/>
   </g>
   <g id="line2d_62">
    <defs>
     <path d="M 0 -6 
L -5.196152 -3 
L -5.196152 3 
L -0 6 
L 5.196152 3 
L 5.196152 -3 
z
" id="m9b8d7a0c56" style="stroke:#ff0000;stroke-linejoin:miter;stroke-width:1.5;"/>
    </defs>
    <g>
     <use style="fill:none;stroke:#ff0000;stroke-linejoin:miter;stroke-width:1.5;" x="166.268173" xlink:href="#m9b8d7a0c56" y="161.721079"/>
     <use style="fill:none;stroke:#ff0000;stroke-linejoin:miter;stroke-width:1.5;" x="199.593874" xlink:href="#m9b8d7a0c56" y="28.037911"/>
     <use style="fill:none;stroke:#ff0000;stroke-linejoin:miter;stroke-width:1.5;" x="199.593874" xlink:href="#m9b8d7a0c56" y="27.513663"/>
     <use style="fill:none;stroke:#ff0000;stroke-linejoin:miter;stroke-width:1.5;" x="199.593874" xlink:href="#m9b8d7a0c56" y="27.513663"/>
     <use style="fill:none;stroke:#ff0000;stroke-linejoin:miter;stroke-width:1.5;" x="333.168" xlink:href="#m9b8d7a0c56" y="27.513663"/>
    </g>
   </g>
   <g id="line2d_63">
    <path style="fill:none;stroke:#ff0000;stroke-linecap:square;stroke-width:1.5;"/>
    <g/>
   </g>
   <g id="line2d_64">
    <path clip-path="url(#pc14ab5b1ea)" d="M 178.580029 44.813838 
" style="fill:none;stroke:#ff0000;stroke-linecap:square;stroke-width:1.5;"/>
    <defs>
     <path d="M -12 12 
L 12 -12 
M -12 -12 
L 12 12 
" id="mfef3267177" style="stroke:#ff0000;"/>
    </defs>
    <g clip-path="url(#pc14ab5b1ea)">
     <use style="fill:#ff0000;stroke:#ff0000;" x="178.580029" xlink:href="#mfef3267177" y="44.813838"/>
    </g>
   </g>
   <g id="line2d_65">
    <path d="M 333.168 27.513663 
L 363.64328 289.532673 
" style="fill:none;stroke:#000080;stroke-linecap:square;stroke-width:1.5;"/>
    <g>
     <use style="fill:none;stroke:#000080;stroke-width:1.5;" x="333.168" xlink:href="#m0c97bfb585" y="27.513663"/>
     <use style="fill:none;stroke:#000080;stroke-width:1.5;" x="363.64328" xlink:href="#m0c97bfb585" y="289.532673"/>
    </g>
   </g>
   <g id="line2d_66">
    <path d="M 333.168 27.513663 
L 363.64328 238.198337 
" style="fill:none;stroke:#ff7500;stroke-linecap:square;stroke-width:1.5;"/>
    <g>
     <use style="fill:none;stroke:#ff7500;stroke-linejoin:bevel;stroke-width:1.5;" x="333.168" xlink:href="#mae3abd79b2" y="27.513663"/>
     <use style="fill:none;stroke:#ff7500;stroke-linejoin:bevel;stroke-width:1.5;" x="363.64328" xlink:href="#mae3abd79b2" y="238.198337"/>
    </g>
   </g>
   <g id="line2d_67">
    <path d="M 333.168 27.513663 
L 363.64328 186.864 
" style="fill:none;stroke:#ff0000;stroke-linecap:square;stroke-width:1.5;"/>
    <g>
     <use style="fill:none;stroke:#ff0000;stroke-linejoin:miter;stroke-width:1.5;" x="333.168" xlink:href="#m9b8d7a0c56" y="27.513663"/>
     <use style="fill:none;stroke:#ff0000;stroke-linejoin:miter;stroke-width:1.5;" x="363.64328" xlink:href="#m9b8d7a0c56" y="186.864"/>
    </g>
   </g>
   <g id="line2d_68">
    <path d="M 333.168 27.513663 
L 363.64328 135.529663 
" style="fill:none;stroke:#ff00ff;stroke-linecap:square;stroke-width:1.5;"/>
    <g>
     <use style="fill:none;stroke:#ff00ff;stroke-linejoin:miter;stroke-width:1.5;" x="333.168" xlink:href="#mf0d97ad5a5" y="27.513663"/>
     <use style="fill:none;stroke:#ff00ff;stroke-linejoin:miter;stroke-width:1.5;" x="363.64328" xlink:href="#mf0d97ad5a5" y="135.529663"/>
    </g>
   </g>
   <g id="line2d_69">
    <path d="M 333.168 27.513663 
L 363.64328 84.195327 
" style="fill:none;stroke:#6495ed;stroke-linecap:square;stroke-width:1.5;"/>
    <g>
     <use style="fill:none;stroke:#6495ed;stroke-linejoin:miter;stroke-width:1.5;" x="333.168" xlink:href="#m42046fc7d9" y="27.513663"/>
     <use style="fill:none;stroke:#6495ed;stroke-linejoin:miter;stroke-width:1.5;" x="363.64328" xlink:href="#m42046fc7d9" y="84.195327"/>
    </g>
   </g>
   <g id="line2d_70">
    <path d="M 333.168 294.88 
L 333.168 27.513663 
" style="fill:none;stroke:#000000;stroke-linecap:square;stroke-width:1.5;"/>
   </g>
   <g id="patch_3">
    <path d="M 56.12 294.88 
L 56.12 24.84 
" style="fill:none;stroke:#000000;stroke-linecap:square;stroke-linejoin:miter;stroke-width:0.8;"/>
   </g>
   <g id="patch_4">
    <path d="M 333.168 294.88 
L 333.168 24.84 
" style="fill:none;stroke:#000000;stroke-linecap:square;stroke-linejoin:miter;stroke-width:0.8;"/>
   </g>
   <g id="patch_5">
    <path d="M 56.12 294.88 
L 333.168 294.88 
" style="fill:none;stroke:#000000;stroke-linecap:square;stroke-linejoin:miter;stroke-width:0.8;"/>
   </g>
   <g id="patch_6">
    <path d="M 56.12 24.84 
L 333.168 24.84 
" style="fill:none;stroke:#000000;stroke-linecap:square;stroke-linejoin:miter;stroke-width:0.8;"/>
   </g>
   <g id="text_13">
    <!-- CMA ES PPM -->
    <defs>
     <path d="M 64.40625 67.28125 
L 64.40625 56.890625 
Q 59.421875 61.53125 53.78125 63.8125 
Q 48.140625 66.109375 41.796875 66.109375 
Q 29.296875 66.109375 22.65625 58.46875 
Q 16.015625 50.828125 16.015625 36.375 
Q 16.015625 21.96875 22.65625 14.328125 
Q 29.296875 6.6875 41.796875 6.6875 
Q 48.140625 6.6875 53.78125 8.984375 
Q 59.421875 11.28125 64.40625 15.921875 
L 64.40625 5.609375 
Q 59.234375 2.09375 53.4375 0.328125 
Q 47.65625 -1.421875 41.21875 -1.421875 
Q 24.65625 -1.421875 15.125 8.703125 
Q 5.609375 18.84375 5.609375 36.375 
Q 5.609375 53.953125 15.125 64.078125 
Q 24.65625 74.21875 41.21875 74.21875 
Q 47.75 74.21875 53.53125 72.484375 
Q 59.328125 70.75 64.40625 67.28125 
z
" id="DejaVuSans-43"/>
     <path d="M 9.8125 72.90625 
L 24.515625 72.90625 
L 43.109375 23.296875 
L 61.8125 72.90625 
L 76.515625 72.90625 
L 76.515625 0 
L 66.890625 0 
L 66.890625 64.015625 
L 48.09375 14.015625 
L 38.1875 14.015625 
L 19.390625 64.015625 
L 19.390625 0 
L 9.8125 0 
z
" id="DejaVuSans-4d"/>
     <path d="M 34.1875 63.1875 
L 20.796875 26.90625 
L 47.609375 26.90625 
z
M 28.609375 72.90625 
L 39.796875 72.90625 
L 67.578125 0 
L 57.328125 0 
L 50.6875 18.703125 
L 17.828125 18.703125 
L 11.1875 0 
L 0.78125 0 
z
" id="DejaVuSans-41"/>
     <path d="M 9.8125 72.90625 
L 55.90625 72.90625 
L 55.90625 64.59375 
L 19.671875 64.59375 
L 19.671875 43.015625 
L 54.390625 43.015625 
L 54.390625 34.71875 
L 19.671875 34.71875 
L 19.671875 8.296875 
L 56.78125 8.296875 
L 56.78125 0 
L 9.8125 0 
z
" id="DejaVuSans-45"/>
     <path d="M 53.515625 70.515625 
L 53.515625 60.890625 
Q 47.90625 63.578125 42.921875 64.890625 
Q 37.9375 66.21875 33.296875 66.21875 
Q 25.25 66.21875 20.875 63.09375 
Q 16.5 59.96875 16.5 54.203125 
Q 16.5 49.359375 19.40625 46.890625 
Q 22.3125 44.4375 30.421875 42.921875 
L 36.375 41.703125 
Q 47.40625 39.59375 52.65625 34.296875 
Q 57.90625 29 57.90625 20.125 
Q 57.90625 9.515625 50.796875 4.046875 
Q 43.703125 -1.421875 29.984375 -1.421875 
Q 24.8125 -1.421875 18.96875 -0.25 
Q 13.140625 0.921875 6.890625 3.21875 
L 6.890625 13.375 
Q 12.890625 10.015625 18.65625 8.296875 
Q 24.421875 6.59375 29.984375 6.59375 
Q 38.421875 6.59375 43.015625 9.90625 
Q 47.609375 13.234375 47.609375 19.390625 
Q 47.609375 24.75 44.3125 27.78125 
Q 41.015625 30.8125 33.5 32.328125 
L 27.484375 33.5 
Q 16.453125 35.6875 11.515625 40.375 
Q 6.59375 45.0625 6.59375 53.421875 
Q 6.59375 63.09375 13.40625 68.65625 
Q 20.21875 74.21875 32.171875 74.21875 
Q 37.3125 74.21875 42.625 73.28125 
Q 47.953125 72.359375 53.515625 70.515625 
z
" id="DejaVuSans-53"/>
     <path d="M 19.671875 64.796875 
L 19.671875 37.40625 
L 32.078125 37.40625 
Q 38.96875 37.40625 42.71875 40.96875 
Q 46.484375 44.53125 46.484375 51.125 
Q 46.484375 57.671875 42.71875 61.234375 
Q 38.96875 64.796875 32.078125 64.796875 
z
M 9.8125 72.90625 
L 32.078125 72.90625 
Q 44.34375 72.90625 50.609375 67.359375 
Q 56.890625 61.8125 56.890625 51.125 
Q 56.890625 40.328125 50.609375 34.8125 
Q 44.34375 29.296875 32.078125 29.296875 
L 19.671875 29.296875 
L 19.671875 0 
L 9.8125 0 
z
" id="DejaVuSans-50"/>
    </defs>
    <g transform="translate(369.18424 294.223611)scale(0.17 -0.17)">
     <use xlink:href="#DejaVuSans-43"/>
     <use x="69.824219" xlink:href="#DejaVuSans-4d"/>
     <use x="156.103516" xlink:href="#DejaVuSans-41"/>
     <use x="224.511719" xlink:href="#DejaVuSans-20"/>
     <use x="256.298828" xlink:href="#DejaVuSans-45"/>
     <use x="319.482422" xlink:href="#DejaVuSans-53"/>
     <use x="382.958984" xlink:href="#DejaVuSans-20"/>
     <use x="414.746094" xlink:href="#DejaVuSans-50"/>
     <use x="475.048828" xlink:href="#DejaVuSans-50"/>
     <use x="535.351562" xlink:href="#DejaVuSans-4d"/>
    </g>
   </g>
   <g id="text_14">
    <!-- ppmf-new -->
    <defs>
     <path d="M 4.203125 54.6875 
L 13.1875 54.6875 
L 24.421875 12.015625 
L 35.59375 54.6875 
L 46.1875 54.6875 
L 57.421875 12.015625 
L 68.609375 54.6875 
L 77.59375 54.6875 
L 63.28125 0 
L 52.6875 0 
L 40.921875 44.828125 
L 29.109375 0 
L 18.5 0 
z
" id="DejaVuSans-77"/>
    </defs>
    <g transform="translate(369.18424 242.889274)scale(0.17 -0.17)">
     <use xlink:href="#DejaVuSans-70"/>
     <use x="63.476562" xlink:href="#DejaVuSans-70"/>
     <use x="126.953125" xlink:href="#DejaVuSans-6d"/>
     <use x="224.365234" xlink:href="#DejaVuSans-66"/>
     <use x="259.492188" xlink:href="#DejaVuSans-2d"/>
     <use x="295.576172" xlink:href="#DejaVuSans-6e"/>
     <use x="358.955078" xlink:href="#DejaVuSans-65"/>
     <use x="420.478516" xlink:href="#DejaVuSans-77"/>
    </g>
   </g>
   <g id="text_15">
    <!-- csa-classi -->
    <g transform="translate(369.18424 191.554937)scale(0.17 -0.17)">
     <use xlink:href="#DejaVuSans-63"/>
     <use x="54.980469" xlink:href="#DejaVuSans-73"/>
     <use x="107.080078" xlink:href="#DejaVuSans-61"/>
     <use x="168.359375" xlink:href="#DejaVuSans-2d"/>
     <use x="204.443359" xlink:href="#DejaVuSans-63"/>
     <use x="259.423828" xlink:href="#DejaVuSans-6c"/>
     <use x="287.207031" xlink:href="#DejaVuSans-61"/>
     <use x="348.486328" xlink:href="#DejaVuSans-73"/>
     <use x="400.585938" xlink:href="#DejaVuSans-73"/>
     <use x="452.685547" xlink:href="#DejaVuSans-69"/>
    </g>
   </g>
   <g id="text_16">
    <!-- CMA ES CSA -->
    <g transform="translate(369.18424 140.220601)scale(0.17 -0.17)">
     <use xlink:href="#DejaVuSans-43"/>
     <use x="69.824219" xlink:href="#DejaVuSans-4d"/>
     <use x="156.103516" xlink:href="#DejaVuSans-41"/>
     <use x="224.511719" xlink:href="#DejaVuSans-20"/>
     <use x="256.298828" xlink:href="#DejaVuSans-45"/>
     <use x="319.482422" xlink:href="#DejaVuSans-53"/>
     <use x="382.958984" xlink:href="#DejaVuSans-20"/>
     <use x="414.746094" xlink:href="#DejaVuSans-43"/>
     <use x="484.570312" xlink:href="#DejaVuSans-53"/>
     <use x="548.0625" xlink:href="#DejaVuSans-41"/>
    </g>
   </g>
   <g id="text_17">
    <!-- CMAES posi -->
    <g transform="translate(369.18424 88.886264)scale(0.17 -0.17)">
     <use xlink:href="#DejaVuSans-43"/>
     <use x="69.824219" xlink:href="#DejaVuSans-4d"/>
     <use x="156.103516" xlink:href="#DejaVuSans-41"/>
     <use x="224.511719" xlink:href="#DejaVuSans-45"/>
     <use x="287.695312" xlink:href="#DejaVuSans-53"/>
     <use x="351.171875" xlink:href="#DejaVuSans-20"/>
     <use x="382.958984" xlink:href="#DejaVuSans-70"/>
     <use x="446.435547" xlink:href="#DejaVuSans-6f"/>
     <use x="507.617188" xlink:href="#DejaVuSans-73"/>
     <use x="559.716797" xlink:href="#DejaVuSans-69"/>
    </g>
   </g>
   <g id="text_18">
    <!-- best 2009 -->
    <defs>
     <path d="M 48.6875 27.296875 
Q 48.6875 37.203125 44.609375 42.84375 
Q 40.53125 48.484375 33.40625 48.484375 
Q 26.265625 48.484375 22.1875 42.84375 
Q 18.109375 37.203125 18.109375 27.296875 
Q 18.109375 17.390625 22.1875 11.75 
Q 26.265625 6.109375 33.40625 6.109375 
Q 40.53125 6.109375 44.609375 11.75 
Q 48.6875 17.390625 48.6875 27.296875 
z
M 18.109375 46.390625 
Q 20.953125 51.265625 25.265625 53.625 
Q 29.59375 56 35.59375 56 
Q 45.5625 56 51.78125 48.09375 
Q 58.015625 40.1875 58.015625 27.296875 
Q 58.015625 14.40625 51.78125 6.484375 
Q 45.5625 -1.421875 35.59375 -1.421875 
Q 29.59375 -1.421875 25.265625 0.953125 
Q 20.953125 3.328125 18.109375 8.203125 
L 18.109375 0 
L 9.078125 0 
L 9.078125 75.984375 
L 18.109375 75.984375 
z
" id="DejaVuSans-62"/>
     <path d="M 10.984375 1.515625 
L 10.984375 10.5 
Q 14.703125 8.734375 18.5 7.8125 
Q 22.3125 6.890625 25.984375 6.890625 
Q 35.75 6.890625 40.890625 13.453125 
Q 46.046875 20.015625 46.78125 33.40625 
Q 43.953125 29.203125 39.59375 26.953125 
Q 35.25 24.703125 29.984375 24.703125 
Q 19.046875 24.703125 12.671875 31.3125 
Q 6.296875 37.9375 6.296875 49.421875 
Q 6.296875 60.640625 12.9375 67.421875 
Q 19.578125 74.21875 30.609375 74.21875 
Q 43.265625 74.21875 49.921875 64.515625 
Q 56.59375 54.828125 56.59375 36.375 
Q 56.59375 19.140625 48.40625 8.859375 
Q 40.234375 -1.421875 26.421875 -1.421875 
Q 22.703125 -1.421875 18.890625 -0.6875 
Q 15.09375 0.046875 10.984375 1.515625 
z
M 30.609375 32.421875 
Q 37.25 32.421875 41.125 36.953125 
Q 45.015625 41.5 45.015625 49.421875 
Q 45.015625 57.28125 41.125 61.84375 
Q 37.25 66.40625 30.609375 66.40625 
Q 23.96875 66.40625 20.09375 61.84375 
Q 16.21875 57.28125 16.21875 49.421875 
Q 16.21875 41.5 20.09375 36.953125 
Q 23.96875 32.421875 30.609375 32.421875 
z
" id="DejaVuSans-39"/>
    </defs>
    <g transform="translate(369.18424 37.551928)scale(0.17 -0.17)">
     <use xlink:href="#DejaVuSans-62"/>
     <use x="63.476562" xlink:href="#DejaVuSans-65"/>
     <use x="125" xlink:href="#DejaVuSans-73"/>
     <use x="177.099609" xlink:href="#DejaVuSans-74"/>
     <use x="216.308594" xlink:href="#DejaVuSans-20"/>
     <use x="248.095703" xlink:href="#DejaVuSans-32"/>
     <use x="311.71875" xlink:href="#DejaVuSans-30"/>
     <use x="375.341797" xlink:href="#DejaVuSans-30"/>
     <use x="438.964844" xlink:href="#DejaVuSans-39"/>
    </g>
   </g>
   <g id="text_19">
    <!-- bbob f2, 10-D -->
    <defs>
     <path d="M 19.671875 64.796875 
L 19.671875 8.109375 
L 31.59375 8.109375 
Q 46.6875 8.109375 53.6875 14.9375 
Q 60.6875 21.78125 60.6875 36.53125 
Q 60.6875 51.171875 53.6875 57.984375 
Q 46.6875 64.796875 31.59375 64.796875 
z
M 9.8125 72.90625 
L 30.078125 72.90625 
Q 51.265625 72.90625 61.171875 64.09375 
Q 71.09375 55.28125 71.09375 36.53125 
Q 71.09375 17.671875 61.125 8.828125 
Q 51.171875 0 30.078125 0 
L 9.8125 0 
z
" id="DejaVuSans-44"/>
    </defs>
    <g transform="translate(58.89048 35.290806)scale(0.102 -0.102)">
     <use xlink:href="#DejaVuSans-62"/>
     <use x="63.476562" xlink:href="#DejaVuSans-62"/>
     <use x="126.953125" xlink:href="#DejaVuSans-6f"/>
     <use x="188.134766" xlink:href="#DejaVuSans-62"/>
     <use x="251.611328" xlink:href="#DejaVuSans-20"/>
     <use x="283.398438" xlink:href="#DejaVuSans-66"/>
     <use x="318.603516" xlink:href="#DejaVuSans-32"/>
     <use x="382.226562" xlink:href="#DejaVuSans-2c"/>
     <use x="414.013672" xlink:href="#DejaVuSans-20"/>
     <use x="445.800781" xlink:href="#DejaVuSans-31"/>
     <use x="509.423828" xlink:href="#DejaVuSans-30"/>
     <use x="573.046875" xlink:href="#DejaVuSans-2d"/>
     <use x="609.130859" xlink:href="#DejaVuSans-44"/>
    </g>
    <!-- 51 targets: 100..1e-08 -->
    <defs>
     <path d="M 10.796875 72.90625 
L 49.515625 72.90625 
L 49.515625 64.59375 
L 19.828125 64.59375 
L 19.828125 46.734375 
Q 21.96875 47.46875 24.109375 47.828125 
Q 26.265625 48.1875 28.421875 48.1875 
Q 40.625 48.1875 47.75 41.5 
Q 54.890625 34.8125 54.890625 23.390625 
Q 54.890625 11.625 47.5625 5.09375 
Q 40.234375 -1.421875 26.90625 -1.421875 
Q 22.3125 -1.421875 17.546875 -0.640625 
Q 12.796875 0.140625 7.71875 1.703125 
L 7.71875 11.625 
Q 12.109375 9.234375 16.796875 8.0625 
Q 21.484375 6.890625 26.703125 6.890625 
Q 35.15625 6.890625 40.078125 11.328125 
Q 45.015625 15.765625 45.015625 23.390625 
Q 45.015625 31 40.078125 35.4375 
Q 35.15625 39.890625 26.703125 39.890625 
Q 22.75 39.890625 18.8125 39.015625 
Q 14.890625 38.140625 10.796875 36.28125 
z
" id="DejaVuSans-35"/>
     <path d="M 11.71875 12.40625 
L 22.015625 12.40625 
L 22.015625 0 
L 11.71875 0 
z
M 11.71875 51.703125 
L 22.015625 51.703125 
L 22.015625 39.3125 
L 11.71875 39.3125 
z
" id="DejaVuSans-3a"/>
    </defs>
    <g transform="translate(58.89048 46.712575)scale(0.102 -0.102)">
     <use xlink:href="#DejaVuSans-35"/>
     <use x="63.623047" xlink:href="#DejaVuSans-31"/>
     <use x="127.246094" xlink:href="#DejaVuSans-20"/>
     <use x="159.033203" xlink:href="#DejaVuSans-74"/>
     <use x="198.242188" xlink:href="#DejaVuSans-61"/>
     <use x="259.521484" xlink:href="#DejaVuSans-72"/>
     <use x="300.619141" xlink:href="#DejaVuSans-67"/>
     <use x="364.095703" xlink:href="#DejaVuSans-65"/>
     <use x="425.619141" xlink:href="#DejaVuSans-74"/>
     <use x="464.828125" xlink:href="#DejaVuSans-73"/>
     <use x="516.927734" xlink:href="#DejaVuSans-3a"/>
     <use x="550.619141" xlink:href="#DejaVuSans-20"/>
     <use x="582.40625" xlink:href="#DejaVuSans-31"/>
     <use x="646.029297" xlink:href="#DejaVuSans-30"/>
     <use x="709.652344" xlink:href="#DejaVuSans-30"/>
     <use x="773.275391" xlink:href="#DejaVuSans-2e"/>
     <use x="805.0625" xlink:href="#DejaVuSans-2e"/>
     <use x="836.849609" xlink:href="#DejaVuSans-31"/>
     <use x="900.472656" xlink:href="#DejaVuSans-65"/>
     <use x="961.996094" xlink:href="#DejaVuSans-2d"/>
     <use x="998.080078" xlink:href="#DejaVuSans-30"/>
     <use x="1061.703125" xlink:href="#DejaVuSans-38"/>
    </g>
    <!-- 15 instances -->
    <g transform="translate(58.89048 58.134344)scale(0.102 -0.102)">
     <use xlink:href="#DejaVuSans-31"/>
     <use x="63.623047" xlink:href="#DejaVuSans-35"/>
     <use x="127.246094" xlink:href="#DejaVuSans-20"/>
     <use x="159.033203" xlink:href="#DejaVuSans-69"/>
     <use x="186.816406" xlink:href="#DejaVuSans-6e"/>
     <use x="250.195312" xlink:href="#DejaVuSans-73"/>
     <use x="302.294922" xlink:href="#DejaVuSans-74"/>
     <use x="341.503906" xlink:href="#DejaVuSans-61"/>
     <use x="402.783203" xlink:href="#DejaVuSans-6e"/>
     <use x="466.162109" xlink:href="#DejaVuSans-63"/>
     <use x="521.142578" xlink:href="#DejaVuSans-65"/>
     <use x="582.666016" xlink:href="#DejaVuSans-73"/>
    </g>
   </g>
   <g id="text_20">
    <!-- v0.0.0 -->
    <g style="fill:#808080;" transform="translate(178.96275 290.099912)scale(0.1 -0.1)">
     <use xlink:href="#DejaVuSans-76"/>
     <use x="59.179688" xlink:href="#DejaVuSans-30"/>
     <use x="122.802734" xlink:href="#DejaVuSans-2e"/>
     <use x="154.589844" xlink:href="#DejaVuSans-30"/>
     <use x="218.212891" xlink:href="#DejaVuSans-2e"/>
     <use x="250" xlink:href="#DejaVuSans-30"/>
    </g>
   </g>
   <g id="text_21">
    <!-- 2 Ellipsoid separable -->
    <g transform="translate(91.111187 18.84)scale(0.2 -0.2)">
     <use xlink:href="#DejaVuSans-32"/>
     <use x="63.623047" xlink:href="#DejaVuSans-20"/>
     <use x="95.410156" xlink:href="#DejaVuSans-45"/>
     <use x="158.59375" xlink:href="#DejaVuSans-6c"/>
     <use x="186.376953" xlink:href="#DejaVuSans-6c"/>
     <use x="214.160156" xlink:href="#DejaVuSans-69"/>
     <use x="241.943359" xlink:href="#DejaVuSans-70"/>
     <use x="305.419922" xlink:href="#DejaVuSans-73"/>
     <use x="357.519531" xlink:href="#DejaVuSans-6f"/>
     <use x="418.701172" xlink:href="#DejaVuSans-69"/>
     <use x="446.484375" xlink:href="#DejaVuSans-64"/>
     <use x="509.960938" xlink:href="#DejaVuSans-20"/>
     <use x="541.748047" xlink:href="#DejaVuSans-73"/>
     <use x="593.847656" xlink:href="#DejaVuSans-65"/>
     <use x="655.371094" xlink:href="#DejaVuSans-70"/>
     <use x="718.847656" xlink:href="#DejaVuSans-61"/>
     <use x="780.126953" xlink:href="#DejaVuSans-72"/>
     <use x="821.240234" xlink:href="#DejaVuSans-61"/>
     <use x="882.519531" xlink:href="#DejaVuSans-62"/>
     <use x="945.996094" xlink:href="#DejaVuSans-6c"/>
     <use x="973.779297" xlink:href="#DejaVuSans-65"/>
    </g>
   </g>
  </g>
 </g>
 <defs>
  <clipPath id="pc14ab5b1ea">
   <rect height="270.04" width="277.048" x="56.12" y="24.84"/>
  </clipPath>
 </defs>
</svg>
