<?xml version="1.0" encoding="utf-8" standalone="no"?>
<!DOCTYPE svg PUBLIC "-//W3C//DTD SVG 1.1//EN"
  "http://www.w3.org/Graphics/SVG/1.1/DTD/svg11.dtd">
<!-- Created with matplotlib (http://matplotlib.org/) -->
<svg height="345pt" version="1.1" viewBox="0 0 460 345" width="460pt" xmlns="http://www.w3.org/2000/svg" xmlns:xlink="http://www.w3.org/1999/xlink">
 <defs>
  <style type="text/css">
*{stroke-linecap:butt;stroke-linejoin:round;}
  </style>
 </defs>
 <g id="figure_1">
  <g id="patch_1">
   <path d="M 0 345.6 
L 460.8 345.6 
L 460.8 0 
L 0 0 
z
" style="fill:#ffffff;"/>
  </g>
  <g id="axes_1">
   <g id="patch_2">
    <path d="M 56.12 294.88 
L 333.168 294.88 
L 333.168 24.84 
L 56.12 24.84 
z
" style="fill:#ffffff;"/>
   </g>
   <g id="line2d_1">
    <path d="M 85.422286 294.88 
L 85.422286 289.637523 
L 94.816624 289.637523 
L 94.816624 284.395046 
L 98.100602 284.395046 
L 98.100602 279.152568 
L 103.231288 279.152568 
L 103.231288 273.910091 
L 104.305927 273.910091 
L 104.305927 268.667614 
L 105.317315 268.667614 
L 105.317315 263.425137 
L 106.730875 263.425137 
L 106.730875 258.18266 
L 107.612537 258.18266 
L 107.612537 252.940182 
L 108.451173 252.940182 
L 108.451173 247.697705 
L 109.250788 247.697705 
L 109.250788 242.455228 
L 109.637066 242.455228 
L 109.637066 237.212751 
L 110.014853 237.212751 
L 110.014853 231.970274 
L 110.746395 231.970274 
L 110.746395 226.727797 
L 111.100812 226.727797 
L 111.100812 221.485319 
L 111.448069 221.485319 
L 111.448069 211.000365 
L 111.788449 211.000365 
L 111.788449 205.757888 
L 112.770924 205.757888 
L 112.770924 200.515411 
L 113.396034 200.515411 
L 113.396034 195.272933 
L 114.581927 195.272933 
L 114.581927 190.030456 
L 115.145539 190.030456 
L 115.145539 179.545502 
L 115.691256 179.545502 
L 115.691256 174.303025 
L 115.957752 174.303025 
L 115.957752 163.81807 
L 116.478659 163.81807 
L 116.478659 158.575593 
L 116.73331 158.575593 
L 116.73331 153.333116 
L 117.231566 153.333116 
L 117.231566 148.090639 
L 117.952873 148.090639 
L 117.952873 142.848162 
L 118.186736 142.848162 
L 118.186736 137.605684 
L 118.417459 137.605684 
L 118.417459 132.363207 
L 118.645127 132.363207 
L 118.645127 127.12073 
L 119.09161 127.12073 
L 119.09161 121.878253 
L 119.526788 121.878253 
L 119.526788 116.635776 
L 119.740314 116.635776 
L 119.740314 106.150821 
L 120.15957 106.150821 
L 120.15957 100.908344 
L 120.365424 100.908344 
L 120.365424 95.665867 
L 120.968596 95.665867 
L 120.968596 90.42339 
L 121.16504 90.42339 
L 121.16504 85.180912 
L 121.551317 85.180912 
L 121.551317 79.938435 
L 121.741249 79.938435 
L 121.741249 74.695958 
L 121.929105 74.695958 
L 121.929105 69.453481 
L 122.298767 69.453481 
L 122.298767 64.211004 
L 122.660646 64.211004 
L 122.660646 58.968526 
L 122.838768 58.968526 
L 122.838768 53.726049 
L 123.189569 53.726049 
L 123.189569 48.483572 
L 123.36232 48.483572 
L 123.36232 43.241095 
L 123.533353 43.241095 
L 123.533353 37.998618 
L 123.7027 37.998618 
L 123.7027 32.756141 
L 124.200956 32.756141 
L 124.200956 27.513663 
L 333.168 27.513663 
" style="fill:none;stroke:#f5deb3;stroke-linecap:square;stroke-width:4;"/>
   </g>
   <g id="line2d_2">
    <defs>
     <path d="M -0 7.778175 
L 7.778175 0 
L 0 -7.778175 
L -7.778175 -0 
z
" id="mf1d2a35bf9" style="stroke:#f5deb3;stroke-linejoin:miter;stroke-width:1.5;"/>
    </defs>
    <g>
     <use style="fill:#f5deb3;stroke:#f5deb3;stroke-linejoin:miter;stroke-width:1.5;" x="118.417459" xlink:href="#mf1d2a35bf9" y="132.363207"/>
     <use style="fill:#f5deb3;stroke:#f5deb3;stroke-linejoin:miter;stroke-width:1.5;" x="124.200956" xlink:href="#mf1d2a35bf9" y="32.756141"/>
     <use style="fill:#f5deb3;stroke:#f5deb3;stroke-linejoin:miter;stroke-width:1.5;" x="124.200956" xlink:href="#mf1d2a35bf9" y="27.513663"/>
     <use style="fill:#f5deb3;stroke:#f5deb3;stroke-linejoin:miter;stroke-width:1.5;" x="124.200956" xlink:href="#mf1d2a35bf9" y="27.513663"/>
     <use style="fill:#f5deb3;stroke:#f5deb3;stroke-linejoin:miter;stroke-width:1.5;" x="333.168" xlink:href="#mf1d2a35bf9" y="27.513663"/>
    </g>
   </g>
   <g id="line2d_3">
    <path style="fill:none;stroke:#f5deb3;stroke-linecap:square;stroke-width:4;"/>
    <g/>
   </g>
   <g id="line2d_4">
    <path d="M 333.168 27.513663 
L 363.64328 32.86099 
" style="fill:none;stroke:#f5deb3;stroke-linecap:square;stroke-width:4;"/>
    <g>
     <use style="fill:#f5deb3;stroke:#f5deb3;stroke-linejoin:miter;stroke-width:1.5;" x="333.168" xlink:href="#mf1d2a35bf9" y="27.513663"/>
     <use style="fill:#f5deb3;stroke:#f5deb3;stroke-linejoin:miter;stroke-width:1.5;" x="363.64328" xlink:href="#mf1d2a35bf9" y="32.86099"/>
    </g>
   </g>
   <g id="matplotlib.axis_1">
    <g id="xtick_1">
     <g id="line2d_5">
      <path clip-path="url(#pfdd19e2890)" d="M 56.12 294.88 
L 56.12 24.84 
" style="fill:none;stroke:#b0b0b0;stroke-linecap:square;stroke-width:0.8;"/>
     </g>
     <g id="line2d_6">
      <defs>
       <path d="M 0 0 
L 0 3.5 
" id="mce1120e5f3" style="stroke:#000000;stroke-width:0.8;"/>
      </defs>
      <g>
       <use style="stroke:#000000;stroke-width:0.8;" x="56.12" xlink:href="#mce1120e5f3" y="294.88"/>
      </g>
     </g>
     <g id="text_1">
      <!-- 0 -->
      <defs>
       <path d="M 31.78125 66.40625 
Q 24.171875 66.40625 20.328125 58.90625 
Q 16.5 51.421875 16.5 36.375 
Q 16.5 21.390625 20.328125 13.890625 
Q 24.171875 6.390625 31.78125 6.390625 
Q 39.453125 6.390625 43.28125 13.890625 
Q 47.125 21.390625 47.125 36.375 
Q 47.125 51.421875 43.28125 58.90625 
Q 39.453125 66.40625 31.78125 66.40625 
z
M 31.78125 74.21875 
Q 44.046875 74.21875 50.515625 64.515625 
Q 56.984375 54.828125 56.984375 36.375 
Q 56.984375 17.96875 50.515625 8.265625 
Q 44.046875 -1.421875 31.78125 -1.421875 
Q 19.53125 -1.421875 13.0625 8.265625 
Q 6.59375 17.96875 6.59375 36.375 
Q 6.59375 54.828125 13.0625 64.515625 
Q 19.53125 74.21875 31.78125 74.21875 
z
" id="DejaVuSans-30"/>
      </defs>
      <g transform="translate(49.7575 317.076875)scale(0.2 -0.2)">
       <use xlink:href="#DejaVuSans-30"/>
      </g>
     </g>
    </g>
    <g id="xtick_2">
     <g id="line2d_7">
      <path clip-path="url(#pfdd19e2890)" d="M 135.276571 294.88 
L 135.276571 24.84 
" style="fill:none;stroke:#b0b0b0;stroke-linecap:square;stroke-width:0.8;"/>
     </g>
     <g id="line2d_8">
      <g>
       <use style="stroke:#000000;stroke-width:0.8;" x="135.276571" xlink:href="#mce1120e5f3" y="294.88"/>
      </g>
     </g>
     <g id="text_2">
      <!-- 2 -->
      <defs>
       <path d="M 19.1875 8.296875 
L 53.609375 8.296875 
L 53.609375 0 
L 7.328125 0 
L 7.328125 8.296875 
Q 12.9375 14.109375 22.625 23.890625 
Q 32.328125 33.6875 34.8125 36.53125 
Q 39.546875 41.84375 41.421875 45.53125 
Q 43.3125 49.21875 43.3125 52.78125 
Q 43.3125 58.59375 39.234375 62.25 
Q 35.15625 65.921875 28.609375 65.921875 
Q 23.96875 65.921875 18.8125 64.3125 
Q 13.671875 62.703125 7.8125 59.421875 
L 7.8125 69.390625 
Q 13.765625 71.78125 18.9375 73 
Q 24.125 74.21875 28.421875 74.21875 
Q 39.75 74.21875 46.484375 68.546875 
Q 53.21875 62.890625 53.21875 53.421875 
Q 53.21875 48.921875 51.53125 44.890625 
Q 49.859375 40.875 45.40625 35.40625 
Q 44.1875 33.984375 37.640625 27.21875 
Q 31.109375 20.453125 19.1875 8.296875 
z
" id="DejaVuSans-32"/>
      </defs>
      <g transform="translate(128.914071 317.076875)scale(0.2 -0.2)">
       <use xlink:href="#DejaVuSans-32"/>
      </g>
     </g>
    </g>
    <g id="xtick_3">
     <g id="line2d_9">
      <path clip-path="url(#pfdd19e2890)" d="M 214.433143 294.88 
L 214.433143 24.84 
" style="fill:none;stroke:#b0b0b0;stroke-linecap:square;stroke-width:0.8;"/>
     </g>
     <g id="line2d_10">
      <g>
       <use style="stroke:#000000;stroke-width:0.8;" x="214.433143" xlink:href="#mce1120e5f3" y="294.88"/>
      </g>
     </g>
     <g id="text_3">
      <!-- 4 -->
      <defs>
       <path d="M 37.796875 64.3125 
L 12.890625 25.390625 
L 37.796875 25.390625 
z
M 35.203125 72.90625 
L 47.609375 72.90625 
L 47.609375 25.390625 
L 58.015625 25.390625 
L 58.015625 17.1875 
L 47.609375 17.1875 
L 47.609375 0 
L 37.796875 0 
L 37.796875 17.1875 
L 4.890625 17.1875 
L 4.890625 26.703125 
z
" id="DejaVuSans-34"/>
      </defs>
      <g transform="translate(208.070643 317.076875)scale(0.2 -0.2)">
       <use xlink:href="#DejaVuSans-34"/>
      </g>
     </g>
    </g>
    <g id="xtick_4">
     <g id="line2d_11">
      <path clip-path="url(#pfdd19e2890)" d="M 293.589714 294.88 
L 293.589714 24.84 
" style="fill:none;stroke:#b0b0b0;stroke-linecap:square;stroke-width:0.8;"/>
     </g>
     <g id="line2d_12">
      <g>
       <use style="stroke:#000000;stroke-width:0.8;" x="293.589714" xlink:href="#mce1120e5f3" y="294.88"/>
      </g>
     </g>
     <g id="text_4">
      <!-- 6 -->
      <defs>
       <path d="M 33.015625 40.375 
Q 26.375 40.375 22.484375 35.828125 
Q 18.609375 31.296875 18.609375 23.390625 
Q 18.609375 15.53125 22.484375 10.953125 
Q 26.375 6.390625 33.015625 6.390625 
Q 39.65625 6.390625 43.53125 10.953125 
Q 47.40625 15.53125 47.40625 23.390625 
Q 47.40625 31.296875 43.53125 35.828125 
Q 39.65625 40.375 33.015625 40.375 
z
M 52.59375 71.296875 
L 52.59375 62.3125 
Q 48.875 64.0625 45.09375 64.984375 
Q 41.3125 65.921875 37.59375 65.921875 
Q 27.828125 65.921875 22.671875 59.328125 
Q 17.53125 52.734375 16.796875 39.40625 
Q 19.671875 43.65625 24.015625 45.921875 
Q 28.375 48.1875 33.59375 48.1875 
Q 44.578125 48.1875 50.953125 41.515625 
Q 57.328125 34.859375 57.328125 23.390625 
Q 57.328125 12.15625 50.6875 5.359375 
Q 44.046875 -1.421875 33.015625 -1.421875 
Q 20.359375 -1.421875 13.671875 8.265625 
Q 6.984375 17.96875 6.984375 36.375 
Q 6.984375 53.65625 15.1875 63.9375 
Q 23.390625 74.21875 37.203125 74.21875 
Q 40.921875 74.21875 44.703125 73.484375 
Q 48.484375 72.75 52.59375 71.296875 
z
" id="DejaVuSans-36"/>
      </defs>
      <g transform="translate(287.227214 317.076875)scale(0.2 -0.2)">
       <use xlink:href="#DejaVuSans-36"/>
      </g>
     </g>
    </g>
    <g id="xtick_5">
     <g id="line2d_13">
      <path clip-path="url(#pfdd19e2890)" d="M 56.12 294.88 
L 56.12 24.84 
" style="fill:none;stroke:#b0b0b0;stroke-linecap:square;stroke-width:0.8;"/>
     </g>
     <g id="line2d_14">
      <defs>
       <path d="M 0 0 
L 0 2 
" id="m817c609e6d" style="stroke:#000000;stroke-width:0.6;"/>
      </defs>
      <g>
       <use style="stroke:#000000;stroke-width:0.6;" x="56.12" xlink:href="#m817c609e6d" y="294.88"/>
      </g>
     </g>
    </g>
    <g id="xtick_6">
     <g id="line2d_15">
      <path clip-path="url(#pfdd19e2890)" d="M 95.698286 294.88 
L 95.698286 24.84 
" style="fill:none;stroke:#b0b0b0;stroke-linecap:square;stroke-width:0.8;"/>
     </g>
     <g id="line2d_16">
      <g>
       <use style="stroke:#000000;stroke-width:0.6;" x="95.698286" xlink:href="#m817c609e6d" y="294.88"/>
      </g>
     </g>
    </g>
    <g id="xtick_7">
     <g id="line2d_17">
      <path clip-path="url(#pfdd19e2890)" d="M 135.276571 294.88 
L 135.276571 24.84 
" style="fill:none;stroke:#b0b0b0;stroke-linecap:square;stroke-width:0.8;"/>
     </g>
     <g id="line2d_18">
      <g>
       <use style="stroke:#000000;stroke-width:0.6;" x="135.276571" xlink:href="#m817c609e6d" y="294.88"/>
      </g>
     </g>
    </g>
    <g id="xtick_8">
     <g id="line2d_19">
      <path clip-path="url(#pfdd19e2890)" d="M 174.854857 294.88 
L 174.854857 24.84 
" style="fill:none;stroke:#b0b0b0;stroke-linecap:square;stroke-width:0.8;"/>
     </g>
     <g id="line2d_20">
      <g>
       <use style="stroke:#000000;stroke-width:0.6;" x="174.854857" xlink:href="#m817c609e6d" y="294.88"/>
      </g>
     </g>
    </g>
    <g id="xtick_9">
     <g id="line2d_21">
      <path clip-path="url(#pfdd19e2890)" d="M 214.433143 294.88 
L 214.433143 24.84 
" style="fill:none;stroke:#b0b0b0;stroke-linecap:square;stroke-width:0.8;"/>
     </g>
     <g id="line2d_22">
      <g>
       <use style="stroke:#000000;stroke-width:0.6;" x="214.433143" xlink:href="#m817c609e6d" y="294.88"/>
      </g>
     </g>
    </g>
    <g id="xtick_10">
     <g id="line2d_23">
      <path clip-path="url(#pfdd19e2890)" d="M 254.011429 294.88 
L 254.011429 24.84 
" style="fill:none;stroke:#b0b0b0;stroke-linecap:square;stroke-width:0.8;"/>
     </g>
     <g id="line2d_24">
      <g>
       <use style="stroke:#000000;stroke-width:0.6;" x="254.011429" xlink:href="#m817c609e6d" y="294.88"/>
      </g>
     </g>
    </g>
    <g id="xtick_11">
     <g id="line2d_25">
      <path clip-path="url(#pfdd19e2890)" d="M 293.589714 294.88 
L 293.589714 24.84 
" style="fill:none;stroke:#b0b0b0;stroke-linecap:square;stroke-width:0.8;"/>
     </g>
     <g id="line2d_26">
      <g>
       <use style="stroke:#000000;stroke-width:0.6;" x="293.589714" xlink:href="#m817c609e6d" y="294.88"/>
      </g>
     </g>
    </g>
    <g id="xtick_12">
     <g id="line2d_27">
      <path clip-path="url(#pfdd19e2890)" d="M 333.168 294.88 
L 333.168 24.84 
" style="fill:none;stroke:#b0b0b0;stroke-linecap:square;stroke-width:0.8;"/>
     </g>
     <g id="line2d_28">
      <g>
       <use style="stroke:#000000;stroke-width:0.6;" x="333.168" xlink:href="#m817c609e6d" y="294.88"/>
      </g>
     </g>
    </g>
    <g id="text_5">
     <!-- log10(# f-evals / dimension) -->
     <defs>
      <path d="M 9.421875 75.984375 
L 18.40625 75.984375 
L 18.40625 0 
L 9.421875 0 
z
" id="DejaVuSans-6c"/>
      <path d="M 30.609375 48.390625 
Q 23.390625 48.390625 19.1875 42.75 
Q 14.984375 37.109375 14.984375 27.296875 
Q 14.984375 17.484375 19.15625 11.84375 
Q 23.34375 6.203125 30.609375 6.203125 
Q 37.796875 6.203125 41.984375 11.859375 
Q 46.1875 17.53125 46.1875 27.296875 
Q 46.1875 37.015625 41.984375 42.703125 
Q 37.796875 48.390625 30.609375 48.390625 
z
M 30.609375 56 
Q 42.328125 56 49.015625 48.375 
Q 55.71875 40.765625 55.71875 27.296875 
Q 55.71875 13.875 49.015625 6.21875 
Q 42.328125 -1.421875 30.609375 -1.421875 
Q 18.84375 -1.421875 12.171875 6.21875 
Q 5.515625 13.875 5.515625 27.296875 
Q 5.515625 40.765625 12.171875 48.375 
Q 18.84375 56 30.609375 56 
z
" id="DejaVuSans-6f"/>
      <path d="M 45.40625 27.984375 
Q 45.40625 37.75 41.375 43.109375 
Q 37.359375 48.484375 30.078125 48.484375 
Q 22.859375 48.484375 18.828125 43.109375 
Q 14.796875 37.75 14.796875 27.984375 
Q 14.796875 18.265625 18.828125 12.890625 
Q 22.859375 7.515625 30.078125 7.515625 
Q 37.359375 7.515625 41.375 12.890625 
Q 45.40625 18.265625 45.40625 27.984375 
z
M 54.390625 6.78125 
Q 54.390625 -7.171875 48.1875 -13.984375 
Q 42 -20.796875 29.203125 -20.796875 
Q 24.46875 -20.796875 20.265625 -20.09375 
Q 16.0625 -19.390625 12.109375 -17.921875 
L 12.109375 -9.1875 
Q 16.0625 -11.328125 19.921875 -12.34375 
Q 23.78125 -13.375 27.78125 -13.375 
Q 36.625 -13.375 41.015625 -8.765625 
Q 45.40625 -4.15625 45.40625 5.171875 
L 45.40625 9.625 
Q 42.625 4.78125 38.28125 2.390625 
Q 33.9375 0 27.875 0 
Q 17.828125 0 11.671875 7.65625 
Q 5.515625 15.328125 5.515625 27.984375 
Q 5.515625 40.671875 11.671875 48.328125 
Q 17.828125 56 27.875 56 
Q 33.9375 56 38.28125 53.609375 
Q 42.625 51.21875 45.40625 46.390625 
L 45.40625 54.6875 
L 54.390625 54.6875 
z
" id="DejaVuSans-67"/>
      <path d="M 12.40625 8.296875 
L 28.515625 8.296875 
L 28.515625 63.921875 
L 10.984375 60.40625 
L 10.984375 69.390625 
L 28.421875 72.90625 
L 38.28125 72.90625 
L 38.28125 8.296875 
L 54.390625 8.296875 
L 54.390625 0 
L 12.40625 0 
z
" id="DejaVuSans-31"/>
      <path d="M 31 75.875 
Q 24.46875 64.65625 21.28125 53.65625 
Q 18.109375 42.671875 18.109375 31.390625 
Q 18.109375 20.125 21.3125 9.0625 
Q 24.515625 -2 31 -13.1875 
L 23.1875 -13.1875 
Q 15.875 -1.703125 12.234375 9.375 
Q 8.59375 20.453125 8.59375 31.390625 
Q 8.59375 42.28125 12.203125 53.3125 
Q 15.828125 64.359375 23.1875 75.875 
z
" id="DejaVuSans-28"/>
      <path d="M 51.125 44 
L 36.921875 44 
L 32.8125 27.6875 
L 47.125 27.6875 
z
M 43.796875 71.78125 
L 38.71875 51.515625 
L 52.984375 51.515625 
L 58.109375 71.78125 
L 65.921875 71.78125 
L 60.890625 51.515625 
L 76.125 51.515625 
L 76.125 44 
L 58.984375 44 
L 54.984375 27.6875 
L 70.515625 27.6875 
L 70.515625 20.21875 
L 53.078125 20.21875 
L 48 0 
L 40.1875 0 
L 45.21875 20.21875 
L 30.90625 20.21875 
L 25.875 0 
L 18.015625 0 
L 23.09375 20.21875 
L 7.71875 20.21875 
L 7.71875 27.6875 
L 24.90625 27.6875 
L 29 44 
L 13.28125 44 
L 13.28125 51.515625 
L 30.90625 51.515625 
L 35.890625 71.78125 
z
" id="DejaVuSans-23"/>
      <path id="DejaVuSans-20"/>
      <path d="M 37.109375 75.984375 
L 37.109375 68.5 
L 28.515625 68.5 
Q 23.6875 68.5 21.796875 66.546875 
Q 19.921875 64.59375 19.921875 59.515625 
L 19.921875 54.6875 
L 34.71875 54.6875 
L 34.71875 47.703125 
L 19.921875 47.703125 
L 19.921875 0 
L 10.890625 0 
L 10.890625 47.703125 
L 2.296875 47.703125 
L 2.296875 54.6875 
L 10.890625 54.6875 
L 10.890625 58.5 
Q 10.890625 67.625 15.140625 71.796875 
Q 19.390625 75.984375 28.609375 75.984375 
z
" id="DejaVuSans-66"/>
      <path d="M 4.890625 31.390625 
L 31.203125 31.390625 
L 31.203125 23.390625 
L 4.890625 23.390625 
z
" id="DejaVuSans-2d"/>
      <path d="M 56.203125 29.59375 
L 56.203125 25.203125 
L 14.890625 25.203125 
Q 15.484375 15.921875 20.484375 11.0625 
Q 25.484375 6.203125 34.421875 6.203125 
Q 39.59375 6.203125 44.453125 7.46875 
Q 49.3125 8.734375 54.109375 11.28125 
L 54.109375 2.78125 
Q 49.265625 0.734375 44.1875 -0.34375 
Q 39.109375 -1.421875 33.890625 -1.421875 
Q 20.796875 -1.421875 13.15625 6.1875 
Q 5.515625 13.8125 5.515625 26.8125 
Q 5.515625 40.234375 12.765625 48.109375 
Q 20.015625 56 32.328125 56 
Q 43.359375 56 49.78125 48.890625 
Q 56.203125 41.796875 56.203125 29.59375 
z
M 47.21875 32.234375 
Q 47.125 39.59375 43.09375 43.984375 
Q 39.0625 48.390625 32.421875 48.390625 
Q 24.90625 48.390625 20.390625 44.140625 
Q 15.875 39.890625 15.1875 32.171875 
z
" id="DejaVuSans-65"/>
      <path d="M 2.984375 54.6875 
L 12.5 54.6875 
L 29.59375 8.796875 
L 46.6875 54.6875 
L 56.203125 54.6875 
L 35.6875 0 
L 23.484375 0 
z
" id="DejaVuSans-76"/>
      <path d="M 34.28125 27.484375 
Q 23.390625 27.484375 19.1875 25 
Q 14.984375 22.515625 14.984375 16.5 
Q 14.984375 11.71875 18.140625 8.90625 
Q 21.296875 6.109375 26.703125 6.109375 
Q 34.1875 6.109375 38.703125 11.40625 
Q 43.21875 16.703125 43.21875 25.484375 
L 43.21875 27.484375 
z
M 52.203125 31.203125 
L 52.203125 0 
L 43.21875 0 
L 43.21875 8.296875 
Q 40.140625 3.328125 35.546875 0.953125 
Q 30.953125 -1.421875 24.3125 -1.421875 
Q 15.921875 -1.421875 10.953125 3.296875 
Q 6 8.015625 6 15.921875 
Q 6 25.140625 12.171875 29.828125 
Q 18.359375 34.515625 30.609375 34.515625 
L 43.21875 34.515625 
L 43.21875 35.40625 
Q 43.21875 41.609375 39.140625 45 
Q 35.0625 48.390625 27.6875 48.390625 
Q 23 48.390625 18.546875 47.265625 
Q 14.109375 46.140625 10.015625 43.890625 
L 10.015625 52.203125 
Q 14.9375 54.109375 19.578125 55.046875 
Q 24.21875 56 28.609375 56 
Q 40.484375 56 46.34375 49.84375 
Q 52.203125 43.703125 52.203125 31.203125 
z
" id="DejaVuSans-61"/>
      <path d="M 44.28125 53.078125 
L 44.28125 44.578125 
Q 40.484375 46.53125 36.375 47.5 
Q 32.28125 48.484375 27.875 48.484375 
Q 21.1875 48.484375 17.84375 46.4375 
Q 14.5 44.390625 14.5 40.28125 
Q 14.5 37.15625 16.890625 35.375 
Q 19.28125 33.59375 26.515625 31.984375 
L 29.59375 31.296875 
Q 39.15625 29.25 43.1875 25.515625 
Q 47.21875 21.78125 47.21875 15.09375 
Q 47.21875 7.46875 41.1875 3.015625 
Q 35.15625 -1.421875 24.609375 -1.421875 
Q 20.21875 -1.421875 15.453125 -0.5625 
Q 10.6875 0.296875 5.421875 2 
L 5.421875 11.28125 
Q 10.40625 8.6875 15.234375 7.390625 
Q 20.0625 6.109375 24.8125 6.109375 
Q 31.15625 6.109375 34.5625 8.28125 
Q 37.984375 10.453125 37.984375 14.40625 
Q 37.984375 18.0625 35.515625 20.015625 
Q 33.0625 21.96875 24.703125 23.78125 
L 21.578125 24.515625 
Q 13.234375 26.265625 9.515625 29.90625 
Q 5.8125 33.546875 5.8125 39.890625 
Q 5.8125 47.609375 11.28125 51.796875 
Q 16.75 56 26.8125 56 
Q 31.78125 56 36.171875 55.265625 
Q 40.578125 54.546875 44.28125 53.078125 
z
" id="DejaVuSans-73"/>
      <path d="M 25.390625 72.90625 
L 33.6875 72.90625 
L 8.296875 -9.28125 
L 0 -9.28125 
z
" id="DejaVuSans-2f"/>
      <path d="M 45.40625 46.390625 
L 45.40625 75.984375 
L 54.390625 75.984375 
L 54.390625 0 
L 45.40625 0 
L 45.40625 8.203125 
Q 42.578125 3.328125 38.25 0.953125 
Q 33.9375 -1.421875 27.875 -1.421875 
Q 17.96875 -1.421875 11.734375 6.484375 
Q 5.515625 14.40625 5.515625 27.296875 
Q 5.515625 40.1875 11.734375 48.09375 
Q 17.96875 56 27.875 56 
Q 33.9375 56 38.25 53.625 
Q 42.578125 51.265625 45.40625 46.390625 
z
M 14.796875 27.296875 
Q 14.796875 17.390625 18.875 11.75 
Q 22.953125 6.109375 30.078125 6.109375 
Q 37.203125 6.109375 41.296875 11.75 
Q 45.40625 17.390625 45.40625 27.296875 
Q 45.40625 37.203125 41.296875 42.84375 
Q 37.203125 48.484375 30.078125 48.484375 
Q 22.953125 48.484375 18.875 42.84375 
Q 14.796875 37.203125 14.796875 27.296875 
z
" id="DejaVuSans-64"/>
      <path d="M 9.421875 54.6875 
L 18.40625 54.6875 
L 18.40625 0 
L 9.421875 0 
z
M 9.421875 75.984375 
L 18.40625 75.984375 
L 18.40625 64.59375 
L 9.421875 64.59375 
z
" id="DejaVuSans-69"/>
      <path d="M 52 44.1875 
Q 55.375 50.25 60.0625 53.125 
Q 64.75 56 71.09375 56 
Q 79.640625 56 84.28125 50.015625 
Q 88.921875 44.046875 88.921875 33.015625 
L 88.921875 0 
L 79.890625 0 
L 79.890625 32.71875 
Q 79.890625 40.578125 77.09375 44.375 
Q 74.3125 48.1875 68.609375 48.1875 
Q 61.625 48.1875 57.5625 43.546875 
Q 53.515625 38.921875 53.515625 30.90625 
L 53.515625 0 
L 44.484375 0 
L 44.484375 32.71875 
Q 44.484375 40.625 41.703125 44.40625 
Q 38.921875 48.1875 33.109375 48.1875 
Q 26.21875 48.1875 22.15625 43.53125 
Q 18.109375 38.875 18.109375 30.90625 
L 18.109375 0 
L 9.078125 0 
L 9.078125 54.6875 
L 18.109375 54.6875 
L 18.109375 46.1875 
Q 21.1875 51.21875 25.484375 53.609375 
Q 29.78125 56 35.6875 56 
Q 41.65625 56 45.828125 52.96875 
Q 50 49.953125 52 44.1875 
z
" id="DejaVuSans-6d"/>
      <path d="M 54.890625 33.015625 
L 54.890625 0 
L 45.90625 0 
L 45.90625 32.71875 
Q 45.90625 40.484375 42.875 44.328125 
Q 39.84375 48.1875 33.796875 48.1875 
Q 26.515625 48.1875 22.3125 43.546875 
Q 18.109375 38.921875 18.109375 30.90625 
L 18.109375 0 
L 9.078125 0 
L 9.078125 54.6875 
L 18.109375 54.6875 
L 18.109375 46.1875 
Q 21.34375 51.125 25.703125 53.5625 
Q 30.078125 56 35.796875 56 
Q 45.21875 56 50.046875 50.171875 
Q 54.890625 44.34375 54.890625 33.015625 
z
" id="DejaVuSans-6e"/>
      <path d="M 8.015625 75.875 
L 15.828125 75.875 
Q 23.140625 64.359375 26.78125 53.3125 
Q 30.421875 42.28125 30.421875 31.390625 
Q 30.421875 20.453125 26.78125 9.375 
Q 23.140625 -1.703125 15.828125 -13.1875 
L 8.015625 -13.1875 
Q 14.5 -2 17.703125 9.0625 
Q 20.90625 20.125 20.90625 31.390625 
Q 20.90625 42.671875 17.703125 53.65625 
Q 14.5 64.65625 8.015625 75.875 
z
" id="DejaVuSans-29"/>
     </defs>
     <g transform="translate(73.803219 338.153594)scale(0.17 -0.17)">
      <use xlink:href="#DejaVuSans-6c"/>
      <use x="27.783203" xlink:href="#DejaVuSans-6f"/>
      <use x="88.964844" xlink:href="#DejaVuSans-67"/>
      <use x="152.441406" xlink:href="#DejaVuSans-31"/>
      <use x="216.064453" xlink:href="#DejaVuSans-30"/>
      <use x="279.6875" xlink:href="#DejaVuSans-28"/>
      <use x="318.701172" xlink:href="#DejaVuSans-23"/>
      <use x="402.490234" xlink:href="#DejaVuSans-20"/>
      <use x="434.277344" xlink:href="#DejaVuSans-66"/>
      <use x="469.404297" xlink:href="#DejaVuSans-2d"/>
      <use x="505.488281" xlink:href="#DejaVuSans-65"/>
      <use x="567.011719" xlink:href="#DejaVuSans-76"/>
      <use x="626.191406" xlink:href="#DejaVuSans-61"/>
      <use x="687.470703" xlink:href="#DejaVuSans-6c"/>
      <use x="715.253906" xlink:href="#DejaVuSans-73"/>
      <use x="767.353516" xlink:href="#DejaVuSans-20"/>
      <use x="799.140625" xlink:href="#DejaVuSans-2f"/>
      <use x="832.832031" xlink:href="#DejaVuSans-20"/>
      <use x="864.619141" xlink:href="#DejaVuSans-64"/>
      <use x="928.095703" xlink:href="#DejaVuSans-69"/>
      <use x="955.878906" xlink:href="#DejaVuSans-6d"/>
      <use x="1053.291016" xlink:href="#DejaVuSans-65"/>
      <use x="1114.814453" xlink:href="#DejaVuSans-6e"/>
      <use x="1178.193359" xlink:href="#DejaVuSans-73"/>
      <use x="1230.292969" xlink:href="#DejaVuSans-69"/>
      <use x="1258.076172" xlink:href="#DejaVuSans-6f"/>
      <use x="1319.257812" xlink:href="#DejaVuSans-6e"/>
      <use x="1382.636719" xlink:href="#DejaVuSans-29"/>
     </g>
    </g>
   </g>
   <g id="matplotlib.axis_2">
    <g id="ytick_1">
     <g id="line2d_29">
      <path clip-path="url(#pfdd19e2890)" d="M 56.12 294.88 
L 333.168 294.88 
" style="fill:none;stroke:#b0b0b0;stroke-linecap:square;stroke-width:0.8;"/>
     </g>
     <g id="line2d_30">
      <defs>
       <path d="M 0 0 
L -3.5 0 
" id="m24404065d4" style="stroke:#000000;stroke-width:0.8;"/>
      </defs>
      <g>
       <use style="stroke:#000000;stroke-width:0.8;" x="56.12" xlink:href="#m24404065d4" y="294.88"/>
      </g>
     </g>
     <g id="text_6">
      <!-- 0.0 -->
      <defs>
       <path d="M 10.6875 12.40625 
L 21 12.40625 
L 21 0 
L 10.6875 0 
z
" id="DejaVuSans-2e"/>
      </defs>
      <g transform="translate(23.675 300.95875)scale(0.16 -0.16)">
       <use xlink:href="#DejaVuSans-30"/>
       <use x="63.623047" xlink:href="#DejaVuSans-2e"/>
       <use x="95.410156" xlink:href="#DejaVuSans-30"/>
      </g>
     </g>
    </g>
    <g id="ytick_2">
     <g id="line2d_31">
      <path clip-path="url(#pfdd19e2890)" d="M 56.12 241.406733 
L 333.168 241.406733 
" style="fill:none;stroke:#b0b0b0;stroke-linecap:square;stroke-width:0.8;"/>
     </g>
     <g id="line2d_32">
      <g>
       <use style="stroke:#000000;stroke-width:0.8;" x="56.12" xlink:href="#m24404065d4" y="241.406733"/>
      </g>
     </g>
     <g id="text_7">
      <!-- 0.2 -->
      <g transform="translate(23.675 247.485483)scale(0.16 -0.16)">
       <use xlink:href="#DejaVuSans-30"/>
       <use x="63.623047" xlink:href="#DejaVuSans-2e"/>
       <use x="95.410156" xlink:href="#DejaVuSans-32"/>
      </g>
     </g>
    </g>
    <g id="ytick_3">
     <g id="line2d_33">
      <path clip-path="url(#pfdd19e2890)" d="M 56.12 187.933465 
L 333.168 187.933465 
" style="fill:none;stroke:#b0b0b0;stroke-linecap:square;stroke-width:0.8;"/>
     </g>
     <g id="line2d_34">
      <g>
       <use style="stroke:#000000;stroke-width:0.8;" x="56.12" xlink:href="#m24404065d4" y="187.933465"/>
      </g>
     </g>
     <g id="text_8">
      <!-- 0.4 -->
      <g transform="translate(23.675 194.012215)scale(0.16 -0.16)">
       <use xlink:href="#DejaVuSans-30"/>
       <use x="63.623047" xlink:href="#DejaVuSans-2e"/>
       <use x="95.410156" xlink:href="#DejaVuSans-34"/>
      </g>
     </g>
    </g>
    <g id="ytick_4">
     <g id="line2d_35">
      <path clip-path="url(#pfdd19e2890)" d="M 56.12 134.460198 
L 333.168 134.460198 
" style="fill:none;stroke:#b0b0b0;stroke-linecap:square;stroke-width:0.8;"/>
     </g>
     <g id="line2d_36">
      <g>
       <use style="stroke:#000000;stroke-width:0.8;" x="56.12" xlink:href="#m24404065d4" y="134.460198"/>
      </g>
     </g>
     <g id="text_9">
      <!-- 0.6 -->
      <g transform="translate(23.675 140.538948)scale(0.16 -0.16)">
       <use xlink:href="#DejaVuSans-30"/>
       <use x="63.623047" xlink:href="#DejaVuSans-2e"/>
       <use x="95.410156" xlink:href="#DejaVuSans-36"/>
      </g>
     </g>
    </g>
    <g id="ytick_5">
     <g id="line2d_37">
      <path clip-path="url(#pfdd19e2890)" d="M 56.12 80.986931 
L 333.168 80.986931 
" style="fill:none;stroke:#b0b0b0;stroke-linecap:square;stroke-width:0.8;"/>
     </g>
     <g id="line2d_38">
      <g>
       <use style="stroke:#000000;stroke-width:0.8;" x="56.12" xlink:href="#m24404065d4" y="80.986931"/>
      </g>
     </g>
     <g id="text_10">
      <!-- 0.8 -->
      <defs>
       <path d="M 31.78125 34.625 
Q 24.75 34.625 20.71875 30.859375 
Q 16.703125 27.09375 16.703125 20.515625 
Q 16.703125 13.921875 20.71875 10.15625 
Q 24.75 6.390625 31.78125 6.390625 
Q 38.8125 6.390625 42.859375 10.171875 
Q 46.921875 13.96875 46.921875 20.515625 
Q 46.921875 27.09375 42.890625 30.859375 
Q 38.875 34.625 31.78125 34.625 
z
M 21.921875 38.8125 
Q 15.578125 40.375 12.03125 44.71875 
Q 8.5 49.078125 8.5 55.328125 
Q 8.5 64.0625 14.71875 69.140625 
Q 20.953125 74.21875 31.78125 74.21875 
Q 42.671875 74.21875 48.875 69.140625 
Q 55.078125 64.0625 55.078125 55.328125 
Q 55.078125 49.078125 51.53125 44.71875 
Q 48 40.375 41.703125 38.8125 
Q 48.828125 37.15625 52.796875 32.3125 
Q 56.78125 27.484375 56.78125 20.515625 
Q 56.78125 9.90625 50.3125 4.234375 
Q 43.84375 -1.421875 31.78125 -1.421875 
Q 19.734375 -1.421875 13.25 4.234375 
Q 6.78125 9.90625 6.78125 20.515625 
Q 6.78125 27.484375 10.78125 32.3125 
Q 14.796875 37.15625 21.921875 38.8125 
z
M 18.3125 54.390625 
Q 18.3125 48.734375 21.84375 45.5625 
Q 25.390625 42.390625 31.78125 42.390625 
Q 38.140625 42.390625 41.71875 45.5625 
Q 45.3125 48.734375 45.3125 54.390625 
Q 45.3125 60.0625 41.71875 63.234375 
Q 38.140625 66.40625 31.78125 66.40625 
Q 25.390625 66.40625 21.84375 63.234375 
Q 18.3125 60.0625 18.3125 54.390625 
z
" id="DejaVuSans-38"/>
      </defs>
      <g transform="translate(23.675 87.065681)scale(0.16 -0.16)">
       <use xlink:href="#DejaVuSans-30"/>
       <use x="63.623047" xlink:href="#DejaVuSans-2e"/>
       <use x="95.410156" xlink:href="#DejaVuSans-38"/>
      </g>
     </g>
    </g>
    <g id="ytick_6">
     <g id="line2d_39">
      <path clip-path="url(#pfdd19e2890)" d="M 56.12 27.513663 
L 333.168 27.513663 
" style="fill:none;stroke:#b0b0b0;stroke-linecap:square;stroke-width:0.8;"/>
     </g>
     <g id="line2d_40">
      <g>
       <use style="stroke:#000000;stroke-width:0.8;" x="56.12" xlink:href="#m24404065d4" y="27.513663"/>
      </g>
     </g>
     <g id="text_11">
      <!-- 1.0 -->
      <g transform="translate(23.675 33.592413)scale(0.16 -0.16)">
       <use xlink:href="#DejaVuSans-31"/>
       <use x="63.623047" xlink:href="#DejaVuSans-2e"/>
       <use x="95.410156" xlink:href="#DejaVuSans-30"/>
      </g>
     </g>
    </g>
    <g id="text_12">
     <!-- Fraction of function,target pairs -->
     <defs>
      <path d="M 9.8125 72.90625 
L 51.703125 72.90625 
L 51.703125 64.59375 
L 19.671875 64.59375 
L 19.671875 43.109375 
L 48.578125 43.109375 
L 48.578125 34.8125 
L 19.671875 34.8125 
L 19.671875 0 
L 9.8125 0 
z
" id="DejaVuSans-46"/>
      <path d="M 41.109375 46.296875 
Q 39.59375 47.171875 37.8125 47.578125 
Q 36.03125 48 33.890625 48 
Q 26.265625 48 22.1875 43.046875 
Q 18.109375 38.09375 18.109375 28.8125 
L 18.109375 0 
L 9.078125 0 
L 9.078125 54.6875 
L 18.109375 54.6875 
L 18.109375 46.1875 
Q 20.953125 51.171875 25.484375 53.578125 
Q 30.03125 56 36.53125 56 
Q 37.453125 56 38.578125 55.875 
Q 39.703125 55.765625 41.0625 55.515625 
z
" id="DejaVuSans-72"/>
      <path d="M 48.78125 52.59375 
L 48.78125 44.1875 
Q 44.96875 46.296875 41.140625 47.34375 
Q 37.3125 48.390625 33.40625 48.390625 
Q 24.65625 48.390625 19.8125 42.84375 
Q 14.984375 37.3125 14.984375 27.296875 
Q 14.984375 17.28125 19.8125 11.734375 
Q 24.65625 6.203125 33.40625 6.203125 
Q 37.3125 6.203125 41.140625 7.25 
Q 44.96875 8.296875 48.78125 10.40625 
L 48.78125 2.09375 
Q 45.015625 0.34375 40.984375 -0.53125 
Q 36.96875 -1.421875 32.421875 -1.421875 
Q 20.0625 -1.421875 12.78125 6.34375 
Q 5.515625 14.109375 5.515625 27.296875 
Q 5.515625 40.671875 12.859375 48.328125 
Q 20.21875 56 33.015625 56 
Q 37.15625 56 41.109375 55.140625 
Q 45.0625 54.296875 48.78125 52.59375 
z
" id="DejaVuSans-63"/>
      <path d="M 18.3125 70.21875 
L 18.3125 54.6875 
L 36.8125 54.6875 
L 36.8125 47.703125 
L 18.3125 47.703125 
L 18.3125 18.015625 
Q 18.3125 11.328125 20.140625 9.421875 
Q 21.96875 7.515625 27.59375 7.515625 
L 36.8125 7.515625 
L 36.8125 0 
L 27.59375 0 
Q 17.1875 0 13.234375 3.875 
Q 9.28125 7.765625 9.28125 18.015625 
L 9.28125 47.703125 
L 2.6875 47.703125 
L 2.6875 54.6875 
L 9.28125 54.6875 
L 9.28125 70.21875 
z
" id="DejaVuSans-74"/>
      <path d="M 8.5 21.578125 
L 8.5 54.6875 
L 17.484375 54.6875 
L 17.484375 21.921875 
Q 17.484375 14.15625 20.5 10.265625 
Q 23.53125 6.390625 29.59375 6.390625 
Q 36.859375 6.390625 41.078125 11.03125 
Q 45.3125 15.671875 45.3125 23.6875 
L 45.3125 54.6875 
L 54.296875 54.6875 
L 54.296875 0 
L 45.3125 0 
L 45.3125 8.40625 
Q 42.046875 3.421875 37.71875 1 
Q 33.40625 -1.421875 27.6875 -1.421875 
Q 18.265625 -1.421875 13.375 4.4375 
Q 8.5 10.296875 8.5 21.578125 
z
M 31.109375 56 
z
" id="DejaVuSans-75"/>
      <path d="M 11.71875 12.40625 
L 22.015625 12.40625 
L 22.015625 4 
L 14.015625 -11.625 
L 7.71875 -11.625 
L 11.71875 4 
z
" id="DejaVuSans-2c"/>
      <path d="M 18.109375 8.203125 
L 18.109375 -20.796875 
L 9.078125 -20.796875 
L 9.078125 54.6875 
L 18.109375 54.6875 
L 18.109375 46.390625 
Q 20.953125 51.265625 25.265625 53.625 
Q 29.59375 56 35.59375 56 
Q 45.5625 56 51.78125 48.09375 
Q 58.015625 40.1875 58.015625 27.296875 
Q 58.015625 14.40625 51.78125 6.484375 
Q 45.5625 -1.421875 35.59375 -1.421875 
Q 29.59375 -1.421875 25.265625 0.953125 
Q 20.953125 3.328125 18.109375 8.203125 
z
M 48.6875 27.296875 
Q 48.6875 37.203125 44.609375 42.84375 
Q 40.53125 48.484375 33.40625 48.484375 
Q 26.265625 48.484375 22.1875 42.84375 
Q 18.109375 37.203125 18.109375 27.296875 
Q 18.109375 17.390625 22.1875 11.75 
Q 26.265625 6.109375 33.40625 6.109375 
Q 40.53125 6.109375 44.609375 11.75 
Q 48.6875 17.390625 48.6875 27.296875 
z
" id="DejaVuSans-70"/>
     </defs>
     <g transform="translate(16.139531 294.999375)rotate(-90)scale(0.17 -0.17)">
      <use xlink:href="#DejaVuSans-46"/>
      <use x="57.410156" xlink:href="#DejaVuSans-72"/>
      <use x="98.523438" xlink:href="#DejaVuSans-61"/>
      <use x="159.802734" xlink:href="#DejaVuSans-63"/>
      <use x="214.783203" xlink:href="#DejaVuSans-74"/>
      <use x="253.992188" xlink:href="#DejaVuSans-69"/>
      <use x="281.775391" xlink:href="#DejaVuSans-6f"/>
      <use x="342.957031" xlink:href="#DejaVuSans-6e"/>
      <use x="406.335938" xlink:href="#DejaVuSans-20"/>
      <use x="438.123047" xlink:href="#DejaVuSans-6f"/>
      <use x="499.304688" xlink:href="#DejaVuSans-66"/>
      <use x="534.509766" xlink:href="#DejaVuSans-20"/>
      <use x="566.296875" xlink:href="#DejaVuSans-66"/>
      <use x="601.501953" xlink:href="#DejaVuSans-75"/>
      <use x="664.880859" xlink:href="#DejaVuSans-6e"/>
      <use x="728.259766" xlink:href="#DejaVuSans-63"/>
      <use x="783.240234" xlink:href="#DejaVuSans-74"/>
      <use x="822.449219" xlink:href="#DejaVuSans-69"/>
      <use x="850.232422" xlink:href="#DejaVuSans-6f"/>
      <use x="911.414062" xlink:href="#DejaVuSans-6e"/>
      <use x="974.792969" xlink:href="#DejaVuSans-2c"/>
      <use x="1006.580078" xlink:href="#DejaVuSans-74"/>
      <use x="1045.789062" xlink:href="#DejaVuSans-61"/>
      <use x="1107.068359" xlink:href="#DejaVuSans-72"/>
      <use x="1148.166016" xlink:href="#DejaVuSans-67"/>
      <use x="1211.642578" xlink:href="#DejaVuSans-65"/>
      <use x="1273.166016" xlink:href="#DejaVuSans-74"/>
      <use x="1312.375" xlink:href="#DejaVuSans-20"/>
      <use x="1344.162109" xlink:href="#DejaVuSans-70"/>
      <use x="1407.638672" xlink:href="#DejaVuSans-61"/>
      <use x="1468.917969" xlink:href="#DejaVuSans-69"/>
      <use x="1496.701172" xlink:href="#DejaVuSans-72"/>
      <use x="1537.814453" xlink:href="#DejaVuSans-73"/>
     </g>
    </g>
   </g>
   <g id="line2d_41">
    <defs>
     <path d="M 0 1.5 
C 0.397805 1.5 0.77937 1.341951 1.06066 1.06066 
C 1.341951 0.77937 1.5 0.397805 1.5 0 
C 1.5 -0.397805 1.341951 -0.77937 1.06066 -1.06066 
C 0.77937 -1.341951 0.397805 -1.5 0 -1.5 
C -0.397805 -1.5 -0.77937 -1.341951 -1.06066 -1.06066 
C -1.341951 -0.77937 -1.5 -0.397805 -1.5 0 
C -1.5 0.397805 -1.341951 0.77937 -1.06066 1.06066 
C -0.77937 1.341951 -0.397805 1.5 0 1.5 
z
" id="m2e929ac215" style="stroke:#f5deb3;"/>
    </defs>
    <g>
     <use style="fill:#f5deb3;stroke:#f5deb3;" x="124.200956" xlink:href="#m2e929ac215" y="27.513663"/>
     <use style="fill:#f5deb3;stroke:#f5deb3;" x="124.200956" xlink:href="#m2e929ac215" y="27.513663"/>
    </g>
   </g>
   <g id="line2d_42">
    <defs>
     <path d="M 0 1.5 
C 0.397805 1.5 0.77937 1.341951 1.06066 1.06066 
C 1.341951 0.77937 1.5 0.397805 1.5 0 
C 1.5 -0.397805 1.341951 -0.77937 1.06066 -1.06066 
C 0.77937 -1.341951 0.397805 -1.5 0 -1.5 
C -0.397805 -1.5 -0.77937 -1.341951 -1.06066 -1.06066 
C -1.341951 -0.77937 -1.5 -0.397805 -1.5 0 
C -1.5 0.397805 -1.341951 0.77937 -1.06066 1.06066 
C -0.77937 1.341951 -0.397805 1.5 0 1.5 
z
" id="mf8dcab9bc9" style="stroke:#000080;"/>
    </defs>
    <g>
     <use style="fill:#000080;stroke:#000080;" x="263.391902" xlink:href="#mf8dcab9bc9" y="200.515411"/>
     <use style="fill:#000080;stroke:#000080;" x="263.391902" xlink:href="#mf8dcab9bc9" y="200.515411"/>
    </g>
   </g>
   <g id="line2d_43">
    <path d="M 107.612537 294.88 
L 107.612537 293.831505 
L 122.660646 293.831505 
L 122.660646 292.783009 
L 134.574897 292.783009 
L 134.574897 291.734514 
L 136.519665 291.734514 
L 136.519665 290.686018 
L 136.836515 290.686018 
L 136.836515 289.637523 
L 138.904592 289.637523 
L 138.904592 289.113275 
L 141.3643 289.113275 
L 141.3643 288.589027 
L 144.039767 288.589027 
L 144.039767 288.06478 
L 148.711478 288.06478 
L 148.750766 283.870798 
L 149.630465 283.870798 
L 149.630465 281.249559 
L 152.633326 281.249559 
L 152.633326 280.201064 
L 155.667752 280.201064 
L 155.667752 278.628321 
L 160.58635 278.628321 
L 160.58635 275.482834 
L 163.64778 275.482834 
L 163.64778 273.385844 
L 165.65397 273.385844 
L 165.65397 272.337348 
L 165.843741 272.337348 
L 165.843741 268.143366 
L 167.410577 268.143366 
L 167.410577 267.619119 
L 172.020888 267.619119 
L 172.020888 267.094871 
L 174.83766 267.094871 
L 174.83766 264.99788 
L 179.730826 264.99788 
L 179.730826 264.473632 
L 181.864307 264.473632 
L 181.864307 263.949385 
L 183.690166 263.949385 
L 183.690166 263.425137 
L 187.562668 263.425137 
L 187.562668 262.900889 
L 189.111534 262.900889 
L 189.111534 262.376641 
L 189.375722 262.376641 
L 189.375722 261.852394 
L 189.7952 261.852394 
L 189.7952 261.328146 
L 190.158881 261.328146 
L 190.158881 260.803898 
L 190.438832 260.803898 
L 190.438832 260.279651 
L 190.741602 260.279651 
L 190.741602 259.755403 
L 192.674945 259.755403 
L 192.674945 259.231155 
L 192.814567 259.231155 
L 192.814567 258.706907 
L 192.935063 258.706907 
L 192.935063 258.18266 
L 194.804802 258.18266 
L 194.804802 257.658412 
L 196.183112 257.658412 
L 196.183112 257.134164 
L 197.378114 257.134164 
L 197.378114 256.609917 
L 197.624377 256.609917 
L 197.624377 256.085669 
L 197.939109 256.085669 
L 197.945838 255.037173 
L 198.064296 255.037173 
L 198.064296 254.512926 
L 198.368958 254.512926 
L 198.368958 253.988678 
L 199.040583 253.988678 
L 199.040583 253.46443 
L 199.361641 253.46443 
L 199.361641 252.940182 
L 199.680868 252.940182 
L 199.680868 252.415935 
L 200.211879 252.415935 
L 200.211879 251.891687 
L 201.367342 251.891687 
L 201.367342 251.367439 
L 204.843309 251.367439 
L 204.843309 250.843192 
L 205.995938 250.843192 
L 205.995938 250.318944 
L 207.004758 250.318944 
L 207.004758 249.794696 
L 207.301415 249.794696 
L 207.301415 249.270448 
L 207.576398 249.270448 
L 207.576398 248.746201 
L 209.050753 248.746201 
L 209.135177 247.697705 
L 209.331727 247.697705 
L 209.331727 247.173458 
L 210.144794 247.173458 
L 210.232805 246.124962 
L 210.760132 246.124962 
L 210.760132 245.600714 
L 211.155677 245.600714 
L 211.238674 244.552219 
L 212.834723 244.552219 
L 212.834723 244.027971 
L 213.074498 244.027971 
L 213.074498 243.503724 
L 213.574987 243.503724 
L 213.574987 242.979476 
L 215.304488 242.979476 
L 215.304488 242.455228 
L 216.012697 242.455228 
L 216.012697 241.93098 
L 216.641558 241.93098 
L 216.641558 241.406733 
L 216.787563 241.406733 
L 216.787563 240.882485 
L 221.269091 240.882485 
L 221.337092 239.83399 
L 221.575835 239.83399 
L 221.575835 239.309742 
L 223.472838 239.309742 
L 223.472838 238.785494 
L 223.738958 238.785494 
L 223.738958 238.261246 
L 223.89727 238.261246 
L 223.89727 237.736999 
L 224.854288 237.736999 
L 224.854288 237.212751 
L 225.136928 237.212751 
L 225.239899 236.164255 
L 225.36047 236.164255 
L 225.36047 235.640008 
L 225.609873 235.640008 
L 225.609873 235.11576 
L 226.484356 235.11576 
L 226.484356 234.591512 
L 226.771826 234.591512 
L 226.771826 234.067265 
L 227.038064 234.067265 
L 227.038064 233.543017 
L 227.622436 233.543017 
L 227.622436 233.018769 
L 228.181414 233.018769 
L 228.261562 231.970274 
L 228.889638 231.970274 
L 228.889638 231.446026 
L 229.56413 231.446026 
L 229.663626 230.397531 
L 229.919653 230.397531 
L 229.919653 229.873283 
L 230.237842 229.873283 
L 230.237842 229.349035 
L 230.609371 229.349035 
L 230.609371 228.824787 
L 230.798801 228.824787 
L 230.798801 228.30054 
L 231.964959 228.30054 
L 231.964959 227.776292 
L 232.265417 227.776292 
L 232.265417 227.252044 
L 232.507344 227.252044 
L 232.507344 226.727797 
L 232.753019 226.727797 
L 232.753019 226.203549 
L 233.993138 226.203549 
L 234.041544 225.155053 
L 234.272883 225.155053 
L 234.272883 224.630806 
L 234.49259 224.630806 
L 234.49259 224.106558 
L 235.905418 224.106558 
L 235.905418 223.58231 
L 236.57244 223.58231 
L 236.57244 223.058063 
L 237.188946 223.058063 
L 237.188946 222.533815 
L 237.352822 222.533815 
L 237.352822 222.009567 
L 238.338821 222.009567 
L 238.417354 220.961072 
L 238.492139 220.961072 
L 238.492139 220.436824 
L 239.238867 220.436824 
L 239.238867 219.912576 
L 239.982516 219.912576 
L 239.982516 219.388328 
L 240.40342 219.388328 
L 240.40342 218.864081 
L 240.552999 218.864081 
L 240.552999 218.339833 
L 241.134266 218.339833 
L 241.134266 217.815585 
L 242.220492 217.815585 
L 242.220492 217.291338 
L 242.581205 217.291338 
L 242.581205 216.76709 
L 243.536772 216.76709 
L 243.536772 216.242842 
L 244.571088 216.242842 
L 244.571088 215.718594 
L 245.276811 215.718594 
L 245.276811 215.194347 
L 246.200136 215.194347 
L 246.269045 214.145851 
L 248.338135 214.145851 
L 248.338135 213.621604 
L 248.649949 213.621604 
L 248.723052 212.573108 
L 249.102283 212.573108 
L 249.102283 212.04886 
L 249.870683 212.04886 
L 249.870683 211.524613 
L 250.437737 211.524613 
L 250.508692 210.476117 
L 250.622115 210.476117 
L 250.622115 209.95187 
L 250.850873 209.95187 
L 250.850873 209.427622 
L 251.447746 209.427622 
L 251.447746 208.903374 
L 252.824553 208.903374 
L 252.824553 208.379126 
L 252.938364 208.379126 
L 253.002645 207.330631 
L 253.269601 207.330631 
L 253.269601 206.806383 
L 254.376731 206.806383 
L 254.376731 206.282136 
L 255.387042 206.282136 
L 255.387042 205.757888 
L 255.77346 205.757888 
L 255.77346 205.23364 
L 256.451966 205.23364 
L 256.451966 204.709392 
L 257.260066 204.709392 
L 257.260066 204.185145 
L 258.151173 204.185145 
L 258.151173 203.660897 
L 259.162175 203.660897 
L 259.162175 203.136649 
L 260.077915 203.136649 
L 260.077915 202.612401 
L 261.166368 202.612401 
L 261.166368 202.088154 
L 261.552413 202.088154 
L 261.552413 201.563906 
L 262.821224 201.563906 
L 262.821224 201.039658 
L 263.391902 201.039658 
L 263.391902 200.515411 
L 333.168 200.515411 
L 333.168 200.515411 
" style="fill:none;stroke:#000080;stroke-linecap:square;stroke-width:1.5;"/>
   </g>
   <g id="line2d_44">
    <defs>
     <path d="M 0 6 
C 1.591219 6 3.117479 5.367802 4.242641 4.242641 
C 5.367802 3.117479 6 1.591219 6 0 
C 6 -1.591219 5.367802 -3.117479 4.242641 -4.242641 
C 3.117479 -5.367802 1.591219 -6 0 -6 
C -1.591219 -6 -3.117479 -5.367802 -4.242641 -4.242641 
C -5.367802 -3.117479 -6 -1.591219 -6 0 
C -6 1.591219 -5.367802 3.117479 -4.242641 4.242641 
C -3.117479 5.367802 -1.591219 6 0 6 
z
" id="m7e057dc649" style="stroke:#000080;stroke-width:1.5;"/>
    </defs>
    <g>
     <use style="fill:none;stroke:#000080;stroke-width:1.5;" x="174.83766" xlink:href="#m7e057dc649" y="264.99788"/>
     <use style="fill:none;stroke:#000080;stroke-width:1.5;" x="246.200136" xlink:href="#m7e057dc649" y="214.670099"/>
     <use style="fill:none;stroke:#000080;stroke-width:1.5;" x="263.391902" xlink:href="#m7e057dc649" y="200.515411"/>
     <use style="fill:none;stroke:#000080;stroke-width:1.5;" x="263.391902" xlink:href="#m7e057dc649" y="200.515411"/>
     <use style="fill:none;stroke:#000080;stroke-width:1.5;" x="333.168" xlink:href="#m7e057dc649" y="200.515411"/>
    </g>
   </g>
   <g id="line2d_45">
    <path style="fill:none;stroke:#000080;stroke-linecap:square;stroke-width:1.5;"/>
    <g/>
   </g>
   <g id="line2d_46">
    <path clip-path="url(#pfdd19e2890)" d="M 187.109488 263.425137 
" style="fill:none;stroke:#000080;stroke-linecap:square;stroke-width:1.5;"/>
    <defs>
     <path d="M -12 12 
L 12 -12 
M -12 -12 
L 12 12 
" id="m50038e760b" style="stroke:#000080;"/>
    </defs>
    <g clip-path="url(#pfdd19e2890)">
     <use style="fill:#000080;stroke:#000080;" x="187.109488" xlink:href="#m50038e760b" y="263.425137"/>
    </g>
   </g>
   <g id="line2d_47">
    <defs>
     <path d="M 0 1.5 
C 0.397805 1.5 0.77937 1.341951 1.06066 1.06066 
C 1.341951 0.77937 1.5 0.397805 1.5 0 
C 1.5 -0.397805 1.341951 -0.77937 1.06066 -1.06066 
C 0.77937 -1.341951 0.397805 -1.5 0 -1.5 
C -0.397805 -1.5 -0.77937 -1.341951 -1.06066 -1.06066 
C -1.341951 -0.77937 -1.5 -0.397805 -1.5 0 
C -1.5 0.397805 -1.341951 0.77937 -1.06066 1.06066 
C -0.77937 1.341951 -0.397805 1.5 0 1.5 
z
" id="mb8e615ff92" style="stroke:#ff00ff;"/>
    </defs>
    <g>
     <use style="fill:#ff00ff;stroke:#ff00ff;" x="226.659946" xlink:href="#mb8e615ff92" y="27.513663"/>
     <use style="fill:#ff00ff;stroke:#ff00ff;" x="226.659946" xlink:href="#mb8e615ff92" y="27.513663"/>
    </g>
   </g>
   <g id="line2d_48">
    <path d="M 100.856673 294.88 
L 100.856673 293.307257 
L 106.272485 293.307257 
L 106.272485 291.734514 
L 114.293036 291.734514 
L 114.293036 289.637523 
L 114.866043 289.637523 
L 114.866043 289.113275 
L 115.957752 289.113275 
L 115.957752 287.016284 
L 117.475381 287.016284 
L 117.475381 283.870798 
L 119.310576 283.870798 
L 119.310576 282.298055 
L 119.95122 282.298055 
L 119.95122 281.249559 
L 120.968596 281.249559 
L 120.968596 280.201064 
L 121.16504 280.201064 
L 121.16504 276.53133 
L 121.929105 276.53133 
L 121.929105 276.007082 
L 122.480659 276.007082 
L 122.480659 271.288853 
L 123.015063 271.288853 
L 123.015063 268.143366 
L 123.189569 268.143366 
L 123.189569 267.619119 
L 124.200956 267.619119 
L 124.200956 267.094871 
L 124.843597 267.094871 
L 124.843597 264.473632 
L 126.207287 264.473632 
L 126.207287 263.425137 
L 126.780294 263.425137 
L 126.780294 261.852394 
L 127.334814 261.852394 
L 127.334814 261.328146 
L 127.470694 261.328146 
L 127.470694 260.803898 
L 127.739271 260.803898 
L 127.739271 260.279651 
L 128.264156 260.279651 
L 128.264156 259.755403 
L 129.145817 259.755403 
L 129.145817 258.706907 
L 129.510254 258.706907 
L 129.510254 258.18266 
L 129.630036 258.18266 
L 129.630036 257.658412 
L 129.748989 257.658412 
L 129.748989 257.134164 
L 129.984454 257.134164 
L 129.984454 256.609917 
L 130.445921 256.609917 
L 130.445921 255.561421 
L 131.115693 255.561421 
L 131.115693 255.037173 
L 131.865471 255.037173 
L 131.969962 253.988678 
L 132.177056 253.988678 
L 132.177056 251.891687 
L 132.98135 251.891687 
L 132.98135 250.318944 
L 133.176677 250.318944 
L 133.176677 248.746201 
L 147.104664 248.746201 
L 147.104664 248.221953 
L 148.984628 248.221953 
L 148.984628 247.697705 
L 149.815889 247.697705 
L 149.815889 246.64921 
L 150.108469 246.64921 
L 150.108469 246.124962 
L 150.818844 246.124962 
L 150.818844 245.600714 
L 151.601053 245.600714 
L 151.601053 245.076467 
L 151.733528 245.076467 
L 151.733528 244.552219 
L 152.027918 244.552219 
L 152.124937 241.406733 
L 152.820161 241.406733 
L 152.820161 240.882485 
L 152.97432 240.882485 
L 153.035598 238.261246 
L 153.096659 238.261246 
L 153.187846 235.640008 
L 153.248369 235.640008 
L 153.248369 234.591512 
L 153.488354 234.591512 
L 153.577492 231.446026 
L 153.607102 231.446026 
L 153.695627 227.252044 
L 153.754391 227.252044 
L 153.842163 225.155053 
L 153.871321 225.155053 
L 153.871321 224.106558 
L 153.987461 224.106558 
L 154.045238 222.533815 
L 154.274423 222.533815 
L 154.359586 219.912576 
L 154.444329 219.912576 
L 154.444329 219.388328 
L 154.584645 219.388328 
L 154.668288 215.718594 
L 154.751526 215.718594 
L 154.861887 209.95187 
L 154.916803 209.95187 
L 154.944195 206.282136 
L 155.107638 206.282136 
L 155.161776 204.185145 
L 155.296378 204.185145 
L 155.376636 201.039658 
L 155.483068 201.039658 
L 155.588844 198.942667 
L 155.615187 198.942667 
L 155.720156 196.321429 
L 155.798464 196.321429 
L 155.824488 194.748686 
L 155.92819 194.748686 
L 155.979808 192.127447 
L 156.056945 192.127447 
L 156.08258 190.554704 
L 156.210188 190.554704 
L 156.235596 187.933465 
L 156.336855 187.933465 
L 156.387261 184.263731 
L 156.462595 184.263731 
L 156.562529 180.593997 
L 156.6371 180.593997 
L 156.736028 172.730281 
L 156.785279 172.730281 
L 156.858892 170.109043 
L 156.932191 170.109043 
L 156.980885 166.963557 
L 157.102017 166.963557 
L 157.198312 164.866566 
L 157.270181 164.866566 
L 157.317927 161.721079 
L 157.389299 161.721079 
L 157.460375 156.478602 
L 157.507597 156.478602 
L 157.601653 151.760373 
L 157.625086 151.760373 
L 157.695196 149.139134 
L 157.765022 149.139134 
L 157.857683 144.420905 
L 157.88077 144.420905 
L 157.88077 142.323914 
L 158.04152 142.323914 
L 158.109956 138.65418 
L 158.200781 138.65418 
L 158.246014 136.032941 
L 158.313642 136.032941 
L 158.4034 131.838959 
L 158.448103 131.838959 
L 158.514942 127.12073 
L 158.581522 127.12073 
L 158.647844 125.023739 
L 158.845291 125.023739 
L 158.954011 114.014537 
L 159.018915 114.014537 
L 159.040495 108.77206 
L 159.147992 108.77206 
L 159.212168 105.102326 
L 159.3186 105.102326 
L 159.424376 103.529583 
L 159.445454 103.529583 
L 159.508531 101.432592 
L 159.571378 101.432592 
L 159.675615 93.568876 
L 159.717134 93.568876 
L 159.820493 82.035426 
L 159.96416 82.035426 
L 160.04572 78.365692 
L 160.147128 78.365692 
L 160.147128 77.317197 
L 160.288102 77.317197 
L 160.308147 74.695958 
L 160.408023 74.695958 
L 160.487508 73.647463 
L 160.665017 73.647463 
L 160.665017 73.123215 
L 160.995391 73.123215 
L 160.995391 72.598967 
L 161.110494 72.598967 
L 161.148691 69.977729 
L 161.262775 69.977729 
L 161.35727 65.259499 
L 161.563349 65.259499 
L 161.563349 64.211004 
L 162.470133 64.211004 
L 162.470133 63.686756 
L 162.819862 63.686756 
L 162.888963 61.589765 
L 173.57972 61.589765 
L 173.57972 61.065517 
L 174.682106 61.065517 
L 174.682106 60.54127 
L 174.83766 60.54127 
L 174.863449 59.492774 
L 175.093829 59.492774 
L 175.093829 58.968526 
L 175.312795 58.968526 
L 175.312795 56.871536 
L 175.701676 56.871536 
L 175.701676 56.347288 
L 175.832079 56.347288 
L 175.832079 55.82304 
L 176.017817 55.82304 
L 176.017817 54.774545 
L 176.201569 54.774545 
L 176.201569 54.250297 
L 176.320357 54.250297 
L 176.320357 53.726049 
L 176.485294 53.726049 
L 176.516532 51.104811 
L 176.664141 51.104811 
L 176.664141 50.580563 
L 176.848802 50.580563 
L 176.848802 47.435077 
L 177.114591 47.435077 
L 177.114591 45.862334 
L 177.234739 45.862334 
L 177.234739 45.338086 
L 177.538839 45.338086 
L 177.538839 44.813838 
L 214.483775 44.813838 
L 214.584593 42.716847 
L 214.835761 42.716847 
L 214.932037 40.095609 
L 214.95373 40.095609 
L 215.040226 35.901627 
L 215.065096 35.901627 
L 215.14444 29.610654 
L 215.198777 29.610654 
L 215.198777 29.086407 
L 216.055761 29.086407 
L 216.055761 28.562159 
L 216.262528 28.562159 
L 216.262528 28.037911 
L 226.659946 28.037911 
L 226.659946 27.513663 
L 333.168 27.513663 
L 333.168 27.513663 
" style="fill:none;stroke:#ff00ff;stroke-linecap:square;stroke-width:1.5;"/>
   </g>
   <g id="line2d_49">
    <defs>
     <path d="M -0 8.485281 
L 5.091169 0 
L 0 -8.485281 
L -5.091169 -0 
z
" id="m95e3f3dd1c" style="stroke:#ff00ff;stroke-linejoin:miter;stroke-width:1.5;"/>
    </defs>
    <g>
     <use style="fill:none;stroke:#ff00ff;stroke-linejoin:miter;stroke-width:1.5;" x="153.783699" xlink:href="#m95e3f3dd1c" y="226.727797"/>
     <use style="fill:none;stroke:#ff00ff;stroke-linejoin:miter;stroke-width:1.5;" x="176.664141" xlink:href="#m95e3f3dd1c" y="50.580563"/>
     <use style="fill:none;stroke:#ff00ff;stroke-linejoin:miter;stroke-width:1.5;" x="226.659946" xlink:href="#m95e3f3dd1c" y="28.037911"/>
     <use style="fill:none;stroke:#ff00ff;stroke-linejoin:miter;stroke-width:1.5;" x="226.659946" xlink:href="#m95e3f3dd1c" y="27.513663"/>
     <use style="fill:none;stroke:#ff00ff;stroke-linejoin:miter;stroke-width:1.5;" x="333.168" xlink:href="#m95e3f3dd1c" y="27.513663"/>
    </g>
   </g>
   <g id="line2d_50">
    <path style="fill:none;stroke:#ff00ff;stroke-linecap:square;stroke-width:1.5;"/>
    <g/>
   </g>
   <g id="line2d_51">
    <path clip-path="url(#pfdd19e2890)" d="M 214.433143 44.813838 
" style="fill:none;stroke:#ff00ff;stroke-linecap:square;stroke-width:1.5;"/>
    <defs>
     <path d="M -12 12 
L 12 -12 
M -12 -12 
L 12 12 
" id="m8c602b4cc3" style="stroke:#ff00ff;"/>
    </defs>
    <g clip-path="url(#pfdd19e2890)">
     <use style="fill:#ff00ff;stroke:#ff00ff;" x="214.433143" xlink:href="#m8c602b4cc3" y="44.813838"/>
    </g>
   </g>
   <g id="line2d_52">
    <defs>
     <path d="M 0 1.5 
C 0.397805 1.5 0.77937 1.341951 1.06066 1.06066 
C 1.341951 0.77937 1.5 0.397805 1.5 0 
C 1.5 -0.397805 1.341951 -0.77937 1.06066 -1.06066 
C 0.77937 -1.341951 0.397805 -1.5 0 -1.5 
C -0.397805 -1.5 -0.77937 -1.341951 -1.06066 -1.06066 
C -1.341951 -0.77937 -1.5 -0.397805 -1.5 0 
C -1.5 0.397805 -1.341951 0.77937 -1.06066 1.06066 
C -0.77937 1.341951 -0.397805 1.5 0 1.5 
z
" id="ma5050027d6" style="stroke:#ff7500;"/>
    </defs>
    <g>
     <use style="fill:#ff7500;stroke:#ff7500;" x="236.947125" xlink:href="#ma5050027d6" y="27.513663"/>
     <use style="fill:#ff7500;stroke:#ff7500;" x="236.947125" xlink:href="#ma5050027d6" y="27.513663"/>
    </g>
   </g>
   <g id="line2d_53">
    <path d="M 71.869783 294.88 
L 71.869783 290.686018 
L 108.85563 290.686018 
L 108.85563 289.637523 
L 112.449632 289.637523 
L 112.449632 288.589027 
L 113.700266 288.589027 
L 113.700266 288.06478 
L 119.526788 288.06478 
L 119.526788 285.967789 
L 125.463074 285.967789 
L 125.463074 285.443541 
L 125.764637 285.443541 
L 125.764637 283.870798 
L 126.496178 283.870798 
L 126.496178 282.298055 
L 128.898495 282.298055 
L 128.898495 281.773807 
L 129.022601 281.773807 
L 129.022601 279.152568 
L 129.630036 279.152568 
L 129.630036 276.53133 
L 130.33171 276.53133 
L 130.33171 275.482834 
L 130.445921 275.482834 
L 130.445921 273.910091 
L 131.548134 273.910091 
L 131.654565 272.337348 
L 132.279675 272.337348 
L 132.279675 270.764605 
L 132.783777 270.764605 
L 132.783777 269.716109 
L 134.574897 269.716109 
L 134.574897 268.143366 
L 136.033161 268.143366 
L 136.033161 267.094871 
L 140.307161 267.094871 
L 140.307161 266.570623 
L 152.253451 266.570623 
L 152.253451 266.046375 
L 154.998849 266.046375 
L 154.998849 265.522128 
L 156.462595 265.522128 
L 156.512635 264.473632 
L 156.785279 264.473632 
L 156.785279 263.949385 
L 157.695196 263.949385 
L 157.695196 263.425137 
L 157.857683 263.425137 
L 157.857683 262.900889 
L 158.018648 262.900889 
L 158.018648 262.376641 
L 158.336125 262.376641 
L 158.336125 261.852394 
L 158.514942 261.852394 
L 158.537164 259.755403 
L 159.297366 259.755403 
L 159.339807 258.706907 
L 159.550455 258.706907 
L 159.550455 258.18266 
L 159.737856 258.18266 
L 159.737856 257.658412 
L 159.96416 257.658412 
L 159.96416 257.134164 
L 160.566627 257.134164 
L 160.645384 255.561421 
L 160.723782 255.561421 
L 160.723782 254.512926 
L 160.956851 254.512926 
L 161.033844 249.270448 
L 161.544716 249.270448 
L 161.637678 245.076467 
L 161.840442 245.076467 
L 161.95004 242.979476 
L 161.986418 242.979476 
L 161.986418 240.882485 
L 162.167163 240.882485 
L 162.203085 238.261246 
L 162.328224 238.261246 
L 162.346026 236.164255 
L 162.819862 236.164255 
L 162.888963 233.543017 
L 163.145642 233.543017 
L 163.196521 232.494521 
L 163.264126 232.494521 
L 163.264126 230.921778 
L 163.581669 230.921778 
L 163.581669 230.397531 
L 164.167702 230.397531 
L 164.167702 229.349035 
L 164.563224 229.349035 
L 164.610081 225.155053 
L 164.74989 225.155053 
L 164.74989 224.630806 
L 165.207874 224.630806 
L 165.253008 223.058063 
L 165.402605 223.058063 
L 165.462082 218.339833 
L 165.69795 218.339833 
L 165.785573 217.291338 
L 166.002695 217.291338 
L 166.060134 215.718594 
L 166.131664 215.718594 
L 166.217109 213.097356 
L 166.245497 213.097356 
L 166.245497 210.476117 
L 166.470924 210.476117 
L 166.470924 209.427622 
L 166.624209 209.427622 
L 166.651932 208.379126 
L 166.789884 208.379126 
L 166.885795 205.23364 
L 166.940362 205.23364 
L 167.048979 201.039658 
L 167.089534 201.039658 
L 167.183793 192.127447 
L 167.264176 192.127447 
L 167.264176 191.078952 
L 167.397319 191.078952 
L 167.463505 184.263731 
L 167.608225 184.263731 
L 167.699689 180.06975 
L 167.725732 180.06975 
L 167.790669 174.303025 
L 167.958364 174.303025 
L 168.060754 171.681786 
L 168.149847 171.681786 
L 168.251106 163.293823 
L 168.364314 163.293823 
L 168.426886 160.148336 
L 168.674922 160.148336 
L 168.674922 157.00285 
L 169.136553 157.00285 
L 169.136553 156.478602 
L 169.315417 156.478602 
L 169.362801 151.760373 
L 169.492438 151.760373 
L 169.492438 151.236125 
L 169.656029 151.236125 
L 169.760379 149.139134 
L 169.783482 149.139134 
L 169.864099 143.896657 
L 169.944339 143.896657 
L 169.990023 142.323914 
L 170.081029 142.323914 
L 170.081029 141.799666 
L 170.20538 141.799666 
L 170.284046 140.226923 
L 170.317651 140.226923 
L 170.418071 138.65418 
L 170.451415 138.65418 
L 170.517909 134.984446 
L 170.61717 134.984446 
L 170.693978 131.838959 
L 170.748632 131.838959 
L 170.835719 126.072235 
L 171.008579 126.072235 
L 171.105054 125.023739 
L 171.147759 125.023739 
L 171.179718 123.450996 
L 171.338628 123.450996 
L 171.359705 121.354005 
L 171.589867 121.354005 
L 171.589867 120.829757 
L 171.91924 120.829757 
L 172.000606 118.208519 
L 172.132011 118.208519 
L 172.132011 115.58728 
L 172.754963 115.58728 
L 172.754963 114.538785 
L 172.900015 114.538785 
L 172.900015 114.014537 
L 173.309175 114.014537 
L 173.309175 112.441794 
L 173.458967 112.441794 
L 173.4776 110.869051 
L 173.955093 110.869051 
L 173.955093 110.344803 
L 174.8892 110.344803 
L 174.8892 109.820555 
L 176.563282 109.820555 
L 176.563282 108.77206 
L 182.203903 108.77206 
L 182.215108 106.150821 
L 204.371441 106.150821 
L 204.437673 104.05383 
L 204.647004 104.05383 
L 204.647004 103.529583 
L 204.906255 103.529583 
L 204.940628 100.908344 
L 205.05817 100.908344 
L 205.05817 100.384096 
L 205.224915 100.384096 
L 205.311338 98.811353 
L 205.362402 98.811353 
L 205.362402 98.287105 
L 205.523349 98.287105 
L 205.542101 97.23861 
L 208.600588 97.23861 
L 208.65841 95.665867 
L 208.761523 95.665867 
L 208.827144 92.520381 
L 209.268008 92.520381 
L 209.268008 91.996133 
L 209.443533 91.996133 
L 209.540913 90.42339 
L 209.608183 90.42339 
L 209.70011 87.802151 
L 209.722733 87.802151 
L 209.789296 86.229408 
L 209.911596 86.229408 
L 209.969636 84.132417 
L 210.034142 84.132417 
L 210.128241 78.365692 
L 210.15582 78.365692 
L 210.215239 75.220206 
L 210.285397 75.220206 
L 210.3901 71.550472 
L 210.403143 71.550472 
L 210.46821 69.453481 
L 210.526561 69.453481 
L 210.580413 67.880738 
L 210.672647 67.880738 
L 210.745227 65.259499 
L 210.823864 65.259499 
L 210.93167 63.686756 
L 210.961146 63.686756 
L 211.06287 61.065517 
L 211.074368 61.065517 
L 211.116113 58.968526 
L 211.211744 58.968526 
L 211.277958 57.395783 
L 211.466913 57.395783 
L 211.500584 54.774545 
L 211.585993 54.774545 
L 211.632586 53.726049 
L 211.699216 53.726049 
L 211.747513 51.629058 
L 211.814701 51.629058 
L 211.884619 50.580563 
L 212.039419 50.580563 
L 212.087755 49.532068 
L 212.914707 49.532068 
L 212.914707 49.00782 
L 218.564509 49.00782 
L 218.669614 47.435077 
L 218.844703 47.435077 
L 218.949435 45.862334 
L 218.960005 45.862334 
L 218.981127 44.813838 
L 219.150474 44.813838 
L 219.251417 43.765343 
L 219.472069 43.765343 
L 219.472069 43.241095 
L 221.010199 43.241095 
L 221.010199 42.716847 
L 221.222835 42.716847 
L 221.297938 41.144104 
L 221.368121 41.144104 
L 221.407116 40.095609 
L 221.613795 40.095609 
L 221.707488 38.522865 
L 221.88333 38.522865 
L 221.973352 35.901627 
L 222.022608 35.901627 
L 222.022608 35.377379 
L 222.170633 35.377379 
L 222.198007 34.328884 
L 222.397068 34.328884 
L 222.494127 33.280388 
L 222.529578 33.280388 
L 222.529578 32.756141 
L 222.661608 32.756141 
L 222.723266 31.707645 
L 226.197199 31.707645 
L 226.197199 31.183397 
L 227.534032 31.183397 
L 227.534032 30.65915 
L 228.75905 30.65915 
L 228.869241 29.086407 
L 232.950223 29.086407 
L 232.950223 28.562159 
L 236.307526 28.562159 
L 236.307526 28.037911 
L 236.947125 28.037911 
L 236.947125 27.513663 
L 333.168 27.513663 
L 333.168 27.513663 
" style="fill:none;stroke:#ff7500;stroke-linecap:square;stroke-width:1.5;"/>
   </g>
   <g id="line2d_54">
    <defs>
     <path d="M 0 -6 
L -1.347084 -1.854102 
L -5.706339 -1.854102 
L -2.179628 0.708204 
L -3.526712 4.854102 
L -0 2.291796 
L 3.526712 4.854102 
L 2.179628 0.708204 
L 5.706339 -1.854102 
L 1.347084 -1.854102 
z
" id="mc98743461c" style="stroke:#ff7500;stroke-linejoin:bevel;stroke-width:1.5;"/>
    </defs>
    <g>
     <use style="fill:none;stroke:#ff7500;stroke-linejoin:bevel;stroke-width:1.5;" x="167.608225" xlink:href="#mc98743461c" y="184.263731"/>
     <use style="fill:none;stroke:#ff7500;stroke-linejoin:bevel;stroke-width:1.5;" x="221.613795" xlink:href="#mc98743461c" y="39.571361"/>
     <use style="fill:none;stroke:#ff7500;stroke-linejoin:bevel;stroke-width:1.5;" x="236.947125" xlink:href="#mc98743461c" y="27.513663"/>
     <use style="fill:none;stroke:#ff7500;stroke-linejoin:bevel;stroke-width:1.5;" x="236.947125" xlink:href="#mc98743461c" y="27.513663"/>
     <use style="fill:none;stroke:#ff7500;stroke-linejoin:bevel;stroke-width:1.5;" x="333.168" xlink:href="#mc98743461c" y="27.513663"/>
    </g>
   </g>
   <g id="line2d_55">
    <path style="fill:none;stroke:#ff7500;stroke-linecap:square;stroke-width:1.5;"/>
    <g/>
   </g>
   <g id="line2d_56">
    <path clip-path="url(#pfdd19e2890)" d="M 208.633137 96.714362 
" style="fill:none;stroke:#ff7500;stroke-linecap:square;stroke-width:1.5;"/>
    <defs>
     <path d="M -12 12 
L 12 -12 
M -12 -12 
L 12 12 
" id="m6070991139" style="stroke:#ff7500;"/>
    </defs>
    <g clip-path="url(#pfdd19e2890)">
     <use style="fill:#ff7500;stroke:#ff7500;" x="208.633137" xlink:href="#m6070991139" y="96.714362"/>
    </g>
   </g>
   <g id="line2d_57">
    <defs>
     <path d="M 0 1.5 
C 0.397805 1.5 0.77937 1.341951 1.06066 1.06066 
C 1.341951 0.77937 1.5 0.397805 1.5 0 
C 1.5 -0.397805 1.341951 -0.77937 1.06066 -1.06066 
C 0.77937 -1.341951 0.397805 -1.5 0 -1.5 
C -0.397805 -1.5 -0.77937 -1.341951 -1.06066 -1.06066 
C -1.341951 -0.77937 -1.5 -0.397805 -1.5 0 
C -1.5 0.397805 -1.341951 0.77937 -1.06066 1.06066 
C -0.77937 1.341951 -0.397805 1.5 0 1.5 
z
" id="mf39ce57aac" style="stroke:#6495ed;"/>
    </defs>
    <g>
     <use style="fill:#6495ed;stroke:#6495ed;" x="159.592276" xlink:href="#mf39ce57aac" y="27.513663"/>
     <use style="fill:#6495ed;stroke:#6495ed;" x="159.592276" xlink:href="#mf39ce57aac" y="27.513663"/>
    </g>
   </g>
   <g id="line2d_58">
    <path d="M 108.451173 294.88 
L 108.451173 294.355752 
L 110.746395 294.355752 
L 110.746395 293.831505 
L 112.449632 293.831505 
L 112.449632 291.210266 
L 112.770924 291.210266 
L 112.770924 290.161771 
L 114.581927 290.161771 
L 114.581927 289.113275 
L 115.420563 289.113275 
L 115.420563 288.589027 
L 116.73331 288.589027 
L 116.73331 287.540532 
L 118.645127 287.540532 
L 118.645127 286.492036 
L 120.15957 286.492036 
L 120.15957 285.443541 
L 121.359263 285.443541 
L 121.359263 284.919293 
L 122.298767 284.919293 
L 122.298767 282.822302 
L 123.36232 282.822302 
L 123.36232 281.773807 
L 124.363883 281.773807 
L 124.363883 280.201064 
L 124.52528 280.201064 
L 124.52528 279.676816 
L 125.000572 279.676816 
L 125.000572 278.628321 
L 125.764637 278.628321 
L 125.764637 278.104073 
L 126.780294 278.104073 
L 126.780294 276.53133 
L 127.605507 276.53133 
L 127.605507 276.007082 
L 127.872003 276.007082 
L 127.872003 273.910091 
L 128.898495 273.910091 
L 128.898495 273.385844 
L 129.268157 273.385844 
L 129.268157 272.861596 
L 129.630036 272.861596 
L 129.630036 272.337348 
L 129.984454 272.337348 
L 129.984454 271.288853 
L 130.559378 271.288853 
L 130.559378 270.764605 
L 131.224827 270.764605 
L 131.224827 270.240357 
L 131.969962 270.240357 
L 131.969962 268.667614 
L 133.273515 268.667614 
L 133.273515 265.522128 
L 134.39491 265.522128 
L 134.39491 264.99788 
L 136.033161 264.99788 
L 136.033161 264.473632 
L 136.836515 264.473632 
L 136.914823 262.900889 
L 137.975251 262.900889 
L 137.975251 262.376641 
L 138.121538 262.376641 
L 138.121538 261.328146 
L 138.4819 261.328146 
L 138.4819 259.755403 
L 138.623956 259.755403 
L 138.623956 258.706907 
L 139.653523 258.706907 
L 139.653523 258.18266 
L 140.178407 258.18266 
L 140.178407 257.658412 
L 141.484501 257.658412 
L 141.484501 256.609917 
L 141.603867 256.609917 
L 141.603867 256.085669 
L 142.473629 256.085669 
L 142.473629 255.561421 
L 142.975116 255.561421 
L 143.084598 253.988678 
L 143.193387 253.988678 
L 143.301492 250.318944 
L 143.35529 250.318944 
L 143.35529 249.794696 
L 144.346715 249.794696 
L 144.447825 248.221953 
L 144.648278 248.221953 
L 144.698028 246.64921 
L 145.042304 246.64921 
L 145.139415 245.600714 
L 145.187766 245.600714 
L 145.284061 243.503724 
L 145.37982 243.503724 
L 145.4275 239.309742 
L 145.522465 239.309742 
L 145.522465 235.640008 
L 145.710835 235.640008 
L 145.757607 234.067265 
L 145.897164 234.067265 
L 145.897164 233.543017 
L 146.035596 233.543017 
L 146.127269 230.921778 
L 146.172923 230.921778 
L 146.218456 229.349035 
L 146.39939 229.349035 
L 146.39939 228.824787 
L 146.57844 228.824787 
L 146.667271 224.630806 
L 146.711514 224.630806 
L 146.711514 224.106558 
L 146.887358 224.106558 
L 146.974611 218.864081 
L 147.104664 218.864081 
L 147.104664 218.339833 
L 147.233741 218.339833 
L 147.233741 217.815585 
L 147.531203 217.815585 
L 147.615255 213.621604 
L 147.740567 213.621604 
L 147.823604 210.476117 
L 147.906242 210.476117 
L 147.906242 209.95187 
L 148.111115 209.95187 
L 148.192385 206.282136 
L 148.232877 206.282136 
L 148.313575 203.136649 
L 148.513678 203.136649 
L 148.513678 202.612401 
L 148.63263 202.612401 
L 148.711478 201.039658 
L 148.750766 201.039658 
L 148.829074 198.942667 
L 148.868095 198.942667 
L 148.868095 198.41842 
L 149.061881 198.41842 
L 149.100377 195.797181 
L 149.215352 195.797181 
L 149.291576 194.748686 
L 149.329562 194.748686 
L 149.405283 189.506209 
L 149.555732 189.506209 
L 149.555732 188.457713 
L 149.704875 188.457713 
L 149.815889 184.787979 
L 149.852735 184.787979 
L 149.962801 181.118245 
L 149.999334 181.118245 
L 150.108469 177.448511 
L 150.144693 177.448511 
L 150.144693 174.303025 
L 150.324681 174.303025 
L 150.431775 171.681786 
L 150.502803 171.681786 
L 150.502803 169.060547 
L 150.643983 169.060547 
L 150.749113 165.390813 
L 150.784014 165.390813 
L 150.888293 162.245327 
L 150.957462 162.245327 
L 151.060698 154.905859 
L 151.129178 154.905859 
L 151.163317 151.236125 
L 151.265327 151.236125 
L 151.366735 146.517896 
L 151.567774 146.517896 
L 151.601053 141.799666 
L 151.733528 141.799666 
L 151.832219 137.605684 
L 151.8977 137.605684 
L 151.962932 136.032941 
L 152.027918 136.032941 
L 152.092658 130.266216 
L 152.157156 130.266216 
L 152.221413 126.596482 
L 152.317349 126.596482 
L 152.381011 121.354005 
L 152.507631 121.354005 
L 152.601988 118.732766 
L 152.633326 118.732766 
L 152.664606 115.58728 
L 152.758108 115.58728 
L 152.789162 114.014537 
L 152.88199 114.014537 
L 152.97432 104.578078 
L 153.035598 104.578078 
L 153.127109 102.481087 
L 153.187846 102.481087 
L 153.248369 100.908344 
L 153.30868 100.908344 
L 153.36878 97.762858 
L 153.428671 97.762858 
L 153.518118 95.665867 
L 153.54783 95.665867 
L 153.636661 92.520381 
L 153.695627 92.520381 
L 153.783699 84.132417 
L 153.929489 84.132417 
L 154.016374 79.938435 
L 154.102822 79.938435 
L 154.102822 78.88994 
L 154.217413 78.88994 
L 154.245942 72.598967 
L 154.359586 72.598967 
L 154.416128 69.977729 
L 154.556673 69.977729 
L 154.612571 67.35649 
L 154.834363 67.35649 
L 154.889367 61.065517 
L 154.998849 61.065517 
L 155.107638 57.920031 
L 155.134728 57.920031 
L 155.215743 55.298792 
L 155.323172 55.298792 
L 155.323172 54.774545 
L 155.667752 54.774545 
L 155.746298 52.153306 
L 155.850472 52.153306 
L 155.954019 50.056315 
L 156.005559 50.056315 
L 156.08258 46.910829 
L 156.184742 46.910829 
L 156.2863 41.668352 
L 156.336855 41.668352 
L 156.336855 41.144104 
L 156.462595 41.144104 
L 156.512635 39.571361 
L 156.612279 39.571361 
L 156.686635 36.950122 
L 157.198312 36.950122 
L 157.294071 34.328884 
L 157.484002 34.328884 
L 157.507597 29.086407 
L 159.190803 29.086407 
L 159.190803 28.037911 
L 159.592276 28.037911 
L 159.592276 27.513663 
L 333.168 27.513663 
L 333.168 27.513663 
" style="fill:none;stroke:#6495ed;stroke-linecap:square;stroke-width:1.5;"/>
   </g>
   <g id="line2d_59">
    <defs>
     <path d="M -0 6 
L 6 -6 
L -6 -6 
z
" id="m1465f00c0e" style="stroke:#6495ed;stroke-linejoin:miter;stroke-width:1.5;"/>
    </defs>
    <g>
     <use style="fill:none;stroke:#6495ed;stroke-linejoin:miter;stroke-width:1.5;" x="143.301492" xlink:href="#m1465f00c0e" y="251.891687"/>
     <use style="fill:none;stroke:#6495ed;stroke-linejoin:miter;stroke-width:1.5;" x="157.507597" xlink:href="#m1465f00c0e" y="33.804636"/>
     <use style="fill:none;stroke:#6495ed;stroke-linejoin:miter;stroke-width:1.5;" x="159.592276" xlink:href="#m1465f00c0e" y="27.513663"/>
     <use style="fill:none;stroke:#6495ed;stroke-linejoin:miter;stroke-width:1.5;" x="159.592276" xlink:href="#m1465f00c0e" y="27.513663"/>
     <use style="fill:none;stroke:#6495ed;stroke-linejoin:miter;stroke-width:1.5;" x="333.168" xlink:href="#m1465f00c0e" y="27.513663"/>
    </g>
   </g>
   <g id="line2d_60">
    <path style="fill:none;stroke:#6495ed;stroke-linecap:square;stroke-width:1.5;"/>
    <g/>
   </g>
   <g id="line2d_61">
    <defs>
     <path d="M 0 1.5 
C 0.397805 1.5 0.77937 1.341951 1.06066 1.06066 
C 1.341951 0.77937 1.5 0.397805 1.5 0 
C 1.5 -0.397805 1.341951 -0.77937 1.06066 -1.06066 
C 0.77937 -1.341951 0.397805 -1.5 0 -1.5 
C -0.397805 -1.5 -0.77937 -1.341951 -1.06066 -1.06066 
C -1.341951 -0.77937 -1.5 -0.397805 -1.5 0 
C -1.5 0.397805 -1.341951 0.77937 -1.06066 1.06066 
C -0.77937 1.341951 -0.397805 1.5 0 1.5 
z
" id="m3aa6ed9a0b" style="stroke:#ff0000;"/>
    </defs>
    <g>
     <use style="fill:#ff0000;stroke:#ff0000;" x="175.95344" xlink:href="#m3aa6ed9a0b" y="27.513663"/>
     <use style="fill:#ff0000;stroke:#ff0000;" x="175.95344" xlink:href="#m3aa6ed9a0b" y="27.513663"/>
    </g>
   </g>
   <g id="line2d_62">
    <path d="M 98.832144 294.88 
L 98.832144 294.355752 
L 113.700266 294.355752 
L 113.700266 293.307257 
L 113.999206 293.307257 
L 113.999206 292.783009 
L 114.293036 292.783009 
L 114.293036 292.258761 
L 116.220179 292.258761 
L 116.220179 291.734514 
L 116.73331 291.734514 
L 116.73331 291.210266 
L 116.984244 291.210266 
L 116.984244 289.637523 
L 117.715785 289.637523 
L 117.715785 287.540532 
L 117.952873 287.540532 
L 117.952873 286.492036 
L 118.417459 286.492036 
L 118.417459 285.967789 
L 119.09161 285.967789 
L 119.09161 284.919293 
L 119.310576 284.919293 
L 119.310576 283.870798 
L 120.365424 283.870798 
L 120.365424 282.822302 
L 121.16504 282.822302 
L 121.16504 282.298055 
L 121.359263 282.298055 
L 121.359263 281.773807 
L 121.929105 281.773807 
L 121.929105 280.725312 
L 122.114929 280.725312 
L 122.114929 280.201064 
L 122.480659 280.201064 
L 122.480659 278.104073 
L 123.015063 278.104073 
L 123.015063 276.53133 
L 123.36232 276.53133 
L 123.36232 275.482834 
L 124.036471 275.482834 
L 124.036471 274.434339 
L 124.200956 274.434339 
L 124.200956 270.764605 
L 125.000572 270.764605 
L 125.000572 270.240357 
L 125.913457 270.240357 
L 125.913457 268.667614 
L 126.061 268.667614 
L 126.061 266.046375 
L 126.780294 266.046375 
L 126.780294 265.522128 
L 128.520707 265.522128 
L 128.520707 263.949385 
L 128.773486 263.949385 
L 128.773486 263.425137 
L 129.022601 263.425137 
L 129.022601 262.900889 
L 130.445921 262.900889 
L 130.445921 261.328146 
L 131.548134 261.328146 
L 131.548134 260.803898 
L 132.483094 260.803898 
L 132.483094 260.279651 
L 132.783777 260.279651 
L 132.783777 257.658412 
L 148.433916 257.658412 
L 148.433916 257.134164 
L 148.55342 257.134164 
L 148.55342 256.609917 
L 149.443019 256.609917 
L 149.443019 256.085669 
L 149.926191 256.085669 
L 149.926191 255.561421 
L 150.288834 255.561421 
L 150.288834 255.037173 
L 150.502803 255.037173 
L 150.502803 254.512926 
L 150.643983 254.512926 
L 150.643983 253.988678 
L 151.400405 253.988678 
L 151.400405 253.46443 
L 151.53443 253.46443 
L 151.53443 252.415935 
L 151.766488 252.415935 
L 151.864991 251.367439 
L 151.8977 251.367439 
L 151.8977 250.843192 
L 152.124937 250.843192 
L 152.124937 250.318944 
L 152.28543 250.318944 
L 152.28543 249.794696 
L 152.444438 249.794696 
L 152.539141 248.746201 
L 152.601988 248.746201 
L 152.601988 248.221953 
L 152.758108 248.221953 
L 152.851103 245.600714 
L 153.035598 245.600714 
L 153.035598 245.076467 
L 153.157504 245.076467 
L 153.248369 242.455228 
L 153.36878 242.455228 
L 153.36878 241.406733 
L 153.518118 241.406733 
L 153.607102 239.309742 
L 153.666169 239.309742 
L 153.725034 238.261246 
L 153.812956 238.261246 
L 153.871321 237.212751 
L 154.045238 237.212751 
L 154.074054 234.591512 
L 154.359586 234.591512 
L 154.416128 231.970274 
L 154.472484 231.970274 
L 154.500593 228.824787 
L 154.584645 228.824787 
L 154.584645 227.776292 
L 154.779183 227.776292 
L 154.889367 225.155053 
L 154.998849 225.155053 
L 155.107638 219.388328 
L 155.18878 219.388328 
L 155.269542 216.242842 
L 155.349925 216.242842 
L 155.429934 213.621604 
L 155.509573 213.621604 
L 155.615187 212.573108 
L 155.641489 212.573108 
L 155.746298 211.000365 
L 155.824488 211.000365 
L 155.902323 206.282136 
L 155.954019 206.282136 
L 156.056945 202.088154 
L 156.08258 202.088154 
L 156.184742 200.515411 
L 156.235596 200.515411 
L 156.336855 197.369924 
L 156.362076 197.369924 
L 156.462595 188.457713 
L 156.487633 188.457713 
L 156.587422 183.215236 
L 156.661886 183.215236 
L 156.760671 178.497006 
L 156.907793 178.497006 
L 156.980885 169.060547 
L 157.077859 169.060547 
L 157.174289 166.963557 
L 157.198312 166.963557 
L 157.270181 160.672584 
L 157.317927 160.672584 
L 157.389299 155.954354 
L 157.460375 155.954354 
L 157.554689 153.333116 
L 157.601653 153.333116 
L 157.648488 151.236125 
L 157.718503 151.236125 
L 157.765022 147.566391 
L 157.857683 147.566391 
L 157.949847 144.945152 
L 157.972811 144.945152 
L 158.018648 143.372409 
L 158.087174 143.372409 
L 158.155428 140.751171 
L 158.200781 140.751171 
L 158.268586 134.460198 
L 158.313642 134.460198 
L 158.381004 128.169225 
L 158.425766 128.169225 
L 158.514942 125.023739 
L 158.559357 125.023739 
L 158.669895 116.111528 
L 158.691918 116.111528 
L 158.80161 107.199317 
L 158.910606 107.199317 
L 159.018915 103.005335 
L 159.126546 103.005335 
L 159.212168 98.811353 
L 159.276106 98.811353 
L 159.382144 93.568876 
L 159.403273 93.568876 
L 159.403273 91.996133 
L 159.529506 91.996133 
L 159.550455 89.374894 
L 159.654819 89.374894 
L 159.737856 85.180912 
L 159.841091 85.180912 
L 159.902736 83.608169 
L 159.984587 83.608169 
L 160.086355 76.792949 
L 160.207687 76.792949 
L 160.288102 73.647463 
L 160.328169 73.647463 
L 160.408023 68.404985 
L 160.447811 68.404985 
L 160.447811 67.35649 
L 160.58635 67.35649 
L 160.625729 63.686756 
L 160.743325 63.686756 
L 160.782346 56.871536 
L 160.860123 56.871536 
L 160.860123 54.250297 
L 161.033844 54.250297 
L 161.053039 52.677554 
L 161.167758 52.677554 
L 161.167758 52.153306 
L 161.300635 52.153306 
L 161.394923 50.580563 
L 161.544716 50.580563 
L 161.637678 48.483572 
L 161.674723 48.483572 
L 161.78538 45.862334 
L 161.877052 45.862334 
L 161.877052 44.813838 
L 162.004579 44.813838 
L 162.113139 42.192599 
L 162.663364 42.192599 
L 162.663364 40.619856 
L 173.262095 40.619856 
L 173.262095 40.095609 
L 173.57972 40.095609 
L 173.625939 39.047113 
L 173.909752 39.047113 
L 173.909752 38.522865 
L 174.045417 38.522865 
L 174.045417 37.998618 
L 174.331305 37.998618 
L 174.393214 36.950122 
L 174.803214 36.950122 
L 174.846261 35.901627 
L 174.923475 35.901627 
L 174.974758 34.328884 
L 175.136155 34.328884 
L 175.186809 31.707645 
L 175.46277 31.707645 
L 175.553781 29.610654 
L 175.742534 29.610654 
L 175.832079 28.562159 
L 175.872628 28.562159 
L 175.95344 27.513663 
L 333.168 27.513663 
L 333.168 27.513663 
" style="fill:none;stroke:#ff0000;stroke-linecap:square;stroke-width:1.5;"/>
   </g>
   <g id="line2d_63">
    <defs>
     <path d="M 0 -6 
L -5.196152 -3 
L -5.196152 3 
L -0 6 
L 5.196152 3 
L 5.196152 -3 
z
" id="mda78d9dae4" style="stroke:#ff0000;stroke-linejoin:miter;stroke-width:1.5;"/>
    </defs>
    <g>
     <use style="fill:none;stroke:#ff0000;stroke-linejoin:miter;stroke-width:1.5;" x="152.539141" xlink:href="#mda78d9dae4" y="248.746201"/>
     <use style="fill:none;stroke:#ff0000;stroke-linejoin:miter;stroke-width:1.5;" x="160.762847" xlink:href="#mda78d9dae4" y="62.114013"/>
     <use style="fill:none;stroke:#ff0000;stroke-linejoin:miter;stroke-width:1.5;" x="175.95344" xlink:href="#mda78d9dae4" y="27.513663"/>
     <use style="fill:none;stroke:#ff0000;stroke-linejoin:miter;stroke-width:1.5;" x="175.95344" xlink:href="#mda78d9dae4" y="27.513663"/>
     <use style="fill:none;stroke:#ff0000;stroke-linejoin:miter;stroke-width:1.5;" x="333.168" xlink:href="#mda78d9dae4" y="27.513663"/>
    </g>
   </g>
   <g id="line2d_64">
    <path style="fill:none;stroke:#ff0000;stroke-linecap:square;stroke-width:1.5;"/>
    <g/>
   </g>
   <g id="line2d_65">
    <path d="M 333.168 200.515411 
L 363.64328 289.532673 
" style="fill:none;stroke:#000080;stroke-linecap:square;stroke-width:1.5;"/>
    <g>
     <use style="fill:none;stroke:#000080;stroke-width:1.5;" x="333.168" xlink:href="#m7e057dc649" y="200.515411"/>
     <use style="fill:none;stroke:#000080;stroke-width:1.5;" x="363.64328" xlink:href="#m7e057dc649" y="289.532673"/>
    </g>
   </g>
   <g id="line2d_66">
    <path d="M 333.168 27.513663 
L 363.64328 238.198337 
" style="fill:none;stroke:#ff7500;stroke-linecap:square;stroke-width:1.5;"/>
    <g>
     <use style="fill:none;stroke:#ff7500;stroke-linejoin:bevel;stroke-width:1.5;" x="333.168" xlink:href="#mc98743461c" y="27.513663"/>
     <use style="fill:none;stroke:#ff7500;stroke-linejoin:bevel;stroke-width:1.5;" x="363.64328" xlink:href="#mc98743461c" y="238.198337"/>
    </g>
   </g>
   <g id="line2d_67">
    <path d="M 333.168 27.513663 
L 363.64328 186.864 
" style="fill:none;stroke:#ff00ff;stroke-linecap:square;stroke-width:1.5;"/>
    <g>
     <use style="fill:none;stroke:#ff00ff;stroke-linejoin:miter;stroke-width:1.5;" x="333.168" xlink:href="#m95e3f3dd1c" y="27.513663"/>
     <use style="fill:none;stroke:#ff00ff;stroke-linejoin:miter;stroke-width:1.5;" x="363.64328" xlink:href="#m95e3f3dd1c" y="186.864"/>
    </g>
   </g>
   <g id="line2d_68">
    <path d="M 333.168 27.513663 
L 363.64328 135.529663 
" style="fill:none;stroke:#ff0000;stroke-linecap:square;stroke-width:1.5;"/>
    <g>
     <use style="fill:none;stroke:#ff0000;stroke-linejoin:miter;stroke-width:1.5;" x="333.168" xlink:href="#mda78d9dae4" y="27.513663"/>
     <use style="fill:none;stroke:#ff0000;stroke-linejoin:miter;stroke-width:1.5;" x="363.64328" xlink:href="#mda78d9dae4" y="135.529663"/>
    </g>
   </g>
   <g id="line2d_69">
    <path d="M 333.168 27.513663 
L 363.64328 84.195327 
" style="fill:none;stroke:#6495ed;stroke-linecap:square;stroke-width:1.5;"/>
    <g>
     <use style="fill:none;stroke:#6495ed;stroke-linejoin:miter;stroke-width:1.5;" x="333.168" xlink:href="#m1465f00c0e" y="27.513663"/>
     <use style="fill:none;stroke:#6495ed;stroke-linejoin:miter;stroke-width:1.5;" x="363.64328" xlink:href="#m1465f00c0e" y="84.195327"/>
    </g>
   </g>
   <g id="line2d_70">
    <path d="M 333.168 294.88 
L 333.168 27.513663 
" style="fill:none;stroke:#000000;stroke-linecap:square;stroke-width:1.5;"/>
   </g>
   <g id="patch_3">
    <path d="M 56.12 294.88 
L 56.12 24.84 
" style="fill:none;stroke:#000000;stroke-linecap:square;stroke-linejoin:miter;stroke-width:0.8;"/>
   </g>
   <g id="patch_4">
    <path d="M 333.168 294.88 
L 333.168 24.84 
" style="fill:none;stroke:#000000;stroke-linecap:square;stroke-linejoin:miter;stroke-width:0.8;"/>
   </g>
   <g id="patch_5">
    <path d="M 56.12 294.88 
L 333.168 294.88 
" style="fill:none;stroke:#000000;stroke-linecap:square;stroke-linejoin:miter;stroke-width:0.8;"/>
   </g>
   <g id="patch_6">
    <path d="M 56.12 24.84 
L 333.168 24.84 
" style="fill:none;stroke:#000000;stroke-linecap:square;stroke-linejoin:miter;stroke-width:0.8;"/>
   </g>
   <g id="text_13">
    <!-- CMA ES PPM -->
    <defs>
     <path d="M 64.40625 67.28125 
L 64.40625 56.890625 
Q 59.421875 61.53125 53.78125 63.8125 
Q 48.140625 66.109375 41.796875 66.109375 
Q 29.296875 66.109375 22.65625 58.46875 
Q 16.015625 50.828125 16.015625 36.375 
Q 16.015625 21.96875 22.65625 14.328125 
Q 29.296875 6.6875 41.796875 6.6875 
Q 48.140625 6.6875 53.78125 8.984375 
Q 59.421875 11.28125 64.40625 15.921875 
L 64.40625 5.609375 
Q 59.234375 2.09375 53.4375 0.328125 
Q 47.65625 -1.421875 41.21875 -1.421875 
Q 24.65625 -1.421875 15.125 8.703125 
Q 5.609375 18.84375 5.609375 36.375 
Q 5.609375 53.953125 15.125 64.078125 
Q 24.65625 74.21875 41.21875 74.21875 
Q 47.75 74.21875 53.53125 72.484375 
Q 59.328125 70.75 64.40625 67.28125 
z
" id="DejaVuSans-43"/>
     <path d="M 9.8125 72.90625 
L 24.515625 72.90625 
L 43.109375 23.296875 
L 61.8125 72.90625 
L 76.515625 72.90625 
L 76.515625 0 
L 66.890625 0 
L 66.890625 64.015625 
L 48.09375 14.015625 
L 38.1875 14.015625 
L 19.390625 64.015625 
L 19.390625 0 
L 9.8125 0 
z
" id="DejaVuSans-4d"/>
     <path d="M 34.1875 63.1875 
L 20.796875 26.90625 
L 47.609375 26.90625 
z
M 28.609375 72.90625 
L 39.796875 72.90625 
L 67.578125 0 
L 57.328125 0 
L 50.6875 18.703125 
L 17.828125 18.703125 
L 11.1875 0 
L 0.78125 0 
z
" id="DejaVuSans-41"/>
     <path d="M 9.8125 72.90625 
L 55.90625 72.90625 
L 55.90625 64.59375 
L 19.671875 64.59375 
L 19.671875 43.015625 
L 54.390625 43.015625 
L 54.390625 34.71875 
L 19.671875 34.71875 
L 19.671875 8.296875 
L 56.78125 8.296875 
L 56.78125 0 
L 9.8125 0 
z
" id="DejaVuSans-45"/>
     <path d="M 53.515625 70.515625 
L 53.515625 60.890625 
Q 47.90625 63.578125 42.921875 64.890625 
Q 37.9375 66.21875 33.296875 66.21875 
Q 25.25 66.21875 20.875 63.09375 
Q 16.5 59.96875 16.5 54.203125 
Q 16.5 49.359375 19.40625 46.890625 
Q 22.3125 44.4375 30.421875 42.921875 
L 36.375 41.703125 
Q 47.40625 39.59375 52.65625 34.296875 
Q 57.90625 29 57.90625 20.125 
Q 57.90625 9.515625 50.796875 4.046875 
Q 43.703125 -1.421875 29.984375 -1.421875 
Q 24.8125 -1.421875 18.96875 -0.25 
Q 13.140625 0.921875 6.890625 3.21875 
L 6.890625 13.375 
Q 12.890625 10.015625 18.65625 8.296875 
Q 24.421875 6.59375 29.984375 6.59375 
Q 38.421875 6.59375 43.015625 9.90625 
Q 47.609375 13.234375 47.609375 19.390625 
Q 47.609375 24.75 44.3125 27.78125 
Q 41.015625 30.8125 33.5 32.328125 
L 27.484375 33.5 
Q 16.453125 35.6875 11.515625 40.375 
Q 6.59375 45.0625 6.59375 53.421875 
Q 6.59375 63.09375 13.40625 68.65625 
Q 20.21875 74.21875 32.171875 74.21875 
Q 37.3125 74.21875 42.625 73.28125 
Q 47.953125 72.359375 53.515625 70.515625 
z
" id="DejaVuSans-53"/>
     <path d="M 19.671875 64.796875 
L 19.671875 37.40625 
L 32.078125 37.40625 
Q 38.96875 37.40625 42.71875 40.96875 
Q 46.484375 44.53125 46.484375 51.125 
Q 46.484375 57.671875 42.71875 61.234375 
Q 38.96875 64.796875 32.078125 64.796875 
z
M 9.8125 72.90625 
L 32.078125 72.90625 
Q 44.34375 72.90625 50.609375 67.359375 
Q 56.890625 61.8125 56.890625 51.125 
Q 56.890625 40.328125 50.609375 34.8125 
Q 44.34375 29.296875 32.078125 29.296875 
L 19.671875 29.296875 
L 19.671875 0 
L 9.8125 0 
z
" id="DejaVuSans-50"/>
    </defs>
    <g transform="translate(369.18424 294.223611)scale(0.17 -0.17)">
     <use xlink:href="#DejaVuSans-43"/>
     <use x="69.824219" xlink:href="#DejaVuSans-4d"/>
     <use x="156.103516" xlink:href="#DejaVuSans-41"/>
     <use x="224.511719" xlink:href="#DejaVuSans-20"/>
     <use x="256.298828" xlink:href="#DejaVuSans-45"/>
     <use x="319.482422" xlink:href="#DejaVuSans-53"/>
     <use x="382.958984" xlink:href="#DejaVuSans-20"/>
     <use x="414.746094" xlink:href="#DejaVuSans-50"/>
     <use x="475.048828" xlink:href="#DejaVuSans-50"/>
     <use x="535.351562" xlink:href="#DejaVuSans-4d"/>
    </g>
   </g>
   <g id="text_14">
    <!-- ppmf-new -->
    <defs>
     <path d="M 4.203125 54.6875 
L 13.1875 54.6875 
L 24.421875 12.015625 
L 35.59375 54.6875 
L 46.1875 54.6875 
L 57.421875 12.015625 
L 68.609375 54.6875 
L 77.59375 54.6875 
L 63.28125 0 
L 52.6875 0 
L 40.921875 44.828125 
L 29.109375 0 
L 18.5 0 
z
" id="DejaVuSans-77"/>
    </defs>
    <g transform="translate(369.18424 242.889274)scale(0.17 -0.17)">
     <use xlink:href="#DejaVuSans-70"/>
     <use x="63.476562" xlink:href="#DejaVuSans-70"/>
     <use x="126.953125" xlink:href="#DejaVuSans-6d"/>
     <use x="224.365234" xlink:href="#DejaVuSans-66"/>
     <use x="259.492188" xlink:href="#DejaVuSans-2d"/>
     <use x="295.576172" xlink:href="#DejaVuSans-6e"/>
     <use x="358.955078" xlink:href="#DejaVuSans-65"/>
     <use x="420.478516" xlink:href="#DejaVuSans-77"/>
    </g>
   </g>
   <g id="text_15">
    <!-- CMA ES CSA -->
    <g transform="translate(369.18424 191.554937)scale(0.17 -0.17)">
     <use xlink:href="#DejaVuSans-43"/>
     <use x="69.824219" xlink:href="#DejaVuSans-4d"/>
     <use x="156.103516" xlink:href="#DejaVuSans-41"/>
     <use x="224.511719" xlink:href="#DejaVuSans-20"/>
     <use x="256.298828" xlink:href="#DejaVuSans-45"/>
     <use x="319.482422" xlink:href="#DejaVuSans-53"/>
     <use x="382.958984" xlink:href="#DejaVuSans-20"/>
     <use x="414.746094" xlink:href="#DejaVuSans-43"/>
     <use x="484.570312" xlink:href="#DejaVuSans-53"/>
     <use x="548.0625" xlink:href="#DejaVuSans-41"/>
    </g>
   </g>
   <g id="text_16">
    <!-- csa-classi -->
    <g transform="translate(369.18424 140.220601)scale(0.17 -0.17)">
     <use xlink:href="#DejaVuSans-63"/>
     <use x="54.980469" xlink:href="#DejaVuSans-73"/>
     <use x="107.080078" xlink:href="#DejaVuSans-61"/>
     <use x="168.359375" xlink:href="#DejaVuSans-2d"/>
     <use x="204.443359" xlink:href="#DejaVuSans-63"/>
     <use x="259.423828" xlink:href="#DejaVuSans-6c"/>
     <use x="287.207031" xlink:href="#DejaVuSans-61"/>
     <use x="348.486328" xlink:href="#DejaVuSans-73"/>
     <use x="400.585938" xlink:href="#DejaVuSans-73"/>
     <use x="452.685547" xlink:href="#DejaVuSans-69"/>
    </g>
   </g>
   <g id="text_17">
    <!-- CMAES posi -->
    <g transform="translate(369.18424 88.886264)scale(0.17 -0.17)">
     <use xlink:href="#DejaVuSans-43"/>
     <use x="69.824219" xlink:href="#DejaVuSans-4d"/>
     <use x="156.103516" xlink:href="#DejaVuSans-41"/>
     <use x="224.511719" xlink:href="#DejaVuSans-45"/>
     <use x="287.695312" xlink:href="#DejaVuSans-53"/>
     <use x="351.171875" xlink:href="#DejaVuSans-20"/>
     <use x="382.958984" xlink:href="#DejaVuSans-70"/>
     <use x="446.435547" xlink:href="#DejaVuSans-6f"/>
     <use x="507.617188" xlink:href="#DejaVuSans-73"/>
     <use x="559.716797" xlink:href="#DejaVuSans-69"/>
    </g>
   </g>
   <g id="text_18">
    <!-- best 2009 -->
    <defs>
     <path d="M 48.6875 27.296875 
Q 48.6875 37.203125 44.609375 42.84375 
Q 40.53125 48.484375 33.40625 48.484375 
Q 26.265625 48.484375 22.1875 42.84375 
Q 18.109375 37.203125 18.109375 27.296875 
Q 18.109375 17.390625 22.1875 11.75 
Q 26.265625 6.109375 33.40625 6.109375 
Q 40.53125 6.109375 44.609375 11.75 
Q 48.6875 17.390625 48.6875 27.296875 
z
M 18.109375 46.390625 
Q 20.953125 51.265625 25.265625 53.625 
Q 29.59375 56 35.59375 56 
Q 45.5625 56 51.78125 48.09375 
Q 58.015625 40.1875 58.015625 27.296875 
Q 58.015625 14.40625 51.78125 6.484375 
Q 45.5625 -1.421875 35.59375 -1.421875 
Q 29.59375 -1.421875 25.265625 0.953125 
Q 20.953125 3.328125 18.109375 8.203125 
L 18.109375 0 
L 9.078125 0 
L 9.078125 75.984375 
L 18.109375 75.984375 
z
" id="DejaVuSans-62"/>
     <path d="M 10.984375 1.515625 
L 10.984375 10.5 
Q 14.703125 8.734375 18.5 7.8125 
Q 22.3125 6.890625 25.984375 6.890625 
Q 35.75 6.890625 40.890625 13.453125 
Q 46.046875 20.015625 46.78125 33.40625 
Q 43.953125 29.203125 39.59375 26.953125 
Q 35.25 24.703125 29.984375 24.703125 
Q 19.046875 24.703125 12.671875 31.3125 
Q 6.296875 37.9375 6.296875 49.421875 
Q 6.296875 60.640625 12.9375 67.421875 
Q 19.578125 74.21875 30.609375 74.21875 
Q 43.265625 74.21875 49.921875 64.515625 
Q 56.59375 54.828125 56.59375 36.375 
Q 56.59375 19.140625 48.40625 8.859375 
Q 40.234375 -1.421875 26.421875 -1.421875 
Q 22.703125 -1.421875 18.890625 -0.6875 
Q 15.09375 0.046875 10.984375 1.515625 
z
M 30.609375 32.421875 
Q 37.25 32.421875 41.125 36.953125 
Q 45.015625 41.5 45.015625 49.421875 
Q 45.015625 57.28125 41.125 61.84375 
Q 37.25 66.40625 30.609375 66.40625 
Q 23.96875 66.40625 20.09375 61.84375 
Q 16.21875 57.28125 16.21875 49.421875 
Q 16.21875 41.5 20.09375 36.953125 
Q 23.96875 32.421875 30.609375 32.421875 
z
" id="DejaVuSans-39"/>
    </defs>
    <g transform="translate(369.18424 37.551928)scale(0.17 -0.17)">
     <use xlink:href="#DejaVuSans-62"/>
     <use x="63.476562" xlink:href="#DejaVuSans-65"/>
     <use x="125" xlink:href="#DejaVuSans-73"/>
     <use x="177.099609" xlink:href="#DejaVuSans-74"/>
     <use x="216.308594" xlink:href="#DejaVuSans-20"/>
     <use x="248.095703" xlink:href="#DejaVuSans-32"/>
     <use x="311.71875" xlink:href="#DejaVuSans-30"/>
     <use x="375.341797" xlink:href="#DejaVuSans-30"/>
     <use x="438.964844" xlink:href="#DejaVuSans-39"/>
    </g>
   </g>
   <g id="text_19">
    <!-- bbob f11, 2-D -->
    <defs>
     <path d="M 19.671875 64.796875 
L 19.671875 8.109375 
L 31.59375 8.109375 
Q 46.6875 8.109375 53.6875 14.9375 
Q 60.6875 21.78125 60.6875 36.53125 
Q 60.6875 51.171875 53.6875 57.984375 
Q 46.6875 64.796875 31.59375 64.796875 
z
M 9.8125 72.90625 
L 30.078125 72.90625 
Q 51.265625 72.90625 61.171875 64.09375 
Q 71.09375 55.28125 71.09375 36.53125 
Q 71.09375 17.671875 61.125 8.828125 
Q 51.171875 0 30.078125 0 
L 9.8125 0 
z
" id="DejaVuSans-44"/>
    </defs>
    <g transform="translate(58.89048 35.290806)scale(0.102 -0.102)">
     <use xlink:href="#DejaVuSans-62"/>
     <use x="63.476562" xlink:href="#DejaVuSans-62"/>
     <use x="126.953125" xlink:href="#DejaVuSans-6f"/>
     <use x="188.134766" xlink:href="#DejaVuSans-62"/>
     <use x="251.611328" xlink:href="#DejaVuSans-20"/>
     <use x="283.398438" xlink:href="#DejaVuSans-66"/>
     <use x="318.603516" xlink:href="#DejaVuSans-31"/>
     <use x="382.226562" xlink:href="#DejaVuSans-31"/>
     <use x="445.849609" xlink:href="#DejaVuSans-2c"/>
     <use x="477.636719" xlink:href="#DejaVuSans-20"/>
     <use x="509.423828" xlink:href="#DejaVuSans-32"/>
     <use x="573.046875" xlink:href="#DejaVuSans-2d"/>
     <use x="609.130859" xlink:href="#DejaVuSans-44"/>
    </g>
    <!-- 51 targets: 100..1e-08 -->
    <defs>
     <path d="M 10.796875 72.90625 
L 49.515625 72.90625 
L 49.515625 64.59375 
L 19.828125 64.59375 
L 19.828125 46.734375 
Q 21.96875 47.46875 24.109375 47.828125 
Q 26.265625 48.1875 28.421875 48.1875 
Q 40.625 48.1875 47.75 41.5 
Q 54.890625 34.8125 54.890625 23.390625 
Q 54.890625 11.625 47.5625 5.09375 
Q 40.234375 -1.421875 26.90625 -1.421875 
Q 22.3125 -1.421875 17.546875 -0.640625 
Q 12.796875 0.140625 7.71875 1.703125 
L 7.71875 11.625 
Q 12.109375 9.234375 16.796875 8.0625 
Q 21.484375 6.890625 26.703125 6.890625 
Q 35.15625 6.890625 40.078125 11.328125 
Q 45.015625 15.765625 45.015625 23.390625 
Q 45.015625 31 40.078125 35.4375 
Q 35.15625 39.890625 26.703125 39.890625 
Q 22.75 39.890625 18.8125 39.015625 
Q 14.890625 38.140625 10.796875 36.28125 
z
" id="DejaVuSans-35"/>
     <path d="M 11.71875 12.40625 
L 22.015625 12.40625 
L 22.015625 0 
L 11.71875 0 
z
M 11.71875 51.703125 
L 22.015625 51.703125 
L 22.015625 39.3125 
L 11.71875 39.3125 
z
" id="DejaVuSans-3a"/>
    </defs>
    <g transform="translate(58.89048 46.712575)scale(0.102 -0.102)">
     <use xlink:href="#DejaVuSans-35"/>
     <use x="63.623047" xlink:href="#DejaVuSans-31"/>
     <use x="127.246094" xlink:href="#DejaVuSans-20"/>
     <use x="159.033203" xlink:href="#DejaVuSans-74"/>
     <use x="198.242188" xlink:href="#DejaVuSans-61"/>
     <use x="259.521484" xlink:href="#DejaVuSans-72"/>
     <use x="300.619141" xlink:href="#DejaVuSans-67"/>
     <use x="364.095703" xlink:href="#DejaVuSans-65"/>
     <use x="425.619141" xlink:href="#DejaVuSans-74"/>
     <use x="464.828125" xlink:href="#DejaVuSans-73"/>
     <use x="516.927734" xlink:href="#DejaVuSans-3a"/>
     <use x="550.619141" xlink:href="#DejaVuSans-20"/>
     <use x="582.40625" xlink:href="#DejaVuSans-31"/>
     <use x="646.029297" xlink:href="#DejaVuSans-30"/>
     <use x="709.652344" xlink:href="#DejaVuSans-30"/>
     <use x="773.275391" xlink:href="#DejaVuSans-2e"/>
     <use x="805.0625" xlink:href="#DejaVuSans-2e"/>
     <use x="836.849609" xlink:href="#DejaVuSans-31"/>
     <use x="900.472656" xlink:href="#DejaVuSans-65"/>
     <use x="961.996094" xlink:href="#DejaVuSans-2d"/>
     <use x="998.080078" xlink:href="#DejaVuSans-30"/>
     <use x="1061.703125" xlink:href="#DejaVuSans-38"/>
    </g>
    <!-- 15 instances -->
    <g transform="translate(58.89048 58.134344)scale(0.102 -0.102)">
     <use xlink:href="#DejaVuSans-31"/>
     <use x="63.623047" xlink:href="#DejaVuSans-35"/>
     <use x="127.246094" xlink:href="#DejaVuSans-20"/>
     <use x="159.033203" xlink:href="#DejaVuSans-69"/>
     <use x="186.816406" xlink:href="#DejaVuSans-6e"/>
     <use x="250.195312" xlink:href="#DejaVuSans-73"/>
     <use x="302.294922" xlink:href="#DejaVuSans-74"/>
     <use x="341.503906" xlink:href="#DejaVuSans-61"/>
     <use x="402.783203" xlink:href="#DejaVuSans-6e"/>
     <use x="466.162109" xlink:href="#DejaVuSans-63"/>
     <use x="521.142578" xlink:href="#DejaVuSans-65"/>
     <use x="582.666016" xlink:href="#DejaVuSans-73"/>
    </g>
   </g>
   <g id="text_20">
    <!-- v0.0.0 -->
    <g style="fill:#808080;" transform="translate(178.96275 290.099912)scale(0.1 -0.1)">
     <use xlink:href="#DejaVuSans-76"/>
     <use x="59.179688" xlink:href="#DejaVuSans-30"/>
     <use x="122.802734" xlink:href="#DejaVuSans-2e"/>
     <use x="154.589844" xlink:href="#DejaVuSans-30"/>
     <use x="218.212891" xlink:href="#DejaVuSans-2e"/>
     <use x="250" xlink:href="#DejaVuSans-30"/>
    </g>
   </g>
   <g id="text_21">
    <!-- 11 Discus -->
    <g transform="translate(146.008062 18.84)scale(0.2 -0.2)">
     <use xlink:href="#DejaVuSans-31"/>
     <use x="63.623047" xlink:href="#DejaVuSans-31"/>
     <use x="127.246094" xlink:href="#DejaVuSans-20"/>
     <use x="159.033203" xlink:href="#DejaVuSans-44"/>
     <use x="236.035156" xlink:href="#DejaVuSans-69"/>
     <use x="263.818359" xlink:href="#DejaVuSans-73"/>
     <use x="315.917969" xlink:href="#DejaVuSans-63"/>
     <use x="370.898438" xlink:href="#DejaVuSans-75"/>
     <use x="434.277344" xlink:href="#DejaVuSans-73"/>
    </g>
   </g>
  </g>
 </g>
 <defs>
  <clipPath id="pfdd19e2890">
   <rect height="270.04" width="277.048" x="56.12" y="24.84"/>
  </clipPath>
 </defs>
</svg>
