<?xml version="1.0" encoding="utf-8" standalone="no"?>
<!DOCTYPE svg PUBLIC "-//W3C//DTD SVG 1.1//EN"
  "http://www.w3.org/Graphics/SVG/1.1/DTD/svg11.dtd">
<!-- Created with matplotlib (http://matplotlib.org/) -->
<svg height="345pt" version="1.1" viewBox="0 0 460 345" width="460pt" xmlns="http://www.w3.org/2000/svg" xmlns:xlink="http://www.w3.org/1999/xlink">
 <defs>
  <style type="text/css">
*{stroke-linecap:butt;stroke-linejoin:round;}
  </style>
 </defs>
 <g id="figure_1">
  <g id="patch_1">
   <path d="M 0 345.6 
L 460.8 345.6 
L 460.8 0 
L 0 0 
z
" style="fill:#ffffff;"/>
  </g>
  <g id="axes_1">
   <g id="patch_2">
    <path d="M 56.12 294.88 
L 333.168 294.88 
L 333.168 24.84 
L 56.12 24.84 
z
" style="fill:#ffffff;"/>
   </g>
   <g id="line2d_1">
    <path d="M 28.455965 294.88 
L 28.455965 279.152568 
L 40.370217 279.152568 
L 40.370217 268.667614 
L 56.12 268.667614 
L 56.12 263.425137 
L 84.458185 263.425137 
L 84.458185 258.18266 
L 97.950482 258.18266 
L 97.950482 252.940182 
L 109.250788 252.940182 
L 109.250788 247.697705 
L 115.798351 247.697705 
L 115.798351 242.455228 
L 120.769881 242.455228 
L 120.769881 237.212751 
L 131.949115 237.212751 
L 131.949115 231.970274 
L 134.788423 231.970274 
L 134.788423 226.727797 
L 138.381758 226.727797 
L 138.381758 221.485319 
L 144.295937 221.485319 
L 144.295937 216.242842 
L 145.36071 216.242842 
L 145.36071 211.000365 
L 150.209706 211.000365 
L 150.209706 205.757888 
L 155.129314 205.757888 
L 155.129314 200.515411 
L 159.479124 200.515411 
L 159.479124 195.272933 
L 160.033511 195.272933 
L 160.033511 190.030456 
L 165.259017 190.030456 
L 165.259017 184.787979 
L 165.651034 184.787979 
L 165.651034 179.545502 
L 167.423824 179.545502 
L 167.423824 174.303025 
L 168.109176 174.303025 
L 168.109176 169.060547 
L 169.22741 169.060547 
L 169.22741 163.81807 
L 169.534653 163.81807 
L 169.534653 158.575593 
L 169.932899 158.575593 
L 169.932899 153.333116 
L 171.12642 153.333116 
L 171.12642 148.090639 
L 172.346158 148.090639 
L 172.346158 142.848162 
L 173.802272 142.848162 
L 173.802272 137.605684 
L 174.138853 137.605684 
L 174.138853 132.363207 
L 175.422905 132.363207 
L 175.422905 127.12073 
L 176.940393 127.12073 
L 176.940393 121.878253 
L 178.080144 121.878253 
L 178.080144 116.635776 
L 178.574492 116.635776 
L 178.574492 111.393298 
L 178.965937 111.393298 
L 178.965937 106.150821 
L 181.167872 106.150821 
L 181.167872 100.908344 
L 181.317226 100.908344 
L 181.317226 95.665867 
L 181.399643 95.665867 
L 181.399643 90.42339 
L 181.556319 90.42339 
L 181.556319 85.180912 
L 181.672318 85.180912 
L 181.672318 79.938435 
L 181.897429 79.938435 
L 181.897429 74.695958 
L 182.171367 74.695958 
L 182.171367 69.453481 
L 182.452058 69.453481 
L 182.452058 64.211004 
L 182.610419 64.211004 
L 182.610419 58.968526 
L 182.791182 58.968526 
L 182.791182 53.726049 
L 182.997913 53.726049 
L 182.997913 48.483572 
L 183.113116 48.483572 
L 183.113116 43.241095 
L 183.238109 43.241095 
L 183.238109 37.998618 
L 183.347524 37.998618 
L 183.347524 32.756141 
L 183.472913 32.756141 
L 183.472913 27.513663 
L 333.168 27.513663 
" style="fill:none;stroke:#f5deb3;stroke-linecap:square;stroke-width:4;"/>
   </g>
   <g id="line2d_2">
    <defs>
     <path d="M -0 7.778175 
L 7.778175 0 
L 0 -7.778175 
L -7.778175 -0 
z
" id="m8a52d4c96c" style="stroke:#f5deb3;stroke-linejoin:miter;stroke-width:1.5;"/>
    </defs>
    <g>
     <use style="fill:#f5deb3;stroke:#f5deb3;stroke-linejoin:miter;stroke-width:1.5;" x="131.949115" xlink:href="#m8a52d4c96c" y="231.970274"/>
     <use style="fill:#f5deb3;stroke:#f5deb3;stroke-linejoin:miter;stroke-width:1.5;" x="172.346158" xlink:href="#m8a52d4c96c" y="142.848162"/>
     <use style="fill:#f5deb3;stroke:#f5deb3;stroke-linejoin:miter;stroke-width:1.5;" x="183.472913" xlink:href="#m8a52d4c96c" y="32.756141"/>
     <use style="fill:#f5deb3;stroke:#f5deb3;stroke-linejoin:miter;stroke-width:1.5;" x="183.472913" xlink:href="#m8a52d4c96c" y="27.513663"/>
     <use style="fill:#f5deb3;stroke:#f5deb3;stroke-linejoin:miter;stroke-width:1.5;" x="183.472913" xlink:href="#m8a52d4c96c" y="27.513663"/>
     <use style="fill:#f5deb3;stroke:#f5deb3;stroke-linejoin:miter;stroke-width:1.5;" x="333.168" xlink:href="#m8a52d4c96c" y="27.513663"/>
    </g>
   </g>
   <g id="line2d_3">
    <path style="fill:none;stroke:#f5deb3;stroke-linecap:square;stroke-width:4;"/>
    <g/>
   </g>
   <g id="line2d_4">
    <path d="M 333.168 27.513663 
L 363.64328 32.86099 
" style="fill:none;stroke:#f5deb3;stroke-linecap:square;stroke-width:4;"/>
    <g>
     <use style="fill:#f5deb3;stroke:#f5deb3;stroke-linejoin:miter;stroke-width:1.5;" x="333.168" xlink:href="#m8a52d4c96c" y="27.513663"/>
     <use style="fill:#f5deb3;stroke:#f5deb3;stroke-linejoin:miter;stroke-width:1.5;" x="363.64328" xlink:href="#m8a52d4c96c" y="32.86099"/>
    </g>
   </g>
   <g id="matplotlib.axis_1">
    <g id="xtick_1">
     <g id="line2d_5">
      <path clip-path="url(#p662bdf3222)" d="M 56.12 294.88 
L 56.12 24.84 
" style="fill:none;stroke:#b0b0b0;stroke-linecap:square;stroke-width:0.8;"/>
     </g>
     <g id="line2d_6">
      <defs>
       <path d="M 0 0 
L 0 3.5 
" id="md2ee032c12" style="stroke:#000000;stroke-width:0.8;"/>
      </defs>
      <g>
       <use style="stroke:#000000;stroke-width:0.8;" x="56.12" xlink:href="#md2ee032c12" y="294.88"/>
      </g>
     </g>
     <g id="text_1">
      <!-- 0 -->
      <defs>
       <path d="M 31.78125 66.40625 
Q 24.171875 66.40625 20.328125 58.90625 
Q 16.5 51.421875 16.5 36.375 
Q 16.5 21.390625 20.328125 13.890625 
Q 24.171875 6.390625 31.78125 6.390625 
Q 39.453125 6.390625 43.28125 13.890625 
Q 47.125 21.390625 47.125 36.375 
Q 47.125 51.421875 43.28125 58.90625 
Q 39.453125 66.40625 31.78125 66.40625 
z
M 31.78125 74.21875 
Q 44.046875 74.21875 50.515625 64.515625 
Q 56.984375 54.828125 56.984375 36.375 
Q 56.984375 17.96875 50.515625 8.265625 
Q 44.046875 -1.421875 31.78125 -1.421875 
Q 19.53125 -1.421875 13.0625 8.265625 
Q 6.59375 17.96875 6.59375 36.375 
Q 6.59375 54.828125 13.0625 64.515625 
Q 19.53125 74.21875 31.78125 74.21875 
z
" id="DejaVuSans-30"/>
      </defs>
      <g transform="translate(49.7575 317.076875)scale(0.2 -0.2)">
       <use xlink:href="#DejaVuSans-30"/>
      </g>
     </g>
    </g>
    <g id="xtick_2">
     <g id="line2d_7">
      <path clip-path="url(#p662bdf3222)" d="M 135.276571 294.88 
L 135.276571 24.84 
" style="fill:none;stroke:#b0b0b0;stroke-linecap:square;stroke-width:0.8;"/>
     </g>
     <g id="line2d_8">
      <g>
       <use style="stroke:#000000;stroke-width:0.8;" x="135.276571" xlink:href="#md2ee032c12" y="294.88"/>
      </g>
     </g>
     <g id="text_2">
      <!-- 2 -->
      <defs>
       <path d="M 19.1875 8.296875 
L 53.609375 8.296875 
L 53.609375 0 
L 7.328125 0 
L 7.328125 8.296875 
Q 12.9375 14.109375 22.625 23.890625 
Q 32.328125 33.6875 34.8125 36.53125 
Q 39.546875 41.84375 41.421875 45.53125 
Q 43.3125 49.21875 43.3125 52.78125 
Q 43.3125 58.59375 39.234375 62.25 
Q 35.15625 65.921875 28.609375 65.921875 
Q 23.96875 65.921875 18.8125 64.3125 
Q 13.671875 62.703125 7.8125 59.421875 
L 7.8125 69.390625 
Q 13.765625 71.78125 18.9375 73 
Q 24.125 74.21875 28.421875 74.21875 
Q 39.75 74.21875 46.484375 68.546875 
Q 53.21875 62.890625 53.21875 53.421875 
Q 53.21875 48.921875 51.53125 44.890625 
Q 49.859375 40.875 45.40625 35.40625 
Q 44.1875 33.984375 37.640625 27.21875 
Q 31.109375 20.453125 19.1875 8.296875 
z
" id="DejaVuSans-32"/>
      </defs>
      <g transform="translate(128.914071 317.076875)scale(0.2 -0.2)">
       <use xlink:href="#DejaVuSans-32"/>
      </g>
     </g>
    </g>
    <g id="xtick_3">
     <g id="line2d_9">
      <path clip-path="url(#p662bdf3222)" d="M 214.433143 294.88 
L 214.433143 24.84 
" style="fill:none;stroke:#b0b0b0;stroke-linecap:square;stroke-width:0.8;"/>
     </g>
     <g id="line2d_10">
      <g>
       <use style="stroke:#000000;stroke-width:0.8;" x="214.433143" xlink:href="#md2ee032c12" y="294.88"/>
      </g>
     </g>
     <g id="text_3">
      <!-- 4 -->
      <defs>
       <path d="M 37.796875 64.3125 
L 12.890625 25.390625 
L 37.796875 25.390625 
z
M 35.203125 72.90625 
L 47.609375 72.90625 
L 47.609375 25.390625 
L 58.015625 25.390625 
L 58.015625 17.1875 
L 47.609375 17.1875 
L 47.609375 0 
L 37.796875 0 
L 37.796875 17.1875 
L 4.890625 17.1875 
L 4.890625 26.703125 
z
" id="DejaVuSans-34"/>
      </defs>
      <g transform="translate(208.070643 317.076875)scale(0.2 -0.2)">
       <use xlink:href="#DejaVuSans-34"/>
      </g>
     </g>
    </g>
    <g id="xtick_4">
     <g id="line2d_11">
      <path clip-path="url(#p662bdf3222)" d="M 293.589714 294.88 
L 293.589714 24.84 
" style="fill:none;stroke:#b0b0b0;stroke-linecap:square;stroke-width:0.8;"/>
     </g>
     <g id="line2d_12">
      <g>
       <use style="stroke:#000000;stroke-width:0.8;" x="293.589714" xlink:href="#md2ee032c12" y="294.88"/>
      </g>
     </g>
     <g id="text_4">
      <!-- 6 -->
      <defs>
       <path d="M 33.015625 40.375 
Q 26.375 40.375 22.484375 35.828125 
Q 18.609375 31.296875 18.609375 23.390625 
Q 18.609375 15.53125 22.484375 10.953125 
Q 26.375 6.390625 33.015625 6.390625 
Q 39.65625 6.390625 43.53125 10.953125 
Q 47.40625 15.53125 47.40625 23.390625 
Q 47.40625 31.296875 43.53125 35.828125 
Q 39.65625 40.375 33.015625 40.375 
z
M 52.59375 71.296875 
L 52.59375 62.3125 
Q 48.875 64.0625 45.09375 64.984375 
Q 41.3125 65.921875 37.59375 65.921875 
Q 27.828125 65.921875 22.671875 59.328125 
Q 17.53125 52.734375 16.796875 39.40625 
Q 19.671875 43.65625 24.015625 45.921875 
Q 28.375 48.1875 33.59375 48.1875 
Q 44.578125 48.1875 50.953125 41.515625 
Q 57.328125 34.859375 57.328125 23.390625 
Q 57.328125 12.15625 50.6875 5.359375 
Q 44.046875 -1.421875 33.015625 -1.421875 
Q 20.359375 -1.421875 13.671875 8.265625 
Q 6.984375 17.96875 6.984375 36.375 
Q 6.984375 53.65625 15.1875 63.9375 
Q 23.390625 74.21875 37.203125 74.21875 
Q 40.921875 74.21875 44.703125 73.484375 
Q 48.484375 72.75 52.59375 71.296875 
z
" id="DejaVuSans-36"/>
      </defs>
      <g transform="translate(287.227214 317.076875)scale(0.2 -0.2)">
       <use xlink:href="#DejaVuSans-36"/>
      </g>
     </g>
    </g>
    <g id="xtick_5">
     <g id="line2d_13">
      <path clip-path="url(#p662bdf3222)" d="M 56.12 294.88 
L 56.12 24.84 
" style="fill:none;stroke:#b0b0b0;stroke-linecap:square;stroke-width:0.8;"/>
     </g>
     <g id="line2d_14">
      <defs>
       <path d="M 0 0 
L 0 2 
" id="mb83b5c686e" style="stroke:#000000;stroke-width:0.6;"/>
      </defs>
      <g>
       <use style="stroke:#000000;stroke-width:0.6;" x="56.12" xlink:href="#mb83b5c686e" y="294.88"/>
      </g>
     </g>
    </g>
    <g id="xtick_6">
     <g id="line2d_15">
      <path clip-path="url(#p662bdf3222)" d="M 95.698286 294.88 
L 95.698286 24.84 
" style="fill:none;stroke:#b0b0b0;stroke-linecap:square;stroke-width:0.8;"/>
     </g>
     <g id="line2d_16">
      <g>
       <use style="stroke:#000000;stroke-width:0.6;" x="95.698286" xlink:href="#mb83b5c686e" y="294.88"/>
      </g>
     </g>
    </g>
    <g id="xtick_7">
     <g id="line2d_17">
      <path clip-path="url(#p662bdf3222)" d="M 135.276571 294.88 
L 135.276571 24.84 
" style="fill:none;stroke:#b0b0b0;stroke-linecap:square;stroke-width:0.8;"/>
     </g>
     <g id="line2d_18">
      <g>
       <use style="stroke:#000000;stroke-width:0.6;" x="135.276571" xlink:href="#mb83b5c686e" y="294.88"/>
      </g>
     </g>
    </g>
    <g id="xtick_8">
     <g id="line2d_19">
      <path clip-path="url(#p662bdf3222)" d="M 174.854857 294.88 
L 174.854857 24.84 
" style="fill:none;stroke:#b0b0b0;stroke-linecap:square;stroke-width:0.8;"/>
     </g>
     <g id="line2d_20">
      <g>
       <use style="stroke:#000000;stroke-width:0.6;" x="174.854857" xlink:href="#mb83b5c686e" y="294.88"/>
      </g>
     </g>
    </g>
    <g id="xtick_9">
     <g id="line2d_21">
      <path clip-path="url(#p662bdf3222)" d="M 214.433143 294.88 
L 214.433143 24.84 
" style="fill:none;stroke:#b0b0b0;stroke-linecap:square;stroke-width:0.8;"/>
     </g>
     <g id="line2d_22">
      <g>
       <use style="stroke:#000000;stroke-width:0.6;" x="214.433143" xlink:href="#mb83b5c686e" y="294.88"/>
      </g>
     </g>
    </g>
    <g id="xtick_10">
     <g id="line2d_23">
      <path clip-path="url(#p662bdf3222)" d="M 254.011429 294.88 
L 254.011429 24.84 
" style="fill:none;stroke:#b0b0b0;stroke-linecap:square;stroke-width:0.8;"/>
     </g>
     <g id="line2d_24">
      <g>
       <use style="stroke:#000000;stroke-width:0.6;" x="254.011429" xlink:href="#mb83b5c686e" y="294.88"/>
      </g>
     </g>
    </g>
    <g id="xtick_11">
     <g id="line2d_25">
      <path clip-path="url(#p662bdf3222)" d="M 293.589714 294.88 
L 293.589714 24.84 
" style="fill:none;stroke:#b0b0b0;stroke-linecap:square;stroke-width:0.8;"/>
     </g>
     <g id="line2d_26">
      <g>
       <use style="stroke:#000000;stroke-width:0.6;" x="293.589714" xlink:href="#mb83b5c686e" y="294.88"/>
      </g>
     </g>
    </g>
    <g id="xtick_12">
     <g id="line2d_27">
      <path clip-path="url(#p662bdf3222)" d="M 333.168 294.88 
L 333.168 24.84 
" style="fill:none;stroke:#b0b0b0;stroke-linecap:square;stroke-width:0.8;"/>
     </g>
     <g id="line2d_28">
      <g>
       <use style="stroke:#000000;stroke-width:0.6;" x="333.168" xlink:href="#mb83b5c686e" y="294.88"/>
      </g>
     </g>
    </g>
    <g id="text_5">
     <!-- log10(# f-evals / dimension) -->
     <defs>
      <path d="M 9.421875 75.984375 
L 18.40625 75.984375 
L 18.40625 0 
L 9.421875 0 
z
" id="DejaVuSans-6c"/>
      <path d="M 30.609375 48.390625 
Q 23.390625 48.390625 19.1875 42.75 
Q 14.984375 37.109375 14.984375 27.296875 
Q 14.984375 17.484375 19.15625 11.84375 
Q 23.34375 6.203125 30.609375 6.203125 
Q 37.796875 6.203125 41.984375 11.859375 
Q 46.1875 17.53125 46.1875 27.296875 
Q 46.1875 37.015625 41.984375 42.703125 
Q 37.796875 48.390625 30.609375 48.390625 
z
M 30.609375 56 
Q 42.328125 56 49.015625 48.375 
Q 55.71875 40.765625 55.71875 27.296875 
Q 55.71875 13.875 49.015625 6.21875 
Q 42.328125 -1.421875 30.609375 -1.421875 
Q 18.84375 -1.421875 12.171875 6.21875 
Q 5.515625 13.875 5.515625 27.296875 
Q 5.515625 40.765625 12.171875 48.375 
Q 18.84375 56 30.609375 56 
z
" id="DejaVuSans-6f"/>
      <path d="M 45.40625 27.984375 
Q 45.40625 37.75 41.375 43.109375 
Q 37.359375 48.484375 30.078125 48.484375 
Q 22.859375 48.484375 18.828125 43.109375 
Q 14.796875 37.75 14.796875 27.984375 
Q 14.796875 18.265625 18.828125 12.890625 
Q 22.859375 7.515625 30.078125 7.515625 
Q 37.359375 7.515625 41.375 12.890625 
Q 45.40625 18.265625 45.40625 27.984375 
z
M 54.390625 6.78125 
Q 54.390625 -7.171875 48.1875 -13.984375 
Q 42 -20.796875 29.203125 -20.796875 
Q 24.46875 -20.796875 20.265625 -20.09375 
Q 16.0625 -19.390625 12.109375 -17.921875 
L 12.109375 -9.1875 
Q 16.0625 -11.328125 19.921875 -12.34375 
Q 23.78125 -13.375 27.78125 -13.375 
Q 36.625 -13.375 41.015625 -8.765625 
Q 45.40625 -4.15625 45.40625 5.171875 
L 45.40625 9.625 
Q 42.625 4.78125 38.28125 2.390625 
Q 33.9375 0 27.875 0 
Q 17.828125 0 11.671875 7.65625 
Q 5.515625 15.328125 5.515625 27.984375 
Q 5.515625 40.671875 11.671875 48.328125 
Q 17.828125 56 27.875 56 
Q 33.9375 56 38.28125 53.609375 
Q 42.625 51.21875 45.40625 46.390625 
L 45.40625 54.6875 
L 54.390625 54.6875 
z
" id="DejaVuSans-67"/>
      <path d="M 12.40625 8.296875 
L 28.515625 8.296875 
L 28.515625 63.921875 
L 10.984375 60.40625 
L 10.984375 69.390625 
L 28.421875 72.90625 
L 38.28125 72.90625 
L 38.28125 8.296875 
L 54.390625 8.296875 
L 54.390625 0 
L 12.40625 0 
z
" id="DejaVuSans-31"/>
      <path d="M 31 75.875 
Q 24.46875 64.65625 21.28125 53.65625 
Q 18.109375 42.671875 18.109375 31.390625 
Q 18.109375 20.125 21.3125 9.0625 
Q 24.515625 -2 31 -13.1875 
L 23.1875 -13.1875 
Q 15.875 -1.703125 12.234375 9.375 
Q 8.59375 20.453125 8.59375 31.390625 
Q 8.59375 42.28125 12.203125 53.3125 
Q 15.828125 64.359375 23.1875 75.875 
z
" id="DejaVuSans-28"/>
      <path d="M 51.125 44 
L 36.921875 44 
L 32.8125 27.6875 
L 47.125 27.6875 
z
M 43.796875 71.78125 
L 38.71875 51.515625 
L 52.984375 51.515625 
L 58.109375 71.78125 
L 65.921875 71.78125 
L 60.890625 51.515625 
L 76.125 51.515625 
L 76.125 44 
L 58.984375 44 
L 54.984375 27.6875 
L 70.515625 27.6875 
L 70.515625 20.21875 
L 53.078125 20.21875 
L 48 0 
L 40.1875 0 
L 45.21875 20.21875 
L 30.90625 20.21875 
L 25.875 0 
L 18.015625 0 
L 23.09375 20.21875 
L 7.71875 20.21875 
L 7.71875 27.6875 
L 24.90625 27.6875 
L 29 44 
L 13.28125 44 
L 13.28125 51.515625 
L 30.90625 51.515625 
L 35.890625 71.78125 
z
" id="DejaVuSans-23"/>
      <path id="DejaVuSans-20"/>
      <path d="M 37.109375 75.984375 
L 37.109375 68.5 
L 28.515625 68.5 
Q 23.6875 68.5 21.796875 66.546875 
Q 19.921875 64.59375 19.921875 59.515625 
L 19.921875 54.6875 
L 34.71875 54.6875 
L 34.71875 47.703125 
L 19.921875 47.703125 
L 19.921875 0 
L 10.890625 0 
L 10.890625 47.703125 
L 2.296875 47.703125 
L 2.296875 54.6875 
L 10.890625 54.6875 
L 10.890625 58.5 
Q 10.890625 67.625 15.140625 71.796875 
Q 19.390625 75.984375 28.609375 75.984375 
z
" id="DejaVuSans-66"/>
      <path d="M 4.890625 31.390625 
L 31.203125 31.390625 
L 31.203125 23.390625 
L 4.890625 23.390625 
z
" id="DejaVuSans-2d"/>
      <path d="M 56.203125 29.59375 
L 56.203125 25.203125 
L 14.890625 25.203125 
Q 15.484375 15.921875 20.484375 11.0625 
Q 25.484375 6.203125 34.421875 6.203125 
Q 39.59375 6.203125 44.453125 7.46875 
Q 49.3125 8.734375 54.109375 11.28125 
L 54.109375 2.78125 
Q 49.265625 0.734375 44.1875 -0.34375 
Q 39.109375 -1.421875 33.890625 -1.421875 
Q 20.796875 -1.421875 13.15625 6.1875 
Q 5.515625 13.8125 5.515625 26.8125 
Q 5.515625 40.234375 12.765625 48.109375 
Q 20.015625 56 32.328125 56 
Q 43.359375 56 49.78125 48.890625 
Q 56.203125 41.796875 56.203125 29.59375 
z
M 47.21875 32.234375 
Q 47.125 39.59375 43.09375 43.984375 
Q 39.0625 48.390625 32.421875 48.390625 
Q 24.90625 48.390625 20.390625 44.140625 
Q 15.875 39.890625 15.1875 32.171875 
z
" id="DejaVuSans-65"/>
      <path d="M 2.984375 54.6875 
L 12.5 54.6875 
L 29.59375 8.796875 
L 46.6875 54.6875 
L 56.203125 54.6875 
L 35.6875 0 
L 23.484375 0 
z
" id="DejaVuSans-76"/>
      <path d="M 34.28125 27.484375 
Q 23.390625 27.484375 19.1875 25 
Q 14.984375 22.515625 14.984375 16.5 
Q 14.984375 11.71875 18.140625 8.90625 
Q 21.296875 6.109375 26.703125 6.109375 
Q 34.1875 6.109375 38.703125 11.40625 
Q 43.21875 16.703125 43.21875 25.484375 
L 43.21875 27.484375 
z
M 52.203125 31.203125 
L 52.203125 0 
L 43.21875 0 
L 43.21875 8.296875 
Q 40.140625 3.328125 35.546875 0.953125 
Q 30.953125 -1.421875 24.3125 -1.421875 
Q 15.921875 -1.421875 10.953125 3.296875 
Q 6 8.015625 6 15.921875 
Q 6 25.140625 12.171875 29.828125 
Q 18.359375 34.515625 30.609375 34.515625 
L 43.21875 34.515625 
L 43.21875 35.40625 
Q 43.21875 41.609375 39.140625 45 
Q 35.0625 48.390625 27.6875 48.390625 
Q 23 48.390625 18.546875 47.265625 
Q 14.109375 46.140625 10.015625 43.890625 
L 10.015625 52.203125 
Q 14.9375 54.109375 19.578125 55.046875 
Q 24.21875 56 28.609375 56 
Q 40.484375 56 46.34375 49.84375 
Q 52.203125 43.703125 52.203125 31.203125 
z
" id="DejaVuSans-61"/>
      <path d="M 44.28125 53.078125 
L 44.28125 44.578125 
Q 40.484375 46.53125 36.375 47.5 
Q 32.28125 48.484375 27.875 48.484375 
Q 21.1875 48.484375 17.84375 46.4375 
Q 14.5 44.390625 14.5 40.28125 
Q 14.5 37.15625 16.890625 35.375 
Q 19.28125 33.59375 26.515625 31.984375 
L 29.59375 31.296875 
Q 39.15625 29.25 43.1875 25.515625 
Q 47.21875 21.78125 47.21875 15.09375 
Q 47.21875 7.46875 41.1875 3.015625 
Q 35.15625 -1.421875 24.609375 -1.421875 
Q 20.21875 -1.421875 15.453125 -0.5625 
Q 10.6875 0.296875 5.421875 2 
L 5.421875 11.28125 
Q 10.40625 8.6875 15.234375 7.390625 
Q 20.0625 6.109375 24.8125 6.109375 
Q 31.15625 6.109375 34.5625 8.28125 
Q 37.984375 10.453125 37.984375 14.40625 
Q 37.984375 18.0625 35.515625 20.015625 
Q 33.0625 21.96875 24.703125 23.78125 
L 21.578125 24.515625 
Q 13.234375 26.265625 9.515625 29.90625 
Q 5.8125 33.546875 5.8125 39.890625 
Q 5.8125 47.609375 11.28125 51.796875 
Q 16.75 56 26.8125 56 
Q 31.78125 56 36.171875 55.265625 
Q 40.578125 54.546875 44.28125 53.078125 
z
" id="DejaVuSans-73"/>
      <path d="M 25.390625 72.90625 
L 33.6875 72.90625 
L 8.296875 -9.28125 
L 0 -9.28125 
z
" id="DejaVuSans-2f"/>
      <path d="M 45.40625 46.390625 
L 45.40625 75.984375 
L 54.390625 75.984375 
L 54.390625 0 
L 45.40625 0 
L 45.40625 8.203125 
Q 42.578125 3.328125 38.25 0.953125 
Q 33.9375 -1.421875 27.875 -1.421875 
Q 17.96875 -1.421875 11.734375 6.484375 
Q 5.515625 14.40625 5.515625 27.296875 
Q 5.515625 40.1875 11.734375 48.09375 
Q 17.96875 56 27.875 56 
Q 33.9375 56 38.25 53.625 
Q 42.578125 51.265625 45.40625 46.390625 
z
M 14.796875 27.296875 
Q 14.796875 17.390625 18.875 11.75 
Q 22.953125 6.109375 30.078125 6.109375 
Q 37.203125 6.109375 41.296875 11.75 
Q 45.40625 17.390625 45.40625 27.296875 
Q 45.40625 37.203125 41.296875 42.84375 
Q 37.203125 48.484375 30.078125 48.484375 
Q 22.953125 48.484375 18.875 42.84375 
Q 14.796875 37.203125 14.796875 27.296875 
z
" id="DejaVuSans-64"/>
      <path d="M 9.421875 54.6875 
L 18.40625 54.6875 
L 18.40625 0 
L 9.421875 0 
z
M 9.421875 75.984375 
L 18.40625 75.984375 
L 18.40625 64.59375 
L 9.421875 64.59375 
z
" id="DejaVuSans-69"/>
      <path d="M 52 44.1875 
Q 55.375 50.25 60.0625 53.125 
Q 64.75 56 71.09375 56 
Q 79.640625 56 84.28125 50.015625 
Q 88.921875 44.046875 88.921875 33.015625 
L 88.921875 0 
L 79.890625 0 
L 79.890625 32.71875 
Q 79.890625 40.578125 77.09375 44.375 
Q 74.3125 48.1875 68.609375 48.1875 
Q 61.625 48.1875 57.5625 43.546875 
Q 53.515625 38.921875 53.515625 30.90625 
L 53.515625 0 
L 44.484375 0 
L 44.484375 32.71875 
Q 44.484375 40.625 41.703125 44.40625 
Q 38.921875 48.1875 33.109375 48.1875 
Q 26.21875 48.1875 22.15625 43.53125 
Q 18.109375 38.875 18.109375 30.90625 
L 18.109375 0 
L 9.078125 0 
L 9.078125 54.6875 
L 18.109375 54.6875 
L 18.109375 46.1875 
Q 21.1875 51.21875 25.484375 53.609375 
Q 29.78125 56 35.6875 56 
Q 41.65625 56 45.828125 52.96875 
Q 50 49.953125 52 44.1875 
z
" id="DejaVuSans-6d"/>
      <path d="M 54.890625 33.015625 
L 54.890625 0 
L 45.90625 0 
L 45.90625 32.71875 
Q 45.90625 40.484375 42.875 44.328125 
Q 39.84375 48.1875 33.796875 48.1875 
Q 26.515625 48.1875 22.3125 43.546875 
Q 18.109375 38.921875 18.109375 30.90625 
L 18.109375 0 
L 9.078125 0 
L 9.078125 54.6875 
L 18.109375 54.6875 
L 18.109375 46.1875 
Q 21.34375 51.125 25.703125 53.5625 
Q 30.078125 56 35.796875 56 
Q 45.21875 56 50.046875 50.171875 
Q 54.890625 44.34375 54.890625 33.015625 
z
" id="DejaVuSans-6e"/>
      <path d="M 8.015625 75.875 
L 15.828125 75.875 
Q 23.140625 64.359375 26.78125 53.3125 
Q 30.421875 42.28125 30.421875 31.390625 
Q 30.421875 20.453125 26.78125 9.375 
Q 23.140625 -1.703125 15.828125 -13.1875 
L 8.015625 -13.1875 
Q 14.5 -2 17.703125 9.0625 
Q 20.90625 20.125 20.90625 31.390625 
Q 20.90625 42.671875 17.703125 53.65625 
Q 14.5 64.65625 8.015625 75.875 
z
" id="DejaVuSans-29"/>
     </defs>
     <g transform="translate(73.803219 338.153594)scale(0.17 -0.17)">
      <use xlink:href="#DejaVuSans-6c"/>
      <use x="27.783203" xlink:href="#DejaVuSans-6f"/>
      <use x="88.964844" xlink:href="#DejaVuSans-67"/>
      <use x="152.441406" xlink:href="#DejaVuSans-31"/>
      <use x="216.064453" xlink:href="#DejaVuSans-30"/>
      <use x="279.6875" xlink:href="#DejaVuSans-28"/>
      <use x="318.701172" xlink:href="#DejaVuSans-23"/>
      <use x="402.490234" xlink:href="#DejaVuSans-20"/>
      <use x="434.277344" xlink:href="#DejaVuSans-66"/>
      <use x="469.404297" xlink:href="#DejaVuSans-2d"/>
      <use x="505.488281" xlink:href="#DejaVuSans-65"/>
      <use x="567.011719" xlink:href="#DejaVuSans-76"/>
      <use x="626.191406" xlink:href="#DejaVuSans-61"/>
      <use x="687.470703" xlink:href="#DejaVuSans-6c"/>
      <use x="715.253906" xlink:href="#DejaVuSans-73"/>
      <use x="767.353516" xlink:href="#DejaVuSans-20"/>
      <use x="799.140625" xlink:href="#DejaVuSans-2f"/>
      <use x="832.832031" xlink:href="#DejaVuSans-20"/>
      <use x="864.619141" xlink:href="#DejaVuSans-64"/>
      <use x="928.095703" xlink:href="#DejaVuSans-69"/>
      <use x="955.878906" xlink:href="#DejaVuSans-6d"/>
      <use x="1053.291016" xlink:href="#DejaVuSans-65"/>
      <use x="1114.814453" xlink:href="#DejaVuSans-6e"/>
      <use x="1178.193359" xlink:href="#DejaVuSans-73"/>
      <use x="1230.292969" xlink:href="#DejaVuSans-69"/>
      <use x="1258.076172" xlink:href="#DejaVuSans-6f"/>
      <use x="1319.257812" xlink:href="#DejaVuSans-6e"/>
      <use x="1382.636719" xlink:href="#DejaVuSans-29"/>
     </g>
    </g>
   </g>
   <g id="matplotlib.axis_2">
    <g id="ytick_1">
     <g id="line2d_29">
      <path clip-path="url(#p662bdf3222)" d="M 56.12 294.88 
L 333.168 294.88 
" style="fill:none;stroke:#b0b0b0;stroke-linecap:square;stroke-width:0.8;"/>
     </g>
     <g id="line2d_30">
      <defs>
       <path d="M 0 0 
L -3.5 0 
" id="ma2615594c0" style="stroke:#000000;stroke-width:0.8;"/>
      </defs>
      <g>
       <use style="stroke:#000000;stroke-width:0.8;" x="56.12" xlink:href="#ma2615594c0" y="294.88"/>
      </g>
     </g>
     <g id="text_6">
      <!-- 0.0 -->
      <defs>
       <path d="M 10.6875 12.40625 
L 21 12.40625 
L 21 0 
L 10.6875 0 
z
" id="DejaVuSans-2e"/>
      </defs>
      <g transform="translate(23.675 300.95875)scale(0.16 -0.16)">
       <use xlink:href="#DejaVuSans-30"/>
       <use x="63.623047" xlink:href="#DejaVuSans-2e"/>
       <use x="95.410156" xlink:href="#DejaVuSans-30"/>
      </g>
     </g>
    </g>
    <g id="ytick_2">
     <g id="line2d_31">
      <path clip-path="url(#p662bdf3222)" d="M 56.12 241.406733 
L 333.168 241.406733 
" style="fill:none;stroke:#b0b0b0;stroke-linecap:square;stroke-width:0.8;"/>
     </g>
     <g id="line2d_32">
      <g>
       <use style="stroke:#000000;stroke-width:0.8;" x="56.12" xlink:href="#ma2615594c0" y="241.406733"/>
      </g>
     </g>
     <g id="text_7">
      <!-- 0.2 -->
      <g transform="translate(23.675 247.485483)scale(0.16 -0.16)">
       <use xlink:href="#DejaVuSans-30"/>
       <use x="63.623047" xlink:href="#DejaVuSans-2e"/>
       <use x="95.410156" xlink:href="#DejaVuSans-32"/>
      </g>
     </g>
    </g>
    <g id="ytick_3">
     <g id="line2d_33">
      <path clip-path="url(#p662bdf3222)" d="M 56.12 187.933465 
L 333.168 187.933465 
" style="fill:none;stroke:#b0b0b0;stroke-linecap:square;stroke-width:0.8;"/>
     </g>
     <g id="line2d_34">
      <g>
       <use style="stroke:#000000;stroke-width:0.8;" x="56.12" xlink:href="#ma2615594c0" y="187.933465"/>
      </g>
     </g>
     <g id="text_8">
      <!-- 0.4 -->
      <g transform="translate(23.675 194.012215)scale(0.16 -0.16)">
       <use xlink:href="#DejaVuSans-30"/>
       <use x="63.623047" xlink:href="#DejaVuSans-2e"/>
       <use x="95.410156" xlink:href="#DejaVuSans-34"/>
      </g>
     </g>
    </g>
    <g id="ytick_4">
     <g id="line2d_35">
      <path clip-path="url(#p662bdf3222)" d="M 56.12 134.460198 
L 333.168 134.460198 
" style="fill:none;stroke:#b0b0b0;stroke-linecap:square;stroke-width:0.8;"/>
     </g>
     <g id="line2d_36">
      <g>
       <use style="stroke:#000000;stroke-width:0.8;" x="56.12" xlink:href="#ma2615594c0" y="134.460198"/>
      </g>
     </g>
     <g id="text_9">
      <!-- 0.6 -->
      <g transform="translate(23.675 140.538948)scale(0.16 -0.16)">
       <use xlink:href="#DejaVuSans-30"/>
       <use x="63.623047" xlink:href="#DejaVuSans-2e"/>
       <use x="95.410156" xlink:href="#DejaVuSans-36"/>
      </g>
     </g>
    </g>
    <g id="ytick_5">
     <g id="line2d_37">
      <path clip-path="url(#p662bdf3222)" d="M 56.12 80.986931 
L 333.168 80.986931 
" style="fill:none;stroke:#b0b0b0;stroke-linecap:square;stroke-width:0.8;"/>
     </g>
     <g id="line2d_38">
      <g>
       <use style="stroke:#000000;stroke-width:0.8;" x="56.12" xlink:href="#ma2615594c0" y="80.986931"/>
      </g>
     </g>
     <g id="text_10">
      <!-- 0.8 -->
      <defs>
       <path d="M 31.78125 34.625 
Q 24.75 34.625 20.71875 30.859375 
Q 16.703125 27.09375 16.703125 20.515625 
Q 16.703125 13.921875 20.71875 10.15625 
Q 24.75 6.390625 31.78125 6.390625 
Q 38.8125 6.390625 42.859375 10.171875 
Q 46.921875 13.96875 46.921875 20.515625 
Q 46.921875 27.09375 42.890625 30.859375 
Q 38.875 34.625 31.78125 34.625 
z
M 21.921875 38.8125 
Q 15.578125 40.375 12.03125 44.71875 
Q 8.5 49.078125 8.5 55.328125 
Q 8.5 64.0625 14.71875 69.140625 
Q 20.953125 74.21875 31.78125 74.21875 
Q 42.671875 74.21875 48.875 69.140625 
Q 55.078125 64.0625 55.078125 55.328125 
Q 55.078125 49.078125 51.53125 44.71875 
Q 48 40.375 41.703125 38.8125 
Q 48.828125 37.15625 52.796875 32.3125 
Q 56.78125 27.484375 56.78125 20.515625 
Q 56.78125 9.90625 50.3125 4.234375 
Q 43.84375 -1.421875 31.78125 -1.421875 
Q 19.734375 -1.421875 13.25 4.234375 
Q 6.78125 9.90625 6.78125 20.515625 
Q 6.78125 27.484375 10.78125 32.3125 
Q 14.796875 37.15625 21.921875 38.8125 
z
M 18.3125 54.390625 
Q 18.3125 48.734375 21.84375 45.5625 
Q 25.390625 42.390625 31.78125 42.390625 
Q 38.140625 42.390625 41.71875 45.5625 
Q 45.3125 48.734375 45.3125 54.390625 
Q 45.3125 60.0625 41.71875 63.234375 
Q 38.140625 66.40625 31.78125 66.40625 
Q 25.390625 66.40625 21.84375 63.234375 
Q 18.3125 60.0625 18.3125 54.390625 
z
" id="DejaVuSans-38"/>
      </defs>
      <g transform="translate(23.675 87.065681)scale(0.16 -0.16)">
       <use xlink:href="#DejaVuSans-30"/>
       <use x="63.623047" xlink:href="#DejaVuSans-2e"/>
       <use x="95.410156" xlink:href="#DejaVuSans-38"/>
      </g>
     </g>
    </g>
    <g id="ytick_6">
     <g id="line2d_39">
      <path clip-path="url(#p662bdf3222)" d="M 56.12 27.513663 
L 333.168 27.513663 
" style="fill:none;stroke:#b0b0b0;stroke-linecap:square;stroke-width:0.8;"/>
     </g>
     <g id="line2d_40">
      <g>
       <use style="stroke:#000000;stroke-width:0.8;" x="56.12" xlink:href="#ma2615594c0" y="27.513663"/>
      </g>
     </g>
     <g id="text_11">
      <!-- 1.0 -->
      <g transform="translate(23.675 33.592413)scale(0.16 -0.16)">
       <use xlink:href="#DejaVuSans-31"/>
       <use x="63.623047" xlink:href="#DejaVuSans-2e"/>
       <use x="95.410156" xlink:href="#DejaVuSans-30"/>
      </g>
     </g>
    </g>
    <g id="text_12">
     <!-- Fraction of function,target pairs -->
     <defs>
      <path d="M 9.8125 72.90625 
L 51.703125 72.90625 
L 51.703125 64.59375 
L 19.671875 64.59375 
L 19.671875 43.109375 
L 48.578125 43.109375 
L 48.578125 34.8125 
L 19.671875 34.8125 
L 19.671875 0 
L 9.8125 0 
z
" id="DejaVuSans-46"/>
      <path d="M 41.109375 46.296875 
Q 39.59375 47.171875 37.8125 47.578125 
Q 36.03125 48 33.890625 48 
Q 26.265625 48 22.1875 43.046875 
Q 18.109375 38.09375 18.109375 28.8125 
L 18.109375 0 
L 9.078125 0 
L 9.078125 54.6875 
L 18.109375 54.6875 
L 18.109375 46.1875 
Q 20.953125 51.171875 25.484375 53.578125 
Q 30.03125 56 36.53125 56 
Q 37.453125 56 38.578125 55.875 
Q 39.703125 55.765625 41.0625 55.515625 
z
" id="DejaVuSans-72"/>
      <path d="M 48.78125 52.59375 
L 48.78125 44.1875 
Q 44.96875 46.296875 41.140625 47.34375 
Q 37.3125 48.390625 33.40625 48.390625 
Q 24.65625 48.390625 19.8125 42.84375 
Q 14.984375 37.3125 14.984375 27.296875 
Q 14.984375 17.28125 19.8125 11.734375 
Q 24.65625 6.203125 33.40625 6.203125 
Q 37.3125 6.203125 41.140625 7.25 
Q 44.96875 8.296875 48.78125 10.40625 
L 48.78125 2.09375 
Q 45.015625 0.34375 40.984375 -0.53125 
Q 36.96875 -1.421875 32.421875 -1.421875 
Q 20.0625 -1.421875 12.78125 6.34375 
Q 5.515625 14.109375 5.515625 27.296875 
Q 5.515625 40.671875 12.859375 48.328125 
Q 20.21875 56 33.015625 56 
Q 37.15625 56 41.109375 55.140625 
Q 45.0625 54.296875 48.78125 52.59375 
z
" id="DejaVuSans-63"/>
      <path d="M 18.3125 70.21875 
L 18.3125 54.6875 
L 36.8125 54.6875 
L 36.8125 47.703125 
L 18.3125 47.703125 
L 18.3125 18.015625 
Q 18.3125 11.328125 20.140625 9.421875 
Q 21.96875 7.515625 27.59375 7.515625 
L 36.8125 7.515625 
L 36.8125 0 
L 27.59375 0 
Q 17.1875 0 13.234375 3.875 
Q 9.28125 7.765625 9.28125 18.015625 
L 9.28125 47.703125 
L 2.6875 47.703125 
L 2.6875 54.6875 
L 9.28125 54.6875 
L 9.28125 70.21875 
z
" id="DejaVuSans-74"/>
      <path d="M 8.5 21.578125 
L 8.5 54.6875 
L 17.484375 54.6875 
L 17.484375 21.921875 
Q 17.484375 14.15625 20.5 10.265625 
Q 23.53125 6.390625 29.59375 6.390625 
Q 36.859375 6.390625 41.078125 11.03125 
Q 45.3125 15.671875 45.3125 23.6875 
L 45.3125 54.6875 
L 54.296875 54.6875 
L 54.296875 0 
L 45.3125 0 
L 45.3125 8.40625 
Q 42.046875 3.421875 37.71875 1 
Q 33.40625 -1.421875 27.6875 -1.421875 
Q 18.265625 -1.421875 13.375 4.4375 
Q 8.5 10.296875 8.5 21.578125 
z
M 31.109375 56 
z
" id="DejaVuSans-75"/>
      <path d="M 11.71875 12.40625 
L 22.015625 12.40625 
L 22.015625 4 
L 14.015625 -11.625 
L 7.71875 -11.625 
L 11.71875 4 
z
" id="DejaVuSans-2c"/>
      <path d="M 18.109375 8.203125 
L 18.109375 -20.796875 
L 9.078125 -20.796875 
L 9.078125 54.6875 
L 18.109375 54.6875 
L 18.109375 46.390625 
Q 20.953125 51.265625 25.265625 53.625 
Q 29.59375 56 35.59375 56 
Q 45.5625 56 51.78125 48.09375 
Q 58.015625 40.1875 58.015625 27.296875 
Q 58.015625 14.40625 51.78125 6.484375 
Q 45.5625 -1.421875 35.59375 -1.421875 
Q 29.59375 -1.421875 25.265625 0.953125 
Q 20.953125 3.328125 18.109375 8.203125 
z
M 48.6875 27.296875 
Q 48.6875 37.203125 44.609375 42.84375 
Q 40.53125 48.484375 33.40625 48.484375 
Q 26.265625 48.484375 22.1875 42.84375 
Q 18.109375 37.203125 18.109375 27.296875 
Q 18.109375 17.390625 22.1875 11.75 
Q 26.265625 6.109375 33.40625 6.109375 
Q 40.53125 6.109375 44.609375 11.75 
Q 48.6875 17.390625 48.6875 27.296875 
z
" id="DejaVuSans-70"/>
     </defs>
     <g transform="translate(16.139531 294.999375)rotate(-90)scale(0.17 -0.17)">
      <use xlink:href="#DejaVuSans-46"/>
      <use x="57.410156" xlink:href="#DejaVuSans-72"/>
      <use x="98.523438" xlink:href="#DejaVuSans-61"/>
      <use x="159.802734" xlink:href="#DejaVuSans-63"/>
      <use x="214.783203" xlink:href="#DejaVuSans-74"/>
      <use x="253.992188" xlink:href="#DejaVuSans-69"/>
      <use x="281.775391" xlink:href="#DejaVuSans-6f"/>
      <use x="342.957031" xlink:href="#DejaVuSans-6e"/>
      <use x="406.335938" xlink:href="#DejaVuSans-20"/>
      <use x="438.123047" xlink:href="#DejaVuSans-6f"/>
      <use x="499.304688" xlink:href="#DejaVuSans-66"/>
      <use x="534.509766" xlink:href="#DejaVuSans-20"/>
      <use x="566.296875" xlink:href="#DejaVuSans-66"/>
      <use x="601.501953" xlink:href="#DejaVuSans-75"/>
      <use x="664.880859" xlink:href="#DejaVuSans-6e"/>
      <use x="728.259766" xlink:href="#DejaVuSans-63"/>
      <use x="783.240234" xlink:href="#DejaVuSans-74"/>
      <use x="822.449219" xlink:href="#DejaVuSans-69"/>
      <use x="850.232422" xlink:href="#DejaVuSans-6f"/>
      <use x="911.414062" xlink:href="#DejaVuSans-6e"/>
      <use x="974.792969" xlink:href="#DejaVuSans-2c"/>
      <use x="1006.580078" xlink:href="#DejaVuSans-74"/>
      <use x="1045.789062" xlink:href="#DejaVuSans-61"/>
      <use x="1107.068359" xlink:href="#DejaVuSans-72"/>
      <use x="1148.166016" xlink:href="#DejaVuSans-67"/>
      <use x="1211.642578" xlink:href="#DejaVuSans-65"/>
      <use x="1273.166016" xlink:href="#DejaVuSans-74"/>
      <use x="1312.375" xlink:href="#DejaVuSans-20"/>
      <use x="1344.162109" xlink:href="#DejaVuSans-70"/>
      <use x="1407.638672" xlink:href="#DejaVuSans-61"/>
      <use x="1468.917969" xlink:href="#DejaVuSans-69"/>
      <use x="1496.701172" xlink:href="#DejaVuSans-72"/>
      <use x="1537.814453" xlink:href="#DejaVuSans-73"/>
     </g>
    </g>
   </g>
   <g id="line2d_41">
    <defs>
     <path d="M 0 1.5 
C 0.397805 1.5 0.77937 1.341951 1.06066 1.06066 
C 1.341951 0.77937 1.5 0.397805 1.5 0 
C 1.5 -0.397805 1.341951 -0.77937 1.06066 -1.06066 
C 0.77937 -1.341951 0.397805 -1.5 0 -1.5 
C -0.397805 -1.5 -0.77937 -1.341951 -1.06066 -1.06066 
C -1.341951 -0.77937 -1.5 -0.397805 -1.5 0 
C -1.5 0.397805 -1.341951 0.77937 -1.06066 1.06066 
C -0.77937 1.341951 -0.397805 1.5 0 1.5 
z
" id="m7cda8d58e5" style="stroke:#f5deb3;"/>
    </defs>
    <g>
     <use style="fill:#f5deb3;stroke:#f5deb3;" x="183.472913" xlink:href="#m7cda8d58e5" y="27.513663"/>
     <use style="fill:#f5deb3;stroke:#f5deb3;" x="183.472913" xlink:href="#m7cda8d58e5" y="27.513663"/>
    </g>
   </g>
   <g id="line2d_42">
    <defs>
     <path d="M 0 1.5 
C 0.397805 1.5 0.77937 1.341951 1.06066 1.06066 
C 1.341951 0.77937 1.5 0.397805 1.5 0 
C 1.5 -0.397805 1.341951 -0.77937 1.06066 -1.06066 
C 0.77937 -1.341951 0.397805 -1.5 0 -1.5 
C -0.397805 -1.5 -0.77937 -1.341951 -1.06066 -1.06066 
C -1.341951 -0.77937 -1.5 -0.397805 -1.5 0 
C -1.5 0.397805 -1.341951 0.77937 -1.06066 1.06066 
C -0.77937 1.341951 -0.397805 1.5 0 1.5 
z
" id="mea50084dd5" style="stroke:#000080;"/>
    </defs>
    <g>
     <use style="fill:#000080;stroke:#000080;" x="236.243131" xlink:href="#mea50084dd5" y="27.513663"/>
     <use style="fill:#000080;stroke:#000080;" x="236.243131" xlink:href="#mea50084dd5" y="27.513663"/>
    </g>
   </g>
   <g id="line2d_43">
    <path d="M 28.455965 294.88 
L 28.455965 270.240357 
L 40.370217 270.240357 
L 40.370217 268.667614 
L 47.339607 268.667614 
L 47.339607 267.619119 
L 52.284468 267.619119 
L 52.284468 266.570623 
L 56.12 266.570623 
L 56.12 265.522128 
L 59.253858 265.522128 
L 59.253858 264.99788 
L 61.903497 264.99788 
L 61.903497 263.949385 
L 68.034251 263.949385 
L 68.034251 263.425137 
L 69.672503 263.425137 
L 69.672503 262.900889 
L 72.543934 262.900889 
L 72.543934 261.852394 
L 75.003641 261.852394 
L 75.003641 261.328146 
L 80.787138 261.328146 
L 80.787138 260.803898 
L 83.784035 260.803898 
L 83.784035 260.279651 
L 105.020098 260.279651 
L 105.020098 259.755403 
L 107.612537 259.755403 
L 107.612537 259.231155 
L 108.6141 259.231155 
L 108.6141 258.706907 
L 110.746395 258.706907 
L 110.746395 257.658412 
L 112.122219 257.658412 
L 112.122219 257.134164 
L 120.769881 257.134164 
L 120.849643 256.085669 
L 122.371755 256.085669 
L 122.371755 255.561421 
L 122.660646 255.561421 
L 122.660646 255.037173 
L 122.803291 255.037173 
L 122.803291 254.512926 
L 123.769975 254.512926 
L 123.769975 253.988678 
L 124.036471 253.988678 
L 124.036471 253.46443 
L 125.310285 253.46443 
L 125.310285 252.940182 
L 126.323427 252.940182 
L 126.323427 252.415935 
L 130.468672 252.415935 
L 130.468672 251.891687 
L 131.181257 251.891687 
L 131.181257 251.367439 
L 131.569473 251.367439 
L 131.569473 250.843192 
L 132.279675 250.843192 
L 132.279675 250.318944 
L 133.880682 250.318944 
L 133.880682 249.794696 
L 135.276571 249.794696 
L 135.276571 249.270448 
L 135.983745 249.270448 
L 135.983745 248.746201 
L 136.407373 248.746201 
L 136.407373 247.697705 
L 136.599426 247.697705 
L 136.599426 247.173458 
L 140.048681 247.173458 
L 140.048681 246.64921 
L 141.757814 246.64921 
L 141.757814 246.124962 
L 142.473629 246.124962 
L 142.473629 245.600714 
L 142.920112 245.600714 
L 142.920112 245.076467 
L 143.779723 245.076467 
L 143.779723 242.979476 
L 144.193927 242.979476 
L 144.193927 241.93098 
L 145.110339 241.93098 
L 145.110339 241.406733 
L 145.37982 241.406733 
L 145.37982 240.882485 
L 146.489148 240.882485 
L 146.489148 240.358237 
L 146.843566 240.358237 
L 146.843566 238.785494 
L 147.531203 238.785494 
L 147.531203 238.261246 
L 147.864973 238.261246 
L 147.864973 237.212751 
L 148.192385 237.212751 
L 148.192385 236.688503 
L 148.497755 236.688503 
L 148.497755 236.164255 
L 149.138788 236.164255 
L 149.138788 235.640008 
L 149.261127 235.640008 
L 149.276358 234.591512 
L 149.860095 234.591512 
L 149.860095 234.067265 
L 150.035789 234.067265 
L 150.035789 233.543017 
L 151.163317 233.543017 
L 151.163317 233.018769 
L 151.700505 233.018769 
L 151.700505 231.970274 
L 152.912822 231.970274 
L 152.97432 229.349035 
L 153.695627 229.349035 
L 153.695627 228.30054 
L 154.342587 228.30054 
L 154.353922 226.727797 
L 155.693974 226.727797 
L 155.693974 226.203549 
L 156.711349 226.203549 
L 156.711349 224.630806 
L 157.303617 224.630806 
L 157.313159 223.58231 
L 157.671858 223.58231 
L 157.671858 223.058063 
L 158.223412 223.058063 
L 158.223412 222.533815 
L 158.4034 222.533815 
L 158.4034 222.009567 
L 158.59038 222.009567 
L 158.59038 221.485319 
L 158.862733 221.485319 
L 158.932322 219.388328 
L 159.276106 219.388328 
L 159.352519 218.339833 
L 161.053039 218.339833 
L 161.053039 216.76709 
L 161.95004 216.76709 
L 161.95004 216.242842 
L 162.381577 216.242842 
L 162.452458 214.670099 
L 162.523048 214.670099 
L 162.523048 214.145851 
L 162.940606 214.145851 
L 162.940606 213.621604 
L 163.077568 213.621604 
L 163.098018 212.573108 
L 163.634578 212.573108 
L 163.634578 212.04886 
L 164.006909 212.04886 
L 164.006909 211.524613 
L 164.186897 211.524613 
L 164.282549 210.476117 
L 164.390315 210.476117 
L 164.390315 209.427622 
L 164.522512 209.427622 
L 164.522512 208.903374 
L 164.641248 208.903374 
L 164.641248 207.854879 
L 164.765354 207.854879 
L 164.765354 207.330631 
L 164.998716 207.330631 
L 165.01091 206.282136 
L 165.259017 206.282136 
L 165.259017 204.185145 
L 165.37279 204.185145 
L 165.37279 203.660897 
L 165.988305 203.660897 
L 165.988305 203.136649 
L 166.526822 203.136649 
L 166.526822 202.612401 
L 167.156915 202.612401 
L 167.1999 200.515411 
L 167.608225 200.515411 
L 167.608225 199.991163 
L 168.271286 199.991163 
L 168.32666 198.942667 
L 168.426886 198.942667 
L 168.426886 197.894172 
L 168.822044 197.894172 
L 168.822044 197.369924 
L 169.016268 197.369924 
L 169.112563 196.321429 
L 169.492438 196.321429 
L 169.520593 194.224438 
L 169.679273 194.224438 
L 169.76269 192.651695 
L 169.877881 192.651695 
L 169.891652 191.603199 
L 170.137663 191.603199 
L 170.227893 189.506209 
L 170.27283 189.506209 
L 170.308696 188.457713 
L 170.531177 188.457713 
L 170.61497 186.88497 
L 170.85959 186.88497 
L 170.967682 185.312227 
L 171.019325 185.312227 
L 171.105054 184.263731 
L 171.27524 184.263731 
L 171.27524 183.215236 
L 171.5274 183.215236 
L 171.5274 182.690988 
L 171.664528 182.690988 
L 171.664528 182.16674 
L 171.939617 182.16674 
L 172.020888 180.593997 
L 172.202353 180.593997 
L 172.202353 180.06975 
L 172.34218 180.06975 
L 172.441364 179.021254 
L 172.575343 179.021254 
L 172.575343 178.497006 
L 172.766612 178.497006 
L 172.824741 177.448511 
L 172.890383 177.448511 
L 172.890383 176.924263 
L 173.199753 176.924263 
L 173.282826 175.875768 
L 173.570462 175.875768 
L 173.640702 173.778777 
L 174.002121 173.778777 
L 174.002121 173.254529 
L 174.224653 173.254529 
L 174.260278 172.206034 
L 174.366709 172.206034 
L 174.366709 171.681786 
L 174.974758 171.681786 
L 175.059893 170.109043 
L 175.195237 170.109043 
L 175.195237 169.584795 
L 175.372942 169.584795 
L 175.396276 167.487804 
L 175.908232 167.487804 
L 175.921161 166.439309 
L 176.177712 166.439309 
L 176.241256 165.390813 
L 176.304566 165.390813 
L 176.304566 164.866566 
L 176.679606 164.866566 
L 176.769026 163.81807 
L 176.925162 163.81807 
L 176.958653 162.245327 
L 177.34662 162.245327 
L 177.432645 159.624089 
L 177.676501 159.624089 
L 177.757992 158.051345 
L 178.045915 158.051345 
L 178.045915 157.00285 
L 178.179591 157.00285 
L 178.179591 156.478602 
L 178.351549 156.478602 
L 178.385176 155.430107 
L 178.607685 155.430107 
L 178.662865 153.857364 
L 178.881832 153.857364 
L 178.881832 152.28462 
L 179.098044 152.28462 
L 179.098044 151.760373 
L 179.417347 151.760373 
L 179.417347 150.711877 
L 179.556505 150.711877 
L 179.556505 150.18763 
L 180.097073 150.18763 
L 180.140098 149.139134 
L 180.208212 149.139134 
L 180.208212 148.614886 
L 180.475521 148.614886 
L 180.475521 148.090639 
L 180.687395 148.090639 
L 180.687395 147.566391 
L 180.819109 147.566391 
L 180.819109 147.042143 
L 180.983548 147.042143 
L 180.983548 146.517896 
L 181.122573 146.517896 
L 181.170253 144.945152 
L 181.312505 144.945152 
L 181.312505 144.420905 
L 181.77835 144.420905 
L 181.888299 142.848162 
L 181.970301 142.848162 
L 182.020222 141.799666 
L 182.189325 141.799666 
L 182.276606 140.226923 
L 182.365666 140.226923 
L 182.454268 138.65418 
L 182.542415 138.65418 
L 182.542415 137.081437 
L 182.786848 137.081437 
L 182.786848 136.557189 
L 182.933576 136.557189 
L 183.019305 134.984446 
L 183.06201 134.984446 
L 183.127993 132.887455 
L 183.176785 132.887455 
L 183.176785 132.363207 
L 183.458331 132.363207 
L 183.458331 131.838959 
L 183.690166 131.838959 
L 183.770166 130.266216 
L 183.809006 130.266216 
L 183.809006 129.741969 
L 184.016027 129.741969 
L 184.096536 128.693473 
L 184.317993 128.693473 
L 184.403022 127.644978 
L 184.44833 127.644978 
L 184.51509 126.596482 
L 184.766052 126.596482 
L 184.787283 125.023739 
L 184.919866 125.023739 
L 184.919866 123.975244 
L 185.03433 123.975244 
L 185.03433 123.450996 
L 185.185773 123.450996 
L 185.185773 122.926748 
L 185.410464 122.926748 
L 185.503225 121.878253 
L 185.632256 121.878253 
L 185.632256 121.354005 
L 185.938034 121.354005 
L 185.959668 120.30551 
L 186.103207 120.30551 
L 186.103207 119.257014 
L 186.660477 119.257014 
L 186.660477 118.732766 
L 186.842861 118.732766 
L 186.842861 118.208519 
L 187.3571 118.208519 
L 187.3571 117.684271 
L 187.533921 117.684271 
L 187.607744 115.58728 
L 187.943309 115.58728 
L 188.028183 114.014537 
L 188.072854 114.014537 
L 188.091963 112.441794 
L 188.686352 112.441794 
L 188.74774 111.393298 
L 188.839413 111.393298 
L 188.930599 110.344803 
L 188.982058 110.344803 
L 189.08151 108.77206 
L 189.208751 108.77206 
L 189.260871 107.199317 
L 189.526452 107.199317 
L 189.584917 106.150821 
L 189.701253 106.150821 
L 189.701253 105.626573 
L 190.448549 105.626573 
L 190.448549 105.102326 
L 190.604641 105.102326 
L 190.604641 104.578078 
L 190.778396 104.578078 
L 190.778396 104.05383 
L 191.039131 104.05383 
L 191.039131 103.529583 
L 191.305215 103.529583 
L 191.305215 103.005335 
L 192.355033 103.005335 
L 192.355033 102.481087 
L 192.723638 102.481087 
L 192.820612 101.432592 
L 192.917042 101.432592 
L 192.917042 100.908344 
L 193.292739 100.908344 
L 193.292739 100.384096 
L 193.577318 100.384096 
L 193.577318 99.859849 
L 193.715565 99.859849 
L 193.715565 99.335601 
L 193.829928 99.335601 
L 193.829928 98.811353 
L 194.204246 98.811353 
L 194.204246 98.287105 
L 194.88217 98.287105 
L 194.88217 97.762858 
L 195.445367 97.762858 
L 195.445367 97.23861 
L 195.844322 97.23861 
L 195.844322 96.714362 
L 195.990695 96.714362 
L 196.085923 95.665867 
L 196.466535 95.665867 
L 196.466535 95.141619 
L 196.90098 95.141619 
L 196.90098 94.617371 
L 197.622549 94.617371 
L 197.622549 94.093124 
L 198.22966 94.093124 
L 198.22966 93.568876 
L 198.38864 93.568876 
L 198.38864 93.044628 
L 198.510608 93.044628 
L 198.510608 92.520381 
L 198.733991 92.520381 
L 198.733991 91.996133 
L 199.274673 91.996133 
L 199.274673 91.471885 
L 199.717323 91.471885 
L 199.744816 90.42339 
L 200.038016 90.42339 
L 200.038016 89.899142 
L 200.171731 89.899142 
L 200.183549 88.850646 
L 200.860001 88.850646 
L 200.860001 88.326399 
L 201.234496 88.326399 
L 201.307688 87.277903 
L 201.352632 87.277903 
L 201.444363 86.229408 
L 201.557435 86.229408 
L 201.586494 85.180912 
L 201.716657 85.180912 
L 201.731059 83.608169 
L 201.845841 83.608169 
L 201.845841 83.083922 
L 202.002426 83.083922 
L 202.002426 82.559674 
L 202.778193 82.559674 
L 202.876788 81.511178 
L 202.913112 81.511178 
L 202.966785 80.462683 
L 203.520454 80.462683 
L 203.58261 78.88994 
L 203.892601 78.88994 
L 203.943305 77.841444 
L 204.690081 77.841444 
L 204.777721 76.792949 
L 204.907452 76.792949 
L 204.939135 75.744454 
L 205.05817 75.744454 
L 205.141007 74.695958 
L 205.206402 74.695958 
L 205.206402 74.17171 
L 205.324775 74.17171 
L 205.390058 72.598967 
L 205.537775 72.598967 
L 205.604554 71.550472 
L 205.758421 71.550472 
L 205.857785 70.501976 
L 206.038009 70.501976 
L 206.038009 69.977729 
L 206.171947 69.977729 
L 206.171947 69.453481 
L 206.354974 69.453481 
L 206.354974 68.929233 
L 206.513199 68.929233 
L 206.513199 68.404985 
L 206.747032 68.404985 
L 206.747032 67.880738 
L 206.911825 67.880738 
L 206.911825 67.35649 
L 207.77276 67.35649 
L 207.77276 66.832242 
L 208.276341 66.832242 
L 208.30779 65.783747 
L 208.395446 65.783747 
L 208.395446 65.259499 
L 208.642769 65.259499 
L 208.642769 64.735251 
L 208.757936 64.735251 
L 208.824762 63.686756 
L 208.985981 63.686756 
L 209.095127 62.638261 
L 209.318771 62.638261 
L 209.322474 61.589765 
L 209.543198 61.589765 
L 209.543198 61.065517 
L 209.696941 61.065517 
L 209.696941 60.54127 
L 209.952244 60.54127 
L 209.952244 60.017022 
L 210.551139 60.017022 
L 210.617795 58.444279 
L 210.794152 58.444279 
L 210.794152 57.920031 
L 210.988471 57.920031 
L 210.988471 57.395783 
L 211.172309 57.395783 
L 211.172309 56.871536 
L 211.896576 56.871536 
L 211.989955 55.82304 
L 212.012132 55.82304 
L 212.110397 54.774545 
L 212.196753 54.774545 
L 212.30448 53.726049 
L 212.356927 53.726049 
L 212.356927 53.201802 
L 212.499473 53.201802 
L 212.592703 52.153306 
L 212.84943 52.153306 
L 212.955029 51.104811 
L 213.156155 51.104811 
L 213.156155 50.580563 
L 214.078869 50.580563 
L 214.109022 49.00782 
L 214.332121 49.00782 
L 214.343529 47.959324 
L 214.671776 47.959324 
L 214.671776 47.435077 
L 215.186443 47.435077 
L 215.258678 45.862334 
L 215.908111 45.862334 
L 216.007208 43.765343 
L 217.096233 43.765343 
L 217.096233 43.241095 
L 218.135325 43.241095 
L 218.151947 42.192599 
L 218.318107 42.192599 
L 218.318107 41.668352 
L 218.454677 41.668352 
L 218.454677 41.144104 
L 218.67633 41.144104 
L 218.67633 40.619856 
L 219.303933 40.619856 
L 219.303933 40.095609 
L 220.474974 40.095609 
L 220.474974 39.571361 
L 220.665251 39.571361 
L 220.665251 39.047113 
L 221.213569 39.047113 
L 221.213569 38.522865 
L 221.462017 38.522865 
L 221.501939 37.47437 
L 222.204023 37.47437 
L 222.204023 36.950122 
L 222.49832 36.950122 
L 222.49832 36.425875 
L 222.800556 36.425875 
L 222.800556 35.901627 
L 224.004764 35.901627 
L 224.004764 35.377379 
L 224.378102 35.377379 
L 224.378102 34.853131 
L 225.199336 34.853131 
L 225.199336 34.328884 
L 227.43275 34.328884 
L 227.494282 33.280388 
L 227.774971 33.280388 
L 227.850734 32.231893 
L 228.411602 32.231893 
L 228.411602 31.707645 
L 230.472001 31.707645 
L 230.472001 31.183397 
L 231.377984 31.183397 
L 231.447112 30.134902 
L 231.934685 30.134902 
L 231.934685 29.610654 
L 232.403732 29.610654 
L 232.403732 29.086407 
L 232.550531 29.086407 
L 232.550531 28.562159 
L 235.681194 28.562159 
L 235.681194 28.037911 
L 236.243131 28.037911 
L 236.243131 27.513663 
L 333.168 27.513663 
L 333.168 27.513663 
" style="fill:none;stroke:#000080;stroke-linecap:square;stroke-width:1.5;"/>
   </g>
   <g id="line2d_44">
    <defs>
     <path d="M 0 6 
C 1.591219 6 3.117479 5.367802 4.242641 4.242641 
C 5.367802 3.117479 6 1.591219 6 0 
C 6 -1.591219 5.367802 -3.117479 4.242641 -4.242641 
C 3.117479 -5.367802 1.591219 -6 0 -6 
C -1.591219 -6 -3.117479 -5.367802 -4.242641 -4.242641 
C -5.367802 -3.117479 -6 -1.591219 -6 0 
C -6 1.591219 -5.367802 3.117479 -4.242641 4.242641 
C -3.117479 5.367802 -1.591219 6 0 6 
z
" id="m15462286f0" style="stroke:#000080;stroke-width:1.5;"/>
    </defs>
    <g>
     <use style="fill:none;stroke:#000080;stroke-width:1.5;" x="136.599426" xlink:href="#m15462286f0" y="247.173458"/>
     <use style="fill:none;stroke:#000080;stroke-width:1.5;" x="184.016027" xlink:href="#m15462286f0" y="129.217721"/>
     <use style="fill:none;stroke:#000080;stroke-width:1.5;" x="236.243131" xlink:href="#m15462286f0" y="28.037911"/>
     <use style="fill:none;stroke:#000080;stroke-width:1.5;" x="236.243131" xlink:href="#m15462286f0" y="27.513663"/>
     <use style="fill:none;stroke:#000080;stroke-width:1.5;" x="236.243131" xlink:href="#m15462286f0" y="27.513663"/>
     <use style="fill:none;stroke:#000080;stroke-width:1.5;" x="333.168" xlink:href="#m15462286f0" y="27.513663"/>
    </g>
   </g>
   <g id="line2d_45">
    <path style="fill:none;stroke:#000080;stroke-linecap:square;stroke-width:1.5;"/>
    <g/>
   </g>
   <g id="line2d_46">
    <path clip-path="url(#p662bdf3222)" d="M 176.617665 164.866566 
" style="fill:none;stroke:#000080;stroke-linecap:square;stroke-width:1.5;"/>
    <defs>
     <path d="M -12 12 
L 12 -12 
M -12 -12 
L 12 12 
" id="m9805cb1713" style="stroke:#000080;"/>
    </defs>
    <g clip-path="url(#p662bdf3222)">
     <use style="fill:#000080;stroke:#000080;" x="176.617665" xlink:href="#m9805cb1713" y="164.866566"/>
    </g>
   </g>
   <g id="line2d_47">
    <defs>
     <path d="M 0 1.5 
C 0.397805 1.5 0.77937 1.341951 1.06066 1.06066 
C 1.341951 0.77937 1.5 0.397805 1.5 0 
C 1.5 -0.397805 1.341951 -0.77937 1.06066 -1.06066 
C 0.77937 -1.341951 0.397805 -1.5 0 -1.5 
C -0.397805 -1.5 -0.77937 -1.341951 -1.06066 -1.06066 
C -1.341951 -0.77937 -1.5 -0.397805 -1.5 0 
C -1.5 0.397805 -1.341951 0.77937 -1.06066 1.06066 
C -0.77937 1.341951 -0.397805 1.5 0 1.5 
z
" id="m2fb4058279" style="stroke:#ff00ff;"/>
    </defs>
    <g>
     <use style="fill:#ff00ff;stroke:#ff00ff;" x="252.368735" xlink:href="#m2fb4058279" y="27.513663"/>
     <use style="fill:#ff00ff;stroke:#ff00ff;" x="252.368735" xlink:href="#m2fb4058279" y="27.513663"/>
    </g>
   </g>
   <g id="line2d_48">
    <path d="M 28.455965 294.88 
L 28.455965 270.764605 
L 40.370217 270.764605 
L 40.370217 269.191862 
L 59.253858 269.191862 
L 59.253858 268.143366 
L 61.903497 268.143366 
L 61.903497 267.619119 
L 64.198719 267.619119 
L 64.198719 264.99788 
L 66.223248 264.99788 
L 66.223248 264.473632 
L 71.168109 264.473632 
L 71.168109 262.900889 
L 77.155024 262.900889 
L 77.155024 262.376641 
L 83.08236 262.376641 
L 83.08236 261.328146 
L 89.069276 261.328146 
L 89.069276 260.803898 
L 90.981092 260.803898 
L 90.981092 258.18266 
L 92.287186 258.18266 
L 92.287186 257.658412 
L 94.26507 257.658412 
L 94.26507 257.134164 
L 96.372436 257.134164 
L 96.372436 256.085669 
L 97.646251 256.085669 
L 97.646251 255.037173 
L 97.950482 255.037173 
L 97.950482 254.512926 
L 101.23446 254.512926 
L 101.23446 253.988678 
L 101.725597 253.988678 
L 101.725597 253.46443 
L 105.218813 253.46443 
L 105.218813 252.415935 
L 106.910863 252.415935 
L 106.910863 251.891687 
L 110.746395 251.891687 
L 110.746395 251.367439 
L 113.639848 251.367439 
L 113.639848 250.843192 
L 115.034286 250.843192 
L 115.034286 250.318944 
L 116.427273 250.318944 
L 116.427273 249.794696 
L 116.834124 249.794696 
L 116.834124 248.746201 
L 117.033994 248.746201 
L 117.033994 248.221953 
L 117.905717 248.221953 
L 117.999901 247.173458 
L 119.95122 247.173458 
L 120.034863 246.124962 
L 120.528351 246.124962 
L 120.528351 245.600714 
L 121.627542 245.600714 
L 121.70343 244.552219 
L 122.003676 244.552219 
L 122.003676 244.027971 
L 122.371755 244.027971 
L 122.371755 243.503724 
L 123.293428 243.503724 
L 123.293428 242.979476 
L 126.381204 242.979476 
L 126.381204 242.455228 
L 126.610389 242.455228 
L 126.610389 241.406733 
L 127.05979 241.406733 
L 127.115148 240.358237 
L 127.712602 240.358237 
L 127.712602 239.83399 
L 127.872003 239.83399 
L 127.872003 239.309742 
L 128.186438 239.309742 
L 128.186438 238.785494 
L 129.096637 238.785494 
L 129.096637 238.261246 
L 130.33171 238.261246 
L 130.33171 237.736999 
L 131.907344 237.736999 
L 131.907344 237.212751 
L 132.402015 237.212751 
L 132.402015 236.688503 
L 132.603999 236.688503 
L 132.603999 235.640008 
L 132.922316 235.640008 
L 132.922316 235.11576 
L 133.389004 235.11576 
L 133.389004 234.591512 
L 133.617681 234.591512 
L 133.693236 233.543017 
L 134.503128 233.543017 
L 134.503128 233.018769 
L 134.929315 233.018769 
L 134.929315 232.494521 
L 135.138509 232.494521 
L 135.138509 231.970274 
L 135.81799 231.970274 
L 135.81799 231.446026 
L 135.950722 231.446026 
L 135.950722 230.921778 
L 136.407373 230.921778 
L 136.407373 230.397531 
L 136.567566 230.397531 
L 136.66297 227.776292 
L 136.852205 227.776292 
L 136.852205 226.727797 
L 137.588973 226.727797 
L 137.678888 225.679301 
L 137.975251 225.679301 
L 137.975251 225.155053 
L 138.121538 225.155053 
L 138.121538 224.630806 
L 138.750809 224.630806 
L 138.750809 224.106558 
L 139.08458 224.106558 
L 139.139583 223.058063 
L 139.75979 223.058063 
L 139.75979 222.533815 
L 139.917968 222.533815 
L 140.022618 221.485319 
L 140.307161 221.485319 
L 140.307161 220.961072 
L 140.511183 220.961072 
L 140.511183 220.436824 
L 140.912102 220.436824 
L 140.912102 219.912576 
L 141.757814 219.912576 
L 141.804906 218.864081 
L 141.898705 218.864081 
L 141.898705 218.339833 
L 142.382924 218.339833 
L 142.382924 217.815585 
L 142.496231 217.815585 
L 142.496231 217.291338 
L 143.204228 217.291338 
L 143.204228 216.76709 
L 143.568817 216.76709 
L 143.568817 216.242842 
L 143.842493 216.242842 
L 143.842493 215.718594 
L 144.029441 215.718594 
L 144.132429 214.670099 
L 144.598384 214.670099 
L 144.698028 212.573108 
L 144.875945 212.573108 
L 144.875945 212.04886 
L 145.207068 212.04886 
L 145.207068 211.000365 
L 145.34158 211.000365 
L 145.34158 210.476117 
L 145.607487 210.476117 
L 145.607487 209.95187 
L 145.832178 209.95187 
L 145.832178 209.427622 
L 146.182039 209.427622 
L 146.182039 208.379126 
L 146.57844 208.379126 
L 146.596243 206.806383 
L 146.738006 206.806383 
L 146.738006 206.282136 
L 147.070079 206.282136 
L 147.070079 205.757888 
L 147.765521 205.757888 
L 147.848437 204.709392 
L 148.192385 204.709392 
L 148.289405 203.660897 
L 148.719342 203.660897 
L 148.719342 202.612401 
L 148.969136 202.612401 
L 149.07729 201.563906 
L 149.123434 201.563906 
L 149.215352 200.515411 
L 149.367465 200.515411 
L 149.367465 199.991163 
L 149.712298 199.991163 
L 149.756771 198.942667 
L 149.860095 198.942667 
L 149.904187 197.894172 
L 150.108469 197.894172 
L 150.137454 196.321429 
L 150.438891 196.321429 
L 150.438891 195.797181 
L 150.665061 195.797181 
L 150.693124 194.748686 
L 150.846657 194.748686 
L 150.846657 194.224438 
L 151.366735 194.224438 
L 151.420576 193.175943 
L 151.871538 193.175943 
L 151.975949 192.127447 
L 152.001953 192.127447 
L 152.001953 191.603199 
L 152.170027 191.603199 
L 152.195739 190.554704 
L 152.851103 190.554704 
L 152.851103 190.030456 
L 153.145352 190.030456 
L 153.206025 188.981961 
L 153.398752 188.981961 
L 153.482395 187.933465 
L 153.624843 187.933465 
L 153.68385 186.88497 
L 153.824645 186.88497 
L 153.824645 185.836474 
L 154.079811 185.836474 
L 154.125801 184.787979 
L 154.433054 184.787979 
L 154.433054 184.263731 
L 154.856386 184.263731 
L 154.856386 183.739484 
L 155.064205 183.739484 
L 155.064205 182.690988 
L 155.280281 182.690988 
L 155.280281 181.642493 
L 155.472454 181.642493 
L 155.472454 181.118245 
L 155.641489 181.118245 
L 155.641489 180.06975 
L 156.128628 180.06975 
L 156.128628 179.545502 
L 156.442538 179.545502 
L 156.442538 179.021254 
L 156.582447 179.021254 
L 156.582447 178.497006 
L 157.073023 178.497006 
L 157.073023 177.972759 
L 157.3798 177.972759 
L 157.3798 177.448511 
L 157.69986 177.448511 
L 157.69986 176.924263 
L 158.059796 176.924263 
L 158.078053 175.875768 
L 158.223412 175.875768 
L 158.223412 175.35152 
L 158.358579 175.35152 
L 158.376521 174.303025 
L 159.360989 174.303025 
L 159.360989 173.778777 
L 159.646493 173.778777 
L 159.646493 173.254529 
L 160.00091 173.254529 
L 160.098527 171.681786 
L 160.33217 171.681786 
L 160.435885 170.109043 
L 160.554783 170.109043 
L 160.625729 167.487804 
L 161.417476 167.487804 
L 161.492437 166.439309 
L 161.581961 166.439309 
L 161.596837 165.390813 
L 161.993685 165.390813 
L 161.993685 164.866566 
L 162.374473 164.866566 
L 162.374473 164.342318 
L 162.684313 164.342318 
L 162.726134 163.293823 
L 162.795612 163.293823 
L 162.795612 162.769575 
L 163.24725 162.769575 
L 163.24725 162.245327 
L 163.8902 162.245327 
L 163.935681 160.672584 
L 164.237977 160.672584 
L 164.257094 159.624089 
L 164.703413 159.624089 
L 164.752984 158.575593 
L 164.820911 158.575593 
L 164.820911 158.051345 
L 164.955965 158.051345 
L 164.955965 157.00285 
L 165.28903 157.00285 
L 165.28903 156.478602 
L 165.521353 156.478602 
L 165.521353 155.954354 
L 165.709659 155.954354 
L 165.709659 155.430107 
L 165.832123 155.430107 
L 165.832123 154.905859 
L 166.532402 154.905859 
L 166.532402 154.381611 
L 176.078752 154.381611 
L 176.136282 153.333116 
L 176.402238 153.333116 
L 176.402238 152.808868 
L 176.744404 152.808868 
L 176.744404 152.28462 
L 177.559412 152.28462 
L 177.559412 151.760373 
L 178.148398 151.760373 
L 178.185256 150.711877 
L 178.359962 150.711877 
L 178.359962 150.18763 
L 178.585563 150.18763 
L 178.67388 149.139134 
L 178.775434 149.139134 
L 178.865506 148.090639 
L 178.933429 148.090639 
L 178.933429 147.566391 
L 179.194459 147.566391 
L 179.194459 147.042143 
L 179.330128 147.042143 
L 179.427889 145.993648 
L 179.525096 145.993648 
L 179.569575 144.945152 
L 179.831488 144.945152 
L 179.831488 144.420905 
L 180.079325 144.420905 
L 180.122395 143.372409 
L 180.32364 143.372409 
L 180.425872 142.323914 
L 180.45816 142.323914 
L 180.478 141.275418 
L 180.594098 141.275418 
L 180.66044 140.226923 
L 180.87006 140.226923 
L 180.973919 138.65418 
L 181.18691 138.65418 
L 181.295969 137.605684 
L 181.307782 137.605684 
L 181.307782 137.081437 
L 181.71158 137.081437 
L 181.743846 136.032941 
L 181.854015 136.032941 
L 181.854015 135.508693 
L 182.058698 135.508693 
L 182.076775 134.460198 
L 182.447638 134.460198 
L 182.447638 133.93595 
L 182.564381 133.93595 
L 182.564381 133.411703 
L 182.702127 133.411703 
L 182.771673 132.363207 
L 182.849577 132.363207 
L 182.849577 131.838959 
L 183.16831 131.838959 
L 183.170429 130.790464 
L 183.295008 130.790464 
L 183.368486 129.741969 
L 183.624246 129.741969 
L 183.624246 129.217721 
L 184.116604 129.217721 
L 184.116604 128.693473 
L 184.260409 128.693473 
L 184.270351 127.644978 
L 184.38526 127.644978 
L 184.38526 127.12073 
L 185.406743 127.12073 
L 185.406743 126.596482 
L 189.205768 126.596482 
L 189.271277 125.547987 
L 189.941597 125.547987 
L 189.941597 125.023739 
L 190.109417 125.023739 
L 190.109417 124.499491 
L 190.577117 124.499491 
L 190.59226 123.450996 
L 191.134063 123.450996 
L 191.134063 122.926748 
L 191.470756 122.926748 
L 191.470756 122.4025 
L 192.310264 122.4025 
L 192.310264 121.878253 
L 192.428152 121.878253 
L 192.535408 120.30551 
L 192.652988 120.30551 
L 192.652988 119.781262 
L 192.909829 119.781262 
L 193.003369 117.684271 
L 193.045178 117.684271 
L 193.145105 116.635776 
L 193.27038 116.635776 
L 193.27038 116.111528 
L 193.400593 116.111528 
L 193.439116 114.538785 
L 193.783131 114.538785 
L 193.783131 114.014537 
L 194.025996 114.014537 
L 194.025996 113.490289 
L 194.272143 113.490289 
L 194.327597 112.441794 
L 194.748707 112.441794 
L 194.748707 111.917546 
L 195.092096 111.917546 
L 195.092096 111.393298 
L 195.330852 111.393298 
L 195.330852 110.869051 
L 195.556032 110.869051 
L 195.556032 110.344803 
L 195.96756 110.344803 
L 195.96756 109.820555 
L 196.09092 109.820555 
L 196.100911 108.77206 
L 196.239181 108.77206 
L 196.239181 108.247812 
L 196.871402 108.247812 
L 196.871402 107.723564 
L 197.381359 107.723564 
L 197.381359 107.199317 
L 197.998686 107.199317 
L 198.07721 106.150821 
L 198.807528 106.150821 
L 198.901978 105.102326 
L 198.931652 105.102326 
L 198.931652 104.578078 
L 199.125391 104.578078 
L 199.231439 103.529583 
L 199.250575 103.529583 
L 199.250575 103.005335 
L 199.382283 103.005335 
L 199.461319 101.956839 
L 199.656521 101.956839 
L 199.656521 101.432592 
L 199.794031 101.432592 
L 199.794031 100.908344 
L 200.058655 100.908344 
L 200.058655 100.384096 
L 201.01153 100.384096 
L 201.102109 98.811353 
L 201.422392 98.811353 
L 201.422392 98.287105 
L 201.596653 98.287105 
L 201.596653 97.762858 
L 201.880841 97.762858 
L 201.986123 96.714362 
L 202.344751 96.714362 
L 202.344751 96.190115 
L 203.712025 96.190115 
L 203.712025 95.665867 
L 204.700985 95.665867 
L 204.715512 94.617371 
L 205.057577 94.617371 
L 205.057577 94.093124 
L 205.462627 94.093124 
L 205.52104 93.044628 
L 205.755573 93.044628 
L 205.755573 92.520381 
L 206.357174 92.520381 
L 206.450959 91.471885 
L 207.097192 91.471885 
L 207.097192 90.947637 
L 208.205368 90.947637 
L 208.2108 89.899142 
L 209.079175 89.899142 
L 209.079175 89.374894 
L 209.429971 89.374894 
L 209.429971 88.850646 
L 209.63888 88.850646 
L 209.63888 88.326399 
L 209.927688 88.326399 
L 209.927688 87.802151 
L 211.398144 87.802151 
L 211.398144 87.277903 
L 211.936771 87.277903 
L 212.042579 86.229408 
L 212.069029 86.229408 
L 212.069029 85.70516 
L 212.483693 85.70516 
L 212.545959 84.656665 
L 214.210663 84.656665 
L 214.239892 83.608169 
L 214.481889 83.608169 
L 214.481889 83.083922 
L 214.949227 83.083922 
L 215.044042 80.462683 
L 215.068244 80.462683 
L 215.168337 79.414188 
L 215.245895 79.414188 
L 215.272106 77.317197 
L 215.408091 77.317197 
L 215.408091 76.792949 
L 215.875267 76.792949 
L 215.983665 75.744454 
L 216.296491 75.744454 
L 216.296491 75.220206 
L 216.753056 75.220206 
L 216.805241 74.17171 
L 216.865625 74.17171 
L 216.915685 73.123215 
L 217.004124 73.123215 
L 217.044039 71.550472 
L 217.377168 71.550472 
L 217.377168 71.026224 
L 217.792124 71.026224 
L 217.792124 70.501976 
L 218.115081 70.501976 
L 218.115081 69.977729 
L 218.614716 69.977729 
L 218.679284 67.880738 
L 218.767937 67.880738 
L 218.767937 67.35649 
L 219.1005 67.35649 
L 219.180233 65.783747 
L 219.592039 65.783747 
L 219.592039 65.259499 
L 219.738089 65.259499 
L 219.738089 64.735251 
L 220.23848 64.735251 
L 220.299681 63.686756 
L 220.380621 63.686756 
L 220.477151 62.638261 
L 220.600058 62.638261 
L 220.600058 62.114013 
L 221.036323 62.114013 
L 221.036323 61.589765 
L 221.197573 61.589765 
L 221.265164 60.017022 
L 221.493506 60.017022 
L 221.493506 59.492774 
L 221.805039 59.492774 
L 221.805039 58.968526 
L 222.224791 58.968526 
L 222.224791 58.444279 
L 222.426783 58.444279 
L 222.450734 57.395783 
L 222.620451 57.395783 
L 222.620451 56.871536 
L 223.671809 56.871536 
L 223.671809 56.347288 
L 224.73482 56.347288 
L 224.73482 55.82304 
L 224.989866 55.82304 
L 224.989866 55.298792 
L 225.783037 55.298792 
L 225.880983 54.250297 
L 226.168391 54.250297 
L 226.203266 53.201802 
L 226.280227 53.201802 
L 226.280227 52.677554 
L 226.599583 52.677554 
L 226.599583 52.153306 
L 226.714884 52.153306 
L 226.714884 51.629058 
L 227.07122 51.629058 
L 227.07122 51.104811 
L 227.479805 51.104811 
L 227.479805 50.580563 
L 228.628967 50.580563 
L 228.628967 50.056315 
L 228.774206 50.056315 
L 228.805818 48.483572 
L 229.003269 48.483572 
L 229.003269 47.959324 
L 229.538309 47.959324 
L 229.55857 46.910829 
L 229.729262 46.910829 
L 229.729262 46.386581 
L 229.948393 46.386581 
L 230.024059 45.338086 
L 230.479977 45.338086 
L 230.479977 44.813838 
L 230.635776 44.813838 
L 230.635776 44.28959 
L 231.461033 44.28959 
L 231.487182 43.241095 
L 232.408686 43.241095 
L 232.408686 42.716847 
L 232.667313 42.716847 
L 232.667313 42.192599 
L 234.248912 42.192599 
L 234.248912 41.668352 
L 234.582142 41.668352 
L 234.608417 40.619856 
L 234.770495 40.619856 
L 234.770495 40.095609 
L 235.070281 40.095609 
L 235.08807 39.047113 
L 236.127339 39.047113 
L 236.127339 38.522865 
L 236.526772 38.522865 
L 236.526772 37.998618 
L 236.839542 37.998618 
L 236.839542 37.47437 
L 237.103109 37.47437 
L 237.103109 36.950122 
L 237.380165 36.950122 
L 237.380165 36.425875 
L 237.953544 36.425875 
L 237.965265 35.377379 
L 238.816217 35.377379 
L 238.816217 34.853131 
L 239.558937 34.853131 
L 239.558937 34.328884 
L 239.797948 34.328884 
L 239.797948 33.804636 
L 241.881662 33.804636 
L 241.881662 33.280388 
L 244.349977 33.280388 
L 244.349977 32.756141 
L 244.52769 32.756141 
L 244.53151 31.707645 
L 244.79856 31.707645 
L 244.79856 31.183397 
L 245.922916 31.183397 
L 245.922916 30.65915 
L 246.909919 30.65915 
L 246.909919 30.134902 
L 247.747117 30.134902 
L 247.747117 29.610654 
L 248.45751 29.610654 
L 248.45751 29.086407 
L 250.147985 29.086407 
L 250.147985 28.562159 
L 251.43577 28.562159 
L 251.43577 28.037911 
L 252.368735 28.037911 
L 252.368735 27.513663 
L 333.168 27.513663 
L 333.168 27.513663 
" style="fill:none;stroke:#ff00ff;stroke-linecap:square;stroke-width:1.5;"/>
   </g>
   <g id="line2d_49">
    <defs>
     <path d="M -0 8.485281 
L 5.091169 0 
L 0 -8.485281 
L -5.091169 -0 
z
" id="mc959fc6951" style="stroke:#ff00ff;stroke-linejoin:miter;stroke-width:1.5;"/>
    </defs>
    <g>
     <use style="fill:none;stroke:#ff00ff;stroke-linejoin:miter;stroke-width:1.5;" x="101.725597" xlink:href="#mc959fc6951" y="253.46443"/>
     <use style="fill:none;stroke:#ff00ff;stroke-linejoin:miter;stroke-width:1.5;" x="166.532402" xlink:href="#mc959fc6951" y="154.905859"/>
     <use style="fill:none;stroke:#ff00ff;stroke-linejoin:miter;stroke-width:1.5;" x="218.676867" xlink:href="#mc959fc6951" y="68.929233"/>
     <use style="fill:none;stroke:#ff00ff;stroke-linejoin:miter;stroke-width:1.5;" x="252.368735" xlink:href="#mc959fc6951" y="28.037911"/>
     <use style="fill:none;stroke:#ff00ff;stroke-linejoin:miter;stroke-width:1.5;" x="252.368735" xlink:href="#mc959fc6951" y="27.513663"/>
     <use style="fill:none;stroke:#ff00ff;stroke-linejoin:miter;stroke-width:1.5;" x="333.168" xlink:href="#mc959fc6951" y="27.513663"/>
    </g>
   </g>
   <g id="line2d_50">
    <path style="fill:none;stroke:#ff00ff;stroke-linecap:square;stroke-width:1.5;"/>
    <g/>
   </g>
   <g id="line2d_51">
    <path clip-path="url(#p662bdf3222)" d="M 190.686949 123.450996 
" style="fill:none;stroke:#ff00ff;stroke-linecap:square;stroke-width:1.5;"/>
    <defs>
     <path d="M -12 12 
L 12 -12 
M -12 -12 
L 12 12 
" id="m4973305360" style="stroke:#ff00ff;"/>
    </defs>
    <g clip-path="url(#p662bdf3222)">
     <use style="fill:#ff00ff;stroke:#ff00ff;" x="190.686949" xlink:href="#m4973305360" y="123.450996"/>
    </g>
   </g>
   <g id="line2d_52">
    <defs>
     <path d="M 0 1.5 
C 0.397805 1.5 0.77937 1.341951 1.06066 1.06066 
C 1.341951 0.77937 1.5 0.397805 1.5 0 
C 1.5 -0.397805 1.341951 -0.77937 1.06066 -1.06066 
C 0.77937 -1.341951 0.397805 -1.5 0 -1.5 
C -0.397805 -1.5 -0.77937 -1.341951 -1.06066 -1.06066 
C -1.341951 -0.77937 -1.5 -0.397805 -1.5 0 
C -1.5 0.397805 -1.341951 0.77937 -1.06066 1.06066 
C -0.77937 1.341951 -0.397805 1.5 0 1.5 
z
" id="m82a8d562bb" style="stroke:#ff7500;"/>
    </defs>
    <g>
     <use style="fill:#ff7500;stroke:#ff7500;" x="273.869585" xlink:href="#m82a8d562bb" y="169.060547"/>
     <use style="fill:#ff7500;stroke:#ff7500;" x="273.869585" xlink:href="#m82a8d562bb" y="169.060547"/>
    </g>
   </g>
   <g id="line2d_53">
    <path d="M 28.455965 294.88 
L 28.455965 274.958587 
L 40.370217 274.958587 
L 40.370217 267.619119 
L 59.253858 267.619119 
L 59.253858 265.522128 
L 61.903497 265.522128 
L 61.903497 264.473632 
L 64.198719 264.473632 
L 64.198719 263.949385 
L 66.223248 263.949385 
L 66.223248 263.425137 
L 68.034251 263.425137 
L 68.034251 262.376641 
L 77.155024 262.376641 
L 77.155024 261.852394 
L 78.137499 261.852394 
L 78.137499 261.328146 
L 82.350819 261.328146 
L 82.350819 260.803898 
L 90.522701 260.803898 
L 90.522701 260.279651 
L 92.70139 260.279651 
L 92.70139 259.755403 
L 94.26507 259.755403 
L 94.26507 259.231155 
L 94.996612 259.231155 
L 94.996612 258.706907 
L 97.950482 258.706907 
L 97.950482 258.18266 
L 99.395756 258.18266 
L 99.395756 257.658412 
L 104.201437 257.658412 
L 104.201437 257.134164 
L 110.457504 257.134164 
L 110.457504 256.609917 
L 115.904782 256.609917 
L 115.904782 256.085669 
L 116.220179 256.085669 
L 116.220179 255.561421 
L 116.73331 255.561421 
L 116.73331 255.037173 
L 117.999901 255.037173 
L 117.999901 254.512926 
L 119.782703 254.512926 
L 119.782703 253.988678 
L 120.609239 253.988678 
L 120.609239 253.46443 
L 121.551317 253.46443 
L 121.551317 252.940182 
L 122.298767 252.940182 
L 122.298767 252.415935 
L 122.874172 252.415935 
L 122.874172 251.891687 
L 124.557378 251.891687 
L 124.557378 251.367439 
L 124.937954 251.367439 
L 124.937954 250.843192 
L 125.310285 250.843192 
L 125.310285 250.318944 
L 126.610389 250.318944 
L 126.610389 249.794696 
L 128.8486 249.794696 
L 128.8486 249.270448 
L 129.389632 249.270448 
L 129.389632 248.746201 
L 129.725264 248.746201 
L 129.725264 248.221953 
L 131.612072 248.221953 
L 131.612072 247.697705 
L 136.631228 247.697705 
L 136.631228 247.173458 
L 137.224536 247.173458 
L 137.224536 246.64921 
L 137.886877 246.64921 
L 137.886877 246.124962 
L 138.09238 246.124962 
L 138.09238 245.076467 
L 140.383954 245.076467 
L 140.383954 244.552219 
L 141.781376 244.552219 
L 141.781376 244.027971 
L 142.245962 244.027971 
L 142.245962 243.503724 
L 142.920112 243.503724 
L 142.986095 241.93098 
L 143.925832 241.93098 
L 143.925832 241.406733 
L 144.973998 241.406733 
L 144.973998 240.882485 
L 147.104664 240.882485 
L 147.104664 240.358237 
L 147.429795 240.358237 
L 147.429795 239.83399 
L 147.930956 239.83399 
L 147.930956 239.309742 
L 150.957462 239.309742 
L 150.957462 238.785494 
L 167.194532 238.785494 
L 167.194532 238.261246 
L 168.846443 238.261246 
L 168.846443 237.736999 
L 171.643821 237.736999 
L 171.643821 237.212751 
L 172.681 237.212751 
L 172.681 236.688503 
L 173.3655 236.688503 
L 173.3655 236.164255 
L 174.163922 236.164255 
L 174.163922 235.640008 
L 178.671127 235.640008 
L 178.759007 234.591512 
L 186.326877 234.591512 
L 186.326877 234.067265 
L 186.470892 234.067265 
L 186.470892 233.543017 
L 187.609381 233.543017 
L 187.609381 233.018769 
L 195.737544 233.018769 
L 195.737544 232.494521 
L 207.709334 232.494521 
L 207.715433 230.921778 
L 207.907961 230.921778 
L 207.907961 230.397531 
L 208.0446 230.397531 
L 208.0446 229.873283 
L 208.236455 229.873283 
L 208.236455 229.349035 
L 208.550076 229.349035 
L 208.570396 228.30054 
L 209.481405 228.30054 
L 209.481405 227.776292 
L 210.956517 227.776292 
L 210.956517 227.252044 
L 211.253158 227.252044 
L 211.253158 226.727797 
L 211.536223 226.727797 
L 211.641687 225.679301 
L 212.892349 225.679301 
L 212.892349 225.155053 
L 213.136889 225.155053 
L 213.186861 224.106558 
L 213.252897 224.106558 
L 213.252897 223.58231 
L 213.810783 223.58231 
L 213.861679 222.009567 
L 214.031428 222.009567 
L 214.031428 221.485319 
L 214.29612 221.485319 
L 214.29612 220.961072 
L 214.59328 220.961072 
L 214.659566 219.912576 
L 214.819634 219.912576 
L 214.819634 219.388328 
L 215.095059 219.388328 
L 215.095059 218.864081 
L 215.327021 218.864081 
L 215.327021 218.339833 
L 217.043153 218.339833 
L 217.043153 217.815585 
L 217.6002 217.815585 
L 217.636474 216.76709 
L 220.232593 216.76709 
L 220.232593 216.242842 
L 221.567438 216.242842 
L 221.567438 215.718594 
L 222.499611 215.718594 
L 222.499611 215.194347 
L 222.806682 215.194347 
L 222.806682 214.670099 
L 222.941324 214.670099 
L 222.941324 214.145851 
L 223.116249 214.145851 
L 223.164099 213.097356 
L 223.824369 213.097356 
L 223.830737 212.04886 
L 224.03291 212.04886 
L 224.03291 211.524613 
L 224.228066 211.524613 
L 224.291725 210.476117 
L 224.740483 210.476117 
L 224.806976 209.427622 
L 224.865346 209.427622 
L 224.865346 208.903374 
L 225.026471 208.903374 
L 225.097785 207.854879 
L 225.793691 207.854879 
L 225.793691 207.330631 
L 226.046204 207.330631 
L 226.046204 206.806383 
L 227.249918 206.806383 
L 227.249918 206.282136 
L 229.4444 206.282136 
L 229.4444 205.757888 
L 229.561279 205.757888 
L 229.561279 205.23364 
L 230.326026 205.23364 
L 230.326026 204.709392 
L 230.519936 204.709392 
L 230.605078 203.660897 
L 230.780616 203.660897 
L 230.791503 202.612401 
L 231.252719 202.612401 
L 231.340616 201.563906 
L 231.534024 201.563906 
L 231.620624 200.515411 
L 231.974006 200.515411 
L 231.974006 199.991163 
L 232.116398 199.991163 
L 232.116398 199.466915 
L 232.625014 199.466915 
L 232.650287 198.41842 
L 232.869261 198.41842 
L 232.869261 197.894172 
L 233.072816 197.894172 
L 233.118897 196.845677 
L 233.45852 196.845677 
L 233.45852 196.321429 
L 235.250829 196.321429 
L 235.250829 195.797181 
L 235.790001 195.797181 
L 235.790001 195.272933 
L 236.50908 195.272933 
L 236.50908 194.748686 
L 236.912206 194.748686 
L 236.912206 194.224438 
L 237.112117 194.224438 
L 237.112117 193.70019 
L 237.363239 193.70019 
L 237.363239 193.175943 
L 237.820207 193.175943 
L 237.845936 192.127447 
L 238.203191 192.127447 
L 238.203191 191.603199 
L 238.665355 191.603199 
L 238.665355 191.078952 
L 238.970386 191.078952 
L 238.970386 190.554704 
L 240.132858 190.554704 
L 240.193104 189.506209 
L 240.58779 189.506209 
L 240.58779 188.981961 
L 242.248321 188.981961 
L 242.338997 187.933465 
L 242.386184 187.933465 
L 242.386184 187.409218 
L 242.863831 187.409218 
L 242.892542 186.360722 
L 243.362961 186.360722 
L 243.362961 185.836474 
L 244.055452 185.836474 
L 244.055452 185.312227 
L 244.324025 185.312227 
L 244.420514 183.739484 
L 244.491421 183.739484 
L 244.491421 183.215236 
L 244.650863 183.215236 
L 244.650863 182.690988 
L 245.662621 182.690988 
L 245.662621 182.16674 
L 245.988941 182.16674 
L 245.988941 181.642493 
L 246.395226 181.642493 
L 246.395226 181.118245 
L 246.973146 181.118245 
L 246.973146 180.593997 
L 247.289247 180.593997 
L 247.289247 180.06975 
L 247.979592 180.06975 
L 247.998088 179.021254 
L 249.215439 179.021254 
L 249.215439 178.497006 
L 250.188912 178.497006 
L 250.204363 177.448511 
L 250.453516 177.448511 
L 250.453516 176.924263 
L 251.513069 176.924263 
L 251.513069 176.400016 
L 252.199776 176.400016 
L 252.262193 175.35152 
L 253.281047 175.35152 
L 253.281047 174.827272 
L 255.441631 174.827272 
L 255.441631 174.303025 
L 256.637911 174.303025 
L 256.637911 173.778777 
L 257.723364 173.778777 
L 257.723364 173.254529 
L 258.758075 173.254529 
L 258.758075 172.730281 
L 259.471181 172.730281 
L 259.471181 172.206034 
L 264.490596 172.206034 
L 264.490596 171.681786 
L 265.309432 171.681786 
L 265.309432 171.157538 
L 266.141922 171.157538 
L 266.141922 170.633291 
L 267.545827 170.633291 
L 267.545827 170.109043 
L 272.594556 170.109043 
L 272.594556 169.584795 
L 273.869585 169.584795 
L 273.869585 169.060547 
L 333.168 169.060547 
L 333.168 169.060547 
" style="fill:none;stroke:#ff7500;stroke-linecap:square;stroke-width:1.5;"/>
   </g>
   <g id="line2d_54">
    <defs>
     <path d="M 0 -6 
L -1.347084 -1.854102 
L -5.706339 -1.854102 
L -2.179628 0.708204 
L -3.526712 4.854102 
L -0 2.291796 
L 3.526712 4.854102 
L 2.179628 0.708204 
L 5.706339 -1.854102 
L 1.347084 -1.854102 
z
" id="ma9282a7a09" style="stroke:#ff7500;stroke-linejoin:bevel;stroke-width:1.5;"/>
    </defs>
    <g>
     <use style="fill:none;stroke:#ff7500;stroke-linejoin:bevel;stroke-width:1.5;" x="94.996612" xlink:href="#ma9282a7a09" y="258.706907"/>
     <use style="fill:none;stroke:#ff7500;stroke-linejoin:bevel;stroke-width:1.5;" x="178.759007" xlink:href="#ma9282a7a09" y="234.591512"/>
     <use style="fill:none;stroke:#ff7500;stroke-linejoin:bevel;stroke-width:1.5;" x="232.625014" xlink:href="#ma9282a7a09" y="198.942667"/>
     <use style="fill:none;stroke:#ff7500;stroke-linejoin:bevel;stroke-width:1.5;" x="273.869585" xlink:href="#ma9282a7a09" y="169.060547"/>
     <use style="fill:none;stroke:#ff7500;stroke-linejoin:bevel;stroke-width:1.5;" x="273.869585" xlink:href="#ma9282a7a09" y="169.060547"/>
     <use style="fill:none;stroke:#ff7500;stroke-linejoin:bevel;stroke-width:1.5;" x="333.168" xlink:href="#ma9282a7a09" y="169.060547"/>
    </g>
   </g>
   <g id="line2d_55">
    <path style="fill:none;stroke:#ff7500;stroke-linecap:square;stroke-width:1.5;"/>
    <g/>
   </g>
   <g id="line2d_56">
    <path clip-path="url(#p662bdf3222)" d="M 209.851116 227.776292 
" style="fill:none;stroke:#ff7500;stroke-linecap:square;stroke-width:1.5;"/>
    <defs>
     <path d="M -12 12 
L 12 -12 
M -12 -12 
L 12 12 
" id="m5a565847eb" style="stroke:#ff7500;"/>
    </defs>
    <g clip-path="url(#p662bdf3222)">
     <use style="fill:#ff7500;stroke:#ff7500;" x="209.851116" xlink:href="#m5a565847eb" y="227.776292"/>
    </g>
   </g>
   <g id="line2d_57">
    <path d="M 333.168 169.060547 
L 363.64328 289.532673 
" style="fill:none;stroke:#ff7500;stroke-linecap:square;stroke-width:1.5;"/>
    <g>
     <use style="fill:none;stroke:#ff7500;stroke-linejoin:bevel;stroke-width:1.5;" x="333.168" xlink:href="#ma9282a7a09" y="169.060547"/>
     <use style="fill:none;stroke:#ff7500;stroke-linejoin:bevel;stroke-width:1.5;" x="363.64328" xlink:href="#ma9282a7a09" y="289.532673"/>
    </g>
   </g>
   <g id="line2d_58">
    <path d="M 333.168 27.513663 
L 363.64328 203.975446 
" style="fill:none;stroke:#ff00ff;stroke-linecap:square;stroke-width:1.5;"/>
    <g>
     <use style="fill:none;stroke:#ff00ff;stroke-linejoin:miter;stroke-width:1.5;" x="333.168" xlink:href="#mc959fc6951" y="27.513663"/>
     <use style="fill:none;stroke:#ff00ff;stroke-linejoin:miter;stroke-width:1.5;" x="363.64328" xlink:href="#mc959fc6951" y="203.975446"/>
    </g>
   </g>
   <g id="line2d_59">
    <path d="M 333.168 27.513663 
L 363.64328 118.418218 
" style="fill:none;stroke:#000080;stroke-linecap:square;stroke-width:1.5;"/>
    <g>
     <use style="fill:none;stroke:#000080;stroke-width:1.5;" x="333.168" xlink:href="#m15462286f0" y="27.513663"/>
     <use style="fill:none;stroke:#000080;stroke-width:1.5;" x="363.64328" xlink:href="#m15462286f0" y="118.418218"/>
    </g>
   </g>
   <g id="line2d_60">
    <path d="M 333.168 294.88 
L 333.168 27.513663 
" style="fill:none;stroke:#000000;stroke-linecap:square;stroke-width:1.5;"/>
   </g>
   <g id="patch_3">
    <path d="M 56.12 294.88 
L 56.12 24.84 
" style="fill:none;stroke:#000000;stroke-linecap:square;stroke-linejoin:miter;stroke-width:0.8;"/>
   </g>
   <g id="patch_4">
    <path d="M 333.168 294.88 
L 333.168 24.84 
" style="fill:none;stroke:#000000;stroke-linecap:square;stroke-linejoin:miter;stroke-width:0.8;"/>
   </g>
   <g id="patch_5">
    <path d="M 56.12 294.88 
L 333.168 294.88 
" style="fill:none;stroke:#000000;stroke-linecap:square;stroke-linejoin:miter;stroke-width:0.8;"/>
   </g>
   <g id="patch_6">
    <path d="M 56.12 24.84 
L 333.168 24.84 
" style="fill:none;stroke:#000000;stroke-linecap:square;stroke-linejoin:miter;stroke-width:0.8;"/>
   </g>
   <g id="text_13">
    <!-- ppmf-new -->
    <defs>
     <path d="M 4.203125 54.6875 
L 13.1875 54.6875 
L 24.421875 12.015625 
L 35.59375 54.6875 
L 46.1875 54.6875 
L 57.421875 12.015625 
L 68.609375 54.6875 
L 77.59375 54.6875 
L 63.28125 0 
L 52.6875 0 
L 40.921875 44.828125 
L 29.109375 0 
L 18.5 0 
z
" id="DejaVuSans-77"/>
    </defs>
    <g transform="translate(369.18424 294.223611)scale(0.17 -0.17)">
     <use xlink:href="#DejaVuSans-70"/>
     <use x="63.476562" xlink:href="#DejaVuSans-70"/>
     <use x="126.953125" xlink:href="#DejaVuSans-6d"/>
     <use x="224.365234" xlink:href="#DejaVuSans-66"/>
     <use x="259.492188" xlink:href="#DejaVuSans-2d"/>
     <use x="295.576172" xlink:href="#DejaVuSans-6e"/>
     <use x="358.955078" xlink:href="#DejaVuSans-65"/>
     <use x="420.478516" xlink:href="#DejaVuSans-77"/>
    </g>
   </g>
   <g id="text_14">
    <!-- CMA ES CSA -->
    <defs>
     <path d="M 64.40625 67.28125 
L 64.40625 56.890625 
Q 59.421875 61.53125 53.78125 63.8125 
Q 48.140625 66.109375 41.796875 66.109375 
Q 29.296875 66.109375 22.65625 58.46875 
Q 16.015625 50.828125 16.015625 36.375 
Q 16.015625 21.96875 22.65625 14.328125 
Q 29.296875 6.6875 41.796875 6.6875 
Q 48.140625 6.6875 53.78125 8.984375 
Q 59.421875 11.28125 64.40625 15.921875 
L 64.40625 5.609375 
Q 59.234375 2.09375 53.4375 0.328125 
Q 47.65625 -1.421875 41.21875 -1.421875 
Q 24.65625 -1.421875 15.125 8.703125 
Q 5.609375 18.84375 5.609375 36.375 
Q 5.609375 53.953125 15.125 64.078125 
Q 24.65625 74.21875 41.21875 74.21875 
Q 47.75 74.21875 53.53125 72.484375 
Q 59.328125 70.75 64.40625 67.28125 
z
" id="DejaVuSans-43"/>
     <path d="M 9.8125 72.90625 
L 24.515625 72.90625 
L 43.109375 23.296875 
L 61.8125 72.90625 
L 76.515625 72.90625 
L 76.515625 0 
L 66.890625 0 
L 66.890625 64.015625 
L 48.09375 14.015625 
L 38.1875 14.015625 
L 19.390625 64.015625 
L 19.390625 0 
L 9.8125 0 
z
" id="DejaVuSans-4d"/>
     <path d="M 34.1875 63.1875 
L 20.796875 26.90625 
L 47.609375 26.90625 
z
M 28.609375 72.90625 
L 39.796875 72.90625 
L 67.578125 0 
L 57.328125 0 
L 50.6875 18.703125 
L 17.828125 18.703125 
L 11.1875 0 
L 0.78125 0 
z
" id="DejaVuSans-41"/>
     <path d="M 9.8125 72.90625 
L 55.90625 72.90625 
L 55.90625 64.59375 
L 19.671875 64.59375 
L 19.671875 43.015625 
L 54.390625 43.015625 
L 54.390625 34.71875 
L 19.671875 34.71875 
L 19.671875 8.296875 
L 56.78125 8.296875 
L 56.78125 0 
L 9.8125 0 
z
" id="DejaVuSans-45"/>
     <path d="M 53.515625 70.515625 
L 53.515625 60.890625 
Q 47.90625 63.578125 42.921875 64.890625 
Q 37.9375 66.21875 33.296875 66.21875 
Q 25.25 66.21875 20.875 63.09375 
Q 16.5 59.96875 16.5 54.203125 
Q 16.5 49.359375 19.40625 46.890625 
Q 22.3125 44.4375 30.421875 42.921875 
L 36.375 41.703125 
Q 47.40625 39.59375 52.65625 34.296875 
Q 57.90625 29 57.90625 20.125 
Q 57.90625 9.515625 50.796875 4.046875 
Q 43.703125 -1.421875 29.984375 -1.421875 
Q 24.8125 -1.421875 18.96875 -0.25 
Q 13.140625 0.921875 6.890625 3.21875 
L 6.890625 13.375 
Q 12.890625 10.015625 18.65625 8.296875 
Q 24.421875 6.59375 29.984375 6.59375 
Q 38.421875 6.59375 43.015625 9.90625 
Q 47.609375 13.234375 47.609375 19.390625 
Q 47.609375 24.75 44.3125 27.78125 
Q 41.015625 30.8125 33.5 32.328125 
L 27.484375 33.5 
Q 16.453125 35.6875 11.515625 40.375 
Q 6.59375 45.0625 6.59375 53.421875 
Q 6.59375 63.09375 13.40625 68.65625 
Q 20.21875 74.21875 32.171875 74.21875 
Q 37.3125 74.21875 42.625 73.28125 
Q 47.953125 72.359375 53.515625 70.515625 
z
" id="DejaVuSans-53"/>
    </defs>
    <g transform="translate(369.18424 208.666383)scale(0.17 -0.17)">
     <use xlink:href="#DejaVuSans-43"/>
     <use x="69.824219" xlink:href="#DejaVuSans-4d"/>
     <use x="156.103516" xlink:href="#DejaVuSans-41"/>
     <use x="224.511719" xlink:href="#DejaVuSans-20"/>
     <use x="256.298828" xlink:href="#DejaVuSans-45"/>
     <use x="319.482422" xlink:href="#DejaVuSans-53"/>
     <use x="382.958984" xlink:href="#DejaVuSans-20"/>
     <use x="414.746094" xlink:href="#DejaVuSans-43"/>
     <use x="484.570312" xlink:href="#DejaVuSans-53"/>
     <use x="548.0625" xlink:href="#DejaVuSans-41"/>
    </g>
   </g>
   <g id="text_15">
    <!-- CMA ES PPM -->
    <defs>
     <path d="M 19.671875 64.796875 
L 19.671875 37.40625 
L 32.078125 37.40625 
Q 38.96875 37.40625 42.71875 40.96875 
Q 46.484375 44.53125 46.484375 51.125 
Q 46.484375 57.671875 42.71875 61.234375 
Q 38.96875 64.796875 32.078125 64.796875 
z
M 9.8125 72.90625 
L 32.078125 72.90625 
Q 44.34375 72.90625 50.609375 67.359375 
Q 56.890625 61.8125 56.890625 51.125 
Q 56.890625 40.328125 50.609375 34.8125 
Q 44.34375 29.296875 32.078125 29.296875 
L 19.671875 29.296875 
L 19.671875 0 
L 9.8125 0 
z
" id="DejaVuSans-50"/>
    </defs>
    <g transform="translate(369.18424 123.109155)scale(0.17 -0.17)">
     <use xlink:href="#DejaVuSans-43"/>
     <use x="69.824219" xlink:href="#DejaVuSans-4d"/>
     <use x="156.103516" xlink:href="#DejaVuSans-41"/>
     <use x="224.511719" xlink:href="#DejaVuSans-20"/>
     <use x="256.298828" xlink:href="#DejaVuSans-45"/>
     <use x="319.482422" xlink:href="#DejaVuSans-53"/>
     <use x="382.958984" xlink:href="#DejaVuSans-20"/>
     <use x="414.746094" xlink:href="#DejaVuSans-50"/>
     <use x="475.048828" xlink:href="#DejaVuSans-50"/>
     <use x="535.351562" xlink:href="#DejaVuSans-4d"/>
    </g>
   </g>
   <g id="text_16">
    <!-- best 2009 -->
    <defs>
     <path d="M 48.6875 27.296875 
Q 48.6875 37.203125 44.609375 42.84375 
Q 40.53125 48.484375 33.40625 48.484375 
Q 26.265625 48.484375 22.1875 42.84375 
Q 18.109375 37.203125 18.109375 27.296875 
Q 18.109375 17.390625 22.1875 11.75 
Q 26.265625 6.109375 33.40625 6.109375 
Q 40.53125 6.109375 44.609375 11.75 
Q 48.6875 17.390625 48.6875 27.296875 
z
M 18.109375 46.390625 
Q 20.953125 51.265625 25.265625 53.625 
Q 29.59375 56 35.59375 56 
Q 45.5625 56 51.78125 48.09375 
Q 58.015625 40.1875 58.015625 27.296875 
Q 58.015625 14.40625 51.78125 6.484375 
Q 45.5625 -1.421875 35.59375 -1.421875 
Q 29.59375 -1.421875 25.265625 0.953125 
Q 20.953125 3.328125 18.109375 8.203125 
L 18.109375 0 
L 9.078125 0 
L 9.078125 75.984375 
L 18.109375 75.984375 
z
" id="DejaVuSans-62"/>
     <path d="M 10.984375 1.515625 
L 10.984375 10.5 
Q 14.703125 8.734375 18.5 7.8125 
Q 22.3125 6.890625 25.984375 6.890625 
Q 35.75 6.890625 40.890625 13.453125 
Q 46.046875 20.015625 46.78125 33.40625 
Q 43.953125 29.203125 39.59375 26.953125 
Q 35.25 24.703125 29.984375 24.703125 
Q 19.046875 24.703125 12.671875 31.3125 
Q 6.296875 37.9375 6.296875 49.421875 
Q 6.296875 60.640625 12.9375 67.421875 
Q 19.578125 74.21875 30.609375 74.21875 
Q 43.265625 74.21875 49.921875 64.515625 
Q 56.59375 54.828125 56.59375 36.375 
Q 56.59375 19.140625 48.40625 8.859375 
Q 40.234375 -1.421875 26.421875 -1.421875 
Q 22.703125 -1.421875 18.890625 -0.6875 
Q 15.09375 0.046875 10.984375 1.515625 
z
M 30.609375 32.421875 
Q 37.25 32.421875 41.125 36.953125 
Q 45.015625 41.5 45.015625 49.421875 
Q 45.015625 57.28125 41.125 61.84375 
Q 37.25 66.40625 30.609375 66.40625 
Q 23.96875 66.40625 20.09375 61.84375 
Q 16.21875 57.28125 16.21875 49.421875 
Q 16.21875 41.5 20.09375 36.953125 
Q 23.96875 32.421875 30.609375 32.421875 
z
" id="DejaVuSans-39"/>
    </defs>
    <g transform="translate(369.18424 37.551928)scale(0.17 -0.17)">
     <use xlink:href="#DejaVuSans-62"/>
     <use x="63.476562" xlink:href="#DejaVuSans-65"/>
     <use x="125" xlink:href="#DejaVuSans-73"/>
     <use x="177.099609" xlink:href="#DejaVuSans-74"/>
     <use x="216.308594" xlink:href="#DejaVuSans-20"/>
     <use x="248.095703" xlink:href="#DejaVuSans-32"/>
     <use x="311.71875" xlink:href="#DejaVuSans-30"/>
     <use x="375.341797" xlink:href="#DejaVuSans-30"/>
     <use x="438.964844" xlink:href="#DejaVuSans-39"/>
    </g>
   </g>
   <g id="text_17">
    <!-- bbob f17, 5-D -->
    <defs>
     <path d="M 8.203125 72.90625 
L 55.078125 72.90625 
L 55.078125 68.703125 
L 28.609375 0 
L 18.3125 0 
L 43.21875 64.59375 
L 8.203125 64.59375 
z
" id="DejaVuSans-37"/>
     <path d="M 10.796875 72.90625 
L 49.515625 72.90625 
L 49.515625 64.59375 
L 19.828125 64.59375 
L 19.828125 46.734375 
Q 21.96875 47.46875 24.109375 47.828125 
Q 26.265625 48.1875 28.421875 48.1875 
Q 40.625 48.1875 47.75 41.5 
Q 54.890625 34.8125 54.890625 23.390625 
Q 54.890625 11.625 47.5625 5.09375 
Q 40.234375 -1.421875 26.90625 -1.421875 
Q 22.3125 -1.421875 17.546875 -0.640625 
Q 12.796875 0.140625 7.71875 1.703125 
L 7.71875 11.625 
Q 12.109375 9.234375 16.796875 8.0625 
Q 21.484375 6.890625 26.703125 6.890625 
Q 35.15625 6.890625 40.078125 11.328125 
Q 45.015625 15.765625 45.015625 23.390625 
Q 45.015625 31 40.078125 35.4375 
Q 35.15625 39.890625 26.703125 39.890625 
Q 22.75 39.890625 18.8125 39.015625 
Q 14.890625 38.140625 10.796875 36.28125 
z
" id="DejaVuSans-35"/>
     <path d="M 19.671875 64.796875 
L 19.671875 8.109375 
L 31.59375 8.109375 
Q 46.6875 8.109375 53.6875 14.9375 
Q 60.6875 21.78125 60.6875 36.53125 
Q 60.6875 51.171875 53.6875 57.984375 
Q 46.6875 64.796875 31.59375 64.796875 
z
M 9.8125 72.90625 
L 30.078125 72.90625 
Q 51.265625 72.90625 61.171875 64.09375 
Q 71.09375 55.28125 71.09375 36.53125 
Q 71.09375 17.671875 61.125 8.828125 
Q 51.171875 0 30.078125 0 
L 9.8125 0 
z
" id="DejaVuSans-44"/>
    </defs>
    <g transform="translate(58.89048 35.290806)scale(0.102 -0.102)">
     <use xlink:href="#DejaVuSans-62"/>
     <use x="63.476562" xlink:href="#DejaVuSans-62"/>
     <use x="126.953125" xlink:href="#DejaVuSans-6f"/>
     <use x="188.134766" xlink:href="#DejaVuSans-62"/>
     <use x="251.611328" xlink:href="#DejaVuSans-20"/>
     <use x="283.398438" xlink:href="#DejaVuSans-66"/>
     <use x="318.603516" xlink:href="#DejaVuSans-31"/>
     <use x="382.226562" xlink:href="#DejaVuSans-37"/>
     <use x="445.849609" xlink:href="#DejaVuSans-2c"/>
     <use x="477.636719" xlink:href="#DejaVuSans-20"/>
     <use x="509.423828" xlink:href="#DejaVuSans-35"/>
     <use x="573.046875" xlink:href="#DejaVuSans-2d"/>
     <use x="609.130859" xlink:href="#DejaVuSans-44"/>
    </g>
    <!-- 51 targets: 100..1e-08 -->
    <defs>
     <path d="M 11.71875 12.40625 
L 22.015625 12.40625 
L 22.015625 0 
L 11.71875 0 
z
M 11.71875 51.703125 
L 22.015625 51.703125 
L 22.015625 39.3125 
L 11.71875 39.3125 
z
" id="DejaVuSans-3a"/>
    </defs>
    <g transform="translate(58.89048 46.712575)scale(0.102 -0.102)">
     <use xlink:href="#DejaVuSans-35"/>
     <use x="63.623047" xlink:href="#DejaVuSans-31"/>
     <use x="127.246094" xlink:href="#DejaVuSans-20"/>
     <use x="159.033203" xlink:href="#DejaVuSans-74"/>
     <use x="198.242188" xlink:href="#DejaVuSans-61"/>
     <use x="259.521484" xlink:href="#DejaVuSans-72"/>
     <use x="300.619141" xlink:href="#DejaVuSans-67"/>
     <use x="364.095703" xlink:href="#DejaVuSans-65"/>
     <use x="425.619141" xlink:href="#DejaVuSans-74"/>
     <use x="464.828125" xlink:href="#DejaVuSans-73"/>
     <use x="516.927734" xlink:href="#DejaVuSans-3a"/>
     <use x="550.619141" xlink:href="#DejaVuSans-20"/>
     <use x="582.40625" xlink:href="#DejaVuSans-31"/>
     <use x="646.029297" xlink:href="#DejaVuSans-30"/>
     <use x="709.652344" xlink:href="#DejaVuSans-30"/>
     <use x="773.275391" xlink:href="#DejaVuSans-2e"/>
     <use x="805.0625" xlink:href="#DejaVuSans-2e"/>
     <use x="836.849609" xlink:href="#DejaVuSans-31"/>
     <use x="900.472656" xlink:href="#DejaVuSans-65"/>
     <use x="961.996094" xlink:href="#DejaVuSans-2d"/>
     <use x="998.080078" xlink:href="#DejaVuSans-30"/>
     <use x="1061.703125" xlink:href="#DejaVuSans-38"/>
    </g>
    <!-- 15 instances -->
    <g transform="translate(58.89048 58.134344)scale(0.102 -0.102)">
     <use xlink:href="#DejaVuSans-31"/>
     <use x="63.623047" xlink:href="#DejaVuSans-35"/>
     <use x="127.246094" xlink:href="#DejaVuSans-20"/>
     <use x="159.033203" xlink:href="#DejaVuSans-69"/>
     <use x="186.816406" xlink:href="#DejaVuSans-6e"/>
     <use x="250.195312" xlink:href="#DejaVuSans-73"/>
     <use x="302.294922" xlink:href="#DejaVuSans-74"/>
     <use x="341.503906" xlink:href="#DejaVuSans-61"/>
     <use x="402.783203" xlink:href="#DejaVuSans-6e"/>
     <use x="466.162109" xlink:href="#DejaVuSans-63"/>
     <use x="521.142578" xlink:href="#DejaVuSans-65"/>
     <use x="582.666016" xlink:href="#DejaVuSans-73"/>
    </g>
   </g>
   <g id="text_18">
    <!-- v0.0.0 -->
    <g style="fill:#808080;" transform="translate(178.96275 290.099912)scale(0.1 -0.1)">
     <use xlink:href="#DejaVuSans-76"/>
     <use x="59.179688" xlink:href="#DejaVuSans-30"/>
     <use x="122.802734" xlink:href="#DejaVuSans-2e"/>
     <use x="154.589844" xlink:href="#DejaVuSans-30"/>
     <use x="218.212891" xlink:href="#DejaVuSans-2e"/>
     <use x="250" xlink:href="#DejaVuSans-30"/>
    </g>
   </g>
   <g id="text_19">
    <!-- 17 Schaffer F7, condition 10 -->
    <defs>
     <path d="M 54.890625 33.015625 
L 54.890625 0 
L 45.90625 0 
L 45.90625 32.71875 
Q 45.90625 40.484375 42.875 44.328125 
Q 39.84375 48.1875 33.796875 48.1875 
Q 26.515625 48.1875 22.3125 43.546875 
Q 18.109375 38.921875 18.109375 30.90625 
L 18.109375 0 
L 9.078125 0 
L 9.078125 75.984375 
L 18.109375 75.984375 
L 18.109375 46.1875 
Q 21.34375 51.125 25.703125 53.5625 
Q 30.078125 56 35.796875 56 
Q 45.21875 56 50.046875 50.171875 
Q 54.890625 44.34375 54.890625 33.015625 
z
" id="DejaVuSans-68"/>
    </defs>
    <g transform="translate(53.336187 18.84)scale(0.2 -0.2)">
     <use xlink:href="#DejaVuSans-31"/>
     <use x="63.623047" xlink:href="#DejaVuSans-37"/>
     <use x="127.246094" xlink:href="#DejaVuSans-20"/>
     <use x="159.033203" xlink:href="#DejaVuSans-53"/>
     <use x="222.509766" xlink:href="#DejaVuSans-63"/>
     <use x="277.490234" xlink:href="#DejaVuSans-68"/>
     <use x="340.869141" xlink:href="#DejaVuSans-61"/>
     <use x="402.148438" xlink:href="#DejaVuSans-66"/>
     <use x="437.353516" xlink:href="#DejaVuSans-66"/>
     <use x="472.558594" xlink:href="#DejaVuSans-65"/>
     <use x="534.082031" xlink:href="#DejaVuSans-72"/>
     <use x="575.195312" xlink:href="#DejaVuSans-20"/>
     <use x="606.982422" xlink:href="#DejaVuSans-46"/>
     <use x="664.501953" xlink:href="#DejaVuSans-37"/>
     <use x="728.125" xlink:href="#DejaVuSans-2c"/>
     <use x="759.912109" xlink:href="#DejaVuSans-20"/>
     <use x="791.699219" xlink:href="#DejaVuSans-63"/>
     <use x="846.679688" xlink:href="#DejaVuSans-6f"/>
     <use x="907.861328" xlink:href="#DejaVuSans-6e"/>
     <use x="971.240234" xlink:href="#DejaVuSans-64"/>
     <use x="1034.716797" xlink:href="#DejaVuSans-69"/>
     <use x="1062.5" xlink:href="#DejaVuSans-74"/>
     <use x="1101.708984" xlink:href="#DejaVuSans-69"/>
     <use x="1129.492188" xlink:href="#DejaVuSans-6f"/>
     <use x="1190.673828" xlink:href="#DejaVuSans-6e"/>
     <use x="1254.052734" xlink:href="#DejaVuSans-20"/>
     <use x="1285.839844" xlink:href="#DejaVuSans-31"/>
     <use x="1349.462891" xlink:href="#DejaVuSans-30"/>
    </g>
   </g>
  </g>
 </g>
 <defs>
  <clipPath id="p662bdf3222">
   <rect height="270.04" width="277.048" x="56.12" y="24.84"/>
  </clipPath>
 </defs>
</svg>
