<?xml version="1.0" encoding="utf-8" standalone="no"?>
<!DOCTYPE svg PUBLIC "-//W3C//DTD SVG 1.1//EN"
  "http://www.w3.org/Graphics/SVG/1.1/DTD/svg11.dtd">
<!-- Created with matplotlib (http://matplotlib.org/) -->
<svg height="345pt" version="1.1" viewBox="0 0 460 345" width="460pt" xmlns="http://www.w3.org/2000/svg" xmlns:xlink="http://www.w3.org/1999/xlink">
 <defs>
  <style type="text/css">
*{stroke-linecap:butt;stroke-linejoin:round;}
  </style>
 </defs>
 <g id="figure_1">
  <g id="patch_1">
   <path d="M 0 345.6 
L 460.8 345.6 
L 460.8 0 
L 0 0 
z
" style="fill:#ffffff;"/>
  </g>
  <g id="axes_1">
   <g id="patch_2">
    <path d="M 56.12 294.88 
L 333.168 294.88 
L 333.168 24.84 
L 56.12 24.84 
z
" style="fill:#ffffff;"/>
   </g>
   <g id="line2d_1">
    <path d="M 75.003641 294.88 
L 75.003641 289.637523 
L 82.350819 289.637523 
L 82.350819 284.395046 
L 88.027221 284.395046 
L 88.027221 279.152568 
L 102.20309 279.152568 
L 102.20309 273.910091 
L 103.120034 273.910091 
L 103.120034 268.667614 
L 141.448529 268.667614 
L 141.448529 263.425137 
L 147.344828 263.425137 
L 147.344828 258.18266 
L 149.261127 258.18266 
L 149.261127 252.940182 
L 151.567774 252.940182 
L 151.567774 247.697705 
L 155.419288 247.697705 
L 155.419288 242.455228 
L 155.504275 242.455228 
L 155.504275 237.212751 
L 155.641489 237.212751 
L 155.641489 231.970274 
L 155.651999 231.970274 
L 155.651999 226.727797 
L 155.662502 226.727797 
L 155.662502 211.000365 
L 155.68349 211.000365 
L 155.68349 205.757888 
L 155.693974 205.757888 
L 155.693974 195.272933 
L 155.704451 195.272933 
L 155.704451 190.030456 
L 155.714923 190.030456 
L 155.714923 174.303025 
L 155.725388 174.303025 
L 155.725388 169.060547 
L 155.746298 169.060547 
L 155.746298 163.81807 
L 155.756744 163.81807 
L 155.756744 153.333116 
L 155.767184 153.333116 
L 155.767184 148.090639 
L 155.777617 148.090639 
L 155.777617 137.605684 
L 155.788044 137.605684 
L 155.788044 116.635776 
L 155.798464 116.635776 
L 155.798464 106.150821 
L 155.808878 106.150821 
L 155.808878 79.938435 
L 155.829688 79.938435 
L 155.829688 64.211004 
L 155.840083 64.211004 
L 155.840083 53.726049 
L 155.850472 53.726049 
L 155.850472 48.483572 
L 155.860855 48.483572 
L 155.860855 32.756141 
L 155.871232 32.756141 
L 155.871232 27.513663 
L 333.168 27.513663 
" style="fill:none;stroke:#f5deb3;stroke-linecap:square;stroke-width:4;"/>
   </g>
   <g id="line2d_2">
    <defs>
     <path d="M -0 7.778175 
L 7.778175 0 
L 0 -7.778175 
L -7.778175 -0 
z
" id="m9eddb09a37" style="stroke:#f5deb3;stroke-linejoin:miter;stroke-width:1.5;"/>
    </defs>
    <g>
     <use style="fill:#f5deb3;stroke:#f5deb3;stroke-linejoin:miter;stroke-width:1.5;" x="103.120034" xlink:href="#m9eddb09a37" y="273.910091"/>
     <use style="fill:#f5deb3;stroke:#f5deb3;stroke-linejoin:miter;stroke-width:1.5;" x="155.788044" xlink:href="#m9eddb09a37" y="116.635776"/>
     <use style="fill:#f5deb3;stroke:#f5deb3;stroke-linejoin:miter;stroke-width:1.5;" x="155.871232" xlink:href="#m9eddb09a37" y="32.756141"/>
     <use style="fill:#f5deb3;stroke:#f5deb3;stroke-linejoin:miter;stroke-width:1.5;" x="155.871232" xlink:href="#m9eddb09a37" y="27.513663"/>
     <use style="fill:#f5deb3;stroke:#f5deb3;stroke-linejoin:miter;stroke-width:1.5;" x="333.168" xlink:href="#m9eddb09a37" y="27.513663"/>
    </g>
   </g>
   <g id="line2d_3">
    <path style="fill:none;stroke:#f5deb3;stroke-linecap:square;stroke-width:4;"/>
    <g/>
   </g>
   <g id="line2d_4">
    <path d="M 333.168 27.513663 
L 363.64328 32.86099 
" style="fill:none;stroke:#f5deb3;stroke-linecap:square;stroke-width:4;"/>
    <g>
     <use style="fill:#f5deb3;stroke:#f5deb3;stroke-linejoin:miter;stroke-width:1.5;" x="333.168" xlink:href="#m9eddb09a37" y="27.513663"/>
     <use style="fill:#f5deb3;stroke:#f5deb3;stroke-linejoin:miter;stroke-width:1.5;" x="363.64328" xlink:href="#m9eddb09a37" y="32.86099"/>
    </g>
   </g>
   <g id="matplotlib.axis_1">
    <g id="xtick_1">
     <g id="line2d_5">
      <path clip-path="url(#pf167dac8eb)" d="M 56.12 294.88 
L 56.12 24.84 
" style="fill:none;stroke:#b0b0b0;stroke-linecap:square;stroke-width:0.8;"/>
     </g>
     <g id="line2d_6">
      <defs>
       <path d="M 0 0 
L 0 3.5 
" id="m00961f430e" style="stroke:#000000;stroke-width:0.8;"/>
      </defs>
      <g>
       <use style="stroke:#000000;stroke-width:0.8;" x="56.12" xlink:href="#m00961f430e" y="294.88"/>
      </g>
     </g>
     <g id="text_1">
      <!-- 0 -->
      <defs>
       <path d="M 31.78125 66.40625 
Q 24.171875 66.40625 20.328125 58.90625 
Q 16.5 51.421875 16.5 36.375 
Q 16.5 21.390625 20.328125 13.890625 
Q 24.171875 6.390625 31.78125 6.390625 
Q 39.453125 6.390625 43.28125 13.890625 
Q 47.125 21.390625 47.125 36.375 
Q 47.125 51.421875 43.28125 58.90625 
Q 39.453125 66.40625 31.78125 66.40625 
z
M 31.78125 74.21875 
Q 44.046875 74.21875 50.515625 64.515625 
Q 56.984375 54.828125 56.984375 36.375 
Q 56.984375 17.96875 50.515625 8.265625 
Q 44.046875 -1.421875 31.78125 -1.421875 
Q 19.53125 -1.421875 13.0625 8.265625 
Q 6.59375 17.96875 6.59375 36.375 
Q 6.59375 54.828125 13.0625 64.515625 
Q 19.53125 74.21875 31.78125 74.21875 
z
" id="DejaVuSans-30"/>
      </defs>
      <g transform="translate(49.7575 317.076875)scale(0.2 -0.2)">
       <use xlink:href="#DejaVuSans-30"/>
      </g>
     </g>
    </g>
    <g id="xtick_2">
     <g id="line2d_7">
      <path clip-path="url(#pf167dac8eb)" d="M 135.276571 294.88 
L 135.276571 24.84 
" style="fill:none;stroke:#b0b0b0;stroke-linecap:square;stroke-width:0.8;"/>
     </g>
     <g id="line2d_8">
      <g>
       <use style="stroke:#000000;stroke-width:0.8;" x="135.276571" xlink:href="#m00961f430e" y="294.88"/>
      </g>
     </g>
     <g id="text_2">
      <!-- 2 -->
      <defs>
       <path d="M 19.1875 8.296875 
L 53.609375 8.296875 
L 53.609375 0 
L 7.328125 0 
L 7.328125 8.296875 
Q 12.9375 14.109375 22.625 23.890625 
Q 32.328125 33.6875 34.8125 36.53125 
Q 39.546875 41.84375 41.421875 45.53125 
Q 43.3125 49.21875 43.3125 52.78125 
Q 43.3125 58.59375 39.234375 62.25 
Q 35.15625 65.921875 28.609375 65.921875 
Q 23.96875 65.921875 18.8125 64.3125 
Q 13.671875 62.703125 7.8125 59.421875 
L 7.8125 69.390625 
Q 13.765625 71.78125 18.9375 73 
Q 24.125 74.21875 28.421875 74.21875 
Q 39.75 74.21875 46.484375 68.546875 
Q 53.21875 62.890625 53.21875 53.421875 
Q 53.21875 48.921875 51.53125 44.890625 
Q 49.859375 40.875 45.40625 35.40625 
Q 44.1875 33.984375 37.640625 27.21875 
Q 31.109375 20.453125 19.1875 8.296875 
z
" id="DejaVuSans-32"/>
      </defs>
      <g transform="translate(128.914071 317.076875)scale(0.2 -0.2)">
       <use xlink:href="#DejaVuSans-32"/>
      </g>
     </g>
    </g>
    <g id="xtick_3">
     <g id="line2d_9">
      <path clip-path="url(#pf167dac8eb)" d="M 214.433143 294.88 
L 214.433143 24.84 
" style="fill:none;stroke:#b0b0b0;stroke-linecap:square;stroke-width:0.8;"/>
     </g>
     <g id="line2d_10">
      <g>
       <use style="stroke:#000000;stroke-width:0.8;" x="214.433143" xlink:href="#m00961f430e" y="294.88"/>
      </g>
     </g>
     <g id="text_3">
      <!-- 4 -->
      <defs>
       <path d="M 37.796875 64.3125 
L 12.890625 25.390625 
L 37.796875 25.390625 
z
M 35.203125 72.90625 
L 47.609375 72.90625 
L 47.609375 25.390625 
L 58.015625 25.390625 
L 58.015625 17.1875 
L 47.609375 17.1875 
L 47.609375 0 
L 37.796875 0 
L 37.796875 17.1875 
L 4.890625 17.1875 
L 4.890625 26.703125 
z
" id="DejaVuSans-34"/>
      </defs>
      <g transform="translate(208.070643 317.076875)scale(0.2 -0.2)">
       <use xlink:href="#DejaVuSans-34"/>
      </g>
     </g>
    </g>
    <g id="xtick_4">
     <g id="line2d_11">
      <path clip-path="url(#pf167dac8eb)" d="M 293.589714 294.88 
L 293.589714 24.84 
" style="fill:none;stroke:#b0b0b0;stroke-linecap:square;stroke-width:0.8;"/>
     </g>
     <g id="line2d_12">
      <g>
       <use style="stroke:#000000;stroke-width:0.8;" x="293.589714" xlink:href="#m00961f430e" y="294.88"/>
      </g>
     </g>
     <g id="text_4">
      <!-- 6 -->
      <defs>
       <path d="M 33.015625 40.375 
Q 26.375 40.375 22.484375 35.828125 
Q 18.609375 31.296875 18.609375 23.390625 
Q 18.609375 15.53125 22.484375 10.953125 
Q 26.375 6.390625 33.015625 6.390625 
Q 39.65625 6.390625 43.53125 10.953125 
Q 47.40625 15.53125 47.40625 23.390625 
Q 47.40625 31.296875 43.53125 35.828125 
Q 39.65625 40.375 33.015625 40.375 
z
M 52.59375 71.296875 
L 52.59375 62.3125 
Q 48.875 64.0625 45.09375 64.984375 
Q 41.3125 65.921875 37.59375 65.921875 
Q 27.828125 65.921875 22.671875 59.328125 
Q 17.53125 52.734375 16.796875 39.40625 
Q 19.671875 43.65625 24.015625 45.921875 
Q 28.375 48.1875 33.59375 48.1875 
Q 44.578125 48.1875 50.953125 41.515625 
Q 57.328125 34.859375 57.328125 23.390625 
Q 57.328125 12.15625 50.6875 5.359375 
Q 44.046875 -1.421875 33.015625 -1.421875 
Q 20.359375 -1.421875 13.671875 8.265625 
Q 6.984375 17.96875 6.984375 36.375 
Q 6.984375 53.65625 15.1875 63.9375 
Q 23.390625 74.21875 37.203125 74.21875 
Q 40.921875 74.21875 44.703125 73.484375 
Q 48.484375 72.75 52.59375 71.296875 
z
" id="DejaVuSans-36"/>
      </defs>
      <g transform="translate(287.227214 317.076875)scale(0.2 -0.2)">
       <use xlink:href="#DejaVuSans-36"/>
      </g>
     </g>
    </g>
    <g id="xtick_5">
     <g id="line2d_13">
      <path clip-path="url(#pf167dac8eb)" d="M 56.12 294.88 
L 56.12 24.84 
" style="fill:none;stroke:#b0b0b0;stroke-linecap:square;stroke-width:0.8;"/>
     </g>
     <g id="line2d_14">
      <defs>
       <path d="M 0 0 
L 0 2 
" id="m2e5af3719b" style="stroke:#000000;stroke-width:0.6;"/>
      </defs>
      <g>
       <use style="stroke:#000000;stroke-width:0.6;" x="56.12" xlink:href="#m2e5af3719b" y="294.88"/>
      </g>
     </g>
    </g>
    <g id="xtick_6">
     <g id="line2d_15">
      <path clip-path="url(#pf167dac8eb)" d="M 95.698286 294.88 
L 95.698286 24.84 
" style="fill:none;stroke:#b0b0b0;stroke-linecap:square;stroke-width:0.8;"/>
     </g>
     <g id="line2d_16">
      <g>
       <use style="stroke:#000000;stroke-width:0.6;" x="95.698286" xlink:href="#m2e5af3719b" y="294.88"/>
      </g>
     </g>
    </g>
    <g id="xtick_7">
     <g id="line2d_17">
      <path clip-path="url(#pf167dac8eb)" d="M 135.276571 294.88 
L 135.276571 24.84 
" style="fill:none;stroke:#b0b0b0;stroke-linecap:square;stroke-width:0.8;"/>
     </g>
     <g id="line2d_18">
      <g>
       <use style="stroke:#000000;stroke-width:0.6;" x="135.276571" xlink:href="#m2e5af3719b" y="294.88"/>
      </g>
     </g>
    </g>
    <g id="xtick_8">
     <g id="line2d_19">
      <path clip-path="url(#pf167dac8eb)" d="M 174.854857 294.88 
L 174.854857 24.84 
" style="fill:none;stroke:#b0b0b0;stroke-linecap:square;stroke-width:0.8;"/>
     </g>
     <g id="line2d_20">
      <g>
       <use style="stroke:#000000;stroke-width:0.6;" x="174.854857" xlink:href="#m2e5af3719b" y="294.88"/>
      </g>
     </g>
    </g>
    <g id="xtick_9">
     <g id="line2d_21">
      <path clip-path="url(#pf167dac8eb)" d="M 214.433143 294.88 
L 214.433143 24.84 
" style="fill:none;stroke:#b0b0b0;stroke-linecap:square;stroke-width:0.8;"/>
     </g>
     <g id="line2d_22">
      <g>
       <use style="stroke:#000000;stroke-width:0.6;" x="214.433143" xlink:href="#m2e5af3719b" y="294.88"/>
      </g>
     </g>
    </g>
    <g id="xtick_10">
     <g id="line2d_23">
      <path clip-path="url(#pf167dac8eb)" d="M 254.011429 294.88 
L 254.011429 24.84 
" style="fill:none;stroke:#b0b0b0;stroke-linecap:square;stroke-width:0.8;"/>
     </g>
     <g id="line2d_24">
      <g>
       <use style="stroke:#000000;stroke-width:0.6;" x="254.011429" xlink:href="#m2e5af3719b" y="294.88"/>
      </g>
     </g>
    </g>
    <g id="xtick_11">
     <g id="line2d_25">
      <path clip-path="url(#pf167dac8eb)" d="M 293.589714 294.88 
L 293.589714 24.84 
" style="fill:none;stroke:#b0b0b0;stroke-linecap:square;stroke-width:0.8;"/>
     </g>
     <g id="line2d_26">
      <g>
       <use style="stroke:#000000;stroke-width:0.6;" x="293.589714" xlink:href="#m2e5af3719b" y="294.88"/>
      </g>
     </g>
    </g>
    <g id="xtick_12">
     <g id="line2d_27">
      <path clip-path="url(#pf167dac8eb)" d="M 333.168 294.88 
L 333.168 24.84 
" style="fill:none;stroke:#b0b0b0;stroke-linecap:square;stroke-width:0.8;"/>
     </g>
     <g id="line2d_28">
      <g>
       <use style="stroke:#000000;stroke-width:0.6;" x="333.168" xlink:href="#m2e5af3719b" y="294.88"/>
      </g>
     </g>
    </g>
    <g id="text_5">
     <!-- log10(# f-evals / dimension) -->
     <defs>
      <path d="M 9.421875 75.984375 
L 18.40625 75.984375 
L 18.40625 0 
L 9.421875 0 
z
" id="DejaVuSans-6c"/>
      <path d="M 30.609375 48.390625 
Q 23.390625 48.390625 19.1875 42.75 
Q 14.984375 37.109375 14.984375 27.296875 
Q 14.984375 17.484375 19.15625 11.84375 
Q 23.34375 6.203125 30.609375 6.203125 
Q 37.796875 6.203125 41.984375 11.859375 
Q 46.1875 17.53125 46.1875 27.296875 
Q 46.1875 37.015625 41.984375 42.703125 
Q 37.796875 48.390625 30.609375 48.390625 
z
M 30.609375 56 
Q 42.328125 56 49.015625 48.375 
Q 55.71875 40.765625 55.71875 27.296875 
Q 55.71875 13.875 49.015625 6.21875 
Q 42.328125 -1.421875 30.609375 -1.421875 
Q 18.84375 -1.421875 12.171875 6.21875 
Q 5.515625 13.875 5.515625 27.296875 
Q 5.515625 40.765625 12.171875 48.375 
Q 18.84375 56 30.609375 56 
z
" id="DejaVuSans-6f"/>
      <path d="M 45.40625 27.984375 
Q 45.40625 37.75 41.375 43.109375 
Q 37.359375 48.484375 30.078125 48.484375 
Q 22.859375 48.484375 18.828125 43.109375 
Q 14.796875 37.75 14.796875 27.984375 
Q 14.796875 18.265625 18.828125 12.890625 
Q 22.859375 7.515625 30.078125 7.515625 
Q 37.359375 7.515625 41.375 12.890625 
Q 45.40625 18.265625 45.40625 27.984375 
z
M 54.390625 6.78125 
Q 54.390625 -7.171875 48.1875 -13.984375 
Q 42 -20.796875 29.203125 -20.796875 
Q 24.46875 -20.796875 20.265625 -20.09375 
Q 16.0625 -19.390625 12.109375 -17.921875 
L 12.109375 -9.1875 
Q 16.0625 -11.328125 19.921875 -12.34375 
Q 23.78125 -13.375 27.78125 -13.375 
Q 36.625 -13.375 41.015625 -8.765625 
Q 45.40625 -4.15625 45.40625 5.171875 
L 45.40625 9.625 
Q 42.625 4.78125 38.28125 2.390625 
Q 33.9375 0 27.875 0 
Q 17.828125 0 11.671875 7.65625 
Q 5.515625 15.328125 5.515625 27.984375 
Q 5.515625 40.671875 11.671875 48.328125 
Q 17.828125 56 27.875 56 
Q 33.9375 56 38.28125 53.609375 
Q 42.625 51.21875 45.40625 46.390625 
L 45.40625 54.6875 
L 54.390625 54.6875 
z
" id="DejaVuSans-67"/>
      <path d="M 12.40625 8.296875 
L 28.515625 8.296875 
L 28.515625 63.921875 
L 10.984375 60.40625 
L 10.984375 69.390625 
L 28.421875 72.90625 
L 38.28125 72.90625 
L 38.28125 8.296875 
L 54.390625 8.296875 
L 54.390625 0 
L 12.40625 0 
z
" id="DejaVuSans-31"/>
      <path d="M 31 75.875 
Q 24.46875 64.65625 21.28125 53.65625 
Q 18.109375 42.671875 18.109375 31.390625 
Q 18.109375 20.125 21.3125 9.0625 
Q 24.515625 -2 31 -13.1875 
L 23.1875 -13.1875 
Q 15.875 -1.703125 12.234375 9.375 
Q 8.59375 20.453125 8.59375 31.390625 
Q 8.59375 42.28125 12.203125 53.3125 
Q 15.828125 64.359375 23.1875 75.875 
z
" id="DejaVuSans-28"/>
      <path d="M 51.125 44 
L 36.921875 44 
L 32.8125 27.6875 
L 47.125 27.6875 
z
M 43.796875 71.78125 
L 38.71875 51.515625 
L 52.984375 51.515625 
L 58.109375 71.78125 
L 65.921875 71.78125 
L 60.890625 51.515625 
L 76.125 51.515625 
L 76.125 44 
L 58.984375 44 
L 54.984375 27.6875 
L 70.515625 27.6875 
L 70.515625 20.21875 
L 53.078125 20.21875 
L 48 0 
L 40.1875 0 
L 45.21875 20.21875 
L 30.90625 20.21875 
L 25.875 0 
L 18.015625 0 
L 23.09375 20.21875 
L 7.71875 20.21875 
L 7.71875 27.6875 
L 24.90625 27.6875 
L 29 44 
L 13.28125 44 
L 13.28125 51.515625 
L 30.90625 51.515625 
L 35.890625 71.78125 
z
" id="DejaVuSans-23"/>
      <path id="DejaVuSans-20"/>
      <path d="M 37.109375 75.984375 
L 37.109375 68.5 
L 28.515625 68.5 
Q 23.6875 68.5 21.796875 66.546875 
Q 19.921875 64.59375 19.921875 59.515625 
L 19.921875 54.6875 
L 34.71875 54.6875 
L 34.71875 47.703125 
L 19.921875 47.703125 
L 19.921875 0 
L 10.890625 0 
L 10.890625 47.703125 
L 2.296875 47.703125 
L 2.296875 54.6875 
L 10.890625 54.6875 
L 10.890625 58.5 
Q 10.890625 67.625 15.140625 71.796875 
Q 19.390625 75.984375 28.609375 75.984375 
z
" id="DejaVuSans-66"/>
      <path d="M 4.890625 31.390625 
L 31.203125 31.390625 
L 31.203125 23.390625 
L 4.890625 23.390625 
z
" id="DejaVuSans-2d"/>
      <path d="M 56.203125 29.59375 
L 56.203125 25.203125 
L 14.890625 25.203125 
Q 15.484375 15.921875 20.484375 11.0625 
Q 25.484375 6.203125 34.421875 6.203125 
Q 39.59375 6.203125 44.453125 7.46875 
Q 49.3125 8.734375 54.109375 11.28125 
L 54.109375 2.78125 
Q 49.265625 0.734375 44.1875 -0.34375 
Q 39.109375 -1.421875 33.890625 -1.421875 
Q 20.796875 -1.421875 13.15625 6.1875 
Q 5.515625 13.8125 5.515625 26.8125 
Q 5.515625 40.234375 12.765625 48.109375 
Q 20.015625 56 32.328125 56 
Q 43.359375 56 49.78125 48.890625 
Q 56.203125 41.796875 56.203125 29.59375 
z
M 47.21875 32.234375 
Q 47.125 39.59375 43.09375 43.984375 
Q 39.0625 48.390625 32.421875 48.390625 
Q 24.90625 48.390625 20.390625 44.140625 
Q 15.875 39.890625 15.1875 32.171875 
z
" id="DejaVuSans-65"/>
      <path d="M 2.984375 54.6875 
L 12.5 54.6875 
L 29.59375 8.796875 
L 46.6875 54.6875 
L 56.203125 54.6875 
L 35.6875 0 
L 23.484375 0 
z
" id="DejaVuSans-76"/>
      <path d="M 34.28125 27.484375 
Q 23.390625 27.484375 19.1875 25 
Q 14.984375 22.515625 14.984375 16.5 
Q 14.984375 11.71875 18.140625 8.90625 
Q 21.296875 6.109375 26.703125 6.109375 
Q 34.1875 6.109375 38.703125 11.40625 
Q 43.21875 16.703125 43.21875 25.484375 
L 43.21875 27.484375 
z
M 52.203125 31.203125 
L 52.203125 0 
L 43.21875 0 
L 43.21875 8.296875 
Q 40.140625 3.328125 35.546875 0.953125 
Q 30.953125 -1.421875 24.3125 -1.421875 
Q 15.921875 -1.421875 10.953125 3.296875 
Q 6 8.015625 6 15.921875 
Q 6 25.140625 12.171875 29.828125 
Q 18.359375 34.515625 30.609375 34.515625 
L 43.21875 34.515625 
L 43.21875 35.40625 
Q 43.21875 41.609375 39.140625 45 
Q 35.0625 48.390625 27.6875 48.390625 
Q 23 48.390625 18.546875 47.265625 
Q 14.109375 46.140625 10.015625 43.890625 
L 10.015625 52.203125 
Q 14.9375 54.109375 19.578125 55.046875 
Q 24.21875 56 28.609375 56 
Q 40.484375 56 46.34375 49.84375 
Q 52.203125 43.703125 52.203125 31.203125 
z
" id="DejaVuSans-61"/>
      <path d="M 44.28125 53.078125 
L 44.28125 44.578125 
Q 40.484375 46.53125 36.375 47.5 
Q 32.28125 48.484375 27.875 48.484375 
Q 21.1875 48.484375 17.84375 46.4375 
Q 14.5 44.390625 14.5 40.28125 
Q 14.5 37.15625 16.890625 35.375 
Q 19.28125 33.59375 26.515625 31.984375 
L 29.59375 31.296875 
Q 39.15625 29.25 43.1875 25.515625 
Q 47.21875 21.78125 47.21875 15.09375 
Q 47.21875 7.46875 41.1875 3.015625 
Q 35.15625 -1.421875 24.609375 -1.421875 
Q 20.21875 -1.421875 15.453125 -0.5625 
Q 10.6875 0.296875 5.421875 2 
L 5.421875 11.28125 
Q 10.40625 8.6875 15.234375 7.390625 
Q 20.0625 6.109375 24.8125 6.109375 
Q 31.15625 6.109375 34.5625 8.28125 
Q 37.984375 10.453125 37.984375 14.40625 
Q 37.984375 18.0625 35.515625 20.015625 
Q 33.0625 21.96875 24.703125 23.78125 
L 21.578125 24.515625 
Q 13.234375 26.265625 9.515625 29.90625 
Q 5.8125 33.546875 5.8125 39.890625 
Q 5.8125 47.609375 11.28125 51.796875 
Q 16.75 56 26.8125 56 
Q 31.78125 56 36.171875 55.265625 
Q 40.578125 54.546875 44.28125 53.078125 
z
" id="DejaVuSans-73"/>
      <path d="M 25.390625 72.90625 
L 33.6875 72.90625 
L 8.296875 -9.28125 
L 0 -9.28125 
z
" id="DejaVuSans-2f"/>
      <path d="M 45.40625 46.390625 
L 45.40625 75.984375 
L 54.390625 75.984375 
L 54.390625 0 
L 45.40625 0 
L 45.40625 8.203125 
Q 42.578125 3.328125 38.25 0.953125 
Q 33.9375 -1.421875 27.875 -1.421875 
Q 17.96875 -1.421875 11.734375 6.484375 
Q 5.515625 14.40625 5.515625 27.296875 
Q 5.515625 40.1875 11.734375 48.09375 
Q 17.96875 56 27.875 56 
Q 33.9375 56 38.25 53.625 
Q 42.578125 51.265625 45.40625 46.390625 
z
M 14.796875 27.296875 
Q 14.796875 17.390625 18.875 11.75 
Q 22.953125 6.109375 30.078125 6.109375 
Q 37.203125 6.109375 41.296875 11.75 
Q 45.40625 17.390625 45.40625 27.296875 
Q 45.40625 37.203125 41.296875 42.84375 
Q 37.203125 48.484375 30.078125 48.484375 
Q 22.953125 48.484375 18.875 42.84375 
Q 14.796875 37.203125 14.796875 27.296875 
z
" id="DejaVuSans-64"/>
      <path d="M 9.421875 54.6875 
L 18.40625 54.6875 
L 18.40625 0 
L 9.421875 0 
z
M 9.421875 75.984375 
L 18.40625 75.984375 
L 18.40625 64.59375 
L 9.421875 64.59375 
z
" id="DejaVuSans-69"/>
      <path d="M 52 44.1875 
Q 55.375 50.25 60.0625 53.125 
Q 64.75 56 71.09375 56 
Q 79.640625 56 84.28125 50.015625 
Q 88.921875 44.046875 88.921875 33.015625 
L 88.921875 0 
L 79.890625 0 
L 79.890625 32.71875 
Q 79.890625 40.578125 77.09375 44.375 
Q 74.3125 48.1875 68.609375 48.1875 
Q 61.625 48.1875 57.5625 43.546875 
Q 53.515625 38.921875 53.515625 30.90625 
L 53.515625 0 
L 44.484375 0 
L 44.484375 32.71875 
Q 44.484375 40.625 41.703125 44.40625 
Q 38.921875 48.1875 33.109375 48.1875 
Q 26.21875 48.1875 22.15625 43.53125 
Q 18.109375 38.875 18.109375 30.90625 
L 18.109375 0 
L 9.078125 0 
L 9.078125 54.6875 
L 18.109375 54.6875 
L 18.109375 46.1875 
Q 21.1875 51.21875 25.484375 53.609375 
Q 29.78125 56 35.6875 56 
Q 41.65625 56 45.828125 52.96875 
Q 50 49.953125 52 44.1875 
z
" id="DejaVuSans-6d"/>
      <path d="M 54.890625 33.015625 
L 54.890625 0 
L 45.90625 0 
L 45.90625 32.71875 
Q 45.90625 40.484375 42.875 44.328125 
Q 39.84375 48.1875 33.796875 48.1875 
Q 26.515625 48.1875 22.3125 43.546875 
Q 18.109375 38.921875 18.109375 30.90625 
L 18.109375 0 
L 9.078125 0 
L 9.078125 54.6875 
L 18.109375 54.6875 
L 18.109375 46.1875 
Q 21.34375 51.125 25.703125 53.5625 
Q 30.078125 56 35.796875 56 
Q 45.21875 56 50.046875 50.171875 
Q 54.890625 44.34375 54.890625 33.015625 
z
" id="DejaVuSans-6e"/>
      <path d="M 8.015625 75.875 
L 15.828125 75.875 
Q 23.140625 64.359375 26.78125 53.3125 
Q 30.421875 42.28125 30.421875 31.390625 
Q 30.421875 20.453125 26.78125 9.375 
Q 23.140625 -1.703125 15.828125 -13.1875 
L 8.015625 -13.1875 
Q 14.5 -2 17.703125 9.0625 
Q 20.90625 20.125 20.90625 31.390625 
Q 20.90625 42.671875 17.703125 53.65625 
Q 14.5 64.65625 8.015625 75.875 
z
" id="DejaVuSans-29"/>
     </defs>
     <g transform="translate(73.803219 338.153594)scale(0.17 -0.17)">
      <use xlink:href="#DejaVuSans-6c"/>
      <use x="27.783203" xlink:href="#DejaVuSans-6f"/>
      <use x="88.964844" xlink:href="#DejaVuSans-67"/>
      <use x="152.441406" xlink:href="#DejaVuSans-31"/>
      <use x="216.064453" xlink:href="#DejaVuSans-30"/>
      <use x="279.6875" xlink:href="#DejaVuSans-28"/>
      <use x="318.701172" xlink:href="#DejaVuSans-23"/>
      <use x="402.490234" xlink:href="#DejaVuSans-20"/>
      <use x="434.277344" xlink:href="#DejaVuSans-66"/>
      <use x="469.404297" xlink:href="#DejaVuSans-2d"/>
      <use x="505.488281" xlink:href="#DejaVuSans-65"/>
      <use x="567.011719" xlink:href="#DejaVuSans-76"/>
      <use x="626.191406" xlink:href="#DejaVuSans-61"/>
      <use x="687.470703" xlink:href="#DejaVuSans-6c"/>
      <use x="715.253906" xlink:href="#DejaVuSans-73"/>
      <use x="767.353516" xlink:href="#DejaVuSans-20"/>
      <use x="799.140625" xlink:href="#DejaVuSans-2f"/>
      <use x="832.832031" xlink:href="#DejaVuSans-20"/>
      <use x="864.619141" xlink:href="#DejaVuSans-64"/>
      <use x="928.095703" xlink:href="#DejaVuSans-69"/>
      <use x="955.878906" xlink:href="#DejaVuSans-6d"/>
      <use x="1053.291016" xlink:href="#DejaVuSans-65"/>
      <use x="1114.814453" xlink:href="#DejaVuSans-6e"/>
      <use x="1178.193359" xlink:href="#DejaVuSans-73"/>
      <use x="1230.292969" xlink:href="#DejaVuSans-69"/>
      <use x="1258.076172" xlink:href="#DejaVuSans-6f"/>
      <use x="1319.257812" xlink:href="#DejaVuSans-6e"/>
      <use x="1382.636719" xlink:href="#DejaVuSans-29"/>
     </g>
    </g>
   </g>
   <g id="matplotlib.axis_2">
    <g id="ytick_1">
     <g id="line2d_29">
      <path clip-path="url(#pf167dac8eb)" d="M 56.12 294.88 
L 333.168 294.88 
" style="fill:none;stroke:#b0b0b0;stroke-linecap:square;stroke-width:0.8;"/>
     </g>
     <g id="line2d_30">
      <defs>
       <path d="M 0 0 
L -3.5 0 
" id="mf9d9b2772c" style="stroke:#000000;stroke-width:0.8;"/>
      </defs>
      <g>
       <use style="stroke:#000000;stroke-width:0.8;" x="56.12" xlink:href="#mf9d9b2772c" y="294.88"/>
      </g>
     </g>
     <g id="text_6">
      <!-- 0.0 -->
      <defs>
       <path d="M 10.6875 12.40625 
L 21 12.40625 
L 21 0 
L 10.6875 0 
z
" id="DejaVuSans-2e"/>
      </defs>
      <g transform="translate(23.675 300.95875)scale(0.16 -0.16)">
       <use xlink:href="#DejaVuSans-30"/>
       <use x="63.623047" xlink:href="#DejaVuSans-2e"/>
       <use x="95.410156" xlink:href="#DejaVuSans-30"/>
      </g>
     </g>
    </g>
    <g id="ytick_2">
     <g id="line2d_31">
      <path clip-path="url(#pf167dac8eb)" d="M 56.12 241.406733 
L 333.168 241.406733 
" style="fill:none;stroke:#b0b0b0;stroke-linecap:square;stroke-width:0.8;"/>
     </g>
     <g id="line2d_32">
      <g>
       <use style="stroke:#000000;stroke-width:0.8;" x="56.12" xlink:href="#mf9d9b2772c" y="241.406733"/>
      </g>
     </g>
     <g id="text_7">
      <!-- 0.2 -->
      <g transform="translate(23.675 247.485483)scale(0.16 -0.16)">
       <use xlink:href="#DejaVuSans-30"/>
       <use x="63.623047" xlink:href="#DejaVuSans-2e"/>
       <use x="95.410156" xlink:href="#DejaVuSans-32"/>
      </g>
     </g>
    </g>
    <g id="ytick_3">
     <g id="line2d_33">
      <path clip-path="url(#pf167dac8eb)" d="M 56.12 187.933465 
L 333.168 187.933465 
" style="fill:none;stroke:#b0b0b0;stroke-linecap:square;stroke-width:0.8;"/>
     </g>
     <g id="line2d_34">
      <g>
       <use style="stroke:#000000;stroke-width:0.8;" x="56.12" xlink:href="#mf9d9b2772c" y="187.933465"/>
      </g>
     </g>
     <g id="text_8">
      <!-- 0.4 -->
      <g transform="translate(23.675 194.012215)scale(0.16 -0.16)">
       <use xlink:href="#DejaVuSans-30"/>
       <use x="63.623047" xlink:href="#DejaVuSans-2e"/>
       <use x="95.410156" xlink:href="#DejaVuSans-34"/>
      </g>
     </g>
    </g>
    <g id="ytick_4">
     <g id="line2d_35">
      <path clip-path="url(#pf167dac8eb)" d="M 56.12 134.460198 
L 333.168 134.460198 
" style="fill:none;stroke:#b0b0b0;stroke-linecap:square;stroke-width:0.8;"/>
     </g>
     <g id="line2d_36">
      <g>
       <use style="stroke:#000000;stroke-width:0.8;" x="56.12" xlink:href="#mf9d9b2772c" y="134.460198"/>
      </g>
     </g>
     <g id="text_9">
      <!-- 0.6 -->
      <g transform="translate(23.675 140.538948)scale(0.16 -0.16)">
       <use xlink:href="#DejaVuSans-30"/>
       <use x="63.623047" xlink:href="#DejaVuSans-2e"/>
       <use x="95.410156" xlink:href="#DejaVuSans-36"/>
      </g>
     </g>
    </g>
    <g id="ytick_5">
     <g id="line2d_37">
      <path clip-path="url(#pf167dac8eb)" d="M 56.12 80.986931 
L 333.168 80.986931 
" style="fill:none;stroke:#b0b0b0;stroke-linecap:square;stroke-width:0.8;"/>
     </g>
     <g id="line2d_38">
      <g>
       <use style="stroke:#000000;stroke-width:0.8;" x="56.12" xlink:href="#mf9d9b2772c" y="80.986931"/>
      </g>
     </g>
     <g id="text_10">
      <!-- 0.8 -->
      <defs>
       <path d="M 31.78125 34.625 
Q 24.75 34.625 20.71875 30.859375 
Q 16.703125 27.09375 16.703125 20.515625 
Q 16.703125 13.921875 20.71875 10.15625 
Q 24.75 6.390625 31.78125 6.390625 
Q 38.8125 6.390625 42.859375 10.171875 
Q 46.921875 13.96875 46.921875 20.515625 
Q 46.921875 27.09375 42.890625 30.859375 
Q 38.875 34.625 31.78125 34.625 
z
M 21.921875 38.8125 
Q 15.578125 40.375 12.03125 44.71875 
Q 8.5 49.078125 8.5 55.328125 
Q 8.5 64.0625 14.71875 69.140625 
Q 20.953125 74.21875 31.78125 74.21875 
Q 42.671875 74.21875 48.875 69.140625 
Q 55.078125 64.0625 55.078125 55.328125 
Q 55.078125 49.078125 51.53125 44.71875 
Q 48 40.375 41.703125 38.8125 
Q 48.828125 37.15625 52.796875 32.3125 
Q 56.78125 27.484375 56.78125 20.515625 
Q 56.78125 9.90625 50.3125 4.234375 
Q 43.84375 -1.421875 31.78125 -1.421875 
Q 19.734375 -1.421875 13.25 4.234375 
Q 6.78125 9.90625 6.78125 20.515625 
Q 6.78125 27.484375 10.78125 32.3125 
Q 14.796875 37.15625 21.921875 38.8125 
z
M 18.3125 54.390625 
Q 18.3125 48.734375 21.84375 45.5625 
Q 25.390625 42.390625 31.78125 42.390625 
Q 38.140625 42.390625 41.71875 45.5625 
Q 45.3125 48.734375 45.3125 54.390625 
Q 45.3125 60.0625 41.71875 63.234375 
Q 38.140625 66.40625 31.78125 66.40625 
Q 25.390625 66.40625 21.84375 63.234375 
Q 18.3125 60.0625 18.3125 54.390625 
z
" id="DejaVuSans-38"/>
      </defs>
      <g transform="translate(23.675 87.065681)scale(0.16 -0.16)">
       <use xlink:href="#DejaVuSans-30"/>
       <use x="63.623047" xlink:href="#DejaVuSans-2e"/>
       <use x="95.410156" xlink:href="#DejaVuSans-38"/>
      </g>
     </g>
    </g>
    <g id="ytick_6">
     <g id="line2d_39">
      <path clip-path="url(#pf167dac8eb)" d="M 56.12 27.513663 
L 333.168 27.513663 
" style="fill:none;stroke:#b0b0b0;stroke-linecap:square;stroke-width:0.8;"/>
     </g>
     <g id="line2d_40">
      <g>
       <use style="stroke:#000000;stroke-width:0.8;" x="56.12" xlink:href="#mf9d9b2772c" y="27.513663"/>
      </g>
     </g>
     <g id="text_11">
      <!-- 1.0 -->
      <g transform="translate(23.675 33.592413)scale(0.16 -0.16)">
       <use xlink:href="#DejaVuSans-31"/>
       <use x="63.623047" xlink:href="#DejaVuSans-2e"/>
       <use x="95.410156" xlink:href="#DejaVuSans-30"/>
      </g>
     </g>
    </g>
    <g id="text_12">
     <!-- Fraction of function,target pairs -->
     <defs>
      <path d="M 9.8125 72.90625 
L 51.703125 72.90625 
L 51.703125 64.59375 
L 19.671875 64.59375 
L 19.671875 43.109375 
L 48.578125 43.109375 
L 48.578125 34.8125 
L 19.671875 34.8125 
L 19.671875 0 
L 9.8125 0 
z
" id="DejaVuSans-46"/>
      <path d="M 41.109375 46.296875 
Q 39.59375 47.171875 37.8125 47.578125 
Q 36.03125 48 33.890625 48 
Q 26.265625 48 22.1875 43.046875 
Q 18.109375 38.09375 18.109375 28.8125 
L 18.109375 0 
L 9.078125 0 
L 9.078125 54.6875 
L 18.109375 54.6875 
L 18.109375 46.1875 
Q 20.953125 51.171875 25.484375 53.578125 
Q 30.03125 56 36.53125 56 
Q 37.453125 56 38.578125 55.875 
Q 39.703125 55.765625 41.0625 55.515625 
z
" id="DejaVuSans-72"/>
      <path d="M 48.78125 52.59375 
L 48.78125 44.1875 
Q 44.96875 46.296875 41.140625 47.34375 
Q 37.3125 48.390625 33.40625 48.390625 
Q 24.65625 48.390625 19.8125 42.84375 
Q 14.984375 37.3125 14.984375 27.296875 
Q 14.984375 17.28125 19.8125 11.734375 
Q 24.65625 6.203125 33.40625 6.203125 
Q 37.3125 6.203125 41.140625 7.25 
Q 44.96875 8.296875 48.78125 10.40625 
L 48.78125 2.09375 
Q 45.015625 0.34375 40.984375 -0.53125 
Q 36.96875 -1.421875 32.421875 -1.421875 
Q 20.0625 -1.421875 12.78125 6.34375 
Q 5.515625 14.109375 5.515625 27.296875 
Q 5.515625 40.671875 12.859375 48.328125 
Q 20.21875 56 33.015625 56 
Q 37.15625 56 41.109375 55.140625 
Q 45.0625 54.296875 48.78125 52.59375 
z
" id="DejaVuSans-63"/>
      <path d="M 18.3125 70.21875 
L 18.3125 54.6875 
L 36.8125 54.6875 
L 36.8125 47.703125 
L 18.3125 47.703125 
L 18.3125 18.015625 
Q 18.3125 11.328125 20.140625 9.421875 
Q 21.96875 7.515625 27.59375 7.515625 
L 36.8125 7.515625 
L 36.8125 0 
L 27.59375 0 
Q 17.1875 0 13.234375 3.875 
Q 9.28125 7.765625 9.28125 18.015625 
L 9.28125 47.703125 
L 2.6875 47.703125 
L 2.6875 54.6875 
L 9.28125 54.6875 
L 9.28125 70.21875 
z
" id="DejaVuSans-74"/>
      <path d="M 8.5 21.578125 
L 8.5 54.6875 
L 17.484375 54.6875 
L 17.484375 21.921875 
Q 17.484375 14.15625 20.5 10.265625 
Q 23.53125 6.390625 29.59375 6.390625 
Q 36.859375 6.390625 41.078125 11.03125 
Q 45.3125 15.671875 45.3125 23.6875 
L 45.3125 54.6875 
L 54.296875 54.6875 
L 54.296875 0 
L 45.3125 0 
L 45.3125 8.40625 
Q 42.046875 3.421875 37.71875 1 
Q 33.40625 -1.421875 27.6875 -1.421875 
Q 18.265625 -1.421875 13.375 4.4375 
Q 8.5 10.296875 8.5 21.578125 
z
M 31.109375 56 
z
" id="DejaVuSans-75"/>
      <path d="M 11.71875 12.40625 
L 22.015625 12.40625 
L 22.015625 4 
L 14.015625 -11.625 
L 7.71875 -11.625 
L 11.71875 4 
z
" id="DejaVuSans-2c"/>
      <path d="M 18.109375 8.203125 
L 18.109375 -20.796875 
L 9.078125 -20.796875 
L 9.078125 54.6875 
L 18.109375 54.6875 
L 18.109375 46.390625 
Q 20.953125 51.265625 25.265625 53.625 
Q 29.59375 56 35.59375 56 
Q 45.5625 56 51.78125 48.09375 
Q 58.015625 40.1875 58.015625 27.296875 
Q 58.015625 14.40625 51.78125 6.484375 
Q 45.5625 -1.421875 35.59375 -1.421875 
Q 29.59375 -1.421875 25.265625 0.953125 
Q 20.953125 3.328125 18.109375 8.203125 
z
M 48.6875 27.296875 
Q 48.6875 37.203125 44.609375 42.84375 
Q 40.53125 48.484375 33.40625 48.484375 
Q 26.265625 48.484375 22.1875 42.84375 
Q 18.109375 37.203125 18.109375 27.296875 
Q 18.109375 17.390625 22.1875 11.75 
Q 26.265625 6.109375 33.40625 6.109375 
Q 40.53125 6.109375 44.609375 11.75 
Q 48.6875 17.390625 48.6875 27.296875 
z
" id="DejaVuSans-70"/>
     </defs>
     <g transform="translate(16.139531 294.999375)rotate(-90)scale(0.17 -0.17)">
      <use xlink:href="#DejaVuSans-46"/>
      <use x="57.410156" xlink:href="#DejaVuSans-72"/>
      <use x="98.523438" xlink:href="#DejaVuSans-61"/>
      <use x="159.802734" xlink:href="#DejaVuSans-63"/>
      <use x="214.783203" xlink:href="#DejaVuSans-74"/>
      <use x="253.992188" xlink:href="#DejaVuSans-69"/>
      <use x="281.775391" xlink:href="#DejaVuSans-6f"/>
      <use x="342.957031" xlink:href="#DejaVuSans-6e"/>
      <use x="406.335938" xlink:href="#DejaVuSans-20"/>
      <use x="438.123047" xlink:href="#DejaVuSans-6f"/>
      <use x="499.304688" xlink:href="#DejaVuSans-66"/>
      <use x="534.509766" xlink:href="#DejaVuSans-20"/>
      <use x="566.296875" xlink:href="#DejaVuSans-66"/>
      <use x="601.501953" xlink:href="#DejaVuSans-75"/>
      <use x="664.880859" xlink:href="#DejaVuSans-6e"/>
      <use x="728.259766" xlink:href="#DejaVuSans-63"/>
      <use x="783.240234" xlink:href="#DejaVuSans-74"/>
      <use x="822.449219" xlink:href="#DejaVuSans-69"/>
      <use x="850.232422" xlink:href="#DejaVuSans-6f"/>
      <use x="911.414062" xlink:href="#DejaVuSans-6e"/>
      <use x="974.792969" xlink:href="#DejaVuSans-2c"/>
      <use x="1006.580078" xlink:href="#DejaVuSans-74"/>
      <use x="1045.789062" xlink:href="#DejaVuSans-61"/>
      <use x="1107.068359" xlink:href="#DejaVuSans-72"/>
      <use x="1148.166016" xlink:href="#DejaVuSans-67"/>
      <use x="1211.642578" xlink:href="#DejaVuSans-65"/>
      <use x="1273.166016" xlink:href="#DejaVuSans-74"/>
      <use x="1312.375" xlink:href="#DejaVuSans-20"/>
      <use x="1344.162109" xlink:href="#DejaVuSans-70"/>
      <use x="1407.638672" xlink:href="#DejaVuSans-61"/>
      <use x="1468.917969" xlink:href="#DejaVuSans-69"/>
      <use x="1496.701172" xlink:href="#DejaVuSans-72"/>
      <use x="1537.814453" xlink:href="#DejaVuSans-73"/>
     </g>
    </g>
   </g>
   <g id="line2d_41">
    <defs>
     <path d="M 0 1.5 
C 0.397805 1.5 0.77937 1.341951 1.06066 1.06066 
C 1.341951 0.77937 1.5 0.397805 1.5 0 
C 1.5 -0.397805 1.341951 -0.77937 1.06066 -1.06066 
C 0.77937 -1.341951 0.397805 -1.5 0 -1.5 
C -0.397805 -1.5 -0.77937 -1.341951 -1.06066 -1.06066 
C -1.341951 -0.77937 -1.5 -0.397805 -1.5 0 
C -1.5 0.397805 -1.341951 0.77937 -1.06066 1.06066 
C -0.77937 1.341951 -0.397805 1.5 0 1.5 
z
" id="mdb6ea3d549" style="stroke:#f5deb3;"/>
    </defs>
    <g>
     <use style="fill:#f5deb3;stroke:#f5deb3;" x="155.871232" xlink:href="#mdb6ea3d549" y="27.513663"/>
     <use style="fill:#f5deb3;stroke:#f5deb3;" x="155.871232" xlink:href="#mdb6ea3d549" y="27.513663"/>
    </g>
   </g>
   <g id="line2d_42">
    <defs>
     <path d="M 0 1.5 
C 0.397805 1.5 0.77937 1.341951 1.06066 1.06066 
C 1.341951 0.77937 1.5 0.397805 1.5 0 
C 1.5 -0.397805 1.341951 -0.77937 1.06066 -1.06066 
C 0.77937 -1.341951 0.397805 -1.5 0 -1.5 
C -0.397805 -1.5 -0.77937 -1.341951 -1.06066 -1.06066 
C -1.341951 -0.77937 -1.5 -0.397805 -1.5 0 
C -1.5 0.397805 -1.341951 0.77937 -1.06066 1.06066 
C -0.77937 1.341951 -0.397805 1.5 0 1.5 
z
" id="mb025dc7838" style="stroke:#000080;"/>
    </defs>
    <g>
     <use style="fill:#000080;stroke:#000080;" x="248.570212" xlink:href="#mb025dc7838" y="258.18266"/>
     <use style="fill:#000080;stroke:#000080;" x="248.570212" xlink:href="#mb025dc7838" y="258.18266"/>
    </g>
   </g>
   <g id="line2d_43">
    <path d="M 28.455965 294.88 
L 28.455965 293.831505 
L 40.370217 293.831505 
L 40.370217 293.307257 
L 56.12 293.307257 
L 56.12 292.783009 
L 64.198719 292.783009 
L 64.198719 292.258761 
L 69.672503 292.258761 
L 69.672503 291.210266 
L 73.817748 291.210266 
L 73.817748 290.686018 
L 79.948502 290.686018 
L 79.948502 290.161771 
L 98.832144 290.161771 
L 98.832144 289.637523 
L 99.67078 289.637523 
L 99.67078 289.113275 
L 100.728876 289.113275 
L 100.728876 288.589027 
L 102.667676 288.589027 
L 102.667676 288.06478 
L 103.120034 288.06478 
L 103.120034 287.540532 
L 108.935392 287.540532 
L 108.935392 287.016284 
L 109.093814 287.016284 
L 109.093814 286.492036 
L 111.030511 286.492036 
L 111.030511 285.967789 
L 113.760471 285.967789 
L 113.760471 285.443541 
L 114.117341 285.443541 
L 114.117341 284.395046 
L 116.73331 284.395046 
L 116.73331 283.870798 
L 119.526788 283.870798 
L 119.526788 283.34655 
L 121.397846 283.34655 
L 121.397846 282.822302 
L 121.854208 282.822302 
L 121.854208 282.298055 
L 123.293428 282.298055 
L 123.293428 281.773807 
L 125.310285 281.773807 
L 125.310285 280.725312 
L 126.496178 280.725312 
L 126.496178 280.201064 
L 126.892639 280.201064 
L 126.892639 279.676816 
L 129.630036 279.676816 
L 129.630036 279.152568 
L 131.612072 279.152568 
L 131.612072 278.628321 
L 132.603999 278.628321 
L 132.644112 277.579825 
L 134.066106 277.579825 
L 134.066106 277.055578 
L 134.213018 277.055578 
L 134.213018 276.53133 
L 141.060069 276.53133 
L 141.060069 276.007082 
L 142.608796 276.007082 
L 142.608796 274.958587 
L 144.457904 274.958587 
L 144.498158 273.910091 
L 146.843566 273.910091 
L 146.843566 273.385844 
L 149.443019 273.385844 
L 149.443019 272.861596 
L 157.484002 272.861596 
L 157.484002 272.337348 
L 164.572606 272.337348 
L 164.572606 271.8131 
L 166.302131 271.8131 
L 166.302131 271.288853 
L 169.093347 271.288853 
L 169.093347 270.764605 
L 169.955771 270.764605 
L 169.955771 270.240357 
L 179.258437 270.240357 
L 179.258437 269.716109 
L 179.86748 269.716109 
L 179.86748 269.191862 
L 180.288592 269.191862 
L 180.288592 268.667614 
L 181.024414 268.667614 
L 181.122573 267.094871 
L 189.407448 267.094871 
L 189.407448 266.570623 
L 191.489052 266.570623 
L 191.489052 266.046375 
L 193.280975 266.046375 
L 193.280975 265.522128 
L 200.258993 265.522128 
L 200.258993 264.99788 
L 206.164162 264.99788 
L 206.164162 264.473632 
L 207.925038 264.473632 
L 207.925038 263.949385 
L 208.908405 263.949385 
L 208.908405 263.425137 
L 212.010153 263.425137 
L 212.010153 262.900889 
L 213.681262 262.900889 
L 213.681262 262.376641 
L 215.687745 262.376641 
L 215.687745 261.852394 
L 219.427779 261.852394 
L 219.427779 261.328146 
L 223.91807 261.328146 
L 223.91807 260.803898 
L 224.571878 260.803898 
L 224.571878 260.279651 
L 226.025726 260.279651 
L 226.025726 259.755403 
L 228.2092 259.755403 
L 228.2092 259.231155 
L 236.666997 259.231155 
L 236.666997 258.706907 
L 248.570212 258.706907 
L 248.570212 258.18266 
L 333.168 258.18266 
L 333.168 258.18266 
" style="fill:none;stroke:#000080;stroke-linecap:square;stroke-width:1.5;"/>
   </g>
   <g id="line2d_44">
    <defs>
     <path d="M 0 6 
C 1.591219 6 3.117479 5.367802 4.242641 4.242641 
C 5.367802 3.117479 6 1.591219 6 0 
C 6 -1.591219 5.367802 -3.117479 4.242641 -4.242641 
C 3.117479 -5.367802 1.591219 -6 0 -6 
C -1.591219 -6 -3.117479 -5.367802 -4.242641 -4.242641 
C -5.367802 -3.117479 -6 -1.591219 -6 0 
C -6 1.591219 -5.367802 3.117479 -4.242641 4.242641 
C -3.117479 5.367802 -1.591219 6 0 6 
z
" id="m69efa1bf09" style="stroke:#000080;stroke-width:1.5;"/>
    </defs>
    <g>
     <use style="fill:none;stroke:#000080;stroke-width:1.5;" x="103.120034" xlink:href="#m69efa1bf09" y="288.06478"/>
     <use style="fill:none;stroke:#000080;stroke-width:1.5;" x="169.955771" xlink:href="#m69efa1bf09" y="270.764605"/>
     <use style="fill:none;stroke:#000080;stroke-width:1.5;" x="224.571878" xlink:href="#m69efa1bf09" y="260.279651"/>
     <use style="fill:none;stroke:#000080;stroke-width:1.5;" x="248.570212" xlink:href="#m69efa1bf09" y="258.18266"/>
     <use style="fill:none;stroke:#000080;stroke-width:1.5;" x="248.570212" xlink:href="#m69efa1bf09" y="258.18266"/>
     <use style="fill:none;stroke:#000080;stroke-width:1.5;" x="333.168" xlink:href="#m69efa1bf09" y="258.18266"/>
    </g>
   </g>
   <g id="line2d_45">
    <path style="fill:none;stroke:#000080;stroke-linecap:square;stroke-width:1.5;"/>
    <g/>
   </g>
   <g id="line2d_46">
    <path clip-path="url(#pf167dac8eb)" d="M 192.528033 266.046375 
" style="fill:none;stroke:#000080;stroke-linecap:square;stroke-width:1.5;"/>
    <defs>
     <path d="M -12 12 
L 12 -12 
M -12 -12 
L 12 12 
" id="m1cfcaae2a1" style="stroke:#000080;"/>
    </defs>
    <g clip-path="url(#pf167dac8eb)">
     <use style="fill:#000080;stroke:#000080;" x="192.528033" xlink:href="#m1cfcaae2a1" y="266.046375"/>
    </g>
   </g>
   <g id="line2d_47">
    <defs>
     <path d="M 0 1.5 
C 0.397805 1.5 0.77937 1.341951 1.06066 1.06066 
C 1.341951 0.77937 1.5 0.397805 1.5 0 
C 1.5 -0.397805 1.341951 -0.77937 1.06066 -1.06066 
C 0.77937 -1.341951 0.397805 -1.5 0 -1.5 
C -0.397805 -1.5 -0.77937 -1.341951 -1.06066 -1.06066 
C -1.341951 -0.77937 -1.5 -0.397805 -1.5 0 
C -1.5 0.397805 -1.341951 0.77937 -1.06066 1.06066 
C -0.77937 1.341951 -0.397805 1.5 0 1.5 
z
" id="m70c8e806e1" style="stroke:#ff00ff;"/>
    </defs>
    <g>
     <use style="fill:#ff00ff;stroke:#ff00ff;" x="253.865255" xlink:href="#m70c8e806e1" y="247.697705"/>
     <use style="fill:#ff00ff;stroke:#ff00ff;" x="253.865255" xlink:href="#m70c8e806e1" y="247.697705"/>
    </g>
   </g>
   <g id="line2d_48">
    <path d="M 28.455965 294.88 
L 28.455965 294.355752 
L 47.339607 294.355752 
L 47.339607 293.831505 
L 56.12 293.831505 
L 56.12 293.307257 
L 61.903497 293.307257 
L 61.903497 292.783009 
L 75.003641 292.783009 
L 75.003641 292.258761 
L 79.066841 292.258761 
L 79.066841 291.734514 
L 80.787138 291.734514 
L 80.787138 290.686018 
L 82.350819 290.686018 
L 82.350819 290.161771 
L 83.08236 290.161771 
L 83.08236 289.113275 
L 84.458185 289.113275 
L 84.458185 288.589027 
L 85.106889 288.589027 
L 85.106889 288.06478 
L 90.522701 288.06478 
L 90.522701 287.540532 
L 91.427575 287.540532 
L 91.427575 287.016284 
L 93.501005 287.016284 
L 93.501005 286.492036 
L 94.996612 286.492036 
L 94.996612 285.967789 
L 95.351029 285.967789 
L 95.351029 285.443541 
L 98.249422 285.443541 
L 98.249422 284.919293 
L 101.23446 284.919293 
L 101.23446 284.395046 
L 101.725597 284.395046 
L 101.725597 283.870798 
L 103.777005 283.870798 
L 103.777005 283.34655 
L 105.60948 283.34655 
L 105.60948 282.822302 
L 105.991465 282.822302 
L 105.991465 282.298055 
L 106.365146 282.298055 
L 106.365146 281.773807 
L 109.560502 281.773807 
L 109.560502 281.249559 
L 111.72091 281.249559 
L 111.72091 280.725312 
L 113.023703 280.725312 
L 113.023703 280.201064 
L 113.518374 280.201064 
L 113.518374 279.152568 
L 113.999206 279.152568 
L 113.999206 278.628321 
L 116.631902 278.628321 
L 116.631902 277.579825 
L 119.09161 277.579825 
L 119.09161 276.53133 
L 121.397846 276.53133 
L 121.397846 276.007082 
L 123.903739 276.007082 
L 123.903739 275.482834 
L 125.371564 275.482834 
L 125.371564 274.958587 
L 125.5541 274.958587 
L 125.5541 274.434339 
L 126.723846 274.434339 
L 126.723846 273.910091 
L 127.334814 273.910091 
L 127.334814 273.385844 
L 128.186438 273.385844 
L 128.186438 272.861596 
L 131.354881 272.861596 
L 131.354881 271.8131 
L 131.654565 271.8131 
L 131.654565 271.288853 
L 131.781419 271.288853 
L 131.781419 270.764605 
L 133.880682 270.764605 
L 133.880682 270.240357 
L 134.859013 270.240357 
L 134.859013 269.716109 
L 136.278134 269.716109 
L 136.278134 269.191862 
L 136.852205 269.191862 
L 136.852205 268.667614 
L 137.008324 268.667614 
L 137.008324 268.143366 
L 139.0294 268.143366 
L 139.0294 267.619119 
L 139.546595 267.619119 
L 139.546595 267.094871 
L 141.084606 267.094871 
L 141.084606 266.570623 
L 142.177069 266.570623 
L 142.177069 266.046375 
L 142.787381 266.046375 
L 142.787381 265.522128 
L 143.376763 265.522128 
L 143.462385 264.473632 
L 144.214377 264.473632 
L 144.214377 263.949385 
L 144.618359 263.949385 
L 144.618359 263.425137 
L 145.013063 263.425137 
L 145.013063 262.376641 
L 145.129729 262.376641 
L 145.129729 261.852394 
L 145.456044 261.852394 
L 145.456044 261.328146 
L 145.943432 261.328146 
L 145.943432 260.803898 
L 146.948481 260.803898 
L 146.948481 260.279651 
L 147.208003 260.279651 
L 147.208003 259.755403 
L 149.215352 259.755403 
L 149.276358 258.706907 
L 151.339751 258.706907 
L 151.339751 258.18266 
L 151.634268 258.18266 
L 151.634268 257.658412 
L 154.556673 257.658412 
L 154.556673 257.134164 
L 179.175754 257.134164 
L 179.175754 256.609917 
L 180.373585 256.609917 
L 180.373585 256.085669 
L 180.906361 256.085669 
L 180.906361 255.561421 
L 193.823087 255.561421 
L 193.823087 255.037173 
L 198.33698 255.037173 
L 198.33698 254.512926 
L 205.42551 254.512926 
L 205.42551 253.988678 
L 209.752549 253.988678 
L 209.752549 253.46443 
L 214.727625 253.46443 
L 214.775882 250.843192 
L 216.787863 250.843192 
L 216.787863 250.318944 
L 221.645799 250.318944 
L 221.645799 249.794696 
L 233.433385 249.794696 
L 233.445218 248.746201 
L 235.342434 248.746201 
L 235.342434 248.221953 
L 253.865255 248.221953 
L 253.865255 247.697705 
L 333.168 247.697705 
L 333.168 247.697705 
" style="fill:none;stroke:#ff00ff;stroke-linecap:square;stroke-width:1.5;"/>
   </g>
   <g id="line2d_49">
    <defs>
     <path d="M -0 8.485281 
L 5.091169 0 
L 0 -8.485281 
L -5.091169 -0 
z
" id="m2c2611a259" style="stroke:#ff00ff;stroke-linejoin:miter;stroke-width:1.5;"/>
    </defs>
    <g>
     <use style="fill:none;stroke:#ff00ff;stroke-linejoin:miter;stroke-width:1.5;" x="80.787138" xlink:href="#m2c2611a259" y="290.686018"/>
     <use style="fill:none;stroke:#ff00ff;stroke-linejoin:miter;stroke-width:1.5;" x="151.634268" xlink:href="#m2c2611a259" y="258.18266"/>
     <use style="fill:none;stroke:#ff00ff;stroke-linejoin:miter;stroke-width:1.5;" x="216.787863" xlink:href="#m2c2611a259" y="250.318944"/>
     <use style="fill:none;stroke:#ff00ff;stroke-linejoin:miter;stroke-width:1.5;" x="253.865255" xlink:href="#m2c2611a259" y="248.221953"/>
     <use style="fill:none;stroke:#ff00ff;stroke-linejoin:miter;stroke-width:1.5;" x="253.865255" xlink:href="#m2c2611a259" y="247.697705"/>
     <use style="fill:none;stroke:#ff00ff;stroke-linejoin:miter;stroke-width:1.5;" x="333.168" xlink:href="#m2c2611a259" y="247.697705"/>
    </g>
   </g>
   <g id="line2d_50">
    <path style="fill:none;stroke:#ff00ff;stroke-linecap:square;stroke-width:1.5;"/>
    <g/>
   </g>
   <g id="line2d_51">
    <path clip-path="url(#pf167dac8eb)" d="M 193.738498 255.561421 
" style="fill:none;stroke:#ff00ff;stroke-linecap:square;stroke-width:1.5;"/>
    <defs>
     <path d="M -12 12 
L 12 -12 
M -12 -12 
L 12 12 
" id="m2282d1eede" style="stroke:#ff00ff;"/>
    </defs>
    <g clip-path="url(#pf167dac8eb)">
     <use style="fill:#ff00ff;stroke:#ff00ff;" x="193.738498" xlink:href="#m2282d1eede" y="255.561421"/>
    </g>
   </g>
   <g id="line2d_52">
    <defs>
     <path d="M 0 1.5 
C 0.397805 1.5 0.77937 1.341951 1.06066 1.06066 
C 1.341951 0.77937 1.5 0.397805 1.5 0 
C 1.5 -0.397805 1.341951 -0.77937 1.06066 -1.06066 
C 0.77937 -1.341951 0.397805 -1.5 0 -1.5 
C -0.397805 -1.5 -0.77937 -1.341951 -1.06066 -1.06066 
C -1.341951 -0.77937 -1.5 -0.397805 -1.5 0 
C -1.5 0.397805 -1.341951 0.77937 -1.06066 1.06066 
C -0.77937 1.341951 -0.397805 1.5 0 1.5 
z
" id="mc06efccb2c" style="stroke:#ff7500;"/>
    </defs>
    <g>
     <use style="fill:#ff7500;stroke:#ff7500;" x="289.522737" xlink:href="#mc06efccb2c" y="27.513663"/>
     <use style="fill:#ff7500;stroke:#ff7500;" x="289.522737" xlink:href="#mc06efccb2c" y="27.513663"/>
    </g>
   </g>
   <g id="line2d_53">
    <path d="M 40.370217 294.88 
L 40.370217 294.355752 
L 52.284468 294.355752 
L 52.284468 293.307257 
L 92.287186 293.307257 
L 92.287186 291.734514 
L 92.70139 291.734514 
L 92.70139 291.210266 
L 93.105847 291.210266 
L 93.105847 290.686018 
L 93.887283 290.686018 
L 93.887283 290.161771 
L 94.634732 290.161771 
L 94.634732 289.637523 
L 99.67078 289.637523 
L 99.67078 289.113275 
L 99.941473 289.113275 
L 99.941473 288.589027 
L 100.728876 288.589027 
L 100.728876 288.06478 
L 103.990531 288.06478 
L 103.990531 287.540532 
L 104.409787 287.540532 
L 104.409787 287.016284 
L 105.415256 287.016284 
L 105.415256 286.492036 
L 109.250788 286.492036 
L 109.250788 285.967789 
L 109.406343 285.967789 
L 109.406343 285.443541 
L 109.713291 285.443541 
L 109.713291 284.919293 
L 111.448069 284.919293 
L 111.448069 284.395046 
L 114.809594 284.395046 
L 114.809594 283.870798 
L 115.365909 283.870798 
L 115.365909 283.34655 
L 118.645127 283.34655 
L 118.645127 282.822302 
L 118.825114 282.822302 
L 118.825114 282.298055 
L 120.849643 282.298055 
L 120.849643 281.773807 
L 124.812029 281.773807 
L 124.812029 281.249559 
L 126.496178 281.249559 
L 126.496178 280.201064 
L 126.610389 280.201064 
L 126.610389 279.676816 
L 128.8486 279.676816 
L 128.8486 278.628321 
L 129.145817 278.628321 
L 129.145817 278.104073 
L 130.604552 278.104073 
L 130.604552 277.055578 
L 131.526768 277.055578 
L 131.612072 276.007082 
L 133.157244 276.007082 
L 133.157244 275.482834 
L 133.350594 275.482834 
L 133.350594 274.958587 
L 134.286006 274.958587 
L 134.358685 273.910091 
L 135.138509 273.910091 
L 135.138509 273.385844 
L 136.016705 273.385844 
L 136.016705 272.861596 
L 136.883542 272.861596 
L 136.883542 272.337348 
L 137.039379 272.337348 
L 137.039379 271.288853 
L 137.346876 271.288853 
L 137.346876 270.764605 
L 137.468351 270.764605 
L 137.468351 270.240357 
L 137.975251 270.240357 
L 137.975251 269.716109 
L 138.439053 269.716109 
L 138.496158 268.667614 
L 141.66324 268.667614 
L 141.686932 267.619119 
L 142.920112 267.619119 
L 142.920112 267.094871 
L 143.160822 267.094871 
L 143.160822 266.570623 
L 144.132429 266.570623 
L 144.132429 266.046375 
L 145.77628 266.046375 
L 145.77628 265.522128 
L 146.05397 265.522128 
L 146.05397 264.99788 
L 146.542779 264.99788 
L 146.560619 263.425137 
L 146.808451 263.425137 
L 146.808451 262.900889 
L 147.531203 262.900889 
L 147.531203 262.376641 
L 148.529586 262.376641 
L 148.545479 261.328146 
L 149.138788 261.328146 
L 149.138788 260.803898 
L 150.108469 260.803898 
L 150.108469 260.279651 
L 150.438891 260.279651 
L 150.438891 259.755403 
L 150.693124 259.755403 
L 150.693124 259.231155 
L 151.312725 259.231155 
L 151.312725 258.706907 
L 151.792811 258.706907 
L 151.792811 258.18266 
L 152.739448 258.18266 
L 152.801568 257.134164 
L 153.230235 257.134164 
L 153.266485 256.085669 
L 155.536037 256.085669 
L 155.536037 255.561421 
L 156.721225 255.561421 
L 156.721225 255.037173 
L 157.198312 255.037173 
L 157.198312 254.512926 
L 158.41235 254.512926 
L 158.41235 253.988678 
L 177.939945 253.988678 
L 177.939945 253.46443 
L 178.219209 253.46443 
L 178.219209 252.940182 
L 178.47174 252.940182 
L 178.47174 252.415935 
L 179.676378 252.415935 
L 179.676378 251.891687 
L 179.797999 251.891687 
L 179.797999 251.367439 
L 209.976765 251.367439 
L 210.07273 250.318944 
L 210.135085 250.318944 
L 210.135085 249.794696 
L 210.612215 249.794696 
L 210.685905 248.746201 
L 210.827257 248.746201 
L 210.827257 248.221953 
L 211.461193 248.221953 
L 211.52279 247.173458 
L 211.599579 247.173458 
L 211.599579 246.64921 
L 212.016089 246.64921 
L 212.016089 246.124962 
L 212.257725 246.124962 
L 212.345286 245.076467 
L 212.53099 245.076467 
L 212.53099 244.552219 
L 212.806026 244.552219 
L 212.806026 244.027971 
L 213.25216 244.027971 
L 213.25216 243.503724 
L 213.505463 243.503724 
L 213.57318 242.455228 
L 213.959489 242.455228 
L 213.959489 241.93098 
L 214.149262 241.93098 
L 214.149262 241.406733 
L 214.4541 241.406733 
L 214.535966 240.358237 
L 214.594642 240.358237 
L 214.699215 238.785494 
L 214.780262 238.785494 
L 214.780262 238.261246 
L 214.903127 238.261246 
L 214.982888 237.212751 
L 215.081491 237.212751 
L 215.094397 236.164255 
L 216.889481 236.164255 
L 216.889481 235.640008 
L 221.676276 235.640008 
L 221.676276 235.11576 
L 222.487566 235.11576 
L 222.59866 234.067265 
L 222.645839 234.067265 
L 222.645839 233.543017 
L 223.075127 233.543017 
L 223.075127 233.018769 
L 223.318752 233.018769 
L 223.37953 231.970274 
L 223.970652 231.970274 
L 223.970652 231.446026 
L 224.205691 231.446026 
L 224.247694 230.397531 
L 224.356886 230.397531 
L 224.441016 228.824787 
L 224.533144 228.824787 
L 224.62801 226.203549 
L 224.658947 226.203549 
L 224.658947 225.679301 
L 224.780071 225.679301 
L 224.824827 224.106558 
L 224.925385 224.106558 
L 224.994515 222.009567 
L 225.137666 222.009567 
L 225.14541 220.961072 
L 225.397567 220.961072 
L 225.444188 219.388328 
L 225.810192 219.388328 
L 225.810192 218.864081 
L 226.080804 218.864081 
L 226.185751 217.291338 
L 226.348253 217.291338 
L 226.415327 216.242842 
L 226.518597 216.242842 
L 226.583145 214.670099 
L 228.61436 214.670099 
L 228.61436 214.145851 
L 228.734159 214.145851 
L 228.734159 213.621604 
L 229.672695 213.621604 
L 229.765509 212.04886 
L 229.811237 212.04886 
L 229.811237 211.524613 
L 230.07561 211.524613 
L 230.180588 210.476117 
L 230.660937 210.476117 
L 230.660937 209.95187 
L 230.843849 209.95187 
L 230.95004 208.903374 
L 230.981048 208.903374 
L 231.072692 206.806383 
L 231.129527 206.806383 
L 231.231256 204.709392 
L 231.277897 204.709392 
L 231.277897 204.185145 
L 231.44839 204.185145 
L 231.531735 202.612401 
L 231.671014 202.612401 
L 231.671014 202.088154 
L 231.795156 202.088154 
L 231.83205 201.039658 
L 232.165969 201.039658 
L 232.165969 200.515411 
L 232.360174 200.515411 
L 232.360174 199.991163 
L 232.482101 199.991163 
L 232.59134 197.894172 
L 232.746032 197.894172 
L 232.815663 196.845677 
L 232.895116 196.845677 
L 232.981333 195.797181 
L 233.120983 195.797181 
L 233.120983 195.272933 
L 233.435661 195.272933 
L 233.461816 193.70019 
L 234.610436 193.70019 
L 234.610436 193.175943 
L 235.007044 193.175943 
L 235.007044 192.651695 
L 235.167379 192.651695 
L 235.167379 192.127447 
L 235.281214 192.127447 
L 235.286222 191.078952 
L 235.452083 191.078952 
L 235.452083 190.554704 
L 235.589173 190.554704 
L 235.589173 190.030456 
L 235.735435 190.030456 
L 235.803094 188.981961 
L 236.078617 188.981961 
L 236.181841 187.933465 
L 236.353155 187.933465 
L 236.446918 186.360722 
L 236.631599 186.360722 
L 236.680759 185.312227 
L 236.772757 185.312227 
L 236.772757 184.787979 
L 237.221573 184.787979 
L 237.221664 183.739484 
L 237.412521 183.739484 
L 237.500424 182.690988 
L 237.571247 182.690988 
L 237.574468 181.642493 
L 237.865559 181.642493 
L 237.865559 181.118245 
L 238.14817 181.118245 
L 238.14817 180.593997 
L 238.456912 180.593997 
L 238.456912 180.06975 
L 238.685742 180.06975 
L 238.685742 179.545502 
L 239.078823 179.545502 
L 239.078823 179.021254 
L 239.659536 179.021254 
L 239.725961 177.448511 
L 239.824728 177.448511 
L 239.92332 175.35152 
L 240.041199 175.35152 
L 240.041199 174.827272 
L 240.191414 174.827272 
L 240.197789 173.778777 
L 240.342842 173.778777 
L 240.342842 173.254529 
L 240.486756 173.254529 
L 240.486756 172.730281 
L 240.89711 172.730281 
L 241.007638 171.157538 
L 241.041229 171.157538 
L 241.041229 170.633291 
L 241.54958 170.633291 
L 241.566748 169.584795 
L 241.740447 169.584795 
L 241.740447 169.060547 
L 241.945664 169.060547 
L 241.945664 168.5363 
L 242.236731 168.5363 
L 242.236731 168.012052 
L 242.35106 168.012052 
L 242.408751 166.963557 
L 242.599044 166.963557 
L 242.697788 164.866566 
L 242.754197 164.866566 
L 242.83876 163.293823 
L 242.903304 163.293823 
L 242.903304 162.769575 
L 243.161154 162.769575 
L 243.230682 161.196832 
L 243.562109 161.196832 
L 243.637708 160.148336 
L 243.701769 160.148336 
L 243.780435 158.575593 
L 244.041274 158.575593 
L 244.061157 157.527098 
L 244.22134 157.527098 
L 244.22134 157.00285 
L 244.437443 157.00285 
L 244.437443 156.478602 
L 244.839639 156.478602 
L 244.851066 155.430107 
L 245.233384 155.430107 
L 245.233384 154.905859 
L 245.45972 154.905859 
L 245.560234 153.333116 
L 245.652337 153.333116 
L 245.652337 152.808868 
L 245.820245 152.808868 
L 245.884624 151.760373 
L 246.343748 151.760373 
L 246.343748 151.236125 
L 246.910802 151.236125 
L 247.019834 150.18763 
L 247.249452 150.18763 
L 247.249452 149.663382 
L 247.535322 149.663382 
L 247.535322 149.139134 
L 247.710453 149.139134 
L 247.710453 148.614886 
L 247.855659 148.614886 
L 247.855659 148.090639 
L 247.995454 148.090639 
L 248.070223 146.517896 
L 248.176026 146.517896 
L 248.176026 145.993648 
L 248.314112 145.993648 
L 248.399141 144.945152 
L 248.663233 144.945152 
L 248.663233 144.420905 
L 248.872227 144.420905 
L 248.872227 143.896657 
L 248.984831 143.896657 
L 248.991415 142.848162 
L 249.131578 142.848162 
L 249.232153 141.799666 
L 249.281701 141.799666 
L 249.281701 141.275418 
L 249.488719 141.275418 
L 249.488719 140.751171 
L 249.628405 140.751171 
L 249.739219 139.702675 
L 249.822807 139.702675 
L 249.903981 138.65418 
L 250.167128 138.65418 
L 250.169922 137.605684 
L 250.285126 137.605684 
L 250.381696 136.032941 
L 250.445396 136.032941 
L 250.445396 135.508693 
L 250.654952 135.508693 
L 250.745815 133.411703 
L 250.789781 133.411703 
L 250.789781 132.887455 
L 251.297562 132.887455 
L 251.302674 131.838959 
L 251.613792 131.838959 
L 251.691044 130.790464 
L 251.744079 130.790464 
L 251.744079 130.266216 
L 251.969431 130.266216 
L 252.00702 129.217721 
L 252.081644 129.217721 
L 252.130766 128.169225 
L 252.212873 128.169225 
L 252.305527 127.12073 
L 252.571747 127.12073 
L 252.582734 126.072235 
L 252.852635 126.072235 
L 252.852635 125.547987 
L 253.055824 125.547987 
L 253.055824 125.023739 
L 253.283235 125.023739 
L 253.283235 124.499491 
L 253.48295 124.499491 
L 253.515427 123.450996 
L 253.764659 123.450996 
L 253.870629 121.354005 
L 253.928828 121.354005 
L 254.010225 120.30551 
L 254.347764 120.30551 
L 254.347764 119.781262 
L 254.531215 119.781262 
L 254.625446 118.732766 
L 255.031824 118.732766 
L 255.126966 117.684271 
L 255.234459 117.684271 
L 255.329222 116.635776 
L 255.37247 116.635776 
L 255.37247 116.111528 
L 255.630449 116.111528 
L 255.669077 115.063032 
L 255.782332 115.063032 
L 255.782332 114.538785 
L 256.061637 114.538785 
L 256.061637 114.014537 
L 256.317849 114.014537 
L 256.317849 113.490289 
L 256.715014 113.490289 
L 256.715014 112.966042 
L 257.06618 112.966042 
L 257.143768 111.393298 
L 257.192262 111.393298 
L 257.252267 110.344803 
L 257.334548 110.344803 
L 257.334548 109.820555 
L 257.71835 109.820555 
L 257.809518 108.247812 
L 257.893705 108.247812 
L 257.945164 107.199317 
L 258.024935 107.199317 
L 258.124186 104.578078 
L 258.215494 104.578078 
L 258.235859 103.529583 
L 258.337699 103.529583 
L 258.367608 101.956839 
L 258.51225 101.956839 
L 258.51225 101.432592 
L 258.625985 101.432592 
L 258.66602 100.384096 
L 258.900879 100.384096 
L 258.900879 99.859849 
L 259.295178 99.859849 
L 259.295178 99.335601 
L 259.489537 99.335601 
L 259.561075 98.287105 
L 259.610289 98.287105 
L 259.671709 96.714362 
L 259.741435 96.714362 
L 259.839656 94.617371 
L 259.923262 94.617371 
L 260.028715 93.568876 
L 260.046727 93.568876 
L 260.046727 93.044628 
L 260.183554 93.044628 
L 260.183554 92.520381 
L 260.62245 92.520381 
L 260.693349 90.42339 
L 260.844743 90.42339 
L 260.844743 89.899142 
L 260.967773 89.899142 
L 260.967773 89.374894 
L 261.281563 89.374894 
L 261.281563 88.850646 
L 261.413075 88.850646 
L 261.420314 87.802151 
L 261.576848 87.802151 
L 261.647144 86.753656 
L 261.750804 86.753656 
L 261.750804 86.229408 
L 262.086 86.229408 
L 262.191198 85.180912 
L 262.207851 85.180912 
L 262.239489 83.083922 
L 262.505857 83.083922 
L 262.505857 82.559674 
L 262.618654 82.559674 
L 262.618654 82.035426 
L 262.829664 82.035426 
L 262.829664 81.511178 
L 262.997911 81.511178 
L 263.106258 79.938435 
L 263.210142 79.938435 
L 263.267499 78.88994 
L 263.372011 78.88994 
L 263.372011 78.365692 
L 263.540725 78.365692 
L 263.540725 77.841444 
L 263.670799 77.841444 
L 263.670799 77.317197 
L 263.911843 77.317197 
L 263.911843 76.792949 
L 264.038611 76.792949 
L 264.038611 76.268701 
L 264.322656 76.268701 
L 264.35233 74.17171 
L 264.768118 74.17171 
L 264.83213 72.598967 
L 265.143694 72.598967 
L 265.144054 71.550472 
L 265.270513 71.550472 
L 265.270513 71.026224 
L 265.420972 71.026224 
L 265.420972 70.501976 
L 265.829844 70.501976 
L 265.829844 69.977729 
L 266.003608 69.977729 
L 266.003608 69.453481 
L 266.116459 69.453481 
L 266.221953 68.404985 
L 266.249639 68.404985 
L 266.249639 67.880738 
L 266.399026 67.880738 
L 266.399026 67.35649 
L 266.60682 67.35649 
L 266.714479 66.307995 
L 266.720716 66.307995 
L 266.720716 65.783747 
L 267.124425 65.783747 
L 267.189227 64.735251 
L 267.36148 64.735251 
L 267.362492 63.686756 
L 267.634883 63.686756 
L 267.727288 62.638261 
L 267.74865 62.638261 
L 267.754462 61.589765 
L 268.07055 61.589765 
L 268.08326 60.54127 
L 268.358565 60.54127 
L 268.468813 58.968526 
L 268.502047 58.968526 
L 268.502047 58.444279 
L 268.617688 58.444279 
L 268.717776 57.395783 
L 268.830019 57.395783 
L 268.932013 56.347288 
L 269.386572 56.347288 
L 269.386572 55.82304 
L 269.574857 55.82304 
L 269.644553 54.250297 
L 269.713926 54.250297 
L 269.713926 53.726049 
L 270.110002 53.726049 
L 270.110002 53.201802 
L 270.408103 53.201802 
L 270.408103 52.677554 
L 270.533335 52.677554 
L 270.533335 52.153306 
L 270.818777 52.153306 
L 270.818777 51.629058 
L 271.166945 51.629058 
L 271.166945 51.104811 
L 271.521016 51.104811 
L 271.521016 50.580563 
L 271.656117 50.580563 
L 271.656117 50.056315 
L 271.957603 50.056315 
L 271.957603 49.532068 
L 272.230681 49.532068 
L 272.230681 49.00782 
L 272.889821 49.00782 
L 272.889821 48.483572 
L 273.177394 48.483572 
L 273.249656 46.910829 
L 273.302512 46.910829 
L 273.302512 46.386581 
L 273.510547 46.386581 
L 273.510547 45.862334 
L 273.686058 45.862334 
L 273.686058 45.338086 
L 273.928958 45.338086 
L 273.928958 44.813838 
L 274.048463 44.813838 
L 274.048463 44.28959 
L 274.178856 44.28959 
L 274.178856 43.765343 
L 274.304298 43.765343 
L 274.304298 43.241095 
L 274.825735 43.241095 
L 274.901102 42.192599 
L 274.965242 42.192599 
L 275.033516 41.144104 
L 275.279212 41.144104 
L 275.279212 40.619856 
L 275.675638 40.619856 
L 275.675638 40.095609 
L 276.249083 40.095609 
L 276.249083 39.571361 
L 276.399455 39.571361 
L 276.399455 39.047113 
L 276.577776 39.047113 
L 276.577776 38.522865 
L 276.791228 38.522865 
L 276.791228 37.998618 
L 277.338276 37.998618 
L 277.338276 37.47437 
L 277.463226 37.47437 
L 277.529494 36.425875 
L 277.599394 36.425875 
L 277.599394 35.901627 
L 277.836845 35.901627 
L 277.836845 35.377379 
L 278.094694 35.377379 
L 278.094694 34.853131 
L 278.232833 34.853131 
L 278.232833 34.328884 
L 278.866853 34.328884 
L 278.875861 33.280388 
L 279.822063 33.280388 
L 279.822063 32.756141 
L 280.056054 32.756141 
L 280.056054 32.231893 
L 280.460903 32.231893 
L 280.460903 31.707645 
L 281.276443 31.707645 
L 281.276443 31.183397 
L 281.535467 31.183397 
L 281.535467 30.65915 
L 282.90871 30.65915 
L 282.90871 30.134902 
L 283.080759 30.134902 
L 283.080759 29.610654 
L 283.26518 29.610654 
L 283.26518 29.086407 
L 283.458246 29.086407 
L 283.458246 28.562159 
L 288.373494 28.562159 
L 288.373494 28.037911 
L 289.522737 28.037911 
L 289.522737 27.513663 
L 333.168 27.513663 
L 333.168 27.513663 
" style="fill:none;stroke:#ff7500;stroke-linecap:square;stroke-width:1.5;"/>
   </g>
   <g id="line2d_54">
    <defs>
     <path d="M 0 -6 
L -1.347084 -1.854102 
L -5.706339 -1.854102 
L -2.179628 0.708204 
L -3.526712 4.854102 
L -0 2.291796 
L 3.526712 4.854102 
L 2.179628 0.708204 
L 5.706339 -1.854102 
L 1.347084 -1.854102 
z
" id="m2a97e5d570" style="stroke:#ff7500;stroke-linejoin:bevel;stroke-width:1.5;"/>
    </defs>
    <g>
     <use style="fill:none;stroke:#ff7500;stroke-linejoin:bevel;stroke-width:1.5;" x="120.849643" xlink:href="#m2a97e5d570" y="282.298055"/>
     <use style="fill:none;stroke:#ff7500;stroke-linejoin:bevel;stroke-width:1.5;" x="179.797999" xlink:href="#m2a97e5d570" y="251.367439"/>
     <use style="fill:none;stroke:#ff7500;stroke-linejoin:bevel;stroke-width:1.5;" x="240.89711" xlink:href="#m2a97e5d570" y="172.730281"/>
     <use style="fill:none;stroke:#ff7500;stroke-linejoin:bevel;stroke-width:1.5;" x="271.656117" xlink:href="#m2a97e5d570" y="50.056315"/>
     <use style="fill:none;stroke:#ff7500;stroke-linejoin:bevel;stroke-width:1.5;" x="289.522737" xlink:href="#m2a97e5d570" y="27.513663"/>
     <use style="fill:none;stroke:#ff7500;stroke-linejoin:bevel;stroke-width:1.5;" x="333.168" xlink:href="#m2a97e5d570" y="27.513663"/>
    </g>
   </g>
   <g id="line2d_55">
    <path style="fill:none;stroke:#ff7500;stroke-linecap:square;stroke-width:1.5;"/>
    <g/>
   </g>
   <g id="line2d_56">
    <path clip-path="url(#pf167dac8eb)" d="M 211.44443 248.221953 
" style="fill:none;stroke:#ff7500;stroke-linecap:square;stroke-width:1.5;"/>
    <defs>
     <path d="M -12 12 
L 12 -12 
M -12 -12 
L 12 12 
" id="me716af44bb" style="stroke:#ff7500;"/>
    </defs>
    <g clip-path="url(#pf167dac8eb)">
     <use style="fill:#ff7500;stroke:#ff7500;" x="211.44443" xlink:href="#me716af44bb" y="248.221953"/>
    </g>
   </g>
   <g id="line2d_57">
    <path d="M 333.168 258.18266 
L 363.64328 289.532673 
" style="fill:none;stroke:#000080;stroke-linecap:square;stroke-width:1.5;"/>
    <g>
     <use style="fill:none;stroke:#000080;stroke-width:1.5;" x="333.168" xlink:href="#m69efa1bf09" y="258.18266"/>
     <use style="fill:none;stroke:#000080;stroke-width:1.5;" x="363.64328" xlink:href="#m69efa1bf09" y="289.532673"/>
    </g>
   </g>
   <g id="line2d_58">
    <path d="M 333.168 247.697705 
L 363.64328 203.975446 
" style="fill:none;stroke:#ff00ff;stroke-linecap:square;stroke-width:1.5;"/>
    <g>
     <use style="fill:none;stroke:#ff00ff;stroke-linejoin:miter;stroke-width:1.5;" x="333.168" xlink:href="#m2c2611a259" y="247.697705"/>
     <use style="fill:none;stroke:#ff00ff;stroke-linejoin:miter;stroke-width:1.5;" x="363.64328" xlink:href="#m2c2611a259" y="203.975446"/>
    </g>
   </g>
   <g id="line2d_59">
    <path d="M 333.168 27.513663 
L 363.64328 118.418218 
" style="fill:none;stroke:#ff7500;stroke-linecap:square;stroke-width:1.5;"/>
    <g>
     <use style="fill:none;stroke:#ff7500;stroke-linejoin:bevel;stroke-width:1.5;" x="333.168" xlink:href="#m2a97e5d570" y="27.513663"/>
     <use style="fill:none;stroke:#ff7500;stroke-linejoin:bevel;stroke-width:1.5;" x="363.64328" xlink:href="#m2a97e5d570" y="118.418218"/>
    </g>
   </g>
   <g id="line2d_60">
    <path d="M 333.168 294.88 
L 333.168 27.513663 
" style="fill:none;stroke:#000000;stroke-linecap:square;stroke-width:1.5;"/>
   </g>
   <g id="patch_3">
    <path d="M 56.12 294.88 
L 56.12 24.84 
" style="fill:none;stroke:#000000;stroke-linecap:square;stroke-linejoin:miter;stroke-width:0.8;"/>
   </g>
   <g id="patch_4">
    <path d="M 333.168 294.88 
L 333.168 24.84 
" style="fill:none;stroke:#000000;stroke-linecap:square;stroke-linejoin:miter;stroke-width:0.8;"/>
   </g>
   <g id="patch_5">
    <path d="M 56.12 294.88 
L 333.168 294.88 
" style="fill:none;stroke:#000000;stroke-linecap:square;stroke-linejoin:miter;stroke-width:0.8;"/>
   </g>
   <g id="patch_6">
    <path d="M 56.12 24.84 
L 333.168 24.84 
" style="fill:none;stroke:#000000;stroke-linecap:square;stroke-linejoin:miter;stroke-width:0.8;"/>
   </g>
   <g id="text_13">
    <!-- CMA ES PPM -->
    <defs>
     <path d="M 64.40625 67.28125 
L 64.40625 56.890625 
Q 59.421875 61.53125 53.78125 63.8125 
Q 48.140625 66.109375 41.796875 66.109375 
Q 29.296875 66.109375 22.65625 58.46875 
Q 16.015625 50.828125 16.015625 36.375 
Q 16.015625 21.96875 22.65625 14.328125 
Q 29.296875 6.6875 41.796875 6.6875 
Q 48.140625 6.6875 53.78125 8.984375 
Q 59.421875 11.28125 64.40625 15.921875 
L 64.40625 5.609375 
Q 59.234375 2.09375 53.4375 0.328125 
Q 47.65625 -1.421875 41.21875 -1.421875 
Q 24.65625 -1.421875 15.125 8.703125 
Q 5.609375 18.84375 5.609375 36.375 
Q 5.609375 53.953125 15.125 64.078125 
Q 24.65625 74.21875 41.21875 74.21875 
Q 47.75 74.21875 53.53125 72.484375 
Q 59.328125 70.75 64.40625 67.28125 
z
" id="DejaVuSans-43"/>
     <path d="M 9.8125 72.90625 
L 24.515625 72.90625 
L 43.109375 23.296875 
L 61.8125 72.90625 
L 76.515625 72.90625 
L 76.515625 0 
L 66.890625 0 
L 66.890625 64.015625 
L 48.09375 14.015625 
L 38.1875 14.015625 
L 19.390625 64.015625 
L 19.390625 0 
L 9.8125 0 
z
" id="DejaVuSans-4d"/>
     <path d="M 34.1875 63.1875 
L 20.796875 26.90625 
L 47.609375 26.90625 
z
M 28.609375 72.90625 
L 39.796875 72.90625 
L 67.578125 0 
L 57.328125 0 
L 50.6875 18.703125 
L 17.828125 18.703125 
L 11.1875 0 
L 0.78125 0 
z
" id="DejaVuSans-41"/>
     <path d="M 9.8125 72.90625 
L 55.90625 72.90625 
L 55.90625 64.59375 
L 19.671875 64.59375 
L 19.671875 43.015625 
L 54.390625 43.015625 
L 54.390625 34.71875 
L 19.671875 34.71875 
L 19.671875 8.296875 
L 56.78125 8.296875 
L 56.78125 0 
L 9.8125 0 
z
" id="DejaVuSans-45"/>
     <path d="M 53.515625 70.515625 
L 53.515625 60.890625 
Q 47.90625 63.578125 42.921875 64.890625 
Q 37.9375 66.21875 33.296875 66.21875 
Q 25.25 66.21875 20.875 63.09375 
Q 16.5 59.96875 16.5 54.203125 
Q 16.5 49.359375 19.40625 46.890625 
Q 22.3125 44.4375 30.421875 42.921875 
L 36.375 41.703125 
Q 47.40625 39.59375 52.65625 34.296875 
Q 57.90625 29 57.90625 20.125 
Q 57.90625 9.515625 50.796875 4.046875 
Q 43.703125 -1.421875 29.984375 -1.421875 
Q 24.8125 -1.421875 18.96875 -0.25 
Q 13.140625 0.921875 6.890625 3.21875 
L 6.890625 13.375 
Q 12.890625 10.015625 18.65625 8.296875 
Q 24.421875 6.59375 29.984375 6.59375 
Q 38.421875 6.59375 43.015625 9.90625 
Q 47.609375 13.234375 47.609375 19.390625 
Q 47.609375 24.75 44.3125 27.78125 
Q 41.015625 30.8125 33.5 32.328125 
L 27.484375 33.5 
Q 16.453125 35.6875 11.515625 40.375 
Q 6.59375 45.0625 6.59375 53.421875 
Q 6.59375 63.09375 13.40625 68.65625 
Q 20.21875 74.21875 32.171875 74.21875 
Q 37.3125 74.21875 42.625 73.28125 
Q 47.953125 72.359375 53.515625 70.515625 
z
" id="DejaVuSans-53"/>
     <path d="M 19.671875 64.796875 
L 19.671875 37.40625 
L 32.078125 37.40625 
Q 38.96875 37.40625 42.71875 40.96875 
Q 46.484375 44.53125 46.484375 51.125 
Q 46.484375 57.671875 42.71875 61.234375 
Q 38.96875 64.796875 32.078125 64.796875 
z
M 9.8125 72.90625 
L 32.078125 72.90625 
Q 44.34375 72.90625 50.609375 67.359375 
Q 56.890625 61.8125 56.890625 51.125 
Q 56.890625 40.328125 50.609375 34.8125 
Q 44.34375 29.296875 32.078125 29.296875 
L 19.671875 29.296875 
L 19.671875 0 
L 9.8125 0 
z
" id="DejaVuSans-50"/>
    </defs>
    <g transform="translate(369.18424 294.223611)scale(0.17 -0.17)">
     <use xlink:href="#DejaVuSans-43"/>
     <use x="69.824219" xlink:href="#DejaVuSans-4d"/>
     <use x="156.103516" xlink:href="#DejaVuSans-41"/>
     <use x="224.511719" xlink:href="#DejaVuSans-20"/>
     <use x="256.298828" xlink:href="#DejaVuSans-45"/>
     <use x="319.482422" xlink:href="#DejaVuSans-53"/>
     <use x="382.958984" xlink:href="#DejaVuSans-20"/>
     <use x="414.746094" xlink:href="#DejaVuSans-50"/>
     <use x="475.048828" xlink:href="#DejaVuSans-50"/>
     <use x="535.351562" xlink:href="#DejaVuSans-4d"/>
    </g>
   </g>
   <g id="text_14">
    <!-- CMA ES CSA -->
    <g transform="translate(369.18424 208.666383)scale(0.17 -0.17)">
     <use xlink:href="#DejaVuSans-43"/>
     <use x="69.824219" xlink:href="#DejaVuSans-4d"/>
     <use x="156.103516" xlink:href="#DejaVuSans-41"/>
     <use x="224.511719" xlink:href="#DejaVuSans-20"/>
     <use x="256.298828" xlink:href="#DejaVuSans-45"/>
     <use x="319.482422" xlink:href="#DejaVuSans-53"/>
     <use x="382.958984" xlink:href="#DejaVuSans-20"/>
     <use x="414.746094" xlink:href="#DejaVuSans-43"/>
     <use x="484.570312" xlink:href="#DejaVuSans-53"/>
     <use x="548.0625" xlink:href="#DejaVuSans-41"/>
    </g>
   </g>
   <g id="text_15">
    <!-- ppmf-new -->
    <defs>
     <path d="M 4.203125 54.6875 
L 13.1875 54.6875 
L 24.421875 12.015625 
L 35.59375 54.6875 
L 46.1875 54.6875 
L 57.421875 12.015625 
L 68.609375 54.6875 
L 77.59375 54.6875 
L 63.28125 0 
L 52.6875 0 
L 40.921875 44.828125 
L 29.109375 0 
L 18.5 0 
z
" id="DejaVuSans-77"/>
    </defs>
    <g transform="translate(369.18424 123.109155)scale(0.17 -0.17)">
     <use xlink:href="#DejaVuSans-70"/>
     <use x="63.476562" xlink:href="#DejaVuSans-70"/>
     <use x="126.953125" xlink:href="#DejaVuSans-6d"/>
     <use x="224.365234" xlink:href="#DejaVuSans-66"/>
     <use x="259.492188" xlink:href="#DejaVuSans-2d"/>
     <use x="295.576172" xlink:href="#DejaVuSans-6e"/>
     <use x="358.955078" xlink:href="#DejaVuSans-65"/>
     <use x="420.478516" xlink:href="#DejaVuSans-77"/>
    </g>
   </g>
   <g id="text_16">
    <!-- best 2009 -->
    <defs>
     <path d="M 48.6875 27.296875 
Q 48.6875 37.203125 44.609375 42.84375 
Q 40.53125 48.484375 33.40625 48.484375 
Q 26.265625 48.484375 22.1875 42.84375 
Q 18.109375 37.203125 18.109375 27.296875 
Q 18.109375 17.390625 22.1875 11.75 
Q 26.265625 6.109375 33.40625 6.109375 
Q 40.53125 6.109375 44.609375 11.75 
Q 48.6875 17.390625 48.6875 27.296875 
z
M 18.109375 46.390625 
Q 20.953125 51.265625 25.265625 53.625 
Q 29.59375 56 35.59375 56 
Q 45.5625 56 51.78125 48.09375 
Q 58.015625 40.1875 58.015625 27.296875 
Q 58.015625 14.40625 51.78125 6.484375 
Q 45.5625 -1.421875 35.59375 -1.421875 
Q 29.59375 -1.421875 25.265625 0.953125 
Q 20.953125 3.328125 18.109375 8.203125 
L 18.109375 0 
L 9.078125 0 
L 9.078125 75.984375 
L 18.109375 75.984375 
z
" id="DejaVuSans-62"/>
     <path d="M 10.984375 1.515625 
L 10.984375 10.5 
Q 14.703125 8.734375 18.5 7.8125 
Q 22.3125 6.890625 25.984375 6.890625 
Q 35.75 6.890625 40.890625 13.453125 
Q 46.046875 20.015625 46.78125 33.40625 
Q 43.953125 29.203125 39.59375 26.953125 
Q 35.25 24.703125 29.984375 24.703125 
Q 19.046875 24.703125 12.671875 31.3125 
Q 6.296875 37.9375 6.296875 49.421875 
Q 6.296875 60.640625 12.9375 67.421875 
Q 19.578125 74.21875 30.609375 74.21875 
Q 43.265625 74.21875 49.921875 64.515625 
Q 56.59375 54.828125 56.59375 36.375 
Q 56.59375 19.140625 48.40625 8.859375 
Q 40.234375 -1.421875 26.421875 -1.421875 
Q 22.703125 -1.421875 18.890625 -0.6875 
Q 15.09375 0.046875 10.984375 1.515625 
z
M 30.609375 32.421875 
Q 37.25 32.421875 41.125 36.953125 
Q 45.015625 41.5 45.015625 49.421875 
Q 45.015625 57.28125 41.125 61.84375 
Q 37.25 66.40625 30.609375 66.40625 
Q 23.96875 66.40625 20.09375 61.84375 
Q 16.21875 57.28125 16.21875 49.421875 
Q 16.21875 41.5 20.09375 36.953125 
Q 23.96875 32.421875 30.609375 32.421875 
z
" id="DejaVuSans-39"/>
    </defs>
    <g transform="translate(369.18424 37.551928)scale(0.17 -0.17)">
     <use xlink:href="#DejaVuSans-62"/>
     <use x="63.476562" xlink:href="#DejaVuSans-65"/>
     <use x="125" xlink:href="#DejaVuSans-73"/>
     <use x="177.099609" xlink:href="#DejaVuSans-74"/>
     <use x="216.308594" xlink:href="#DejaVuSans-20"/>
     <use x="248.095703" xlink:href="#DejaVuSans-32"/>
     <use x="311.71875" xlink:href="#DejaVuSans-30"/>
     <use x="375.341797" xlink:href="#DejaVuSans-30"/>
     <use x="438.964844" xlink:href="#DejaVuSans-39"/>
    </g>
   </g>
   <g id="text_17">
    <!-- bbob f3, 5-D -->
    <defs>
     <path d="M 40.578125 39.3125 
Q 47.65625 37.796875 51.625 33 
Q 55.609375 28.21875 55.609375 21.1875 
Q 55.609375 10.40625 48.1875 4.484375 
Q 40.765625 -1.421875 27.09375 -1.421875 
Q 22.515625 -1.421875 17.65625 -0.515625 
Q 12.796875 0.390625 7.625 2.203125 
L 7.625 11.71875 
Q 11.71875 9.328125 16.59375 8.109375 
Q 21.484375 6.890625 26.8125 6.890625 
Q 36.078125 6.890625 40.9375 10.546875 
Q 45.796875 14.203125 45.796875 21.1875 
Q 45.796875 27.640625 41.28125 31.265625 
Q 36.765625 34.90625 28.71875 34.90625 
L 20.21875 34.90625 
L 20.21875 43.015625 
L 29.109375 43.015625 
Q 36.375 43.015625 40.234375 45.921875 
Q 44.09375 48.828125 44.09375 54.296875 
Q 44.09375 59.90625 40.109375 62.90625 
Q 36.140625 65.921875 28.71875 65.921875 
Q 24.65625 65.921875 20.015625 65.03125 
Q 15.375 64.15625 9.8125 62.3125 
L 9.8125 71.09375 
Q 15.4375 72.65625 20.34375 73.4375 
Q 25.25 74.21875 29.59375 74.21875 
Q 40.828125 74.21875 47.359375 69.109375 
Q 53.90625 64.015625 53.90625 55.328125 
Q 53.90625 49.265625 50.4375 45.09375 
Q 46.96875 40.921875 40.578125 39.3125 
z
" id="DejaVuSans-33"/>
     <path d="M 10.796875 72.90625 
L 49.515625 72.90625 
L 49.515625 64.59375 
L 19.828125 64.59375 
L 19.828125 46.734375 
Q 21.96875 47.46875 24.109375 47.828125 
Q 26.265625 48.1875 28.421875 48.1875 
Q 40.625 48.1875 47.75 41.5 
Q 54.890625 34.8125 54.890625 23.390625 
Q 54.890625 11.625 47.5625 5.09375 
Q 40.234375 -1.421875 26.90625 -1.421875 
Q 22.3125 -1.421875 17.546875 -0.640625 
Q 12.796875 0.140625 7.71875 1.703125 
L 7.71875 11.625 
Q 12.109375 9.234375 16.796875 8.0625 
Q 21.484375 6.890625 26.703125 6.890625 
Q 35.15625 6.890625 40.078125 11.328125 
Q 45.015625 15.765625 45.015625 23.390625 
Q 45.015625 31 40.078125 35.4375 
Q 35.15625 39.890625 26.703125 39.890625 
Q 22.75 39.890625 18.8125 39.015625 
Q 14.890625 38.140625 10.796875 36.28125 
z
" id="DejaVuSans-35"/>
     <path d="M 19.671875 64.796875 
L 19.671875 8.109375 
L 31.59375 8.109375 
Q 46.6875 8.109375 53.6875 14.9375 
Q 60.6875 21.78125 60.6875 36.53125 
Q 60.6875 51.171875 53.6875 57.984375 
Q 46.6875 64.796875 31.59375 64.796875 
z
M 9.8125 72.90625 
L 30.078125 72.90625 
Q 51.265625 72.90625 61.171875 64.09375 
Q 71.09375 55.28125 71.09375 36.53125 
Q 71.09375 17.671875 61.125 8.828125 
Q 51.171875 0 30.078125 0 
L 9.8125 0 
z
" id="DejaVuSans-44"/>
    </defs>
    <g transform="translate(58.89048 35.290806)scale(0.102 -0.102)">
     <use xlink:href="#DejaVuSans-62"/>
     <use x="63.476562" xlink:href="#DejaVuSans-62"/>
     <use x="126.953125" xlink:href="#DejaVuSans-6f"/>
     <use x="188.134766" xlink:href="#DejaVuSans-62"/>
     <use x="251.611328" xlink:href="#DejaVuSans-20"/>
     <use x="283.398438" xlink:href="#DejaVuSans-66"/>
     <use x="318.603516" xlink:href="#DejaVuSans-33"/>
     <use x="382.226562" xlink:href="#DejaVuSans-2c"/>
     <use x="414.013672" xlink:href="#DejaVuSans-20"/>
     <use x="445.800781" xlink:href="#DejaVuSans-35"/>
     <use x="509.423828" xlink:href="#DejaVuSans-2d"/>
     <use x="545.507812" xlink:href="#DejaVuSans-44"/>
    </g>
    <!-- 51 targets: 100..1e-08 -->
    <defs>
     <path d="M 11.71875 12.40625 
L 22.015625 12.40625 
L 22.015625 0 
L 11.71875 0 
z
M 11.71875 51.703125 
L 22.015625 51.703125 
L 22.015625 39.3125 
L 11.71875 39.3125 
z
" id="DejaVuSans-3a"/>
    </defs>
    <g transform="translate(58.89048 46.712575)scale(0.102 -0.102)">
     <use xlink:href="#DejaVuSans-35"/>
     <use x="63.623047" xlink:href="#DejaVuSans-31"/>
     <use x="127.246094" xlink:href="#DejaVuSans-20"/>
     <use x="159.033203" xlink:href="#DejaVuSans-74"/>
     <use x="198.242188" xlink:href="#DejaVuSans-61"/>
     <use x="259.521484" xlink:href="#DejaVuSans-72"/>
     <use x="300.619141" xlink:href="#DejaVuSans-67"/>
     <use x="364.095703" xlink:href="#DejaVuSans-65"/>
     <use x="425.619141" xlink:href="#DejaVuSans-74"/>
     <use x="464.828125" xlink:href="#DejaVuSans-73"/>
     <use x="516.927734" xlink:href="#DejaVuSans-3a"/>
     <use x="550.619141" xlink:href="#DejaVuSans-20"/>
     <use x="582.40625" xlink:href="#DejaVuSans-31"/>
     <use x="646.029297" xlink:href="#DejaVuSans-30"/>
     <use x="709.652344" xlink:href="#DejaVuSans-30"/>
     <use x="773.275391" xlink:href="#DejaVuSans-2e"/>
     <use x="805.0625" xlink:href="#DejaVuSans-2e"/>
     <use x="836.849609" xlink:href="#DejaVuSans-31"/>
     <use x="900.472656" xlink:href="#DejaVuSans-65"/>
     <use x="961.996094" xlink:href="#DejaVuSans-2d"/>
     <use x="998.080078" xlink:href="#DejaVuSans-30"/>
     <use x="1061.703125" xlink:href="#DejaVuSans-38"/>
    </g>
    <!-- 15 instances -->
    <g transform="translate(58.89048 58.134344)scale(0.102 -0.102)">
     <use xlink:href="#DejaVuSans-31"/>
     <use x="63.623047" xlink:href="#DejaVuSans-35"/>
     <use x="127.246094" xlink:href="#DejaVuSans-20"/>
     <use x="159.033203" xlink:href="#DejaVuSans-69"/>
     <use x="186.816406" xlink:href="#DejaVuSans-6e"/>
     <use x="250.195312" xlink:href="#DejaVuSans-73"/>
     <use x="302.294922" xlink:href="#DejaVuSans-74"/>
     <use x="341.503906" xlink:href="#DejaVuSans-61"/>
     <use x="402.783203" xlink:href="#DejaVuSans-6e"/>
     <use x="466.162109" xlink:href="#DejaVuSans-63"/>
     <use x="521.142578" xlink:href="#DejaVuSans-65"/>
     <use x="582.666016" xlink:href="#DejaVuSans-73"/>
    </g>
   </g>
   <g id="text_18">
    <!-- v0.0.0 -->
    <g style="fill:#808080;" transform="translate(178.96275 290.099912)scale(0.1 -0.1)">
     <use xlink:href="#DejaVuSans-76"/>
     <use x="59.179688" xlink:href="#DejaVuSans-30"/>
     <use x="122.802734" xlink:href="#DejaVuSans-2e"/>
     <use x="154.589844" xlink:href="#DejaVuSans-30"/>
     <use x="218.212891" xlink:href="#DejaVuSans-2e"/>
     <use x="250" xlink:href="#DejaVuSans-30"/>
    </g>
   </g>
   <g id="text_19">
    <!-- 3 Rastrigin separable -->
    <defs>
     <path d="M 44.390625 34.1875 
Q 47.5625 33.109375 50.5625 29.59375 
Q 53.5625 26.078125 56.59375 19.921875 
L 66.609375 0 
L 56 0 
L 46.6875 18.703125 
Q 43.0625 26.03125 39.671875 28.421875 
Q 36.28125 30.8125 30.421875 30.8125 
L 19.671875 30.8125 
L 19.671875 0 
L 9.8125 0 
L 9.8125 72.90625 
L 32.078125 72.90625 
Q 44.578125 72.90625 50.734375 67.671875 
Q 56.890625 62.453125 56.890625 51.90625 
Q 56.890625 45.015625 53.6875 40.46875 
Q 50.484375 35.9375 44.390625 34.1875 
z
M 19.671875 64.796875 
L 19.671875 38.921875 
L 32.078125 38.921875 
Q 39.203125 38.921875 42.84375 42.21875 
Q 46.484375 45.515625 46.484375 51.90625 
Q 46.484375 58.296875 42.84375 61.546875 
Q 39.203125 64.796875 32.078125 64.796875 
z
" id="DejaVuSans-52"/>
    </defs>
    <g transform="translate(88.011188 18.84)scale(0.2 -0.2)">
     <use xlink:href="#DejaVuSans-33"/>
     <use x="63.623047" xlink:href="#DejaVuSans-20"/>
     <use x="95.410156" xlink:href="#DejaVuSans-52"/>
     <use x="164.861328" xlink:href="#DejaVuSans-61"/>
     <use x="226.140625" xlink:href="#DejaVuSans-73"/>
     <use x="278.240234" xlink:href="#DejaVuSans-74"/>
     <use x="317.449219" xlink:href="#DejaVuSans-72"/>
     <use x="358.5625" xlink:href="#DejaVuSans-69"/>
     <use x="386.345703" xlink:href="#DejaVuSans-67"/>
     <use x="449.822266" xlink:href="#DejaVuSans-69"/>
     <use x="477.605469" xlink:href="#DejaVuSans-6e"/>
     <use x="540.984375" xlink:href="#DejaVuSans-20"/>
     <use x="572.771484" xlink:href="#DejaVuSans-73"/>
     <use x="624.871094" xlink:href="#DejaVuSans-65"/>
     <use x="686.394531" xlink:href="#DejaVuSans-70"/>
     <use x="749.871094" xlink:href="#DejaVuSans-61"/>
     <use x="811.150391" xlink:href="#DejaVuSans-72"/>
     <use x="852.263672" xlink:href="#DejaVuSans-61"/>
     <use x="913.542969" xlink:href="#DejaVuSans-62"/>
     <use x="977.019531" xlink:href="#DejaVuSans-6c"/>
     <use x="1004.802734" xlink:href="#DejaVuSans-65"/>
    </g>
   </g>
  </g>
 </g>
 <defs>
  <clipPath id="pf167dac8eb">
   <rect height="270.04" width="277.048" x="56.12" y="24.84"/>
  </clipPath>
 </defs>
</svg>
