<?xml version="1.0" encoding="utf-8" standalone="no"?>
<!DOCTYPE svg PUBLIC "-//W3C//DTD SVG 1.1//EN"
  "http://www.w3.org/Graphics/SVG/1.1/DTD/svg11.dtd">
<!-- Created with matplotlib (http://matplotlib.org/) -->
<svg height="345pt" version="1.1" viewBox="0 0 460 345" width="460pt" xmlns="http://www.w3.org/2000/svg" xmlns:xlink="http://www.w3.org/1999/xlink">
 <defs>
  <style type="text/css">
*{stroke-linecap:butt;stroke-linejoin:round;}
  </style>
 </defs>
 <g id="figure_1">
  <g id="patch_1">
   <path d="M 0 345.6 
L 460.8 345.6 
L 460.8 0 
L 0 0 
z
" style="fill:#ffffff;"/>
  </g>
  <g id="axes_1">
   <g id="patch_2">
    <path d="M 56.12 294.88 
L 333.168 294.88 
L 333.168 24.84 
L 56.12 24.84 
z
" style="fill:#ffffff;"/>
   </g>
   <g id="line2d_1">
    <path d="M 95.263107 294.88 
L 95.263107 289.637523 
L 96.901359 289.637523 
L 96.901359 284.395046 
L 99.395756 284.395046 
L 99.395756 279.152568 
L 108.245319 279.152568 
L 108.245319 273.910091 
L 109.560502 273.910091 
L 109.560502 268.667614 
L 123.609766 268.667614 
L 123.609766 263.425137 
L 132.46792 263.425137 
L 132.46792 258.18266 
L 136.879628 258.18266 
L 136.879628 252.940182 
L 140.361591 252.940182 
L 140.361591 247.697705 
L 142.975116 247.697705 
L 142.975116 242.455228 
L 144.68809 242.455228 
L 144.68809 237.212751 
L 145.479795 237.212751 
L 145.479795 231.970274 
L 146.284265 231.970274 
L 146.284265 226.727797 
L 147.052761 226.727797 
L 147.052761 221.485319 
L 147.856707 221.485319 
L 147.856707 216.242842 
L 148.699674 216.242842 
L 148.699674 211.000365 
L 149.595007 211.000365 
L 149.595007 205.757888 
L 150.607035 205.757888 
L 150.607035 200.515411 
L 151.65748 200.515411 
L 151.65748 195.272933 
L 152.787611 195.272933 
L 152.787611 190.030456 
L 153.959949 190.030456 
L 153.959949 184.787979 
L 155.215743 184.787979 
L 155.215743 179.545502 
L 182.424692 179.545502 
L 182.424692 174.303025 
L 183.447908 174.303025 
L 183.447908 169.060547 
L 184.391923 169.060547 
L 184.391923 163.81807 
L 184.94282 163.81807 
L 184.94282 158.575593 
L 185.396041 158.575593 
L 185.396041 153.333116 
L 185.894683 153.333116 
L 185.894683 148.090639 
L 186.400572 148.090639 
L 186.400572 142.848162 
L 187.019307 142.848162 
L 187.019307 137.605684 
L 187.587679 137.605684 
L 187.587679 132.363207 
L 188.329052 132.363207 
L 188.329052 127.12073 
L 188.903863 127.12073 
L 188.903863 121.878253 
L 189.532673 121.878253 
L 189.532673 116.635776 
L 189.933735 116.635776 
L 189.933735 111.393298 
L 190.339098 111.393298 
L 190.339098 106.150821 
L 190.726761 106.150821 
L 190.726761 100.908344 
L 191.078471 100.908344 
L 191.078471 95.665867 
L 191.42231 95.665867 
L 191.42231 90.42339 
L 191.728359 90.42339 
L 191.728359 85.180912 
L 192.053875 85.180912 
L 192.053875 79.938435 
L 192.329087 79.938435 
L 192.329087 74.695958 
L 192.631309 74.695958 
L 192.631309 69.453481 
L 192.946016 69.453481 
L 192.946016 64.211004 
L 193.276414 64.211004 
L 193.276414 58.968526 
L 193.65306 58.968526 
L 193.65306 53.726049 
L 193.962207 53.726049 
L 193.962207 48.483572 
L 194.299338 48.483572 
L 194.299338 43.241095 
L 194.689312 43.241095 
L 194.689312 37.998618 
L 194.988253 37.998618 
L 194.988253 32.756141 
L 195.303804 32.756141 
L 195.303804 27.513663 
L 333.168 27.513663 
" style="fill:none;stroke:#f5deb3;stroke-linecap:square;stroke-width:4;"/>
   </g>
   <g id="line2d_2">
    <defs>
     <path d="M -0 7.778175 
L 7.778175 0 
L 0 -7.778175 
L -7.778175 -0 
z
" id="m900ddb5b06" style="stroke:#f5deb3;stroke-linejoin:miter;stroke-width:1.5;"/>
    </defs>
    <g>
     <use style="fill:#f5deb3;stroke:#f5deb3;stroke-linejoin:miter;stroke-width:1.5;" x="132.46792" xlink:href="#m900ddb5b06" y="263.425137"/>
     <use style="fill:#f5deb3;stroke:#f5deb3;stroke-linejoin:miter;stroke-width:1.5;" x="183.447908" xlink:href="#m900ddb5b06" y="174.303025"/>
     <use style="fill:#f5deb3;stroke:#f5deb3;stroke-linejoin:miter;stroke-width:1.5;" x="195.303804" xlink:href="#m900ddb5b06" y="32.756141"/>
     <use style="fill:#f5deb3;stroke:#f5deb3;stroke-linejoin:miter;stroke-width:1.5;" x="195.303804" xlink:href="#m900ddb5b06" y="27.513663"/>
     <use style="fill:#f5deb3;stroke:#f5deb3;stroke-linejoin:miter;stroke-width:1.5;" x="333.168" xlink:href="#m900ddb5b06" y="27.513663"/>
    </g>
   </g>
   <g id="line2d_3">
    <path style="fill:none;stroke:#f5deb3;stroke-linecap:square;stroke-width:4;"/>
    <g/>
   </g>
   <g id="line2d_4">
    <path d="M 333.168 27.513663 
L 363.64328 32.86099 
" style="fill:none;stroke:#f5deb3;stroke-linecap:square;stroke-width:4;"/>
    <g>
     <use style="fill:#f5deb3;stroke:#f5deb3;stroke-linejoin:miter;stroke-width:1.5;" x="333.168" xlink:href="#m900ddb5b06" y="27.513663"/>
     <use style="fill:#f5deb3;stroke:#f5deb3;stroke-linejoin:miter;stroke-width:1.5;" x="363.64328" xlink:href="#m900ddb5b06" y="32.86099"/>
    </g>
   </g>
   <g id="matplotlib.axis_1">
    <g id="xtick_1">
     <g id="line2d_5">
      <path clip-path="url(#pbcd463bffc)" d="M 56.12 294.88 
L 56.12 24.84 
" style="fill:none;stroke:#b0b0b0;stroke-linecap:square;stroke-width:0.8;"/>
     </g>
     <g id="line2d_6">
      <defs>
       <path d="M 0 0 
L 0 3.5 
" id="m404c2bd311" style="stroke:#000000;stroke-width:0.8;"/>
      </defs>
      <g>
       <use style="stroke:#000000;stroke-width:0.8;" x="56.12" xlink:href="#m404c2bd311" y="294.88"/>
      </g>
     </g>
     <g id="text_1">
      <!-- 0 -->
      <defs>
       <path d="M 31.78125 66.40625 
Q 24.171875 66.40625 20.328125 58.90625 
Q 16.5 51.421875 16.5 36.375 
Q 16.5 21.390625 20.328125 13.890625 
Q 24.171875 6.390625 31.78125 6.390625 
Q 39.453125 6.390625 43.28125 13.890625 
Q 47.125 21.390625 47.125 36.375 
Q 47.125 51.421875 43.28125 58.90625 
Q 39.453125 66.40625 31.78125 66.40625 
z
M 31.78125 74.21875 
Q 44.046875 74.21875 50.515625 64.515625 
Q 56.984375 54.828125 56.984375 36.375 
Q 56.984375 17.96875 50.515625 8.265625 
Q 44.046875 -1.421875 31.78125 -1.421875 
Q 19.53125 -1.421875 13.0625 8.265625 
Q 6.59375 17.96875 6.59375 36.375 
Q 6.59375 54.828125 13.0625 64.515625 
Q 19.53125 74.21875 31.78125 74.21875 
z
" id="DejaVuSans-30"/>
      </defs>
      <g transform="translate(49.7575 317.076875)scale(0.2 -0.2)">
       <use xlink:href="#DejaVuSans-30"/>
      </g>
     </g>
    </g>
    <g id="xtick_2">
     <g id="line2d_7">
      <path clip-path="url(#pbcd463bffc)" d="M 135.276571 294.88 
L 135.276571 24.84 
" style="fill:none;stroke:#b0b0b0;stroke-linecap:square;stroke-width:0.8;"/>
     </g>
     <g id="line2d_8">
      <g>
       <use style="stroke:#000000;stroke-width:0.8;" x="135.276571" xlink:href="#m404c2bd311" y="294.88"/>
      </g>
     </g>
     <g id="text_2">
      <!-- 2 -->
      <defs>
       <path d="M 19.1875 8.296875 
L 53.609375 8.296875 
L 53.609375 0 
L 7.328125 0 
L 7.328125 8.296875 
Q 12.9375 14.109375 22.625 23.890625 
Q 32.328125 33.6875 34.8125 36.53125 
Q 39.546875 41.84375 41.421875 45.53125 
Q 43.3125 49.21875 43.3125 52.78125 
Q 43.3125 58.59375 39.234375 62.25 
Q 35.15625 65.921875 28.609375 65.921875 
Q 23.96875 65.921875 18.8125 64.3125 
Q 13.671875 62.703125 7.8125 59.421875 
L 7.8125 69.390625 
Q 13.765625 71.78125 18.9375 73 
Q 24.125 74.21875 28.421875 74.21875 
Q 39.75 74.21875 46.484375 68.546875 
Q 53.21875 62.890625 53.21875 53.421875 
Q 53.21875 48.921875 51.53125 44.890625 
Q 49.859375 40.875 45.40625 35.40625 
Q 44.1875 33.984375 37.640625 27.21875 
Q 31.109375 20.453125 19.1875 8.296875 
z
" id="DejaVuSans-32"/>
      </defs>
      <g transform="translate(128.914071 317.076875)scale(0.2 -0.2)">
       <use xlink:href="#DejaVuSans-32"/>
      </g>
     </g>
    </g>
    <g id="xtick_3">
     <g id="line2d_9">
      <path clip-path="url(#pbcd463bffc)" d="M 214.433143 294.88 
L 214.433143 24.84 
" style="fill:none;stroke:#b0b0b0;stroke-linecap:square;stroke-width:0.8;"/>
     </g>
     <g id="line2d_10">
      <g>
       <use style="stroke:#000000;stroke-width:0.8;" x="214.433143" xlink:href="#m404c2bd311" y="294.88"/>
      </g>
     </g>
     <g id="text_3">
      <!-- 4 -->
      <defs>
       <path d="M 37.796875 64.3125 
L 12.890625 25.390625 
L 37.796875 25.390625 
z
M 35.203125 72.90625 
L 47.609375 72.90625 
L 47.609375 25.390625 
L 58.015625 25.390625 
L 58.015625 17.1875 
L 47.609375 17.1875 
L 47.609375 0 
L 37.796875 0 
L 37.796875 17.1875 
L 4.890625 17.1875 
L 4.890625 26.703125 
z
" id="DejaVuSans-34"/>
      </defs>
      <g transform="translate(208.070643 317.076875)scale(0.2 -0.2)">
       <use xlink:href="#DejaVuSans-34"/>
      </g>
     </g>
    </g>
    <g id="xtick_4">
     <g id="line2d_11">
      <path clip-path="url(#pbcd463bffc)" d="M 293.589714 294.88 
L 293.589714 24.84 
" style="fill:none;stroke:#b0b0b0;stroke-linecap:square;stroke-width:0.8;"/>
     </g>
     <g id="line2d_12">
      <g>
       <use style="stroke:#000000;stroke-width:0.8;" x="293.589714" xlink:href="#m404c2bd311" y="294.88"/>
      </g>
     </g>
     <g id="text_4">
      <!-- 6 -->
      <defs>
       <path d="M 33.015625 40.375 
Q 26.375 40.375 22.484375 35.828125 
Q 18.609375 31.296875 18.609375 23.390625 
Q 18.609375 15.53125 22.484375 10.953125 
Q 26.375 6.390625 33.015625 6.390625 
Q 39.65625 6.390625 43.53125 10.953125 
Q 47.40625 15.53125 47.40625 23.390625 
Q 47.40625 31.296875 43.53125 35.828125 
Q 39.65625 40.375 33.015625 40.375 
z
M 52.59375 71.296875 
L 52.59375 62.3125 
Q 48.875 64.0625 45.09375 64.984375 
Q 41.3125 65.921875 37.59375 65.921875 
Q 27.828125 65.921875 22.671875 59.328125 
Q 17.53125 52.734375 16.796875 39.40625 
Q 19.671875 43.65625 24.015625 45.921875 
Q 28.375 48.1875 33.59375 48.1875 
Q 44.578125 48.1875 50.953125 41.515625 
Q 57.328125 34.859375 57.328125 23.390625 
Q 57.328125 12.15625 50.6875 5.359375 
Q 44.046875 -1.421875 33.015625 -1.421875 
Q 20.359375 -1.421875 13.671875 8.265625 
Q 6.984375 17.96875 6.984375 36.375 
Q 6.984375 53.65625 15.1875 63.9375 
Q 23.390625 74.21875 37.203125 74.21875 
Q 40.921875 74.21875 44.703125 73.484375 
Q 48.484375 72.75 52.59375 71.296875 
z
" id="DejaVuSans-36"/>
      </defs>
      <g transform="translate(287.227214 317.076875)scale(0.2 -0.2)">
       <use xlink:href="#DejaVuSans-36"/>
      </g>
     </g>
    </g>
    <g id="xtick_5">
     <g id="line2d_13">
      <path clip-path="url(#pbcd463bffc)" d="M 56.12 294.88 
L 56.12 24.84 
" style="fill:none;stroke:#b0b0b0;stroke-linecap:square;stroke-width:0.8;"/>
     </g>
     <g id="line2d_14">
      <defs>
       <path d="M 0 0 
L 0 2 
" id="m5e9d95d934" style="stroke:#000000;stroke-width:0.6;"/>
      </defs>
      <g>
       <use style="stroke:#000000;stroke-width:0.6;" x="56.12" xlink:href="#m5e9d95d934" y="294.88"/>
      </g>
     </g>
    </g>
    <g id="xtick_6">
     <g id="line2d_15">
      <path clip-path="url(#pbcd463bffc)" d="M 95.698286 294.88 
L 95.698286 24.84 
" style="fill:none;stroke:#b0b0b0;stroke-linecap:square;stroke-width:0.8;"/>
     </g>
     <g id="line2d_16">
      <g>
       <use style="stroke:#000000;stroke-width:0.6;" x="95.698286" xlink:href="#m5e9d95d934" y="294.88"/>
      </g>
     </g>
    </g>
    <g id="xtick_7">
     <g id="line2d_17">
      <path clip-path="url(#pbcd463bffc)" d="M 135.276571 294.88 
L 135.276571 24.84 
" style="fill:none;stroke:#b0b0b0;stroke-linecap:square;stroke-width:0.8;"/>
     </g>
     <g id="line2d_18">
      <g>
       <use style="stroke:#000000;stroke-width:0.6;" x="135.276571" xlink:href="#m5e9d95d934" y="294.88"/>
      </g>
     </g>
    </g>
    <g id="xtick_8">
     <g id="line2d_19">
      <path clip-path="url(#pbcd463bffc)" d="M 174.854857 294.88 
L 174.854857 24.84 
" style="fill:none;stroke:#b0b0b0;stroke-linecap:square;stroke-width:0.8;"/>
     </g>
     <g id="line2d_20">
      <g>
       <use style="stroke:#000000;stroke-width:0.6;" x="174.854857" xlink:href="#m5e9d95d934" y="294.88"/>
      </g>
     </g>
    </g>
    <g id="xtick_9">
     <g id="line2d_21">
      <path clip-path="url(#pbcd463bffc)" d="M 214.433143 294.88 
L 214.433143 24.84 
" style="fill:none;stroke:#b0b0b0;stroke-linecap:square;stroke-width:0.8;"/>
     </g>
     <g id="line2d_22">
      <g>
       <use style="stroke:#000000;stroke-width:0.6;" x="214.433143" xlink:href="#m5e9d95d934" y="294.88"/>
      </g>
     </g>
    </g>
    <g id="xtick_10">
     <g id="line2d_23">
      <path clip-path="url(#pbcd463bffc)" d="M 254.011429 294.88 
L 254.011429 24.84 
" style="fill:none;stroke:#b0b0b0;stroke-linecap:square;stroke-width:0.8;"/>
     </g>
     <g id="line2d_24">
      <g>
       <use style="stroke:#000000;stroke-width:0.6;" x="254.011429" xlink:href="#m5e9d95d934" y="294.88"/>
      </g>
     </g>
    </g>
    <g id="xtick_11">
     <g id="line2d_25">
      <path clip-path="url(#pbcd463bffc)" d="M 293.589714 294.88 
L 293.589714 24.84 
" style="fill:none;stroke:#b0b0b0;stroke-linecap:square;stroke-width:0.8;"/>
     </g>
     <g id="line2d_26">
      <g>
       <use style="stroke:#000000;stroke-width:0.6;" x="293.589714" xlink:href="#m5e9d95d934" y="294.88"/>
      </g>
     </g>
    </g>
    <g id="xtick_12">
     <g id="line2d_27">
      <path clip-path="url(#pbcd463bffc)" d="M 333.168 294.88 
L 333.168 24.84 
" style="fill:none;stroke:#b0b0b0;stroke-linecap:square;stroke-width:0.8;"/>
     </g>
     <g id="line2d_28">
      <g>
       <use style="stroke:#000000;stroke-width:0.6;" x="333.168" xlink:href="#m5e9d95d934" y="294.88"/>
      </g>
     </g>
    </g>
    <g id="text_5">
     <!-- log10(# f-evals / dimension) -->
     <defs>
      <path d="M 9.421875 75.984375 
L 18.40625 75.984375 
L 18.40625 0 
L 9.421875 0 
z
" id="DejaVuSans-6c"/>
      <path d="M 30.609375 48.390625 
Q 23.390625 48.390625 19.1875 42.75 
Q 14.984375 37.109375 14.984375 27.296875 
Q 14.984375 17.484375 19.15625 11.84375 
Q 23.34375 6.203125 30.609375 6.203125 
Q 37.796875 6.203125 41.984375 11.859375 
Q 46.1875 17.53125 46.1875 27.296875 
Q 46.1875 37.015625 41.984375 42.703125 
Q 37.796875 48.390625 30.609375 48.390625 
z
M 30.609375 56 
Q 42.328125 56 49.015625 48.375 
Q 55.71875 40.765625 55.71875 27.296875 
Q 55.71875 13.875 49.015625 6.21875 
Q 42.328125 -1.421875 30.609375 -1.421875 
Q 18.84375 -1.421875 12.171875 6.21875 
Q 5.515625 13.875 5.515625 27.296875 
Q 5.515625 40.765625 12.171875 48.375 
Q 18.84375 56 30.609375 56 
z
" id="DejaVuSans-6f"/>
      <path d="M 45.40625 27.984375 
Q 45.40625 37.75 41.375 43.109375 
Q 37.359375 48.484375 30.078125 48.484375 
Q 22.859375 48.484375 18.828125 43.109375 
Q 14.796875 37.75 14.796875 27.984375 
Q 14.796875 18.265625 18.828125 12.890625 
Q 22.859375 7.515625 30.078125 7.515625 
Q 37.359375 7.515625 41.375 12.890625 
Q 45.40625 18.265625 45.40625 27.984375 
z
M 54.390625 6.78125 
Q 54.390625 -7.171875 48.1875 -13.984375 
Q 42 -20.796875 29.203125 -20.796875 
Q 24.46875 -20.796875 20.265625 -20.09375 
Q 16.0625 -19.390625 12.109375 -17.921875 
L 12.109375 -9.1875 
Q 16.0625 -11.328125 19.921875 -12.34375 
Q 23.78125 -13.375 27.78125 -13.375 
Q 36.625 -13.375 41.015625 -8.765625 
Q 45.40625 -4.15625 45.40625 5.171875 
L 45.40625 9.625 
Q 42.625 4.78125 38.28125 2.390625 
Q 33.9375 0 27.875 0 
Q 17.828125 0 11.671875 7.65625 
Q 5.515625 15.328125 5.515625 27.984375 
Q 5.515625 40.671875 11.671875 48.328125 
Q 17.828125 56 27.875 56 
Q 33.9375 56 38.28125 53.609375 
Q 42.625 51.21875 45.40625 46.390625 
L 45.40625 54.6875 
L 54.390625 54.6875 
z
" id="DejaVuSans-67"/>
      <path d="M 12.40625 8.296875 
L 28.515625 8.296875 
L 28.515625 63.921875 
L 10.984375 60.40625 
L 10.984375 69.390625 
L 28.421875 72.90625 
L 38.28125 72.90625 
L 38.28125 8.296875 
L 54.390625 8.296875 
L 54.390625 0 
L 12.40625 0 
z
" id="DejaVuSans-31"/>
      <path d="M 31 75.875 
Q 24.46875 64.65625 21.28125 53.65625 
Q 18.109375 42.671875 18.109375 31.390625 
Q 18.109375 20.125 21.3125 9.0625 
Q 24.515625 -2 31 -13.1875 
L 23.1875 -13.1875 
Q 15.875 -1.703125 12.234375 9.375 
Q 8.59375 20.453125 8.59375 31.390625 
Q 8.59375 42.28125 12.203125 53.3125 
Q 15.828125 64.359375 23.1875 75.875 
z
" id="DejaVuSans-28"/>
      <path d="M 51.125 44 
L 36.921875 44 
L 32.8125 27.6875 
L 47.125 27.6875 
z
M 43.796875 71.78125 
L 38.71875 51.515625 
L 52.984375 51.515625 
L 58.109375 71.78125 
L 65.921875 71.78125 
L 60.890625 51.515625 
L 76.125 51.515625 
L 76.125 44 
L 58.984375 44 
L 54.984375 27.6875 
L 70.515625 27.6875 
L 70.515625 20.21875 
L 53.078125 20.21875 
L 48 0 
L 40.1875 0 
L 45.21875 20.21875 
L 30.90625 20.21875 
L 25.875 0 
L 18.015625 0 
L 23.09375 20.21875 
L 7.71875 20.21875 
L 7.71875 27.6875 
L 24.90625 27.6875 
L 29 44 
L 13.28125 44 
L 13.28125 51.515625 
L 30.90625 51.515625 
L 35.890625 71.78125 
z
" id="DejaVuSans-23"/>
      <path id="DejaVuSans-20"/>
      <path d="M 37.109375 75.984375 
L 37.109375 68.5 
L 28.515625 68.5 
Q 23.6875 68.5 21.796875 66.546875 
Q 19.921875 64.59375 19.921875 59.515625 
L 19.921875 54.6875 
L 34.71875 54.6875 
L 34.71875 47.703125 
L 19.921875 47.703125 
L 19.921875 0 
L 10.890625 0 
L 10.890625 47.703125 
L 2.296875 47.703125 
L 2.296875 54.6875 
L 10.890625 54.6875 
L 10.890625 58.5 
Q 10.890625 67.625 15.140625 71.796875 
Q 19.390625 75.984375 28.609375 75.984375 
z
" id="DejaVuSans-66"/>
      <path d="M 4.890625 31.390625 
L 31.203125 31.390625 
L 31.203125 23.390625 
L 4.890625 23.390625 
z
" id="DejaVuSans-2d"/>
      <path d="M 56.203125 29.59375 
L 56.203125 25.203125 
L 14.890625 25.203125 
Q 15.484375 15.921875 20.484375 11.0625 
Q 25.484375 6.203125 34.421875 6.203125 
Q 39.59375 6.203125 44.453125 7.46875 
Q 49.3125 8.734375 54.109375 11.28125 
L 54.109375 2.78125 
Q 49.265625 0.734375 44.1875 -0.34375 
Q 39.109375 -1.421875 33.890625 -1.421875 
Q 20.796875 -1.421875 13.15625 6.1875 
Q 5.515625 13.8125 5.515625 26.8125 
Q 5.515625 40.234375 12.765625 48.109375 
Q 20.015625 56 32.328125 56 
Q 43.359375 56 49.78125 48.890625 
Q 56.203125 41.796875 56.203125 29.59375 
z
M 47.21875 32.234375 
Q 47.125 39.59375 43.09375 43.984375 
Q 39.0625 48.390625 32.421875 48.390625 
Q 24.90625 48.390625 20.390625 44.140625 
Q 15.875 39.890625 15.1875 32.171875 
z
" id="DejaVuSans-65"/>
      <path d="M 2.984375 54.6875 
L 12.5 54.6875 
L 29.59375 8.796875 
L 46.6875 54.6875 
L 56.203125 54.6875 
L 35.6875 0 
L 23.484375 0 
z
" id="DejaVuSans-76"/>
      <path d="M 34.28125 27.484375 
Q 23.390625 27.484375 19.1875 25 
Q 14.984375 22.515625 14.984375 16.5 
Q 14.984375 11.71875 18.140625 8.90625 
Q 21.296875 6.109375 26.703125 6.109375 
Q 34.1875 6.109375 38.703125 11.40625 
Q 43.21875 16.703125 43.21875 25.484375 
L 43.21875 27.484375 
z
M 52.203125 31.203125 
L 52.203125 0 
L 43.21875 0 
L 43.21875 8.296875 
Q 40.140625 3.328125 35.546875 0.953125 
Q 30.953125 -1.421875 24.3125 -1.421875 
Q 15.921875 -1.421875 10.953125 3.296875 
Q 6 8.015625 6 15.921875 
Q 6 25.140625 12.171875 29.828125 
Q 18.359375 34.515625 30.609375 34.515625 
L 43.21875 34.515625 
L 43.21875 35.40625 
Q 43.21875 41.609375 39.140625 45 
Q 35.0625 48.390625 27.6875 48.390625 
Q 23 48.390625 18.546875 47.265625 
Q 14.109375 46.140625 10.015625 43.890625 
L 10.015625 52.203125 
Q 14.9375 54.109375 19.578125 55.046875 
Q 24.21875 56 28.609375 56 
Q 40.484375 56 46.34375 49.84375 
Q 52.203125 43.703125 52.203125 31.203125 
z
" id="DejaVuSans-61"/>
      <path d="M 44.28125 53.078125 
L 44.28125 44.578125 
Q 40.484375 46.53125 36.375 47.5 
Q 32.28125 48.484375 27.875 48.484375 
Q 21.1875 48.484375 17.84375 46.4375 
Q 14.5 44.390625 14.5 40.28125 
Q 14.5 37.15625 16.890625 35.375 
Q 19.28125 33.59375 26.515625 31.984375 
L 29.59375 31.296875 
Q 39.15625 29.25 43.1875 25.515625 
Q 47.21875 21.78125 47.21875 15.09375 
Q 47.21875 7.46875 41.1875 3.015625 
Q 35.15625 -1.421875 24.609375 -1.421875 
Q 20.21875 -1.421875 15.453125 -0.5625 
Q 10.6875 0.296875 5.421875 2 
L 5.421875 11.28125 
Q 10.40625 8.6875 15.234375 7.390625 
Q 20.0625 6.109375 24.8125 6.109375 
Q 31.15625 6.109375 34.5625 8.28125 
Q 37.984375 10.453125 37.984375 14.40625 
Q 37.984375 18.0625 35.515625 20.015625 
Q 33.0625 21.96875 24.703125 23.78125 
L 21.578125 24.515625 
Q 13.234375 26.265625 9.515625 29.90625 
Q 5.8125 33.546875 5.8125 39.890625 
Q 5.8125 47.609375 11.28125 51.796875 
Q 16.75 56 26.8125 56 
Q 31.78125 56 36.171875 55.265625 
Q 40.578125 54.546875 44.28125 53.078125 
z
" id="DejaVuSans-73"/>
      <path d="M 25.390625 72.90625 
L 33.6875 72.90625 
L 8.296875 -9.28125 
L 0 -9.28125 
z
" id="DejaVuSans-2f"/>
      <path d="M 45.40625 46.390625 
L 45.40625 75.984375 
L 54.390625 75.984375 
L 54.390625 0 
L 45.40625 0 
L 45.40625 8.203125 
Q 42.578125 3.328125 38.25 0.953125 
Q 33.9375 -1.421875 27.875 -1.421875 
Q 17.96875 -1.421875 11.734375 6.484375 
Q 5.515625 14.40625 5.515625 27.296875 
Q 5.515625 40.1875 11.734375 48.09375 
Q 17.96875 56 27.875 56 
Q 33.9375 56 38.25 53.625 
Q 42.578125 51.265625 45.40625 46.390625 
z
M 14.796875 27.296875 
Q 14.796875 17.390625 18.875 11.75 
Q 22.953125 6.109375 30.078125 6.109375 
Q 37.203125 6.109375 41.296875 11.75 
Q 45.40625 17.390625 45.40625 27.296875 
Q 45.40625 37.203125 41.296875 42.84375 
Q 37.203125 48.484375 30.078125 48.484375 
Q 22.953125 48.484375 18.875 42.84375 
Q 14.796875 37.203125 14.796875 27.296875 
z
" id="DejaVuSans-64"/>
      <path d="M 9.421875 54.6875 
L 18.40625 54.6875 
L 18.40625 0 
L 9.421875 0 
z
M 9.421875 75.984375 
L 18.40625 75.984375 
L 18.40625 64.59375 
L 9.421875 64.59375 
z
" id="DejaVuSans-69"/>
      <path d="M 52 44.1875 
Q 55.375 50.25 60.0625 53.125 
Q 64.75 56 71.09375 56 
Q 79.640625 56 84.28125 50.015625 
Q 88.921875 44.046875 88.921875 33.015625 
L 88.921875 0 
L 79.890625 0 
L 79.890625 32.71875 
Q 79.890625 40.578125 77.09375 44.375 
Q 74.3125 48.1875 68.609375 48.1875 
Q 61.625 48.1875 57.5625 43.546875 
Q 53.515625 38.921875 53.515625 30.90625 
L 53.515625 0 
L 44.484375 0 
L 44.484375 32.71875 
Q 44.484375 40.625 41.703125 44.40625 
Q 38.921875 48.1875 33.109375 48.1875 
Q 26.21875 48.1875 22.15625 43.53125 
Q 18.109375 38.875 18.109375 30.90625 
L 18.109375 0 
L 9.078125 0 
L 9.078125 54.6875 
L 18.109375 54.6875 
L 18.109375 46.1875 
Q 21.1875 51.21875 25.484375 53.609375 
Q 29.78125 56 35.6875 56 
Q 41.65625 56 45.828125 52.96875 
Q 50 49.953125 52 44.1875 
z
" id="DejaVuSans-6d"/>
      <path d="M 54.890625 33.015625 
L 54.890625 0 
L 45.90625 0 
L 45.90625 32.71875 
Q 45.90625 40.484375 42.875 44.328125 
Q 39.84375 48.1875 33.796875 48.1875 
Q 26.515625 48.1875 22.3125 43.546875 
Q 18.109375 38.921875 18.109375 30.90625 
L 18.109375 0 
L 9.078125 0 
L 9.078125 54.6875 
L 18.109375 54.6875 
L 18.109375 46.1875 
Q 21.34375 51.125 25.703125 53.5625 
Q 30.078125 56 35.796875 56 
Q 45.21875 56 50.046875 50.171875 
Q 54.890625 44.34375 54.890625 33.015625 
z
" id="DejaVuSans-6e"/>
      <path d="M 8.015625 75.875 
L 15.828125 75.875 
Q 23.140625 64.359375 26.78125 53.3125 
Q 30.421875 42.28125 30.421875 31.390625 
Q 30.421875 20.453125 26.78125 9.375 
Q 23.140625 -1.703125 15.828125 -13.1875 
L 8.015625 -13.1875 
Q 14.5 -2 17.703125 9.0625 
Q 20.90625 20.125 20.90625 31.390625 
Q 20.90625 42.671875 17.703125 53.65625 
Q 14.5 64.65625 8.015625 75.875 
z
" id="DejaVuSans-29"/>
     </defs>
     <g transform="translate(73.803219 338.153594)scale(0.17 -0.17)">
      <use xlink:href="#DejaVuSans-6c"/>
      <use x="27.783203" xlink:href="#DejaVuSans-6f"/>
      <use x="88.964844" xlink:href="#DejaVuSans-67"/>
      <use x="152.441406" xlink:href="#DejaVuSans-31"/>
      <use x="216.064453" xlink:href="#DejaVuSans-30"/>
      <use x="279.6875" xlink:href="#DejaVuSans-28"/>
      <use x="318.701172" xlink:href="#DejaVuSans-23"/>
      <use x="402.490234" xlink:href="#DejaVuSans-20"/>
      <use x="434.277344" xlink:href="#DejaVuSans-66"/>
      <use x="469.404297" xlink:href="#DejaVuSans-2d"/>
      <use x="505.488281" xlink:href="#DejaVuSans-65"/>
      <use x="567.011719" xlink:href="#DejaVuSans-76"/>
      <use x="626.191406" xlink:href="#DejaVuSans-61"/>
      <use x="687.470703" xlink:href="#DejaVuSans-6c"/>
      <use x="715.253906" xlink:href="#DejaVuSans-73"/>
      <use x="767.353516" xlink:href="#DejaVuSans-20"/>
      <use x="799.140625" xlink:href="#DejaVuSans-2f"/>
      <use x="832.832031" xlink:href="#DejaVuSans-20"/>
      <use x="864.619141" xlink:href="#DejaVuSans-64"/>
      <use x="928.095703" xlink:href="#DejaVuSans-69"/>
      <use x="955.878906" xlink:href="#DejaVuSans-6d"/>
      <use x="1053.291016" xlink:href="#DejaVuSans-65"/>
      <use x="1114.814453" xlink:href="#DejaVuSans-6e"/>
      <use x="1178.193359" xlink:href="#DejaVuSans-73"/>
      <use x="1230.292969" xlink:href="#DejaVuSans-69"/>
      <use x="1258.076172" xlink:href="#DejaVuSans-6f"/>
      <use x="1319.257812" xlink:href="#DejaVuSans-6e"/>
      <use x="1382.636719" xlink:href="#DejaVuSans-29"/>
     </g>
    </g>
   </g>
   <g id="matplotlib.axis_2">
    <g id="ytick_1">
     <g id="line2d_29">
      <path clip-path="url(#pbcd463bffc)" d="M 56.12 294.88 
L 333.168 294.88 
" style="fill:none;stroke:#b0b0b0;stroke-linecap:square;stroke-width:0.8;"/>
     </g>
     <g id="line2d_30">
      <defs>
       <path d="M 0 0 
L -3.5 0 
" id="mc9b84f95da" style="stroke:#000000;stroke-width:0.8;"/>
      </defs>
      <g>
       <use style="stroke:#000000;stroke-width:0.8;" x="56.12" xlink:href="#mc9b84f95da" y="294.88"/>
      </g>
     </g>
     <g id="text_6">
      <!-- 0.0 -->
      <defs>
       <path d="M 10.6875 12.40625 
L 21 12.40625 
L 21 0 
L 10.6875 0 
z
" id="DejaVuSans-2e"/>
      </defs>
      <g transform="translate(23.675 300.95875)scale(0.16 -0.16)">
       <use xlink:href="#DejaVuSans-30"/>
       <use x="63.623047" xlink:href="#DejaVuSans-2e"/>
       <use x="95.410156" xlink:href="#DejaVuSans-30"/>
      </g>
     </g>
    </g>
    <g id="ytick_2">
     <g id="line2d_31">
      <path clip-path="url(#pbcd463bffc)" d="M 56.12 241.406733 
L 333.168 241.406733 
" style="fill:none;stroke:#b0b0b0;stroke-linecap:square;stroke-width:0.8;"/>
     </g>
     <g id="line2d_32">
      <g>
       <use style="stroke:#000000;stroke-width:0.8;" x="56.12" xlink:href="#mc9b84f95da" y="241.406733"/>
      </g>
     </g>
     <g id="text_7">
      <!-- 0.2 -->
      <g transform="translate(23.675 247.485483)scale(0.16 -0.16)">
       <use xlink:href="#DejaVuSans-30"/>
       <use x="63.623047" xlink:href="#DejaVuSans-2e"/>
       <use x="95.410156" xlink:href="#DejaVuSans-32"/>
      </g>
     </g>
    </g>
    <g id="ytick_3">
     <g id="line2d_33">
      <path clip-path="url(#pbcd463bffc)" d="M 56.12 187.933465 
L 333.168 187.933465 
" style="fill:none;stroke:#b0b0b0;stroke-linecap:square;stroke-width:0.8;"/>
     </g>
     <g id="line2d_34">
      <g>
       <use style="stroke:#000000;stroke-width:0.8;" x="56.12" xlink:href="#mc9b84f95da" y="187.933465"/>
      </g>
     </g>
     <g id="text_8">
      <!-- 0.4 -->
      <g transform="translate(23.675 194.012215)scale(0.16 -0.16)">
       <use xlink:href="#DejaVuSans-30"/>
       <use x="63.623047" xlink:href="#DejaVuSans-2e"/>
       <use x="95.410156" xlink:href="#DejaVuSans-34"/>
      </g>
     </g>
    </g>
    <g id="ytick_4">
     <g id="line2d_35">
      <path clip-path="url(#pbcd463bffc)" d="M 56.12 134.460198 
L 333.168 134.460198 
" style="fill:none;stroke:#b0b0b0;stroke-linecap:square;stroke-width:0.8;"/>
     </g>
     <g id="line2d_36">
      <g>
       <use style="stroke:#000000;stroke-width:0.8;" x="56.12" xlink:href="#mc9b84f95da" y="134.460198"/>
      </g>
     </g>
     <g id="text_9">
      <!-- 0.6 -->
      <g transform="translate(23.675 140.538948)scale(0.16 -0.16)">
       <use xlink:href="#DejaVuSans-30"/>
       <use x="63.623047" xlink:href="#DejaVuSans-2e"/>
       <use x="95.410156" xlink:href="#DejaVuSans-36"/>
      </g>
     </g>
    </g>
    <g id="ytick_5">
     <g id="line2d_37">
      <path clip-path="url(#pbcd463bffc)" d="M 56.12 80.986931 
L 333.168 80.986931 
" style="fill:none;stroke:#b0b0b0;stroke-linecap:square;stroke-width:0.8;"/>
     </g>
     <g id="line2d_38">
      <g>
       <use style="stroke:#000000;stroke-width:0.8;" x="56.12" xlink:href="#mc9b84f95da" y="80.986931"/>
      </g>
     </g>
     <g id="text_10">
      <!-- 0.8 -->
      <defs>
       <path d="M 31.78125 34.625 
Q 24.75 34.625 20.71875 30.859375 
Q 16.703125 27.09375 16.703125 20.515625 
Q 16.703125 13.921875 20.71875 10.15625 
Q 24.75 6.390625 31.78125 6.390625 
Q 38.8125 6.390625 42.859375 10.171875 
Q 46.921875 13.96875 46.921875 20.515625 
Q 46.921875 27.09375 42.890625 30.859375 
Q 38.875 34.625 31.78125 34.625 
z
M 21.921875 38.8125 
Q 15.578125 40.375 12.03125 44.71875 
Q 8.5 49.078125 8.5 55.328125 
Q 8.5 64.0625 14.71875 69.140625 
Q 20.953125 74.21875 31.78125 74.21875 
Q 42.671875 74.21875 48.875 69.140625 
Q 55.078125 64.0625 55.078125 55.328125 
Q 55.078125 49.078125 51.53125 44.71875 
Q 48 40.375 41.703125 38.8125 
Q 48.828125 37.15625 52.796875 32.3125 
Q 56.78125 27.484375 56.78125 20.515625 
Q 56.78125 9.90625 50.3125 4.234375 
Q 43.84375 -1.421875 31.78125 -1.421875 
Q 19.734375 -1.421875 13.25 4.234375 
Q 6.78125 9.90625 6.78125 20.515625 
Q 6.78125 27.484375 10.78125 32.3125 
Q 14.796875 37.15625 21.921875 38.8125 
z
M 18.3125 54.390625 
Q 18.3125 48.734375 21.84375 45.5625 
Q 25.390625 42.390625 31.78125 42.390625 
Q 38.140625 42.390625 41.71875 45.5625 
Q 45.3125 48.734375 45.3125 54.390625 
Q 45.3125 60.0625 41.71875 63.234375 
Q 38.140625 66.40625 31.78125 66.40625 
Q 25.390625 66.40625 21.84375 63.234375 
Q 18.3125 60.0625 18.3125 54.390625 
z
" id="DejaVuSans-38"/>
      </defs>
      <g transform="translate(23.675 87.065681)scale(0.16 -0.16)">
       <use xlink:href="#DejaVuSans-30"/>
       <use x="63.623047" xlink:href="#DejaVuSans-2e"/>
       <use x="95.410156" xlink:href="#DejaVuSans-38"/>
      </g>
     </g>
    </g>
    <g id="ytick_6">
     <g id="line2d_39">
      <path clip-path="url(#pbcd463bffc)" d="M 56.12 27.513663 
L 333.168 27.513663 
" style="fill:none;stroke:#b0b0b0;stroke-linecap:square;stroke-width:0.8;"/>
     </g>
     <g id="line2d_40">
      <g>
       <use style="stroke:#000000;stroke-width:0.8;" x="56.12" xlink:href="#mc9b84f95da" y="27.513663"/>
      </g>
     </g>
     <g id="text_11">
      <!-- 1.0 -->
      <g transform="translate(23.675 33.592413)scale(0.16 -0.16)">
       <use xlink:href="#DejaVuSans-31"/>
       <use x="63.623047" xlink:href="#DejaVuSans-2e"/>
       <use x="95.410156" xlink:href="#DejaVuSans-30"/>
      </g>
     </g>
    </g>
    <g id="text_12">
     <!-- Fraction of function,target pairs -->
     <defs>
      <path d="M 9.8125 72.90625 
L 51.703125 72.90625 
L 51.703125 64.59375 
L 19.671875 64.59375 
L 19.671875 43.109375 
L 48.578125 43.109375 
L 48.578125 34.8125 
L 19.671875 34.8125 
L 19.671875 0 
L 9.8125 0 
z
" id="DejaVuSans-46"/>
      <path d="M 41.109375 46.296875 
Q 39.59375 47.171875 37.8125 47.578125 
Q 36.03125 48 33.890625 48 
Q 26.265625 48 22.1875 43.046875 
Q 18.109375 38.09375 18.109375 28.8125 
L 18.109375 0 
L 9.078125 0 
L 9.078125 54.6875 
L 18.109375 54.6875 
L 18.109375 46.1875 
Q 20.953125 51.171875 25.484375 53.578125 
Q 30.03125 56 36.53125 56 
Q 37.453125 56 38.578125 55.875 
Q 39.703125 55.765625 41.0625 55.515625 
z
" id="DejaVuSans-72"/>
      <path d="M 48.78125 52.59375 
L 48.78125 44.1875 
Q 44.96875 46.296875 41.140625 47.34375 
Q 37.3125 48.390625 33.40625 48.390625 
Q 24.65625 48.390625 19.8125 42.84375 
Q 14.984375 37.3125 14.984375 27.296875 
Q 14.984375 17.28125 19.8125 11.734375 
Q 24.65625 6.203125 33.40625 6.203125 
Q 37.3125 6.203125 41.140625 7.25 
Q 44.96875 8.296875 48.78125 10.40625 
L 48.78125 2.09375 
Q 45.015625 0.34375 40.984375 -0.53125 
Q 36.96875 -1.421875 32.421875 -1.421875 
Q 20.0625 -1.421875 12.78125 6.34375 
Q 5.515625 14.109375 5.515625 27.296875 
Q 5.515625 40.671875 12.859375 48.328125 
Q 20.21875 56 33.015625 56 
Q 37.15625 56 41.109375 55.140625 
Q 45.0625 54.296875 48.78125 52.59375 
z
" id="DejaVuSans-63"/>
      <path d="M 18.3125 70.21875 
L 18.3125 54.6875 
L 36.8125 54.6875 
L 36.8125 47.703125 
L 18.3125 47.703125 
L 18.3125 18.015625 
Q 18.3125 11.328125 20.140625 9.421875 
Q 21.96875 7.515625 27.59375 7.515625 
L 36.8125 7.515625 
L 36.8125 0 
L 27.59375 0 
Q 17.1875 0 13.234375 3.875 
Q 9.28125 7.765625 9.28125 18.015625 
L 9.28125 47.703125 
L 2.6875 47.703125 
L 2.6875 54.6875 
L 9.28125 54.6875 
L 9.28125 70.21875 
z
" id="DejaVuSans-74"/>
      <path d="M 8.5 21.578125 
L 8.5 54.6875 
L 17.484375 54.6875 
L 17.484375 21.921875 
Q 17.484375 14.15625 20.5 10.265625 
Q 23.53125 6.390625 29.59375 6.390625 
Q 36.859375 6.390625 41.078125 11.03125 
Q 45.3125 15.671875 45.3125 23.6875 
L 45.3125 54.6875 
L 54.296875 54.6875 
L 54.296875 0 
L 45.3125 0 
L 45.3125 8.40625 
Q 42.046875 3.421875 37.71875 1 
Q 33.40625 -1.421875 27.6875 -1.421875 
Q 18.265625 -1.421875 13.375 4.4375 
Q 8.5 10.296875 8.5 21.578125 
z
M 31.109375 56 
z
" id="DejaVuSans-75"/>
      <path d="M 11.71875 12.40625 
L 22.015625 12.40625 
L 22.015625 4 
L 14.015625 -11.625 
L 7.71875 -11.625 
L 11.71875 4 
z
" id="DejaVuSans-2c"/>
      <path d="M 18.109375 8.203125 
L 18.109375 -20.796875 
L 9.078125 -20.796875 
L 9.078125 54.6875 
L 18.109375 54.6875 
L 18.109375 46.390625 
Q 20.953125 51.265625 25.265625 53.625 
Q 29.59375 56 35.59375 56 
Q 45.5625 56 51.78125 48.09375 
Q 58.015625 40.1875 58.015625 27.296875 
Q 58.015625 14.40625 51.78125 6.484375 
Q 45.5625 -1.421875 35.59375 -1.421875 
Q 29.59375 -1.421875 25.265625 0.953125 
Q 20.953125 3.328125 18.109375 8.203125 
z
M 48.6875 27.296875 
Q 48.6875 37.203125 44.609375 42.84375 
Q 40.53125 48.484375 33.40625 48.484375 
Q 26.265625 48.484375 22.1875 42.84375 
Q 18.109375 37.203125 18.109375 27.296875 
Q 18.109375 17.390625 22.1875 11.75 
Q 26.265625 6.109375 33.40625 6.109375 
Q 40.53125 6.109375 44.609375 11.75 
Q 48.6875 17.390625 48.6875 27.296875 
z
" id="DejaVuSans-70"/>
     </defs>
     <g transform="translate(16.139531 294.999375)rotate(-90)scale(0.17 -0.17)">
      <use xlink:href="#DejaVuSans-46"/>
      <use x="57.410156" xlink:href="#DejaVuSans-72"/>
      <use x="98.523438" xlink:href="#DejaVuSans-61"/>
      <use x="159.802734" xlink:href="#DejaVuSans-63"/>
      <use x="214.783203" xlink:href="#DejaVuSans-74"/>
      <use x="253.992188" xlink:href="#DejaVuSans-69"/>
      <use x="281.775391" xlink:href="#DejaVuSans-6f"/>
      <use x="342.957031" xlink:href="#DejaVuSans-6e"/>
      <use x="406.335938" xlink:href="#DejaVuSans-20"/>
      <use x="438.123047" xlink:href="#DejaVuSans-6f"/>
      <use x="499.304688" xlink:href="#DejaVuSans-66"/>
      <use x="534.509766" xlink:href="#DejaVuSans-20"/>
      <use x="566.296875" xlink:href="#DejaVuSans-66"/>
      <use x="601.501953" xlink:href="#DejaVuSans-75"/>
      <use x="664.880859" xlink:href="#DejaVuSans-6e"/>
      <use x="728.259766" xlink:href="#DejaVuSans-63"/>
      <use x="783.240234" xlink:href="#DejaVuSans-74"/>
      <use x="822.449219" xlink:href="#DejaVuSans-69"/>
      <use x="850.232422" xlink:href="#DejaVuSans-6f"/>
      <use x="911.414062" xlink:href="#DejaVuSans-6e"/>
      <use x="974.792969" xlink:href="#DejaVuSans-2c"/>
      <use x="1006.580078" xlink:href="#DejaVuSans-74"/>
      <use x="1045.789062" xlink:href="#DejaVuSans-61"/>
      <use x="1107.068359" xlink:href="#DejaVuSans-72"/>
      <use x="1148.166016" xlink:href="#DejaVuSans-67"/>
      <use x="1211.642578" xlink:href="#DejaVuSans-65"/>
      <use x="1273.166016" xlink:href="#DejaVuSans-74"/>
      <use x="1312.375" xlink:href="#DejaVuSans-20"/>
      <use x="1344.162109" xlink:href="#DejaVuSans-70"/>
      <use x="1407.638672" xlink:href="#DejaVuSans-61"/>
      <use x="1468.917969" xlink:href="#DejaVuSans-69"/>
      <use x="1496.701172" xlink:href="#DejaVuSans-72"/>
      <use x="1537.814453" xlink:href="#DejaVuSans-73"/>
     </g>
    </g>
   </g>
   <g id="line2d_41">
    <defs>
     <path d="M 0 1.5 
C 0.397805 1.5 0.77937 1.341951 1.06066 1.06066 
C 1.341951 0.77937 1.5 0.397805 1.5 0 
C 1.5 -0.397805 1.341951 -0.77937 1.06066 -1.06066 
C 0.77937 -1.341951 0.397805 -1.5 0 -1.5 
C -0.397805 -1.5 -0.77937 -1.341951 -1.06066 -1.06066 
C -1.341951 -0.77937 -1.5 -0.397805 -1.5 0 
C -1.5 0.397805 -1.341951 0.77937 -1.06066 1.06066 
C -0.77937 1.341951 -0.397805 1.5 0 1.5 
z
" id="mebb50d7a16" style="stroke:#f5deb3;"/>
    </defs>
    <g>
     <use style="fill:#f5deb3;stroke:#f5deb3;" x="195.303804" xlink:href="#mebb50d7a16" y="27.513663"/>
     <use style="fill:#f5deb3;stroke:#f5deb3;" x="195.303804" xlink:href="#mebb50d7a16" y="27.513663"/>
    </g>
   </g>
   <g id="line2d_42">
    <defs>
     <path d="M 0 1.5 
C 0.397805 1.5 0.77937 1.341951 1.06066 1.06066 
C 1.341951 0.77937 1.5 0.397805 1.5 0 
C 1.5 -0.397805 1.341951 -0.77937 1.06066 -1.06066 
C 0.77937 -1.341951 0.397805 -1.5 0 -1.5 
C -0.397805 -1.5 -0.77937 -1.341951 -1.06066 -1.06066 
C -1.341951 -0.77937 -1.5 -0.397805 -1.5 0 
C -1.5 0.397805 -1.341951 0.77937 -1.06066 1.06066 
C -0.77937 1.341951 -0.397805 1.5 0 1.5 
z
" id="m0be506bab7" style="stroke:#000080;"/>
    </defs>
    <g>
     <use style="fill:#000080;stroke:#000080;" x="275.011065" xlink:href="#m0be506bab7" y="195.272933"/>
     <use style="fill:#000080;stroke:#000080;" x="275.011065" xlink:href="#m0be506bab7" y="195.272933"/>
    </g>
   </g>
   <g id="line2d_43">
    <path d="M 141.050858 294.88 
L 141.050858 294.355752 
L 141.612786 294.355752 
L 141.618729 293.307257 
L 142.015238 293.307257 
L 142.018141 291.734514 
L 143.084598 291.734514 
L 143.147236 290.686018 
L 143.35529 290.686018 
L 143.363346 289.637523 
L 143.505037 289.637523 
L 143.505037 289.113275 
L 143.795437 289.113275 
L 143.795437 288.589027 
L 144.081012 288.589027 
L 144.081012 288.06478 
L 144.623349 288.06478 
L 144.623349 287.540532 
L 144.866109 287.540532 
L 144.866109 287.016284 
L 145.064202 287.016284 
L 145.076355 285.443541 
L 145.329613 285.443541 
L 145.384594 283.34655 
L 146.001092 283.34655 
L 146.001092 282.822302 
L 146.66284 282.822302 
L 146.704885 281.249559 
L 146.804057 281.249559 
L 146.843566 280.201064 
L 147.022411 280.201064 
L 147.022411 279.676816 
L 147.297917 279.676816 
L 147.297917 279.152568 
L 147.604771 279.152568 
L 147.669669 278.104073 
L 148.192385 278.104073 
L 148.192385 277.055578 
L 148.313575 277.055578 
L 148.313575 276.53133 
L 148.519645 276.53133 
L 148.519645 276.007082 
L 148.65435 276.007082 
L 148.65435 275.482834 
L 148.829074 275.482834 
L 148.868095 274.434339 
L 149.100377 274.434339 
L 149.100377 273.910091 
L 149.376927 273.910091 
L 149.461856 272.337348 
L 149.490073 272.337348 
L 149.490073 271.8131 
L 149.741959 271.8131 
L 149.801129 269.716109 
L 150.324681 269.716109 
L 150.415753 268.143366 
L 150.573538 268.143366 
L 150.636952 266.570623 
L 150.990221 266.570623 
L 150.990221 266.046375 
L 151.234787 266.046375 
L 151.234787 265.522128 
L 151.445755 265.522128 
L 151.50938 263.949385 
L 152.240643 263.949385 
L 152.279039 262.900889 
L 152.476064 262.900889 
L 152.504477 261.852394 
L 152.639586 261.852394 
L 152.639586 261.328146 
L 152.768983 261.328146 
L 152.768983 260.803898 
L 152.96818 260.803898 
L 152.96818 260.279651 
L 153.534466 260.279651 
L 153.534466 259.755403 
L 153.695627 259.755403 
L 153.695627 259.231155 
L 153.952702 259.231155 
L 153.952702 258.706907 
L 154.147316 258.706907 
L 154.147316 258.18266 
L 154.325572 258.18266 
L 154.325572 257.658412 
L 154.736296 257.658412 
L 154.83574 256.609917 
L 155.483068 256.609917 
L 155.493675 255.561421 
L 155.603338 255.561421 
L 155.603338 255.037173 
L 155.902323 255.037173 
L 155.902323 254.512926 
L 156.495137 254.512926 
L 156.530114 253.46443 
L 156.944378 253.46443 
L 156.944378 252.940182 
L 157.294071 252.940182 
L 157.294071 252.415935 
L 157.484002 252.415935 
L 157.484002 251.891687 
L 157.695196 251.891687 
L 157.695196 251.367439 
L 158.066645 251.367439 
L 158.070068 250.318944 
L 159.229242 250.318944 
L 159.229242 249.794696 
L 160.596203 249.794696 
L 160.596203 249.270448 
L 161.65621 249.270448 
L 161.65621 248.746201 
L 162.260404 248.746201 
L 162.260404 248.221953 
L 163.152434 248.221953 
L 163.152434 247.697705 
L 201.850399 247.697705 
L 201.906955 246.64921 
L 203.039729 246.64921 
L 203.11776 245.076467 
L 203.516887 245.076467 
L 203.533422 244.027971 
L 203.729095 244.027971 
L 203.729095 243.503724 
L 203.969627 243.503724 
L 203.969627 242.979476 
L 204.116154 242.979476 
L 204.116154 242.455228 
L 204.251344 242.455228 
L 204.265868 241.406733 
L 204.370206 241.406733 
L 204.381623 240.358237 
L 204.524312 240.358237 
L 204.524312 239.83399 
L 206.150531 239.83399 
L 206.150531 239.309742 
L 206.349817 239.309742 
L 206.349817 238.785494 
L 208.73227 238.785494 
L 208.815232 237.736999 
L 208.883616 237.736999 
L 208.883616 237.212751 
L 209.035524 237.212751 
L 209.035524 236.688503 
L 213.415745 236.688503 
L 213.418662 235.640008 
L 214.110774 235.640008 
L 214.110774 235.11576 
L 214.502188 235.11576 
L 214.502188 234.591512 
L 214.693291 234.591512 
L 214.693291 234.067265 
L 214.876472 234.067265 
L 214.876472 233.543017 
L 215.196763 233.543017 
L 215.196763 233.018769 
L 215.671279 233.018769 
L 215.671279 232.494521 
L 215.800503 232.494521 
L 215.800503 231.970274 
L 215.959657 231.970274 
L 215.959657 231.446026 
L 216.286001 231.446026 
L 216.357304 230.397531 
L 216.64851 230.397531 
L 216.64851 229.873283 
L 217.094871 229.873283 
L 217.185728 228.824787 
L 217.73236 228.824787 
L 217.73236 228.30054 
L 222.094304 228.30054 
L 222.094304 227.776292 
L 222.461323 227.776292 
L 222.494234 226.727797 
L 223.248239 226.727797 
L 223.248239 226.203549 
L 223.525911 226.203549 
L 223.525911 225.679301 
L 223.657142 225.679301 
L 223.657142 225.155053 
L 224.655083 225.155053 
L 224.655083 224.630806 
L 226.576659 224.630806 
L 226.576659 224.106558 
L 227.402992 224.106558 
L 227.402992 223.58231 
L 227.540067 223.58231 
L 227.622436 222.533815 
L 228.126269 222.533815 
L 228.126269 222.009567 
L 228.301497 222.009567 
L 228.301497 221.485319 
L 228.55751 221.485319 
L 228.55751 220.961072 
L 228.886672 220.961072 
L 228.901494 219.912576 
L 229.136918 219.912576 
L 229.136918 219.388328 
L 231.230318 219.388328 
L 231.230318 218.864081 
L 231.728767 218.864081 
L 231.728767 218.339833 
L 232.21662 218.339833 
L 232.21662 217.815585 
L 232.447331 217.815585 
L 232.447331 217.291338 
L 232.970857 217.291338 
L 232.970857 216.76709 
L 233.089661 216.76709 
L 233.102313 215.718594 
L 233.635131 215.718594 
L 233.635131 215.194347 
L 234.478151 215.194347 
L 234.478151 214.670099 
L 235.370827 214.670099 
L 235.370827 214.145851 
L 235.63756 214.145851 
L 235.63756 213.621604 
L 235.775904 213.621604 
L 235.775904 213.097356 
L 237.405521 213.097356 
L 237.405521 212.573108 
L 237.523406 212.573108 
L 237.523406 212.04886 
L 238.452323 212.04886 
L 238.499028 211.000365 
L 238.648389 211.000365 
L 238.648389 210.476117 
L 239.629125 210.476117 
L 239.629125 209.95187 
L 240.307647 209.95187 
L 240.400594 208.903374 
L 241.002217 208.903374 
L 241.002217 208.379126 
L 241.467081 208.379126 
L 241.467081 207.854879 
L 241.835414 207.854879 
L 241.835414 207.330631 
L 243.538211 207.330631 
L 243.538211 206.806383 
L 244.402606 206.806383 
L 244.402606 206.282136 
L 244.917866 206.282136 
L 244.917866 205.757888 
L 245.759889 205.757888 
L 245.853984 204.709392 
L 247.832036 204.709392 
L 247.901374 203.660897 
L 248.431799 203.660897 
L 248.504697 202.612401 
L 250.234292 202.612401 
L 250.234292 202.088154 
L 250.921858 202.088154 
L 250.921858 201.563906 
L 251.482829 201.563906 
L 251.482829 201.039658 
L 253.043354 201.039658 
L 253.043354 200.515411 
L 253.299107 200.515411 
L 253.299107 199.991163 
L 253.445384 199.991163 
L 253.445384 199.466915 
L 253.615035 199.466915 
L 253.615035 198.942667 
L 254.112244 198.942667 
L 254.112244 198.41842 
L 254.523208 198.41842 
L 254.523208 197.894172 
L 256.548442 197.894172 
L 256.548442 197.369924 
L 258.098431 197.369924 
L 258.098431 196.845677 
L 261.488085 196.845677 
L 261.488085 196.321429 
L 267.54022 196.321429 
L 267.54022 195.797181 
L 275.011065 195.797181 
L 275.011065 195.272933 
L 333.168 195.272933 
L 333.168 195.272933 
" style="fill:none;stroke:#000080;stroke-linecap:square;stroke-width:1.5;"/>
   </g>
   <g id="line2d_44">
    <defs>
     <path d="M 0 6 
C 1.591219 6 3.117479 5.367802 4.242641 4.242641 
C 5.367802 3.117479 6 1.591219 6 0 
C 6 -1.591219 5.367802 -3.117479 4.242641 -4.242641 
C 3.117479 -5.367802 1.591219 -6 0 -6 
C -1.591219 -6 -3.117479 -5.367802 -4.242641 -4.242641 
C -5.367802 -3.117479 -6 -1.591219 -6 0 
C -6 1.591219 -5.367802 3.117479 -4.242641 4.242641 
C -3.117479 5.367802 -1.591219 6 0 6 
z
" id="md695ec497b" style="stroke:#000080;stroke-width:1.5;"/>
    </defs>
    <g>
     <use style="fill:none;stroke:#000080;stroke-width:1.5;" x="206.349817" xlink:href="#md695ec497b" y="239.309742"/>
     <use style="fill:none;stroke:#000080;stroke-width:1.5;" x="261.488085" xlink:href="#md695ec497b" y="196.321429"/>
     <use style="fill:none;stroke:#000080;stroke-width:1.5;" x="275.011065" xlink:href="#md695ec497b" y="195.272933"/>
     <use style="fill:none;stroke:#000080;stroke-width:1.5;" x="275.011065" xlink:href="#md695ec497b" y="195.272933"/>
     <use style="fill:none;stroke:#000080;stroke-width:1.5;" x="333.168" xlink:href="#md695ec497b" y="195.272933"/>
    </g>
   </g>
   <g id="line2d_45">
    <path style="fill:none;stroke:#000080;stroke-linecap:square;stroke-width:1.5;"/>
    <g/>
   </g>
   <g id="line2d_46">
    <path clip-path="url(#pbcd463bffc)" d="M 202.81878 246.64921 
" style="fill:none;stroke:#000080;stroke-linecap:square;stroke-width:1.5;"/>
    <defs>
     <path d="M -12 12 
L 12 -12 
M -12 -12 
L 12 12 
" id="mc213babaf4" style="stroke:#000080;"/>
    </defs>
    <g clip-path="url(#pbcd463bffc)">
     <use style="fill:#000080;stroke:#000080;" x="202.81878" xlink:href="#mc213babaf4" y="246.64921"/>
    </g>
   </g>
   <g id="line2d_47">
    <defs>
     <path d="M 0 1.5 
C 0.397805 1.5 0.77937 1.341951 1.06066 1.06066 
C 1.341951 0.77937 1.5 0.397805 1.5 0 
C 1.5 -0.397805 1.341951 -0.77937 1.06066 -1.06066 
C 0.77937 -1.341951 0.397805 -1.5 0 -1.5 
C -0.397805 -1.5 -0.77937 -1.341951 -1.06066 -1.06066 
C -1.341951 -0.77937 -1.5 -0.397805 -1.5 0 
C -1.5 0.397805 -1.341951 0.77937 -1.06066 1.06066 
C -0.77937 1.341951 -0.397805 1.5 0 1.5 
z
" id="mf5b72537a6" style="stroke:#ff00ff;"/>
    </defs>
    <g>
     <use style="fill:#ff00ff;stroke:#ff00ff;" x="208.273881" xlink:href="#mf5b72537a6" y="27.513663"/>
     <use style="fill:#ff00ff;stroke:#ff00ff;" x="208.273881" xlink:href="#mf5b72537a6" y="27.513663"/>
    </g>
   </g>
   <g id="line2d_48">
    <path d="M 151.474248 294.88 
L 151.474248 294.355752 
L 151.87481 294.355752 
L 151.87481 293.831505 
L 152.242244 293.831505 
L 152.242244 293.307257 
L 152.581588 293.307257 
L 152.581588 292.783009 
L 153.236282 292.783009 
L 153.260448 291.734514 
L 153.73091 291.734514 
L 153.73091 291.210266 
L 153.954151 291.210266 
L 154.00626 290.161771 
L 154.130106 290.161771 
L 154.130106 289.637523 
L 154.400597 289.637523 
L 154.400597 289.113275 
L 154.527254 289.113275 
L 154.559472 288.06478 
L 154.733525 288.06478 
L 154.733525 287.540532 
L 154.861887 287.540532 
L 154.861887 287.016284 
L 155.118479 287.016284 
L 155.118479 286.492036 
L 155.329864 286.492036 
L 155.329864 285.967789 
L 155.636232 285.967789 
L 155.636232 285.443541 
L 155.862152 285.443541 
L 155.862152 284.919293 
L 155.99655 284.919293 
L 156.029986 283.870798 
L 156.13246 283.870798 
L 156.19747 282.298055 
L 156.331806 282.298055 
L 156.398582 281.249559 
L 156.573736 281.249559 
L 156.6371 280.201064 
L 156.935848 280.201064 
L 156.935848 279.676816 
L 157.09115 279.676816 
L 157.188707 278.628321 
L 157.260616 278.628321 
L 157.260616 278.104073 
L 157.562917 278.104073 
L 157.562917 277.579825 
L 158.109956 277.579825 
L 158.183788 276.53133 
L 158.480441 276.53133 
L 158.573767 275.482834 
L 158.5937 275.482834 
L 158.675404 274.434339 
L 159.132983 274.434339 
L 159.161917 272.861596 
L 159.302677 272.861596 
L 159.337688 271.8131 
L 159.697425 271.8131 
L 159.697425 271.288853 
L 159.877077 271.288853 
L 159.909913 269.716109 
L 160.128919 269.716109 
L 160.156225 268.143366 
L 160.516231 268.143366 
L 160.597188 267.094871 
L 160.651276 267.094871 
L 160.751137 266.046375 
L 161.041525 266.046375 
L 161.141058 264.473632 
L 161.161087 264.473632 
L 161.223881 263.425137 
L 161.356328 263.425137 
L 161.356328 262.900889 
L 161.542852 262.900889 
L 161.588471 261.852394 
L 161.73475 261.852394 
L 161.73475 261.328146 
L 162.122155 261.328146 
L 162.122155 260.803898 
L 162.361144 260.803898 
L 162.460414 258.706907 
L 162.610003 258.706907 
L 162.704365 257.658412 
L 162.721783 257.658412 
L 162.721783 257.134164 
L 162.944043 257.134164 
L 162.944043 256.609917 
L 163.0895 256.609917 
L 163.0895 256.085669 
L 163.221904 256.085669 
L 163.243872 255.037173 
L 163.360845 255.037173 
L 163.43115 253.46443 
L 163.509485 253.46443 
L 163.509485 252.940182 
L 163.74319 252.940182 
L 163.799693 251.891687 
L 163.912143 251.891687 
L 163.979424 250.843192 
L 164.035963 250.843192 
L 164.035963 250.318944 
L 164.220436 250.318944 
L 164.282549 249.270448 
L 164.389525 249.270448 
L 164.453392 248.221953 
L 164.553838 248.221953 
L 164.647475 247.173458 
L 165.120276 247.173458 
L 165.193556 245.600714 
L 165.283782 245.600714 
L 165.344417 244.552219 
L 165.44426 244.552219 
L 165.469502 243.503724 
L 165.733053 243.503724 
L 165.733053 242.979476 
L 165.869127 242.979476 
L 165.869127 242.455228 
L 166.020665 242.455228 
L 166.020665 241.93098 
L 166.200765 241.93098 
L 166.268881 240.882485 
L 166.359989 240.882485 
L 166.462524 238.785494 
L 166.531705 238.785494 
L 166.560274 237.736999 
L 166.885795 237.736999 
L 166.996793 235.640008 
L 167.246123 235.640008 
L 167.309561 234.591512 
L 167.500459 234.591512 
L 167.565594 233.543017 
L 167.711413 233.543017 
L 167.721828 232.494521 
L 168.023068 232.494521 
L 168.12571 230.921778 
L 168.228375 230.921778 
L 168.228375 230.397531 
L 168.440621 230.397531 
L 168.454346 229.349035 
L 168.602123 229.349035 
L 168.602123 228.824787 
L 168.727172 228.824787 
L 168.785382 227.776292 
L 168.899997 227.776292 
L 168.899997 227.252044 
L 169.020492 227.252044 
L 169.020492 226.727797 
L 169.152128 226.727797 
L 169.213693 225.679301 
L 169.296426 225.679301 
L 169.311264 224.630806 
L 169.789253 224.630806 
L 169.886489 223.58231 
L 170.100872 223.58231 
L 170.155747 222.009567 
L 170.335546 222.009567 
L 170.3389 220.961072 
L 170.681931 220.961072 
L 170.775349 219.912576 
L 170.823227 219.912576 
L 170.823227 219.388328 
L 171.373391 219.388328 
L 171.447949 218.339833 
L 171.563346 218.339833 
L 171.563346 217.815585 
L 172.128486 217.815585 
L 172.192823 216.242842 
L 172.401759 216.242842 
L 172.401759 215.718594 
L 172.72775 215.718594 
L 172.809259 214.670099 
L 173.336891 214.670099 
L 173.336891 214.145851 
L 173.526415 214.145851 
L 173.602383 213.097356 
L 174.070623 213.097356 
L 174.070623 212.573108 
L 174.560575 212.573108 
L 174.560575 212.04886 
L 174.926898 212.04886 
L 174.926898 211.524613 
L 175.471893 211.524613 
L 175.471893 211.000365 
L 177.383382 211.000365 
L 177.383382 210.476117 
L 177.511616 210.476117 
L 177.511616 209.95187 
L 179.394264 209.95187 
L 179.394264 209.427622 
L 180.476761 209.427622 
L 180.476761 208.903374 
L 181.093005 208.903374 
L 181.093005 208.379126 
L 181.237969 208.379126 
L 181.237969 207.854879 
L 181.784668 207.854879 
L 181.784668 207.330631 
L 181.917386 207.330631 
L 181.917386 206.806383 
L 182.028717 206.806383 
L 182.071975 205.757888 
L 182.203342 205.757888 
L 182.314234 204.185145 
L 182.557245 204.185145 
L 182.595361 203.136649 
L 182.765436 203.136649 
L 182.838508 201.563906 
L 182.949683 201.563906 
L 182.949683 201.039658 
L 183.078263 201.039658 
L 183.109129 199.466915 
L 183.301318 199.466915 
L 183.301318 198.942667 
L 183.43461 198.942667 
L 183.539415 197.369924 
L 183.692993 197.369924 
L 183.799049 196.321429 
L 183.845211 196.321429 
L 183.845211 195.797181 
L 184.061108 195.797181 
L 184.133894 194.224438 
L 184.257923 194.224438 
L 184.318736 193.175943 
L 184.455706 193.175943 
L 184.545928 191.603199 
L 184.574269 191.603199 
L 184.574269 191.078952 
L 184.731495 191.078952 
L 184.834236 189.506209 
L 184.854903 189.506209 
L 184.854903 188.981961 
L 184.998165 188.981961 
L 185.038845 187.409218 
L 185.118262 187.409218 
L 185.20861 185.836474 
L 185.285608 185.836474 
L 185.363662 184.263731 
L 185.45366 184.263731 
L 185.534419 182.16674 
L 185.565327 182.16674 
L 185.65382 180.06975 
L 185.827408 180.06975 
L 185.925852 178.497006 
L 185.960344 178.497006 
L 186.000384 177.448511 
L 186.073028 177.448511 
L 186.073028 176.924263 
L 186.254857 176.924263 
L 186.360134 174.827272 
L 186.375969 174.827272 
L 186.443105 173.778777 
L 186.494486 173.778777 
L 186.602649 172.206034 
L 186.64079 172.206034 
L 186.704961 170.633291 
L 186.857403 170.633291 
L 186.857403 170.109043 
L 186.978602 170.109043 
L 187.077863 168.5363 
L 187.110331 168.5363 
L 187.178651 167.487804 
L 187.296364 167.487804 
L 187.345261 165.915061 
L 187.428171 165.915061 
L 187.515415 163.81807 
L 187.682068 163.81807 
L 187.688993 162.769575 
L 187.825514 162.769575 
L 187.87555 161.721079 
L 187.969376 161.721079 
L 187.993404 160.672584 
L 188.097135 160.672584 
L 188.121977 159.624089 
L 188.314918 159.624089 
L 188.37471 158.051345 
L 188.482007 158.051345 
L 188.58342 156.478602 
L 188.641708 156.478602 
L 188.721485 155.430107 
L 188.760374 155.430107 
L 188.870242 153.333116 
L 188.901776 153.333116 
L 188.996786 151.760373 
L 189.143938 151.760373 
L 189.2231 150.711877 
L 189.257154 150.711877 
L 189.353738 148.614886 
L 189.448311 148.614886 
L 189.527916 147.566391 
L 189.939096 147.566391 
L 189.990655 145.993648 
L 190.116139 145.993648 
L 190.180917 144.420905 
L 190.253525 144.420905 
L 190.356894 142.323914 
L 190.400435 142.323914 
L 190.511052 141.275418 
L 190.514162 141.275418 
L 190.514162 140.751171 
L 190.641385 140.751171 
L 190.667094 139.702675 
L 190.839544 139.702675 
L 190.868344 138.65418 
L 190.983567 138.65418 
L 191.045499 136.557189 
L 191.095853 136.557189 
L 191.095853 136.032941 
L 191.211392 136.032941 
L 191.317752 134.984446 
L 191.361231 134.984446 
L 191.410341 133.411703 
L 191.550168 133.411703 
L 191.550168 132.887455 
L 191.764066 132.887455 
L 191.848853 130.790464 
L 192.029212 130.790464 
L 192.137406 129.217721 
L 192.222879 129.217721 
L 192.30575 128.169225 
L 192.3409 128.169225 
L 192.390237 127.12073 
L 192.469994 127.12073 
L 192.52834 125.547987 
L 192.630392 125.547987 
L 192.653903 123.975244 
L 192.774315 123.975244 
L 192.812905 122.4025 
L 192.906221 122.4025 
L 192.964906 121.354005 
L 193.126413 121.354005 
L 193.158 120.30551 
L 193.237967 120.30551 
L 193.321087 118.732766 
L 193.466787 118.732766 
L 193.522141 117.160023 
L 193.601592 117.160023 
L 193.603902 116.111528 
L 193.77327 116.111528 
L 193.777558 115.063032 
L 193.946082 115.063032 
L 193.946082 114.538785 
L 194.059629 114.538785 
L 194.109185 113.490289 
L 194.413613 113.490289 
L 194.413613 112.966042 
L 194.909756 112.966042 
L 194.909756 112.441794 
L 195.273177 112.441794 
L 195.273177 111.917546 
L 195.52598 111.917546 
L 195.52598 111.393298 
L 195.772192 111.393298 
L 195.852937 110.344803 
L 195.964163 110.344803 
L 196.002251 109.296308 
L 196.196029 109.296308 
L 196.296919 107.723564 
L 196.316163 107.723564 
L 196.316163 107.199317 
L 196.430076 107.199317 
L 196.430076 106.675069 
L 196.562817 106.675069 
L 196.606998 105.626573 
L 196.730684 105.626573 
L 196.772036 104.578078 
L 196.907891 104.578078 
L 196.982772 103.529583 
L 197.025416 103.529583 
L 197.064531 102.481087 
L 197.157881 102.481087 
L 197.257149 100.908344 
L 197.380779 100.908344 
L 197.458941 99.335601 
L 197.519514 99.335601 
L 197.613633 97.23861 
L 197.64242 97.23861 
L 197.64242 96.714362 
L 197.783256 96.714362 
L 197.786878 95.141619 
L 197.895527 95.141619 
L 198.000363 93.044628 
L 198.007739 93.044628 
L 198.088891 91.471885 
L 198.133983 91.471885 
L 198.199632 89.374894 
L 198.251266 89.374894 
L 198.352976 87.802151 
L 198.37738 87.802151 
L 198.461816 86.753656 
L 198.495952 86.753656 
L 198.604217 85.180912 
L 198.71856 85.180912 
L 198.823625 82.559674 
L 198.834277 82.559674 
L 198.889245 81.511178 
L 198.991903 81.511178 
L 199.044055 79.938435 
L 199.11125 79.938435 
L 199.197379 78.365692 
L 199.247873 78.365692 
L 199.316555 77.317197 
L 199.416597 77.317197 
L 199.510226 75.220206 
L 199.588881 75.220206 
L 199.652765 73.647463 
L 199.813255 73.647463 
L 199.909656 72.074719 
L 199.965383 72.074719 
L 200.066785 69.977729 
L 200.113012 69.977729 
L 200.16779 68.929233 
L 200.244088 68.929233 
L 200.342986 66.832242 
L 200.384294 66.832242 
L 200.483842 64.735251 
L 200.528673 64.735251 
L 200.624705 62.114013 
L 200.711612 62.114013 
L 200.76071 61.065517 
L 200.867666 61.065517 
L 200.915189 59.492774 
L 200.997358 59.492774 
L 201.000832 58.444279 
L 201.121417 58.444279 
L 201.191749 57.395783 
L 201.298833 57.395783 
L 201.374876 55.82304 
L 201.473523 55.82304 
L 201.494152 54.774545 
L 201.587764 54.774545 
L 201.686734 53.726049 
L 201.810502 53.726049 
L 201.917549 52.153306 
L 201.944141 52.153306 
L 202.018626 50.580563 
L 202.187063 50.580563 
L 202.283784 48.483572 
L 202.328595 48.483572 
L 202.328595 47.959324 
L 202.463972 47.959324 
L 202.560609 46.386581 
L 202.719426 46.386581 
L 202.719426 45.862334 
L 202.894792 45.862334 
L 202.919747 44.813838 
L 203.073713 44.813838 
L 203.121826 43.765343 
L 203.240988 43.765343 
L 203.285595 42.716847 
L 203.419459 42.716847 
L 203.497088 41.144104 
L 203.562483 41.144104 
L 203.664252 40.095609 
L 203.744708 40.095609 
L 203.744708 39.571361 
L 203.926921 39.571361 
L 204.021995 38.522865 
L 204.154252 38.522865 
L 204.154252 37.998618 
L 204.271613 37.998618 
L 204.271613 37.47437 
L 204.66537 37.47437 
L 204.756532 36.425875 
L 204.833773 36.425875 
L 204.833773 35.901627 
L 204.975602 35.901627 
L 204.975602 35.377379 
L 205.095274 35.377379 
L 205.154062 34.328884 
L 205.483977 34.328884 
L 205.552693 33.280388 
L 205.653537 33.280388 
L 205.653537 32.756141 
L 205.870024 32.756141 
L 205.932075 31.183397 
L 206.003168 31.183397 
L 206.077531 30.134902 
L 206.136471 30.134902 
L 206.217609 29.086407 
L 208.091895 29.086407 
L 208.189804 28.037911 
L 208.273881 28.037911 
L 208.273881 27.513663 
L 333.168 27.513663 
L 333.168 27.513663 
" style="fill:none;stroke:#ff00ff;stroke-linecap:square;stroke-width:1.5;"/>
   </g>
   <g id="line2d_49">
    <defs>
     <path d="M -0 8.485281 
L 5.091169 0 
L 0 -8.485281 
L -5.091169 -0 
z
" id="m6d6bf24c4c" style="stroke:#ff00ff;stroke-linejoin:miter;stroke-width:1.5;"/>
    </defs>
    <g>
     <use style="fill:none;stroke:#ff00ff;stroke-linejoin:miter;stroke-width:1.5;" x="205.653537" xlink:href="#m6d6bf24c4c" y="33.280388"/>
     <use style="fill:none;stroke:#ff00ff;stroke-linejoin:miter;stroke-width:1.5;" x="208.273881" xlink:href="#m6d6bf24c4c" y="27.513663"/>
     <use style="fill:none;stroke:#ff00ff;stroke-linejoin:miter;stroke-width:1.5;" x="208.273881" xlink:href="#m6d6bf24c4c" y="27.513663"/>
     <use style="fill:none;stroke:#ff00ff;stroke-linejoin:miter;stroke-width:1.5;" x="333.168" xlink:href="#m6d6bf24c4c" y="27.513663"/>
    </g>
   </g>
   <g id="line2d_50">
    <path style="fill:none;stroke:#ff00ff;stroke-linecap:square;stroke-width:1.5;"/>
    <g/>
   </g>
   <g id="line2d_51">
    <path d="M 333.168 195.272933 
L 363.64328 289.532673 
" style="fill:none;stroke:#000080;stroke-linecap:square;stroke-width:1.5;"/>
    <g>
     <use style="fill:none;stroke:#000080;stroke-width:1.5;" x="333.168" xlink:href="#md695ec497b" y="195.272933"/>
     <use style="fill:none;stroke:#000080;stroke-width:1.5;" x="363.64328" xlink:href="#md695ec497b" y="289.532673"/>
    </g>
   </g>
   <g id="line2d_52">
    <path d="M 333.168 27.513663 
L 363.64328 161.196832 
" style="fill:none;stroke:#ff00ff;stroke-linecap:square;stroke-width:1.5;"/>
    <g>
     <use style="fill:none;stroke:#ff00ff;stroke-linejoin:miter;stroke-width:1.5;" x="333.168" xlink:href="#m6d6bf24c4c" y="27.513663"/>
     <use style="fill:none;stroke:#ff00ff;stroke-linejoin:miter;stroke-width:1.5;" x="363.64328" xlink:href="#m6d6bf24c4c" y="161.196832"/>
    </g>
   </g>
   <g id="line2d_53">
    <path d="M 333.168 294.88 
L 333.168 27.513663 
" style="fill:none;stroke:#000000;stroke-linecap:square;stroke-width:1.5;"/>
   </g>
   <g id="patch_3">
    <path d="M 56.12 294.88 
L 56.12 24.84 
" style="fill:none;stroke:#000000;stroke-linecap:square;stroke-linejoin:miter;stroke-width:0.8;"/>
   </g>
   <g id="patch_4">
    <path d="M 333.168 294.88 
L 333.168 24.84 
" style="fill:none;stroke:#000000;stroke-linecap:square;stroke-linejoin:miter;stroke-width:0.8;"/>
   </g>
   <g id="patch_5">
    <path d="M 56.12 294.88 
L 333.168 294.88 
" style="fill:none;stroke:#000000;stroke-linecap:square;stroke-linejoin:miter;stroke-width:0.8;"/>
   </g>
   <g id="patch_6">
    <path d="M 56.12 24.84 
L 333.168 24.84 
" style="fill:none;stroke:#000000;stroke-linecap:square;stroke-linejoin:miter;stroke-width:0.8;"/>
   </g>
   <g id="text_13">
    <!-- CMA ES PPM -->
    <defs>
     <path d="M 64.40625 67.28125 
L 64.40625 56.890625 
Q 59.421875 61.53125 53.78125 63.8125 
Q 48.140625 66.109375 41.796875 66.109375 
Q 29.296875 66.109375 22.65625 58.46875 
Q 16.015625 50.828125 16.015625 36.375 
Q 16.015625 21.96875 22.65625 14.328125 
Q 29.296875 6.6875 41.796875 6.6875 
Q 48.140625 6.6875 53.78125 8.984375 
Q 59.421875 11.28125 64.40625 15.921875 
L 64.40625 5.609375 
Q 59.234375 2.09375 53.4375 0.328125 
Q 47.65625 -1.421875 41.21875 -1.421875 
Q 24.65625 -1.421875 15.125 8.703125 
Q 5.609375 18.84375 5.609375 36.375 
Q 5.609375 53.953125 15.125 64.078125 
Q 24.65625 74.21875 41.21875 74.21875 
Q 47.75 74.21875 53.53125 72.484375 
Q 59.328125 70.75 64.40625 67.28125 
z
" id="DejaVuSans-43"/>
     <path d="M 9.8125 72.90625 
L 24.515625 72.90625 
L 43.109375 23.296875 
L 61.8125 72.90625 
L 76.515625 72.90625 
L 76.515625 0 
L 66.890625 0 
L 66.890625 64.015625 
L 48.09375 14.015625 
L 38.1875 14.015625 
L 19.390625 64.015625 
L 19.390625 0 
L 9.8125 0 
z
" id="DejaVuSans-4d"/>
     <path d="M 34.1875 63.1875 
L 20.796875 26.90625 
L 47.609375 26.90625 
z
M 28.609375 72.90625 
L 39.796875 72.90625 
L 67.578125 0 
L 57.328125 0 
L 50.6875 18.703125 
L 17.828125 18.703125 
L 11.1875 0 
L 0.78125 0 
z
" id="DejaVuSans-41"/>
     <path d="M 9.8125 72.90625 
L 55.90625 72.90625 
L 55.90625 64.59375 
L 19.671875 64.59375 
L 19.671875 43.015625 
L 54.390625 43.015625 
L 54.390625 34.71875 
L 19.671875 34.71875 
L 19.671875 8.296875 
L 56.78125 8.296875 
L 56.78125 0 
L 9.8125 0 
z
" id="DejaVuSans-45"/>
     <path d="M 53.515625 70.515625 
L 53.515625 60.890625 
Q 47.90625 63.578125 42.921875 64.890625 
Q 37.9375 66.21875 33.296875 66.21875 
Q 25.25 66.21875 20.875 63.09375 
Q 16.5 59.96875 16.5 54.203125 
Q 16.5 49.359375 19.40625 46.890625 
Q 22.3125 44.4375 30.421875 42.921875 
L 36.375 41.703125 
Q 47.40625 39.59375 52.65625 34.296875 
Q 57.90625 29 57.90625 20.125 
Q 57.90625 9.515625 50.796875 4.046875 
Q 43.703125 -1.421875 29.984375 -1.421875 
Q 24.8125 -1.421875 18.96875 -0.25 
Q 13.140625 0.921875 6.890625 3.21875 
L 6.890625 13.375 
Q 12.890625 10.015625 18.65625 8.296875 
Q 24.421875 6.59375 29.984375 6.59375 
Q 38.421875 6.59375 43.015625 9.90625 
Q 47.609375 13.234375 47.609375 19.390625 
Q 47.609375 24.75 44.3125 27.78125 
Q 41.015625 30.8125 33.5 32.328125 
L 27.484375 33.5 
Q 16.453125 35.6875 11.515625 40.375 
Q 6.59375 45.0625 6.59375 53.421875 
Q 6.59375 63.09375 13.40625 68.65625 
Q 20.21875 74.21875 32.171875 74.21875 
Q 37.3125 74.21875 42.625 73.28125 
Q 47.953125 72.359375 53.515625 70.515625 
z
" id="DejaVuSans-53"/>
     <path d="M 19.671875 64.796875 
L 19.671875 37.40625 
L 32.078125 37.40625 
Q 38.96875 37.40625 42.71875 40.96875 
Q 46.484375 44.53125 46.484375 51.125 
Q 46.484375 57.671875 42.71875 61.234375 
Q 38.96875 64.796875 32.078125 64.796875 
z
M 9.8125 72.90625 
L 32.078125 72.90625 
Q 44.34375 72.90625 50.609375 67.359375 
Q 56.890625 61.8125 56.890625 51.125 
Q 56.890625 40.328125 50.609375 34.8125 
Q 44.34375 29.296875 32.078125 29.296875 
L 19.671875 29.296875 
L 19.671875 0 
L 9.8125 0 
z
" id="DejaVuSans-50"/>
    </defs>
    <g transform="translate(369.18424 294.223611)scale(0.17 -0.17)">
     <use xlink:href="#DejaVuSans-43"/>
     <use x="69.824219" xlink:href="#DejaVuSans-4d"/>
     <use x="156.103516" xlink:href="#DejaVuSans-41"/>
     <use x="224.511719" xlink:href="#DejaVuSans-20"/>
     <use x="256.298828" xlink:href="#DejaVuSans-45"/>
     <use x="319.482422" xlink:href="#DejaVuSans-53"/>
     <use x="382.958984" xlink:href="#DejaVuSans-20"/>
     <use x="414.746094" xlink:href="#DejaVuSans-50"/>
     <use x="475.048828" xlink:href="#DejaVuSans-50"/>
     <use x="535.351562" xlink:href="#DejaVuSans-4d"/>
    </g>
   </g>
   <g id="text_14">
    <!-- CMA ES CSA -->
    <g transform="translate(369.18424 165.887769)scale(0.17 -0.17)">
     <use xlink:href="#DejaVuSans-43"/>
     <use x="69.824219" xlink:href="#DejaVuSans-4d"/>
     <use x="156.103516" xlink:href="#DejaVuSans-41"/>
     <use x="224.511719" xlink:href="#DejaVuSans-20"/>
     <use x="256.298828" xlink:href="#DejaVuSans-45"/>
     <use x="319.482422" xlink:href="#DejaVuSans-53"/>
     <use x="382.958984" xlink:href="#DejaVuSans-20"/>
     <use x="414.746094" xlink:href="#DejaVuSans-43"/>
     <use x="484.570312" xlink:href="#DejaVuSans-53"/>
     <use x="548.0625" xlink:href="#DejaVuSans-41"/>
    </g>
   </g>
   <g id="text_15">
    <!-- best 2009 -->
    <defs>
     <path d="M 48.6875 27.296875 
Q 48.6875 37.203125 44.609375 42.84375 
Q 40.53125 48.484375 33.40625 48.484375 
Q 26.265625 48.484375 22.1875 42.84375 
Q 18.109375 37.203125 18.109375 27.296875 
Q 18.109375 17.390625 22.1875 11.75 
Q 26.265625 6.109375 33.40625 6.109375 
Q 40.53125 6.109375 44.609375 11.75 
Q 48.6875 17.390625 48.6875 27.296875 
z
M 18.109375 46.390625 
Q 20.953125 51.265625 25.265625 53.625 
Q 29.59375 56 35.59375 56 
Q 45.5625 56 51.78125 48.09375 
Q 58.015625 40.1875 58.015625 27.296875 
Q 58.015625 14.40625 51.78125 6.484375 
Q 45.5625 -1.421875 35.59375 -1.421875 
Q 29.59375 -1.421875 25.265625 0.953125 
Q 20.953125 3.328125 18.109375 8.203125 
L 18.109375 0 
L 9.078125 0 
L 9.078125 75.984375 
L 18.109375 75.984375 
z
" id="DejaVuSans-62"/>
     <path d="M 10.984375 1.515625 
L 10.984375 10.5 
Q 14.703125 8.734375 18.5 7.8125 
Q 22.3125 6.890625 25.984375 6.890625 
Q 35.75 6.890625 40.890625 13.453125 
Q 46.046875 20.015625 46.78125 33.40625 
Q 43.953125 29.203125 39.59375 26.953125 
Q 35.25 24.703125 29.984375 24.703125 
Q 19.046875 24.703125 12.671875 31.3125 
Q 6.296875 37.9375 6.296875 49.421875 
Q 6.296875 60.640625 12.9375 67.421875 
Q 19.578125 74.21875 30.609375 74.21875 
Q 43.265625 74.21875 49.921875 64.515625 
Q 56.59375 54.828125 56.59375 36.375 
Q 56.59375 19.140625 48.40625 8.859375 
Q 40.234375 -1.421875 26.421875 -1.421875 
Q 22.703125 -1.421875 18.890625 -0.6875 
Q 15.09375 0.046875 10.984375 1.515625 
z
M 30.609375 32.421875 
Q 37.25 32.421875 41.125 36.953125 
Q 45.015625 41.5 45.015625 49.421875 
Q 45.015625 57.28125 41.125 61.84375 
Q 37.25 66.40625 30.609375 66.40625 
Q 23.96875 66.40625 20.09375 61.84375 
Q 16.21875 57.28125 16.21875 49.421875 
Q 16.21875 41.5 20.09375 36.953125 
Q 23.96875 32.421875 30.609375 32.421875 
z
" id="DejaVuSans-39"/>
    </defs>
    <g transform="translate(369.18424 37.551928)scale(0.17 -0.17)">
     <use xlink:href="#DejaVuSans-62"/>
     <use x="63.476562" xlink:href="#DejaVuSans-65"/>
     <use x="125" xlink:href="#DejaVuSans-73"/>
     <use x="177.099609" xlink:href="#DejaVuSans-74"/>
     <use x="216.308594" xlink:href="#DejaVuSans-20"/>
     <use x="248.095703" xlink:href="#DejaVuSans-32"/>
     <use x="311.71875" xlink:href="#DejaVuSans-30"/>
     <use x="375.341797" xlink:href="#DejaVuSans-30"/>
     <use x="438.964844" xlink:href="#DejaVuSans-39"/>
    </g>
   </g>
   <g id="text_16">
    <!-- bbob f13, 40-D -->
    <defs>
     <path d="M 40.578125 39.3125 
Q 47.65625 37.796875 51.625 33 
Q 55.609375 28.21875 55.609375 21.1875 
Q 55.609375 10.40625 48.1875 4.484375 
Q 40.765625 -1.421875 27.09375 -1.421875 
Q 22.515625 -1.421875 17.65625 -0.515625 
Q 12.796875 0.390625 7.625 2.203125 
L 7.625 11.71875 
Q 11.71875 9.328125 16.59375 8.109375 
Q 21.484375 6.890625 26.8125 6.890625 
Q 36.078125 6.890625 40.9375 10.546875 
Q 45.796875 14.203125 45.796875 21.1875 
Q 45.796875 27.640625 41.28125 31.265625 
Q 36.765625 34.90625 28.71875 34.90625 
L 20.21875 34.90625 
L 20.21875 43.015625 
L 29.109375 43.015625 
Q 36.375 43.015625 40.234375 45.921875 
Q 44.09375 48.828125 44.09375 54.296875 
Q 44.09375 59.90625 40.109375 62.90625 
Q 36.140625 65.921875 28.71875 65.921875 
Q 24.65625 65.921875 20.015625 65.03125 
Q 15.375 64.15625 9.8125 62.3125 
L 9.8125 71.09375 
Q 15.4375 72.65625 20.34375 73.4375 
Q 25.25 74.21875 29.59375 74.21875 
Q 40.828125 74.21875 47.359375 69.109375 
Q 53.90625 64.015625 53.90625 55.328125 
Q 53.90625 49.265625 50.4375 45.09375 
Q 46.96875 40.921875 40.578125 39.3125 
z
" id="DejaVuSans-33"/>
     <path d="M 19.671875 64.796875 
L 19.671875 8.109375 
L 31.59375 8.109375 
Q 46.6875 8.109375 53.6875 14.9375 
Q 60.6875 21.78125 60.6875 36.53125 
Q 60.6875 51.171875 53.6875 57.984375 
Q 46.6875 64.796875 31.59375 64.796875 
z
M 9.8125 72.90625 
L 30.078125 72.90625 
Q 51.265625 72.90625 61.171875 64.09375 
Q 71.09375 55.28125 71.09375 36.53125 
Q 71.09375 17.671875 61.125 8.828125 
Q 51.171875 0 30.078125 0 
L 9.8125 0 
z
" id="DejaVuSans-44"/>
    </defs>
    <g transform="translate(58.89048 35.290806)scale(0.102 -0.102)">
     <use xlink:href="#DejaVuSans-62"/>
     <use x="63.476562" xlink:href="#DejaVuSans-62"/>
     <use x="126.953125" xlink:href="#DejaVuSans-6f"/>
     <use x="188.134766" xlink:href="#DejaVuSans-62"/>
     <use x="251.611328" xlink:href="#DejaVuSans-20"/>
     <use x="283.398438" xlink:href="#DejaVuSans-66"/>
     <use x="318.603516" xlink:href="#DejaVuSans-31"/>
     <use x="382.226562" xlink:href="#DejaVuSans-33"/>
     <use x="445.849609" xlink:href="#DejaVuSans-2c"/>
     <use x="477.636719" xlink:href="#DejaVuSans-20"/>
     <use x="509.423828" xlink:href="#DejaVuSans-34"/>
     <use x="573.046875" xlink:href="#DejaVuSans-30"/>
     <use x="636.669922" xlink:href="#DejaVuSans-2d"/>
     <use x="672.753906" xlink:href="#DejaVuSans-44"/>
    </g>
    <!-- 51 targets: 100..1e-08 -->
    <defs>
     <path d="M 10.796875 72.90625 
L 49.515625 72.90625 
L 49.515625 64.59375 
L 19.828125 64.59375 
L 19.828125 46.734375 
Q 21.96875 47.46875 24.109375 47.828125 
Q 26.265625 48.1875 28.421875 48.1875 
Q 40.625 48.1875 47.75 41.5 
Q 54.890625 34.8125 54.890625 23.390625 
Q 54.890625 11.625 47.5625 5.09375 
Q 40.234375 -1.421875 26.90625 -1.421875 
Q 22.3125 -1.421875 17.546875 -0.640625 
Q 12.796875 0.140625 7.71875 1.703125 
L 7.71875 11.625 
Q 12.109375 9.234375 16.796875 8.0625 
Q 21.484375 6.890625 26.703125 6.890625 
Q 35.15625 6.890625 40.078125 11.328125 
Q 45.015625 15.765625 45.015625 23.390625 
Q 45.015625 31 40.078125 35.4375 
Q 35.15625 39.890625 26.703125 39.890625 
Q 22.75 39.890625 18.8125 39.015625 
Q 14.890625 38.140625 10.796875 36.28125 
z
" id="DejaVuSans-35"/>
     <path d="M 11.71875 12.40625 
L 22.015625 12.40625 
L 22.015625 0 
L 11.71875 0 
z
M 11.71875 51.703125 
L 22.015625 51.703125 
L 22.015625 39.3125 
L 11.71875 39.3125 
z
" id="DejaVuSans-3a"/>
    </defs>
    <g transform="translate(58.89048 46.712575)scale(0.102 -0.102)">
     <use xlink:href="#DejaVuSans-35"/>
     <use x="63.623047" xlink:href="#DejaVuSans-31"/>
     <use x="127.246094" xlink:href="#DejaVuSans-20"/>
     <use x="159.033203" xlink:href="#DejaVuSans-74"/>
     <use x="198.242188" xlink:href="#DejaVuSans-61"/>
     <use x="259.521484" xlink:href="#DejaVuSans-72"/>
     <use x="300.619141" xlink:href="#DejaVuSans-67"/>
     <use x="364.095703" xlink:href="#DejaVuSans-65"/>
     <use x="425.619141" xlink:href="#DejaVuSans-74"/>
     <use x="464.828125" xlink:href="#DejaVuSans-73"/>
     <use x="516.927734" xlink:href="#DejaVuSans-3a"/>
     <use x="550.619141" xlink:href="#DejaVuSans-20"/>
     <use x="582.40625" xlink:href="#DejaVuSans-31"/>
     <use x="646.029297" xlink:href="#DejaVuSans-30"/>
     <use x="709.652344" xlink:href="#DejaVuSans-30"/>
     <use x="773.275391" xlink:href="#DejaVuSans-2e"/>
     <use x="805.0625" xlink:href="#DejaVuSans-2e"/>
     <use x="836.849609" xlink:href="#DejaVuSans-31"/>
     <use x="900.472656" xlink:href="#DejaVuSans-65"/>
     <use x="961.996094" xlink:href="#DejaVuSans-2d"/>
     <use x="998.080078" xlink:href="#DejaVuSans-30"/>
     <use x="1061.703125" xlink:href="#DejaVuSans-38"/>
    </g>
    <!-- 15 instances -->
    <g transform="translate(58.89048 58.134344)scale(0.102 -0.102)">
     <use xlink:href="#DejaVuSans-31"/>
     <use x="63.623047" xlink:href="#DejaVuSans-35"/>
     <use x="127.246094" xlink:href="#DejaVuSans-20"/>
     <use x="159.033203" xlink:href="#DejaVuSans-69"/>
     <use x="186.816406" xlink:href="#DejaVuSans-6e"/>
     <use x="250.195312" xlink:href="#DejaVuSans-73"/>
     <use x="302.294922" xlink:href="#DejaVuSans-74"/>
     <use x="341.503906" xlink:href="#DejaVuSans-61"/>
     <use x="402.783203" xlink:href="#DejaVuSans-6e"/>
     <use x="466.162109" xlink:href="#DejaVuSans-63"/>
     <use x="521.142578" xlink:href="#DejaVuSans-65"/>
     <use x="582.666016" xlink:href="#DejaVuSans-73"/>
    </g>
   </g>
   <g id="text_17">
    <!-- v0.0.0 -->
    <g style="fill:#808080;" transform="translate(178.96275 290.099912)scale(0.1 -0.1)">
     <use xlink:href="#DejaVuSans-76"/>
     <use x="59.179688" xlink:href="#DejaVuSans-30"/>
     <use x="122.802734" xlink:href="#DejaVuSans-2e"/>
     <use x="154.589844" xlink:href="#DejaVuSans-30"/>
     <use x="218.212891" xlink:href="#DejaVuSans-2e"/>
     <use x="250" xlink:href="#DejaVuSans-30"/>
    </g>
   </g>
   <g id="text_18">
    <!-- 13 Sharp ridge -->
    <defs>
     <path d="M 54.890625 33.015625 
L 54.890625 0 
L 45.90625 0 
L 45.90625 32.71875 
Q 45.90625 40.484375 42.875 44.328125 
Q 39.84375 48.1875 33.796875 48.1875 
Q 26.515625 48.1875 22.3125 43.546875 
Q 18.109375 38.921875 18.109375 30.90625 
L 18.109375 0 
L 9.078125 0 
L 9.078125 75.984375 
L 18.109375 75.984375 
L 18.109375 46.1875 
Q 21.34375 51.125 25.703125 53.5625 
Q 30.078125 56 35.796875 56 
Q 45.21875 56 50.046875 50.171875 
Q 54.890625 44.34375 54.890625 33.015625 
z
" id="DejaVuSans-68"/>
    </defs>
    <g transform="translate(120.55025 18.84)scale(0.2 -0.2)">
     <use xlink:href="#DejaVuSans-31"/>
     <use x="63.623047" xlink:href="#DejaVuSans-33"/>
     <use x="127.246094" xlink:href="#DejaVuSans-20"/>
     <use x="159.033203" xlink:href="#DejaVuSans-53"/>
     <use x="222.509766" xlink:href="#DejaVuSans-68"/>
     <use x="285.888672" xlink:href="#DejaVuSans-61"/>
     <use x="347.167969" xlink:href="#DejaVuSans-72"/>
     <use x="388.28125" xlink:href="#DejaVuSans-70"/>
     <use x="451.757812" xlink:href="#DejaVuSans-20"/>
     <use x="483.544922" xlink:href="#DejaVuSans-72"/>
     <use x="524.658203" xlink:href="#DejaVuSans-69"/>
     <use x="552.441406" xlink:href="#DejaVuSans-64"/>
     <use x="615.917969" xlink:href="#DejaVuSans-67"/>
     <use x="679.394531" xlink:href="#DejaVuSans-65"/>
    </g>
   </g>
  </g>
 </g>
 <defs>
  <clipPath id="pbcd463bffc">
   <rect height="270.04" width="277.048" x="56.12" y="24.84"/>
  </clipPath>
 </defs>
</svg>
