<?xml version="1.0" encoding="utf-8" standalone="no"?>
<!DOCTYPE svg PUBLIC "-//W3C//DTD SVG 1.1//EN"
  "http://www.w3.org/Graphics/SVG/1.1/DTD/svg11.dtd">
<!-- Created with matplotlib (http://matplotlib.org/) -->
<svg height="345pt" version="1.1" viewBox="0 0 460 345" width="460pt" xmlns="http://www.w3.org/2000/svg" xmlns:xlink="http://www.w3.org/1999/xlink">
 <defs>
  <style type="text/css">
*{stroke-linecap:butt;stroke-linejoin:round;}
  </style>
 </defs>
 <g id="figure_1">
  <g id="patch_1">
   <path d="M 0 345.6 
L 460.8 345.6 
L 460.8 0 
L 0 0 
z
" style="fill:#ffffff;"/>
  </g>
  <g id="axes_1">
   <g id="patch_2">
    <path d="M 56.12 294.88 
L 333.168 294.88 
L 333.168 24.84 
L 56.12 24.84 
z
" style="fill:#ffffff;"/>
   </g>
   <g id="line2d_1">
    <path d="M 49.15061 294.88 
L 49.15061 289.637523 
L 68.034251 289.637523 
L 68.034251 284.395046 
L 79.948502 284.395046 
L 79.948502 279.152568 
L 89.567532 279.152568 
L 89.567532 273.910091 
L 109.76392 273.910091 
L 109.76392 268.667614 
L 119.669433 268.667614 
L 119.669433 263.425137 
L 130.023386 263.425137 
L 130.023386 258.18266 
L 140.307161 258.18266 
L 140.307161 252.940182 
L 147.643181 252.940182 
L 147.643181 247.697705 
L 161.040245 247.697705 
L 161.040245 242.455228 
L 161.407456 242.455228 
L 161.407456 237.212751 
L 187.274402 237.212751 
L 187.274402 231.970274 
L 187.321627 231.970274 
L 187.321627 226.727797 
L 187.388078 226.727797 
L 187.388078 221.485319 
L 187.476282 221.485319 
L 187.476282 216.242842 
L 187.56677 216.242842 
L 187.56677 211.000365 
L 187.618654 211.000365 
L 187.618654 205.757888 
L 188.295007 205.757888 
L 188.295007 200.515411 
L 192.130015 200.515411 
L 192.130015 195.272933 
L 192.228302 195.272933 
L 192.228302 190.030456 
L 192.309434 190.030456 
L 192.309434 184.787979 
L 192.34468 184.787979 
L 192.34468 179.545502 
L 192.412893 179.545502 
L 192.412893 174.303025 
L 192.474671 174.303025 
L 192.474671 169.060547 
L 192.556698 169.060547 
L 192.556698 163.81807 
L 192.611845 163.81807 
L 192.611845 158.575593 
L 192.634262 158.575593 
L 192.634262 153.333116 
L 192.717559 153.333116 
L 192.717559 148.090639 
L 192.792385 148.090639 
L 192.792385 142.848162 
L 192.840747 142.848162 
L 192.840747 137.605684 
L 192.933062 137.605684 
L 192.933062 132.363207 
L 193.032845 132.363207 
L 193.032845 127.12073 
L 193.108295 127.12073 
L 193.108295 121.878253 
L 193.147873 121.878253 
L 193.147873 116.635776 
L 193.224788 116.635776 
L 193.224788 111.393298 
L 193.32681 111.393298 
L 193.32681 106.150821 
L 193.356127 106.150821 
L 193.356127 100.908344 
L 193.414612 100.908344 
L 193.414612 95.665867 
L 193.467078 95.665867 
L 193.467078 90.42339 
L 193.565747 90.42339 
L 193.565747 85.180912 
L 193.577318 85.180912 
L 193.577318 79.938435 
L 193.64466 79.938435 
L 193.64466 74.695958 
L 193.692601 74.695958 
L 193.692601 69.453481 
L 193.740408 69.453481 
L 193.740408 64.211004 
L 193.805214 64.211004 
L 193.805214 58.968526 
L 193.816624 58.968526 
L 193.816624 53.726049 
L 193.903857 53.726049 
L 193.903857 48.483572 
L 193.981237 48.483572 
L 193.981237 43.241095 
L 194.082623 43.241095 
L 194.082623 37.998618 
L 194.12189 37.998618 
L 194.12189 32.756141 
L 194.213165 32.756141 
L 194.213165 27.513663 
L 333.168 27.513663 
" style="fill:none;stroke:#f5deb3;stroke-linecap:square;stroke-width:4;"/>
   </g>
   <g id="line2d_2">
    <defs>
     <path d="M -0 7.778175 
L 7.778175 0 
L 0 -7.778175 
L -7.778175 -0 
z
" id="m7b9f73d2d3" style="stroke:#f5deb3;stroke-linejoin:miter;stroke-width:1.5;"/>
    </defs>
    <g>
     <use style="fill:#f5deb3;stroke:#f5deb3;stroke-linejoin:miter;stroke-width:1.5;" x="147.643181" xlink:href="#m7b9f73d2d3" y="247.697705"/>
     <use style="fill:#f5deb3;stroke:#f5deb3;stroke-linejoin:miter;stroke-width:1.5;" x="192.840747" xlink:href="#m7b9f73d2d3" y="137.605684"/>
     <use style="fill:#f5deb3;stroke:#f5deb3;stroke-linejoin:miter;stroke-width:1.5;" x="194.213165" xlink:href="#m7b9f73d2d3" y="32.756141"/>
     <use style="fill:#f5deb3;stroke:#f5deb3;stroke-linejoin:miter;stroke-width:1.5;" x="194.213165" xlink:href="#m7b9f73d2d3" y="27.513663"/>
     <use style="fill:#f5deb3;stroke:#f5deb3;stroke-linejoin:miter;stroke-width:1.5;" x="194.213165" xlink:href="#m7b9f73d2d3" y="27.513663"/>
     <use style="fill:#f5deb3;stroke:#f5deb3;stroke-linejoin:miter;stroke-width:1.5;" x="333.168" xlink:href="#m7b9f73d2d3" y="27.513663"/>
    </g>
   </g>
   <g id="line2d_3">
    <path style="fill:none;stroke:#f5deb3;stroke-linecap:square;stroke-width:4;"/>
    <g/>
   </g>
   <g id="line2d_4">
    <path d="M 333.168 27.513663 
L 363.64328 32.86099 
" style="fill:none;stroke:#f5deb3;stroke-linecap:square;stroke-width:4;"/>
    <g>
     <use style="fill:#f5deb3;stroke:#f5deb3;stroke-linejoin:miter;stroke-width:1.5;" x="333.168" xlink:href="#m7b9f73d2d3" y="27.513663"/>
     <use style="fill:#f5deb3;stroke:#f5deb3;stroke-linejoin:miter;stroke-width:1.5;" x="363.64328" xlink:href="#m7b9f73d2d3" y="32.86099"/>
    </g>
   </g>
   <g id="matplotlib.axis_1">
    <g id="xtick_1">
     <g id="line2d_5">
      <path clip-path="url(#p5e63870685)" d="M 56.12 294.88 
L 56.12 24.84 
" style="fill:none;stroke:#b0b0b0;stroke-linecap:square;stroke-width:0.8;"/>
     </g>
     <g id="line2d_6">
      <defs>
       <path d="M 0 0 
L 0 3.5 
" id="mfbbdd1d573" style="stroke:#000000;stroke-width:0.8;"/>
      </defs>
      <g>
       <use style="stroke:#000000;stroke-width:0.8;" x="56.12" xlink:href="#mfbbdd1d573" y="294.88"/>
      </g>
     </g>
     <g id="text_1">
      <!-- 0 -->
      <defs>
       <path d="M 31.78125 66.40625 
Q 24.171875 66.40625 20.328125 58.90625 
Q 16.5 51.421875 16.5 36.375 
Q 16.5 21.390625 20.328125 13.890625 
Q 24.171875 6.390625 31.78125 6.390625 
Q 39.453125 6.390625 43.28125 13.890625 
Q 47.125 21.390625 47.125 36.375 
Q 47.125 51.421875 43.28125 58.90625 
Q 39.453125 66.40625 31.78125 66.40625 
z
M 31.78125 74.21875 
Q 44.046875 74.21875 50.515625 64.515625 
Q 56.984375 54.828125 56.984375 36.375 
Q 56.984375 17.96875 50.515625 8.265625 
Q 44.046875 -1.421875 31.78125 -1.421875 
Q 19.53125 -1.421875 13.0625 8.265625 
Q 6.59375 17.96875 6.59375 36.375 
Q 6.59375 54.828125 13.0625 64.515625 
Q 19.53125 74.21875 31.78125 74.21875 
z
" id="DejaVuSans-30"/>
      </defs>
      <g transform="translate(49.7575 317.076875)scale(0.2 -0.2)">
       <use xlink:href="#DejaVuSans-30"/>
      </g>
     </g>
    </g>
    <g id="xtick_2">
     <g id="line2d_7">
      <path clip-path="url(#p5e63870685)" d="M 135.276571 294.88 
L 135.276571 24.84 
" style="fill:none;stroke:#b0b0b0;stroke-linecap:square;stroke-width:0.8;"/>
     </g>
     <g id="line2d_8">
      <g>
       <use style="stroke:#000000;stroke-width:0.8;" x="135.276571" xlink:href="#mfbbdd1d573" y="294.88"/>
      </g>
     </g>
     <g id="text_2">
      <!-- 2 -->
      <defs>
       <path d="M 19.1875 8.296875 
L 53.609375 8.296875 
L 53.609375 0 
L 7.328125 0 
L 7.328125 8.296875 
Q 12.9375 14.109375 22.625 23.890625 
Q 32.328125 33.6875 34.8125 36.53125 
Q 39.546875 41.84375 41.421875 45.53125 
Q 43.3125 49.21875 43.3125 52.78125 
Q 43.3125 58.59375 39.234375 62.25 
Q 35.15625 65.921875 28.609375 65.921875 
Q 23.96875 65.921875 18.8125 64.3125 
Q 13.671875 62.703125 7.8125 59.421875 
L 7.8125 69.390625 
Q 13.765625 71.78125 18.9375 73 
Q 24.125 74.21875 28.421875 74.21875 
Q 39.75 74.21875 46.484375 68.546875 
Q 53.21875 62.890625 53.21875 53.421875 
Q 53.21875 48.921875 51.53125 44.890625 
Q 49.859375 40.875 45.40625 35.40625 
Q 44.1875 33.984375 37.640625 27.21875 
Q 31.109375 20.453125 19.1875 8.296875 
z
" id="DejaVuSans-32"/>
      </defs>
      <g transform="translate(128.914071 317.076875)scale(0.2 -0.2)">
       <use xlink:href="#DejaVuSans-32"/>
      </g>
     </g>
    </g>
    <g id="xtick_3">
     <g id="line2d_9">
      <path clip-path="url(#p5e63870685)" d="M 214.433143 294.88 
L 214.433143 24.84 
" style="fill:none;stroke:#b0b0b0;stroke-linecap:square;stroke-width:0.8;"/>
     </g>
     <g id="line2d_10">
      <g>
       <use style="stroke:#000000;stroke-width:0.8;" x="214.433143" xlink:href="#mfbbdd1d573" y="294.88"/>
      </g>
     </g>
     <g id="text_3">
      <!-- 4 -->
      <defs>
       <path d="M 37.796875 64.3125 
L 12.890625 25.390625 
L 37.796875 25.390625 
z
M 35.203125 72.90625 
L 47.609375 72.90625 
L 47.609375 25.390625 
L 58.015625 25.390625 
L 58.015625 17.1875 
L 47.609375 17.1875 
L 47.609375 0 
L 37.796875 0 
L 37.796875 17.1875 
L 4.890625 17.1875 
L 4.890625 26.703125 
z
" id="DejaVuSans-34"/>
      </defs>
      <g transform="translate(208.070643 317.076875)scale(0.2 -0.2)">
       <use xlink:href="#DejaVuSans-34"/>
      </g>
     </g>
    </g>
    <g id="xtick_4">
     <g id="line2d_11">
      <path clip-path="url(#p5e63870685)" d="M 293.589714 294.88 
L 293.589714 24.84 
" style="fill:none;stroke:#b0b0b0;stroke-linecap:square;stroke-width:0.8;"/>
     </g>
     <g id="line2d_12">
      <g>
       <use style="stroke:#000000;stroke-width:0.8;" x="293.589714" xlink:href="#mfbbdd1d573" y="294.88"/>
      </g>
     </g>
     <g id="text_4">
      <!-- 6 -->
      <defs>
       <path d="M 33.015625 40.375 
Q 26.375 40.375 22.484375 35.828125 
Q 18.609375 31.296875 18.609375 23.390625 
Q 18.609375 15.53125 22.484375 10.953125 
Q 26.375 6.390625 33.015625 6.390625 
Q 39.65625 6.390625 43.53125 10.953125 
Q 47.40625 15.53125 47.40625 23.390625 
Q 47.40625 31.296875 43.53125 35.828125 
Q 39.65625 40.375 33.015625 40.375 
z
M 52.59375 71.296875 
L 52.59375 62.3125 
Q 48.875 64.0625 45.09375 64.984375 
Q 41.3125 65.921875 37.59375 65.921875 
Q 27.828125 65.921875 22.671875 59.328125 
Q 17.53125 52.734375 16.796875 39.40625 
Q 19.671875 43.65625 24.015625 45.921875 
Q 28.375 48.1875 33.59375 48.1875 
Q 44.578125 48.1875 50.953125 41.515625 
Q 57.328125 34.859375 57.328125 23.390625 
Q 57.328125 12.15625 50.6875 5.359375 
Q 44.046875 -1.421875 33.015625 -1.421875 
Q 20.359375 -1.421875 13.671875 8.265625 
Q 6.984375 17.96875 6.984375 36.375 
Q 6.984375 53.65625 15.1875 63.9375 
Q 23.390625 74.21875 37.203125 74.21875 
Q 40.921875 74.21875 44.703125 73.484375 
Q 48.484375 72.75 52.59375 71.296875 
z
" id="DejaVuSans-36"/>
      </defs>
      <g transform="translate(287.227214 317.076875)scale(0.2 -0.2)">
       <use xlink:href="#DejaVuSans-36"/>
      </g>
     </g>
    </g>
    <g id="xtick_5">
     <g id="line2d_13">
      <path clip-path="url(#p5e63870685)" d="M 56.12 294.88 
L 56.12 24.84 
" style="fill:none;stroke:#b0b0b0;stroke-linecap:square;stroke-width:0.8;"/>
     </g>
     <g id="line2d_14">
      <defs>
       <path d="M 0 0 
L 0 2 
" id="m79dfa44f64" style="stroke:#000000;stroke-width:0.6;"/>
      </defs>
      <g>
       <use style="stroke:#000000;stroke-width:0.6;" x="56.12" xlink:href="#m79dfa44f64" y="294.88"/>
      </g>
     </g>
    </g>
    <g id="xtick_6">
     <g id="line2d_15">
      <path clip-path="url(#p5e63870685)" d="M 95.698286 294.88 
L 95.698286 24.84 
" style="fill:none;stroke:#b0b0b0;stroke-linecap:square;stroke-width:0.8;"/>
     </g>
     <g id="line2d_16">
      <g>
       <use style="stroke:#000000;stroke-width:0.6;" x="95.698286" xlink:href="#m79dfa44f64" y="294.88"/>
      </g>
     </g>
    </g>
    <g id="xtick_7">
     <g id="line2d_17">
      <path clip-path="url(#p5e63870685)" d="M 135.276571 294.88 
L 135.276571 24.84 
" style="fill:none;stroke:#b0b0b0;stroke-linecap:square;stroke-width:0.8;"/>
     </g>
     <g id="line2d_18">
      <g>
       <use style="stroke:#000000;stroke-width:0.6;" x="135.276571" xlink:href="#m79dfa44f64" y="294.88"/>
      </g>
     </g>
    </g>
    <g id="xtick_8">
     <g id="line2d_19">
      <path clip-path="url(#p5e63870685)" d="M 174.854857 294.88 
L 174.854857 24.84 
" style="fill:none;stroke:#b0b0b0;stroke-linecap:square;stroke-width:0.8;"/>
     </g>
     <g id="line2d_20">
      <g>
       <use style="stroke:#000000;stroke-width:0.6;" x="174.854857" xlink:href="#m79dfa44f64" y="294.88"/>
      </g>
     </g>
    </g>
    <g id="xtick_9">
     <g id="line2d_21">
      <path clip-path="url(#p5e63870685)" d="M 214.433143 294.88 
L 214.433143 24.84 
" style="fill:none;stroke:#b0b0b0;stroke-linecap:square;stroke-width:0.8;"/>
     </g>
     <g id="line2d_22">
      <g>
       <use style="stroke:#000000;stroke-width:0.6;" x="214.433143" xlink:href="#m79dfa44f64" y="294.88"/>
      </g>
     </g>
    </g>
    <g id="xtick_10">
     <g id="line2d_23">
      <path clip-path="url(#p5e63870685)" d="M 254.011429 294.88 
L 254.011429 24.84 
" style="fill:none;stroke:#b0b0b0;stroke-linecap:square;stroke-width:0.8;"/>
     </g>
     <g id="line2d_24">
      <g>
       <use style="stroke:#000000;stroke-width:0.6;" x="254.011429" xlink:href="#m79dfa44f64" y="294.88"/>
      </g>
     </g>
    </g>
    <g id="xtick_11">
     <g id="line2d_25">
      <path clip-path="url(#p5e63870685)" d="M 293.589714 294.88 
L 293.589714 24.84 
" style="fill:none;stroke:#b0b0b0;stroke-linecap:square;stroke-width:0.8;"/>
     </g>
     <g id="line2d_26">
      <g>
       <use style="stroke:#000000;stroke-width:0.6;" x="293.589714" xlink:href="#m79dfa44f64" y="294.88"/>
      </g>
     </g>
    </g>
    <g id="xtick_12">
     <g id="line2d_27">
      <path clip-path="url(#p5e63870685)" d="M 333.168 294.88 
L 333.168 24.84 
" style="fill:none;stroke:#b0b0b0;stroke-linecap:square;stroke-width:0.8;"/>
     </g>
     <g id="line2d_28">
      <g>
       <use style="stroke:#000000;stroke-width:0.6;" x="333.168" xlink:href="#m79dfa44f64" y="294.88"/>
      </g>
     </g>
    </g>
    <g id="text_5">
     <!-- log10(# f-evals / dimension) -->
     <defs>
      <path d="M 9.421875 75.984375 
L 18.40625 75.984375 
L 18.40625 0 
L 9.421875 0 
z
" id="DejaVuSans-6c"/>
      <path d="M 30.609375 48.390625 
Q 23.390625 48.390625 19.1875 42.75 
Q 14.984375 37.109375 14.984375 27.296875 
Q 14.984375 17.484375 19.15625 11.84375 
Q 23.34375 6.203125 30.609375 6.203125 
Q 37.796875 6.203125 41.984375 11.859375 
Q 46.1875 17.53125 46.1875 27.296875 
Q 46.1875 37.015625 41.984375 42.703125 
Q 37.796875 48.390625 30.609375 48.390625 
z
M 30.609375 56 
Q 42.328125 56 49.015625 48.375 
Q 55.71875 40.765625 55.71875 27.296875 
Q 55.71875 13.875 49.015625 6.21875 
Q 42.328125 -1.421875 30.609375 -1.421875 
Q 18.84375 -1.421875 12.171875 6.21875 
Q 5.515625 13.875 5.515625 27.296875 
Q 5.515625 40.765625 12.171875 48.375 
Q 18.84375 56 30.609375 56 
z
" id="DejaVuSans-6f"/>
      <path d="M 45.40625 27.984375 
Q 45.40625 37.75 41.375 43.109375 
Q 37.359375 48.484375 30.078125 48.484375 
Q 22.859375 48.484375 18.828125 43.109375 
Q 14.796875 37.75 14.796875 27.984375 
Q 14.796875 18.265625 18.828125 12.890625 
Q 22.859375 7.515625 30.078125 7.515625 
Q 37.359375 7.515625 41.375 12.890625 
Q 45.40625 18.265625 45.40625 27.984375 
z
M 54.390625 6.78125 
Q 54.390625 -7.171875 48.1875 -13.984375 
Q 42 -20.796875 29.203125 -20.796875 
Q 24.46875 -20.796875 20.265625 -20.09375 
Q 16.0625 -19.390625 12.109375 -17.921875 
L 12.109375 -9.1875 
Q 16.0625 -11.328125 19.921875 -12.34375 
Q 23.78125 -13.375 27.78125 -13.375 
Q 36.625 -13.375 41.015625 -8.765625 
Q 45.40625 -4.15625 45.40625 5.171875 
L 45.40625 9.625 
Q 42.625 4.78125 38.28125 2.390625 
Q 33.9375 0 27.875 0 
Q 17.828125 0 11.671875 7.65625 
Q 5.515625 15.328125 5.515625 27.984375 
Q 5.515625 40.671875 11.671875 48.328125 
Q 17.828125 56 27.875 56 
Q 33.9375 56 38.28125 53.609375 
Q 42.625 51.21875 45.40625 46.390625 
L 45.40625 54.6875 
L 54.390625 54.6875 
z
" id="DejaVuSans-67"/>
      <path d="M 12.40625 8.296875 
L 28.515625 8.296875 
L 28.515625 63.921875 
L 10.984375 60.40625 
L 10.984375 69.390625 
L 28.421875 72.90625 
L 38.28125 72.90625 
L 38.28125 8.296875 
L 54.390625 8.296875 
L 54.390625 0 
L 12.40625 0 
z
" id="DejaVuSans-31"/>
      <path d="M 31 75.875 
Q 24.46875 64.65625 21.28125 53.65625 
Q 18.109375 42.671875 18.109375 31.390625 
Q 18.109375 20.125 21.3125 9.0625 
Q 24.515625 -2 31 -13.1875 
L 23.1875 -13.1875 
Q 15.875 -1.703125 12.234375 9.375 
Q 8.59375 20.453125 8.59375 31.390625 
Q 8.59375 42.28125 12.203125 53.3125 
Q 15.828125 64.359375 23.1875 75.875 
z
" id="DejaVuSans-28"/>
      <path d="M 51.125 44 
L 36.921875 44 
L 32.8125 27.6875 
L 47.125 27.6875 
z
M 43.796875 71.78125 
L 38.71875 51.515625 
L 52.984375 51.515625 
L 58.109375 71.78125 
L 65.921875 71.78125 
L 60.890625 51.515625 
L 76.125 51.515625 
L 76.125 44 
L 58.984375 44 
L 54.984375 27.6875 
L 70.515625 27.6875 
L 70.515625 20.21875 
L 53.078125 20.21875 
L 48 0 
L 40.1875 0 
L 45.21875 20.21875 
L 30.90625 20.21875 
L 25.875 0 
L 18.015625 0 
L 23.09375 20.21875 
L 7.71875 20.21875 
L 7.71875 27.6875 
L 24.90625 27.6875 
L 29 44 
L 13.28125 44 
L 13.28125 51.515625 
L 30.90625 51.515625 
L 35.890625 71.78125 
z
" id="DejaVuSans-23"/>
      <path id="DejaVuSans-20"/>
      <path d="M 37.109375 75.984375 
L 37.109375 68.5 
L 28.515625 68.5 
Q 23.6875 68.5 21.796875 66.546875 
Q 19.921875 64.59375 19.921875 59.515625 
L 19.921875 54.6875 
L 34.71875 54.6875 
L 34.71875 47.703125 
L 19.921875 47.703125 
L 19.921875 0 
L 10.890625 0 
L 10.890625 47.703125 
L 2.296875 47.703125 
L 2.296875 54.6875 
L 10.890625 54.6875 
L 10.890625 58.5 
Q 10.890625 67.625 15.140625 71.796875 
Q 19.390625 75.984375 28.609375 75.984375 
z
" id="DejaVuSans-66"/>
      <path d="M 4.890625 31.390625 
L 31.203125 31.390625 
L 31.203125 23.390625 
L 4.890625 23.390625 
z
" id="DejaVuSans-2d"/>
      <path d="M 56.203125 29.59375 
L 56.203125 25.203125 
L 14.890625 25.203125 
Q 15.484375 15.921875 20.484375 11.0625 
Q 25.484375 6.203125 34.421875 6.203125 
Q 39.59375 6.203125 44.453125 7.46875 
Q 49.3125 8.734375 54.109375 11.28125 
L 54.109375 2.78125 
Q 49.265625 0.734375 44.1875 -0.34375 
Q 39.109375 -1.421875 33.890625 -1.421875 
Q 20.796875 -1.421875 13.15625 6.1875 
Q 5.515625 13.8125 5.515625 26.8125 
Q 5.515625 40.234375 12.765625 48.109375 
Q 20.015625 56 32.328125 56 
Q 43.359375 56 49.78125 48.890625 
Q 56.203125 41.796875 56.203125 29.59375 
z
M 47.21875 32.234375 
Q 47.125 39.59375 43.09375 43.984375 
Q 39.0625 48.390625 32.421875 48.390625 
Q 24.90625 48.390625 20.390625 44.140625 
Q 15.875 39.890625 15.1875 32.171875 
z
" id="DejaVuSans-65"/>
      <path d="M 2.984375 54.6875 
L 12.5 54.6875 
L 29.59375 8.796875 
L 46.6875 54.6875 
L 56.203125 54.6875 
L 35.6875 0 
L 23.484375 0 
z
" id="DejaVuSans-76"/>
      <path d="M 34.28125 27.484375 
Q 23.390625 27.484375 19.1875 25 
Q 14.984375 22.515625 14.984375 16.5 
Q 14.984375 11.71875 18.140625 8.90625 
Q 21.296875 6.109375 26.703125 6.109375 
Q 34.1875 6.109375 38.703125 11.40625 
Q 43.21875 16.703125 43.21875 25.484375 
L 43.21875 27.484375 
z
M 52.203125 31.203125 
L 52.203125 0 
L 43.21875 0 
L 43.21875 8.296875 
Q 40.140625 3.328125 35.546875 0.953125 
Q 30.953125 -1.421875 24.3125 -1.421875 
Q 15.921875 -1.421875 10.953125 3.296875 
Q 6 8.015625 6 15.921875 
Q 6 25.140625 12.171875 29.828125 
Q 18.359375 34.515625 30.609375 34.515625 
L 43.21875 34.515625 
L 43.21875 35.40625 
Q 43.21875 41.609375 39.140625 45 
Q 35.0625 48.390625 27.6875 48.390625 
Q 23 48.390625 18.546875 47.265625 
Q 14.109375 46.140625 10.015625 43.890625 
L 10.015625 52.203125 
Q 14.9375 54.109375 19.578125 55.046875 
Q 24.21875 56 28.609375 56 
Q 40.484375 56 46.34375 49.84375 
Q 52.203125 43.703125 52.203125 31.203125 
z
" id="DejaVuSans-61"/>
      <path d="M 44.28125 53.078125 
L 44.28125 44.578125 
Q 40.484375 46.53125 36.375 47.5 
Q 32.28125 48.484375 27.875 48.484375 
Q 21.1875 48.484375 17.84375 46.4375 
Q 14.5 44.390625 14.5 40.28125 
Q 14.5 37.15625 16.890625 35.375 
Q 19.28125 33.59375 26.515625 31.984375 
L 29.59375 31.296875 
Q 39.15625 29.25 43.1875 25.515625 
Q 47.21875 21.78125 47.21875 15.09375 
Q 47.21875 7.46875 41.1875 3.015625 
Q 35.15625 -1.421875 24.609375 -1.421875 
Q 20.21875 -1.421875 15.453125 -0.5625 
Q 10.6875 0.296875 5.421875 2 
L 5.421875 11.28125 
Q 10.40625 8.6875 15.234375 7.390625 
Q 20.0625 6.109375 24.8125 6.109375 
Q 31.15625 6.109375 34.5625 8.28125 
Q 37.984375 10.453125 37.984375 14.40625 
Q 37.984375 18.0625 35.515625 20.015625 
Q 33.0625 21.96875 24.703125 23.78125 
L 21.578125 24.515625 
Q 13.234375 26.265625 9.515625 29.90625 
Q 5.8125 33.546875 5.8125 39.890625 
Q 5.8125 47.609375 11.28125 51.796875 
Q 16.75 56 26.8125 56 
Q 31.78125 56 36.171875 55.265625 
Q 40.578125 54.546875 44.28125 53.078125 
z
" id="DejaVuSans-73"/>
      <path d="M 25.390625 72.90625 
L 33.6875 72.90625 
L 8.296875 -9.28125 
L 0 -9.28125 
z
" id="DejaVuSans-2f"/>
      <path d="M 45.40625 46.390625 
L 45.40625 75.984375 
L 54.390625 75.984375 
L 54.390625 0 
L 45.40625 0 
L 45.40625 8.203125 
Q 42.578125 3.328125 38.25 0.953125 
Q 33.9375 -1.421875 27.875 -1.421875 
Q 17.96875 -1.421875 11.734375 6.484375 
Q 5.515625 14.40625 5.515625 27.296875 
Q 5.515625 40.1875 11.734375 48.09375 
Q 17.96875 56 27.875 56 
Q 33.9375 56 38.25 53.625 
Q 42.578125 51.265625 45.40625 46.390625 
z
M 14.796875 27.296875 
Q 14.796875 17.390625 18.875 11.75 
Q 22.953125 6.109375 30.078125 6.109375 
Q 37.203125 6.109375 41.296875 11.75 
Q 45.40625 17.390625 45.40625 27.296875 
Q 45.40625 37.203125 41.296875 42.84375 
Q 37.203125 48.484375 30.078125 48.484375 
Q 22.953125 48.484375 18.875 42.84375 
Q 14.796875 37.203125 14.796875 27.296875 
z
" id="DejaVuSans-64"/>
      <path d="M 9.421875 54.6875 
L 18.40625 54.6875 
L 18.40625 0 
L 9.421875 0 
z
M 9.421875 75.984375 
L 18.40625 75.984375 
L 18.40625 64.59375 
L 9.421875 64.59375 
z
" id="DejaVuSans-69"/>
      <path d="M 52 44.1875 
Q 55.375 50.25 60.0625 53.125 
Q 64.75 56 71.09375 56 
Q 79.640625 56 84.28125 50.015625 
Q 88.921875 44.046875 88.921875 33.015625 
L 88.921875 0 
L 79.890625 0 
L 79.890625 32.71875 
Q 79.890625 40.578125 77.09375 44.375 
Q 74.3125 48.1875 68.609375 48.1875 
Q 61.625 48.1875 57.5625 43.546875 
Q 53.515625 38.921875 53.515625 30.90625 
L 53.515625 0 
L 44.484375 0 
L 44.484375 32.71875 
Q 44.484375 40.625 41.703125 44.40625 
Q 38.921875 48.1875 33.109375 48.1875 
Q 26.21875 48.1875 22.15625 43.53125 
Q 18.109375 38.875 18.109375 30.90625 
L 18.109375 0 
L 9.078125 0 
L 9.078125 54.6875 
L 18.109375 54.6875 
L 18.109375 46.1875 
Q 21.1875 51.21875 25.484375 53.609375 
Q 29.78125 56 35.6875 56 
Q 41.65625 56 45.828125 52.96875 
Q 50 49.953125 52 44.1875 
z
" id="DejaVuSans-6d"/>
      <path d="M 54.890625 33.015625 
L 54.890625 0 
L 45.90625 0 
L 45.90625 32.71875 
Q 45.90625 40.484375 42.875 44.328125 
Q 39.84375 48.1875 33.796875 48.1875 
Q 26.515625 48.1875 22.3125 43.546875 
Q 18.109375 38.921875 18.109375 30.90625 
L 18.109375 0 
L 9.078125 0 
L 9.078125 54.6875 
L 18.109375 54.6875 
L 18.109375 46.1875 
Q 21.34375 51.125 25.703125 53.5625 
Q 30.078125 56 35.796875 56 
Q 45.21875 56 50.046875 50.171875 
Q 54.890625 44.34375 54.890625 33.015625 
z
" id="DejaVuSans-6e"/>
      <path d="M 8.015625 75.875 
L 15.828125 75.875 
Q 23.140625 64.359375 26.78125 53.3125 
Q 30.421875 42.28125 30.421875 31.390625 
Q 30.421875 20.453125 26.78125 9.375 
Q 23.140625 -1.703125 15.828125 -13.1875 
L 8.015625 -13.1875 
Q 14.5 -2 17.703125 9.0625 
Q 20.90625 20.125 20.90625 31.390625 
Q 20.90625 42.671875 17.703125 53.65625 
Q 14.5 64.65625 8.015625 75.875 
z
" id="DejaVuSans-29"/>
     </defs>
     <g transform="translate(73.803219 338.153594)scale(0.17 -0.17)">
      <use xlink:href="#DejaVuSans-6c"/>
      <use x="27.783203" xlink:href="#DejaVuSans-6f"/>
      <use x="88.964844" xlink:href="#DejaVuSans-67"/>
      <use x="152.441406" xlink:href="#DejaVuSans-31"/>
      <use x="216.064453" xlink:href="#DejaVuSans-30"/>
      <use x="279.6875" xlink:href="#DejaVuSans-28"/>
      <use x="318.701172" xlink:href="#DejaVuSans-23"/>
      <use x="402.490234" xlink:href="#DejaVuSans-20"/>
      <use x="434.277344" xlink:href="#DejaVuSans-66"/>
      <use x="469.404297" xlink:href="#DejaVuSans-2d"/>
      <use x="505.488281" xlink:href="#DejaVuSans-65"/>
      <use x="567.011719" xlink:href="#DejaVuSans-76"/>
      <use x="626.191406" xlink:href="#DejaVuSans-61"/>
      <use x="687.470703" xlink:href="#DejaVuSans-6c"/>
      <use x="715.253906" xlink:href="#DejaVuSans-73"/>
      <use x="767.353516" xlink:href="#DejaVuSans-20"/>
      <use x="799.140625" xlink:href="#DejaVuSans-2f"/>
      <use x="832.832031" xlink:href="#DejaVuSans-20"/>
      <use x="864.619141" xlink:href="#DejaVuSans-64"/>
      <use x="928.095703" xlink:href="#DejaVuSans-69"/>
      <use x="955.878906" xlink:href="#DejaVuSans-6d"/>
      <use x="1053.291016" xlink:href="#DejaVuSans-65"/>
      <use x="1114.814453" xlink:href="#DejaVuSans-6e"/>
      <use x="1178.193359" xlink:href="#DejaVuSans-73"/>
      <use x="1230.292969" xlink:href="#DejaVuSans-69"/>
      <use x="1258.076172" xlink:href="#DejaVuSans-6f"/>
      <use x="1319.257812" xlink:href="#DejaVuSans-6e"/>
      <use x="1382.636719" xlink:href="#DejaVuSans-29"/>
     </g>
    </g>
   </g>
   <g id="matplotlib.axis_2">
    <g id="ytick_1">
     <g id="line2d_29">
      <path clip-path="url(#p5e63870685)" d="M 56.12 294.88 
L 333.168 294.88 
" style="fill:none;stroke:#b0b0b0;stroke-linecap:square;stroke-width:0.8;"/>
     </g>
     <g id="line2d_30">
      <defs>
       <path d="M 0 0 
L -3.5 0 
" id="m4a9f307b84" style="stroke:#000000;stroke-width:0.8;"/>
      </defs>
      <g>
       <use style="stroke:#000000;stroke-width:0.8;" x="56.12" xlink:href="#m4a9f307b84" y="294.88"/>
      </g>
     </g>
     <g id="text_6">
      <!-- 0.0 -->
      <defs>
       <path d="M 10.6875 12.40625 
L 21 12.40625 
L 21 0 
L 10.6875 0 
z
" id="DejaVuSans-2e"/>
      </defs>
      <g transform="translate(23.675 300.95875)scale(0.16 -0.16)">
       <use xlink:href="#DejaVuSans-30"/>
       <use x="63.623047" xlink:href="#DejaVuSans-2e"/>
       <use x="95.410156" xlink:href="#DejaVuSans-30"/>
      </g>
     </g>
    </g>
    <g id="ytick_2">
     <g id="line2d_31">
      <path clip-path="url(#p5e63870685)" d="M 56.12 241.406733 
L 333.168 241.406733 
" style="fill:none;stroke:#b0b0b0;stroke-linecap:square;stroke-width:0.8;"/>
     </g>
     <g id="line2d_32">
      <g>
       <use style="stroke:#000000;stroke-width:0.8;" x="56.12" xlink:href="#m4a9f307b84" y="241.406733"/>
      </g>
     </g>
     <g id="text_7">
      <!-- 0.2 -->
      <g transform="translate(23.675 247.485483)scale(0.16 -0.16)">
       <use xlink:href="#DejaVuSans-30"/>
       <use x="63.623047" xlink:href="#DejaVuSans-2e"/>
       <use x="95.410156" xlink:href="#DejaVuSans-32"/>
      </g>
     </g>
    </g>
    <g id="ytick_3">
     <g id="line2d_33">
      <path clip-path="url(#p5e63870685)" d="M 56.12 187.933465 
L 333.168 187.933465 
" style="fill:none;stroke:#b0b0b0;stroke-linecap:square;stroke-width:0.8;"/>
     </g>
     <g id="line2d_34">
      <g>
       <use style="stroke:#000000;stroke-width:0.8;" x="56.12" xlink:href="#m4a9f307b84" y="187.933465"/>
      </g>
     </g>
     <g id="text_8">
      <!-- 0.4 -->
      <g transform="translate(23.675 194.012215)scale(0.16 -0.16)">
       <use xlink:href="#DejaVuSans-30"/>
       <use x="63.623047" xlink:href="#DejaVuSans-2e"/>
       <use x="95.410156" xlink:href="#DejaVuSans-34"/>
      </g>
     </g>
    </g>
    <g id="ytick_4">
     <g id="line2d_35">
      <path clip-path="url(#p5e63870685)" d="M 56.12 134.460198 
L 333.168 134.460198 
" style="fill:none;stroke:#b0b0b0;stroke-linecap:square;stroke-width:0.8;"/>
     </g>
     <g id="line2d_36">
      <g>
       <use style="stroke:#000000;stroke-width:0.8;" x="56.12" xlink:href="#m4a9f307b84" y="134.460198"/>
      </g>
     </g>
     <g id="text_9">
      <!-- 0.6 -->
      <g transform="translate(23.675 140.538948)scale(0.16 -0.16)">
       <use xlink:href="#DejaVuSans-30"/>
       <use x="63.623047" xlink:href="#DejaVuSans-2e"/>
       <use x="95.410156" xlink:href="#DejaVuSans-36"/>
      </g>
     </g>
    </g>
    <g id="ytick_5">
     <g id="line2d_37">
      <path clip-path="url(#p5e63870685)" d="M 56.12 80.986931 
L 333.168 80.986931 
" style="fill:none;stroke:#b0b0b0;stroke-linecap:square;stroke-width:0.8;"/>
     </g>
     <g id="line2d_38">
      <g>
       <use style="stroke:#000000;stroke-width:0.8;" x="56.12" xlink:href="#m4a9f307b84" y="80.986931"/>
      </g>
     </g>
     <g id="text_10">
      <!-- 0.8 -->
      <defs>
       <path d="M 31.78125 34.625 
Q 24.75 34.625 20.71875 30.859375 
Q 16.703125 27.09375 16.703125 20.515625 
Q 16.703125 13.921875 20.71875 10.15625 
Q 24.75 6.390625 31.78125 6.390625 
Q 38.8125 6.390625 42.859375 10.171875 
Q 46.921875 13.96875 46.921875 20.515625 
Q 46.921875 27.09375 42.890625 30.859375 
Q 38.875 34.625 31.78125 34.625 
z
M 21.921875 38.8125 
Q 15.578125 40.375 12.03125 44.71875 
Q 8.5 49.078125 8.5 55.328125 
Q 8.5 64.0625 14.71875 69.140625 
Q 20.953125 74.21875 31.78125 74.21875 
Q 42.671875 74.21875 48.875 69.140625 
Q 55.078125 64.0625 55.078125 55.328125 
Q 55.078125 49.078125 51.53125 44.71875 
Q 48 40.375 41.703125 38.8125 
Q 48.828125 37.15625 52.796875 32.3125 
Q 56.78125 27.484375 56.78125 20.515625 
Q 56.78125 9.90625 50.3125 4.234375 
Q 43.84375 -1.421875 31.78125 -1.421875 
Q 19.734375 -1.421875 13.25 4.234375 
Q 6.78125 9.90625 6.78125 20.515625 
Q 6.78125 27.484375 10.78125 32.3125 
Q 14.796875 37.15625 21.921875 38.8125 
z
M 18.3125 54.390625 
Q 18.3125 48.734375 21.84375 45.5625 
Q 25.390625 42.390625 31.78125 42.390625 
Q 38.140625 42.390625 41.71875 45.5625 
Q 45.3125 48.734375 45.3125 54.390625 
Q 45.3125 60.0625 41.71875 63.234375 
Q 38.140625 66.40625 31.78125 66.40625 
Q 25.390625 66.40625 21.84375 63.234375 
Q 18.3125 60.0625 18.3125 54.390625 
z
" id="DejaVuSans-38"/>
      </defs>
      <g transform="translate(23.675 87.065681)scale(0.16 -0.16)">
       <use xlink:href="#DejaVuSans-30"/>
       <use x="63.623047" xlink:href="#DejaVuSans-2e"/>
       <use x="95.410156" xlink:href="#DejaVuSans-38"/>
      </g>
     </g>
    </g>
    <g id="ytick_6">
     <g id="line2d_39">
      <path clip-path="url(#p5e63870685)" d="M 56.12 27.513663 
L 333.168 27.513663 
" style="fill:none;stroke:#b0b0b0;stroke-linecap:square;stroke-width:0.8;"/>
     </g>
     <g id="line2d_40">
      <g>
       <use style="stroke:#000000;stroke-width:0.8;" x="56.12" xlink:href="#m4a9f307b84" y="27.513663"/>
      </g>
     </g>
     <g id="text_11">
      <!-- 1.0 -->
      <g transform="translate(23.675 33.592413)scale(0.16 -0.16)">
       <use xlink:href="#DejaVuSans-31"/>
       <use x="63.623047" xlink:href="#DejaVuSans-2e"/>
       <use x="95.410156" xlink:href="#DejaVuSans-30"/>
      </g>
     </g>
    </g>
    <g id="text_12">
     <!-- Fraction of function,target pairs -->
     <defs>
      <path d="M 9.8125 72.90625 
L 51.703125 72.90625 
L 51.703125 64.59375 
L 19.671875 64.59375 
L 19.671875 43.109375 
L 48.578125 43.109375 
L 48.578125 34.8125 
L 19.671875 34.8125 
L 19.671875 0 
L 9.8125 0 
z
" id="DejaVuSans-46"/>
      <path d="M 41.109375 46.296875 
Q 39.59375 47.171875 37.8125 47.578125 
Q 36.03125 48 33.890625 48 
Q 26.265625 48 22.1875 43.046875 
Q 18.109375 38.09375 18.109375 28.8125 
L 18.109375 0 
L 9.078125 0 
L 9.078125 54.6875 
L 18.109375 54.6875 
L 18.109375 46.1875 
Q 20.953125 51.171875 25.484375 53.578125 
Q 30.03125 56 36.53125 56 
Q 37.453125 56 38.578125 55.875 
Q 39.703125 55.765625 41.0625 55.515625 
z
" id="DejaVuSans-72"/>
      <path d="M 48.78125 52.59375 
L 48.78125 44.1875 
Q 44.96875 46.296875 41.140625 47.34375 
Q 37.3125 48.390625 33.40625 48.390625 
Q 24.65625 48.390625 19.8125 42.84375 
Q 14.984375 37.3125 14.984375 27.296875 
Q 14.984375 17.28125 19.8125 11.734375 
Q 24.65625 6.203125 33.40625 6.203125 
Q 37.3125 6.203125 41.140625 7.25 
Q 44.96875 8.296875 48.78125 10.40625 
L 48.78125 2.09375 
Q 45.015625 0.34375 40.984375 -0.53125 
Q 36.96875 -1.421875 32.421875 -1.421875 
Q 20.0625 -1.421875 12.78125 6.34375 
Q 5.515625 14.109375 5.515625 27.296875 
Q 5.515625 40.671875 12.859375 48.328125 
Q 20.21875 56 33.015625 56 
Q 37.15625 56 41.109375 55.140625 
Q 45.0625 54.296875 48.78125 52.59375 
z
" id="DejaVuSans-63"/>
      <path d="M 18.3125 70.21875 
L 18.3125 54.6875 
L 36.8125 54.6875 
L 36.8125 47.703125 
L 18.3125 47.703125 
L 18.3125 18.015625 
Q 18.3125 11.328125 20.140625 9.421875 
Q 21.96875 7.515625 27.59375 7.515625 
L 36.8125 7.515625 
L 36.8125 0 
L 27.59375 0 
Q 17.1875 0 13.234375 3.875 
Q 9.28125 7.765625 9.28125 18.015625 
L 9.28125 47.703125 
L 2.6875 47.703125 
L 2.6875 54.6875 
L 9.28125 54.6875 
L 9.28125 70.21875 
z
" id="DejaVuSans-74"/>
      <path d="M 8.5 21.578125 
L 8.5 54.6875 
L 17.484375 54.6875 
L 17.484375 21.921875 
Q 17.484375 14.15625 20.5 10.265625 
Q 23.53125 6.390625 29.59375 6.390625 
Q 36.859375 6.390625 41.078125 11.03125 
Q 45.3125 15.671875 45.3125 23.6875 
L 45.3125 54.6875 
L 54.296875 54.6875 
L 54.296875 0 
L 45.3125 0 
L 45.3125 8.40625 
Q 42.046875 3.421875 37.71875 1 
Q 33.40625 -1.421875 27.6875 -1.421875 
Q 18.265625 -1.421875 13.375 4.4375 
Q 8.5 10.296875 8.5 21.578125 
z
M 31.109375 56 
z
" id="DejaVuSans-75"/>
      <path d="M 11.71875 12.40625 
L 22.015625 12.40625 
L 22.015625 4 
L 14.015625 -11.625 
L 7.71875 -11.625 
L 11.71875 4 
z
" id="DejaVuSans-2c"/>
      <path d="M 18.109375 8.203125 
L 18.109375 -20.796875 
L 9.078125 -20.796875 
L 9.078125 54.6875 
L 18.109375 54.6875 
L 18.109375 46.390625 
Q 20.953125 51.265625 25.265625 53.625 
Q 29.59375 56 35.59375 56 
Q 45.5625 56 51.78125 48.09375 
Q 58.015625 40.1875 58.015625 27.296875 
Q 58.015625 14.40625 51.78125 6.484375 
Q 45.5625 -1.421875 35.59375 -1.421875 
Q 29.59375 -1.421875 25.265625 0.953125 
Q 20.953125 3.328125 18.109375 8.203125 
z
M 48.6875 27.296875 
Q 48.6875 37.203125 44.609375 42.84375 
Q 40.53125 48.484375 33.40625 48.484375 
Q 26.265625 48.484375 22.1875 42.84375 
Q 18.109375 37.203125 18.109375 27.296875 
Q 18.109375 17.390625 22.1875 11.75 
Q 26.265625 6.109375 33.40625 6.109375 
Q 40.53125 6.109375 44.609375 11.75 
Q 48.6875 17.390625 48.6875 27.296875 
z
" id="DejaVuSans-70"/>
     </defs>
     <g transform="translate(16.139531 294.999375)rotate(-90)scale(0.17 -0.17)">
      <use xlink:href="#DejaVuSans-46"/>
      <use x="57.410156" xlink:href="#DejaVuSans-72"/>
      <use x="98.523438" xlink:href="#DejaVuSans-61"/>
      <use x="159.802734" xlink:href="#DejaVuSans-63"/>
      <use x="214.783203" xlink:href="#DejaVuSans-74"/>
      <use x="253.992188" xlink:href="#DejaVuSans-69"/>
      <use x="281.775391" xlink:href="#DejaVuSans-6f"/>
      <use x="342.957031" xlink:href="#DejaVuSans-6e"/>
      <use x="406.335938" xlink:href="#DejaVuSans-20"/>
      <use x="438.123047" xlink:href="#DejaVuSans-6f"/>
      <use x="499.304688" xlink:href="#DejaVuSans-66"/>
      <use x="534.509766" xlink:href="#DejaVuSans-20"/>
      <use x="566.296875" xlink:href="#DejaVuSans-66"/>
      <use x="601.501953" xlink:href="#DejaVuSans-75"/>
      <use x="664.880859" xlink:href="#DejaVuSans-6e"/>
      <use x="728.259766" xlink:href="#DejaVuSans-63"/>
      <use x="783.240234" xlink:href="#DejaVuSans-74"/>
      <use x="822.449219" xlink:href="#DejaVuSans-69"/>
      <use x="850.232422" xlink:href="#DejaVuSans-6f"/>
      <use x="911.414062" xlink:href="#DejaVuSans-6e"/>
      <use x="974.792969" xlink:href="#DejaVuSans-2c"/>
      <use x="1006.580078" xlink:href="#DejaVuSans-74"/>
      <use x="1045.789062" xlink:href="#DejaVuSans-61"/>
      <use x="1107.068359" xlink:href="#DejaVuSans-72"/>
      <use x="1148.166016" xlink:href="#DejaVuSans-67"/>
      <use x="1211.642578" xlink:href="#DejaVuSans-65"/>
      <use x="1273.166016" xlink:href="#DejaVuSans-74"/>
      <use x="1312.375" xlink:href="#DejaVuSans-20"/>
      <use x="1344.162109" xlink:href="#DejaVuSans-70"/>
      <use x="1407.638672" xlink:href="#DejaVuSans-61"/>
      <use x="1468.917969" xlink:href="#DejaVuSans-69"/>
      <use x="1496.701172" xlink:href="#DejaVuSans-72"/>
      <use x="1537.814453" xlink:href="#DejaVuSans-73"/>
     </g>
    </g>
   </g>
   <g id="line2d_41">
    <defs>
     <path d="M 0 1.5 
C 0.397805 1.5 0.77937 1.341951 1.06066 1.06066 
C 1.341951 0.77937 1.5 0.397805 1.5 0 
C 1.5 -0.397805 1.341951 -0.77937 1.06066 -1.06066 
C 0.77937 -1.341951 0.397805 -1.5 0 -1.5 
C -0.397805 -1.5 -0.77937 -1.341951 -1.06066 -1.06066 
C -1.341951 -0.77937 -1.5 -0.397805 -1.5 0 
C -1.5 0.397805 -1.341951 0.77937 -1.06066 1.06066 
C -0.77937 1.341951 -0.397805 1.5 0 1.5 
z
" id="m1939458f47" style="stroke:#f5deb3;"/>
    </defs>
    <g>
     <use style="fill:#f5deb3;stroke:#f5deb3;" x="194.213165" xlink:href="#m1939458f47" y="27.513663"/>
     <use style="fill:#f5deb3;stroke:#f5deb3;" x="194.213165" xlink:href="#m1939458f47" y="27.513663"/>
    </g>
   </g>
   <g id="line2d_42">
    <defs>
     <path d="M 0 1.5 
C 0.397805 1.5 0.77937 1.341951 1.06066 1.06066 
C 1.341951 0.77937 1.5 0.397805 1.5 0 
C 1.5 -0.397805 1.341951 -0.77937 1.06066 -1.06066 
C 0.77937 -1.341951 0.397805 -1.5 0 -1.5 
C -0.397805 -1.5 -0.77937 -1.341951 -1.06066 -1.06066 
C -1.341951 -0.77937 -1.5 -0.397805 -1.5 0 
C -1.5 0.397805 -1.341951 0.77937 -1.06066 1.06066 
C -0.77937 1.341951 -0.397805 1.5 0 1.5 
z
" id="m8b51bc13d9" style="stroke:#000080;"/>
    </defs>
    <g>
     <use style="fill:#000080;stroke:#000080;" x="247.81778" xlink:href="#m8b51bc13d9" y="247.697705"/>
     <use style="fill:#000080;stroke:#000080;" x="247.81778" xlink:href="#m8b51bc13d9" y="247.697705"/>
    </g>
   </g>
   <g id="line2d_43">
    <path d="M 37.236359 294.88 
L 37.236359 291.210266 
L 49.15061 291.210266 
L 49.15061 290.161771 
L 56.12 290.161771 
L 56.12 289.637523 
L 61.064861 289.637523 
L 61.064861 289.113275 
L 64.900393 289.113275 
L 64.900393 287.540532 
L 68.034251 287.540532 
L 68.034251 287.016284 
L 70.68389 287.016284 
L 70.68389 285.967789 
L 72.979112 285.967789 
L 72.979112 285.443541 
L 78.452896 285.443541 
L 78.452896 284.919293 
L 91.862754 284.919293 
L 91.862754 284.395046 
L 95.698286 284.395046 
L 95.698286 283.870798 
L 96.807615 283.870798 
L 96.807615 283.34655 
L 104.131422 283.34655 
L 104.131422 282.822302 
L 110.746395 282.822302 
L 110.746395 282.298055 
L 111.448069 282.298055 
L 111.448069 281.773807 
L 113.396034 281.773807 
L 113.396034 280.725312 
L 115.691256 280.725312 
L 115.691256 280.201064 
L 116.220179 280.201064 
L 116.220179 279.676816 
L 117.715785 279.676816 
L 117.715785 279.152568 
L 121.16504 279.152568 
L 121.16504 277.579825 
L 122.420242 277.579825 
L 122.420242 277.055578 
L 123.476531 277.055578 
L 123.476531 276.007082 
L 125.310285 276.007082 
L 125.310285 275.482834 
L 128.307181 275.482834 
L 128.307181 274.958587 
L 128.647561 274.958587 
L 128.647561 273.910091 
L 128.898495 273.910091 
L 128.898495 273.385844 
L 132.684132 273.385844 
L 132.684132 272.861596 
L 133.079291 272.861596 
L 133.079291 272.337348 
L 133.273515 272.337348 
L 133.273515 271.8131 
L 140.048681 271.8131 
L 140.048681 271.288853 
L 141.100945 271.288853 
L 141.100945 270.764605 
L 141.464526 270.764605 
L 141.464526 270.240357 
L 144.295937 270.240357 
L 144.329806 268.667614 
L 148.192385 268.667614 
L 148.192385 268.143366 
L 149.443019 268.143366 
L 149.443019 267.619119 
L 149.938403 267.619119 
L 149.938403 267.094871 
L 154.944195 267.094871 
L 154.944195 266.570623 
L 155.483068 266.570623 
L 155.483068 266.046375 
L 161.998527 266.046375 
L 161.998527 265.522128 
L 162.523048 265.522128 
L 162.523048 264.99788 
L 164.929448 264.99788 
L 164.929448 264.473632 
L 169.30355 264.473632 
L 169.30355 263.425137 
L 170.227893 263.425137 
L 170.227893 262.900889 
L 171.289346 262.900889 
L 171.289346 262.376641 
L 174.653144 262.376641 
L 174.653144 261.852394 
L 175.807704 261.852394 
L 175.807704 261.328146 
L 182.387859 261.328146 
L 182.387859 260.803898 
L 184.109917 260.803898 
L 184.109917 260.279651 
L 188.028183 260.279651 
L 188.028183 259.755403 
L 191.159379 259.755403 
L 191.159379 258.706907 
L 191.914758 258.706907 
L 191.914758 258.18266 
L 197.747332 258.18266 
L 197.747332 257.658412 
L 198.546741 257.658412 
L 198.546741 257.134164 
L 200.469421 257.134164 
L 200.469421 256.609917 
L 200.806915 256.609917 
L 200.806915 256.085669 
L 203.194144 256.085669 
L 203.194144 255.561421 
L 205.858729 255.561421 
L 205.858729 255.037173 
L 210.701146 255.037173 
L 210.701146 254.512926 
L 212.52318 254.512926 
L 212.52318 253.988678 
L 213.119086 253.988678 
L 213.119086 253.46443 
L 215.460631 253.46443 
L 215.460631 252.940182 
L 215.692218 252.940182 
L 215.692218 252.415935 
L 216.748549 252.415935 
L 216.748549 251.891687 
L 218.730407 251.891687 
L 218.730407 251.367439 
L 220.957166 251.367439 
L 220.957166 250.843192 
L 223.115626 250.843192 
L 223.115626 250.318944 
L 226.53912 250.318944 
L 226.53912 249.794696 
L 238.485496 249.794696 
L 238.485496 249.270448 
L 242.338974 249.270448 
L 242.338974 248.746201 
L 243.805395 248.746201 
L 243.805395 248.221953 
L 247.81778 248.221953 
L 247.81778 247.697705 
L 333.168 247.697705 
L 333.168 247.697705 
" style="fill:none;stroke:#000080;stroke-linecap:square;stroke-width:1.5;"/>
   </g>
   <g id="line2d_44">
    <defs>
     <path d="M 0 6 
C 1.591219 6 3.117479 5.367802 4.242641 4.242641 
C 5.367802 3.117479 6 1.591219 6 0 
C 6 -1.591219 5.367802 -3.117479 4.242641 -4.242641 
C 3.117479 -5.367802 1.591219 -6 0 -6 
C -1.591219 -6 -3.117479 -5.367802 -4.242641 -4.242641 
C -5.367802 -3.117479 -6 -1.591219 -6 0 
C -6 1.591219 -5.367802 3.117479 -4.242641 4.242641 
C -3.117479 5.367802 -1.591219 6 0 6 
z
" id="m240cf02581" style="stroke:#000080;stroke-width:1.5;"/>
    </defs>
    <g>
     <use style="fill:none;stroke:#000080;stroke-width:1.5;" x="78.452896" xlink:href="#m240cf02581" y="284.919293"/>
     <use style="fill:none;stroke:#000080;stroke-width:1.5;" x="133.273515" xlink:href="#m240cf02581" y="272.337348"/>
     <use style="fill:none;stroke:#000080;stroke-width:1.5;" x="197.747332" xlink:href="#m240cf02581" y="258.18266"/>
     <use style="fill:none;stroke:#000080;stroke-width:1.5;" x="247.81778" xlink:href="#m240cf02581" y="248.221953"/>
     <use style="fill:none;stroke:#000080;stroke-width:1.5;" x="247.81778" xlink:href="#m240cf02581" y="247.697705"/>
     <use style="fill:none;stroke:#000080;stroke-width:1.5;" x="333.168" xlink:href="#m240cf02581" y="247.697705"/>
    </g>
   </g>
   <g id="line2d_45">
    <path style="fill:none;stroke:#000080;stroke-linecap:square;stroke-width:1.5;"/>
    <g/>
   </g>
   <g id="line2d_46">
    <path clip-path="url(#p5e63870685)" d="M 186.631046 260.279651 
" style="fill:none;stroke:#000080;stroke-linecap:square;stroke-width:1.5;"/>
    <defs>
     <path d="M -12 12 
L 12 -12 
M -12 -12 
L 12 12 
" id="madcd7db1e4" style="stroke:#000080;"/>
    </defs>
    <g clip-path="url(#p5e63870685)">
     <use style="fill:#000080;stroke:#000080;" x="186.631046" xlink:href="#madcd7db1e4" y="260.279651"/>
    </g>
   </g>
   <g id="line2d_47">
    <defs>
     <path d="M 0 1.5 
C 0.397805 1.5 0.77937 1.341951 1.06066 1.06066 
C 1.341951 0.77937 1.5 0.397805 1.5 0 
C 1.5 -0.397805 1.341951 -0.77937 1.06066 -1.06066 
C 0.77937 -1.341951 0.397805 -1.5 0 -1.5 
C -0.397805 -1.5 -0.77937 -1.341951 -1.06066 -1.06066 
C -1.341951 -0.77937 -1.5 -0.397805 -1.5 0 
C -1.5 0.397805 -1.341951 0.77937 -1.06066 1.06066 
C -0.77937 1.341951 -0.397805 1.5 0 1.5 
z
" id="mf515d8d2a1" style="stroke:#ff00ff;"/>
    </defs>
    <g>
     <use style="fill:#ff00ff;stroke:#ff00ff;" x="244.412183" xlink:href="#mf515d8d2a1" y="242.455228"/>
     <use style="fill:#ff00ff;stroke:#ff00ff;" x="244.412183" xlink:href="#mf515d8d2a1" y="242.455228"/>
    </g>
   </g>
   <g id="line2d_48">
    <path d="M 37.236359 294.88 
L 37.236359 290.161771 
L 49.15061 290.161771 
L 49.15061 289.637523 
L 61.064861 289.637523 
L 61.064861 287.540532 
L 64.900393 287.540532 
L 64.900393 287.016284 
L 70.68389 287.016284 
L 70.68389 286.492036 
L 75.003641 286.492036 
L 75.003641 285.443541 
L 81.324327 285.443541 
L 81.324327 284.919293 
L 83.784035 284.919293 
L 83.784035 283.870798 
L 85.935418 283.870798 
L 85.935418 283.34655 
L 88.728896 283.34655 
L 88.728896 282.822302 
L 89.567532 282.822302 
L 89.567532 282.298055 
L 92.564428 282.298055 
L 92.564428 281.249559 
L 93.238578 281.249559 
L 93.238578 280.725312 
L 94.512393 280.725312 
L 94.512393 279.152568 
L 95.698286 279.152568 
L 95.698286 278.104073 
L 97.849669 278.104073 
L 97.849669 277.579825 
L 99.761485 277.579825 
L 99.761485 277.055578 
L 100.207968 277.055578 
L 100.207968 276.53133 
L 100.643147 276.53133 
L 100.643147 274.958587 
L 102.281398 274.958587 
L 102.281398 272.861596 
L 103.045463 272.861596 
L 103.045463 272.337348 
L 103.415125 272.337348 
L 103.415125 271.8131 
L 104.819059 271.8131 
L 104.819059 270.764605 
L 106.426644 270.764605 
L 106.426644 269.716109 
L 107.029816 269.716109 
L 107.029816 269.191862 
L 107.896653 269.191862 
L 107.896653 267.619119 
L 110.505991 267.619119 
L 110.505991 267.094871 
L 111.675736 267.094871 
L 111.675736 266.570623 
L 114.959714 266.570623 
L 114.959714 266.046375 
L 117.231566 266.046375 
L 117.231566 265.522128 
L 118.944067 265.522128 
L 118.944067 264.99788 
L 120.902613 264.99788 
L 120.902613 264.473632 
L 122.298767 264.473632 
L 122.298767 263.949385 
L 123.131597 263.949385 
L 123.131597 263.425137 
L 125.412295 263.425137 
L 125.412295 262.900889 
L 126.207287 262.900889 
L 126.207287 262.376641 
L 127.42552 262.376641 
L 127.42552 261.852394 
L 127.605507 261.852394 
L 127.605507 261.328146 
L 129.867125 261.328146 
L 129.867125 260.803898 
L 133.967462 260.803898 
L 133.967462 260.279651 
L 134.753019 260.279651 
L 134.753019 259.755403 
L 135.560688 259.755403 
L 135.560688 259.231155 
L 135.840184 259.231155 
L 135.840184 258.706907 
L 136.810332 258.706907 
L 136.810332 258.18266 
L 138.121538 258.18266 
L 138.121538 257.658412 
L 139.60905 257.658412 
L 139.60905 256.609917 
L 140.135274 256.609917 
L 140.135274 256.085669 
L 178.990278 256.085669 
L 178.990278 255.561421 
L 180.994776 255.561421 
L 180.994776 255.037173 
L 181.504252 255.037173 
L 181.504252 254.512926 
L 181.682334 254.512926 
L 181.682334 253.988678 
L 182.127139 253.988678 
L 182.127139 253.46443 
L 182.328614 253.46443 
L 182.328614 252.940182 
L 182.764441 252.940182 
L 182.764441 252.415935 
L 183.576709 252.415935 
L 183.624934 251.367439 
L 189.58978 251.367439 
L 189.58978 250.843192 
L 192.772194 250.843192 
L 192.772194 250.318944 
L 193.969935 250.318944 
L 193.969935 249.794696 
L 195.279245 249.794696 
L 195.279245 249.270448 
L 198.090263 249.270448 
L 198.090263 248.746201 
L 198.937863 248.746201 
L 198.937863 248.221953 
L 199.781942 248.221953 
L 199.781942 247.697705 
L 200.68368 247.697705 
L 200.68368 247.173458 
L 204.190446 247.173458 
L 204.190446 246.64921 
L 208.431229 246.64921 
L 208.431229 246.124962 
L 212.970632 246.124962 
L 212.970632 245.600714 
L 214.713877 245.600714 
L 214.713877 245.076467 
L 240.86629 245.076467 
L 240.86629 244.552219 
L 242.05059 244.552219 
L 242.05059 244.027971 
L 243.126177 244.027971 
L 243.126177 243.503724 
L 243.34496 243.503724 
L 243.34496 242.979476 
L 244.412183 242.979476 
L 244.412183 242.455228 
L 333.168 242.455228 
L 333.168 242.455228 
" style="fill:none;stroke:#ff00ff;stroke-linecap:square;stroke-width:1.5;"/>
   </g>
   <g id="line2d_49">
    <defs>
     <path d="M -0 8.485281 
L 5.091169 0 
L 0 -8.485281 
L -5.091169 -0 
z
" id="m70d3b86376" style="stroke:#ff00ff;stroke-linejoin:miter;stroke-width:1.5;"/>
    </defs>
    <g>
     <use style="fill:none;stroke:#ff00ff;stroke-linejoin:miter;stroke-width:1.5;" x="107.896653" xlink:href="#m70d3b86376" y="267.619119"/>
     <use style="fill:none;stroke:#ff00ff;stroke-linejoin:miter;stroke-width:1.5;" x="140.135274" xlink:href="#m70d3b86376" y="256.085669"/>
     <use style="fill:none;stroke:#ff00ff;stroke-linejoin:miter;stroke-width:1.5;" x="244.412183" xlink:href="#m70d3b86376" y="242.979476"/>
     <use style="fill:none;stroke:#ff00ff;stroke-linejoin:miter;stroke-width:1.5;" x="244.412183" xlink:href="#m70d3b86376" y="242.455228"/>
     <use style="fill:none;stroke:#ff00ff;stroke-linejoin:miter;stroke-width:1.5;" x="244.412183" xlink:href="#m70d3b86376" y="242.455228"/>
     <use style="fill:none;stroke:#ff00ff;stroke-linejoin:miter;stroke-width:1.5;" x="333.168" xlink:href="#m70d3b86376" y="242.455228"/>
    </g>
   </g>
   <g id="line2d_50">
    <path style="fill:none;stroke:#ff00ff;stroke-linecap:square;stroke-width:1.5;"/>
    <g/>
   </g>
   <g id="line2d_51">
    <path clip-path="url(#p5e63870685)" d="M 189.231108 251.367439 
" style="fill:none;stroke:#ff00ff;stroke-linecap:square;stroke-width:1.5;"/>
    <defs>
     <path d="M -12 12 
L 12 -12 
M -12 -12 
L 12 12 
" id="m29cfb29612" style="stroke:#ff00ff;"/>
    </defs>
    <g clip-path="url(#p5e63870685)">
     <use style="fill:#ff00ff;stroke:#ff00ff;" x="189.231108" xlink:href="#m29cfb29612" y="251.367439"/>
    </g>
   </g>
   <g id="line2d_52">
    <defs>
     <path d="M 0 1.5 
C 0.397805 1.5 0.77937 1.341951 1.06066 1.06066 
C 1.341951 0.77937 1.5 0.397805 1.5 0 
C 1.5 -0.397805 1.341951 -0.77937 1.06066 -1.06066 
C 0.77937 -1.341951 0.397805 -1.5 0 -1.5 
C -0.397805 -1.5 -0.77937 -1.341951 -1.06066 -1.06066 
C -1.341951 -0.77937 -1.5 -0.397805 -1.5 0 
C -1.5 0.397805 -1.341951 0.77937 -1.06066 1.06066 
C -0.77937 1.341951 -0.397805 1.5 0 1.5 
z
" id="mc3dc2ba475" style="stroke:#ff7500;"/>
    </defs>
    <g>
     <use style="fill:#ff7500;stroke:#ff7500;" x="283.719039" xlink:href="#mc3dc2ba475" y="27.513663"/>
     <use style="fill:#ff7500;stroke:#ff7500;" x="283.719039" xlink:href="#mc3dc2ba475" y="27.513663"/>
    </g>
   </g>
   <g id="line2d_53">
    <path d="M 37.236359 294.88 
L 37.236359 290.686018 
L 49.15061 290.686018 
L 49.15061 288.589027 
L 56.12 288.589027 
L 56.12 288.06478 
L 78.452896 288.06478 
L 78.452896 287.540532 
L 81.324327 287.540532 
L 81.324327 285.967789 
L 85.935418 285.967789 
L 85.935418 285.443541 
L 86.917893 285.443541 
L 86.917893 284.919293 
L 87.847234 284.919293 
L 87.847234 283.34655 
L 90.367147 283.34655 
L 90.367147 282.822302 
L 93.887283 282.822302 
L 93.887283 282.298055 
L 97.849669 282.298055 
L 97.849669 281.249559 
L 104.819059 281.249559 
L 104.819059 280.725312 
L 111.448069 280.725312 
L 111.448069 280.201064 
L 112.557398 280.201064 
L 112.557398 279.152568 
L 112.98183 279.152568 
L 112.98183 278.628321 
L 113.396034 278.628321 
L 113.396034 278.104073 
L 116.045673 278.104073 
L 116.045673 277.579825 
L 117.715785 277.579825 
L 117.715785 277.055578 
L 119.95122 277.055578 
L 119.95122 276.53133 
L 122.897734 276.53133 
L 122.897734 276.007082 
L 125.714742 276.007082 
L 125.714742 275.482834 
L 126.496178 275.482834 
L 126.496178 274.958587 
L 129.630036 274.958587 
L 129.630036 274.434339 
L 129.788458 274.434339 
L 129.788458 273.910091 
L 130.023386 273.910091 
L 130.023386 273.385844 
L 133.905521 273.385844 
L 133.905521 272.861596 
L 135.045848 272.861596 
L 135.045848 272.337348 
L 136.005725 272.337348 
L 136.005725 271.288853 
L 136.862657 271.288853 
L 136.862657 270.764605 
L 139.474938 270.764605 
L 139.474938 269.716109 
L 140.048681 269.716109 
L 140.048681 269.191862 
L 140.307161 269.191862 
L 140.307161 268.143366 
L 140.687737 268.143366 
L 140.687737 267.619119 
L 141.060069 267.619119 
L 141.060069 267.094871 
L 143.779723 267.094871 
L 143.779723 266.570623 
L 145.155547 266.570623 
L 145.155547 264.99788 
L 146.157718 264.99788 
L 146.157718 264.473632 
L 146.33929 264.473632 
L 146.33929 263.949385 
L 146.637711 263.949385 
L 146.637711 263.425137 
L 147.219446 263.425137 
L 147.219446 262.900889 
L 147.333468 262.900889 
L 147.333468 261.852394 
L 149.791281 261.852394 
L 149.864999 258.18266 
L 150.842025 258.18266 
L 150.888293 257.134164 
L 151.456376 257.134164 
L 151.523301 255.561421 
L 152.027918 255.561421 
L 152.027918 255.037173 
L 153.07633 255.037173 
L 153.137246 251.891687 
L 155.305314 251.891687 
L 155.305314 249.794696 
L 155.483068 249.794696 
L 155.483068 249.270448 
L 155.746298 249.270448 
L 155.746298 248.746201 
L 169.112563 248.746201 
L 169.112563 248.221953 
L 171.56907 248.221953 
L 171.56907 247.697705 
L 181.343957 247.697705 
L 181.343957 246.64921 
L 181.601265 246.64921 
L 181.624467 245.076467 
L 182.890551 245.076467 
L 182.890551 244.552219 
L 183.291501 244.552219 
L 183.291501 244.027971 
L 183.614612 244.027971 
L 183.624934 242.979476 
L 183.86744 242.979476 
L 183.86744 241.93098 
L 188.01753 241.93098 
L 188.01753 241.406733 
L 189.260871 241.406733 
L 189.260871 240.882485 
L 189.597072 240.882485 
L 189.597072 240.358237 
L 191.662326 240.358237 
L 191.662326 239.83399 
L 193.092438 239.83399 
L 193.092438 239.309742 
L 194.11068 239.309742 
L 194.11068 238.785494 
L 196.195532 238.785494 
L 196.195532 238.261246 
L 200.008867 238.261246 
L 200.106718 237.212751 
L 201.002021 237.212751 
L 201.002021 236.688503 
L 210.549559 236.688503 
L 210.549559 236.164255 
L 210.871862 236.164255 
L 210.871862 235.640008 
L 211.109162 235.640008 
L 211.131394 234.591512 
L 211.27245 234.591512 
L 211.27245 234.067265 
L 212.197405 234.067265 
L 212.197405 233.543017 
L 213.476533 233.543017 
L 213.476533 233.018769 
L 213.903092 233.018769 
L 213.903092 232.494521 
L 214.346408 232.494521 
L 214.415372 230.921778 
L 214.464055 230.921778 
L 214.503472 229.873283 
L 214.651195 229.873283 
L 214.735846 228.30054 
L 214.774085 228.30054 
L 214.830163 225.679301 
L 214.910596 225.679301 
L 214.988991 223.58231 
L 215.230258 223.58231 
L 215.230258 223.058063 
L 215.771906 223.058063 
L 215.771906 222.533815 
L 216.036461 222.533815 
L 216.036461 222.009567 
L 216.831971 222.009567 
L 216.938283 220.961072 
L 217.151889 220.961072 
L 217.18707 219.912576 
L 218.150932 219.912576 
L 218.150932 219.388328 
L 218.290205 219.388328 
L 218.290205 218.864081 
L 218.590621 218.864081 
L 218.590621 218.339833 
L 218.782535 218.339833 
L 218.782535 217.815585 
L 219.352632 217.815585 
L 219.352632 217.291338 
L 219.956442 217.291338 
L 220.064545 215.718594 
L 220.578272 215.718594 
L 220.578272 215.194347 
L 220.95795 215.194347 
L 220.95795 214.670099 
L 222.029976 214.670099 
L 222.029976 214.145851 
L 223.034186 214.145851 
L 223.034186 213.621604 
L 223.292765 213.621604 
L 223.292765 213.097356 
L 223.795215 213.097356 
L 223.795215 212.573108 
L 224.419494 212.573108 
L 224.419494 212.04886 
L 224.537664 212.04886 
L 224.537664 211.524613 
L 224.681246 211.524613 
L 224.681246 211.000365 
L 224.926318 211.000365 
L 224.994019 209.95187 
L 225.167025 209.95187 
L 225.270731 207.854879 
L 225.299376 207.854879 
L 225.299376 207.330631 
L 225.729667 207.330631 
L 225.76734 206.282136 
L 225.852761 206.282136 
L 225.852761 205.757888 
L 226.113477 205.757888 
L 226.20991 204.709392 
L 226.29029 204.709392 
L 226.393455 203.136649 
L 226.462174 203.136649 
L 226.54705 202.088154 
L 226.574213 202.088154 
L 226.620799 201.039658 
L 226.890201 201.039658 
L 226.890201 200.515411 
L 227.098775 200.515411 
L 227.151345 198.942667 
L 227.442483 198.942667 
L 227.514101 197.894172 
L 227.625362 197.894172 
L 227.716077 195.797181 
L 227.740399 195.797181 
L 227.740399 195.272933 
L 228.596323 195.272933 
L 228.596323 194.748686 
L 228.858971 194.748686 
L 228.858971 194.224438 
L 229.126442 194.224438 
L 229.126442 193.70019 
L 229.279539 193.70019 
L 229.292336 192.651695 
L 229.415715 192.651695 
L 229.499624 191.078952 
L 229.617977 191.078952 
L 229.617977 190.554704 
L 229.834032 190.554704 
L 229.834032 190.030456 
L 230.119325 190.030456 
L 230.119325 189.506209 
L 230.847598 189.506209 
L 230.847598 188.981961 
L 230.979604 188.981961 
L 230.979604 188.457713 
L 231.126447 188.457713 
L 231.203073 186.88497 
L 232.028272 186.88497 
L 232.138052 185.312227 
L 232.14664 185.312227 
L 232.14664 184.787979 
L 232.301113 184.787979 
L 232.312658 183.215236 
L 232.493926 183.215236 
L 232.493926 182.690988 
L 232.635191 182.690988 
L 232.635788 181.642493 
L 232.792051 181.642493 
L 232.792051 181.118245 
L 233.003014 181.118245 
L 233.003014 180.593997 
L 233.15194 180.593997 
L 233.250001 179.545502 
L 233.267248 179.545502 
L 233.324422 177.972759 
L 233.440478 177.972759 
L 233.481954 176.924263 
L 233.914555 176.924263 
L 233.960423 174.303025 
L 234.073191 174.303025 
L 234.081962 173.254529 
L 234.596259 173.254529 
L 234.596259 172.730281 
L 234.917666 172.730281 
L 234.917666 172.206034 
L 235.030223 172.206034 
L 235.094926 170.633291 
L 235.248713 170.633291 
L 235.248713 170.109043 
L 235.513943 170.109043 
L 235.513943 169.584795 
L 235.872366 169.584795 
L 235.872366 169.060547 
L 236.34752 169.060547 
L 236.34752 168.5363 
L 236.486097 168.5363 
L 236.527659 167.487804 
L 236.771195 167.487804 
L 236.821889 166.439309 
L 236.89959 166.439309 
L 236.89959 165.915061 
L 237.085111 165.915061 
L 237.085111 165.390813 
L 237.514103 165.390813 
L 237.552957 164.342318 
L 237.630401 164.342318 
L 237.721103 161.721079 
L 237.784399 161.721079 
L 237.814416 160.148336 
L 237.949723 160.148336 
L 238.025259 159.099841 
L 238.16339 159.099841 
L 238.16339 158.575593 
L 238.319845 158.575593 
L 238.399318 157.527098 
L 238.476727 157.527098 
L 238.476727 157.00285 
L 238.84493 157.00285 
L 238.876608 155.954354 
L 239.092367 155.954354 
L 239.137347 154.381611 
L 239.310035 154.381611 
L 239.414026 153.333116 
L 239.497408 153.333116 
L 239.497408 152.808868 
L 239.689354 152.808868 
L 239.742396 151.760373 
L 239.82682 151.760373 
L 239.836756 150.711877 
L 239.939957 150.711877 
L 240.023677 149.663382 
L 240.467667 149.663382 
L 240.467667 149.139134 
L 240.579305 149.139134 
L 240.599821 148.090639 
L 240.711973 148.090639 
L 240.752541 147.042143 
L 240.848924 147.042143 
L 240.95359 145.993648 
L 241.100784 145.993648 
L 241.100784 145.4694 
L 241.350204 145.4694 
L 241.350204 144.945152 
L 241.47755 144.945152 
L 241.47755 144.420905 
L 241.863202 144.420905 
L 241.863202 143.896657 
L 241.983587 143.896657 
L 242.071605 142.848162 
L 242.180056 142.848162 
L 242.180056 142.323914 
L 242.455074 142.323914 
L 242.455074 141.799666 
L 242.590116 141.799666 
L 242.590116 141.275418 
L 242.728192 141.275418 
L 242.795661 139.178427 
L 243.000082 139.178427 
L 243.022574 138.129932 
L 243.135564 138.129932 
L 243.214347 137.081437 
L 243.326087 137.081437 
L 243.369879 136.032941 
L 243.453316 136.032941 
L 243.453316 135.508693 
L 243.721568 135.508693 
L 243.721568 134.984446 
L 243.841876 134.984446 
L 243.911308 133.411703 
L 244.053019 133.411703 
L 244.142066 132.363207 
L 244.237232 132.363207 
L 244.318487 131.314712 
L 244.534732 131.314712 
L 244.534732 130.790464 
L 244.706794 130.790464 
L 244.817195 129.741969 
L 244.850421 129.741969 
L 244.850421 129.217721 
L 245.287664 129.217721 
L 245.287664 128.693473 
L 245.426916 128.693473 
L 245.503501 127.644978 
L 245.918861 127.644978 
L 245.919687 126.596482 
L 246.163724 126.596482 
L 246.26437 125.547987 
L 246.284859 125.547987 
L 246.349672 124.499491 
L 246.578365 124.499491 
L 246.661161 123.450996 
L 246.858866 123.450996 
L 246.910559 122.4025 
L 247.165097 122.4025 
L 247.165097 121.878253 
L 247.367751 121.878253 
L 247.367751 121.354005 
L 247.655674 121.354005 
L 247.655674 120.829757 
L 247.786452 120.829757 
L 247.786452 120.30551 
L 248.081747 120.30551 
L 248.18 119.257014 
L 248.423442 119.257014 
L 248.43676 118.208519 
L 248.562772 118.208519 
L 248.673804 116.635776 
L 248.745639 116.635776 
L 248.816709 115.063032 
L 248.927042 115.063032 
L 248.954977 114.014537 
L 249.290993 114.014537 
L 249.359398 112.966042 
L 249.523836 112.966042 
L 249.523836 112.441794 
L 249.775354 112.441794 
L 249.839452 111.393298 
L 250.027579 111.393298 
L 250.060345 110.344803 
L 250.150524 110.344803 
L 250.214242 109.296308 
L 250.269463 109.296308 
L 250.269463 108.77206 
L 250.39409 108.77206 
L 250.442322 107.723564 
L 250.506303 107.723564 
L 250.612412 106.150821 
L 250.809023 106.150821 
L 250.809023 105.626573 
L 250.922752 105.626573 
L 250.922752 105.102326 
L 251.122508 105.102326 
L 251.122508 104.578078 
L 251.477783 104.578078 
L 251.495104 103.529583 
L 251.71326 103.529583 
L 251.80744 101.956839 
L 251.953564 101.956839 
L 251.953564 101.432592 
L 252.075771 101.432592 
L 252.135687 100.384096 
L 252.292931 100.384096 
L 252.292931 99.859849 
L 252.764346 99.859849 
L 252.764346 99.335601 
L 253.439906 99.335601 
L 253.439906 98.811353 
L 253.626303 98.811353 
L 253.626303 98.287105 
L 253.863892 98.287105 
L 253.949093 97.23861 
L 254.073482 97.23861 
L 254.073482 96.714362 
L 254.378526 96.714362 
L 254.378526 96.190115 
L 254.511826 96.190115 
L 254.511826 95.665867 
L 254.655252 95.665867 
L 254.712938 94.093124 
L 254.809036 94.093124 
L 254.911778 91.996133 
L 254.989733 91.996133 
L 254.989733 91.471885 
L 255.280352 91.471885 
L 255.280352 90.947637 
L 255.443698 90.947637 
L 255.535177 89.374894 
L 255.631596 89.374894 
L 255.71233 88.326399 
L 255.871435 88.326399 
L 255.871435 87.802151 
L 256.06903 87.802151 
L 256.06903 87.277903 
L 256.239584 87.277903 
L 256.270057 85.70516 
L 256.49764 85.70516 
L 256.564887 84.656665 
L 257.132486 84.656665 
L 257.236431 83.083922 
L 257.417235 83.083922 
L 257.432971 82.035426 
L 257.603457 82.035426 
L 257.684716 80.986931 
L 257.871923 80.986931 
L 257.871923 80.462683 
L 258.096733 80.462683 
L 258.124493 79.414188 
L 258.245705 79.414188 
L 258.245705 78.88994 
L 258.4268 78.88994 
L 258.4268 78.365692 
L 258.609164 78.365692 
L 258.609164 77.841444 
L 258.724535 77.841444 
L 258.754866 76.792949 
L 258.980809 76.792949 
L 259.039196 75.744454 
L 259.156781 75.744454 
L 259.22012 74.695958 
L 259.34925 74.695958 
L 259.445414 73.647463 
L 259.65117 73.647463 
L 259.690166 72.598967 
L 259.836782 72.598967 
L 259.922831 71.026224 
L 260.088258 71.026224 
L 260.088258 70.501976 
L 260.267881 70.501976 
L 260.28885 69.453481 
L 260.383155 69.453481 
L 260.383155 68.929233 
L 260.692005 68.929233 
L 260.723673 67.880738 
L 261.117515 67.880738 
L 261.117515 67.35649 
L 261.623722 67.35649 
L 261.623722 66.832242 
L 261.777934 66.832242 
L 261.777934 66.307995 
L 261.900749 66.307995 
L 261.900749 65.783747 
L 262.16062 65.783747 
L 262.248589 64.211004 
L 262.318239 64.211004 
L 262.365702 63.162508 
L 262.451965 63.162508 
L 262.530783 62.114013 
L 262.766226 62.114013 
L 262.766226 61.589765 
L 262.940341 61.589765 
L 262.940341 61.065517 
L 263.062666 61.065517 
L 263.062666 60.54127 
L 263.339003 60.54127 
L 263.447352 59.492774 
L 263.462303 59.492774 
L 263.546043 57.395783 
L 263.748896 57.395783 
L 263.748896 56.871536 
L 263.860484 56.871536 
L 263.860484 56.347288 
L 263.984089 56.347288 
L 264.090596 55.298792 
L 264.105125 55.298792 
L 264.142315 54.250297 
L 264.407933 54.250297 
L 264.407933 53.726049 
L 264.895161 53.726049 
L 264.895161 53.201802 
L 265.085643 53.201802 
L 265.085643 52.677554 
L 265.453587 52.677554 
L 265.46489 51.629058 
L 265.696031 51.629058 
L 265.696031 51.104811 
L 266.338174 51.104811 
L 266.398897 50.056315 
L 266.50517 50.056315 
L 266.50517 49.532068 
L 266.620725 49.532068 
L 266.703037 48.483572 
L 266.805628 48.483572 
L 266.882564 47.435077 
L 266.94615 47.435077 
L 266.94615 46.910829 
L 267.316333 46.910829 
L 267.316333 46.386581 
L 267.657251 46.386581 
L 267.657251 45.862334 
L 267.922175 45.862334 
L 267.922175 45.338086 
L 268.352616 45.338086 
L 268.370591 44.28959 
L 268.590831 44.28959 
L 268.590831 43.765343 
L 268.845477 43.765343 
L 268.862293 42.716847 
L 269.023523 42.716847 
L 269.09369 41.668352 
L 269.31804 41.668352 
L 269.360881 40.619856 
L 270.121578 40.619856 
L 270.121578 40.095609 
L 270.442677 40.095609 
L 270.442677 39.571361 
L 270.574467 39.571361 
L 270.661725 37.998618 
L 270.813552 37.998618 
L 270.813552 37.47437 
L 271.027825 37.47437 
L 271.027825 36.950122 
L 272.177015 36.950122 
L 272.177015 36.425875 
L 272.60913 36.425875 
L 272.630265 35.377379 
L 273.058197 35.377379 
L 273.157456 34.328884 
L 273.235263 34.328884 
L 273.318831 32.756141 
L 273.705563 32.756141 
L 273.705563 32.231893 
L 275.18731 32.231893 
L 275.18731 31.707645 
L 275.471757 31.707645 
L 275.471757 31.183397 
L 276.199283 31.183397 
L 276.199283 30.65915 
L 276.657368 30.65915 
L 276.657368 30.134902 
L 276.82229 30.134902 
L 276.82229 29.610654 
L 278.339062 29.610654 
L 278.339062 29.086407 
L 280.17458 29.086407 
L 280.17458 28.562159 
L 281.880623 28.562159 
L 281.880623 28.037911 
L 283.719039 28.037911 
L 283.719039 27.513663 
L 333.168 27.513663 
L 333.168 27.513663 
" style="fill:none;stroke:#ff7500;stroke-linecap:square;stroke-width:1.5;"/>
   </g>
   <g id="line2d_54">
    <defs>
     <path d="M 0 -6 
L -1.347084 -1.854102 
L -5.706339 -1.854102 
L -2.179628 0.708204 
L -3.526712 4.854102 
L -0 2.291796 
L 3.526712 4.854102 
L 2.179628 0.708204 
L 5.706339 -1.854102 
L 1.347084 -1.854102 
z
" id="ma7782bc293" style="stroke:#ff7500;stroke-linejoin:bevel;stroke-width:1.5;"/>
    </defs>
    <g>
     <use style="fill:none;stroke:#ff7500;stroke-linejoin:bevel;stroke-width:1.5;" x="146.637711" xlink:href="#ma7782bc293" y="263.949385"/>
     <use style="fill:none;stroke:#ff7500;stroke-linejoin:bevel;stroke-width:1.5;" x="229.415715" xlink:href="#ma7782bc293" y="192.651695"/>
     <use style="fill:none;stroke:#ff7500;stroke-linejoin:bevel;stroke-width:1.5;" x="261.623722" xlink:href="#ma7782bc293" y="66.832242"/>
     <use style="fill:none;stroke:#ff7500;stroke-linejoin:bevel;stroke-width:1.5;" x="283.719039" xlink:href="#ma7782bc293" y="27.513663"/>
     <use style="fill:none;stroke:#ff7500;stroke-linejoin:bevel;stroke-width:1.5;" x="283.719039" xlink:href="#ma7782bc293" y="27.513663"/>
     <use style="fill:none;stroke:#ff7500;stroke-linejoin:bevel;stroke-width:1.5;" x="333.168" xlink:href="#ma7782bc293" y="27.513663"/>
    </g>
   </g>
   <g id="line2d_55">
    <path style="fill:none;stroke:#ff7500;stroke-linecap:square;stroke-width:1.5;"/>
    <g/>
   </g>
   <g id="line2d_56">
    <path clip-path="url(#p5e63870685)" d="M 210.734573 236.164255 
" style="fill:none;stroke:#ff7500;stroke-linecap:square;stroke-width:1.5;"/>
    <defs>
     <path d="M -12 12 
L 12 -12 
M -12 -12 
L 12 12 
" id="m147cd13a4f" style="stroke:#ff7500;"/>
    </defs>
    <g clip-path="url(#p5e63870685)">
     <use style="fill:#ff7500;stroke:#ff7500;" x="210.734573" xlink:href="#m147cd13a4f" y="236.164255"/>
    </g>
   </g>
   <g id="line2d_57">
    <path d="M 333.168 247.697705 
L 363.64328 289.532673 
" style="fill:none;stroke:#000080;stroke-linecap:square;stroke-width:1.5;"/>
    <g>
     <use style="fill:none;stroke:#000080;stroke-width:1.5;" x="333.168" xlink:href="#m240cf02581" y="247.697705"/>
     <use style="fill:none;stroke:#000080;stroke-width:1.5;" x="363.64328" xlink:href="#m240cf02581" y="289.532673"/>
    </g>
   </g>
   <g id="line2d_58">
    <path d="M 333.168 242.455228 
L 363.64328 203.975446 
" style="fill:none;stroke:#ff00ff;stroke-linecap:square;stroke-width:1.5;"/>
    <g>
     <use style="fill:none;stroke:#ff00ff;stroke-linejoin:miter;stroke-width:1.5;" x="333.168" xlink:href="#m70d3b86376" y="242.455228"/>
     <use style="fill:none;stroke:#ff00ff;stroke-linejoin:miter;stroke-width:1.5;" x="363.64328" xlink:href="#m70d3b86376" y="203.975446"/>
    </g>
   </g>
   <g id="line2d_59">
    <path d="M 333.168 27.513663 
L 363.64328 118.418218 
" style="fill:none;stroke:#ff7500;stroke-linecap:square;stroke-width:1.5;"/>
    <g>
     <use style="fill:none;stroke:#ff7500;stroke-linejoin:bevel;stroke-width:1.5;" x="333.168" xlink:href="#ma7782bc293" y="27.513663"/>
     <use style="fill:none;stroke:#ff7500;stroke-linejoin:bevel;stroke-width:1.5;" x="363.64328" xlink:href="#ma7782bc293" y="118.418218"/>
    </g>
   </g>
   <g id="line2d_60">
    <path d="M 333.168 294.88 
L 333.168 27.513663 
" style="fill:none;stroke:#000000;stroke-linecap:square;stroke-width:1.5;"/>
   </g>
   <g id="patch_3">
    <path d="M 56.12 294.88 
L 56.12 24.84 
" style="fill:none;stroke:#000000;stroke-linecap:square;stroke-linejoin:miter;stroke-width:0.8;"/>
   </g>
   <g id="patch_4">
    <path d="M 333.168 294.88 
L 333.168 24.84 
" style="fill:none;stroke:#000000;stroke-linecap:square;stroke-linejoin:miter;stroke-width:0.8;"/>
   </g>
   <g id="patch_5">
    <path d="M 56.12 294.88 
L 333.168 294.88 
" style="fill:none;stroke:#000000;stroke-linecap:square;stroke-linejoin:miter;stroke-width:0.8;"/>
   </g>
   <g id="patch_6">
    <path d="M 56.12 24.84 
L 333.168 24.84 
" style="fill:none;stroke:#000000;stroke-linecap:square;stroke-linejoin:miter;stroke-width:0.8;"/>
   </g>
   <g id="text_13">
    <!-- CMA ES PPM -->
    <defs>
     <path d="M 64.40625 67.28125 
L 64.40625 56.890625 
Q 59.421875 61.53125 53.78125 63.8125 
Q 48.140625 66.109375 41.796875 66.109375 
Q 29.296875 66.109375 22.65625 58.46875 
Q 16.015625 50.828125 16.015625 36.375 
Q 16.015625 21.96875 22.65625 14.328125 
Q 29.296875 6.6875 41.796875 6.6875 
Q 48.140625 6.6875 53.78125 8.984375 
Q 59.421875 11.28125 64.40625 15.921875 
L 64.40625 5.609375 
Q 59.234375 2.09375 53.4375 0.328125 
Q 47.65625 -1.421875 41.21875 -1.421875 
Q 24.65625 -1.421875 15.125 8.703125 
Q 5.609375 18.84375 5.609375 36.375 
Q 5.609375 53.953125 15.125 64.078125 
Q 24.65625 74.21875 41.21875 74.21875 
Q 47.75 74.21875 53.53125 72.484375 
Q 59.328125 70.75 64.40625 67.28125 
z
" id="DejaVuSans-43"/>
     <path d="M 9.8125 72.90625 
L 24.515625 72.90625 
L 43.109375 23.296875 
L 61.8125 72.90625 
L 76.515625 72.90625 
L 76.515625 0 
L 66.890625 0 
L 66.890625 64.015625 
L 48.09375 14.015625 
L 38.1875 14.015625 
L 19.390625 64.015625 
L 19.390625 0 
L 9.8125 0 
z
" id="DejaVuSans-4d"/>
     <path d="M 34.1875 63.1875 
L 20.796875 26.90625 
L 47.609375 26.90625 
z
M 28.609375 72.90625 
L 39.796875 72.90625 
L 67.578125 0 
L 57.328125 0 
L 50.6875 18.703125 
L 17.828125 18.703125 
L 11.1875 0 
L 0.78125 0 
z
" id="DejaVuSans-41"/>
     <path d="M 9.8125 72.90625 
L 55.90625 72.90625 
L 55.90625 64.59375 
L 19.671875 64.59375 
L 19.671875 43.015625 
L 54.390625 43.015625 
L 54.390625 34.71875 
L 19.671875 34.71875 
L 19.671875 8.296875 
L 56.78125 8.296875 
L 56.78125 0 
L 9.8125 0 
z
" id="DejaVuSans-45"/>
     <path d="M 53.515625 70.515625 
L 53.515625 60.890625 
Q 47.90625 63.578125 42.921875 64.890625 
Q 37.9375 66.21875 33.296875 66.21875 
Q 25.25 66.21875 20.875 63.09375 
Q 16.5 59.96875 16.5 54.203125 
Q 16.5 49.359375 19.40625 46.890625 
Q 22.3125 44.4375 30.421875 42.921875 
L 36.375 41.703125 
Q 47.40625 39.59375 52.65625 34.296875 
Q 57.90625 29 57.90625 20.125 
Q 57.90625 9.515625 50.796875 4.046875 
Q 43.703125 -1.421875 29.984375 -1.421875 
Q 24.8125 -1.421875 18.96875 -0.25 
Q 13.140625 0.921875 6.890625 3.21875 
L 6.890625 13.375 
Q 12.890625 10.015625 18.65625 8.296875 
Q 24.421875 6.59375 29.984375 6.59375 
Q 38.421875 6.59375 43.015625 9.90625 
Q 47.609375 13.234375 47.609375 19.390625 
Q 47.609375 24.75 44.3125 27.78125 
Q 41.015625 30.8125 33.5 32.328125 
L 27.484375 33.5 
Q 16.453125 35.6875 11.515625 40.375 
Q 6.59375 45.0625 6.59375 53.421875 
Q 6.59375 63.09375 13.40625 68.65625 
Q 20.21875 74.21875 32.171875 74.21875 
Q 37.3125 74.21875 42.625 73.28125 
Q 47.953125 72.359375 53.515625 70.515625 
z
" id="DejaVuSans-53"/>
     <path d="M 19.671875 64.796875 
L 19.671875 37.40625 
L 32.078125 37.40625 
Q 38.96875 37.40625 42.71875 40.96875 
Q 46.484375 44.53125 46.484375 51.125 
Q 46.484375 57.671875 42.71875 61.234375 
Q 38.96875 64.796875 32.078125 64.796875 
z
M 9.8125 72.90625 
L 32.078125 72.90625 
Q 44.34375 72.90625 50.609375 67.359375 
Q 56.890625 61.8125 56.890625 51.125 
Q 56.890625 40.328125 50.609375 34.8125 
Q 44.34375 29.296875 32.078125 29.296875 
L 19.671875 29.296875 
L 19.671875 0 
L 9.8125 0 
z
" id="DejaVuSans-50"/>
    </defs>
    <g transform="translate(369.18424 294.223611)scale(0.17 -0.17)">
     <use xlink:href="#DejaVuSans-43"/>
     <use x="69.824219" xlink:href="#DejaVuSans-4d"/>
     <use x="156.103516" xlink:href="#DejaVuSans-41"/>
     <use x="224.511719" xlink:href="#DejaVuSans-20"/>
     <use x="256.298828" xlink:href="#DejaVuSans-45"/>
     <use x="319.482422" xlink:href="#DejaVuSans-53"/>
     <use x="382.958984" xlink:href="#DejaVuSans-20"/>
     <use x="414.746094" xlink:href="#DejaVuSans-50"/>
     <use x="475.048828" xlink:href="#DejaVuSans-50"/>
     <use x="535.351562" xlink:href="#DejaVuSans-4d"/>
    </g>
   </g>
   <g id="text_14">
    <!-- CMA ES CSA -->
    <g transform="translate(369.18424 208.666383)scale(0.17 -0.17)">
     <use xlink:href="#DejaVuSans-43"/>
     <use x="69.824219" xlink:href="#DejaVuSans-4d"/>
     <use x="156.103516" xlink:href="#DejaVuSans-41"/>
     <use x="224.511719" xlink:href="#DejaVuSans-20"/>
     <use x="256.298828" xlink:href="#DejaVuSans-45"/>
     <use x="319.482422" xlink:href="#DejaVuSans-53"/>
     <use x="382.958984" xlink:href="#DejaVuSans-20"/>
     <use x="414.746094" xlink:href="#DejaVuSans-43"/>
     <use x="484.570312" xlink:href="#DejaVuSans-53"/>
     <use x="548.0625" xlink:href="#DejaVuSans-41"/>
    </g>
   </g>
   <g id="text_15">
    <!-- ppmf-new -->
    <defs>
     <path d="M 4.203125 54.6875 
L 13.1875 54.6875 
L 24.421875 12.015625 
L 35.59375 54.6875 
L 46.1875 54.6875 
L 57.421875 12.015625 
L 68.609375 54.6875 
L 77.59375 54.6875 
L 63.28125 0 
L 52.6875 0 
L 40.921875 44.828125 
L 29.109375 0 
L 18.5 0 
z
" id="DejaVuSans-77"/>
    </defs>
    <g transform="translate(369.18424 123.109155)scale(0.17 -0.17)">
     <use xlink:href="#DejaVuSans-70"/>
     <use x="63.476562" xlink:href="#DejaVuSans-70"/>
     <use x="126.953125" xlink:href="#DejaVuSans-6d"/>
     <use x="224.365234" xlink:href="#DejaVuSans-66"/>
     <use x="259.492188" xlink:href="#DejaVuSans-2d"/>
     <use x="295.576172" xlink:href="#DejaVuSans-6e"/>
     <use x="358.955078" xlink:href="#DejaVuSans-65"/>
     <use x="420.478516" xlink:href="#DejaVuSans-77"/>
    </g>
   </g>
   <g id="text_16">
    <!-- best 2009 -->
    <defs>
     <path d="M 48.6875 27.296875 
Q 48.6875 37.203125 44.609375 42.84375 
Q 40.53125 48.484375 33.40625 48.484375 
Q 26.265625 48.484375 22.1875 42.84375 
Q 18.109375 37.203125 18.109375 27.296875 
Q 18.109375 17.390625 22.1875 11.75 
Q 26.265625 6.109375 33.40625 6.109375 
Q 40.53125 6.109375 44.609375 11.75 
Q 48.6875 17.390625 48.6875 27.296875 
z
M 18.109375 46.390625 
Q 20.953125 51.265625 25.265625 53.625 
Q 29.59375 56 35.59375 56 
Q 45.5625 56 51.78125 48.09375 
Q 58.015625 40.1875 58.015625 27.296875 
Q 58.015625 14.40625 51.78125 6.484375 
Q 45.5625 -1.421875 35.59375 -1.421875 
Q 29.59375 -1.421875 25.265625 0.953125 
Q 20.953125 3.328125 18.109375 8.203125 
L 18.109375 0 
L 9.078125 0 
L 9.078125 75.984375 
L 18.109375 75.984375 
z
" id="DejaVuSans-62"/>
     <path d="M 10.984375 1.515625 
L 10.984375 10.5 
Q 14.703125 8.734375 18.5 7.8125 
Q 22.3125 6.890625 25.984375 6.890625 
Q 35.75 6.890625 40.890625 13.453125 
Q 46.046875 20.015625 46.78125 33.40625 
Q 43.953125 29.203125 39.59375 26.953125 
Q 35.25 24.703125 29.984375 24.703125 
Q 19.046875 24.703125 12.671875 31.3125 
Q 6.296875 37.9375 6.296875 49.421875 
Q 6.296875 60.640625 12.9375 67.421875 
Q 19.578125 74.21875 30.609375 74.21875 
Q 43.265625 74.21875 49.921875 64.515625 
Q 56.59375 54.828125 56.59375 36.375 
Q 56.59375 19.140625 48.40625 8.859375 
Q 40.234375 -1.421875 26.421875 -1.421875 
Q 22.703125 -1.421875 18.890625 -0.6875 
Q 15.09375 0.046875 10.984375 1.515625 
z
M 30.609375 32.421875 
Q 37.25 32.421875 41.125 36.953125 
Q 45.015625 41.5 45.015625 49.421875 
Q 45.015625 57.28125 41.125 61.84375 
Q 37.25 66.40625 30.609375 66.40625 
Q 23.96875 66.40625 20.09375 61.84375 
Q 16.21875 57.28125 16.21875 49.421875 
Q 16.21875 41.5 20.09375 36.953125 
Q 23.96875 32.421875 30.609375 32.421875 
z
" id="DejaVuSans-39"/>
    </defs>
    <g transform="translate(369.18424 37.551928)scale(0.17 -0.17)">
     <use xlink:href="#DejaVuSans-62"/>
     <use x="63.476562" xlink:href="#DejaVuSans-65"/>
     <use x="125" xlink:href="#DejaVuSans-73"/>
     <use x="177.099609" xlink:href="#DejaVuSans-74"/>
     <use x="216.308594" xlink:href="#DejaVuSans-20"/>
     <use x="248.095703" xlink:href="#DejaVuSans-32"/>
     <use x="311.71875" xlink:href="#DejaVuSans-30"/>
     <use x="375.341797" xlink:href="#DejaVuSans-30"/>
     <use x="438.964844" xlink:href="#DejaVuSans-39"/>
    </g>
   </g>
   <g id="text_17">
    <!-- bbob f15, 3-D -->
    <defs>
     <path d="M 10.796875 72.90625 
L 49.515625 72.90625 
L 49.515625 64.59375 
L 19.828125 64.59375 
L 19.828125 46.734375 
Q 21.96875 47.46875 24.109375 47.828125 
Q 26.265625 48.1875 28.421875 48.1875 
Q 40.625 48.1875 47.75 41.5 
Q 54.890625 34.8125 54.890625 23.390625 
Q 54.890625 11.625 47.5625 5.09375 
Q 40.234375 -1.421875 26.90625 -1.421875 
Q 22.3125 -1.421875 17.546875 -0.640625 
Q 12.796875 0.140625 7.71875 1.703125 
L 7.71875 11.625 
Q 12.109375 9.234375 16.796875 8.0625 
Q 21.484375 6.890625 26.703125 6.890625 
Q 35.15625 6.890625 40.078125 11.328125 
Q 45.015625 15.765625 45.015625 23.390625 
Q 45.015625 31 40.078125 35.4375 
Q 35.15625 39.890625 26.703125 39.890625 
Q 22.75 39.890625 18.8125 39.015625 
Q 14.890625 38.140625 10.796875 36.28125 
z
" id="DejaVuSans-35"/>
     <path d="M 40.578125 39.3125 
Q 47.65625 37.796875 51.625 33 
Q 55.609375 28.21875 55.609375 21.1875 
Q 55.609375 10.40625 48.1875 4.484375 
Q 40.765625 -1.421875 27.09375 -1.421875 
Q 22.515625 -1.421875 17.65625 -0.515625 
Q 12.796875 0.390625 7.625 2.203125 
L 7.625 11.71875 
Q 11.71875 9.328125 16.59375 8.109375 
Q 21.484375 6.890625 26.8125 6.890625 
Q 36.078125 6.890625 40.9375 10.546875 
Q 45.796875 14.203125 45.796875 21.1875 
Q 45.796875 27.640625 41.28125 31.265625 
Q 36.765625 34.90625 28.71875 34.90625 
L 20.21875 34.90625 
L 20.21875 43.015625 
L 29.109375 43.015625 
Q 36.375 43.015625 40.234375 45.921875 
Q 44.09375 48.828125 44.09375 54.296875 
Q 44.09375 59.90625 40.109375 62.90625 
Q 36.140625 65.921875 28.71875 65.921875 
Q 24.65625 65.921875 20.015625 65.03125 
Q 15.375 64.15625 9.8125 62.3125 
L 9.8125 71.09375 
Q 15.4375 72.65625 20.34375 73.4375 
Q 25.25 74.21875 29.59375 74.21875 
Q 40.828125 74.21875 47.359375 69.109375 
Q 53.90625 64.015625 53.90625 55.328125 
Q 53.90625 49.265625 50.4375 45.09375 
Q 46.96875 40.921875 40.578125 39.3125 
z
" id="DejaVuSans-33"/>
     <path d="M 19.671875 64.796875 
L 19.671875 8.109375 
L 31.59375 8.109375 
Q 46.6875 8.109375 53.6875 14.9375 
Q 60.6875 21.78125 60.6875 36.53125 
Q 60.6875 51.171875 53.6875 57.984375 
Q 46.6875 64.796875 31.59375 64.796875 
z
M 9.8125 72.90625 
L 30.078125 72.90625 
Q 51.265625 72.90625 61.171875 64.09375 
Q 71.09375 55.28125 71.09375 36.53125 
Q 71.09375 17.671875 61.125 8.828125 
Q 51.171875 0 30.078125 0 
L 9.8125 0 
z
" id="DejaVuSans-44"/>
    </defs>
    <g transform="translate(58.89048 35.290806)scale(0.102 -0.102)">
     <use xlink:href="#DejaVuSans-62"/>
     <use x="63.476562" xlink:href="#DejaVuSans-62"/>
     <use x="126.953125" xlink:href="#DejaVuSans-6f"/>
     <use x="188.134766" xlink:href="#DejaVuSans-62"/>
     <use x="251.611328" xlink:href="#DejaVuSans-20"/>
     <use x="283.398438" xlink:href="#DejaVuSans-66"/>
     <use x="318.603516" xlink:href="#DejaVuSans-31"/>
     <use x="382.226562" xlink:href="#DejaVuSans-35"/>
     <use x="445.849609" xlink:href="#DejaVuSans-2c"/>
     <use x="477.636719" xlink:href="#DejaVuSans-20"/>
     <use x="509.423828" xlink:href="#DejaVuSans-33"/>
     <use x="573.046875" xlink:href="#DejaVuSans-2d"/>
     <use x="609.130859" xlink:href="#DejaVuSans-44"/>
    </g>
    <!-- 51 targets: 100..1e-08 -->
    <defs>
     <path d="M 11.71875 12.40625 
L 22.015625 12.40625 
L 22.015625 0 
L 11.71875 0 
z
M 11.71875 51.703125 
L 22.015625 51.703125 
L 22.015625 39.3125 
L 11.71875 39.3125 
z
" id="DejaVuSans-3a"/>
    </defs>
    <g transform="translate(58.89048 46.712575)scale(0.102 -0.102)">
     <use xlink:href="#DejaVuSans-35"/>
     <use x="63.623047" xlink:href="#DejaVuSans-31"/>
     <use x="127.246094" xlink:href="#DejaVuSans-20"/>
     <use x="159.033203" xlink:href="#DejaVuSans-74"/>
     <use x="198.242188" xlink:href="#DejaVuSans-61"/>
     <use x="259.521484" xlink:href="#DejaVuSans-72"/>
     <use x="300.619141" xlink:href="#DejaVuSans-67"/>
     <use x="364.095703" xlink:href="#DejaVuSans-65"/>
     <use x="425.619141" xlink:href="#DejaVuSans-74"/>
     <use x="464.828125" xlink:href="#DejaVuSans-73"/>
     <use x="516.927734" xlink:href="#DejaVuSans-3a"/>
     <use x="550.619141" xlink:href="#DejaVuSans-20"/>
     <use x="582.40625" xlink:href="#DejaVuSans-31"/>
     <use x="646.029297" xlink:href="#DejaVuSans-30"/>
     <use x="709.652344" xlink:href="#DejaVuSans-30"/>
     <use x="773.275391" xlink:href="#DejaVuSans-2e"/>
     <use x="805.0625" xlink:href="#DejaVuSans-2e"/>
     <use x="836.849609" xlink:href="#DejaVuSans-31"/>
     <use x="900.472656" xlink:href="#DejaVuSans-65"/>
     <use x="961.996094" xlink:href="#DejaVuSans-2d"/>
     <use x="998.080078" xlink:href="#DejaVuSans-30"/>
     <use x="1061.703125" xlink:href="#DejaVuSans-38"/>
    </g>
    <!-- 15 instances -->
    <g transform="translate(58.89048 58.134344)scale(0.102 -0.102)">
     <use xlink:href="#DejaVuSans-31"/>
     <use x="63.623047" xlink:href="#DejaVuSans-35"/>
     <use x="127.246094" xlink:href="#DejaVuSans-20"/>
     <use x="159.033203" xlink:href="#DejaVuSans-69"/>
     <use x="186.816406" xlink:href="#DejaVuSans-6e"/>
     <use x="250.195312" xlink:href="#DejaVuSans-73"/>
     <use x="302.294922" xlink:href="#DejaVuSans-74"/>
     <use x="341.503906" xlink:href="#DejaVuSans-61"/>
     <use x="402.783203" xlink:href="#DejaVuSans-6e"/>
     <use x="466.162109" xlink:href="#DejaVuSans-63"/>
     <use x="521.142578" xlink:href="#DejaVuSans-65"/>
     <use x="582.666016" xlink:href="#DejaVuSans-73"/>
    </g>
   </g>
   <g id="text_18">
    <!-- v0.0.0 -->
    <g style="fill:#808080;" transform="translate(178.96275 290.099912)scale(0.1 -0.1)">
     <use xlink:href="#DejaVuSans-76"/>
     <use x="59.179688" xlink:href="#DejaVuSans-30"/>
     <use x="122.802734" xlink:href="#DejaVuSans-2e"/>
     <use x="154.589844" xlink:href="#DejaVuSans-30"/>
     <use x="218.212891" xlink:href="#DejaVuSans-2e"/>
     <use x="250" xlink:href="#DejaVuSans-30"/>
    </g>
   </g>
   <g id="text_19">
    <!-- 15 Rastrigin -->
    <defs>
     <path d="M 44.390625 34.1875 
Q 47.5625 33.109375 50.5625 29.59375 
Q 53.5625 26.078125 56.59375 19.921875 
L 66.609375 0 
L 56 0 
L 46.6875 18.703125 
Q 43.0625 26.03125 39.671875 28.421875 
Q 36.28125 30.8125 30.421875 30.8125 
L 19.671875 30.8125 
L 19.671875 0 
L 9.8125 0 
L 9.8125 72.90625 
L 32.078125 72.90625 
Q 44.578125 72.90625 50.734375 67.671875 
Q 56.890625 62.453125 56.890625 51.90625 
Q 56.890625 45.015625 53.6875 40.46875 
Q 50.484375 35.9375 44.390625 34.1875 
z
M 19.671875 64.796875 
L 19.671875 38.921875 
L 32.078125 38.921875 
Q 39.203125 38.921875 42.84375 42.21875 
Q 46.484375 45.515625 46.484375 51.90625 
Q 46.484375 58.296875 42.84375 61.546875 
Q 39.203125 64.796875 32.078125 64.796875 
z
" id="DejaVuSans-52"/>
    </defs>
    <g transform="translate(134.184625 18.84)scale(0.2 -0.2)">
     <use xlink:href="#DejaVuSans-31"/>
     <use x="63.623047" xlink:href="#DejaVuSans-35"/>
     <use x="127.246094" xlink:href="#DejaVuSans-20"/>
     <use x="159.033203" xlink:href="#DejaVuSans-52"/>
     <use x="228.484375" xlink:href="#DejaVuSans-61"/>
     <use x="289.763672" xlink:href="#DejaVuSans-73"/>
     <use x="341.863281" xlink:href="#DejaVuSans-74"/>
     <use x="381.072266" xlink:href="#DejaVuSans-72"/>
     <use x="422.185547" xlink:href="#DejaVuSans-69"/>
     <use x="449.96875" xlink:href="#DejaVuSans-67"/>
     <use x="513.445312" xlink:href="#DejaVuSans-69"/>
     <use x="541.228516" xlink:href="#DejaVuSans-6e"/>
    </g>
   </g>
  </g>
 </g>
 <defs>
  <clipPath id="p5e63870685">
   <rect height="270.04" width="277.048" x="56.12" y="24.84"/>
  </clipPath>
 </defs>
</svg>
