<?xml version="1.0" encoding="utf-8" standalone="no"?>
<!DOCTYPE svg PUBLIC "-//W3C//DTD SVG 1.1//EN"
  "http://www.w3.org/Graphics/SVG/1.1/DTD/svg11.dtd">
<!-- Created with matplotlib (http://matplotlib.org/) -->
<svg height="345pt" version="1.1" viewBox="0 0 460 345" width="460pt" xmlns="http://www.w3.org/2000/svg" xmlns:xlink="http://www.w3.org/1999/xlink">
 <defs>
  <style type="text/css">
*{stroke-linecap:butt;stroke-linejoin:round;}
  </style>
 </defs>
 <g id="figure_1">
  <g id="patch_1">
   <path d="M 0 345.6 
L 460.8 345.6 
L 460.8 0 
L 0 0 
z
" style="fill:#ffffff;"/>
  </g>
  <g id="axes_1">
   <g id="patch_2">
    <path d="M 56.12 294.88 
L 333.168 294.88 
L 333.168 24.84 
L 56.12 24.84 
z
" style="fill:#ffffff;"/>
   </g>
   <g id="line2d_1">
    <path d="M 91.427575 294.88 
L 91.427575 289.637523 
L 103.120034 289.637523 
L 103.120034 284.395046 
L 107.783569 284.395046 
L 107.783569 279.152568 
L 112.643127 279.152568 
L 112.643127 273.910091 
L 115.957752 273.910091 
L 115.957752 268.667614 
L 118.958878 268.667614 
L 118.958878 263.425137 
L 120.809808 263.425137 
L 120.809808 258.18266 
L 122.660646 258.18266 
L 122.660646 252.940182 
L 124.069494 252.940182 
L 124.069494 247.697705 
L 125.371564 247.697705 
L 125.371564 242.455228 
L 126.381204 242.455228 
L 126.381204 237.212751 
L 127.334814 237.212751 
L 127.334814 231.970274 
L 128.495224 231.970274 
L 128.495224 226.727797 
L 129.606147 226.727797 
L 129.606147 221.485319 
L 130.649607 221.485319 
L 130.649607 216.242842 
L 131.376461 216.242842 
L 131.376461 211.000365 
L 132.320552 211.000365 
L 132.320552 205.757888 
L 133.020593 205.757888 
L 133.020593 200.515411 
L 133.843356 200.515411 
L 133.843356 195.272933 
L 134.646368 195.272933 
L 134.646368 190.030456 
L 135.515543 190.030456 
L 135.515543 184.787979 
L 136.326713 184.787979 
L 136.326713 179.545502 
L 158.385485 179.545502 
L 158.385485 174.303025 
L 160.312153 174.303025 
L 160.312153 169.060547 
L 160.90662 169.060547 
L 160.90662 163.81807 
L 161.458745 163.81807 
L 161.458745 158.575593 
L 161.979149 158.575593 
L 161.979149 153.333116 
L 162.544168 153.333116 
L 162.544168 148.090639 
L 163.121847 148.090639 
L 163.121847 142.848162 
L 163.604837 142.848162 
L 163.604837 137.605684 
L 164.074626 137.605684 
L 164.074626 132.363207 
L 164.560096 132.363207 
L 164.560096 127.12073 
L 165.192802 127.12073 
L 165.192802 121.878253 
L 165.671576 121.878253 
L 165.671576 116.635776 
L 166.134519 116.635776 
L 166.134519 111.393298 
L 166.660241 111.393298 
L 166.660241 106.150821 
L 167.17842 106.150821 
L 167.17842 100.908344 
L 167.547854 100.908344 
L 167.547854 95.665867 
L 167.96863 95.665867 
L 167.96863 90.42339 
L 168.304029 90.42339 
L 168.304029 85.180912 
L 168.746189 85.180912 
L 168.746189 79.938435 
L 169.100556 79.938435 
L 169.100556 74.695958 
L 169.485392 74.695958 
L 169.485392 69.453481 
L 169.889357 69.453481 
L 169.889357 64.211004 
L 170.214388 64.211004 
L 170.214388 58.968526 
L 170.537807 58.968526 
L 170.537807 53.726049 
L 170.883429 53.726049 
L 170.883429 48.483572 
L 171.183974 48.483572 
L 171.183974 43.241095 
L 171.523228 43.241095 
L 171.523228 37.998618 
L 171.806728 37.998618 
L 171.806728 32.756141 
L 172.148114 32.756141 
L 172.148114 27.513663 
L 333.168 27.513663 
" style="fill:none;stroke:#f5deb3;stroke-linecap:square;stroke-width:4;"/>
   </g>
   <g id="line2d_2">
    <defs>
     <path d="M -0 7.778175 
L 7.778175 0 
L 0 -7.778175 
L -7.778175 -0 
z
" id="mf1571c9aad" style="stroke:#f5deb3;stroke-linejoin:miter;stroke-width:1.5;"/>
    </defs>
    <g>
     <use style="fill:#f5deb3;stroke:#f5deb3;stroke-linejoin:miter;stroke-width:1.5;" x="120.809808" xlink:href="#mf1571c9aad" y="258.18266"/>
     <use style="fill:#f5deb3;stroke:#f5deb3;stroke-linejoin:miter;stroke-width:1.5;" x="165.671576" xlink:href="#mf1571c9aad" y="116.635776"/>
     <use style="fill:#f5deb3;stroke:#f5deb3;stroke-linejoin:miter;stroke-width:1.5;" x="172.148114" xlink:href="#mf1571c9aad" y="32.756141"/>
     <use style="fill:#f5deb3;stroke:#f5deb3;stroke-linejoin:miter;stroke-width:1.5;" x="172.148114" xlink:href="#mf1571c9aad" y="27.513663"/>
     <use style="fill:#f5deb3;stroke:#f5deb3;stroke-linejoin:miter;stroke-width:1.5;" x="333.168" xlink:href="#mf1571c9aad" y="27.513663"/>
    </g>
   </g>
   <g id="line2d_3">
    <path style="fill:none;stroke:#f5deb3;stroke-linecap:square;stroke-width:4;"/>
    <g/>
   </g>
   <g id="line2d_4">
    <path d="M 333.168 27.513663 
L 363.64328 32.86099 
" style="fill:none;stroke:#f5deb3;stroke-linecap:square;stroke-width:4;"/>
    <g>
     <use style="fill:#f5deb3;stroke:#f5deb3;stroke-linejoin:miter;stroke-width:1.5;" x="333.168" xlink:href="#mf1571c9aad" y="27.513663"/>
     <use style="fill:#f5deb3;stroke:#f5deb3;stroke-linejoin:miter;stroke-width:1.5;" x="363.64328" xlink:href="#mf1571c9aad" y="32.86099"/>
    </g>
   </g>
   <g id="matplotlib.axis_1">
    <g id="xtick_1">
     <g id="line2d_5">
      <path clip-path="url(#p2e0ba5768d)" d="M 56.12 294.88 
L 56.12 24.84 
" style="fill:none;stroke:#b0b0b0;stroke-linecap:square;stroke-width:0.8;"/>
     </g>
     <g id="line2d_6">
      <defs>
       <path d="M 0 0 
L 0 3.5 
" id="md32296b2a4" style="stroke:#000000;stroke-width:0.8;"/>
      </defs>
      <g>
       <use style="stroke:#000000;stroke-width:0.8;" x="56.12" xlink:href="#md32296b2a4" y="294.88"/>
      </g>
     </g>
     <g id="text_1">
      <!-- 0 -->
      <defs>
       <path d="M 31.78125 66.40625 
Q 24.171875 66.40625 20.328125 58.90625 
Q 16.5 51.421875 16.5 36.375 
Q 16.5 21.390625 20.328125 13.890625 
Q 24.171875 6.390625 31.78125 6.390625 
Q 39.453125 6.390625 43.28125 13.890625 
Q 47.125 21.390625 47.125 36.375 
Q 47.125 51.421875 43.28125 58.90625 
Q 39.453125 66.40625 31.78125 66.40625 
z
M 31.78125 74.21875 
Q 44.046875 74.21875 50.515625 64.515625 
Q 56.984375 54.828125 56.984375 36.375 
Q 56.984375 17.96875 50.515625 8.265625 
Q 44.046875 -1.421875 31.78125 -1.421875 
Q 19.53125 -1.421875 13.0625 8.265625 
Q 6.59375 17.96875 6.59375 36.375 
Q 6.59375 54.828125 13.0625 64.515625 
Q 19.53125 74.21875 31.78125 74.21875 
z
" id="DejaVuSans-30"/>
      </defs>
      <g transform="translate(49.7575 317.076875)scale(0.2 -0.2)">
       <use xlink:href="#DejaVuSans-30"/>
      </g>
     </g>
    </g>
    <g id="xtick_2">
     <g id="line2d_7">
      <path clip-path="url(#p2e0ba5768d)" d="M 135.276571 294.88 
L 135.276571 24.84 
" style="fill:none;stroke:#b0b0b0;stroke-linecap:square;stroke-width:0.8;"/>
     </g>
     <g id="line2d_8">
      <g>
       <use style="stroke:#000000;stroke-width:0.8;" x="135.276571" xlink:href="#md32296b2a4" y="294.88"/>
      </g>
     </g>
     <g id="text_2">
      <!-- 2 -->
      <defs>
       <path d="M 19.1875 8.296875 
L 53.609375 8.296875 
L 53.609375 0 
L 7.328125 0 
L 7.328125 8.296875 
Q 12.9375 14.109375 22.625 23.890625 
Q 32.328125 33.6875 34.8125 36.53125 
Q 39.546875 41.84375 41.421875 45.53125 
Q 43.3125 49.21875 43.3125 52.78125 
Q 43.3125 58.59375 39.234375 62.25 
Q 35.15625 65.921875 28.609375 65.921875 
Q 23.96875 65.921875 18.8125 64.3125 
Q 13.671875 62.703125 7.8125 59.421875 
L 7.8125 69.390625 
Q 13.765625 71.78125 18.9375 73 
Q 24.125 74.21875 28.421875 74.21875 
Q 39.75 74.21875 46.484375 68.546875 
Q 53.21875 62.890625 53.21875 53.421875 
Q 53.21875 48.921875 51.53125 44.890625 
Q 49.859375 40.875 45.40625 35.40625 
Q 44.1875 33.984375 37.640625 27.21875 
Q 31.109375 20.453125 19.1875 8.296875 
z
" id="DejaVuSans-32"/>
      </defs>
      <g transform="translate(128.914071 317.076875)scale(0.2 -0.2)">
       <use xlink:href="#DejaVuSans-32"/>
      </g>
     </g>
    </g>
    <g id="xtick_3">
     <g id="line2d_9">
      <path clip-path="url(#p2e0ba5768d)" d="M 214.433143 294.88 
L 214.433143 24.84 
" style="fill:none;stroke:#b0b0b0;stroke-linecap:square;stroke-width:0.8;"/>
     </g>
     <g id="line2d_10">
      <g>
       <use style="stroke:#000000;stroke-width:0.8;" x="214.433143" xlink:href="#md32296b2a4" y="294.88"/>
      </g>
     </g>
     <g id="text_3">
      <!-- 4 -->
      <defs>
       <path d="M 37.796875 64.3125 
L 12.890625 25.390625 
L 37.796875 25.390625 
z
M 35.203125 72.90625 
L 47.609375 72.90625 
L 47.609375 25.390625 
L 58.015625 25.390625 
L 58.015625 17.1875 
L 47.609375 17.1875 
L 47.609375 0 
L 37.796875 0 
L 37.796875 17.1875 
L 4.890625 17.1875 
L 4.890625 26.703125 
z
" id="DejaVuSans-34"/>
      </defs>
      <g transform="translate(208.070643 317.076875)scale(0.2 -0.2)">
       <use xlink:href="#DejaVuSans-34"/>
      </g>
     </g>
    </g>
    <g id="xtick_4">
     <g id="line2d_11">
      <path clip-path="url(#p2e0ba5768d)" d="M 293.589714 294.88 
L 293.589714 24.84 
" style="fill:none;stroke:#b0b0b0;stroke-linecap:square;stroke-width:0.8;"/>
     </g>
     <g id="line2d_12">
      <g>
       <use style="stroke:#000000;stroke-width:0.8;" x="293.589714" xlink:href="#md32296b2a4" y="294.88"/>
      </g>
     </g>
     <g id="text_4">
      <!-- 6 -->
      <defs>
       <path d="M 33.015625 40.375 
Q 26.375 40.375 22.484375 35.828125 
Q 18.609375 31.296875 18.609375 23.390625 
Q 18.609375 15.53125 22.484375 10.953125 
Q 26.375 6.390625 33.015625 6.390625 
Q 39.65625 6.390625 43.53125 10.953125 
Q 47.40625 15.53125 47.40625 23.390625 
Q 47.40625 31.296875 43.53125 35.828125 
Q 39.65625 40.375 33.015625 40.375 
z
M 52.59375 71.296875 
L 52.59375 62.3125 
Q 48.875 64.0625 45.09375 64.984375 
Q 41.3125 65.921875 37.59375 65.921875 
Q 27.828125 65.921875 22.671875 59.328125 
Q 17.53125 52.734375 16.796875 39.40625 
Q 19.671875 43.65625 24.015625 45.921875 
Q 28.375 48.1875 33.59375 48.1875 
Q 44.578125 48.1875 50.953125 41.515625 
Q 57.328125 34.859375 57.328125 23.390625 
Q 57.328125 12.15625 50.6875 5.359375 
Q 44.046875 -1.421875 33.015625 -1.421875 
Q 20.359375 -1.421875 13.671875 8.265625 
Q 6.984375 17.96875 6.984375 36.375 
Q 6.984375 53.65625 15.1875 63.9375 
Q 23.390625 74.21875 37.203125 74.21875 
Q 40.921875 74.21875 44.703125 73.484375 
Q 48.484375 72.75 52.59375 71.296875 
z
" id="DejaVuSans-36"/>
      </defs>
      <g transform="translate(287.227214 317.076875)scale(0.2 -0.2)">
       <use xlink:href="#DejaVuSans-36"/>
      </g>
     </g>
    </g>
    <g id="xtick_5">
     <g id="line2d_13">
      <path clip-path="url(#p2e0ba5768d)" d="M 56.12 294.88 
L 56.12 24.84 
" style="fill:none;stroke:#b0b0b0;stroke-linecap:square;stroke-width:0.8;"/>
     </g>
     <g id="line2d_14">
      <defs>
       <path d="M 0 0 
L 0 2 
" id="mbfa2533f7e" style="stroke:#000000;stroke-width:0.6;"/>
      </defs>
      <g>
       <use style="stroke:#000000;stroke-width:0.6;" x="56.12" xlink:href="#mbfa2533f7e" y="294.88"/>
      </g>
     </g>
    </g>
    <g id="xtick_6">
     <g id="line2d_15">
      <path clip-path="url(#p2e0ba5768d)" d="M 95.698286 294.88 
L 95.698286 24.84 
" style="fill:none;stroke:#b0b0b0;stroke-linecap:square;stroke-width:0.8;"/>
     </g>
     <g id="line2d_16">
      <g>
       <use style="stroke:#000000;stroke-width:0.6;" x="95.698286" xlink:href="#mbfa2533f7e" y="294.88"/>
      </g>
     </g>
    </g>
    <g id="xtick_7">
     <g id="line2d_17">
      <path clip-path="url(#p2e0ba5768d)" d="M 135.276571 294.88 
L 135.276571 24.84 
" style="fill:none;stroke:#b0b0b0;stroke-linecap:square;stroke-width:0.8;"/>
     </g>
     <g id="line2d_18">
      <g>
       <use style="stroke:#000000;stroke-width:0.6;" x="135.276571" xlink:href="#mbfa2533f7e" y="294.88"/>
      </g>
     </g>
    </g>
    <g id="xtick_8">
     <g id="line2d_19">
      <path clip-path="url(#p2e0ba5768d)" d="M 174.854857 294.88 
L 174.854857 24.84 
" style="fill:none;stroke:#b0b0b0;stroke-linecap:square;stroke-width:0.8;"/>
     </g>
     <g id="line2d_20">
      <g>
       <use style="stroke:#000000;stroke-width:0.6;" x="174.854857" xlink:href="#mbfa2533f7e" y="294.88"/>
      </g>
     </g>
    </g>
    <g id="xtick_9">
     <g id="line2d_21">
      <path clip-path="url(#p2e0ba5768d)" d="M 214.433143 294.88 
L 214.433143 24.84 
" style="fill:none;stroke:#b0b0b0;stroke-linecap:square;stroke-width:0.8;"/>
     </g>
     <g id="line2d_22">
      <g>
       <use style="stroke:#000000;stroke-width:0.6;" x="214.433143" xlink:href="#mbfa2533f7e" y="294.88"/>
      </g>
     </g>
    </g>
    <g id="xtick_10">
     <g id="line2d_23">
      <path clip-path="url(#p2e0ba5768d)" d="M 254.011429 294.88 
L 254.011429 24.84 
" style="fill:none;stroke:#b0b0b0;stroke-linecap:square;stroke-width:0.8;"/>
     </g>
     <g id="line2d_24">
      <g>
       <use style="stroke:#000000;stroke-width:0.6;" x="254.011429" xlink:href="#mbfa2533f7e" y="294.88"/>
      </g>
     </g>
    </g>
    <g id="xtick_11">
     <g id="line2d_25">
      <path clip-path="url(#p2e0ba5768d)" d="M 293.589714 294.88 
L 293.589714 24.84 
" style="fill:none;stroke:#b0b0b0;stroke-linecap:square;stroke-width:0.8;"/>
     </g>
     <g id="line2d_26">
      <g>
       <use style="stroke:#000000;stroke-width:0.6;" x="293.589714" xlink:href="#mbfa2533f7e" y="294.88"/>
      </g>
     </g>
    </g>
    <g id="xtick_12">
     <g id="line2d_27">
      <path clip-path="url(#p2e0ba5768d)" d="M 333.168 294.88 
L 333.168 24.84 
" style="fill:none;stroke:#b0b0b0;stroke-linecap:square;stroke-width:0.8;"/>
     </g>
     <g id="line2d_28">
      <g>
       <use style="stroke:#000000;stroke-width:0.6;" x="333.168" xlink:href="#mbfa2533f7e" y="294.88"/>
      </g>
     </g>
    </g>
    <g id="text_5">
     <!-- log10(# f-evals / dimension) -->
     <defs>
      <path d="M 9.421875 75.984375 
L 18.40625 75.984375 
L 18.40625 0 
L 9.421875 0 
z
" id="DejaVuSans-6c"/>
      <path d="M 30.609375 48.390625 
Q 23.390625 48.390625 19.1875 42.75 
Q 14.984375 37.109375 14.984375 27.296875 
Q 14.984375 17.484375 19.15625 11.84375 
Q 23.34375 6.203125 30.609375 6.203125 
Q 37.796875 6.203125 41.984375 11.859375 
Q 46.1875 17.53125 46.1875 27.296875 
Q 46.1875 37.015625 41.984375 42.703125 
Q 37.796875 48.390625 30.609375 48.390625 
z
M 30.609375 56 
Q 42.328125 56 49.015625 48.375 
Q 55.71875 40.765625 55.71875 27.296875 
Q 55.71875 13.875 49.015625 6.21875 
Q 42.328125 -1.421875 30.609375 -1.421875 
Q 18.84375 -1.421875 12.171875 6.21875 
Q 5.515625 13.875 5.515625 27.296875 
Q 5.515625 40.765625 12.171875 48.375 
Q 18.84375 56 30.609375 56 
z
" id="DejaVuSans-6f"/>
      <path d="M 45.40625 27.984375 
Q 45.40625 37.75 41.375 43.109375 
Q 37.359375 48.484375 30.078125 48.484375 
Q 22.859375 48.484375 18.828125 43.109375 
Q 14.796875 37.75 14.796875 27.984375 
Q 14.796875 18.265625 18.828125 12.890625 
Q 22.859375 7.515625 30.078125 7.515625 
Q 37.359375 7.515625 41.375 12.890625 
Q 45.40625 18.265625 45.40625 27.984375 
z
M 54.390625 6.78125 
Q 54.390625 -7.171875 48.1875 -13.984375 
Q 42 -20.796875 29.203125 -20.796875 
Q 24.46875 -20.796875 20.265625 -20.09375 
Q 16.0625 -19.390625 12.109375 -17.921875 
L 12.109375 -9.1875 
Q 16.0625 -11.328125 19.921875 -12.34375 
Q 23.78125 -13.375 27.78125 -13.375 
Q 36.625 -13.375 41.015625 -8.765625 
Q 45.40625 -4.15625 45.40625 5.171875 
L 45.40625 9.625 
Q 42.625 4.78125 38.28125 2.390625 
Q 33.9375 0 27.875 0 
Q 17.828125 0 11.671875 7.65625 
Q 5.515625 15.328125 5.515625 27.984375 
Q 5.515625 40.671875 11.671875 48.328125 
Q 17.828125 56 27.875 56 
Q 33.9375 56 38.28125 53.609375 
Q 42.625 51.21875 45.40625 46.390625 
L 45.40625 54.6875 
L 54.390625 54.6875 
z
" id="DejaVuSans-67"/>
      <path d="M 12.40625 8.296875 
L 28.515625 8.296875 
L 28.515625 63.921875 
L 10.984375 60.40625 
L 10.984375 69.390625 
L 28.421875 72.90625 
L 38.28125 72.90625 
L 38.28125 8.296875 
L 54.390625 8.296875 
L 54.390625 0 
L 12.40625 0 
z
" id="DejaVuSans-31"/>
      <path d="M 31 75.875 
Q 24.46875 64.65625 21.28125 53.65625 
Q 18.109375 42.671875 18.109375 31.390625 
Q 18.109375 20.125 21.3125 9.0625 
Q 24.515625 -2 31 -13.1875 
L 23.1875 -13.1875 
Q 15.875 -1.703125 12.234375 9.375 
Q 8.59375 20.453125 8.59375 31.390625 
Q 8.59375 42.28125 12.203125 53.3125 
Q 15.828125 64.359375 23.1875 75.875 
z
" id="DejaVuSans-28"/>
      <path d="M 51.125 44 
L 36.921875 44 
L 32.8125 27.6875 
L 47.125 27.6875 
z
M 43.796875 71.78125 
L 38.71875 51.515625 
L 52.984375 51.515625 
L 58.109375 71.78125 
L 65.921875 71.78125 
L 60.890625 51.515625 
L 76.125 51.515625 
L 76.125 44 
L 58.984375 44 
L 54.984375 27.6875 
L 70.515625 27.6875 
L 70.515625 20.21875 
L 53.078125 20.21875 
L 48 0 
L 40.1875 0 
L 45.21875 20.21875 
L 30.90625 20.21875 
L 25.875 0 
L 18.015625 0 
L 23.09375 20.21875 
L 7.71875 20.21875 
L 7.71875 27.6875 
L 24.90625 27.6875 
L 29 44 
L 13.28125 44 
L 13.28125 51.515625 
L 30.90625 51.515625 
L 35.890625 71.78125 
z
" id="DejaVuSans-23"/>
      <path id="DejaVuSans-20"/>
      <path d="M 37.109375 75.984375 
L 37.109375 68.5 
L 28.515625 68.5 
Q 23.6875 68.5 21.796875 66.546875 
Q 19.921875 64.59375 19.921875 59.515625 
L 19.921875 54.6875 
L 34.71875 54.6875 
L 34.71875 47.703125 
L 19.921875 47.703125 
L 19.921875 0 
L 10.890625 0 
L 10.890625 47.703125 
L 2.296875 47.703125 
L 2.296875 54.6875 
L 10.890625 54.6875 
L 10.890625 58.5 
Q 10.890625 67.625 15.140625 71.796875 
Q 19.390625 75.984375 28.609375 75.984375 
z
" id="DejaVuSans-66"/>
      <path d="M 4.890625 31.390625 
L 31.203125 31.390625 
L 31.203125 23.390625 
L 4.890625 23.390625 
z
" id="DejaVuSans-2d"/>
      <path d="M 56.203125 29.59375 
L 56.203125 25.203125 
L 14.890625 25.203125 
Q 15.484375 15.921875 20.484375 11.0625 
Q 25.484375 6.203125 34.421875 6.203125 
Q 39.59375 6.203125 44.453125 7.46875 
Q 49.3125 8.734375 54.109375 11.28125 
L 54.109375 2.78125 
Q 49.265625 0.734375 44.1875 -0.34375 
Q 39.109375 -1.421875 33.890625 -1.421875 
Q 20.796875 -1.421875 13.15625 6.1875 
Q 5.515625 13.8125 5.515625 26.8125 
Q 5.515625 40.234375 12.765625 48.109375 
Q 20.015625 56 32.328125 56 
Q 43.359375 56 49.78125 48.890625 
Q 56.203125 41.796875 56.203125 29.59375 
z
M 47.21875 32.234375 
Q 47.125 39.59375 43.09375 43.984375 
Q 39.0625 48.390625 32.421875 48.390625 
Q 24.90625 48.390625 20.390625 44.140625 
Q 15.875 39.890625 15.1875 32.171875 
z
" id="DejaVuSans-65"/>
      <path d="M 2.984375 54.6875 
L 12.5 54.6875 
L 29.59375 8.796875 
L 46.6875 54.6875 
L 56.203125 54.6875 
L 35.6875 0 
L 23.484375 0 
z
" id="DejaVuSans-76"/>
      <path d="M 34.28125 27.484375 
Q 23.390625 27.484375 19.1875 25 
Q 14.984375 22.515625 14.984375 16.5 
Q 14.984375 11.71875 18.140625 8.90625 
Q 21.296875 6.109375 26.703125 6.109375 
Q 34.1875 6.109375 38.703125 11.40625 
Q 43.21875 16.703125 43.21875 25.484375 
L 43.21875 27.484375 
z
M 52.203125 31.203125 
L 52.203125 0 
L 43.21875 0 
L 43.21875 8.296875 
Q 40.140625 3.328125 35.546875 0.953125 
Q 30.953125 -1.421875 24.3125 -1.421875 
Q 15.921875 -1.421875 10.953125 3.296875 
Q 6 8.015625 6 15.921875 
Q 6 25.140625 12.171875 29.828125 
Q 18.359375 34.515625 30.609375 34.515625 
L 43.21875 34.515625 
L 43.21875 35.40625 
Q 43.21875 41.609375 39.140625 45 
Q 35.0625 48.390625 27.6875 48.390625 
Q 23 48.390625 18.546875 47.265625 
Q 14.109375 46.140625 10.015625 43.890625 
L 10.015625 52.203125 
Q 14.9375 54.109375 19.578125 55.046875 
Q 24.21875 56 28.609375 56 
Q 40.484375 56 46.34375 49.84375 
Q 52.203125 43.703125 52.203125 31.203125 
z
" id="DejaVuSans-61"/>
      <path d="M 44.28125 53.078125 
L 44.28125 44.578125 
Q 40.484375 46.53125 36.375 47.5 
Q 32.28125 48.484375 27.875 48.484375 
Q 21.1875 48.484375 17.84375 46.4375 
Q 14.5 44.390625 14.5 40.28125 
Q 14.5 37.15625 16.890625 35.375 
Q 19.28125 33.59375 26.515625 31.984375 
L 29.59375 31.296875 
Q 39.15625 29.25 43.1875 25.515625 
Q 47.21875 21.78125 47.21875 15.09375 
Q 47.21875 7.46875 41.1875 3.015625 
Q 35.15625 -1.421875 24.609375 -1.421875 
Q 20.21875 -1.421875 15.453125 -0.5625 
Q 10.6875 0.296875 5.421875 2 
L 5.421875 11.28125 
Q 10.40625 8.6875 15.234375 7.390625 
Q 20.0625 6.109375 24.8125 6.109375 
Q 31.15625 6.109375 34.5625 8.28125 
Q 37.984375 10.453125 37.984375 14.40625 
Q 37.984375 18.0625 35.515625 20.015625 
Q 33.0625 21.96875 24.703125 23.78125 
L 21.578125 24.515625 
Q 13.234375 26.265625 9.515625 29.90625 
Q 5.8125 33.546875 5.8125 39.890625 
Q 5.8125 47.609375 11.28125 51.796875 
Q 16.75 56 26.8125 56 
Q 31.78125 56 36.171875 55.265625 
Q 40.578125 54.546875 44.28125 53.078125 
z
" id="DejaVuSans-73"/>
      <path d="M 25.390625 72.90625 
L 33.6875 72.90625 
L 8.296875 -9.28125 
L 0 -9.28125 
z
" id="DejaVuSans-2f"/>
      <path d="M 45.40625 46.390625 
L 45.40625 75.984375 
L 54.390625 75.984375 
L 54.390625 0 
L 45.40625 0 
L 45.40625 8.203125 
Q 42.578125 3.328125 38.25 0.953125 
Q 33.9375 -1.421875 27.875 -1.421875 
Q 17.96875 -1.421875 11.734375 6.484375 
Q 5.515625 14.40625 5.515625 27.296875 
Q 5.515625 40.1875 11.734375 48.09375 
Q 17.96875 56 27.875 56 
Q 33.9375 56 38.25 53.625 
Q 42.578125 51.265625 45.40625 46.390625 
z
M 14.796875 27.296875 
Q 14.796875 17.390625 18.875 11.75 
Q 22.953125 6.109375 30.078125 6.109375 
Q 37.203125 6.109375 41.296875 11.75 
Q 45.40625 17.390625 45.40625 27.296875 
Q 45.40625 37.203125 41.296875 42.84375 
Q 37.203125 48.484375 30.078125 48.484375 
Q 22.953125 48.484375 18.875 42.84375 
Q 14.796875 37.203125 14.796875 27.296875 
z
" id="DejaVuSans-64"/>
      <path d="M 9.421875 54.6875 
L 18.40625 54.6875 
L 18.40625 0 
L 9.421875 0 
z
M 9.421875 75.984375 
L 18.40625 75.984375 
L 18.40625 64.59375 
L 9.421875 64.59375 
z
" id="DejaVuSans-69"/>
      <path d="M 52 44.1875 
Q 55.375 50.25 60.0625 53.125 
Q 64.75 56 71.09375 56 
Q 79.640625 56 84.28125 50.015625 
Q 88.921875 44.046875 88.921875 33.015625 
L 88.921875 0 
L 79.890625 0 
L 79.890625 32.71875 
Q 79.890625 40.578125 77.09375 44.375 
Q 74.3125 48.1875 68.609375 48.1875 
Q 61.625 48.1875 57.5625 43.546875 
Q 53.515625 38.921875 53.515625 30.90625 
L 53.515625 0 
L 44.484375 0 
L 44.484375 32.71875 
Q 44.484375 40.625 41.703125 44.40625 
Q 38.921875 48.1875 33.109375 48.1875 
Q 26.21875 48.1875 22.15625 43.53125 
Q 18.109375 38.875 18.109375 30.90625 
L 18.109375 0 
L 9.078125 0 
L 9.078125 54.6875 
L 18.109375 54.6875 
L 18.109375 46.1875 
Q 21.1875 51.21875 25.484375 53.609375 
Q 29.78125 56 35.6875 56 
Q 41.65625 56 45.828125 52.96875 
Q 50 49.953125 52 44.1875 
z
" id="DejaVuSans-6d"/>
      <path d="M 54.890625 33.015625 
L 54.890625 0 
L 45.90625 0 
L 45.90625 32.71875 
Q 45.90625 40.484375 42.875 44.328125 
Q 39.84375 48.1875 33.796875 48.1875 
Q 26.515625 48.1875 22.3125 43.546875 
Q 18.109375 38.921875 18.109375 30.90625 
L 18.109375 0 
L 9.078125 0 
L 9.078125 54.6875 
L 18.109375 54.6875 
L 18.109375 46.1875 
Q 21.34375 51.125 25.703125 53.5625 
Q 30.078125 56 35.796875 56 
Q 45.21875 56 50.046875 50.171875 
Q 54.890625 44.34375 54.890625 33.015625 
z
" id="DejaVuSans-6e"/>
      <path d="M 8.015625 75.875 
L 15.828125 75.875 
Q 23.140625 64.359375 26.78125 53.3125 
Q 30.421875 42.28125 30.421875 31.390625 
Q 30.421875 20.453125 26.78125 9.375 
Q 23.140625 -1.703125 15.828125 -13.1875 
L 8.015625 -13.1875 
Q 14.5 -2 17.703125 9.0625 
Q 20.90625 20.125 20.90625 31.390625 
Q 20.90625 42.671875 17.703125 53.65625 
Q 14.5 64.65625 8.015625 75.875 
z
" id="DejaVuSans-29"/>
     </defs>
     <g transform="translate(73.803219 338.153594)scale(0.17 -0.17)">
      <use xlink:href="#DejaVuSans-6c"/>
      <use x="27.783203" xlink:href="#DejaVuSans-6f"/>
      <use x="88.964844" xlink:href="#DejaVuSans-67"/>
      <use x="152.441406" xlink:href="#DejaVuSans-31"/>
      <use x="216.064453" xlink:href="#DejaVuSans-30"/>
      <use x="279.6875" xlink:href="#DejaVuSans-28"/>
      <use x="318.701172" xlink:href="#DejaVuSans-23"/>
      <use x="402.490234" xlink:href="#DejaVuSans-20"/>
      <use x="434.277344" xlink:href="#DejaVuSans-66"/>
      <use x="469.404297" xlink:href="#DejaVuSans-2d"/>
      <use x="505.488281" xlink:href="#DejaVuSans-65"/>
      <use x="567.011719" xlink:href="#DejaVuSans-76"/>
      <use x="626.191406" xlink:href="#DejaVuSans-61"/>
      <use x="687.470703" xlink:href="#DejaVuSans-6c"/>
      <use x="715.253906" xlink:href="#DejaVuSans-73"/>
      <use x="767.353516" xlink:href="#DejaVuSans-20"/>
      <use x="799.140625" xlink:href="#DejaVuSans-2f"/>
      <use x="832.832031" xlink:href="#DejaVuSans-20"/>
      <use x="864.619141" xlink:href="#DejaVuSans-64"/>
      <use x="928.095703" xlink:href="#DejaVuSans-69"/>
      <use x="955.878906" xlink:href="#DejaVuSans-6d"/>
      <use x="1053.291016" xlink:href="#DejaVuSans-65"/>
      <use x="1114.814453" xlink:href="#DejaVuSans-6e"/>
      <use x="1178.193359" xlink:href="#DejaVuSans-73"/>
      <use x="1230.292969" xlink:href="#DejaVuSans-69"/>
      <use x="1258.076172" xlink:href="#DejaVuSans-6f"/>
      <use x="1319.257812" xlink:href="#DejaVuSans-6e"/>
      <use x="1382.636719" xlink:href="#DejaVuSans-29"/>
     </g>
    </g>
   </g>
   <g id="matplotlib.axis_2">
    <g id="ytick_1">
     <g id="line2d_29">
      <path clip-path="url(#p2e0ba5768d)" d="M 56.12 294.88 
L 333.168 294.88 
" style="fill:none;stroke:#b0b0b0;stroke-linecap:square;stroke-width:0.8;"/>
     </g>
     <g id="line2d_30">
      <defs>
       <path d="M 0 0 
L -3.5 0 
" id="m89630c3f25" style="stroke:#000000;stroke-width:0.8;"/>
      </defs>
      <g>
       <use style="stroke:#000000;stroke-width:0.8;" x="56.12" xlink:href="#m89630c3f25" y="294.88"/>
      </g>
     </g>
     <g id="text_6">
      <!-- 0.0 -->
      <defs>
       <path d="M 10.6875 12.40625 
L 21 12.40625 
L 21 0 
L 10.6875 0 
z
" id="DejaVuSans-2e"/>
      </defs>
      <g transform="translate(23.675 300.95875)scale(0.16 -0.16)">
       <use xlink:href="#DejaVuSans-30"/>
       <use x="63.623047" xlink:href="#DejaVuSans-2e"/>
       <use x="95.410156" xlink:href="#DejaVuSans-30"/>
      </g>
     </g>
    </g>
    <g id="ytick_2">
     <g id="line2d_31">
      <path clip-path="url(#p2e0ba5768d)" d="M 56.12 241.406733 
L 333.168 241.406733 
" style="fill:none;stroke:#b0b0b0;stroke-linecap:square;stroke-width:0.8;"/>
     </g>
     <g id="line2d_32">
      <g>
       <use style="stroke:#000000;stroke-width:0.8;" x="56.12" xlink:href="#m89630c3f25" y="241.406733"/>
      </g>
     </g>
     <g id="text_7">
      <!-- 0.2 -->
      <g transform="translate(23.675 247.485483)scale(0.16 -0.16)">
       <use xlink:href="#DejaVuSans-30"/>
       <use x="63.623047" xlink:href="#DejaVuSans-2e"/>
       <use x="95.410156" xlink:href="#DejaVuSans-32"/>
      </g>
     </g>
    </g>
    <g id="ytick_3">
     <g id="line2d_33">
      <path clip-path="url(#p2e0ba5768d)" d="M 56.12 187.933465 
L 333.168 187.933465 
" style="fill:none;stroke:#b0b0b0;stroke-linecap:square;stroke-width:0.8;"/>
     </g>
     <g id="line2d_34">
      <g>
       <use style="stroke:#000000;stroke-width:0.8;" x="56.12" xlink:href="#m89630c3f25" y="187.933465"/>
      </g>
     </g>
     <g id="text_8">
      <!-- 0.4 -->
      <g transform="translate(23.675 194.012215)scale(0.16 -0.16)">
       <use xlink:href="#DejaVuSans-30"/>
       <use x="63.623047" xlink:href="#DejaVuSans-2e"/>
       <use x="95.410156" xlink:href="#DejaVuSans-34"/>
      </g>
     </g>
    </g>
    <g id="ytick_4">
     <g id="line2d_35">
      <path clip-path="url(#p2e0ba5768d)" d="M 56.12 134.460198 
L 333.168 134.460198 
" style="fill:none;stroke:#b0b0b0;stroke-linecap:square;stroke-width:0.8;"/>
     </g>
     <g id="line2d_36">
      <g>
       <use style="stroke:#000000;stroke-width:0.8;" x="56.12" xlink:href="#m89630c3f25" y="134.460198"/>
      </g>
     </g>
     <g id="text_9">
      <!-- 0.6 -->
      <g transform="translate(23.675 140.538948)scale(0.16 -0.16)">
       <use xlink:href="#DejaVuSans-30"/>
       <use x="63.623047" xlink:href="#DejaVuSans-2e"/>
       <use x="95.410156" xlink:href="#DejaVuSans-36"/>
      </g>
     </g>
    </g>
    <g id="ytick_5">
     <g id="line2d_37">
      <path clip-path="url(#p2e0ba5768d)" d="M 56.12 80.986931 
L 333.168 80.986931 
" style="fill:none;stroke:#b0b0b0;stroke-linecap:square;stroke-width:0.8;"/>
     </g>
     <g id="line2d_38">
      <g>
       <use style="stroke:#000000;stroke-width:0.8;" x="56.12" xlink:href="#m89630c3f25" y="80.986931"/>
      </g>
     </g>
     <g id="text_10">
      <!-- 0.8 -->
      <defs>
       <path d="M 31.78125 34.625 
Q 24.75 34.625 20.71875 30.859375 
Q 16.703125 27.09375 16.703125 20.515625 
Q 16.703125 13.921875 20.71875 10.15625 
Q 24.75 6.390625 31.78125 6.390625 
Q 38.8125 6.390625 42.859375 10.171875 
Q 46.921875 13.96875 46.921875 20.515625 
Q 46.921875 27.09375 42.890625 30.859375 
Q 38.875 34.625 31.78125 34.625 
z
M 21.921875 38.8125 
Q 15.578125 40.375 12.03125 44.71875 
Q 8.5 49.078125 8.5 55.328125 
Q 8.5 64.0625 14.71875 69.140625 
Q 20.953125 74.21875 31.78125 74.21875 
Q 42.671875 74.21875 48.875 69.140625 
Q 55.078125 64.0625 55.078125 55.328125 
Q 55.078125 49.078125 51.53125 44.71875 
Q 48 40.375 41.703125 38.8125 
Q 48.828125 37.15625 52.796875 32.3125 
Q 56.78125 27.484375 56.78125 20.515625 
Q 56.78125 9.90625 50.3125 4.234375 
Q 43.84375 -1.421875 31.78125 -1.421875 
Q 19.734375 -1.421875 13.25 4.234375 
Q 6.78125 9.90625 6.78125 20.515625 
Q 6.78125 27.484375 10.78125 32.3125 
Q 14.796875 37.15625 21.921875 38.8125 
z
M 18.3125 54.390625 
Q 18.3125 48.734375 21.84375 45.5625 
Q 25.390625 42.390625 31.78125 42.390625 
Q 38.140625 42.390625 41.71875 45.5625 
Q 45.3125 48.734375 45.3125 54.390625 
Q 45.3125 60.0625 41.71875 63.234375 
Q 38.140625 66.40625 31.78125 66.40625 
Q 25.390625 66.40625 21.84375 63.234375 
Q 18.3125 60.0625 18.3125 54.390625 
z
" id="DejaVuSans-38"/>
      </defs>
      <g transform="translate(23.675 87.065681)scale(0.16 -0.16)">
       <use xlink:href="#DejaVuSans-30"/>
       <use x="63.623047" xlink:href="#DejaVuSans-2e"/>
       <use x="95.410156" xlink:href="#DejaVuSans-38"/>
      </g>
     </g>
    </g>
    <g id="ytick_6">
     <g id="line2d_39">
      <path clip-path="url(#p2e0ba5768d)" d="M 56.12 27.513663 
L 333.168 27.513663 
" style="fill:none;stroke:#b0b0b0;stroke-linecap:square;stroke-width:0.8;"/>
     </g>
     <g id="line2d_40">
      <g>
       <use style="stroke:#000000;stroke-width:0.8;" x="56.12" xlink:href="#m89630c3f25" y="27.513663"/>
      </g>
     </g>
     <g id="text_11">
      <!-- 1.0 -->
      <g transform="translate(23.675 33.592413)scale(0.16 -0.16)">
       <use xlink:href="#DejaVuSans-31"/>
       <use x="63.623047" xlink:href="#DejaVuSans-2e"/>
       <use x="95.410156" xlink:href="#DejaVuSans-30"/>
      </g>
     </g>
    </g>
    <g id="text_12">
     <!-- Fraction of function,target pairs -->
     <defs>
      <path d="M 9.8125 72.90625 
L 51.703125 72.90625 
L 51.703125 64.59375 
L 19.671875 64.59375 
L 19.671875 43.109375 
L 48.578125 43.109375 
L 48.578125 34.8125 
L 19.671875 34.8125 
L 19.671875 0 
L 9.8125 0 
z
" id="DejaVuSans-46"/>
      <path d="M 41.109375 46.296875 
Q 39.59375 47.171875 37.8125 47.578125 
Q 36.03125 48 33.890625 48 
Q 26.265625 48 22.1875 43.046875 
Q 18.109375 38.09375 18.109375 28.8125 
L 18.109375 0 
L 9.078125 0 
L 9.078125 54.6875 
L 18.109375 54.6875 
L 18.109375 46.1875 
Q 20.953125 51.171875 25.484375 53.578125 
Q 30.03125 56 36.53125 56 
Q 37.453125 56 38.578125 55.875 
Q 39.703125 55.765625 41.0625 55.515625 
z
" id="DejaVuSans-72"/>
      <path d="M 48.78125 52.59375 
L 48.78125 44.1875 
Q 44.96875 46.296875 41.140625 47.34375 
Q 37.3125 48.390625 33.40625 48.390625 
Q 24.65625 48.390625 19.8125 42.84375 
Q 14.984375 37.3125 14.984375 27.296875 
Q 14.984375 17.28125 19.8125 11.734375 
Q 24.65625 6.203125 33.40625 6.203125 
Q 37.3125 6.203125 41.140625 7.25 
Q 44.96875 8.296875 48.78125 10.40625 
L 48.78125 2.09375 
Q 45.015625 0.34375 40.984375 -0.53125 
Q 36.96875 -1.421875 32.421875 -1.421875 
Q 20.0625 -1.421875 12.78125 6.34375 
Q 5.515625 14.109375 5.515625 27.296875 
Q 5.515625 40.671875 12.859375 48.328125 
Q 20.21875 56 33.015625 56 
Q 37.15625 56 41.109375 55.140625 
Q 45.0625 54.296875 48.78125 52.59375 
z
" id="DejaVuSans-63"/>
      <path d="M 18.3125 70.21875 
L 18.3125 54.6875 
L 36.8125 54.6875 
L 36.8125 47.703125 
L 18.3125 47.703125 
L 18.3125 18.015625 
Q 18.3125 11.328125 20.140625 9.421875 
Q 21.96875 7.515625 27.59375 7.515625 
L 36.8125 7.515625 
L 36.8125 0 
L 27.59375 0 
Q 17.1875 0 13.234375 3.875 
Q 9.28125 7.765625 9.28125 18.015625 
L 9.28125 47.703125 
L 2.6875 47.703125 
L 2.6875 54.6875 
L 9.28125 54.6875 
L 9.28125 70.21875 
z
" id="DejaVuSans-74"/>
      <path d="M 8.5 21.578125 
L 8.5 54.6875 
L 17.484375 54.6875 
L 17.484375 21.921875 
Q 17.484375 14.15625 20.5 10.265625 
Q 23.53125 6.390625 29.59375 6.390625 
Q 36.859375 6.390625 41.078125 11.03125 
Q 45.3125 15.671875 45.3125 23.6875 
L 45.3125 54.6875 
L 54.296875 54.6875 
L 54.296875 0 
L 45.3125 0 
L 45.3125 8.40625 
Q 42.046875 3.421875 37.71875 1 
Q 33.40625 -1.421875 27.6875 -1.421875 
Q 18.265625 -1.421875 13.375 4.4375 
Q 8.5 10.296875 8.5 21.578125 
z
M 31.109375 56 
z
" id="DejaVuSans-75"/>
      <path d="M 11.71875 12.40625 
L 22.015625 12.40625 
L 22.015625 4 
L 14.015625 -11.625 
L 7.71875 -11.625 
L 11.71875 4 
z
" id="DejaVuSans-2c"/>
      <path d="M 18.109375 8.203125 
L 18.109375 -20.796875 
L 9.078125 -20.796875 
L 9.078125 54.6875 
L 18.109375 54.6875 
L 18.109375 46.390625 
Q 20.953125 51.265625 25.265625 53.625 
Q 29.59375 56 35.59375 56 
Q 45.5625 56 51.78125 48.09375 
Q 58.015625 40.1875 58.015625 27.296875 
Q 58.015625 14.40625 51.78125 6.484375 
Q 45.5625 -1.421875 35.59375 -1.421875 
Q 29.59375 -1.421875 25.265625 0.953125 
Q 20.953125 3.328125 18.109375 8.203125 
z
M 48.6875 27.296875 
Q 48.6875 37.203125 44.609375 42.84375 
Q 40.53125 48.484375 33.40625 48.484375 
Q 26.265625 48.484375 22.1875 42.84375 
Q 18.109375 37.203125 18.109375 27.296875 
Q 18.109375 17.390625 22.1875 11.75 
Q 26.265625 6.109375 33.40625 6.109375 
Q 40.53125 6.109375 44.609375 11.75 
Q 48.6875 17.390625 48.6875 27.296875 
z
" id="DejaVuSans-70"/>
     </defs>
     <g transform="translate(16.139531 294.999375)rotate(-90)scale(0.17 -0.17)">
      <use xlink:href="#DejaVuSans-46"/>
      <use x="57.410156" xlink:href="#DejaVuSans-72"/>
      <use x="98.523438" xlink:href="#DejaVuSans-61"/>
      <use x="159.802734" xlink:href="#DejaVuSans-63"/>
      <use x="214.783203" xlink:href="#DejaVuSans-74"/>
      <use x="253.992188" xlink:href="#DejaVuSans-69"/>
      <use x="281.775391" xlink:href="#DejaVuSans-6f"/>
      <use x="342.957031" xlink:href="#DejaVuSans-6e"/>
      <use x="406.335938" xlink:href="#DejaVuSans-20"/>
      <use x="438.123047" xlink:href="#DejaVuSans-6f"/>
      <use x="499.304688" xlink:href="#DejaVuSans-66"/>
      <use x="534.509766" xlink:href="#DejaVuSans-20"/>
      <use x="566.296875" xlink:href="#DejaVuSans-66"/>
      <use x="601.501953" xlink:href="#DejaVuSans-75"/>
      <use x="664.880859" xlink:href="#DejaVuSans-6e"/>
      <use x="728.259766" xlink:href="#DejaVuSans-63"/>
      <use x="783.240234" xlink:href="#DejaVuSans-74"/>
      <use x="822.449219" xlink:href="#DejaVuSans-69"/>
      <use x="850.232422" xlink:href="#DejaVuSans-6f"/>
      <use x="911.414062" xlink:href="#DejaVuSans-6e"/>
      <use x="974.792969" xlink:href="#DejaVuSans-2c"/>
      <use x="1006.580078" xlink:href="#DejaVuSans-74"/>
      <use x="1045.789062" xlink:href="#DejaVuSans-61"/>
      <use x="1107.068359" xlink:href="#DejaVuSans-72"/>
      <use x="1148.166016" xlink:href="#DejaVuSans-67"/>
      <use x="1211.642578" xlink:href="#DejaVuSans-65"/>
      <use x="1273.166016" xlink:href="#DejaVuSans-74"/>
      <use x="1312.375" xlink:href="#DejaVuSans-20"/>
      <use x="1344.162109" xlink:href="#DejaVuSans-70"/>
      <use x="1407.638672" xlink:href="#DejaVuSans-61"/>
      <use x="1468.917969" xlink:href="#DejaVuSans-69"/>
      <use x="1496.701172" xlink:href="#DejaVuSans-72"/>
      <use x="1537.814453" xlink:href="#DejaVuSans-73"/>
     </g>
    </g>
   </g>
   <g id="line2d_41">
    <defs>
     <path d="M 0 1.5 
C 0.397805 1.5 0.77937 1.341951 1.06066 1.06066 
C 1.341951 0.77937 1.5 0.397805 1.5 0 
C 1.5 -0.397805 1.341951 -0.77937 1.06066 -1.06066 
C 0.77937 -1.341951 0.397805 -1.5 0 -1.5 
C -0.397805 -1.5 -0.77937 -1.341951 -1.06066 -1.06066 
C -1.341951 -0.77937 -1.5 -0.397805 -1.5 0 
C -1.5 0.397805 -1.341951 0.77937 -1.06066 1.06066 
C -0.77937 1.341951 -0.397805 1.5 0 1.5 
z
" id="me3e08e91c6" style="stroke:#f5deb3;"/>
    </defs>
    <g>
     <use style="fill:#f5deb3;stroke:#f5deb3;" x="172.148114" xlink:href="#me3e08e91c6" y="27.513663"/>
     <use style="fill:#f5deb3;stroke:#f5deb3;" x="172.148114" xlink:href="#me3e08e91c6" y="27.513663"/>
    </g>
   </g>
   <g id="line2d_42">
    <defs>
     <path d="M 0 1.5 
C 0.397805 1.5 0.77937 1.341951 1.06066 1.06066 
C 1.341951 0.77937 1.5 0.397805 1.5 0 
C 1.5 -0.397805 1.341951 -0.77937 1.06066 -1.06066 
C 0.77937 -1.341951 0.397805 -1.5 0 -1.5 
C -0.397805 -1.5 -0.77937 -1.341951 -1.06066 -1.06066 
C -1.341951 -0.77937 -1.5 -0.397805 -1.5 0 
C -1.5 0.397805 -1.341951 0.77937 -1.06066 1.06066 
C -0.77937 1.341951 -0.397805 1.5 0 1.5 
z
" id="m753bd11122" style="stroke:#000080;"/>
    </defs>
    <g>
     <use style="fill:#000080;stroke:#000080;" x="215.054324" xlink:href="#m753bd11122" y="27.513663"/>
     <use style="fill:#000080;stroke:#000080;" x="215.054324" xlink:href="#m753bd11122" y="27.513663"/>
    </g>
   </g>
   <g id="line2d_43">
    <path d="M 128.647561 294.88 
L 128.647561 293.307257 
L 129.630036 293.307257 
L 129.630036 291.734514 
L 129.819968 291.734514 
L 129.819968 291.210266 
L 130.559378 291.210266 
L 130.559378 290.686018 
L 130.850907 290.686018 
L 130.873129 289.637523 
L 131.376461 289.637523 
L 131.441039 288.589027 
L 132.279675 288.589027 
L 132.279675 287.016284 
L 132.922316 287.016284 
L 132.922316 286.492036 
L 133.079291 286.492036 
L 133.137789 284.919293 
L 133.215478 284.919293 
L 133.215478 284.395046 
L 133.636601 284.395046 
L 133.636601 283.870798 
L 133.843356 283.870798 
L 133.843356 283.34655 
L 134.574897 283.34655 
L 134.646368 280.725312 
L 135.276571 280.725312 
L 135.293751 277.579825 
L 136.599426 277.579825 
L 136.599426 276.007082 
L 136.992776 276.007082 
L 136.992776 275.482834 
L 137.224536 275.482834 
L 137.224536 274.434339 
L 137.827708 274.434339 
L 137.827708 272.861596 
L 138.538863 272.861596 
L 138.538863 272.337348 
L 138.932406 272.337348 
L 138.974042 270.764605 
L 139.519758 270.764605 
L 139.519758 270.240357 
L 140.048681 270.240357 
L 140.048681 268.143366 
L 140.561812 268.143366 
L 140.561812 267.619119 
L 141.060069 267.619119 
L 141.060069 266.046375 
L 141.544287 266.046375 
L 141.615758 264.473632 
L 142.015238 264.473632 
L 142.015238 263.949385 
L 142.473629 263.949385 
L 142.473629 262.900889 
L 142.831738 262.900889 
L 142.920112 261.852394 
L 143.779723 261.852394 
L 143.779723 260.803898 
L 144.234803 260.803898 
L 144.234803 260.279651 
L 144.993542 260.279651 
L 144.993542 259.231155 
L 145.37982 259.231155 
L 145.37982 258.706907 
L 145.757607 258.706907 
L 145.757607 258.18266 
L 147.864973 258.18266 
L 147.864973 257.658412 
L 148.829074 257.658412 
L 148.829074 257.134164 
L 149.138788 257.134164 
L 149.138788 256.609917 
L 154.211701 256.609917 
L 154.211701 256.085669 
L 155.009759 256.085669 
L 155.009759 255.561421 
L 155.371297 255.561421 
L 155.477762 254.512926 
L 155.902323 254.512926 
L 155.902323 253.988678 
L 156.220355 253.988678 
L 156.220355 253.46443 
L 156.907793 253.46443 
L 156.907793 252.940182 
L 157.102017 252.940182 
L 157.102017 252.415935 
L 157.294071 252.415935 
L 157.370295 251.367439 
L 157.474555 251.367439 
L 157.474555 250.843192 
L 157.671858 250.843192 
L 157.671858 250.318944 
L 158.04152 250.318944 
L 158.04152 249.794696 
L 158.159969 249.794696 
L 158.223412 248.746201 
L 158.4034 248.746201 
L 158.4034 248.221953 
L 158.532722 248.221953 
L 158.532722 247.697705 
L 158.757817 247.697705 
L 158.757817 246.64921 
L 158.932322 246.64921 
L 158.932322 245.600714 
L 159.156562 245.600714 
L 159.156562 245.076467 
L 159.276106 245.076467 
L 159.276106 244.552219 
L 159.445454 244.552219 
L 159.508531 242.455228 
L 159.613149 242.455228 
L 159.613149 241.93098 
L 159.779224 241.93098 
L 159.779224 240.882485 
L 159.94371 240.882485 
L 159.951893 239.83399 
L 160.114742 239.83399 
L 160.199625 238.785494 
L 160.247941 238.785494 
L 160.268033 237.736999 
L 160.58635 237.736999 
L 160.602113 236.688503 
L 160.743325 236.688503 
L 160.836827 235.640008 
L 160.968422 235.640008 
L 161.053039 232.494521 
L 161.35727 232.494521 
L 161.364807 230.921778 
L 161.50739 230.921778 
L 161.50739 229.873283 
L 161.65621 229.873283 
L 161.65621 228.824787 
L 161.803753 228.824787 
L 161.803753 226.203549 
L 161.95004 226.203549 
L 161.95004 225.155053 
L 162.091482 225.155053 
L 162.095093 224.106558 
L 162.381577 224.106558 
L 162.448921 223.058063 
L 162.523048 223.058063 
L 162.523048 222.009567 
L 162.663364 222.009567 
L 162.663364 221.485319 
L 162.847536 221.485319 
L 162.847536 220.961072 
L 163.050263 220.961072 
L 163.077568 219.912576 
L 163.213447 219.912576 
L 163.213447 218.864081 
L 163.348261 218.864081 
L 163.358329 217.815585 
L 163.482025 217.815585 
L 163.565102 216.76709 
L 163.614756 216.76709 
L 163.664268 215.718594 
L 163.746471 215.718594 
L 163.805414 213.621604 
L 163.85764 213.621604 
L 163.877183 212.573108 
L 163.987513 212.573108 
L 164.006909 211.000365 
L 164.135664 211.000365 
L 164.135664 210.476117 
L 164.263461 210.476117 
L 164.263461 209.95187 
L 164.390315 209.95187 
L 164.390315 209.427622 
L 164.516239 209.427622 
L 164.591354 208.379126 
L 164.641248 208.379126 
L 164.641248 207.854879 
L 164.765354 207.854879 
L 164.817829 206.806383 
L 164.888571 206.806383 
L 164.888571 205.757888 
L 165.01091 205.757888 
L 165.01091 204.185145 
L 165.132385 204.185145 
L 165.18677 202.612401 
L 165.253008 202.612401 
L 165.253008 201.563906 
L 165.491743 201.563906 
L 165.491743 200.515411 
L 165.609878 200.515411 
L 165.609878 198.942667 
L 165.959489 198.942667 
L 166.057267 197.894172 
L 166.188675 197.894172 
L 166.188675 196.845677 
L 166.414844 196.845677 
L 166.414844 195.797181 
L 166.526822 195.797181 
L 166.543556 193.70019 
L 166.638076 193.70019 
L 166.674079 192.651695 
L 166.858446 192.651695 
L 166.967581 190.554704 
L 167.183793 190.554704 
L 167.290887 187.933465 
L 167.397319 187.933465 
L 167.503095 186.88497 
L 167.592496 186.88497 
L 167.608225 185.836474 
L 167.71532 185.836474 
L 167.816575 184.263731 
L 167.91981 184.263731 
L 168.022429 183.215236 
L 168.032657 183.215236 
L 168.124439 181.642493 
L 168.311576 181.642493 
L 168.32666 180.593997 
L 168.426886 180.593997 
L 168.52653 178.497006 
L 168.625601 178.497006 
L 168.724103 176.924263 
L 168.77804 176.924263 
L 168.77804 176.400016 
L 168.919431 176.400016 
L 169.016268 174.303025 
L 169.182041 174.303025 
L 169.277415 172.206034 
L 169.30355 172.206034 
L 169.30355 171.681786 
L 169.492438 171.681786 
L 169.586109 170.109043 
L 169.679273 170.109043 
L 169.774244 168.5363 
L 169.813469 168.5363 
L 169.838803 167.487804 
L 169.955771 167.487804 
L 170.046958 164.866566 
L 170.317651 164.866566 
L 170.406943 163.81807 
L 170.453636 163.81807 
L 170.453636 163.293823 
L 170.584146 163.293823 
L 170.687408 160.672584 
L 170.846573 160.672584 
L 170.933166 159.099841 
L 171.019325 159.099841 
L 171.105054 158.051345 
L 171.190358 158.051345 
L 171.283705 156.478602 
L 171.564907 156.478602 
L 171.627238 154.905859 
L 171.693475 154.905859 
L 171.775915 152.28462 
L 171.939617 152.28462 
L 172.020888 150.18763 
L 172.262418 150.18763 
L 172.362063 147.042143 
L 172.500602 147.042143 
L 172.579268 144.945152 
L 172.857593 144.945152 
L 172.96729 143.896657 
L 173.106764 143.896657 
L 173.120079 142.848162 
L 173.271521 142.848162 
L 173.27529 141.799666 
L 173.421641 141.799666 
L 173.496213 140.226923 
L 173.570462 140.226923 
L 173.64808 138.65418 
L 173.718004 138.65418 
L 173.791304 136.557189 
L 173.864292 136.557189 
L 173.936971 134.984446 
L 174.009344 134.984446 
L 174.104772 132.887455 
L 174.153183 132.887455 
L 174.224653 131.314712 
L 174.295828 131.314712 
L 174.366709 129.217721 
L 174.5076 129.217721 
L 174.603797 126.596482 
L 174.647346 126.596482 
L 174.66821 125.547987 
L 174.785965 125.547987 
L 174.89606 123.975244 
L 174.923475 123.975244 
L 174.991819 121.354005 
L 175.059893 121.354005 
L 175.127698 119.781262 
L 175.329524 119.781262 
L 175.334539 117.160023 
L 175.46277 117.160023 
L 175.538921 115.58728 
L 175.594991 115.58728 
L 175.660722 114.014537 
L 175.726202 114.014537 
L 175.791434 112.966042 
L 175.85642 112.966042 
L 175.921161 111.393298 
L 175.985658 111.393298 
L 176.054725 109.820555 
L 176.142662 109.820555 
L 176.241256 107.199317 
L 176.304566 107.199317 
L 176.402238 104.578078 
L 176.493109 104.578078 
L 176.555499 103.005335 
L 176.617665 103.005335 
L 176.617665 102.481087 
L 176.741324 102.481087 
L 176.741324 100.384096 
L 176.864101 100.384096 
L 176.925162 97.762858 
L 176.986006 97.762858 
L 177.057225 94.617371 
L 177.107054 94.617371 
L 177.179275 91.996133 
L 177.287041 91.996133 
L 177.34662 90.42339 
L 177.451868 90.42339 
L 177.476972 88.326399 
L 177.582894 88.326399 
L 177.641458 86.229408 
L 177.699824 86.229408 
L 177.699824 85.180912 
L 177.870856 85.180912 
L 177.931324 83.083922 
L 177.988715 83.083922 
L 178.045915 81.511178 
L 178.158329 81.511178 
L 178.159748 78.88994 
L 178.272831 78.88994 
L 178.272831 77.317197 
L 178.385176 77.317197 
L 178.385176 76.268701 
L 178.545395 76.268701 
L 178.607685 74.695958 
L 178.662865 74.695958 
L 178.662865 73.647463 
L 179.419983 73.647463 
L 179.419983 73.123215 
L 179.65299 73.123215 
L 179.759277 71.550472 
L 179.861058 71.550472 
L 179.93668 70.501976 
L 180.157783 70.501976 
L 180.240912 69.453481 
L 180.341137 69.453481 
L 180.391032 68.404985 
L 180.539852 68.404985 
L 180.589174 67.35649 
L 180.725305 67.35649 
L 180.725305 66.832242 
L 180.882169 66.832242 
L 180.882169 66.307995 
L 181.547005 66.307995 
L 181.547005 65.783747 
L 182.016823 65.783747 
L 182.016823 65.259499 
L 182.194934 65.259499 
L 182.258738 64.211004 
L 182.465311 64.211004 
L 182.558892 63.162508 
L 182.580837 63.162508 
L 182.602755 62.114013 
L 182.762995 62.114013 
L 182.861448 60.54127 
L 183.019305 60.54127 
L 183.066274 58.968526 
L 183.147102 58.968526 
L 183.231775 56.871536 
L 183.3622 56.871536 
L 183.3622 56.347288 
L 183.483321 56.347288 
L 183.578779 55.298792 
L 183.648996 55.298792 
L 183.648996 54.774545 
L 183.799815 54.774545 
L 183.799815 54.250297 
L 184.12663 54.250297 
L 184.12663 53.726049 
L 184.298158 53.726049 
L 184.298158 53.201802 
L 184.454231 53.201802 
L 184.532718 52.153306 
L 184.649781 52.153306 
L 184.649781 51.629058 
L 184.821968 51.629058 
L 184.919866 50.580563 
L 185.050484 50.580563 
L 185.110218 49.532068 
L 185.260996 49.532068 
L 185.260996 49.00782 
L 185.392782 49.00782 
L 185.447628 47.959324 
L 185.521717 47.959324 
L 185.632256 46.910829 
L 185.705555 46.910829 
L 185.705555 46.386581 
L 185.831266 46.386581 
L 185.898299 45.338086 
L 185.995665 45.338086 
L 185.995665 44.813838 
L 201.412496 44.813838 
L 201.442167 43.765343 
L 201.658928 43.765343 
L 201.658928 43.241095 
L 202.546372 43.241095 
L 202.546372 42.716847 
L 202.659605 42.716847 
L 202.73751 41.144104 
L 202.778193 41.144104 
L 202.832288 40.095609 
L 202.93997 40.095609 
L 202.93997 39.571361 
L 203.100238 39.571361 
L 203.206259 38.522865 
L 203.668352 38.522865 
L 203.688276 37.47437 
L 203.933176 37.47437 
L 204.044266 35.901627 
L 204.167453 35.901627 
L 204.167453 35.377379 
L 204.380698 35.377379 
L 204.466857 33.804636 
L 204.50365 33.804636 
L 204.50365 33.280388 
L 204.717327 33.280388 
L 204.717327 32.756141 
L 204.998755 32.756141 
L 205.070028 30.65915 
L 205.37609 30.65915 
L 205.37609 30.134902 
L 206.359923 30.134902 
L 206.359923 29.610654 
L 207.031747 29.610654 
L 207.031747 29.086407 
L 213.200532 29.086407 
L 213.200532 28.562159 
L 214.04374 28.562159 
L 214.04374 28.037911 
L 215.054324 28.037911 
L 215.054324 27.513663 
L 333.168 27.513663 
L 333.168 27.513663 
" style="fill:none;stroke:#000080;stroke-linecap:square;stroke-width:1.5;"/>
   </g>
   <g id="line2d_44">
    <defs>
     <path d="M 0 6 
C 1.591219 6 3.117479 5.367802 4.242641 4.242641 
C 5.367802 3.117479 6 1.591219 6 0 
C 6 -1.591219 5.367802 -3.117479 4.242641 -4.242641 
C 3.117479 -5.367802 1.591219 -6 0 -6 
C -1.591219 -6 -3.117479 -5.367802 -4.242641 -4.242641 
C -5.367802 -3.117479 -6 -1.591219 -6 0 
C -6 1.591219 -5.367802 3.117479 -4.242641 4.242641 
C -3.117479 5.367802 -1.591219 6 0 6 
z
" id="m6949be2c10" style="stroke:#000080;stroke-width:1.5;"/>
    </defs>
    <g>
     <use style="fill:none;stroke:#000080;stroke-width:1.5;" x="149.138788" xlink:href="#m6949be2c10" y="257.134164"/>
     <use style="fill:none;stroke:#000080;stroke-width:1.5;" x="175.985658" xlink:href="#m6949be2c10" y="110.869051"/>
     <use style="fill:none;stroke:#000080;stroke-width:1.5;" x="215.054324" xlink:href="#m6949be2c10" y="28.037911"/>
     <use style="fill:none;stroke:#000080;stroke-width:1.5;" x="215.054324" xlink:href="#m6949be2c10" y="27.513663"/>
     <use style="fill:none;stroke:#000080;stroke-width:1.5;" x="333.168" xlink:href="#m6949be2c10" y="27.513663"/>
    </g>
   </g>
   <g id="line2d_45">
    <path style="fill:none;stroke:#000080;stroke-linecap:square;stroke-width:1.5;"/>
    <g/>
   </g>
   <g id="line2d_46">
    <path clip-path="url(#p2e0ba5768d)" d="M 201.085676 44.813838 
" style="fill:none;stroke:#000080;stroke-linecap:square;stroke-width:1.5;"/>
    <defs>
     <path d="M -12 12 
L 12 -12 
M -12 -12 
L 12 12 
" id="mc6e51b4fd6" style="stroke:#000080;"/>
    </defs>
    <g clip-path="url(#p2e0ba5768d)">
     <use style="fill:#000080;stroke:#000080;" x="201.085676" xlink:href="#mc6e51b4fd6" y="44.813838"/>
    </g>
   </g>
   <g id="line2d_47">
    <defs>
     <path d="M 0 1.5 
C 0.397805 1.5 0.77937 1.341951 1.06066 1.06066 
C 1.341951 0.77937 1.5 0.397805 1.5 0 
C 1.5 -0.397805 1.341951 -0.77937 1.06066 -1.06066 
C 0.77937 -1.341951 0.397805 -1.5 0 -1.5 
C -0.397805 -1.5 -0.77937 -1.341951 -1.06066 -1.06066 
C -1.341951 -0.77937 -1.5 -0.397805 -1.5 0 
C -1.5 0.397805 -1.341951 0.77937 -1.06066 1.06066 
C -0.77937 1.341951 -0.397805 1.5 0 1.5 
z
" id="m9b8967f38a" style="stroke:#ff00ff;"/>
    </defs>
    <g>
     <use style="fill:#ff00ff;stroke:#ff00ff;" x="192.749754" xlink:href="#m9b8967f38a" y="27.513663"/>
     <use style="fill:#ff00ff;stroke:#ff00ff;" x="192.749754" xlink:href="#m9b8967f38a" y="27.513663"/>
    </g>
   </g>
   <g id="line2d_48">
    <path d="M 129.961052 294.88 
L 129.961052 294.355752 
L 130.262818 294.355752 
L 130.262818 293.831505 
L 131.203056 293.831505 
L 131.203056 293.307257 
L 131.823497 293.307257 
L 131.844497 292.258761 
L 133.196088 292.258761 
L 133.196088 291.734514 
L 134.249551 291.734514 
L 134.249551 291.210266 
L 134.412994 291.210266 
L 134.412994 290.686018 
L 134.556983 290.686018 
L 134.556983 290.161771 
L 134.999329 290.161771 
L 134.999329 289.637523 
L 135.616951 289.637523 
L 135.616951 289.113275 
L 135.73451 289.113275 
L 135.801327 288.06478 
L 135.967241 288.06478 
L 135.967241 287.540532 
L 136.213149 287.540532 
L 136.294342 286.492036 
L 136.359022 286.492036 
L 136.359022 285.967789 
L 136.757848 285.967789 
L 136.757848 285.443541 
L 137.558897 285.443541 
L 137.603992 284.395046 
L 137.975251 284.395046 
L 137.975251 283.870798 
L 138.538863 283.870798 
L 138.538863 283.34655 
L 138.7227 283.34655 
L 138.750809 282.298055 
L 138.862788 282.298055 
L 138.862788 281.773807 
L 139.001743 281.773807 
L 139.112104 279.152568 
L 140.087702 279.152568 
L 140.139592 278.104073 
L 140.281488 278.104073 
L 140.332797 277.055578 
L 141.023196 277.055578 
L 141.109109 274.958587 
L 141.520398 274.958587 
L 141.520398 274.434339 
L 141.651382 274.434339 
L 141.651382 273.910091 
L 141.804906 273.910091 
L 141.804906 273.385844 
L 142.382924 273.385844 
L 142.382924 272.861596 
L 142.631221 272.861596 
L 142.709478 271.8131 
L 142.84281 271.8131 
L 142.84281 271.288853 
L 143.008034 271.288853 
L 143.008034 270.764605 
L 143.193387 270.764605 
L 143.193387 270.240357 
L 143.505037 270.240357 
L 143.568817 269.191862 
L 143.769239 269.191862 
L 143.832047 268.143366 
L 144.008769 268.143366 
L 144.060402 267.094871 
L 144.306104 267.094871 
L 144.306104 266.570623 
L 144.417555 266.570623 
L 144.417555 266.046375 
L 144.618359 266.046375 
L 144.668195 264.473632 
L 145.013063 264.473632 
L 145.081214 263.425137 
L 145.522465 263.425137 
L 145.522465 262.900889 
L 145.692091 262.900889 
L 145.7202 261.852394 
L 145.804252 261.852394 
L 145.841477 260.803898 
L 145.971133 260.803898 
L 146.035596 259.755403 
L 146.145545 259.755403 
L 146.145545 259.231155 
L 146.33628 259.231155 
L 146.33628 258.706907 
L 146.746827 258.706907 
L 146.764457 257.658412 
L 146.869855 257.658412 
L 146.948481 256.609917 
L 147.0007 256.609917 
L 147.0007 256.085669 
L 147.208003 256.085669 
L 147.208003 255.561421 
L 147.370362 255.561421 
L 147.370362 255.037173 
L 147.57328 255.037173 
L 147.657127 253.988678 
L 148.053996 253.988678 
L 148.053996 253.46443 
L 148.297466 253.46443 
L 148.393896 251.891687 
L 148.505718 251.891687 
L 148.60099 250.843192 
L 148.695737 250.843192 
L 148.750766 249.794696 
L 148.984628 249.794696 
L 148.984628 249.270448 
L 149.192418 249.270448 
L 149.200066 248.221953 
L 149.608079 248.221953 
L 149.608079 247.697705 
L 149.756771 247.697705 
L 149.852735 246.64921 
L 149.911525 246.64921 
L 149.955485 245.076467 
L 150.209706 245.076467 
L 150.209706 244.552219 
L 150.915994 244.552219 
L 150.915994 244.027971 
L 151.380211 244.027971 
L 151.380211 243.503724 
L 151.494332 243.503724 
L 151.514393 242.455228 
L 151.62763 242.455228 
L 151.62763 241.93098 
L 151.995456 241.93098 
L 152.092658 240.358237 
L 152.26625 240.358237 
L 152.279039 239.309742 
L 152.627063 239.309742 
L 152.627063 238.785494 
L 153.02948 238.785494 
L 153.02948 238.261246 
L 153.236282 238.261246 
L 153.272519 237.212751 
L 153.725034 237.212751 
L 153.801259 235.640008 
L 154.183116 235.640008 
L 154.183116 235.11576 
L 154.494975 235.11576 
L 154.551073 234.067265 
L 155.037003 234.067265 
L 155.037003 233.543017 
L 155.720156 233.543017 
L 155.720156 233.018769 
L 156.14395 233.018769 
L 156.14395 232.494521 
L 156.442538 232.494521 
L 156.442538 231.970274 
L 157.19351 231.970274 
L 157.19351 231.446026 
L 157.676528 231.446026 
L 157.676528 230.921778 
L 158.439172 230.921778 
L 158.439172 230.397531 
L 158.992983 230.397531 
L 158.992983 229.873283 
L 159.229242 229.873283 
L 159.229242 229.349035 
L 159.43281 229.349035 
L 159.43281 228.824787 
L 160.259999 228.824787 
L 160.259999 228.30054 
L 160.558732 228.30054 
L 160.641455 226.727797 
L 160.778448 226.727797 
L 160.778448 226.203549 
L 160.937549 226.203549 
L 160.937549 225.679301 
L 161.439998 225.679301 
L 161.514862 224.630806 
L 161.6117 224.630806 
L 161.6117 224.106558 
L 161.737516 224.106558 
L 161.748573 223.058063 
L 162.331786 223.058063 
L 162.331786 222.533815 
L 162.558234 222.533815 
L 162.579312 221.485319 
L 162.729615 221.485319 
L 162.729615 220.961072 
L 162.923409 220.961072 
L 163.009223 219.912576 
L 163.15583 219.912576 
L 163.213447 218.339833 
L 163.354974 218.339833 
L 163.428644 217.291338 
L 163.482025 217.291338 
L 163.482025 216.76709 
L 163.657674 216.76709 
L 163.68074 215.718594 
L 163.825017 215.718594 
L 163.906457 213.621604 
L 163.987513 213.621604 
L 164.087494 211.524613 
L 164.116412 211.524613 
L 164.116412 211.000365 
L 164.314315 211.000365 
L 164.396633 209.95187 
L 164.459688 209.95187 
L 164.538182 208.903374 
L 164.672359 208.903374 
L 164.712719 207.330631 
L 164.910043 207.330631 
L 164.977354 205.757888 
L 165.062642 205.757888 
L 165.16262 203.660897 
L 165.36682 203.660897 
L 165.36682 203.136649 
L 165.503593 203.136649 
L 165.598101 201.563906 
L 165.624588 201.563906 
L 165.727207 200.515411 
L 165.753496 200.515411 
L 165.829217 198.41842 
L 165.884341 198.41842 
L 165.982546 195.797181 
L 166.040052 195.797181 
L 166.111666 193.175943 
L 166.22563 193.175943 
L 166.319085 192.127447 
L 166.593661 192.127447 
L 166.704484 190.030456 
L 166.74586 190.030456 
L 166.833795 188.457713 
L 166.885795 188.457713 
L 166.885795 187.933465 
L 167.124605 187.933465 
L 167.218672 186.360722 
L 167.261503 186.360722 
L 167.330876 184.787979 
L 167.381396 184.787979 
L 167.460863 183.739484 
L 167.497822 183.739484 
L 167.497822 183.215236 
L 167.634407 183.215236 
L 167.668385 182.16674 
L 167.751736 182.16674 
L 167.852778 180.593997 
L 167.863107 180.593997 
L 167.865689 179.545502 
L 168.030101 179.545502 
L 168.134607 178.497006 
L 168.16 178.497006 
L 168.266243 176.924263 
L 168.334198 176.924263 
L 168.371834 175.875768 
L 168.459334 175.875768 
L 168.568705 173.778777 
L 168.58109 173.778777 
L 168.58109 173.254529 
L 168.726558 173.254529 
L 168.829367 170.633291 
L 168.865936 170.633291 
L 168.926712 169.060547 
L 169.030747 169.060547 
L 169.069297 167.487804 
L 169.150931 167.487804 
L 169.253621 163.81807 
L 169.310671 163.81807 
L 169.317789 162.769575 
L 169.431277 162.769575 
L 169.529968 161.196832 
L 169.704804 161.196832 
L 169.804248 158.575593 
L 169.870991 158.575593 
L 169.964912 156.478602 
L 170.146708 156.478602 
L 170.252623 154.381611 
L 170.281804 154.381611 
L 170.337782 153.333116 
L 170.413621 153.333116 
L 170.489127 151.760373 
L 170.61497 151.760373 
L 170.700546 149.663382 
L 170.776984 149.663382 
L 170.811814 148.614886 
L 170.935325 148.614886 
L 170.999977 147.042143 
L 171.128555 147.042143 
L 171.181846 144.945152 
L 171.313301 144.945152 
L 171.403884 142.323914 
L 171.45633 142.323914 
L 171.55658 141.275418 
L 171.670735 141.275418 
L 171.771802 138.65418 
L 171.860007 138.65418 
L 171.892712 136.557189 
L 172.160182 136.557189 
L 172.182285 135.508693 
L 172.312313 135.508693 
L 172.419593 132.363207 
L 172.427513 132.363207 
L 172.427513 131.838959 
L 172.6849 131.838959 
L 172.747192 129.741969 
L 172.91734 129.741969 
L 172.91734 129.217721 
L 173.055309 129.217721 
L 173.127683 127.12073 
L 173.290358 127.12073 
L 173.384234 124.499491 
L 173.531521 124.499491 
L 173.614858 121.878253 
L 173.699631 121.878253 
L 173.807753 120.829757 
L 173.984048 120.829757 
L 173.984048 120.30551 
L 174.238912 120.30551 
L 174.322443 119.257014 
L 174.460178 119.257014 
L 174.460178 118.732766 
L 174.636904 118.732766 
L 174.699459 117.684271 
L 174.803214 117.684271 
L 174.913199 116.111528 
L 174.923475 116.111528 
L 175.019081 115.063032 
L 175.0463 115.063032 
L 175.0463 114.014537 
L 175.201977 114.014537 
L 175.201977 113.490289 
L 175.314469 113.490289 
L 175.356256 111.393298 
L 175.446171 111.393298 
L 175.477696 110.344803 
L 175.665642 110.344803 
L 175.709856 108.77206 
L 175.791434 108.77206 
L 175.874248 106.150821 
L 175.930851 106.150821 
L 175.984049 105.102326 
L 176.179304 105.102326 
L 176.246012 103.005335 
L 176.318779 103.005335 
L 176.402238 100.908344 
L 176.494671 100.908344 
L 176.494671 100.384096 
L 176.715121 100.384096 
L 176.804357 98.811353 
L 176.893132 98.811353 
L 176.986006 96.714362 
L 177.008768 96.714362 
L 177.087441 95.665867 
L 177.155235 95.665867 
L 177.243716 93.568876 
L 177.279579 93.568876 
L 177.367424 91.471885 
L 177.392653 91.471885 
L 177.468116 90.42339 
L 177.553537 90.42339 
L 177.632686 88.850646 
L 177.707106 88.850646 
L 177.769602 86.753656 
L 177.880949 86.753656 
L 177.935635 84.656665 
L 178.017339 84.656665 
L 178.050198 83.608169 
L 178.172507 83.608169 
L 178.275649 82.035426 
L 178.303799 82.035426 
L 178.336115 80.986931 
L 178.415942 80.986931 
L 178.498181 77.317197 
L 178.555099 77.317197 
L 178.662865 73.123215 
L 178.669751 73.123215 
L 178.752157 71.026224 
L 178.840988 71.026224 
L 178.925292 68.929233 
L 178.955108 68.929233 
L 179.048286 65.783747 
L 179.092672 65.783747 
L 179.150336 63.686756 
L 179.207807 63.686756 
L 179.246459 62.638261 
L 179.346019 62.638261 
L 179.438424 59.492774 
L 179.50019 59.492774 
L 179.583941 57.920031 
L 179.619152 57.920031 
L 179.65949 55.298792 
L 179.737296 55.298792 
L 179.800578 52.153306 
L 179.88673 52.153306 
L 179.943073 49.00782 
L 180.001781 49.00782 
L 180.095806 47.435077 
L 180.131249 47.435077 
L 180.191839 44.813838 
L 180.294855 44.813838 
L 180.396013 43.241095 
L 180.553429 43.241095 
L 180.562064 41.668352 
L 180.905152 41.668352 
L 180.905152 41.144104 
L 181.028015 41.144104 
L 181.028015 40.619856 
L 181.236784 40.619856 
L 181.236784 40.095609 
L 181.379664 40.095609 
L 181.440704 39.047113 
L 182.602755 39.047113 
L 182.602755 38.522865 
L 183.62115 38.522865 
L 183.62115 37.998618 
L 183.904708 37.998618 
L 183.904708 37.47437 
L 184.430615 37.47437 
L 184.430615 36.950122 
L 184.651725 36.950122 
L 184.691535 35.901627 
L 185.33309 35.901627 
L 185.33309 35.377379 
L 185.747561 35.377379 
L 185.747561 34.853131 
L 186.07012 34.853131 
L 186.159398 33.804636 
L 186.811169 33.804636 
L 186.811169 33.280388 
L 187.299698 33.280388 
L 187.338819 32.231893 
L 187.866885 32.231893 
L 187.866885 31.707645 
L 188.175317 31.707645 
L 188.175317 31.183397 
L 188.595402 31.183397 
L 188.595402 30.65915 
L 189.799524 30.65915 
L 189.878598 29.086407 
L 189.963735 29.086407 
L 189.963735 28.562159 
L 190.21805 28.562159 
L 190.21805 28.037911 
L 192.749754 28.037911 
L 192.749754 27.513663 
L 333.168 27.513663 
L 333.168 27.513663 
" style="fill:none;stroke:#ff00ff;stroke-linecap:square;stroke-width:1.5;"/>
   </g>
   <g id="line2d_49">
    <defs>
     <path d="M -0 8.485281 
L 5.091169 0 
L 0 -8.485281 
L -5.091169 -0 
z
" id="m04ec8fd07b" style="stroke:#ff00ff;stroke-linejoin:miter;stroke-width:1.5;"/>
    </defs>
    <g>
     <use style="fill:none;stroke:#ff00ff;stroke-linejoin:miter;stroke-width:1.5;" x="163.825017" xlink:href="#m04ec8fd07b" y="215.718594"/>
     <use style="fill:none;stroke:#ff00ff;stroke-linejoin:miter;stroke-width:1.5;" x="192.749754" xlink:href="#m04ec8fd07b" y="28.037911"/>
     <use style="fill:none;stroke:#ff00ff;stroke-linejoin:miter;stroke-width:1.5;" x="192.749754" xlink:href="#m04ec8fd07b" y="27.513663"/>
     <use style="fill:none;stroke:#ff00ff;stroke-linejoin:miter;stroke-width:1.5;" x="192.749754" xlink:href="#m04ec8fd07b" y="27.513663"/>
     <use style="fill:none;stroke:#ff00ff;stroke-linejoin:miter;stroke-width:1.5;" x="333.168" xlink:href="#m04ec8fd07b" y="27.513663"/>
    </g>
   </g>
   <g id="line2d_50">
    <path style="fill:none;stroke:#ff00ff;stroke-linecap:square;stroke-width:1.5;"/>
    <g/>
   </g>
   <g id="line2d_51">
    <path clip-path="url(#p2e0ba5768d)" d="M 175.921161 106.150821 
" style="fill:none;stroke:#ff00ff;stroke-linecap:square;stroke-width:1.5;"/>
    <defs>
     <path d="M -12 12 
L 12 -12 
M -12 -12 
L 12 12 
" id="mf4f6d889fe" style="stroke:#ff00ff;"/>
    </defs>
    <g clip-path="url(#p2e0ba5768d)">
     <use style="fill:#ff00ff;stroke:#ff00ff;" x="175.921161" xlink:href="#mf4f6d889fe" y="106.150821"/>
    </g>
   </g>
   <g id="line2d_52">
    <defs>
     <path d="M 0 1.5 
C 0.397805 1.5 0.77937 1.341951 1.06066 1.06066 
C 1.341951 0.77937 1.5 0.397805 1.5 0 
C 1.5 -0.397805 1.341951 -0.77937 1.06066 -1.06066 
C 0.77937 -1.341951 0.397805 -1.5 0 -1.5 
C -0.397805 -1.5 -0.77937 -1.341951 -1.06066 -1.06066 
C -1.341951 -0.77937 -1.5 -0.397805 -1.5 0 
C -1.5 0.397805 -1.341951 0.77937 -1.06066 1.06066 
C -0.77937 1.341951 -0.397805 1.5 0 1.5 
z
" id="m8b8a451983" style="stroke:#ff7500;"/>
    </defs>
    <g>
     <use style="fill:#ff7500;stroke:#ff7500;" x="258.16222" xlink:href="#m8b8a451983" y="27.513663"/>
     <use style="fill:#ff7500;stroke:#ff7500;" x="258.16222" xlink:href="#m8b8a451983" y="27.513663"/>
    </g>
   </g>
   <g id="line2d_53">
    <path d="M 128.723227 294.88 
L 128.798561 293.831505 
L 132.320552 293.831505 
L 132.320552 293.307257 
L 133.098812 293.307257 
L 133.196088 291.734514 
L 133.824662 291.734514 
L 133.824662 291.210266 
L 134.592793 291.210266 
L 134.699776 290.161771 
L 134.8942 290.161771 
L 134.911766 289.113275 
L 135.917635 289.113275 
L 135.917635 288.589027 
L 136.066027 288.589027 
L 136.082436 287.540532 
L 136.615334 287.540532 
L 136.631228 285.967789 
L 137.239877 285.967789 
L 137.239877 285.443541 
L 137.422898 285.443541 
L 137.422898 284.919293 
L 137.84252 284.919293 
L 137.931121 283.34655 
L 137.975251 283.34655 
L 137.975251 282.822302 
L 138.581462 282.822302 
L 138.581462 282.298055 
L 138.987898 282.298055 
L 139.043211 280.201064 
L 139.546595 280.201064 
L 139.546595 279.676816 
L 139.720016 279.676816 
L 139.720016 279.152568 
L 140.074705 279.152568 
L 140.100689 278.104073 
L 140.434959 278.104073 
L 140.434959 277.579825 
L 140.612293 277.579825 
L 140.612293 277.055578 
L 140.775339 277.055578 
L 140.775339 276.53133 
L 141.084606 276.53133 
L 141.145798 275.482834 
L 141.218941 275.482834 
L 141.243253 274.434339 
L 141.55622 274.434339 
L 141.627641 273.385844 
L 141.67509 273.385844 
L 141.67509 272.861596 
L 142.026848 272.861596 
L 142.026848 272.337348 
L 142.484933 272.337348 
L 142.563858 271.288853 
L 142.898061 271.288853 
L 142.942135 269.716109 
L 143.139078 269.716109 
L 143.139078 269.191862 
L 143.333791 269.191862 
L 143.376763 268.143366 
L 143.716722 268.143366 
L 143.716722 267.619119 
L 144.397345 267.619119 
L 144.447825 266.570623 
L 144.608374 266.570623 
L 144.608374 265.522128 
L 145.003305 265.522128 
L 145.003305 264.473632 
L 145.389366 264.473632 
L 145.446535 262.900889 
L 146.13641 262.900889 
L 146.13641 262.376641 
L 146.542779 262.376641 
L 146.542779 261.852394 
L 147.139179 261.852394 
L 147.139179 261.328146 
L 148.062168 261.328146 
L 148.062168 260.803898 
L 148.200491 260.803898 
L 148.200491 260.279651 
L 148.529586 260.279651 
L 148.529586 259.755403 
L 150.043071 259.755403 
L 150.043071 259.231155 
L 150.895222 259.231155 
L 150.895222 258.706907 
L 152.507631 258.706907 
L 152.507631 258.18266 
L 152.998857 258.18266 
L 152.998857 257.658412 
L 154.768126 257.658412 
L 154.768126 257.134164 
L 165.141461 257.134164 
L 165.141461 256.609917 
L 165.524311 256.609917 
L 165.524311 256.085669 
L 166.19152 256.085669 
L 166.19152 255.561421 
L 166.426075 255.561421 
L 166.426075 255.037173 
L 166.989325 255.037173 
L 166.989325 254.512926 
L 167.186478 254.512926 
L 167.186478 253.988678 
L 167.71532 253.988678 
L 167.71532 253.46443 
L 167.922383 253.46443 
L 167.922383 252.940182 
L 168.129524 252.940182 
L 168.187889 251.891687 
L 168.45684 251.891687 
L 168.45684 251.367439 
L 170.579739 251.367439 
L 170.579739 250.843192 
L 170.861759 250.843192 
L 170.861759 250.318944 
L 171.361811 250.318944 
L 171.361811 249.794696 
L 171.541996 249.794696 
L 171.541996 249.270448 
L 171.866144 249.270448 
L 171.866144 248.746201 
L 172.024941 248.746201 
L 172.024941 248.221953 
L 172.184292 248.221953 
L 172.184292 247.697705 
L 172.344169 247.697705 
L 172.344169 247.173458 
L 172.502573 247.173458 
L 172.579268 246.124962 
L 172.65953 246.124962 
L 172.65953 245.600714 
L 172.903867 245.600714 
L 172.903867 245.076467 
L 173.339238 245.076467 
L 173.350498 244.027971 
L 173.501792 244.027971 
L 173.603769 242.979476 
L 173.646236 242.979476 
L 173.64808 241.93098 
L 173.758358 241.93098 
L 173.796789 240.358237 
L 174.083212 240.358237 
L 174.171078 238.785494 
L 174.286947 238.785494 
L 174.382617 237.736999 
L 174.509354 237.736999 
L 174.509354 237.212751 
L 174.78769 237.212751 
L 174.789416 236.164255 
L 174.949136 236.164255 
L 174.973051 235.11576 
L 175.06329 235.11576 
L 175.12939 234.067265 
L 175.203661 234.067265 
L 175.277612 231.970274 
L 175.324507 231.970274 
L 175.399607 230.921778 
L 175.442849 230.921778 
L 175.540573 229.873283 
L 175.662362 229.873283 
L 175.770261 228.30054 
L 175.793062 228.30054 
L 175.793062 227.776292 
L 175.922776 227.776292 
L 175.988877 226.203549 
L 176.117127 226.203549 
L 176.187259 224.630806 
L 176.242842 224.630806 
L 176.306146 223.58231 
L 176.469654 223.58231 
L 176.558613 222.009567 
L 176.622318 222.009567 
L 176.681151 219.912576 
L 176.79054 219.912576 
L 176.86563 218.339833 
L 176.902289 218.339833 
L 176.949525 217.291338 
L 177.170264 217.291338 
L 177.233242 215.194347 
L 177.288533 215.194347 
L 177.345133 214.145851 
L 177.440041 214.145851 
L 177.515297 212.573108 
L 177.597554 212.573108 
L 177.70128 210.476117 
L 177.878066 210.476117 
L 177.961478 208.903374 
L 177.997307 208.903374 
L 178.10008 207.330631 
L 178.166837 207.330631 
L 178.216382 206.282136 
L 178.28973 206.282136 
L 178.390774 205.23364 
L 178.442469 205.23364 
L 178.442469 204.709392 
L 178.553713 204.709392 
L 178.553713 204.185145 
L 178.883192 204.185145 
L 178.941562 202.612401 
L 179.024027 202.612401 
L 179.024027 202.088154 
L 179.680273 202.088154 
L 179.680273 201.563906 
L 180.258493 201.563906 
L 180.342386 200.515411 
L 180.371091 200.515411 
L 180.442024 199.466915 
L 180.496579 199.466915 
L 180.565763 198.41842 
L 180.695962 198.41842 
L 180.797227 197.369924 
L 181.11541 197.369924 
L 181.215427 195.797181 
L 181.324306 195.797181 
L 181.362016 194.748686 
L 181.484005 194.748686 
L 181.484005 194.224438 
L 181.642233 194.224438 
L 181.738089 192.127447 
L 181.876878 192.127447 
L 181.963483 190.554704 
L 182.007756 190.554704 
L 182.060959 187.933465 
L 182.142144 187.933465 
L 182.182593 185.312227 
L 182.321194 185.312227 
L 182.413346 181.642493 
L 182.447638 181.642493 
L 182.542415 178.497006 
L 182.631205 178.497006 
L 182.736935 175.35152 
L 182.76191 175.35152 
L 182.848497 172.730281 
L 182.933576 172.730281 
L 182.93465 170.633291 
L 183.063076 170.633291 
L 183.121619 169.060547 
L 183.190549 169.060547 
L 183.254988 167.487804 
L 183.328637 167.487804 
L 183.328637 166.439309 
L 183.440608 166.439309 
L 183.526965 163.81807 
L 183.610825 163.81807 
L 183.691194 162.245327 
L 183.823293 162.245327 
L 183.902677 160.672584 
L 184.059347 160.672584 
L 184.098544 159.624089 
L 184.219587 159.624089 
L 184.318984 158.051345 
L 184.376372 158.051345 
L 184.457181 157.00285 
L 185.339629 157.00285 
L 185.339629 156.478602 
L 187.870915 156.478602 
L 187.93528 154.905859 
L 188.071261 154.905859 
L 188.130912 153.333116 
L 188.189565 153.333116 
L 188.281895 151.236125 
L 188.345526 151.236125 
L 188.439363 150.18763 
L 188.501638 150.18763 
L 188.59463 148.090639 
L 188.666353 148.090639 
L 188.750038 145.993648 
L 188.833316 145.993648 
L 188.936661 142.848162 
L 188.998673 142.848162 
L 189.083013 140.751171 
L 189.139259 140.751171 
L 189.142254 139.702675 
L 189.293552 139.702675 
L 189.380153 138.129932 
L 189.417765 138.129932 
L 189.497878 137.081437 
L 189.549862 137.081437 
L 189.615532 134.984446 
L 189.741786 134.984446 
L 189.800244 133.93595 
L 190.300127 133.93595 
L 190.300127 133.411703 
L 190.50189 133.411703 
L 190.50189 132.887455 
L 211.726199 132.887455 
L 211.765188 131.838959 
L 211.984208 131.838959 
L 211.984208 131.314712 
L 212.15775 131.314712 
L 212.15775 130.790464 
L 212.753038 130.790464 
L 212.753038 130.266216 
L 212.917711 130.266216 
L 212.917711 129.741969 
L 213.291148 129.741969 
L 213.291148 129.217721 
L 213.418708 129.217721 
L 213.418708 128.693473 
L 213.852792 128.693473 
L 213.852792 128.169225 
L 214.440361 128.169225 
L 214.440361 127.644978 
L 214.587149 127.644978 
L 214.587149 127.12073 
L 214.748902 127.12073 
L 214.748902 126.596482 
L 215.107954 126.596482 
L 215.193022 125.023739 
L 215.285197 125.023739 
L 215.38355 122.926748 
L 215.413937 122.926748 
L 215.42838 121.878253 
L 215.571024 121.878253 
L 215.571024 121.354005 
L 215.705472 121.354005 
L 215.721586 120.30551 
L 215.838718 120.30551 
L 215.927661 116.635776 
L 215.977539 116.635776 
L 216.065455 114.014537 
L 216.146858 114.014537 
L 216.190054 110.344803 
L 216.258046 110.344803 
L 216.327001 107.723564 
L 216.375121 107.723564 
L 216.45538 104.05383 
L 216.729611 104.05383 
L 216.836954 98.811353 
L 216.86652 98.811353 
L 216.966786 88.850646 
L 216.98428 88.850646 
L 217.07561 83.608169 
L 217.14592 83.608169 
L 217.21989 82.035426 
L 217.60949 82.035426 
L 217.60949 81.511178 
L 217.800463 81.511178 
L 217.89811 79.414188 
L 217.928713 79.414188 
L 218.033027 74.695958 
L 218.099534 74.695958 
L 218.121323 73.647463 
L 223.878627 73.647463 
L 223.878627 73.123215 
L 224.456086 73.123215 
L 224.506189 72.074719 
L 224.723583 72.074719 
L 224.723583 71.550472 
L 224.954207 71.550472 
L 225.059016 70.501976 
L 225.166503 70.501976 
L 225.166503 69.977729 
L 225.560371 69.977729 
L 225.58222 68.929233 
L 225.931333 68.929233 
L 225.931333 68.404985 
L 226.35444 68.404985 
L 226.35444 67.880738 
L 226.643988 67.880738 
L 226.751859 66.832242 
L 226.755133 66.832242 
L 226.865813 65.259499 
L 226.971973 65.259499 
L 226.971973 64.735251 
L 227.100694 64.735251 
L 227.169734 62.114013 
L 227.274284 62.114013 
L 227.300566 61.065517 
L 227.449282 61.065517 
L 227.486562 59.492774 
L 227.590567 59.492774 
L 227.632089 57.920031 
L 227.759303 57.920031 
L 227.759303 57.395783 
L 228.119739 57.395783 
L 228.119739 56.871536 
L 230.415862 56.871536 
L 230.415862 56.347288 
L 230.729741 56.347288 
L 230.729741 55.82304 
L 231.645332 55.82304 
L 231.645332 55.298792 
L 231.766149 55.298792 
L 231.766149 54.774545 
L 232.318448 54.774545 
L 232.318448 54.250297 
L 232.573999 54.250297 
L 232.575255 52.677554 
L 233.018976 52.677554 
L 233.116289 51.104811 
L 233.2388 51.104811 
L 233.2388 50.580563 
L 233.408783 50.580563 
L 233.518253 49.00782 
L 233.684162 49.00782 
L 233.684162 48.483572 
L 234.179468 48.483572 
L 234.22632 46.386581 
L 234.294926 46.386581 
L 234.294926 45.862334 
L 235.645806 45.862334 
L 235.645806 45.338086 
L 236.347776 45.338086 
L 236.347776 44.813838 
L 237.077026 44.813838 
L 237.163359 43.765343 
L 237.506711 43.765343 
L 237.506711 43.241095 
L 237.798987 43.241095 
L 237.798987 42.716847 
L 238.3226 42.716847 
L 238.427955 41.668352 
L 238.564236 41.668352 
L 238.564236 41.144104 
L 238.714604 41.144104 
L 238.714604 40.619856 
L 238.949054 40.619856 
L 238.949054 40.095609 
L 239.270382 40.095609 
L 239.270382 39.571361 
L 239.453937 39.571361 
L 239.453937 39.047113 
L 241.147459 39.047113 
L 241.177877 37.998618 
L 241.31557 37.998618 
L 241.31557 37.47437 
L 241.468507 37.47437 
L 241.506939 36.425875 
L 242.398451 36.425875 
L 242.398451 35.901627 
L 243.577476 35.901627 
L 243.577476 35.377379 
L 243.879985 35.377379 
L 243.879985 34.853131 
L 244.074645 34.853131 
L 244.088091 33.804636 
L 247.419965 33.804636 
L 247.419965 33.280388 
L 248.423117 33.280388 
L 248.423117 32.756141 
L 248.556241 32.756141 
L 248.556241 32.231893 
L 249.005198 32.231893 
L 249.005198 31.707645 
L 249.144062 31.707645 
L 249.144062 31.183397 
L 249.868299 31.183397 
L 249.868299 30.65915 
L 251.302714 30.65915 
L 251.302714 30.134902 
L 251.638595 30.134902 
L 251.638595 29.610654 
L 251.899663 29.610654 
L 251.899663 29.086407 
L 252.153992 29.086407 
L 252.153992 28.562159 
L 255.281395 28.562159 
L 255.281395 28.037911 
L 258.16222 28.037911 
L 258.16222 27.513663 
L 333.168 27.513663 
L 333.168 27.513663 
" style="fill:none;stroke:#ff7500;stroke-linecap:square;stroke-width:1.5;"/>
   </g>
   <g id="line2d_54">
    <defs>
     <path d="M 0 -6 
L -1.347084 -1.854102 
L -5.706339 -1.854102 
L -2.179628 0.708204 
L -3.526712 4.854102 
L -0 2.291796 
L 3.526712 4.854102 
L 2.179628 0.708204 
L 5.706339 -1.854102 
L 1.347084 -1.854102 
z
" id="m78582c1c4f" style="stroke:#ff7500;stroke-linejoin:bevel;stroke-width:1.5;"/>
    </defs>
    <g>
     <use style="fill:none;stroke:#ff7500;stroke-linejoin:bevel;stroke-width:1.5;" x="172.65953" xlink:href="#m78582c1c4f" y="245.600714"/>
     <use style="fill:none;stroke:#ff7500;stroke-linejoin:bevel;stroke-width:1.5;" x="214.587149" xlink:href="#m78582c1c4f" y="127.12073"/>
     <use style="fill:none;stroke:#ff7500;stroke-linejoin:bevel;stroke-width:1.5;" x="255.281395" xlink:href="#m78582c1c4f" y="28.562159"/>
     <use style="fill:none;stroke:#ff7500;stroke-linejoin:bevel;stroke-width:1.5;" x="258.16222" xlink:href="#m78582c1c4f" y="27.513663"/>
     <use style="fill:none;stroke:#ff7500;stroke-linejoin:bevel;stroke-width:1.5;" x="333.168" xlink:href="#m78582c1c4f" y="27.513663"/>
    </g>
   </g>
   <g id="line2d_55">
    <path style="fill:none;stroke:#ff7500;stroke-linecap:square;stroke-width:1.5;"/>
    <g/>
   </g>
   <g id="line2d_56">
    <path clip-path="url(#p2e0ba5768d)" d="M 214.433143 128.169225 
" style="fill:none;stroke:#ff7500;stroke-linecap:square;stroke-width:1.5;"/>
    <defs>
     <path d="M -12 12 
L 12 -12 
M -12 -12 
L 12 12 
" id="m425e918646" style="stroke:#ff7500;"/>
    </defs>
    <g clip-path="url(#p2e0ba5768d)">
     <use style="fill:#ff7500;stroke:#ff7500;" x="214.433143" xlink:href="#m425e918646" y="128.169225"/>
    </g>
   </g>
   <g id="line2d_57">
    <path d="M 333.168 27.513663 
L 363.64328 289.532673 
" style="fill:none;stroke:#ff7500;stroke-linecap:square;stroke-width:1.5;"/>
    <g>
     <use style="fill:none;stroke:#ff7500;stroke-linejoin:bevel;stroke-width:1.5;" x="333.168" xlink:href="#m78582c1c4f" y="27.513663"/>
     <use style="fill:none;stroke:#ff7500;stroke-linejoin:bevel;stroke-width:1.5;" x="363.64328" xlink:href="#m78582c1c4f" y="289.532673"/>
    </g>
   </g>
   <g id="line2d_58">
    <path d="M 333.168 27.513663 
L 363.64328 203.975446 
" style="fill:none;stroke:#000080;stroke-linecap:square;stroke-width:1.5;"/>
    <g>
     <use style="fill:none;stroke:#000080;stroke-width:1.5;" x="333.168" xlink:href="#m6949be2c10" y="27.513663"/>
     <use style="fill:none;stroke:#000080;stroke-width:1.5;" x="363.64328" xlink:href="#m6949be2c10" y="203.975446"/>
    </g>
   </g>
   <g id="line2d_59">
    <path d="M 333.168 27.513663 
L 363.64328 118.418218 
" style="fill:none;stroke:#ff00ff;stroke-linecap:square;stroke-width:1.5;"/>
    <g>
     <use style="fill:none;stroke:#ff00ff;stroke-linejoin:miter;stroke-width:1.5;" x="333.168" xlink:href="#m04ec8fd07b" y="27.513663"/>
     <use style="fill:none;stroke:#ff00ff;stroke-linejoin:miter;stroke-width:1.5;" x="363.64328" xlink:href="#m04ec8fd07b" y="118.418218"/>
    </g>
   </g>
   <g id="line2d_60">
    <path d="M 333.168 294.88 
L 333.168 27.513663 
" style="fill:none;stroke:#000000;stroke-linecap:square;stroke-width:1.5;"/>
   </g>
   <g id="patch_3">
    <path d="M 56.12 294.88 
L 56.12 24.84 
" style="fill:none;stroke:#000000;stroke-linecap:square;stroke-linejoin:miter;stroke-width:0.8;"/>
   </g>
   <g id="patch_4">
    <path d="M 333.168 294.88 
L 333.168 24.84 
" style="fill:none;stroke:#000000;stroke-linecap:square;stroke-linejoin:miter;stroke-width:0.8;"/>
   </g>
   <g id="patch_5">
    <path d="M 56.12 294.88 
L 333.168 294.88 
" style="fill:none;stroke:#000000;stroke-linecap:square;stroke-linejoin:miter;stroke-width:0.8;"/>
   </g>
   <g id="patch_6">
    <path d="M 56.12 24.84 
L 333.168 24.84 
" style="fill:none;stroke:#000000;stroke-linecap:square;stroke-linejoin:miter;stroke-width:0.8;"/>
   </g>
   <g id="text_13">
    <!-- ppmf-new -->
    <defs>
     <path d="M 4.203125 54.6875 
L 13.1875 54.6875 
L 24.421875 12.015625 
L 35.59375 54.6875 
L 46.1875 54.6875 
L 57.421875 12.015625 
L 68.609375 54.6875 
L 77.59375 54.6875 
L 63.28125 0 
L 52.6875 0 
L 40.921875 44.828125 
L 29.109375 0 
L 18.5 0 
z
" id="DejaVuSans-77"/>
    </defs>
    <g transform="translate(369.18424 294.223611)scale(0.17 -0.17)">
     <use xlink:href="#DejaVuSans-70"/>
     <use x="63.476562" xlink:href="#DejaVuSans-70"/>
     <use x="126.953125" xlink:href="#DejaVuSans-6d"/>
     <use x="224.365234" xlink:href="#DejaVuSans-66"/>
     <use x="259.492188" xlink:href="#DejaVuSans-2d"/>
     <use x="295.576172" xlink:href="#DejaVuSans-6e"/>
     <use x="358.955078" xlink:href="#DejaVuSans-65"/>
     <use x="420.478516" xlink:href="#DejaVuSans-77"/>
    </g>
   </g>
   <g id="text_14">
    <!-- CMA ES PPM -->
    <defs>
     <path d="M 64.40625 67.28125 
L 64.40625 56.890625 
Q 59.421875 61.53125 53.78125 63.8125 
Q 48.140625 66.109375 41.796875 66.109375 
Q 29.296875 66.109375 22.65625 58.46875 
Q 16.015625 50.828125 16.015625 36.375 
Q 16.015625 21.96875 22.65625 14.328125 
Q 29.296875 6.6875 41.796875 6.6875 
Q 48.140625 6.6875 53.78125 8.984375 
Q 59.421875 11.28125 64.40625 15.921875 
L 64.40625 5.609375 
Q 59.234375 2.09375 53.4375 0.328125 
Q 47.65625 -1.421875 41.21875 -1.421875 
Q 24.65625 -1.421875 15.125 8.703125 
Q 5.609375 18.84375 5.609375 36.375 
Q 5.609375 53.953125 15.125 64.078125 
Q 24.65625 74.21875 41.21875 74.21875 
Q 47.75 74.21875 53.53125 72.484375 
Q 59.328125 70.75 64.40625 67.28125 
z
" id="DejaVuSans-43"/>
     <path d="M 9.8125 72.90625 
L 24.515625 72.90625 
L 43.109375 23.296875 
L 61.8125 72.90625 
L 76.515625 72.90625 
L 76.515625 0 
L 66.890625 0 
L 66.890625 64.015625 
L 48.09375 14.015625 
L 38.1875 14.015625 
L 19.390625 64.015625 
L 19.390625 0 
L 9.8125 0 
z
" id="DejaVuSans-4d"/>
     <path d="M 34.1875 63.1875 
L 20.796875 26.90625 
L 47.609375 26.90625 
z
M 28.609375 72.90625 
L 39.796875 72.90625 
L 67.578125 0 
L 57.328125 0 
L 50.6875 18.703125 
L 17.828125 18.703125 
L 11.1875 0 
L 0.78125 0 
z
" id="DejaVuSans-41"/>
     <path d="M 9.8125 72.90625 
L 55.90625 72.90625 
L 55.90625 64.59375 
L 19.671875 64.59375 
L 19.671875 43.015625 
L 54.390625 43.015625 
L 54.390625 34.71875 
L 19.671875 34.71875 
L 19.671875 8.296875 
L 56.78125 8.296875 
L 56.78125 0 
L 9.8125 0 
z
" id="DejaVuSans-45"/>
     <path d="M 53.515625 70.515625 
L 53.515625 60.890625 
Q 47.90625 63.578125 42.921875 64.890625 
Q 37.9375 66.21875 33.296875 66.21875 
Q 25.25 66.21875 20.875 63.09375 
Q 16.5 59.96875 16.5 54.203125 
Q 16.5 49.359375 19.40625 46.890625 
Q 22.3125 44.4375 30.421875 42.921875 
L 36.375 41.703125 
Q 47.40625 39.59375 52.65625 34.296875 
Q 57.90625 29 57.90625 20.125 
Q 57.90625 9.515625 50.796875 4.046875 
Q 43.703125 -1.421875 29.984375 -1.421875 
Q 24.8125 -1.421875 18.96875 -0.25 
Q 13.140625 0.921875 6.890625 3.21875 
L 6.890625 13.375 
Q 12.890625 10.015625 18.65625 8.296875 
Q 24.421875 6.59375 29.984375 6.59375 
Q 38.421875 6.59375 43.015625 9.90625 
Q 47.609375 13.234375 47.609375 19.390625 
Q 47.609375 24.75 44.3125 27.78125 
Q 41.015625 30.8125 33.5 32.328125 
L 27.484375 33.5 
Q 16.453125 35.6875 11.515625 40.375 
Q 6.59375 45.0625 6.59375 53.421875 
Q 6.59375 63.09375 13.40625 68.65625 
Q 20.21875 74.21875 32.171875 74.21875 
Q 37.3125 74.21875 42.625 73.28125 
Q 47.953125 72.359375 53.515625 70.515625 
z
" id="DejaVuSans-53"/>
     <path d="M 19.671875 64.796875 
L 19.671875 37.40625 
L 32.078125 37.40625 
Q 38.96875 37.40625 42.71875 40.96875 
Q 46.484375 44.53125 46.484375 51.125 
Q 46.484375 57.671875 42.71875 61.234375 
Q 38.96875 64.796875 32.078125 64.796875 
z
M 9.8125 72.90625 
L 32.078125 72.90625 
Q 44.34375 72.90625 50.609375 67.359375 
Q 56.890625 61.8125 56.890625 51.125 
Q 56.890625 40.328125 50.609375 34.8125 
Q 44.34375 29.296875 32.078125 29.296875 
L 19.671875 29.296875 
L 19.671875 0 
L 9.8125 0 
z
" id="DejaVuSans-50"/>
    </defs>
    <g transform="translate(369.18424 208.666383)scale(0.17 -0.17)">
     <use xlink:href="#DejaVuSans-43"/>
     <use x="69.824219" xlink:href="#DejaVuSans-4d"/>
     <use x="156.103516" xlink:href="#DejaVuSans-41"/>
     <use x="224.511719" xlink:href="#DejaVuSans-20"/>
     <use x="256.298828" xlink:href="#DejaVuSans-45"/>
     <use x="319.482422" xlink:href="#DejaVuSans-53"/>
     <use x="382.958984" xlink:href="#DejaVuSans-20"/>
     <use x="414.746094" xlink:href="#DejaVuSans-50"/>
     <use x="475.048828" xlink:href="#DejaVuSans-50"/>
     <use x="535.351562" xlink:href="#DejaVuSans-4d"/>
    </g>
   </g>
   <g id="text_15">
    <!-- CMA ES CSA -->
    <g transform="translate(369.18424 123.109155)scale(0.17 -0.17)">
     <use xlink:href="#DejaVuSans-43"/>
     <use x="69.824219" xlink:href="#DejaVuSans-4d"/>
     <use x="156.103516" xlink:href="#DejaVuSans-41"/>
     <use x="224.511719" xlink:href="#DejaVuSans-20"/>
     <use x="256.298828" xlink:href="#DejaVuSans-45"/>
     <use x="319.482422" xlink:href="#DejaVuSans-53"/>
     <use x="382.958984" xlink:href="#DejaVuSans-20"/>
     <use x="414.746094" xlink:href="#DejaVuSans-43"/>
     <use x="484.570312" xlink:href="#DejaVuSans-53"/>
     <use x="548.0625" xlink:href="#DejaVuSans-41"/>
    </g>
   </g>
   <g id="text_16">
    <!-- best 2009 -->
    <defs>
     <path d="M 48.6875 27.296875 
Q 48.6875 37.203125 44.609375 42.84375 
Q 40.53125 48.484375 33.40625 48.484375 
Q 26.265625 48.484375 22.1875 42.84375 
Q 18.109375 37.203125 18.109375 27.296875 
Q 18.109375 17.390625 22.1875 11.75 
Q 26.265625 6.109375 33.40625 6.109375 
Q 40.53125 6.109375 44.609375 11.75 
Q 48.6875 17.390625 48.6875 27.296875 
z
M 18.109375 46.390625 
Q 20.953125 51.265625 25.265625 53.625 
Q 29.59375 56 35.59375 56 
Q 45.5625 56 51.78125 48.09375 
Q 58.015625 40.1875 58.015625 27.296875 
Q 58.015625 14.40625 51.78125 6.484375 
Q 45.5625 -1.421875 35.59375 -1.421875 
Q 29.59375 -1.421875 25.265625 0.953125 
Q 20.953125 3.328125 18.109375 8.203125 
L 18.109375 0 
L 9.078125 0 
L 9.078125 75.984375 
L 18.109375 75.984375 
z
" id="DejaVuSans-62"/>
     <path d="M 10.984375 1.515625 
L 10.984375 10.5 
Q 14.703125 8.734375 18.5 7.8125 
Q 22.3125 6.890625 25.984375 6.890625 
Q 35.75 6.890625 40.890625 13.453125 
Q 46.046875 20.015625 46.78125 33.40625 
Q 43.953125 29.203125 39.59375 26.953125 
Q 35.25 24.703125 29.984375 24.703125 
Q 19.046875 24.703125 12.671875 31.3125 
Q 6.296875 37.9375 6.296875 49.421875 
Q 6.296875 60.640625 12.9375 67.421875 
Q 19.578125 74.21875 30.609375 74.21875 
Q 43.265625 74.21875 49.921875 64.515625 
Q 56.59375 54.828125 56.59375 36.375 
Q 56.59375 19.140625 48.40625 8.859375 
Q 40.234375 -1.421875 26.421875 -1.421875 
Q 22.703125 -1.421875 18.890625 -0.6875 
Q 15.09375 0.046875 10.984375 1.515625 
z
M 30.609375 32.421875 
Q 37.25 32.421875 41.125 36.953125 
Q 45.015625 41.5 45.015625 49.421875 
Q 45.015625 57.28125 41.125 61.84375 
Q 37.25 66.40625 30.609375 66.40625 
Q 23.96875 66.40625 20.09375 61.84375 
Q 16.21875 57.28125 16.21875 49.421875 
Q 16.21875 41.5 20.09375 36.953125 
Q 23.96875 32.421875 30.609375 32.421875 
z
" id="DejaVuSans-39"/>
    </defs>
    <g transform="translate(369.18424 37.551928)scale(0.17 -0.17)">
     <use xlink:href="#DejaVuSans-62"/>
     <use x="63.476562" xlink:href="#DejaVuSans-65"/>
     <use x="125" xlink:href="#DejaVuSans-73"/>
     <use x="177.099609" xlink:href="#DejaVuSans-74"/>
     <use x="216.308594" xlink:href="#DejaVuSans-20"/>
     <use x="248.095703" xlink:href="#DejaVuSans-32"/>
     <use x="311.71875" xlink:href="#DejaVuSans-30"/>
     <use x="375.341797" xlink:href="#DejaVuSans-30"/>
     <use x="438.964844" xlink:href="#DejaVuSans-39"/>
    </g>
   </g>
   <g id="text_17">
    <!-- bbob f13, 10-D -->
    <defs>
     <path d="M 40.578125 39.3125 
Q 47.65625 37.796875 51.625 33 
Q 55.609375 28.21875 55.609375 21.1875 
Q 55.609375 10.40625 48.1875 4.484375 
Q 40.765625 -1.421875 27.09375 -1.421875 
Q 22.515625 -1.421875 17.65625 -0.515625 
Q 12.796875 0.390625 7.625 2.203125 
L 7.625 11.71875 
Q 11.71875 9.328125 16.59375 8.109375 
Q 21.484375 6.890625 26.8125 6.890625 
Q 36.078125 6.890625 40.9375 10.546875 
Q 45.796875 14.203125 45.796875 21.1875 
Q 45.796875 27.640625 41.28125 31.265625 
Q 36.765625 34.90625 28.71875 34.90625 
L 20.21875 34.90625 
L 20.21875 43.015625 
L 29.109375 43.015625 
Q 36.375 43.015625 40.234375 45.921875 
Q 44.09375 48.828125 44.09375 54.296875 
Q 44.09375 59.90625 40.109375 62.90625 
Q 36.140625 65.921875 28.71875 65.921875 
Q 24.65625 65.921875 20.015625 65.03125 
Q 15.375 64.15625 9.8125 62.3125 
L 9.8125 71.09375 
Q 15.4375 72.65625 20.34375 73.4375 
Q 25.25 74.21875 29.59375 74.21875 
Q 40.828125 74.21875 47.359375 69.109375 
Q 53.90625 64.015625 53.90625 55.328125 
Q 53.90625 49.265625 50.4375 45.09375 
Q 46.96875 40.921875 40.578125 39.3125 
z
" id="DejaVuSans-33"/>
     <path d="M 19.671875 64.796875 
L 19.671875 8.109375 
L 31.59375 8.109375 
Q 46.6875 8.109375 53.6875 14.9375 
Q 60.6875 21.78125 60.6875 36.53125 
Q 60.6875 51.171875 53.6875 57.984375 
Q 46.6875 64.796875 31.59375 64.796875 
z
M 9.8125 72.90625 
L 30.078125 72.90625 
Q 51.265625 72.90625 61.171875 64.09375 
Q 71.09375 55.28125 71.09375 36.53125 
Q 71.09375 17.671875 61.125 8.828125 
Q 51.171875 0 30.078125 0 
L 9.8125 0 
z
" id="DejaVuSans-44"/>
    </defs>
    <g transform="translate(58.89048 35.290806)scale(0.102 -0.102)">
     <use xlink:href="#DejaVuSans-62"/>
     <use x="63.476562" xlink:href="#DejaVuSans-62"/>
     <use x="126.953125" xlink:href="#DejaVuSans-6f"/>
     <use x="188.134766" xlink:href="#DejaVuSans-62"/>
     <use x="251.611328" xlink:href="#DejaVuSans-20"/>
     <use x="283.398438" xlink:href="#DejaVuSans-66"/>
     <use x="318.603516" xlink:href="#DejaVuSans-31"/>
     <use x="382.226562" xlink:href="#DejaVuSans-33"/>
     <use x="445.849609" xlink:href="#DejaVuSans-2c"/>
     <use x="477.636719" xlink:href="#DejaVuSans-20"/>
     <use x="509.423828" xlink:href="#DejaVuSans-31"/>
     <use x="573.046875" xlink:href="#DejaVuSans-30"/>
     <use x="636.669922" xlink:href="#DejaVuSans-2d"/>
     <use x="672.753906" xlink:href="#DejaVuSans-44"/>
    </g>
    <!-- 51 targets: 100..1e-08 -->
    <defs>
     <path d="M 10.796875 72.90625 
L 49.515625 72.90625 
L 49.515625 64.59375 
L 19.828125 64.59375 
L 19.828125 46.734375 
Q 21.96875 47.46875 24.109375 47.828125 
Q 26.265625 48.1875 28.421875 48.1875 
Q 40.625 48.1875 47.75 41.5 
Q 54.890625 34.8125 54.890625 23.390625 
Q 54.890625 11.625 47.5625 5.09375 
Q 40.234375 -1.421875 26.90625 -1.421875 
Q 22.3125 -1.421875 17.546875 -0.640625 
Q 12.796875 0.140625 7.71875 1.703125 
L 7.71875 11.625 
Q 12.109375 9.234375 16.796875 8.0625 
Q 21.484375 6.890625 26.703125 6.890625 
Q 35.15625 6.890625 40.078125 11.328125 
Q 45.015625 15.765625 45.015625 23.390625 
Q 45.015625 31 40.078125 35.4375 
Q 35.15625 39.890625 26.703125 39.890625 
Q 22.75 39.890625 18.8125 39.015625 
Q 14.890625 38.140625 10.796875 36.28125 
z
" id="DejaVuSans-35"/>
     <path d="M 11.71875 12.40625 
L 22.015625 12.40625 
L 22.015625 0 
L 11.71875 0 
z
M 11.71875 51.703125 
L 22.015625 51.703125 
L 22.015625 39.3125 
L 11.71875 39.3125 
z
" id="DejaVuSans-3a"/>
    </defs>
    <g transform="translate(58.89048 46.712575)scale(0.102 -0.102)">
     <use xlink:href="#DejaVuSans-35"/>
     <use x="63.623047" xlink:href="#DejaVuSans-31"/>
     <use x="127.246094" xlink:href="#DejaVuSans-20"/>
     <use x="159.033203" xlink:href="#DejaVuSans-74"/>
     <use x="198.242188" xlink:href="#DejaVuSans-61"/>
     <use x="259.521484" xlink:href="#DejaVuSans-72"/>
     <use x="300.619141" xlink:href="#DejaVuSans-67"/>
     <use x="364.095703" xlink:href="#DejaVuSans-65"/>
     <use x="425.619141" xlink:href="#DejaVuSans-74"/>
     <use x="464.828125" xlink:href="#DejaVuSans-73"/>
     <use x="516.927734" xlink:href="#DejaVuSans-3a"/>
     <use x="550.619141" xlink:href="#DejaVuSans-20"/>
     <use x="582.40625" xlink:href="#DejaVuSans-31"/>
     <use x="646.029297" xlink:href="#DejaVuSans-30"/>
     <use x="709.652344" xlink:href="#DejaVuSans-30"/>
     <use x="773.275391" xlink:href="#DejaVuSans-2e"/>
     <use x="805.0625" xlink:href="#DejaVuSans-2e"/>
     <use x="836.849609" xlink:href="#DejaVuSans-31"/>
     <use x="900.472656" xlink:href="#DejaVuSans-65"/>
     <use x="961.996094" xlink:href="#DejaVuSans-2d"/>
     <use x="998.080078" xlink:href="#DejaVuSans-30"/>
     <use x="1061.703125" xlink:href="#DejaVuSans-38"/>
    </g>
    <!-- 15 instances -->
    <g transform="translate(58.89048 58.134344)scale(0.102 -0.102)">
     <use xlink:href="#DejaVuSans-31"/>
     <use x="63.623047" xlink:href="#DejaVuSans-35"/>
     <use x="127.246094" xlink:href="#DejaVuSans-20"/>
     <use x="159.033203" xlink:href="#DejaVuSans-69"/>
     <use x="186.816406" xlink:href="#DejaVuSans-6e"/>
     <use x="250.195312" xlink:href="#DejaVuSans-73"/>
     <use x="302.294922" xlink:href="#DejaVuSans-74"/>
     <use x="341.503906" xlink:href="#DejaVuSans-61"/>
     <use x="402.783203" xlink:href="#DejaVuSans-6e"/>
     <use x="466.162109" xlink:href="#DejaVuSans-63"/>
     <use x="521.142578" xlink:href="#DejaVuSans-65"/>
     <use x="582.666016" xlink:href="#DejaVuSans-73"/>
    </g>
   </g>
   <g id="text_18">
    <!-- v0.0.0 -->
    <g style="fill:#808080;" transform="translate(178.96275 290.099912)scale(0.1 -0.1)">
     <use xlink:href="#DejaVuSans-76"/>
     <use x="59.179688" xlink:href="#DejaVuSans-30"/>
     <use x="122.802734" xlink:href="#DejaVuSans-2e"/>
     <use x="154.589844" xlink:href="#DejaVuSans-30"/>
     <use x="218.212891" xlink:href="#DejaVuSans-2e"/>
     <use x="250" xlink:href="#DejaVuSans-30"/>
    </g>
   </g>
   <g id="text_19">
    <!-- 13 Sharp ridge -->
    <defs>
     <path d="M 54.890625 33.015625 
L 54.890625 0 
L 45.90625 0 
L 45.90625 32.71875 
Q 45.90625 40.484375 42.875 44.328125 
Q 39.84375 48.1875 33.796875 48.1875 
Q 26.515625 48.1875 22.3125 43.546875 
Q 18.109375 38.921875 18.109375 30.90625 
L 18.109375 0 
L 9.078125 0 
L 9.078125 75.984375 
L 18.109375 75.984375 
L 18.109375 46.1875 
Q 21.34375 51.125 25.703125 53.5625 
Q 30.078125 56 35.796875 56 
Q 45.21875 56 50.046875 50.171875 
Q 54.890625 44.34375 54.890625 33.015625 
z
" id="DejaVuSans-68"/>
    </defs>
    <g transform="translate(120.55025 18.84)scale(0.2 -0.2)">
     <use xlink:href="#DejaVuSans-31"/>
     <use x="63.623047" xlink:href="#DejaVuSans-33"/>
     <use x="127.246094" xlink:href="#DejaVuSans-20"/>
     <use x="159.033203" xlink:href="#DejaVuSans-53"/>
     <use x="222.509766" xlink:href="#DejaVuSans-68"/>
     <use x="285.888672" xlink:href="#DejaVuSans-61"/>
     <use x="347.167969" xlink:href="#DejaVuSans-72"/>
     <use x="388.28125" xlink:href="#DejaVuSans-70"/>
     <use x="451.757812" xlink:href="#DejaVuSans-20"/>
     <use x="483.544922" xlink:href="#DejaVuSans-72"/>
     <use x="524.658203" xlink:href="#DejaVuSans-69"/>
     <use x="552.441406" xlink:href="#DejaVuSans-64"/>
     <use x="615.917969" xlink:href="#DejaVuSans-67"/>
     <use x="679.394531" xlink:href="#DejaVuSans-65"/>
    </g>
   </g>
  </g>
 </g>
 <defs>
  <clipPath id="p2e0ba5768d">
   <rect height="270.04" width="277.048" x="56.12" y="24.84"/>
  </clipPath>
 </defs>
</svg>
