<?xml version="1.0" encoding="utf-8" standalone="no"?>
<!DOCTYPE svg PUBLIC "-//W3C//DTD SVG 1.1//EN"
  "http://www.w3.org/Graphics/SVG/1.1/DTD/svg11.dtd">
<!-- Created with matplotlib (http://matplotlib.org/) -->
<svg height="345pt" version="1.1" viewBox="0 0 460 345" width="460pt" xmlns="http://www.w3.org/2000/svg" xmlns:xlink="http://www.w3.org/1999/xlink">
 <defs>
  <style type="text/css">
*{stroke-linecap:butt;stroke-linejoin:round;}
  </style>
 </defs>
 <g id="figure_1">
  <g id="patch_1">
   <path d="M 0 345.6 
L 460.8 345.6 
L 460.8 0 
L 0 0 
z
" style="fill:#ffffff;"/>
  </g>
  <g id="axes_1">
   <g id="patch_2">
    <path d="M 56.12 294.88 
L 333.168 294.88 
L 333.168 24.84 
L 56.12 24.84 
z
" style="fill:#ffffff;"/>
   </g>
   <g id="line2d_1">
    <path d="M 37.236359 294.88 
L 37.236359 289.637523 
L 49.15061 289.637523 
L 49.15061 284.395046 
L 56.12 284.395046 
L 56.12 279.152568 
L 72.979112 279.152568 
L 72.979112 273.910091 
L 76.814644 273.910091 
L 76.814644 268.667614 
L 101.067579 268.667614 
L 101.067579 263.425137 
L 108.451173 263.425137 
L 108.451173 258.18266 
L 119.382949 258.18266 
L 119.382949 252.940182 
L 128.981332 252.940182 
L 128.981332 247.697705 
L 131.654565 247.697705 
L 131.654565 242.455228 
L 136.332102 242.455228 
L 136.332102 237.212751 
L 139.60905 237.212751 
L 139.60905 231.970274 
L 141.898705 231.970274 
L 141.898705 226.727797 
L 143.35529 226.727797 
L 143.35529 221.485319 
L 145.411621 221.485319 
L 145.411621 216.242842 
L 146.667271 216.242842 
L 146.667271 211.000365 
L 148.593071 211.000365 
L 148.593071 205.757888 
L 148.932933 205.757888 
L 148.932933 200.515411 
L 149.240798 200.515411 
L 149.240798 195.272933 
L 150.132627 195.272933 
L 150.132627 190.030456 
L 151.8977 190.030456 
L 151.8977 184.787979 
L 160.227826 184.787979 
L 160.227826 179.545502 
L 160.834236 179.545502 
L 160.834236 174.303025 
L 161.294331 174.303025 
L 161.294331 169.060547 
L 162.131166 169.060547 
L 162.131166 163.81807 
L 166.675001 163.81807 
L 166.675001 158.575593 
L 167.138972 158.575593 
L 167.138972 153.333116 
L 167.494306 153.333116 
L 167.494306 148.090639 
L 168.065007 148.090639 
L 168.065007 142.848162 
L 168.567879 142.848162 
L 168.567879 137.605684 
L 169.208322 137.605684 
L 169.208322 132.363207 
L 175.424013 132.363207 
L 175.424013 127.12073 
L 175.666188 127.12073 
L 175.666188 121.878253 
L 175.737092 121.878253 
L 175.737092 116.635776 
L 175.867227 116.635776 
L 175.867227 111.393298 
L 175.985658 111.393298 
L 175.985658 106.150821 
L 176.140536 106.150821 
L 176.140536 100.908344 
L 176.19892 100.908344 
L 176.19892 95.665867 
L 176.262385 95.665867 
L 176.262385 90.42339 
L 176.393858 90.42339 
L 176.393858 85.180912 
L 176.461828 85.180912 
L 176.461828 79.938435 
L 176.576246 79.938435 
L 176.576246 74.695958 
L 176.612493 74.695958 
L 176.612493 69.453481 
L 176.6435 69.453481 
L 176.6435 64.211004 
L 176.669298 64.211004 
L 176.669298 58.968526 
L 176.807937 58.968526 
L 176.807937 53.726049 
L 176.874293 53.726049 
L 176.874293 48.483572 
L 176.960681 48.483572 
L 176.960681 43.241095 
L 177.0214 43.241095 
L 177.0214 37.998618 
L 177.081906 37.998618 
L 177.081906 32.756141 
L 177.142199 32.756141 
L 177.142199 27.513663 
L 333.168 27.513663 
" style="fill:none;stroke:#f5deb3;stroke-linecap:square;stroke-width:4;"/>
   </g>
   <g id="line2d_2">
    <defs>
     <path d="M -0 7.778175 
L 7.778175 0 
L 0 -7.778175 
L -7.778175 -0 
z
" id="m5cb35b41ce" style="stroke:#f5deb3;stroke-linejoin:miter;stroke-width:1.5;"/>
    </defs>
    <g>
     <use style="fill:#f5deb3;stroke:#f5deb3;stroke-linejoin:miter;stroke-width:1.5;" x="76.814644" xlink:href="#m5cb35b41ce" y="273.910091"/>
     <use style="fill:#f5deb3;stroke:#f5deb3;stroke-linejoin:miter;stroke-width:1.5;" x="148.593071" xlink:href="#m5cb35b41ce" y="205.757888"/>
     <use style="fill:#f5deb3;stroke:#f5deb3;stroke-linejoin:miter;stroke-width:1.5;" x="176.19892" xlink:href="#m5cb35b41ce" y="95.665867"/>
     <use style="fill:#f5deb3;stroke:#f5deb3;stroke-linejoin:miter;stroke-width:1.5;" x="177.142199" xlink:href="#m5cb35b41ce" y="32.756141"/>
     <use style="fill:#f5deb3;stroke:#f5deb3;stroke-linejoin:miter;stroke-width:1.5;" x="177.142199" xlink:href="#m5cb35b41ce" y="27.513663"/>
     <use style="fill:#f5deb3;stroke:#f5deb3;stroke-linejoin:miter;stroke-width:1.5;" x="333.168" xlink:href="#m5cb35b41ce" y="27.513663"/>
    </g>
   </g>
   <g id="line2d_3">
    <path style="fill:none;stroke:#f5deb3;stroke-linecap:square;stroke-width:4;"/>
    <g/>
   </g>
   <g id="line2d_4">
    <path d="M 333.168 27.513663 
L 363.64328 32.86099 
" style="fill:none;stroke:#f5deb3;stroke-linecap:square;stroke-width:4;"/>
    <g>
     <use style="fill:#f5deb3;stroke:#f5deb3;stroke-linejoin:miter;stroke-width:1.5;" x="333.168" xlink:href="#m5cb35b41ce" y="27.513663"/>
     <use style="fill:#f5deb3;stroke:#f5deb3;stroke-linejoin:miter;stroke-width:1.5;" x="363.64328" xlink:href="#m5cb35b41ce" y="32.86099"/>
    </g>
   </g>
   <g id="matplotlib.axis_1">
    <g id="xtick_1">
     <g id="line2d_5">
      <path clip-path="url(#p251a504124)" d="M 56.12 294.88 
L 56.12 24.84 
" style="fill:none;stroke:#b0b0b0;stroke-linecap:square;stroke-width:0.8;"/>
     </g>
     <g id="line2d_6">
      <defs>
       <path d="M 0 0 
L 0 3.5 
" id="md2d7df7dac" style="stroke:#000000;stroke-width:0.8;"/>
      </defs>
      <g>
       <use style="stroke:#000000;stroke-width:0.8;" x="56.12" xlink:href="#md2d7df7dac" y="294.88"/>
      </g>
     </g>
     <g id="text_1">
      <!-- 0 -->
      <defs>
       <path d="M 31.78125 66.40625 
Q 24.171875 66.40625 20.328125 58.90625 
Q 16.5 51.421875 16.5 36.375 
Q 16.5 21.390625 20.328125 13.890625 
Q 24.171875 6.390625 31.78125 6.390625 
Q 39.453125 6.390625 43.28125 13.890625 
Q 47.125 21.390625 47.125 36.375 
Q 47.125 51.421875 43.28125 58.90625 
Q 39.453125 66.40625 31.78125 66.40625 
z
M 31.78125 74.21875 
Q 44.046875 74.21875 50.515625 64.515625 
Q 56.984375 54.828125 56.984375 36.375 
Q 56.984375 17.96875 50.515625 8.265625 
Q 44.046875 -1.421875 31.78125 -1.421875 
Q 19.53125 -1.421875 13.0625 8.265625 
Q 6.59375 17.96875 6.59375 36.375 
Q 6.59375 54.828125 13.0625 64.515625 
Q 19.53125 74.21875 31.78125 74.21875 
z
" id="DejaVuSans-30"/>
      </defs>
      <g transform="translate(49.7575 317.076875)scale(0.2 -0.2)">
       <use xlink:href="#DejaVuSans-30"/>
      </g>
     </g>
    </g>
    <g id="xtick_2">
     <g id="line2d_7">
      <path clip-path="url(#p251a504124)" d="M 135.276571 294.88 
L 135.276571 24.84 
" style="fill:none;stroke:#b0b0b0;stroke-linecap:square;stroke-width:0.8;"/>
     </g>
     <g id="line2d_8">
      <g>
       <use style="stroke:#000000;stroke-width:0.8;" x="135.276571" xlink:href="#md2d7df7dac" y="294.88"/>
      </g>
     </g>
     <g id="text_2">
      <!-- 2 -->
      <defs>
       <path d="M 19.1875 8.296875 
L 53.609375 8.296875 
L 53.609375 0 
L 7.328125 0 
L 7.328125 8.296875 
Q 12.9375 14.109375 22.625 23.890625 
Q 32.328125 33.6875 34.8125 36.53125 
Q 39.546875 41.84375 41.421875 45.53125 
Q 43.3125 49.21875 43.3125 52.78125 
Q 43.3125 58.59375 39.234375 62.25 
Q 35.15625 65.921875 28.609375 65.921875 
Q 23.96875 65.921875 18.8125 64.3125 
Q 13.671875 62.703125 7.8125 59.421875 
L 7.8125 69.390625 
Q 13.765625 71.78125 18.9375 73 
Q 24.125 74.21875 28.421875 74.21875 
Q 39.75 74.21875 46.484375 68.546875 
Q 53.21875 62.890625 53.21875 53.421875 
Q 53.21875 48.921875 51.53125 44.890625 
Q 49.859375 40.875 45.40625 35.40625 
Q 44.1875 33.984375 37.640625 27.21875 
Q 31.109375 20.453125 19.1875 8.296875 
z
" id="DejaVuSans-32"/>
      </defs>
      <g transform="translate(128.914071 317.076875)scale(0.2 -0.2)">
       <use xlink:href="#DejaVuSans-32"/>
      </g>
     </g>
    </g>
    <g id="xtick_3">
     <g id="line2d_9">
      <path clip-path="url(#p251a504124)" d="M 214.433143 294.88 
L 214.433143 24.84 
" style="fill:none;stroke:#b0b0b0;stroke-linecap:square;stroke-width:0.8;"/>
     </g>
     <g id="line2d_10">
      <g>
       <use style="stroke:#000000;stroke-width:0.8;" x="214.433143" xlink:href="#md2d7df7dac" y="294.88"/>
      </g>
     </g>
     <g id="text_3">
      <!-- 4 -->
      <defs>
       <path d="M 37.796875 64.3125 
L 12.890625 25.390625 
L 37.796875 25.390625 
z
M 35.203125 72.90625 
L 47.609375 72.90625 
L 47.609375 25.390625 
L 58.015625 25.390625 
L 58.015625 17.1875 
L 47.609375 17.1875 
L 47.609375 0 
L 37.796875 0 
L 37.796875 17.1875 
L 4.890625 17.1875 
L 4.890625 26.703125 
z
" id="DejaVuSans-34"/>
      </defs>
      <g transform="translate(208.070643 317.076875)scale(0.2 -0.2)">
       <use xlink:href="#DejaVuSans-34"/>
      </g>
     </g>
    </g>
    <g id="xtick_4">
     <g id="line2d_11">
      <path clip-path="url(#p251a504124)" d="M 293.589714 294.88 
L 293.589714 24.84 
" style="fill:none;stroke:#b0b0b0;stroke-linecap:square;stroke-width:0.8;"/>
     </g>
     <g id="line2d_12">
      <g>
       <use style="stroke:#000000;stroke-width:0.8;" x="293.589714" xlink:href="#md2d7df7dac" y="294.88"/>
      </g>
     </g>
     <g id="text_4">
      <!-- 6 -->
      <defs>
       <path d="M 33.015625 40.375 
Q 26.375 40.375 22.484375 35.828125 
Q 18.609375 31.296875 18.609375 23.390625 
Q 18.609375 15.53125 22.484375 10.953125 
Q 26.375 6.390625 33.015625 6.390625 
Q 39.65625 6.390625 43.53125 10.953125 
Q 47.40625 15.53125 47.40625 23.390625 
Q 47.40625 31.296875 43.53125 35.828125 
Q 39.65625 40.375 33.015625 40.375 
z
M 52.59375 71.296875 
L 52.59375 62.3125 
Q 48.875 64.0625 45.09375 64.984375 
Q 41.3125 65.921875 37.59375 65.921875 
Q 27.828125 65.921875 22.671875 59.328125 
Q 17.53125 52.734375 16.796875 39.40625 
Q 19.671875 43.65625 24.015625 45.921875 
Q 28.375 48.1875 33.59375 48.1875 
Q 44.578125 48.1875 50.953125 41.515625 
Q 57.328125 34.859375 57.328125 23.390625 
Q 57.328125 12.15625 50.6875 5.359375 
Q 44.046875 -1.421875 33.015625 -1.421875 
Q 20.359375 -1.421875 13.671875 8.265625 
Q 6.984375 17.96875 6.984375 36.375 
Q 6.984375 53.65625 15.1875 63.9375 
Q 23.390625 74.21875 37.203125 74.21875 
Q 40.921875 74.21875 44.703125 73.484375 
Q 48.484375 72.75 52.59375 71.296875 
z
" id="DejaVuSans-36"/>
      </defs>
      <g transform="translate(287.227214 317.076875)scale(0.2 -0.2)">
       <use xlink:href="#DejaVuSans-36"/>
      </g>
     </g>
    </g>
    <g id="xtick_5">
     <g id="line2d_13">
      <path clip-path="url(#p251a504124)" d="M 56.12 294.88 
L 56.12 24.84 
" style="fill:none;stroke:#b0b0b0;stroke-linecap:square;stroke-width:0.8;"/>
     </g>
     <g id="line2d_14">
      <defs>
       <path d="M 0 0 
L 0 2 
" id="m7abd8564f3" style="stroke:#000000;stroke-width:0.6;"/>
      </defs>
      <g>
       <use style="stroke:#000000;stroke-width:0.6;" x="56.12" xlink:href="#m7abd8564f3" y="294.88"/>
      </g>
     </g>
    </g>
    <g id="xtick_6">
     <g id="line2d_15">
      <path clip-path="url(#p251a504124)" d="M 95.698286 294.88 
L 95.698286 24.84 
" style="fill:none;stroke:#b0b0b0;stroke-linecap:square;stroke-width:0.8;"/>
     </g>
     <g id="line2d_16">
      <g>
       <use style="stroke:#000000;stroke-width:0.6;" x="95.698286" xlink:href="#m7abd8564f3" y="294.88"/>
      </g>
     </g>
    </g>
    <g id="xtick_7">
     <g id="line2d_17">
      <path clip-path="url(#p251a504124)" d="M 135.276571 294.88 
L 135.276571 24.84 
" style="fill:none;stroke:#b0b0b0;stroke-linecap:square;stroke-width:0.8;"/>
     </g>
     <g id="line2d_18">
      <g>
       <use style="stroke:#000000;stroke-width:0.6;" x="135.276571" xlink:href="#m7abd8564f3" y="294.88"/>
      </g>
     </g>
    </g>
    <g id="xtick_8">
     <g id="line2d_19">
      <path clip-path="url(#p251a504124)" d="M 174.854857 294.88 
L 174.854857 24.84 
" style="fill:none;stroke:#b0b0b0;stroke-linecap:square;stroke-width:0.8;"/>
     </g>
     <g id="line2d_20">
      <g>
       <use style="stroke:#000000;stroke-width:0.6;" x="174.854857" xlink:href="#m7abd8564f3" y="294.88"/>
      </g>
     </g>
    </g>
    <g id="xtick_9">
     <g id="line2d_21">
      <path clip-path="url(#p251a504124)" d="M 214.433143 294.88 
L 214.433143 24.84 
" style="fill:none;stroke:#b0b0b0;stroke-linecap:square;stroke-width:0.8;"/>
     </g>
     <g id="line2d_22">
      <g>
       <use style="stroke:#000000;stroke-width:0.6;" x="214.433143" xlink:href="#m7abd8564f3" y="294.88"/>
      </g>
     </g>
    </g>
    <g id="xtick_10">
     <g id="line2d_23">
      <path clip-path="url(#p251a504124)" d="M 254.011429 294.88 
L 254.011429 24.84 
" style="fill:none;stroke:#b0b0b0;stroke-linecap:square;stroke-width:0.8;"/>
     </g>
     <g id="line2d_24">
      <g>
       <use style="stroke:#000000;stroke-width:0.6;" x="254.011429" xlink:href="#m7abd8564f3" y="294.88"/>
      </g>
     </g>
    </g>
    <g id="xtick_11">
     <g id="line2d_25">
      <path clip-path="url(#p251a504124)" d="M 293.589714 294.88 
L 293.589714 24.84 
" style="fill:none;stroke:#b0b0b0;stroke-linecap:square;stroke-width:0.8;"/>
     </g>
     <g id="line2d_26">
      <g>
       <use style="stroke:#000000;stroke-width:0.6;" x="293.589714" xlink:href="#m7abd8564f3" y="294.88"/>
      </g>
     </g>
    </g>
    <g id="xtick_12">
     <g id="line2d_27">
      <path clip-path="url(#p251a504124)" d="M 333.168 294.88 
L 333.168 24.84 
" style="fill:none;stroke:#b0b0b0;stroke-linecap:square;stroke-width:0.8;"/>
     </g>
     <g id="line2d_28">
      <g>
       <use style="stroke:#000000;stroke-width:0.6;" x="333.168" xlink:href="#m7abd8564f3" y="294.88"/>
      </g>
     </g>
    </g>
    <g id="text_5">
     <!-- log10(# f-evals / dimension) -->
     <defs>
      <path d="M 9.421875 75.984375 
L 18.40625 75.984375 
L 18.40625 0 
L 9.421875 0 
z
" id="DejaVuSans-6c"/>
      <path d="M 30.609375 48.390625 
Q 23.390625 48.390625 19.1875 42.75 
Q 14.984375 37.109375 14.984375 27.296875 
Q 14.984375 17.484375 19.15625 11.84375 
Q 23.34375 6.203125 30.609375 6.203125 
Q 37.796875 6.203125 41.984375 11.859375 
Q 46.1875 17.53125 46.1875 27.296875 
Q 46.1875 37.015625 41.984375 42.703125 
Q 37.796875 48.390625 30.609375 48.390625 
z
M 30.609375 56 
Q 42.328125 56 49.015625 48.375 
Q 55.71875 40.765625 55.71875 27.296875 
Q 55.71875 13.875 49.015625 6.21875 
Q 42.328125 -1.421875 30.609375 -1.421875 
Q 18.84375 -1.421875 12.171875 6.21875 
Q 5.515625 13.875 5.515625 27.296875 
Q 5.515625 40.765625 12.171875 48.375 
Q 18.84375 56 30.609375 56 
z
" id="DejaVuSans-6f"/>
      <path d="M 45.40625 27.984375 
Q 45.40625 37.75 41.375 43.109375 
Q 37.359375 48.484375 30.078125 48.484375 
Q 22.859375 48.484375 18.828125 43.109375 
Q 14.796875 37.75 14.796875 27.984375 
Q 14.796875 18.265625 18.828125 12.890625 
Q 22.859375 7.515625 30.078125 7.515625 
Q 37.359375 7.515625 41.375 12.890625 
Q 45.40625 18.265625 45.40625 27.984375 
z
M 54.390625 6.78125 
Q 54.390625 -7.171875 48.1875 -13.984375 
Q 42 -20.796875 29.203125 -20.796875 
Q 24.46875 -20.796875 20.265625 -20.09375 
Q 16.0625 -19.390625 12.109375 -17.921875 
L 12.109375 -9.1875 
Q 16.0625 -11.328125 19.921875 -12.34375 
Q 23.78125 -13.375 27.78125 -13.375 
Q 36.625 -13.375 41.015625 -8.765625 
Q 45.40625 -4.15625 45.40625 5.171875 
L 45.40625 9.625 
Q 42.625 4.78125 38.28125 2.390625 
Q 33.9375 0 27.875 0 
Q 17.828125 0 11.671875 7.65625 
Q 5.515625 15.328125 5.515625 27.984375 
Q 5.515625 40.671875 11.671875 48.328125 
Q 17.828125 56 27.875 56 
Q 33.9375 56 38.28125 53.609375 
Q 42.625 51.21875 45.40625 46.390625 
L 45.40625 54.6875 
L 54.390625 54.6875 
z
" id="DejaVuSans-67"/>
      <path d="M 12.40625 8.296875 
L 28.515625 8.296875 
L 28.515625 63.921875 
L 10.984375 60.40625 
L 10.984375 69.390625 
L 28.421875 72.90625 
L 38.28125 72.90625 
L 38.28125 8.296875 
L 54.390625 8.296875 
L 54.390625 0 
L 12.40625 0 
z
" id="DejaVuSans-31"/>
      <path d="M 31 75.875 
Q 24.46875 64.65625 21.28125 53.65625 
Q 18.109375 42.671875 18.109375 31.390625 
Q 18.109375 20.125 21.3125 9.0625 
Q 24.515625 -2 31 -13.1875 
L 23.1875 -13.1875 
Q 15.875 -1.703125 12.234375 9.375 
Q 8.59375 20.453125 8.59375 31.390625 
Q 8.59375 42.28125 12.203125 53.3125 
Q 15.828125 64.359375 23.1875 75.875 
z
" id="DejaVuSans-28"/>
      <path d="M 51.125 44 
L 36.921875 44 
L 32.8125 27.6875 
L 47.125 27.6875 
z
M 43.796875 71.78125 
L 38.71875 51.515625 
L 52.984375 51.515625 
L 58.109375 71.78125 
L 65.921875 71.78125 
L 60.890625 51.515625 
L 76.125 51.515625 
L 76.125 44 
L 58.984375 44 
L 54.984375 27.6875 
L 70.515625 27.6875 
L 70.515625 20.21875 
L 53.078125 20.21875 
L 48 0 
L 40.1875 0 
L 45.21875 20.21875 
L 30.90625 20.21875 
L 25.875 0 
L 18.015625 0 
L 23.09375 20.21875 
L 7.71875 20.21875 
L 7.71875 27.6875 
L 24.90625 27.6875 
L 29 44 
L 13.28125 44 
L 13.28125 51.515625 
L 30.90625 51.515625 
L 35.890625 71.78125 
z
" id="DejaVuSans-23"/>
      <path id="DejaVuSans-20"/>
      <path d="M 37.109375 75.984375 
L 37.109375 68.5 
L 28.515625 68.5 
Q 23.6875 68.5 21.796875 66.546875 
Q 19.921875 64.59375 19.921875 59.515625 
L 19.921875 54.6875 
L 34.71875 54.6875 
L 34.71875 47.703125 
L 19.921875 47.703125 
L 19.921875 0 
L 10.890625 0 
L 10.890625 47.703125 
L 2.296875 47.703125 
L 2.296875 54.6875 
L 10.890625 54.6875 
L 10.890625 58.5 
Q 10.890625 67.625 15.140625 71.796875 
Q 19.390625 75.984375 28.609375 75.984375 
z
" id="DejaVuSans-66"/>
      <path d="M 4.890625 31.390625 
L 31.203125 31.390625 
L 31.203125 23.390625 
L 4.890625 23.390625 
z
" id="DejaVuSans-2d"/>
      <path d="M 56.203125 29.59375 
L 56.203125 25.203125 
L 14.890625 25.203125 
Q 15.484375 15.921875 20.484375 11.0625 
Q 25.484375 6.203125 34.421875 6.203125 
Q 39.59375 6.203125 44.453125 7.46875 
Q 49.3125 8.734375 54.109375 11.28125 
L 54.109375 2.78125 
Q 49.265625 0.734375 44.1875 -0.34375 
Q 39.109375 -1.421875 33.890625 -1.421875 
Q 20.796875 -1.421875 13.15625 6.1875 
Q 5.515625 13.8125 5.515625 26.8125 
Q 5.515625 40.234375 12.765625 48.109375 
Q 20.015625 56 32.328125 56 
Q 43.359375 56 49.78125 48.890625 
Q 56.203125 41.796875 56.203125 29.59375 
z
M 47.21875 32.234375 
Q 47.125 39.59375 43.09375 43.984375 
Q 39.0625 48.390625 32.421875 48.390625 
Q 24.90625 48.390625 20.390625 44.140625 
Q 15.875 39.890625 15.1875 32.171875 
z
" id="DejaVuSans-65"/>
      <path d="M 2.984375 54.6875 
L 12.5 54.6875 
L 29.59375 8.796875 
L 46.6875 54.6875 
L 56.203125 54.6875 
L 35.6875 0 
L 23.484375 0 
z
" id="DejaVuSans-76"/>
      <path d="M 34.28125 27.484375 
Q 23.390625 27.484375 19.1875 25 
Q 14.984375 22.515625 14.984375 16.5 
Q 14.984375 11.71875 18.140625 8.90625 
Q 21.296875 6.109375 26.703125 6.109375 
Q 34.1875 6.109375 38.703125 11.40625 
Q 43.21875 16.703125 43.21875 25.484375 
L 43.21875 27.484375 
z
M 52.203125 31.203125 
L 52.203125 0 
L 43.21875 0 
L 43.21875 8.296875 
Q 40.140625 3.328125 35.546875 0.953125 
Q 30.953125 -1.421875 24.3125 -1.421875 
Q 15.921875 -1.421875 10.953125 3.296875 
Q 6 8.015625 6 15.921875 
Q 6 25.140625 12.171875 29.828125 
Q 18.359375 34.515625 30.609375 34.515625 
L 43.21875 34.515625 
L 43.21875 35.40625 
Q 43.21875 41.609375 39.140625 45 
Q 35.0625 48.390625 27.6875 48.390625 
Q 23 48.390625 18.546875 47.265625 
Q 14.109375 46.140625 10.015625 43.890625 
L 10.015625 52.203125 
Q 14.9375 54.109375 19.578125 55.046875 
Q 24.21875 56 28.609375 56 
Q 40.484375 56 46.34375 49.84375 
Q 52.203125 43.703125 52.203125 31.203125 
z
" id="DejaVuSans-61"/>
      <path d="M 44.28125 53.078125 
L 44.28125 44.578125 
Q 40.484375 46.53125 36.375 47.5 
Q 32.28125 48.484375 27.875 48.484375 
Q 21.1875 48.484375 17.84375 46.4375 
Q 14.5 44.390625 14.5 40.28125 
Q 14.5 37.15625 16.890625 35.375 
Q 19.28125 33.59375 26.515625 31.984375 
L 29.59375 31.296875 
Q 39.15625 29.25 43.1875 25.515625 
Q 47.21875 21.78125 47.21875 15.09375 
Q 47.21875 7.46875 41.1875 3.015625 
Q 35.15625 -1.421875 24.609375 -1.421875 
Q 20.21875 -1.421875 15.453125 -0.5625 
Q 10.6875 0.296875 5.421875 2 
L 5.421875 11.28125 
Q 10.40625 8.6875 15.234375 7.390625 
Q 20.0625 6.109375 24.8125 6.109375 
Q 31.15625 6.109375 34.5625 8.28125 
Q 37.984375 10.453125 37.984375 14.40625 
Q 37.984375 18.0625 35.515625 20.015625 
Q 33.0625 21.96875 24.703125 23.78125 
L 21.578125 24.515625 
Q 13.234375 26.265625 9.515625 29.90625 
Q 5.8125 33.546875 5.8125 39.890625 
Q 5.8125 47.609375 11.28125 51.796875 
Q 16.75 56 26.8125 56 
Q 31.78125 56 36.171875 55.265625 
Q 40.578125 54.546875 44.28125 53.078125 
z
" id="DejaVuSans-73"/>
      <path d="M 25.390625 72.90625 
L 33.6875 72.90625 
L 8.296875 -9.28125 
L 0 -9.28125 
z
" id="DejaVuSans-2f"/>
      <path d="M 45.40625 46.390625 
L 45.40625 75.984375 
L 54.390625 75.984375 
L 54.390625 0 
L 45.40625 0 
L 45.40625 8.203125 
Q 42.578125 3.328125 38.25 0.953125 
Q 33.9375 -1.421875 27.875 -1.421875 
Q 17.96875 -1.421875 11.734375 6.484375 
Q 5.515625 14.40625 5.515625 27.296875 
Q 5.515625 40.1875 11.734375 48.09375 
Q 17.96875 56 27.875 56 
Q 33.9375 56 38.25 53.625 
Q 42.578125 51.265625 45.40625 46.390625 
z
M 14.796875 27.296875 
Q 14.796875 17.390625 18.875 11.75 
Q 22.953125 6.109375 30.078125 6.109375 
Q 37.203125 6.109375 41.296875 11.75 
Q 45.40625 17.390625 45.40625 27.296875 
Q 45.40625 37.203125 41.296875 42.84375 
Q 37.203125 48.484375 30.078125 48.484375 
Q 22.953125 48.484375 18.875 42.84375 
Q 14.796875 37.203125 14.796875 27.296875 
z
" id="DejaVuSans-64"/>
      <path d="M 9.421875 54.6875 
L 18.40625 54.6875 
L 18.40625 0 
L 9.421875 0 
z
M 9.421875 75.984375 
L 18.40625 75.984375 
L 18.40625 64.59375 
L 9.421875 64.59375 
z
" id="DejaVuSans-69"/>
      <path d="M 52 44.1875 
Q 55.375 50.25 60.0625 53.125 
Q 64.75 56 71.09375 56 
Q 79.640625 56 84.28125 50.015625 
Q 88.921875 44.046875 88.921875 33.015625 
L 88.921875 0 
L 79.890625 0 
L 79.890625 32.71875 
Q 79.890625 40.578125 77.09375 44.375 
Q 74.3125 48.1875 68.609375 48.1875 
Q 61.625 48.1875 57.5625 43.546875 
Q 53.515625 38.921875 53.515625 30.90625 
L 53.515625 0 
L 44.484375 0 
L 44.484375 32.71875 
Q 44.484375 40.625 41.703125 44.40625 
Q 38.921875 48.1875 33.109375 48.1875 
Q 26.21875 48.1875 22.15625 43.53125 
Q 18.109375 38.875 18.109375 30.90625 
L 18.109375 0 
L 9.078125 0 
L 9.078125 54.6875 
L 18.109375 54.6875 
L 18.109375 46.1875 
Q 21.1875 51.21875 25.484375 53.609375 
Q 29.78125 56 35.6875 56 
Q 41.65625 56 45.828125 52.96875 
Q 50 49.953125 52 44.1875 
z
" id="DejaVuSans-6d"/>
      <path d="M 54.890625 33.015625 
L 54.890625 0 
L 45.90625 0 
L 45.90625 32.71875 
Q 45.90625 40.484375 42.875 44.328125 
Q 39.84375 48.1875 33.796875 48.1875 
Q 26.515625 48.1875 22.3125 43.546875 
Q 18.109375 38.921875 18.109375 30.90625 
L 18.109375 0 
L 9.078125 0 
L 9.078125 54.6875 
L 18.109375 54.6875 
L 18.109375 46.1875 
Q 21.34375 51.125 25.703125 53.5625 
Q 30.078125 56 35.796875 56 
Q 45.21875 56 50.046875 50.171875 
Q 54.890625 44.34375 54.890625 33.015625 
z
" id="DejaVuSans-6e"/>
      <path d="M 8.015625 75.875 
L 15.828125 75.875 
Q 23.140625 64.359375 26.78125 53.3125 
Q 30.421875 42.28125 30.421875 31.390625 
Q 30.421875 20.453125 26.78125 9.375 
Q 23.140625 -1.703125 15.828125 -13.1875 
L 8.015625 -13.1875 
Q 14.5 -2 17.703125 9.0625 
Q 20.90625 20.125 20.90625 31.390625 
Q 20.90625 42.671875 17.703125 53.65625 
Q 14.5 64.65625 8.015625 75.875 
z
" id="DejaVuSans-29"/>
     </defs>
     <g transform="translate(73.803219 338.153594)scale(0.17 -0.17)">
      <use xlink:href="#DejaVuSans-6c"/>
      <use x="27.783203" xlink:href="#DejaVuSans-6f"/>
      <use x="88.964844" xlink:href="#DejaVuSans-67"/>
      <use x="152.441406" xlink:href="#DejaVuSans-31"/>
      <use x="216.064453" xlink:href="#DejaVuSans-30"/>
      <use x="279.6875" xlink:href="#DejaVuSans-28"/>
      <use x="318.701172" xlink:href="#DejaVuSans-23"/>
      <use x="402.490234" xlink:href="#DejaVuSans-20"/>
      <use x="434.277344" xlink:href="#DejaVuSans-66"/>
      <use x="469.404297" xlink:href="#DejaVuSans-2d"/>
      <use x="505.488281" xlink:href="#DejaVuSans-65"/>
      <use x="567.011719" xlink:href="#DejaVuSans-76"/>
      <use x="626.191406" xlink:href="#DejaVuSans-61"/>
      <use x="687.470703" xlink:href="#DejaVuSans-6c"/>
      <use x="715.253906" xlink:href="#DejaVuSans-73"/>
      <use x="767.353516" xlink:href="#DejaVuSans-20"/>
      <use x="799.140625" xlink:href="#DejaVuSans-2f"/>
      <use x="832.832031" xlink:href="#DejaVuSans-20"/>
      <use x="864.619141" xlink:href="#DejaVuSans-64"/>
      <use x="928.095703" xlink:href="#DejaVuSans-69"/>
      <use x="955.878906" xlink:href="#DejaVuSans-6d"/>
      <use x="1053.291016" xlink:href="#DejaVuSans-65"/>
      <use x="1114.814453" xlink:href="#DejaVuSans-6e"/>
      <use x="1178.193359" xlink:href="#DejaVuSans-73"/>
      <use x="1230.292969" xlink:href="#DejaVuSans-69"/>
      <use x="1258.076172" xlink:href="#DejaVuSans-6f"/>
      <use x="1319.257812" xlink:href="#DejaVuSans-6e"/>
      <use x="1382.636719" xlink:href="#DejaVuSans-29"/>
     </g>
    </g>
   </g>
   <g id="matplotlib.axis_2">
    <g id="ytick_1">
     <g id="line2d_29">
      <path clip-path="url(#p251a504124)" d="M 56.12 294.88 
L 333.168 294.88 
" style="fill:none;stroke:#b0b0b0;stroke-linecap:square;stroke-width:0.8;"/>
     </g>
     <g id="line2d_30">
      <defs>
       <path d="M 0 0 
L -3.5 0 
" id="mfb67877704" style="stroke:#000000;stroke-width:0.8;"/>
      </defs>
      <g>
       <use style="stroke:#000000;stroke-width:0.8;" x="56.12" xlink:href="#mfb67877704" y="294.88"/>
      </g>
     </g>
     <g id="text_6">
      <!-- 0.0 -->
      <defs>
       <path d="M 10.6875 12.40625 
L 21 12.40625 
L 21 0 
L 10.6875 0 
z
" id="DejaVuSans-2e"/>
      </defs>
      <g transform="translate(23.675 300.95875)scale(0.16 -0.16)">
       <use xlink:href="#DejaVuSans-30"/>
       <use x="63.623047" xlink:href="#DejaVuSans-2e"/>
       <use x="95.410156" xlink:href="#DejaVuSans-30"/>
      </g>
     </g>
    </g>
    <g id="ytick_2">
     <g id="line2d_31">
      <path clip-path="url(#p251a504124)" d="M 56.12 241.406733 
L 333.168 241.406733 
" style="fill:none;stroke:#b0b0b0;stroke-linecap:square;stroke-width:0.8;"/>
     </g>
     <g id="line2d_32">
      <g>
       <use style="stroke:#000000;stroke-width:0.8;" x="56.12" xlink:href="#mfb67877704" y="241.406733"/>
      </g>
     </g>
     <g id="text_7">
      <!-- 0.2 -->
      <g transform="translate(23.675 247.485483)scale(0.16 -0.16)">
       <use xlink:href="#DejaVuSans-30"/>
       <use x="63.623047" xlink:href="#DejaVuSans-2e"/>
       <use x="95.410156" xlink:href="#DejaVuSans-32"/>
      </g>
     </g>
    </g>
    <g id="ytick_3">
     <g id="line2d_33">
      <path clip-path="url(#p251a504124)" d="M 56.12 187.933465 
L 333.168 187.933465 
" style="fill:none;stroke:#b0b0b0;stroke-linecap:square;stroke-width:0.8;"/>
     </g>
     <g id="line2d_34">
      <g>
       <use style="stroke:#000000;stroke-width:0.8;" x="56.12" xlink:href="#mfb67877704" y="187.933465"/>
      </g>
     </g>
     <g id="text_8">
      <!-- 0.4 -->
      <g transform="translate(23.675 194.012215)scale(0.16 -0.16)">
       <use xlink:href="#DejaVuSans-30"/>
       <use x="63.623047" xlink:href="#DejaVuSans-2e"/>
       <use x="95.410156" xlink:href="#DejaVuSans-34"/>
      </g>
     </g>
    </g>
    <g id="ytick_4">
     <g id="line2d_35">
      <path clip-path="url(#p251a504124)" d="M 56.12 134.460198 
L 333.168 134.460198 
" style="fill:none;stroke:#b0b0b0;stroke-linecap:square;stroke-width:0.8;"/>
     </g>
     <g id="line2d_36">
      <g>
       <use style="stroke:#000000;stroke-width:0.8;" x="56.12" xlink:href="#mfb67877704" y="134.460198"/>
      </g>
     </g>
     <g id="text_9">
      <!-- 0.6 -->
      <g transform="translate(23.675 140.538948)scale(0.16 -0.16)">
       <use xlink:href="#DejaVuSans-30"/>
       <use x="63.623047" xlink:href="#DejaVuSans-2e"/>
       <use x="95.410156" xlink:href="#DejaVuSans-36"/>
      </g>
     </g>
    </g>
    <g id="ytick_5">
     <g id="line2d_37">
      <path clip-path="url(#p251a504124)" d="M 56.12 80.986931 
L 333.168 80.986931 
" style="fill:none;stroke:#b0b0b0;stroke-linecap:square;stroke-width:0.8;"/>
     </g>
     <g id="line2d_38">
      <g>
       <use style="stroke:#000000;stroke-width:0.8;" x="56.12" xlink:href="#mfb67877704" y="80.986931"/>
      </g>
     </g>
     <g id="text_10">
      <!-- 0.8 -->
      <defs>
       <path d="M 31.78125 34.625 
Q 24.75 34.625 20.71875 30.859375 
Q 16.703125 27.09375 16.703125 20.515625 
Q 16.703125 13.921875 20.71875 10.15625 
Q 24.75 6.390625 31.78125 6.390625 
Q 38.8125 6.390625 42.859375 10.171875 
Q 46.921875 13.96875 46.921875 20.515625 
Q 46.921875 27.09375 42.890625 30.859375 
Q 38.875 34.625 31.78125 34.625 
z
M 21.921875 38.8125 
Q 15.578125 40.375 12.03125 44.71875 
Q 8.5 49.078125 8.5 55.328125 
Q 8.5 64.0625 14.71875 69.140625 
Q 20.953125 74.21875 31.78125 74.21875 
Q 42.671875 74.21875 48.875 69.140625 
Q 55.078125 64.0625 55.078125 55.328125 
Q 55.078125 49.078125 51.53125 44.71875 
Q 48 40.375 41.703125 38.8125 
Q 48.828125 37.15625 52.796875 32.3125 
Q 56.78125 27.484375 56.78125 20.515625 
Q 56.78125 9.90625 50.3125 4.234375 
Q 43.84375 -1.421875 31.78125 -1.421875 
Q 19.734375 -1.421875 13.25 4.234375 
Q 6.78125 9.90625 6.78125 20.515625 
Q 6.78125 27.484375 10.78125 32.3125 
Q 14.796875 37.15625 21.921875 38.8125 
z
M 18.3125 54.390625 
Q 18.3125 48.734375 21.84375 45.5625 
Q 25.390625 42.390625 31.78125 42.390625 
Q 38.140625 42.390625 41.71875 45.5625 
Q 45.3125 48.734375 45.3125 54.390625 
Q 45.3125 60.0625 41.71875 63.234375 
Q 38.140625 66.40625 31.78125 66.40625 
Q 25.390625 66.40625 21.84375 63.234375 
Q 18.3125 60.0625 18.3125 54.390625 
z
" id="DejaVuSans-38"/>
      </defs>
      <g transform="translate(23.675 87.065681)scale(0.16 -0.16)">
       <use xlink:href="#DejaVuSans-30"/>
       <use x="63.623047" xlink:href="#DejaVuSans-2e"/>
       <use x="95.410156" xlink:href="#DejaVuSans-38"/>
      </g>
     </g>
    </g>
    <g id="ytick_6">
     <g id="line2d_39">
      <path clip-path="url(#p251a504124)" d="M 56.12 27.513663 
L 333.168 27.513663 
" style="fill:none;stroke:#b0b0b0;stroke-linecap:square;stroke-width:0.8;"/>
     </g>
     <g id="line2d_40">
      <g>
       <use style="stroke:#000000;stroke-width:0.8;" x="56.12" xlink:href="#mfb67877704" y="27.513663"/>
      </g>
     </g>
     <g id="text_11">
      <!-- 1.0 -->
      <g transform="translate(23.675 33.592413)scale(0.16 -0.16)">
       <use xlink:href="#DejaVuSans-31"/>
       <use x="63.623047" xlink:href="#DejaVuSans-2e"/>
       <use x="95.410156" xlink:href="#DejaVuSans-30"/>
      </g>
     </g>
    </g>
    <g id="text_12">
     <!-- Fraction of function,target pairs -->
     <defs>
      <path d="M 9.8125 72.90625 
L 51.703125 72.90625 
L 51.703125 64.59375 
L 19.671875 64.59375 
L 19.671875 43.109375 
L 48.578125 43.109375 
L 48.578125 34.8125 
L 19.671875 34.8125 
L 19.671875 0 
L 9.8125 0 
z
" id="DejaVuSans-46"/>
      <path d="M 41.109375 46.296875 
Q 39.59375 47.171875 37.8125 47.578125 
Q 36.03125 48 33.890625 48 
Q 26.265625 48 22.1875 43.046875 
Q 18.109375 38.09375 18.109375 28.8125 
L 18.109375 0 
L 9.078125 0 
L 9.078125 54.6875 
L 18.109375 54.6875 
L 18.109375 46.1875 
Q 20.953125 51.171875 25.484375 53.578125 
Q 30.03125 56 36.53125 56 
Q 37.453125 56 38.578125 55.875 
Q 39.703125 55.765625 41.0625 55.515625 
z
" id="DejaVuSans-72"/>
      <path d="M 48.78125 52.59375 
L 48.78125 44.1875 
Q 44.96875 46.296875 41.140625 47.34375 
Q 37.3125 48.390625 33.40625 48.390625 
Q 24.65625 48.390625 19.8125 42.84375 
Q 14.984375 37.3125 14.984375 27.296875 
Q 14.984375 17.28125 19.8125 11.734375 
Q 24.65625 6.203125 33.40625 6.203125 
Q 37.3125 6.203125 41.140625 7.25 
Q 44.96875 8.296875 48.78125 10.40625 
L 48.78125 2.09375 
Q 45.015625 0.34375 40.984375 -0.53125 
Q 36.96875 -1.421875 32.421875 -1.421875 
Q 20.0625 -1.421875 12.78125 6.34375 
Q 5.515625 14.109375 5.515625 27.296875 
Q 5.515625 40.671875 12.859375 48.328125 
Q 20.21875 56 33.015625 56 
Q 37.15625 56 41.109375 55.140625 
Q 45.0625 54.296875 48.78125 52.59375 
z
" id="DejaVuSans-63"/>
      <path d="M 18.3125 70.21875 
L 18.3125 54.6875 
L 36.8125 54.6875 
L 36.8125 47.703125 
L 18.3125 47.703125 
L 18.3125 18.015625 
Q 18.3125 11.328125 20.140625 9.421875 
Q 21.96875 7.515625 27.59375 7.515625 
L 36.8125 7.515625 
L 36.8125 0 
L 27.59375 0 
Q 17.1875 0 13.234375 3.875 
Q 9.28125 7.765625 9.28125 18.015625 
L 9.28125 47.703125 
L 2.6875 47.703125 
L 2.6875 54.6875 
L 9.28125 54.6875 
L 9.28125 70.21875 
z
" id="DejaVuSans-74"/>
      <path d="M 8.5 21.578125 
L 8.5 54.6875 
L 17.484375 54.6875 
L 17.484375 21.921875 
Q 17.484375 14.15625 20.5 10.265625 
Q 23.53125 6.390625 29.59375 6.390625 
Q 36.859375 6.390625 41.078125 11.03125 
Q 45.3125 15.671875 45.3125 23.6875 
L 45.3125 54.6875 
L 54.296875 54.6875 
L 54.296875 0 
L 45.3125 0 
L 45.3125 8.40625 
Q 42.046875 3.421875 37.71875 1 
Q 33.40625 -1.421875 27.6875 -1.421875 
Q 18.265625 -1.421875 13.375 4.4375 
Q 8.5 10.296875 8.5 21.578125 
z
M 31.109375 56 
z
" id="DejaVuSans-75"/>
      <path d="M 11.71875 12.40625 
L 22.015625 12.40625 
L 22.015625 4 
L 14.015625 -11.625 
L 7.71875 -11.625 
L 11.71875 4 
z
" id="DejaVuSans-2c"/>
      <path d="M 18.109375 8.203125 
L 18.109375 -20.796875 
L 9.078125 -20.796875 
L 9.078125 54.6875 
L 18.109375 54.6875 
L 18.109375 46.390625 
Q 20.953125 51.265625 25.265625 53.625 
Q 29.59375 56 35.59375 56 
Q 45.5625 56 51.78125 48.09375 
Q 58.015625 40.1875 58.015625 27.296875 
Q 58.015625 14.40625 51.78125 6.484375 
Q 45.5625 -1.421875 35.59375 -1.421875 
Q 29.59375 -1.421875 25.265625 0.953125 
Q 20.953125 3.328125 18.109375 8.203125 
z
M 48.6875 27.296875 
Q 48.6875 37.203125 44.609375 42.84375 
Q 40.53125 48.484375 33.40625 48.484375 
Q 26.265625 48.484375 22.1875 42.84375 
Q 18.109375 37.203125 18.109375 27.296875 
Q 18.109375 17.390625 22.1875 11.75 
Q 26.265625 6.109375 33.40625 6.109375 
Q 40.53125 6.109375 44.609375 11.75 
Q 48.6875 17.390625 48.6875 27.296875 
z
" id="DejaVuSans-70"/>
     </defs>
     <g transform="translate(16.139531 294.999375)rotate(-90)scale(0.17 -0.17)">
      <use xlink:href="#DejaVuSans-46"/>
      <use x="57.410156" xlink:href="#DejaVuSans-72"/>
      <use x="98.523438" xlink:href="#DejaVuSans-61"/>
      <use x="159.802734" xlink:href="#DejaVuSans-63"/>
      <use x="214.783203" xlink:href="#DejaVuSans-74"/>
      <use x="253.992188" xlink:href="#DejaVuSans-69"/>
      <use x="281.775391" xlink:href="#DejaVuSans-6f"/>
      <use x="342.957031" xlink:href="#DejaVuSans-6e"/>
      <use x="406.335938" xlink:href="#DejaVuSans-20"/>
      <use x="438.123047" xlink:href="#DejaVuSans-6f"/>
      <use x="499.304688" xlink:href="#DejaVuSans-66"/>
      <use x="534.509766" xlink:href="#DejaVuSans-20"/>
      <use x="566.296875" xlink:href="#DejaVuSans-66"/>
      <use x="601.501953" xlink:href="#DejaVuSans-75"/>
      <use x="664.880859" xlink:href="#DejaVuSans-6e"/>
      <use x="728.259766" xlink:href="#DejaVuSans-63"/>
      <use x="783.240234" xlink:href="#DejaVuSans-74"/>
      <use x="822.449219" xlink:href="#DejaVuSans-69"/>
      <use x="850.232422" xlink:href="#DejaVuSans-6f"/>
      <use x="911.414062" xlink:href="#DejaVuSans-6e"/>
      <use x="974.792969" xlink:href="#DejaVuSans-2c"/>
      <use x="1006.580078" xlink:href="#DejaVuSans-74"/>
      <use x="1045.789062" xlink:href="#DejaVuSans-61"/>
      <use x="1107.068359" xlink:href="#DejaVuSans-72"/>
      <use x="1148.166016" xlink:href="#DejaVuSans-67"/>
      <use x="1211.642578" xlink:href="#DejaVuSans-65"/>
      <use x="1273.166016" xlink:href="#DejaVuSans-74"/>
      <use x="1312.375" xlink:href="#DejaVuSans-20"/>
      <use x="1344.162109" xlink:href="#DejaVuSans-70"/>
      <use x="1407.638672" xlink:href="#DejaVuSans-61"/>
      <use x="1468.917969" xlink:href="#DejaVuSans-69"/>
      <use x="1496.701172" xlink:href="#DejaVuSans-72"/>
      <use x="1537.814453" xlink:href="#DejaVuSans-73"/>
     </g>
    </g>
   </g>
   <g id="line2d_41">
    <defs>
     <path d="M 0 1.5 
C 0.397805 1.5 0.77937 1.341951 1.06066 1.06066 
C 1.341951 0.77937 1.5 0.397805 1.5 0 
C 1.5 -0.397805 1.341951 -0.77937 1.06066 -1.06066 
C 0.77937 -1.341951 0.397805 -1.5 0 -1.5 
C -0.397805 -1.5 -0.77937 -1.341951 -1.06066 -1.06066 
C -1.341951 -0.77937 -1.5 -0.397805 -1.5 0 
C -1.5 0.397805 -1.341951 0.77937 -1.06066 1.06066 
C -0.77937 1.341951 -0.397805 1.5 0 1.5 
z
" id="mf126cb08d4" style="stroke:#f5deb3;"/>
    </defs>
    <g>
     <use style="fill:#f5deb3;stroke:#f5deb3;" x="177.142199" xlink:href="#mf126cb08d4" y="27.513663"/>
     <use style="fill:#f5deb3;stroke:#f5deb3;" x="177.142199" xlink:href="#mf126cb08d4" y="27.513663"/>
    </g>
   </g>
   <g id="line2d_42">
    <defs>
     <path d="M 0 1.5 
C 0.397805 1.5 0.77937 1.341951 1.06066 1.06066 
C 1.341951 0.77937 1.5 0.397805 1.5 0 
C 1.5 -0.397805 1.341951 -0.77937 1.06066 -1.06066 
C 0.77937 -1.341951 0.397805 -1.5 0 -1.5 
C -0.397805 -1.5 -0.77937 -1.341951 -1.06066 -1.06066 
C -1.341951 -0.77937 -1.5 -0.397805 -1.5 0 
C -1.5 0.397805 -1.341951 0.77937 -1.06066 1.06066 
C -0.77937 1.341951 -0.397805 1.5 0 1.5 
z
" id="md96691988d" style="stroke:#000080;"/>
    </defs>
    <g>
     <use style="fill:#000080;stroke:#000080;" x="252.87225" xlink:href="#md96691988d" y="211.000365"/>
     <use style="fill:#000080;stroke:#000080;" x="252.87225" xlink:href="#md96691988d" y="211.000365"/>
    </g>
   </g>
   <g id="line2d_43">
    <path d="M 37.236359 294.88 
L 37.236359 291.210266 
L 49.15061 291.210266 
L 49.15061 288.589027 
L 56.12 288.589027 
L 56.12 283.34655 
L 61.064861 283.34655 
L 61.064861 279.152568 
L 64.900393 279.152568 
L 64.900393 277.579825 
L 76.814644 277.579825 
L 76.814644 274.434339 
L 82.598142 274.434339 
L 82.598142 273.385844 
L 83.784035 273.385844 
L 83.784035 270.764605 
L 86.917893 270.764605 
L 86.917893 270.240357 
L 89.567532 270.240357 
L 89.567532 269.716109 
L 91.131212 269.716109 
L 91.131212 268.667614 
L 92.564428 268.667614 
L 92.564428 268.143366 
L 104.819059 268.143366 
L 104.819059 267.094871 
L 110.983483 267.094871 
L 110.983483 266.570623 
L 111.448069 266.570623 
L 111.448069 266.046375 
L 114.771859 266.046375 
L 114.771859 264.473632 
L 116.045673 264.473632 
L 116.045673 263.949385 
L 121.16504 263.949385 
L 121.16504 263.425137 
L 121.551317 263.425137 
L 121.551317 262.900889 
L 123.015063 262.900889 
L 123.015063 261.852394 
L 131.152148 261.852394 
L 131.152148 261.328146 
L 131.36927 261.328146 
L 131.36927 260.803898 
L 134.811986 260.803898 
L 134.811986 260.279651 
L 135.950722 260.279651 
L 135.950722 259.755403 
L 136.332102 259.755403 
L 136.332102 259.231155 
L 136.492995 259.231155 
L 136.492995 257.134164 
L 139.917968 257.134164 
L 139.917968 256.609917 
L 145.155547 256.609917 
L 145.155547 256.085669 
L 146.429362 256.085669 
L 146.429362 255.561421 
L 150.011494 255.561421 
L 150.011494 255.037173 
L 153.238297 255.037173 
L 153.238297 253.988678 
L 154.350144 253.988678 
L 154.350144 253.46443 
L 156.362076 253.46443 
L 156.362076 252.940182 
L 157.26221 252.940182 
L 157.26221 251.891687 
L 157.795964 251.891687 
L 157.795964 250.843192 
L 160.106637 250.843192 
L 160.106637 250.318944 
L 160.599487 250.318944 
L 160.599487 249.794696 
L 166.064912 249.794696 
L 166.103088 248.746201 
L 166.665777 248.746201 
L 166.665777 248.221953 
L 167.103032 248.221953 
L 167.103032 247.697705 
L 168.707725 247.697705 
L 168.707725 247.173458 
L 168.975985 247.173458 
L 168.975985 245.600714 
L 170.122579 245.600714 
L 170.122579 245.076467 
L 172.806677 245.076467 
L 172.806677 244.552219 
L 173.359251 244.552219 
L 173.359251 244.027971 
L 173.864292 244.027971 
L 173.864292 243.503724 
L 174.200863 243.503724 
L 174.200863 242.979476 
L 175.240116 242.979476 
L 175.240116 242.455228 
L 175.899607 242.455228 
L 175.899607 241.93098 
L 179.674647 241.93098 
L 179.674647 241.406733 
L 180.169563 241.406733 
L 180.169563 240.882485 
L 180.353624 240.882485 
L 180.353624 240.358237 
L 181.670776 240.358237 
L 181.670776 239.83399 
L 181.968786 239.83399 
L 181.968786 239.309742 
L 182.31377 239.309742 
L 182.31377 238.785494 
L 182.457949 238.785494 
L 182.457949 238.261246 
L 184.289556 238.261246 
L 184.309401 236.688503 
L 192.427328 236.688503 
L 192.427328 236.164255 
L 192.719586 236.164255 
L 192.719586 235.640008 
L 193.258208 235.640008 
L 193.258208 235.11576 
L 193.894397 235.11576 
L 193.894397 234.591512 
L 198.628842 234.591512 
L 198.628842 234.067265 
L 201.921939 234.067265 
L 201.921939 233.543017 
L 202.183324 233.543017 
L 202.183324 233.018769 
L 202.5166 233.018769 
L 202.5166 232.494521 
L 207.973497 232.494521 
L 207.973497 231.970274 
L 208.20224 231.970274 
L 208.20224 231.446026 
L 209.040954 231.446026 
L 209.040954 230.921778 
L 209.537105 230.921778 
L 209.537105 230.397531 
L 210.940799 230.397531 
L 210.940799 229.873283 
L 212.976245 229.873283 
L 212.976245 229.349035 
L 214.886617 229.349035 
L 214.886617 228.824787 
L 215.309934 228.824787 
L 215.407658 227.776292 
L 215.684762 227.776292 
L 215.684762 227.252044 
L 215.869154 227.252044 
L 215.933332 226.203549 
L 216.045331 226.203549 
L 216.045331 225.679301 
L 216.793558 225.679301 
L 216.793558 225.155053 
L 217.006985 225.155053 
L 217.006985 224.630806 
L 218.371954 224.630806 
L 218.371954 224.106558 
L 218.540614 224.106558 
L 218.56496 223.058063 
L 219.214799 223.058063 
L 219.214799 222.533815 
L 220.274656 222.533815 
L 220.274656 222.009567 
L 221.474954 222.009567 
L 221.474954 221.485319 
L 223.263654 221.485319 
L 223.263654 220.961072 
L 223.510722 220.961072 
L 223.510722 220.436824 
L 226.00306 220.436824 
L 226.00306 219.912576 
L 226.941475 219.912576 
L 226.941475 219.388328 
L 227.685627 219.388328 
L 227.685627 218.864081 
L 229.778982 218.864081 
L 229.841281 217.815585 
L 230.731894 217.815585 
L 230.731894 217.291338 
L 231.500263 217.291338 
L 231.500263 216.76709 
L 231.665044 216.76709 
L 231.665044 216.242842 
L 232.542942 216.242842 
L 232.542942 215.718594 
L 236.170165 215.718594 
L 236.170165 215.194347 
L 237.000079 215.194347 
L 237.000079 214.670099 
L 237.516646 214.670099 
L 237.516646 214.145851 
L 239.964363 214.145851 
L 239.964363 213.621604 
L 240.235425 213.621604 
L 240.235425 213.097356 
L 243.164558 213.097356 
L 243.164558 212.573108 
L 247.514699 212.573108 
L 247.514699 212.04886 
L 250.422353 212.04886 
L 250.422353 211.524613 
L 252.87225 211.524613 
L 252.87225 211.000365 
L 333.168 211.000365 
L 333.168 211.000365 
" style="fill:none;stroke:#000080;stroke-linecap:square;stroke-width:1.5;"/>
   </g>
   <g id="line2d_44">
    <defs>
     <path d="M 0 6 
C 1.591219 6 3.117479 5.367802 4.242641 4.242641 
C 5.367802 3.117479 6 1.591219 6 0 
C 6 -1.591219 5.367802 -3.117479 4.242641 -4.242641 
C 3.117479 -5.367802 1.591219 -6 0 -6 
C -1.591219 -6 -3.117479 -5.367802 -4.242641 -4.242641 
C -5.367802 -3.117479 -6 -1.591219 -6 0 
C -6 1.591219 -5.367802 3.117479 -4.242641 4.242641 
C -3.117479 5.367802 -1.591219 6 0 6 
z
" id="m803825bb1b" style="stroke:#000080;stroke-width:1.5;"/>
    </defs>
    <g>
     <use style="fill:none;stroke:#000080;stroke-width:1.5;" x="64.900393" xlink:href="#m803825bb1b" y="277.579825"/>
     <use style="fill:none;stroke:#000080;stroke-width:1.5;" x="134.811986" xlink:href="#m803825bb1b" y="260.279651"/>
     <use style="fill:none;stroke:#000080;stroke-width:1.5;" x="202.5166" xlink:href="#m803825bb1b" y="233.018769"/>
     <use style="fill:none;stroke:#000080;stroke-width:1.5;" x="252.87225" xlink:href="#m803825bb1b" y="211.524613"/>
     <use style="fill:none;stroke:#000080;stroke-width:1.5;" x="252.87225" xlink:href="#m803825bb1b" y="211.000365"/>
     <use style="fill:none;stroke:#000080;stroke-width:1.5;" x="333.168" xlink:href="#m803825bb1b" y="211.000365"/>
    </g>
   </g>
   <g id="line2d_45">
    <path style="fill:none;stroke:#000080;stroke-linecap:square;stroke-width:1.5;"/>
    <g/>
   </g>
   <g id="line2d_46">
    <path clip-path="url(#p251a504124)" d="M 186.28096 236.688503 
" style="fill:none;stroke:#000080;stroke-linecap:square;stroke-width:1.5;"/>
    <defs>
     <path d="M -12 12 
L 12 -12 
M -12 -12 
L 12 12 
" id="me541669e7d" style="stroke:#000080;"/>
    </defs>
    <g clip-path="url(#p251a504124)">
     <use style="fill:#000080;stroke:#000080;" x="186.28096" xlink:href="#me541669e7d" y="236.688503"/>
    </g>
   </g>
   <g id="line2d_47">
    <defs>
     <path d="M 0 1.5 
C 0.397805 1.5 0.77937 1.341951 1.06066 1.06066 
C 1.341951 0.77937 1.5 0.397805 1.5 0 
C 1.5 -0.397805 1.341951 -0.77937 1.06066 -1.06066 
C 0.77937 -1.341951 0.397805 -1.5 0 -1.5 
C -0.397805 -1.5 -0.77937 -1.341951 -1.06066 -1.06066 
C -1.341951 -0.77937 -1.5 -0.397805 -1.5 0 
C -1.5 0.397805 -1.341951 0.77937 -1.06066 1.06066 
C -0.77937 1.341951 -0.397805 1.5 0 1.5 
z
" id="md3aa784ad7" style="stroke:#ff00ff;"/>
    </defs>
    <g>
     <use style="fill:#ff00ff;stroke:#ff00ff;" x="243.356253" xlink:href="#md3aa784ad7" y="27.513663"/>
     <use style="fill:#ff00ff;stroke:#ff00ff;" x="243.356253" xlink:href="#md3aa784ad7" y="27.513663"/>
    </g>
   </g>
   <g id="line2d_48">
    <path d="M 37.236359 294.88 
L 37.236359 290.686018 
L 49.15061 290.686018 
L 49.15061 288.06478 
L 56.12 288.06478 
L 56.12 284.919293 
L 61.064861 284.919293 
L 61.064861 280.201064 
L 64.900393 280.201064 
L 64.900393 277.055578 
L 70.68389 277.055578 
L 70.68389 276.53133 
L 75.003641 276.53133 
L 75.003641 273.385844 
L 82.598142 273.385844 
L 82.598142 272.337348 
L 91.862754 272.337348 
L 91.862754 271.8131 
L 92.564428 271.8131 
L 92.564428 270.240357 
L 95.115564 270.240357 
L 95.115564 269.716109 
L 96.807615 269.716109 
L 96.807615 268.667614 
L 101.481783 268.667614 
L 101.481783 268.143366 
L 107.029816 268.143366 
L 107.029816 267.619119 
L 108.451173 267.619119 
L 108.451173 266.570623 
L 109.250788 266.570623 
L 109.250788 265.522128 
L 110.983483 265.522128 
L 110.983483 264.473632 
L 113.19018 264.473632 
L 113.19018 263.949385 
L 114.389873 263.949385 
L 114.389873 263.425137 
L 114.771859 263.425137 
L 114.771859 262.900889 
L 116.220179 262.900889 
L 116.220179 262.376641 
L 117.06708 262.376641 
L 117.06708 261.852394 
L 119.09161 261.852394 
L 119.09161 258.706907 
L 120.365424 258.706907 
L 120.365424 258.18266 
L 120.636117 258.18266 
L 120.636117 257.134164 
L 123.247346 257.134164 
L 123.247346 256.085669 
L 123.36232 256.085669 
L 123.36232 255.037173 
L 124.036471 255.037173 
L 124.036471 253.988678 
L 124.471649 253.988678 
L 124.578744 252.940182 
L 126.011959 252.940182 
L 126.011959 252.415935 
L 126.207287 252.415935 
L 126.207287 249.794696 
L 128.13443 249.794696 
L 128.13443 248.746201 
L 129.308744 248.746201 
L 129.308744 248.221953 
L 130.100987 248.221953 
L 130.100987 247.697705 
L 130.255146 247.697705 
L 130.255146 247.173458 
L 130.634602 247.173458 
L 130.634602 246.64921 
L 131.224827 246.64921 
L 131.224827 246.124962 
L 131.865471 246.124962 
L 131.865471 245.600714 
L 133.529112 245.600714 
L 133.529112 244.552219 
L 133.6555 244.552219 
L 133.6555 244.027971 
L 133.780965 244.027971 
L 133.780965 243.503724 
L 134.029181 243.503724 
L 134.029181 242.979476 
L 134.753019 242.979476 
L 134.753019 242.455228 
L 135.840184 242.455228 
L 135.840184 241.93098 
L 136.278134 241.93098 
L 136.278134 241.406733 
L 137.326546 241.406733 
L 137.377325 240.358237 
L 137.678888 240.358237 
L 137.678888 239.83399 
L 137.87703 239.83399 
L 137.926211 238.785494 
L 139.203533 238.785494 
L 139.203533 238.261246 
L 139.786254 238.261246 
L 139.786254 237.736999 
L 139.917968 237.736999 
L 139.917968 237.212751 
L 140.178407 237.212751 
L 140.221432 236.164255 
L 141.303883 236.164255 
L 141.303883 234.067265 
L 141.937637 234.067265 
L 141.937637 233.543017 
L 142.207722 233.543017 
L 142.207722 233.018769 
L 142.322186 233.018769 
L 142.322186 230.921778 
L 142.69832 230.921778 
L 142.69832 230.397531 
L 143.462385 230.397531 
L 143.462385 229.873283 
L 144.960957 229.873283 
L 144.960957 227.776292 
L 145.090928 227.776292 
L 145.090928 226.727797 
L 145.72644 226.727797 
L 145.72644 225.155053 
L 145.85077 225.155053 
L 145.85077 224.106558 
L 146.33929 224.106558 
L 146.33929 223.58231 
L 146.637711 223.58231 
L 146.637711 222.533815 
L 146.960099 222.533815 
L 147.018071 220.961072 
L 147.133431 220.961072 
L 147.162151 219.912576 
L 147.559266 219.912576 
L 147.559266 219.388328 
L 147.698898 219.388328 
L 147.809793 218.339833 
L 147.974805 218.339833 
L 147.974805 216.76709 
L 148.165338 216.76709 
L 148.273273 214.145851 
L 148.326988 214.145851 
L 148.326988 213.621604 
L 148.566647 213.621604 
L 148.645797 212.04886 
L 149.642889 212.04886 
L 149.741959 210.476117 
L 150.011494 210.476117 
L 150.011494 209.427622 
L 150.156751 209.427622 
L 150.156751 208.379126 
L 150.324681 208.379126 
L 150.324681 207.330631 
L 150.702468 207.330631 
L 150.702468 205.757888 
L 150.91138 205.757888 
L 150.91138 205.23364 
L 151.254022 205.23364 
L 151.254022 204.185145 
L 151.634268 204.185145 
L 151.744522 201.563906 
L 151.8977 201.563906 
L 151.8977 198.942667 
L 152.476064 198.942667 
L 152.476064 198.41842 
L 152.726997 198.41842 
L 152.726997 197.894172 
L 153.258436 197.894172 
L 153.258436 197.369924 
L 153.715237 197.369924 
L 153.715237 194.224438 
L 154.006742 194.224438 
L 154.006742 193.70019 
L 154.500593 193.70019 
L 154.593959 192.651695 
L 154.944195 192.651695 
L 154.944195 191.603199 
L 155.197773 191.603199 
L 155.287437 190.030456 
L 155.728875 190.030456 
L 155.728875 189.506209 
L 156.227131 189.506209 
L 156.227131 188.457713 
L 156.37887 188.457713 
L 156.37887 185.836474 
L 156.562529 185.836474 
L 156.562529 184.787979 
L 157.069798 184.787979 
L 157.134175 182.690988 
L 157.436716 182.690988 
L 157.436716 181.642493 
L 158.433215 181.642493 
L 158.433215 180.593997 
L 188.670971 180.593997 
L 188.670971 180.06975 
L 189.275734 180.06975 
L 189.354785 178.497006 
L 189.455541 178.497006 
L 189.504476 177.448511 
L 189.62621 177.448511 
L 189.62621 176.924263 
L 189.739858 176.924263 
L 189.800004 175.875768 
L 189.888636 175.875768 
L 189.888636 174.827272 
L 190.055079 174.827272 
L 190.1377 172.730281 
L 190.194125 172.730281 
L 190.283089 170.109043 
L 190.329727 170.109043 
L 190.392489 168.5363 
L 190.459646 168.5363 
L 190.547249 166.963557 
L 190.634408 166.963557 
L 190.707464 164.866566 
L 190.843612 164.866566 
L 190.949514 163.293823 
L 191.088223 163.293823 
L 191.139396 161.721079 
L 191.208128 161.721079 
L 191.208128 161.196832 
L 191.335991 161.196832 
L 191.403943 158.051345 
L 191.79756 158.051345 
L 191.818929 156.478602 
L 192.066983 156.478602 
L 192.142593 154.381611 
L 192.400511 154.381611 
L 192.400511 153.857364 
L 192.560789 153.857364 
L 192.560789 153.333116 
L 193.434062 153.333116 
L 193.434062 152.808868 
L 200.928015 152.808868 
L 200.964431 151.760373 
L 201.145359 151.760373 
L 201.145359 151.236125 
L 201.276429 151.236125 
L 201.276429 150.711877 
L 201.466306 150.711877 
L 201.564704 148.090639 
L 201.587704 148.090639 
L 201.663747 145.993648 
L 201.709451 145.993648 
L 201.726259 144.420905 
L 201.824378 144.420905 
L 201.887499 143.372409 
L 201.946836 143.372409 
L 201.964597 142.323914 
L 202.063722 142.323914 
L 202.156427 140.751171 
L 202.203177 140.751171 
L 202.27655 137.605684 
L 202.329928 137.605684 
L 202.407378 134.984446 
L 202.514307 134.984446 
L 202.625132 133.411703 
L 202.715999 133.411703 
L 202.784964 132.363207 
L 203.032529 132.363207 
L 203.032529 131.838959 
L 203.144493 131.838959 
L 203.158851 130.790464 
L 203.312724 130.790464 
L 203.361893 129.741969 
L 203.587349 129.741969 
L 203.647547 128.169225 
L 203.848112 128.169225 
L 203.919028 127.12073 
L 203.975972 127.12073 
L 203.975972 126.596482 
L 208.161851 126.596482 
L 208.265517 125.547987 
L 208.303207 125.547987 
L 208.405212 123.450996 
L 208.427166 123.450996 
L 208.495288 122.4025 
L 208.559916 122.4025 
L 208.658811 119.781262 
L 208.752355 119.781262 
L 208.842221 117.684271 
L 208.889748 117.684271 
L 208.994631 114.014537 
L 209.080114 114.014537 
L 209.080114 113.490289 
L 209.258333 113.490289 
L 209.275357 112.441794 
L 209.424758 112.441794 
L 209.424758 111.917546 
L 209.801678 111.917546 
L 209.801678 111.393298 
L 209.943616 111.393298 
L 209.943616 110.869051 
L 212.838495 110.869051 
L 212.838495 110.344803 
L 213.099903 110.344803 
L 213.099903 109.820555 
L 213.231282 109.820555 
L 213.329314 106.675069 
L 213.378121 106.675069 
L 213.443184 105.626573 
L 213.546656 105.626573 
L 213.562334 103.529583 
L 213.6591 103.529583 
L 213.738629 101.956839 
L 214.135509 101.956839 
L 214.135509 101.432592 
L 214.26097 101.432592 
L 214.371727 98.811353 
L 214.410209 98.811353 
L 214.514881 96.714362 
L 214.547923 96.714362 
L 214.633649 95.141619 
L 214.819522 95.141619 
L 214.819522 94.617371 
L 215.212198 94.617371 
L 215.212198 94.093124 
L 216.793058 94.093124 
L 216.793058 93.568876 
L 216.930357 93.568876 
L 217.021777 90.947637 
L 217.051323 90.947637 
L 217.096037 89.899142 
L 217.189023 89.899142 
L 217.263537 88.326399 
L 217.327081 88.326399 
L 217.431826 86.229408 
L 217.488518 86.229408 
L 217.551715 84.656665 
L 217.639422 84.656665 
L 217.685954 83.083922 
L 217.807856 83.083922 
L 217.858629 82.035426 
L 217.959728 82.035426 
L 218.020289 80.986931 
L 218.082955 80.986931 
L 218.113508 79.938435 
L 218.281046 79.938435 
L 218.281046 79.414188 
L 218.719694 79.414188 
L 218.719694 78.88994 
L 220.041408 78.88994 
L 220.069499 77.841444 
L 220.222778 77.841444 
L 220.331664 76.268701 
L 220.429358 76.268701 
L 220.430166 75.220206 
L 220.544577 75.220206 
L 220.65544 74.17171 
L 220.745364 74.17171 
L 220.78342 72.074719 
L 220.945402 72.074719 
L 220.957166 71.026224 
L 221.259465 71.026224 
L 221.273325 69.977729 
L 222.738822 69.977729 
L 222.838896 67.35649 
L 222.865578 67.35649 
L 222.969451 66.307995 
L 223.018894 66.307995 
L 223.018894 65.783747 
L 223.347087 65.783747 
L 223.347087 65.259499 
L 223.493819 65.259499 
L 223.493819 64.735251 
L 223.611116 64.735251 
L 223.611116 64.211004 
L 223.746625 64.211004 
L 223.759618 63.162508 
L 223.99051 63.162508 
L 223.99051 62.638261 
L 224.938139 62.638261 
L 224.938139 62.114013 
L 225.169173 62.114013 
L 225.228284 60.017022 
L 225.303334 60.017022 
L 225.387149 57.920031 
L 225.41923 57.920031 
L 225.445818 56.347288 
L 225.590125 56.347288 
L 225.599703 55.298792 
L 225.856298 55.298792 
L 225.879276 54.250297 
L 225.975564 54.250297 
L 225.976735 53.201802 
L 227.11659 53.201802 
L 227.204028 51.629058 
L 227.228268 51.629058 
L 227.228268 51.104811 
L 227.35247 51.104811 
L 227.407504 49.532068 
L 227.546727 49.532068 
L 227.608865 48.483572 
L 228.51722 48.483572 
L 228.55077 47.435077 
L 228.939231 47.435077 
L 229.029416 46.386581 
L 229.095219 46.386581 
L 229.095219 45.862334 
L 229.261655 45.862334 
L 229.267699 44.813838 
L 229.55082 44.813838 
L 229.55082 44.28959 
L 230.247206 44.28959 
L 230.247206 43.765343 
L 230.621216 43.765343 
L 230.696786 42.716847 
L 230.842085 42.716847 
L 230.842085 42.192599 
L 231.443279 42.192599 
L 231.510873 41.144104 
L 231.879624 41.144104 
L 231.879624 40.619856 
L 232.070215 40.619856 
L 232.070215 40.095609 
L 232.190131 40.095609 
L 232.190131 39.571361 
L 232.349873 39.571361 
L 232.38116 37.998618 
L 232.467258 37.998618 
L 232.524352 36.950122 
L 232.994843 36.950122 
L 232.994843 36.425875 
L 233.321176 36.425875 
L 233.321176 35.901627 
L 234.306091 35.901627 
L 234.306091 35.377379 
L 234.998906 35.377379 
L 234.998906 34.853131 
L 235.195891 34.853131 
L 235.195891 34.328884 
L 235.339955 34.328884 
L 235.339955 33.804636 
L 236.335347 33.804636 
L 236.335347 33.280388 
L 236.962271 33.280388 
L 236.962271 32.756141 
L 237.118211 32.756141 
L 237.118211 32.231893 
L 237.316994 32.231893 
L 237.316994 31.707645 
L 237.45821 31.707645 
L 237.45821 31.183397 
L 237.655199 31.183397 
L 237.655199 30.65915 
L 239.972794 30.65915 
L 239.972794 30.134902 
L 241.302625 30.134902 
L 241.302625 29.610654 
L 241.829016 29.610654 
L 241.931369 28.562159 
L 242.499348 28.562159 
L 242.499348 28.037911 
L 243.356253 28.037911 
L 243.356253 27.513663 
L 333.168 27.513663 
L 333.168 27.513663 
" style="fill:none;stroke:#ff00ff;stroke-linecap:square;stroke-width:1.5;"/>
   </g>
   <g id="line2d_49">
    <defs>
     <path d="M -0 8.485281 
L 5.091169 0 
L 0 -8.485281 
L -5.091169 -0 
z
" id="meea580767c" style="stroke:#ff00ff;stroke-linejoin:miter;stroke-width:1.5;"/>
    </defs>
    <g>
     <use style="fill:none;stroke:#ff00ff;stroke-linejoin:miter;stroke-width:1.5;" x="134.029181" xlink:href="#meea580767c" y="243.503724"/>
     <use style="fill:none;stroke:#ff00ff;stroke-linejoin:miter;stroke-width:1.5;" x="158.433215" xlink:href="#meea580767c" y="181.642493"/>
     <use style="fill:none;stroke:#ff00ff;stroke-linejoin:miter;stroke-width:1.5;" x="228.939231" xlink:href="#meea580767c" y="47.435077"/>
     <use style="fill:none;stroke:#ff00ff;stroke-linejoin:miter;stroke-width:1.5;" x="243.356253" xlink:href="#meea580767c" y="27.513663"/>
     <use style="fill:none;stroke:#ff00ff;stroke-linejoin:miter;stroke-width:1.5;" x="243.356253" xlink:href="#meea580767c" y="27.513663"/>
     <use style="fill:none;stroke:#ff00ff;stroke-linejoin:miter;stroke-width:1.5;" x="333.168" xlink:href="#meea580767c" y="27.513663"/>
    </g>
   </g>
   <g id="line2d_50">
    <path style="fill:none;stroke:#ff00ff;stroke-linecap:square;stroke-width:1.5;"/>
    <g/>
   </g>
   <g id="line2d_51">
    <path clip-path="url(#p251a504124)" d="M 189.526452 177.448511 
" style="fill:none;stroke:#ff00ff;stroke-linecap:square;stroke-width:1.5;"/>
    <defs>
     <path d="M -12 12 
L 12 -12 
M -12 -12 
L 12 12 
" id="m60a3ce3b09" style="stroke:#ff00ff;"/>
    </defs>
    <g clip-path="url(#p251a504124)">
     <use style="fill:#ff00ff;stroke:#ff00ff;" x="189.526452" xlink:href="#m60a3ce3b09" y="177.448511"/>
    </g>
   </g>
   <g id="line2d_52">
    <defs>
     <path d="M 0 1.5 
C 0.397805 1.5 0.77937 1.341951 1.06066 1.06066 
C 1.341951 0.77937 1.5 0.397805 1.5 0 
C 1.5 -0.397805 1.341951 -0.77937 1.06066 -1.06066 
C 0.77937 -1.341951 0.397805 -1.5 0 -1.5 
C -0.397805 -1.5 -0.77937 -1.341951 -1.06066 -1.06066 
C -1.341951 -0.77937 -1.5 -0.397805 -1.5 0 
C -1.5 0.397805 -1.341951 0.77937 -1.06066 1.06066 
C -0.77937 1.341951 -0.397805 1.5 0 1.5 
z
" id="m01ac6aeca0" style="stroke:#ff7500;"/>
    </defs>
    <g>
     <use style="fill:#ff7500;stroke:#ff7500;" x="269.612889" xlink:href="#m01ac6aeca0" y="211.000365"/>
     <use style="fill:#ff7500;stroke:#ff7500;" x="269.612889" xlink:href="#m01ac6aeca0" y="211.000365"/>
    </g>
   </g>
   <g id="line2d_53">
    <path d="M 37.236359 294.88 
L 37.236359 291.210266 
L 49.15061 291.210266 
L 49.15061 287.540532 
L 56.12 287.540532 
L 56.12 284.395046 
L 61.064861 284.395046 
L 61.064861 283.34655 
L 64.900393 283.34655 
L 64.900393 280.725312 
L 68.034251 280.725312 
L 68.034251 280.201064 
L 70.68389 280.201064 
L 70.68389 279.676816 
L 72.979112 279.676816 
L 72.979112 278.628321 
L 75.003641 278.628321 
L 75.003641 276.53133 
L 76.814644 276.53133 
L 76.814644 274.958587 
L 79.948502 274.958587 
L 79.948502 273.910091 
L 83.784035 273.910091 
L 83.784035 271.8131 
L 84.893363 271.8131 
L 84.893363 271.288853 
L 91.131212 271.288853 
L 91.131212 270.240357 
L 92.564428 270.240357 
L 92.564428 269.191862 
L 93.238578 269.191862 
L 93.238578 267.619119 
L 93.887283 267.619119 
L 93.887283 267.094871 
L 94.512393 267.094871 
L 94.512393 266.570623 
L 96.261898 266.570623 
L 96.261898 263.949385 
L 98.347925 263.949385 
L 98.347925 263.425137 
L 99.303095 263.425137 
L 99.303095 262.900889 
L 103.415125 262.900889 
L 103.415125 262.376641 
L 103.777005 262.376641 
L 103.777005 261.852394 
L 107.612537 261.852394 
L 107.612537 261.328146 
L 111.900428 261.328146 
L 111.900428 260.803898 
L 125.814387 260.803898 
L 125.814387 260.279651 
L 126.40042 260.279651 
L 126.40042 259.755403 
L 127.151955 259.755403 
L 127.151955 259.231155 
L 129.145817 259.231155 
L 129.145817 258.18266 
L 134.69385 258.18266 
L 134.69385 257.658412 
L 134.811986 257.658412 
L 134.811986 257.134164 
L 135.895542 257.134164 
L 135.895542 256.609917 
L 136.599426 256.609917 
L 136.599426 256.085669 
L 142.586342 256.085669 
L 142.586342 255.037173 
L 143.462385 255.037173 
L 143.462385 254.512926 
L 144.993542 254.512926 
L 144.993542 253.988678 
L 145.601203 253.988678 
L 145.601203 253.46443 
L 167.790669 253.46443 
L 167.790669 252.940182 
L 167.996832 252.940182 
L 167.996832 252.415935 
L 168.351772 252.415935 
L 168.351772 251.891687 
L 168.625601 251.891687 
L 168.625601 251.367439 
L 171.443757 251.367439 
L 171.443757 250.843192 
L 179.752384 250.843192 
L 179.752384 250.318944 
L 180.085243 250.318944 
L 180.085243 249.794696 
L 182.454268 249.794696 
L 182.454268 249.270448 
L 186.96565 249.270448 
L 186.96565 248.746201 
L 209.157387 248.746201 
L 209.157387 248.221953 
L 211.018549 248.221953 
L 211.018549 247.697705 
L 212.733188 247.697705 
L 212.733188 247.173458 
L 213.030416 247.173458 
L 213.030416 246.64921 
L 213.655504 246.64921 
L 213.757113 245.076467 
L 214.033773 245.076467 
L 214.033773 244.552219 
L 214.438299 244.552219 
L 214.446316 243.503724 
L 214.610414 243.503724 
L 214.610414 242.979476 
L 215.000636 242.979476 
L 215.000636 242.455228 
L 215.408741 242.455228 
L 215.408741 241.93098 
L 215.568772 241.93098 
L 215.568772 241.406733 
L 215.808439 241.406733 
L 215.835919 240.358237 
L 218.274175 240.358237 
L 218.274175 239.83399 
L 219.107311 239.83399 
L 219.107311 239.309742 
L 225.545159 239.309742 
L 225.545159 238.785494 
L 225.799903 238.785494 
L 225.799903 238.261246 
L 226.320731 238.261246 
L 226.320731 237.736999 
L 226.508496 237.736999 
L 226.508496 237.212751 
L 226.771826 237.212751 
L 226.771826 236.688503 
L 227.426885 236.688503 
L 227.426885 236.164255 
L 228.220251 236.164255 
L 228.220251 235.640008 
L 232.649096 235.640008 
L 232.649096 235.11576 
L 233.204117 235.11576 
L 233.204117 234.591512 
L 234.660317 234.591512 
L 234.660317 234.067265 
L 236.236525 234.067265 
L 236.236525 233.543017 
L 236.483556 233.543017 
L 236.483556 233.018769 
L 236.918341 233.018769 
L 236.918341 232.494521 
L 237.967072 232.494521 
L 237.967072 231.970274 
L 238.446429 231.970274 
L 238.446429 231.446026 
L 239.54081 231.446026 
L 239.54081 230.921778 
L 239.944503 230.921778 
L 239.944503 230.397531 
L 241.335357 230.397531 
L 241.335357 229.873283 
L 242.14421 229.873283 
L 242.14421 229.349035 
L 242.496437 229.349035 
L 242.496437 228.824787 
L 243.809026 228.824787 
L 243.809026 228.30054 
L 243.993499 228.30054 
L 243.993499 227.776292 
L 244.229238 227.776292 
L 244.229238 227.252044 
L 244.422496 227.252044 
L 244.422496 226.727797 
L 244.834696 226.727797 
L 244.834696 226.203549 
L 245.31933 226.203549 
L 245.31933 225.679301 
L 246.640235 225.679301 
L 246.640235 225.155053 
L 247.088985 225.155053 
L 247.088985 224.630806 
L 247.728332 224.630806 
L 247.785135 223.58231 
L 248.757621 223.58231 
L 248.757621 223.058063 
L 249.116914 223.058063 
L 249.116914 222.533815 
L 250.404907 222.533815 
L 250.404907 222.009567 
L 251.5377 222.009567 
L 251.5377 221.485319 
L 251.652902 221.485319 
L 251.652902 220.961072 
L 252.05909 220.961072 
L 252.05909 220.436824 
L 252.488298 220.436824 
L 252.488298 219.912576 
L 254.41774 219.912576 
L 254.41774 219.388328 
L 255.821486 219.388328 
L 255.877296 218.339833 
L 257.17024 218.339833 
L 257.17024 217.815585 
L 258.157431 217.815585 
L 258.157431 217.291338 
L 258.807481 217.291338 
L 258.807481 216.76709 
L 259.454224 216.76709 
L 259.454224 216.242842 
L 259.667051 216.242842 
L 259.667051 215.718594 
L 259.891524 215.718594 
L 259.965594 214.670099 
L 261.156049 214.670099 
L 261.156049 214.145851 
L 261.389369 214.145851 
L 261.389369 213.621604 
L 263.475754 213.621604 
L 263.475754 213.097356 
L 265.480009 213.097356 
L 265.480009 212.573108 
L 266.570414 212.573108 
L 266.570414 212.04886 
L 268.770671 212.04886 
L 268.770671 211.524613 
L 269.612889 211.524613 
L 269.612889 211.000365 
L 333.168 211.000365 
L 333.168 211.000365 
" style="fill:none;stroke:#ff7500;stroke-linecap:square;stroke-width:1.5;"/>
   </g>
   <g id="line2d_54">
    <defs>
     <path d="M 0 -6 
L -1.347084 -1.854102 
L -5.706339 -1.854102 
L -2.179628 0.708204 
L -3.526712 4.854102 
L -0 2.291796 
L 3.526712 4.854102 
L 2.179628 0.708204 
L 5.706339 -1.854102 
L 1.347084 -1.854102 
z
" id="mdb4d5b612a" style="stroke:#ff7500;stroke-linejoin:bevel;stroke-width:1.5;"/>
    </defs>
    <g>
     <use style="fill:none;stroke:#ff7500;stroke-linejoin:bevel;stroke-width:1.5;" x="111.900428" xlink:href="#mdb4d5b612a" y="260.803898"/>
     <use style="fill:none;stroke:#ff7500;stroke-linejoin:bevel;stroke-width:1.5;" x="186.96565" xlink:href="#mdb4d5b612a" y="248.746201"/>
     <use style="fill:none;stroke:#ff7500;stroke-linejoin:bevel;stroke-width:1.5;" x="242.14421" xlink:href="#mdb4d5b612a" y="229.349035"/>
     <use style="fill:none;stroke:#ff7500;stroke-linejoin:bevel;stroke-width:1.5;" x="269.612889" xlink:href="#mdb4d5b612a" y="211.000365"/>
     <use style="fill:none;stroke:#ff7500;stroke-linejoin:bevel;stroke-width:1.5;" x="269.612889" xlink:href="#mdb4d5b612a" y="211.000365"/>
     <use style="fill:none;stroke:#ff7500;stroke-linejoin:bevel;stroke-width:1.5;" x="333.168" xlink:href="#mdb4d5b612a" y="211.000365"/>
    </g>
   </g>
   <g id="line2d_55">
    <path style="fill:none;stroke:#ff7500;stroke-linecap:square;stroke-width:1.5;"/>
    <g/>
   </g>
   <g id="line2d_56">
    <path clip-path="url(#p251a504124)" d="M 205.363858 248.746201 
" style="fill:none;stroke:#ff7500;stroke-linecap:square;stroke-width:1.5;"/>
    <defs>
     <path d="M -12 12 
L 12 -12 
M -12 -12 
L 12 12 
" id="m33fa794d8f" style="stroke:#ff7500;"/>
    </defs>
    <g clip-path="url(#p251a504124)">
     <use style="fill:#ff7500;stroke:#ff7500;" x="205.363858" xlink:href="#m33fa794d8f" y="248.746201"/>
    </g>
   </g>
   <g id="line2d_57">
    <path d="M 333.168 211.000365 
L 363.64328 289.532673 
" style="fill:none;stroke:#ff7500;stroke-linecap:square;stroke-width:1.5;"/>
    <g>
     <use style="fill:none;stroke:#ff7500;stroke-linejoin:bevel;stroke-width:1.5;" x="333.168" xlink:href="#mdb4d5b612a" y="211.000365"/>
     <use style="fill:none;stroke:#ff7500;stroke-linejoin:bevel;stroke-width:1.5;" x="363.64328" xlink:href="#mdb4d5b612a" y="289.532673"/>
    </g>
   </g>
   <g id="line2d_58">
    <path d="M 333.168 211.000365 
L 363.64328 203.975446 
" style="fill:none;stroke:#000080;stroke-linecap:square;stroke-width:1.5;"/>
    <g>
     <use style="fill:none;stroke:#000080;stroke-width:1.5;" x="333.168" xlink:href="#m803825bb1b" y="211.000365"/>
     <use style="fill:none;stroke:#000080;stroke-width:1.5;" x="363.64328" xlink:href="#m803825bb1b" y="203.975446"/>
    </g>
   </g>
   <g id="line2d_59">
    <path d="M 333.168 27.513663 
L 363.64328 118.418218 
" style="fill:none;stroke:#ff00ff;stroke-linecap:square;stroke-width:1.5;"/>
    <g>
     <use style="fill:none;stroke:#ff00ff;stroke-linejoin:miter;stroke-width:1.5;" x="333.168" xlink:href="#meea580767c" y="27.513663"/>
     <use style="fill:none;stroke:#ff00ff;stroke-linejoin:miter;stroke-width:1.5;" x="363.64328" xlink:href="#meea580767c" y="118.418218"/>
    </g>
   </g>
   <g id="line2d_60">
    <path d="M 333.168 294.88 
L 333.168 27.513663 
" style="fill:none;stroke:#000000;stroke-linecap:square;stroke-width:1.5;"/>
   </g>
   <g id="patch_3">
    <path d="M 56.12 294.88 
L 56.12 24.84 
" style="fill:none;stroke:#000000;stroke-linecap:square;stroke-linejoin:miter;stroke-width:0.8;"/>
   </g>
   <g id="patch_4">
    <path d="M 333.168 294.88 
L 333.168 24.84 
" style="fill:none;stroke:#000000;stroke-linecap:square;stroke-linejoin:miter;stroke-width:0.8;"/>
   </g>
   <g id="patch_5">
    <path d="M 56.12 294.88 
L 333.168 294.88 
" style="fill:none;stroke:#000000;stroke-linecap:square;stroke-linejoin:miter;stroke-width:0.8;"/>
   </g>
   <g id="patch_6">
    <path d="M 56.12 24.84 
L 333.168 24.84 
" style="fill:none;stroke:#000000;stroke-linecap:square;stroke-linejoin:miter;stroke-width:0.8;"/>
   </g>
   <g id="text_13">
    <!-- ppmf-new -->
    <defs>
     <path d="M 4.203125 54.6875 
L 13.1875 54.6875 
L 24.421875 12.015625 
L 35.59375 54.6875 
L 46.1875 54.6875 
L 57.421875 12.015625 
L 68.609375 54.6875 
L 77.59375 54.6875 
L 63.28125 0 
L 52.6875 0 
L 40.921875 44.828125 
L 29.109375 0 
L 18.5 0 
z
" id="DejaVuSans-77"/>
    </defs>
    <g transform="translate(369.18424 294.223611)scale(0.17 -0.17)">
     <use xlink:href="#DejaVuSans-70"/>
     <use x="63.476562" xlink:href="#DejaVuSans-70"/>
     <use x="126.953125" xlink:href="#DejaVuSans-6d"/>
     <use x="224.365234" xlink:href="#DejaVuSans-66"/>
     <use x="259.492188" xlink:href="#DejaVuSans-2d"/>
     <use x="295.576172" xlink:href="#DejaVuSans-6e"/>
     <use x="358.955078" xlink:href="#DejaVuSans-65"/>
     <use x="420.478516" xlink:href="#DejaVuSans-77"/>
    </g>
   </g>
   <g id="text_14">
    <!-- CMA ES PPM -->
    <defs>
     <path d="M 64.40625 67.28125 
L 64.40625 56.890625 
Q 59.421875 61.53125 53.78125 63.8125 
Q 48.140625 66.109375 41.796875 66.109375 
Q 29.296875 66.109375 22.65625 58.46875 
Q 16.015625 50.828125 16.015625 36.375 
Q 16.015625 21.96875 22.65625 14.328125 
Q 29.296875 6.6875 41.796875 6.6875 
Q 48.140625 6.6875 53.78125 8.984375 
Q 59.421875 11.28125 64.40625 15.921875 
L 64.40625 5.609375 
Q 59.234375 2.09375 53.4375 0.328125 
Q 47.65625 -1.421875 41.21875 -1.421875 
Q 24.65625 -1.421875 15.125 8.703125 
Q 5.609375 18.84375 5.609375 36.375 
Q 5.609375 53.953125 15.125 64.078125 
Q 24.65625 74.21875 41.21875 74.21875 
Q 47.75 74.21875 53.53125 72.484375 
Q 59.328125 70.75 64.40625 67.28125 
z
" id="DejaVuSans-43"/>
     <path d="M 9.8125 72.90625 
L 24.515625 72.90625 
L 43.109375 23.296875 
L 61.8125 72.90625 
L 76.515625 72.90625 
L 76.515625 0 
L 66.890625 0 
L 66.890625 64.015625 
L 48.09375 14.015625 
L 38.1875 14.015625 
L 19.390625 64.015625 
L 19.390625 0 
L 9.8125 0 
z
" id="DejaVuSans-4d"/>
     <path d="M 34.1875 63.1875 
L 20.796875 26.90625 
L 47.609375 26.90625 
z
M 28.609375 72.90625 
L 39.796875 72.90625 
L 67.578125 0 
L 57.328125 0 
L 50.6875 18.703125 
L 17.828125 18.703125 
L 11.1875 0 
L 0.78125 0 
z
" id="DejaVuSans-41"/>
     <path d="M 9.8125 72.90625 
L 55.90625 72.90625 
L 55.90625 64.59375 
L 19.671875 64.59375 
L 19.671875 43.015625 
L 54.390625 43.015625 
L 54.390625 34.71875 
L 19.671875 34.71875 
L 19.671875 8.296875 
L 56.78125 8.296875 
L 56.78125 0 
L 9.8125 0 
z
" id="DejaVuSans-45"/>
     <path d="M 53.515625 70.515625 
L 53.515625 60.890625 
Q 47.90625 63.578125 42.921875 64.890625 
Q 37.9375 66.21875 33.296875 66.21875 
Q 25.25 66.21875 20.875 63.09375 
Q 16.5 59.96875 16.5 54.203125 
Q 16.5 49.359375 19.40625 46.890625 
Q 22.3125 44.4375 30.421875 42.921875 
L 36.375 41.703125 
Q 47.40625 39.59375 52.65625 34.296875 
Q 57.90625 29 57.90625 20.125 
Q 57.90625 9.515625 50.796875 4.046875 
Q 43.703125 -1.421875 29.984375 -1.421875 
Q 24.8125 -1.421875 18.96875 -0.25 
Q 13.140625 0.921875 6.890625 3.21875 
L 6.890625 13.375 
Q 12.890625 10.015625 18.65625 8.296875 
Q 24.421875 6.59375 29.984375 6.59375 
Q 38.421875 6.59375 43.015625 9.90625 
Q 47.609375 13.234375 47.609375 19.390625 
Q 47.609375 24.75 44.3125 27.78125 
Q 41.015625 30.8125 33.5 32.328125 
L 27.484375 33.5 
Q 16.453125 35.6875 11.515625 40.375 
Q 6.59375 45.0625 6.59375 53.421875 
Q 6.59375 63.09375 13.40625 68.65625 
Q 20.21875 74.21875 32.171875 74.21875 
Q 37.3125 74.21875 42.625 73.28125 
Q 47.953125 72.359375 53.515625 70.515625 
z
" id="DejaVuSans-53"/>
     <path d="M 19.671875 64.796875 
L 19.671875 37.40625 
L 32.078125 37.40625 
Q 38.96875 37.40625 42.71875 40.96875 
Q 46.484375 44.53125 46.484375 51.125 
Q 46.484375 57.671875 42.71875 61.234375 
Q 38.96875 64.796875 32.078125 64.796875 
z
M 9.8125 72.90625 
L 32.078125 72.90625 
Q 44.34375 72.90625 50.609375 67.359375 
Q 56.890625 61.8125 56.890625 51.125 
Q 56.890625 40.328125 50.609375 34.8125 
Q 44.34375 29.296875 32.078125 29.296875 
L 19.671875 29.296875 
L 19.671875 0 
L 9.8125 0 
z
" id="DejaVuSans-50"/>
    </defs>
    <g transform="translate(369.18424 208.666383)scale(0.17 -0.17)">
     <use xlink:href="#DejaVuSans-43"/>
     <use x="69.824219" xlink:href="#DejaVuSans-4d"/>
     <use x="156.103516" xlink:href="#DejaVuSans-41"/>
     <use x="224.511719" xlink:href="#DejaVuSans-20"/>
     <use x="256.298828" xlink:href="#DejaVuSans-45"/>
     <use x="319.482422" xlink:href="#DejaVuSans-53"/>
     <use x="382.958984" xlink:href="#DejaVuSans-20"/>
     <use x="414.746094" xlink:href="#DejaVuSans-50"/>
     <use x="475.048828" xlink:href="#DejaVuSans-50"/>
     <use x="535.351562" xlink:href="#DejaVuSans-4d"/>
    </g>
   </g>
   <g id="text_15">
    <!-- CMA ES CSA -->
    <g transform="translate(369.18424 123.109155)scale(0.17 -0.17)">
     <use xlink:href="#DejaVuSans-43"/>
     <use x="69.824219" xlink:href="#DejaVuSans-4d"/>
     <use x="156.103516" xlink:href="#DejaVuSans-41"/>
     <use x="224.511719" xlink:href="#DejaVuSans-20"/>
     <use x="256.298828" xlink:href="#DejaVuSans-45"/>
     <use x="319.482422" xlink:href="#DejaVuSans-53"/>
     <use x="382.958984" xlink:href="#DejaVuSans-20"/>
     <use x="414.746094" xlink:href="#DejaVuSans-43"/>
     <use x="484.570312" xlink:href="#DejaVuSans-53"/>
     <use x="548.0625" xlink:href="#DejaVuSans-41"/>
    </g>
   </g>
   <g id="text_16">
    <!-- best 2009 -->
    <defs>
     <path d="M 48.6875 27.296875 
Q 48.6875 37.203125 44.609375 42.84375 
Q 40.53125 48.484375 33.40625 48.484375 
Q 26.265625 48.484375 22.1875 42.84375 
Q 18.109375 37.203125 18.109375 27.296875 
Q 18.109375 17.390625 22.1875 11.75 
Q 26.265625 6.109375 33.40625 6.109375 
Q 40.53125 6.109375 44.609375 11.75 
Q 48.6875 17.390625 48.6875 27.296875 
z
M 18.109375 46.390625 
Q 20.953125 51.265625 25.265625 53.625 
Q 29.59375 56 35.59375 56 
Q 45.5625 56 51.78125 48.09375 
Q 58.015625 40.1875 58.015625 27.296875 
Q 58.015625 14.40625 51.78125 6.484375 
Q 45.5625 -1.421875 35.59375 -1.421875 
Q 29.59375 -1.421875 25.265625 0.953125 
Q 20.953125 3.328125 18.109375 8.203125 
L 18.109375 0 
L 9.078125 0 
L 9.078125 75.984375 
L 18.109375 75.984375 
z
" id="DejaVuSans-62"/>
     <path d="M 10.984375 1.515625 
L 10.984375 10.5 
Q 14.703125 8.734375 18.5 7.8125 
Q 22.3125 6.890625 25.984375 6.890625 
Q 35.75 6.890625 40.890625 13.453125 
Q 46.046875 20.015625 46.78125 33.40625 
Q 43.953125 29.203125 39.59375 26.953125 
Q 35.25 24.703125 29.984375 24.703125 
Q 19.046875 24.703125 12.671875 31.3125 
Q 6.296875 37.9375 6.296875 49.421875 
Q 6.296875 60.640625 12.9375 67.421875 
Q 19.578125 74.21875 30.609375 74.21875 
Q 43.265625 74.21875 49.921875 64.515625 
Q 56.59375 54.828125 56.59375 36.375 
Q 56.59375 19.140625 48.40625 8.859375 
Q 40.234375 -1.421875 26.421875 -1.421875 
Q 22.703125 -1.421875 18.890625 -0.6875 
Q 15.09375 0.046875 10.984375 1.515625 
z
M 30.609375 32.421875 
Q 37.25 32.421875 41.125 36.953125 
Q 45.015625 41.5 45.015625 49.421875 
Q 45.015625 57.28125 41.125 61.84375 
Q 37.25 66.40625 30.609375 66.40625 
Q 23.96875 66.40625 20.09375 61.84375 
Q 16.21875 57.28125 16.21875 49.421875 
Q 16.21875 41.5 20.09375 36.953125 
Q 23.96875 32.421875 30.609375 32.421875 
z
" id="DejaVuSans-39"/>
    </defs>
    <g transform="translate(369.18424 37.551928)scale(0.17 -0.17)">
     <use xlink:href="#DejaVuSans-62"/>
     <use x="63.476562" xlink:href="#DejaVuSans-65"/>
     <use x="125" xlink:href="#DejaVuSans-73"/>
     <use x="177.099609" xlink:href="#DejaVuSans-74"/>
     <use x="216.308594" xlink:href="#DejaVuSans-20"/>
     <use x="248.095703" xlink:href="#DejaVuSans-32"/>
     <use x="311.71875" xlink:href="#DejaVuSans-30"/>
     <use x="375.341797" xlink:href="#DejaVuSans-30"/>
     <use x="438.964844" xlink:href="#DejaVuSans-39"/>
    </g>
   </g>
   <g id="text_17">
    <!-- bbob f16, 3-D -->
    <defs>
     <path d="M 40.578125 39.3125 
Q 47.65625 37.796875 51.625 33 
Q 55.609375 28.21875 55.609375 21.1875 
Q 55.609375 10.40625 48.1875 4.484375 
Q 40.765625 -1.421875 27.09375 -1.421875 
Q 22.515625 -1.421875 17.65625 -0.515625 
Q 12.796875 0.390625 7.625 2.203125 
L 7.625 11.71875 
Q 11.71875 9.328125 16.59375 8.109375 
Q 21.484375 6.890625 26.8125 6.890625 
Q 36.078125 6.890625 40.9375 10.546875 
Q 45.796875 14.203125 45.796875 21.1875 
Q 45.796875 27.640625 41.28125 31.265625 
Q 36.765625 34.90625 28.71875 34.90625 
L 20.21875 34.90625 
L 20.21875 43.015625 
L 29.109375 43.015625 
Q 36.375 43.015625 40.234375 45.921875 
Q 44.09375 48.828125 44.09375 54.296875 
Q 44.09375 59.90625 40.109375 62.90625 
Q 36.140625 65.921875 28.71875 65.921875 
Q 24.65625 65.921875 20.015625 65.03125 
Q 15.375 64.15625 9.8125 62.3125 
L 9.8125 71.09375 
Q 15.4375 72.65625 20.34375 73.4375 
Q 25.25 74.21875 29.59375 74.21875 
Q 40.828125 74.21875 47.359375 69.109375 
Q 53.90625 64.015625 53.90625 55.328125 
Q 53.90625 49.265625 50.4375 45.09375 
Q 46.96875 40.921875 40.578125 39.3125 
z
" id="DejaVuSans-33"/>
     <path d="M 19.671875 64.796875 
L 19.671875 8.109375 
L 31.59375 8.109375 
Q 46.6875 8.109375 53.6875 14.9375 
Q 60.6875 21.78125 60.6875 36.53125 
Q 60.6875 51.171875 53.6875 57.984375 
Q 46.6875 64.796875 31.59375 64.796875 
z
M 9.8125 72.90625 
L 30.078125 72.90625 
Q 51.265625 72.90625 61.171875 64.09375 
Q 71.09375 55.28125 71.09375 36.53125 
Q 71.09375 17.671875 61.125 8.828125 
Q 51.171875 0 30.078125 0 
L 9.8125 0 
z
" id="DejaVuSans-44"/>
    </defs>
    <g transform="translate(58.89048 35.290806)scale(0.102 -0.102)">
     <use xlink:href="#DejaVuSans-62"/>
     <use x="63.476562" xlink:href="#DejaVuSans-62"/>
     <use x="126.953125" xlink:href="#DejaVuSans-6f"/>
     <use x="188.134766" xlink:href="#DejaVuSans-62"/>
     <use x="251.611328" xlink:href="#DejaVuSans-20"/>
     <use x="283.398438" xlink:href="#DejaVuSans-66"/>
     <use x="318.603516" xlink:href="#DejaVuSans-31"/>
     <use x="382.226562" xlink:href="#DejaVuSans-36"/>
     <use x="445.849609" xlink:href="#DejaVuSans-2c"/>
     <use x="477.636719" xlink:href="#DejaVuSans-20"/>
     <use x="509.423828" xlink:href="#DejaVuSans-33"/>
     <use x="573.046875" xlink:href="#DejaVuSans-2d"/>
     <use x="609.130859" xlink:href="#DejaVuSans-44"/>
    </g>
    <!-- 51 targets: 100..1e-08 -->
    <defs>
     <path d="M 10.796875 72.90625 
L 49.515625 72.90625 
L 49.515625 64.59375 
L 19.828125 64.59375 
L 19.828125 46.734375 
Q 21.96875 47.46875 24.109375 47.828125 
Q 26.265625 48.1875 28.421875 48.1875 
Q 40.625 48.1875 47.75 41.5 
Q 54.890625 34.8125 54.890625 23.390625 
Q 54.890625 11.625 47.5625 5.09375 
Q 40.234375 -1.421875 26.90625 -1.421875 
Q 22.3125 -1.421875 17.546875 -0.640625 
Q 12.796875 0.140625 7.71875 1.703125 
L 7.71875 11.625 
Q 12.109375 9.234375 16.796875 8.0625 
Q 21.484375 6.890625 26.703125 6.890625 
Q 35.15625 6.890625 40.078125 11.328125 
Q 45.015625 15.765625 45.015625 23.390625 
Q 45.015625 31 40.078125 35.4375 
Q 35.15625 39.890625 26.703125 39.890625 
Q 22.75 39.890625 18.8125 39.015625 
Q 14.890625 38.140625 10.796875 36.28125 
z
" id="DejaVuSans-35"/>
     <path d="M 11.71875 12.40625 
L 22.015625 12.40625 
L 22.015625 0 
L 11.71875 0 
z
M 11.71875 51.703125 
L 22.015625 51.703125 
L 22.015625 39.3125 
L 11.71875 39.3125 
z
" id="DejaVuSans-3a"/>
    </defs>
    <g transform="translate(58.89048 46.712575)scale(0.102 -0.102)">
     <use xlink:href="#DejaVuSans-35"/>
     <use x="63.623047" xlink:href="#DejaVuSans-31"/>
     <use x="127.246094" xlink:href="#DejaVuSans-20"/>
     <use x="159.033203" xlink:href="#DejaVuSans-74"/>
     <use x="198.242188" xlink:href="#DejaVuSans-61"/>
     <use x="259.521484" xlink:href="#DejaVuSans-72"/>
     <use x="300.619141" xlink:href="#DejaVuSans-67"/>
     <use x="364.095703" xlink:href="#DejaVuSans-65"/>
     <use x="425.619141" xlink:href="#DejaVuSans-74"/>
     <use x="464.828125" xlink:href="#DejaVuSans-73"/>
     <use x="516.927734" xlink:href="#DejaVuSans-3a"/>
     <use x="550.619141" xlink:href="#DejaVuSans-20"/>
     <use x="582.40625" xlink:href="#DejaVuSans-31"/>
     <use x="646.029297" xlink:href="#DejaVuSans-30"/>
     <use x="709.652344" xlink:href="#DejaVuSans-30"/>
     <use x="773.275391" xlink:href="#DejaVuSans-2e"/>
     <use x="805.0625" xlink:href="#DejaVuSans-2e"/>
     <use x="836.849609" xlink:href="#DejaVuSans-31"/>
     <use x="900.472656" xlink:href="#DejaVuSans-65"/>
     <use x="961.996094" xlink:href="#DejaVuSans-2d"/>
     <use x="998.080078" xlink:href="#DejaVuSans-30"/>
     <use x="1061.703125" xlink:href="#DejaVuSans-38"/>
    </g>
    <!-- 15 instances -->
    <g transform="translate(58.89048 58.134344)scale(0.102 -0.102)">
     <use xlink:href="#DejaVuSans-31"/>
     <use x="63.623047" xlink:href="#DejaVuSans-35"/>
     <use x="127.246094" xlink:href="#DejaVuSans-20"/>
     <use x="159.033203" xlink:href="#DejaVuSans-69"/>
     <use x="186.816406" xlink:href="#DejaVuSans-6e"/>
     <use x="250.195312" xlink:href="#DejaVuSans-73"/>
     <use x="302.294922" xlink:href="#DejaVuSans-74"/>
     <use x="341.503906" xlink:href="#DejaVuSans-61"/>
     <use x="402.783203" xlink:href="#DejaVuSans-6e"/>
     <use x="466.162109" xlink:href="#DejaVuSans-63"/>
     <use x="521.142578" xlink:href="#DejaVuSans-65"/>
     <use x="582.666016" xlink:href="#DejaVuSans-73"/>
    </g>
   </g>
   <g id="text_18">
    <!-- v0.0.0 -->
    <g style="fill:#808080;" transform="translate(178.96275 290.099912)scale(0.1 -0.1)">
     <use xlink:href="#DejaVuSans-76"/>
     <use x="59.179688" xlink:href="#DejaVuSans-30"/>
     <use x="122.802734" xlink:href="#DejaVuSans-2e"/>
     <use x="154.589844" xlink:href="#DejaVuSans-30"/>
     <use x="218.212891" xlink:href="#DejaVuSans-2e"/>
     <use x="250" xlink:href="#DejaVuSans-30"/>
    </g>
   </g>
   <g id="text_19">
    <!-- 16 Weierstrass -->
    <defs>
     <path d="M 3.328125 72.90625 
L 13.28125 72.90625 
L 28.609375 11.28125 
L 43.890625 72.90625 
L 54.984375 72.90625 
L 70.3125 11.28125 
L 85.59375 72.90625 
L 95.609375 72.90625 
L 77.296875 0 
L 64.890625 0 
L 49.515625 63.28125 
L 33.984375 0 
L 21.578125 0 
z
" id="DejaVuSans-57"/>
    </defs>
    <g transform="translate(119.878375 18.84)scale(0.2 -0.2)">
     <use xlink:href="#DejaVuSans-31"/>
     <use x="63.623047" xlink:href="#DejaVuSans-36"/>
     <use x="127.246094" xlink:href="#DejaVuSans-20"/>
     <use x="159.033203" xlink:href="#DejaVuSans-57"/>
     <use x="257.832031" xlink:href="#DejaVuSans-65"/>
     <use x="319.355469" xlink:href="#DejaVuSans-69"/>
     <use x="347.138672" xlink:href="#DejaVuSans-65"/>
     <use x="408.662109" xlink:href="#DejaVuSans-72"/>
     <use x="449.775391" xlink:href="#DejaVuSans-73"/>
     <use x="501.875" xlink:href="#DejaVuSans-74"/>
     <use x="541.083984" xlink:href="#DejaVuSans-72"/>
     <use x="582.197266" xlink:href="#DejaVuSans-61"/>
     <use x="643.476562" xlink:href="#DejaVuSans-73"/>
     <use x="695.576172" xlink:href="#DejaVuSans-73"/>
    </g>
   </g>
  </g>
 </g>
 <defs>
  <clipPath id="p251a504124">
   <rect height="270.04" width="277.048" x="56.12" y="24.84"/>
  </clipPath>
 </defs>
</svg>
