<?xml version="1.0" encoding="utf-8" standalone="no"?>
<!DOCTYPE svg PUBLIC "-//W3C//DTD SVG 1.1//EN"
  "http://www.w3.org/Graphics/SVG/1.1/DTD/svg11.dtd">
<!-- Created with matplotlib (http://matplotlib.org/) -->
<svg height="345pt" version="1.1" viewBox="0 0 460 345" width="460pt" xmlns="http://www.w3.org/2000/svg" xmlns:xlink="http://www.w3.org/1999/xlink">
 <defs>
  <style type="text/css">
*{stroke-linecap:butt;stroke-linejoin:round;}
  </style>
 </defs>
 <g id="figure_1">
  <g id="patch_1">
   <path d="M 0 345.6 
L 460.8 345.6 
L 460.8 0 
L 0 0 
z
" style="fill:#ffffff;"/>
  </g>
  <g id="axes_1">
   <g id="patch_2">
    <path d="M 56.12 294.88 
L 333.168 294.88 
L 333.168 24.84 
L 56.12 24.84 
z
" style="fill:#ffffff;"/>
   </g>
   <g id="line2d_1">
    <path d="M 4.627463 294.88 
L 4.627463 279.152568 
L 38.074995 279.152568 
L 38.074995 273.910091 
L 45.844 273.910091 
L 45.844 268.667614 
L 75.842277 268.667614 
L 75.842277 263.425137 
L 102.951792 263.425137 
L 102.951792 258.18266 
L 110.311216 258.18266 
L 110.311216 252.940182 
L 114.866043 252.940182 
L 114.866043 247.697705 
L 120.344949 247.697705 
L 120.344949 242.455228 
L 123.870396 242.455228 
L 123.870396 237.212751 
L 128.121403 237.212751 
L 128.121403 231.970274 
L 139.620179 231.970274 
L 139.620179 226.727797 
L 141.70468 226.727797 
L 141.70468 221.485319 
L 145.897164 221.485319 
L 145.897164 216.242842 
L 147.212295 216.242842 
L 147.212295 211.000365 
L 155.085935 211.000365 
L 155.085935 205.757888 
L 155.772401 205.757888 
L 155.772401 200.515411 
L 157.744104 200.515411 
L 157.744104 195.272933 
L 161.931822 195.272933 
L 161.931822 190.030456 
L 166.417652 190.030456 
L 166.417652 184.787979 
L 172.597899 184.787979 
L 172.597899 179.545502 
L 176.602921 179.545502 
L 176.602921 174.303025 
L 178.909686 174.303025 
L 178.909686 169.060547 
L 180.03106 169.060547 
L 180.03106 163.81807 
L 182.207825 163.81807 
L 182.207825 158.575593 
L 183.031594 158.575593 
L 183.031594 153.333116 
L 183.490603 153.333116 
L 183.490603 148.090639 
L 185.781274 148.090639 
L 185.781274 142.848162 
L 188.3565 142.848162 
L 188.3565 137.605684 
L 188.649799 137.605684 
L 188.649799 132.363207 
L 189.35651 132.363207 
L 189.35651 127.12073 
L 191.212221 127.12073 
L 191.212221 121.878253 
L 192.055297 121.878253 
L 192.055297 116.635776 
L 192.43588 116.635776 
L 192.43588 111.393298 
L 192.640778 111.393298 
L 192.640778 106.150821 
L 192.827259 106.150821 
L 192.827259 100.908344 
L 193.682832 100.908344 
L 193.682832 95.665867 
L 195.344948 95.665867 
L 195.344948 90.42339 
L 195.468438 90.42339 
L 195.468438 85.180912 
L 196.099912 85.180912 
L 196.099912 79.938435 
L 196.318259 79.938435 
L 196.318259 74.695958 
L 196.633405 74.695958 
L 196.633405 69.453481 
L 198.377927 69.453481 
L 198.377927 64.211004 
L 198.566294 64.211004 
L 198.566294 58.968526 
L 198.784474 58.968526 
L 198.784474 53.726049 
L 201.145359 53.726049 
L 201.145359 48.483572 
L 201.255414 48.483572 
L 201.255414 43.241095 
L 201.36293 43.241095 
L 201.36293 37.998618 
L 201.475075 37.998618 
L 201.475075 32.756141 
L 201.56107 32.756141 
L 201.56107 27.513663 
L 333.168 27.513663 
" style="fill:none;stroke:#f5deb3;stroke-linecap:square;stroke-width:4;"/>
   </g>
   <g id="line2d_2">
    <defs>
     <path d="M -0 7.778175 
L 7.778175 0 
L 0 -7.778175 
L -7.778175 -0 
z
" id="m89ca7e21bf" style="stroke:#f5deb3;stroke-linejoin:miter;stroke-width:1.5;"/>
    </defs>
    <g>
     <use style="fill:#f5deb3;stroke:#f5deb3;stroke-linejoin:miter;stroke-width:1.5;" x="123.870396" xlink:href="#m89ca7e21bf" y="242.455228"/>
     <use style="fill:#f5deb3;stroke:#f5deb3;stroke-linejoin:miter;stroke-width:1.5;" x="191.212221" xlink:href="#m89ca7e21bf" y="127.12073"/>
     <use style="fill:#f5deb3;stroke:#f5deb3;stroke-linejoin:miter;stroke-width:1.5;" x="201.56107" xlink:href="#m89ca7e21bf" y="32.756141"/>
     <use style="fill:#f5deb3;stroke:#f5deb3;stroke-linejoin:miter;stroke-width:1.5;" x="201.56107" xlink:href="#m89ca7e21bf" y="27.513663"/>
     <use style="fill:#f5deb3;stroke:#f5deb3;stroke-linejoin:miter;stroke-width:1.5;" x="201.56107" xlink:href="#m89ca7e21bf" y="27.513663"/>
     <use style="fill:#f5deb3;stroke:#f5deb3;stroke-linejoin:miter;stroke-width:1.5;" x="333.168" xlink:href="#m89ca7e21bf" y="27.513663"/>
    </g>
   </g>
   <g id="line2d_3">
    <path style="fill:none;stroke:#f5deb3;stroke-linecap:square;stroke-width:4;"/>
    <g/>
   </g>
   <g id="line2d_4">
    <path d="M 333.168 27.513663 
L 363.64328 32.86099 
" style="fill:none;stroke:#f5deb3;stroke-linecap:square;stroke-width:4;"/>
    <g>
     <use style="fill:#f5deb3;stroke:#f5deb3;stroke-linejoin:miter;stroke-width:1.5;" x="333.168" xlink:href="#m89ca7e21bf" y="27.513663"/>
     <use style="fill:#f5deb3;stroke:#f5deb3;stroke-linejoin:miter;stroke-width:1.5;" x="363.64328" xlink:href="#m89ca7e21bf" y="32.86099"/>
    </g>
   </g>
   <g id="matplotlib.axis_1">
    <g id="xtick_1">
     <g id="line2d_5">
      <path clip-path="url(#p34a48bf9b4)" d="M 56.12 294.88 
L 56.12 24.84 
" style="fill:none;stroke:#b0b0b0;stroke-linecap:square;stroke-width:0.8;"/>
     </g>
     <g id="line2d_6">
      <defs>
       <path d="M 0 0 
L 0 3.5 
" id="m7d51aecb6c" style="stroke:#000000;stroke-width:0.8;"/>
      </defs>
      <g>
       <use style="stroke:#000000;stroke-width:0.8;" x="56.12" xlink:href="#m7d51aecb6c" y="294.88"/>
      </g>
     </g>
     <g id="text_1">
      <!-- 0 -->
      <defs>
       <path d="M 31.78125 66.40625 
Q 24.171875 66.40625 20.328125 58.90625 
Q 16.5 51.421875 16.5 36.375 
Q 16.5 21.390625 20.328125 13.890625 
Q 24.171875 6.390625 31.78125 6.390625 
Q 39.453125 6.390625 43.28125 13.890625 
Q 47.125 21.390625 47.125 36.375 
Q 47.125 51.421875 43.28125 58.90625 
Q 39.453125 66.40625 31.78125 66.40625 
z
M 31.78125 74.21875 
Q 44.046875 74.21875 50.515625 64.515625 
Q 56.984375 54.828125 56.984375 36.375 
Q 56.984375 17.96875 50.515625 8.265625 
Q 44.046875 -1.421875 31.78125 -1.421875 
Q 19.53125 -1.421875 13.0625 8.265625 
Q 6.59375 17.96875 6.59375 36.375 
Q 6.59375 54.828125 13.0625 64.515625 
Q 19.53125 74.21875 31.78125 74.21875 
z
" id="DejaVuSans-30"/>
      </defs>
      <g transform="translate(49.7575 317.076875)scale(0.2 -0.2)">
       <use xlink:href="#DejaVuSans-30"/>
      </g>
     </g>
    </g>
    <g id="xtick_2">
     <g id="line2d_7">
      <path clip-path="url(#p34a48bf9b4)" d="M 135.276571 294.88 
L 135.276571 24.84 
" style="fill:none;stroke:#b0b0b0;stroke-linecap:square;stroke-width:0.8;"/>
     </g>
     <g id="line2d_8">
      <g>
       <use style="stroke:#000000;stroke-width:0.8;" x="135.276571" xlink:href="#m7d51aecb6c" y="294.88"/>
      </g>
     </g>
     <g id="text_2">
      <!-- 2 -->
      <defs>
       <path d="M 19.1875 8.296875 
L 53.609375 8.296875 
L 53.609375 0 
L 7.328125 0 
L 7.328125 8.296875 
Q 12.9375 14.109375 22.625 23.890625 
Q 32.328125 33.6875 34.8125 36.53125 
Q 39.546875 41.84375 41.421875 45.53125 
Q 43.3125 49.21875 43.3125 52.78125 
Q 43.3125 58.59375 39.234375 62.25 
Q 35.15625 65.921875 28.609375 65.921875 
Q 23.96875 65.921875 18.8125 64.3125 
Q 13.671875 62.703125 7.8125 59.421875 
L 7.8125 69.390625 
Q 13.765625 71.78125 18.9375 73 
Q 24.125 74.21875 28.421875 74.21875 
Q 39.75 74.21875 46.484375 68.546875 
Q 53.21875 62.890625 53.21875 53.421875 
Q 53.21875 48.921875 51.53125 44.890625 
Q 49.859375 40.875 45.40625 35.40625 
Q 44.1875 33.984375 37.640625 27.21875 
Q 31.109375 20.453125 19.1875 8.296875 
z
" id="DejaVuSans-32"/>
      </defs>
      <g transform="translate(128.914071 317.076875)scale(0.2 -0.2)">
       <use xlink:href="#DejaVuSans-32"/>
      </g>
     </g>
    </g>
    <g id="xtick_3">
     <g id="line2d_9">
      <path clip-path="url(#p34a48bf9b4)" d="M 214.433143 294.88 
L 214.433143 24.84 
" style="fill:none;stroke:#b0b0b0;stroke-linecap:square;stroke-width:0.8;"/>
     </g>
     <g id="line2d_10">
      <g>
       <use style="stroke:#000000;stroke-width:0.8;" x="214.433143" xlink:href="#m7d51aecb6c" y="294.88"/>
      </g>
     </g>
     <g id="text_3">
      <!-- 4 -->
      <defs>
       <path d="M 37.796875 64.3125 
L 12.890625 25.390625 
L 37.796875 25.390625 
z
M 35.203125 72.90625 
L 47.609375 72.90625 
L 47.609375 25.390625 
L 58.015625 25.390625 
L 58.015625 17.1875 
L 47.609375 17.1875 
L 47.609375 0 
L 37.796875 0 
L 37.796875 17.1875 
L 4.890625 17.1875 
L 4.890625 26.703125 
z
" id="DejaVuSans-34"/>
      </defs>
      <g transform="translate(208.070643 317.076875)scale(0.2 -0.2)">
       <use xlink:href="#DejaVuSans-34"/>
      </g>
     </g>
    </g>
    <g id="xtick_4">
     <g id="line2d_11">
      <path clip-path="url(#p34a48bf9b4)" d="M 293.589714 294.88 
L 293.589714 24.84 
" style="fill:none;stroke:#b0b0b0;stroke-linecap:square;stroke-width:0.8;"/>
     </g>
     <g id="line2d_12">
      <g>
       <use style="stroke:#000000;stroke-width:0.8;" x="293.589714" xlink:href="#m7d51aecb6c" y="294.88"/>
      </g>
     </g>
     <g id="text_4">
      <!-- 6 -->
      <defs>
       <path d="M 33.015625 40.375 
Q 26.375 40.375 22.484375 35.828125 
Q 18.609375 31.296875 18.609375 23.390625 
Q 18.609375 15.53125 22.484375 10.953125 
Q 26.375 6.390625 33.015625 6.390625 
Q 39.65625 6.390625 43.53125 10.953125 
Q 47.40625 15.53125 47.40625 23.390625 
Q 47.40625 31.296875 43.53125 35.828125 
Q 39.65625 40.375 33.015625 40.375 
z
M 52.59375 71.296875 
L 52.59375 62.3125 
Q 48.875 64.0625 45.09375 64.984375 
Q 41.3125 65.921875 37.59375 65.921875 
Q 27.828125 65.921875 22.671875 59.328125 
Q 17.53125 52.734375 16.796875 39.40625 
Q 19.671875 43.65625 24.015625 45.921875 
Q 28.375 48.1875 33.59375 48.1875 
Q 44.578125 48.1875 50.953125 41.515625 
Q 57.328125 34.859375 57.328125 23.390625 
Q 57.328125 12.15625 50.6875 5.359375 
Q 44.046875 -1.421875 33.015625 -1.421875 
Q 20.359375 -1.421875 13.671875 8.265625 
Q 6.984375 17.96875 6.984375 36.375 
Q 6.984375 53.65625 15.1875 63.9375 
Q 23.390625 74.21875 37.203125 74.21875 
Q 40.921875 74.21875 44.703125 73.484375 
Q 48.484375 72.75 52.59375 71.296875 
z
" id="DejaVuSans-36"/>
      </defs>
      <g transform="translate(287.227214 317.076875)scale(0.2 -0.2)">
       <use xlink:href="#DejaVuSans-36"/>
      </g>
     </g>
    </g>
    <g id="xtick_5">
     <g id="line2d_13">
      <path clip-path="url(#p34a48bf9b4)" d="M 56.12 294.88 
L 56.12 24.84 
" style="fill:none;stroke:#b0b0b0;stroke-linecap:square;stroke-width:0.8;"/>
     </g>
     <g id="line2d_14">
      <defs>
       <path d="M 0 0 
L 0 2 
" id="m13aa18bd15" style="stroke:#000000;stroke-width:0.6;"/>
      </defs>
      <g>
       <use style="stroke:#000000;stroke-width:0.6;" x="56.12" xlink:href="#m13aa18bd15" y="294.88"/>
      </g>
     </g>
    </g>
    <g id="xtick_6">
     <g id="line2d_15">
      <path clip-path="url(#p34a48bf9b4)" d="M 95.698286 294.88 
L 95.698286 24.84 
" style="fill:none;stroke:#b0b0b0;stroke-linecap:square;stroke-width:0.8;"/>
     </g>
     <g id="line2d_16">
      <g>
       <use style="stroke:#000000;stroke-width:0.6;" x="95.698286" xlink:href="#m13aa18bd15" y="294.88"/>
      </g>
     </g>
    </g>
    <g id="xtick_7">
     <g id="line2d_17">
      <path clip-path="url(#p34a48bf9b4)" d="M 135.276571 294.88 
L 135.276571 24.84 
" style="fill:none;stroke:#b0b0b0;stroke-linecap:square;stroke-width:0.8;"/>
     </g>
     <g id="line2d_18">
      <g>
       <use style="stroke:#000000;stroke-width:0.6;" x="135.276571" xlink:href="#m13aa18bd15" y="294.88"/>
      </g>
     </g>
    </g>
    <g id="xtick_8">
     <g id="line2d_19">
      <path clip-path="url(#p34a48bf9b4)" d="M 174.854857 294.88 
L 174.854857 24.84 
" style="fill:none;stroke:#b0b0b0;stroke-linecap:square;stroke-width:0.8;"/>
     </g>
     <g id="line2d_20">
      <g>
       <use style="stroke:#000000;stroke-width:0.6;" x="174.854857" xlink:href="#m13aa18bd15" y="294.88"/>
      </g>
     </g>
    </g>
    <g id="xtick_9">
     <g id="line2d_21">
      <path clip-path="url(#p34a48bf9b4)" d="M 214.433143 294.88 
L 214.433143 24.84 
" style="fill:none;stroke:#b0b0b0;stroke-linecap:square;stroke-width:0.8;"/>
     </g>
     <g id="line2d_22">
      <g>
       <use style="stroke:#000000;stroke-width:0.6;" x="214.433143" xlink:href="#m13aa18bd15" y="294.88"/>
      </g>
     </g>
    </g>
    <g id="xtick_10">
     <g id="line2d_23">
      <path clip-path="url(#p34a48bf9b4)" d="M 254.011429 294.88 
L 254.011429 24.84 
" style="fill:none;stroke:#b0b0b0;stroke-linecap:square;stroke-width:0.8;"/>
     </g>
     <g id="line2d_24">
      <g>
       <use style="stroke:#000000;stroke-width:0.6;" x="254.011429" xlink:href="#m13aa18bd15" y="294.88"/>
      </g>
     </g>
    </g>
    <g id="xtick_11">
     <g id="line2d_25">
      <path clip-path="url(#p34a48bf9b4)" d="M 293.589714 294.88 
L 293.589714 24.84 
" style="fill:none;stroke:#b0b0b0;stroke-linecap:square;stroke-width:0.8;"/>
     </g>
     <g id="line2d_26">
      <g>
       <use style="stroke:#000000;stroke-width:0.6;" x="293.589714" xlink:href="#m13aa18bd15" y="294.88"/>
      </g>
     </g>
    </g>
    <g id="xtick_12">
     <g id="line2d_27">
      <path clip-path="url(#p34a48bf9b4)" d="M 333.168 294.88 
L 333.168 24.84 
" style="fill:none;stroke:#b0b0b0;stroke-linecap:square;stroke-width:0.8;"/>
     </g>
     <g id="line2d_28">
      <g>
       <use style="stroke:#000000;stroke-width:0.6;" x="333.168" xlink:href="#m13aa18bd15" y="294.88"/>
      </g>
     </g>
    </g>
    <g id="text_5">
     <!-- log10(# f-evals / dimension) -->
     <defs>
      <path d="M 9.421875 75.984375 
L 18.40625 75.984375 
L 18.40625 0 
L 9.421875 0 
z
" id="DejaVuSans-6c"/>
      <path d="M 30.609375 48.390625 
Q 23.390625 48.390625 19.1875 42.75 
Q 14.984375 37.109375 14.984375 27.296875 
Q 14.984375 17.484375 19.15625 11.84375 
Q 23.34375 6.203125 30.609375 6.203125 
Q 37.796875 6.203125 41.984375 11.859375 
Q 46.1875 17.53125 46.1875 27.296875 
Q 46.1875 37.015625 41.984375 42.703125 
Q 37.796875 48.390625 30.609375 48.390625 
z
M 30.609375 56 
Q 42.328125 56 49.015625 48.375 
Q 55.71875 40.765625 55.71875 27.296875 
Q 55.71875 13.875 49.015625 6.21875 
Q 42.328125 -1.421875 30.609375 -1.421875 
Q 18.84375 -1.421875 12.171875 6.21875 
Q 5.515625 13.875 5.515625 27.296875 
Q 5.515625 40.765625 12.171875 48.375 
Q 18.84375 56 30.609375 56 
z
" id="DejaVuSans-6f"/>
      <path d="M 45.40625 27.984375 
Q 45.40625 37.75 41.375 43.109375 
Q 37.359375 48.484375 30.078125 48.484375 
Q 22.859375 48.484375 18.828125 43.109375 
Q 14.796875 37.75 14.796875 27.984375 
Q 14.796875 18.265625 18.828125 12.890625 
Q 22.859375 7.515625 30.078125 7.515625 
Q 37.359375 7.515625 41.375 12.890625 
Q 45.40625 18.265625 45.40625 27.984375 
z
M 54.390625 6.78125 
Q 54.390625 -7.171875 48.1875 -13.984375 
Q 42 -20.796875 29.203125 -20.796875 
Q 24.46875 -20.796875 20.265625 -20.09375 
Q 16.0625 -19.390625 12.109375 -17.921875 
L 12.109375 -9.1875 
Q 16.0625 -11.328125 19.921875 -12.34375 
Q 23.78125 -13.375 27.78125 -13.375 
Q 36.625 -13.375 41.015625 -8.765625 
Q 45.40625 -4.15625 45.40625 5.171875 
L 45.40625 9.625 
Q 42.625 4.78125 38.28125 2.390625 
Q 33.9375 0 27.875 0 
Q 17.828125 0 11.671875 7.65625 
Q 5.515625 15.328125 5.515625 27.984375 
Q 5.515625 40.671875 11.671875 48.328125 
Q 17.828125 56 27.875 56 
Q 33.9375 56 38.28125 53.609375 
Q 42.625 51.21875 45.40625 46.390625 
L 45.40625 54.6875 
L 54.390625 54.6875 
z
" id="DejaVuSans-67"/>
      <path d="M 12.40625 8.296875 
L 28.515625 8.296875 
L 28.515625 63.921875 
L 10.984375 60.40625 
L 10.984375 69.390625 
L 28.421875 72.90625 
L 38.28125 72.90625 
L 38.28125 8.296875 
L 54.390625 8.296875 
L 54.390625 0 
L 12.40625 0 
z
" id="DejaVuSans-31"/>
      <path d="M 31 75.875 
Q 24.46875 64.65625 21.28125 53.65625 
Q 18.109375 42.671875 18.109375 31.390625 
Q 18.109375 20.125 21.3125 9.0625 
Q 24.515625 -2 31 -13.1875 
L 23.1875 -13.1875 
Q 15.875 -1.703125 12.234375 9.375 
Q 8.59375 20.453125 8.59375 31.390625 
Q 8.59375 42.28125 12.203125 53.3125 
Q 15.828125 64.359375 23.1875 75.875 
z
" id="DejaVuSans-28"/>
      <path d="M 51.125 44 
L 36.921875 44 
L 32.8125 27.6875 
L 47.125 27.6875 
z
M 43.796875 71.78125 
L 38.71875 51.515625 
L 52.984375 51.515625 
L 58.109375 71.78125 
L 65.921875 71.78125 
L 60.890625 51.515625 
L 76.125 51.515625 
L 76.125 44 
L 58.984375 44 
L 54.984375 27.6875 
L 70.515625 27.6875 
L 70.515625 20.21875 
L 53.078125 20.21875 
L 48 0 
L 40.1875 0 
L 45.21875 20.21875 
L 30.90625 20.21875 
L 25.875 0 
L 18.015625 0 
L 23.09375 20.21875 
L 7.71875 20.21875 
L 7.71875 27.6875 
L 24.90625 27.6875 
L 29 44 
L 13.28125 44 
L 13.28125 51.515625 
L 30.90625 51.515625 
L 35.890625 71.78125 
z
" id="DejaVuSans-23"/>
      <path id="DejaVuSans-20"/>
      <path d="M 37.109375 75.984375 
L 37.109375 68.5 
L 28.515625 68.5 
Q 23.6875 68.5 21.796875 66.546875 
Q 19.921875 64.59375 19.921875 59.515625 
L 19.921875 54.6875 
L 34.71875 54.6875 
L 34.71875 47.703125 
L 19.921875 47.703125 
L 19.921875 0 
L 10.890625 0 
L 10.890625 47.703125 
L 2.296875 47.703125 
L 2.296875 54.6875 
L 10.890625 54.6875 
L 10.890625 58.5 
Q 10.890625 67.625 15.140625 71.796875 
Q 19.390625 75.984375 28.609375 75.984375 
z
" id="DejaVuSans-66"/>
      <path d="M 4.890625 31.390625 
L 31.203125 31.390625 
L 31.203125 23.390625 
L 4.890625 23.390625 
z
" id="DejaVuSans-2d"/>
      <path d="M 56.203125 29.59375 
L 56.203125 25.203125 
L 14.890625 25.203125 
Q 15.484375 15.921875 20.484375 11.0625 
Q 25.484375 6.203125 34.421875 6.203125 
Q 39.59375 6.203125 44.453125 7.46875 
Q 49.3125 8.734375 54.109375 11.28125 
L 54.109375 2.78125 
Q 49.265625 0.734375 44.1875 -0.34375 
Q 39.109375 -1.421875 33.890625 -1.421875 
Q 20.796875 -1.421875 13.15625 6.1875 
Q 5.515625 13.8125 5.515625 26.8125 
Q 5.515625 40.234375 12.765625 48.109375 
Q 20.015625 56 32.328125 56 
Q 43.359375 56 49.78125 48.890625 
Q 56.203125 41.796875 56.203125 29.59375 
z
M 47.21875 32.234375 
Q 47.125 39.59375 43.09375 43.984375 
Q 39.0625 48.390625 32.421875 48.390625 
Q 24.90625 48.390625 20.390625 44.140625 
Q 15.875 39.890625 15.1875 32.171875 
z
" id="DejaVuSans-65"/>
      <path d="M 2.984375 54.6875 
L 12.5 54.6875 
L 29.59375 8.796875 
L 46.6875 54.6875 
L 56.203125 54.6875 
L 35.6875 0 
L 23.484375 0 
z
" id="DejaVuSans-76"/>
      <path d="M 34.28125 27.484375 
Q 23.390625 27.484375 19.1875 25 
Q 14.984375 22.515625 14.984375 16.5 
Q 14.984375 11.71875 18.140625 8.90625 
Q 21.296875 6.109375 26.703125 6.109375 
Q 34.1875 6.109375 38.703125 11.40625 
Q 43.21875 16.703125 43.21875 25.484375 
L 43.21875 27.484375 
z
M 52.203125 31.203125 
L 52.203125 0 
L 43.21875 0 
L 43.21875 8.296875 
Q 40.140625 3.328125 35.546875 0.953125 
Q 30.953125 -1.421875 24.3125 -1.421875 
Q 15.921875 -1.421875 10.953125 3.296875 
Q 6 8.015625 6 15.921875 
Q 6 25.140625 12.171875 29.828125 
Q 18.359375 34.515625 30.609375 34.515625 
L 43.21875 34.515625 
L 43.21875 35.40625 
Q 43.21875 41.609375 39.140625 45 
Q 35.0625 48.390625 27.6875 48.390625 
Q 23 48.390625 18.546875 47.265625 
Q 14.109375 46.140625 10.015625 43.890625 
L 10.015625 52.203125 
Q 14.9375 54.109375 19.578125 55.046875 
Q 24.21875 56 28.609375 56 
Q 40.484375 56 46.34375 49.84375 
Q 52.203125 43.703125 52.203125 31.203125 
z
" id="DejaVuSans-61"/>
      <path d="M 44.28125 53.078125 
L 44.28125 44.578125 
Q 40.484375 46.53125 36.375 47.5 
Q 32.28125 48.484375 27.875 48.484375 
Q 21.1875 48.484375 17.84375 46.4375 
Q 14.5 44.390625 14.5 40.28125 
Q 14.5 37.15625 16.890625 35.375 
Q 19.28125 33.59375 26.515625 31.984375 
L 29.59375 31.296875 
Q 39.15625 29.25 43.1875 25.515625 
Q 47.21875 21.78125 47.21875 15.09375 
Q 47.21875 7.46875 41.1875 3.015625 
Q 35.15625 -1.421875 24.609375 -1.421875 
Q 20.21875 -1.421875 15.453125 -0.5625 
Q 10.6875 0.296875 5.421875 2 
L 5.421875 11.28125 
Q 10.40625 8.6875 15.234375 7.390625 
Q 20.0625 6.109375 24.8125 6.109375 
Q 31.15625 6.109375 34.5625 8.28125 
Q 37.984375 10.453125 37.984375 14.40625 
Q 37.984375 18.0625 35.515625 20.015625 
Q 33.0625 21.96875 24.703125 23.78125 
L 21.578125 24.515625 
Q 13.234375 26.265625 9.515625 29.90625 
Q 5.8125 33.546875 5.8125 39.890625 
Q 5.8125 47.609375 11.28125 51.796875 
Q 16.75 56 26.8125 56 
Q 31.78125 56 36.171875 55.265625 
Q 40.578125 54.546875 44.28125 53.078125 
z
" id="DejaVuSans-73"/>
      <path d="M 25.390625 72.90625 
L 33.6875 72.90625 
L 8.296875 -9.28125 
L 0 -9.28125 
z
" id="DejaVuSans-2f"/>
      <path d="M 45.40625 46.390625 
L 45.40625 75.984375 
L 54.390625 75.984375 
L 54.390625 0 
L 45.40625 0 
L 45.40625 8.203125 
Q 42.578125 3.328125 38.25 0.953125 
Q 33.9375 -1.421875 27.875 -1.421875 
Q 17.96875 -1.421875 11.734375 6.484375 
Q 5.515625 14.40625 5.515625 27.296875 
Q 5.515625 40.1875 11.734375 48.09375 
Q 17.96875 56 27.875 56 
Q 33.9375 56 38.25 53.625 
Q 42.578125 51.265625 45.40625 46.390625 
z
M 14.796875 27.296875 
Q 14.796875 17.390625 18.875 11.75 
Q 22.953125 6.109375 30.078125 6.109375 
Q 37.203125 6.109375 41.296875 11.75 
Q 45.40625 17.390625 45.40625 27.296875 
Q 45.40625 37.203125 41.296875 42.84375 
Q 37.203125 48.484375 30.078125 48.484375 
Q 22.953125 48.484375 18.875 42.84375 
Q 14.796875 37.203125 14.796875 27.296875 
z
" id="DejaVuSans-64"/>
      <path d="M 9.421875 54.6875 
L 18.40625 54.6875 
L 18.40625 0 
L 9.421875 0 
z
M 9.421875 75.984375 
L 18.40625 75.984375 
L 18.40625 64.59375 
L 9.421875 64.59375 
z
" id="DejaVuSans-69"/>
      <path d="M 52 44.1875 
Q 55.375 50.25 60.0625 53.125 
Q 64.75 56 71.09375 56 
Q 79.640625 56 84.28125 50.015625 
Q 88.921875 44.046875 88.921875 33.015625 
L 88.921875 0 
L 79.890625 0 
L 79.890625 32.71875 
Q 79.890625 40.578125 77.09375 44.375 
Q 74.3125 48.1875 68.609375 48.1875 
Q 61.625 48.1875 57.5625 43.546875 
Q 53.515625 38.921875 53.515625 30.90625 
L 53.515625 0 
L 44.484375 0 
L 44.484375 32.71875 
Q 44.484375 40.625 41.703125 44.40625 
Q 38.921875 48.1875 33.109375 48.1875 
Q 26.21875 48.1875 22.15625 43.53125 
Q 18.109375 38.875 18.109375 30.90625 
L 18.109375 0 
L 9.078125 0 
L 9.078125 54.6875 
L 18.109375 54.6875 
L 18.109375 46.1875 
Q 21.1875 51.21875 25.484375 53.609375 
Q 29.78125 56 35.6875 56 
Q 41.65625 56 45.828125 52.96875 
Q 50 49.953125 52 44.1875 
z
" id="DejaVuSans-6d"/>
      <path d="M 54.890625 33.015625 
L 54.890625 0 
L 45.90625 0 
L 45.90625 32.71875 
Q 45.90625 40.484375 42.875 44.328125 
Q 39.84375 48.1875 33.796875 48.1875 
Q 26.515625 48.1875 22.3125 43.546875 
Q 18.109375 38.921875 18.109375 30.90625 
L 18.109375 0 
L 9.078125 0 
L 9.078125 54.6875 
L 18.109375 54.6875 
L 18.109375 46.1875 
Q 21.34375 51.125 25.703125 53.5625 
Q 30.078125 56 35.796875 56 
Q 45.21875 56 50.046875 50.171875 
Q 54.890625 44.34375 54.890625 33.015625 
z
" id="DejaVuSans-6e"/>
      <path d="M 8.015625 75.875 
L 15.828125 75.875 
Q 23.140625 64.359375 26.78125 53.3125 
Q 30.421875 42.28125 30.421875 31.390625 
Q 30.421875 20.453125 26.78125 9.375 
Q 23.140625 -1.703125 15.828125 -13.1875 
L 8.015625 -13.1875 
Q 14.5 -2 17.703125 9.0625 
Q 20.90625 20.125 20.90625 31.390625 
Q 20.90625 42.671875 17.703125 53.65625 
Q 14.5 64.65625 8.015625 75.875 
z
" id="DejaVuSans-29"/>
     </defs>
     <g transform="translate(73.803219 338.153594)scale(0.17 -0.17)">
      <use xlink:href="#DejaVuSans-6c"/>
      <use x="27.783203" xlink:href="#DejaVuSans-6f"/>
      <use x="88.964844" xlink:href="#DejaVuSans-67"/>
      <use x="152.441406" xlink:href="#DejaVuSans-31"/>
      <use x="216.064453" xlink:href="#DejaVuSans-30"/>
      <use x="279.6875" xlink:href="#DejaVuSans-28"/>
      <use x="318.701172" xlink:href="#DejaVuSans-23"/>
      <use x="402.490234" xlink:href="#DejaVuSans-20"/>
      <use x="434.277344" xlink:href="#DejaVuSans-66"/>
      <use x="469.404297" xlink:href="#DejaVuSans-2d"/>
      <use x="505.488281" xlink:href="#DejaVuSans-65"/>
      <use x="567.011719" xlink:href="#DejaVuSans-76"/>
      <use x="626.191406" xlink:href="#DejaVuSans-61"/>
      <use x="687.470703" xlink:href="#DejaVuSans-6c"/>
      <use x="715.253906" xlink:href="#DejaVuSans-73"/>
      <use x="767.353516" xlink:href="#DejaVuSans-20"/>
      <use x="799.140625" xlink:href="#DejaVuSans-2f"/>
      <use x="832.832031" xlink:href="#DejaVuSans-20"/>
      <use x="864.619141" xlink:href="#DejaVuSans-64"/>
      <use x="928.095703" xlink:href="#DejaVuSans-69"/>
      <use x="955.878906" xlink:href="#DejaVuSans-6d"/>
      <use x="1053.291016" xlink:href="#DejaVuSans-65"/>
      <use x="1114.814453" xlink:href="#DejaVuSans-6e"/>
      <use x="1178.193359" xlink:href="#DejaVuSans-73"/>
      <use x="1230.292969" xlink:href="#DejaVuSans-69"/>
      <use x="1258.076172" xlink:href="#DejaVuSans-6f"/>
      <use x="1319.257812" xlink:href="#DejaVuSans-6e"/>
      <use x="1382.636719" xlink:href="#DejaVuSans-29"/>
     </g>
    </g>
   </g>
   <g id="matplotlib.axis_2">
    <g id="ytick_1">
     <g id="line2d_29">
      <path clip-path="url(#p34a48bf9b4)" d="M 56.12 294.88 
L 333.168 294.88 
" style="fill:none;stroke:#b0b0b0;stroke-linecap:square;stroke-width:0.8;"/>
     </g>
     <g id="line2d_30">
      <defs>
       <path d="M 0 0 
L -3.5 0 
" id="ma4f61136c8" style="stroke:#000000;stroke-width:0.8;"/>
      </defs>
      <g>
       <use style="stroke:#000000;stroke-width:0.8;" x="56.12" xlink:href="#ma4f61136c8" y="294.88"/>
      </g>
     </g>
     <g id="text_6">
      <!-- 0.0 -->
      <defs>
       <path d="M 10.6875 12.40625 
L 21 12.40625 
L 21 0 
L 10.6875 0 
z
" id="DejaVuSans-2e"/>
      </defs>
      <g transform="translate(23.675 300.95875)scale(0.16 -0.16)">
       <use xlink:href="#DejaVuSans-30"/>
       <use x="63.623047" xlink:href="#DejaVuSans-2e"/>
       <use x="95.410156" xlink:href="#DejaVuSans-30"/>
      </g>
     </g>
    </g>
    <g id="ytick_2">
     <g id="line2d_31">
      <path clip-path="url(#p34a48bf9b4)" d="M 56.12 241.406733 
L 333.168 241.406733 
" style="fill:none;stroke:#b0b0b0;stroke-linecap:square;stroke-width:0.8;"/>
     </g>
     <g id="line2d_32">
      <g>
       <use style="stroke:#000000;stroke-width:0.8;" x="56.12" xlink:href="#ma4f61136c8" y="241.406733"/>
      </g>
     </g>
     <g id="text_7">
      <!-- 0.2 -->
      <g transform="translate(23.675 247.485483)scale(0.16 -0.16)">
       <use xlink:href="#DejaVuSans-30"/>
       <use x="63.623047" xlink:href="#DejaVuSans-2e"/>
       <use x="95.410156" xlink:href="#DejaVuSans-32"/>
      </g>
     </g>
    </g>
    <g id="ytick_3">
     <g id="line2d_33">
      <path clip-path="url(#p34a48bf9b4)" d="M 56.12 187.933465 
L 333.168 187.933465 
" style="fill:none;stroke:#b0b0b0;stroke-linecap:square;stroke-width:0.8;"/>
     </g>
     <g id="line2d_34">
      <g>
       <use style="stroke:#000000;stroke-width:0.8;" x="56.12" xlink:href="#ma4f61136c8" y="187.933465"/>
      </g>
     </g>
     <g id="text_8">
      <!-- 0.4 -->
      <g transform="translate(23.675 194.012215)scale(0.16 -0.16)">
       <use xlink:href="#DejaVuSans-30"/>
       <use x="63.623047" xlink:href="#DejaVuSans-2e"/>
       <use x="95.410156" xlink:href="#DejaVuSans-34"/>
      </g>
     </g>
    </g>
    <g id="ytick_4">
     <g id="line2d_35">
      <path clip-path="url(#p34a48bf9b4)" d="M 56.12 134.460198 
L 333.168 134.460198 
" style="fill:none;stroke:#b0b0b0;stroke-linecap:square;stroke-width:0.8;"/>
     </g>
     <g id="line2d_36">
      <g>
       <use style="stroke:#000000;stroke-width:0.8;" x="56.12" xlink:href="#ma4f61136c8" y="134.460198"/>
      </g>
     </g>
     <g id="text_9">
      <!-- 0.6 -->
      <g transform="translate(23.675 140.538948)scale(0.16 -0.16)">
       <use xlink:href="#DejaVuSans-30"/>
       <use x="63.623047" xlink:href="#DejaVuSans-2e"/>
       <use x="95.410156" xlink:href="#DejaVuSans-36"/>
      </g>
     </g>
    </g>
    <g id="ytick_5">
     <g id="line2d_37">
      <path clip-path="url(#p34a48bf9b4)" d="M 56.12 80.986931 
L 333.168 80.986931 
" style="fill:none;stroke:#b0b0b0;stroke-linecap:square;stroke-width:0.8;"/>
     </g>
     <g id="line2d_38">
      <g>
       <use style="stroke:#000000;stroke-width:0.8;" x="56.12" xlink:href="#ma4f61136c8" y="80.986931"/>
      </g>
     </g>
     <g id="text_10">
      <!-- 0.8 -->
      <defs>
       <path d="M 31.78125 34.625 
Q 24.75 34.625 20.71875 30.859375 
Q 16.703125 27.09375 16.703125 20.515625 
Q 16.703125 13.921875 20.71875 10.15625 
Q 24.75 6.390625 31.78125 6.390625 
Q 38.8125 6.390625 42.859375 10.171875 
Q 46.921875 13.96875 46.921875 20.515625 
Q 46.921875 27.09375 42.890625 30.859375 
Q 38.875 34.625 31.78125 34.625 
z
M 21.921875 38.8125 
Q 15.578125 40.375 12.03125 44.71875 
Q 8.5 49.078125 8.5 55.328125 
Q 8.5 64.0625 14.71875 69.140625 
Q 20.953125 74.21875 31.78125 74.21875 
Q 42.671875 74.21875 48.875 69.140625 
Q 55.078125 64.0625 55.078125 55.328125 
Q 55.078125 49.078125 51.53125 44.71875 
Q 48 40.375 41.703125 38.8125 
Q 48.828125 37.15625 52.796875 32.3125 
Q 56.78125 27.484375 56.78125 20.515625 
Q 56.78125 9.90625 50.3125 4.234375 
Q 43.84375 -1.421875 31.78125 -1.421875 
Q 19.734375 -1.421875 13.25 4.234375 
Q 6.78125 9.90625 6.78125 20.515625 
Q 6.78125 27.484375 10.78125 32.3125 
Q 14.796875 37.15625 21.921875 38.8125 
z
M 18.3125 54.390625 
Q 18.3125 48.734375 21.84375 45.5625 
Q 25.390625 42.390625 31.78125 42.390625 
Q 38.140625 42.390625 41.71875 45.5625 
Q 45.3125 48.734375 45.3125 54.390625 
Q 45.3125 60.0625 41.71875 63.234375 
Q 38.140625 66.40625 31.78125 66.40625 
Q 25.390625 66.40625 21.84375 63.234375 
Q 18.3125 60.0625 18.3125 54.390625 
z
" id="DejaVuSans-38"/>
      </defs>
      <g transform="translate(23.675 87.065681)scale(0.16 -0.16)">
       <use xlink:href="#DejaVuSans-30"/>
       <use x="63.623047" xlink:href="#DejaVuSans-2e"/>
       <use x="95.410156" xlink:href="#DejaVuSans-38"/>
      </g>
     </g>
    </g>
    <g id="ytick_6">
     <g id="line2d_39">
      <path clip-path="url(#p34a48bf9b4)" d="M 56.12 27.513663 
L 333.168 27.513663 
" style="fill:none;stroke:#b0b0b0;stroke-linecap:square;stroke-width:0.8;"/>
     </g>
     <g id="line2d_40">
      <g>
       <use style="stroke:#000000;stroke-width:0.8;" x="56.12" xlink:href="#ma4f61136c8" y="27.513663"/>
      </g>
     </g>
     <g id="text_11">
      <!-- 1.0 -->
      <g transform="translate(23.675 33.592413)scale(0.16 -0.16)">
       <use xlink:href="#DejaVuSans-31"/>
       <use x="63.623047" xlink:href="#DejaVuSans-2e"/>
       <use x="95.410156" xlink:href="#DejaVuSans-30"/>
      </g>
     </g>
    </g>
    <g id="text_12">
     <!-- Fraction of function,target pairs -->
     <defs>
      <path d="M 9.8125 72.90625 
L 51.703125 72.90625 
L 51.703125 64.59375 
L 19.671875 64.59375 
L 19.671875 43.109375 
L 48.578125 43.109375 
L 48.578125 34.8125 
L 19.671875 34.8125 
L 19.671875 0 
L 9.8125 0 
z
" id="DejaVuSans-46"/>
      <path d="M 41.109375 46.296875 
Q 39.59375 47.171875 37.8125 47.578125 
Q 36.03125 48 33.890625 48 
Q 26.265625 48 22.1875 43.046875 
Q 18.109375 38.09375 18.109375 28.8125 
L 18.109375 0 
L 9.078125 0 
L 9.078125 54.6875 
L 18.109375 54.6875 
L 18.109375 46.1875 
Q 20.953125 51.171875 25.484375 53.578125 
Q 30.03125 56 36.53125 56 
Q 37.453125 56 38.578125 55.875 
Q 39.703125 55.765625 41.0625 55.515625 
z
" id="DejaVuSans-72"/>
      <path d="M 48.78125 52.59375 
L 48.78125 44.1875 
Q 44.96875 46.296875 41.140625 47.34375 
Q 37.3125 48.390625 33.40625 48.390625 
Q 24.65625 48.390625 19.8125 42.84375 
Q 14.984375 37.3125 14.984375 27.296875 
Q 14.984375 17.28125 19.8125 11.734375 
Q 24.65625 6.203125 33.40625 6.203125 
Q 37.3125 6.203125 41.140625 7.25 
Q 44.96875 8.296875 48.78125 10.40625 
L 48.78125 2.09375 
Q 45.015625 0.34375 40.984375 -0.53125 
Q 36.96875 -1.421875 32.421875 -1.421875 
Q 20.0625 -1.421875 12.78125 6.34375 
Q 5.515625 14.109375 5.515625 27.296875 
Q 5.515625 40.671875 12.859375 48.328125 
Q 20.21875 56 33.015625 56 
Q 37.15625 56 41.109375 55.140625 
Q 45.0625 54.296875 48.78125 52.59375 
z
" id="DejaVuSans-63"/>
      <path d="M 18.3125 70.21875 
L 18.3125 54.6875 
L 36.8125 54.6875 
L 36.8125 47.703125 
L 18.3125 47.703125 
L 18.3125 18.015625 
Q 18.3125 11.328125 20.140625 9.421875 
Q 21.96875 7.515625 27.59375 7.515625 
L 36.8125 7.515625 
L 36.8125 0 
L 27.59375 0 
Q 17.1875 0 13.234375 3.875 
Q 9.28125 7.765625 9.28125 18.015625 
L 9.28125 47.703125 
L 2.6875 47.703125 
L 2.6875 54.6875 
L 9.28125 54.6875 
L 9.28125 70.21875 
z
" id="DejaVuSans-74"/>
      <path d="M 8.5 21.578125 
L 8.5 54.6875 
L 17.484375 54.6875 
L 17.484375 21.921875 
Q 17.484375 14.15625 20.5 10.265625 
Q 23.53125 6.390625 29.59375 6.390625 
Q 36.859375 6.390625 41.078125 11.03125 
Q 45.3125 15.671875 45.3125 23.6875 
L 45.3125 54.6875 
L 54.296875 54.6875 
L 54.296875 0 
L 45.3125 0 
L 45.3125 8.40625 
Q 42.046875 3.421875 37.71875 1 
Q 33.40625 -1.421875 27.6875 -1.421875 
Q 18.265625 -1.421875 13.375 4.4375 
Q 8.5 10.296875 8.5 21.578125 
z
M 31.109375 56 
z
" id="DejaVuSans-75"/>
      <path d="M 11.71875 12.40625 
L 22.015625 12.40625 
L 22.015625 4 
L 14.015625 -11.625 
L 7.71875 -11.625 
L 11.71875 4 
z
" id="DejaVuSans-2c"/>
      <path d="M 18.109375 8.203125 
L 18.109375 -20.796875 
L 9.078125 -20.796875 
L 9.078125 54.6875 
L 18.109375 54.6875 
L 18.109375 46.390625 
Q 20.953125 51.265625 25.265625 53.625 
Q 29.59375 56 35.59375 56 
Q 45.5625 56 51.78125 48.09375 
Q 58.015625 40.1875 58.015625 27.296875 
Q 58.015625 14.40625 51.78125 6.484375 
Q 45.5625 -1.421875 35.59375 -1.421875 
Q 29.59375 -1.421875 25.265625 0.953125 
Q 20.953125 3.328125 18.109375 8.203125 
z
M 48.6875 27.296875 
Q 48.6875 37.203125 44.609375 42.84375 
Q 40.53125 48.484375 33.40625 48.484375 
Q 26.265625 48.484375 22.1875 42.84375 
Q 18.109375 37.203125 18.109375 27.296875 
Q 18.109375 17.390625 22.1875 11.75 
Q 26.265625 6.109375 33.40625 6.109375 
Q 40.53125 6.109375 44.609375 11.75 
Q 48.6875 17.390625 48.6875 27.296875 
z
" id="DejaVuSans-70"/>
     </defs>
     <g transform="translate(16.139531 294.999375)rotate(-90)scale(0.17 -0.17)">
      <use xlink:href="#DejaVuSans-46"/>
      <use x="57.410156" xlink:href="#DejaVuSans-72"/>
      <use x="98.523438" xlink:href="#DejaVuSans-61"/>
      <use x="159.802734" xlink:href="#DejaVuSans-63"/>
      <use x="214.783203" xlink:href="#DejaVuSans-74"/>
      <use x="253.992188" xlink:href="#DejaVuSans-69"/>
      <use x="281.775391" xlink:href="#DejaVuSans-6f"/>
      <use x="342.957031" xlink:href="#DejaVuSans-6e"/>
      <use x="406.335938" xlink:href="#DejaVuSans-20"/>
      <use x="438.123047" xlink:href="#DejaVuSans-6f"/>
      <use x="499.304688" xlink:href="#DejaVuSans-66"/>
      <use x="534.509766" xlink:href="#DejaVuSans-20"/>
      <use x="566.296875" xlink:href="#DejaVuSans-66"/>
      <use x="601.501953" xlink:href="#DejaVuSans-75"/>
      <use x="664.880859" xlink:href="#DejaVuSans-6e"/>
      <use x="728.259766" xlink:href="#DejaVuSans-63"/>
      <use x="783.240234" xlink:href="#DejaVuSans-74"/>
      <use x="822.449219" xlink:href="#DejaVuSans-69"/>
      <use x="850.232422" xlink:href="#DejaVuSans-6f"/>
      <use x="911.414062" xlink:href="#DejaVuSans-6e"/>
      <use x="974.792969" xlink:href="#DejaVuSans-2c"/>
      <use x="1006.580078" xlink:href="#DejaVuSans-74"/>
      <use x="1045.789062" xlink:href="#DejaVuSans-61"/>
      <use x="1107.068359" xlink:href="#DejaVuSans-72"/>
      <use x="1148.166016" xlink:href="#DejaVuSans-67"/>
      <use x="1211.642578" xlink:href="#DejaVuSans-65"/>
      <use x="1273.166016" xlink:href="#DejaVuSans-74"/>
      <use x="1312.375" xlink:href="#DejaVuSans-20"/>
      <use x="1344.162109" xlink:href="#DejaVuSans-70"/>
      <use x="1407.638672" xlink:href="#DejaVuSans-61"/>
      <use x="1468.917969" xlink:href="#DejaVuSans-69"/>
      <use x="1496.701172" xlink:href="#DejaVuSans-72"/>
      <use x="1537.814453" xlink:href="#DejaVuSans-73"/>
     </g>
    </g>
   </g>
   <g id="line2d_41">
    <defs>
     <path d="M 0 1.5 
C 0.397805 1.5 0.77937 1.341951 1.06066 1.06066 
C 1.341951 0.77937 1.5 0.397805 1.5 0 
C 1.5 -0.397805 1.341951 -0.77937 1.06066 -1.06066 
C 0.77937 -1.341951 0.397805 -1.5 0 -1.5 
C -0.397805 -1.5 -0.77937 -1.341951 -1.06066 -1.06066 
C -1.341951 -0.77937 -1.5 -0.397805 -1.5 0 
C -1.5 0.397805 -1.341951 0.77937 -1.06066 1.06066 
C -0.77937 1.341951 -0.397805 1.5 0 1.5 
z
" id="md7702652c1" style="stroke:#f5deb3;"/>
    </defs>
    <g>
     <use style="fill:#f5deb3;stroke:#f5deb3;" x="201.56107" xlink:href="#md7702652c1" y="27.513663"/>
     <use style="fill:#f5deb3;stroke:#f5deb3;" x="201.56107" xlink:href="#md7702652c1" y="27.513663"/>
    </g>
   </g>
   <g id="line2d_42">
    <defs>
     <path d="M 0 1.5 
C 0.397805 1.5 0.77937 1.341951 1.06066 1.06066 
C 1.341951 0.77937 1.5 0.397805 1.5 0 
C 1.5 -0.397805 1.341951 -0.77937 1.06066 -1.06066 
C 0.77937 -1.341951 0.397805 -1.5 0 -1.5 
C -0.397805 -1.5 -0.77937 -1.341951 -1.06066 -1.06066 
C -1.341951 -0.77937 -1.5 -0.397805 -1.5 0 
C -1.5 0.397805 -1.341951 0.77937 -1.06066 1.06066 
C -0.77937 1.341951 -0.397805 1.5 0 1.5 
z
" id="mb81121b17b" style="stroke:#000080;"/>
    </defs>
    <g>
     <use style="fill:#000080;stroke:#000080;" x="268.656649" xlink:href="#mb81121b17b" y="174.303025"/>
     <use style="fill:#000080;stroke:#000080;" x="268.656649" xlink:href="#mb81121b17b" y="174.303025"/>
    </g>
   </g>
   <g id="line2d_43">
    <path d="M 4.627463 294.88 
L 4.627463 277.055578 
L 16.541714 277.055578 
L 16.541714 275.482834 
L 23.511104 275.482834 
L 23.511104 272.861596 
L 32.291498 272.861596 
L 32.291498 271.8131 
L 35.425356 271.8131 
L 35.425356 271.288853 
L 38.074995 271.288853 
L 38.074995 270.764605 
L 40.370217 270.764605 
L 40.370217 270.240357 
L 44.205749 270.240357 
L 44.205749 269.716109 
L 51.175139 269.716109 
L 51.175139 269.191862 
L 53.326522 269.191862 
L 53.326522 268.667614 
L 94.077214 268.667614 
L 94.077214 268.143366 
L 98.832144 268.143366 
L 98.832144 267.619119 
L 103.777005 267.619119 
L 103.777005 267.094871 
L 112.089133 267.094871 
L 112.089133 266.570623 
L 113.700266 266.570623 
L 113.700266 266.046375 
L 115.200897 266.046375 
L 115.200897 265.522128 
L 115.691256 265.522128 
L 115.798351 263.949385 
L 118.440362 263.949385 
L 118.440362 263.425137 
L 119.740314 263.425137 
L 119.740314 262.900889 
L 121.493926 262.900889 
L 121.493926 262.376641 
L 122.570888 262.376641 
L 122.660646 261.328146 
L 123.085078 261.328146 
L 123.119979 260.279651 
L 124.380091 260.279651 
L 124.380091 259.755403 
L 126.265455 259.755403 
L 126.265455 259.231155 
L 126.496178 259.231155 
L 126.496178 258.18266 
L 127.470694 258.18266 
L 127.470694 257.658412 
L 127.937986 257.658412 
L 127.937986 257.134164 
L 128.212383 257.134164 
L 128.212383 256.609917 
L 129.630036 256.609917 
L 129.630036 256.085669 
L 130.17053 256.085669 
L 130.239792 255.037173 
L 130.559378 255.037173 
L 130.638354 253.988678 
L 130.784069 253.988678 
L 130.784069 253.46443 
L 131.224827 253.46443 
L 131.224827 252.940182 
L 131.969962 252.940182 
L 131.969962 252.415935 
L 132.259201 252.415935 
L 132.340954 250.843192 
L 133.079291 250.843192 
L 133.079291 249.794696 
L 133.843356 249.794696 
L 133.843356 249.270448 
L 134.148898 249.270448 
L 134.148898 248.746201 
L 134.574897 248.746201 
L 134.655281 247.697705 
L 134.955604 247.697705 
L 134.955604 247.173458 
L 135.276571 247.173458 
L 135.276571 246.64921 
L 135.950722 246.64921 
L 136.000233 245.076467 
L 136.599426 245.076467 
L 136.639169 243.503724 
L 137.827708 243.503724 
L 137.827708 241.406733 
L 138.410429 241.406733 
L 138.517524 240.358237 
L 138.638097 240.358237 
L 138.638097 239.83399 
L 138.974042 239.83399 
L 138.974042 239.309742 
L 139.519758 239.309742 
L 139.519758 238.261246 
L 140.048681 238.261246 
L 140.048681 237.736999 
L 140.561812 237.736999 
L 140.58076 236.688503 
L 141.060069 236.688503 
L 141.060069 236.164255 
L 141.544287 236.164255 
L 141.544287 235.640008 
L 142.365863 235.640008 
L 142.473629 234.591512 
L 142.920112 234.591512 
L 142.991582 233.018769 
L 143.06822 233.018769 
L 143.06822 232.494521 
L 143.621786 232.494521 
L 143.621786 231.970274 
L 143.779723 231.970274 
L 143.779723 231.446026 
L 144.214377 231.446026 
L 144.214377 230.921778 
L 144.493131 230.921778 
L 144.598384 229.349035 
L 144.683118 229.349035 
L 144.792158 228.30054 
L 146.127269 228.30054 
L 146.127269 227.252044 
L 146.43535 227.252044 
L 146.489148 225.679301 
L 146.569532 225.679301 
L 146.569532 225.155053 
L 146.843566 225.155053 
L 146.843566 224.630806 
L 147.190823 224.630806 
L 147.190823 224.106558 
L 147.694725 224.106558 
L 147.694725 223.58231 
L 147.864973 223.58231 
L 147.864973 222.533815 
L 148.192385 222.533815 
L 148.192385 222.009567 
L 148.513678 222.009567 
L 148.513678 221.485319 
L 148.829074 221.485319 
L 148.829074 220.961072 
L 149.165624 220.961072 
L 149.165624 220.436824 
L 149.741959 220.436824 
L 149.741959 219.912576 
L 150.035789 219.912576 
L 150.035789 219.388328 
L 150.296009 219.388328 
L 150.296009 218.864081 
L 150.524054 218.864081 
L 150.524054 218.339833 
L 151.163317 218.339833 
L 151.163317 217.815585 
L 151.434009 217.815585 
L 151.434009 217.291338 
L 152.221413 217.291338 
L 152.221413 216.76709 
L 152.358756 216.76709 
L 152.358756 216.242842 
L 152.472904 216.242842 
L 152.472904 215.718594 
L 153.181782 215.718594 
L 153.181782 215.194347 
L 153.695627 215.194347 
L 153.695627 214.670099 
L 154.385053 214.670099 
L 154.38788 213.621604 
L 157.484002 213.621604 
L 157.484002 213.097356 
L 169.771934 213.097356 
L 169.771934 212.573108 
L 170.117296 212.573108 
L 170.117296 212.04886 
L 170.524544 212.04886 
L 170.524544 211.524613 
L 170.922366 211.524613 
L 170.922366 211.000365 
L 171.443757 211.000365 
L 171.443757 210.476117 
L 172.020888 210.476117 
L 172.020888 209.427622 
L 173.043854 209.427622 
L 173.043854 208.903374 
L 173.570462 208.903374 
L 173.570462 208.379126 
L 174.224653 208.379126 
L 174.224653 207.854879 
L 178.159748 207.854879 
L 178.159748 207.330631 
L 178.93614 207.330631 
L 179.044245 206.282136 
L 179.205139 206.282136 
L 179.205139 205.757888 
L 179.626967 205.757888 
L 179.626967 205.23364 
L 180.015791 205.23364 
L 180.03869 204.185145 
L 180.240912 204.185145 
L 180.341137 203.136649 
L 180.391032 203.136649 
L 180.391032 202.612401 
L 180.638354 202.612401 
L 180.736295 201.563906 
L 180.762522 201.563906 
L 180.762522 201.039658 
L 181.453589 201.039658 
L 181.453589 200.515411 
L 181.606875 200.515411 
L 181.627751 199.466915 
L 182.405593 199.466915 
L 182.405593 198.942667 
L 182.586319 198.942667 
L 182.586319 198.41842 
L 183.483321 198.41842 
L 183.483321 197.894172 
L 187.25088 197.894172 
L 187.25088 197.369924 
L 187.476282 197.369924 
L 187.476282 196.845677 
L 188.40736 196.845677 
L 188.40736 196.321429 
L 189.141505 196.321429 
L 189.141505 195.797181 
L 190.800842 195.797181 
L 190.800842 195.272933 
L 190.930859 195.272933 
L 190.930859 194.748686 
L 191.095017 194.748686 
L 191.172688 193.70019 
L 194.675076 193.70019 
L 194.675076 193.175943 
L 198.493237 193.175943 
L 198.493237 192.651695 
L 200.83272 192.651695 
L 200.83272 192.127447 
L 201.687817 192.127447 
L 201.687817 191.603199 
L 203.07363 191.603199 
L 203.07363 191.078952 
L 206.381904 191.078952 
L 206.381904 190.554704 
L 213.999375 190.554704 
L 213.999375 190.030456 
L 214.753289 190.030456 
L 214.766781 188.981961 
L 215.271779 188.981961 
L 215.271779 188.457713 
L 215.945929 188.457713 
L 216.031972 187.409218 
L 216.656668 187.409218 
L 216.656668 186.88497 
L 219.276464 186.88497 
L 219.276464 186.360722 
L 219.43292 186.360722 
L 219.43292 185.836474 
L 220.270577 185.836474 
L 220.270577 185.312227 
L 223.538895 185.312227 
L 223.538895 184.787979 
L 226.508212 184.787979 
L 226.508212 184.263731 
L 229.298949 184.263731 
L 229.298949 183.739484 
L 232.339051 183.739484 
L 232.339051 183.215236 
L 232.945423 183.215236 
L 232.945423 182.690988 
L 233.866418 182.690988 
L 233.866418 182.16674 
L 237.192605 182.16674 
L 237.192605 181.642493 
L 237.523586 181.642493 
L 237.523586 181.118245 
L 237.739865 181.118245 
L 237.739865 180.593997 
L 238.38033 180.593997 
L 238.38033 180.06975 
L 239.168654 180.06975 
L 239.168654 179.545502 
L 243.47379 179.545502 
L 243.47379 179.021254 
L 244.135757 179.021254 
L 244.135757 178.497006 
L 251.086411 178.497006 
L 251.086411 177.972759 
L 252.802438 177.972759 
L 252.802438 177.448511 
L 252.996811 177.448511 
L 252.996811 176.924263 
L 255.529251 176.924263 
L 255.539948 175.875768 
L 260.716615 175.875768 
L 260.716615 175.35152 
L 266.21161 175.35152 
L 266.21161 174.827272 
L 268.656649 174.827272 
L 268.656649 174.303025 
L 333.168 174.303025 
L 333.168 174.303025 
" style="fill:none;stroke:#000080;stroke-linecap:square;stroke-width:1.5;"/>
   </g>
   <g id="line2d_44">
    <defs>
     <path d="M 0 6 
C 1.591219 6 3.117479 5.367802 4.242641 4.242641 
C 5.367802 3.117479 6 1.591219 6 0 
C 6 -1.591219 5.367802 -3.117479 4.242641 -4.242641 
C 3.117479 -5.367802 1.591219 -6 0 -6 
C -1.591219 -6 -3.117479 -5.367802 -4.242641 -4.242641 
C -5.367802 -3.117479 -6 -1.591219 -6 0 
C -6 1.591219 -5.367802 3.117479 -4.242641 4.242641 
C -3.117479 5.367802 -1.591219 6 0 6 
z
" id="m574c64b44c" style="stroke:#000080;stroke-width:1.5;"/>
    </defs>
    <g>
     <use style="fill:none;stroke:#000080;stroke-width:1.5;" x="130.239792" xlink:href="#m574c64b44c" y="255.037173"/>
     <use style="fill:none;stroke:#000080;stroke-width:1.5;" x="198.493237" xlink:href="#m574c64b44c" y="192.651695"/>
     <use style="fill:none;stroke:#000080;stroke-width:1.5;" x="268.656649" xlink:href="#m574c64b44c" y="174.827272"/>
     <use style="fill:none;stroke:#000080;stroke-width:1.5;" x="268.656649" xlink:href="#m574c64b44c" y="174.303025"/>
     <use style="fill:none;stroke:#000080;stroke-width:1.5;" x="333.168" xlink:href="#m574c64b44c" y="174.303025"/>
    </g>
   </g>
   <g id="line2d_45">
    <path style="fill:none;stroke:#000080;stroke-linecap:square;stroke-width:1.5;"/>
    <g/>
   </g>
   <g id="line2d_46">
    <path clip-path="url(#p34a48bf9b4)" d="M 193.807116 193.70019 
" style="fill:none;stroke:#000080;stroke-linecap:square;stroke-width:1.5;"/>
    <defs>
     <path d="M -12 12 
L 12 -12 
M -12 -12 
L 12 12 
" id="m50960bd9bb" style="stroke:#000080;"/>
    </defs>
    <g clip-path="url(#p34a48bf9b4)">
     <use style="fill:#000080;stroke:#000080;" x="193.807116" xlink:href="#m50960bd9bb" y="193.70019"/>
    </g>
   </g>
   <g id="line2d_47">
    <defs>
     <path d="M 0 1.5 
C 0.397805 1.5 0.77937 1.341951 1.06066 1.06066 
C 1.341951 0.77937 1.5 0.397805 1.5 0 
C 1.5 -0.397805 1.341951 -0.77937 1.06066 -1.06066 
C 0.77937 -1.341951 0.397805 -1.5 0 -1.5 
C -0.397805 -1.5 -0.77937 -1.341951 -1.06066 -1.06066 
C -1.341951 -0.77937 -1.5 -0.397805 -1.5 0 
C -1.5 0.397805 -1.341951 0.77937 -1.06066 1.06066 
C -0.77937 1.341951 -0.397805 1.5 0 1.5 
z
" id="m712aba560e" style="stroke:#ff00ff;"/>
    </defs>
    <g>
     <use style="fill:#ff00ff;stroke:#ff00ff;" x="235.776897" xlink:href="#m712aba560e" y="27.513663"/>
     <use style="fill:#ff00ff;stroke:#ff00ff;" x="235.776897" xlink:href="#m712aba560e" y="27.513663"/>
    </g>
   </g>
   <g id="line2d_48">
    <path d="M 4.627463 294.88 
L 4.627463 274.434339 
L 16.541714 274.434339 
L 16.541714 273.385844 
L 23.511104 273.385844 
L 23.511104 271.8131 
L 28.455965 271.8131 
L 28.455965 271.288853 
L 35.425356 271.288853 
L 35.425356 270.764605 
L 40.370217 270.764605 
L 40.370217 269.716109 
L 44.205749 269.716109 
L 44.205749 269.191862 
L 47.339607 269.191862 
L 47.339607 268.667614 
L 48.715431 268.667614 
L 48.715431 268.143366 
L 53.326522 268.143366 
L 53.326522 267.619119 
L 65.240773 267.619119 
L 65.240773 267.094871 
L 66.223248 267.094871 
L 66.223248 266.570623 
L 80.162028 266.570623 
L 80.162028 266.046375 
L 82.902373 266.046375 
L 82.902373 265.522128 
L 85.884788 265.522128 
L 85.884788 264.99788 
L 87.202009 264.99788 
L 87.202009 264.473632 
L 94.906853 264.473632 
L 94.906853 263.949385 
L 98.175173 263.949385 
L 98.175173 263.425137 
L 99.395756 263.425137 
L 99.395756 262.900889 
L 114.495768 262.900889 
L 114.495768 262.376641 
L 118.046801 262.376641 
L 118.046801 261.852394 
L 120.200938 261.852394 
L 120.200938 261.328146 
L 122.114929 261.328146 
L 122.114929 260.803898 
L 123.050106 260.803898 
L 123.050106 260.279651 
L 127.470694 260.279651 
L 127.470694 259.755403 
L 128.17345 259.755403 
L 128.251227 258.706907 
L 128.923388 258.706907 
L 128.923388 258.18266 
L 129.268157 258.18266 
L 129.268157 257.658412 
L 130.06611 257.658412 
L 130.06611 257.134164 
L 133.992176 257.134164 
L 133.992176 256.609917 
L 134.646368 256.609917 
L 134.646368 256.085669 
L 134.806098 256.085669 
L 134.88541 254.512926 
L 135.759597 254.512926 
L 135.759597 253.988678 
L 136.13157 253.988678 
L 136.13157 253.46443 
L 137.746017 253.46443 
L 137.746017 252.940182 
L 138.581462 252.940182 
L 138.581462 252.415935 
L 140.184868 252.415935 
L 140.184868 251.891687 
L 140.422222 251.891687 
L 140.422222 251.367439 
L 140.769096 251.367439 
L 140.769096 250.843192 
L 141.182408 250.843192 
L 141.182408 250.318944 
L 141.591967 250.318944 
L 141.591967 249.794696 
L 142.050045 249.794696 
L 142.050045 249.270448 
L 142.18857 249.270448 
L 142.18857 248.746201 
L 142.936632 248.746201 
L 142.936632 248.221953 
L 143.155389 248.221953 
L 143.155389 247.697705 
L 143.7902 247.697705 
L 143.847714 246.64921 
L 144.013939 246.64921 
L 144.013939 246.124962 
L 144.608374 246.124962 
L 144.608374 245.600714 
L 144.821777 245.600714 
L 144.821777 245.076467 
L 145.887895 245.076467 
L 145.887895 244.552219 
L 146.19115 244.552219 
L 146.19115 244.027971 
L 146.367864 244.027971 
L 146.367864 243.503724 
L 147.199415 243.503724 
L 147.246595 242.455228 
L 147.690552 242.455228 
L 147.690552 241.93098 
L 148.082579 241.93098 
L 148.082579 241.406733 
L 148.249047 241.406733 
L 148.297466 240.358237 
L 148.493772 240.358237 
L 148.597031 239.309742 
L 148.789965 239.309742 
L 148.829074 238.261246 
L 149.142624 238.261246 
L 149.142624 237.736999 
L 149.427935 237.736999 
L 149.427935 237.212751 
L 149.838006 237.212751 
L 149.838006 236.688503 
L 150.137454 236.688503 
L 150.137454 236.164255 
L 150.299596 236.164255 
L 150.299596 235.640008 
L 150.499258 235.640008 
L 150.499258 235.11576 
L 150.629917 235.11576 
L 150.707138 234.067265 
L 151.204193 234.067265 
L 151.204193 233.543017 
L 151.766488 233.543017 
L 151.766488 233.018769 
L 152.535993 233.018769 
L 152.535993 232.494521 
L 152.683347 232.494521 
L 152.758108 230.921778 
L 152.90666 230.921778 
L 152.958966 229.873283 
L 153.38677 229.873283 
L 153.38677 229.349035 
L 153.725034 229.349035 
L 153.748524 228.30054 
L 153.877147 228.30054 
L 153.972987 227.252044 
L 154.38788 227.252044 
L 154.38788 226.727797 
L 154.500593 226.727797 
L 154.601406 225.679301 
L 154.993391 225.679301 
L 154.993391 225.155053 
L 155.156369 225.155053 
L 155.156369 224.630806 
L 155.504275 224.630806 
L 155.504275 224.106558 
L 155.782831 224.106558 
L 155.782831 223.58231 
L 156.515133 223.58231 
L 156.624694 221.485319 
L 156.817217 221.485319 
L 156.817217 220.961072 
L 157.327461 220.961072 
L 157.367918 219.912576 
L 157.509955 219.912576 
L 157.509955 219.388328 
L 157.866922 219.388328 
L 157.866922 218.864081 
L 158.048376 218.864081 
L 158.150886 217.291338 
L 158.322638 217.291338 
L 158.331631 216.242842 
L 158.528279 216.242842 
L 158.528279 215.718594 
L 158.702919 215.718594 
L 158.702919 215.194347 
L 158.919296 215.194347 
L 158.967012 214.145851 
L 159.312233 214.145851 
L 159.411718 212.573108 
L 159.648575 212.573108 
L 159.648575 212.04886 
L 159.951893 212.04886 
L 159.951893 211.524613 
L 160.195592 211.524613 
L 160.270041 210.476117 
L 160.741372 210.476117 
L 160.786243 209.427622 
L 160.972278 209.427622 
L 161.058793 208.379126 
L 161.154413 208.379126 
L 161.154413 207.854879 
L 161.524197 207.854879 
L 161.555898 206.806383 
L 161.659915 206.806383 
L 161.687669 205.757888 
L 162.100509 205.757888 
L 162.190521 204.709392 
L 162.388678 204.709392 
L 162.425912 203.136649 
L 162.679078 203.136649 
L 162.679078 202.612401 
L 162.981809 202.612401 
L 162.981809 202.088154 
L 163.196521 202.088154 
L 163.196521 201.563906 
L 163.328106 201.563906 
L 163.436996 199.991163 
L 163.447012 199.991163 
L 163.447012 199.466915 
L 163.619714 199.466915 
L 163.637879 197.894172 
L 164.014985 197.894172 
L 164.014985 197.369924 
L 164.177302 197.369924 
L 164.177302 196.845677 
L 164.303203 196.845677 
L 164.413996 195.797181 
L 164.432918 195.797181 
L 164.432918 195.272933 
L 164.672359 195.272933 
L 164.726667 194.224438 
L 164.93455 194.224438 
L 164.93455 193.70019 
L 165.138437 193.70019 
L 165.230456 192.651695 
L 165.262021 192.651695 
L 165.262021 192.127447 
L 165.384722 192.127447 
L 165.42047 191.078952 
L 165.662775 191.078952 
L 165.662775 190.554704 
L 165.850998 190.554704 
L 165.8539 189.506209 
L 165.991184 189.506209 
L 166.028566 188.457713 
L 166.234147 188.457713 
L 166.28516 187.409218 
L 166.419056 187.409218 
L 166.419056 186.88497 
L 166.646391 186.88497 
L 166.754123 185.312227 
L 166.824199 185.312227 
L 166.824199 184.787979 
L 166.978456 184.787979 
L 166.978456 184.263731 
L 167.131341 184.263731 
L 167.131341 183.739484 
L 167.357484 183.739484 
L 167.437061 182.690988 
L 167.522856 182.690988 
L 167.574128 181.642493 
L 167.775106 181.642493 
L 167.87859 179.545502 
L 168.157462 179.545502 
L 168.157462 179.021254 
L 168.355535 179.021254 
L 168.45684 177.972759 
L 168.758446 177.972759 
L 168.831808 176.400016 
L 168.984856 176.400016 
L 169.037982 174.827272 
L 169.113764 174.827272 
L 169.217869 173.778777 
L 169.346231 173.778777 
L 169.446588 172.730281 
L 169.473642 172.730281 
L 169.473642 172.206034 
L 169.587277 172.206034 
L 169.673465 170.109043 
L 169.824989 170.109043 
L 169.868694 168.5363 
L 169.967196 168.5363 
L 170.07649 166.963557 
L 170.163653 166.963557 
L 170.192985 165.915061 
L 170.451415 165.915061 
L 170.527861 164.866566 
L 170.796584 164.866566 
L 170.862843 163.81807 
L 171.011803 163.81807 
L 171.047234 162.769575 
L 171.823139 162.769575 
L 171.858984 161.721079 
L 171.992487 161.721079 
L 171.992487 161.196832 
L 172.190315 161.196832 
L 172.206364 160.148336 
L 172.673195 160.148336 
L 172.677098 159.099841 
L 172.790856 159.099841 
L 172.824741 158.051345 
L 172.915416 158.051345 
L 173.010399 156.478602 
L 173.035258 156.478602 
L 173.090582 155.430107 
L 173.148576 155.430107 
L 173.148576 154.905859 
L 173.273406 154.905859 
L 173.384234 153.333116 
L 173.398271 153.333116 
L 173.398271 152.808868 
L 173.569536 152.808868 
L 173.619476 151.236125 
L 173.761106 151.236125 
L 173.820536 149.663382 
L 174.067024 149.663382 
L 174.137061 148.614886 
L 174.259388 148.614886 
L 174.368477 145.993648 
L 174.38085 145.993648 
L 174.460178 144.420905 
L 174.673422 144.420905 
L 174.716795 142.848162 
L 174.815278 142.848162 
L 174.917481 141.275418 
L 175.01823 141.275418 
L 175.01823 140.751171 
L 175.17416 140.751171 
L 175.17416 140.226923 
L 175.467747 140.226923 
L 175.552956 138.129932 
L 175.580991 138.129932 
L 175.650878 137.081437 
L 175.793062 137.081437 
L 175.793062 136.557189 
L 175.948602 136.557189 
L 175.948602 136.032941 
L 176.068344 136.032941 
L 176.124313 134.984446 
L 176.226979 134.984446 
L 176.261066 133.411703 
L 176.370791 133.411703 
L 176.370791 132.887455 
L 176.523552 132.887455 
L 176.523552 132.363207 
L 176.722061 132.363207 
L 176.722061 131.838959 
L 176.929732 131.838959 
L 176.992079 130.266216 
L 177.091215 130.266216 
L 177.184529 128.169225 
L 177.284057 128.169225 
L 177.322813 127.12073 
L 177.397842 127.12073 
L 177.425246 125.547987 
L 177.562349 125.547987 
L 177.645843 123.975244 
L 177.761621 123.975244 
L 177.868693 121.354005 
L 177.924855 121.354005 
L 177.924855 120.829757 
L 178.042346 120.829757 
L 178.096521 119.257014 
L 178.219209 119.257014 
L 178.308721 117.684271 
L 178.398468 117.684271 
L 178.461292 116.635776 
L 178.534991 116.635776 
L 178.575876 115.58728 
L 178.832807 115.58728 
L 178.832807 115.063032 
L 178.9524 115.063032 
L 178.9524 114.538785 
L 179.139622 114.538785 
L 179.151675 113.490289 
L 179.267082 113.490289 
L 179.267082 112.966042 
L 183.731751 112.966042 
L 183.731751 112.441794 
L 184.07192 112.441794 
L 184.103562 111.393298 
L 184.472413 111.393298 
L 184.574757 109.820555 
L 184.733672 109.820555 
L 184.733672 109.296308 
L 184.857545 109.296308 
L 184.857545 108.77206 
L 185.017685 108.77206 
L 185.023393 107.723564 
L 185.159366 107.723564 
L 185.204609 106.675069 
L 185.319537 106.675069 
L 185.319537 106.150821 
L 185.497674 106.150821 
L 185.564635 104.578078 
L 185.669861 104.578078 
L 185.669861 104.05383 
L 185.852129 104.05383 
L 185.852129 103.529583 
L 185.972276 103.529583 
L 185.972276 103.005335 
L 186.257956 103.005335 
L 186.320703 101.432592 
L 186.450767 101.432592 
L 186.558987 100.384096 
L 186.562032 100.384096 
L 186.65572 98.811353 
L 186.926521 98.811353 
L 186.981361 97.23861 
L 187.21742 97.23861 
L 187.21742 96.714362 
L 187.496066 96.714362 
L 187.496066 96.190115 
L 187.847524 96.190115 
L 187.944112 95.141619 
L 187.972983 95.141619 
L 188.064089 94.093124 
L 188.364334 94.093124 
L 188.379601 93.044628 
L 188.495032 93.044628 
L 188.573363 90.947637 
L 188.780646 90.947637 
L 188.780646 90.42339 
L 188.902156 90.42339 
L 188.902156 89.899142 
L 189.114159 89.899142 
L 189.204276 88.326399 
L 189.481372 88.326399 
L 189.537429 86.753656 
L 190.055907 86.753656 
L 190.109064 84.656665 
L 190.17616 84.656665 
L 190.17616 84.132417 
L 190.436403 84.132417 
L 190.436403 83.608169 
L 190.638297 83.608169 
L 190.638297 83.083922 
L 190.839205 83.083922 
L 190.945358 82.035426 
L 190.99214 82.035426 
L 191.089671 80.462683 
L 191.191635 80.462683 
L 191.236428 79.414188 
L 191.358599 79.414188 
L 191.467814 75.744454 
L 191.481213 75.744454 
L 191.528517 73.123215 
L 191.696772 73.123215 
L 191.775951 72.074719 
L 192.005621 72.074719 
L 192.005621 71.550472 
L 192.130644 71.550472 
L 192.189368 70.501976 
L 192.27318 70.501976 
L 192.305906 69.453481 
L 192.471073 69.453481 
L 192.47169 68.404985 
L 192.642915 68.404985 
L 192.642915 67.880738 
L 192.803681 67.880738 
L 192.803681 67.35649 
L 192.924854 67.35649 
L 192.932361 66.307995 
L 193.054124 66.307995 
L 193.15311 64.211004 
L 193.441739 64.211004 
L 193.510098 62.638261 
L 193.574426 62.638261 
L 193.574426 62.114013 
L 195.792541 62.114013 
L 195.850657 61.065517 
L 196.39673 61.065517 
L 196.39673 60.54127 
L 196.706356 60.54127 
L 196.706356 60.017022 
L 196.926225 60.017022 
L 196.926225 59.492774 
L 197.347256 59.492774 
L 197.347256 58.968526 
L 197.572656 58.968526 
L 197.648126 57.920031 
L 197.721903 57.920031 
L 197.721903 57.395783 
L 198.152718 57.395783 
L 198.152718 56.871536 
L 198.284943 56.871536 
L 198.321846 55.82304 
L 198.664011 55.82304 
L 198.69367 54.774545 
L 198.87289 54.774545 
L 198.87289 54.250297 
L 199.09563 54.250297 
L 199.193104 53.201802 
L 199.445294 53.201802 
L 199.445294 52.677554 
L 199.845917 52.677554 
L 199.845917 52.153306 
L 200.05568 52.153306 
L 200.134451 50.580563 
L 200.180398 50.580563 
L 200.289352 49.532068 
L 200.468259 49.532068 
L 200.53668 48.483572 
L 200.936687 48.483572 
L 201.039091 46.910829 
L 203.190067 46.910829 
L 203.190067 46.386581 
L 203.724529 46.386581 
L 203.724529 45.862334 
L 203.838086 45.862334 
L 203.947734 44.28959 
L 204.082131 44.28959 
L 204.082131 43.765343 
L 204.279062 43.765343 
L 204.319819 42.716847 
L 204.604732 42.716847 
L 204.604732 42.192599 
L 204.717932 42.192599 
L 204.717932 41.668352 
L 205.323169 41.668352 
L 205.323169 41.144104 
L 205.581268 41.144104 
L 205.67551 40.095609 
L 205.864861 40.095609 
L 205.864861 39.571361 
L 206.079977 39.571361 
L 206.099527 37.998618 
L 206.311467 37.998618 
L 206.311467 37.47437 
L 207.555894 37.47437 
L 207.555894 36.950122 
L 207.820934 36.950122 
L 207.820934 36.425875 
L 209.346292 36.425875 
L 209.346292 35.901627 
L 210.047458 35.901627 
L 210.047458 35.377379 
L 210.311195 35.377379 
L 210.311195 34.853131 
L 212.822079 34.853131 
L 212.822079 34.328884 
L 216.281602 34.328884 
L 216.335928 31.183397 
L 216.414608 31.183397 
L 216.414608 30.65915 
L 218.521406 30.65915 
L 218.521406 30.134902 
L 222.599675 30.134902 
L 222.677522 29.086407 
L 228.634686 29.086407 
L 228.691732 28.037911 
L 235.776897 28.037911 
L 235.776897 27.513663 
L 333.168 27.513663 
L 333.168 27.513663 
" style="fill:none;stroke:#ff00ff;stroke-linecap:square;stroke-width:1.5;"/>
   </g>
   <g id="line2d_49">
    <defs>
     <path d="M -0 8.485281 
L 5.091169 0 
L 0 -8.485281 
L -5.091169 -0 
z
" id="m8218ddc519" style="stroke:#ff00ff;stroke-linejoin:miter;stroke-width:1.5;"/>
    </defs>
    <g>
     <use style="fill:none;stroke:#ff00ff;stroke-linejoin:miter;stroke-width:1.5;" x="157.509955" xlink:href="#m8218ddc519" y="219.388328"/>
     <use style="fill:none;stroke:#ff00ff;stroke-linejoin:miter;stroke-width:1.5;" x="185.204609" xlink:href="#m8218ddc519" y="107.199317"/>
     <use style="fill:none;stroke:#ff00ff;stroke-linejoin:miter;stroke-width:1.5;" x="235.776897" xlink:href="#m8218ddc519" y="28.037911"/>
     <use style="fill:none;stroke:#ff00ff;stroke-linejoin:miter;stroke-width:1.5;" x="235.776897" xlink:href="#m8218ddc519" y="27.513663"/>
     <use style="fill:none;stroke:#ff00ff;stroke-linejoin:miter;stroke-width:1.5;" x="333.168" xlink:href="#m8218ddc519" y="27.513663"/>
    </g>
   </g>
   <g id="line2d_50">
    <path style="fill:none;stroke:#ff00ff;stroke-linecap:square;stroke-width:1.5;"/>
    <g/>
   </g>
   <g id="line2d_51">
    <path clip-path="url(#p34a48bf9b4)" d="M 183.731238 112.966042 
" style="fill:none;stroke:#ff00ff;stroke-linecap:square;stroke-width:1.5;"/>
    <defs>
     <path d="M -12 12 
L 12 -12 
M -12 -12 
L 12 12 
" id="mb3f181fe3d" style="stroke:#ff00ff;"/>
    </defs>
    <g clip-path="url(#p34a48bf9b4)">
     <use style="fill:#ff00ff;stroke:#ff00ff;" x="183.731238" xlink:href="#mb3f181fe3d" y="112.966042"/>
    </g>
   </g>
   <g id="line2d_52">
    <path d="M 333.168 174.303025 
L 363.64328 289.532673 
" style="fill:none;stroke:#000080;stroke-linecap:square;stroke-width:1.5;"/>
    <g>
     <use style="fill:none;stroke:#000080;stroke-width:1.5;" x="333.168" xlink:href="#m574c64b44c" y="174.303025"/>
     <use style="fill:none;stroke:#000080;stroke-width:1.5;" x="363.64328" xlink:href="#m574c64b44c" y="289.532673"/>
    </g>
   </g>
   <g id="line2d_53">
    <path d="M 333.168 27.513663 
L 363.64328 161.196832 
" style="fill:none;stroke:#ff00ff;stroke-linecap:square;stroke-width:1.5;"/>
    <g>
     <use style="fill:none;stroke:#ff00ff;stroke-linejoin:miter;stroke-width:1.5;" x="333.168" xlink:href="#m8218ddc519" y="27.513663"/>
     <use style="fill:none;stroke:#ff00ff;stroke-linejoin:miter;stroke-width:1.5;" x="363.64328" xlink:href="#m8218ddc519" y="161.196832"/>
    </g>
   </g>
   <g id="line2d_54">
    <path d="M 333.168 294.88 
L 333.168 27.513663 
" style="fill:none;stroke:#000000;stroke-linecap:square;stroke-width:1.5;"/>
   </g>
   <g id="patch_3">
    <path d="M 56.12 294.88 
L 56.12 24.84 
" style="fill:none;stroke:#000000;stroke-linecap:square;stroke-linejoin:miter;stroke-width:0.8;"/>
   </g>
   <g id="patch_4">
    <path d="M 333.168 294.88 
L 333.168 24.84 
" style="fill:none;stroke:#000000;stroke-linecap:square;stroke-linejoin:miter;stroke-width:0.8;"/>
   </g>
   <g id="patch_5">
    <path d="M 56.12 294.88 
L 333.168 294.88 
" style="fill:none;stroke:#000000;stroke-linecap:square;stroke-linejoin:miter;stroke-width:0.8;"/>
   </g>
   <g id="patch_6">
    <path d="M 56.12 24.84 
L 333.168 24.84 
" style="fill:none;stroke:#000000;stroke-linecap:square;stroke-linejoin:miter;stroke-width:0.8;"/>
   </g>
   <g id="text_13">
    <!-- CMA ES PPM -->
    <defs>
     <path d="M 64.40625 67.28125 
L 64.40625 56.890625 
Q 59.421875 61.53125 53.78125 63.8125 
Q 48.140625 66.109375 41.796875 66.109375 
Q 29.296875 66.109375 22.65625 58.46875 
Q 16.015625 50.828125 16.015625 36.375 
Q 16.015625 21.96875 22.65625 14.328125 
Q 29.296875 6.6875 41.796875 6.6875 
Q 48.140625 6.6875 53.78125 8.984375 
Q 59.421875 11.28125 64.40625 15.921875 
L 64.40625 5.609375 
Q 59.234375 2.09375 53.4375 0.328125 
Q 47.65625 -1.421875 41.21875 -1.421875 
Q 24.65625 -1.421875 15.125 8.703125 
Q 5.609375 18.84375 5.609375 36.375 
Q 5.609375 53.953125 15.125 64.078125 
Q 24.65625 74.21875 41.21875 74.21875 
Q 47.75 74.21875 53.53125 72.484375 
Q 59.328125 70.75 64.40625 67.28125 
z
" id="DejaVuSans-43"/>
     <path d="M 9.8125 72.90625 
L 24.515625 72.90625 
L 43.109375 23.296875 
L 61.8125 72.90625 
L 76.515625 72.90625 
L 76.515625 0 
L 66.890625 0 
L 66.890625 64.015625 
L 48.09375 14.015625 
L 38.1875 14.015625 
L 19.390625 64.015625 
L 19.390625 0 
L 9.8125 0 
z
" id="DejaVuSans-4d"/>
     <path d="M 34.1875 63.1875 
L 20.796875 26.90625 
L 47.609375 26.90625 
z
M 28.609375 72.90625 
L 39.796875 72.90625 
L 67.578125 0 
L 57.328125 0 
L 50.6875 18.703125 
L 17.828125 18.703125 
L 11.1875 0 
L 0.78125 0 
z
" id="DejaVuSans-41"/>
     <path d="M 9.8125 72.90625 
L 55.90625 72.90625 
L 55.90625 64.59375 
L 19.671875 64.59375 
L 19.671875 43.015625 
L 54.390625 43.015625 
L 54.390625 34.71875 
L 19.671875 34.71875 
L 19.671875 8.296875 
L 56.78125 8.296875 
L 56.78125 0 
L 9.8125 0 
z
" id="DejaVuSans-45"/>
     <path d="M 53.515625 70.515625 
L 53.515625 60.890625 
Q 47.90625 63.578125 42.921875 64.890625 
Q 37.9375 66.21875 33.296875 66.21875 
Q 25.25 66.21875 20.875 63.09375 
Q 16.5 59.96875 16.5 54.203125 
Q 16.5 49.359375 19.40625 46.890625 
Q 22.3125 44.4375 30.421875 42.921875 
L 36.375 41.703125 
Q 47.40625 39.59375 52.65625 34.296875 
Q 57.90625 29 57.90625 20.125 
Q 57.90625 9.515625 50.796875 4.046875 
Q 43.703125 -1.421875 29.984375 -1.421875 
Q 24.8125 -1.421875 18.96875 -0.25 
Q 13.140625 0.921875 6.890625 3.21875 
L 6.890625 13.375 
Q 12.890625 10.015625 18.65625 8.296875 
Q 24.421875 6.59375 29.984375 6.59375 
Q 38.421875 6.59375 43.015625 9.90625 
Q 47.609375 13.234375 47.609375 19.390625 
Q 47.609375 24.75 44.3125 27.78125 
Q 41.015625 30.8125 33.5 32.328125 
L 27.484375 33.5 
Q 16.453125 35.6875 11.515625 40.375 
Q 6.59375 45.0625 6.59375 53.421875 
Q 6.59375 63.09375 13.40625 68.65625 
Q 20.21875 74.21875 32.171875 74.21875 
Q 37.3125 74.21875 42.625 73.28125 
Q 47.953125 72.359375 53.515625 70.515625 
z
" id="DejaVuSans-53"/>
     <path d="M 19.671875 64.796875 
L 19.671875 37.40625 
L 32.078125 37.40625 
Q 38.96875 37.40625 42.71875 40.96875 
Q 46.484375 44.53125 46.484375 51.125 
Q 46.484375 57.671875 42.71875 61.234375 
Q 38.96875 64.796875 32.078125 64.796875 
z
M 9.8125 72.90625 
L 32.078125 72.90625 
Q 44.34375 72.90625 50.609375 67.359375 
Q 56.890625 61.8125 56.890625 51.125 
Q 56.890625 40.328125 50.609375 34.8125 
Q 44.34375 29.296875 32.078125 29.296875 
L 19.671875 29.296875 
L 19.671875 0 
L 9.8125 0 
z
" id="DejaVuSans-50"/>
    </defs>
    <g transform="translate(369.18424 294.223611)scale(0.17 -0.17)">
     <use xlink:href="#DejaVuSans-43"/>
     <use x="69.824219" xlink:href="#DejaVuSans-4d"/>
     <use x="156.103516" xlink:href="#DejaVuSans-41"/>
     <use x="224.511719" xlink:href="#DejaVuSans-20"/>
     <use x="256.298828" xlink:href="#DejaVuSans-45"/>
     <use x="319.482422" xlink:href="#DejaVuSans-53"/>
     <use x="382.958984" xlink:href="#DejaVuSans-20"/>
     <use x="414.746094" xlink:href="#DejaVuSans-50"/>
     <use x="475.048828" xlink:href="#DejaVuSans-50"/>
     <use x="535.351562" xlink:href="#DejaVuSans-4d"/>
    </g>
   </g>
   <g id="text_14">
    <!-- CMA ES CSA -->
    <g transform="translate(369.18424 165.887769)scale(0.17 -0.17)">
     <use xlink:href="#DejaVuSans-43"/>
     <use x="69.824219" xlink:href="#DejaVuSans-4d"/>
     <use x="156.103516" xlink:href="#DejaVuSans-41"/>
     <use x="224.511719" xlink:href="#DejaVuSans-20"/>
     <use x="256.298828" xlink:href="#DejaVuSans-45"/>
     <use x="319.482422" xlink:href="#DejaVuSans-53"/>
     <use x="382.958984" xlink:href="#DejaVuSans-20"/>
     <use x="414.746094" xlink:href="#DejaVuSans-43"/>
     <use x="484.570312" xlink:href="#DejaVuSans-53"/>
     <use x="548.0625" xlink:href="#DejaVuSans-41"/>
    </g>
   </g>
   <g id="text_15">
    <!-- best 2009 -->
    <defs>
     <path d="M 48.6875 27.296875 
Q 48.6875 37.203125 44.609375 42.84375 
Q 40.53125 48.484375 33.40625 48.484375 
Q 26.265625 48.484375 22.1875 42.84375 
Q 18.109375 37.203125 18.109375 27.296875 
Q 18.109375 17.390625 22.1875 11.75 
Q 26.265625 6.109375 33.40625 6.109375 
Q 40.53125 6.109375 44.609375 11.75 
Q 48.6875 17.390625 48.6875 27.296875 
z
M 18.109375 46.390625 
Q 20.953125 51.265625 25.265625 53.625 
Q 29.59375 56 35.59375 56 
Q 45.5625 56 51.78125 48.09375 
Q 58.015625 40.1875 58.015625 27.296875 
Q 58.015625 14.40625 51.78125 6.484375 
Q 45.5625 -1.421875 35.59375 -1.421875 
Q 29.59375 -1.421875 25.265625 0.953125 
Q 20.953125 3.328125 18.109375 8.203125 
L 18.109375 0 
L 9.078125 0 
L 9.078125 75.984375 
L 18.109375 75.984375 
z
" id="DejaVuSans-62"/>
     <path d="M 10.984375 1.515625 
L 10.984375 10.5 
Q 14.703125 8.734375 18.5 7.8125 
Q 22.3125 6.890625 25.984375 6.890625 
Q 35.75 6.890625 40.890625 13.453125 
Q 46.046875 20.015625 46.78125 33.40625 
Q 43.953125 29.203125 39.59375 26.953125 
Q 35.25 24.703125 29.984375 24.703125 
Q 19.046875 24.703125 12.671875 31.3125 
Q 6.296875 37.9375 6.296875 49.421875 
Q 6.296875 60.640625 12.9375 67.421875 
Q 19.578125 74.21875 30.609375 74.21875 
Q 43.265625 74.21875 49.921875 64.515625 
Q 56.59375 54.828125 56.59375 36.375 
Q 56.59375 19.140625 48.40625 8.859375 
Q 40.234375 -1.421875 26.421875 -1.421875 
Q 22.703125 -1.421875 18.890625 -0.6875 
Q 15.09375 0.046875 10.984375 1.515625 
z
M 30.609375 32.421875 
Q 37.25 32.421875 41.125 36.953125 
Q 45.015625 41.5 45.015625 49.421875 
Q 45.015625 57.28125 41.125 61.84375 
Q 37.25 66.40625 30.609375 66.40625 
Q 23.96875 66.40625 20.09375 61.84375 
Q 16.21875 57.28125 16.21875 49.421875 
Q 16.21875 41.5 20.09375 36.953125 
Q 23.96875 32.421875 30.609375 32.421875 
z
" id="DejaVuSans-39"/>
    </defs>
    <g transform="translate(369.18424 37.551928)scale(0.17 -0.17)">
     <use xlink:href="#DejaVuSans-62"/>
     <use x="63.476562" xlink:href="#DejaVuSans-65"/>
     <use x="125" xlink:href="#DejaVuSans-73"/>
     <use x="177.099609" xlink:href="#DejaVuSans-74"/>
     <use x="216.308594" xlink:href="#DejaVuSans-20"/>
     <use x="248.095703" xlink:href="#DejaVuSans-32"/>
     <use x="311.71875" xlink:href="#DejaVuSans-30"/>
     <use x="375.341797" xlink:href="#DejaVuSans-30"/>
     <use x="438.964844" xlink:href="#DejaVuSans-39"/>
    </g>
   </g>
   <g id="text_16">
    <!-- bbob f17, 20-D -->
    <defs>
     <path d="M 8.203125 72.90625 
L 55.078125 72.90625 
L 55.078125 68.703125 
L 28.609375 0 
L 18.3125 0 
L 43.21875 64.59375 
L 8.203125 64.59375 
z
" id="DejaVuSans-37"/>
     <path d="M 19.671875 64.796875 
L 19.671875 8.109375 
L 31.59375 8.109375 
Q 46.6875 8.109375 53.6875 14.9375 
Q 60.6875 21.78125 60.6875 36.53125 
Q 60.6875 51.171875 53.6875 57.984375 
Q 46.6875 64.796875 31.59375 64.796875 
z
M 9.8125 72.90625 
L 30.078125 72.90625 
Q 51.265625 72.90625 61.171875 64.09375 
Q 71.09375 55.28125 71.09375 36.53125 
Q 71.09375 17.671875 61.125 8.828125 
Q 51.171875 0 30.078125 0 
L 9.8125 0 
z
" id="DejaVuSans-44"/>
    </defs>
    <g transform="translate(58.89048 35.290806)scale(0.102 -0.102)">
     <use xlink:href="#DejaVuSans-62"/>
     <use x="63.476562" xlink:href="#DejaVuSans-62"/>
     <use x="126.953125" xlink:href="#DejaVuSans-6f"/>
     <use x="188.134766" xlink:href="#DejaVuSans-62"/>
     <use x="251.611328" xlink:href="#DejaVuSans-20"/>
     <use x="283.398438" xlink:href="#DejaVuSans-66"/>
     <use x="318.603516" xlink:href="#DejaVuSans-31"/>
     <use x="382.226562" xlink:href="#DejaVuSans-37"/>
     <use x="445.849609" xlink:href="#DejaVuSans-2c"/>
     <use x="477.636719" xlink:href="#DejaVuSans-20"/>
     <use x="509.423828" xlink:href="#DejaVuSans-32"/>
     <use x="573.046875" xlink:href="#DejaVuSans-30"/>
     <use x="636.669922" xlink:href="#DejaVuSans-2d"/>
     <use x="672.753906" xlink:href="#DejaVuSans-44"/>
    </g>
    <!-- 51 targets: 100..1e-08 -->
    <defs>
     <path d="M 10.796875 72.90625 
L 49.515625 72.90625 
L 49.515625 64.59375 
L 19.828125 64.59375 
L 19.828125 46.734375 
Q 21.96875 47.46875 24.109375 47.828125 
Q 26.265625 48.1875 28.421875 48.1875 
Q 40.625 48.1875 47.75 41.5 
Q 54.890625 34.8125 54.890625 23.390625 
Q 54.890625 11.625 47.5625 5.09375 
Q 40.234375 -1.421875 26.90625 -1.421875 
Q 22.3125 -1.421875 17.546875 -0.640625 
Q 12.796875 0.140625 7.71875 1.703125 
L 7.71875 11.625 
Q 12.109375 9.234375 16.796875 8.0625 
Q 21.484375 6.890625 26.703125 6.890625 
Q 35.15625 6.890625 40.078125 11.328125 
Q 45.015625 15.765625 45.015625 23.390625 
Q 45.015625 31 40.078125 35.4375 
Q 35.15625 39.890625 26.703125 39.890625 
Q 22.75 39.890625 18.8125 39.015625 
Q 14.890625 38.140625 10.796875 36.28125 
z
" id="DejaVuSans-35"/>
     <path d="M 11.71875 12.40625 
L 22.015625 12.40625 
L 22.015625 0 
L 11.71875 0 
z
M 11.71875 51.703125 
L 22.015625 51.703125 
L 22.015625 39.3125 
L 11.71875 39.3125 
z
" id="DejaVuSans-3a"/>
    </defs>
    <g transform="translate(58.89048 46.712575)scale(0.102 -0.102)">
     <use xlink:href="#DejaVuSans-35"/>
     <use x="63.623047" xlink:href="#DejaVuSans-31"/>
     <use x="127.246094" xlink:href="#DejaVuSans-20"/>
     <use x="159.033203" xlink:href="#DejaVuSans-74"/>
     <use x="198.242188" xlink:href="#DejaVuSans-61"/>
     <use x="259.521484" xlink:href="#DejaVuSans-72"/>
     <use x="300.619141" xlink:href="#DejaVuSans-67"/>
     <use x="364.095703" xlink:href="#DejaVuSans-65"/>
     <use x="425.619141" xlink:href="#DejaVuSans-74"/>
     <use x="464.828125" xlink:href="#DejaVuSans-73"/>
     <use x="516.927734" xlink:href="#DejaVuSans-3a"/>
     <use x="550.619141" xlink:href="#DejaVuSans-20"/>
     <use x="582.40625" xlink:href="#DejaVuSans-31"/>
     <use x="646.029297" xlink:href="#DejaVuSans-30"/>
     <use x="709.652344" xlink:href="#DejaVuSans-30"/>
     <use x="773.275391" xlink:href="#DejaVuSans-2e"/>
     <use x="805.0625" xlink:href="#DejaVuSans-2e"/>
     <use x="836.849609" xlink:href="#DejaVuSans-31"/>
     <use x="900.472656" xlink:href="#DejaVuSans-65"/>
     <use x="961.996094" xlink:href="#DejaVuSans-2d"/>
     <use x="998.080078" xlink:href="#DejaVuSans-30"/>
     <use x="1061.703125" xlink:href="#DejaVuSans-38"/>
    </g>
    <!-- 15 instances -->
    <g transform="translate(58.89048 58.134344)scale(0.102 -0.102)">
     <use xlink:href="#DejaVuSans-31"/>
     <use x="63.623047" xlink:href="#DejaVuSans-35"/>
     <use x="127.246094" xlink:href="#DejaVuSans-20"/>
     <use x="159.033203" xlink:href="#DejaVuSans-69"/>
     <use x="186.816406" xlink:href="#DejaVuSans-6e"/>
     <use x="250.195312" xlink:href="#DejaVuSans-73"/>
     <use x="302.294922" xlink:href="#DejaVuSans-74"/>
     <use x="341.503906" xlink:href="#DejaVuSans-61"/>
     <use x="402.783203" xlink:href="#DejaVuSans-6e"/>
     <use x="466.162109" xlink:href="#DejaVuSans-63"/>
     <use x="521.142578" xlink:href="#DejaVuSans-65"/>
     <use x="582.666016" xlink:href="#DejaVuSans-73"/>
    </g>
   </g>
   <g id="text_17">
    <!-- v0.0.0 -->
    <g style="fill:#808080;" transform="translate(178.96275 290.099912)scale(0.1 -0.1)">
     <use xlink:href="#DejaVuSans-76"/>
     <use x="59.179688" xlink:href="#DejaVuSans-30"/>
     <use x="122.802734" xlink:href="#DejaVuSans-2e"/>
     <use x="154.589844" xlink:href="#DejaVuSans-30"/>
     <use x="218.212891" xlink:href="#DejaVuSans-2e"/>
     <use x="250" xlink:href="#DejaVuSans-30"/>
    </g>
   </g>
   <g id="text_18">
    <!-- 17 Schaffer F7, condition 10 -->
    <defs>
     <path d="M 54.890625 33.015625 
L 54.890625 0 
L 45.90625 0 
L 45.90625 32.71875 
Q 45.90625 40.484375 42.875 44.328125 
Q 39.84375 48.1875 33.796875 48.1875 
Q 26.515625 48.1875 22.3125 43.546875 
Q 18.109375 38.921875 18.109375 30.90625 
L 18.109375 0 
L 9.078125 0 
L 9.078125 75.984375 
L 18.109375 75.984375 
L 18.109375 46.1875 
Q 21.34375 51.125 25.703125 53.5625 
Q 30.078125 56 35.796875 56 
Q 45.21875 56 50.046875 50.171875 
Q 54.890625 44.34375 54.890625 33.015625 
z
" id="DejaVuSans-68"/>
    </defs>
    <g transform="translate(53.336187 18.84)scale(0.2 -0.2)">
     <use xlink:href="#DejaVuSans-31"/>
     <use x="63.623047" xlink:href="#DejaVuSans-37"/>
     <use x="127.246094" xlink:href="#DejaVuSans-20"/>
     <use x="159.033203" xlink:href="#DejaVuSans-53"/>
     <use x="222.509766" xlink:href="#DejaVuSans-63"/>
     <use x="277.490234" xlink:href="#DejaVuSans-68"/>
     <use x="340.869141" xlink:href="#DejaVuSans-61"/>
     <use x="402.148438" xlink:href="#DejaVuSans-66"/>
     <use x="437.353516" xlink:href="#DejaVuSans-66"/>
     <use x="472.558594" xlink:href="#DejaVuSans-65"/>
     <use x="534.082031" xlink:href="#DejaVuSans-72"/>
     <use x="575.195312" xlink:href="#DejaVuSans-20"/>
     <use x="606.982422" xlink:href="#DejaVuSans-46"/>
     <use x="664.501953" xlink:href="#DejaVuSans-37"/>
     <use x="728.125" xlink:href="#DejaVuSans-2c"/>
     <use x="759.912109" xlink:href="#DejaVuSans-20"/>
     <use x="791.699219" xlink:href="#DejaVuSans-63"/>
     <use x="846.679688" xlink:href="#DejaVuSans-6f"/>
     <use x="907.861328" xlink:href="#DejaVuSans-6e"/>
     <use x="971.240234" xlink:href="#DejaVuSans-64"/>
     <use x="1034.716797" xlink:href="#DejaVuSans-69"/>
     <use x="1062.5" xlink:href="#DejaVuSans-74"/>
     <use x="1101.708984" xlink:href="#DejaVuSans-69"/>
     <use x="1129.492188" xlink:href="#DejaVuSans-6f"/>
     <use x="1190.673828" xlink:href="#DejaVuSans-6e"/>
     <use x="1254.052734" xlink:href="#DejaVuSans-20"/>
     <use x="1285.839844" xlink:href="#DejaVuSans-31"/>
     <use x="1349.462891" xlink:href="#DejaVuSans-30"/>
    </g>
   </g>
  </g>
 </g>
 <defs>
  <clipPath id="p34a48bf9b4">
   <rect height="270.04" width="277.048" x="56.12" y="24.84"/>
  </clipPath>
 </defs>
</svg>
