<?xml version="1.0" encoding="utf-8" standalone="no"?>
<!DOCTYPE svg PUBLIC "-//W3C//DTD SVG 1.1//EN"
  "http://www.w3.org/Graphics/SVG/1.1/DTD/svg11.dtd">
<!-- Created with matplotlib (http://matplotlib.org/) -->
<svg height="345pt" version="1.1" viewBox="0 0 460 345" width="460pt" xmlns="http://www.w3.org/2000/svg" xmlns:xlink="http://www.w3.org/1999/xlink">
 <defs>
  <style type="text/css">
*{stroke-linecap:butt;stroke-linejoin:round;}
  </style>
 </defs>
 <g id="figure_1">
  <g id="patch_1">
   <path d="M 0 345.6 
L 460.8 345.6 
L 460.8 0 
L 0 0 
z
" style="fill:#ffffff;"/>
  </g>
  <g id="axes_1">
   <g id="patch_2">
    <path d="M 56.12 294.88 
L 333.168 294.88 
L 333.168 24.84 
L 56.12 24.84 
z
" style="fill:#ffffff;"/>
   </g>
   <g id="line2d_1">
    <path d="M 49.15061 294.88 
L 49.15061 289.637523 
L 68.034251 289.637523 
L 68.034251 284.395046 
L 76.814644 284.395046 
L 76.814644 279.152568 
L 88.728896 279.152568 
L 88.728896 273.910091 
L 96.807615 273.910091 
L 96.807615 268.667614 
L 99.761485 268.667614 
L 99.761485 263.425137 
L 100.643147 263.425137 
L 100.643147 258.18266 
L 136.332102 258.18266 
L 136.332102 252.940182 
L 136.914823 252.940182 
L 136.914823 247.697705 
L 152.497115 247.697705 
L 152.497115 242.455228 
L 152.601988 242.455228 
L 152.601988 237.212751 
L 152.685428 237.212751 
L 152.685428 221.485319 
L 152.768465 221.485319 
L 152.768465 205.757888 
L 152.809834 205.757888 
L 152.809834 200.515411 
L 152.871701 200.515411 
L 152.871701 184.787979 
L 152.912822 184.787979 
L 152.912822 174.303025 
L 152.97432 174.303025 
L 152.97432 169.060547 
L 153.015196 169.060547 
L 153.015196 153.333116 
L 153.035598 153.333116 
L 153.035598 148.090639 
L 153.055976 148.090639 
L 153.055976 142.848162 
L 153.07633 142.848162 
L 153.07633 127.12073 
L 153.096659 127.12073 
L 153.096659 116.635776 
L 153.116965 116.635776 
L 153.116965 90.42339 
L 153.137246 90.42339 
L 153.137246 69.453481 
L 153.177738 69.453481 
L 153.177738 64.211004 
L 153.218134 64.211004 
L 153.218134 58.968526 
L 153.238297 58.968526 
L 153.238297 32.756141 
L 153.278551 32.756141 
L 153.278551 27.513663 
L 333.168 27.513663 
" style="fill:none;stroke:#f5deb3;stroke-linecap:square;stroke-width:4;"/>
   </g>
   <g id="line2d_2">
    <defs>
     <path d="M -0 7.778175 
L 7.778175 0 
L 0 -7.778175 
L -7.778175 -0 
z
" id="m50df65a310" style="stroke:#f5deb3;stroke-linejoin:miter;stroke-width:1.5;"/>
    </defs>
    <g>
     <use style="fill:#f5deb3;stroke:#f5deb3;stroke-linejoin:miter;stroke-width:1.5;" x="136.914823" xlink:href="#m50df65a310" y="252.940182"/>
     <use style="fill:#f5deb3;stroke:#f5deb3;stroke-linejoin:miter;stroke-width:1.5;" x="153.055976" xlink:href="#m50df65a310" y="142.848162"/>
     <use style="fill:#f5deb3;stroke:#f5deb3;stroke-linejoin:miter;stroke-width:1.5;" x="153.278551" xlink:href="#m50df65a310" y="32.756141"/>
     <use style="fill:#f5deb3;stroke:#f5deb3;stroke-linejoin:miter;stroke-width:1.5;" x="153.278551" xlink:href="#m50df65a310" y="27.513663"/>
     <use style="fill:#f5deb3;stroke:#f5deb3;stroke-linejoin:miter;stroke-width:1.5;" x="153.278551" xlink:href="#m50df65a310" y="27.513663"/>
     <use style="fill:#f5deb3;stroke:#f5deb3;stroke-linejoin:miter;stroke-width:1.5;" x="333.168" xlink:href="#m50df65a310" y="27.513663"/>
    </g>
   </g>
   <g id="line2d_3">
    <path style="fill:none;stroke:#f5deb3;stroke-linecap:square;stroke-width:4;"/>
    <g/>
   </g>
   <g id="line2d_4">
    <path d="M 333.168 27.513663 
L 363.64328 32.86099 
" style="fill:none;stroke:#f5deb3;stroke-linecap:square;stroke-width:4;"/>
    <g>
     <use style="fill:#f5deb3;stroke:#f5deb3;stroke-linejoin:miter;stroke-width:1.5;" x="333.168" xlink:href="#m50df65a310" y="27.513663"/>
     <use style="fill:#f5deb3;stroke:#f5deb3;stroke-linejoin:miter;stroke-width:1.5;" x="363.64328" xlink:href="#m50df65a310" y="32.86099"/>
    </g>
   </g>
   <g id="matplotlib.axis_1">
    <g id="xtick_1">
     <g id="line2d_5">
      <path clip-path="url(#pb02e2a3bb5)" d="M 56.12 294.88 
L 56.12 24.84 
" style="fill:none;stroke:#b0b0b0;stroke-linecap:square;stroke-width:0.8;"/>
     </g>
     <g id="line2d_6">
      <defs>
       <path d="M 0 0 
L 0 3.5 
" id="m81202cba53" style="stroke:#000000;stroke-width:0.8;"/>
      </defs>
      <g>
       <use style="stroke:#000000;stroke-width:0.8;" x="56.12" xlink:href="#m81202cba53" y="294.88"/>
      </g>
     </g>
     <g id="text_1">
      <!-- 0 -->
      <defs>
       <path d="M 31.78125 66.40625 
Q 24.171875 66.40625 20.328125 58.90625 
Q 16.5 51.421875 16.5 36.375 
Q 16.5 21.390625 20.328125 13.890625 
Q 24.171875 6.390625 31.78125 6.390625 
Q 39.453125 6.390625 43.28125 13.890625 
Q 47.125 21.390625 47.125 36.375 
Q 47.125 51.421875 43.28125 58.90625 
Q 39.453125 66.40625 31.78125 66.40625 
z
M 31.78125 74.21875 
Q 44.046875 74.21875 50.515625 64.515625 
Q 56.984375 54.828125 56.984375 36.375 
Q 56.984375 17.96875 50.515625 8.265625 
Q 44.046875 -1.421875 31.78125 -1.421875 
Q 19.53125 -1.421875 13.0625 8.265625 
Q 6.59375 17.96875 6.59375 36.375 
Q 6.59375 54.828125 13.0625 64.515625 
Q 19.53125 74.21875 31.78125 74.21875 
z
" id="DejaVuSans-30"/>
      </defs>
      <g transform="translate(49.7575 317.076875)scale(0.2 -0.2)">
       <use xlink:href="#DejaVuSans-30"/>
      </g>
     </g>
    </g>
    <g id="xtick_2">
     <g id="line2d_7">
      <path clip-path="url(#pb02e2a3bb5)" d="M 135.276571 294.88 
L 135.276571 24.84 
" style="fill:none;stroke:#b0b0b0;stroke-linecap:square;stroke-width:0.8;"/>
     </g>
     <g id="line2d_8">
      <g>
       <use style="stroke:#000000;stroke-width:0.8;" x="135.276571" xlink:href="#m81202cba53" y="294.88"/>
      </g>
     </g>
     <g id="text_2">
      <!-- 2 -->
      <defs>
       <path d="M 19.1875 8.296875 
L 53.609375 8.296875 
L 53.609375 0 
L 7.328125 0 
L 7.328125 8.296875 
Q 12.9375 14.109375 22.625 23.890625 
Q 32.328125 33.6875 34.8125 36.53125 
Q 39.546875 41.84375 41.421875 45.53125 
Q 43.3125 49.21875 43.3125 52.78125 
Q 43.3125 58.59375 39.234375 62.25 
Q 35.15625 65.921875 28.609375 65.921875 
Q 23.96875 65.921875 18.8125 64.3125 
Q 13.671875 62.703125 7.8125 59.421875 
L 7.8125 69.390625 
Q 13.765625 71.78125 18.9375 73 
Q 24.125 74.21875 28.421875 74.21875 
Q 39.75 74.21875 46.484375 68.546875 
Q 53.21875 62.890625 53.21875 53.421875 
Q 53.21875 48.921875 51.53125 44.890625 
Q 49.859375 40.875 45.40625 35.40625 
Q 44.1875 33.984375 37.640625 27.21875 
Q 31.109375 20.453125 19.1875 8.296875 
z
" id="DejaVuSans-32"/>
      </defs>
      <g transform="translate(128.914071 317.076875)scale(0.2 -0.2)">
       <use xlink:href="#DejaVuSans-32"/>
      </g>
     </g>
    </g>
    <g id="xtick_3">
     <g id="line2d_9">
      <path clip-path="url(#pb02e2a3bb5)" d="M 214.433143 294.88 
L 214.433143 24.84 
" style="fill:none;stroke:#b0b0b0;stroke-linecap:square;stroke-width:0.8;"/>
     </g>
     <g id="line2d_10">
      <g>
       <use style="stroke:#000000;stroke-width:0.8;" x="214.433143" xlink:href="#m81202cba53" y="294.88"/>
      </g>
     </g>
     <g id="text_3">
      <!-- 4 -->
      <defs>
       <path d="M 37.796875 64.3125 
L 12.890625 25.390625 
L 37.796875 25.390625 
z
M 35.203125 72.90625 
L 47.609375 72.90625 
L 47.609375 25.390625 
L 58.015625 25.390625 
L 58.015625 17.1875 
L 47.609375 17.1875 
L 47.609375 0 
L 37.796875 0 
L 37.796875 17.1875 
L 4.890625 17.1875 
L 4.890625 26.703125 
z
" id="DejaVuSans-34"/>
      </defs>
      <g transform="translate(208.070643 317.076875)scale(0.2 -0.2)">
       <use xlink:href="#DejaVuSans-34"/>
      </g>
     </g>
    </g>
    <g id="xtick_4">
     <g id="line2d_11">
      <path clip-path="url(#pb02e2a3bb5)" d="M 293.589714 294.88 
L 293.589714 24.84 
" style="fill:none;stroke:#b0b0b0;stroke-linecap:square;stroke-width:0.8;"/>
     </g>
     <g id="line2d_12">
      <g>
       <use style="stroke:#000000;stroke-width:0.8;" x="293.589714" xlink:href="#m81202cba53" y="294.88"/>
      </g>
     </g>
     <g id="text_4">
      <!-- 6 -->
      <defs>
       <path d="M 33.015625 40.375 
Q 26.375 40.375 22.484375 35.828125 
Q 18.609375 31.296875 18.609375 23.390625 
Q 18.609375 15.53125 22.484375 10.953125 
Q 26.375 6.390625 33.015625 6.390625 
Q 39.65625 6.390625 43.53125 10.953125 
Q 47.40625 15.53125 47.40625 23.390625 
Q 47.40625 31.296875 43.53125 35.828125 
Q 39.65625 40.375 33.015625 40.375 
z
M 52.59375 71.296875 
L 52.59375 62.3125 
Q 48.875 64.0625 45.09375 64.984375 
Q 41.3125 65.921875 37.59375 65.921875 
Q 27.828125 65.921875 22.671875 59.328125 
Q 17.53125 52.734375 16.796875 39.40625 
Q 19.671875 43.65625 24.015625 45.921875 
Q 28.375 48.1875 33.59375 48.1875 
Q 44.578125 48.1875 50.953125 41.515625 
Q 57.328125 34.859375 57.328125 23.390625 
Q 57.328125 12.15625 50.6875 5.359375 
Q 44.046875 -1.421875 33.015625 -1.421875 
Q 20.359375 -1.421875 13.671875 8.265625 
Q 6.984375 17.96875 6.984375 36.375 
Q 6.984375 53.65625 15.1875 63.9375 
Q 23.390625 74.21875 37.203125 74.21875 
Q 40.921875 74.21875 44.703125 73.484375 
Q 48.484375 72.75 52.59375 71.296875 
z
" id="DejaVuSans-36"/>
      </defs>
      <g transform="translate(287.227214 317.076875)scale(0.2 -0.2)">
       <use xlink:href="#DejaVuSans-36"/>
      </g>
     </g>
    </g>
    <g id="xtick_5">
     <g id="line2d_13">
      <path clip-path="url(#pb02e2a3bb5)" d="M 56.12 294.88 
L 56.12 24.84 
" style="fill:none;stroke:#b0b0b0;stroke-linecap:square;stroke-width:0.8;"/>
     </g>
     <g id="line2d_14">
      <defs>
       <path d="M 0 0 
L 0 2 
" id="m3654c41a66" style="stroke:#000000;stroke-width:0.6;"/>
      </defs>
      <g>
       <use style="stroke:#000000;stroke-width:0.6;" x="56.12" xlink:href="#m3654c41a66" y="294.88"/>
      </g>
     </g>
    </g>
    <g id="xtick_6">
     <g id="line2d_15">
      <path clip-path="url(#pb02e2a3bb5)" d="M 95.698286 294.88 
L 95.698286 24.84 
" style="fill:none;stroke:#b0b0b0;stroke-linecap:square;stroke-width:0.8;"/>
     </g>
     <g id="line2d_16">
      <g>
       <use style="stroke:#000000;stroke-width:0.6;" x="95.698286" xlink:href="#m3654c41a66" y="294.88"/>
      </g>
     </g>
    </g>
    <g id="xtick_7">
     <g id="line2d_17">
      <path clip-path="url(#pb02e2a3bb5)" d="M 135.276571 294.88 
L 135.276571 24.84 
" style="fill:none;stroke:#b0b0b0;stroke-linecap:square;stroke-width:0.8;"/>
     </g>
     <g id="line2d_18">
      <g>
       <use style="stroke:#000000;stroke-width:0.6;" x="135.276571" xlink:href="#m3654c41a66" y="294.88"/>
      </g>
     </g>
    </g>
    <g id="xtick_8">
     <g id="line2d_19">
      <path clip-path="url(#pb02e2a3bb5)" d="M 174.854857 294.88 
L 174.854857 24.84 
" style="fill:none;stroke:#b0b0b0;stroke-linecap:square;stroke-width:0.8;"/>
     </g>
     <g id="line2d_20">
      <g>
       <use style="stroke:#000000;stroke-width:0.6;" x="174.854857" xlink:href="#m3654c41a66" y="294.88"/>
      </g>
     </g>
    </g>
    <g id="xtick_9">
     <g id="line2d_21">
      <path clip-path="url(#pb02e2a3bb5)" d="M 214.433143 294.88 
L 214.433143 24.84 
" style="fill:none;stroke:#b0b0b0;stroke-linecap:square;stroke-width:0.8;"/>
     </g>
     <g id="line2d_22">
      <g>
       <use style="stroke:#000000;stroke-width:0.6;" x="214.433143" xlink:href="#m3654c41a66" y="294.88"/>
      </g>
     </g>
    </g>
    <g id="xtick_10">
     <g id="line2d_23">
      <path clip-path="url(#pb02e2a3bb5)" d="M 254.011429 294.88 
L 254.011429 24.84 
" style="fill:none;stroke:#b0b0b0;stroke-linecap:square;stroke-width:0.8;"/>
     </g>
     <g id="line2d_24">
      <g>
       <use style="stroke:#000000;stroke-width:0.6;" x="254.011429" xlink:href="#m3654c41a66" y="294.88"/>
      </g>
     </g>
    </g>
    <g id="xtick_11">
     <g id="line2d_25">
      <path clip-path="url(#pb02e2a3bb5)" d="M 293.589714 294.88 
L 293.589714 24.84 
" style="fill:none;stroke:#b0b0b0;stroke-linecap:square;stroke-width:0.8;"/>
     </g>
     <g id="line2d_26">
      <g>
       <use style="stroke:#000000;stroke-width:0.6;" x="293.589714" xlink:href="#m3654c41a66" y="294.88"/>
      </g>
     </g>
    </g>
    <g id="xtick_12">
     <g id="line2d_27">
      <path clip-path="url(#pb02e2a3bb5)" d="M 333.168 294.88 
L 333.168 24.84 
" style="fill:none;stroke:#b0b0b0;stroke-linecap:square;stroke-width:0.8;"/>
     </g>
     <g id="line2d_28">
      <g>
       <use style="stroke:#000000;stroke-width:0.6;" x="333.168" xlink:href="#m3654c41a66" y="294.88"/>
      </g>
     </g>
    </g>
    <g id="text_5">
     <!-- log10(# f-evals / dimension) -->
     <defs>
      <path d="M 9.421875 75.984375 
L 18.40625 75.984375 
L 18.40625 0 
L 9.421875 0 
z
" id="DejaVuSans-6c"/>
      <path d="M 30.609375 48.390625 
Q 23.390625 48.390625 19.1875 42.75 
Q 14.984375 37.109375 14.984375 27.296875 
Q 14.984375 17.484375 19.15625 11.84375 
Q 23.34375 6.203125 30.609375 6.203125 
Q 37.796875 6.203125 41.984375 11.859375 
Q 46.1875 17.53125 46.1875 27.296875 
Q 46.1875 37.015625 41.984375 42.703125 
Q 37.796875 48.390625 30.609375 48.390625 
z
M 30.609375 56 
Q 42.328125 56 49.015625 48.375 
Q 55.71875 40.765625 55.71875 27.296875 
Q 55.71875 13.875 49.015625 6.21875 
Q 42.328125 -1.421875 30.609375 -1.421875 
Q 18.84375 -1.421875 12.171875 6.21875 
Q 5.515625 13.875 5.515625 27.296875 
Q 5.515625 40.765625 12.171875 48.375 
Q 18.84375 56 30.609375 56 
z
" id="DejaVuSans-6f"/>
      <path d="M 45.40625 27.984375 
Q 45.40625 37.75 41.375 43.109375 
Q 37.359375 48.484375 30.078125 48.484375 
Q 22.859375 48.484375 18.828125 43.109375 
Q 14.796875 37.75 14.796875 27.984375 
Q 14.796875 18.265625 18.828125 12.890625 
Q 22.859375 7.515625 30.078125 7.515625 
Q 37.359375 7.515625 41.375 12.890625 
Q 45.40625 18.265625 45.40625 27.984375 
z
M 54.390625 6.78125 
Q 54.390625 -7.171875 48.1875 -13.984375 
Q 42 -20.796875 29.203125 -20.796875 
Q 24.46875 -20.796875 20.265625 -20.09375 
Q 16.0625 -19.390625 12.109375 -17.921875 
L 12.109375 -9.1875 
Q 16.0625 -11.328125 19.921875 -12.34375 
Q 23.78125 -13.375 27.78125 -13.375 
Q 36.625 -13.375 41.015625 -8.765625 
Q 45.40625 -4.15625 45.40625 5.171875 
L 45.40625 9.625 
Q 42.625 4.78125 38.28125 2.390625 
Q 33.9375 0 27.875 0 
Q 17.828125 0 11.671875 7.65625 
Q 5.515625 15.328125 5.515625 27.984375 
Q 5.515625 40.671875 11.671875 48.328125 
Q 17.828125 56 27.875 56 
Q 33.9375 56 38.28125 53.609375 
Q 42.625 51.21875 45.40625 46.390625 
L 45.40625 54.6875 
L 54.390625 54.6875 
z
" id="DejaVuSans-67"/>
      <path d="M 12.40625 8.296875 
L 28.515625 8.296875 
L 28.515625 63.921875 
L 10.984375 60.40625 
L 10.984375 69.390625 
L 28.421875 72.90625 
L 38.28125 72.90625 
L 38.28125 8.296875 
L 54.390625 8.296875 
L 54.390625 0 
L 12.40625 0 
z
" id="DejaVuSans-31"/>
      <path d="M 31 75.875 
Q 24.46875 64.65625 21.28125 53.65625 
Q 18.109375 42.671875 18.109375 31.390625 
Q 18.109375 20.125 21.3125 9.0625 
Q 24.515625 -2 31 -13.1875 
L 23.1875 -13.1875 
Q 15.875 -1.703125 12.234375 9.375 
Q 8.59375 20.453125 8.59375 31.390625 
Q 8.59375 42.28125 12.203125 53.3125 
Q 15.828125 64.359375 23.1875 75.875 
z
" id="DejaVuSans-28"/>
      <path d="M 51.125 44 
L 36.921875 44 
L 32.8125 27.6875 
L 47.125 27.6875 
z
M 43.796875 71.78125 
L 38.71875 51.515625 
L 52.984375 51.515625 
L 58.109375 71.78125 
L 65.921875 71.78125 
L 60.890625 51.515625 
L 76.125 51.515625 
L 76.125 44 
L 58.984375 44 
L 54.984375 27.6875 
L 70.515625 27.6875 
L 70.515625 20.21875 
L 53.078125 20.21875 
L 48 0 
L 40.1875 0 
L 45.21875 20.21875 
L 30.90625 20.21875 
L 25.875 0 
L 18.015625 0 
L 23.09375 20.21875 
L 7.71875 20.21875 
L 7.71875 27.6875 
L 24.90625 27.6875 
L 29 44 
L 13.28125 44 
L 13.28125 51.515625 
L 30.90625 51.515625 
L 35.890625 71.78125 
z
" id="DejaVuSans-23"/>
      <path id="DejaVuSans-20"/>
      <path d="M 37.109375 75.984375 
L 37.109375 68.5 
L 28.515625 68.5 
Q 23.6875 68.5 21.796875 66.546875 
Q 19.921875 64.59375 19.921875 59.515625 
L 19.921875 54.6875 
L 34.71875 54.6875 
L 34.71875 47.703125 
L 19.921875 47.703125 
L 19.921875 0 
L 10.890625 0 
L 10.890625 47.703125 
L 2.296875 47.703125 
L 2.296875 54.6875 
L 10.890625 54.6875 
L 10.890625 58.5 
Q 10.890625 67.625 15.140625 71.796875 
Q 19.390625 75.984375 28.609375 75.984375 
z
" id="DejaVuSans-66"/>
      <path d="M 4.890625 31.390625 
L 31.203125 31.390625 
L 31.203125 23.390625 
L 4.890625 23.390625 
z
" id="DejaVuSans-2d"/>
      <path d="M 56.203125 29.59375 
L 56.203125 25.203125 
L 14.890625 25.203125 
Q 15.484375 15.921875 20.484375 11.0625 
Q 25.484375 6.203125 34.421875 6.203125 
Q 39.59375 6.203125 44.453125 7.46875 
Q 49.3125 8.734375 54.109375 11.28125 
L 54.109375 2.78125 
Q 49.265625 0.734375 44.1875 -0.34375 
Q 39.109375 -1.421875 33.890625 -1.421875 
Q 20.796875 -1.421875 13.15625 6.1875 
Q 5.515625 13.8125 5.515625 26.8125 
Q 5.515625 40.234375 12.765625 48.109375 
Q 20.015625 56 32.328125 56 
Q 43.359375 56 49.78125 48.890625 
Q 56.203125 41.796875 56.203125 29.59375 
z
M 47.21875 32.234375 
Q 47.125 39.59375 43.09375 43.984375 
Q 39.0625 48.390625 32.421875 48.390625 
Q 24.90625 48.390625 20.390625 44.140625 
Q 15.875 39.890625 15.1875 32.171875 
z
" id="DejaVuSans-65"/>
      <path d="M 2.984375 54.6875 
L 12.5 54.6875 
L 29.59375 8.796875 
L 46.6875 54.6875 
L 56.203125 54.6875 
L 35.6875 0 
L 23.484375 0 
z
" id="DejaVuSans-76"/>
      <path d="M 34.28125 27.484375 
Q 23.390625 27.484375 19.1875 25 
Q 14.984375 22.515625 14.984375 16.5 
Q 14.984375 11.71875 18.140625 8.90625 
Q 21.296875 6.109375 26.703125 6.109375 
Q 34.1875 6.109375 38.703125 11.40625 
Q 43.21875 16.703125 43.21875 25.484375 
L 43.21875 27.484375 
z
M 52.203125 31.203125 
L 52.203125 0 
L 43.21875 0 
L 43.21875 8.296875 
Q 40.140625 3.328125 35.546875 0.953125 
Q 30.953125 -1.421875 24.3125 -1.421875 
Q 15.921875 -1.421875 10.953125 3.296875 
Q 6 8.015625 6 15.921875 
Q 6 25.140625 12.171875 29.828125 
Q 18.359375 34.515625 30.609375 34.515625 
L 43.21875 34.515625 
L 43.21875 35.40625 
Q 43.21875 41.609375 39.140625 45 
Q 35.0625 48.390625 27.6875 48.390625 
Q 23 48.390625 18.546875 47.265625 
Q 14.109375 46.140625 10.015625 43.890625 
L 10.015625 52.203125 
Q 14.9375 54.109375 19.578125 55.046875 
Q 24.21875 56 28.609375 56 
Q 40.484375 56 46.34375 49.84375 
Q 52.203125 43.703125 52.203125 31.203125 
z
" id="DejaVuSans-61"/>
      <path d="M 44.28125 53.078125 
L 44.28125 44.578125 
Q 40.484375 46.53125 36.375 47.5 
Q 32.28125 48.484375 27.875 48.484375 
Q 21.1875 48.484375 17.84375 46.4375 
Q 14.5 44.390625 14.5 40.28125 
Q 14.5 37.15625 16.890625 35.375 
Q 19.28125 33.59375 26.515625 31.984375 
L 29.59375 31.296875 
Q 39.15625 29.25 43.1875 25.515625 
Q 47.21875 21.78125 47.21875 15.09375 
Q 47.21875 7.46875 41.1875 3.015625 
Q 35.15625 -1.421875 24.609375 -1.421875 
Q 20.21875 -1.421875 15.453125 -0.5625 
Q 10.6875 0.296875 5.421875 2 
L 5.421875 11.28125 
Q 10.40625 8.6875 15.234375 7.390625 
Q 20.0625 6.109375 24.8125 6.109375 
Q 31.15625 6.109375 34.5625 8.28125 
Q 37.984375 10.453125 37.984375 14.40625 
Q 37.984375 18.0625 35.515625 20.015625 
Q 33.0625 21.96875 24.703125 23.78125 
L 21.578125 24.515625 
Q 13.234375 26.265625 9.515625 29.90625 
Q 5.8125 33.546875 5.8125 39.890625 
Q 5.8125 47.609375 11.28125 51.796875 
Q 16.75 56 26.8125 56 
Q 31.78125 56 36.171875 55.265625 
Q 40.578125 54.546875 44.28125 53.078125 
z
" id="DejaVuSans-73"/>
      <path d="M 25.390625 72.90625 
L 33.6875 72.90625 
L 8.296875 -9.28125 
L 0 -9.28125 
z
" id="DejaVuSans-2f"/>
      <path d="M 45.40625 46.390625 
L 45.40625 75.984375 
L 54.390625 75.984375 
L 54.390625 0 
L 45.40625 0 
L 45.40625 8.203125 
Q 42.578125 3.328125 38.25 0.953125 
Q 33.9375 -1.421875 27.875 -1.421875 
Q 17.96875 -1.421875 11.734375 6.484375 
Q 5.515625 14.40625 5.515625 27.296875 
Q 5.515625 40.1875 11.734375 48.09375 
Q 17.96875 56 27.875 56 
Q 33.9375 56 38.25 53.625 
Q 42.578125 51.265625 45.40625 46.390625 
z
M 14.796875 27.296875 
Q 14.796875 17.390625 18.875 11.75 
Q 22.953125 6.109375 30.078125 6.109375 
Q 37.203125 6.109375 41.296875 11.75 
Q 45.40625 17.390625 45.40625 27.296875 
Q 45.40625 37.203125 41.296875 42.84375 
Q 37.203125 48.484375 30.078125 48.484375 
Q 22.953125 48.484375 18.875 42.84375 
Q 14.796875 37.203125 14.796875 27.296875 
z
" id="DejaVuSans-64"/>
      <path d="M 9.421875 54.6875 
L 18.40625 54.6875 
L 18.40625 0 
L 9.421875 0 
z
M 9.421875 75.984375 
L 18.40625 75.984375 
L 18.40625 64.59375 
L 9.421875 64.59375 
z
" id="DejaVuSans-69"/>
      <path d="M 52 44.1875 
Q 55.375 50.25 60.0625 53.125 
Q 64.75 56 71.09375 56 
Q 79.640625 56 84.28125 50.015625 
Q 88.921875 44.046875 88.921875 33.015625 
L 88.921875 0 
L 79.890625 0 
L 79.890625 32.71875 
Q 79.890625 40.578125 77.09375 44.375 
Q 74.3125 48.1875 68.609375 48.1875 
Q 61.625 48.1875 57.5625 43.546875 
Q 53.515625 38.921875 53.515625 30.90625 
L 53.515625 0 
L 44.484375 0 
L 44.484375 32.71875 
Q 44.484375 40.625 41.703125 44.40625 
Q 38.921875 48.1875 33.109375 48.1875 
Q 26.21875 48.1875 22.15625 43.53125 
Q 18.109375 38.875 18.109375 30.90625 
L 18.109375 0 
L 9.078125 0 
L 9.078125 54.6875 
L 18.109375 54.6875 
L 18.109375 46.1875 
Q 21.1875 51.21875 25.484375 53.609375 
Q 29.78125 56 35.6875 56 
Q 41.65625 56 45.828125 52.96875 
Q 50 49.953125 52 44.1875 
z
" id="DejaVuSans-6d"/>
      <path d="M 54.890625 33.015625 
L 54.890625 0 
L 45.90625 0 
L 45.90625 32.71875 
Q 45.90625 40.484375 42.875 44.328125 
Q 39.84375 48.1875 33.796875 48.1875 
Q 26.515625 48.1875 22.3125 43.546875 
Q 18.109375 38.921875 18.109375 30.90625 
L 18.109375 0 
L 9.078125 0 
L 9.078125 54.6875 
L 18.109375 54.6875 
L 18.109375 46.1875 
Q 21.34375 51.125 25.703125 53.5625 
Q 30.078125 56 35.796875 56 
Q 45.21875 56 50.046875 50.171875 
Q 54.890625 44.34375 54.890625 33.015625 
z
" id="DejaVuSans-6e"/>
      <path d="M 8.015625 75.875 
L 15.828125 75.875 
Q 23.140625 64.359375 26.78125 53.3125 
Q 30.421875 42.28125 30.421875 31.390625 
Q 30.421875 20.453125 26.78125 9.375 
Q 23.140625 -1.703125 15.828125 -13.1875 
L 8.015625 -13.1875 
Q 14.5 -2 17.703125 9.0625 
Q 20.90625 20.125 20.90625 31.390625 
Q 20.90625 42.671875 17.703125 53.65625 
Q 14.5 64.65625 8.015625 75.875 
z
" id="DejaVuSans-29"/>
     </defs>
     <g transform="translate(73.803219 338.153594)scale(0.17 -0.17)">
      <use xlink:href="#DejaVuSans-6c"/>
      <use x="27.783203" xlink:href="#DejaVuSans-6f"/>
      <use x="88.964844" xlink:href="#DejaVuSans-67"/>
      <use x="152.441406" xlink:href="#DejaVuSans-31"/>
      <use x="216.064453" xlink:href="#DejaVuSans-30"/>
      <use x="279.6875" xlink:href="#DejaVuSans-28"/>
      <use x="318.701172" xlink:href="#DejaVuSans-23"/>
      <use x="402.490234" xlink:href="#DejaVuSans-20"/>
      <use x="434.277344" xlink:href="#DejaVuSans-66"/>
      <use x="469.404297" xlink:href="#DejaVuSans-2d"/>
      <use x="505.488281" xlink:href="#DejaVuSans-65"/>
      <use x="567.011719" xlink:href="#DejaVuSans-76"/>
      <use x="626.191406" xlink:href="#DejaVuSans-61"/>
      <use x="687.470703" xlink:href="#DejaVuSans-6c"/>
      <use x="715.253906" xlink:href="#DejaVuSans-73"/>
      <use x="767.353516" xlink:href="#DejaVuSans-20"/>
      <use x="799.140625" xlink:href="#DejaVuSans-2f"/>
      <use x="832.832031" xlink:href="#DejaVuSans-20"/>
      <use x="864.619141" xlink:href="#DejaVuSans-64"/>
      <use x="928.095703" xlink:href="#DejaVuSans-69"/>
      <use x="955.878906" xlink:href="#DejaVuSans-6d"/>
      <use x="1053.291016" xlink:href="#DejaVuSans-65"/>
      <use x="1114.814453" xlink:href="#DejaVuSans-6e"/>
      <use x="1178.193359" xlink:href="#DejaVuSans-73"/>
      <use x="1230.292969" xlink:href="#DejaVuSans-69"/>
      <use x="1258.076172" xlink:href="#DejaVuSans-6f"/>
      <use x="1319.257812" xlink:href="#DejaVuSans-6e"/>
      <use x="1382.636719" xlink:href="#DejaVuSans-29"/>
     </g>
    </g>
   </g>
   <g id="matplotlib.axis_2">
    <g id="ytick_1">
     <g id="line2d_29">
      <path clip-path="url(#pb02e2a3bb5)" d="M 56.12 294.88 
L 333.168 294.88 
" style="fill:none;stroke:#b0b0b0;stroke-linecap:square;stroke-width:0.8;"/>
     </g>
     <g id="line2d_30">
      <defs>
       <path d="M 0 0 
L -3.5 0 
" id="md750d897e8" style="stroke:#000000;stroke-width:0.8;"/>
      </defs>
      <g>
       <use style="stroke:#000000;stroke-width:0.8;" x="56.12" xlink:href="#md750d897e8" y="294.88"/>
      </g>
     </g>
     <g id="text_6">
      <!-- 0.0 -->
      <defs>
       <path d="M 10.6875 12.40625 
L 21 12.40625 
L 21 0 
L 10.6875 0 
z
" id="DejaVuSans-2e"/>
      </defs>
      <g transform="translate(23.675 300.95875)scale(0.16 -0.16)">
       <use xlink:href="#DejaVuSans-30"/>
       <use x="63.623047" xlink:href="#DejaVuSans-2e"/>
       <use x="95.410156" xlink:href="#DejaVuSans-30"/>
      </g>
     </g>
    </g>
    <g id="ytick_2">
     <g id="line2d_31">
      <path clip-path="url(#pb02e2a3bb5)" d="M 56.12 241.406733 
L 333.168 241.406733 
" style="fill:none;stroke:#b0b0b0;stroke-linecap:square;stroke-width:0.8;"/>
     </g>
     <g id="line2d_32">
      <g>
       <use style="stroke:#000000;stroke-width:0.8;" x="56.12" xlink:href="#md750d897e8" y="241.406733"/>
      </g>
     </g>
     <g id="text_7">
      <!-- 0.2 -->
      <g transform="translate(23.675 247.485483)scale(0.16 -0.16)">
       <use xlink:href="#DejaVuSans-30"/>
       <use x="63.623047" xlink:href="#DejaVuSans-2e"/>
       <use x="95.410156" xlink:href="#DejaVuSans-32"/>
      </g>
     </g>
    </g>
    <g id="ytick_3">
     <g id="line2d_33">
      <path clip-path="url(#pb02e2a3bb5)" d="M 56.12 187.933465 
L 333.168 187.933465 
" style="fill:none;stroke:#b0b0b0;stroke-linecap:square;stroke-width:0.8;"/>
     </g>
     <g id="line2d_34">
      <g>
       <use style="stroke:#000000;stroke-width:0.8;" x="56.12" xlink:href="#md750d897e8" y="187.933465"/>
      </g>
     </g>
     <g id="text_8">
      <!-- 0.4 -->
      <g transform="translate(23.675 194.012215)scale(0.16 -0.16)">
       <use xlink:href="#DejaVuSans-30"/>
       <use x="63.623047" xlink:href="#DejaVuSans-2e"/>
       <use x="95.410156" xlink:href="#DejaVuSans-34"/>
      </g>
     </g>
    </g>
    <g id="ytick_4">
     <g id="line2d_35">
      <path clip-path="url(#pb02e2a3bb5)" d="M 56.12 134.460198 
L 333.168 134.460198 
" style="fill:none;stroke:#b0b0b0;stroke-linecap:square;stroke-width:0.8;"/>
     </g>
     <g id="line2d_36">
      <g>
       <use style="stroke:#000000;stroke-width:0.8;" x="56.12" xlink:href="#md750d897e8" y="134.460198"/>
      </g>
     </g>
     <g id="text_9">
      <!-- 0.6 -->
      <g transform="translate(23.675 140.538948)scale(0.16 -0.16)">
       <use xlink:href="#DejaVuSans-30"/>
       <use x="63.623047" xlink:href="#DejaVuSans-2e"/>
       <use x="95.410156" xlink:href="#DejaVuSans-36"/>
      </g>
     </g>
    </g>
    <g id="ytick_5">
     <g id="line2d_37">
      <path clip-path="url(#pb02e2a3bb5)" d="M 56.12 80.986931 
L 333.168 80.986931 
" style="fill:none;stroke:#b0b0b0;stroke-linecap:square;stroke-width:0.8;"/>
     </g>
     <g id="line2d_38">
      <g>
       <use style="stroke:#000000;stroke-width:0.8;" x="56.12" xlink:href="#md750d897e8" y="80.986931"/>
      </g>
     </g>
     <g id="text_10">
      <!-- 0.8 -->
      <defs>
       <path d="M 31.78125 34.625 
Q 24.75 34.625 20.71875 30.859375 
Q 16.703125 27.09375 16.703125 20.515625 
Q 16.703125 13.921875 20.71875 10.15625 
Q 24.75 6.390625 31.78125 6.390625 
Q 38.8125 6.390625 42.859375 10.171875 
Q 46.921875 13.96875 46.921875 20.515625 
Q 46.921875 27.09375 42.890625 30.859375 
Q 38.875 34.625 31.78125 34.625 
z
M 21.921875 38.8125 
Q 15.578125 40.375 12.03125 44.71875 
Q 8.5 49.078125 8.5 55.328125 
Q 8.5 64.0625 14.71875 69.140625 
Q 20.953125 74.21875 31.78125 74.21875 
Q 42.671875 74.21875 48.875 69.140625 
Q 55.078125 64.0625 55.078125 55.328125 
Q 55.078125 49.078125 51.53125 44.71875 
Q 48 40.375 41.703125 38.8125 
Q 48.828125 37.15625 52.796875 32.3125 
Q 56.78125 27.484375 56.78125 20.515625 
Q 56.78125 9.90625 50.3125 4.234375 
Q 43.84375 -1.421875 31.78125 -1.421875 
Q 19.734375 -1.421875 13.25 4.234375 
Q 6.78125 9.90625 6.78125 20.515625 
Q 6.78125 27.484375 10.78125 32.3125 
Q 14.796875 37.15625 21.921875 38.8125 
z
M 18.3125 54.390625 
Q 18.3125 48.734375 21.84375 45.5625 
Q 25.390625 42.390625 31.78125 42.390625 
Q 38.140625 42.390625 41.71875 45.5625 
Q 45.3125 48.734375 45.3125 54.390625 
Q 45.3125 60.0625 41.71875 63.234375 
Q 38.140625 66.40625 31.78125 66.40625 
Q 25.390625 66.40625 21.84375 63.234375 
Q 18.3125 60.0625 18.3125 54.390625 
z
" id="DejaVuSans-38"/>
      </defs>
      <g transform="translate(23.675 87.065681)scale(0.16 -0.16)">
       <use xlink:href="#DejaVuSans-30"/>
       <use x="63.623047" xlink:href="#DejaVuSans-2e"/>
       <use x="95.410156" xlink:href="#DejaVuSans-38"/>
      </g>
     </g>
    </g>
    <g id="ytick_6">
     <g id="line2d_39">
      <path clip-path="url(#pb02e2a3bb5)" d="M 56.12 27.513663 
L 333.168 27.513663 
" style="fill:none;stroke:#b0b0b0;stroke-linecap:square;stroke-width:0.8;"/>
     </g>
     <g id="line2d_40">
      <g>
       <use style="stroke:#000000;stroke-width:0.8;" x="56.12" xlink:href="#md750d897e8" y="27.513663"/>
      </g>
     </g>
     <g id="text_11">
      <!-- 1.0 -->
      <g transform="translate(23.675 33.592413)scale(0.16 -0.16)">
       <use xlink:href="#DejaVuSans-31"/>
       <use x="63.623047" xlink:href="#DejaVuSans-2e"/>
       <use x="95.410156" xlink:href="#DejaVuSans-30"/>
      </g>
     </g>
    </g>
    <g id="text_12">
     <!-- Fraction of function,target pairs -->
     <defs>
      <path d="M 9.8125 72.90625 
L 51.703125 72.90625 
L 51.703125 64.59375 
L 19.671875 64.59375 
L 19.671875 43.109375 
L 48.578125 43.109375 
L 48.578125 34.8125 
L 19.671875 34.8125 
L 19.671875 0 
L 9.8125 0 
z
" id="DejaVuSans-46"/>
      <path d="M 41.109375 46.296875 
Q 39.59375 47.171875 37.8125 47.578125 
Q 36.03125 48 33.890625 48 
Q 26.265625 48 22.1875 43.046875 
Q 18.109375 38.09375 18.109375 28.8125 
L 18.109375 0 
L 9.078125 0 
L 9.078125 54.6875 
L 18.109375 54.6875 
L 18.109375 46.1875 
Q 20.953125 51.171875 25.484375 53.578125 
Q 30.03125 56 36.53125 56 
Q 37.453125 56 38.578125 55.875 
Q 39.703125 55.765625 41.0625 55.515625 
z
" id="DejaVuSans-72"/>
      <path d="M 48.78125 52.59375 
L 48.78125 44.1875 
Q 44.96875 46.296875 41.140625 47.34375 
Q 37.3125 48.390625 33.40625 48.390625 
Q 24.65625 48.390625 19.8125 42.84375 
Q 14.984375 37.3125 14.984375 27.296875 
Q 14.984375 17.28125 19.8125 11.734375 
Q 24.65625 6.203125 33.40625 6.203125 
Q 37.3125 6.203125 41.140625 7.25 
Q 44.96875 8.296875 48.78125 10.40625 
L 48.78125 2.09375 
Q 45.015625 0.34375 40.984375 -0.53125 
Q 36.96875 -1.421875 32.421875 -1.421875 
Q 20.0625 -1.421875 12.78125 6.34375 
Q 5.515625 14.109375 5.515625 27.296875 
Q 5.515625 40.671875 12.859375 48.328125 
Q 20.21875 56 33.015625 56 
Q 37.15625 56 41.109375 55.140625 
Q 45.0625 54.296875 48.78125 52.59375 
z
" id="DejaVuSans-63"/>
      <path d="M 18.3125 70.21875 
L 18.3125 54.6875 
L 36.8125 54.6875 
L 36.8125 47.703125 
L 18.3125 47.703125 
L 18.3125 18.015625 
Q 18.3125 11.328125 20.140625 9.421875 
Q 21.96875 7.515625 27.59375 7.515625 
L 36.8125 7.515625 
L 36.8125 0 
L 27.59375 0 
Q 17.1875 0 13.234375 3.875 
Q 9.28125 7.765625 9.28125 18.015625 
L 9.28125 47.703125 
L 2.6875 47.703125 
L 2.6875 54.6875 
L 9.28125 54.6875 
L 9.28125 70.21875 
z
" id="DejaVuSans-74"/>
      <path d="M 8.5 21.578125 
L 8.5 54.6875 
L 17.484375 54.6875 
L 17.484375 21.921875 
Q 17.484375 14.15625 20.5 10.265625 
Q 23.53125 6.390625 29.59375 6.390625 
Q 36.859375 6.390625 41.078125 11.03125 
Q 45.3125 15.671875 45.3125 23.6875 
L 45.3125 54.6875 
L 54.296875 54.6875 
L 54.296875 0 
L 45.3125 0 
L 45.3125 8.40625 
Q 42.046875 3.421875 37.71875 1 
Q 33.40625 -1.421875 27.6875 -1.421875 
Q 18.265625 -1.421875 13.375 4.4375 
Q 8.5 10.296875 8.5 21.578125 
z
M 31.109375 56 
z
" id="DejaVuSans-75"/>
      <path d="M 11.71875 12.40625 
L 22.015625 12.40625 
L 22.015625 4 
L 14.015625 -11.625 
L 7.71875 -11.625 
L 11.71875 4 
z
" id="DejaVuSans-2c"/>
      <path d="M 18.109375 8.203125 
L 18.109375 -20.796875 
L 9.078125 -20.796875 
L 9.078125 54.6875 
L 18.109375 54.6875 
L 18.109375 46.390625 
Q 20.953125 51.265625 25.265625 53.625 
Q 29.59375 56 35.59375 56 
Q 45.5625 56 51.78125 48.09375 
Q 58.015625 40.1875 58.015625 27.296875 
Q 58.015625 14.40625 51.78125 6.484375 
Q 45.5625 -1.421875 35.59375 -1.421875 
Q 29.59375 -1.421875 25.265625 0.953125 
Q 20.953125 3.328125 18.109375 8.203125 
z
M 48.6875 27.296875 
Q 48.6875 37.203125 44.609375 42.84375 
Q 40.53125 48.484375 33.40625 48.484375 
Q 26.265625 48.484375 22.1875 42.84375 
Q 18.109375 37.203125 18.109375 27.296875 
Q 18.109375 17.390625 22.1875 11.75 
Q 26.265625 6.109375 33.40625 6.109375 
Q 40.53125 6.109375 44.609375 11.75 
Q 48.6875 17.390625 48.6875 27.296875 
z
" id="DejaVuSans-70"/>
     </defs>
     <g transform="translate(16.139531 294.999375)rotate(-90)scale(0.17 -0.17)">
      <use xlink:href="#DejaVuSans-46"/>
      <use x="57.410156" xlink:href="#DejaVuSans-72"/>
      <use x="98.523438" xlink:href="#DejaVuSans-61"/>
      <use x="159.802734" xlink:href="#DejaVuSans-63"/>
      <use x="214.783203" xlink:href="#DejaVuSans-74"/>
      <use x="253.992188" xlink:href="#DejaVuSans-69"/>
      <use x="281.775391" xlink:href="#DejaVuSans-6f"/>
      <use x="342.957031" xlink:href="#DejaVuSans-6e"/>
      <use x="406.335938" xlink:href="#DejaVuSans-20"/>
      <use x="438.123047" xlink:href="#DejaVuSans-6f"/>
      <use x="499.304688" xlink:href="#DejaVuSans-66"/>
      <use x="534.509766" xlink:href="#DejaVuSans-20"/>
      <use x="566.296875" xlink:href="#DejaVuSans-66"/>
      <use x="601.501953" xlink:href="#DejaVuSans-75"/>
      <use x="664.880859" xlink:href="#DejaVuSans-6e"/>
      <use x="728.259766" xlink:href="#DejaVuSans-63"/>
      <use x="783.240234" xlink:href="#DejaVuSans-74"/>
      <use x="822.449219" xlink:href="#DejaVuSans-69"/>
      <use x="850.232422" xlink:href="#DejaVuSans-6f"/>
      <use x="911.414062" xlink:href="#DejaVuSans-6e"/>
      <use x="974.792969" xlink:href="#DejaVuSans-2c"/>
      <use x="1006.580078" xlink:href="#DejaVuSans-74"/>
      <use x="1045.789062" xlink:href="#DejaVuSans-61"/>
      <use x="1107.068359" xlink:href="#DejaVuSans-72"/>
      <use x="1148.166016" xlink:href="#DejaVuSans-67"/>
      <use x="1211.642578" xlink:href="#DejaVuSans-65"/>
      <use x="1273.166016" xlink:href="#DejaVuSans-74"/>
      <use x="1312.375" xlink:href="#DejaVuSans-20"/>
      <use x="1344.162109" xlink:href="#DejaVuSans-70"/>
      <use x="1407.638672" xlink:href="#DejaVuSans-61"/>
      <use x="1468.917969" xlink:href="#DejaVuSans-69"/>
      <use x="1496.701172" xlink:href="#DejaVuSans-72"/>
      <use x="1537.814453" xlink:href="#DejaVuSans-73"/>
     </g>
    </g>
   </g>
   <g id="line2d_41">
    <defs>
     <path d="M 0 1.5 
C 0.397805 1.5 0.77937 1.341951 1.06066 1.06066 
C 1.341951 0.77937 1.5 0.397805 1.5 0 
C 1.5 -0.397805 1.341951 -0.77937 1.06066 -1.06066 
C 0.77937 -1.341951 0.397805 -1.5 0 -1.5 
C -0.397805 -1.5 -0.77937 -1.341951 -1.06066 -1.06066 
C -1.341951 -0.77937 -1.5 -0.397805 -1.5 0 
C -1.5 0.397805 -1.341951 0.77937 -1.06066 1.06066 
C -0.77937 1.341951 -0.397805 1.5 0 1.5 
z
" id="mbb620a98c5" style="stroke:#f5deb3;"/>
    </defs>
    <g>
     <use style="fill:#f5deb3;stroke:#f5deb3;" x="153.278551" xlink:href="#mbb620a98c5" y="27.513663"/>
     <use style="fill:#f5deb3;stroke:#f5deb3;" x="153.278551" xlink:href="#mbb620a98c5" y="27.513663"/>
    </g>
   </g>
   <g id="line2d_42">
    <defs>
     <path d="M 0 1.5 
C 0.397805 1.5 0.77937 1.341951 1.06066 1.06066 
C 1.341951 0.77937 1.5 0.397805 1.5 0 
C 1.5 -0.397805 1.341951 -0.77937 1.06066 -1.06066 
C 0.77937 -1.341951 0.397805 -1.5 0 -1.5 
C -0.397805 -1.5 -0.77937 -1.341951 -1.06066 -1.06066 
C -1.341951 -0.77937 -1.5 -0.397805 -1.5 0 
C -1.5 0.397805 -1.341951 0.77937 -1.06066 1.06066 
C -0.77937 1.341951 -0.397805 1.5 0 1.5 
z
" id="m3a0ee200a2" style="stroke:#000080;"/>
    </defs>
    <g>
     <use style="fill:#000080;stroke:#000080;" x="240.468045" xlink:href="#m3a0ee200a2" y="247.697705"/>
     <use style="fill:#000080;stroke:#000080;" x="240.468045" xlink:href="#m3a0ee200a2" y="247.697705"/>
    </g>
   </g>
   <g id="line2d_43">
    <path d="M 37.236359 294.88 
L 37.236359 288.589027 
L 49.15061 288.589027 
L 49.15061 287.016284 
L 61.064861 287.016284 
L 61.064861 286.492036 
L 68.034251 286.492036 
L 68.034251 285.443541 
L 70.68389 285.443541 
L 70.68389 282.822302 
L 72.979112 282.822302 
L 72.979112 282.298055 
L 76.814644 282.298055 
L 76.814644 281.773807 
L 81.324327 281.773807 
L 81.324327 280.725312 
L 82.598142 280.725312 
L 82.598142 279.676816 
L 104.131422 279.676816 
L 104.131422 279.152568 
L 105.152829 279.152568 
L 105.152829 278.628321 
L 107.612537 278.628321 
L 107.612537 277.579825 
L 112.341186 277.579825 
L 112.341186 277.055578 
L 113.396034 277.055578 
L 113.396034 275.482834 
L 115.691256 275.482834 
L 115.691256 272.861596 
L 117.715785 272.861596 
L 117.715785 272.337348 
L 125.000572 272.337348 
L 125.000572 271.8131 
L 125.913457 271.8131 
L 125.913457 271.288853 
L 126.496178 271.288853 
L 126.496178 269.191862 
L 126.967129 269.191862 
L 126.967129 268.667614 
L 137.377325 268.667614 
L 137.377325 268.143366 
L 137.827708 268.143366 
L 137.827708 267.619119 
L 142.920112 267.619119 
L 142.920112 267.094871 
L 145.187766 267.094871 
L 145.187766 266.570623 
L 147.643181 266.570623 
L 147.643181 266.046375 
L 148.672099 266.046375 
L 148.672099 265.522128 
L 149.741959 265.522128 
L 149.741959 264.99788 
L 156.727806 264.99788 
L 156.727806 264.473632 
L 164.990581 264.473632 
L 164.990581 263.425137 
L 166.638076 263.425137 
L 166.638076 262.900889 
L 169.429706 262.900889 
L 169.429706 262.376641 
L 171.239923 262.376641 
L 171.239923 261.852394 
L 171.415785 261.852394 
L 171.415785 260.803898 
L 174.5076 260.803898 
L 174.5076 260.279651 
L 175.95344 260.279651 
L 175.95344 259.755403 
L 176.864101 259.755403 
L 176.864101 259.231155 
L 180.789115 259.231155 
L 180.789115 258.706907 
L 183.717558 258.706907 
L 183.717558 258.18266 
L 184.116604 258.18266 
L 184.116604 257.658412 
L 185.729919 257.658412 
L 185.729919 256.609917 
L 186.103207 256.609917 
L 186.103207 256.085669 
L 186.503508 256.085669 
L 186.503508 255.037173 
L 186.90607 255.037173 
L 186.90607 254.512926 
L 192.593482 254.512926 
L 192.593482 253.988678 
L 193.898182 253.988678 
L 193.898182 253.46443 
L 197.885927 253.46443 
L 197.885927 252.940182 
L 198.654688 252.940182 
L 198.654688 252.415935 
L 198.717702 252.415935 
L 198.717702 251.891687 
L 205.406534 251.891687 
L 205.406534 251.367439 
L 208.530056 251.367439 
L 208.530056 250.843192 
L 212.201972 250.843192 
L 212.201972 250.318944 
L 215.918624 250.318944 
L 215.918624 249.794696 
L 227.965841 249.794696 
L 227.965841 249.270448 
L 230.864127 249.270448 
L 230.864127 248.746201 
L 237.605865 248.746201 
L 237.605865 248.221953 
L 240.468045 248.221953 
L 240.468045 247.697705 
L 333.168 247.697705 
" style="fill:none;stroke:#000080;stroke-linecap:square;stroke-width:1.5;"/>
   </g>
   <g id="line2d_44">
    <defs>
     <path d="M 0 6 
C 1.591219 6 3.117479 5.367802 4.242641 4.242641 
C 5.367802 3.117479 6 1.591219 6 0 
C 6 -1.591219 5.367802 -3.117479 4.242641 -4.242641 
C 3.117479 -5.367802 1.591219 -6 0 -6 
C -1.591219 -6 -3.117479 -5.367802 -4.242641 -4.242641 
C -5.367802 -3.117479 -6 -1.591219 -6 0 
C -6 1.591219 -5.367802 3.117479 -4.242641 4.242641 
C -3.117479 5.367802 -1.591219 6 0 6 
z
" id="me930f10883" style="stroke:#000080;stroke-width:1.5;"/>
    </defs>
    <g>
     <use style="fill:none;stroke:#000080;stroke-width:1.5;" x="82.598142" xlink:href="#me930f10883" y="279.676816"/>
     <use style="fill:none;stroke:#000080;stroke-width:1.5;" x="149.741959" xlink:href="#me930f10883" y="264.99788"/>
     <use style="fill:none;stroke:#000080;stroke-width:1.5;" x="230.864127" xlink:href="#me930f10883" y="249.270448"/>
     <use style="fill:none;stroke:#000080;stroke-width:1.5;" x="240.468045" xlink:href="#me930f10883" y="247.697705"/>
     <use style="fill:none;stroke:#000080;stroke-width:1.5;" x="240.468045" xlink:href="#me930f10883" y="247.697705"/>
     <use style="fill:none;stroke:#000080;stroke-width:1.5;" x="333.168" xlink:href="#me930f10883" y="247.697705"/>
    </g>
   </g>
   <g id="line2d_45">
    <path style="fill:none;stroke:#000080;stroke-linecap:square;stroke-width:1.5;"/>
    <g/>
   </g>
   <g id="line2d_46">
    <path clip-path="url(#pb02e2a3bb5)" d="M 186.803451 255.037173 
" style="fill:none;stroke:#000080;stroke-linecap:square;stroke-width:1.5;"/>
    <defs>
     <path d="M -12 12 
L 12 -12 
M -12 -12 
L 12 12 
" id="mde02f3cec6" style="stroke:#000080;"/>
    </defs>
    <g clip-path="url(#pb02e2a3bb5)">
     <use style="fill:#000080;stroke:#000080;" x="186.803451" xlink:href="#mde02f3cec6" y="255.037173"/>
    </g>
   </g>
   <g id="line2d_47">
    <defs>
     <path d="M 0 1.5 
C 0.397805 1.5 0.77937 1.341951 1.06066 1.06066 
C 1.341951 0.77937 1.5 0.397805 1.5 0 
C 1.5 -0.397805 1.341951 -0.77937 1.06066 -1.06066 
C 0.77937 -1.341951 0.397805 -1.5 0 -1.5 
C -0.397805 -1.5 -0.77937 -1.341951 -1.06066 -1.06066 
C -1.341951 -0.77937 -1.5 -0.397805 -1.5 0 
C -1.5 0.397805 -1.341951 0.77937 -1.06066 1.06066 
C -0.77937 1.341951 -0.397805 1.5 0 1.5 
z
" id="m33239f75d1" style="stroke:#ff00ff;"/>
    </defs>
    <g>
     <use style="fill:#ff00ff;stroke:#ff00ff;" x="231.790732" xlink:href="#m33239f75d1" y="237.212751"/>
     <use style="fill:#ff00ff;stroke:#ff00ff;" x="231.790732" xlink:href="#m33239f75d1" y="237.212751"/>
    </g>
   </g>
   <g id="line2d_48">
    <path d="M 37.236359 294.88 
L 37.236359 289.637523 
L 49.15061 289.637523 
L 49.15061 286.492036 
L 56.12 286.492036 
L 56.12 284.919293 
L 61.064861 284.919293 
L 61.064861 283.34655 
L 78.452896 283.34655 
L 78.452896 281.773807 
L 82.598142 281.773807 
L 82.598142 281.249559 
L 84.893363 281.249559 
L 84.893363 280.725312 
L 85.935418 280.725312 
L 85.935418 280.201064 
L 87.847234 280.201064 
L 87.847234 279.152568 
L 88.728896 279.152568 
L 88.728896 278.628321 
L 90.367147 278.628321 
L 90.367147 278.104073 
L 93.238578 278.104073 
L 93.238578 277.579825 
L 94.512393 277.579825 
L 94.512393 276.007082 
L 97.849669 276.007082 
L 97.849669 275.482834 
L 98.347925 275.482834 
L 98.347925 274.958587 
L 101.481783 274.958587 
L 101.481783 274.434339 
L 104.478679 274.434339 
L 104.478679 273.385844 
L 110.746395 273.385844 
L 110.746395 272.861596 
L 111.675736 272.861596 
L 111.675736 272.337348 
L 111.900428 272.337348 
L 111.900428 271.288853 
L 112.122219 271.288853 
L 112.122219 270.240357 
L 112.557398 270.240357 
L 112.557398 268.667614 
L 114.195649 268.667614 
L 114.195649 268.143366 
L 114.959714 268.143366 
L 114.959714 267.619119 
L 115.329377 267.619119 
L 115.329377 267.094871 
L 116.901005 267.094871 
L 116.901005 266.570623 
L 118.031182 266.570623 
L 118.031182 266.046375 
L 118.493684 266.046375 
L 118.493684 265.522128 
L 119.810904 265.522128 
L 119.810904 264.99788 
L 122.176427 264.99788 
L 122.176427 264.473632 
L 122.420242 264.473632 
L 122.420242 263.949385 
L 123.36232 263.949385 
L 123.36232 263.425137 
L 126.873966 263.425137 
L 126.873966 262.900889 
L 127.42552 262.900889 
L 127.42552 262.376641 
L 127.694799 262.376641 
L 127.694799 261.852394 
L 128.647561 261.852394 
L 128.647561 261.328146 
L 129.063771 261.328146 
L 129.063771 260.279651 
L 129.70943 260.279651 
L 129.70943 259.755403 
L 129.945433 259.755403 
L 129.945433 259.231155 
L 136.862657 259.231155 
L 136.862657 258.706907 
L 138.505658 258.706907 
L 138.505658 258.18266 
L 138.647518 258.18266 
L 138.647518 257.658412 
L 138.834862 257.658412 
L 138.927773 256.609917 
L 139.474938 256.609917 
L 139.474938 256.085669 
L 139.742124 256.085669 
L 139.742124 255.561421 
L 140.729508 255.561421 
L 140.729508 255.037173 
L 141.100945 255.037173 
L 141.100945 254.512926 
L 143.568817 254.512926 
L 143.568817 253.988678 
L 147.947413 253.988678 
L 147.947413 253.46443 
L 180.914418 253.46443 
L 180.914418 252.940182 
L 181.469193 252.940182 
L 181.469193 252.415935 
L 188.006871 252.415935 
L 188.006871 251.891687 
L 188.323818 251.891687 
L 188.323818 251.367439 
L 188.511219 251.367439 
L 188.511219 250.843192 
L 188.745186 250.843192 
L 188.745186 250.318944 
L 189.058958 250.318944 
L 189.058958 249.794696 
L 191.234661 249.794696 
L 191.234661 249.270448 
L 191.545558 249.270448 
L 191.545558 248.746201 
L 192.943066 248.746201 
L 192.943066 248.221953 
L 195.179428 248.221953 
L 195.179428 247.697705 
L 201.604631 247.697705 
L 201.604631 247.173458 
L 202.406224 247.173458 
L 202.406224 246.64921 
L 202.658127 246.64921 
L 202.658127 246.124962 
L 202.956734 246.124962 
L 202.956734 245.600714 
L 205.957517 245.600714 
L 205.957517 245.076467 
L 207.522095 245.076467 
L 207.522095 244.552219 
L 207.650945 244.552219 
L 207.650945 244.027971 
L 211.320586 244.027971 
L 211.320586 243.503724 
L 211.897904 243.503724 
L 211.897904 242.979476 
L 213.463807 242.979476 
L 213.463807 242.455228 
L 213.756517 242.455228 
L 213.756517 241.93098 
L 216.447993 241.93098 
L 216.447993 241.406733 
L 216.586043 241.406733 
L 216.586043 240.882485 
L 218.984205 240.882485 
L 218.984205 240.358237 
L 223.654729 240.358237 
L 223.654729 239.83399 
L 224.018089 239.83399 
L 224.018089 239.309742 
L 227.057867 239.309742 
L 227.057867 238.785494 
L 228.244126 238.785494 
L 228.244126 238.261246 
L 229.254883 238.261246 
L 229.254883 237.736999 
L 231.790732 237.736999 
L 231.790732 237.212751 
L 333.168 237.212751 
L 333.168 237.212751 
" style="fill:none;stroke:#ff00ff;stroke-linecap:square;stroke-width:1.5;"/>
   </g>
   <g id="line2d_49">
    <defs>
     <path d="M -0 8.485281 
L 5.091169 0 
L 0 -8.485281 
L -5.091169 -0 
z
" id="m441e0bb7b6" style="stroke:#ff00ff;stroke-linejoin:miter;stroke-width:1.5;"/>
    </defs>
    <g>
     <use style="fill:none;stroke:#ff00ff;stroke-linejoin:miter;stroke-width:1.5;" x="97.849669" xlink:href="#m441e0bb7b6" y="276.007082"/>
     <use style="fill:none;stroke:#ff00ff;stroke-linejoin:miter;stroke-width:1.5;" x="147.947413" xlink:href="#m441e0bb7b6" y="253.46443"/>
     <use style="fill:none;stroke:#ff00ff;stroke-linejoin:miter;stroke-width:1.5;" x="231.790732" xlink:href="#m441e0bb7b6" y="237.736999"/>
     <use style="fill:none;stroke:#ff00ff;stroke-linejoin:miter;stroke-width:1.5;" x="231.790732" xlink:href="#m441e0bb7b6" y="237.212751"/>
     <use style="fill:none;stroke:#ff00ff;stroke-linejoin:miter;stroke-width:1.5;" x="231.790732" xlink:href="#m441e0bb7b6" y="237.212751"/>
     <use style="fill:none;stroke:#ff00ff;stroke-linejoin:miter;stroke-width:1.5;" x="333.168" xlink:href="#m441e0bb7b6" y="237.212751"/>
    </g>
   </g>
   <g id="line2d_50">
    <path style="fill:none;stroke:#ff00ff;stroke-linecap:square;stroke-width:1.5;"/>
    <g/>
   </g>
   <g id="line2d_51">
    <path clip-path="url(#pb02e2a3bb5)" d="M 189.845575 249.794696 
" style="fill:none;stroke:#ff00ff;stroke-linecap:square;stroke-width:1.5;"/>
    <defs>
     <path d="M -12 12 
L 12 -12 
M -12 -12 
L 12 12 
" id="m6f6b40bffc" style="stroke:#ff00ff;"/>
    </defs>
    <g clip-path="url(#pb02e2a3bb5)">
     <use style="fill:#ff00ff;stroke:#ff00ff;" x="189.845575" xlink:href="#m6f6b40bffc" y="249.794696"/>
    </g>
   </g>
   <g id="line2d_52">
    <defs>
     <path d="M 0 1.5 
C 0.397805 1.5 0.77937 1.341951 1.06066 1.06066 
C 1.341951 0.77937 1.5 0.397805 1.5 0 
C 1.5 -0.397805 1.341951 -0.77937 1.06066 -1.06066 
C 0.77937 -1.341951 0.397805 -1.5 0 -1.5 
C -0.397805 -1.5 -0.77937 -1.341951 -1.06066 -1.06066 
C -1.341951 -0.77937 -1.5 -0.397805 -1.5 0 
C -1.5 0.397805 -1.341951 0.77937 -1.06066 1.06066 
C -0.77937 1.341951 -0.397805 1.5 0 1.5 
z
" id="m46c4acfc8a" style="stroke:#ff7500;"/>
    </defs>
    <g>
     <use style="fill:#ff7500;stroke:#ff7500;" x="294.268178" xlink:href="#m46c4acfc8a" y="27.513663"/>
     <use style="fill:#ff7500;stroke:#ff7500;" x="294.268178" xlink:href="#m46c4acfc8a" y="27.513663"/>
    </g>
   </g>
   <g id="line2d_53">
    <path d="M 37.236359 294.88 
L 37.236359 289.637523 
L 49.15061 289.637523 
L 49.15061 287.016284 
L 56.12 287.016284 
L 56.12 286.492036 
L 61.064861 286.492036 
L 61.064861 285.967789 
L 64.900393 285.967789 
L 64.900393 285.443541 
L 68.034251 285.443541 
L 68.034251 283.870798 
L 70.68389 283.870798 
L 70.68389 283.34655 
L 72.979112 283.34655 
L 72.979112 282.822302 
L 76.814644 282.822302 
L 76.814644 282.298055 
L 91.862754 282.298055 
L 91.862754 281.773807 
L 95.698286 281.773807 
L 95.698286 281.249559 
L 96.807615 281.249559 
L 96.807615 280.725312 
L 98.347925 280.725312 
L 98.347925 279.676816 
L 98.832144 279.676816 
L 98.832144 279.152568 
L 99.761485 279.152568 
L 99.761485 278.628321 
L 101.88624 278.628321 
L 101.88624 278.104073 
L 108.451173 278.104073 
L 108.451173 277.055578 
L 110.505991 277.055578 
L 110.505991 276.007082 
L 110.983483 276.007082 
L 110.983483 275.482834 
L 111.448069 275.482834 
L 111.448069 274.434339 
L 111.900428 274.434339 
L 111.900428 273.385844 
L 115.329377 273.385844 
L 115.329377 272.861596 
L 116.73331 272.861596 
L 116.73331 272.337348 
L 117.231566 272.337348 
L 117.231566 271.8131 
L 117.874207 271.8131 
L 117.874207 271.288853 
L 119.95122 271.288853 
L 119.95122 270.764605 
L 120.0904 270.764605 
L 120.0904 270.240357 
L 122.298767 270.240357 
L 122.298767 269.716109 
L 122.660646 269.716109 
L 122.660646 267.094871 
L 124.363883 267.094871 
L 124.363883 266.570623 
L 125.412295 266.570623 
L 125.412295 265.522128 
L 126.591406 265.522128 
L 126.591406 264.99788 
L 127.243628 264.99788 
L 127.243628 264.473632 
L 127.694799 264.473632 
L 127.694799 263.425137 
L 128.13443 263.425137 
L 128.221023 262.376641 
L 132.483094 262.376641 
L 132.483094 261.328146 
L 132.61738 261.328146 
L 132.61738 260.803898 
L 133.465568 260.803898 
L 133.465568 260.279651 
L 133.843356 260.279651 
L 133.905521 258.18266 
L 135.950722 258.18266 
L 135.950722 257.658412 
L 137.975251 257.658412 
L 137.975251 257.134164 
L 142.015238 257.134164 
L 142.015238 256.609917 
L 143.066399 256.609917 
L 143.066399 256.085669 
L 145.601203 256.085669 
L 145.601203 255.561421 
L 146.188114 255.561421 
L 146.188114 254.512926 
L 146.429362 254.512926 
L 146.429362 253.988678 
L 149.840462 253.988678 
L 149.840462 253.46443 
L 150.419909 253.46443 
L 150.419909 252.940182 
L 150.888293 252.940182 
L 150.934437 251.891687 
L 151.208729 251.891687 
L 151.208729 251.367439 
L 151.700505 251.367439 
L 151.700505 250.318944 
L 153.773935 250.318944 
L 153.812956 249.270448 
L 154.852717 249.270448 
L 154.852717 248.746201 
L 156.512635 248.746201 
L 156.512635 247.697705 
L 156.711349 247.697705 
L 156.711349 247.173458 
L 158.625765 247.173458 
L 158.625765 246.124962 
L 158.845291 246.124962 
L 158.845291 245.076467 
L 179.799718 245.076467 
L 179.799718 244.552219 
L 180.042927 244.552219 
L 180.042927 244.027971 
L 181.182152 244.027971 
L 181.213844 242.979476 
L 182.157136 242.979476 
L 182.157136 242.455228 
L 182.630112 242.455228 
L 182.630112 241.93098 
L 183.273956 241.93098 
L 183.273956 241.406733 
L 183.459026 241.406733 
L 183.459026 240.882485 
L 183.621494 240.882485 
L 183.621494 240.358237 
L 191.927495 240.358237 
L 191.927495 239.83399 
L 208.262235 239.83399 
L 208.262235 239.309742 
L 208.66362 239.309742 
L 208.66362 238.785494 
L 211.395273 238.785494 
L 211.395273 238.261246 
L 211.78465 238.261246 
L 211.892591 237.212751 
L 211.991936 237.212751 
L 212.080858 235.640008 
L 212.464814 235.640008 
L 212.464814 235.11576 
L 213.81007 235.11576 
L 213.81007 234.591512 
L 213.945584 234.591512 
L 213.945584 234.067265 
L 214.183827 234.067265 
L 214.24302 232.494521 
L 214.336616 232.494521 
L 214.336616 231.970274 
L 214.493198 231.970274 
L 214.591123 228.824787 
L 214.645537 228.824787 
L 214.706548 227.252044 
L 214.906695 227.252044 
L 215.014489 223.058063 
L 215.097374 223.058063 
L 215.097374 222.533815 
L 215.609484 222.533815 
L 215.609484 222.009567 
L 215.987853 222.009567 
L 215.987853 221.485319 
L 216.793558 221.485319 
L 216.79955 220.436824 
L 216.935807 220.436824 
L 216.935807 219.912576 
L 217.297036 219.912576 
L 217.297036 219.388328 
L 218.440615 219.388328 
L 218.440615 218.864081 
L 221.687025 218.864081 
L 221.687025 218.339833 
L 222.708403 218.339833 
L 222.708403 217.815585 
L 223.77493 217.815585 
L 223.77493 217.291338 
L 225.140924 217.291338 
L 225.140924 216.76709 
L 225.258221 216.76709 
L 225.258221 215.718594 
L 225.642138 215.718594 
L 225.642138 215.194347 
L 225.935118 215.194347 
L 225.935118 214.670099 
L 226.077429 214.670099 
L 226.098369 213.621604 
L 226.278502 213.621604 
L 226.338798 212.04886 
L 226.516725 212.04886 
L 226.559788 211.000365 
L 227.257908 211.000365 
L 227.257908 210.476117 
L 227.398613 210.476117 
L 227.398613 209.95187 
L 227.521595 209.95187 
L 227.521595 209.427622 
L 227.977049 209.427622 
L 228.051409 208.379126 
L 228.566639 208.379126 
L 228.566639 207.330631 
L 229.669531 207.330631 
L 229.669531 206.806383 
L 230.080867 206.806383 
L 230.142313 205.757888 
L 230.483265 205.757888 
L 230.483265 205.23364 
L 231.65537 205.23364 
L 231.726536 202.612401 
L 232.044938 202.612401 
L 232.081916 201.039658 
L 232.201547 201.039658 
L 232.270492 199.466915 
L 232.73189 199.466915 
L 232.73189 198.942667 
L 232.850236 198.942667 
L 232.90666 197.894172 
L 233.079091 197.894172 
L 233.137279 196.321429 
L 233.234464 196.321429 
L 233.234464 195.797181 
L 233.424543 195.797181 
L 233.519744 193.70019 
L 233.693077 193.70019 
L 233.693077 193.175943 
L 233.942569 193.175943 
L 233.99222 192.127447 
L 234.142319 192.127447 
L 234.142319 191.603199 
L 234.801915 191.603199 
L 234.801915 191.078952 
L 234.936448 191.078952 
L 235.021578 189.506209 
L 235.091998 189.506209 
L 235.129162 187.933465 
L 235.863969 187.933465 
L 235.863969 187.409218 
L 236.171297 187.409218 
L 236.171297 186.88497 
L 236.435357 186.88497 
L 236.504828 185.312227 
L 236.71032 185.312227 
L 236.738828 184.263731 
L 236.834034 184.263731 
L 236.901916 183.215236 
L 237.211192 183.215236 
L 237.211192 182.690988 
L 237.488352 182.690988 
L 237.549822 181.642493 
L 237.635156 181.642493 
L 237.731004 179.545502 
L 237.833664 179.545502 
L 237.942429 178.497006 
L 238.001862 178.497006 
L 238.003607 177.448511 
L 238.170015 177.448511 
L 238.170015 176.924263 
L 238.891113 176.924263 
L 238.909607 175.35152 
L 239.15653 175.35152 
L 239.15653 174.827272 
L 239.47273 174.827272 
L 239.47273 174.303025 
L 239.790558 174.303025 
L 239.790558 173.778777 
L 240.065385 173.778777 
L 240.065385 173.254529 
L 240.427936 173.254529 
L 240.427936 172.730281 
L 240.796475 172.730281 
L 240.799441 171.681786 
L 240.930181 171.681786 
L 240.930181 171.157538 
L 241.052752 171.157538 
L 241.052752 170.633291 
L 241.179533 170.633291 
L 241.179533 170.109043 
L 241.31834 170.109043 
L 241.31834 169.584795 
L 241.465547 169.584795 
L 241.531044 168.5363 
L 241.724645 168.5363 
L 241.724645 168.012052 
L 241.877019 168.012052 
L 241.946866 165.915061 
L 242.047833 165.915061 
L 242.109549 164.866566 
L 242.421597 164.866566 
L 242.421597 164.342318 
L 242.573405 164.342318 
L 242.588557 163.293823 
L 242.696129 163.293823 
L 242.696129 162.769575 
L 243.412816 162.769575 
L 243.422791 161.721079 
L 243.596632 161.721079 
L 243.670511 160.148336 
L 243.726676 160.148336 
L 243.789618 158.575593 
L 243.952916 158.575593 
L 244.059869 157.527098 
L 244.228124 157.527098 
L 244.326944 156.478602 
L 244.345755 156.478602 
L 244.415388 154.905859 
L 244.660263 154.905859 
L 244.706302 153.857364 
L 245.141517 153.857364 
L 245.205903 152.808868 
L 245.409441 152.808868 
L 245.409441 152.28462 
L 246.163452 152.28462 
L 246.163452 151.760373 
L 246.646129 151.760373 
L 246.733413 150.711877 
L 246.758681 150.711877 
L 246.776496 149.663382 
L 247.254631 149.663382 
L 247.254631 149.139134 
L 247.506336 149.139134 
L 247.577544 146.517896 
L 247.706269 146.517896 
L 247.778303 145.4694 
L 247.953042 145.4694 
L 248.006021 144.420905 
L 248.281614 144.420905 
L 248.340526 143.372409 
L 248.579441 143.372409 
L 248.591697 142.323914 
L 248.722039 142.323914 
L 248.785599 141.275418 
L 248.935897 141.275418 
L 248.935897 140.751171 
L 249.105942 140.751171 
L 249.163771 139.702675 
L 249.437553 139.702675 
L 249.471089 138.65418 
L 249.693126 138.65418 
L 249.711605 137.605684 
L 249.874182 137.605684 
L 249.874182 137.081437 
L 250.049959 137.081437 
L 250.134809 135.508693 
L 250.635578 135.508693 
L 250.635578 134.984446 
L 250.749209 134.984446 
L 250.749209 134.460198 
L 250.883895 134.460198 
L 250.962137 133.411703 
L 251.101076 133.411703 
L 251.188266 132.363207 
L 251.277301 132.363207 
L 251.277301 131.838959 
L 251.52903 131.838959 
L 251.52903 131.314712 
L 251.721772 131.314712 
L 251.771188 128.693473 
L 251.856286 128.693473 
L 251.934825 127.644978 
L 252.054661 127.644978 
L 252.111899 126.596482 
L 252.201317 126.596482 
L 252.281213 125.023739 
L 252.330628 125.023739 
L 252.330628 124.499491 
L 252.52963 124.499491 
L 252.568121 123.450996 
L 252.753253 123.450996 
L 252.767919 121.878253 
L 252.973456 121.878253 
L 253.055909 119.781262 
L 253.207753 119.781262 
L 253.283115 118.208519 
L 253.520746 118.208519 
L 253.554435 117.160023 
L 253.655107 117.160023 
L 253.655107 116.635776 
L 253.83613 116.635776 
L 253.932869 115.063032 
L 254.011715 115.063032 
L 254.011715 114.538785 
L 254.225973 114.538785 
L 254.302644 112.966042 
L 254.590781 112.966042 
L 254.599476 111.917546 
L 254.800337 111.917546 
L 254.833359 110.869051 
L 254.976196 110.869051 
L 255.067659 108.77206 
L 255.139655 108.77206 
L 255.139655 108.247812 
L 255.259744 108.247812 
L 255.259744 107.723564 
L 255.420065 107.723564 
L 255.420065 107.199317 
L 255.541468 107.199317 
L 255.565144 106.150821 
L 255.743233 106.150821 
L 255.794081 104.578078 
L 255.883617 104.578078 
L 255.908674 103.529583 
L 256.057386 103.529583 
L 256.158514 101.956839 
L 256.372443 101.956839 
L 256.440131 100.908344 
L 256.767211 100.908344 
L 256.767211 100.384096 
L 257.037472 100.384096 
L 257.043669 99.335601 
L 257.387225 99.335601 
L 257.460371 98.287105 
L 257.709684 98.287105 
L 257.80621 97.23861 
L 257.905714 97.23861 
L 257.905714 96.714362 
L 258.080236 96.714362 
L 258.176642 95.141619 
L 258.217692 95.141619 
L 258.326977 94.093124 
L 258.419176 94.093124 
L 258.449608 93.044628 
L 258.969047 93.044628 
L 258.980594 91.996133 
L 259.26192 91.996133 
L 259.313303 90.42339 
L 259.535143 90.42339 
L 259.535143 89.899142 
L 259.681805 89.899142 
L 259.742502 88.850646 
L 259.832291 88.850646 
L 259.877723 87.802151 
L 260.165372 87.802151 
L 260.165372 87.277903 
L 260.489369 87.277903 
L 260.555666 86.229408 
L 260.665804 86.229408 
L 260.665804 85.70516 
L 260.799036 85.70516 
L 260.799036 85.180912 
L 260.962398 85.180912 
L 260.994106 84.132417 
L 261.339164 84.132417 
L 261.353523 83.083922 
L 261.575453 83.083922 
L 261.601521 82.035426 
L 262.010933 82.035426 
L 262.092368 80.986931 
L 262.310922 80.986931 
L 262.350296 79.938435 
L 262.470539 79.938435 
L 262.470539 79.414188 
L 262.609171 79.414188 
L 262.692287 78.365692 
L 262.764057 78.365692 
L 262.804777 77.317197 
L 263.031641 77.317197 
L 263.031641 76.792949 
L 263.231574 76.792949 
L 263.231574 76.268701 
L 263.490382 76.268701 
L 263.584823 75.220206 
L 263.618045 75.220206 
L 263.618045 74.695958 
L 263.883179 74.695958 
L 263.987906 72.598967 
L 264.082306 72.598967 
L 264.082306 72.074719 
L 264.334992 72.074719 
L 264.334992 71.550472 
L 264.902825 71.550472 
L 264.927586 70.501976 
L 265.078512 70.501976 
L 265.174697 69.453481 
L 265.311546 69.453481 
L 265.311546 68.929233 
L 265.582953 68.929233 
L 265.587278 67.880738 
L 265.865788 67.880738 
L 265.865788 67.35649 
L 266.117802 67.35649 
L 266.16225 66.307995 
L 266.488155 66.307995 
L 266.570496 64.211004 
L 267.294442 64.211004 
L 267.305418 62.114013 
L 267.44644 62.114013 
L 267.53479 61.065517 
L 267.748264 61.065517 
L 267.770254 60.017022 
L 267.870908 60.017022 
L 267.956472 58.968526 
L 268.066949 58.968526 
L 268.169456 57.395783 
L 268.203815 57.395783 
L 268.23192 56.347288 
L 268.340846 56.347288 
L 268.340846 55.82304 
L 268.720269 55.82304 
L 268.773948 54.774545 
L 268.874435 54.774545 
L 268.876679 53.726049 
L 269.2361 53.726049 
L 269.340554 52.677554 
L 269.351824 52.677554 
L 269.351824 52.153306 
L 269.466913 52.153306 
L 269.466913 51.629058 
L 269.8135 51.629058 
L 269.829304 50.580563 
L 270.471618 50.580563 
L 270.556708 49.00782 
L 270.598102 49.00782 
L 270.638416 47.959324 
L 271.161158 47.959324 
L 271.161158 47.435077 
L 271.297488 47.435077 
L 271.297488 46.910829 
L 271.420306 46.910829 
L 271.420306 46.386581 
L 272.175999 46.386581 
L 272.175999 45.862334 
L 272.551905 45.862334 
L 272.551905 45.338086 
L 272.932672 45.338086 
L 272.932672 44.813838 
L 273.277882 44.813838 
L 273.311768 43.765343 
L 273.691547 43.765343 
L 273.691547 43.241095 
L 274.110212 43.241095 
L 274.110212 42.716847 
L 274.486623 42.716847 
L 274.486623 42.192599 
L 275.001738 42.192599 
L 275.001738 41.668352 
L 275.151973 41.668352 
L 275.20288 40.619856 
L 275.387444 40.619856 
L 275.387444 40.095609 
L 275.771472 40.095609 
L 275.803624 39.047113 
L 275.928591 39.047113 
L 275.928591 38.522865 
L 276.121528 38.522865 
L 276.121528 37.998618 
L 276.261934 37.998618 
L 276.261934 37.47437 
L 276.585515 37.47437 
L 276.585515 36.950122 
L 276.74679 36.950122 
L 276.79036 35.901627 
L 276.953595 35.901627 
L 276.958315 34.853131 
L 277.074038 34.853131 
L 277.074038 34.328884 
L 277.269874 34.328884 
L 277.269874 33.804636 
L 277.795671 33.804636 
L 277.795671 33.280388 
L 278.256871 33.280388 
L 278.256871 32.756141 
L 278.466416 32.756141 
L 278.466416 32.231893 
L 278.659308 32.231893 
L 278.659308 31.707645 
L 279.273175 31.707645 
L 279.273175 31.183397 
L 281.758661 31.183397 
L 281.758661 30.65915 
L 282.812186 30.65915 
L 282.812186 30.134902 
L 282.977977 30.134902 
L 282.977977 29.610654 
L 283.529998 29.610654 
L 283.529998 29.086407 
L 285.034189 29.086407 
L 285.034189 28.562159 
L 285.276629 28.562159 
L 285.276629 28.037911 
L 294.268178 28.037911 
L 294.268178 27.513663 
L 333.168 27.513663 
L 333.168 27.513663 
" style="fill:none;stroke:#ff7500;stroke-linecap:square;stroke-width:1.5;"/>
   </g>
   <g id="line2d_54">
    <defs>
     <path d="M 0 -6 
L -1.347084 -1.854102 
L -5.706339 -1.854102 
L -2.179628 0.708204 
L -3.526712 4.854102 
L -0 2.291796 
L 3.526712 4.854102 
L 2.179628 0.708204 
L 5.706339 -1.854102 
L 1.347084 -1.854102 
z
" id="mf33dff04f7" style="stroke:#ff7500;stroke-linejoin:bevel;stroke-width:1.5;"/>
    </defs>
    <g>
     <use style="fill:none;stroke:#ff7500;stroke-linejoin:bevel;stroke-width:1.5;" x="108.451173" xlink:href="#mf33dff04f7" y="278.104073"/>
     <use style="fill:none;stroke:#ff7500;stroke-linejoin:bevel;stroke-width:1.5;" x="183.621494" xlink:href="#mf33dff04f7" y="240.358237"/>
     <use style="fill:none;stroke:#ff7500;stroke-linejoin:bevel;stroke-width:1.5;" x="246.776496" xlink:href="#mf33dff04f7" y="150.18763"/>
     <use style="fill:none;stroke:#ff7500;stroke-linejoin:bevel;stroke-width:1.5;" x="285.276629" xlink:href="#mf33dff04f7" y="28.037911"/>
     <use style="fill:none;stroke:#ff7500;stroke-linejoin:bevel;stroke-width:1.5;" x="294.268178" xlink:href="#mf33dff04f7" y="27.513663"/>
     <use style="fill:none;stroke:#ff7500;stroke-linejoin:bevel;stroke-width:1.5;" x="333.168" xlink:href="#mf33dff04f7" y="27.513663"/>
    </g>
   </g>
   <g id="line2d_55">
    <path style="fill:none;stroke:#ff7500;stroke-linecap:square;stroke-width:1.5;"/>
    <g/>
   </g>
   <g id="line2d_56">
    <path clip-path="url(#pb02e2a3bb5)" d="M 213.237425 235.11576 
" style="fill:none;stroke:#ff7500;stroke-linecap:square;stroke-width:1.5;"/>
    <defs>
     <path d="M -12 12 
L 12 -12 
M -12 -12 
L 12 12 
" id="m228a79faa3" style="stroke:#ff7500;"/>
    </defs>
    <g clip-path="url(#pb02e2a3bb5)">
     <use style="fill:#ff7500;stroke:#ff7500;" x="213.237425" xlink:href="#m228a79faa3" y="235.11576"/>
    </g>
   </g>
   <g id="line2d_57">
    <path d="M 333.168 247.697705 
L 363.64328 289.532673 
" style="fill:none;stroke:#000080;stroke-linecap:square;stroke-width:1.5;"/>
    <g>
     <use style="fill:none;stroke:#000080;stroke-width:1.5;" x="333.168" xlink:href="#me930f10883" y="247.697705"/>
     <use style="fill:none;stroke:#000080;stroke-width:1.5;" x="363.64328" xlink:href="#me930f10883" y="289.532673"/>
    </g>
   </g>
   <g id="line2d_58">
    <path d="M 333.168 237.212751 
L 363.64328 203.975446 
" style="fill:none;stroke:#ff00ff;stroke-linecap:square;stroke-width:1.5;"/>
    <g>
     <use style="fill:none;stroke:#ff00ff;stroke-linejoin:miter;stroke-width:1.5;" x="333.168" xlink:href="#m441e0bb7b6" y="237.212751"/>
     <use style="fill:none;stroke:#ff00ff;stroke-linejoin:miter;stroke-width:1.5;" x="363.64328" xlink:href="#m441e0bb7b6" y="203.975446"/>
    </g>
   </g>
   <g id="line2d_59">
    <path d="M 333.168 27.513663 
L 363.64328 118.418218 
" style="fill:none;stroke:#ff7500;stroke-linecap:square;stroke-width:1.5;"/>
    <g>
     <use style="fill:none;stroke:#ff7500;stroke-linejoin:bevel;stroke-width:1.5;" x="333.168" xlink:href="#mf33dff04f7" y="27.513663"/>
     <use style="fill:none;stroke:#ff7500;stroke-linejoin:bevel;stroke-width:1.5;" x="363.64328" xlink:href="#mf33dff04f7" y="118.418218"/>
    </g>
   </g>
   <g id="line2d_60">
    <path d="M 333.168 294.88 
L 333.168 27.513663 
" style="fill:none;stroke:#000000;stroke-linecap:square;stroke-width:1.5;"/>
   </g>
   <g id="patch_3">
    <path d="M 56.12 294.88 
L 56.12 24.84 
" style="fill:none;stroke:#000000;stroke-linecap:square;stroke-linejoin:miter;stroke-width:0.8;"/>
   </g>
   <g id="patch_4">
    <path d="M 333.168 294.88 
L 333.168 24.84 
" style="fill:none;stroke:#000000;stroke-linecap:square;stroke-linejoin:miter;stroke-width:0.8;"/>
   </g>
   <g id="patch_5">
    <path d="M 56.12 294.88 
L 333.168 294.88 
" style="fill:none;stroke:#000000;stroke-linecap:square;stroke-linejoin:miter;stroke-width:0.8;"/>
   </g>
   <g id="patch_6">
    <path d="M 56.12 24.84 
L 333.168 24.84 
" style="fill:none;stroke:#000000;stroke-linecap:square;stroke-linejoin:miter;stroke-width:0.8;"/>
   </g>
   <g id="text_13">
    <!-- CMA ES PPM -->
    <defs>
     <path d="M 64.40625 67.28125 
L 64.40625 56.890625 
Q 59.421875 61.53125 53.78125 63.8125 
Q 48.140625 66.109375 41.796875 66.109375 
Q 29.296875 66.109375 22.65625 58.46875 
Q 16.015625 50.828125 16.015625 36.375 
Q 16.015625 21.96875 22.65625 14.328125 
Q 29.296875 6.6875 41.796875 6.6875 
Q 48.140625 6.6875 53.78125 8.984375 
Q 59.421875 11.28125 64.40625 15.921875 
L 64.40625 5.609375 
Q 59.234375 2.09375 53.4375 0.328125 
Q 47.65625 -1.421875 41.21875 -1.421875 
Q 24.65625 -1.421875 15.125 8.703125 
Q 5.609375 18.84375 5.609375 36.375 
Q 5.609375 53.953125 15.125 64.078125 
Q 24.65625 74.21875 41.21875 74.21875 
Q 47.75 74.21875 53.53125 72.484375 
Q 59.328125 70.75 64.40625 67.28125 
z
" id="DejaVuSans-43"/>
     <path d="M 9.8125 72.90625 
L 24.515625 72.90625 
L 43.109375 23.296875 
L 61.8125 72.90625 
L 76.515625 72.90625 
L 76.515625 0 
L 66.890625 0 
L 66.890625 64.015625 
L 48.09375 14.015625 
L 38.1875 14.015625 
L 19.390625 64.015625 
L 19.390625 0 
L 9.8125 0 
z
" id="DejaVuSans-4d"/>
     <path d="M 34.1875 63.1875 
L 20.796875 26.90625 
L 47.609375 26.90625 
z
M 28.609375 72.90625 
L 39.796875 72.90625 
L 67.578125 0 
L 57.328125 0 
L 50.6875 18.703125 
L 17.828125 18.703125 
L 11.1875 0 
L 0.78125 0 
z
" id="DejaVuSans-41"/>
     <path d="M 9.8125 72.90625 
L 55.90625 72.90625 
L 55.90625 64.59375 
L 19.671875 64.59375 
L 19.671875 43.015625 
L 54.390625 43.015625 
L 54.390625 34.71875 
L 19.671875 34.71875 
L 19.671875 8.296875 
L 56.78125 8.296875 
L 56.78125 0 
L 9.8125 0 
z
" id="DejaVuSans-45"/>
     <path d="M 53.515625 70.515625 
L 53.515625 60.890625 
Q 47.90625 63.578125 42.921875 64.890625 
Q 37.9375 66.21875 33.296875 66.21875 
Q 25.25 66.21875 20.875 63.09375 
Q 16.5 59.96875 16.5 54.203125 
Q 16.5 49.359375 19.40625 46.890625 
Q 22.3125 44.4375 30.421875 42.921875 
L 36.375 41.703125 
Q 47.40625 39.59375 52.65625 34.296875 
Q 57.90625 29 57.90625 20.125 
Q 57.90625 9.515625 50.796875 4.046875 
Q 43.703125 -1.421875 29.984375 -1.421875 
Q 24.8125 -1.421875 18.96875 -0.25 
Q 13.140625 0.921875 6.890625 3.21875 
L 6.890625 13.375 
Q 12.890625 10.015625 18.65625 8.296875 
Q 24.421875 6.59375 29.984375 6.59375 
Q 38.421875 6.59375 43.015625 9.90625 
Q 47.609375 13.234375 47.609375 19.390625 
Q 47.609375 24.75 44.3125 27.78125 
Q 41.015625 30.8125 33.5 32.328125 
L 27.484375 33.5 
Q 16.453125 35.6875 11.515625 40.375 
Q 6.59375 45.0625 6.59375 53.421875 
Q 6.59375 63.09375 13.40625 68.65625 
Q 20.21875 74.21875 32.171875 74.21875 
Q 37.3125 74.21875 42.625 73.28125 
Q 47.953125 72.359375 53.515625 70.515625 
z
" id="DejaVuSans-53"/>
     <path d="M 19.671875 64.796875 
L 19.671875 37.40625 
L 32.078125 37.40625 
Q 38.96875 37.40625 42.71875 40.96875 
Q 46.484375 44.53125 46.484375 51.125 
Q 46.484375 57.671875 42.71875 61.234375 
Q 38.96875 64.796875 32.078125 64.796875 
z
M 9.8125 72.90625 
L 32.078125 72.90625 
Q 44.34375 72.90625 50.609375 67.359375 
Q 56.890625 61.8125 56.890625 51.125 
Q 56.890625 40.328125 50.609375 34.8125 
Q 44.34375 29.296875 32.078125 29.296875 
L 19.671875 29.296875 
L 19.671875 0 
L 9.8125 0 
z
" id="DejaVuSans-50"/>
    </defs>
    <g transform="translate(369.18424 294.223611)scale(0.17 -0.17)">
     <use xlink:href="#DejaVuSans-43"/>
     <use x="69.824219" xlink:href="#DejaVuSans-4d"/>
     <use x="156.103516" xlink:href="#DejaVuSans-41"/>
     <use x="224.511719" xlink:href="#DejaVuSans-20"/>
     <use x="256.298828" xlink:href="#DejaVuSans-45"/>
     <use x="319.482422" xlink:href="#DejaVuSans-53"/>
     <use x="382.958984" xlink:href="#DejaVuSans-20"/>
     <use x="414.746094" xlink:href="#DejaVuSans-50"/>
     <use x="475.048828" xlink:href="#DejaVuSans-50"/>
     <use x="535.351562" xlink:href="#DejaVuSans-4d"/>
    </g>
   </g>
   <g id="text_14">
    <!-- CMA ES CSA -->
    <g transform="translate(369.18424 208.666383)scale(0.17 -0.17)">
     <use xlink:href="#DejaVuSans-43"/>
     <use x="69.824219" xlink:href="#DejaVuSans-4d"/>
     <use x="156.103516" xlink:href="#DejaVuSans-41"/>
     <use x="224.511719" xlink:href="#DejaVuSans-20"/>
     <use x="256.298828" xlink:href="#DejaVuSans-45"/>
     <use x="319.482422" xlink:href="#DejaVuSans-53"/>
     <use x="382.958984" xlink:href="#DejaVuSans-20"/>
     <use x="414.746094" xlink:href="#DejaVuSans-43"/>
     <use x="484.570312" xlink:href="#DejaVuSans-53"/>
     <use x="548.0625" xlink:href="#DejaVuSans-41"/>
    </g>
   </g>
   <g id="text_15">
    <!-- ppmf-new -->
    <defs>
     <path d="M 4.203125 54.6875 
L 13.1875 54.6875 
L 24.421875 12.015625 
L 35.59375 54.6875 
L 46.1875 54.6875 
L 57.421875 12.015625 
L 68.609375 54.6875 
L 77.59375 54.6875 
L 63.28125 0 
L 52.6875 0 
L 40.921875 44.828125 
L 29.109375 0 
L 18.5 0 
z
" id="DejaVuSans-77"/>
    </defs>
    <g transform="translate(369.18424 123.109155)scale(0.17 -0.17)">
     <use xlink:href="#DejaVuSans-70"/>
     <use x="63.476562" xlink:href="#DejaVuSans-70"/>
     <use x="126.953125" xlink:href="#DejaVuSans-6d"/>
     <use x="224.365234" xlink:href="#DejaVuSans-66"/>
     <use x="259.492188" xlink:href="#DejaVuSans-2d"/>
     <use x="295.576172" xlink:href="#DejaVuSans-6e"/>
     <use x="358.955078" xlink:href="#DejaVuSans-65"/>
     <use x="420.478516" xlink:href="#DejaVuSans-77"/>
    </g>
   </g>
   <g id="text_16">
    <!-- best 2009 -->
    <defs>
     <path d="M 48.6875 27.296875 
Q 48.6875 37.203125 44.609375 42.84375 
Q 40.53125 48.484375 33.40625 48.484375 
Q 26.265625 48.484375 22.1875 42.84375 
Q 18.109375 37.203125 18.109375 27.296875 
Q 18.109375 17.390625 22.1875 11.75 
Q 26.265625 6.109375 33.40625 6.109375 
Q 40.53125 6.109375 44.609375 11.75 
Q 48.6875 17.390625 48.6875 27.296875 
z
M 18.109375 46.390625 
Q 20.953125 51.265625 25.265625 53.625 
Q 29.59375 56 35.59375 56 
Q 45.5625 56 51.78125 48.09375 
Q 58.015625 40.1875 58.015625 27.296875 
Q 58.015625 14.40625 51.78125 6.484375 
Q 45.5625 -1.421875 35.59375 -1.421875 
Q 29.59375 -1.421875 25.265625 0.953125 
Q 20.953125 3.328125 18.109375 8.203125 
L 18.109375 0 
L 9.078125 0 
L 9.078125 75.984375 
L 18.109375 75.984375 
z
" id="DejaVuSans-62"/>
     <path d="M 10.984375 1.515625 
L 10.984375 10.5 
Q 14.703125 8.734375 18.5 7.8125 
Q 22.3125 6.890625 25.984375 6.890625 
Q 35.75 6.890625 40.890625 13.453125 
Q 46.046875 20.015625 46.78125 33.40625 
Q 43.953125 29.203125 39.59375 26.953125 
Q 35.25 24.703125 29.984375 24.703125 
Q 19.046875 24.703125 12.671875 31.3125 
Q 6.296875 37.9375 6.296875 49.421875 
Q 6.296875 60.640625 12.9375 67.421875 
Q 19.578125 74.21875 30.609375 74.21875 
Q 43.265625 74.21875 49.921875 64.515625 
Q 56.59375 54.828125 56.59375 36.375 
Q 56.59375 19.140625 48.40625 8.859375 
Q 40.234375 -1.421875 26.421875 -1.421875 
Q 22.703125 -1.421875 18.890625 -0.6875 
Q 15.09375 0.046875 10.984375 1.515625 
z
M 30.609375 32.421875 
Q 37.25 32.421875 41.125 36.953125 
Q 45.015625 41.5 45.015625 49.421875 
Q 45.015625 57.28125 41.125 61.84375 
Q 37.25 66.40625 30.609375 66.40625 
Q 23.96875 66.40625 20.09375 61.84375 
Q 16.21875 57.28125 16.21875 49.421875 
Q 16.21875 41.5 20.09375 36.953125 
Q 23.96875 32.421875 30.609375 32.421875 
z
" id="DejaVuSans-39"/>
    </defs>
    <g transform="translate(369.18424 37.551928)scale(0.17 -0.17)">
     <use xlink:href="#DejaVuSans-62"/>
     <use x="63.476562" xlink:href="#DejaVuSans-65"/>
     <use x="125" xlink:href="#DejaVuSans-73"/>
     <use x="177.099609" xlink:href="#DejaVuSans-74"/>
     <use x="216.308594" xlink:href="#DejaVuSans-20"/>
     <use x="248.095703" xlink:href="#DejaVuSans-32"/>
     <use x="311.71875" xlink:href="#DejaVuSans-30"/>
     <use x="375.341797" xlink:href="#DejaVuSans-30"/>
     <use x="438.964844" xlink:href="#DejaVuSans-39"/>
    </g>
   </g>
   <g id="text_17">
    <!-- bbob f3, 3-D -->
    <defs>
     <path d="M 40.578125 39.3125 
Q 47.65625 37.796875 51.625 33 
Q 55.609375 28.21875 55.609375 21.1875 
Q 55.609375 10.40625 48.1875 4.484375 
Q 40.765625 -1.421875 27.09375 -1.421875 
Q 22.515625 -1.421875 17.65625 -0.515625 
Q 12.796875 0.390625 7.625 2.203125 
L 7.625 11.71875 
Q 11.71875 9.328125 16.59375 8.109375 
Q 21.484375 6.890625 26.8125 6.890625 
Q 36.078125 6.890625 40.9375 10.546875 
Q 45.796875 14.203125 45.796875 21.1875 
Q 45.796875 27.640625 41.28125 31.265625 
Q 36.765625 34.90625 28.71875 34.90625 
L 20.21875 34.90625 
L 20.21875 43.015625 
L 29.109375 43.015625 
Q 36.375 43.015625 40.234375 45.921875 
Q 44.09375 48.828125 44.09375 54.296875 
Q 44.09375 59.90625 40.109375 62.90625 
Q 36.140625 65.921875 28.71875 65.921875 
Q 24.65625 65.921875 20.015625 65.03125 
Q 15.375 64.15625 9.8125 62.3125 
L 9.8125 71.09375 
Q 15.4375 72.65625 20.34375 73.4375 
Q 25.25 74.21875 29.59375 74.21875 
Q 40.828125 74.21875 47.359375 69.109375 
Q 53.90625 64.015625 53.90625 55.328125 
Q 53.90625 49.265625 50.4375 45.09375 
Q 46.96875 40.921875 40.578125 39.3125 
z
" id="DejaVuSans-33"/>
     <path d="M 19.671875 64.796875 
L 19.671875 8.109375 
L 31.59375 8.109375 
Q 46.6875 8.109375 53.6875 14.9375 
Q 60.6875 21.78125 60.6875 36.53125 
Q 60.6875 51.171875 53.6875 57.984375 
Q 46.6875 64.796875 31.59375 64.796875 
z
M 9.8125 72.90625 
L 30.078125 72.90625 
Q 51.265625 72.90625 61.171875 64.09375 
Q 71.09375 55.28125 71.09375 36.53125 
Q 71.09375 17.671875 61.125 8.828125 
Q 51.171875 0 30.078125 0 
L 9.8125 0 
z
" id="DejaVuSans-44"/>
    </defs>
    <g transform="translate(58.89048 35.290806)scale(0.102 -0.102)">
     <use xlink:href="#DejaVuSans-62"/>
     <use x="63.476562" xlink:href="#DejaVuSans-62"/>
     <use x="126.953125" xlink:href="#DejaVuSans-6f"/>
     <use x="188.134766" xlink:href="#DejaVuSans-62"/>
     <use x="251.611328" xlink:href="#DejaVuSans-20"/>
     <use x="283.398438" xlink:href="#DejaVuSans-66"/>
     <use x="318.603516" xlink:href="#DejaVuSans-33"/>
     <use x="382.226562" xlink:href="#DejaVuSans-2c"/>
     <use x="414.013672" xlink:href="#DejaVuSans-20"/>
     <use x="445.800781" xlink:href="#DejaVuSans-33"/>
     <use x="509.423828" xlink:href="#DejaVuSans-2d"/>
     <use x="545.507812" xlink:href="#DejaVuSans-44"/>
    </g>
    <!-- 51 targets: 100..1e-08 -->
    <defs>
     <path d="M 10.796875 72.90625 
L 49.515625 72.90625 
L 49.515625 64.59375 
L 19.828125 64.59375 
L 19.828125 46.734375 
Q 21.96875 47.46875 24.109375 47.828125 
Q 26.265625 48.1875 28.421875 48.1875 
Q 40.625 48.1875 47.75 41.5 
Q 54.890625 34.8125 54.890625 23.390625 
Q 54.890625 11.625 47.5625 5.09375 
Q 40.234375 -1.421875 26.90625 -1.421875 
Q 22.3125 -1.421875 17.546875 -0.640625 
Q 12.796875 0.140625 7.71875 1.703125 
L 7.71875 11.625 
Q 12.109375 9.234375 16.796875 8.0625 
Q 21.484375 6.890625 26.703125 6.890625 
Q 35.15625 6.890625 40.078125 11.328125 
Q 45.015625 15.765625 45.015625 23.390625 
Q 45.015625 31 40.078125 35.4375 
Q 35.15625 39.890625 26.703125 39.890625 
Q 22.75 39.890625 18.8125 39.015625 
Q 14.890625 38.140625 10.796875 36.28125 
z
" id="DejaVuSans-35"/>
     <path d="M 11.71875 12.40625 
L 22.015625 12.40625 
L 22.015625 0 
L 11.71875 0 
z
M 11.71875 51.703125 
L 22.015625 51.703125 
L 22.015625 39.3125 
L 11.71875 39.3125 
z
" id="DejaVuSans-3a"/>
    </defs>
    <g transform="translate(58.89048 46.712575)scale(0.102 -0.102)">
     <use xlink:href="#DejaVuSans-35"/>
     <use x="63.623047" xlink:href="#DejaVuSans-31"/>
     <use x="127.246094" xlink:href="#DejaVuSans-20"/>
     <use x="159.033203" xlink:href="#DejaVuSans-74"/>
     <use x="198.242188" xlink:href="#DejaVuSans-61"/>
     <use x="259.521484" xlink:href="#DejaVuSans-72"/>
     <use x="300.619141" xlink:href="#DejaVuSans-67"/>
     <use x="364.095703" xlink:href="#DejaVuSans-65"/>
     <use x="425.619141" xlink:href="#DejaVuSans-74"/>
     <use x="464.828125" xlink:href="#DejaVuSans-73"/>
     <use x="516.927734" xlink:href="#DejaVuSans-3a"/>
     <use x="550.619141" xlink:href="#DejaVuSans-20"/>
     <use x="582.40625" xlink:href="#DejaVuSans-31"/>
     <use x="646.029297" xlink:href="#DejaVuSans-30"/>
     <use x="709.652344" xlink:href="#DejaVuSans-30"/>
     <use x="773.275391" xlink:href="#DejaVuSans-2e"/>
     <use x="805.0625" xlink:href="#DejaVuSans-2e"/>
     <use x="836.849609" xlink:href="#DejaVuSans-31"/>
     <use x="900.472656" xlink:href="#DejaVuSans-65"/>
     <use x="961.996094" xlink:href="#DejaVuSans-2d"/>
     <use x="998.080078" xlink:href="#DejaVuSans-30"/>
     <use x="1061.703125" xlink:href="#DejaVuSans-38"/>
    </g>
    <!-- 15 instances -->
    <g transform="translate(58.89048 58.134344)scale(0.102 -0.102)">
     <use xlink:href="#DejaVuSans-31"/>
     <use x="63.623047" xlink:href="#DejaVuSans-35"/>
     <use x="127.246094" xlink:href="#DejaVuSans-20"/>
     <use x="159.033203" xlink:href="#DejaVuSans-69"/>
     <use x="186.816406" xlink:href="#DejaVuSans-6e"/>
     <use x="250.195312" xlink:href="#DejaVuSans-73"/>
     <use x="302.294922" xlink:href="#DejaVuSans-74"/>
     <use x="341.503906" xlink:href="#DejaVuSans-61"/>
     <use x="402.783203" xlink:href="#DejaVuSans-6e"/>
     <use x="466.162109" xlink:href="#DejaVuSans-63"/>
     <use x="521.142578" xlink:href="#DejaVuSans-65"/>
     <use x="582.666016" xlink:href="#DejaVuSans-73"/>
    </g>
   </g>
   <g id="text_18">
    <!-- v0.0.0 -->
    <g style="fill:#808080;" transform="translate(178.96275 290.099912)scale(0.1 -0.1)">
     <use xlink:href="#DejaVuSans-76"/>
     <use x="59.179688" xlink:href="#DejaVuSans-30"/>
     <use x="122.802734" xlink:href="#DejaVuSans-2e"/>
     <use x="154.589844" xlink:href="#DejaVuSans-30"/>
     <use x="218.212891" xlink:href="#DejaVuSans-2e"/>
     <use x="250" xlink:href="#DejaVuSans-30"/>
    </g>
   </g>
   <g id="text_19">
    <!-- 3 Rastrigin separable -->
    <defs>
     <path d="M 44.390625 34.1875 
Q 47.5625 33.109375 50.5625 29.59375 
Q 53.5625 26.078125 56.59375 19.921875 
L 66.609375 0 
L 56 0 
L 46.6875 18.703125 
Q 43.0625 26.03125 39.671875 28.421875 
Q 36.28125 30.8125 30.421875 30.8125 
L 19.671875 30.8125 
L 19.671875 0 
L 9.8125 0 
L 9.8125 72.90625 
L 32.078125 72.90625 
Q 44.578125 72.90625 50.734375 67.671875 
Q 56.890625 62.453125 56.890625 51.90625 
Q 56.890625 45.015625 53.6875 40.46875 
Q 50.484375 35.9375 44.390625 34.1875 
z
M 19.671875 64.796875 
L 19.671875 38.921875 
L 32.078125 38.921875 
Q 39.203125 38.921875 42.84375 42.21875 
Q 46.484375 45.515625 46.484375 51.90625 
Q 46.484375 58.296875 42.84375 61.546875 
Q 39.203125 64.796875 32.078125 64.796875 
z
" id="DejaVuSans-52"/>
    </defs>
    <g transform="translate(88.011188 18.84)scale(0.2 -0.2)">
     <use xlink:href="#DejaVuSans-33"/>
     <use x="63.623047" xlink:href="#DejaVuSans-20"/>
     <use x="95.410156" xlink:href="#DejaVuSans-52"/>
     <use x="164.861328" xlink:href="#DejaVuSans-61"/>
     <use x="226.140625" xlink:href="#DejaVuSans-73"/>
     <use x="278.240234" xlink:href="#DejaVuSans-74"/>
     <use x="317.449219" xlink:href="#DejaVuSans-72"/>
     <use x="358.5625" xlink:href="#DejaVuSans-69"/>
     <use x="386.345703" xlink:href="#DejaVuSans-67"/>
     <use x="449.822266" xlink:href="#DejaVuSans-69"/>
     <use x="477.605469" xlink:href="#DejaVuSans-6e"/>
     <use x="540.984375" xlink:href="#DejaVuSans-20"/>
     <use x="572.771484" xlink:href="#DejaVuSans-73"/>
     <use x="624.871094" xlink:href="#DejaVuSans-65"/>
     <use x="686.394531" xlink:href="#DejaVuSans-70"/>
     <use x="749.871094" xlink:href="#DejaVuSans-61"/>
     <use x="811.150391" xlink:href="#DejaVuSans-72"/>
     <use x="852.263672" xlink:href="#DejaVuSans-61"/>
     <use x="913.542969" xlink:href="#DejaVuSans-62"/>
     <use x="977.019531" xlink:href="#DejaVuSans-6c"/>
     <use x="1004.802734" xlink:href="#DejaVuSans-65"/>
    </g>
   </g>
  </g>
 </g>
 <defs>
  <clipPath id="pb02e2a3bb5">
   <rect height="270.04" width="277.048" x="56.12" y="24.84"/>
  </clipPath>
 </defs>
</svg>
