<?xml version="1.0" encoding="utf-8" standalone="no"?>
<!DOCTYPE svg PUBLIC "-//W3C//DTD SVG 1.1//EN"
  "http://www.w3.org/Graphics/SVG/1.1/DTD/svg11.dtd">
<!-- Created with matplotlib (http://matplotlib.org/) -->
<svg height="345pt" version="1.1" viewBox="0 0 460 345" width="460pt" xmlns="http://www.w3.org/2000/svg" xmlns:xlink="http://www.w3.org/1999/xlink">
 <defs>
  <style type="text/css">
*{stroke-linecap:butt;stroke-linejoin:round;}
  </style>
 </defs>
 <g id="figure_1">
  <g id="patch_1">
   <path d="M 0 345.6 
L 460.8 345.6 
L 460.8 0 
L 0 0 
z
" style="fill:#ffffff;"/>
  </g>
  <g id="axes_1">
   <g id="patch_2">
    <path d="M 56.12 294.88 
L 333.168 294.88 
L 333.168 24.84 
L 56.12 24.84 
z
" style="fill:#ffffff;"/>
   </g>
   <g id="line2d_1">
    <path d="M 28.455965 294.88 
L 28.455965 289.637523 
L 52.284468 289.637523 
L 52.284468 284.395046 
L 75.003641 284.395046 
L 75.003641 279.152568 
L 88.027221 279.152568 
L 88.027221 273.910091 
L 94.996612 273.910091 
L 94.996612 268.667614 
L 101.725597 268.667614 
L 101.725597 263.425137 
L 107.439785 263.425137 
L 107.439785 258.18266 
L 111.448069 258.18266 
L 111.448069 252.940182 
L 115.798351 252.940182 
L 115.798351 247.697705 
L 128.698042 247.697705 
L 128.698042 242.455228 
L 130.828657 242.455228 
L 130.828657 237.212751 
L 145.626324 237.212751 
L 145.626324 231.970274 
L 145.794933 231.970274 
L 145.794933 226.727797 
L 145.832178 226.727797 
L 145.832178 221.485319 
L 145.943432 221.485319 
L 145.943432 216.242842 
L 146.090659 216.242842 
L 146.090659 211.000365 
L 146.254795 211.000365 
L 146.254795 205.757888 
L 146.453301 205.757888 
L 146.453301 200.515411 
L 146.542779 200.515411 
L 146.542779 195.272933 
L 146.684982 195.272933 
L 146.684982 190.030456 
L 146.843566 190.030456 
L 146.843566 184.787979 
L 146.896104 184.787979 
L 146.896104 179.545502 
L 146.965905 179.545502 
L 146.965905 174.303025 
L 147.276552 174.303025 
L 147.276552 169.060547 
L 147.293646 169.060547 
L 147.293646 163.81807 
L 147.327785 163.81807 
L 147.327785 158.575593 
L 147.429795 158.575593 
L 147.429795 153.333116 
L 147.497466 153.333116 
L 147.497466 148.090639 
L 147.564873 148.090639 
L 147.564873 142.848162 
L 147.598477 142.848162 
L 147.598477 137.605684 
L 147.648761 137.605684 
L 147.648761 132.363207 
L 147.698898 132.363207 
L 147.698898 127.12073 
L 147.715578 127.12073 
L 147.715578 121.878253 
L 147.815319 121.878253 
L 147.815319 116.635776 
L 147.831886 116.635776 
L 147.831886 111.393298 
L 147.864973 111.393298 
L 147.864973 106.150821 
L 147.963853 106.150821 
L 147.963853 100.908344 
L 147.980278 100.908344 
L 147.980278 90.42339 
L 148.078499 90.42339 
L 148.078499 85.180912 
L 148.1274 85.180912 
L 148.1274 79.938435 
L 148.159923 79.938435 
L 148.159923 74.695958 
L 148.192385 74.695958 
L 148.192385 69.453481 
L 148.224786 69.453481 
L 148.224786 64.211004 
L 148.273273 64.211004 
L 148.273273 58.968526 
L 148.321624 58.968526 
L 148.321624 53.726049 
L 148.337711 53.726049 
L 148.337711 48.483572 
L 148.401907 48.483572 
L 148.401907 43.241095 
L 148.433916 43.241095 
L 148.433916 37.998618 
L 148.449898 37.998618 
L 148.449898 32.756141 
L 148.513678 32.756141 
L 148.513678 27.513663 
L 333.168 27.513663 
" style="fill:none;stroke:#f5deb3;stroke-linecap:square;stroke-width:4;"/>
   </g>
   <g id="line2d_2">
    <defs>
     <path d="M -0 7.778175 
L 7.778175 0 
L 0 -7.778175 
L -7.778175 -0 
z
" id="m1433974994" style="stroke:#f5deb3;stroke-linejoin:miter;stroke-width:1.5;"/>
    </defs>
    <g>
     <use style="fill:#f5deb3;stroke:#f5deb3;stroke-linejoin:miter;stroke-width:1.5;" x="146.542779" xlink:href="#m1433974994" y="195.272933"/>
     <use style="fill:#f5deb3;stroke:#f5deb3;stroke-linejoin:miter;stroke-width:1.5;" x="148.1274" xlink:href="#m1433974994" y="79.938435"/>
     <use style="fill:#f5deb3;stroke:#f5deb3;stroke-linejoin:miter;stroke-width:1.5;" x="148.513678" xlink:href="#m1433974994" y="32.756141"/>
     <use style="fill:#f5deb3;stroke:#f5deb3;stroke-linejoin:miter;stroke-width:1.5;" x="148.513678" xlink:href="#m1433974994" y="27.513663"/>
     <use style="fill:#f5deb3;stroke:#f5deb3;stroke-linejoin:miter;stroke-width:1.5;" x="333.168" xlink:href="#m1433974994" y="27.513663"/>
    </g>
   </g>
   <g id="line2d_3">
    <path style="fill:none;stroke:#f5deb3;stroke-linecap:square;stroke-width:4;"/>
    <g/>
   </g>
   <g id="line2d_4">
    <path d="M 333.168 27.513663 
L 363.64328 32.86099 
" style="fill:none;stroke:#f5deb3;stroke-linecap:square;stroke-width:4;"/>
    <g>
     <use style="fill:#f5deb3;stroke:#f5deb3;stroke-linejoin:miter;stroke-width:1.5;" x="333.168" xlink:href="#m1433974994" y="27.513663"/>
     <use style="fill:#f5deb3;stroke:#f5deb3;stroke-linejoin:miter;stroke-width:1.5;" x="363.64328" xlink:href="#m1433974994" y="32.86099"/>
    </g>
   </g>
   <g id="matplotlib.axis_1">
    <g id="xtick_1">
     <g id="line2d_5">
      <path clip-path="url(#p37589865ac)" d="M 56.12 294.88 
L 56.12 24.84 
" style="fill:none;stroke:#b0b0b0;stroke-linecap:square;stroke-width:0.8;"/>
     </g>
     <g id="line2d_6">
      <defs>
       <path d="M 0 0 
L 0 3.5 
" id="m7d97662801" style="stroke:#000000;stroke-width:0.8;"/>
      </defs>
      <g>
       <use style="stroke:#000000;stroke-width:0.8;" x="56.12" xlink:href="#m7d97662801" y="294.88"/>
      </g>
     </g>
     <g id="text_1">
      <!-- 0 -->
      <defs>
       <path d="M 31.78125 66.40625 
Q 24.171875 66.40625 20.328125 58.90625 
Q 16.5 51.421875 16.5 36.375 
Q 16.5 21.390625 20.328125 13.890625 
Q 24.171875 6.390625 31.78125 6.390625 
Q 39.453125 6.390625 43.28125 13.890625 
Q 47.125 21.390625 47.125 36.375 
Q 47.125 51.421875 43.28125 58.90625 
Q 39.453125 66.40625 31.78125 66.40625 
z
M 31.78125 74.21875 
Q 44.046875 74.21875 50.515625 64.515625 
Q 56.984375 54.828125 56.984375 36.375 
Q 56.984375 17.96875 50.515625 8.265625 
Q 44.046875 -1.421875 31.78125 -1.421875 
Q 19.53125 -1.421875 13.0625 8.265625 
Q 6.59375 17.96875 6.59375 36.375 
Q 6.59375 54.828125 13.0625 64.515625 
Q 19.53125 74.21875 31.78125 74.21875 
z
" id="DejaVuSans-30"/>
      </defs>
      <g transform="translate(49.7575 317.076875)scale(0.2 -0.2)">
       <use xlink:href="#DejaVuSans-30"/>
      </g>
     </g>
    </g>
    <g id="xtick_2">
     <g id="line2d_7">
      <path clip-path="url(#p37589865ac)" d="M 135.276571 294.88 
L 135.276571 24.84 
" style="fill:none;stroke:#b0b0b0;stroke-linecap:square;stroke-width:0.8;"/>
     </g>
     <g id="line2d_8">
      <g>
       <use style="stroke:#000000;stroke-width:0.8;" x="135.276571" xlink:href="#m7d97662801" y="294.88"/>
      </g>
     </g>
     <g id="text_2">
      <!-- 2 -->
      <defs>
       <path d="M 19.1875 8.296875 
L 53.609375 8.296875 
L 53.609375 0 
L 7.328125 0 
L 7.328125 8.296875 
Q 12.9375 14.109375 22.625 23.890625 
Q 32.328125 33.6875 34.8125 36.53125 
Q 39.546875 41.84375 41.421875 45.53125 
Q 43.3125 49.21875 43.3125 52.78125 
Q 43.3125 58.59375 39.234375 62.25 
Q 35.15625 65.921875 28.609375 65.921875 
Q 23.96875 65.921875 18.8125 64.3125 
Q 13.671875 62.703125 7.8125 59.421875 
L 7.8125 69.390625 
Q 13.765625 71.78125 18.9375 73 
Q 24.125 74.21875 28.421875 74.21875 
Q 39.75 74.21875 46.484375 68.546875 
Q 53.21875 62.890625 53.21875 53.421875 
Q 53.21875 48.921875 51.53125 44.890625 
Q 49.859375 40.875 45.40625 35.40625 
Q 44.1875 33.984375 37.640625 27.21875 
Q 31.109375 20.453125 19.1875 8.296875 
z
" id="DejaVuSans-32"/>
      </defs>
      <g transform="translate(128.914071 317.076875)scale(0.2 -0.2)">
       <use xlink:href="#DejaVuSans-32"/>
      </g>
     </g>
    </g>
    <g id="xtick_3">
     <g id="line2d_9">
      <path clip-path="url(#p37589865ac)" d="M 214.433143 294.88 
L 214.433143 24.84 
" style="fill:none;stroke:#b0b0b0;stroke-linecap:square;stroke-width:0.8;"/>
     </g>
     <g id="line2d_10">
      <g>
       <use style="stroke:#000000;stroke-width:0.8;" x="214.433143" xlink:href="#m7d97662801" y="294.88"/>
      </g>
     </g>
     <g id="text_3">
      <!-- 4 -->
      <defs>
       <path d="M 37.796875 64.3125 
L 12.890625 25.390625 
L 37.796875 25.390625 
z
M 35.203125 72.90625 
L 47.609375 72.90625 
L 47.609375 25.390625 
L 58.015625 25.390625 
L 58.015625 17.1875 
L 47.609375 17.1875 
L 47.609375 0 
L 37.796875 0 
L 37.796875 17.1875 
L 4.890625 17.1875 
L 4.890625 26.703125 
z
" id="DejaVuSans-34"/>
      </defs>
      <g transform="translate(208.070643 317.076875)scale(0.2 -0.2)">
       <use xlink:href="#DejaVuSans-34"/>
      </g>
     </g>
    </g>
    <g id="xtick_4">
     <g id="line2d_11">
      <path clip-path="url(#p37589865ac)" d="M 293.589714 294.88 
L 293.589714 24.84 
" style="fill:none;stroke:#b0b0b0;stroke-linecap:square;stroke-width:0.8;"/>
     </g>
     <g id="line2d_12">
      <g>
       <use style="stroke:#000000;stroke-width:0.8;" x="293.589714" xlink:href="#m7d97662801" y="294.88"/>
      </g>
     </g>
     <g id="text_4">
      <!-- 6 -->
      <defs>
       <path d="M 33.015625 40.375 
Q 26.375 40.375 22.484375 35.828125 
Q 18.609375 31.296875 18.609375 23.390625 
Q 18.609375 15.53125 22.484375 10.953125 
Q 26.375 6.390625 33.015625 6.390625 
Q 39.65625 6.390625 43.53125 10.953125 
Q 47.40625 15.53125 47.40625 23.390625 
Q 47.40625 31.296875 43.53125 35.828125 
Q 39.65625 40.375 33.015625 40.375 
z
M 52.59375 71.296875 
L 52.59375 62.3125 
Q 48.875 64.0625 45.09375 64.984375 
Q 41.3125 65.921875 37.59375 65.921875 
Q 27.828125 65.921875 22.671875 59.328125 
Q 17.53125 52.734375 16.796875 39.40625 
Q 19.671875 43.65625 24.015625 45.921875 
Q 28.375 48.1875 33.59375 48.1875 
Q 44.578125 48.1875 50.953125 41.515625 
Q 57.328125 34.859375 57.328125 23.390625 
Q 57.328125 12.15625 50.6875 5.359375 
Q 44.046875 -1.421875 33.015625 -1.421875 
Q 20.359375 -1.421875 13.671875 8.265625 
Q 6.984375 17.96875 6.984375 36.375 
Q 6.984375 53.65625 15.1875 63.9375 
Q 23.390625 74.21875 37.203125 74.21875 
Q 40.921875 74.21875 44.703125 73.484375 
Q 48.484375 72.75 52.59375 71.296875 
z
" id="DejaVuSans-36"/>
      </defs>
      <g transform="translate(287.227214 317.076875)scale(0.2 -0.2)">
       <use xlink:href="#DejaVuSans-36"/>
      </g>
     </g>
    </g>
    <g id="xtick_5">
     <g id="line2d_13">
      <path clip-path="url(#p37589865ac)" d="M 56.12 294.88 
L 56.12 24.84 
" style="fill:none;stroke:#b0b0b0;stroke-linecap:square;stroke-width:0.8;"/>
     </g>
     <g id="line2d_14">
      <defs>
       <path d="M 0 0 
L 0 2 
" id="m08045bbbe1" style="stroke:#000000;stroke-width:0.6;"/>
      </defs>
      <g>
       <use style="stroke:#000000;stroke-width:0.6;" x="56.12" xlink:href="#m08045bbbe1" y="294.88"/>
      </g>
     </g>
    </g>
    <g id="xtick_6">
     <g id="line2d_15">
      <path clip-path="url(#p37589865ac)" d="M 95.698286 294.88 
L 95.698286 24.84 
" style="fill:none;stroke:#b0b0b0;stroke-linecap:square;stroke-width:0.8;"/>
     </g>
     <g id="line2d_16">
      <g>
       <use style="stroke:#000000;stroke-width:0.6;" x="95.698286" xlink:href="#m08045bbbe1" y="294.88"/>
      </g>
     </g>
    </g>
    <g id="xtick_7">
     <g id="line2d_17">
      <path clip-path="url(#p37589865ac)" d="M 135.276571 294.88 
L 135.276571 24.84 
" style="fill:none;stroke:#b0b0b0;stroke-linecap:square;stroke-width:0.8;"/>
     </g>
     <g id="line2d_18">
      <g>
       <use style="stroke:#000000;stroke-width:0.6;" x="135.276571" xlink:href="#m08045bbbe1" y="294.88"/>
      </g>
     </g>
    </g>
    <g id="xtick_8">
     <g id="line2d_19">
      <path clip-path="url(#p37589865ac)" d="M 174.854857 294.88 
L 174.854857 24.84 
" style="fill:none;stroke:#b0b0b0;stroke-linecap:square;stroke-width:0.8;"/>
     </g>
     <g id="line2d_20">
      <g>
       <use style="stroke:#000000;stroke-width:0.6;" x="174.854857" xlink:href="#m08045bbbe1" y="294.88"/>
      </g>
     </g>
    </g>
    <g id="xtick_9">
     <g id="line2d_21">
      <path clip-path="url(#p37589865ac)" d="M 214.433143 294.88 
L 214.433143 24.84 
" style="fill:none;stroke:#b0b0b0;stroke-linecap:square;stroke-width:0.8;"/>
     </g>
     <g id="line2d_22">
      <g>
       <use style="stroke:#000000;stroke-width:0.6;" x="214.433143" xlink:href="#m08045bbbe1" y="294.88"/>
      </g>
     </g>
    </g>
    <g id="xtick_10">
     <g id="line2d_23">
      <path clip-path="url(#p37589865ac)" d="M 254.011429 294.88 
L 254.011429 24.84 
" style="fill:none;stroke:#b0b0b0;stroke-linecap:square;stroke-width:0.8;"/>
     </g>
     <g id="line2d_24">
      <g>
       <use style="stroke:#000000;stroke-width:0.6;" x="254.011429" xlink:href="#m08045bbbe1" y="294.88"/>
      </g>
     </g>
    </g>
    <g id="xtick_11">
     <g id="line2d_25">
      <path clip-path="url(#p37589865ac)" d="M 293.589714 294.88 
L 293.589714 24.84 
" style="fill:none;stroke:#b0b0b0;stroke-linecap:square;stroke-width:0.8;"/>
     </g>
     <g id="line2d_26">
      <g>
       <use style="stroke:#000000;stroke-width:0.6;" x="293.589714" xlink:href="#m08045bbbe1" y="294.88"/>
      </g>
     </g>
    </g>
    <g id="xtick_12">
     <g id="line2d_27">
      <path clip-path="url(#p37589865ac)" d="M 333.168 294.88 
L 333.168 24.84 
" style="fill:none;stroke:#b0b0b0;stroke-linecap:square;stroke-width:0.8;"/>
     </g>
     <g id="line2d_28">
      <g>
       <use style="stroke:#000000;stroke-width:0.6;" x="333.168" xlink:href="#m08045bbbe1" y="294.88"/>
      </g>
     </g>
    </g>
    <g id="text_5">
     <!-- log10(# f-evals / dimension) -->
     <defs>
      <path d="M 9.421875 75.984375 
L 18.40625 75.984375 
L 18.40625 0 
L 9.421875 0 
z
" id="DejaVuSans-6c"/>
      <path d="M 30.609375 48.390625 
Q 23.390625 48.390625 19.1875 42.75 
Q 14.984375 37.109375 14.984375 27.296875 
Q 14.984375 17.484375 19.15625 11.84375 
Q 23.34375 6.203125 30.609375 6.203125 
Q 37.796875 6.203125 41.984375 11.859375 
Q 46.1875 17.53125 46.1875 27.296875 
Q 46.1875 37.015625 41.984375 42.703125 
Q 37.796875 48.390625 30.609375 48.390625 
z
M 30.609375 56 
Q 42.328125 56 49.015625 48.375 
Q 55.71875 40.765625 55.71875 27.296875 
Q 55.71875 13.875 49.015625 6.21875 
Q 42.328125 -1.421875 30.609375 -1.421875 
Q 18.84375 -1.421875 12.171875 6.21875 
Q 5.515625 13.875 5.515625 27.296875 
Q 5.515625 40.765625 12.171875 48.375 
Q 18.84375 56 30.609375 56 
z
" id="DejaVuSans-6f"/>
      <path d="M 45.40625 27.984375 
Q 45.40625 37.75 41.375 43.109375 
Q 37.359375 48.484375 30.078125 48.484375 
Q 22.859375 48.484375 18.828125 43.109375 
Q 14.796875 37.75 14.796875 27.984375 
Q 14.796875 18.265625 18.828125 12.890625 
Q 22.859375 7.515625 30.078125 7.515625 
Q 37.359375 7.515625 41.375 12.890625 
Q 45.40625 18.265625 45.40625 27.984375 
z
M 54.390625 6.78125 
Q 54.390625 -7.171875 48.1875 -13.984375 
Q 42 -20.796875 29.203125 -20.796875 
Q 24.46875 -20.796875 20.265625 -20.09375 
Q 16.0625 -19.390625 12.109375 -17.921875 
L 12.109375 -9.1875 
Q 16.0625 -11.328125 19.921875 -12.34375 
Q 23.78125 -13.375 27.78125 -13.375 
Q 36.625 -13.375 41.015625 -8.765625 
Q 45.40625 -4.15625 45.40625 5.171875 
L 45.40625 9.625 
Q 42.625 4.78125 38.28125 2.390625 
Q 33.9375 0 27.875 0 
Q 17.828125 0 11.671875 7.65625 
Q 5.515625 15.328125 5.515625 27.984375 
Q 5.515625 40.671875 11.671875 48.328125 
Q 17.828125 56 27.875 56 
Q 33.9375 56 38.28125 53.609375 
Q 42.625 51.21875 45.40625 46.390625 
L 45.40625 54.6875 
L 54.390625 54.6875 
z
" id="DejaVuSans-67"/>
      <path d="M 12.40625 8.296875 
L 28.515625 8.296875 
L 28.515625 63.921875 
L 10.984375 60.40625 
L 10.984375 69.390625 
L 28.421875 72.90625 
L 38.28125 72.90625 
L 38.28125 8.296875 
L 54.390625 8.296875 
L 54.390625 0 
L 12.40625 0 
z
" id="DejaVuSans-31"/>
      <path d="M 31 75.875 
Q 24.46875 64.65625 21.28125 53.65625 
Q 18.109375 42.671875 18.109375 31.390625 
Q 18.109375 20.125 21.3125 9.0625 
Q 24.515625 -2 31 -13.1875 
L 23.1875 -13.1875 
Q 15.875 -1.703125 12.234375 9.375 
Q 8.59375 20.453125 8.59375 31.390625 
Q 8.59375 42.28125 12.203125 53.3125 
Q 15.828125 64.359375 23.1875 75.875 
z
" id="DejaVuSans-28"/>
      <path d="M 51.125 44 
L 36.921875 44 
L 32.8125 27.6875 
L 47.125 27.6875 
z
M 43.796875 71.78125 
L 38.71875 51.515625 
L 52.984375 51.515625 
L 58.109375 71.78125 
L 65.921875 71.78125 
L 60.890625 51.515625 
L 76.125 51.515625 
L 76.125 44 
L 58.984375 44 
L 54.984375 27.6875 
L 70.515625 27.6875 
L 70.515625 20.21875 
L 53.078125 20.21875 
L 48 0 
L 40.1875 0 
L 45.21875 20.21875 
L 30.90625 20.21875 
L 25.875 0 
L 18.015625 0 
L 23.09375 20.21875 
L 7.71875 20.21875 
L 7.71875 27.6875 
L 24.90625 27.6875 
L 29 44 
L 13.28125 44 
L 13.28125 51.515625 
L 30.90625 51.515625 
L 35.890625 71.78125 
z
" id="DejaVuSans-23"/>
      <path id="DejaVuSans-20"/>
      <path d="M 37.109375 75.984375 
L 37.109375 68.5 
L 28.515625 68.5 
Q 23.6875 68.5 21.796875 66.546875 
Q 19.921875 64.59375 19.921875 59.515625 
L 19.921875 54.6875 
L 34.71875 54.6875 
L 34.71875 47.703125 
L 19.921875 47.703125 
L 19.921875 0 
L 10.890625 0 
L 10.890625 47.703125 
L 2.296875 47.703125 
L 2.296875 54.6875 
L 10.890625 54.6875 
L 10.890625 58.5 
Q 10.890625 67.625 15.140625 71.796875 
Q 19.390625 75.984375 28.609375 75.984375 
z
" id="DejaVuSans-66"/>
      <path d="M 4.890625 31.390625 
L 31.203125 31.390625 
L 31.203125 23.390625 
L 4.890625 23.390625 
z
" id="DejaVuSans-2d"/>
      <path d="M 56.203125 29.59375 
L 56.203125 25.203125 
L 14.890625 25.203125 
Q 15.484375 15.921875 20.484375 11.0625 
Q 25.484375 6.203125 34.421875 6.203125 
Q 39.59375 6.203125 44.453125 7.46875 
Q 49.3125 8.734375 54.109375 11.28125 
L 54.109375 2.78125 
Q 49.265625 0.734375 44.1875 -0.34375 
Q 39.109375 -1.421875 33.890625 -1.421875 
Q 20.796875 -1.421875 13.15625 6.1875 
Q 5.515625 13.8125 5.515625 26.8125 
Q 5.515625 40.234375 12.765625 48.109375 
Q 20.015625 56 32.328125 56 
Q 43.359375 56 49.78125 48.890625 
Q 56.203125 41.796875 56.203125 29.59375 
z
M 47.21875 32.234375 
Q 47.125 39.59375 43.09375 43.984375 
Q 39.0625 48.390625 32.421875 48.390625 
Q 24.90625 48.390625 20.390625 44.140625 
Q 15.875 39.890625 15.1875 32.171875 
z
" id="DejaVuSans-65"/>
      <path d="M 2.984375 54.6875 
L 12.5 54.6875 
L 29.59375 8.796875 
L 46.6875 54.6875 
L 56.203125 54.6875 
L 35.6875 0 
L 23.484375 0 
z
" id="DejaVuSans-76"/>
      <path d="M 34.28125 27.484375 
Q 23.390625 27.484375 19.1875 25 
Q 14.984375 22.515625 14.984375 16.5 
Q 14.984375 11.71875 18.140625 8.90625 
Q 21.296875 6.109375 26.703125 6.109375 
Q 34.1875 6.109375 38.703125 11.40625 
Q 43.21875 16.703125 43.21875 25.484375 
L 43.21875 27.484375 
z
M 52.203125 31.203125 
L 52.203125 0 
L 43.21875 0 
L 43.21875 8.296875 
Q 40.140625 3.328125 35.546875 0.953125 
Q 30.953125 -1.421875 24.3125 -1.421875 
Q 15.921875 -1.421875 10.953125 3.296875 
Q 6 8.015625 6 15.921875 
Q 6 25.140625 12.171875 29.828125 
Q 18.359375 34.515625 30.609375 34.515625 
L 43.21875 34.515625 
L 43.21875 35.40625 
Q 43.21875 41.609375 39.140625 45 
Q 35.0625 48.390625 27.6875 48.390625 
Q 23 48.390625 18.546875 47.265625 
Q 14.109375 46.140625 10.015625 43.890625 
L 10.015625 52.203125 
Q 14.9375 54.109375 19.578125 55.046875 
Q 24.21875 56 28.609375 56 
Q 40.484375 56 46.34375 49.84375 
Q 52.203125 43.703125 52.203125 31.203125 
z
" id="DejaVuSans-61"/>
      <path d="M 44.28125 53.078125 
L 44.28125 44.578125 
Q 40.484375 46.53125 36.375 47.5 
Q 32.28125 48.484375 27.875 48.484375 
Q 21.1875 48.484375 17.84375 46.4375 
Q 14.5 44.390625 14.5 40.28125 
Q 14.5 37.15625 16.890625 35.375 
Q 19.28125 33.59375 26.515625 31.984375 
L 29.59375 31.296875 
Q 39.15625 29.25 43.1875 25.515625 
Q 47.21875 21.78125 47.21875 15.09375 
Q 47.21875 7.46875 41.1875 3.015625 
Q 35.15625 -1.421875 24.609375 -1.421875 
Q 20.21875 -1.421875 15.453125 -0.5625 
Q 10.6875 0.296875 5.421875 2 
L 5.421875 11.28125 
Q 10.40625 8.6875 15.234375 7.390625 
Q 20.0625 6.109375 24.8125 6.109375 
Q 31.15625 6.109375 34.5625 8.28125 
Q 37.984375 10.453125 37.984375 14.40625 
Q 37.984375 18.0625 35.515625 20.015625 
Q 33.0625 21.96875 24.703125 23.78125 
L 21.578125 24.515625 
Q 13.234375 26.265625 9.515625 29.90625 
Q 5.8125 33.546875 5.8125 39.890625 
Q 5.8125 47.609375 11.28125 51.796875 
Q 16.75 56 26.8125 56 
Q 31.78125 56 36.171875 55.265625 
Q 40.578125 54.546875 44.28125 53.078125 
z
" id="DejaVuSans-73"/>
      <path d="M 25.390625 72.90625 
L 33.6875 72.90625 
L 8.296875 -9.28125 
L 0 -9.28125 
z
" id="DejaVuSans-2f"/>
      <path d="M 45.40625 46.390625 
L 45.40625 75.984375 
L 54.390625 75.984375 
L 54.390625 0 
L 45.40625 0 
L 45.40625 8.203125 
Q 42.578125 3.328125 38.25 0.953125 
Q 33.9375 -1.421875 27.875 -1.421875 
Q 17.96875 -1.421875 11.734375 6.484375 
Q 5.515625 14.40625 5.515625 27.296875 
Q 5.515625 40.1875 11.734375 48.09375 
Q 17.96875 56 27.875 56 
Q 33.9375 56 38.25 53.625 
Q 42.578125 51.265625 45.40625 46.390625 
z
M 14.796875 27.296875 
Q 14.796875 17.390625 18.875 11.75 
Q 22.953125 6.109375 30.078125 6.109375 
Q 37.203125 6.109375 41.296875 11.75 
Q 45.40625 17.390625 45.40625 27.296875 
Q 45.40625 37.203125 41.296875 42.84375 
Q 37.203125 48.484375 30.078125 48.484375 
Q 22.953125 48.484375 18.875 42.84375 
Q 14.796875 37.203125 14.796875 27.296875 
z
" id="DejaVuSans-64"/>
      <path d="M 9.421875 54.6875 
L 18.40625 54.6875 
L 18.40625 0 
L 9.421875 0 
z
M 9.421875 75.984375 
L 18.40625 75.984375 
L 18.40625 64.59375 
L 9.421875 64.59375 
z
" id="DejaVuSans-69"/>
      <path d="M 52 44.1875 
Q 55.375 50.25 60.0625 53.125 
Q 64.75 56 71.09375 56 
Q 79.640625 56 84.28125 50.015625 
Q 88.921875 44.046875 88.921875 33.015625 
L 88.921875 0 
L 79.890625 0 
L 79.890625 32.71875 
Q 79.890625 40.578125 77.09375 44.375 
Q 74.3125 48.1875 68.609375 48.1875 
Q 61.625 48.1875 57.5625 43.546875 
Q 53.515625 38.921875 53.515625 30.90625 
L 53.515625 0 
L 44.484375 0 
L 44.484375 32.71875 
Q 44.484375 40.625 41.703125 44.40625 
Q 38.921875 48.1875 33.109375 48.1875 
Q 26.21875 48.1875 22.15625 43.53125 
Q 18.109375 38.875 18.109375 30.90625 
L 18.109375 0 
L 9.078125 0 
L 9.078125 54.6875 
L 18.109375 54.6875 
L 18.109375 46.1875 
Q 21.1875 51.21875 25.484375 53.609375 
Q 29.78125 56 35.6875 56 
Q 41.65625 56 45.828125 52.96875 
Q 50 49.953125 52 44.1875 
z
" id="DejaVuSans-6d"/>
      <path d="M 54.890625 33.015625 
L 54.890625 0 
L 45.90625 0 
L 45.90625 32.71875 
Q 45.90625 40.484375 42.875 44.328125 
Q 39.84375 48.1875 33.796875 48.1875 
Q 26.515625 48.1875 22.3125 43.546875 
Q 18.109375 38.921875 18.109375 30.90625 
L 18.109375 0 
L 9.078125 0 
L 9.078125 54.6875 
L 18.109375 54.6875 
L 18.109375 46.1875 
Q 21.34375 51.125 25.703125 53.5625 
Q 30.078125 56 35.796875 56 
Q 45.21875 56 50.046875 50.171875 
Q 54.890625 44.34375 54.890625 33.015625 
z
" id="DejaVuSans-6e"/>
      <path d="M 8.015625 75.875 
L 15.828125 75.875 
Q 23.140625 64.359375 26.78125 53.3125 
Q 30.421875 42.28125 30.421875 31.390625 
Q 30.421875 20.453125 26.78125 9.375 
Q 23.140625 -1.703125 15.828125 -13.1875 
L 8.015625 -13.1875 
Q 14.5 -2 17.703125 9.0625 
Q 20.90625 20.125 20.90625 31.390625 
Q 20.90625 42.671875 17.703125 53.65625 
Q 14.5 64.65625 8.015625 75.875 
z
" id="DejaVuSans-29"/>
     </defs>
     <g transform="translate(73.803219 338.153594)scale(0.17 -0.17)">
      <use xlink:href="#DejaVuSans-6c"/>
      <use x="27.783203" xlink:href="#DejaVuSans-6f"/>
      <use x="88.964844" xlink:href="#DejaVuSans-67"/>
      <use x="152.441406" xlink:href="#DejaVuSans-31"/>
      <use x="216.064453" xlink:href="#DejaVuSans-30"/>
      <use x="279.6875" xlink:href="#DejaVuSans-28"/>
      <use x="318.701172" xlink:href="#DejaVuSans-23"/>
      <use x="402.490234" xlink:href="#DejaVuSans-20"/>
      <use x="434.277344" xlink:href="#DejaVuSans-66"/>
      <use x="469.404297" xlink:href="#DejaVuSans-2d"/>
      <use x="505.488281" xlink:href="#DejaVuSans-65"/>
      <use x="567.011719" xlink:href="#DejaVuSans-76"/>
      <use x="626.191406" xlink:href="#DejaVuSans-61"/>
      <use x="687.470703" xlink:href="#DejaVuSans-6c"/>
      <use x="715.253906" xlink:href="#DejaVuSans-73"/>
      <use x="767.353516" xlink:href="#DejaVuSans-20"/>
      <use x="799.140625" xlink:href="#DejaVuSans-2f"/>
      <use x="832.832031" xlink:href="#DejaVuSans-20"/>
      <use x="864.619141" xlink:href="#DejaVuSans-64"/>
      <use x="928.095703" xlink:href="#DejaVuSans-69"/>
      <use x="955.878906" xlink:href="#DejaVuSans-6d"/>
      <use x="1053.291016" xlink:href="#DejaVuSans-65"/>
      <use x="1114.814453" xlink:href="#DejaVuSans-6e"/>
      <use x="1178.193359" xlink:href="#DejaVuSans-73"/>
      <use x="1230.292969" xlink:href="#DejaVuSans-69"/>
      <use x="1258.076172" xlink:href="#DejaVuSans-6f"/>
      <use x="1319.257812" xlink:href="#DejaVuSans-6e"/>
      <use x="1382.636719" xlink:href="#DejaVuSans-29"/>
     </g>
    </g>
   </g>
   <g id="matplotlib.axis_2">
    <g id="ytick_1">
     <g id="line2d_29">
      <path clip-path="url(#p37589865ac)" d="M 56.12 294.88 
L 333.168 294.88 
" style="fill:none;stroke:#b0b0b0;stroke-linecap:square;stroke-width:0.8;"/>
     </g>
     <g id="line2d_30">
      <defs>
       <path d="M 0 0 
L -3.5 0 
" id="m22a01ffec6" style="stroke:#000000;stroke-width:0.8;"/>
      </defs>
      <g>
       <use style="stroke:#000000;stroke-width:0.8;" x="56.12" xlink:href="#m22a01ffec6" y="294.88"/>
      </g>
     </g>
     <g id="text_6">
      <!-- 0.0 -->
      <defs>
       <path d="M 10.6875 12.40625 
L 21 12.40625 
L 21 0 
L 10.6875 0 
z
" id="DejaVuSans-2e"/>
      </defs>
      <g transform="translate(23.675 300.95875)scale(0.16 -0.16)">
       <use xlink:href="#DejaVuSans-30"/>
       <use x="63.623047" xlink:href="#DejaVuSans-2e"/>
       <use x="95.410156" xlink:href="#DejaVuSans-30"/>
      </g>
     </g>
    </g>
    <g id="ytick_2">
     <g id="line2d_31">
      <path clip-path="url(#p37589865ac)" d="M 56.12 241.406733 
L 333.168 241.406733 
" style="fill:none;stroke:#b0b0b0;stroke-linecap:square;stroke-width:0.8;"/>
     </g>
     <g id="line2d_32">
      <g>
       <use style="stroke:#000000;stroke-width:0.8;" x="56.12" xlink:href="#m22a01ffec6" y="241.406733"/>
      </g>
     </g>
     <g id="text_7">
      <!-- 0.2 -->
      <g transform="translate(23.675 247.485483)scale(0.16 -0.16)">
       <use xlink:href="#DejaVuSans-30"/>
       <use x="63.623047" xlink:href="#DejaVuSans-2e"/>
       <use x="95.410156" xlink:href="#DejaVuSans-32"/>
      </g>
     </g>
    </g>
    <g id="ytick_3">
     <g id="line2d_33">
      <path clip-path="url(#p37589865ac)" d="M 56.12 187.933465 
L 333.168 187.933465 
" style="fill:none;stroke:#b0b0b0;stroke-linecap:square;stroke-width:0.8;"/>
     </g>
     <g id="line2d_34">
      <g>
       <use style="stroke:#000000;stroke-width:0.8;" x="56.12" xlink:href="#m22a01ffec6" y="187.933465"/>
      </g>
     </g>
     <g id="text_8">
      <!-- 0.4 -->
      <g transform="translate(23.675 194.012215)scale(0.16 -0.16)">
       <use xlink:href="#DejaVuSans-30"/>
       <use x="63.623047" xlink:href="#DejaVuSans-2e"/>
       <use x="95.410156" xlink:href="#DejaVuSans-34"/>
      </g>
     </g>
    </g>
    <g id="ytick_4">
     <g id="line2d_35">
      <path clip-path="url(#p37589865ac)" d="M 56.12 134.460198 
L 333.168 134.460198 
" style="fill:none;stroke:#b0b0b0;stroke-linecap:square;stroke-width:0.8;"/>
     </g>
     <g id="line2d_36">
      <g>
       <use style="stroke:#000000;stroke-width:0.8;" x="56.12" xlink:href="#m22a01ffec6" y="134.460198"/>
      </g>
     </g>
     <g id="text_9">
      <!-- 0.6 -->
      <g transform="translate(23.675 140.538948)scale(0.16 -0.16)">
       <use xlink:href="#DejaVuSans-30"/>
       <use x="63.623047" xlink:href="#DejaVuSans-2e"/>
       <use x="95.410156" xlink:href="#DejaVuSans-36"/>
      </g>
     </g>
    </g>
    <g id="ytick_5">
     <g id="line2d_37">
      <path clip-path="url(#p37589865ac)" d="M 56.12 80.986931 
L 333.168 80.986931 
" style="fill:none;stroke:#b0b0b0;stroke-linecap:square;stroke-width:0.8;"/>
     </g>
     <g id="line2d_38">
      <g>
       <use style="stroke:#000000;stroke-width:0.8;" x="56.12" xlink:href="#m22a01ffec6" y="80.986931"/>
      </g>
     </g>
     <g id="text_10">
      <!-- 0.8 -->
      <defs>
       <path d="M 31.78125 34.625 
Q 24.75 34.625 20.71875 30.859375 
Q 16.703125 27.09375 16.703125 20.515625 
Q 16.703125 13.921875 20.71875 10.15625 
Q 24.75 6.390625 31.78125 6.390625 
Q 38.8125 6.390625 42.859375 10.171875 
Q 46.921875 13.96875 46.921875 20.515625 
Q 46.921875 27.09375 42.890625 30.859375 
Q 38.875 34.625 31.78125 34.625 
z
M 21.921875 38.8125 
Q 15.578125 40.375 12.03125 44.71875 
Q 8.5 49.078125 8.5 55.328125 
Q 8.5 64.0625 14.71875 69.140625 
Q 20.953125 74.21875 31.78125 74.21875 
Q 42.671875 74.21875 48.875 69.140625 
Q 55.078125 64.0625 55.078125 55.328125 
Q 55.078125 49.078125 51.53125 44.71875 
Q 48 40.375 41.703125 38.8125 
Q 48.828125 37.15625 52.796875 32.3125 
Q 56.78125 27.484375 56.78125 20.515625 
Q 56.78125 9.90625 50.3125 4.234375 
Q 43.84375 -1.421875 31.78125 -1.421875 
Q 19.734375 -1.421875 13.25 4.234375 
Q 6.78125 9.90625 6.78125 20.515625 
Q 6.78125 27.484375 10.78125 32.3125 
Q 14.796875 37.15625 21.921875 38.8125 
z
M 18.3125 54.390625 
Q 18.3125 48.734375 21.84375 45.5625 
Q 25.390625 42.390625 31.78125 42.390625 
Q 38.140625 42.390625 41.71875 45.5625 
Q 45.3125 48.734375 45.3125 54.390625 
Q 45.3125 60.0625 41.71875 63.234375 
Q 38.140625 66.40625 31.78125 66.40625 
Q 25.390625 66.40625 21.84375 63.234375 
Q 18.3125 60.0625 18.3125 54.390625 
z
" id="DejaVuSans-38"/>
      </defs>
      <g transform="translate(23.675 87.065681)scale(0.16 -0.16)">
       <use xlink:href="#DejaVuSans-30"/>
       <use x="63.623047" xlink:href="#DejaVuSans-2e"/>
       <use x="95.410156" xlink:href="#DejaVuSans-38"/>
      </g>
     </g>
    </g>
    <g id="ytick_6">
     <g id="line2d_39">
      <path clip-path="url(#p37589865ac)" d="M 56.12 27.513663 
L 333.168 27.513663 
" style="fill:none;stroke:#b0b0b0;stroke-linecap:square;stroke-width:0.8;"/>
     </g>
     <g id="line2d_40">
      <g>
       <use style="stroke:#000000;stroke-width:0.8;" x="56.12" xlink:href="#m22a01ffec6" y="27.513663"/>
      </g>
     </g>
     <g id="text_11">
      <!-- 1.0 -->
      <g transform="translate(23.675 33.592413)scale(0.16 -0.16)">
       <use xlink:href="#DejaVuSans-31"/>
       <use x="63.623047" xlink:href="#DejaVuSans-2e"/>
       <use x="95.410156" xlink:href="#DejaVuSans-30"/>
      </g>
     </g>
    </g>
    <g id="text_12">
     <!-- Fraction of function,target pairs -->
     <defs>
      <path d="M 9.8125 72.90625 
L 51.703125 72.90625 
L 51.703125 64.59375 
L 19.671875 64.59375 
L 19.671875 43.109375 
L 48.578125 43.109375 
L 48.578125 34.8125 
L 19.671875 34.8125 
L 19.671875 0 
L 9.8125 0 
z
" id="DejaVuSans-46"/>
      <path d="M 41.109375 46.296875 
Q 39.59375 47.171875 37.8125 47.578125 
Q 36.03125 48 33.890625 48 
Q 26.265625 48 22.1875 43.046875 
Q 18.109375 38.09375 18.109375 28.8125 
L 18.109375 0 
L 9.078125 0 
L 9.078125 54.6875 
L 18.109375 54.6875 
L 18.109375 46.1875 
Q 20.953125 51.171875 25.484375 53.578125 
Q 30.03125 56 36.53125 56 
Q 37.453125 56 38.578125 55.875 
Q 39.703125 55.765625 41.0625 55.515625 
z
" id="DejaVuSans-72"/>
      <path d="M 48.78125 52.59375 
L 48.78125 44.1875 
Q 44.96875 46.296875 41.140625 47.34375 
Q 37.3125 48.390625 33.40625 48.390625 
Q 24.65625 48.390625 19.8125 42.84375 
Q 14.984375 37.3125 14.984375 27.296875 
Q 14.984375 17.28125 19.8125 11.734375 
Q 24.65625 6.203125 33.40625 6.203125 
Q 37.3125 6.203125 41.140625 7.25 
Q 44.96875 8.296875 48.78125 10.40625 
L 48.78125 2.09375 
Q 45.015625 0.34375 40.984375 -0.53125 
Q 36.96875 -1.421875 32.421875 -1.421875 
Q 20.0625 -1.421875 12.78125 6.34375 
Q 5.515625 14.109375 5.515625 27.296875 
Q 5.515625 40.671875 12.859375 48.328125 
Q 20.21875 56 33.015625 56 
Q 37.15625 56 41.109375 55.140625 
Q 45.0625 54.296875 48.78125 52.59375 
z
" id="DejaVuSans-63"/>
      <path d="M 18.3125 70.21875 
L 18.3125 54.6875 
L 36.8125 54.6875 
L 36.8125 47.703125 
L 18.3125 47.703125 
L 18.3125 18.015625 
Q 18.3125 11.328125 20.140625 9.421875 
Q 21.96875 7.515625 27.59375 7.515625 
L 36.8125 7.515625 
L 36.8125 0 
L 27.59375 0 
Q 17.1875 0 13.234375 3.875 
Q 9.28125 7.765625 9.28125 18.015625 
L 9.28125 47.703125 
L 2.6875 47.703125 
L 2.6875 54.6875 
L 9.28125 54.6875 
L 9.28125 70.21875 
z
" id="DejaVuSans-74"/>
      <path d="M 8.5 21.578125 
L 8.5 54.6875 
L 17.484375 54.6875 
L 17.484375 21.921875 
Q 17.484375 14.15625 20.5 10.265625 
Q 23.53125 6.390625 29.59375 6.390625 
Q 36.859375 6.390625 41.078125 11.03125 
Q 45.3125 15.671875 45.3125 23.6875 
L 45.3125 54.6875 
L 54.296875 54.6875 
L 54.296875 0 
L 45.3125 0 
L 45.3125 8.40625 
Q 42.046875 3.421875 37.71875 1 
Q 33.40625 -1.421875 27.6875 -1.421875 
Q 18.265625 -1.421875 13.375 4.4375 
Q 8.5 10.296875 8.5 21.578125 
z
M 31.109375 56 
z
" id="DejaVuSans-75"/>
      <path d="M 11.71875 12.40625 
L 22.015625 12.40625 
L 22.015625 4 
L 14.015625 -11.625 
L 7.71875 -11.625 
L 11.71875 4 
z
" id="DejaVuSans-2c"/>
      <path d="M 18.109375 8.203125 
L 18.109375 -20.796875 
L 9.078125 -20.796875 
L 9.078125 54.6875 
L 18.109375 54.6875 
L 18.109375 46.390625 
Q 20.953125 51.265625 25.265625 53.625 
Q 29.59375 56 35.59375 56 
Q 45.5625 56 51.78125 48.09375 
Q 58.015625 40.1875 58.015625 27.296875 
Q 58.015625 14.40625 51.78125 6.484375 
Q 45.5625 -1.421875 35.59375 -1.421875 
Q 29.59375 -1.421875 25.265625 0.953125 
Q 20.953125 3.328125 18.109375 8.203125 
z
M 48.6875 27.296875 
Q 48.6875 37.203125 44.609375 42.84375 
Q 40.53125 48.484375 33.40625 48.484375 
Q 26.265625 48.484375 22.1875 42.84375 
Q 18.109375 37.203125 18.109375 27.296875 
Q 18.109375 17.390625 22.1875 11.75 
Q 26.265625 6.109375 33.40625 6.109375 
Q 40.53125 6.109375 44.609375 11.75 
Q 48.6875 17.390625 48.6875 27.296875 
z
" id="DejaVuSans-70"/>
     </defs>
     <g transform="translate(16.139531 294.999375)rotate(-90)scale(0.17 -0.17)">
      <use xlink:href="#DejaVuSans-46"/>
      <use x="57.410156" xlink:href="#DejaVuSans-72"/>
      <use x="98.523438" xlink:href="#DejaVuSans-61"/>
      <use x="159.802734" xlink:href="#DejaVuSans-63"/>
      <use x="214.783203" xlink:href="#DejaVuSans-74"/>
      <use x="253.992188" xlink:href="#DejaVuSans-69"/>
      <use x="281.775391" xlink:href="#DejaVuSans-6f"/>
      <use x="342.957031" xlink:href="#DejaVuSans-6e"/>
      <use x="406.335938" xlink:href="#DejaVuSans-20"/>
      <use x="438.123047" xlink:href="#DejaVuSans-6f"/>
      <use x="499.304688" xlink:href="#DejaVuSans-66"/>
      <use x="534.509766" xlink:href="#DejaVuSans-20"/>
      <use x="566.296875" xlink:href="#DejaVuSans-66"/>
      <use x="601.501953" xlink:href="#DejaVuSans-75"/>
      <use x="664.880859" xlink:href="#DejaVuSans-6e"/>
      <use x="728.259766" xlink:href="#DejaVuSans-63"/>
      <use x="783.240234" xlink:href="#DejaVuSans-74"/>
      <use x="822.449219" xlink:href="#DejaVuSans-69"/>
      <use x="850.232422" xlink:href="#DejaVuSans-6f"/>
      <use x="911.414062" xlink:href="#DejaVuSans-6e"/>
      <use x="974.792969" xlink:href="#DejaVuSans-2c"/>
      <use x="1006.580078" xlink:href="#DejaVuSans-74"/>
      <use x="1045.789062" xlink:href="#DejaVuSans-61"/>
      <use x="1107.068359" xlink:href="#DejaVuSans-72"/>
      <use x="1148.166016" xlink:href="#DejaVuSans-67"/>
      <use x="1211.642578" xlink:href="#DejaVuSans-65"/>
      <use x="1273.166016" xlink:href="#DejaVuSans-74"/>
      <use x="1312.375" xlink:href="#DejaVuSans-20"/>
      <use x="1344.162109" xlink:href="#DejaVuSans-70"/>
      <use x="1407.638672" xlink:href="#DejaVuSans-61"/>
      <use x="1468.917969" xlink:href="#DejaVuSans-69"/>
      <use x="1496.701172" xlink:href="#DejaVuSans-72"/>
      <use x="1537.814453" xlink:href="#DejaVuSans-73"/>
     </g>
    </g>
   </g>
   <g id="line2d_41">
    <defs>
     <path d="M 0 1.5 
C 0.397805 1.5 0.77937 1.341951 1.06066 1.06066 
C 1.341951 0.77937 1.5 0.397805 1.5 0 
C 1.5 -0.397805 1.341951 -0.77937 1.06066 -1.06066 
C 0.77937 -1.341951 0.397805 -1.5 0 -1.5 
C -0.397805 -1.5 -0.77937 -1.341951 -1.06066 -1.06066 
C -1.341951 -0.77937 -1.5 -0.397805 -1.5 0 
C -1.5 0.397805 -1.341951 0.77937 -1.06066 1.06066 
C -0.77937 1.341951 -0.397805 1.5 0 1.5 
z
" id="m25630bae7b" style="stroke:#f5deb3;"/>
    </defs>
    <g>
     <use style="fill:#f5deb3;stroke:#f5deb3;" x="148.513678" xlink:href="#m25630bae7b" y="27.513663"/>
     <use style="fill:#f5deb3;stroke:#f5deb3;" x="148.513678" xlink:href="#m25630bae7b" y="27.513663"/>
    </g>
   </g>
   <g id="line2d_42">
    <defs>
     <path d="M 0 1.5 
C 0.397805 1.5 0.77937 1.341951 1.06066 1.06066 
C 1.341951 0.77937 1.5 0.397805 1.5 0 
C 1.5 -0.397805 1.341951 -0.77937 1.06066 -1.06066 
C 0.77937 -1.341951 0.397805 -1.5 0 -1.5 
C -0.397805 -1.5 -0.77937 -1.341951 -1.06066 -1.06066 
C -1.341951 -0.77937 -1.5 -0.397805 -1.5 0 
C -1.5 0.397805 -1.341951 0.77937 -1.06066 1.06066 
C -0.77937 1.341951 -0.397805 1.5 0 1.5 
z
" id="m38899a72ec" style="stroke:#000080;"/>
    </defs>
    <g>
     <use style="fill:#000080;stroke:#000080;" x="268.801209" xlink:href="#m38899a72ec" y="190.030456"/>
     <use style="fill:#000080;stroke:#000080;" x="268.801209" xlink:href="#m38899a72ec" y="190.030456"/>
    </g>
   </g>
   <g id="line2d_43">
    <path d="M 28.455965 294.88 
L 28.455965 287.540532 
L 40.370217 287.540532 
L 40.370217 284.919293 
L 47.339607 284.919293 
L 47.339607 284.395046 
L 52.284468 284.395046 
L 52.284468 283.870798 
L 59.253858 283.870798 
L 59.253858 283.34655 
L 66.223248 283.34655 
L 66.223248 282.822302 
L 71.168109 282.822302 
L 71.168109 281.773807 
L 72.543934 281.773807 
L 72.543934 280.725312 
L 79.948502 280.725312 
L 79.948502 280.201064 
L 80.787138 280.201064 
L 80.787138 279.676816 
L 81.586754 279.676816 
L 81.586754 278.628321 
L 83.08236 278.628321 
L 83.08236 277.579825 
L 86.917893 277.579825 
L 86.917893 277.055578 
L 91.862754 277.055578 
L 91.862754 276.53133 
L 100.207968 276.53133 
L 100.207968 276.007082 
L 108.775496 276.007082 
L 108.775496 275.482834 
L 114.696138 275.482834 
L 114.696138 274.958587 
L 115.58349 274.958587 
L 115.58349 274.434339 
L 116.220179 274.434339 
L 116.220179 273.910091 
L 118.371562 273.910091 
L 118.371562 273.385844 
L 121.242993 273.385844 
L 121.242993 272.861596 
L 122.660646 272.861596 
L 122.660646 269.716109 
L 126.610389 269.716109 
L 126.610389 269.191862 
L 127.712602 269.191862 
L 127.712602 268.667614 
L 127.872003 268.667614 
L 127.872003 267.619119 
L 130.694545 267.619119 
L 130.694545 267.094871 
L 133.234845 267.094871 
L 133.234845 266.570623 
L 134.574897 266.570623 
L 134.646368 263.425137 
L 137.224536 263.425137 
L 137.224536 262.900889 
L 137.886877 262.900889 
L 137.886877 262.376641 
L 138.410429 262.376641 
L 138.410429 261.328146 
L 139.0294 261.328146 
L 139.0294 259.755403 
L 139.357855 259.755403 
L 139.357855 257.658412 
L 144.193927 257.658412 
L 144.193927 256.609917 
L 149.712298 256.609917 
L 149.712298 255.561421 
L 150.888293 255.561421 
L 150.888293 253.46443 
L 151.326243 253.46443 
L 151.326243 252.940182 
L 155.588844 252.940182 
L 155.588844 251.367439 
L 165.843741 251.367439 
L 165.843741 250.843192 
L 166.165893 250.843192 
L 166.211426 249.270448 
L 166.63253 249.270448 
L 166.63253 248.746201 
L 166.973019 248.746201 
L 167.016466 247.697705 
L 168.32666 247.697705 
L 168.32666 247.173458 
L 168.625601 247.173458 
L 168.625601 246.64921 
L 169.208322 246.64921 
L 169.313044 245.600714 
L 169.651377 245.600714 
L 169.651377 245.076467 
L 170.584146 245.076467 
L 170.584146 244.552219 
L 171.775915 244.552219 
L 171.775915 244.027971 
L 174.263836 244.027971 
L 174.263836 243.503724 
L 179.215811 243.503724 
L 179.215811 242.979476 
L 181.293606 242.979476 
L 181.293606 242.455228 
L 181.72772 242.455228 
L 181.72772 241.93098 
L 181.915676 241.93098 
L 181.915676 241.406733 
L 192.230387 241.406733 
L 192.230387 240.882485 
L 192.404639 240.882485 
L 192.404639 240.358237 
L 193.388903 240.358237 
L 193.484532 239.309742 
L 193.932207 239.309742 
L 193.932207 238.785494 
L 195.78237 238.785494 
L 195.78237 238.261246 
L 196.004762 238.261246 
L 196.004762 237.736999 
L 196.680303 237.736999 
L 196.680303 236.688503 
L 198.736562 236.688503 
L 198.736562 236.164255 
L 199.35751 236.164255 
L 199.407021 235.11576 
L 199.65246 235.11576 
L 199.65246 234.591512 
L 200.150438 234.591512 
L 200.150438 234.067265 
L 200.321611 234.067265 
L 200.321611 233.543017 
L 201.337909 233.543017 
L 201.337909 233.018769 
L 202.094288 233.018769 
L 202.094288 232.494521 
L 202.832288 232.494521 
L 202.832288 231.970274 
L 203.662563 231.970274 
L 203.662563 231.446026 
L 204.031678 231.446026 
L 204.031678 230.921778 
L 204.244427 230.921778 
L 204.244427 230.397531 
L 206.171947 230.397531 
L 206.260662 229.349035 
L 206.315878 229.349035 
L 206.359923 228.30054 
L 207.528946 228.30054 
L 207.528946 227.776292 
L 207.702725 227.776292 
L 207.702725 227.252044 
L 207.975165 227.252044 
L 207.975165 226.727797 
L 208.338692 226.727797 
L 208.338692 226.203549 
L 208.56556 226.203549 
L 208.56556 225.679301 
L 208.881836 225.679301 
L 208.881836 225.155053 
L 209.377921 225.155053 
L 209.377921 224.630806 
L 210.572669 224.630806 
L 210.572669 224.106558 
L 212.311482 224.106558 
L 212.311482 223.58231 
L 212.940036 223.58231 
L 212.940036 223.058063 
L 213.6597 223.058063 
L 213.6597 222.533815 
L 214.134926 222.533815 
L 214.134926 222.009567 
L 215.518821 222.009567 
L 215.518821 221.485319 
L 215.933332 221.485319 
L 215.933332 220.961072 
L 216.98428 220.961072 
L 216.98428 220.436824 
L 218.65483 220.436824 
L 218.735314 219.388328 
L 218.879242 219.388328 
L 218.879242 218.864081 
L 219.520081 218.864081 
L 219.571146 217.815585 
L 219.829246 217.815585 
L 219.829246 217.291338 
L 221.031874 217.291338 
L 221.031874 216.76709 
L 221.162516 216.76709 
L 221.162516 216.242842 
L 222.032553 216.242842 
L 222.032553 215.718594 
L 222.247716 215.718594 
L 222.247716 215.194347 
L 222.425703 215.194347 
L 222.425703 214.670099 
L 222.699904 214.670099 
L 222.699904 214.145851 
L 222.932101 214.145851 
L 222.932101 213.621604 
L 223.243761 213.621604 
L 223.350498 212.573108 
L 223.451287 212.573108 
L 223.451287 212.04886 
L 225.49827 212.04886 
L 225.49827 211.524613 
L 225.816752 211.524613 
L 225.816752 211.000365 
L 227.169652 211.000365 
L 227.169652 210.476117 
L 228.715898 210.476117 
L 228.715898 209.95187 
L 229.305607 209.95187 
L 229.305607 209.427622 
L 230.938858 209.427622 
L 230.938858 208.903374 
L 231.181894 208.903374 
L 231.181894 208.379126 
L 231.698231 208.379126 
L 231.698231 207.854879 
L 232.148071 207.854879 
L 232.148071 207.330631 
L 232.660409 207.330631 
L 232.660409 206.806383 
L 233.111593 206.806383 
L 233.111593 206.282136 
L 233.780301 206.282136 
L 233.884832 205.23364 
L 234.560943 205.23364 
L 234.560943 204.709392 
L 234.709525 204.709392 
L 234.709525 204.185145 
L 234.944615 204.185145 
L 234.944615 203.660897 
L 236.507842 203.660897 
L 236.507842 203.136649 
L 236.629237 203.136649 
L 236.659452 202.088154 
L 237.005011 202.088154 
L 237.005011 201.563906 
L 237.341946 201.563906 
L 237.341946 201.039658 
L 237.549225 201.039658 
L 237.599317 199.991163 
L 237.686627 199.991163 
L 237.686627 199.466915 
L 238.055874 199.466915 
L 238.055874 198.942667 
L 239.490342 198.942667 
L 239.490342 198.41842 
L 241.323734 198.41842 
L 241.323734 197.894172 
L 241.521093 197.894172 
L 241.521093 197.369924 
L 242.167164 197.369924 
L 242.167164 196.845677 
L 244.444402 196.845677 
L 244.50069 195.797181 
L 245.367997 195.797181 
L 245.367997 195.272933 
L 247.323675 195.272933 
L 247.323675 194.748686 
L 249.119656 194.748686 
L 249.119656 194.224438 
L 252.400176 194.224438 
L 252.400176 193.70019 
L 254.784459 193.70019 
L 254.784459 193.175943 
L 255.409874 193.175943 
L 255.409874 192.651695 
L 256.748849 192.651695 
L 256.748849 192.127447 
L 262.599892 192.127447 
L 262.599892 191.603199 
L 262.941466 191.603199 
L 262.941466 191.078952 
L 268.673651 191.078952 
L 268.673651 190.554704 
L 268.801209 190.554704 
L 268.801209 190.030456 
L 333.168 190.030456 
L 333.168 190.030456 
" style="fill:none;stroke:#000080;stroke-linecap:square;stroke-width:1.5;"/>
   </g>
   <g id="line2d_44">
    <defs>
     <path d="M 0 6 
C 1.591219 6 3.117479 5.367802 4.242641 4.242641 
C 5.367802 3.117479 6 1.591219 6 0 
C 6 -1.591219 5.367802 -3.117479 4.242641 -4.242641 
C 3.117479 -5.367802 1.591219 -6 0 -6 
C -1.591219 -6 -3.117479 -5.367802 -4.242641 -4.242641 
C -5.367802 -3.117479 -6 -1.591219 -6 0 
C -6 1.591219 -5.367802 3.117479 -4.242641 4.242641 
C -3.117479 5.367802 -1.591219 6 0 6 
z
" id="m4d74c057be" style="stroke:#000080;stroke-width:1.5;"/>
    </defs>
    <g>
     <use style="fill:none;stroke:#000080;stroke-width:1.5;" x="108.775496" xlink:href="#m4d74c057be" y="276.007082"/>
     <use style="fill:none;stroke:#000080;stroke-width:1.5;" x="155.588844" xlink:href="#m4d74c057be" y="251.367439"/>
     <use style="fill:none;stroke:#000080;stroke-width:1.5;" x="234.944615" xlink:href="#m4d74c057be" y="203.660897"/>
     <use style="fill:none;stroke:#000080;stroke-width:1.5;" x="268.801209" xlink:href="#m4d74c057be" y="190.554704"/>
     <use style="fill:none;stroke:#000080;stroke-width:1.5;" x="268.801209" xlink:href="#m4d74c057be" y="190.030456"/>
     <use style="fill:none;stroke:#000080;stroke-width:1.5;" x="333.168" xlink:href="#m4d74c057be" y="190.030456"/>
    </g>
   </g>
   <g id="line2d_45">
    <path style="fill:none;stroke:#000080;stroke-linecap:square;stroke-width:1.5;"/>
    <g/>
   </g>
   <g id="line2d_46">
    <path clip-path="url(#p37589865ac)" d="M 191.541218 241.406733 
" style="fill:none;stroke:#000080;stroke-linecap:square;stroke-width:1.5;"/>
    <defs>
     <path d="M -12 12 
L 12 -12 
M -12 -12 
L 12 12 
" id="m3d7d4deb0a" style="stroke:#000080;"/>
    </defs>
    <g clip-path="url(#p37589865ac)">
     <use style="fill:#000080;stroke:#000080;" x="191.541218" xlink:href="#m3d7d4deb0a" y="241.406733"/>
    </g>
   </g>
   <g id="line2d_47">
    <defs>
     <path d="M 0 1.5 
C 0.397805 1.5 0.77937 1.341951 1.06066 1.06066 
C 1.341951 0.77937 1.5 0.397805 1.5 0 
C 1.5 -0.397805 1.341951 -0.77937 1.06066 -1.06066 
C 0.77937 -1.341951 0.397805 -1.5 0 -1.5 
C -0.397805 -1.5 -0.77937 -1.341951 -1.06066 -1.06066 
C -1.341951 -0.77937 -1.5 -0.397805 -1.5 0 
C -1.5 0.397805 -1.341951 0.77937 -1.06066 1.06066 
C -0.77937 1.341951 -0.397805 1.5 0 1.5 
z
" id="m1db287be3d" style="stroke:#ff00ff;"/>
    </defs>
    <g>
     <use style="fill:#ff00ff;stroke:#ff00ff;" x="240.646016" xlink:href="#m1db287be3d" y="27.513663"/>
     <use style="fill:#ff00ff;stroke:#ff00ff;" x="240.646016" xlink:href="#m1db287be3d" y="27.513663"/>
    </g>
   </g>
   <g id="line2d_48">
    <path d="M 28.455965 294.88 
L 28.455965 287.540532 
L 40.370217 287.540532 
L 40.370217 285.443541 
L 52.284468 285.443541 
L 52.284468 284.919293 
L 56.12 284.919293 
L 56.12 281.773807 
L 59.253858 281.773807 
L 59.253858 281.249559 
L 61.903497 281.249559 
L 61.903497 280.725312 
L 66.223248 280.725312 
L 66.223248 280.201064 
L 68.034251 280.201064 
L 68.034251 279.676816 
L 71.168109 279.676816 
L 71.168109 279.152568 
L 73.817748 279.152568 
L 73.817748 278.628321 
L 75.003641 278.628321 
L 75.003641 276.53133 
L 77.155024 276.53133 
L 77.155024 275.482834 
L 79.066841 275.482834 
L 79.066841 274.958587 
L 81.586754 274.958587 
L 81.586754 273.385844 
L 82.350819 273.385844 
L 82.350819 272.861596 
L 86.335171 272.861596 
L 86.335171 272.337348 
L 94.996612 272.337348 
L 94.996612 271.8131 
L 96.372436 271.8131 
L 96.372436 270.764605 
L 98.249422 270.764605 
L 98.249422 270.240357 
L 99.11626 270.240357 
L 99.11626 269.716109 
L 99.395756 269.716109 
L 99.395756 268.667614 
L 100.470395 268.667614 
L 100.470395 267.619119 
L 101.725597 267.619119 
L 101.725597 267.094871 
L 104.819059 267.094871 
L 104.819059 266.046375 
L 105.415256 266.046375 
L 105.415256 265.522128 
L 106.910863 265.522128 
L 106.910863 264.99788 
L 107.26528 264.99788 
L 107.26528 264.473632 
L 110.746395 264.473632 
L 110.746395 263.949385 
L 110.88904 263.949385 
L 110.88904 263.425137 
L 111.585031 263.425137 
L 111.585031 262.900889 
L 112.384646 262.900889 
L 112.384646 262.376641 
L 113.023703 262.376641 
L 113.023703 261.328146 
L 113.518374 261.328146 
L 113.518374 259.755403 
L 114.809594 259.755403 
L 114.809594 258.706907 
L 115.145539 258.706907 
L 115.145539 258.18266 
L 116.220179 258.18266 
L 116.220179 257.658412 
L 116.631902 257.658412 
L 116.631902 257.134164 
L 117.033994 257.134164 
L 117.033994 256.609917 
L 117.523731 256.609917 
L 117.523731 256.085669 
L 117.999901 256.085669 
L 117.999901 255.561421 
L 118.371562 255.561421 
L 118.463235 253.988678 
L 118.914406 253.988678 
L 118.914406 253.46443 
L 121.242993 253.46443 
L 121.242993 252.940182 
L 121.778985 252.940182 
L 121.778985 252.415935 
L 124.298898 252.415935 
L 124.298898 251.891687 
L 125.371564 251.891687 
L 125.432625 250.843192 
L 126.667211 250.843192 
L 126.667211 250.318944 
L 129.194858 250.318944 
L 129.194858 249.270448 
L 129.725264 249.270448 
L 129.725264 248.221953 
L 130.559378 248.221953 
L 130.559378 247.697705 
L 130.917487 247.697705 
L 131.005861 246.64921 
L 132.238701 246.64921 
L 132.320552 245.076467 
L 132.483094 245.076467 
L 132.483094 244.552219 
L 132.882847 244.552219 
L 132.882847 244.027971 
L 134.249551 244.027971 
L 134.249551 243.503724 
L 135.884484 243.503724 
L 135.950722 241.93098 
L 136.375154 241.93098 
L 136.375154 241.406733 
L 136.694654 241.406733 
L 136.694654 240.358237 
L 137.10132 240.358237 
L 137.10132 238.785494 
L 137.975251 238.785494 
L 137.975251 238.261246 
L 138.266591 238.261246 
L 138.266591 237.736999 
L 138.834862 237.736999 
L 138.834862 236.688503 
L 139.139583 236.688503 
L 139.139583 236.164255 
L 140.230025 236.164255 
L 140.230025 235.11576 
L 140.662626 235.11576 
L 140.662626 234.067265 
L 141.781376 234.067265 
L 141.781376 233.018769 
L 141.991995 233.018769 
L 141.991995 232.494521 
L 142.245962 232.494521 
L 142.245962 231.446026 
L 142.653616 231.446026 
L 142.675983 229.873283 
L 143.029944 229.873283 
L 143.029944 228.824787 
L 143.419627 228.824787 
L 143.419627 226.203549 
L 143.674593 226.203549 
L 143.674593 225.679301 
L 143.800672 225.679301 
L 143.800672 223.58231 
L 144.132429 223.58231 
L 144.132429 223.058063 
L 144.397345 223.058063 
L 144.397345 222.533815 
L 144.618359 222.533815 
L 144.618359 220.436824 
L 144.836567 220.436824 
L 144.836567 219.912576 
L 145.013063 219.912576 
L 145.013063 219.388328 
L 145.34158 219.388328 
L 145.34158 218.864081 
L 145.832178 218.864081 
L 145.832178 218.339833 
L 146.035596 218.339833 
L 146.035596 217.291338 
L 146.163802 217.291338 
L 146.182039 214.670099 
L 146.542779 214.670099 
L 146.614027 212.573108 
L 146.808451 212.573108 
L 146.913581 211.524613 
L 147.190823 211.524613 
L 147.190823 211.000365 
L 147.378865 211.000365 
L 147.378865 208.903374 
L 147.815319 208.903374 
L 147.815319 206.806383 
L 148.029459 206.806383 
L 148.029459 206.282136 
L 148.561358 206.282136 
L 148.593071 203.660897 
L 148.829074 203.660897 
L 148.844693 201.039658 
L 149.352314 201.039658 
L 149.352314 200.515411 
L 149.860095 200.515411 
L 149.860095 199.991163 
L 150.957462 199.991163 
L 150.957462 199.466915 
L 151.447433 199.466915 
L 151.447433 198.942667 
L 177.538839 198.942667 
L 177.574092 197.894172 
L 177.965782 197.894172 
L 177.965782 197.369924 
L 178.449443 197.369924 
L 178.449443 196.845677 
L 179.087298 196.845677 
L 179.165056 195.797181 
L 179.427889 195.797181 
L 179.427889 195.272933 
L 179.548658 195.272933 
L 179.548658 194.748686 
L 189.878598 194.748686 
L 189.878598 194.224438 
L 191.055213 194.224438 
L 191.146059 193.175943 
L 191.315773 193.175943 
L 191.315773 192.651695 
L 191.45375 192.651695 
L 191.560739 191.078952 
L 191.625651 191.078952 
L 191.673529 190.030456 
L 191.866271 190.030456 
L 191.866271 189.506209 
L 192.03285 189.506209 
L 192.10483 187.933465 
L 192.190308 187.933465 
L 192.234139 186.360722 
L 192.3252 186.360722 
L 192.386054 184.263731 
L 192.446693 184.263731 
L 192.53295 181.642493 
L 192.607766 181.642493 
L 192.700526 179.545502 
L 192.745505 179.545502 
L 192.848391 176.400016 
L 192.868895 176.400016 
L 192.942266 174.303025 
L 192.983026 174.303025 
L 193.036824 173.254529 
L 193.114237 173.254529 
L 193.168812 171.681786 
L 193.269203 171.681786 
L 193.373693 169.584795 
L 193.415779 169.584795 
L 193.513581 168.012052 
L 193.528668 168.012052 
L 193.637362 164.342318 
L 193.650036 164.342318 
L 193.719007 162.769575 
L 193.796841 162.769575 
L 193.898182 160.672584 
L 194.219852 160.672584 
L 194.265476 159.624089 
L 194.345305 159.624089 
L 194.453368 158.051345 
L 194.6142 158.051345 
L 194.6142 157.527098 
L 197.960186 157.527098 
L 197.960186 157.00285 
L 198.085221 157.00285 
L 198.085221 156.478602 
L 198.270204 156.478602 
L 198.270204 155.954354 
L 198.778493 155.954354 
L 198.778493 155.430107 
L 199.10863 155.430107 
L 199.10863 154.905859 
L 199.270521 154.905859 
L 199.376506 153.333116 
L 199.481842 153.333116 
L 199.481842 152.808868 
L 199.624006 152.808868 
L 199.624006 152.28462 
L 201.54507 152.28462 
L 201.619127 150.711877 
L 201.686374 150.711877 
L 201.697195 149.663382 
L 202.004552 149.663382 
L 202.101334 148.614886 
L 202.780902 148.614886 
L 202.780902 148.090639 
L 203.208901 148.090639 
L 203.308347 147.042143 
L 203.426797 147.042143 
L 203.426797 146.517896 
L 203.620699 146.517896 
L 203.729976 145.4694 
L 203.793296 145.4694 
L 203.902119 144.420905 
L 203.952795 144.420905 
L 203.952795 143.896657 
L 204.065016 143.896657 
L 204.132749 142.323914 
L 204.43183 142.323914 
L 204.53364 140.751171 
L 204.558693 140.751171 
L 204.653078 136.557189 
L 204.724586 136.557189 
L 204.833096 132.363207 
L 204.849314 132.363207 
L 204.927783 129.741969 
L 204.96599 129.741969 
L 205.056391 127.12073 
L 205.095496 127.12073 
L 205.185809 124.499491 
L 205.223447 124.499491 
L 205.296721 123.450996 
L 205.449877 123.450996 
L 205.530852 121.878253 
L 205.574075 121.878253 
L 205.60915 120.829757 
L 207.130872 120.829757 
L 207.130872 120.30551 
L 207.256068 120.30551 
L 207.256068 119.781262 
L 207.469252 119.781262 
L 207.469252 119.257014 
L 207.610943 119.257014 
L 207.610943 118.732766 
L 208.072993 118.732766 
L 208.072993 118.208519 
L 208.201417 118.208519 
L 208.274373 116.635776 
L 208.827144 116.635776 
L 208.827144 116.111528 
L 209.134476 116.111528 
L 209.134476 115.58728 
L 209.271954 115.58728 
L 209.323862 114.538785 
L 209.489657 114.538785 
L 209.489657 113.490289 
L 209.850218 113.490289 
L 209.850218 112.966042 
L 209.994132 112.966042 
L 209.994132 112.441794 
L 210.397057 112.441794 
L 210.494168 110.869051 
L 210.889474 110.869051 
L 210.982169 108.77206 
L 211.046341 108.77206 
L 211.129867 105.626573 
L 211.172724 105.626573 
L 211.172724 105.102326 
L 211.348031 105.102326 
L 211.419869 103.005335 
L 211.472223 103.005335 
L 211.51831 101.956839 
L 211.653814 101.956839 
L 211.72801 100.908344 
L 211.777028 100.908344 
L 211.862675 99.859849 
L 211.976079 99.859849 
L 211.993125 98.811353 
L 212.17246 98.811353 
L 212.17246 98.287105 
L 212.469825 98.287105 
L 212.469825 97.762858 
L 213.652866 97.762858 
L 213.732901 95.665867 
L 213.860969 95.665867 
L 213.940396 94.093124 
L 214.121279 94.093124 
L 214.149961 93.044628 
L 214.710044 93.044628 
L 214.730666 90.947637 
L 214.89242 90.947637 
L 214.926192 89.899142 
L 215.079505 89.899142 
L 215.079505 89.374894 
L 215.214059 89.374894 
L 215.25835 88.326399 
L 215.538174 88.326399 
L 215.568772 86.753656 
L 215.708824 86.753656 
L 215.776357 85.70516 
L 215.845844 85.70516 
L 215.846477 84.656665 
L 216.080143 84.656665 
L 216.080143 84.132417 
L 216.19595 84.132417 
L 216.207116 83.083922 
L 216.320226 83.083922 
L 216.391847 82.035426 
L 216.455533 82.035426 
L 216.479965 80.986931 
L 216.657272 80.986931 
L 216.726904 79.414188 
L 216.836655 79.414188 
L 216.896632 77.841444 
L 216.969752 77.841444 
L 216.969752 77.317197 
L 217.208925 77.317197 
L 217.22705 76.268701 
L 217.402639 76.268701 
L 217.402639 75.744454 
L 217.906257 75.744454 
L 217.906257 75.220206 
L 218.324961 75.220206 
L 218.324961 74.695958 
L 219.025923 74.695958 
L 219.025923 74.17171 
L 219.254923 74.17171 
L 219.345831 71.550472 
L 219.398189 71.550472 
L 219.398189 71.026224 
L 220.004903 71.026224 
L 220.004903 70.501976 
L 220.203129 70.501976 
L 220.203129 69.977729 
L 220.391319 69.977729 
L 220.427741 68.929233 
L 220.577471 68.929233 
L 220.620697 67.880738 
L 221.411469 67.880738 
L 221.484157 66.832242 
L 221.534492 66.832242 
L 221.534492 66.307995 
L 221.778153 66.307995 
L 221.796978 65.259499 
L 222.111466 65.259499 
L 222.168112 64.211004 
L 222.25884 64.211004 
L 222.364701 63.162508 
L 222.490363 63.162508 
L 222.536553 62.114013 
L 222.611909 62.114013 
L 222.641788 61.065517 
L 222.901252 61.065517 
L 222.971474 60.017022 
L 223.086144 60.017022 
L 223.086144 59.492774 
L 223.22522 59.492774 
L 223.280989 57.920031 
L 223.777126 57.920031 
L 223.777126 57.395783 
L 224.240701 57.395783 
L 224.28785 56.347288 
L 224.571687 56.347288 
L 224.571687 55.82304 
L 224.706667 55.82304 
L 224.706667 55.298792 
L 224.947402 55.298792 
L 225.040758 53.726049 
L 225.094088 53.726049 
L 225.094088 53.201802 
L 225.448354 53.201802 
L 225.495561 52.153306 
L 225.56154 52.153306 
L 225.67059 51.104811 
L 225.949901 51.104811 
L 226.010833 50.056315 
L 226.509234 50.056315 
L 226.509234 49.532068 
L 226.858807 49.532068 
L 226.936216 48.483572 
L 227.3462 48.483572 
L 227.38783 47.435077 
L 227.668657 47.435077 
L 227.778609 45.862334 
L 228.251872 45.862334 
L 228.304718 44.28959 
L 228.460008 44.28959 
L 228.460008 43.765343 
L 228.851494 43.765343 
L 228.851494 43.241095 
L 229.020051 43.241095 
L 229.020051 42.716847 
L 229.137357 42.716847 
L 229.184493 41.668352 
L 229.578379 41.668352 
L 229.676519 40.619856 
L 229.995584 40.619856 
L 229.995584 40.095609 
L 230.137764 40.095609 
L 230.137764 39.571361 
L 230.380487 39.571361 
L 230.380487 39.047113 
L 230.741259 39.047113 
L 230.741259 38.522865 
L 232.136783 38.522865 
L 232.136783 37.998618 
L 232.295237 37.998618 
L 232.37289 36.950122 
L 232.45658 36.950122 
L 232.45658 36.425875 
L 232.59851 36.425875 
L 232.59851 35.901627 
L 232.902396 35.901627 
L 232.902396 35.377379 
L 233.021016 35.377379 
L 233.021016 34.853131 
L 233.441919 34.853131 
L 233.469881 33.804636 
L 233.854316 33.804636 
L 233.904222 32.756141 
L 234.123196 32.756141 
L 234.15542 31.707645 
L 234.873588 31.707645 
L 234.873588 31.183397 
L 234.991354 31.183397 
L 234.991354 30.65915 
L 236.731377 30.65915 
L 236.731377 30.134902 
L 237.222029 30.134902 
L 237.222029 29.610654 
L 238.393747 29.610654 
L 238.393747 29.086407 
L 239.991844 29.086407 
L 240.101612 28.037911 
L 240.646016 28.037911 
L 240.646016 27.513663 
L 333.168 27.513663 
L 333.168 27.513663 
" style="fill:none;stroke:#ff00ff;stroke-linecap:square;stroke-width:1.5;"/>
   </g>
   <g id="line2d_49">
    <defs>
     <path d="M -0 8.485281 
L 5.091169 0 
L 0 -8.485281 
L -5.091169 -0 
z
" id="me702f2eca2" style="stroke:#ff00ff;stroke-linejoin:miter;stroke-width:1.5;"/>
    </defs>
    <g>
     <use style="fill:none;stroke:#ff00ff;stroke-linejoin:miter;stroke-width:1.5;" x="101.725597" xlink:href="#me702f2eca2" y="267.094871"/>
     <use style="fill:none;stroke:#ff00ff;stroke-linejoin:miter;stroke-width:1.5;" x="151.447433" xlink:href="#me702f2eca2" y="198.942667"/>
     <use style="fill:none;stroke:#ff00ff;stroke-linejoin:miter;stroke-width:1.5;" x="223.280989" xlink:href="#me702f2eca2" y="58.444279"/>
     <use style="fill:none;stroke:#ff00ff;stroke-linejoin:miter;stroke-width:1.5;" x="240.646016" xlink:href="#me702f2eca2" y="27.513663"/>
     <use style="fill:none;stroke:#ff00ff;stroke-linejoin:miter;stroke-width:1.5;" x="240.646016" xlink:href="#me702f2eca2" y="27.513663"/>
     <use style="fill:none;stroke:#ff00ff;stroke-linejoin:miter;stroke-width:1.5;" x="333.168" xlink:href="#me702f2eca2" y="27.513663"/>
    </g>
   </g>
   <g id="line2d_50">
    <path style="fill:none;stroke:#ff00ff;stroke-linecap:square;stroke-width:1.5;"/>
    <g/>
   </g>
   <g id="line2d_51">
    <path clip-path="url(#p37589865ac)" d="M 192.355033 185.312227 
" style="fill:none;stroke:#ff00ff;stroke-linecap:square;stroke-width:1.5;"/>
    <defs>
     <path d="M -12 12 
L 12 -12 
M -12 -12 
L 12 12 
" id="m97d6389969" style="stroke:#ff00ff;"/>
    </defs>
    <g clip-path="url(#p37589865ac)">
     <use style="fill:#ff00ff;stroke:#ff00ff;" x="192.355033" xlink:href="#m97d6389969" y="185.312227"/>
    </g>
   </g>
   <g id="line2d_52">
    <defs>
     <path d="M 0 1.5 
C 0.397805 1.5 0.77937 1.341951 1.06066 1.06066 
C 1.341951 0.77937 1.5 0.397805 1.5 0 
C 1.5 -0.397805 1.341951 -0.77937 1.06066 -1.06066 
C 0.77937 -1.341951 0.397805 -1.5 0 -1.5 
C -0.397805 -1.5 -0.77937 -1.341951 -1.06066 -1.06066 
C -1.341951 -0.77937 -1.5 -0.397805 -1.5 0 
C -1.5 0.397805 -1.341951 0.77937 -1.06066 1.06066 
C -0.77937 1.341951 -0.397805 1.5 0 1.5 
z
" id="mf522da3df6" style="stroke:#ff7500;"/>
    </defs>
    <g>
     <use style="fill:#ff7500;stroke:#ff7500;" x="250.493891" xlink:href="#mf522da3df6" y="237.212751"/>
     <use style="fill:#ff7500;stroke:#ff7500;" x="250.493891" xlink:href="#mf522da3df6" y="237.212751"/>
    </g>
   </g>
   <g id="line2d_53">
    <path d="M 28.455965 294.88 
L 28.455965 288.06478 
L 40.370217 288.06478 
L 40.370217 287.016284 
L 47.339607 287.016284 
L 47.339607 283.34655 
L 56.12 283.34655 
L 56.12 282.298055 
L 59.253858 282.298055 
L 59.253858 281.773807 
L 61.903497 281.773807 
L 61.903497 280.201064 
L 73.817748 280.201064 
L 73.817748 279.676816 
L 79.066841 279.676816 
L 79.066841 279.152568 
L 86.335171 279.152568 
L 86.335171 278.628321 
L 91.427575 278.628321 
L 91.427575 277.579825 
L 92.287186 277.579825 
L 92.287186 277.055578 
L 92.70139 277.055578 
L 92.70139 276.53133 
L 93.105847 276.53133 
L 93.105847 276.007082 
L 93.887283 276.007082 
L 93.887283 275.482834 
L 100.470395 275.482834 
L 100.470395 273.385844 
L 101.481783 273.385844 
L 101.481783 272.337348 
L 110.014853 272.337348 
L 110.014853 271.8131 
L 111.030511 271.8131 
L 111.030511 271.288853 
L 111.170827 271.288853 
L 111.170827 270.764605 
L 113.272818 270.764605 
L 113.272818 270.240357 
L 113.639848 270.240357 
L 113.639848 269.191862 
L 113.880253 269.191862 
L 113.880253 268.667614 
L 113.999206 268.667614 
L 113.999206 268.143366 
L 119.526788 268.143366 
L 119.526788 267.094871 
L 119.697821 267.094871 
L 119.697821 266.046375 
L 120.034863 266.046375 
L 120.034863 265.522128 
L 121.16504 265.522128 
L 121.16504 264.99788 
L 122.298767 264.99788 
L 122.298767 264.473632 
L 133.157244 264.473632 
L 133.157244 263.949385 
L 137.916386 263.949385 
L 137.916386 263.425137 
L 142.920112 263.425137 
L 142.920112 261.852394 
L 166.114524 261.852394 
L 166.114524 261.328146 
L 166.307784 261.328146 
L 166.307784 260.803898 
L 166.554703 260.803898 
L 166.554703 260.279651 
L 166.967581 260.279651 
L 166.967581 259.231155 
L 167.183793 259.231155 
L 167.183793 258.706907 
L 167.413227 258.706907 
L 167.413227 258.18266 
L 167.602984 258.18266 
L 167.602984 257.658412 
L 168.129524 257.658412 
L 168.129524 257.134164 
L 168.426886 257.134164 
L 168.426886 256.609917 
L 178.687639 256.609917 
L 178.687639 256.085669 
L 208.542814 256.085669 
L 208.542814 255.561421 
L 209.368692 255.561421 
L 209.368692 255.037173 
L 209.977211 255.037173 
L 209.977211 254.512926 
L 210.417479 254.512926 
L 210.417479 253.988678 
L 211.347209 253.988678 
L 211.362012 252.940182 
L 211.616191 252.940182 
L 211.62348 251.891687 
L 212.460959 251.891687 
L 212.460959 250.843192 
L 212.683147 250.843192 
L 212.683147 250.318944 
L 213.595933 250.318944 
L 213.595933 249.794696 
L 213.847102 249.794696 
L 213.847102 249.270448 
L 223.448643 249.270448 
L 223.464709 248.221953 
L 223.76874 248.221953 
L 223.85599 247.173458 
L 224.096707 247.173458 
L 224.096707 246.64921 
L 224.396981 246.64921 
L 224.396981 246.124962 
L 224.639215 246.124962 
L 224.639215 245.600714 
L 229.059144 245.600714 
L 229.059144 245.076467 
L 229.379106 245.076467 
L 229.379106 244.552219 
L 229.871413 244.552219 
L 229.906942 243.503724 
L 230.202991 243.503724 
L 230.202991 242.979476 
L 231.472645 242.979476 
L 231.472645 242.455228 
L 233.829309 242.455228 
L 233.829309 241.93098 
L 234.32213 241.93098 
L 234.32213 241.406733 
L 235.311953 241.406733 
L 235.311953 240.882485 
L 235.782755 240.882485 
L 235.879771 239.83399 
L 237.664841 239.83399 
L 237.664841 239.309742 
L 238.407131 239.309742 
L 238.407131 238.785494 
L 239.678541 238.785494 
L 239.678541 238.261246 
L 242.956755 238.261246 
L 242.956755 237.736999 
L 250.493891 237.736999 
L 250.493891 237.212751 
L 333.168 237.212751 
L 333.168 237.212751 
" style="fill:none;stroke:#ff7500;stroke-linecap:square;stroke-width:1.5;"/>
   </g>
   <g id="line2d_54">
    <defs>
     <path d="M 0 -6 
L -1.347084 -1.854102 
L -5.706339 -1.854102 
L -2.179628 0.708204 
L -3.526712 4.854102 
L -0 2.291796 
L 3.526712 4.854102 
L 2.179628 0.708204 
L 5.706339 -1.854102 
L 1.347084 -1.854102 
z
" id="m1ef3e86f75" style="stroke:#ff7500;stroke-linejoin:bevel;stroke-width:1.5;"/>
    </defs>
    <g>
     <use style="fill:none;stroke:#ff7500;stroke-linejoin:bevel;stroke-width:1.5;" x="73.817748" xlink:href="#m1ef3e86f75" y="279.676816"/>
     <use style="fill:none;stroke:#ff7500;stroke-linejoin:bevel;stroke-width:1.5;" x="142.920112" xlink:href="#m1ef3e86f75" y="263.425137"/>
     <use style="fill:none;stroke:#ff7500;stroke-linejoin:bevel;stroke-width:1.5;" x="213.847102" xlink:href="#m1ef3e86f75" y="249.794696"/>
     <use style="fill:none;stroke:#ff7500;stroke-linejoin:bevel;stroke-width:1.5;" x="250.493891" xlink:href="#m1ef3e86f75" y="237.736999"/>
     <use style="fill:none;stroke:#ff7500;stroke-linejoin:bevel;stroke-width:1.5;" x="250.493891" xlink:href="#m1ef3e86f75" y="237.212751"/>
     <use style="fill:none;stroke:#ff7500;stroke-linejoin:bevel;stroke-width:1.5;" x="333.168" xlink:href="#m1ef3e86f75" y="237.212751"/>
    </g>
   </g>
   <g id="line2d_55">
    <path style="fill:none;stroke:#ff7500;stroke-linecap:square;stroke-width:1.5;"/>
    <g/>
   </g>
   <g id="line2d_56">
    <path clip-path="url(#p37589865ac)" d="M 209.913832 255.037173 
" style="fill:none;stroke:#ff7500;stroke-linecap:square;stroke-width:1.5;"/>
    <defs>
     <path d="M -12 12 
L 12 -12 
M -12 -12 
L 12 12 
" id="m7a57039ab6" style="stroke:#ff7500;"/>
    </defs>
    <g clip-path="url(#p37589865ac)">
     <use style="fill:#ff7500;stroke:#ff7500;" x="209.913832" xlink:href="#m7a57039ab6" y="255.037173"/>
    </g>
   </g>
   <g id="line2d_57">
    <path d="M 333.168 237.212751 
L 363.64328 289.532673 
" style="fill:none;stroke:#ff7500;stroke-linecap:square;stroke-width:1.5;"/>
    <g>
     <use style="fill:none;stroke:#ff7500;stroke-linejoin:bevel;stroke-width:1.5;" x="333.168" xlink:href="#m1ef3e86f75" y="237.212751"/>
     <use style="fill:none;stroke:#ff7500;stroke-linejoin:bevel;stroke-width:1.5;" x="363.64328" xlink:href="#m1ef3e86f75" y="289.532673"/>
    </g>
   </g>
   <g id="line2d_58">
    <path d="M 333.168 190.030456 
L 363.64328 203.975446 
" style="fill:none;stroke:#000080;stroke-linecap:square;stroke-width:1.5;"/>
    <g>
     <use style="fill:none;stroke:#000080;stroke-width:1.5;" x="333.168" xlink:href="#m4d74c057be" y="190.030456"/>
     <use style="fill:none;stroke:#000080;stroke-width:1.5;" x="363.64328" xlink:href="#m4d74c057be" y="203.975446"/>
    </g>
   </g>
   <g id="line2d_59">
    <path d="M 333.168 27.513663 
L 363.64328 118.418218 
" style="fill:none;stroke:#ff00ff;stroke-linecap:square;stroke-width:1.5;"/>
    <g>
     <use style="fill:none;stroke:#ff00ff;stroke-linejoin:miter;stroke-width:1.5;" x="333.168" xlink:href="#me702f2eca2" y="27.513663"/>
     <use style="fill:none;stroke:#ff00ff;stroke-linejoin:miter;stroke-width:1.5;" x="363.64328" xlink:href="#me702f2eca2" y="118.418218"/>
    </g>
   </g>
   <g id="line2d_60">
    <path d="M 333.168 294.88 
L 333.168 27.513663 
" style="fill:none;stroke:#000000;stroke-linecap:square;stroke-width:1.5;"/>
   </g>
   <g id="patch_3">
    <path d="M 56.12 294.88 
L 56.12 24.84 
" style="fill:none;stroke:#000000;stroke-linecap:square;stroke-linejoin:miter;stroke-width:0.8;"/>
   </g>
   <g id="patch_4">
    <path d="M 333.168 294.88 
L 333.168 24.84 
" style="fill:none;stroke:#000000;stroke-linecap:square;stroke-linejoin:miter;stroke-width:0.8;"/>
   </g>
   <g id="patch_5">
    <path d="M 56.12 294.88 
L 333.168 294.88 
" style="fill:none;stroke:#000000;stroke-linecap:square;stroke-linejoin:miter;stroke-width:0.8;"/>
   </g>
   <g id="patch_6">
    <path d="M 56.12 24.84 
L 333.168 24.84 
" style="fill:none;stroke:#000000;stroke-linecap:square;stroke-linejoin:miter;stroke-width:0.8;"/>
   </g>
   <g id="text_13">
    <!-- ppmf-new -->
    <defs>
     <path d="M 4.203125 54.6875 
L 13.1875 54.6875 
L 24.421875 12.015625 
L 35.59375 54.6875 
L 46.1875 54.6875 
L 57.421875 12.015625 
L 68.609375 54.6875 
L 77.59375 54.6875 
L 63.28125 0 
L 52.6875 0 
L 40.921875 44.828125 
L 29.109375 0 
L 18.5 0 
z
" id="DejaVuSans-77"/>
    </defs>
    <g transform="translate(369.18424 294.223611)scale(0.17 -0.17)">
     <use xlink:href="#DejaVuSans-70"/>
     <use x="63.476562" xlink:href="#DejaVuSans-70"/>
     <use x="126.953125" xlink:href="#DejaVuSans-6d"/>
     <use x="224.365234" xlink:href="#DejaVuSans-66"/>
     <use x="259.492188" xlink:href="#DejaVuSans-2d"/>
     <use x="295.576172" xlink:href="#DejaVuSans-6e"/>
     <use x="358.955078" xlink:href="#DejaVuSans-65"/>
     <use x="420.478516" xlink:href="#DejaVuSans-77"/>
    </g>
   </g>
   <g id="text_14">
    <!-- CMA ES PPM -->
    <defs>
     <path d="M 64.40625 67.28125 
L 64.40625 56.890625 
Q 59.421875 61.53125 53.78125 63.8125 
Q 48.140625 66.109375 41.796875 66.109375 
Q 29.296875 66.109375 22.65625 58.46875 
Q 16.015625 50.828125 16.015625 36.375 
Q 16.015625 21.96875 22.65625 14.328125 
Q 29.296875 6.6875 41.796875 6.6875 
Q 48.140625 6.6875 53.78125 8.984375 
Q 59.421875 11.28125 64.40625 15.921875 
L 64.40625 5.609375 
Q 59.234375 2.09375 53.4375 0.328125 
Q 47.65625 -1.421875 41.21875 -1.421875 
Q 24.65625 -1.421875 15.125 8.703125 
Q 5.609375 18.84375 5.609375 36.375 
Q 5.609375 53.953125 15.125 64.078125 
Q 24.65625 74.21875 41.21875 74.21875 
Q 47.75 74.21875 53.53125 72.484375 
Q 59.328125 70.75 64.40625 67.28125 
z
" id="DejaVuSans-43"/>
     <path d="M 9.8125 72.90625 
L 24.515625 72.90625 
L 43.109375 23.296875 
L 61.8125 72.90625 
L 76.515625 72.90625 
L 76.515625 0 
L 66.890625 0 
L 66.890625 64.015625 
L 48.09375 14.015625 
L 38.1875 14.015625 
L 19.390625 64.015625 
L 19.390625 0 
L 9.8125 0 
z
" id="DejaVuSans-4d"/>
     <path d="M 34.1875 63.1875 
L 20.796875 26.90625 
L 47.609375 26.90625 
z
M 28.609375 72.90625 
L 39.796875 72.90625 
L 67.578125 0 
L 57.328125 0 
L 50.6875 18.703125 
L 17.828125 18.703125 
L 11.1875 0 
L 0.78125 0 
z
" id="DejaVuSans-41"/>
     <path d="M 9.8125 72.90625 
L 55.90625 72.90625 
L 55.90625 64.59375 
L 19.671875 64.59375 
L 19.671875 43.015625 
L 54.390625 43.015625 
L 54.390625 34.71875 
L 19.671875 34.71875 
L 19.671875 8.296875 
L 56.78125 8.296875 
L 56.78125 0 
L 9.8125 0 
z
" id="DejaVuSans-45"/>
     <path d="M 53.515625 70.515625 
L 53.515625 60.890625 
Q 47.90625 63.578125 42.921875 64.890625 
Q 37.9375 66.21875 33.296875 66.21875 
Q 25.25 66.21875 20.875 63.09375 
Q 16.5 59.96875 16.5 54.203125 
Q 16.5 49.359375 19.40625 46.890625 
Q 22.3125 44.4375 30.421875 42.921875 
L 36.375 41.703125 
Q 47.40625 39.59375 52.65625 34.296875 
Q 57.90625 29 57.90625 20.125 
Q 57.90625 9.515625 50.796875 4.046875 
Q 43.703125 -1.421875 29.984375 -1.421875 
Q 24.8125 -1.421875 18.96875 -0.25 
Q 13.140625 0.921875 6.890625 3.21875 
L 6.890625 13.375 
Q 12.890625 10.015625 18.65625 8.296875 
Q 24.421875 6.59375 29.984375 6.59375 
Q 38.421875 6.59375 43.015625 9.90625 
Q 47.609375 13.234375 47.609375 19.390625 
Q 47.609375 24.75 44.3125 27.78125 
Q 41.015625 30.8125 33.5 32.328125 
L 27.484375 33.5 
Q 16.453125 35.6875 11.515625 40.375 
Q 6.59375 45.0625 6.59375 53.421875 
Q 6.59375 63.09375 13.40625 68.65625 
Q 20.21875 74.21875 32.171875 74.21875 
Q 37.3125 74.21875 42.625 73.28125 
Q 47.953125 72.359375 53.515625 70.515625 
z
" id="DejaVuSans-53"/>
     <path d="M 19.671875 64.796875 
L 19.671875 37.40625 
L 32.078125 37.40625 
Q 38.96875 37.40625 42.71875 40.96875 
Q 46.484375 44.53125 46.484375 51.125 
Q 46.484375 57.671875 42.71875 61.234375 
Q 38.96875 64.796875 32.078125 64.796875 
z
M 9.8125 72.90625 
L 32.078125 72.90625 
Q 44.34375 72.90625 50.609375 67.359375 
Q 56.890625 61.8125 56.890625 51.125 
Q 56.890625 40.328125 50.609375 34.8125 
Q 44.34375 29.296875 32.078125 29.296875 
L 19.671875 29.296875 
L 19.671875 0 
L 9.8125 0 
z
" id="DejaVuSans-50"/>
    </defs>
    <g transform="translate(369.18424 208.666383)scale(0.17 -0.17)">
     <use xlink:href="#DejaVuSans-43"/>
     <use x="69.824219" xlink:href="#DejaVuSans-4d"/>
     <use x="156.103516" xlink:href="#DejaVuSans-41"/>
     <use x="224.511719" xlink:href="#DejaVuSans-20"/>
     <use x="256.298828" xlink:href="#DejaVuSans-45"/>
     <use x="319.482422" xlink:href="#DejaVuSans-53"/>
     <use x="382.958984" xlink:href="#DejaVuSans-20"/>
     <use x="414.746094" xlink:href="#DejaVuSans-50"/>
     <use x="475.048828" xlink:href="#DejaVuSans-50"/>
     <use x="535.351562" xlink:href="#DejaVuSans-4d"/>
    </g>
   </g>
   <g id="text_15">
    <!-- CMA ES CSA -->
    <g transform="translate(369.18424 123.109155)scale(0.17 -0.17)">
     <use xlink:href="#DejaVuSans-43"/>
     <use x="69.824219" xlink:href="#DejaVuSans-4d"/>
     <use x="156.103516" xlink:href="#DejaVuSans-41"/>
     <use x="224.511719" xlink:href="#DejaVuSans-20"/>
     <use x="256.298828" xlink:href="#DejaVuSans-45"/>
     <use x="319.482422" xlink:href="#DejaVuSans-53"/>
     <use x="382.958984" xlink:href="#DejaVuSans-20"/>
     <use x="414.746094" xlink:href="#DejaVuSans-43"/>
     <use x="484.570312" xlink:href="#DejaVuSans-53"/>
     <use x="548.0625" xlink:href="#DejaVuSans-41"/>
    </g>
   </g>
   <g id="text_16">
    <!-- best 2009 -->
    <defs>
     <path d="M 48.6875 27.296875 
Q 48.6875 37.203125 44.609375 42.84375 
Q 40.53125 48.484375 33.40625 48.484375 
Q 26.265625 48.484375 22.1875 42.84375 
Q 18.109375 37.203125 18.109375 27.296875 
Q 18.109375 17.390625 22.1875 11.75 
Q 26.265625 6.109375 33.40625 6.109375 
Q 40.53125 6.109375 44.609375 11.75 
Q 48.6875 17.390625 48.6875 27.296875 
z
M 18.109375 46.390625 
Q 20.953125 51.265625 25.265625 53.625 
Q 29.59375 56 35.59375 56 
Q 45.5625 56 51.78125 48.09375 
Q 58.015625 40.1875 58.015625 27.296875 
Q 58.015625 14.40625 51.78125 6.484375 
Q 45.5625 -1.421875 35.59375 -1.421875 
Q 29.59375 -1.421875 25.265625 0.953125 
Q 20.953125 3.328125 18.109375 8.203125 
L 18.109375 0 
L 9.078125 0 
L 9.078125 75.984375 
L 18.109375 75.984375 
z
" id="DejaVuSans-62"/>
     <path d="M 10.984375 1.515625 
L 10.984375 10.5 
Q 14.703125 8.734375 18.5 7.8125 
Q 22.3125 6.890625 25.984375 6.890625 
Q 35.75 6.890625 40.890625 13.453125 
Q 46.046875 20.015625 46.78125 33.40625 
Q 43.953125 29.203125 39.59375 26.953125 
Q 35.25 24.703125 29.984375 24.703125 
Q 19.046875 24.703125 12.671875 31.3125 
Q 6.296875 37.9375 6.296875 49.421875 
Q 6.296875 60.640625 12.9375 67.421875 
Q 19.578125 74.21875 30.609375 74.21875 
Q 43.265625 74.21875 49.921875 64.515625 
Q 56.59375 54.828125 56.59375 36.375 
Q 56.59375 19.140625 48.40625 8.859375 
Q 40.234375 -1.421875 26.421875 -1.421875 
Q 22.703125 -1.421875 18.890625 -0.6875 
Q 15.09375 0.046875 10.984375 1.515625 
z
M 30.609375 32.421875 
Q 37.25 32.421875 41.125 36.953125 
Q 45.015625 41.5 45.015625 49.421875 
Q 45.015625 57.28125 41.125 61.84375 
Q 37.25 66.40625 30.609375 66.40625 
Q 23.96875 66.40625 20.09375 61.84375 
Q 16.21875 57.28125 16.21875 49.421875 
Q 16.21875 41.5 20.09375 36.953125 
Q 23.96875 32.421875 30.609375 32.421875 
z
" id="DejaVuSans-39"/>
    </defs>
    <g transform="translate(369.18424 37.551928)scale(0.17 -0.17)">
     <use xlink:href="#DejaVuSans-62"/>
     <use x="63.476562" xlink:href="#DejaVuSans-65"/>
     <use x="125" xlink:href="#DejaVuSans-73"/>
     <use x="177.099609" xlink:href="#DejaVuSans-74"/>
     <use x="216.308594" xlink:href="#DejaVuSans-20"/>
     <use x="248.095703" xlink:href="#DejaVuSans-32"/>
     <use x="311.71875" xlink:href="#DejaVuSans-30"/>
     <use x="375.341797" xlink:href="#DejaVuSans-30"/>
     <use x="438.964844" xlink:href="#DejaVuSans-39"/>
    </g>
   </g>
   <g id="text_17">
    <!-- bbob f22, 5-D -->
    <defs>
     <path d="M 10.796875 72.90625 
L 49.515625 72.90625 
L 49.515625 64.59375 
L 19.828125 64.59375 
L 19.828125 46.734375 
Q 21.96875 47.46875 24.109375 47.828125 
Q 26.265625 48.1875 28.421875 48.1875 
Q 40.625 48.1875 47.75 41.5 
Q 54.890625 34.8125 54.890625 23.390625 
Q 54.890625 11.625 47.5625 5.09375 
Q 40.234375 -1.421875 26.90625 -1.421875 
Q 22.3125 -1.421875 17.546875 -0.640625 
Q 12.796875 0.140625 7.71875 1.703125 
L 7.71875 11.625 
Q 12.109375 9.234375 16.796875 8.0625 
Q 21.484375 6.890625 26.703125 6.890625 
Q 35.15625 6.890625 40.078125 11.328125 
Q 45.015625 15.765625 45.015625 23.390625 
Q 45.015625 31 40.078125 35.4375 
Q 35.15625 39.890625 26.703125 39.890625 
Q 22.75 39.890625 18.8125 39.015625 
Q 14.890625 38.140625 10.796875 36.28125 
z
" id="DejaVuSans-35"/>
     <path d="M 19.671875 64.796875 
L 19.671875 8.109375 
L 31.59375 8.109375 
Q 46.6875 8.109375 53.6875 14.9375 
Q 60.6875 21.78125 60.6875 36.53125 
Q 60.6875 51.171875 53.6875 57.984375 
Q 46.6875 64.796875 31.59375 64.796875 
z
M 9.8125 72.90625 
L 30.078125 72.90625 
Q 51.265625 72.90625 61.171875 64.09375 
Q 71.09375 55.28125 71.09375 36.53125 
Q 71.09375 17.671875 61.125 8.828125 
Q 51.171875 0 30.078125 0 
L 9.8125 0 
z
" id="DejaVuSans-44"/>
    </defs>
    <g transform="translate(58.89048 35.290806)scale(0.102 -0.102)">
     <use xlink:href="#DejaVuSans-62"/>
     <use x="63.476562" xlink:href="#DejaVuSans-62"/>
     <use x="126.953125" xlink:href="#DejaVuSans-6f"/>
     <use x="188.134766" xlink:href="#DejaVuSans-62"/>
     <use x="251.611328" xlink:href="#DejaVuSans-20"/>
     <use x="283.398438" xlink:href="#DejaVuSans-66"/>
     <use x="318.603516" xlink:href="#DejaVuSans-32"/>
     <use x="382.226562" xlink:href="#DejaVuSans-32"/>
     <use x="445.849609" xlink:href="#DejaVuSans-2c"/>
     <use x="477.636719" xlink:href="#DejaVuSans-20"/>
     <use x="509.423828" xlink:href="#DejaVuSans-35"/>
     <use x="573.046875" xlink:href="#DejaVuSans-2d"/>
     <use x="609.130859" xlink:href="#DejaVuSans-44"/>
    </g>
    <!-- 51 targets: 100..1e-08 -->
    <defs>
     <path d="M 11.71875 12.40625 
L 22.015625 12.40625 
L 22.015625 0 
L 11.71875 0 
z
M 11.71875 51.703125 
L 22.015625 51.703125 
L 22.015625 39.3125 
L 11.71875 39.3125 
z
" id="DejaVuSans-3a"/>
    </defs>
    <g transform="translate(58.89048 46.712575)scale(0.102 -0.102)">
     <use xlink:href="#DejaVuSans-35"/>
     <use x="63.623047" xlink:href="#DejaVuSans-31"/>
     <use x="127.246094" xlink:href="#DejaVuSans-20"/>
     <use x="159.033203" xlink:href="#DejaVuSans-74"/>
     <use x="198.242188" xlink:href="#DejaVuSans-61"/>
     <use x="259.521484" xlink:href="#DejaVuSans-72"/>
     <use x="300.619141" xlink:href="#DejaVuSans-67"/>
     <use x="364.095703" xlink:href="#DejaVuSans-65"/>
     <use x="425.619141" xlink:href="#DejaVuSans-74"/>
     <use x="464.828125" xlink:href="#DejaVuSans-73"/>
     <use x="516.927734" xlink:href="#DejaVuSans-3a"/>
     <use x="550.619141" xlink:href="#DejaVuSans-20"/>
     <use x="582.40625" xlink:href="#DejaVuSans-31"/>
     <use x="646.029297" xlink:href="#DejaVuSans-30"/>
     <use x="709.652344" xlink:href="#DejaVuSans-30"/>
     <use x="773.275391" xlink:href="#DejaVuSans-2e"/>
     <use x="805.0625" xlink:href="#DejaVuSans-2e"/>
     <use x="836.849609" xlink:href="#DejaVuSans-31"/>
     <use x="900.472656" xlink:href="#DejaVuSans-65"/>
     <use x="961.996094" xlink:href="#DejaVuSans-2d"/>
     <use x="998.080078" xlink:href="#DejaVuSans-30"/>
     <use x="1061.703125" xlink:href="#DejaVuSans-38"/>
    </g>
    <!-- 15 instances -->
    <g transform="translate(58.89048 58.134344)scale(0.102 -0.102)">
     <use xlink:href="#DejaVuSans-31"/>
     <use x="63.623047" xlink:href="#DejaVuSans-35"/>
     <use x="127.246094" xlink:href="#DejaVuSans-20"/>
     <use x="159.033203" xlink:href="#DejaVuSans-69"/>
     <use x="186.816406" xlink:href="#DejaVuSans-6e"/>
     <use x="250.195312" xlink:href="#DejaVuSans-73"/>
     <use x="302.294922" xlink:href="#DejaVuSans-74"/>
     <use x="341.503906" xlink:href="#DejaVuSans-61"/>
     <use x="402.783203" xlink:href="#DejaVuSans-6e"/>
     <use x="466.162109" xlink:href="#DejaVuSans-63"/>
     <use x="521.142578" xlink:href="#DejaVuSans-65"/>
     <use x="582.666016" xlink:href="#DejaVuSans-73"/>
    </g>
   </g>
   <g id="text_18">
    <!-- v0.0.0 -->
    <g style="fill:#808080;" transform="translate(178.96275 290.099912)scale(0.1 -0.1)">
     <use xlink:href="#DejaVuSans-76"/>
     <use x="59.179688" xlink:href="#DejaVuSans-30"/>
     <use x="122.802734" xlink:href="#DejaVuSans-2e"/>
     <use x="154.589844" xlink:href="#DejaVuSans-30"/>
     <use x="218.212891" xlink:href="#DejaVuSans-2e"/>
     <use x="250" xlink:href="#DejaVuSans-30"/>
    </g>
   </g>
   <g id="text_19">
    <!-- 22 Gallagher 21 peaks -->
    <defs>
     <path d="M 59.515625 10.40625 
L 59.515625 29.984375 
L 43.40625 29.984375 
L 43.40625 38.09375 
L 69.28125 38.09375 
L 69.28125 6.78125 
Q 63.578125 2.734375 56.6875 0.65625 
Q 49.8125 -1.421875 42 -1.421875 
Q 24.90625 -1.421875 15.25 8.5625 
Q 5.609375 18.5625 5.609375 36.375 
Q 5.609375 54.25 15.25 64.234375 
Q 24.90625 74.21875 42 74.21875 
Q 49.125 74.21875 55.546875 72.453125 
Q 61.96875 70.703125 67.390625 67.28125 
L 67.390625 56.78125 
Q 61.921875 61.421875 55.765625 63.765625 
Q 49.609375 66.109375 42.828125 66.109375 
Q 29.4375 66.109375 22.71875 58.640625 
Q 16.015625 51.171875 16.015625 36.375 
Q 16.015625 21.625 22.71875 14.15625 
Q 29.4375 6.6875 42.828125 6.6875 
Q 48.046875 6.6875 52.140625 7.59375 
Q 56.25 8.5 59.515625 10.40625 
z
" id="DejaVuSans-47"/>
     <path d="M 54.890625 33.015625 
L 54.890625 0 
L 45.90625 0 
L 45.90625 32.71875 
Q 45.90625 40.484375 42.875 44.328125 
Q 39.84375 48.1875 33.796875 48.1875 
Q 26.515625 48.1875 22.3125 43.546875 
Q 18.109375 38.921875 18.109375 30.90625 
L 18.109375 0 
L 9.078125 0 
L 9.078125 75.984375 
L 18.109375 75.984375 
L 18.109375 46.1875 
Q 21.34375 51.125 25.703125 53.5625 
Q 30.078125 56 35.796875 56 
Q 45.21875 56 50.046875 50.171875 
Q 54.890625 44.34375 54.890625 33.015625 
z
" id="DejaVuSans-68"/>
     <path d="M 9.078125 75.984375 
L 18.109375 75.984375 
L 18.109375 31.109375 
L 44.921875 54.6875 
L 56.390625 54.6875 
L 27.390625 29.109375 
L 57.625 0 
L 45.90625 0 
L 18.109375 26.703125 
L 18.109375 0 
L 9.078125 0 
z
" id="DejaVuSans-6b"/>
    </defs>
    <g transform="translate(81.519 18.84)scale(0.2 -0.2)">
     <use xlink:href="#DejaVuSans-32"/>
     <use x="63.623047" xlink:href="#DejaVuSans-32"/>
     <use x="127.246094" xlink:href="#DejaVuSans-20"/>
     <use x="159.033203" xlink:href="#DejaVuSans-47"/>
     <use x="236.523438" xlink:href="#DejaVuSans-61"/>
     <use x="297.802734" xlink:href="#DejaVuSans-6c"/>
     <use x="325.585938" xlink:href="#DejaVuSans-6c"/>
     <use x="353.369141" xlink:href="#DejaVuSans-61"/>
     <use x="414.648438" xlink:href="#DejaVuSans-67"/>
     <use x="478.125" xlink:href="#DejaVuSans-68"/>
     <use x="541.503906" xlink:href="#DejaVuSans-65"/>
     <use x="603.027344" xlink:href="#DejaVuSans-72"/>
     <use x="644.140625" xlink:href="#DejaVuSans-20"/>
     <use x="675.927734" xlink:href="#DejaVuSans-32"/>
     <use x="739.550781" xlink:href="#DejaVuSans-31"/>
     <use x="803.173828" xlink:href="#DejaVuSans-20"/>
     <use x="834.960938" xlink:href="#DejaVuSans-70"/>
     <use x="898.4375" xlink:href="#DejaVuSans-65"/>
     <use x="959.960938" xlink:href="#DejaVuSans-61"/>
     <use x="1021.240234" xlink:href="#DejaVuSans-6b"/>
     <use x="1079.150391" xlink:href="#DejaVuSans-73"/>
    </g>
   </g>
  </g>
 </g>
 <defs>
  <clipPath id="p37589865ac">
   <rect height="270.04" width="277.048" x="56.12" y="24.84"/>
  </clipPath>
 </defs>
</svg>
