<?xml version="1.0" encoding="utf-8" standalone="no"?>
<!DOCTYPE svg PUBLIC "-//W3C//DTD SVG 1.1//EN"
  "http://www.w3.org/Graphics/SVG/1.1/DTD/svg11.dtd">
<!-- Created with matplotlib (http://matplotlib.org/) -->
<svg height="345pt" version="1.1" viewBox="0 0 460 345" width="460pt" xmlns="http://www.w3.org/2000/svg" xmlns:xlink="http://www.w3.org/1999/xlink">
 <defs>
  <style type="text/css">
*{stroke-linecap:butt;stroke-linejoin:round;}
  </style>
 </defs>
 <g id="figure_1">
  <g id="patch_1">
   <path d="M 0 345.6 
L 460.8 345.6 
L 460.8 0 
L 0 0 
z
" style="fill:#ffffff;"/>
  </g>
  <g id="axes_1">
   <g id="patch_2">
    <path d="M 56.12 294.88 
L 333.168 294.88 
L 333.168 24.84 
L 56.12 24.84 
z
" style="fill:#ffffff;"/>
   </g>
   <g id="line2d_1">
    <path d="M 4.627463 294.88 
L 4.627463 289.637523 
L 66.223248 289.637523 
L 66.223248 284.395046 
L 79.291532 284.395046 
L 79.291532 279.152568 
L 82.536644 279.152568 
L 82.536644 273.910091 
L 109.864733 273.910091 
L 109.864733 268.667614 
L 113.426701 268.667614 
L 113.426701 263.425137 
L 121.891697 263.425137 
L 121.891697 258.18266 
L 124.906559 258.18266 
L 124.906559 252.940182 
L 135.473113 252.940182 
L 135.473113 247.697705 
L 155.129314 247.697705 
L 155.129314 242.455228 
L 155.644117 242.455228 
L 155.644117 237.212751 
L 168.61819 237.212751 
L 168.61819 231.970274 
L 168.714278 231.970274 
L 168.714278 226.727797 
L 168.744962 226.727797 
L 168.744962 221.485319 
L 168.786605 221.485319 
L 168.786605 216.242842 
L 168.850099 216.242842 
L 168.850099 211.000365 
L 168.884192 211.000365 
L 168.884192 205.757888 
L 168.921858 205.757888 
L 168.921858 200.515411 
L 168.958231 200.515411 
L 168.958231 195.272933 
L 169.002985 195.272933 
L 169.002985 190.030456 
L 169.110162 190.030456 
L 169.110162 184.787979 
L 169.147337 184.787979 
L 169.147337 179.545502 
L 169.188018 179.545502 
L 169.188018 174.303025 
L 169.354518 174.303025 
L 169.354518 169.060547 
L 169.424206 169.060547 
L 169.424206 163.81807 
L 169.49596 163.81807 
L 169.49596 158.575593 
L 169.656029 158.575593 
L 169.656029 153.333116 
L 169.699005 153.333116 
L 169.699005 148.090639 
L 169.760379 148.090639 
L 169.760379 142.848162 
L 169.879029 142.848162 
L 169.879029 137.605684 
L 170.008263 137.605684 
L 170.008263 132.363207 
L 170.118429 132.363207 
L 170.118429 127.12073 
L 170.168169 127.12073 
L 170.168169 121.878253 
L 170.377974 121.878253 
L 170.377974 116.635776 
L 170.513484 116.635776 
L 170.513484 111.393298 
L 170.547747 111.393298 
L 170.547747 106.150821 
L 170.989219 106.150821 
L 170.989219 100.908344 
L 171.169071 100.908344 
L 171.169071 95.665867 
L 171.287936 95.665867 
L 171.287936 90.42339 
L 171.543038 90.42339 
L 171.543038 85.180912 
L 171.724437 85.180912 
L 171.724437 79.938435 
L 172.541946 79.938435 
L 172.541946 74.695958 
L 172.564546 74.695958 
L 172.564546 69.453481 
L 172.588096 69.453481 
L 172.588096 64.211004 
L 172.624339 64.211004 
L 172.624339 58.968526 
L 172.64683 58.968526 
L 172.64683 53.726049 
L 172.663435 53.726049 
L 172.663435 48.483572 
L 172.70926 48.483572 
L 172.70926 43.241095 
L 172.719967 43.241095 
L 172.719967 37.998618 
L 172.733585 37.998618 
L 172.733585 32.756141 
L 172.785041 32.756141 
L 172.785041 27.513663 
L 333.168 27.513663 
" style="fill:none;stroke:#f5deb3;stroke-linecap:square;stroke-width:4;"/>
   </g>
   <g id="line2d_2">
    <defs>
     <path d="M -0 7.778175 
L 7.778175 0 
L 0 -7.778175 
L -7.778175 -0 
z
" id="m4c3ab4e951" style="stroke:#f5deb3;stroke-linejoin:miter;stroke-width:1.5;"/>
    </defs>
    <g>
     <use style="fill:#f5deb3;stroke:#f5deb3;stroke-linejoin:miter;stroke-width:1.5;" x="155.644117" xlink:href="#m4c3ab4e951" y="237.212751"/>
     <use style="fill:#f5deb3;stroke:#f5deb3;stroke-linejoin:miter;stroke-width:1.5;" x="170.513484" xlink:href="#m4c3ab4e951" y="116.635776"/>
     <use style="fill:#f5deb3;stroke:#f5deb3;stroke-linejoin:miter;stroke-width:1.5;" x="172.785041" xlink:href="#m4c3ab4e951" y="32.756141"/>
     <use style="fill:#f5deb3;stroke:#f5deb3;stroke-linejoin:miter;stroke-width:1.5;" x="172.785041" xlink:href="#m4c3ab4e951" y="27.513663"/>
     <use style="fill:#f5deb3;stroke:#f5deb3;stroke-linejoin:miter;stroke-width:1.5;" x="333.168" xlink:href="#m4c3ab4e951" y="27.513663"/>
    </g>
   </g>
   <g id="line2d_3">
    <path style="fill:none;stroke:#f5deb3;stroke-linecap:square;stroke-width:4;"/>
    <g/>
   </g>
   <g id="line2d_4">
    <path d="M 333.168 27.513663 
L 363.64328 32.86099 
" style="fill:none;stroke:#f5deb3;stroke-linecap:square;stroke-width:4;"/>
    <g>
     <use style="fill:#f5deb3;stroke:#f5deb3;stroke-linejoin:miter;stroke-width:1.5;" x="333.168" xlink:href="#m4c3ab4e951" y="27.513663"/>
     <use style="fill:#f5deb3;stroke:#f5deb3;stroke-linejoin:miter;stroke-width:1.5;" x="363.64328" xlink:href="#m4c3ab4e951" y="32.86099"/>
    </g>
   </g>
   <g id="matplotlib.axis_1">
    <g id="xtick_1">
     <g id="line2d_5">
      <path clip-path="url(#p9ff31d8d23)" d="M 56.12 294.88 
L 56.12 24.84 
" style="fill:none;stroke:#b0b0b0;stroke-linecap:square;stroke-width:0.8;"/>
     </g>
     <g id="line2d_6">
      <defs>
       <path d="M 0 0 
L 0 3.5 
" id="ma1b3026222" style="stroke:#000000;stroke-width:0.8;"/>
      </defs>
      <g>
       <use style="stroke:#000000;stroke-width:0.8;" x="56.12" xlink:href="#ma1b3026222" y="294.88"/>
      </g>
     </g>
     <g id="text_1">
      <!-- 0 -->
      <defs>
       <path d="M 31.78125 66.40625 
Q 24.171875 66.40625 20.328125 58.90625 
Q 16.5 51.421875 16.5 36.375 
Q 16.5 21.390625 20.328125 13.890625 
Q 24.171875 6.390625 31.78125 6.390625 
Q 39.453125 6.390625 43.28125 13.890625 
Q 47.125 21.390625 47.125 36.375 
Q 47.125 51.421875 43.28125 58.90625 
Q 39.453125 66.40625 31.78125 66.40625 
z
M 31.78125 74.21875 
Q 44.046875 74.21875 50.515625 64.515625 
Q 56.984375 54.828125 56.984375 36.375 
Q 56.984375 17.96875 50.515625 8.265625 
Q 44.046875 -1.421875 31.78125 -1.421875 
Q 19.53125 -1.421875 13.0625 8.265625 
Q 6.59375 17.96875 6.59375 36.375 
Q 6.59375 54.828125 13.0625 64.515625 
Q 19.53125 74.21875 31.78125 74.21875 
z
" id="DejaVuSans-30"/>
      </defs>
      <g transform="translate(49.7575 317.076875)scale(0.2 -0.2)">
       <use xlink:href="#DejaVuSans-30"/>
      </g>
     </g>
    </g>
    <g id="xtick_2">
     <g id="line2d_7">
      <path clip-path="url(#p9ff31d8d23)" d="M 135.276571 294.88 
L 135.276571 24.84 
" style="fill:none;stroke:#b0b0b0;stroke-linecap:square;stroke-width:0.8;"/>
     </g>
     <g id="line2d_8">
      <g>
       <use style="stroke:#000000;stroke-width:0.8;" x="135.276571" xlink:href="#ma1b3026222" y="294.88"/>
      </g>
     </g>
     <g id="text_2">
      <!-- 2 -->
      <defs>
       <path d="M 19.1875 8.296875 
L 53.609375 8.296875 
L 53.609375 0 
L 7.328125 0 
L 7.328125 8.296875 
Q 12.9375 14.109375 22.625 23.890625 
Q 32.328125 33.6875 34.8125 36.53125 
Q 39.546875 41.84375 41.421875 45.53125 
Q 43.3125 49.21875 43.3125 52.78125 
Q 43.3125 58.59375 39.234375 62.25 
Q 35.15625 65.921875 28.609375 65.921875 
Q 23.96875 65.921875 18.8125 64.3125 
Q 13.671875 62.703125 7.8125 59.421875 
L 7.8125 69.390625 
Q 13.765625 71.78125 18.9375 73 
Q 24.125 74.21875 28.421875 74.21875 
Q 39.75 74.21875 46.484375 68.546875 
Q 53.21875 62.890625 53.21875 53.421875 
Q 53.21875 48.921875 51.53125 44.890625 
Q 49.859375 40.875 45.40625 35.40625 
Q 44.1875 33.984375 37.640625 27.21875 
Q 31.109375 20.453125 19.1875 8.296875 
z
" id="DejaVuSans-32"/>
      </defs>
      <g transform="translate(128.914071 317.076875)scale(0.2 -0.2)">
       <use xlink:href="#DejaVuSans-32"/>
      </g>
     </g>
    </g>
    <g id="xtick_3">
     <g id="line2d_9">
      <path clip-path="url(#p9ff31d8d23)" d="M 214.433143 294.88 
L 214.433143 24.84 
" style="fill:none;stroke:#b0b0b0;stroke-linecap:square;stroke-width:0.8;"/>
     </g>
     <g id="line2d_10">
      <g>
       <use style="stroke:#000000;stroke-width:0.8;" x="214.433143" xlink:href="#ma1b3026222" y="294.88"/>
      </g>
     </g>
     <g id="text_3">
      <!-- 4 -->
      <defs>
       <path d="M 37.796875 64.3125 
L 12.890625 25.390625 
L 37.796875 25.390625 
z
M 35.203125 72.90625 
L 47.609375 72.90625 
L 47.609375 25.390625 
L 58.015625 25.390625 
L 58.015625 17.1875 
L 47.609375 17.1875 
L 47.609375 0 
L 37.796875 0 
L 37.796875 17.1875 
L 4.890625 17.1875 
L 4.890625 26.703125 
z
" id="DejaVuSans-34"/>
      </defs>
      <g transform="translate(208.070643 317.076875)scale(0.2 -0.2)">
       <use xlink:href="#DejaVuSans-34"/>
      </g>
     </g>
    </g>
    <g id="xtick_4">
     <g id="line2d_11">
      <path clip-path="url(#p9ff31d8d23)" d="M 293.589714 294.88 
L 293.589714 24.84 
" style="fill:none;stroke:#b0b0b0;stroke-linecap:square;stroke-width:0.8;"/>
     </g>
     <g id="line2d_12">
      <g>
       <use style="stroke:#000000;stroke-width:0.8;" x="293.589714" xlink:href="#ma1b3026222" y="294.88"/>
      </g>
     </g>
     <g id="text_4">
      <!-- 6 -->
      <defs>
       <path d="M 33.015625 40.375 
Q 26.375 40.375 22.484375 35.828125 
Q 18.609375 31.296875 18.609375 23.390625 
Q 18.609375 15.53125 22.484375 10.953125 
Q 26.375 6.390625 33.015625 6.390625 
Q 39.65625 6.390625 43.53125 10.953125 
Q 47.40625 15.53125 47.40625 23.390625 
Q 47.40625 31.296875 43.53125 35.828125 
Q 39.65625 40.375 33.015625 40.375 
z
M 52.59375 71.296875 
L 52.59375 62.3125 
Q 48.875 64.0625 45.09375 64.984375 
Q 41.3125 65.921875 37.59375 65.921875 
Q 27.828125 65.921875 22.671875 59.328125 
Q 17.53125 52.734375 16.796875 39.40625 
Q 19.671875 43.65625 24.015625 45.921875 
Q 28.375 48.1875 33.59375 48.1875 
Q 44.578125 48.1875 50.953125 41.515625 
Q 57.328125 34.859375 57.328125 23.390625 
Q 57.328125 12.15625 50.6875 5.359375 
Q 44.046875 -1.421875 33.015625 -1.421875 
Q 20.359375 -1.421875 13.671875 8.265625 
Q 6.984375 17.96875 6.984375 36.375 
Q 6.984375 53.65625 15.1875 63.9375 
Q 23.390625 74.21875 37.203125 74.21875 
Q 40.921875 74.21875 44.703125 73.484375 
Q 48.484375 72.75 52.59375 71.296875 
z
" id="DejaVuSans-36"/>
      </defs>
      <g transform="translate(287.227214 317.076875)scale(0.2 -0.2)">
       <use xlink:href="#DejaVuSans-36"/>
      </g>
     </g>
    </g>
    <g id="xtick_5">
     <g id="line2d_13">
      <path clip-path="url(#p9ff31d8d23)" d="M 56.12 294.88 
L 56.12 24.84 
" style="fill:none;stroke:#b0b0b0;stroke-linecap:square;stroke-width:0.8;"/>
     </g>
     <g id="line2d_14">
      <defs>
       <path d="M 0 0 
L 0 2 
" id="ma2ac45cff8" style="stroke:#000000;stroke-width:0.6;"/>
      </defs>
      <g>
       <use style="stroke:#000000;stroke-width:0.6;" x="56.12" xlink:href="#ma2ac45cff8" y="294.88"/>
      </g>
     </g>
    </g>
    <g id="xtick_6">
     <g id="line2d_15">
      <path clip-path="url(#p9ff31d8d23)" d="M 95.698286 294.88 
L 95.698286 24.84 
" style="fill:none;stroke:#b0b0b0;stroke-linecap:square;stroke-width:0.8;"/>
     </g>
     <g id="line2d_16">
      <g>
       <use style="stroke:#000000;stroke-width:0.6;" x="95.698286" xlink:href="#ma2ac45cff8" y="294.88"/>
      </g>
     </g>
    </g>
    <g id="xtick_7">
     <g id="line2d_17">
      <path clip-path="url(#p9ff31d8d23)" d="M 135.276571 294.88 
L 135.276571 24.84 
" style="fill:none;stroke:#b0b0b0;stroke-linecap:square;stroke-width:0.8;"/>
     </g>
     <g id="line2d_18">
      <g>
       <use style="stroke:#000000;stroke-width:0.6;" x="135.276571" xlink:href="#ma2ac45cff8" y="294.88"/>
      </g>
     </g>
    </g>
    <g id="xtick_8">
     <g id="line2d_19">
      <path clip-path="url(#p9ff31d8d23)" d="M 174.854857 294.88 
L 174.854857 24.84 
" style="fill:none;stroke:#b0b0b0;stroke-linecap:square;stroke-width:0.8;"/>
     </g>
     <g id="line2d_20">
      <g>
       <use style="stroke:#000000;stroke-width:0.6;" x="174.854857" xlink:href="#ma2ac45cff8" y="294.88"/>
      </g>
     </g>
    </g>
    <g id="xtick_9">
     <g id="line2d_21">
      <path clip-path="url(#p9ff31d8d23)" d="M 214.433143 294.88 
L 214.433143 24.84 
" style="fill:none;stroke:#b0b0b0;stroke-linecap:square;stroke-width:0.8;"/>
     </g>
     <g id="line2d_22">
      <g>
       <use style="stroke:#000000;stroke-width:0.6;" x="214.433143" xlink:href="#ma2ac45cff8" y="294.88"/>
      </g>
     </g>
    </g>
    <g id="xtick_10">
     <g id="line2d_23">
      <path clip-path="url(#p9ff31d8d23)" d="M 254.011429 294.88 
L 254.011429 24.84 
" style="fill:none;stroke:#b0b0b0;stroke-linecap:square;stroke-width:0.8;"/>
     </g>
     <g id="line2d_24">
      <g>
       <use style="stroke:#000000;stroke-width:0.6;" x="254.011429" xlink:href="#ma2ac45cff8" y="294.88"/>
      </g>
     </g>
    </g>
    <g id="xtick_11">
     <g id="line2d_25">
      <path clip-path="url(#p9ff31d8d23)" d="M 293.589714 294.88 
L 293.589714 24.84 
" style="fill:none;stroke:#b0b0b0;stroke-linecap:square;stroke-width:0.8;"/>
     </g>
     <g id="line2d_26">
      <g>
       <use style="stroke:#000000;stroke-width:0.6;" x="293.589714" xlink:href="#ma2ac45cff8" y="294.88"/>
      </g>
     </g>
    </g>
    <g id="xtick_12">
     <g id="line2d_27">
      <path clip-path="url(#p9ff31d8d23)" d="M 333.168 294.88 
L 333.168 24.84 
" style="fill:none;stroke:#b0b0b0;stroke-linecap:square;stroke-width:0.8;"/>
     </g>
     <g id="line2d_28">
      <g>
       <use style="stroke:#000000;stroke-width:0.6;" x="333.168" xlink:href="#ma2ac45cff8" y="294.88"/>
      </g>
     </g>
    </g>
    <g id="text_5">
     <!-- log10(# f-evals / dimension) -->
     <defs>
      <path d="M 9.421875 75.984375 
L 18.40625 75.984375 
L 18.40625 0 
L 9.421875 0 
z
" id="DejaVuSans-6c"/>
      <path d="M 30.609375 48.390625 
Q 23.390625 48.390625 19.1875 42.75 
Q 14.984375 37.109375 14.984375 27.296875 
Q 14.984375 17.484375 19.15625 11.84375 
Q 23.34375 6.203125 30.609375 6.203125 
Q 37.796875 6.203125 41.984375 11.859375 
Q 46.1875 17.53125 46.1875 27.296875 
Q 46.1875 37.015625 41.984375 42.703125 
Q 37.796875 48.390625 30.609375 48.390625 
z
M 30.609375 56 
Q 42.328125 56 49.015625 48.375 
Q 55.71875 40.765625 55.71875 27.296875 
Q 55.71875 13.875 49.015625 6.21875 
Q 42.328125 -1.421875 30.609375 -1.421875 
Q 18.84375 -1.421875 12.171875 6.21875 
Q 5.515625 13.875 5.515625 27.296875 
Q 5.515625 40.765625 12.171875 48.375 
Q 18.84375 56 30.609375 56 
z
" id="DejaVuSans-6f"/>
      <path d="M 45.40625 27.984375 
Q 45.40625 37.75 41.375 43.109375 
Q 37.359375 48.484375 30.078125 48.484375 
Q 22.859375 48.484375 18.828125 43.109375 
Q 14.796875 37.75 14.796875 27.984375 
Q 14.796875 18.265625 18.828125 12.890625 
Q 22.859375 7.515625 30.078125 7.515625 
Q 37.359375 7.515625 41.375 12.890625 
Q 45.40625 18.265625 45.40625 27.984375 
z
M 54.390625 6.78125 
Q 54.390625 -7.171875 48.1875 -13.984375 
Q 42 -20.796875 29.203125 -20.796875 
Q 24.46875 -20.796875 20.265625 -20.09375 
Q 16.0625 -19.390625 12.109375 -17.921875 
L 12.109375 -9.1875 
Q 16.0625 -11.328125 19.921875 -12.34375 
Q 23.78125 -13.375 27.78125 -13.375 
Q 36.625 -13.375 41.015625 -8.765625 
Q 45.40625 -4.15625 45.40625 5.171875 
L 45.40625 9.625 
Q 42.625 4.78125 38.28125 2.390625 
Q 33.9375 0 27.875 0 
Q 17.828125 0 11.671875 7.65625 
Q 5.515625 15.328125 5.515625 27.984375 
Q 5.515625 40.671875 11.671875 48.328125 
Q 17.828125 56 27.875 56 
Q 33.9375 56 38.28125 53.609375 
Q 42.625 51.21875 45.40625 46.390625 
L 45.40625 54.6875 
L 54.390625 54.6875 
z
" id="DejaVuSans-67"/>
      <path d="M 12.40625 8.296875 
L 28.515625 8.296875 
L 28.515625 63.921875 
L 10.984375 60.40625 
L 10.984375 69.390625 
L 28.421875 72.90625 
L 38.28125 72.90625 
L 38.28125 8.296875 
L 54.390625 8.296875 
L 54.390625 0 
L 12.40625 0 
z
" id="DejaVuSans-31"/>
      <path d="M 31 75.875 
Q 24.46875 64.65625 21.28125 53.65625 
Q 18.109375 42.671875 18.109375 31.390625 
Q 18.109375 20.125 21.3125 9.0625 
Q 24.515625 -2 31 -13.1875 
L 23.1875 -13.1875 
Q 15.875 -1.703125 12.234375 9.375 
Q 8.59375 20.453125 8.59375 31.390625 
Q 8.59375 42.28125 12.203125 53.3125 
Q 15.828125 64.359375 23.1875 75.875 
z
" id="DejaVuSans-28"/>
      <path d="M 51.125 44 
L 36.921875 44 
L 32.8125 27.6875 
L 47.125 27.6875 
z
M 43.796875 71.78125 
L 38.71875 51.515625 
L 52.984375 51.515625 
L 58.109375 71.78125 
L 65.921875 71.78125 
L 60.890625 51.515625 
L 76.125 51.515625 
L 76.125 44 
L 58.984375 44 
L 54.984375 27.6875 
L 70.515625 27.6875 
L 70.515625 20.21875 
L 53.078125 20.21875 
L 48 0 
L 40.1875 0 
L 45.21875 20.21875 
L 30.90625 20.21875 
L 25.875 0 
L 18.015625 0 
L 23.09375 20.21875 
L 7.71875 20.21875 
L 7.71875 27.6875 
L 24.90625 27.6875 
L 29 44 
L 13.28125 44 
L 13.28125 51.515625 
L 30.90625 51.515625 
L 35.890625 71.78125 
z
" id="DejaVuSans-23"/>
      <path id="DejaVuSans-20"/>
      <path d="M 37.109375 75.984375 
L 37.109375 68.5 
L 28.515625 68.5 
Q 23.6875 68.5 21.796875 66.546875 
Q 19.921875 64.59375 19.921875 59.515625 
L 19.921875 54.6875 
L 34.71875 54.6875 
L 34.71875 47.703125 
L 19.921875 47.703125 
L 19.921875 0 
L 10.890625 0 
L 10.890625 47.703125 
L 2.296875 47.703125 
L 2.296875 54.6875 
L 10.890625 54.6875 
L 10.890625 58.5 
Q 10.890625 67.625 15.140625 71.796875 
Q 19.390625 75.984375 28.609375 75.984375 
z
" id="DejaVuSans-66"/>
      <path d="M 4.890625 31.390625 
L 31.203125 31.390625 
L 31.203125 23.390625 
L 4.890625 23.390625 
z
" id="DejaVuSans-2d"/>
      <path d="M 56.203125 29.59375 
L 56.203125 25.203125 
L 14.890625 25.203125 
Q 15.484375 15.921875 20.484375 11.0625 
Q 25.484375 6.203125 34.421875 6.203125 
Q 39.59375 6.203125 44.453125 7.46875 
Q 49.3125 8.734375 54.109375 11.28125 
L 54.109375 2.78125 
Q 49.265625 0.734375 44.1875 -0.34375 
Q 39.109375 -1.421875 33.890625 -1.421875 
Q 20.796875 -1.421875 13.15625 6.1875 
Q 5.515625 13.8125 5.515625 26.8125 
Q 5.515625 40.234375 12.765625 48.109375 
Q 20.015625 56 32.328125 56 
Q 43.359375 56 49.78125 48.890625 
Q 56.203125 41.796875 56.203125 29.59375 
z
M 47.21875 32.234375 
Q 47.125 39.59375 43.09375 43.984375 
Q 39.0625 48.390625 32.421875 48.390625 
Q 24.90625 48.390625 20.390625 44.140625 
Q 15.875 39.890625 15.1875 32.171875 
z
" id="DejaVuSans-65"/>
      <path d="M 2.984375 54.6875 
L 12.5 54.6875 
L 29.59375 8.796875 
L 46.6875 54.6875 
L 56.203125 54.6875 
L 35.6875 0 
L 23.484375 0 
z
" id="DejaVuSans-76"/>
      <path d="M 34.28125 27.484375 
Q 23.390625 27.484375 19.1875 25 
Q 14.984375 22.515625 14.984375 16.5 
Q 14.984375 11.71875 18.140625 8.90625 
Q 21.296875 6.109375 26.703125 6.109375 
Q 34.1875 6.109375 38.703125 11.40625 
Q 43.21875 16.703125 43.21875 25.484375 
L 43.21875 27.484375 
z
M 52.203125 31.203125 
L 52.203125 0 
L 43.21875 0 
L 43.21875 8.296875 
Q 40.140625 3.328125 35.546875 0.953125 
Q 30.953125 -1.421875 24.3125 -1.421875 
Q 15.921875 -1.421875 10.953125 3.296875 
Q 6 8.015625 6 15.921875 
Q 6 25.140625 12.171875 29.828125 
Q 18.359375 34.515625 30.609375 34.515625 
L 43.21875 34.515625 
L 43.21875 35.40625 
Q 43.21875 41.609375 39.140625 45 
Q 35.0625 48.390625 27.6875 48.390625 
Q 23 48.390625 18.546875 47.265625 
Q 14.109375 46.140625 10.015625 43.890625 
L 10.015625 52.203125 
Q 14.9375 54.109375 19.578125 55.046875 
Q 24.21875 56 28.609375 56 
Q 40.484375 56 46.34375 49.84375 
Q 52.203125 43.703125 52.203125 31.203125 
z
" id="DejaVuSans-61"/>
      <path d="M 44.28125 53.078125 
L 44.28125 44.578125 
Q 40.484375 46.53125 36.375 47.5 
Q 32.28125 48.484375 27.875 48.484375 
Q 21.1875 48.484375 17.84375 46.4375 
Q 14.5 44.390625 14.5 40.28125 
Q 14.5 37.15625 16.890625 35.375 
Q 19.28125 33.59375 26.515625 31.984375 
L 29.59375 31.296875 
Q 39.15625 29.25 43.1875 25.515625 
Q 47.21875 21.78125 47.21875 15.09375 
Q 47.21875 7.46875 41.1875 3.015625 
Q 35.15625 -1.421875 24.609375 -1.421875 
Q 20.21875 -1.421875 15.453125 -0.5625 
Q 10.6875 0.296875 5.421875 2 
L 5.421875 11.28125 
Q 10.40625 8.6875 15.234375 7.390625 
Q 20.0625 6.109375 24.8125 6.109375 
Q 31.15625 6.109375 34.5625 8.28125 
Q 37.984375 10.453125 37.984375 14.40625 
Q 37.984375 18.0625 35.515625 20.015625 
Q 33.0625 21.96875 24.703125 23.78125 
L 21.578125 24.515625 
Q 13.234375 26.265625 9.515625 29.90625 
Q 5.8125 33.546875 5.8125 39.890625 
Q 5.8125 47.609375 11.28125 51.796875 
Q 16.75 56 26.8125 56 
Q 31.78125 56 36.171875 55.265625 
Q 40.578125 54.546875 44.28125 53.078125 
z
" id="DejaVuSans-73"/>
      <path d="M 25.390625 72.90625 
L 33.6875 72.90625 
L 8.296875 -9.28125 
L 0 -9.28125 
z
" id="DejaVuSans-2f"/>
      <path d="M 45.40625 46.390625 
L 45.40625 75.984375 
L 54.390625 75.984375 
L 54.390625 0 
L 45.40625 0 
L 45.40625 8.203125 
Q 42.578125 3.328125 38.25 0.953125 
Q 33.9375 -1.421875 27.875 -1.421875 
Q 17.96875 -1.421875 11.734375 6.484375 
Q 5.515625 14.40625 5.515625 27.296875 
Q 5.515625 40.1875 11.734375 48.09375 
Q 17.96875 56 27.875 56 
Q 33.9375 56 38.25 53.625 
Q 42.578125 51.265625 45.40625 46.390625 
z
M 14.796875 27.296875 
Q 14.796875 17.390625 18.875 11.75 
Q 22.953125 6.109375 30.078125 6.109375 
Q 37.203125 6.109375 41.296875 11.75 
Q 45.40625 17.390625 45.40625 27.296875 
Q 45.40625 37.203125 41.296875 42.84375 
Q 37.203125 48.484375 30.078125 48.484375 
Q 22.953125 48.484375 18.875 42.84375 
Q 14.796875 37.203125 14.796875 27.296875 
z
" id="DejaVuSans-64"/>
      <path d="M 9.421875 54.6875 
L 18.40625 54.6875 
L 18.40625 0 
L 9.421875 0 
z
M 9.421875 75.984375 
L 18.40625 75.984375 
L 18.40625 64.59375 
L 9.421875 64.59375 
z
" id="DejaVuSans-69"/>
      <path d="M 52 44.1875 
Q 55.375 50.25 60.0625 53.125 
Q 64.75 56 71.09375 56 
Q 79.640625 56 84.28125 50.015625 
Q 88.921875 44.046875 88.921875 33.015625 
L 88.921875 0 
L 79.890625 0 
L 79.890625 32.71875 
Q 79.890625 40.578125 77.09375 44.375 
Q 74.3125 48.1875 68.609375 48.1875 
Q 61.625 48.1875 57.5625 43.546875 
Q 53.515625 38.921875 53.515625 30.90625 
L 53.515625 0 
L 44.484375 0 
L 44.484375 32.71875 
Q 44.484375 40.625 41.703125 44.40625 
Q 38.921875 48.1875 33.109375 48.1875 
Q 26.21875 48.1875 22.15625 43.53125 
Q 18.109375 38.875 18.109375 30.90625 
L 18.109375 0 
L 9.078125 0 
L 9.078125 54.6875 
L 18.109375 54.6875 
L 18.109375 46.1875 
Q 21.1875 51.21875 25.484375 53.609375 
Q 29.78125 56 35.6875 56 
Q 41.65625 56 45.828125 52.96875 
Q 50 49.953125 52 44.1875 
z
" id="DejaVuSans-6d"/>
      <path d="M 54.890625 33.015625 
L 54.890625 0 
L 45.90625 0 
L 45.90625 32.71875 
Q 45.90625 40.484375 42.875 44.328125 
Q 39.84375 48.1875 33.796875 48.1875 
Q 26.515625 48.1875 22.3125 43.546875 
Q 18.109375 38.921875 18.109375 30.90625 
L 18.109375 0 
L 9.078125 0 
L 9.078125 54.6875 
L 18.109375 54.6875 
L 18.109375 46.1875 
Q 21.34375 51.125 25.703125 53.5625 
Q 30.078125 56 35.796875 56 
Q 45.21875 56 50.046875 50.171875 
Q 54.890625 44.34375 54.890625 33.015625 
z
" id="DejaVuSans-6e"/>
      <path d="M 8.015625 75.875 
L 15.828125 75.875 
Q 23.140625 64.359375 26.78125 53.3125 
Q 30.421875 42.28125 30.421875 31.390625 
Q 30.421875 20.453125 26.78125 9.375 
Q 23.140625 -1.703125 15.828125 -13.1875 
L 8.015625 -13.1875 
Q 14.5 -2 17.703125 9.0625 
Q 20.90625 20.125 20.90625 31.390625 
Q 20.90625 42.671875 17.703125 53.65625 
Q 14.5 64.65625 8.015625 75.875 
z
" id="DejaVuSans-29"/>
     </defs>
     <g transform="translate(73.803219 338.153594)scale(0.17 -0.17)">
      <use xlink:href="#DejaVuSans-6c"/>
      <use x="27.783203" xlink:href="#DejaVuSans-6f"/>
      <use x="88.964844" xlink:href="#DejaVuSans-67"/>
      <use x="152.441406" xlink:href="#DejaVuSans-31"/>
      <use x="216.064453" xlink:href="#DejaVuSans-30"/>
      <use x="279.6875" xlink:href="#DejaVuSans-28"/>
      <use x="318.701172" xlink:href="#DejaVuSans-23"/>
      <use x="402.490234" xlink:href="#DejaVuSans-20"/>
      <use x="434.277344" xlink:href="#DejaVuSans-66"/>
      <use x="469.404297" xlink:href="#DejaVuSans-2d"/>
      <use x="505.488281" xlink:href="#DejaVuSans-65"/>
      <use x="567.011719" xlink:href="#DejaVuSans-76"/>
      <use x="626.191406" xlink:href="#DejaVuSans-61"/>
      <use x="687.470703" xlink:href="#DejaVuSans-6c"/>
      <use x="715.253906" xlink:href="#DejaVuSans-73"/>
      <use x="767.353516" xlink:href="#DejaVuSans-20"/>
      <use x="799.140625" xlink:href="#DejaVuSans-2f"/>
      <use x="832.832031" xlink:href="#DejaVuSans-20"/>
      <use x="864.619141" xlink:href="#DejaVuSans-64"/>
      <use x="928.095703" xlink:href="#DejaVuSans-69"/>
      <use x="955.878906" xlink:href="#DejaVuSans-6d"/>
      <use x="1053.291016" xlink:href="#DejaVuSans-65"/>
      <use x="1114.814453" xlink:href="#DejaVuSans-6e"/>
      <use x="1178.193359" xlink:href="#DejaVuSans-73"/>
      <use x="1230.292969" xlink:href="#DejaVuSans-69"/>
      <use x="1258.076172" xlink:href="#DejaVuSans-6f"/>
      <use x="1319.257812" xlink:href="#DejaVuSans-6e"/>
      <use x="1382.636719" xlink:href="#DejaVuSans-29"/>
     </g>
    </g>
   </g>
   <g id="matplotlib.axis_2">
    <g id="ytick_1">
     <g id="line2d_29">
      <path clip-path="url(#p9ff31d8d23)" d="M 56.12 294.88 
L 333.168 294.88 
" style="fill:none;stroke:#b0b0b0;stroke-linecap:square;stroke-width:0.8;"/>
     </g>
     <g id="line2d_30">
      <defs>
       <path d="M 0 0 
L -3.5 0 
" id="mf65008af69" style="stroke:#000000;stroke-width:0.8;"/>
      </defs>
      <g>
       <use style="stroke:#000000;stroke-width:0.8;" x="56.12" xlink:href="#mf65008af69" y="294.88"/>
      </g>
     </g>
     <g id="text_6">
      <!-- 0.0 -->
      <defs>
       <path d="M 10.6875 12.40625 
L 21 12.40625 
L 21 0 
L 10.6875 0 
z
" id="DejaVuSans-2e"/>
      </defs>
      <g transform="translate(23.675 300.95875)scale(0.16 -0.16)">
       <use xlink:href="#DejaVuSans-30"/>
       <use x="63.623047" xlink:href="#DejaVuSans-2e"/>
       <use x="95.410156" xlink:href="#DejaVuSans-30"/>
      </g>
     </g>
    </g>
    <g id="ytick_2">
     <g id="line2d_31">
      <path clip-path="url(#p9ff31d8d23)" d="M 56.12 241.406733 
L 333.168 241.406733 
" style="fill:none;stroke:#b0b0b0;stroke-linecap:square;stroke-width:0.8;"/>
     </g>
     <g id="line2d_32">
      <g>
       <use style="stroke:#000000;stroke-width:0.8;" x="56.12" xlink:href="#mf65008af69" y="241.406733"/>
      </g>
     </g>
     <g id="text_7">
      <!-- 0.2 -->
      <g transform="translate(23.675 247.485483)scale(0.16 -0.16)">
       <use xlink:href="#DejaVuSans-30"/>
       <use x="63.623047" xlink:href="#DejaVuSans-2e"/>
       <use x="95.410156" xlink:href="#DejaVuSans-32"/>
      </g>
     </g>
    </g>
    <g id="ytick_3">
     <g id="line2d_33">
      <path clip-path="url(#p9ff31d8d23)" d="M 56.12 187.933465 
L 333.168 187.933465 
" style="fill:none;stroke:#b0b0b0;stroke-linecap:square;stroke-width:0.8;"/>
     </g>
     <g id="line2d_34">
      <g>
       <use style="stroke:#000000;stroke-width:0.8;" x="56.12" xlink:href="#mf65008af69" y="187.933465"/>
      </g>
     </g>
     <g id="text_8">
      <!-- 0.4 -->
      <g transform="translate(23.675 194.012215)scale(0.16 -0.16)">
       <use xlink:href="#DejaVuSans-30"/>
       <use x="63.623047" xlink:href="#DejaVuSans-2e"/>
       <use x="95.410156" xlink:href="#DejaVuSans-34"/>
      </g>
     </g>
    </g>
    <g id="ytick_4">
     <g id="line2d_35">
      <path clip-path="url(#p9ff31d8d23)" d="M 56.12 134.460198 
L 333.168 134.460198 
" style="fill:none;stroke:#b0b0b0;stroke-linecap:square;stroke-width:0.8;"/>
     </g>
     <g id="line2d_36">
      <g>
       <use style="stroke:#000000;stroke-width:0.8;" x="56.12" xlink:href="#mf65008af69" y="134.460198"/>
      </g>
     </g>
     <g id="text_9">
      <!-- 0.6 -->
      <g transform="translate(23.675 140.538948)scale(0.16 -0.16)">
       <use xlink:href="#DejaVuSans-30"/>
       <use x="63.623047" xlink:href="#DejaVuSans-2e"/>
       <use x="95.410156" xlink:href="#DejaVuSans-36"/>
      </g>
     </g>
    </g>
    <g id="ytick_5">
     <g id="line2d_37">
      <path clip-path="url(#p9ff31d8d23)" d="M 56.12 80.986931 
L 333.168 80.986931 
" style="fill:none;stroke:#b0b0b0;stroke-linecap:square;stroke-width:0.8;"/>
     </g>
     <g id="line2d_38">
      <g>
       <use style="stroke:#000000;stroke-width:0.8;" x="56.12" xlink:href="#mf65008af69" y="80.986931"/>
      </g>
     </g>
     <g id="text_10">
      <!-- 0.8 -->
      <defs>
       <path d="M 31.78125 34.625 
Q 24.75 34.625 20.71875 30.859375 
Q 16.703125 27.09375 16.703125 20.515625 
Q 16.703125 13.921875 20.71875 10.15625 
Q 24.75 6.390625 31.78125 6.390625 
Q 38.8125 6.390625 42.859375 10.171875 
Q 46.921875 13.96875 46.921875 20.515625 
Q 46.921875 27.09375 42.890625 30.859375 
Q 38.875 34.625 31.78125 34.625 
z
M 21.921875 38.8125 
Q 15.578125 40.375 12.03125 44.71875 
Q 8.5 49.078125 8.5 55.328125 
Q 8.5 64.0625 14.71875 69.140625 
Q 20.953125 74.21875 31.78125 74.21875 
Q 42.671875 74.21875 48.875 69.140625 
Q 55.078125 64.0625 55.078125 55.328125 
Q 55.078125 49.078125 51.53125 44.71875 
Q 48 40.375 41.703125 38.8125 
Q 48.828125 37.15625 52.796875 32.3125 
Q 56.78125 27.484375 56.78125 20.515625 
Q 56.78125 9.90625 50.3125 4.234375 
Q 43.84375 -1.421875 31.78125 -1.421875 
Q 19.734375 -1.421875 13.25 4.234375 
Q 6.78125 9.90625 6.78125 20.515625 
Q 6.78125 27.484375 10.78125 32.3125 
Q 14.796875 37.15625 21.921875 38.8125 
z
M 18.3125 54.390625 
Q 18.3125 48.734375 21.84375 45.5625 
Q 25.390625 42.390625 31.78125 42.390625 
Q 38.140625 42.390625 41.71875 45.5625 
Q 45.3125 48.734375 45.3125 54.390625 
Q 45.3125 60.0625 41.71875 63.234375 
Q 38.140625 66.40625 31.78125 66.40625 
Q 25.390625 66.40625 21.84375 63.234375 
Q 18.3125 60.0625 18.3125 54.390625 
z
" id="DejaVuSans-38"/>
      </defs>
      <g transform="translate(23.675 87.065681)scale(0.16 -0.16)">
       <use xlink:href="#DejaVuSans-30"/>
       <use x="63.623047" xlink:href="#DejaVuSans-2e"/>
       <use x="95.410156" xlink:href="#DejaVuSans-38"/>
      </g>
     </g>
    </g>
    <g id="ytick_6">
     <g id="line2d_39">
      <path clip-path="url(#p9ff31d8d23)" d="M 56.12 27.513663 
L 333.168 27.513663 
" style="fill:none;stroke:#b0b0b0;stroke-linecap:square;stroke-width:0.8;"/>
     </g>
     <g id="line2d_40">
      <g>
       <use style="stroke:#000000;stroke-width:0.8;" x="56.12" xlink:href="#mf65008af69" y="27.513663"/>
      </g>
     </g>
     <g id="text_11">
      <!-- 1.0 -->
      <g transform="translate(23.675 33.592413)scale(0.16 -0.16)">
       <use xlink:href="#DejaVuSans-31"/>
       <use x="63.623047" xlink:href="#DejaVuSans-2e"/>
       <use x="95.410156" xlink:href="#DejaVuSans-30"/>
      </g>
     </g>
    </g>
    <g id="text_12">
     <!-- Fraction of function,target pairs -->
     <defs>
      <path d="M 9.8125 72.90625 
L 51.703125 72.90625 
L 51.703125 64.59375 
L 19.671875 64.59375 
L 19.671875 43.109375 
L 48.578125 43.109375 
L 48.578125 34.8125 
L 19.671875 34.8125 
L 19.671875 0 
L 9.8125 0 
z
" id="DejaVuSans-46"/>
      <path d="M 41.109375 46.296875 
Q 39.59375 47.171875 37.8125 47.578125 
Q 36.03125 48 33.890625 48 
Q 26.265625 48 22.1875 43.046875 
Q 18.109375 38.09375 18.109375 28.8125 
L 18.109375 0 
L 9.078125 0 
L 9.078125 54.6875 
L 18.109375 54.6875 
L 18.109375 46.1875 
Q 20.953125 51.171875 25.484375 53.578125 
Q 30.03125 56 36.53125 56 
Q 37.453125 56 38.578125 55.875 
Q 39.703125 55.765625 41.0625 55.515625 
z
" id="DejaVuSans-72"/>
      <path d="M 48.78125 52.59375 
L 48.78125 44.1875 
Q 44.96875 46.296875 41.140625 47.34375 
Q 37.3125 48.390625 33.40625 48.390625 
Q 24.65625 48.390625 19.8125 42.84375 
Q 14.984375 37.3125 14.984375 27.296875 
Q 14.984375 17.28125 19.8125 11.734375 
Q 24.65625 6.203125 33.40625 6.203125 
Q 37.3125 6.203125 41.140625 7.25 
Q 44.96875 8.296875 48.78125 10.40625 
L 48.78125 2.09375 
Q 45.015625 0.34375 40.984375 -0.53125 
Q 36.96875 -1.421875 32.421875 -1.421875 
Q 20.0625 -1.421875 12.78125 6.34375 
Q 5.515625 14.109375 5.515625 27.296875 
Q 5.515625 40.671875 12.859375 48.328125 
Q 20.21875 56 33.015625 56 
Q 37.15625 56 41.109375 55.140625 
Q 45.0625 54.296875 48.78125 52.59375 
z
" id="DejaVuSans-63"/>
      <path d="M 18.3125 70.21875 
L 18.3125 54.6875 
L 36.8125 54.6875 
L 36.8125 47.703125 
L 18.3125 47.703125 
L 18.3125 18.015625 
Q 18.3125 11.328125 20.140625 9.421875 
Q 21.96875 7.515625 27.59375 7.515625 
L 36.8125 7.515625 
L 36.8125 0 
L 27.59375 0 
Q 17.1875 0 13.234375 3.875 
Q 9.28125 7.765625 9.28125 18.015625 
L 9.28125 47.703125 
L 2.6875 47.703125 
L 2.6875 54.6875 
L 9.28125 54.6875 
L 9.28125 70.21875 
z
" id="DejaVuSans-74"/>
      <path d="M 8.5 21.578125 
L 8.5 54.6875 
L 17.484375 54.6875 
L 17.484375 21.921875 
Q 17.484375 14.15625 20.5 10.265625 
Q 23.53125 6.390625 29.59375 6.390625 
Q 36.859375 6.390625 41.078125 11.03125 
Q 45.3125 15.671875 45.3125 23.6875 
L 45.3125 54.6875 
L 54.296875 54.6875 
L 54.296875 0 
L 45.3125 0 
L 45.3125 8.40625 
Q 42.046875 3.421875 37.71875 1 
Q 33.40625 -1.421875 27.6875 -1.421875 
Q 18.265625 -1.421875 13.375 4.4375 
Q 8.5 10.296875 8.5 21.578125 
z
M 31.109375 56 
z
" id="DejaVuSans-75"/>
      <path d="M 11.71875 12.40625 
L 22.015625 12.40625 
L 22.015625 4 
L 14.015625 -11.625 
L 7.71875 -11.625 
L 11.71875 4 
z
" id="DejaVuSans-2c"/>
      <path d="M 18.109375 8.203125 
L 18.109375 -20.796875 
L 9.078125 -20.796875 
L 9.078125 54.6875 
L 18.109375 54.6875 
L 18.109375 46.390625 
Q 20.953125 51.265625 25.265625 53.625 
Q 29.59375 56 35.59375 56 
Q 45.5625 56 51.78125 48.09375 
Q 58.015625 40.1875 58.015625 27.296875 
Q 58.015625 14.40625 51.78125 6.484375 
Q 45.5625 -1.421875 35.59375 -1.421875 
Q 29.59375 -1.421875 25.265625 0.953125 
Q 20.953125 3.328125 18.109375 8.203125 
z
M 48.6875 27.296875 
Q 48.6875 37.203125 44.609375 42.84375 
Q 40.53125 48.484375 33.40625 48.484375 
Q 26.265625 48.484375 22.1875 42.84375 
Q 18.109375 37.203125 18.109375 27.296875 
Q 18.109375 17.390625 22.1875 11.75 
Q 26.265625 6.109375 33.40625 6.109375 
Q 40.53125 6.109375 44.609375 11.75 
Q 48.6875 17.390625 48.6875 27.296875 
z
" id="DejaVuSans-70"/>
     </defs>
     <g transform="translate(16.139531 294.999375)rotate(-90)scale(0.17 -0.17)">
      <use xlink:href="#DejaVuSans-46"/>
      <use x="57.410156" xlink:href="#DejaVuSans-72"/>
      <use x="98.523438" xlink:href="#DejaVuSans-61"/>
      <use x="159.802734" xlink:href="#DejaVuSans-63"/>
      <use x="214.783203" xlink:href="#DejaVuSans-74"/>
      <use x="253.992188" xlink:href="#DejaVuSans-69"/>
      <use x="281.775391" xlink:href="#DejaVuSans-6f"/>
      <use x="342.957031" xlink:href="#DejaVuSans-6e"/>
      <use x="406.335938" xlink:href="#DejaVuSans-20"/>
      <use x="438.123047" xlink:href="#DejaVuSans-6f"/>
      <use x="499.304688" xlink:href="#DejaVuSans-66"/>
      <use x="534.509766" xlink:href="#DejaVuSans-20"/>
      <use x="566.296875" xlink:href="#DejaVuSans-66"/>
      <use x="601.501953" xlink:href="#DejaVuSans-75"/>
      <use x="664.880859" xlink:href="#DejaVuSans-6e"/>
      <use x="728.259766" xlink:href="#DejaVuSans-63"/>
      <use x="783.240234" xlink:href="#DejaVuSans-74"/>
      <use x="822.449219" xlink:href="#DejaVuSans-69"/>
      <use x="850.232422" xlink:href="#DejaVuSans-6f"/>
      <use x="911.414062" xlink:href="#DejaVuSans-6e"/>
      <use x="974.792969" xlink:href="#DejaVuSans-2c"/>
      <use x="1006.580078" xlink:href="#DejaVuSans-74"/>
      <use x="1045.789062" xlink:href="#DejaVuSans-61"/>
      <use x="1107.068359" xlink:href="#DejaVuSans-72"/>
      <use x="1148.166016" xlink:href="#DejaVuSans-67"/>
      <use x="1211.642578" xlink:href="#DejaVuSans-65"/>
      <use x="1273.166016" xlink:href="#DejaVuSans-74"/>
      <use x="1312.375" xlink:href="#DejaVuSans-20"/>
      <use x="1344.162109" xlink:href="#DejaVuSans-70"/>
      <use x="1407.638672" xlink:href="#DejaVuSans-61"/>
      <use x="1468.917969" xlink:href="#DejaVuSans-69"/>
      <use x="1496.701172" xlink:href="#DejaVuSans-72"/>
      <use x="1537.814453" xlink:href="#DejaVuSans-73"/>
     </g>
    </g>
   </g>
   <g id="line2d_41">
    <defs>
     <path d="M 0 1.5 
C 0.397805 1.5 0.77937 1.341951 1.06066 1.06066 
C 1.341951 0.77937 1.5 0.397805 1.5 0 
C 1.5 -0.397805 1.341951 -0.77937 1.06066 -1.06066 
C 0.77937 -1.341951 0.397805 -1.5 0 -1.5 
C -0.397805 -1.5 -0.77937 -1.341951 -1.06066 -1.06066 
C -1.341951 -0.77937 -1.5 -0.397805 -1.5 0 
C -1.5 0.397805 -1.341951 0.77937 -1.06066 1.06066 
C -0.77937 1.341951 -0.397805 1.5 0 1.5 
z
" id="m788026822b" style="stroke:#f5deb3;"/>
    </defs>
    <g>
     <use style="fill:#f5deb3;stroke:#f5deb3;" x="172.785041" xlink:href="#m788026822b" y="27.513663"/>
     <use style="fill:#f5deb3;stroke:#f5deb3;" x="172.785041" xlink:href="#m788026822b" y="27.513663"/>
    </g>
   </g>
   <g id="line2d_42">
    <defs>
     <path d="M 0 1.5 
C 0.397805 1.5 0.77937 1.341951 1.06066 1.06066 
C 1.341951 0.77937 1.5 0.397805 1.5 0 
C 1.5 -0.397805 1.341951 -0.77937 1.06066 -1.06066 
C 0.77937 -1.341951 0.397805 -1.5 0 -1.5 
C -0.397805 -1.5 -0.77937 -1.341951 -1.06066 -1.06066 
C -1.341951 -0.77937 -1.5 -0.397805 -1.5 0 
C -1.5 0.397805 -1.341951 0.77937 -1.06066 1.06066 
C -0.77937 1.341951 -0.397805 1.5 0 1.5 
z
" id="m31876e5c38" style="stroke:#000080;"/>
    </defs>
    <g>
     <use style="fill:#000080;stroke:#000080;" x="267.023541" xlink:href="#m31876e5c38" y="27.513663"/>
     <use style="fill:#000080;stroke:#000080;" x="267.023541" xlink:href="#m31876e5c38" y="27.513663"/>
    </g>
   </g>
   <g id="line2d_43">
    <path d="M 4.627463 294.88 
L 4.627463 289.637523 
L 32.291498 289.637523 
L 32.291498 289.113275 
L 116.220179 289.113275 
L 116.220179 288.589027 
L 117.715785 288.589027 
L 117.715785 288.06478 
L 119.267005 288.06478 
L 119.267005 287.540532 
L 119.526788 287.540532 
L 119.526788 287.016284 
L 120.055711 287.016284 
L 120.055711 286.492036 
L 121.16504 286.492036 
L 121.16504 285.967789 
L 121.397846 285.967789 
L 121.493926 284.919293 
L 122.732117 284.919293 
L 122.732117 284.395046 
L 123.032594 284.395046 
L 123.032594 283.870798 
L 123.803514 283.870798 
L 123.803514 283.34655 
L 124.036471 283.34655 
L 124.036471 282.822302 
L 124.859359 282.822302 
L 124.859359 282.298055 
L 125.310285 282.298055 
L 125.310285 279.676816 
L 126.496178 279.676816 
L 126.596154 278.628321 
L 126.681387 278.628321 
L 126.681387 278.104073 
L 127.032044 278.104073 
L 127.032044 277.579825 
L 127.605507 277.579825 
L 127.605507 277.055578 
L 127.92481 277.055578 
L 127.92481 276.53133 
L 128.354385 276.53133 
L 128.444143 275.482834 
L 128.647561 275.482834 
L 128.685436 273.910091 
L 129.145817 273.910091 
L 129.145817 273.385844 
L 129.630036 273.385844 
L 129.630036 272.861596 
L 130.559378 272.861596 
L 130.615826 270.764605 
L 131.322459 270.764605 
L 131.376461 269.716109 
L 131.483957 269.716109 
L 131.483957 269.191862 
L 132.351146 269.191862 
L 132.351146 268.667614 
L 133.079291 268.667614 
L 133.079291 267.619119 
L 133.263855 267.619119 
L 133.263855 267.094871 
L 133.579779 267.094871 
L 133.579779 266.570623 
L 133.843356 266.570623 
L 133.843356 264.99788 
L 134.574897 264.99788 
L 134.574897 263.949385 
L 135.276571 263.949385 
L 135.3623 262.900889 
L 135.447604 262.900889 
L 135.447604 262.376641 
L 136.28624 262.376641 
L 136.359022 261.328146 
L 136.599426 261.328146 
L 136.599426 260.279651 
L 136.961637 260.279651 
L 136.961637 259.755403 
L 137.308738 259.755403 
L 137.308738 258.706907 
L 137.678888 258.706907 
L 137.678888 258.18266 
L 138.974042 258.18266 
L 139.050113 256.609917 
L 139.519758 256.609917 
L 139.519758 256.085669 
L 140.094197 256.085669 
L 140.094197 255.561421 
L 140.485813 255.561421 
L 140.568131 253.988678 
L 141.00473 253.988678 
L 141.078475 252.940182 
L 141.358268 252.940182 
L 141.382384 251.891687 
L 141.67509 251.891687 
L 141.67509 251.367439 
L 142.015238 251.367439 
L 142.015238 250.318944 
L 142.16556 250.318944 
L 142.257417 249.270448 
L 142.473629 249.270448 
L 142.473629 248.746201 
L 142.631221 248.746201 
L 142.631221 248.221953 
L 143.35529 248.221953 
L 143.35529 247.697705 
L 143.690404 247.697705 
L 143.779723 245.076467 
L 144.11188 245.076467 
L 144.219486 242.979476 
L 144.260302 242.979476 
L 144.260302 242.455228 
L 144.598384 242.455228 
L 144.598384 241.93098 
L 144.993542 241.93098 
L 145.081214 240.358237 
L 145.322428 240.358237 
L 145.322428 239.309742 
L 145.503514 239.309742 
L 145.583912 236.688503 
L 146.127269 236.688503 
L 146.127269 236.164255 
L 146.489148 236.164255 
L 146.57844 235.11576 
L 146.843566 235.11576 
L 146.900475 234.067265 
L 147.190823 234.067265 
L 147.293646 233.018769 
L 147.864973 233.018769 
L 147.935072 231.446026 
L 148.349766 231.446026 
L 148.349766 230.921778 
L 148.868095 230.921778 
L 148.868095 230.397531 
L 149.123434 230.397531 
L 149.123434 229.873283 
L 149.283969 229.873283 
L 149.283969 229.349035 
L 149.443019 229.349035 
L 149.443019 228.824787 
L 149.741959 228.824787 
L 149.741959 227.776292 
L 150.324681 227.776292 
L 150.324681 227.252044 
L 150.647498 227.252044 
L 150.742124 226.203549 
L 151.547775 226.203549 
L 151.547775 225.679301 
L 151.74672 225.679301 
L 151.74672 225.155053 
L 152.202161 225.155053 
L 152.202161 224.630806 
L 152.561164 224.630806 
L 152.561164 224.106558 
L 153.553767 224.106558 
L 153.553767 223.58231 
L 153.783699 223.58231 
L 153.783699 223.058063 
L 154.185976 223.058063 
L 154.185976 222.533815 
L 154.53146 222.533815 
L 154.53146 222.009567 
L 154.648808 222.009567 
L 154.648808 221.485319 
L 169.238137 221.485319 
L 169.333201 220.436824 
L 169.679273 220.436824 
L 169.679273 218.864081 
L 169.815774 218.864081 
L 169.891652 217.815585 
L 169.955771 217.815585 
L 169.955771 217.291338 
L 170.232392 217.291338 
L 170.232392 216.76709 
L 170.406943 216.76709 
L 170.495773 215.718594 
L 170.684122 215.718594 
L 170.684122 214.670099 
L 170.804201 214.670099 
L 170.896418 213.621604 
L 171.031138 213.621604 
L 171.031138 213.097356 
L 171.367076 213.097356 
L 171.444805 211.524613 
L 171.633458 211.524613 
L 171.633458 211.000365 
L 171.754313 211.000365 
L 171.754313 210.476117 
L 171.939617 210.476117 
L 172.020888 209.427622 
L 172.101776 209.427622 
L 172.114884 207.854879 
L 172.2784 207.854879 
L 172.330239 206.806383 
L 172.657576 206.806383 
L 172.73553 205.23364 
L 172.925034 205.23364 
L 172.925034 204.709392 
L 173.151423 204.709392 
L 173.231897 203.660897 
L 173.496213 203.660897 
L 173.496213 203.136649 
L 174.691652 203.136649 
L 174.691652 202.612401 
L 179.098044 202.612401 
L 179.177091 201.563906 
L 179.987761 201.563906 
L 179.987761 201.039658 
L 180.481098 201.039658 
L 180.481098 200.515411 
L 180.736295 200.515411 
L 180.736295 199.991163 
L 180.882169 199.991163 
L 180.978734 198.41842 
L 181.155367 198.41842 
L 181.211271 197.369924 
L 181.573769 197.369924 
L 181.573769 196.845677 
L 181.824247 196.845677 
L 181.824247 196.321429 
L 182.673793 196.321429 
L 182.765165 195.272933 
L 182.976494 195.272933 
L 182.976494 194.748686 
L 186.631046 194.748686 
L 186.631046 194.224438 
L 186.803451 194.224438 
L 186.803451 193.70019 
L 187.552406 193.70019 
L 187.552406 193.175943 
L 187.673101 193.175943 
L 187.673101 192.651695 
L 187.865272 192.651695 
L 187.865272 192.127447 
L 188.341213 192.127447 
L 188.419075 191.078952 
L 188.624744 191.078952 
L 188.624744 190.554704 
L 214.515451 190.554704 
L 214.615234 186.360722 
L 214.629684 186.360722 
L 214.734552 175.35152 
L 214.741982 175.35152 
L 214.834082 166.439309 
L 214.875509 166.439309 
L 214.944472 164.342318 
L 215.660239 164.342318 
L 215.746924 161.196832 
L 215.788832 161.196832 
L 215.891065 154.905859 
L 215.901799 154.905859 
L 215.997638 152.808868 
L 216.018889 152.808868 
L 216.030092 150.711877 
L 216.579546 150.711877 
L 216.690465 149.139134 
L 216.694534 149.139134 
L 216.770768 147.566391 
L 216.812576 147.566391 
L 216.871294 145.993648 
L 217.564995 145.993648 
L 217.675519 144.420905 
L 217.686902 144.420905 
L 217.748029 141.799666 
L 217.81854 141.799666 
L 217.912997 140.226923 
L 217.934182 140.226923 
L 217.934182 139.702675 
L 218.513138 139.702675 
L 218.513138 139.178427 
L 218.697534 139.178427 
L 218.697534 138.65418 
L 219.209549 138.65418 
L 219.283594 137.081437 
L 220.280365 137.081437 
L 220.280365 136.557189 
L 221.017818 136.557189 
L 221.017818 136.032941 
L 226.398883 136.032941 
L 226.491175 133.411703 
L 226.532376 133.411703 
L 226.575938 129.741969 
L 227.01332 129.741969 
L 227.106492 121.878253 
L 227.441622 121.878253 
L 227.541891 119.781262 
L 227.634482 119.781262 
L 227.710349 116.111528 
L 227.98252 116.111528 
L 228.085751 114.014537 
L 228.102016 114.014537 
L 228.181414 111.393298 
L 228.237981 111.393298 
L 228.237981 110.869051 
L 228.482035 110.869051 
L 228.588278 108.247812 
L 229.02884 108.247812 
L 229.02884 107.723564 
L 229.55636 107.723564 
L 229.55636 107.199317 
L 230.510764 107.199317 
L 230.510764 106.675069 
L 232.353176 106.675069 
L 232.353176 106.150821 
L 233.351127 106.150821 
L 233.449198 103.005335 
L 233.484129 103.005335 
L 233.484129 102.481087 
L 233.746805 102.481087 
L 233.820687 97.762858 
L 233.875156 97.762858 
L 233.875156 97.23861 
L 234.080007 97.23861 
L 234.153238 94.617371 
L 234.193139 94.617371 
L 234.251544 92.520381 
L 234.406765 92.520381 
L 234.501149 89.899142 
L 234.535556 89.899142 
L 234.535556 89.374894 
L 234.775548 89.374894 
L 234.850545 87.277903 
L 234.911906 87.277903 
L 234.911906 86.753656 
L 235.201814 86.753656 
L 235.284561 85.70516 
L 235.438086 85.70516 
L 235.492416 84.132417 
L 235.82242 84.132417 
L 235.843454 83.083922 
L 238.320887 83.083922 
L 238.341858 82.035426 
L 238.605479 82.035426 
L 238.641497 79.938435 
L 238.829755 79.938435 
L 238.925504 77.841444 
L 238.955617 77.841444 
L 238.955617 77.317197 
L 239.137116 77.317197 
L 239.235619 74.695958 
L 239.341453 74.695958 
L 239.439819 73.123215 
L 239.705034 73.123215 
L 239.73403 72.074719 
L 239.873625 72.074719 
L 239.907708 69.977729 
L 240.052354 69.977729 
L 240.052354 69.453481 
L 240.229205 69.453481 
L 240.229205 68.929233 
L 240.353042 68.929233 
L 240.353042 68.404985 
L 241.469826 68.404985 
L 241.469826 67.880738 
L 242.152316 67.880738 
L 242.152316 67.35649 
L 242.385322 67.35649 
L 242.385322 66.832242 
L 242.596589 66.832242 
L 242.630766 64.211004 
L 242.788062 64.211004 
L 242.880722 62.114013 
L 243.018333 62.114013 
L 243.073782 59.492774 
L 243.214422 59.492774 
L 243.281152 58.444279 
L 243.453105 58.444279 
L 243.51086 56.871536 
L 243.618871 56.871536 
L 243.618871 56.347288 
L 243.740429 56.347288 
L 243.740429 55.82304 
L 245.262605 55.82304 
L 245.266679 54.250297 
L 245.453458 54.250297 
L 245.453458 53.726049 
L 245.650716 53.726049 
L 245.704769 52.677554 
L 245.83563 52.677554 
L 245.883383 50.056315 
L 246.019916 50.056315 
L 246.054877 49.00782 
L 246.140544 49.00782 
L 246.176509 47.435077 
L 246.351023 47.435077 
L 246.351023 46.910829 
L 246.754312 46.910829 
L 246.763801 45.862334 
L 247.91389 45.862334 
L 247.91389 45.338086 
L 248.212277 45.338086 
L 248.26767 44.28959 
L 248.378567 44.28959 
L 248.419238 43.241095 
L 248.560491 43.241095 
L 248.560491 42.716847 
L 248.730602 42.716847 
L 248.741933 41.668352 
L 248.867614 41.668352 
L 248.899059 40.095609 
L 249.456308 40.095609 
L 249.456308 39.571361 
L 250.908723 39.571361 
L 250.908723 39.047113 
L 252.475128 39.047113 
L 252.475128 38.522865 
L 252.590166 38.522865 
L 252.600208 37.47437 
L 252.734052 37.47437 
L 252.747765 36.425875 
L 253.22893 36.425875 
L 253.282517 34.328884 
L 254.384579 34.328884 
L 254.384579 33.804636 
L 254.50538 33.804636 
L 254.50538 33.280388 
L 255.225044 33.280388 
L 255.225044 32.756141 
L 256.173003 32.756141 
L 256.222663 31.183397 
L 256.306708 31.183397 
L 256.408483 30.134902 
L 256.882013 30.134902 
L 256.882013 29.610654 
L 257.115797 29.610654 
L 257.115797 29.086407 
L 258.37727 29.086407 
L 258.37727 28.562159 
L 258.90779 28.562159 
L 258.90779 28.037911 
L 267.023541 28.037911 
L 267.023541 27.513663 
L 333.168 27.513663 
L 333.168 27.513663 
" style="fill:none;stroke:#000080;stroke-linecap:square;stroke-width:1.5;"/>
   </g>
   <g id="line2d_44">
    <defs>
     <path d="M 0 6 
C 1.591219 6 3.117479 5.367802 4.242641 4.242641 
C 5.367802 3.117479 6 1.591219 6 0 
C 6 -1.591219 5.367802 -3.117479 4.242641 -4.242641 
C 3.117479 -5.367802 1.591219 -6 0 -6 
C -1.591219 -6 -3.117479 -5.367802 -4.242641 -4.242641 
C -5.367802 -3.117479 -6 -1.591219 -6 0 
C -6 1.591219 -5.367802 3.117479 -4.242641 4.242641 
C -3.117479 5.367802 -1.591219 6 0 6 
z
" id="m03288d533b" style="stroke:#000080;stroke-width:1.5;"/>
    </defs>
    <g>
     <use style="fill:none;stroke:#000080;stroke-width:1.5;" x="180.978734" xlink:href="#m03288d533b" y="198.41842"/>
     <use style="fill:none;stroke:#000080;stroke-width:1.5;" x="227.541891" xlink:href="#m03288d533b" y="120.30551"/>
     <use style="fill:none;stroke:#000080;stroke-width:1.5;" x="267.023541" xlink:href="#m03288d533b" y="27.513663"/>
     <use style="fill:none;stroke:#000080;stroke-width:1.5;" x="267.023541" xlink:href="#m03288d533b" y="27.513663"/>
     <use style="fill:none;stroke:#000080;stroke-width:1.5;" x="333.168" xlink:href="#m03288d533b" y="27.513663"/>
    </g>
   </g>
   <g id="line2d_45">
    <path style="fill:none;stroke:#000080;stroke-linecap:square;stroke-width:1.5;"/>
    <g/>
   </g>
   <g id="line2d_46">
    <path clip-path="url(#p9ff31d8d23)" d="M 214.433143 190.554704 
" style="fill:none;stroke:#000080;stroke-linecap:square;stroke-width:1.5;"/>
    <defs>
     <path d="M -12 12 
L 12 -12 
M -12 -12 
L 12 12 
" id="m54e46ba4f0" style="stroke:#000080;"/>
    </defs>
    <g clip-path="url(#p9ff31d8d23)">
     <use style="fill:#000080;stroke:#000080;" x="214.433143" xlink:href="#m54e46ba4f0" y="190.554704"/>
    </g>
   </g>
   <g id="line2d_47">
    <defs>
     <path d="M 0 1.5 
C 0.397805 1.5 0.77937 1.341951 1.06066 1.06066 
C 1.341951 0.77937 1.5 0.397805 1.5 0 
C 1.5 -0.397805 1.341951 -0.77937 1.06066 -1.06066 
C 0.77937 -1.341951 0.397805 -1.5 0 -1.5 
C -0.397805 -1.5 -0.77937 -1.341951 -1.06066 -1.06066 
C -1.341951 -0.77937 -1.5 -0.397805 -1.5 0 
C -1.5 0.397805 -1.341951 0.77937 -1.06066 1.06066 
C -0.77937 1.341951 -0.397805 1.5 0 1.5 
z
" id="me86168661c" style="stroke:#ff00ff;"/>
    </defs>
    <g>
     <use style="fill:#ff00ff;stroke:#ff00ff;" x="279.455836" xlink:href="#me86168661c" y="27.513663"/>
     <use style="fill:#ff00ff;stroke:#ff00ff;" x="279.455836" xlink:href="#me86168661c" y="27.513663"/>
    </g>
   </g>
   <g id="line2d_48">
    <path d="M 4.627463 294.88 
L 4.627463 289.637523 
L 45.844 289.637523 
L 45.844 289.113275 
L 85.106889 289.113275 
L 85.106889 288.589027 
L 93.005621 288.589027 
L 93.005621 288.06478 
L 97.874928 288.06478 
L 97.874928 287.540532 
L 104.970058 287.540532 
L 104.970058 287.016284 
L 108.975134 287.016284 
L 108.975134 286.492036 
L 109.133192 286.492036 
L 109.211679 285.443541 
L 114.176106 285.443541 
L 114.176106 284.919293 
L 117.787256 284.919293 
L 117.787256 284.395046 
L 117.905717 284.395046 
L 117.905717 283.870798 
L 118.486077 283.870798 
L 118.486077 282.822302 
L 119.113632 282.822302 
L 119.113632 282.298055 
L 120.365424 282.298055 
L 120.365424 281.773807 
L 121.513078 281.773807 
L 121.589472 280.725312 
L 122.353537 280.725312 
L 122.353537 280.201064 
L 123.258878 280.201064 
L 123.258878 279.676816 
L 123.920387 279.676816 
L 123.920387 279.152568 
L 124.701083 279.152568 
L 124.701083 278.628321 
L 125.217956 278.628321 
L 125.217956 278.104073 
L 125.584335 278.104073 
L 125.584335 277.579825 
L 126.061 277.579825 
L 126.061 277.055578 
L 127.073647 277.055578 
L 127.15655 276.007082 
L 128.121403 276.007082 
L 128.121403 275.482834 
L 128.836104 275.482834 
L 128.836104 274.434339 
L 130.377486 274.434339 
L 130.377486 273.910091 
L 130.806377 273.910091 
L 130.806377 273.385844 
L 131.137575 273.385844 
L 131.137575 272.861596 
L 131.365674 272.861596 
L 131.365674 272.337348 
L 131.643952 272.337348 
L 131.643952 271.288853 
L 131.928242 271.288853 
L 131.928242 270.764605 
L 132.042729 270.764605 
L 132.073821 269.716109 
L 132.872966 269.716109 
L 132.872966 269.191862 
L 134.708662 269.191862 
L 134.708662 268.667614 
L 135.32806 268.667614 
L 135.32806 268.143366 
L 135.481607 268.143366 
L 135.481607 267.619119 
L 135.709386 267.619119 
L 135.709386 267.094871 
L 135.892778 267.094871 
L 135.892778 266.570623 
L 137.453213 266.570623 
L 137.475915 265.522128 
L 139.673498 265.522128 
L 139.673498 264.99788 
L 140.806517 264.99788 
L 140.806517 264.473632 
L 142.07321 264.473632 
L 142.07321 263.949385 
L 142.552605 263.949385 
L 142.552605 263.425137 
L 143.85815 263.425137 
L 143.85815 262.900889 
L 144.055246 262.900889 
L 144.055246 262.376641 
L 144.280674 262.376641 
L 144.280674 261.852394 
L 144.910328 261.852394 
L 144.910328 261.328146 
L 145.621616 261.328146 
L 145.621616 260.803898 
L 145.975746 260.803898 
L 145.975746 260.279651 
L 147.378865 260.279651 
L 147.378865 259.755403 
L 147.606868 259.755403 
L 147.606868 259.231155 
L 148.200491 259.231155 
L 148.200491 257.658412 
L 149.555732 257.658412 
L 149.555732 257.134164 
L 149.67143 257.134164 
L 149.67143 256.609917 
L 150.431775 256.609917 
L 150.431775 256.085669 
L 151.601053 256.085669 
L 151.601053 255.037173 
L 153.22116 255.037173 
L 153.22116 253.988678 
L 154.013485 253.988678 
L 154.013485 253.46443 
L 155.266856 253.46443 
L 155.266856 252.940182 
L 156.215272 252.940182 
L 156.215272 252.415935 
L 176.870981 252.415935 
L 176.870981 251.891687 
L 182.420542 251.891687 
L 182.420542 251.367439 
L 182.681971 251.367439 
L 182.788473 249.794696 
L 182.856053 249.794696 
L 182.856053 249.270448 
L 183.157179 249.270448 
L 183.157179 248.746201 
L 183.323387 248.746201 
L 183.323387 248.221953 
L 183.570499 248.221953 
L 183.570499 247.697705 
L 183.781418 247.697705 
L 183.837059 246.124962 
L 184.013 246.124962 
L 184.113094 243.503724 
L 184.145662 243.503724 
L 184.182664 242.455228 
L 184.259912 242.455228 
L 184.286743 241.406733 
L 184.390195 241.406733 
L 184.491557 239.83399 
L 184.557172 239.83399 
L 184.658528 237.736999 
L 185.167858 237.736999 
L 185.167858 237.212751 
L 185.490732 237.212751 
L 185.596409 235.640008 
L 185.929011 235.640008 
L 186.018125 234.591512 
L 186.183868 234.591512 
L 186.183868 234.067265 
L 195.000768 234.067265 
L 195.000768 233.543017 
L 195.566596 233.543017 
L 195.566596 233.018769 
L 196.020824 233.018769 
L 196.020824 232.494521 
L 196.151025 232.494521 
L 196.197767 230.921778 
L 201.103789 230.921778 
L 201.103789 230.397531 
L 201.257448 230.397531 
L 201.297172 229.349035 
L 201.662181 229.349035 
L 201.736276 228.30054 
L 201.842802 228.30054 
L 201.874775 227.252044 
L 202.053894 227.252044 
L 202.053894 226.727797 
L 202.652613 226.727797 
L 202.652613 226.203549 
L 202.774807 226.203549 
L 202.774807 225.679301 
L 203.353599 225.679301 
L 203.398894 224.630806 
L 203.524346 224.630806 
L 203.524346 224.106558 
L 203.680084 224.106558 
L 203.680084 223.58231 
L 204.784502 223.58231 
L 204.784502 223.058063 
L 206.572906 223.058063 
L 206.572906 222.533815 
L 207.405988 222.533815 
L 207.405988 222.009567 
L 208.106058 222.009567 
L 208.106058 221.485319 
L 210.251998 221.485319 
L 210.251998 220.961072 
L 210.48725 220.961072 
L 210.48725 220.436824 
L 211.422839 220.436824 
L 211.422839 219.912576 
L 213.366938 219.912576 
L 213.366938 219.388328 
L 213.923938 219.388328 
L 213.963553 218.339833 
L 214.405705 218.339833 
L 214.405705 217.815585 
L 214.55091 217.815585 
L 214.627135 216.242842 
L 214.693629 216.242842 
L 214.781778 215.194347 
L 214.871823 215.194347 
L 214.936962 211.000365 
L 215.878902 211.000365 
L 215.878902 210.476117 
L 216.264768 210.476117 
L 216.264768 209.95187 
L 216.412694 209.95187 
L 216.412694 209.427622 
L 216.68074 209.427622 
L 216.68074 208.903374 
L 217.053266 208.903374 
L 217.148048 207.330631 
L 217.214116 207.330631 
L 217.285246 204.709392 
L 217.343099 204.709392 
L 217.415288 203.136649 
L 217.584109 203.136649 
L 217.584109 202.612401 
L 218.655839 202.612401 
L 218.655839 202.088154 
L 219.138517 202.088154 
L 219.138517 201.563906 
L 219.269005 201.563906 
L 219.353901 199.466915 
L 219.413376 199.466915 
L 219.505499 197.894172 
L 219.693531 197.894172 
L 219.790526 196.845677 
L 221.048844 196.845677 
L 221.048844 196.321429 
L 221.227582 196.321429 
L 221.329096 194.748686 
L 221.400871 194.748686 
L 221.400871 194.224438 
L 221.562784 194.224438 
L 221.562784 193.70019 
L 222.943158 193.70019 
L 223.021189 191.603199 
L 223.079234 191.603199 
L 223.147905 190.030456 
L 223.204028 190.030456 
L 223.207536 188.981961 
L 224.240652 188.981961 
L 224.344434 187.933465 
L 224.464382 187.933465 
L 224.464382 187.409218 
L 224.632616 187.409218 
L 224.632616 186.88497 
L 224.812944 186.88497 
L 224.839329 185.836474 
L 225.927106 185.836474 
L 225.96243 184.787979 
L 226.039687 184.787979 
L 226.039687 184.263731 
L 226.198976 184.263731 
L 226.198976 183.739484 
L 226.316556 183.739484 
L 226.316556 183.215236 
L 226.566309 183.215236 
L 226.566309 182.690988 
L 227.465396 182.690988 
L 227.494362 181.642493 
L 227.650861 181.642493 
L 227.746553 179.021254 
L 227.784578 179.021254 
L 227.848765 177.972759 
L 227.91032 177.972759 
L 227.91032 177.448511 
L 228.678717 177.448511 
L 228.678717 176.924263 
L 228.813154 176.924263 
L 228.867534 174.303025 
L 229.067216 174.303025 
L 229.142799 172.206034 
L 229.692267 172.206034 
L 229.692267 171.681786 
L 229.908828 171.681786 
L 229.908828 170.633291 
L 230.049369 170.633291 
L 230.100291 169.060547 
L 230.161014 169.060547 
L 230.263489 167.487804 
L 230.832168 167.487804 
L 230.832168 166.963557 
L 231.175763 166.963557 
L 231.175763 166.439309 
L 231.307611 166.439309 
L 231.339427 164.866566 
L 232.09445 164.866566 
L 232.11735 163.81807 
L 232.210847 163.81807 
L 232.287209 162.769575 
L 232.336503 162.769575 
L 232.336503 162.245327 
L 233.11652 162.245327 
L 233.124953 161.196832 
L 233.34455 161.196832 
L 233.384546 160.148336 
L 233.458634 160.148336 
L 233.48637 159.099841 
L 234.006408 159.099841 
L 234.006794 158.051345 
L 234.119642 158.051345 
L 234.22575 156.478602 
L 234.251218 156.478602 
L 234.251218 155.954354 
L 234.395495 155.954354 
L 234.395495 155.430107 
L 234.667257 155.430107 
L 234.667257 154.905859 
L 235.058921 154.905859 
L 235.121916 152.28462 
L 235.203277 152.28462 
L 235.26127 151.236125 
L 235.771558 151.236125 
L 235.771558 150.711877 
L 235.963231 150.711877 
L 236.021706 149.663382 
L 236.395862 149.663382 
L 236.395862 149.139134 
L 236.677344 149.139134 
L 236.742834 148.090639 
L 237.249353 148.090639 
L 237.249353 147.566391 
L 237.913161 147.566391 
L 237.913161 147.042143 
L 238.123908 147.042143 
L 238.154787 145.993648 
L 238.263407 145.993648 
L 238.356372 144.945152 
L 238.551269 144.945152 
L 238.623308 143.896657 
L 238.753066 143.896657 
L 238.7984 142.323914 
L 238.877002 142.323914 
L 238.966427 140.226923 
L 239.375036 140.226923 
L 239.477855 139.178427 
L 239.672387 139.178427 
L 239.697327 137.605684 
L 240.127095 137.605684 
L 240.219219 136.557189 
L 240.266606 136.557189 
L 240.266606 136.032941 
L 240.659776 136.032941 
L 240.659776 135.508693 
L 240.776254 135.508693 
L 240.858841 133.93595 
L 240.890105 133.93595 
L 240.963244 131.838959 
L 241.079095 131.838959 
L 241.079095 131.314712 
L 241.268448 131.314712 
L 241.300183 129.741969 
L 241.391259 129.741969 
L 241.425539 128.169225 
L 241.502527 128.169225 
L 241.502527 127.644978 
L 241.840867 127.644978 
L 241.840867 127.12073 
L 242.003727 127.12073 
L 242.10022 125.547987 
L 242.305236 125.547987 
L 242.305236 125.023739 
L 242.451387 125.023739 
L 242.451387 124.499491 
L 242.661516 124.499491 
L 242.720032 123.450996 
L 242.861036 123.450996 
L 242.861036 122.926748 
L 243.042038 122.926748 
L 243.042038 122.4025 
L 243.596154 122.4025 
L 243.598722 121.354005 
L 243.94948 121.354005 
L 243.978746 120.30551 
L 244.181328 120.30551 
L 244.181328 119.781262 
L 244.298653 119.781262 
L 244.327678 118.732766 
L 244.663229 118.732766 
L 244.701605 117.160023 
L 244.794432 117.160023 
L 244.880913 116.111528 
L 245.088988 116.111528 
L 245.195504 114.538785 
L 245.200484 114.538785 
L 245.295501 112.966042 
L 245.493906 112.966042 
L 245.57953 110.869051 
L 245.640872 110.869051 
L 245.718809 109.296308 
L 245.755777 109.296308 
L 245.755777 108.77206 
L 246.009858 108.77206 
L 246.009858 108.247812 
L 246.183191 108.247812 
L 246.210098 107.199317 
L 246.385452 107.199317 
L 246.496113 106.150821 
L 246.538167 106.150821 
L 246.641071 105.102326 
L 246.760355 105.102326 
L 246.841333 104.05383 
L 247.30666 104.05383 
L 247.416837 102.481087 
L 247.467229 102.481087 
L 247.510714 100.908344 
L 247.857171 100.908344 
L 247.910741 99.859849 
L 248.035787 99.859849 
L 248.132404 98.287105 
L 248.351878 98.287105 
L 248.351878 97.762858 
L 248.566166 97.762858 
L 248.59236 96.714362 
L 248.828421 96.714362 
L 248.828421 96.190115 
L 248.946205 96.190115 
L 248.951212 95.141619 
L 249.441257 95.141619 
L 249.441257 94.617371 
L 250.004273 94.617371 
L 250.052805 93.568876 
L 250.176713 93.568876 
L 250.238671 92.520381 
L 250.506184 92.520381 
L 250.608187 91.471885 
L 250.757544 91.471885 
L 250.863274 90.42339 
L 250.891563 90.42339 
L 250.891563 89.899142 
L 251.173567 89.899142 
L 251.243946 88.850646 
L 251.294633 88.850646 
L 251.36104 87.277903 
L 251.482659 87.277903 
L 251.482659 86.753656 
L 251.759595 86.753656 
L 251.828498 83.608169 
L 252.131955 83.608169 
L 252.131955 83.083922 
L 252.281688 83.083922 
L 252.325542 80.986931 
L 252.811306 80.986931 
L 252.811306 80.462683 
L 252.969101 80.462683 
L 252.969101 79.938435 
L 253.215091 79.938435 
L 253.215091 79.414188 
L 253.752728 79.414188 
L 253.80704 78.365692 
L 253.933663 78.365692 
L 253.933663 77.841444 
L 254.202625 77.841444 
L 254.213203 76.792949 
L 254.360536 76.792949 
L 254.471459 74.695958 
L 254.731374 74.695958 
L 254.768027 73.123215 
L 255.011889 73.123215 
L 255.011889 72.598967 
L 255.207529 72.598967 
L 255.207529 72.074719 
L 255.360603 72.074719 
L 255.360603 71.550472 
L 255.566112 71.550472 
L 255.566112 71.026224 
L 255.81166 71.026224 
L 255.81166 70.501976 
L 255.960729 70.501976 
L 255.960729 69.977729 
L 256.192447 69.977729 
L 256.250397 68.929233 
L 256.496023 68.929233 
L 256.568121 67.35649 
L 256.727149 67.35649 
L 256.818115 65.783747 
L 256.956533 65.783747 
L 257.040453 64.211004 
L 257.250481 64.211004 
L 257.250481 63.686756 
L 257.44293 63.686756 
L 257.507833 62.638261 
L 257.880823 62.638261 
L 257.889858 61.065517 
L 258.150977 61.065517 
L 258.258395 59.492774 
L 258.371309 59.492774 
L 258.371309 58.968526 
L 258.627135 58.968526 
L 258.627135 58.444279 
L 258.7414 58.444279 
L 258.844956 56.871536 
L 259.083612 56.871536 
L 259.083612 56.347288 
L 259.402389 56.347288 
L 259.492892 54.774545 
L 259.65963 54.774545 
L 259.739932 53.726049 
L 259.834347 53.726049 
L 259.834347 53.201802 
L 260.596678 53.201802 
L 260.596678 52.677554 
L 260.811944 52.677554 
L 260.811944 52.153306 
L 261.196727 52.153306 
L 261.285701 51.104811 
L 261.386336 51.104811 
L 261.386336 50.580563 
L 261.585645 50.580563 
L 261.614821 49.532068 
L 261.819613 49.532068 
L 261.819613 49.00782 
L 262.311863 49.00782 
L 262.311863 48.483572 
L 262.483859 48.483572 
L 262.494765 46.910829 
L 262.999505 46.910829 
L 263.026755 45.862334 
L 263.332476 45.862334 
L 263.39477 44.813838 
L 263.557699 44.813838 
L 263.557699 44.28959 
L 264.18716 44.28959 
L 264.18716 43.765343 
L 264.440183 43.765343 
L 264.440183 43.241095 
L 264.623522 43.241095 
L 264.667117 42.192599 
L 264.841272 42.192599 
L 264.841272 41.668352 
L 264.976502 41.668352 
L 265.022428 40.619856 
L 265.19754 40.619856 
L 265.19754 40.095609 
L 265.842069 40.095609 
L 265.842069 39.571361 
L 266.75325 39.571361 
L 266.860723 37.998618 
L 267.291139 37.998618 
L 267.291139 37.47437 
L 267.477655 37.47437 
L 267.477655 36.950122 
L 267.706051 36.950122 
L 267.706051 36.425875 
L 267.818653 36.425875 
L 267.92096 34.853131 
L 268.616512 34.853131 
L 268.616512 34.328884 
L 268.755527 34.328884 
L 268.755527 33.804636 
L 269.236285 33.804636 
L 269.236285 33.280388 
L 269.34906 33.280388 
L 269.34906 32.756141 
L 269.471287 32.756141 
L 269.471287 32.231893 
L 270.091964 32.231893 
L 270.091964 31.707645 
L 271.455946 31.707645 
L 271.455946 31.183397 
L 271.654485 31.183397 
L 271.654485 30.65915 
L 272.183214 30.65915 
L 272.183214 30.134902 
L 272.799531 30.134902 
L 272.799531 29.610654 
L 273.059299 29.610654 
L 273.059299 29.086407 
L 273.662704 29.086407 
L 273.662704 28.562159 
L 274.298873 28.562159 
L 274.298873 28.037911 
L 279.455836 28.037911 
L 279.455836 27.513663 
L 333.168 27.513663 
L 333.168 27.513663 
" style="fill:none;stroke:#ff00ff;stroke-linecap:square;stroke-width:1.5;"/>
   </g>
   <g id="line2d_49">
    <defs>
     <path d="M -0 8.485281 
L 5.091169 0 
L 0 -8.485281 
L -5.091169 -0 
z
" id="m54129a020f" style="stroke:#ff00ff;stroke-linejoin:miter;stroke-width:1.5;"/>
    </defs>
    <g>
     <use style="fill:none;stroke:#ff00ff;stroke-linejoin:miter;stroke-width:1.5;" x="114.176106" xlink:href="#m54129a020f" y="284.919293"/>
     <use style="fill:none;stroke:#ff00ff;stroke-linejoin:miter;stroke-width:1.5;" x="156.215272" xlink:href="#m54129a020f" y="252.415935"/>
     <use style="fill:none;stroke:#ff00ff;stroke-linejoin:miter;stroke-width:1.5;" x="241.391259" xlink:href="#m54129a020f" y="129.217721"/>
     <use style="fill:none;stroke:#ff00ff;stroke-linejoin:miter;stroke-width:1.5;" x="279.455836" xlink:href="#m54129a020f" y="28.037911"/>
     <use style="fill:none;stroke:#ff00ff;stroke-linejoin:miter;stroke-width:1.5;" x="279.455836" xlink:href="#m54129a020f" y="27.513663"/>
     <use style="fill:none;stroke:#ff00ff;stroke-linejoin:miter;stroke-width:1.5;" x="333.168" xlink:href="#m54129a020f" y="27.513663"/>
    </g>
   </g>
   <g id="line2d_50">
    <path style="fill:none;stroke:#ff00ff;stroke-linecap:square;stroke-width:1.5;"/>
    <g/>
   </g>
   <g id="line2d_51">
    <path clip-path="url(#p9ff31d8d23)" d="M 183.648996 247.697705 
" style="fill:none;stroke:#ff00ff;stroke-linecap:square;stroke-width:1.5;"/>
    <defs>
     <path d="M -12 12 
L 12 -12 
M -12 -12 
L 12 12 
" id="m4aef1461fd" style="stroke:#ff00ff;"/>
    </defs>
    <g clip-path="url(#p9ff31d8d23)">
     <use style="fill:#ff00ff;stroke:#ff00ff;" x="183.648996" xlink:href="#m4aef1461fd" y="247.697705"/>
    </g>
   </g>
   <g id="line2d_52">
    <path d="M 333.168 27.513663 
L 363.64328 289.532673 
" style="fill:none;stroke:#ff00ff;stroke-linecap:square;stroke-width:1.5;"/>
    <g>
     <use style="fill:none;stroke:#ff00ff;stroke-linejoin:miter;stroke-width:1.5;" x="333.168" xlink:href="#m54129a020f" y="27.513663"/>
     <use style="fill:none;stroke:#ff00ff;stroke-linejoin:miter;stroke-width:1.5;" x="363.64328" xlink:href="#m54129a020f" y="289.532673"/>
    </g>
   </g>
   <g id="line2d_53">
    <path d="M 333.168 27.513663 
L 363.64328 161.196832 
" style="fill:none;stroke:#000080;stroke-linecap:square;stroke-width:1.5;"/>
    <g>
     <use style="fill:none;stroke:#000080;stroke-width:1.5;" x="333.168" xlink:href="#m03288d533b" y="27.513663"/>
     <use style="fill:none;stroke:#000080;stroke-width:1.5;" x="363.64328" xlink:href="#m03288d533b" y="161.196832"/>
    </g>
   </g>
   <g id="line2d_54">
    <path d="M 333.168 294.88 
L 333.168 27.513663 
" style="fill:none;stroke:#000000;stroke-linecap:square;stroke-width:1.5;"/>
   </g>
   <g id="patch_3">
    <path d="M 56.12 294.88 
L 56.12 24.84 
" style="fill:none;stroke:#000000;stroke-linecap:square;stroke-linejoin:miter;stroke-width:0.8;"/>
   </g>
   <g id="patch_4">
    <path d="M 333.168 294.88 
L 333.168 24.84 
" style="fill:none;stroke:#000000;stroke-linecap:square;stroke-linejoin:miter;stroke-width:0.8;"/>
   </g>
   <g id="patch_5">
    <path d="M 56.12 294.88 
L 333.168 294.88 
" style="fill:none;stroke:#000000;stroke-linecap:square;stroke-linejoin:miter;stroke-width:0.8;"/>
   </g>
   <g id="patch_6">
    <path d="M 56.12 24.84 
L 333.168 24.84 
" style="fill:none;stroke:#000000;stroke-linecap:square;stroke-linejoin:miter;stroke-width:0.8;"/>
   </g>
   <g id="text_13">
    <!-- CMA ES CSA -->
    <defs>
     <path d="M 64.40625 67.28125 
L 64.40625 56.890625 
Q 59.421875 61.53125 53.78125 63.8125 
Q 48.140625 66.109375 41.796875 66.109375 
Q 29.296875 66.109375 22.65625 58.46875 
Q 16.015625 50.828125 16.015625 36.375 
Q 16.015625 21.96875 22.65625 14.328125 
Q 29.296875 6.6875 41.796875 6.6875 
Q 48.140625 6.6875 53.78125 8.984375 
Q 59.421875 11.28125 64.40625 15.921875 
L 64.40625 5.609375 
Q 59.234375 2.09375 53.4375 0.328125 
Q 47.65625 -1.421875 41.21875 -1.421875 
Q 24.65625 -1.421875 15.125 8.703125 
Q 5.609375 18.84375 5.609375 36.375 
Q 5.609375 53.953125 15.125 64.078125 
Q 24.65625 74.21875 41.21875 74.21875 
Q 47.75 74.21875 53.53125 72.484375 
Q 59.328125 70.75 64.40625 67.28125 
z
" id="DejaVuSans-43"/>
     <path d="M 9.8125 72.90625 
L 24.515625 72.90625 
L 43.109375 23.296875 
L 61.8125 72.90625 
L 76.515625 72.90625 
L 76.515625 0 
L 66.890625 0 
L 66.890625 64.015625 
L 48.09375 14.015625 
L 38.1875 14.015625 
L 19.390625 64.015625 
L 19.390625 0 
L 9.8125 0 
z
" id="DejaVuSans-4d"/>
     <path d="M 34.1875 63.1875 
L 20.796875 26.90625 
L 47.609375 26.90625 
z
M 28.609375 72.90625 
L 39.796875 72.90625 
L 67.578125 0 
L 57.328125 0 
L 50.6875 18.703125 
L 17.828125 18.703125 
L 11.1875 0 
L 0.78125 0 
z
" id="DejaVuSans-41"/>
     <path d="M 9.8125 72.90625 
L 55.90625 72.90625 
L 55.90625 64.59375 
L 19.671875 64.59375 
L 19.671875 43.015625 
L 54.390625 43.015625 
L 54.390625 34.71875 
L 19.671875 34.71875 
L 19.671875 8.296875 
L 56.78125 8.296875 
L 56.78125 0 
L 9.8125 0 
z
" id="DejaVuSans-45"/>
     <path d="M 53.515625 70.515625 
L 53.515625 60.890625 
Q 47.90625 63.578125 42.921875 64.890625 
Q 37.9375 66.21875 33.296875 66.21875 
Q 25.25 66.21875 20.875 63.09375 
Q 16.5 59.96875 16.5 54.203125 
Q 16.5 49.359375 19.40625 46.890625 
Q 22.3125 44.4375 30.421875 42.921875 
L 36.375 41.703125 
Q 47.40625 39.59375 52.65625 34.296875 
Q 57.90625 29 57.90625 20.125 
Q 57.90625 9.515625 50.796875 4.046875 
Q 43.703125 -1.421875 29.984375 -1.421875 
Q 24.8125 -1.421875 18.96875 -0.25 
Q 13.140625 0.921875 6.890625 3.21875 
L 6.890625 13.375 
Q 12.890625 10.015625 18.65625 8.296875 
Q 24.421875 6.59375 29.984375 6.59375 
Q 38.421875 6.59375 43.015625 9.90625 
Q 47.609375 13.234375 47.609375 19.390625 
Q 47.609375 24.75 44.3125 27.78125 
Q 41.015625 30.8125 33.5 32.328125 
L 27.484375 33.5 
Q 16.453125 35.6875 11.515625 40.375 
Q 6.59375 45.0625 6.59375 53.421875 
Q 6.59375 63.09375 13.40625 68.65625 
Q 20.21875 74.21875 32.171875 74.21875 
Q 37.3125 74.21875 42.625 73.28125 
Q 47.953125 72.359375 53.515625 70.515625 
z
" id="DejaVuSans-53"/>
    </defs>
    <g transform="translate(369.18424 294.223611)scale(0.17 -0.17)">
     <use xlink:href="#DejaVuSans-43"/>
     <use x="69.824219" xlink:href="#DejaVuSans-4d"/>
     <use x="156.103516" xlink:href="#DejaVuSans-41"/>
     <use x="224.511719" xlink:href="#DejaVuSans-20"/>
     <use x="256.298828" xlink:href="#DejaVuSans-45"/>
     <use x="319.482422" xlink:href="#DejaVuSans-53"/>
     <use x="382.958984" xlink:href="#DejaVuSans-20"/>
     <use x="414.746094" xlink:href="#DejaVuSans-43"/>
     <use x="484.570312" xlink:href="#DejaVuSans-53"/>
     <use x="548.0625" xlink:href="#DejaVuSans-41"/>
    </g>
   </g>
   <g id="text_14">
    <!-- CMA ES PPM -->
    <defs>
     <path d="M 19.671875 64.796875 
L 19.671875 37.40625 
L 32.078125 37.40625 
Q 38.96875 37.40625 42.71875 40.96875 
Q 46.484375 44.53125 46.484375 51.125 
Q 46.484375 57.671875 42.71875 61.234375 
Q 38.96875 64.796875 32.078125 64.796875 
z
M 9.8125 72.90625 
L 32.078125 72.90625 
Q 44.34375 72.90625 50.609375 67.359375 
Q 56.890625 61.8125 56.890625 51.125 
Q 56.890625 40.328125 50.609375 34.8125 
Q 44.34375 29.296875 32.078125 29.296875 
L 19.671875 29.296875 
L 19.671875 0 
L 9.8125 0 
z
" id="DejaVuSans-50"/>
    </defs>
    <g transform="translate(369.18424 165.887769)scale(0.17 -0.17)">
     <use xlink:href="#DejaVuSans-43"/>
     <use x="69.824219" xlink:href="#DejaVuSans-4d"/>
     <use x="156.103516" xlink:href="#DejaVuSans-41"/>
     <use x="224.511719" xlink:href="#DejaVuSans-20"/>
     <use x="256.298828" xlink:href="#DejaVuSans-45"/>
     <use x="319.482422" xlink:href="#DejaVuSans-53"/>
     <use x="382.958984" xlink:href="#DejaVuSans-20"/>
     <use x="414.746094" xlink:href="#DejaVuSans-50"/>
     <use x="475.048828" xlink:href="#DejaVuSans-50"/>
     <use x="535.351562" xlink:href="#DejaVuSans-4d"/>
    </g>
   </g>
   <g id="text_15">
    <!-- best 2009 -->
    <defs>
     <path d="M 48.6875 27.296875 
Q 48.6875 37.203125 44.609375 42.84375 
Q 40.53125 48.484375 33.40625 48.484375 
Q 26.265625 48.484375 22.1875 42.84375 
Q 18.109375 37.203125 18.109375 27.296875 
Q 18.109375 17.390625 22.1875 11.75 
Q 26.265625 6.109375 33.40625 6.109375 
Q 40.53125 6.109375 44.609375 11.75 
Q 48.6875 17.390625 48.6875 27.296875 
z
M 18.109375 46.390625 
Q 20.953125 51.265625 25.265625 53.625 
Q 29.59375 56 35.59375 56 
Q 45.5625 56 51.78125 48.09375 
Q 58.015625 40.1875 58.015625 27.296875 
Q 58.015625 14.40625 51.78125 6.484375 
Q 45.5625 -1.421875 35.59375 -1.421875 
Q 29.59375 -1.421875 25.265625 0.953125 
Q 20.953125 3.328125 18.109375 8.203125 
L 18.109375 0 
L 9.078125 0 
L 9.078125 75.984375 
L 18.109375 75.984375 
z
" id="DejaVuSans-62"/>
     <path d="M 10.984375 1.515625 
L 10.984375 10.5 
Q 14.703125 8.734375 18.5 7.8125 
Q 22.3125 6.890625 25.984375 6.890625 
Q 35.75 6.890625 40.890625 13.453125 
Q 46.046875 20.015625 46.78125 33.40625 
Q 43.953125 29.203125 39.59375 26.953125 
Q 35.25 24.703125 29.984375 24.703125 
Q 19.046875 24.703125 12.671875 31.3125 
Q 6.296875 37.9375 6.296875 49.421875 
Q 6.296875 60.640625 12.9375 67.421875 
Q 19.578125 74.21875 30.609375 74.21875 
Q 43.265625 74.21875 49.921875 64.515625 
Q 56.59375 54.828125 56.59375 36.375 
Q 56.59375 19.140625 48.40625 8.859375 
Q 40.234375 -1.421875 26.421875 -1.421875 
Q 22.703125 -1.421875 18.890625 -0.6875 
Q 15.09375 0.046875 10.984375 1.515625 
z
M 30.609375 32.421875 
Q 37.25 32.421875 41.125 36.953125 
Q 45.015625 41.5 45.015625 49.421875 
Q 45.015625 57.28125 41.125 61.84375 
Q 37.25 66.40625 30.609375 66.40625 
Q 23.96875 66.40625 20.09375 61.84375 
Q 16.21875 57.28125 16.21875 49.421875 
Q 16.21875 41.5 20.09375 36.953125 
Q 23.96875 32.421875 30.609375 32.421875 
z
" id="DejaVuSans-39"/>
    </defs>
    <g transform="translate(369.18424 37.551928)scale(0.17 -0.17)">
     <use xlink:href="#DejaVuSans-62"/>
     <use x="63.476562" xlink:href="#DejaVuSans-65"/>
     <use x="125" xlink:href="#DejaVuSans-73"/>
     <use x="177.099609" xlink:href="#DejaVuSans-74"/>
     <use x="216.308594" xlink:href="#DejaVuSans-20"/>
     <use x="248.095703" xlink:href="#DejaVuSans-32"/>
     <use x="311.71875" xlink:href="#DejaVuSans-30"/>
     <use x="375.341797" xlink:href="#DejaVuSans-30"/>
     <use x="438.964844" xlink:href="#DejaVuSans-39"/>
    </g>
   </g>
   <g id="text_16">
    <!-- bbob f21, 20-D -->
    <defs>
     <path d="M 19.671875 64.796875 
L 19.671875 8.109375 
L 31.59375 8.109375 
Q 46.6875 8.109375 53.6875 14.9375 
Q 60.6875 21.78125 60.6875 36.53125 
Q 60.6875 51.171875 53.6875 57.984375 
Q 46.6875 64.796875 31.59375 64.796875 
z
M 9.8125 72.90625 
L 30.078125 72.90625 
Q 51.265625 72.90625 61.171875 64.09375 
Q 71.09375 55.28125 71.09375 36.53125 
Q 71.09375 17.671875 61.125 8.828125 
Q 51.171875 0 30.078125 0 
L 9.8125 0 
z
" id="DejaVuSans-44"/>
    </defs>
    <g transform="translate(58.89048 35.290806)scale(0.102 -0.102)">
     <use xlink:href="#DejaVuSans-62"/>
     <use x="63.476562" xlink:href="#DejaVuSans-62"/>
     <use x="126.953125" xlink:href="#DejaVuSans-6f"/>
     <use x="188.134766" xlink:href="#DejaVuSans-62"/>
     <use x="251.611328" xlink:href="#DejaVuSans-20"/>
     <use x="283.398438" xlink:href="#DejaVuSans-66"/>
     <use x="318.603516" xlink:href="#DejaVuSans-32"/>
     <use x="382.226562" xlink:href="#DejaVuSans-31"/>
     <use x="445.849609" xlink:href="#DejaVuSans-2c"/>
     <use x="477.636719" xlink:href="#DejaVuSans-20"/>
     <use x="509.423828" xlink:href="#DejaVuSans-32"/>
     <use x="573.046875" xlink:href="#DejaVuSans-30"/>
     <use x="636.669922" xlink:href="#DejaVuSans-2d"/>
     <use x="672.753906" xlink:href="#DejaVuSans-44"/>
    </g>
    <!-- 51 targets: 100..1e-08 -->
    <defs>
     <path d="M 10.796875 72.90625 
L 49.515625 72.90625 
L 49.515625 64.59375 
L 19.828125 64.59375 
L 19.828125 46.734375 
Q 21.96875 47.46875 24.109375 47.828125 
Q 26.265625 48.1875 28.421875 48.1875 
Q 40.625 48.1875 47.75 41.5 
Q 54.890625 34.8125 54.890625 23.390625 
Q 54.890625 11.625 47.5625 5.09375 
Q 40.234375 -1.421875 26.90625 -1.421875 
Q 22.3125 -1.421875 17.546875 -0.640625 
Q 12.796875 0.140625 7.71875 1.703125 
L 7.71875 11.625 
Q 12.109375 9.234375 16.796875 8.0625 
Q 21.484375 6.890625 26.703125 6.890625 
Q 35.15625 6.890625 40.078125 11.328125 
Q 45.015625 15.765625 45.015625 23.390625 
Q 45.015625 31 40.078125 35.4375 
Q 35.15625 39.890625 26.703125 39.890625 
Q 22.75 39.890625 18.8125 39.015625 
Q 14.890625 38.140625 10.796875 36.28125 
z
" id="DejaVuSans-35"/>
     <path d="M 11.71875 12.40625 
L 22.015625 12.40625 
L 22.015625 0 
L 11.71875 0 
z
M 11.71875 51.703125 
L 22.015625 51.703125 
L 22.015625 39.3125 
L 11.71875 39.3125 
z
" id="DejaVuSans-3a"/>
    </defs>
    <g transform="translate(58.89048 46.712575)scale(0.102 -0.102)">
     <use xlink:href="#DejaVuSans-35"/>
     <use x="63.623047" xlink:href="#DejaVuSans-31"/>
     <use x="127.246094" xlink:href="#DejaVuSans-20"/>
     <use x="159.033203" xlink:href="#DejaVuSans-74"/>
     <use x="198.242188" xlink:href="#DejaVuSans-61"/>
     <use x="259.521484" xlink:href="#DejaVuSans-72"/>
     <use x="300.619141" xlink:href="#DejaVuSans-67"/>
     <use x="364.095703" xlink:href="#DejaVuSans-65"/>
     <use x="425.619141" xlink:href="#DejaVuSans-74"/>
     <use x="464.828125" xlink:href="#DejaVuSans-73"/>
     <use x="516.927734" xlink:href="#DejaVuSans-3a"/>
     <use x="550.619141" xlink:href="#DejaVuSans-20"/>
     <use x="582.40625" xlink:href="#DejaVuSans-31"/>
     <use x="646.029297" xlink:href="#DejaVuSans-30"/>
     <use x="709.652344" xlink:href="#DejaVuSans-30"/>
     <use x="773.275391" xlink:href="#DejaVuSans-2e"/>
     <use x="805.0625" xlink:href="#DejaVuSans-2e"/>
     <use x="836.849609" xlink:href="#DejaVuSans-31"/>
     <use x="900.472656" xlink:href="#DejaVuSans-65"/>
     <use x="961.996094" xlink:href="#DejaVuSans-2d"/>
     <use x="998.080078" xlink:href="#DejaVuSans-30"/>
     <use x="1061.703125" xlink:href="#DejaVuSans-38"/>
    </g>
    <!-- 15 instances -->
    <g transform="translate(58.89048 58.134344)scale(0.102 -0.102)">
     <use xlink:href="#DejaVuSans-31"/>
     <use x="63.623047" xlink:href="#DejaVuSans-35"/>
     <use x="127.246094" xlink:href="#DejaVuSans-20"/>
     <use x="159.033203" xlink:href="#DejaVuSans-69"/>
     <use x="186.816406" xlink:href="#DejaVuSans-6e"/>
     <use x="250.195312" xlink:href="#DejaVuSans-73"/>
     <use x="302.294922" xlink:href="#DejaVuSans-74"/>
     <use x="341.503906" xlink:href="#DejaVuSans-61"/>
     <use x="402.783203" xlink:href="#DejaVuSans-6e"/>
     <use x="466.162109" xlink:href="#DejaVuSans-63"/>
     <use x="521.142578" xlink:href="#DejaVuSans-65"/>
     <use x="582.666016" xlink:href="#DejaVuSans-73"/>
    </g>
   </g>
   <g id="text_17">
    <!-- v0.0.0 -->
    <g style="fill:#808080;" transform="translate(178.96275 290.099912)scale(0.1 -0.1)">
     <use xlink:href="#DejaVuSans-76"/>
     <use x="59.179688" xlink:href="#DejaVuSans-30"/>
     <use x="122.802734" xlink:href="#DejaVuSans-2e"/>
     <use x="154.589844" xlink:href="#DejaVuSans-30"/>
     <use x="218.212891" xlink:href="#DejaVuSans-2e"/>
     <use x="250" xlink:href="#DejaVuSans-30"/>
    </g>
   </g>
   <g id="text_18">
    <!-- 21 Gallagher 101 peaks -->
    <defs>
     <path d="M 59.515625 10.40625 
L 59.515625 29.984375 
L 43.40625 29.984375 
L 43.40625 38.09375 
L 69.28125 38.09375 
L 69.28125 6.78125 
Q 63.578125 2.734375 56.6875 0.65625 
Q 49.8125 -1.421875 42 -1.421875 
Q 24.90625 -1.421875 15.25 8.5625 
Q 5.609375 18.5625 5.609375 36.375 
Q 5.609375 54.25 15.25 64.234375 
Q 24.90625 74.21875 42 74.21875 
Q 49.125 74.21875 55.546875 72.453125 
Q 61.96875 70.703125 67.390625 67.28125 
L 67.390625 56.78125 
Q 61.921875 61.421875 55.765625 63.765625 
Q 49.609375 66.109375 42.828125 66.109375 
Q 29.4375 66.109375 22.71875 58.640625 
Q 16.015625 51.171875 16.015625 36.375 
Q 16.015625 21.625 22.71875 14.15625 
Q 29.4375 6.6875 42.828125 6.6875 
Q 48.046875 6.6875 52.140625 7.59375 
Q 56.25 8.5 59.515625 10.40625 
z
" id="DejaVuSans-47"/>
     <path d="M 54.890625 33.015625 
L 54.890625 0 
L 45.90625 0 
L 45.90625 32.71875 
Q 45.90625 40.484375 42.875 44.328125 
Q 39.84375 48.1875 33.796875 48.1875 
Q 26.515625 48.1875 22.3125 43.546875 
Q 18.109375 38.921875 18.109375 30.90625 
L 18.109375 0 
L 9.078125 0 
L 9.078125 75.984375 
L 18.109375 75.984375 
L 18.109375 46.1875 
Q 21.34375 51.125 25.703125 53.5625 
Q 30.078125 56 35.796875 56 
Q 45.21875 56 50.046875 50.171875 
Q 54.890625 44.34375 54.890625 33.015625 
z
" id="DejaVuSans-68"/>
     <path d="M 9.078125 75.984375 
L 18.109375 75.984375 
L 18.109375 31.109375 
L 44.921875 54.6875 
L 56.390625 54.6875 
L 27.390625 29.109375 
L 57.625 0 
L 45.90625 0 
L 18.109375 26.703125 
L 18.109375 0 
L 9.078125 0 
z
" id="DejaVuSans-6b"/>
    </defs>
    <g transform="translate(75.1565 18.84)scale(0.2 -0.2)">
     <use xlink:href="#DejaVuSans-32"/>
     <use x="63.623047" xlink:href="#DejaVuSans-31"/>
     <use x="127.246094" xlink:href="#DejaVuSans-20"/>
     <use x="159.033203" xlink:href="#DejaVuSans-47"/>
     <use x="236.523438" xlink:href="#DejaVuSans-61"/>
     <use x="297.802734" xlink:href="#DejaVuSans-6c"/>
     <use x="325.585938" xlink:href="#DejaVuSans-6c"/>
     <use x="353.369141" xlink:href="#DejaVuSans-61"/>
     <use x="414.648438" xlink:href="#DejaVuSans-67"/>
     <use x="478.125" xlink:href="#DejaVuSans-68"/>
     <use x="541.503906" xlink:href="#DejaVuSans-65"/>
     <use x="603.027344" xlink:href="#DejaVuSans-72"/>
     <use x="644.140625" xlink:href="#DejaVuSans-20"/>
     <use x="675.927734" xlink:href="#DejaVuSans-31"/>
     <use x="739.550781" xlink:href="#DejaVuSans-30"/>
     <use x="803.173828" xlink:href="#DejaVuSans-31"/>
     <use x="866.796875" xlink:href="#DejaVuSans-20"/>
     <use x="898.583984" xlink:href="#DejaVuSans-70"/>
     <use x="962.060547" xlink:href="#DejaVuSans-65"/>
     <use x="1023.583984" xlink:href="#DejaVuSans-61"/>
     <use x="1084.863281" xlink:href="#DejaVuSans-6b"/>
     <use x="1142.773438" xlink:href="#DejaVuSans-73"/>
    </g>
   </g>
  </g>
 </g>
 <defs>
  <clipPath id="p9ff31d8d23">
   <rect height="270.04" width="277.048" x="56.12" y="24.84"/>
  </clipPath>
 </defs>
</svg>
