<?xml version="1.0" encoding="utf-8" standalone="no"?>
<!DOCTYPE svg PUBLIC "-//W3C//DTD SVG 1.1//EN"
  "http://www.w3.org/Graphics/SVG/1.1/DTD/svg11.dtd">
<!-- Created with matplotlib (http://matplotlib.org/) -->
<svg height="345pt" version="1.1" viewBox="0 0 460 345" width="460pt" xmlns="http://www.w3.org/2000/svg" xmlns:xlink="http://www.w3.org/1999/xlink">
 <defs>
  <style type="text/css">
*{stroke-linecap:butt;stroke-linejoin:round;}
  </style>
 </defs>
 <g id="figure_1">
  <g id="patch_1">
   <path d="M 0 345.6 
L 460.8 345.6 
L 460.8 0 
L 0 0 
z
" style="fill:#ffffff;"/>
  </g>
  <g id="axes_1">
   <g id="patch_2">
    <path d="M 56.12 294.88 
L 333.168 294.88 
L 333.168 24.84 
L 56.12 24.84 
z
" style="fill:#ffffff;"/>
   </g>
   <g id="line2d_1">
    <path d="M 90.981092 294.88 
L 90.981092 289.637523 
L 103.723206 289.637523 
L 103.723206 284.395046 
L 105.896762 284.395046 
L 105.896762 279.152568 
L 108.286687 279.152568 
L 108.286687 273.910091 
L 122.133402 273.910091 
L 122.133402 268.667614 
L 128.533435 268.667614 
L 128.533435 263.425137 
L 138.960174 263.425137 
L 138.960174 258.18266 
L 142.636822 258.18266 
L 142.636822 252.940182 
L 144.643295 252.940182 
L 144.643295 247.697705 
L 146.904844 247.697705 
L 146.904844 242.455228 
L 148.329669 242.455228 
L 148.329669 237.212751 
L 156.829485 237.212751 
L 156.829485 231.970274 
L 157.549986 231.970274 
L 157.549986 226.727797 
L 160.879512 226.727797 
L 160.879512 221.485319 
L 161.550308 221.485319 
L 161.550308 216.242842 
L 162.064372 216.242842 
L 162.064372 211.000365 
L 162.840622 211.000365 
L 162.840622 205.757888 
L 163.869043 205.757888 
L 163.869043 200.515411 
L 168.375593 200.515411 
L 168.375593 195.272933 
L 171.323858 195.272933 
L 171.323858 190.030456 
L 171.572191 190.030456 
L 171.572191 184.787979 
L 171.573231 184.787979 
L 171.573231 74.695958 
L 171.641749 74.695958 
L 171.641749 69.453481 
L 171.716186 69.453481 
L 171.716186 64.211004 
L 171.857961 64.211004 
L 171.857961 58.968526 
L 172.030007 58.968526 
L 172.030007 53.726049 
L 172.084619 53.726049 
L 172.084619 48.483572 
L 172.150126 48.483572 
L 172.150126 43.241095 
L 172.349141 43.241095 
L 172.349141 37.998618 
L 172.637055 37.998618 
L 172.637055 32.756141 
L 172.873996 32.756141 
L 172.873996 27.513663 
L 333.168 27.513663 
" style="fill:none;stroke:#f5deb3;stroke-linecap:square;stroke-width:4;"/>
   </g>
   <g id="line2d_2">
    <defs>
     <path d="M -0 7.778175 
L 7.778175 0 
L 0 -7.778175 
L -7.778175 -0 
z
" id="m75c125cf35" style="stroke:#f5deb3;stroke-linejoin:miter;stroke-width:1.5;"/>
    </defs>
    <g>
     <use style="fill:#f5deb3;stroke:#f5deb3;stroke-linejoin:miter;stroke-width:1.5;" x="157.549986" xlink:href="#m75c125cf35" y="231.970274"/>
     <use style="fill:#f5deb3;stroke:#f5deb3;stroke-linejoin:miter;stroke-width:1.5;" x="171.573231" xlink:href="#m75c125cf35" y="184.787979"/>
     <use style="fill:#f5deb3;stroke:#f5deb3;stroke-linejoin:miter;stroke-width:1.5;" x="172.873996" xlink:href="#m75c125cf35" y="27.513663"/>
     <use style="fill:#f5deb3;stroke:#f5deb3;stroke-linejoin:miter;stroke-width:1.5;" x="172.873996" xlink:href="#m75c125cf35" y="27.513663"/>
     <use style="fill:#f5deb3;stroke:#f5deb3;stroke-linejoin:miter;stroke-width:1.5;" x="333.168" xlink:href="#m75c125cf35" y="27.513663"/>
    </g>
   </g>
   <g id="line2d_3">
    <path style="fill:none;stroke:#f5deb3;stroke-linecap:square;stroke-width:4;"/>
    <g/>
   </g>
   <g id="line2d_4">
    <path d="M 333.168 27.513663 
L 363.64328 32.86099 
" style="fill:none;stroke:#f5deb3;stroke-linecap:square;stroke-width:4;"/>
    <g>
     <use style="fill:#f5deb3;stroke:#f5deb3;stroke-linejoin:miter;stroke-width:1.5;" x="333.168" xlink:href="#m75c125cf35" y="27.513663"/>
     <use style="fill:#f5deb3;stroke:#f5deb3;stroke-linejoin:miter;stroke-width:1.5;" x="363.64328" xlink:href="#m75c125cf35" y="32.86099"/>
    </g>
   </g>
   <g id="matplotlib.axis_1">
    <g id="xtick_1">
     <g id="line2d_5">
      <path clip-path="url(#p700ea77c50)" d="M 56.12 294.88 
L 56.12 24.84 
" style="fill:none;stroke:#b0b0b0;stroke-linecap:square;stroke-width:0.8;"/>
     </g>
     <g id="line2d_6">
      <defs>
       <path d="M 0 0 
L 0 3.5 
" id="m89884f0a0b" style="stroke:#000000;stroke-width:0.8;"/>
      </defs>
      <g>
       <use style="stroke:#000000;stroke-width:0.8;" x="56.12" xlink:href="#m89884f0a0b" y="294.88"/>
      </g>
     </g>
     <g id="text_1">
      <!-- 0 -->
      <defs>
       <path d="M 31.78125 66.40625 
Q 24.171875 66.40625 20.328125 58.90625 
Q 16.5 51.421875 16.5 36.375 
Q 16.5 21.390625 20.328125 13.890625 
Q 24.171875 6.390625 31.78125 6.390625 
Q 39.453125 6.390625 43.28125 13.890625 
Q 47.125 21.390625 47.125 36.375 
Q 47.125 51.421875 43.28125 58.90625 
Q 39.453125 66.40625 31.78125 66.40625 
z
M 31.78125 74.21875 
Q 44.046875 74.21875 50.515625 64.515625 
Q 56.984375 54.828125 56.984375 36.375 
Q 56.984375 17.96875 50.515625 8.265625 
Q 44.046875 -1.421875 31.78125 -1.421875 
Q 19.53125 -1.421875 13.0625 8.265625 
Q 6.59375 17.96875 6.59375 36.375 
Q 6.59375 54.828125 13.0625 64.515625 
Q 19.53125 74.21875 31.78125 74.21875 
z
" id="DejaVuSans-30"/>
      </defs>
      <g transform="translate(49.7575 317.076875)scale(0.2 -0.2)">
       <use xlink:href="#DejaVuSans-30"/>
      </g>
     </g>
    </g>
    <g id="xtick_2">
     <g id="line2d_7">
      <path clip-path="url(#p700ea77c50)" d="M 135.276571 294.88 
L 135.276571 24.84 
" style="fill:none;stroke:#b0b0b0;stroke-linecap:square;stroke-width:0.8;"/>
     </g>
     <g id="line2d_8">
      <g>
       <use style="stroke:#000000;stroke-width:0.8;" x="135.276571" xlink:href="#m89884f0a0b" y="294.88"/>
      </g>
     </g>
     <g id="text_2">
      <!-- 2 -->
      <defs>
       <path d="M 19.1875 8.296875 
L 53.609375 8.296875 
L 53.609375 0 
L 7.328125 0 
L 7.328125 8.296875 
Q 12.9375 14.109375 22.625 23.890625 
Q 32.328125 33.6875 34.8125 36.53125 
Q 39.546875 41.84375 41.421875 45.53125 
Q 43.3125 49.21875 43.3125 52.78125 
Q 43.3125 58.59375 39.234375 62.25 
Q 35.15625 65.921875 28.609375 65.921875 
Q 23.96875 65.921875 18.8125 64.3125 
Q 13.671875 62.703125 7.8125 59.421875 
L 7.8125 69.390625 
Q 13.765625 71.78125 18.9375 73 
Q 24.125 74.21875 28.421875 74.21875 
Q 39.75 74.21875 46.484375 68.546875 
Q 53.21875 62.890625 53.21875 53.421875 
Q 53.21875 48.921875 51.53125 44.890625 
Q 49.859375 40.875 45.40625 35.40625 
Q 44.1875 33.984375 37.640625 27.21875 
Q 31.109375 20.453125 19.1875 8.296875 
z
" id="DejaVuSans-32"/>
      </defs>
      <g transform="translate(128.914071 317.076875)scale(0.2 -0.2)">
       <use xlink:href="#DejaVuSans-32"/>
      </g>
     </g>
    </g>
    <g id="xtick_3">
     <g id="line2d_9">
      <path clip-path="url(#p700ea77c50)" d="M 214.433143 294.88 
L 214.433143 24.84 
" style="fill:none;stroke:#b0b0b0;stroke-linecap:square;stroke-width:0.8;"/>
     </g>
     <g id="line2d_10">
      <g>
       <use style="stroke:#000000;stroke-width:0.8;" x="214.433143" xlink:href="#m89884f0a0b" y="294.88"/>
      </g>
     </g>
     <g id="text_3">
      <!-- 4 -->
      <defs>
       <path d="M 37.796875 64.3125 
L 12.890625 25.390625 
L 37.796875 25.390625 
z
M 35.203125 72.90625 
L 47.609375 72.90625 
L 47.609375 25.390625 
L 58.015625 25.390625 
L 58.015625 17.1875 
L 47.609375 17.1875 
L 47.609375 0 
L 37.796875 0 
L 37.796875 17.1875 
L 4.890625 17.1875 
L 4.890625 26.703125 
z
" id="DejaVuSans-34"/>
      </defs>
      <g transform="translate(208.070643 317.076875)scale(0.2 -0.2)">
       <use xlink:href="#DejaVuSans-34"/>
      </g>
     </g>
    </g>
    <g id="xtick_4">
     <g id="line2d_11">
      <path clip-path="url(#p700ea77c50)" d="M 293.589714 294.88 
L 293.589714 24.84 
" style="fill:none;stroke:#b0b0b0;stroke-linecap:square;stroke-width:0.8;"/>
     </g>
     <g id="line2d_12">
      <g>
       <use style="stroke:#000000;stroke-width:0.8;" x="293.589714" xlink:href="#m89884f0a0b" y="294.88"/>
      </g>
     </g>
     <g id="text_4">
      <!-- 6 -->
      <defs>
       <path d="M 33.015625 40.375 
Q 26.375 40.375 22.484375 35.828125 
Q 18.609375 31.296875 18.609375 23.390625 
Q 18.609375 15.53125 22.484375 10.953125 
Q 26.375 6.390625 33.015625 6.390625 
Q 39.65625 6.390625 43.53125 10.953125 
Q 47.40625 15.53125 47.40625 23.390625 
Q 47.40625 31.296875 43.53125 35.828125 
Q 39.65625 40.375 33.015625 40.375 
z
M 52.59375 71.296875 
L 52.59375 62.3125 
Q 48.875 64.0625 45.09375 64.984375 
Q 41.3125 65.921875 37.59375 65.921875 
Q 27.828125 65.921875 22.671875 59.328125 
Q 17.53125 52.734375 16.796875 39.40625 
Q 19.671875 43.65625 24.015625 45.921875 
Q 28.375 48.1875 33.59375 48.1875 
Q 44.578125 48.1875 50.953125 41.515625 
Q 57.328125 34.859375 57.328125 23.390625 
Q 57.328125 12.15625 50.6875 5.359375 
Q 44.046875 -1.421875 33.015625 -1.421875 
Q 20.359375 -1.421875 13.671875 8.265625 
Q 6.984375 17.96875 6.984375 36.375 
Q 6.984375 53.65625 15.1875 63.9375 
Q 23.390625 74.21875 37.203125 74.21875 
Q 40.921875 74.21875 44.703125 73.484375 
Q 48.484375 72.75 52.59375 71.296875 
z
" id="DejaVuSans-36"/>
      </defs>
      <g transform="translate(287.227214 317.076875)scale(0.2 -0.2)">
       <use xlink:href="#DejaVuSans-36"/>
      </g>
     </g>
    </g>
    <g id="xtick_5">
     <g id="line2d_13">
      <path clip-path="url(#p700ea77c50)" d="M 56.12 294.88 
L 56.12 24.84 
" style="fill:none;stroke:#b0b0b0;stroke-linecap:square;stroke-width:0.8;"/>
     </g>
     <g id="line2d_14">
      <defs>
       <path d="M 0 0 
L 0 2 
" id="m05085055ee" style="stroke:#000000;stroke-width:0.6;"/>
      </defs>
      <g>
       <use style="stroke:#000000;stroke-width:0.6;" x="56.12" xlink:href="#m05085055ee" y="294.88"/>
      </g>
     </g>
    </g>
    <g id="xtick_6">
     <g id="line2d_15">
      <path clip-path="url(#p700ea77c50)" d="M 95.698286 294.88 
L 95.698286 24.84 
" style="fill:none;stroke:#b0b0b0;stroke-linecap:square;stroke-width:0.8;"/>
     </g>
     <g id="line2d_16">
      <g>
       <use style="stroke:#000000;stroke-width:0.6;" x="95.698286" xlink:href="#m05085055ee" y="294.88"/>
      </g>
     </g>
    </g>
    <g id="xtick_7">
     <g id="line2d_17">
      <path clip-path="url(#p700ea77c50)" d="M 135.276571 294.88 
L 135.276571 24.84 
" style="fill:none;stroke:#b0b0b0;stroke-linecap:square;stroke-width:0.8;"/>
     </g>
     <g id="line2d_18">
      <g>
       <use style="stroke:#000000;stroke-width:0.6;" x="135.276571" xlink:href="#m05085055ee" y="294.88"/>
      </g>
     </g>
    </g>
    <g id="xtick_8">
     <g id="line2d_19">
      <path clip-path="url(#p700ea77c50)" d="M 174.854857 294.88 
L 174.854857 24.84 
" style="fill:none;stroke:#b0b0b0;stroke-linecap:square;stroke-width:0.8;"/>
     </g>
     <g id="line2d_20">
      <g>
       <use style="stroke:#000000;stroke-width:0.6;" x="174.854857" xlink:href="#m05085055ee" y="294.88"/>
      </g>
     </g>
    </g>
    <g id="xtick_9">
     <g id="line2d_21">
      <path clip-path="url(#p700ea77c50)" d="M 214.433143 294.88 
L 214.433143 24.84 
" style="fill:none;stroke:#b0b0b0;stroke-linecap:square;stroke-width:0.8;"/>
     </g>
     <g id="line2d_22">
      <g>
       <use style="stroke:#000000;stroke-width:0.6;" x="214.433143" xlink:href="#m05085055ee" y="294.88"/>
      </g>
     </g>
    </g>
    <g id="xtick_10">
     <g id="line2d_23">
      <path clip-path="url(#p700ea77c50)" d="M 254.011429 294.88 
L 254.011429 24.84 
" style="fill:none;stroke:#b0b0b0;stroke-linecap:square;stroke-width:0.8;"/>
     </g>
     <g id="line2d_24">
      <g>
       <use style="stroke:#000000;stroke-width:0.6;" x="254.011429" xlink:href="#m05085055ee" y="294.88"/>
      </g>
     </g>
    </g>
    <g id="xtick_11">
     <g id="line2d_25">
      <path clip-path="url(#p700ea77c50)" d="M 293.589714 294.88 
L 293.589714 24.84 
" style="fill:none;stroke:#b0b0b0;stroke-linecap:square;stroke-width:0.8;"/>
     </g>
     <g id="line2d_26">
      <g>
       <use style="stroke:#000000;stroke-width:0.6;" x="293.589714" xlink:href="#m05085055ee" y="294.88"/>
      </g>
     </g>
    </g>
    <g id="xtick_12">
     <g id="line2d_27">
      <path clip-path="url(#p700ea77c50)" d="M 333.168 294.88 
L 333.168 24.84 
" style="fill:none;stroke:#b0b0b0;stroke-linecap:square;stroke-width:0.8;"/>
     </g>
     <g id="line2d_28">
      <g>
       <use style="stroke:#000000;stroke-width:0.6;" x="333.168" xlink:href="#m05085055ee" y="294.88"/>
      </g>
     </g>
    </g>
    <g id="text_5">
     <!-- log10(# f-evals / dimension) -->
     <defs>
      <path d="M 9.421875 75.984375 
L 18.40625 75.984375 
L 18.40625 0 
L 9.421875 0 
z
" id="DejaVuSans-6c"/>
      <path d="M 30.609375 48.390625 
Q 23.390625 48.390625 19.1875 42.75 
Q 14.984375 37.109375 14.984375 27.296875 
Q 14.984375 17.484375 19.15625 11.84375 
Q 23.34375 6.203125 30.609375 6.203125 
Q 37.796875 6.203125 41.984375 11.859375 
Q 46.1875 17.53125 46.1875 27.296875 
Q 46.1875 37.015625 41.984375 42.703125 
Q 37.796875 48.390625 30.609375 48.390625 
z
M 30.609375 56 
Q 42.328125 56 49.015625 48.375 
Q 55.71875 40.765625 55.71875 27.296875 
Q 55.71875 13.875 49.015625 6.21875 
Q 42.328125 -1.421875 30.609375 -1.421875 
Q 18.84375 -1.421875 12.171875 6.21875 
Q 5.515625 13.875 5.515625 27.296875 
Q 5.515625 40.765625 12.171875 48.375 
Q 18.84375 56 30.609375 56 
z
" id="DejaVuSans-6f"/>
      <path d="M 45.40625 27.984375 
Q 45.40625 37.75 41.375 43.109375 
Q 37.359375 48.484375 30.078125 48.484375 
Q 22.859375 48.484375 18.828125 43.109375 
Q 14.796875 37.75 14.796875 27.984375 
Q 14.796875 18.265625 18.828125 12.890625 
Q 22.859375 7.515625 30.078125 7.515625 
Q 37.359375 7.515625 41.375 12.890625 
Q 45.40625 18.265625 45.40625 27.984375 
z
M 54.390625 6.78125 
Q 54.390625 -7.171875 48.1875 -13.984375 
Q 42 -20.796875 29.203125 -20.796875 
Q 24.46875 -20.796875 20.265625 -20.09375 
Q 16.0625 -19.390625 12.109375 -17.921875 
L 12.109375 -9.1875 
Q 16.0625 -11.328125 19.921875 -12.34375 
Q 23.78125 -13.375 27.78125 -13.375 
Q 36.625 -13.375 41.015625 -8.765625 
Q 45.40625 -4.15625 45.40625 5.171875 
L 45.40625 9.625 
Q 42.625 4.78125 38.28125 2.390625 
Q 33.9375 0 27.875 0 
Q 17.828125 0 11.671875 7.65625 
Q 5.515625 15.328125 5.515625 27.984375 
Q 5.515625 40.671875 11.671875 48.328125 
Q 17.828125 56 27.875 56 
Q 33.9375 56 38.28125 53.609375 
Q 42.625 51.21875 45.40625 46.390625 
L 45.40625 54.6875 
L 54.390625 54.6875 
z
" id="DejaVuSans-67"/>
      <path d="M 12.40625 8.296875 
L 28.515625 8.296875 
L 28.515625 63.921875 
L 10.984375 60.40625 
L 10.984375 69.390625 
L 28.421875 72.90625 
L 38.28125 72.90625 
L 38.28125 8.296875 
L 54.390625 8.296875 
L 54.390625 0 
L 12.40625 0 
z
" id="DejaVuSans-31"/>
      <path d="M 31 75.875 
Q 24.46875 64.65625 21.28125 53.65625 
Q 18.109375 42.671875 18.109375 31.390625 
Q 18.109375 20.125 21.3125 9.0625 
Q 24.515625 -2 31 -13.1875 
L 23.1875 -13.1875 
Q 15.875 -1.703125 12.234375 9.375 
Q 8.59375 20.453125 8.59375 31.390625 
Q 8.59375 42.28125 12.203125 53.3125 
Q 15.828125 64.359375 23.1875 75.875 
z
" id="DejaVuSans-28"/>
      <path d="M 51.125 44 
L 36.921875 44 
L 32.8125 27.6875 
L 47.125 27.6875 
z
M 43.796875 71.78125 
L 38.71875 51.515625 
L 52.984375 51.515625 
L 58.109375 71.78125 
L 65.921875 71.78125 
L 60.890625 51.515625 
L 76.125 51.515625 
L 76.125 44 
L 58.984375 44 
L 54.984375 27.6875 
L 70.515625 27.6875 
L 70.515625 20.21875 
L 53.078125 20.21875 
L 48 0 
L 40.1875 0 
L 45.21875 20.21875 
L 30.90625 20.21875 
L 25.875 0 
L 18.015625 0 
L 23.09375 20.21875 
L 7.71875 20.21875 
L 7.71875 27.6875 
L 24.90625 27.6875 
L 29 44 
L 13.28125 44 
L 13.28125 51.515625 
L 30.90625 51.515625 
L 35.890625 71.78125 
z
" id="DejaVuSans-23"/>
      <path id="DejaVuSans-20"/>
      <path d="M 37.109375 75.984375 
L 37.109375 68.5 
L 28.515625 68.5 
Q 23.6875 68.5 21.796875 66.546875 
Q 19.921875 64.59375 19.921875 59.515625 
L 19.921875 54.6875 
L 34.71875 54.6875 
L 34.71875 47.703125 
L 19.921875 47.703125 
L 19.921875 0 
L 10.890625 0 
L 10.890625 47.703125 
L 2.296875 47.703125 
L 2.296875 54.6875 
L 10.890625 54.6875 
L 10.890625 58.5 
Q 10.890625 67.625 15.140625 71.796875 
Q 19.390625 75.984375 28.609375 75.984375 
z
" id="DejaVuSans-66"/>
      <path d="M 4.890625 31.390625 
L 31.203125 31.390625 
L 31.203125 23.390625 
L 4.890625 23.390625 
z
" id="DejaVuSans-2d"/>
      <path d="M 56.203125 29.59375 
L 56.203125 25.203125 
L 14.890625 25.203125 
Q 15.484375 15.921875 20.484375 11.0625 
Q 25.484375 6.203125 34.421875 6.203125 
Q 39.59375 6.203125 44.453125 7.46875 
Q 49.3125 8.734375 54.109375 11.28125 
L 54.109375 2.78125 
Q 49.265625 0.734375 44.1875 -0.34375 
Q 39.109375 -1.421875 33.890625 -1.421875 
Q 20.796875 -1.421875 13.15625 6.1875 
Q 5.515625 13.8125 5.515625 26.8125 
Q 5.515625 40.234375 12.765625 48.109375 
Q 20.015625 56 32.328125 56 
Q 43.359375 56 49.78125 48.890625 
Q 56.203125 41.796875 56.203125 29.59375 
z
M 47.21875 32.234375 
Q 47.125 39.59375 43.09375 43.984375 
Q 39.0625 48.390625 32.421875 48.390625 
Q 24.90625 48.390625 20.390625 44.140625 
Q 15.875 39.890625 15.1875 32.171875 
z
" id="DejaVuSans-65"/>
      <path d="M 2.984375 54.6875 
L 12.5 54.6875 
L 29.59375 8.796875 
L 46.6875 54.6875 
L 56.203125 54.6875 
L 35.6875 0 
L 23.484375 0 
z
" id="DejaVuSans-76"/>
      <path d="M 34.28125 27.484375 
Q 23.390625 27.484375 19.1875 25 
Q 14.984375 22.515625 14.984375 16.5 
Q 14.984375 11.71875 18.140625 8.90625 
Q 21.296875 6.109375 26.703125 6.109375 
Q 34.1875 6.109375 38.703125 11.40625 
Q 43.21875 16.703125 43.21875 25.484375 
L 43.21875 27.484375 
z
M 52.203125 31.203125 
L 52.203125 0 
L 43.21875 0 
L 43.21875 8.296875 
Q 40.140625 3.328125 35.546875 0.953125 
Q 30.953125 -1.421875 24.3125 -1.421875 
Q 15.921875 -1.421875 10.953125 3.296875 
Q 6 8.015625 6 15.921875 
Q 6 25.140625 12.171875 29.828125 
Q 18.359375 34.515625 30.609375 34.515625 
L 43.21875 34.515625 
L 43.21875 35.40625 
Q 43.21875 41.609375 39.140625 45 
Q 35.0625 48.390625 27.6875 48.390625 
Q 23 48.390625 18.546875 47.265625 
Q 14.109375 46.140625 10.015625 43.890625 
L 10.015625 52.203125 
Q 14.9375 54.109375 19.578125 55.046875 
Q 24.21875 56 28.609375 56 
Q 40.484375 56 46.34375 49.84375 
Q 52.203125 43.703125 52.203125 31.203125 
z
" id="DejaVuSans-61"/>
      <path d="M 44.28125 53.078125 
L 44.28125 44.578125 
Q 40.484375 46.53125 36.375 47.5 
Q 32.28125 48.484375 27.875 48.484375 
Q 21.1875 48.484375 17.84375 46.4375 
Q 14.5 44.390625 14.5 40.28125 
Q 14.5 37.15625 16.890625 35.375 
Q 19.28125 33.59375 26.515625 31.984375 
L 29.59375 31.296875 
Q 39.15625 29.25 43.1875 25.515625 
Q 47.21875 21.78125 47.21875 15.09375 
Q 47.21875 7.46875 41.1875 3.015625 
Q 35.15625 -1.421875 24.609375 -1.421875 
Q 20.21875 -1.421875 15.453125 -0.5625 
Q 10.6875 0.296875 5.421875 2 
L 5.421875 11.28125 
Q 10.40625 8.6875 15.234375 7.390625 
Q 20.0625 6.109375 24.8125 6.109375 
Q 31.15625 6.109375 34.5625 8.28125 
Q 37.984375 10.453125 37.984375 14.40625 
Q 37.984375 18.0625 35.515625 20.015625 
Q 33.0625 21.96875 24.703125 23.78125 
L 21.578125 24.515625 
Q 13.234375 26.265625 9.515625 29.90625 
Q 5.8125 33.546875 5.8125 39.890625 
Q 5.8125 47.609375 11.28125 51.796875 
Q 16.75 56 26.8125 56 
Q 31.78125 56 36.171875 55.265625 
Q 40.578125 54.546875 44.28125 53.078125 
z
" id="DejaVuSans-73"/>
      <path d="M 25.390625 72.90625 
L 33.6875 72.90625 
L 8.296875 -9.28125 
L 0 -9.28125 
z
" id="DejaVuSans-2f"/>
      <path d="M 45.40625 46.390625 
L 45.40625 75.984375 
L 54.390625 75.984375 
L 54.390625 0 
L 45.40625 0 
L 45.40625 8.203125 
Q 42.578125 3.328125 38.25 0.953125 
Q 33.9375 -1.421875 27.875 -1.421875 
Q 17.96875 -1.421875 11.734375 6.484375 
Q 5.515625 14.40625 5.515625 27.296875 
Q 5.515625 40.1875 11.734375 48.09375 
Q 17.96875 56 27.875 56 
Q 33.9375 56 38.25 53.625 
Q 42.578125 51.265625 45.40625 46.390625 
z
M 14.796875 27.296875 
Q 14.796875 17.390625 18.875 11.75 
Q 22.953125 6.109375 30.078125 6.109375 
Q 37.203125 6.109375 41.296875 11.75 
Q 45.40625 17.390625 45.40625 27.296875 
Q 45.40625 37.203125 41.296875 42.84375 
Q 37.203125 48.484375 30.078125 48.484375 
Q 22.953125 48.484375 18.875 42.84375 
Q 14.796875 37.203125 14.796875 27.296875 
z
" id="DejaVuSans-64"/>
      <path d="M 9.421875 54.6875 
L 18.40625 54.6875 
L 18.40625 0 
L 9.421875 0 
z
M 9.421875 75.984375 
L 18.40625 75.984375 
L 18.40625 64.59375 
L 9.421875 64.59375 
z
" id="DejaVuSans-69"/>
      <path d="M 52 44.1875 
Q 55.375 50.25 60.0625 53.125 
Q 64.75 56 71.09375 56 
Q 79.640625 56 84.28125 50.015625 
Q 88.921875 44.046875 88.921875 33.015625 
L 88.921875 0 
L 79.890625 0 
L 79.890625 32.71875 
Q 79.890625 40.578125 77.09375 44.375 
Q 74.3125 48.1875 68.609375 48.1875 
Q 61.625 48.1875 57.5625 43.546875 
Q 53.515625 38.921875 53.515625 30.90625 
L 53.515625 0 
L 44.484375 0 
L 44.484375 32.71875 
Q 44.484375 40.625 41.703125 44.40625 
Q 38.921875 48.1875 33.109375 48.1875 
Q 26.21875 48.1875 22.15625 43.53125 
Q 18.109375 38.875 18.109375 30.90625 
L 18.109375 0 
L 9.078125 0 
L 9.078125 54.6875 
L 18.109375 54.6875 
L 18.109375 46.1875 
Q 21.1875 51.21875 25.484375 53.609375 
Q 29.78125 56 35.6875 56 
Q 41.65625 56 45.828125 52.96875 
Q 50 49.953125 52 44.1875 
z
" id="DejaVuSans-6d"/>
      <path d="M 54.890625 33.015625 
L 54.890625 0 
L 45.90625 0 
L 45.90625 32.71875 
Q 45.90625 40.484375 42.875 44.328125 
Q 39.84375 48.1875 33.796875 48.1875 
Q 26.515625 48.1875 22.3125 43.546875 
Q 18.109375 38.921875 18.109375 30.90625 
L 18.109375 0 
L 9.078125 0 
L 9.078125 54.6875 
L 18.109375 54.6875 
L 18.109375 46.1875 
Q 21.34375 51.125 25.703125 53.5625 
Q 30.078125 56 35.796875 56 
Q 45.21875 56 50.046875 50.171875 
Q 54.890625 44.34375 54.890625 33.015625 
z
" id="DejaVuSans-6e"/>
      <path d="M 8.015625 75.875 
L 15.828125 75.875 
Q 23.140625 64.359375 26.78125 53.3125 
Q 30.421875 42.28125 30.421875 31.390625 
Q 30.421875 20.453125 26.78125 9.375 
Q 23.140625 -1.703125 15.828125 -13.1875 
L 8.015625 -13.1875 
Q 14.5 -2 17.703125 9.0625 
Q 20.90625 20.125 20.90625 31.390625 
Q 20.90625 42.671875 17.703125 53.65625 
Q 14.5 64.65625 8.015625 75.875 
z
" id="DejaVuSans-29"/>
     </defs>
     <g transform="translate(73.803219 338.153594)scale(0.17 -0.17)">
      <use xlink:href="#DejaVuSans-6c"/>
      <use x="27.783203" xlink:href="#DejaVuSans-6f"/>
      <use x="88.964844" xlink:href="#DejaVuSans-67"/>
      <use x="152.441406" xlink:href="#DejaVuSans-31"/>
      <use x="216.064453" xlink:href="#DejaVuSans-30"/>
      <use x="279.6875" xlink:href="#DejaVuSans-28"/>
      <use x="318.701172" xlink:href="#DejaVuSans-23"/>
      <use x="402.490234" xlink:href="#DejaVuSans-20"/>
      <use x="434.277344" xlink:href="#DejaVuSans-66"/>
      <use x="469.404297" xlink:href="#DejaVuSans-2d"/>
      <use x="505.488281" xlink:href="#DejaVuSans-65"/>
      <use x="567.011719" xlink:href="#DejaVuSans-76"/>
      <use x="626.191406" xlink:href="#DejaVuSans-61"/>
      <use x="687.470703" xlink:href="#DejaVuSans-6c"/>
      <use x="715.253906" xlink:href="#DejaVuSans-73"/>
      <use x="767.353516" xlink:href="#DejaVuSans-20"/>
      <use x="799.140625" xlink:href="#DejaVuSans-2f"/>
      <use x="832.832031" xlink:href="#DejaVuSans-20"/>
      <use x="864.619141" xlink:href="#DejaVuSans-64"/>
      <use x="928.095703" xlink:href="#DejaVuSans-69"/>
      <use x="955.878906" xlink:href="#DejaVuSans-6d"/>
      <use x="1053.291016" xlink:href="#DejaVuSans-65"/>
      <use x="1114.814453" xlink:href="#DejaVuSans-6e"/>
      <use x="1178.193359" xlink:href="#DejaVuSans-73"/>
      <use x="1230.292969" xlink:href="#DejaVuSans-69"/>
      <use x="1258.076172" xlink:href="#DejaVuSans-6f"/>
      <use x="1319.257812" xlink:href="#DejaVuSans-6e"/>
      <use x="1382.636719" xlink:href="#DejaVuSans-29"/>
     </g>
    </g>
   </g>
   <g id="matplotlib.axis_2">
    <g id="ytick_1">
     <g id="line2d_29">
      <path clip-path="url(#p700ea77c50)" d="M 56.12 294.88 
L 333.168 294.88 
" style="fill:none;stroke:#b0b0b0;stroke-linecap:square;stroke-width:0.8;"/>
     </g>
     <g id="line2d_30">
      <defs>
       <path d="M 0 0 
L -3.5 0 
" id="m330000ab7e" style="stroke:#000000;stroke-width:0.8;"/>
      </defs>
      <g>
       <use style="stroke:#000000;stroke-width:0.8;" x="56.12" xlink:href="#m330000ab7e" y="294.88"/>
      </g>
     </g>
     <g id="text_6">
      <!-- 0.0 -->
      <defs>
       <path d="M 10.6875 12.40625 
L 21 12.40625 
L 21 0 
L 10.6875 0 
z
" id="DejaVuSans-2e"/>
      </defs>
      <g transform="translate(23.675 300.95875)scale(0.16 -0.16)">
       <use xlink:href="#DejaVuSans-30"/>
       <use x="63.623047" xlink:href="#DejaVuSans-2e"/>
       <use x="95.410156" xlink:href="#DejaVuSans-30"/>
      </g>
     </g>
    </g>
    <g id="ytick_2">
     <g id="line2d_31">
      <path clip-path="url(#p700ea77c50)" d="M 56.12 241.406733 
L 333.168 241.406733 
" style="fill:none;stroke:#b0b0b0;stroke-linecap:square;stroke-width:0.8;"/>
     </g>
     <g id="line2d_32">
      <g>
       <use style="stroke:#000000;stroke-width:0.8;" x="56.12" xlink:href="#m330000ab7e" y="241.406733"/>
      </g>
     </g>
     <g id="text_7">
      <!-- 0.2 -->
      <g transform="translate(23.675 247.485483)scale(0.16 -0.16)">
       <use xlink:href="#DejaVuSans-30"/>
       <use x="63.623047" xlink:href="#DejaVuSans-2e"/>
       <use x="95.410156" xlink:href="#DejaVuSans-32"/>
      </g>
     </g>
    </g>
    <g id="ytick_3">
     <g id="line2d_33">
      <path clip-path="url(#p700ea77c50)" d="M 56.12 187.933465 
L 333.168 187.933465 
" style="fill:none;stroke:#b0b0b0;stroke-linecap:square;stroke-width:0.8;"/>
     </g>
     <g id="line2d_34">
      <g>
       <use style="stroke:#000000;stroke-width:0.8;" x="56.12" xlink:href="#m330000ab7e" y="187.933465"/>
      </g>
     </g>
     <g id="text_8">
      <!-- 0.4 -->
      <g transform="translate(23.675 194.012215)scale(0.16 -0.16)">
       <use xlink:href="#DejaVuSans-30"/>
       <use x="63.623047" xlink:href="#DejaVuSans-2e"/>
       <use x="95.410156" xlink:href="#DejaVuSans-34"/>
      </g>
     </g>
    </g>
    <g id="ytick_4">
     <g id="line2d_35">
      <path clip-path="url(#p700ea77c50)" d="M 56.12 134.460198 
L 333.168 134.460198 
" style="fill:none;stroke:#b0b0b0;stroke-linecap:square;stroke-width:0.8;"/>
     </g>
     <g id="line2d_36">
      <g>
       <use style="stroke:#000000;stroke-width:0.8;" x="56.12" xlink:href="#m330000ab7e" y="134.460198"/>
      </g>
     </g>
     <g id="text_9">
      <!-- 0.6 -->
      <g transform="translate(23.675 140.538948)scale(0.16 -0.16)">
       <use xlink:href="#DejaVuSans-30"/>
       <use x="63.623047" xlink:href="#DejaVuSans-2e"/>
       <use x="95.410156" xlink:href="#DejaVuSans-36"/>
      </g>
     </g>
    </g>
    <g id="ytick_5">
     <g id="line2d_37">
      <path clip-path="url(#p700ea77c50)" d="M 56.12 80.986931 
L 333.168 80.986931 
" style="fill:none;stroke:#b0b0b0;stroke-linecap:square;stroke-width:0.8;"/>
     </g>
     <g id="line2d_38">
      <g>
       <use style="stroke:#000000;stroke-width:0.8;" x="56.12" xlink:href="#m330000ab7e" y="80.986931"/>
      </g>
     </g>
     <g id="text_10">
      <!-- 0.8 -->
      <defs>
       <path d="M 31.78125 34.625 
Q 24.75 34.625 20.71875 30.859375 
Q 16.703125 27.09375 16.703125 20.515625 
Q 16.703125 13.921875 20.71875 10.15625 
Q 24.75 6.390625 31.78125 6.390625 
Q 38.8125 6.390625 42.859375 10.171875 
Q 46.921875 13.96875 46.921875 20.515625 
Q 46.921875 27.09375 42.890625 30.859375 
Q 38.875 34.625 31.78125 34.625 
z
M 21.921875 38.8125 
Q 15.578125 40.375 12.03125 44.71875 
Q 8.5 49.078125 8.5 55.328125 
Q 8.5 64.0625 14.71875 69.140625 
Q 20.953125 74.21875 31.78125 74.21875 
Q 42.671875 74.21875 48.875 69.140625 
Q 55.078125 64.0625 55.078125 55.328125 
Q 55.078125 49.078125 51.53125 44.71875 
Q 48 40.375 41.703125 38.8125 
Q 48.828125 37.15625 52.796875 32.3125 
Q 56.78125 27.484375 56.78125 20.515625 
Q 56.78125 9.90625 50.3125 4.234375 
Q 43.84375 -1.421875 31.78125 -1.421875 
Q 19.734375 -1.421875 13.25 4.234375 
Q 6.78125 9.90625 6.78125 20.515625 
Q 6.78125 27.484375 10.78125 32.3125 
Q 14.796875 37.15625 21.921875 38.8125 
z
M 18.3125 54.390625 
Q 18.3125 48.734375 21.84375 45.5625 
Q 25.390625 42.390625 31.78125 42.390625 
Q 38.140625 42.390625 41.71875 45.5625 
Q 45.3125 48.734375 45.3125 54.390625 
Q 45.3125 60.0625 41.71875 63.234375 
Q 38.140625 66.40625 31.78125 66.40625 
Q 25.390625 66.40625 21.84375 63.234375 
Q 18.3125 60.0625 18.3125 54.390625 
z
" id="DejaVuSans-38"/>
      </defs>
      <g transform="translate(23.675 87.065681)scale(0.16 -0.16)">
       <use xlink:href="#DejaVuSans-30"/>
       <use x="63.623047" xlink:href="#DejaVuSans-2e"/>
       <use x="95.410156" xlink:href="#DejaVuSans-38"/>
      </g>
     </g>
    </g>
    <g id="ytick_6">
     <g id="line2d_39">
      <path clip-path="url(#p700ea77c50)" d="M 56.12 27.513663 
L 333.168 27.513663 
" style="fill:none;stroke:#b0b0b0;stroke-linecap:square;stroke-width:0.8;"/>
     </g>
     <g id="line2d_40">
      <g>
       <use style="stroke:#000000;stroke-width:0.8;" x="56.12" xlink:href="#m330000ab7e" y="27.513663"/>
      </g>
     </g>
     <g id="text_11">
      <!-- 1.0 -->
      <g transform="translate(23.675 33.592413)scale(0.16 -0.16)">
       <use xlink:href="#DejaVuSans-31"/>
       <use x="63.623047" xlink:href="#DejaVuSans-2e"/>
       <use x="95.410156" xlink:href="#DejaVuSans-30"/>
      </g>
     </g>
    </g>
    <g id="text_12">
     <!-- Fraction of function,target pairs -->
     <defs>
      <path d="M 9.8125 72.90625 
L 51.703125 72.90625 
L 51.703125 64.59375 
L 19.671875 64.59375 
L 19.671875 43.109375 
L 48.578125 43.109375 
L 48.578125 34.8125 
L 19.671875 34.8125 
L 19.671875 0 
L 9.8125 0 
z
" id="DejaVuSans-46"/>
      <path d="M 41.109375 46.296875 
Q 39.59375 47.171875 37.8125 47.578125 
Q 36.03125 48 33.890625 48 
Q 26.265625 48 22.1875 43.046875 
Q 18.109375 38.09375 18.109375 28.8125 
L 18.109375 0 
L 9.078125 0 
L 9.078125 54.6875 
L 18.109375 54.6875 
L 18.109375 46.1875 
Q 20.953125 51.171875 25.484375 53.578125 
Q 30.03125 56 36.53125 56 
Q 37.453125 56 38.578125 55.875 
Q 39.703125 55.765625 41.0625 55.515625 
z
" id="DejaVuSans-72"/>
      <path d="M 48.78125 52.59375 
L 48.78125 44.1875 
Q 44.96875 46.296875 41.140625 47.34375 
Q 37.3125 48.390625 33.40625 48.390625 
Q 24.65625 48.390625 19.8125 42.84375 
Q 14.984375 37.3125 14.984375 27.296875 
Q 14.984375 17.28125 19.8125 11.734375 
Q 24.65625 6.203125 33.40625 6.203125 
Q 37.3125 6.203125 41.140625 7.25 
Q 44.96875 8.296875 48.78125 10.40625 
L 48.78125 2.09375 
Q 45.015625 0.34375 40.984375 -0.53125 
Q 36.96875 -1.421875 32.421875 -1.421875 
Q 20.0625 -1.421875 12.78125 6.34375 
Q 5.515625 14.109375 5.515625 27.296875 
Q 5.515625 40.671875 12.859375 48.328125 
Q 20.21875 56 33.015625 56 
Q 37.15625 56 41.109375 55.140625 
Q 45.0625 54.296875 48.78125 52.59375 
z
" id="DejaVuSans-63"/>
      <path d="M 18.3125 70.21875 
L 18.3125 54.6875 
L 36.8125 54.6875 
L 36.8125 47.703125 
L 18.3125 47.703125 
L 18.3125 18.015625 
Q 18.3125 11.328125 20.140625 9.421875 
Q 21.96875 7.515625 27.59375 7.515625 
L 36.8125 7.515625 
L 36.8125 0 
L 27.59375 0 
Q 17.1875 0 13.234375 3.875 
Q 9.28125 7.765625 9.28125 18.015625 
L 9.28125 47.703125 
L 2.6875 47.703125 
L 2.6875 54.6875 
L 9.28125 54.6875 
L 9.28125 70.21875 
z
" id="DejaVuSans-74"/>
      <path d="M 8.5 21.578125 
L 8.5 54.6875 
L 17.484375 54.6875 
L 17.484375 21.921875 
Q 17.484375 14.15625 20.5 10.265625 
Q 23.53125 6.390625 29.59375 6.390625 
Q 36.859375 6.390625 41.078125 11.03125 
Q 45.3125 15.671875 45.3125 23.6875 
L 45.3125 54.6875 
L 54.296875 54.6875 
L 54.296875 0 
L 45.3125 0 
L 45.3125 8.40625 
Q 42.046875 3.421875 37.71875 1 
Q 33.40625 -1.421875 27.6875 -1.421875 
Q 18.265625 -1.421875 13.375 4.4375 
Q 8.5 10.296875 8.5 21.578125 
z
M 31.109375 56 
z
" id="DejaVuSans-75"/>
      <path d="M 11.71875 12.40625 
L 22.015625 12.40625 
L 22.015625 4 
L 14.015625 -11.625 
L 7.71875 -11.625 
L 11.71875 4 
z
" id="DejaVuSans-2c"/>
      <path d="M 18.109375 8.203125 
L 18.109375 -20.796875 
L 9.078125 -20.796875 
L 9.078125 54.6875 
L 18.109375 54.6875 
L 18.109375 46.390625 
Q 20.953125 51.265625 25.265625 53.625 
Q 29.59375 56 35.59375 56 
Q 45.5625 56 51.78125 48.09375 
Q 58.015625 40.1875 58.015625 27.296875 
Q 58.015625 14.40625 51.78125 6.484375 
Q 45.5625 -1.421875 35.59375 -1.421875 
Q 29.59375 -1.421875 25.265625 0.953125 
Q 20.953125 3.328125 18.109375 8.203125 
z
M 48.6875 27.296875 
Q 48.6875 37.203125 44.609375 42.84375 
Q 40.53125 48.484375 33.40625 48.484375 
Q 26.265625 48.484375 22.1875 42.84375 
Q 18.109375 37.203125 18.109375 27.296875 
Q 18.109375 17.390625 22.1875 11.75 
Q 26.265625 6.109375 33.40625 6.109375 
Q 40.53125 6.109375 44.609375 11.75 
Q 48.6875 17.390625 48.6875 27.296875 
z
" id="DejaVuSans-70"/>
     </defs>
     <g transform="translate(16.139531 294.999375)rotate(-90)scale(0.17 -0.17)">
      <use xlink:href="#DejaVuSans-46"/>
      <use x="57.410156" xlink:href="#DejaVuSans-72"/>
      <use x="98.523438" xlink:href="#DejaVuSans-61"/>
      <use x="159.802734" xlink:href="#DejaVuSans-63"/>
      <use x="214.783203" xlink:href="#DejaVuSans-74"/>
      <use x="253.992188" xlink:href="#DejaVuSans-69"/>
      <use x="281.775391" xlink:href="#DejaVuSans-6f"/>
      <use x="342.957031" xlink:href="#DejaVuSans-6e"/>
      <use x="406.335938" xlink:href="#DejaVuSans-20"/>
      <use x="438.123047" xlink:href="#DejaVuSans-6f"/>
      <use x="499.304688" xlink:href="#DejaVuSans-66"/>
      <use x="534.509766" xlink:href="#DejaVuSans-20"/>
      <use x="566.296875" xlink:href="#DejaVuSans-66"/>
      <use x="601.501953" xlink:href="#DejaVuSans-75"/>
      <use x="664.880859" xlink:href="#DejaVuSans-6e"/>
      <use x="728.259766" xlink:href="#DejaVuSans-63"/>
      <use x="783.240234" xlink:href="#DejaVuSans-74"/>
      <use x="822.449219" xlink:href="#DejaVuSans-69"/>
      <use x="850.232422" xlink:href="#DejaVuSans-6f"/>
      <use x="911.414062" xlink:href="#DejaVuSans-6e"/>
      <use x="974.792969" xlink:href="#DejaVuSans-2c"/>
      <use x="1006.580078" xlink:href="#DejaVuSans-74"/>
      <use x="1045.789062" xlink:href="#DejaVuSans-61"/>
      <use x="1107.068359" xlink:href="#DejaVuSans-72"/>
      <use x="1148.166016" xlink:href="#DejaVuSans-67"/>
      <use x="1211.642578" xlink:href="#DejaVuSans-65"/>
      <use x="1273.166016" xlink:href="#DejaVuSans-74"/>
      <use x="1312.375" xlink:href="#DejaVuSans-20"/>
      <use x="1344.162109" xlink:href="#DejaVuSans-70"/>
      <use x="1407.638672" xlink:href="#DejaVuSans-61"/>
      <use x="1468.917969" xlink:href="#DejaVuSans-69"/>
      <use x="1496.701172" xlink:href="#DejaVuSans-72"/>
      <use x="1537.814453" xlink:href="#DejaVuSans-73"/>
     </g>
    </g>
   </g>
   <g id="line2d_41">
    <defs>
     <path d="M 0 1.5 
C 0.397805 1.5 0.77937 1.341951 1.06066 1.06066 
C 1.341951 0.77937 1.5 0.397805 1.5 0 
C 1.5 -0.397805 1.341951 -0.77937 1.06066 -1.06066 
C 0.77937 -1.341951 0.397805 -1.5 0 -1.5 
C -0.397805 -1.5 -0.77937 -1.341951 -1.06066 -1.06066 
C -1.341951 -0.77937 -1.5 -0.397805 -1.5 0 
C -1.5 0.397805 -1.341951 0.77937 -1.06066 1.06066 
C -0.77937 1.341951 -0.397805 1.5 0 1.5 
z
" id="m76dc066202" style="stroke:#f5deb3;"/>
    </defs>
    <g>
     <use style="fill:#f5deb3;stroke:#f5deb3;" x="172.873996" xlink:href="#m76dc066202" y="27.513663"/>
     <use style="fill:#f5deb3;stroke:#f5deb3;" x="172.873996" xlink:href="#m76dc066202" y="27.513663"/>
    </g>
   </g>
   <g id="line2d_42">
    <defs>
     <path d="M 0 1.5 
C 0.397805 1.5 0.77937 1.341951 1.06066 1.06066 
C 1.341951 0.77937 1.5 0.397805 1.5 0 
C 1.5 -0.397805 1.341951 -0.77937 1.06066 -1.06066 
C 0.77937 -1.341951 0.397805 -1.5 0 -1.5 
C -0.397805 -1.5 -0.77937 -1.341951 -1.06066 -1.06066 
C -1.341951 -0.77937 -1.5 -0.397805 -1.5 0 
C -1.5 0.397805 -1.341951 0.77937 -1.06066 1.06066 
C -0.77937 1.341951 -0.397805 1.5 0 1.5 
z
" id="m03a30048ae" style="stroke:#000080;"/>
    </defs>
    <g>
     <use style="fill:#000080;stroke:#000080;" x="289.711136" xlink:href="#m03a30048ae" y="27.513663"/>
     <use style="fill:#000080;stroke:#000080;" x="289.711136" xlink:href="#m03a30048ae" y="27.513663"/>
    </g>
   </g>
   <g id="line2d_43">
    <path d="M 116.063204 294.88 
L 116.063204 294.355752 
L 117.715785 294.355752 
L 117.715785 292.258761 
L 119.526788 292.258761 
L 119.526788 291.210266 
L 121.16504 291.210266 
L 121.16504 289.637523 
L 121.778985 289.637523 
L 121.778985 289.113275 
L 122.55288 289.113275 
L 122.660646 287.540532 
L 123.736371 287.540532 
L 123.736371 287.016284 
L 124.036471 287.016284 
L 124.036471 285.967789 
L 124.233665 285.967789 
L 124.233665 285.443541 
L 125.310285 285.443541 
L 125.310285 282.822302 
L 125.674722 282.822302 
L 125.674722 282.298055 
L 126.510496 282.298055 
L 126.510496 281.773807 
L 127.197852 281.773807 
L 127.197852 281.249559 
L 127.605507 281.249559 
L 127.632343 279.676816 
L 128.264156 279.676816 
L 128.264156 279.152568 
L 128.760935 279.152568 
L 128.760935 278.628321 
L 129.52227 278.628321 
L 129.630036 277.055578 
L 129.677716 277.055578 
L 129.677716 276.53133 
L 130.274319 276.53133 
L 130.274319 276.007082 
L 130.559378 276.007082 
L 130.559378 275.482834 
L 131.170347 275.482834 
L 131.170347 274.958587 
L 131.441039 274.958587 
L 131.441039 273.910091 
L 131.980376 273.910091 
L 131.980376 273.385844 
L 132.279675 273.385844 
L 132.279675 272.861596 
L 133.059747 272.861596 
L 133.059747 272.337348 
L 133.843356 272.337348 
L 133.843356 271.8131 
L 134.349617 271.8131 
L 134.349617 271.288853 
L 134.619601 271.288853 
L 134.619601 270.764605 
L 134.920543 270.764605 
L 135.008061 269.716109 
L 135.524017 269.716109 
L 135.524017 269.191862 
L 136.156084 269.191862 
L 136.188716 268.143366 
L 137.588973 268.143366 
L 137.588973 267.619119 
L 138.974042 267.619119 
L 138.974042 267.094871 
L 139.194412 267.094871 
L 139.194412 266.570623 
L 139.438997 266.570623 
L 139.526471 265.522128 
L 139.553297 265.522128 
L 139.553297 264.99788 
L 140.048681 264.99788 
L 140.048681 264.473632 
L 141.041642 264.473632 
L 141.041642 263.949385 
L 142.015238 263.949385 
L 142.015238 263.425137 
L 142.223028 263.425137 
L 142.223028 262.900889 
L 143.779723 262.900889 
L 143.779723 262.376641 
L 145.013063 262.376641 
L 145.013063 261.852394 
L 146.952839 261.852394 
L 146.952839 261.328146 
L 147.302187 261.328146 
L 147.302187 260.803898 
L 147.438268 260.803898 
L 147.438268 260.279651 
L 147.864973 260.279651 
L 147.864973 259.755403 
L 148.155861 259.755403 
L 148.155861 259.231155 
L 149.907856 259.231155 
L 149.907856 258.706907 
L 151.084697 258.706907 
L 151.084697 258.18266 
L 151.231391 258.18266 
L 151.231391 257.658412 
L 171.873301 257.658412 
L 171.873301 257.134164 
L 172.678073 257.134164 
L 172.678073 256.609917 
L 174.203243 256.609917 
L 174.203243 256.085669 
L 176.424216 256.085669 
L 176.424216 255.561421 
L 177.329512 255.561421 
L 177.329512 255.037173 
L 177.757992 255.037173 
L 177.757992 254.512926 
L 179.622408 254.512926 
L 179.731473 253.46443 
L 179.783811 253.46443 
L 179.885447 252.415935 
L 180.589789 252.415935 
L 180.589789 251.891687 
L 180.734464 251.891687 
L 180.734464 251.367439 
L 181.395532 251.367439 
L 181.395532 250.843192 
L 182.152827 250.843192 
L 182.152827 250.318944 
L 182.731501 250.318944 
L 182.731501 249.794696 
L 183.285011 249.794696 
L 183.285011 249.270448 
L 186.769108 249.270448 
L 186.769108 248.746201 
L 188.03018 248.746201 
L 188.03018 248.221953 
L 189.640275 248.221953 
L 189.640275 247.697705 
L 192.533872 247.697705 
L 192.533872 247.173458 
L 197.362808 247.173458 
L 197.362808 246.64921 
L 197.69416 246.64921 
L 197.723947 245.600714 
L 198.20869 245.600714 
L 198.285163 237.212751 
L 199.124553 237.212751 
L 199.124553 236.688503 
L 199.264082 236.688503 
L 199.358543 235.640008 
L 203.057146 235.640008 
L 203.057146 235.11576 
L 210.431477 235.11576 
L 210.431477 234.591512 
L 212.516872 234.591512 
L 212.516872 234.067265 
L 214.613108 234.067265 
L 214.622801 233.018769 
L 216.311676 233.018769 
L 216.397215 231.970274 
L 217.567001 231.970274 
L 217.641324 228.824787 
L 219.31267 228.824787 
L 219.31267 228.30054 
L 219.839728 228.30054 
L 219.947943 226.727797 
L 220.082352 226.727797 
L 220.186595 215.718594 
L 220.391258 215.718594 
L 220.391258 215.194347 
L 221.256094 215.194347 
L 221.256094 214.670099 
L 221.58383 214.670099 
L 221.678194 213.097356 
L 222.993686 213.097356 
L 223.029739 212.04886 
L 224.462752 212.04886 
L 224.462752 211.000365 
L 225.637706 211.000365 
L 225.637706 210.476117 
L 226.456538 210.476117 
L 226.456538 209.95187 
L 227.303493 209.95187 
L 227.335979 207.854879 
L 227.613616 207.854879 
L 227.613616 207.330631 
L 227.997166 207.330631 
L 228.016947 206.282136 
L 229.214633 206.282136 
L 229.320288 204.709392 
L 229.403045 204.709392 
L 229.415523 197.369924 
L 230.095213 197.369924 
L 230.163802 196.321429 
L 230.291934 196.321429 
L 230.291934 195.797181 
L 231.963317 195.797181 
L 231.963317 195.272933 
L 232.083588 195.272933 
L 232.083588 194.748686 
L 234.261281 194.748686 
L 234.261281 194.224438 
L 234.454022 194.224438 
L 234.454022 193.70019 
L 234.651757 193.70019 
L 234.651757 193.175943 
L 234.802029 193.175943 
L 234.802029 192.651695 
L 235.12091 192.651695 
L 235.12091 192.127447 
L 235.280396 192.127447 
L 235.354703 190.554704 
L 235.412999 190.554704 
L 235.421797 182.690988 
L 236.044356 182.690988 
L 236.052836 179.545502 
L 237.293052 179.545502 
L 237.345141 176.924263 
L 238.465152 176.924263 
L 238.465152 176.400016 
L 238.928067 176.400016 
L 238.928067 175.35152 
L 239.783952 175.35152 
L 239.864076 171.157538 
L 240.272552 171.157538 
L 240.353422 169.584795 
L 240.659122 169.584795 
L 240.665606 168.5363 
L 240.869385 168.5363 
L 240.869385 168.012052 
L 241.29795 168.012052 
L 241.367926 165.390813 
L 241.816808 165.390813 
L 241.816808 164.866566 
L 242.486022 164.866566 
L 242.49946 163.81807 
L 242.756463 163.81807 
L 242.756463 163.293823 
L 243.350772 163.293823 
L 243.390851 159.099841 
L 243.785064 159.099841 
L 243.785064 158.575593 
L 244.054962 158.575593 
L 244.059486 157.527098 
L 244.214063 157.527098 
L 244.214063 157.00285 
L 244.593356 157.00285 
L 244.625494 155.954354 
L 244.997713 155.954354 
L 244.999964 154.905859 
L 245.362042 154.905859 
L 245.362042 154.381611 
L 245.55568 154.381611 
L 245.55873 153.333116 
L 246.280179 153.333116 
L 246.315745 151.760373 
L 246.599507 151.760373 
L 246.648868 149.663382 
L 246.980147 149.663382 
L 247.01272 148.090639 
L 247.362956 148.090639 
L 247.362956 147.042143 
L 248.168977 147.042143 
L 248.168977 146.517896 
L 248.654421 146.517896 
L 248.654421 145.993648 
L 248.766998 145.993648 
L 248.812322 142.848162 
L 249.10298 142.848162 
L 249.10298 139.702675 
L 249.390549 139.702675 
L 249.390549 139.178427 
L 249.682487 139.178427 
L 249.682487 138.65418 
L 250.856409 138.65418 
L 250.952285 137.605684 
L 250.992224 137.605684 
L 251.093959 135.508693 
L 251.481295 135.508693 
L 251.505673 133.93595 
L 251.684767 133.93595 
L 251.748118 132.887455 
L 252.04523 132.887455 
L 252.04523 131.314712 
L 252.287874 131.314712 
L 252.287874 130.790464 
L 252.527141 130.790464 
L 252.571261 128.693473 
L 252.880194 128.693473 
L 252.927941 125.547987 
L 253.137781 125.547987 
L 253.168804 123.450996 
L 253.310542 123.450996 
L 253.408493 122.4025 
L 253.441662 122.4025 
L 253.441662 121.878253 
L 253.65067 121.878253 
L 253.65067 121.354005 
L 254.344232 121.354005 
L 254.344232 120.829757 
L 254.556686 120.829757 
L 254.624418 119.257014 
L 254.878917 119.257014 
L 254.980562 118.208519 
L 255.010891 118.208519 
L 255.082101 117.160023 
L 255.215311 117.160023 
L 255.322032 115.58728 
L 255.723962 115.58728 
L 255.723962 115.063032 
L 255.965547 115.063032 
L 255.965547 114.538785 
L 256.146077 114.538785 
L 256.160789 112.966042 
L 256.437501 112.966042 
L 256.437501 112.441794 
L 256.634134 112.441794 
L 256.634134 111.917546 
L 256.845183 111.917546 
L 256.845183 110.869051 
L 257.029021 110.869051 
L 257.029021 109.820555 
L 257.423068 109.820555 
L 257.423068 109.296308 
L 257.600861 109.296308 
L 257.696197 107.723564 
L 257.719458 107.723564 
L 257.776833 106.675069 
L 257.843138 106.675069 
L 257.868818 105.626573 
L 257.982156 105.626573 
L 257.982156 105.102326 
L 258.178522 105.102326 
L 258.230568 103.005335 
L 258.5817 103.005335 
L 258.5817 102.481087 
L 259.028038 102.481087 
L 259.028038 101.956839 
L 259.190055 101.956839 
L 259.190055 101.432592 
L 259.511744 101.432592 
L 259.538016 98.811353 
L 260.033298 98.811353 
L 260.033298 97.762858 
L 260.197784 97.762858 
L 260.197784 97.23861 
L 260.566436 97.23861 
L 260.663359 96.190115 
L 260.88787 96.190115 
L 260.88787 95.665867 
L 261.033341 95.665867 
L 261.138685 94.093124 
L 261.421013 94.093124 
L 261.489829 92.520381 
L 261.6284 92.520381 
L 261.6284 91.996133 
L 261.853068 91.996133 
L 261.865562 90.42339 
L 262.139392 90.42339 
L 262.139392 89.899142 
L 262.432955 89.899142 
L 262.503157 88.326399 
L 262.637437 88.326399 
L 262.637437 87.802151 
L 263.455032 87.802151 
L 263.52954 86.229408 
L 263.727134 86.229408 
L 263.727134 85.70516 
L 263.915191 85.70516 
L 263.915191 85.180912 
L 264.037254 85.180912 
L 264.037254 84.656665 
L 264.41973 84.656665 
L 264.482283 83.083922 
L 264.677092 83.083922 
L 264.677092 82.559674 
L 264.834222 82.559674 
L 264.834222 82.035426 
L 265.495529 82.035426 
L 265.495529 81.511178 
L 265.615833 81.511178 
L 265.688812 79.938435 
L 265.788337 79.938435 
L 265.856015 78.88994 
L 265.94274 78.88994 
L 266.035938 76.792949 
L 266.073471 76.792949 
L 266.073471 76.268701 
L 266.307385 76.268701 
L 266.307385 75.744454 
L 266.538159 75.744454 
L 266.600454 73.647463 
L 266.972186 73.647463 
L 266.972186 73.123215 
L 267.247504 73.123215 
L 267.247504 72.598967 
L 267.386985 72.598967 
L 267.386985 72.074719 
L 267.664196 72.074719 
L 267.759781 70.501976 
L 267.865282 70.501976 
L 267.865282 69.977729 
L 268.008098 69.977729 
L 268.058883 68.929233 
L 268.259318 68.929233 
L 268.312374 66.832242 
L 268.473486 66.832242 
L 268.568472 65.259499 
L 269.007575 65.259499 
L 269.060902 64.211004 
L 269.148017 64.211004 
L 269.151469 63.162508 
L 269.555583 63.162508 
L 269.555583 62.114013 
L 269.705503 62.114013 
L 269.792745 60.54127 
L 270.152681 60.54127 
L 270.252929 59.492774 
L 270.476239 59.492774 
L 270.569671 57.920031 
L 270.894253 57.920031 
L 270.951334 56.871536 
L 271.032491 56.871536 
L 271.113266 55.298792 
L 271.194154 55.298792 
L 271.194154 54.774545 
L 271.61827 54.774545 
L 271.61827 54.250297 
L 271.737334 54.250297 
L 271.747612 53.201802 
L 272.502329 53.201802 
L 272.502329 52.677554 
L 272.810238 52.677554 
L 272.810238 52.153306 
L 273.112729 52.153306 
L 273.188147 51.104811 
L 273.46969 51.104811 
L 273.521972 50.056315 
L 273.880142 50.056315 
L 273.88108 49.00782 
L 274.164528 49.00782 
L 274.252429 47.435077 
L 274.421233 47.435077 
L 274.452661 46.386581 
L 274.665893 46.386581 
L 274.665893 45.338086 
L 274.908004 45.338086 
L 274.908004 44.813838 
L 275.272011 44.813838 
L 275.323824 43.765343 
L 275.431138 43.765343 
L 275.501588 42.192599 
L 276.270303 42.192599 
L 276.371885 40.619856 
L 276.490169 40.619856 
L 276.490169 40.095609 
L 276.645828 40.095609 
L 276.64896 39.047113 
L 277.03315 39.047113 
L 277.093214 37.998618 
L 277.802539 37.998618 
L 277.859646 36.950122 
L 277.913985 36.950122 
L 277.940379 35.901627 
L 278.164592 35.901627 
L 278.164592 35.377379 
L 278.398956 35.377379 
L 278.442162 34.328884 
L 278.963772 34.328884 
L 278.963772 33.804636 
L 279.335357 33.804636 
L 279.335357 33.280388 
L 279.807952 33.280388 
L 279.807952 32.756141 
L 280.227451 32.756141 
L 280.227451 32.231893 
L 280.604266 32.231893 
L 280.604266 31.707645 
L 281.64529 31.707645 
L 281.64529 31.183397 
L 283.959566 31.183397 
L 283.959566 30.65915 
L 285.385655 30.65915 
L 285.385655 30.134902 
L 285.877574 30.134902 
L 285.877574 29.610654 
L 286.385662 29.610654 
L 286.385662 29.086407 
L 286.756558 29.086407 
L 286.756558 28.562159 
L 289.411201 28.562159 
L 289.411201 28.037911 
L 289.711136 28.037911 
L 289.711136 27.513663 
L 333.168 27.513663 
L 333.168 27.513663 
" style="fill:none;stroke:#000080;stroke-linecap:square;stroke-width:1.5;"/>
   </g>
   <g id="line2d_44">
    <defs>
     <path d="M 0 6 
C 1.591219 6 3.117479 5.367802 4.242641 4.242641 
C 5.367802 3.117479 6 1.591219 6 0 
C 6 -1.591219 5.367802 -3.117479 4.242641 -4.242641 
C 3.117479 -5.367802 1.591219 -6 0 -6 
C -1.591219 -6 -3.117479 -5.367802 -4.242641 -4.242641 
C -5.367802 -3.117479 -6 -1.591219 -6 0 
C -6 1.591219 -5.367802 3.117479 -4.242641 4.242641 
C -3.117479 5.367802 -1.591219 6 0 6 
z
" id="mc4c54cf636" style="stroke:#000080;stroke-width:1.5;"/>
    </defs>
    <g>
     <use style="fill:none;stroke:#000080;stroke-width:1.5;" x="214.613108" xlink:href="#mc4c54cf636" y="233.543017"/>
     <use style="fill:none;stroke:#000080;stroke-width:1.5;" x="248.785331" xlink:href="#mc4c54cf636" y="145.4694"/>
     <use style="fill:none;stroke:#000080;stroke-width:1.5;" x="289.711136" xlink:href="#mc4c54cf636" y="28.037911"/>
     <use style="fill:none;stroke:#000080;stroke-width:1.5;" x="289.711136" xlink:href="#mc4c54cf636" y="27.513663"/>
     <use style="fill:none;stroke:#000080;stroke-width:1.5;" x="333.168" xlink:href="#mc4c54cf636" y="27.513663"/>
    </g>
   </g>
   <g id="line2d_45">
    <path style="fill:none;stroke:#000080;stroke-linecap:square;stroke-width:1.5;"/>
    <g/>
   </g>
   <g id="line2d_46">
    <path clip-path="url(#p700ea77c50)" d="M 214.433143 234.067265 
" style="fill:none;stroke:#000080;stroke-linecap:square;stroke-width:1.5;"/>
    <defs>
     <path d="M -12 12 
L 12 -12 
M -12 -12 
L 12 12 
" id="m6f50701f50" style="stroke:#000080;"/>
    </defs>
    <g clip-path="url(#p700ea77c50)">
     <use style="fill:#000080;stroke:#000080;" x="214.433143" xlink:href="#m6f50701f50" y="234.067265"/>
    </g>
   </g>
   <g id="line2d_47">
    <defs>
     <path d="M 0 1.5 
C 0.397805 1.5 0.77937 1.341951 1.06066 1.06066 
C 1.341951 0.77937 1.5 0.397805 1.5 0 
C 1.5 -0.397805 1.341951 -0.77937 1.06066 -1.06066 
C 0.77937 -1.341951 0.397805 -1.5 0 -1.5 
C -0.397805 -1.5 -0.77937 -1.341951 -1.06066 -1.06066 
C -1.341951 -0.77937 -1.5 -0.397805 -1.5 0 
C -1.5 0.397805 -1.341951 0.77937 -1.06066 1.06066 
C -0.77937 1.341951 -0.397805 1.5 0 1.5 
z
" id="me05925d740" style="stroke:#ff00ff;"/>
    </defs>
    <g>
     <use style="fill:#ff00ff;stroke:#ff00ff;" x="255.973377" xlink:href="#me05925d740" y="27.513663"/>
     <use style="fill:#ff00ff;stroke:#ff00ff;" x="255.973377" xlink:href="#me05925d740" y="27.513663"/>
    </g>
   </g>
   <g id="line2d_48">
    <path d="M 115.771639 294.88 
L 115.771639 294.355752 
L 118.046801 294.355752 
L 118.046801 293.831505 
L 124.363883 293.831505 
L 124.363883 293.307257 
L 125.340952 293.307257 
L 125.340952 292.783009 
L 126.207287 292.783009 
L 126.207287 292.258761 
L 126.723846 292.258761 
L 126.723846 291.734514 
L 127.087492 291.734514 
L 127.087492 291.210266 
L 127.362076 291.210266 
L 127.362076 290.686018 
L 128.533435 290.686018 
L 128.533435 290.161771 
L 128.685436 290.161771 
L 128.723227 288.06478 
L 128.873566 288.06478 
L 128.873566 287.540532 
L 129.914152 287.540532 
L 129.937618 286.492036 
L 130.14738 286.492036 
L 130.158959 285.443541 
L 130.627094 285.443541 
L 130.683321 284.395046 
L 132.483094 284.395046 
L 132.483094 283.870798 
L 132.773838 283.870798 
L 132.773838 283.34655 
L 134.047653 283.34655 
L 134.047653 282.822302 
L 134.358685 282.822302 
L 134.358685 282.298055 
L 134.548019 282.298055 
L 134.63745 281.249559 
L 134.981852 281.249559 
L 135.06906 280.201064 
L 135.129844 280.201064 
L 135.129844 279.676816 
L 135.267975 279.676816 
L 135.267975 279.152568 
L 135.633795 279.152568 
L 135.633795 278.628321 
L 136.718379 278.628321 
L 136.789358 277.055578 
L 137.44564 277.055578 
L 137.44564 276.53133 
L 137.923755 276.53133 
L 137.967904 275.482834 
L 138.179706 275.482834 
L 138.179706 274.958587 
L 138.381758 274.958587 
L 138.381758 274.434339 
L 138.560176 274.434339 
L 138.560176 273.910091 
L 139.255885 273.910091 
L 139.262702 272.861596 
L 140.074705 272.861596 
L 140.165478 271.8131 
L 140.887317 271.8131 
L 140.887317 271.288853 
L 141.32203 271.288853 
L 141.406466 270.240357 
L 141.66324 270.240357 
L 141.66324 269.716109 
L 141.980361 269.716109 
L 141.980361 269.191862 
L 142.848343 269.191862 
L 142.848343 268.667614 
L 143.36603 268.667614 
L 143.36603 268.143366 
L 144.193927 268.143366 
L 144.265397 266.046375 
L 144.698028 266.046375 
L 144.698028 265.522128 
L 145.465549 265.522128 
L 145.465549 264.99788 
L 145.602774 264.99788 
L 145.602774 263.949385 
L 145.808909 263.949385 
L 145.808909 263.425137 
L 145.957288 263.425137 
L 145.957288 262.900889 
L 146.417379 262.900889 
L 146.493624 261.852394 
L 146.569532 261.852394 
L 146.569532 261.328146 
L 147.417076 261.328146 
L 147.417076 260.803898 
L 147.585883 260.803898 
L 147.585883 260.279651 
L 148.409915 260.279651 
L 148.409915 259.755403 
L 148.537534 259.755403 
L 148.58911 258.706907 
L 149.242069 258.706907 
L 149.242069 258.18266 
L 149.619276 258.18266 
L 149.619276 257.658412 
L 149.760472 257.658412 
L 149.852735 256.085669 
L 149.992034 256.085669 
L 150.013925 255.037173 
L 150.342576 255.037173 
L 150.342576 254.512926 
L 150.811883 254.512926 
L 150.811883 253.988678 
L 151.227993 253.988678 
L 151.227993 253.46443 
L 151.517734 253.46443 
L 151.620989 252.415935 
L 151.660793 252.415935 
L 151.667418 251.367439 
L 152.358756 251.367439 
L 152.358756 250.843192 
L 152.542289 250.843192 
L 152.542289 250.318944 
L 152.670856 250.318944 
L 152.773642 249.270448 
L 152.869642 249.270448 
L 152.869642 248.746201 
L 153.242327 248.746201 
L 153.30567 247.697705 
L 153.624843 247.697705 
L 153.624843 246.64921 
L 153.9585 246.64921 
L 154.025038 245.600714 
L 154.188837 245.600714 
L 154.188837 245.076467 
L 154.657159 245.076467 
L 154.74599 243.503724 
L 155.194176 243.503724 
L 155.194176 242.979476 
L 155.575658 242.979476 
L 155.612555 241.93098 
L 155.782831 241.93098 
L 155.782831 241.406733 
L 156.182195 241.406733 
L 156.182195 240.882485 
L 156.33433 240.882485 
L 156.33433 240.358237 
L 156.94925 240.358237 
L 156.971157 238.785494 
L 157.398793 238.785494 
L 157.398793 238.261246 
L 157.725489 238.261246 
L 157.725489 237.736999 
L 157.862303 237.736999 
L 157.889997 236.688503 
L 158.394445 236.688503 
L 158.394445 227.776292 
L 158.685314 227.776292 
L 158.685314 226.727797 
L 158.977838 226.727797 
L 159.042652 215.194347 
L 159.396937 215.194347 
L 159.424376 213.097356 
L 159.68185 213.097356 
L 159.68185 212.573108 
L 159.925284 212.573108 
L 159.925284 212.04886 
L 160.199625 212.04886 
L 160.217759 211.000365 
L 160.564654 211.000365 
L 160.564654 210.476117 
L 160.979986 210.476117 
L 161.054957 209.427622 
L 161.129603 209.427622 
L 161.129603 208.903374 
L 161.820273 208.903374 
L 161.820273 198.41842 
L 162.098704 198.41842 
L 162.098704 188.981961 
L 162.708721 188.981961 
L 162.708721 188.457713 
L 162.825055 188.457713 
L 162.825055 181.118245 
L 163.0588 181.118245 
L 163.166011 180.06975 
L 163.319701 180.06975 
L 163.408583 176.400016 
L 163.49368 176.400016 
L 163.49368 175.35152 
L 163.950275 175.35152 
L 163.950275 174.303025 
L 174.3888 174.303025 
L 174.3888 173.778777 
L 177.049662 173.778777 
L 177.049662 173.254529 
L 177.326535 173.254529 
L 177.326535 172.730281 
L 177.440041 172.730281 
L 177.440041 165.390813 
L 177.562349 165.390813 
L 177.562349 164.866566 
L 177.715112 164.866566 
L 177.715112 164.342318 
L 179.993498 164.342318 
L 179.993498 163.81807 
L 183.734827 163.81807 
L 183.734827 163.293823 
L 183.885915 163.293823 
L 183.885915 162.769575 
L 184.030647 162.769575 
L 184.030647 162.245327 
L 184.177669 162.245327 
L 184.177669 161.721079 
L 184.417809 161.721079 
L 184.417809 161.196832 
L 184.573293 161.196832 
L 184.670671 159.099841 
L 184.92178 159.099841 
L 184.92178 158.575593 
L 185.325614 158.575593 
L 185.325614 158.051345 
L 185.710126 158.051345 
L 185.710126 157.527098 
L 186.143362 157.527098 
L 186.143362 157.00285 
L 186.266807 157.00285 
L 186.329081 154.905859 
L 186.388055 154.905859 
L 186.455144 153.333116 
L 186.555507 153.333116 
L 186.570728 152.28462 
L 186.709705 152.28462 
L 186.817598 151.236125 
L 187.10991 151.236125 
L 187.180539 149.139134 
L 187.229975 149.139134 
L 187.298448 144.945152 
L 187.535154 144.945152 
L 187.535154 144.420905 
L 187.721955 144.420905 
L 187.721955 143.896657 
L 187.871319 143.896657 
L 187.932871 141.275418 
L 192.269748 141.275418 
L 192.269748 139.702675 
L 192.713302 139.702675 
L 192.713302 139.178427 
L 195.607244 139.178427 
L 195.607244 138.65418 
L 195.941874 138.65418 
L 196.042885 137.605684 
L 196.402374 137.605684 
L 196.402374 137.081437 
L 196.585893 137.081437 
L 196.585893 136.557189 
L 197.064413 136.557189 
L 197.064413 136.032941 
L 200.346204 136.032941 
L 200.419192 134.984446 
L 202.726645 134.984446 
L 202.726645 134.460198 
L 214.863276 134.460198 
L 214.925858 132.363207 
L 214.983554 132.363207 
L 215.091337 125.547987 
L 215.097953 125.547987 
L 215.165784 120.30551 
L 215.220053 120.30551 
L 215.298523 103.529583 
L 216.029544 103.529583 
L 216.029544 103.005335 
L 216.323152 103.005335 
L 216.352001 98.287105 
L 217.3983 98.287105 
L 217.502135 95.665867 
L 217.530293 95.665867 
L 217.606275 92.520381 
L 217.64717 92.520381 
L 217.755681 86.229408 
L 217.766516 86.229408 
L 217.843014 85.180912 
L 218.640101 85.180912 
L 218.72273 82.559674 
L 219.574269 82.559674 
L 219.670733 81.511178 
L 219.784546 81.511178 
L 219.80493 80.462683 
L 223.489744 80.462683 
L 223.489744 79.938435 
L 226.63499 79.938435 
L 226.745352 73.647463 
L 226.751775 73.647463 
L 226.783393 70.501976 
L 227.164121 70.501976 
L 227.164121 69.977729 
L 227.970873 69.977729 
L 228.080895 62.638261 
L 228.110706 62.638261 
L 228.110706 62.114013 
L 228.565103 62.114013 
L 228.565103 61.589765 
L 229.138745 61.589765 
L 229.242288 58.968526 
L 229.718599 58.968526 
L 229.718599 58.444279 
L 230.301735 58.444279 
L 230.411826 57.395783 
L 231.5311 57.395783 
L 231.5311 56.871536 
L 233.406304 56.871536 
L 233.509048 55.82304 
L 233.528669 55.82304 
L 233.599012 53.201802 
L 233.970152 53.201802 
L 233.970152 52.677554 
L 234.406657 52.677554 
L 234.497111 49.532068 
L 234.812878 49.532068 
L 234.816265 48.483572 
L 235.235975 48.483572 
L 235.336551 45.862334 
L 235.636347 45.862334 
L 235.636347 45.338086 
L 236.033598 45.338086 
L 236.033598 44.813838 
L 236.156142 44.813838 
L 236.156142 44.28959 
L 236.83394 44.28959 
L 236.83394 43.765343 
L 238.406854 43.765343 
L 238.435868 41.668352 
L 238.753985 41.668352 
L 238.761813 40.619856 
L 239.115049 40.619856 
L 239.154402 37.47437 
L 239.759098 37.47437 
L 239.759098 36.950122 
L 240.369927 36.950122 
L 240.433914 35.901627 
L 240.955843 35.901627 
L 240.955843 35.377379 
L 242.260073 35.377379 
L 242.272005 34.328884 
L 242.800606 34.328884 
L 242.817576 32.756141 
L 243.042314 32.756141 
L 243.042314 32.231893 
L 243.334545 32.231893 
L 243.334545 31.707645 
L 243.552668 31.707645 
L 243.552668 31.183397 
L 244.365183 31.183397 
L 244.365183 30.65915 
L 245.999218 30.65915 
L 245.999218 30.134902 
L 246.266199 30.134902 
L 246.266199 29.610654 
L 248.364774 29.610654 
L 248.364774 29.086407 
L 250.583645 29.086407 
L 250.583645 28.562159 
L 254.899725 28.562159 
L 254.899725 28.037911 
L 255.973377 28.037911 
L 255.973377 27.513663 
L 333.168 27.513663 
L 333.168 27.513663 
" style="fill:none;stroke:#ff00ff;stroke-linecap:square;stroke-width:1.5;"/>
   </g>
   <g id="line2d_49">
    <defs>
     <path d="M -0 8.485281 
L 5.091169 0 
L 0 -8.485281 
L -5.091169 -0 
z
" id="m400613821a" style="stroke:#ff00ff;stroke-linejoin:miter;stroke-width:1.5;"/>
    </defs>
    <g>
     <use style="fill:none;stroke:#ff00ff;stroke-linejoin:miter;stroke-width:1.5;" x="161.129603" xlink:href="#m400613821a" y="208.903374"/>
     <use style="fill:none;stroke:#ff00ff;stroke-linejoin:miter;stroke-width:1.5;" x="227.164121" xlink:href="#m400613821a" y="70.501976"/>
     <use style="fill:none;stroke:#ff00ff;stroke-linejoin:miter;stroke-width:1.5;" x="255.973377" xlink:href="#m400613821a" y="28.037911"/>
     <use style="fill:none;stroke:#ff00ff;stroke-linejoin:miter;stroke-width:1.5;" x="255.973377" xlink:href="#m400613821a" y="27.513663"/>
     <use style="fill:none;stroke:#ff00ff;stroke-linejoin:miter;stroke-width:1.5;" x="333.168" xlink:href="#m400613821a" y="27.513663"/>
    </g>
   </g>
   <g id="line2d_50">
    <path style="fill:none;stroke:#ff00ff;stroke-linecap:square;stroke-width:1.5;"/>
    <g/>
   </g>
   <g id="line2d_51">
    <path clip-path="url(#p700ea77c50)" d="M 214.433143 134.460198 
" style="fill:none;stroke:#ff00ff;stroke-linecap:square;stroke-width:1.5;"/>
    <defs>
     <path d="M -12 12 
L 12 -12 
M -12 -12 
L 12 12 
" id="m74b7ac8df0" style="stroke:#ff00ff;"/>
    </defs>
    <g clip-path="url(#p700ea77c50)">
     <use style="fill:#ff00ff;stroke:#ff00ff;" x="214.433143" xlink:href="#m74b7ac8df0" y="134.460198"/>
    </g>
   </g>
   <g id="line2d_52">
    <path d="M 333.168 27.513663 
L 363.64328 289.532673 
" style="fill:none;stroke:#000080;stroke-linecap:square;stroke-width:1.5;"/>
    <g>
     <use style="fill:none;stroke:#000080;stroke-width:1.5;" x="333.168" xlink:href="#mc4c54cf636" y="27.513663"/>
     <use style="fill:none;stroke:#000080;stroke-width:1.5;" x="363.64328" xlink:href="#mc4c54cf636" y="289.532673"/>
    </g>
   </g>
   <g id="line2d_53">
    <path d="M 333.168 27.513663 
L 363.64328 161.196832 
" style="fill:none;stroke:#ff00ff;stroke-linecap:square;stroke-width:1.5;"/>
    <g>
     <use style="fill:none;stroke:#ff00ff;stroke-linejoin:miter;stroke-width:1.5;" x="333.168" xlink:href="#m400613821a" y="27.513663"/>
     <use style="fill:none;stroke:#ff00ff;stroke-linejoin:miter;stroke-width:1.5;" x="363.64328" xlink:href="#m400613821a" y="161.196832"/>
    </g>
   </g>
   <g id="line2d_54">
    <path d="M 333.168 294.88 
L 333.168 27.513663 
" style="fill:none;stroke:#000000;stroke-linecap:square;stroke-width:1.5;"/>
   </g>
   <g id="patch_3">
    <path d="M 56.12 294.88 
L 56.12 24.84 
" style="fill:none;stroke:#000000;stroke-linecap:square;stroke-linejoin:miter;stroke-width:0.8;"/>
   </g>
   <g id="patch_4">
    <path d="M 333.168 294.88 
L 333.168 24.84 
" style="fill:none;stroke:#000000;stroke-linecap:square;stroke-linejoin:miter;stroke-width:0.8;"/>
   </g>
   <g id="patch_5">
    <path d="M 56.12 294.88 
L 333.168 294.88 
" style="fill:none;stroke:#000000;stroke-linecap:square;stroke-linejoin:miter;stroke-width:0.8;"/>
   </g>
   <g id="patch_6">
    <path d="M 56.12 24.84 
L 333.168 24.84 
" style="fill:none;stroke:#000000;stroke-linecap:square;stroke-linejoin:miter;stroke-width:0.8;"/>
   </g>
   <g id="text_13">
    <!-- CMA ES PPM -->
    <defs>
     <path d="M 64.40625 67.28125 
L 64.40625 56.890625 
Q 59.421875 61.53125 53.78125 63.8125 
Q 48.140625 66.109375 41.796875 66.109375 
Q 29.296875 66.109375 22.65625 58.46875 
Q 16.015625 50.828125 16.015625 36.375 
Q 16.015625 21.96875 22.65625 14.328125 
Q 29.296875 6.6875 41.796875 6.6875 
Q 48.140625 6.6875 53.78125 8.984375 
Q 59.421875 11.28125 64.40625 15.921875 
L 64.40625 5.609375 
Q 59.234375 2.09375 53.4375 0.328125 
Q 47.65625 -1.421875 41.21875 -1.421875 
Q 24.65625 -1.421875 15.125 8.703125 
Q 5.609375 18.84375 5.609375 36.375 
Q 5.609375 53.953125 15.125 64.078125 
Q 24.65625 74.21875 41.21875 74.21875 
Q 47.75 74.21875 53.53125 72.484375 
Q 59.328125 70.75 64.40625 67.28125 
z
" id="DejaVuSans-43"/>
     <path d="M 9.8125 72.90625 
L 24.515625 72.90625 
L 43.109375 23.296875 
L 61.8125 72.90625 
L 76.515625 72.90625 
L 76.515625 0 
L 66.890625 0 
L 66.890625 64.015625 
L 48.09375 14.015625 
L 38.1875 14.015625 
L 19.390625 64.015625 
L 19.390625 0 
L 9.8125 0 
z
" id="DejaVuSans-4d"/>
     <path d="M 34.1875 63.1875 
L 20.796875 26.90625 
L 47.609375 26.90625 
z
M 28.609375 72.90625 
L 39.796875 72.90625 
L 67.578125 0 
L 57.328125 0 
L 50.6875 18.703125 
L 17.828125 18.703125 
L 11.1875 0 
L 0.78125 0 
z
" id="DejaVuSans-41"/>
     <path d="M 9.8125 72.90625 
L 55.90625 72.90625 
L 55.90625 64.59375 
L 19.671875 64.59375 
L 19.671875 43.015625 
L 54.390625 43.015625 
L 54.390625 34.71875 
L 19.671875 34.71875 
L 19.671875 8.296875 
L 56.78125 8.296875 
L 56.78125 0 
L 9.8125 0 
z
" id="DejaVuSans-45"/>
     <path d="M 53.515625 70.515625 
L 53.515625 60.890625 
Q 47.90625 63.578125 42.921875 64.890625 
Q 37.9375 66.21875 33.296875 66.21875 
Q 25.25 66.21875 20.875 63.09375 
Q 16.5 59.96875 16.5 54.203125 
Q 16.5 49.359375 19.40625 46.890625 
Q 22.3125 44.4375 30.421875 42.921875 
L 36.375 41.703125 
Q 47.40625 39.59375 52.65625 34.296875 
Q 57.90625 29 57.90625 20.125 
Q 57.90625 9.515625 50.796875 4.046875 
Q 43.703125 -1.421875 29.984375 -1.421875 
Q 24.8125 -1.421875 18.96875 -0.25 
Q 13.140625 0.921875 6.890625 3.21875 
L 6.890625 13.375 
Q 12.890625 10.015625 18.65625 8.296875 
Q 24.421875 6.59375 29.984375 6.59375 
Q 38.421875 6.59375 43.015625 9.90625 
Q 47.609375 13.234375 47.609375 19.390625 
Q 47.609375 24.75 44.3125 27.78125 
Q 41.015625 30.8125 33.5 32.328125 
L 27.484375 33.5 
Q 16.453125 35.6875 11.515625 40.375 
Q 6.59375 45.0625 6.59375 53.421875 
Q 6.59375 63.09375 13.40625 68.65625 
Q 20.21875 74.21875 32.171875 74.21875 
Q 37.3125 74.21875 42.625 73.28125 
Q 47.953125 72.359375 53.515625 70.515625 
z
" id="DejaVuSans-53"/>
     <path d="M 19.671875 64.796875 
L 19.671875 37.40625 
L 32.078125 37.40625 
Q 38.96875 37.40625 42.71875 40.96875 
Q 46.484375 44.53125 46.484375 51.125 
Q 46.484375 57.671875 42.71875 61.234375 
Q 38.96875 64.796875 32.078125 64.796875 
z
M 9.8125 72.90625 
L 32.078125 72.90625 
Q 44.34375 72.90625 50.609375 67.359375 
Q 56.890625 61.8125 56.890625 51.125 
Q 56.890625 40.328125 50.609375 34.8125 
Q 44.34375 29.296875 32.078125 29.296875 
L 19.671875 29.296875 
L 19.671875 0 
L 9.8125 0 
z
" id="DejaVuSans-50"/>
    </defs>
    <g transform="translate(369.18424 294.223611)scale(0.17 -0.17)">
     <use xlink:href="#DejaVuSans-43"/>
     <use x="69.824219" xlink:href="#DejaVuSans-4d"/>
     <use x="156.103516" xlink:href="#DejaVuSans-41"/>
     <use x="224.511719" xlink:href="#DejaVuSans-20"/>
     <use x="256.298828" xlink:href="#DejaVuSans-45"/>
     <use x="319.482422" xlink:href="#DejaVuSans-53"/>
     <use x="382.958984" xlink:href="#DejaVuSans-20"/>
     <use x="414.746094" xlink:href="#DejaVuSans-50"/>
     <use x="475.048828" xlink:href="#DejaVuSans-50"/>
     <use x="535.351562" xlink:href="#DejaVuSans-4d"/>
    </g>
   </g>
   <g id="text_14">
    <!-- CMA ES CSA -->
    <g transform="translate(369.18424 165.887769)scale(0.17 -0.17)">
     <use xlink:href="#DejaVuSans-43"/>
     <use x="69.824219" xlink:href="#DejaVuSans-4d"/>
     <use x="156.103516" xlink:href="#DejaVuSans-41"/>
     <use x="224.511719" xlink:href="#DejaVuSans-20"/>
     <use x="256.298828" xlink:href="#DejaVuSans-45"/>
     <use x="319.482422" xlink:href="#DejaVuSans-53"/>
     <use x="382.958984" xlink:href="#DejaVuSans-20"/>
     <use x="414.746094" xlink:href="#DejaVuSans-43"/>
     <use x="484.570312" xlink:href="#DejaVuSans-53"/>
     <use x="548.0625" xlink:href="#DejaVuSans-41"/>
    </g>
   </g>
   <g id="text_15">
    <!-- best 2009 -->
    <defs>
     <path d="M 48.6875 27.296875 
Q 48.6875 37.203125 44.609375 42.84375 
Q 40.53125 48.484375 33.40625 48.484375 
Q 26.265625 48.484375 22.1875 42.84375 
Q 18.109375 37.203125 18.109375 27.296875 
Q 18.109375 17.390625 22.1875 11.75 
Q 26.265625 6.109375 33.40625 6.109375 
Q 40.53125 6.109375 44.609375 11.75 
Q 48.6875 17.390625 48.6875 27.296875 
z
M 18.109375 46.390625 
Q 20.953125 51.265625 25.265625 53.625 
Q 29.59375 56 35.59375 56 
Q 45.5625 56 51.78125 48.09375 
Q 58.015625 40.1875 58.015625 27.296875 
Q 58.015625 14.40625 51.78125 6.484375 
Q 45.5625 -1.421875 35.59375 -1.421875 
Q 29.59375 -1.421875 25.265625 0.953125 
Q 20.953125 3.328125 18.109375 8.203125 
L 18.109375 0 
L 9.078125 0 
L 9.078125 75.984375 
L 18.109375 75.984375 
z
" id="DejaVuSans-62"/>
     <path d="M 10.984375 1.515625 
L 10.984375 10.5 
Q 14.703125 8.734375 18.5 7.8125 
Q 22.3125 6.890625 25.984375 6.890625 
Q 35.75 6.890625 40.890625 13.453125 
Q 46.046875 20.015625 46.78125 33.40625 
Q 43.953125 29.203125 39.59375 26.953125 
Q 35.25 24.703125 29.984375 24.703125 
Q 19.046875 24.703125 12.671875 31.3125 
Q 6.296875 37.9375 6.296875 49.421875 
Q 6.296875 60.640625 12.9375 67.421875 
Q 19.578125 74.21875 30.609375 74.21875 
Q 43.265625 74.21875 49.921875 64.515625 
Q 56.59375 54.828125 56.59375 36.375 
Q 56.59375 19.140625 48.40625 8.859375 
Q 40.234375 -1.421875 26.421875 -1.421875 
Q 22.703125 -1.421875 18.890625 -0.6875 
Q 15.09375 0.046875 10.984375 1.515625 
z
M 30.609375 32.421875 
Q 37.25 32.421875 41.125 36.953125 
Q 45.015625 41.5 45.015625 49.421875 
Q 45.015625 57.28125 41.125 61.84375 
Q 37.25 66.40625 30.609375 66.40625 
Q 23.96875 66.40625 20.09375 61.84375 
Q 16.21875 57.28125 16.21875 49.421875 
Q 16.21875 41.5 20.09375 36.953125 
Q 23.96875 32.421875 30.609375 32.421875 
z
" id="DejaVuSans-39"/>
    </defs>
    <g transform="translate(369.18424 37.551928)scale(0.17 -0.17)">
     <use xlink:href="#DejaVuSans-62"/>
     <use x="63.476562" xlink:href="#DejaVuSans-65"/>
     <use x="125" xlink:href="#DejaVuSans-73"/>
     <use x="177.099609" xlink:href="#DejaVuSans-74"/>
     <use x="216.308594" xlink:href="#DejaVuSans-20"/>
     <use x="248.095703" xlink:href="#DejaVuSans-32"/>
     <use x="311.71875" xlink:href="#DejaVuSans-30"/>
     <use x="375.341797" xlink:href="#DejaVuSans-30"/>
     <use x="438.964844" xlink:href="#DejaVuSans-39"/>
    </g>
   </g>
   <g id="text_16">
    <!-- bbob f7, 20-D -->
    <defs>
     <path d="M 8.203125 72.90625 
L 55.078125 72.90625 
L 55.078125 68.703125 
L 28.609375 0 
L 18.3125 0 
L 43.21875 64.59375 
L 8.203125 64.59375 
z
" id="DejaVuSans-37"/>
     <path d="M 19.671875 64.796875 
L 19.671875 8.109375 
L 31.59375 8.109375 
Q 46.6875 8.109375 53.6875 14.9375 
Q 60.6875 21.78125 60.6875 36.53125 
Q 60.6875 51.171875 53.6875 57.984375 
Q 46.6875 64.796875 31.59375 64.796875 
z
M 9.8125 72.90625 
L 30.078125 72.90625 
Q 51.265625 72.90625 61.171875 64.09375 
Q 71.09375 55.28125 71.09375 36.53125 
Q 71.09375 17.671875 61.125 8.828125 
Q 51.171875 0 30.078125 0 
L 9.8125 0 
z
" id="DejaVuSans-44"/>
    </defs>
    <g transform="translate(58.89048 35.290806)scale(0.102 -0.102)">
     <use xlink:href="#DejaVuSans-62"/>
     <use x="63.476562" xlink:href="#DejaVuSans-62"/>
     <use x="126.953125" xlink:href="#DejaVuSans-6f"/>
     <use x="188.134766" xlink:href="#DejaVuSans-62"/>
     <use x="251.611328" xlink:href="#DejaVuSans-20"/>
     <use x="283.398438" xlink:href="#DejaVuSans-66"/>
     <use x="318.603516" xlink:href="#DejaVuSans-37"/>
     <use x="382.226562" xlink:href="#DejaVuSans-2c"/>
     <use x="414.013672" xlink:href="#DejaVuSans-20"/>
     <use x="445.800781" xlink:href="#DejaVuSans-32"/>
     <use x="509.423828" xlink:href="#DejaVuSans-30"/>
     <use x="573.046875" xlink:href="#DejaVuSans-2d"/>
     <use x="609.130859" xlink:href="#DejaVuSans-44"/>
    </g>
    <!-- 51 targets: 100..1e-08 -->
    <defs>
     <path d="M 10.796875 72.90625 
L 49.515625 72.90625 
L 49.515625 64.59375 
L 19.828125 64.59375 
L 19.828125 46.734375 
Q 21.96875 47.46875 24.109375 47.828125 
Q 26.265625 48.1875 28.421875 48.1875 
Q 40.625 48.1875 47.75 41.5 
Q 54.890625 34.8125 54.890625 23.390625 
Q 54.890625 11.625 47.5625 5.09375 
Q 40.234375 -1.421875 26.90625 -1.421875 
Q 22.3125 -1.421875 17.546875 -0.640625 
Q 12.796875 0.140625 7.71875 1.703125 
L 7.71875 11.625 
Q 12.109375 9.234375 16.796875 8.0625 
Q 21.484375 6.890625 26.703125 6.890625 
Q 35.15625 6.890625 40.078125 11.328125 
Q 45.015625 15.765625 45.015625 23.390625 
Q 45.015625 31 40.078125 35.4375 
Q 35.15625 39.890625 26.703125 39.890625 
Q 22.75 39.890625 18.8125 39.015625 
Q 14.890625 38.140625 10.796875 36.28125 
z
" id="DejaVuSans-35"/>
     <path d="M 11.71875 12.40625 
L 22.015625 12.40625 
L 22.015625 0 
L 11.71875 0 
z
M 11.71875 51.703125 
L 22.015625 51.703125 
L 22.015625 39.3125 
L 11.71875 39.3125 
z
" id="DejaVuSans-3a"/>
    </defs>
    <g transform="translate(58.89048 46.712575)scale(0.102 -0.102)">
     <use xlink:href="#DejaVuSans-35"/>
     <use x="63.623047" xlink:href="#DejaVuSans-31"/>
     <use x="127.246094" xlink:href="#DejaVuSans-20"/>
     <use x="159.033203" xlink:href="#DejaVuSans-74"/>
     <use x="198.242188" xlink:href="#DejaVuSans-61"/>
     <use x="259.521484" xlink:href="#DejaVuSans-72"/>
     <use x="300.619141" xlink:href="#DejaVuSans-67"/>
     <use x="364.095703" xlink:href="#DejaVuSans-65"/>
     <use x="425.619141" xlink:href="#DejaVuSans-74"/>
     <use x="464.828125" xlink:href="#DejaVuSans-73"/>
     <use x="516.927734" xlink:href="#DejaVuSans-3a"/>
     <use x="550.619141" xlink:href="#DejaVuSans-20"/>
     <use x="582.40625" xlink:href="#DejaVuSans-31"/>
     <use x="646.029297" xlink:href="#DejaVuSans-30"/>
     <use x="709.652344" xlink:href="#DejaVuSans-30"/>
     <use x="773.275391" xlink:href="#DejaVuSans-2e"/>
     <use x="805.0625" xlink:href="#DejaVuSans-2e"/>
     <use x="836.849609" xlink:href="#DejaVuSans-31"/>
     <use x="900.472656" xlink:href="#DejaVuSans-65"/>
     <use x="961.996094" xlink:href="#DejaVuSans-2d"/>
     <use x="998.080078" xlink:href="#DejaVuSans-30"/>
     <use x="1061.703125" xlink:href="#DejaVuSans-38"/>
    </g>
    <!-- 15 instances -->
    <g transform="translate(58.89048 58.134344)scale(0.102 -0.102)">
     <use xlink:href="#DejaVuSans-31"/>
     <use x="63.623047" xlink:href="#DejaVuSans-35"/>
     <use x="127.246094" xlink:href="#DejaVuSans-20"/>
     <use x="159.033203" xlink:href="#DejaVuSans-69"/>
     <use x="186.816406" xlink:href="#DejaVuSans-6e"/>
     <use x="250.195312" xlink:href="#DejaVuSans-73"/>
     <use x="302.294922" xlink:href="#DejaVuSans-74"/>
     <use x="341.503906" xlink:href="#DejaVuSans-61"/>
     <use x="402.783203" xlink:href="#DejaVuSans-6e"/>
     <use x="466.162109" xlink:href="#DejaVuSans-63"/>
     <use x="521.142578" xlink:href="#DejaVuSans-65"/>
     <use x="582.666016" xlink:href="#DejaVuSans-73"/>
    </g>
   </g>
   <g id="text_17">
    <!-- v0.0.0 -->
    <g style="fill:#808080;" transform="translate(178.96275 290.099912)scale(0.1 -0.1)">
     <use xlink:href="#DejaVuSans-76"/>
     <use x="59.179688" xlink:href="#DejaVuSans-30"/>
     <use x="122.802734" xlink:href="#DejaVuSans-2e"/>
     <use x="154.589844" xlink:href="#DejaVuSans-30"/>
     <use x="218.212891" xlink:href="#DejaVuSans-2e"/>
     <use x="250" xlink:href="#DejaVuSans-30"/>
    </g>
   </g>
   <g id="text_18">
    <!-- 7 Step-ellipsoid -->
    <g transform="translate(117.434625 18.84)scale(0.2 -0.2)">
     <use xlink:href="#DejaVuSans-37"/>
     <use x="63.623047" xlink:href="#DejaVuSans-20"/>
     <use x="95.410156" xlink:href="#DejaVuSans-53"/>
     <use x="158.886719" xlink:href="#DejaVuSans-74"/>
     <use x="198.095703" xlink:href="#DejaVuSans-65"/>
     <use x="259.619141" xlink:href="#DejaVuSans-70"/>
     <use x="323.095703" xlink:href="#DejaVuSans-2d"/>
     <use x="359.179688" xlink:href="#DejaVuSans-65"/>
     <use x="420.703125" xlink:href="#DejaVuSans-6c"/>
     <use x="448.486328" xlink:href="#DejaVuSans-6c"/>
     <use x="476.269531" xlink:href="#DejaVuSans-69"/>
     <use x="504.052734" xlink:href="#DejaVuSans-70"/>
     <use x="567.529297" xlink:href="#DejaVuSans-73"/>
     <use x="619.628906" xlink:href="#DejaVuSans-6f"/>
     <use x="680.810547" xlink:href="#DejaVuSans-69"/>
     <use x="708.59375" xlink:href="#DejaVuSans-64"/>
    </g>
   </g>
  </g>
 </g>
 <defs>
  <clipPath id="p700ea77c50">
   <rect height="270.04" width="277.048" x="56.12" y="24.84"/>
  </clipPath>
 </defs>
</svg>
