<?xml version="1.0" encoding="utf-8" standalone="no"?>
<!DOCTYPE svg PUBLIC "-//W3C//DTD SVG 1.1//EN"
  "http://www.w3.org/Graphics/SVG/1.1/DTD/svg11.dtd">
<!-- Created with matplotlib (http://matplotlib.org/) -->
<svg height="345pt" version="1.1" viewBox="0 0 460 345" width="460pt" xmlns="http://www.w3.org/2000/svg" xmlns:xlink="http://www.w3.org/1999/xlink">
 <defs>
  <style type="text/css">
*{stroke-linecap:butt;stroke-linejoin:round;}
  </style>
 </defs>
 <g id="figure_1">
  <g id="patch_1">
   <path d="M 0 345.6 
L 460.8 345.6 
L 460.8 0 
L 0 0 
z
" style="fill:#ffffff;"/>
  </g>
  <g id="axes_1">
   <g id="patch_2">
    <path d="M 56.12 294.88 
L 333.168 294.88 
L 333.168 24.84 
L 56.12 24.84 
z
" style="fill:#ffffff;"/>
   </g>
   <g id="line2d_1">
    <path d="M 96.038666 294.88 
L 96.038666 289.637523 
L 100.983527 289.637523 
L 100.983527 284.395046 
L 110.014853 284.395046 
L 110.014853 279.152568 
L 113.579218 279.152568 
L 113.579218 273.910091 
L 116.682681 273.910091 
L 116.682681 268.667614 
L 120.034863 268.667614 
L 120.034863 263.425137 
L 121.929105 263.425137 
L 121.929105 258.18266 
L 123.499282 258.18266 
L 123.499282 252.940182 
L 125.000572 252.940182 
L 125.000572 247.697705 
L 125.794504 247.697705 
L 125.794504 242.455228 
L 127.142761 242.455228 
L 127.142761 237.212751 
L 128.13443 237.212751 
L 128.13443 231.970274 
L 128.798561 231.970274 
L 128.798561 226.727797 
L 129.890654 226.727797 
L 129.890654 221.485319 
L 131.181257 221.485319 
L 131.181257 216.242842 
L 131.990784 216.242842 
L 131.990784 211.000365 
L 133.196088 211.000365 
L 133.196088 205.757888 
L 133.973644 205.757888 
L 133.973644 200.515411 
L 134.53905 200.515411 
L 134.53905 195.272933 
L 135.464614 195.272933 
L 135.464614 190.030456 
L 135.934186 190.030456 
L 135.934186 184.787979 
L 136.67882 184.787979 
L 136.67882 179.545502 
L 137.377325 179.545502 
L 137.377325 174.303025 
L 137.931121 174.303025 
L 137.931121 169.060547 
L 139.001743 169.060547 
L 139.001743 163.81807 
L 139.680151 163.81807 
L 139.680151 158.575593 
L 140.319984 158.575593 
L 140.319984 153.333116 
L 141.035496 153.333116 
L 141.035496 148.090639 
L 141.804906 148.090639 
L 141.804906 142.848162 
L 142.303162 142.848162 
L 142.303162 137.605684 
L 143.051826 137.605684 
L 143.051826 132.363207 
L 143.65349 132.363207 
L 143.65349 127.12073 
L 144.295937 127.12073 
L 144.295937 121.878253 
L 144.915234 121.878253 
L 144.915234 116.635776 
L 145.34158 116.635776 
L 145.34158 111.393298 
L 145.766946 111.393298 
L 145.766946 106.150821 
L 146.182039 106.150821 
L 146.182039 100.908344 
L 146.631793 100.908344 
L 146.631793 95.665867 
L 147.225166 95.665867 
L 147.225166 90.42339 
L 147.657127 90.42339 
L 147.657127 85.180912 
L 147.922722 85.180912 
L 147.922722 79.938435 
L 148.441909 79.938435 
L 148.441909 74.695958 
L 149.007841 74.695958 
L 149.007841 69.453481 
L 149.367465 69.453481 
L 149.367465 64.211004 
L 149.778964 64.211004 
L 149.778964 58.968526 
L 150.108469 58.968526 
L 150.108469 53.726049 
L 150.353304 53.726049 
L 150.353304 48.483572 
L 150.672081 48.483572 
L 150.672081 43.241095 
L 150.998831 43.241095 
L 150.998831 37.998618 
L 151.359993 37.998618 
L 151.359993 32.756141 
L 151.85189 32.756141 
L 151.85189 27.513663 
L 333.168 27.513663 
" style="fill:none;stroke:#f5deb3;stroke-linecap:square;stroke-width:4;"/>
   </g>
   <g id="line2d_2">
    <defs>
     <path d="M -0 7.778175 
L 7.778175 0 
L 0 -7.778175 
L -7.778175 -0 
z
" id="mc511221666" style="stroke:#f5deb3;stroke-linejoin:miter;stroke-width:1.5;"/>
    </defs>
    <g>
     <use style="fill:#f5deb3;stroke:#f5deb3;stroke-linejoin:miter;stroke-width:1.5;" x="143.65349" xlink:href="#mc511221666" y="127.12073"/>
     <use style="fill:#f5deb3;stroke:#f5deb3;stroke-linejoin:miter;stroke-width:1.5;" x="151.85189" xlink:href="#mc511221666" y="32.756141"/>
     <use style="fill:#f5deb3;stroke:#f5deb3;stroke-linejoin:miter;stroke-width:1.5;" x="151.85189" xlink:href="#mc511221666" y="27.513663"/>
     <use style="fill:#f5deb3;stroke:#f5deb3;stroke-linejoin:miter;stroke-width:1.5;" x="151.85189" xlink:href="#mc511221666" y="27.513663"/>
     <use style="fill:#f5deb3;stroke:#f5deb3;stroke-linejoin:miter;stroke-width:1.5;" x="333.168" xlink:href="#mc511221666" y="27.513663"/>
    </g>
   </g>
   <g id="line2d_3">
    <path style="fill:none;stroke:#f5deb3;stroke-linecap:square;stroke-width:4;"/>
    <g/>
   </g>
   <g id="line2d_4">
    <path d="M 333.168 27.513663 
L 363.64328 32.86099 
" style="fill:none;stroke:#f5deb3;stroke-linecap:square;stroke-width:4;"/>
    <g>
     <use style="fill:#f5deb3;stroke:#f5deb3;stroke-linejoin:miter;stroke-width:1.5;" x="333.168" xlink:href="#mc511221666" y="27.513663"/>
     <use style="fill:#f5deb3;stroke:#f5deb3;stroke-linejoin:miter;stroke-width:1.5;" x="363.64328" xlink:href="#mc511221666" y="32.86099"/>
    </g>
   </g>
   <g id="matplotlib.axis_1">
    <g id="xtick_1">
     <g id="line2d_5">
      <path clip-path="url(#pfdbe81a568)" d="M 56.12 294.88 
L 56.12 24.84 
" style="fill:none;stroke:#b0b0b0;stroke-linecap:square;stroke-width:0.8;"/>
     </g>
     <g id="line2d_6">
      <defs>
       <path d="M 0 0 
L 0 3.5 
" id="m14b790b8ff" style="stroke:#000000;stroke-width:0.8;"/>
      </defs>
      <g>
       <use style="stroke:#000000;stroke-width:0.8;" x="56.12" xlink:href="#m14b790b8ff" y="294.88"/>
      </g>
     </g>
     <g id="text_1">
      <!-- 0 -->
      <defs>
       <path d="M 31.78125 66.40625 
Q 24.171875 66.40625 20.328125 58.90625 
Q 16.5 51.421875 16.5 36.375 
Q 16.5 21.390625 20.328125 13.890625 
Q 24.171875 6.390625 31.78125 6.390625 
Q 39.453125 6.390625 43.28125 13.890625 
Q 47.125 21.390625 47.125 36.375 
Q 47.125 51.421875 43.28125 58.90625 
Q 39.453125 66.40625 31.78125 66.40625 
z
M 31.78125 74.21875 
Q 44.046875 74.21875 50.515625 64.515625 
Q 56.984375 54.828125 56.984375 36.375 
Q 56.984375 17.96875 50.515625 8.265625 
Q 44.046875 -1.421875 31.78125 -1.421875 
Q 19.53125 -1.421875 13.0625 8.265625 
Q 6.59375 17.96875 6.59375 36.375 
Q 6.59375 54.828125 13.0625 64.515625 
Q 19.53125 74.21875 31.78125 74.21875 
z
" id="DejaVuSans-30"/>
      </defs>
      <g transform="translate(49.7575 317.076875)scale(0.2 -0.2)">
       <use xlink:href="#DejaVuSans-30"/>
      </g>
     </g>
    </g>
    <g id="xtick_2">
     <g id="line2d_7">
      <path clip-path="url(#pfdbe81a568)" d="M 135.276571 294.88 
L 135.276571 24.84 
" style="fill:none;stroke:#b0b0b0;stroke-linecap:square;stroke-width:0.8;"/>
     </g>
     <g id="line2d_8">
      <g>
       <use style="stroke:#000000;stroke-width:0.8;" x="135.276571" xlink:href="#m14b790b8ff" y="294.88"/>
      </g>
     </g>
     <g id="text_2">
      <!-- 2 -->
      <defs>
       <path d="M 19.1875 8.296875 
L 53.609375 8.296875 
L 53.609375 0 
L 7.328125 0 
L 7.328125 8.296875 
Q 12.9375 14.109375 22.625 23.890625 
Q 32.328125 33.6875 34.8125 36.53125 
Q 39.546875 41.84375 41.421875 45.53125 
Q 43.3125 49.21875 43.3125 52.78125 
Q 43.3125 58.59375 39.234375 62.25 
Q 35.15625 65.921875 28.609375 65.921875 
Q 23.96875 65.921875 18.8125 64.3125 
Q 13.671875 62.703125 7.8125 59.421875 
L 7.8125 69.390625 
Q 13.765625 71.78125 18.9375 73 
Q 24.125 74.21875 28.421875 74.21875 
Q 39.75 74.21875 46.484375 68.546875 
Q 53.21875 62.890625 53.21875 53.421875 
Q 53.21875 48.921875 51.53125 44.890625 
Q 49.859375 40.875 45.40625 35.40625 
Q 44.1875 33.984375 37.640625 27.21875 
Q 31.109375 20.453125 19.1875 8.296875 
z
" id="DejaVuSans-32"/>
      </defs>
      <g transform="translate(128.914071 317.076875)scale(0.2 -0.2)">
       <use xlink:href="#DejaVuSans-32"/>
      </g>
     </g>
    </g>
    <g id="xtick_3">
     <g id="line2d_9">
      <path clip-path="url(#pfdbe81a568)" d="M 214.433143 294.88 
L 214.433143 24.84 
" style="fill:none;stroke:#b0b0b0;stroke-linecap:square;stroke-width:0.8;"/>
     </g>
     <g id="line2d_10">
      <g>
       <use style="stroke:#000000;stroke-width:0.8;" x="214.433143" xlink:href="#m14b790b8ff" y="294.88"/>
      </g>
     </g>
     <g id="text_3">
      <!-- 4 -->
      <defs>
       <path d="M 37.796875 64.3125 
L 12.890625 25.390625 
L 37.796875 25.390625 
z
M 35.203125 72.90625 
L 47.609375 72.90625 
L 47.609375 25.390625 
L 58.015625 25.390625 
L 58.015625 17.1875 
L 47.609375 17.1875 
L 47.609375 0 
L 37.796875 0 
L 37.796875 17.1875 
L 4.890625 17.1875 
L 4.890625 26.703125 
z
" id="DejaVuSans-34"/>
      </defs>
      <g transform="translate(208.070643 317.076875)scale(0.2 -0.2)">
       <use xlink:href="#DejaVuSans-34"/>
      </g>
     </g>
    </g>
    <g id="xtick_4">
     <g id="line2d_11">
      <path clip-path="url(#pfdbe81a568)" d="M 293.589714 294.88 
L 293.589714 24.84 
" style="fill:none;stroke:#b0b0b0;stroke-linecap:square;stroke-width:0.8;"/>
     </g>
     <g id="line2d_12">
      <g>
       <use style="stroke:#000000;stroke-width:0.8;" x="293.589714" xlink:href="#m14b790b8ff" y="294.88"/>
      </g>
     </g>
     <g id="text_4">
      <!-- 6 -->
      <defs>
       <path d="M 33.015625 40.375 
Q 26.375 40.375 22.484375 35.828125 
Q 18.609375 31.296875 18.609375 23.390625 
Q 18.609375 15.53125 22.484375 10.953125 
Q 26.375 6.390625 33.015625 6.390625 
Q 39.65625 6.390625 43.53125 10.953125 
Q 47.40625 15.53125 47.40625 23.390625 
Q 47.40625 31.296875 43.53125 35.828125 
Q 39.65625 40.375 33.015625 40.375 
z
M 52.59375 71.296875 
L 52.59375 62.3125 
Q 48.875 64.0625 45.09375 64.984375 
Q 41.3125 65.921875 37.59375 65.921875 
Q 27.828125 65.921875 22.671875 59.328125 
Q 17.53125 52.734375 16.796875 39.40625 
Q 19.671875 43.65625 24.015625 45.921875 
Q 28.375 48.1875 33.59375 48.1875 
Q 44.578125 48.1875 50.953125 41.515625 
Q 57.328125 34.859375 57.328125 23.390625 
Q 57.328125 12.15625 50.6875 5.359375 
Q 44.046875 -1.421875 33.015625 -1.421875 
Q 20.359375 -1.421875 13.671875 8.265625 
Q 6.984375 17.96875 6.984375 36.375 
Q 6.984375 53.65625 15.1875 63.9375 
Q 23.390625 74.21875 37.203125 74.21875 
Q 40.921875 74.21875 44.703125 73.484375 
Q 48.484375 72.75 52.59375 71.296875 
z
" id="DejaVuSans-36"/>
      </defs>
      <g transform="translate(287.227214 317.076875)scale(0.2 -0.2)">
       <use xlink:href="#DejaVuSans-36"/>
      </g>
     </g>
    </g>
    <g id="xtick_5">
     <g id="line2d_13">
      <path clip-path="url(#pfdbe81a568)" d="M 56.12 294.88 
L 56.12 24.84 
" style="fill:none;stroke:#b0b0b0;stroke-linecap:square;stroke-width:0.8;"/>
     </g>
     <g id="line2d_14">
      <defs>
       <path d="M 0 0 
L 0 2 
" id="m579b727bfe" style="stroke:#000000;stroke-width:0.6;"/>
      </defs>
      <g>
       <use style="stroke:#000000;stroke-width:0.6;" x="56.12" xlink:href="#m579b727bfe" y="294.88"/>
      </g>
     </g>
    </g>
    <g id="xtick_6">
     <g id="line2d_15">
      <path clip-path="url(#pfdbe81a568)" d="M 95.698286 294.88 
L 95.698286 24.84 
" style="fill:none;stroke:#b0b0b0;stroke-linecap:square;stroke-width:0.8;"/>
     </g>
     <g id="line2d_16">
      <g>
       <use style="stroke:#000000;stroke-width:0.6;" x="95.698286" xlink:href="#m579b727bfe" y="294.88"/>
      </g>
     </g>
    </g>
    <g id="xtick_7">
     <g id="line2d_17">
      <path clip-path="url(#pfdbe81a568)" d="M 135.276571 294.88 
L 135.276571 24.84 
" style="fill:none;stroke:#b0b0b0;stroke-linecap:square;stroke-width:0.8;"/>
     </g>
     <g id="line2d_18">
      <g>
       <use style="stroke:#000000;stroke-width:0.6;" x="135.276571" xlink:href="#m579b727bfe" y="294.88"/>
      </g>
     </g>
    </g>
    <g id="xtick_8">
     <g id="line2d_19">
      <path clip-path="url(#pfdbe81a568)" d="M 174.854857 294.88 
L 174.854857 24.84 
" style="fill:none;stroke:#b0b0b0;stroke-linecap:square;stroke-width:0.8;"/>
     </g>
     <g id="line2d_20">
      <g>
       <use style="stroke:#000000;stroke-width:0.6;" x="174.854857" xlink:href="#m579b727bfe" y="294.88"/>
      </g>
     </g>
    </g>
    <g id="xtick_9">
     <g id="line2d_21">
      <path clip-path="url(#pfdbe81a568)" d="M 214.433143 294.88 
L 214.433143 24.84 
" style="fill:none;stroke:#b0b0b0;stroke-linecap:square;stroke-width:0.8;"/>
     </g>
     <g id="line2d_22">
      <g>
       <use style="stroke:#000000;stroke-width:0.6;" x="214.433143" xlink:href="#m579b727bfe" y="294.88"/>
      </g>
     </g>
    </g>
    <g id="xtick_10">
     <g id="line2d_23">
      <path clip-path="url(#pfdbe81a568)" d="M 254.011429 294.88 
L 254.011429 24.84 
" style="fill:none;stroke:#b0b0b0;stroke-linecap:square;stroke-width:0.8;"/>
     </g>
     <g id="line2d_24">
      <g>
       <use style="stroke:#000000;stroke-width:0.6;" x="254.011429" xlink:href="#m579b727bfe" y="294.88"/>
      </g>
     </g>
    </g>
    <g id="xtick_11">
     <g id="line2d_25">
      <path clip-path="url(#pfdbe81a568)" d="M 293.589714 294.88 
L 293.589714 24.84 
" style="fill:none;stroke:#b0b0b0;stroke-linecap:square;stroke-width:0.8;"/>
     </g>
     <g id="line2d_26">
      <g>
       <use style="stroke:#000000;stroke-width:0.6;" x="293.589714" xlink:href="#m579b727bfe" y="294.88"/>
      </g>
     </g>
    </g>
    <g id="xtick_12">
     <g id="line2d_27">
      <path clip-path="url(#pfdbe81a568)" d="M 333.168 294.88 
L 333.168 24.84 
" style="fill:none;stroke:#b0b0b0;stroke-linecap:square;stroke-width:0.8;"/>
     </g>
     <g id="line2d_28">
      <g>
       <use style="stroke:#000000;stroke-width:0.6;" x="333.168" xlink:href="#m579b727bfe" y="294.88"/>
      </g>
     </g>
    </g>
    <g id="text_5">
     <!-- log10(# f-evals / dimension) -->
     <defs>
      <path d="M 9.421875 75.984375 
L 18.40625 75.984375 
L 18.40625 0 
L 9.421875 0 
z
" id="DejaVuSans-6c"/>
      <path d="M 30.609375 48.390625 
Q 23.390625 48.390625 19.1875 42.75 
Q 14.984375 37.109375 14.984375 27.296875 
Q 14.984375 17.484375 19.15625 11.84375 
Q 23.34375 6.203125 30.609375 6.203125 
Q 37.796875 6.203125 41.984375 11.859375 
Q 46.1875 17.53125 46.1875 27.296875 
Q 46.1875 37.015625 41.984375 42.703125 
Q 37.796875 48.390625 30.609375 48.390625 
z
M 30.609375 56 
Q 42.328125 56 49.015625 48.375 
Q 55.71875 40.765625 55.71875 27.296875 
Q 55.71875 13.875 49.015625 6.21875 
Q 42.328125 -1.421875 30.609375 -1.421875 
Q 18.84375 -1.421875 12.171875 6.21875 
Q 5.515625 13.875 5.515625 27.296875 
Q 5.515625 40.765625 12.171875 48.375 
Q 18.84375 56 30.609375 56 
z
" id="DejaVuSans-6f"/>
      <path d="M 45.40625 27.984375 
Q 45.40625 37.75 41.375 43.109375 
Q 37.359375 48.484375 30.078125 48.484375 
Q 22.859375 48.484375 18.828125 43.109375 
Q 14.796875 37.75 14.796875 27.984375 
Q 14.796875 18.265625 18.828125 12.890625 
Q 22.859375 7.515625 30.078125 7.515625 
Q 37.359375 7.515625 41.375 12.890625 
Q 45.40625 18.265625 45.40625 27.984375 
z
M 54.390625 6.78125 
Q 54.390625 -7.171875 48.1875 -13.984375 
Q 42 -20.796875 29.203125 -20.796875 
Q 24.46875 -20.796875 20.265625 -20.09375 
Q 16.0625 -19.390625 12.109375 -17.921875 
L 12.109375 -9.1875 
Q 16.0625 -11.328125 19.921875 -12.34375 
Q 23.78125 -13.375 27.78125 -13.375 
Q 36.625 -13.375 41.015625 -8.765625 
Q 45.40625 -4.15625 45.40625 5.171875 
L 45.40625 9.625 
Q 42.625 4.78125 38.28125 2.390625 
Q 33.9375 0 27.875 0 
Q 17.828125 0 11.671875 7.65625 
Q 5.515625 15.328125 5.515625 27.984375 
Q 5.515625 40.671875 11.671875 48.328125 
Q 17.828125 56 27.875 56 
Q 33.9375 56 38.28125 53.609375 
Q 42.625 51.21875 45.40625 46.390625 
L 45.40625 54.6875 
L 54.390625 54.6875 
z
" id="DejaVuSans-67"/>
      <path d="M 12.40625 8.296875 
L 28.515625 8.296875 
L 28.515625 63.921875 
L 10.984375 60.40625 
L 10.984375 69.390625 
L 28.421875 72.90625 
L 38.28125 72.90625 
L 38.28125 8.296875 
L 54.390625 8.296875 
L 54.390625 0 
L 12.40625 0 
z
" id="DejaVuSans-31"/>
      <path d="M 31 75.875 
Q 24.46875 64.65625 21.28125 53.65625 
Q 18.109375 42.671875 18.109375 31.390625 
Q 18.109375 20.125 21.3125 9.0625 
Q 24.515625 -2 31 -13.1875 
L 23.1875 -13.1875 
Q 15.875 -1.703125 12.234375 9.375 
Q 8.59375 20.453125 8.59375 31.390625 
Q 8.59375 42.28125 12.203125 53.3125 
Q 15.828125 64.359375 23.1875 75.875 
z
" id="DejaVuSans-28"/>
      <path d="M 51.125 44 
L 36.921875 44 
L 32.8125 27.6875 
L 47.125 27.6875 
z
M 43.796875 71.78125 
L 38.71875 51.515625 
L 52.984375 51.515625 
L 58.109375 71.78125 
L 65.921875 71.78125 
L 60.890625 51.515625 
L 76.125 51.515625 
L 76.125 44 
L 58.984375 44 
L 54.984375 27.6875 
L 70.515625 27.6875 
L 70.515625 20.21875 
L 53.078125 20.21875 
L 48 0 
L 40.1875 0 
L 45.21875 20.21875 
L 30.90625 20.21875 
L 25.875 0 
L 18.015625 0 
L 23.09375 20.21875 
L 7.71875 20.21875 
L 7.71875 27.6875 
L 24.90625 27.6875 
L 29 44 
L 13.28125 44 
L 13.28125 51.515625 
L 30.90625 51.515625 
L 35.890625 71.78125 
z
" id="DejaVuSans-23"/>
      <path id="DejaVuSans-20"/>
      <path d="M 37.109375 75.984375 
L 37.109375 68.5 
L 28.515625 68.5 
Q 23.6875 68.5 21.796875 66.546875 
Q 19.921875 64.59375 19.921875 59.515625 
L 19.921875 54.6875 
L 34.71875 54.6875 
L 34.71875 47.703125 
L 19.921875 47.703125 
L 19.921875 0 
L 10.890625 0 
L 10.890625 47.703125 
L 2.296875 47.703125 
L 2.296875 54.6875 
L 10.890625 54.6875 
L 10.890625 58.5 
Q 10.890625 67.625 15.140625 71.796875 
Q 19.390625 75.984375 28.609375 75.984375 
z
" id="DejaVuSans-66"/>
      <path d="M 4.890625 31.390625 
L 31.203125 31.390625 
L 31.203125 23.390625 
L 4.890625 23.390625 
z
" id="DejaVuSans-2d"/>
      <path d="M 56.203125 29.59375 
L 56.203125 25.203125 
L 14.890625 25.203125 
Q 15.484375 15.921875 20.484375 11.0625 
Q 25.484375 6.203125 34.421875 6.203125 
Q 39.59375 6.203125 44.453125 7.46875 
Q 49.3125 8.734375 54.109375 11.28125 
L 54.109375 2.78125 
Q 49.265625 0.734375 44.1875 -0.34375 
Q 39.109375 -1.421875 33.890625 -1.421875 
Q 20.796875 -1.421875 13.15625 6.1875 
Q 5.515625 13.8125 5.515625 26.8125 
Q 5.515625 40.234375 12.765625 48.109375 
Q 20.015625 56 32.328125 56 
Q 43.359375 56 49.78125 48.890625 
Q 56.203125 41.796875 56.203125 29.59375 
z
M 47.21875 32.234375 
Q 47.125 39.59375 43.09375 43.984375 
Q 39.0625 48.390625 32.421875 48.390625 
Q 24.90625 48.390625 20.390625 44.140625 
Q 15.875 39.890625 15.1875 32.171875 
z
" id="DejaVuSans-65"/>
      <path d="M 2.984375 54.6875 
L 12.5 54.6875 
L 29.59375 8.796875 
L 46.6875 54.6875 
L 56.203125 54.6875 
L 35.6875 0 
L 23.484375 0 
z
" id="DejaVuSans-76"/>
      <path d="M 34.28125 27.484375 
Q 23.390625 27.484375 19.1875 25 
Q 14.984375 22.515625 14.984375 16.5 
Q 14.984375 11.71875 18.140625 8.90625 
Q 21.296875 6.109375 26.703125 6.109375 
Q 34.1875 6.109375 38.703125 11.40625 
Q 43.21875 16.703125 43.21875 25.484375 
L 43.21875 27.484375 
z
M 52.203125 31.203125 
L 52.203125 0 
L 43.21875 0 
L 43.21875 8.296875 
Q 40.140625 3.328125 35.546875 0.953125 
Q 30.953125 -1.421875 24.3125 -1.421875 
Q 15.921875 -1.421875 10.953125 3.296875 
Q 6 8.015625 6 15.921875 
Q 6 25.140625 12.171875 29.828125 
Q 18.359375 34.515625 30.609375 34.515625 
L 43.21875 34.515625 
L 43.21875 35.40625 
Q 43.21875 41.609375 39.140625 45 
Q 35.0625 48.390625 27.6875 48.390625 
Q 23 48.390625 18.546875 47.265625 
Q 14.109375 46.140625 10.015625 43.890625 
L 10.015625 52.203125 
Q 14.9375 54.109375 19.578125 55.046875 
Q 24.21875 56 28.609375 56 
Q 40.484375 56 46.34375 49.84375 
Q 52.203125 43.703125 52.203125 31.203125 
z
" id="DejaVuSans-61"/>
      <path d="M 44.28125 53.078125 
L 44.28125 44.578125 
Q 40.484375 46.53125 36.375 47.5 
Q 32.28125 48.484375 27.875 48.484375 
Q 21.1875 48.484375 17.84375 46.4375 
Q 14.5 44.390625 14.5 40.28125 
Q 14.5 37.15625 16.890625 35.375 
Q 19.28125 33.59375 26.515625 31.984375 
L 29.59375 31.296875 
Q 39.15625 29.25 43.1875 25.515625 
Q 47.21875 21.78125 47.21875 15.09375 
Q 47.21875 7.46875 41.1875 3.015625 
Q 35.15625 -1.421875 24.609375 -1.421875 
Q 20.21875 -1.421875 15.453125 -0.5625 
Q 10.6875 0.296875 5.421875 2 
L 5.421875 11.28125 
Q 10.40625 8.6875 15.234375 7.390625 
Q 20.0625 6.109375 24.8125 6.109375 
Q 31.15625 6.109375 34.5625 8.28125 
Q 37.984375 10.453125 37.984375 14.40625 
Q 37.984375 18.0625 35.515625 20.015625 
Q 33.0625 21.96875 24.703125 23.78125 
L 21.578125 24.515625 
Q 13.234375 26.265625 9.515625 29.90625 
Q 5.8125 33.546875 5.8125 39.890625 
Q 5.8125 47.609375 11.28125 51.796875 
Q 16.75 56 26.8125 56 
Q 31.78125 56 36.171875 55.265625 
Q 40.578125 54.546875 44.28125 53.078125 
z
" id="DejaVuSans-73"/>
      <path d="M 25.390625 72.90625 
L 33.6875 72.90625 
L 8.296875 -9.28125 
L 0 -9.28125 
z
" id="DejaVuSans-2f"/>
      <path d="M 45.40625 46.390625 
L 45.40625 75.984375 
L 54.390625 75.984375 
L 54.390625 0 
L 45.40625 0 
L 45.40625 8.203125 
Q 42.578125 3.328125 38.25 0.953125 
Q 33.9375 -1.421875 27.875 -1.421875 
Q 17.96875 -1.421875 11.734375 6.484375 
Q 5.515625 14.40625 5.515625 27.296875 
Q 5.515625 40.1875 11.734375 48.09375 
Q 17.96875 56 27.875 56 
Q 33.9375 56 38.25 53.625 
Q 42.578125 51.265625 45.40625 46.390625 
z
M 14.796875 27.296875 
Q 14.796875 17.390625 18.875 11.75 
Q 22.953125 6.109375 30.078125 6.109375 
Q 37.203125 6.109375 41.296875 11.75 
Q 45.40625 17.390625 45.40625 27.296875 
Q 45.40625 37.203125 41.296875 42.84375 
Q 37.203125 48.484375 30.078125 48.484375 
Q 22.953125 48.484375 18.875 42.84375 
Q 14.796875 37.203125 14.796875 27.296875 
z
" id="DejaVuSans-64"/>
      <path d="M 9.421875 54.6875 
L 18.40625 54.6875 
L 18.40625 0 
L 9.421875 0 
z
M 9.421875 75.984375 
L 18.40625 75.984375 
L 18.40625 64.59375 
L 9.421875 64.59375 
z
" id="DejaVuSans-69"/>
      <path d="M 52 44.1875 
Q 55.375 50.25 60.0625 53.125 
Q 64.75 56 71.09375 56 
Q 79.640625 56 84.28125 50.015625 
Q 88.921875 44.046875 88.921875 33.015625 
L 88.921875 0 
L 79.890625 0 
L 79.890625 32.71875 
Q 79.890625 40.578125 77.09375 44.375 
Q 74.3125 48.1875 68.609375 48.1875 
Q 61.625 48.1875 57.5625 43.546875 
Q 53.515625 38.921875 53.515625 30.90625 
L 53.515625 0 
L 44.484375 0 
L 44.484375 32.71875 
Q 44.484375 40.625 41.703125 44.40625 
Q 38.921875 48.1875 33.109375 48.1875 
Q 26.21875 48.1875 22.15625 43.53125 
Q 18.109375 38.875 18.109375 30.90625 
L 18.109375 0 
L 9.078125 0 
L 9.078125 54.6875 
L 18.109375 54.6875 
L 18.109375 46.1875 
Q 21.1875 51.21875 25.484375 53.609375 
Q 29.78125 56 35.6875 56 
Q 41.65625 56 45.828125 52.96875 
Q 50 49.953125 52 44.1875 
z
" id="DejaVuSans-6d"/>
      <path d="M 54.890625 33.015625 
L 54.890625 0 
L 45.90625 0 
L 45.90625 32.71875 
Q 45.90625 40.484375 42.875 44.328125 
Q 39.84375 48.1875 33.796875 48.1875 
Q 26.515625 48.1875 22.3125 43.546875 
Q 18.109375 38.921875 18.109375 30.90625 
L 18.109375 0 
L 9.078125 0 
L 9.078125 54.6875 
L 18.109375 54.6875 
L 18.109375 46.1875 
Q 21.34375 51.125 25.703125 53.5625 
Q 30.078125 56 35.796875 56 
Q 45.21875 56 50.046875 50.171875 
Q 54.890625 44.34375 54.890625 33.015625 
z
" id="DejaVuSans-6e"/>
      <path d="M 8.015625 75.875 
L 15.828125 75.875 
Q 23.140625 64.359375 26.78125 53.3125 
Q 30.421875 42.28125 30.421875 31.390625 
Q 30.421875 20.453125 26.78125 9.375 
Q 23.140625 -1.703125 15.828125 -13.1875 
L 8.015625 -13.1875 
Q 14.5 -2 17.703125 9.0625 
Q 20.90625 20.125 20.90625 31.390625 
Q 20.90625 42.671875 17.703125 53.65625 
Q 14.5 64.65625 8.015625 75.875 
z
" id="DejaVuSans-29"/>
     </defs>
     <g transform="translate(73.803219 338.153594)scale(0.17 -0.17)">
      <use xlink:href="#DejaVuSans-6c"/>
      <use x="27.783203" xlink:href="#DejaVuSans-6f"/>
      <use x="88.964844" xlink:href="#DejaVuSans-67"/>
      <use x="152.441406" xlink:href="#DejaVuSans-31"/>
      <use x="216.064453" xlink:href="#DejaVuSans-30"/>
      <use x="279.6875" xlink:href="#DejaVuSans-28"/>
      <use x="318.701172" xlink:href="#DejaVuSans-23"/>
      <use x="402.490234" xlink:href="#DejaVuSans-20"/>
      <use x="434.277344" xlink:href="#DejaVuSans-66"/>
      <use x="469.404297" xlink:href="#DejaVuSans-2d"/>
      <use x="505.488281" xlink:href="#DejaVuSans-65"/>
      <use x="567.011719" xlink:href="#DejaVuSans-76"/>
      <use x="626.191406" xlink:href="#DejaVuSans-61"/>
      <use x="687.470703" xlink:href="#DejaVuSans-6c"/>
      <use x="715.253906" xlink:href="#DejaVuSans-73"/>
      <use x="767.353516" xlink:href="#DejaVuSans-20"/>
      <use x="799.140625" xlink:href="#DejaVuSans-2f"/>
      <use x="832.832031" xlink:href="#DejaVuSans-20"/>
      <use x="864.619141" xlink:href="#DejaVuSans-64"/>
      <use x="928.095703" xlink:href="#DejaVuSans-69"/>
      <use x="955.878906" xlink:href="#DejaVuSans-6d"/>
      <use x="1053.291016" xlink:href="#DejaVuSans-65"/>
      <use x="1114.814453" xlink:href="#DejaVuSans-6e"/>
      <use x="1178.193359" xlink:href="#DejaVuSans-73"/>
      <use x="1230.292969" xlink:href="#DejaVuSans-69"/>
      <use x="1258.076172" xlink:href="#DejaVuSans-6f"/>
      <use x="1319.257812" xlink:href="#DejaVuSans-6e"/>
      <use x="1382.636719" xlink:href="#DejaVuSans-29"/>
     </g>
    </g>
   </g>
   <g id="matplotlib.axis_2">
    <g id="ytick_1">
     <g id="line2d_29">
      <path clip-path="url(#pfdbe81a568)" d="M 56.12 294.88 
L 333.168 294.88 
" style="fill:none;stroke:#b0b0b0;stroke-linecap:square;stroke-width:0.8;"/>
     </g>
     <g id="line2d_30">
      <defs>
       <path d="M 0 0 
L -3.5 0 
" id="m169a4c3966" style="stroke:#000000;stroke-width:0.8;"/>
      </defs>
      <g>
       <use style="stroke:#000000;stroke-width:0.8;" x="56.12" xlink:href="#m169a4c3966" y="294.88"/>
      </g>
     </g>
     <g id="text_6">
      <!-- 0.0 -->
      <defs>
       <path d="M 10.6875 12.40625 
L 21 12.40625 
L 21 0 
L 10.6875 0 
z
" id="DejaVuSans-2e"/>
      </defs>
      <g transform="translate(23.675 300.95875)scale(0.16 -0.16)">
       <use xlink:href="#DejaVuSans-30"/>
       <use x="63.623047" xlink:href="#DejaVuSans-2e"/>
       <use x="95.410156" xlink:href="#DejaVuSans-30"/>
      </g>
     </g>
    </g>
    <g id="ytick_2">
     <g id="line2d_31">
      <path clip-path="url(#pfdbe81a568)" d="M 56.12 241.406733 
L 333.168 241.406733 
" style="fill:none;stroke:#b0b0b0;stroke-linecap:square;stroke-width:0.8;"/>
     </g>
     <g id="line2d_32">
      <g>
       <use style="stroke:#000000;stroke-width:0.8;" x="56.12" xlink:href="#m169a4c3966" y="241.406733"/>
      </g>
     </g>
     <g id="text_7">
      <!-- 0.2 -->
      <g transform="translate(23.675 247.485483)scale(0.16 -0.16)">
       <use xlink:href="#DejaVuSans-30"/>
       <use x="63.623047" xlink:href="#DejaVuSans-2e"/>
       <use x="95.410156" xlink:href="#DejaVuSans-32"/>
      </g>
     </g>
    </g>
    <g id="ytick_3">
     <g id="line2d_33">
      <path clip-path="url(#pfdbe81a568)" d="M 56.12 187.933465 
L 333.168 187.933465 
" style="fill:none;stroke:#b0b0b0;stroke-linecap:square;stroke-width:0.8;"/>
     </g>
     <g id="line2d_34">
      <g>
       <use style="stroke:#000000;stroke-width:0.8;" x="56.12" xlink:href="#m169a4c3966" y="187.933465"/>
      </g>
     </g>
     <g id="text_8">
      <!-- 0.4 -->
      <g transform="translate(23.675 194.012215)scale(0.16 -0.16)">
       <use xlink:href="#DejaVuSans-30"/>
       <use x="63.623047" xlink:href="#DejaVuSans-2e"/>
       <use x="95.410156" xlink:href="#DejaVuSans-34"/>
      </g>
     </g>
    </g>
    <g id="ytick_4">
     <g id="line2d_35">
      <path clip-path="url(#pfdbe81a568)" d="M 56.12 134.460198 
L 333.168 134.460198 
" style="fill:none;stroke:#b0b0b0;stroke-linecap:square;stroke-width:0.8;"/>
     </g>
     <g id="line2d_36">
      <g>
       <use style="stroke:#000000;stroke-width:0.8;" x="56.12" xlink:href="#m169a4c3966" y="134.460198"/>
      </g>
     </g>
     <g id="text_9">
      <!-- 0.6 -->
      <g transform="translate(23.675 140.538948)scale(0.16 -0.16)">
       <use xlink:href="#DejaVuSans-30"/>
       <use x="63.623047" xlink:href="#DejaVuSans-2e"/>
       <use x="95.410156" xlink:href="#DejaVuSans-36"/>
      </g>
     </g>
    </g>
    <g id="ytick_5">
     <g id="line2d_37">
      <path clip-path="url(#pfdbe81a568)" d="M 56.12 80.986931 
L 333.168 80.986931 
" style="fill:none;stroke:#b0b0b0;stroke-linecap:square;stroke-width:0.8;"/>
     </g>
     <g id="line2d_38">
      <g>
       <use style="stroke:#000000;stroke-width:0.8;" x="56.12" xlink:href="#m169a4c3966" y="80.986931"/>
      </g>
     </g>
     <g id="text_10">
      <!-- 0.8 -->
      <defs>
       <path d="M 31.78125 34.625 
Q 24.75 34.625 20.71875 30.859375 
Q 16.703125 27.09375 16.703125 20.515625 
Q 16.703125 13.921875 20.71875 10.15625 
Q 24.75 6.390625 31.78125 6.390625 
Q 38.8125 6.390625 42.859375 10.171875 
Q 46.921875 13.96875 46.921875 20.515625 
Q 46.921875 27.09375 42.890625 30.859375 
Q 38.875 34.625 31.78125 34.625 
z
M 21.921875 38.8125 
Q 15.578125 40.375 12.03125 44.71875 
Q 8.5 49.078125 8.5 55.328125 
Q 8.5 64.0625 14.71875 69.140625 
Q 20.953125 74.21875 31.78125 74.21875 
Q 42.671875 74.21875 48.875 69.140625 
Q 55.078125 64.0625 55.078125 55.328125 
Q 55.078125 49.078125 51.53125 44.71875 
Q 48 40.375 41.703125 38.8125 
Q 48.828125 37.15625 52.796875 32.3125 
Q 56.78125 27.484375 56.78125 20.515625 
Q 56.78125 9.90625 50.3125 4.234375 
Q 43.84375 -1.421875 31.78125 -1.421875 
Q 19.734375 -1.421875 13.25 4.234375 
Q 6.78125 9.90625 6.78125 20.515625 
Q 6.78125 27.484375 10.78125 32.3125 
Q 14.796875 37.15625 21.921875 38.8125 
z
M 18.3125 54.390625 
Q 18.3125 48.734375 21.84375 45.5625 
Q 25.390625 42.390625 31.78125 42.390625 
Q 38.140625 42.390625 41.71875 45.5625 
Q 45.3125 48.734375 45.3125 54.390625 
Q 45.3125 60.0625 41.71875 63.234375 
Q 38.140625 66.40625 31.78125 66.40625 
Q 25.390625 66.40625 21.84375 63.234375 
Q 18.3125 60.0625 18.3125 54.390625 
z
" id="DejaVuSans-38"/>
      </defs>
      <g transform="translate(23.675 87.065681)scale(0.16 -0.16)">
       <use xlink:href="#DejaVuSans-30"/>
       <use x="63.623047" xlink:href="#DejaVuSans-2e"/>
       <use x="95.410156" xlink:href="#DejaVuSans-38"/>
      </g>
     </g>
    </g>
    <g id="ytick_6">
     <g id="line2d_39">
      <path clip-path="url(#pfdbe81a568)" d="M 56.12 27.513663 
L 333.168 27.513663 
" style="fill:none;stroke:#b0b0b0;stroke-linecap:square;stroke-width:0.8;"/>
     </g>
     <g id="line2d_40">
      <g>
       <use style="stroke:#000000;stroke-width:0.8;" x="56.12" xlink:href="#m169a4c3966" y="27.513663"/>
      </g>
     </g>
     <g id="text_11">
      <!-- 1.0 -->
      <g transform="translate(23.675 33.592413)scale(0.16 -0.16)">
       <use xlink:href="#DejaVuSans-31"/>
       <use x="63.623047" xlink:href="#DejaVuSans-2e"/>
       <use x="95.410156" xlink:href="#DejaVuSans-30"/>
      </g>
     </g>
    </g>
    <g id="text_12">
     <!-- Fraction of function,target pairs -->
     <defs>
      <path d="M 9.8125 72.90625 
L 51.703125 72.90625 
L 51.703125 64.59375 
L 19.671875 64.59375 
L 19.671875 43.109375 
L 48.578125 43.109375 
L 48.578125 34.8125 
L 19.671875 34.8125 
L 19.671875 0 
L 9.8125 0 
z
" id="DejaVuSans-46"/>
      <path d="M 41.109375 46.296875 
Q 39.59375 47.171875 37.8125 47.578125 
Q 36.03125 48 33.890625 48 
Q 26.265625 48 22.1875 43.046875 
Q 18.109375 38.09375 18.109375 28.8125 
L 18.109375 0 
L 9.078125 0 
L 9.078125 54.6875 
L 18.109375 54.6875 
L 18.109375 46.1875 
Q 20.953125 51.171875 25.484375 53.578125 
Q 30.03125 56 36.53125 56 
Q 37.453125 56 38.578125 55.875 
Q 39.703125 55.765625 41.0625 55.515625 
z
" id="DejaVuSans-72"/>
      <path d="M 48.78125 52.59375 
L 48.78125 44.1875 
Q 44.96875 46.296875 41.140625 47.34375 
Q 37.3125 48.390625 33.40625 48.390625 
Q 24.65625 48.390625 19.8125 42.84375 
Q 14.984375 37.3125 14.984375 27.296875 
Q 14.984375 17.28125 19.8125 11.734375 
Q 24.65625 6.203125 33.40625 6.203125 
Q 37.3125 6.203125 41.140625 7.25 
Q 44.96875 8.296875 48.78125 10.40625 
L 48.78125 2.09375 
Q 45.015625 0.34375 40.984375 -0.53125 
Q 36.96875 -1.421875 32.421875 -1.421875 
Q 20.0625 -1.421875 12.78125 6.34375 
Q 5.515625 14.109375 5.515625 27.296875 
Q 5.515625 40.671875 12.859375 48.328125 
Q 20.21875 56 33.015625 56 
Q 37.15625 56 41.109375 55.140625 
Q 45.0625 54.296875 48.78125 52.59375 
z
" id="DejaVuSans-63"/>
      <path d="M 18.3125 70.21875 
L 18.3125 54.6875 
L 36.8125 54.6875 
L 36.8125 47.703125 
L 18.3125 47.703125 
L 18.3125 18.015625 
Q 18.3125 11.328125 20.140625 9.421875 
Q 21.96875 7.515625 27.59375 7.515625 
L 36.8125 7.515625 
L 36.8125 0 
L 27.59375 0 
Q 17.1875 0 13.234375 3.875 
Q 9.28125 7.765625 9.28125 18.015625 
L 9.28125 47.703125 
L 2.6875 47.703125 
L 2.6875 54.6875 
L 9.28125 54.6875 
L 9.28125 70.21875 
z
" id="DejaVuSans-74"/>
      <path d="M 8.5 21.578125 
L 8.5 54.6875 
L 17.484375 54.6875 
L 17.484375 21.921875 
Q 17.484375 14.15625 20.5 10.265625 
Q 23.53125 6.390625 29.59375 6.390625 
Q 36.859375 6.390625 41.078125 11.03125 
Q 45.3125 15.671875 45.3125 23.6875 
L 45.3125 54.6875 
L 54.296875 54.6875 
L 54.296875 0 
L 45.3125 0 
L 45.3125 8.40625 
Q 42.046875 3.421875 37.71875 1 
Q 33.40625 -1.421875 27.6875 -1.421875 
Q 18.265625 -1.421875 13.375 4.4375 
Q 8.5 10.296875 8.5 21.578125 
z
M 31.109375 56 
z
" id="DejaVuSans-75"/>
      <path d="M 11.71875 12.40625 
L 22.015625 12.40625 
L 22.015625 4 
L 14.015625 -11.625 
L 7.71875 -11.625 
L 11.71875 4 
z
" id="DejaVuSans-2c"/>
      <path d="M 18.109375 8.203125 
L 18.109375 -20.796875 
L 9.078125 -20.796875 
L 9.078125 54.6875 
L 18.109375 54.6875 
L 18.109375 46.390625 
Q 20.953125 51.265625 25.265625 53.625 
Q 29.59375 56 35.59375 56 
Q 45.5625 56 51.78125 48.09375 
Q 58.015625 40.1875 58.015625 27.296875 
Q 58.015625 14.40625 51.78125 6.484375 
Q 45.5625 -1.421875 35.59375 -1.421875 
Q 29.59375 -1.421875 25.265625 0.953125 
Q 20.953125 3.328125 18.109375 8.203125 
z
M 48.6875 27.296875 
Q 48.6875 37.203125 44.609375 42.84375 
Q 40.53125 48.484375 33.40625 48.484375 
Q 26.265625 48.484375 22.1875 42.84375 
Q 18.109375 37.203125 18.109375 27.296875 
Q 18.109375 17.390625 22.1875 11.75 
Q 26.265625 6.109375 33.40625 6.109375 
Q 40.53125 6.109375 44.609375 11.75 
Q 48.6875 17.390625 48.6875 27.296875 
z
" id="DejaVuSans-70"/>
     </defs>
     <g transform="translate(16.139531 294.999375)rotate(-90)scale(0.17 -0.17)">
      <use xlink:href="#DejaVuSans-46"/>
      <use x="57.410156" xlink:href="#DejaVuSans-72"/>
      <use x="98.523438" xlink:href="#DejaVuSans-61"/>
      <use x="159.802734" xlink:href="#DejaVuSans-63"/>
      <use x="214.783203" xlink:href="#DejaVuSans-74"/>
      <use x="253.992188" xlink:href="#DejaVuSans-69"/>
      <use x="281.775391" xlink:href="#DejaVuSans-6f"/>
      <use x="342.957031" xlink:href="#DejaVuSans-6e"/>
      <use x="406.335938" xlink:href="#DejaVuSans-20"/>
      <use x="438.123047" xlink:href="#DejaVuSans-6f"/>
      <use x="499.304688" xlink:href="#DejaVuSans-66"/>
      <use x="534.509766" xlink:href="#DejaVuSans-20"/>
      <use x="566.296875" xlink:href="#DejaVuSans-66"/>
      <use x="601.501953" xlink:href="#DejaVuSans-75"/>
      <use x="664.880859" xlink:href="#DejaVuSans-6e"/>
      <use x="728.259766" xlink:href="#DejaVuSans-63"/>
      <use x="783.240234" xlink:href="#DejaVuSans-74"/>
      <use x="822.449219" xlink:href="#DejaVuSans-69"/>
      <use x="850.232422" xlink:href="#DejaVuSans-6f"/>
      <use x="911.414062" xlink:href="#DejaVuSans-6e"/>
      <use x="974.792969" xlink:href="#DejaVuSans-2c"/>
      <use x="1006.580078" xlink:href="#DejaVuSans-74"/>
      <use x="1045.789062" xlink:href="#DejaVuSans-61"/>
      <use x="1107.068359" xlink:href="#DejaVuSans-72"/>
      <use x="1148.166016" xlink:href="#DejaVuSans-67"/>
      <use x="1211.642578" xlink:href="#DejaVuSans-65"/>
      <use x="1273.166016" xlink:href="#DejaVuSans-74"/>
      <use x="1312.375" xlink:href="#DejaVuSans-20"/>
      <use x="1344.162109" xlink:href="#DejaVuSans-70"/>
      <use x="1407.638672" xlink:href="#DejaVuSans-61"/>
      <use x="1468.917969" xlink:href="#DejaVuSans-69"/>
      <use x="1496.701172" xlink:href="#DejaVuSans-72"/>
      <use x="1537.814453" xlink:href="#DejaVuSans-73"/>
     </g>
    </g>
   </g>
   <g id="line2d_41">
    <defs>
     <path d="M 0 1.5 
C 0.397805 1.5 0.77937 1.341951 1.06066 1.06066 
C 1.341951 0.77937 1.5 0.397805 1.5 0 
C 1.5 -0.397805 1.341951 -0.77937 1.06066 -1.06066 
C 0.77937 -1.341951 0.397805 -1.5 0 -1.5 
C -0.397805 -1.5 -0.77937 -1.341951 -1.06066 -1.06066 
C -1.341951 -0.77937 -1.5 -0.397805 -1.5 0 
C -1.5 0.397805 -1.341951 0.77937 -1.06066 1.06066 
C -0.77937 1.341951 -0.397805 1.5 0 1.5 
z
" id="me4d740b973" style="stroke:#f5deb3;"/>
    </defs>
    <g>
     <use style="fill:#f5deb3;stroke:#f5deb3;" x="151.85189" xlink:href="#me4d740b973" y="27.513663"/>
     <use style="fill:#f5deb3;stroke:#f5deb3;" x="151.85189" xlink:href="#me4d740b973" y="27.513663"/>
    </g>
   </g>
   <g id="line2d_42">
    <defs>
     <path d="M 0 1.5 
C 0.397805 1.5 0.77937 1.341951 1.06066 1.06066 
C 1.341951 0.77937 1.5 0.397805 1.5 0 
C 1.5 -0.397805 1.341951 -0.77937 1.06066 -1.06066 
C 0.77937 -1.341951 0.397805 -1.5 0 -1.5 
C -0.397805 -1.5 -0.77937 -1.341951 -1.06066 -1.06066 
C -1.341951 -0.77937 -1.5 -0.397805 -1.5 0 
C -1.5 0.397805 -1.341951 0.77937 -1.06066 1.06066 
C -0.77937 1.341951 -0.397805 1.5 0 1.5 
z
" id="mcd09f0d5ca" style="stroke:#000080;"/>
    </defs>
    <g>
     <use style="fill:#000080;stroke:#000080;" x="237.168535" xlink:href="#mcd09f0d5ca" y="27.513663"/>
     <use style="fill:#000080;stroke:#000080;" x="237.168535" xlink:href="#mcd09f0d5ca" y="27.513663"/>
    </g>
   </g>
   <g id="line2d_43">
    <path d="M 113.700266 294.88 
L 113.700266 294.355752 
L 122.516807 294.355752 
L 122.516807 293.831505 
L 123.430938 293.831505 
L 123.430938 293.307257 
L 124.200956 293.307257 
L 124.200956 292.783009 
L 126.892639 292.783009 
L 126.92061 291.734514 
L 127.087492 291.734514 
L 127.087492 291.210266 
L 128.596932 291.210266 
L 128.596932 290.686018 
L 128.898495 290.686018 
L 128.898495 290.161771 
L 129.582224 290.161771 
L 129.677716 289.113275 
L 130.239792 289.113275 
L 130.285813 288.06478 
L 131.333273 288.06478 
L 131.333273 287.540532 
L 131.990784 287.540532 
L 131.990784 287.016284 
L 132.961694 287.016284 
L 132.961694 286.492036 
L 134.73529 286.492036 
L 134.73529 285.967789 
L 135.121173 285.967789 
L 135.121173 285.443541 
L 135.73451 285.443541 
L 135.73451 284.919293 
L 136.503668 284.919293 
L 136.503668 284.395046 
L 136.82081 284.395046 
L 136.82081 283.870798 
L 137.543839 283.870798 
L 137.543839 283.34655 
L 137.768335 283.34655 
L 137.768335 282.822302 
L 138.736761 282.822302 
L 138.736761 282.298055 
L 140.307161 282.298055 
L 140.307161 281.773807 
L 140.850072 281.773807 
L 140.850072 281.249559 
L 141.023196 281.249559 
L 141.023196 280.725312 
L 142.1079 280.725312 
L 142.1079 280.201064 
L 142.314579 280.201064 
L 142.314579 279.676816 
L 142.82066 279.676816 
L 142.82066 279.152568 
L 144.039767 279.152568 
L 144.039767 278.628321 
L 144.173452 278.628321 
L 144.173452 278.104073 
L 144.885776 278.104073 
L 144.885776 277.579825 
L 145.503514 277.579825 
L 145.503514 277.055578 
L 145.794933 277.055578 
L 145.794933 276.53133 
L 146.782068 276.53133 
L 146.782068 276.007082 
L 147.404349 276.007082 
L 147.404349 275.482834 
L 149.046458 275.482834 
L 149.046458 274.958587 
L 149.352314 274.958587 
L 149.352314 274.434339 
L 149.786355 274.434339 
L 149.786355 273.385844 
L 150.846657 273.385844 
L 150.846657 272.861596 
L 151.176953 272.861596 
L 151.176953 272.337348 
L 151.759902 272.337348 
L 151.759902 271.8131 
L 152.234235 271.8131 
L 152.298205 270.764605 
L 153.224185 270.764605 
L 153.224185 270.240357 
L 153.946902 270.240357 
L 153.946902 269.716109 
L 155.530748 269.716109 
L 155.530748 269.191862 
L 156.062075 269.191862 
L 156.062075 268.667614 
L 156.726161 268.667614 
L 156.726161 268.143366 
L 156.878469 268.143366 
L 156.878469 267.619119 
L 157.460375 267.619119 
L 157.460375 267.094871 
L 157.57349 267.094871 
L 157.57349 266.570623 
L 158.046091 266.570623 
L 158.046091 266.046375 
L 158.354091 266.046375 
L 158.354091 265.522128 
L 159.845207 265.522128 
L 159.845207 264.473632 
L 161.247608 264.473632 
L 161.247608 263.949385 
L 161.895329 263.949385 
L 161.895329 263.425137 
L 162.087869 263.425137 
L 162.174353 262.376641 
L 162.733095 262.376641 
L 162.733095 261.852394 
L 162.96122 261.852394 
L 163.029755 260.803898 
L 163.565102 260.803898 
L 163.565102 260.279651 
L 163.912956 260.279651 
L 163.912956 259.755403 
L 165.77683 259.755403 
L 165.77683 259.231155 
L 166.163043 259.231155 
L 166.24266 258.18266 
L 166.487713 258.18266 
L 166.487713 257.658412 
L 166.899453 257.658412 
L 166.899453 257.134164 
L 167.336201 257.134164 
L 167.336201 256.609917 
L 167.497822 256.609917 
L 167.589874 255.561421 
L 167.668385 255.561421 
L 167.668385 255.037173 
L 167.795853 255.037173 
L 167.894059 253.988678 
L 167.909514 253.988678 
L 168.019871 252.940182 
L 168.899997 252.940182 
L 168.899997 252.415935 
L 169.616443 252.415935 
L 169.616443 251.891687 
L 171.454235 251.891687 
L 171.55658 250.843192 
L 171.58363 250.843192 
L 171.683143 249.270448 
L 172.31829 249.270448 
L 172.31829 248.746201 
L 172.510455 248.746201 
L 172.510455 248.221953 
L 173.305413 248.221953 
L 173.305413 247.697705 
L 173.563051 247.697705 
L 173.563051 247.173458 
L 174.047219 247.173458 
L 174.106567 246.124962 
L 174.190742 246.124962 
L 174.190742 245.600714 
L 174.533889 245.600714 
L 174.533889 245.076467 
L 175.029293 245.076467 
L 175.12093 244.027971 
L 175.56533 244.027971 
L 175.56533 243.503724 
L 175.974389 243.503724 
L 175.974389 242.979476 
L 176.631621 242.979476 
L 176.707406 241.406733 
L 176.778249 241.406733 
L 176.778249 240.882485 
L 176.99815 240.882485 
L 176.99815 240.358237 
L 177.325791 240.358237 
L 177.325791 239.83399 
L 177.569689 239.83399 
L 177.647304 238.785494 
L 178.078719 238.785494 
L 178.078719 238.261246 
L 178.382376 238.261246 
L 178.382376 237.736999 
L 178.502352 237.736999 
L 178.502352 237.212751 
L 178.836898 237.212751 
L 178.884551 236.164255 
L 179.034813 236.164255 
L 179.034813 235.640008 
L 179.379078 235.640008 
L 179.397563 234.591512 
L 179.531644 234.591512 
L 179.531644 234.067265 
L 179.79542 234.067265 
L 179.79542 233.543017 
L 179.911083 233.543017 
L 179.911083 233.018769 
L 180.247193 233.018769 
L 180.247193 232.494521 
L 180.726526 232.494521 
L 180.799659 231.446026 
L 180.963079 231.446026 
L 180.965489 230.397531 
L 181.167872 230.397531 
L 181.167872 229.873283 
L 181.644549 229.873283 
L 181.688495 228.30054 
L 181.812784 228.30054 
L 181.812784 227.776292 
L 182.311172 227.776292 
L 182.408917 226.727797 
L 182.596182 226.727797 
L 182.596182 226.203549 
L 182.7141 226.203549 
L 182.820404 225.155053 
L 183.153467 225.155053 
L 183.224383 224.106558 
L 183.269743 224.106558 
L 183.269743 223.58231 
L 183.783463 223.58231 
L 183.839607 222.533815 
L 184.034174 222.533815 
L 184.034174 222.009567 
L 184.213605 222.009567 
L 184.321957 220.961072 
L 184.329883 220.961072 
L 184.384272 219.912576 
L 184.484687 219.912576 
L 184.498424 218.864081 
L 184.968606 218.864081 
L 184.968606 218.339833 
L 185.249734 218.339833 
L 185.249734 217.815585 
L 185.395575 217.815585 
L 185.506 216.242842 
L 185.585364 216.242842 
L 185.667112 215.194347 
L 185.697324 215.194347 
L 185.712868 213.621604 
L 185.821279 213.621604 
L 185.899203 212.04886 
L 186.090695 212.04886 
L 186.090695 211.524613 
L 186.480508 211.524613 
L 186.480508 211.000365 
L 186.608506 211.000365 
L 186.70798 209.95187 
L 186.956301 209.95187 
L 187.055478 208.903374 
L 187.104432 208.903374 
L 187.179281 207.854879 
L 187.397748 207.854879 
L 187.448216 206.282136 
L 187.523231 206.282136 
L 187.523231 205.757888 
L 187.910368 205.757888 
L 187.959355 204.185145 
L 188.106281 204.185145 
L 188.106281 203.660897 
L 188.23303 203.660897 
L 188.33376 202.088154 
L 188.492311 202.088154 
L 188.593084 201.039658 
L 188.737013 201.039658 
L 188.737013 200.515411 
L 189.259384 200.515411 
L 189.299488 199.466915 
L 189.387534 199.466915 
L 189.387534 198.942667 
L 189.506675 198.942667 
L 189.57689 197.894172 
L 189.702703 197.894172 
L 189.759128 196.321429 
L 189.841263 196.321429 
L 189.88792 195.272933 
L 190.001518 195.272933 
L 190.107294 194.224438 
L 190.170872 194.224438 
L 190.247559 193.175943 
L 190.346254 193.175943 
L 190.346254 192.651695 
L 190.559203 192.651695 
L 190.590884 191.603199 
L 190.834117 191.603199 
L 190.880188 190.030456 
L 190.970616 190.030456 
L 191.072618 188.981961 
L 191.138729 188.981961 
L 191.203924 187.933465 
L 191.393439 187.933465 
L 191.393439 187.409218 
L 191.572441 187.409218 
L 191.650253 186.360722 
L 191.95739 186.360722 
L 191.95739 185.836474 
L 192.086548 185.836474 
L 192.086548 185.312227 
L 192.278482 185.312227 
L 192.318356 184.263731 
L 192.469531 184.263731 
L 192.489259 182.690988 
L 192.595523 182.690988 
L 192.595523 182.16674 
L 192.732753 182.16674 
L 192.732753 181.642493 
L 192.864676 181.642493 
L 192.932061 180.06975 
L 193.101756 180.06975 
L 193.101756 179.545502 
L 193.404099 179.545502 
L 193.485113 177.972759 
L 193.704661 177.972759 
L 193.704661 177.448511 
L 194.047393 177.448511 
L 194.047393 176.924263 
L 194.196995 176.924263 
L 194.264921 175.875768 
L 194.466554 175.875768 
L 194.53452 174.303025 
L 194.750328 174.303025 
L 194.750328 173.778777 
L 194.897709 173.778777 
L 194.973062 172.206034 
L 195.106917 172.206034 
L 195.188734 171.157538 
L 195.237113 171.157538 
L 195.259153 169.584795 
L 195.648566 169.584795 
L 195.66394 168.5363 
L 195.875214 168.5363 
L 195.975108 165.915061 
L 195.998735 165.915061 
L 195.998735 165.390813 
L 196.112892 165.390813 
L 196.126859 164.342318 
L 196.286671 164.342318 
L 196.338957 163.293823 
L 196.429341 163.293823 
L 196.535815 162.245327 
L 196.561601 162.245327 
L 196.672093 160.148336 
L 196.751132 160.148336 
L 196.782838 159.099841 
L 196.937645 159.099841 
L 197.004581 158.051345 
L 197.084939 158.051345 
L 197.166332 155.430107 
L 197.220692 155.430107 
L 197.272549 154.381611 
L 197.360487 154.381611 
L 197.360487 153.857364 
L 197.488102 153.857364 
L 197.523537 152.808868 
L 197.665004 152.808868 
L 197.722357 151.760373 
L 197.787217 151.760373 
L 197.848676 149.139134 
L 197.916208 149.139134 
L 198.004052 146.517896 
L 198.077655 146.517896 
L 198.151388 143.896657 
L 198.206702 143.896657 
L 198.308017 140.751171 
L 198.318993 140.751171 
L 198.414413 138.65418 
L 198.523625 138.65418 
L 198.627837 136.032941 
L 198.670033 136.032941 
L 198.670033 135.508693 
L 198.826289 135.508693 
L 198.936734 133.411703 
L 199.032584 133.411703 
L 199.139206 129.217721 
L 199.442417 129.217721 
L 199.546533 127.644978 
L 199.621564 127.644978 
L 199.722582 125.547987 
L 199.761371 125.547987 
L 199.848327 124.499491 
L 199.939239 124.499491 
L 199.939239 123.975244 
L 200.108959 123.975244 
L 200.185124 122.4025 
L 200.234667 122.4025 
L 200.312624 120.829757 
L 200.357124 120.829757 
L 200.368815 119.781262 
L 200.501537 119.781262 
L 200.597528 118.732766 
L 200.708271 118.732766 
L 200.815268 116.635776 
L 200.840682 116.635776 
L 200.840682 116.111528 
L 201.012656 116.111528 
L 201.012656 115.58728 
L 201.130457 115.58728 
L 201.208546 114.538785 
L 201.283325 114.538785 
L 201.380937 112.966042 
L 201.749404 112.966042 
L 201.749404 112.441794 
L 202.102038 112.441794 
L 202.102038 111.917546 
L 202.37979 111.917546 
L 202.448964 110.344803 
L 202.697411 110.344803 
L 202.697411 109.820555 
L 202.988207 109.820555 
L 203.068304 108.77206 
L 203.116847 108.77206 
L 203.165584 107.723564 
L 203.228045 107.723564 
L 203.30966 106.675069 
L 203.365711 106.675069 
L 203.457748 104.05383 
L 203.51494 104.05383 
L 203.592302 103.005335 
L 203.778925 103.005335 
L 203.778925 102.481087 
L 203.951846 102.481087 
L 204.042064 101.432592 
L 204.08323 101.432592 
L 204.08323 100.908344 
L 204.610821 100.908344 
L 204.610821 100.384096 
L 204.786159 100.384096 
L 204.861917 98.811353 
L 204.940628 98.811353 
L 204.98923 97.762858 
L 205.114129 97.762858 
L 205.114129 97.23861 
L 205.226677 97.23861 
L 205.226677 96.714362 
L 205.524215 96.714362 
L 205.612883 95.665867 
L 205.677083 95.665867 
L 205.723079 94.617371 
L 205.936584 94.617371 
L 206.025398 93.044628 
L 206.232711 93.044628 
L 206.308986 90.947637 
L 206.494387 90.947637 
L 206.494387 90.42339 
L 206.714206 90.42339 
L 206.714206 89.374894 
L 206.903037 89.374894 
L 206.903037 88.850646 
L 207.07347 88.850646 
L 207.07347 88.326399 
L 207.246409 88.326399 
L 207.246409 87.802151 
L 207.60992 87.802151 
L 207.643633 86.753656 
L 207.811714 86.753656 
L 207.811714 86.229408 
L 208.328152 86.229408 
L 208.328152 85.70516 
L 208.515915 85.70516 
L 208.615062 83.608169 
L 208.691089 83.608169 
L 208.793529 82.035426 
L 208.851182 82.035426 
L 208.851182 81.511178 
L 209.475443 81.511178 
L 209.568993 80.462683 
L 209.812027 80.462683 
L 209.812027 79.938435 
L 210.282552 79.938435 
L 210.282552 79.414188 
L 210.425076 79.414188 
L 210.51944 78.365692 
L 210.689538 78.365692 
L 210.689538 77.841444 
L 210.889685 77.841444 
L 210.909319 76.792949 
L 211.067261 76.792949 
L 211.067261 76.268701 
L 211.290551 76.268701 
L 211.290551 75.744454 
L 211.480594 75.744454 
L 211.480594 75.220206 
L 212.444372 75.220206 
L 212.444372 74.695958 
L 212.7428 74.695958 
L 212.775199 73.647463 
L 213.722693 73.647463 
L 213.722693 73.123215 
L 214.125129 73.123215 
L 214.125129 72.598967 
L 214.829715 72.598967 
L 214.829715 72.074719 
L 214.943388 72.074719 
L 214.943388 71.550472 
L 215.136357 71.550472 
L 215.136357 71.026224 
L 215.39233 71.026224 
L 215.39233 70.501976 
L 215.651274 70.501976 
L 215.651274 69.977729 
L 215.796375 69.977729 
L 215.899116 68.929233 
L 215.936167 68.929233 
L 216.032285 67.35649 
L 216.073426 67.35649 
L 216.073426 66.832242 
L 216.238404 66.832242 
L 216.242582 65.783747 
L 216.378499 65.783747 
L 216.378499 65.259499 
L 216.72555 65.259499 
L 216.733069 64.211004 
L 216.872934 64.211004 
L 216.872934 63.686756 
L 217.199562 63.686756 
L 217.199562 63.162508 
L 217.375285 63.162508 
L 217.458226 62.114013 
L 217.534885 62.114013 
L 217.617633 61.065517 
L 217.654155 61.065517 
L 217.654155 60.54127 
L 217.866467 60.54127 
L 217.90387 59.492774 
L 218.209444 59.492774 
L 218.259597 58.444279 
L 218.360697 58.444279 
L 218.410275 57.395783 
L 218.474526 57.395783 
L 218.568023 55.82304 
L 218.607033 55.82304 
L 218.675121 54.774545 
L 218.823946 54.774545 
L 218.831932 53.726049 
L 219.031054 53.726049 
L 219.031054 53.201802 
L 219.188446 53.201802 
L 219.29707 51.629058 
L 219.346864 51.629058 
L 219.425465 50.580563 
L 219.705994 50.580563 
L 219.788638 49.00782 
L 219.908927 49.00782 
L 219.908927 48.483572 
L 220.053063 48.483572 
L 220.10838 46.386581 
L 220.212834 46.386581 
L 220.217868 45.338086 
L 220.429439 45.338086 
L 220.514719 44.28959 
L 221.356291 44.28959 
L 221.379255 43.241095 
L 221.839258 43.241095 
L 221.839258 42.716847 
L 221.959046 42.716847 
L 221.959046 42.192599 
L 222.520991 42.192599 
L 222.625895 40.619856 
L 222.652554 40.619856 
L 222.652554 40.095609 
L 223.595523 40.095609 
L 223.595523 39.571361 
L 223.742259 39.571361 
L 223.742259 39.047113 
L 223.998657 39.047113 
L 224.062875 37.998618 
L 224.329363 37.998618 
L 224.399195 36.950122 
L 225.510455 36.950122 
L 225.510455 36.425875 
L 226.190001 36.425875 
L 226.190001 35.901627 
L 226.764278 35.901627 
L 226.808428 34.328884 
L 226.907956 34.328884 
L 226.907956 33.804636 
L 227.024023 33.804636 
L 227.027659 32.756141 
L 228.124003 32.756141 
L 228.127955 31.707645 
L 230.960689 31.707645 
L 230.960689 31.183397 
L 232.048681 31.183397 
L 232.048681 30.65915 
L 232.604483 30.65915 
L 232.604483 30.134902 
L 233.135697 30.134902 
L 233.135697 29.610654 
L 233.535176 29.610654 
L 233.535176 29.086407 
L 233.829921 29.086407 
L 233.829921 28.562159 
L 235.289542 28.562159 
L 235.289542 28.037911 
L 237.168535 28.037911 
L 237.168535 27.513663 
L 333.168 27.513663 
L 333.168 27.513663 
" style="fill:none;stroke:#000080;stroke-linecap:square;stroke-width:1.5;"/>
   </g>
   <g id="line2d_44">
    <defs>
     <path d="M 0 6 
C 1.591219 6 3.117479 5.367802 4.242641 4.242641 
C 5.367802 3.117479 6 1.591219 6 0 
C 6 -1.591219 5.367802 -3.117479 4.242641 -4.242641 
C 3.117479 -5.367802 1.591219 -6 0 -6 
C -1.591219 -6 -3.117479 -5.367802 -4.242641 -4.242641 
C -5.367802 -3.117479 -6 -1.591219 -6 0 
C -6 1.591219 -5.367802 3.117479 -4.242641 4.242641 
C -3.117479 5.367802 -1.591219 6 0 6 
z
" id="m6d1d615b20" style="stroke:#000080;stroke-width:1.5;"/>
    </defs>
    <g>
     <use style="fill:none;stroke:#000080;stroke-width:1.5;" x="194.920189" xlink:href="#m6d1d615b20" y="172.730281"/>
     <use style="fill:none;stroke:#000080;stroke-width:1.5;" x="218.360697" xlink:href="#m6d1d615b20" y="57.920031"/>
     <use style="fill:none;stroke:#000080;stroke-width:1.5;" x="237.168535" xlink:href="#m6d1d615b20" y="27.513663"/>
     <use style="fill:none;stroke:#000080;stroke-width:1.5;" x="237.168535" xlink:href="#m6d1d615b20" y="27.513663"/>
     <use style="fill:none;stroke:#000080;stroke-width:1.5;" x="333.168" xlink:href="#m6d1d615b20" y="27.513663"/>
    </g>
   </g>
   <g id="line2d_45">
    <path style="fill:none;stroke:#000080;stroke-linecap:square;stroke-width:1.5;"/>
    <g/>
   </g>
   <g id="line2d_46">
    <path clip-path="url(#pfdbe81a568)" d="M 208.371006 85.70516 
" style="fill:none;stroke:#000080;stroke-linecap:square;stroke-width:1.5;"/>
    <defs>
     <path d="M -12 12 
L 12 -12 
M -12 -12 
L 12 12 
" id="m16c732b33a" style="stroke:#000080;"/>
    </defs>
    <g clip-path="url(#pfdbe81a568)">
     <use style="fill:#000080;stroke:#000080;" x="208.371006" xlink:href="#m16c732b33a" y="85.70516"/>
    </g>
   </g>
   <g id="line2d_47">
    <defs>
     <path d="M 0 1.5 
C 0.397805 1.5 0.77937 1.341951 1.06066 1.06066 
C 1.341951 0.77937 1.5 0.397805 1.5 0 
C 1.5 -0.397805 1.341951 -0.77937 1.06066 -1.06066 
C 0.77937 -1.341951 0.397805 -1.5 0 -1.5 
C -0.397805 -1.5 -0.77937 -1.341951 -1.06066 -1.06066 
C -1.341951 -0.77937 -1.5 -0.397805 -1.5 0 
C -1.5 0.397805 -1.341951 0.77937 -1.06066 1.06066 
C -0.77937 1.341951 -0.397805 1.5 0 1.5 
z
" id="ma09e82bbdc" style="stroke:#ff00ff;"/>
    </defs>
    <g>
     <use style="fill:#ff00ff;stroke:#ff00ff;" x="217.455631" xlink:href="#ma09e82bbdc" y="27.513663"/>
     <use style="fill:#ff00ff;stroke:#ff00ff;" x="217.455631" xlink:href="#ma09e82bbdc" y="27.513663"/>
    </g>
   </g>
   <g id="line2d_48">
    <path d="M 104.305927 294.88 
L 104.305927 294.355752 
L 115.851649 294.355752 
L 115.851649 293.831505 
L 116.168013 293.831505 
L 116.168013 293.307257 
L 117.475381 293.307257 
L 117.475381 292.783009 
L 120.365424 292.783009 
L 120.365424 292.258761 
L 122.624799 292.258761 
L 122.624799 291.734514 
L 123.903739 291.734514 
L 123.903739 291.210266 
L 125.972626 291.210266 
L 125.972626 290.686018 
L 128.948245 290.686018 
L 128.948245 290.161771 
L 129.462107 290.161771 
L 129.462107 289.637523 
L 129.890654 289.637523 
L 129.890654 289.113275 
L 131.224827 289.113275 
L 131.224827 288.589027 
L 131.633332 288.589027 
L 131.633332 288.06478 
L 131.781419 288.06478 
L 131.781419 287.540532 
L 133.331356 287.540532 
L 133.427329 286.492036 
L 134.158073 286.492036 
L 134.158073 285.967789 
L 135.293751 285.967789 
L 135.3623 284.395046 
L 135.667432 284.395046 
L 135.667432 283.34655 
L 135.901068 283.34655 
L 135.983745 282.298055 
L 137.573942 282.298055 
L 137.573942 281.773807 
L 137.827708 281.773807 
L 137.827708 281.249559 
L 138.750809 281.249559 
L 138.750809 280.725312 
L 138.918505 280.725312 
L 138.918505 280.201064 
L 140.035654 280.201064 
L 140.139592 279.152568 
L 140.924482 279.152568 
L 140.924482 278.628321 
L 141.218941 278.628321 
L 141.328075 277.579825 
L 141.639516 277.579825 
L 141.639516 277.055578 
L 141.922075 277.055578 
L 141.922075 276.53133 
L 142.16556 276.53133 
L 142.21155 274.958587 
L 142.348785 274.958587 
L 142.348785 274.434339 
L 143.182539 274.434339 
L 143.290712 272.861596 
L 143.842493 272.861596 
L 143.915437 271.8131 
L 144.214377 271.8131 
L 144.214377 271.288853 
L 144.326422 271.288853 
L 144.326422 270.764605 
L 144.934844 270.764605 
L 144.934844 270.240357 
L 145.120037 270.240357 
L 145.120037 269.716109 
L 145.312845 269.716109 
L 145.312845 269.191862 
L 145.456044 269.191862 
L 145.456044 268.143366 
L 145.794933 268.143366 
L 145.794933 267.619119 
L 146.560619 267.619119 
L 146.649541 266.570623 
L 146.782068 266.570623 
L 146.782068 266.046375 
L 146.939763 266.046375 
L 146.939763 265.522128 
L 147.139179 265.522128 
L 147.139179 264.99788 
L 147.310724 264.99788 
L 147.310724 264.473632 
L 147.548046 264.473632 
L 147.548046 263.949385 
L 147.798735 263.949385 
L 147.798735 263.425137 
L 148.224786 263.425137 
L 148.281341 261.852394 
L 148.465865 261.852394 
L 148.545479 260.803898 
L 148.782132 260.803898 
L 148.782132 260.279651 
L 149.031022 260.279651 
L 149.031022 259.755403 
L 149.161793 259.755403 
L 149.161793 258.706907 
L 149.600611 258.706907 
L 149.600611 258.18266 
L 149.992034 258.18266 
L 150.043071 256.609917 
L 150.245718 256.609917 
L 150.274474 255.561421 
L 150.693124 255.561421 
L 150.693124 255.037173 
L 150.915994 255.037173 
L 150.915994 254.512926 
L 151.210997 254.512926 
L 151.210997 253.988678 
L 151.56111 253.988678 
L 151.640903 252.940182 
L 151.700505 252.940182 
L 151.700505 252.415935 
L 152.247048 252.415935 
L 152.317349 249.794696 
L 152.361937 249.794696 
L 152.419095 248.746201 
L 152.633326 248.746201 
L 152.702068 247.697705 
L 152.770536 247.697705 
L 152.807768 246.64921 
L 153.004986 246.64921 
L 153.072261 244.027971 
L 153.187846 244.027971 
L 153.187846 243.503724 
L 153.882971 243.503724 
L 153.882971 242.979476 
L 154.039469 242.979476 
L 154.131541 241.93098 
L 154.200273 241.93098 
L 154.297175 240.882485 
L 154.489355 240.882485 
L 154.573462 239.309742 
L 154.734911 239.309742 
L 154.734911 238.785494 
L 155.172583 238.785494 
L 155.2319 237.736999 
L 155.477762 237.736999 
L 155.498976 236.688503 
L 155.609922 236.688503 
L 155.609922 236.164255 
L 155.730618 236.164255 
L 155.772401 235.11576 
L 155.891966 235.11576 
L 155.891966 234.591512 
L 156.041545 234.591512 
L 156.097943 233.018769 
L 156.245749 233.018769 
L 156.245749 232.494521 
L 156.487633 232.494521 
L 156.5376 231.446026 
L 156.612279 231.446026 
L 156.612279 230.921778 
L 156.961424 230.921778 
L 156.961424 230.397531 
L 157.082693 230.397531 
L 157.174289 228.30054 
L 157.246258 228.30054 
L 157.346511 226.727797 
L 157.676528 226.727797 
L 157.737126 225.155053 
L 157.788234 225.155053 
L 157.899218 223.58231 
L 158.046091 223.58231 
L 158.141799 222.009567 
L 158.318141 222.009567 
L 158.389966 220.961072 
L 158.434704 220.961072 
L 158.434704 220.436824 
L 158.762201 220.436824 
L 158.762201 219.912576 
L 159.139417 219.912576 
L 159.139417 219.388328 
L 159.25056 219.388328 
L 159.356754 217.815585 
L 159.411718 217.815585 
L 159.483328 216.76709 
L 159.537889 216.76709 
L 159.608977 215.718594 
L 159.66314 215.718594 
L 159.696387 213.097356 
L 159.853438 213.097356 
L 159.923235 212.04886 
L 160.013143 212.04886 
L 160.04572 211.000365 
L 160.183489 211.000365 
L 160.183489 210.476117 
L 160.344169 210.476117 
L 160.344169 209.95187 
L 160.479576 209.95187 
L 160.554783 207.854879 
L 160.629662 207.854879 
L 160.629662 207.330631 
L 160.805716 207.330631 
L 160.844596 206.282136 
L 160.98769 206.282136 
L 161.083705 204.709392 
L 161.251401 204.709392 
L 161.319534 203.136649 
L 161.424987 203.136649 
L 161.484956 201.039658 
L 161.641386 201.039658 
L 161.744888 199.991163 
L 161.792731 199.991163 
L 161.884365 197.369924 
L 162.185133 197.369924 
L 162.267556 194.748686 
L 162.313968 194.748686 
L 162.331786 193.70019 
L 162.487789 193.70019 
L 162.565263 192.127447 
L 162.65288 192.127447 
L 162.65288 191.603199 
L 162.764382 191.603199 
L 162.857902 190.030456 
L 162.878615 190.030456 
L 162.878615 189.506209 
L 163.118445 189.506209 
L 163.220213 188.457713 
L 163.264126 188.457713 
L 163.375097 185.836474 
L 163.408583 185.836474 
L 163.408583 185.312227 
L 163.5452 185.312227 
L 163.5452 184.787979 
L 163.687324 184.787979 
L 163.792333 183.215236 
L 163.883693 183.215236 
L 163.883693 182.16674 
L 164.003678 182.16674 
L 164.077844 180.06975 
L 164.301615 180.06975 
L 164.380833 177.972759 
L 164.459688 177.972759 
L 164.550708 174.827272 
L 164.603841 174.827272 
L 164.603841 174.303025 
L 164.845546 174.303025 
L 164.93455 172.730281 
L 164.98346 172.730281 
L 165.06568 171.681786 
L 165.363835 171.681786 
L 165.438316 168.5363 
L 165.497669 168.5363 
L 165.497669 168.012052 
L 165.829217 168.012052 
L 165.933514 165.915061 
L 165.95372 165.915061 
L 165.982546 164.866566 
L 166.105948 164.866566 
L 166.108807 163.81807 
L 166.336023 163.81807 
L 166.426075 161.196832 
L 166.588101 161.196832 
L 166.682377 160.148336 
L 166.710007 160.148336 
L 166.770637 158.575593 
L 166.828312 158.575593 
L 166.9131 156.478602 
L 166.975738 156.478602 
L 167.065213 153.857364 
L 167.189163 153.857364 
L 167.256155 152.28462 
L 167.384051 152.28462 
L 167.442353 151.236125 
L 167.595119 151.236125 
L 167.626557 149.663382 
L 167.782889 149.663382 
L 167.84761 147.042143 
L 167.937813 147.042143 
L 168.022429 145.4694 
L 168.053096 145.4694 
L 168.086256 144.420905 
L 168.185356 144.420905 
L 168.271286 141.799666 
L 168.311576 141.799666 
L 168.386866 140.751171 
L 168.44187 140.751171 
L 168.548871 138.65418 
L 168.608305 138.65418 
L 168.689691 137.605684 
L 168.736376 137.605684 
L 168.834248 136.032941 
L 168.880542 136.032941 
L 168.967918 134.984446 
L 169.018682 134.984446 
L 169.122163 133.411703 
L 169.256002 133.411703 
L 169.315417 131.838959 
L 169.381718 131.838959 
L 169.454826 130.790464 
L 169.506521 130.790464 
L 169.506521 130.266216 
L 169.700165 130.266216 
L 169.806554 125.023739 
L 169.838803 125.023739 
L 169.907704 123.450996 
L 169.96948 123.450996 
L 170.049232 121.354005 
L 170.225643 121.354005 
L 170.225643 120.829757 
L 170.348956 120.829757 
L 170.44253 118.732766 
L 170.475826 118.732766 
L 170.548852 116.111528 
L 170.623767 116.111528 
L 170.689599 114.014537 
L 170.82051 114.014537 
L 170.896418 111.917546 
L 170.963371 111.917546 
L 171.062243 110.869051 
L 171.215866 110.869051 
L 171.311188 108.77206 
L 171.357598 108.77206 
L 171.439564 105.626573 
L 171.537827 105.626573 
L 171.61479 104.578078 
L 171.709995 104.578078 
L 171.769746 102.481087 
L 171.888628 102.481087 
L 171.959971 100.384096 
L 172.119923 100.384096 
L 172.214383 98.287105 
L 172.266415 98.287105 
L 172.366036 96.714362 
L 172.451251 96.714362 
L 172.490743 95.141619 
L 172.573381 95.141619 
L 172.649762 93.568876 
L 172.784071 93.568876 
L 172.846005 92.520381 
L 172.903867 92.520381 
L 172.974962 90.42339 
L 173.036213 90.42339 
L 173.144779 87.277903 
L 173.205429 87.277903 
L 173.212996 86.229408 
L 173.367374 86.229408 
L 173.372996 85.180912 
L 173.614858 85.180912 
L 173.725348 83.083922 
L 173.826012 83.083922 
L 173.846074 82.035426 
L 173.938784 82.035426 
L 173.938784 81.511178 
L 174.131684 81.511178 
L 174.131684 80.986931 
L 174.299379 80.986931 
L 174.299379 80.462683 
L 174.512861 80.462683 
L 174.512861 79.938435 
L 175.419578 79.938435 
L 175.419578 79.414188 
L 183.614956 79.414188 
L 183.614956 78.88994 
L 183.938179 78.88994 
L 183.938179 78.365692 
L 184.140655 78.365692 
L 184.140655 77.841444 
L 184.425691 77.841444 
L 184.504308 76.268701 
L 184.660472 76.268701 
L 184.716733 75.220206 
L 184.861386 75.220206 
L 184.919866 73.647463 
L 185.040984 73.647463 
L 185.040984 73.123215 
L 185.284437 73.123215 
L 185.284437 72.598967 
L 185.515247 72.598967 
L 185.515247 72.074719 
L 185.662529 72.074719 
L 185.662529 71.550472 
L 185.79856 71.550472 
L 185.79856 71.026224 
L 186.180755 71.026224 
L 186.234034 69.977729 
L 186.319821 69.977729 
L 186.405181 68.404985 
L 186.468268 68.404985 
L 186.468268 67.880738 
L 186.587673 67.880738 
L 186.587673 67.35649 
L 186.731252 67.35649 
L 186.731252 66.832242 
L 186.850561 66.832242 
L 186.950349 65.783747 
L 187.079973 65.783747 
L 187.101061 64.735251 
L 187.466382 64.735251 
L 187.530632 63.162508 
L 187.588089 63.162508 
L 187.630647 62.114013 
L 187.828141 62.114013 
L 187.828141 61.589765 
L 188.048938 61.589765 
L 188.107871 59.492774 
L 188.351014 59.492774 
L 188.358851 58.444279 
L 188.646332 58.444279 
L 188.740845 56.347288 
L 188.957105 56.347288 
L 188.957105 55.82304 
L 189.073996 55.82304 
L 189.151235 54.250297 
L 189.237064 54.250297 
L 189.28613 53.201802 
L 189.351334 53.201802 
L 189.375722 51.629058 
L 189.4766 51.629058 
L 189.4766 51.104811 
L 189.615532 51.104811 
L 189.696905 50.056315 
L 189.737448 50.056315 
L 189.839107 47.435077 
L 189.992971 47.435077 
L 190.076835 45.862334 
L 190.155353 45.862334 
L 190.232108 44.813838 
L 190.385991 44.813838 
L 190.388777 43.765343 
L 190.520555 43.765343 
L 190.568162 42.716847 
L 190.864619 42.716847 
L 190.969943 41.668352 
L 191.045164 41.668352 
L 191.090005 40.619856 
L 191.481867 40.619856 
L 191.481867 40.095609 
L 191.617875 40.095609 
L 191.698062 39.047113 
L 191.808675 39.047113 
L 191.864994 37.998618 
L 192.864676 37.998618 
L 192.918845 36.950122 
L 193.039808 36.950122 
L 193.137393 35.901627 
L 193.378375 35.901627 
L 193.378375 35.377379 
L 193.859538 35.377379 
L 193.890801 34.328884 
L 194.058645 34.328884 
L 194.058645 33.804636 
L 194.394459 33.804636 
L 194.394459 33.280388 
L 195.670086 33.280388 
L 195.670086 32.756141 
L 195.990695 32.756141 
L 196.057911 31.707645 
L 196.17118 31.707645 
L 196.17118 31.183397 
L 198.354071 31.183397 
L 198.354071 30.65915 
L 199.901651 30.65915 
L 199.912056 29.610654 
L 200.424046 29.610654 
L 200.424046 29.086407 
L 202.217527 29.086407 
L 202.217527 28.562159 
L 203.131781 28.562159 
L 203.131781 28.037911 
L 217.455631 28.037911 
L 217.455631 27.513663 
L 333.168 27.513663 
L 333.168 27.513663 
" style="fill:none;stroke:#ff00ff;stroke-linecap:square;stroke-width:1.5;"/>
   </g>
   <g id="line2d_49">
    <defs>
     <path d="M -0 8.485281 
L 5.091169 0 
L 0 -8.485281 
L -5.091169 -0 
z
" id="md887a7078f" style="stroke:#ff00ff;stroke-linejoin:miter;stroke-width:1.5;"/>
    </defs>
    <g>
     <use style="fill:none;stroke:#ff00ff;stroke-linejoin:miter;stroke-width:1.5;" x="142.16556" xlink:href="#md887a7078f" y="276.007082"/>
     <use style="fill:none;stroke:#ff00ff;stroke-linejoin:miter;stroke-width:1.5;" x="174.512861" xlink:href="#md887a7078f" y="80.462683"/>
     <use style="fill:none;stroke:#ff00ff;stroke-linejoin:miter;stroke-width:1.5;" x="217.455631" xlink:href="#md887a7078f" y="28.037911"/>
     <use style="fill:none;stroke:#ff00ff;stroke-linejoin:miter;stroke-width:1.5;" x="217.455631" xlink:href="#md887a7078f" y="27.513663"/>
     <use style="fill:none;stroke:#ff00ff;stroke-linejoin:miter;stroke-width:1.5;" x="333.168" xlink:href="#md887a7078f" y="27.513663"/>
    </g>
   </g>
   <g id="line2d_50">
    <path style="fill:none;stroke:#ff00ff;stroke-linecap:square;stroke-width:1.5;"/>
    <g/>
   </g>
   <g id="line2d_51">
    <path clip-path="url(#pfdbe81a568)" d="M 183.772212 78.88994 
" style="fill:none;stroke:#ff00ff;stroke-linecap:square;stroke-width:1.5;"/>
    <defs>
     <path d="M -12 12 
L 12 -12 
M -12 -12 
L 12 12 
" id="mc93afaf8e1" style="stroke:#ff00ff;"/>
    </defs>
    <g clip-path="url(#pfdbe81a568)">
     <use style="fill:#ff00ff;stroke:#ff00ff;" x="183.772212" xlink:href="#mc93afaf8e1" y="78.88994"/>
    </g>
   </g>
   <g id="line2d_52">
    <defs>
     <path d="M 0 1.5 
C 0.397805 1.5 0.77937 1.341951 1.06066 1.06066 
C 1.341951 0.77937 1.5 0.397805 1.5 0 
C 1.5 -0.397805 1.341951 -0.77937 1.06066 -1.06066 
C 0.77937 -1.341951 0.397805 -1.5 0 -1.5 
C -0.397805 -1.5 -0.77937 -1.341951 -1.06066 -1.06066 
C -1.341951 -0.77937 -1.5 -0.397805 -1.5 0 
C -1.5 0.397805 -1.341951 0.77937 -1.06066 1.06066 
C -0.77937 1.341951 -0.397805 1.5 0 1.5 
z
" id="mb8cb17961d" style="stroke:#ff7500;"/>
    </defs>
    <g>
     <use style="fill:#ff7500;stroke:#ff7500;" x="280.392535" xlink:href="#mb8cb17961d" y="69.453481"/>
     <use style="fill:#ff7500;stroke:#ff7500;" x="280.392535" xlink:href="#mb8cb17961d" y="69.453481"/>
    </g>
   </g>
   <g id="line2d_53">
    <path d="M 104.409787 294.88 
L 104.409787 294.355752 
L 107.000154 294.355752 
L 107.000154 293.831505 
L 108.036969 293.831505 
L 108.036969 293.307257 
L 111.585031 293.307257 
L 111.585031 292.783009 
L 119.354037 292.783009 
L 119.354037 292.258761 
L 122.909503 292.258761 
L 122.909503 291.734514 
L 125.614517 291.734514 
L 125.614517 290.686018 
L 128.823599 290.686018 
L 128.823599 290.161771 
L 130.308777 290.161771 
L 130.308777 289.637523 
L 130.761732 289.637523 
L 130.761732 289.113275 
L 133.560797 289.113275 
L 133.6555 287.540532 
L 133.693236 287.540532 
L 133.693236 287.016284 
L 134.521099 287.016284 
L 134.521099 286.492036 
L 138.033915 286.492036 
L 138.033915 285.967789 
L 138.987898 285.967789 
L 138.987898 285.443541 
L 139.22176 285.443541 
L 139.22176 284.919293 
L 141.303883 284.919293 
L 141.303883 284.395046 
L 142.21155 284.395046 
L 142.21155 283.870798 
L 143.611205 283.870798 
L 143.611205 283.34655 
L 145.090928 283.34655 
L 145.090928 282.822302 
L 146.887358 282.822302 
L 146.887358 282.298055 
L 148.329669 282.298055 
L 148.329669 281.773807 
L 150.453114 281.773807 
L 150.453114 281.249559 
L 150.88136 281.249559 
L 150.88136 280.725312 
L 151.081271 280.725312 
L 151.081271 280.201064 
L 152.888161 280.201064 
L 152.888161 279.676816 
L 154.701632 279.676816 
L 154.701632 279.152568 
L 155.488372 279.152568 
L 155.488372 278.628321 
L 156.893137 278.628321 
L 156.893137 278.104073 
L 158.421295 278.104073 
L 158.421295 277.579825 
L 159.352519 277.579825 
L 159.352519 277.055578 
L 160.211717 277.055578 
L 160.211717 276.53133 
L 160.657167 276.53133 
L 160.657167 276.007082 
L 161.262775 276.007082 
L 161.262775 275.482834 
L 161.748573 275.482834 
L 161.748573 274.958587 
L 163.063921 274.958587 
L 163.063921 274.434339 
L 163.425302 274.434339 
L 163.475361 273.385844 
L 165.500631 273.385844 
L 165.500631 272.861596 
L 167.070621 272.861596 
L 167.070621 272.337348 
L 167.691868 272.337348 
L 167.691868 271.8131 
L 169.028335 271.8131 
L 169.028335 271.288853 
L 170.691789 271.288853 
L 170.691789 270.764605 
L 174.286947 270.764605 
L 174.297604 269.716109 
L 175.880726 269.716109 
L 175.880726 269.191862 
L 177.249699 269.191862 
L 177.249699 268.667614 
L 178.068742 268.667614 
L 178.068742 268.143366 
L 180.21073 268.143366 
L 180.21073 267.619119 
L 180.409705 267.619119 
L 180.409705 267.094871 
L 180.716752 267.094871 
L 180.716752 266.570623 
L 180.94138 266.570623 
L 180.94138 266.046375 
L 182.392295 266.046375 
L 182.392295 265.522128 
L 183.670622 265.522128 
L 183.670622 264.99788 
L 185.894683 264.99788 
L 185.897395 263.949385 
L 186.676902 263.949385 
L 186.676902 263.425137 
L 187.419277 263.425137 
L 187.419277 262.900889 
L 188.035371 262.900889 
L 188.035371 262.376641 
L 188.650184 262.376641 
L 188.650184 261.852394 
L 189.275734 261.852394 
L 189.275734 261.328146 
L 189.569589 261.328146 
L 189.569589 260.803898 
L 189.932305 260.803898 
L 189.932305 260.279651 
L 190.414518 260.279651 
L 190.414518 259.755403 
L 190.727955 259.755403 
L 190.727955 259.231155 
L 191.588032 259.231155 
L 191.588032 258.706907 
L 192.407116 258.706907 
L 192.453486 257.658412 
L 192.677383 257.658412 
L 192.711478 256.609917 
L 192.918845 256.609917 
L 192.918845 256.085669 
L 193.195443 256.085669 
L 193.195443 255.561421 
L 193.325636 255.561421 
L 193.325636 255.037173 
L 193.670757 255.037173 
L 193.670757 254.512926 
L 194.123757 254.512926 
L 194.123757 253.988678 
L 194.614745 253.988678 
L 194.614745 253.46443 
L 194.767606 253.46443 
L 194.767606 252.940182 
L 195.892915 252.940182 
L 195.951952 251.891687 
L 196.48852 251.891687 
L 196.492426 250.843192 
L 196.700087 250.843192 
L 196.700087 250.318944 
L 197.104735 250.318944 
L 197.104735 249.794696 
L 197.40776 249.794696 
L 197.5102 248.746201 
L 197.955255 248.746201 
L 198.054493 247.173458 
L 198.231425 247.173458 
L 198.231425 246.64921 
L 198.518853 246.64921 
L 198.576458 245.600714 
L 198.866301 245.600714 
L 198.923179 244.552219 
L 199.215615 244.552219 
L 199.318212 243.503724 
L 199.656521 243.503724 
L 199.665047 242.455228 
L 200.557501 242.455228 
L 200.557501 241.93098 
L 200.852049 241.93098 
L 200.852049 241.406733 
L 201.690703 241.406733 
L 201.786035 240.358237 
L 202.148116 240.358237 
L 202.148116 239.83399 
L 202.606673 239.83399 
L 202.606673 239.309742 
L 202.890924 239.309742 
L 202.990549 238.261246 
L 203.126804 238.261246 
L 203.126804 237.736999 
L 203.797126 237.736999 
L 203.849702 236.688503 
L 204.167141 236.688503 
L 204.167141 236.164255 
L 205.095496 236.164255 
L 205.095496 235.640008 
L 205.377254 235.640008 
L 205.377254 235.11576 
L 205.517287 235.11576 
L 205.619199 233.543017 
L 205.693096 233.543017 
L 205.693096 233.018769 
L 205.962207 233.018769 
L 206.018389 231.970274 
L 206.446582 231.970274 
L 206.446582 231.446026 
L 207.529973 231.446026 
L 207.586641 229.873283 
L 207.723816 229.873283 
L 207.723816 229.349035 
L 209.526284 229.349035 
L 209.526284 228.824787 
L 209.644559 228.824787 
L 209.731096 227.776292 
L 209.834727 227.776292 
L 209.834727 227.252044 
L 209.96763 227.252044 
L 210.031033 226.203549 
L 210.51685 226.203549 
L 210.51685 225.679301 
L 211.672797 225.679301 
L 211.672797 225.155053 
L 212.017672 225.155053 
L 212.017672 224.630806 
L 213.016174 224.630806 
L 213.016174 224.106558 
L 213.282512 224.106558 
L 213.354222 223.058063 
L 213.459685 223.058063 
L 213.544786 221.485319 
L 213.667789 221.485319 
L 213.667789 220.961072 
L 213.805792 220.961072 
L 213.888846 219.912576 
L 213.945525 219.912576 
L 213.945525 219.388328 
L 214.067635 219.388328 
L 214.091147 218.339833 
L 214.232763 218.339833 
L 214.232763 217.815585 
L 214.363388 217.815585 
L 214.47023 216.242842 
L 214.588341 216.242842 
L 214.687364 213.621604 
L 214.774197 213.621604 
L 214.796594 212.573108 
L 214.931202 212.573108 
L 214.940384 211.524613 
L 215.116877 211.524613 
L 215.186607 210.476117 
L 215.277671 210.476117 
L 215.35148 208.903374 
L 215.526887 208.903374 
L 215.592247 207.330631 
L 215.71377 207.330631 
L 215.71377 206.806383 
L 215.828419 206.806383 
L 215.8536 205.757888 
L 216.020535 205.757888 
L 216.020535 205.23364 
L 216.30343 205.23364 
L 216.326539 204.185145 
L 216.657423 204.185145 
L 216.657423 203.660897 
L 217.003976 203.660897 
L 217.003976 203.136649 
L 217.184776 203.136649 
L 217.184776 202.612401 
L 217.385132 202.612401 
L 217.385132 202.088154 
L 217.730941 202.088154 
L 217.730941 201.563906 
L 217.893332 201.563906 
L 217.972277 199.991163 
L 218.066591 199.991163 
L 218.130613 198.41842 
L 218.644609 198.41842 
L 218.644609 197.894172 
L 218.819019 197.894172 
L 218.909739 196.321429 
L 219.094472 196.321429 
L 219.179059 195.272933 
L 219.241934 195.272933 
L 219.241934 194.748686 
L 219.360678 194.748686 
L 219.360678 193.70019 
L 219.622315 193.70019 
L 219.622315 193.175943 
L 219.756889 193.175943 
L 219.861739 192.127447 
L 219.889542 192.127447 
L 219.889542 191.603199 
L 220.186165 191.603199 
L 220.257476 190.554704 
L 220.400432 190.554704 
L 220.400432 190.030456 
L 220.555937 190.030456 
L 220.555937 189.506209 
L 220.864681 189.506209 
L 220.864681 188.981961 
L 221.027307 188.981961 
L 221.027307 188.457713 
L 221.212642 188.457713 
L 221.279828 187.409218 
L 221.473205 187.409218 
L 221.561421 185.312227 
L 221.690143 185.312227 
L 221.690143 184.263731 
L 221.959601 184.263731 
L 221.959601 183.739484 
L 222.148044 183.739484 
L 222.215066 182.690988 
L 222.59898 182.690988 
L 222.59898 182.16674 
L 222.734935 182.16674 
L 222.820827 181.118245 
L 222.953369 181.118245 
L 223.063896 180.06975 
L 223.240055 180.06975 
L 223.240055 179.545502 
L 223.360931 179.545502 
L 223.360931 179.021254 
L 224.119322 179.021254 
L 224.171391 177.448511 
L 225.278628 177.448511 
L 225.278628 176.924263 
L 225.484991 176.924263 
L 225.484991 176.400016 
L 225.919883 176.400016 
L 226.003732 174.303025 
L 226.077836 174.303025 
L 226.148406 173.254529 
L 226.282557 173.254529 
L 226.370068 171.157538 
L 226.469002 171.157538 
L 226.469002 170.633291 
L 226.710172 170.633291 
L 226.737163 169.584795 
L 226.949084 169.584795 
L 226.949084 169.060547 
L 227.061412 169.060547 
L 227.061412 168.5363 
L 227.30772 168.5363 
L 227.347578 167.487804 
L 227.544777 167.487804 
L 227.544777 166.963557 
L 228.272477 166.963557 
L 228.381928 164.866566 
L 228.487576 164.866566 
L 228.587449 162.769575 
L 228.6395 162.769575 
L 228.687045 161.196832 
L 228.825398 161.196832 
L 228.894011 159.624089 
L 229.148824 159.624089 
L 229.255754 158.575593 
L 229.511878 158.575593 
L 229.521455 157.527098 
L 229.64881 157.527098 
L 229.64881 157.00285 
L 230.02045 157.00285 
L 230.096076 155.430107 
L 230.25798 155.430107 
L 230.306241 154.381611 
L 230.439722 154.381611 
L 230.539544 152.28462 
L 230.629212 152.28462 
L 230.629212 151.760373 
L 230.779354 151.760373 
L 230.84934 150.711877 
L 230.939253 150.711877 
L 230.939253 150.18763 
L 231.285765 150.18763 
L 231.32306 149.139134 
L 231.611579 149.139134 
L 231.611579 148.614886 
L 232.32203 148.614886 
L 232.32203 148.090639 
L 232.546158 148.090639 
L 232.546158 147.566391 
L 232.690681 147.566391 
L 232.76953 145.4694 
L 232.911667 145.4694 
L 232.911667 144.945152 
L 233.05386 144.945152 
L 233.088442 142.848162 
L 233.25025 142.848162 
L 233.330301 141.275418 
L 233.387969 141.275418 
L 233.387969 140.751171 
L 234.000353 140.751171 
L 234.015818 139.702675 
L 234.115157 139.702675 
L 234.124234 138.65418 
L 234.327371 138.65418 
L 234.360348 137.605684 
L 234.455791 137.605684 
L 234.536624 136.557189 
L 234.738243 136.557189 
L 234.738243 136.032941 
L 235.041905 136.032941 
L 235.056927 134.984446 
L 235.334233 134.984446 
L 235.413532 133.93595 
L 235.591683 133.93595 
L 235.695918 132.887455 
L 235.725078 132.887455 
L 235.725078 132.363207 
L 235.840486 132.363207 
L 235.840486 131.838959 
L 236.179416 131.838959 
L 236.194882 130.790464 
L 236.347488 130.790464 
L 236.445055 129.217721 
L 236.890579 129.217721 
L 236.890579 128.693473 
L 237.287732 128.693473 
L 237.287732 128.169225 
L 237.629881 128.169225 
L 237.629881 127.644978 
L 237.750847 127.644978 
L 237.750847 127.12073 
L 237.863668 127.12073 
L 237.863668 126.596482 
L 238.099481 126.596482 
L 238.19025 125.547987 
L 238.558831 125.547987 
L 238.576054 124.499491 
L 238.833808 124.499491 
L 238.833808 123.975244 
L 239.110142 123.975244 
L 239.110142 123.450996 
L 239.275487 123.450996 
L 239.36998 121.878253 
L 239.416571 121.878253 
L 239.437491 120.829757 
L 239.576501 120.829757 
L 239.589791 119.781262 
L 239.757739 119.781262 
L 239.757739 119.257014 
L 240.628988 119.257014 
L 240.629662 118.208519 
L 241.218266 118.208519 
L 241.218266 117.684271 
L 241.349749 117.684271 
L 241.437099 116.635776 
L 241.461445 116.635776 
L 241.462837 115.58728 
L 241.715052 115.58728 
L 241.736515 113.490289 
L 242.046603 113.490289 
L 242.046603 112.966042 
L 242.167575 112.966042 
L 242.208269 111.917546 
L 242.68786 111.917546 
L 242.755619 108.77206 
L 242.839813 108.77206 
L 242.839813 108.247812 
L 243.051683 108.247812 
L 243.063776 107.199317 
L 243.223214 107.199317 
L 243.223214 106.675069 
L 243.373209 106.675069 
L 243.373209 106.150821 
L 243.57407 106.150821 
L 243.57407 105.626573 
L 243.791591 105.626573 
L 243.873755 104.578078 
L 243.982043 104.578078 
L 244.041643 103.005335 
L 244.313149 103.005335 
L 244.313149 102.481087 
L 244.658861 102.481087 
L 244.658861 101.956839 
L 245.031264 101.956839 
L 245.114936 100.908344 
L 245.483845 100.908344 
L 245.483845 100.384096 
L 246.394477 100.384096 
L 246.394477 99.859849 
L 247.808108 99.859849 
L 247.808108 99.335601 
L 248.029983 99.335601 
L 248.049033 98.287105 
L 248.4376 98.287105 
L 248.4376 97.762858 
L 248.551425 97.762858 
L 248.65394 96.714362 
L 248.743428 96.714362 
L 248.760561 95.141619 
L 249.066659 95.141619 
L 249.066659 94.617371 
L 249.457563 94.617371 
L 249.457563 94.093124 
L 249.674281 94.093124 
L 249.674281 93.568876 
L 249.89944 93.568876 
L 249.89944 93.044628 
L 250.355712 93.044628 
L 250.355712 92.520381 
L 250.767148 92.520381 
L 250.767148 91.996133 
L 250.931212 91.996133 
L 250.931212 91.471885 
L 251.052265 91.471885 
L 251.052265 90.947637 
L 251.188239 90.947637 
L 251.188239 90.42339 
L 251.430498 90.42339 
L 251.430498 89.899142 
L 252.165937 89.899142 
L 252.165937 89.374894 
L 252.520422 89.374894 
L 252.573037 88.326399 
L 252.765017 88.326399 
L 252.765017 87.802151 
L 252.969987 87.802151 
L 252.969987 87.277903 
L 253.091203 87.277903 
L 253.149405 86.229408 
L 253.387928 86.229408 
L 253.387928 85.70516 
L 254.207035 85.70516 
L 254.207035 85.180912 
L 254.510006 85.180912 
L 254.540351 84.132417 
L 254.916171 84.132417 
L 254.916171 83.608169 
L 255.443592 83.608169 
L 255.443592 83.083922 
L 256.189327 83.083922 
L 256.189327 82.559674 
L 256.705274 82.559674 
L 256.78351 81.511178 
L 256.957423 81.511178 
L 256.957423 80.986931 
L 257.082606 80.986931 
L 257.082606 80.462683 
L 257.696432 80.462683 
L 257.72112 79.414188 
L 259.298313 79.414188 
L 259.298313 78.88994 
L 259.762224 78.88994 
L 259.839509 77.841444 
L 260.055267 77.841444 
L 260.055267 77.317197 
L 260.250664 77.317197 
L 260.250664 76.792949 
L 260.48083 76.792949 
L 260.48083 76.268701 
L 264.583686 76.268701 
L 264.583686 75.744454 
L 266.270373 75.744454 
L 266.270373 75.220206 
L 266.60145 75.220206 
L 266.60145 74.695958 
L 266.787905 74.695958 
L 266.787905 74.17171 
L 267.010091 74.17171 
L 267.010091 73.647463 
L 267.30602 73.647463 
L 267.30602 73.123215 
L 267.48793 73.123215 
L 267.488072 72.074719 
L 268.223689 72.074719 
L 268.223689 71.550472 
L 268.620378 71.550472 
L 268.620378 71.026224 
L 269.653038 71.026224 
L 269.653038 70.501976 
L 273.460695 70.501976 
L 273.460695 69.977729 
L 280.392535 69.977729 
L 280.392535 69.453481 
L 333.168 69.453481 
L 333.168 69.453481 
" style="fill:none;stroke:#ff7500;stroke-linecap:square;stroke-width:1.5;"/>
   </g>
   <g id="line2d_54">
    <defs>
     <path d="M 0 -6 
L -1.347084 -1.854102 
L -5.706339 -1.854102 
L -2.179628 0.708204 
L -3.526712 4.854102 
L -0 2.291796 
L 3.526712 4.854102 
L 2.179628 0.708204 
L 5.706339 -1.854102 
L 1.347084 -1.854102 
z
" id="mf8b7efab9a" style="stroke:#ff7500;stroke-linejoin:bevel;stroke-width:1.5;"/>
    </defs>
    <g>
     <use style="fill:none;stroke:#ff7500;stroke-linejoin:bevel;stroke-width:1.5;" x="155.488372" xlink:href="#mf8b7efab9a" y="279.152568"/>
     <use style="fill:none;stroke:#ff7500;stroke-linejoin:bevel;stroke-width:1.5;" x="223.240055" xlink:href="#mf8b7efab9a" y="180.06975"/>
     <use style="fill:none;stroke:#ff7500;stroke-linejoin:bevel;stroke-width:1.5;" x="256.189327" xlink:href="#mf8b7efab9a" y="82.559674"/>
     <use style="fill:none;stroke:#ff7500;stroke-linejoin:bevel;stroke-width:1.5;" x="280.392535" xlink:href="#mf8b7efab9a" y="69.453481"/>
     <use style="fill:none;stroke:#ff7500;stroke-linejoin:bevel;stroke-width:1.5;" x="333.168" xlink:href="#mf8b7efab9a" y="69.453481"/>
    </g>
   </g>
   <g id="line2d_55">
    <path style="fill:none;stroke:#ff7500;stroke-linecap:square;stroke-width:1.5;"/>
    <g/>
   </g>
   <g id="line2d_56">
    <path clip-path="url(#pfdbe81a568)" d="M 214.433143 216.76709 
" style="fill:none;stroke:#ff7500;stroke-linecap:square;stroke-width:1.5;"/>
    <defs>
     <path d="M -12 12 
L 12 -12 
M -12 -12 
L 12 12 
" id="mfd97d484ef" style="stroke:#ff7500;"/>
    </defs>
    <g clip-path="url(#pfdbe81a568)">
     <use style="fill:#ff7500;stroke:#ff7500;" x="214.433143" xlink:href="#mfd97d484ef" y="216.76709"/>
    </g>
   </g>
   <g id="line2d_57">
    <path d="M 333.168 69.453481 
L 363.64328 289.532673 
" style="fill:none;stroke:#ff7500;stroke-linecap:square;stroke-width:1.5;"/>
    <g>
     <use style="fill:none;stroke:#ff7500;stroke-linejoin:bevel;stroke-width:1.5;" x="333.168" xlink:href="#mf8b7efab9a" y="69.453481"/>
     <use style="fill:none;stroke:#ff7500;stroke-linejoin:bevel;stroke-width:1.5;" x="363.64328" xlink:href="#mf8b7efab9a" y="289.532673"/>
    </g>
   </g>
   <g id="line2d_58">
    <path d="M 333.168 27.513663 
L 363.64328 203.975446 
" style="fill:none;stroke:#000080;stroke-linecap:square;stroke-width:1.5;"/>
    <g>
     <use style="fill:none;stroke:#000080;stroke-width:1.5;" x="333.168" xlink:href="#m6d1d615b20" y="27.513663"/>
     <use style="fill:none;stroke:#000080;stroke-width:1.5;" x="363.64328" xlink:href="#m6d1d615b20" y="203.975446"/>
    </g>
   </g>
   <g id="line2d_59">
    <path d="M 333.168 27.513663 
L 363.64328 118.418218 
" style="fill:none;stroke:#ff00ff;stroke-linecap:square;stroke-width:1.5;"/>
    <g>
     <use style="fill:none;stroke:#ff00ff;stroke-linejoin:miter;stroke-width:1.5;" x="333.168" xlink:href="#md887a7078f" y="27.513663"/>
     <use style="fill:none;stroke:#ff00ff;stroke-linejoin:miter;stroke-width:1.5;" x="363.64328" xlink:href="#md887a7078f" y="118.418218"/>
    </g>
   </g>
   <g id="line2d_60">
    <path d="M 333.168 294.88 
L 333.168 27.513663 
" style="fill:none;stroke:#000000;stroke-linecap:square;stroke-width:1.5;"/>
   </g>
   <g id="patch_3">
    <path d="M 56.12 294.88 
L 56.12 24.84 
" style="fill:none;stroke:#000000;stroke-linecap:square;stroke-linejoin:miter;stroke-width:0.8;"/>
   </g>
   <g id="patch_4">
    <path d="M 333.168 294.88 
L 333.168 24.84 
" style="fill:none;stroke:#000000;stroke-linecap:square;stroke-linejoin:miter;stroke-width:0.8;"/>
   </g>
   <g id="patch_5">
    <path d="M 56.12 294.88 
L 333.168 294.88 
" style="fill:none;stroke:#000000;stroke-linecap:square;stroke-linejoin:miter;stroke-width:0.8;"/>
   </g>
   <g id="patch_6">
    <path d="M 56.12 24.84 
L 333.168 24.84 
" style="fill:none;stroke:#000000;stroke-linecap:square;stroke-linejoin:miter;stroke-width:0.8;"/>
   </g>
   <g id="text_13">
    <!-- ppmf-new -->
    <defs>
     <path d="M 4.203125 54.6875 
L 13.1875 54.6875 
L 24.421875 12.015625 
L 35.59375 54.6875 
L 46.1875 54.6875 
L 57.421875 12.015625 
L 68.609375 54.6875 
L 77.59375 54.6875 
L 63.28125 0 
L 52.6875 0 
L 40.921875 44.828125 
L 29.109375 0 
L 18.5 0 
z
" id="DejaVuSans-77"/>
    </defs>
    <g transform="translate(369.18424 294.223611)scale(0.17 -0.17)">
     <use xlink:href="#DejaVuSans-70"/>
     <use x="63.476562" xlink:href="#DejaVuSans-70"/>
     <use x="126.953125" xlink:href="#DejaVuSans-6d"/>
     <use x="224.365234" xlink:href="#DejaVuSans-66"/>
     <use x="259.492188" xlink:href="#DejaVuSans-2d"/>
     <use x="295.576172" xlink:href="#DejaVuSans-6e"/>
     <use x="358.955078" xlink:href="#DejaVuSans-65"/>
     <use x="420.478516" xlink:href="#DejaVuSans-77"/>
    </g>
   </g>
   <g id="text_14">
    <!-- CMA ES PPM -->
    <defs>
     <path d="M 64.40625 67.28125 
L 64.40625 56.890625 
Q 59.421875 61.53125 53.78125 63.8125 
Q 48.140625 66.109375 41.796875 66.109375 
Q 29.296875 66.109375 22.65625 58.46875 
Q 16.015625 50.828125 16.015625 36.375 
Q 16.015625 21.96875 22.65625 14.328125 
Q 29.296875 6.6875 41.796875 6.6875 
Q 48.140625 6.6875 53.78125 8.984375 
Q 59.421875 11.28125 64.40625 15.921875 
L 64.40625 5.609375 
Q 59.234375 2.09375 53.4375 0.328125 
Q 47.65625 -1.421875 41.21875 -1.421875 
Q 24.65625 -1.421875 15.125 8.703125 
Q 5.609375 18.84375 5.609375 36.375 
Q 5.609375 53.953125 15.125 64.078125 
Q 24.65625 74.21875 41.21875 74.21875 
Q 47.75 74.21875 53.53125 72.484375 
Q 59.328125 70.75 64.40625 67.28125 
z
" id="DejaVuSans-43"/>
     <path d="M 9.8125 72.90625 
L 24.515625 72.90625 
L 43.109375 23.296875 
L 61.8125 72.90625 
L 76.515625 72.90625 
L 76.515625 0 
L 66.890625 0 
L 66.890625 64.015625 
L 48.09375 14.015625 
L 38.1875 14.015625 
L 19.390625 64.015625 
L 19.390625 0 
L 9.8125 0 
z
" id="DejaVuSans-4d"/>
     <path d="M 34.1875 63.1875 
L 20.796875 26.90625 
L 47.609375 26.90625 
z
M 28.609375 72.90625 
L 39.796875 72.90625 
L 67.578125 0 
L 57.328125 0 
L 50.6875 18.703125 
L 17.828125 18.703125 
L 11.1875 0 
L 0.78125 0 
z
" id="DejaVuSans-41"/>
     <path d="M 9.8125 72.90625 
L 55.90625 72.90625 
L 55.90625 64.59375 
L 19.671875 64.59375 
L 19.671875 43.015625 
L 54.390625 43.015625 
L 54.390625 34.71875 
L 19.671875 34.71875 
L 19.671875 8.296875 
L 56.78125 8.296875 
L 56.78125 0 
L 9.8125 0 
z
" id="DejaVuSans-45"/>
     <path d="M 53.515625 70.515625 
L 53.515625 60.890625 
Q 47.90625 63.578125 42.921875 64.890625 
Q 37.9375 66.21875 33.296875 66.21875 
Q 25.25 66.21875 20.875 63.09375 
Q 16.5 59.96875 16.5 54.203125 
Q 16.5 49.359375 19.40625 46.890625 
Q 22.3125 44.4375 30.421875 42.921875 
L 36.375 41.703125 
Q 47.40625 39.59375 52.65625 34.296875 
Q 57.90625 29 57.90625 20.125 
Q 57.90625 9.515625 50.796875 4.046875 
Q 43.703125 -1.421875 29.984375 -1.421875 
Q 24.8125 -1.421875 18.96875 -0.25 
Q 13.140625 0.921875 6.890625 3.21875 
L 6.890625 13.375 
Q 12.890625 10.015625 18.65625 8.296875 
Q 24.421875 6.59375 29.984375 6.59375 
Q 38.421875 6.59375 43.015625 9.90625 
Q 47.609375 13.234375 47.609375 19.390625 
Q 47.609375 24.75 44.3125 27.78125 
Q 41.015625 30.8125 33.5 32.328125 
L 27.484375 33.5 
Q 16.453125 35.6875 11.515625 40.375 
Q 6.59375 45.0625 6.59375 53.421875 
Q 6.59375 63.09375 13.40625 68.65625 
Q 20.21875 74.21875 32.171875 74.21875 
Q 37.3125 74.21875 42.625 73.28125 
Q 47.953125 72.359375 53.515625 70.515625 
z
" id="DejaVuSans-53"/>
     <path d="M 19.671875 64.796875 
L 19.671875 37.40625 
L 32.078125 37.40625 
Q 38.96875 37.40625 42.71875 40.96875 
Q 46.484375 44.53125 46.484375 51.125 
Q 46.484375 57.671875 42.71875 61.234375 
Q 38.96875 64.796875 32.078125 64.796875 
z
M 9.8125 72.90625 
L 32.078125 72.90625 
Q 44.34375 72.90625 50.609375 67.359375 
Q 56.890625 61.8125 56.890625 51.125 
Q 56.890625 40.328125 50.609375 34.8125 
Q 44.34375 29.296875 32.078125 29.296875 
L 19.671875 29.296875 
L 19.671875 0 
L 9.8125 0 
z
" id="DejaVuSans-50"/>
    </defs>
    <g transform="translate(369.18424 208.666383)scale(0.17 -0.17)">
     <use xlink:href="#DejaVuSans-43"/>
     <use x="69.824219" xlink:href="#DejaVuSans-4d"/>
     <use x="156.103516" xlink:href="#DejaVuSans-41"/>
     <use x="224.511719" xlink:href="#DejaVuSans-20"/>
     <use x="256.298828" xlink:href="#DejaVuSans-45"/>
     <use x="319.482422" xlink:href="#DejaVuSans-53"/>
     <use x="382.958984" xlink:href="#DejaVuSans-20"/>
     <use x="414.746094" xlink:href="#DejaVuSans-50"/>
     <use x="475.048828" xlink:href="#DejaVuSans-50"/>
     <use x="535.351562" xlink:href="#DejaVuSans-4d"/>
    </g>
   </g>
   <g id="text_15">
    <!-- CMA ES CSA -->
    <g transform="translate(369.18424 123.109155)scale(0.17 -0.17)">
     <use xlink:href="#DejaVuSans-43"/>
     <use x="69.824219" xlink:href="#DejaVuSans-4d"/>
     <use x="156.103516" xlink:href="#DejaVuSans-41"/>
     <use x="224.511719" xlink:href="#DejaVuSans-20"/>
     <use x="256.298828" xlink:href="#DejaVuSans-45"/>
     <use x="319.482422" xlink:href="#DejaVuSans-53"/>
     <use x="382.958984" xlink:href="#DejaVuSans-20"/>
     <use x="414.746094" xlink:href="#DejaVuSans-43"/>
     <use x="484.570312" xlink:href="#DejaVuSans-53"/>
     <use x="548.0625" xlink:href="#DejaVuSans-41"/>
    </g>
   </g>
   <g id="text_16">
    <!-- best 2009 -->
    <defs>
     <path d="M 48.6875 27.296875 
Q 48.6875 37.203125 44.609375 42.84375 
Q 40.53125 48.484375 33.40625 48.484375 
Q 26.265625 48.484375 22.1875 42.84375 
Q 18.109375 37.203125 18.109375 27.296875 
Q 18.109375 17.390625 22.1875 11.75 
Q 26.265625 6.109375 33.40625 6.109375 
Q 40.53125 6.109375 44.609375 11.75 
Q 48.6875 17.390625 48.6875 27.296875 
z
M 18.109375 46.390625 
Q 20.953125 51.265625 25.265625 53.625 
Q 29.59375 56 35.59375 56 
Q 45.5625 56 51.78125 48.09375 
Q 58.015625 40.1875 58.015625 27.296875 
Q 58.015625 14.40625 51.78125 6.484375 
Q 45.5625 -1.421875 35.59375 -1.421875 
Q 29.59375 -1.421875 25.265625 0.953125 
Q 20.953125 3.328125 18.109375 8.203125 
L 18.109375 0 
L 9.078125 0 
L 9.078125 75.984375 
L 18.109375 75.984375 
z
" id="DejaVuSans-62"/>
     <path d="M 10.984375 1.515625 
L 10.984375 10.5 
Q 14.703125 8.734375 18.5 7.8125 
Q 22.3125 6.890625 25.984375 6.890625 
Q 35.75 6.890625 40.890625 13.453125 
Q 46.046875 20.015625 46.78125 33.40625 
Q 43.953125 29.203125 39.59375 26.953125 
Q 35.25 24.703125 29.984375 24.703125 
Q 19.046875 24.703125 12.671875 31.3125 
Q 6.296875 37.9375 6.296875 49.421875 
Q 6.296875 60.640625 12.9375 67.421875 
Q 19.578125 74.21875 30.609375 74.21875 
Q 43.265625 74.21875 49.921875 64.515625 
Q 56.59375 54.828125 56.59375 36.375 
Q 56.59375 19.140625 48.40625 8.859375 
Q 40.234375 -1.421875 26.421875 -1.421875 
Q 22.703125 -1.421875 18.890625 -0.6875 
Q 15.09375 0.046875 10.984375 1.515625 
z
M 30.609375 32.421875 
Q 37.25 32.421875 41.125 36.953125 
Q 45.015625 41.5 45.015625 49.421875 
Q 45.015625 57.28125 41.125 61.84375 
Q 37.25 66.40625 30.609375 66.40625 
Q 23.96875 66.40625 20.09375 61.84375 
Q 16.21875 57.28125 16.21875 49.421875 
Q 16.21875 41.5 20.09375 36.953125 
Q 23.96875 32.421875 30.609375 32.421875 
z
" id="DejaVuSans-39"/>
    </defs>
    <g transform="translate(369.18424 37.551928)scale(0.17 -0.17)">
     <use xlink:href="#DejaVuSans-62"/>
     <use x="63.476562" xlink:href="#DejaVuSans-65"/>
     <use x="125" xlink:href="#DejaVuSans-73"/>
     <use x="177.099609" xlink:href="#DejaVuSans-74"/>
     <use x="216.308594" xlink:href="#DejaVuSans-20"/>
     <use x="248.095703" xlink:href="#DejaVuSans-32"/>
     <use x="311.71875" xlink:href="#DejaVuSans-30"/>
     <use x="375.341797" xlink:href="#DejaVuSans-30"/>
     <use x="438.964844" xlink:href="#DejaVuSans-39"/>
    </g>
   </g>
   <g id="text_17">
    <!-- bbob f6, 10-D -->
    <defs>
     <path d="M 19.671875 64.796875 
L 19.671875 8.109375 
L 31.59375 8.109375 
Q 46.6875 8.109375 53.6875 14.9375 
Q 60.6875 21.78125 60.6875 36.53125 
Q 60.6875 51.171875 53.6875 57.984375 
Q 46.6875 64.796875 31.59375 64.796875 
z
M 9.8125 72.90625 
L 30.078125 72.90625 
Q 51.265625 72.90625 61.171875 64.09375 
Q 71.09375 55.28125 71.09375 36.53125 
Q 71.09375 17.671875 61.125 8.828125 
Q 51.171875 0 30.078125 0 
L 9.8125 0 
z
" id="DejaVuSans-44"/>
    </defs>
    <g transform="translate(58.89048 35.290806)scale(0.102 -0.102)">
     <use xlink:href="#DejaVuSans-62"/>
     <use x="63.476562" xlink:href="#DejaVuSans-62"/>
     <use x="126.953125" xlink:href="#DejaVuSans-6f"/>
     <use x="188.134766" xlink:href="#DejaVuSans-62"/>
     <use x="251.611328" xlink:href="#DejaVuSans-20"/>
     <use x="283.398438" xlink:href="#DejaVuSans-66"/>
     <use x="318.603516" xlink:href="#DejaVuSans-36"/>
     <use x="382.226562" xlink:href="#DejaVuSans-2c"/>
     <use x="414.013672" xlink:href="#DejaVuSans-20"/>
     <use x="445.800781" xlink:href="#DejaVuSans-31"/>
     <use x="509.423828" xlink:href="#DejaVuSans-30"/>
     <use x="573.046875" xlink:href="#DejaVuSans-2d"/>
     <use x="609.130859" xlink:href="#DejaVuSans-44"/>
    </g>
    <!-- 51 targets: 100..1e-08 -->
    <defs>
     <path d="M 10.796875 72.90625 
L 49.515625 72.90625 
L 49.515625 64.59375 
L 19.828125 64.59375 
L 19.828125 46.734375 
Q 21.96875 47.46875 24.109375 47.828125 
Q 26.265625 48.1875 28.421875 48.1875 
Q 40.625 48.1875 47.75 41.5 
Q 54.890625 34.8125 54.890625 23.390625 
Q 54.890625 11.625 47.5625 5.09375 
Q 40.234375 -1.421875 26.90625 -1.421875 
Q 22.3125 -1.421875 17.546875 -0.640625 
Q 12.796875 0.140625 7.71875 1.703125 
L 7.71875 11.625 
Q 12.109375 9.234375 16.796875 8.0625 
Q 21.484375 6.890625 26.703125 6.890625 
Q 35.15625 6.890625 40.078125 11.328125 
Q 45.015625 15.765625 45.015625 23.390625 
Q 45.015625 31 40.078125 35.4375 
Q 35.15625 39.890625 26.703125 39.890625 
Q 22.75 39.890625 18.8125 39.015625 
Q 14.890625 38.140625 10.796875 36.28125 
z
" id="DejaVuSans-35"/>
     <path d="M 11.71875 12.40625 
L 22.015625 12.40625 
L 22.015625 0 
L 11.71875 0 
z
M 11.71875 51.703125 
L 22.015625 51.703125 
L 22.015625 39.3125 
L 11.71875 39.3125 
z
" id="DejaVuSans-3a"/>
    </defs>
    <g transform="translate(58.89048 46.712575)scale(0.102 -0.102)">
     <use xlink:href="#DejaVuSans-35"/>
     <use x="63.623047" xlink:href="#DejaVuSans-31"/>
     <use x="127.246094" xlink:href="#DejaVuSans-20"/>
     <use x="159.033203" xlink:href="#DejaVuSans-74"/>
     <use x="198.242188" xlink:href="#DejaVuSans-61"/>
     <use x="259.521484" xlink:href="#DejaVuSans-72"/>
     <use x="300.619141" xlink:href="#DejaVuSans-67"/>
     <use x="364.095703" xlink:href="#DejaVuSans-65"/>
     <use x="425.619141" xlink:href="#DejaVuSans-74"/>
     <use x="464.828125" xlink:href="#DejaVuSans-73"/>
     <use x="516.927734" xlink:href="#DejaVuSans-3a"/>
     <use x="550.619141" xlink:href="#DejaVuSans-20"/>
     <use x="582.40625" xlink:href="#DejaVuSans-31"/>
     <use x="646.029297" xlink:href="#DejaVuSans-30"/>
     <use x="709.652344" xlink:href="#DejaVuSans-30"/>
     <use x="773.275391" xlink:href="#DejaVuSans-2e"/>
     <use x="805.0625" xlink:href="#DejaVuSans-2e"/>
     <use x="836.849609" xlink:href="#DejaVuSans-31"/>
     <use x="900.472656" xlink:href="#DejaVuSans-65"/>
     <use x="961.996094" xlink:href="#DejaVuSans-2d"/>
     <use x="998.080078" xlink:href="#DejaVuSans-30"/>
     <use x="1061.703125" xlink:href="#DejaVuSans-38"/>
    </g>
    <!-- 15 instances -->
    <g transform="translate(58.89048 58.134344)scale(0.102 -0.102)">
     <use xlink:href="#DejaVuSans-31"/>
     <use x="63.623047" xlink:href="#DejaVuSans-35"/>
     <use x="127.246094" xlink:href="#DejaVuSans-20"/>
     <use x="159.033203" xlink:href="#DejaVuSans-69"/>
     <use x="186.816406" xlink:href="#DejaVuSans-6e"/>
     <use x="250.195312" xlink:href="#DejaVuSans-73"/>
     <use x="302.294922" xlink:href="#DejaVuSans-74"/>
     <use x="341.503906" xlink:href="#DejaVuSans-61"/>
     <use x="402.783203" xlink:href="#DejaVuSans-6e"/>
     <use x="466.162109" xlink:href="#DejaVuSans-63"/>
     <use x="521.142578" xlink:href="#DejaVuSans-65"/>
     <use x="582.666016" xlink:href="#DejaVuSans-73"/>
    </g>
   </g>
   <g id="text_18">
    <!-- v0.0.0 -->
    <g style="fill:#808080;" transform="translate(178.96275 290.099912)scale(0.1 -0.1)">
     <use xlink:href="#DejaVuSans-76"/>
     <use x="59.179688" xlink:href="#DejaVuSans-30"/>
     <use x="122.802734" xlink:href="#DejaVuSans-2e"/>
     <use x="154.589844" xlink:href="#DejaVuSans-30"/>
     <use x="218.212891" xlink:href="#DejaVuSans-2e"/>
     <use x="250" xlink:href="#DejaVuSans-30"/>
    </g>
   </g>
   <g id="text_19">
    <!-- 6 Attractive sector -->
    <g transform="translate(101.726812 18.84)scale(0.2 -0.2)">
     <use xlink:href="#DejaVuSans-36"/>
     <use x="63.623047" xlink:href="#DejaVuSans-20"/>
     <use x="95.410156" xlink:href="#DejaVuSans-41"/>
     <use x="163.802734" xlink:href="#DejaVuSans-74"/>
     <use x="203.011719" xlink:href="#DejaVuSans-74"/>
     <use x="242.220703" xlink:href="#DejaVuSans-72"/>
     <use x="283.333984" xlink:href="#DejaVuSans-61"/>
     <use x="344.613281" xlink:href="#DejaVuSans-63"/>
     <use x="399.59375" xlink:href="#DejaVuSans-74"/>
     <use x="438.802734" xlink:href="#DejaVuSans-69"/>
     <use x="466.585938" xlink:href="#DejaVuSans-76"/>
     <use x="525.765625" xlink:href="#DejaVuSans-65"/>
     <use x="587.289062" xlink:href="#DejaVuSans-20"/>
     <use x="619.076172" xlink:href="#DejaVuSans-73"/>
     <use x="671.175781" xlink:href="#DejaVuSans-65"/>
     <use x="732.699219" xlink:href="#DejaVuSans-63"/>
     <use x="787.679688" xlink:href="#DejaVuSans-74"/>
     <use x="826.888672" xlink:href="#DejaVuSans-6f"/>
     <use x="888.070312" xlink:href="#DejaVuSans-72"/>
    </g>
   </g>
  </g>
 </g>
 <defs>
  <clipPath id="pfdbe81a568">
   <rect height="270.04" width="277.048" x="56.12" y="24.84"/>
  </clipPath>
 </defs>
</svg>
