<?xml version="1.0" encoding="utf-8" standalone="no"?>
<!DOCTYPE svg PUBLIC "-//W3C//DTD SVG 1.1//EN"
  "http://www.w3.org/Graphics/SVG/1.1/DTD/svg11.dtd">
<!-- Created with matplotlib (http://matplotlib.org/) -->
<svg height="345pt" version="1.1" viewBox="0 0 460 345" width="460pt" xmlns="http://www.w3.org/2000/svg" xmlns:xlink="http://www.w3.org/1999/xlink">
 <defs>
  <style type="text/css">
*{stroke-linecap:butt;stroke-linejoin:round;}
  </style>
 </defs>
 <g id="figure_1">
  <g id="patch_1">
   <path d="M 0 345.6 
L 460.8 345.6 
L 460.8 0 
L 0 0 
z
" style="fill:#ffffff;"/>
  </g>
  <g id="axes_1">
   <g id="patch_2">
    <path d="M 56.12 294.88 
L 333.168 294.88 
L 333.168 24.84 
L 56.12 24.84 
z
" style="fill:#ffffff;"/>
   </g>
   <g id="line2d_1">
    <path d="M 44.205749 294.88 
L 44.205749 284.395046 
L 56.12 284.395046 
L 56.12 279.152568 
L 63.08939 279.152568 
L 63.08939 273.910091 
L 68.034251 273.910091 
L 68.034251 268.667614 
L 79.948502 268.667614 
L 79.948502 263.425137 
L 91.862754 263.425137 
L 91.862754 258.18266 
L 113.086321 258.18266 
L 113.086321 252.940182 
L 123.870396 252.940182 
L 123.870396 247.697705 
L 134.029181 247.697705 
L 134.029181 242.455228 
L 134.664189 242.455228 
L 134.664189 237.212751 
L 136.757848 237.212751 
L 136.757848 231.970274 
L 136.992776 231.970274 
L 136.992776 226.727797 
L 137.377325 226.727797 
L 137.377325 221.485319 
L 137.603992 221.485319 
L 137.603992 216.242842 
L 137.975251 216.242842 
L 137.975251 211.000365 
L 139.043211 211.000365 
L 139.043211 205.757888 
L 139.180721 205.757888 
L 139.180721 200.515411 
L 139.317139 200.515411 
L 139.317139 195.272933 
L 139.653523 195.272933 
L 139.653523 190.030456 
L 139.983449 190.030456 
L 139.983449 184.787979 
L 140.242905 184.787979 
L 140.242905 179.545502 
L 140.812746 179.545502 
L 140.812746 174.303025 
L 141.060069 174.303025 
L 141.060069 169.060547 
L 141.243253 169.060547 
L 141.243253 163.81807 
L 142.18857 163.81807 
L 142.18857 158.575593 
L 142.416994 158.575593 
L 142.416994 153.333116 
L 142.473629 153.333116 
L 142.473629 148.090639 
L 142.69832 148.090639 
L 142.69832 142.848162 
L 142.864932 142.848162 
L 142.864932 137.605684 
L 142.975116 137.605684 
L 142.975116 132.363207 
L 143.247524 132.363207 
L 143.247524 127.12073 
L 143.884213 127.12073 
L 143.884213 121.878253 
L 144.447825 121.878253 
L 144.447825 116.635776 
L 144.598384 116.635776 
L 144.598384 111.393298 
L 144.797098 111.393298 
L 144.797098 106.150821 
L 144.944641 106.150821 
L 144.944641 100.908344 
L 145.139415 100.908344 
L 145.139415 95.665867 
L 145.284061 95.665867 
L 145.284061 90.42339 
L 145.37982 90.42339 
L 145.37982 85.180912 
L 145.569751 85.180912 
L 145.569751 79.938435 
L 145.663936 79.938435 
L 145.663936 74.695958 
L 145.897164 74.695958 
L 145.897164 69.453481 
L 145.989576 69.453481 
L 145.989576 64.211004 
L 146.081494 64.211004 
L 146.081494 58.968526 
L 146.263868 58.968526 
L 146.263868 53.726049 
L 146.354335 53.726049 
L 146.354335 48.483572 
L 146.533852 48.483572 
L 146.533852 43.241095 
L 146.667271 43.241095 
L 146.667271 37.998618 
L 146.755644 37.998618 
L 146.755644 32.756141 
L 150.538207 32.756141 
L 150.538207 27.513663 
L 333.168 27.513663 
" style="fill:none;stroke:#f5deb3;stroke-linecap:square;stroke-width:4;"/>
   </g>
   <g id="line2d_2">
    <defs>
     <path d="M -0 7.778175 
L 7.778175 0 
L 0 -7.778175 
L -7.778175 -0 
z
" id="m1612b6fc62" style="stroke:#f5deb3;stroke-linejoin:miter;stroke-width:1.5;"/>
    </defs>
    <g>
     <use style="fill:#f5deb3;stroke:#f5deb3;stroke-linejoin:miter;stroke-width:1.5;" x="79.948502" xlink:href="#m1612b6fc62" y="268.667614"/>
     <use style="fill:#f5deb3;stroke:#f5deb3;stroke-linejoin:miter;stroke-width:1.5;" x="139.983449" xlink:href="#m1612b6fc62" y="190.030456"/>
     <use style="fill:#f5deb3;stroke:#f5deb3;stroke-linejoin:miter;stroke-width:1.5;" x="146.081494" xlink:href="#m1612b6fc62" y="58.968526"/>
     <use style="fill:#f5deb3;stroke:#f5deb3;stroke-linejoin:miter;stroke-width:1.5;" x="150.538207" xlink:href="#m1612b6fc62" y="32.756141"/>
     <use style="fill:#f5deb3;stroke:#f5deb3;stroke-linejoin:miter;stroke-width:1.5;" x="150.538207" xlink:href="#m1612b6fc62" y="27.513663"/>
     <use style="fill:#f5deb3;stroke:#f5deb3;stroke-linejoin:miter;stroke-width:1.5;" x="333.168" xlink:href="#m1612b6fc62" y="27.513663"/>
    </g>
   </g>
   <g id="line2d_3">
    <path style="fill:none;stroke:#f5deb3;stroke-linecap:square;stroke-width:4;"/>
    <g/>
   </g>
   <g id="line2d_4">
    <path d="M 333.168 27.513663 
L 363.64328 32.86099 
" style="fill:none;stroke:#f5deb3;stroke-linecap:square;stroke-width:4;"/>
    <g>
     <use style="fill:#f5deb3;stroke:#f5deb3;stroke-linejoin:miter;stroke-width:1.5;" x="333.168" xlink:href="#m1612b6fc62" y="27.513663"/>
     <use style="fill:#f5deb3;stroke:#f5deb3;stroke-linejoin:miter;stroke-width:1.5;" x="363.64328" xlink:href="#m1612b6fc62" y="32.86099"/>
    </g>
   </g>
   <g id="matplotlib.axis_1">
    <g id="xtick_1">
     <g id="line2d_5">
      <path clip-path="url(#pe2534e4cee)" d="M 56.12 294.88 
L 56.12 24.84 
" style="fill:none;stroke:#b0b0b0;stroke-linecap:square;stroke-width:0.8;"/>
     </g>
     <g id="line2d_6">
      <defs>
       <path d="M 0 0 
L 0 3.5 
" id="ma0d740e2da" style="stroke:#000000;stroke-width:0.8;"/>
      </defs>
      <g>
       <use style="stroke:#000000;stroke-width:0.8;" x="56.12" xlink:href="#ma0d740e2da" y="294.88"/>
      </g>
     </g>
     <g id="text_1">
      <!-- 0 -->
      <defs>
       <path d="M 31.78125 66.40625 
Q 24.171875 66.40625 20.328125 58.90625 
Q 16.5 51.421875 16.5 36.375 
Q 16.5 21.390625 20.328125 13.890625 
Q 24.171875 6.390625 31.78125 6.390625 
Q 39.453125 6.390625 43.28125 13.890625 
Q 47.125 21.390625 47.125 36.375 
Q 47.125 51.421875 43.28125 58.90625 
Q 39.453125 66.40625 31.78125 66.40625 
z
M 31.78125 74.21875 
Q 44.046875 74.21875 50.515625 64.515625 
Q 56.984375 54.828125 56.984375 36.375 
Q 56.984375 17.96875 50.515625 8.265625 
Q 44.046875 -1.421875 31.78125 -1.421875 
Q 19.53125 -1.421875 13.0625 8.265625 
Q 6.59375 17.96875 6.59375 36.375 
Q 6.59375 54.828125 13.0625 64.515625 
Q 19.53125 74.21875 31.78125 74.21875 
z
" id="DejaVuSans-30"/>
      </defs>
      <g transform="translate(49.7575 317.076875)scale(0.2 -0.2)">
       <use xlink:href="#DejaVuSans-30"/>
      </g>
     </g>
    </g>
    <g id="xtick_2">
     <g id="line2d_7">
      <path clip-path="url(#pe2534e4cee)" d="M 135.276571 294.88 
L 135.276571 24.84 
" style="fill:none;stroke:#b0b0b0;stroke-linecap:square;stroke-width:0.8;"/>
     </g>
     <g id="line2d_8">
      <g>
       <use style="stroke:#000000;stroke-width:0.8;" x="135.276571" xlink:href="#ma0d740e2da" y="294.88"/>
      </g>
     </g>
     <g id="text_2">
      <!-- 2 -->
      <defs>
       <path d="M 19.1875 8.296875 
L 53.609375 8.296875 
L 53.609375 0 
L 7.328125 0 
L 7.328125 8.296875 
Q 12.9375 14.109375 22.625 23.890625 
Q 32.328125 33.6875 34.8125 36.53125 
Q 39.546875 41.84375 41.421875 45.53125 
Q 43.3125 49.21875 43.3125 52.78125 
Q 43.3125 58.59375 39.234375 62.25 
Q 35.15625 65.921875 28.609375 65.921875 
Q 23.96875 65.921875 18.8125 64.3125 
Q 13.671875 62.703125 7.8125 59.421875 
L 7.8125 69.390625 
Q 13.765625 71.78125 18.9375 73 
Q 24.125 74.21875 28.421875 74.21875 
Q 39.75 74.21875 46.484375 68.546875 
Q 53.21875 62.890625 53.21875 53.421875 
Q 53.21875 48.921875 51.53125 44.890625 
Q 49.859375 40.875 45.40625 35.40625 
Q 44.1875 33.984375 37.640625 27.21875 
Q 31.109375 20.453125 19.1875 8.296875 
z
" id="DejaVuSans-32"/>
      </defs>
      <g transform="translate(128.914071 317.076875)scale(0.2 -0.2)">
       <use xlink:href="#DejaVuSans-32"/>
      </g>
     </g>
    </g>
    <g id="xtick_3">
     <g id="line2d_9">
      <path clip-path="url(#pe2534e4cee)" d="M 214.433143 294.88 
L 214.433143 24.84 
" style="fill:none;stroke:#b0b0b0;stroke-linecap:square;stroke-width:0.8;"/>
     </g>
     <g id="line2d_10">
      <g>
       <use style="stroke:#000000;stroke-width:0.8;" x="214.433143" xlink:href="#ma0d740e2da" y="294.88"/>
      </g>
     </g>
     <g id="text_3">
      <!-- 4 -->
      <defs>
       <path d="M 37.796875 64.3125 
L 12.890625 25.390625 
L 37.796875 25.390625 
z
M 35.203125 72.90625 
L 47.609375 72.90625 
L 47.609375 25.390625 
L 58.015625 25.390625 
L 58.015625 17.1875 
L 47.609375 17.1875 
L 47.609375 0 
L 37.796875 0 
L 37.796875 17.1875 
L 4.890625 17.1875 
L 4.890625 26.703125 
z
" id="DejaVuSans-34"/>
      </defs>
      <g transform="translate(208.070643 317.076875)scale(0.2 -0.2)">
       <use xlink:href="#DejaVuSans-34"/>
      </g>
     </g>
    </g>
    <g id="xtick_4">
     <g id="line2d_11">
      <path clip-path="url(#pe2534e4cee)" d="M 293.589714 294.88 
L 293.589714 24.84 
" style="fill:none;stroke:#b0b0b0;stroke-linecap:square;stroke-width:0.8;"/>
     </g>
     <g id="line2d_12">
      <g>
       <use style="stroke:#000000;stroke-width:0.8;" x="293.589714" xlink:href="#ma0d740e2da" y="294.88"/>
      </g>
     </g>
     <g id="text_4">
      <!-- 6 -->
      <defs>
       <path d="M 33.015625 40.375 
Q 26.375 40.375 22.484375 35.828125 
Q 18.609375 31.296875 18.609375 23.390625 
Q 18.609375 15.53125 22.484375 10.953125 
Q 26.375 6.390625 33.015625 6.390625 
Q 39.65625 6.390625 43.53125 10.953125 
Q 47.40625 15.53125 47.40625 23.390625 
Q 47.40625 31.296875 43.53125 35.828125 
Q 39.65625 40.375 33.015625 40.375 
z
M 52.59375 71.296875 
L 52.59375 62.3125 
Q 48.875 64.0625 45.09375 64.984375 
Q 41.3125 65.921875 37.59375 65.921875 
Q 27.828125 65.921875 22.671875 59.328125 
Q 17.53125 52.734375 16.796875 39.40625 
Q 19.671875 43.65625 24.015625 45.921875 
Q 28.375 48.1875 33.59375 48.1875 
Q 44.578125 48.1875 50.953125 41.515625 
Q 57.328125 34.859375 57.328125 23.390625 
Q 57.328125 12.15625 50.6875 5.359375 
Q 44.046875 -1.421875 33.015625 -1.421875 
Q 20.359375 -1.421875 13.671875 8.265625 
Q 6.984375 17.96875 6.984375 36.375 
Q 6.984375 53.65625 15.1875 63.9375 
Q 23.390625 74.21875 37.203125 74.21875 
Q 40.921875 74.21875 44.703125 73.484375 
Q 48.484375 72.75 52.59375 71.296875 
z
" id="DejaVuSans-36"/>
      </defs>
      <g transform="translate(287.227214 317.076875)scale(0.2 -0.2)">
       <use xlink:href="#DejaVuSans-36"/>
      </g>
     </g>
    </g>
    <g id="xtick_5">
     <g id="line2d_13">
      <path clip-path="url(#pe2534e4cee)" d="M 56.12 294.88 
L 56.12 24.84 
" style="fill:none;stroke:#b0b0b0;stroke-linecap:square;stroke-width:0.8;"/>
     </g>
     <g id="line2d_14">
      <defs>
       <path d="M 0 0 
L 0 2 
" id="mc4cad758a1" style="stroke:#000000;stroke-width:0.6;"/>
      </defs>
      <g>
       <use style="stroke:#000000;stroke-width:0.6;" x="56.12" xlink:href="#mc4cad758a1" y="294.88"/>
      </g>
     </g>
    </g>
    <g id="xtick_6">
     <g id="line2d_15">
      <path clip-path="url(#pe2534e4cee)" d="M 95.698286 294.88 
L 95.698286 24.84 
" style="fill:none;stroke:#b0b0b0;stroke-linecap:square;stroke-width:0.8;"/>
     </g>
     <g id="line2d_16">
      <g>
       <use style="stroke:#000000;stroke-width:0.6;" x="95.698286" xlink:href="#mc4cad758a1" y="294.88"/>
      </g>
     </g>
    </g>
    <g id="xtick_7">
     <g id="line2d_17">
      <path clip-path="url(#pe2534e4cee)" d="M 135.276571 294.88 
L 135.276571 24.84 
" style="fill:none;stroke:#b0b0b0;stroke-linecap:square;stroke-width:0.8;"/>
     </g>
     <g id="line2d_18">
      <g>
       <use style="stroke:#000000;stroke-width:0.6;" x="135.276571" xlink:href="#mc4cad758a1" y="294.88"/>
      </g>
     </g>
    </g>
    <g id="xtick_8">
     <g id="line2d_19">
      <path clip-path="url(#pe2534e4cee)" d="M 174.854857 294.88 
L 174.854857 24.84 
" style="fill:none;stroke:#b0b0b0;stroke-linecap:square;stroke-width:0.8;"/>
     </g>
     <g id="line2d_20">
      <g>
       <use style="stroke:#000000;stroke-width:0.6;" x="174.854857" xlink:href="#mc4cad758a1" y="294.88"/>
      </g>
     </g>
    </g>
    <g id="xtick_9">
     <g id="line2d_21">
      <path clip-path="url(#pe2534e4cee)" d="M 214.433143 294.88 
L 214.433143 24.84 
" style="fill:none;stroke:#b0b0b0;stroke-linecap:square;stroke-width:0.8;"/>
     </g>
     <g id="line2d_22">
      <g>
       <use style="stroke:#000000;stroke-width:0.6;" x="214.433143" xlink:href="#mc4cad758a1" y="294.88"/>
      </g>
     </g>
    </g>
    <g id="xtick_10">
     <g id="line2d_23">
      <path clip-path="url(#pe2534e4cee)" d="M 254.011429 294.88 
L 254.011429 24.84 
" style="fill:none;stroke:#b0b0b0;stroke-linecap:square;stroke-width:0.8;"/>
     </g>
     <g id="line2d_24">
      <g>
       <use style="stroke:#000000;stroke-width:0.6;" x="254.011429" xlink:href="#mc4cad758a1" y="294.88"/>
      </g>
     </g>
    </g>
    <g id="xtick_11">
     <g id="line2d_25">
      <path clip-path="url(#pe2534e4cee)" d="M 293.589714 294.88 
L 293.589714 24.84 
" style="fill:none;stroke:#b0b0b0;stroke-linecap:square;stroke-width:0.8;"/>
     </g>
     <g id="line2d_26">
      <g>
       <use style="stroke:#000000;stroke-width:0.6;" x="293.589714" xlink:href="#mc4cad758a1" y="294.88"/>
      </g>
     </g>
    </g>
    <g id="xtick_12">
     <g id="line2d_27">
      <path clip-path="url(#pe2534e4cee)" d="M 333.168 294.88 
L 333.168 24.84 
" style="fill:none;stroke:#b0b0b0;stroke-linecap:square;stroke-width:0.8;"/>
     </g>
     <g id="line2d_28">
      <g>
       <use style="stroke:#000000;stroke-width:0.6;" x="333.168" xlink:href="#mc4cad758a1" y="294.88"/>
      </g>
     </g>
    </g>
    <g id="text_5">
     <!-- log10(# f-evals / dimension) -->
     <defs>
      <path d="M 9.421875 75.984375 
L 18.40625 75.984375 
L 18.40625 0 
L 9.421875 0 
z
" id="DejaVuSans-6c"/>
      <path d="M 30.609375 48.390625 
Q 23.390625 48.390625 19.1875 42.75 
Q 14.984375 37.109375 14.984375 27.296875 
Q 14.984375 17.484375 19.15625 11.84375 
Q 23.34375 6.203125 30.609375 6.203125 
Q 37.796875 6.203125 41.984375 11.859375 
Q 46.1875 17.53125 46.1875 27.296875 
Q 46.1875 37.015625 41.984375 42.703125 
Q 37.796875 48.390625 30.609375 48.390625 
z
M 30.609375 56 
Q 42.328125 56 49.015625 48.375 
Q 55.71875 40.765625 55.71875 27.296875 
Q 55.71875 13.875 49.015625 6.21875 
Q 42.328125 -1.421875 30.609375 -1.421875 
Q 18.84375 -1.421875 12.171875 6.21875 
Q 5.515625 13.875 5.515625 27.296875 
Q 5.515625 40.765625 12.171875 48.375 
Q 18.84375 56 30.609375 56 
z
" id="DejaVuSans-6f"/>
      <path d="M 45.40625 27.984375 
Q 45.40625 37.75 41.375 43.109375 
Q 37.359375 48.484375 30.078125 48.484375 
Q 22.859375 48.484375 18.828125 43.109375 
Q 14.796875 37.75 14.796875 27.984375 
Q 14.796875 18.265625 18.828125 12.890625 
Q 22.859375 7.515625 30.078125 7.515625 
Q 37.359375 7.515625 41.375 12.890625 
Q 45.40625 18.265625 45.40625 27.984375 
z
M 54.390625 6.78125 
Q 54.390625 -7.171875 48.1875 -13.984375 
Q 42 -20.796875 29.203125 -20.796875 
Q 24.46875 -20.796875 20.265625 -20.09375 
Q 16.0625 -19.390625 12.109375 -17.921875 
L 12.109375 -9.1875 
Q 16.0625 -11.328125 19.921875 -12.34375 
Q 23.78125 -13.375 27.78125 -13.375 
Q 36.625 -13.375 41.015625 -8.765625 
Q 45.40625 -4.15625 45.40625 5.171875 
L 45.40625 9.625 
Q 42.625 4.78125 38.28125 2.390625 
Q 33.9375 0 27.875 0 
Q 17.828125 0 11.671875 7.65625 
Q 5.515625 15.328125 5.515625 27.984375 
Q 5.515625 40.671875 11.671875 48.328125 
Q 17.828125 56 27.875 56 
Q 33.9375 56 38.28125 53.609375 
Q 42.625 51.21875 45.40625 46.390625 
L 45.40625 54.6875 
L 54.390625 54.6875 
z
" id="DejaVuSans-67"/>
      <path d="M 12.40625 8.296875 
L 28.515625 8.296875 
L 28.515625 63.921875 
L 10.984375 60.40625 
L 10.984375 69.390625 
L 28.421875 72.90625 
L 38.28125 72.90625 
L 38.28125 8.296875 
L 54.390625 8.296875 
L 54.390625 0 
L 12.40625 0 
z
" id="DejaVuSans-31"/>
      <path d="M 31 75.875 
Q 24.46875 64.65625 21.28125 53.65625 
Q 18.109375 42.671875 18.109375 31.390625 
Q 18.109375 20.125 21.3125 9.0625 
Q 24.515625 -2 31 -13.1875 
L 23.1875 -13.1875 
Q 15.875 -1.703125 12.234375 9.375 
Q 8.59375 20.453125 8.59375 31.390625 
Q 8.59375 42.28125 12.203125 53.3125 
Q 15.828125 64.359375 23.1875 75.875 
z
" id="DejaVuSans-28"/>
      <path d="M 51.125 44 
L 36.921875 44 
L 32.8125 27.6875 
L 47.125 27.6875 
z
M 43.796875 71.78125 
L 38.71875 51.515625 
L 52.984375 51.515625 
L 58.109375 71.78125 
L 65.921875 71.78125 
L 60.890625 51.515625 
L 76.125 51.515625 
L 76.125 44 
L 58.984375 44 
L 54.984375 27.6875 
L 70.515625 27.6875 
L 70.515625 20.21875 
L 53.078125 20.21875 
L 48 0 
L 40.1875 0 
L 45.21875 20.21875 
L 30.90625 20.21875 
L 25.875 0 
L 18.015625 0 
L 23.09375 20.21875 
L 7.71875 20.21875 
L 7.71875 27.6875 
L 24.90625 27.6875 
L 29 44 
L 13.28125 44 
L 13.28125 51.515625 
L 30.90625 51.515625 
L 35.890625 71.78125 
z
" id="DejaVuSans-23"/>
      <path id="DejaVuSans-20"/>
      <path d="M 37.109375 75.984375 
L 37.109375 68.5 
L 28.515625 68.5 
Q 23.6875 68.5 21.796875 66.546875 
Q 19.921875 64.59375 19.921875 59.515625 
L 19.921875 54.6875 
L 34.71875 54.6875 
L 34.71875 47.703125 
L 19.921875 47.703125 
L 19.921875 0 
L 10.890625 0 
L 10.890625 47.703125 
L 2.296875 47.703125 
L 2.296875 54.6875 
L 10.890625 54.6875 
L 10.890625 58.5 
Q 10.890625 67.625 15.140625 71.796875 
Q 19.390625 75.984375 28.609375 75.984375 
z
" id="DejaVuSans-66"/>
      <path d="M 4.890625 31.390625 
L 31.203125 31.390625 
L 31.203125 23.390625 
L 4.890625 23.390625 
z
" id="DejaVuSans-2d"/>
      <path d="M 56.203125 29.59375 
L 56.203125 25.203125 
L 14.890625 25.203125 
Q 15.484375 15.921875 20.484375 11.0625 
Q 25.484375 6.203125 34.421875 6.203125 
Q 39.59375 6.203125 44.453125 7.46875 
Q 49.3125 8.734375 54.109375 11.28125 
L 54.109375 2.78125 
Q 49.265625 0.734375 44.1875 -0.34375 
Q 39.109375 -1.421875 33.890625 -1.421875 
Q 20.796875 -1.421875 13.15625 6.1875 
Q 5.515625 13.8125 5.515625 26.8125 
Q 5.515625 40.234375 12.765625 48.109375 
Q 20.015625 56 32.328125 56 
Q 43.359375 56 49.78125 48.890625 
Q 56.203125 41.796875 56.203125 29.59375 
z
M 47.21875 32.234375 
Q 47.125 39.59375 43.09375 43.984375 
Q 39.0625 48.390625 32.421875 48.390625 
Q 24.90625 48.390625 20.390625 44.140625 
Q 15.875 39.890625 15.1875 32.171875 
z
" id="DejaVuSans-65"/>
      <path d="M 2.984375 54.6875 
L 12.5 54.6875 
L 29.59375 8.796875 
L 46.6875 54.6875 
L 56.203125 54.6875 
L 35.6875 0 
L 23.484375 0 
z
" id="DejaVuSans-76"/>
      <path d="M 34.28125 27.484375 
Q 23.390625 27.484375 19.1875 25 
Q 14.984375 22.515625 14.984375 16.5 
Q 14.984375 11.71875 18.140625 8.90625 
Q 21.296875 6.109375 26.703125 6.109375 
Q 34.1875 6.109375 38.703125 11.40625 
Q 43.21875 16.703125 43.21875 25.484375 
L 43.21875 27.484375 
z
M 52.203125 31.203125 
L 52.203125 0 
L 43.21875 0 
L 43.21875 8.296875 
Q 40.140625 3.328125 35.546875 0.953125 
Q 30.953125 -1.421875 24.3125 -1.421875 
Q 15.921875 -1.421875 10.953125 3.296875 
Q 6 8.015625 6 15.921875 
Q 6 25.140625 12.171875 29.828125 
Q 18.359375 34.515625 30.609375 34.515625 
L 43.21875 34.515625 
L 43.21875 35.40625 
Q 43.21875 41.609375 39.140625 45 
Q 35.0625 48.390625 27.6875 48.390625 
Q 23 48.390625 18.546875 47.265625 
Q 14.109375 46.140625 10.015625 43.890625 
L 10.015625 52.203125 
Q 14.9375 54.109375 19.578125 55.046875 
Q 24.21875 56 28.609375 56 
Q 40.484375 56 46.34375 49.84375 
Q 52.203125 43.703125 52.203125 31.203125 
z
" id="DejaVuSans-61"/>
      <path d="M 44.28125 53.078125 
L 44.28125 44.578125 
Q 40.484375 46.53125 36.375 47.5 
Q 32.28125 48.484375 27.875 48.484375 
Q 21.1875 48.484375 17.84375 46.4375 
Q 14.5 44.390625 14.5 40.28125 
Q 14.5 37.15625 16.890625 35.375 
Q 19.28125 33.59375 26.515625 31.984375 
L 29.59375 31.296875 
Q 39.15625 29.25 43.1875 25.515625 
Q 47.21875 21.78125 47.21875 15.09375 
Q 47.21875 7.46875 41.1875 3.015625 
Q 35.15625 -1.421875 24.609375 -1.421875 
Q 20.21875 -1.421875 15.453125 -0.5625 
Q 10.6875 0.296875 5.421875 2 
L 5.421875 11.28125 
Q 10.40625 8.6875 15.234375 7.390625 
Q 20.0625 6.109375 24.8125 6.109375 
Q 31.15625 6.109375 34.5625 8.28125 
Q 37.984375 10.453125 37.984375 14.40625 
Q 37.984375 18.0625 35.515625 20.015625 
Q 33.0625 21.96875 24.703125 23.78125 
L 21.578125 24.515625 
Q 13.234375 26.265625 9.515625 29.90625 
Q 5.8125 33.546875 5.8125 39.890625 
Q 5.8125 47.609375 11.28125 51.796875 
Q 16.75 56 26.8125 56 
Q 31.78125 56 36.171875 55.265625 
Q 40.578125 54.546875 44.28125 53.078125 
z
" id="DejaVuSans-73"/>
      <path d="M 25.390625 72.90625 
L 33.6875 72.90625 
L 8.296875 -9.28125 
L 0 -9.28125 
z
" id="DejaVuSans-2f"/>
      <path d="M 45.40625 46.390625 
L 45.40625 75.984375 
L 54.390625 75.984375 
L 54.390625 0 
L 45.40625 0 
L 45.40625 8.203125 
Q 42.578125 3.328125 38.25 0.953125 
Q 33.9375 -1.421875 27.875 -1.421875 
Q 17.96875 -1.421875 11.734375 6.484375 
Q 5.515625 14.40625 5.515625 27.296875 
Q 5.515625 40.1875 11.734375 48.09375 
Q 17.96875 56 27.875 56 
Q 33.9375 56 38.25 53.625 
Q 42.578125 51.265625 45.40625 46.390625 
z
M 14.796875 27.296875 
Q 14.796875 17.390625 18.875 11.75 
Q 22.953125 6.109375 30.078125 6.109375 
Q 37.203125 6.109375 41.296875 11.75 
Q 45.40625 17.390625 45.40625 27.296875 
Q 45.40625 37.203125 41.296875 42.84375 
Q 37.203125 48.484375 30.078125 48.484375 
Q 22.953125 48.484375 18.875 42.84375 
Q 14.796875 37.203125 14.796875 27.296875 
z
" id="DejaVuSans-64"/>
      <path d="M 9.421875 54.6875 
L 18.40625 54.6875 
L 18.40625 0 
L 9.421875 0 
z
M 9.421875 75.984375 
L 18.40625 75.984375 
L 18.40625 64.59375 
L 9.421875 64.59375 
z
" id="DejaVuSans-69"/>
      <path d="M 52 44.1875 
Q 55.375 50.25 60.0625 53.125 
Q 64.75 56 71.09375 56 
Q 79.640625 56 84.28125 50.015625 
Q 88.921875 44.046875 88.921875 33.015625 
L 88.921875 0 
L 79.890625 0 
L 79.890625 32.71875 
Q 79.890625 40.578125 77.09375 44.375 
Q 74.3125 48.1875 68.609375 48.1875 
Q 61.625 48.1875 57.5625 43.546875 
Q 53.515625 38.921875 53.515625 30.90625 
L 53.515625 0 
L 44.484375 0 
L 44.484375 32.71875 
Q 44.484375 40.625 41.703125 44.40625 
Q 38.921875 48.1875 33.109375 48.1875 
Q 26.21875 48.1875 22.15625 43.53125 
Q 18.109375 38.875 18.109375 30.90625 
L 18.109375 0 
L 9.078125 0 
L 9.078125 54.6875 
L 18.109375 54.6875 
L 18.109375 46.1875 
Q 21.1875 51.21875 25.484375 53.609375 
Q 29.78125 56 35.6875 56 
Q 41.65625 56 45.828125 52.96875 
Q 50 49.953125 52 44.1875 
z
" id="DejaVuSans-6d"/>
      <path d="M 54.890625 33.015625 
L 54.890625 0 
L 45.90625 0 
L 45.90625 32.71875 
Q 45.90625 40.484375 42.875 44.328125 
Q 39.84375 48.1875 33.796875 48.1875 
Q 26.515625 48.1875 22.3125 43.546875 
Q 18.109375 38.921875 18.109375 30.90625 
L 18.109375 0 
L 9.078125 0 
L 9.078125 54.6875 
L 18.109375 54.6875 
L 18.109375 46.1875 
Q 21.34375 51.125 25.703125 53.5625 
Q 30.078125 56 35.796875 56 
Q 45.21875 56 50.046875 50.171875 
Q 54.890625 44.34375 54.890625 33.015625 
z
" id="DejaVuSans-6e"/>
      <path d="M 8.015625 75.875 
L 15.828125 75.875 
Q 23.140625 64.359375 26.78125 53.3125 
Q 30.421875 42.28125 30.421875 31.390625 
Q 30.421875 20.453125 26.78125 9.375 
Q 23.140625 -1.703125 15.828125 -13.1875 
L 8.015625 -13.1875 
Q 14.5 -2 17.703125 9.0625 
Q 20.90625 20.125 20.90625 31.390625 
Q 20.90625 42.671875 17.703125 53.65625 
Q 14.5 64.65625 8.015625 75.875 
z
" id="DejaVuSans-29"/>
     </defs>
     <g transform="translate(73.803219 338.153594)scale(0.17 -0.17)">
      <use xlink:href="#DejaVuSans-6c"/>
      <use x="27.783203" xlink:href="#DejaVuSans-6f"/>
      <use x="88.964844" xlink:href="#DejaVuSans-67"/>
      <use x="152.441406" xlink:href="#DejaVuSans-31"/>
      <use x="216.064453" xlink:href="#DejaVuSans-30"/>
      <use x="279.6875" xlink:href="#DejaVuSans-28"/>
      <use x="318.701172" xlink:href="#DejaVuSans-23"/>
      <use x="402.490234" xlink:href="#DejaVuSans-20"/>
      <use x="434.277344" xlink:href="#DejaVuSans-66"/>
      <use x="469.404297" xlink:href="#DejaVuSans-2d"/>
      <use x="505.488281" xlink:href="#DejaVuSans-65"/>
      <use x="567.011719" xlink:href="#DejaVuSans-76"/>
      <use x="626.191406" xlink:href="#DejaVuSans-61"/>
      <use x="687.470703" xlink:href="#DejaVuSans-6c"/>
      <use x="715.253906" xlink:href="#DejaVuSans-73"/>
      <use x="767.353516" xlink:href="#DejaVuSans-20"/>
      <use x="799.140625" xlink:href="#DejaVuSans-2f"/>
      <use x="832.832031" xlink:href="#DejaVuSans-20"/>
      <use x="864.619141" xlink:href="#DejaVuSans-64"/>
      <use x="928.095703" xlink:href="#DejaVuSans-69"/>
      <use x="955.878906" xlink:href="#DejaVuSans-6d"/>
      <use x="1053.291016" xlink:href="#DejaVuSans-65"/>
      <use x="1114.814453" xlink:href="#DejaVuSans-6e"/>
      <use x="1178.193359" xlink:href="#DejaVuSans-73"/>
      <use x="1230.292969" xlink:href="#DejaVuSans-69"/>
      <use x="1258.076172" xlink:href="#DejaVuSans-6f"/>
      <use x="1319.257812" xlink:href="#DejaVuSans-6e"/>
      <use x="1382.636719" xlink:href="#DejaVuSans-29"/>
     </g>
    </g>
   </g>
   <g id="matplotlib.axis_2">
    <g id="ytick_1">
     <g id="line2d_29">
      <path clip-path="url(#pe2534e4cee)" d="M 56.12 294.88 
L 333.168 294.88 
" style="fill:none;stroke:#b0b0b0;stroke-linecap:square;stroke-width:0.8;"/>
     </g>
     <g id="line2d_30">
      <defs>
       <path d="M 0 0 
L -3.5 0 
" id="m51f746b411" style="stroke:#000000;stroke-width:0.8;"/>
      </defs>
      <g>
       <use style="stroke:#000000;stroke-width:0.8;" x="56.12" xlink:href="#m51f746b411" y="294.88"/>
      </g>
     </g>
     <g id="text_6">
      <!-- 0.0 -->
      <defs>
       <path d="M 10.6875 12.40625 
L 21 12.40625 
L 21 0 
L 10.6875 0 
z
" id="DejaVuSans-2e"/>
      </defs>
      <g transform="translate(23.675 300.95875)scale(0.16 -0.16)">
       <use xlink:href="#DejaVuSans-30"/>
       <use x="63.623047" xlink:href="#DejaVuSans-2e"/>
       <use x="95.410156" xlink:href="#DejaVuSans-30"/>
      </g>
     </g>
    </g>
    <g id="ytick_2">
     <g id="line2d_31">
      <path clip-path="url(#pe2534e4cee)" d="M 56.12 241.406733 
L 333.168 241.406733 
" style="fill:none;stroke:#b0b0b0;stroke-linecap:square;stroke-width:0.8;"/>
     </g>
     <g id="line2d_32">
      <g>
       <use style="stroke:#000000;stroke-width:0.8;" x="56.12" xlink:href="#m51f746b411" y="241.406733"/>
      </g>
     </g>
     <g id="text_7">
      <!-- 0.2 -->
      <g transform="translate(23.675 247.485483)scale(0.16 -0.16)">
       <use xlink:href="#DejaVuSans-30"/>
       <use x="63.623047" xlink:href="#DejaVuSans-2e"/>
       <use x="95.410156" xlink:href="#DejaVuSans-32"/>
      </g>
     </g>
    </g>
    <g id="ytick_3">
     <g id="line2d_33">
      <path clip-path="url(#pe2534e4cee)" d="M 56.12 187.933465 
L 333.168 187.933465 
" style="fill:none;stroke:#b0b0b0;stroke-linecap:square;stroke-width:0.8;"/>
     </g>
     <g id="line2d_34">
      <g>
       <use style="stroke:#000000;stroke-width:0.8;" x="56.12" xlink:href="#m51f746b411" y="187.933465"/>
      </g>
     </g>
     <g id="text_8">
      <!-- 0.4 -->
      <g transform="translate(23.675 194.012215)scale(0.16 -0.16)">
       <use xlink:href="#DejaVuSans-30"/>
       <use x="63.623047" xlink:href="#DejaVuSans-2e"/>
       <use x="95.410156" xlink:href="#DejaVuSans-34"/>
      </g>
     </g>
    </g>
    <g id="ytick_4">
     <g id="line2d_35">
      <path clip-path="url(#pe2534e4cee)" d="M 56.12 134.460198 
L 333.168 134.460198 
" style="fill:none;stroke:#b0b0b0;stroke-linecap:square;stroke-width:0.8;"/>
     </g>
     <g id="line2d_36">
      <g>
       <use style="stroke:#000000;stroke-width:0.8;" x="56.12" xlink:href="#m51f746b411" y="134.460198"/>
      </g>
     </g>
     <g id="text_9">
      <!-- 0.6 -->
      <g transform="translate(23.675 140.538948)scale(0.16 -0.16)">
       <use xlink:href="#DejaVuSans-30"/>
       <use x="63.623047" xlink:href="#DejaVuSans-2e"/>
       <use x="95.410156" xlink:href="#DejaVuSans-36"/>
      </g>
     </g>
    </g>
    <g id="ytick_5">
     <g id="line2d_37">
      <path clip-path="url(#pe2534e4cee)" d="M 56.12 80.986931 
L 333.168 80.986931 
" style="fill:none;stroke:#b0b0b0;stroke-linecap:square;stroke-width:0.8;"/>
     </g>
     <g id="line2d_38">
      <g>
       <use style="stroke:#000000;stroke-width:0.8;" x="56.12" xlink:href="#m51f746b411" y="80.986931"/>
      </g>
     </g>
     <g id="text_10">
      <!-- 0.8 -->
      <defs>
       <path d="M 31.78125 34.625 
Q 24.75 34.625 20.71875 30.859375 
Q 16.703125 27.09375 16.703125 20.515625 
Q 16.703125 13.921875 20.71875 10.15625 
Q 24.75 6.390625 31.78125 6.390625 
Q 38.8125 6.390625 42.859375 10.171875 
Q 46.921875 13.96875 46.921875 20.515625 
Q 46.921875 27.09375 42.890625 30.859375 
Q 38.875 34.625 31.78125 34.625 
z
M 21.921875 38.8125 
Q 15.578125 40.375 12.03125 44.71875 
Q 8.5 49.078125 8.5 55.328125 
Q 8.5 64.0625 14.71875 69.140625 
Q 20.953125 74.21875 31.78125 74.21875 
Q 42.671875 74.21875 48.875 69.140625 
Q 55.078125 64.0625 55.078125 55.328125 
Q 55.078125 49.078125 51.53125 44.71875 
Q 48 40.375 41.703125 38.8125 
Q 48.828125 37.15625 52.796875 32.3125 
Q 56.78125 27.484375 56.78125 20.515625 
Q 56.78125 9.90625 50.3125 4.234375 
Q 43.84375 -1.421875 31.78125 -1.421875 
Q 19.734375 -1.421875 13.25 4.234375 
Q 6.78125 9.90625 6.78125 20.515625 
Q 6.78125 27.484375 10.78125 32.3125 
Q 14.796875 37.15625 21.921875 38.8125 
z
M 18.3125 54.390625 
Q 18.3125 48.734375 21.84375 45.5625 
Q 25.390625 42.390625 31.78125 42.390625 
Q 38.140625 42.390625 41.71875 45.5625 
Q 45.3125 48.734375 45.3125 54.390625 
Q 45.3125 60.0625 41.71875 63.234375 
Q 38.140625 66.40625 31.78125 66.40625 
Q 25.390625 66.40625 21.84375 63.234375 
Q 18.3125 60.0625 18.3125 54.390625 
z
" id="DejaVuSans-38"/>
      </defs>
      <g transform="translate(23.675 87.065681)scale(0.16 -0.16)">
       <use xlink:href="#DejaVuSans-30"/>
       <use x="63.623047" xlink:href="#DejaVuSans-2e"/>
       <use x="95.410156" xlink:href="#DejaVuSans-38"/>
      </g>
     </g>
    </g>
    <g id="ytick_6">
     <g id="line2d_39">
      <path clip-path="url(#pe2534e4cee)" d="M 56.12 27.513663 
L 333.168 27.513663 
" style="fill:none;stroke:#b0b0b0;stroke-linecap:square;stroke-width:0.8;"/>
     </g>
     <g id="line2d_40">
      <g>
       <use style="stroke:#000000;stroke-width:0.8;" x="56.12" xlink:href="#m51f746b411" y="27.513663"/>
      </g>
     </g>
     <g id="text_11">
      <!-- 1.0 -->
      <g transform="translate(23.675 33.592413)scale(0.16 -0.16)">
       <use xlink:href="#DejaVuSans-31"/>
       <use x="63.623047" xlink:href="#DejaVuSans-2e"/>
       <use x="95.410156" xlink:href="#DejaVuSans-30"/>
      </g>
     </g>
    </g>
    <g id="text_12">
     <!-- Fraction of function,target pairs -->
     <defs>
      <path d="M 9.8125 72.90625 
L 51.703125 72.90625 
L 51.703125 64.59375 
L 19.671875 64.59375 
L 19.671875 43.109375 
L 48.578125 43.109375 
L 48.578125 34.8125 
L 19.671875 34.8125 
L 19.671875 0 
L 9.8125 0 
z
" id="DejaVuSans-46"/>
      <path d="M 41.109375 46.296875 
Q 39.59375 47.171875 37.8125 47.578125 
Q 36.03125 48 33.890625 48 
Q 26.265625 48 22.1875 43.046875 
Q 18.109375 38.09375 18.109375 28.8125 
L 18.109375 0 
L 9.078125 0 
L 9.078125 54.6875 
L 18.109375 54.6875 
L 18.109375 46.1875 
Q 20.953125 51.171875 25.484375 53.578125 
Q 30.03125 56 36.53125 56 
Q 37.453125 56 38.578125 55.875 
Q 39.703125 55.765625 41.0625 55.515625 
z
" id="DejaVuSans-72"/>
      <path d="M 48.78125 52.59375 
L 48.78125 44.1875 
Q 44.96875 46.296875 41.140625 47.34375 
Q 37.3125 48.390625 33.40625 48.390625 
Q 24.65625 48.390625 19.8125 42.84375 
Q 14.984375 37.3125 14.984375 27.296875 
Q 14.984375 17.28125 19.8125 11.734375 
Q 24.65625 6.203125 33.40625 6.203125 
Q 37.3125 6.203125 41.140625 7.25 
Q 44.96875 8.296875 48.78125 10.40625 
L 48.78125 2.09375 
Q 45.015625 0.34375 40.984375 -0.53125 
Q 36.96875 -1.421875 32.421875 -1.421875 
Q 20.0625 -1.421875 12.78125 6.34375 
Q 5.515625 14.109375 5.515625 27.296875 
Q 5.515625 40.671875 12.859375 48.328125 
Q 20.21875 56 33.015625 56 
Q 37.15625 56 41.109375 55.140625 
Q 45.0625 54.296875 48.78125 52.59375 
z
" id="DejaVuSans-63"/>
      <path d="M 18.3125 70.21875 
L 18.3125 54.6875 
L 36.8125 54.6875 
L 36.8125 47.703125 
L 18.3125 47.703125 
L 18.3125 18.015625 
Q 18.3125 11.328125 20.140625 9.421875 
Q 21.96875 7.515625 27.59375 7.515625 
L 36.8125 7.515625 
L 36.8125 0 
L 27.59375 0 
Q 17.1875 0 13.234375 3.875 
Q 9.28125 7.765625 9.28125 18.015625 
L 9.28125 47.703125 
L 2.6875 47.703125 
L 2.6875 54.6875 
L 9.28125 54.6875 
L 9.28125 70.21875 
z
" id="DejaVuSans-74"/>
      <path d="M 8.5 21.578125 
L 8.5 54.6875 
L 17.484375 54.6875 
L 17.484375 21.921875 
Q 17.484375 14.15625 20.5 10.265625 
Q 23.53125 6.390625 29.59375 6.390625 
Q 36.859375 6.390625 41.078125 11.03125 
Q 45.3125 15.671875 45.3125 23.6875 
L 45.3125 54.6875 
L 54.296875 54.6875 
L 54.296875 0 
L 45.3125 0 
L 45.3125 8.40625 
Q 42.046875 3.421875 37.71875 1 
Q 33.40625 -1.421875 27.6875 -1.421875 
Q 18.265625 -1.421875 13.375 4.4375 
Q 8.5 10.296875 8.5 21.578125 
z
M 31.109375 56 
z
" id="DejaVuSans-75"/>
      <path d="M 11.71875 12.40625 
L 22.015625 12.40625 
L 22.015625 4 
L 14.015625 -11.625 
L 7.71875 -11.625 
L 11.71875 4 
z
" id="DejaVuSans-2c"/>
      <path d="M 18.109375 8.203125 
L 18.109375 -20.796875 
L 9.078125 -20.796875 
L 9.078125 54.6875 
L 18.109375 54.6875 
L 18.109375 46.390625 
Q 20.953125 51.265625 25.265625 53.625 
Q 29.59375 56 35.59375 56 
Q 45.5625 56 51.78125 48.09375 
Q 58.015625 40.1875 58.015625 27.296875 
Q 58.015625 14.40625 51.78125 6.484375 
Q 45.5625 -1.421875 35.59375 -1.421875 
Q 29.59375 -1.421875 25.265625 0.953125 
Q 20.953125 3.328125 18.109375 8.203125 
z
M 48.6875 27.296875 
Q 48.6875 37.203125 44.609375 42.84375 
Q 40.53125 48.484375 33.40625 48.484375 
Q 26.265625 48.484375 22.1875 42.84375 
Q 18.109375 37.203125 18.109375 27.296875 
Q 18.109375 17.390625 22.1875 11.75 
Q 26.265625 6.109375 33.40625 6.109375 
Q 40.53125 6.109375 44.609375 11.75 
Q 48.6875 17.390625 48.6875 27.296875 
z
" id="DejaVuSans-70"/>
     </defs>
     <g transform="translate(16.139531 294.999375)rotate(-90)scale(0.17 -0.17)">
      <use xlink:href="#DejaVuSans-46"/>
      <use x="57.410156" xlink:href="#DejaVuSans-72"/>
      <use x="98.523438" xlink:href="#DejaVuSans-61"/>
      <use x="159.802734" xlink:href="#DejaVuSans-63"/>
      <use x="214.783203" xlink:href="#DejaVuSans-74"/>
      <use x="253.992188" xlink:href="#DejaVuSans-69"/>
      <use x="281.775391" xlink:href="#DejaVuSans-6f"/>
      <use x="342.957031" xlink:href="#DejaVuSans-6e"/>
      <use x="406.335938" xlink:href="#DejaVuSans-20"/>
      <use x="438.123047" xlink:href="#DejaVuSans-6f"/>
      <use x="499.304688" xlink:href="#DejaVuSans-66"/>
      <use x="534.509766" xlink:href="#DejaVuSans-20"/>
      <use x="566.296875" xlink:href="#DejaVuSans-66"/>
      <use x="601.501953" xlink:href="#DejaVuSans-75"/>
      <use x="664.880859" xlink:href="#DejaVuSans-6e"/>
      <use x="728.259766" xlink:href="#DejaVuSans-63"/>
      <use x="783.240234" xlink:href="#DejaVuSans-74"/>
      <use x="822.449219" xlink:href="#DejaVuSans-69"/>
      <use x="850.232422" xlink:href="#DejaVuSans-6f"/>
      <use x="911.414062" xlink:href="#DejaVuSans-6e"/>
      <use x="974.792969" xlink:href="#DejaVuSans-2c"/>
      <use x="1006.580078" xlink:href="#DejaVuSans-74"/>
      <use x="1045.789062" xlink:href="#DejaVuSans-61"/>
      <use x="1107.068359" xlink:href="#DejaVuSans-72"/>
      <use x="1148.166016" xlink:href="#DejaVuSans-67"/>
      <use x="1211.642578" xlink:href="#DejaVuSans-65"/>
      <use x="1273.166016" xlink:href="#DejaVuSans-74"/>
      <use x="1312.375" xlink:href="#DejaVuSans-20"/>
      <use x="1344.162109" xlink:href="#DejaVuSans-70"/>
      <use x="1407.638672" xlink:href="#DejaVuSans-61"/>
      <use x="1468.917969" xlink:href="#DejaVuSans-69"/>
      <use x="1496.701172" xlink:href="#DejaVuSans-72"/>
      <use x="1537.814453" xlink:href="#DejaVuSans-73"/>
     </g>
    </g>
   </g>
   <g id="line2d_41">
    <defs>
     <path d="M 0 1.5 
C 0.397805 1.5 0.77937 1.341951 1.06066 1.06066 
C 1.341951 0.77937 1.5 0.397805 1.5 0 
C 1.5 -0.397805 1.341951 -0.77937 1.06066 -1.06066 
C 0.77937 -1.341951 0.397805 -1.5 0 -1.5 
C -0.397805 -1.5 -0.77937 -1.341951 -1.06066 -1.06066 
C -1.341951 -0.77937 -1.5 -0.397805 -1.5 0 
C -1.5 0.397805 -1.341951 0.77937 -1.06066 1.06066 
C -0.77937 1.341951 -0.397805 1.5 0 1.5 
z
" id="m99da8a863e" style="stroke:#f5deb3;"/>
    </defs>
    <g>
     <use style="fill:#f5deb3;stroke:#f5deb3;" x="150.538207" xlink:href="#m99da8a863e" y="27.513663"/>
     <use style="fill:#f5deb3;stroke:#f5deb3;" x="150.538207" xlink:href="#m99da8a863e" y="27.513663"/>
    </g>
   </g>
   <g id="line2d_42">
    <defs>
     <path d="M 0 1.5 
C 0.397805 1.5 0.77937 1.341951 1.06066 1.06066 
C 1.341951 0.77937 1.5 0.397805 1.5 0 
C 1.5 -0.397805 1.341951 -0.77937 1.06066 -1.06066 
C 0.77937 -1.341951 0.397805 -1.5 0 -1.5 
C -0.397805 -1.5 -0.77937 -1.341951 -1.06066 -1.06066 
C -1.341951 -0.77937 -1.5 -0.397805 -1.5 0 
C -1.5 0.397805 -1.341951 0.77937 -1.06066 1.06066 
C -0.77937 1.341951 -0.397805 1.5 0 1.5 
z
" id="mfac59fb1ee" style="stroke:#000080;"/>
    </defs>
    <g>
     <use style="fill:#000080;stroke:#000080;" x="247.850568" xlink:href="#mfac59fb1ee" y="226.727797"/>
     <use style="fill:#000080;stroke:#000080;" x="247.850568" xlink:href="#mfac59fb1ee" y="226.727797"/>
    </g>
   </g>
   <g id="line2d_43">
    <path d="M 44.205749 294.88 
L 44.205749 284.395046 
L 56.12 284.395046 
L 56.12 281.249559 
L 63.08939 281.249559 
L 63.08939 279.152568 
L 68.034251 279.152568 
L 68.034251 277.055578 
L 71.869783 277.055578 
L 71.869783 274.958587 
L 75.003641 274.958587 
L 75.003641 271.288853 
L 77.653281 271.288853 
L 77.653281 267.094871 
L 83.784035 267.094871 
L 83.784035 266.570623 
L 88.293717 266.570623 
L 88.293717 264.99788 
L 89.567532 264.99788 
L 89.567532 264.473632 
L 90.753425 264.473632 
L 90.753425 263.425137 
L 94.816624 263.425137 
L 94.816624 262.376641 
L 99.533818 262.376641 
L 99.533818 260.803898 
L 101.481783 260.803898 
L 101.481783 258.706907 
L 103.777005 258.706907 
L 103.777005 258.18266 
L 112.770924 258.18266 
L 112.770924 257.658412 
L 128.520707 257.658412 
L 128.520707 257.134164 
L 129.630036 257.134164 
L 129.630036 256.085669 
L 131.333273 256.085669 
L 131.333273 255.561421 
L 133.560797 255.561421 
L 133.560797 253.46443 
L 136.836515 253.46443 
L 136.836515 252.415935 
L 137.224536 252.415935 
L 137.224536 251.891687 
L 141.72241 251.891687 
L 141.72241 250.843192 
L 153.187846 250.843192 
L 153.187846 250.318944 
L 163.795604 250.318944 
L 163.795604 249.794696 
L 166.202898 249.794696 
L 166.202898 249.270448 
L 166.498896 249.270448 
L 166.498896 248.746201 
L 168.613248 248.746201 
L 168.613248 248.221953 
L 169.932899 248.221953 
L 169.932899 247.697705 
L 170.306457 247.697705 
L 170.306457 247.173458 
L 170.63915 247.173458 
L 170.63915 246.64921 
L 170.965526 246.64921 
L 171.019325 245.600714 
L 171.724437 245.600714 
L 171.806728 244.552219 
L 174.197887 244.552219 
L 174.197887 244.027971 
L 175.093829 244.027971 
L 175.093829 243.503724 
L 178.655978 243.503724 
L 178.655978 242.979476 
L 180.222054 242.979476 
L 180.222054 242.455228 
L 180.434571 242.455228 
L 180.434571 241.93098 
L 181.152389 241.93098 
L 181.152389 241.406733 
L 183.56118 241.406733 
L 183.56118 240.882485 
L 184.635191 240.882485 
L 184.635191 240.358237 
L 184.794997 240.358237 
L 184.794997 239.83399 
L 185.609285 239.83399 
L 185.678104 238.785494 
L 185.937131 238.785494 
L 185.937131 238.261246 
L 186.691585 238.261246 
L 186.691585 237.736999 
L 187.23123 237.736999 
L 187.23123 237.212751 
L 196.237695 237.212751 
L 196.237695 236.688503 
L 198.488891 236.688503 
L 198.488891 236.164255 
L 202.837351 236.164255 
L 202.859272 235.11576 
L 203.998591 235.11576 
L 203.998591 234.591512 
L 204.26152 234.591512 
L 204.26152 234.067265 
L 206.019791 234.067265 
L 206.019791 233.543017 
L 208.790188 233.543017 
L 208.790188 233.018769 
L 211.480185 233.018769 
L 211.480185 232.494521 
L 211.71533 232.494521 
L 211.71533 231.970274 
L 212.625004 231.970274 
L 212.625004 231.446026 
L 213.218066 231.446026 
L 213.218066 230.921778 
L 214.552191 230.921778 
L 214.552191 230.397531 
L 214.667876 230.397531 
L 214.667876 229.873283 
L 221.312343 229.873283 
L 221.312343 229.349035 
L 226.726069 229.349035 
L 226.726069 228.824787 
L 229.780507 228.824787 
L 229.780507 228.30054 
L 231.86955 228.30054 
L 231.86955 227.776292 
L 234.60645 227.776292 
L 234.60645 227.252044 
L 247.850568 227.252044 
L 247.850568 226.727797 
L 333.168 226.727797 
L 333.168 226.727797 
" style="fill:none;stroke:#000080;stroke-linecap:square;stroke-width:1.5;"/>
   </g>
   <g id="line2d_44">
    <defs>
     <path d="M 0 6 
C 1.591219 6 3.117479 5.367802 4.242641 4.242641 
C 5.367802 3.117479 6 1.591219 6 0 
C 6 -1.591219 5.367802 -3.117479 4.242641 -4.242641 
C 3.117479 -5.367802 1.591219 -6 0 -6 
C -1.591219 -6 -3.117479 -5.367802 -4.242641 -4.242641 
C -5.367802 -3.117479 -6 -1.591219 -6 0 
C -6 1.591219 -5.367802 3.117479 -4.242641 4.242641 
C -3.117479 5.367802 -1.591219 6 0 6 
z
" id="m2fcb4ed4ff" style="stroke:#000080;stroke-width:1.5;"/>
    </defs>
    <g>
     <use style="fill:none;stroke:#000080;stroke-width:1.5;" x="90.753425" xlink:href="#m2fcb4ed4ff" y="264.473632"/>
     <use style="fill:none;stroke:#000080;stroke-width:1.5;" x="153.187846" xlink:href="#m2fcb4ed4ff" y="250.318944"/>
     <use style="fill:none;stroke:#000080;stroke-width:1.5;" x="198.488891" xlink:href="#m2fcb4ed4ff" y="236.164255"/>
     <use style="fill:none;stroke:#000080;stroke-width:1.5;" x="247.850568" xlink:href="#m2fcb4ed4ff" y="227.252044"/>
     <use style="fill:none;stroke:#000080;stroke-width:1.5;" x="247.850568" xlink:href="#m2fcb4ed4ff" y="226.727797"/>
     <use style="fill:none;stroke:#000080;stroke-width:1.5;" x="333.168" xlink:href="#m2fcb4ed4ff" y="226.727797"/>
    </g>
   </g>
   <g id="line2d_45">
    <path style="fill:none;stroke:#000080;stroke-linecap:square;stroke-width:1.5;"/>
    <g/>
   </g>
   <g id="line2d_46">
    <path clip-path="url(#pe2534e4cee)" d="M 183.358008 241.406733 
" style="fill:none;stroke:#000080;stroke-linecap:square;stroke-width:1.5;"/>
    <defs>
     <path d="M -12 12 
L 12 -12 
M -12 -12 
L 12 12 
" id="m2959d8724d" style="stroke:#000080;"/>
    </defs>
    <g clip-path="url(#pe2534e4cee)">
     <use style="fill:#000080;stroke:#000080;" x="183.358008" xlink:href="#m2959d8724d" y="241.406733"/>
    </g>
   </g>
   <g id="line2d_47">
    <defs>
     <path d="M 0 1.5 
C 0.397805 1.5 0.77937 1.341951 1.06066 1.06066 
C 1.341951 0.77937 1.5 0.397805 1.5 0 
C 1.5 -0.397805 1.341951 -0.77937 1.06066 -1.06066 
C 0.77937 -1.341951 0.397805 -1.5 0 -1.5 
C -0.397805 -1.5 -0.77937 -1.341951 -1.06066 -1.06066 
C -1.341951 -0.77937 -1.5 -0.397805 -1.5 0 
C -1.5 0.397805 -1.341951 0.77937 -1.06066 1.06066 
C -0.77937 1.341951 -0.397805 1.5 0 1.5 
z
" id="m882e536c9b" style="stroke:#ff00ff;"/>
    </defs>
    <g>
     <use style="fill:#ff00ff;stroke:#ff00ff;" x="220.52871" xlink:href="#m882e536c9b" y="27.513663"/>
     <use style="fill:#ff00ff;stroke:#ff00ff;" x="220.52871" xlink:href="#m882e536c9b" y="27.513663"/>
    </g>
   </g>
   <g id="line2d_48">
    <path d="M 44.205749 294.88 
L 44.205749 282.298055 
L 56.12 282.298055 
L 56.12 277.579825 
L 63.08939 277.579825 
L 63.08939 275.482834 
L 68.034251 275.482834 
L 68.034251 273.385844 
L 71.869783 273.385844 
L 71.869783 272.861596 
L 75.003641 272.861596 
L 75.003641 271.288853 
L 77.653281 271.288853 
L 77.653281 270.240357 
L 81.973032 270.240357 
L 81.973032 268.143366 
L 83.784035 268.143366 
L 83.784035 267.619119 
L 85.422286 267.619119 
L 85.422286 266.046375 
L 94.816624 266.046375 
L 94.816624 265.522128 
L 96.536922 265.522128 
L 96.536922 264.99788 
L 97.336537 264.99788 
L 97.336537 264.473632 
L 98.100602 264.473632 
L 98.100602 263.949385 
L 99.533818 263.949385 
L 99.533818 263.425137 
L 100.207968 263.425137 
L 100.207968 262.900889 
L 104.819059 262.900889 
L 104.819059 262.376641 
L 105.317315 262.376641 
L 105.317315 260.279651 
L 106.730875 260.279651 
L 106.730875 259.755403 
L 107.177358 259.755403 
L 107.177358 259.231155 
L 108.036969 259.231155 
L 108.036969 258.706907 
L 111.788449 258.706907 
L 111.788449 258.18266 
L 112.449632 258.18266 
L 112.449632 257.134164 
L 113.700266 257.134164 
L 113.700266 256.609917 
L 115.691256 256.609917 
L 115.691256 256.085669 
L 124.363883 256.085669 
L 124.363883 255.561421 
L 126.780294 255.561421 
L 126.780294 255.037173 
L 128.39291 255.037173 
L 128.39291 252.940182 
L 128.647561 252.940182 
L 128.647561 251.891687 
L 128.898495 251.891687 
L 128.898495 249.794696 
L 129.510254 249.794696 
L 129.510254 249.270448 
L 132.483094 249.270448 
L 132.583907 248.221953 
L 132.684132 248.221953 
L 132.684132 247.697705 
L 133.560797 247.697705 
L 133.560797 247.173458 
L 135.532486 247.173458 
L 135.532486 246.64921 
L 136.757848 246.64921 
L 136.757848 246.124962 
L 138.121538 246.124962 
L 138.194217 244.552219 
L 140.371179 244.552219 
L 140.371179 244.027971 
L 141.544287 244.027971 
L 141.544287 243.503724 
L 142.303162 243.503724 
L 142.303162 242.979476 
L 142.530078 242.979476 
L 142.530078 242.455228 
L 143.139078 242.455228 
L 143.247524 240.882485 
L 143.301492 240.882485 
L 143.301492 240.358237 
L 143.779723 240.358237 
L 143.779723 239.83399 
L 143.936221 239.83399 
L 143.936221 238.785494 
L 144.895601 238.785494 
L 144.895601 237.736999 
L 145.332007 237.736999 
L 145.332007 236.688503 
L 145.663936 236.688503 
L 145.663936 236.164255 
L 146.843566 236.164255 
L 146.843566 235.640008 
L 147.531203 235.640008 
L 147.531203 234.067265 
L 147.988485 234.067265 
L 147.988485 231.446026 
L 148.313575 231.446026 
L 148.313575 230.397531 
L 149.741959 230.397531 
L 149.741959 229.349035 
L 150.035789 229.349035 
L 150.035789 228.824787 
L 150.431775 228.824787 
L 150.431775 228.30054 
L 150.922912 228.30054 
L 151.026355 227.252044 
L 151.094972 227.252044 
L 151.163317 225.679301 
L 151.265327 225.679301 
L 151.265327 224.106558 
L 151.766488 224.106558 
L 151.832219 223.058063 
L 152.124937 223.058063 
L 152.157156 220.961072 
L 152.317349 220.961072 
L 152.317349 220.436824 
L 152.601988 220.436824 
L 152.69583 219.388328 
L 152.912822 219.388328 
L 153.004986 216.242842 
L 153.066156 216.242842 
L 153.066156 215.718594 
L 153.187846 215.718594 
L 153.187846 214.670099 
L 153.30868 214.670099 
L 153.30868 214.145851 
L 153.577492 214.145851 
L 153.607102 213.097356 
L 153.754391 213.097356 
L 153.812956 211.524613 
L 153.871321 211.524613 
L 153.90043 208.903374 
L 153.987461 208.903374 
L 154.016374 207.330631 
L 154.131541 207.330631 
L 154.131541 206.806383 
L 154.416128 206.806383 
L 154.416128 206.282136 
L 154.584645 206.282136 
L 154.668288 205.23364 
L 155.18878 205.23364 
L 155.269542 203.136649 
L 155.323172 203.136649 
L 155.376636 202.088154 
L 155.562461 202.088154 
L 155.615187 200.515411 
L 155.954019 200.515411 
L 155.954019 199.991163 
L 156.108178 199.991163 
L 156.159258 197.894172 
L 156.362076 197.894172 
L 156.387261 196.845677 
L 156.512635 196.845677 
L 156.587422 194.748686 
L 156.858892 194.748686 
L 156.956555 192.651695 
L 157.246258 192.651695 
L 157.246258 191.078952 
L 157.365541 191.078952 
L 157.460375 187.933465 
L 157.811415 187.933465 
L 157.903827 185.312227 
L 158.064362 185.312227 
L 158.064362 184.787979 
L 158.178119 184.787979 
L 158.268586 183.739484 
L 158.448103 183.739484 
L 158.492691 181.642493 
L 158.647844 181.642493 
L 158.713912 179.545502 
L 158.779727 179.545502 
L 158.779727 179.021254 
L 158.910606 179.021254 
L 159.018915 176.924263 
L 159.126546 176.924263 
L 159.126546 176.400016 
L 159.25482 176.400016 
L 159.25482 175.875768 
L 159.403273 175.875768 
L 159.508531 171.157538 
L 159.613149 171.157538 
L 159.613149 170.109043 
L 159.820493 170.109043 
L 159.923235 166.439309 
L 160.147128 166.439309 
L 160.227826 164.342318 
L 160.288102 164.342318 
L 160.308147 162.769575 
L 160.487508 162.769575 
L 160.487508 162.245327 
L 160.606051 162.245327 
L 160.665017 160.148336 
L 160.879512 160.148336 
L 160.976132 158.051345 
L 161.224831 158.051345 
L 161.281716 156.478602 
L 161.376107 156.478602 
L 161.469983 153.333116 
L 161.488697 153.333116 
L 161.488697 152.28462 
L 161.637678 152.28462 
L 161.711688 150.711877 
L 161.78538 150.711877 
L 161.840442 148.614886 
L 162.004579 148.614886 
L 162.095093 145.993648 
L 162.185133 145.993648 
L 162.292562 144.420905 
L 162.310402 144.420905 
L 162.346026 142.848162 
L 162.54065 142.848162 
L 162.593349 141.799666 
L 162.819862 141.799666 
L 162.923409 137.605684 
L 163.094612 137.605684 
L 163.094612 135.508693 
L 163.24725 135.508693 
L 163.24725 134.460198 
L 163.398544 134.460198 
L 163.398544 133.411703 
L 163.614756 133.411703 
L 163.64778 132.363207 
L 163.811951 132.363207 
L 163.811951 131.838959 
L 164.103566 131.838959 
L 164.135664 130.266216 
L 164.437645 130.266216 
L 164.547577 128.169225 
L 164.563224 128.169225 
L 164.672359 125.547987 
L 164.74989 125.547987 
L 164.827073 122.926748 
L 165.298024 122.926748 
L 165.298024 121.878253 
L 165.491743 121.878253 
L 165.565672 120.30551 
L 165.741817 120.30551 
L 165.800133 117.160023 
L 166.302131 117.160023 
L 166.302131 116.635776 
L 166.693434 116.635776 
L 166.693434 116.111528 
L 167.116518 116.111528 
L 167.116518 115.58728 
L 167.250805 115.58728 
L 167.250805 114.538785 
L 167.410577 114.538785 
L 167.516272 113.490289 
L 167.608225 113.490289 
L 167.608225 112.441794 
L 170.21664 112.441794 
L 170.21664 111.917546 
L 170.340017 111.917546 
L 170.340017 110.869051 
L 170.94396 110.869051 
L 170.94396 110.344803 
L 171.433273 110.344803 
L 171.433273 109.296308 
L 172.172241 109.296308 
L 172.172241 108.77206 
L 172.352124 108.77206 
L 172.431472 107.723564 
L 173.053401 107.723564 
L 173.053401 107.199317 
L 173.243227 107.199317 
L 173.299769 105.626573 
L 174.099384 105.626573 
L 174.162133 104.05383 
L 174.568879 104.05383 
L 174.568879 103.529583 
L 175.085351 103.529583 
L 175.153056 102.481087 
L 175.512472 102.481087 
L 175.512472 101.956839 
L 175.644313 101.956839 
L 175.644313 100.908344 
L 189.570319 100.908344 
L 189.624996 99.859849 
L 189.942312 99.859849 
L 189.942312 99.335601 
L 190.407565 99.335601 
L 190.463113 98.287105 
L 190.877482 98.287105 
L 190.914661 97.23861 
L 191.059231 97.23861 
L 191.059231 96.714362 
L 191.222505 96.714362 
L 191.222505 96.190115 
L 191.407225 96.190115 
L 191.511894 95.141619 
L 191.524933 95.141619 
L 191.612688 93.568876 
L 191.645077 93.568876 
L 191.732223 90.42339 
L 191.895635 90.42339 
L 191.987868 89.374894 
L 192.006889 89.374894 
L 192.006889 88.850646 
L 192.13945 88.850646 
L 192.224131 87.802151 
L 192.252265 87.802151 
L 192.311509 85.70516 
L 192.413925 85.70516 
L 192.521884 83.083922 
L 192.549536 83.083922 
L 192.607766 81.511178 
L 192.66275 81.511178 
L 192.708436 79.938435 
L 192.799446 79.938435 
L 192.868895 78.88994 
L 192.911031 78.88994 
L 193.015923 76.792949 
L 193.042792 76.792949 
L 193.143919 75.744454 
L 193.200173 75.744454 
L 193.25035 74.695958 
L 193.414612 74.695958 
L 193.446694 73.123215 
L 193.591771 73.123215 
L 193.695473 71.550472 
L 193.764262 71.550472 
L 193.847017 69.453481 
L 193.932207 69.453481 
L 193.997236 67.880738 
L 194.126559 67.880738 
L 194.174107 66.307995 
L 194.238228 66.307995 
L 194.291018 64.735251 
L 194.704891 64.735251 
L 194.758969 63.686756 
L 194.845141 63.686756 
L 194.925537 62.638261 
L 195.000236 62.638261 
L 195.042775 61.589765 
L 195.132824 61.589765 
L 195.172402 60.54127 
L 195.301058 60.54127 
L 195.301058 60.017022 
L 195.480609 60.017022 
L 195.480609 59.492774 
L 195.683905 59.492774 
L 195.683905 58.968526 
L 196.503161 58.968526 
L 196.503161 58.444279 
L 196.893829 58.444279 
L 196.893829 57.920031 
L 197.34563 57.920031 
L 197.34563 57.395783 
L 199.02374 57.395783 
L 199.02374 56.871536 
L 199.214366 56.871536 
L 199.214366 56.347288 
L 199.568995 56.347288 
L 199.568995 55.82304 
L 199.75572 55.82304 
L 199.838285 53.201802 
L 199.874408 53.201802 
L 199.914456 52.153306 
L 200.067776 52.153306 
L 200.103421 51.104811 
L 200.22367 51.104811 
L 200.22367 50.580563 
L 200.370373 50.580563 
L 200.382055 49.532068 
L 200.571752 49.532068 
L 200.571752 49.00782 
L 200.732699 49.00782 
L 200.732699 48.483572 
L 200.961922 48.483572 
L 200.961922 47.959324 
L 201.45351 47.959324 
L 201.45351 47.435077 
L 201.811845 47.435077 
L 201.851203 46.386581 
L 202.325293 46.386581 
L 202.325293 45.862334 
L 202.628548 45.862334 
L 202.666082 44.28959 
L 202.904711 44.28959 
L 202.904711 43.765343 
L 203.046981 43.765343 
L 203.118507 42.716847 
L 203.431036 42.716847 
L 203.431036 42.192599 
L 203.625535 42.192599 
L 203.625535 41.668352 
L 203.82901 41.668352 
L 203.82901 41.144104 
L 204.075695 41.144104 
L 204.08982 40.095609 
L 204.312697 40.095609 
L 204.377613 39.047113 
L 205.768383 39.047113 
L 205.768383 38.522865 
L 206.73789 38.522865 
L 206.73789 37.998618 
L 206.862499 37.998618 
L 206.862499 37.47437 
L 207.085335 37.47437 
L 207.085335 36.425875 
L 207.8357 36.425875 
L 207.8357 35.901627 
L 208.458828 35.901627 
L 208.558304 34.853131 
L 208.836668 34.853131 
L 208.836668 34.328884 
L 209.288888 34.328884 
L 209.288888 33.804636 
L 209.792674 33.804636 
L 209.87242 32.231893 
L 211.800684 32.231893 
L 211.800684 31.707645 
L 212.739196 31.707645 
L 212.739196 31.183397 
L 213.51163 31.183397 
L 213.597557 30.134902 
L 214.374602 30.134902 
L 214.374602 29.610654 
L 215.933332 29.610654 
L 215.933332 29.086407 
L 217.46644 29.086407 
L 217.46644 28.562159 
L 217.811622 28.562159 
L 217.811622 28.037911 
L 220.52871 28.037911 
L 220.52871 27.513663 
L 333.168 27.513663 
L 333.168 27.513663 
" style="fill:none;stroke:#ff00ff;stroke-linecap:square;stroke-width:1.5;"/>
   </g>
   <g id="line2d_49">
    <defs>
     <path d="M -0 8.485281 
L 5.091169 0 
L 0 -8.485281 
L -5.091169 -0 
z
" id="ma6c53495c3" style="stroke:#ff00ff;stroke-linejoin:miter;stroke-width:1.5;"/>
    </defs>
    <g>
     <use style="fill:none;stroke:#ff00ff;stroke-linejoin:miter;stroke-width:1.5;" x="100.207968" xlink:href="#ma6c53495c3" y="263.425137"/>
     <use style="fill:none;stroke:#ff00ff;stroke-linejoin:miter;stroke-width:1.5;" x="153.30868" xlink:href="#ma6c53495c3" y="214.670099"/>
     <use style="fill:none;stroke:#ff00ff;stroke-linejoin:miter;stroke-width:1.5;" x="191.059231" xlink:href="#ma6c53495c3" y="97.23861"/>
     <use style="fill:none;stroke:#ff00ff;stroke-linejoin:miter;stroke-width:1.5;" x="220.52871" xlink:href="#ma6c53495c3" y="28.037911"/>
     <use style="fill:none;stroke:#ff00ff;stroke-linejoin:miter;stroke-width:1.5;" x="220.52871" xlink:href="#ma6c53495c3" y="27.513663"/>
     <use style="fill:none;stroke:#ff00ff;stroke-linejoin:miter;stroke-width:1.5;" x="333.168" xlink:href="#ma6c53495c3" y="27.513663"/>
    </g>
   </g>
   <g id="line2d_50">
    <path style="fill:none;stroke:#ff00ff;stroke-linecap:square;stroke-width:1.5;"/>
    <g/>
   </g>
   <g id="line2d_51">
    <path clip-path="url(#pe2534e4cee)" d="M 190.604641 98.287105 
" style="fill:none;stroke:#ff00ff;stroke-linecap:square;stroke-width:1.5;"/>
    <defs>
     <path d="M -12 12 
L 12 -12 
M -12 -12 
L 12 12 
" id="m0c1173e0fb" style="stroke:#ff00ff;"/>
    </defs>
    <g clip-path="url(#pe2534e4cee)">
     <use style="fill:#ff00ff;stroke:#ff00ff;" x="190.604641" xlink:href="#m0c1173e0fb" y="98.287105"/>
    </g>
   </g>
   <g id="line2d_52">
    <defs>
     <path d="M 0 1.5 
C 0.397805 1.5 0.77937 1.341951 1.06066 1.06066 
C 1.341951 0.77937 1.5 0.397805 1.5 0 
C 1.5 -0.397805 1.341951 -0.77937 1.06066 -1.06066 
C 0.77937 -1.341951 0.397805 -1.5 0 -1.5 
C -0.397805 -1.5 -0.77937 -1.341951 -1.06066 -1.06066 
C -1.341951 -0.77937 -1.5 -0.397805 -1.5 0 
C -1.5 0.397805 -1.341951 0.77937 -1.06066 1.06066 
C -0.77937 1.341951 -0.397805 1.5 0 1.5 
z
" id="m652edac1e8" style="stroke:#ff7500;"/>
    </defs>
    <g>
     <use style="fill:#ff7500;stroke:#ff7500;" x="256.615679" xlink:href="#m652edac1e8" y="27.513663"/>
     <use style="fill:#ff7500;stroke:#ff7500;" x="256.615679" xlink:href="#m652edac1e8" y="27.513663"/>
    </g>
   </g>
   <g id="line2d_53">
    <path d="M 44.205749 294.88 
L 44.205749 281.249559 
L 56.12 281.249559 
L 56.12 279.676816 
L 63.08939 279.676816 
L 63.08939 278.104073 
L 68.034251 278.104073 
L 68.034251 273.385844 
L 71.869783 273.385844 
L 71.869783 272.337348 
L 75.003641 272.337348 
L 75.003641 271.8131 
L 77.653281 271.8131 
L 77.653281 269.191862 
L 79.948502 269.191862 
L 79.948502 266.046375 
L 83.784035 266.046375 
L 83.784035 265.522128 
L 85.422286 265.522128 
L 85.422286 264.99788 
L 86.917893 264.99788 
L 86.917893 264.473632 
L 88.293717 264.473632 
L 88.293717 263.949385 
L 89.567532 263.949385 
L 89.567532 262.900889 
L 90.753425 262.900889 
L 90.753425 262.376641 
L 91.862754 262.376641 
L 91.862754 261.852394 
L 96.536922 261.852394 
L 96.536922 261.328146 
L 97.336537 261.328146 
L 97.336537 260.803898 
L 100.856673 260.803898 
L 100.856673 259.755403 
L 103.777005 259.755403 
L 103.777005 257.134164 
L 111.788449 257.134164 
L 111.788449 256.085669 
L 112.122219 256.085669 
L 112.122219 255.561421 
L 112.449632 255.561421 
L 112.449632 254.512926 
L 116.478659 254.512926 
L 116.478659 253.988678 
L 117.475381 253.988678 
L 117.475381 253.46443 
L 119.09161 253.46443 
L 119.09161 252.940182 
L 119.740314 252.940182 
L 119.740314 250.843192 
L 123.36232 250.843192 
L 123.36232 249.794696 
L 128.898495 249.794696 
L 128.898495 249.270448 
L 130.784069 249.270448 
L 130.784069 248.746201 
L 132.177056 248.746201 
L 132.177056 247.697705 
L 138.4819 247.697705 
L 138.4819 247.173458 
L 138.764847 247.173458 
L 138.764847 246.124962 
L 139.983449 246.124962 
L 139.983449 245.600714 
L 142.015238 245.600714 
L 142.015238 245.076467 
L 142.473629 245.076467 
L 142.473629 244.552219 
L 144.245007 244.552219 
L 144.245007 243.503724 
L 144.747635 243.503724 
L 144.747635 242.979476 
L 148.711478 242.979476 
L 148.711478 242.455228 
L 149.253506 242.455228 
L 149.253506 241.406733 
L 152.060318 241.406733 
L 152.157156 240.358237 
L 152.28543 240.358237 
L 152.28543 239.83399 
L 152.820161 239.83399 
L 152.851103 238.785494 
L 153.398752 238.785494 
L 153.398752 238.261246 
L 154.444329 238.261246 
L 154.444329 237.736999 
L 155.296378 237.736999 
L 155.376636 236.688503 
L 155.562461 236.688503 
L 155.562461 235.640008 
L 156.362076 235.640008 
L 156.362076 235.11576 
L 157.174289 235.11576 
L 157.174289 234.591512 
L 157.601653 234.591512 
L 157.671858 233.543017 
L 157.88077 233.543017 
L 157.926853 232.494521 
L 158.087174 232.494521 
L 158.087174 231.970274 
L 163.811951 231.970274 
L 163.811951 230.921778 
L 164.151691 230.921778 
L 164.215648 228.824787 
L 164.453392 228.824787 
L 164.516239 227.252044 
L 164.919238 227.252044 
L 164.919238 226.203549 
L 165.102097 226.203549 
L 165.102097 225.155053 
L 165.771 225.155053 
L 165.771 224.630806 
L 166.045792 224.630806 
L 166.045792 223.058063 
L 166.456921 223.058063 
L 166.456921 222.533815 
L 166.858446 222.533815 
L 166.858446 222.009567 
L 167.183793 222.009567 
L 167.183793 221.485319 
L 168.175218 221.485319 
L 168.175218 220.961072 
L 168.47678 220.961072 
L 168.47678 220.436824 
L 168.600887 220.436824 
L 168.687231 218.339833 
L 168.980018 218.339833 
L 169.016268 217.291338 
L 169.267901 217.291338 
L 169.267901 216.76709 
L 169.632754 216.76709 
L 169.632754 216.242842 
L 169.978614 216.242842 
L 169.978614 215.718594 
L 170.306457 215.718594 
L 170.306457 215.194347 
L 171.857961 215.194347 
L 171.878412 214.145851 
L 172.03102 214.145851 
L 172.11186 212.04886 
L 172.192322 212.04886 
L 172.192322 211.524613 
L 172.909642 211.524613 
L 172.957695 210.476117 
L 173.224339 210.476117 
L 173.309175 209.427622 
L 174.664735 209.427622 
L 174.664735 208.903374 
L 175.085351 208.903374 
L 175.144608 207.854879 
L 175.287672 207.854879 
L 175.346236 206.806383 
L 177.398583 206.806383 
L 177.398583 206.282136 
L 178.088691 206.282136 
L 178.088691 205.757888 
L 178.202241 205.757888 
L 178.258736 204.185145 
L 178.413147 204.185145 
L 178.413147 203.660897 
L 178.704135 203.660897 
L 178.73845 202.612401 
L 178.956462 202.612401 
L 178.956462 202.088154 
L 179.138283 202.088154 
L 179.191788 199.466915 
L 179.384361 199.466915 
L 179.384361 198.41842 
L 179.743764 198.41842 
L 179.743764 197.894172 
L 180.159046 197.894172 
L 180.159046 197.369924 
L 180.291097 197.369924 
L 180.291097 196.845677 
L 180.422142 196.845677 
L 180.422142 196.321429 
L 180.570695 196.321429 
L 180.570695 195.272933 
L 181.552827 195.272933 
L 181.552827 194.748686 
L 181.835703 194.748686 
L 181.915676 193.70019 
L 182.130891 193.70019 
L 182.130891 193.175943 
L 182.259855 193.175943 
L 182.282186 190.030456 
L 185.860285 190.030456 
L 185.860285 189.506209 
L 186.880473 189.506209 
L 186.918855 188.457713 
L 187.243775 188.457713 
L 187.243775 187.933465 
L 188.289763 187.933465 
L 188.289763 187.409218 
L 189.062719 187.409218 
L 189.062719 186.88497 
L 189.445737 186.88497 
L 189.445737 186.360722 
L 192.811544 186.360722 
L 192.811544 185.836474 
L 193.585991 185.836474 
L 193.585991 185.312227 
L 196.245124 185.312227 
L 196.245124 184.787979 
L 196.537275 184.787979 
L 196.537275 184.263731 
L 196.711658 184.263731 
L 196.711658 183.739484 
L 196.972332 183.739484 
L 196.972332 183.215236 
L 206.830428 183.215236 
L 206.830428 182.690988 
L 207.637763 182.690988 
L 207.637763 182.16674 
L 207.838223 182.16674 
L 207.838223 181.642493 
L 207.98017 181.642493 
L 207.98017 181.118245 
L 208.11599 181.118245 
L 208.11599 180.593997 
L 208.508638 180.593997 
L 208.578855 179.545502 
L 208.714839 179.545502 
L 208.714839 179.021254 
L 208.900818 179.021254 
L 208.900818 178.497006 
L 209.249427 178.497006 
L 209.249427 177.972759 
L 209.554616 177.972759 
L 209.599077 176.400016 
L 209.703506 176.400016 
L 209.71708 175.35152 
L 210.06298 175.35152 
L 210.080702 174.303025 
L 210.206449 174.303025 
L 210.238291 172.206034 
L 210.399883 172.206034 
L 210.462797 170.633291 
L 210.538423 170.633291 
L 210.538423 170.109043 
L 210.663018 170.109043 
L 210.745227 167.487804 
L 210.825985 167.487804 
L 210.874681 166.439309 
L 211.008412 166.439309 
L 211.008412 165.915061 
L 211.233499 165.915061 
L 211.233499 165.390813 
L 211.435224 165.390813 
L 211.51383 163.293823 
L 211.556554 163.293823 
L 211.661895 161.196832 
L 211.861677 161.196832 
L 211.971121 160.148336 
L 211.985001 160.148336 
L 212.09268 157.527098 
L 212.151666 157.527098 
L 212.191858 155.954354 
L 212.292413 155.954354 
L 212.366235 154.381611 
L 212.469632 154.381611 
L 212.51101 152.808868 
L 212.63932 152.808868 
L 212.731607 151.236125 
L 212.874291 151.236125 
L 212.874291 150.711877 
L 213.001795 150.711877 
L 213.074498 148.090639 
L 213.211608 148.090639 
L 213.264123 147.042143 
L 213.373246 147.042143 
L 213.373246 146.517896 
L 213.56595 146.517896 
L 213.670484 145.4694 
L 213.970617 145.4694 
L 213.970617 144.945152 
L 214.15328 144.945152 
L 214.154154 143.896657 
L 214.341801 143.896657 
L 214.447747 142.323914 
L 214.79205 142.323914 
L 214.79205 141.799666 
L 215.031928 141.799666 
L 215.031928 141.275418 
L 215.213567 141.275418 
L 215.320819 139.702675 
L 215.555895 139.702675 
L 215.66504 138.65418 
L 215.829846 138.65418 
L 215.829846 138.129932 
L 216.000148 138.129932 
L 216.000148 137.605684 
L 216.376503 137.605684 
L 216.463019 136.557189 
L 216.922675 136.557189 
L 216.962039 135.508693 
L 219.551376 135.508693 
L 219.551376 134.984446 
L 219.763823 134.984446 
L 219.763823 134.460198 
L 220.599098 134.460198 
L 220.599098 133.93595 
L 221.033631 133.93595 
L 221.135187 131.838959 
L 221.221098 131.838959 
L 221.285828 130.790464 
L 221.388777 130.790464 
L 221.431157 129.741969 
L 221.612664 129.741969 
L 221.612664 129.217721 
L 221.753021 129.217721 
L 221.82976 127.644978 
L 221.908383 127.644978 
L 221.908383 127.12073 
L 222.159123 127.12073 
L 222.211678 125.547987 
L 222.305982 125.547987 
L 222.393282 123.450996 
L 222.428942 123.450996 
L 222.517769 121.878253 
L 222.878552 121.878253 
L 222.934722 120.30551 
L 223.039222 120.30551 
L 223.039222 119.781262 
L 223.240158 119.781262 
L 223.338728 118.732766 
L 223.451999 118.732766 
L 223.508356 117.684271 
L 223.580689 117.684271 
L 223.645178 116.111528 
L 223.839192 116.111528 
L 223.93489 114.538785 
L 223.99511 114.538785 
L 224.041856 113.490289 
L 224.17061 113.490289 
L 224.272245 111.393298 
L 224.362193 111.393298 
L 224.464622 108.77206 
L 224.487142 108.77206 
L 224.583595 106.675069 
L 225.01338 106.675069 
L 225.01338 106.150821 
L 225.148912 106.150821 
L 225.148912 105.626573 
L 225.63139 105.626573 
L 225.63139 105.102326 
L 225.882661 105.102326 
L 225.992243 103.529583 
L 226.876317 103.529583 
L 226.876317 103.005335 
L 227.354631 103.005335 
L 227.354631 102.481087 
L 227.505935 102.481087 
L 227.546059 101.432592 
L 227.623234 101.432592 
L 227.623234 100.908344 
L 227.73736 100.908344 
L 227.847584 99.335601 
L 228.222691 99.335601 
L 228.240021 97.762858 
L 228.361989 97.762858 
L 228.361989 97.23861 
L 228.541065 97.23861 
L 228.636491 95.665867 
L 228.814606 95.665867 
L 228.814606 95.141619 
L 228.955116 95.141619 
L 228.955116 94.617371 
L 229.135457 94.617371 
L 229.208376 93.568876 
L 229.295112 93.568876 
L 229.385373 91.996133 
L 229.41883 91.996133 
L 229.521312 90.947637 
L 229.553792 90.947637 
L 229.646611 87.277903 
L 229.802312 87.277903 
L 229.889256 85.70516 
L 229.916162 85.70516 
L 229.916162 85.180912 
L 230.089165 85.180912 
L 230.089165 84.656665 
L 230.282332 84.656665 
L 230.330116 83.083922 
L 230.52398 83.083922 
L 230.561685 80.986931 
L 230.740993 80.986931 
L 230.836239 79.414188 
L 231.236301 79.414188 
L 231.236301 78.88994 
L 232.024978 78.88994 
L 232.048125 77.841444 
L 232.248963 77.841444 
L 232.248963 77.317197 
L 232.885425 77.317197 
L 232.956953 76.268701 
L 233.136797 76.268701 
L 233.184786 75.220206 
L 233.484413 75.220206 
L 233.484413 74.695958 
L 233.860701 74.695958 
L 233.898684 73.647463 
L 234.395468 73.647463 
L 234.436316 71.550472 
L 234.585175 71.550472 
L 234.67197 68.929233 
L 234.845828 68.929233 
L 234.940967 67.880738 
L 235.010678 67.880738 
L 235.010678 67.35649 
L 235.178847 67.35649 
L 235.251699 66.307995 
L 236.173885 66.307995 
L 236.284882 63.686756 
L 236.41001 63.686756 
L 236.427709 62.638261 
L 236.70397 62.638261 
L 236.70397 62.114013 
L 236.820487 62.114013 
L 236.820487 61.589765 
L 237.132825 61.589765 
L 237.20312 60.017022 
L 237.519862 60.017022 
L 237.61137 58.444279 
L 237.796912 58.444279 
L 237.796912 57.920031 
L 238.147824 57.920031 
L 238.147824 57.395783 
L 238.268734 57.395783 
L 238.335612 56.347288 
L 238.873291 56.347288 
L 238.873291 55.82304 
L 239.246376 55.82304 
L 239.246376 55.298792 
L 239.490942 55.298792 
L 239.490942 54.774545 
L 239.634561 54.774545 
L 239.634561 54.250297 
L 239.792327 54.250297 
L 239.857263 53.201802 
L 240.088712 53.201802 
L 240.173891 50.580563 
L 241.443421 50.580563 
L 241.536905 49.00782 
L 241.639419 49.00782 
L 241.659531 47.959324 
L 242.054152 47.959324 
L 242.158089 46.910829 
L 242.327672 46.910829 
L 242.327672 46.386581 
L 242.572513 46.386581 
L 242.647255 45.338086 
L 242.703929 45.338086 
L 242.703929 44.813838 
L 243.111708 44.813838 
L 243.21993 43.765343 
L 243.268328 43.765343 
L 243.369826 42.192599 
L 243.561257 42.192599 
L 243.594216 41.144104 
L 244.197627 41.144104 
L 244.197627 40.619856 
L 244.425348 40.619856 
L 244.425348 40.095609 
L 244.735517 40.095609 
L 244.735517 39.571361 
L 245.248931 39.571361 
L 245.319615 38.522865 
L 246.227057 38.522865 
L 246.247051 37.47437 
L 247.238877 37.47437 
L 247.238877 36.950122 
L 247.410832 36.950122 
L 247.410832 36.425875 
L 247.621515 36.425875 
L 247.708543 34.853131 
L 247.978982 34.853131 
L 247.978982 34.328884 
L 248.503276 34.328884 
L 248.503276 33.804636 
L 248.943516 33.804636 
L 248.943516 33.280388 
L 249.137125 33.280388 
L 249.137125 32.756141 
L 249.434674 32.756141 
L 249.434674 32.231893 
L 250.111857 32.231893 
L 250.111857 31.707645 
L 250.268572 31.707645 
L 250.268572 31.183397 
L 252.078143 31.183397 
L 252.078143 30.65915 
L 252.503786 30.65915 
L 252.503786 30.134902 
L 253.984679 30.134902 
L 253.984679 29.610654 
L 254.660356 29.610654 
L 254.660356 29.086407 
L 254.804906 29.086407 
L 254.804906 28.562159 
L 255.015829 28.562159 
L 255.015829 28.037911 
L 256.615679 28.037911 
L 256.615679 27.513663 
L 333.168 27.513663 
L 333.168 27.513663 
" style="fill:none;stroke:#ff7500;stroke-linecap:square;stroke-width:1.5;"/>
   </g>
   <g id="line2d_54">
    <defs>
     <path d="M 0 -6 
L -1.347084 -1.854102 
L -5.706339 -1.854102 
L -2.179628 0.708204 
L -3.526712 4.854102 
L -0 2.291796 
L 3.526712 4.854102 
L 2.179628 0.708204 
L 5.706339 -1.854102 
L 1.347084 -1.854102 
z
" id="m6d2e47be13" style="stroke:#ff7500;stroke-linejoin:bevel;stroke-width:1.5;"/>
    </defs>
    <g>
     <use style="fill:none;stroke:#ff7500;stroke-linejoin:bevel;stroke-width:1.5;" x="152.28543" xlink:href="#m6d2e47be13" y="239.83399"/>
     <use style="fill:none;stroke:#ff7500;stroke-linejoin:bevel;stroke-width:1.5;" x="210.238291" xlink:href="#m6d2e47be13" y="172.730281"/>
     <use style="fill:none;stroke:#ff7500;stroke-linejoin:bevel;stroke-width:1.5;" x="241.659531" xlink:href="#m6d2e47be13" y="48.483572"/>
     <use style="fill:none;stroke:#ff7500;stroke-linejoin:bevel;stroke-width:1.5;" x="256.615679" xlink:href="#m6d2e47be13" y="27.513663"/>
     <use style="fill:none;stroke:#ff7500;stroke-linejoin:bevel;stroke-width:1.5;" x="256.615679" xlink:href="#m6d2e47be13" y="27.513663"/>
     <use style="fill:none;stroke:#ff7500;stroke-linejoin:bevel;stroke-width:1.5;" x="333.168" xlink:href="#m6d2e47be13" y="27.513663"/>
    </g>
   </g>
   <g id="line2d_55">
    <path style="fill:none;stroke:#ff7500;stroke-linecap:square;stroke-width:1.5;"/>
    <g/>
   </g>
   <g id="line2d_56">
    <path clip-path="url(#pe2534e4cee)" d="M 206.216362 183.215236 
" style="fill:none;stroke:#ff7500;stroke-linecap:square;stroke-width:1.5;"/>
    <defs>
     <path d="M -12 12 
L 12 -12 
M -12 -12 
L 12 12 
" id="m8fbc005d22" style="stroke:#ff7500;"/>
    </defs>
    <g clip-path="url(#pe2534e4cee)">
     <use style="fill:#ff7500;stroke:#ff7500;" x="206.216362" xlink:href="#m8fbc005d22" y="183.215236"/>
    </g>
   </g>
   <g id="line2d_57">
    <path d="M 333.168 226.727797 
L 363.64328 289.532673 
" style="fill:none;stroke:#000080;stroke-linecap:square;stroke-width:1.5;"/>
    <g>
     <use style="fill:none;stroke:#000080;stroke-width:1.5;" x="333.168" xlink:href="#m2fcb4ed4ff" y="226.727797"/>
     <use style="fill:none;stroke:#000080;stroke-width:1.5;" x="363.64328" xlink:href="#m2fcb4ed4ff" y="289.532673"/>
    </g>
   </g>
   <g id="line2d_58">
    <path d="M 333.168 27.513663 
L 363.64328 203.975446 
" style="fill:none;stroke:#ff7500;stroke-linecap:square;stroke-width:1.5;"/>
    <g>
     <use style="fill:none;stroke:#ff7500;stroke-linejoin:bevel;stroke-width:1.5;" x="333.168" xlink:href="#m6d2e47be13" y="27.513663"/>
     <use style="fill:none;stroke:#ff7500;stroke-linejoin:bevel;stroke-width:1.5;" x="363.64328" xlink:href="#m6d2e47be13" y="203.975446"/>
    </g>
   </g>
   <g id="line2d_59">
    <path d="M 333.168 27.513663 
L 363.64328 118.418218 
" style="fill:none;stroke:#ff00ff;stroke-linecap:square;stroke-width:1.5;"/>
    <g>
     <use style="fill:none;stroke:#ff00ff;stroke-linejoin:miter;stroke-width:1.5;" x="333.168" xlink:href="#ma6c53495c3" y="27.513663"/>
     <use style="fill:none;stroke:#ff00ff;stroke-linejoin:miter;stroke-width:1.5;" x="363.64328" xlink:href="#ma6c53495c3" y="118.418218"/>
    </g>
   </g>
   <g id="line2d_60">
    <path d="M 333.168 294.88 
L 333.168 27.513663 
" style="fill:none;stroke:#000000;stroke-linecap:square;stroke-width:1.5;"/>
   </g>
   <g id="patch_3">
    <path d="M 56.12 294.88 
L 56.12 24.84 
" style="fill:none;stroke:#000000;stroke-linecap:square;stroke-linejoin:miter;stroke-width:0.8;"/>
   </g>
   <g id="patch_4">
    <path d="M 333.168 294.88 
L 333.168 24.84 
" style="fill:none;stroke:#000000;stroke-linecap:square;stroke-linejoin:miter;stroke-width:0.8;"/>
   </g>
   <g id="patch_5">
    <path d="M 56.12 294.88 
L 333.168 294.88 
" style="fill:none;stroke:#000000;stroke-linecap:square;stroke-linejoin:miter;stroke-width:0.8;"/>
   </g>
   <g id="patch_6">
    <path d="M 56.12 24.84 
L 333.168 24.84 
" style="fill:none;stroke:#000000;stroke-linecap:square;stroke-linejoin:miter;stroke-width:0.8;"/>
   </g>
   <g id="text_13">
    <!-- CMA ES PPM -->
    <defs>
     <path d="M 64.40625 67.28125 
L 64.40625 56.890625 
Q 59.421875 61.53125 53.78125 63.8125 
Q 48.140625 66.109375 41.796875 66.109375 
Q 29.296875 66.109375 22.65625 58.46875 
Q 16.015625 50.828125 16.015625 36.375 
Q 16.015625 21.96875 22.65625 14.328125 
Q 29.296875 6.6875 41.796875 6.6875 
Q 48.140625 6.6875 53.78125 8.984375 
Q 59.421875 11.28125 64.40625 15.921875 
L 64.40625 5.609375 
Q 59.234375 2.09375 53.4375 0.328125 
Q 47.65625 -1.421875 41.21875 -1.421875 
Q 24.65625 -1.421875 15.125 8.703125 
Q 5.609375 18.84375 5.609375 36.375 
Q 5.609375 53.953125 15.125 64.078125 
Q 24.65625 74.21875 41.21875 74.21875 
Q 47.75 74.21875 53.53125 72.484375 
Q 59.328125 70.75 64.40625 67.28125 
z
" id="DejaVuSans-43"/>
     <path d="M 9.8125 72.90625 
L 24.515625 72.90625 
L 43.109375 23.296875 
L 61.8125 72.90625 
L 76.515625 72.90625 
L 76.515625 0 
L 66.890625 0 
L 66.890625 64.015625 
L 48.09375 14.015625 
L 38.1875 14.015625 
L 19.390625 64.015625 
L 19.390625 0 
L 9.8125 0 
z
" id="DejaVuSans-4d"/>
     <path d="M 34.1875 63.1875 
L 20.796875 26.90625 
L 47.609375 26.90625 
z
M 28.609375 72.90625 
L 39.796875 72.90625 
L 67.578125 0 
L 57.328125 0 
L 50.6875 18.703125 
L 17.828125 18.703125 
L 11.1875 0 
L 0.78125 0 
z
" id="DejaVuSans-41"/>
     <path d="M 9.8125 72.90625 
L 55.90625 72.90625 
L 55.90625 64.59375 
L 19.671875 64.59375 
L 19.671875 43.015625 
L 54.390625 43.015625 
L 54.390625 34.71875 
L 19.671875 34.71875 
L 19.671875 8.296875 
L 56.78125 8.296875 
L 56.78125 0 
L 9.8125 0 
z
" id="DejaVuSans-45"/>
     <path d="M 53.515625 70.515625 
L 53.515625 60.890625 
Q 47.90625 63.578125 42.921875 64.890625 
Q 37.9375 66.21875 33.296875 66.21875 
Q 25.25 66.21875 20.875 63.09375 
Q 16.5 59.96875 16.5 54.203125 
Q 16.5 49.359375 19.40625 46.890625 
Q 22.3125 44.4375 30.421875 42.921875 
L 36.375 41.703125 
Q 47.40625 39.59375 52.65625 34.296875 
Q 57.90625 29 57.90625 20.125 
Q 57.90625 9.515625 50.796875 4.046875 
Q 43.703125 -1.421875 29.984375 -1.421875 
Q 24.8125 -1.421875 18.96875 -0.25 
Q 13.140625 0.921875 6.890625 3.21875 
L 6.890625 13.375 
Q 12.890625 10.015625 18.65625 8.296875 
Q 24.421875 6.59375 29.984375 6.59375 
Q 38.421875 6.59375 43.015625 9.90625 
Q 47.609375 13.234375 47.609375 19.390625 
Q 47.609375 24.75 44.3125 27.78125 
Q 41.015625 30.8125 33.5 32.328125 
L 27.484375 33.5 
Q 16.453125 35.6875 11.515625 40.375 
Q 6.59375 45.0625 6.59375 53.421875 
Q 6.59375 63.09375 13.40625 68.65625 
Q 20.21875 74.21875 32.171875 74.21875 
Q 37.3125 74.21875 42.625 73.28125 
Q 47.953125 72.359375 53.515625 70.515625 
z
" id="DejaVuSans-53"/>
     <path d="M 19.671875 64.796875 
L 19.671875 37.40625 
L 32.078125 37.40625 
Q 38.96875 37.40625 42.71875 40.96875 
Q 46.484375 44.53125 46.484375 51.125 
Q 46.484375 57.671875 42.71875 61.234375 
Q 38.96875 64.796875 32.078125 64.796875 
z
M 9.8125 72.90625 
L 32.078125 72.90625 
Q 44.34375 72.90625 50.609375 67.359375 
Q 56.890625 61.8125 56.890625 51.125 
Q 56.890625 40.328125 50.609375 34.8125 
Q 44.34375 29.296875 32.078125 29.296875 
L 19.671875 29.296875 
L 19.671875 0 
L 9.8125 0 
z
" id="DejaVuSans-50"/>
    </defs>
    <g transform="translate(369.18424 294.223611)scale(0.17 -0.17)">
     <use xlink:href="#DejaVuSans-43"/>
     <use x="69.824219" xlink:href="#DejaVuSans-4d"/>
     <use x="156.103516" xlink:href="#DejaVuSans-41"/>
     <use x="224.511719" xlink:href="#DejaVuSans-20"/>
     <use x="256.298828" xlink:href="#DejaVuSans-45"/>
     <use x="319.482422" xlink:href="#DejaVuSans-53"/>
     <use x="382.958984" xlink:href="#DejaVuSans-20"/>
     <use x="414.746094" xlink:href="#DejaVuSans-50"/>
     <use x="475.048828" xlink:href="#DejaVuSans-50"/>
     <use x="535.351562" xlink:href="#DejaVuSans-4d"/>
    </g>
   </g>
   <g id="text_14">
    <!-- ppmf-new -->
    <defs>
     <path d="M 4.203125 54.6875 
L 13.1875 54.6875 
L 24.421875 12.015625 
L 35.59375 54.6875 
L 46.1875 54.6875 
L 57.421875 12.015625 
L 68.609375 54.6875 
L 77.59375 54.6875 
L 63.28125 0 
L 52.6875 0 
L 40.921875 44.828125 
L 29.109375 0 
L 18.5 0 
z
" id="DejaVuSans-77"/>
    </defs>
    <g transform="translate(369.18424 208.666383)scale(0.17 -0.17)">
     <use xlink:href="#DejaVuSans-70"/>
     <use x="63.476562" xlink:href="#DejaVuSans-70"/>
     <use x="126.953125" xlink:href="#DejaVuSans-6d"/>
     <use x="224.365234" xlink:href="#DejaVuSans-66"/>
     <use x="259.492188" xlink:href="#DejaVuSans-2d"/>
     <use x="295.576172" xlink:href="#DejaVuSans-6e"/>
     <use x="358.955078" xlink:href="#DejaVuSans-65"/>
     <use x="420.478516" xlink:href="#DejaVuSans-77"/>
    </g>
   </g>
   <g id="text_15">
    <!-- CMA ES CSA -->
    <g transform="translate(369.18424 123.109155)scale(0.17 -0.17)">
     <use xlink:href="#DejaVuSans-43"/>
     <use x="69.824219" xlink:href="#DejaVuSans-4d"/>
     <use x="156.103516" xlink:href="#DejaVuSans-41"/>
     <use x="224.511719" xlink:href="#DejaVuSans-20"/>
     <use x="256.298828" xlink:href="#DejaVuSans-45"/>
     <use x="319.482422" xlink:href="#DejaVuSans-53"/>
     <use x="382.958984" xlink:href="#DejaVuSans-20"/>
     <use x="414.746094" xlink:href="#DejaVuSans-43"/>
     <use x="484.570312" xlink:href="#DejaVuSans-53"/>
     <use x="548.0625" xlink:href="#DejaVuSans-41"/>
    </g>
   </g>
   <g id="text_16">
    <!-- best 2009 -->
    <defs>
     <path d="M 48.6875 27.296875 
Q 48.6875 37.203125 44.609375 42.84375 
Q 40.53125 48.484375 33.40625 48.484375 
Q 26.265625 48.484375 22.1875 42.84375 
Q 18.109375 37.203125 18.109375 27.296875 
Q 18.109375 17.390625 22.1875 11.75 
Q 26.265625 6.109375 33.40625 6.109375 
Q 40.53125 6.109375 44.609375 11.75 
Q 48.6875 17.390625 48.6875 27.296875 
z
M 18.109375 46.390625 
Q 20.953125 51.265625 25.265625 53.625 
Q 29.59375 56 35.59375 56 
Q 45.5625 56 51.78125 48.09375 
Q 58.015625 40.1875 58.015625 27.296875 
Q 58.015625 14.40625 51.78125 6.484375 
Q 45.5625 -1.421875 35.59375 -1.421875 
Q 29.59375 -1.421875 25.265625 0.953125 
Q 20.953125 3.328125 18.109375 8.203125 
L 18.109375 0 
L 9.078125 0 
L 9.078125 75.984375 
L 18.109375 75.984375 
z
" id="DejaVuSans-62"/>
     <path d="M 10.984375 1.515625 
L 10.984375 10.5 
Q 14.703125 8.734375 18.5 7.8125 
Q 22.3125 6.890625 25.984375 6.890625 
Q 35.75 6.890625 40.890625 13.453125 
Q 46.046875 20.015625 46.78125 33.40625 
Q 43.953125 29.203125 39.59375 26.953125 
Q 35.25 24.703125 29.984375 24.703125 
Q 19.046875 24.703125 12.671875 31.3125 
Q 6.296875 37.9375 6.296875 49.421875 
Q 6.296875 60.640625 12.9375 67.421875 
Q 19.578125 74.21875 30.609375 74.21875 
Q 43.265625 74.21875 49.921875 64.515625 
Q 56.59375 54.828125 56.59375 36.375 
Q 56.59375 19.140625 48.40625 8.859375 
Q 40.234375 -1.421875 26.421875 -1.421875 
Q 22.703125 -1.421875 18.890625 -0.6875 
Q 15.09375 0.046875 10.984375 1.515625 
z
M 30.609375 32.421875 
Q 37.25 32.421875 41.125 36.953125 
Q 45.015625 41.5 45.015625 49.421875 
Q 45.015625 57.28125 41.125 61.84375 
Q 37.25 66.40625 30.609375 66.40625 
Q 23.96875 66.40625 20.09375 61.84375 
Q 16.21875 57.28125 16.21875 49.421875 
Q 16.21875 41.5 20.09375 36.953125 
Q 23.96875 32.421875 30.609375 32.421875 
z
" id="DejaVuSans-39"/>
    </defs>
    <g transform="translate(369.18424 37.551928)scale(0.17 -0.17)">
     <use xlink:href="#DejaVuSans-62"/>
     <use x="63.476562" xlink:href="#DejaVuSans-65"/>
     <use x="125" xlink:href="#DejaVuSans-73"/>
     <use x="177.099609" xlink:href="#DejaVuSans-74"/>
     <use x="216.308594" xlink:href="#DejaVuSans-20"/>
     <use x="248.095703" xlink:href="#DejaVuSans-32"/>
     <use x="311.71875" xlink:href="#DejaVuSans-30"/>
     <use x="375.341797" xlink:href="#DejaVuSans-30"/>
     <use x="438.964844" xlink:href="#DejaVuSans-39"/>
    </g>
   </g>
   <g id="text_17">
    <!-- bbob f23, 2-D -->
    <defs>
     <path d="M 40.578125 39.3125 
Q 47.65625 37.796875 51.625 33 
Q 55.609375 28.21875 55.609375 21.1875 
Q 55.609375 10.40625 48.1875 4.484375 
Q 40.765625 -1.421875 27.09375 -1.421875 
Q 22.515625 -1.421875 17.65625 -0.515625 
Q 12.796875 0.390625 7.625 2.203125 
L 7.625 11.71875 
Q 11.71875 9.328125 16.59375 8.109375 
Q 21.484375 6.890625 26.8125 6.890625 
Q 36.078125 6.890625 40.9375 10.546875 
Q 45.796875 14.203125 45.796875 21.1875 
Q 45.796875 27.640625 41.28125 31.265625 
Q 36.765625 34.90625 28.71875 34.90625 
L 20.21875 34.90625 
L 20.21875 43.015625 
L 29.109375 43.015625 
Q 36.375 43.015625 40.234375 45.921875 
Q 44.09375 48.828125 44.09375 54.296875 
Q 44.09375 59.90625 40.109375 62.90625 
Q 36.140625 65.921875 28.71875 65.921875 
Q 24.65625 65.921875 20.015625 65.03125 
Q 15.375 64.15625 9.8125 62.3125 
L 9.8125 71.09375 
Q 15.4375 72.65625 20.34375 73.4375 
Q 25.25 74.21875 29.59375 74.21875 
Q 40.828125 74.21875 47.359375 69.109375 
Q 53.90625 64.015625 53.90625 55.328125 
Q 53.90625 49.265625 50.4375 45.09375 
Q 46.96875 40.921875 40.578125 39.3125 
z
" id="DejaVuSans-33"/>
     <path d="M 19.671875 64.796875 
L 19.671875 8.109375 
L 31.59375 8.109375 
Q 46.6875 8.109375 53.6875 14.9375 
Q 60.6875 21.78125 60.6875 36.53125 
Q 60.6875 51.171875 53.6875 57.984375 
Q 46.6875 64.796875 31.59375 64.796875 
z
M 9.8125 72.90625 
L 30.078125 72.90625 
Q 51.265625 72.90625 61.171875 64.09375 
Q 71.09375 55.28125 71.09375 36.53125 
Q 71.09375 17.671875 61.125 8.828125 
Q 51.171875 0 30.078125 0 
L 9.8125 0 
z
" id="DejaVuSans-44"/>
    </defs>
    <g transform="translate(58.89048 35.290806)scale(0.102 -0.102)">
     <use xlink:href="#DejaVuSans-62"/>
     <use x="63.476562" xlink:href="#DejaVuSans-62"/>
     <use x="126.953125" xlink:href="#DejaVuSans-6f"/>
     <use x="188.134766" xlink:href="#DejaVuSans-62"/>
     <use x="251.611328" xlink:href="#DejaVuSans-20"/>
     <use x="283.398438" xlink:href="#DejaVuSans-66"/>
     <use x="318.603516" xlink:href="#DejaVuSans-32"/>
     <use x="382.226562" xlink:href="#DejaVuSans-33"/>
     <use x="445.849609" xlink:href="#DejaVuSans-2c"/>
     <use x="477.636719" xlink:href="#DejaVuSans-20"/>
     <use x="509.423828" xlink:href="#DejaVuSans-32"/>
     <use x="573.046875" xlink:href="#DejaVuSans-2d"/>
     <use x="609.130859" xlink:href="#DejaVuSans-44"/>
    </g>
    <!-- 51 targets: 100..1e-08 -->
    <defs>
     <path d="M 10.796875 72.90625 
L 49.515625 72.90625 
L 49.515625 64.59375 
L 19.828125 64.59375 
L 19.828125 46.734375 
Q 21.96875 47.46875 24.109375 47.828125 
Q 26.265625 48.1875 28.421875 48.1875 
Q 40.625 48.1875 47.75 41.5 
Q 54.890625 34.8125 54.890625 23.390625 
Q 54.890625 11.625 47.5625 5.09375 
Q 40.234375 -1.421875 26.90625 -1.421875 
Q 22.3125 -1.421875 17.546875 -0.640625 
Q 12.796875 0.140625 7.71875 1.703125 
L 7.71875 11.625 
Q 12.109375 9.234375 16.796875 8.0625 
Q 21.484375 6.890625 26.703125 6.890625 
Q 35.15625 6.890625 40.078125 11.328125 
Q 45.015625 15.765625 45.015625 23.390625 
Q 45.015625 31 40.078125 35.4375 
Q 35.15625 39.890625 26.703125 39.890625 
Q 22.75 39.890625 18.8125 39.015625 
Q 14.890625 38.140625 10.796875 36.28125 
z
" id="DejaVuSans-35"/>
     <path d="M 11.71875 12.40625 
L 22.015625 12.40625 
L 22.015625 0 
L 11.71875 0 
z
M 11.71875 51.703125 
L 22.015625 51.703125 
L 22.015625 39.3125 
L 11.71875 39.3125 
z
" id="DejaVuSans-3a"/>
    </defs>
    <g transform="translate(58.89048 46.712575)scale(0.102 -0.102)">
     <use xlink:href="#DejaVuSans-35"/>
     <use x="63.623047" xlink:href="#DejaVuSans-31"/>
     <use x="127.246094" xlink:href="#DejaVuSans-20"/>
     <use x="159.033203" xlink:href="#DejaVuSans-74"/>
     <use x="198.242188" xlink:href="#DejaVuSans-61"/>
     <use x="259.521484" xlink:href="#DejaVuSans-72"/>
     <use x="300.619141" xlink:href="#DejaVuSans-67"/>
     <use x="364.095703" xlink:href="#DejaVuSans-65"/>
     <use x="425.619141" xlink:href="#DejaVuSans-74"/>
     <use x="464.828125" xlink:href="#DejaVuSans-73"/>
     <use x="516.927734" xlink:href="#DejaVuSans-3a"/>
     <use x="550.619141" xlink:href="#DejaVuSans-20"/>
     <use x="582.40625" xlink:href="#DejaVuSans-31"/>
     <use x="646.029297" xlink:href="#DejaVuSans-30"/>
     <use x="709.652344" xlink:href="#DejaVuSans-30"/>
     <use x="773.275391" xlink:href="#DejaVuSans-2e"/>
     <use x="805.0625" xlink:href="#DejaVuSans-2e"/>
     <use x="836.849609" xlink:href="#DejaVuSans-31"/>
     <use x="900.472656" xlink:href="#DejaVuSans-65"/>
     <use x="961.996094" xlink:href="#DejaVuSans-2d"/>
     <use x="998.080078" xlink:href="#DejaVuSans-30"/>
     <use x="1061.703125" xlink:href="#DejaVuSans-38"/>
    </g>
    <!-- 15 instances -->
    <g transform="translate(58.89048 58.134344)scale(0.102 -0.102)">
     <use xlink:href="#DejaVuSans-31"/>
     <use x="63.623047" xlink:href="#DejaVuSans-35"/>
     <use x="127.246094" xlink:href="#DejaVuSans-20"/>
     <use x="159.033203" xlink:href="#DejaVuSans-69"/>
     <use x="186.816406" xlink:href="#DejaVuSans-6e"/>
     <use x="250.195312" xlink:href="#DejaVuSans-73"/>
     <use x="302.294922" xlink:href="#DejaVuSans-74"/>
     <use x="341.503906" xlink:href="#DejaVuSans-61"/>
     <use x="402.783203" xlink:href="#DejaVuSans-6e"/>
     <use x="466.162109" xlink:href="#DejaVuSans-63"/>
     <use x="521.142578" xlink:href="#DejaVuSans-65"/>
     <use x="582.666016" xlink:href="#DejaVuSans-73"/>
    </g>
   </g>
   <g id="text_18">
    <!-- v0.0.0 -->
    <g style="fill:#808080;" transform="translate(178.96275 290.099912)scale(0.1 -0.1)">
     <use xlink:href="#DejaVuSans-76"/>
     <use x="59.179688" xlink:href="#DejaVuSans-30"/>
     <use x="122.802734" xlink:href="#DejaVuSans-2e"/>
     <use x="154.589844" xlink:href="#DejaVuSans-30"/>
     <use x="218.212891" xlink:href="#DejaVuSans-2e"/>
     <use x="250" xlink:href="#DejaVuSans-30"/>
    </g>
   </g>
   <g id="text_19">
    <!-- 23 Katsuuras -->
    <defs>
     <path d="M 9.8125 72.90625 
L 19.671875 72.90625 
L 19.671875 42.09375 
L 52.390625 72.90625 
L 65.09375 72.90625 
L 28.90625 38.921875 
L 67.671875 0 
L 54.6875 0 
L 19.671875 35.109375 
L 19.671875 0 
L 9.8125 0 
z
" id="DejaVuSans-4b"/>
    </defs>
    <g transform="translate(128.803375 18.84)scale(0.2 -0.2)">
     <use xlink:href="#DejaVuSans-32"/>
     <use x="63.623047" xlink:href="#DejaVuSans-33"/>
     <use x="127.246094" xlink:href="#DejaVuSans-20"/>
     <use x="159.033203" xlink:href="#DejaVuSans-4b"/>
     <use x="224.59375" xlink:href="#DejaVuSans-61"/>
     <use x="285.873047" xlink:href="#DejaVuSans-74"/>
     <use x="325.082031" xlink:href="#DejaVuSans-73"/>
     <use x="377.181641" xlink:href="#DejaVuSans-75"/>
     <use x="440.560547" xlink:href="#DejaVuSans-75"/>
     <use x="503.939453" xlink:href="#DejaVuSans-72"/>
     <use x="545.052734" xlink:href="#DejaVuSans-61"/>
     <use x="606.332031" xlink:href="#DejaVuSans-73"/>
    </g>
   </g>
  </g>
 </g>
 <defs>
  <clipPath id="pe2534e4cee">
   <rect height="270.04" width="277.048" x="56.12" y="24.84"/>
  </clipPath>
 </defs>
</svg>
