<?xml version="1.0" encoding="utf-8" standalone="no"?>
<!DOCTYPE svg PUBLIC "-//W3C//DTD SVG 1.1//EN"
  "http://www.w3.org/Graphics/SVG/1.1/DTD/svg11.dtd">
<!-- Created with matplotlib (http://matplotlib.org/) -->
<svg height="345pt" version="1.1" viewBox="0 0 460 345" width="460pt" xmlns="http://www.w3.org/2000/svg" xmlns:xlink="http://www.w3.org/1999/xlink">
 <defs>
  <style type="text/css">
*{stroke-linecap:butt;stroke-linejoin:round;}
  </style>
 </defs>
 <g id="figure_1">
  <g id="patch_1">
   <path d="M 0 345.6 
L 460.8 345.6 
L 460.8 0 
L 0 0 
z
" style="fill:#ffffff;"/>
  </g>
  <g id="axes_1">
   <g id="patch_2">
    <path d="M 56.12 294.88 
L 333.168 294.88 
L 333.168 24.84 
L 56.12 24.84 
z
" style="fill:#ffffff;"/>
   </g>
   <g id="line2d_1">
    <path d="M 35.425356 294.88 
L 35.425356 289.637523 
L 59.253858 289.637523 
L 59.253858 284.395046 
L 68.872887 284.395046 
L 68.872887 273.910091 
L 69.277344 273.910091 
L 69.277344 27.513663 
L 333.168 27.513663 
" style="fill:none;stroke:#f5deb3;stroke-linecap:square;stroke-width:4;"/>
   </g>
   <g id="line2d_2">
    <defs>
     <path d="M -0 7.778175 
L 7.778175 0 
L 0 -7.778175 
L -7.778175 -0 
z
" id="m0b6cb2951d" style="stroke:#f5deb3;stroke-linejoin:miter;stroke-width:1.5;"/>
    </defs>
    <g>
     <use style="fill:#f5deb3;stroke:#f5deb3;stroke-linejoin:miter;stroke-width:1.5;" x="68.872887" xlink:href="#m0b6cb2951d" y="273.910091"/>
     <use style="fill:#f5deb3;stroke:#f5deb3;stroke-linejoin:miter;stroke-width:1.5;" x="69.277344" xlink:href="#m0b6cb2951d" y="273.910091"/>
     <use style="fill:#f5deb3;stroke:#f5deb3;stroke-linejoin:miter;stroke-width:1.5;" x="69.277344" xlink:href="#m0b6cb2951d" y="273.910091"/>
     <use style="fill:#f5deb3;stroke:#f5deb3;stroke-linejoin:miter;stroke-width:1.5;" x="69.277344" xlink:href="#m0b6cb2951d" y="27.513663"/>
     <use style="fill:#f5deb3;stroke:#f5deb3;stroke-linejoin:miter;stroke-width:1.5;" x="69.277344" xlink:href="#m0b6cb2951d" y="27.513663"/>
     <use style="fill:#f5deb3;stroke:#f5deb3;stroke-linejoin:miter;stroke-width:1.5;" x="333.168" xlink:href="#m0b6cb2951d" y="27.513663"/>
    </g>
   </g>
   <g id="line2d_3">
    <path style="fill:none;stroke:#f5deb3;stroke-linecap:square;stroke-width:4;"/>
    <g/>
   </g>
   <g id="line2d_4">
    <path d="M 333.168 27.513663 
L 363.64328 32.86099 
" style="fill:none;stroke:#f5deb3;stroke-linecap:square;stroke-width:4;"/>
    <g>
     <use style="fill:#f5deb3;stroke:#f5deb3;stroke-linejoin:miter;stroke-width:1.5;" x="333.168" xlink:href="#m0b6cb2951d" y="27.513663"/>
     <use style="fill:#f5deb3;stroke:#f5deb3;stroke-linejoin:miter;stroke-width:1.5;" x="363.64328" xlink:href="#m0b6cb2951d" y="32.86099"/>
    </g>
   </g>
   <g id="matplotlib.axis_1">
    <g id="xtick_1">
     <g id="line2d_5">
      <path clip-path="url(#p13da47266a)" d="M 56.12 294.88 
L 56.12 24.84 
" style="fill:none;stroke:#b0b0b0;stroke-linecap:square;stroke-width:0.8;"/>
     </g>
     <g id="line2d_6">
      <defs>
       <path d="M 0 0 
L 0 3.5 
" id="me60cdc753d" style="stroke:#000000;stroke-width:0.8;"/>
      </defs>
      <g>
       <use style="stroke:#000000;stroke-width:0.8;" x="56.12" xlink:href="#me60cdc753d" y="294.88"/>
      </g>
     </g>
     <g id="text_1">
      <!-- 0 -->
      <defs>
       <path d="M 31.78125 66.40625 
Q 24.171875 66.40625 20.328125 58.90625 
Q 16.5 51.421875 16.5 36.375 
Q 16.5 21.390625 20.328125 13.890625 
Q 24.171875 6.390625 31.78125 6.390625 
Q 39.453125 6.390625 43.28125 13.890625 
Q 47.125 21.390625 47.125 36.375 
Q 47.125 51.421875 43.28125 58.90625 
Q 39.453125 66.40625 31.78125 66.40625 
z
M 31.78125 74.21875 
Q 44.046875 74.21875 50.515625 64.515625 
Q 56.984375 54.828125 56.984375 36.375 
Q 56.984375 17.96875 50.515625 8.265625 
Q 44.046875 -1.421875 31.78125 -1.421875 
Q 19.53125 -1.421875 13.0625 8.265625 
Q 6.59375 17.96875 6.59375 36.375 
Q 6.59375 54.828125 13.0625 64.515625 
Q 19.53125 74.21875 31.78125 74.21875 
z
" id="DejaVuSans-30"/>
      </defs>
      <g transform="translate(49.7575 317.076875)scale(0.2 -0.2)">
       <use xlink:href="#DejaVuSans-30"/>
      </g>
     </g>
    </g>
    <g id="xtick_2">
     <g id="line2d_7">
      <path clip-path="url(#p13da47266a)" d="M 135.276571 294.88 
L 135.276571 24.84 
" style="fill:none;stroke:#b0b0b0;stroke-linecap:square;stroke-width:0.8;"/>
     </g>
     <g id="line2d_8">
      <g>
       <use style="stroke:#000000;stroke-width:0.8;" x="135.276571" xlink:href="#me60cdc753d" y="294.88"/>
      </g>
     </g>
     <g id="text_2">
      <!-- 2 -->
      <defs>
       <path d="M 19.1875 8.296875 
L 53.609375 8.296875 
L 53.609375 0 
L 7.328125 0 
L 7.328125 8.296875 
Q 12.9375 14.109375 22.625 23.890625 
Q 32.328125 33.6875 34.8125 36.53125 
Q 39.546875 41.84375 41.421875 45.53125 
Q 43.3125 49.21875 43.3125 52.78125 
Q 43.3125 58.59375 39.234375 62.25 
Q 35.15625 65.921875 28.609375 65.921875 
Q 23.96875 65.921875 18.8125 64.3125 
Q 13.671875 62.703125 7.8125 59.421875 
L 7.8125 69.390625 
Q 13.765625 71.78125 18.9375 73 
Q 24.125 74.21875 28.421875 74.21875 
Q 39.75 74.21875 46.484375 68.546875 
Q 53.21875 62.890625 53.21875 53.421875 
Q 53.21875 48.921875 51.53125 44.890625 
Q 49.859375 40.875 45.40625 35.40625 
Q 44.1875 33.984375 37.640625 27.21875 
Q 31.109375 20.453125 19.1875 8.296875 
z
" id="DejaVuSans-32"/>
      </defs>
      <g transform="translate(128.914071 317.076875)scale(0.2 -0.2)">
       <use xlink:href="#DejaVuSans-32"/>
      </g>
     </g>
    </g>
    <g id="xtick_3">
     <g id="line2d_9">
      <path clip-path="url(#p13da47266a)" d="M 214.433143 294.88 
L 214.433143 24.84 
" style="fill:none;stroke:#b0b0b0;stroke-linecap:square;stroke-width:0.8;"/>
     </g>
     <g id="line2d_10">
      <g>
       <use style="stroke:#000000;stroke-width:0.8;" x="214.433143" xlink:href="#me60cdc753d" y="294.88"/>
      </g>
     </g>
     <g id="text_3">
      <!-- 4 -->
      <defs>
       <path d="M 37.796875 64.3125 
L 12.890625 25.390625 
L 37.796875 25.390625 
z
M 35.203125 72.90625 
L 47.609375 72.90625 
L 47.609375 25.390625 
L 58.015625 25.390625 
L 58.015625 17.1875 
L 47.609375 17.1875 
L 47.609375 0 
L 37.796875 0 
L 37.796875 17.1875 
L 4.890625 17.1875 
L 4.890625 26.703125 
z
" id="DejaVuSans-34"/>
      </defs>
      <g transform="translate(208.070643 317.076875)scale(0.2 -0.2)">
       <use xlink:href="#DejaVuSans-34"/>
      </g>
     </g>
    </g>
    <g id="xtick_4">
     <g id="line2d_11">
      <path clip-path="url(#p13da47266a)" d="M 293.589714 294.88 
L 293.589714 24.84 
" style="fill:none;stroke:#b0b0b0;stroke-linecap:square;stroke-width:0.8;"/>
     </g>
     <g id="line2d_12">
      <g>
       <use style="stroke:#000000;stroke-width:0.8;" x="293.589714" xlink:href="#me60cdc753d" y="294.88"/>
      </g>
     </g>
     <g id="text_4">
      <!-- 6 -->
      <defs>
       <path d="M 33.015625 40.375 
Q 26.375 40.375 22.484375 35.828125 
Q 18.609375 31.296875 18.609375 23.390625 
Q 18.609375 15.53125 22.484375 10.953125 
Q 26.375 6.390625 33.015625 6.390625 
Q 39.65625 6.390625 43.53125 10.953125 
Q 47.40625 15.53125 47.40625 23.390625 
Q 47.40625 31.296875 43.53125 35.828125 
Q 39.65625 40.375 33.015625 40.375 
z
M 52.59375 71.296875 
L 52.59375 62.3125 
Q 48.875 64.0625 45.09375 64.984375 
Q 41.3125 65.921875 37.59375 65.921875 
Q 27.828125 65.921875 22.671875 59.328125 
Q 17.53125 52.734375 16.796875 39.40625 
Q 19.671875 43.65625 24.015625 45.921875 
Q 28.375 48.1875 33.59375 48.1875 
Q 44.578125 48.1875 50.953125 41.515625 
Q 57.328125 34.859375 57.328125 23.390625 
Q 57.328125 12.15625 50.6875 5.359375 
Q 44.046875 -1.421875 33.015625 -1.421875 
Q 20.359375 -1.421875 13.671875 8.265625 
Q 6.984375 17.96875 6.984375 36.375 
Q 6.984375 53.65625 15.1875 63.9375 
Q 23.390625 74.21875 37.203125 74.21875 
Q 40.921875 74.21875 44.703125 73.484375 
Q 48.484375 72.75 52.59375 71.296875 
z
" id="DejaVuSans-36"/>
      </defs>
      <g transform="translate(287.227214 317.076875)scale(0.2 -0.2)">
       <use xlink:href="#DejaVuSans-36"/>
      </g>
     </g>
    </g>
    <g id="xtick_5">
     <g id="line2d_13">
      <path clip-path="url(#p13da47266a)" d="M 56.12 294.88 
L 56.12 24.84 
" style="fill:none;stroke:#b0b0b0;stroke-linecap:square;stroke-width:0.8;"/>
     </g>
     <g id="line2d_14">
      <defs>
       <path d="M 0 0 
L 0 2 
" id="m7d53d5b1e5" style="stroke:#000000;stroke-width:0.6;"/>
      </defs>
      <g>
       <use style="stroke:#000000;stroke-width:0.6;" x="56.12" xlink:href="#m7d53d5b1e5" y="294.88"/>
      </g>
     </g>
    </g>
    <g id="xtick_6">
     <g id="line2d_15">
      <path clip-path="url(#p13da47266a)" d="M 95.698286 294.88 
L 95.698286 24.84 
" style="fill:none;stroke:#b0b0b0;stroke-linecap:square;stroke-width:0.8;"/>
     </g>
     <g id="line2d_16">
      <g>
       <use style="stroke:#000000;stroke-width:0.6;" x="95.698286" xlink:href="#m7d53d5b1e5" y="294.88"/>
      </g>
     </g>
    </g>
    <g id="xtick_7">
     <g id="line2d_17">
      <path clip-path="url(#p13da47266a)" d="M 135.276571 294.88 
L 135.276571 24.84 
" style="fill:none;stroke:#b0b0b0;stroke-linecap:square;stroke-width:0.8;"/>
     </g>
     <g id="line2d_18">
      <g>
       <use style="stroke:#000000;stroke-width:0.6;" x="135.276571" xlink:href="#m7d53d5b1e5" y="294.88"/>
      </g>
     </g>
    </g>
    <g id="xtick_8">
     <g id="line2d_19">
      <path clip-path="url(#p13da47266a)" d="M 174.854857 294.88 
L 174.854857 24.84 
" style="fill:none;stroke:#b0b0b0;stroke-linecap:square;stroke-width:0.8;"/>
     </g>
     <g id="line2d_20">
      <g>
       <use style="stroke:#000000;stroke-width:0.6;" x="174.854857" xlink:href="#m7d53d5b1e5" y="294.88"/>
      </g>
     </g>
    </g>
    <g id="xtick_9">
     <g id="line2d_21">
      <path clip-path="url(#p13da47266a)" d="M 214.433143 294.88 
L 214.433143 24.84 
" style="fill:none;stroke:#b0b0b0;stroke-linecap:square;stroke-width:0.8;"/>
     </g>
     <g id="line2d_22">
      <g>
       <use style="stroke:#000000;stroke-width:0.6;" x="214.433143" xlink:href="#m7d53d5b1e5" y="294.88"/>
      </g>
     </g>
    </g>
    <g id="xtick_10">
     <g id="line2d_23">
      <path clip-path="url(#p13da47266a)" d="M 254.011429 294.88 
L 254.011429 24.84 
" style="fill:none;stroke:#b0b0b0;stroke-linecap:square;stroke-width:0.8;"/>
     </g>
     <g id="line2d_24">
      <g>
       <use style="stroke:#000000;stroke-width:0.6;" x="254.011429" xlink:href="#m7d53d5b1e5" y="294.88"/>
      </g>
     </g>
    </g>
    <g id="xtick_11">
     <g id="line2d_25">
      <path clip-path="url(#p13da47266a)" d="M 293.589714 294.88 
L 293.589714 24.84 
" style="fill:none;stroke:#b0b0b0;stroke-linecap:square;stroke-width:0.8;"/>
     </g>
     <g id="line2d_26">
      <g>
       <use style="stroke:#000000;stroke-width:0.6;" x="293.589714" xlink:href="#m7d53d5b1e5" y="294.88"/>
      </g>
     </g>
    </g>
    <g id="xtick_12">
     <g id="line2d_27">
      <path clip-path="url(#p13da47266a)" d="M 333.168 294.88 
L 333.168 24.84 
" style="fill:none;stroke:#b0b0b0;stroke-linecap:square;stroke-width:0.8;"/>
     </g>
     <g id="line2d_28">
      <g>
       <use style="stroke:#000000;stroke-width:0.6;" x="333.168" xlink:href="#m7d53d5b1e5" y="294.88"/>
      </g>
     </g>
    </g>
    <g id="text_5">
     <!-- log10(# f-evals / dimension) -->
     <defs>
      <path d="M 9.421875 75.984375 
L 18.40625 75.984375 
L 18.40625 0 
L 9.421875 0 
z
" id="DejaVuSans-6c"/>
      <path d="M 30.609375 48.390625 
Q 23.390625 48.390625 19.1875 42.75 
Q 14.984375 37.109375 14.984375 27.296875 
Q 14.984375 17.484375 19.15625 11.84375 
Q 23.34375 6.203125 30.609375 6.203125 
Q 37.796875 6.203125 41.984375 11.859375 
Q 46.1875 17.53125 46.1875 27.296875 
Q 46.1875 37.015625 41.984375 42.703125 
Q 37.796875 48.390625 30.609375 48.390625 
z
M 30.609375 56 
Q 42.328125 56 49.015625 48.375 
Q 55.71875 40.765625 55.71875 27.296875 
Q 55.71875 13.875 49.015625 6.21875 
Q 42.328125 -1.421875 30.609375 -1.421875 
Q 18.84375 -1.421875 12.171875 6.21875 
Q 5.515625 13.875 5.515625 27.296875 
Q 5.515625 40.765625 12.171875 48.375 
Q 18.84375 56 30.609375 56 
z
" id="DejaVuSans-6f"/>
      <path d="M 45.40625 27.984375 
Q 45.40625 37.75 41.375 43.109375 
Q 37.359375 48.484375 30.078125 48.484375 
Q 22.859375 48.484375 18.828125 43.109375 
Q 14.796875 37.75 14.796875 27.984375 
Q 14.796875 18.265625 18.828125 12.890625 
Q 22.859375 7.515625 30.078125 7.515625 
Q 37.359375 7.515625 41.375 12.890625 
Q 45.40625 18.265625 45.40625 27.984375 
z
M 54.390625 6.78125 
Q 54.390625 -7.171875 48.1875 -13.984375 
Q 42 -20.796875 29.203125 -20.796875 
Q 24.46875 -20.796875 20.265625 -20.09375 
Q 16.0625 -19.390625 12.109375 -17.921875 
L 12.109375 -9.1875 
Q 16.0625 -11.328125 19.921875 -12.34375 
Q 23.78125 -13.375 27.78125 -13.375 
Q 36.625 -13.375 41.015625 -8.765625 
Q 45.40625 -4.15625 45.40625 5.171875 
L 45.40625 9.625 
Q 42.625 4.78125 38.28125 2.390625 
Q 33.9375 0 27.875 0 
Q 17.828125 0 11.671875 7.65625 
Q 5.515625 15.328125 5.515625 27.984375 
Q 5.515625 40.671875 11.671875 48.328125 
Q 17.828125 56 27.875 56 
Q 33.9375 56 38.28125 53.609375 
Q 42.625 51.21875 45.40625 46.390625 
L 45.40625 54.6875 
L 54.390625 54.6875 
z
" id="DejaVuSans-67"/>
      <path d="M 12.40625 8.296875 
L 28.515625 8.296875 
L 28.515625 63.921875 
L 10.984375 60.40625 
L 10.984375 69.390625 
L 28.421875 72.90625 
L 38.28125 72.90625 
L 38.28125 8.296875 
L 54.390625 8.296875 
L 54.390625 0 
L 12.40625 0 
z
" id="DejaVuSans-31"/>
      <path d="M 31 75.875 
Q 24.46875 64.65625 21.28125 53.65625 
Q 18.109375 42.671875 18.109375 31.390625 
Q 18.109375 20.125 21.3125 9.0625 
Q 24.515625 -2 31 -13.1875 
L 23.1875 -13.1875 
Q 15.875 -1.703125 12.234375 9.375 
Q 8.59375 20.453125 8.59375 31.390625 
Q 8.59375 42.28125 12.203125 53.3125 
Q 15.828125 64.359375 23.1875 75.875 
z
" id="DejaVuSans-28"/>
      <path d="M 51.125 44 
L 36.921875 44 
L 32.8125 27.6875 
L 47.125 27.6875 
z
M 43.796875 71.78125 
L 38.71875 51.515625 
L 52.984375 51.515625 
L 58.109375 71.78125 
L 65.921875 71.78125 
L 60.890625 51.515625 
L 76.125 51.515625 
L 76.125 44 
L 58.984375 44 
L 54.984375 27.6875 
L 70.515625 27.6875 
L 70.515625 20.21875 
L 53.078125 20.21875 
L 48 0 
L 40.1875 0 
L 45.21875 20.21875 
L 30.90625 20.21875 
L 25.875 0 
L 18.015625 0 
L 23.09375 20.21875 
L 7.71875 20.21875 
L 7.71875 27.6875 
L 24.90625 27.6875 
L 29 44 
L 13.28125 44 
L 13.28125 51.515625 
L 30.90625 51.515625 
L 35.890625 71.78125 
z
" id="DejaVuSans-23"/>
      <path id="DejaVuSans-20"/>
      <path d="M 37.109375 75.984375 
L 37.109375 68.5 
L 28.515625 68.5 
Q 23.6875 68.5 21.796875 66.546875 
Q 19.921875 64.59375 19.921875 59.515625 
L 19.921875 54.6875 
L 34.71875 54.6875 
L 34.71875 47.703125 
L 19.921875 47.703125 
L 19.921875 0 
L 10.890625 0 
L 10.890625 47.703125 
L 2.296875 47.703125 
L 2.296875 54.6875 
L 10.890625 54.6875 
L 10.890625 58.5 
Q 10.890625 67.625 15.140625 71.796875 
Q 19.390625 75.984375 28.609375 75.984375 
z
" id="DejaVuSans-66"/>
      <path d="M 4.890625 31.390625 
L 31.203125 31.390625 
L 31.203125 23.390625 
L 4.890625 23.390625 
z
" id="DejaVuSans-2d"/>
      <path d="M 56.203125 29.59375 
L 56.203125 25.203125 
L 14.890625 25.203125 
Q 15.484375 15.921875 20.484375 11.0625 
Q 25.484375 6.203125 34.421875 6.203125 
Q 39.59375 6.203125 44.453125 7.46875 
Q 49.3125 8.734375 54.109375 11.28125 
L 54.109375 2.78125 
Q 49.265625 0.734375 44.1875 -0.34375 
Q 39.109375 -1.421875 33.890625 -1.421875 
Q 20.796875 -1.421875 13.15625 6.1875 
Q 5.515625 13.8125 5.515625 26.8125 
Q 5.515625 40.234375 12.765625 48.109375 
Q 20.015625 56 32.328125 56 
Q 43.359375 56 49.78125 48.890625 
Q 56.203125 41.796875 56.203125 29.59375 
z
M 47.21875 32.234375 
Q 47.125 39.59375 43.09375 43.984375 
Q 39.0625 48.390625 32.421875 48.390625 
Q 24.90625 48.390625 20.390625 44.140625 
Q 15.875 39.890625 15.1875 32.171875 
z
" id="DejaVuSans-65"/>
      <path d="M 2.984375 54.6875 
L 12.5 54.6875 
L 29.59375 8.796875 
L 46.6875 54.6875 
L 56.203125 54.6875 
L 35.6875 0 
L 23.484375 0 
z
" id="DejaVuSans-76"/>
      <path d="M 34.28125 27.484375 
Q 23.390625 27.484375 19.1875 25 
Q 14.984375 22.515625 14.984375 16.5 
Q 14.984375 11.71875 18.140625 8.90625 
Q 21.296875 6.109375 26.703125 6.109375 
Q 34.1875 6.109375 38.703125 11.40625 
Q 43.21875 16.703125 43.21875 25.484375 
L 43.21875 27.484375 
z
M 52.203125 31.203125 
L 52.203125 0 
L 43.21875 0 
L 43.21875 8.296875 
Q 40.140625 3.328125 35.546875 0.953125 
Q 30.953125 -1.421875 24.3125 -1.421875 
Q 15.921875 -1.421875 10.953125 3.296875 
Q 6 8.015625 6 15.921875 
Q 6 25.140625 12.171875 29.828125 
Q 18.359375 34.515625 30.609375 34.515625 
L 43.21875 34.515625 
L 43.21875 35.40625 
Q 43.21875 41.609375 39.140625 45 
Q 35.0625 48.390625 27.6875 48.390625 
Q 23 48.390625 18.546875 47.265625 
Q 14.109375 46.140625 10.015625 43.890625 
L 10.015625 52.203125 
Q 14.9375 54.109375 19.578125 55.046875 
Q 24.21875 56 28.609375 56 
Q 40.484375 56 46.34375 49.84375 
Q 52.203125 43.703125 52.203125 31.203125 
z
" id="DejaVuSans-61"/>
      <path d="M 44.28125 53.078125 
L 44.28125 44.578125 
Q 40.484375 46.53125 36.375 47.5 
Q 32.28125 48.484375 27.875 48.484375 
Q 21.1875 48.484375 17.84375 46.4375 
Q 14.5 44.390625 14.5 40.28125 
Q 14.5 37.15625 16.890625 35.375 
Q 19.28125 33.59375 26.515625 31.984375 
L 29.59375 31.296875 
Q 39.15625 29.25 43.1875 25.515625 
Q 47.21875 21.78125 47.21875 15.09375 
Q 47.21875 7.46875 41.1875 3.015625 
Q 35.15625 -1.421875 24.609375 -1.421875 
Q 20.21875 -1.421875 15.453125 -0.5625 
Q 10.6875 0.296875 5.421875 2 
L 5.421875 11.28125 
Q 10.40625 8.6875 15.234375 7.390625 
Q 20.0625 6.109375 24.8125 6.109375 
Q 31.15625 6.109375 34.5625 8.28125 
Q 37.984375 10.453125 37.984375 14.40625 
Q 37.984375 18.0625 35.515625 20.015625 
Q 33.0625 21.96875 24.703125 23.78125 
L 21.578125 24.515625 
Q 13.234375 26.265625 9.515625 29.90625 
Q 5.8125 33.546875 5.8125 39.890625 
Q 5.8125 47.609375 11.28125 51.796875 
Q 16.75 56 26.8125 56 
Q 31.78125 56 36.171875 55.265625 
Q 40.578125 54.546875 44.28125 53.078125 
z
" id="DejaVuSans-73"/>
      <path d="M 25.390625 72.90625 
L 33.6875 72.90625 
L 8.296875 -9.28125 
L 0 -9.28125 
z
" id="DejaVuSans-2f"/>
      <path d="M 45.40625 46.390625 
L 45.40625 75.984375 
L 54.390625 75.984375 
L 54.390625 0 
L 45.40625 0 
L 45.40625 8.203125 
Q 42.578125 3.328125 38.25 0.953125 
Q 33.9375 -1.421875 27.875 -1.421875 
Q 17.96875 -1.421875 11.734375 6.484375 
Q 5.515625 14.40625 5.515625 27.296875 
Q 5.515625 40.1875 11.734375 48.09375 
Q 17.96875 56 27.875 56 
Q 33.9375 56 38.25 53.625 
Q 42.578125 51.265625 45.40625 46.390625 
z
M 14.796875 27.296875 
Q 14.796875 17.390625 18.875 11.75 
Q 22.953125 6.109375 30.078125 6.109375 
Q 37.203125 6.109375 41.296875 11.75 
Q 45.40625 17.390625 45.40625 27.296875 
Q 45.40625 37.203125 41.296875 42.84375 
Q 37.203125 48.484375 30.078125 48.484375 
Q 22.953125 48.484375 18.875 42.84375 
Q 14.796875 37.203125 14.796875 27.296875 
z
" id="DejaVuSans-64"/>
      <path d="M 9.421875 54.6875 
L 18.40625 54.6875 
L 18.40625 0 
L 9.421875 0 
z
M 9.421875 75.984375 
L 18.40625 75.984375 
L 18.40625 64.59375 
L 9.421875 64.59375 
z
" id="DejaVuSans-69"/>
      <path d="M 52 44.1875 
Q 55.375 50.25 60.0625 53.125 
Q 64.75 56 71.09375 56 
Q 79.640625 56 84.28125 50.015625 
Q 88.921875 44.046875 88.921875 33.015625 
L 88.921875 0 
L 79.890625 0 
L 79.890625 32.71875 
Q 79.890625 40.578125 77.09375 44.375 
Q 74.3125 48.1875 68.609375 48.1875 
Q 61.625 48.1875 57.5625 43.546875 
Q 53.515625 38.921875 53.515625 30.90625 
L 53.515625 0 
L 44.484375 0 
L 44.484375 32.71875 
Q 44.484375 40.625 41.703125 44.40625 
Q 38.921875 48.1875 33.109375 48.1875 
Q 26.21875 48.1875 22.15625 43.53125 
Q 18.109375 38.875 18.109375 30.90625 
L 18.109375 0 
L 9.078125 0 
L 9.078125 54.6875 
L 18.109375 54.6875 
L 18.109375 46.1875 
Q 21.1875 51.21875 25.484375 53.609375 
Q 29.78125 56 35.6875 56 
Q 41.65625 56 45.828125 52.96875 
Q 50 49.953125 52 44.1875 
z
" id="DejaVuSans-6d"/>
      <path d="M 54.890625 33.015625 
L 54.890625 0 
L 45.90625 0 
L 45.90625 32.71875 
Q 45.90625 40.484375 42.875 44.328125 
Q 39.84375 48.1875 33.796875 48.1875 
Q 26.515625 48.1875 22.3125 43.546875 
Q 18.109375 38.921875 18.109375 30.90625 
L 18.109375 0 
L 9.078125 0 
L 9.078125 54.6875 
L 18.109375 54.6875 
L 18.109375 46.1875 
Q 21.34375 51.125 25.703125 53.5625 
Q 30.078125 56 35.796875 56 
Q 45.21875 56 50.046875 50.171875 
Q 54.890625 44.34375 54.890625 33.015625 
z
" id="DejaVuSans-6e"/>
      <path d="M 8.015625 75.875 
L 15.828125 75.875 
Q 23.140625 64.359375 26.78125 53.3125 
Q 30.421875 42.28125 30.421875 31.390625 
Q 30.421875 20.453125 26.78125 9.375 
Q 23.140625 -1.703125 15.828125 -13.1875 
L 8.015625 -13.1875 
Q 14.5 -2 17.703125 9.0625 
Q 20.90625 20.125 20.90625 31.390625 
Q 20.90625 42.671875 17.703125 53.65625 
Q 14.5 64.65625 8.015625 75.875 
z
" id="DejaVuSans-29"/>
     </defs>
     <g transform="translate(73.803219 338.153594)scale(0.17 -0.17)">
      <use xlink:href="#DejaVuSans-6c"/>
      <use x="27.783203" xlink:href="#DejaVuSans-6f"/>
      <use x="88.964844" xlink:href="#DejaVuSans-67"/>
      <use x="152.441406" xlink:href="#DejaVuSans-31"/>
      <use x="216.064453" xlink:href="#DejaVuSans-30"/>
      <use x="279.6875" xlink:href="#DejaVuSans-28"/>
      <use x="318.701172" xlink:href="#DejaVuSans-23"/>
      <use x="402.490234" xlink:href="#DejaVuSans-20"/>
      <use x="434.277344" xlink:href="#DejaVuSans-66"/>
      <use x="469.404297" xlink:href="#DejaVuSans-2d"/>
      <use x="505.488281" xlink:href="#DejaVuSans-65"/>
      <use x="567.011719" xlink:href="#DejaVuSans-76"/>
      <use x="626.191406" xlink:href="#DejaVuSans-61"/>
      <use x="687.470703" xlink:href="#DejaVuSans-6c"/>
      <use x="715.253906" xlink:href="#DejaVuSans-73"/>
      <use x="767.353516" xlink:href="#DejaVuSans-20"/>
      <use x="799.140625" xlink:href="#DejaVuSans-2f"/>
      <use x="832.832031" xlink:href="#DejaVuSans-20"/>
      <use x="864.619141" xlink:href="#DejaVuSans-64"/>
      <use x="928.095703" xlink:href="#DejaVuSans-69"/>
      <use x="955.878906" xlink:href="#DejaVuSans-6d"/>
      <use x="1053.291016" xlink:href="#DejaVuSans-65"/>
      <use x="1114.814453" xlink:href="#DejaVuSans-6e"/>
      <use x="1178.193359" xlink:href="#DejaVuSans-73"/>
      <use x="1230.292969" xlink:href="#DejaVuSans-69"/>
      <use x="1258.076172" xlink:href="#DejaVuSans-6f"/>
      <use x="1319.257812" xlink:href="#DejaVuSans-6e"/>
      <use x="1382.636719" xlink:href="#DejaVuSans-29"/>
     </g>
    </g>
   </g>
   <g id="matplotlib.axis_2">
    <g id="ytick_1">
     <g id="line2d_29">
      <path clip-path="url(#p13da47266a)" d="M 56.12 294.88 
L 333.168 294.88 
" style="fill:none;stroke:#b0b0b0;stroke-linecap:square;stroke-width:0.8;"/>
     </g>
     <g id="line2d_30">
      <defs>
       <path d="M 0 0 
L -3.5 0 
" id="m29c3032bf7" style="stroke:#000000;stroke-width:0.8;"/>
      </defs>
      <g>
       <use style="stroke:#000000;stroke-width:0.8;" x="56.12" xlink:href="#m29c3032bf7" y="294.88"/>
      </g>
     </g>
     <g id="text_6">
      <!-- 0.0 -->
      <defs>
       <path d="M 10.6875 12.40625 
L 21 12.40625 
L 21 0 
L 10.6875 0 
z
" id="DejaVuSans-2e"/>
      </defs>
      <g transform="translate(23.675 300.95875)scale(0.16 -0.16)">
       <use xlink:href="#DejaVuSans-30"/>
       <use x="63.623047" xlink:href="#DejaVuSans-2e"/>
       <use x="95.410156" xlink:href="#DejaVuSans-30"/>
      </g>
     </g>
    </g>
    <g id="ytick_2">
     <g id="line2d_31">
      <path clip-path="url(#p13da47266a)" d="M 56.12 241.406733 
L 333.168 241.406733 
" style="fill:none;stroke:#b0b0b0;stroke-linecap:square;stroke-width:0.8;"/>
     </g>
     <g id="line2d_32">
      <g>
       <use style="stroke:#000000;stroke-width:0.8;" x="56.12" xlink:href="#m29c3032bf7" y="241.406733"/>
      </g>
     </g>
     <g id="text_7">
      <!-- 0.2 -->
      <g transform="translate(23.675 247.485483)scale(0.16 -0.16)">
       <use xlink:href="#DejaVuSans-30"/>
       <use x="63.623047" xlink:href="#DejaVuSans-2e"/>
       <use x="95.410156" xlink:href="#DejaVuSans-32"/>
      </g>
     </g>
    </g>
    <g id="ytick_3">
     <g id="line2d_33">
      <path clip-path="url(#p13da47266a)" d="M 56.12 187.933465 
L 333.168 187.933465 
" style="fill:none;stroke:#b0b0b0;stroke-linecap:square;stroke-width:0.8;"/>
     </g>
     <g id="line2d_34">
      <g>
       <use style="stroke:#000000;stroke-width:0.8;" x="56.12" xlink:href="#m29c3032bf7" y="187.933465"/>
      </g>
     </g>
     <g id="text_8">
      <!-- 0.4 -->
      <g transform="translate(23.675 194.012215)scale(0.16 -0.16)">
       <use xlink:href="#DejaVuSans-30"/>
       <use x="63.623047" xlink:href="#DejaVuSans-2e"/>
       <use x="95.410156" xlink:href="#DejaVuSans-34"/>
      </g>
     </g>
    </g>
    <g id="ytick_4">
     <g id="line2d_35">
      <path clip-path="url(#p13da47266a)" d="M 56.12 134.460198 
L 333.168 134.460198 
" style="fill:none;stroke:#b0b0b0;stroke-linecap:square;stroke-width:0.8;"/>
     </g>
     <g id="line2d_36">
      <g>
       <use style="stroke:#000000;stroke-width:0.8;" x="56.12" xlink:href="#m29c3032bf7" y="134.460198"/>
      </g>
     </g>
     <g id="text_9">
      <!-- 0.6 -->
      <g transform="translate(23.675 140.538948)scale(0.16 -0.16)">
       <use xlink:href="#DejaVuSans-30"/>
       <use x="63.623047" xlink:href="#DejaVuSans-2e"/>
       <use x="95.410156" xlink:href="#DejaVuSans-36"/>
      </g>
     </g>
    </g>
    <g id="ytick_5">
     <g id="line2d_37">
      <path clip-path="url(#p13da47266a)" d="M 56.12 80.986931 
L 333.168 80.986931 
" style="fill:none;stroke:#b0b0b0;stroke-linecap:square;stroke-width:0.8;"/>
     </g>
     <g id="line2d_38">
      <g>
       <use style="stroke:#000000;stroke-width:0.8;" x="56.12" xlink:href="#m29c3032bf7" y="80.986931"/>
      </g>
     </g>
     <g id="text_10">
      <!-- 0.8 -->
      <defs>
       <path d="M 31.78125 34.625 
Q 24.75 34.625 20.71875 30.859375 
Q 16.703125 27.09375 16.703125 20.515625 
Q 16.703125 13.921875 20.71875 10.15625 
Q 24.75 6.390625 31.78125 6.390625 
Q 38.8125 6.390625 42.859375 10.171875 
Q 46.921875 13.96875 46.921875 20.515625 
Q 46.921875 27.09375 42.890625 30.859375 
Q 38.875 34.625 31.78125 34.625 
z
M 21.921875 38.8125 
Q 15.578125 40.375 12.03125 44.71875 
Q 8.5 49.078125 8.5 55.328125 
Q 8.5 64.0625 14.71875 69.140625 
Q 20.953125 74.21875 31.78125 74.21875 
Q 42.671875 74.21875 48.875 69.140625 
Q 55.078125 64.0625 55.078125 55.328125 
Q 55.078125 49.078125 51.53125 44.71875 
Q 48 40.375 41.703125 38.8125 
Q 48.828125 37.15625 52.796875 32.3125 
Q 56.78125 27.484375 56.78125 20.515625 
Q 56.78125 9.90625 50.3125 4.234375 
Q 43.84375 -1.421875 31.78125 -1.421875 
Q 19.734375 -1.421875 13.25 4.234375 
Q 6.78125 9.90625 6.78125 20.515625 
Q 6.78125 27.484375 10.78125 32.3125 
Q 14.796875 37.15625 21.921875 38.8125 
z
M 18.3125 54.390625 
Q 18.3125 48.734375 21.84375 45.5625 
Q 25.390625 42.390625 31.78125 42.390625 
Q 38.140625 42.390625 41.71875 45.5625 
Q 45.3125 48.734375 45.3125 54.390625 
Q 45.3125 60.0625 41.71875 63.234375 
Q 38.140625 66.40625 31.78125 66.40625 
Q 25.390625 66.40625 21.84375 63.234375 
Q 18.3125 60.0625 18.3125 54.390625 
z
" id="DejaVuSans-38"/>
      </defs>
      <g transform="translate(23.675 87.065681)scale(0.16 -0.16)">
       <use xlink:href="#DejaVuSans-30"/>
       <use x="63.623047" xlink:href="#DejaVuSans-2e"/>
       <use x="95.410156" xlink:href="#DejaVuSans-38"/>
      </g>
     </g>
    </g>
    <g id="ytick_6">
     <g id="line2d_39">
      <path clip-path="url(#p13da47266a)" d="M 56.12 27.513663 
L 333.168 27.513663 
" style="fill:none;stroke:#b0b0b0;stroke-linecap:square;stroke-width:0.8;"/>
     </g>
     <g id="line2d_40">
      <g>
       <use style="stroke:#000000;stroke-width:0.8;" x="56.12" xlink:href="#m29c3032bf7" y="27.513663"/>
      </g>
     </g>
     <g id="text_11">
      <!-- 1.0 -->
      <g transform="translate(23.675 33.592413)scale(0.16 -0.16)">
       <use xlink:href="#DejaVuSans-31"/>
       <use x="63.623047" xlink:href="#DejaVuSans-2e"/>
       <use x="95.410156" xlink:href="#DejaVuSans-30"/>
      </g>
     </g>
    </g>
    <g id="text_12">
     <!-- Fraction of function,target pairs -->
     <defs>
      <path d="M 9.8125 72.90625 
L 51.703125 72.90625 
L 51.703125 64.59375 
L 19.671875 64.59375 
L 19.671875 43.109375 
L 48.578125 43.109375 
L 48.578125 34.8125 
L 19.671875 34.8125 
L 19.671875 0 
L 9.8125 0 
z
" id="DejaVuSans-46"/>
      <path d="M 41.109375 46.296875 
Q 39.59375 47.171875 37.8125 47.578125 
Q 36.03125 48 33.890625 48 
Q 26.265625 48 22.1875 43.046875 
Q 18.109375 38.09375 18.109375 28.8125 
L 18.109375 0 
L 9.078125 0 
L 9.078125 54.6875 
L 18.109375 54.6875 
L 18.109375 46.1875 
Q 20.953125 51.171875 25.484375 53.578125 
Q 30.03125 56 36.53125 56 
Q 37.453125 56 38.578125 55.875 
Q 39.703125 55.765625 41.0625 55.515625 
z
" id="DejaVuSans-72"/>
      <path d="M 48.78125 52.59375 
L 48.78125 44.1875 
Q 44.96875 46.296875 41.140625 47.34375 
Q 37.3125 48.390625 33.40625 48.390625 
Q 24.65625 48.390625 19.8125 42.84375 
Q 14.984375 37.3125 14.984375 27.296875 
Q 14.984375 17.28125 19.8125 11.734375 
Q 24.65625 6.203125 33.40625 6.203125 
Q 37.3125 6.203125 41.140625 7.25 
Q 44.96875 8.296875 48.78125 10.40625 
L 48.78125 2.09375 
Q 45.015625 0.34375 40.984375 -0.53125 
Q 36.96875 -1.421875 32.421875 -1.421875 
Q 20.0625 -1.421875 12.78125 6.34375 
Q 5.515625 14.109375 5.515625 27.296875 
Q 5.515625 40.671875 12.859375 48.328125 
Q 20.21875 56 33.015625 56 
Q 37.15625 56 41.109375 55.140625 
Q 45.0625 54.296875 48.78125 52.59375 
z
" id="DejaVuSans-63"/>
      <path d="M 18.3125 70.21875 
L 18.3125 54.6875 
L 36.8125 54.6875 
L 36.8125 47.703125 
L 18.3125 47.703125 
L 18.3125 18.015625 
Q 18.3125 11.328125 20.140625 9.421875 
Q 21.96875 7.515625 27.59375 7.515625 
L 36.8125 7.515625 
L 36.8125 0 
L 27.59375 0 
Q 17.1875 0 13.234375 3.875 
Q 9.28125 7.765625 9.28125 18.015625 
L 9.28125 47.703125 
L 2.6875 47.703125 
L 2.6875 54.6875 
L 9.28125 54.6875 
L 9.28125 70.21875 
z
" id="DejaVuSans-74"/>
      <path d="M 8.5 21.578125 
L 8.5 54.6875 
L 17.484375 54.6875 
L 17.484375 21.921875 
Q 17.484375 14.15625 20.5 10.265625 
Q 23.53125 6.390625 29.59375 6.390625 
Q 36.859375 6.390625 41.078125 11.03125 
Q 45.3125 15.671875 45.3125 23.6875 
L 45.3125 54.6875 
L 54.296875 54.6875 
L 54.296875 0 
L 45.3125 0 
L 45.3125 8.40625 
Q 42.046875 3.421875 37.71875 1 
Q 33.40625 -1.421875 27.6875 -1.421875 
Q 18.265625 -1.421875 13.375 4.4375 
Q 8.5 10.296875 8.5 21.578125 
z
M 31.109375 56 
z
" id="DejaVuSans-75"/>
      <path d="M 11.71875 12.40625 
L 22.015625 12.40625 
L 22.015625 4 
L 14.015625 -11.625 
L 7.71875 -11.625 
L 11.71875 4 
z
" id="DejaVuSans-2c"/>
      <path d="M 18.109375 8.203125 
L 18.109375 -20.796875 
L 9.078125 -20.796875 
L 9.078125 54.6875 
L 18.109375 54.6875 
L 18.109375 46.390625 
Q 20.953125 51.265625 25.265625 53.625 
Q 29.59375 56 35.59375 56 
Q 45.5625 56 51.78125 48.09375 
Q 58.015625 40.1875 58.015625 27.296875 
Q 58.015625 14.40625 51.78125 6.484375 
Q 45.5625 -1.421875 35.59375 -1.421875 
Q 29.59375 -1.421875 25.265625 0.953125 
Q 20.953125 3.328125 18.109375 8.203125 
z
M 48.6875 27.296875 
Q 48.6875 37.203125 44.609375 42.84375 
Q 40.53125 48.484375 33.40625 48.484375 
Q 26.265625 48.484375 22.1875 42.84375 
Q 18.109375 37.203125 18.109375 27.296875 
Q 18.109375 17.390625 22.1875 11.75 
Q 26.265625 6.109375 33.40625 6.109375 
Q 40.53125 6.109375 44.609375 11.75 
Q 48.6875 17.390625 48.6875 27.296875 
z
" id="DejaVuSans-70"/>
     </defs>
     <g transform="translate(16.139531 294.999375)rotate(-90)scale(0.17 -0.17)">
      <use xlink:href="#DejaVuSans-46"/>
      <use x="57.410156" xlink:href="#DejaVuSans-72"/>
      <use x="98.523438" xlink:href="#DejaVuSans-61"/>
      <use x="159.802734" xlink:href="#DejaVuSans-63"/>
      <use x="214.783203" xlink:href="#DejaVuSans-74"/>
      <use x="253.992188" xlink:href="#DejaVuSans-69"/>
      <use x="281.775391" xlink:href="#DejaVuSans-6f"/>
      <use x="342.957031" xlink:href="#DejaVuSans-6e"/>
      <use x="406.335938" xlink:href="#DejaVuSans-20"/>
      <use x="438.123047" xlink:href="#DejaVuSans-6f"/>
      <use x="499.304688" xlink:href="#DejaVuSans-66"/>
      <use x="534.509766" xlink:href="#DejaVuSans-20"/>
      <use x="566.296875" xlink:href="#DejaVuSans-66"/>
      <use x="601.501953" xlink:href="#DejaVuSans-75"/>
      <use x="664.880859" xlink:href="#DejaVuSans-6e"/>
      <use x="728.259766" xlink:href="#DejaVuSans-63"/>
      <use x="783.240234" xlink:href="#DejaVuSans-74"/>
      <use x="822.449219" xlink:href="#DejaVuSans-69"/>
      <use x="850.232422" xlink:href="#DejaVuSans-6f"/>
      <use x="911.414062" xlink:href="#DejaVuSans-6e"/>
      <use x="974.792969" xlink:href="#DejaVuSans-2c"/>
      <use x="1006.580078" xlink:href="#DejaVuSans-74"/>
      <use x="1045.789062" xlink:href="#DejaVuSans-61"/>
      <use x="1107.068359" xlink:href="#DejaVuSans-72"/>
      <use x="1148.166016" xlink:href="#DejaVuSans-67"/>
      <use x="1211.642578" xlink:href="#DejaVuSans-65"/>
      <use x="1273.166016" xlink:href="#DejaVuSans-74"/>
      <use x="1312.375" xlink:href="#DejaVuSans-20"/>
      <use x="1344.162109" xlink:href="#DejaVuSans-70"/>
      <use x="1407.638672" xlink:href="#DejaVuSans-61"/>
      <use x="1468.917969" xlink:href="#DejaVuSans-69"/>
      <use x="1496.701172" xlink:href="#DejaVuSans-72"/>
      <use x="1537.814453" xlink:href="#DejaVuSans-73"/>
     </g>
    </g>
   </g>
   <g id="line2d_41">
    <defs>
     <path d="M 0 1.5 
C 0.397805 1.5 0.77937 1.341951 1.06066 1.06066 
C 1.341951 0.77937 1.5 0.397805 1.5 0 
C 1.5 -0.397805 1.341951 -0.77937 1.06066 -1.06066 
C 0.77937 -1.341951 0.397805 -1.5 0 -1.5 
C -0.397805 -1.5 -0.77937 -1.341951 -1.06066 -1.06066 
C -1.341951 -0.77937 -1.5 -0.397805 -1.5 0 
C -1.5 0.397805 -1.341951 0.77937 -1.06066 1.06066 
C -0.77937 1.341951 -0.397805 1.5 0 1.5 
z
" id="m1843666036" style="stroke:#f5deb3;"/>
    </defs>
    <g>
     <use style="fill:#f5deb3;stroke:#f5deb3;" x="69.277344" xlink:href="#m1843666036" y="27.513663"/>
     <use style="fill:#f5deb3;stroke:#f5deb3;" x="69.277344" xlink:href="#m1843666036" y="27.513663"/>
    </g>
   </g>
   <g id="line2d_42">
    <defs>
     <path d="M 0 1.5 
C 0.397805 1.5 0.77937 1.341951 1.06066 1.06066 
C 1.341951 0.77937 1.5 0.397805 1.5 0 
C 1.5 -0.397805 1.341951 -0.77937 1.06066 -1.06066 
C 0.77937 -1.341951 0.397805 -1.5 0 -1.5 
C -0.397805 -1.5 -0.77937 -1.341951 -1.06066 -1.06066 
C -1.341951 -0.77937 -1.5 -0.397805 -1.5 0 
C -1.5 0.397805 -1.341951 0.77937 -1.06066 1.06066 
C -0.77937 1.341951 -0.397805 1.5 0 1.5 
z
" id="mec712a2df0" style="stroke:#000080;"/>
    </defs>
    <g>
     <use style="fill:#000080;stroke:#000080;" x="237.570867" xlink:href="#mec712a2df0" y="27.513663"/>
     <use style="fill:#000080;stroke:#000080;" x="237.570867" xlink:href="#mec712a2df0" y="27.513663"/>
    </g>
   </g>
   <g id="line2d_43">
    <path d="M 4.627463 294.88 
L 4.627463 294.355752 
L 16.541714 294.355752 
L 16.541714 293.831505 
L 23.511104 293.831505 
L 23.511104 293.307257 
L 35.425356 293.307257 
L 35.425356 292.783009 
L 38.074995 292.783009 
L 38.074995 292.258761 
L 40.370217 292.258761 
L 40.370217 291.734514 
L 48.715431 291.734514 
L 48.715431 291.210266 
L 65.240773 291.210266 
L 65.240773 290.686018 
L 66.223248 290.686018 
L 66.223248 290.161771 
L 68.872887 290.161771 
L 68.872887 289.637523 
L 98.832144 289.637523 
L 98.832144 288.06478 
L 103.777005 288.06478 
L 103.777005 286.492036 
L 107.612537 286.492036 
L 107.612537 285.967789 
L 110.746395 285.967789 
L 110.746395 284.919293 
L 111.72091 284.919293 
L 111.72091 284.395046 
L 112.022767 284.395046 
L 112.022767 283.870798 
L 113.396034 283.870798 
L 113.396034 282.298055 
L 113.790495 282.298055 
L 113.790495 281.773807 
L 114.495768 281.773807 
L 114.495768 281.249559 
L 115.691256 281.249559 
L 115.691256 279.676816 
L 116.783791 279.676816 
L 116.783791 279.152568 
L 117.715785 279.152568 
L 117.715785 276.53133 
L 117.85843 276.53133 
L 117.85843 276.007082 
L 118.070202 276.007082 
L 118.070202 275.482834 
L 118.463235 275.482834 
L 118.463235 274.958587 
L 119.526788 274.958587 
L 119.526788 272.337348 
L 119.88822 272.337348 
L 119.88822 271.8131 
L 121.16504 271.8131 
L 121.16504 270.240357 
L 122.660646 270.240357 
L 122.660646 267.094871 
L 122.909503 267.094871 
L 122.909503 266.570623 
L 123.36232 266.570623 
L 123.36232 266.046375 
L 124.036471 266.046375 
L 124.036471 262.900889 
L 125.310285 262.900889 
L 125.310285 260.803898 
L 126.221847 260.803898 
L 126.221847 260.279651 
L 126.496178 260.279651 
L 126.496178 258.18266 
L 127.605507 258.18266 
L 127.605507 256.609917 
L 128.186438 256.609917 
L 128.186438 256.085669 
L 128.647561 256.085669 
L 128.647561 251.891687 
L 129.022601 251.891687 
L 129.022601 251.367439 
L 129.630036 251.367439 
L 129.630036 249.794696 
L 130.559378 249.794696 
L 130.559378 247.697705 
L 131.441039 247.697705 
L 131.441039 245.076467 
L 132.279675 245.076467 
L 132.279675 241.93098 
L 132.452734 241.93098 
L 132.452734 241.406733 
L 133.079291 241.406733 
L 133.079291 239.309742 
L 133.843356 239.309742 
L 133.843356 237.212751 
L 134.574897 237.212751 
L 134.574897 234.067265 
L 135.276571 234.067265 
L 135.276571 231.446026 
L 135.464614 231.446026 
L 135.464614 230.921778 
L 135.950722 230.921778 
L 135.950722 228.824787 
L 136.599426 228.824787 
L 136.599426 226.727797 
L 137.224536 226.727797 
L 137.224536 224.106558 
L 137.827708 224.106558 
L 137.827708 223.058063 
L 138.410429 223.058063 
L 138.410429 220.961072 
L 138.974042 220.961072 
L 138.974042 217.815585 
L 139.357855 217.815585 
L 139.357855 217.291338 
L 139.519758 217.291338 
L 139.519758 213.621604 
L 140.048681 213.621604 
L 140.048681 211.524613 
L 140.561812 211.524613 
L 140.561812 207.854879 
L 141.060069 207.854879 
L 141.060069 205.757888 
L 141.544287 205.757888 
L 141.544287 205.23364 
L 141.927912 205.23364 
L 142.015238 203.136649 
L 142.473629 203.136649 
L 142.473629 200.515411 
L 142.920112 200.515411 
L 142.920112 197.894172 
L 143.35529 197.894172 
L 143.35529 196.321429 
L 143.779723 196.321429 
L 143.852933 195.272933 
L 144.193927 195.272933 
L 144.193927 192.127447 
L 144.36192 192.127447 
L 144.36192 191.603199 
L 144.598384 191.603199 
L 144.598384 190.030456 
L 144.993542 190.030456 
L 144.993542 187.409218 
L 145.37982 187.409218 
L 145.37982 185.312227 
L 145.757607 185.312227 
L 145.757607 181.642493 
L 145.869343 181.642493 
L 145.869343 181.118245 
L 146.127269 181.118245 
L 146.127269 180.06975 
L 146.489148 180.06975 
L 146.489148 176.400016 
L 146.69383 176.400016 
L 146.69383 175.875768 
L 146.843566 175.875768 
L 146.843566 173.778777 
L 147.190823 173.778777 
L 147.190823 172.730281 
L 147.531203 172.730281 
L 147.531203 169.584795 
L 147.864973 169.584795 
L 147.864973 166.963557 
L 148.192385 166.963557 
L 148.192385 166.439309 
L 148.513678 166.439309 
L 148.513678 163.81807 
L 148.829074 163.81807 
L 148.829074 161.721079 
L 149.138788 161.721079 
L 149.192418 160.148336 
L 149.443019 160.148336 
L 149.443019 158.051345 
L 149.741959 158.051345 
L 149.741959 157.527098 
L 150.017571 157.527098 
L 150.017571 157.00285 
L 168.919431 157.00285 
L 169.016268 155.954354 
L 169.112563 155.954354 
L 169.208322 154.905859 
L 169.345047 154.905859 
L 169.345047 154.381611 
L 169.539337 154.381611 
L 169.539337 153.857364 
L 169.679273 153.857364 
L 169.738402 152.28462 
L 169.955771 152.28462 
L 169.955771 151.760373 
L 170.227893 151.760373 
L 170.227893 151.236125 
L 170.584146 151.236125 
L 170.584146 150.711877 
L 170.759542 150.711877 
L 170.846573 149.663382 
L 170.933166 149.663382 
L 170.933166 149.139134 
L 171.443757 149.139134 
L 171.443757 148.614886 
L 171.693475 148.614886 
L 171.693475 147.042143 
L 171.857961 147.042143 
L 171.857961 146.517896 
L 172.020888 146.517896 
L 172.020888 145.993648 
L 172.182285 145.993648 
L 172.182285 145.4694 
L 172.34218 145.4694 
L 172.349141 144.420905 
L 172.579268 144.420905 
L 172.579268 143.372409 
L 172.890383 143.372409 
L 172.890383 142.323914 
L 173.120079 142.323914 
L 173.120079 141.799666 
L 173.346745 141.799666 
L 173.346745 141.275418 
L 176.679606 141.275418 
L 176.741324 139.702675 
L 176.925162 139.702675 
L 176.925162 139.178427 
L 177.287041 139.178427 
L 177.287041 138.65418 
L 177.405994 138.65418 
L 177.405994 138.129932 
L 177.553537 138.129932 
L 177.582894 136.557189 
L 177.699824 136.557189 
L 177.757992 134.984446 
L 177.815964 134.984446 
L 177.815964 133.93595 
L 177.931324 133.93595 
L 177.988715 132.887455 
L 178.045915 132.887455 
L 178.058046 131.838959 
L 178.159748 131.838959 
L 178.159748 131.314712 
L 178.385176 131.314712 
L 178.441074 129.741969 
L 178.607685 129.741969 
L 178.717869 127.12073 
L 178.772697 127.12073 
L 178.827351 126.072235 
L 179.044245 126.072235 
L 179.151675 124.499491 
L 179.31157 124.499491 
L 179.398883 123.450996 
L 179.678975 123.450996 
L 179.730826 121.878253 
L 179.885447 121.878253 
L 179.885447 121.354005 
L 180.291097 121.354005 
L 180.341137 120.30551 
L 180.440782 120.30551 
L 180.490388 119.257014 
L 180.638354 119.257014 
L 180.638354 118.732766 
L 180.882169 118.732766 
L 180.882169 118.208519 
L 181.026814 118.208519 
L 181.041212 117.160023 
L 181.150005 117.160023 
L 181.150005 116.635776 
L 181.359661 116.635776 
L 181.359661 116.111528 
L 182.630112 116.111528 
L 182.630112 115.58728 
L 182.890551 115.58728 
L 182.890551 115.063032 
L 185.298485 115.063032 
L 185.298485 114.538785 
L 185.410464 114.538785 
L 185.410464 114.014537 
L 185.923595 114.014537 
L 185.995665 112.966042 
L 186.940141 112.966042 
L 187.041949 111.393298 
L 187.542139 111.393298 
L 187.542139 110.869051 
L 187.964166 110.869051 
L 187.996205 109.820555 
L 188.281895 109.820555 
L 188.281895 109.296308 
L 188.717073 109.296308 
L 188.717073 108.77206 
L 189.051434 108.77206 
L 189.051434 108.247812 
L 189.902966 108.247812 
L 189.93159 107.199317 
L 190.355325 107.199317 
L 190.355325 106.675069 
L 190.958497 106.675069 
L 190.958497 106.150821 
L 191.11939 106.150821 
L 191.11939 105.626573 
L 191.748312 105.626573 
L 191.748312 105.102326 
L 192.054349 105.102326 
L 192.054349 104.578078 
L 192.747933 104.578078 
L 192.844771 103.529583 
L 192.868895 103.529583 
L 192.868895 103.005335 
L 193.738498 103.005335 
L 193.738498 102.481087 
L 193.87546 102.481087 
L 193.87546 101.956839 
L 194.146153 101.956839 
L 194.235445 100.384096 
L 194.302111 100.384096 
L 194.302111 99.859849 
L 194.637598 99.859849 
L 194.637598 99.335601 
L 195.583844 99.335601 
L 195.583844 98.811353 
L 196.641633 98.811353 
L 196.641633 98.287105 
L 196.834117 98.287105 
L 196.834117 97.762858 
L 197.963771 97.762858 
L 197.963771 97.23861 
L 201.917193 97.23861 
L 202.016591 95.665867 
L 202.044885 95.665867 
L 202.143549 93.044628 
L 202.22767 93.044628 
L 202.311381 90.42339 
L 202.366962 90.42339 
L 202.4638 88.850646 
L 204.169639 88.850646 
L 204.231985 87.802151 
L 204.294105 87.802151 
L 204.380698 86.753656 
L 204.417676 86.753656 
L 204.50365 85.180912 
L 205.375508 85.180912 
L 205.375508 84.656665 
L 205.526235 84.656665 
L 205.526235 84.132417 
L 205.812433 84.132417 
L 205.839092 82.559674 
L 205.936866 82.559674 
L 205.936866 82.035426 
L 206.238526 82.035426 
L 206.3269 80.986931 
L 209.238966 80.986931 
L 209.238966 80.462683 
L 209.469938 80.462683 
L 209.469938 79.938435 
L 210.89581 79.938435 
L 210.916281 78.88994 
L 213.731469 78.88994 
L 213.731469 78.365692 
L 214.5428 78.365692 
L 214.644971 72.598967 
L 214.665333 72.598967 
L 214.760036 63.686756 
L 214.813919 63.686756 
L 214.813919 63.162508 
L 215.007841 63.162508 
L 215.021134 62.114013 
L 215.692218 62.114013 
L 215.775086 61.065517 
L 215.825883 61.065517 
L 215.933332 57.395783 
L 216.331927 57.395783 
L 216.430148 54.250297 
L 216.527811 54.250297 
L 216.533897 53.201802 
L 216.751554 53.201802 
L 216.763565 51.629058 
L 216.883222 51.629058 
L 216.883222 51.104811 
L 217.423162 51.104811 
L 217.423162 50.580563 
L 217.56127 50.580563 
L 217.669468 48.483572 
L 217.76071 48.483572 
L 217.76071 47.959324 
L 218.202544 47.959324 
L 218.202544 47.435077 
L 218.670957 47.435077 
L 218.6817 46.386581 
L 218.86331 46.386581 
L 218.926952 45.338086 
L 219.854343 45.338086 
L 219.929413 44.28959 
L 221.22845 44.28959 
L 221.287558 42.716847 
L 222.670126 42.716847 
L 222.763543 41.668352 
L 223.778922 41.668352 
L 223.778922 41.144104 
L 223.981307 41.144104 
L 223.981307 40.619856 
L 224.409877 40.619856 
L 224.436791 39.571361 
L 224.947775 39.571361 
L 224.947775 39.047113 
L 225.074108 39.047113 
L 225.074108 38.522865 
L 226.433123 38.522865 
L 226.532036 36.425875 
L 226.681032 36.425875 
L 226.681032 35.901627 
L 227.005009 35.901627 
L 227.005009 35.377379 
L 227.452425 35.377379 
L 227.452425 34.853131 
L 227.571289 34.853131 
L 227.571289 34.328884 
L 227.853883 34.328884 
L 227.954365 33.280388 
L 228.511916 33.280388 
L 228.511916 32.756141 
L 228.722785 32.756141 
L 228.722785 32.231893 
L 230.114034 32.231893 
L 230.114034 31.707645 
L 230.646889 31.707645 
L 230.646889 31.183397 
L 230.83326 31.183397 
L 230.83326 30.65915 
L 231.256982 30.65915 
L 231.256982 30.134902 
L 232.352903 30.134902 
L 232.352903 29.610654 
L 234.203372 29.610654 
L 234.203372 29.086407 
L 234.90078 29.086407 
L 234.90078 28.562159 
L 235.094064 28.562159 
L 235.094064 28.037911 
L 237.570867 28.037911 
L 237.570867 27.513663 
L 333.168 27.513663 
L 333.168 27.513663 
" style="fill:none;stroke:#000080;stroke-linecap:square;stroke-width:1.5;"/>
   </g>
   <g id="line2d_44">
    <defs>
     <path d="M 0 6 
C 1.591219 6 3.117479 5.367802 4.242641 4.242641 
C 5.367802 3.117479 6 1.591219 6 0 
C 6 -1.591219 5.367802 -3.117479 4.242641 -4.242641 
C 3.117479 -5.367802 1.591219 -6 0 -6 
C -1.591219 -6 -3.117479 -5.367802 -4.242641 -4.242641 
C -5.367802 -3.117479 -6 -1.591219 -6 0 
C -6 1.591219 -5.367802 3.117479 -4.242641 4.242641 
C -3.117479 5.367802 -1.591219 6 0 6 
z
" id="mcc838c7e31" style="stroke:#000080;stroke-width:1.5;"/>
    </defs>
    <g>
     <use style="fill:none;stroke:#000080;stroke-width:1.5;" x="68.872887" xlink:href="#mcc838c7e31" y="290.161771"/>
     <use style="fill:none;stroke:#000080;stroke-width:1.5;" x="141.060069" xlink:href="#mcc838c7e31" y="207.854879"/>
     <use style="fill:none;stroke:#000080;stroke-width:1.5;" x="192.054349" xlink:href="#mcc838c7e31" y="105.102326"/>
     <use style="fill:none;stroke:#000080;stroke-width:1.5;" x="237.570867" xlink:href="#mcc838c7e31" y="28.037911"/>
     <use style="fill:none;stroke:#000080;stroke-width:1.5;" x="237.570867" xlink:href="#mcc838c7e31" y="27.513663"/>
     <use style="fill:none;stroke:#000080;stroke-width:1.5;" x="333.168" xlink:href="#mcc838c7e31" y="27.513663"/>
    </g>
   </g>
   <g id="line2d_45">
    <path style="fill:none;stroke:#000080;stroke-linecap:square;stroke-width:1.5;"/>
    <g/>
   </g>
   <g id="line2d_46">
    <path clip-path="url(#p13da47266a)" d="M 176.802822 139.702675 
" style="fill:none;stroke:#000080;stroke-linecap:square;stroke-width:1.5;"/>
    <defs>
     <path d="M -12 12 
L 12 -12 
M -12 -12 
L 12 12 
" id="m54b5cc85fe" style="stroke:#000080;"/>
    </defs>
    <g clip-path="url(#p13da47266a)">
     <use style="fill:#000080;stroke:#000080;" x="176.802822" xlink:href="#m54b5cc85fe" y="139.702675"/>
    </g>
   </g>
   <g id="line2d_47">
    <defs>
     <path d="M 0 1.5 
C 0.397805 1.5 0.77937 1.341951 1.06066 1.06066 
C 1.341951 0.77937 1.5 0.397805 1.5 0 
C 1.5 -0.397805 1.341951 -0.77937 1.06066 -1.06066 
C 0.77937 -1.341951 0.397805 -1.5 0 -1.5 
C -0.397805 -1.5 -0.77937 -1.341951 -1.06066 -1.06066 
C -1.341951 -0.77937 -1.5 -0.397805 -1.5 0 
C -1.5 0.397805 -1.341951 0.77937 -1.06066 1.06066 
C -0.77937 1.341951 -0.397805 1.5 0 1.5 
z
" id="mdf9c2c5878" style="stroke:#ff00ff;"/>
    </defs>
    <g>
     <use style="fill:#ff00ff;stroke:#ff00ff;" x="240.18375" xlink:href="#mdf9c2c5878" y="27.513663"/>
     <use style="fill:#ff00ff;stroke:#ff00ff;" x="240.18375" xlink:href="#mdf9c2c5878" y="27.513663"/>
    </g>
   </g>
   <g id="line2d_48">
    <path d="M 4.627463 294.88 
L 4.627463 293.831505 
L 16.541714 293.831505 
L 16.541714 293.307257 
L 28.455965 293.307257 
L 28.455965 292.258761 
L 35.425356 292.258761 
L 35.425356 291.734514 
L 38.074995 291.734514 
L 38.074995 291.210266 
L 48.715431 291.210266 
L 48.715431 290.686018 
L 53.326522 290.686018 
L 53.326522 290.161771 
L 68.872887 290.161771 
L 68.872887 289.637523 
L 73.192638 289.637523 
L 73.192638 289.113275 
L 80.162028 289.113275 
L 80.162028 288.589027 
L 80.581284 288.589027 
L 80.581284 288.06478 
L 83.260482 288.06478 
L 83.260482 287.540532 
L 85.422286 287.540532 
L 85.422286 287.016284 
L 86.629001 287.016284 
L 86.629001 286.492036 
L 88.027221 286.492036 
L 88.027221 285.967789 
L 92.495535 285.967789 
L 92.495535 285.443541 
L 93.598391 285.443541 
L 93.598391 284.919293 
L 95.174734 284.919293 
L 95.174734 284.395046 
L 95.612127 284.395046 
L 95.612127 283.870798 
L 98.470264 283.870798 
L 98.470264 283.34655 
L 100.600121 283.34655 
L 100.600121 282.822302 
L 107.133228 282.822302 
L 107.133228 282.298055 
L 109.133192 282.298055 
L 109.133192 281.773807 
L 117.37827 281.773807 
L 117.37827 281.249559 
L 118.256279 281.249559 
L 118.256279 280.725312 
L 119.95122 280.725312 
L 119.95122 280.201064 
L 121.397846 280.201064 
L 121.397846 279.676816 
L 123.482222 279.676816 
L 123.482222 279.152568 
L 124.922264 279.152568 
L 124.922264 278.628321 
L 125.310285 278.628321 
L 125.310285 278.104073 
L 125.972626 278.104073 
L 125.972626 277.579825 
L 126.539096 277.579825 
L 126.539096 277.055578 
L 126.934579 277.055578 
L 126.934579 276.53133 
L 127.911623 276.53133 
L 127.990591 275.482834 
L 128.935821 275.482834 
L 128.935821 274.958587 
L 129.145817 274.958587 
L 129.207096 273.910091 
L 130.112597 273.910091 
L 130.112597 273.385844 
L 130.961731 273.385844 
L 130.961731 272.861596 
L 134.047653 272.861596 
L 134.047653 271.8131 
L 134.176407 271.8131 
L 134.176407 271.288853 
L 134.619601 271.288853 
L 134.63745 270.240357 
L 135.422057 270.240357 
L 135.422057 269.716109 
L 135.684226 269.716109 
L 135.684226 269.191862 
L 135.958984 269.191862 
L 135.958984 268.667614 
L 136.229418 268.667614 
L 136.253793 267.619119 
L 136.46361 267.619119 
L 136.46361 267.094871 
L 136.852205 267.094871 
L 136.852205 266.570623 
L 137.377325 266.570623 
L 137.377325 266.046375 
L 137.678888 266.046375 
L 137.775767 264.99788 
L 138.033915 264.99788 
L 138.033915 264.473632 
L 138.374582 264.473632 
L 138.374582 263.949385 
L 138.994822 263.949385 
L 139.001743 262.900889 
L 139.112104 262.900889 
L 139.112104 261.852394 
L 139.364631 261.852394 
L 139.364631 261.328146 
L 139.753167 261.328146 
L 139.753167 260.803898 
L 140.568131 260.803898 
L 140.568131 260.279651 
L 140.949214 260.279651 
L 140.949214 259.755403 
L 141.072342 259.755403 
L 141.090735 258.706907 
L 141.562183 258.706907 
L 141.562183 257.658412 
L 142.513162 257.658412 
L 142.530078 256.085669 
L 142.92562 256.085669 
L 142.92562 255.561421 
L 143.231301 255.561421 
L 143.231301 255.037173 
L 143.842493 255.037173 
L 143.842493 254.512926 
L 144.563371 254.512926 
L 144.563371 253.988678 
L 144.77733 253.988678 
L 144.880861 252.940182 
L 145.066633 252.940182 
L 145.066633 252.415935 
L 145.284061 252.415935 
L 145.284061 251.891687 
L 145.43702 251.891687 
L 145.522465 250.318944 
L 146.259332 250.318944 
L 146.300112 248.221953 
L 147.195119 248.221953 
L 147.195119 247.697705 
L 147.615255 247.697705 
L 147.615255 247.173458 
L 147.90212 247.173458 
L 147.951524 246.124962 
L 148.029459 246.124962 
L 148.029459 245.600714 
L 148.485803 245.600714 
L 148.545479 244.027971 
L 149.115752 244.027971 
L 149.115752 243.503724 
L 149.238255 243.503724 
L 149.238255 242.979476 
L 149.476911 242.979476 
L 149.548241 241.93098 
L 149.826951 241.93098 
L 149.826951 241.406733 
L 150.141074 241.406733 
L 150.170005 240.358237 
L 150.62288 240.358237 
L 150.731636 238.785494 
L 150.902149 238.785494 
L 150.964364 236.688503 
L 151.25176 236.688503 
L 151.25176 236.164255 
L 151.450787 236.164255 
L 151.477597 235.11576 
L 151.68397 235.11576 
L 151.68397 234.591512 
L 151.822376 234.591512 
L 151.822376 234.067265 
L 151.972696 234.067265 
L 151.972696 233.543017 
L 152.25025 233.543017 
L 152.352393 232.494521 
L 152.495011 232.494521 
L 152.526544 231.446026 
L 152.761216 231.446026 
L 152.813965 229.873283 
L 152.986593 229.873283 
L 153.047828 228.824787 
L 153.25139 228.824787 
L 153.31169 227.252044 
L 153.377777 227.252044 
L 153.485375 226.203549 
L 153.73091 226.203549 
L 153.73091 225.679301 
L 154.013485 225.679301 
L 154.09132 224.106558 
L 154.165941 224.106558 
L 154.165941 223.58231 
L 154.637666 223.58231 
L 154.709958 222.533815 
L 154.927765 222.533815 
L 154.927765 222.009567 
L 155.118479 222.009567 
L 155.118479 221.485319 
L 155.282965 221.485319 
L 155.282965 220.961072 
L 155.480415 220.961072 
L 155.480415 220.436824 
L 155.602021 220.436824 
L 155.602021 219.912576 
L 155.714923 219.912576 
L 155.720156 218.339833 
L 156.120962 218.339833 
L 156.207645 215.718594 
L 156.329281 215.718594 
L 156.422458 214.670099 
L 156.770519 214.670099 
L 156.858892 213.097356 
L 156.932191 213.097356 
L 157.02944 211.524613 
L 157.068186 211.524613 
L 157.068186 211.000365 
L 157.303617 211.000365 
L 157.391673 209.95187 
L 157.618059 209.95187 
L 157.702192 208.903374 
L 157.776632 208.903374 
L 157.885384 207.854879 
L 158.094012 207.854879 
L 158.203045 206.282136 
L 158.273097 206.282136 
L 158.273097 205.757888 
L 158.639016 205.757888 
L 158.749045 204.709392 
L 158.775347 204.709392 
L 158.784106 203.660897 
L 159.105074 203.660897 
L 159.105074 203.136649 
L 159.261209 203.136649 
L 159.3186 202.088154 
L 159.531602 202.088154 
L 159.608977 200.515411 
L 159.66522 200.515411 
L 159.735785 199.466915 
L 160.134991 199.466915 
L 160.14106 198.41842 
L 160.300132 198.41842 
L 160.378121 196.845677 
L 160.457744 196.845677 
L 160.509302 195.272933 
L 160.649313 195.272933 
L 160.71987 193.70019 
L 161.014628 193.70019 
L 161.089449 192.651695 
L 161.146783 192.651695 
L 161.213431 191.603199 
L 161.524197 191.603199 
L 161.524197 191.078952 
L 161.661766 191.078952 
L 161.661766 190.554704 
L 161.897155 190.554704 
L 161.988235 188.981961 
L 162.246092 188.981961 
L 162.246092 188.457713 
L 162.385128 188.457713 
L 162.397551 186.360722 
L 162.556477 186.360722 
L 162.638891 185.312227 
L 162.710463 185.312227 
L 162.710463 184.787979 
L 162.998948 184.787979 
L 162.998948 184.263731 
L 163.215139 184.263731 
L 163.215139 183.739484 
L 163.349939 183.739484 
L 163.349939 183.215236 
L 163.64118 183.215236 
L 163.705418 181.642493 
L 163.886947 181.642493 
L 163.886947 181.118245 
L 164.194888 181.118245 
L 164.194888 180.593997 
L 182.421096 180.593997 
L 182.421096 180.06975 
L 182.63995 180.06975 
L 182.63995 179.545502 
L 182.783056 179.545502 
L 182.806881 178.497006 
L 182.90885 178.497006 
L 182.90885 177.972759 
L 183.134896 177.972759 
L 183.134896 177.448511 
L 183.343329 177.448511 
L 183.442173 175.875768 
L 183.861504 175.875768 
L 183.909783 173.778777 
L 184.065383 173.778777 
L 184.102559 172.730281 
L 184.252949 172.730281 
L 184.353143 170.109043 
L 184.426183 170.109043 
L 184.495481 169.060547 
L 184.549839 169.060547 
L 184.6595 166.963557 
L 184.7675 166.963557 
L 184.7675 166.439309 
L 185.006738 166.439309 
L 185.04811 164.342318 
L 185.133392 164.342318 
L 185.241752 163.293823 
L 185.411859 163.293823 
L 185.498136 161.721079 
L 185.532342 161.721079 
L 185.564174 160.148336 
L 185.702812 160.148336 
L 185.789919 158.051345 
L 185.828543 158.051345 
L 185.888804 156.478602 
L 185.96147 156.478602 
L 186.056688 154.381611 
L 186.158062 154.381611 
L 186.264595 151.760373 
L 186.299077 151.760373 
L 186.356393 150.18763 
L 186.424921 150.18763 
L 186.475264 149.139134 
L 186.542885 149.139134 
L 186.598527 148.090639 
L 186.701942 148.090639 
L 186.701942 147.566391 
L 186.833873 147.566391 
L 186.915446 144.945152 
L 186.970322 144.945152 
L 187.075752 143.896657 
L 187.106539 143.896657 
L 187.162069 142.848162 
L 187.248791 142.848162 
L 187.332166 141.275418 
L 187.40189 141.275418 
L 187.48123 139.702675 
L 187.543371 139.702675 
L 187.630239 138.65418 
L 187.706499 138.65418 
L 187.809545 135.508693 
L 187.85398 135.508693 
L 187.906748 133.93595 
L 188.009003 133.93595 
L 188.102703 132.887455 
L 188.290157 132.887455 
L 188.290157 132.363207 
L 188.433123 132.363207 
L 188.433123 131.838959 
L 188.569107 131.838959 
L 188.569107 131.314712 
L 194.619644 131.314712 
L 194.619644 130.790464 
L 195.02843 130.790464 
L 195.02843 130.266216 
L 195.152624 130.266216 
L 195.258105 129.217721 
L 195.41707 129.217721 
L 195.41707 128.693473 
L 195.580756 128.693473 
L 195.627276 127.12073 
L 195.809819 127.12073 
L 195.918926 125.023739 
L 195.932295 125.023739 
L 196.013297 123.450996 
L 196.074173 123.450996 
L 196.113141 122.4025 
L 196.207447 122.4025 
L 196.297289 120.30551 
L 196.361598 120.30551 
L 196.471423 118.732766 
L 196.49999 118.732766 
L 196.608695 115.58728 
L 196.645504 115.58728 
L 196.753777 114.014537 
L 196.76435 114.014537 
L 196.863999 110.344803 
L 196.893114 110.344803 
L 196.973282 107.723564 
L 197.085647 107.723564 
L 197.162107 106.675069 
L 197.215311 106.675069 
L 197.215311 106.150821 
L 197.345862 106.150821 
L 197.364664 105.102326 
L 197.468052 105.102326 
L 197.568071 103.529583 
L 197.637625 103.529583 
L 197.673665 102.481087 
L 197.771138 102.481087 
L 197.860175 100.384096 
L 197.923396 100.384096 
L 197.950323 99.335601 
L 198.104342 99.335601 
L 198.104342 98.811353 
L 201.809158 98.811353 
L 201.809158 98.287105 
L 201.978142 98.287105 
L 202.035694 97.23861 
L 202.133532 97.23861 
L 202.204927 95.141619 
L 202.257189 95.141619 
L 202.257189 94.617371 
L 202.522501 94.617371 
L 202.611802 93.044628 
L 202.687882 93.044628 
L 202.797822 91.996133 
L 203.010438 91.996133 
L 203.088103 90.42339 
L 203.121992 90.42339 
L 203.208901 89.374894 
L 203.252768 89.374894 
L 203.32902 87.802151 
L 203.421253 87.802151 
L 203.44342 86.753656 
L 203.714912 86.753656 
L 203.714912 86.229408 
L 203.830284 86.229408 
L 203.869258 85.180912 
L 204.178225 85.180912 
L 204.281079 84.132417 
L 204.389179 84.132417 
L 204.389179 83.608169 
L 207.010451 83.608169 
L 207.07413 82.035426 
L 207.211516 82.035426 
L 207.315985 80.462683 
L 207.354041 80.462683 
L 207.426413 78.88994 
L 207.583313 78.88994 
L 207.666071 76.268701 
L 207.88634 76.268701 
L 207.88634 75.744454 
L 208.145504 75.744454 
L 208.253578 73.123215 
L 208.578372 73.123215 
L 208.578372 72.598967 
L 210.734999 72.598967 
L 210.734999 72.074719 
L 211.045085 72.074719 
L 211.045085 71.550472 
L 211.438804 71.550472 
L 211.526862 69.977729 
L 211.916586 69.977729 
L 211.916586 69.453481 
L 212.190291 69.453481 
L 212.190291 68.929233 
L 213.775905 68.929233 
L 213.775905 68.404985 
L 213.996466 68.404985 
L 213.996466 67.880738 
L 214.19115 67.880738 
L 214.19115 67.35649 
L 214.590385 67.35649 
L 214.590385 66.832242 
L 214.709114 66.832242 
L 214.757422 65.259499 
L 214.936128 65.259499 
L 214.936128 64.735251 
L 215.052417 64.735251 
L 215.146831 63.162508 
L 215.193516 63.162508 
L 215.261381 62.114013 
L 216.902216 62.114013 
L 216.995315 61.065517 
L 217.132263 61.065517 
L 217.132263 60.54127 
L 217.253474 60.54127 
L 217.361519 58.968526 
L 217.39613 58.968526 
L 217.465216 57.395783 
L 217.628412 57.395783 
L 217.628412 56.871536 
L 217.744556 56.871536 
L 217.796576 55.82304 
L 219.186686 55.82304 
L 219.186686 55.298792 
L 219.474825 55.298792 
L 219.522446 53.726049 
L 219.760356 53.726049 
L 219.840293 52.677554 
L 219.889479 52.677554 
L 219.889479 52.153306 
L 220.103622 52.153306 
L 220.129186 51.104811 
L 221.329326 51.104811 
L 221.381034 49.532068 
L 221.558583 49.532068 
L 221.636532 45.862334 
L 221.949891 45.862334 
L 221.949891 45.338086 
L 222.943629 45.338086 
L 222.943629 44.813838 
L 223.356073 44.813838 
L 223.356073 44.28959 
L 223.468519 44.28959 
L 223.483146 43.241095 
L 224.660891 43.241095 
L 224.725189 42.192599 
L 224.786707 42.192599 
L 224.790801 41.144104 
L 225.104069 41.144104 
L 225.104069 40.619856 
L 226.122956 40.619856 
L 226.122956 40.095609 
L 226.467509 40.095609 
L 226.508894 39.047113 
L 226.594289 39.047113 
L 226.594289 38.522865 
L 227.558759 38.522865 
L 227.595163 37.47437 
L 227.69927 37.47437 
L 227.797379 35.901627 
L 227.842385 35.901627 
L 227.881653 34.853131 
L 228.748552 34.853131 
L 228.797846 33.804636 
L 229.230701 33.804636 
L 229.230701 33.280388 
L 230.05072 33.280388 
L 230.105506 32.231893 
L 231.421382 32.231893 
L 231.421382 31.707645 
L 232.198989 31.707645 
L 232.198989 31.183397 
L 232.348115 31.183397 
L 232.348115 30.65915 
L 234.233302 30.65915 
L 234.233302 30.134902 
L 234.414104 30.134902 
L 234.414319 29.086407 
L 235.407496 29.086407 
L 235.407496 28.562159 
L 237.461414 28.562159 
L 237.461414 28.037911 
L 240.18375 28.037911 
L 240.18375 27.513663 
L 333.168 27.513663 
L 333.168 27.513663 
" style="fill:none;stroke:#ff00ff;stroke-linecap:square;stroke-width:1.5;"/>
   </g>
   <g id="line2d_49">
    <defs>
     <path d="M -0 8.485281 
L 5.091169 0 
L 0 -8.485281 
L -5.091169 -0 
z
" id="m0160e31cd6" style="stroke:#ff00ff;stroke-linejoin:miter;stroke-width:1.5;"/>
    </defs>
    <g>
     <use style="fill:none;stroke:#ff00ff;stroke-linejoin:miter;stroke-width:1.5;" x="147.195119" xlink:href="#m0160e31cd6" y="247.697705"/>
     <use style="fill:none;stroke:#ff00ff;stroke-linejoin:miter;stroke-width:1.5;" x="183.909783" xlink:href="#m0160e31cd6" y="174.303025"/>
     <use style="fill:none;stroke:#ff00ff;stroke-linejoin:miter;stroke-width:1.5;" x="221.594372" xlink:href="#m0160e31cd6" y="47.959324"/>
     <use style="fill:none;stroke:#ff00ff;stroke-linejoin:miter;stroke-width:1.5;" x="240.18375" xlink:href="#m0160e31cd6" y="27.513663"/>
     <use style="fill:none;stroke:#ff00ff;stroke-linejoin:miter;stroke-width:1.5;" x="240.18375" xlink:href="#m0160e31cd6" y="27.513663"/>
     <use style="fill:none;stroke:#ff00ff;stroke-linejoin:miter;stroke-width:1.5;" x="333.168" xlink:href="#m0160e31cd6" y="27.513663"/>
    </g>
   </g>
   <g id="line2d_50">
    <path style="fill:none;stroke:#ff00ff;stroke-linecap:square;stroke-width:1.5;"/>
    <g/>
   </g>
   <g id="line2d_51">
    <path clip-path="url(#p13da47266a)" d="M 183.399881 176.924263 
" style="fill:none;stroke:#ff00ff;stroke-linecap:square;stroke-width:1.5;"/>
    <defs>
     <path d="M -12 12 
L 12 -12 
M -12 -12 
L 12 12 
" id="m12948ce9ed" style="stroke:#ff00ff;"/>
    </defs>
    <g clip-path="url(#p13da47266a)">
     <use style="fill:#ff00ff;stroke:#ff00ff;" x="183.399881" xlink:href="#m12948ce9ed" y="176.924263"/>
    </g>
   </g>
   <g id="line2d_52">
    <path d="M 333.168 27.513663 
L 363.64328 289.532673 
" style="fill:none;stroke:#ff00ff;stroke-linecap:square;stroke-width:1.5;"/>
    <g>
     <use style="fill:none;stroke:#ff00ff;stroke-linejoin:miter;stroke-width:1.5;" x="333.168" xlink:href="#m0160e31cd6" y="27.513663"/>
     <use style="fill:none;stroke:#ff00ff;stroke-linejoin:miter;stroke-width:1.5;" x="363.64328" xlink:href="#m0160e31cd6" y="289.532673"/>
    </g>
   </g>
   <g id="line2d_53">
    <path d="M 333.168 27.513663 
L 363.64328 161.196832 
" style="fill:none;stroke:#000080;stroke-linecap:square;stroke-width:1.5;"/>
    <g>
     <use style="fill:none;stroke:#000080;stroke-width:1.5;" x="333.168" xlink:href="#mcc838c7e31" y="27.513663"/>
     <use style="fill:none;stroke:#000080;stroke-width:1.5;" x="363.64328" xlink:href="#mcc838c7e31" y="161.196832"/>
    </g>
   </g>
   <g id="line2d_54">
    <path d="M 333.168 294.88 
L 333.168 27.513663 
" style="fill:none;stroke:#000000;stroke-linecap:square;stroke-width:1.5;"/>
   </g>
   <g id="patch_3">
    <path d="M 56.12 294.88 
L 56.12 24.84 
" style="fill:none;stroke:#000000;stroke-linecap:square;stroke-linejoin:miter;stroke-width:0.8;"/>
   </g>
   <g id="patch_4">
    <path d="M 333.168 294.88 
L 333.168 24.84 
" style="fill:none;stroke:#000000;stroke-linecap:square;stroke-linejoin:miter;stroke-width:0.8;"/>
   </g>
   <g id="patch_5">
    <path d="M 56.12 294.88 
L 333.168 294.88 
" style="fill:none;stroke:#000000;stroke-linecap:square;stroke-linejoin:miter;stroke-width:0.8;"/>
   </g>
   <g id="patch_6">
    <path d="M 56.12 24.84 
L 333.168 24.84 
" style="fill:none;stroke:#000000;stroke-linecap:square;stroke-linejoin:miter;stroke-width:0.8;"/>
   </g>
   <g id="text_13">
    <!-- CMA ES CSA -->
    <defs>
     <path d="M 64.40625 67.28125 
L 64.40625 56.890625 
Q 59.421875 61.53125 53.78125 63.8125 
Q 48.140625 66.109375 41.796875 66.109375 
Q 29.296875 66.109375 22.65625 58.46875 
Q 16.015625 50.828125 16.015625 36.375 
Q 16.015625 21.96875 22.65625 14.328125 
Q 29.296875 6.6875 41.796875 6.6875 
Q 48.140625 6.6875 53.78125 8.984375 
Q 59.421875 11.28125 64.40625 15.921875 
L 64.40625 5.609375 
Q 59.234375 2.09375 53.4375 0.328125 
Q 47.65625 -1.421875 41.21875 -1.421875 
Q 24.65625 -1.421875 15.125 8.703125 
Q 5.609375 18.84375 5.609375 36.375 
Q 5.609375 53.953125 15.125 64.078125 
Q 24.65625 74.21875 41.21875 74.21875 
Q 47.75 74.21875 53.53125 72.484375 
Q 59.328125 70.75 64.40625 67.28125 
z
" id="DejaVuSans-43"/>
     <path d="M 9.8125 72.90625 
L 24.515625 72.90625 
L 43.109375 23.296875 
L 61.8125 72.90625 
L 76.515625 72.90625 
L 76.515625 0 
L 66.890625 0 
L 66.890625 64.015625 
L 48.09375 14.015625 
L 38.1875 14.015625 
L 19.390625 64.015625 
L 19.390625 0 
L 9.8125 0 
z
" id="DejaVuSans-4d"/>
     <path d="M 34.1875 63.1875 
L 20.796875 26.90625 
L 47.609375 26.90625 
z
M 28.609375 72.90625 
L 39.796875 72.90625 
L 67.578125 0 
L 57.328125 0 
L 50.6875 18.703125 
L 17.828125 18.703125 
L 11.1875 0 
L 0.78125 0 
z
" id="DejaVuSans-41"/>
     <path d="M 9.8125 72.90625 
L 55.90625 72.90625 
L 55.90625 64.59375 
L 19.671875 64.59375 
L 19.671875 43.015625 
L 54.390625 43.015625 
L 54.390625 34.71875 
L 19.671875 34.71875 
L 19.671875 8.296875 
L 56.78125 8.296875 
L 56.78125 0 
L 9.8125 0 
z
" id="DejaVuSans-45"/>
     <path d="M 53.515625 70.515625 
L 53.515625 60.890625 
Q 47.90625 63.578125 42.921875 64.890625 
Q 37.9375 66.21875 33.296875 66.21875 
Q 25.25 66.21875 20.875 63.09375 
Q 16.5 59.96875 16.5 54.203125 
Q 16.5 49.359375 19.40625 46.890625 
Q 22.3125 44.4375 30.421875 42.921875 
L 36.375 41.703125 
Q 47.40625 39.59375 52.65625 34.296875 
Q 57.90625 29 57.90625 20.125 
Q 57.90625 9.515625 50.796875 4.046875 
Q 43.703125 -1.421875 29.984375 -1.421875 
Q 24.8125 -1.421875 18.96875 -0.25 
Q 13.140625 0.921875 6.890625 3.21875 
L 6.890625 13.375 
Q 12.890625 10.015625 18.65625 8.296875 
Q 24.421875 6.59375 29.984375 6.59375 
Q 38.421875 6.59375 43.015625 9.90625 
Q 47.609375 13.234375 47.609375 19.390625 
Q 47.609375 24.75 44.3125 27.78125 
Q 41.015625 30.8125 33.5 32.328125 
L 27.484375 33.5 
Q 16.453125 35.6875 11.515625 40.375 
Q 6.59375 45.0625 6.59375 53.421875 
Q 6.59375 63.09375 13.40625 68.65625 
Q 20.21875 74.21875 32.171875 74.21875 
Q 37.3125 74.21875 42.625 73.28125 
Q 47.953125 72.359375 53.515625 70.515625 
z
" id="DejaVuSans-53"/>
    </defs>
    <g transform="translate(369.18424 294.223611)scale(0.17 -0.17)">
     <use xlink:href="#DejaVuSans-43"/>
     <use x="69.824219" xlink:href="#DejaVuSans-4d"/>
     <use x="156.103516" xlink:href="#DejaVuSans-41"/>
     <use x="224.511719" xlink:href="#DejaVuSans-20"/>
     <use x="256.298828" xlink:href="#DejaVuSans-45"/>
     <use x="319.482422" xlink:href="#DejaVuSans-53"/>
     <use x="382.958984" xlink:href="#DejaVuSans-20"/>
     <use x="414.746094" xlink:href="#DejaVuSans-43"/>
     <use x="484.570312" xlink:href="#DejaVuSans-53"/>
     <use x="548.0625" xlink:href="#DejaVuSans-41"/>
    </g>
   </g>
   <g id="text_14">
    <!-- CMA ES PPM -->
    <defs>
     <path d="M 19.671875 64.796875 
L 19.671875 37.40625 
L 32.078125 37.40625 
Q 38.96875 37.40625 42.71875 40.96875 
Q 46.484375 44.53125 46.484375 51.125 
Q 46.484375 57.671875 42.71875 61.234375 
Q 38.96875 64.796875 32.078125 64.796875 
z
M 9.8125 72.90625 
L 32.078125 72.90625 
Q 44.34375 72.90625 50.609375 67.359375 
Q 56.890625 61.8125 56.890625 51.125 
Q 56.890625 40.328125 50.609375 34.8125 
Q 44.34375 29.296875 32.078125 29.296875 
L 19.671875 29.296875 
L 19.671875 0 
L 9.8125 0 
z
" id="DejaVuSans-50"/>
    </defs>
    <g transform="translate(369.18424 165.887769)scale(0.17 -0.17)">
     <use xlink:href="#DejaVuSans-43"/>
     <use x="69.824219" xlink:href="#DejaVuSans-4d"/>
     <use x="156.103516" xlink:href="#DejaVuSans-41"/>
     <use x="224.511719" xlink:href="#DejaVuSans-20"/>
     <use x="256.298828" xlink:href="#DejaVuSans-45"/>
     <use x="319.482422" xlink:href="#DejaVuSans-53"/>
     <use x="382.958984" xlink:href="#DejaVuSans-20"/>
     <use x="414.746094" xlink:href="#DejaVuSans-50"/>
     <use x="475.048828" xlink:href="#DejaVuSans-50"/>
     <use x="535.351562" xlink:href="#DejaVuSans-4d"/>
    </g>
   </g>
   <g id="text_15">
    <!-- best 2009 -->
    <defs>
     <path d="M 48.6875 27.296875 
Q 48.6875 37.203125 44.609375 42.84375 
Q 40.53125 48.484375 33.40625 48.484375 
Q 26.265625 48.484375 22.1875 42.84375 
Q 18.109375 37.203125 18.109375 27.296875 
Q 18.109375 17.390625 22.1875 11.75 
Q 26.265625 6.109375 33.40625 6.109375 
Q 40.53125 6.109375 44.609375 11.75 
Q 48.6875 17.390625 48.6875 27.296875 
z
M 18.109375 46.390625 
Q 20.953125 51.265625 25.265625 53.625 
Q 29.59375 56 35.59375 56 
Q 45.5625 56 51.78125 48.09375 
Q 58.015625 40.1875 58.015625 27.296875 
Q 58.015625 14.40625 51.78125 6.484375 
Q 45.5625 -1.421875 35.59375 -1.421875 
Q 29.59375 -1.421875 25.265625 0.953125 
Q 20.953125 3.328125 18.109375 8.203125 
L 18.109375 0 
L 9.078125 0 
L 9.078125 75.984375 
L 18.109375 75.984375 
z
" id="DejaVuSans-62"/>
     <path d="M 10.984375 1.515625 
L 10.984375 10.5 
Q 14.703125 8.734375 18.5 7.8125 
Q 22.3125 6.890625 25.984375 6.890625 
Q 35.75 6.890625 40.890625 13.453125 
Q 46.046875 20.015625 46.78125 33.40625 
Q 43.953125 29.203125 39.59375 26.953125 
Q 35.25 24.703125 29.984375 24.703125 
Q 19.046875 24.703125 12.671875 31.3125 
Q 6.296875 37.9375 6.296875 49.421875 
Q 6.296875 60.640625 12.9375 67.421875 
Q 19.578125 74.21875 30.609375 74.21875 
Q 43.265625 74.21875 49.921875 64.515625 
Q 56.59375 54.828125 56.59375 36.375 
Q 56.59375 19.140625 48.40625 8.859375 
Q 40.234375 -1.421875 26.421875 -1.421875 
Q 22.703125 -1.421875 18.890625 -0.6875 
Q 15.09375 0.046875 10.984375 1.515625 
z
M 30.609375 32.421875 
Q 37.25 32.421875 41.125 36.953125 
Q 45.015625 41.5 45.015625 49.421875 
Q 45.015625 57.28125 41.125 61.84375 
Q 37.25 66.40625 30.609375 66.40625 
Q 23.96875 66.40625 20.09375 61.84375 
Q 16.21875 57.28125 16.21875 49.421875 
Q 16.21875 41.5 20.09375 36.953125 
Q 23.96875 32.421875 30.609375 32.421875 
z
" id="DejaVuSans-39"/>
    </defs>
    <g transform="translate(369.18424 37.551928)scale(0.17 -0.17)">
     <use xlink:href="#DejaVuSans-62"/>
     <use x="63.476562" xlink:href="#DejaVuSans-65"/>
     <use x="125" xlink:href="#DejaVuSans-73"/>
     <use x="177.099609" xlink:href="#DejaVuSans-74"/>
     <use x="216.308594" xlink:href="#DejaVuSans-20"/>
     <use x="248.095703" xlink:href="#DejaVuSans-32"/>
     <use x="311.71875" xlink:href="#DejaVuSans-30"/>
     <use x="375.341797" xlink:href="#DejaVuSans-30"/>
     <use x="438.964844" xlink:href="#DejaVuSans-39"/>
    </g>
   </g>
   <g id="text_16">
    <!-- bbob f1, 20-D -->
    <defs>
     <path d="M 19.671875 64.796875 
L 19.671875 8.109375 
L 31.59375 8.109375 
Q 46.6875 8.109375 53.6875 14.9375 
Q 60.6875 21.78125 60.6875 36.53125 
Q 60.6875 51.171875 53.6875 57.984375 
Q 46.6875 64.796875 31.59375 64.796875 
z
M 9.8125 72.90625 
L 30.078125 72.90625 
Q 51.265625 72.90625 61.171875 64.09375 
Q 71.09375 55.28125 71.09375 36.53125 
Q 71.09375 17.671875 61.125 8.828125 
Q 51.171875 0 30.078125 0 
L 9.8125 0 
z
" id="DejaVuSans-44"/>
    </defs>
    <g transform="translate(58.89048 35.290806)scale(0.102 -0.102)">
     <use xlink:href="#DejaVuSans-62"/>
     <use x="63.476562" xlink:href="#DejaVuSans-62"/>
     <use x="126.953125" xlink:href="#DejaVuSans-6f"/>
     <use x="188.134766" xlink:href="#DejaVuSans-62"/>
     <use x="251.611328" xlink:href="#DejaVuSans-20"/>
     <use x="283.398438" xlink:href="#DejaVuSans-66"/>
     <use x="318.603516" xlink:href="#DejaVuSans-31"/>
     <use x="382.226562" xlink:href="#DejaVuSans-2c"/>
     <use x="414.013672" xlink:href="#DejaVuSans-20"/>
     <use x="445.800781" xlink:href="#DejaVuSans-32"/>
     <use x="509.423828" xlink:href="#DejaVuSans-30"/>
     <use x="573.046875" xlink:href="#DejaVuSans-2d"/>
     <use x="609.130859" xlink:href="#DejaVuSans-44"/>
    </g>
    <!-- 51 targets: 100..1e-08 -->
    <defs>
     <path d="M 10.796875 72.90625 
L 49.515625 72.90625 
L 49.515625 64.59375 
L 19.828125 64.59375 
L 19.828125 46.734375 
Q 21.96875 47.46875 24.109375 47.828125 
Q 26.265625 48.1875 28.421875 48.1875 
Q 40.625 48.1875 47.75 41.5 
Q 54.890625 34.8125 54.890625 23.390625 
Q 54.890625 11.625 47.5625 5.09375 
Q 40.234375 -1.421875 26.90625 -1.421875 
Q 22.3125 -1.421875 17.546875 -0.640625 
Q 12.796875 0.140625 7.71875 1.703125 
L 7.71875 11.625 
Q 12.109375 9.234375 16.796875 8.0625 
Q 21.484375 6.890625 26.703125 6.890625 
Q 35.15625 6.890625 40.078125 11.328125 
Q 45.015625 15.765625 45.015625 23.390625 
Q 45.015625 31 40.078125 35.4375 
Q 35.15625 39.890625 26.703125 39.890625 
Q 22.75 39.890625 18.8125 39.015625 
Q 14.890625 38.140625 10.796875 36.28125 
z
" id="DejaVuSans-35"/>
     <path d="M 11.71875 12.40625 
L 22.015625 12.40625 
L 22.015625 0 
L 11.71875 0 
z
M 11.71875 51.703125 
L 22.015625 51.703125 
L 22.015625 39.3125 
L 11.71875 39.3125 
z
" id="DejaVuSans-3a"/>
    </defs>
    <g transform="translate(58.89048 46.712575)scale(0.102 -0.102)">
     <use xlink:href="#DejaVuSans-35"/>
     <use x="63.623047" xlink:href="#DejaVuSans-31"/>
     <use x="127.246094" xlink:href="#DejaVuSans-20"/>
     <use x="159.033203" xlink:href="#DejaVuSans-74"/>
     <use x="198.242188" xlink:href="#DejaVuSans-61"/>
     <use x="259.521484" xlink:href="#DejaVuSans-72"/>
     <use x="300.619141" xlink:href="#DejaVuSans-67"/>
     <use x="364.095703" xlink:href="#DejaVuSans-65"/>
     <use x="425.619141" xlink:href="#DejaVuSans-74"/>
     <use x="464.828125" xlink:href="#DejaVuSans-73"/>
     <use x="516.927734" xlink:href="#DejaVuSans-3a"/>
     <use x="550.619141" xlink:href="#DejaVuSans-20"/>
     <use x="582.40625" xlink:href="#DejaVuSans-31"/>
     <use x="646.029297" xlink:href="#DejaVuSans-30"/>
     <use x="709.652344" xlink:href="#DejaVuSans-30"/>
     <use x="773.275391" xlink:href="#DejaVuSans-2e"/>
     <use x="805.0625" xlink:href="#DejaVuSans-2e"/>
     <use x="836.849609" xlink:href="#DejaVuSans-31"/>
     <use x="900.472656" xlink:href="#DejaVuSans-65"/>
     <use x="961.996094" xlink:href="#DejaVuSans-2d"/>
     <use x="998.080078" xlink:href="#DejaVuSans-30"/>
     <use x="1061.703125" xlink:href="#DejaVuSans-38"/>
    </g>
    <!-- 15 instances -->
    <g transform="translate(58.89048 58.134344)scale(0.102 -0.102)">
     <use xlink:href="#DejaVuSans-31"/>
     <use x="63.623047" xlink:href="#DejaVuSans-35"/>
     <use x="127.246094" xlink:href="#DejaVuSans-20"/>
     <use x="159.033203" xlink:href="#DejaVuSans-69"/>
     <use x="186.816406" xlink:href="#DejaVuSans-6e"/>
     <use x="250.195312" xlink:href="#DejaVuSans-73"/>
     <use x="302.294922" xlink:href="#DejaVuSans-74"/>
     <use x="341.503906" xlink:href="#DejaVuSans-61"/>
     <use x="402.783203" xlink:href="#DejaVuSans-6e"/>
     <use x="466.162109" xlink:href="#DejaVuSans-63"/>
     <use x="521.142578" xlink:href="#DejaVuSans-65"/>
     <use x="582.666016" xlink:href="#DejaVuSans-73"/>
    </g>
   </g>
   <g id="text_17">
    <!-- v0.0.0 -->
    <g style="fill:#808080;" transform="translate(178.96275 290.099912)scale(0.1 -0.1)">
     <use xlink:href="#DejaVuSans-76"/>
     <use x="59.179688" xlink:href="#DejaVuSans-30"/>
     <use x="122.802734" xlink:href="#DejaVuSans-2e"/>
     <use x="154.589844" xlink:href="#DejaVuSans-30"/>
     <use x="218.212891" xlink:href="#DejaVuSans-2e"/>
     <use x="250" xlink:href="#DejaVuSans-30"/>
    </g>
   </g>
   <g id="text_18">
    <!-- 1 Sphere -->
    <defs>
     <path d="M 54.890625 33.015625 
L 54.890625 0 
L 45.90625 0 
L 45.90625 32.71875 
Q 45.90625 40.484375 42.875 44.328125 
Q 39.84375 48.1875 33.796875 48.1875 
Q 26.515625 48.1875 22.3125 43.546875 
Q 18.109375 38.921875 18.109375 30.90625 
L 18.109375 0 
L 9.078125 0 
L 9.078125 75.984375 
L 18.109375 75.984375 
L 18.109375 46.1875 
Q 21.34375 51.125 25.703125 53.5625 
Q 30.078125 56 35.796875 56 
Q 45.21875 56 50.046875 50.171875 
Q 54.890625 44.34375 54.890625 33.015625 
z
" id="DejaVuSans-68"/>
    </defs>
    <g transform="translate(149.654938 18.84)scale(0.2 -0.2)">
     <use xlink:href="#DejaVuSans-31"/>
     <use x="63.623047" xlink:href="#DejaVuSans-20"/>
     <use x="95.410156" xlink:href="#DejaVuSans-53"/>
     <use x="158.886719" xlink:href="#DejaVuSans-70"/>
     <use x="222.363281" xlink:href="#DejaVuSans-68"/>
     <use x="285.742188" xlink:href="#DejaVuSans-65"/>
     <use x="347.265625" xlink:href="#DejaVuSans-72"/>
     <use x="388.347656" xlink:href="#DejaVuSans-65"/>
    </g>
   </g>
  </g>
 </g>
 <defs>
  <clipPath id="p13da47266a">
   <rect height="270.04" width="277.048" x="56.12" y="24.84"/>
  </clipPath>
 </defs>
</svg>
