<?xml version="1.0" encoding="utf-8" standalone="no"?>
<!DOCTYPE svg PUBLIC "-//W3C//DTD SVG 1.1//EN"
  "http://www.w3.org/Graphics/SVG/1.1/DTD/svg11.dtd">
<!-- Created with matplotlib (http://matplotlib.org/) -->
<svg height="345pt" version="1.1" viewBox="0 0 460 345" width="460pt" xmlns="http://www.w3.org/2000/svg" xmlns:xlink="http://www.w3.org/1999/xlink">
 <defs>
  <style type="text/css">
*{stroke-linecap:butt;stroke-linejoin:round;}
  </style>
 </defs>
 <g id="figure_1">
  <g id="patch_1">
   <path d="M 0 345.6 
L 460.8 345.6 
L 460.8 0 
L 0 0 
z
" style="fill:#ffffff;"/>
  </g>
  <g id="axes_1">
   <g id="patch_2">
    <path d="M 56.12 294.88 
L 333.168 294.88 
L 333.168 24.84 
L 56.12 24.84 
z
" style="fill:#ffffff;"/>
   </g>
   <g id="line2d_1">
    <path d="M 76.641893 294.88 
L 76.641893 289.637523 
L 85.732 289.637523 
L 85.732 284.395046 
L 90.05175 284.395046 
L 90.05175 279.152568 
L 90.753425 279.152568 
L 90.753425 273.910091 
L 92.287186 273.910091 
L 92.287186 268.667614 
L 105.020098 268.667614 
L 105.020098 263.425137 
L 118.279397 263.425137 
L 118.279397 258.18266 
L 128.596932 258.18266 
L 128.596932 252.940182 
L 131.093782 252.940182 
L 131.093782 247.697705 
L 134.322384 247.697705 
L 134.322384 242.455228 
L 143.473058 242.455228 
L 143.473058 237.212751 
L 152.714537 237.212751 
L 152.714537 231.970274 
L 155.102215 231.970274 
L 155.102215 226.727797 
L 155.514869 226.727797 
L 155.514869 221.485319 
L 159.558827 221.485319 
L 159.558827 216.242842 
L 159.923235 216.242842 
L 159.923235 211.000365 
L 160.71987 211.000365 
L 160.71987 205.757888 
L 161.432494 205.757888 
L 161.432494 200.515411 
L 161.763305 200.515411 
L 161.763305 195.272933 
L 162.231768 195.272933 
L 162.231768 190.030456 
L 163.277615 190.030456 
L 163.277615 184.787979 
L 163.361684 184.787979 
L 163.361684 179.545502 
L 163.418617 179.545502 
L 163.418617 69.453481 
L 164.032738 69.453481 
L 164.032738 64.211004 
L 164.081061 64.211004 
L 164.081061 58.968526 
L 164.228411 58.968526 
L 164.228411 53.726049 
L 165.168661 53.726049 
L 165.168661 48.483572 
L 165.399626 48.483572 
L 165.399626 43.241095 
L 165.527269 43.241095 
L 165.527269 37.998618 
L 165.609878 37.998618 
L 165.609878 32.756141 
L 165.765167 32.756141 
L 165.765167 27.513663 
L 333.168 27.513663 
" style="fill:none;stroke:#f5deb3;stroke-linecap:square;stroke-width:4;"/>
   </g>
   <g id="line2d_2">
    <defs>
     <path d="M -0 7.778175 
L 7.778175 0 
L 0 -7.778175 
L -7.778175 -0 
z
" id="m0ff2055b1e" style="stroke:#f5deb3;stroke-linejoin:miter;stroke-width:1.5;"/>
    </defs>
    <g>
     <use style="fill:#f5deb3;stroke:#f5deb3;stroke-linejoin:miter;stroke-width:1.5;" x="163.361684" xlink:href="#m0ff2055b1e" y="179.545502"/>
     <use style="fill:#f5deb3;stroke:#f5deb3;stroke-linejoin:miter;stroke-width:1.5;" x="165.609878" xlink:href="#m0ff2055b1e" y="32.756141"/>
     <use style="fill:#f5deb3;stroke:#f5deb3;stroke-linejoin:miter;stroke-width:1.5;" x="165.765167" xlink:href="#m0ff2055b1e" y="27.513663"/>
     <use style="fill:#f5deb3;stroke:#f5deb3;stroke-linejoin:miter;stroke-width:1.5;" x="165.765167" xlink:href="#m0ff2055b1e" y="27.513663"/>
     <use style="fill:#f5deb3;stroke:#f5deb3;stroke-linejoin:miter;stroke-width:1.5;" x="333.168" xlink:href="#m0ff2055b1e" y="27.513663"/>
    </g>
   </g>
   <g id="line2d_3">
    <path style="fill:none;stroke:#f5deb3;stroke-linecap:square;stroke-width:4;"/>
    <g/>
   </g>
   <g id="line2d_4">
    <path d="M 333.168 27.513663 
L 363.64328 32.86099 
" style="fill:none;stroke:#f5deb3;stroke-linecap:square;stroke-width:4;"/>
    <g>
     <use style="fill:#f5deb3;stroke:#f5deb3;stroke-linejoin:miter;stroke-width:1.5;" x="333.168" xlink:href="#m0ff2055b1e" y="27.513663"/>
     <use style="fill:#f5deb3;stroke:#f5deb3;stroke-linejoin:miter;stroke-width:1.5;" x="363.64328" xlink:href="#m0ff2055b1e" y="32.86099"/>
    </g>
   </g>
   <g id="matplotlib.axis_1">
    <g id="xtick_1">
     <g id="line2d_5">
      <path clip-path="url(#pd45c1355f8)" d="M 56.12 294.88 
L 56.12 24.84 
" style="fill:none;stroke:#b0b0b0;stroke-linecap:square;stroke-width:0.8;"/>
     </g>
     <g id="line2d_6">
      <defs>
       <path d="M 0 0 
L 0 3.5 
" id="mc9096eb2a1" style="stroke:#000000;stroke-width:0.8;"/>
      </defs>
      <g>
       <use style="stroke:#000000;stroke-width:0.8;" x="56.12" xlink:href="#mc9096eb2a1" y="294.88"/>
      </g>
     </g>
     <g id="text_1">
      <!-- 0 -->
      <defs>
       <path d="M 31.78125 66.40625 
Q 24.171875 66.40625 20.328125 58.90625 
Q 16.5 51.421875 16.5 36.375 
Q 16.5 21.390625 20.328125 13.890625 
Q 24.171875 6.390625 31.78125 6.390625 
Q 39.453125 6.390625 43.28125 13.890625 
Q 47.125 21.390625 47.125 36.375 
Q 47.125 51.421875 43.28125 58.90625 
Q 39.453125 66.40625 31.78125 66.40625 
z
M 31.78125 74.21875 
Q 44.046875 74.21875 50.515625 64.515625 
Q 56.984375 54.828125 56.984375 36.375 
Q 56.984375 17.96875 50.515625 8.265625 
Q 44.046875 -1.421875 31.78125 -1.421875 
Q 19.53125 -1.421875 13.0625 8.265625 
Q 6.59375 17.96875 6.59375 36.375 
Q 6.59375 54.828125 13.0625 64.515625 
Q 19.53125 74.21875 31.78125 74.21875 
z
" id="DejaVuSans-30"/>
      </defs>
      <g transform="translate(49.7575 317.076875)scale(0.2 -0.2)">
       <use xlink:href="#DejaVuSans-30"/>
      </g>
     </g>
    </g>
    <g id="xtick_2">
     <g id="line2d_7">
      <path clip-path="url(#pd45c1355f8)" d="M 135.276571 294.88 
L 135.276571 24.84 
" style="fill:none;stroke:#b0b0b0;stroke-linecap:square;stroke-width:0.8;"/>
     </g>
     <g id="line2d_8">
      <g>
       <use style="stroke:#000000;stroke-width:0.8;" x="135.276571" xlink:href="#mc9096eb2a1" y="294.88"/>
      </g>
     </g>
     <g id="text_2">
      <!-- 2 -->
      <defs>
       <path d="M 19.1875 8.296875 
L 53.609375 8.296875 
L 53.609375 0 
L 7.328125 0 
L 7.328125 8.296875 
Q 12.9375 14.109375 22.625 23.890625 
Q 32.328125 33.6875 34.8125 36.53125 
Q 39.546875 41.84375 41.421875 45.53125 
Q 43.3125 49.21875 43.3125 52.78125 
Q 43.3125 58.59375 39.234375 62.25 
Q 35.15625 65.921875 28.609375 65.921875 
Q 23.96875 65.921875 18.8125 64.3125 
Q 13.671875 62.703125 7.8125 59.421875 
L 7.8125 69.390625 
Q 13.765625 71.78125 18.9375 73 
Q 24.125 74.21875 28.421875 74.21875 
Q 39.75 74.21875 46.484375 68.546875 
Q 53.21875 62.890625 53.21875 53.421875 
Q 53.21875 48.921875 51.53125 44.890625 
Q 49.859375 40.875 45.40625 35.40625 
Q 44.1875 33.984375 37.640625 27.21875 
Q 31.109375 20.453125 19.1875 8.296875 
z
" id="DejaVuSans-32"/>
      </defs>
      <g transform="translate(128.914071 317.076875)scale(0.2 -0.2)">
       <use xlink:href="#DejaVuSans-32"/>
      </g>
     </g>
    </g>
    <g id="xtick_3">
     <g id="line2d_9">
      <path clip-path="url(#pd45c1355f8)" d="M 214.433143 294.88 
L 214.433143 24.84 
" style="fill:none;stroke:#b0b0b0;stroke-linecap:square;stroke-width:0.8;"/>
     </g>
     <g id="line2d_10">
      <g>
       <use style="stroke:#000000;stroke-width:0.8;" x="214.433143" xlink:href="#mc9096eb2a1" y="294.88"/>
      </g>
     </g>
     <g id="text_3">
      <!-- 4 -->
      <defs>
       <path d="M 37.796875 64.3125 
L 12.890625 25.390625 
L 37.796875 25.390625 
z
M 35.203125 72.90625 
L 47.609375 72.90625 
L 47.609375 25.390625 
L 58.015625 25.390625 
L 58.015625 17.1875 
L 47.609375 17.1875 
L 47.609375 0 
L 37.796875 0 
L 37.796875 17.1875 
L 4.890625 17.1875 
L 4.890625 26.703125 
z
" id="DejaVuSans-34"/>
      </defs>
      <g transform="translate(208.070643 317.076875)scale(0.2 -0.2)">
       <use xlink:href="#DejaVuSans-34"/>
      </g>
     </g>
    </g>
    <g id="xtick_4">
     <g id="line2d_11">
      <path clip-path="url(#pd45c1355f8)" d="M 293.589714 294.88 
L 293.589714 24.84 
" style="fill:none;stroke:#b0b0b0;stroke-linecap:square;stroke-width:0.8;"/>
     </g>
     <g id="line2d_12">
      <g>
       <use style="stroke:#000000;stroke-width:0.8;" x="293.589714" xlink:href="#mc9096eb2a1" y="294.88"/>
      </g>
     </g>
     <g id="text_4">
      <!-- 6 -->
      <defs>
       <path d="M 33.015625 40.375 
Q 26.375 40.375 22.484375 35.828125 
Q 18.609375 31.296875 18.609375 23.390625 
Q 18.609375 15.53125 22.484375 10.953125 
Q 26.375 6.390625 33.015625 6.390625 
Q 39.65625 6.390625 43.53125 10.953125 
Q 47.40625 15.53125 47.40625 23.390625 
Q 47.40625 31.296875 43.53125 35.828125 
Q 39.65625 40.375 33.015625 40.375 
z
M 52.59375 71.296875 
L 52.59375 62.3125 
Q 48.875 64.0625 45.09375 64.984375 
Q 41.3125 65.921875 37.59375 65.921875 
Q 27.828125 65.921875 22.671875 59.328125 
Q 17.53125 52.734375 16.796875 39.40625 
Q 19.671875 43.65625 24.015625 45.921875 
Q 28.375 48.1875 33.59375 48.1875 
Q 44.578125 48.1875 50.953125 41.515625 
Q 57.328125 34.859375 57.328125 23.390625 
Q 57.328125 12.15625 50.6875 5.359375 
Q 44.046875 -1.421875 33.015625 -1.421875 
Q 20.359375 -1.421875 13.671875 8.265625 
Q 6.984375 17.96875 6.984375 36.375 
Q 6.984375 53.65625 15.1875 63.9375 
Q 23.390625 74.21875 37.203125 74.21875 
Q 40.921875 74.21875 44.703125 73.484375 
Q 48.484375 72.75 52.59375 71.296875 
z
" id="DejaVuSans-36"/>
      </defs>
      <g transform="translate(287.227214 317.076875)scale(0.2 -0.2)">
       <use xlink:href="#DejaVuSans-36"/>
      </g>
     </g>
    </g>
    <g id="xtick_5">
     <g id="line2d_13">
      <path clip-path="url(#pd45c1355f8)" d="M 56.12 294.88 
L 56.12 24.84 
" style="fill:none;stroke:#b0b0b0;stroke-linecap:square;stroke-width:0.8;"/>
     </g>
     <g id="line2d_14">
      <defs>
       <path d="M 0 0 
L 0 2 
" id="m2f667273d7" style="stroke:#000000;stroke-width:0.6;"/>
      </defs>
      <g>
       <use style="stroke:#000000;stroke-width:0.6;" x="56.12" xlink:href="#m2f667273d7" y="294.88"/>
      </g>
     </g>
    </g>
    <g id="xtick_6">
     <g id="line2d_15">
      <path clip-path="url(#pd45c1355f8)" d="M 95.698286 294.88 
L 95.698286 24.84 
" style="fill:none;stroke:#b0b0b0;stroke-linecap:square;stroke-width:0.8;"/>
     </g>
     <g id="line2d_16">
      <g>
       <use style="stroke:#000000;stroke-width:0.6;" x="95.698286" xlink:href="#m2f667273d7" y="294.88"/>
      </g>
     </g>
    </g>
    <g id="xtick_7">
     <g id="line2d_17">
      <path clip-path="url(#pd45c1355f8)" d="M 135.276571 294.88 
L 135.276571 24.84 
" style="fill:none;stroke:#b0b0b0;stroke-linecap:square;stroke-width:0.8;"/>
     </g>
     <g id="line2d_18">
      <g>
       <use style="stroke:#000000;stroke-width:0.6;" x="135.276571" xlink:href="#m2f667273d7" y="294.88"/>
      </g>
     </g>
    </g>
    <g id="xtick_8">
     <g id="line2d_19">
      <path clip-path="url(#pd45c1355f8)" d="M 174.854857 294.88 
L 174.854857 24.84 
" style="fill:none;stroke:#b0b0b0;stroke-linecap:square;stroke-width:0.8;"/>
     </g>
     <g id="line2d_20">
      <g>
       <use style="stroke:#000000;stroke-width:0.6;" x="174.854857" xlink:href="#m2f667273d7" y="294.88"/>
      </g>
     </g>
    </g>
    <g id="xtick_9">
     <g id="line2d_21">
      <path clip-path="url(#pd45c1355f8)" d="M 214.433143 294.88 
L 214.433143 24.84 
" style="fill:none;stroke:#b0b0b0;stroke-linecap:square;stroke-width:0.8;"/>
     </g>
     <g id="line2d_22">
      <g>
       <use style="stroke:#000000;stroke-width:0.6;" x="214.433143" xlink:href="#m2f667273d7" y="294.88"/>
      </g>
     </g>
    </g>
    <g id="xtick_10">
     <g id="line2d_23">
      <path clip-path="url(#pd45c1355f8)" d="M 254.011429 294.88 
L 254.011429 24.84 
" style="fill:none;stroke:#b0b0b0;stroke-linecap:square;stroke-width:0.8;"/>
     </g>
     <g id="line2d_24">
      <g>
       <use style="stroke:#000000;stroke-width:0.6;" x="254.011429" xlink:href="#m2f667273d7" y="294.88"/>
      </g>
     </g>
    </g>
    <g id="xtick_11">
     <g id="line2d_25">
      <path clip-path="url(#pd45c1355f8)" d="M 293.589714 294.88 
L 293.589714 24.84 
" style="fill:none;stroke:#b0b0b0;stroke-linecap:square;stroke-width:0.8;"/>
     </g>
     <g id="line2d_26">
      <g>
       <use style="stroke:#000000;stroke-width:0.6;" x="293.589714" xlink:href="#m2f667273d7" y="294.88"/>
      </g>
     </g>
    </g>
    <g id="xtick_12">
     <g id="line2d_27">
      <path clip-path="url(#pd45c1355f8)" d="M 333.168 294.88 
L 333.168 24.84 
" style="fill:none;stroke:#b0b0b0;stroke-linecap:square;stroke-width:0.8;"/>
     </g>
     <g id="line2d_28">
      <g>
       <use style="stroke:#000000;stroke-width:0.6;" x="333.168" xlink:href="#m2f667273d7" y="294.88"/>
      </g>
     </g>
    </g>
    <g id="text_5">
     <!-- log10(# f-evals / dimension) -->
     <defs>
      <path d="M 9.421875 75.984375 
L 18.40625 75.984375 
L 18.40625 0 
L 9.421875 0 
z
" id="DejaVuSans-6c"/>
      <path d="M 30.609375 48.390625 
Q 23.390625 48.390625 19.1875 42.75 
Q 14.984375 37.109375 14.984375 27.296875 
Q 14.984375 17.484375 19.15625 11.84375 
Q 23.34375 6.203125 30.609375 6.203125 
Q 37.796875 6.203125 41.984375 11.859375 
Q 46.1875 17.53125 46.1875 27.296875 
Q 46.1875 37.015625 41.984375 42.703125 
Q 37.796875 48.390625 30.609375 48.390625 
z
M 30.609375 56 
Q 42.328125 56 49.015625 48.375 
Q 55.71875 40.765625 55.71875 27.296875 
Q 55.71875 13.875 49.015625 6.21875 
Q 42.328125 -1.421875 30.609375 -1.421875 
Q 18.84375 -1.421875 12.171875 6.21875 
Q 5.515625 13.875 5.515625 27.296875 
Q 5.515625 40.765625 12.171875 48.375 
Q 18.84375 56 30.609375 56 
z
" id="DejaVuSans-6f"/>
      <path d="M 45.40625 27.984375 
Q 45.40625 37.75 41.375 43.109375 
Q 37.359375 48.484375 30.078125 48.484375 
Q 22.859375 48.484375 18.828125 43.109375 
Q 14.796875 37.75 14.796875 27.984375 
Q 14.796875 18.265625 18.828125 12.890625 
Q 22.859375 7.515625 30.078125 7.515625 
Q 37.359375 7.515625 41.375 12.890625 
Q 45.40625 18.265625 45.40625 27.984375 
z
M 54.390625 6.78125 
Q 54.390625 -7.171875 48.1875 -13.984375 
Q 42 -20.796875 29.203125 -20.796875 
Q 24.46875 -20.796875 20.265625 -20.09375 
Q 16.0625 -19.390625 12.109375 -17.921875 
L 12.109375 -9.1875 
Q 16.0625 -11.328125 19.921875 -12.34375 
Q 23.78125 -13.375 27.78125 -13.375 
Q 36.625 -13.375 41.015625 -8.765625 
Q 45.40625 -4.15625 45.40625 5.171875 
L 45.40625 9.625 
Q 42.625 4.78125 38.28125 2.390625 
Q 33.9375 0 27.875 0 
Q 17.828125 0 11.671875 7.65625 
Q 5.515625 15.328125 5.515625 27.984375 
Q 5.515625 40.671875 11.671875 48.328125 
Q 17.828125 56 27.875 56 
Q 33.9375 56 38.28125 53.609375 
Q 42.625 51.21875 45.40625 46.390625 
L 45.40625 54.6875 
L 54.390625 54.6875 
z
" id="DejaVuSans-67"/>
      <path d="M 12.40625 8.296875 
L 28.515625 8.296875 
L 28.515625 63.921875 
L 10.984375 60.40625 
L 10.984375 69.390625 
L 28.421875 72.90625 
L 38.28125 72.90625 
L 38.28125 8.296875 
L 54.390625 8.296875 
L 54.390625 0 
L 12.40625 0 
z
" id="DejaVuSans-31"/>
      <path d="M 31 75.875 
Q 24.46875 64.65625 21.28125 53.65625 
Q 18.109375 42.671875 18.109375 31.390625 
Q 18.109375 20.125 21.3125 9.0625 
Q 24.515625 -2 31 -13.1875 
L 23.1875 -13.1875 
Q 15.875 -1.703125 12.234375 9.375 
Q 8.59375 20.453125 8.59375 31.390625 
Q 8.59375 42.28125 12.203125 53.3125 
Q 15.828125 64.359375 23.1875 75.875 
z
" id="DejaVuSans-28"/>
      <path d="M 51.125 44 
L 36.921875 44 
L 32.8125 27.6875 
L 47.125 27.6875 
z
M 43.796875 71.78125 
L 38.71875 51.515625 
L 52.984375 51.515625 
L 58.109375 71.78125 
L 65.921875 71.78125 
L 60.890625 51.515625 
L 76.125 51.515625 
L 76.125 44 
L 58.984375 44 
L 54.984375 27.6875 
L 70.515625 27.6875 
L 70.515625 20.21875 
L 53.078125 20.21875 
L 48 0 
L 40.1875 0 
L 45.21875 20.21875 
L 30.90625 20.21875 
L 25.875 0 
L 18.015625 0 
L 23.09375 20.21875 
L 7.71875 20.21875 
L 7.71875 27.6875 
L 24.90625 27.6875 
L 29 44 
L 13.28125 44 
L 13.28125 51.515625 
L 30.90625 51.515625 
L 35.890625 71.78125 
z
" id="DejaVuSans-23"/>
      <path id="DejaVuSans-20"/>
      <path d="M 37.109375 75.984375 
L 37.109375 68.5 
L 28.515625 68.5 
Q 23.6875 68.5 21.796875 66.546875 
Q 19.921875 64.59375 19.921875 59.515625 
L 19.921875 54.6875 
L 34.71875 54.6875 
L 34.71875 47.703125 
L 19.921875 47.703125 
L 19.921875 0 
L 10.890625 0 
L 10.890625 47.703125 
L 2.296875 47.703125 
L 2.296875 54.6875 
L 10.890625 54.6875 
L 10.890625 58.5 
Q 10.890625 67.625 15.140625 71.796875 
Q 19.390625 75.984375 28.609375 75.984375 
z
" id="DejaVuSans-66"/>
      <path d="M 4.890625 31.390625 
L 31.203125 31.390625 
L 31.203125 23.390625 
L 4.890625 23.390625 
z
" id="DejaVuSans-2d"/>
      <path d="M 56.203125 29.59375 
L 56.203125 25.203125 
L 14.890625 25.203125 
Q 15.484375 15.921875 20.484375 11.0625 
Q 25.484375 6.203125 34.421875 6.203125 
Q 39.59375 6.203125 44.453125 7.46875 
Q 49.3125 8.734375 54.109375 11.28125 
L 54.109375 2.78125 
Q 49.265625 0.734375 44.1875 -0.34375 
Q 39.109375 -1.421875 33.890625 -1.421875 
Q 20.796875 -1.421875 13.15625 6.1875 
Q 5.515625 13.8125 5.515625 26.8125 
Q 5.515625 40.234375 12.765625 48.109375 
Q 20.015625 56 32.328125 56 
Q 43.359375 56 49.78125 48.890625 
Q 56.203125 41.796875 56.203125 29.59375 
z
M 47.21875 32.234375 
Q 47.125 39.59375 43.09375 43.984375 
Q 39.0625 48.390625 32.421875 48.390625 
Q 24.90625 48.390625 20.390625 44.140625 
Q 15.875 39.890625 15.1875 32.171875 
z
" id="DejaVuSans-65"/>
      <path d="M 2.984375 54.6875 
L 12.5 54.6875 
L 29.59375 8.796875 
L 46.6875 54.6875 
L 56.203125 54.6875 
L 35.6875 0 
L 23.484375 0 
z
" id="DejaVuSans-76"/>
      <path d="M 34.28125 27.484375 
Q 23.390625 27.484375 19.1875 25 
Q 14.984375 22.515625 14.984375 16.5 
Q 14.984375 11.71875 18.140625 8.90625 
Q 21.296875 6.109375 26.703125 6.109375 
Q 34.1875 6.109375 38.703125 11.40625 
Q 43.21875 16.703125 43.21875 25.484375 
L 43.21875 27.484375 
z
M 52.203125 31.203125 
L 52.203125 0 
L 43.21875 0 
L 43.21875 8.296875 
Q 40.140625 3.328125 35.546875 0.953125 
Q 30.953125 -1.421875 24.3125 -1.421875 
Q 15.921875 -1.421875 10.953125 3.296875 
Q 6 8.015625 6 15.921875 
Q 6 25.140625 12.171875 29.828125 
Q 18.359375 34.515625 30.609375 34.515625 
L 43.21875 34.515625 
L 43.21875 35.40625 
Q 43.21875 41.609375 39.140625 45 
Q 35.0625 48.390625 27.6875 48.390625 
Q 23 48.390625 18.546875 47.265625 
Q 14.109375 46.140625 10.015625 43.890625 
L 10.015625 52.203125 
Q 14.9375 54.109375 19.578125 55.046875 
Q 24.21875 56 28.609375 56 
Q 40.484375 56 46.34375 49.84375 
Q 52.203125 43.703125 52.203125 31.203125 
z
" id="DejaVuSans-61"/>
      <path d="M 44.28125 53.078125 
L 44.28125 44.578125 
Q 40.484375 46.53125 36.375 47.5 
Q 32.28125 48.484375 27.875 48.484375 
Q 21.1875 48.484375 17.84375 46.4375 
Q 14.5 44.390625 14.5 40.28125 
Q 14.5 37.15625 16.890625 35.375 
Q 19.28125 33.59375 26.515625 31.984375 
L 29.59375 31.296875 
Q 39.15625 29.25 43.1875 25.515625 
Q 47.21875 21.78125 47.21875 15.09375 
Q 47.21875 7.46875 41.1875 3.015625 
Q 35.15625 -1.421875 24.609375 -1.421875 
Q 20.21875 -1.421875 15.453125 -0.5625 
Q 10.6875 0.296875 5.421875 2 
L 5.421875 11.28125 
Q 10.40625 8.6875 15.234375 7.390625 
Q 20.0625 6.109375 24.8125 6.109375 
Q 31.15625 6.109375 34.5625 8.28125 
Q 37.984375 10.453125 37.984375 14.40625 
Q 37.984375 18.0625 35.515625 20.015625 
Q 33.0625 21.96875 24.703125 23.78125 
L 21.578125 24.515625 
Q 13.234375 26.265625 9.515625 29.90625 
Q 5.8125 33.546875 5.8125 39.890625 
Q 5.8125 47.609375 11.28125 51.796875 
Q 16.75 56 26.8125 56 
Q 31.78125 56 36.171875 55.265625 
Q 40.578125 54.546875 44.28125 53.078125 
z
" id="DejaVuSans-73"/>
      <path d="M 25.390625 72.90625 
L 33.6875 72.90625 
L 8.296875 -9.28125 
L 0 -9.28125 
z
" id="DejaVuSans-2f"/>
      <path d="M 45.40625 46.390625 
L 45.40625 75.984375 
L 54.390625 75.984375 
L 54.390625 0 
L 45.40625 0 
L 45.40625 8.203125 
Q 42.578125 3.328125 38.25 0.953125 
Q 33.9375 -1.421875 27.875 -1.421875 
Q 17.96875 -1.421875 11.734375 6.484375 
Q 5.515625 14.40625 5.515625 27.296875 
Q 5.515625 40.1875 11.734375 48.09375 
Q 17.96875 56 27.875 56 
Q 33.9375 56 38.25 53.625 
Q 42.578125 51.265625 45.40625 46.390625 
z
M 14.796875 27.296875 
Q 14.796875 17.390625 18.875 11.75 
Q 22.953125 6.109375 30.078125 6.109375 
Q 37.203125 6.109375 41.296875 11.75 
Q 45.40625 17.390625 45.40625 27.296875 
Q 45.40625 37.203125 41.296875 42.84375 
Q 37.203125 48.484375 30.078125 48.484375 
Q 22.953125 48.484375 18.875 42.84375 
Q 14.796875 37.203125 14.796875 27.296875 
z
" id="DejaVuSans-64"/>
      <path d="M 9.421875 54.6875 
L 18.40625 54.6875 
L 18.40625 0 
L 9.421875 0 
z
M 9.421875 75.984375 
L 18.40625 75.984375 
L 18.40625 64.59375 
L 9.421875 64.59375 
z
" id="DejaVuSans-69"/>
      <path d="M 52 44.1875 
Q 55.375 50.25 60.0625 53.125 
Q 64.75 56 71.09375 56 
Q 79.640625 56 84.28125 50.015625 
Q 88.921875 44.046875 88.921875 33.015625 
L 88.921875 0 
L 79.890625 0 
L 79.890625 32.71875 
Q 79.890625 40.578125 77.09375 44.375 
Q 74.3125 48.1875 68.609375 48.1875 
Q 61.625 48.1875 57.5625 43.546875 
Q 53.515625 38.921875 53.515625 30.90625 
L 53.515625 0 
L 44.484375 0 
L 44.484375 32.71875 
Q 44.484375 40.625 41.703125 44.40625 
Q 38.921875 48.1875 33.109375 48.1875 
Q 26.21875 48.1875 22.15625 43.53125 
Q 18.109375 38.875 18.109375 30.90625 
L 18.109375 0 
L 9.078125 0 
L 9.078125 54.6875 
L 18.109375 54.6875 
L 18.109375 46.1875 
Q 21.1875 51.21875 25.484375 53.609375 
Q 29.78125 56 35.6875 56 
Q 41.65625 56 45.828125 52.96875 
Q 50 49.953125 52 44.1875 
z
" id="DejaVuSans-6d"/>
      <path d="M 54.890625 33.015625 
L 54.890625 0 
L 45.90625 0 
L 45.90625 32.71875 
Q 45.90625 40.484375 42.875 44.328125 
Q 39.84375 48.1875 33.796875 48.1875 
Q 26.515625 48.1875 22.3125 43.546875 
Q 18.109375 38.921875 18.109375 30.90625 
L 18.109375 0 
L 9.078125 0 
L 9.078125 54.6875 
L 18.109375 54.6875 
L 18.109375 46.1875 
Q 21.34375 51.125 25.703125 53.5625 
Q 30.078125 56 35.796875 56 
Q 45.21875 56 50.046875 50.171875 
Q 54.890625 44.34375 54.890625 33.015625 
z
" id="DejaVuSans-6e"/>
      <path d="M 8.015625 75.875 
L 15.828125 75.875 
Q 23.140625 64.359375 26.78125 53.3125 
Q 30.421875 42.28125 30.421875 31.390625 
Q 30.421875 20.453125 26.78125 9.375 
Q 23.140625 -1.703125 15.828125 -13.1875 
L 8.015625 -13.1875 
Q 14.5 -2 17.703125 9.0625 
Q 20.90625 20.125 20.90625 31.390625 
Q 20.90625 42.671875 17.703125 53.65625 
Q 14.5 64.65625 8.015625 75.875 
z
" id="DejaVuSans-29"/>
     </defs>
     <g transform="translate(73.803219 338.153594)scale(0.17 -0.17)">
      <use xlink:href="#DejaVuSans-6c"/>
      <use x="27.783203" xlink:href="#DejaVuSans-6f"/>
      <use x="88.964844" xlink:href="#DejaVuSans-67"/>
      <use x="152.441406" xlink:href="#DejaVuSans-31"/>
      <use x="216.064453" xlink:href="#DejaVuSans-30"/>
      <use x="279.6875" xlink:href="#DejaVuSans-28"/>
      <use x="318.701172" xlink:href="#DejaVuSans-23"/>
      <use x="402.490234" xlink:href="#DejaVuSans-20"/>
      <use x="434.277344" xlink:href="#DejaVuSans-66"/>
      <use x="469.404297" xlink:href="#DejaVuSans-2d"/>
      <use x="505.488281" xlink:href="#DejaVuSans-65"/>
      <use x="567.011719" xlink:href="#DejaVuSans-76"/>
      <use x="626.191406" xlink:href="#DejaVuSans-61"/>
      <use x="687.470703" xlink:href="#DejaVuSans-6c"/>
      <use x="715.253906" xlink:href="#DejaVuSans-73"/>
      <use x="767.353516" xlink:href="#DejaVuSans-20"/>
      <use x="799.140625" xlink:href="#DejaVuSans-2f"/>
      <use x="832.832031" xlink:href="#DejaVuSans-20"/>
      <use x="864.619141" xlink:href="#DejaVuSans-64"/>
      <use x="928.095703" xlink:href="#DejaVuSans-69"/>
      <use x="955.878906" xlink:href="#DejaVuSans-6d"/>
      <use x="1053.291016" xlink:href="#DejaVuSans-65"/>
      <use x="1114.814453" xlink:href="#DejaVuSans-6e"/>
      <use x="1178.193359" xlink:href="#DejaVuSans-73"/>
      <use x="1230.292969" xlink:href="#DejaVuSans-69"/>
      <use x="1258.076172" xlink:href="#DejaVuSans-6f"/>
      <use x="1319.257812" xlink:href="#DejaVuSans-6e"/>
      <use x="1382.636719" xlink:href="#DejaVuSans-29"/>
     </g>
    </g>
   </g>
   <g id="matplotlib.axis_2">
    <g id="ytick_1">
     <g id="line2d_29">
      <path clip-path="url(#pd45c1355f8)" d="M 56.12 294.88 
L 333.168 294.88 
" style="fill:none;stroke:#b0b0b0;stroke-linecap:square;stroke-width:0.8;"/>
     </g>
     <g id="line2d_30">
      <defs>
       <path d="M 0 0 
L -3.5 0 
" id="m23f805a2fe" style="stroke:#000000;stroke-width:0.8;"/>
      </defs>
      <g>
       <use style="stroke:#000000;stroke-width:0.8;" x="56.12" xlink:href="#m23f805a2fe" y="294.88"/>
      </g>
     </g>
     <g id="text_6">
      <!-- 0.0 -->
      <defs>
       <path d="M 10.6875 12.40625 
L 21 12.40625 
L 21 0 
L 10.6875 0 
z
" id="DejaVuSans-2e"/>
      </defs>
      <g transform="translate(23.675 300.95875)scale(0.16 -0.16)">
       <use xlink:href="#DejaVuSans-30"/>
       <use x="63.623047" xlink:href="#DejaVuSans-2e"/>
       <use x="95.410156" xlink:href="#DejaVuSans-30"/>
      </g>
     </g>
    </g>
    <g id="ytick_2">
     <g id="line2d_31">
      <path clip-path="url(#pd45c1355f8)" d="M 56.12 241.406733 
L 333.168 241.406733 
" style="fill:none;stroke:#b0b0b0;stroke-linecap:square;stroke-width:0.8;"/>
     </g>
     <g id="line2d_32">
      <g>
       <use style="stroke:#000000;stroke-width:0.8;" x="56.12" xlink:href="#m23f805a2fe" y="241.406733"/>
      </g>
     </g>
     <g id="text_7">
      <!-- 0.2 -->
      <g transform="translate(23.675 247.485483)scale(0.16 -0.16)">
       <use xlink:href="#DejaVuSans-30"/>
       <use x="63.623047" xlink:href="#DejaVuSans-2e"/>
       <use x="95.410156" xlink:href="#DejaVuSans-32"/>
      </g>
     </g>
    </g>
    <g id="ytick_3">
     <g id="line2d_33">
      <path clip-path="url(#pd45c1355f8)" d="M 56.12 187.933465 
L 333.168 187.933465 
" style="fill:none;stroke:#b0b0b0;stroke-linecap:square;stroke-width:0.8;"/>
     </g>
     <g id="line2d_34">
      <g>
       <use style="stroke:#000000;stroke-width:0.8;" x="56.12" xlink:href="#m23f805a2fe" y="187.933465"/>
      </g>
     </g>
     <g id="text_8">
      <!-- 0.4 -->
      <g transform="translate(23.675 194.012215)scale(0.16 -0.16)">
       <use xlink:href="#DejaVuSans-30"/>
       <use x="63.623047" xlink:href="#DejaVuSans-2e"/>
       <use x="95.410156" xlink:href="#DejaVuSans-34"/>
      </g>
     </g>
    </g>
    <g id="ytick_4">
     <g id="line2d_35">
      <path clip-path="url(#pd45c1355f8)" d="M 56.12 134.460198 
L 333.168 134.460198 
" style="fill:none;stroke:#b0b0b0;stroke-linecap:square;stroke-width:0.8;"/>
     </g>
     <g id="line2d_36">
      <g>
       <use style="stroke:#000000;stroke-width:0.8;" x="56.12" xlink:href="#m23f805a2fe" y="134.460198"/>
      </g>
     </g>
     <g id="text_9">
      <!-- 0.6 -->
      <g transform="translate(23.675 140.538948)scale(0.16 -0.16)">
       <use xlink:href="#DejaVuSans-30"/>
       <use x="63.623047" xlink:href="#DejaVuSans-2e"/>
       <use x="95.410156" xlink:href="#DejaVuSans-36"/>
      </g>
     </g>
    </g>
    <g id="ytick_5">
     <g id="line2d_37">
      <path clip-path="url(#pd45c1355f8)" d="M 56.12 80.986931 
L 333.168 80.986931 
" style="fill:none;stroke:#b0b0b0;stroke-linecap:square;stroke-width:0.8;"/>
     </g>
     <g id="line2d_38">
      <g>
       <use style="stroke:#000000;stroke-width:0.8;" x="56.12" xlink:href="#m23f805a2fe" y="80.986931"/>
      </g>
     </g>
     <g id="text_10">
      <!-- 0.8 -->
      <defs>
       <path d="M 31.78125 34.625 
Q 24.75 34.625 20.71875 30.859375 
Q 16.703125 27.09375 16.703125 20.515625 
Q 16.703125 13.921875 20.71875 10.15625 
Q 24.75 6.390625 31.78125 6.390625 
Q 38.8125 6.390625 42.859375 10.171875 
Q 46.921875 13.96875 46.921875 20.515625 
Q 46.921875 27.09375 42.890625 30.859375 
Q 38.875 34.625 31.78125 34.625 
z
M 21.921875 38.8125 
Q 15.578125 40.375 12.03125 44.71875 
Q 8.5 49.078125 8.5 55.328125 
Q 8.5 64.0625 14.71875 69.140625 
Q 20.953125 74.21875 31.78125 74.21875 
Q 42.671875 74.21875 48.875 69.140625 
Q 55.078125 64.0625 55.078125 55.328125 
Q 55.078125 49.078125 51.53125 44.71875 
Q 48 40.375 41.703125 38.8125 
Q 48.828125 37.15625 52.796875 32.3125 
Q 56.78125 27.484375 56.78125 20.515625 
Q 56.78125 9.90625 50.3125 4.234375 
Q 43.84375 -1.421875 31.78125 -1.421875 
Q 19.734375 -1.421875 13.25 4.234375 
Q 6.78125 9.90625 6.78125 20.515625 
Q 6.78125 27.484375 10.78125 32.3125 
Q 14.796875 37.15625 21.921875 38.8125 
z
M 18.3125 54.390625 
Q 18.3125 48.734375 21.84375 45.5625 
Q 25.390625 42.390625 31.78125 42.390625 
Q 38.140625 42.390625 41.71875 45.5625 
Q 45.3125 48.734375 45.3125 54.390625 
Q 45.3125 60.0625 41.71875 63.234375 
Q 38.140625 66.40625 31.78125 66.40625 
Q 25.390625 66.40625 21.84375 63.234375 
Q 18.3125 60.0625 18.3125 54.390625 
z
" id="DejaVuSans-38"/>
      </defs>
      <g transform="translate(23.675 87.065681)scale(0.16 -0.16)">
       <use xlink:href="#DejaVuSans-30"/>
       <use x="63.623047" xlink:href="#DejaVuSans-2e"/>
       <use x="95.410156" xlink:href="#DejaVuSans-38"/>
      </g>
     </g>
    </g>
    <g id="ytick_6">
     <g id="line2d_39">
      <path clip-path="url(#pd45c1355f8)" d="M 56.12 27.513663 
L 333.168 27.513663 
" style="fill:none;stroke:#b0b0b0;stroke-linecap:square;stroke-width:0.8;"/>
     </g>
     <g id="line2d_40">
      <g>
       <use style="stroke:#000000;stroke-width:0.8;" x="56.12" xlink:href="#m23f805a2fe" y="27.513663"/>
      </g>
     </g>
     <g id="text_11">
      <!-- 1.0 -->
      <g transform="translate(23.675 33.592413)scale(0.16 -0.16)">
       <use xlink:href="#DejaVuSans-31"/>
       <use x="63.623047" xlink:href="#DejaVuSans-2e"/>
       <use x="95.410156" xlink:href="#DejaVuSans-30"/>
      </g>
     </g>
    </g>
    <g id="text_12">
     <!-- Fraction of function,target pairs -->
     <defs>
      <path d="M 9.8125 72.90625 
L 51.703125 72.90625 
L 51.703125 64.59375 
L 19.671875 64.59375 
L 19.671875 43.109375 
L 48.578125 43.109375 
L 48.578125 34.8125 
L 19.671875 34.8125 
L 19.671875 0 
L 9.8125 0 
z
" id="DejaVuSans-46"/>
      <path d="M 41.109375 46.296875 
Q 39.59375 47.171875 37.8125 47.578125 
Q 36.03125 48 33.890625 48 
Q 26.265625 48 22.1875 43.046875 
Q 18.109375 38.09375 18.109375 28.8125 
L 18.109375 0 
L 9.078125 0 
L 9.078125 54.6875 
L 18.109375 54.6875 
L 18.109375 46.1875 
Q 20.953125 51.171875 25.484375 53.578125 
Q 30.03125 56 36.53125 56 
Q 37.453125 56 38.578125 55.875 
Q 39.703125 55.765625 41.0625 55.515625 
z
" id="DejaVuSans-72"/>
      <path d="M 48.78125 52.59375 
L 48.78125 44.1875 
Q 44.96875 46.296875 41.140625 47.34375 
Q 37.3125 48.390625 33.40625 48.390625 
Q 24.65625 48.390625 19.8125 42.84375 
Q 14.984375 37.3125 14.984375 27.296875 
Q 14.984375 17.28125 19.8125 11.734375 
Q 24.65625 6.203125 33.40625 6.203125 
Q 37.3125 6.203125 41.140625 7.25 
Q 44.96875 8.296875 48.78125 10.40625 
L 48.78125 2.09375 
Q 45.015625 0.34375 40.984375 -0.53125 
Q 36.96875 -1.421875 32.421875 -1.421875 
Q 20.0625 -1.421875 12.78125 6.34375 
Q 5.515625 14.109375 5.515625 27.296875 
Q 5.515625 40.671875 12.859375 48.328125 
Q 20.21875 56 33.015625 56 
Q 37.15625 56 41.109375 55.140625 
Q 45.0625 54.296875 48.78125 52.59375 
z
" id="DejaVuSans-63"/>
      <path d="M 18.3125 70.21875 
L 18.3125 54.6875 
L 36.8125 54.6875 
L 36.8125 47.703125 
L 18.3125 47.703125 
L 18.3125 18.015625 
Q 18.3125 11.328125 20.140625 9.421875 
Q 21.96875 7.515625 27.59375 7.515625 
L 36.8125 7.515625 
L 36.8125 0 
L 27.59375 0 
Q 17.1875 0 13.234375 3.875 
Q 9.28125 7.765625 9.28125 18.015625 
L 9.28125 47.703125 
L 2.6875 47.703125 
L 2.6875 54.6875 
L 9.28125 54.6875 
L 9.28125 70.21875 
z
" id="DejaVuSans-74"/>
      <path d="M 8.5 21.578125 
L 8.5 54.6875 
L 17.484375 54.6875 
L 17.484375 21.921875 
Q 17.484375 14.15625 20.5 10.265625 
Q 23.53125 6.390625 29.59375 6.390625 
Q 36.859375 6.390625 41.078125 11.03125 
Q 45.3125 15.671875 45.3125 23.6875 
L 45.3125 54.6875 
L 54.296875 54.6875 
L 54.296875 0 
L 45.3125 0 
L 45.3125 8.40625 
Q 42.046875 3.421875 37.71875 1 
Q 33.40625 -1.421875 27.6875 -1.421875 
Q 18.265625 -1.421875 13.375 4.4375 
Q 8.5 10.296875 8.5 21.578125 
z
M 31.109375 56 
z
" id="DejaVuSans-75"/>
      <path d="M 11.71875 12.40625 
L 22.015625 12.40625 
L 22.015625 4 
L 14.015625 -11.625 
L 7.71875 -11.625 
L 11.71875 4 
z
" id="DejaVuSans-2c"/>
      <path d="M 18.109375 8.203125 
L 18.109375 -20.796875 
L 9.078125 -20.796875 
L 9.078125 54.6875 
L 18.109375 54.6875 
L 18.109375 46.390625 
Q 20.953125 51.265625 25.265625 53.625 
Q 29.59375 56 35.59375 56 
Q 45.5625 56 51.78125 48.09375 
Q 58.015625 40.1875 58.015625 27.296875 
Q 58.015625 14.40625 51.78125 6.484375 
Q 45.5625 -1.421875 35.59375 -1.421875 
Q 29.59375 -1.421875 25.265625 0.953125 
Q 20.953125 3.328125 18.109375 8.203125 
z
M 48.6875 27.296875 
Q 48.6875 37.203125 44.609375 42.84375 
Q 40.53125 48.484375 33.40625 48.484375 
Q 26.265625 48.484375 22.1875 42.84375 
Q 18.109375 37.203125 18.109375 27.296875 
Q 18.109375 17.390625 22.1875 11.75 
Q 26.265625 6.109375 33.40625 6.109375 
Q 40.53125 6.109375 44.609375 11.75 
Q 48.6875 17.390625 48.6875 27.296875 
z
" id="DejaVuSans-70"/>
     </defs>
     <g transform="translate(16.139531 294.999375)rotate(-90)scale(0.17 -0.17)">
      <use xlink:href="#DejaVuSans-46"/>
      <use x="57.410156" xlink:href="#DejaVuSans-72"/>
      <use x="98.523438" xlink:href="#DejaVuSans-61"/>
      <use x="159.802734" xlink:href="#DejaVuSans-63"/>
      <use x="214.783203" xlink:href="#DejaVuSans-74"/>
      <use x="253.992188" xlink:href="#DejaVuSans-69"/>
      <use x="281.775391" xlink:href="#DejaVuSans-6f"/>
      <use x="342.957031" xlink:href="#DejaVuSans-6e"/>
      <use x="406.335938" xlink:href="#DejaVuSans-20"/>
      <use x="438.123047" xlink:href="#DejaVuSans-6f"/>
      <use x="499.304688" xlink:href="#DejaVuSans-66"/>
      <use x="534.509766" xlink:href="#DejaVuSans-20"/>
      <use x="566.296875" xlink:href="#DejaVuSans-66"/>
      <use x="601.501953" xlink:href="#DejaVuSans-75"/>
      <use x="664.880859" xlink:href="#DejaVuSans-6e"/>
      <use x="728.259766" xlink:href="#DejaVuSans-63"/>
      <use x="783.240234" xlink:href="#DejaVuSans-74"/>
      <use x="822.449219" xlink:href="#DejaVuSans-69"/>
      <use x="850.232422" xlink:href="#DejaVuSans-6f"/>
      <use x="911.414062" xlink:href="#DejaVuSans-6e"/>
      <use x="974.792969" xlink:href="#DejaVuSans-2c"/>
      <use x="1006.580078" xlink:href="#DejaVuSans-74"/>
      <use x="1045.789062" xlink:href="#DejaVuSans-61"/>
      <use x="1107.068359" xlink:href="#DejaVuSans-72"/>
      <use x="1148.166016" xlink:href="#DejaVuSans-67"/>
      <use x="1211.642578" xlink:href="#DejaVuSans-65"/>
      <use x="1273.166016" xlink:href="#DejaVuSans-74"/>
      <use x="1312.375" xlink:href="#DejaVuSans-20"/>
      <use x="1344.162109" xlink:href="#DejaVuSans-70"/>
      <use x="1407.638672" xlink:href="#DejaVuSans-61"/>
      <use x="1468.917969" xlink:href="#DejaVuSans-69"/>
      <use x="1496.701172" xlink:href="#DejaVuSans-72"/>
      <use x="1537.814453" xlink:href="#DejaVuSans-73"/>
     </g>
    </g>
   </g>
   <g id="line2d_41">
    <defs>
     <path d="M 0 1.5 
C 0.397805 1.5 0.77937 1.341951 1.06066 1.06066 
C 1.341951 0.77937 1.5 0.397805 1.5 0 
C 1.5 -0.397805 1.341951 -0.77937 1.06066 -1.06066 
C 0.77937 -1.341951 0.397805 -1.5 0 -1.5 
C -0.397805 -1.5 -0.77937 -1.341951 -1.06066 -1.06066 
C -1.341951 -0.77937 -1.5 -0.397805 -1.5 0 
C -1.5 0.397805 -1.341951 0.77937 -1.06066 1.06066 
C -0.77937 1.341951 -0.397805 1.5 0 1.5 
z
" id="maf2637c384" style="stroke:#f5deb3;"/>
    </defs>
    <g>
     <use style="fill:#f5deb3;stroke:#f5deb3;" x="165.765167" xlink:href="#maf2637c384" y="27.513663"/>
     <use style="fill:#f5deb3;stroke:#f5deb3;" x="165.765167" xlink:href="#maf2637c384" y="27.513663"/>
    </g>
   </g>
   <g id="line2d_42">
    <defs>
     <path d="M 0 1.5 
C 0.397805 1.5 0.77937 1.341951 1.06066 1.06066 
C 1.341951 0.77937 1.5 0.397805 1.5 0 
C 1.5 -0.397805 1.341951 -0.77937 1.06066 -1.06066 
C 0.77937 -1.341951 0.397805 -1.5 0 -1.5 
C -0.397805 -1.5 -0.77937 -1.341951 -1.06066 -1.06066 
C -1.341951 -0.77937 -1.5 -0.397805 -1.5 0 
C -1.5 0.397805 -1.341951 0.77937 -1.06066 1.06066 
C -0.77937 1.341951 -0.397805 1.5 0 1.5 
z
" id="mf57354915e" style="stroke:#000080;"/>
    </defs>
    <g>
     <use style="fill:#000080;stroke:#000080;" x="230.33918" xlink:href="#mf57354915e" y="27.513663"/>
     <use style="fill:#000080;stroke:#000080;" x="230.33918" xlink:href="#mf57354915e" y="27.513663"/>
    </g>
   </g>
   <g id="line2d_43">
    <path d="M 35.425356 294.88 
L 35.425356 294.355752 
L 54.308997 294.355752 
L 54.308997 293.307257 
L 64.198719 293.307257 
L 64.198719 292.783009 
L 68.872887 292.783009 
L 68.872887 292.258761 
L 110.384516 292.258761 
L 110.384516 291.734514 
L 110.746395 291.734514 
L 110.746395 290.686018 
L 112.449632 290.686018 
L 112.449632 290.161771 
L 112.834468 290.161771 
L 112.834468 289.637523 
L 114.176106 289.637523 
L 114.176106 289.113275 
L 115.691256 289.113275 
L 115.691256 288.589027 
L 115.904782 288.589027 
L 115.904782 288.06478 
L 116.115688 288.06478 
L 116.115688 286.492036 
L 116.324038 286.492036 
L 116.324038 285.967789 
L 116.73331 285.967789 
L 116.73331 285.443541 
L 117.715785 285.443541 
L 117.715785 283.870798 
L 118.140217 283.870798 
L 118.140217 283.34655 
L 119.526788 283.34655 
L 119.526788 282.822302 
L 119.95122 282.822302 
L 120.034863 281.249559 
L 121.359263 281.249559 
L 121.359263 280.725312 
L 122.077925 280.725312 
L 122.114929 279.676816 
L 122.298767 279.676816 
L 122.298767 279.152568 
L 122.660646 279.152568 
L 122.767741 277.579825 
L 123.050106 277.579825 
L 123.050106 277.055578 
L 123.7027 277.055578 
L 123.7027 276.007082 
L 124.653315 276.007082 
L 124.653315 275.482834 
L 125.310285 275.482834 
L 125.310285 274.434339 
L 126.265455 274.434339 
L 126.265455 273.910091 
L 126.496178 273.910091 
L 126.496178 272.337348 
L 127.032044 272.337348 
L 127.032044 271.8131 
L 127.416471 271.8131 
L 127.416471 271.288853 
L 127.605507 271.288853 
L 127.685891 269.716109 
L 127.792487 269.716109 
L 127.792487 269.191862 
L 128.647561 269.191862 
L 128.647561 268.667614 
L 129.292521 268.667614 
L 129.292521 268.143366 
L 130.124199 268.143366 
L 130.216736 267.094871 
L 130.377486 267.094871 
L 130.377486 266.570623 
L 130.514085 266.570623 
L 130.559378 264.99788 
L 131.441039 264.99788 
L 131.441039 264.473632 
L 132.402015 264.473632 
L 132.46286 263.425137 
L 132.52349 263.425137 
L 132.52349 262.900889 
L 132.644112 262.900889 
L 132.704108 260.803898 
L 133.234845 260.803898 
L 133.234845 260.279651 
L 134.8942 260.279651 
L 134.8942 259.755403 
L 135.086449 259.755403 
L 135.086449 259.231155 
L 135.566322 259.231155 
L 135.566322 258.706907 
L 136.294342 258.706907 
L 136.294342 258.18266 
L 136.455588 258.18266 
L 136.455588 257.658412 
L 136.599426 257.658412 
L 136.599426 257.134164 
L 136.757848 257.134164 
L 136.757848 256.609917 
L 136.89919 256.609917 
L 136.89919 255.561421 
L 137.301101 255.561421 
L 137.301101 255.037173 
L 138.609803 255.037173 
L 138.694545 253.988678 
L 138.904592 253.988678 
L 138.974042 252.940182 
L 139.235418 252.940182 
L 139.235418 252.415935 
L 140.009571 252.415935 
L 140.009571 251.891687 
L 140.242905 251.891687 
L 140.242905 251.367439 
L 141.060069 251.367439 
L 141.060069 250.843192 
L 141.828403 250.843192 
L 141.828403 250.318944 
L 142.00362 250.318944 
L 142.015238 249.270448 
L 142.687155 249.270448 
L 142.687155 248.746201 
L 142.84281 248.746201 
L 142.84281 248.221953 
L 142.986095 248.221953 
L 142.986095 247.697705 
L 143.36603 247.697705 
L 143.36603 246.64921 
L 143.590024 246.64921 
L 143.590024 246.124962 
L 143.748251 246.124962 
L 143.811137 244.027971 
L 144.598384 244.027971 
L 144.598384 242.455228 
L 144.84642 242.455228 
L 144.84642 241.93098 
L 144.993542 241.93098 
L 144.993542 240.882485 
L 145.322428 240.882485 
L 145.37982 239.309742 
L 146.327245 239.309742 
L 146.327245 238.785494 
L 146.489148 238.785494 
L 146.489148 238.261246 
L 146.676128 238.261246 
L 146.676128 237.736999 
L 147.25944 237.736999 
L 147.25944 237.212751 
L 147.623637 237.212751 
L 147.623637 236.688503 
L 148.192385 236.688503 
L 148.200491 235.640008 
L 148.585148 235.640008 
L 148.585148 234.591512 
L 149.184767 234.591512 
L 149.184767 234.067265 
L 149.359891 234.067265 
L 149.359891 233.543017 
L 149.480672 233.543017 
L 149.480672 233.018769 
L 149.67515 233.018769 
L 149.741959 231.970274 
L 149.889502 231.970274 
L 149.889502 231.446026 
L 150.396151 231.446026 
L 150.396151 230.921778 
L 150.888293 230.921778 
L 150.909073 229.873283 
L 151.163317 229.873283 
L 151.163317 228.30054 
L 151.434009 228.30054 
L 151.434009 227.776292 
L 151.587749 227.776292 
L 151.587749 227.252044 
L 151.700505 227.252044 
L 151.753312 207.854879 
L 151.812527 207.854879 
L 151.812527 207.330631 
L 151.962932 207.330631 
L 152.053843 197.894172 
L 152.195739 197.894172 
L 152.221413 185.312227 
L 152.34921 185.312227 
L 152.34921 184.263731 
L 152.726997 184.263731 
L 152.726997 183.739484 
L 152.97432 183.739484 
L 152.97432 183.215236 
L 153.344766 183.215236 
L 153.344766 182.690988 
L 153.458539 182.690988 
L 153.458539 182.16674 
L 153.789554 182.16674 
L 153.801259 180.593997 
L 154.131541 180.593997 
L 154.188837 166.439309 
L 154.612571 166.439309 
L 154.662725 164.866566 
L 154.894858 164.866566 
L 154.894858 163.81807 
L 155.269542 163.81807 
L 155.360615 152.808868 
L 155.440574 152.808868 
L 155.440574 151.760373 
L 155.551896 151.760373 
L 155.551896 151.236125 
L 155.693974 151.236125 
L 155.693974 149.139134 
L 155.902323 149.139134 
L 155.902323 148.614886 
L 156.230517 148.614886 
L 156.311596 147.566391 
L 156.502638 147.566391 
L 156.502638 147.042143 
L 157.102017 147.042143 
L 157.179096 145.4694 
L 157.540575 145.4694 
L 157.540575 138.129932 
L 158.04152 138.129932 
L 158.04152 137.081437 
L 161.232427 137.081437 
L 161.232427 135.508693 
L 161.759623 135.508693 
L 161.759623 134.984446 
L 163.670858 134.984446 
L 163.670858 134.460198 
L 164.641248 134.460198 
L 164.641248 133.93595 
L 164.888571 133.93595 
L 164.888571 133.411703 
L 165.913283 133.411703 
L 165.959489 132.363207 
L 166.476522 132.363207 
L 166.476522 131.838959 
L 167.597741 131.838959 
L 167.597741 124.499491 
L 167.801036 124.499491 
L 167.801036 122.926748 
L 168.055649 122.926748 
L 168.055649 121.354005 
L 170.546643 121.354005 
L 170.546643 119.781262 
L 177.001184 119.781262 
L 177.001184 119.257014 
L 177.931324 119.257014 
L 177.931324 118.208519 
L 178.141301 118.208519 
L 178.141301 117.160023 
L 178.632538 117.160023 
L 178.632538 116.635776 
L 178.79868 116.635776 
L 178.864145 115.063032 
L 179.094015 115.063032 
L 179.094015 114.538785 
L 179.22781 114.538785 
L 179.22781 114.014537 
L 179.630873 114.014537 
L 179.630873 113.490289 
L 179.857204 113.490289 
L 179.912363 112.441794 
L 180.637126 112.441794 
L 180.736295 99.859849 
L 180.785058 99.859849 
L 180.857942 97.762858 
L 180.931726 97.762858 
L 180.931726 97.23861 
L 181.141661 97.23861 
L 181.223735 95.665867 
L 181.547005 95.665867 
L 181.547005 95.141619 
L 181.888299 95.141619 
L 181.974846 94.093124 
L 182.724978 94.093124 
L 182.724978 93.568876 
L 184.526844 93.568876 
L 184.526844 93.044628 
L 186.362994 93.044628 
L 186.362994 92.520381 
L 186.672581 92.520381 
L 186.672581 91.996133 
L 187.243775 91.996133 
L 187.243775 91.471885 
L 187.445738 91.471885 
L 187.445738 83.608169 
L 187.776346 83.608169 
L 187.837835 79.938435 
L 189.979429 79.938435 
L 189.979429 79.414188 
L 190.121443 79.414188 
L 190.121443 78.88994 
L 190.930859 78.88994 
L 190.930859 77.841444 
L 194.761669 77.841444 
L 194.807494 76.792949 
L 194.91591 76.792949 
L 194.999171 75.744454 
L 195.030025 75.744454 
L 195.098979 74.695958 
L 195.156054 74.695958 
L 195.252859 73.123215 
L 195.355381 73.123215 
L 195.355381 72.598967 
L 195.711512 72.598967 
L 195.788473 71.026224 
L 195.869648 71.026224 
L 195.950441 68.929233 
L 196.099912 68.929233 
L 196.13334 67.35649 
L 196.34782 67.35649 
L 196.452841 65.783747 
L 196.875698 65.783747 
L 196.875698 65.259499 
L 200.09511 65.259499 
L 200.09511 64.735251 
L 200.889885 64.735251 
L 200.920472 62.638261 
L 203.286334 62.638261 
L 203.286334 62.114013 
L 204.75872 62.114013 
L 204.75872 61.589765 
L 207.176027 61.589765 
L 207.176027 61.065517 
L 214.827364 61.065517 
L 214.918006 55.298792 
L 214.940384 55.298792 
L 215.049681 50.056315 
L 215.067581 50.056315 
L 215.067581 49.532068 
L 215.410852 49.532068 
L 215.410852 49.00782 
L 215.524629 49.00782 
L 215.553158 47.435077 
L 216.62704 47.435077 
L 216.703423 44.28959 
L 216.747949 44.28959 
L 216.787563 42.716847 
L 217.209071 42.716847 
L 217.209071 42.192599 
L 217.681638 42.192599 
L 217.7498 40.619856 
L 218.334416 40.619856 
L 218.334416 39.571361 
L 219.242064 39.571361 
L 219.242064 39.047113 
L 219.403467 39.047113 
L 219.403467 38.522865 
L 219.525833 38.522865 
L 219.608328 36.950122 
L 219.983511 36.950122 
L 219.983511 36.425875 
L 220.925699 36.425875 
L 220.925699 35.901627 
L 221.662173 35.901627 
L 221.662173 35.377379 
L 222.094634 35.377379 
L 222.094634 34.853131 
L 223.161203 34.853131 
L 223.161203 34.328884 
L 223.504909 34.328884 
L 223.504909 33.804636 
L 226.569406 33.804636 
L 226.658427 30.65915 
L 228.04827 30.65915 
L 228.04827 30.134902 
L 229.051949 30.134902 
L 229.057822 29.086407 
L 229.270841 29.086407 
L 229.270841 28.562159 
L 229.869242 28.562159 
L 229.869242 28.037911 
L 230.33918 28.037911 
L 230.33918 27.513663 
L 333.168 27.513663 
L 333.168 27.513663 
" style="fill:none;stroke:#000080;stroke-linecap:square;stroke-width:1.5;"/>
   </g>
   <g id="line2d_44">
    <defs>
     <path d="M 0 6 
C 1.591219 6 3.117479 5.367802 4.242641 4.242641 
C 5.367802 3.117479 6 1.591219 6 0 
C 6 -1.591219 5.367802 -3.117479 4.242641 -4.242641 
C 3.117479 -5.367802 1.591219 -6 0 -6 
C -1.591219 -6 -3.117479 -5.367802 -4.242641 -4.242641 
C -5.367802 -3.117479 -6 -1.591219 -6 0 
C -6 1.591219 -5.367802 3.117479 -4.242641 4.242641 
C -3.117479 5.367802 -1.591219 6 0 6 
z
" id="m493119ea74" style="stroke:#000080;stroke-width:1.5;"/>
    </defs>
    <g>
     <use style="fill:none;stroke:#000080;stroke-width:1.5;" x="68.872887" xlink:href="#m493119ea74" y="292.783009"/>
     <use style="fill:none;stroke:#000080;stroke-width:1.5;" x="154.131541" xlink:href="#m493119ea74" y="174.303025"/>
     <use style="fill:none;stroke:#000080;stroke-width:1.5;" x="182.724978" xlink:href="#m493119ea74" y="93.568876"/>
     <use style="fill:none;stroke:#000080;stroke-width:1.5;" x="230.33918" xlink:href="#m493119ea74" y="28.037911"/>
     <use style="fill:none;stroke:#000080;stroke-width:1.5;" x="230.33918" xlink:href="#m493119ea74" y="27.513663"/>
     <use style="fill:none;stroke:#000080;stroke-width:1.5;" x="333.168" xlink:href="#m493119ea74" y="27.513663"/>
    </g>
   </g>
   <g id="line2d_45">
    <path style="fill:none;stroke:#000080;stroke-linecap:square;stroke-width:1.5;"/>
    <g/>
   </g>
   <g id="line2d_46">
    <path clip-path="url(#pd45c1355f8)" d="M 194.566218 77.841444 
" style="fill:none;stroke:#000080;stroke-linecap:square;stroke-width:1.5;"/>
    <defs>
     <path d="M -12 12 
L 12 -12 
M -12 -12 
L 12 12 
" id="m06a205a4ce" style="stroke:#000080;"/>
    </defs>
    <g clip-path="url(#pd45c1355f8)">
     <use style="fill:#000080;stroke:#000080;" x="194.566218" xlink:href="#m06a205a4ce" y="77.841444"/>
    </g>
   </g>
   <g id="line2d_47">
    <defs>
     <path d="M 0 1.5 
C 0.397805 1.5 0.77937 1.341951 1.06066 1.06066 
C 1.341951 0.77937 1.5 0.397805 1.5 0 
C 1.5 -0.397805 1.341951 -0.77937 1.06066 -1.06066 
C 0.77937 -1.341951 0.397805 -1.5 0 -1.5 
C -0.397805 -1.5 -0.77937 -1.341951 -1.06066 -1.06066 
C -1.341951 -0.77937 -1.5 -0.397805 -1.5 0 
C -1.5 0.397805 -1.341951 0.77937 -1.06066 1.06066 
C -0.77937 1.341951 -0.397805 1.5 0 1.5 
z
" id="ma488ea373e" style="stroke:#ff00ff;"/>
    </defs>
    <g>
     <use style="fill:#ff00ff;stroke:#ff00ff;" x="261.289477" xlink:href="#ma488ea373e" y="27.513663"/>
     <use style="fill:#ff00ff;stroke:#ff00ff;" x="261.289477" xlink:href="#ma488ea373e" y="27.513663"/>
    </g>
   </g>
   <g id="line2d_48">
    <path d="M 52.284468 294.88 
L 52.284468 293.831505 
L 69.672503 293.831505 
L 69.672503 293.307257 
L 71.869783 293.307257 
L 71.869783 292.783009 
L 81.973032 292.783009 
L 81.973032 292.258761 
L 84.785597 292.258761 
L 84.785597 291.210266 
L 87.756529 291.210266 
L 87.756529 290.686018 
L 89.811346 290.686018 
L 89.811346 290.161771 
L 90.05175 290.161771 
L 90.05175 289.637523 
L 90.288839 289.637523 
L 90.288839 289.113275 
L 90.981092 289.113275 
L 90.981092 288.589027 
L 92.904808 288.589027 
L 92.904808 288.06478 
L 99.806659 288.06478 
L 99.806659 287.540532 
L 100.207968 287.540532 
L 100.207968 287.016284 
L 101.23446 287.016284 
L 101.23446 286.492036 
L 101.481783 286.492036 
L 101.481783 285.967789 
L 102.436953 285.967789 
L 102.436953 284.919293 
L 103.777005 284.919293 
L 103.777005 283.870798 
L 104.409787 283.870798 
L 104.409787 283.34655 
L 106.365146 283.34655 
L 106.365146 282.822302 
L 107.439785 282.822302 
L 107.439785 282.298055 
L 113.023703 282.298055 
L 113.023703 281.773807 
L 113.272818 281.773807 
L 113.334536 280.201064 
L 114.466953 280.201064 
L 114.466953 279.676816 
L 114.639127 279.676816 
L 114.639127 279.152568 
L 114.75296 279.152568 
L 114.809594 278.104073 
L 116.272187 278.104073 
L 116.272187 277.579825 
L 118.554421 277.579825 
L 118.554421 277.055578 
L 119.612517 277.055578 
L 119.612517 276.53133 
L 120.118102 276.53133 
L 120.118102 276.007082 
L 121.242993 276.007082 
L 121.242993 275.482834 
L 122.803291 275.482834 
L 122.803291 274.958587 
L 123.050106 274.958587 
L 123.119979 272.861596 
L 123.189569 272.861596 
L 123.189569 272.337348 
L 123.465144 272.337348 
L 123.465144 271.8131 
L 124.200956 271.8131 
L 124.266312 270.764605 
L 124.331421 270.764605 
L 124.331421 270.240357 
L 126.265455 270.240357 
L 126.265455 269.716109 
L 126.723846 269.716109 
L 126.723846 269.191862 
L 127.659138 269.191862 
L 127.739271 268.143366 
L 127.92481 268.143366 
L 128.029939 266.570623 
L 128.647561 266.570623 
L 128.723227 265.522128 
L 129.796341 265.522128 
L 129.796341 264.99788 
L 129.984454 264.99788 
L 129.984454 264.473632 
L 130.850907 264.473632 
L 130.850907 263.949385 
L 131.505376 263.949385 
L 131.505376 263.425137 
L 132.135837 263.425137 
L 132.135837 262.900889 
L 132.381685 262.900889 
L 132.46286 261.852394 
L 132.863079 261.852394 
L 132.863079 261.328146 
L 133.059747 261.328146 
L 133.059747 260.803898 
L 133.408177 260.803898 
L 133.408177 259.755403 
L 133.880682 259.755403 
L 133.880682 259.231155 
L 133.992176 259.231155 
L 133.992176 258.706907 
L 134.194722 258.706907 
L 134.194722 258.18266 
L 134.376807 258.18266 
L 134.449104 257.134164 
L 135.32806 257.134164 
L 135.32806 256.609917 
L 135.650622 256.609917 
L 135.650622 256.085669 
L 136.049602 256.085669 
L 136.147917 254.512926 
L 136.278134 254.512926 
L 136.278134 253.988678 
L 137.603992 253.988678 
L 137.603992 253.46443 
L 137.738571 253.46443 
L 137.738571 252.940182 
L 137.886877 252.940182 
L 137.960554 251.367439 
L 138.019268 251.367439 
L 138.019268 250.843192 
L 138.7227 250.843192 
L 138.792887 249.794696 
L 138.904592 249.794696 
L 138.987898 247.697705 
L 139.289942 247.697705 
L 139.289942 247.173458 
L 139.640193 247.173458 
L 139.680151 246.124962 
L 140.022618 246.124962 
L 140.022618 245.076467 
L 140.850072 245.076467 
L 140.899714 244.027971 
L 141.460528 244.027971 
L 141.460528 243.503724 
L 141.72241 243.503724 
L 141.72241 242.979476 
L 142.119447 242.979476 
L 142.119447 241.93098 
L 143.018992 241.93098 
L 143.029944 240.882485 
L 143.441019 240.882485 
L 143.451706 239.83399 
L 143.779723 239.83399 
L 143.779723 239.309742 
L 144.029441 239.309742 
L 144.091308 238.261246 
L 144.285763 238.261246 
L 144.285763 237.736999 
L 144.447825 237.736999 
L 144.447825 237.212751 
L 144.885776 237.212751 
L 144.983773 236.164255 
L 146.154676 236.164255 
L 146.154676 235.640008 
L 146.354335 235.640008 
L 146.381382 234.591512 
L 146.551701 234.591512 
L 146.57844 233.543017 
L 146.790867 233.543017 
L 146.790867 233.018769 
L 146.948481 233.018769 
L 146.948481 232.494521 
L 147.208003 232.494521 
L 147.267998 231.446026 
L 147.319256 231.446026 
L 147.319256 230.921778 
L 147.606868 230.921778 
L 147.606868 230.397531 
L 147.740567 230.397531 
L 147.840164 228.824787 
L 148.257126 228.824787 
L 148.257126 228.30054 
L 148.664213 228.30054 
L 148.664213 218.864081 
L 148.875888 218.864081 
L 148.875888 210.476117 
L 149.306781 210.476117 
L 149.306781 209.95187 
L 149.443019 209.95187 
L 149.45809 207.854879 
L 149.704875 207.854879 
L 149.704875 205.757888 
L 150.381881 205.757888 
L 150.381881 205.23364 
L 150.629917 205.23364 
L 150.629917 204.185145 
L 150.797954 204.185145 
L 150.895222 202.088154 
L 150.998831 202.088154 
L 150.998831 201.563906 
L 151.346501 201.563906 
L 151.346501 201.039658 
L 152.60826 201.039658 
L 152.60826 200.515411 
L 152.758108 200.515411 
L 152.758108 191.603199 
L 153.212081 191.603199 
L 153.212081 183.739484 
L 153.754391 183.739484 
L 153.842163 182.16674 
L 154.489355 182.16674 
L 154.494975 174.827272 
L 154.828853 174.827272 
L 154.828853 173.254529 
L 154.993391 173.254529 
L 155.09679 172.206034 
L 155.22113 172.206034 
L 155.22113 171.681786 
L 155.467145 171.681786 
L 155.467145 170.633291 
L 156.402354 170.633291 
L 156.487633 169.584795 
L 156.53261 169.584795 
L 156.53261 168.5363 
L 159.795744 168.5363 
L 159.795744 168.012052 
L 162.65288 168.012052 
L 162.65288 167.487804 
L 162.809473 167.487804 
L 162.809473 166.963557 
L 166.019947 166.963557 
L 166.019947 166.439309 
L 173.451509 166.439309 
L 173.451509 165.915061 
L 174.48654 165.915061 
L 174.48654 165.390813 
L 175.543876 165.390813 
L 175.543876 164.866566 
L 177.639997 164.866566 
L 177.639997 164.342318 
L 178.389374 164.342318 
L 178.389374 163.81807 
L 178.520416 163.81807 
L 178.520416 163.293823 
L 178.726105 163.293823 
L 178.726105 162.769575 
L 178.991629 162.769575 
L 178.991629 162.245327 
L 179.161043 162.245327 
L 179.255776 161.196832 
L 179.326153 161.196832 
L 179.326153 160.672584 
L 179.978833 160.672584 
L 179.978833 160.148336 
L 180.248449 160.148336 
L 180.307376 158.575593 
L 180.384803 158.575593 
L 180.384803 158.051345 
L 180.543556 158.051345 
L 180.543556 157.527098 
L 180.79601 157.527098 
L 180.900316 156.478602 
L 180.936554 156.478602 
L 181.025614 155.430107 
L 181.287695 155.430107 
L 181.358484 153.857364 
L 181.417253 153.857364 
L 181.417253 153.333116 
L 181.646865 153.333116 
L 181.646865 151.760373 
L 182.282186 151.760373 
L 182.282186 150.711877 
L 182.672703 150.711877 
L 182.672703 150.18763 
L 183.059877 150.18763 
L 183.059877 149.663382 
L 183.600494 149.663382 
L 183.600494 149.139134 
L 183.903692 149.139134 
L 183.903692 148.614886 
L 184.522927 148.614886 
L 184.579639 147.566391 
L 184.683774 147.566391 
L 184.683774 147.042143 
L 184.804634 147.042143 
L 184.893047 138.65418 
L 184.985776 138.65418 
L 185.051434 137.081437 
L 185.164085 137.081437 
L 185.164085 136.557189 
L 190.13558 136.557189 
L 190.13558 136.032941 
L 190.665038 136.032941 
L 190.689001 134.984446 
L 191.291347 134.984446 
L 191.291347 134.460198 
L 191.54252 134.460198 
L 191.54252 133.93595 
L 191.854128 133.93595 
L 191.959297 132.887455 
L 195.41733 132.887455 
L 195.41733 132.363207 
L 197.279545 132.363207 
L 197.279545 131.838959 
L 208.492617 131.838959 
L 208.517127 130.266216 
L 208.634341 130.266216 
L 208.705007 129.217721 
L 208.74765 129.217721 
L 208.74765 128.693473 
L 211.081889 128.693473 
L 211.081889 128.169225 
L 211.928421 128.169225 
L 211.928421 127.12073 
L 214.670759 127.12073 
L 214.775039 124.499491 
L 214.785652 124.499491 
L 214.865455 114.014537 
L 214.901957 114.014537 
L 215.010833 102.481087 
L 215.013658 102.481087 
L 215.013658 101.432592 
L 216.633847 101.432592 
L 216.73337 96.714362 
L 216.754257 96.714362 
L 216.855775 95.665867 
L 216.93962 95.665867 
L 217.001756 94.617371 
L 217.121389 94.617371 
L 217.220036 93.044628 
L 217.236544 93.044628 
L 217.260183 87.802151 
L 218.259322 87.802151 
L 218.259322 87.277903 
L 218.446378 87.277903 
L 218.450052 86.229408 
L 218.85268 86.229408 
L 218.85268 85.70516 
L 219.006174 85.70516 
L 219.006174 85.180912 
L 220.118385 85.180912 
L 220.118385 84.656665 
L 220.501199 84.656665 
L 220.501199 84.132417 
L 223.632501 84.132417 
L 223.726851 81.511178 
L 224.750766 81.511178 
L 224.812897 79.938435 
L 224.921557 79.938435 
L 224.921557 79.414188 
L 225.140616 79.414188 
L 225.140616 78.365692 
L 226.063076 78.365692 
L 226.063076 77.841444 
L 226.481798 77.841444 
L 226.589671 68.404985 
L 226.597381 68.404985 
L 226.640102 61.589765 
L 227.459113 61.589765 
L 227.554313 60.54127 
L 227.576011 60.54127 
L 227.64628 56.871536 
L 227.720548 56.871536 
L 227.81897 53.726049 
L 228.705711 53.726049 
L 228.705711 53.201802 
L 229.538452 53.201802 
L 229.538452 52.677554 
L 230.444462 52.677554 
L 230.444462 52.153306 
L 231.058127 52.153306 
L 231.151702 51.104811 
L 231.561712 51.104811 
L 231.611073 49.532068 
L 232.079248 49.532068 
L 232.079248 49.00782 
L 232.239328 49.00782 
L 232.239328 48.483572 
L 233.189981 48.483572 
L 233.189981 47.959324 
L 233.442715 47.959324 
L 233.491163 44.813838 
L 233.767971 44.813838 
L 233.861423 43.765343 
L 234.083569 43.765343 
L 234.083569 43.241095 
L 234.309696 43.241095 
L 234.309696 42.192599 
L 234.790174 42.192599 
L 234.852903 41.144104 
L 234.984804 41.144104 
L 234.984804 40.619856 
L 235.414445 40.619856 
L 235.466398 39.047113 
L 236.216628 39.047113 
L 236.216628 38.522865 
L 236.957744 38.522865 
L 236.984888 37.47437 
L 238.041038 37.47437 
L 238.066525 36.425875 
L 238.383211 36.425875 
L 238.392595 34.853131 
L 238.925835 34.853131 
L 238.925835 34.328884 
L 239.426412 34.328884 
L 239.426412 33.804636 
L 240.472895 33.804636 
L 240.472895 33.280388 
L 241.881522 33.280388 
L 241.881522 32.756141 
L 242.618765 32.756141 
L 242.618765 32.231893 
L 243.01056 32.231893 
L 243.01056 31.707645 
L 243.786139 31.707645 
L 243.816648 30.65915 
L 245.293346 30.65915 
L 245.293346 30.134902 
L 246.360737 30.134902 
L 246.360737 29.610654 
L 247.439425 29.610654 
L 247.544439 28.562159 
L 258.135319 28.562159 
L 258.135319 28.037911 
L 261.289477 28.037911 
L 261.289477 27.513663 
L 333.168 27.513663 
L 333.168 27.513663 
" style="fill:none;stroke:#ff00ff;stroke-linecap:square;stroke-width:1.5;"/>
   </g>
   <g id="line2d_49">
    <defs>
     <path d="M -0 8.485281 
L 5.091169 0 
L 0 -8.485281 
L -5.091169 -0 
z
" id="m55e8c9657b" style="stroke:#ff00ff;stroke-linejoin:miter;stroke-width:1.5;"/>
    </defs>
    <g>
     <use style="fill:none;stroke:#ff00ff;stroke-linejoin:miter;stroke-width:1.5;" x="116.272187" xlink:href="#m55e8c9657b" y="277.579825"/>
     <use style="fill:none;stroke:#ff00ff;stroke-linejoin:miter;stroke-width:1.5;" x="156.53261" xlink:href="#m55e8c9657b" y="168.5363"/>
     <use style="fill:none;stroke:#ff00ff;stroke-linejoin:miter;stroke-width:1.5;" x="220.501199" xlink:href="#m55e8c9657b" y="84.132417"/>
     <use style="fill:none;stroke:#ff00ff;stroke-linejoin:miter;stroke-width:1.5;" x="261.289477" xlink:href="#m55e8c9657b" y="28.037911"/>
     <use style="fill:none;stroke:#ff00ff;stroke-linejoin:miter;stroke-width:1.5;" x="261.289477" xlink:href="#m55e8c9657b" y="27.513663"/>
     <use style="fill:none;stroke:#ff00ff;stroke-linejoin:miter;stroke-width:1.5;" x="333.168" xlink:href="#m55e8c9657b" y="27.513663"/>
    </g>
   </g>
   <g id="line2d_50">
    <path style="fill:none;stroke:#ff00ff;stroke-linecap:square;stroke-width:1.5;"/>
    <g/>
   </g>
   <g id="line2d_51">
    <path clip-path="url(#pd45c1355f8)" d="M 214.433143 127.12073 
" style="fill:none;stroke:#ff00ff;stroke-linecap:square;stroke-width:1.5;"/>
    <defs>
     <path d="M -12 12 
L 12 -12 
M -12 -12 
L 12 12 
" id="mf276b0190d" style="stroke:#ff00ff;"/>
    </defs>
    <g clip-path="url(#pd45c1355f8)">
     <use style="fill:#ff00ff;stroke:#ff00ff;" x="214.433143" xlink:href="#mf276b0190d" y="127.12073"/>
    </g>
   </g>
   <g id="line2d_52">
    <defs>
     <path d="M 0 1.5 
C 0.397805 1.5 0.77937 1.341951 1.06066 1.06066 
C 1.341951 0.77937 1.5 0.397805 1.5 0 
C 1.5 -0.397805 1.341951 -0.77937 1.06066 -1.06066 
C 0.77937 -1.341951 0.397805 -1.5 0 -1.5 
C -0.397805 -1.5 -0.77937 -1.341951 -1.06066 -1.06066 
C -1.341951 -0.77937 -1.5 -0.397805 -1.5 0 
C -1.5 0.397805 -1.341951 0.77937 -1.06066 1.06066 
C -0.77937 1.341951 -0.397805 1.5 0 1.5 
z
" id="meb81e0264b" style="stroke:#ff7500;"/>
    </defs>
    <g>
     <use style="fill:#ff7500;stroke:#ff7500;" x="252.071795" xlink:href="#meb81e0264b" y="247.697705"/>
     <use style="fill:#ff7500;stroke:#ff7500;" x="252.071795" xlink:href="#meb81e0264b" y="247.697705"/>
    </g>
   </g>
   <g id="line2d_53">
    <path d="M 16.541714 294.88 
L 16.541714 294.355752 
L 40.370217 294.355752 
L 40.370217 293.831505 
L 57.758252 293.831505 
L 57.758252 293.307257 
L 77.155024 293.307257 
L 77.155024 292.783009 
L 92.07628 292.783009 
L 92.07628 291.734514 
L 96.861245 291.734514 
L 96.861245 290.686018 
L 97.79904 290.686018 
L 97.79904 289.637523 
L 108.120612 289.637523 
L 108.20385 288.589027 
L 108.286687 288.589027 
L 108.369127 287.540532 
L 108.6141 287.540532 
L 108.6141 287.016284 
L 109.250788 287.016284 
L 109.250788 286.492036 
L 113.210876 286.492036 
L 113.210876 285.967789 
L 113.457313 285.967789 
L 113.518374 284.395046 
L 113.579218 284.395046 
L 113.579218 283.870798 
L 114.866043 283.870798 
L 114.866043 283.34655 
L 115.145539 283.34655 
L 115.145539 282.822302 
L 117.182386 282.822302 
L 117.182386 282.298055 
L 117.571946 282.298055 
L 117.571946 281.773807 
L 117.763465 281.773807 
L 117.763465 281.249559 
L 117.905717 281.249559 
L 117.905717 280.725312 
L 118.046801 280.725312 
L 118.046801 280.201064 
L 118.599834 280.201064 
L 118.599834 279.676816 
L 118.735356 279.676816 
L 118.735356 279.152568 
L 119.612517 279.152568 
L 119.655222 278.104073 
L 119.782703 278.104073 
L 119.782703 277.579825 
L 120.118102 277.579825 
L 120.118102 277.055578 
L 120.32445 277.055578 
L 120.32445 276.53133 
L 120.609239 276.53133 
L 120.609239 276.007082 
L 121.16504 276.007082 
L 121.242993 274.958587 
L 122.696418 274.958587 
L 122.732117 273.385844 
L 124.135351 273.385844 
L 124.135351 272.861596 
L 124.653315 272.861596 
L 124.653315 272.337348 
L 124.969291 272.337348 
L 124.969291 271.8131 
L 125.49347 271.8131 
L 125.49347 271.288853 
L 126.524802 271.288853 
L 126.524802 270.764605 
L 126.723846 270.764605 
L 126.723846 270.240357 
L 126.92061 270.240357 
L 126.92061 269.191862 
L 127.792487 269.191862 
L 127.819033 267.619119 
L 128.823599 267.619119 
L 128.823599 267.094871 
L 129.022601 267.094871 
L 129.022601 266.570623 
L 129.606147 266.570623 
L 129.606147 266.046375 
L 129.772681 266.046375 
L 129.772681 265.522128 
L 132.402015 265.522128 
L 132.402015 264.99788 
L 135.016789 264.99788 
L 135.016789 264.473632 
L 136.471629 264.473632 
L 136.471629 263.949385 
L 136.867881 263.949385 
L 136.867881 263.425137 
L 138.439053 263.425137 
L 138.496158 262.376641 
L 139.653523 262.376641 
L 139.653523 261.852394 
L 142.530078 261.852394 
L 142.530078 261.328146 
L 179.514614 261.328146 
L 179.514614 260.803898 
L 179.799288 260.803898 
L 179.835348 259.755403 
L 179.964793 259.755403 
L 179.964793 259.231155 
L 180.349879 259.231155 
L 180.349879 258.706907 
L 180.547259 258.706907 
L 180.547259 258.18266 
L 191.586733 258.18266 
L 191.586733 257.658412 
L 214.325204 257.658412 
L 214.361662 256.609917 
L 214.495082 256.609917 
L 214.543995 255.561421 
L 214.639198 255.561421 
L 214.653458 253.46443 
L 216.593118 253.46443 
L 216.593118 252.940182 
L 226.273065 252.940182 
L 226.352034 251.891687 
L 233.390537 251.891687 
L 233.390537 251.367439 
L 238.830275 251.367439 
L 238.830275 250.843192 
L 242.013575 250.843192 
L 242.030252 249.270448 
L 248.113204 249.270448 
L 248.113204 248.746201 
L 250.209682 248.746201 
L 250.209682 248.221953 
L 252.071795 248.221953 
L 252.071795 247.697705 
L 333.168 247.697705 
L 333.168 247.697705 
" style="fill:none;stroke:#ff7500;stroke-linecap:square;stroke-width:1.5;"/>
   </g>
   <g id="line2d_54">
    <defs>
     <path d="M 0 -6 
L -1.347084 -1.854102 
L -5.706339 -1.854102 
L -2.179628 0.708204 
L -3.526712 4.854102 
L -0 2.291796 
L 3.526712 4.854102 
L 2.179628 0.708204 
L 5.706339 -1.854102 
L 1.347084 -1.854102 
z
" id="m1725e0f98a" style="stroke:#ff7500;stroke-linejoin:bevel;stroke-width:1.5;"/>
    </defs>
    <g>
     <use style="fill:none;stroke:#ff7500;stroke-linejoin:bevel;stroke-width:1.5;" x="96.861245" xlink:href="#m1725e0f98a" y="291.734514"/>
     <use style="fill:none;stroke:#ff7500;stroke-linejoin:bevel;stroke-width:1.5;" x="142.530078" xlink:href="#m1725e0f98a" y="261.328146"/>
     <use style="fill:none;stroke:#ff7500;stroke-linejoin:bevel;stroke-width:1.5;" x="214.653458" xlink:href="#m1725e0f98a" y="255.037173"/>
     <use style="fill:none;stroke:#ff7500;stroke-linejoin:bevel;stroke-width:1.5;" x="252.071795" xlink:href="#m1725e0f98a" y="248.221953"/>
     <use style="fill:none;stroke:#ff7500;stroke-linejoin:bevel;stroke-width:1.5;" x="252.071795" xlink:href="#m1725e0f98a" y="247.697705"/>
     <use style="fill:none;stroke:#ff7500;stroke-linejoin:bevel;stroke-width:1.5;" x="333.168" xlink:href="#m1725e0f98a" y="247.697705"/>
    </g>
   </g>
   <g id="line2d_55">
    <path style="fill:none;stroke:#ff7500;stroke-linecap:square;stroke-width:1.5;"/>
    <g/>
   </g>
   <g id="line2d_56">
    <path clip-path="url(#pd45c1355f8)" d="M 214.433143 256.609917 
" style="fill:none;stroke:#ff7500;stroke-linecap:square;stroke-width:1.5;"/>
    <defs>
     <path d="M -12 12 
L 12 -12 
M -12 -12 
L 12 12 
" id="m47edd7ad2e" style="stroke:#ff7500;"/>
    </defs>
    <g clip-path="url(#pd45c1355f8)">
     <use style="fill:#ff7500;stroke:#ff7500;" x="214.433143" xlink:href="#m47edd7ad2e" y="256.609917"/>
    </g>
   </g>
   <g id="line2d_57">
    <path d="M 333.168 247.697705 
L 363.64328 289.532673 
" style="fill:none;stroke:#ff7500;stroke-linecap:square;stroke-width:1.5;"/>
    <g>
     <use style="fill:none;stroke:#ff7500;stroke-linejoin:bevel;stroke-width:1.5;" x="333.168" xlink:href="#m1725e0f98a" y="247.697705"/>
     <use style="fill:none;stroke:#ff7500;stroke-linejoin:bevel;stroke-width:1.5;" x="363.64328" xlink:href="#m1725e0f98a" y="289.532673"/>
    </g>
   </g>
   <g id="line2d_58">
    <path d="M 333.168 27.513663 
L 363.64328 203.975446 
" style="fill:none;stroke:#ff00ff;stroke-linecap:square;stroke-width:1.5;"/>
    <g>
     <use style="fill:none;stroke:#ff00ff;stroke-linejoin:miter;stroke-width:1.5;" x="333.168" xlink:href="#m55e8c9657b" y="27.513663"/>
     <use style="fill:none;stroke:#ff00ff;stroke-linejoin:miter;stroke-width:1.5;" x="363.64328" xlink:href="#m55e8c9657b" y="203.975446"/>
    </g>
   </g>
   <g id="line2d_59">
    <path d="M 333.168 27.513663 
L 363.64328 118.418218 
" style="fill:none;stroke:#000080;stroke-linecap:square;stroke-width:1.5;"/>
    <g>
     <use style="fill:none;stroke:#000080;stroke-width:1.5;" x="333.168" xlink:href="#m493119ea74" y="27.513663"/>
     <use style="fill:none;stroke:#000080;stroke-width:1.5;" x="363.64328" xlink:href="#m493119ea74" y="118.418218"/>
    </g>
   </g>
   <g id="line2d_60">
    <path d="M 333.168 294.88 
L 333.168 27.513663 
" style="fill:none;stroke:#000000;stroke-linecap:square;stroke-width:1.5;"/>
   </g>
   <g id="patch_3">
    <path d="M 56.12 294.88 
L 56.12 24.84 
" style="fill:none;stroke:#000000;stroke-linecap:square;stroke-linejoin:miter;stroke-width:0.8;"/>
   </g>
   <g id="patch_4">
    <path d="M 333.168 294.88 
L 333.168 24.84 
" style="fill:none;stroke:#000000;stroke-linecap:square;stroke-linejoin:miter;stroke-width:0.8;"/>
   </g>
   <g id="patch_5">
    <path d="M 56.12 294.88 
L 333.168 294.88 
" style="fill:none;stroke:#000000;stroke-linecap:square;stroke-linejoin:miter;stroke-width:0.8;"/>
   </g>
   <g id="patch_6">
    <path d="M 56.12 24.84 
L 333.168 24.84 
" style="fill:none;stroke:#000000;stroke-linecap:square;stroke-linejoin:miter;stroke-width:0.8;"/>
   </g>
   <g id="text_13">
    <!-- ppmf-new -->
    <defs>
     <path d="M 4.203125 54.6875 
L 13.1875 54.6875 
L 24.421875 12.015625 
L 35.59375 54.6875 
L 46.1875 54.6875 
L 57.421875 12.015625 
L 68.609375 54.6875 
L 77.59375 54.6875 
L 63.28125 0 
L 52.6875 0 
L 40.921875 44.828125 
L 29.109375 0 
L 18.5 0 
z
" id="DejaVuSans-77"/>
    </defs>
    <g transform="translate(369.18424 294.223611)scale(0.17 -0.17)">
     <use xlink:href="#DejaVuSans-70"/>
     <use x="63.476562" xlink:href="#DejaVuSans-70"/>
     <use x="126.953125" xlink:href="#DejaVuSans-6d"/>
     <use x="224.365234" xlink:href="#DejaVuSans-66"/>
     <use x="259.492188" xlink:href="#DejaVuSans-2d"/>
     <use x="295.576172" xlink:href="#DejaVuSans-6e"/>
     <use x="358.955078" xlink:href="#DejaVuSans-65"/>
     <use x="420.478516" xlink:href="#DejaVuSans-77"/>
    </g>
   </g>
   <g id="text_14">
    <!-- CMA ES CSA -->
    <defs>
     <path d="M 64.40625 67.28125 
L 64.40625 56.890625 
Q 59.421875 61.53125 53.78125 63.8125 
Q 48.140625 66.109375 41.796875 66.109375 
Q 29.296875 66.109375 22.65625 58.46875 
Q 16.015625 50.828125 16.015625 36.375 
Q 16.015625 21.96875 22.65625 14.328125 
Q 29.296875 6.6875 41.796875 6.6875 
Q 48.140625 6.6875 53.78125 8.984375 
Q 59.421875 11.28125 64.40625 15.921875 
L 64.40625 5.609375 
Q 59.234375 2.09375 53.4375 0.328125 
Q 47.65625 -1.421875 41.21875 -1.421875 
Q 24.65625 -1.421875 15.125 8.703125 
Q 5.609375 18.84375 5.609375 36.375 
Q 5.609375 53.953125 15.125 64.078125 
Q 24.65625 74.21875 41.21875 74.21875 
Q 47.75 74.21875 53.53125 72.484375 
Q 59.328125 70.75 64.40625 67.28125 
z
" id="DejaVuSans-43"/>
     <path d="M 9.8125 72.90625 
L 24.515625 72.90625 
L 43.109375 23.296875 
L 61.8125 72.90625 
L 76.515625 72.90625 
L 76.515625 0 
L 66.890625 0 
L 66.890625 64.015625 
L 48.09375 14.015625 
L 38.1875 14.015625 
L 19.390625 64.015625 
L 19.390625 0 
L 9.8125 0 
z
" id="DejaVuSans-4d"/>
     <path d="M 34.1875 63.1875 
L 20.796875 26.90625 
L 47.609375 26.90625 
z
M 28.609375 72.90625 
L 39.796875 72.90625 
L 67.578125 0 
L 57.328125 0 
L 50.6875 18.703125 
L 17.828125 18.703125 
L 11.1875 0 
L 0.78125 0 
z
" id="DejaVuSans-41"/>
     <path d="M 9.8125 72.90625 
L 55.90625 72.90625 
L 55.90625 64.59375 
L 19.671875 64.59375 
L 19.671875 43.015625 
L 54.390625 43.015625 
L 54.390625 34.71875 
L 19.671875 34.71875 
L 19.671875 8.296875 
L 56.78125 8.296875 
L 56.78125 0 
L 9.8125 0 
z
" id="DejaVuSans-45"/>
     <path d="M 53.515625 70.515625 
L 53.515625 60.890625 
Q 47.90625 63.578125 42.921875 64.890625 
Q 37.9375 66.21875 33.296875 66.21875 
Q 25.25 66.21875 20.875 63.09375 
Q 16.5 59.96875 16.5 54.203125 
Q 16.5 49.359375 19.40625 46.890625 
Q 22.3125 44.4375 30.421875 42.921875 
L 36.375 41.703125 
Q 47.40625 39.59375 52.65625 34.296875 
Q 57.90625 29 57.90625 20.125 
Q 57.90625 9.515625 50.796875 4.046875 
Q 43.703125 -1.421875 29.984375 -1.421875 
Q 24.8125 -1.421875 18.96875 -0.25 
Q 13.140625 0.921875 6.890625 3.21875 
L 6.890625 13.375 
Q 12.890625 10.015625 18.65625 8.296875 
Q 24.421875 6.59375 29.984375 6.59375 
Q 38.421875 6.59375 43.015625 9.90625 
Q 47.609375 13.234375 47.609375 19.390625 
Q 47.609375 24.75 44.3125 27.78125 
Q 41.015625 30.8125 33.5 32.328125 
L 27.484375 33.5 
Q 16.453125 35.6875 11.515625 40.375 
Q 6.59375 45.0625 6.59375 53.421875 
Q 6.59375 63.09375 13.40625 68.65625 
Q 20.21875 74.21875 32.171875 74.21875 
Q 37.3125 74.21875 42.625 73.28125 
Q 47.953125 72.359375 53.515625 70.515625 
z
" id="DejaVuSans-53"/>
    </defs>
    <g transform="translate(369.18424 208.666383)scale(0.17 -0.17)">
     <use xlink:href="#DejaVuSans-43"/>
     <use x="69.824219" xlink:href="#DejaVuSans-4d"/>
     <use x="156.103516" xlink:href="#DejaVuSans-41"/>
     <use x="224.511719" xlink:href="#DejaVuSans-20"/>
     <use x="256.298828" xlink:href="#DejaVuSans-45"/>
     <use x="319.482422" xlink:href="#DejaVuSans-53"/>
     <use x="382.958984" xlink:href="#DejaVuSans-20"/>
     <use x="414.746094" xlink:href="#DejaVuSans-43"/>
     <use x="484.570312" xlink:href="#DejaVuSans-53"/>
     <use x="548.0625" xlink:href="#DejaVuSans-41"/>
    </g>
   </g>
   <g id="text_15">
    <!-- CMA ES PPM -->
    <defs>
     <path d="M 19.671875 64.796875 
L 19.671875 37.40625 
L 32.078125 37.40625 
Q 38.96875 37.40625 42.71875 40.96875 
Q 46.484375 44.53125 46.484375 51.125 
Q 46.484375 57.671875 42.71875 61.234375 
Q 38.96875 64.796875 32.078125 64.796875 
z
M 9.8125 72.90625 
L 32.078125 72.90625 
Q 44.34375 72.90625 50.609375 67.359375 
Q 56.890625 61.8125 56.890625 51.125 
Q 56.890625 40.328125 50.609375 34.8125 
Q 44.34375 29.296875 32.078125 29.296875 
L 19.671875 29.296875 
L 19.671875 0 
L 9.8125 0 
z
" id="DejaVuSans-50"/>
    </defs>
    <g transform="translate(369.18424 123.109155)scale(0.17 -0.17)">
     <use xlink:href="#DejaVuSans-43"/>
     <use x="69.824219" xlink:href="#DejaVuSans-4d"/>
     <use x="156.103516" xlink:href="#DejaVuSans-41"/>
     <use x="224.511719" xlink:href="#DejaVuSans-20"/>
     <use x="256.298828" xlink:href="#DejaVuSans-45"/>
     <use x="319.482422" xlink:href="#DejaVuSans-53"/>
     <use x="382.958984" xlink:href="#DejaVuSans-20"/>
     <use x="414.746094" xlink:href="#DejaVuSans-50"/>
     <use x="475.048828" xlink:href="#DejaVuSans-50"/>
     <use x="535.351562" xlink:href="#DejaVuSans-4d"/>
    </g>
   </g>
   <g id="text_16">
    <!-- best 2009 -->
    <defs>
     <path d="M 48.6875 27.296875 
Q 48.6875 37.203125 44.609375 42.84375 
Q 40.53125 48.484375 33.40625 48.484375 
Q 26.265625 48.484375 22.1875 42.84375 
Q 18.109375 37.203125 18.109375 27.296875 
Q 18.109375 17.390625 22.1875 11.75 
Q 26.265625 6.109375 33.40625 6.109375 
Q 40.53125 6.109375 44.609375 11.75 
Q 48.6875 17.390625 48.6875 27.296875 
z
M 18.109375 46.390625 
Q 20.953125 51.265625 25.265625 53.625 
Q 29.59375 56 35.59375 56 
Q 45.5625 56 51.78125 48.09375 
Q 58.015625 40.1875 58.015625 27.296875 
Q 58.015625 14.40625 51.78125 6.484375 
Q 45.5625 -1.421875 35.59375 -1.421875 
Q 29.59375 -1.421875 25.265625 0.953125 
Q 20.953125 3.328125 18.109375 8.203125 
L 18.109375 0 
L 9.078125 0 
L 9.078125 75.984375 
L 18.109375 75.984375 
z
" id="DejaVuSans-62"/>
     <path d="M 10.984375 1.515625 
L 10.984375 10.5 
Q 14.703125 8.734375 18.5 7.8125 
Q 22.3125 6.890625 25.984375 6.890625 
Q 35.75 6.890625 40.890625 13.453125 
Q 46.046875 20.015625 46.78125 33.40625 
Q 43.953125 29.203125 39.59375 26.953125 
Q 35.25 24.703125 29.984375 24.703125 
Q 19.046875 24.703125 12.671875 31.3125 
Q 6.296875 37.9375 6.296875 49.421875 
Q 6.296875 60.640625 12.9375 67.421875 
Q 19.578125 74.21875 30.609375 74.21875 
Q 43.265625 74.21875 49.921875 64.515625 
Q 56.59375 54.828125 56.59375 36.375 
Q 56.59375 19.140625 48.40625 8.859375 
Q 40.234375 -1.421875 26.421875 -1.421875 
Q 22.703125 -1.421875 18.890625 -0.6875 
Q 15.09375 0.046875 10.984375 1.515625 
z
M 30.609375 32.421875 
Q 37.25 32.421875 41.125 36.953125 
Q 45.015625 41.5 45.015625 49.421875 
Q 45.015625 57.28125 41.125 61.84375 
Q 37.25 66.40625 30.609375 66.40625 
Q 23.96875 66.40625 20.09375 61.84375 
Q 16.21875 57.28125 16.21875 49.421875 
Q 16.21875 41.5 20.09375 36.953125 
Q 23.96875 32.421875 30.609375 32.421875 
z
" id="DejaVuSans-39"/>
    </defs>
    <g transform="translate(369.18424 37.551928)scale(0.17 -0.17)">
     <use xlink:href="#DejaVuSans-62"/>
     <use x="63.476562" xlink:href="#DejaVuSans-65"/>
     <use x="125" xlink:href="#DejaVuSans-73"/>
     <use x="177.099609" xlink:href="#DejaVuSans-74"/>
     <use x="216.308594" xlink:href="#DejaVuSans-20"/>
     <use x="248.095703" xlink:href="#DejaVuSans-32"/>
     <use x="311.71875" xlink:href="#DejaVuSans-30"/>
     <use x="375.341797" xlink:href="#DejaVuSans-30"/>
     <use x="438.964844" xlink:href="#DejaVuSans-39"/>
    </g>
   </g>
   <g id="text_17">
    <!-- bbob f7, 10-D -->
    <defs>
     <path d="M 8.203125 72.90625 
L 55.078125 72.90625 
L 55.078125 68.703125 
L 28.609375 0 
L 18.3125 0 
L 43.21875 64.59375 
L 8.203125 64.59375 
z
" id="DejaVuSans-37"/>
     <path d="M 19.671875 64.796875 
L 19.671875 8.109375 
L 31.59375 8.109375 
Q 46.6875 8.109375 53.6875 14.9375 
Q 60.6875 21.78125 60.6875 36.53125 
Q 60.6875 51.171875 53.6875 57.984375 
Q 46.6875 64.796875 31.59375 64.796875 
z
M 9.8125 72.90625 
L 30.078125 72.90625 
Q 51.265625 72.90625 61.171875 64.09375 
Q 71.09375 55.28125 71.09375 36.53125 
Q 71.09375 17.671875 61.125 8.828125 
Q 51.171875 0 30.078125 0 
L 9.8125 0 
z
" id="DejaVuSans-44"/>
    </defs>
    <g transform="translate(58.89048 35.290806)scale(0.102 -0.102)">
     <use xlink:href="#DejaVuSans-62"/>
     <use x="63.476562" xlink:href="#DejaVuSans-62"/>
     <use x="126.953125" xlink:href="#DejaVuSans-6f"/>
     <use x="188.134766" xlink:href="#DejaVuSans-62"/>
     <use x="251.611328" xlink:href="#DejaVuSans-20"/>
     <use x="283.398438" xlink:href="#DejaVuSans-66"/>
     <use x="318.603516" xlink:href="#DejaVuSans-37"/>
     <use x="382.226562" xlink:href="#DejaVuSans-2c"/>
     <use x="414.013672" xlink:href="#DejaVuSans-20"/>
     <use x="445.800781" xlink:href="#DejaVuSans-31"/>
     <use x="509.423828" xlink:href="#DejaVuSans-30"/>
     <use x="573.046875" xlink:href="#DejaVuSans-2d"/>
     <use x="609.130859" xlink:href="#DejaVuSans-44"/>
    </g>
    <!-- 51 targets: 100..1e-08 -->
    <defs>
     <path d="M 10.796875 72.90625 
L 49.515625 72.90625 
L 49.515625 64.59375 
L 19.828125 64.59375 
L 19.828125 46.734375 
Q 21.96875 47.46875 24.109375 47.828125 
Q 26.265625 48.1875 28.421875 48.1875 
Q 40.625 48.1875 47.75 41.5 
Q 54.890625 34.8125 54.890625 23.390625 
Q 54.890625 11.625 47.5625 5.09375 
Q 40.234375 -1.421875 26.90625 -1.421875 
Q 22.3125 -1.421875 17.546875 -0.640625 
Q 12.796875 0.140625 7.71875 1.703125 
L 7.71875 11.625 
Q 12.109375 9.234375 16.796875 8.0625 
Q 21.484375 6.890625 26.703125 6.890625 
Q 35.15625 6.890625 40.078125 11.328125 
Q 45.015625 15.765625 45.015625 23.390625 
Q 45.015625 31 40.078125 35.4375 
Q 35.15625 39.890625 26.703125 39.890625 
Q 22.75 39.890625 18.8125 39.015625 
Q 14.890625 38.140625 10.796875 36.28125 
z
" id="DejaVuSans-35"/>
     <path d="M 11.71875 12.40625 
L 22.015625 12.40625 
L 22.015625 0 
L 11.71875 0 
z
M 11.71875 51.703125 
L 22.015625 51.703125 
L 22.015625 39.3125 
L 11.71875 39.3125 
z
" id="DejaVuSans-3a"/>
    </defs>
    <g transform="translate(58.89048 46.712575)scale(0.102 -0.102)">
     <use xlink:href="#DejaVuSans-35"/>
     <use x="63.623047" xlink:href="#DejaVuSans-31"/>
     <use x="127.246094" xlink:href="#DejaVuSans-20"/>
     <use x="159.033203" xlink:href="#DejaVuSans-74"/>
     <use x="198.242188" xlink:href="#DejaVuSans-61"/>
     <use x="259.521484" xlink:href="#DejaVuSans-72"/>
     <use x="300.619141" xlink:href="#DejaVuSans-67"/>
     <use x="364.095703" xlink:href="#DejaVuSans-65"/>
     <use x="425.619141" xlink:href="#DejaVuSans-74"/>
     <use x="464.828125" xlink:href="#DejaVuSans-73"/>
     <use x="516.927734" xlink:href="#DejaVuSans-3a"/>
     <use x="550.619141" xlink:href="#DejaVuSans-20"/>
     <use x="582.40625" xlink:href="#DejaVuSans-31"/>
     <use x="646.029297" xlink:href="#DejaVuSans-30"/>
     <use x="709.652344" xlink:href="#DejaVuSans-30"/>
     <use x="773.275391" xlink:href="#DejaVuSans-2e"/>
     <use x="805.0625" xlink:href="#DejaVuSans-2e"/>
     <use x="836.849609" xlink:href="#DejaVuSans-31"/>
     <use x="900.472656" xlink:href="#DejaVuSans-65"/>
     <use x="961.996094" xlink:href="#DejaVuSans-2d"/>
     <use x="998.080078" xlink:href="#DejaVuSans-30"/>
     <use x="1061.703125" xlink:href="#DejaVuSans-38"/>
    </g>
    <!-- 15 instances -->
    <g transform="translate(58.89048 58.134344)scale(0.102 -0.102)">
     <use xlink:href="#DejaVuSans-31"/>
     <use x="63.623047" xlink:href="#DejaVuSans-35"/>
     <use x="127.246094" xlink:href="#DejaVuSans-20"/>
     <use x="159.033203" xlink:href="#DejaVuSans-69"/>
     <use x="186.816406" xlink:href="#DejaVuSans-6e"/>
     <use x="250.195312" xlink:href="#DejaVuSans-73"/>
     <use x="302.294922" xlink:href="#DejaVuSans-74"/>
     <use x="341.503906" xlink:href="#DejaVuSans-61"/>
     <use x="402.783203" xlink:href="#DejaVuSans-6e"/>
     <use x="466.162109" xlink:href="#DejaVuSans-63"/>
     <use x="521.142578" xlink:href="#DejaVuSans-65"/>
     <use x="582.666016" xlink:href="#DejaVuSans-73"/>
    </g>
   </g>
   <g id="text_18">
    <!-- v0.0.0 -->
    <g style="fill:#808080;" transform="translate(178.96275 290.099912)scale(0.1 -0.1)">
     <use xlink:href="#DejaVuSans-76"/>
     <use x="59.179688" xlink:href="#DejaVuSans-30"/>
     <use x="122.802734" xlink:href="#DejaVuSans-2e"/>
     <use x="154.589844" xlink:href="#DejaVuSans-30"/>
     <use x="218.212891" xlink:href="#DejaVuSans-2e"/>
     <use x="250" xlink:href="#DejaVuSans-30"/>
    </g>
   </g>
   <g id="text_19">
    <!-- 7 Step-ellipsoid -->
    <g transform="translate(117.434625 18.84)scale(0.2 -0.2)">
     <use xlink:href="#DejaVuSans-37"/>
     <use x="63.623047" xlink:href="#DejaVuSans-20"/>
     <use x="95.410156" xlink:href="#DejaVuSans-53"/>
     <use x="158.886719" xlink:href="#DejaVuSans-74"/>
     <use x="198.095703" xlink:href="#DejaVuSans-65"/>
     <use x="259.619141" xlink:href="#DejaVuSans-70"/>
     <use x="323.095703" xlink:href="#DejaVuSans-2d"/>
     <use x="359.179688" xlink:href="#DejaVuSans-65"/>
     <use x="420.703125" xlink:href="#DejaVuSans-6c"/>
     <use x="448.486328" xlink:href="#DejaVuSans-6c"/>
     <use x="476.269531" xlink:href="#DejaVuSans-69"/>
     <use x="504.052734" xlink:href="#DejaVuSans-70"/>
     <use x="567.529297" xlink:href="#DejaVuSans-73"/>
     <use x="619.628906" xlink:href="#DejaVuSans-6f"/>
     <use x="680.810547" xlink:href="#DejaVuSans-69"/>
     <use x="708.59375" xlink:href="#DejaVuSans-64"/>
    </g>
   </g>
  </g>
 </g>
 <defs>
  <clipPath id="pd45c1355f8">
   <rect height="270.04" width="277.048" x="56.12" y="24.84"/>
  </clipPath>
 </defs>
</svg>
