<?xml version="1.0" encoding="utf-8" standalone="no"?>
<!DOCTYPE svg PUBLIC "-//W3C//DTD SVG 1.1//EN"
  "http://www.w3.org/Graphics/SVG/1.1/DTD/svg11.dtd">
<!-- Created with matplotlib (http://matplotlib.org/) -->
<svg height="345pt" version="1.1" viewBox="0 0 460 345" width="460pt" xmlns="http://www.w3.org/2000/svg" xmlns:xlink="http://www.w3.org/1999/xlink">
 <defs>
  <style type="text/css">
*{stroke-linecap:butt;stroke-linejoin:round;}
  </style>
 </defs>
 <g id="figure_1">
  <g id="patch_1">
   <path d="M 0 345.6 
L 460.8 345.6 
L 460.8 0 
L 0 0 
z
" style="fill:#ffffff;"/>
  </g>
  <g id="axes_1">
   <g id="patch_2">
    <path d="M 56.12 294.88 
L 333.168 294.88 
L 333.168 24.84 
L 56.12 24.84 
z
" style="fill:#ffffff;"/>
   </g>
   <g id="line2d_1">
    <path d="M 114.380214 294.88 
L 114.380214 289.637523 
L 114.837842 289.637523 
L 114.837842 284.395046 
L 115.256077 284.395046 
L 115.256077 279.152568 
L 116.036901 279.152568 
L 116.036901 273.910091 
L 121.417105 273.910091 
L 121.417105 268.667614 
L 124.069494 268.667614 
L 124.069494 263.425137 
L 127.416471 263.425137 
L 127.416471 258.18266 
L 129.450049 258.18266 
L 129.450049 252.940182 
L 131.537454 252.940182 
L 131.537454 247.697705 
L 132.882847 247.697705 
L 132.882847 242.455228 
L 134.73529 242.455228 
L 134.73529 237.212751 
L 135.917635 237.212751 
L 135.917635 231.970274 
L 136.82081 231.970274 
L 136.82081 226.727797 
L 138.345851 226.727797 
L 138.345851 221.485319 
L 139.411992 221.485319 
L 139.411992 216.242842 
L 140.687737 216.242842 
L 140.687737 211.000365 
L 141.334118 211.000365 
L 141.334118 205.757888 
L 141.793145 205.757888 
L 141.793145 200.515411 
L 142.428336 200.515411 
L 142.428336 195.272933 
L 142.776273 195.272933 
L 142.776273 190.030456 
L 143.117307 190.030456 
L 143.117307 184.787979 
L 143.478392 184.787979 
L 143.478392 179.545502 
L 143.863366 179.545502 
L 143.863366 174.303025 
L 144.321345 174.303025 
L 144.321345 169.060547 
L 144.752587 169.060547 
L 144.752587 163.81807 
L 147.782136 163.81807 
L 147.782136 158.575593 
L 150.463774 158.575593 
L 150.463774 153.333116 
L 152.419095 153.333116 
L 152.419095 148.090639 
L 152.686469 148.090639 
L 152.686469 142.848162 
L 155.129314 142.848162 
L 155.129314 137.605684 
L 155.344578 137.605684 
L 155.344578 132.363207 
L 155.580934 132.363207 
L 155.580934 127.12073 
L 155.814083 127.12073 
L 155.814083 121.878253 
L 161.555898 121.878253 
L 161.555898 116.635776 
L 166.430284 116.635776 
L 166.430284 111.393298 
L 166.647777 111.393298 
L 166.647777 106.150821 
L 166.852971 106.150821 
L 166.852971 100.908344 
L 167.051686 100.908344 
L 167.051686 95.665867 
L 167.236085 95.665867 
L 167.236085 90.42339 
L 167.441031 90.42339 
L 167.441031 85.180912 
L 167.644869 85.180912 
L 167.644869 79.938435 
L 167.843734 79.938435 
L 167.843734 74.695958 
L 168.024987 74.695958 
L 168.024987 69.453481 
L 168.196753 69.453481 
L 168.196753 64.211004 
L 168.36306 64.211004 
L 168.36306 58.968526 
L 168.510377 58.968526 
L 168.510377 53.726049 
L 168.652745 53.726049 
L 168.652745 48.483572 
L 168.79272 48.483572 
L 168.79272 43.241095 
L 168.944903 43.241095 
L 168.944903 37.998618 
L 169.104159 37.998618 
L 169.104159 32.756141 
L 169.42892 32.756141 
L 169.42892 27.513663 
L 333.168 27.513663 
" style="fill:none;stroke:#f5deb3;stroke-linecap:square;stroke-width:4;"/>
   </g>
   <g id="line2d_2">
    <defs>
     <path d="M -0 7.778175 
L 7.778175 0 
L 0 -7.778175 
L -7.778175 -0 
z
" id="m16e8a78d79" style="stroke:#f5deb3;stroke-linejoin:miter;stroke-width:1.5;"/>
    </defs>
    <g>
     <use style="fill:#f5deb3;stroke:#f5deb3;stroke-linejoin:miter;stroke-width:1.5;" x="131.537454" xlink:href="#m16e8a78d79" y="247.697705"/>
     <use style="fill:#f5deb3;stroke:#f5deb3;stroke-linejoin:miter;stroke-width:1.5;" x="166.430284" xlink:href="#m16e8a78d79" y="111.393298"/>
     <use style="fill:#f5deb3;stroke:#f5deb3;stroke-linejoin:miter;stroke-width:1.5;" x="169.42892" xlink:href="#m16e8a78d79" y="32.756141"/>
     <use style="fill:#f5deb3;stroke:#f5deb3;stroke-linejoin:miter;stroke-width:1.5;" x="169.42892" xlink:href="#m16e8a78d79" y="27.513663"/>
     <use style="fill:#f5deb3;stroke:#f5deb3;stroke-linejoin:miter;stroke-width:1.5;" x="333.168" xlink:href="#m16e8a78d79" y="27.513663"/>
    </g>
   </g>
   <g id="line2d_3">
    <path style="fill:none;stroke:#f5deb3;stroke-linecap:square;stroke-width:4;"/>
    <g/>
   </g>
   <g id="line2d_4">
    <path d="M 333.168 27.513663 
L 363.64328 32.86099 
" style="fill:none;stroke:#f5deb3;stroke-linecap:square;stroke-width:4;"/>
    <g>
     <use style="fill:#f5deb3;stroke:#f5deb3;stroke-linejoin:miter;stroke-width:1.5;" x="333.168" xlink:href="#m16e8a78d79" y="27.513663"/>
     <use style="fill:#f5deb3;stroke:#f5deb3;stroke-linejoin:miter;stroke-width:1.5;" x="363.64328" xlink:href="#m16e8a78d79" y="32.86099"/>
    </g>
   </g>
   <g id="matplotlib.axis_1">
    <g id="xtick_1">
     <g id="line2d_5">
      <path clip-path="url(#p7542531e8b)" d="M 56.12 294.88 
L 56.12 24.84 
" style="fill:none;stroke:#b0b0b0;stroke-linecap:square;stroke-width:0.8;"/>
     </g>
     <g id="line2d_6">
      <defs>
       <path d="M 0 0 
L 0 3.5 
" id="m8f76b423a3" style="stroke:#000000;stroke-width:0.8;"/>
      </defs>
      <g>
       <use style="stroke:#000000;stroke-width:0.8;" x="56.12" xlink:href="#m8f76b423a3" y="294.88"/>
      </g>
     </g>
     <g id="text_1">
      <!-- 0 -->
      <defs>
       <path d="M 31.78125 66.40625 
Q 24.171875 66.40625 20.328125 58.90625 
Q 16.5 51.421875 16.5 36.375 
Q 16.5 21.390625 20.328125 13.890625 
Q 24.171875 6.390625 31.78125 6.390625 
Q 39.453125 6.390625 43.28125 13.890625 
Q 47.125 21.390625 47.125 36.375 
Q 47.125 51.421875 43.28125 58.90625 
Q 39.453125 66.40625 31.78125 66.40625 
z
M 31.78125 74.21875 
Q 44.046875 74.21875 50.515625 64.515625 
Q 56.984375 54.828125 56.984375 36.375 
Q 56.984375 17.96875 50.515625 8.265625 
Q 44.046875 -1.421875 31.78125 -1.421875 
Q 19.53125 -1.421875 13.0625 8.265625 
Q 6.59375 17.96875 6.59375 36.375 
Q 6.59375 54.828125 13.0625 64.515625 
Q 19.53125 74.21875 31.78125 74.21875 
z
" id="DejaVuSans-30"/>
      </defs>
      <g transform="translate(49.7575 317.076875)scale(0.2 -0.2)">
       <use xlink:href="#DejaVuSans-30"/>
      </g>
     </g>
    </g>
    <g id="xtick_2">
     <g id="line2d_7">
      <path clip-path="url(#p7542531e8b)" d="M 135.276571 294.88 
L 135.276571 24.84 
" style="fill:none;stroke:#b0b0b0;stroke-linecap:square;stroke-width:0.8;"/>
     </g>
     <g id="line2d_8">
      <g>
       <use style="stroke:#000000;stroke-width:0.8;" x="135.276571" xlink:href="#m8f76b423a3" y="294.88"/>
      </g>
     </g>
     <g id="text_2">
      <!-- 2 -->
      <defs>
       <path d="M 19.1875 8.296875 
L 53.609375 8.296875 
L 53.609375 0 
L 7.328125 0 
L 7.328125 8.296875 
Q 12.9375 14.109375 22.625 23.890625 
Q 32.328125 33.6875 34.8125 36.53125 
Q 39.546875 41.84375 41.421875 45.53125 
Q 43.3125 49.21875 43.3125 52.78125 
Q 43.3125 58.59375 39.234375 62.25 
Q 35.15625 65.921875 28.609375 65.921875 
Q 23.96875 65.921875 18.8125 64.3125 
Q 13.671875 62.703125 7.8125 59.421875 
L 7.8125 69.390625 
Q 13.765625 71.78125 18.9375 73 
Q 24.125 74.21875 28.421875 74.21875 
Q 39.75 74.21875 46.484375 68.546875 
Q 53.21875 62.890625 53.21875 53.421875 
Q 53.21875 48.921875 51.53125 44.890625 
Q 49.859375 40.875 45.40625 35.40625 
Q 44.1875 33.984375 37.640625 27.21875 
Q 31.109375 20.453125 19.1875 8.296875 
z
" id="DejaVuSans-32"/>
      </defs>
      <g transform="translate(128.914071 317.076875)scale(0.2 -0.2)">
       <use xlink:href="#DejaVuSans-32"/>
      </g>
     </g>
    </g>
    <g id="xtick_3">
     <g id="line2d_9">
      <path clip-path="url(#p7542531e8b)" d="M 214.433143 294.88 
L 214.433143 24.84 
" style="fill:none;stroke:#b0b0b0;stroke-linecap:square;stroke-width:0.8;"/>
     </g>
     <g id="line2d_10">
      <g>
       <use style="stroke:#000000;stroke-width:0.8;" x="214.433143" xlink:href="#m8f76b423a3" y="294.88"/>
      </g>
     </g>
     <g id="text_3">
      <!-- 4 -->
      <defs>
       <path d="M 37.796875 64.3125 
L 12.890625 25.390625 
L 37.796875 25.390625 
z
M 35.203125 72.90625 
L 47.609375 72.90625 
L 47.609375 25.390625 
L 58.015625 25.390625 
L 58.015625 17.1875 
L 47.609375 17.1875 
L 47.609375 0 
L 37.796875 0 
L 37.796875 17.1875 
L 4.890625 17.1875 
L 4.890625 26.703125 
z
" id="DejaVuSans-34"/>
      </defs>
      <g transform="translate(208.070643 317.076875)scale(0.2 -0.2)">
       <use xlink:href="#DejaVuSans-34"/>
      </g>
     </g>
    </g>
    <g id="xtick_4">
     <g id="line2d_11">
      <path clip-path="url(#p7542531e8b)" d="M 293.589714 294.88 
L 293.589714 24.84 
" style="fill:none;stroke:#b0b0b0;stroke-linecap:square;stroke-width:0.8;"/>
     </g>
     <g id="line2d_12">
      <g>
       <use style="stroke:#000000;stroke-width:0.8;" x="293.589714" xlink:href="#m8f76b423a3" y="294.88"/>
      </g>
     </g>
     <g id="text_4">
      <!-- 6 -->
      <defs>
       <path d="M 33.015625 40.375 
Q 26.375 40.375 22.484375 35.828125 
Q 18.609375 31.296875 18.609375 23.390625 
Q 18.609375 15.53125 22.484375 10.953125 
Q 26.375 6.390625 33.015625 6.390625 
Q 39.65625 6.390625 43.53125 10.953125 
Q 47.40625 15.53125 47.40625 23.390625 
Q 47.40625 31.296875 43.53125 35.828125 
Q 39.65625 40.375 33.015625 40.375 
z
M 52.59375 71.296875 
L 52.59375 62.3125 
Q 48.875 64.0625 45.09375 64.984375 
Q 41.3125 65.921875 37.59375 65.921875 
Q 27.828125 65.921875 22.671875 59.328125 
Q 17.53125 52.734375 16.796875 39.40625 
Q 19.671875 43.65625 24.015625 45.921875 
Q 28.375 48.1875 33.59375 48.1875 
Q 44.578125 48.1875 50.953125 41.515625 
Q 57.328125 34.859375 57.328125 23.390625 
Q 57.328125 12.15625 50.6875 5.359375 
Q 44.046875 -1.421875 33.015625 -1.421875 
Q 20.359375 -1.421875 13.671875 8.265625 
Q 6.984375 17.96875 6.984375 36.375 
Q 6.984375 53.65625 15.1875 63.9375 
Q 23.390625 74.21875 37.203125 74.21875 
Q 40.921875 74.21875 44.703125 73.484375 
Q 48.484375 72.75 52.59375 71.296875 
z
" id="DejaVuSans-36"/>
      </defs>
      <g transform="translate(287.227214 317.076875)scale(0.2 -0.2)">
       <use xlink:href="#DejaVuSans-36"/>
      </g>
     </g>
    </g>
    <g id="xtick_5">
     <g id="line2d_13">
      <path clip-path="url(#p7542531e8b)" d="M 56.12 294.88 
L 56.12 24.84 
" style="fill:none;stroke:#b0b0b0;stroke-linecap:square;stroke-width:0.8;"/>
     </g>
     <g id="line2d_14">
      <defs>
       <path d="M 0 0 
L 0 2 
" id="m5c25b0cbdc" style="stroke:#000000;stroke-width:0.6;"/>
      </defs>
      <g>
       <use style="stroke:#000000;stroke-width:0.6;" x="56.12" xlink:href="#m5c25b0cbdc" y="294.88"/>
      </g>
     </g>
    </g>
    <g id="xtick_6">
     <g id="line2d_15">
      <path clip-path="url(#p7542531e8b)" d="M 95.698286 294.88 
L 95.698286 24.84 
" style="fill:none;stroke:#b0b0b0;stroke-linecap:square;stroke-width:0.8;"/>
     </g>
     <g id="line2d_16">
      <g>
       <use style="stroke:#000000;stroke-width:0.6;" x="95.698286" xlink:href="#m5c25b0cbdc" y="294.88"/>
      </g>
     </g>
    </g>
    <g id="xtick_7">
     <g id="line2d_17">
      <path clip-path="url(#p7542531e8b)" d="M 135.276571 294.88 
L 135.276571 24.84 
" style="fill:none;stroke:#b0b0b0;stroke-linecap:square;stroke-width:0.8;"/>
     </g>
     <g id="line2d_18">
      <g>
       <use style="stroke:#000000;stroke-width:0.6;" x="135.276571" xlink:href="#m5c25b0cbdc" y="294.88"/>
      </g>
     </g>
    </g>
    <g id="xtick_8">
     <g id="line2d_19">
      <path clip-path="url(#p7542531e8b)" d="M 174.854857 294.88 
L 174.854857 24.84 
" style="fill:none;stroke:#b0b0b0;stroke-linecap:square;stroke-width:0.8;"/>
     </g>
     <g id="line2d_20">
      <g>
       <use style="stroke:#000000;stroke-width:0.6;" x="174.854857" xlink:href="#m5c25b0cbdc" y="294.88"/>
      </g>
     </g>
    </g>
    <g id="xtick_9">
     <g id="line2d_21">
      <path clip-path="url(#p7542531e8b)" d="M 214.433143 294.88 
L 214.433143 24.84 
" style="fill:none;stroke:#b0b0b0;stroke-linecap:square;stroke-width:0.8;"/>
     </g>
     <g id="line2d_22">
      <g>
       <use style="stroke:#000000;stroke-width:0.6;" x="214.433143" xlink:href="#m5c25b0cbdc" y="294.88"/>
      </g>
     </g>
    </g>
    <g id="xtick_10">
     <g id="line2d_23">
      <path clip-path="url(#p7542531e8b)" d="M 254.011429 294.88 
L 254.011429 24.84 
" style="fill:none;stroke:#b0b0b0;stroke-linecap:square;stroke-width:0.8;"/>
     </g>
     <g id="line2d_24">
      <g>
       <use style="stroke:#000000;stroke-width:0.6;" x="254.011429" xlink:href="#m5c25b0cbdc" y="294.88"/>
      </g>
     </g>
    </g>
    <g id="xtick_11">
     <g id="line2d_25">
      <path clip-path="url(#p7542531e8b)" d="M 293.589714 294.88 
L 293.589714 24.84 
" style="fill:none;stroke:#b0b0b0;stroke-linecap:square;stroke-width:0.8;"/>
     </g>
     <g id="line2d_26">
      <g>
       <use style="stroke:#000000;stroke-width:0.6;" x="293.589714" xlink:href="#m5c25b0cbdc" y="294.88"/>
      </g>
     </g>
    </g>
    <g id="xtick_12">
     <g id="line2d_27">
      <path clip-path="url(#p7542531e8b)" d="M 333.168 294.88 
L 333.168 24.84 
" style="fill:none;stroke:#b0b0b0;stroke-linecap:square;stroke-width:0.8;"/>
     </g>
     <g id="line2d_28">
      <g>
       <use style="stroke:#000000;stroke-width:0.6;" x="333.168" xlink:href="#m5c25b0cbdc" y="294.88"/>
      </g>
     </g>
    </g>
    <g id="text_5">
     <!-- log10(# f-evals / dimension) -->
     <defs>
      <path d="M 9.421875 75.984375 
L 18.40625 75.984375 
L 18.40625 0 
L 9.421875 0 
z
" id="DejaVuSans-6c"/>
      <path d="M 30.609375 48.390625 
Q 23.390625 48.390625 19.1875 42.75 
Q 14.984375 37.109375 14.984375 27.296875 
Q 14.984375 17.484375 19.15625 11.84375 
Q 23.34375 6.203125 30.609375 6.203125 
Q 37.796875 6.203125 41.984375 11.859375 
Q 46.1875 17.53125 46.1875 27.296875 
Q 46.1875 37.015625 41.984375 42.703125 
Q 37.796875 48.390625 30.609375 48.390625 
z
M 30.609375 56 
Q 42.328125 56 49.015625 48.375 
Q 55.71875 40.765625 55.71875 27.296875 
Q 55.71875 13.875 49.015625 6.21875 
Q 42.328125 -1.421875 30.609375 -1.421875 
Q 18.84375 -1.421875 12.171875 6.21875 
Q 5.515625 13.875 5.515625 27.296875 
Q 5.515625 40.765625 12.171875 48.375 
Q 18.84375 56 30.609375 56 
z
" id="DejaVuSans-6f"/>
      <path d="M 45.40625 27.984375 
Q 45.40625 37.75 41.375 43.109375 
Q 37.359375 48.484375 30.078125 48.484375 
Q 22.859375 48.484375 18.828125 43.109375 
Q 14.796875 37.75 14.796875 27.984375 
Q 14.796875 18.265625 18.828125 12.890625 
Q 22.859375 7.515625 30.078125 7.515625 
Q 37.359375 7.515625 41.375 12.890625 
Q 45.40625 18.265625 45.40625 27.984375 
z
M 54.390625 6.78125 
Q 54.390625 -7.171875 48.1875 -13.984375 
Q 42 -20.796875 29.203125 -20.796875 
Q 24.46875 -20.796875 20.265625 -20.09375 
Q 16.0625 -19.390625 12.109375 -17.921875 
L 12.109375 -9.1875 
Q 16.0625 -11.328125 19.921875 -12.34375 
Q 23.78125 -13.375 27.78125 -13.375 
Q 36.625 -13.375 41.015625 -8.765625 
Q 45.40625 -4.15625 45.40625 5.171875 
L 45.40625 9.625 
Q 42.625 4.78125 38.28125 2.390625 
Q 33.9375 0 27.875 0 
Q 17.828125 0 11.671875 7.65625 
Q 5.515625 15.328125 5.515625 27.984375 
Q 5.515625 40.671875 11.671875 48.328125 
Q 17.828125 56 27.875 56 
Q 33.9375 56 38.28125 53.609375 
Q 42.625 51.21875 45.40625 46.390625 
L 45.40625 54.6875 
L 54.390625 54.6875 
z
" id="DejaVuSans-67"/>
      <path d="M 12.40625 8.296875 
L 28.515625 8.296875 
L 28.515625 63.921875 
L 10.984375 60.40625 
L 10.984375 69.390625 
L 28.421875 72.90625 
L 38.28125 72.90625 
L 38.28125 8.296875 
L 54.390625 8.296875 
L 54.390625 0 
L 12.40625 0 
z
" id="DejaVuSans-31"/>
      <path d="M 31 75.875 
Q 24.46875 64.65625 21.28125 53.65625 
Q 18.109375 42.671875 18.109375 31.390625 
Q 18.109375 20.125 21.3125 9.0625 
Q 24.515625 -2 31 -13.1875 
L 23.1875 -13.1875 
Q 15.875 -1.703125 12.234375 9.375 
Q 8.59375 20.453125 8.59375 31.390625 
Q 8.59375 42.28125 12.203125 53.3125 
Q 15.828125 64.359375 23.1875 75.875 
z
" id="DejaVuSans-28"/>
      <path d="M 51.125 44 
L 36.921875 44 
L 32.8125 27.6875 
L 47.125 27.6875 
z
M 43.796875 71.78125 
L 38.71875 51.515625 
L 52.984375 51.515625 
L 58.109375 71.78125 
L 65.921875 71.78125 
L 60.890625 51.515625 
L 76.125 51.515625 
L 76.125 44 
L 58.984375 44 
L 54.984375 27.6875 
L 70.515625 27.6875 
L 70.515625 20.21875 
L 53.078125 20.21875 
L 48 0 
L 40.1875 0 
L 45.21875 20.21875 
L 30.90625 20.21875 
L 25.875 0 
L 18.015625 0 
L 23.09375 20.21875 
L 7.71875 20.21875 
L 7.71875 27.6875 
L 24.90625 27.6875 
L 29 44 
L 13.28125 44 
L 13.28125 51.515625 
L 30.90625 51.515625 
L 35.890625 71.78125 
z
" id="DejaVuSans-23"/>
      <path id="DejaVuSans-20"/>
      <path d="M 37.109375 75.984375 
L 37.109375 68.5 
L 28.515625 68.5 
Q 23.6875 68.5 21.796875 66.546875 
Q 19.921875 64.59375 19.921875 59.515625 
L 19.921875 54.6875 
L 34.71875 54.6875 
L 34.71875 47.703125 
L 19.921875 47.703125 
L 19.921875 0 
L 10.890625 0 
L 10.890625 47.703125 
L 2.296875 47.703125 
L 2.296875 54.6875 
L 10.890625 54.6875 
L 10.890625 58.5 
Q 10.890625 67.625 15.140625 71.796875 
Q 19.390625 75.984375 28.609375 75.984375 
z
" id="DejaVuSans-66"/>
      <path d="M 4.890625 31.390625 
L 31.203125 31.390625 
L 31.203125 23.390625 
L 4.890625 23.390625 
z
" id="DejaVuSans-2d"/>
      <path d="M 56.203125 29.59375 
L 56.203125 25.203125 
L 14.890625 25.203125 
Q 15.484375 15.921875 20.484375 11.0625 
Q 25.484375 6.203125 34.421875 6.203125 
Q 39.59375 6.203125 44.453125 7.46875 
Q 49.3125 8.734375 54.109375 11.28125 
L 54.109375 2.78125 
Q 49.265625 0.734375 44.1875 -0.34375 
Q 39.109375 -1.421875 33.890625 -1.421875 
Q 20.796875 -1.421875 13.15625 6.1875 
Q 5.515625 13.8125 5.515625 26.8125 
Q 5.515625 40.234375 12.765625 48.109375 
Q 20.015625 56 32.328125 56 
Q 43.359375 56 49.78125 48.890625 
Q 56.203125 41.796875 56.203125 29.59375 
z
M 47.21875 32.234375 
Q 47.125 39.59375 43.09375 43.984375 
Q 39.0625 48.390625 32.421875 48.390625 
Q 24.90625 48.390625 20.390625 44.140625 
Q 15.875 39.890625 15.1875 32.171875 
z
" id="DejaVuSans-65"/>
      <path d="M 2.984375 54.6875 
L 12.5 54.6875 
L 29.59375 8.796875 
L 46.6875 54.6875 
L 56.203125 54.6875 
L 35.6875 0 
L 23.484375 0 
z
" id="DejaVuSans-76"/>
      <path d="M 34.28125 27.484375 
Q 23.390625 27.484375 19.1875 25 
Q 14.984375 22.515625 14.984375 16.5 
Q 14.984375 11.71875 18.140625 8.90625 
Q 21.296875 6.109375 26.703125 6.109375 
Q 34.1875 6.109375 38.703125 11.40625 
Q 43.21875 16.703125 43.21875 25.484375 
L 43.21875 27.484375 
z
M 52.203125 31.203125 
L 52.203125 0 
L 43.21875 0 
L 43.21875 8.296875 
Q 40.140625 3.328125 35.546875 0.953125 
Q 30.953125 -1.421875 24.3125 -1.421875 
Q 15.921875 -1.421875 10.953125 3.296875 
Q 6 8.015625 6 15.921875 
Q 6 25.140625 12.171875 29.828125 
Q 18.359375 34.515625 30.609375 34.515625 
L 43.21875 34.515625 
L 43.21875 35.40625 
Q 43.21875 41.609375 39.140625 45 
Q 35.0625 48.390625 27.6875 48.390625 
Q 23 48.390625 18.546875 47.265625 
Q 14.109375 46.140625 10.015625 43.890625 
L 10.015625 52.203125 
Q 14.9375 54.109375 19.578125 55.046875 
Q 24.21875 56 28.609375 56 
Q 40.484375 56 46.34375 49.84375 
Q 52.203125 43.703125 52.203125 31.203125 
z
" id="DejaVuSans-61"/>
      <path d="M 44.28125 53.078125 
L 44.28125 44.578125 
Q 40.484375 46.53125 36.375 47.5 
Q 32.28125 48.484375 27.875 48.484375 
Q 21.1875 48.484375 17.84375 46.4375 
Q 14.5 44.390625 14.5 40.28125 
Q 14.5 37.15625 16.890625 35.375 
Q 19.28125 33.59375 26.515625 31.984375 
L 29.59375 31.296875 
Q 39.15625 29.25 43.1875 25.515625 
Q 47.21875 21.78125 47.21875 15.09375 
Q 47.21875 7.46875 41.1875 3.015625 
Q 35.15625 -1.421875 24.609375 -1.421875 
Q 20.21875 -1.421875 15.453125 -0.5625 
Q 10.6875 0.296875 5.421875 2 
L 5.421875 11.28125 
Q 10.40625 8.6875 15.234375 7.390625 
Q 20.0625 6.109375 24.8125 6.109375 
Q 31.15625 6.109375 34.5625 8.28125 
Q 37.984375 10.453125 37.984375 14.40625 
Q 37.984375 18.0625 35.515625 20.015625 
Q 33.0625 21.96875 24.703125 23.78125 
L 21.578125 24.515625 
Q 13.234375 26.265625 9.515625 29.90625 
Q 5.8125 33.546875 5.8125 39.890625 
Q 5.8125 47.609375 11.28125 51.796875 
Q 16.75 56 26.8125 56 
Q 31.78125 56 36.171875 55.265625 
Q 40.578125 54.546875 44.28125 53.078125 
z
" id="DejaVuSans-73"/>
      <path d="M 25.390625 72.90625 
L 33.6875 72.90625 
L 8.296875 -9.28125 
L 0 -9.28125 
z
" id="DejaVuSans-2f"/>
      <path d="M 45.40625 46.390625 
L 45.40625 75.984375 
L 54.390625 75.984375 
L 54.390625 0 
L 45.40625 0 
L 45.40625 8.203125 
Q 42.578125 3.328125 38.25 0.953125 
Q 33.9375 -1.421875 27.875 -1.421875 
Q 17.96875 -1.421875 11.734375 6.484375 
Q 5.515625 14.40625 5.515625 27.296875 
Q 5.515625 40.1875 11.734375 48.09375 
Q 17.96875 56 27.875 56 
Q 33.9375 56 38.25 53.625 
Q 42.578125 51.265625 45.40625 46.390625 
z
M 14.796875 27.296875 
Q 14.796875 17.390625 18.875 11.75 
Q 22.953125 6.109375 30.078125 6.109375 
Q 37.203125 6.109375 41.296875 11.75 
Q 45.40625 17.390625 45.40625 27.296875 
Q 45.40625 37.203125 41.296875 42.84375 
Q 37.203125 48.484375 30.078125 48.484375 
Q 22.953125 48.484375 18.875 42.84375 
Q 14.796875 37.203125 14.796875 27.296875 
z
" id="DejaVuSans-64"/>
      <path d="M 9.421875 54.6875 
L 18.40625 54.6875 
L 18.40625 0 
L 9.421875 0 
z
M 9.421875 75.984375 
L 18.40625 75.984375 
L 18.40625 64.59375 
L 9.421875 64.59375 
z
" id="DejaVuSans-69"/>
      <path d="M 52 44.1875 
Q 55.375 50.25 60.0625 53.125 
Q 64.75 56 71.09375 56 
Q 79.640625 56 84.28125 50.015625 
Q 88.921875 44.046875 88.921875 33.015625 
L 88.921875 0 
L 79.890625 0 
L 79.890625 32.71875 
Q 79.890625 40.578125 77.09375 44.375 
Q 74.3125 48.1875 68.609375 48.1875 
Q 61.625 48.1875 57.5625 43.546875 
Q 53.515625 38.921875 53.515625 30.90625 
L 53.515625 0 
L 44.484375 0 
L 44.484375 32.71875 
Q 44.484375 40.625 41.703125 44.40625 
Q 38.921875 48.1875 33.109375 48.1875 
Q 26.21875 48.1875 22.15625 43.53125 
Q 18.109375 38.875 18.109375 30.90625 
L 18.109375 0 
L 9.078125 0 
L 9.078125 54.6875 
L 18.109375 54.6875 
L 18.109375 46.1875 
Q 21.1875 51.21875 25.484375 53.609375 
Q 29.78125 56 35.6875 56 
Q 41.65625 56 45.828125 52.96875 
Q 50 49.953125 52 44.1875 
z
" id="DejaVuSans-6d"/>
      <path d="M 54.890625 33.015625 
L 54.890625 0 
L 45.90625 0 
L 45.90625 32.71875 
Q 45.90625 40.484375 42.875 44.328125 
Q 39.84375 48.1875 33.796875 48.1875 
Q 26.515625 48.1875 22.3125 43.546875 
Q 18.109375 38.921875 18.109375 30.90625 
L 18.109375 0 
L 9.078125 0 
L 9.078125 54.6875 
L 18.109375 54.6875 
L 18.109375 46.1875 
Q 21.34375 51.125 25.703125 53.5625 
Q 30.078125 56 35.796875 56 
Q 45.21875 56 50.046875 50.171875 
Q 54.890625 44.34375 54.890625 33.015625 
z
" id="DejaVuSans-6e"/>
      <path d="M 8.015625 75.875 
L 15.828125 75.875 
Q 23.140625 64.359375 26.78125 53.3125 
Q 30.421875 42.28125 30.421875 31.390625 
Q 30.421875 20.453125 26.78125 9.375 
Q 23.140625 -1.703125 15.828125 -13.1875 
L 8.015625 -13.1875 
Q 14.5 -2 17.703125 9.0625 
Q 20.90625 20.125 20.90625 31.390625 
Q 20.90625 42.671875 17.703125 53.65625 
Q 14.5 64.65625 8.015625 75.875 
z
" id="DejaVuSans-29"/>
     </defs>
     <g transform="translate(73.803219 338.153594)scale(0.17 -0.17)">
      <use xlink:href="#DejaVuSans-6c"/>
      <use x="27.783203" xlink:href="#DejaVuSans-6f"/>
      <use x="88.964844" xlink:href="#DejaVuSans-67"/>
      <use x="152.441406" xlink:href="#DejaVuSans-31"/>
      <use x="216.064453" xlink:href="#DejaVuSans-30"/>
      <use x="279.6875" xlink:href="#DejaVuSans-28"/>
      <use x="318.701172" xlink:href="#DejaVuSans-23"/>
      <use x="402.490234" xlink:href="#DejaVuSans-20"/>
      <use x="434.277344" xlink:href="#DejaVuSans-66"/>
      <use x="469.404297" xlink:href="#DejaVuSans-2d"/>
      <use x="505.488281" xlink:href="#DejaVuSans-65"/>
      <use x="567.011719" xlink:href="#DejaVuSans-76"/>
      <use x="626.191406" xlink:href="#DejaVuSans-61"/>
      <use x="687.470703" xlink:href="#DejaVuSans-6c"/>
      <use x="715.253906" xlink:href="#DejaVuSans-73"/>
      <use x="767.353516" xlink:href="#DejaVuSans-20"/>
      <use x="799.140625" xlink:href="#DejaVuSans-2f"/>
      <use x="832.832031" xlink:href="#DejaVuSans-20"/>
      <use x="864.619141" xlink:href="#DejaVuSans-64"/>
      <use x="928.095703" xlink:href="#DejaVuSans-69"/>
      <use x="955.878906" xlink:href="#DejaVuSans-6d"/>
      <use x="1053.291016" xlink:href="#DejaVuSans-65"/>
      <use x="1114.814453" xlink:href="#DejaVuSans-6e"/>
      <use x="1178.193359" xlink:href="#DejaVuSans-73"/>
      <use x="1230.292969" xlink:href="#DejaVuSans-69"/>
      <use x="1258.076172" xlink:href="#DejaVuSans-6f"/>
      <use x="1319.257812" xlink:href="#DejaVuSans-6e"/>
      <use x="1382.636719" xlink:href="#DejaVuSans-29"/>
     </g>
    </g>
   </g>
   <g id="matplotlib.axis_2">
    <g id="ytick_1">
     <g id="line2d_29">
      <path clip-path="url(#p7542531e8b)" d="M 56.12 294.88 
L 333.168 294.88 
" style="fill:none;stroke:#b0b0b0;stroke-linecap:square;stroke-width:0.8;"/>
     </g>
     <g id="line2d_30">
      <defs>
       <path d="M 0 0 
L -3.5 0 
" id="m71e8000881" style="stroke:#000000;stroke-width:0.8;"/>
      </defs>
      <g>
       <use style="stroke:#000000;stroke-width:0.8;" x="56.12" xlink:href="#m71e8000881" y="294.88"/>
      </g>
     </g>
     <g id="text_6">
      <!-- 0.0 -->
      <defs>
       <path d="M 10.6875 12.40625 
L 21 12.40625 
L 21 0 
L 10.6875 0 
z
" id="DejaVuSans-2e"/>
      </defs>
      <g transform="translate(23.675 300.95875)scale(0.16 -0.16)">
       <use xlink:href="#DejaVuSans-30"/>
       <use x="63.623047" xlink:href="#DejaVuSans-2e"/>
       <use x="95.410156" xlink:href="#DejaVuSans-30"/>
      </g>
     </g>
    </g>
    <g id="ytick_2">
     <g id="line2d_31">
      <path clip-path="url(#p7542531e8b)" d="M 56.12 241.406733 
L 333.168 241.406733 
" style="fill:none;stroke:#b0b0b0;stroke-linecap:square;stroke-width:0.8;"/>
     </g>
     <g id="line2d_32">
      <g>
       <use style="stroke:#000000;stroke-width:0.8;" x="56.12" xlink:href="#m71e8000881" y="241.406733"/>
      </g>
     </g>
     <g id="text_7">
      <!-- 0.2 -->
      <g transform="translate(23.675 247.485483)scale(0.16 -0.16)">
       <use xlink:href="#DejaVuSans-30"/>
       <use x="63.623047" xlink:href="#DejaVuSans-2e"/>
       <use x="95.410156" xlink:href="#DejaVuSans-32"/>
      </g>
     </g>
    </g>
    <g id="ytick_3">
     <g id="line2d_33">
      <path clip-path="url(#p7542531e8b)" d="M 56.12 187.933465 
L 333.168 187.933465 
" style="fill:none;stroke:#b0b0b0;stroke-linecap:square;stroke-width:0.8;"/>
     </g>
     <g id="line2d_34">
      <g>
       <use style="stroke:#000000;stroke-width:0.8;" x="56.12" xlink:href="#m71e8000881" y="187.933465"/>
      </g>
     </g>
     <g id="text_8">
      <!-- 0.4 -->
      <g transform="translate(23.675 194.012215)scale(0.16 -0.16)">
       <use xlink:href="#DejaVuSans-30"/>
       <use x="63.623047" xlink:href="#DejaVuSans-2e"/>
       <use x="95.410156" xlink:href="#DejaVuSans-34"/>
      </g>
     </g>
    </g>
    <g id="ytick_4">
     <g id="line2d_35">
      <path clip-path="url(#p7542531e8b)" d="M 56.12 134.460198 
L 333.168 134.460198 
" style="fill:none;stroke:#b0b0b0;stroke-linecap:square;stroke-width:0.8;"/>
     </g>
     <g id="line2d_36">
      <g>
       <use style="stroke:#000000;stroke-width:0.8;" x="56.12" xlink:href="#m71e8000881" y="134.460198"/>
      </g>
     </g>
     <g id="text_9">
      <!-- 0.6 -->
      <g transform="translate(23.675 140.538948)scale(0.16 -0.16)">
       <use xlink:href="#DejaVuSans-30"/>
       <use x="63.623047" xlink:href="#DejaVuSans-2e"/>
       <use x="95.410156" xlink:href="#DejaVuSans-36"/>
      </g>
     </g>
    </g>
    <g id="ytick_5">
     <g id="line2d_37">
      <path clip-path="url(#p7542531e8b)" d="M 56.12 80.986931 
L 333.168 80.986931 
" style="fill:none;stroke:#b0b0b0;stroke-linecap:square;stroke-width:0.8;"/>
     </g>
     <g id="line2d_38">
      <g>
       <use style="stroke:#000000;stroke-width:0.8;" x="56.12" xlink:href="#m71e8000881" y="80.986931"/>
      </g>
     </g>
     <g id="text_10">
      <!-- 0.8 -->
      <defs>
       <path d="M 31.78125 34.625 
Q 24.75 34.625 20.71875 30.859375 
Q 16.703125 27.09375 16.703125 20.515625 
Q 16.703125 13.921875 20.71875 10.15625 
Q 24.75 6.390625 31.78125 6.390625 
Q 38.8125 6.390625 42.859375 10.171875 
Q 46.921875 13.96875 46.921875 20.515625 
Q 46.921875 27.09375 42.890625 30.859375 
Q 38.875 34.625 31.78125 34.625 
z
M 21.921875 38.8125 
Q 15.578125 40.375 12.03125 44.71875 
Q 8.5 49.078125 8.5 55.328125 
Q 8.5 64.0625 14.71875 69.140625 
Q 20.953125 74.21875 31.78125 74.21875 
Q 42.671875 74.21875 48.875 69.140625 
Q 55.078125 64.0625 55.078125 55.328125 
Q 55.078125 49.078125 51.53125 44.71875 
Q 48 40.375 41.703125 38.8125 
Q 48.828125 37.15625 52.796875 32.3125 
Q 56.78125 27.484375 56.78125 20.515625 
Q 56.78125 9.90625 50.3125 4.234375 
Q 43.84375 -1.421875 31.78125 -1.421875 
Q 19.734375 -1.421875 13.25 4.234375 
Q 6.78125 9.90625 6.78125 20.515625 
Q 6.78125 27.484375 10.78125 32.3125 
Q 14.796875 37.15625 21.921875 38.8125 
z
M 18.3125 54.390625 
Q 18.3125 48.734375 21.84375 45.5625 
Q 25.390625 42.390625 31.78125 42.390625 
Q 38.140625 42.390625 41.71875 45.5625 
Q 45.3125 48.734375 45.3125 54.390625 
Q 45.3125 60.0625 41.71875 63.234375 
Q 38.140625 66.40625 31.78125 66.40625 
Q 25.390625 66.40625 21.84375 63.234375 
Q 18.3125 60.0625 18.3125 54.390625 
z
" id="DejaVuSans-38"/>
      </defs>
      <g transform="translate(23.675 87.065681)scale(0.16 -0.16)">
       <use xlink:href="#DejaVuSans-30"/>
       <use x="63.623047" xlink:href="#DejaVuSans-2e"/>
       <use x="95.410156" xlink:href="#DejaVuSans-38"/>
      </g>
     </g>
    </g>
    <g id="ytick_6">
     <g id="line2d_39">
      <path clip-path="url(#p7542531e8b)" d="M 56.12 27.513663 
L 333.168 27.513663 
" style="fill:none;stroke:#b0b0b0;stroke-linecap:square;stroke-width:0.8;"/>
     </g>
     <g id="line2d_40">
      <g>
       <use style="stroke:#000000;stroke-width:0.8;" x="56.12" xlink:href="#m71e8000881" y="27.513663"/>
      </g>
     </g>
     <g id="text_11">
      <!-- 1.0 -->
      <g transform="translate(23.675 33.592413)scale(0.16 -0.16)">
       <use xlink:href="#DejaVuSans-31"/>
       <use x="63.623047" xlink:href="#DejaVuSans-2e"/>
       <use x="95.410156" xlink:href="#DejaVuSans-30"/>
      </g>
     </g>
    </g>
    <g id="text_12">
     <!-- Fraction of function,target pairs -->
     <defs>
      <path d="M 9.8125 72.90625 
L 51.703125 72.90625 
L 51.703125 64.59375 
L 19.671875 64.59375 
L 19.671875 43.109375 
L 48.578125 43.109375 
L 48.578125 34.8125 
L 19.671875 34.8125 
L 19.671875 0 
L 9.8125 0 
z
" id="DejaVuSans-46"/>
      <path d="M 41.109375 46.296875 
Q 39.59375 47.171875 37.8125 47.578125 
Q 36.03125 48 33.890625 48 
Q 26.265625 48 22.1875 43.046875 
Q 18.109375 38.09375 18.109375 28.8125 
L 18.109375 0 
L 9.078125 0 
L 9.078125 54.6875 
L 18.109375 54.6875 
L 18.109375 46.1875 
Q 20.953125 51.171875 25.484375 53.578125 
Q 30.03125 56 36.53125 56 
Q 37.453125 56 38.578125 55.875 
Q 39.703125 55.765625 41.0625 55.515625 
z
" id="DejaVuSans-72"/>
      <path d="M 48.78125 52.59375 
L 48.78125 44.1875 
Q 44.96875 46.296875 41.140625 47.34375 
Q 37.3125 48.390625 33.40625 48.390625 
Q 24.65625 48.390625 19.8125 42.84375 
Q 14.984375 37.3125 14.984375 27.296875 
Q 14.984375 17.28125 19.8125 11.734375 
Q 24.65625 6.203125 33.40625 6.203125 
Q 37.3125 6.203125 41.140625 7.25 
Q 44.96875 8.296875 48.78125 10.40625 
L 48.78125 2.09375 
Q 45.015625 0.34375 40.984375 -0.53125 
Q 36.96875 -1.421875 32.421875 -1.421875 
Q 20.0625 -1.421875 12.78125 6.34375 
Q 5.515625 14.109375 5.515625 27.296875 
Q 5.515625 40.671875 12.859375 48.328125 
Q 20.21875 56 33.015625 56 
Q 37.15625 56 41.109375 55.140625 
Q 45.0625 54.296875 48.78125 52.59375 
z
" id="DejaVuSans-63"/>
      <path d="M 18.3125 70.21875 
L 18.3125 54.6875 
L 36.8125 54.6875 
L 36.8125 47.703125 
L 18.3125 47.703125 
L 18.3125 18.015625 
Q 18.3125 11.328125 20.140625 9.421875 
Q 21.96875 7.515625 27.59375 7.515625 
L 36.8125 7.515625 
L 36.8125 0 
L 27.59375 0 
Q 17.1875 0 13.234375 3.875 
Q 9.28125 7.765625 9.28125 18.015625 
L 9.28125 47.703125 
L 2.6875 47.703125 
L 2.6875 54.6875 
L 9.28125 54.6875 
L 9.28125 70.21875 
z
" id="DejaVuSans-74"/>
      <path d="M 8.5 21.578125 
L 8.5 54.6875 
L 17.484375 54.6875 
L 17.484375 21.921875 
Q 17.484375 14.15625 20.5 10.265625 
Q 23.53125 6.390625 29.59375 6.390625 
Q 36.859375 6.390625 41.078125 11.03125 
Q 45.3125 15.671875 45.3125 23.6875 
L 45.3125 54.6875 
L 54.296875 54.6875 
L 54.296875 0 
L 45.3125 0 
L 45.3125 8.40625 
Q 42.046875 3.421875 37.71875 1 
Q 33.40625 -1.421875 27.6875 -1.421875 
Q 18.265625 -1.421875 13.375 4.4375 
Q 8.5 10.296875 8.5 21.578125 
z
M 31.109375 56 
z
" id="DejaVuSans-75"/>
      <path d="M 11.71875 12.40625 
L 22.015625 12.40625 
L 22.015625 4 
L 14.015625 -11.625 
L 7.71875 -11.625 
L 11.71875 4 
z
" id="DejaVuSans-2c"/>
      <path d="M 18.109375 8.203125 
L 18.109375 -20.796875 
L 9.078125 -20.796875 
L 9.078125 54.6875 
L 18.109375 54.6875 
L 18.109375 46.390625 
Q 20.953125 51.265625 25.265625 53.625 
Q 29.59375 56 35.59375 56 
Q 45.5625 56 51.78125 48.09375 
Q 58.015625 40.1875 58.015625 27.296875 
Q 58.015625 14.40625 51.78125 6.484375 
Q 45.5625 -1.421875 35.59375 -1.421875 
Q 29.59375 -1.421875 25.265625 0.953125 
Q 20.953125 3.328125 18.109375 8.203125 
z
M 48.6875 27.296875 
Q 48.6875 37.203125 44.609375 42.84375 
Q 40.53125 48.484375 33.40625 48.484375 
Q 26.265625 48.484375 22.1875 42.84375 
Q 18.109375 37.203125 18.109375 27.296875 
Q 18.109375 17.390625 22.1875 11.75 
Q 26.265625 6.109375 33.40625 6.109375 
Q 40.53125 6.109375 44.609375 11.75 
Q 48.6875 17.390625 48.6875 27.296875 
z
" id="DejaVuSans-70"/>
     </defs>
     <g transform="translate(16.139531 294.999375)rotate(-90)scale(0.17 -0.17)">
      <use xlink:href="#DejaVuSans-46"/>
      <use x="57.410156" xlink:href="#DejaVuSans-72"/>
      <use x="98.523438" xlink:href="#DejaVuSans-61"/>
      <use x="159.802734" xlink:href="#DejaVuSans-63"/>
      <use x="214.783203" xlink:href="#DejaVuSans-74"/>
      <use x="253.992188" xlink:href="#DejaVuSans-69"/>
      <use x="281.775391" xlink:href="#DejaVuSans-6f"/>
      <use x="342.957031" xlink:href="#DejaVuSans-6e"/>
      <use x="406.335938" xlink:href="#DejaVuSans-20"/>
      <use x="438.123047" xlink:href="#DejaVuSans-6f"/>
      <use x="499.304688" xlink:href="#DejaVuSans-66"/>
      <use x="534.509766" xlink:href="#DejaVuSans-20"/>
      <use x="566.296875" xlink:href="#DejaVuSans-66"/>
      <use x="601.501953" xlink:href="#DejaVuSans-75"/>
      <use x="664.880859" xlink:href="#DejaVuSans-6e"/>
      <use x="728.259766" xlink:href="#DejaVuSans-63"/>
      <use x="783.240234" xlink:href="#DejaVuSans-74"/>
      <use x="822.449219" xlink:href="#DejaVuSans-69"/>
      <use x="850.232422" xlink:href="#DejaVuSans-6f"/>
      <use x="911.414062" xlink:href="#DejaVuSans-6e"/>
      <use x="974.792969" xlink:href="#DejaVuSans-2c"/>
      <use x="1006.580078" xlink:href="#DejaVuSans-74"/>
      <use x="1045.789062" xlink:href="#DejaVuSans-61"/>
      <use x="1107.068359" xlink:href="#DejaVuSans-72"/>
      <use x="1148.166016" xlink:href="#DejaVuSans-67"/>
      <use x="1211.642578" xlink:href="#DejaVuSans-65"/>
      <use x="1273.166016" xlink:href="#DejaVuSans-74"/>
      <use x="1312.375" xlink:href="#DejaVuSans-20"/>
      <use x="1344.162109" xlink:href="#DejaVuSans-70"/>
      <use x="1407.638672" xlink:href="#DejaVuSans-61"/>
      <use x="1468.917969" xlink:href="#DejaVuSans-69"/>
      <use x="1496.701172" xlink:href="#DejaVuSans-72"/>
      <use x="1537.814453" xlink:href="#DejaVuSans-73"/>
     </g>
    </g>
   </g>
   <g id="line2d_41">
    <defs>
     <path d="M 0 1.5 
C 0.397805 1.5 0.77937 1.341951 1.06066 1.06066 
C 1.341951 0.77937 1.5 0.397805 1.5 0 
C 1.5 -0.397805 1.341951 -0.77937 1.06066 -1.06066 
C 0.77937 -1.341951 0.397805 -1.5 0 -1.5 
C -0.397805 -1.5 -0.77937 -1.341951 -1.06066 -1.06066 
C -1.341951 -0.77937 -1.5 -0.397805 -1.5 0 
C -1.5 0.397805 -1.341951 0.77937 -1.06066 1.06066 
C -0.77937 1.341951 -0.397805 1.5 0 1.5 
z
" id="m8066eb2e65" style="stroke:#f5deb3;"/>
    </defs>
    <g>
     <use style="fill:#f5deb3;stroke:#f5deb3;" x="169.42892" xlink:href="#m8066eb2e65" y="27.513663"/>
     <use style="fill:#f5deb3;stroke:#f5deb3;" x="169.42892" xlink:href="#m8066eb2e65" y="27.513663"/>
    </g>
   </g>
   <g id="line2d_42">
    <path clip-path="url(#p7542531e8b)" d="M 56.12 294.88 
L 56.12 294.88 
L 56.12 294.88 
L 56.12 294.88 
L 333.168 294.88 
" style="fill:none;stroke:#000080;stroke-linecap:square;stroke-width:1.5;"/>
   </g>
   <g id="line2d_43">
    <defs>
     <path d="M 0 6 
C 1.591219 6 3.117479 5.367802 4.242641 4.242641 
C 5.367802 3.117479 6 1.591219 6 0 
C 6 -1.591219 5.367802 -3.117479 4.242641 -4.242641 
C 3.117479 -5.367802 1.591219 -6 0 -6 
C -1.591219 -6 -3.117479 -5.367802 -4.242641 -4.242641 
C -5.367802 -3.117479 -6 -1.591219 -6 0 
C -6 1.591219 -5.367802 3.117479 -4.242641 4.242641 
C -3.117479 5.367802 -1.591219 6 0 6 
z
" id="m98b1dbb384" style="stroke:#000080;stroke-width:1.5;"/>
    </defs>
    <g clip-path="url(#p7542531e8b)">
     <use style="fill:none;stroke:#000080;stroke-width:1.5;" x="56.12" xlink:href="#m98b1dbb384" y="294.88"/>
    </g>
   </g>
   <g id="line2d_44">
    <path clip-path="url(#p7542531e8b)" style="fill:none;stroke:#000080;stroke-linecap:square;stroke-width:1.5;"/>
    <g clip-path="url(#p7542531e8b)">
     <use style="fill:none;stroke:#000080;stroke-width:1.5;" x="-1" xlink:href="#m98b1dbb384" y="562.246337"/>
     <use style="fill:none;stroke:#000080;stroke-width:1.5;" x="333.168" xlink:href="#m98b1dbb384" y="562.246337"/>
    </g>
   </g>
   <g id="line2d_45">
    <defs>
     <path d="M 0 1.5 
C 0.397805 1.5 0.77937 1.341951 1.06066 1.06066 
C 1.341951 0.77937 1.5 0.397805 1.5 0 
C 1.5 -0.397805 1.341951 -0.77937 1.06066 -1.06066 
C 0.77937 -1.341951 0.397805 -1.5 0 -1.5 
C -0.397805 -1.5 -0.77937 -1.341951 -1.06066 -1.06066 
C -1.341951 -0.77937 -1.5 -0.397805 -1.5 0 
C -1.5 0.397805 -1.341951 0.77937 -1.06066 1.06066 
C -0.77937 1.341951 -0.397805 1.5 0 1.5 
z
" id="mf514ef19d3" style="stroke:#ff00ff;"/>
    </defs>
    <g>
     <use style="fill:#ff00ff;stroke:#ff00ff;" x="203.996856" xlink:href="#mf514ef19d3" y="27.513663"/>
     <use style="fill:#ff00ff;stroke:#ff00ff;" x="203.996856" xlink:href="#mf514ef19d3" y="27.513663"/>
    </g>
   </g>
   <g id="line2d_46">
    <path d="M 140.561812 294.88 
L 140.561812 294.355752 
L 141.060069 294.355752 
L 141.060069 293.831505 
L 141.544287 293.831505 
L 141.544287 291.734514 
L 141.72241 291.734514 
L 141.72241 291.210266 
L 142.015238 291.210266 
L 142.015238 289.113275 
L 142.473629 289.113275 
L 142.473629 286.492036 
L 142.631221 286.492036 
L 142.631221 285.967789 
L 142.837275 285.967789 
L 142.920112 280.201064 
L 143.35529 280.201064 
L 143.35529 277.055578 
L 143.53164 277.055578 
L 143.53164 276.53133 
L 143.779723 276.53133 
L 143.779723 271.8131 
L 144.193927 271.8131 
L 144.193927 266.046375 
L 144.598384 266.046375 
L 144.598384 263.949385 
L 144.856267 263.949385 
L 144.856267 263.425137 
L 144.993542 263.425137 
L 144.993542 259.755403 
L 145.37982 259.755403 
L 145.37982 256.609917 
L 145.757607 256.609917 
L 145.757607 254.512926 
L 146.127269 254.512926 
L 146.127269 252.940182 
L 146.489148 252.940182 
L 146.489148 250.318944 
L 146.843566 250.318944 
L 146.843566 248.221953 
L 147.01373 248.221953 
L 147.01373 247.697705 
L 147.190823 247.697705 
L 147.190823 246.124962 
L 147.531203 246.124962 
L 147.531203 245.076467 
L 147.782136 245.076467 
L 147.864973 244.027971 
L 148.192385 244.027971 
L 148.192385 242.979476 
L 148.513678 242.979476 
L 148.513678 241.93098 
L 148.829074 241.93098 
L 148.829074 241.406733 
L 149.615544 241.406733 
L 149.615544 240.882485 
L 150.324681 240.882485 
L 150.324681 240.358237 
L 169.900826 240.358237 
L 169.900826 239.83399 
L 170.355656 239.83399 
L 170.355656 239.309742 
L 172.265416 239.309742 
L 172.265416 238.785494 
L 172.483838 238.785494 
L 172.483838 238.261246 
L 172.814099 238.261246 
L 172.814099 237.736999 
L 173.083914 237.736999 
L 173.083914 237.212751 
L 173.199753 237.212751 
L 173.199753 236.688503 
L 174.089503 236.688503 
L 174.089503 236.164255 
L 174.372013 236.164255 
L 174.424967 235.11576 
L 174.561887 235.11576 
L 174.579362 234.067265 
L 175.529008 234.067265 
L 175.529008 233.543017 
L 175.983244 233.543017 
L 175.992899 232.494521 
L 176.491546 232.494521 
L 176.491546 231.970274 
L 176.722061 231.970274 
L 176.722061 231.446026 
L 177.228003 231.446026 
L 177.316856 228.824787 
L 177.983701 228.824787 
L 177.983701 228.30054 
L 178.222742 228.30054 
L 178.222742 227.776292 
L 178.552327 227.776292 
L 178.552327 227.252044 
L 178.804145 227.252044 
L 178.804145 226.727797 
L 178.940207 226.727797 
L 178.940207 226.203549 
L 179.681571 226.203549 
L 179.681571 225.679301 
L 179.79671 225.679301 
L 179.892501 224.630806 
L 180.092638 224.630806 
L 180.202546 223.058063 
L 180.30675 223.058063 
L 180.30675 222.533815 
L 180.743008 222.533815 
L 180.791752 221.485319 
L 181.213646 221.485319 
L 181.213646 220.961072 
L 181.460027 220.961072 
L 181.460027 220.436824 
L 181.829976 220.436824 
L 181.931627 219.388328 
L 182.020789 219.388328 
L 182.020789 218.864081 
L 182.179226 218.864081 
L 182.283301 216.76709 
L 182.455925 216.76709 
L 182.455925 216.242842 
L 182.752684 216.242842 
L 182.79064 215.194347 
L 183.091308 215.194347 
L 183.131179 214.145851 
L 183.203245 214.145851 
L 183.203245 213.621604 
L 183.602561 213.621604 
L 183.697361 212.04886 
L 184.002908 212.04886 
L 184.061359 211.000365 
L 184.120615 211.000365 
L 184.195147 209.95187 
L 184.338795 209.95187 
L 184.347207 208.903374 
L 184.485669 208.903374 
L 184.485669 208.379126 
L 184.69105 208.379126 
L 184.69105 207.854879 
L 184.864747 207.854879 
L 184.864747 207.330631 
L 185.002452 207.330631 
L 185.040508 205.23364 
L 185.118735 205.23364 
L 185.189542 204.185145 
L 185.33636 204.185145 
L 185.33636 203.660897 
L 185.559565 203.660897 
L 185.649234 202.088154 
L 185.925852 202.088154 
L 185.992968 201.039658 
L 186.072357 201.039658 
L 186.072357 200.515411 
L 186.24467 200.515411 
L 186.287148 199.466915 
L 186.451205 199.466915 
L 186.469143 197.894172 
L 186.692448 197.894172 
L 186.744597 196.845677 
L 186.848422 196.845677 
L 186.896262 195.797181 
L 187.010199 195.797181 
L 187.097688 194.224438 
L 187.133485 194.224438 
L 187.133485 193.70019 
L 187.257146 193.70019 
L 187.343806 192.651695 
L 187.513358 192.651695 
L 187.613882 191.078952 
L 187.642904 191.078952 
L 187.642904 190.554704 
L 187.805095 190.554704 
L 187.870915 189.506209 
L 187.940098 189.506209 
L 187.941704 188.457713 
L 188.177692 188.457713 
L 188.288583 187.409218 
L 188.398373 187.409218 
L 188.473253 184.787979 
L 188.527261 184.787979 
L 188.628215 183.739484 
L 188.66212 183.739484 
L 188.726279 182.690988 
L 188.782557 182.690988 
L 188.782557 182.16674 
L 189.095403 182.16674 
L 189.185618 179.021254 
L 189.233342 179.021254 
L 189.233342 178.497006 
L 189.350595 178.497006 
L 189.449046 176.400016 
L 189.560824 176.400016 
L 189.614803 175.35152 
L 189.675146 175.35152 
L 189.759128 174.303025 
L 189.793759 174.303025 
L 189.882901 172.206034 
L 189.994039 172.206034 
L 190.081443 170.633291 
L 190.153235 170.633291 
L 190.219457 169.584795 
L 190.322507 169.584795 
L 190.349743 168.012052 
L 190.435361 168.012052 
L 190.498431 166.439309 
L 190.572295 166.439309 
L 190.632464 165.390813 
L 190.746376 165.390813 
L 190.787922 164.342318 
L 190.868005 164.342318 
L 190.928835 162.769575 
L 190.984408 162.769575 
L 191.018337 161.721079 
L 191.120057 161.721079 
L 191.186651 159.624089 
L 191.257954 159.624089 
L 191.353004 157.527098 
L 191.386871 157.527098 
L 191.386871 157.00285 
L 191.542194 157.00285 
L 191.594199 155.954354 
L 191.658339 155.954354 
L 191.658339 155.430107 
L 191.779804 155.430107 
L 191.833977 152.808868 
L 191.903287 152.808868 
L 191.933224 151.760373 
L 192.10483 151.760373 
L 192.206288 149.139134 
L 192.221002 149.139134 
L 192.291265 145.993648 
L 192.470148 145.993648 
L 192.569786 144.420905 
L 192.603176 144.420905 
L 192.712998 141.799666 
L 192.747629 141.799666 
L 192.805496 140.751171 
L 192.962358 140.751171 
L 192.974642 139.178427 
L 193.108592 139.178427 
L 193.216718 138.129932 
L 193.222623 138.129932 
L 193.32681 134.984446 
L 193.353783 134.984446 
L 193.438824 133.93595 
L 193.510098 133.93595 
L 193.531277 132.887455 
L 193.629868 132.887455 
L 193.644852 131.838959 
L 193.764834 131.838959 
L 193.85527 129.741969 
L 193.904425 129.741969 
L 194.000339 127.12073 
L 194.141676 127.12073 
L 194.213723 126.072235 
L 194.270199 126.072235 
L 194.336177 124.499491 
L 194.396389 124.499491 
L 194.396389 123.975244 
L 194.522207 123.975244 
L 194.628895 122.4025 
L 194.675618 122.4025 
L 194.771113 119.257014 
L 194.791065 119.257014 
L 194.850513 118.208519 
L 194.9389 118.208519 
L 194.999171 116.635776 
L 195.061619 116.635776 
L 195.06321 115.58728 
L 195.274094 115.58728 
L 195.380656 114.014537 
L 195.468956 114.014537 
L 195.530498 112.441794 
L 195.737799 112.441794 
L 195.834435 108.247812 
L 195.874961 108.247812 
L 195.97058 106.675069 
L 196.031858 106.675069 
L 196.09167 105.102326 
L 196.232492 105.102326 
L 196.309628 103.005335 
L 196.377576 103.005335 
L 196.484614 100.384096 
L 196.504625 100.384096 
L 196.605301 98.811353 
L 196.638245 98.811353 
L 196.703945 95.665867 
L 196.802505 95.665867 
L 196.897882 91.471885 
L 196.927891 91.471885 
L 197.029201 90.42339 
L 197.109916 90.42339 
L 197.194237 88.850646 
L 197.232619 88.850646 
L 197.333781 86.229408 
L 197.393175 86.229408 
L 197.458133 84.132417 
L 197.51135 84.132417 
L 197.541915 82.559674 
L 197.6342 82.559674 
L 197.73553 78.88994 
L 197.772724 78.88994 
L 197.869414 75.744454 
L 197.957721 75.744454 
L 198.049366 73.647463 
L 198.074762 73.647463 
L 198.164237 72.074719 
L 198.196538 72.074719 
L 198.301427 69.977729 
L 198.423577 69.977729 
L 198.522757 68.404985 
L 198.54638 68.404985 
L 198.637318 66.307995 
L 198.671323 66.307995 
L 198.772936 64.735251 
L 198.786824 64.735251 
L 198.85971 63.162508 
L 198.925298 63.162508 
L 199.001397 60.54127 
L 199.07317 60.54127 
L 199.140461 57.920031 
L 199.1979 57.920031 
L 199.307856 56.347288 
L 199.311378 56.347288 
L 199.336011 55.298792 
L 199.427197 55.298792 
L 199.494964 53.726049 
L 199.538562 53.726049 
L 199.572056 52.677554 
L 199.669105 52.677554 
L 199.70518 51.629058 
L 199.783151 51.629058 
L 199.894044 50.056315 
L 199.99726 50.056315 
L 200.0864 49.00782 
L 200.180595 49.00782 
L 200.227009 47.435077 
L 200.309497 47.435077 
L 200.385559 45.862334 
L 200.425017 45.862334 
L 200.522207 44.28959 
L 200.56039 44.28959 
L 200.579835 43.241095 
L 200.762804 43.241095 
L 200.815837 41.144104 
L 200.991441 41.144104 
L 201.09128 40.095609 
L 201.176238 40.095609 
L 201.176238 39.571361 
L 201.31746 39.571361 
L 201.35024 37.998618 
L 201.5776 37.998618 
L 201.5776 37.47437 
L 201.745449 37.47437 
L 201.831178 36.425875 
L 201.875488 36.425875 
L 201.968916 34.853131 
L 202.050361 34.853131 
L 202.103447 33.280388 
L 202.173038 33.280388 
L 202.27533 32.231893 
L 202.573979 32.231893 
L 202.601884 31.183397 
L 202.724437 31.183397 
L 202.724437 30.65915 
L 202.85944 30.65915 
L 202.85944 30.134902 
L 203.172867 30.134902 
L 203.172867 29.610654 
L 203.350979 29.610654 
L 203.350979 29.086407 
L 203.482468 29.086407 
L 203.482468 28.562159 
L 203.626179 28.562159 
L 203.626179 28.037911 
L 203.996856 28.037911 
L 203.996856 27.513663 
L 333.168 27.513663 
L 333.168 27.513663 
" style="fill:none;stroke:#ff00ff;stroke-linecap:square;stroke-width:1.5;"/>
   </g>
   <g id="line2d_47">
    <defs>
     <path d="M -0 8.485281 
L 5.091169 0 
L 0 -8.485281 
L -5.091169 -0 
z
" id="m32d3fb1014" style="stroke:#ff00ff;stroke-linejoin:miter;stroke-width:1.5;"/>
    </defs>
    <g>
     <use style="fill:none;stroke:#ff00ff;stroke-linejoin:miter;stroke-width:1.5;" x="178.940207" xlink:href="#m32d3fb1014" y="226.203549"/>
     <use style="fill:none;stroke:#ff00ff;stroke-linejoin:miter;stroke-width:1.5;" x="201.176238" xlink:href="#m32d3fb1014" y="40.095609"/>
     <use style="fill:none;stroke:#ff00ff;stroke-linejoin:miter;stroke-width:1.5;" x="203.996856" xlink:href="#m32d3fb1014" y="27.513663"/>
     <use style="fill:none;stroke:#ff00ff;stroke-linejoin:miter;stroke-width:1.5;" x="203.996856" xlink:href="#m32d3fb1014" y="27.513663"/>
     <use style="fill:none;stroke:#ff00ff;stroke-linejoin:miter;stroke-width:1.5;" x="333.168" xlink:href="#m32d3fb1014" y="27.513663"/>
    </g>
   </g>
   <g id="line2d_48">
    <path style="fill:none;stroke:#ff00ff;stroke-linecap:square;stroke-width:1.5;"/>
    <g/>
   </g>
   <g id="line2d_49">
    <defs>
     <path d="M 0 1.5 
C 0.397805 1.5 0.77937 1.341951 1.06066 1.06066 
C 1.341951 0.77937 1.5 0.397805 1.5 0 
C 1.5 -0.397805 1.341951 -0.77937 1.06066 -1.06066 
C 0.77937 -1.341951 0.397805 -1.5 0 -1.5 
C -0.397805 -1.5 -0.77937 -1.341951 -1.06066 -1.06066 
C -1.341951 -0.77937 -1.5 -0.397805 -1.5 0 
C -1.5 0.397805 -1.341951 0.77937 -1.06066 1.06066 
C -0.77937 1.341951 -0.397805 1.5 0 1.5 
z
" id="mcd2455fefe" style="stroke:#ff7500;"/>
    </defs>
    <g>
     <use style="fill:#ff7500;stroke:#ff7500;" x="194.423664" xlink:href="#mcd2455fefe" y="27.513663"/>
     <use style="fill:#ff7500;stroke:#ff7500;" x="194.423664" xlink:href="#mcd2455fefe" y="27.513663"/>
    </g>
   </g>
   <g id="line2d_50">
    <path d="M 154.62094 294.88 
L 154.62094 294.355752 
L 154.776419 294.355752 
L 154.776419 293.831505 
L 154.93872 293.831505 
L 154.93872 293.307257 
L 155.110349 293.307257 
L 155.110349 292.783009 
L 155.480415 292.783009 
L 155.586208 291.210266 
L 155.609922 291.210266 
L 155.714923 290.161771 
L 155.824488 290.161771 
L 155.824488 289.637523 
L 155.972075 289.637523 
L 155.974653 288.589027 
L 156.087703 288.589027 
L 156.138844 287.540532 
L 156.273638 287.540532 
L 156.329281 286.492036 
L 156.492636 286.492036 
L 156.562529 284.919293 
L 156.612279 284.919293 
L 156.612279 284.395046 
L 156.74589 284.395046 
L 156.777901 283.34655 
L 156.863789 283.34655 
L 156.94925 280.725312 
L 156.978453 280.725312 
L 156.978453 280.201064 
L 157.104431 280.201064 
L 157.198312 276.53133 
L 157.26779 276.53133 
L 157.365541 274.434339 
L 157.398793 274.434339 
L 157.505239 273.385844 
L 157.692864 273.385844 
L 157.769667 270.240357 
L 157.885384 270.240357 
L 157.936054 268.667614 
L 158.034662 268.667614 
L 158.11906 267.094871 
L 158.214363 267.094871 
L 158.282115 263.949385 
L 158.376521 263.949385 
L 158.472641 262.376641 
L 158.566009 262.376641 
L 158.592593 261.328146 
L 158.687516 261.328146 
L 158.773157 260.279651 
L 158.838746 260.279651 
L 158.934492 258.18266 
L 158.988657 258.18266 
L 158.988657 257.658412 
L 159.143705 257.658412 
L 159.150135 256.609917 
L 159.282487 256.609917 
L 159.384258 255.037173 
L 159.449666 255.037173 
L 159.535793 253.46443 
L 159.615235 253.46443 
L 159.686004 251.891687 
L 159.787486 251.891687 
L 159.880158 249.270448 
L 159.906838 249.270448 
L 159.93757 248.221953 
L 160.049788 248.221953 
L 160.155215 245.600714 
L 160.197609 245.600714 
L 160.306143 243.503724 
L 160.493455 243.503724 
L 160.546882 239.83399 
L 160.60802 239.83399 
L 160.60802 239.309742 
L 160.760896 239.309742 
L 160.760896 238.785494 
L 160.943342 238.785494 
L 161.033844 236.164255 
L 161.141058 236.164255 
L 161.232427 235.11576 
L 161.338413 235.11576 
L 161.359155 234.067265 
L 161.458745 234.067265 
L 161.503653 233.018769 
L 161.624694 233.018769 
L 161.726451 230.921778 
L 161.739359 230.921778 
L 161.739359 230.397531 
L 161.855096 230.397531 
L 161.884365 229.349035 
L 161.977331 229.349035 
L 162.026346 228.30054 
L 162.123957 228.30054 
L 162.195906 226.203549 
L 162.237141 226.203549 
L 162.346026 224.106558 
L 162.385128 224.106558 
L 162.489554 223.058063 
L 162.533611 223.058063 
L 162.586332 222.009567 
L 162.933729 222.009567 
L 163.026335 219.912576 
L 163.062214 219.912576 
L 163.062214 219.388328 
L 163.294462 219.388328 
L 163.294462 218.864081 
L 163.408583 218.864081 
L 163.408583 218.339833 
L 163.550178 218.339833 
L 163.632927 217.291338 
L 163.674153 217.291338 
L 163.759587 216.242842 
L 163.839705 216.242842 
L 163.919452 214.670099 
L 163.981042 214.670099 
L 164.079452 213.621604 
L 164.225221 213.621604 
L 164.274598 212.573108 
L 164.371346 212.573108 
L 164.371346 212.04886 
L 164.619437 212.04886 
L 164.684787 210.476117 
L 164.768446 210.476117 
L 164.768446 209.95187 
L 165.071755 209.95187 
L 165.071755 209.427622 
L 165.320488 209.427622 
L 165.354876 208.379126 
L 165.598101 208.379126 
L 165.598101 207.854879 
L 165.846644 207.854879 
L 165.846644 207.330631 
L 166.198632 207.330631 
L 166.198632 206.806383 
L 166.477922 206.806383 
L 166.477922 206.282136 
L 167.089534 206.282136 
L 167.089534 205.757888 
L 167.433091 205.757888 
L 167.543909 204.709392 
L 167.630482 204.709392 
L 167.630482 204.185145 
L 169.108962 204.185145 
L 169.108962 203.660897 
L 170.522333 203.660897 
L 170.522333 203.136649 
L 172.238417 203.136649 
L 172.238417 202.612401 
L 173.137183 202.612401 
L 173.137183 202.088154 
L 173.600072 202.088154 
L 173.687677 201.039658 
L 173.746445 201.039658 
L 173.79496 199.991163 
L 173.895218 199.991163 
L 173.895218 199.466915 
L 174.048119 199.466915 
L 174.048119 198.942667 
L 174.375549 198.942667 
L 174.482149 197.369924 
L 174.641256 197.369924 
L 174.66821 196.321429 
L 174.882337 196.321429 
L 174.927754 194.748686 
L 175.267547 194.748686 
L 175.345401 193.70019 
L 175.535617 193.70019 
L 175.639387 192.651695 
L 175.668101 192.651695 
L 175.668101 192.127447 
L 175.808517 192.127447 
L 175.862905 191.078952 
L 176.094752 191.078952 
L 176.191235 190.030456 
L 176.230946 190.030456 
L 176.311674 188.981961 
L 176.374725 188.981961 
L 176.439114 187.933465 
L 176.775944 187.933465 
L 176.833489 186.88497 
L 176.896948 186.88497 
L 176.896948 186.360722 
L 177.076872 186.360722 
L 177.105546 184.787979 
L 177.362226 184.787979 
L 177.465163 183.739484 
L 177.730387 183.739484 
L 177.802937 182.690988 
L 177.878066 182.690988 
L 177.954303 181.118245 
L 178.178174 181.118245 
L 178.288322 179.021254 
L 178.322775 179.021254 
L 178.322775 178.497006 
L 178.448048 178.497006 
L 178.515554 177.448511 
L 178.573107 177.448511 
L 178.573107 176.924263 
L 178.77475 176.924263 
L 178.77475 176.400016 
L 179.072511 176.400016 
L 179.072511 175.875768 
L 179.200467 175.875768 
L 179.209142 174.827272 
L 179.371149 174.827272 
L 179.371149 174.303025 
L 179.543425 174.303025 
L 179.649089 172.730281 
L 179.74053 172.730281 
L 179.823765 171.681786 
L 179.855919 171.681786 
L 179.960962 170.109043 
L 180.0177 170.109043 
L 180.116701 168.5363 
L 180.230857 168.5363 
L 180.230857 168.012052 
L 180.351752 168.012052 
L 180.352376 166.963557 
L 180.525028 166.963557 
L 180.591636 165.915061 
L 180.688619 165.915061 
L 180.77897 163.81807 
L 180.840964 163.81807 
L 180.945601 162.245327 
L 181.073563 162.245327 
L 181.09151 160.672584 
L 181.211271 160.672584 
L 181.298923 159.099841 
L 181.328435 159.099841 
L 181.43836 158.051345 
L 181.441876 158.051345 
L 181.485174 157.00285 
L 181.646286 157.00285 
L 181.693692 155.954354 
L 181.762832 155.954354 
L 181.762832 155.430107 
L 181.974278 155.430107 
L 182.040037 153.857364 
L 182.16238 153.857364 
L 182.227985 152.28462 
L 182.362335 152.28462 
L 182.397837 150.711877 
L 182.490683 150.711877 
L 182.490683 150.18763 
L 182.621362 150.18763 
L 182.730957 148.614886 
L 182.809046 148.614886 
L 182.909388 147.566391 
L 182.922292 147.566391 
L 182.990419 146.517896 
L 183.110458 146.517896 
L 183.183669 145.4694 
L 183.224911 145.4694 
L 183.335984 142.848162 
L 183.353815 142.848162 
L 183.458331 141.799666 
L 183.543044 141.799666 
L 183.606694 140.226923 
L 183.671652 140.226923 
L 183.671652 139.702675 
L 183.905723 139.702675 
L 183.937166 138.65418 
L 184.169673 138.65418 
L 184.278301 136.557189 
L 184.375384 136.557189 
L 184.460622 131.838959 
L 184.57671 131.838959 
L 184.618642 130.266216 
L 184.815229 130.266216 
L 184.893047 127.644978 
L 184.937084 127.644978 
L 185.017209 126.596482 
L 185.052384 126.596482 
L 185.052384 126.072235 
L 185.176346 126.072235 
L 185.176346 125.547987 
L 185.311587 125.547987 
L 185.388592 124.499491 
L 185.44113 124.499491 
L 185.546651 122.926748 
L 185.582601 122.926748 
L 185.582601 122.4025 
L 185.706469 122.4025 
L 185.791739 120.829757 
L 185.85802 120.829757 
L 185.935778 119.257014 
L 185.996115 119.257014 
L 186.088459 117.684271 
L 186.214074 117.684271 
L 186.324231 116.635776 
L 186.402547 116.635776 
L 186.404742 115.58728 
L 186.542014 115.58728 
L 186.621514 113.490289 
L 186.688995 113.490289 
L 186.745027 111.917546 
L 186.89285 111.917546 
L 186.925243 110.344803 
L 187.107803 110.344803 
L 187.185154 108.247812 
L 187.249209 108.247812 
L 187.352531 106.150821 
L 187.449455 106.150821 
L 187.547479 103.529583 
L 187.564309 103.529583 
L 187.669839 101.956839 
L 187.706093 101.956839 
L 187.804286 100.384096 
L 187.981795 100.384096 
L 188.057312 98.287105 
L 188.137262 98.287105 
L 188.224741 95.141619 
L 188.319631 95.141619 
L 188.419856 91.996133 
L 188.443652 91.996133 
L 188.542384 89.374894 
L 188.555944 89.374894 
L 188.648258 86.229408 
L 188.753867 86.229408 
L 188.826837 84.132417 
L 188.879747 84.132417 
L 188.899498 83.083922 
L 189.033363 83.083922 
L 189.067231 82.035426 
L 189.15535 82.035426 
L 189.217324 80.462683 
L 189.3006 80.462683 
L 189.400075 78.365692 
L 189.415555 78.365692 
L 189.514735 76.792949 
L 189.541453 76.792949 
L 189.622813 74.695958 
L 189.69328 74.695958 
L 189.764182 72.598967 
L 189.817167 72.598967 
L 189.859582 71.026224 
L 189.931948 71.026224 
L 189.98727 68.404985 
L 190.052713 68.404985 
L 190.052713 67.880738 
L 190.177922 67.880738 
L 190.244048 65.783747 
L 190.294877 65.783747 
L 190.396433 63.686756 
L 190.417994 63.686756 
L 190.422511 62.638261 
L 190.533332 62.638261 
L 190.643443 58.968526 
L 190.712589 58.968526 
L 190.801522 57.395783 
L 190.840561 57.395783 
L 190.911622 55.82304 
L 190.988443 55.82304 
L 191.043153 54.250297 
L 191.100362 54.250297 
L 191.159379 52.677554 
L 191.253982 52.677554 
L 191.301254 50.580563 
L 191.443931 50.580563 
L 191.541869 49.00782 
L 191.608798 49.00782 
L 191.70806 45.862334 
L 191.808034 45.862334 
L 191.86691 44.813838 
L 191.970413 44.813838 
L 191.987868 43.765343 
L 192.119316 43.765343 
L 192.119316 43.241095 
L 192.270684 43.241095 
L 192.361862 40.619856 
L 192.386983 40.619856 
L 192.488951 38.522865 
L 192.524959 38.522865 
L 192.524959 37.998618 
L 192.65909 37.998618 
L 192.700526 36.950122 
L 192.875523 36.950122 
L 192.929959 35.901627 
L 193.010544 35.901627 
L 193.071108 34.853131 
L 193.168812 34.853131 
L 193.245339 33.804636 
L 193.308314 33.804636 
L 193.327397 32.756141 
L 193.456015 32.756141 
L 193.456015 32.231893 
L 193.621217 32.231893 
L 193.633038 31.183397 
L 193.764262 31.183397 
L 193.857831 30.134902 
L 193.907262 30.134902 
L 193.907262 29.610654 
L 194.079721 29.610654 
L 194.172989 28.562159 
L 194.289908 28.562159 
L 194.289908 28.037911 
L 194.423664 28.037911 
L 194.423664 27.513663 
L 333.168 27.513663 
L 333.168 27.513663 
" style="fill:none;stroke:#ff7500;stroke-linecap:square;stroke-width:1.5;"/>
   </g>
   <g id="line2d_51">
    <defs>
     <path d="M 0 -6 
L -1.347084 -1.854102 
L -5.706339 -1.854102 
L -2.179628 0.708204 
L -3.526712 4.854102 
L -0 2.291796 
L 3.526712 4.854102 
L 2.179628 0.708204 
L 5.706339 -1.854102 
L 1.347084 -1.854102 
z
" id="m3ef5340025" style="stroke:#ff7500;stroke-linejoin:bevel;stroke-width:1.5;"/>
    </defs>
    <g>
     <use style="fill:none;stroke:#ff7500;stroke-linejoin:bevel;stroke-width:1.5;" x="194.423664" xlink:href="#m3ef5340025" y="28.037911"/>
     <use style="fill:none;stroke:#ff7500;stroke-linejoin:bevel;stroke-width:1.5;" x="194.423664" xlink:href="#m3ef5340025" y="27.513663"/>
     <use style="fill:none;stroke:#ff7500;stroke-linejoin:bevel;stroke-width:1.5;" x="194.423664" xlink:href="#m3ef5340025" y="27.513663"/>
     <use style="fill:none;stroke:#ff7500;stroke-linejoin:bevel;stroke-width:1.5;" x="333.168" xlink:href="#m3ef5340025" y="27.513663"/>
    </g>
   </g>
   <g id="line2d_52">
    <path style="fill:none;stroke:#ff7500;stroke-linecap:square;stroke-width:1.5;"/>
    <g/>
   </g>
   <g id="line2d_53">
    <defs>
     <path d="M 0 1.5 
C 0.397805 1.5 0.77937 1.341951 1.06066 1.06066 
C 1.341951 0.77937 1.5 0.397805 1.5 0 
C 1.5 -0.397805 1.341951 -0.77937 1.06066 -1.06066 
C 0.77937 -1.341951 0.397805 -1.5 0 -1.5 
C -0.397805 -1.5 -0.77937 -1.341951 -1.06066 -1.06066 
C -1.341951 -0.77937 -1.5 -0.397805 -1.5 0 
C -1.5 0.397805 -1.341951 0.77937 -1.06066 1.06066 
C -0.77937 1.341951 -0.397805 1.5 0 1.5 
z
" id="m7cb375820b" style="stroke:#6495ed;"/>
    </defs>
    <g>
     <use style="fill:#6495ed;stroke:#6495ed;" x="189.1445" xlink:href="#m7cb375820b" y="27.513663"/>
     <use style="fill:#6495ed;stroke:#6495ed;" x="189.1445" xlink:href="#m7cb375820b" y="27.513663"/>
    </g>
   </g>
   <g id="line2d_54">
    <path d="M 131.289977 294.88 
L 131.289977 294.355752 
L 131.728677 294.355752 
L 131.728677 293.831505 
L 132.094518 293.831505 
L 132.156459 292.783009 
L 132.391853 292.783009 
L 132.391853 291.734514 
L 132.593956 291.734514 
L 132.654126 290.686018 
L 132.932169 290.686018 
L 132.932169 290.161771 
L 133.049967 290.161771 
L 133.059747 289.113275 
L 133.273515 289.113275 
L 133.36981 288.06478 
L 133.408177 288.06478 
L 133.408177 287.540532 
L 133.579779 287.540532 
L 133.579779 287.016284 
L 133.730889 287.016284 
L 133.796584 285.967789 
L 134.112151 285.967789 
L 134.139719 283.870798 
L 134.240425 283.870798 
L 134.240425 283.34655 
L 134.412994 283.34655 
L 134.449104 282.298055 
L 134.583847 282.298055 
L 134.583847 281.773807 
L 134.761877 281.773807 
L 134.823755 280.201064 
L 134.876616 280.201064 
L 134.973107 277.579825 
L 135.016789 277.579825 
L 135.10382 274.958587 
L 135.129844 274.958587 
L 135.216306 273.385844 
L 135.267975 273.385844 
L 135.293751 272.337348 
L 135.439093 272.337348 
L 135.464614 271.288853 
L 135.633795 271.288853 
L 135.73451 269.716109 
L 135.759597 269.716109 
L 135.842956 268.143366 
L 135.876187 268.143366 
L 135.876187 267.619119 
L 136.008471 267.619119 
L 136.107021 266.570623 
L 136.123391 266.570623 
L 136.196864 264.473632 
L 136.28624 264.473632 
L 136.391271 263.425137 
L 136.423459 263.425137 
L 136.527657 260.803898 
L 136.575537 260.803898 
L 136.65504 259.231155 
L 136.72628 259.231155 
L 136.72628 258.706907 
L 136.969427 258.706907 
L 137.008324 257.658412 
L 137.163039 257.658412 
L 137.255203 256.609917 
L 137.278167 256.609917 
L 137.278167 256.085669 
L 137.483475 256.085669 
L 137.573942 253.46443 
L 137.611496 253.46443 
L 137.611496 252.940182 
L 137.812884 252.940182 
L 137.901638 251.367439 
L 137.9532 251.367439 
L 138.063173 248.221953 
L 138.165183 248.221953 
L 138.266591 247.173458 
L 138.41759 247.173458 
L 138.489031 246.124962 
L 138.595638 246.124962 
L 138.595638 245.600714 
L 138.792887 245.600714 
L 138.862788 243.503724 
L 138.91155 243.503724 
L 138.960174 241.93098 
L 139.112104 241.93098 
L 139.112104 241.406733 
L 139.378176 241.406733 
L 139.46596 239.309742 
L 139.499603 239.309742 
L 139.573389 238.261246 
L 140.055191 238.261246 
L 140.107179 236.688503 
L 140.242905 236.688503 
L 140.249341 235.640008 
L 140.949214 235.640008 
L 141.035496 234.591512 
L 141.121347 234.591512 
L 141.121347 234.067265 
L 141.502459 234.067265 
L 141.502459 233.543017 
L 142.16556 233.543017 
L 142.16556 233.018769 
L 143.494384 233.018769 
L 143.494384 232.494521 
L 151.933608 232.494521 
L 151.933608 231.970274 
L 152.995792 231.970274 
L 152.995792 231.446026 
L 153.341761 231.446026 
L 153.341761 230.921778 
L 153.532981 230.921778 
L 153.589342 229.873283 
L 154.09132 229.873283 
L 154.09132 229.349035 
L 154.776419 229.349035 
L 154.776419 228.824787 
L 154.952404 228.824787 
L 155.012485 227.776292 
L 155.066923 227.776292 
L 155.066923 227.252044 
L 155.387309 227.252044 
L 155.387309 226.727797 
L 155.662502 226.727797 
L 155.662502 226.203549 
L 156.090264 226.203549 
L 156.090264 225.679301 
L 156.238135 225.679301 
L 156.238135 225.155053 
L 156.812307 225.155053 
L 156.922436 223.58231 
L 157.33937 223.58231 
L 157.386925 222.533815 
L 157.646149 222.533815 
L 157.646149 222.009567 
L 157.859993 222.009567 
L 157.869231 220.961072 
L 158.036948 220.961072 
L 158.036948 220.436824 
L 158.385485 220.436824 
L 158.385485 219.912576 
L 158.523834 219.912576 
L 158.59702 218.864081 
L 158.904085 218.864081 
L 158.982166 217.815585 
L 159.130837 217.815585 
L 159.152278 216.76709 
L 159.600629 216.76709 
L 159.600629 216.242842 
L 159.803998 216.242842 
L 159.910938 214.670099 
L 160.064018 214.670099 
L 160.064018 214.145851 
L 160.187524 214.145851 
L 160.187524 213.621604 
L 160.521178 213.621604 
L 160.613925 212.04886 
L 160.725737 212.04886 
L 160.725737 211.524613 
L 160.854302 211.524613 
L 160.912424 210.476117 
L 161.182996 210.476117 
L 161.182996 209.95187 
L 161.394923 209.95187 
L 161.394923 209.427622 
L 161.658063 209.427622 
L 161.658063 208.903374 
L 161.774346 208.903374 
L 161.774346 208.379126 
L 162.004579 208.379126 
L 162.035407 206.806383 
L 162.577556 206.806383 
L 162.658123 205.757888 
L 162.710463 205.757888 
L 162.710463 205.23364 
L 162.93029 205.23364 
L 163.033175 203.660897 
L 163.0588 203.660897 
L 163.079273 202.612401 
L 163.411928 202.612401 
L 163.480359 200.515411 
L 163.583325 200.515411 
L 163.679093 199.466915 
L 163.99883 199.466915 
L 163.99883 198.942667 
L 164.158097 198.942667 
L 164.204473 197.369924 
L 164.352357 197.369924 
L 164.352357 196.845677 
L 164.566352 196.845677 
L 164.644362 194.224438 
L 164.942202 194.224438 
L 164.942202 193.70019 
L 165.082381 193.70019 
L 165.108159 192.651695 
L 165.283032 192.651695 
L 165.336943 191.078952 
L 165.466534 191.078952 
L 165.524311 190.030456 
L 165.584842 190.030456 
L 165.584842 189.506209 
L 165.795766 189.506209 
L 165.795766 188.981961 
L 165.937846 188.981961 
L 166.032874 186.88497 
L 166.093075 186.88497 
L 166.200054 185.312227 
L 166.390954 185.312227 
L 166.390954 184.787979 
L 166.567235 184.787979 
L 166.658856 183.739484 
L 166.767886 183.739484 
L 166.82557 182.690988 
L 166.899453 182.690988 
L 166.967581 181.642493 
L 167.103032 181.642493 
L 167.163638 180.593997 
L 167.250805 180.593997 
L 167.260166 179.545502 
L 167.415877 179.545502 
L 167.430444 178.497006 
L 167.612155 178.497006 
L 167.612155 177.972759 
L 167.786779 177.972759 
L 167.896636 176.400016 
L 167.935242 176.400016 
L 167.935242 175.35152 
L 168.055649 175.35152 
L 168.055649 174.827272 
L 168.541427 174.827272 
L 168.594703 173.254529 
L 168.743736 173.254529 
L 168.809832 170.633291 
L 169.041598 170.633291 
L 169.134156 166.963557 
L 169.158115 166.963557 
L 169.158115 166.439309 
L 169.369897 166.439309 
L 169.463061 164.866566 
L 169.563909 164.866566 
L 169.64905 162.769575 
L 169.808859 162.769575 
L 169.904266 161.196832 
L 170.096905 161.196832 
L 170.195239 160.148336 
L 170.239138 160.148336 
L 170.298616 159.099841 
L 170.393578 159.099841 
L 170.43364 158.051345 
L 170.562096 158.051345 
L 170.662199 156.478602 
L 170.681931 156.478602 
L 170.770445 154.905859 
L 170.806376 154.905859 
L 170.884511 153.857364 
L 171.004278 153.857364 
L 171.061171 152.28462 
L 171.124284 152.28462 
L 171.233912 150.711877 
L 171.328079 150.711877 
L 171.381809 148.614886 
L 171.548248 148.614886 
L 171.630348 147.042143 
L 171.723405 147.042143 
L 171.723405 146.517896 
L 171.845679 146.517896 
L 171.944708 144.945152 
L 171.991472 144.945152 
L 172.065423 143.896657 
L 172.18128 143.896657 
L 172.18128 143.372409 
L 172.345164 143.372409 
L 172.395811 141.799666 
L 172.462121 141.799666 
L 172.54293 140.226923 
L 172.605737 140.226923 
L 172.675147 139.178427 
L 172.800544 139.178427 
L 172.8952 137.605684 
L 172.923111 137.605684 
L 172.971126 136.557189 
L 173.050537 136.557189 
L 173.078197 135.508693 
L 173.240395 135.508693 
L 173.310115 134.460198 
L 173.372059 134.460198 
L 173.372059 133.93595 
L 173.509229 133.93595 
L 173.600996 130.790464 
L 173.682157 130.790464 
L 173.777584 129.217721 
L 173.824187 129.217721 
L 173.933344 126.596482 
L 173.936064 126.596482 
L 174.045417 125.023739 
L 174.069723 125.023739 
L 174.069723 124.499491 
L 174.208598 124.499491 
L 174.293164 123.450996 
L 174.341934 123.450996 
L 174.444342 120.829757 
L 174.516368 120.829757 
L 174.604669 118.208519 
L 174.675159 118.208519 
L 174.743631 116.635776 
L 174.846261 116.635776 
L 174.932032 113.490289 
L 174.993524 113.490289 
L 175.091286 111.917546 
L 175.139537 111.917546 
L 175.227225 110.344803 
L 175.321998 110.344803 
L 175.367938 107.723564 
L 175.440357 107.723564 
L 175.499232 105.626573 
L 175.58758 105.626573 
L 175.650058 104.05383 
L 175.725385 104.05383 
L 175.732737 103.005335 
L 175.844254 103.005335 
L 175.950215 101.956839 
L 175.975999 101.956839 
L 176.070747 99.859849 
L 176.154619 99.859849 
L 176.154619 99.335601 
L 176.352684 99.335601 
L 176.432843 98.287105 
L 176.492327 98.287105 
L 176.576505 97.23861 
L 176.664915 97.23861 
L 176.736703 96.190115 
L 176.811261 96.190115 
L 176.902289 94.617371 
L 176.928209 94.617371 
L 177.010284 91.996133 
L 177.040583 91.996133 
L 177.058737 90.947637 
L 177.160496 90.947637 
L 177.200282 89.899142 
L 177.280325 89.899142 
L 177.298973 88.850646 
L 177.418584 88.850646 
L 177.496883 87.277903 
L 177.607076 87.277903 
L 177.697639 85.180912 
L 177.834762 85.180912 
L 177.839098 84.132417 
L 177.962913 84.132417 
L 178.030919 83.083922 
L 178.082994 83.083922 
L 178.105771 82.035426 
L 178.320667 82.035426 
L 178.391473 80.986931 
L 178.432701 80.986931 
L 178.464775 79.938435 
L 178.60354 79.938435 
L 178.653911 78.365692 
L 178.761746 78.365692 
L 178.868228 77.317197 
L 178.909686 77.317197 
L 178.930717 76.268701 
L 179.022679 76.268701 
L 179.049633 74.695958 
L 179.140292 74.695958 
L 179.140292 74.17171 
L 179.261097 74.17171 
L 179.308917 73.123215 
L 179.447637 73.123215 
L 179.483128 71.550472 
L 179.632825 71.550472 
L 179.678975 69.453481 
L 179.754754 69.453481 
L 179.754754 68.929233 
L 179.934762 68.929233 
L 180.002418 66.832242 
L 180.116068 66.832242 
L 180.17545 64.735251 
L 180.343635 64.735251 
L 180.453817 62.114013 
L 180.462502 62.114013 
L 180.52441 61.065517 
L 180.64756 61.065517 
L 180.674535 59.492774 
L 180.806955 59.492774 
L 180.806955 58.968526 
L 180.952836 58.968526 
L 181.045409 57.395783 
L 181.092108 57.395783 
L 181.092108 56.871536 
L 181.307191 56.871536 
L 181.347884 55.82304 
L 181.465879 55.82304 
L 181.546423 54.774545 
L 181.594105 54.774545 
L 181.68734 53.201802 
L 181.875736 53.201802 
L 181.875736 52.677554 
L 182.030982 52.677554 
L 182.048522 51.104811 
L 182.207265 51.104811 
L 182.238056 50.056315 
L 182.473588 50.056315 
L 182.473588 49.532068 
L 182.632299 49.532068 
L 182.727696 48.483572 
L 182.850656 48.483572 
L 182.850656 47.959324 
L 182.980244 47.959324 
L 183.061477 46.386581 
L 183.302896 46.386581 
L 183.302896 45.862334 
L 183.483841 45.862334 
L 183.566358 44.28959 
L 183.634047 44.28959 
L 183.674739 43.241095 
L 183.804411 43.241095 
L 183.83451 42.192599 
L 183.929564 42.192599 
L 184.024095 41.144104 
L 184.15467 41.144104 
L 184.210613 40.095609 
L 184.518029 40.095609 
L 184.600614 39.047113 
L 184.844573 39.047113 
L 184.879623 37.998618 
L 185.429985 37.998618 
L 185.429985 37.47437 
L 185.567861 37.47437 
L 185.567861 36.950122 
L 185.740263 36.950122 
L 185.771258 35.901627 
L 186.02396 35.901627 
L 186.02396 35.377379 
L 186.16563 35.377379 
L 186.16563 34.853131 
L 186.458207 34.853131 
L 186.458207 34.328884 
L 186.71143 34.328884 
L 186.71143 33.804636 
L 186.893276 33.804636 
L 186.893276 33.280388 
L 187.104854 33.280388 
L 187.104854 32.756141 
L 187.309278 32.756141 
L 187.309278 32.231893 
L 187.470508 32.231893 
L 187.470508 31.707645 
L 187.595462 31.707645 
L 187.595462 31.183397 
L 187.845506 31.183397 
L 187.845506 30.65915 
L 188.401108 30.65915 
L 188.401108 30.134902 
L 188.563688 30.134902 
L 188.563688 29.610654 
L 188.869102 29.610654 
L 188.966183 28.562159 
L 189.049929 28.562159 
L 189.1445 27.513663 
L 333.168 27.513663 
L 333.168 27.513663 
" style="fill:none;stroke:#6495ed;stroke-linecap:square;stroke-width:1.5;"/>
   </g>
   <g id="line2d_55">
    <defs>
     <path d="M -0 6 
L 6 -6 
L -6 -6 
z
" id="mf8acb4a97b" style="stroke:#6495ed;stroke-linejoin:miter;stroke-width:1.5;"/>
    </defs>
    <g>
     <use style="fill:none;stroke:#6495ed;stroke-linejoin:miter;stroke-width:1.5;" x="156.922436" xlink:href="#mf8acb4a97b" y="223.58231"/>
     <use style="fill:none;stroke:#6495ed;stroke-linejoin:miter;stroke-width:1.5;" x="182.473588" xlink:href="#mf8acb4a97b" y="50.056315"/>
     <use style="fill:none;stroke:#6495ed;stroke-linejoin:miter;stroke-width:1.5;" x="189.1445" xlink:href="#mf8acb4a97b" y="27.513663"/>
     <use style="fill:none;stroke:#6495ed;stroke-linejoin:miter;stroke-width:1.5;" x="189.1445" xlink:href="#mf8acb4a97b" y="27.513663"/>
     <use style="fill:none;stroke:#6495ed;stroke-linejoin:miter;stroke-width:1.5;" x="333.168" xlink:href="#mf8acb4a97b" y="27.513663"/>
    </g>
   </g>
   <g id="line2d_56">
    <path style="fill:none;stroke:#6495ed;stroke-linecap:square;stroke-width:1.5;"/>
    <g/>
   </g>
   <g id="line2d_57">
    <path d="M 333.168 294.88 
L 363.64328 289.532673 
" style="fill:none;stroke:#000080;stroke-linecap:square;stroke-width:1.5;"/>
    <g>
     <use style="fill:none;stroke:#000080;stroke-width:1.5;" x="333.168" xlink:href="#m98b1dbb384" y="294.88"/>
     <use style="fill:none;stroke:#000080;stroke-width:1.5;" x="363.64328" xlink:href="#m98b1dbb384" y="289.532673"/>
    </g>
   </g>
   <g id="line2d_58">
    <path d="M 333.168 27.513663 
L 363.64328 225.364752 
" style="fill:none;stroke:#ff00ff;stroke-linecap:square;stroke-width:1.5;"/>
    <g>
     <use style="fill:none;stroke:#ff00ff;stroke-linejoin:miter;stroke-width:1.5;" x="333.168" xlink:href="#m32d3fb1014" y="27.513663"/>
     <use style="fill:none;stroke:#ff00ff;stroke-linejoin:miter;stroke-width:1.5;" x="363.64328" xlink:href="#m32d3fb1014" y="225.364752"/>
    </g>
   </g>
   <g id="line2d_59">
    <path d="M 333.168 27.513663 
L 363.64328 161.196832 
" style="fill:none;stroke:#ff7500;stroke-linecap:square;stroke-width:1.5;"/>
    <g>
     <use style="fill:none;stroke:#ff7500;stroke-linejoin:bevel;stroke-width:1.5;" x="333.168" xlink:href="#m3ef5340025" y="27.513663"/>
     <use style="fill:none;stroke:#ff7500;stroke-linejoin:bevel;stroke-width:1.5;" x="363.64328" xlink:href="#m3ef5340025" y="161.196832"/>
    </g>
   </g>
   <g id="line2d_60">
    <path d="M 333.168 27.513663 
L 363.64328 97.028911 
" style="fill:none;stroke:#6495ed;stroke-linecap:square;stroke-width:1.5;"/>
    <g>
     <use style="fill:none;stroke:#6495ed;stroke-linejoin:miter;stroke-width:1.5;" x="333.168" xlink:href="#mf8acb4a97b" y="27.513663"/>
     <use style="fill:none;stroke:#6495ed;stroke-linejoin:miter;stroke-width:1.5;" x="363.64328" xlink:href="#mf8acb4a97b" y="97.028911"/>
    </g>
   </g>
   <g id="line2d_61">
    <path d="M 333.168 294.88 
L 333.168 27.513663 
" style="fill:none;stroke:#000000;stroke-linecap:square;stroke-width:1.5;"/>
   </g>
   <g id="patch_3">
    <path d="M 56.12 294.88 
L 56.12 24.84 
" style="fill:none;stroke:#000000;stroke-linecap:square;stroke-linejoin:miter;stroke-width:0.8;"/>
   </g>
   <g id="patch_4">
    <path d="M 333.168 294.88 
L 333.168 24.84 
" style="fill:none;stroke:#000000;stroke-linecap:square;stroke-linejoin:miter;stroke-width:0.8;"/>
   </g>
   <g id="patch_5">
    <path d="M 56.12 294.88 
L 333.168 294.88 
" style="fill:none;stroke:#000000;stroke-linecap:square;stroke-linejoin:miter;stroke-width:0.8;"/>
   </g>
   <g id="patch_6">
    <path d="M 56.12 24.84 
L 333.168 24.84 
" style="fill:none;stroke:#000000;stroke-linecap:square;stroke-linejoin:miter;stroke-width:0.8;"/>
   </g>
   <g id="text_13">
    <!-- scipyAlg -->
    <defs>
     <path d="M 32.171875 -5.078125 
Q 28.375 -14.84375 24.75 -17.8125 
Q 21.140625 -20.796875 15.09375 -20.796875 
L 7.90625 -20.796875 
L 7.90625 -13.28125 
L 13.1875 -13.28125 
Q 16.890625 -13.28125 18.9375 -11.515625 
Q 21 -9.765625 23.484375 -3.21875 
L 25.09375 0.875 
L 2.984375 54.6875 
L 12.5 54.6875 
L 29.59375 11.921875 
L 46.6875 54.6875 
L 56.203125 54.6875 
z
" id="DejaVuSans-79"/>
     <path d="M 34.1875 63.1875 
L 20.796875 26.90625 
L 47.609375 26.90625 
z
M 28.609375 72.90625 
L 39.796875 72.90625 
L 67.578125 0 
L 57.328125 0 
L 50.6875 18.703125 
L 17.828125 18.703125 
L 11.1875 0 
L 0.78125 0 
z
" id="DejaVuSans-41"/>
    </defs>
    <g transform="translate(369.18424 294.223611)scale(0.17 -0.17)">
     <use xlink:href="#DejaVuSans-73"/>
     <use x="52.099609" xlink:href="#DejaVuSans-63"/>
     <use x="107.080078" xlink:href="#DejaVuSans-69"/>
     <use x="134.863281" xlink:href="#DejaVuSans-70"/>
     <use x="198.339844" xlink:href="#DejaVuSans-79"/>
     <use x="257.519531" xlink:href="#DejaVuSans-41"/>
     <use x="325.927734" xlink:href="#DejaVuSans-6c"/>
     <use x="353.710938" xlink:href="#DejaVuSans-67"/>
    </g>
   </g>
   <g id="text_14">
    <!-- CMA ES PPM -->
    <defs>
     <path d="M 64.40625 67.28125 
L 64.40625 56.890625 
Q 59.421875 61.53125 53.78125 63.8125 
Q 48.140625 66.109375 41.796875 66.109375 
Q 29.296875 66.109375 22.65625 58.46875 
Q 16.015625 50.828125 16.015625 36.375 
Q 16.015625 21.96875 22.65625 14.328125 
Q 29.296875 6.6875 41.796875 6.6875 
Q 48.140625 6.6875 53.78125 8.984375 
Q 59.421875 11.28125 64.40625 15.921875 
L 64.40625 5.609375 
Q 59.234375 2.09375 53.4375 0.328125 
Q 47.65625 -1.421875 41.21875 -1.421875 
Q 24.65625 -1.421875 15.125 8.703125 
Q 5.609375 18.84375 5.609375 36.375 
Q 5.609375 53.953125 15.125 64.078125 
Q 24.65625 74.21875 41.21875 74.21875 
Q 47.75 74.21875 53.53125 72.484375 
Q 59.328125 70.75 64.40625 67.28125 
z
" id="DejaVuSans-43"/>
     <path d="M 9.8125 72.90625 
L 24.515625 72.90625 
L 43.109375 23.296875 
L 61.8125 72.90625 
L 76.515625 72.90625 
L 76.515625 0 
L 66.890625 0 
L 66.890625 64.015625 
L 48.09375 14.015625 
L 38.1875 14.015625 
L 19.390625 64.015625 
L 19.390625 0 
L 9.8125 0 
z
" id="DejaVuSans-4d"/>
     <path d="M 9.8125 72.90625 
L 55.90625 72.90625 
L 55.90625 64.59375 
L 19.671875 64.59375 
L 19.671875 43.015625 
L 54.390625 43.015625 
L 54.390625 34.71875 
L 19.671875 34.71875 
L 19.671875 8.296875 
L 56.78125 8.296875 
L 56.78125 0 
L 9.8125 0 
z
" id="DejaVuSans-45"/>
     <path d="M 53.515625 70.515625 
L 53.515625 60.890625 
Q 47.90625 63.578125 42.921875 64.890625 
Q 37.9375 66.21875 33.296875 66.21875 
Q 25.25 66.21875 20.875 63.09375 
Q 16.5 59.96875 16.5 54.203125 
Q 16.5 49.359375 19.40625 46.890625 
Q 22.3125 44.4375 30.421875 42.921875 
L 36.375 41.703125 
Q 47.40625 39.59375 52.65625 34.296875 
Q 57.90625 29 57.90625 20.125 
Q 57.90625 9.515625 50.796875 4.046875 
Q 43.703125 -1.421875 29.984375 -1.421875 
Q 24.8125 -1.421875 18.96875 -0.25 
Q 13.140625 0.921875 6.890625 3.21875 
L 6.890625 13.375 
Q 12.890625 10.015625 18.65625 8.296875 
Q 24.421875 6.59375 29.984375 6.59375 
Q 38.421875 6.59375 43.015625 9.90625 
Q 47.609375 13.234375 47.609375 19.390625 
Q 47.609375 24.75 44.3125 27.78125 
Q 41.015625 30.8125 33.5 32.328125 
L 27.484375 33.5 
Q 16.453125 35.6875 11.515625 40.375 
Q 6.59375 45.0625 6.59375 53.421875 
Q 6.59375 63.09375 13.40625 68.65625 
Q 20.21875 74.21875 32.171875 74.21875 
Q 37.3125 74.21875 42.625 73.28125 
Q 47.953125 72.359375 53.515625 70.515625 
z
" id="DejaVuSans-53"/>
     <path d="M 19.671875 64.796875 
L 19.671875 37.40625 
L 32.078125 37.40625 
Q 38.96875 37.40625 42.71875 40.96875 
Q 46.484375 44.53125 46.484375 51.125 
Q 46.484375 57.671875 42.71875 61.234375 
Q 38.96875 64.796875 32.078125 64.796875 
z
M 9.8125 72.90625 
L 32.078125 72.90625 
Q 44.34375 72.90625 50.609375 67.359375 
Q 56.890625 61.8125 56.890625 51.125 
Q 56.890625 40.328125 50.609375 34.8125 
Q 44.34375 29.296875 32.078125 29.296875 
L 19.671875 29.296875 
L 19.671875 0 
L 9.8125 0 
z
" id="DejaVuSans-50"/>
    </defs>
    <g transform="translate(369.18424 230.05569)scale(0.17 -0.17)">
     <use xlink:href="#DejaVuSans-43"/>
     <use x="69.824219" xlink:href="#DejaVuSans-4d"/>
     <use x="156.103516" xlink:href="#DejaVuSans-41"/>
     <use x="224.511719" xlink:href="#DejaVuSans-20"/>
     <use x="256.298828" xlink:href="#DejaVuSans-45"/>
     <use x="319.482422" xlink:href="#DejaVuSans-53"/>
     <use x="382.958984" xlink:href="#DejaVuSans-20"/>
     <use x="414.746094" xlink:href="#DejaVuSans-50"/>
     <use x="475.048828" xlink:href="#DejaVuSans-50"/>
     <use x="535.351562" xlink:href="#DejaVuSans-4d"/>
    </g>
   </g>
   <g id="text_15">
    <!-- CMA ES CSA -->
    <g transform="translate(369.18424 165.887769)scale(0.17 -0.17)">
     <use xlink:href="#DejaVuSans-43"/>
     <use x="69.824219" xlink:href="#DejaVuSans-4d"/>
     <use x="156.103516" xlink:href="#DejaVuSans-41"/>
     <use x="224.511719" xlink:href="#DejaVuSans-20"/>
     <use x="256.298828" xlink:href="#DejaVuSans-45"/>
     <use x="319.482422" xlink:href="#DejaVuSans-53"/>
     <use x="382.958984" xlink:href="#DejaVuSans-20"/>
     <use x="414.746094" xlink:href="#DejaVuSans-43"/>
     <use x="484.570312" xlink:href="#DejaVuSans-53"/>
     <use x="548.0625" xlink:href="#DejaVuSans-41"/>
    </g>
   </g>
   <g id="text_16">
    <!-- CMAES posi -->
    <g transform="translate(369.18424 101.719848)scale(0.17 -0.17)">
     <use xlink:href="#DejaVuSans-43"/>
     <use x="69.824219" xlink:href="#DejaVuSans-4d"/>
     <use x="156.103516" xlink:href="#DejaVuSans-41"/>
     <use x="224.511719" xlink:href="#DejaVuSans-45"/>
     <use x="287.695312" xlink:href="#DejaVuSans-53"/>
     <use x="351.171875" xlink:href="#DejaVuSans-20"/>
     <use x="382.958984" xlink:href="#DejaVuSans-70"/>
     <use x="446.435547" xlink:href="#DejaVuSans-6f"/>
     <use x="507.617188" xlink:href="#DejaVuSans-73"/>
     <use x="559.716797" xlink:href="#DejaVuSans-69"/>
    </g>
   </g>
   <g id="text_17">
    <!-- best 2009 -->
    <defs>
     <path d="M 48.6875 27.296875 
Q 48.6875 37.203125 44.609375 42.84375 
Q 40.53125 48.484375 33.40625 48.484375 
Q 26.265625 48.484375 22.1875 42.84375 
Q 18.109375 37.203125 18.109375 27.296875 
Q 18.109375 17.390625 22.1875 11.75 
Q 26.265625 6.109375 33.40625 6.109375 
Q 40.53125 6.109375 44.609375 11.75 
Q 48.6875 17.390625 48.6875 27.296875 
z
M 18.109375 46.390625 
Q 20.953125 51.265625 25.265625 53.625 
Q 29.59375 56 35.59375 56 
Q 45.5625 56 51.78125 48.09375 
Q 58.015625 40.1875 58.015625 27.296875 
Q 58.015625 14.40625 51.78125 6.484375 
Q 45.5625 -1.421875 35.59375 -1.421875 
Q 29.59375 -1.421875 25.265625 0.953125 
Q 20.953125 3.328125 18.109375 8.203125 
L 18.109375 0 
L 9.078125 0 
L 9.078125 75.984375 
L 18.109375 75.984375 
z
" id="DejaVuSans-62"/>
     <path d="M 10.984375 1.515625 
L 10.984375 10.5 
Q 14.703125 8.734375 18.5 7.8125 
Q 22.3125 6.890625 25.984375 6.890625 
Q 35.75 6.890625 40.890625 13.453125 
Q 46.046875 20.015625 46.78125 33.40625 
Q 43.953125 29.203125 39.59375 26.953125 
Q 35.25 24.703125 29.984375 24.703125 
Q 19.046875 24.703125 12.671875 31.3125 
Q 6.296875 37.9375 6.296875 49.421875 
Q 6.296875 60.640625 12.9375 67.421875 
Q 19.578125 74.21875 30.609375 74.21875 
Q 43.265625 74.21875 49.921875 64.515625 
Q 56.59375 54.828125 56.59375 36.375 
Q 56.59375 19.140625 48.40625 8.859375 
Q 40.234375 -1.421875 26.421875 -1.421875 
Q 22.703125 -1.421875 18.890625 -0.6875 
Q 15.09375 0.046875 10.984375 1.515625 
z
M 30.609375 32.421875 
Q 37.25 32.421875 41.125 36.953125 
Q 45.015625 41.5 45.015625 49.421875 
Q 45.015625 57.28125 41.125 61.84375 
Q 37.25 66.40625 30.609375 66.40625 
Q 23.96875 66.40625 20.09375 61.84375 
Q 16.21875 57.28125 16.21875 49.421875 
Q 16.21875 41.5 20.09375 36.953125 
Q 23.96875 32.421875 30.609375 32.421875 
z
" id="DejaVuSans-39"/>
    </defs>
    <g transform="translate(369.18424 37.551928)scale(0.17 -0.17)">
     <use xlink:href="#DejaVuSans-62"/>
     <use x="63.476562" xlink:href="#DejaVuSans-65"/>
     <use x="125" xlink:href="#DejaVuSans-73"/>
     <use x="177.099609" xlink:href="#DejaVuSans-74"/>
     <use x="216.308594" xlink:href="#DejaVuSans-20"/>
     <use x="248.095703" xlink:href="#DejaVuSans-32"/>
     <use x="311.71875" xlink:href="#DejaVuSans-30"/>
     <use x="375.341797" xlink:href="#DejaVuSans-30"/>
     <use x="438.964844" xlink:href="#DejaVuSans-39"/>
    </g>
   </g>
   <g id="text_18">
    <!-- bbob f12, 20-D -->
    <defs>
     <path d="M 19.671875 64.796875 
L 19.671875 8.109375 
L 31.59375 8.109375 
Q 46.6875 8.109375 53.6875 14.9375 
Q 60.6875 21.78125 60.6875 36.53125 
Q 60.6875 51.171875 53.6875 57.984375 
Q 46.6875 64.796875 31.59375 64.796875 
z
M 9.8125 72.90625 
L 30.078125 72.90625 
Q 51.265625 72.90625 61.171875 64.09375 
Q 71.09375 55.28125 71.09375 36.53125 
Q 71.09375 17.671875 61.125 8.828125 
Q 51.171875 0 30.078125 0 
L 9.8125 0 
z
" id="DejaVuSans-44"/>
    </defs>
    <g transform="translate(58.89048 35.290806)scale(0.102 -0.102)">
     <use xlink:href="#DejaVuSans-62"/>
     <use x="63.476562" xlink:href="#DejaVuSans-62"/>
     <use x="126.953125" xlink:href="#DejaVuSans-6f"/>
     <use x="188.134766" xlink:href="#DejaVuSans-62"/>
     <use x="251.611328" xlink:href="#DejaVuSans-20"/>
     <use x="283.398438" xlink:href="#DejaVuSans-66"/>
     <use x="318.603516" xlink:href="#DejaVuSans-31"/>
     <use x="382.226562" xlink:href="#DejaVuSans-32"/>
     <use x="445.849609" xlink:href="#DejaVuSans-2c"/>
     <use x="477.636719" xlink:href="#DejaVuSans-20"/>
     <use x="509.423828" xlink:href="#DejaVuSans-32"/>
     <use x="573.046875" xlink:href="#DejaVuSans-30"/>
     <use x="636.669922" xlink:href="#DejaVuSans-2d"/>
     <use x="672.753906" xlink:href="#DejaVuSans-44"/>
    </g>
    <!-- 51 targets: 100..1e-08 -->
    <defs>
     <path d="M 10.796875 72.90625 
L 49.515625 72.90625 
L 49.515625 64.59375 
L 19.828125 64.59375 
L 19.828125 46.734375 
Q 21.96875 47.46875 24.109375 47.828125 
Q 26.265625 48.1875 28.421875 48.1875 
Q 40.625 48.1875 47.75 41.5 
Q 54.890625 34.8125 54.890625 23.390625 
Q 54.890625 11.625 47.5625 5.09375 
Q 40.234375 -1.421875 26.90625 -1.421875 
Q 22.3125 -1.421875 17.546875 -0.640625 
Q 12.796875 0.140625 7.71875 1.703125 
L 7.71875 11.625 
Q 12.109375 9.234375 16.796875 8.0625 
Q 21.484375 6.890625 26.703125 6.890625 
Q 35.15625 6.890625 40.078125 11.328125 
Q 45.015625 15.765625 45.015625 23.390625 
Q 45.015625 31 40.078125 35.4375 
Q 35.15625 39.890625 26.703125 39.890625 
Q 22.75 39.890625 18.8125 39.015625 
Q 14.890625 38.140625 10.796875 36.28125 
z
" id="DejaVuSans-35"/>
     <path d="M 11.71875 12.40625 
L 22.015625 12.40625 
L 22.015625 0 
L 11.71875 0 
z
M 11.71875 51.703125 
L 22.015625 51.703125 
L 22.015625 39.3125 
L 11.71875 39.3125 
z
" id="DejaVuSans-3a"/>
    </defs>
    <g transform="translate(58.89048 46.712575)scale(0.102 -0.102)">
     <use xlink:href="#DejaVuSans-35"/>
     <use x="63.623047" xlink:href="#DejaVuSans-31"/>
     <use x="127.246094" xlink:href="#DejaVuSans-20"/>
     <use x="159.033203" xlink:href="#DejaVuSans-74"/>
     <use x="198.242188" xlink:href="#DejaVuSans-61"/>
     <use x="259.521484" xlink:href="#DejaVuSans-72"/>
     <use x="300.619141" xlink:href="#DejaVuSans-67"/>
     <use x="364.095703" xlink:href="#DejaVuSans-65"/>
     <use x="425.619141" xlink:href="#DejaVuSans-74"/>
     <use x="464.828125" xlink:href="#DejaVuSans-73"/>
     <use x="516.927734" xlink:href="#DejaVuSans-3a"/>
     <use x="550.619141" xlink:href="#DejaVuSans-20"/>
     <use x="582.40625" xlink:href="#DejaVuSans-31"/>
     <use x="646.029297" xlink:href="#DejaVuSans-30"/>
     <use x="709.652344" xlink:href="#DejaVuSans-30"/>
     <use x="773.275391" xlink:href="#DejaVuSans-2e"/>
     <use x="805.0625" xlink:href="#DejaVuSans-2e"/>
     <use x="836.849609" xlink:href="#DejaVuSans-31"/>
     <use x="900.472656" xlink:href="#DejaVuSans-65"/>
     <use x="961.996094" xlink:href="#DejaVuSans-2d"/>
     <use x="998.080078" xlink:href="#DejaVuSans-30"/>
     <use x="1061.703125" xlink:href="#DejaVuSans-38"/>
    </g>
    <!-- 15 instances -->
    <g transform="translate(58.89048 58.134344)scale(0.102 -0.102)">
     <use xlink:href="#DejaVuSans-31"/>
     <use x="63.623047" xlink:href="#DejaVuSans-35"/>
     <use x="127.246094" xlink:href="#DejaVuSans-20"/>
     <use x="159.033203" xlink:href="#DejaVuSans-69"/>
     <use x="186.816406" xlink:href="#DejaVuSans-6e"/>
     <use x="250.195312" xlink:href="#DejaVuSans-73"/>
     <use x="302.294922" xlink:href="#DejaVuSans-74"/>
     <use x="341.503906" xlink:href="#DejaVuSans-61"/>
     <use x="402.783203" xlink:href="#DejaVuSans-6e"/>
     <use x="466.162109" xlink:href="#DejaVuSans-63"/>
     <use x="521.142578" xlink:href="#DejaVuSans-65"/>
     <use x="582.666016" xlink:href="#DejaVuSans-73"/>
    </g>
   </g>
   <g id="text_19">
    <!-- v0.0.0 -->
    <g style="fill:#808080;" transform="translate(178.96275 290.099912)scale(0.1 -0.1)">
     <use xlink:href="#DejaVuSans-76"/>
     <use x="59.179688" xlink:href="#DejaVuSans-30"/>
     <use x="122.802734" xlink:href="#DejaVuSans-2e"/>
     <use x="154.589844" xlink:href="#DejaVuSans-30"/>
     <use x="218.212891" xlink:href="#DejaVuSans-2e"/>
     <use x="250" xlink:href="#DejaVuSans-30"/>
    </g>
   </g>
   <g id="text_20">
    <!-- 12 Bent cigar -->
    <defs>
     <path d="M 19.671875 34.8125 
L 19.671875 8.109375 
L 35.5 8.109375 
Q 43.453125 8.109375 47.28125 11.40625 
Q 51.125 14.703125 51.125 21.484375 
Q 51.125 28.328125 47.28125 31.5625 
Q 43.453125 34.8125 35.5 34.8125 
z
M 19.671875 64.796875 
L 19.671875 42.828125 
L 34.28125 42.828125 
Q 41.5 42.828125 45.03125 45.53125 
Q 48.578125 48.25 48.578125 53.8125 
Q 48.578125 59.328125 45.03125 62.0625 
Q 41.5 64.796875 34.28125 64.796875 
z
M 9.8125 72.90625 
L 35.015625 72.90625 
Q 46.296875 72.90625 52.390625 68.21875 
Q 58.5 63.53125 58.5 54.890625 
Q 58.5 48.1875 55.375 44.234375 
Q 52.25 40.28125 46.1875 39.3125 
Q 53.46875 37.75 57.5 32.78125 
Q 61.53125 27.828125 61.53125 20.40625 
Q 61.53125 10.640625 54.890625 5.3125 
Q 48.25 0 35.984375 0 
L 9.8125 0 
z
" id="DejaVuSans-42"/>
    </defs>
    <g transform="translate(127.426812 18.84)scale(0.2 -0.2)">
     <use xlink:href="#DejaVuSans-31"/>
     <use x="63.623047" xlink:href="#DejaVuSans-32"/>
     <use x="127.246094" xlink:href="#DejaVuSans-20"/>
     <use x="159.033203" xlink:href="#DejaVuSans-42"/>
     <use x="227.636719" xlink:href="#DejaVuSans-65"/>
     <use x="289.160156" xlink:href="#DejaVuSans-6e"/>
     <use x="352.539062" xlink:href="#DejaVuSans-74"/>
     <use x="391.748047" xlink:href="#DejaVuSans-20"/>
     <use x="423.535156" xlink:href="#DejaVuSans-63"/>
     <use x="478.515625" xlink:href="#DejaVuSans-69"/>
     <use x="506.298828" xlink:href="#DejaVuSans-67"/>
     <use x="569.775391" xlink:href="#DejaVuSans-61"/>
     <use x="631.054688" xlink:href="#DejaVuSans-72"/>
    </g>
   </g>
  </g>
 </g>
 <defs>
  <clipPath id="p7542531e8b">
   <rect height="270.04" width="277.048" x="56.12" y="24.84"/>
  </clipPath>
 </defs>
</svg>
