<?xml version="1.0" encoding="utf-8" standalone="no"?>
<!DOCTYPE svg PUBLIC "-//W3C//DTD SVG 1.1//EN"
  "http://www.w3.org/Graphics/SVG/1.1/DTD/svg11.dtd">
<!-- Created with matplotlib (http://matplotlib.org/) -->
<svg height="345pt" version="1.1" viewBox="0 0 460 345" width="460pt" xmlns="http://www.w3.org/2000/svg" xmlns:xlink="http://www.w3.org/1999/xlink">
 <defs>
  <style type="text/css">
*{stroke-linecap:butt;stroke-linejoin:round;}
  </style>
 </defs>
 <g id="figure_1">
  <g id="patch_1">
   <path d="M 0 345.6 
L 460.8 345.6 
L 460.8 0 
L 0 0 
z
" style="fill:#ffffff;"/>
  </g>
  <g id="axes_1">
   <g id="patch_2">
    <path d="M 56.12 294.88 
L 333.168 294.88 
L 333.168 24.84 
L 56.12 24.84 
z
" style="fill:#ffffff;"/>
   </g>
   <g id="line2d_1">
    <path d="M 93.887283 294.88 
L 93.887283 289.637523 
L 95.698286 289.637523 
L 95.698286 284.395046 
L 96.536922 284.395046 
L 96.536922 279.152568 
L 98.832144 279.152568 
L 98.832144 273.910091 
L 103.231288 273.910091 
L 103.231288 268.667614 
L 105.317315 268.667614 
L 105.317315 263.425137 
L 106.730875 263.425137 
L 106.730875 258.18266 
L 107.177358 258.18266 
L 107.177358 252.940182 
L 107.612537 252.940182 
L 107.612537 247.697705 
L 108.451173 247.697705 
L 108.451173 242.455228 
L 110.014853 242.455228 
L 110.014853 237.212751 
L 111.448069 237.212751 
L 111.448069 231.970274 
L 113.396034 231.970274 
L 113.396034 226.727797 
L 115.420563 226.727797 
L 115.420563 221.485319 
L 116.478659 221.485319 
L 116.478659 216.242842 
L 118.417459 216.242842 
L 118.417459 211.000365 
L 119.740314 211.000365 
L 119.740314 205.757888 
L 120.365424 205.757888 
L 120.365424 200.515411 
L 120.968596 200.515411 
L 120.968596 195.272933 
L 121.741249 195.272933 
L 121.741249 190.030456 
L 122.298767 190.030456 
L 122.298767 184.787979 
L 122.660646 184.787979 
L 122.660646 179.545502 
L 122.838768 179.545502 
L 122.838768 174.303025 
L 123.189569 174.303025 
L 123.189569 169.060547 
L 123.533353 169.060547 
L 123.533353 163.81807 
L 124.200956 163.81807 
L 124.200956 158.575593 
L 124.685175 158.575593 
L 124.685175 153.333116 
L 125.310285 153.333116 
L 125.310285 148.090639 
L 125.913457 148.090639 
L 125.913457 142.848162 
L 126.496178 142.848162 
L 126.496178 137.605684 
L 127.197852 137.605684 
L 127.197852 132.363207 
L 128.13443 132.363207 
L 128.13443 127.12073 
L 128.520707 127.12073 
L 128.520707 121.878253 
L 129.389632 121.878253 
L 129.389632 116.635776 
L 130.100987 116.635776 
L 130.100987 111.393298 
L 130.67209 111.393298 
L 130.67209 106.150821 
L 131.005861 106.150821 
L 131.005861 100.908344 
L 131.441039 100.908344 
L 131.441039 95.665867 
L 131.969962 95.665867 
L 131.969962 90.42339 
L 132.483094 90.42339 
L 132.483094 85.180912 
L 132.98135 85.180912 
L 132.98135 79.938435 
L 133.465568 79.938435 
L 133.465568 74.695958 
L 133.843356 74.695958 
L 133.843356 69.453481 
L 134.121345 69.453481 
L 134.121345 64.211004 
L 134.485139 64.211004 
L 134.485139 58.968526 
L 134.841393 58.968526 
L 134.841393 53.726049 
L 135.276571 53.726049 
L 135.276571 48.483572 
L 135.447604 48.483572 
L 135.447604 43.241095 
L 135.616951 43.241095 
L 135.616951 37.998618 
L 135.950722 37.998618 
L 135.950722 32.756141 
L 136.196864 32.756141 
L 136.196864 27.513663 
L 333.168 27.513663 
" style="fill:none;stroke:#f5deb3;stroke-linecap:square;stroke-width:4;"/>
   </g>
   <g id="line2d_2">
    <defs>
     <path d="M -0 7.778175 
L 7.778175 0 
L 0 -7.778175 
L -7.778175 -0 
z
" id="mce75e3612d" style="stroke:#f5deb3;stroke-linejoin:miter;stroke-width:1.5;"/>
    </defs>
    <g>
     <use style="fill:#f5deb3;stroke:#f5deb3;stroke-linejoin:miter;stroke-width:1.5;" x="122.298767" xlink:href="#mce75e3612d" y="184.787979"/>
     <use style="fill:#f5deb3;stroke:#f5deb3;stroke-linejoin:miter;stroke-width:1.5;" x="135.616951" xlink:href="#mce75e3612d" y="37.998618"/>
     <use style="fill:#f5deb3;stroke:#f5deb3;stroke-linejoin:miter;stroke-width:1.5;" x="136.196864" xlink:href="#mce75e3612d" y="32.756141"/>
     <use style="fill:#f5deb3;stroke:#f5deb3;stroke-linejoin:miter;stroke-width:1.5;" x="136.196864" xlink:href="#mce75e3612d" y="27.513663"/>
     <use style="fill:#f5deb3;stroke:#f5deb3;stroke-linejoin:miter;stroke-width:1.5;" x="333.168" xlink:href="#mce75e3612d" y="27.513663"/>
    </g>
   </g>
   <g id="line2d_3">
    <path style="fill:none;stroke:#f5deb3;stroke-linecap:square;stroke-width:4;"/>
    <g/>
   </g>
   <g id="line2d_4">
    <path d="M 333.168 27.513663 
L 363.64328 32.86099 
" style="fill:none;stroke:#f5deb3;stroke-linecap:square;stroke-width:4;"/>
    <g>
     <use style="fill:#f5deb3;stroke:#f5deb3;stroke-linejoin:miter;stroke-width:1.5;" x="333.168" xlink:href="#mce75e3612d" y="27.513663"/>
     <use style="fill:#f5deb3;stroke:#f5deb3;stroke-linejoin:miter;stroke-width:1.5;" x="363.64328" xlink:href="#mce75e3612d" y="32.86099"/>
    </g>
   </g>
   <g id="matplotlib.axis_1">
    <g id="xtick_1">
     <g id="line2d_5">
      <path clip-path="url(#pb68d404e02)" d="M 56.12 294.88 
L 56.12 24.84 
" style="fill:none;stroke:#b0b0b0;stroke-linecap:square;stroke-width:0.8;"/>
     </g>
     <g id="line2d_6">
      <defs>
       <path d="M 0 0 
L 0 3.5 
" id="ma13c66232d" style="stroke:#000000;stroke-width:0.8;"/>
      </defs>
      <g>
       <use style="stroke:#000000;stroke-width:0.8;" x="56.12" xlink:href="#ma13c66232d" y="294.88"/>
      </g>
     </g>
     <g id="text_1">
      <!-- 0 -->
      <defs>
       <path d="M 31.78125 66.40625 
Q 24.171875 66.40625 20.328125 58.90625 
Q 16.5 51.421875 16.5 36.375 
Q 16.5 21.390625 20.328125 13.890625 
Q 24.171875 6.390625 31.78125 6.390625 
Q 39.453125 6.390625 43.28125 13.890625 
Q 47.125 21.390625 47.125 36.375 
Q 47.125 51.421875 43.28125 58.90625 
Q 39.453125 66.40625 31.78125 66.40625 
z
M 31.78125 74.21875 
Q 44.046875 74.21875 50.515625 64.515625 
Q 56.984375 54.828125 56.984375 36.375 
Q 56.984375 17.96875 50.515625 8.265625 
Q 44.046875 -1.421875 31.78125 -1.421875 
Q 19.53125 -1.421875 13.0625 8.265625 
Q 6.59375 17.96875 6.59375 36.375 
Q 6.59375 54.828125 13.0625 64.515625 
Q 19.53125 74.21875 31.78125 74.21875 
z
" id="DejaVuSans-30"/>
      </defs>
      <g transform="translate(49.7575 317.076875)scale(0.2 -0.2)">
       <use xlink:href="#DejaVuSans-30"/>
      </g>
     </g>
    </g>
    <g id="xtick_2">
     <g id="line2d_7">
      <path clip-path="url(#pb68d404e02)" d="M 135.276571 294.88 
L 135.276571 24.84 
" style="fill:none;stroke:#b0b0b0;stroke-linecap:square;stroke-width:0.8;"/>
     </g>
     <g id="line2d_8">
      <g>
       <use style="stroke:#000000;stroke-width:0.8;" x="135.276571" xlink:href="#ma13c66232d" y="294.88"/>
      </g>
     </g>
     <g id="text_2">
      <!-- 2 -->
      <defs>
       <path d="M 19.1875 8.296875 
L 53.609375 8.296875 
L 53.609375 0 
L 7.328125 0 
L 7.328125 8.296875 
Q 12.9375 14.109375 22.625 23.890625 
Q 32.328125 33.6875 34.8125 36.53125 
Q 39.546875 41.84375 41.421875 45.53125 
Q 43.3125 49.21875 43.3125 52.78125 
Q 43.3125 58.59375 39.234375 62.25 
Q 35.15625 65.921875 28.609375 65.921875 
Q 23.96875 65.921875 18.8125 64.3125 
Q 13.671875 62.703125 7.8125 59.421875 
L 7.8125 69.390625 
Q 13.765625 71.78125 18.9375 73 
Q 24.125 74.21875 28.421875 74.21875 
Q 39.75 74.21875 46.484375 68.546875 
Q 53.21875 62.890625 53.21875 53.421875 
Q 53.21875 48.921875 51.53125 44.890625 
Q 49.859375 40.875 45.40625 35.40625 
Q 44.1875 33.984375 37.640625 27.21875 
Q 31.109375 20.453125 19.1875 8.296875 
z
" id="DejaVuSans-32"/>
      </defs>
      <g transform="translate(128.914071 317.076875)scale(0.2 -0.2)">
       <use xlink:href="#DejaVuSans-32"/>
      </g>
     </g>
    </g>
    <g id="xtick_3">
     <g id="line2d_9">
      <path clip-path="url(#pb68d404e02)" d="M 214.433143 294.88 
L 214.433143 24.84 
" style="fill:none;stroke:#b0b0b0;stroke-linecap:square;stroke-width:0.8;"/>
     </g>
     <g id="line2d_10">
      <g>
       <use style="stroke:#000000;stroke-width:0.8;" x="214.433143" xlink:href="#ma13c66232d" y="294.88"/>
      </g>
     </g>
     <g id="text_3">
      <!-- 4 -->
      <defs>
       <path d="M 37.796875 64.3125 
L 12.890625 25.390625 
L 37.796875 25.390625 
z
M 35.203125 72.90625 
L 47.609375 72.90625 
L 47.609375 25.390625 
L 58.015625 25.390625 
L 58.015625 17.1875 
L 47.609375 17.1875 
L 47.609375 0 
L 37.796875 0 
L 37.796875 17.1875 
L 4.890625 17.1875 
L 4.890625 26.703125 
z
" id="DejaVuSans-34"/>
      </defs>
      <g transform="translate(208.070643 317.076875)scale(0.2 -0.2)">
       <use xlink:href="#DejaVuSans-34"/>
      </g>
     </g>
    </g>
    <g id="xtick_4">
     <g id="line2d_11">
      <path clip-path="url(#pb68d404e02)" d="M 293.589714 294.88 
L 293.589714 24.84 
" style="fill:none;stroke:#b0b0b0;stroke-linecap:square;stroke-width:0.8;"/>
     </g>
     <g id="line2d_12">
      <g>
       <use style="stroke:#000000;stroke-width:0.8;" x="293.589714" xlink:href="#ma13c66232d" y="294.88"/>
      </g>
     </g>
     <g id="text_4">
      <!-- 6 -->
      <defs>
       <path d="M 33.015625 40.375 
Q 26.375 40.375 22.484375 35.828125 
Q 18.609375 31.296875 18.609375 23.390625 
Q 18.609375 15.53125 22.484375 10.953125 
Q 26.375 6.390625 33.015625 6.390625 
Q 39.65625 6.390625 43.53125 10.953125 
Q 47.40625 15.53125 47.40625 23.390625 
Q 47.40625 31.296875 43.53125 35.828125 
Q 39.65625 40.375 33.015625 40.375 
z
M 52.59375 71.296875 
L 52.59375 62.3125 
Q 48.875 64.0625 45.09375 64.984375 
Q 41.3125 65.921875 37.59375 65.921875 
Q 27.828125 65.921875 22.671875 59.328125 
Q 17.53125 52.734375 16.796875 39.40625 
Q 19.671875 43.65625 24.015625 45.921875 
Q 28.375 48.1875 33.59375 48.1875 
Q 44.578125 48.1875 50.953125 41.515625 
Q 57.328125 34.859375 57.328125 23.390625 
Q 57.328125 12.15625 50.6875 5.359375 
Q 44.046875 -1.421875 33.015625 -1.421875 
Q 20.359375 -1.421875 13.671875 8.265625 
Q 6.984375 17.96875 6.984375 36.375 
Q 6.984375 53.65625 15.1875 63.9375 
Q 23.390625 74.21875 37.203125 74.21875 
Q 40.921875 74.21875 44.703125 73.484375 
Q 48.484375 72.75 52.59375 71.296875 
z
" id="DejaVuSans-36"/>
      </defs>
      <g transform="translate(287.227214 317.076875)scale(0.2 -0.2)">
       <use xlink:href="#DejaVuSans-36"/>
      </g>
     </g>
    </g>
    <g id="xtick_5">
     <g id="line2d_13">
      <path clip-path="url(#pb68d404e02)" d="M 56.12 294.88 
L 56.12 24.84 
" style="fill:none;stroke:#b0b0b0;stroke-linecap:square;stroke-width:0.8;"/>
     </g>
     <g id="line2d_14">
      <defs>
       <path d="M 0 0 
L 0 2 
" id="m31e03b4768" style="stroke:#000000;stroke-width:0.6;"/>
      </defs>
      <g>
       <use style="stroke:#000000;stroke-width:0.6;" x="56.12" xlink:href="#m31e03b4768" y="294.88"/>
      </g>
     </g>
    </g>
    <g id="xtick_6">
     <g id="line2d_15">
      <path clip-path="url(#pb68d404e02)" d="M 95.698286 294.88 
L 95.698286 24.84 
" style="fill:none;stroke:#b0b0b0;stroke-linecap:square;stroke-width:0.8;"/>
     </g>
     <g id="line2d_16">
      <g>
       <use style="stroke:#000000;stroke-width:0.6;" x="95.698286" xlink:href="#m31e03b4768" y="294.88"/>
      </g>
     </g>
    </g>
    <g id="xtick_7">
     <g id="line2d_17">
      <path clip-path="url(#pb68d404e02)" d="M 135.276571 294.88 
L 135.276571 24.84 
" style="fill:none;stroke:#b0b0b0;stroke-linecap:square;stroke-width:0.8;"/>
     </g>
     <g id="line2d_18">
      <g>
       <use style="stroke:#000000;stroke-width:0.6;" x="135.276571" xlink:href="#m31e03b4768" y="294.88"/>
      </g>
     </g>
    </g>
    <g id="xtick_8">
     <g id="line2d_19">
      <path clip-path="url(#pb68d404e02)" d="M 174.854857 294.88 
L 174.854857 24.84 
" style="fill:none;stroke:#b0b0b0;stroke-linecap:square;stroke-width:0.8;"/>
     </g>
     <g id="line2d_20">
      <g>
       <use style="stroke:#000000;stroke-width:0.6;" x="174.854857" xlink:href="#m31e03b4768" y="294.88"/>
      </g>
     </g>
    </g>
    <g id="xtick_9">
     <g id="line2d_21">
      <path clip-path="url(#pb68d404e02)" d="M 214.433143 294.88 
L 214.433143 24.84 
" style="fill:none;stroke:#b0b0b0;stroke-linecap:square;stroke-width:0.8;"/>
     </g>
     <g id="line2d_22">
      <g>
       <use style="stroke:#000000;stroke-width:0.6;" x="214.433143" xlink:href="#m31e03b4768" y="294.88"/>
      </g>
     </g>
    </g>
    <g id="xtick_10">
     <g id="line2d_23">
      <path clip-path="url(#pb68d404e02)" d="M 254.011429 294.88 
L 254.011429 24.84 
" style="fill:none;stroke:#b0b0b0;stroke-linecap:square;stroke-width:0.8;"/>
     </g>
     <g id="line2d_24">
      <g>
       <use style="stroke:#000000;stroke-width:0.6;" x="254.011429" xlink:href="#m31e03b4768" y="294.88"/>
      </g>
     </g>
    </g>
    <g id="xtick_11">
     <g id="line2d_25">
      <path clip-path="url(#pb68d404e02)" d="M 293.589714 294.88 
L 293.589714 24.84 
" style="fill:none;stroke:#b0b0b0;stroke-linecap:square;stroke-width:0.8;"/>
     </g>
     <g id="line2d_26">
      <g>
       <use style="stroke:#000000;stroke-width:0.6;" x="293.589714" xlink:href="#m31e03b4768" y="294.88"/>
      </g>
     </g>
    </g>
    <g id="xtick_12">
     <g id="line2d_27">
      <path clip-path="url(#pb68d404e02)" d="M 333.168 294.88 
L 333.168 24.84 
" style="fill:none;stroke:#b0b0b0;stroke-linecap:square;stroke-width:0.8;"/>
     </g>
     <g id="line2d_28">
      <g>
       <use style="stroke:#000000;stroke-width:0.6;" x="333.168" xlink:href="#m31e03b4768" y="294.88"/>
      </g>
     </g>
    </g>
    <g id="text_5">
     <!-- log10(# f-evals / dimension) -->
     <defs>
      <path d="M 9.421875 75.984375 
L 18.40625 75.984375 
L 18.40625 0 
L 9.421875 0 
z
" id="DejaVuSans-6c"/>
      <path d="M 30.609375 48.390625 
Q 23.390625 48.390625 19.1875 42.75 
Q 14.984375 37.109375 14.984375 27.296875 
Q 14.984375 17.484375 19.15625 11.84375 
Q 23.34375 6.203125 30.609375 6.203125 
Q 37.796875 6.203125 41.984375 11.859375 
Q 46.1875 17.53125 46.1875 27.296875 
Q 46.1875 37.015625 41.984375 42.703125 
Q 37.796875 48.390625 30.609375 48.390625 
z
M 30.609375 56 
Q 42.328125 56 49.015625 48.375 
Q 55.71875 40.765625 55.71875 27.296875 
Q 55.71875 13.875 49.015625 6.21875 
Q 42.328125 -1.421875 30.609375 -1.421875 
Q 18.84375 -1.421875 12.171875 6.21875 
Q 5.515625 13.875 5.515625 27.296875 
Q 5.515625 40.765625 12.171875 48.375 
Q 18.84375 56 30.609375 56 
z
" id="DejaVuSans-6f"/>
      <path d="M 45.40625 27.984375 
Q 45.40625 37.75 41.375 43.109375 
Q 37.359375 48.484375 30.078125 48.484375 
Q 22.859375 48.484375 18.828125 43.109375 
Q 14.796875 37.75 14.796875 27.984375 
Q 14.796875 18.265625 18.828125 12.890625 
Q 22.859375 7.515625 30.078125 7.515625 
Q 37.359375 7.515625 41.375 12.890625 
Q 45.40625 18.265625 45.40625 27.984375 
z
M 54.390625 6.78125 
Q 54.390625 -7.171875 48.1875 -13.984375 
Q 42 -20.796875 29.203125 -20.796875 
Q 24.46875 -20.796875 20.265625 -20.09375 
Q 16.0625 -19.390625 12.109375 -17.921875 
L 12.109375 -9.1875 
Q 16.0625 -11.328125 19.921875 -12.34375 
Q 23.78125 -13.375 27.78125 -13.375 
Q 36.625 -13.375 41.015625 -8.765625 
Q 45.40625 -4.15625 45.40625 5.171875 
L 45.40625 9.625 
Q 42.625 4.78125 38.28125 2.390625 
Q 33.9375 0 27.875 0 
Q 17.828125 0 11.671875 7.65625 
Q 5.515625 15.328125 5.515625 27.984375 
Q 5.515625 40.671875 11.671875 48.328125 
Q 17.828125 56 27.875 56 
Q 33.9375 56 38.28125 53.609375 
Q 42.625 51.21875 45.40625 46.390625 
L 45.40625 54.6875 
L 54.390625 54.6875 
z
" id="DejaVuSans-67"/>
      <path d="M 12.40625 8.296875 
L 28.515625 8.296875 
L 28.515625 63.921875 
L 10.984375 60.40625 
L 10.984375 69.390625 
L 28.421875 72.90625 
L 38.28125 72.90625 
L 38.28125 8.296875 
L 54.390625 8.296875 
L 54.390625 0 
L 12.40625 0 
z
" id="DejaVuSans-31"/>
      <path d="M 31 75.875 
Q 24.46875 64.65625 21.28125 53.65625 
Q 18.109375 42.671875 18.109375 31.390625 
Q 18.109375 20.125 21.3125 9.0625 
Q 24.515625 -2 31 -13.1875 
L 23.1875 -13.1875 
Q 15.875 -1.703125 12.234375 9.375 
Q 8.59375 20.453125 8.59375 31.390625 
Q 8.59375 42.28125 12.203125 53.3125 
Q 15.828125 64.359375 23.1875 75.875 
z
" id="DejaVuSans-28"/>
      <path d="M 51.125 44 
L 36.921875 44 
L 32.8125 27.6875 
L 47.125 27.6875 
z
M 43.796875 71.78125 
L 38.71875 51.515625 
L 52.984375 51.515625 
L 58.109375 71.78125 
L 65.921875 71.78125 
L 60.890625 51.515625 
L 76.125 51.515625 
L 76.125 44 
L 58.984375 44 
L 54.984375 27.6875 
L 70.515625 27.6875 
L 70.515625 20.21875 
L 53.078125 20.21875 
L 48 0 
L 40.1875 0 
L 45.21875 20.21875 
L 30.90625 20.21875 
L 25.875 0 
L 18.015625 0 
L 23.09375 20.21875 
L 7.71875 20.21875 
L 7.71875 27.6875 
L 24.90625 27.6875 
L 29 44 
L 13.28125 44 
L 13.28125 51.515625 
L 30.90625 51.515625 
L 35.890625 71.78125 
z
" id="DejaVuSans-23"/>
      <path id="DejaVuSans-20"/>
      <path d="M 37.109375 75.984375 
L 37.109375 68.5 
L 28.515625 68.5 
Q 23.6875 68.5 21.796875 66.546875 
Q 19.921875 64.59375 19.921875 59.515625 
L 19.921875 54.6875 
L 34.71875 54.6875 
L 34.71875 47.703125 
L 19.921875 47.703125 
L 19.921875 0 
L 10.890625 0 
L 10.890625 47.703125 
L 2.296875 47.703125 
L 2.296875 54.6875 
L 10.890625 54.6875 
L 10.890625 58.5 
Q 10.890625 67.625 15.140625 71.796875 
Q 19.390625 75.984375 28.609375 75.984375 
z
" id="DejaVuSans-66"/>
      <path d="M 4.890625 31.390625 
L 31.203125 31.390625 
L 31.203125 23.390625 
L 4.890625 23.390625 
z
" id="DejaVuSans-2d"/>
      <path d="M 56.203125 29.59375 
L 56.203125 25.203125 
L 14.890625 25.203125 
Q 15.484375 15.921875 20.484375 11.0625 
Q 25.484375 6.203125 34.421875 6.203125 
Q 39.59375 6.203125 44.453125 7.46875 
Q 49.3125 8.734375 54.109375 11.28125 
L 54.109375 2.78125 
Q 49.265625 0.734375 44.1875 -0.34375 
Q 39.109375 -1.421875 33.890625 -1.421875 
Q 20.796875 -1.421875 13.15625 6.1875 
Q 5.515625 13.8125 5.515625 26.8125 
Q 5.515625 40.234375 12.765625 48.109375 
Q 20.015625 56 32.328125 56 
Q 43.359375 56 49.78125 48.890625 
Q 56.203125 41.796875 56.203125 29.59375 
z
M 47.21875 32.234375 
Q 47.125 39.59375 43.09375 43.984375 
Q 39.0625 48.390625 32.421875 48.390625 
Q 24.90625 48.390625 20.390625 44.140625 
Q 15.875 39.890625 15.1875 32.171875 
z
" id="DejaVuSans-65"/>
      <path d="M 2.984375 54.6875 
L 12.5 54.6875 
L 29.59375 8.796875 
L 46.6875 54.6875 
L 56.203125 54.6875 
L 35.6875 0 
L 23.484375 0 
z
" id="DejaVuSans-76"/>
      <path d="M 34.28125 27.484375 
Q 23.390625 27.484375 19.1875 25 
Q 14.984375 22.515625 14.984375 16.5 
Q 14.984375 11.71875 18.140625 8.90625 
Q 21.296875 6.109375 26.703125 6.109375 
Q 34.1875 6.109375 38.703125 11.40625 
Q 43.21875 16.703125 43.21875 25.484375 
L 43.21875 27.484375 
z
M 52.203125 31.203125 
L 52.203125 0 
L 43.21875 0 
L 43.21875 8.296875 
Q 40.140625 3.328125 35.546875 0.953125 
Q 30.953125 -1.421875 24.3125 -1.421875 
Q 15.921875 -1.421875 10.953125 3.296875 
Q 6 8.015625 6 15.921875 
Q 6 25.140625 12.171875 29.828125 
Q 18.359375 34.515625 30.609375 34.515625 
L 43.21875 34.515625 
L 43.21875 35.40625 
Q 43.21875 41.609375 39.140625 45 
Q 35.0625 48.390625 27.6875 48.390625 
Q 23 48.390625 18.546875 47.265625 
Q 14.109375 46.140625 10.015625 43.890625 
L 10.015625 52.203125 
Q 14.9375 54.109375 19.578125 55.046875 
Q 24.21875 56 28.609375 56 
Q 40.484375 56 46.34375 49.84375 
Q 52.203125 43.703125 52.203125 31.203125 
z
" id="DejaVuSans-61"/>
      <path d="M 44.28125 53.078125 
L 44.28125 44.578125 
Q 40.484375 46.53125 36.375 47.5 
Q 32.28125 48.484375 27.875 48.484375 
Q 21.1875 48.484375 17.84375 46.4375 
Q 14.5 44.390625 14.5 40.28125 
Q 14.5 37.15625 16.890625 35.375 
Q 19.28125 33.59375 26.515625 31.984375 
L 29.59375 31.296875 
Q 39.15625 29.25 43.1875 25.515625 
Q 47.21875 21.78125 47.21875 15.09375 
Q 47.21875 7.46875 41.1875 3.015625 
Q 35.15625 -1.421875 24.609375 -1.421875 
Q 20.21875 -1.421875 15.453125 -0.5625 
Q 10.6875 0.296875 5.421875 2 
L 5.421875 11.28125 
Q 10.40625 8.6875 15.234375 7.390625 
Q 20.0625 6.109375 24.8125 6.109375 
Q 31.15625 6.109375 34.5625 8.28125 
Q 37.984375 10.453125 37.984375 14.40625 
Q 37.984375 18.0625 35.515625 20.015625 
Q 33.0625 21.96875 24.703125 23.78125 
L 21.578125 24.515625 
Q 13.234375 26.265625 9.515625 29.90625 
Q 5.8125 33.546875 5.8125 39.890625 
Q 5.8125 47.609375 11.28125 51.796875 
Q 16.75 56 26.8125 56 
Q 31.78125 56 36.171875 55.265625 
Q 40.578125 54.546875 44.28125 53.078125 
z
" id="DejaVuSans-73"/>
      <path d="M 25.390625 72.90625 
L 33.6875 72.90625 
L 8.296875 -9.28125 
L 0 -9.28125 
z
" id="DejaVuSans-2f"/>
      <path d="M 45.40625 46.390625 
L 45.40625 75.984375 
L 54.390625 75.984375 
L 54.390625 0 
L 45.40625 0 
L 45.40625 8.203125 
Q 42.578125 3.328125 38.25 0.953125 
Q 33.9375 -1.421875 27.875 -1.421875 
Q 17.96875 -1.421875 11.734375 6.484375 
Q 5.515625 14.40625 5.515625 27.296875 
Q 5.515625 40.1875 11.734375 48.09375 
Q 17.96875 56 27.875 56 
Q 33.9375 56 38.25 53.625 
Q 42.578125 51.265625 45.40625 46.390625 
z
M 14.796875 27.296875 
Q 14.796875 17.390625 18.875 11.75 
Q 22.953125 6.109375 30.078125 6.109375 
Q 37.203125 6.109375 41.296875 11.75 
Q 45.40625 17.390625 45.40625 27.296875 
Q 45.40625 37.203125 41.296875 42.84375 
Q 37.203125 48.484375 30.078125 48.484375 
Q 22.953125 48.484375 18.875 42.84375 
Q 14.796875 37.203125 14.796875 27.296875 
z
" id="DejaVuSans-64"/>
      <path d="M 9.421875 54.6875 
L 18.40625 54.6875 
L 18.40625 0 
L 9.421875 0 
z
M 9.421875 75.984375 
L 18.40625 75.984375 
L 18.40625 64.59375 
L 9.421875 64.59375 
z
" id="DejaVuSans-69"/>
      <path d="M 52 44.1875 
Q 55.375 50.25 60.0625 53.125 
Q 64.75 56 71.09375 56 
Q 79.640625 56 84.28125 50.015625 
Q 88.921875 44.046875 88.921875 33.015625 
L 88.921875 0 
L 79.890625 0 
L 79.890625 32.71875 
Q 79.890625 40.578125 77.09375 44.375 
Q 74.3125 48.1875 68.609375 48.1875 
Q 61.625 48.1875 57.5625 43.546875 
Q 53.515625 38.921875 53.515625 30.90625 
L 53.515625 0 
L 44.484375 0 
L 44.484375 32.71875 
Q 44.484375 40.625 41.703125 44.40625 
Q 38.921875 48.1875 33.109375 48.1875 
Q 26.21875 48.1875 22.15625 43.53125 
Q 18.109375 38.875 18.109375 30.90625 
L 18.109375 0 
L 9.078125 0 
L 9.078125 54.6875 
L 18.109375 54.6875 
L 18.109375 46.1875 
Q 21.1875 51.21875 25.484375 53.609375 
Q 29.78125 56 35.6875 56 
Q 41.65625 56 45.828125 52.96875 
Q 50 49.953125 52 44.1875 
z
" id="DejaVuSans-6d"/>
      <path d="M 54.890625 33.015625 
L 54.890625 0 
L 45.90625 0 
L 45.90625 32.71875 
Q 45.90625 40.484375 42.875 44.328125 
Q 39.84375 48.1875 33.796875 48.1875 
Q 26.515625 48.1875 22.3125 43.546875 
Q 18.109375 38.921875 18.109375 30.90625 
L 18.109375 0 
L 9.078125 0 
L 9.078125 54.6875 
L 18.109375 54.6875 
L 18.109375 46.1875 
Q 21.34375 51.125 25.703125 53.5625 
Q 30.078125 56 35.796875 56 
Q 45.21875 56 50.046875 50.171875 
Q 54.890625 44.34375 54.890625 33.015625 
z
" id="DejaVuSans-6e"/>
      <path d="M 8.015625 75.875 
L 15.828125 75.875 
Q 23.140625 64.359375 26.78125 53.3125 
Q 30.421875 42.28125 30.421875 31.390625 
Q 30.421875 20.453125 26.78125 9.375 
Q 23.140625 -1.703125 15.828125 -13.1875 
L 8.015625 -13.1875 
Q 14.5 -2 17.703125 9.0625 
Q 20.90625 20.125 20.90625 31.390625 
Q 20.90625 42.671875 17.703125 53.65625 
Q 14.5 64.65625 8.015625 75.875 
z
" id="DejaVuSans-29"/>
     </defs>
     <g transform="translate(73.803219 338.153594)scale(0.17 -0.17)">
      <use xlink:href="#DejaVuSans-6c"/>
      <use x="27.783203" xlink:href="#DejaVuSans-6f"/>
      <use x="88.964844" xlink:href="#DejaVuSans-67"/>
      <use x="152.441406" xlink:href="#DejaVuSans-31"/>
      <use x="216.064453" xlink:href="#DejaVuSans-30"/>
      <use x="279.6875" xlink:href="#DejaVuSans-28"/>
      <use x="318.701172" xlink:href="#DejaVuSans-23"/>
      <use x="402.490234" xlink:href="#DejaVuSans-20"/>
      <use x="434.277344" xlink:href="#DejaVuSans-66"/>
      <use x="469.404297" xlink:href="#DejaVuSans-2d"/>
      <use x="505.488281" xlink:href="#DejaVuSans-65"/>
      <use x="567.011719" xlink:href="#DejaVuSans-76"/>
      <use x="626.191406" xlink:href="#DejaVuSans-61"/>
      <use x="687.470703" xlink:href="#DejaVuSans-6c"/>
      <use x="715.253906" xlink:href="#DejaVuSans-73"/>
      <use x="767.353516" xlink:href="#DejaVuSans-20"/>
      <use x="799.140625" xlink:href="#DejaVuSans-2f"/>
      <use x="832.832031" xlink:href="#DejaVuSans-20"/>
      <use x="864.619141" xlink:href="#DejaVuSans-64"/>
      <use x="928.095703" xlink:href="#DejaVuSans-69"/>
      <use x="955.878906" xlink:href="#DejaVuSans-6d"/>
      <use x="1053.291016" xlink:href="#DejaVuSans-65"/>
      <use x="1114.814453" xlink:href="#DejaVuSans-6e"/>
      <use x="1178.193359" xlink:href="#DejaVuSans-73"/>
      <use x="1230.292969" xlink:href="#DejaVuSans-69"/>
      <use x="1258.076172" xlink:href="#DejaVuSans-6f"/>
      <use x="1319.257812" xlink:href="#DejaVuSans-6e"/>
      <use x="1382.636719" xlink:href="#DejaVuSans-29"/>
     </g>
    </g>
   </g>
   <g id="matplotlib.axis_2">
    <g id="ytick_1">
     <g id="line2d_29">
      <path clip-path="url(#pb68d404e02)" d="M 56.12 294.88 
L 333.168 294.88 
" style="fill:none;stroke:#b0b0b0;stroke-linecap:square;stroke-width:0.8;"/>
     </g>
     <g id="line2d_30">
      <defs>
       <path d="M 0 0 
L -3.5 0 
" id="m06e2e4dcc0" style="stroke:#000000;stroke-width:0.8;"/>
      </defs>
      <g>
       <use style="stroke:#000000;stroke-width:0.8;" x="56.12" xlink:href="#m06e2e4dcc0" y="294.88"/>
      </g>
     </g>
     <g id="text_6">
      <!-- 0.0 -->
      <defs>
       <path d="M 10.6875 12.40625 
L 21 12.40625 
L 21 0 
L 10.6875 0 
z
" id="DejaVuSans-2e"/>
      </defs>
      <g transform="translate(23.675 300.95875)scale(0.16 -0.16)">
       <use xlink:href="#DejaVuSans-30"/>
       <use x="63.623047" xlink:href="#DejaVuSans-2e"/>
       <use x="95.410156" xlink:href="#DejaVuSans-30"/>
      </g>
     </g>
    </g>
    <g id="ytick_2">
     <g id="line2d_31">
      <path clip-path="url(#pb68d404e02)" d="M 56.12 241.406733 
L 333.168 241.406733 
" style="fill:none;stroke:#b0b0b0;stroke-linecap:square;stroke-width:0.8;"/>
     </g>
     <g id="line2d_32">
      <g>
       <use style="stroke:#000000;stroke-width:0.8;" x="56.12" xlink:href="#m06e2e4dcc0" y="241.406733"/>
      </g>
     </g>
     <g id="text_7">
      <!-- 0.2 -->
      <g transform="translate(23.675 247.485483)scale(0.16 -0.16)">
       <use xlink:href="#DejaVuSans-30"/>
       <use x="63.623047" xlink:href="#DejaVuSans-2e"/>
       <use x="95.410156" xlink:href="#DejaVuSans-32"/>
      </g>
     </g>
    </g>
    <g id="ytick_3">
     <g id="line2d_33">
      <path clip-path="url(#pb68d404e02)" d="M 56.12 187.933465 
L 333.168 187.933465 
" style="fill:none;stroke:#b0b0b0;stroke-linecap:square;stroke-width:0.8;"/>
     </g>
     <g id="line2d_34">
      <g>
       <use style="stroke:#000000;stroke-width:0.8;" x="56.12" xlink:href="#m06e2e4dcc0" y="187.933465"/>
      </g>
     </g>
     <g id="text_8">
      <!-- 0.4 -->
      <g transform="translate(23.675 194.012215)scale(0.16 -0.16)">
       <use xlink:href="#DejaVuSans-30"/>
       <use x="63.623047" xlink:href="#DejaVuSans-2e"/>
       <use x="95.410156" xlink:href="#DejaVuSans-34"/>
      </g>
     </g>
    </g>
    <g id="ytick_4">
     <g id="line2d_35">
      <path clip-path="url(#pb68d404e02)" d="M 56.12 134.460198 
L 333.168 134.460198 
" style="fill:none;stroke:#b0b0b0;stroke-linecap:square;stroke-width:0.8;"/>
     </g>
     <g id="line2d_36">
      <g>
       <use style="stroke:#000000;stroke-width:0.8;" x="56.12" xlink:href="#m06e2e4dcc0" y="134.460198"/>
      </g>
     </g>
     <g id="text_9">
      <!-- 0.6 -->
      <g transform="translate(23.675 140.538948)scale(0.16 -0.16)">
       <use xlink:href="#DejaVuSans-30"/>
       <use x="63.623047" xlink:href="#DejaVuSans-2e"/>
       <use x="95.410156" xlink:href="#DejaVuSans-36"/>
      </g>
     </g>
    </g>
    <g id="ytick_5">
     <g id="line2d_37">
      <path clip-path="url(#pb68d404e02)" d="M 56.12 80.986931 
L 333.168 80.986931 
" style="fill:none;stroke:#b0b0b0;stroke-linecap:square;stroke-width:0.8;"/>
     </g>
     <g id="line2d_38">
      <g>
       <use style="stroke:#000000;stroke-width:0.8;" x="56.12" xlink:href="#m06e2e4dcc0" y="80.986931"/>
      </g>
     </g>
     <g id="text_10">
      <!-- 0.8 -->
      <defs>
       <path d="M 31.78125 34.625 
Q 24.75 34.625 20.71875 30.859375 
Q 16.703125 27.09375 16.703125 20.515625 
Q 16.703125 13.921875 20.71875 10.15625 
Q 24.75 6.390625 31.78125 6.390625 
Q 38.8125 6.390625 42.859375 10.171875 
Q 46.921875 13.96875 46.921875 20.515625 
Q 46.921875 27.09375 42.890625 30.859375 
Q 38.875 34.625 31.78125 34.625 
z
M 21.921875 38.8125 
Q 15.578125 40.375 12.03125 44.71875 
Q 8.5 49.078125 8.5 55.328125 
Q 8.5 64.0625 14.71875 69.140625 
Q 20.953125 74.21875 31.78125 74.21875 
Q 42.671875 74.21875 48.875 69.140625 
Q 55.078125 64.0625 55.078125 55.328125 
Q 55.078125 49.078125 51.53125 44.71875 
Q 48 40.375 41.703125 38.8125 
Q 48.828125 37.15625 52.796875 32.3125 
Q 56.78125 27.484375 56.78125 20.515625 
Q 56.78125 9.90625 50.3125 4.234375 
Q 43.84375 -1.421875 31.78125 -1.421875 
Q 19.734375 -1.421875 13.25 4.234375 
Q 6.78125 9.90625 6.78125 20.515625 
Q 6.78125 27.484375 10.78125 32.3125 
Q 14.796875 37.15625 21.921875 38.8125 
z
M 18.3125 54.390625 
Q 18.3125 48.734375 21.84375 45.5625 
Q 25.390625 42.390625 31.78125 42.390625 
Q 38.140625 42.390625 41.71875 45.5625 
Q 45.3125 48.734375 45.3125 54.390625 
Q 45.3125 60.0625 41.71875 63.234375 
Q 38.140625 66.40625 31.78125 66.40625 
Q 25.390625 66.40625 21.84375 63.234375 
Q 18.3125 60.0625 18.3125 54.390625 
z
" id="DejaVuSans-38"/>
      </defs>
      <g transform="translate(23.675 87.065681)scale(0.16 -0.16)">
       <use xlink:href="#DejaVuSans-30"/>
       <use x="63.623047" xlink:href="#DejaVuSans-2e"/>
       <use x="95.410156" xlink:href="#DejaVuSans-38"/>
      </g>
     </g>
    </g>
    <g id="ytick_6">
     <g id="line2d_39">
      <path clip-path="url(#pb68d404e02)" d="M 56.12 27.513663 
L 333.168 27.513663 
" style="fill:none;stroke:#b0b0b0;stroke-linecap:square;stroke-width:0.8;"/>
     </g>
     <g id="line2d_40">
      <g>
       <use style="stroke:#000000;stroke-width:0.8;" x="56.12" xlink:href="#m06e2e4dcc0" y="27.513663"/>
      </g>
     </g>
     <g id="text_11">
      <!-- 1.0 -->
      <g transform="translate(23.675 33.592413)scale(0.16 -0.16)">
       <use xlink:href="#DejaVuSans-31"/>
       <use x="63.623047" xlink:href="#DejaVuSans-2e"/>
       <use x="95.410156" xlink:href="#DejaVuSans-30"/>
      </g>
     </g>
    </g>
    <g id="text_12">
     <!-- Fraction of function,target pairs -->
     <defs>
      <path d="M 9.8125 72.90625 
L 51.703125 72.90625 
L 51.703125 64.59375 
L 19.671875 64.59375 
L 19.671875 43.109375 
L 48.578125 43.109375 
L 48.578125 34.8125 
L 19.671875 34.8125 
L 19.671875 0 
L 9.8125 0 
z
" id="DejaVuSans-46"/>
      <path d="M 41.109375 46.296875 
Q 39.59375 47.171875 37.8125 47.578125 
Q 36.03125 48 33.890625 48 
Q 26.265625 48 22.1875 43.046875 
Q 18.109375 38.09375 18.109375 28.8125 
L 18.109375 0 
L 9.078125 0 
L 9.078125 54.6875 
L 18.109375 54.6875 
L 18.109375 46.1875 
Q 20.953125 51.171875 25.484375 53.578125 
Q 30.03125 56 36.53125 56 
Q 37.453125 56 38.578125 55.875 
Q 39.703125 55.765625 41.0625 55.515625 
z
" id="DejaVuSans-72"/>
      <path d="M 48.78125 52.59375 
L 48.78125 44.1875 
Q 44.96875 46.296875 41.140625 47.34375 
Q 37.3125 48.390625 33.40625 48.390625 
Q 24.65625 48.390625 19.8125 42.84375 
Q 14.984375 37.3125 14.984375 27.296875 
Q 14.984375 17.28125 19.8125 11.734375 
Q 24.65625 6.203125 33.40625 6.203125 
Q 37.3125 6.203125 41.140625 7.25 
Q 44.96875 8.296875 48.78125 10.40625 
L 48.78125 2.09375 
Q 45.015625 0.34375 40.984375 -0.53125 
Q 36.96875 -1.421875 32.421875 -1.421875 
Q 20.0625 -1.421875 12.78125 6.34375 
Q 5.515625 14.109375 5.515625 27.296875 
Q 5.515625 40.671875 12.859375 48.328125 
Q 20.21875 56 33.015625 56 
Q 37.15625 56 41.109375 55.140625 
Q 45.0625 54.296875 48.78125 52.59375 
z
" id="DejaVuSans-63"/>
      <path d="M 18.3125 70.21875 
L 18.3125 54.6875 
L 36.8125 54.6875 
L 36.8125 47.703125 
L 18.3125 47.703125 
L 18.3125 18.015625 
Q 18.3125 11.328125 20.140625 9.421875 
Q 21.96875 7.515625 27.59375 7.515625 
L 36.8125 7.515625 
L 36.8125 0 
L 27.59375 0 
Q 17.1875 0 13.234375 3.875 
Q 9.28125 7.765625 9.28125 18.015625 
L 9.28125 47.703125 
L 2.6875 47.703125 
L 2.6875 54.6875 
L 9.28125 54.6875 
L 9.28125 70.21875 
z
" id="DejaVuSans-74"/>
      <path d="M 8.5 21.578125 
L 8.5 54.6875 
L 17.484375 54.6875 
L 17.484375 21.921875 
Q 17.484375 14.15625 20.5 10.265625 
Q 23.53125 6.390625 29.59375 6.390625 
Q 36.859375 6.390625 41.078125 11.03125 
Q 45.3125 15.671875 45.3125 23.6875 
L 45.3125 54.6875 
L 54.296875 54.6875 
L 54.296875 0 
L 45.3125 0 
L 45.3125 8.40625 
Q 42.046875 3.421875 37.71875 1 
Q 33.40625 -1.421875 27.6875 -1.421875 
Q 18.265625 -1.421875 13.375 4.4375 
Q 8.5 10.296875 8.5 21.578125 
z
M 31.109375 56 
z
" id="DejaVuSans-75"/>
      <path d="M 11.71875 12.40625 
L 22.015625 12.40625 
L 22.015625 4 
L 14.015625 -11.625 
L 7.71875 -11.625 
L 11.71875 4 
z
" id="DejaVuSans-2c"/>
      <path d="M 18.109375 8.203125 
L 18.109375 -20.796875 
L 9.078125 -20.796875 
L 9.078125 54.6875 
L 18.109375 54.6875 
L 18.109375 46.390625 
Q 20.953125 51.265625 25.265625 53.625 
Q 29.59375 56 35.59375 56 
Q 45.5625 56 51.78125 48.09375 
Q 58.015625 40.1875 58.015625 27.296875 
Q 58.015625 14.40625 51.78125 6.484375 
Q 45.5625 -1.421875 35.59375 -1.421875 
Q 29.59375 -1.421875 25.265625 0.953125 
Q 20.953125 3.328125 18.109375 8.203125 
z
M 48.6875 27.296875 
Q 48.6875 37.203125 44.609375 42.84375 
Q 40.53125 48.484375 33.40625 48.484375 
Q 26.265625 48.484375 22.1875 42.84375 
Q 18.109375 37.203125 18.109375 27.296875 
Q 18.109375 17.390625 22.1875 11.75 
Q 26.265625 6.109375 33.40625 6.109375 
Q 40.53125 6.109375 44.609375 11.75 
Q 48.6875 17.390625 48.6875 27.296875 
z
" id="DejaVuSans-70"/>
     </defs>
     <g transform="translate(16.139531 294.999375)rotate(-90)scale(0.17 -0.17)">
      <use xlink:href="#DejaVuSans-46"/>
      <use x="57.410156" xlink:href="#DejaVuSans-72"/>
      <use x="98.523438" xlink:href="#DejaVuSans-61"/>
      <use x="159.802734" xlink:href="#DejaVuSans-63"/>
      <use x="214.783203" xlink:href="#DejaVuSans-74"/>
      <use x="253.992188" xlink:href="#DejaVuSans-69"/>
      <use x="281.775391" xlink:href="#DejaVuSans-6f"/>
      <use x="342.957031" xlink:href="#DejaVuSans-6e"/>
      <use x="406.335938" xlink:href="#DejaVuSans-20"/>
      <use x="438.123047" xlink:href="#DejaVuSans-6f"/>
      <use x="499.304688" xlink:href="#DejaVuSans-66"/>
      <use x="534.509766" xlink:href="#DejaVuSans-20"/>
      <use x="566.296875" xlink:href="#DejaVuSans-66"/>
      <use x="601.501953" xlink:href="#DejaVuSans-75"/>
      <use x="664.880859" xlink:href="#DejaVuSans-6e"/>
      <use x="728.259766" xlink:href="#DejaVuSans-63"/>
      <use x="783.240234" xlink:href="#DejaVuSans-74"/>
      <use x="822.449219" xlink:href="#DejaVuSans-69"/>
      <use x="850.232422" xlink:href="#DejaVuSans-6f"/>
      <use x="911.414062" xlink:href="#DejaVuSans-6e"/>
      <use x="974.792969" xlink:href="#DejaVuSans-2c"/>
      <use x="1006.580078" xlink:href="#DejaVuSans-74"/>
      <use x="1045.789062" xlink:href="#DejaVuSans-61"/>
      <use x="1107.068359" xlink:href="#DejaVuSans-72"/>
      <use x="1148.166016" xlink:href="#DejaVuSans-67"/>
      <use x="1211.642578" xlink:href="#DejaVuSans-65"/>
      <use x="1273.166016" xlink:href="#DejaVuSans-74"/>
      <use x="1312.375" xlink:href="#DejaVuSans-20"/>
      <use x="1344.162109" xlink:href="#DejaVuSans-70"/>
      <use x="1407.638672" xlink:href="#DejaVuSans-61"/>
      <use x="1468.917969" xlink:href="#DejaVuSans-69"/>
      <use x="1496.701172" xlink:href="#DejaVuSans-72"/>
      <use x="1537.814453" xlink:href="#DejaVuSans-73"/>
     </g>
    </g>
   </g>
   <g id="line2d_41">
    <defs>
     <path d="M 0 1.5 
C 0.397805 1.5 0.77937 1.341951 1.06066 1.06066 
C 1.341951 0.77937 1.5 0.397805 1.5 0 
C 1.5 -0.397805 1.341951 -0.77937 1.06066 -1.06066 
C 0.77937 -1.341951 0.397805 -1.5 0 -1.5 
C -0.397805 -1.5 -0.77937 -1.341951 -1.06066 -1.06066 
C -1.341951 -0.77937 -1.5 -0.397805 -1.5 0 
C -1.5 0.397805 -1.341951 0.77937 -1.06066 1.06066 
C -0.77937 1.341951 -0.397805 1.5 0 1.5 
z
" id="m0648ecb7f0" style="stroke:#f5deb3;"/>
    </defs>
    <g>
     <use style="fill:#f5deb3;stroke:#f5deb3;" x="136.196864" xlink:href="#m0648ecb7f0" y="27.513663"/>
     <use style="fill:#f5deb3;stroke:#f5deb3;" x="136.196864" xlink:href="#m0648ecb7f0" y="27.513663"/>
    </g>
   </g>
   <g id="line2d_42">
    <defs>
     <path d="M 0 1.5 
C 0.397805 1.5 0.77937 1.341951 1.06066 1.06066 
C 1.341951 0.77937 1.5 0.397805 1.5 0 
C 1.5 -0.397805 1.341951 -0.77937 1.06066 -1.06066 
C 0.77937 -1.341951 0.397805 -1.5 0 -1.5 
C -0.397805 -1.5 -0.77937 -1.341951 -1.06066 -1.06066 
C -1.341951 -0.77937 -1.5 -0.397805 -1.5 0 
C -1.5 0.397805 -1.341951 0.77937 -1.06066 1.06066 
C -0.77937 1.341951 -0.397805 1.5 0 1.5 
z
" id="md471953b8d" style="stroke:#000080;"/>
    </defs>
    <g>
     <use style="fill:#000080;stroke:#000080;" x="173.864292" xlink:href="#md471953b8d" y="27.513663"/>
     <use style="fill:#000080;stroke:#000080;" x="173.864292" xlink:href="#md471953b8d" y="27.513663"/>
    </g>
   </g>
   <g id="line2d_43">
    <path d="M 103.231288 294.88 
L 103.231288 294.355752 
L 108.036969 294.355752 
L 108.036969 293.307257 
L 108.451173 293.307257 
L 108.451173 289.637523 
L 110.014853 289.637523 
L 110.014853 289.113275 
L 110.384516 289.113275 
L 110.384516 288.589027 
L 110.746395 288.589027 
L 110.746395 286.492036 
L 111.448069 286.492036 
L 111.448069 285.967789 
L 111.788449 285.967789 
L 111.788449 281.773807 
L 112.122219 281.773807 
L 112.122219 279.676816 
L 112.449632 279.676816 
L 112.449632 275.482834 
L 112.770924 275.482834 
L 112.770924 274.434339 
L 113.086321 274.434339 
L 113.086321 270.240357 
L 113.396034 270.240357 
L 113.396034 267.619119 
L 113.700266 267.619119 
L 113.700266 266.046375 
L 113.999206 266.046375 
L 113.999206 261.328146 
L 114.581927 261.328146 
L 114.581927 260.279651 
L 114.866043 260.279651 
L 114.866043 258.706907 
L 115.145539 258.706907 
L 115.145539 257.658412 
L 115.691256 257.658412 
L 115.691256 256.609917 
L 115.957752 256.609917 
L 115.957752 255.561421 
L 116.220179 255.561421 
L 116.220179 254.512926 
L 116.478659 254.512926 
L 116.478659 253.46443 
L 116.73331 253.46443 
L 116.73331 252.940182 
L 121.359263 252.940182 
L 121.359263 252.415935 
L 122.298767 252.415935 
L 122.298767 251.891687 
L 122.480659 251.891687 
L 122.480659 250.843192 
L 122.838768 250.843192 
L 122.838768 250.318944 
L 123.533353 250.318944 
L 123.533353 247.697705 
L 124.685175 247.697705 
L 124.685175 246.64921 
L 125.000572 246.64921 
L 125.000572 245.600714 
L 125.156126 245.600714 
L 125.156126 244.027971 
L 125.310285 244.027971 
L 125.310285 242.979476 
L 125.463074 242.979476 
L 125.463074 241.93098 
L 125.764637 241.93098 
L 125.764637 240.882485 
L 125.913457 240.882485 
L 125.913457 240.358237 
L 126.496178 240.358237 
L 126.496178 238.261246 
L 126.780294 238.261246 
L 126.780294 237.736999 
L 126.92061 237.736999 
L 126.92061 237.212751 
L 127.05979 237.212751 
L 127.05979 236.688503 
L 127.197852 236.688503 
L 127.197852 234.591512 
L 127.334814 234.591512 
L 127.334814 230.397531 
L 127.470694 230.397531 
L 127.470694 225.155053 
L 127.872003 225.155053 
L 127.872003 224.630806 
L 128.003717 224.630806 
L 128.003717 224.106558 
L 128.13443 224.106558 
L 128.13443 223.58231 
L 128.264156 223.58231 
L 128.264156 223.058063 
L 128.520707 223.058063 
L 128.520707 221.485319 
L 128.647561 221.485319 
L 128.647561 218.864081 
L 128.898495 218.864081 
L 128.898495 215.194347 
L 129.022601 215.194347 
L 129.022601 214.670099 
L 129.145817 214.670099 
L 129.145817 213.621604 
L 129.268157 213.621604 
L 129.268157 213.097356 
L 129.389632 213.097356 
L 129.389632 209.427622 
L 129.630036 209.427622 
L 129.630036 206.806383 
L 129.748989 206.806383 
L 129.748989 205.23364 
L 129.867125 205.23364 
L 129.867125 204.185145 
L 130.100987 204.185145 
L 130.100987 198.942667 
L 130.216736 198.942667 
L 130.216736 196.321429 
L 130.33171 196.321429 
L 130.33171 192.651695 
L 130.445921 192.651695 
L 130.445921 192.127447 
L 130.559378 192.127447 
L 130.559378 186.88497 
L 130.67209 186.88497 
L 130.67209 185.836474 
L 130.784069 185.836474 
L 130.784069 183.739484 
L 130.895323 183.739484 
L 131.005861 181.118245 
L 131.115693 181.118245 
L 131.115693 179.021254 
L 131.333273 179.021254 
L 131.333273 177.448511 
L 131.548134 177.448511 
L 131.654565 175.35152 
L 131.760342 175.35152 
L 131.865471 169.584795 
L 131.969962 169.584795 
L 132.073821 162.769575 
L 132.177056 162.769575 
L 132.177056 161.721079 
L 132.381685 161.721079 
L 132.381685 160.672584 
L 132.583907 160.672584 
L 132.684132 158.575593 
L 132.783777 158.575593 
L 132.783777 155.430107 
L 132.98135 155.430107 
L 133.079291 152.28462 
L 133.176677 152.28462 
L 133.273515 147.042143 
L 133.36981 147.042143 
L 133.465568 143.896657 
L 133.560797 143.896657 
L 133.6555 142.323914 
L 133.749684 142.323914 
L 133.749684 137.605684 
L 133.936519 137.605684 
L 134.029181 132.887455 
L 134.213018 132.887455 
L 134.304205 129.741969 
L 134.39491 129.741969 
L 134.485139 127.644978 
L 134.574897 127.644978 
L 134.574897 126.596482 
L 134.753019 126.596482 
L 134.841393 124.499491 
L 134.929315 124.499491 
L 135.016789 120.829757 
L 135.10382 120.829757 
L 135.190413 119.781262 
L 135.3623 119.781262 
L 135.447604 118.732766 
L 135.532486 118.732766 
L 135.532486 117.684271 
L 135.701004 117.684271 
L 135.784647 116.635776 
L 135.867885 116.635776 
L 135.950722 112.966042 
L 136.439531 112.966042 
L 136.439531 112.441794 
L 136.599426 112.441794 
L 136.67882 110.344803 
L 136.757848 110.344803 
L 136.757848 108.77206 
L 137.070377 108.77206 
L 137.070377 107.199317 
L 137.224536 107.199317 
L 137.301101 105.626573 
L 137.377325 105.626573 
L 137.453213 103.005335 
L 137.603992 103.005335 
L 137.678888 99.335601 
L 137.753459 99.335601 
L 137.753459 98.811353 
L 138.121538 98.811353 
L 138.194217 97.762858 
L 138.33866 97.762858 
L 138.33866 96.714362 
L 138.4819 96.714362 
L 138.553074 95.665867 
L 138.623956 95.665867 
L 138.623956 95.141619 
L 138.764847 95.141619 
L 138.834862 94.093124 
L 138.974042 94.093124 
L 138.974042 93.568876 
L 139.249066 93.568876 
L 139.317139 91.471885 
L 139.384945 91.471885 
L 139.452484 90.42339 
L 139.586771 90.42339 
L 139.653523 88.850646 
L 139.983449 88.850646 
L 139.983449 88.326399 
L 140.113666 88.326399 
L 140.113666 87.802151 
L 140.307161 87.802151 
L 140.307161 87.277903 
L 140.561812 87.277903 
L 140.561812 86.753656 
L 140.687737 86.753656 
L 140.687737 86.229408 
L 140.812746 86.229408 
L 140.812746 85.70516 
L 140.936852 85.70516 
L 140.936852 84.656665 
L 141.060069 84.656665 
L 141.121347 83.608169 
L 141.182408 83.608169 
L 141.243253 82.559674 
L 141.484501 82.559674 
L 141.484501 82.035426 
L 141.898705 82.035426 
L 141.898705 81.511178 
L 142.015238 81.511178 
L 142.07321 80.462683 
L 142.130987 80.462683 
L 142.130987 79.938435 
L 142.245962 79.938435 
L 142.245962 78.88994 
L 142.530078 78.88994 
L 142.530078 77.841444 
L 142.754037 77.841444 
L 142.864932 76.268701 
L 143.029944 76.268701 
L 143.084598 74.695958 
L 143.193387 74.695958 
L 143.193387 74.17171 
L 143.621786 74.17171 
L 143.621786 73.647463 
L 144.193927 73.647463 
L 144.295937 71.550472 
L 144.598384 71.550472 
L 144.698028 69.977729 
L 144.993542 69.977729 
L 145.042304 68.929233 
L 145.187766 68.929233 
L 145.187766 68.404985 
L 145.332007 68.404985 
L 145.37982 67.35649 
L 145.663936 67.35649 
L 145.710835 66.307995 
L 146.081494 66.307995 
L 146.172923 65.259499 
L 146.218456 65.259499 
L 146.218456 64.735251 
L 146.489148 64.735251 
L 146.533852 63.162508 
L 146.622913 63.162508 
L 146.622913 62.638261 
L 146.843566 62.638261 
L 146.887358 61.065517 
L 147.018071 61.065517 
L 147.018071 60.54127 
L 147.233741 60.54127 
L 147.233741 60.017022 
L 147.446737 60.017022 
L 147.446737 59.492774 
L 148.945872 59.492774 
L 148.945872 58.968526 
L 149.177112 58.968526 
L 149.215352 57.920031 
L 149.593139 57.920031 
L 149.593139 57.395783 
L 149.889502 57.395783 
L 149.926191 56.347288 
L 152.157156 56.347288 
L 152.157156 55.82304 
L 152.317349 55.82304 
L 152.381011 54.250297 
L 152.539141 54.250297 
L 152.539141 53.726049 
L 152.664606 53.726049 
L 152.664606 53.201802 
L 152.912822 53.201802 
L 152.912822 52.153306 
L 153.066156 52.153306 
L 153.096659 51.104811 
L 153.338757 51.104811 
L 153.398752 50.056315 
L 153.458539 50.056315 
L 153.458539 49.00782 
L 153.577492 49.00782 
L 153.607102 47.959324 
L 153.754391 47.959324 
L 153.842163 46.386581 
L 153.871321 46.386581 
L 153.90043 45.338086 
L 154.38788 45.338086 
L 154.38788 44.813838 
L 154.528656 44.813838 
L 154.528656 44.28959 
L 154.696079 44.28959 
L 154.696079 43.241095 
L 155.746298 43.241095 
L 155.850472 41.668352 
L 155.92819 41.668352 
L 156.031271 39.571361 
L 156.159258 39.571361 
L 156.159258 39.047113 
L 156.362076 39.047113 
L 156.462595 37.998618 
L 156.5376 37.998618 
L 156.5376 37.47437 
L 156.686635 37.47437 
L 156.711349 36.425875 
L 157.053666 36.425875 
L 157.053666 35.901627 
L 157.294071 35.901627 
L 157.294071 35.377379 
L 157.578187 35.377379 
L 157.601653 34.328884 
L 159.297366 34.328884 
L 159.297366 33.804636 
L 160.821278 33.804636 
L 160.821278 33.280388 
L 161.224831 33.280388 
L 161.224831 32.756141 
L 162.058944 32.756141 
L 162.058944 32.231893 
L 162.328224 32.231893 
L 162.328224 31.707645 
L 162.558234 31.707645 
L 162.593349 30.65915 
L 163.909707 30.65915 
L 163.909707 30.134902 
L 164.311141 30.134902 
L 164.311141 29.610654 
L 165.37279 29.610654 
L 165.37279 29.086407 
L 165.741817 29.086407 
L 165.741817 28.562159 
L 173.148576 28.562159 
L 173.148576 28.037911 
L 173.864292 28.037911 
L 173.864292 27.513663 
L 333.168 27.513663 
L 333.168 27.513663 
" style="fill:none;stroke:#000080;stroke-linecap:square;stroke-width:1.5;"/>
   </g>
   <g id="line2d_44">
    <defs>
     <path d="M 0 6 
C 1.591219 6 3.117479 5.367802 4.242641 4.242641 
C 5.367802 3.117479 6 1.591219 6 0 
C 6 -1.591219 5.367802 -3.117479 4.242641 -4.242641 
C 3.117479 -5.367802 1.591219 -6 0 -6 
C -1.591219 -6 -3.117479 -5.367802 -4.242641 -4.242641 
C -5.367802 -3.117479 -6 -1.591219 -6 0 
C -6 1.591219 -5.367802 3.117479 -4.242641 4.242641 
C -3.117479 5.367802 -1.591219 6 0 6 
z
" id="m6b835bceb4" style="stroke:#000080;stroke-width:1.5;"/>
    </defs>
    <g>
     <use style="fill:none;stroke:#000080;stroke-width:1.5;" x="127.197852" xlink:href="#m6b835bceb4" y="234.591512"/>
     <use style="fill:none;stroke:#000080;stroke-width:1.5;" x="153.096659" xlink:href="#m6b835bceb4" y="51.629058"/>
     <use style="fill:none;stroke:#000080;stroke-width:1.5;" x="173.864292" xlink:href="#m6b835bceb4" y="27.513663"/>
     <use style="fill:none;stroke:#000080;stroke-width:1.5;" x="173.864292" xlink:href="#m6b835bceb4" y="27.513663"/>
     <use style="fill:none;stroke:#000080;stroke-width:1.5;" x="333.168" xlink:href="#m6b835bceb4" y="27.513663"/>
    </g>
   </g>
   <g id="line2d_45">
    <path style="fill:none;stroke:#000080;stroke-linecap:square;stroke-width:1.5;"/>
    <g/>
   </g>
   <g id="line2d_46">
    <path clip-path="url(#pb68d404e02)" d="M 121.741249 252.415935 
" style="fill:none;stroke:#000080;stroke-linecap:square;stroke-width:1.5;"/>
    <defs>
     <path d="M -12 12 
L 12 -12 
M -12 -12 
L 12 12 
" id="mc28733b801" style="stroke:#000080;"/>
    </defs>
    <g clip-path="url(#pb68d404e02)">
     <use style="fill:#000080;stroke:#000080;" x="121.741249" xlink:href="#mc28733b801" y="252.415935"/>
    </g>
   </g>
   <g id="line2d_47">
    <defs>
     <path d="M 0 1.5 
C 0.397805 1.5 0.77937 1.341951 1.06066 1.06066 
C 1.341951 0.77937 1.5 0.397805 1.5 0 
C 1.5 -0.397805 1.341951 -0.77937 1.06066 -1.06066 
C 0.77937 -1.341951 0.397805 -1.5 0 -1.5 
C -0.397805 -1.5 -0.77937 -1.341951 -1.06066 -1.06066 
C -1.341951 -0.77937 -1.5 -0.397805 -1.5 0 
C -1.5 0.397805 -1.341951 0.77937 -1.06066 1.06066 
C -0.77937 1.341951 -0.397805 1.5 0 1.5 
z
" id="m52a39413ef" style="stroke:#ff00ff;"/>
    </defs>
    <g>
     <use style="fill:#ff00ff;stroke:#ff00ff;" x="258.839181" xlink:href="#m52a39413ef" y="242.455228"/>
     <use style="fill:#ff00ff;stroke:#ff00ff;" x="258.839181" xlink:href="#m52a39413ef" y="242.455228"/>
    </g>
   </g>
   <g id="line2d_48">
    <path d="M 117.715785 294.88 
L 117.715785 294.355752 
L 128.264156 294.355752 
L 128.264156 293.831505 
L 128.773486 293.831505 
L 128.773486 291.210266 
L 129.867125 291.210266 
L 129.867125 290.161771 
L 130.559378 290.161771 
L 130.559378 288.06478 
L 134.841393 288.06478 
L 134.841393 286.492036 
L 135.3623 286.492036 
L 135.3623 285.443541 
L 138.974042 285.443541 
L 138.974042 282.298055 
L 146.843566 282.298055 
L 146.843566 281.249559 
L 148.750766 281.249559 
L 148.750766 279.676816 
L 153.987461 279.676816 
L 153.987461 279.152568 
L 154.38788 279.152568 
L 154.38788 278.628321 
L 155.323172 278.628321 
L 155.323172 278.104073 
L 158.358579 278.104073 
L 158.358579 277.579825 
L 158.625765 277.579825 
L 158.625765 274.434339 
L 159.276106 274.434339 
L 159.276106 273.385844 
L 160.147128 273.385844 
L 160.147128 272.861596 
L 163.482025 272.861596 
L 163.482025 271.288853 
L 169.30355 271.288853 
L 169.30355 269.191862 
L 169.632754 269.191862 
L 169.632754 267.619119 
L 170.889924 267.619119 
L 170.889924 267.094871 
L 173.402948 267.094871 
L 173.402948 266.570623 
L 175.742534 266.570623 
L 175.742534 266.046375 
L 176.145852 266.046375 
L 176.145852 265.522128 
L 184.18666 265.522128 
L 184.18666 264.99788 
L 185.742088 264.99788 
L 185.819463 263.425137 
L 188.50863 263.425137 
L 188.50863 262.900889 
L 188.991123 262.900889 
L 188.991123 262.376641 
L 190.49428 262.376641 
L 190.590884 261.328146 
L 190.931534 261.328146 
L 190.931534 260.803898 
L 191.748312 260.803898 
L 191.748312 260.279651 
L 192.057509 260.279651 
L 192.057509 259.755403 
L 192.784311 259.755403 
L 192.784311 259.231155 
L 193.932207 259.231155 
L 193.971819 258.18266 
L 195.839252 258.18266 
L 195.839252 257.658412 
L 197.482113 257.658412 
L 197.482113 257.134164 
L 197.656339 257.134164 
L 197.656339 256.609917 
L 198.803261 256.609917 
L 198.803261 256.085669 
L 199.624006 256.085669 
L 199.624006 255.561421 
L 203.193042 255.561421 
L 203.193042 255.037173 
L 204.749966 255.037173 
L 204.749966 254.512926 
L 205.001731 254.512926 
L 205.001731 253.988678 
L 205.439438 253.988678 
L 205.439438 253.46443 
L 206.938428 253.46443 
L 206.938428 252.940182 
L 208.531672 252.940182 
L 208.531672 252.415935 
L 210.753746 252.415935 
L 210.753746 251.891687 
L 212.715469 251.891687 
L 212.715469 251.367439 
L 213.364103 251.367439 
L 213.364103 250.843192 
L 214.460623 250.843192 
L 214.460623 250.318944 
L 215.476815 250.318944 
L 215.476815 249.794696 
L 216.104178 249.794696 
L 216.104178 249.270448 
L 220.769952 249.270448 
L 220.769952 248.746201 
L 220.994365 248.746201 
L 220.994365 248.221953 
L 222.599729 248.221953 
L 222.599729 247.697705 
L 223.289514 247.697705 
L 223.289514 247.173458 
L 223.470806 247.173458 
L 223.470806 246.64921 
L 225.56316 246.64921 
L 225.56316 246.124962 
L 227.123711 246.124962 
L 227.123711 245.600714 
L 228.264638 245.600714 
L 228.264638 245.076467 
L 237.821177 245.076467 
L 237.821177 244.552219 
L 240.360878 244.552219 
L 240.360878 244.027971 
L 241.484082 244.027971 
L 241.484082 243.503724 
L 256.821984 243.503724 
L 256.821984 242.979476 
L 258.839181 242.979476 
L 258.839181 242.455228 
L 333.168 242.455228 
L 333.168 242.455228 
" style="fill:none;stroke:#ff00ff;stroke-linecap:square;stroke-width:1.5;"/>
   </g>
   <g id="line2d_49">
    <defs>
     <path d="M -0 8.485281 
L 5.091169 0 
L 0 -8.485281 
L -5.091169 -0 
z
" id="m6bc9642284" style="stroke:#ff00ff;stroke-linejoin:miter;stroke-width:1.5;"/>
    </defs>
    <g>
     <use style="fill:none;stroke:#ff00ff;stroke-linejoin:miter;stroke-width:1.5;" x="185.819463" xlink:href="#m6bc9642284" y="264.473632"/>
     <use style="fill:none;stroke:#ff00ff;stroke-linejoin:miter;stroke-width:1.5;" x="241.484082" xlink:href="#m6bc9642284" y="243.503724"/>
     <use style="fill:none;stroke:#ff00ff;stroke-linejoin:miter;stroke-width:1.5;" x="258.839181" xlink:href="#m6bc9642284" y="242.455228"/>
     <use style="fill:none;stroke:#ff00ff;stroke-linejoin:miter;stroke-width:1.5;" x="258.839181" xlink:href="#m6bc9642284" y="242.455228"/>
     <use style="fill:none;stroke:#ff00ff;stroke-linejoin:miter;stroke-width:1.5;" x="333.168" xlink:href="#m6bc9642284" y="242.455228"/>
    </g>
   </g>
   <g id="line2d_50">
    <path style="fill:none;stroke:#ff00ff;stroke-linecap:square;stroke-width:1.5;"/>
    <g/>
   </g>
   <g id="line2d_51">
    <path clip-path="url(#pb68d404e02)" d="M 187.176763 263.425137 
" style="fill:none;stroke:#ff00ff;stroke-linecap:square;stroke-width:1.5;"/>
    <defs>
     <path d="M -12 12 
L 12 -12 
M -12 -12 
L 12 12 
" id="m865312c62f" style="stroke:#ff00ff;"/>
    </defs>
    <g clip-path="url(#pb68d404e02)">
     <use style="fill:#ff00ff;stroke:#ff00ff;" x="187.176763" xlink:href="#m865312c62f" y="263.425137"/>
    </g>
   </g>
   <g id="line2d_52">
    <defs>
     <path d="M 0 1.5 
C 0.397805 1.5 0.77937 1.341951 1.06066 1.06066 
C 1.341951 0.77937 1.5 0.397805 1.5 0 
C 1.5 -0.397805 1.341951 -0.77937 1.06066 -1.06066 
C 0.77937 -1.341951 0.397805 -1.5 0 -1.5 
C -0.397805 -1.5 -0.77937 -1.341951 -1.06066 -1.06066 
C -1.341951 -0.77937 -1.5 -0.397805 -1.5 0 
C -1.5 0.397805 -1.341951 0.77937 -1.06066 1.06066 
C -0.77937 1.341951 -0.397805 1.5 0 1.5 
z
" id="md1c3209222" style="stroke:#ff7500;"/>
    </defs>
    <g>
     <use style="fill:#ff7500;stroke:#ff7500;" x="211.037757" xlink:href="#md1c3209222" y="27.513663"/>
     <use style="fill:#ff7500;stroke:#ff7500;" x="211.037757" xlink:href="#md1c3209222" y="27.513663"/>
    </g>
   </g>
   <g id="line2d_53">
    <path d="M 81.973032 294.88 
L 81.973032 294.355752 
L 94.816624 294.355752 
L 94.816624 293.831505 
L 104.819059 293.831505 
L 104.819059 292.783009 
L 112.449632 292.783009 
L 112.449632 290.686018 
L 117.952873 290.686018 
L 117.952873 284.919293 
L 119.740314 284.919293 
L 119.740314 283.34655 
L 119.95122 283.34655 
L 119.95122 282.298055 
L 120.15957 282.298055 
L 120.15957 281.773807 
L 121.359263 281.773807 
L 121.359263 279.676816 
L 122.114929 279.676816 
L 122.114929 279.152568 
L 122.298767 279.152568 
L 122.298767 278.104073 
L 122.480659 278.104073 
L 122.480659 276.53133 
L 123.015063 276.53133 
L 123.015063 275.482834 
L 123.189569 275.482834 
L 123.189569 273.910091 
L 123.36232 273.910091 
L 123.36232 273.385844 
L 124.363883 273.385844 
L 124.363883 272.337348 
L 124.685175 272.337348 
L 124.685175 271.288853 
L 125.913457 271.288853 
L 125.913457 269.716109 
L 126.061 269.716109 
L 126.061 269.191862 
L 126.780294 269.191862 
L 126.780294 265.522128 
L 127.197852 265.522128 
L 127.197852 264.99788 
L 127.470694 264.99788 
L 127.470694 263.425137 
L 128.898495 263.425137 
L 128.898495 260.279651 
L 129.630036 260.279651 
L 129.630036 259.231155 
L 130.67209 259.231155 
L 130.67209 258.18266 
L 130.784069 258.18266 
L 130.784069 257.134164 
L 131.224827 257.134164 
L 131.224827 256.085669 
L 131.441039 256.085669 
L 131.548134 250.843192 
L 131.654565 250.843192 
L 131.654565 249.794696 
L 132.177056 249.794696 
L 132.177056 249.270448 
L 132.583907 249.270448 
L 132.583907 248.221953 
L 132.882847 248.221953 
L 132.882847 244.027971 
L 133.36981 244.027971 
L 133.36981 242.979476 
L 133.843356 242.979476 
L 133.936519 241.406733 
L 134.304205 241.406733 
L 134.304205 240.882485 
L 134.485139 240.882485 
L 134.485139 239.83399 
L 135.10382 239.83399 
L 135.10382 239.309742 
L 135.276571 239.309742 
L 135.276571 238.261246 
L 136.599426 238.261246 
L 136.599426 237.212751 
L 137.901638 237.212751 
L 137.901638 236.164255 
L 139.043211 236.164255 
L 139.043211 235.640008 
L 139.249066 235.640008 
L 139.249066 235.11576 
L 140.242905 235.11576 
L 140.242905 234.591512 
L 141.3643 234.591512 
L 141.3643 234.067265 
L 142.416994 234.067265 
L 142.416994 233.543017 
L 143.408921 233.543017 
L 143.408921 233.018769 
L 145.757607 233.018769 
L 145.757607 232.494521 
L 147.018071 232.494521 
L 147.018071 231.970274 
L 148.151798 231.970274 
L 148.151798 231.446026 
L 148.984628 231.446026 
L 148.984628 230.921778 
L 151.601053 230.921778 
L 151.601053 230.397531 
L 152.253451 230.397531 
L 152.34921 229.349035 
L 152.664606 229.349035 
L 152.664606 228.824787 
L 153.066156 228.824787 
L 153.066156 228.30054 
L 153.90043 228.30054 
L 153.90043 227.252044 
L 154.016374 227.252044 
L 154.045238 226.203549 
L 154.245942 226.203549 
L 154.245942 225.679301 
L 154.359586 225.679301 
L 154.359586 225.155053 
L 154.472484 225.155053 
L 154.472484 224.630806 
L 154.584645 224.630806 
L 154.584645 223.58231 
L 154.889367 223.58231 
L 154.889367 223.058063 
L 155.161776 223.058063 
L 155.242663 221.485319 
L 155.349925 221.485319 
L 155.376636 219.388328 
L 155.483068 219.388328 
L 155.509573 216.76709 
L 155.824488 216.76709 
L 155.876417 215.718594 
L 156.031271 215.718594 
L 156.133737 213.621604 
L 156.2863 213.621604 
L 156.387261 208.903374 
L 156.487633 208.903374 
L 156.5376 207.854879 
L 156.686635 207.854879 
L 156.785279 205.757888 
L 156.980885 205.757888 
L 157.077859 204.709392 
L 157.150232 204.709392 
L 157.174289 202.612401 
L 157.270181 202.612401 
L 157.341751 200.515411 
L 157.531159 200.515411 
L 157.625086 195.797181 
L 157.811415 195.797181 
L 157.903827 192.651695 
L 158.087174 192.651695 
L 158.087174 191.603199 
L 158.268586 191.603199 
L 158.336125 188.457713 
L 158.514942 188.457713 
L 158.581522 186.88497 
L 158.80161 186.88497 
L 158.86709 180.06975 
L 158.954011 180.06975 
L 158.954011 174.827272 
L 159.083575 174.827272 
L 159.083575 174.303025 
L 159.212168 174.303025 
L 159.212168 173.778777 
L 159.466505 173.778777 
L 159.571378 169.060547 
L 159.592276 169.060547 
L 159.675615 163.81807 
L 159.820493 163.81807 
L 159.923235 162.245327 
L 160.004989 162.245327 
L 160.066049 160.148336 
L 160.288102 160.148336 
L 160.308147 157.527098 
L 160.408023 157.527098 
L 160.408023 155.954354 
L 160.546882 155.954354 
L 160.58635 153.333116 
L 160.801823 153.333116 
L 160.860123 150.18763 
L 160.918225 150.18763 
L 160.918225 149.139134 
L 161.091363 149.139134 
L 161.167758 147.042143 
L 161.563349 147.042143 
L 161.637678 142.848162 
L 161.986418 142.848162 
L 161.986418 141.799666 
L 162.256827 141.799666 
L 162.310402 140.751171 
L 162.399325 140.751171 
L 162.487789 138.129932 
L 162.785208 138.129932 
L 162.871714 137.081437 
L 162.923409 137.081437 
L 163.009223 135.508693 
L 163.111639 135.508693 
L 163.111639 134.460198 
L 163.230357 134.460198 
L 163.24725 133.411703 
L 163.448681 133.411703 
L 163.548519 129.741969 
L 164.023057 129.741969 
L 164.039189 128.169225 
L 164.135664 128.169225 
L 164.167702 126.596482 
L 164.263461 126.596482 
L 164.263461 126.072235 
L 164.656811 126.072235 
L 164.656811 125.547987 
L 164.93455 125.547987 
L 164.93455 123.975244 
L 165.447232 123.975244 
L 165.476919 122.926748 
L 165.727207 122.926748 
L 165.800133 121.878253 
L 166.372663 121.878253 
L 166.442907 120.829757 
L 166.844756 120.829757 
L 166.872126 119.781262 
L 167.156915 119.781262 
L 167.156915 119.257014 
L 167.370773 119.257014 
L 167.410577 118.208519 
L 167.503095 118.208519 
L 167.503095 117.684271 
L 167.686652 117.684271 
L 167.738739 116.111528 
L 167.881169 116.111528 
L 167.881169 115.58728 
L 168.137148 115.58728 
L 168.213204 114.538785 
L 168.451851 114.538785 
L 168.46432 113.490289 
L 169.421848 113.490289 
L 169.421848 112.966042 
L 169.597782 112.966042 
L 169.597782 112.441794 
L 169.748816 112.441794 
L 169.783482 111.393298 
L 170.194112 111.393298 
L 170.194112 110.869051 
L 170.340017 110.869051 
L 170.429193 109.820555 
L 170.462515 109.820555 
L 170.473608 108.77206 
L 170.770445 108.77206 
L 170.770445 108.247812 
L 171.051523 108.247812 
L 171.072956 105.626573 
L 171.621015 105.626573 
L 171.621015 105.102326 
L 171.734745 105.102326 
L 171.734745 104.578078 
L 171.878412 104.578078 
L 171.878412 104.05383 
L 172.041145 104.05383 
L 172.071487 103.005335 
L 172.222398 103.005335 
L 172.222398 102.481087 
L 172.352124 102.481087 
L 172.362063 100.908344 
L 172.745249 100.908344 
L 172.745249 100.384096 
L 173.318575 100.384096 
L 173.318575 99.859849 
L 173.625939 99.859849 
L 173.625939 99.335601 
L 174.233566 99.335601 
L 174.286947 98.287105 
L 174.5076 98.287105 
L 174.5076 97.762858 
L 174.62994 97.762858 
L 174.699459 96.714362 
L 174.803214 96.714362 
L 174.803214 96.190115 
L 175.076869 96.190115 
L 175.076869 95.665867 
L 175.429555 95.665867 
L 175.429555 95.141619 
L 175.644313 95.141619 
L 175.709856 94.093124 
L 175.896911 94.093124 
L 175.896911 93.568876 
L 176.033873 93.568876 
L 176.041896 92.520381 
L 176.399096 92.520381 
L 176.399096 91.996133 
L 176.664141 91.996133 
L 176.664141 91.471885 
L 177.099513 91.471885 
L 177.099513 90.42339 
L 177.234739 90.42339 
L 177.234739 89.899142 
L 177.405994 89.899142 
L 177.428206 88.850646 
L 177.531486 88.850646 
L 177.531486 88.326399 
L 178.329095 88.326399 
L 178.385176 86.753656 
L 178.813704 86.753656 
L 178.895425 85.180912 
L 178.990278 85.180912 
L 179.091328 83.083922 
L 179.138283 83.083922 
L 179.138283 82.559674 
L 179.685465 82.559674 
L 179.737296 81.511178 
L 180.006877 81.511178 
L 180.051399 79.938435 
L 180.422142 79.938435 
L 180.484195 78.88994 
L 180.589174 78.88994 
L 180.589174 78.365692 
L 180.821539 78.365692 
L 180.930519 76.792949 
L 180.954644 76.792949 
L 181.020812 75.220206 
L 181.122573 75.220206 
L 181.122573 74.695958 
L 181.686185 74.695958 
L 181.795576 73.647463 
L 181.80705 73.647463 
L 181.80705 73.123215 
L 182.029283 73.123215 
L 182.102727 72.074719 
L 182.187081 72.074719 
L 182.271024 70.501976 
L 182.547909 70.501976 
L 182.547909 69.977729 
L 182.662883 69.977729 
L 182.662883 69.453481 
L 182.787932 69.453481 
L 182.787932 68.929233 
L 183.077997 68.929233 
L 183.077997 68.404985 
L 183.215931 68.404985 
L 183.215931 67.880738 
L 183.519699 67.880738 
L 183.519699 67.35649 
L 183.807985 67.35649 
L 183.909783 66.307995 
L 183.945271 66.307995 
L 183.945271 65.783747 
L 184.081469 65.783747 
L 184.18666 64.735251 
L 184.291211 64.735251 
L 184.291211 64.211004 
L 184.41978 64.211004 
L 184.41978 63.686756 
L 184.532718 63.686756 
L 184.586471 62.638261 
L 184.683774 62.638261 
L 184.683774 62.114013 
L 184.862347 62.114013 
L 184.919866 61.065517 
L 185.382537 61.065517 
L 185.466181 60.017022 
L 185.659779 60.017022 
L 185.659779 59.492774 
L 185.94615 59.492774 
L 185.94615 58.968526 
L 186.121065 58.968526 
L 186.187869 57.395783 
L 186.325113 57.395783 
L 186.426236 56.347288 
L 186.456895 56.347288 
L 186.565946 55.298792 
L 186.665666 55.298792 
L 186.665666 54.774545 
L 186.7777 54.774545 
L 186.880473 53.726049 
L 186.897542 53.726049 
L 186.897542 53.201802 
L 187.092629 53.201802 
L 187.197732 51.629058 
L 187.356269 51.629058 
L 187.356269 51.104811 
L 187.505125 51.104811 
L 187.546247 50.056315 
L 187.660865 50.056315 
L 187.660865 49.532068 
L 187.807118 49.532068 
L 187.807118 49.00782 
L 187.948125 49.00782 
L 188.024189 46.910829 
L 188.274023 46.910829 
L 188.317275 45.862334 
L 188.403453 45.862334 
L 188.485313 44.813838 
L 188.869862 44.813838 
L 188.869862 44.28959 
L 189.167688 44.28959 
L 189.167688 43.765343 
L 189.617716 43.765343 
L 189.639548 42.716847 
L 190.081088 42.716847 
L 190.081088 41.668352 
L 190.587443 41.668352 
L 190.63212 40.619856 
L 191.019008 40.619856 
L 191.122726 39.571361 
L 191.308515 39.571361 
L 191.308515 39.047113 
L 191.475986 39.047113 
L 191.475986 38.522865 
L 191.712895 38.522865 
L 191.712895 37.998618 
L 191.981523 37.998618 
L 191.981523 37.47437 
L 192.177137 37.47437 
L 192.177137 36.950122 
L 192.317734 36.950122 
L 192.317734 36.425875 
L 193.075574 36.425875 
L 193.075574 35.901627 
L 193.33561 35.901627 
L 193.359056 34.853131 
L 193.744227 34.853131 
L 193.789987 33.280388 
L 194.109745 33.280388 
L 194.109745 32.756141 
L 194.229878 32.756141 
L 194.229878 32.231893 
L 196.155755 32.231893 
L 196.225305 31.183397 
L 196.324175 31.183397 
L 196.324175 30.134902 
L 196.54701 30.134902 
L 196.54701 29.610654 
L 196.687544 29.610654 
L 196.687544 29.086407 
L 196.898597 29.086407 
L 196.898597 28.562159 
L 198.008522 28.562159 
L 198.008522 28.037911 
L 211.037757 28.037911 
L 211.037757 27.513663 
L 333.168 27.513663 
L 333.168 27.513663 
" style="fill:none;stroke:#ff7500;stroke-linecap:square;stroke-width:1.5;"/>
   </g>
   <g id="line2d_54">
    <defs>
     <path d="M 0 -6 
L -1.347084 -1.854102 
L -5.706339 -1.854102 
L -2.179628 0.708204 
L -3.526712 4.854102 
L -0 2.291796 
L 3.526712 4.854102 
L 2.179628 0.708204 
L 5.706339 -1.854102 
L 1.347084 -1.854102 
z
" id="m739e663291" style="stroke:#ff7500;stroke-linejoin:bevel;stroke-width:1.5;"/>
    </defs>
    <g>
     <use style="fill:none;stroke:#ff7500;stroke-linejoin:bevel;stroke-width:1.5;" x="156.5376" xlink:href="#m739e663291" y="208.379126"/>
     <use style="fill:none;stroke:#ff7500;stroke-linejoin:bevel;stroke-width:1.5;" x="193.744227" xlink:href="#m739e663291" y="34.328884"/>
     <use style="fill:none;stroke:#ff7500;stroke-linejoin:bevel;stroke-width:1.5;" x="211.037757" xlink:href="#m739e663291" y="27.513663"/>
     <use style="fill:none;stroke:#ff7500;stroke-linejoin:bevel;stroke-width:1.5;" x="211.037757" xlink:href="#m739e663291" y="27.513663"/>
     <use style="fill:none;stroke:#ff7500;stroke-linejoin:bevel;stroke-width:1.5;" x="333.168" xlink:href="#m739e663291" y="27.513663"/>
    </g>
   </g>
   <g id="line2d_55">
    <path style="fill:none;stroke:#ff7500;stroke-linecap:square;stroke-width:1.5;"/>
    <g/>
   </g>
   <g id="line2d_56">
    <path clip-path="url(#pb68d404e02)" d="M 193.988768 33.280388 
" style="fill:none;stroke:#ff7500;stroke-linecap:square;stroke-width:1.5;"/>
    <defs>
     <path d="M -12 12 
L 12 -12 
M -12 -12 
L 12 12 
" id="m7a55221636" style="stroke:#ff7500;"/>
    </defs>
    <g clip-path="url(#pb68d404e02)">
     <use style="fill:#ff7500;stroke:#ff7500;" x="193.988768" xlink:href="#m7a55221636" y="33.280388"/>
    </g>
   </g>
   <g id="line2d_57">
    <defs>
     <path d="M 0 1.5 
C 0.397805 1.5 0.77937 1.341951 1.06066 1.06066 
C 1.341951 0.77937 1.5 0.397805 1.5 0 
C 1.5 -0.397805 1.341951 -0.77937 1.06066 -1.06066 
C 0.77937 -1.341951 0.397805 -1.5 0 -1.5 
C -0.397805 -1.5 -0.77937 -1.341951 -1.06066 -1.06066 
C -1.341951 -0.77937 -1.5 -0.397805 -1.5 0 
C -1.5 0.397805 -1.341951 0.77937 -1.06066 1.06066 
C -0.77937 1.341951 -0.397805 1.5 0 1.5 
z
" id="me2d38c9be4" style="stroke:#6495ed;"/>
    </defs>
    <g>
     <use style="fill:#6495ed;stroke:#6495ed;" x="184.478797" xlink:href="#me2d38c9be4" y="27.513663"/>
     <use style="fill:#6495ed;stroke:#6495ed;" x="184.478797" xlink:href="#me2d38c9be4" y="27.513663"/>
    </g>
   </g>
   <g id="line2d_58">
    <path d="M 103.777005 294.88 
L 103.777005 293.831505 
L 108.036969 293.831505 
L 108.036969 292.783009 
L 109.637066 292.783009 
L 109.637066 292.258761 
L 113.396034 292.258761 
L 113.396034 291.734514 
L 113.999206 291.734514 
L 113.999206 290.161771 
L 114.293036 290.161771 
L 114.293036 288.589027 
L 116.73331 288.589027 
L 116.73331 287.540532 
L 120.15957 287.540532 
L 120.15957 287.016284 
L 120.568842 287.016284 
L 120.568842 285.443541 
L 120.769881 285.443541 
L 120.769881 283.870798 
L 120.968596 283.870798 
L 120.968596 282.298055 
L 122.480659 282.298055 
L 122.480659 281.249559 
L 122.838768 281.249559 
L 122.838768 279.152568 
L 123.870396 279.152568 
L 123.870396 277.579825 
L 125.156126 277.579825 
L 125.156126 276.007082 
L 125.310285 276.007082 
L 125.310285 275.482834 
L 125.913457 275.482834 
L 125.913457 274.958587 
L 126.061 274.958587 
L 126.061 273.385844 
L 126.496178 273.385844 
L 126.496178 272.861596 
L 126.638823 272.861596 
L 126.638823 271.288853 
L 127.05979 271.288853 
L 127.05979 270.764605 
L 127.470694 270.764605 
L 127.470694 270.240357 
L 128.13443 270.240357 
L 128.13443 269.716109 
L 128.898495 269.716109 
L 128.898495 269.191862 
L 129.510254 269.191862 
L 129.510254 268.667614 
L 130.100987 268.667614 
L 130.100987 268.143366 
L 130.67209 268.143366 
L 130.67209 266.046375 
L 130.895323 266.046375 
L 130.895323 265.522128 
L 131.224827 265.522128 
L 131.224827 264.99788 
L 132.684132 264.99788 
L 132.684132 264.473632 
L 132.98135 264.473632 
L 132.98135 263.425137 
L 133.936519 263.425137 
L 134.029181 260.803898 
L 134.213018 260.803898 
L 134.213018 258.18266 
L 135.616951 258.18266 
L 135.616951 257.658412 
L 136.196864 257.658412 
L 136.196864 256.609917 
L 136.757848 256.609917 
L 136.757848 256.085669 
L 137.528768 256.085669 
L 137.528768 255.561421 
L 139.519758 255.561421 
L 139.519758 255.037173 
L 140.048681 255.037173 
L 140.048681 253.988678 
L 140.242905 253.988678 
L 140.242905 253.46443 
L 141.303883 253.46443 
L 141.303883 252.940182 
L 142.69832 252.940182 
L 142.69832 252.415935 
L 142.809574 252.415935 
L 142.920112 250.843192 
L 143.35529 250.843192 
L 143.462385 249.794696 
L 143.674593 249.794696 
L 143.674593 249.270448 
L 143.988072 249.270448 
L 144.091308 245.600714 
L 144.142694 245.600714 
L 144.142694 244.027971 
L 144.295937 244.027971 
L 144.295937 242.979476 
L 144.498158 242.979476 
L 144.548344 240.358237 
L 144.797098 240.358237 
L 144.797098 239.83399 
L 144.944641 239.83399 
L 144.944641 239.309742 
L 145.37982 239.309742 
L 145.37982 238.261246 
L 145.569751 238.261246 
L 145.616908 237.212751 
L 145.757607 237.212751 
L 145.757607 236.688503 
L 146.035596 236.688503 
L 146.035596 235.640008 
L 146.218456 235.640008 
L 146.309161 232.494521 
L 146.39939 232.494521 
L 146.444328 229.349035 
L 146.799661 229.349035 
L 146.843566 227.252044 
L 147.018071 227.252044 
L 147.061422 223.058063 
L 147.147797 223.058063 
L 147.190823 219.388328 
L 147.319256 219.388328 
L 147.404349 217.291338 
L 147.657127 217.291338 
L 147.657127 216.76709 
L 147.906242 216.76709 
L 147.906242 216.242842 
L 148.070335 216.242842 
L 148.151798 209.95187 
L 148.192385 209.95187 
L 148.273273 208.903374 
L 148.393896 208.903374 
L 148.473843 206.282136 
L 148.593071 206.282136 
L 148.63263 204.709392 
L 148.750766 204.709392 
L 148.829074 201.563906 
L 148.907027 201.563906 
L 148.945872 197.369924 
L 149.138788 197.369924 
L 149.138788 195.272933 
L 149.405283 195.272933 
L 149.480672 193.175943 
L 149.518243 193.175943 
L 149.518243 190.554704 
L 149.630465 190.554704 
L 149.704875 185.836474 
L 149.889502 185.836474 
L 149.999334 181.642493 
L 150.035789 181.642493 
L 150.035789 179.545502 
L 150.396151 179.545502 
L 150.467326 174.303025 
L 150.538207 174.303025 
L 150.538207 173.254529 
L 150.714141 173.254529 
L 150.784014 171.157538 
L 150.853603 171.157538 
L 150.957462 164.342318 
L 151.026355 164.342318 
L 151.094972 162.769575 
L 151.197387 162.769575 
L 151.265327 161.721079 
L 151.332999 161.721079 
L 151.434009 160.148336 
L 151.667418 160.148336 
L 151.766488 154.381611 
L 151.8977 154.381611 
L 151.8977 151.760373 
L 152.027918 151.760373 
L 152.124937 150.18763 
L 152.157156 150.18763 
L 152.189314 148.090639 
L 152.317349 148.090639 
L 152.34921 145.4694 
L 152.476064 145.4694 
L 152.570594 138.65418 
L 152.601988 138.65418 
L 152.664606 135.508693 
L 152.820161 135.508693 
L 152.912822 133.411703 
L 152.943598 133.411703 
L 152.943598 129.217721 
L 153.066156 129.217721 
L 153.066156 128.169225 
L 153.187846 128.169225 
L 153.278551 126.072235 
L 153.30868 126.072235 
L 153.338757 123.975244 
L 153.518118 123.975244 
L 153.607102 115.58728 
L 153.695627 115.58728 
L 153.754391 110.869051 
L 153.871321 110.869051 
L 153.871321 109.820555 
L 154.045238 109.820555 
L 154.131541 108.247812 
L 154.38788 108.247812 
L 154.472484 103.529583 
L 154.528656 103.529583 
L 154.556673 102.481087 
L 154.640452 102.481087 
L 154.723825 100.908344 
L 154.779183 100.908344 
L 154.889367 93.044628 
L 154.944195 93.044628 
L 154.944195 91.471885 
L 155.080505 91.471885 
L 155.080505 89.899142 
L 155.215743 89.899142 
L 155.323172 87.277903 
L 155.349925 87.277903 
L 155.429934 84.656665 
L 155.536037 84.656665 
L 155.641489 82.035426 
L 155.772401 82.035426 
L 155.876417 78.365692 
L 155.979808 78.365692 
L 156.08258 75.220206 
L 156.108178 75.220206 
L 156.159258 73.123215 
L 156.2863 73.123215 
L 156.387261 69.453481 
L 156.43752 69.453481 
L 156.43752 68.929233 
L 156.562529 68.929233 
L 156.6371 65.783747 
L 156.686635 65.783747 
L 156.686635 65.259499 
L 156.809852 65.259499 
L 156.88336 64.211004 
L 156.956555 64.211004 
L 157.053666 59.492774 
L 157.077859 59.492774 
L 157.102017 58.444279 
L 157.270181 58.444279 
L 157.270181 57.920031 
L 157.507597 57.920031 
L 157.554689 56.871536 
L 157.625086 56.871536 
L 157.625086 56.347288 
L 157.765022 56.347288 
L 157.811415 54.774545 
L 158.064362 54.774545 
L 158.132707 52.153306 
L 158.514942 52.153306 
L 158.514942 51.629058 
L 159.233507 51.629058 
L 159.233507 50.580563 
L 160.126894 50.580563 
L 160.126894 50.056315 
L 160.368142 50.056315 
L 160.368142 49.00782 
L 161.243814 49.00782 
L 161.300635 47.435077 
L 161.563349 47.435077 
L 161.563349 46.910829 
L 161.674723 46.910829 
L 161.674723 44.813838 
L 161.858757 44.813838 
L 161.95004 43.765343 
L 162.470133 43.765343 
L 162.470133 42.716847 
L 162.715689 42.716847 
L 162.715689 42.192599 
L 163.264126 42.192599 
L 163.264126 41.668352 
L 164.594476 41.668352 
L 164.703413 40.619856 
L 165.04136 40.619856 
L 165.04136 40.095609 
L 165.313003 40.095609 
L 165.313003 39.571361 
L 165.595155 39.571361 
L 165.624588 38.522865 
L 166.789884 38.522865 
L 166.789884 37.998618 
L 168.822044 37.998618 
L 168.822044 37.47437 
L 169.806554 37.47437 
L 169.806554 36.950122 
L 170.103705 36.950122 
L 170.103705 36.425875 
L 171.5274 36.425875 
L 171.5274 35.901627 
L 171.91924 35.901627 
L 171.91924 35.377379 
L 172.754963 35.377379 
L 172.754963 34.853131 
L 174.224653 34.853131 
L 174.224653 34.328884 
L 175.504198 34.328884 
L 175.504198 33.804636 
L 175.985658 33.804636 
L 175.985658 33.280388 
L 177.361483 33.280388 
L 177.361483 32.756141 
L 177.960044 32.756141 
L 177.960044 32.231893 
L 178.559257 32.231893 
L 178.559257 31.707645 
L 178.676633 31.707645 
L 178.676633 31.183397 
L 181.288878 31.183397 
L 181.288878 30.65915 
L 182.220708 30.65915 
L 182.220708 30.134902 
L 183.284485 30.134902 
L 183.284485 29.610654 
L 184.010982 29.610654 
L 184.010982 29.086407 
L 184.181665 29.086407 
L 184.181665 28.562159 
L 184.414853 28.562159 
L 184.478797 27.513663 
L 333.168 27.513663 
L 333.168 27.513663 
" style="fill:none;stroke:#6495ed;stroke-linecap:square;stroke-width:1.5;"/>
   </g>
   <g id="line2d_59">
    <defs>
     <path d="M -0 6 
L 6 -6 
L -6 -6 
z
" id="me15bfa5fda" style="stroke:#6495ed;stroke-linejoin:miter;stroke-width:1.5;"/>
    </defs>
    <g>
     <use style="fill:none;stroke:#6495ed;stroke-linejoin:miter;stroke-width:1.5;" x="142.69832" xlink:href="#me15bfa5fda" y="252.940182"/>
     <use style="fill:none;stroke:#6495ed;stroke-linejoin:miter;stroke-width:1.5;" x="156.08258" xlink:href="#me15bfa5fda" y="75.220206"/>
     <use style="fill:none;stroke:#6495ed;stroke-linejoin:miter;stroke-width:1.5;" x="184.478797" xlink:href="#me15bfa5fda" y="28.037911"/>
     <use style="fill:none;stroke:#6495ed;stroke-linejoin:miter;stroke-width:1.5;" x="184.478797" xlink:href="#me15bfa5fda" y="27.513663"/>
     <use style="fill:none;stroke:#6495ed;stroke-linejoin:miter;stroke-width:1.5;" x="333.168" xlink:href="#me15bfa5fda" y="27.513663"/>
    </g>
   </g>
   <g id="line2d_60">
    <path style="fill:none;stroke:#6495ed;stroke-linecap:square;stroke-width:1.5;"/>
    <g/>
   </g>
   <g id="line2d_61">
    <path d="M 333.168 242.455228 
L 363.64328 289.532673 
" style="fill:none;stroke:#ff00ff;stroke-linecap:square;stroke-width:1.5;"/>
    <g>
     <use style="fill:none;stroke:#ff00ff;stroke-linejoin:miter;stroke-width:1.5;" x="333.168" xlink:href="#m6bc9642284" y="242.455228"/>
     <use style="fill:none;stroke:#ff00ff;stroke-linejoin:miter;stroke-width:1.5;" x="363.64328" xlink:href="#m6bc9642284" y="289.532673"/>
    </g>
   </g>
   <g id="line2d_62">
    <path d="M 333.168 27.513663 
L 363.64328 225.364752 
" style="fill:none;stroke:#ff7500;stroke-linecap:square;stroke-width:1.5;"/>
    <g>
     <use style="fill:none;stroke:#ff7500;stroke-linejoin:bevel;stroke-width:1.5;" x="333.168" xlink:href="#m739e663291" y="27.513663"/>
     <use style="fill:none;stroke:#ff7500;stroke-linejoin:bevel;stroke-width:1.5;" x="363.64328" xlink:href="#m739e663291" y="225.364752"/>
    </g>
   </g>
   <g id="line2d_63">
    <path d="M 333.168 27.513663 
L 363.64328 161.196832 
" style="fill:none;stroke:#6495ed;stroke-linecap:square;stroke-width:1.5;"/>
    <g>
     <use style="fill:none;stroke:#6495ed;stroke-linejoin:miter;stroke-width:1.5;" x="333.168" xlink:href="#me15bfa5fda" y="27.513663"/>
     <use style="fill:none;stroke:#6495ed;stroke-linejoin:miter;stroke-width:1.5;" x="363.64328" xlink:href="#me15bfa5fda" y="161.196832"/>
    </g>
   </g>
   <g id="line2d_64">
    <path d="M 333.168 27.513663 
L 363.64328 97.028911 
" style="fill:none;stroke:#000080;stroke-linecap:square;stroke-width:1.5;"/>
    <g>
     <use style="fill:none;stroke:#000080;stroke-width:1.5;" x="333.168" xlink:href="#m6b835bceb4" y="27.513663"/>
     <use style="fill:none;stroke:#000080;stroke-width:1.5;" x="363.64328" xlink:href="#m6b835bceb4" y="97.028911"/>
    </g>
   </g>
   <g id="line2d_65">
    <path d="M 333.168 294.88 
L 333.168 27.513663 
" style="fill:none;stroke:#000000;stroke-linecap:square;stroke-width:1.5;"/>
   </g>
   <g id="patch_3">
    <path d="M 56.12 294.88 
L 56.12 24.84 
" style="fill:none;stroke:#000000;stroke-linecap:square;stroke-linejoin:miter;stroke-width:0.8;"/>
   </g>
   <g id="patch_4">
    <path d="M 333.168 294.88 
L 333.168 24.84 
" style="fill:none;stroke:#000000;stroke-linecap:square;stroke-linejoin:miter;stroke-width:0.8;"/>
   </g>
   <g id="patch_5">
    <path d="M 56.12 294.88 
L 333.168 294.88 
" style="fill:none;stroke:#000000;stroke-linecap:square;stroke-linejoin:miter;stroke-width:0.8;"/>
   </g>
   <g id="patch_6">
    <path d="M 56.12 24.84 
L 333.168 24.84 
" style="fill:none;stroke:#000000;stroke-linecap:square;stroke-linejoin:miter;stroke-width:0.8;"/>
   </g>
   <g id="text_13">
    <!-- CMA ES PPM -->
    <defs>
     <path d="M 64.40625 67.28125 
L 64.40625 56.890625 
Q 59.421875 61.53125 53.78125 63.8125 
Q 48.140625 66.109375 41.796875 66.109375 
Q 29.296875 66.109375 22.65625 58.46875 
Q 16.015625 50.828125 16.015625 36.375 
Q 16.015625 21.96875 22.65625 14.328125 
Q 29.296875 6.6875 41.796875 6.6875 
Q 48.140625 6.6875 53.78125 8.984375 
Q 59.421875 11.28125 64.40625 15.921875 
L 64.40625 5.609375 
Q 59.234375 2.09375 53.4375 0.328125 
Q 47.65625 -1.421875 41.21875 -1.421875 
Q 24.65625 -1.421875 15.125 8.703125 
Q 5.609375 18.84375 5.609375 36.375 
Q 5.609375 53.953125 15.125 64.078125 
Q 24.65625 74.21875 41.21875 74.21875 
Q 47.75 74.21875 53.53125 72.484375 
Q 59.328125 70.75 64.40625 67.28125 
z
" id="DejaVuSans-43"/>
     <path d="M 9.8125 72.90625 
L 24.515625 72.90625 
L 43.109375 23.296875 
L 61.8125 72.90625 
L 76.515625 72.90625 
L 76.515625 0 
L 66.890625 0 
L 66.890625 64.015625 
L 48.09375 14.015625 
L 38.1875 14.015625 
L 19.390625 64.015625 
L 19.390625 0 
L 9.8125 0 
z
" id="DejaVuSans-4d"/>
     <path d="M 34.1875 63.1875 
L 20.796875 26.90625 
L 47.609375 26.90625 
z
M 28.609375 72.90625 
L 39.796875 72.90625 
L 67.578125 0 
L 57.328125 0 
L 50.6875 18.703125 
L 17.828125 18.703125 
L 11.1875 0 
L 0.78125 0 
z
" id="DejaVuSans-41"/>
     <path d="M 9.8125 72.90625 
L 55.90625 72.90625 
L 55.90625 64.59375 
L 19.671875 64.59375 
L 19.671875 43.015625 
L 54.390625 43.015625 
L 54.390625 34.71875 
L 19.671875 34.71875 
L 19.671875 8.296875 
L 56.78125 8.296875 
L 56.78125 0 
L 9.8125 0 
z
" id="DejaVuSans-45"/>
     <path d="M 53.515625 70.515625 
L 53.515625 60.890625 
Q 47.90625 63.578125 42.921875 64.890625 
Q 37.9375 66.21875 33.296875 66.21875 
Q 25.25 66.21875 20.875 63.09375 
Q 16.5 59.96875 16.5 54.203125 
Q 16.5 49.359375 19.40625 46.890625 
Q 22.3125 44.4375 30.421875 42.921875 
L 36.375 41.703125 
Q 47.40625 39.59375 52.65625 34.296875 
Q 57.90625 29 57.90625 20.125 
Q 57.90625 9.515625 50.796875 4.046875 
Q 43.703125 -1.421875 29.984375 -1.421875 
Q 24.8125 -1.421875 18.96875 -0.25 
Q 13.140625 0.921875 6.890625 3.21875 
L 6.890625 13.375 
Q 12.890625 10.015625 18.65625 8.296875 
Q 24.421875 6.59375 29.984375 6.59375 
Q 38.421875 6.59375 43.015625 9.90625 
Q 47.609375 13.234375 47.609375 19.390625 
Q 47.609375 24.75 44.3125 27.78125 
Q 41.015625 30.8125 33.5 32.328125 
L 27.484375 33.5 
Q 16.453125 35.6875 11.515625 40.375 
Q 6.59375 45.0625 6.59375 53.421875 
Q 6.59375 63.09375 13.40625 68.65625 
Q 20.21875 74.21875 32.171875 74.21875 
Q 37.3125 74.21875 42.625 73.28125 
Q 47.953125 72.359375 53.515625 70.515625 
z
" id="DejaVuSans-53"/>
     <path d="M 19.671875 64.796875 
L 19.671875 37.40625 
L 32.078125 37.40625 
Q 38.96875 37.40625 42.71875 40.96875 
Q 46.484375 44.53125 46.484375 51.125 
Q 46.484375 57.671875 42.71875 61.234375 
Q 38.96875 64.796875 32.078125 64.796875 
z
M 9.8125 72.90625 
L 32.078125 72.90625 
Q 44.34375 72.90625 50.609375 67.359375 
Q 56.890625 61.8125 56.890625 51.125 
Q 56.890625 40.328125 50.609375 34.8125 
Q 44.34375 29.296875 32.078125 29.296875 
L 19.671875 29.296875 
L 19.671875 0 
L 9.8125 0 
z
" id="DejaVuSans-50"/>
    </defs>
    <g transform="translate(369.18424 294.223611)scale(0.17 -0.17)">
     <use xlink:href="#DejaVuSans-43"/>
     <use x="69.824219" xlink:href="#DejaVuSans-4d"/>
     <use x="156.103516" xlink:href="#DejaVuSans-41"/>
     <use x="224.511719" xlink:href="#DejaVuSans-20"/>
     <use x="256.298828" xlink:href="#DejaVuSans-45"/>
     <use x="319.482422" xlink:href="#DejaVuSans-53"/>
     <use x="382.958984" xlink:href="#DejaVuSans-20"/>
     <use x="414.746094" xlink:href="#DejaVuSans-50"/>
     <use x="475.048828" xlink:href="#DejaVuSans-50"/>
     <use x="535.351562" xlink:href="#DejaVuSans-4d"/>
    </g>
   </g>
   <g id="text_14">
    <!-- CMA ES CSA -->
    <g transform="translate(369.18424 230.05569)scale(0.17 -0.17)">
     <use xlink:href="#DejaVuSans-43"/>
     <use x="69.824219" xlink:href="#DejaVuSans-4d"/>
     <use x="156.103516" xlink:href="#DejaVuSans-41"/>
     <use x="224.511719" xlink:href="#DejaVuSans-20"/>
     <use x="256.298828" xlink:href="#DejaVuSans-45"/>
     <use x="319.482422" xlink:href="#DejaVuSans-53"/>
     <use x="382.958984" xlink:href="#DejaVuSans-20"/>
     <use x="414.746094" xlink:href="#DejaVuSans-43"/>
     <use x="484.570312" xlink:href="#DejaVuSans-53"/>
     <use x="548.0625" xlink:href="#DejaVuSans-41"/>
    </g>
   </g>
   <g id="text_15">
    <!-- CMAES posi -->
    <g transform="translate(369.18424 165.887769)scale(0.17 -0.17)">
     <use xlink:href="#DejaVuSans-43"/>
     <use x="69.824219" xlink:href="#DejaVuSans-4d"/>
     <use x="156.103516" xlink:href="#DejaVuSans-41"/>
     <use x="224.511719" xlink:href="#DejaVuSans-45"/>
     <use x="287.695312" xlink:href="#DejaVuSans-53"/>
     <use x="351.171875" xlink:href="#DejaVuSans-20"/>
     <use x="382.958984" xlink:href="#DejaVuSans-70"/>
     <use x="446.435547" xlink:href="#DejaVuSans-6f"/>
     <use x="507.617188" xlink:href="#DejaVuSans-73"/>
     <use x="559.716797" xlink:href="#DejaVuSans-69"/>
    </g>
   </g>
   <g id="text_16">
    <!-- scipyAlg -->
    <defs>
     <path d="M 32.171875 -5.078125 
Q 28.375 -14.84375 24.75 -17.8125 
Q 21.140625 -20.796875 15.09375 -20.796875 
L 7.90625 -20.796875 
L 7.90625 -13.28125 
L 13.1875 -13.28125 
Q 16.890625 -13.28125 18.9375 -11.515625 
Q 21 -9.765625 23.484375 -3.21875 
L 25.09375 0.875 
L 2.984375 54.6875 
L 12.5 54.6875 
L 29.59375 11.921875 
L 46.6875 54.6875 
L 56.203125 54.6875 
z
" id="DejaVuSans-79"/>
    </defs>
    <g transform="translate(369.18424 101.719848)scale(0.17 -0.17)">
     <use xlink:href="#DejaVuSans-73"/>
     <use x="52.099609" xlink:href="#DejaVuSans-63"/>
     <use x="107.080078" xlink:href="#DejaVuSans-69"/>
     <use x="134.863281" xlink:href="#DejaVuSans-70"/>
     <use x="198.339844" xlink:href="#DejaVuSans-79"/>
     <use x="257.519531" xlink:href="#DejaVuSans-41"/>
     <use x="325.927734" xlink:href="#DejaVuSans-6c"/>
     <use x="353.710938" xlink:href="#DejaVuSans-67"/>
    </g>
   </g>
   <g id="text_17">
    <!-- best 2009 -->
    <defs>
     <path d="M 48.6875 27.296875 
Q 48.6875 37.203125 44.609375 42.84375 
Q 40.53125 48.484375 33.40625 48.484375 
Q 26.265625 48.484375 22.1875 42.84375 
Q 18.109375 37.203125 18.109375 27.296875 
Q 18.109375 17.390625 22.1875 11.75 
Q 26.265625 6.109375 33.40625 6.109375 
Q 40.53125 6.109375 44.609375 11.75 
Q 48.6875 17.390625 48.6875 27.296875 
z
M 18.109375 46.390625 
Q 20.953125 51.265625 25.265625 53.625 
Q 29.59375 56 35.59375 56 
Q 45.5625 56 51.78125 48.09375 
Q 58.015625 40.1875 58.015625 27.296875 
Q 58.015625 14.40625 51.78125 6.484375 
Q 45.5625 -1.421875 35.59375 -1.421875 
Q 29.59375 -1.421875 25.265625 0.953125 
Q 20.953125 3.328125 18.109375 8.203125 
L 18.109375 0 
L 9.078125 0 
L 9.078125 75.984375 
L 18.109375 75.984375 
z
" id="DejaVuSans-62"/>
     <path d="M 10.984375 1.515625 
L 10.984375 10.5 
Q 14.703125 8.734375 18.5 7.8125 
Q 22.3125 6.890625 25.984375 6.890625 
Q 35.75 6.890625 40.890625 13.453125 
Q 46.046875 20.015625 46.78125 33.40625 
Q 43.953125 29.203125 39.59375 26.953125 
Q 35.25 24.703125 29.984375 24.703125 
Q 19.046875 24.703125 12.671875 31.3125 
Q 6.296875 37.9375 6.296875 49.421875 
Q 6.296875 60.640625 12.9375 67.421875 
Q 19.578125 74.21875 30.609375 74.21875 
Q 43.265625 74.21875 49.921875 64.515625 
Q 56.59375 54.828125 56.59375 36.375 
Q 56.59375 19.140625 48.40625 8.859375 
Q 40.234375 -1.421875 26.421875 -1.421875 
Q 22.703125 -1.421875 18.890625 -0.6875 
Q 15.09375 0.046875 10.984375 1.515625 
z
M 30.609375 32.421875 
Q 37.25 32.421875 41.125 36.953125 
Q 45.015625 41.5 45.015625 49.421875 
Q 45.015625 57.28125 41.125 61.84375 
Q 37.25 66.40625 30.609375 66.40625 
Q 23.96875 66.40625 20.09375 61.84375 
Q 16.21875 57.28125 16.21875 49.421875 
Q 16.21875 41.5 20.09375 36.953125 
Q 23.96875 32.421875 30.609375 32.421875 
z
" id="DejaVuSans-39"/>
    </defs>
    <g transform="translate(369.18424 37.551928)scale(0.17 -0.17)">
     <use xlink:href="#DejaVuSans-62"/>
     <use x="63.476562" xlink:href="#DejaVuSans-65"/>
     <use x="125" xlink:href="#DejaVuSans-73"/>
     <use x="177.099609" xlink:href="#DejaVuSans-74"/>
     <use x="216.308594" xlink:href="#DejaVuSans-20"/>
     <use x="248.095703" xlink:href="#DejaVuSans-32"/>
     <use x="311.71875" xlink:href="#DejaVuSans-30"/>
     <use x="375.341797" xlink:href="#DejaVuSans-30"/>
     <use x="438.964844" xlink:href="#DejaVuSans-39"/>
    </g>
   </g>
   <g id="text_18">
    <!-- bbob f12, 2-D -->
    <defs>
     <path d="M 19.671875 64.796875 
L 19.671875 8.109375 
L 31.59375 8.109375 
Q 46.6875 8.109375 53.6875 14.9375 
Q 60.6875 21.78125 60.6875 36.53125 
Q 60.6875 51.171875 53.6875 57.984375 
Q 46.6875 64.796875 31.59375 64.796875 
z
M 9.8125 72.90625 
L 30.078125 72.90625 
Q 51.265625 72.90625 61.171875 64.09375 
Q 71.09375 55.28125 71.09375 36.53125 
Q 71.09375 17.671875 61.125 8.828125 
Q 51.171875 0 30.078125 0 
L 9.8125 0 
z
" id="DejaVuSans-44"/>
    </defs>
    <g transform="translate(58.89048 35.290806)scale(0.102 -0.102)">
     <use xlink:href="#DejaVuSans-62"/>
     <use x="63.476562" xlink:href="#DejaVuSans-62"/>
     <use x="126.953125" xlink:href="#DejaVuSans-6f"/>
     <use x="188.134766" xlink:href="#DejaVuSans-62"/>
     <use x="251.611328" xlink:href="#DejaVuSans-20"/>
     <use x="283.398438" xlink:href="#DejaVuSans-66"/>
     <use x="318.603516" xlink:href="#DejaVuSans-31"/>
     <use x="382.226562" xlink:href="#DejaVuSans-32"/>
     <use x="445.849609" xlink:href="#DejaVuSans-2c"/>
     <use x="477.636719" xlink:href="#DejaVuSans-20"/>
     <use x="509.423828" xlink:href="#DejaVuSans-32"/>
     <use x="573.046875" xlink:href="#DejaVuSans-2d"/>
     <use x="609.130859" xlink:href="#DejaVuSans-44"/>
    </g>
    <!-- 51 targets: 100..1e-08 -->
    <defs>
     <path d="M 10.796875 72.90625 
L 49.515625 72.90625 
L 49.515625 64.59375 
L 19.828125 64.59375 
L 19.828125 46.734375 
Q 21.96875 47.46875 24.109375 47.828125 
Q 26.265625 48.1875 28.421875 48.1875 
Q 40.625 48.1875 47.75 41.5 
Q 54.890625 34.8125 54.890625 23.390625 
Q 54.890625 11.625 47.5625 5.09375 
Q 40.234375 -1.421875 26.90625 -1.421875 
Q 22.3125 -1.421875 17.546875 -0.640625 
Q 12.796875 0.140625 7.71875 1.703125 
L 7.71875 11.625 
Q 12.109375 9.234375 16.796875 8.0625 
Q 21.484375 6.890625 26.703125 6.890625 
Q 35.15625 6.890625 40.078125 11.328125 
Q 45.015625 15.765625 45.015625 23.390625 
Q 45.015625 31 40.078125 35.4375 
Q 35.15625 39.890625 26.703125 39.890625 
Q 22.75 39.890625 18.8125 39.015625 
Q 14.890625 38.140625 10.796875 36.28125 
z
" id="DejaVuSans-35"/>
     <path d="M 11.71875 12.40625 
L 22.015625 12.40625 
L 22.015625 0 
L 11.71875 0 
z
M 11.71875 51.703125 
L 22.015625 51.703125 
L 22.015625 39.3125 
L 11.71875 39.3125 
z
" id="DejaVuSans-3a"/>
    </defs>
    <g transform="translate(58.89048 46.712575)scale(0.102 -0.102)">
     <use xlink:href="#DejaVuSans-35"/>
     <use x="63.623047" xlink:href="#DejaVuSans-31"/>
     <use x="127.246094" xlink:href="#DejaVuSans-20"/>
     <use x="159.033203" xlink:href="#DejaVuSans-74"/>
     <use x="198.242188" xlink:href="#DejaVuSans-61"/>
     <use x="259.521484" xlink:href="#DejaVuSans-72"/>
     <use x="300.619141" xlink:href="#DejaVuSans-67"/>
     <use x="364.095703" xlink:href="#DejaVuSans-65"/>
     <use x="425.619141" xlink:href="#DejaVuSans-74"/>
     <use x="464.828125" xlink:href="#DejaVuSans-73"/>
     <use x="516.927734" xlink:href="#DejaVuSans-3a"/>
     <use x="550.619141" xlink:href="#DejaVuSans-20"/>
     <use x="582.40625" xlink:href="#DejaVuSans-31"/>
     <use x="646.029297" xlink:href="#DejaVuSans-30"/>
     <use x="709.652344" xlink:href="#DejaVuSans-30"/>
     <use x="773.275391" xlink:href="#DejaVuSans-2e"/>
     <use x="805.0625" xlink:href="#DejaVuSans-2e"/>
     <use x="836.849609" xlink:href="#DejaVuSans-31"/>
     <use x="900.472656" xlink:href="#DejaVuSans-65"/>
     <use x="961.996094" xlink:href="#DejaVuSans-2d"/>
     <use x="998.080078" xlink:href="#DejaVuSans-30"/>
     <use x="1061.703125" xlink:href="#DejaVuSans-38"/>
    </g>
    <!-- 15 instances -->
    <g transform="translate(58.89048 58.134344)scale(0.102 -0.102)">
     <use xlink:href="#DejaVuSans-31"/>
     <use x="63.623047" xlink:href="#DejaVuSans-35"/>
     <use x="127.246094" xlink:href="#DejaVuSans-20"/>
     <use x="159.033203" xlink:href="#DejaVuSans-69"/>
     <use x="186.816406" xlink:href="#DejaVuSans-6e"/>
     <use x="250.195312" xlink:href="#DejaVuSans-73"/>
     <use x="302.294922" xlink:href="#DejaVuSans-74"/>
     <use x="341.503906" xlink:href="#DejaVuSans-61"/>
     <use x="402.783203" xlink:href="#DejaVuSans-6e"/>
     <use x="466.162109" xlink:href="#DejaVuSans-63"/>
     <use x="521.142578" xlink:href="#DejaVuSans-65"/>
     <use x="582.666016" xlink:href="#DejaVuSans-73"/>
    </g>
   </g>
   <g id="text_19">
    <!-- v0.0.0 -->
    <g style="fill:#808080;" transform="translate(178.96275 290.099912)scale(0.1 -0.1)">
     <use xlink:href="#DejaVuSans-76"/>
     <use x="59.179688" xlink:href="#DejaVuSans-30"/>
     <use x="122.802734" xlink:href="#DejaVuSans-2e"/>
     <use x="154.589844" xlink:href="#DejaVuSans-30"/>
     <use x="218.212891" xlink:href="#DejaVuSans-2e"/>
     <use x="250" xlink:href="#DejaVuSans-30"/>
    </g>
   </g>
   <g id="text_20">
    <!-- 12 Bent cigar -->
    <defs>
     <path d="M 19.671875 34.8125 
L 19.671875 8.109375 
L 35.5 8.109375 
Q 43.453125 8.109375 47.28125 11.40625 
Q 51.125 14.703125 51.125 21.484375 
Q 51.125 28.328125 47.28125 31.5625 
Q 43.453125 34.8125 35.5 34.8125 
z
M 19.671875 64.796875 
L 19.671875 42.828125 
L 34.28125 42.828125 
Q 41.5 42.828125 45.03125 45.53125 
Q 48.578125 48.25 48.578125 53.8125 
Q 48.578125 59.328125 45.03125 62.0625 
Q 41.5 64.796875 34.28125 64.796875 
z
M 9.8125 72.90625 
L 35.015625 72.90625 
Q 46.296875 72.90625 52.390625 68.21875 
Q 58.5 63.53125 58.5 54.890625 
Q 58.5 48.1875 55.375 44.234375 
Q 52.25 40.28125 46.1875 39.3125 
Q 53.46875 37.75 57.5 32.78125 
Q 61.53125 27.828125 61.53125 20.40625 
Q 61.53125 10.640625 54.890625 5.3125 
Q 48.25 0 35.984375 0 
L 9.8125 0 
z
" id="DejaVuSans-42"/>
    </defs>
    <g transform="translate(127.426812 18.84)scale(0.2 -0.2)">
     <use xlink:href="#DejaVuSans-31"/>
     <use x="63.623047" xlink:href="#DejaVuSans-32"/>
     <use x="127.246094" xlink:href="#DejaVuSans-20"/>
     <use x="159.033203" xlink:href="#DejaVuSans-42"/>
     <use x="227.636719" xlink:href="#DejaVuSans-65"/>
     <use x="289.160156" xlink:href="#DejaVuSans-6e"/>
     <use x="352.539062" xlink:href="#DejaVuSans-74"/>
     <use x="391.748047" xlink:href="#DejaVuSans-20"/>
     <use x="423.535156" xlink:href="#DejaVuSans-63"/>
     <use x="478.515625" xlink:href="#DejaVuSans-69"/>
     <use x="506.298828" xlink:href="#DejaVuSans-67"/>
     <use x="569.775391" xlink:href="#DejaVuSans-61"/>
     <use x="631.054688" xlink:href="#DejaVuSans-72"/>
    </g>
   </g>
  </g>
 </g>
 <defs>
  <clipPath id="pb68d404e02">
   <rect height="270.04" width="277.048" x="56.12" y="24.84"/>
  </clipPath>
 </defs>
</svg>
