<?xml version="1.0" encoding="utf-8" standalone="no"?>
<!DOCTYPE svg PUBLIC "-//W3C//DTD SVG 1.1//EN"
  "http://www.w3.org/Graphics/SVG/1.1/DTD/svg11.dtd">
<!-- Created with matplotlib (http://matplotlib.org/) -->
<svg height="345pt" version="1.1" viewBox="0 0 460 345" width="460pt" xmlns="http://www.w3.org/2000/svg" xmlns:xlink="http://www.w3.org/1999/xlink">
 <defs>
  <style type="text/css">
*{stroke-linecap:butt;stroke-linejoin:round;}
  </style>
 </defs>
 <g id="figure_1">
  <g id="patch_1">
   <path d="M 0 345.6 
L 460.8 345.6 
L 460.8 0 
L 0 0 
z
" style="fill:#ffffff;"/>
  </g>
  <g id="axes_1">
   <g id="patch_2">
    <path d="M 56.12 294.88 
L 333.168 294.88 
L 333.168 24.84 
L 56.12 24.84 
z
" style="fill:#ffffff;"/>
   </g>
   <g id="line2d_1">
    <path d="M -1 289.637523 
L 23.511104 289.637523 
L 23.511104 284.395046 
L 74.568463 284.395046 
L 74.568463 279.152568 
L 90.580673 279.152568 
L 90.580673 273.910091 
L 135.319489 273.910091 
L 135.319489 268.667614 
L 139.931084 268.667614 
L 139.931084 263.425137 
L 153.380775 263.425137 
L 153.380775 258.18266 
L 163.000661 258.18266 
L 163.000661 252.940182 
L 171.892202 252.940182 
L 171.892202 247.697705 
L 179.937 247.697705 
L 179.937 242.455228 
L 184.987206 242.455228 
L 184.987206 237.212751 
L 192.949766 237.212751 
L 192.949766 231.970274 
L 196.255892 231.970274 
L 196.255892 226.727797 
L 201.741762 226.727797 
L 201.741762 221.485319 
L 208.197341 221.485319 
L 208.197341 216.242842 
L 210.676283 216.242842 
L 210.676283 211.000365 
L 215.579629 211.000365 
L 215.579629 205.757888 
L 219.343474 205.757888 
L 219.343474 200.515411 
L 223.976499 200.515411 
L 223.976499 195.272933 
L 224.234773 195.272933 
L 224.234773 190.030456 
L 224.316601 190.030456 
L 224.316601 184.787979 
L 227.718842 184.787979 
L 227.718842 179.545502 
L 228.384791 179.545502 
L 228.384791 174.303025 
L 232.465914 174.303025 
L 232.465914 169.060547 
L 234.474884 169.060547 
L 234.474884 163.81807 
L 236.050723 163.81807 
L 236.050723 158.575593 
L 236.221673 158.575593 
L 236.221673 153.333116 
L 240.311356 153.333116 
L 240.311356 148.090639 
L 240.393146 148.090639 
L 240.393146 142.848162 
L 240.510845 142.848162 
L 240.510845 137.605684 
L 241.838677 137.605684 
L 241.838677 132.363207 
L 241.869691 132.363207 
L 241.869691 127.12073 
L 241.905482 127.12073 
L 241.905482 121.878253 
L 241.938102 121.878253 
L 241.938102 116.635776 
L 241.968089 116.635776 
L 241.968089 111.393298 
L 241.996156 111.393298 
L 241.996156 106.150821 
L 242.029458 106.150821 
L 242.029458 100.908344 
L 242.056349 100.908344 
L 242.056349 95.665867 
L 242.088168 95.665867 
L 242.088168 90.42339 
L 242.116023 90.42339 
L 242.116023 85.180912 
L 242.145041 85.180912 
L 242.145041 79.938435 
L 242.174755 79.938435 
L 242.174755 74.695958 
L 242.197182 74.695958 
L 242.197182 69.453481 
L 242.230183 69.453481 
L 242.230183 64.211004 
L 242.257766 64.211004 
L 242.257766 58.968526 
L 242.281955 58.968526 
L 242.281955 53.726049 
L 242.307198 53.726049 
L 242.307198 48.483572 
L 242.330342 48.483572 
L 242.330342 43.241095 
L 242.351483 43.241095 
L 242.351483 37.998618 
L 242.375558 37.998618 
L 242.375558 32.756141 
L 242.396551 32.756141 
L 242.396551 27.513663 
L 333.168 27.513663 
" style="fill:none;stroke:#f5deb3;stroke-linecap:square;stroke-width:4;"/>
   </g>
   <g id="line2d_2">
    <defs>
     <path d="M -0 7.778175 
L 7.778175 0 
L 0 -7.778175 
L -7.778175 -0 
z
" id="m81479febe6" style="stroke:#f5deb3;stroke-linejoin:miter;stroke-width:1.5;"/>
    </defs>
    <g>
     <use style="fill:#f5deb3;stroke:#f5deb3;stroke-linejoin:miter;stroke-width:1.5;" x="139.931084" xlink:href="#m81479febe6" y="268.667614"/>
     <use style="fill:#f5deb3;stroke:#f5deb3;stroke-linejoin:miter;stroke-width:1.5;" x="219.343474" xlink:href="#m81479febe6" y="200.515411"/>
     <use style="fill:#f5deb3;stroke:#f5deb3;stroke-linejoin:miter;stroke-width:1.5;" x="242.056349" xlink:href="#m81479febe6" y="100.908344"/>
     <use style="fill:#f5deb3;stroke:#f5deb3;stroke-linejoin:miter;stroke-width:1.5;" x="242.396551" xlink:href="#m81479febe6" y="27.513663"/>
     <use style="fill:#f5deb3;stroke:#f5deb3;stroke-linejoin:miter;stroke-width:1.5;" x="242.396551" xlink:href="#m81479febe6" y="27.513663"/>
     <use style="fill:#f5deb3;stroke:#f5deb3;stroke-linejoin:miter;stroke-width:1.5;" x="333.168" xlink:href="#m81479febe6" y="27.513663"/>
    </g>
   </g>
   <g id="line2d_3">
    <path style="fill:none;stroke:#f5deb3;stroke-linecap:square;stroke-width:4;"/>
    <g/>
   </g>
   <g id="line2d_4">
    <path d="M 333.168 27.513663 
L 363.64328 32.86099 
" style="fill:none;stroke:#f5deb3;stroke-linecap:square;stroke-width:4;"/>
    <g>
     <use style="fill:#f5deb3;stroke:#f5deb3;stroke-linejoin:miter;stroke-width:1.5;" x="333.168" xlink:href="#m81479febe6" y="27.513663"/>
     <use style="fill:#f5deb3;stroke:#f5deb3;stroke-linejoin:miter;stroke-width:1.5;" x="363.64328" xlink:href="#m81479febe6" y="32.86099"/>
    </g>
   </g>
   <g id="matplotlib.axis_1">
    <g id="xtick_1">
     <g id="line2d_5">
      <path clip-path="url(#pff80c31112)" d="M 56.12 294.88 
L 56.12 24.84 
" style="fill:none;stroke:#b0b0b0;stroke-linecap:square;stroke-width:0.8;"/>
     </g>
     <g id="line2d_6">
      <defs>
       <path d="M 0 0 
L 0 3.5 
" id="m2405943a12" style="stroke:#000000;stroke-width:0.8;"/>
      </defs>
      <g>
       <use style="stroke:#000000;stroke-width:0.8;" x="56.12" xlink:href="#m2405943a12" y="294.88"/>
      </g>
     </g>
     <g id="text_1">
      <!-- 0 -->
      <defs>
       <path d="M 31.78125 66.40625 
Q 24.171875 66.40625 20.328125 58.90625 
Q 16.5 51.421875 16.5 36.375 
Q 16.5 21.390625 20.328125 13.890625 
Q 24.171875 6.390625 31.78125 6.390625 
Q 39.453125 6.390625 43.28125 13.890625 
Q 47.125 21.390625 47.125 36.375 
Q 47.125 51.421875 43.28125 58.90625 
Q 39.453125 66.40625 31.78125 66.40625 
z
M 31.78125 74.21875 
Q 44.046875 74.21875 50.515625 64.515625 
Q 56.984375 54.828125 56.984375 36.375 
Q 56.984375 17.96875 50.515625 8.265625 
Q 44.046875 -1.421875 31.78125 -1.421875 
Q 19.53125 -1.421875 13.0625 8.265625 
Q 6.59375 17.96875 6.59375 36.375 
Q 6.59375 54.828125 13.0625 64.515625 
Q 19.53125 74.21875 31.78125 74.21875 
z
" id="DejaVuSans-30"/>
      </defs>
      <g transform="translate(49.7575 317.076875)scale(0.2 -0.2)">
       <use xlink:href="#DejaVuSans-30"/>
      </g>
     </g>
    </g>
    <g id="xtick_2">
     <g id="line2d_7">
      <path clip-path="url(#pff80c31112)" d="M 135.276571 294.88 
L 135.276571 24.84 
" style="fill:none;stroke:#b0b0b0;stroke-linecap:square;stroke-width:0.8;"/>
     </g>
     <g id="line2d_8">
      <g>
       <use style="stroke:#000000;stroke-width:0.8;" x="135.276571" xlink:href="#m2405943a12" y="294.88"/>
      </g>
     </g>
     <g id="text_2">
      <!-- 2 -->
      <defs>
       <path d="M 19.1875 8.296875 
L 53.609375 8.296875 
L 53.609375 0 
L 7.328125 0 
L 7.328125 8.296875 
Q 12.9375 14.109375 22.625 23.890625 
Q 32.328125 33.6875 34.8125 36.53125 
Q 39.546875 41.84375 41.421875 45.53125 
Q 43.3125 49.21875 43.3125 52.78125 
Q 43.3125 58.59375 39.234375 62.25 
Q 35.15625 65.921875 28.609375 65.921875 
Q 23.96875 65.921875 18.8125 64.3125 
Q 13.671875 62.703125 7.8125 59.421875 
L 7.8125 69.390625 
Q 13.765625 71.78125 18.9375 73 
Q 24.125 74.21875 28.421875 74.21875 
Q 39.75 74.21875 46.484375 68.546875 
Q 53.21875 62.890625 53.21875 53.421875 
Q 53.21875 48.921875 51.53125 44.890625 
Q 49.859375 40.875 45.40625 35.40625 
Q 44.1875 33.984375 37.640625 27.21875 
Q 31.109375 20.453125 19.1875 8.296875 
z
" id="DejaVuSans-32"/>
      </defs>
      <g transform="translate(128.914071 317.076875)scale(0.2 -0.2)">
       <use xlink:href="#DejaVuSans-32"/>
      </g>
     </g>
    </g>
    <g id="xtick_3">
     <g id="line2d_9">
      <path clip-path="url(#pff80c31112)" d="M 214.433143 294.88 
L 214.433143 24.84 
" style="fill:none;stroke:#b0b0b0;stroke-linecap:square;stroke-width:0.8;"/>
     </g>
     <g id="line2d_10">
      <g>
       <use style="stroke:#000000;stroke-width:0.8;" x="214.433143" xlink:href="#m2405943a12" y="294.88"/>
      </g>
     </g>
     <g id="text_3">
      <!-- 4 -->
      <defs>
       <path d="M 37.796875 64.3125 
L 12.890625 25.390625 
L 37.796875 25.390625 
z
M 35.203125 72.90625 
L 47.609375 72.90625 
L 47.609375 25.390625 
L 58.015625 25.390625 
L 58.015625 17.1875 
L 47.609375 17.1875 
L 47.609375 0 
L 37.796875 0 
L 37.796875 17.1875 
L 4.890625 17.1875 
L 4.890625 26.703125 
z
" id="DejaVuSans-34"/>
      </defs>
      <g transform="translate(208.070643 317.076875)scale(0.2 -0.2)">
       <use xlink:href="#DejaVuSans-34"/>
      </g>
     </g>
    </g>
    <g id="xtick_4">
     <g id="line2d_11">
      <path clip-path="url(#pff80c31112)" d="M 293.589714 294.88 
L 293.589714 24.84 
" style="fill:none;stroke:#b0b0b0;stroke-linecap:square;stroke-width:0.8;"/>
     </g>
     <g id="line2d_12">
      <g>
       <use style="stroke:#000000;stroke-width:0.8;" x="293.589714" xlink:href="#m2405943a12" y="294.88"/>
      </g>
     </g>
     <g id="text_4">
      <!-- 6 -->
      <defs>
       <path d="M 33.015625 40.375 
Q 26.375 40.375 22.484375 35.828125 
Q 18.609375 31.296875 18.609375 23.390625 
Q 18.609375 15.53125 22.484375 10.953125 
Q 26.375 6.390625 33.015625 6.390625 
Q 39.65625 6.390625 43.53125 10.953125 
Q 47.40625 15.53125 47.40625 23.390625 
Q 47.40625 31.296875 43.53125 35.828125 
Q 39.65625 40.375 33.015625 40.375 
z
M 52.59375 71.296875 
L 52.59375 62.3125 
Q 48.875 64.0625 45.09375 64.984375 
Q 41.3125 65.921875 37.59375 65.921875 
Q 27.828125 65.921875 22.671875 59.328125 
Q 17.53125 52.734375 16.796875 39.40625 
Q 19.671875 43.65625 24.015625 45.921875 
Q 28.375 48.1875 33.59375 48.1875 
Q 44.578125 48.1875 50.953125 41.515625 
Q 57.328125 34.859375 57.328125 23.390625 
Q 57.328125 12.15625 50.6875 5.359375 
Q 44.046875 -1.421875 33.015625 -1.421875 
Q 20.359375 -1.421875 13.671875 8.265625 
Q 6.984375 17.96875 6.984375 36.375 
Q 6.984375 53.65625 15.1875 63.9375 
Q 23.390625 74.21875 37.203125 74.21875 
Q 40.921875 74.21875 44.703125 73.484375 
Q 48.484375 72.75 52.59375 71.296875 
z
" id="DejaVuSans-36"/>
      </defs>
      <g transform="translate(287.227214 317.076875)scale(0.2 -0.2)">
       <use xlink:href="#DejaVuSans-36"/>
      </g>
     </g>
    </g>
    <g id="xtick_5">
     <g id="line2d_13">
      <path clip-path="url(#pff80c31112)" d="M 56.12 294.88 
L 56.12 24.84 
" style="fill:none;stroke:#b0b0b0;stroke-linecap:square;stroke-width:0.8;"/>
     </g>
     <g id="line2d_14">
      <defs>
       <path d="M 0 0 
L 0 2 
" id="mc3c344af47" style="stroke:#000000;stroke-width:0.6;"/>
      </defs>
      <g>
       <use style="stroke:#000000;stroke-width:0.6;" x="56.12" xlink:href="#mc3c344af47" y="294.88"/>
      </g>
     </g>
    </g>
    <g id="xtick_6">
     <g id="line2d_15">
      <path clip-path="url(#pff80c31112)" d="M 95.698286 294.88 
L 95.698286 24.84 
" style="fill:none;stroke:#b0b0b0;stroke-linecap:square;stroke-width:0.8;"/>
     </g>
     <g id="line2d_16">
      <g>
       <use style="stroke:#000000;stroke-width:0.6;" x="95.698286" xlink:href="#mc3c344af47" y="294.88"/>
      </g>
     </g>
    </g>
    <g id="xtick_7">
     <g id="line2d_17">
      <path clip-path="url(#pff80c31112)" d="M 135.276571 294.88 
L 135.276571 24.84 
" style="fill:none;stroke:#b0b0b0;stroke-linecap:square;stroke-width:0.8;"/>
     </g>
     <g id="line2d_18">
      <g>
       <use style="stroke:#000000;stroke-width:0.6;" x="135.276571" xlink:href="#mc3c344af47" y="294.88"/>
      </g>
     </g>
    </g>
    <g id="xtick_8">
     <g id="line2d_19">
      <path clip-path="url(#pff80c31112)" d="M 174.854857 294.88 
L 174.854857 24.84 
" style="fill:none;stroke:#b0b0b0;stroke-linecap:square;stroke-width:0.8;"/>
     </g>
     <g id="line2d_20">
      <g>
       <use style="stroke:#000000;stroke-width:0.6;" x="174.854857" xlink:href="#mc3c344af47" y="294.88"/>
      </g>
     </g>
    </g>
    <g id="xtick_9">
     <g id="line2d_21">
      <path clip-path="url(#pff80c31112)" d="M 214.433143 294.88 
L 214.433143 24.84 
" style="fill:none;stroke:#b0b0b0;stroke-linecap:square;stroke-width:0.8;"/>
     </g>
     <g id="line2d_22">
      <g>
       <use style="stroke:#000000;stroke-width:0.6;" x="214.433143" xlink:href="#mc3c344af47" y="294.88"/>
      </g>
     </g>
    </g>
    <g id="xtick_10">
     <g id="line2d_23">
      <path clip-path="url(#pff80c31112)" d="M 254.011429 294.88 
L 254.011429 24.84 
" style="fill:none;stroke:#b0b0b0;stroke-linecap:square;stroke-width:0.8;"/>
     </g>
     <g id="line2d_24">
      <g>
       <use style="stroke:#000000;stroke-width:0.6;" x="254.011429" xlink:href="#mc3c344af47" y="294.88"/>
      </g>
     </g>
    </g>
    <g id="xtick_11">
     <g id="line2d_25">
      <path clip-path="url(#pff80c31112)" d="M 293.589714 294.88 
L 293.589714 24.84 
" style="fill:none;stroke:#b0b0b0;stroke-linecap:square;stroke-width:0.8;"/>
     </g>
     <g id="line2d_26">
      <g>
       <use style="stroke:#000000;stroke-width:0.6;" x="293.589714" xlink:href="#mc3c344af47" y="294.88"/>
      </g>
     </g>
    </g>
    <g id="xtick_12">
     <g id="line2d_27">
      <path clip-path="url(#pff80c31112)" d="M 333.168 294.88 
L 333.168 24.84 
" style="fill:none;stroke:#b0b0b0;stroke-linecap:square;stroke-width:0.8;"/>
     </g>
     <g id="line2d_28">
      <g>
       <use style="stroke:#000000;stroke-width:0.6;" x="333.168" xlink:href="#mc3c344af47" y="294.88"/>
      </g>
     </g>
    </g>
    <g id="text_5">
     <!-- log10(# f-evals / dimension) -->
     <defs>
      <path d="M 9.421875 75.984375 
L 18.40625 75.984375 
L 18.40625 0 
L 9.421875 0 
z
" id="DejaVuSans-6c"/>
      <path d="M 30.609375 48.390625 
Q 23.390625 48.390625 19.1875 42.75 
Q 14.984375 37.109375 14.984375 27.296875 
Q 14.984375 17.484375 19.15625 11.84375 
Q 23.34375 6.203125 30.609375 6.203125 
Q 37.796875 6.203125 41.984375 11.859375 
Q 46.1875 17.53125 46.1875 27.296875 
Q 46.1875 37.015625 41.984375 42.703125 
Q 37.796875 48.390625 30.609375 48.390625 
z
M 30.609375 56 
Q 42.328125 56 49.015625 48.375 
Q 55.71875 40.765625 55.71875 27.296875 
Q 55.71875 13.875 49.015625 6.21875 
Q 42.328125 -1.421875 30.609375 -1.421875 
Q 18.84375 -1.421875 12.171875 6.21875 
Q 5.515625 13.875 5.515625 27.296875 
Q 5.515625 40.765625 12.171875 48.375 
Q 18.84375 56 30.609375 56 
z
" id="DejaVuSans-6f"/>
      <path d="M 45.40625 27.984375 
Q 45.40625 37.75 41.375 43.109375 
Q 37.359375 48.484375 30.078125 48.484375 
Q 22.859375 48.484375 18.828125 43.109375 
Q 14.796875 37.75 14.796875 27.984375 
Q 14.796875 18.265625 18.828125 12.890625 
Q 22.859375 7.515625 30.078125 7.515625 
Q 37.359375 7.515625 41.375 12.890625 
Q 45.40625 18.265625 45.40625 27.984375 
z
M 54.390625 6.78125 
Q 54.390625 -7.171875 48.1875 -13.984375 
Q 42 -20.796875 29.203125 -20.796875 
Q 24.46875 -20.796875 20.265625 -20.09375 
Q 16.0625 -19.390625 12.109375 -17.921875 
L 12.109375 -9.1875 
Q 16.0625 -11.328125 19.921875 -12.34375 
Q 23.78125 -13.375 27.78125 -13.375 
Q 36.625 -13.375 41.015625 -8.765625 
Q 45.40625 -4.15625 45.40625 5.171875 
L 45.40625 9.625 
Q 42.625 4.78125 38.28125 2.390625 
Q 33.9375 0 27.875 0 
Q 17.828125 0 11.671875 7.65625 
Q 5.515625 15.328125 5.515625 27.984375 
Q 5.515625 40.671875 11.671875 48.328125 
Q 17.828125 56 27.875 56 
Q 33.9375 56 38.28125 53.609375 
Q 42.625 51.21875 45.40625 46.390625 
L 45.40625 54.6875 
L 54.390625 54.6875 
z
" id="DejaVuSans-67"/>
      <path d="M 12.40625 8.296875 
L 28.515625 8.296875 
L 28.515625 63.921875 
L 10.984375 60.40625 
L 10.984375 69.390625 
L 28.421875 72.90625 
L 38.28125 72.90625 
L 38.28125 8.296875 
L 54.390625 8.296875 
L 54.390625 0 
L 12.40625 0 
z
" id="DejaVuSans-31"/>
      <path d="M 31 75.875 
Q 24.46875 64.65625 21.28125 53.65625 
Q 18.109375 42.671875 18.109375 31.390625 
Q 18.109375 20.125 21.3125 9.0625 
Q 24.515625 -2 31 -13.1875 
L 23.1875 -13.1875 
Q 15.875 -1.703125 12.234375 9.375 
Q 8.59375 20.453125 8.59375 31.390625 
Q 8.59375 42.28125 12.203125 53.3125 
Q 15.828125 64.359375 23.1875 75.875 
z
" id="DejaVuSans-28"/>
      <path d="M 51.125 44 
L 36.921875 44 
L 32.8125 27.6875 
L 47.125 27.6875 
z
M 43.796875 71.78125 
L 38.71875 51.515625 
L 52.984375 51.515625 
L 58.109375 71.78125 
L 65.921875 71.78125 
L 60.890625 51.515625 
L 76.125 51.515625 
L 76.125 44 
L 58.984375 44 
L 54.984375 27.6875 
L 70.515625 27.6875 
L 70.515625 20.21875 
L 53.078125 20.21875 
L 48 0 
L 40.1875 0 
L 45.21875 20.21875 
L 30.90625 20.21875 
L 25.875 0 
L 18.015625 0 
L 23.09375 20.21875 
L 7.71875 20.21875 
L 7.71875 27.6875 
L 24.90625 27.6875 
L 29 44 
L 13.28125 44 
L 13.28125 51.515625 
L 30.90625 51.515625 
L 35.890625 71.78125 
z
" id="DejaVuSans-23"/>
      <path id="DejaVuSans-20"/>
      <path d="M 37.109375 75.984375 
L 37.109375 68.5 
L 28.515625 68.5 
Q 23.6875 68.5 21.796875 66.546875 
Q 19.921875 64.59375 19.921875 59.515625 
L 19.921875 54.6875 
L 34.71875 54.6875 
L 34.71875 47.703125 
L 19.921875 47.703125 
L 19.921875 0 
L 10.890625 0 
L 10.890625 47.703125 
L 2.296875 47.703125 
L 2.296875 54.6875 
L 10.890625 54.6875 
L 10.890625 58.5 
Q 10.890625 67.625 15.140625 71.796875 
Q 19.390625 75.984375 28.609375 75.984375 
z
" id="DejaVuSans-66"/>
      <path d="M 4.890625 31.390625 
L 31.203125 31.390625 
L 31.203125 23.390625 
L 4.890625 23.390625 
z
" id="DejaVuSans-2d"/>
      <path d="M 56.203125 29.59375 
L 56.203125 25.203125 
L 14.890625 25.203125 
Q 15.484375 15.921875 20.484375 11.0625 
Q 25.484375 6.203125 34.421875 6.203125 
Q 39.59375 6.203125 44.453125 7.46875 
Q 49.3125 8.734375 54.109375 11.28125 
L 54.109375 2.78125 
Q 49.265625 0.734375 44.1875 -0.34375 
Q 39.109375 -1.421875 33.890625 -1.421875 
Q 20.796875 -1.421875 13.15625 6.1875 
Q 5.515625 13.8125 5.515625 26.8125 
Q 5.515625 40.234375 12.765625 48.109375 
Q 20.015625 56 32.328125 56 
Q 43.359375 56 49.78125 48.890625 
Q 56.203125 41.796875 56.203125 29.59375 
z
M 47.21875 32.234375 
Q 47.125 39.59375 43.09375 43.984375 
Q 39.0625 48.390625 32.421875 48.390625 
Q 24.90625 48.390625 20.390625 44.140625 
Q 15.875 39.890625 15.1875 32.171875 
z
" id="DejaVuSans-65"/>
      <path d="M 2.984375 54.6875 
L 12.5 54.6875 
L 29.59375 8.796875 
L 46.6875 54.6875 
L 56.203125 54.6875 
L 35.6875 0 
L 23.484375 0 
z
" id="DejaVuSans-76"/>
      <path d="M 34.28125 27.484375 
Q 23.390625 27.484375 19.1875 25 
Q 14.984375 22.515625 14.984375 16.5 
Q 14.984375 11.71875 18.140625 8.90625 
Q 21.296875 6.109375 26.703125 6.109375 
Q 34.1875 6.109375 38.703125 11.40625 
Q 43.21875 16.703125 43.21875 25.484375 
L 43.21875 27.484375 
z
M 52.203125 31.203125 
L 52.203125 0 
L 43.21875 0 
L 43.21875 8.296875 
Q 40.140625 3.328125 35.546875 0.953125 
Q 30.953125 -1.421875 24.3125 -1.421875 
Q 15.921875 -1.421875 10.953125 3.296875 
Q 6 8.015625 6 15.921875 
Q 6 25.140625 12.171875 29.828125 
Q 18.359375 34.515625 30.609375 34.515625 
L 43.21875 34.515625 
L 43.21875 35.40625 
Q 43.21875 41.609375 39.140625 45 
Q 35.0625 48.390625 27.6875 48.390625 
Q 23 48.390625 18.546875 47.265625 
Q 14.109375 46.140625 10.015625 43.890625 
L 10.015625 52.203125 
Q 14.9375 54.109375 19.578125 55.046875 
Q 24.21875 56 28.609375 56 
Q 40.484375 56 46.34375 49.84375 
Q 52.203125 43.703125 52.203125 31.203125 
z
" id="DejaVuSans-61"/>
      <path d="M 44.28125 53.078125 
L 44.28125 44.578125 
Q 40.484375 46.53125 36.375 47.5 
Q 32.28125 48.484375 27.875 48.484375 
Q 21.1875 48.484375 17.84375 46.4375 
Q 14.5 44.390625 14.5 40.28125 
Q 14.5 37.15625 16.890625 35.375 
Q 19.28125 33.59375 26.515625 31.984375 
L 29.59375 31.296875 
Q 39.15625 29.25 43.1875 25.515625 
Q 47.21875 21.78125 47.21875 15.09375 
Q 47.21875 7.46875 41.1875 3.015625 
Q 35.15625 -1.421875 24.609375 -1.421875 
Q 20.21875 -1.421875 15.453125 -0.5625 
Q 10.6875 0.296875 5.421875 2 
L 5.421875 11.28125 
Q 10.40625 8.6875 15.234375 7.390625 
Q 20.0625 6.109375 24.8125 6.109375 
Q 31.15625 6.109375 34.5625 8.28125 
Q 37.984375 10.453125 37.984375 14.40625 
Q 37.984375 18.0625 35.515625 20.015625 
Q 33.0625 21.96875 24.703125 23.78125 
L 21.578125 24.515625 
Q 13.234375 26.265625 9.515625 29.90625 
Q 5.8125 33.546875 5.8125 39.890625 
Q 5.8125 47.609375 11.28125 51.796875 
Q 16.75 56 26.8125 56 
Q 31.78125 56 36.171875 55.265625 
Q 40.578125 54.546875 44.28125 53.078125 
z
" id="DejaVuSans-73"/>
      <path d="M 25.390625 72.90625 
L 33.6875 72.90625 
L 8.296875 -9.28125 
L 0 -9.28125 
z
" id="DejaVuSans-2f"/>
      <path d="M 45.40625 46.390625 
L 45.40625 75.984375 
L 54.390625 75.984375 
L 54.390625 0 
L 45.40625 0 
L 45.40625 8.203125 
Q 42.578125 3.328125 38.25 0.953125 
Q 33.9375 -1.421875 27.875 -1.421875 
Q 17.96875 -1.421875 11.734375 6.484375 
Q 5.515625 14.40625 5.515625 27.296875 
Q 5.515625 40.1875 11.734375 48.09375 
Q 17.96875 56 27.875 56 
Q 33.9375 56 38.25 53.625 
Q 42.578125 51.265625 45.40625 46.390625 
z
M 14.796875 27.296875 
Q 14.796875 17.390625 18.875 11.75 
Q 22.953125 6.109375 30.078125 6.109375 
Q 37.203125 6.109375 41.296875 11.75 
Q 45.40625 17.390625 45.40625 27.296875 
Q 45.40625 37.203125 41.296875 42.84375 
Q 37.203125 48.484375 30.078125 48.484375 
Q 22.953125 48.484375 18.875 42.84375 
Q 14.796875 37.203125 14.796875 27.296875 
z
" id="DejaVuSans-64"/>
      <path d="M 9.421875 54.6875 
L 18.40625 54.6875 
L 18.40625 0 
L 9.421875 0 
z
M 9.421875 75.984375 
L 18.40625 75.984375 
L 18.40625 64.59375 
L 9.421875 64.59375 
z
" id="DejaVuSans-69"/>
      <path d="M 52 44.1875 
Q 55.375 50.25 60.0625 53.125 
Q 64.75 56 71.09375 56 
Q 79.640625 56 84.28125 50.015625 
Q 88.921875 44.046875 88.921875 33.015625 
L 88.921875 0 
L 79.890625 0 
L 79.890625 32.71875 
Q 79.890625 40.578125 77.09375 44.375 
Q 74.3125 48.1875 68.609375 48.1875 
Q 61.625 48.1875 57.5625 43.546875 
Q 53.515625 38.921875 53.515625 30.90625 
L 53.515625 0 
L 44.484375 0 
L 44.484375 32.71875 
Q 44.484375 40.625 41.703125 44.40625 
Q 38.921875 48.1875 33.109375 48.1875 
Q 26.21875 48.1875 22.15625 43.53125 
Q 18.109375 38.875 18.109375 30.90625 
L 18.109375 0 
L 9.078125 0 
L 9.078125 54.6875 
L 18.109375 54.6875 
L 18.109375 46.1875 
Q 21.1875 51.21875 25.484375 53.609375 
Q 29.78125 56 35.6875 56 
Q 41.65625 56 45.828125 52.96875 
Q 50 49.953125 52 44.1875 
z
" id="DejaVuSans-6d"/>
      <path d="M 54.890625 33.015625 
L 54.890625 0 
L 45.90625 0 
L 45.90625 32.71875 
Q 45.90625 40.484375 42.875 44.328125 
Q 39.84375 48.1875 33.796875 48.1875 
Q 26.515625 48.1875 22.3125 43.546875 
Q 18.109375 38.921875 18.109375 30.90625 
L 18.109375 0 
L 9.078125 0 
L 9.078125 54.6875 
L 18.109375 54.6875 
L 18.109375 46.1875 
Q 21.34375 51.125 25.703125 53.5625 
Q 30.078125 56 35.796875 56 
Q 45.21875 56 50.046875 50.171875 
Q 54.890625 44.34375 54.890625 33.015625 
z
" id="DejaVuSans-6e"/>
      <path d="M 8.015625 75.875 
L 15.828125 75.875 
Q 23.140625 64.359375 26.78125 53.3125 
Q 30.421875 42.28125 30.421875 31.390625 
Q 30.421875 20.453125 26.78125 9.375 
Q 23.140625 -1.703125 15.828125 -13.1875 
L 8.015625 -13.1875 
Q 14.5 -2 17.703125 9.0625 
Q 20.90625 20.125 20.90625 31.390625 
Q 20.90625 42.671875 17.703125 53.65625 
Q 14.5 64.65625 8.015625 75.875 
z
" id="DejaVuSans-29"/>
     </defs>
     <g transform="translate(73.803219 338.153594)scale(0.17 -0.17)">
      <use xlink:href="#DejaVuSans-6c"/>
      <use x="27.783203" xlink:href="#DejaVuSans-6f"/>
      <use x="88.964844" xlink:href="#DejaVuSans-67"/>
      <use x="152.441406" xlink:href="#DejaVuSans-31"/>
      <use x="216.064453" xlink:href="#DejaVuSans-30"/>
      <use x="279.6875" xlink:href="#DejaVuSans-28"/>
      <use x="318.701172" xlink:href="#DejaVuSans-23"/>
      <use x="402.490234" xlink:href="#DejaVuSans-20"/>
      <use x="434.277344" xlink:href="#DejaVuSans-66"/>
      <use x="469.404297" xlink:href="#DejaVuSans-2d"/>
      <use x="505.488281" xlink:href="#DejaVuSans-65"/>
      <use x="567.011719" xlink:href="#DejaVuSans-76"/>
      <use x="626.191406" xlink:href="#DejaVuSans-61"/>
      <use x="687.470703" xlink:href="#DejaVuSans-6c"/>
      <use x="715.253906" xlink:href="#DejaVuSans-73"/>
      <use x="767.353516" xlink:href="#DejaVuSans-20"/>
      <use x="799.140625" xlink:href="#DejaVuSans-2f"/>
      <use x="832.832031" xlink:href="#DejaVuSans-20"/>
      <use x="864.619141" xlink:href="#DejaVuSans-64"/>
      <use x="928.095703" xlink:href="#DejaVuSans-69"/>
      <use x="955.878906" xlink:href="#DejaVuSans-6d"/>
      <use x="1053.291016" xlink:href="#DejaVuSans-65"/>
      <use x="1114.814453" xlink:href="#DejaVuSans-6e"/>
      <use x="1178.193359" xlink:href="#DejaVuSans-73"/>
      <use x="1230.292969" xlink:href="#DejaVuSans-69"/>
      <use x="1258.076172" xlink:href="#DejaVuSans-6f"/>
      <use x="1319.257812" xlink:href="#DejaVuSans-6e"/>
      <use x="1382.636719" xlink:href="#DejaVuSans-29"/>
     </g>
    </g>
   </g>
   <g id="matplotlib.axis_2">
    <g id="ytick_1">
     <g id="line2d_29">
      <path clip-path="url(#pff80c31112)" d="M 56.12 294.88 
L 333.168 294.88 
" style="fill:none;stroke:#b0b0b0;stroke-linecap:square;stroke-width:0.8;"/>
     </g>
     <g id="line2d_30">
      <defs>
       <path d="M 0 0 
L -3.5 0 
" id="m32da058bc5" style="stroke:#000000;stroke-width:0.8;"/>
      </defs>
      <g>
       <use style="stroke:#000000;stroke-width:0.8;" x="56.12" xlink:href="#m32da058bc5" y="294.88"/>
      </g>
     </g>
     <g id="text_6">
      <!-- 0.0 -->
      <defs>
       <path d="M 10.6875 12.40625 
L 21 12.40625 
L 21 0 
L 10.6875 0 
z
" id="DejaVuSans-2e"/>
      </defs>
      <g transform="translate(23.675 300.95875)scale(0.16 -0.16)">
       <use xlink:href="#DejaVuSans-30"/>
       <use x="63.623047" xlink:href="#DejaVuSans-2e"/>
       <use x="95.410156" xlink:href="#DejaVuSans-30"/>
      </g>
     </g>
    </g>
    <g id="ytick_2">
     <g id="line2d_31">
      <path clip-path="url(#pff80c31112)" d="M 56.12 241.406733 
L 333.168 241.406733 
" style="fill:none;stroke:#b0b0b0;stroke-linecap:square;stroke-width:0.8;"/>
     </g>
     <g id="line2d_32">
      <g>
       <use style="stroke:#000000;stroke-width:0.8;" x="56.12" xlink:href="#m32da058bc5" y="241.406733"/>
      </g>
     </g>
     <g id="text_7">
      <!-- 0.2 -->
      <g transform="translate(23.675 247.485483)scale(0.16 -0.16)">
       <use xlink:href="#DejaVuSans-30"/>
       <use x="63.623047" xlink:href="#DejaVuSans-2e"/>
       <use x="95.410156" xlink:href="#DejaVuSans-32"/>
      </g>
     </g>
    </g>
    <g id="ytick_3">
     <g id="line2d_33">
      <path clip-path="url(#pff80c31112)" d="M 56.12 187.933465 
L 333.168 187.933465 
" style="fill:none;stroke:#b0b0b0;stroke-linecap:square;stroke-width:0.8;"/>
     </g>
     <g id="line2d_34">
      <g>
       <use style="stroke:#000000;stroke-width:0.8;" x="56.12" xlink:href="#m32da058bc5" y="187.933465"/>
      </g>
     </g>
     <g id="text_8">
      <!-- 0.4 -->
      <g transform="translate(23.675 194.012215)scale(0.16 -0.16)">
       <use xlink:href="#DejaVuSans-30"/>
       <use x="63.623047" xlink:href="#DejaVuSans-2e"/>
       <use x="95.410156" xlink:href="#DejaVuSans-34"/>
      </g>
     </g>
    </g>
    <g id="ytick_4">
     <g id="line2d_35">
      <path clip-path="url(#pff80c31112)" d="M 56.12 134.460198 
L 333.168 134.460198 
" style="fill:none;stroke:#b0b0b0;stroke-linecap:square;stroke-width:0.8;"/>
     </g>
     <g id="line2d_36">
      <g>
       <use style="stroke:#000000;stroke-width:0.8;" x="56.12" xlink:href="#m32da058bc5" y="134.460198"/>
      </g>
     </g>
     <g id="text_9">
      <!-- 0.6 -->
      <g transform="translate(23.675 140.538948)scale(0.16 -0.16)">
       <use xlink:href="#DejaVuSans-30"/>
       <use x="63.623047" xlink:href="#DejaVuSans-2e"/>
       <use x="95.410156" xlink:href="#DejaVuSans-36"/>
      </g>
     </g>
    </g>
    <g id="ytick_5">
     <g id="line2d_37">
      <path clip-path="url(#pff80c31112)" d="M 56.12 80.986931 
L 333.168 80.986931 
" style="fill:none;stroke:#b0b0b0;stroke-linecap:square;stroke-width:0.8;"/>
     </g>
     <g id="line2d_38">
      <g>
       <use style="stroke:#000000;stroke-width:0.8;" x="56.12" xlink:href="#m32da058bc5" y="80.986931"/>
      </g>
     </g>
     <g id="text_10">
      <!-- 0.8 -->
      <defs>
       <path d="M 31.78125 34.625 
Q 24.75 34.625 20.71875 30.859375 
Q 16.703125 27.09375 16.703125 20.515625 
Q 16.703125 13.921875 20.71875 10.15625 
Q 24.75 6.390625 31.78125 6.390625 
Q 38.8125 6.390625 42.859375 10.171875 
Q 46.921875 13.96875 46.921875 20.515625 
Q 46.921875 27.09375 42.890625 30.859375 
Q 38.875 34.625 31.78125 34.625 
z
M 21.921875 38.8125 
Q 15.578125 40.375 12.03125 44.71875 
Q 8.5 49.078125 8.5 55.328125 
Q 8.5 64.0625 14.71875 69.140625 
Q 20.953125 74.21875 31.78125 74.21875 
Q 42.671875 74.21875 48.875 69.140625 
Q 55.078125 64.0625 55.078125 55.328125 
Q 55.078125 49.078125 51.53125 44.71875 
Q 48 40.375 41.703125 38.8125 
Q 48.828125 37.15625 52.796875 32.3125 
Q 56.78125 27.484375 56.78125 20.515625 
Q 56.78125 9.90625 50.3125 4.234375 
Q 43.84375 -1.421875 31.78125 -1.421875 
Q 19.734375 -1.421875 13.25 4.234375 
Q 6.78125 9.90625 6.78125 20.515625 
Q 6.78125 27.484375 10.78125 32.3125 
Q 14.796875 37.15625 21.921875 38.8125 
z
M 18.3125 54.390625 
Q 18.3125 48.734375 21.84375 45.5625 
Q 25.390625 42.390625 31.78125 42.390625 
Q 38.140625 42.390625 41.71875 45.5625 
Q 45.3125 48.734375 45.3125 54.390625 
Q 45.3125 60.0625 41.71875 63.234375 
Q 38.140625 66.40625 31.78125 66.40625 
Q 25.390625 66.40625 21.84375 63.234375 
Q 18.3125 60.0625 18.3125 54.390625 
z
" id="DejaVuSans-38"/>
      </defs>
      <g transform="translate(23.675 87.065681)scale(0.16 -0.16)">
       <use xlink:href="#DejaVuSans-30"/>
       <use x="63.623047" xlink:href="#DejaVuSans-2e"/>
       <use x="95.410156" xlink:href="#DejaVuSans-38"/>
      </g>
     </g>
    </g>
    <g id="ytick_6">
     <g id="line2d_39">
      <path clip-path="url(#pff80c31112)" d="M 56.12 27.513663 
L 333.168 27.513663 
" style="fill:none;stroke:#b0b0b0;stroke-linecap:square;stroke-width:0.8;"/>
     </g>
     <g id="line2d_40">
      <g>
       <use style="stroke:#000000;stroke-width:0.8;" x="56.12" xlink:href="#m32da058bc5" y="27.513663"/>
      </g>
     </g>
     <g id="text_11">
      <!-- 1.0 -->
      <g transform="translate(23.675 33.592413)scale(0.16 -0.16)">
       <use xlink:href="#DejaVuSans-31"/>
       <use x="63.623047" xlink:href="#DejaVuSans-2e"/>
       <use x="95.410156" xlink:href="#DejaVuSans-30"/>
      </g>
     </g>
    </g>
    <g id="text_12">
     <!-- Fraction of function,target pairs -->
     <defs>
      <path d="M 9.8125 72.90625 
L 51.703125 72.90625 
L 51.703125 64.59375 
L 19.671875 64.59375 
L 19.671875 43.109375 
L 48.578125 43.109375 
L 48.578125 34.8125 
L 19.671875 34.8125 
L 19.671875 0 
L 9.8125 0 
z
" id="DejaVuSans-46"/>
      <path d="M 41.109375 46.296875 
Q 39.59375 47.171875 37.8125 47.578125 
Q 36.03125 48 33.890625 48 
Q 26.265625 48 22.1875 43.046875 
Q 18.109375 38.09375 18.109375 28.8125 
L 18.109375 0 
L 9.078125 0 
L 9.078125 54.6875 
L 18.109375 54.6875 
L 18.109375 46.1875 
Q 20.953125 51.171875 25.484375 53.578125 
Q 30.03125 56 36.53125 56 
Q 37.453125 56 38.578125 55.875 
Q 39.703125 55.765625 41.0625 55.515625 
z
" id="DejaVuSans-72"/>
      <path d="M 48.78125 52.59375 
L 48.78125 44.1875 
Q 44.96875 46.296875 41.140625 47.34375 
Q 37.3125 48.390625 33.40625 48.390625 
Q 24.65625 48.390625 19.8125 42.84375 
Q 14.984375 37.3125 14.984375 27.296875 
Q 14.984375 17.28125 19.8125 11.734375 
Q 24.65625 6.203125 33.40625 6.203125 
Q 37.3125 6.203125 41.140625 7.25 
Q 44.96875 8.296875 48.78125 10.40625 
L 48.78125 2.09375 
Q 45.015625 0.34375 40.984375 -0.53125 
Q 36.96875 -1.421875 32.421875 -1.421875 
Q 20.0625 -1.421875 12.78125 6.34375 
Q 5.515625 14.109375 5.515625 27.296875 
Q 5.515625 40.671875 12.859375 48.328125 
Q 20.21875 56 33.015625 56 
Q 37.15625 56 41.109375 55.140625 
Q 45.0625 54.296875 48.78125 52.59375 
z
" id="DejaVuSans-63"/>
      <path d="M 18.3125 70.21875 
L 18.3125 54.6875 
L 36.8125 54.6875 
L 36.8125 47.703125 
L 18.3125 47.703125 
L 18.3125 18.015625 
Q 18.3125 11.328125 20.140625 9.421875 
Q 21.96875 7.515625 27.59375 7.515625 
L 36.8125 7.515625 
L 36.8125 0 
L 27.59375 0 
Q 17.1875 0 13.234375 3.875 
Q 9.28125 7.765625 9.28125 18.015625 
L 9.28125 47.703125 
L 2.6875 47.703125 
L 2.6875 54.6875 
L 9.28125 54.6875 
L 9.28125 70.21875 
z
" id="DejaVuSans-74"/>
      <path d="M 8.5 21.578125 
L 8.5 54.6875 
L 17.484375 54.6875 
L 17.484375 21.921875 
Q 17.484375 14.15625 20.5 10.265625 
Q 23.53125 6.390625 29.59375 6.390625 
Q 36.859375 6.390625 41.078125 11.03125 
Q 45.3125 15.671875 45.3125 23.6875 
L 45.3125 54.6875 
L 54.296875 54.6875 
L 54.296875 0 
L 45.3125 0 
L 45.3125 8.40625 
Q 42.046875 3.421875 37.71875 1 
Q 33.40625 -1.421875 27.6875 -1.421875 
Q 18.265625 -1.421875 13.375 4.4375 
Q 8.5 10.296875 8.5 21.578125 
z
M 31.109375 56 
z
" id="DejaVuSans-75"/>
      <path d="M 11.71875 12.40625 
L 22.015625 12.40625 
L 22.015625 4 
L 14.015625 -11.625 
L 7.71875 -11.625 
L 11.71875 4 
z
" id="DejaVuSans-2c"/>
      <path d="M 18.109375 8.203125 
L 18.109375 -20.796875 
L 9.078125 -20.796875 
L 9.078125 54.6875 
L 18.109375 54.6875 
L 18.109375 46.390625 
Q 20.953125 51.265625 25.265625 53.625 
Q 29.59375 56 35.59375 56 
Q 45.5625 56 51.78125 48.09375 
Q 58.015625 40.1875 58.015625 27.296875 
Q 58.015625 14.40625 51.78125 6.484375 
Q 45.5625 -1.421875 35.59375 -1.421875 
Q 29.59375 -1.421875 25.265625 0.953125 
Q 20.953125 3.328125 18.109375 8.203125 
z
M 48.6875 27.296875 
Q 48.6875 37.203125 44.609375 42.84375 
Q 40.53125 48.484375 33.40625 48.484375 
Q 26.265625 48.484375 22.1875 42.84375 
Q 18.109375 37.203125 18.109375 27.296875 
Q 18.109375 17.390625 22.1875 11.75 
Q 26.265625 6.109375 33.40625 6.109375 
Q 40.53125 6.109375 44.609375 11.75 
Q 48.6875 17.390625 48.6875 27.296875 
z
" id="DejaVuSans-70"/>
     </defs>
     <g transform="translate(16.139531 294.999375)rotate(-90)scale(0.17 -0.17)">
      <use xlink:href="#DejaVuSans-46"/>
      <use x="57.410156" xlink:href="#DejaVuSans-72"/>
      <use x="98.523438" xlink:href="#DejaVuSans-61"/>
      <use x="159.802734" xlink:href="#DejaVuSans-63"/>
      <use x="214.783203" xlink:href="#DejaVuSans-74"/>
      <use x="253.992188" xlink:href="#DejaVuSans-69"/>
      <use x="281.775391" xlink:href="#DejaVuSans-6f"/>
      <use x="342.957031" xlink:href="#DejaVuSans-6e"/>
      <use x="406.335938" xlink:href="#DejaVuSans-20"/>
      <use x="438.123047" xlink:href="#DejaVuSans-6f"/>
      <use x="499.304688" xlink:href="#DejaVuSans-66"/>
      <use x="534.509766" xlink:href="#DejaVuSans-20"/>
      <use x="566.296875" xlink:href="#DejaVuSans-66"/>
      <use x="601.501953" xlink:href="#DejaVuSans-75"/>
      <use x="664.880859" xlink:href="#DejaVuSans-6e"/>
      <use x="728.259766" xlink:href="#DejaVuSans-63"/>
      <use x="783.240234" xlink:href="#DejaVuSans-74"/>
      <use x="822.449219" xlink:href="#DejaVuSans-69"/>
      <use x="850.232422" xlink:href="#DejaVuSans-6f"/>
      <use x="911.414062" xlink:href="#DejaVuSans-6e"/>
      <use x="974.792969" xlink:href="#DejaVuSans-2c"/>
      <use x="1006.580078" xlink:href="#DejaVuSans-74"/>
      <use x="1045.789062" xlink:href="#DejaVuSans-61"/>
      <use x="1107.068359" xlink:href="#DejaVuSans-72"/>
      <use x="1148.166016" xlink:href="#DejaVuSans-67"/>
      <use x="1211.642578" xlink:href="#DejaVuSans-65"/>
      <use x="1273.166016" xlink:href="#DejaVuSans-74"/>
      <use x="1312.375" xlink:href="#DejaVuSans-20"/>
      <use x="1344.162109" xlink:href="#DejaVuSans-70"/>
      <use x="1407.638672" xlink:href="#DejaVuSans-61"/>
      <use x="1468.917969" xlink:href="#DejaVuSans-69"/>
      <use x="1496.701172" xlink:href="#DejaVuSans-72"/>
      <use x="1537.814453" xlink:href="#DejaVuSans-73"/>
     </g>
    </g>
   </g>
   <g id="line2d_41">
    <defs>
     <path d="M 0 1.5 
C 0.397805 1.5 0.77937 1.341951 1.06066 1.06066 
C 1.341951 0.77937 1.5 0.397805 1.5 0 
C 1.5 -0.397805 1.341951 -0.77937 1.06066 -1.06066 
C 0.77937 -1.341951 0.397805 -1.5 0 -1.5 
C -0.397805 -1.5 -0.77937 -1.341951 -1.06066 -1.06066 
C -1.341951 -0.77937 -1.5 -0.397805 -1.5 0 
C -1.5 0.397805 -1.341951 0.77937 -1.06066 1.06066 
C -0.77937 1.341951 -0.397805 1.5 0 1.5 
z
" id="m1b1dd458f6" style="stroke:#f5deb3;"/>
    </defs>
    <g>
     <use style="fill:#f5deb3;stroke:#f5deb3;" x="242.396551" xlink:href="#m1b1dd458f6" y="27.513663"/>
     <use style="fill:#f5deb3;stroke:#f5deb3;" x="242.396551" xlink:href="#m1b1dd458f6" y="27.513663"/>
    </g>
   </g>
   <g id="line2d_42">
    <defs>
     <path d="M 0 1.5 
C 0.397805 1.5 0.77937 1.341951 1.06066 1.06066 
C 1.341951 0.77937 1.5 0.397805 1.5 0 
C 1.5 -0.397805 1.341951 -0.77937 1.06066 -1.06066 
C 0.77937 -1.341951 0.397805 -1.5 0 -1.5 
C -0.397805 -1.5 -0.77937 -1.341951 -1.06066 -1.06066 
C -1.341951 -0.77937 -1.5 -0.397805 -1.5 0 
C -1.5 0.397805 -1.341951 0.77937 -1.06066 1.06066 
C -0.77937 1.341951 -0.397805 1.5 0 1.5 
z
" id="m893236da9d" style="stroke:#000080;"/>
    </defs>
    <g>
     <use style="fill:#000080;stroke:#000080;" x="182.609324" xlink:href="#m893236da9d" y="284.395046"/>
     <use style="fill:#000080;stroke:#000080;" x="182.609324" xlink:href="#m893236da9d" y="284.395046"/>
    </g>
   </g>
   <g id="line2d_43">
    <path d="M -1 289.113275 
L 100.008485 289.113275 
L 100.008485 288.589027 
L 135.842956 288.589027 
L 135.842956 288.06478 
L 161.569866 288.06478 
L 161.569866 287.540532 
L 163.590775 287.540532 
L 163.590775 287.016284 
L 163.716923 287.016284 
L 163.716923 286.492036 
L 169.200561 286.492036 
L 169.200561 285.967789 
L 171.024696 285.967789 
L 171.024696 285.443541 
L 177.41229 285.443541 
L 177.41229 284.919293 
L 182.609324 284.919293 
L 182.609324 284.395046 
L 333.168 284.395046 
" style="fill:none;stroke:#000080;stroke-linecap:square;stroke-width:1.5;"/>
   </g>
   <g id="line2d_44">
    <defs>
     <path d="M 0 6 
C 1.591219 6 3.117479 5.367802 4.242641 4.242641 
C 5.367802 3.117479 6 1.591219 6 0 
C 6 -1.591219 5.367802 -3.117479 4.242641 -4.242641 
C 3.117479 -5.367802 1.591219 -6 0 -6 
C -1.591219 -6 -3.117479 -5.367802 -4.242641 -4.242641 
C -5.367802 -3.117479 -6 -1.591219 -6 0 
C -6 1.591219 -5.367802 3.117479 -4.242641 4.242641 
C -3.117479 5.367802 -1.591219 6 0 6 
z
" id="m602b29a7c4" style="stroke:#000080;stroke-width:1.5;"/>
    </defs>
    <g>
     <use style="fill:none;stroke:#000080;stroke-width:1.5;" x="100.008485" xlink:href="#m602b29a7c4" y="288.589027"/>
     <use style="fill:none;stroke:#000080;stroke-width:1.5;" x="182.609324" xlink:href="#m602b29a7c4" y="284.919293"/>
     <use style="fill:none;stroke:#000080;stroke-width:1.5;" x="182.609324" xlink:href="#m602b29a7c4" y="284.395046"/>
     <use style="fill:none;stroke:#000080;stroke-width:1.5;" x="182.609324" xlink:href="#m602b29a7c4" y="284.395046"/>
     <use style="fill:none;stroke:#000080;stroke-width:1.5;" x="333.168" xlink:href="#m602b29a7c4" y="284.395046"/>
    </g>
   </g>
   <g id="line2d_45">
    <path style="fill:none;stroke:#000080;stroke-linecap:square;stroke-width:1.5;"/>
    <g/>
   </g>
   <g id="line2d_46">
    <path clip-path="url(#pff80c31112)" d="M 139.746542 288.06478 
" style="fill:none;stroke:#000080;stroke-linecap:square;stroke-width:1.5;"/>
    <defs>
     <path d="M -12 12 
L 12 -12 
M -12 -12 
L 12 12 
" id="m23b7e7a162" style="stroke:#000080;"/>
    </defs>
    <g clip-path="url(#pff80c31112)">
     <use style="fill:#000080;stroke:#000080;" x="139.746542" xlink:href="#m23b7e7a162" y="288.06478"/>
    </g>
   </g>
   <g id="line2d_47">
    <defs>
     <path d="M 0 1.5 
C 0.397805 1.5 0.77937 1.341951 1.06066 1.06066 
C 1.341951 0.77937 1.5 0.397805 1.5 0 
C 1.5 -0.397805 1.341951 -0.77937 1.06066 -1.06066 
C 0.77937 -1.341951 0.397805 -1.5 0 -1.5 
C -0.397805 -1.5 -0.77937 -1.341951 -1.06066 -1.06066 
C -1.341951 -0.77937 -1.5 -0.397805 -1.5 0 
C -1.5 0.397805 -1.341951 0.77937 -1.06066 1.06066 
C -0.77937 1.341951 -0.397805 1.5 0 1.5 
z
" id="m74ba7a07ef" style="stroke:#ff00ff;"/>
    </defs>
    <g>
     <use style="fill:#ff00ff;stroke:#ff00ff;" x="269.336222" xlink:href="#m74ba7a07ef" y="242.455228"/>
     <use style="fill:#ff00ff;stroke:#ff00ff;" x="269.336222" xlink:href="#m74ba7a07ef" y="242.455228"/>
    </g>
   </g>
   <g id="line2d_48">
    <path d="M -1 289.637523 
L 4.627463 289.637523 
L 4.627463 289.113275 
L 11.596853 289.113275 
L 11.596853 288.589027 
L 16.541714 288.589027 
L 16.541714 288.06478 
L 20.377246 288.06478 
L 20.377246 287.540532 
L 23.511104 287.540532 
L 23.511104 286.492036 
L 30.480495 286.492036 
L 30.480495 285.967789 
L 32.291498 285.967789 
L 32.291498 285.443541 
L 35.425356 285.443541 
L 35.425356 284.919293 
L 45.044385 284.919293 
L 45.044385 284.395046 
L 82.902373 284.395046 
L 82.902373 283.870798 
L 90.347603 283.870798 
L 90.347603 283.34655 
L 90.63845 283.34655 
L 90.63845 282.822302 
L 92.443684 282.822302 
L 92.443684 282.298055 
L 94.450895 282.298055 
L 94.450895 281.773807 
L 105.920487 281.773807 
L 105.920487 281.249559 
L 119.440629 281.249559 
L 119.440629 280.725312 
L 129.896532 280.725312 
L 129.896532 280.201064 
L 132.325655 280.201064 
L 132.325655 279.676816 
L 137.004439 279.676816 
L 137.004439 279.152568 
L 138.606263 279.152568 
L 138.606263 278.628321 
L 141.294802 278.628321 
L 141.294802 278.104073 
L 146.127269 278.104073 
L 146.127269 277.579825 
L 147.992586 277.579825 
L 147.992586 277.055578 
L 152.171635 277.055578 
L 152.171635 276.53133 
L 170.677 276.53133 
L 170.677 276.007082 
L 171.815449 276.007082 
L 171.815449 275.482834 
L 177.287414 275.482834 
L 177.287414 274.958587 
L 177.468116 274.958587 
L 177.468116 274.434339 
L 179.917806 274.434339 
L 179.917806 273.910091 
L 184.136649 273.910091 
L 184.136649 273.385844 
L 184.335824 273.385844 
L 184.335824 272.861596 
L 185.020539 272.861596 
L 185.020539 272.337348 
L 185.176346 272.337348 
L 185.176346 271.8131 
L 185.923595 271.8131 
L 185.931944 270.764605 
L 186.138905 270.764605 
L 186.138905 270.240357 
L 188.504163 270.240357 
L 188.504163 269.716109 
L 188.750804 269.716109 
L 188.750804 269.191862 
L 188.910883 269.191862 
L 188.910883 268.667614 
L 189.141505 268.667614 
L 189.141505 268.143366 
L 189.732204 268.143366 
L 189.732204 267.619119 
L 190.289801 267.619119 
L 190.289801 267.094871 
L 191.605555 267.094871 
L 191.605555 266.570623 
L 191.825334 266.570623 
L 191.825334 266.046375 
L 192.159089 266.046375 
L 192.240548 264.99788 
L 193.306111 264.99788 
L 193.306111 264.473632 
L 195.480609 264.473632 
L 195.480609 263.949385 
L 197.04528 263.949385 
L 197.144258 262.900889 
L 203.166578 262.900889 
L 203.246508 261.852394 
L 203.377161 261.852394 
L 203.377161 261.328146 
L 203.666182 261.328146 
L 203.666182 260.803898 
L 204.373987 260.803898 
L 204.373987 260.279651 
L 205.328863 260.279651 
L 205.328863 259.755403 
L 205.526235 259.755403 
L 205.526235 259.231155 
L 206.228902 259.231155 
L 206.228902 258.706907 
L 206.879846 258.706907 
L 206.879846 258.18266 
L 207.904946 258.18266 
L 208.008981 256.609917 
L 208.155475 256.609917 
L 208.155475 256.085669 
L 209.57059 256.085669 
L 209.57059 255.561421 
L 210.61522 255.561421 
L 210.61522 255.037173 
L 211.072278 255.037173 
L 211.072278 254.512926 
L 211.931255 254.512926 
L 211.931255 253.988678 
L 212.676342 253.988678 
L 212.676342 253.46443 
L 213.089513 253.46443 
L 213.089513 252.940182 
L 217.476523 252.940182 
L 217.476523 252.415935 
L 218.593578 252.415935 
L 218.593578 251.891687 
L 219.507962 251.891687 
L 219.507962 251.367439 
L 219.641305 251.367439 
L 219.641305 250.843192 
L 219.93475 250.843192 
L 219.93475 250.318944 
L 225.820298 250.318944 
L 225.820298 249.794696 
L 228.438524 249.794696 
L 228.438524 249.270448 
L 232.969527 249.270448 
L 232.969527 248.746201 
L 234.069275 248.746201 
L 234.069275 248.221953 
L 234.446794 248.221953 
L 234.446794 247.697705 
L 238.598655 247.697705 
L 238.598655 247.173458 
L 245.257371 247.173458 
L 245.257371 246.64921 
L 245.650995 246.64921 
L 245.650995 246.124962 
L 246.465672 246.124962 
L 246.465672 245.600714 
L 250.195652 245.600714 
L 250.195652 245.076467 
L 253.226209 245.076467 
L 253.226209 244.552219 
L 254.5912 244.552219 
L 254.5912 244.027971 
L 257.726428 244.027971 
L 257.726428 243.503724 
L 259.149244 243.503724 
L 259.149244 242.979476 
L 269.336222 242.979476 
L 269.336222 242.455228 
L 333.168 242.455228 
L 333.168 242.455228 
" style="fill:none;stroke:#ff00ff;stroke-linecap:square;stroke-width:1.5;"/>
   </g>
   <g id="line2d_49">
    <defs>
     <path d="M -0 8.485281 
L 5.091169 0 
L 0 -8.485281 
L -5.091169 -0 
z
" id="m0291b4e30f" style="stroke:#ff00ff;stroke-linejoin:miter;stroke-width:1.5;"/>
    </defs>
    <g>
     <use style="fill:none;stroke:#ff00ff;stroke-linejoin:miter;stroke-width:1.5;" x="94.450895" xlink:href="#m0291b4e30f" y="281.773807"/>
     <use style="fill:none;stroke:#ff00ff;stroke-linejoin:miter;stroke-width:1.5;" x="152.171635" xlink:href="#m0291b4e30f" y="276.53133"/>
     <use style="fill:none;stroke:#ff00ff;stroke-linejoin:miter;stroke-width:1.5;" x="238.598655" xlink:href="#m0291b4e30f" y="247.173458"/>
     <use style="fill:none;stroke:#ff00ff;stroke-linejoin:miter;stroke-width:1.5;" x="269.336222" xlink:href="#m0291b4e30f" y="242.455228"/>
     <use style="fill:none;stroke:#ff00ff;stroke-linejoin:miter;stroke-width:1.5;" x="269.336222" xlink:href="#m0291b4e30f" y="242.455228"/>
     <use style="fill:none;stroke:#ff00ff;stroke-linejoin:miter;stroke-width:1.5;" x="333.168" xlink:href="#m0291b4e30f" y="242.455228"/>
    </g>
   </g>
   <g id="line2d_50">
    <path style="fill:none;stroke:#ff00ff;stroke-linecap:square;stroke-width:1.5;"/>
    <g/>
   </g>
   <g id="line2d_51">
    <path clip-path="url(#pff80c31112)" d="M 214.433143 252.940182 
" style="fill:none;stroke:#ff00ff;stroke-linecap:square;stroke-width:1.5;"/>
    <defs>
     <path d="M -12 12 
L 12 -12 
M -12 -12 
L 12 12 
" id="m7862b34b1d" style="stroke:#ff00ff;"/>
    </defs>
    <g clip-path="url(#pff80c31112)">
     <use style="fill:#ff00ff;stroke:#ff00ff;" x="214.433143" xlink:href="#m7862b34b1d" y="252.940182"/>
    </g>
   </g>
   <g id="line2d_52">
    <defs>
     <path d="M 0 1.5 
C 0.397805 1.5 0.77937 1.341951 1.06066 1.06066 
C 1.341951 0.77937 1.5 0.397805 1.5 0 
C 1.5 -0.397805 1.341951 -0.77937 1.06066 -1.06066 
C 0.77937 -1.341951 0.397805 -1.5 0 -1.5 
C -0.397805 -1.5 -0.77937 -1.341951 -1.06066 -1.06066 
C -1.341951 -0.77937 -1.5 -0.397805 -1.5 0 
C -1.5 0.397805 -1.341951 0.77937 -1.06066 1.06066 
C -0.77937 1.341951 -0.397805 1.5 0 1.5 
z
" id="m5a4bfceca9" style="stroke:#ff7500;"/>
    </defs>
    <g>
     <use style="fill:#ff7500;stroke:#ff7500;" x="286.944627" xlink:href="#m5a4bfceca9" y="27.513663"/>
     <use style="fill:#ff7500;stroke:#ff7500;" x="286.944627" xlink:href="#m5a4bfceca9" y="27.513663"/>
    </g>
   </g>
   <g id="line2d_53">
    <path d="M -1 289.637523 
L 4.627463 289.637523 
L 4.627463 288.06478 
L 20.377246 288.06478 
L 20.377246 287.540532 
L 23.511104 287.540532 
L 23.511104 287.016284 
L 26.160744 287.016284 
L 26.160744 286.492036 
L 30.480495 286.492036 
L 30.480495 285.967789 
L 39.260888 285.967789 
L 39.260888 284.919293 
L 46.608065 284.919293 
L 46.608065 284.395046 
L 93.255098 284.395046 
L 93.255098 283.870798 
L 100.372454 283.870798 
L 100.372454 283.34655 
L 112.691162 283.34655 
L 112.691162 282.822302 
L 116.154946 282.822302 
L 116.154946 282.298055 
L 118.128568 282.298055 
L 118.128568 281.773807 
L 122.380856 281.773807 
L 122.380856 281.249559 
L 124.412461 281.249559 
L 124.412461 280.725312 
L 125.920864 280.725312 
L 125.920864 280.201064 
L 132.402015 280.201064 
L 132.402015 279.676816 
L 140.252559 279.676816 
L 140.252559 279.152568 
L 141.490489 279.152568 
L 141.490489 278.628321 
L 142.459488 278.628321 
L 142.459488 278.104073 
L 143.314957 278.104073 
L 143.314957 277.579825 
L 144.789688 277.579825 
L 144.789688 277.055578 
L 146.095239 277.055578 
L 146.095239 276.53133 
L 146.304637 276.53133 
L 146.304637 276.007082 
L 146.845758 276.007082 
L 146.845758 275.482834 
L 149.314378 275.482834 
L 149.363678 274.434339 
L 149.433593 274.434339 
L 149.433593 273.910091 
L 149.553859 273.910091 
L 149.553859 273.385844 
L 150.088512 273.385844 
L 150.088512 272.861596 
L 151.766488 272.861596 
L 151.766488 272.337348 
L 151.886259 272.337348 
L 151.886259 271.8131 
L 152.388952 271.8131 
L 152.388952 271.288853 
L 152.717653 271.288853 
L 152.789162 270.240357 
L 153.219647 270.240357 
L 153.219647 269.716109 
L 153.476434 269.716109 
L 153.476434 269.191862 
L 154.701632 269.191862 
L 154.701632 268.667614 
L 155.22113 268.667614 
L 155.292355 267.619119 
L 155.343241 267.619119 
L 155.343241 267.094871 
L 156.249554 267.094871 
L 156.249554 266.570623 
L 156.53261 266.570623 
L 156.53261 266.046375 
L 156.733562 266.046375 
L 156.733562 265.522128 
L 156.955338 265.522128 
L 156.969941 264.473632 
L 157.487544 264.473632 
L 157.487544 263.949385 
L 157.975106 263.949385 
L 157.975106 263.425137 
L 158.742463 263.425137 
L 158.742463 262.900889 
L 159.113666 262.900889 
L 159.127619 261.852394 
L 159.490683 261.852394 
L 159.554642 260.803898 
L 159.816371 260.803898 
L 159.816371 260.279651 
L 159.984587 260.279651 
L 159.984587 259.755403 
L 160.323165 259.755403 
L 160.323165 259.231155 
L 160.90275 259.231155 
L 160.998278 258.18266 
L 161.100931 258.18266 
L 161.204877 256.609917 
L 161.401504 256.609917 
L 161.455934 255.561421 
L 161.658063 255.561421 
L 161.681197 254.512926 
L 162.168062 254.512926 
L 162.183337 253.46443 
L 162.379801 253.46443 
L 162.379801 252.940182 
L 162.784341 252.940182 
L 162.784341 252.415935 
L 162.992952 252.415935 
L 163.102276 250.318944 
L 163.21683 250.318944 
L 163.21683 249.794696 
L 163.467028 249.794696 
L 163.467028 249.270448 
L 164.005294 249.270448 
L 164.082669 248.221953 
L 164.137267 248.221953 
L 164.154093 246.64921 
L 164.604621 246.64921 
L 164.604621 246.124962 
L 164.735186 246.124962 
L 164.735186 245.600714 
L 164.909277 245.600714 
L 165.006338 244.552219 
L 165.430882 244.552219 
L 165.519134 243.503724 
L 165.601046 243.503724 
L 165.601046 242.979476 
L 165.867678 242.979476 
L 165.947228 241.406733 
L 166.011323 241.406733 
L 166.011323 240.882485 
L 166.96078 240.882485 
L 166.96078 240.358237 
L 167.09291 240.358237 
L 167.096284 239.309742 
L 167.244785 239.309742 
L 167.330876 237.736999 
L 167.541279 237.736999 
L 167.618048 236.688503 
L 167.66512 236.688503 
L 167.665773 235.640008 
L 167.971837 235.640008 
L 168.060754 233.018769 
L 168.126346 233.018769 
L 168.237218 231.970274 
L 168.558791 231.970274 
L 168.558791 231.446026 
L 168.709978 231.446026 
L 168.709978 230.921778 
L 169.034365 230.921778 
L 169.109562 228.824787 
L 169.213096 228.824787 
L 169.304144 227.776292 
L 169.480106 227.776292 
L 169.480106 227.252044 
L 169.801365 227.252044 
L 169.827292 226.203549 
L 169.917443 226.203549 
L 169.917443 225.679301 
L 170.307016 225.679301 
L 170.307016 225.155053 
L 170.453636 225.155053 
L 170.453636 224.630806 
L 170.602867 224.630806 
L 170.602867 224.106558 
L 170.813445 224.106558 
L 170.88018 222.533815 
L 171.023085 222.533815 
L 171.123216 220.436824 
L 171.469939 220.436824 
L 171.500261 219.388328 
L 171.771288 219.388328 
L 171.858473 218.339833 
L 171.921788 218.339833 
L 171.921788 217.815585 
L 172.064918 217.815585 
L 172.157669 216.242842 
L 172.276403 216.242842 
L 172.276403 215.718594 
L 172.46459 215.718594 
L 172.517841 214.670099 
L 172.579759 214.670099 
L 172.579759 214.145851 
L 172.691724 214.145851 
L 172.732127 213.097356 
L 172.954816 213.097356 
L 172.954816 212.573108 
L 173.411363 212.573108 
L 173.474341 211.000365 
L 173.646697 211.000365 
L 173.681237 209.95187 
L 173.986308 209.95187 
L 173.986308 209.427622 
L 174.196101 209.427622 
L 174.196101 208.903374 
L 174.310028 208.903374 
L 174.409539 207.854879 
L 174.534765 207.854879 
L 174.599 206.806383 
L 174.845831 206.806383 
L 174.892202 205.757888 
L 174.993524 205.757888 
L 174.993524 205.23364 
L 175.398774 205.23364 
L 175.443264 204.185145 
L 175.599106 204.185145 
L 175.599106 203.660897 
L 175.742126 203.660897 
L 175.786551 202.612401 
L 175.928025 202.612401 
L 175.944569 201.039658 
L 176.194813 201.039658 
L 176.194813 200.515411 
L 176.424216 200.515411 
L 176.424216 199.991163 
L 176.829275 199.991163 
L 176.842678 198.942667 
L 176.984488 198.942667 
L 176.984488 198.41842 
L 177.281072 198.41842 
L 177.333605 197.369924 
L 177.486193 197.369924 
L 177.486193 196.845677 
L 177.725296 196.845677 
L 177.811622 195.797181 
L 177.893557 195.797181 
L 177.893557 195.272933 
L 178.109683 195.272933 
L 178.109683 194.748686 
L 178.225568 194.748686 
L 178.225568 194.224438 
L 178.668374 194.224438 
L 178.673536 193.175943 
L 179.091664 193.175943 
L 179.091664 192.651695 
L 179.290004 192.651695 
L 179.323834 191.603199 
L 179.52968 191.603199 
L 179.52968 191.078952 
L 179.820225 191.078952 
L 179.820225 190.554704 
L 179.988398 190.554704 
L 180.032332 188.981961 
L 180.203805 188.981961 
L 180.203805 188.457713 
L 180.351128 188.457713 
L 180.380441 187.409218 
L 180.465293 187.409218 
L 180.465293 186.88497 
L 180.659827 186.88497 
L 180.671472 185.836474 
L 180.795402 185.836474 
L 180.795402 185.312227 
L 181.231744 185.312227 
L 181.231744 184.787979 
L 181.40757 184.787979 
L 181.40757 184.263731 
L 182.378153 184.263731 
L 182.378153 183.739484 
L 182.856053 183.739484 
L 182.856053 183.215236 
L 183.195311 183.215236 
L 183.195311 182.690988 
L 192.699461 182.690988 
L 192.699461 182.16674 
L 193.10131 182.16674 
L 193.10131 181.642493 
L 193.371937 181.642493 
L 193.371937 181.118245 
L 193.57645 181.118245 
L 193.57645 180.593997 
L 193.765406 180.593997 
L 193.765406 180.06975 
L 194.0336 180.06975 
L 194.0336 179.545502 
L 194.190717 179.545502 
L 194.190717 179.021254 
L 194.435359 179.021254 
L 194.435359 178.497006 
L 194.781362 178.497006 
L 194.854406 176.924263 
L 195.134277 176.924263 
L 195.134277 176.400016 
L 195.363854 176.400016 
L 195.379224 175.35152 
L 195.489796 175.35152 
L 195.589504 174.303025 
L 195.646387 174.303025 
L 195.646387 173.778777 
L 195.811342 173.778777 
L 195.858509 172.206034 
L 196.237695 172.206034 
L 196.237695 171.681786 
L 196.372046 171.681786 
L 196.467268 169.584795 
L 196.857071 169.584795 
L 196.857071 169.060547 
L 197.023404 169.060547 
L 197.051542 168.012052 
L 197.269517 168.012052 
L 197.269517 167.487804 
L 197.429267 167.487804 
L 197.429267 166.963557 
L 197.542719 166.963557 
L 197.549146 165.915061 
L 197.845744 165.915061 
L 197.845744 165.390813 
L 198.303844 165.390813 
L 198.303844 164.866566 
L 198.595041 164.866566 
L 198.663581 163.293823 
L 199.62726 163.293823 
L 199.62726 162.769575 
L 204.714302 162.769575 
L 204.714302 162.245327 
L 205.076695 162.245327 
L 205.076695 161.721079 
L 205.516637 161.721079 
L 205.516637 161.196832 
L 205.719726 161.196832 
L 205.719726 160.672584 
L 206.398645 160.672584 
L 206.421603 159.624089 
L 206.675987 159.624089 
L 206.675987 159.099841 
L 206.935438 159.099841 
L 206.935438 158.575593 
L 207.260112 158.575593 
L 207.260112 158.051345 
L 208.231401 158.051345 
L 208.231401 157.527098 
L 215.812841 157.527098 
L 215.812841 157.00285 
L 215.946598 157.00285 
L 215.946598 156.478602 
L 216.084047 156.478602 
L 216.125726 155.430107 
L 216.228923 155.430107 
L 216.334274 152.808868 
L 216.373509 152.808868 
L 216.479278 150.711877 
L 216.525338 150.711877 
L 216.636115 147.042143 
L 216.650323 147.042143 
L 216.727768 144.420905 
L 216.908728 144.420905 
L 216.973607 143.372409 
L 217.082279 143.372409 
L 217.082279 142.848162 
L 219.841454 142.848162 
L 219.841454 142.323914 
L 220.040974 142.323914 
L 220.100162 140.751171 
L 220.157945 140.751171 
L 220.204819 139.702675 
L 220.311132 139.702675 
L 220.392595 138.129932 
L 220.458881 138.129932 
L 220.53302 136.557189 
L 220.60405 136.557189 
L 220.60405 136.032941 
L 223.189731 136.032941 
L 223.189731 135.508693 
L 223.440375 135.508693 
L 223.440375 134.984446 
L 227.12252 134.984446 
L 227.2246 133.411703 
L 227.243006 133.411703 
L 227.343585 129.217721 
L 227.499085 129.217721 
L 227.520672 127.644978 
L 227.664518 127.644978 
L 227.664518 127.12073 
L 229.133228 127.12073 
L 229.133228 126.596482 
L 229.304449 126.596482 
L 229.40184 123.975244 
L 229.463714 123.975244 
L 229.538077 121.354005 
L 229.584111 121.354005 
L 229.641059 119.781262 
L 231.084668 119.781262 
L 231.145348 118.732766 
L 231.210835 118.732766 
L 231.214122 117.684271 
L 231.351925 117.684271 
L 231.37096 116.635776 
L 232.935423 116.635776 
L 232.935423 116.111528 
L 233.837399 116.111528 
L 233.939927 114.538785 
L 233.99614 114.538785 
L 234.102244 112.966042 
L 234.135806 112.966042 
L 234.135806 111.917546 
L 235.328716 111.917546 
L 235.428879 109.296308 
L 235.486206 109.296308 
L 235.523108 108.247812 
L 236.81537 108.247812 
L 236.81537 107.723564 
L 238.137786 107.723564 
L 238.137786 107.199317 
L 238.689473 107.199317 
L 238.776666 104.578078 
L 238.816612 104.578078 
L 238.879541 103.005335 
L 239.180787 103.005335 
L 239.180787 102.481087 
L 239.773468 102.481087 
L 239.847284 100.908344 
L 239.995409 100.908344 
L 239.995409 100.384096 
L 240.201522 100.384096 
L 240.201522 99.859849 
L 240.856827 99.859849 
L 240.870437 98.811353 
L 240.998791 98.811353 
L 240.998791 98.287105 
L 241.844216 98.287105 
L 241.902205 96.714362 
L 241.975802 96.714362 
L 241.975802 96.190115 
L 242.455402 96.190115 
L 242.560939 93.568876 
L 242.567154 93.568876 
L 242.588281 91.996133 
L 242.89319 91.996133 
L 242.89319 91.471885 
L 243.392206 91.471885 
L 243.466181 88.850646 
L 244.258532 88.850646 
L 244.258532 88.326399 
L 244.955438 88.326399 
L 244.955438 87.802151 
L 245.131354 87.802151 
L 245.131354 87.277903 
L 245.530072 87.277903 
L 245.530072 86.753656 
L 245.853059 86.753656 
L 245.853059 86.229408 
L 246.338498 86.229408 
L 246.383563 85.180912 
L 246.534954 85.180912 
L 246.534954 84.656665 
L 246.961046 84.656665 
L 247.048414 83.083922 
L 247.68104 83.083922 
L 247.787833 79.938435 
L 248.135906 79.938435 
L 248.217076 76.792949 
L 248.330374 76.792949 
L 248.385239 75.744454 
L 248.796503 75.744454 
L 248.82723 74.695958 
L 249.462642 74.695958 
L 249.476158 73.647463 
L 250.027473 73.647463 
L 250.027473 73.123215 
L 250.543044 73.123215 
L 250.599501 72.074719 
L 250.948424 72.074719 
L 251.047456 69.453481 
L 251.601926 69.453481 
L 251.601926 68.929233 
L 252.07228 68.929233 
L 252.096508 67.880738 
L 252.959464 67.880738 
L 252.959464 67.35649 
L 253.082959 67.35649 
L 253.086193 66.307995 
L 253.40681 66.307995 
L 253.470954 64.735251 
L 253.856893 64.735251 
L 253.92923 63.686756 
L 254.337938 63.686756 
L 254.337938 63.162508 
L 254.65308 63.162508 
L 254.749718 61.589765 
L 254.872996 61.589765 
L 254.872996 61.065517 
L 255.112813 61.065517 
L 255.115404 60.017022 
L 255.271155 60.017022 
L 255.271155 59.492774 
L 255.963698 59.492774 
L 255.963698 58.968526 
L 256.262931 58.968526 
L 256.297392 57.920031 
L 256.659894 57.920031 
L 256.659894 57.395783 
L 257.437248 57.395783 
L 257.437248 56.871536 
L 257.707658 56.871536 
L 257.73642 55.82304 
L 257.836442 55.82304 
L 257.836442 55.298792 
L 258.072132 55.298792 
L 258.108467 54.250297 
L 258.711661 54.250297 
L 258.711661 53.726049 
L 259.047668 53.726049 
L 259.156066 52.153306 
L 259.351126 52.153306 
L 259.412576 50.056315 
L 259.469542 50.056315 
L 259.469542 49.532068 
L 259.723084 49.532068 
L 259.723084 49.00782 
L 260.302846 49.00782 
L 260.302846 48.483572 
L 260.630986 48.483572 
L 260.630986 47.959324 
L 260.894243 47.959324 
L 260.894243 47.435077 
L 261.007197 47.435077 
L 261.007197 46.910829 
L 261.216129 46.910829 
L 261.216129 46.386581 
L 261.497044 46.386581 
L 261.497044 45.862334 
L 261.822278 45.862334 
L 261.822278 45.338086 
L 262.313522 45.338086 
L 262.317883 43.765343 
L 262.524049 43.765343 
L 262.60412 42.716847 
L 263.529589 42.716847 
L 263.611429 41.668352 
L 264.31194 41.668352 
L 264.31194 41.144104 
L 264.575297 41.144104 
L 264.575297 40.619856 
L 265.400006 40.619856 
L 265.400006 40.095609 
L 265.883169 40.095609 
L 265.917075 39.047113 
L 267.452153 39.047113 
L 267.452153 38.522865 
L 270.440687 38.522865 
L 270.440687 37.998618 
L 271.678528 37.998618 
L 271.678528 37.47437 
L 272.184802 37.47437 
L 272.184802 36.950122 
L 272.430045 36.950122 
L 272.430045 36.425875 
L 273.076132 36.425875 
L 273.076132 35.901627 
L 273.602714 35.901627 
L 273.602714 35.377379 
L 273.777054 35.377379 
L 273.827682 33.804636 
L 274.556168 33.804636 
L 274.556168 33.280388 
L 274.798191 33.280388 
L 274.798191 32.756141 
L 275.597484 32.756141 
L 275.597484 32.231893 
L 278.042591 32.231893 
L 278.042591 31.707645 
L 278.877619 31.707645 
L 278.877619 31.183397 
L 282.078642 31.183397 
L 282.158995 30.134902 
L 282.422523 30.134902 
L 282.422523 29.610654 
L 282.855336 29.610654 
L 282.855336 29.086407 
L 283.24169 29.086407 
L 283.24169 28.562159 
L 285.343301 28.562159 
L 285.343301 28.037911 
L 286.944627 28.037911 
L 286.944627 27.513663 
L 333.168 27.513663 
L 333.168 27.513663 
" style="fill:none;stroke:#ff7500;stroke-linecap:square;stroke-width:1.5;"/>
   </g>
   <g id="line2d_54">
    <defs>
     <path d="M 0 -6 
L -1.347084 -1.854102 
L -5.706339 -1.854102 
L -2.179628 0.708204 
L -3.526712 4.854102 
L -0 2.291796 
L 3.526712 4.854102 
L 2.179628 0.708204 
L 5.706339 -1.854102 
L 1.347084 -1.854102 
z
" id="me30b369535" style="stroke:#ff7500;stroke-linejoin:bevel;stroke-width:1.5;"/>
    </defs>
    <g>
     <use style="fill:none;stroke:#ff7500;stroke-linejoin:bevel;stroke-width:1.5;" x="152.789162" xlink:href="#me30b369535" y="270.240357"/>
     <use style="fill:none;stroke:#ff7500;stroke-linejoin:bevel;stroke-width:1.5;" x="216.973607" xlink:href="#me30b369535" y="143.896657"/>
     <use style="fill:none;stroke:#ff7500;stroke-linejoin:bevel;stroke-width:1.5;" x="278.877619" xlink:href="#me30b369535" y="31.707645"/>
     <use style="fill:none;stroke:#ff7500;stroke-linejoin:bevel;stroke-width:1.5;" x="286.944627" xlink:href="#me30b369535" y="27.513663"/>
     <use style="fill:none;stroke:#ff7500;stroke-linejoin:bevel;stroke-width:1.5;" x="333.168" xlink:href="#me30b369535" y="27.513663"/>
    </g>
   </g>
   <g id="line2d_55">
    <path style="fill:none;stroke:#ff7500;stroke-linecap:square;stroke-width:1.5;"/>
    <g/>
   </g>
   <g id="line2d_56">
    <path clip-path="url(#pff80c31112)" d="M 214.433143 157.527098 
" style="fill:none;stroke:#ff7500;stroke-linecap:square;stroke-width:1.5;"/>
    <defs>
     <path d="M -12 12 
L 12 -12 
M -12 -12 
L 12 12 
" id="m1f05762a1f" style="stroke:#ff7500;"/>
    </defs>
    <g clip-path="url(#pff80c31112)">
     <use style="fill:#ff7500;stroke:#ff7500;" x="214.433143" xlink:href="#m1f05762a1f" y="157.527098"/>
    </g>
   </g>
   <g id="line2d_57">
    <defs>
     <path d="M 0 1.5 
C 0.397805 1.5 0.77937 1.341951 1.06066 1.06066 
C 1.341951 0.77937 1.5 0.397805 1.5 0 
C 1.5 -0.397805 1.341951 -0.77937 1.06066 -1.06066 
C 0.77937 -1.341951 0.397805 -1.5 0 -1.5 
C -0.397805 -1.5 -0.77937 -1.341951 -1.06066 -1.06066 
C -1.341951 -0.77937 -1.5 -0.397805 -1.5 0 
C -1.5 0.397805 -1.341951 0.77937 -1.06066 1.06066 
C -0.77937 1.341951 -0.397805 1.5 0 1.5 
z
" id="m0e9807105b" style="stroke:#6495ed;"/>
    </defs>
    <g>
     <use style="fill:#6495ed;stroke:#6495ed;" x="293.429611" xlink:href="#m0e9807105b" y="231.970274"/>
     <use style="fill:#6495ed;stroke:#6495ed;" x="293.429611" xlink:href="#m0e9807105b" y="231.970274"/>
    </g>
   </g>
   <g id="line2d_58">
    <path d="M -1 290.686018 
L 4.627463 290.686018 
L 4.627463 289.113275 
L 28.455965 289.113275 
L 28.455965 288.06478 
L 32.291498 288.06478 
L 32.291498 287.540532 
L 38.074995 287.540532 
L 38.074995 286.492036 
L 41.412271 286.492036 
L 41.412271 285.967789 
L 42.394746 285.967789 
L 42.394746 285.443541 
L 45.844 285.443541 
L 45.844 284.919293 
L 49.989246 284.919293 
L 49.989246 284.395046 
L 120.729861 284.395046 
L 120.729861 283.870798 
L 121.426727 283.870798 
L 121.436343 282.822302 
L 122.050119 282.822302 
L 122.050119 282.298055 
L 122.280471 282.298055 
L 122.280471 281.773807 
L 123.828625 281.773807 
L 123.828625 281.249559 
L 124.019935 281.249559 
L 124.019935 280.725312 
L 126.574779 280.725312 
L 126.574779 280.201064 
L 126.934579 280.201064 
L 126.934579 279.676816 
L 128.101845 279.676816 
L 128.101845 279.152568 
L 129.474156 279.152568 
L 129.474156 278.628321 
L 129.641969 278.628321 
L 129.641969 278.104073 
L 130.87868 278.104073 
L 130.972774 277.055578 
L 131.865471 277.055578 
L 131.865471 276.53133 
L 132.42232 276.53133 
L 132.42232 276.007082 
L 132.991169 276.007082 
L 132.991169 275.482834 
L 133.441679 275.482834 
L 133.441679 274.958587 
L 134.176407 274.958587 
L 134.176407 274.434339 
L 134.881013 274.434339 
L 134.881013 273.910091 
L 135.336627 273.910091 
L 135.336627 273.385844 
L 136.070131 273.385844 
L 136.070131 272.861596 
L 136.871798 272.861596 
L 136.871798 272.337348 
L 137.186126 272.337348 
L 137.186126 271.8131 
L 137.528768 271.8131 
L 137.528768 271.288853 
L 137.708755 271.288853 
L 137.708755 270.764605 
L 137.905326 270.764605 
L 138.01194 269.716109 
L 138.223203 269.716109 
L 138.223203 269.191862 
L 138.581462 269.191862 
L 138.581462 268.667614 
L 139.354465 268.667614 
L 139.354465 268.143366 
L 139.822576 268.143366 
L 139.924528 267.094871 
L 140.15254 267.094871 
L 140.15254 266.570623 
L 141.291774 266.570623 
L 141.367315 265.522128 
L 141.933748 265.522128 
L 141.933748 264.99788 
L 142.320285 264.99788 
L 142.320285 264.473632 
L 143.130917 264.473632 
L 143.130917 263.949385 
L 143.719352 263.949385 
L 143.719352 263.425137 
L 143.962166 263.425137 
L 144.006183 262.376641 
L 145.163608 262.376641 
L 145.163608 261.852394 
L 145.463173 261.852394 
L 145.463173 261.328146 
L 145.950361 261.328146 
L 145.950361 260.803898 
L 146.163802 260.803898 
L 146.163802 260.279651 
L 146.560619 260.279651 
L 146.560619 259.755403 
L 147.725995 259.755403 
L 147.725995 259.231155 
L 147.984382 259.231155 
L 147.984382 258.706907 
L 148.271256 258.706907 
L 148.271256 258.18266 
L 149.993859 258.18266 
L 149.993859 257.658412 
L 150.44067 257.658412 
L 150.44067 257.134164 
L 150.575303 257.134164 
L 150.575303 256.609917 
L 151.688932 256.609917 
L 151.688932 256.085669 
L 153.160541 256.085669 
L 153.160541 255.561421 
L 169.353334 255.561421 
L 169.353334 255.037173 
L 170.480261 255.037173 
L 170.480261 254.512926 
L 171.314885 254.512926 
L 171.314885 253.988678 
L 171.734745 253.988678 
L 171.820576 252.940182 
L 172.134024 252.940182 
L 172.216387 251.891687 
L 172.813615 251.891687 
L 172.813615 251.367439 
L 173.009442 251.367439 
L 173.009442 250.843192 
L 173.29177 250.843192 
L 173.29177 250.318944 
L 174.791573 250.318944 
L 174.791573 249.794696 
L 174.9517 249.794696 
L 174.9517 249.270448 
L 181.558938 249.270448 
L 181.558938 248.746201 
L 181.813931 248.746201 
L 181.813931 248.221953 
L 182.212307 248.221953 
L 182.231622 247.173458 
L 183.230456 247.173458 
L 183.230456 246.64921 
L 189.266818 246.64921 
L 189.266818 246.124962 
L 196.754017 246.124962 
L 196.754017 245.600714 
L 198.35648 245.600714 
L 198.35648 245.076467 
L 216.154208 245.076467 
L 216.154208 244.552219 
L 216.273689 244.552219 
L 216.273689 244.027971 
L 221.943563 244.027971 
L 221.943563 243.503724 
L 223.210605 243.503724 
L 223.210605 242.979476 
L 223.635419 242.979476 
L 223.635419 242.455228 
L 225.078805 242.455228 
L 225.078805 241.93098 
L 226.852841 241.93098 
L 226.852841 241.406733 
L 232.957918 241.406733 
L 232.957918 240.882485 
L 233.198666 240.882485 
L 233.198666 240.358237 
L 236.832481 240.358237 
L 236.832481 239.83399 
L 238.570072 239.83399 
L 238.570072 239.309742 
L 241.451838 239.309742 
L 241.451838 238.785494 
L 242.436327 238.785494 
L 242.436395 237.736999 
L 248.026617 237.736999 
L 248.026617 237.212751 
L 253.691831 237.212751 
L 253.691831 236.688503 
L 265.109493 236.688503 
L 265.109493 236.164255 
L 266.011156 236.164255 
L 266.011156 235.640008 
L 268.312682 235.640008 
L 268.312682 235.11576 
L 269.111401 235.11576 
L 269.111401 234.591512 
L 272.789273 234.591512 
L 272.789273 234.067265 
L 272.95216 234.067265 
L 272.95216 233.543017 
L 275.593634 233.543017 
L 275.593634 233.018769 
L 280.966525 233.018769 
L 280.966525 232.494521 
L 293.429611 232.494521 
L 293.429611 231.970274 
L 333.168 231.970274 
L 333.168 231.970274 
" style="fill:none;stroke:#6495ed;stroke-linecap:square;stroke-width:1.5;"/>
   </g>
   <g id="line2d_59">
    <defs>
     <path d="M -0 6 
L 6 -6 
L -6 -6 
z
" id="m9ceb396ae8" style="stroke:#6495ed;stroke-linejoin:miter;stroke-width:1.5;"/>
    </defs>
    <g>
     <use style="fill:none;stroke:#6495ed;stroke-linejoin:miter;stroke-width:1.5;" x="126.934579" xlink:href="#m9ceb396ae8" y="280.201064"/>
     <use style="fill:none;stroke:#6495ed;stroke-linejoin:miter;stroke-width:1.5;" x="189.266818" xlink:href="#m9ceb396ae8" y="246.64921"/>
     <use style="fill:none;stroke:#6495ed;stroke-linejoin:miter;stroke-width:1.5;" x="280.966525" xlink:href="#m9ceb396ae8" y="233.018769"/>
     <use style="fill:none;stroke:#6495ed;stroke-linejoin:miter;stroke-width:1.5;" x="293.429611" xlink:href="#m9ceb396ae8" y="231.970274"/>
     <use style="fill:none;stroke:#6495ed;stroke-linejoin:miter;stroke-width:1.5;" x="333.168" xlink:href="#m9ceb396ae8" y="231.970274"/>
    </g>
   </g>
   <g id="line2d_60">
    <path style="fill:none;stroke:#6495ed;stroke-linecap:square;stroke-width:1.5;"/>
    <g/>
   </g>
   <g id="line2d_61">
    <path clip-path="url(#pff80c31112)" d="M 242.097289 238.785494 
" style="fill:none;stroke:#6495ed;stroke-linecap:square;stroke-width:1.5;"/>
    <defs>
     <path d="M -12 12 
L 12 -12 
M -12 -12 
L 12 12 
" id="m977ad5c2e2" style="stroke:#6495ed;"/>
    </defs>
    <g clip-path="url(#pff80c31112)">
     <use style="fill:#6495ed;stroke:#6495ed;" x="242.097289" xlink:href="#m977ad5c2e2" y="238.785494"/>
    </g>
   </g>
   <g id="line2d_62">
    <path d="M 333.168 284.395046 
L 363.64328 289.532673 
" style="fill:none;stroke:#000080;stroke-linecap:square;stroke-width:1.5;"/>
    <g>
     <use style="fill:none;stroke:#000080;stroke-width:1.5;" x="333.168" xlink:href="#m602b29a7c4" y="284.395046"/>
     <use style="fill:none;stroke:#000080;stroke-width:1.5;" x="363.64328" xlink:href="#m602b29a7c4" y="289.532673"/>
    </g>
   </g>
   <g id="line2d_63">
    <path d="M 333.168 242.455228 
L 363.64328 225.364752 
" style="fill:none;stroke:#ff00ff;stroke-linecap:square;stroke-width:1.5;"/>
    <g>
     <use style="fill:none;stroke:#ff00ff;stroke-linejoin:miter;stroke-width:1.5;" x="333.168" xlink:href="#m0291b4e30f" y="242.455228"/>
     <use style="fill:none;stroke:#ff00ff;stroke-linejoin:miter;stroke-width:1.5;" x="363.64328" xlink:href="#m0291b4e30f" y="225.364752"/>
    </g>
   </g>
   <g id="line2d_64">
    <path d="M 333.168 231.970274 
L 363.64328 161.196832 
" style="fill:none;stroke:#6495ed;stroke-linecap:square;stroke-width:1.5;"/>
    <g>
     <use style="fill:none;stroke:#6495ed;stroke-linejoin:miter;stroke-width:1.5;" x="333.168" xlink:href="#m9ceb396ae8" y="231.970274"/>
     <use style="fill:none;stroke:#6495ed;stroke-linejoin:miter;stroke-width:1.5;" x="363.64328" xlink:href="#m9ceb396ae8" y="161.196832"/>
    </g>
   </g>
   <g id="line2d_65">
    <path d="M 333.168 27.513663 
L 363.64328 97.028911 
" style="fill:none;stroke:#ff7500;stroke-linecap:square;stroke-width:1.5;"/>
    <g>
     <use style="fill:none;stroke:#ff7500;stroke-linejoin:bevel;stroke-width:1.5;" x="333.168" xlink:href="#me30b369535" y="27.513663"/>
     <use style="fill:none;stroke:#ff7500;stroke-linejoin:bevel;stroke-width:1.5;" x="363.64328" xlink:href="#me30b369535" y="97.028911"/>
    </g>
   </g>
   <g id="line2d_66">
    <path d="M 333.168 294.88 
L 333.168 27.513663 
" style="fill:none;stroke:#000000;stroke-linecap:square;stroke-width:1.5;"/>
   </g>
   <g id="patch_3">
    <path d="M 56.12 294.88 
L 56.12 24.84 
" style="fill:none;stroke:#000000;stroke-linecap:square;stroke-linejoin:miter;stroke-width:0.8;"/>
   </g>
   <g id="patch_4">
    <path d="M 333.168 294.88 
L 333.168 24.84 
" style="fill:none;stroke:#000000;stroke-linecap:square;stroke-linejoin:miter;stroke-width:0.8;"/>
   </g>
   <g id="patch_5">
    <path d="M 56.12 294.88 
L 333.168 294.88 
" style="fill:none;stroke:#000000;stroke-linecap:square;stroke-linejoin:miter;stroke-width:0.8;"/>
   </g>
   <g id="patch_6">
    <path d="M 56.12 24.84 
L 333.168 24.84 
" style="fill:none;stroke:#000000;stroke-linecap:square;stroke-linejoin:miter;stroke-width:0.8;"/>
   </g>
   <g id="text_13">
    <!-- scipyAlg -->
    <defs>
     <path d="M 32.171875 -5.078125 
Q 28.375 -14.84375 24.75 -17.8125 
Q 21.140625 -20.796875 15.09375 -20.796875 
L 7.90625 -20.796875 
L 7.90625 -13.28125 
L 13.1875 -13.28125 
Q 16.890625 -13.28125 18.9375 -11.515625 
Q 21 -9.765625 23.484375 -3.21875 
L 25.09375 0.875 
L 2.984375 54.6875 
L 12.5 54.6875 
L 29.59375 11.921875 
L 46.6875 54.6875 
L 56.203125 54.6875 
z
" id="DejaVuSans-79"/>
     <path d="M 34.1875 63.1875 
L 20.796875 26.90625 
L 47.609375 26.90625 
z
M 28.609375 72.90625 
L 39.796875 72.90625 
L 67.578125 0 
L 57.328125 0 
L 50.6875 18.703125 
L 17.828125 18.703125 
L 11.1875 0 
L 0.78125 0 
z
" id="DejaVuSans-41"/>
    </defs>
    <g transform="translate(369.18424 294.223611)scale(0.17 -0.17)">
     <use xlink:href="#DejaVuSans-73"/>
     <use x="52.099609" xlink:href="#DejaVuSans-63"/>
     <use x="107.080078" xlink:href="#DejaVuSans-69"/>
     <use x="134.863281" xlink:href="#DejaVuSans-70"/>
     <use x="198.339844" xlink:href="#DejaVuSans-79"/>
     <use x="257.519531" xlink:href="#DejaVuSans-41"/>
     <use x="325.927734" xlink:href="#DejaVuSans-6c"/>
     <use x="353.710938" xlink:href="#DejaVuSans-67"/>
    </g>
   </g>
   <g id="text_14">
    <!-- CMA ES PPM -->
    <defs>
     <path d="M 64.40625 67.28125 
L 64.40625 56.890625 
Q 59.421875 61.53125 53.78125 63.8125 
Q 48.140625 66.109375 41.796875 66.109375 
Q 29.296875 66.109375 22.65625 58.46875 
Q 16.015625 50.828125 16.015625 36.375 
Q 16.015625 21.96875 22.65625 14.328125 
Q 29.296875 6.6875 41.796875 6.6875 
Q 48.140625 6.6875 53.78125 8.984375 
Q 59.421875 11.28125 64.40625 15.921875 
L 64.40625 5.609375 
Q 59.234375 2.09375 53.4375 0.328125 
Q 47.65625 -1.421875 41.21875 -1.421875 
Q 24.65625 -1.421875 15.125 8.703125 
Q 5.609375 18.84375 5.609375 36.375 
Q 5.609375 53.953125 15.125 64.078125 
Q 24.65625 74.21875 41.21875 74.21875 
Q 47.75 74.21875 53.53125 72.484375 
Q 59.328125 70.75 64.40625 67.28125 
z
" id="DejaVuSans-43"/>
     <path d="M 9.8125 72.90625 
L 24.515625 72.90625 
L 43.109375 23.296875 
L 61.8125 72.90625 
L 76.515625 72.90625 
L 76.515625 0 
L 66.890625 0 
L 66.890625 64.015625 
L 48.09375 14.015625 
L 38.1875 14.015625 
L 19.390625 64.015625 
L 19.390625 0 
L 9.8125 0 
z
" id="DejaVuSans-4d"/>
     <path d="M 9.8125 72.90625 
L 55.90625 72.90625 
L 55.90625 64.59375 
L 19.671875 64.59375 
L 19.671875 43.015625 
L 54.390625 43.015625 
L 54.390625 34.71875 
L 19.671875 34.71875 
L 19.671875 8.296875 
L 56.78125 8.296875 
L 56.78125 0 
L 9.8125 0 
z
" id="DejaVuSans-45"/>
     <path d="M 53.515625 70.515625 
L 53.515625 60.890625 
Q 47.90625 63.578125 42.921875 64.890625 
Q 37.9375 66.21875 33.296875 66.21875 
Q 25.25 66.21875 20.875 63.09375 
Q 16.5 59.96875 16.5 54.203125 
Q 16.5 49.359375 19.40625 46.890625 
Q 22.3125 44.4375 30.421875 42.921875 
L 36.375 41.703125 
Q 47.40625 39.59375 52.65625 34.296875 
Q 57.90625 29 57.90625 20.125 
Q 57.90625 9.515625 50.796875 4.046875 
Q 43.703125 -1.421875 29.984375 -1.421875 
Q 24.8125 -1.421875 18.96875 -0.25 
Q 13.140625 0.921875 6.890625 3.21875 
L 6.890625 13.375 
Q 12.890625 10.015625 18.65625 8.296875 
Q 24.421875 6.59375 29.984375 6.59375 
Q 38.421875 6.59375 43.015625 9.90625 
Q 47.609375 13.234375 47.609375 19.390625 
Q 47.609375 24.75 44.3125 27.78125 
Q 41.015625 30.8125 33.5 32.328125 
L 27.484375 33.5 
Q 16.453125 35.6875 11.515625 40.375 
Q 6.59375 45.0625 6.59375 53.421875 
Q 6.59375 63.09375 13.40625 68.65625 
Q 20.21875 74.21875 32.171875 74.21875 
Q 37.3125 74.21875 42.625 73.28125 
Q 47.953125 72.359375 53.515625 70.515625 
z
" id="DejaVuSans-53"/>
     <path d="M 19.671875 64.796875 
L 19.671875 37.40625 
L 32.078125 37.40625 
Q 38.96875 37.40625 42.71875 40.96875 
Q 46.484375 44.53125 46.484375 51.125 
Q 46.484375 57.671875 42.71875 61.234375 
Q 38.96875 64.796875 32.078125 64.796875 
z
M 9.8125 72.90625 
L 32.078125 72.90625 
Q 44.34375 72.90625 50.609375 67.359375 
Q 56.890625 61.8125 56.890625 51.125 
Q 56.890625 40.328125 50.609375 34.8125 
Q 44.34375 29.296875 32.078125 29.296875 
L 19.671875 29.296875 
L 19.671875 0 
L 9.8125 0 
z
" id="DejaVuSans-50"/>
    </defs>
    <g transform="translate(369.18424 230.05569)scale(0.17 -0.17)">
     <use xlink:href="#DejaVuSans-43"/>
     <use x="69.824219" xlink:href="#DejaVuSans-4d"/>
     <use x="156.103516" xlink:href="#DejaVuSans-41"/>
     <use x="224.511719" xlink:href="#DejaVuSans-20"/>
     <use x="256.298828" xlink:href="#DejaVuSans-45"/>
     <use x="319.482422" xlink:href="#DejaVuSans-53"/>
     <use x="382.958984" xlink:href="#DejaVuSans-20"/>
     <use x="414.746094" xlink:href="#DejaVuSans-50"/>
     <use x="475.048828" xlink:href="#DejaVuSans-50"/>
     <use x="535.351562" xlink:href="#DejaVuSans-4d"/>
    </g>
   </g>
   <g id="text_15">
    <!-- CMAES posi -->
    <g transform="translate(369.18424 165.887769)scale(0.17 -0.17)">
     <use xlink:href="#DejaVuSans-43"/>
     <use x="69.824219" xlink:href="#DejaVuSans-4d"/>
     <use x="156.103516" xlink:href="#DejaVuSans-41"/>
     <use x="224.511719" xlink:href="#DejaVuSans-45"/>
     <use x="287.695312" xlink:href="#DejaVuSans-53"/>
     <use x="351.171875" xlink:href="#DejaVuSans-20"/>
     <use x="382.958984" xlink:href="#DejaVuSans-70"/>
     <use x="446.435547" xlink:href="#DejaVuSans-6f"/>
     <use x="507.617188" xlink:href="#DejaVuSans-73"/>
     <use x="559.716797" xlink:href="#DejaVuSans-69"/>
    </g>
   </g>
   <g id="text_16">
    <!-- CMA ES CSA -->
    <g transform="translate(369.18424 101.719848)scale(0.17 -0.17)">
     <use xlink:href="#DejaVuSans-43"/>
     <use x="69.824219" xlink:href="#DejaVuSans-4d"/>
     <use x="156.103516" xlink:href="#DejaVuSans-41"/>
     <use x="224.511719" xlink:href="#DejaVuSans-20"/>
     <use x="256.298828" xlink:href="#DejaVuSans-45"/>
     <use x="319.482422" xlink:href="#DejaVuSans-53"/>
     <use x="382.958984" xlink:href="#DejaVuSans-20"/>
     <use x="414.746094" xlink:href="#DejaVuSans-43"/>
     <use x="484.570312" xlink:href="#DejaVuSans-53"/>
     <use x="548.0625" xlink:href="#DejaVuSans-41"/>
    </g>
   </g>
   <g id="text_17">
    <!-- best 2009 -->
    <defs>
     <path d="M 48.6875 27.296875 
Q 48.6875 37.203125 44.609375 42.84375 
Q 40.53125 48.484375 33.40625 48.484375 
Q 26.265625 48.484375 22.1875 42.84375 
Q 18.109375 37.203125 18.109375 27.296875 
Q 18.109375 17.390625 22.1875 11.75 
Q 26.265625 6.109375 33.40625 6.109375 
Q 40.53125 6.109375 44.609375 11.75 
Q 48.6875 17.390625 48.6875 27.296875 
z
M 18.109375 46.390625 
Q 20.953125 51.265625 25.265625 53.625 
Q 29.59375 56 35.59375 56 
Q 45.5625 56 51.78125 48.09375 
Q 58.015625 40.1875 58.015625 27.296875 
Q 58.015625 14.40625 51.78125 6.484375 
Q 45.5625 -1.421875 35.59375 -1.421875 
Q 29.59375 -1.421875 25.265625 0.953125 
Q 20.953125 3.328125 18.109375 8.203125 
L 18.109375 0 
L 9.078125 0 
L 9.078125 75.984375 
L 18.109375 75.984375 
z
" id="DejaVuSans-62"/>
     <path d="M 10.984375 1.515625 
L 10.984375 10.5 
Q 14.703125 8.734375 18.5 7.8125 
Q 22.3125 6.890625 25.984375 6.890625 
Q 35.75 6.890625 40.890625 13.453125 
Q 46.046875 20.015625 46.78125 33.40625 
Q 43.953125 29.203125 39.59375 26.953125 
Q 35.25 24.703125 29.984375 24.703125 
Q 19.046875 24.703125 12.671875 31.3125 
Q 6.296875 37.9375 6.296875 49.421875 
Q 6.296875 60.640625 12.9375 67.421875 
Q 19.578125 74.21875 30.609375 74.21875 
Q 43.265625 74.21875 49.921875 64.515625 
Q 56.59375 54.828125 56.59375 36.375 
Q 56.59375 19.140625 48.40625 8.859375 
Q 40.234375 -1.421875 26.421875 -1.421875 
Q 22.703125 -1.421875 18.890625 -0.6875 
Q 15.09375 0.046875 10.984375 1.515625 
z
M 30.609375 32.421875 
Q 37.25 32.421875 41.125 36.953125 
Q 45.015625 41.5 45.015625 49.421875 
Q 45.015625 57.28125 41.125 61.84375 
Q 37.25 66.40625 30.609375 66.40625 
Q 23.96875 66.40625 20.09375 61.84375 
Q 16.21875 57.28125 16.21875 49.421875 
Q 16.21875 41.5 20.09375 36.953125 
Q 23.96875 32.421875 30.609375 32.421875 
z
" id="DejaVuSans-39"/>
    </defs>
    <g transform="translate(369.18424 37.551928)scale(0.17 -0.17)">
     <use xlink:href="#DejaVuSans-62"/>
     <use x="63.476562" xlink:href="#DejaVuSans-65"/>
     <use x="125" xlink:href="#DejaVuSans-73"/>
     <use x="177.099609" xlink:href="#DejaVuSans-74"/>
     <use x="216.308594" xlink:href="#DejaVuSans-20"/>
     <use x="248.095703" xlink:href="#DejaVuSans-32"/>
     <use x="311.71875" xlink:href="#DejaVuSans-30"/>
     <use x="375.341797" xlink:href="#DejaVuSans-30"/>
     <use x="438.964844" xlink:href="#DejaVuSans-39"/>
    </g>
   </g>
   <g id="text_18">
    <!-- bbob f16, 40-D -->
    <defs>
     <path d="M 19.671875 64.796875 
L 19.671875 8.109375 
L 31.59375 8.109375 
Q 46.6875 8.109375 53.6875 14.9375 
Q 60.6875 21.78125 60.6875 36.53125 
Q 60.6875 51.171875 53.6875 57.984375 
Q 46.6875 64.796875 31.59375 64.796875 
z
M 9.8125 72.90625 
L 30.078125 72.90625 
Q 51.265625 72.90625 61.171875 64.09375 
Q 71.09375 55.28125 71.09375 36.53125 
Q 71.09375 17.671875 61.125 8.828125 
Q 51.171875 0 30.078125 0 
L 9.8125 0 
z
" id="DejaVuSans-44"/>
    </defs>
    <g transform="translate(58.89048 35.290806)scale(0.102 -0.102)">
     <use xlink:href="#DejaVuSans-62"/>
     <use x="63.476562" xlink:href="#DejaVuSans-62"/>
     <use x="126.953125" xlink:href="#DejaVuSans-6f"/>
     <use x="188.134766" xlink:href="#DejaVuSans-62"/>
     <use x="251.611328" xlink:href="#DejaVuSans-20"/>
     <use x="283.398438" xlink:href="#DejaVuSans-66"/>
     <use x="318.603516" xlink:href="#DejaVuSans-31"/>
     <use x="382.226562" xlink:href="#DejaVuSans-36"/>
     <use x="445.849609" xlink:href="#DejaVuSans-2c"/>
     <use x="477.636719" xlink:href="#DejaVuSans-20"/>
     <use x="509.423828" xlink:href="#DejaVuSans-34"/>
     <use x="573.046875" xlink:href="#DejaVuSans-30"/>
     <use x="636.669922" xlink:href="#DejaVuSans-2d"/>
     <use x="672.753906" xlink:href="#DejaVuSans-44"/>
    </g>
    <!-- 51 targets: 100..1e-08 -->
    <defs>
     <path d="M 10.796875 72.90625 
L 49.515625 72.90625 
L 49.515625 64.59375 
L 19.828125 64.59375 
L 19.828125 46.734375 
Q 21.96875 47.46875 24.109375 47.828125 
Q 26.265625 48.1875 28.421875 48.1875 
Q 40.625 48.1875 47.75 41.5 
Q 54.890625 34.8125 54.890625 23.390625 
Q 54.890625 11.625 47.5625 5.09375 
Q 40.234375 -1.421875 26.90625 -1.421875 
Q 22.3125 -1.421875 17.546875 -0.640625 
Q 12.796875 0.140625 7.71875 1.703125 
L 7.71875 11.625 
Q 12.109375 9.234375 16.796875 8.0625 
Q 21.484375 6.890625 26.703125 6.890625 
Q 35.15625 6.890625 40.078125 11.328125 
Q 45.015625 15.765625 45.015625 23.390625 
Q 45.015625 31 40.078125 35.4375 
Q 35.15625 39.890625 26.703125 39.890625 
Q 22.75 39.890625 18.8125 39.015625 
Q 14.890625 38.140625 10.796875 36.28125 
z
" id="DejaVuSans-35"/>
     <path d="M 11.71875 12.40625 
L 22.015625 12.40625 
L 22.015625 0 
L 11.71875 0 
z
M 11.71875 51.703125 
L 22.015625 51.703125 
L 22.015625 39.3125 
L 11.71875 39.3125 
z
" id="DejaVuSans-3a"/>
    </defs>
    <g transform="translate(58.89048 46.712575)scale(0.102 -0.102)">
     <use xlink:href="#DejaVuSans-35"/>
     <use x="63.623047" xlink:href="#DejaVuSans-31"/>
     <use x="127.246094" xlink:href="#DejaVuSans-20"/>
     <use x="159.033203" xlink:href="#DejaVuSans-74"/>
     <use x="198.242188" xlink:href="#DejaVuSans-61"/>
     <use x="259.521484" xlink:href="#DejaVuSans-72"/>
     <use x="300.619141" xlink:href="#DejaVuSans-67"/>
     <use x="364.095703" xlink:href="#DejaVuSans-65"/>
     <use x="425.619141" xlink:href="#DejaVuSans-74"/>
     <use x="464.828125" xlink:href="#DejaVuSans-73"/>
     <use x="516.927734" xlink:href="#DejaVuSans-3a"/>
     <use x="550.619141" xlink:href="#DejaVuSans-20"/>
     <use x="582.40625" xlink:href="#DejaVuSans-31"/>
     <use x="646.029297" xlink:href="#DejaVuSans-30"/>
     <use x="709.652344" xlink:href="#DejaVuSans-30"/>
     <use x="773.275391" xlink:href="#DejaVuSans-2e"/>
     <use x="805.0625" xlink:href="#DejaVuSans-2e"/>
     <use x="836.849609" xlink:href="#DejaVuSans-31"/>
     <use x="900.472656" xlink:href="#DejaVuSans-65"/>
     <use x="961.996094" xlink:href="#DejaVuSans-2d"/>
     <use x="998.080078" xlink:href="#DejaVuSans-30"/>
     <use x="1061.703125" xlink:href="#DejaVuSans-38"/>
    </g>
    <!-- 15 instances -->
    <g transform="translate(58.89048 58.134344)scale(0.102 -0.102)">
     <use xlink:href="#DejaVuSans-31"/>
     <use x="63.623047" xlink:href="#DejaVuSans-35"/>
     <use x="127.246094" xlink:href="#DejaVuSans-20"/>
     <use x="159.033203" xlink:href="#DejaVuSans-69"/>
     <use x="186.816406" xlink:href="#DejaVuSans-6e"/>
     <use x="250.195312" xlink:href="#DejaVuSans-73"/>
     <use x="302.294922" xlink:href="#DejaVuSans-74"/>
     <use x="341.503906" xlink:href="#DejaVuSans-61"/>
     <use x="402.783203" xlink:href="#DejaVuSans-6e"/>
     <use x="466.162109" xlink:href="#DejaVuSans-63"/>
     <use x="521.142578" xlink:href="#DejaVuSans-65"/>
     <use x="582.666016" xlink:href="#DejaVuSans-73"/>
    </g>
   </g>
   <g id="text_19">
    <!-- v0.0.0 -->
    <g style="fill:#808080;" transform="translate(178.96275 290.099912)scale(0.1 -0.1)">
     <use xlink:href="#DejaVuSans-76"/>
     <use x="59.179688" xlink:href="#DejaVuSans-30"/>
     <use x="122.802734" xlink:href="#DejaVuSans-2e"/>
     <use x="154.589844" xlink:href="#DejaVuSans-30"/>
     <use x="218.212891" xlink:href="#DejaVuSans-2e"/>
     <use x="250" xlink:href="#DejaVuSans-30"/>
    </g>
   </g>
   <g id="text_20">
    <!-- 16 Weierstrass -->
    <defs>
     <path d="M 3.328125 72.90625 
L 13.28125 72.90625 
L 28.609375 11.28125 
L 43.890625 72.90625 
L 54.984375 72.90625 
L 70.3125 11.28125 
L 85.59375 72.90625 
L 95.609375 72.90625 
L 77.296875 0 
L 64.890625 0 
L 49.515625 63.28125 
L 33.984375 0 
L 21.578125 0 
z
" id="DejaVuSans-57"/>
    </defs>
    <g transform="translate(119.878375 18.84)scale(0.2 -0.2)">
     <use xlink:href="#DejaVuSans-31"/>
     <use x="63.623047" xlink:href="#DejaVuSans-36"/>
     <use x="127.246094" xlink:href="#DejaVuSans-20"/>
     <use x="159.033203" xlink:href="#DejaVuSans-57"/>
     <use x="257.832031" xlink:href="#DejaVuSans-65"/>
     <use x="319.355469" xlink:href="#DejaVuSans-69"/>
     <use x="347.138672" xlink:href="#DejaVuSans-65"/>
     <use x="408.662109" xlink:href="#DejaVuSans-72"/>
     <use x="449.775391" xlink:href="#DejaVuSans-73"/>
     <use x="501.875" xlink:href="#DejaVuSans-74"/>
     <use x="541.083984" xlink:href="#DejaVuSans-72"/>
     <use x="582.197266" xlink:href="#DejaVuSans-61"/>
     <use x="643.476562" xlink:href="#DejaVuSans-73"/>
     <use x="695.576172" xlink:href="#DejaVuSans-73"/>
    </g>
   </g>
  </g>
 </g>
 <defs>
  <clipPath id="pff80c31112">
   <rect height="270.04" width="277.048" x="56.12" y="24.84"/>
  </clipPath>
 </defs>
</svg>
