<?xml version="1.0" encoding="utf-8" standalone="no"?>
<!DOCTYPE svg PUBLIC "-//W3C//DTD SVG 1.1//EN"
  "http://www.w3.org/Graphics/SVG/1.1/DTD/svg11.dtd">
<!-- Created with matplotlib (http://matplotlib.org/) -->
<svg height="345pt" version="1.1" viewBox="0 0 460 345" width="460pt" xmlns="http://www.w3.org/2000/svg" xmlns:xlink="http://www.w3.org/1999/xlink">
 <defs>
  <style type="text/css">
*{stroke-linecap:butt;stroke-linejoin:round;}
  </style>
 </defs>
 <g id="figure_1">
  <g id="patch_1">
   <path d="M 0 345.6 
L 460.8 345.6 
L 460.8 0 
L 0 0 
z
" style="fill:#ffffff;"/>
  </g>
  <g id="axes_1">
   <g id="patch_2">
    <path d="M 56.12 294.88 
L 333.168 294.88 
L 333.168 24.84 
L 56.12 24.84 
z
" style="fill:#ffffff;"/>
   </g>
   <g id="line2d_1">
    <path d="M 116.834124 294.88 
L 116.834124 289.637523 
L 119.440629 289.637523 
L 119.440629 284.395046 
L 122.003676 284.395046 
L 122.003676 279.152568 
L 126.323427 279.152568 
L 126.323427 273.910091 
L 127.28016 273.910091 
L 127.28016 268.667614 
L 129.096637 268.667614 
L 129.096637 263.425137 
L 131.907344 263.425137 
L 131.907344 258.18266 
L 132.882847 258.18266 
L 132.882847 252.940182 
L 134.176407 252.940182 
L 134.176407 247.697705 
L 134.8942 247.697705 
L 134.8942 242.455228 
L 135.276571 242.455228 
L 135.276571 237.212751 
L 135.717765 237.212751 
L 135.717765 231.970274 
L 135.983745 231.970274 
L 135.983745 226.727797 
L 136.883542 226.727797 
L 136.883542 221.485319 
L 137.498586 221.485319 
L 137.498586 216.242842 
L 137.648969 216.242842 
L 137.648969 211.000365 
L 137.738571 211.000365 
L 137.738571 205.757888 
L 137.916386 205.757888 
L 137.916386 200.515411 
L 138.004608 200.515411 
L 138.004608 195.272933 
L 138.381758 195.272933 
L 138.381758 190.030456 
L 138.609803 190.030456 
L 138.609803 184.787979 
L 138.7227 184.787979 
L 138.7227 179.545502 
L 138.834862 179.545502 
L 138.834862 174.303025 
L 138.918505 174.303025 
L 138.918505 169.060547 
L 139.001743 169.060547 
L 139.001743 163.81807 
L 139.139583 163.81807 
L 139.139583 158.575593 
L 139.249066 158.575593 
L 139.249066 153.333116 
L 139.330722 153.333116 
L 139.330722 148.090639 
L 139.438997 148.090639 
L 139.438997 142.848162 
L 139.600142 142.848162 
L 139.600142 137.605684 
L 139.680151 137.605684 
L 139.680151 132.363207 
L 139.812678 132.363207 
L 139.812678 127.12073 
L 139.917968 127.12073 
L 139.917968 121.878253 
L 141.328075 121.878253 
L 141.328075 116.635776 
L 141.376358 116.635776 
L 141.376358 111.393298 
L 143.967351 111.393298 
L 143.967351 106.150821 
L 144.091308 106.150821 
L 144.091308 100.908344 
L 144.173452 100.908344 
L 144.173452 95.665867 
L 144.275583 95.665867 
L 144.275583 90.42339 
L 144.356853 90.42339 
L 144.356853 85.180912 
L 144.457904 85.180912 
L 144.457904 79.938435 
L 144.558363 79.938435 
L 144.558363 74.695958 
L 144.678145 74.695958 
L 144.678145 69.453481 
L 144.816844 69.453481 
L 144.816844 64.211004 
L 144.915234 64.211004 
L 144.915234 58.968526 
L 144.993542 58.968526 
L 144.993542 53.726049 
L 145.090928 53.726049 
L 145.090928 48.483572 
L 145.168442 48.483572 
L 145.168442 43.241095 
L 145.284061 43.241095 
L 145.284061 37.998618 
L 145.322428 37.998618 
L 145.322428 32.756141 
L 145.417974 32.756141 
L 145.417974 27.513663 
L 333.168 27.513663 
" style="fill:none;stroke:#f5deb3;stroke-linecap:square;stroke-width:4;"/>
   </g>
   <g id="line2d_2">
    <defs>
     <path d="M -0 7.778175 
L 7.778175 0 
L 0 -7.778175 
L -7.778175 -0 
z
" id="mef19a3e523" style="stroke:#f5deb3;stroke-linejoin:miter;stroke-width:1.5;"/>
    </defs>
    <g>
     <use style="fill:#f5deb3;stroke:#f5deb3;stroke-linejoin:miter;stroke-width:1.5;" x="141.376358" xlink:href="#mef19a3e523" y="111.393298"/>
     <use style="fill:#f5deb3;stroke:#f5deb3;stroke-linejoin:miter;stroke-width:1.5;" x="145.417974" xlink:href="#mef19a3e523" y="32.756141"/>
     <use style="fill:#f5deb3;stroke:#f5deb3;stroke-linejoin:miter;stroke-width:1.5;" x="145.417974" xlink:href="#mef19a3e523" y="27.513663"/>
     <use style="fill:#f5deb3;stroke:#f5deb3;stroke-linejoin:miter;stroke-width:1.5;" x="145.417974" xlink:href="#mef19a3e523" y="27.513663"/>
     <use style="fill:#f5deb3;stroke:#f5deb3;stroke-linejoin:miter;stroke-width:1.5;" x="333.168" xlink:href="#mef19a3e523" y="27.513663"/>
    </g>
   </g>
   <g id="line2d_3">
    <path style="fill:none;stroke:#f5deb3;stroke-linecap:square;stroke-width:4;"/>
    <g/>
   </g>
   <g id="line2d_4">
    <path d="M 333.168 27.513663 
L 363.64328 32.86099 
" style="fill:none;stroke:#f5deb3;stroke-linecap:square;stroke-width:4;"/>
    <g>
     <use style="fill:#f5deb3;stroke:#f5deb3;stroke-linejoin:miter;stroke-width:1.5;" x="333.168" xlink:href="#mef19a3e523" y="27.513663"/>
     <use style="fill:#f5deb3;stroke:#f5deb3;stroke-linejoin:miter;stroke-width:1.5;" x="363.64328" xlink:href="#mef19a3e523" y="32.86099"/>
    </g>
   </g>
   <g id="matplotlib.axis_1">
    <g id="xtick_1">
     <g id="line2d_5">
      <path clip-path="url(#p579af9a131)" d="M 56.12 294.88 
L 56.12 24.84 
" style="fill:none;stroke:#b0b0b0;stroke-linecap:square;stroke-width:0.8;"/>
     </g>
     <g id="line2d_6">
      <defs>
       <path d="M 0 0 
L 0 3.5 
" id="m8029d47f72" style="stroke:#000000;stroke-width:0.8;"/>
      </defs>
      <g>
       <use style="stroke:#000000;stroke-width:0.8;" x="56.12" xlink:href="#m8029d47f72" y="294.88"/>
      </g>
     </g>
     <g id="text_1">
      <!-- 0 -->
      <defs>
       <path d="M 31.78125 66.40625 
Q 24.171875 66.40625 20.328125 58.90625 
Q 16.5 51.421875 16.5 36.375 
Q 16.5 21.390625 20.328125 13.890625 
Q 24.171875 6.390625 31.78125 6.390625 
Q 39.453125 6.390625 43.28125 13.890625 
Q 47.125 21.390625 47.125 36.375 
Q 47.125 51.421875 43.28125 58.90625 
Q 39.453125 66.40625 31.78125 66.40625 
z
M 31.78125 74.21875 
Q 44.046875 74.21875 50.515625 64.515625 
Q 56.984375 54.828125 56.984375 36.375 
Q 56.984375 17.96875 50.515625 8.265625 
Q 44.046875 -1.421875 31.78125 -1.421875 
Q 19.53125 -1.421875 13.0625 8.265625 
Q 6.59375 17.96875 6.59375 36.375 
Q 6.59375 54.828125 13.0625 64.515625 
Q 19.53125 74.21875 31.78125 74.21875 
z
" id="DejaVuSans-30"/>
      </defs>
      <g transform="translate(49.7575 317.076875)scale(0.2 -0.2)">
       <use xlink:href="#DejaVuSans-30"/>
      </g>
     </g>
    </g>
    <g id="xtick_2">
     <g id="line2d_7">
      <path clip-path="url(#p579af9a131)" d="M 135.276571 294.88 
L 135.276571 24.84 
" style="fill:none;stroke:#b0b0b0;stroke-linecap:square;stroke-width:0.8;"/>
     </g>
     <g id="line2d_8">
      <g>
       <use style="stroke:#000000;stroke-width:0.8;" x="135.276571" xlink:href="#m8029d47f72" y="294.88"/>
      </g>
     </g>
     <g id="text_2">
      <!-- 2 -->
      <defs>
       <path d="M 19.1875 8.296875 
L 53.609375 8.296875 
L 53.609375 0 
L 7.328125 0 
L 7.328125 8.296875 
Q 12.9375 14.109375 22.625 23.890625 
Q 32.328125 33.6875 34.8125 36.53125 
Q 39.546875 41.84375 41.421875 45.53125 
Q 43.3125 49.21875 43.3125 52.78125 
Q 43.3125 58.59375 39.234375 62.25 
Q 35.15625 65.921875 28.609375 65.921875 
Q 23.96875 65.921875 18.8125 64.3125 
Q 13.671875 62.703125 7.8125 59.421875 
L 7.8125 69.390625 
Q 13.765625 71.78125 18.9375 73 
Q 24.125 74.21875 28.421875 74.21875 
Q 39.75 74.21875 46.484375 68.546875 
Q 53.21875 62.890625 53.21875 53.421875 
Q 53.21875 48.921875 51.53125 44.890625 
Q 49.859375 40.875 45.40625 35.40625 
Q 44.1875 33.984375 37.640625 27.21875 
Q 31.109375 20.453125 19.1875 8.296875 
z
" id="DejaVuSans-32"/>
      </defs>
      <g transform="translate(128.914071 317.076875)scale(0.2 -0.2)">
       <use xlink:href="#DejaVuSans-32"/>
      </g>
     </g>
    </g>
    <g id="xtick_3">
     <g id="line2d_9">
      <path clip-path="url(#p579af9a131)" d="M 214.433143 294.88 
L 214.433143 24.84 
" style="fill:none;stroke:#b0b0b0;stroke-linecap:square;stroke-width:0.8;"/>
     </g>
     <g id="line2d_10">
      <g>
       <use style="stroke:#000000;stroke-width:0.8;" x="214.433143" xlink:href="#m8029d47f72" y="294.88"/>
      </g>
     </g>
     <g id="text_3">
      <!-- 4 -->
      <defs>
       <path d="M 37.796875 64.3125 
L 12.890625 25.390625 
L 37.796875 25.390625 
z
M 35.203125 72.90625 
L 47.609375 72.90625 
L 47.609375 25.390625 
L 58.015625 25.390625 
L 58.015625 17.1875 
L 47.609375 17.1875 
L 47.609375 0 
L 37.796875 0 
L 37.796875 17.1875 
L 4.890625 17.1875 
L 4.890625 26.703125 
z
" id="DejaVuSans-34"/>
      </defs>
      <g transform="translate(208.070643 317.076875)scale(0.2 -0.2)">
       <use xlink:href="#DejaVuSans-34"/>
      </g>
     </g>
    </g>
    <g id="xtick_4">
     <g id="line2d_11">
      <path clip-path="url(#p579af9a131)" d="M 293.589714 294.88 
L 293.589714 24.84 
" style="fill:none;stroke:#b0b0b0;stroke-linecap:square;stroke-width:0.8;"/>
     </g>
     <g id="line2d_12">
      <g>
       <use style="stroke:#000000;stroke-width:0.8;" x="293.589714" xlink:href="#m8029d47f72" y="294.88"/>
      </g>
     </g>
     <g id="text_4">
      <!-- 6 -->
      <defs>
       <path d="M 33.015625 40.375 
Q 26.375 40.375 22.484375 35.828125 
Q 18.609375 31.296875 18.609375 23.390625 
Q 18.609375 15.53125 22.484375 10.953125 
Q 26.375 6.390625 33.015625 6.390625 
Q 39.65625 6.390625 43.53125 10.953125 
Q 47.40625 15.53125 47.40625 23.390625 
Q 47.40625 31.296875 43.53125 35.828125 
Q 39.65625 40.375 33.015625 40.375 
z
M 52.59375 71.296875 
L 52.59375 62.3125 
Q 48.875 64.0625 45.09375 64.984375 
Q 41.3125 65.921875 37.59375 65.921875 
Q 27.828125 65.921875 22.671875 59.328125 
Q 17.53125 52.734375 16.796875 39.40625 
Q 19.671875 43.65625 24.015625 45.921875 
Q 28.375 48.1875 33.59375 48.1875 
Q 44.578125 48.1875 50.953125 41.515625 
Q 57.328125 34.859375 57.328125 23.390625 
Q 57.328125 12.15625 50.6875 5.359375 
Q 44.046875 -1.421875 33.015625 -1.421875 
Q 20.359375 -1.421875 13.671875 8.265625 
Q 6.984375 17.96875 6.984375 36.375 
Q 6.984375 53.65625 15.1875 63.9375 
Q 23.390625 74.21875 37.203125 74.21875 
Q 40.921875 74.21875 44.703125 73.484375 
Q 48.484375 72.75 52.59375 71.296875 
z
" id="DejaVuSans-36"/>
      </defs>
      <g transform="translate(287.227214 317.076875)scale(0.2 -0.2)">
       <use xlink:href="#DejaVuSans-36"/>
      </g>
     </g>
    </g>
    <g id="xtick_5">
     <g id="line2d_13">
      <path clip-path="url(#p579af9a131)" d="M 56.12 294.88 
L 56.12 24.84 
" style="fill:none;stroke:#b0b0b0;stroke-linecap:square;stroke-width:0.8;"/>
     </g>
     <g id="line2d_14">
      <defs>
       <path d="M 0 0 
L 0 2 
" id="m1abbe52717" style="stroke:#000000;stroke-width:0.6;"/>
      </defs>
      <g>
       <use style="stroke:#000000;stroke-width:0.6;" x="56.12" xlink:href="#m1abbe52717" y="294.88"/>
      </g>
     </g>
    </g>
    <g id="xtick_6">
     <g id="line2d_15">
      <path clip-path="url(#p579af9a131)" d="M 95.698286 294.88 
L 95.698286 24.84 
" style="fill:none;stroke:#b0b0b0;stroke-linecap:square;stroke-width:0.8;"/>
     </g>
     <g id="line2d_16">
      <g>
       <use style="stroke:#000000;stroke-width:0.6;" x="95.698286" xlink:href="#m1abbe52717" y="294.88"/>
      </g>
     </g>
    </g>
    <g id="xtick_7">
     <g id="line2d_17">
      <path clip-path="url(#p579af9a131)" d="M 135.276571 294.88 
L 135.276571 24.84 
" style="fill:none;stroke:#b0b0b0;stroke-linecap:square;stroke-width:0.8;"/>
     </g>
     <g id="line2d_18">
      <g>
       <use style="stroke:#000000;stroke-width:0.6;" x="135.276571" xlink:href="#m1abbe52717" y="294.88"/>
      </g>
     </g>
    </g>
    <g id="xtick_8">
     <g id="line2d_19">
      <path clip-path="url(#p579af9a131)" d="M 174.854857 294.88 
L 174.854857 24.84 
" style="fill:none;stroke:#b0b0b0;stroke-linecap:square;stroke-width:0.8;"/>
     </g>
     <g id="line2d_20">
      <g>
       <use style="stroke:#000000;stroke-width:0.6;" x="174.854857" xlink:href="#m1abbe52717" y="294.88"/>
      </g>
     </g>
    </g>
    <g id="xtick_9">
     <g id="line2d_21">
      <path clip-path="url(#p579af9a131)" d="M 214.433143 294.88 
L 214.433143 24.84 
" style="fill:none;stroke:#b0b0b0;stroke-linecap:square;stroke-width:0.8;"/>
     </g>
     <g id="line2d_22">
      <g>
       <use style="stroke:#000000;stroke-width:0.6;" x="214.433143" xlink:href="#m1abbe52717" y="294.88"/>
      </g>
     </g>
    </g>
    <g id="xtick_10">
     <g id="line2d_23">
      <path clip-path="url(#p579af9a131)" d="M 254.011429 294.88 
L 254.011429 24.84 
" style="fill:none;stroke:#b0b0b0;stroke-linecap:square;stroke-width:0.8;"/>
     </g>
     <g id="line2d_24">
      <g>
       <use style="stroke:#000000;stroke-width:0.6;" x="254.011429" xlink:href="#m1abbe52717" y="294.88"/>
      </g>
     </g>
    </g>
    <g id="xtick_11">
     <g id="line2d_25">
      <path clip-path="url(#p579af9a131)" d="M 293.589714 294.88 
L 293.589714 24.84 
" style="fill:none;stroke:#b0b0b0;stroke-linecap:square;stroke-width:0.8;"/>
     </g>
     <g id="line2d_26">
      <g>
       <use style="stroke:#000000;stroke-width:0.6;" x="293.589714" xlink:href="#m1abbe52717" y="294.88"/>
      </g>
     </g>
    </g>
    <g id="xtick_12">
     <g id="line2d_27">
      <path clip-path="url(#p579af9a131)" d="M 333.168 294.88 
L 333.168 24.84 
" style="fill:none;stroke:#b0b0b0;stroke-linecap:square;stroke-width:0.8;"/>
     </g>
     <g id="line2d_28">
      <g>
       <use style="stroke:#000000;stroke-width:0.6;" x="333.168" xlink:href="#m1abbe52717" y="294.88"/>
      </g>
     </g>
    </g>
    <g id="text_5">
     <!-- log10(# f-evals / dimension) -->
     <defs>
      <path d="M 9.421875 75.984375 
L 18.40625 75.984375 
L 18.40625 0 
L 9.421875 0 
z
" id="DejaVuSans-6c"/>
      <path d="M 30.609375 48.390625 
Q 23.390625 48.390625 19.1875 42.75 
Q 14.984375 37.109375 14.984375 27.296875 
Q 14.984375 17.484375 19.15625 11.84375 
Q 23.34375 6.203125 30.609375 6.203125 
Q 37.796875 6.203125 41.984375 11.859375 
Q 46.1875 17.53125 46.1875 27.296875 
Q 46.1875 37.015625 41.984375 42.703125 
Q 37.796875 48.390625 30.609375 48.390625 
z
M 30.609375 56 
Q 42.328125 56 49.015625 48.375 
Q 55.71875 40.765625 55.71875 27.296875 
Q 55.71875 13.875 49.015625 6.21875 
Q 42.328125 -1.421875 30.609375 -1.421875 
Q 18.84375 -1.421875 12.171875 6.21875 
Q 5.515625 13.875 5.515625 27.296875 
Q 5.515625 40.765625 12.171875 48.375 
Q 18.84375 56 30.609375 56 
z
" id="DejaVuSans-6f"/>
      <path d="M 45.40625 27.984375 
Q 45.40625 37.75 41.375 43.109375 
Q 37.359375 48.484375 30.078125 48.484375 
Q 22.859375 48.484375 18.828125 43.109375 
Q 14.796875 37.75 14.796875 27.984375 
Q 14.796875 18.265625 18.828125 12.890625 
Q 22.859375 7.515625 30.078125 7.515625 
Q 37.359375 7.515625 41.375 12.890625 
Q 45.40625 18.265625 45.40625 27.984375 
z
M 54.390625 6.78125 
Q 54.390625 -7.171875 48.1875 -13.984375 
Q 42 -20.796875 29.203125 -20.796875 
Q 24.46875 -20.796875 20.265625 -20.09375 
Q 16.0625 -19.390625 12.109375 -17.921875 
L 12.109375 -9.1875 
Q 16.0625 -11.328125 19.921875 -12.34375 
Q 23.78125 -13.375 27.78125 -13.375 
Q 36.625 -13.375 41.015625 -8.765625 
Q 45.40625 -4.15625 45.40625 5.171875 
L 45.40625 9.625 
Q 42.625 4.78125 38.28125 2.390625 
Q 33.9375 0 27.875 0 
Q 17.828125 0 11.671875 7.65625 
Q 5.515625 15.328125 5.515625 27.984375 
Q 5.515625 40.671875 11.671875 48.328125 
Q 17.828125 56 27.875 56 
Q 33.9375 56 38.28125 53.609375 
Q 42.625 51.21875 45.40625 46.390625 
L 45.40625 54.6875 
L 54.390625 54.6875 
z
" id="DejaVuSans-67"/>
      <path d="M 12.40625 8.296875 
L 28.515625 8.296875 
L 28.515625 63.921875 
L 10.984375 60.40625 
L 10.984375 69.390625 
L 28.421875 72.90625 
L 38.28125 72.90625 
L 38.28125 8.296875 
L 54.390625 8.296875 
L 54.390625 0 
L 12.40625 0 
z
" id="DejaVuSans-31"/>
      <path d="M 31 75.875 
Q 24.46875 64.65625 21.28125 53.65625 
Q 18.109375 42.671875 18.109375 31.390625 
Q 18.109375 20.125 21.3125 9.0625 
Q 24.515625 -2 31 -13.1875 
L 23.1875 -13.1875 
Q 15.875 -1.703125 12.234375 9.375 
Q 8.59375 20.453125 8.59375 31.390625 
Q 8.59375 42.28125 12.203125 53.3125 
Q 15.828125 64.359375 23.1875 75.875 
z
" id="DejaVuSans-28"/>
      <path d="M 51.125 44 
L 36.921875 44 
L 32.8125 27.6875 
L 47.125 27.6875 
z
M 43.796875 71.78125 
L 38.71875 51.515625 
L 52.984375 51.515625 
L 58.109375 71.78125 
L 65.921875 71.78125 
L 60.890625 51.515625 
L 76.125 51.515625 
L 76.125 44 
L 58.984375 44 
L 54.984375 27.6875 
L 70.515625 27.6875 
L 70.515625 20.21875 
L 53.078125 20.21875 
L 48 0 
L 40.1875 0 
L 45.21875 20.21875 
L 30.90625 20.21875 
L 25.875 0 
L 18.015625 0 
L 23.09375 20.21875 
L 7.71875 20.21875 
L 7.71875 27.6875 
L 24.90625 27.6875 
L 29 44 
L 13.28125 44 
L 13.28125 51.515625 
L 30.90625 51.515625 
L 35.890625 71.78125 
z
" id="DejaVuSans-23"/>
      <path id="DejaVuSans-20"/>
      <path d="M 37.109375 75.984375 
L 37.109375 68.5 
L 28.515625 68.5 
Q 23.6875 68.5 21.796875 66.546875 
Q 19.921875 64.59375 19.921875 59.515625 
L 19.921875 54.6875 
L 34.71875 54.6875 
L 34.71875 47.703125 
L 19.921875 47.703125 
L 19.921875 0 
L 10.890625 0 
L 10.890625 47.703125 
L 2.296875 47.703125 
L 2.296875 54.6875 
L 10.890625 54.6875 
L 10.890625 58.5 
Q 10.890625 67.625 15.140625 71.796875 
Q 19.390625 75.984375 28.609375 75.984375 
z
" id="DejaVuSans-66"/>
      <path d="M 4.890625 31.390625 
L 31.203125 31.390625 
L 31.203125 23.390625 
L 4.890625 23.390625 
z
" id="DejaVuSans-2d"/>
      <path d="M 56.203125 29.59375 
L 56.203125 25.203125 
L 14.890625 25.203125 
Q 15.484375 15.921875 20.484375 11.0625 
Q 25.484375 6.203125 34.421875 6.203125 
Q 39.59375 6.203125 44.453125 7.46875 
Q 49.3125 8.734375 54.109375 11.28125 
L 54.109375 2.78125 
Q 49.265625 0.734375 44.1875 -0.34375 
Q 39.109375 -1.421875 33.890625 -1.421875 
Q 20.796875 -1.421875 13.15625 6.1875 
Q 5.515625 13.8125 5.515625 26.8125 
Q 5.515625 40.234375 12.765625 48.109375 
Q 20.015625 56 32.328125 56 
Q 43.359375 56 49.78125 48.890625 
Q 56.203125 41.796875 56.203125 29.59375 
z
M 47.21875 32.234375 
Q 47.125 39.59375 43.09375 43.984375 
Q 39.0625 48.390625 32.421875 48.390625 
Q 24.90625 48.390625 20.390625 44.140625 
Q 15.875 39.890625 15.1875 32.171875 
z
" id="DejaVuSans-65"/>
      <path d="M 2.984375 54.6875 
L 12.5 54.6875 
L 29.59375 8.796875 
L 46.6875 54.6875 
L 56.203125 54.6875 
L 35.6875 0 
L 23.484375 0 
z
" id="DejaVuSans-76"/>
      <path d="M 34.28125 27.484375 
Q 23.390625 27.484375 19.1875 25 
Q 14.984375 22.515625 14.984375 16.5 
Q 14.984375 11.71875 18.140625 8.90625 
Q 21.296875 6.109375 26.703125 6.109375 
Q 34.1875 6.109375 38.703125 11.40625 
Q 43.21875 16.703125 43.21875 25.484375 
L 43.21875 27.484375 
z
M 52.203125 31.203125 
L 52.203125 0 
L 43.21875 0 
L 43.21875 8.296875 
Q 40.140625 3.328125 35.546875 0.953125 
Q 30.953125 -1.421875 24.3125 -1.421875 
Q 15.921875 -1.421875 10.953125 3.296875 
Q 6 8.015625 6 15.921875 
Q 6 25.140625 12.171875 29.828125 
Q 18.359375 34.515625 30.609375 34.515625 
L 43.21875 34.515625 
L 43.21875 35.40625 
Q 43.21875 41.609375 39.140625 45 
Q 35.0625 48.390625 27.6875 48.390625 
Q 23 48.390625 18.546875 47.265625 
Q 14.109375 46.140625 10.015625 43.890625 
L 10.015625 52.203125 
Q 14.9375 54.109375 19.578125 55.046875 
Q 24.21875 56 28.609375 56 
Q 40.484375 56 46.34375 49.84375 
Q 52.203125 43.703125 52.203125 31.203125 
z
" id="DejaVuSans-61"/>
      <path d="M 44.28125 53.078125 
L 44.28125 44.578125 
Q 40.484375 46.53125 36.375 47.5 
Q 32.28125 48.484375 27.875 48.484375 
Q 21.1875 48.484375 17.84375 46.4375 
Q 14.5 44.390625 14.5 40.28125 
Q 14.5 37.15625 16.890625 35.375 
Q 19.28125 33.59375 26.515625 31.984375 
L 29.59375 31.296875 
Q 39.15625 29.25 43.1875 25.515625 
Q 47.21875 21.78125 47.21875 15.09375 
Q 47.21875 7.46875 41.1875 3.015625 
Q 35.15625 -1.421875 24.609375 -1.421875 
Q 20.21875 -1.421875 15.453125 -0.5625 
Q 10.6875 0.296875 5.421875 2 
L 5.421875 11.28125 
Q 10.40625 8.6875 15.234375 7.390625 
Q 20.0625 6.109375 24.8125 6.109375 
Q 31.15625 6.109375 34.5625 8.28125 
Q 37.984375 10.453125 37.984375 14.40625 
Q 37.984375 18.0625 35.515625 20.015625 
Q 33.0625 21.96875 24.703125 23.78125 
L 21.578125 24.515625 
Q 13.234375 26.265625 9.515625 29.90625 
Q 5.8125 33.546875 5.8125 39.890625 
Q 5.8125 47.609375 11.28125 51.796875 
Q 16.75 56 26.8125 56 
Q 31.78125 56 36.171875 55.265625 
Q 40.578125 54.546875 44.28125 53.078125 
z
" id="DejaVuSans-73"/>
      <path d="M 25.390625 72.90625 
L 33.6875 72.90625 
L 8.296875 -9.28125 
L 0 -9.28125 
z
" id="DejaVuSans-2f"/>
      <path d="M 45.40625 46.390625 
L 45.40625 75.984375 
L 54.390625 75.984375 
L 54.390625 0 
L 45.40625 0 
L 45.40625 8.203125 
Q 42.578125 3.328125 38.25 0.953125 
Q 33.9375 -1.421875 27.875 -1.421875 
Q 17.96875 -1.421875 11.734375 6.484375 
Q 5.515625 14.40625 5.515625 27.296875 
Q 5.515625 40.1875 11.734375 48.09375 
Q 17.96875 56 27.875 56 
Q 33.9375 56 38.25 53.625 
Q 42.578125 51.265625 45.40625 46.390625 
z
M 14.796875 27.296875 
Q 14.796875 17.390625 18.875 11.75 
Q 22.953125 6.109375 30.078125 6.109375 
Q 37.203125 6.109375 41.296875 11.75 
Q 45.40625 17.390625 45.40625 27.296875 
Q 45.40625 37.203125 41.296875 42.84375 
Q 37.203125 48.484375 30.078125 48.484375 
Q 22.953125 48.484375 18.875 42.84375 
Q 14.796875 37.203125 14.796875 27.296875 
z
" id="DejaVuSans-64"/>
      <path d="M 9.421875 54.6875 
L 18.40625 54.6875 
L 18.40625 0 
L 9.421875 0 
z
M 9.421875 75.984375 
L 18.40625 75.984375 
L 18.40625 64.59375 
L 9.421875 64.59375 
z
" id="DejaVuSans-69"/>
      <path d="M 52 44.1875 
Q 55.375 50.25 60.0625 53.125 
Q 64.75 56 71.09375 56 
Q 79.640625 56 84.28125 50.015625 
Q 88.921875 44.046875 88.921875 33.015625 
L 88.921875 0 
L 79.890625 0 
L 79.890625 32.71875 
Q 79.890625 40.578125 77.09375 44.375 
Q 74.3125 48.1875 68.609375 48.1875 
Q 61.625 48.1875 57.5625 43.546875 
Q 53.515625 38.921875 53.515625 30.90625 
L 53.515625 0 
L 44.484375 0 
L 44.484375 32.71875 
Q 44.484375 40.625 41.703125 44.40625 
Q 38.921875 48.1875 33.109375 48.1875 
Q 26.21875 48.1875 22.15625 43.53125 
Q 18.109375 38.875 18.109375 30.90625 
L 18.109375 0 
L 9.078125 0 
L 9.078125 54.6875 
L 18.109375 54.6875 
L 18.109375 46.1875 
Q 21.1875 51.21875 25.484375 53.609375 
Q 29.78125 56 35.6875 56 
Q 41.65625 56 45.828125 52.96875 
Q 50 49.953125 52 44.1875 
z
" id="DejaVuSans-6d"/>
      <path d="M 54.890625 33.015625 
L 54.890625 0 
L 45.90625 0 
L 45.90625 32.71875 
Q 45.90625 40.484375 42.875 44.328125 
Q 39.84375 48.1875 33.796875 48.1875 
Q 26.515625 48.1875 22.3125 43.546875 
Q 18.109375 38.921875 18.109375 30.90625 
L 18.109375 0 
L 9.078125 0 
L 9.078125 54.6875 
L 18.109375 54.6875 
L 18.109375 46.1875 
Q 21.34375 51.125 25.703125 53.5625 
Q 30.078125 56 35.796875 56 
Q 45.21875 56 50.046875 50.171875 
Q 54.890625 44.34375 54.890625 33.015625 
z
" id="DejaVuSans-6e"/>
      <path d="M 8.015625 75.875 
L 15.828125 75.875 
Q 23.140625 64.359375 26.78125 53.3125 
Q 30.421875 42.28125 30.421875 31.390625 
Q 30.421875 20.453125 26.78125 9.375 
Q 23.140625 -1.703125 15.828125 -13.1875 
L 8.015625 -13.1875 
Q 14.5 -2 17.703125 9.0625 
Q 20.90625 20.125 20.90625 31.390625 
Q 20.90625 42.671875 17.703125 53.65625 
Q 14.5 64.65625 8.015625 75.875 
z
" id="DejaVuSans-29"/>
     </defs>
     <g transform="translate(73.803219 338.153594)scale(0.17 -0.17)">
      <use xlink:href="#DejaVuSans-6c"/>
      <use x="27.783203" xlink:href="#DejaVuSans-6f"/>
      <use x="88.964844" xlink:href="#DejaVuSans-67"/>
      <use x="152.441406" xlink:href="#DejaVuSans-31"/>
      <use x="216.064453" xlink:href="#DejaVuSans-30"/>
      <use x="279.6875" xlink:href="#DejaVuSans-28"/>
      <use x="318.701172" xlink:href="#DejaVuSans-23"/>
      <use x="402.490234" xlink:href="#DejaVuSans-20"/>
      <use x="434.277344" xlink:href="#DejaVuSans-66"/>
      <use x="469.404297" xlink:href="#DejaVuSans-2d"/>
      <use x="505.488281" xlink:href="#DejaVuSans-65"/>
      <use x="567.011719" xlink:href="#DejaVuSans-76"/>
      <use x="626.191406" xlink:href="#DejaVuSans-61"/>
      <use x="687.470703" xlink:href="#DejaVuSans-6c"/>
      <use x="715.253906" xlink:href="#DejaVuSans-73"/>
      <use x="767.353516" xlink:href="#DejaVuSans-20"/>
      <use x="799.140625" xlink:href="#DejaVuSans-2f"/>
      <use x="832.832031" xlink:href="#DejaVuSans-20"/>
      <use x="864.619141" xlink:href="#DejaVuSans-64"/>
      <use x="928.095703" xlink:href="#DejaVuSans-69"/>
      <use x="955.878906" xlink:href="#DejaVuSans-6d"/>
      <use x="1053.291016" xlink:href="#DejaVuSans-65"/>
      <use x="1114.814453" xlink:href="#DejaVuSans-6e"/>
      <use x="1178.193359" xlink:href="#DejaVuSans-73"/>
      <use x="1230.292969" xlink:href="#DejaVuSans-69"/>
      <use x="1258.076172" xlink:href="#DejaVuSans-6f"/>
      <use x="1319.257812" xlink:href="#DejaVuSans-6e"/>
      <use x="1382.636719" xlink:href="#DejaVuSans-29"/>
     </g>
    </g>
   </g>
   <g id="matplotlib.axis_2">
    <g id="ytick_1">
     <g id="line2d_29">
      <path clip-path="url(#p579af9a131)" d="M 56.12 294.88 
L 333.168 294.88 
" style="fill:none;stroke:#b0b0b0;stroke-linecap:square;stroke-width:0.8;"/>
     </g>
     <g id="line2d_30">
      <defs>
       <path d="M 0 0 
L -3.5 0 
" id="m1b8bc4aeb1" style="stroke:#000000;stroke-width:0.8;"/>
      </defs>
      <g>
       <use style="stroke:#000000;stroke-width:0.8;" x="56.12" xlink:href="#m1b8bc4aeb1" y="294.88"/>
      </g>
     </g>
     <g id="text_6">
      <!-- 0.0 -->
      <defs>
       <path d="M 10.6875 12.40625 
L 21 12.40625 
L 21 0 
L 10.6875 0 
z
" id="DejaVuSans-2e"/>
      </defs>
      <g transform="translate(23.675 300.95875)scale(0.16 -0.16)">
       <use xlink:href="#DejaVuSans-30"/>
       <use x="63.623047" xlink:href="#DejaVuSans-2e"/>
       <use x="95.410156" xlink:href="#DejaVuSans-30"/>
      </g>
     </g>
    </g>
    <g id="ytick_2">
     <g id="line2d_31">
      <path clip-path="url(#p579af9a131)" d="M 56.12 241.406733 
L 333.168 241.406733 
" style="fill:none;stroke:#b0b0b0;stroke-linecap:square;stroke-width:0.8;"/>
     </g>
     <g id="line2d_32">
      <g>
       <use style="stroke:#000000;stroke-width:0.8;" x="56.12" xlink:href="#m1b8bc4aeb1" y="241.406733"/>
      </g>
     </g>
     <g id="text_7">
      <!-- 0.2 -->
      <g transform="translate(23.675 247.485483)scale(0.16 -0.16)">
       <use xlink:href="#DejaVuSans-30"/>
       <use x="63.623047" xlink:href="#DejaVuSans-2e"/>
       <use x="95.410156" xlink:href="#DejaVuSans-32"/>
      </g>
     </g>
    </g>
    <g id="ytick_3">
     <g id="line2d_33">
      <path clip-path="url(#p579af9a131)" d="M 56.12 187.933465 
L 333.168 187.933465 
" style="fill:none;stroke:#b0b0b0;stroke-linecap:square;stroke-width:0.8;"/>
     </g>
     <g id="line2d_34">
      <g>
       <use style="stroke:#000000;stroke-width:0.8;" x="56.12" xlink:href="#m1b8bc4aeb1" y="187.933465"/>
      </g>
     </g>
     <g id="text_8">
      <!-- 0.4 -->
      <g transform="translate(23.675 194.012215)scale(0.16 -0.16)">
       <use xlink:href="#DejaVuSans-30"/>
       <use x="63.623047" xlink:href="#DejaVuSans-2e"/>
       <use x="95.410156" xlink:href="#DejaVuSans-34"/>
      </g>
     </g>
    </g>
    <g id="ytick_4">
     <g id="line2d_35">
      <path clip-path="url(#p579af9a131)" d="M 56.12 134.460198 
L 333.168 134.460198 
" style="fill:none;stroke:#b0b0b0;stroke-linecap:square;stroke-width:0.8;"/>
     </g>
     <g id="line2d_36">
      <g>
       <use style="stroke:#000000;stroke-width:0.8;" x="56.12" xlink:href="#m1b8bc4aeb1" y="134.460198"/>
      </g>
     </g>
     <g id="text_9">
      <!-- 0.6 -->
      <g transform="translate(23.675 140.538948)scale(0.16 -0.16)">
       <use xlink:href="#DejaVuSans-30"/>
       <use x="63.623047" xlink:href="#DejaVuSans-2e"/>
       <use x="95.410156" xlink:href="#DejaVuSans-36"/>
      </g>
     </g>
    </g>
    <g id="ytick_5">
     <g id="line2d_37">
      <path clip-path="url(#p579af9a131)" d="M 56.12 80.986931 
L 333.168 80.986931 
" style="fill:none;stroke:#b0b0b0;stroke-linecap:square;stroke-width:0.8;"/>
     </g>
     <g id="line2d_38">
      <g>
       <use style="stroke:#000000;stroke-width:0.8;" x="56.12" xlink:href="#m1b8bc4aeb1" y="80.986931"/>
      </g>
     </g>
     <g id="text_10">
      <!-- 0.8 -->
      <defs>
       <path d="M 31.78125 34.625 
Q 24.75 34.625 20.71875 30.859375 
Q 16.703125 27.09375 16.703125 20.515625 
Q 16.703125 13.921875 20.71875 10.15625 
Q 24.75 6.390625 31.78125 6.390625 
Q 38.8125 6.390625 42.859375 10.171875 
Q 46.921875 13.96875 46.921875 20.515625 
Q 46.921875 27.09375 42.890625 30.859375 
Q 38.875 34.625 31.78125 34.625 
z
M 21.921875 38.8125 
Q 15.578125 40.375 12.03125 44.71875 
Q 8.5 49.078125 8.5 55.328125 
Q 8.5 64.0625 14.71875 69.140625 
Q 20.953125 74.21875 31.78125 74.21875 
Q 42.671875 74.21875 48.875 69.140625 
Q 55.078125 64.0625 55.078125 55.328125 
Q 55.078125 49.078125 51.53125 44.71875 
Q 48 40.375 41.703125 38.8125 
Q 48.828125 37.15625 52.796875 32.3125 
Q 56.78125 27.484375 56.78125 20.515625 
Q 56.78125 9.90625 50.3125 4.234375 
Q 43.84375 -1.421875 31.78125 -1.421875 
Q 19.734375 -1.421875 13.25 4.234375 
Q 6.78125 9.90625 6.78125 20.515625 
Q 6.78125 27.484375 10.78125 32.3125 
Q 14.796875 37.15625 21.921875 38.8125 
z
M 18.3125 54.390625 
Q 18.3125 48.734375 21.84375 45.5625 
Q 25.390625 42.390625 31.78125 42.390625 
Q 38.140625 42.390625 41.71875 45.5625 
Q 45.3125 48.734375 45.3125 54.390625 
Q 45.3125 60.0625 41.71875 63.234375 
Q 38.140625 66.40625 31.78125 66.40625 
Q 25.390625 66.40625 21.84375 63.234375 
Q 18.3125 60.0625 18.3125 54.390625 
z
" id="DejaVuSans-38"/>
      </defs>
      <g transform="translate(23.675 87.065681)scale(0.16 -0.16)">
       <use xlink:href="#DejaVuSans-30"/>
       <use x="63.623047" xlink:href="#DejaVuSans-2e"/>
       <use x="95.410156" xlink:href="#DejaVuSans-38"/>
      </g>
     </g>
    </g>
    <g id="ytick_6">
     <g id="line2d_39">
      <path clip-path="url(#p579af9a131)" d="M 56.12 27.513663 
L 333.168 27.513663 
" style="fill:none;stroke:#b0b0b0;stroke-linecap:square;stroke-width:0.8;"/>
     </g>
     <g id="line2d_40">
      <g>
       <use style="stroke:#000000;stroke-width:0.8;" x="56.12" xlink:href="#m1b8bc4aeb1" y="27.513663"/>
      </g>
     </g>
     <g id="text_11">
      <!-- 1.0 -->
      <g transform="translate(23.675 33.592413)scale(0.16 -0.16)">
       <use xlink:href="#DejaVuSans-31"/>
       <use x="63.623047" xlink:href="#DejaVuSans-2e"/>
       <use x="95.410156" xlink:href="#DejaVuSans-30"/>
      </g>
     </g>
    </g>
    <g id="text_12">
     <!-- Fraction of function,target pairs -->
     <defs>
      <path d="M 9.8125 72.90625 
L 51.703125 72.90625 
L 51.703125 64.59375 
L 19.671875 64.59375 
L 19.671875 43.109375 
L 48.578125 43.109375 
L 48.578125 34.8125 
L 19.671875 34.8125 
L 19.671875 0 
L 9.8125 0 
z
" id="DejaVuSans-46"/>
      <path d="M 41.109375 46.296875 
Q 39.59375 47.171875 37.8125 47.578125 
Q 36.03125 48 33.890625 48 
Q 26.265625 48 22.1875 43.046875 
Q 18.109375 38.09375 18.109375 28.8125 
L 18.109375 0 
L 9.078125 0 
L 9.078125 54.6875 
L 18.109375 54.6875 
L 18.109375 46.1875 
Q 20.953125 51.171875 25.484375 53.578125 
Q 30.03125 56 36.53125 56 
Q 37.453125 56 38.578125 55.875 
Q 39.703125 55.765625 41.0625 55.515625 
z
" id="DejaVuSans-72"/>
      <path d="M 48.78125 52.59375 
L 48.78125 44.1875 
Q 44.96875 46.296875 41.140625 47.34375 
Q 37.3125 48.390625 33.40625 48.390625 
Q 24.65625 48.390625 19.8125 42.84375 
Q 14.984375 37.3125 14.984375 27.296875 
Q 14.984375 17.28125 19.8125 11.734375 
Q 24.65625 6.203125 33.40625 6.203125 
Q 37.3125 6.203125 41.140625 7.25 
Q 44.96875 8.296875 48.78125 10.40625 
L 48.78125 2.09375 
Q 45.015625 0.34375 40.984375 -0.53125 
Q 36.96875 -1.421875 32.421875 -1.421875 
Q 20.0625 -1.421875 12.78125 6.34375 
Q 5.515625 14.109375 5.515625 27.296875 
Q 5.515625 40.671875 12.859375 48.328125 
Q 20.21875 56 33.015625 56 
Q 37.15625 56 41.109375 55.140625 
Q 45.0625 54.296875 48.78125 52.59375 
z
" id="DejaVuSans-63"/>
      <path d="M 18.3125 70.21875 
L 18.3125 54.6875 
L 36.8125 54.6875 
L 36.8125 47.703125 
L 18.3125 47.703125 
L 18.3125 18.015625 
Q 18.3125 11.328125 20.140625 9.421875 
Q 21.96875 7.515625 27.59375 7.515625 
L 36.8125 7.515625 
L 36.8125 0 
L 27.59375 0 
Q 17.1875 0 13.234375 3.875 
Q 9.28125 7.765625 9.28125 18.015625 
L 9.28125 47.703125 
L 2.6875 47.703125 
L 2.6875 54.6875 
L 9.28125 54.6875 
L 9.28125 70.21875 
z
" id="DejaVuSans-74"/>
      <path d="M 8.5 21.578125 
L 8.5 54.6875 
L 17.484375 54.6875 
L 17.484375 21.921875 
Q 17.484375 14.15625 20.5 10.265625 
Q 23.53125 6.390625 29.59375 6.390625 
Q 36.859375 6.390625 41.078125 11.03125 
Q 45.3125 15.671875 45.3125 23.6875 
L 45.3125 54.6875 
L 54.296875 54.6875 
L 54.296875 0 
L 45.3125 0 
L 45.3125 8.40625 
Q 42.046875 3.421875 37.71875 1 
Q 33.40625 -1.421875 27.6875 -1.421875 
Q 18.265625 -1.421875 13.375 4.4375 
Q 8.5 10.296875 8.5 21.578125 
z
M 31.109375 56 
z
" id="DejaVuSans-75"/>
      <path d="M 11.71875 12.40625 
L 22.015625 12.40625 
L 22.015625 4 
L 14.015625 -11.625 
L 7.71875 -11.625 
L 11.71875 4 
z
" id="DejaVuSans-2c"/>
      <path d="M 18.109375 8.203125 
L 18.109375 -20.796875 
L 9.078125 -20.796875 
L 9.078125 54.6875 
L 18.109375 54.6875 
L 18.109375 46.390625 
Q 20.953125 51.265625 25.265625 53.625 
Q 29.59375 56 35.59375 56 
Q 45.5625 56 51.78125 48.09375 
Q 58.015625 40.1875 58.015625 27.296875 
Q 58.015625 14.40625 51.78125 6.484375 
Q 45.5625 -1.421875 35.59375 -1.421875 
Q 29.59375 -1.421875 25.265625 0.953125 
Q 20.953125 3.328125 18.109375 8.203125 
z
M 48.6875 27.296875 
Q 48.6875 37.203125 44.609375 42.84375 
Q 40.53125 48.484375 33.40625 48.484375 
Q 26.265625 48.484375 22.1875 42.84375 
Q 18.109375 37.203125 18.109375 27.296875 
Q 18.109375 17.390625 22.1875 11.75 
Q 26.265625 6.109375 33.40625 6.109375 
Q 40.53125 6.109375 44.609375 11.75 
Q 48.6875 17.390625 48.6875 27.296875 
z
" id="DejaVuSans-70"/>
     </defs>
     <g transform="translate(16.139531 294.999375)rotate(-90)scale(0.17 -0.17)">
      <use xlink:href="#DejaVuSans-46"/>
      <use x="57.410156" xlink:href="#DejaVuSans-72"/>
      <use x="98.523438" xlink:href="#DejaVuSans-61"/>
      <use x="159.802734" xlink:href="#DejaVuSans-63"/>
      <use x="214.783203" xlink:href="#DejaVuSans-74"/>
      <use x="253.992188" xlink:href="#DejaVuSans-69"/>
      <use x="281.775391" xlink:href="#DejaVuSans-6f"/>
      <use x="342.957031" xlink:href="#DejaVuSans-6e"/>
      <use x="406.335938" xlink:href="#DejaVuSans-20"/>
      <use x="438.123047" xlink:href="#DejaVuSans-6f"/>
      <use x="499.304688" xlink:href="#DejaVuSans-66"/>
      <use x="534.509766" xlink:href="#DejaVuSans-20"/>
      <use x="566.296875" xlink:href="#DejaVuSans-66"/>
      <use x="601.501953" xlink:href="#DejaVuSans-75"/>
      <use x="664.880859" xlink:href="#DejaVuSans-6e"/>
      <use x="728.259766" xlink:href="#DejaVuSans-63"/>
      <use x="783.240234" xlink:href="#DejaVuSans-74"/>
      <use x="822.449219" xlink:href="#DejaVuSans-69"/>
      <use x="850.232422" xlink:href="#DejaVuSans-6f"/>
      <use x="911.414062" xlink:href="#DejaVuSans-6e"/>
      <use x="974.792969" xlink:href="#DejaVuSans-2c"/>
      <use x="1006.580078" xlink:href="#DejaVuSans-74"/>
      <use x="1045.789062" xlink:href="#DejaVuSans-61"/>
      <use x="1107.068359" xlink:href="#DejaVuSans-72"/>
      <use x="1148.166016" xlink:href="#DejaVuSans-67"/>
      <use x="1211.642578" xlink:href="#DejaVuSans-65"/>
      <use x="1273.166016" xlink:href="#DejaVuSans-74"/>
      <use x="1312.375" xlink:href="#DejaVuSans-20"/>
      <use x="1344.162109" xlink:href="#DejaVuSans-70"/>
      <use x="1407.638672" xlink:href="#DejaVuSans-61"/>
      <use x="1468.917969" xlink:href="#DejaVuSans-69"/>
      <use x="1496.701172" xlink:href="#DejaVuSans-72"/>
      <use x="1537.814453" xlink:href="#DejaVuSans-73"/>
     </g>
    </g>
   </g>
   <g id="line2d_41">
    <defs>
     <path d="M 0 1.5 
C 0.397805 1.5 0.77937 1.341951 1.06066 1.06066 
C 1.341951 0.77937 1.5 0.397805 1.5 0 
C 1.5 -0.397805 1.341951 -0.77937 1.06066 -1.06066 
C 0.77937 -1.341951 0.397805 -1.5 0 -1.5 
C -0.397805 -1.5 -0.77937 -1.341951 -1.06066 -1.06066 
C -1.341951 -0.77937 -1.5 -0.397805 -1.5 0 
C -1.5 0.397805 -1.341951 0.77937 -1.06066 1.06066 
C -0.77937 1.341951 -0.397805 1.5 0 1.5 
z
" id="m0c334ca5bb" style="stroke:#f5deb3;"/>
    </defs>
    <g>
     <use style="fill:#f5deb3;stroke:#f5deb3;" x="145.417974" xlink:href="#m0c334ca5bb" y="27.513663"/>
     <use style="fill:#f5deb3;stroke:#f5deb3;" x="145.417974" xlink:href="#m0c334ca5bb" y="27.513663"/>
    </g>
   </g>
   <g id="line2d_42">
    <defs>
     <path d="M 0 1.5 
C 0.397805 1.5 0.77937 1.341951 1.06066 1.06066 
C 1.341951 0.77937 1.5 0.397805 1.5 0 
C 1.5 -0.397805 1.341951 -0.77937 1.06066 -1.06066 
C 0.77937 -1.341951 0.397805 -1.5 0 -1.5 
C -0.397805 -1.5 -0.77937 -1.341951 -1.06066 -1.06066 
C -1.341951 -0.77937 -1.5 -0.397805 -1.5 0 
C -1.5 0.397805 -1.341951 0.77937 -1.06066 1.06066 
C -0.77937 1.341951 -0.397805 1.5 0 1.5 
z
" id="m9570c31d84" style="stroke:#000080;"/>
    </defs>
    <g>
     <use style="fill:#000080;stroke:#000080;" x="214.275663" xlink:href="#m9570c31d84" y="216.242842"/>
     <use style="fill:#000080;stroke:#000080;" x="214.275663" xlink:href="#m9570c31d84" y="216.242842"/>
    </g>
   </g>
   <g id="line2d_43">
    <path d="M 131.354881 294.88 
L 131.354881 294.355752 
L 134.788423 294.355752 
L 134.788423 293.831505 
L 134.964358 293.831505 
L 134.964358 293.307257 
L 135.173129 293.307257 
L 135.173129 292.783009 
L 135.851269 292.783009 
L 135.851269 292.258761 
L 136.883542 292.258761 
L 136.883542 291.734514 
L 137.407721 291.734514 
L 137.407721 291.210266 
L 138.410429 291.210266 
L 138.410429 290.686018 
L 142.541345 290.686018 
L 142.541345 290.161771 
L 143.160822 290.161771 
L 143.22589 289.113275 
L 143.632361 289.113275 
L 143.69567 288.06478 
L 144.295937 288.06478 
L 144.295937 287.540532 
L 144.538318 287.540532 
L 144.598384 286.492036 
L 145.090928 286.492036 
L 145.090928 285.967789 
L 145.906427 285.967789 
L 145.99879 284.919293 
L 146.182039 284.919293 
L 146.291058 283.870798 
L 146.327245 283.870798 
L 146.327245 283.34655 
L 146.471234 283.34655 
L 146.471234 282.822302 
L 146.808451 282.822302 
L 146.808451 282.298055 
L 150.735133 282.298055 
L 150.735133 281.773807 
L 152.157156 281.773807 
L 152.157156 281.249559 
L 152.526544 281.249559 
L 152.526544 280.725312 
L 153.193908 280.725312 
L 153.193908 280.201064 
L 153.434649 280.201064 
L 153.434649 279.676816 
L 153.789554 279.676816 
L 153.789554 279.152568 
L 154.194556 279.152568 
L 154.194556 278.628321 
L 154.353922 278.628321 
L 154.365249 277.579825 
L 154.545472 277.579825 
L 154.545472 277.055578 
L 155.451207 277.055578 
L 155.451207 276.53133 
L 155.68349 276.53133 
L 155.68349 276.007082 
L 156.321704 276.007082 
L 156.321704 275.482834 
L 156.711349 275.482834 
L 156.711349 274.958587 
L 158.757817 274.958587 
L 158.757817 274.434339 
L 158.871447 274.434339 
L 158.871447 273.910091 
L 159.894529 273.910091 
L 159.894529 273.385844 
L 160.163298 273.385844 
L 160.163298 272.861596 
L 160.625729 272.861596 
L 160.625729 272.337348 
L 160.805716 272.337348 
L 160.805716 271.8131 
L 160.960709 271.8131 
L 160.960709 271.288853 
L 161.091363 271.288853 
L 161.091363 270.764605 
L 161.205828 270.764605 
L 161.205828 270.240357 
L 161.559624 270.240357 
L 161.559624 269.716109 
L 161.759623 269.716109 
L 161.759623 269.191862 
L 162.28185 269.191862 
L 162.28185 268.667614 
L 163.475361 268.667614 
L 163.475361 268.143366 
L 163.667563 268.143366 
L 163.667563 267.619119 
L 163.968094 267.619119 
L 163.968094 267.094871 
L 164.19329 267.094871 
L 164.257094 266.046375 
L 164.616319 266.046375 
L 164.616319 265.522128 
L 165.210886 265.522128 
L 165.240984 264.473632 
L 165.497669 264.473632 
L 165.497669 263.949385 
L 166.256838 263.949385 
L 166.256838 263.425137 
L 166.448514 263.425137 
L 166.448514 262.900889 
L 166.665777 262.900889 
L 166.665777 262.376641 
L 167.092235 262.376641 
L 167.092235 261.852394 
L 167.991707 261.852394 
L 167.991707 261.328146 
L 168.733922 261.328146 
L 168.733922 260.803898 
L 169.174867 260.803898 
L 169.174867 260.279651 
L 169.813469 260.279651 
L 169.891652 259.231155 
L 170.335546 259.231155 
L 170.424745 258.18266 
L 171.113603 258.18266 
L 171.134958 256.609917 
L 171.548248 256.609917 
L 171.548248 256.085669 
L 171.780027 256.085669 
L 171.780027 255.561421 
L 171.988426 255.561421 
L 171.988426 255.037173 
L 173.662824 255.037173 
L 173.732689 253.988678 
L 174.366709 253.988678 
L 174.447863 252.940182 
L 174.744496 252.940182 
L 174.744496 252.415935 
L 175.814207 252.415935 
L 175.814207 251.891687 
L 176.120321 251.891687 
L 176.136282 250.843192 
L 176.380231 250.843192 
L 176.380231 250.318944 
L 176.815095 250.318944 
L 176.815095 249.794696 
L 177.420805 249.794696 
L 177.420805 249.270448 
L 178.990278 249.270448 
L 178.990278 248.746201 
L 179.189117 248.746201 
L 179.189117 248.221953 
L 179.340724 248.221953 
L 179.340724 247.697705 
L 179.564349 247.697705 
L 179.564349 247.173458 
L 179.774777 247.173458 
L 179.774777 246.64921 
L 180.433328 246.64921 
L 180.473042 245.600714 
L 181.122573 245.600714 
L 181.229668 244.552219 
L 181.236784 244.552219 
L 181.236784 244.027971 
L 183.038535 244.027971 
L 183.038535 243.503724 
L 184.290218 243.503724 
L 184.290218 242.979476 
L 184.760257 242.979476 
L 184.864267 241.93098 
L 185.195194 241.93098 
L 185.195194 241.406733 
L 185.356432 241.406733 
L 185.373219 240.358237 
L 185.979476 240.358237 
L 185.979476 239.83399 
L 186.498852 239.83399 
L 186.498852 239.309742 
L 187.068997 239.309742 
L 187.068997 238.785494 
L 187.242103 238.785494 
L 187.268838 237.736999 
L 187.700802 237.736999 
L 187.700802 237.212751 
L 188.319631 237.212751 
L 188.319631 236.688503 
L 190.258787 236.688503 
L 190.258787 236.164255 
L 190.954455 236.164255 
L 190.954455 235.640008 
L 191.084657 235.640008 
L 191.084657 235.11576 
L 191.466833 235.11576 
L 191.466833 234.591512 
L 192.552605 234.591512 
L 192.552605 234.067265 
L 193.411108 234.067265 
L 193.411108 233.543017 
L 194.324275 233.543017 
L 194.324275 233.018769 
L 194.681585 233.018769 
L 194.681585 232.494521 
L 195.033745 232.494521 
L 195.130182 230.921778 
L 195.456777 230.921778 
L 195.456777 230.397531 
L 195.952455 230.397531 
L 195.952455 229.873283 
L 196.075924 229.873283 
L 196.075924 229.349035 
L 196.996998 229.349035 
L 197.010266 228.30054 
L 197.309827 228.30054 
L 197.363736 226.727797 
L 197.789028 226.727797 
L 197.789028 226.203549 
L 198.579917 226.203549 
L 198.579917 225.679301 
L 199.444061 225.679301 
L 199.444061 225.155053 
L 199.668699 225.155053 
L 199.668699 224.630806 
L 200.667352 224.630806 
L 200.667352 224.106558 
L 201.697916 224.106558 
L 201.697916 223.58231 
L 202.100629 223.58231 
L 202.133708 222.533815 
L 202.39053 222.533815 
L 202.39053 222.009567 
L 202.958075 222.009567 
L 202.958075 221.485319 
L 203.088935 221.485319 
L 203.088935 220.961072 
L 204.488942 220.961072 
L 204.488942 220.436824 
L 206.105666 220.436824 
L 206.105666 219.912576 
L 206.286636 219.912576 
L 206.31257 218.864081 
L 207.377767 218.864081 
L 207.377767 218.339833 
L 208.306317 218.339833 
L 208.306317 217.815585 
L 210.244653 217.815585 
L 210.244653 217.291338 
L 210.682485 217.291338 
L 210.682485 216.76709 
L 214.275663 216.76709 
L 214.275663 216.242842 
L 333.168 216.242842 
L 333.168 216.242842 
" style="fill:none;stroke:#000080;stroke-linecap:square;stroke-width:1.5;"/>
   </g>
   <g id="line2d_44">
    <defs>
     <path d="M 0 6 
C 1.591219 6 3.117479 5.367802 4.242641 4.242641 
C 5.367802 3.117479 6 1.591219 6 0 
C 6 -1.591219 5.367802 -3.117479 4.242641 -4.242641 
C 3.117479 -5.367802 1.591219 -6 0 -6 
C -1.591219 -6 -3.117479 -5.367802 -4.242641 -4.242641 
C -5.367802 -3.117479 -6 -1.591219 -6 0 
C -6 1.591219 -5.367802 3.117479 -4.242641 4.242641 
C -3.117479 5.367802 -1.591219 6 0 6 
z
" id="m08751d7289" style="stroke:#000080;stroke-width:1.5;"/>
    </defs>
    <g>
     <use style="fill:none;stroke:#000080;stroke-width:1.5;" x="195.130182" xlink:href="#m08751d7289" y="231.446026"/>
     <use style="fill:none;stroke:#000080;stroke-width:1.5;" x="214.275663" xlink:href="#m08751d7289" y="216.76709"/>
     <use style="fill:none;stroke:#000080;stroke-width:1.5;" x="214.275663" xlink:href="#m08751d7289" y="216.242842"/>
     <use style="fill:none;stroke:#000080;stroke-width:1.5;" x="214.275663" xlink:href="#m08751d7289" y="216.242842"/>
     <use style="fill:none;stroke:#000080;stroke-width:1.5;" x="333.168" xlink:href="#m08751d7289" y="216.242842"/>
    </g>
   </g>
   <g id="line2d_45">
    <path style="fill:none;stroke:#000080;stroke-linecap:square;stroke-width:1.5;"/>
    <g/>
   </g>
   <g id="line2d_46">
    <path clip-path="url(#p579af9a131)" d="M 140.812746 290.686018 
" style="fill:none;stroke:#000080;stroke-linecap:square;stroke-width:1.5;"/>
    <defs>
     <path d="M -12 12 
L 12 -12 
M -12 -12 
L 12 12 
" id="mc750bf9b9a" style="stroke:#000080;"/>
    </defs>
    <g clip-path="url(#p579af9a131)">
     <use style="fill:#000080;stroke:#000080;" x="140.812746" xlink:href="#mc750bf9b9a" y="290.686018"/>
    </g>
   </g>
   <g id="line2d_47">
    <defs>
     <path d="M 0 1.5 
C 0.397805 1.5 0.77937 1.341951 1.06066 1.06066 
C 1.341951 0.77937 1.5 0.397805 1.5 0 
C 1.5 -0.397805 1.341951 -0.77937 1.06066 -1.06066 
C 0.77937 -1.341951 0.397805 -1.5 0 -1.5 
C -0.397805 -1.5 -0.77937 -1.341951 -1.06066 -1.06066 
C -1.341951 -0.77937 -1.5 -0.397805 -1.5 0 
C -1.5 0.397805 -1.341951 0.77937 -1.06066 1.06066 
C -0.77937 1.341951 -0.397805 1.5 0 1.5 
z
" id="m1b9c1d4f42" style="stroke:#ff00ff;"/>
    </defs>
    <g>
     <use style="fill:#ff00ff;stroke:#ff00ff;" x="211.970923" xlink:href="#m1b9c1d4f42" y="27.513663"/>
     <use style="fill:#ff00ff;stroke:#ff00ff;" x="211.970923" xlink:href="#m1b9c1d4f42" y="27.513663"/>
    </g>
   </g>
   <g id="line2d_48">
    <path d="M 143.441019 294.88 
L 143.441019 294.355752 
L 144.397345 294.355752 
L 144.397345 293.831505 
L 146.236635 293.831505 
L 146.236635 293.307257 
L 146.471234 293.307257 
L 146.471234 292.783009 
L 146.667271 292.783009 
L 146.667271 292.258761 
L 149.860095 292.258761 
L 149.860095 291.734514 
L 150.324681 291.734514 
L 150.324681 291.210266 
L 150.481525 291.210266 
L 150.580595 290.161771 
L 150.929828 290.161771 
L 150.985052 289.113275 
L 151.581093 289.113275 
L 151.581093 288.589027 
L 151.740126 288.589027 
L 151.753312 287.540532 
L 151.936869 287.540532 
L 151.936869 287.016284 
L 152.066791 287.016284 
L 152.066791 286.492036 
L 152.182887 286.492036 
L 152.182887 285.967789 
L 152.513938 285.967789 
L 152.61453 284.919293 
L 152.97432 284.919293 
L 152.97432 284.395046 
L 153.108845 284.395046 
L 153.169647 282.822302 
L 153.577492 282.822302 
L 153.624843 281.773807 
L 153.964296 281.773807 
L 153.964296 280.725312 
L 154.160213 280.725312 
L 154.251642 279.152568 
L 154.38788 279.152568 
L 154.421772 278.104073 
L 154.834363 278.104073 
L 154.834363 276.007082 
L 155.269542 276.007082 
L 155.269542 275.482834 
L 155.429934 275.482834 
L 155.429934 274.434339 
L 155.902323 274.434339 
L 155.902323 273.910091 
L 156.036409 273.910091 
L 156.108178 272.337348 
L 156.210188 272.337348 
L 156.311596 270.764605 
L 156.45257 270.764605 
L 156.45257 270.240357 
L 156.64206 270.240357 
L 156.64206 269.716109 
L 157.005179 269.716109 
L 157.005179 269.191862 
L 157.294071 269.191862 
L 157.303617 268.143366 
L 157.455646 268.143366 
L 157.455646 267.619119 
L 157.718503 267.619119 
L 157.718503 267.094871 
L 158.132707 267.094871 
L 158.132707 266.046375 
L 158.358579 266.046375 
L 158.358579 264.99788 
L 158.47487 264.99788 
L 158.581522 260.279651 
L 158.643431 260.279651 
L 158.669895 259.231155 
L 158.757817 259.231155 
L 158.784106 258.18266 
L 158.880156 258.18266 
L 158.888862 257.134164 
L 159.403273 257.134164 
L 159.445454 256.085669 
L 159.537889 256.085669 
L 159.646493 252.415935 
L 159.679772 252.415935 
L 159.779224 250.318944 
L 159.861664 250.318944 
L 159.902736 249.270448 
L 160.009066 249.270448 
L 160.066049 248.221953 
L 160.155215 248.221953 
L 160.203656 247.173458 
L 160.268033 247.173458 
L 160.268033 246.64921 
L 160.419969 246.64921 
L 160.483543 242.979476 
L 160.538977 242.979476 
L 160.58635 240.358237 
L 160.688547 240.358237 
L 160.79793 238.261246 
L 160.844596 238.261246 
L 160.89888 236.688503 
L 161.053039 236.688503 
L 161.121962 235.11576 
L 161.19061 235.11576 
L 161.205828 233.543017 
L 161.35727 233.543017 
L 161.409962 232.494521 
L 161.469983 232.494521 
L 161.52233 230.921778 
L 161.619126 230.921778 
L 161.65621 228.30054 
L 161.803753 228.30054 
L 161.898981 226.727797 
L 161.95004 226.727797 
L 161.95004 226.203549 
L 162.095093 226.203549 
L 162.095093 224.630806 
L 162.260404 224.630806 
L 162.338907 221.485319 
L 162.381577 221.485319 
L 162.381577 219.912576 
L 162.494847 219.912576 
L 162.494847 217.815585 
L 162.663364 217.815585 
L 162.767854 215.718594 
L 162.864809 215.718594 
L 162.94748 211.524613 
L 163.213447 211.524613 
L 163.321382 209.427622 
L 163.348261 209.427622 
L 163.348261 208.903374 
L 163.482025 208.903374 
L 163.482025 208.379126 
L 163.614756 208.379126 
L 163.700485 206.282136 
L 163.726778 206.282136 
L 163.779242 204.709392 
L 163.922699 204.709392 
L 164.032738 200.515411 
L 164.097139 200.515411 
L 164.148486 197.369924 
L 164.244352 197.369924 
L 164.301615 192.651695 
L 164.358689 192.651695 
L 164.415574 190.554704 
L 164.516239 190.554704 
L 164.566352 186.88497 
L 164.765354 186.88497 
L 164.765354 186.360722 
L 164.888571 186.360722 
L 164.980407 183.739484 
L 165.01091 183.739484 
L 165.114219 182.16674 
L 165.192802 182.16674 
L 165.253008 179.021254 
L 165.37279 179.021254 
L 165.42642 176.924263 
L 165.491743 176.924263 
L 165.545004 174.303025 
L 165.609878 174.303025 
L 165.692092 172.206034 
L 165.727207 172.206034 
L 165.727207 171.157538 
L 165.843741 171.157538 
L 165.843741 170.109043 
L 165.959489 170.109043 
L 166.005572 168.012052 
L 166.085919 168.012052 
L 166.085919 167.487804 
L 166.239823 167.487804 
L 166.302131 165.390813 
L 166.364215 165.390813 
L 166.414844 163.293823 
L 166.482119 163.293823 
L 166.526822 161.196832 
L 166.682377 161.196832 
L 166.765134 160.148336 
L 166.798126 160.148336 
L 166.858446 158.575593 
L 166.967581 158.575593 
L 167.043565 154.381611 
L 167.183793 154.381611 
L 167.290887 151.760373 
L 167.322886 151.760373 
L 167.397319 149.663382 
L 167.712715 149.663382 
L 167.743939 148.090639 
L 168.124439 148.090639 
L 168.225847 144.945152 
L 168.306545 144.945152 
L 168.32666 143.372409 
L 168.431882 143.372409 
L 168.431882 142.848162 
L 168.625601 142.848162 
L 168.68477 140.226923 
L 168.831808 140.226923 
L 168.919431 138.129932 
L 169.112563 138.129932 
L 169.208322 134.984446 
L 169.279792 134.984446 
L 169.279792 134.460198 
L 169.492438 134.460198 
L 169.586109 132.887455 
L 169.697845 132.887455 
L 169.697845 132.363207 
L 169.882472 132.363207 
L 169.978614 131.314712 
L 170.046958 131.314712 
L 170.137663 129.217721 
L 170.227893 129.217721 
L 170.317651 126.072235 
L 170.398034 126.072235 
L 170.495773 124.499491 
L 170.584146 124.499491 
L 170.636953 123.450996 
L 170.759542 123.450996 
L 170.759542 122.926748 
L 171.023622 122.926748 
L 171.105054 121.878253 
L 171.330189 121.878253 
L 171.359705 119.781262 
L 171.443757 119.781262 
L 171.51488 117.160023 
L 171.589867 117.160023 
L 171.589867 116.635776 
L 171.857961 116.635776 
L 171.857961 116.111528 
L 172.101776 116.111528 
L 172.198341 114.014537 
L 172.262418 114.014537 
L 172.262418 112.966042 
L 172.421573 112.966042 
L 172.500602 110.344803 
L 172.547845 110.344803 
L 172.579268 108.77206 
L 172.855663 108.77206 
L 172.859524 107.723564 
L 173.123881 107.723564 
L 173.218668 106.150821 
L 173.335483 106.150821 
L 173.440315 104.05383 
L 173.458967 104.05383 
L 173.496213 101.956839 
L 173.570462 101.956839 
L 173.644391 99.859849 
L 173.692276 99.859849 
L 173.692276 98.811353 
L 173.936971 98.811353 
L 174.009344 95.141619 
L 174.138853 95.141619 
L 174.210383 93.568876 
L 174.366709 93.568876 
L 174.366709 93.044628 
L 174.5076 93.044628 
L 174.5076 91.996133 
L 174.657781 91.996133 
L 174.751415 89.374894 
L 174.782513 89.374894 
L 174.82389 88.326399 
L 174.909773 88.326399 
L 174.923475 86.229408 
L 175.066686 86.229408 
L 175.066686 85.70516 
L 175.195237 85.70516 
L 175.238996 84.132417 
L 175.422905 84.132417 
L 175.529008 82.559674 
L 175.542224 82.559674 
L 175.63446 81.511178 
L 175.765371 81.511178 
L 175.85642 80.462683 
L 176.056327 80.462683 
L 176.113932 78.88994 
L 176.177712 78.88994 
L 176.177712 77.841444 
L 176.377085 77.841444 
L 176.452433 75.744454 
L 176.741324 75.744454 
L 176.79054 74.17171 
L 176.925162 74.17171 
L 177.013316 72.598967 
L 177.107054 72.598967 
L 177.107054 72.074719 
L 177.227254 72.074719 
L 177.227254 70.501976 
L 177.582894 70.501976 
L 177.615129 67.35649 
L 178.114305 67.35649 
L 178.224862 66.307995 
L 178.272831 66.307995 
L 178.348744 65.259499 
L 178.385176 65.259499 
L 178.385176 64.211004 
L 178.552327 64.211004 
L 178.552327 63.686756 
L 184.837362 63.686756 
L 184.837362 63.162508 
L 185.115896 63.162508 
L 185.13859 62.114013 
L 185.305973 62.114013 
L 185.305973 61.589765 
L 185.648775 61.589765 
L 185.648775 61.065517 
L 186.174529 61.065517 
L 186.174529 60.54127 
L 186.303934 60.54127 
L 186.303934 60.017022 
L 186.456895 60.017022 
L 186.456895 59.492774 
L 186.665666 59.492774 
L 186.665666 58.968526 
L 186.847995 58.968526 
L 186.847995 58.444279 
L 186.969048 58.444279 
L 187.00808 57.395783 
L 187.210302 57.395783 
L 187.258817 56.347288 
L 187.491122 56.347288 
L 187.542139 55.298792 
L 188.250385 55.298792 
L 188.344742 54.250297 
L 188.376079 54.250297 
L 188.376079 53.726049 
L 188.763053 53.726049 
L 188.763053 53.201802 
L 189.380891 53.201802 
L 189.380891 52.677554 
L 189.811048 52.677554 
L 189.811048 52.153306 
L 189.955883 52.153306 
L 189.955883 51.629058 
L 190.215237 51.629058 
L 190.215237 51.104811 
L 190.521936 51.104811 
L 190.521936 50.580563 
L 194.095722 50.580563 
L 194.095722 50.056315 
L 195.706914 50.056315 
L 195.706914 49.532068 
L 196.643569 49.532068 
L 196.643569 49.00782 
L 197.398964 49.00782 
L 197.398964 48.483572 
L 197.692794 48.483572 
L 197.692794 47.959324 
L 197.820685 47.959324 
L 197.82701 46.910829 
L 198.035316 46.910829 
L 198.142078 45.338086 
L 198.230543 45.338086 
L 198.321188 43.765343 
L 198.353633 43.765343 
L 198.458442 41.668352 
L 198.493237 41.668352 
L 198.592017 40.619856 
L 198.646364 40.619856 
L 198.717702 38.522865 
L 198.786183 38.522865 
L 198.842475 36.950122 
L 199.277994 36.950122 
L 199.277994 36.425875 
L 199.390533 36.425875 
L 199.390533 35.901627 
L 199.523633 35.901627 
L 199.523633 35.377379 
L 199.781942 35.377379 
L 199.781942 34.853131 
L 199.911256 34.853131 
L 200.022122 33.804636 
L 200.180398 33.804636 
L 200.180398 33.280388 
L 200.30285 33.280388 
L 200.305978 32.231893 
L 200.667352 32.231893 
L 200.667352 31.707645 
L 203.701117 31.707645 
L 203.701117 31.183397 
L 203.955957 31.183397 
L 204.035455 30.134902 
L 204.306502 30.134902 
L 204.306502 29.610654 
L 204.915228 29.610654 
L 204.915228 29.086407 
L 209.070724 29.086407 
L 209.070724 28.562159 
L 209.797177 28.562159 
L 209.797177 28.037911 
L 211.970923 28.037911 
L 211.970923 27.513663 
L 333.168 27.513663 
L 333.168 27.513663 
" style="fill:none;stroke:#ff00ff;stroke-linecap:square;stroke-width:1.5;"/>
   </g>
   <g id="line2d_49">
    <defs>
     <path d="M -0 8.485281 
L 5.091169 0 
L 0 -8.485281 
L -5.091169 -0 
z
" id="mf73dcc7f9a" style="stroke:#ff00ff;stroke-linejoin:miter;stroke-width:1.5;"/>
    </defs>
    <g>
     <use style="fill:none;stroke:#ff00ff;stroke-linejoin:miter;stroke-width:1.5;" x="166.482119" xlink:href="#mf73dcc7f9a" y="163.293823"/>
     <use style="fill:none;stroke:#ff00ff;stroke-linejoin:miter;stroke-width:1.5;" x="178.552327" xlink:href="#mf73dcc7f9a" y="64.211004"/>
     <use style="fill:none;stroke:#ff00ff;stroke-linejoin:miter;stroke-width:1.5;" x="211.970923" xlink:href="#mf73dcc7f9a" y="27.513663"/>
     <use style="fill:none;stroke:#ff00ff;stroke-linejoin:miter;stroke-width:1.5;" x="211.970923" xlink:href="#mf73dcc7f9a" y="27.513663"/>
     <use style="fill:none;stroke:#ff00ff;stroke-linejoin:miter;stroke-width:1.5;" x="333.168" xlink:href="#mf73dcc7f9a" y="27.513663"/>
    </g>
   </g>
   <g id="line2d_50">
    <path style="fill:none;stroke:#ff00ff;stroke-linecap:square;stroke-width:1.5;"/>
    <g/>
   </g>
   <g id="line2d_51">
    <path clip-path="url(#p579af9a131)" d="M 180.930519 63.686756 
" style="fill:none;stroke:#ff00ff;stroke-linecap:square;stroke-width:1.5;"/>
    <defs>
     <path d="M -12 12 
L 12 -12 
M -12 -12 
L 12 12 
" id="md89bfccf32" style="stroke:#ff00ff;"/>
    </defs>
    <g clip-path="url(#p579af9a131)">
     <use style="fill:#ff00ff;stroke:#ff00ff;" x="180.930519" xlink:href="#md89bfccf32" y="63.686756"/>
    </g>
   </g>
   <g id="line2d_52">
    <defs>
     <path d="M 0 1.5 
C 0.397805 1.5 0.77937 1.341951 1.06066 1.06066 
C 1.341951 0.77937 1.5 0.397805 1.5 0 
C 1.5 -0.397805 1.341951 -0.77937 1.06066 -1.06066 
C 0.77937 -1.341951 0.397805 -1.5 0 -1.5 
C -0.397805 -1.5 -0.77937 -1.341951 -1.06066 -1.06066 
C -1.341951 -0.77937 -1.5 -0.397805 -1.5 0 
C -1.5 0.397805 -1.341951 0.77937 -1.06066 1.06066 
C -0.77937 1.341951 -0.397805 1.5 0 1.5 
z
" id="m219351a6ee" style="stroke:#ff7500;"/>
    </defs>
    <g>
     <use style="fill:#ff7500;stroke:#ff7500;" x="186.572032" xlink:href="#m219351a6ee" y="27.513663"/>
     <use style="fill:#ff7500;stroke:#ff7500;" x="186.572032" xlink:href="#m219351a6ee" y="27.513663"/>
    </g>
   </g>
   <g id="line2d_53">
    <path d="M 136.213149 294.88 
L 136.213149 293.831505 
L 137.039379 293.831505 
L 137.039379 293.307257 
L 138.862788 293.307257 
L 138.862788 292.783009 
L 139.001743 292.783009 
L 139.001743 292.258761 
L 140.637478 292.258761 
L 140.637478 291.734514 
L 140.762851 291.734514 
L 140.787817 290.686018 
L 142.942135 290.686018 
L 143.029944 289.637523 
L 143.117307 289.637523 
L 143.117307 289.113275 
L 143.590024 289.113275 
L 143.674593 288.06478 
L 144.07071 288.06478 
L 144.07071 287.540532 
L 145.226349 287.540532 
L 145.226349 287.016284 
L 145.531932 287.016284 
L 145.531932 286.492036 
L 146.200257 286.492036 
L 146.309161 285.443541 
L 146.596243 285.443541 
L 146.596243 284.919293 
L 147.052761 284.919293 
L 147.052761 284.395046 
L 147.190823 284.395046 
L 147.25944 282.822302 
L 147.327785 282.822302 
L 147.344828 281.773807 
L 147.531203 281.773807 
L 147.531203 281.249559 
L 147.881493 281.249559 
L 147.881493 280.725312 
L 148.273273 280.725312 
L 148.273273 280.201064 
L 148.608906 280.201064 
L 148.608906 279.676816 
L 148.93811 279.676816 
L 148.93811 279.152568 
L 149.123434 279.152568 
L 149.215352 278.104073 
L 149.261127 278.104073 
L 149.367465 276.53133 
L 149.756771 276.53133 
L 149.756771 275.482834 
L 149.874805 275.482834 
L 149.962801 273.910091 
L 150.122968 273.910091 
L 150.209706 272.337348 
L 150.267289 272.337348 
L 150.281655 271.288853 
L 150.396151 271.288853 
L 150.424656 269.716109 
L 150.509889 269.716109 
L 150.509889 269.191862 
L 150.971263 269.191862 
L 151.067558 268.143366 
L 151.244973 268.143366 
L 151.272106 267.094871 
L 151.447433 267.094871 
L 151.514393 266.046375 
L 151.567774 266.046375 
L 151.634268 264.99788 
L 151.740126 264.99788 
L 151.740126 264.473632 
L 152.07973 264.473632 
L 152.07973 263.949385 
L 152.31097 263.949385 
L 152.361937 262.376641 
L 152.551729 262.376641 
L 152.627063 259.755403 
L 152.986593 259.755403 
L 152.986593 259.231155 
L 153.193908 259.231155 
L 153.230235 258.18266 
L 153.36278 258.18266 
L 153.458539 256.609917 
L 153.541892 256.609917 
L 153.541892 255.561421 
L 153.801259 255.561421 
L 153.801259 255.037173 
L 154.079811 255.037173 
L 154.183116 253.46443 
L 154.24024 253.46443 
L 154.297175 251.367439 
L 154.95514 251.367439 
L 155.031558 249.794696 
L 155.215743 249.794696 
L 155.215743 249.270448 
L 155.355271 249.270448 
L 155.397975 248.221953 
L 155.483068 248.221953 
L 155.504275 246.64921 
L 155.693974 246.64921 
L 155.693974 246.124962 
L 155.819286 246.124962 
L 155.902323 244.552219 
L 156.118406 244.552219 
L 156.200014 242.979476 
L 156.542589 242.979476 
L 156.612279 241.406733 
L 156.800027 241.406733 
L 156.888249 239.83399 
L 156.927315 239.83399 
L 157.014888 236.688503 
L 157.04398 236.688503 
L 157.04398 236.164255 
L 157.23668 236.164255 
L 157.265399 235.11576 
L 157.351271 235.11576 
L 157.446184 233.018769 
L 157.559391 233.018769 
L 157.625086 231.446026 
L 157.681197 231.446026 
L 157.755728 228.824787 
L 157.885384 228.824787 
L 157.995745 226.203549 
L 158.078053 226.203549 
L 158.187188 225.155053 
L 158.223412 225.155053 
L 158.223412 224.630806 
L 158.394445 224.630806 
L 158.430236 223.058063 
L 158.537164 223.058063 
L 158.608082 219.388328 
L 158.80161 219.388328 
L 158.880156 216.76709 
L 158.949676 216.76709 
L 158.98433 215.718594 
L 159.182249 215.718594 
L 159.182249 214.670099 
L 159.301615 214.670099 
L 159.411718 211.524613 
L 159.604803 211.524613 
L 159.712987 207.330631 
L 159.72128 207.330631 
L 159.795744 205.757888 
L 159.845207 205.757888 
L 159.927332 202.612401 
L 159.960072 202.612401 
L 160.057921 197.894172 
L 160.098527 197.894172 
L 160.187524 194.224438 
L 160.276064 194.224438 
L 160.364149 191.603199 
L 160.396068 191.603199 
L 160.451785 188.457713 
L 160.546882 188.457713 
L 160.657167 184.263731 
L 160.680707 184.263731 
L 160.79014 179.545502 
L 160.813499 179.545502 
L 160.922092 175.875768 
L 160.937549 175.875768 
L 160.991541 173.778777 
L 161.060711 173.778777 
L 161.160133 168.012052 
L 161.213431 168.012052 
L 161.213431 167.487804 
L 161.334639 167.487804 
L 161.417476 160.672584 
L 161.447499 160.672584 
L 161.514862 156.478602 
L 161.581961 156.478602 
L 161.678423 151.236125 
L 161.707995 151.236125 
L 161.811097 147.042143 
L 161.95004 147.042143 
L 162.044464 141.799666 
L 162.102314 141.799666 
L 162.181541 138.129932 
L 162.303269 138.129932 
L 162.402872 132.363207 
L 162.452458 132.363207 
L 162.551203 127.644978 
L 162.565263 127.644978 
L 162.656375 125.023739 
L 162.677333 125.023739 
L 162.774798 121.878253 
L 162.809473 121.878253 
L 162.885514 118.732766 
L 162.940606 118.732766 
L 162.995522 117.160023 
L 163.057093 117.160023 
L 163.159224 112.966042 
L 163.199907 112.966042 
L 163.307927 107.199317 
L 163.328106 107.199317 
L 163.435326 101.956839 
L 163.468695 101.956839 
L 163.575044 99.859849 
L 163.588292 99.859849 
L 163.687324 95.141619 
L 163.707062 95.141619 
L 163.785789 90.947637 
L 163.825017 90.947637 
L 163.929191 87.802151 
L 164.045637 87.802151 
L 164.148486 85.180912 
L 164.174103 85.180912 
L 164.269826 80.986931 
L 164.288907 80.986931 
L 164.371346 76.792949 
L 164.409262 76.792949 
L 164.415574 75.220206 
L 164.528781 75.220206 
L 164.628788 71.550472 
L 164.678574 71.550472 
L 164.771536 69.453481 
L 164.790068 69.453481 
L 164.900844 64.211004 
L 164.913109 64.211004 
L 164.9743 63.162508 
L 165.156578 63.162508 
L 165.240984 61.589765 
L 165.283032 61.589765 
L 165.324977 58.968526 
L 165.491743 58.968526 
L 165.574523 55.298792 
L 165.692092 55.298792 
L 165.750577 53.726049 
L 165.843741 53.726049 
L 165.95372 51.104811 
L 165.965256 51.104811 
L 166.045792 48.483572 
L 166.313436 48.483572 
L 166.397984 45.862334 
L 166.437298 45.862334 
L 166.437298 45.338086 
L 166.721046 45.338086 
L 166.809109 43.765343 
L 166.973019 43.765343 
L 166.973019 43.241095 
L 167.418526 43.241095 
L 167.418526 42.716847 
L 167.790669 42.716847 
L 167.790669 42.192599 
L 183.130117 42.192599 
L 183.157709 41.144104 
L 183.364296 41.144104 
L 183.364296 40.619856 
L 183.545636 40.619856 
L 183.57464 39.571361 
L 183.776304 39.571361 
L 183.776304 39.047113 
L 184.080464 39.047113 
L 184.080464 38.522865 
L 184.471922 38.522865 
L 184.471922 37.998618 
L 184.881541 37.998618 
L 184.984822 36.425875 
L 185.040033 36.425875 
L 185.040033 35.901627 
L 185.30223 35.901627 
L 185.412324 33.280388 
L 185.593648 33.280388 
L 185.593648 32.756141 
L 185.800379 32.756141 
L 185.907338 30.65915 
L 185.934425 30.65915 
L 186.027998 29.610654 
L 186.434125 29.610654 
L 186.526767 28.037911 
L 186.572032 28.037911 
L 186.572032 27.513663 
L 333.168 27.513663 
L 333.168 27.513663 
" style="fill:none;stroke:#ff7500;stroke-linecap:square;stroke-width:1.5;"/>
   </g>
   <g id="line2d_54">
    <defs>
     <path d="M 0 -6 
L -1.347084 -1.854102 
L -5.706339 -1.854102 
L -2.179628 0.708204 
L -3.526712 4.854102 
L -0 2.291796 
L 3.526712 4.854102 
L 2.179628 0.708204 
L 5.706339 -1.854102 
L 1.347084 -1.854102 
z
" id="mc9c8041b7c" style="stroke:#ff7500;stroke-linejoin:bevel;stroke-width:1.5;"/>
    </defs>
    <g>
     <use style="fill:none;stroke:#ff7500;stroke-linejoin:bevel;stroke-width:1.5;" x="161.514862" xlink:href="#mc9c8041b7c" y="159.624089"/>
     <use style="fill:none;stroke:#ff7500;stroke-linejoin:bevel;stroke-width:1.5;" x="186.572032" xlink:href="#mc9c8041b7c" y="28.037911"/>
     <use style="fill:none;stroke:#ff7500;stroke-linejoin:bevel;stroke-width:1.5;" x="186.572032" xlink:href="#mc9c8041b7c" y="27.513663"/>
     <use style="fill:none;stroke:#ff7500;stroke-linejoin:bevel;stroke-width:1.5;" x="186.572032" xlink:href="#mc9c8041b7c" y="27.513663"/>
     <use style="fill:none;stroke:#ff7500;stroke-linejoin:bevel;stroke-width:1.5;" x="333.168" xlink:href="#mc9c8041b7c" y="27.513663"/>
    </g>
   </g>
   <g id="line2d_55">
    <path style="fill:none;stroke:#ff7500;stroke-linecap:square;stroke-width:1.5;"/>
    <g/>
   </g>
   <g id="line2d_56">
    <path clip-path="url(#p579af9a131)" d="M 180.391032 42.192599 
" style="fill:none;stroke:#ff7500;stroke-linecap:square;stroke-width:1.5;"/>
    <defs>
     <path d="M -12 12 
L 12 -12 
M -12 -12 
L 12 12 
" id="m2f1ae64921" style="stroke:#ff7500;"/>
    </defs>
    <g clip-path="url(#p579af9a131)">
     <use style="fill:#ff7500;stroke:#ff7500;" x="180.391032" xlink:href="#m2f1ae64921" y="42.192599"/>
    </g>
   </g>
   <g id="line2d_57">
    <defs>
     <path d="M 0 1.5 
C 0.397805 1.5 0.77937 1.341951 1.06066 1.06066 
C 1.341951 0.77937 1.5 0.397805 1.5 0 
C 1.5 -0.397805 1.341951 -0.77937 1.06066 -1.06066 
C 0.77937 -1.341951 0.397805 -1.5 0 -1.5 
C -0.397805 -1.5 -0.77937 -1.341951 -1.06066 -1.06066 
C -1.341951 -0.77937 -1.5 -0.397805 -1.5 0 
C -1.5 0.397805 -1.341951 0.77937 -1.06066 1.06066 
C -0.77937 1.341951 -0.397805 1.5 0 1.5 
z
" id="mc5b75032bd" style="stroke:#6495ed;"/>
    </defs>
    <g>
     <use style="fill:#6495ed;stroke:#6495ed;" x="162.167163" xlink:href="#mc5b75032bd" y="27.513663"/>
     <use style="fill:#6495ed;stroke:#6495ed;" x="162.167163" xlink:href="#mc5b75032bd" y="27.513663"/>
    </g>
   </g>
   <g id="line2d_58">
    <path d="M 141.400449 294.88 
L 141.400449 294.355752 
L 141.520398 294.355752 
L 141.520398 293.831505 
L 141.710592 293.831505 
L 141.710592 293.307257 
L 141.945413 293.307257 
L 141.945413 292.258761 
L 143.029944 292.258761 
L 143.051826 290.161771 
L 143.398208 290.161771 
L 143.398208 289.637523 
L 143.69567 289.637523 
L 143.69567 289.113275 
L 143.842493 289.113275 
L 143.863366 287.540532 
L 144.234803 287.540532 
L 144.255205 286.492036 
L 144.397345 286.492036 
L 144.457904 285.443541 
L 145.129729 285.443541 
L 145.168442 284.395046 
L 145.512992 284.395046 
L 145.512992 283.870798 
L 145.64514 283.870798 
L 145.682711 282.822302 
L 146.291058 282.822302 
L 146.381382 281.773807 
L 146.507044 281.773807 
L 146.542779 280.201064 
L 146.790867 280.201064 
L 146.826017 278.628321 
L 147.225166 278.628321 
L 147.276552 277.055578 
L 147.463664 277.055578 
L 147.497466 276.007082 
L 147.698898 276.007082 
L 147.798735 273.385844 
L 148.192385 273.385844 
L 148.240964 272.337348 
L 148.321624 272.337348 
L 148.369839 271.288853 
L 148.529586 271.288853 
L 148.545479 269.716109 
L 148.750766 269.716109 
L 148.750766 269.191862 
L 149.108066 269.191862 
L 149.108066 268.667614 
L 149.245882 268.667614 
L 149.291576 267.619119 
L 149.473148 267.619119 
L 149.548241 266.570623 
L 149.637921 266.570623 
L 149.697448 264.99788 
L 150.209706 264.99788 
L 150.209706 264.473632 
L 150.453114 264.473632 
L 150.538207 263.425137 
L 151.026355 263.425137 
L 151.026355 262.900889 
L 151.272106 262.900889 
L 151.326243 261.328146 
L 151.700505 261.328146 
L 151.792811 259.755403 
L 151.8977 259.755403 
L 151.936869 255.561421 
L 152.221413 255.561421 
L 152.221413 254.512926 
L 152.400064 254.512926 
L 152.400064 253.988678 
L 152.589437 253.988678 
L 152.61453 252.940182 
L 152.714537 252.940182 
L 152.714537 252.415935 
L 152.925139 252.415935 
L 153.011113 249.794696 
L 153.096659 249.794696 
L 153.206025 246.64921 
L 153.25441 246.64921 
L 153.302659 245.600714 
L 153.38677 245.600714 
L 153.494311 242.979476 
L 153.530009 242.979476 
L 153.613017 239.83399 
L 153.64847 239.83399 
L 153.754391 237.212751 
L 153.76612 237.212751 
L 153.789554 236.164255 
L 153.906246 236.164255 
L 153.987461 232.494521 
L 154.05677 232.494521 
L 154.05677 230.921778 
L 154.194556 230.921778 
L 154.22883 227.252044 
L 154.319896 227.252044 
L 154.399185 224.106558 
L 154.466857 224.106558 
L 154.567867 221.485319 
L 154.590234 221.485319 
L 154.657159 218.339833 
L 154.712732 218.339833 
L 154.779183 216.242842 
L 154.933243 216.242842 
L 154.966077 213.621604 
L 155.064205 213.621604 
L 155.150962 211.000365 
L 155.215743 211.000365 
L 155.323172 207.330631 
L 155.333878 207.330631 
L 155.429934 203.136649 
L 155.451207 203.136649 
L 155.514869 199.991163 
L 155.578296 199.991163 
L 155.68349 196.321429 
L 155.693974 196.321429 
L 155.798464 193.175943 
L 155.808878 193.175943 
L 155.902323 190.030456 
L 155.92302 190.030456 
L 155.995263 187.409218 
L 156.036409 187.409218 
L 156.108178 183.215236 
L 156.169456 183.215236 
L 156.240673 179.021254 
L 156.291362 179.021254 
L 156.402354 174.303025 
L 156.422458 174.303025 
L 156.522625 172.206034 
L 156.542589 172.206034 
L 156.64206 166.963557 
L 156.661886 166.963557 
L 156.731095 161.721079 
L 156.790197 161.721079 
L 156.888249 156.478602 
L 156.927315 156.478602 
L 156.927315 155.430107 
L 157.063347 155.430107 
L 157.16948 151.236125 
L 157.188707 151.236125 
L 157.294071 148.614886 
L 157.303617 148.614886 
L 157.408281 138.129932 
L 157.446184 138.129932 
L 157.540575 136.032941 
L 157.587577 136.032941 
L 157.681197 132.887455 
L 157.69986 132.887455 
L 157.802146 128.693473 
L 157.829937 128.693473 
L 157.940653 122.4025 
L 157.949847 122.4025 
L 158.050661 116.635776 
L 158.105402 116.635776 
L 158.214363 110.869051 
L 158.223412 110.869051 
L 158.313642 107.723564 
L 158.349601 107.723564 
L 158.385485 104.05383 
L 158.465953 104.05383 
L 158.572659 98.287105 
L 158.616926 98.287105 
L 158.722702 94.093124 
L 158.749045 94.093124 
L 158.854014 88.850646 
L 158.880156 88.850646 
L 158.98433 83.083922 
L 158.992983 83.083922 
L 159.079271 80.462683 
L 159.139417 80.462683 
L 159.216438 76.268701 
L 159.25056 76.268701 
L 159.352519 72.598967 
L 159.369454 72.598967 
L 159.462297 67.35649 
L 159.537889 67.35649 
L 159.646493 63.162508 
L 159.72128 63.162508 
L 159.828735 54.250297 
L 159.845207 54.250297 
L 159.927332 49.00782 
L 159.976419 49.00782 
L 159.99275 47.435077 
L 160.122845 47.435077 
L 160.203656 44.28959 
L 160.28409 44.28959 
L 160.324166 42.716847 
L 160.507322 42.716847 
L 160.602113 40.095609 
L 160.657167 40.095609 
L 160.704216 38.522865 
L 160.79014 38.522865 
L 160.875636 37.47437 
L 161.022317 37.47437 
L 161.121962 35.901627 
L 161.160133 35.901627 
L 161.243814 34.328884 
L 161.319534 34.328884 
L 161.387399 32.231893 
L 161.492437 32.231893 
L 161.492437 31.183397 
L 161.766986 31.183397 
L 161.818438 29.610654 
L 162.044464 29.610654 
L 162.152773 28.037911 
L 162.167163 28.037911 
L 162.167163 27.513663 
L 333.168 27.513663 
L 333.168 27.513663 
" style="fill:none;stroke:#6495ed;stroke-linecap:square;stroke-width:1.5;"/>
   </g>
   <g id="line2d_59">
    <defs>
     <path d="M -0 6 
L 6 -6 
L -6 -6 
z
" id="m85777d8940" style="stroke:#6495ed;stroke-linejoin:miter;stroke-width:1.5;"/>
    </defs>
    <g>
     <use style="fill:none;stroke:#6495ed;stroke-linejoin:miter;stroke-width:1.5;" x="158.050661" xlink:href="#m85777d8940" y="116.635776"/>
     <use style="fill:none;stroke:#6495ed;stroke-linejoin:miter;stroke-width:1.5;" x="162.167163" xlink:href="#m85777d8940" y="28.037911"/>
     <use style="fill:none;stroke:#6495ed;stroke-linejoin:miter;stroke-width:1.5;" x="162.167163" xlink:href="#m85777d8940" y="27.513663"/>
     <use style="fill:none;stroke:#6495ed;stroke-linejoin:miter;stroke-width:1.5;" x="162.167163" xlink:href="#m85777d8940" y="27.513663"/>
     <use style="fill:none;stroke:#6495ed;stroke-linejoin:miter;stroke-width:1.5;" x="333.168" xlink:href="#m85777d8940" y="27.513663"/>
    </g>
   </g>
   <g id="line2d_60">
    <path style="fill:none;stroke:#6495ed;stroke-linecap:square;stroke-width:1.5;"/>
    <g/>
   </g>
   <g id="line2d_61">
    <path d="M 333.168 216.242842 
L 363.64328 289.532673 
" style="fill:none;stroke:#000080;stroke-linecap:square;stroke-width:1.5;"/>
    <g>
     <use style="fill:none;stroke:#000080;stroke-width:1.5;" x="333.168" xlink:href="#m08751d7289" y="216.242842"/>
     <use style="fill:none;stroke:#000080;stroke-width:1.5;" x="363.64328" xlink:href="#m08751d7289" y="289.532673"/>
    </g>
   </g>
   <g id="line2d_62">
    <path d="M 333.168 27.513663 
L 363.64328 225.364752 
" style="fill:none;stroke:#ff00ff;stroke-linecap:square;stroke-width:1.5;"/>
    <g>
     <use style="fill:none;stroke:#ff00ff;stroke-linejoin:miter;stroke-width:1.5;" x="333.168" xlink:href="#mf73dcc7f9a" y="27.513663"/>
     <use style="fill:none;stroke:#ff00ff;stroke-linejoin:miter;stroke-width:1.5;" x="363.64328" xlink:href="#mf73dcc7f9a" y="225.364752"/>
    </g>
   </g>
   <g id="line2d_63">
    <path d="M 333.168 27.513663 
L 363.64328 161.196832 
" style="fill:none;stroke:#ff7500;stroke-linecap:square;stroke-width:1.5;"/>
    <g>
     <use style="fill:none;stroke:#ff7500;stroke-linejoin:bevel;stroke-width:1.5;" x="333.168" xlink:href="#mc9c8041b7c" y="27.513663"/>
     <use style="fill:none;stroke:#ff7500;stroke-linejoin:bevel;stroke-width:1.5;" x="363.64328" xlink:href="#mc9c8041b7c" y="161.196832"/>
    </g>
   </g>
   <g id="line2d_64">
    <path d="M 333.168 27.513663 
L 363.64328 97.028911 
" style="fill:none;stroke:#6495ed;stroke-linecap:square;stroke-width:1.5;"/>
    <g>
     <use style="fill:none;stroke:#6495ed;stroke-linejoin:miter;stroke-width:1.5;" x="333.168" xlink:href="#m85777d8940" y="27.513663"/>
     <use style="fill:none;stroke:#6495ed;stroke-linejoin:miter;stroke-width:1.5;" x="363.64328" xlink:href="#m85777d8940" y="97.028911"/>
    </g>
   </g>
   <g id="line2d_65">
    <path d="M 333.168 294.88 
L 333.168 27.513663 
" style="fill:none;stroke:#000000;stroke-linecap:square;stroke-width:1.5;"/>
   </g>
   <g id="patch_3">
    <path d="M 56.12 294.88 
L 56.12 24.84 
" style="fill:none;stroke:#000000;stroke-linecap:square;stroke-linejoin:miter;stroke-width:0.8;"/>
   </g>
   <g id="patch_4">
    <path d="M 333.168 294.88 
L 333.168 24.84 
" style="fill:none;stroke:#000000;stroke-linecap:square;stroke-linejoin:miter;stroke-width:0.8;"/>
   </g>
   <g id="patch_5">
    <path d="M 56.12 294.88 
L 333.168 294.88 
" style="fill:none;stroke:#000000;stroke-linecap:square;stroke-linejoin:miter;stroke-width:0.8;"/>
   </g>
   <g id="patch_6">
    <path d="M 56.12 24.84 
L 333.168 24.84 
" style="fill:none;stroke:#000000;stroke-linecap:square;stroke-linejoin:miter;stroke-width:0.8;"/>
   </g>
   <g id="text_13">
    <!-- scipyAlg -->
    <defs>
     <path d="M 32.171875 -5.078125 
Q 28.375 -14.84375 24.75 -17.8125 
Q 21.140625 -20.796875 15.09375 -20.796875 
L 7.90625 -20.796875 
L 7.90625 -13.28125 
L 13.1875 -13.28125 
Q 16.890625 -13.28125 18.9375 -11.515625 
Q 21 -9.765625 23.484375 -3.21875 
L 25.09375 0.875 
L 2.984375 54.6875 
L 12.5 54.6875 
L 29.59375 11.921875 
L 46.6875 54.6875 
L 56.203125 54.6875 
z
" id="DejaVuSans-79"/>
     <path d="M 34.1875 63.1875 
L 20.796875 26.90625 
L 47.609375 26.90625 
z
M 28.609375 72.90625 
L 39.796875 72.90625 
L 67.578125 0 
L 57.328125 0 
L 50.6875 18.703125 
L 17.828125 18.703125 
L 11.1875 0 
L 0.78125 0 
z
" id="DejaVuSans-41"/>
    </defs>
    <g transform="translate(369.18424 294.223611)scale(0.17 -0.17)">
     <use xlink:href="#DejaVuSans-73"/>
     <use x="52.099609" xlink:href="#DejaVuSans-63"/>
     <use x="107.080078" xlink:href="#DejaVuSans-69"/>
     <use x="134.863281" xlink:href="#DejaVuSans-70"/>
     <use x="198.339844" xlink:href="#DejaVuSans-79"/>
     <use x="257.519531" xlink:href="#DejaVuSans-41"/>
     <use x="325.927734" xlink:href="#DejaVuSans-6c"/>
     <use x="353.710938" xlink:href="#DejaVuSans-67"/>
    </g>
   </g>
   <g id="text_14">
    <!-- CMA ES PPM -->
    <defs>
     <path d="M 64.40625 67.28125 
L 64.40625 56.890625 
Q 59.421875 61.53125 53.78125 63.8125 
Q 48.140625 66.109375 41.796875 66.109375 
Q 29.296875 66.109375 22.65625 58.46875 
Q 16.015625 50.828125 16.015625 36.375 
Q 16.015625 21.96875 22.65625 14.328125 
Q 29.296875 6.6875 41.796875 6.6875 
Q 48.140625 6.6875 53.78125 8.984375 
Q 59.421875 11.28125 64.40625 15.921875 
L 64.40625 5.609375 
Q 59.234375 2.09375 53.4375 0.328125 
Q 47.65625 -1.421875 41.21875 -1.421875 
Q 24.65625 -1.421875 15.125 8.703125 
Q 5.609375 18.84375 5.609375 36.375 
Q 5.609375 53.953125 15.125 64.078125 
Q 24.65625 74.21875 41.21875 74.21875 
Q 47.75 74.21875 53.53125 72.484375 
Q 59.328125 70.75 64.40625 67.28125 
z
" id="DejaVuSans-43"/>
     <path d="M 9.8125 72.90625 
L 24.515625 72.90625 
L 43.109375 23.296875 
L 61.8125 72.90625 
L 76.515625 72.90625 
L 76.515625 0 
L 66.890625 0 
L 66.890625 64.015625 
L 48.09375 14.015625 
L 38.1875 14.015625 
L 19.390625 64.015625 
L 19.390625 0 
L 9.8125 0 
z
" id="DejaVuSans-4d"/>
     <path d="M 9.8125 72.90625 
L 55.90625 72.90625 
L 55.90625 64.59375 
L 19.671875 64.59375 
L 19.671875 43.015625 
L 54.390625 43.015625 
L 54.390625 34.71875 
L 19.671875 34.71875 
L 19.671875 8.296875 
L 56.78125 8.296875 
L 56.78125 0 
L 9.8125 0 
z
" id="DejaVuSans-45"/>
     <path d="M 53.515625 70.515625 
L 53.515625 60.890625 
Q 47.90625 63.578125 42.921875 64.890625 
Q 37.9375 66.21875 33.296875 66.21875 
Q 25.25 66.21875 20.875 63.09375 
Q 16.5 59.96875 16.5 54.203125 
Q 16.5 49.359375 19.40625 46.890625 
Q 22.3125 44.4375 30.421875 42.921875 
L 36.375 41.703125 
Q 47.40625 39.59375 52.65625 34.296875 
Q 57.90625 29 57.90625 20.125 
Q 57.90625 9.515625 50.796875 4.046875 
Q 43.703125 -1.421875 29.984375 -1.421875 
Q 24.8125 -1.421875 18.96875 -0.25 
Q 13.140625 0.921875 6.890625 3.21875 
L 6.890625 13.375 
Q 12.890625 10.015625 18.65625 8.296875 
Q 24.421875 6.59375 29.984375 6.59375 
Q 38.421875 6.59375 43.015625 9.90625 
Q 47.609375 13.234375 47.609375 19.390625 
Q 47.609375 24.75 44.3125 27.78125 
Q 41.015625 30.8125 33.5 32.328125 
L 27.484375 33.5 
Q 16.453125 35.6875 11.515625 40.375 
Q 6.59375 45.0625 6.59375 53.421875 
Q 6.59375 63.09375 13.40625 68.65625 
Q 20.21875 74.21875 32.171875 74.21875 
Q 37.3125 74.21875 42.625 73.28125 
Q 47.953125 72.359375 53.515625 70.515625 
z
" id="DejaVuSans-53"/>
     <path d="M 19.671875 64.796875 
L 19.671875 37.40625 
L 32.078125 37.40625 
Q 38.96875 37.40625 42.71875 40.96875 
Q 46.484375 44.53125 46.484375 51.125 
Q 46.484375 57.671875 42.71875 61.234375 
Q 38.96875 64.796875 32.078125 64.796875 
z
M 9.8125 72.90625 
L 32.078125 72.90625 
Q 44.34375 72.90625 50.609375 67.359375 
Q 56.890625 61.8125 56.890625 51.125 
Q 56.890625 40.328125 50.609375 34.8125 
Q 44.34375 29.296875 32.078125 29.296875 
L 19.671875 29.296875 
L 19.671875 0 
L 9.8125 0 
z
" id="DejaVuSans-50"/>
    </defs>
    <g transform="translate(369.18424 230.05569)scale(0.17 -0.17)">
     <use xlink:href="#DejaVuSans-43"/>
     <use x="69.824219" xlink:href="#DejaVuSans-4d"/>
     <use x="156.103516" xlink:href="#DejaVuSans-41"/>
     <use x="224.511719" xlink:href="#DejaVuSans-20"/>
     <use x="256.298828" xlink:href="#DejaVuSans-45"/>
     <use x="319.482422" xlink:href="#DejaVuSans-53"/>
     <use x="382.958984" xlink:href="#DejaVuSans-20"/>
     <use x="414.746094" xlink:href="#DejaVuSans-50"/>
     <use x="475.048828" xlink:href="#DejaVuSans-50"/>
     <use x="535.351562" xlink:href="#DejaVuSans-4d"/>
    </g>
   </g>
   <g id="text_15">
    <!-- CMA ES CSA -->
    <g transform="translate(369.18424 165.887769)scale(0.17 -0.17)">
     <use xlink:href="#DejaVuSans-43"/>
     <use x="69.824219" xlink:href="#DejaVuSans-4d"/>
     <use x="156.103516" xlink:href="#DejaVuSans-41"/>
     <use x="224.511719" xlink:href="#DejaVuSans-20"/>
     <use x="256.298828" xlink:href="#DejaVuSans-45"/>
     <use x="319.482422" xlink:href="#DejaVuSans-53"/>
     <use x="382.958984" xlink:href="#DejaVuSans-20"/>
     <use x="414.746094" xlink:href="#DejaVuSans-43"/>
     <use x="484.570312" xlink:href="#DejaVuSans-53"/>
     <use x="548.0625" xlink:href="#DejaVuSans-41"/>
    </g>
   </g>
   <g id="text_16">
    <!-- CMAES posi -->
    <g transform="translate(369.18424 101.719848)scale(0.17 -0.17)">
     <use xlink:href="#DejaVuSans-43"/>
     <use x="69.824219" xlink:href="#DejaVuSans-4d"/>
     <use x="156.103516" xlink:href="#DejaVuSans-41"/>
     <use x="224.511719" xlink:href="#DejaVuSans-45"/>
     <use x="287.695312" xlink:href="#DejaVuSans-53"/>
     <use x="351.171875" xlink:href="#DejaVuSans-20"/>
     <use x="382.958984" xlink:href="#DejaVuSans-70"/>
     <use x="446.435547" xlink:href="#DejaVuSans-6f"/>
     <use x="507.617188" xlink:href="#DejaVuSans-73"/>
     <use x="559.716797" xlink:href="#DejaVuSans-69"/>
    </g>
   </g>
   <g id="text_17">
    <!-- best 2009 -->
    <defs>
     <path d="M 48.6875 27.296875 
Q 48.6875 37.203125 44.609375 42.84375 
Q 40.53125 48.484375 33.40625 48.484375 
Q 26.265625 48.484375 22.1875 42.84375 
Q 18.109375 37.203125 18.109375 27.296875 
Q 18.109375 17.390625 22.1875 11.75 
Q 26.265625 6.109375 33.40625 6.109375 
Q 40.53125 6.109375 44.609375 11.75 
Q 48.6875 17.390625 48.6875 27.296875 
z
M 18.109375 46.390625 
Q 20.953125 51.265625 25.265625 53.625 
Q 29.59375 56 35.59375 56 
Q 45.5625 56 51.78125 48.09375 
Q 58.015625 40.1875 58.015625 27.296875 
Q 58.015625 14.40625 51.78125 6.484375 
Q 45.5625 -1.421875 35.59375 -1.421875 
Q 29.59375 -1.421875 25.265625 0.953125 
Q 20.953125 3.328125 18.109375 8.203125 
L 18.109375 0 
L 9.078125 0 
L 9.078125 75.984375 
L 18.109375 75.984375 
z
" id="DejaVuSans-62"/>
     <path d="M 10.984375 1.515625 
L 10.984375 10.5 
Q 14.703125 8.734375 18.5 7.8125 
Q 22.3125 6.890625 25.984375 6.890625 
Q 35.75 6.890625 40.890625 13.453125 
Q 46.046875 20.015625 46.78125 33.40625 
Q 43.953125 29.203125 39.59375 26.953125 
Q 35.25 24.703125 29.984375 24.703125 
Q 19.046875 24.703125 12.671875 31.3125 
Q 6.296875 37.9375 6.296875 49.421875 
Q 6.296875 60.640625 12.9375 67.421875 
Q 19.578125 74.21875 30.609375 74.21875 
Q 43.265625 74.21875 49.921875 64.515625 
Q 56.59375 54.828125 56.59375 36.375 
Q 56.59375 19.140625 48.40625 8.859375 
Q 40.234375 -1.421875 26.421875 -1.421875 
Q 22.703125 -1.421875 18.890625 -0.6875 
Q 15.09375 0.046875 10.984375 1.515625 
z
M 30.609375 32.421875 
Q 37.25 32.421875 41.125 36.953125 
Q 45.015625 41.5 45.015625 49.421875 
Q 45.015625 57.28125 41.125 61.84375 
Q 37.25 66.40625 30.609375 66.40625 
Q 23.96875 66.40625 20.09375 61.84375 
Q 16.21875 57.28125 16.21875 49.421875 
Q 16.21875 41.5 20.09375 36.953125 
Q 23.96875 32.421875 30.609375 32.421875 
z
" id="DejaVuSans-39"/>
    </defs>
    <g transform="translate(369.18424 37.551928)scale(0.17 -0.17)">
     <use xlink:href="#DejaVuSans-62"/>
     <use x="63.476562" xlink:href="#DejaVuSans-65"/>
     <use x="125" xlink:href="#DejaVuSans-73"/>
     <use x="177.099609" xlink:href="#DejaVuSans-74"/>
     <use x="216.308594" xlink:href="#DejaVuSans-20"/>
     <use x="248.095703" xlink:href="#DejaVuSans-32"/>
     <use x="311.71875" xlink:href="#DejaVuSans-30"/>
     <use x="375.341797" xlink:href="#DejaVuSans-30"/>
     <use x="438.964844" xlink:href="#DejaVuSans-39"/>
    </g>
   </g>
   <g id="text_18">
    <!-- bbob f10, 5-D -->
    <defs>
     <path d="M 10.796875 72.90625 
L 49.515625 72.90625 
L 49.515625 64.59375 
L 19.828125 64.59375 
L 19.828125 46.734375 
Q 21.96875 47.46875 24.109375 47.828125 
Q 26.265625 48.1875 28.421875 48.1875 
Q 40.625 48.1875 47.75 41.5 
Q 54.890625 34.8125 54.890625 23.390625 
Q 54.890625 11.625 47.5625 5.09375 
Q 40.234375 -1.421875 26.90625 -1.421875 
Q 22.3125 -1.421875 17.546875 -0.640625 
Q 12.796875 0.140625 7.71875 1.703125 
L 7.71875 11.625 
Q 12.109375 9.234375 16.796875 8.0625 
Q 21.484375 6.890625 26.703125 6.890625 
Q 35.15625 6.890625 40.078125 11.328125 
Q 45.015625 15.765625 45.015625 23.390625 
Q 45.015625 31 40.078125 35.4375 
Q 35.15625 39.890625 26.703125 39.890625 
Q 22.75 39.890625 18.8125 39.015625 
Q 14.890625 38.140625 10.796875 36.28125 
z
" id="DejaVuSans-35"/>
     <path d="M 19.671875 64.796875 
L 19.671875 8.109375 
L 31.59375 8.109375 
Q 46.6875 8.109375 53.6875 14.9375 
Q 60.6875 21.78125 60.6875 36.53125 
Q 60.6875 51.171875 53.6875 57.984375 
Q 46.6875 64.796875 31.59375 64.796875 
z
M 9.8125 72.90625 
L 30.078125 72.90625 
Q 51.265625 72.90625 61.171875 64.09375 
Q 71.09375 55.28125 71.09375 36.53125 
Q 71.09375 17.671875 61.125 8.828125 
Q 51.171875 0 30.078125 0 
L 9.8125 0 
z
" id="DejaVuSans-44"/>
    </defs>
    <g transform="translate(58.89048 35.290806)scale(0.102 -0.102)">
     <use xlink:href="#DejaVuSans-62"/>
     <use x="63.476562" xlink:href="#DejaVuSans-62"/>
     <use x="126.953125" xlink:href="#DejaVuSans-6f"/>
     <use x="188.134766" xlink:href="#DejaVuSans-62"/>
     <use x="251.611328" xlink:href="#DejaVuSans-20"/>
     <use x="283.398438" xlink:href="#DejaVuSans-66"/>
     <use x="318.603516" xlink:href="#DejaVuSans-31"/>
     <use x="382.226562" xlink:href="#DejaVuSans-30"/>
     <use x="445.849609" xlink:href="#DejaVuSans-2c"/>
     <use x="477.636719" xlink:href="#DejaVuSans-20"/>
     <use x="509.423828" xlink:href="#DejaVuSans-35"/>
     <use x="573.046875" xlink:href="#DejaVuSans-2d"/>
     <use x="609.130859" xlink:href="#DejaVuSans-44"/>
    </g>
    <!-- 51 targets: 100..1e-08 -->
    <defs>
     <path d="M 11.71875 12.40625 
L 22.015625 12.40625 
L 22.015625 0 
L 11.71875 0 
z
M 11.71875 51.703125 
L 22.015625 51.703125 
L 22.015625 39.3125 
L 11.71875 39.3125 
z
" id="DejaVuSans-3a"/>
    </defs>
    <g transform="translate(58.89048 46.712575)scale(0.102 -0.102)">
     <use xlink:href="#DejaVuSans-35"/>
     <use x="63.623047" xlink:href="#DejaVuSans-31"/>
     <use x="127.246094" xlink:href="#DejaVuSans-20"/>
     <use x="159.033203" xlink:href="#DejaVuSans-74"/>
     <use x="198.242188" xlink:href="#DejaVuSans-61"/>
     <use x="259.521484" xlink:href="#DejaVuSans-72"/>
     <use x="300.619141" xlink:href="#DejaVuSans-67"/>
     <use x="364.095703" xlink:href="#DejaVuSans-65"/>
     <use x="425.619141" xlink:href="#DejaVuSans-74"/>
     <use x="464.828125" xlink:href="#DejaVuSans-73"/>
     <use x="516.927734" xlink:href="#DejaVuSans-3a"/>
     <use x="550.619141" xlink:href="#DejaVuSans-20"/>
     <use x="582.40625" xlink:href="#DejaVuSans-31"/>
     <use x="646.029297" xlink:href="#DejaVuSans-30"/>
     <use x="709.652344" xlink:href="#DejaVuSans-30"/>
     <use x="773.275391" xlink:href="#DejaVuSans-2e"/>
     <use x="805.0625" xlink:href="#DejaVuSans-2e"/>
     <use x="836.849609" xlink:href="#DejaVuSans-31"/>
     <use x="900.472656" xlink:href="#DejaVuSans-65"/>
     <use x="961.996094" xlink:href="#DejaVuSans-2d"/>
     <use x="998.080078" xlink:href="#DejaVuSans-30"/>
     <use x="1061.703125" xlink:href="#DejaVuSans-38"/>
    </g>
    <!-- 15 instances -->
    <g transform="translate(58.89048 58.134344)scale(0.102 -0.102)">
     <use xlink:href="#DejaVuSans-31"/>
     <use x="63.623047" xlink:href="#DejaVuSans-35"/>
     <use x="127.246094" xlink:href="#DejaVuSans-20"/>
     <use x="159.033203" xlink:href="#DejaVuSans-69"/>
     <use x="186.816406" xlink:href="#DejaVuSans-6e"/>
     <use x="250.195312" xlink:href="#DejaVuSans-73"/>
     <use x="302.294922" xlink:href="#DejaVuSans-74"/>
     <use x="341.503906" xlink:href="#DejaVuSans-61"/>
     <use x="402.783203" xlink:href="#DejaVuSans-6e"/>
     <use x="466.162109" xlink:href="#DejaVuSans-63"/>
     <use x="521.142578" xlink:href="#DejaVuSans-65"/>
     <use x="582.666016" xlink:href="#DejaVuSans-73"/>
    </g>
   </g>
   <g id="text_19">
    <!-- v0.0.0 -->
    <g style="fill:#808080;" transform="translate(178.96275 290.099912)scale(0.1 -0.1)">
     <use xlink:href="#DejaVuSans-76"/>
     <use x="59.179688" xlink:href="#DejaVuSans-30"/>
     <use x="122.802734" xlink:href="#DejaVuSans-2e"/>
     <use x="154.589844" xlink:href="#DejaVuSans-30"/>
     <use x="218.212891" xlink:href="#DejaVuSans-2e"/>
     <use x="250" xlink:href="#DejaVuSans-30"/>
    </g>
   </g>
   <g id="text_20">
    <!-- 10 Ellipsoid -->
    <g transform="translate(137.284625 18.84)scale(0.2 -0.2)">
     <use xlink:href="#DejaVuSans-31"/>
     <use x="63.623047" xlink:href="#DejaVuSans-30"/>
     <use x="127.246094" xlink:href="#DejaVuSans-20"/>
     <use x="159.033203" xlink:href="#DejaVuSans-45"/>
     <use x="222.216797" xlink:href="#DejaVuSans-6c"/>
     <use x="250" xlink:href="#DejaVuSans-6c"/>
     <use x="277.783203" xlink:href="#DejaVuSans-69"/>
     <use x="305.566406" xlink:href="#DejaVuSans-70"/>
     <use x="369.042969" xlink:href="#DejaVuSans-73"/>
     <use x="421.142578" xlink:href="#DejaVuSans-6f"/>
     <use x="482.324219" xlink:href="#DejaVuSans-69"/>
     <use x="510.107422" xlink:href="#DejaVuSans-64"/>
    </g>
   </g>
  </g>
 </g>
 <defs>
  <clipPath id="p579af9a131">
   <rect height="270.04" width="277.048" x="56.12" y="24.84"/>
  </clipPath>
 </defs>
</svg>
