<?xml version="1.0" encoding="utf-8" standalone="no"?>
<!DOCTYPE svg PUBLIC "-//W3C//DTD SVG 1.1//EN"
  "http://www.w3.org/Graphics/SVG/1.1/DTD/svg11.dtd">
<!-- Created with matplotlib (http://matplotlib.org/) -->
<svg height="345pt" version="1.1" viewBox="0 0 460 345" width="460pt" xmlns="http://www.w3.org/2000/svg" xmlns:xlink="http://www.w3.org/1999/xlink">
 <defs>
  <style type="text/css">
*{stroke-linecap:butt;stroke-linejoin:round;}
  </style>
 </defs>
 <g id="figure_1">
  <g id="patch_1">
   <path d="M 0 345.6 
L 460.8 345.6 
L 460.8 0 
L 0 0 
z
" style="fill:#ffffff;"/>
  </g>
  <g id="axes_1">
   <g id="patch_2">
    <path d="M 56.12 294.88 
L 333.168 294.88 
L 333.168 24.84 
L 56.12 24.84 
z
" style="fill:#ffffff;"/>
   </g>
   <g id="line2d_1">
    <path d="M 56.12 294.88 
L 56.12 289.637523 
L 61.064861 289.637523 
L 61.064861 284.395046 
L 64.900393 284.395046 
L 64.900393 279.152568 
L 72.979112 279.152568 
L 72.979112 268.667614 
L 78.452896 268.667614 
L 78.452896 263.425137 
L 87.847234 263.425137 
L 87.847234 258.18266 
L 92.564428 258.18266 
L 92.564428 252.940182 
L 99.761485 252.940182 
L 99.761485 247.697705 
L 100.207968 247.697705 
L 100.207968 242.455228 
L 108.988361 242.455228 
L 108.988361 237.212751 
L 112.341186 237.212751 
L 112.341186 231.970274 
L 125.913457 231.970274 
L 125.913457 226.727797 
L 129.630036 226.727797 
L 129.630036 221.485319 
L 131.935202 221.485319 
L 131.935202 216.242842 
L 137.528768 216.242842 
L 137.528768 211.000365 
L 138.266591 211.000365 
L 138.266591 205.757888 
L 138.647518 205.757888 
L 138.647518 200.515411 
L 139.066206 200.515411 
L 139.066206 195.272933 
L 139.519758 195.272933 
L 139.519758 190.030456 
L 142.772569 190.030456 
L 142.772569 184.787979 
L 142.993411 184.787979 
L 142.993411 179.545502 
L 143.35529 179.545502 
L 143.35529 174.303025 
L 143.426761 174.303025 
L 143.426761 74.695958 
L 143.779723 74.695958 
L 143.779723 69.453481 
L 144.397345 69.453481 
L 144.397345 64.211004 
L 144.731115 64.211004 
L 144.731115 58.968526 
L 145.219924 58.968526 
L 145.219924 53.726049 
L 145.85077 53.726049 
L 145.85077 48.483572 
L 146.248744 48.483572 
L 146.248744 43.241095 
L 146.814308 43.241095 
L 146.814308 37.998618 
L 147.248023 37.998618 
L 147.248023 32.756141 
L 147.587283 32.756141 
L 147.587283 27.513663 
L 333.168 27.513663 
" style="fill:none;stroke:#f5deb3;stroke-linecap:square;stroke-width:4;"/>
   </g>
   <g id="line2d_2">
    <defs>
     <path d="M -0 7.778175 
L 7.778175 0 
L 0 -7.778175 
L -7.778175 -0 
z
" id="mee65636b35" style="stroke:#f5deb3;stroke-linejoin:miter;stroke-width:1.5;"/>
    </defs>
    <g>
     <use style="fill:#f5deb3;stroke:#f5deb3;stroke-linejoin:miter;stroke-width:1.5;" x="87.847234" xlink:href="#mee65636b35" y="263.425137"/>
     <use style="fill:#f5deb3;stroke:#f5deb3;stroke-linejoin:miter;stroke-width:1.5;" x="143.35529" xlink:href="#mee65636b35" y="174.303025"/>
     <use style="fill:#f5deb3;stroke:#f5deb3;stroke-linejoin:miter;stroke-width:1.5;" x="147.587283" xlink:href="#mee65636b35" y="32.756141"/>
     <use style="fill:#f5deb3;stroke:#f5deb3;stroke-linejoin:miter;stroke-width:1.5;" x="147.587283" xlink:href="#mee65636b35" y="27.513663"/>
     <use style="fill:#f5deb3;stroke:#f5deb3;stroke-linejoin:miter;stroke-width:1.5;" x="333.168" xlink:href="#mee65636b35" y="27.513663"/>
    </g>
   </g>
   <g id="line2d_3">
    <path style="fill:none;stroke:#f5deb3;stroke-linecap:square;stroke-width:4;"/>
    <g/>
   </g>
   <g id="line2d_4">
    <path d="M 333.168 27.513663 
L 363.64328 32.86099 
" style="fill:none;stroke:#f5deb3;stroke-linecap:square;stroke-width:4;"/>
    <g>
     <use style="fill:#f5deb3;stroke:#f5deb3;stroke-linejoin:miter;stroke-width:1.5;" x="333.168" xlink:href="#mee65636b35" y="27.513663"/>
     <use style="fill:#f5deb3;stroke:#f5deb3;stroke-linejoin:miter;stroke-width:1.5;" x="363.64328" xlink:href="#mee65636b35" y="32.86099"/>
    </g>
   </g>
   <g id="matplotlib.axis_1">
    <g id="xtick_1">
     <g id="line2d_5">
      <path clip-path="url(#p4047da6450)" d="M 56.12 294.88 
L 56.12 24.84 
" style="fill:none;stroke:#b0b0b0;stroke-linecap:square;stroke-width:0.8;"/>
     </g>
     <g id="line2d_6">
      <defs>
       <path d="M 0 0 
L 0 3.5 
" id="me378522c9a" style="stroke:#000000;stroke-width:0.8;"/>
      </defs>
      <g>
       <use style="stroke:#000000;stroke-width:0.8;" x="56.12" xlink:href="#me378522c9a" y="294.88"/>
      </g>
     </g>
     <g id="text_1">
      <!-- 0 -->
      <defs>
       <path d="M 31.78125 66.40625 
Q 24.171875 66.40625 20.328125 58.90625 
Q 16.5 51.421875 16.5 36.375 
Q 16.5 21.390625 20.328125 13.890625 
Q 24.171875 6.390625 31.78125 6.390625 
Q 39.453125 6.390625 43.28125 13.890625 
Q 47.125 21.390625 47.125 36.375 
Q 47.125 51.421875 43.28125 58.90625 
Q 39.453125 66.40625 31.78125 66.40625 
z
M 31.78125 74.21875 
Q 44.046875 74.21875 50.515625 64.515625 
Q 56.984375 54.828125 56.984375 36.375 
Q 56.984375 17.96875 50.515625 8.265625 
Q 44.046875 -1.421875 31.78125 -1.421875 
Q 19.53125 -1.421875 13.0625 8.265625 
Q 6.59375 17.96875 6.59375 36.375 
Q 6.59375 54.828125 13.0625 64.515625 
Q 19.53125 74.21875 31.78125 74.21875 
z
" id="DejaVuSans-30"/>
      </defs>
      <g transform="translate(49.7575 317.076875)scale(0.2 -0.2)">
       <use xlink:href="#DejaVuSans-30"/>
      </g>
     </g>
    </g>
    <g id="xtick_2">
     <g id="line2d_7">
      <path clip-path="url(#p4047da6450)" d="M 135.276571 294.88 
L 135.276571 24.84 
" style="fill:none;stroke:#b0b0b0;stroke-linecap:square;stroke-width:0.8;"/>
     </g>
     <g id="line2d_8">
      <g>
       <use style="stroke:#000000;stroke-width:0.8;" x="135.276571" xlink:href="#me378522c9a" y="294.88"/>
      </g>
     </g>
     <g id="text_2">
      <!-- 2 -->
      <defs>
       <path d="M 19.1875 8.296875 
L 53.609375 8.296875 
L 53.609375 0 
L 7.328125 0 
L 7.328125 8.296875 
Q 12.9375 14.109375 22.625 23.890625 
Q 32.328125 33.6875 34.8125 36.53125 
Q 39.546875 41.84375 41.421875 45.53125 
Q 43.3125 49.21875 43.3125 52.78125 
Q 43.3125 58.59375 39.234375 62.25 
Q 35.15625 65.921875 28.609375 65.921875 
Q 23.96875 65.921875 18.8125 64.3125 
Q 13.671875 62.703125 7.8125 59.421875 
L 7.8125 69.390625 
Q 13.765625 71.78125 18.9375 73 
Q 24.125 74.21875 28.421875 74.21875 
Q 39.75 74.21875 46.484375 68.546875 
Q 53.21875 62.890625 53.21875 53.421875 
Q 53.21875 48.921875 51.53125 44.890625 
Q 49.859375 40.875 45.40625 35.40625 
Q 44.1875 33.984375 37.640625 27.21875 
Q 31.109375 20.453125 19.1875 8.296875 
z
" id="DejaVuSans-32"/>
      </defs>
      <g transform="translate(128.914071 317.076875)scale(0.2 -0.2)">
       <use xlink:href="#DejaVuSans-32"/>
      </g>
     </g>
    </g>
    <g id="xtick_3">
     <g id="line2d_9">
      <path clip-path="url(#p4047da6450)" d="M 214.433143 294.88 
L 214.433143 24.84 
" style="fill:none;stroke:#b0b0b0;stroke-linecap:square;stroke-width:0.8;"/>
     </g>
     <g id="line2d_10">
      <g>
       <use style="stroke:#000000;stroke-width:0.8;" x="214.433143" xlink:href="#me378522c9a" y="294.88"/>
      </g>
     </g>
     <g id="text_3">
      <!-- 4 -->
      <defs>
       <path d="M 37.796875 64.3125 
L 12.890625 25.390625 
L 37.796875 25.390625 
z
M 35.203125 72.90625 
L 47.609375 72.90625 
L 47.609375 25.390625 
L 58.015625 25.390625 
L 58.015625 17.1875 
L 47.609375 17.1875 
L 47.609375 0 
L 37.796875 0 
L 37.796875 17.1875 
L 4.890625 17.1875 
L 4.890625 26.703125 
z
" id="DejaVuSans-34"/>
      </defs>
      <g transform="translate(208.070643 317.076875)scale(0.2 -0.2)">
       <use xlink:href="#DejaVuSans-34"/>
      </g>
     </g>
    </g>
    <g id="xtick_4">
     <g id="line2d_11">
      <path clip-path="url(#p4047da6450)" d="M 293.589714 294.88 
L 293.589714 24.84 
" style="fill:none;stroke:#b0b0b0;stroke-linecap:square;stroke-width:0.8;"/>
     </g>
     <g id="line2d_12">
      <g>
       <use style="stroke:#000000;stroke-width:0.8;" x="293.589714" xlink:href="#me378522c9a" y="294.88"/>
      </g>
     </g>
     <g id="text_4">
      <!-- 6 -->
      <defs>
       <path d="M 33.015625 40.375 
Q 26.375 40.375 22.484375 35.828125 
Q 18.609375 31.296875 18.609375 23.390625 
Q 18.609375 15.53125 22.484375 10.953125 
Q 26.375 6.390625 33.015625 6.390625 
Q 39.65625 6.390625 43.53125 10.953125 
Q 47.40625 15.53125 47.40625 23.390625 
Q 47.40625 31.296875 43.53125 35.828125 
Q 39.65625 40.375 33.015625 40.375 
z
M 52.59375 71.296875 
L 52.59375 62.3125 
Q 48.875 64.0625 45.09375 64.984375 
Q 41.3125 65.921875 37.59375 65.921875 
Q 27.828125 65.921875 22.671875 59.328125 
Q 17.53125 52.734375 16.796875 39.40625 
Q 19.671875 43.65625 24.015625 45.921875 
Q 28.375 48.1875 33.59375 48.1875 
Q 44.578125 48.1875 50.953125 41.515625 
Q 57.328125 34.859375 57.328125 23.390625 
Q 57.328125 12.15625 50.6875 5.359375 
Q 44.046875 -1.421875 33.015625 -1.421875 
Q 20.359375 -1.421875 13.671875 8.265625 
Q 6.984375 17.96875 6.984375 36.375 
Q 6.984375 53.65625 15.1875 63.9375 
Q 23.390625 74.21875 37.203125 74.21875 
Q 40.921875 74.21875 44.703125 73.484375 
Q 48.484375 72.75 52.59375 71.296875 
z
" id="DejaVuSans-36"/>
      </defs>
      <g transform="translate(287.227214 317.076875)scale(0.2 -0.2)">
       <use xlink:href="#DejaVuSans-36"/>
      </g>
     </g>
    </g>
    <g id="xtick_5">
     <g id="line2d_13">
      <path clip-path="url(#p4047da6450)" d="M 56.12 294.88 
L 56.12 24.84 
" style="fill:none;stroke:#b0b0b0;stroke-linecap:square;stroke-width:0.8;"/>
     </g>
     <g id="line2d_14">
      <defs>
       <path d="M 0 0 
L 0 2 
" id="m012512f64b" style="stroke:#000000;stroke-width:0.6;"/>
      </defs>
      <g>
       <use style="stroke:#000000;stroke-width:0.6;" x="56.12" xlink:href="#m012512f64b" y="294.88"/>
      </g>
     </g>
    </g>
    <g id="xtick_6">
     <g id="line2d_15">
      <path clip-path="url(#p4047da6450)" d="M 95.698286 294.88 
L 95.698286 24.84 
" style="fill:none;stroke:#b0b0b0;stroke-linecap:square;stroke-width:0.8;"/>
     </g>
     <g id="line2d_16">
      <g>
       <use style="stroke:#000000;stroke-width:0.6;" x="95.698286" xlink:href="#m012512f64b" y="294.88"/>
      </g>
     </g>
    </g>
    <g id="xtick_7">
     <g id="line2d_17">
      <path clip-path="url(#p4047da6450)" d="M 135.276571 294.88 
L 135.276571 24.84 
" style="fill:none;stroke:#b0b0b0;stroke-linecap:square;stroke-width:0.8;"/>
     </g>
     <g id="line2d_18">
      <g>
       <use style="stroke:#000000;stroke-width:0.6;" x="135.276571" xlink:href="#m012512f64b" y="294.88"/>
      </g>
     </g>
    </g>
    <g id="xtick_8">
     <g id="line2d_19">
      <path clip-path="url(#p4047da6450)" d="M 174.854857 294.88 
L 174.854857 24.84 
" style="fill:none;stroke:#b0b0b0;stroke-linecap:square;stroke-width:0.8;"/>
     </g>
     <g id="line2d_20">
      <g>
       <use style="stroke:#000000;stroke-width:0.6;" x="174.854857" xlink:href="#m012512f64b" y="294.88"/>
      </g>
     </g>
    </g>
    <g id="xtick_9">
     <g id="line2d_21">
      <path clip-path="url(#p4047da6450)" d="M 214.433143 294.88 
L 214.433143 24.84 
" style="fill:none;stroke:#b0b0b0;stroke-linecap:square;stroke-width:0.8;"/>
     </g>
     <g id="line2d_22">
      <g>
       <use style="stroke:#000000;stroke-width:0.6;" x="214.433143" xlink:href="#m012512f64b" y="294.88"/>
      </g>
     </g>
    </g>
    <g id="xtick_10">
     <g id="line2d_23">
      <path clip-path="url(#p4047da6450)" d="M 254.011429 294.88 
L 254.011429 24.84 
" style="fill:none;stroke:#b0b0b0;stroke-linecap:square;stroke-width:0.8;"/>
     </g>
     <g id="line2d_24">
      <g>
       <use style="stroke:#000000;stroke-width:0.6;" x="254.011429" xlink:href="#m012512f64b" y="294.88"/>
      </g>
     </g>
    </g>
    <g id="xtick_11">
     <g id="line2d_25">
      <path clip-path="url(#p4047da6450)" d="M 293.589714 294.88 
L 293.589714 24.84 
" style="fill:none;stroke:#b0b0b0;stroke-linecap:square;stroke-width:0.8;"/>
     </g>
     <g id="line2d_26">
      <g>
       <use style="stroke:#000000;stroke-width:0.6;" x="293.589714" xlink:href="#m012512f64b" y="294.88"/>
      </g>
     </g>
    </g>
    <g id="xtick_12">
     <g id="line2d_27">
      <path clip-path="url(#p4047da6450)" d="M 333.168 294.88 
L 333.168 24.84 
" style="fill:none;stroke:#b0b0b0;stroke-linecap:square;stroke-width:0.8;"/>
     </g>
     <g id="line2d_28">
      <g>
       <use style="stroke:#000000;stroke-width:0.6;" x="333.168" xlink:href="#m012512f64b" y="294.88"/>
      </g>
     </g>
    </g>
    <g id="text_5">
     <!-- log10(# f-evals / dimension) -->
     <defs>
      <path d="M 9.421875 75.984375 
L 18.40625 75.984375 
L 18.40625 0 
L 9.421875 0 
z
" id="DejaVuSans-6c"/>
      <path d="M 30.609375 48.390625 
Q 23.390625 48.390625 19.1875 42.75 
Q 14.984375 37.109375 14.984375 27.296875 
Q 14.984375 17.484375 19.15625 11.84375 
Q 23.34375 6.203125 30.609375 6.203125 
Q 37.796875 6.203125 41.984375 11.859375 
Q 46.1875 17.53125 46.1875 27.296875 
Q 46.1875 37.015625 41.984375 42.703125 
Q 37.796875 48.390625 30.609375 48.390625 
z
M 30.609375 56 
Q 42.328125 56 49.015625 48.375 
Q 55.71875 40.765625 55.71875 27.296875 
Q 55.71875 13.875 49.015625 6.21875 
Q 42.328125 -1.421875 30.609375 -1.421875 
Q 18.84375 -1.421875 12.171875 6.21875 
Q 5.515625 13.875 5.515625 27.296875 
Q 5.515625 40.765625 12.171875 48.375 
Q 18.84375 56 30.609375 56 
z
" id="DejaVuSans-6f"/>
      <path d="M 45.40625 27.984375 
Q 45.40625 37.75 41.375 43.109375 
Q 37.359375 48.484375 30.078125 48.484375 
Q 22.859375 48.484375 18.828125 43.109375 
Q 14.796875 37.75 14.796875 27.984375 
Q 14.796875 18.265625 18.828125 12.890625 
Q 22.859375 7.515625 30.078125 7.515625 
Q 37.359375 7.515625 41.375 12.890625 
Q 45.40625 18.265625 45.40625 27.984375 
z
M 54.390625 6.78125 
Q 54.390625 -7.171875 48.1875 -13.984375 
Q 42 -20.796875 29.203125 -20.796875 
Q 24.46875 -20.796875 20.265625 -20.09375 
Q 16.0625 -19.390625 12.109375 -17.921875 
L 12.109375 -9.1875 
Q 16.0625 -11.328125 19.921875 -12.34375 
Q 23.78125 -13.375 27.78125 -13.375 
Q 36.625 -13.375 41.015625 -8.765625 
Q 45.40625 -4.15625 45.40625 5.171875 
L 45.40625 9.625 
Q 42.625 4.78125 38.28125 2.390625 
Q 33.9375 0 27.875 0 
Q 17.828125 0 11.671875 7.65625 
Q 5.515625 15.328125 5.515625 27.984375 
Q 5.515625 40.671875 11.671875 48.328125 
Q 17.828125 56 27.875 56 
Q 33.9375 56 38.28125 53.609375 
Q 42.625 51.21875 45.40625 46.390625 
L 45.40625 54.6875 
L 54.390625 54.6875 
z
" id="DejaVuSans-67"/>
      <path d="M 12.40625 8.296875 
L 28.515625 8.296875 
L 28.515625 63.921875 
L 10.984375 60.40625 
L 10.984375 69.390625 
L 28.421875 72.90625 
L 38.28125 72.90625 
L 38.28125 8.296875 
L 54.390625 8.296875 
L 54.390625 0 
L 12.40625 0 
z
" id="DejaVuSans-31"/>
      <path d="M 31 75.875 
Q 24.46875 64.65625 21.28125 53.65625 
Q 18.109375 42.671875 18.109375 31.390625 
Q 18.109375 20.125 21.3125 9.0625 
Q 24.515625 -2 31 -13.1875 
L 23.1875 -13.1875 
Q 15.875 -1.703125 12.234375 9.375 
Q 8.59375 20.453125 8.59375 31.390625 
Q 8.59375 42.28125 12.203125 53.3125 
Q 15.828125 64.359375 23.1875 75.875 
z
" id="DejaVuSans-28"/>
      <path d="M 51.125 44 
L 36.921875 44 
L 32.8125 27.6875 
L 47.125 27.6875 
z
M 43.796875 71.78125 
L 38.71875 51.515625 
L 52.984375 51.515625 
L 58.109375 71.78125 
L 65.921875 71.78125 
L 60.890625 51.515625 
L 76.125 51.515625 
L 76.125 44 
L 58.984375 44 
L 54.984375 27.6875 
L 70.515625 27.6875 
L 70.515625 20.21875 
L 53.078125 20.21875 
L 48 0 
L 40.1875 0 
L 45.21875 20.21875 
L 30.90625 20.21875 
L 25.875 0 
L 18.015625 0 
L 23.09375 20.21875 
L 7.71875 20.21875 
L 7.71875 27.6875 
L 24.90625 27.6875 
L 29 44 
L 13.28125 44 
L 13.28125 51.515625 
L 30.90625 51.515625 
L 35.890625 71.78125 
z
" id="DejaVuSans-23"/>
      <path id="DejaVuSans-20"/>
      <path d="M 37.109375 75.984375 
L 37.109375 68.5 
L 28.515625 68.5 
Q 23.6875 68.5 21.796875 66.546875 
Q 19.921875 64.59375 19.921875 59.515625 
L 19.921875 54.6875 
L 34.71875 54.6875 
L 34.71875 47.703125 
L 19.921875 47.703125 
L 19.921875 0 
L 10.890625 0 
L 10.890625 47.703125 
L 2.296875 47.703125 
L 2.296875 54.6875 
L 10.890625 54.6875 
L 10.890625 58.5 
Q 10.890625 67.625 15.140625 71.796875 
Q 19.390625 75.984375 28.609375 75.984375 
z
" id="DejaVuSans-66"/>
      <path d="M 4.890625 31.390625 
L 31.203125 31.390625 
L 31.203125 23.390625 
L 4.890625 23.390625 
z
" id="DejaVuSans-2d"/>
      <path d="M 56.203125 29.59375 
L 56.203125 25.203125 
L 14.890625 25.203125 
Q 15.484375 15.921875 20.484375 11.0625 
Q 25.484375 6.203125 34.421875 6.203125 
Q 39.59375 6.203125 44.453125 7.46875 
Q 49.3125 8.734375 54.109375 11.28125 
L 54.109375 2.78125 
Q 49.265625 0.734375 44.1875 -0.34375 
Q 39.109375 -1.421875 33.890625 -1.421875 
Q 20.796875 -1.421875 13.15625 6.1875 
Q 5.515625 13.8125 5.515625 26.8125 
Q 5.515625 40.234375 12.765625 48.109375 
Q 20.015625 56 32.328125 56 
Q 43.359375 56 49.78125 48.890625 
Q 56.203125 41.796875 56.203125 29.59375 
z
M 47.21875 32.234375 
Q 47.125 39.59375 43.09375 43.984375 
Q 39.0625 48.390625 32.421875 48.390625 
Q 24.90625 48.390625 20.390625 44.140625 
Q 15.875 39.890625 15.1875 32.171875 
z
" id="DejaVuSans-65"/>
      <path d="M 2.984375 54.6875 
L 12.5 54.6875 
L 29.59375 8.796875 
L 46.6875 54.6875 
L 56.203125 54.6875 
L 35.6875 0 
L 23.484375 0 
z
" id="DejaVuSans-76"/>
      <path d="M 34.28125 27.484375 
Q 23.390625 27.484375 19.1875 25 
Q 14.984375 22.515625 14.984375 16.5 
Q 14.984375 11.71875 18.140625 8.90625 
Q 21.296875 6.109375 26.703125 6.109375 
Q 34.1875 6.109375 38.703125 11.40625 
Q 43.21875 16.703125 43.21875 25.484375 
L 43.21875 27.484375 
z
M 52.203125 31.203125 
L 52.203125 0 
L 43.21875 0 
L 43.21875 8.296875 
Q 40.140625 3.328125 35.546875 0.953125 
Q 30.953125 -1.421875 24.3125 -1.421875 
Q 15.921875 -1.421875 10.953125 3.296875 
Q 6 8.015625 6 15.921875 
Q 6 25.140625 12.171875 29.828125 
Q 18.359375 34.515625 30.609375 34.515625 
L 43.21875 34.515625 
L 43.21875 35.40625 
Q 43.21875 41.609375 39.140625 45 
Q 35.0625 48.390625 27.6875 48.390625 
Q 23 48.390625 18.546875 47.265625 
Q 14.109375 46.140625 10.015625 43.890625 
L 10.015625 52.203125 
Q 14.9375 54.109375 19.578125 55.046875 
Q 24.21875 56 28.609375 56 
Q 40.484375 56 46.34375 49.84375 
Q 52.203125 43.703125 52.203125 31.203125 
z
" id="DejaVuSans-61"/>
      <path d="M 44.28125 53.078125 
L 44.28125 44.578125 
Q 40.484375 46.53125 36.375 47.5 
Q 32.28125 48.484375 27.875 48.484375 
Q 21.1875 48.484375 17.84375 46.4375 
Q 14.5 44.390625 14.5 40.28125 
Q 14.5 37.15625 16.890625 35.375 
Q 19.28125 33.59375 26.515625 31.984375 
L 29.59375 31.296875 
Q 39.15625 29.25 43.1875 25.515625 
Q 47.21875 21.78125 47.21875 15.09375 
Q 47.21875 7.46875 41.1875 3.015625 
Q 35.15625 -1.421875 24.609375 -1.421875 
Q 20.21875 -1.421875 15.453125 -0.5625 
Q 10.6875 0.296875 5.421875 2 
L 5.421875 11.28125 
Q 10.40625 8.6875 15.234375 7.390625 
Q 20.0625 6.109375 24.8125 6.109375 
Q 31.15625 6.109375 34.5625 8.28125 
Q 37.984375 10.453125 37.984375 14.40625 
Q 37.984375 18.0625 35.515625 20.015625 
Q 33.0625 21.96875 24.703125 23.78125 
L 21.578125 24.515625 
Q 13.234375 26.265625 9.515625 29.90625 
Q 5.8125 33.546875 5.8125 39.890625 
Q 5.8125 47.609375 11.28125 51.796875 
Q 16.75 56 26.8125 56 
Q 31.78125 56 36.171875 55.265625 
Q 40.578125 54.546875 44.28125 53.078125 
z
" id="DejaVuSans-73"/>
      <path d="M 25.390625 72.90625 
L 33.6875 72.90625 
L 8.296875 -9.28125 
L 0 -9.28125 
z
" id="DejaVuSans-2f"/>
      <path d="M 45.40625 46.390625 
L 45.40625 75.984375 
L 54.390625 75.984375 
L 54.390625 0 
L 45.40625 0 
L 45.40625 8.203125 
Q 42.578125 3.328125 38.25 0.953125 
Q 33.9375 -1.421875 27.875 -1.421875 
Q 17.96875 -1.421875 11.734375 6.484375 
Q 5.515625 14.40625 5.515625 27.296875 
Q 5.515625 40.1875 11.734375 48.09375 
Q 17.96875 56 27.875 56 
Q 33.9375 56 38.25 53.625 
Q 42.578125 51.265625 45.40625 46.390625 
z
M 14.796875 27.296875 
Q 14.796875 17.390625 18.875 11.75 
Q 22.953125 6.109375 30.078125 6.109375 
Q 37.203125 6.109375 41.296875 11.75 
Q 45.40625 17.390625 45.40625 27.296875 
Q 45.40625 37.203125 41.296875 42.84375 
Q 37.203125 48.484375 30.078125 48.484375 
Q 22.953125 48.484375 18.875 42.84375 
Q 14.796875 37.203125 14.796875 27.296875 
z
" id="DejaVuSans-64"/>
      <path d="M 9.421875 54.6875 
L 18.40625 54.6875 
L 18.40625 0 
L 9.421875 0 
z
M 9.421875 75.984375 
L 18.40625 75.984375 
L 18.40625 64.59375 
L 9.421875 64.59375 
z
" id="DejaVuSans-69"/>
      <path d="M 52 44.1875 
Q 55.375 50.25 60.0625 53.125 
Q 64.75 56 71.09375 56 
Q 79.640625 56 84.28125 50.015625 
Q 88.921875 44.046875 88.921875 33.015625 
L 88.921875 0 
L 79.890625 0 
L 79.890625 32.71875 
Q 79.890625 40.578125 77.09375 44.375 
Q 74.3125 48.1875 68.609375 48.1875 
Q 61.625 48.1875 57.5625 43.546875 
Q 53.515625 38.921875 53.515625 30.90625 
L 53.515625 0 
L 44.484375 0 
L 44.484375 32.71875 
Q 44.484375 40.625 41.703125 44.40625 
Q 38.921875 48.1875 33.109375 48.1875 
Q 26.21875 48.1875 22.15625 43.53125 
Q 18.109375 38.875 18.109375 30.90625 
L 18.109375 0 
L 9.078125 0 
L 9.078125 54.6875 
L 18.109375 54.6875 
L 18.109375 46.1875 
Q 21.1875 51.21875 25.484375 53.609375 
Q 29.78125 56 35.6875 56 
Q 41.65625 56 45.828125 52.96875 
Q 50 49.953125 52 44.1875 
z
" id="DejaVuSans-6d"/>
      <path d="M 54.890625 33.015625 
L 54.890625 0 
L 45.90625 0 
L 45.90625 32.71875 
Q 45.90625 40.484375 42.875 44.328125 
Q 39.84375 48.1875 33.796875 48.1875 
Q 26.515625 48.1875 22.3125 43.546875 
Q 18.109375 38.921875 18.109375 30.90625 
L 18.109375 0 
L 9.078125 0 
L 9.078125 54.6875 
L 18.109375 54.6875 
L 18.109375 46.1875 
Q 21.34375 51.125 25.703125 53.5625 
Q 30.078125 56 35.796875 56 
Q 45.21875 56 50.046875 50.171875 
Q 54.890625 44.34375 54.890625 33.015625 
z
" id="DejaVuSans-6e"/>
      <path d="M 8.015625 75.875 
L 15.828125 75.875 
Q 23.140625 64.359375 26.78125 53.3125 
Q 30.421875 42.28125 30.421875 31.390625 
Q 30.421875 20.453125 26.78125 9.375 
Q 23.140625 -1.703125 15.828125 -13.1875 
L 8.015625 -13.1875 
Q 14.5 -2 17.703125 9.0625 
Q 20.90625 20.125 20.90625 31.390625 
Q 20.90625 42.671875 17.703125 53.65625 
Q 14.5 64.65625 8.015625 75.875 
z
" id="DejaVuSans-29"/>
     </defs>
     <g transform="translate(73.803219 338.153594)scale(0.17 -0.17)">
      <use xlink:href="#DejaVuSans-6c"/>
      <use x="27.783203" xlink:href="#DejaVuSans-6f"/>
      <use x="88.964844" xlink:href="#DejaVuSans-67"/>
      <use x="152.441406" xlink:href="#DejaVuSans-31"/>
      <use x="216.064453" xlink:href="#DejaVuSans-30"/>
      <use x="279.6875" xlink:href="#DejaVuSans-28"/>
      <use x="318.701172" xlink:href="#DejaVuSans-23"/>
      <use x="402.490234" xlink:href="#DejaVuSans-20"/>
      <use x="434.277344" xlink:href="#DejaVuSans-66"/>
      <use x="469.404297" xlink:href="#DejaVuSans-2d"/>
      <use x="505.488281" xlink:href="#DejaVuSans-65"/>
      <use x="567.011719" xlink:href="#DejaVuSans-76"/>
      <use x="626.191406" xlink:href="#DejaVuSans-61"/>
      <use x="687.470703" xlink:href="#DejaVuSans-6c"/>
      <use x="715.253906" xlink:href="#DejaVuSans-73"/>
      <use x="767.353516" xlink:href="#DejaVuSans-20"/>
      <use x="799.140625" xlink:href="#DejaVuSans-2f"/>
      <use x="832.832031" xlink:href="#DejaVuSans-20"/>
      <use x="864.619141" xlink:href="#DejaVuSans-64"/>
      <use x="928.095703" xlink:href="#DejaVuSans-69"/>
      <use x="955.878906" xlink:href="#DejaVuSans-6d"/>
      <use x="1053.291016" xlink:href="#DejaVuSans-65"/>
      <use x="1114.814453" xlink:href="#DejaVuSans-6e"/>
      <use x="1178.193359" xlink:href="#DejaVuSans-73"/>
      <use x="1230.292969" xlink:href="#DejaVuSans-69"/>
      <use x="1258.076172" xlink:href="#DejaVuSans-6f"/>
      <use x="1319.257812" xlink:href="#DejaVuSans-6e"/>
      <use x="1382.636719" xlink:href="#DejaVuSans-29"/>
     </g>
    </g>
   </g>
   <g id="matplotlib.axis_2">
    <g id="ytick_1">
     <g id="line2d_29">
      <path clip-path="url(#p4047da6450)" d="M 56.12 294.88 
L 333.168 294.88 
" style="fill:none;stroke:#b0b0b0;stroke-linecap:square;stroke-width:0.8;"/>
     </g>
     <g id="line2d_30">
      <defs>
       <path d="M 0 0 
L -3.5 0 
" id="m598a1eac38" style="stroke:#000000;stroke-width:0.8;"/>
      </defs>
      <g>
       <use style="stroke:#000000;stroke-width:0.8;" x="56.12" xlink:href="#m598a1eac38" y="294.88"/>
      </g>
     </g>
     <g id="text_6">
      <!-- 0.0 -->
      <defs>
       <path d="M 10.6875 12.40625 
L 21 12.40625 
L 21 0 
L 10.6875 0 
z
" id="DejaVuSans-2e"/>
      </defs>
      <g transform="translate(23.675 300.95875)scale(0.16 -0.16)">
       <use xlink:href="#DejaVuSans-30"/>
       <use x="63.623047" xlink:href="#DejaVuSans-2e"/>
       <use x="95.410156" xlink:href="#DejaVuSans-30"/>
      </g>
     </g>
    </g>
    <g id="ytick_2">
     <g id="line2d_31">
      <path clip-path="url(#p4047da6450)" d="M 56.12 241.406733 
L 333.168 241.406733 
" style="fill:none;stroke:#b0b0b0;stroke-linecap:square;stroke-width:0.8;"/>
     </g>
     <g id="line2d_32">
      <g>
       <use style="stroke:#000000;stroke-width:0.8;" x="56.12" xlink:href="#m598a1eac38" y="241.406733"/>
      </g>
     </g>
     <g id="text_7">
      <!-- 0.2 -->
      <g transform="translate(23.675 247.485483)scale(0.16 -0.16)">
       <use xlink:href="#DejaVuSans-30"/>
       <use x="63.623047" xlink:href="#DejaVuSans-2e"/>
       <use x="95.410156" xlink:href="#DejaVuSans-32"/>
      </g>
     </g>
    </g>
    <g id="ytick_3">
     <g id="line2d_33">
      <path clip-path="url(#p4047da6450)" d="M 56.12 187.933465 
L 333.168 187.933465 
" style="fill:none;stroke:#b0b0b0;stroke-linecap:square;stroke-width:0.8;"/>
     </g>
     <g id="line2d_34">
      <g>
       <use style="stroke:#000000;stroke-width:0.8;" x="56.12" xlink:href="#m598a1eac38" y="187.933465"/>
      </g>
     </g>
     <g id="text_8">
      <!-- 0.4 -->
      <g transform="translate(23.675 194.012215)scale(0.16 -0.16)">
       <use xlink:href="#DejaVuSans-30"/>
       <use x="63.623047" xlink:href="#DejaVuSans-2e"/>
       <use x="95.410156" xlink:href="#DejaVuSans-34"/>
      </g>
     </g>
    </g>
    <g id="ytick_4">
     <g id="line2d_35">
      <path clip-path="url(#p4047da6450)" d="M 56.12 134.460198 
L 333.168 134.460198 
" style="fill:none;stroke:#b0b0b0;stroke-linecap:square;stroke-width:0.8;"/>
     </g>
     <g id="line2d_36">
      <g>
       <use style="stroke:#000000;stroke-width:0.8;" x="56.12" xlink:href="#m598a1eac38" y="134.460198"/>
      </g>
     </g>
     <g id="text_9">
      <!-- 0.6 -->
      <g transform="translate(23.675 140.538948)scale(0.16 -0.16)">
       <use xlink:href="#DejaVuSans-30"/>
       <use x="63.623047" xlink:href="#DejaVuSans-2e"/>
       <use x="95.410156" xlink:href="#DejaVuSans-36"/>
      </g>
     </g>
    </g>
    <g id="ytick_5">
     <g id="line2d_37">
      <path clip-path="url(#p4047da6450)" d="M 56.12 80.986931 
L 333.168 80.986931 
" style="fill:none;stroke:#b0b0b0;stroke-linecap:square;stroke-width:0.8;"/>
     </g>
     <g id="line2d_38">
      <g>
       <use style="stroke:#000000;stroke-width:0.8;" x="56.12" xlink:href="#m598a1eac38" y="80.986931"/>
      </g>
     </g>
     <g id="text_10">
      <!-- 0.8 -->
      <defs>
       <path d="M 31.78125 34.625 
Q 24.75 34.625 20.71875 30.859375 
Q 16.703125 27.09375 16.703125 20.515625 
Q 16.703125 13.921875 20.71875 10.15625 
Q 24.75 6.390625 31.78125 6.390625 
Q 38.8125 6.390625 42.859375 10.171875 
Q 46.921875 13.96875 46.921875 20.515625 
Q 46.921875 27.09375 42.890625 30.859375 
Q 38.875 34.625 31.78125 34.625 
z
M 21.921875 38.8125 
Q 15.578125 40.375 12.03125 44.71875 
Q 8.5 49.078125 8.5 55.328125 
Q 8.5 64.0625 14.71875 69.140625 
Q 20.953125 74.21875 31.78125 74.21875 
Q 42.671875 74.21875 48.875 69.140625 
Q 55.078125 64.0625 55.078125 55.328125 
Q 55.078125 49.078125 51.53125 44.71875 
Q 48 40.375 41.703125 38.8125 
Q 48.828125 37.15625 52.796875 32.3125 
Q 56.78125 27.484375 56.78125 20.515625 
Q 56.78125 9.90625 50.3125 4.234375 
Q 43.84375 -1.421875 31.78125 -1.421875 
Q 19.734375 -1.421875 13.25 4.234375 
Q 6.78125 9.90625 6.78125 20.515625 
Q 6.78125 27.484375 10.78125 32.3125 
Q 14.796875 37.15625 21.921875 38.8125 
z
M 18.3125 54.390625 
Q 18.3125 48.734375 21.84375 45.5625 
Q 25.390625 42.390625 31.78125 42.390625 
Q 38.140625 42.390625 41.71875 45.5625 
Q 45.3125 48.734375 45.3125 54.390625 
Q 45.3125 60.0625 41.71875 63.234375 
Q 38.140625 66.40625 31.78125 66.40625 
Q 25.390625 66.40625 21.84375 63.234375 
Q 18.3125 60.0625 18.3125 54.390625 
z
" id="DejaVuSans-38"/>
      </defs>
      <g transform="translate(23.675 87.065681)scale(0.16 -0.16)">
       <use xlink:href="#DejaVuSans-30"/>
       <use x="63.623047" xlink:href="#DejaVuSans-2e"/>
       <use x="95.410156" xlink:href="#DejaVuSans-38"/>
      </g>
     </g>
    </g>
    <g id="ytick_6">
     <g id="line2d_39">
      <path clip-path="url(#p4047da6450)" d="M 56.12 27.513663 
L 333.168 27.513663 
" style="fill:none;stroke:#b0b0b0;stroke-linecap:square;stroke-width:0.8;"/>
     </g>
     <g id="line2d_40">
      <g>
       <use style="stroke:#000000;stroke-width:0.8;" x="56.12" xlink:href="#m598a1eac38" y="27.513663"/>
      </g>
     </g>
     <g id="text_11">
      <!-- 1.0 -->
      <g transform="translate(23.675 33.592413)scale(0.16 -0.16)">
       <use xlink:href="#DejaVuSans-31"/>
       <use x="63.623047" xlink:href="#DejaVuSans-2e"/>
       <use x="95.410156" xlink:href="#DejaVuSans-30"/>
      </g>
     </g>
    </g>
    <g id="text_12">
     <!-- Fraction of function,target pairs -->
     <defs>
      <path d="M 9.8125 72.90625 
L 51.703125 72.90625 
L 51.703125 64.59375 
L 19.671875 64.59375 
L 19.671875 43.109375 
L 48.578125 43.109375 
L 48.578125 34.8125 
L 19.671875 34.8125 
L 19.671875 0 
L 9.8125 0 
z
" id="DejaVuSans-46"/>
      <path d="M 41.109375 46.296875 
Q 39.59375 47.171875 37.8125 47.578125 
Q 36.03125 48 33.890625 48 
Q 26.265625 48 22.1875 43.046875 
Q 18.109375 38.09375 18.109375 28.8125 
L 18.109375 0 
L 9.078125 0 
L 9.078125 54.6875 
L 18.109375 54.6875 
L 18.109375 46.1875 
Q 20.953125 51.171875 25.484375 53.578125 
Q 30.03125 56 36.53125 56 
Q 37.453125 56 38.578125 55.875 
Q 39.703125 55.765625 41.0625 55.515625 
z
" id="DejaVuSans-72"/>
      <path d="M 48.78125 52.59375 
L 48.78125 44.1875 
Q 44.96875 46.296875 41.140625 47.34375 
Q 37.3125 48.390625 33.40625 48.390625 
Q 24.65625 48.390625 19.8125 42.84375 
Q 14.984375 37.3125 14.984375 27.296875 
Q 14.984375 17.28125 19.8125 11.734375 
Q 24.65625 6.203125 33.40625 6.203125 
Q 37.3125 6.203125 41.140625 7.25 
Q 44.96875 8.296875 48.78125 10.40625 
L 48.78125 2.09375 
Q 45.015625 0.34375 40.984375 -0.53125 
Q 36.96875 -1.421875 32.421875 -1.421875 
Q 20.0625 -1.421875 12.78125 6.34375 
Q 5.515625 14.109375 5.515625 27.296875 
Q 5.515625 40.671875 12.859375 48.328125 
Q 20.21875 56 33.015625 56 
Q 37.15625 56 41.109375 55.140625 
Q 45.0625 54.296875 48.78125 52.59375 
z
" id="DejaVuSans-63"/>
      <path d="M 18.3125 70.21875 
L 18.3125 54.6875 
L 36.8125 54.6875 
L 36.8125 47.703125 
L 18.3125 47.703125 
L 18.3125 18.015625 
Q 18.3125 11.328125 20.140625 9.421875 
Q 21.96875 7.515625 27.59375 7.515625 
L 36.8125 7.515625 
L 36.8125 0 
L 27.59375 0 
Q 17.1875 0 13.234375 3.875 
Q 9.28125 7.765625 9.28125 18.015625 
L 9.28125 47.703125 
L 2.6875 47.703125 
L 2.6875 54.6875 
L 9.28125 54.6875 
L 9.28125 70.21875 
z
" id="DejaVuSans-74"/>
      <path d="M 8.5 21.578125 
L 8.5 54.6875 
L 17.484375 54.6875 
L 17.484375 21.921875 
Q 17.484375 14.15625 20.5 10.265625 
Q 23.53125 6.390625 29.59375 6.390625 
Q 36.859375 6.390625 41.078125 11.03125 
Q 45.3125 15.671875 45.3125 23.6875 
L 45.3125 54.6875 
L 54.296875 54.6875 
L 54.296875 0 
L 45.3125 0 
L 45.3125 8.40625 
Q 42.046875 3.421875 37.71875 1 
Q 33.40625 -1.421875 27.6875 -1.421875 
Q 18.265625 -1.421875 13.375 4.4375 
Q 8.5 10.296875 8.5 21.578125 
z
M 31.109375 56 
z
" id="DejaVuSans-75"/>
      <path d="M 11.71875 12.40625 
L 22.015625 12.40625 
L 22.015625 4 
L 14.015625 -11.625 
L 7.71875 -11.625 
L 11.71875 4 
z
" id="DejaVuSans-2c"/>
      <path d="M 18.109375 8.203125 
L 18.109375 -20.796875 
L 9.078125 -20.796875 
L 9.078125 54.6875 
L 18.109375 54.6875 
L 18.109375 46.390625 
Q 20.953125 51.265625 25.265625 53.625 
Q 29.59375 56 35.59375 56 
Q 45.5625 56 51.78125 48.09375 
Q 58.015625 40.1875 58.015625 27.296875 
Q 58.015625 14.40625 51.78125 6.484375 
Q 45.5625 -1.421875 35.59375 -1.421875 
Q 29.59375 -1.421875 25.265625 0.953125 
Q 20.953125 3.328125 18.109375 8.203125 
z
M 48.6875 27.296875 
Q 48.6875 37.203125 44.609375 42.84375 
Q 40.53125 48.484375 33.40625 48.484375 
Q 26.265625 48.484375 22.1875 42.84375 
Q 18.109375 37.203125 18.109375 27.296875 
Q 18.109375 17.390625 22.1875 11.75 
Q 26.265625 6.109375 33.40625 6.109375 
Q 40.53125 6.109375 44.609375 11.75 
Q 48.6875 17.390625 48.6875 27.296875 
z
" id="DejaVuSans-70"/>
     </defs>
     <g transform="translate(16.139531 294.999375)rotate(-90)scale(0.17 -0.17)">
      <use xlink:href="#DejaVuSans-46"/>
      <use x="57.410156" xlink:href="#DejaVuSans-72"/>
      <use x="98.523438" xlink:href="#DejaVuSans-61"/>
      <use x="159.802734" xlink:href="#DejaVuSans-63"/>
      <use x="214.783203" xlink:href="#DejaVuSans-74"/>
      <use x="253.992188" xlink:href="#DejaVuSans-69"/>
      <use x="281.775391" xlink:href="#DejaVuSans-6f"/>
      <use x="342.957031" xlink:href="#DejaVuSans-6e"/>
      <use x="406.335938" xlink:href="#DejaVuSans-20"/>
      <use x="438.123047" xlink:href="#DejaVuSans-6f"/>
      <use x="499.304688" xlink:href="#DejaVuSans-66"/>
      <use x="534.509766" xlink:href="#DejaVuSans-20"/>
      <use x="566.296875" xlink:href="#DejaVuSans-66"/>
      <use x="601.501953" xlink:href="#DejaVuSans-75"/>
      <use x="664.880859" xlink:href="#DejaVuSans-6e"/>
      <use x="728.259766" xlink:href="#DejaVuSans-63"/>
      <use x="783.240234" xlink:href="#DejaVuSans-74"/>
      <use x="822.449219" xlink:href="#DejaVuSans-69"/>
      <use x="850.232422" xlink:href="#DejaVuSans-6f"/>
      <use x="911.414062" xlink:href="#DejaVuSans-6e"/>
      <use x="974.792969" xlink:href="#DejaVuSans-2c"/>
      <use x="1006.580078" xlink:href="#DejaVuSans-74"/>
      <use x="1045.789062" xlink:href="#DejaVuSans-61"/>
      <use x="1107.068359" xlink:href="#DejaVuSans-72"/>
      <use x="1148.166016" xlink:href="#DejaVuSans-67"/>
      <use x="1211.642578" xlink:href="#DejaVuSans-65"/>
      <use x="1273.166016" xlink:href="#DejaVuSans-74"/>
      <use x="1312.375" xlink:href="#DejaVuSans-20"/>
      <use x="1344.162109" xlink:href="#DejaVuSans-70"/>
      <use x="1407.638672" xlink:href="#DejaVuSans-61"/>
      <use x="1468.917969" xlink:href="#DejaVuSans-69"/>
      <use x="1496.701172" xlink:href="#DejaVuSans-72"/>
      <use x="1537.814453" xlink:href="#DejaVuSans-73"/>
     </g>
    </g>
   </g>
   <g id="line2d_41">
    <defs>
     <path d="M 0 1.5 
C 0.397805 1.5 0.77937 1.341951 1.06066 1.06066 
C 1.341951 0.77937 1.5 0.397805 1.5 0 
C 1.5 -0.397805 1.341951 -0.77937 1.06066 -1.06066 
C 0.77937 -1.341951 0.397805 -1.5 0 -1.5 
C -0.397805 -1.5 -0.77937 -1.341951 -1.06066 -1.06066 
C -1.341951 -0.77937 -1.5 -0.397805 -1.5 0 
C -1.5 0.397805 -1.341951 0.77937 -1.06066 1.06066 
C -0.77937 1.341951 -0.397805 1.5 0 1.5 
z
" id="m391dc229d1" style="stroke:#f5deb3;"/>
    </defs>
    <g>
     <use style="fill:#f5deb3;stroke:#f5deb3;" x="147.587283" xlink:href="#m391dc229d1" y="27.513663"/>
     <use style="fill:#f5deb3;stroke:#f5deb3;" x="147.587283" xlink:href="#m391dc229d1" y="27.513663"/>
    </g>
   </g>
   <g id="line2d_42">
    <defs>
     <path d="M 0 1.5 
C 0.397805 1.5 0.77937 1.341951 1.06066 1.06066 
C 1.341951 0.77937 1.5 0.397805 1.5 0 
C 1.5 -0.397805 1.341951 -0.77937 1.06066 -1.06066 
C 0.77937 -1.341951 0.397805 -1.5 0 -1.5 
C -0.397805 -1.5 -0.77937 -1.341951 -1.06066 -1.06066 
C -1.341951 -0.77937 -1.5 -0.397805 -1.5 0 
C -1.5 0.397805 -1.341951 0.77937 -1.06066 1.06066 
C -0.77937 1.341951 -0.397805 1.5 0 1.5 
z
" id="m409b621266" style="stroke:#000080;"/>
    </defs>
    <g>
     <use style="fill:#000080;stroke:#000080;" x="151.810337" xlink:href="#m409b621266" y="237.212751"/>
     <use style="fill:#000080;stroke:#000080;" x="151.810337" xlink:href="#m409b621266" y="237.212751"/>
    </g>
   </g>
   <g id="line2d_43">
    <path d="M 37.236359 294.88 
L 37.236359 288.589027 
L 83.784035 288.589027 
L 83.784035 280.725312 
L 95.115564 280.725312 
L 95.115564 274.434339 
L 101.88624 274.434339 
L 101.88624 270.764605 
L 106.730875 270.764605 
L 106.730875 267.619119 
L 110.505991 267.619119 
L 110.505991 264.99788 
L 113.599452 264.99788 
L 113.599452 263.425137 
L 116.220179 263.425137 
L 116.220179 262.376641 
L 118.493684 262.376641 
L 118.493684 261.328146 
L 120.501303 261.328146 
L 120.501303 259.231155 
L 122.298767 259.231155 
L 122.298767 258.706907 
L 123.925932 258.706907 
L 123.925932 257.134164 
L 125.412295 257.134164 
L 125.412295 256.085669 
L 126.780294 256.085669 
L 126.780294 255.037173 
L 128.047399 255.037173 
L 128.047399 252.415935 
L 129.227474 252.415935 
L 129.227474 251.891687 
L 130.33171 251.891687 
L 130.33171 251.367439 
L 133.273515 251.367439 
L 133.273515 249.270448 
L 134.151957 249.270448 
L 134.151957 248.746201 
L 135.784647 248.746201 
L 135.784647 247.697705 
L 136.546293 247.697705 
L 136.546293 246.64921 
L 137.275617 246.64921 
L 137.275617 245.600714 
L 137.975251 245.600714 
L 137.975251 245.076467 
L 139.294478 245.076467 
L 139.294478 244.552219 
L 139.917968 244.552219 
L 139.917968 243.503724 
L 141.100945 243.503724 
L 141.100945 242.979476 
L 141.66324 242.979476 
L 141.66324 242.455228 
L 142.735485 242.455228 
L 142.735485 241.93098 
L 143.744751 241.93098 
L 143.744751 241.406733 
L 144.227997 241.406733 
L 144.227997 240.882485 
L 144.698028 240.882485 
L 144.698028 240.358237 
L 145.155547 240.358237 
L 145.155547 239.83399 
L 145.601203 239.83399 
L 145.601203 239.309742 
L 148.803011 239.309742 
L 148.803011 238.785494 
L 149.518243 238.785494 
L 149.518243 238.261246 
L 150.204899 238.261246 
L 150.204899 237.736999 
L 151.810337 237.736999 
L 151.810337 237.212751 
L 333.168 237.212751 
" style="fill:none;stroke:#000080;stroke-linecap:square;stroke-width:1.5;"/>
   </g>
   <g id="line2d_44">
    <defs>
     <path d="M 0 6 
C 1.591219 6 3.117479 5.367802 4.242641 4.242641 
C 5.367802 3.117479 6 1.591219 6 0 
C 6 -1.591219 5.367802 -3.117479 4.242641 -4.242641 
C 3.117479 -5.367802 1.591219 -6 0 -6 
C -1.591219 -6 -3.117479 -5.367802 -4.242641 -4.242641 
C -5.367802 -3.117479 -6 -1.591219 -6 0 
C -6 1.591219 -5.367802 3.117479 -4.242641 4.242641 
C -3.117479 5.367802 -1.591219 6 0 6 
z
" id="macbd8adcd1" style="stroke:#000080;stroke-width:1.5;"/>
    </defs>
    <g>
     <use style="fill:none;stroke:#000080;stroke-width:1.5;" x="101.88624" xlink:href="#macbd8adcd1" y="274.434339"/>
     <use style="fill:none;stroke:#000080;stroke-width:1.5;" x="149.518243" xlink:href="#macbd8adcd1" y="238.785494"/>
     <use style="fill:none;stroke:#000080;stroke-width:1.5;" x="151.810337" xlink:href="#macbd8adcd1" y="237.736999"/>
     <use style="fill:none;stroke:#000080;stroke-width:1.5;" x="151.810337" xlink:href="#macbd8adcd1" y="237.212751"/>
     <use style="fill:none;stroke:#000080;stroke-width:1.5;" x="151.810337" xlink:href="#macbd8adcd1" y="237.212751"/>
     <use style="fill:none;stroke:#000080;stroke-width:1.5;" x="333.168" xlink:href="#macbd8adcd1" y="237.212751"/>
    </g>
   </g>
   <g id="line2d_45">
    <path style="fill:none;stroke:#000080;stroke-linecap:square;stroke-width:1.5;"/>
    <g/>
   </g>
   <g id="line2d_46">
    <path clip-path="url(#p4047da6450)" d="M 82.598142 288.589027 
" style="fill:none;stroke:#000080;stroke-linecap:square;stroke-width:1.5;"/>
    <defs>
     <path d="M -12 12 
L 12 -12 
M -12 -12 
L 12 12 
" id="m9e8290fd7d" style="stroke:#000080;"/>
    </defs>
    <g clip-path="url(#p4047da6450)">
     <use style="fill:#000080;stroke:#000080;" x="82.598142" xlink:href="#m9e8290fd7d" y="288.589027"/>
    </g>
   </g>
   <g id="line2d_47">
    <defs>
     <path d="M 0 1.5 
C 0.397805 1.5 0.77937 1.341951 1.06066 1.06066 
C 1.341951 0.77937 1.5 0.397805 1.5 0 
C 1.5 -0.397805 1.341951 -0.77937 1.06066 -1.06066 
C 0.77937 -1.341951 0.397805 -1.5 0 -1.5 
C -0.397805 -1.5 -0.77937 -1.341951 -1.06066 -1.06066 
C -1.341951 -0.77937 -1.5 -0.397805 -1.5 0 
C -1.5 0.397805 -1.341951 0.77937 -1.06066 1.06066 
C -0.77937 1.341951 -0.397805 1.5 0 1.5 
z
" id="m90ca3f6f3f" style="stroke:#ff00ff;"/>
    </defs>
    <g>
     <use style="fill:#ff00ff;stroke:#ff00ff;" x="259.712222" xlink:href="#m90ca3f6f3f" y="37.998618"/>
     <use style="fill:#ff00ff;stroke:#ff00ff;" x="259.712222" xlink:href="#m90ca3f6f3f" y="37.998618"/>
    </g>
   </g>
   <g id="line2d_48">
    <path d="M 37.236359 294.88 
L 37.236359 288.06478 
L 49.15061 288.06478 
L 49.15061 286.492036 
L 56.12 286.492036 
L 56.12 285.967789 
L 61.064861 285.967789 
L 61.064861 282.822302 
L 64.900393 282.822302 
L 64.900393 280.201064 
L 76.814644 280.201064 
L 76.814644 279.152568 
L 83.784035 279.152568 
L 83.784035 278.104073 
L 87.847234 278.104073 
L 87.847234 275.482834 
L 95.115564 275.482834 
L 95.115564 274.434339 
L 96.261898 274.434339 
L 96.261898 273.910091 
L 97.849669 273.910091 
L 97.849669 273.385844 
L 98.832144 273.385844 
L 98.832144 272.861596 
L 100.643147 272.861596 
L 100.643147 272.337348 
L 101.481783 272.337348 
L 101.481783 271.288853 
L 103.777005 271.288853 
L 103.777005 270.764605 
L 105.152829 270.764605 
L 105.152829 269.716109 
L 106.11693 269.716109 
L 106.11693 268.667614 
L 106.730875 268.667614 
L 106.730875 268.143366 
L 108.176149 268.143366 
L 108.176149 267.094871 
L 109.250788 267.094871 
L 109.250788 266.570623 
L 111.448069 266.570623 
L 111.448069 266.046375 
L 113.396034 266.046375 
L 113.396034 264.473632 
L 117.231566 264.473632 
L 117.231566 263.425137 
L 117.55589 263.425137 
L 117.55589 262.900889 
L 120.501303 262.900889 
L 120.501303 262.376641 
L 121.16504 262.376641 
L 121.16504 261.852394 
L 121.551317 261.852394 
L 121.551317 261.328146 
L 124.363883 261.328146 
L 124.363883 260.803898 
L 125.310285 260.803898 
L 125.310285 260.279651 
L 126.304124 260.279651 
L 126.304124 259.231155 
L 126.591406 259.231155 
L 126.68611 257.658412 
L 127.05979 257.658412 
L 127.05979 257.134164 
L 127.334814 257.134164 
L 127.334814 256.609917 
L 128.047399 256.609917 
L 128.047399 256.085669 
L 129.145817 256.085669 
L 129.145817 255.561421 
L 130.634602 255.561421 
L 130.634602 255.037173 
L 131.441039 255.037173 
L 131.441039 254.512926 
L 132.948578 254.512926 
L 132.948578 253.988678 
L 133.843356 253.988678 
L 133.843356 252.415935 
L 135.10382 252.415935 
L 135.10382 251.891687 
L 135.950722 251.891687 
L 135.950722 251.367439 
L 137.224536 251.367439 
L 137.224536 250.843192 
L 137.478435 250.843192 
L 137.478435 250.318944 
L 137.827708 250.318944 
L 137.827708 249.270448 
L 138.834862 249.270448 
L 138.834862 248.746201 
L 139.917968 248.746201 
L 139.917968 247.697705 
L 142.435893 247.697705 
L 142.435893 246.64921 
L 142.809574 246.64921 
L 142.809574 244.552219 
L 144.92831 244.552219 
L 145.026065 241.93098 
L 145.37982 241.93098 
L 145.37982 240.882485 
L 150.842025 240.882485 
L 150.842025 239.83399 
L 151.299196 239.83399 
L 151.299196 239.309742 
L 152.912822 239.309742 
L 152.912822 238.785494 
L 153.258436 238.785494 
L 153.258436 238.261246 
L 153.929489 238.261246 
L 153.929489 236.688503 
L 154.593959 236.688503 
L 154.631164 234.067265 
L 154.834363 234.067265 
L 154.871052 223.58231 
L 155.269542 223.58231 
L 155.269542 211.000365 
L 156.091117 211.000365 
L 156.091117 210.476117 
L 158.102365 210.476117 
L 158.102365 209.95187 
L 158.787024 209.95187 
L 158.787024 209.427622 
L 160.268033 209.427622 
L 160.268033 207.854879 
L 161.116866 207.854879 
L 161.116866 207.330631 
L 162.381577 207.330631 
L 162.381577 206.806383 
L 162.802544 206.806383 
L 162.802544 204.185145 
L 163.077568 204.185145 
L 163.077568 203.660897 
L 166.141179 203.660897 
L 166.188675 201.563906 
L 168.022429 201.563906 
L 168.022429 201.039658 
L 168.451851 201.039658 
L 168.451851 200.515411 
L 169.554942 200.515411 
L 169.586109 198.942667 
L 170.317651 198.942667 
L 170.317651 198.41842 
L 170.672068 198.41842 
L 170.672068 196.845677 
L 170.846573 196.845677 
L 170.846573 196.321429 
L 171.506528 196.321429 
L 171.506528 195.797181 
L 172.095049 195.797181 
L 172.095049 195.272933 
L 172.262418 195.272933 
L 172.262418 194.224438 
L 172.96729 194.224438 
L 172.96729 193.70019 
L 173.991279 193.70019 
L 173.991279 193.175943 
L 174.437299 193.175943 
L 174.437299 192.127447 
L 174.785965 192.127447 
L 174.785965 191.603199 
L 175.195237 191.603199 
L 175.195237 190.554704 
L 177.709532 190.554704 
L 177.709532 190.030456 
L 177.931324 190.030456 
L 177.931324 189.506209 
L 178.49679 189.506209 
L 178.49679 188.981961 
L 178.759007 188.981961 
L 178.759007 188.457713 
L 178.904481 188.457713 
L 178.990278 186.88497 
L 179.928152 186.88497 
L 179.928152 186.360722 
L 181.406689 186.360722 
L 181.461393 185.312227 
L 181.547005 185.312227 
L 181.547005 184.263731 
L 181.686185 184.263731 
L 181.686185 183.739484 
L 183.600839 183.739484 
L 183.607727 182.690988 
L 184.555543 182.690988 
L 184.555543 182.16674 
L 184.730608 182.16674 
L 184.766052 179.545502 
L 185.335893 179.545502 
L 185.335893 179.021254 
L 187.437749 179.021254 
L 187.437749 178.497006 
L 188.313347 178.497006 
L 188.313347 177.972759 
L 188.593857 177.972759 
L 188.593857 177.448511 
L 188.996157 177.448511 
L 189.086518 175.35152 
L 189.141505 175.35152 
L 189.141505 174.827272 
L 189.664983 174.827272 
L 189.664983 174.303025 
L 189.792798 174.303025 
L 189.845575 172.730281 
L 189.960166 172.730281 
L 189.960166 172.206034 
L 190.073999 172.206034 
L 190.073999 171.157538 
L 190.191778 171.157538 
L 190.191778 170.633291 
L 190.466578 170.633291 
L 190.466578 169.584795 
L 190.600056 169.584795 
L 190.600056 169.060547 
L 190.936031 169.060547 
L 190.985417 166.963557 
L 192.029053 166.963557 
L 192.029053 166.439309 
L 192.601646 166.439309 
L 192.601646 165.915061 
L 193.277837 165.915061 
L 193.36784 164.866566 
L 193.416558 164.866566 
L 193.43795 163.81807 
L 193.969935 163.81807 
L 193.969935 163.293823 
L 195.100214 163.293823 
L 195.146027 161.721079 
L 195.504753 161.721079 
L 195.504753 161.196832 
L 196.114223 161.196832 
L 196.150776 159.624089 
L 196.5056 159.624089 
L 196.5056 159.099841 
L 196.715674 159.099841 
L 196.741352 158.051345 
L 197.268817 158.051345 
L 197.268817 157.527098 
L 197.546507 157.527098 
L 197.546507 157.00285 
L 197.74582 157.00285 
L 197.74582 156.478602 
L 197.909916 156.478602 
L 197.909916 155.954354 
L 198.106564 155.954354 
L 198.106564 155.430107 
L 198.939274 155.430107 
L 198.939274 154.905859 
L 199.224778 154.905859 
L 199.224778 154.381611 
L 199.442691 154.381611 
L 199.442691 153.857364 
L 199.781942 153.857364 
L 199.781942 152.808868 
L 200.022122 152.808868 
L 200.117263 151.236125 
L 200.603165 151.236125 
L 200.692603 149.139134 
L 200.725705 149.139134 
L 200.817039 148.090639 
L 201.162727 148.090639 
L 201.162727 147.566391 
L 201.716657 147.566391 
L 201.716657 147.042143 
L 202.101334 147.042143 
L 202.101334 146.517896 
L 202.297457 146.517896 
L 202.297457 145.993648 
L 202.493663 145.993648 
L 202.573807 144.420905 
L 203.07363 144.420905 
L 203.113526 142.848162 
L 203.208461 142.848162 
L 203.232662 141.799666 
L 203.677567 141.799666 
L 203.677567 141.275418 
L 204.094525 141.275418 
L 204.094525 140.751171 
L 204.2465 140.751171 
L 204.308568 139.178427 
L 204.393033 139.178427 
L 204.393033 138.65418 
L 204.637889 138.65418 
L 204.674319 137.605684 
L 204.771088 137.605684 
L 204.843309 136.032941 
L 204.905258 136.032941 
L 204.915228 134.984446 
L 205.083853 134.984446 
L 205.083853 134.460198 
L 205.282091 134.460198 
L 205.282091 133.93595 
L 206.251443 133.93595 
L 206.306688 132.887455 
L 206.394713 132.887455 
L 206.458614 131.314712 
L 206.52591 131.314712 
L 206.632678 129.217721 
L 206.67592 129.217721 
L 206.67592 128.693473 
L 206.869173 128.693473 
L 206.869173 128.169225 
L 207.251022 128.169225 
L 207.251022 127.644978 
L 207.427619 127.644978 
L 207.427619 127.12073 
L 207.540928 127.12073 
L 207.612647 126.072235 
L 207.692551 126.072235 
L 207.714586 124.499491 
L 207.805818 124.499491 
L 207.805818 123.975244 
L 207.986007 123.975244 
L 207.986007 123.450996 
L 208.174225 123.450996 
L 208.174225 122.926748 
L 208.40033 122.926748 
L 208.40033 122.4025 
L 208.652396 122.4025 
L 208.652396 121.878253 
L 209.423991 121.878253 
L 209.423991 121.354005 
L 209.543198 121.354005 
L 209.654019 120.30551 
L 209.679724 120.30551 
L 209.762627 119.257014 
L 210.082916 119.257014 
L 210.082916 118.732766 
L 210.225488 118.732766 
L 210.225488 118.208519 
L 210.649099 118.208519 
L 210.674786 117.160023 
L 210.804062 117.160023 
L 210.804062 116.635776 
L 210.971661 116.635776 
L 211.072278 115.58728 
L 211.502962 115.58728 
L 211.568065 114.538785 
L 211.624829 114.538785 
L 211.624829 114.014537 
L 211.76057 114.014537 
L 211.776627 112.966042 
L 212.307333 112.966042 
L 212.415917 111.917546 
L 213.016112 111.917546 
L 213.126506 110.869051 
L 213.26075 110.869051 
L 213.26075 110.344803 
L 213.702797 110.344803 
L 213.788669 109.296308 
L 214.037878 109.296308 
L 214.037878 108.77206 
L 214.336616 108.77206 
L 214.336616 108.247812 
L 214.700344 108.247812 
L 214.700344 107.723564 
L 214.820643 107.723564 
L 214.887734 106.675069 
L 215.487595 106.675069 
L 215.487595 106.150821 
L 215.82694 106.150821 
L 215.82694 105.626573 
L 216.016094 105.626573 
L 216.116131 103.529583 
L 216.177324 103.529583 
L 216.233142 102.481087 
L 216.344236 102.481087 
L 216.344236 101.956839 
L 217.126925 101.956839 
L 217.168022 100.908344 
L 217.313034 100.908344 
L 217.313034 100.384096 
L 217.464519 100.384096 
L 217.480842 99.335601 
L 217.601344 99.335601 
L 217.629911 98.287105 
L 217.82856 98.287105 
L 217.844541 97.23861 
L 218.030517 97.23861 
L 218.030517 96.714362 
L 218.181365 96.714362 
L 218.181365 96.190115 
L 218.482767 96.190115 
L 218.558651 94.617371 
L 218.67633 94.617371 
L 218.756713 93.044628 
L 218.80032 93.044628 
L 218.84293 91.471885 
L 219.000904 91.471885 
L 219.000904 90.42339 
L 219.173972 90.42339 
L 219.173972 89.899142 
L 219.545632 89.899142 
L 219.545632 89.374894 
L 219.865207 89.374894 
L 219.865207 88.850646 
L 220.553007 88.850646 
L 220.585884 87.802151 
L 220.739013 87.802151 
L 220.739013 87.277903 
L 221.045919 87.277903 
L 221.045919 86.753656 
L 221.329805 86.753656 
L 221.403297 85.70516 
L 221.485601 85.70516 
L 221.544799 84.132417 
L 221.702422 84.132417 
L 221.702422 83.608169 
L 221.832554 83.608169 
L 221.872741 82.559674 
L 222.382461 82.559674 
L 222.421384 81.511178 
L 222.520454 81.511178 
L 222.54692 79.938435 
L 222.746595 79.938435 
L 222.746595 79.414188 
L 223.020633 79.414188 
L 223.020633 78.88994 
L 223.186701 78.88994 
L 223.186701 78.365692 
L 223.338899 78.365692 
L 223.338899 77.841444 
L 223.529633 77.841444 
L 223.529633 77.317197 
L 223.779588 77.317197 
L 223.83538 75.744454 
L 224.150764 75.744454 
L 224.252031 74.695958 
L 224.513458 74.695958 
L 224.54021 73.647463 
L 224.850537 73.647463 
L 224.884259 72.598967 
L 225.232564 72.598967 
L 225.232564 72.074719 
L 225.448233 72.074719 
L 225.448233 71.550472 
L 225.566758 71.550472 
L 225.566758 71.026224 
L 225.969123 71.026224 
L 225.982589 69.977729 
L 226.084121 69.977729 
L 226.150898 68.929233 
L 226.589756 68.929233 
L 226.589756 68.404985 
L 226.858807 68.404985 
L 226.92874 67.35649 
L 227.208933 67.35649 
L 227.313245 66.307995 
L 227.349497 66.307995 
L 227.349497 65.783747 
L 227.497497 65.783747 
L 227.497497 65.259499 
L 227.857557 65.259499 
L 227.879583 64.211004 
L 227.995019 64.211004 
L 227.995019 63.686756 
L 228.147393 63.686756 
L 228.206115 62.638261 
L 228.3933 62.638261 
L 228.3933 62.114013 
L 228.524541 62.114013 
L 228.524541 61.589765 
L 228.821305 61.589765 
L 228.821305 61.065517 
L 229.250529 61.065517 
L 229.250529 60.54127 
L 229.464055 60.54127 
L 229.464055 60.017022 
L 229.742811 60.017022 
L 229.807583 58.444279 
L 230.322616 58.444279 
L 230.322616 57.920031 
L 230.823107 57.920031 
L 230.823107 57.395783 
L 230.983542 57.395783 
L 230.983542 56.871536 
L 232.013032 56.871536 
L 232.121476 55.82304 
L 232.234122 55.82304 
L 232.275565 54.250297 
L 232.95354 54.250297 
L 233.004959 53.201802 
L 233.16524 53.201802 
L 233.16524 52.677554 
L 233.285051 52.677554 
L 233.285051 52.153306 
L 233.490464 52.153306 
L 233.576462 51.104811 
L 234.593245 51.104811 
L 234.637517 50.056315 
L 234.707411 50.056315 
L 234.707411 49.532068 
L 235.185102 49.532068 
L 235.287584 48.483572 
L 235.435782 48.483572 
L 235.435782 47.959324 
L 235.689514 47.959324 
L 235.689514 47.435077 
L 236.421971 47.435077 
L 236.421971 46.910829 
L 236.895558 46.910829 
L 236.895558 46.386581 
L 237.185287 46.386581 
L 237.185287 45.862334 
L 237.949723 45.862334 
L 237.949723 45.338086 
L 238.86458 45.338086 
L 238.86458 44.813838 
L 239.25672 44.813838 
L 239.25672 44.28959 
L 239.867312 44.28959 
L 239.867312 43.765343 
L 240.656487 43.765343 
L 240.656487 43.241095 
L 243.093767 43.241095 
L 243.093767 42.716847 
L 243.323207 42.716847 
L 243.323207 42.192599 
L 243.84405 42.192599 
L 243.84405 41.668352 
L 244.063753 41.668352 
L 244.063753 41.144104 
L 244.772335 41.144104 
L 244.772335 40.619856 
L 245.328353 40.619856 
L 245.328353 40.095609 
L 250.739786 40.095609 
L 250.739786 39.571361 
L 257.378701 39.571361 
L 257.378701 39.047113 
L 258.029789 39.047113 
L 258.029789 38.522865 
L 259.712222 38.522865 
L 259.712222 37.998618 
L 333.168 37.998618 
L 333.168 37.998618 
" style="fill:none;stroke:#ff00ff;stroke-linecap:square;stroke-width:1.5;"/>
   </g>
   <g id="line2d_49">
    <defs>
     <path d="M -0 8.485281 
L 5.091169 0 
L 0 -8.485281 
L -5.091169 -0 
z
" id="m759ab15a11" style="stroke:#ff00ff;stroke-linejoin:miter;stroke-width:1.5;"/>
    </defs>
    <g>
     <use style="fill:none;stroke:#ff00ff;stroke-linejoin:miter;stroke-width:1.5;" x="87.847234" xlink:href="#m759ab15a11" y="275.482834"/>
     <use style="fill:none;stroke:#ff00ff;stroke-linejoin:miter;stroke-width:1.5;" x="162.381577" xlink:href="#m759ab15a11" y="207.330631"/>
     <use style="fill:none;stroke:#ff00ff;stroke-linejoin:miter;stroke-width:1.5;" x="216.344236" xlink:href="#m759ab15a11" y="102.481087"/>
     <use style="fill:none;stroke:#ff00ff;stroke-linejoin:miter;stroke-width:1.5;" x="259.712222" xlink:href="#m759ab15a11" y="38.522865"/>
     <use style="fill:none;stroke:#ff00ff;stroke-linejoin:miter;stroke-width:1.5;" x="259.712222" xlink:href="#m759ab15a11" y="37.998618"/>
     <use style="fill:none;stroke:#ff00ff;stroke-linejoin:miter;stroke-width:1.5;" x="333.168" xlink:href="#m759ab15a11" y="37.998618"/>
    </g>
   </g>
   <g id="line2d_50">
    <path style="fill:none;stroke:#ff00ff;stroke-linecap:square;stroke-width:1.5;"/>
    <g/>
   </g>
   <g id="line2d_51">
    <path clip-path="url(#p4047da6450)" d="M 186.561597 179.021254 
" style="fill:none;stroke:#ff00ff;stroke-linecap:square;stroke-width:1.5;"/>
    <defs>
     <path d="M -12 12 
L 12 -12 
M -12 -12 
L 12 12 
" id="m27a81cbf98" style="stroke:#ff00ff;"/>
    </defs>
    <g clip-path="url(#p4047da6450)">
     <use style="fill:#ff00ff;stroke:#ff00ff;" x="186.561597" xlink:href="#m27a81cbf98" y="179.021254"/>
    </g>
   </g>
   <g id="line2d_52">
    <defs>
     <path d="M 0 1.5 
C 0.397805 1.5 0.77937 1.341951 1.06066 1.06066 
C 1.341951 0.77937 1.5 0.397805 1.5 0 
C 1.5 -0.397805 1.341951 -0.77937 1.06066 -1.06066 
C 0.77937 -1.341951 0.397805 -1.5 0 -1.5 
C -0.397805 -1.5 -0.77937 -1.341951 -1.06066 -1.06066 
C -1.341951 -0.77937 -1.5 -0.397805 -1.5 0 
C -1.5 0.397805 -1.341951 0.77937 -1.06066 1.06066 
C -0.77937 1.341951 -0.397805 1.5 0 1.5 
z
" id="m47d0134318" style="stroke:#ff7500;"/>
    </defs>
    <g>
     <use style="fill:#ff7500;stroke:#ff7500;" x="197.06701" xlink:href="#m47d0134318" y="27.513663"/>
     <use style="fill:#ff7500;stroke:#ff7500;" x="197.06701" xlink:href="#m47d0134318" y="27.513663"/>
    </g>
   </g>
   <g id="line2d_53">
    <path d="M 37.236359 294.88 
L 37.236359 287.016284 
L 56.12 287.016284 
L 56.12 283.870798 
L 61.064861 283.870798 
L 61.064861 282.822302 
L 68.034251 282.822302 
L 68.034251 280.201064 
L 72.979112 280.201064 
L 72.979112 267.094871 
L 78.452896 267.094871 
L 78.452896 266.046375 
L 81.324327 266.046375 
L 81.324327 263.425137 
L 83.784035 263.425137 
L 83.784035 260.279651 
L 84.893363 260.279651 
L 84.893363 257.134164 
L 85.935418 257.134164 
L 85.935418 256.609917 
L 88.728896 256.609917 
L 88.728896 255.561421 
L 89.567532 255.561421 
L 89.567532 255.037173 
L 90.367147 255.037173 
L 90.367147 251.891687 
L 91.862754 251.891687 
L 91.862754 250.843192 
L 92.564428 250.843192 
L 92.564428 249.270448 
L 93.238578 249.270448 
L 93.238578 248.221953 
L 94.512393 248.221953 
L 94.512393 247.173458 
L 95.115564 247.173458 
L 95.115564 246.64921 
L 96.261898 246.64921 
L 96.261898 245.076467 
L 100.207968 245.076467 
L 100.207968 244.552219 
L 100.643147 244.552219 
L 100.643147 242.979476 
L 101.067579 242.979476 
L 101.067579 241.406733 
L 102.667676 241.406733 
L 102.667676 240.882485 
L 103.415125 240.882485 
L 103.415125 239.309742 
L 104.131422 239.309742 
L 104.131422 238.785494 
L 104.478679 238.785494 
L 104.478679 238.261246 
L 104.819059 238.261246 
L 104.819059 237.736999 
L 105.152829 237.736999 
L 105.152829 236.688503 
L 106.730875 236.688503 
L 106.730875 236.164255 
L 107.323646 236.164255 
L 107.323646 235.11576 
L 107.896653 235.11576 
L 107.896653 234.067265 
L 108.176149 234.067265 
L 108.176149 231.446026 
L 111.217346 231.446026 
L 111.217346 230.397531 
L 111.675736 230.397531 
L 111.675736 229.349035 
L 113.999206 229.349035 
L 113.999206 228.30054 
L 114.959714 228.30054 
L 114.959714 227.252044 
L 115.145539 227.252044 
L 115.145539 226.727797 
L 116.563963 226.727797 
L 116.563963 226.203549 
L 116.901005 226.203549 
L 116.901005 225.155053 
L 118.186736 225.155053 
L 118.186736 224.106558 
L 119.669433 224.106558 
L 119.669433 222.533815 
L 121.16504 222.533815 
L 121.16504 222.009567 
L 121.294766 222.009567 
L 121.294766 221.485319 
L 121.929105 221.485319 
L 121.929105 220.961072 
L 123.589988 220.961072 
L 123.589988 220.436824 
L 125.104431 220.436824 
L 125.104431 219.388328 
L 126.967129 219.388328 
L 126.967129 217.815585 
L 127.694799 217.815585 
L 127.694799 217.291338 
L 129.227474 217.291338 
L 129.308744 215.718594 
L 129.389632 215.718594 
L 129.470141 213.621604 
L 129.788458 213.621604 
L 129.788458 212.573108 
L 129.945433 212.573108 
L 129.945433 211.000365 
L 130.178239 211.000365 
L 130.255146 207.854879 
L 131.005861 207.854879 
L 131.005861 207.330631 
L 131.224827 207.330631 
L 131.224827 206.282136 
L 132.550368 206.282136 
L 132.550368 205.757888 
L 132.816864 205.757888 
L 132.816864 196.321429 
L 134.455115 196.321429 
L 134.515111 194.748686 
L 134.634477 194.748686 
L 134.634477 194.224438 
L 135.276571 194.224438 
L 135.276571 193.70019 
L 135.504239 193.70019 
L 135.504239 193.175943 
L 136.862657 193.175943 
L 136.862657 187.409218 
L 137.173303 187.409218 
L 137.173303 186.88497 
L 138.121538 186.88497 
L 138.121538 180.06975 
L 138.88138 180.06975 
L 138.88138 178.497006 
L 139.249066 178.497006 
L 139.294478 176.924263 
L 140.978022 176.924263 
L 140.978022 175.875768 
L 141.182408 175.875768 
L 141.182408 174.827272 
L 141.544287 174.827272 
L 141.544287 173.254529 
L 141.702709 173.254529 
L 141.702709 171.681786 
L 142.661075 171.681786 
L 142.735485 161.721079 
L 143.283522 161.721079 
L 143.283522 161.196832 
L 146.459281 161.196832 
L 146.459281 159.624089 
L 147.531203 159.624089 
L 147.531203 159.099841 
L 148.460544 159.099841 
L 148.460544 158.575593 
L 148.829074 158.575593 
L 148.829074 157.00285 
L 149.061881 157.00285 
L 149.061881 156.478602 
L 149.266206 156.478602 
L 149.266206 155.954354 
L 149.642889 155.954354 
L 149.642889 148.090639 
L 149.840462 148.090639 
L 149.840462 147.566391 
L 150.204899 147.566391 
L 150.228922 145.4694 
L 150.348537 145.4694 
L 150.396151 135.508693 
L 150.538207 135.508693 
L 150.608797 134.460198 
L 150.91138 134.460198 
L 150.91138 133.93595 
L 151.026355 133.93595 
L 151.026355 132.887455 
L 151.231391 132.887455 
L 151.231391 132.363207 
L 151.344251 132.363207 
L 151.344251 131.838959 
L 151.962932 131.838959 
L 151.962932 131.314712 
L 152.518141 131.314712 
L 152.518141 122.926748 
L 152.871701 122.926748 
L 152.933346 121.354005 
L 153.715237 121.354005 
L 153.715237 120.829757 
L 153.968159 120.829757 
L 154.006742 119.781262 
L 154.217413 119.781262 
L 154.217413 118.732766 
L 154.38788 118.732766 
L 154.444329 117.684271 
L 154.723825 117.684271 
L 154.723825 117.160023 
L 155.323172 117.160023 
L 155.323172 116.111528 
L 155.588844 116.111528 
L 155.588844 115.58728 
L 156.005559 115.58728 
L 156.091117 113.490289 
L 157.085915 113.490289 
L 157.134175 103.529583 
L 157.484002 103.529583 
L 157.484002 103.005335 
L 158.117543 103.005335 
L 158.117543 102.481087 
L 158.507528 102.481087 
L 158.507528 101.956839 
L 159.004513 101.956839 
L 159.004513 101.432592 
L 159.902736 101.432592 
L 159.902736 100.908344 
L 160.174069 100.908344 
L 160.200969 98.811353 
L 160.401383 98.811353 
L 160.401383 97.762858 
L 161.631496 97.762858 
L 161.631496 96.714362 
L 161.815992 96.714362 
L 161.828221 87.277903 
L 161.998527 87.277903 
L 161.998527 85.180912 
L 162.310402 85.180912 
L 162.310402 83.608169 
L 164.017676 83.608169 
L 164.017676 83.083922 
L 164.178369 83.083922 
L 164.178369 82.559674 
L 164.348134 82.559674 
L 164.348134 75.744454 
L 164.568437 75.744454 
L 164.568437 74.695958 
L 165.192802 74.695958 
L 165.192802 73.123215 
L 166.131664 73.123215 
L 166.131664 72.598967 
L 167.721394 72.598967 
L 167.730069 65.783747 
L 168.443534 65.783747 
L 168.443534 64.735251 
L 179.756693 64.735251 
L 179.756693 57.920031 
L 179.868336 57.920031 
L 179.868336 56.871536 
L 180.02173 56.871536 
L 180.025972 55.298792 
L 180.228342 55.298792 
L 180.240912 54.250297 
L 180.357785 54.250297 
L 180.391032 53.201802 
L 180.671063 53.201802 
L 180.768819 50.580563 
L 181.190081 50.580563 
L 181.190081 50.056315 
L 181.609002 50.056315 
L 181.713118 48.483572 
L 182.017956 48.483572 
L 182.017956 47.959324 
L 182.571697 47.959324 
L 182.571697 46.910829 
L 182.684696 46.910829 
L 182.764441 45.862334 
L 183.02643 45.862334 
L 183.02643 44.813838 
L 183.358008 44.813838 
L 183.358008 44.28959 
L 184.002572 44.28959 
L 184.002572 43.241095 
L 184.711244 43.241095 
L 184.711244 42.716847 
L 184.999436 42.716847 
L 185.050168 41.668352 
L 185.129138 41.668352 
L 185.207747 40.619856 
L 185.469271 40.619856 
L 185.469271 39.571361 
L 185.69336 39.571361 
L 185.69336 39.047113 
L 185.941641 39.047113 
L 185.941641 38.522865 
L 186.162662 38.522865 
L 186.254414 37.47437 
L 186.319232 37.47437 
L 186.33393 36.425875 
L 186.532577 36.425875 
L 186.532577 35.901627 
L 187.240988 35.901627 
L 187.240988 34.328884 
L 188.266147 34.328884 
L 188.266147 33.804636 
L 188.737524 33.804636 
L 188.737524 32.756141 
L 189.616503 32.756141 
L 189.616503 32.231893 
L 191.709672 32.231893 
L 191.709672 31.183397 
L 192.713505 31.183397 
L 192.713505 30.65915 
L 193.909531 30.65915 
L 193.909531 29.610654 
L 194.926429 29.610654 
L 194.926429 29.086407 
L 195.256531 29.086407 
L 195.256531 28.562159 
L 195.886511 28.562159 
L 195.886511 28.037911 
L 197.06701 28.037911 
L 197.06701 27.513663 
L 333.168 27.513663 
L 333.168 27.513663 
" style="fill:none;stroke:#ff7500;stroke-linecap:square;stroke-width:1.5;"/>
   </g>
   <g id="line2d_54">
    <defs>
     <path d="M 0 -6 
L -1.347084 -1.854102 
L -5.706339 -1.854102 
L -2.179628 0.708204 
L -3.526712 4.854102 
L -0 2.291796 
L 3.526712 4.854102 
L 2.179628 0.708204 
L 5.706339 -1.854102 
L 1.347084 -1.854102 
z
" id="mcf3fc6f35e" style="stroke:#ff7500;stroke-linejoin:bevel;stroke-width:1.5;"/>
    </defs>
    <g>
     <use style="fill:none;stroke:#ff7500;stroke-linejoin:bevel;stroke-width:1.5;" x="95.115564" xlink:href="#mcf3fc6f35e" y="247.173458"/>
     <use style="fill:none;stroke:#ff7500;stroke-linejoin:bevel;stroke-width:1.5;" x="153.715237" xlink:href="#mcf3fc6f35e" y="120.829757"/>
     <use style="fill:none;stroke:#ff7500;stroke-linejoin:bevel;stroke-width:1.5;" x="192.713505" xlink:href="#mcf3fc6f35e" y="31.183397"/>
     <use style="fill:none;stroke:#ff7500;stroke-linejoin:bevel;stroke-width:1.5;" x="197.06701" xlink:href="#mcf3fc6f35e" y="27.513663"/>
     <use style="fill:none;stroke:#ff7500;stroke-linejoin:bevel;stroke-width:1.5;" x="197.06701" xlink:href="#mcf3fc6f35e" y="27.513663"/>
     <use style="fill:none;stroke:#ff7500;stroke-linejoin:bevel;stroke-width:1.5;" x="333.168" xlink:href="#mcf3fc6f35e" y="27.513663"/>
    </g>
   </g>
   <g id="line2d_55">
    <path style="fill:none;stroke:#ff7500;stroke-linecap:square;stroke-width:1.5;"/>
    <g/>
   </g>
   <g id="line2d_56">
    <path clip-path="url(#p4047da6450)" d="M 179.834061 57.920031 
" style="fill:none;stroke:#ff7500;stroke-linecap:square;stroke-width:1.5;"/>
    <defs>
     <path d="M -12 12 
L 12 -12 
M -12 -12 
L 12 12 
" id="me5176187ee" style="stroke:#ff7500;"/>
    </defs>
    <g clip-path="url(#p4047da6450)">
     <use style="fill:#ff7500;stroke:#ff7500;" x="179.834061" xlink:href="#me5176187ee" y="57.920031"/>
    </g>
   </g>
   <g id="line2d_57">
    <defs>
     <path d="M 0 1.5 
C 0.397805 1.5 0.77937 1.341951 1.06066 1.06066 
C 1.341951 0.77937 1.5 0.397805 1.5 0 
C 1.5 -0.397805 1.341951 -0.77937 1.06066 -1.06066 
C 0.77937 -1.341951 0.397805 -1.5 0 -1.5 
C -0.397805 -1.5 -0.77937 -1.341951 -1.06066 -1.06066 
C -1.341951 -0.77937 -1.5 -0.397805 -1.5 0 
C -1.5 0.397805 -1.341951 0.77937 -1.06066 1.06066 
C -0.77937 1.341951 -0.397805 1.5 0 1.5 
z
" id="m04d02390af" style="stroke:#6495ed;"/>
    </defs>
    <g>
     <use style="fill:#6495ed;stroke:#6495ed;" x="178.164474" xlink:href="#m04d02390af" y="27.513663"/>
     <use style="fill:#6495ed;stroke:#6495ed;" x="178.164474" xlink:href="#m04d02390af" y="27.513663"/>
    </g>
   </g>
   <g id="line2d_58">
    <path d="M 37.236359 294.88 
L 37.236359 291.210266 
L 56.12 291.210266 
L 56.12 290.686018 
L 61.064861 290.686018 
L 61.064861 288.589027 
L 64.900393 288.589027 
L 64.900393 287.540532 
L 68.034251 287.540532 
L 68.034251 287.016284 
L 72.979112 287.016284 
L 72.979112 285.967789 
L 75.003641 285.967789 
L 75.003641 283.870798 
L 76.814644 283.870798 
L 76.814644 279.676816 
L 78.452896 279.676816 
L 78.452896 279.152568 
L 79.948502 279.152568 
L 79.948502 278.628321 
L 85.935418 278.628321 
L 85.935418 277.579825 
L 86.917893 277.579825 
L 86.917893 276.53133 
L 87.847234 276.53133 
L 87.847234 273.910091 
L 91.131212 273.910091 
L 91.131212 273.385844 
L 93.238578 273.385844 
L 93.238578 270.764605 
L 94.512393 270.764605 
L 94.512393 269.716109 
L 95.115564 269.716109 
L 95.115564 267.619119 
L 95.698286 267.619119 
L 95.698286 267.094871 
L 96.261898 267.094871 
L 96.261898 266.570623 
L 96.807615 266.570623 
L 96.807615 265.522128 
L 98.347925 265.522128 
L 98.347925 263.949385 
L 99.761485 263.949385 
L 99.761485 263.425137 
L 100.207968 263.425137 
L 100.207968 262.900889 
L 101.067579 262.900889 
L 101.067579 261.328146 
L 101.481783 261.328146 
L 101.481783 260.279651 
L 102.667676 260.279651 
L 102.667676 258.18266 
L 103.415125 258.18266 
L 103.415125 257.658412 
L 103.777005 257.658412 
L 103.777005 257.134164 
L 106.426644 257.134164 
L 106.426644 256.085669 
L 107.029816 256.085669 
L 107.029816 255.561421 
L 108.176149 255.561421 
L 108.176149 255.037173 
L 108.988361 255.037173 
L 108.988361 254.512926 
L 110.262176 254.512926 
L 110.262176 253.988678 
L 110.746395 253.988678 
L 110.746395 252.415935 
L 111.217346 252.415935 
L 111.217346 250.843192 
L 112.122219 250.843192 
L 112.122219 250.318944 
L 113.396034 250.318944 
L 113.396034 249.270448 
L 114.389873 249.270448 
L 114.389873 248.746201 
L 114.581927 248.746201 
L 114.581927 247.697705 
L 115.869378 247.697705 
L 115.869378 247.173458 
L 116.73331 247.173458 
L 116.73331 246.64921 
L 117.231566 246.64921 
L 117.231566 245.600714 
L 117.715785 245.600714 
L 117.715785 245.076467 
L 118.031182 245.076467 
L 118.031182 244.552219 
L 118.340895 244.552219 
L 118.340895 244.027971 
L 118.493684 244.027971 
L 118.493684 242.455228 
L 118.795247 242.455228 
L 118.795247 240.882485 
L 119.09161 240.882485 
L 119.09161 239.83399 
L 120.365424 239.83399 
L 120.365424 238.785494 
L 120.501303 238.785494 
L 120.501303 237.212751 
L 120.636117 237.212751 
L 120.636117 236.688503 
L 120.902613 236.688503 
L 120.902613 236.164255 
L 121.034327 236.164255 
L 121.034327 235.11576 
L 121.804096 235.11576 
L 121.804096 234.591512 
L 122.298767 234.591512 
L 122.298767 234.067265 
L 122.897734 234.067265 
L 122.897734 233.018769 
L 123.247346 233.018769 
L 123.247346 232.494521 
L 123.36232 232.494521 
L 123.36232 231.446026 
L 123.589988 231.446026 
L 123.589988 229.349035 
L 123.7027 229.349035 
L 123.7027 228.30054 
L 124.036471 228.30054 
L 124.146303 227.252044 
L 124.578744 227.252044 
L 124.685175 225.679301 
L 124.790952 225.679301 
L 124.790952 225.155053 
L 125.913457 225.155053 
L 125.913457 224.630806 
L 126.40042 224.630806 
L 126.40042 223.58231 
L 126.873966 223.58231 
L 126.967129 222.009567 
L 127.334814 222.009567 
L 127.42552 220.436824 
L 128.13443 220.436824 
L 128.13443 219.388328 
L 128.478214 219.388328 
L 128.478214 218.864081 
L 128.647561 218.864081 
L 128.647561 206.282136 
L 129.063771 206.282136 
L 129.063771 205.757888 
L 129.389632 205.757888 
L 129.470141 204.709392 
L 129.630036 204.709392 
L 129.630036 202.612401 
L 129.867125 202.612401 
L 129.867125 202.088154 
L 130.178239 202.088154 
L 130.178239 201.563906 
L 130.33171 201.563906 
L 130.407935 199.991163 
L 130.559378 199.991163 
L 130.559378 192.127447 
L 130.709498 192.127447 
L 130.709498 191.603199 
L 131.224827 191.603199 
L 131.224827 186.360722 
L 131.441039 186.360722 
L 131.441039 185.836474 
L 131.583684 185.836474 
L 131.583684 182.690988 
L 131.795457 182.690988 
L 131.865471 172.730281 
L 131.935202 172.730281 
L 131.935202 171.157538 
L 132.61738 171.157538 
L 132.684132 160.148336 
L 133.144276 160.148336 
L 133.209017 155.954354 
L 134.151957 155.954354 
L 134.213018 144.420905 
L 134.39491 144.420905 
L 134.39491 136.032941 
L 134.929315 136.032941 
L 134.929315 126.596482 
L 135.10382 126.596482 
L 135.10382 126.072235 
L 135.333772 126.072235 
L 135.333772 123.975244 
L 135.784647 123.975244 
L 135.784647 123.450996 
L 136.115208 123.450996 
L 136.115208 122.4025 
L 136.3859 122.4025 
L 136.3859 120.829757 
L 136.705203 120.829757 
L 136.705203 120.30551 
L 137.173303 120.30551 
L 137.173303 119.257014 
L 137.326546 119.257014 
L 137.427955 111.917546 
L 137.628993 111.917546 
L 137.628993 111.393298 
L 137.827708 111.393298 
L 137.827708 110.869051 
L 138.410429 110.869051 
L 138.410429 110.344803 
L 138.88138 110.344803 
L 138.927773 101.956839 
L 139.112104 101.956839 
L 139.112104 101.432592 
L 139.249066 101.432592 
L 139.249066 100.384096 
L 139.564462 100.384096 
L 139.564462 91.471885 
L 139.917968 91.471885 
L 139.917968 90.42339 
L 140.771177 90.42339 
L 140.771177 89.899142 
L 140.936852 89.899142 
L 140.936852 88.850646 
L 142.284116 88.850646 
L 142.284116 87.802151 
L 142.435893 87.802151 
L 142.435893 86.753656 
L 145.252022 86.753656 
L 145.252022 84.656665 
L 145.819772 84.656665 
L 145.9126 82.035426 
L 146.218456 82.035426 
L 146.218456 81.511178 
L 146.548728 81.511178 
L 146.548728 80.986931 
L 150.538207 80.986931 
L 150.538207 77.841444 
L 150.934437 77.841444 
L 150.934437 76.792949 
L 151.208729 76.792949 
L 151.208729 76.268701 
L 153.812956 76.268701 
L 153.812956 74.695958 
L 154.797596 74.695958 
L 154.797596 73.647463 
L 156.193228 73.647463 
L 156.193228 73.123215 
L 157.671858 73.123215 
L 157.671858 72.074719 
L 157.873078 72.074719 
L 157.873078 71.550472 
L 158.433215 71.550472 
L 158.462979 70.501976 
L 158.699253 70.501976 
L 158.699253 69.977729 
L 158.87435 69.977729 
L 158.87435 63.162508 
L 159.668686 63.162508 
L 159.668686 61.589765 
L 159.902736 61.589765 
L 159.902736 60.017022 
L 160.268033 60.017022 
L 160.268033 59.492774 
L 160.743325 59.492774 
L 160.743325 51.629058 
L 162.733095 51.629058 
L 162.733095 51.104811 
L 163.145642 51.104811 
L 163.145642 50.580563 
L 163.888031 50.580563 
L 163.888031 50.056315 
L 165.091989 50.056315 
L 165.091989 49.532068 
L 165.471974 49.532068 
L 165.471974 49.00782 
L 165.649077 49.00782 
L 165.727207 39.571361 
L 166.711847 39.571361 
L 166.711847 37.998618 
L 167.353052 37.998618 
L 167.353052 37.47437 
L 178.112409 37.47437 
L 178.164474 27.513663 
L 333.168 27.513663 
L 333.168 27.513663 
" style="fill:none;stroke:#6495ed;stroke-linecap:square;stroke-width:1.5;"/>
   </g>
   <g id="line2d_59">
    <defs>
     <path d="M -0 6 
L 6 -6 
L -6 -6 
z
" id="md70d6415d0" style="stroke:#6495ed;stroke-linejoin:miter;stroke-width:1.5;"/>
    </defs>
    <g>
     <use style="fill:none;stroke:#6495ed;stroke-linejoin:miter;stroke-width:1.5;" x="101.067579" xlink:href="#md70d6415d0" y="261.328146"/>
     <use style="fill:none;stroke:#6495ed;stroke-linejoin:miter;stroke-width:1.5;" x="131.795457" xlink:href="#md70d6415d0" y="182.690988"/>
     <use style="fill:none;stroke:#6495ed;stroke-linejoin:miter;stroke-width:1.5;" x="165.091989" xlink:href="#md70d6415d0" y="50.056315"/>
     <use style="fill:none;stroke:#6495ed;stroke-linejoin:miter;stroke-width:1.5;" x="178.164474" xlink:href="#md70d6415d0" y="27.513663"/>
     <use style="fill:none;stroke:#6495ed;stroke-linejoin:miter;stroke-width:1.5;" x="178.164474" xlink:href="#md70d6415d0" y="27.513663"/>
     <use style="fill:none;stroke:#6495ed;stroke-linejoin:miter;stroke-width:1.5;" x="333.168" xlink:href="#md70d6415d0" y="27.513663"/>
    </g>
   </g>
   <g id="line2d_60">
    <path style="fill:none;stroke:#6495ed;stroke-linecap:square;stroke-width:1.5;"/>
    <g/>
   </g>
   <g id="line2d_61">
    <path d="M 333.168 237.212751 
L 363.64328 289.532673 
" style="fill:none;stroke:#000080;stroke-linecap:square;stroke-width:1.5;"/>
    <g>
     <use style="fill:none;stroke:#000080;stroke-width:1.5;" x="333.168" xlink:href="#macbd8adcd1" y="237.212751"/>
     <use style="fill:none;stroke:#000080;stroke-width:1.5;" x="363.64328" xlink:href="#macbd8adcd1" y="289.532673"/>
    </g>
   </g>
   <g id="line2d_62">
    <path d="M 333.168 37.998618 
L 363.64328 225.364752 
" style="fill:none;stroke:#ff00ff;stroke-linecap:square;stroke-width:1.5;"/>
    <g>
     <use style="fill:none;stroke:#ff00ff;stroke-linejoin:miter;stroke-width:1.5;" x="333.168" xlink:href="#m759ab15a11" y="37.998618"/>
     <use style="fill:none;stroke:#ff00ff;stroke-linejoin:miter;stroke-width:1.5;" x="363.64328" xlink:href="#m759ab15a11" y="225.364752"/>
    </g>
   </g>
   <g id="line2d_63">
    <path d="M 333.168 27.513663 
L 363.64328 161.196832 
" style="fill:none;stroke:#ff7500;stroke-linecap:square;stroke-width:1.5;"/>
    <g>
     <use style="fill:none;stroke:#ff7500;stroke-linejoin:bevel;stroke-width:1.5;" x="333.168" xlink:href="#mcf3fc6f35e" y="27.513663"/>
     <use style="fill:none;stroke:#ff7500;stroke-linejoin:bevel;stroke-width:1.5;" x="363.64328" xlink:href="#mcf3fc6f35e" y="161.196832"/>
    </g>
   </g>
   <g id="line2d_64">
    <path d="M 333.168 27.513663 
L 363.64328 97.028911 
" style="fill:none;stroke:#6495ed;stroke-linecap:square;stroke-width:1.5;"/>
    <g>
     <use style="fill:none;stroke:#6495ed;stroke-linejoin:miter;stroke-width:1.5;" x="333.168" xlink:href="#md70d6415d0" y="27.513663"/>
     <use style="fill:none;stroke:#6495ed;stroke-linejoin:miter;stroke-width:1.5;" x="363.64328" xlink:href="#md70d6415d0" y="97.028911"/>
    </g>
   </g>
   <g id="line2d_65">
    <path d="M 333.168 294.88 
L 333.168 27.513663 
" style="fill:none;stroke:#000000;stroke-linecap:square;stroke-width:1.5;"/>
   </g>
   <g id="patch_3">
    <path d="M 56.12 294.88 
L 56.12 24.84 
" style="fill:none;stroke:#000000;stroke-linecap:square;stroke-linejoin:miter;stroke-width:0.8;"/>
   </g>
   <g id="patch_4">
    <path d="M 333.168 294.88 
L 333.168 24.84 
" style="fill:none;stroke:#000000;stroke-linecap:square;stroke-linejoin:miter;stroke-width:0.8;"/>
   </g>
   <g id="patch_5">
    <path d="M 56.12 294.88 
L 333.168 294.88 
" style="fill:none;stroke:#000000;stroke-linecap:square;stroke-linejoin:miter;stroke-width:0.8;"/>
   </g>
   <g id="patch_6">
    <path d="M 56.12 24.84 
L 333.168 24.84 
" style="fill:none;stroke:#000000;stroke-linecap:square;stroke-linejoin:miter;stroke-width:0.8;"/>
   </g>
   <g id="text_13">
    <!-- scipyAlg -->
    <defs>
     <path d="M 32.171875 -5.078125 
Q 28.375 -14.84375 24.75 -17.8125 
Q 21.140625 -20.796875 15.09375 -20.796875 
L 7.90625 -20.796875 
L 7.90625 -13.28125 
L 13.1875 -13.28125 
Q 16.890625 -13.28125 18.9375 -11.515625 
Q 21 -9.765625 23.484375 -3.21875 
L 25.09375 0.875 
L 2.984375 54.6875 
L 12.5 54.6875 
L 29.59375 11.921875 
L 46.6875 54.6875 
L 56.203125 54.6875 
z
" id="DejaVuSans-79"/>
     <path d="M 34.1875 63.1875 
L 20.796875 26.90625 
L 47.609375 26.90625 
z
M 28.609375 72.90625 
L 39.796875 72.90625 
L 67.578125 0 
L 57.328125 0 
L 50.6875 18.703125 
L 17.828125 18.703125 
L 11.1875 0 
L 0.78125 0 
z
" id="DejaVuSans-41"/>
    </defs>
    <g transform="translate(369.18424 294.223611)scale(0.17 -0.17)">
     <use xlink:href="#DejaVuSans-73"/>
     <use x="52.099609" xlink:href="#DejaVuSans-63"/>
     <use x="107.080078" xlink:href="#DejaVuSans-69"/>
     <use x="134.863281" xlink:href="#DejaVuSans-70"/>
     <use x="198.339844" xlink:href="#DejaVuSans-79"/>
     <use x="257.519531" xlink:href="#DejaVuSans-41"/>
     <use x="325.927734" xlink:href="#DejaVuSans-6c"/>
     <use x="353.710938" xlink:href="#DejaVuSans-67"/>
    </g>
   </g>
   <g id="text_14">
    <!-- CMA ES PPM -->
    <defs>
     <path d="M 64.40625 67.28125 
L 64.40625 56.890625 
Q 59.421875 61.53125 53.78125 63.8125 
Q 48.140625 66.109375 41.796875 66.109375 
Q 29.296875 66.109375 22.65625 58.46875 
Q 16.015625 50.828125 16.015625 36.375 
Q 16.015625 21.96875 22.65625 14.328125 
Q 29.296875 6.6875 41.796875 6.6875 
Q 48.140625 6.6875 53.78125 8.984375 
Q 59.421875 11.28125 64.40625 15.921875 
L 64.40625 5.609375 
Q 59.234375 2.09375 53.4375 0.328125 
Q 47.65625 -1.421875 41.21875 -1.421875 
Q 24.65625 -1.421875 15.125 8.703125 
Q 5.609375 18.84375 5.609375 36.375 
Q 5.609375 53.953125 15.125 64.078125 
Q 24.65625 74.21875 41.21875 74.21875 
Q 47.75 74.21875 53.53125 72.484375 
Q 59.328125 70.75 64.40625 67.28125 
z
" id="DejaVuSans-43"/>
     <path d="M 9.8125 72.90625 
L 24.515625 72.90625 
L 43.109375 23.296875 
L 61.8125 72.90625 
L 76.515625 72.90625 
L 76.515625 0 
L 66.890625 0 
L 66.890625 64.015625 
L 48.09375 14.015625 
L 38.1875 14.015625 
L 19.390625 64.015625 
L 19.390625 0 
L 9.8125 0 
z
" id="DejaVuSans-4d"/>
     <path d="M 9.8125 72.90625 
L 55.90625 72.90625 
L 55.90625 64.59375 
L 19.671875 64.59375 
L 19.671875 43.015625 
L 54.390625 43.015625 
L 54.390625 34.71875 
L 19.671875 34.71875 
L 19.671875 8.296875 
L 56.78125 8.296875 
L 56.78125 0 
L 9.8125 0 
z
" id="DejaVuSans-45"/>
     <path d="M 53.515625 70.515625 
L 53.515625 60.890625 
Q 47.90625 63.578125 42.921875 64.890625 
Q 37.9375 66.21875 33.296875 66.21875 
Q 25.25 66.21875 20.875 63.09375 
Q 16.5 59.96875 16.5 54.203125 
Q 16.5 49.359375 19.40625 46.890625 
Q 22.3125 44.4375 30.421875 42.921875 
L 36.375 41.703125 
Q 47.40625 39.59375 52.65625 34.296875 
Q 57.90625 29 57.90625 20.125 
Q 57.90625 9.515625 50.796875 4.046875 
Q 43.703125 -1.421875 29.984375 -1.421875 
Q 24.8125 -1.421875 18.96875 -0.25 
Q 13.140625 0.921875 6.890625 3.21875 
L 6.890625 13.375 
Q 12.890625 10.015625 18.65625 8.296875 
Q 24.421875 6.59375 29.984375 6.59375 
Q 38.421875 6.59375 43.015625 9.90625 
Q 47.609375 13.234375 47.609375 19.390625 
Q 47.609375 24.75 44.3125 27.78125 
Q 41.015625 30.8125 33.5 32.328125 
L 27.484375 33.5 
Q 16.453125 35.6875 11.515625 40.375 
Q 6.59375 45.0625 6.59375 53.421875 
Q 6.59375 63.09375 13.40625 68.65625 
Q 20.21875 74.21875 32.171875 74.21875 
Q 37.3125 74.21875 42.625 73.28125 
Q 47.953125 72.359375 53.515625 70.515625 
z
" id="DejaVuSans-53"/>
     <path d="M 19.671875 64.796875 
L 19.671875 37.40625 
L 32.078125 37.40625 
Q 38.96875 37.40625 42.71875 40.96875 
Q 46.484375 44.53125 46.484375 51.125 
Q 46.484375 57.671875 42.71875 61.234375 
Q 38.96875 64.796875 32.078125 64.796875 
z
M 9.8125 72.90625 
L 32.078125 72.90625 
Q 44.34375 72.90625 50.609375 67.359375 
Q 56.890625 61.8125 56.890625 51.125 
Q 56.890625 40.328125 50.609375 34.8125 
Q 44.34375 29.296875 32.078125 29.296875 
L 19.671875 29.296875 
L 19.671875 0 
L 9.8125 0 
z
" id="DejaVuSans-50"/>
    </defs>
    <g transform="translate(369.18424 230.05569)scale(0.17 -0.17)">
     <use xlink:href="#DejaVuSans-43"/>
     <use x="69.824219" xlink:href="#DejaVuSans-4d"/>
     <use x="156.103516" xlink:href="#DejaVuSans-41"/>
     <use x="224.511719" xlink:href="#DejaVuSans-20"/>
     <use x="256.298828" xlink:href="#DejaVuSans-45"/>
     <use x="319.482422" xlink:href="#DejaVuSans-53"/>
     <use x="382.958984" xlink:href="#DejaVuSans-20"/>
     <use x="414.746094" xlink:href="#DejaVuSans-50"/>
     <use x="475.048828" xlink:href="#DejaVuSans-50"/>
     <use x="535.351562" xlink:href="#DejaVuSans-4d"/>
    </g>
   </g>
   <g id="text_15">
    <!-- CMA ES CSA -->
    <g transform="translate(369.18424 165.887769)scale(0.17 -0.17)">
     <use xlink:href="#DejaVuSans-43"/>
     <use x="69.824219" xlink:href="#DejaVuSans-4d"/>
     <use x="156.103516" xlink:href="#DejaVuSans-41"/>
     <use x="224.511719" xlink:href="#DejaVuSans-20"/>
     <use x="256.298828" xlink:href="#DejaVuSans-45"/>
     <use x="319.482422" xlink:href="#DejaVuSans-53"/>
     <use x="382.958984" xlink:href="#DejaVuSans-20"/>
     <use x="414.746094" xlink:href="#DejaVuSans-43"/>
     <use x="484.570312" xlink:href="#DejaVuSans-53"/>
     <use x="548.0625" xlink:href="#DejaVuSans-41"/>
    </g>
   </g>
   <g id="text_16">
    <!-- CMAES posi -->
    <g transform="translate(369.18424 101.719848)scale(0.17 -0.17)">
     <use xlink:href="#DejaVuSans-43"/>
     <use x="69.824219" xlink:href="#DejaVuSans-4d"/>
     <use x="156.103516" xlink:href="#DejaVuSans-41"/>
     <use x="224.511719" xlink:href="#DejaVuSans-45"/>
     <use x="287.695312" xlink:href="#DejaVuSans-53"/>
     <use x="351.171875" xlink:href="#DejaVuSans-20"/>
     <use x="382.958984" xlink:href="#DejaVuSans-70"/>
     <use x="446.435547" xlink:href="#DejaVuSans-6f"/>
     <use x="507.617188" xlink:href="#DejaVuSans-73"/>
     <use x="559.716797" xlink:href="#DejaVuSans-69"/>
    </g>
   </g>
   <g id="text_17">
    <!-- best 2009 -->
    <defs>
     <path d="M 48.6875 27.296875 
Q 48.6875 37.203125 44.609375 42.84375 
Q 40.53125 48.484375 33.40625 48.484375 
Q 26.265625 48.484375 22.1875 42.84375 
Q 18.109375 37.203125 18.109375 27.296875 
Q 18.109375 17.390625 22.1875 11.75 
Q 26.265625 6.109375 33.40625 6.109375 
Q 40.53125 6.109375 44.609375 11.75 
Q 48.6875 17.390625 48.6875 27.296875 
z
M 18.109375 46.390625 
Q 20.953125 51.265625 25.265625 53.625 
Q 29.59375 56 35.59375 56 
Q 45.5625 56 51.78125 48.09375 
Q 58.015625 40.1875 58.015625 27.296875 
Q 58.015625 14.40625 51.78125 6.484375 
Q 45.5625 -1.421875 35.59375 -1.421875 
Q 29.59375 -1.421875 25.265625 0.953125 
Q 20.953125 3.328125 18.109375 8.203125 
L 18.109375 0 
L 9.078125 0 
L 9.078125 75.984375 
L 18.109375 75.984375 
z
" id="DejaVuSans-62"/>
     <path d="M 10.984375 1.515625 
L 10.984375 10.5 
Q 14.703125 8.734375 18.5 7.8125 
Q 22.3125 6.890625 25.984375 6.890625 
Q 35.75 6.890625 40.890625 13.453125 
Q 46.046875 20.015625 46.78125 33.40625 
Q 43.953125 29.203125 39.59375 26.953125 
Q 35.25 24.703125 29.984375 24.703125 
Q 19.046875 24.703125 12.671875 31.3125 
Q 6.296875 37.9375 6.296875 49.421875 
Q 6.296875 60.640625 12.9375 67.421875 
Q 19.578125 74.21875 30.609375 74.21875 
Q 43.265625 74.21875 49.921875 64.515625 
Q 56.59375 54.828125 56.59375 36.375 
Q 56.59375 19.140625 48.40625 8.859375 
Q 40.234375 -1.421875 26.421875 -1.421875 
Q 22.703125 -1.421875 18.890625 -0.6875 
Q 15.09375 0.046875 10.984375 1.515625 
z
M 30.609375 32.421875 
Q 37.25 32.421875 41.125 36.953125 
Q 45.015625 41.5 45.015625 49.421875 
Q 45.015625 57.28125 41.125 61.84375 
Q 37.25 66.40625 30.609375 66.40625 
Q 23.96875 66.40625 20.09375 61.84375 
Q 16.21875 57.28125 16.21875 49.421875 
Q 16.21875 41.5 20.09375 36.953125 
Q 23.96875 32.421875 30.609375 32.421875 
z
" id="DejaVuSans-39"/>
    </defs>
    <g transform="translate(369.18424 37.551928)scale(0.17 -0.17)">
     <use xlink:href="#DejaVuSans-62"/>
     <use x="63.476562" xlink:href="#DejaVuSans-65"/>
     <use x="125" xlink:href="#DejaVuSans-73"/>
     <use x="177.099609" xlink:href="#DejaVuSans-74"/>
     <use x="216.308594" xlink:href="#DejaVuSans-20"/>
     <use x="248.095703" xlink:href="#DejaVuSans-32"/>
     <use x="311.71875" xlink:href="#DejaVuSans-30"/>
     <use x="375.341797" xlink:href="#DejaVuSans-30"/>
     <use x="438.964844" xlink:href="#DejaVuSans-39"/>
    </g>
   </g>
   <g id="text_18">
    <!-- bbob f7, 3-D -->
    <defs>
     <path d="M 8.203125 72.90625 
L 55.078125 72.90625 
L 55.078125 68.703125 
L 28.609375 0 
L 18.3125 0 
L 43.21875 64.59375 
L 8.203125 64.59375 
z
" id="DejaVuSans-37"/>
     <path d="M 40.578125 39.3125 
Q 47.65625 37.796875 51.625 33 
Q 55.609375 28.21875 55.609375 21.1875 
Q 55.609375 10.40625 48.1875 4.484375 
Q 40.765625 -1.421875 27.09375 -1.421875 
Q 22.515625 -1.421875 17.65625 -0.515625 
Q 12.796875 0.390625 7.625 2.203125 
L 7.625 11.71875 
Q 11.71875 9.328125 16.59375 8.109375 
Q 21.484375 6.890625 26.8125 6.890625 
Q 36.078125 6.890625 40.9375 10.546875 
Q 45.796875 14.203125 45.796875 21.1875 
Q 45.796875 27.640625 41.28125 31.265625 
Q 36.765625 34.90625 28.71875 34.90625 
L 20.21875 34.90625 
L 20.21875 43.015625 
L 29.109375 43.015625 
Q 36.375 43.015625 40.234375 45.921875 
Q 44.09375 48.828125 44.09375 54.296875 
Q 44.09375 59.90625 40.109375 62.90625 
Q 36.140625 65.921875 28.71875 65.921875 
Q 24.65625 65.921875 20.015625 65.03125 
Q 15.375 64.15625 9.8125 62.3125 
L 9.8125 71.09375 
Q 15.4375 72.65625 20.34375 73.4375 
Q 25.25 74.21875 29.59375 74.21875 
Q 40.828125 74.21875 47.359375 69.109375 
Q 53.90625 64.015625 53.90625 55.328125 
Q 53.90625 49.265625 50.4375 45.09375 
Q 46.96875 40.921875 40.578125 39.3125 
z
" id="DejaVuSans-33"/>
     <path d="M 19.671875 64.796875 
L 19.671875 8.109375 
L 31.59375 8.109375 
Q 46.6875 8.109375 53.6875 14.9375 
Q 60.6875 21.78125 60.6875 36.53125 
Q 60.6875 51.171875 53.6875 57.984375 
Q 46.6875 64.796875 31.59375 64.796875 
z
M 9.8125 72.90625 
L 30.078125 72.90625 
Q 51.265625 72.90625 61.171875 64.09375 
Q 71.09375 55.28125 71.09375 36.53125 
Q 71.09375 17.671875 61.125 8.828125 
Q 51.171875 0 30.078125 0 
L 9.8125 0 
z
" id="DejaVuSans-44"/>
    </defs>
    <g transform="translate(58.89048 35.290806)scale(0.102 -0.102)">
     <use xlink:href="#DejaVuSans-62"/>
     <use x="63.476562" xlink:href="#DejaVuSans-62"/>
     <use x="126.953125" xlink:href="#DejaVuSans-6f"/>
     <use x="188.134766" xlink:href="#DejaVuSans-62"/>
     <use x="251.611328" xlink:href="#DejaVuSans-20"/>
     <use x="283.398438" xlink:href="#DejaVuSans-66"/>
     <use x="318.603516" xlink:href="#DejaVuSans-37"/>
     <use x="382.226562" xlink:href="#DejaVuSans-2c"/>
     <use x="414.013672" xlink:href="#DejaVuSans-20"/>
     <use x="445.800781" xlink:href="#DejaVuSans-33"/>
     <use x="509.423828" xlink:href="#DejaVuSans-2d"/>
     <use x="545.507812" xlink:href="#DejaVuSans-44"/>
    </g>
    <!-- 51 targets: 100..1e-08 -->
    <defs>
     <path d="M 10.796875 72.90625 
L 49.515625 72.90625 
L 49.515625 64.59375 
L 19.828125 64.59375 
L 19.828125 46.734375 
Q 21.96875 47.46875 24.109375 47.828125 
Q 26.265625 48.1875 28.421875 48.1875 
Q 40.625 48.1875 47.75 41.5 
Q 54.890625 34.8125 54.890625 23.390625 
Q 54.890625 11.625 47.5625 5.09375 
Q 40.234375 -1.421875 26.90625 -1.421875 
Q 22.3125 -1.421875 17.546875 -0.640625 
Q 12.796875 0.140625 7.71875 1.703125 
L 7.71875 11.625 
Q 12.109375 9.234375 16.796875 8.0625 
Q 21.484375 6.890625 26.703125 6.890625 
Q 35.15625 6.890625 40.078125 11.328125 
Q 45.015625 15.765625 45.015625 23.390625 
Q 45.015625 31 40.078125 35.4375 
Q 35.15625 39.890625 26.703125 39.890625 
Q 22.75 39.890625 18.8125 39.015625 
Q 14.890625 38.140625 10.796875 36.28125 
z
" id="DejaVuSans-35"/>
     <path d="M 11.71875 12.40625 
L 22.015625 12.40625 
L 22.015625 0 
L 11.71875 0 
z
M 11.71875 51.703125 
L 22.015625 51.703125 
L 22.015625 39.3125 
L 11.71875 39.3125 
z
" id="DejaVuSans-3a"/>
    </defs>
    <g transform="translate(58.89048 46.712575)scale(0.102 -0.102)">
     <use xlink:href="#DejaVuSans-35"/>
     <use x="63.623047" xlink:href="#DejaVuSans-31"/>
     <use x="127.246094" xlink:href="#DejaVuSans-20"/>
     <use x="159.033203" xlink:href="#DejaVuSans-74"/>
     <use x="198.242188" xlink:href="#DejaVuSans-61"/>
     <use x="259.521484" xlink:href="#DejaVuSans-72"/>
     <use x="300.619141" xlink:href="#DejaVuSans-67"/>
     <use x="364.095703" xlink:href="#DejaVuSans-65"/>
     <use x="425.619141" xlink:href="#DejaVuSans-74"/>
     <use x="464.828125" xlink:href="#DejaVuSans-73"/>
     <use x="516.927734" xlink:href="#DejaVuSans-3a"/>
     <use x="550.619141" xlink:href="#DejaVuSans-20"/>
     <use x="582.40625" xlink:href="#DejaVuSans-31"/>
     <use x="646.029297" xlink:href="#DejaVuSans-30"/>
     <use x="709.652344" xlink:href="#DejaVuSans-30"/>
     <use x="773.275391" xlink:href="#DejaVuSans-2e"/>
     <use x="805.0625" xlink:href="#DejaVuSans-2e"/>
     <use x="836.849609" xlink:href="#DejaVuSans-31"/>
     <use x="900.472656" xlink:href="#DejaVuSans-65"/>
     <use x="961.996094" xlink:href="#DejaVuSans-2d"/>
     <use x="998.080078" xlink:href="#DejaVuSans-30"/>
     <use x="1061.703125" xlink:href="#DejaVuSans-38"/>
    </g>
    <!-- 15 instances -->
    <g transform="translate(58.89048 58.134344)scale(0.102 -0.102)">
     <use xlink:href="#DejaVuSans-31"/>
     <use x="63.623047" xlink:href="#DejaVuSans-35"/>
     <use x="127.246094" xlink:href="#DejaVuSans-20"/>
     <use x="159.033203" xlink:href="#DejaVuSans-69"/>
     <use x="186.816406" xlink:href="#DejaVuSans-6e"/>
     <use x="250.195312" xlink:href="#DejaVuSans-73"/>
     <use x="302.294922" xlink:href="#DejaVuSans-74"/>
     <use x="341.503906" xlink:href="#DejaVuSans-61"/>
     <use x="402.783203" xlink:href="#DejaVuSans-6e"/>
     <use x="466.162109" xlink:href="#DejaVuSans-63"/>
     <use x="521.142578" xlink:href="#DejaVuSans-65"/>
     <use x="582.666016" xlink:href="#DejaVuSans-73"/>
    </g>
   </g>
   <g id="text_19">
    <!-- v0.0.0 -->
    <g style="fill:#808080;" transform="translate(178.96275 290.099912)scale(0.1 -0.1)">
     <use xlink:href="#DejaVuSans-76"/>
     <use x="59.179688" xlink:href="#DejaVuSans-30"/>
     <use x="122.802734" xlink:href="#DejaVuSans-2e"/>
     <use x="154.589844" xlink:href="#DejaVuSans-30"/>
     <use x="218.212891" xlink:href="#DejaVuSans-2e"/>
     <use x="250" xlink:href="#DejaVuSans-30"/>
    </g>
   </g>
   <g id="text_20">
    <!-- 7 Step-ellipsoid -->
    <g transform="translate(117.434625 18.84)scale(0.2 -0.2)">
     <use xlink:href="#DejaVuSans-37"/>
     <use x="63.623047" xlink:href="#DejaVuSans-20"/>
     <use x="95.410156" xlink:href="#DejaVuSans-53"/>
     <use x="158.886719" xlink:href="#DejaVuSans-74"/>
     <use x="198.095703" xlink:href="#DejaVuSans-65"/>
     <use x="259.619141" xlink:href="#DejaVuSans-70"/>
     <use x="323.095703" xlink:href="#DejaVuSans-2d"/>
     <use x="359.179688" xlink:href="#DejaVuSans-65"/>
     <use x="420.703125" xlink:href="#DejaVuSans-6c"/>
     <use x="448.486328" xlink:href="#DejaVuSans-6c"/>
     <use x="476.269531" xlink:href="#DejaVuSans-69"/>
     <use x="504.052734" xlink:href="#DejaVuSans-70"/>
     <use x="567.529297" xlink:href="#DejaVuSans-73"/>
     <use x="619.628906" xlink:href="#DejaVuSans-6f"/>
     <use x="680.810547" xlink:href="#DejaVuSans-69"/>
     <use x="708.59375" xlink:href="#DejaVuSans-64"/>
    </g>
   </g>
  </g>
 </g>
 <defs>
  <clipPath id="p4047da6450">
   <rect height="270.04" width="277.048" x="56.12" y="24.84"/>
  </clipPath>
 </defs>
</svg>
