<?xml version="1.0" encoding="utf-8" standalone="no"?>
<!DOCTYPE svg PUBLIC "-//W3C//DTD SVG 1.1//EN"
  "http://www.w3.org/Graphics/SVG/1.1/DTD/svg11.dtd">
<!-- Created with matplotlib (http://matplotlib.org/) -->
<svg height="345pt" version="1.1" viewBox="0 0 460 345" width="460pt" xmlns="http://www.w3.org/2000/svg" xmlns:xlink="http://www.w3.org/1999/xlink">
 <defs>
  <style type="text/css">
*{stroke-linecap:butt;stroke-linejoin:round;}
  </style>
 </defs>
 <g id="figure_1">
  <g id="patch_1">
   <path d="M 0 345.6 
L 460.8 345.6 
L 460.8 0 
L 0 0 
z
" style="fill:#ffffff;"/>
  </g>
  <g id="axes_1">
   <g id="patch_2">
    <path d="M 56.12 294.88 
L 333.168 294.88 
L 333.168 24.84 
L 56.12 24.84 
z
" style="fill:#ffffff;"/>
   </g>
   <g id="line2d_1">
    <path d="M 44.205749 294.88 
L 44.205749 289.637523 
L 56.12 289.637523 
L 56.12 284.395046 
L 71.869783 284.395046 
L 71.869783 279.152568 
L 79.948502 279.152568 
L 79.948502 273.910091 
L 95.698286 273.910091 
L 95.698286 268.667614 
L 97.336537 268.667614 
L 97.336537 258.18266 
L 100.207968 258.18266 
L 100.207968 252.940182 
L 126.496178 252.940182 
L 126.496178 247.697705 
L 142.809574 247.697705 
L 142.809574 242.455228 
L 144.598384 242.455228 
L 144.598384 237.212751 
L 149.100377 237.212751 
L 149.100377 231.970274 
L 149.291576 231.970274 
L 149.291576 216.242842 
L 149.555732 216.242842 
L 149.555732 211.000365 
L 149.741959 211.000365 
L 149.741959 205.757888 
L 150.324681 205.757888 
L 150.324681 195.272933 
L 150.360453 195.272933 
L 150.360453 190.030456 
L 150.888293 190.030456 
L 150.888293 179.545502 
L 150.922912 179.545502 
L 150.922912 174.303025 
L 151.060698 174.303025 
L 151.060698 169.060547 
L 151.299196 169.060547 
L 151.299196 163.81807 
L 151.799385 163.81807 
L 151.799385 158.575593 
L 152.253451 158.575593 
L 152.253451 153.333116 
L 152.28543 153.333116 
L 152.28543 137.605684 
L 152.317349 137.605684 
L 152.317349 132.363207 
L 152.34921 132.363207 
L 152.34921 127.12073 
L 152.444438 127.12073 
L 152.444438 111.393298 
L 152.476064 111.393298 
L 152.476064 100.908344 
L 152.726997 100.908344 
L 152.726997 85.180912 
L 152.943598 85.180912 
L 152.943598 79.938435 
L 153.066156 79.938435 
L 153.066156 69.453481 
L 153.096659 69.453481 
L 153.096659 58.968526 
L 153.157504 58.968526 
L 153.157504 53.726049 
L 153.187846 53.726049 
L 153.187846 48.483572 
L 153.218134 48.483572 
L 153.218134 32.756141 
L 153.248369 32.756141 
L 153.248369 27.513663 
L 333.168 27.513663 
" style="fill:none;stroke:#f5deb3;stroke-linecap:square;stroke-width:4;"/>
   </g>
   <g id="line2d_2">
    <defs>
     <path d="M -0 7.778175 
L 7.778175 0 
L 0 -7.778175 
L -7.778175 -0 
z
" id="m442b254a34" style="stroke:#f5deb3;stroke-linejoin:miter;stroke-width:1.5;"/>
    </defs>
    <g>
     <use style="fill:#f5deb3;stroke:#f5deb3;stroke-linejoin:miter;stroke-width:1.5;" x="79.948502" xlink:href="#m442b254a34" y="273.910091"/>
     <use style="fill:#f5deb3;stroke:#f5deb3;stroke-linejoin:miter;stroke-width:1.5;" x="150.888293" xlink:href="#m442b254a34" y="190.030456"/>
     <use style="fill:#f5deb3;stroke:#f5deb3;stroke-linejoin:miter;stroke-width:1.5;" x="153.187846" xlink:href="#m442b254a34" y="53.726049"/>
     <use style="fill:#f5deb3;stroke:#f5deb3;stroke-linejoin:miter;stroke-width:1.5;" x="153.248369" xlink:href="#m442b254a34" y="27.513663"/>
     <use style="fill:#f5deb3;stroke:#f5deb3;stroke-linejoin:miter;stroke-width:1.5;" x="153.248369" xlink:href="#m442b254a34" y="27.513663"/>
     <use style="fill:#f5deb3;stroke:#f5deb3;stroke-linejoin:miter;stroke-width:1.5;" x="333.168" xlink:href="#m442b254a34" y="27.513663"/>
    </g>
   </g>
   <g id="line2d_3">
    <path style="fill:none;stroke:#f5deb3;stroke-linecap:square;stroke-width:4;"/>
    <g/>
   </g>
   <g id="line2d_4">
    <path d="M 333.168 27.513663 
L 363.64328 32.86099 
" style="fill:none;stroke:#f5deb3;stroke-linecap:square;stroke-width:4;"/>
    <g>
     <use style="fill:#f5deb3;stroke:#f5deb3;stroke-linejoin:miter;stroke-width:1.5;" x="333.168" xlink:href="#m442b254a34" y="27.513663"/>
     <use style="fill:#f5deb3;stroke:#f5deb3;stroke-linejoin:miter;stroke-width:1.5;" x="363.64328" xlink:href="#m442b254a34" y="32.86099"/>
    </g>
   </g>
   <g id="matplotlib.axis_1">
    <g id="xtick_1">
     <g id="line2d_5">
      <path clip-path="url(#pbcab8d2f29)" d="M 56.12 294.88 
L 56.12 24.84 
" style="fill:none;stroke:#b0b0b0;stroke-linecap:square;stroke-width:0.8;"/>
     </g>
     <g id="line2d_6">
      <defs>
       <path d="M 0 0 
L 0 3.5 
" id="m55c7b9befd" style="stroke:#000000;stroke-width:0.8;"/>
      </defs>
      <g>
       <use style="stroke:#000000;stroke-width:0.8;" x="56.12" xlink:href="#m55c7b9befd" y="294.88"/>
      </g>
     </g>
     <g id="text_1">
      <!-- 0 -->
      <defs>
       <path d="M 31.78125 66.40625 
Q 24.171875 66.40625 20.328125 58.90625 
Q 16.5 51.421875 16.5 36.375 
Q 16.5 21.390625 20.328125 13.890625 
Q 24.171875 6.390625 31.78125 6.390625 
Q 39.453125 6.390625 43.28125 13.890625 
Q 47.125 21.390625 47.125 36.375 
Q 47.125 51.421875 43.28125 58.90625 
Q 39.453125 66.40625 31.78125 66.40625 
z
M 31.78125 74.21875 
Q 44.046875 74.21875 50.515625 64.515625 
Q 56.984375 54.828125 56.984375 36.375 
Q 56.984375 17.96875 50.515625 8.265625 
Q 44.046875 -1.421875 31.78125 -1.421875 
Q 19.53125 -1.421875 13.0625 8.265625 
Q 6.59375 17.96875 6.59375 36.375 
Q 6.59375 54.828125 13.0625 64.515625 
Q 19.53125 74.21875 31.78125 74.21875 
z
" id="DejaVuSans-30"/>
      </defs>
      <g transform="translate(49.7575 317.076875)scale(0.2 -0.2)">
       <use xlink:href="#DejaVuSans-30"/>
      </g>
     </g>
    </g>
    <g id="xtick_2">
     <g id="line2d_7">
      <path clip-path="url(#pbcab8d2f29)" d="M 135.276571 294.88 
L 135.276571 24.84 
" style="fill:none;stroke:#b0b0b0;stroke-linecap:square;stroke-width:0.8;"/>
     </g>
     <g id="line2d_8">
      <g>
       <use style="stroke:#000000;stroke-width:0.8;" x="135.276571" xlink:href="#m55c7b9befd" y="294.88"/>
      </g>
     </g>
     <g id="text_2">
      <!-- 2 -->
      <defs>
       <path d="M 19.1875 8.296875 
L 53.609375 8.296875 
L 53.609375 0 
L 7.328125 0 
L 7.328125 8.296875 
Q 12.9375 14.109375 22.625 23.890625 
Q 32.328125 33.6875 34.8125 36.53125 
Q 39.546875 41.84375 41.421875 45.53125 
Q 43.3125 49.21875 43.3125 52.78125 
Q 43.3125 58.59375 39.234375 62.25 
Q 35.15625 65.921875 28.609375 65.921875 
Q 23.96875 65.921875 18.8125 64.3125 
Q 13.671875 62.703125 7.8125 59.421875 
L 7.8125 69.390625 
Q 13.765625 71.78125 18.9375 73 
Q 24.125 74.21875 28.421875 74.21875 
Q 39.75 74.21875 46.484375 68.546875 
Q 53.21875 62.890625 53.21875 53.421875 
Q 53.21875 48.921875 51.53125 44.890625 
Q 49.859375 40.875 45.40625 35.40625 
Q 44.1875 33.984375 37.640625 27.21875 
Q 31.109375 20.453125 19.1875 8.296875 
z
" id="DejaVuSans-32"/>
      </defs>
      <g transform="translate(128.914071 317.076875)scale(0.2 -0.2)">
       <use xlink:href="#DejaVuSans-32"/>
      </g>
     </g>
    </g>
    <g id="xtick_3">
     <g id="line2d_9">
      <path clip-path="url(#pbcab8d2f29)" d="M 214.433143 294.88 
L 214.433143 24.84 
" style="fill:none;stroke:#b0b0b0;stroke-linecap:square;stroke-width:0.8;"/>
     </g>
     <g id="line2d_10">
      <g>
       <use style="stroke:#000000;stroke-width:0.8;" x="214.433143" xlink:href="#m55c7b9befd" y="294.88"/>
      </g>
     </g>
     <g id="text_3">
      <!-- 4 -->
      <defs>
       <path d="M 37.796875 64.3125 
L 12.890625 25.390625 
L 37.796875 25.390625 
z
M 35.203125 72.90625 
L 47.609375 72.90625 
L 47.609375 25.390625 
L 58.015625 25.390625 
L 58.015625 17.1875 
L 47.609375 17.1875 
L 47.609375 0 
L 37.796875 0 
L 37.796875 17.1875 
L 4.890625 17.1875 
L 4.890625 26.703125 
z
" id="DejaVuSans-34"/>
      </defs>
      <g transform="translate(208.070643 317.076875)scale(0.2 -0.2)">
       <use xlink:href="#DejaVuSans-34"/>
      </g>
     </g>
    </g>
    <g id="xtick_4">
     <g id="line2d_11">
      <path clip-path="url(#pbcab8d2f29)" d="M 293.589714 294.88 
L 293.589714 24.84 
" style="fill:none;stroke:#b0b0b0;stroke-linecap:square;stroke-width:0.8;"/>
     </g>
     <g id="line2d_12">
      <g>
       <use style="stroke:#000000;stroke-width:0.8;" x="293.589714" xlink:href="#m55c7b9befd" y="294.88"/>
      </g>
     </g>
     <g id="text_4">
      <!-- 6 -->
      <defs>
       <path d="M 33.015625 40.375 
Q 26.375 40.375 22.484375 35.828125 
Q 18.609375 31.296875 18.609375 23.390625 
Q 18.609375 15.53125 22.484375 10.953125 
Q 26.375 6.390625 33.015625 6.390625 
Q 39.65625 6.390625 43.53125 10.953125 
Q 47.40625 15.53125 47.40625 23.390625 
Q 47.40625 31.296875 43.53125 35.828125 
Q 39.65625 40.375 33.015625 40.375 
z
M 52.59375 71.296875 
L 52.59375 62.3125 
Q 48.875 64.0625 45.09375 64.984375 
Q 41.3125 65.921875 37.59375 65.921875 
Q 27.828125 65.921875 22.671875 59.328125 
Q 17.53125 52.734375 16.796875 39.40625 
Q 19.671875 43.65625 24.015625 45.921875 
Q 28.375 48.1875 33.59375 48.1875 
Q 44.578125 48.1875 50.953125 41.515625 
Q 57.328125 34.859375 57.328125 23.390625 
Q 57.328125 12.15625 50.6875 5.359375 
Q 44.046875 -1.421875 33.015625 -1.421875 
Q 20.359375 -1.421875 13.671875 8.265625 
Q 6.984375 17.96875 6.984375 36.375 
Q 6.984375 53.65625 15.1875 63.9375 
Q 23.390625 74.21875 37.203125 74.21875 
Q 40.921875 74.21875 44.703125 73.484375 
Q 48.484375 72.75 52.59375 71.296875 
z
" id="DejaVuSans-36"/>
      </defs>
      <g transform="translate(287.227214 317.076875)scale(0.2 -0.2)">
       <use xlink:href="#DejaVuSans-36"/>
      </g>
     </g>
    </g>
    <g id="xtick_5">
     <g id="line2d_13">
      <path clip-path="url(#pbcab8d2f29)" d="M 56.12 294.88 
L 56.12 24.84 
" style="fill:none;stroke:#b0b0b0;stroke-linecap:square;stroke-width:0.8;"/>
     </g>
     <g id="line2d_14">
      <defs>
       <path d="M 0 0 
L 0 2 
" id="mf299c1f25f" style="stroke:#000000;stroke-width:0.6;"/>
      </defs>
      <g>
       <use style="stroke:#000000;stroke-width:0.6;" x="56.12" xlink:href="#mf299c1f25f" y="294.88"/>
      </g>
     </g>
    </g>
    <g id="xtick_6">
     <g id="line2d_15">
      <path clip-path="url(#pbcab8d2f29)" d="M 95.698286 294.88 
L 95.698286 24.84 
" style="fill:none;stroke:#b0b0b0;stroke-linecap:square;stroke-width:0.8;"/>
     </g>
     <g id="line2d_16">
      <g>
       <use style="stroke:#000000;stroke-width:0.6;" x="95.698286" xlink:href="#mf299c1f25f" y="294.88"/>
      </g>
     </g>
    </g>
    <g id="xtick_7">
     <g id="line2d_17">
      <path clip-path="url(#pbcab8d2f29)" d="M 135.276571 294.88 
L 135.276571 24.84 
" style="fill:none;stroke:#b0b0b0;stroke-linecap:square;stroke-width:0.8;"/>
     </g>
     <g id="line2d_18">
      <g>
       <use style="stroke:#000000;stroke-width:0.6;" x="135.276571" xlink:href="#mf299c1f25f" y="294.88"/>
      </g>
     </g>
    </g>
    <g id="xtick_8">
     <g id="line2d_19">
      <path clip-path="url(#pbcab8d2f29)" d="M 174.854857 294.88 
L 174.854857 24.84 
" style="fill:none;stroke:#b0b0b0;stroke-linecap:square;stroke-width:0.8;"/>
     </g>
     <g id="line2d_20">
      <g>
       <use style="stroke:#000000;stroke-width:0.6;" x="174.854857" xlink:href="#mf299c1f25f" y="294.88"/>
      </g>
     </g>
    </g>
    <g id="xtick_9">
     <g id="line2d_21">
      <path clip-path="url(#pbcab8d2f29)" d="M 214.433143 294.88 
L 214.433143 24.84 
" style="fill:none;stroke:#b0b0b0;stroke-linecap:square;stroke-width:0.8;"/>
     </g>
     <g id="line2d_22">
      <g>
       <use style="stroke:#000000;stroke-width:0.6;" x="214.433143" xlink:href="#mf299c1f25f" y="294.88"/>
      </g>
     </g>
    </g>
    <g id="xtick_10">
     <g id="line2d_23">
      <path clip-path="url(#pbcab8d2f29)" d="M 254.011429 294.88 
L 254.011429 24.84 
" style="fill:none;stroke:#b0b0b0;stroke-linecap:square;stroke-width:0.8;"/>
     </g>
     <g id="line2d_24">
      <g>
       <use style="stroke:#000000;stroke-width:0.6;" x="254.011429" xlink:href="#mf299c1f25f" y="294.88"/>
      </g>
     </g>
    </g>
    <g id="xtick_11">
     <g id="line2d_25">
      <path clip-path="url(#pbcab8d2f29)" d="M 293.589714 294.88 
L 293.589714 24.84 
" style="fill:none;stroke:#b0b0b0;stroke-linecap:square;stroke-width:0.8;"/>
     </g>
     <g id="line2d_26">
      <g>
       <use style="stroke:#000000;stroke-width:0.6;" x="293.589714" xlink:href="#mf299c1f25f" y="294.88"/>
      </g>
     </g>
    </g>
    <g id="xtick_12">
     <g id="line2d_27">
      <path clip-path="url(#pbcab8d2f29)" d="M 333.168 294.88 
L 333.168 24.84 
" style="fill:none;stroke:#b0b0b0;stroke-linecap:square;stroke-width:0.8;"/>
     </g>
     <g id="line2d_28">
      <g>
       <use style="stroke:#000000;stroke-width:0.6;" x="333.168" xlink:href="#mf299c1f25f" y="294.88"/>
      </g>
     </g>
    </g>
    <g id="text_5">
     <!-- log10(# f-evals / dimension) -->
     <defs>
      <path d="M 9.421875 75.984375 
L 18.40625 75.984375 
L 18.40625 0 
L 9.421875 0 
z
" id="DejaVuSans-6c"/>
      <path d="M 30.609375 48.390625 
Q 23.390625 48.390625 19.1875 42.75 
Q 14.984375 37.109375 14.984375 27.296875 
Q 14.984375 17.484375 19.15625 11.84375 
Q 23.34375 6.203125 30.609375 6.203125 
Q 37.796875 6.203125 41.984375 11.859375 
Q 46.1875 17.53125 46.1875 27.296875 
Q 46.1875 37.015625 41.984375 42.703125 
Q 37.796875 48.390625 30.609375 48.390625 
z
M 30.609375 56 
Q 42.328125 56 49.015625 48.375 
Q 55.71875 40.765625 55.71875 27.296875 
Q 55.71875 13.875 49.015625 6.21875 
Q 42.328125 -1.421875 30.609375 -1.421875 
Q 18.84375 -1.421875 12.171875 6.21875 
Q 5.515625 13.875 5.515625 27.296875 
Q 5.515625 40.765625 12.171875 48.375 
Q 18.84375 56 30.609375 56 
z
" id="DejaVuSans-6f"/>
      <path d="M 45.40625 27.984375 
Q 45.40625 37.75 41.375 43.109375 
Q 37.359375 48.484375 30.078125 48.484375 
Q 22.859375 48.484375 18.828125 43.109375 
Q 14.796875 37.75 14.796875 27.984375 
Q 14.796875 18.265625 18.828125 12.890625 
Q 22.859375 7.515625 30.078125 7.515625 
Q 37.359375 7.515625 41.375 12.890625 
Q 45.40625 18.265625 45.40625 27.984375 
z
M 54.390625 6.78125 
Q 54.390625 -7.171875 48.1875 -13.984375 
Q 42 -20.796875 29.203125 -20.796875 
Q 24.46875 -20.796875 20.265625 -20.09375 
Q 16.0625 -19.390625 12.109375 -17.921875 
L 12.109375 -9.1875 
Q 16.0625 -11.328125 19.921875 -12.34375 
Q 23.78125 -13.375 27.78125 -13.375 
Q 36.625 -13.375 41.015625 -8.765625 
Q 45.40625 -4.15625 45.40625 5.171875 
L 45.40625 9.625 
Q 42.625 4.78125 38.28125 2.390625 
Q 33.9375 0 27.875 0 
Q 17.828125 0 11.671875 7.65625 
Q 5.515625 15.328125 5.515625 27.984375 
Q 5.515625 40.671875 11.671875 48.328125 
Q 17.828125 56 27.875 56 
Q 33.9375 56 38.28125 53.609375 
Q 42.625 51.21875 45.40625 46.390625 
L 45.40625 54.6875 
L 54.390625 54.6875 
z
" id="DejaVuSans-67"/>
      <path d="M 12.40625 8.296875 
L 28.515625 8.296875 
L 28.515625 63.921875 
L 10.984375 60.40625 
L 10.984375 69.390625 
L 28.421875 72.90625 
L 38.28125 72.90625 
L 38.28125 8.296875 
L 54.390625 8.296875 
L 54.390625 0 
L 12.40625 0 
z
" id="DejaVuSans-31"/>
      <path d="M 31 75.875 
Q 24.46875 64.65625 21.28125 53.65625 
Q 18.109375 42.671875 18.109375 31.390625 
Q 18.109375 20.125 21.3125 9.0625 
Q 24.515625 -2 31 -13.1875 
L 23.1875 -13.1875 
Q 15.875 -1.703125 12.234375 9.375 
Q 8.59375 20.453125 8.59375 31.390625 
Q 8.59375 42.28125 12.203125 53.3125 
Q 15.828125 64.359375 23.1875 75.875 
z
" id="DejaVuSans-28"/>
      <path d="M 51.125 44 
L 36.921875 44 
L 32.8125 27.6875 
L 47.125 27.6875 
z
M 43.796875 71.78125 
L 38.71875 51.515625 
L 52.984375 51.515625 
L 58.109375 71.78125 
L 65.921875 71.78125 
L 60.890625 51.515625 
L 76.125 51.515625 
L 76.125 44 
L 58.984375 44 
L 54.984375 27.6875 
L 70.515625 27.6875 
L 70.515625 20.21875 
L 53.078125 20.21875 
L 48 0 
L 40.1875 0 
L 45.21875 20.21875 
L 30.90625 20.21875 
L 25.875 0 
L 18.015625 0 
L 23.09375 20.21875 
L 7.71875 20.21875 
L 7.71875 27.6875 
L 24.90625 27.6875 
L 29 44 
L 13.28125 44 
L 13.28125 51.515625 
L 30.90625 51.515625 
L 35.890625 71.78125 
z
" id="DejaVuSans-23"/>
      <path id="DejaVuSans-20"/>
      <path d="M 37.109375 75.984375 
L 37.109375 68.5 
L 28.515625 68.5 
Q 23.6875 68.5 21.796875 66.546875 
Q 19.921875 64.59375 19.921875 59.515625 
L 19.921875 54.6875 
L 34.71875 54.6875 
L 34.71875 47.703125 
L 19.921875 47.703125 
L 19.921875 0 
L 10.890625 0 
L 10.890625 47.703125 
L 2.296875 47.703125 
L 2.296875 54.6875 
L 10.890625 54.6875 
L 10.890625 58.5 
Q 10.890625 67.625 15.140625 71.796875 
Q 19.390625 75.984375 28.609375 75.984375 
z
" id="DejaVuSans-66"/>
      <path d="M 4.890625 31.390625 
L 31.203125 31.390625 
L 31.203125 23.390625 
L 4.890625 23.390625 
z
" id="DejaVuSans-2d"/>
      <path d="M 56.203125 29.59375 
L 56.203125 25.203125 
L 14.890625 25.203125 
Q 15.484375 15.921875 20.484375 11.0625 
Q 25.484375 6.203125 34.421875 6.203125 
Q 39.59375 6.203125 44.453125 7.46875 
Q 49.3125 8.734375 54.109375 11.28125 
L 54.109375 2.78125 
Q 49.265625 0.734375 44.1875 -0.34375 
Q 39.109375 -1.421875 33.890625 -1.421875 
Q 20.796875 -1.421875 13.15625 6.1875 
Q 5.515625 13.8125 5.515625 26.8125 
Q 5.515625 40.234375 12.765625 48.109375 
Q 20.015625 56 32.328125 56 
Q 43.359375 56 49.78125 48.890625 
Q 56.203125 41.796875 56.203125 29.59375 
z
M 47.21875 32.234375 
Q 47.125 39.59375 43.09375 43.984375 
Q 39.0625 48.390625 32.421875 48.390625 
Q 24.90625 48.390625 20.390625 44.140625 
Q 15.875 39.890625 15.1875 32.171875 
z
" id="DejaVuSans-65"/>
      <path d="M 2.984375 54.6875 
L 12.5 54.6875 
L 29.59375 8.796875 
L 46.6875 54.6875 
L 56.203125 54.6875 
L 35.6875 0 
L 23.484375 0 
z
" id="DejaVuSans-76"/>
      <path d="M 34.28125 27.484375 
Q 23.390625 27.484375 19.1875 25 
Q 14.984375 22.515625 14.984375 16.5 
Q 14.984375 11.71875 18.140625 8.90625 
Q 21.296875 6.109375 26.703125 6.109375 
Q 34.1875 6.109375 38.703125 11.40625 
Q 43.21875 16.703125 43.21875 25.484375 
L 43.21875 27.484375 
z
M 52.203125 31.203125 
L 52.203125 0 
L 43.21875 0 
L 43.21875 8.296875 
Q 40.140625 3.328125 35.546875 0.953125 
Q 30.953125 -1.421875 24.3125 -1.421875 
Q 15.921875 -1.421875 10.953125 3.296875 
Q 6 8.015625 6 15.921875 
Q 6 25.140625 12.171875 29.828125 
Q 18.359375 34.515625 30.609375 34.515625 
L 43.21875 34.515625 
L 43.21875 35.40625 
Q 43.21875 41.609375 39.140625 45 
Q 35.0625 48.390625 27.6875 48.390625 
Q 23 48.390625 18.546875 47.265625 
Q 14.109375 46.140625 10.015625 43.890625 
L 10.015625 52.203125 
Q 14.9375 54.109375 19.578125 55.046875 
Q 24.21875 56 28.609375 56 
Q 40.484375 56 46.34375 49.84375 
Q 52.203125 43.703125 52.203125 31.203125 
z
" id="DejaVuSans-61"/>
      <path d="M 44.28125 53.078125 
L 44.28125 44.578125 
Q 40.484375 46.53125 36.375 47.5 
Q 32.28125 48.484375 27.875 48.484375 
Q 21.1875 48.484375 17.84375 46.4375 
Q 14.5 44.390625 14.5 40.28125 
Q 14.5 37.15625 16.890625 35.375 
Q 19.28125 33.59375 26.515625 31.984375 
L 29.59375 31.296875 
Q 39.15625 29.25 43.1875 25.515625 
Q 47.21875 21.78125 47.21875 15.09375 
Q 47.21875 7.46875 41.1875 3.015625 
Q 35.15625 -1.421875 24.609375 -1.421875 
Q 20.21875 -1.421875 15.453125 -0.5625 
Q 10.6875 0.296875 5.421875 2 
L 5.421875 11.28125 
Q 10.40625 8.6875 15.234375 7.390625 
Q 20.0625 6.109375 24.8125 6.109375 
Q 31.15625 6.109375 34.5625 8.28125 
Q 37.984375 10.453125 37.984375 14.40625 
Q 37.984375 18.0625 35.515625 20.015625 
Q 33.0625 21.96875 24.703125 23.78125 
L 21.578125 24.515625 
Q 13.234375 26.265625 9.515625 29.90625 
Q 5.8125 33.546875 5.8125 39.890625 
Q 5.8125 47.609375 11.28125 51.796875 
Q 16.75 56 26.8125 56 
Q 31.78125 56 36.171875 55.265625 
Q 40.578125 54.546875 44.28125 53.078125 
z
" id="DejaVuSans-73"/>
      <path d="M 25.390625 72.90625 
L 33.6875 72.90625 
L 8.296875 -9.28125 
L 0 -9.28125 
z
" id="DejaVuSans-2f"/>
      <path d="M 45.40625 46.390625 
L 45.40625 75.984375 
L 54.390625 75.984375 
L 54.390625 0 
L 45.40625 0 
L 45.40625 8.203125 
Q 42.578125 3.328125 38.25 0.953125 
Q 33.9375 -1.421875 27.875 -1.421875 
Q 17.96875 -1.421875 11.734375 6.484375 
Q 5.515625 14.40625 5.515625 27.296875 
Q 5.515625 40.1875 11.734375 48.09375 
Q 17.96875 56 27.875 56 
Q 33.9375 56 38.25 53.625 
Q 42.578125 51.265625 45.40625 46.390625 
z
M 14.796875 27.296875 
Q 14.796875 17.390625 18.875 11.75 
Q 22.953125 6.109375 30.078125 6.109375 
Q 37.203125 6.109375 41.296875 11.75 
Q 45.40625 17.390625 45.40625 27.296875 
Q 45.40625 37.203125 41.296875 42.84375 
Q 37.203125 48.484375 30.078125 48.484375 
Q 22.953125 48.484375 18.875 42.84375 
Q 14.796875 37.203125 14.796875 27.296875 
z
" id="DejaVuSans-64"/>
      <path d="M 9.421875 54.6875 
L 18.40625 54.6875 
L 18.40625 0 
L 9.421875 0 
z
M 9.421875 75.984375 
L 18.40625 75.984375 
L 18.40625 64.59375 
L 9.421875 64.59375 
z
" id="DejaVuSans-69"/>
      <path d="M 52 44.1875 
Q 55.375 50.25 60.0625 53.125 
Q 64.75 56 71.09375 56 
Q 79.640625 56 84.28125 50.015625 
Q 88.921875 44.046875 88.921875 33.015625 
L 88.921875 0 
L 79.890625 0 
L 79.890625 32.71875 
Q 79.890625 40.578125 77.09375 44.375 
Q 74.3125 48.1875 68.609375 48.1875 
Q 61.625 48.1875 57.5625 43.546875 
Q 53.515625 38.921875 53.515625 30.90625 
L 53.515625 0 
L 44.484375 0 
L 44.484375 32.71875 
Q 44.484375 40.625 41.703125 44.40625 
Q 38.921875 48.1875 33.109375 48.1875 
Q 26.21875 48.1875 22.15625 43.53125 
Q 18.109375 38.875 18.109375 30.90625 
L 18.109375 0 
L 9.078125 0 
L 9.078125 54.6875 
L 18.109375 54.6875 
L 18.109375 46.1875 
Q 21.1875 51.21875 25.484375 53.609375 
Q 29.78125 56 35.6875 56 
Q 41.65625 56 45.828125 52.96875 
Q 50 49.953125 52 44.1875 
z
" id="DejaVuSans-6d"/>
      <path d="M 54.890625 33.015625 
L 54.890625 0 
L 45.90625 0 
L 45.90625 32.71875 
Q 45.90625 40.484375 42.875 44.328125 
Q 39.84375 48.1875 33.796875 48.1875 
Q 26.515625 48.1875 22.3125 43.546875 
Q 18.109375 38.921875 18.109375 30.90625 
L 18.109375 0 
L 9.078125 0 
L 9.078125 54.6875 
L 18.109375 54.6875 
L 18.109375 46.1875 
Q 21.34375 51.125 25.703125 53.5625 
Q 30.078125 56 35.796875 56 
Q 45.21875 56 50.046875 50.171875 
Q 54.890625 44.34375 54.890625 33.015625 
z
" id="DejaVuSans-6e"/>
      <path d="M 8.015625 75.875 
L 15.828125 75.875 
Q 23.140625 64.359375 26.78125 53.3125 
Q 30.421875 42.28125 30.421875 31.390625 
Q 30.421875 20.453125 26.78125 9.375 
Q 23.140625 -1.703125 15.828125 -13.1875 
L 8.015625 -13.1875 
Q 14.5 -2 17.703125 9.0625 
Q 20.90625 20.125 20.90625 31.390625 
Q 20.90625 42.671875 17.703125 53.65625 
Q 14.5 64.65625 8.015625 75.875 
z
" id="DejaVuSans-29"/>
     </defs>
     <g transform="translate(73.803219 338.153594)scale(0.17 -0.17)">
      <use xlink:href="#DejaVuSans-6c"/>
      <use x="27.783203" xlink:href="#DejaVuSans-6f"/>
      <use x="88.964844" xlink:href="#DejaVuSans-67"/>
      <use x="152.441406" xlink:href="#DejaVuSans-31"/>
      <use x="216.064453" xlink:href="#DejaVuSans-30"/>
      <use x="279.6875" xlink:href="#DejaVuSans-28"/>
      <use x="318.701172" xlink:href="#DejaVuSans-23"/>
      <use x="402.490234" xlink:href="#DejaVuSans-20"/>
      <use x="434.277344" xlink:href="#DejaVuSans-66"/>
      <use x="469.404297" xlink:href="#DejaVuSans-2d"/>
      <use x="505.488281" xlink:href="#DejaVuSans-65"/>
      <use x="567.011719" xlink:href="#DejaVuSans-76"/>
      <use x="626.191406" xlink:href="#DejaVuSans-61"/>
      <use x="687.470703" xlink:href="#DejaVuSans-6c"/>
      <use x="715.253906" xlink:href="#DejaVuSans-73"/>
      <use x="767.353516" xlink:href="#DejaVuSans-20"/>
      <use x="799.140625" xlink:href="#DejaVuSans-2f"/>
      <use x="832.832031" xlink:href="#DejaVuSans-20"/>
      <use x="864.619141" xlink:href="#DejaVuSans-64"/>
      <use x="928.095703" xlink:href="#DejaVuSans-69"/>
      <use x="955.878906" xlink:href="#DejaVuSans-6d"/>
      <use x="1053.291016" xlink:href="#DejaVuSans-65"/>
      <use x="1114.814453" xlink:href="#DejaVuSans-6e"/>
      <use x="1178.193359" xlink:href="#DejaVuSans-73"/>
      <use x="1230.292969" xlink:href="#DejaVuSans-69"/>
      <use x="1258.076172" xlink:href="#DejaVuSans-6f"/>
      <use x="1319.257812" xlink:href="#DejaVuSans-6e"/>
      <use x="1382.636719" xlink:href="#DejaVuSans-29"/>
     </g>
    </g>
   </g>
   <g id="matplotlib.axis_2">
    <g id="ytick_1">
     <g id="line2d_29">
      <path clip-path="url(#pbcab8d2f29)" d="M 56.12 294.88 
L 333.168 294.88 
" style="fill:none;stroke:#b0b0b0;stroke-linecap:square;stroke-width:0.8;"/>
     </g>
     <g id="line2d_30">
      <defs>
       <path d="M 0 0 
L -3.5 0 
" id="m5bde5faec4" style="stroke:#000000;stroke-width:0.8;"/>
      </defs>
      <g>
       <use style="stroke:#000000;stroke-width:0.8;" x="56.12" xlink:href="#m5bde5faec4" y="294.88"/>
      </g>
     </g>
     <g id="text_6">
      <!-- 0.0 -->
      <defs>
       <path d="M 10.6875 12.40625 
L 21 12.40625 
L 21 0 
L 10.6875 0 
z
" id="DejaVuSans-2e"/>
      </defs>
      <g transform="translate(23.675 300.95875)scale(0.16 -0.16)">
       <use xlink:href="#DejaVuSans-30"/>
       <use x="63.623047" xlink:href="#DejaVuSans-2e"/>
       <use x="95.410156" xlink:href="#DejaVuSans-30"/>
      </g>
     </g>
    </g>
    <g id="ytick_2">
     <g id="line2d_31">
      <path clip-path="url(#pbcab8d2f29)" d="M 56.12 241.406733 
L 333.168 241.406733 
" style="fill:none;stroke:#b0b0b0;stroke-linecap:square;stroke-width:0.8;"/>
     </g>
     <g id="line2d_32">
      <g>
       <use style="stroke:#000000;stroke-width:0.8;" x="56.12" xlink:href="#m5bde5faec4" y="241.406733"/>
      </g>
     </g>
     <g id="text_7">
      <!-- 0.2 -->
      <g transform="translate(23.675 247.485483)scale(0.16 -0.16)">
       <use xlink:href="#DejaVuSans-30"/>
       <use x="63.623047" xlink:href="#DejaVuSans-2e"/>
       <use x="95.410156" xlink:href="#DejaVuSans-32"/>
      </g>
     </g>
    </g>
    <g id="ytick_3">
     <g id="line2d_33">
      <path clip-path="url(#pbcab8d2f29)" d="M 56.12 187.933465 
L 333.168 187.933465 
" style="fill:none;stroke:#b0b0b0;stroke-linecap:square;stroke-width:0.8;"/>
     </g>
     <g id="line2d_34">
      <g>
       <use style="stroke:#000000;stroke-width:0.8;" x="56.12" xlink:href="#m5bde5faec4" y="187.933465"/>
      </g>
     </g>
     <g id="text_8">
      <!-- 0.4 -->
      <g transform="translate(23.675 194.012215)scale(0.16 -0.16)">
       <use xlink:href="#DejaVuSans-30"/>
       <use x="63.623047" xlink:href="#DejaVuSans-2e"/>
       <use x="95.410156" xlink:href="#DejaVuSans-34"/>
      </g>
     </g>
    </g>
    <g id="ytick_4">
     <g id="line2d_35">
      <path clip-path="url(#pbcab8d2f29)" d="M 56.12 134.460198 
L 333.168 134.460198 
" style="fill:none;stroke:#b0b0b0;stroke-linecap:square;stroke-width:0.8;"/>
     </g>
     <g id="line2d_36">
      <g>
       <use style="stroke:#000000;stroke-width:0.8;" x="56.12" xlink:href="#m5bde5faec4" y="134.460198"/>
      </g>
     </g>
     <g id="text_9">
      <!-- 0.6 -->
      <g transform="translate(23.675 140.538948)scale(0.16 -0.16)">
       <use xlink:href="#DejaVuSans-30"/>
       <use x="63.623047" xlink:href="#DejaVuSans-2e"/>
       <use x="95.410156" xlink:href="#DejaVuSans-36"/>
      </g>
     </g>
    </g>
    <g id="ytick_5">
     <g id="line2d_37">
      <path clip-path="url(#pbcab8d2f29)" d="M 56.12 80.986931 
L 333.168 80.986931 
" style="fill:none;stroke:#b0b0b0;stroke-linecap:square;stroke-width:0.8;"/>
     </g>
     <g id="line2d_38">
      <g>
       <use style="stroke:#000000;stroke-width:0.8;" x="56.12" xlink:href="#m5bde5faec4" y="80.986931"/>
      </g>
     </g>
     <g id="text_10">
      <!-- 0.8 -->
      <defs>
       <path d="M 31.78125 34.625 
Q 24.75 34.625 20.71875 30.859375 
Q 16.703125 27.09375 16.703125 20.515625 
Q 16.703125 13.921875 20.71875 10.15625 
Q 24.75 6.390625 31.78125 6.390625 
Q 38.8125 6.390625 42.859375 10.171875 
Q 46.921875 13.96875 46.921875 20.515625 
Q 46.921875 27.09375 42.890625 30.859375 
Q 38.875 34.625 31.78125 34.625 
z
M 21.921875 38.8125 
Q 15.578125 40.375 12.03125 44.71875 
Q 8.5 49.078125 8.5 55.328125 
Q 8.5 64.0625 14.71875 69.140625 
Q 20.953125 74.21875 31.78125 74.21875 
Q 42.671875 74.21875 48.875 69.140625 
Q 55.078125 64.0625 55.078125 55.328125 
Q 55.078125 49.078125 51.53125 44.71875 
Q 48 40.375 41.703125 38.8125 
Q 48.828125 37.15625 52.796875 32.3125 
Q 56.78125 27.484375 56.78125 20.515625 
Q 56.78125 9.90625 50.3125 4.234375 
Q 43.84375 -1.421875 31.78125 -1.421875 
Q 19.734375 -1.421875 13.25 4.234375 
Q 6.78125 9.90625 6.78125 20.515625 
Q 6.78125 27.484375 10.78125 32.3125 
Q 14.796875 37.15625 21.921875 38.8125 
z
M 18.3125 54.390625 
Q 18.3125 48.734375 21.84375 45.5625 
Q 25.390625 42.390625 31.78125 42.390625 
Q 38.140625 42.390625 41.71875 45.5625 
Q 45.3125 48.734375 45.3125 54.390625 
Q 45.3125 60.0625 41.71875 63.234375 
Q 38.140625 66.40625 31.78125 66.40625 
Q 25.390625 66.40625 21.84375 63.234375 
Q 18.3125 60.0625 18.3125 54.390625 
z
" id="DejaVuSans-38"/>
      </defs>
      <g transform="translate(23.675 87.065681)scale(0.16 -0.16)">
       <use xlink:href="#DejaVuSans-30"/>
       <use x="63.623047" xlink:href="#DejaVuSans-2e"/>
       <use x="95.410156" xlink:href="#DejaVuSans-38"/>
      </g>
     </g>
    </g>
    <g id="ytick_6">
     <g id="line2d_39">
      <path clip-path="url(#pbcab8d2f29)" d="M 56.12 27.513663 
L 333.168 27.513663 
" style="fill:none;stroke:#b0b0b0;stroke-linecap:square;stroke-width:0.8;"/>
     </g>
     <g id="line2d_40">
      <g>
       <use style="stroke:#000000;stroke-width:0.8;" x="56.12" xlink:href="#m5bde5faec4" y="27.513663"/>
      </g>
     </g>
     <g id="text_11">
      <!-- 1.0 -->
      <g transform="translate(23.675 33.592413)scale(0.16 -0.16)">
       <use xlink:href="#DejaVuSans-31"/>
       <use x="63.623047" xlink:href="#DejaVuSans-2e"/>
       <use x="95.410156" xlink:href="#DejaVuSans-30"/>
      </g>
     </g>
    </g>
    <g id="text_12">
     <!-- Fraction of function,target pairs -->
     <defs>
      <path d="M 9.8125 72.90625 
L 51.703125 72.90625 
L 51.703125 64.59375 
L 19.671875 64.59375 
L 19.671875 43.109375 
L 48.578125 43.109375 
L 48.578125 34.8125 
L 19.671875 34.8125 
L 19.671875 0 
L 9.8125 0 
z
" id="DejaVuSans-46"/>
      <path d="M 41.109375 46.296875 
Q 39.59375 47.171875 37.8125 47.578125 
Q 36.03125 48 33.890625 48 
Q 26.265625 48 22.1875 43.046875 
Q 18.109375 38.09375 18.109375 28.8125 
L 18.109375 0 
L 9.078125 0 
L 9.078125 54.6875 
L 18.109375 54.6875 
L 18.109375 46.1875 
Q 20.953125 51.171875 25.484375 53.578125 
Q 30.03125 56 36.53125 56 
Q 37.453125 56 38.578125 55.875 
Q 39.703125 55.765625 41.0625 55.515625 
z
" id="DejaVuSans-72"/>
      <path d="M 48.78125 52.59375 
L 48.78125 44.1875 
Q 44.96875 46.296875 41.140625 47.34375 
Q 37.3125 48.390625 33.40625 48.390625 
Q 24.65625 48.390625 19.8125 42.84375 
Q 14.984375 37.3125 14.984375 27.296875 
Q 14.984375 17.28125 19.8125 11.734375 
Q 24.65625 6.203125 33.40625 6.203125 
Q 37.3125 6.203125 41.140625 7.25 
Q 44.96875 8.296875 48.78125 10.40625 
L 48.78125 2.09375 
Q 45.015625 0.34375 40.984375 -0.53125 
Q 36.96875 -1.421875 32.421875 -1.421875 
Q 20.0625 -1.421875 12.78125 6.34375 
Q 5.515625 14.109375 5.515625 27.296875 
Q 5.515625 40.671875 12.859375 48.328125 
Q 20.21875 56 33.015625 56 
Q 37.15625 56 41.109375 55.140625 
Q 45.0625 54.296875 48.78125 52.59375 
z
" id="DejaVuSans-63"/>
      <path d="M 18.3125 70.21875 
L 18.3125 54.6875 
L 36.8125 54.6875 
L 36.8125 47.703125 
L 18.3125 47.703125 
L 18.3125 18.015625 
Q 18.3125 11.328125 20.140625 9.421875 
Q 21.96875 7.515625 27.59375 7.515625 
L 36.8125 7.515625 
L 36.8125 0 
L 27.59375 0 
Q 17.1875 0 13.234375 3.875 
Q 9.28125 7.765625 9.28125 18.015625 
L 9.28125 47.703125 
L 2.6875 47.703125 
L 2.6875 54.6875 
L 9.28125 54.6875 
L 9.28125 70.21875 
z
" id="DejaVuSans-74"/>
      <path d="M 8.5 21.578125 
L 8.5 54.6875 
L 17.484375 54.6875 
L 17.484375 21.921875 
Q 17.484375 14.15625 20.5 10.265625 
Q 23.53125 6.390625 29.59375 6.390625 
Q 36.859375 6.390625 41.078125 11.03125 
Q 45.3125 15.671875 45.3125 23.6875 
L 45.3125 54.6875 
L 54.296875 54.6875 
L 54.296875 0 
L 45.3125 0 
L 45.3125 8.40625 
Q 42.046875 3.421875 37.71875 1 
Q 33.40625 -1.421875 27.6875 -1.421875 
Q 18.265625 -1.421875 13.375 4.4375 
Q 8.5 10.296875 8.5 21.578125 
z
M 31.109375 56 
z
" id="DejaVuSans-75"/>
      <path d="M 11.71875 12.40625 
L 22.015625 12.40625 
L 22.015625 4 
L 14.015625 -11.625 
L 7.71875 -11.625 
L 11.71875 4 
z
" id="DejaVuSans-2c"/>
      <path d="M 18.109375 8.203125 
L 18.109375 -20.796875 
L 9.078125 -20.796875 
L 9.078125 54.6875 
L 18.109375 54.6875 
L 18.109375 46.390625 
Q 20.953125 51.265625 25.265625 53.625 
Q 29.59375 56 35.59375 56 
Q 45.5625 56 51.78125 48.09375 
Q 58.015625 40.1875 58.015625 27.296875 
Q 58.015625 14.40625 51.78125 6.484375 
Q 45.5625 -1.421875 35.59375 -1.421875 
Q 29.59375 -1.421875 25.265625 0.953125 
Q 20.953125 3.328125 18.109375 8.203125 
z
M 48.6875 27.296875 
Q 48.6875 37.203125 44.609375 42.84375 
Q 40.53125 48.484375 33.40625 48.484375 
Q 26.265625 48.484375 22.1875 42.84375 
Q 18.109375 37.203125 18.109375 27.296875 
Q 18.109375 17.390625 22.1875 11.75 
Q 26.265625 6.109375 33.40625 6.109375 
Q 40.53125 6.109375 44.609375 11.75 
Q 48.6875 17.390625 48.6875 27.296875 
z
" id="DejaVuSans-70"/>
     </defs>
     <g transform="translate(16.139531 294.999375)rotate(-90)scale(0.17 -0.17)">
      <use xlink:href="#DejaVuSans-46"/>
      <use x="57.410156" xlink:href="#DejaVuSans-72"/>
      <use x="98.523438" xlink:href="#DejaVuSans-61"/>
      <use x="159.802734" xlink:href="#DejaVuSans-63"/>
      <use x="214.783203" xlink:href="#DejaVuSans-74"/>
      <use x="253.992188" xlink:href="#DejaVuSans-69"/>
      <use x="281.775391" xlink:href="#DejaVuSans-6f"/>
      <use x="342.957031" xlink:href="#DejaVuSans-6e"/>
      <use x="406.335938" xlink:href="#DejaVuSans-20"/>
      <use x="438.123047" xlink:href="#DejaVuSans-6f"/>
      <use x="499.304688" xlink:href="#DejaVuSans-66"/>
      <use x="534.509766" xlink:href="#DejaVuSans-20"/>
      <use x="566.296875" xlink:href="#DejaVuSans-66"/>
      <use x="601.501953" xlink:href="#DejaVuSans-75"/>
      <use x="664.880859" xlink:href="#DejaVuSans-6e"/>
      <use x="728.259766" xlink:href="#DejaVuSans-63"/>
      <use x="783.240234" xlink:href="#DejaVuSans-74"/>
      <use x="822.449219" xlink:href="#DejaVuSans-69"/>
      <use x="850.232422" xlink:href="#DejaVuSans-6f"/>
      <use x="911.414062" xlink:href="#DejaVuSans-6e"/>
      <use x="974.792969" xlink:href="#DejaVuSans-2c"/>
      <use x="1006.580078" xlink:href="#DejaVuSans-74"/>
      <use x="1045.789062" xlink:href="#DejaVuSans-61"/>
      <use x="1107.068359" xlink:href="#DejaVuSans-72"/>
      <use x="1148.166016" xlink:href="#DejaVuSans-67"/>
      <use x="1211.642578" xlink:href="#DejaVuSans-65"/>
      <use x="1273.166016" xlink:href="#DejaVuSans-74"/>
      <use x="1312.375" xlink:href="#DejaVuSans-20"/>
      <use x="1344.162109" xlink:href="#DejaVuSans-70"/>
      <use x="1407.638672" xlink:href="#DejaVuSans-61"/>
      <use x="1468.917969" xlink:href="#DejaVuSans-69"/>
      <use x="1496.701172" xlink:href="#DejaVuSans-72"/>
      <use x="1537.814453" xlink:href="#DejaVuSans-73"/>
     </g>
    </g>
   </g>
   <g id="line2d_41">
    <defs>
     <path d="M 0 1.5 
C 0.397805 1.5 0.77937 1.341951 1.06066 1.06066 
C 1.341951 0.77937 1.5 0.397805 1.5 0 
C 1.5 -0.397805 1.341951 -0.77937 1.06066 -1.06066 
C 0.77937 -1.341951 0.397805 -1.5 0 -1.5 
C -0.397805 -1.5 -0.77937 -1.341951 -1.06066 -1.06066 
C -1.341951 -0.77937 -1.5 -0.397805 -1.5 0 
C -1.5 0.397805 -1.341951 0.77937 -1.06066 1.06066 
C -0.77937 1.341951 -0.397805 1.5 0 1.5 
z
" id="m7a161ec9ca" style="stroke:#f5deb3;"/>
    </defs>
    <g>
     <use style="fill:#f5deb3;stroke:#f5deb3;" x="153.248369" xlink:href="#m7a161ec9ca" y="27.513663"/>
     <use style="fill:#f5deb3;stroke:#f5deb3;" x="153.248369" xlink:href="#m7a161ec9ca" y="27.513663"/>
    </g>
   </g>
   <g id="line2d_42">
    <defs>
     <path d="M 0 1.5 
C 0.397805 1.5 0.77937 1.341951 1.06066 1.06066 
C 1.341951 0.77937 1.5 0.397805 1.5 0 
C 1.5 -0.397805 1.341951 -0.77937 1.06066 -1.06066 
C 0.77937 -1.341951 0.397805 -1.5 0 -1.5 
C -0.397805 -1.5 -0.77937 -1.341951 -1.06066 -1.06066 
C -1.341951 -0.77937 -1.5 -0.397805 -1.5 0 
C -1.5 0.397805 -1.341951 0.77937 -1.06066 1.06066 
C -0.77937 1.341951 -0.397805 1.5 0 1.5 
z
" id="me8b4f7f5d5" style="stroke:#000080;"/>
    </defs>
    <g>
     <use style="fill:#000080;stroke:#000080;" x="186.07191" xlink:href="#me8b4f7f5d5" y="237.212751"/>
     <use style="fill:#000080;stroke:#000080;" x="186.07191" xlink:href="#me8b4f7f5d5" y="237.212751"/>
    </g>
   </g>
   <g id="line2d_43">
    <path d="M 44.205749 294.88 
L 44.205749 283.34655 
L 92.904808 283.34655 
L 92.904808 282.822302 
L 94.816624 282.822302 
L 94.816624 282.298055 
L 96.536922 282.298055 
L 96.536922 281.773807 
L 97.336537 281.773807 
L 97.336537 281.249559 
L 98.100602 281.249559 
L 98.100602 280.725312 
L 101.481783 280.725312 
L 101.481783 280.201064 
L 108.036969 280.201064 
L 108.036969 279.676816 
L 108.85563 279.676816 
L 108.85563 279.152568 
L 109.637066 279.152568 
L 109.637066 278.628321 
L 110.014853 278.628321 
L 110.014853 278.104073 
L 111.788449 278.104073 
L 111.788449 277.579825 
L 114.293036 277.579825 
L 114.293036 276.53133 
L 114.866043 276.53133 
L 114.866043 276.007082 
L 115.420563 276.007082 
L 115.420563 275.482834 
L 115.691256 275.482834 
L 115.691256 274.958587 
L 119.526788 274.958587 
L 119.526788 274.434339 
L 120.568842 274.434339 
L 120.568842 273.910091 
L 122.480659 273.910091 
L 122.480659 273.385844 
L 123.189569 273.385844 
L 123.189569 272.861596 
L 124.685175 272.861596 
L 124.685175 272.337348 
L 124.843597 272.337348 
L 124.843597 271.8131 
L 125.614517 271.8131 
L 125.614517 271.288853 
L 126.638823 271.288853 
L 126.638823 270.764605 
L 127.05979 270.764605 
L 127.05979 270.240357 
L 128.647561 270.240357 
L 128.647561 269.716109 
L 128.898495 269.716109 
L 128.898495 269.191862 
L 130.559378 269.191862 
L 130.559378 268.667614 
L 131.333273 268.667614 
L 131.333273 268.143366 
L 132.583907 268.143366 
L 132.583907 267.619119 
L 132.783777 267.619119 
L 132.783777 267.094871 
L 135.532486 267.094871 
L 135.532486 266.570623 
L 136.115208 266.570623 
L 136.115208 266.046375 
L 137.377325 266.046375 
L 137.377325 265.522128 
L 138.33866 265.522128 
L 138.33866 264.99788 
L 138.904592 264.99788 
L 138.904592 264.473632 
L 140.113666 264.473632 
L 140.113666 263.949385 
L 141.303883 263.949385 
L 141.303883 263.425137 
L 141.484501 263.425137 
L 141.484501 262.900889 
L 142.07321 262.900889 
L 142.07321 262.376641 
L 143.029944 262.376641 
L 143.029944 261.852394 
L 144.598384 261.852394 
L 144.598384 260.803898 
L 146.309161 260.803898 
L 146.309161 260.279651 
L 146.489148 260.279651 
L 146.489148 259.755403 
L 146.799661 259.755403 
L 146.799661 259.231155 
L 148.63263 259.231155 
L 148.672099 258.18266 
L 149.778964 258.18266 
L 149.889502 257.134164 
L 149.926191 257.134164 
L 149.926191 256.609917 
L 150.288834 256.609917 
L 150.288834 256.085669 
L 150.538207 256.085669 
L 150.538207 255.561421 
L 150.888293 255.561421 
L 150.957462 254.512926 
L 152.601988 254.512926 
L 152.601988 253.988678 
L 153.458539 253.988678 
L 153.458539 253.46443 
L 153.607102 253.46443 
L 153.607102 252.940182 
L 154.245942 252.940182 
L 154.245942 252.415935 
L 154.640452 252.415935 
L 154.640452 251.891687 
L 156.159258 251.891687 
L 156.260967 250.843192 
L 156.760671 250.843192 
L 156.83439 249.794696 
L 156.980885 249.794696 
L 156.980885 249.270448 
L 157.460375 249.270448 
L 157.460375 248.746201 
L 158.200781 248.746201 
L 158.200781 248.221953 
L 160.566627 248.221953 
L 160.566627 247.697705 
L 160.89888 247.697705 
L 160.89888 247.173458 
L 161.619126 247.173458 
L 161.619126 246.64921 
L 161.931822 246.64921 
L 161.931822 246.124962 
L 164.039189 246.124962 
L 164.039189 245.600714 
L 165.342922 245.600714 
L 165.342922 245.076467 
L 166.526822 245.076467 
L 166.526822 244.552219 
L 166.721046 244.552219 
L 166.721046 244.027971 
L 168.251106 244.027971 
L 168.251106 243.503724 
L 168.364314 243.503724 
L 168.364314 242.979476 
L 168.724103 242.979476 
L 168.724103 242.455228 
L 170.900745 242.455228 
L 170.900745 241.93098 
L 172.510455 241.93098 
L 172.510455 241.406733 
L 173.167548 241.406733 
L 173.167548 240.882485 
L 178.434096 240.882485 
L 178.434096 240.358237 
L 181.205927 240.358237 
L 181.205927 239.83399 
L 182.690145 239.83399 
L 182.690145 239.309742 
L 183.252879 239.309742 
L 183.252879 238.785494 
L 184.571828 238.785494 
L 184.571828 238.261246 
L 185.204609 238.261246 
L 185.204609 237.736999 
L 186.07191 237.736999 
L 186.07191 237.212751 
L 333.168 237.212751 
L 333.168 237.212751 
" style="fill:none;stroke:#000080;stroke-linecap:square;stroke-width:1.5;"/>
   </g>
   <g id="line2d_44">
    <defs>
     <path d="M 0 6 
C 1.591219 6 3.117479 5.367802 4.242641 4.242641 
C 5.367802 3.117479 6 1.591219 6 0 
C 6 -1.591219 5.367802 -3.117479 4.242641 -4.242641 
C 3.117479 -5.367802 1.591219 -6 0 -6 
C -1.591219 -6 -3.117479 -5.367802 -4.242641 -4.242641 
C -5.367802 -3.117479 -6 -1.591219 -6 0 
C -6 1.591219 -5.367802 3.117479 -4.242641 4.242641 
C -3.117479 5.367802 -1.591219 6 0 6 
z
" id="m0067a02c50" style="stroke:#000080;stroke-width:1.5;"/>
    </defs>
    <g>
     <use style="fill:none;stroke:#000080;stroke-width:1.5;" x="157.460375" xlink:href="#m0067a02c50" y="249.270448"/>
     <use style="fill:none;stroke:#000080;stroke-width:1.5;" x="186.07191" xlink:href="#m0067a02c50" y="237.736999"/>
     <use style="fill:none;stroke:#000080;stroke-width:1.5;" x="186.07191" xlink:href="#m0067a02c50" y="237.212751"/>
     <use style="fill:none;stroke:#000080;stroke-width:1.5;" x="186.07191" xlink:href="#m0067a02c50" y="237.212751"/>
     <use style="fill:none;stroke:#000080;stroke-width:1.5;" x="333.168" xlink:href="#m0067a02c50" y="237.212751"/>
    </g>
   </g>
   <g id="line2d_45">
    <path style="fill:none;stroke:#000080;stroke-linecap:square;stroke-width:1.5;"/>
    <g/>
   </g>
   <g id="line2d_46">
    <path clip-path="url(#pbcab8d2f29)" d="M 124.52528 272.861596 
" style="fill:none;stroke:#000080;stroke-linecap:square;stroke-width:1.5;"/>
    <defs>
     <path d="M -12 12 
L 12 -12 
M -12 -12 
L 12 12 
" id="m8c3ac60dda" style="stroke:#000080;"/>
    </defs>
    <g clip-path="url(#pbcab8d2f29)">
     <use style="fill:#000080;stroke:#000080;" x="124.52528" xlink:href="#m8c3ac60dda" y="272.861596"/>
    </g>
   </g>
   <g id="line2d_47">
    <defs>
     <path d="M 0 1.5 
C 0.397805 1.5 0.77937 1.341951 1.06066 1.06066 
C 1.341951 0.77937 1.5 0.397805 1.5 0 
C 1.5 -0.397805 1.341951 -0.77937 1.06066 -1.06066 
C 0.77937 -1.341951 0.397805 -1.5 0 -1.5 
C -0.397805 -1.5 -0.77937 -1.341951 -1.06066 -1.06066 
C -1.341951 -0.77937 -1.5 -0.397805 -1.5 0 
C -1.5 0.397805 -1.341951 0.77937 -1.06066 1.06066 
C -0.77937 1.341951 -0.397805 1.5 0 1.5 
z
" id="m35f25cbc40" style="stroke:#ff00ff;"/>
    </defs>
    <g>
     <use style="fill:#ff00ff;stroke:#ff00ff;" x="235.833559" xlink:href="#m35f25cbc40" y="231.970274"/>
     <use style="fill:#ff00ff;stroke:#ff00ff;" x="235.833559" xlink:href="#m35f25cbc40" y="231.970274"/>
    </g>
   </g>
   <g id="line2d_48">
    <path d="M 44.205749 294.88 
L 44.205749 281.773807 
L 56.12 281.773807 
L 56.12 279.152568 
L 63.08939 279.152568 
L 63.08939 278.104073 
L 68.034251 278.104073 
L 68.034251 277.579825 
L 71.869783 277.579825 
L 71.869783 277.055578 
L 75.003641 277.055578 
L 75.003641 276.53133 
L 77.653281 276.53133 
L 77.653281 274.434339 
L 91.862754 274.434339 
L 91.862754 273.910091 
L 99.533818 273.910091 
L 99.533818 273.385844 
L 105.801534 273.385844 
L 105.801534 272.861596 
L 113.396034 272.861596 
L 113.396034 271.8131 
L 117.715785 271.8131 
L 117.715785 271.288853 
L 118.417459 271.288853 
L 118.417459 270.240357 
L 119.09161 270.240357 
L 119.09161 269.716109 
L 121.741249 269.716109 
L 121.741249 269.191862 
L 124.843597 269.191862 
L 124.843597 268.143366 
L 125.310285 268.143366 
L 125.310285 267.619119 
L 134.485139 267.619119 
L 134.485139 267.094871 
L 141.72241 267.094871 
L 141.72241 266.046375 
L 145.897164 266.046375 
L 145.897164 265.522128 
L 147.018071 265.522128 
L 147.018071 264.99788 
L 147.531203 264.99788 
L 147.531203 263.949385 
L 148.868095 263.949385 
L 148.868095 262.900889 
L 153.248369 262.900889 
L 153.248369 262.376641 
L 155.902323 262.376641 
L 155.902323 261.852394 
L 167.66055 261.852394 
L 167.66055 261.328146 
L 168.175218 261.328146 
L 168.175218 260.803898 
L 168.41439 260.803898 
L 168.426886 259.231155 
L 172.579268 259.231155 
L 172.579268 258.706907 
L 173.393594 258.706907 
L 173.393594 258.18266 
L 174.62123 258.18266 
L 174.62123 257.658412 
L 177.648765 257.658412 
L 177.757992 256.609917 
L 178.329095 256.609917 
L 178.329095 256.085669 
L 179.185109 256.085669 
L 179.185109 255.561421 
L 179.7114 255.561421 
L 179.7114 254.512926 
L 179.834061 254.512926 
L 179.834061 253.988678 
L 181.07476 253.988678 
L 181.07476 253.46443 
L 181.529528 253.46443 
L 181.529528 252.940182 
L 184.201635 252.940182 
L 184.201635 252.415935 
L 186.837726 252.415935 
L 186.837726 251.891687 
L 188.930599 251.891687 
L 188.930599 251.367439 
L 190.731368 251.367439 
L 190.731368 250.843192 
L 191.176014 250.843192 
L 191.176014 250.318944 
L 192.844771 250.318944 
L 192.844771 249.794696 
L 193.359056 249.794696 
L 193.359056 249.270448 
L 193.912367 249.270448 
L 193.912367 248.746201 
L 196.466535 248.746201 
L 196.466535 248.221953 
L 196.910511 248.221953 
L 196.910511 247.697705 
L 197.435969 247.697705 
L 197.435969 247.173458 
L 198.017458 247.173458 
L 198.070977 246.124962 
L 198.441018 246.124962 
L 198.493237 245.076467 
L 200.36258 245.076467 
L 200.36258 244.552219 
L 201.658928 244.552219 
L 201.658928 244.027971 
L 205.041852 244.027971 
L 205.041852 243.503724 
L 205.19552 243.503724 
L 205.19552 242.979476 
L 206.127417 242.979476 
L 206.127417 242.455228 
L 206.311743 242.455228 
L 206.311743 241.93098 
L 206.837115 241.93098 
L 206.837115 241.406733 
L 208.234729 241.406733 
L 208.234729 240.882485 
L 209.548908 240.882485 
L 209.548908 240.358237 
L 210.508213 240.358237 
L 210.508213 239.83399 
L 211.885615 239.83399 
L 211.885615 239.309742 
L 212.473486 239.309742 
L 212.473486 238.785494 
L 212.864878 238.785494 
L 212.864878 238.261246 
L 213.019533 238.261246 
L 213.019533 237.736999 
L 214.034067 237.736999 
L 214.034067 237.212751 
L 215.425785 237.212751 
L 215.425785 236.688503 
L 217.318848 236.688503 
L 217.318848 236.164255 
L 221.943952 236.164255 
L 221.943952 235.640008 
L 222.860666 235.640008 
L 222.860666 235.11576 
L 223.330023 235.11576 
L 223.330023 234.591512 
L 224.7301 234.591512 
L 224.820507 233.543017 
L 230.629815 233.543017 
L 230.629815 233.018769 
L 232.420642 233.018769 
L 232.420642 232.494521 
L 235.833559 232.494521 
L 235.833559 231.970274 
L 333.168 231.970274 
L 333.168 231.970274 
" style="fill:none;stroke:#ff00ff;stroke-linecap:square;stroke-width:1.5;"/>
   </g>
   <g id="line2d_49">
    <defs>
     <path d="M -0 8.485281 
L 5.091169 0 
L 0 -8.485281 
L -5.091169 -0 
z
" id="mdd59c035be" style="stroke:#ff00ff;stroke-linejoin:miter;stroke-width:1.5;"/>
    </defs>
    <g>
     <use style="fill:none;stroke:#ff00ff;stroke-linejoin:miter;stroke-width:1.5;" x="99.533818" xlink:href="#mdd59c035be" y="273.385844"/>
     <use style="fill:none;stroke:#ff00ff;stroke-linejoin:miter;stroke-width:1.5;" x="168.175218" xlink:href="#mdd59c035be" y="261.328146"/>
     <use style="fill:none;stroke:#ff00ff;stroke-linejoin:miter;stroke-width:1.5;" x="217.318848" xlink:href="#mdd59c035be" y="236.688503"/>
     <use style="fill:none;stroke:#ff00ff;stroke-linejoin:miter;stroke-width:1.5;" x="235.833559" xlink:href="#mdd59c035be" y="231.970274"/>
     <use style="fill:none;stroke:#ff00ff;stroke-linejoin:miter;stroke-width:1.5;" x="235.833559" xlink:href="#mdd59c035be" y="231.970274"/>
     <use style="fill:none;stroke:#ff00ff;stroke-linejoin:miter;stroke-width:1.5;" x="333.168" xlink:href="#mdd59c035be" y="231.970274"/>
    </g>
   </g>
   <g id="line2d_50">
    <path style="fill:none;stroke:#ff00ff;stroke-linecap:square;stroke-width:1.5;"/>
    <g/>
   </g>
   <g id="line2d_51">
    <path clip-path="url(#pbcab8d2f29)" d="M 183.607727 252.940182 
" style="fill:none;stroke:#ff00ff;stroke-linecap:square;stroke-width:1.5;"/>
    <defs>
     <path d="M -12 12 
L 12 -12 
M -12 -12 
L 12 12 
" id="mf205521cf6" style="stroke:#ff00ff;"/>
    </defs>
    <g clip-path="url(#pbcab8d2f29)">
     <use style="fill:#ff00ff;stroke:#ff00ff;" x="183.607727" xlink:href="#mf205521cf6" y="252.940182"/>
    </g>
   </g>
   <g id="line2d_52">
    <defs>
     <path d="M 0 1.5 
C 0.397805 1.5 0.77937 1.341951 1.06066 1.06066 
C 1.341951 0.77937 1.5 0.397805 1.5 0 
C 1.5 -0.397805 1.341951 -0.77937 1.06066 -1.06066 
C 0.77937 -1.341951 0.397805 -1.5 0 -1.5 
C -0.397805 -1.5 -0.77937 -1.341951 -1.06066 -1.06066 
C -1.341951 -0.77937 -1.5 -0.397805 -1.5 0 
C -1.5 0.397805 -1.341951 0.77937 -1.06066 1.06066 
C -0.77937 1.341951 -0.397805 1.5 0 1.5 
z
" id="mc58fbba9ff" style="stroke:#ff7500;"/>
    </defs>
    <g>
     <use style="fill:#ff7500;stroke:#ff7500;" x="264.909239" xlink:href="#mc58fbba9ff" y="27.513663"/>
     <use style="fill:#ff7500;stroke:#ff7500;" x="264.909239" xlink:href="#mc58fbba9ff" y="27.513663"/>
    </g>
   </g>
   <g id="line2d_53">
    <path d="M 44.205749 294.88 
L 44.205749 285.443541 
L 56.12 285.443541 
L 56.12 280.725312 
L 63.08939 280.725312 
L 63.08939 279.676816 
L 68.034251 279.676816 
L 68.034251 278.104073 
L 71.869783 278.104073 
L 71.869783 275.482834 
L 75.003641 275.482834 
L 75.003641 273.385844 
L 77.653281 273.385844 
L 77.653281 272.337348 
L 81.973032 272.337348 
L 81.973032 270.764605 
L 86.917893 270.764605 
L 86.917893 270.240357 
L 89.567532 270.240357 
L 89.567532 269.191862 
L 92.904808 269.191862 
L 92.904808 268.667614 
L 94.816624 268.667614 
L 94.816624 268.143366 
L 96.536922 268.143366 
L 96.536922 267.094871 
L 97.336537 267.094871 
L 97.336537 266.046375 
L 99.533818 266.046375 
L 99.533818 265.522128 
L 100.207968 265.522128 
L 100.207968 264.473632 
L 111.448069 264.473632 
L 111.448069 263.949385 
L 111.788449 263.949385 
L 111.788449 263.425137 
L 113.999206 263.425137 
L 113.999206 262.900889 
L 114.581927 262.900889 
L 114.581927 262.376641 
L 117.952873 262.376641 
L 117.952873 261.852394 
L 119.09161 261.852394 
L 119.09161 261.328146 
L 119.310576 261.328146 
L 119.310576 258.706907 
L 119.740314 258.706907 
L 119.740314 258.18266 
L 120.769881 258.18266 
L 120.769881 257.134164 
L 123.189569 257.134164 
L 123.189569 256.609917 
L 123.533353 256.609917 
L 123.533353 256.085669 
L 128.39291 256.085669 
L 128.39291 255.561421 
L 132.279675 255.561421 
L 132.279675 255.037173 
L 135.190413 255.037173 
L 135.190413 254.512926 
L 136.359022 254.512926 
L 136.359022 253.988678 
L 139.249066 253.988678 
L 139.249066 253.46443 
L 141.060069 253.46443 
L 141.121347 252.415935 
L 141.72241 252.415935 
L 141.72241 251.891687 
L 142.754037 251.891687 
L 142.754037 251.367439 
L 143.515683 251.367439 
L 143.515683 249.270448 
L 144.295937 249.270448 
L 144.295937 248.221953 
L 144.698028 248.221953 
L 144.698028 247.173458 
L 146.93104 247.173458 
L 146.93104 246.64921 
L 149.329562 246.64921 
L 149.329562 246.124962 
L 149.555732 246.124962 
L 149.555732 245.600714 
L 149.926191 245.600714 
L 149.926191 245.076467 
L 151.026355 245.076467 
L 151.026355 242.455228 
L 152.124937 242.455228 
L 152.124937 241.406733 
L 153.929489 241.406733 
L 153.929489 239.83399 
L 185.627664 239.83399 
L 185.627664 239.309742 
L 185.783094 239.309742 
L 185.783094 238.785494 
L 185.973176 238.785494 
L 186.076384 236.164255 
L 186.548544 236.164255 
L 186.639708 234.067265 
L 186.7777 234.067265 
L 186.871932 231.970274 
L 186.918855 231.970274 
L 186.918855 231.446026 
L 187.050406 231.446026 
L 187.155768 230.397531 
L 187.574973 230.397531 
L 187.574973 229.873283 
L 187.693473 229.873283 
L 187.799025 226.727797 
L 187.811163 226.727797 
L 187.907955 225.155053 
L 187.932068 225.155053 
L 187.932068 224.630806 
L 188.250385 224.630806 
L 188.250385 224.106558 
L 188.516395 224.106558 
L 188.516395 223.58231 
L 188.835603 223.58231 
L 188.835603 223.058063 
L 189.945884 223.058063 
L 190.006502 222.009567 
L 190.063359 222.009567 
L 190.063359 221.485319 
L 197.10709 221.485319 
L 197.10709 220.961072 
L 197.518939 220.961072 
L 197.518939 220.436824 
L 197.717812 220.436824 
L 197.717812 219.912576 
L 197.997345 219.912576 
L 197.997345 219.388328 
L 198.633871 219.388328 
L 198.709123 217.815585 
L 198.756256 217.815585 
L 198.786183 216.76709 
L 198.871402 216.76709 
L 198.930805 215.194347 
L 199.032163 215.194347 
L 199.032163 214.670099 
L 199.262213 214.670099 
L 199.262213 214.145851 
L 199.466657 214.145851 
L 199.466657 213.621604 
L 199.695054 213.621604 
L 199.695054 213.097356 
L 199.872403 213.097356 
L 199.872403 212.573108 
L 200.133068 212.573108 
L 200.235452 211.524613 
L 200.356734 211.524613 
L 200.356734 211.000365 
L 201.033283 211.000365 
L 201.033283 210.476117 
L 204.08982 210.476117 
L 204.08982 209.95187 
L 204.468391 209.95187 
L 204.518957 208.903374 
L 204.637889 208.903374 
L 204.637889 208.379126 
L 204.777118 208.379126 
L 204.856817 206.806383 
L 204.891289 206.806383 
L 204.891289 206.282136 
L 205.028488 206.282136 
L 205.07151 205.23364 
L 205.167549 205.23364 
L 205.270378 202.612401 
L 205.369684 202.612401 
L 205.40605 201.563906 
L 205.491569 201.563906 
L 205.549307 200.515411 
L 205.625513 200.515411 
L 205.654182 199.466915 
L 205.805336 199.466915 
L 205.805336 198.942667 
L 205.9425 198.942667 
L 205.9425 198.41842 
L 206.070193 198.41842 
L 206.078579 197.369924 
L 206.267574 197.369924 
L 206.342044 195.797181 
L 206.728474 195.797181 
L 206.728474 195.272933 
L 207.020639 195.272933 
L 207.020639 194.748686 
L 209.231989 194.748686 
L 209.290047 193.70019 
L 209.472232 193.70019 
L 209.472232 193.175943 
L 209.710294 193.175943 
L 209.746455 191.603199 
L 209.89146 191.603199 
L 209.998582 189.506209 
L 210.095089 189.506209 
L 210.180053 186.88497 
L 210.272264 186.88497 
L 210.324735 185.836474 
L 210.391187 185.836474 
L 210.427029 184.263731 
L 210.550277 184.263731 
L 210.615864 182.690988 
L 211.014705 182.690988 
L 211.035663 181.642493 
L 211.155677 181.642493 
L 211.177503 180.06975 
L 212.976557 180.06975 
L 213.011133 179.021254 
L 213.234661 179.021254 
L 213.31923 177.448511 
L 213.548767 177.448511 
L 213.626405 176.400016 
L 213.685751 176.400016 
L 213.726096 174.827272 
L 213.825213 174.827272 
L 213.932612 172.730281 
L 214.082378 172.730281 
L 214.082378 172.206034 
L 214.320187 172.206034 
L 214.402175 170.633291 
L 214.599069 170.633291 
L 214.709367 169.060547 
L 214.830723 169.060547 
L 214.911154 168.012052 
L 215.133717 168.012052 
L 215.133717 167.487804 
L 216.364218 167.487804 
L 216.414838 166.439309 
L 216.530854 166.439309 
L 216.530854 165.915061 
L 216.662708 165.915061 
L 216.771068 164.342318 
L 216.854879 164.342318 
L 216.94571 162.769575 
L 217.082536 162.769575 
L 217.146507 160.672584 
L 217.215359 160.672584 
L 217.32248 159.099841 
L 217.372533 159.099841 
L 217.402928 158.051345 
L 217.559121 158.051345 
L 217.615633 157.00285 
L 217.746541 157.00285 
L 217.762126 155.954354 
L 218.100784 155.954354 
L 218.100784 155.430107 
L 218.536102 155.430107 
L 218.536102 154.905859 
L 218.705847 154.905859 
L 218.705847 154.381611 
L 219.14002 154.381611 
L 219.166143 153.333116 
L 219.28515 153.333116 
L 219.389173 151.236125 
L 219.645557 151.236125 
L 219.726597 149.663382 
L 219.889416 149.663382 
L 219.909427 148.614886 
L 220.015962 148.614886 
L 220.015962 148.090639 
L 220.408325 148.090639 
L 220.485855 147.042143 
L 220.598497 147.042143 
L 220.598497 146.517896 
L 221.099652 146.517896 
L 221.099652 145.993648 
L 221.334791 145.993648 
L 221.42658 144.945152 
L 221.486552 144.945152 
L 221.544042 143.896657 
L 221.6951 143.896657 
L 221.6951 143.372409 
L 221.909496 143.372409 
L 221.967254 141.799666 
L 222.043597 141.799666 
L 222.043597 141.275418 
L 222.328798 141.275418 
L 222.346162 140.226923 
L 222.482832 140.226923 
L 222.482832 139.702675 
L 223.311575 139.702675 
L 223.413306 138.65418 
L 223.60238 138.65418 
L 223.60238 138.129932 
L 223.794882 138.129932 
L 223.794882 137.605684 
L 223.955645 137.605684 
L 224.011362 136.557189 
L 224.155972 136.557189 
L 224.229039 134.460198 
L 224.28097 134.460198 
L 224.28097 133.93595 
L 225.446271 133.93595 
L 225.498721 131.314712 
L 225.673003 131.314712 
L 225.779484 130.266216 
L 225.870737 130.266216 
L 225.878687 129.217721 
L 226.160313 129.217721 
L 226.176813 128.169225 
L 226.286697 128.169225 
L 226.314705 127.12073 
L 226.675131 127.12073 
L 226.675131 126.596482 
L 226.799473 126.596482 
L 226.799473 126.072235 
L 227.002527 126.072235 
L 227.022371 125.023739 
L 227.128639 125.023739 
L 227.128639 124.499491 
L 227.299021 124.499491 
L 227.399152 122.4025 
L 227.434686 122.4025 
L 227.458871 121.354005 
L 227.968057 121.354005 
L 227.968057 120.829757 
L 228.188751 120.829757 
L 228.286916 119.781262 
L 228.464492 119.781262 
L 228.464492 119.257014 
L 228.6395 119.257014 
L 228.6395 118.732766 
L 228.772116 118.732766 
L 228.821305 117.684271 
L 228.88556 117.684271 
L 228.977255 116.111528 
L 229.216379 116.111528 
L 229.216379 115.58728 
L 229.470864 115.58728 
L 229.470864 115.063032 
L 229.828301 115.063032 
L 229.828301 114.538785 
L 229.985155 114.538785 
L 230.03065 112.441794 
L 230.129214 112.441794 
L 230.131283 111.393298 
L 230.377428 111.393298 
L 230.386603 110.344803 
L 230.55193 110.344803 
L 230.55193 109.820555 
L 231.016651 109.820555 
L 231.016651 109.296308 
L 231.420262 109.296308 
L 231.420262 108.77206 
L 231.565519 108.77206 
L 231.594677 107.723564 
L 231.714591 107.723564 
L 231.714591 107.199317 
L 231.91499 107.199317 
L 231.91499 106.675069 
L 232.147151 106.675069 
L 232.147151 106.150821 
L 232.406451 106.150821 
L 232.498333 104.578078 
L 232.53225 104.578078 
L 232.635688 101.956839 
L 232.805337 101.956839 
L 232.805337 101.432592 
L 232.93119 101.432592 
L 232.93119 100.908344 
L 233.093608 100.908344 
L 233.093608 100.384096 
L 233.207865 100.384096 
L 233.207865 99.859849 
L 233.443796 99.859849 
L 233.443796 99.335601 
L 233.618925 99.335601 
L 233.664184 98.287105 
L 233.752392 98.287105 
L 233.849873 96.190115 
L 233.923591 96.190115 
L 233.923591 95.665867 
L 234.516652 95.665867 
L 234.516652 95.141619 
L 234.754113 95.141619 
L 234.815924 94.093124 
L 234.931059 94.093124 
L 234.931059 93.568876 
L 235.618415 93.568876 
L 235.618415 93.044628 
L 235.762888 93.044628 
L 235.80359 91.996133 
L 236.127728 91.996133 
L 236.155195 90.42339 
L 236.54587 90.42339 
L 236.54587 89.899142 
L 236.856432 89.899142 
L 236.868552 88.850646 
L 237.105729 88.850646 
L 237.105729 88.326399 
L 237.436883 88.326399 
L 237.528833 86.753656 
L 237.958837 86.753656 
L 237.968019 85.70516 
L 238.13982 85.70516 
L 238.159067 84.656665 
L 238.260571 84.656665 
L 238.269593 83.608169 
L 238.587485 83.608169 
L 238.587485 83.083922 
L 238.715399 83.083922 
L 238.715399 82.559674 
L 239.253881 82.559674 
L 239.26037 81.511178 
L 239.523915 81.511178 
L 239.583505 80.462683 
L 239.662507 80.462683 
L 239.662507 79.938435 
L 239.780727 79.938435 
L 239.780727 79.414188 
L 240.066674 79.414188 
L 240.066674 78.88994 
L 240.32814 78.88994 
L 240.32814 78.365692 
L 240.441505 78.365692 
L 240.441505 77.841444 
L 240.809077 77.841444 
L 240.857732 76.792949 
L 240.937722 76.792949 
L 241.031247 75.744454 
L 241.054822 75.744454 
L 241.123173 74.695958 
L 241.182554 74.695958 
L 241.182554 74.17171 
L 241.360553 74.17171 
L 241.360553 73.647463 
L 241.521804 73.647463 
L 241.63112 72.598967 
L 241.779712 72.598967 
L 241.846466 71.550472 
L 241.943167 71.550472 
L 242.035877 69.977729 
L 242.263444 69.977729 
L 242.368834 68.404985 
L 242.515907 68.404985 
L 242.515907 67.880738 
L 242.703099 67.880738 
L 242.783884 66.832242 
L 242.818367 66.832242 
L 242.818367 66.307995 
L 242.943669 66.307995 
L 242.954792 65.259499 
L 243.167681 65.259499 
L 243.23345 64.211004 
L 243.409206 64.211004 
L 243.409206 63.686756 
L 243.529657 63.686756 
L 243.529657 63.162508 
L 244.038081 63.162508 
L 244.038081 62.638261 
L 244.203406 62.638261 
L 244.203406 62.114013 
L 244.371072 62.114013 
L 244.371072 61.589765 
L 244.581356 61.589765 
L 244.591765 60.54127 
L 244.897074 60.54127 
L 244.897074 60.017022 
L 245.127593 60.017022 
L 245.127593 59.492774 
L 245.532754 59.492774 
L 245.532754 58.968526 
L 245.702776 58.968526 
L 245.702776 58.444279 
L 246.062303 58.444279 
L 246.140055 57.395783 
L 246.271876 57.395783 
L 246.271876 56.871536 
L 246.512859 56.871536 
L 246.512859 56.347288 
L 246.836441 56.347288 
L 246.836441 55.82304 
L 246.952424 55.82304 
L 247.05836 54.774545 
L 247.375592 54.774545 
L 247.375592 54.250297 
L 248.090199 54.250297 
L 248.186715 52.153306 
L 248.297439 52.153306 
L 248.343872 50.580563 
L 248.572996 50.580563 
L 248.600333 49.00782 
L 248.854532 49.00782 
L 248.87123 47.959324 
L 249.161188 47.959324 
L 249.238962 46.910829 
L 249.317853 46.910829 
L 249.383227 45.862334 
L 249.454179 45.862334 
L 249.515689 44.813838 
L 249.817784 44.813838 
L 249.817784 44.28959 
L 250.584076 44.28959 
L 250.584076 43.765343 
L 250.797284 43.765343 
L 250.797284 43.241095 
L 250.914075 43.241095 
L 250.958168 42.192599 
L 251.052551 42.192599 
L 251.065307 41.144104 
L 252.702937 41.144104 
L 252.702937 40.619856 
L 252.847008 40.619856 
L 252.847008 40.095609 
L 253.264665 40.095609 
L 253.264665 39.571361 
L 253.410175 39.571361 
L 253.410175 39.047113 
L 253.591493 39.047113 
L 253.633275 37.998618 
L 254.823607 37.998618 
L 254.859884 36.950122 
L 254.991167 36.950122 
L 254.991167 36.425875 
L 255.123711 36.425875 
L 255.123711 35.901627 
L 255.395528 35.901627 
L 255.425238 34.853131 
L 255.506813 34.853131 
L 255.506813 34.328884 
L 255.893274 34.328884 
L 255.948033 33.280388 
L 256.206612 33.280388 
L 256.206612 32.756141 
L 256.391909 32.756141 
L 256.391909 32.231893 
L 257.107789 32.231893 
L 257.107789 31.707645 
L 258.250049 31.707645 
L 258.250049 31.183397 
L 258.377517 31.183397 
L 258.377517 30.65915 
L 258.706996 30.65915 
L 258.706996 30.134902 
L 261.173848 30.134902 
L 261.173848 29.610654 
L 262.034463 29.610654 
L 262.034463 29.086407 
L 262.779321 29.086407 
L 262.820915 28.037911 
L 264.909239 28.037911 
L 264.909239 27.513663 
L 333.168 27.513663 
L 333.168 27.513663 
" style="fill:none;stroke:#ff7500;stroke-linecap:square;stroke-width:1.5;"/>
   </g>
   <g id="line2d_54">
    <defs>
     <path d="M 0 -6 
L -1.347084 -1.854102 
L -5.706339 -1.854102 
L -2.179628 0.708204 
L -3.526712 4.854102 
L -0 2.291796 
L 3.526712 4.854102 
L 2.179628 0.708204 
L 5.706339 -1.854102 
L 1.347084 -1.854102 
z
" id="m3a320b04a7" style="stroke:#ff7500;stroke-linejoin:bevel;stroke-width:1.5;"/>
    </defs>
    <g>
     <use style="fill:none;stroke:#ff7500;stroke-linejoin:bevel;stroke-width:1.5;" x="117.952873" xlink:href="#m3a320b04a7" y="262.376641"/>
     <use style="fill:none;stroke:#ff7500;stroke-linejoin:bevel;stroke-width:1.5;" x="201.033283" xlink:href="#m3a320b04a7" y="210.476117"/>
     <use style="fill:none;stroke:#ff7500;stroke-linejoin:bevel;stroke-width:1.5;" x="232.596897" xlink:href="#m3a320b04a7" y="103.005335"/>
     <use style="fill:none;stroke:#ff7500;stroke-linejoin:bevel;stroke-width:1.5;" x="264.909239" xlink:href="#m3a320b04a7" y="27.513663"/>
     <use style="fill:none;stroke:#ff7500;stroke-linejoin:bevel;stroke-width:1.5;" x="264.909239" xlink:href="#m3a320b04a7" y="27.513663"/>
     <use style="fill:none;stroke:#ff7500;stroke-linejoin:bevel;stroke-width:1.5;" x="333.168" xlink:href="#m3a320b04a7" y="27.513663"/>
    </g>
   </g>
   <g id="line2d_55">
    <path style="fill:none;stroke:#ff7500;stroke-linecap:square;stroke-width:1.5;"/>
    <g/>
   </g>
   <g id="line2d_56">
    <path clip-path="url(#pbcab8d2f29)" d="M 186.456895 236.164255 
" style="fill:none;stroke:#ff7500;stroke-linecap:square;stroke-width:1.5;"/>
    <defs>
     <path d="M -12 12 
L 12 -12 
M -12 -12 
L 12 12 
" id="mde67376d13" style="stroke:#ff7500;"/>
    </defs>
    <g clip-path="url(#pbcab8d2f29)">
     <use style="fill:#ff7500;stroke:#ff7500;" x="186.456895" xlink:href="#mde67376d13" y="236.164255"/>
    </g>
   </g>
   <g id="line2d_57">
    <defs>
     <path d="M 0 1.5 
C 0.397805 1.5 0.77937 1.341951 1.06066 1.06066 
C 1.341951 0.77937 1.5 0.397805 1.5 0 
C 1.5 -0.397805 1.341951 -0.77937 1.06066 -1.06066 
C 0.77937 -1.341951 0.397805 -1.5 0 -1.5 
C -0.397805 -1.5 -0.77937 -1.341951 -1.06066 -1.06066 
C -1.341951 -0.77937 -1.5 -0.397805 -1.5 0 
C -1.5 0.397805 -1.341951 0.77937 -1.06066 1.06066 
C -0.77937 1.341951 -0.397805 1.5 0 1.5 
z
" id="m9407d2befb" style="stroke:#6495ed;"/>
    </defs>
    <g>
     <use style="fill:#6495ed;stroke:#6495ed;" x="230.724678" xlink:href="#m9407d2befb" y="27.513663"/>
     <use style="fill:#6495ed;stroke:#6495ed;" x="230.724678" xlink:href="#m9407d2befb" y="27.513663"/>
    </g>
   </g>
   <g id="line2d_58">
    <path d="M 44.205749 294.88 
L 44.205749 287.016284 
L 56.12 287.016284 
L 56.12 285.967789 
L 68.034251 285.967789 
L 68.034251 284.395046 
L 71.869783 284.395046 
L 71.869783 282.298055 
L 75.003641 282.298055 
L 75.003641 281.249559 
L 77.653281 281.249559 
L 77.653281 280.725312 
L 81.973032 280.725312 
L 81.973032 280.201064 
L 83.784035 280.201064 
L 83.784035 279.676816 
L 85.422286 279.676816 
L 85.422286 279.152568 
L 86.917893 279.152568 
L 86.917893 278.104073 
L 88.293717 278.104073 
L 88.293717 277.055578 
L 89.567532 277.055578 
L 89.567532 275.482834 
L 91.862754 275.482834 
L 91.862754 274.958587 
L 92.904808 274.958587 
L 92.904808 274.434339 
L 93.887283 274.434339 
L 93.887283 271.8131 
L 96.536922 271.8131 
L 96.536922 268.143366 
L 98.100602 268.143366 
L 98.100602 267.619119 
L 100.207968 267.619119 
L 100.207968 267.094871 
L 100.856673 267.094871 
L 100.856673 266.570623 
L 103.777005 266.570623 
L 103.777005 266.046375 
L 104.819059 266.046375 
L 104.819059 265.522128 
L 107.177358 265.522128 
L 107.177358 264.473632 
L 107.612537 264.473632 
L 107.612537 263.949385 
L 108.036969 263.949385 
L 108.036969 262.900889 
L 108.451173 262.900889 
L 108.451173 260.803898 
L 108.85563 260.803898 
L 108.85563 259.755403 
L 111.788449 259.755403 
L 111.788449 259.231155 
L 112.449632 259.231155 
L 112.449632 258.706907 
L 116.984244 258.706907 
L 116.984244 258.18266 
L 118.186736 258.18266 
L 118.186736 257.658412 
L 118.869818 257.658412 
L 118.869818 257.134164 
L 120.15957 257.134164 
L 120.15957 256.609917 
L 120.968596 256.609917 
L 120.968596 256.085669 
L 121.359263 256.085669 
L 121.359263 255.561421 
L 121.929105 255.561421 
L 121.929105 255.037173 
L 125.000572 255.037173 
L 125.000572 254.512926 
L 126.061 254.512926 
L 126.061 253.988678 
L 126.638823 253.988678 
L 126.638823 253.46443 
L 129.630036 253.46443 
L 129.630036 252.415935 
L 131.969962 252.415935 
L 131.969962 251.367439 
L 132.483094 251.367439 
L 132.483094 250.843192 
L 132.783777 250.843192 
L 132.783777 250.318944 
L 135.016789 250.318944 
L 135.016789 249.794696 
L 137.753459 249.794696 
L 137.753459 249.270448 
L 139.043211 249.270448 
L 139.043211 248.746201 
L 141.781376 248.746201 
L 141.781376 248.221953 
L 142.975116 248.221953 
L 142.975116 247.697705 
L 156.056945 247.697705 
L 156.056945 247.173458 
L 158.04152 247.173458 
L 158.04152 246.64921 
L 159.923235 246.64921 
L 159.923235 246.124962 
L 160.126894 246.124962 
L 160.126894 245.600714 
L 160.487508 245.600714 
L 160.566627 244.552219 
L 160.89888 244.552219 
L 160.89888 244.027971 
L 161.053039 244.027971 
L 161.053039 243.503724 
L 161.822107 243.503724 
L 161.822107 242.979476 
L 162.077028 242.979476 
L 162.077028 242.455228 
L 162.854447 242.455228 
L 162.854447 241.93098 
L 163.24725 241.93098 
L 163.24725 241.406733 
L 171.391273 241.406733 
L 171.391273 240.882485 
L 171.683143 240.882485 
L 171.683143 239.83399 
L 172.322274 239.83399 
L 172.322274 239.309742 
L 175.880726 239.309742 
L 175.880726 238.785494 
L 177.772503 238.785494 
L 177.772503 238.261246 
L 182.057568 238.261246 
L 182.057568 237.736999 
L 182.60823 237.736999 
L 182.60823 237.212751 
L 185.265687 237.212751 
L 185.265687 236.688503 
L 186.223392 236.688503 
L 186.263267 235.11576 
L 186.48313 235.11576 
L 186.552896 233.018769 
L 186.618046 233.018769 
L 186.67863 228.30054 
L 186.756212 228.30054 
L 186.799162 224.630806 
L 186.940141 224.630806 
L 187.025023 222.533815 
L 187.088411 222.533815 
L 187.193541 219.388328 
L 187.210302 219.388328 
L 187.277184 215.718594 
L 187.385315 215.718594 
L 187.393604 213.097356 
L 187.677177 213.097356 
L 187.786879 207.854879 
L 187.915996 207.854879 
L 188.008204 206.282136 
L 188.820355 206.282136 
L 188.820355 205.23364 
L 189.156472 205.23364 
L 189.201292 204.185145 
L 189.312835 204.185145 
L 189.323949 202.612401 
L 189.445737 202.612401 
L 189.464115 199.991163 
L 189.57762 199.991163 
L 189.57762 198.942667 
L 189.802406 198.942667 
L 189.802406 196.845677 
L 190.211721 196.845677 
L 190.239835 195.797181 
L 190.337876 195.797181 
L 190.414518 193.175943 
L 190.480435 193.175943 
L 190.5461 191.078952 
L 194.148951 191.078952 
L 194.148951 189.506209 
L 205.973458 189.506209 
L 206.028201 185.312227 
L 206.131596 185.312227 
L 206.217748 175.35152 
L 206.246831 175.35152 
L 206.355799 167.487804 
L 206.436732 167.487804 
L 206.514561 163.293823 
L 206.556742 163.293823 
L 206.643499 160.672584 
L 206.704238 160.672584 
L 206.760736 159.624089 
L 209.620696 159.624089 
L 209.7069 155.954354 
L 209.734033 155.954354 
L 209.842138 151.236125 
L 209.863453 151.236125 
L 209.919421 148.090639 
L 210.714311 148.090639 
L 210.714311 147.042143 
L 210.873624 147.042143 
L 210.961146 140.751171 
L 211.024139 140.751171 
L 211.129658 135.508693 
L 214.767624 135.508693 
L 214.767624 132.887455 
L 214.890244 132.887455 
L 214.990377 119.257014 
L 215.009503 119.257014 
L 215.069238 116.111528 
L 215.122162 116.111528 
L 215.156804 112.966042 
L 215.533338 112.966042 
L 215.611357 106.675069 
L 215.656238 106.675069 
L 215.754406 100.384096 
L 215.773496 100.384096 
L 215.793358 97.762858 
L 216.536939 97.762858 
L 216.536939 95.665867 
L 217.318121 95.665867 
L 217.318121 95.141619 
L 221.577536 95.141619 
L 221.577536 91.471885 
L 221.76705 91.471885 
L 221.850985 82.035426 
L 221.880544 82.035426 
L 221.886672 78.88994 
L 222.496815 78.88994 
L 222.607209 66.832242 
L 222.618423 66.832242 
L 222.648291 61.065517 
L 224.603582 61.065517 
L 224.695601 53.201802 
L 224.716876 53.201802 
L 224.717821 51.104811 
L 228.492204 51.104811 
L 228.579978 39.047113 
L 230.601991 39.047113 
L 230.707681 29.610654 
L 230.714682 29.610654 
L 230.724678 27.513663 
L 333.168 27.513663 
L 333.168 27.513663 
" style="fill:none;stroke:#6495ed;stroke-linecap:square;stroke-width:1.5;"/>
   </g>
   <g id="line2d_59">
    <defs>
     <path d="M -0 6 
L 6 -6 
L -6 -6 
z
" id="mfa584fb878" style="stroke:#6495ed;stroke-linejoin:miter;stroke-width:1.5;"/>
    </defs>
    <g>
     <use style="fill:none;stroke:#6495ed;stroke-linejoin:miter;stroke-width:1.5;" x="137.753459" xlink:href="#mfa584fb878" y="249.794696"/>
     <use style="fill:none;stroke:#6495ed;stroke-linejoin:miter;stroke-width:1.5;" x="194.148951" xlink:href="#mfa584fb878" y="191.078952"/>
     <use style="fill:none;stroke:#6495ed;stroke-linejoin:miter;stroke-width:1.5;" x="222.573523" xlink:href="#mfa584fb878" y="67.880738"/>
     <use style="fill:none;stroke:#6495ed;stroke-linejoin:miter;stroke-width:1.5;" x="230.724678" xlink:href="#mfa584fb878" y="27.513663"/>
     <use style="fill:none;stroke:#6495ed;stroke-linejoin:miter;stroke-width:1.5;" x="230.724678" xlink:href="#mfa584fb878" y="27.513663"/>
     <use style="fill:none;stroke:#6495ed;stroke-linejoin:miter;stroke-width:1.5;" x="333.168" xlink:href="#mfa584fb878" y="27.513663"/>
    </g>
   </g>
   <g id="line2d_60">
    <path style="fill:none;stroke:#6495ed;stroke-linecap:square;stroke-width:1.5;"/>
    <g/>
   </g>
   <g id="line2d_61">
    <path d="M 333.168 237.212751 
L 363.64328 289.532673 
" style="fill:none;stroke:#000080;stroke-linecap:square;stroke-width:1.5;"/>
    <g>
     <use style="fill:none;stroke:#000080;stroke-width:1.5;" x="333.168" xlink:href="#m0067a02c50" y="237.212751"/>
     <use style="fill:none;stroke:#000080;stroke-width:1.5;" x="363.64328" xlink:href="#m0067a02c50" y="289.532673"/>
    </g>
   </g>
   <g id="line2d_62">
    <path d="M 333.168 231.970274 
L 363.64328 225.364752 
" style="fill:none;stroke:#ff00ff;stroke-linecap:square;stroke-width:1.5;"/>
    <g>
     <use style="fill:none;stroke:#ff00ff;stroke-linejoin:miter;stroke-width:1.5;" x="333.168" xlink:href="#mdd59c035be" y="231.970274"/>
     <use style="fill:none;stroke:#ff00ff;stroke-linejoin:miter;stroke-width:1.5;" x="363.64328" xlink:href="#mdd59c035be" y="225.364752"/>
    </g>
   </g>
   <g id="line2d_63">
    <path d="M 333.168 27.513663 
L 363.64328 161.196832 
" style="fill:none;stroke:#ff7500;stroke-linecap:square;stroke-width:1.5;"/>
    <g>
     <use style="fill:none;stroke:#ff7500;stroke-linejoin:bevel;stroke-width:1.5;" x="333.168" xlink:href="#m3a320b04a7" y="27.513663"/>
     <use style="fill:none;stroke:#ff7500;stroke-linejoin:bevel;stroke-width:1.5;" x="363.64328" xlink:href="#m3a320b04a7" y="161.196832"/>
    </g>
   </g>
   <g id="line2d_64">
    <path d="M 333.168 27.513663 
L 363.64328 97.028911 
" style="fill:none;stroke:#6495ed;stroke-linecap:square;stroke-width:1.5;"/>
    <g>
     <use style="fill:none;stroke:#6495ed;stroke-linejoin:miter;stroke-width:1.5;" x="333.168" xlink:href="#mfa584fb878" y="27.513663"/>
     <use style="fill:none;stroke:#6495ed;stroke-linejoin:miter;stroke-width:1.5;" x="363.64328" xlink:href="#mfa584fb878" y="97.028911"/>
    </g>
   </g>
   <g id="line2d_65">
    <path d="M 333.168 294.88 
L 333.168 27.513663 
" style="fill:none;stroke:#000000;stroke-linecap:square;stroke-width:1.5;"/>
   </g>
   <g id="patch_3">
    <path d="M 56.12 294.88 
L 56.12 24.84 
" style="fill:none;stroke:#000000;stroke-linecap:square;stroke-linejoin:miter;stroke-width:0.8;"/>
   </g>
   <g id="patch_4">
    <path d="M 333.168 294.88 
L 333.168 24.84 
" style="fill:none;stroke:#000000;stroke-linecap:square;stroke-linejoin:miter;stroke-width:0.8;"/>
   </g>
   <g id="patch_5">
    <path d="M 56.12 294.88 
L 333.168 294.88 
" style="fill:none;stroke:#000000;stroke-linecap:square;stroke-linejoin:miter;stroke-width:0.8;"/>
   </g>
   <g id="patch_6">
    <path d="M 56.12 24.84 
L 333.168 24.84 
" style="fill:none;stroke:#000000;stroke-linecap:square;stroke-linejoin:miter;stroke-width:0.8;"/>
   </g>
   <g id="text_13">
    <!-- scipyAlg -->
    <defs>
     <path d="M 32.171875 -5.078125 
Q 28.375 -14.84375 24.75 -17.8125 
Q 21.140625 -20.796875 15.09375 -20.796875 
L 7.90625 -20.796875 
L 7.90625 -13.28125 
L 13.1875 -13.28125 
Q 16.890625 -13.28125 18.9375 -11.515625 
Q 21 -9.765625 23.484375 -3.21875 
L 25.09375 0.875 
L 2.984375 54.6875 
L 12.5 54.6875 
L 29.59375 11.921875 
L 46.6875 54.6875 
L 56.203125 54.6875 
z
" id="DejaVuSans-79"/>
     <path d="M 34.1875 63.1875 
L 20.796875 26.90625 
L 47.609375 26.90625 
z
M 28.609375 72.90625 
L 39.796875 72.90625 
L 67.578125 0 
L 57.328125 0 
L 50.6875 18.703125 
L 17.828125 18.703125 
L 11.1875 0 
L 0.78125 0 
z
" id="DejaVuSans-41"/>
    </defs>
    <g transform="translate(369.18424 294.223611)scale(0.17 -0.17)">
     <use xlink:href="#DejaVuSans-73"/>
     <use x="52.099609" xlink:href="#DejaVuSans-63"/>
     <use x="107.080078" xlink:href="#DejaVuSans-69"/>
     <use x="134.863281" xlink:href="#DejaVuSans-70"/>
     <use x="198.339844" xlink:href="#DejaVuSans-79"/>
     <use x="257.519531" xlink:href="#DejaVuSans-41"/>
     <use x="325.927734" xlink:href="#DejaVuSans-6c"/>
     <use x="353.710938" xlink:href="#DejaVuSans-67"/>
    </g>
   </g>
   <g id="text_14">
    <!-- CMA ES PPM -->
    <defs>
     <path d="M 64.40625 67.28125 
L 64.40625 56.890625 
Q 59.421875 61.53125 53.78125 63.8125 
Q 48.140625 66.109375 41.796875 66.109375 
Q 29.296875 66.109375 22.65625 58.46875 
Q 16.015625 50.828125 16.015625 36.375 
Q 16.015625 21.96875 22.65625 14.328125 
Q 29.296875 6.6875 41.796875 6.6875 
Q 48.140625 6.6875 53.78125 8.984375 
Q 59.421875 11.28125 64.40625 15.921875 
L 64.40625 5.609375 
Q 59.234375 2.09375 53.4375 0.328125 
Q 47.65625 -1.421875 41.21875 -1.421875 
Q 24.65625 -1.421875 15.125 8.703125 
Q 5.609375 18.84375 5.609375 36.375 
Q 5.609375 53.953125 15.125 64.078125 
Q 24.65625 74.21875 41.21875 74.21875 
Q 47.75 74.21875 53.53125 72.484375 
Q 59.328125 70.75 64.40625 67.28125 
z
" id="DejaVuSans-43"/>
     <path d="M 9.8125 72.90625 
L 24.515625 72.90625 
L 43.109375 23.296875 
L 61.8125 72.90625 
L 76.515625 72.90625 
L 76.515625 0 
L 66.890625 0 
L 66.890625 64.015625 
L 48.09375 14.015625 
L 38.1875 14.015625 
L 19.390625 64.015625 
L 19.390625 0 
L 9.8125 0 
z
" id="DejaVuSans-4d"/>
     <path d="M 9.8125 72.90625 
L 55.90625 72.90625 
L 55.90625 64.59375 
L 19.671875 64.59375 
L 19.671875 43.015625 
L 54.390625 43.015625 
L 54.390625 34.71875 
L 19.671875 34.71875 
L 19.671875 8.296875 
L 56.78125 8.296875 
L 56.78125 0 
L 9.8125 0 
z
" id="DejaVuSans-45"/>
     <path d="M 53.515625 70.515625 
L 53.515625 60.890625 
Q 47.90625 63.578125 42.921875 64.890625 
Q 37.9375 66.21875 33.296875 66.21875 
Q 25.25 66.21875 20.875 63.09375 
Q 16.5 59.96875 16.5 54.203125 
Q 16.5 49.359375 19.40625 46.890625 
Q 22.3125 44.4375 30.421875 42.921875 
L 36.375 41.703125 
Q 47.40625 39.59375 52.65625 34.296875 
Q 57.90625 29 57.90625 20.125 
Q 57.90625 9.515625 50.796875 4.046875 
Q 43.703125 -1.421875 29.984375 -1.421875 
Q 24.8125 -1.421875 18.96875 -0.25 
Q 13.140625 0.921875 6.890625 3.21875 
L 6.890625 13.375 
Q 12.890625 10.015625 18.65625 8.296875 
Q 24.421875 6.59375 29.984375 6.59375 
Q 38.421875 6.59375 43.015625 9.90625 
Q 47.609375 13.234375 47.609375 19.390625 
Q 47.609375 24.75 44.3125 27.78125 
Q 41.015625 30.8125 33.5 32.328125 
L 27.484375 33.5 
Q 16.453125 35.6875 11.515625 40.375 
Q 6.59375 45.0625 6.59375 53.421875 
Q 6.59375 63.09375 13.40625 68.65625 
Q 20.21875 74.21875 32.171875 74.21875 
Q 37.3125 74.21875 42.625 73.28125 
Q 47.953125 72.359375 53.515625 70.515625 
z
" id="DejaVuSans-53"/>
     <path d="M 19.671875 64.796875 
L 19.671875 37.40625 
L 32.078125 37.40625 
Q 38.96875 37.40625 42.71875 40.96875 
Q 46.484375 44.53125 46.484375 51.125 
Q 46.484375 57.671875 42.71875 61.234375 
Q 38.96875 64.796875 32.078125 64.796875 
z
M 9.8125 72.90625 
L 32.078125 72.90625 
Q 44.34375 72.90625 50.609375 67.359375 
Q 56.890625 61.8125 56.890625 51.125 
Q 56.890625 40.328125 50.609375 34.8125 
Q 44.34375 29.296875 32.078125 29.296875 
L 19.671875 29.296875 
L 19.671875 0 
L 9.8125 0 
z
" id="DejaVuSans-50"/>
    </defs>
    <g transform="translate(369.18424 230.05569)scale(0.17 -0.17)">
     <use xlink:href="#DejaVuSans-43"/>
     <use x="69.824219" xlink:href="#DejaVuSans-4d"/>
     <use x="156.103516" xlink:href="#DejaVuSans-41"/>
     <use x="224.511719" xlink:href="#DejaVuSans-20"/>
     <use x="256.298828" xlink:href="#DejaVuSans-45"/>
     <use x="319.482422" xlink:href="#DejaVuSans-53"/>
     <use x="382.958984" xlink:href="#DejaVuSans-20"/>
     <use x="414.746094" xlink:href="#DejaVuSans-50"/>
     <use x="475.048828" xlink:href="#DejaVuSans-50"/>
     <use x="535.351562" xlink:href="#DejaVuSans-4d"/>
    </g>
   </g>
   <g id="text_15">
    <!-- CMA ES CSA -->
    <g transform="translate(369.18424 165.887769)scale(0.17 -0.17)">
     <use xlink:href="#DejaVuSans-43"/>
     <use x="69.824219" xlink:href="#DejaVuSans-4d"/>
     <use x="156.103516" xlink:href="#DejaVuSans-41"/>
     <use x="224.511719" xlink:href="#DejaVuSans-20"/>
     <use x="256.298828" xlink:href="#DejaVuSans-45"/>
     <use x="319.482422" xlink:href="#DejaVuSans-53"/>
     <use x="382.958984" xlink:href="#DejaVuSans-20"/>
     <use x="414.746094" xlink:href="#DejaVuSans-43"/>
     <use x="484.570312" xlink:href="#DejaVuSans-53"/>
     <use x="548.0625" xlink:href="#DejaVuSans-41"/>
    </g>
   </g>
   <g id="text_16">
    <!-- CMAES posi -->
    <g transform="translate(369.18424 101.719848)scale(0.17 -0.17)">
     <use xlink:href="#DejaVuSans-43"/>
     <use x="69.824219" xlink:href="#DejaVuSans-4d"/>
     <use x="156.103516" xlink:href="#DejaVuSans-41"/>
     <use x="224.511719" xlink:href="#DejaVuSans-45"/>
     <use x="287.695312" xlink:href="#DejaVuSans-53"/>
     <use x="351.171875" xlink:href="#DejaVuSans-20"/>
     <use x="382.958984" xlink:href="#DejaVuSans-70"/>
     <use x="446.435547" xlink:href="#DejaVuSans-6f"/>
     <use x="507.617188" xlink:href="#DejaVuSans-73"/>
     <use x="559.716797" xlink:href="#DejaVuSans-69"/>
    </g>
   </g>
   <g id="text_17">
    <!-- best 2009 -->
    <defs>
     <path d="M 48.6875 27.296875 
Q 48.6875 37.203125 44.609375 42.84375 
Q 40.53125 48.484375 33.40625 48.484375 
Q 26.265625 48.484375 22.1875 42.84375 
Q 18.109375 37.203125 18.109375 27.296875 
Q 18.109375 17.390625 22.1875 11.75 
Q 26.265625 6.109375 33.40625 6.109375 
Q 40.53125 6.109375 44.609375 11.75 
Q 48.6875 17.390625 48.6875 27.296875 
z
M 18.109375 46.390625 
Q 20.953125 51.265625 25.265625 53.625 
Q 29.59375 56 35.59375 56 
Q 45.5625 56 51.78125 48.09375 
Q 58.015625 40.1875 58.015625 27.296875 
Q 58.015625 14.40625 51.78125 6.484375 
Q 45.5625 -1.421875 35.59375 -1.421875 
Q 29.59375 -1.421875 25.265625 0.953125 
Q 20.953125 3.328125 18.109375 8.203125 
L 18.109375 0 
L 9.078125 0 
L 9.078125 75.984375 
L 18.109375 75.984375 
z
" id="DejaVuSans-62"/>
     <path d="M 10.984375 1.515625 
L 10.984375 10.5 
Q 14.703125 8.734375 18.5 7.8125 
Q 22.3125 6.890625 25.984375 6.890625 
Q 35.75 6.890625 40.890625 13.453125 
Q 46.046875 20.015625 46.78125 33.40625 
Q 43.953125 29.203125 39.59375 26.953125 
Q 35.25 24.703125 29.984375 24.703125 
Q 19.046875 24.703125 12.671875 31.3125 
Q 6.296875 37.9375 6.296875 49.421875 
Q 6.296875 60.640625 12.9375 67.421875 
Q 19.578125 74.21875 30.609375 74.21875 
Q 43.265625 74.21875 49.921875 64.515625 
Q 56.59375 54.828125 56.59375 36.375 
Q 56.59375 19.140625 48.40625 8.859375 
Q 40.234375 -1.421875 26.421875 -1.421875 
Q 22.703125 -1.421875 18.890625 -0.6875 
Q 15.09375 0.046875 10.984375 1.515625 
z
M 30.609375 32.421875 
Q 37.25 32.421875 41.125 36.953125 
Q 45.015625 41.5 45.015625 49.421875 
Q 45.015625 57.28125 41.125 61.84375 
Q 37.25 66.40625 30.609375 66.40625 
Q 23.96875 66.40625 20.09375 61.84375 
Q 16.21875 57.28125 16.21875 49.421875 
Q 16.21875 41.5 20.09375 36.953125 
Q 23.96875 32.421875 30.609375 32.421875 
z
" id="DejaVuSans-39"/>
    </defs>
    <g transform="translate(369.18424 37.551928)scale(0.17 -0.17)">
     <use xlink:href="#DejaVuSans-62"/>
     <use x="63.476562" xlink:href="#DejaVuSans-65"/>
     <use x="125" xlink:href="#DejaVuSans-73"/>
     <use x="177.099609" xlink:href="#DejaVuSans-74"/>
     <use x="216.308594" xlink:href="#DejaVuSans-20"/>
     <use x="248.095703" xlink:href="#DejaVuSans-32"/>
     <use x="311.71875" xlink:href="#DejaVuSans-30"/>
     <use x="375.341797" xlink:href="#DejaVuSans-30"/>
     <use x="438.964844" xlink:href="#DejaVuSans-39"/>
    </g>
   </g>
   <g id="text_18">
    <!-- bbob f4, 2-D -->
    <defs>
     <path d="M 19.671875 64.796875 
L 19.671875 8.109375 
L 31.59375 8.109375 
Q 46.6875 8.109375 53.6875 14.9375 
Q 60.6875 21.78125 60.6875 36.53125 
Q 60.6875 51.171875 53.6875 57.984375 
Q 46.6875 64.796875 31.59375 64.796875 
z
M 9.8125 72.90625 
L 30.078125 72.90625 
Q 51.265625 72.90625 61.171875 64.09375 
Q 71.09375 55.28125 71.09375 36.53125 
Q 71.09375 17.671875 61.125 8.828125 
Q 51.171875 0 30.078125 0 
L 9.8125 0 
z
" id="DejaVuSans-44"/>
    </defs>
    <g transform="translate(58.89048 35.290806)scale(0.102 -0.102)">
     <use xlink:href="#DejaVuSans-62"/>
     <use x="63.476562" xlink:href="#DejaVuSans-62"/>
     <use x="126.953125" xlink:href="#DejaVuSans-6f"/>
     <use x="188.134766" xlink:href="#DejaVuSans-62"/>
     <use x="251.611328" xlink:href="#DejaVuSans-20"/>
     <use x="283.398438" xlink:href="#DejaVuSans-66"/>
     <use x="318.603516" xlink:href="#DejaVuSans-34"/>
     <use x="382.226562" xlink:href="#DejaVuSans-2c"/>
     <use x="414.013672" xlink:href="#DejaVuSans-20"/>
     <use x="445.800781" xlink:href="#DejaVuSans-32"/>
     <use x="509.423828" xlink:href="#DejaVuSans-2d"/>
     <use x="545.507812" xlink:href="#DejaVuSans-44"/>
    </g>
    <!-- 51 targets: 100..1e-08 -->
    <defs>
     <path d="M 10.796875 72.90625 
L 49.515625 72.90625 
L 49.515625 64.59375 
L 19.828125 64.59375 
L 19.828125 46.734375 
Q 21.96875 47.46875 24.109375 47.828125 
Q 26.265625 48.1875 28.421875 48.1875 
Q 40.625 48.1875 47.75 41.5 
Q 54.890625 34.8125 54.890625 23.390625 
Q 54.890625 11.625 47.5625 5.09375 
Q 40.234375 -1.421875 26.90625 -1.421875 
Q 22.3125 -1.421875 17.546875 -0.640625 
Q 12.796875 0.140625 7.71875 1.703125 
L 7.71875 11.625 
Q 12.109375 9.234375 16.796875 8.0625 
Q 21.484375 6.890625 26.703125 6.890625 
Q 35.15625 6.890625 40.078125 11.328125 
Q 45.015625 15.765625 45.015625 23.390625 
Q 45.015625 31 40.078125 35.4375 
Q 35.15625 39.890625 26.703125 39.890625 
Q 22.75 39.890625 18.8125 39.015625 
Q 14.890625 38.140625 10.796875 36.28125 
z
" id="DejaVuSans-35"/>
     <path d="M 11.71875 12.40625 
L 22.015625 12.40625 
L 22.015625 0 
L 11.71875 0 
z
M 11.71875 51.703125 
L 22.015625 51.703125 
L 22.015625 39.3125 
L 11.71875 39.3125 
z
" id="DejaVuSans-3a"/>
    </defs>
    <g transform="translate(58.89048 46.712575)scale(0.102 -0.102)">
     <use xlink:href="#DejaVuSans-35"/>
     <use x="63.623047" xlink:href="#DejaVuSans-31"/>
     <use x="127.246094" xlink:href="#DejaVuSans-20"/>
     <use x="159.033203" xlink:href="#DejaVuSans-74"/>
     <use x="198.242188" xlink:href="#DejaVuSans-61"/>
     <use x="259.521484" xlink:href="#DejaVuSans-72"/>
     <use x="300.619141" xlink:href="#DejaVuSans-67"/>
     <use x="364.095703" xlink:href="#DejaVuSans-65"/>
     <use x="425.619141" xlink:href="#DejaVuSans-74"/>
     <use x="464.828125" xlink:href="#DejaVuSans-73"/>
     <use x="516.927734" xlink:href="#DejaVuSans-3a"/>
     <use x="550.619141" xlink:href="#DejaVuSans-20"/>
     <use x="582.40625" xlink:href="#DejaVuSans-31"/>
     <use x="646.029297" xlink:href="#DejaVuSans-30"/>
     <use x="709.652344" xlink:href="#DejaVuSans-30"/>
     <use x="773.275391" xlink:href="#DejaVuSans-2e"/>
     <use x="805.0625" xlink:href="#DejaVuSans-2e"/>
     <use x="836.849609" xlink:href="#DejaVuSans-31"/>
     <use x="900.472656" xlink:href="#DejaVuSans-65"/>
     <use x="961.996094" xlink:href="#DejaVuSans-2d"/>
     <use x="998.080078" xlink:href="#DejaVuSans-30"/>
     <use x="1061.703125" xlink:href="#DejaVuSans-38"/>
    </g>
    <!-- 15 instances -->
    <g transform="translate(58.89048 58.134344)scale(0.102 -0.102)">
     <use xlink:href="#DejaVuSans-31"/>
     <use x="63.623047" xlink:href="#DejaVuSans-35"/>
     <use x="127.246094" xlink:href="#DejaVuSans-20"/>
     <use x="159.033203" xlink:href="#DejaVuSans-69"/>
     <use x="186.816406" xlink:href="#DejaVuSans-6e"/>
     <use x="250.195312" xlink:href="#DejaVuSans-73"/>
     <use x="302.294922" xlink:href="#DejaVuSans-74"/>
     <use x="341.503906" xlink:href="#DejaVuSans-61"/>
     <use x="402.783203" xlink:href="#DejaVuSans-6e"/>
     <use x="466.162109" xlink:href="#DejaVuSans-63"/>
     <use x="521.142578" xlink:href="#DejaVuSans-65"/>
     <use x="582.666016" xlink:href="#DejaVuSans-73"/>
    </g>
   </g>
   <g id="text_19">
    <!-- v0.0.0 -->
    <g style="fill:#808080;" transform="translate(178.96275 290.099912)scale(0.1 -0.1)">
     <use xlink:href="#DejaVuSans-76"/>
     <use x="59.179688" xlink:href="#DejaVuSans-30"/>
     <use x="122.802734" xlink:href="#DejaVuSans-2e"/>
     <use x="154.589844" xlink:href="#DejaVuSans-30"/>
     <use x="218.212891" xlink:href="#DejaVuSans-2e"/>
     <use x="250" xlink:href="#DejaVuSans-30"/>
    </g>
   </g>
   <g id="text_20">
    <!-- 4 Skew Rastrigin-Bueche separ -->
    <defs>
     <path d="M 9.078125 75.984375 
L 18.109375 75.984375 
L 18.109375 31.109375 
L 44.921875 54.6875 
L 56.390625 54.6875 
L 27.390625 29.109375 
L 57.625 0 
L 45.90625 0 
L 18.109375 26.703125 
L 18.109375 0 
L 9.078125 0 
z
" id="DejaVuSans-6b"/>
     <path d="M 4.203125 54.6875 
L 13.1875 54.6875 
L 24.421875 12.015625 
L 35.59375 54.6875 
L 46.1875 54.6875 
L 57.421875 12.015625 
L 68.609375 54.6875 
L 77.59375 54.6875 
L 63.28125 0 
L 52.6875 0 
L 40.921875 44.828125 
L 29.109375 0 
L 18.5 0 
z
" id="DejaVuSans-77"/>
     <path d="M 44.390625 34.1875 
Q 47.5625 33.109375 50.5625 29.59375 
Q 53.5625 26.078125 56.59375 19.921875 
L 66.609375 0 
L 56 0 
L 46.6875 18.703125 
Q 43.0625 26.03125 39.671875 28.421875 
Q 36.28125 30.8125 30.421875 30.8125 
L 19.671875 30.8125 
L 19.671875 0 
L 9.8125 0 
L 9.8125 72.90625 
L 32.078125 72.90625 
Q 44.578125 72.90625 50.734375 67.671875 
Q 56.890625 62.453125 56.890625 51.90625 
Q 56.890625 45.015625 53.6875 40.46875 
Q 50.484375 35.9375 44.390625 34.1875 
z
M 19.671875 64.796875 
L 19.671875 38.921875 
L 32.078125 38.921875 
Q 39.203125 38.921875 42.84375 42.21875 
Q 46.484375 45.515625 46.484375 51.90625 
Q 46.484375 58.296875 42.84375 61.546875 
Q 39.203125 64.796875 32.078125 64.796875 
z
" id="DejaVuSans-52"/>
     <path d="M 19.671875 34.8125 
L 19.671875 8.109375 
L 35.5 8.109375 
Q 43.453125 8.109375 47.28125 11.40625 
Q 51.125 14.703125 51.125 21.484375 
Q 51.125 28.328125 47.28125 31.5625 
Q 43.453125 34.8125 35.5 34.8125 
z
M 19.671875 64.796875 
L 19.671875 42.828125 
L 34.28125 42.828125 
Q 41.5 42.828125 45.03125 45.53125 
Q 48.578125 48.25 48.578125 53.8125 
Q 48.578125 59.328125 45.03125 62.0625 
Q 41.5 64.796875 34.28125 64.796875 
z
M 9.8125 72.90625 
L 35.015625 72.90625 
Q 46.296875 72.90625 52.390625 68.21875 
Q 58.5 63.53125 58.5 54.890625 
Q 58.5 48.1875 55.375 44.234375 
Q 52.25 40.28125 46.1875 39.3125 
Q 53.46875 37.75 57.5 32.78125 
Q 61.53125 27.828125 61.53125 20.40625 
Q 61.53125 10.640625 54.890625 5.3125 
Q 48.25 0 35.984375 0 
L 9.8125 0 
z
" id="DejaVuSans-42"/>
     <path d="M 54.890625 33.015625 
L 54.890625 0 
L 45.90625 0 
L 45.90625 32.71875 
Q 45.90625 40.484375 42.875 44.328125 
Q 39.84375 48.1875 33.796875 48.1875 
Q 26.515625 48.1875 22.3125 43.546875 
Q 18.109375 38.921875 18.109375 30.90625 
L 18.109375 0 
L 9.078125 0 
L 9.078125 75.984375 
L 18.109375 75.984375 
L 18.109375 46.1875 
Q 21.34375 51.125 25.703125 53.5625 
Q 30.078125 56 35.796875 56 
Q 45.21875 56 50.046875 50.171875 
Q 54.890625 44.34375 54.890625 33.015625 
z
" id="DejaVuSans-68"/>
    </defs>
    <g transform="translate(38.8315 18.84)scale(0.2 -0.2)">
     <use xlink:href="#DejaVuSans-34"/>
     <use x="63.623047" xlink:href="#DejaVuSans-20"/>
     <use x="95.410156" xlink:href="#DejaVuSans-53"/>
     <use x="158.886719" xlink:href="#DejaVuSans-6b"/>
     <use x="216.75" xlink:href="#DejaVuSans-65"/>
     <use x="278.273438" xlink:href="#DejaVuSans-77"/>
     <use x="360.060547" xlink:href="#DejaVuSans-20"/>
     <use x="391.847656" xlink:href="#DejaVuSans-52"/>
     <use x="461.298828" xlink:href="#DejaVuSans-61"/>
     <use x="522.578125" xlink:href="#DejaVuSans-73"/>
     <use x="574.677734" xlink:href="#DejaVuSans-74"/>
     <use x="613.886719" xlink:href="#DejaVuSans-72"/>
     <use x="655" xlink:href="#DejaVuSans-69"/>
     <use x="682.783203" xlink:href="#DejaVuSans-67"/>
     <use x="746.259766" xlink:href="#DejaVuSans-69"/>
     <use x="774.042969" xlink:href="#DejaVuSans-6e"/>
     <use x="837.421875" xlink:href="#DejaVuSans-2d"/>
     <use x="873.458984" xlink:href="#DejaVuSans-42"/>
     <use x="942.0625" xlink:href="#DejaVuSans-75"/>
     <use x="1005.441406" xlink:href="#DejaVuSans-65"/>
     <use x="1066.964844" xlink:href="#DejaVuSans-63"/>
     <use x="1121.945312" xlink:href="#DejaVuSans-68"/>
     <use x="1185.324219" xlink:href="#DejaVuSans-65"/>
     <use x="1246.847656" xlink:href="#DejaVuSans-20"/>
     <use x="1278.634766" xlink:href="#DejaVuSans-73"/>
     <use x="1330.734375" xlink:href="#DejaVuSans-65"/>
     <use x="1392.257812" xlink:href="#DejaVuSans-70"/>
     <use x="1455.734375" xlink:href="#DejaVuSans-61"/>
     <use x="1517.013672" xlink:href="#DejaVuSans-72"/>
    </g>
   </g>
  </g>
 </g>
 <defs>
  <clipPath id="pbcab8d2f29">
   <rect height="270.04" width="277.048" x="56.12" y="24.84"/>
  </clipPath>
 </defs>
</svg>
