<?xml version="1.0" encoding="utf-8" standalone="no"?>
<!DOCTYPE svg PUBLIC "-//W3C//DTD SVG 1.1//EN"
  "http://www.w3.org/Graphics/SVG/1.1/DTD/svg11.dtd">
<!-- Created with matplotlib (http://matplotlib.org/) -->
<svg height="345pt" version="1.1" viewBox="0 0 460 345" width="460pt" xmlns="http://www.w3.org/2000/svg" xmlns:xlink="http://www.w3.org/1999/xlink">
 <defs>
  <style type="text/css">
*{stroke-linecap:butt;stroke-linejoin:round;}
  </style>
 </defs>
 <g id="figure_1">
  <g id="patch_1">
   <path d="M 0 345.6 
L 460.8 345.6 
L 460.8 0 
L 0 0 
z
" style="fill:#ffffff;"/>
  </g>
  <g id="axes_1">
   <g id="patch_2">
    <path d="M 56.12 294.88 
L 333.168 294.88 
L 333.168 24.84 
L 56.12 24.84 
z
" style="fill:#ffffff;"/>
   </g>
   <g id="line2d_1">
    <path d="M 92.904808 294.88 
L 92.904808 289.637523 
L 94.543059 289.637523 
L 94.543059 284.395046 
L 96.618578 284.395046 
L 96.618578 279.152568 
L 98.688305 279.152568 
L 98.688305 273.910091 
L 111.922736 273.910091 
L 111.922736 268.667614 
L 116.010559 268.667614 
L 116.010559 263.425137 
L 116.631902 263.425137 
L 116.631902 258.18266 
L 120.242208 258.18266 
L 120.242208 252.940182 
L 132.72406 252.940182 
L 132.72406 247.697705 
L 134.056882 247.697705 
L 134.056882 242.455228 
L 135.456111 242.455228 
L 135.456111 237.212751 
L 136.686739 237.212751 
L 136.686739 231.970274 
L 137.760898 231.970274 
L 137.760898 226.727797 
L 138.890669 226.727797 
L 138.890669 221.485319 
L 139.779642 221.485319 
L 139.779642 216.242842 
L 140.756604 216.242842 
L 140.756604 211.000365 
L 141.681012 211.000365 
L 141.681012 205.757888 
L 142.541345 205.757888 
L 142.541345 200.515411 
L 143.392849 200.515411 
L 143.392849 195.272933 
L 144.122158 195.272933 
L 144.122158 190.030456 
L 144.929944 190.030456 
L 144.929944 184.787979 
L 145.785609 184.787979 
L 145.785609 179.545502 
L 149.061881 179.545502 
L 149.061881 174.303025 
L 166.661625 174.303025 
L 166.661625 169.060547 
L 173.14383 169.060547 
L 173.14383 163.81807 
L 173.744612 163.81807 
L 173.744612 158.575593 
L 174.250488 158.575593 
L 174.250488 153.333116 
L 174.678633 153.333116 
L 174.678633 148.090639 
L 175.260833 148.090639 
L 175.260833 142.848162 
L 175.795503 142.848162 
L 175.795503 137.605684 
L 176.271357 137.605684 
L 176.271357 132.363207 
L 176.701232 132.363207 
L 176.701232 127.12073 
L 177.120618 127.12073 
L 177.120618 121.878253 
L 177.534428 121.878253 
L 177.534428 116.635776 
L 177.929887 116.635776 
L 177.929887 111.393298 
L 178.311532 111.393298 
L 178.311532 106.150821 
L 178.735022 106.150821 
L 178.735022 100.908344 
L 179.133593 100.908344 
L 179.133593 95.665867 
L 179.540808 95.665867 
L 179.540808 90.42339 
L 179.916845 90.42339 
L 179.916845 85.180912 
L 180.282325 85.180912 
L 180.282325 79.938435 
L 180.632828 79.938435 
L 180.632828 74.695958 
L 180.966693 74.695958 
L 180.966693 69.453481 
L 181.253376 69.453481 
L 181.253376 64.211004 
L 181.608615 64.211004 
L 181.608615 58.968526 
L 181.939027 58.968526 
L 181.939027 53.726049 
L 182.274373 53.726049 
L 182.274373 48.483572 
L 182.540766 48.483572 
L 182.540766 43.241095 
L 182.850116 43.241095 
L 182.850116 37.998618 
L 183.129055 37.998618 
L 183.129055 32.756141 
L 183.38733 32.756141 
L 183.38733 27.513663 
L 333.168 27.513663 
" style="fill:none;stroke:#f5deb3;stroke-linecap:square;stroke-width:4;"/>
   </g>
   <g id="line2d_2">
    <defs>
     <path d="M -0 7.778175 
L 7.778175 0 
L 0 -7.778175 
L -7.778175 -0 
z
" id="m7c902a6547" style="stroke:#f5deb3;stroke-linejoin:miter;stroke-width:1.5;"/>
    </defs>
    <g>
     <use style="fill:#f5deb3;stroke:#f5deb3;stroke-linejoin:miter;stroke-width:1.5;" x="174.678633" xlink:href="#m7c902a6547" y="153.333116"/>
     <use style="fill:#f5deb3;stroke:#f5deb3;stroke-linejoin:miter;stroke-width:1.5;" x="182.274373" xlink:href="#m7c902a6547" y="48.483572"/>
     <use style="fill:#f5deb3;stroke:#f5deb3;stroke-linejoin:miter;stroke-width:1.5;" x="183.38733" xlink:href="#m7c902a6547" y="27.513663"/>
     <use style="fill:#f5deb3;stroke:#f5deb3;stroke-linejoin:miter;stroke-width:1.5;" x="183.38733" xlink:href="#m7c902a6547" y="27.513663"/>
     <use style="fill:#f5deb3;stroke:#f5deb3;stroke-linejoin:miter;stroke-width:1.5;" x="333.168" xlink:href="#m7c902a6547" y="27.513663"/>
    </g>
   </g>
   <g id="line2d_3">
    <path style="fill:none;stroke:#f5deb3;stroke-linecap:square;stroke-width:4;"/>
    <g/>
   </g>
   <g id="line2d_4">
    <path d="M 333.168 27.513663 
L 363.64328 32.86099 
" style="fill:none;stroke:#f5deb3;stroke-linecap:square;stroke-width:4;"/>
    <g>
     <use style="fill:#f5deb3;stroke:#f5deb3;stroke-linejoin:miter;stroke-width:1.5;" x="333.168" xlink:href="#m7c902a6547" y="27.513663"/>
     <use style="fill:#f5deb3;stroke:#f5deb3;stroke-linejoin:miter;stroke-width:1.5;" x="363.64328" xlink:href="#m7c902a6547" y="32.86099"/>
    </g>
   </g>
   <g id="matplotlib.axis_1">
    <g id="xtick_1">
     <g id="line2d_5">
      <path clip-path="url(#pfc79fdf924)" d="M 56.12 294.88 
L 56.12 24.84 
" style="fill:none;stroke:#b0b0b0;stroke-linecap:square;stroke-width:0.8;"/>
     </g>
     <g id="line2d_6">
      <defs>
       <path d="M 0 0 
L 0 3.5 
" id="m21e5a414a7" style="stroke:#000000;stroke-width:0.8;"/>
      </defs>
      <g>
       <use style="stroke:#000000;stroke-width:0.8;" x="56.12" xlink:href="#m21e5a414a7" y="294.88"/>
      </g>
     </g>
     <g id="text_1">
      <!-- 0 -->
      <defs>
       <path d="M 31.78125 66.40625 
Q 24.171875 66.40625 20.328125 58.90625 
Q 16.5 51.421875 16.5 36.375 
Q 16.5 21.390625 20.328125 13.890625 
Q 24.171875 6.390625 31.78125 6.390625 
Q 39.453125 6.390625 43.28125 13.890625 
Q 47.125 21.390625 47.125 36.375 
Q 47.125 51.421875 43.28125 58.90625 
Q 39.453125 66.40625 31.78125 66.40625 
z
M 31.78125 74.21875 
Q 44.046875 74.21875 50.515625 64.515625 
Q 56.984375 54.828125 56.984375 36.375 
Q 56.984375 17.96875 50.515625 8.265625 
Q 44.046875 -1.421875 31.78125 -1.421875 
Q 19.53125 -1.421875 13.0625 8.265625 
Q 6.59375 17.96875 6.59375 36.375 
Q 6.59375 54.828125 13.0625 64.515625 
Q 19.53125 74.21875 31.78125 74.21875 
z
" id="DejaVuSans-30"/>
      </defs>
      <g transform="translate(49.7575 317.076875)scale(0.2 -0.2)">
       <use xlink:href="#DejaVuSans-30"/>
      </g>
     </g>
    </g>
    <g id="xtick_2">
     <g id="line2d_7">
      <path clip-path="url(#pfc79fdf924)" d="M 135.276571 294.88 
L 135.276571 24.84 
" style="fill:none;stroke:#b0b0b0;stroke-linecap:square;stroke-width:0.8;"/>
     </g>
     <g id="line2d_8">
      <g>
       <use style="stroke:#000000;stroke-width:0.8;" x="135.276571" xlink:href="#m21e5a414a7" y="294.88"/>
      </g>
     </g>
     <g id="text_2">
      <!-- 2 -->
      <defs>
       <path d="M 19.1875 8.296875 
L 53.609375 8.296875 
L 53.609375 0 
L 7.328125 0 
L 7.328125 8.296875 
Q 12.9375 14.109375 22.625 23.890625 
Q 32.328125 33.6875 34.8125 36.53125 
Q 39.546875 41.84375 41.421875 45.53125 
Q 43.3125 49.21875 43.3125 52.78125 
Q 43.3125 58.59375 39.234375 62.25 
Q 35.15625 65.921875 28.609375 65.921875 
Q 23.96875 65.921875 18.8125 64.3125 
Q 13.671875 62.703125 7.8125 59.421875 
L 7.8125 69.390625 
Q 13.765625 71.78125 18.9375 73 
Q 24.125 74.21875 28.421875 74.21875 
Q 39.75 74.21875 46.484375 68.546875 
Q 53.21875 62.890625 53.21875 53.421875 
Q 53.21875 48.921875 51.53125 44.890625 
Q 49.859375 40.875 45.40625 35.40625 
Q 44.1875 33.984375 37.640625 27.21875 
Q 31.109375 20.453125 19.1875 8.296875 
z
" id="DejaVuSans-32"/>
      </defs>
      <g transform="translate(128.914071 317.076875)scale(0.2 -0.2)">
       <use xlink:href="#DejaVuSans-32"/>
      </g>
     </g>
    </g>
    <g id="xtick_3">
     <g id="line2d_9">
      <path clip-path="url(#pfc79fdf924)" d="M 214.433143 294.88 
L 214.433143 24.84 
" style="fill:none;stroke:#b0b0b0;stroke-linecap:square;stroke-width:0.8;"/>
     </g>
     <g id="line2d_10">
      <g>
       <use style="stroke:#000000;stroke-width:0.8;" x="214.433143" xlink:href="#m21e5a414a7" y="294.88"/>
      </g>
     </g>
     <g id="text_3">
      <!-- 4 -->
      <defs>
       <path d="M 37.796875 64.3125 
L 12.890625 25.390625 
L 37.796875 25.390625 
z
M 35.203125 72.90625 
L 47.609375 72.90625 
L 47.609375 25.390625 
L 58.015625 25.390625 
L 58.015625 17.1875 
L 47.609375 17.1875 
L 47.609375 0 
L 37.796875 0 
L 37.796875 17.1875 
L 4.890625 17.1875 
L 4.890625 26.703125 
z
" id="DejaVuSans-34"/>
      </defs>
      <g transform="translate(208.070643 317.076875)scale(0.2 -0.2)">
       <use xlink:href="#DejaVuSans-34"/>
      </g>
     </g>
    </g>
    <g id="xtick_4">
     <g id="line2d_11">
      <path clip-path="url(#pfc79fdf924)" d="M 293.589714 294.88 
L 293.589714 24.84 
" style="fill:none;stroke:#b0b0b0;stroke-linecap:square;stroke-width:0.8;"/>
     </g>
     <g id="line2d_12">
      <g>
       <use style="stroke:#000000;stroke-width:0.8;" x="293.589714" xlink:href="#m21e5a414a7" y="294.88"/>
      </g>
     </g>
     <g id="text_4">
      <!-- 6 -->
      <defs>
       <path d="M 33.015625 40.375 
Q 26.375 40.375 22.484375 35.828125 
Q 18.609375 31.296875 18.609375 23.390625 
Q 18.609375 15.53125 22.484375 10.953125 
Q 26.375 6.390625 33.015625 6.390625 
Q 39.65625 6.390625 43.53125 10.953125 
Q 47.40625 15.53125 47.40625 23.390625 
Q 47.40625 31.296875 43.53125 35.828125 
Q 39.65625 40.375 33.015625 40.375 
z
M 52.59375 71.296875 
L 52.59375 62.3125 
Q 48.875 64.0625 45.09375 64.984375 
Q 41.3125 65.921875 37.59375 65.921875 
Q 27.828125 65.921875 22.671875 59.328125 
Q 17.53125 52.734375 16.796875 39.40625 
Q 19.671875 43.65625 24.015625 45.921875 
Q 28.375 48.1875 33.59375 48.1875 
Q 44.578125 48.1875 50.953125 41.515625 
Q 57.328125 34.859375 57.328125 23.390625 
Q 57.328125 12.15625 50.6875 5.359375 
Q 44.046875 -1.421875 33.015625 -1.421875 
Q 20.359375 -1.421875 13.671875 8.265625 
Q 6.984375 17.96875 6.984375 36.375 
Q 6.984375 53.65625 15.1875 63.9375 
Q 23.390625 74.21875 37.203125 74.21875 
Q 40.921875 74.21875 44.703125 73.484375 
Q 48.484375 72.75 52.59375 71.296875 
z
" id="DejaVuSans-36"/>
      </defs>
      <g transform="translate(287.227214 317.076875)scale(0.2 -0.2)">
       <use xlink:href="#DejaVuSans-36"/>
      </g>
     </g>
    </g>
    <g id="xtick_5">
     <g id="line2d_13">
      <path clip-path="url(#pfc79fdf924)" d="M 56.12 294.88 
L 56.12 24.84 
" style="fill:none;stroke:#b0b0b0;stroke-linecap:square;stroke-width:0.8;"/>
     </g>
     <g id="line2d_14">
      <defs>
       <path d="M 0 0 
L 0 2 
" id="m7fad7af3ee" style="stroke:#000000;stroke-width:0.6;"/>
      </defs>
      <g>
       <use style="stroke:#000000;stroke-width:0.6;" x="56.12" xlink:href="#m7fad7af3ee" y="294.88"/>
      </g>
     </g>
    </g>
    <g id="xtick_6">
     <g id="line2d_15">
      <path clip-path="url(#pfc79fdf924)" d="M 95.698286 294.88 
L 95.698286 24.84 
" style="fill:none;stroke:#b0b0b0;stroke-linecap:square;stroke-width:0.8;"/>
     </g>
     <g id="line2d_16">
      <g>
       <use style="stroke:#000000;stroke-width:0.6;" x="95.698286" xlink:href="#m7fad7af3ee" y="294.88"/>
      </g>
     </g>
    </g>
    <g id="xtick_7">
     <g id="line2d_17">
      <path clip-path="url(#pfc79fdf924)" d="M 135.276571 294.88 
L 135.276571 24.84 
" style="fill:none;stroke:#b0b0b0;stroke-linecap:square;stroke-width:0.8;"/>
     </g>
     <g id="line2d_18">
      <g>
       <use style="stroke:#000000;stroke-width:0.6;" x="135.276571" xlink:href="#m7fad7af3ee" y="294.88"/>
      </g>
     </g>
    </g>
    <g id="xtick_8">
     <g id="line2d_19">
      <path clip-path="url(#pfc79fdf924)" d="M 174.854857 294.88 
L 174.854857 24.84 
" style="fill:none;stroke:#b0b0b0;stroke-linecap:square;stroke-width:0.8;"/>
     </g>
     <g id="line2d_20">
      <g>
       <use style="stroke:#000000;stroke-width:0.6;" x="174.854857" xlink:href="#m7fad7af3ee" y="294.88"/>
      </g>
     </g>
    </g>
    <g id="xtick_9">
     <g id="line2d_21">
      <path clip-path="url(#pfc79fdf924)" d="M 214.433143 294.88 
L 214.433143 24.84 
" style="fill:none;stroke:#b0b0b0;stroke-linecap:square;stroke-width:0.8;"/>
     </g>
     <g id="line2d_22">
      <g>
       <use style="stroke:#000000;stroke-width:0.6;" x="214.433143" xlink:href="#m7fad7af3ee" y="294.88"/>
      </g>
     </g>
    </g>
    <g id="xtick_10">
     <g id="line2d_23">
      <path clip-path="url(#pfc79fdf924)" d="M 254.011429 294.88 
L 254.011429 24.84 
" style="fill:none;stroke:#b0b0b0;stroke-linecap:square;stroke-width:0.8;"/>
     </g>
     <g id="line2d_24">
      <g>
       <use style="stroke:#000000;stroke-width:0.6;" x="254.011429" xlink:href="#m7fad7af3ee" y="294.88"/>
      </g>
     </g>
    </g>
    <g id="xtick_11">
     <g id="line2d_25">
      <path clip-path="url(#pfc79fdf924)" d="M 293.589714 294.88 
L 293.589714 24.84 
" style="fill:none;stroke:#b0b0b0;stroke-linecap:square;stroke-width:0.8;"/>
     </g>
     <g id="line2d_26">
      <g>
       <use style="stroke:#000000;stroke-width:0.6;" x="293.589714" xlink:href="#m7fad7af3ee" y="294.88"/>
      </g>
     </g>
    </g>
    <g id="xtick_12">
     <g id="line2d_27">
      <path clip-path="url(#pfc79fdf924)" d="M 333.168 294.88 
L 333.168 24.84 
" style="fill:none;stroke:#b0b0b0;stroke-linecap:square;stroke-width:0.8;"/>
     </g>
     <g id="line2d_28">
      <g>
       <use style="stroke:#000000;stroke-width:0.6;" x="333.168" xlink:href="#m7fad7af3ee" y="294.88"/>
      </g>
     </g>
    </g>
    <g id="text_5">
     <!-- log10(# f-evals / dimension) -->
     <defs>
      <path d="M 9.421875 75.984375 
L 18.40625 75.984375 
L 18.40625 0 
L 9.421875 0 
z
" id="DejaVuSans-6c"/>
      <path d="M 30.609375 48.390625 
Q 23.390625 48.390625 19.1875 42.75 
Q 14.984375 37.109375 14.984375 27.296875 
Q 14.984375 17.484375 19.15625 11.84375 
Q 23.34375 6.203125 30.609375 6.203125 
Q 37.796875 6.203125 41.984375 11.859375 
Q 46.1875 17.53125 46.1875 27.296875 
Q 46.1875 37.015625 41.984375 42.703125 
Q 37.796875 48.390625 30.609375 48.390625 
z
M 30.609375 56 
Q 42.328125 56 49.015625 48.375 
Q 55.71875 40.765625 55.71875 27.296875 
Q 55.71875 13.875 49.015625 6.21875 
Q 42.328125 -1.421875 30.609375 -1.421875 
Q 18.84375 -1.421875 12.171875 6.21875 
Q 5.515625 13.875 5.515625 27.296875 
Q 5.515625 40.765625 12.171875 48.375 
Q 18.84375 56 30.609375 56 
z
" id="DejaVuSans-6f"/>
      <path d="M 45.40625 27.984375 
Q 45.40625 37.75 41.375 43.109375 
Q 37.359375 48.484375 30.078125 48.484375 
Q 22.859375 48.484375 18.828125 43.109375 
Q 14.796875 37.75 14.796875 27.984375 
Q 14.796875 18.265625 18.828125 12.890625 
Q 22.859375 7.515625 30.078125 7.515625 
Q 37.359375 7.515625 41.375 12.890625 
Q 45.40625 18.265625 45.40625 27.984375 
z
M 54.390625 6.78125 
Q 54.390625 -7.171875 48.1875 -13.984375 
Q 42 -20.796875 29.203125 -20.796875 
Q 24.46875 -20.796875 20.265625 -20.09375 
Q 16.0625 -19.390625 12.109375 -17.921875 
L 12.109375 -9.1875 
Q 16.0625 -11.328125 19.921875 -12.34375 
Q 23.78125 -13.375 27.78125 -13.375 
Q 36.625 -13.375 41.015625 -8.765625 
Q 45.40625 -4.15625 45.40625 5.171875 
L 45.40625 9.625 
Q 42.625 4.78125 38.28125 2.390625 
Q 33.9375 0 27.875 0 
Q 17.828125 0 11.671875 7.65625 
Q 5.515625 15.328125 5.515625 27.984375 
Q 5.515625 40.671875 11.671875 48.328125 
Q 17.828125 56 27.875 56 
Q 33.9375 56 38.28125 53.609375 
Q 42.625 51.21875 45.40625 46.390625 
L 45.40625 54.6875 
L 54.390625 54.6875 
z
" id="DejaVuSans-67"/>
      <path d="M 12.40625 8.296875 
L 28.515625 8.296875 
L 28.515625 63.921875 
L 10.984375 60.40625 
L 10.984375 69.390625 
L 28.421875 72.90625 
L 38.28125 72.90625 
L 38.28125 8.296875 
L 54.390625 8.296875 
L 54.390625 0 
L 12.40625 0 
z
" id="DejaVuSans-31"/>
      <path d="M 31 75.875 
Q 24.46875 64.65625 21.28125 53.65625 
Q 18.109375 42.671875 18.109375 31.390625 
Q 18.109375 20.125 21.3125 9.0625 
Q 24.515625 -2 31 -13.1875 
L 23.1875 -13.1875 
Q 15.875 -1.703125 12.234375 9.375 
Q 8.59375 20.453125 8.59375 31.390625 
Q 8.59375 42.28125 12.203125 53.3125 
Q 15.828125 64.359375 23.1875 75.875 
z
" id="DejaVuSans-28"/>
      <path d="M 51.125 44 
L 36.921875 44 
L 32.8125 27.6875 
L 47.125 27.6875 
z
M 43.796875 71.78125 
L 38.71875 51.515625 
L 52.984375 51.515625 
L 58.109375 71.78125 
L 65.921875 71.78125 
L 60.890625 51.515625 
L 76.125 51.515625 
L 76.125 44 
L 58.984375 44 
L 54.984375 27.6875 
L 70.515625 27.6875 
L 70.515625 20.21875 
L 53.078125 20.21875 
L 48 0 
L 40.1875 0 
L 45.21875 20.21875 
L 30.90625 20.21875 
L 25.875 0 
L 18.015625 0 
L 23.09375 20.21875 
L 7.71875 20.21875 
L 7.71875 27.6875 
L 24.90625 27.6875 
L 29 44 
L 13.28125 44 
L 13.28125 51.515625 
L 30.90625 51.515625 
L 35.890625 71.78125 
z
" id="DejaVuSans-23"/>
      <path id="DejaVuSans-20"/>
      <path d="M 37.109375 75.984375 
L 37.109375 68.5 
L 28.515625 68.5 
Q 23.6875 68.5 21.796875 66.546875 
Q 19.921875 64.59375 19.921875 59.515625 
L 19.921875 54.6875 
L 34.71875 54.6875 
L 34.71875 47.703125 
L 19.921875 47.703125 
L 19.921875 0 
L 10.890625 0 
L 10.890625 47.703125 
L 2.296875 47.703125 
L 2.296875 54.6875 
L 10.890625 54.6875 
L 10.890625 58.5 
Q 10.890625 67.625 15.140625 71.796875 
Q 19.390625 75.984375 28.609375 75.984375 
z
" id="DejaVuSans-66"/>
      <path d="M 4.890625 31.390625 
L 31.203125 31.390625 
L 31.203125 23.390625 
L 4.890625 23.390625 
z
" id="DejaVuSans-2d"/>
      <path d="M 56.203125 29.59375 
L 56.203125 25.203125 
L 14.890625 25.203125 
Q 15.484375 15.921875 20.484375 11.0625 
Q 25.484375 6.203125 34.421875 6.203125 
Q 39.59375 6.203125 44.453125 7.46875 
Q 49.3125 8.734375 54.109375 11.28125 
L 54.109375 2.78125 
Q 49.265625 0.734375 44.1875 -0.34375 
Q 39.109375 -1.421875 33.890625 -1.421875 
Q 20.796875 -1.421875 13.15625 6.1875 
Q 5.515625 13.8125 5.515625 26.8125 
Q 5.515625 40.234375 12.765625 48.109375 
Q 20.015625 56 32.328125 56 
Q 43.359375 56 49.78125 48.890625 
Q 56.203125 41.796875 56.203125 29.59375 
z
M 47.21875 32.234375 
Q 47.125 39.59375 43.09375 43.984375 
Q 39.0625 48.390625 32.421875 48.390625 
Q 24.90625 48.390625 20.390625 44.140625 
Q 15.875 39.890625 15.1875 32.171875 
z
" id="DejaVuSans-65"/>
      <path d="M 2.984375 54.6875 
L 12.5 54.6875 
L 29.59375 8.796875 
L 46.6875 54.6875 
L 56.203125 54.6875 
L 35.6875 0 
L 23.484375 0 
z
" id="DejaVuSans-76"/>
      <path d="M 34.28125 27.484375 
Q 23.390625 27.484375 19.1875 25 
Q 14.984375 22.515625 14.984375 16.5 
Q 14.984375 11.71875 18.140625 8.90625 
Q 21.296875 6.109375 26.703125 6.109375 
Q 34.1875 6.109375 38.703125 11.40625 
Q 43.21875 16.703125 43.21875 25.484375 
L 43.21875 27.484375 
z
M 52.203125 31.203125 
L 52.203125 0 
L 43.21875 0 
L 43.21875 8.296875 
Q 40.140625 3.328125 35.546875 0.953125 
Q 30.953125 -1.421875 24.3125 -1.421875 
Q 15.921875 -1.421875 10.953125 3.296875 
Q 6 8.015625 6 15.921875 
Q 6 25.140625 12.171875 29.828125 
Q 18.359375 34.515625 30.609375 34.515625 
L 43.21875 34.515625 
L 43.21875 35.40625 
Q 43.21875 41.609375 39.140625 45 
Q 35.0625 48.390625 27.6875 48.390625 
Q 23 48.390625 18.546875 47.265625 
Q 14.109375 46.140625 10.015625 43.890625 
L 10.015625 52.203125 
Q 14.9375 54.109375 19.578125 55.046875 
Q 24.21875 56 28.609375 56 
Q 40.484375 56 46.34375 49.84375 
Q 52.203125 43.703125 52.203125 31.203125 
z
" id="DejaVuSans-61"/>
      <path d="M 44.28125 53.078125 
L 44.28125 44.578125 
Q 40.484375 46.53125 36.375 47.5 
Q 32.28125 48.484375 27.875 48.484375 
Q 21.1875 48.484375 17.84375 46.4375 
Q 14.5 44.390625 14.5 40.28125 
Q 14.5 37.15625 16.890625 35.375 
Q 19.28125 33.59375 26.515625 31.984375 
L 29.59375 31.296875 
Q 39.15625 29.25 43.1875 25.515625 
Q 47.21875 21.78125 47.21875 15.09375 
Q 47.21875 7.46875 41.1875 3.015625 
Q 35.15625 -1.421875 24.609375 -1.421875 
Q 20.21875 -1.421875 15.453125 -0.5625 
Q 10.6875 0.296875 5.421875 2 
L 5.421875 11.28125 
Q 10.40625 8.6875 15.234375 7.390625 
Q 20.0625 6.109375 24.8125 6.109375 
Q 31.15625 6.109375 34.5625 8.28125 
Q 37.984375 10.453125 37.984375 14.40625 
Q 37.984375 18.0625 35.515625 20.015625 
Q 33.0625 21.96875 24.703125 23.78125 
L 21.578125 24.515625 
Q 13.234375 26.265625 9.515625 29.90625 
Q 5.8125 33.546875 5.8125 39.890625 
Q 5.8125 47.609375 11.28125 51.796875 
Q 16.75 56 26.8125 56 
Q 31.78125 56 36.171875 55.265625 
Q 40.578125 54.546875 44.28125 53.078125 
z
" id="DejaVuSans-73"/>
      <path d="M 25.390625 72.90625 
L 33.6875 72.90625 
L 8.296875 -9.28125 
L 0 -9.28125 
z
" id="DejaVuSans-2f"/>
      <path d="M 45.40625 46.390625 
L 45.40625 75.984375 
L 54.390625 75.984375 
L 54.390625 0 
L 45.40625 0 
L 45.40625 8.203125 
Q 42.578125 3.328125 38.25 0.953125 
Q 33.9375 -1.421875 27.875 -1.421875 
Q 17.96875 -1.421875 11.734375 6.484375 
Q 5.515625 14.40625 5.515625 27.296875 
Q 5.515625 40.1875 11.734375 48.09375 
Q 17.96875 56 27.875 56 
Q 33.9375 56 38.25 53.625 
Q 42.578125 51.265625 45.40625 46.390625 
z
M 14.796875 27.296875 
Q 14.796875 17.390625 18.875 11.75 
Q 22.953125 6.109375 30.078125 6.109375 
Q 37.203125 6.109375 41.296875 11.75 
Q 45.40625 17.390625 45.40625 27.296875 
Q 45.40625 37.203125 41.296875 42.84375 
Q 37.203125 48.484375 30.078125 48.484375 
Q 22.953125 48.484375 18.875 42.84375 
Q 14.796875 37.203125 14.796875 27.296875 
z
" id="DejaVuSans-64"/>
      <path d="M 9.421875 54.6875 
L 18.40625 54.6875 
L 18.40625 0 
L 9.421875 0 
z
M 9.421875 75.984375 
L 18.40625 75.984375 
L 18.40625 64.59375 
L 9.421875 64.59375 
z
" id="DejaVuSans-69"/>
      <path d="M 52 44.1875 
Q 55.375 50.25 60.0625 53.125 
Q 64.75 56 71.09375 56 
Q 79.640625 56 84.28125 50.015625 
Q 88.921875 44.046875 88.921875 33.015625 
L 88.921875 0 
L 79.890625 0 
L 79.890625 32.71875 
Q 79.890625 40.578125 77.09375 44.375 
Q 74.3125 48.1875 68.609375 48.1875 
Q 61.625 48.1875 57.5625 43.546875 
Q 53.515625 38.921875 53.515625 30.90625 
L 53.515625 0 
L 44.484375 0 
L 44.484375 32.71875 
Q 44.484375 40.625 41.703125 44.40625 
Q 38.921875 48.1875 33.109375 48.1875 
Q 26.21875 48.1875 22.15625 43.53125 
Q 18.109375 38.875 18.109375 30.90625 
L 18.109375 0 
L 9.078125 0 
L 9.078125 54.6875 
L 18.109375 54.6875 
L 18.109375 46.1875 
Q 21.1875 51.21875 25.484375 53.609375 
Q 29.78125 56 35.6875 56 
Q 41.65625 56 45.828125 52.96875 
Q 50 49.953125 52 44.1875 
z
" id="DejaVuSans-6d"/>
      <path d="M 54.890625 33.015625 
L 54.890625 0 
L 45.90625 0 
L 45.90625 32.71875 
Q 45.90625 40.484375 42.875 44.328125 
Q 39.84375 48.1875 33.796875 48.1875 
Q 26.515625 48.1875 22.3125 43.546875 
Q 18.109375 38.921875 18.109375 30.90625 
L 18.109375 0 
L 9.078125 0 
L 9.078125 54.6875 
L 18.109375 54.6875 
L 18.109375 46.1875 
Q 21.34375 51.125 25.703125 53.5625 
Q 30.078125 56 35.796875 56 
Q 45.21875 56 50.046875 50.171875 
Q 54.890625 44.34375 54.890625 33.015625 
z
" id="DejaVuSans-6e"/>
      <path d="M 8.015625 75.875 
L 15.828125 75.875 
Q 23.140625 64.359375 26.78125 53.3125 
Q 30.421875 42.28125 30.421875 31.390625 
Q 30.421875 20.453125 26.78125 9.375 
Q 23.140625 -1.703125 15.828125 -13.1875 
L 8.015625 -13.1875 
Q 14.5 -2 17.703125 9.0625 
Q 20.90625 20.125 20.90625 31.390625 
Q 20.90625 42.671875 17.703125 53.65625 
Q 14.5 64.65625 8.015625 75.875 
z
" id="DejaVuSans-29"/>
     </defs>
     <g transform="translate(73.803219 338.153594)scale(0.17 -0.17)">
      <use xlink:href="#DejaVuSans-6c"/>
      <use x="27.783203" xlink:href="#DejaVuSans-6f"/>
      <use x="88.964844" xlink:href="#DejaVuSans-67"/>
      <use x="152.441406" xlink:href="#DejaVuSans-31"/>
      <use x="216.064453" xlink:href="#DejaVuSans-30"/>
      <use x="279.6875" xlink:href="#DejaVuSans-28"/>
      <use x="318.701172" xlink:href="#DejaVuSans-23"/>
      <use x="402.490234" xlink:href="#DejaVuSans-20"/>
      <use x="434.277344" xlink:href="#DejaVuSans-66"/>
      <use x="469.404297" xlink:href="#DejaVuSans-2d"/>
      <use x="505.488281" xlink:href="#DejaVuSans-65"/>
      <use x="567.011719" xlink:href="#DejaVuSans-76"/>
      <use x="626.191406" xlink:href="#DejaVuSans-61"/>
      <use x="687.470703" xlink:href="#DejaVuSans-6c"/>
      <use x="715.253906" xlink:href="#DejaVuSans-73"/>
      <use x="767.353516" xlink:href="#DejaVuSans-20"/>
      <use x="799.140625" xlink:href="#DejaVuSans-2f"/>
      <use x="832.832031" xlink:href="#DejaVuSans-20"/>
      <use x="864.619141" xlink:href="#DejaVuSans-64"/>
      <use x="928.095703" xlink:href="#DejaVuSans-69"/>
      <use x="955.878906" xlink:href="#DejaVuSans-6d"/>
      <use x="1053.291016" xlink:href="#DejaVuSans-65"/>
      <use x="1114.814453" xlink:href="#DejaVuSans-6e"/>
      <use x="1178.193359" xlink:href="#DejaVuSans-73"/>
      <use x="1230.292969" xlink:href="#DejaVuSans-69"/>
      <use x="1258.076172" xlink:href="#DejaVuSans-6f"/>
      <use x="1319.257812" xlink:href="#DejaVuSans-6e"/>
      <use x="1382.636719" xlink:href="#DejaVuSans-29"/>
     </g>
    </g>
   </g>
   <g id="matplotlib.axis_2">
    <g id="ytick_1">
     <g id="line2d_29">
      <path clip-path="url(#pfc79fdf924)" d="M 56.12 294.88 
L 333.168 294.88 
" style="fill:none;stroke:#b0b0b0;stroke-linecap:square;stroke-width:0.8;"/>
     </g>
     <g id="line2d_30">
      <defs>
       <path d="M 0 0 
L -3.5 0 
" id="m32d061b466" style="stroke:#000000;stroke-width:0.8;"/>
      </defs>
      <g>
       <use style="stroke:#000000;stroke-width:0.8;" x="56.12" xlink:href="#m32d061b466" y="294.88"/>
      </g>
     </g>
     <g id="text_6">
      <!-- 0.0 -->
      <defs>
       <path d="M 10.6875 12.40625 
L 21 12.40625 
L 21 0 
L 10.6875 0 
z
" id="DejaVuSans-2e"/>
      </defs>
      <g transform="translate(23.675 300.95875)scale(0.16 -0.16)">
       <use xlink:href="#DejaVuSans-30"/>
       <use x="63.623047" xlink:href="#DejaVuSans-2e"/>
       <use x="95.410156" xlink:href="#DejaVuSans-30"/>
      </g>
     </g>
    </g>
    <g id="ytick_2">
     <g id="line2d_31">
      <path clip-path="url(#pfc79fdf924)" d="M 56.12 241.406733 
L 333.168 241.406733 
" style="fill:none;stroke:#b0b0b0;stroke-linecap:square;stroke-width:0.8;"/>
     </g>
     <g id="line2d_32">
      <g>
       <use style="stroke:#000000;stroke-width:0.8;" x="56.12" xlink:href="#m32d061b466" y="241.406733"/>
      </g>
     </g>
     <g id="text_7">
      <!-- 0.2 -->
      <g transform="translate(23.675 247.485483)scale(0.16 -0.16)">
       <use xlink:href="#DejaVuSans-30"/>
       <use x="63.623047" xlink:href="#DejaVuSans-2e"/>
       <use x="95.410156" xlink:href="#DejaVuSans-32"/>
      </g>
     </g>
    </g>
    <g id="ytick_3">
     <g id="line2d_33">
      <path clip-path="url(#pfc79fdf924)" d="M 56.12 187.933465 
L 333.168 187.933465 
" style="fill:none;stroke:#b0b0b0;stroke-linecap:square;stroke-width:0.8;"/>
     </g>
     <g id="line2d_34">
      <g>
       <use style="stroke:#000000;stroke-width:0.8;" x="56.12" xlink:href="#m32d061b466" y="187.933465"/>
      </g>
     </g>
     <g id="text_8">
      <!-- 0.4 -->
      <g transform="translate(23.675 194.012215)scale(0.16 -0.16)">
       <use xlink:href="#DejaVuSans-30"/>
       <use x="63.623047" xlink:href="#DejaVuSans-2e"/>
       <use x="95.410156" xlink:href="#DejaVuSans-34"/>
      </g>
     </g>
    </g>
    <g id="ytick_4">
     <g id="line2d_35">
      <path clip-path="url(#pfc79fdf924)" d="M 56.12 134.460198 
L 333.168 134.460198 
" style="fill:none;stroke:#b0b0b0;stroke-linecap:square;stroke-width:0.8;"/>
     </g>
     <g id="line2d_36">
      <g>
       <use style="stroke:#000000;stroke-width:0.8;" x="56.12" xlink:href="#m32d061b466" y="134.460198"/>
      </g>
     </g>
     <g id="text_9">
      <!-- 0.6 -->
      <g transform="translate(23.675 140.538948)scale(0.16 -0.16)">
       <use xlink:href="#DejaVuSans-30"/>
       <use x="63.623047" xlink:href="#DejaVuSans-2e"/>
       <use x="95.410156" xlink:href="#DejaVuSans-36"/>
      </g>
     </g>
    </g>
    <g id="ytick_5">
     <g id="line2d_37">
      <path clip-path="url(#pfc79fdf924)" d="M 56.12 80.986931 
L 333.168 80.986931 
" style="fill:none;stroke:#b0b0b0;stroke-linecap:square;stroke-width:0.8;"/>
     </g>
     <g id="line2d_38">
      <g>
       <use style="stroke:#000000;stroke-width:0.8;" x="56.12" xlink:href="#m32d061b466" y="80.986931"/>
      </g>
     </g>
     <g id="text_10">
      <!-- 0.8 -->
      <defs>
       <path d="M 31.78125 34.625 
Q 24.75 34.625 20.71875 30.859375 
Q 16.703125 27.09375 16.703125 20.515625 
Q 16.703125 13.921875 20.71875 10.15625 
Q 24.75 6.390625 31.78125 6.390625 
Q 38.8125 6.390625 42.859375 10.171875 
Q 46.921875 13.96875 46.921875 20.515625 
Q 46.921875 27.09375 42.890625 30.859375 
Q 38.875 34.625 31.78125 34.625 
z
M 21.921875 38.8125 
Q 15.578125 40.375 12.03125 44.71875 
Q 8.5 49.078125 8.5 55.328125 
Q 8.5 64.0625 14.71875 69.140625 
Q 20.953125 74.21875 31.78125 74.21875 
Q 42.671875 74.21875 48.875 69.140625 
Q 55.078125 64.0625 55.078125 55.328125 
Q 55.078125 49.078125 51.53125 44.71875 
Q 48 40.375 41.703125 38.8125 
Q 48.828125 37.15625 52.796875 32.3125 
Q 56.78125 27.484375 56.78125 20.515625 
Q 56.78125 9.90625 50.3125 4.234375 
Q 43.84375 -1.421875 31.78125 -1.421875 
Q 19.734375 -1.421875 13.25 4.234375 
Q 6.78125 9.90625 6.78125 20.515625 
Q 6.78125 27.484375 10.78125 32.3125 
Q 14.796875 37.15625 21.921875 38.8125 
z
M 18.3125 54.390625 
Q 18.3125 48.734375 21.84375 45.5625 
Q 25.390625 42.390625 31.78125 42.390625 
Q 38.140625 42.390625 41.71875 45.5625 
Q 45.3125 48.734375 45.3125 54.390625 
Q 45.3125 60.0625 41.71875 63.234375 
Q 38.140625 66.40625 31.78125 66.40625 
Q 25.390625 66.40625 21.84375 63.234375 
Q 18.3125 60.0625 18.3125 54.390625 
z
" id="DejaVuSans-38"/>
      </defs>
      <g transform="translate(23.675 87.065681)scale(0.16 -0.16)">
       <use xlink:href="#DejaVuSans-30"/>
       <use x="63.623047" xlink:href="#DejaVuSans-2e"/>
       <use x="95.410156" xlink:href="#DejaVuSans-38"/>
      </g>
     </g>
    </g>
    <g id="ytick_6">
     <g id="line2d_39">
      <path clip-path="url(#pfc79fdf924)" d="M 56.12 27.513663 
L 333.168 27.513663 
" style="fill:none;stroke:#b0b0b0;stroke-linecap:square;stroke-width:0.8;"/>
     </g>
     <g id="line2d_40">
      <g>
       <use style="stroke:#000000;stroke-width:0.8;" x="56.12" xlink:href="#m32d061b466" y="27.513663"/>
      </g>
     </g>
     <g id="text_11">
      <!-- 1.0 -->
      <g transform="translate(23.675 33.592413)scale(0.16 -0.16)">
       <use xlink:href="#DejaVuSans-31"/>
       <use x="63.623047" xlink:href="#DejaVuSans-2e"/>
       <use x="95.410156" xlink:href="#DejaVuSans-30"/>
      </g>
     </g>
    </g>
    <g id="text_12">
     <!-- Fraction of function,target pairs -->
     <defs>
      <path d="M 9.8125 72.90625 
L 51.703125 72.90625 
L 51.703125 64.59375 
L 19.671875 64.59375 
L 19.671875 43.109375 
L 48.578125 43.109375 
L 48.578125 34.8125 
L 19.671875 34.8125 
L 19.671875 0 
L 9.8125 0 
z
" id="DejaVuSans-46"/>
      <path d="M 41.109375 46.296875 
Q 39.59375 47.171875 37.8125 47.578125 
Q 36.03125 48 33.890625 48 
Q 26.265625 48 22.1875 43.046875 
Q 18.109375 38.09375 18.109375 28.8125 
L 18.109375 0 
L 9.078125 0 
L 9.078125 54.6875 
L 18.109375 54.6875 
L 18.109375 46.1875 
Q 20.953125 51.171875 25.484375 53.578125 
Q 30.03125 56 36.53125 56 
Q 37.453125 56 38.578125 55.875 
Q 39.703125 55.765625 41.0625 55.515625 
z
" id="DejaVuSans-72"/>
      <path d="M 48.78125 52.59375 
L 48.78125 44.1875 
Q 44.96875 46.296875 41.140625 47.34375 
Q 37.3125 48.390625 33.40625 48.390625 
Q 24.65625 48.390625 19.8125 42.84375 
Q 14.984375 37.3125 14.984375 27.296875 
Q 14.984375 17.28125 19.8125 11.734375 
Q 24.65625 6.203125 33.40625 6.203125 
Q 37.3125 6.203125 41.140625 7.25 
Q 44.96875 8.296875 48.78125 10.40625 
L 48.78125 2.09375 
Q 45.015625 0.34375 40.984375 -0.53125 
Q 36.96875 -1.421875 32.421875 -1.421875 
Q 20.0625 -1.421875 12.78125 6.34375 
Q 5.515625 14.109375 5.515625 27.296875 
Q 5.515625 40.671875 12.859375 48.328125 
Q 20.21875 56 33.015625 56 
Q 37.15625 56 41.109375 55.140625 
Q 45.0625 54.296875 48.78125 52.59375 
z
" id="DejaVuSans-63"/>
      <path d="M 18.3125 70.21875 
L 18.3125 54.6875 
L 36.8125 54.6875 
L 36.8125 47.703125 
L 18.3125 47.703125 
L 18.3125 18.015625 
Q 18.3125 11.328125 20.140625 9.421875 
Q 21.96875 7.515625 27.59375 7.515625 
L 36.8125 7.515625 
L 36.8125 0 
L 27.59375 0 
Q 17.1875 0 13.234375 3.875 
Q 9.28125 7.765625 9.28125 18.015625 
L 9.28125 47.703125 
L 2.6875 47.703125 
L 2.6875 54.6875 
L 9.28125 54.6875 
L 9.28125 70.21875 
z
" id="DejaVuSans-74"/>
      <path d="M 8.5 21.578125 
L 8.5 54.6875 
L 17.484375 54.6875 
L 17.484375 21.921875 
Q 17.484375 14.15625 20.5 10.265625 
Q 23.53125 6.390625 29.59375 6.390625 
Q 36.859375 6.390625 41.078125 11.03125 
Q 45.3125 15.671875 45.3125 23.6875 
L 45.3125 54.6875 
L 54.296875 54.6875 
L 54.296875 0 
L 45.3125 0 
L 45.3125 8.40625 
Q 42.046875 3.421875 37.71875 1 
Q 33.40625 -1.421875 27.6875 -1.421875 
Q 18.265625 -1.421875 13.375 4.4375 
Q 8.5 10.296875 8.5 21.578125 
z
M 31.109375 56 
z
" id="DejaVuSans-75"/>
      <path d="M 11.71875 12.40625 
L 22.015625 12.40625 
L 22.015625 4 
L 14.015625 -11.625 
L 7.71875 -11.625 
L 11.71875 4 
z
" id="DejaVuSans-2c"/>
      <path d="M 18.109375 8.203125 
L 18.109375 -20.796875 
L 9.078125 -20.796875 
L 9.078125 54.6875 
L 18.109375 54.6875 
L 18.109375 46.390625 
Q 20.953125 51.265625 25.265625 53.625 
Q 29.59375 56 35.59375 56 
Q 45.5625 56 51.78125 48.09375 
Q 58.015625 40.1875 58.015625 27.296875 
Q 58.015625 14.40625 51.78125 6.484375 
Q 45.5625 -1.421875 35.59375 -1.421875 
Q 29.59375 -1.421875 25.265625 0.953125 
Q 20.953125 3.328125 18.109375 8.203125 
z
M 48.6875 27.296875 
Q 48.6875 37.203125 44.609375 42.84375 
Q 40.53125 48.484375 33.40625 48.484375 
Q 26.265625 48.484375 22.1875 42.84375 
Q 18.109375 37.203125 18.109375 27.296875 
Q 18.109375 17.390625 22.1875 11.75 
Q 26.265625 6.109375 33.40625 6.109375 
Q 40.53125 6.109375 44.609375 11.75 
Q 48.6875 17.390625 48.6875 27.296875 
z
" id="DejaVuSans-70"/>
     </defs>
     <g transform="translate(16.139531 294.999375)rotate(-90)scale(0.17 -0.17)">
      <use xlink:href="#DejaVuSans-46"/>
      <use x="57.410156" xlink:href="#DejaVuSans-72"/>
      <use x="98.523438" xlink:href="#DejaVuSans-61"/>
      <use x="159.802734" xlink:href="#DejaVuSans-63"/>
      <use x="214.783203" xlink:href="#DejaVuSans-74"/>
      <use x="253.992188" xlink:href="#DejaVuSans-69"/>
      <use x="281.775391" xlink:href="#DejaVuSans-6f"/>
      <use x="342.957031" xlink:href="#DejaVuSans-6e"/>
      <use x="406.335938" xlink:href="#DejaVuSans-20"/>
      <use x="438.123047" xlink:href="#DejaVuSans-6f"/>
      <use x="499.304688" xlink:href="#DejaVuSans-66"/>
      <use x="534.509766" xlink:href="#DejaVuSans-20"/>
      <use x="566.296875" xlink:href="#DejaVuSans-66"/>
      <use x="601.501953" xlink:href="#DejaVuSans-75"/>
      <use x="664.880859" xlink:href="#DejaVuSans-6e"/>
      <use x="728.259766" xlink:href="#DejaVuSans-63"/>
      <use x="783.240234" xlink:href="#DejaVuSans-74"/>
      <use x="822.449219" xlink:href="#DejaVuSans-69"/>
      <use x="850.232422" xlink:href="#DejaVuSans-6f"/>
      <use x="911.414062" xlink:href="#DejaVuSans-6e"/>
      <use x="974.792969" xlink:href="#DejaVuSans-2c"/>
      <use x="1006.580078" xlink:href="#DejaVuSans-74"/>
      <use x="1045.789062" xlink:href="#DejaVuSans-61"/>
      <use x="1107.068359" xlink:href="#DejaVuSans-72"/>
      <use x="1148.166016" xlink:href="#DejaVuSans-67"/>
      <use x="1211.642578" xlink:href="#DejaVuSans-65"/>
      <use x="1273.166016" xlink:href="#DejaVuSans-74"/>
      <use x="1312.375" xlink:href="#DejaVuSans-20"/>
      <use x="1344.162109" xlink:href="#DejaVuSans-70"/>
      <use x="1407.638672" xlink:href="#DejaVuSans-61"/>
      <use x="1468.917969" xlink:href="#DejaVuSans-69"/>
      <use x="1496.701172" xlink:href="#DejaVuSans-72"/>
      <use x="1537.814453" xlink:href="#DejaVuSans-73"/>
     </g>
    </g>
   </g>
   <g id="line2d_41">
    <defs>
     <path d="M 0 1.5 
C 0.397805 1.5 0.77937 1.341951 1.06066 1.06066 
C 1.341951 0.77937 1.5 0.397805 1.5 0 
C 1.5 -0.397805 1.341951 -0.77937 1.06066 -1.06066 
C 0.77937 -1.341951 0.397805 -1.5 0 -1.5 
C -0.397805 -1.5 -0.77937 -1.341951 -1.06066 -1.06066 
C -1.341951 -0.77937 -1.5 -0.397805 -1.5 0 
C -1.5 0.397805 -1.341951 0.77937 -1.06066 1.06066 
C -0.77937 1.341951 -0.397805 1.5 0 1.5 
z
" id="m032b1c80c7" style="stroke:#f5deb3;"/>
    </defs>
    <g>
     <use style="fill:#f5deb3;stroke:#f5deb3;" x="183.38733" xlink:href="#m032b1c80c7" y="27.513663"/>
     <use style="fill:#f5deb3;stroke:#f5deb3;" x="183.38733" xlink:href="#m032b1c80c7" y="27.513663"/>
    </g>
   </g>
   <g id="line2d_42">
    <defs>
     <path d="M 0 1.5 
C 0.397805 1.5 0.77937 1.341951 1.06066 1.06066 
C 1.341951 0.77937 1.5 0.397805 1.5 0 
C 1.5 -0.397805 1.341951 -0.77937 1.06066 -1.06066 
C 0.77937 -1.341951 0.397805 -1.5 0 -1.5 
C -0.397805 -1.5 -0.77937 -1.341951 -1.06066 -1.06066 
C -1.341951 -0.77937 -1.5 -0.397805 -1.5 0 
C -1.5 0.397805 -1.341951 0.77937 -1.06066 1.06066 
C -0.77937 1.341951 -0.397805 1.5 0 1.5 
z
" id="md09ee48503" style="stroke:#000080;"/>
    </defs>
    <g>
     <use style="fill:#000080;stroke:#000080;" x="230.06156" xlink:href="#md09ee48503" y="27.513663"/>
     <use style="fill:#000080;stroke:#000080;" x="230.06156" xlink:href="#md09ee48503" y="27.513663"/>
    </g>
   </g>
   <g id="line2d_43">
    <path d="M 132.279675 294.88 
L 132.279675 294.355752 
L 133.079291 294.355752 
L 133.079291 293.831505 
L 133.843356 293.831505 
L 133.843356 292.258761 
L 134.367749 292.258761 
L 134.367749 291.734514 
L 134.574897 291.734514 
L 134.63745 290.686018 
L 135.164481 290.686018 
L 135.164481 290.161771 
L 135.276571 290.161771 
L 135.276571 289.637523 
L 135.650622 289.637523 
L 135.650622 289.113275 
L 135.950722 289.113275 
L 136.033161 287.016284 
L 136.479644 287.016284 
L 136.479644 286.492036 
L 136.718379 286.492036 
L 136.718379 285.967789 
L 137.224536 285.967789 
L 137.224536 284.919293 
L 137.407721 284.919293 
L 137.407721 284.395046 
L 137.708755 284.395046 
L 137.708755 283.870798 
L 137.827708 283.870798 
L 137.827708 283.34655 
L 138.01194 283.34655 
L 138.019268 282.298055 
L 138.165183 282.298055 
L 138.165183 281.773807 
L 138.410429 281.773807 
L 138.446202 279.676816 
L 138.974042 279.676816 
L 138.974042 279.152568 
L 139.303546 279.152568 
L 139.317139 278.104073 
L 139.519758 278.104073 
L 139.519758 276.007082 
L 140.048681 276.007082 
L 140.048681 275.482834 
L 140.561812 275.482834 
L 140.668907 273.385844 
L 140.681463 273.385844 
L 140.681463 272.861596 
L 141.388408 272.861596 
L 141.388408 272.337348 
L 141.544287 272.337348 
L 141.562183 270.764605 
L 141.816659 270.764605 
L 141.816659 270.240357 
L 142.015238 270.240357 
L 142.102123 268.667614 
L 142.16556 268.667614 
L 142.240231 267.619119 
L 142.473629 267.619119 
L 142.473629 266.570623 
L 142.664803 266.570623 
L 142.664803 266.046375 
L 143.215062 266.046375 
L 143.215062 265.522128 
L 143.35529 265.522128 
L 143.35529 263.949385 
L 143.779723 263.949385 
L 143.7902 261.328146 
L 144.193927 261.328146 
L 144.193927 260.279651 
L 144.598384 260.279651 
L 144.663218 259.231155 
L 145.153935 259.231155 
L 145.153935 258.706907 
L 145.583912 258.706907 
L 145.583912 258.18266 
L 145.757607 258.18266 
L 145.790272 257.134164 
L 146.150111 257.134164 
L 146.218456 256.085669 
L 146.489148 256.085669 
L 146.489148 255.037173 
L 146.711514 255.037173 
L 146.711514 254.512926 
L 146.978962 254.512926 
L 146.978962 253.988678 
L 147.190823 253.988678 
L 147.190823 253.46443 
L 147.497466 253.46443 
L 147.497466 252.940182 
L 147.873235 252.940182 
L 147.873235 252.415935 
L 148.102967 252.415935 
L 148.172104 251.367439 
L 148.829074 251.367439 
L 148.829074 250.318944 
L 148.961385 250.318944 
L 148.961385 249.794696 
L 149.138788 249.794696 
L 149.138788 249.270448 
L 149.344733 249.270448 
L 149.443019 248.221953 
L 149.741959 248.221953 
L 149.741959 247.173458 
L 150.035789 247.173458 
L 150.072167 246.124962 
L 150.467326 246.124962 
L 150.467326 245.600714 
L 150.790985 245.600714 
L 150.888293 244.552219 
L 151.434009 244.552219 
L 151.434009 243.503724 
L 151.700505 243.503724 
L 151.700505 242.979476 
L 151.962932 242.979476 
L 151.962932 242.455228 
L 152.221413 242.455228 
L 152.221413 241.406733 
L 152.48554 241.406733 
L 152.48554 240.882485 
L 152.726997 240.882485 
L 152.726997 240.358237 
L 153.209053 240.358237 
L 153.218134 239.309742 
L 153.458539 239.309742 
L 153.458539 238.785494 
L 153.695627 238.785494 
L 153.695627 237.212751 
L 154.160213 237.212751 
L 154.160213 236.164255 
L 154.612571 236.164255 
L 154.612571 235.11576 
L 155.483068 235.11576 
L 155.498976 234.067265 
L 156.120962 234.067265 
L 156.120962 233.543017 
L 156.711349 233.543017 
L 156.711349 232.494521 
L 157.294071 232.494521 
L 157.294071 231.446026 
L 170.271708 231.446026 
L 170.271708 230.921778 
L 171.019325 230.921778 
L 171.019325 230.397531 
L 171.190358 230.397531 
L 171.190358 229.873283 
L 171.5347 229.873283 
L 171.5347 229.349035 
L 171.802623 229.349035 
L 171.802623 228.824787 
L 172.020888 228.824787 
L 172.020888 228.30054 
L 172.492715 228.30054 
L 172.492715 227.776292 
L 172.657576 227.776292 
L 172.657576 227.252044 
L 172.890383 227.252044 
L 172.890383 226.727797 
L 173.311055 226.727797 
L 173.311055 226.203549 
L 173.50737 226.203549 
L 173.602845 225.155053 
L 174.292276 225.155053 
L 174.385267 224.106558 
L 174.5076 224.106558 
L 174.5076 223.58231 
L 174.647346 223.58231 
L 174.717661 222.533815 
L 174.790279 222.533815 
L 174.84884 221.485319 
L 175.108232 221.485319 
L 175.108232 220.961072 
L 175.274258 220.961072 
L 175.329524 219.912576 
L 175.583462 219.912576 
L 175.674657 218.339833 
L 175.755587 218.339833 
L 175.791434 217.291338 
L 175.921161 217.291338 
L 176.02665 215.718594 
L 176.113932 215.718594 
L 176.177712 214.670099 
L 176.311674 214.670099 
L 176.311674 214.145851 
L 176.493109 214.145851 
L 176.600592 211.524613 
L 176.685015 211.524613 
L 176.685015 211.000365 
L 176.856453 211.000365 
L 176.925162 209.95187 
L 176.986006 209.95187 
L 176.986006 209.427622 
L 177.107054 209.427622 
L 177.214523 208.379126 
L 177.227254 208.379126 
L 177.227254 207.854879 
L 177.34662 207.854879 
L 177.405994 206.806383 
L 177.490986 206.806383 
L 177.519714 205.757888 
L 177.641458 205.757888 
L 177.641458 205.23364 
L 177.93348 205.23364 
L 177.93348 204.709392 
L 178.046629 204.709392 
L 178.122835 203.660897 
L 178.387275 203.660897 
L 178.387275 203.136649 
L 178.552327 203.136649 
L 178.552327 202.088154 
L 178.721987 202.088154 
L 178.721987 201.563906 
L 178.93614 201.563906 
L 178.93614 201.039658 
L 179.31157 201.039658 
L 179.31157 200.515411 
L 179.783166 200.515411 
L 179.892501 198.942667 
L 180.140098 198.942667 
L 180.140098 198.41842 
L 180.391032 198.41842 
L 180.440782 197.369924 
L 180.55528 197.369924 
L 180.55528 196.845677 
L 180.817894 196.845677 
L 180.833682 195.272933 
L 180.935347 195.272933 
L 180.963079 194.224438 
L 181.080744 194.224438 
L 181.122573 193.175943 
L 181.233819 193.175943 
L 181.337278 191.603199 
L 181.639917 191.603199 
L 181.639917 190.554704 
L 181.824247 190.554704 
L 181.924793 188.981961 
L 182.030982 188.981961 
L 182.030982 188.457713 
L 182.277164 188.457713 
L 182.277164 187.933465 
L 182.410024 187.933465 
L 182.410024 187.409218 
L 182.542415 187.409218 
L 182.542415 186.88497 
L 182.673793 186.88497 
L 182.754313 185.836474 
L 182.847417 185.836474 
L 182.847417 185.312227 
L 184.063371 185.312227 
L 184.063371 184.787979 
L 184.178668 184.787979 
L 184.271345 183.215236 
L 184.416331 183.215236 
L 184.493519 181.642493 
L 184.571828 181.642493 
L 184.659986 179.545502 
L 184.688625 179.545502 
L 184.766534 176.924263 
L 184.804634 176.924263 
L 184.843131 175.35152 
L 184.925129 175.35152 
L 185.03433 172.206034 
L 185.072316 172.206034 
L 185.148037 169.584795 
L 185.223426 169.584795 
L 185.298485 167.487804 
L 185.362962 167.487804 
L 185.425339 164.866566 
L 185.484713 164.866566 
L 185.484713 163.81807 
L 185.598709 163.81807 
L 185.705555 160.672584 
L 185.710583 160.672584 
L 185.819009 157.00285 
L 185.851222 157.00285 
L 185.959668 155.430107 
L 185.995665 155.430107 
L 186.103207 153.333116 
L 186.138905 153.333116 
L 186.2491 151.236125 
L 186.28096 151.236125 
L 186.35155 149.663382 
L 186.421851 149.663382 
L 186.532867 147.566391 
L 186.631046 147.566391 
L 186.734697 144.945152 
L 186.803451 144.945152 
L 186.90607 142.323914 
L 186.940141 142.323914 
L 187.041949 140.226923 
L 187.109488 140.226923 
L 187.193121 138.129932 
L 187.277184 138.129932 
L 187.277184 137.081437 
L 187.410172 137.081437 
L 187.510888 135.508693 
L 187.705279 135.508693 
L 187.705279 134.984446 
L 187.835412 134.984446 
L 187.835412 134.460198 
L 188.471697 134.460198 
L 188.471697 133.93595 
L 188.661735 133.93595 
L 188.661735 133.411703 
L 188.960888 133.411703 
L 188.960888 132.887455 
L 189.201292 132.887455 
L 189.260871 131.838959 
L 189.349855 131.838959 
L 189.349855 131.314712 
L 189.467788 131.314712 
L 189.467788 130.790464 
L 189.730215 130.790464 
L 189.787992 129.741969 
L 189.845575 129.741969 
L 189.845575 129.217721 
L 190.015042 129.217721 
L 190.064423 128.169225 
L 190.158881 128.169225 
L 190.215237 127.12073 
L 190.327399 127.12073 
L 190.417994 124.499491 
L 190.466578 124.499491 
L 190.557479 121.878253 
L 190.63212 121.878253 
L 190.72659 120.30551 
L 190.779757 120.30551 
L 190.879512 118.732766 
L 190.931534 118.732766 
L 191.039131 116.635776 
L 191.065926 116.635776 
L 191.146059 115.58728 
L 191.199275 115.58728 
L 191.306535 114.538785 
L 191.410505 114.538785 
L 191.46291 113.490289 
L 191.528517 113.490289 
L 191.614633 111.917546 
L 191.645077 111.917546 
L 191.696772 110.344803 
L 191.838137 110.344803 
L 191.927495 109.296308 
L 192.00372 109.296308 
L 192.00372 108.77206 
L 192.130015 108.77206 
L 192.180274 107.723564 
L 192.379854 107.723564 
L 192.379854 107.199317 
L 192.723638 107.199317 
L 192.820612 105.102326 
L 192.917042 105.102326 
L 193.012935 101.956839 
L 193.060681 101.956839 
L 193.155777 99.335601 
L 193.203129 99.335601 
L 193.297443 97.762858 
L 193.368718 97.762858 
L 193.368718 97.23861 
L 194.328982 97.23861 
L 194.439623 96.190115 
L 194.522481 96.190115 
L 194.522481 95.665867 
L 195.146027 95.665867 
L 195.208996 94.617371 
L 196.281236 94.617371 
L 196.388138 93.568876 
L 196.427381 93.568876 
L 196.427381 93.044628 
L 198.669818 93.044628 
L 198.669818 92.520381 
L 198.786183 92.520381 
L 198.786183 91.996133 
L 198.97311 91.996133 
L 198.987893 90.947637 
L 199.472815 90.947637 
L 199.472815 90.42339 
L 200.006214 90.42339 
L 200.053894 88.850646 
L 200.122401 88.850646 
L 200.122401 88.326399 
L 200.710562 88.326399 
L 200.710562 87.802151 
L 201.440703 87.802151 
L 201.469961 86.753656 
L 201.557435 86.753656 
L 201.629991 84.132417 
L 201.831535 84.132417 
L 201.84012 82.559674 
L 202.087239 82.559674 
L 202.087239 82.035426 
L 202.317642 82.035426 
L 202.317642 81.511178 
L 202.436188 81.511178 
L 202.436188 80.986931 
L 202.573807 80.986931 
L 202.614879 79.938435 
L 202.73072 79.938435 
L 202.73072 79.414188 
L 203.324756 79.414188 
L 203.324756 78.88994 
L 203.49449 78.88994 
L 203.494652 77.317197 
L 203.779085 77.317197 
L 203.854474 74.695958 
L 203.939507 74.695958 
L 203.939507 74.17171 
L 204.131497 74.17171 
L 204.131497 73.647463 
L 204.25686 73.647463 
L 204.349667 72.598967 
L 204.393033 72.598967 
L 204.466857 71.550472 
L 204.515897 71.550472 
L 204.589196 69.977729 
L 204.674319 69.977729 
L 204.771993 68.929233 
L 204.807237 68.929233 
L 204.867316 67.880738 
L 204.943016 67.880738 
L 205.046304 65.783747 
L 205.070028 65.783747 
L 205.152808 64.211004 
L 205.352201 64.211004 
L 205.445239 62.638261 
L 205.595215 62.638261 
L 205.675653 61.589765 
L 205.755004 61.589765 
L 205.835124 59.492774 
L 205.869105 59.492774 
L 205.966709 58.444279 
L 206.04921 58.444279 
L 206.0783 57.395783 
L 206.171947 57.395783 
L 206.222321 55.82304 
L 206.381904 55.82304 
L 206.480469 54.774545 
L 206.513199 54.774545 
L 206.524095 53.726049 
L 206.665119 53.726049 
L 206.687118 52.153306 
L 206.815709 52.153306 
L 206.837115 51.104811 
L 207.126534 51.104811 
L 207.126534 50.580563 
L 207.587025 50.580563 
L 207.654728 49.00782 
L 208.015162 49.00782 
L 208.015162 48.483572 
L 208.129761 48.483572 
L 208.129761 47.959324 
L 208.700449 47.959324 
L 208.700449 47.435077 
L 209.21104 47.435077 
L 209.21104 46.910829 
L 210.320369 46.910829 
L 210.320369 46.386581 
L 210.5506 46.386581 
L 210.5506 45.862334 
L 211.337744 45.862334 
L 211.337744 45.338086 
L 211.688129 45.338086 
L 211.688129 44.813838 
L 212.165401 44.813838 
L 212.165401 44.28959 
L 212.340336 44.28959 
L 212.340336 43.765343 
L 212.507165 43.765343 
L 212.514854 42.716847 
L 212.796954 42.716847 
L 212.868267 41.144104 
L 213.209393 41.144104 
L 213.209393 40.619856 
L 213.952067 40.619856 
L 213.952067 40.095609 
L 214.248755 40.095609 
L 214.357346 38.522865 
L 214.39899 38.522865 
L 214.446888 36.950122 
L 214.591407 36.950122 
L 214.591407 36.425875 
L 214.793733 36.425875 
L 214.854556 35.377379 
L 215.296153 35.377379 
L 215.296153 34.853131 
L 215.538174 34.853131 
L 215.538174 34.328884 
L 215.991202 34.328884 
L 215.991202 33.804636 
L 216.527811 33.804636 
L 216.527811 33.280388 
L 216.848831 33.280388 
L 216.848831 32.756141 
L 218.075076 32.756141 
L 218.075076 32.231893 
L 218.473167 32.231893 
L 218.473167 31.707645 
L 219.530306 31.707645 
L 219.530306 31.183397 
L 221.697917 31.183397 
L 221.697917 30.65915 
L 222.365134 30.65915 
L 222.365134 30.134902 
L 223.313626 30.134902 
L 223.313626 29.610654 
L 225.280183 29.610654 
L 225.280183 29.086407 
L 225.63139 29.086407 
L 225.63139 28.562159 
L 226.33725 28.562159 
L 226.33725 28.037911 
L 230.06156 28.037911 
L 230.06156 27.513663 
L 333.168 27.513663 
L 333.168 27.513663 
" style="fill:none;stroke:#000080;stroke-linecap:square;stroke-width:1.5;"/>
   </g>
   <g id="line2d_44">
    <defs>
     <path d="M 0 6 
C 1.591219 6 3.117479 5.367802 4.242641 4.242641 
C 5.367802 3.117479 6 1.591219 6 0 
C 6 -1.591219 5.367802 -3.117479 4.242641 -4.242641 
C 3.117479 -5.367802 1.591219 -6 0 -6 
C -1.591219 -6 -3.117479 -5.367802 -4.242641 -4.242641 
C -5.367802 -3.117479 -6 -1.591219 -6 0 
C -6 1.591219 -5.367802 3.117479 -4.242641 4.242641 
C -3.117479 5.367802 -1.591219 6 0 6 
z
" id="m528a68db94" style="stroke:#000080;stroke-width:1.5;"/>
    </defs>
    <g>
     <use style="fill:none;stroke:#000080;stroke-width:1.5;" x="177.519714" xlink:href="#m528a68db94" y="205.757888"/>
     <use style="fill:none;stroke:#000080;stroke-width:1.5;" x="193.060681" xlink:href="#m528a68db94" y="101.432592"/>
     <use style="fill:none;stroke:#000080;stroke-width:1.5;" x="230.06156" xlink:href="#m528a68db94" y="27.513663"/>
     <use style="fill:none;stroke:#000080;stroke-width:1.5;" x="230.06156" xlink:href="#m528a68db94" y="27.513663"/>
     <use style="fill:none;stroke:#000080;stroke-width:1.5;" x="333.168" xlink:href="#m528a68db94" y="27.513663"/>
    </g>
   </g>
   <g id="line2d_45">
    <path style="fill:none;stroke:#000080;stroke-linecap:square;stroke-width:1.5;"/>
    <g/>
   </g>
   <g id="line2d_46">
    <path clip-path="url(#pfc79fdf924)" d="M 196.446969 93.044628 
" style="fill:none;stroke:#000080;stroke-linecap:square;stroke-width:1.5;"/>
    <defs>
     <path d="M -12 12 
L 12 -12 
M -12 -12 
L 12 12 
" id="m3342d9e381" style="stroke:#000080;"/>
    </defs>
    <g clip-path="url(#pfc79fdf924)">
     <use style="fill:#000080;stroke:#000080;" x="196.446969" xlink:href="#m3342d9e381" y="93.044628"/>
    </g>
   </g>
   <g id="line2d_47">
    <defs>
     <path d="M 0 1.5 
C 0.397805 1.5 0.77937 1.341951 1.06066 1.06066 
C 1.341951 0.77937 1.5 0.397805 1.5 0 
C 1.5 -0.397805 1.341951 -0.77937 1.06066 -1.06066 
C 0.77937 -1.341951 0.397805 -1.5 0 -1.5 
C -0.397805 -1.5 -0.77937 -1.341951 -1.06066 -1.06066 
C -1.341951 -0.77937 -1.5 -0.397805 -1.5 0 
C -1.5 0.397805 -1.341951 0.77937 -1.06066 1.06066 
C -0.77937 1.341951 -0.397805 1.5 0 1.5 
z
" id="m3c5d6eea05" style="stroke:#ff00ff;"/>
    </defs>
    <g>
     <use style="fill:#ff00ff;stroke:#ff00ff;" x="198.040001" xlink:href="#m3c5d6eea05" y="27.513663"/>
     <use style="fill:#ff00ff;stroke:#ff00ff;" x="198.040001" xlink:href="#m3c5d6eea05" y="27.513663"/>
    </g>
   </g>
   <g id="line2d_48">
    <path d="M 141.740121 294.88 
L 141.740121 294.355752 
L 141.875303 294.355752 
L 141.875303 293.831505 
L 142.061631 293.831505 
L 142.061631 293.307257 
L 142.200064 293.307257 
L 142.200064 292.783009 
L 142.541345 292.783009 
L 142.603185 291.734514 
L 143.279925 291.734514 
L 143.279925 291.210266 
L 143.805905 291.210266 
L 143.805905 290.686018 
L 144.65326 290.686018 
L 144.65326 290.161771 
L 144.772384 290.161771 
L 144.772384 289.637523 
L 145.008185 289.637523 
L 145.008185 289.113275 
L 145.317637 289.113275 
L 145.351148 288.06478 
L 145.832178 288.06478 
L 145.938811 287.016284 
L 146.340795 287.016284 
L 146.340795 286.492036 
L 146.896104 286.492036 
L 146.896104 285.967789 
L 147.074406 285.967789 
L 147.074406 285.443541 
L 147.216586 285.443541 
L 147.310724 284.395046 
L 147.539626 284.395046 
L 147.539626 283.870798 
L 147.877364 283.870798 
L 147.897996 282.298055 
L 148.033551 282.298055 
L 148.033551 281.773807 
L 148.257126 281.773807 
L 148.357798 280.725312 
L 148.577222 280.725312 
L 148.660268 279.152568 
L 148.762535 279.152568 
L 148.782132 278.104073 
L 148.907027 278.104073 
L 148.907027 277.579825 
L 149.046458 277.579825 
L 149.046458 277.055578 
L 149.333356 277.055578 
L 149.333356 276.53133 
L 149.753069 276.53133 
L 149.753069 276.007082 
L 149.904187 276.007082 
L 149.904187 275.482834 
L 150.017571 275.482834 
L 150.122968 274.434339 
L 150.541743 274.434339 
L 150.651012 273.385844 
L 150.929828 273.385844 
L 150.929828 272.861596 
L 151.217797 272.861596 
L 151.319485 271.8131 
L 151.457493 271.8131 
L 151.457493 271.288853 
L 151.693893 271.288853 
L 151.776364 270.240357 
L 151.979202 270.240357 
L 152.018185 269.191862 
L 152.295012 269.191862 
L 152.333287 267.619119 
L 152.586298 267.619119 
L 152.586298 267.094871 
L 152.739448 267.094871 
L 152.739448 266.570623 
L 152.88199 266.570623 
L 152.88199 266.046375 
L 153.063103 266.046375 
L 153.063103 265.522128 
L 153.509194 265.522128 
L 153.613017 264.473632 
L 153.736783 264.473632 
L 153.824645 262.900889 
L 153.871321 262.900889 
L 153.923681 261.852394 
L 154.059652 261.852394 
L 154.059652 261.328146 
L 154.174531 261.328146 
L 154.231683 260.279651 
L 154.385053 260.279651 
L 154.385053 259.755403 
L 154.654376 259.755403 
L 154.757061 258.706907 
L 154.801276 258.706907 
L 154.801276 258.18266 
L 155.218437 258.18266 
L 155.218437 257.658412 
L 155.360615 257.658412 
L 155.413962 256.609917 
L 155.520164 256.609917 
L 155.583571 255.561421 
L 156.10562 255.561421 
L 156.10562 255.037173 
L 156.42748 255.037173 
L 156.530114 253.988678 
L 156.577469 253.988678 
L 156.577469 253.46443 
L 156.691581 253.46443 
L 156.691581 252.940182 
L 156.80494 252.940182 
L 156.80494 252.415935 
L 156.944378 252.415935 
L 156.944378 251.891687 
L 157.118908 251.891687 
L 157.118908 251.367439 
L 157.246258 251.367439 
L 157.246258 250.843192 
L 157.365541 250.843192 
L 157.365541 250.318944 
L 157.493444 250.318944 
L 157.505239 249.270448 
L 157.720832 249.270448 
L 157.720832 248.746201 
L 157.924551 248.746201 
L 157.924551 248.221953 
L 158.098569 248.221953 
L 158.098569 247.697705 
L 158.227935 247.697705 
L 158.227935 247.173458 
L 158.490465 247.173458 
L 158.5305 246.124962 
L 158.906259 246.124962 
L 158.906259 245.600714 
L 159.341927 245.600714 
L 159.445454 244.552219 
L 159.462297 244.552219 
L 159.567196 243.503724 
L 159.66314 243.503724 
L 159.66314 242.979476 
L 159.775092 242.979476 
L 159.86372 241.93098 
L 159.910938 241.93098 
L 159.910938 241.406733 
L 160.505342 241.406733 
L 160.609988 239.83399 
L 160.846537 239.83399 
L 160.900815 238.785494 
L 161.125783 238.785494 
L 161.213431 237.212751 
L 161.526063 237.212751 
L 161.526063 236.688503 
L 161.898981 236.688503 
L 161.898981 236.164255 
L 162.188725 236.164255 
L 162.258616 235.11576 
L 162.363811 235.11576 
L 162.363811 234.591512 
L 162.524809 234.591512 
L 162.524809 234.067265 
L 162.705236 234.067265 
L 162.705236 233.543017 
L 163.086092 233.543017 
L 163.154132 232.494521 
L 163.480359 232.494521 
L 163.480359 231.970274 
L 164.040801 231.970274 
L 164.040801 231.446026 
L 164.564788 231.446026 
L 164.564788 230.921778 
L 164.754531 230.921778 
L 164.754531 230.397531 
L 165.293528 230.397531 
L 165.293528 229.873283 
L 166.201476 229.873283 
L 166.201476 229.349035 
L 166.448514 229.349035 
L 166.448514 228.824787 
L 166.763758 228.824787 
L 166.763758 228.30054 
L 166.943086 228.30054 
L 166.943086 227.776292 
L 167.164982 227.776292 
L 167.164982 227.252044 
L 167.693172 227.252044 
L 167.693172 226.727797 
L 168.512864 226.727797 
L 168.512864 226.203549 
L 168.876892 226.203549 
L 168.912146 225.155053 
L 169.248858 225.155053 
L 169.343863 223.58231 
L 169.497134 223.58231 
L 169.497134 223.058063 
L 169.708283 223.058063 
L 169.708283 222.533815 
L 169.972906 222.533815 
L 169.972906 222.009567 
L 170.108237 222.009567 
L 170.108237 221.485319 
L 170.24251 221.485319 
L 170.24251 220.961072 
L 170.475826 220.961072 
L 170.562096 219.388328 
L 170.937484 219.388328 
L 171.020399 218.339833 
L 171.064386 218.339833 
L 171.161615 216.242842 
L 171.460518 216.242842 
L 171.460518 215.718594 
L 171.586749 215.718594 
L 171.586749 215.194347 
L 171.860007 215.194347 
L 171.944708 213.621604 
L 172.012778 213.621604 
L 172.012778 213.097356 
L 172.126975 213.097356 
L 172.219393 211.524613 
L 172.316298 211.524613 
L 172.3561 209.95187 
L 172.443342 209.95187 
L 172.543913 207.854879 
L 172.564546 207.854879 
L 172.564546 207.330631 
L 172.771464 207.330631 
L 172.771464 206.806383 
L 172.937529 206.806383 
L 172.937529 206.282136 
L 173.074385 206.282136 
L 173.096295 204.709392 
L 173.194074 204.709392 
L 173.279059 203.136649 
L 173.448711 203.136649 
L 173.536161 202.088154 
L 173.657296 202.088154 
L 173.747362 201.039658 
L 173.846074 201.039658 
L 173.912476 199.466915 
L 174.031898 199.466915 
L 174.0913 197.894172 
L 174.165712 197.894172 
L 174.165712 197.369924 
L 174.338392 197.369924 
L 174.353441 196.321429 
L 174.450502 196.321429 
L 174.450502 195.797181 
L 174.649086 195.797181 
L 174.649086 195.272933 
L 174.82389 195.272933 
L 174.926042 192.651695 
L 175.078566 192.651695 
L 175.078566 192.127447 
L 175.201134 192.127447 
L 175.311959 189.506209 
L 175.371274 189.506209 
L 175.43288 188.457713 
L 175.55213 188.457713 
L 175.605689 186.360722 
L 175.72947 186.360722 
L 175.830455 184.787979 
L 175.84831 184.787979 
L 175.84831 184.263731 
L 175.969557 184.263731 
L 176.010586 183.215236 
L 176.149838 183.215236 
L 176.232533 181.642493 
L 176.321146 181.642493 
L 176.345593 180.593997 
L 176.440682 180.593997 
L 176.514191 179.021254 
L 176.565617 179.021254 
L 176.653308 176.400016 
L 176.838084 176.400016 
L 176.944199 174.827272 
L 176.963975 174.827272 
L 176.993597 173.778777 
L 177.105546 173.778777 
L 177.20553 172.730281 
L 177.415623 172.730281 
L 177.474021 170.633291 
L 177.529279 170.633291 
L 177.623178 169.060547 
L 177.64292 169.060547 
L 177.64292 168.5363 
L 177.773954 168.5363 
L 177.883111 166.963557 
L 177.896077 166.963557 
L 177.95215 165.915061 
L 178.073731 165.915061 
L 178.073731 165.390813 
L 178.301689 165.390813 
L 178.350848 164.342318 
L 178.680073 164.342318 
L 178.759691 162.245327 
L 178.903576 162.245327 
L 178.997708 160.672584 
L 179.016608 160.672584 
L 179.067803 159.624089 
L 179.267082 159.624089 
L 179.346681 158.575593 
L 179.570229 158.575593 
L 179.638682 157.527098 
L 179.784456 157.527098 
L 179.868122 155.954354 
L 180.079325 155.954354 
L 180.131249 154.905859 
L 180.25661 154.905859 
L 180.366102 153.857364 
L 180.407838 153.857364 
L 180.516374 152.808868 
L 180.590405 152.808868 
L 180.697186 150.711877 
L 180.937157 150.711877 
L 180.963682 149.663382 
L 181.208302 149.663382 
L 181.208302 149.139134 
L 181.399643 149.139134 
L 181.476406 148.090639 
L 181.510867 148.090639 
L 181.535356 147.042143 
L 181.626012 147.042143 
L 181.671162 145.993648 
L 181.883732 145.993648 
L 181.931057 144.420905 
L 182.058133 144.420905 
L 182.129765 143.372409 
L 182.201661 143.372409 
L 182.201661 142.848162 
L 182.408363 142.848162 
L 182.442112 141.799666 
L 182.607135 141.799666 
L 182.65688 140.751171 
L 182.738565 140.751171 
L 182.803093 139.178427 
L 182.99149 139.178427 
L 183.035866 138.129932 
L 183.121619 138.129932 
L 183.121619 137.605684 
L 183.23547 137.605684 
L 183.324962 136.032941 
L 183.394129 136.032941 
L 183.492163 134.460198 
L 183.571534 134.460198 
L 183.682454 132.887455 
L 183.686568 132.887455 
L 183.686568 132.363207 
L 183.81411 132.363207 
L 183.854887 130.266216 
L 183.934632 130.266216 
L 183.994326 129.217721 
L 184.077449 129.217721 
L 184.17517 127.644978 
L 184.189656 127.644978 
L 184.241504 126.596482 
L 184.387234 126.596482 
L 184.48616 124.499491 
L 184.51411 124.499491 
L 184.573293 122.926748 
L 184.696868 122.926748 
L 184.790658 119.781262 
L 184.814748 119.781262 
L 184.814748 119.257014 
L 184.938518 119.257014 
L 184.938518 118.732766 
L 185.057606 118.732766 
L 185.156535 117.160023 
L 185.182945 117.160023 
L 185.271314 114.538785 
L 185.328885 114.538785 
L 185.338695 113.490289 
L 185.452732 113.490289 
L 185.517558 110.344803 
L 185.566479 110.344803 
L 185.629501 108.77206 
L 185.71104 108.77206 
L 185.804925 106.675069 
L 185.856207 106.675069 
L 185.896039 105.102326 
L 185.967774 105.102326 
L 186.051312 101.956839 
L 186.173639 101.956839 
L 186.281402 98.811353 
L 186.314527 98.811353 
L 186.401669 96.714362 
L 186.427551 96.714362 
L 186.459082 94.617371 
L 186.562032 94.617371 
L 186.662639 92.520381 
L 186.685109 92.520381 
L 186.779848 89.899142 
L 186.806024 89.899142 
L 186.823596 88.326399 
L 186.920559 88.326399 
L 187.003418 85.180912 
L 187.046178 85.180912 
L 187.147363 82.559674 
L 187.183056 82.559674 
L 187.285526 81.511178 
L 187.295947 81.511178 
L 187.392361 78.365692 
L 187.429205 78.365692 
L 187.486589 76.268701 
L 187.555691 76.268701 
L 187.65352 74.695958 
L 187.674731 74.695958 
L 187.780803 73.647463 
L 187.8055 73.647463 
L 187.883808 72.074719 
L 187.96577 72.074719 
L 188.038165 69.977729 
L 188.106281 69.977729 
L 188.201826 67.880738 
L 188.22632 67.880738 
L 188.270085 66.307995 
L 188.342389 66.307995 
L 188.438973 64.735251 
L 188.456901 64.735251 
L 188.563688 62.114013 
L 188.572977 62.114013 
L 188.665584 59.492774 
L 188.802421 59.492774 
L 188.874045 57.920031 
L 188.984702 57.920031 
L 189.022812 56.871536 
L 189.097279 56.871536 
L 189.203903 55.298792 
L 189.270905 55.298792 
L 189.270905 54.774545 
L 189.411502 54.774545 
L 189.518398 53.201802 
L 189.526086 53.201802 
L 189.633365 51.629058 
L 189.65445 51.629058 
L 189.755516 50.056315 
L 189.774648 50.056315 
L 189.850964 48.483572 
L 190.087112 48.483572 
L 190.108002 47.435077 
L 190.219457 47.435077 
L 190.219457 46.910829 
L 191.328961 46.910829 
L 191.328961 46.386581 
L 191.498845 46.386581 
L 191.551307 45.338086 
L 191.747669 45.338086 
L 191.811239 43.765343 
L 192.019241 43.765343 
L 192.046448 42.716847 
L 192.155163 42.716847 
L 192.171175 41.668352 
L 192.277547 41.668352 
L 192.298119 39.571361 
L 192.445766 39.571361 
L 192.458424 38.522865 
L 192.582659 38.522865 
L 192.651462 37.47437 
L 193.508936 37.47437 
L 193.605634 36.425875 
L 194.112268 36.425875 
L 194.145594 35.377379 
L 194.677788 35.377379 
L 194.677788 34.853131 
L 195.338946 34.853131 
L 195.338946 34.328884 
L 195.497427 34.328884 
L 195.497427 33.804636 
L 195.729892 33.804636 
L 195.742134 32.756141 
L 196.315547 32.756141 
L 196.315547 32.231893 
L 196.508283 32.231893 
L 196.599238 31.183397 
L 197.146372 31.183397 
L 197.146372 30.65915 
L 197.307034 30.65915 
L 197.307034 30.134902 
L 197.420714 30.134902 
L 197.420714 29.610654 
L 197.656567 29.610654 
L 197.675032 28.562159 
L 197.957945 28.562159 
L 198.040001 27.513663 
L 333.168 27.513663 
L 333.168 27.513663 
" style="fill:none;stroke:#ff00ff;stroke-linecap:square;stroke-width:1.5;"/>
   </g>
   <g id="line2d_49">
    <defs>
     <path d="M -0 8.485281 
L 5.091169 0 
L 0 -8.485281 
L -5.091169 -0 
z
" id="m2902568414" style="stroke:#ff00ff;stroke-linejoin:miter;stroke-width:1.5;"/>
    </defs>
    <g>
     <use style="fill:none;stroke:#ff00ff;stroke-linejoin:miter;stroke-width:1.5;" x="162.705236" xlink:href="#m2902568414" y="234.067265"/>
     <use style="fill:none;stroke:#ff00ff;stroke-linejoin:miter;stroke-width:1.5;" x="186.695038" xlink:href="#m2902568414" y="91.471885"/>
     <use style="fill:none;stroke:#ff00ff;stroke-linejoin:miter;stroke-width:1.5;" x="198.040001" xlink:href="#m2902568414" y="27.513663"/>
     <use style="fill:none;stroke:#ff00ff;stroke-linejoin:miter;stroke-width:1.5;" x="198.040001" xlink:href="#m2902568414" y="27.513663"/>
     <use style="fill:none;stroke:#ff00ff;stroke-linejoin:miter;stroke-width:1.5;" x="333.168" xlink:href="#m2902568414" y="27.513663"/>
    </g>
   </g>
   <g id="line2d_50">
    <path style="fill:none;stroke:#ff00ff;stroke-linecap:square;stroke-width:1.5;"/>
    <g/>
   </g>
   <g id="line2d_51">
    <path clip-path="url(#pfc79fdf924)" d="M 181.639917 146.517896 
" style="fill:none;stroke:#ff00ff;stroke-linecap:square;stroke-width:1.5;"/>
    <defs>
     <path d="M -12 12 
L 12 -12 
M -12 -12 
L 12 12 
" id="m52adb00cd1" style="stroke:#ff00ff;"/>
    </defs>
    <g clip-path="url(#pfc79fdf924)">
     <use style="fill:#ff00ff;stroke:#ff00ff;" x="181.639917" xlink:href="#m52adb00cd1" y="146.517896"/>
    </g>
   </g>
   <g id="line2d_52">
    <defs>
     <path d="M 0 1.5 
C 0.397805 1.5 0.77937 1.341951 1.06066 1.06066 
C 1.341951 0.77937 1.5 0.397805 1.5 0 
C 1.5 -0.397805 1.341951 -0.77937 1.06066 -1.06066 
C 0.77937 -1.341951 0.397805 -1.5 0 -1.5 
C -0.397805 -1.5 -0.77937 -1.341951 -1.06066 -1.06066 
C -1.341951 -0.77937 -1.5 -0.397805 -1.5 0 
C -1.5 0.397805 -1.341951 0.77937 -1.06066 1.06066 
C -0.77937 1.341951 -0.397805 1.5 0 1.5 
z
" id="m3fcbf90d8f" style="stroke:#ff7500;"/>
    </defs>
    <g>
     <use style="fill:#ff7500;stroke:#ff7500;" x="255.364377" xlink:href="#m3fcbf90d8f" y="27.513663"/>
     <use style="fill:#ff7500;stroke:#ff7500;" x="255.364377" xlink:href="#m3fcbf90d8f" y="27.513663"/>
    </g>
   </g>
   <g id="line2d_53">
    <path d="M 119.245178 294.88 
L 119.245178 294.355752 
L 119.505289 294.355752 
L 119.505289 293.831505 
L 121.20406 293.831505 
L 121.20406 293.307257 
L 121.589472 293.307257 
L 121.684489 292.258761 
L 122.426293 292.258761 
L 122.480659 290.686018 
L 123.119979 290.686018 
L 123.119979 290.161771 
L 123.753181 290.161771 
L 123.753181 289.113275 
L 123.986816 289.113275 
L 123.986816 288.589027 
L 124.168185 288.589027 
L 124.200956 287.540532 
L 124.47702 287.540532 
L 124.47702 287.016284 
L 124.716977 287.016284 
L 124.716977 286.492036 
L 125.031795 286.492036 
L 125.125128 285.443541 
L 125.156126 285.443541 
L 125.156126 284.919293 
L 125.310285 284.919293 
L 125.325625 283.870798 
L 125.659691 283.870798 
L 125.659691 283.34655 
L 125.987387 283.34655 
L 125.987387 282.822302 
L 126.90663 282.822302 
L 126.90663 282.298055 
L 127.115148 282.298055 
L 127.115148 281.773807 
L 127.497741 281.773807 
L 127.497741 281.249559 
L 127.659138 281.249559 
L 127.725942 280.201064 
L 127.832291 280.201064 
L 127.88522 278.104073 
L 127.964309 278.104073 
L 127.964309 277.579825 
L 128.533435 277.579825 
L 128.634918 276.53133 
L 128.660195 276.53133 
L 128.660195 276.007082 
L 129.034962 276.007082 
L 129.034962 275.482834 
L 129.534278 275.482834 
L 129.534278 274.958587 
L 129.961052 274.958587 
L 129.961052 274.434339 
L 130.089369 274.434339 
L 130.089369 273.910091 
L 130.308777 273.910091 
L 130.308777 273.385844 
L 130.862022 273.385844 
L 130.873129 272.337348 
L 131.333273 272.337348 
L 131.430293 271.288853 
L 131.537454 271.288853 
L 131.537454 270.764605 
L 132.259201 270.764605 
L 132.259201 270.240357 
L 133.945808 270.240357 
L 133.955092 269.191862 
L 134.075325 269.191862 
L 134.075325 268.667614 
L 134.449104 268.667614 
L 134.53905 267.619119 
L 134.592793 267.619119 
L 134.592793 267.094871 
L 134.911766 267.094871 
L 134.911766 266.570623 
L 136.188716 266.570623 
L 136.188716 266.046375 
L 136.710475 266.046375 
L 136.710475 265.522128 
L 136.930442 265.522128 
L 137.023859 264.473632 
L 138.517524 264.473632 
L 138.517524 263.949385 
L 140.62489 263.949385 
L 140.62489 263.425137 
L 145.692091 263.425137 
L 145.692091 262.900889 
L 148.817351 262.900889 
L 148.817351 262.376641 
L 150.349729 262.376641 
L 150.349729 261.852394 
L 151.193983 261.852394 
L 151.193983 261.328146 
L 152.053843 261.328146 
L 152.053843 260.803898 
L 152.453932 260.803898 
L 152.507631 259.755403 
L 152.658355 259.755403 
L 152.658355 259.231155 
L 152.869642 259.231155 
L 152.869642 258.706907 
L 153.269502 258.706907 
L 153.269502 258.18266 
L 153.530009 258.18266 
L 153.577492 257.134164 
L 153.722096 257.134164 
L 153.722096 256.609917 
L 153.850916 256.609917 
L 153.850916 256.085669 
L 154.065414 256.085669 
L 154.085567 255.037173 
L 154.433054 255.037173 
L 154.478109 253.988678 
L 154.81507 253.988678 
L 154.881127 252.415935 
L 155.207659 252.415935 
L 155.207659 251.891687 
L 155.453865 251.891687 
L 155.453865 251.367439 
L 155.665127 251.367439 
L 155.772401 250.318944 
L 155.808878 250.318944 
L 155.808878 249.794696 
L 155.954019 249.794696 
L 156.054379 248.221953 
L 156.172005 248.221953 
L 156.172005 247.697705 
L 156.362076 247.697705 
L 156.392294 246.64921 
L 156.582447 246.64921 
L 156.686635 245.600714 
L 156.777901 245.600714 
L 156.846645 244.027971 
L 156.922436 244.027971 
L 156.951685 242.979476 
L 157.157453 242.979476 
L 157.248652 241.93098 
L 157.315543 241.93098 
L 157.38455 240.882485 
L 157.484002 240.882485 
L 157.488724 239.83399 
L 157.822993 239.83399 
L 157.889997 238.261246 
L 157.942952 238.261246 
L 157.952145 237.212751 
L 158.223412 237.212751 
L 158.282115 236.164255 
L 158.419059 236.164255 
L 158.510494 235.11576 
L 158.992983 235.11576 
L 159.085726 234.067265 
L 159.150135 234.067265 
L 159.150135 233.543017 
L 159.271851 233.543017 
L 159.312233 231.970274 
L 159.60689 231.970274 
L 159.60689 231.446026 
L 159.779224 231.446026 
L 159.855495 230.397531 
L 160.14915 230.397531 
L 160.175415 229.349035 
L 160.318161 229.349035 
L 160.318161 228.824787 
L 160.600143 228.824787 
L 160.600143 228.30054 
L 160.960709 228.30054 
L 161.047283 226.727797 
L 161.300635 226.727797 
L 161.385518 225.679301 
L 161.602412 225.679301 
L 161.707995 224.106558 
L 161.807426 224.106558 
L 161.807426 223.58231 
L 162.051706 223.58231 
L 162.051706 223.058063 
L 162.163567 223.058063 
L 162.25325 221.485319 
L 162.299701 221.485319 
L 162.317533 220.436824 
L 162.413509 220.436824 
L 162.463065 218.864081 
L 162.589841 218.864081 
L 162.649384 217.815585 
L 162.703494 217.815585 
L 162.800811 216.242842 
L 162.8164 216.242842 
L 162.899304 214.670099 
L 162.956069 214.670099 
L 163.041721 213.097356 
L 163.101424 213.097356 
L 163.189746 212.04886 
L 163.226976 212.04886 
L 163.324744 211.000365 
L 163.388499 211.000365 
L 163.416945 209.95187 
L 163.531919 209.95187 
L 163.570074 208.903374 
L 163.64613 208.903374 
L 163.74483 207.330631 
L 163.761226 207.330631 
L 163.825017 206.282136 
L 163.94379 206.282136 
L 164.042413 205.23364 
L 164.122832 205.23364 
L 164.154894 204.185145 
L 164.304791 204.185145 
L 164.365019 202.612401 
L 164.470698 202.612401 
L 164.544446 201.563906 
L 164.583545 201.563906 
L 164.683234 199.991163 
L 164.760717 199.991163 
L 164.760717 199.466915 
L 164.874753 199.466915 
L 164.978881 197.369924 
L 165.126332 197.369924 
L 165.197325 196.321429 
L 165.324977 196.321429 
L 165.430882 194.224438 
L 165.475435 194.224438 
L 165.571573 192.651695 
L 165.662775 192.651695 
L 165.749117 191.603199 
L 165.930625 191.603199 
L 165.930625 191.078952 
L 166.293648 191.078952 
L 166.293648 190.554704 
L 166.444309 190.554704 
L 166.512865 189.506209 
L 166.618659 189.506209 
L 166.664393 187.933465 
L 166.809109 187.933465 
L 166.862551 186.88497 
L 166.922647 186.88497 
L 166.926736 185.836474 
L 167.077378 185.836474 
L 167.077378 185.312227 
L 167.226711 185.312227 
L 167.226711 184.787979 
L 167.346846 184.787979 
L 167.442353 183.215236 
L 167.459541 183.215236 
L 167.511002 181.642493 
L 167.623939 181.642493 
L 167.676216 180.593997 
L 167.802331 180.593997 
L 167.899212 179.545502 
L 167.969913 179.545502 
L 168.070959 177.972759 
L 168.098993 177.972759 
L 168.171415 176.400016 
L 168.261199 176.400016 
L 168.36306 174.827272 
L 168.485497 174.827272 
L 168.499186 173.778777 
L 168.652745 173.778777 
L 168.721647 172.206034 
L 168.850099 172.206034 
L 168.917003 170.633291 
L 169.46894 170.633291 
L 169.566247 168.5363 
L 169.586109 168.5363 
L 169.595448 167.487804 
L 169.732614 167.487804 
L 169.836501 166.439309 
L 169.907704 166.439309 
L 169.990023 164.866566 
L 170.035586 164.866566 
L 170.035586 164.342318 
L 170.227893 164.342318 
L 170.281804 162.769575 
L 170.350073 162.769575 
L 170.390236 161.721079 
L 170.526755 161.721079 
L 170.557682 160.672584 
L 170.63915 160.672584 
L 170.63915 160.148336 
L 170.855252 160.148336 
L 170.855252 159.624089 
L 170.988142 159.624089 
L 171.091152 158.575593 
L 171.211617 158.575593 
L 171.265711 157.527098 
L 171.551373 157.527098 
L 171.551373 157.00285 
L 171.731653 157.00285 
L 171.731653 156.478602 
L 172.290377 156.478602 
L 172.290377 155.954354 
L 172.420583 155.954354 
L 172.456193 154.905859 
L 172.693674 154.905859 
L 172.693674 154.381611 
L 173.019964 154.381611 
L 173.125782 153.333116 
L 174.160343 153.333116 
L 174.160343 152.808868 
L 176.335345 152.808868 
L 176.335345 152.28462 
L 176.45948 152.28462 
L 176.543039 151.236125 
L 176.66182 151.236125 
L 176.66182 150.711877 
L 177.207779 150.711877 
L 177.207779 150.18763 
L 177.392653 150.18763 
L 177.392653 149.663382 
L 177.555006 149.663382 
L 177.555006 149.139134 
L 177.776854 149.139134 
L 177.867972 148.090639 
L 177.927012 148.090639 
L 177.927012 147.566391 
L 178.045915 147.566391 
L 178.045915 147.042143 
L 178.238984 147.042143 
L 178.238984 146.517896 
L 179.647138 146.517896 
L 179.647138 145.993648 
L 181.728873 145.993648 
L 181.728873 145.4694 
L 181.862021 145.4694 
L 181.970869 143.896657 
L 182.050218 143.896657 
L 182.050218 143.372409 
L 182.194373 143.372409 
L 182.293897 141.799666 
L 182.434925 141.799666 
L 182.434925 141.275418 
L 182.551205 141.275418 
L 182.60823 140.226923 
L 182.729327 140.226923 
L 182.729327 139.702675 
L 182.864684 139.702675 
L 182.925517 138.65418 
L 182.995237 138.65418 
L 183.066807 137.605684 
L 183.243385 137.605684 
L 183.325487 136.557189 
L 183.386283 136.557189 
L 183.386283 136.032941 
L 183.672681 136.032941 
L 183.672681 135.508693 
L 183.877273 135.508693 
L 183.916887 134.460198 
L 184.062868 134.460198 
L 184.080966 133.411703 
L 184.19315 133.411703 
L 184.253944 132.363207 
L 184.318488 132.363207 
L 184.406966 131.314712 
L 184.569874 131.314712 
L 184.663872 130.266216 
L 184.718185 130.266216 
L 184.778118 129.217721 
L 184.837362 129.217721 
L 184.837362 128.693473 
L 185.876587 128.693473 
L 185.986673 127.644978 
L 186.071462 127.644978 
L 186.071462 127.12073 
L 186.184757 127.12073 
L 186.263267 125.547987 
L 186.316291 125.547987 
L 186.410886 124.499491 
L 186.430181 124.499491 
L 186.501035 123.450996 
L 186.629747 123.450996 
L 186.740724 121.878253 
L 186.84885 121.878253 
L 186.84885 121.354005 
L 186.960551 121.354005 
L 187.068997 119.781262 
L 187.125911 119.781262 
L 187.163329 118.732766 
L 187.444085 118.732766 
L 187.444085 118.208519 
L 187.563488 118.208519 
L 187.563488 117.684271 
L 192.565185 117.684271 
L 192.607154 116.635776 
L 192.749147 116.635776 
L 192.806706 115.58728 
L 193.034735 115.58728 
L 193.034735 115.063032 
L 193.164666 115.063032 
L 193.221443 113.490289 
L 193.34294 113.490289 
L 193.34294 112.966042 
L 195.150249 112.966042 
L 195.150249 112.441794 
L 196.029602 112.441794 
L 196.089172 111.393298 
L 196.164962 111.393298 
L 196.247105 109.820555 
L 198.70569 109.820555 
L 198.744057 108.77206 
L 198.822027 108.77206 
L 198.929111 107.199317 
L 200.186699 107.199317 
L 200.282697 105.626573 
L 200.301872 105.626573 
L 200.39159 103.005335 
L 200.426959 103.005335 
L 200.508494 101.432592 
L 200.554032 101.432592 
L 200.637462 99.335601 
L 200.680939 99.335601 
L 200.704833 98.287105 
L 201.365687 98.287105 
L 201.441069 96.714362 
L 201.495337 96.714362 
L 201.559252 95.141619 
L 202.102566 95.141619 
L 202.180578 93.568876 
L 202.239903 93.568876 
L 202.292929 92.520381 
L 205.238126 92.520381 
L 205.3347 89.899142 
L 205.378273 89.899142 
L 205.453645 88.850646 
L 206.747973 88.850646 
L 206.853686 86.229408 
L 206.865836 86.229408 
L 206.964195 82.559674 
L 207.047339 82.559674 
L 207.15307 80.462683 
L 208.284085 80.462683 
L 208.332443 78.365692 
L 210.883347 78.365692 
L 210.993196 71.550472 
L 210.997395 71.550472 
L 211.013237 70.501976 
L 212.22062 70.501976 
L 212.264649 68.929233 
L 215.003685 68.929233 
L 215.003685 68.404985 
L 216.200991 68.404985 
L 216.288701 65.783747 
L 216.476989 65.783747 
L 216.572414 60.017022 
L 217.589689 60.017022 
L 217.649238 57.395783 
L 218.623676 57.395783 
L 218.644273 56.347288 
L 219.429514 56.347288 
L 219.466491 55.298792 
L 220.025586 55.298792 
L 220.107391 51.104811 
L 220.341783 51.104811 
L 220.341783 50.580563 
L 220.969235 50.580563 
L 220.990199 48.483572 
L 221.782973 48.483572 
L 221.822437 45.862334 
L 222.495847 45.862334 
L 222.519595 44.813838 
L 225.722761 44.813838 
L 225.76451 42.716847 
L 225.946339 42.716847 
L 225.977365 40.095609 
L 226.27082 40.095609 
L 226.27082 39.571361 
L 230.90372 39.571361 
L 230.936391 36.950122 
L 233.602394 36.950122 
L 233.622021 33.804636 
L 234.305748 33.804636 
L 234.323805 31.707645 
L 242.701008 31.707645 
L 242.70597 30.134902 
L 243.648139 30.134902 
L 243.653557 29.086407 
L 244.211509 29.086407 
L 244.211509 28.562159 
L 250.560581 28.562159 
L 250.560581 28.037911 
L 255.364377 28.037911 
L 255.364377 27.513663 
L 333.168 27.513663 
L 333.168 27.513663 
" style="fill:none;stroke:#ff7500;stroke-linecap:square;stroke-width:1.5;"/>
   </g>
   <g id="line2d_54">
    <defs>
     <path d="M 0 -6 
L -1.347084 -1.854102 
L -5.706339 -1.854102 
L -2.179628 0.708204 
L -3.526712 4.854102 
L -0 2.291796 
L 3.526712 4.854102 
L 2.179628 0.708204 
L 5.706339 -1.854102 
L 1.347084 -1.854102 
z
" id="ma8f33f655b" style="stroke:#ff7500;stroke-linejoin:bevel;stroke-width:1.5;"/>
    </defs>
    <g>
     <use style="fill:none;stroke:#ff7500;stroke-linejoin:bevel;stroke-width:1.5;" x="167.226711" xlink:href="#ma8f33f655b" y="184.787979"/>
     <use style="fill:none;stroke:#ff7500;stroke-linejoin:bevel;stroke-width:1.5;" x="216.214169" xlink:href="#ma8f33f655b" y="67.35649"/>
     <use style="fill:none;stroke:#ff7500;stroke-linejoin:bevel;stroke-width:1.5;" x="255.364377" xlink:href="#ma8f33f655b" y="28.037911"/>
     <use style="fill:none;stroke:#ff7500;stroke-linejoin:bevel;stroke-width:1.5;" x="255.364377" xlink:href="#ma8f33f655b" y="27.513663"/>
     <use style="fill:none;stroke:#ff7500;stroke-linejoin:bevel;stroke-width:1.5;" x="333.168" xlink:href="#ma8f33f655b" y="27.513663"/>
    </g>
   </g>
   <g id="line2d_55">
    <path style="fill:none;stroke:#ff7500;stroke-linecap:square;stroke-width:1.5;"/>
    <g/>
   </g>
   <g id="line2d_56">
    <path clip-path="url(#pfc79fdf924)" d="M 242.097332 31.707645 
" style="fill:none;stroke:#ff7500;stroke-linecap:square;stroke-width:1.5;"/>
    <defs>
     <path d="M -12 12 
L 12 -12 
M -12 -12 
L 12 12 
" id="m73004ab94b" style="stroke:#ff7500;"/>
    </defs>
    <g clip-path="url(#pfc79fdf924)">
     <use style="fill:#ff7500;stroke:#ff7500;" x="242.097332" xlink:href="#m73004ab94b" y="31.707645"/>
    </g>
   </g>
   <g id="line2d_57">
    <path d="M 333.168 27.513663 
L 363.64328 289.532673 
" style="fill:none;stroke:#ff7500;stroke-linecap:square;stroke-width:1.5;"/>
    <g>
     <use style="fill:none;stroke:#ff7500;stroke-linejoin:bevel;stroke-width:1.5;" x="333.168" xlink:href="#ma8f33f655b" y="27.513663"/>
     <use style="fill:none;stroke:#ff7500;stroke-linejoin:bevel;stroke-width:1.5;" x="363.64328" xlink:href="#ma8f33f655b" y="289.532673"/>
    </g>
   </g>
   <g id="line2d_58">
    <path d="M 333.168 27.513663 
L 363.64328 203.975446 
" style="fill:none;stroke:#000080;stroke-linecap:square;stroke-width:1.5;"/>
    <g>
     <use style="fill:none;stroke:#000080;stroke-width:1.5;" x="333.168" xlink:href="#m528a68db94" y="27.513663"/>
     <use style="fill:none;stroke:#000080;stroke-width:1.5;" x="363.64328" xlink:href="#m528a68db94" y="203.975446"/>
    </g>
   </g>
   <g id="line2d_59">
    <path d="M 333.168 27.513663 
L 363.64328 118.418218 
" style="fill:none;stroke:#ff00ff;stroke-linecap:square;stroke-width:1.5;"/>
    <g>
     <use style="fill:none;stroke:#ff00ff;stroke-linejoin:miter;stroke-width:1.5;" x="333.168" xlink:href="#m2902568414" y="27.513663"/>
     <use style="fill:none;stroke:#ff00ff;stroke-linejoin:miter;stroke-width:1.5;" x="363.64328" xlink:href="#m2902568414" y="118.418218"/>
    </g>
   </g>
   <g id="line2d_60">
    <path d="M 333.168 294.88 
L 333.168 27.513663 
" style="fill:none;stroke:#000000;stroke-linecap:square;stroke-width:1.5;"/>
   </g>
   <g id="patch_3">
    <path d="M 56.12 294.88 
L 56.12 24.84 
" style="fill:none;stroke:#000000;stroke-linecap:square;stroke-linejoin:miter;stroke-width:0.8;"/>
   </g>
   <g id="patch_4">
    <path d="M 333.168 294.88 
L 333.168 24.84 
" style="fill:none;stroke:#000000;stroke-linecap:square;stroke-linejoin:miter;stroke-width:0.8;"/>
   </g>
   <g id="patch_5">
    <path d="M 56.12 294.88 
L 333.168 294.88 
" style="fill:none;stroke:#000000;stroke-linecap:square;stroke-linejoin:miter;stroke-width:0.8;"/>
   </g>
   <g id="patch_6">
    <path d="M 56.12 24.84 
L 333.168 24.84 
" style="fill:none;stroke:#000000;stroke-linecap:square;stroke-linejoin:miter;stroke-width:0.8;"/>
   </g>
   <g id="text_13">
    <!-- CMAES posi -->
    <defs>
     <path d="M 64.40625 67.28125 
L 64.40625 56.890625 
Q 59.421875 61.53125 53.78125 63.8125 
Q 48.140625 66.109375 41.796875 66.109375 
Q 29.296875 66.109375 22.65625 58.46875 
Q 16.015625 50.828125 16.015625 36.375 
Q 16.015625 21.96875 22.65625 14.328125 
Q 29.296875 6.6875 41.796875 6.6875 
Q 48.140625 6.6875 53.78125 8.984375 
Q 59.421875 11.28125 64.40625 15.921875 
L 64.40625 5.609375 
Q 59.234375 2.09375 53.4375 0.328125 
Q 47.65625 -1.421875 41.21875 -1.421875 
Q 24.65625 -1.421875 15.125 8.703125 
Q 5.609375 18.84375 5.609375 36.375 
Q 5.609375 53.953125 15.125 64.078125 
Q 24.65625 74.21875 41.21875 74.21875 
Q 47.75 74.21875 53.53125 72.484375 
Q 59.328125 70.75 64.40625 67.28125 
z
" id="DejaVuSans-43"/>
     <path d="M 9.8125 72.90625 
L 24.515625 72.90625 
L 43.109375 23.296875 
L 61.8125 72.90625 
L 76.515625 72.90625 
L 76.515625 0 
L 66.890625 0 
L 66.890625 64.015625 
L 48.09375 14.015625 
L 38.1875 14.015625 
L 19.390625 64.015625 
L 19.390625 0 
L 9.8125 0 
z
" id="DejaVuSans-4d"/>
     <path d="M 34.1875 63.1875 
L 20.796875 26.90625 
L 47.609375 26.90625 
z
M 28.609375 72.90625 
L 39.796875 72.90625 
L 67.578125 0 
L 57.328125 0 
L 50.6875 18.703125 
L 17.828125 18.703125 
L 11.1875 0 
L 0.78125 0 
z
" id="DejaVuSans-41"/>
     <path d="M 9.8125 72.90625 
L 55.90625 72.90625 
L 55.90625 64.59375 
L 19.671875 64.59375 
L 19.671875 43.015625 
L 54.390625 43.015625 
L 54.390625 34.71875 
L 19.671875 34.71875 
L 19.671875 8.296875 
L 56.78125 8.296875 
L 56.78125 0 
L 9.8125 0 
z
" id="DejaVuSans-45"/>
     <path d="M 53.515625 70.515625 
L 53.515625 60.890625 
Q 47.90625 63.578125 42.921875 64.890625 
Q 37.9375 66.21875 33.296875 66.21875 
Q 25.25 66.21875 20.875 63.09375 
Q 16.5 59.96875 16.5 54.203125 
Q 16.5 49.359375 19.40625 46.890625 
Q 22.3125 44.4375 30.421875 42.921875 
L 36.375 41.703125 
Q 47.40625 39.59375 52.65625 34.296875 
Q 57.90625 29 57.90625 20.125 
Q 57.90625 9.515625 50.796875 4.046875 
Q 43.703125 -1.421875 29.984375 -1.421875 
Q 24.8125 -1.421875 18.96875 -0.25 
Q 13.140625 0.921875 6.890625 3.21875 
L 6.890625 13.375 
Q 12.890625 10.015625 18.65625 8.296875 
Q 24.421875 6.59375 29.984375 6.59375 
Q 38.421875 6.59375 43.015625 9.90625 
Q 47.609375 13.234375 47.609375 19.390625 
Q 47.609375 24.75 44.3125 27.78125 
Q 41.015625 30.8125 33.5 32.328125 
L 27.484375 33.5 
Q 16.453125 35.6875 11.515625 40.375 
Q 6.59375 45.0625 6.59375 53.421875 
Q 6.59375 63.09375 13.40625 68.65625 
Q 20.21875 74.21875 32.171875 74.21875 
Q 37.3125 74.21875 42.625 73.28125 
Q 47.953125 72.359375 53.515625 70.515625 
z
" id="DejaVuSans-53"/>
    </defs>
    <g transform="translate(369.18424 294.223611)scale(0.17 -0.17)">
     <use xlink:href="#DejaVuSans-43"/>
     <use x="69.824219" xlink:href="#DejaVuSans-4d"/>
     <use x="156.103516" xlink:href="#DejaVuSans-41"/>
     <use x="224.511719" xlink:href="#DejaVuSans-45"/>
     <use x="287.695312" xlink:href="#DejaVuSans-53"/>
     <use x="351.171875" xlink:href="#DejaVuSans-20"/>
     <use x="382.958984" xlink:href="#DejaVuSans-70"/>
     <use x="446.435547" xlink:href="#DejaVuSans-6f"/>
     <use x="507.617188" xlink:href="#DejaVuSans-73"/>
     <use x="559.716797" xlink:href="#DejaVuSans-69"/>
    </g>
   </g>
   <g id="text_14">
    <!-- CMA ES PPM -->
    <defs>
     <path d="M 19.671875 64.796875 
L 19.671875 37.40625 
L 32.078125 37.40625 
Q 38.96875 37.40625 42.71875 40.96875 
Q 46.484375 44.53125 46.484375 51.125 
Q 46.484375 57.671875 42.71875 61.234375 
Q 38.96875 64.796875 32.078125 64.796875 
z
M 9.8125 72.90625 
L 32.078125 72.90625 
Q 44.34375 72.90625 50.609375 67.359375 
Q 56.890625 61.8125 56.890625 51.125 
Q 56.890625 40.328125 50.609375 34.8125 
Q 44.34375 29.296875 32.078125 29.296875 
L 19.671875 29.296875 
L 19.671875 0 
L 9.8125 0 
z
" id="DejaVuSans-50"/>
    </defs>
    <g transform="translate(369.18424 208.666383)scale(0.17 -0.17)">
     <use xlink:href="#DejaVuSans-43"/>
     <use x="69.824219" xlink:href="#DejaVuSans-4d"/>
     <use x="156.103516" xlink:href="#DejaVuSans-41"/>
     <use x="224.511719" xlink:href="#DejaVuSans-20"/>
     <use x="256.298828" xlink:href="#DejaVuSans-45"/>
     <use x="319.482422" xlink:href="#DejaVuSans-53"/>
     <use x="382.958984" xlink:href="#DejaVuSans-20"/>
     <use x="414.746094" xlink:href="#DejaVuSans-50"/>
     <use x="475.048828" xlink:href="#DejaVuSans-50"/>
     <use x="535.351562" xlink:href="#DejaVuSans-4d"/>
    </g>
   </g>
   <g id="text_15">
    <!-- CMA ES CSA -->
    <g transform="translate(369.18424 123.109155)scale(0.17 -0.17)">
     <use xlink:href="#DejaVuSans-43"/>
     <use x="69.824219" xlink:href="#DejaVuSans-4d"/>
     <use x="156.103516" xlink:href="#DejaVuSans-41"/>
     <use x="224.511719" xlink:href="#DejaVuSans-20"/>
     <use x="256.298828" xlink:href="#DejaVuSans-45"/>
     <use x="319.482422" xlink:href="#DejaVuSans-53"/>
     <use x="382.958984" xlink:href="#DejaVuSans-20"/>
     <use x="414.746094" xlink:href="#DejaVuSans-43"/>
     <use x="484.570312" xlink:href="#DejaVuSans-53"/>
     <use x="548.0625" xlink:href="#DejaVuSans-41"/>
    </g>
   </g>
   <g id="text_16">
    <!-- best 2009 -->
    <defs>
     <path d="M 48.6875 27.296875 
Q 48.6875 37.203125 44.609375 42.84375 
Q 40.53125 48.484375 33.40625 48.484375 
Q 26.265625 48.484375 22.1875 42.84375 
Q 18.109375 37.203125 18.109375 27.296875 
Q 18.109375 17.390625 22.1875 11.75 
Q 26.265625 6.109375 33.40625 6.109375 
Q 40.53125 6.109375 44.609375 11.75 
Q 48.6875 17.390625 48.6875 27.296875 
z
M 18.109375 46.390625 
Q 20.953125 51.265625 25.265625 53.625 
Q 29.59375 56 35.59375 56 
Q 45.5625 56 51.78125 48.09375 
Q 58.015625 40.1875 58.015625 27.296875 
Q 58.015625 14.40625 51.78125 6.484375 
Q 45.5625 -1.421875 35.59375 -1.421875 
Q 29.59375 -1.421875 25.265625 0.953125 
Q 20.953125 3.328125 18.109375 8.203125 
L 18.109375 0 
L 9.078125 0 
L 9.078125 75.984375 
L 18.109375 75.984375 
z
" id="DejaVuSans-62"/>
     <path d="M 10.984375 1.515625 
L 10.984375 10.5 
Q 14.703125 8.734375 18.5 7.8125 
Q 22.3125 6.890625 25.984375 6.890625 
Q 35.75 6.890625 40.890625 13.453125 
Q 46.046875 20.015625 46.78125 33.40625 
Q 43.953125 29.203125 39.59375 26.953125 
Q 35.25 24.703125 29.984375 24.703125 
Q 19.046875 24.703125 12.671875 31.3125 
Q 6.296875 37.9375 6.296875 49.421875 
Q 6.296875 60.640625 12.9375 67.421875 
Q 19.578125 74.21875 30.609375 74.21875 
Q 43.265625 74.21875 49.921875 64.515625 
Q 56.59375 54.828125 56.59375 36.375 
Q 56.59375 19.140625 48.40625 8.859375 
Q 40.234375 -1.421875 26.421875 -1.421875 
Q 22.703125 -1.421875 18.890625 -0.6875 
Q 15.09375 0.046875 10.984375 1.515625 
z
M 30.609375 32.421875 
Q 37.25 32.421875 41.125 36.953125 
Q 45.015625 41.5 45.015625 49.421875 
Q 45.015625 57.28125 41.125 61.84375 
Q 37.25 66.40625 30.609375 66.40625 
Q 23.96875 66.40625 20.09375 61.84375 
Q 16.21875 57.28125 16.21875 49.421875 
Q 16.21875 41.5 20.09375 36.953125 
Q 23.96875 32.421875 30.609375 32.421875 
z
" id="DejaVuSans-39"/>
    </defs>
    <g transform="translate(369.18424 37.551928)scale(0.17 -0.17)">
     <use xlink:href="#DejaVuSans-62"/>
     <use x="63.476562" xlink:href="#DejaVuSans-65"/>
     <use x="125" xlink:href="#DejaVuSans-73"/>
     <use x="177.099609" xlink:href="#DejaVuSans-74"/>
     <use x="216.308594" xlink:href="#DejaVuSans-20"/>
     <use x="248.095703" xlink:href="#DejaVuSans-32"/>
     <use x="311.71875" xlink:href="#DejaVuSans-30"/>
     <use x="375.341797" xlink:href="#DejaVuSans-30"/>
     <use x="438.964844" xlink:href="#DejaVuSans-39"/>
    </g>
   </g>
   <g id="text_17">
    <!-- bbob f13, 20-D -->
    <defs>
     <path d="M 40.578125 39.3125 
Q 47.65625 37.796875 51.625 33 
Q 55.609375 28.21875 55.609375 21.1875 
Q 55.609375 10.40625 48.1875 4.484375 
Q 40.765625 -1.421875 27.09375 -1.421875 
Q 22.515625 -1.421875 17.65625 -0.515625 
Q 12.796875 0.390625 7.625 2.203125 
L 7.625 11.71875 
Q 11.71875 9.328125 16.59375 8.109375 
Q 21.484375 6.890625 26.8125 6.890625 
Q 36.078125 6.890625 40.9375 10.546875 
Q 45.796875 14.203125 45.796875 21.1875 
Q 45.796875 27.640625 41.28125 31.265625 
Q 36.765625 34.90625 28.71875 34.90625 
L 20.21875 34.90625 
L 20.21875 43.015625 
L 29.109375 43.015625 
Q 36.375 43.015625 40.234375 45.921875 
Q 44.09375 48.828125 44.09375 54.296875 
Q 44.09375 59.90625 40.109375 62.90625 
Q 36.140625 65.921875 28.71875 65.921875 
Q 24.65625 65.921875 20.015625 65.03125 
Q 15.375 64.15625 9.8125 62.3125 
L 9.8125 71.09375 
Q 15.4375 72.65625 20.34375 73.4375 
Q 25.25 74.21875 29.59375 74.21875 
Q 40.828125 74.21875 47.359375 69.109375 
Q 53.90625 64.015625 53.90625 55.328125 
Q 53.90625 49.265625 50.4375 45.09375 
Q 46.96875 40.921875 40.578125 39.3125 
z
" id="DejaVuSans-33"/>
     <path d="M 19.671875 64.796875 
L 19.671875 8.109375 
L 31.59375 8.109375 
Q 46.6875 8.109375 53.6875 14.9375 
Q 60.6875 21.78125 60.6875 36.53125 
Q 60.6875 51.171875 53.6875 57.984375 
Q 46.6875 64.796875 31.59375 64.796875 
z
M 9.8125 72.90625 
L 30.078125 72.90625 
Q 51.265625 72.90625 61.171875 64.09375 
Q 71.09375 55.28125 71.09375 36.53125 
Q 71.09375 17.671875 61.125 8.828125 
Q 51.171875 0 30.078125 0 
L 9.8125 0 
z
" id="DejaVuSans-44"/>
    </defs>
    <g transform="translate(58.89048 35.290806)scale(0.102 -0.102)">
     <use xlink:href="#DejaVuSans-62"/>
     <use x="63.476562" xlink:href="#DejaVuSans-62"/>
     <use x="126.953125" xlink:href="#DejaVuSans-6f"/>
     <use x="188.134766" xlink:href="#DejaVuSans-62"/>
     <use x="251.611328" xlink:href="#DejaVuSans-20"/>
     <use x="283.398438" xlink:href="#DejaVuSans-66"/>
     <use x="318.603516" xlink:href="#DejaVuSans-31"/>
     <use x="382.226562" xlink:href="#DejaVuSans-33"/>
     <use x="445.849609" xlink:href="#DejaVuSans-2c"/>
     <use x="477.636719" xlink:href="#DejaVuSans-20"/>
     <use x="509.423828" xlink:href="#DejaVuSans-32"/>
     <use x="573.046875" xlink:href="#DejaVuSans-30"/>
     <use x="636.669922" xlink:href="#DejaVuSans-2d"/>
     <use x="672.753906" xlink:href="#DejaVuSans-44"/>
    </g>
    <!-- 51 targets: 100..1e-08 -->
    <defs>
     <path d="M 10.796875 72.90625 
L 49.515625 72.90625 
L 49.515625 64.59375 
L 19.828125 64.59375 
L 19.828125 46.734375 
Q 21.96875 47.46875 24.109375 47.828125 
Q 26.265625 48.1875 28.421875 48.1875 
Q 40.625 48.1875 47.75 41.5 
Q 54.890625 34.8125 54.890625 23.390625 
Q 54.890625 11.625 47.5625 5.09375 
Q 40.234375 -1.421875 26.90625 -1.421875 
Q 22.3125 -1.421875 17.546875 -0.640625 
Q 12.796875 0.140625 7.71875 1.703125 
L 7.71875 11.625 
Q 12.109375 9.234375 16.796875 8.0625 
Q 21.484375 6.890625 26.703125 6.890625 
Q 35.15625 6.890625 40.078125 11.328125 
Q 45.015625 15.765625 45.015625 23.390625 
Q 45.015625 31 40.078125 35.4375 
Q 35.15625 39.890625 26.703125 39.890625 
Q 22.75 39.890625 18.8125 39.015625 
Q 14.890625 38.140625 10.796875 36.28125 
z
" id="DejaVuSans-35"/>
     <path d="M 11.71875 12.40625 
L 22.015625 12.40625 
L 22.015625 0 
L 11.71875 0 
z
M 11.71875 51.703125 
L 22.015625 51.703125 
L 22.015625 39.3125 
L 11.71875 39.3125 
z
" id="DejaVuSans-3a"/>
    </defs>
    <g transform="translate(58.89048 46.712575)scale(0.102 -0.102)">
     <use xlink:href="#DejaVuSans-35"/>
     <use x="63.623047" xlink:href="#DejaVuSans-31"/>
     <use x="127.246094" xlink:href="#DejaVuSans-20"/>
     <use x="159.033203" xlink:href="#DejaVuSans-74"/>
     <use x="198.242188" xlink:href="#DejaVuSans-61"/>
     <use x="259.521484" xlink:href="#DejaVuSans-72"/>
     <use x="300.619141" xlink:href="#DejaVuSans-67"/>
     <use x="364.095703" xlink:href="#DejaVuSans-65"/>
     <use x="425.619141" xlink:href="#DejaVuSans-74"/>
     <use x="464.828125" xlink:href="#DejaVuSans-73"/>
     <use x="516.927734" xlink:href="#DejaVuSans-3a"/>
     <use x="550.619141" xlink:href="#DejaVuSans-20"/>
     <use x="582.40625" xlink:href="#DejaVuSans-31"/>
     <use x="646.029297" xlink:href="#DejaVuSans-30"/>
     <use x="709.652344" xlink:href="#DejaVuSans-30"/>
     <use x="773.275391" xlink:href="#DejaVuSans-2e"/>
     <use x="805.0625" xlink:href="#DejaVuSans-2e"/>
     <use x="836.849609" xlink:href="#DejaVuSans-31"/>
     <use x="900.472656" xlink:href="#DejaVuSans-65"/>
     <use x="961.996094" xlink:href="#DejaVuSans-2d"/>
     <use x="998.080078" xlink:href="#DejaVuSans-30"/>
     <use x="1061.703125" xlink:href="#DejaVuSans-38"/>
    </g>
    <!-- 15 instances -->
    <g transform="translate(58.89048 58.134344)scale(0.102 -0.102)">
     <use xlink:href="#DejaVuSans-31"/>
     <use x="63.623047" xlink:href="#DejaVuSans-35"/>
     <use x="127.246094" xlink:href="#DejaVuSans-20"/>
     <use x="159.033203" xlink:href="#DejaVuSans-69"/>
     <use x="186.816406" xlink:href="#DejaVuSans-6e"/>
     <use x="250.195312" xlink:href="#DejaVuSans-73"/>
     <use x="302.294922" xlink:href="#DejaVuSans-74"/>
     <use x="341.503906" xlink:href="#DejaVuSans-61"/>
     <use x="402.783203" xlink:href="#DejaVuSans-6e"/>
     <use x="466.162109" xlink:href="#DejaVuSans-63"/>
     <use x="521.142578" xlink:href="#DejaVuSans-65"/>
     <use x="582.666016" xlink:href="#DejaVuSans-73"/>
    </g>
   </g>
   <g id="text_18">
    <!-- v0.0.0 -->
    <g style="fill:#808080;" transform="translate(178.96275 290.099912)scale(0.1 -0.1)">
     <use xlink:href="#DejaVuSans-76"/>
     <use x="59.179688" xlink:href="#DejaVuSans-30"/>
     <use x="122.802734" xlink:href="#DejaVuSans-2e"/>
     <use x="154.589844" xlink:href="#DejaVuSans-30"/>
     <use x="218.212891" xlink:href="#DejaVuSans-2e"/>
     <use x="250" xlink:href="#DejaVuSans-30"/>
    </g>
   </g>
   <g id="text_19">
    <!-- 13 Sharp ridge -->
    <defs>
     <path d="M 54.890625 33.015625 
L 54.890625 0 
L 45.90625 0 
L 45.90625 32.71875 
Q 45.90625 40.484375 42.875 44.328125 
Q 39.84375 48.1875 33.796875 48.1875 
Q 26.515625 48.1875 22.3125 43.546875 
Q 18.109375 38.921875 18.109375 30.90625 
L 18.109375 0 
L 9.078125 0 
L 9.078125 75.984375 
L 18.109375 75.984375 
L 18.109375 46.1875 
Q 21.34375 51.125 25.703125 53.5625 
Q 30.078125 56 35.796875 56 
Q 45.21875 56 50.046875 50.171875 
Q 54.890625 44.34375 54.890625 33.015625 
z
" id="DejaVuSans-68"/>
    </defs>
    <g transform="translate(120.55025 18.84)scale(0.2 -0.2)">
     <use xlink:href="#DejaVuSans-31"/>
     <use x="63.623047" xlink:href="#DejaVuSans-33"/>
     <use x="127.246094" xlink:href="#DejaVuSans-20"/>
     <use x="159.033203" xlink:href="#DejaVuSans-53"/>
     <use x="222.509766" xlink:href="#DejaVuSans-68"/>
     <use x="285.888672" xlink:href="#DejaVuSans-61"/>
     <use x="347.167969" xlink:href="#DejaVuSans-72"/>
     <use x="388.28125" xlink:href="#DejaVuSans-70"/>
     <use x="451.757812" xlink:href="#DejaVuSans-20"/>
     <use x="483.544922" xlink:href="#DejaVuSans-72"/>
     <use x="524.658203" xlink:href="#DejaVuSans-69"/>
     <use x="552.441406" xlink:href="#DejaVuSans-64"/>
     <use x="615.917969" xlink:href="#DejaVuSans-67"/>
     <use x="679.394531" xlink:href="#DejaVuSans-65"/>
    </g>
   </g>
  </g>
 </g>
 <defs>
  <clipPath id="pfc79fdf924">
   <rect height="270.04" width="277.048" x="56.12" y="24.84"/>
  </clipPath>
 </defs>
</svg>
