<?xml version="1.0" encoding="utf-8" standalone="no"?>
<!DOCTYPE svg PUBLIC "-//W3C//DTD SVG 1.1//EN"
  "http://www.w3.org/Graphics/SVG/1.1/DTD/svg11.dtd">
<!-- Created with matplotlib (http://matplotlib.org/) -->
<svg height="345pt" version="1.1" viewBox="0 0 460 345" width="460pt" xmlns="http://www.w3.org/2000/svg" xmlns:xlink="http://www.w3.org/1999/xlink">
 <defs>
  <style type="text/css">
*{stroke-linecap:butt;stroke-linejoin:round;}
  </style>
 </defs>
 <g id="figure_1">
  <g id="patch_1">
   <path d="M 0 345.6 
L 460.8 345.6 
L 460.8 0 
L 0 0 
z
" style="fill:#ffffff;"/>
  </g>
  <g id="axes_1">
   <g id="patch_2">
    <path d="M 56.12 294.88 
L 333.168 294.88 
L 333.168 24.84 
L 56.12 24.84 
z
" style="fill:#ffffff;"/>
   </g>
   <g id="line2d_1">
    <path d="M 37.236359 294.88 
L 37.236359 289.637523 
L 49.15061 289.637523 
L 49.15061 284.395046 
L 64.900393 284.395046 
L 64.900393 279.152568 
L 81.324327 279.152568 
L 81.324327 273.910091 
L 93.238578 273.910091 
L 93.238578 268.667614 
L 100.643147 268.667614 
L 100.643147 263.425137 
L 106.426644 263.425137 
L 106.426644 258.18266 
L 109.76392 258.18266 
L 109.76392 252.940182 
L 113.800491 252.940182 
L 113.800491 247.697705 
L 119.237897 247.697705 
L 119.237897 242.455228 
L 122.779599 242.455228 
L 122.779599 237.212751 
L 126.873966 237.212751 
L 126.873966 231.970274 
L 144.056965 231.970274 
L 144.056965 226.727797 
L 150.679098 226.727797 
L 150.679098 221.485319 
L 152.830481 221.485319 
L 152.830481 216.242842 
L 160.334837 216.242842 
L 160.334837 211.000365 
L 161.065823 211.000365 
L 161.065823 205.757888 
L 164.537137 205.757888 
L 164.537137 200.515411 
L 165.69795 200.515411 
L 165.69795 195.272933 
L 173.718004 195.272933 
L 173.718004 190.030456 
L 175.329524 190.030456 
L 175.329524 184.787979 
L 176.28876 184.787979 
L 176.28876 179.545502 
L 176.664141 179.545502 
L 176.664141 174.303025 
L 176.899746 174.303025 
L 176.899746 169.060547 
L 177.16225 169.060547 
L 177.16225 163.81807 
L 177.617081 163.81807 
L 177.617081 158.575593 
L 178.394505 158.575593 
L 178.394505 153.333116 
L 178.510692 153.333116 
L 178.510692 148.090639 
L 178.763571 148.090639 
L 178.763571 142.848162 
L 179.111467 142.848162 
L 179.111467 137.605684 
L 179.553018 137.605684 
L 179.553018 132.363207 
L 179.957982 132.363207 
L 179.957982 127.12073 
L 180.051399 127.12073 
L 180.051399 121.878253 
L 180.4325 121.878253 
L 180.4325 116.635776 
L 181.426246 116.635776 
L 181.426246 111.393298 
L 182.71011 111.393298 
L 182.71011 106.150821 
L 183.97226 106.150821 
L 183.97226 100.908344 
L 184.123288 100.908344 
L 184.123288 95.665867 
L 184.282936 95.665867 
L 184.282936 90.42339 
L 184.381968 90.42339 
L 184.381968 85.180912 
L 184.411567 85.180912 
L 184.411567 79.938435 
L 184.62059 79.938435 
L 184.62059 74.695958 
L 184.919866 74.695958 
L 184.919866 69.453481 
L 185.056499 69.453481 
L 185.056499 64.211004 
L 185.210884 64.211004 
L 185.210884 58.968526 
L 185.357676 58.968526 
L 185.357676 53.726049 
L 185.475449 53.726049 
L 185.475449 48.483572 
L 185.558643 48.483572 
L 185.558643 43.241095 
L 185.69336 43.241095 
L 185.69336 37.998618 
L 185.790677 37.998618 
L 185.790677 32.756141 
L 185.87538 32.756141 
L 185.87538 27.513663 
L 333.168 27.513663 
" style="fill:none;stroke:#f5deb3;stroke-linecap:square;stroke-width:4;"/>
   </g>
   <g id="line2d_2">
    <defs>
     <path d="M -0 7.778175 
L 7.778175 0 
L 0 -7.778175 
L -7.778175 -0 
z
" id="m6d80272a9a" style="stroke:#f5deb3;stroke-linejoin:miter;stroke-width:1.5;"/>
    </defs>
    <g>
     <use style="fill:#f5deb3;stroke:#f5deb3;stroke-linejoin:miter;stroke-width:1.5;" x="100.643147" xlink:href="#m6d80272a9a" y="263.425137"/>
     <use style="fill:#f5deb3;stroke:#f5deb3;stroke-linejoin:miter;stroke-width:1.5;" x="165.69795" xlink:href="#m6d80272a9a" y="195.272933"/>
     <use style="fill:#f5deb3;stroke:#f5deb3;stroke-linejoin:miter;stroke-width:1.5;" x="184.919866" xlink:href="#m6d80272a9a" y="74.695958"/>
     <use style="fill:#f5deb3;stroke:#f5deb3;stroke-linejoin:miter;stroke-width:1.5;" x="185.87538" xlink:href="#m6d80272a9a" y="32.756141"/>
     <use style="fill:#f5deb3;stroke:#f5deb3;stroke-linejoin:miter;stroke-width:1.5;" x="185.87538" xlink:href="#m6d80272a9a" y="27.513663"/>
     <use style="fill:#f5deb3;stroke:#f5deb3;stroke-linejoin:miter;stroke-width:1.5;" x="333.168" xlink:href="#m6d80272a9a" y="27.513663"/>
    </g>
   </g>
   <g id="line2d_3">
    <path style="fill:none;stroke:#f5deb3;stroke-linecap:square;stroke-width:4;"/>
    <g/>
   </g>
   <g id="line2d_4">
    <path d="M 333.168 27.513663 
L 363.64328 32.86099 
" style="fill:none;stroke:#f5deb3;stroke-linecap:square;stroke-width:4;"/>
    <g>
     <use style="fill:#f5deb3;stroke:#f5deb3;stroke-linejoin:miter;stroke-width:1.5;" x="333.168" xlink:href="#m6d80272a9a" y="27.513663"/>
     <use style="fill:#f5deb3;stroke:#f5deb3;stroke-linejoin:miter;stroke-width:1.5;" x="363.64328" xlink:href="#m6d80272a9a" y="32.86099"/>
    </g>
   </g>
   <g id="matplotlib.axis_1">
    <g id="xtick_1">
     <g id="line2d_5">
      <path clip-path="url(#p39dc3574d7)" d="M 56.12 294.88 
L 56.12 24.84 
" style="fill:none;stroke:#b0b0b0;stroke-linecap:square;stroke-width:0.8;"/>
     </g>
     <g id="line2d_6">
      <defs>
       <path d="M 0 0 
L 0 3.5 
" id="mf4d89c651d" style="stroke:#000000;stroke-width:0.8;"/>
      </defs>
      <g>
       <use style="stroke:#000000;stroke-width:0.8;" x="56.12" xlink:href="#mf4d89c651d" y="294.88"/>
      </g>
     </g>
     <g id="text_1">
      <!-- 0 -->
      <defs>
       <path d="M 31.78125 66.40625 
Q 24.171875 66.40625 20.328125 58.90625 
Q 16.5 51.421875 16.5 36.375 
Q 16.5 21.390625 20.328125 13.890625 
Q 24.171875 6.390625 31.78125 6.390625 
Q 39.453125 6.390625 43.28125 13.890625 
Q 47.125 21.390625 47.125 36.375 
Q 47.125 51.421875 43.28125 58.90625 
Q 39.453125 66.40625 31.78125 66.40625 
z
M 31.78125 74.21875 
Q 44.046875 74.21875 50.515625 64.515625 
Q 56.984375 54.828125 56.984375 36.375 
Q 56.984375 17.96875 50.515625 8.265625 
Q 44.046875 -1.421875 31.78125 -1.421875 
Q 19.53125 -1.421875 13.0625 8.265625 
Q 6.59375 17.96875 6.59375 36.375 
Q 6.59375 54.828125 13.0625 64.515625 
Q 19.53125 74.21875 31.78125 74.21875 
z
" id="DejaVuSans-30"/>
      </defs>
      <g transform="translate(49.7575 317.076875)scale(0.2 -0.2)">
       <use xlink:href="#DejaVuSans-30"/>
      </g>
     </g>
    </g>
    <g id="xtick_2">
     <g id="line2d_7">
      <path clip-path="url(#p39dc3574d7)" d="M 135.276571 294.88 
L 135.276571 24.84 
" style="fill:none;stroke:#b0b0b0;stroke-linecap:square;stroke-width:0.8;"/>
     </g>
     <g id="line2d_8">
      <g>
       <use style="stroke:#000000;stroke-width:0.8;" x="135.276571" xlink:href="#mf4d89c651d" y="294.88"/>
      </g>
     </g>
     <g id="text_2">
      <!-- 2 -->
      <defs>
       <path d="M 19.1875 8.296875 
L 53.609375 8.296875 
L 53.609375 0 
L 7.328125 0 
L 7.328125 8.296875 
Q 12.9375 14.109375 22.625 23.890625 
Q 32.328125 33.6875 34.8125 36.53125 
Q 39.546875 41.84375 41.421875 45.53125 
Q 43.3125 49.21875 43.3125 52.78125 
Q 43.3125 58.59375 39.234375 62.25 
Q 35.15625 65.921875 28.609375 65.921875 
Q 23.96875 65.921875 18.8125 64.3125 
Q 13.671875 62.703125 7.8125 59.421875 
L 7.8125 69.390625 
Q 13.765625 71.78125 18.9375 73 
Q 24.125 74.21875 28.421875 74.21875 
Q 39.75 74.21875 46.484375 68.546875 
Q 53.21875 62.890625 53.21875 53.421875 
Q 53.21875 48.921875 51.53125 44.890625 
Q 49.859375 40.875 45.40625 35.40625 
Q 44.1875 33.984375 37.640625 27.21875 
Q 31.109375 20.453125 19.1875 8.296875 
z
" id="DejaVuSans-32"/>
      </defs>
      <g transform="translate(128.914071 317.076875)scale(0.2 -0.2)">
       <use xlink:href="#DejaVuSans-32"/>
      </g>
     </g>
    </g>
    <g id="xtick_3">
     <g id="line2d_9">
      <path clip-path="url(#p39dc3574d7)" d="M 214.433143 294.88 
L 214.433143 24.84 
" style="fill:none;stroke:#b0b0b0;stroke-linecap:square;stroke-width:0.8;"/>
     </g>
     <g id="line2d_10">
      <g>
       <use style="stroke:#000000;stroke-width:0.8;" x="214.433143" xlink:href="#mf4d89c651d" y="294.88"/>
      </g>
     </g>
     <g id="text_3">
      <!-- 4 -->
      <defs>
       <path d="M 37.796875 64.3125 
L 12.890625 25.390625 
L 37.796875 25.390625 
z
M 35.203125 72.90625 
L 47.609375 72.90625 
L 47.609375 25.390625 
L 58.015625 25.390625 
L 58.015625 17.1875 
L 47.609375 17.1875 
L 47.609375 0 
L 37.796875 0 
L 37.796875 17.1875 
L 4.890625 17.1875 
L 4.890625 26.703125 
z
" id="DejaVuSans-34"/>
      </defs>
      <g transform="translate(208.070643 317.076875)scale(0.2 -0.2)">
       <use xlink:href="#DejaVuSans-34"/>
      </g>
     </g>
    </g>
    <g id="xtick_4">
     <g id="line2d_11">
      <path clip-path="url(#p39dc3574d7)" d="M 293.589714 294.88 
L 293.589714 24.84 
" style="fill:none;stroke:#b0b0b0;stroke-linecap:square;stroke-width:0.8;"/>
     </g>
     <g id="line2d_12">
      <g>
       <use style="stroke:#000000;stroke-width:0.8;" x="293.589714" xlink:href="#mf4d89c651d" y="294.88"/>
      </g>
     </g>
     <g id="text_4">
      <!-- 6 -->
      <defs>
       <path d="M 33.015625 40.375 
Q 26.375 40.375 22.484375 35.828125 
Q 18.609375 31.296875 18.609375 23.390625 
Q 18.609375 15.53125 22.484375 10.953125 
Q 26.375 6.390625 33.015625 6.390625 
Q 39.65625 6.390625 43.53125 10.953125 
Q 47.40625 15.53125 47.40625 23.390625 
Q 47.40625 31.296875 43.53125 35.828125 
Q 39.65625 40.375 33.015625 40.375 
z
M 52.59375 71.296875 
L 52.59375 62.3125 
Q 48.875 64.0625 45.09375 64.984375 
Q 41.3125 65.921875 37.59375 65.921875 
Q 27.828125 65.921875 22.671875 59.328125 
Q 17.53125 52.734375 16.796875 39.40625 
Q 19.671875 43.65625 24.015625 45.921875 
Q 28.375 48.1875 33.59375 48.1875 
Q 44.578125 48.1875 50.953125 41.515625 
Q 57.328125 34.859375 57.328125 23.390625 
Q 57.328125 12.15625 50.6875 5.359375 
Q 44.046875 -1.421875 33.015625 -1.421875 
Q 20.359375 -1.421875 13.671875 8.265625 
Q 6.984375 17.96875 6.984375 36.375 
Q 6.984375 53.65625 15.1875 63.9375 
Q 23.390625 74.21875 37.203125 74.21875 
Q 40.921875 74.21875 44.703125 73.484375 
Q 48.484375 72.75 52.59375 71.296875 
z
" id="DejaVuSans-36"/>
      </defs>
      <g transform="translate(287.227214 317.076875)scale(0.2 -0.2)">
       <use xlink:href="#DejaVuSans-36"/>
      </g>
     </g>
    </g>
    <g id="xtick_5">
     <g id="line2d_13">
      <path clip-path="url(#p39dc3574d7)" d="M 56.12 294.88 
L 56.12 24.84 
" style="fill:none;stroke:#b0b0b0;stroke-linecap:square;stroke-width:0.8;"/>
     </g>
     <g id="line2d_14">
      <defs>
       <path d="M 0 0 
L 0 2 
" id="m096795d6b7" style="stroke:#000000;stroke-width:0.6;"/>
      </defs>
      <g>
       <use style="stroke:#000000;stroke-width:0.6;" x="56.12" xlink:href="#m096795d6b7" y="294.88"/>
      </g>
     </g>
    </g>
    <g id="xtick_6">
     <g id="line2d_15">
      <path clip-path="url(#p39dc3574d7)" d="M 95.698286 294.88 
L 95.698286 24.84 
" style="fill:none;stroke:#b0b0b0;stroke-linecap:square;stroke-width:0.8;"/>
     </g>
     <g id="line2d_16">
      <g>
       <use style="stroke:#000000;stroke-width:0.6;" x="95.698286" xlink:href="#m096795d6b7" y="294.88"/>
      </g>
     </g>
    </g>
    <g id="xtick_7">
     <g id="line2d_17">
      <path clip-path="url(#p39dc3574d7)" d="M 135.276571 294.88 
L 135.276571 24.84 
" style="fill:none;stroke:#b0b0b0;stroke-linecap:square;stroke-width:0.8;"/>
     </g>
     <g id="line2d_18">
      <g>
       <use style="stroke:#000000;stroke-width:0.6;" x="135.276571" xlink:href="#m096795d6b7" y="294.88"/>
      </g>
     </g>
    </g>
    <g id="xtick_8">
     <g id="line2d_19">
      <path clip-path="url(#p39dc3574d7)" d="M 174.854857 294.88 
L 174.854857 24.84 
" style="fill:none;stroke:#b0b0b0;stroke-linecap:square;stroke-width:0.8;"/>
     </g>
     <g id="line2d_20">
      <g>
       <use style="stroke:#000000;stroke-width:0.6;" x="174.854857" xlink:href="#m096795d6b7" y="294.88"/>
      </g>
     </g>
    </g>
    <g id="xtick_9">
     <g id="line2d_21">
      <path clip-path="url(#p39dc3574d7)" d="M 214.433143 294.88 
L 214.433143 24.84 
" style="fill:none;stroke:#b0b0b0;stroke-linecap:square;stroke-width:0.8;"/>
     </g>
     <g id="line2d_22">
      <g>
       <use style="stroke:#000000;stroke-width:0.6;" x="214.433143" xlink:href="#m096795d6b7" y="294.88"/>
      </g>
     </g>
    </g>
    <g id="xtick_10">
     <g id="line2d_23">
      <path clip-path="url(#p39dc3574d7)" d="M 254.011429 294.88 
L 254.011429 24.84 
" style="fill:none;stroke:#b0b0b0;stroke-linecap:square;stroke-width:0.8;"/>
     </g>
     <g id="line2d_24">
      <g>
       <use style="stroke:#000000;stroke-width:0.6;" x="254.011429" xlink:href="#m096795d6b7" y="294.88"/>
      </g>
     </g>
    </g>
    <g id="xtick_11">
     <g id="line2d_25">
      <path clip-path="url(#p39dc3574d7)" d="M 293.589714 294.88 
L 293.589714 24.84 
" style="fill:none;stroke:#b0b0b0;stroke-linecap:square;stroke-width:0.8;"/>
     </g>
     <g id="line2d_26">
      <g>
       <use style="stroke:#000000;stroke-width:0.6;" x="293.589714" xlink:href="#m096795d6b7" y="294.88"/>
      </g>
     </g>
    </g>
    <g id="xtick_12">
     <g id="line2d_27">
      <path clip-path="url(#p39dc3574d7)" d="M 333.168 294.88 
L 333.168 24.84 
" style="fill:none;stroke:#b0b0b0;stroke-linecap:square;stroke-width:0.8;"/>
     </g>
     <g id="line2d_28">
      <g>
       <use style="stroke:#000000;stroke-width:0.6;" x="333.168" xlink:href="#m096795d6b7" y="294.88"/>
      </g>
     </g>
    </g>
    <g id="text_5">
     <!-- log10(# f-evals / dimension) -->
     <defs>
      <path d="M 9.421875 75.984375 
L 18.40625 75.984375 
L 18.40625 0 
L 9.421875 0 
z
" id="DejaVuSans-6c"/>
      <path d="M 30.609375 48.390625 
Q 23.390625 48.390625 19.1875 42.75 
Q 14.984375 37.109375 14.984375 27.296875 
Q 14.984375 17.484375 19.15625 11.84375 
Q 23.34375 6.203125 30.609375 6.203125 
Q 37.796875 6.203125 41.984375 11.859375 
Q 46.1875 17.53125 46.1875 27.296875 
Q 46.1875 37.015625 41.984375 42.703125 
Q 37.796875 48.390625 30.609375 48.390625 
z
M 30.609375 56 
Q 42.328125 56 49.015625 48.375 
Q 55.71875 40.765625 55.71875 27.296875 
Q 55.71875 13.875 49.015625 6.21875 
Q 42.328125 -1.421875 30.609375 -1.421875 
Q 18.84375 -1.421875 12.171875 6.21875 
Q 5.515625 13.875 5.515625 27.296875 
Q 5.515625 40.765625 12.171875 48.375 
Q 18.84375 56 30.609375 56 
z
" id="DejaVuSans-6f"/>
      <path d="M 45.40625 27.984375 
Q 45.40625 37.75 41.375 43.109375 
Q 37.359375 48.484375 30.078125 48.484375 
Q 22.859375 48.484375 18.828125 43.109375 
Q 14.796875 37.75 14.796875 27.984375 
Q 14.796875 18.265625 18.828125 12.890625 
Q 22.859375 7.515625 30.078125 7.515625 
Q 37.359375 7.515625 41.375 12.890625 
Q 45.40625 18.265625 45.40625 27.984375 
z
M 54.390625 6.78125 
Q 54.390625 -7.171875 48.1875 -13.984375 
Q 42 -20.796875 29.203125 -20.796875 
Q 24.46875 -20.796875 20.265625 -20.09375 
Q 16.0625 -19.390625 12.109375 -17.921875 
L 12.109375 -9.1875 
Q 16.0625 -11.328125 19.921875 -12.34375 
Q 23.78125 -13.375 27.78125 -13.375 
Q 36.625 -13.375 41.015625 -8.765625 
Q 45.40625 -4.15625 45.40625 5.171875 
L 45.40625 9.625 
Q 42.625 4.78125 38.28125 2.390625 
Q 33.9375 0 27.875 0 
Q 17.828125 0 11.671875 7.65625 
Q 5.515625 15.328125 5.515625 27.984375 
Q 5.515625 40.671875 11.671875 48.328125 
Q 17.828125 56 27.875 56 
Q 33.9375 56 38.28125 53.609375 
Q 42.625 51.21875 45.40625 46.390625 
L 45.40625 54.6875 
L 54.390625 54.6875 
z
" id="DejaVuSans-67"/>
      <path d="M 12.40625 8.296875 
L 28.515625 8.296875 
L 28.515625 63.921875 
L 10.984375 60.40625 
L 10.984375 69.390625 
L 28.421875 72.90625 
L 38.28125 72.90625 
L 38.28125 8.296875 
L 54.390625 8.296875 
L 54.390625 0 
L 12.40625 0 
z
" id="DejaVuSans-31"/>
      <path d="M 31 75.875 
Q 24.46875 64.65625 21.28125 53.65625 
Q 18.109375 42.671875 18.109375 31.390625 
Q 18.109375 20.125 21.3125 9.0625 
Q 24.515625 -2 31 -13.1875 
L 23.1875 -13.1875 
Q 15.875 -1.703125 12.234375 9.375 
Q 8.59375 20.453125 8.59375 31.390625 
Q 8.59375 42.28125 12.203125 53.3125 
Q 15.828125 64.359375 23.1875 75.875 
z
" id="DejaVuSans-28"/>
      <path d="M 51.125 44 
L 36.921875 44 
L 32.8125 27.6875 
L 47.125 27.6875 
z
M 43.796875 71.78125 
L 38.71875 51.515625 
L 52.984375 51.515625 
L 58.109375 71.78125 
L 65.921875 71.78125 
L 60.890625 51.515625 
L 76.125 51.515625 
L 76.125 44 
L 58.984375 44 
L 54.984375 27.6875 
L 70.515625 27.6875 
L 70.515625 20.21875 
L 53.078125 20.21875 
L 48 0 
L 40.1875 0 
L 45.21875 20.21875 
L 30.90625 20.21875 
L 25.875 0 
L 18.015625 0 
L 23.09375 20.21875 
L 7.71875 20.21875 
L 7.71875 27.6875 
L 24.90625 27.6875 
L 29 44 
L 13.28125 44 
L 13.28125 51.515625 
L 30.90625 51.515625 
L 35.890625 71.78125 
z
" id="DejaVuSans-23"/>
      <path id="DejaVuSans-20"/>
      <path d="M 37.109375 75.984375 
L 37.109375 68.5 
L 28.515625 68.5 
Q 23.6875 68.5 21.796875 66.546875 
Q 19.921875 64.59375 19.921875 59.515625 
L 19.921875 54.6875 
L 34.71875 54.6875 
L 34.71875 47.703125 
L 19.921875 47.703125 
L 19.921875 0 
L 10.890625 0 
L 10.890625 47.703125 
L 2.296875 47.703125 
L 2.296875 54.6875 
L 10.890625 54.6875 
L 10.890625 58.5 
Q 10.890625 67.625 15.140625 71.796875 
Q 19.390625 75.984375 28.609375 75.984375 
z
" id="DejaVuSans-66"/>
      <path d="M 4.890625 31.390625 
L 31.203125 31.390625 
L 31.203125 23.390625 
L 4.890625 23.390625 
z
" id="DejaVuSans-2d"/>
      <path d="M 56.203125 29.59375 
L 56.203125 25.203125 
L 14.890625 25.203125 
Q 15.484375 15.921875 20.484375 11.0625 
Q 25.484375 6.203125 34.421875 6.203125 
Q 39.59375 6.203125 44.453125 7.46875 
Q 49.3125 8.734375 54.109375 11.28125 
L 54.109375 2.78125 
Q 49.265625 0.734375 44.1875 -0.34375 
Q 39.109375 -1.421875 33.890625 -1.421875 
Q 20.796875 -1.421875 13.15625 6.1875 
Q 5.515625 13.8125 5.515625 26.8125 
Q 5.515625 40.234375 12.765625 48.109375 
Q 20.015625 56 32.328125 56 
Q 43.359375 56 49.78125 48.890625 
Q 56.203125 41.796875 56.203125 29.59375 
z
M 47.21875 32.234375 
Q 47.125 39.59375 43.09375 43.984375 
Q 39.0625 48.390625 32.421875 48.390625 
Q 24.90625 48.390625 20.390625 44.140625 
Q 15.875 39.890625 15.1875 32.171875 
z
" id="DejaVuSans-65"/>
      <path d="M 2.984375 54.6875 
L 12.5 54.6875 
L 29.59375 8.796875 
L 46.6875 54.6875 
L 56.203125 54.6875 
L 35.6875 0 
L 23.484375 0 
z
" id="DejaVuSans-76"/>
      <path d="M 34.28125 27.484375 
Q 23.390625 27.484375 19.1875 25 
Q 14.984375 22.515625 14.984375 16.5 
Q 14.984375 11.71875 18.140625 8.90625 
Q 21.296875 6.109375 26.703125 6.109375 
Q 34.1875 6.109375 38.703125 11.40625 
Q 43.21875 16.703125 43.21875 25.484375 
L 43.21875 27.484375 
z
M 52.203125 31.203125 
L 52.203125 0 
L 43.21875 0 
L 43.21875 8.296875 
Q 40.140625 3.328125 35.546875 0.953125 
Q 30.953125 -1.421875 24.3125 -1.421875 
Q 15.921875 -1.421875 10.953125 3.296875 
Q 6 8.015625 6 15.921875 
Q 6 25.140625 12.171875 29.828125 
Q 18.359375 34.515625 30.609375 34.515625 
L 43.21875 34.515625 
L 43.21875 35.40625 
Q 43.21875 41.609375 39.140625 45 
Q 35.0625 48.390625 27.6875 48.390625 
Q 23 48.390625 18.546875 47.265625 
Q 14.109375 46.140625 10.015625 43.890625 
L 10.015625 52.203125 
Q 14.9375 54.109375 19.578125 55.046875 
Q 24.21875 56 28.609375 56 
Q 40.484375 56 46.34375 49.84375 
Q 52.203125 43.703125 52.203125 31.203125 
z
" id="DejaVuSans-61"/>
      <path d="M 44.28125 53.078125 
L 44.28125 44.578125 
Q 40.484375 46.53125 36.375 47.5 
Q 32.28125 48.484375 27.875 48.484375 
Q 21.1875 48.484375 17.84375 46.4375 
Q 14.5 44.390625 14.5 40.28125 
Q 14.5 37.15625 16.890625 35.375 
Q 19.28125 33.59375 26.515625 31.984375 
L 29.59375 31.296875 
Q 39.15625 29.25 43.1875 25.515625 
Q 47.21875 21.78125 47.21875 15.09375 
Q 47.21875 7.46875 41.1875 3.015625 
Q 35.15625 -1.421875 24.609375 -1.421875 
Q 20.21875 -1.421875 15.453125 -0.5625 
Q 10.6875 0.296875 5.421875 2 
L 5.421875 11.28125 
Q 10.40625 8.6875 15.234375 7.390625 
Q 20.0625 6.109375 24.8125 6.109375 
Q 31.15625 6.109375 34.5625 8.28125 
Q 37.984375 10.453125 37.984375 14.40625 
Q 37.984375 18.0625 35.515625 20.015625 
Q 33.0625 21.96875 24.703125 23.78125 
L 21.578125 24.515625 
Q 13.234375 26.265625 9.515625 29.90625 
Q 5.8125 33.546875 5.8125 39.890625 
Q 5.8125 47.609375 11.28125 51.796875 
Q 16.75 56 26.8125 56 
Q 31.78125 56 36.171875 55.265625 
Q 40.578125 54.546875 44.28125 53.078125 
z
" id="DejaVuSans-73"/>
      <path d="M 25.390625 72.90625 
L 33.6875 72.90625 
L 8.296875 -9.28125 
L 0 -9.28125 
z
" id="DejaVuSans-2f"/>
      <path d="M 45.40625 46.390625 
L 45.40625 75.984375 
L 54.390625 75.984375 
L 54.390625 0 
L 45.40625 0 
L 45.40625 8.203125 
Q 42.578125 3.328125 38.25 0.953125 
Q 33.9375 -1.421875 27.875 -1.421875 
Q 17.96875 -1.421875 11.734375 6.484375 
Q 5.515625 14.40625 5.515625 27.296875 
Q 5.515625 40.1875 11.734375 48.09375 
Q 17.96875 56 27.875 56 
Q 33.9375 56 38.25 53.625 
Q 42.578125 51.265625 45.40625 46.390625 
z
M 14.796875 27.296875 
Q 14.796875 17.390625 18.875 11.75 
Q 22.953125 6.109375 30.078125 6.109375 
Q 37.203125 6.109375 41.296875 11.75 
Q 45.40625 17.390625 45.40625 27.296875 
Q 45.40625 37.203125 41.296875 42.84375 
Q 37.203125 48.484375 30.078125 48.484375 
Q 22.953125 48.484375 18.875 42.84375 
Q 14.796875 37.203125 14.796875 27.296875 
z
" id="DejaVuSans-64"/>
      <path d="M 9.421875 54.6875 
L 18.40625 54.6875 
L 18.40625 0 
L 9.421875 0 
z
M 9.421875 75.984375 
L 18.40625 75.984375 
L 18.40625 64.59375 
L 9.421875 64.59375 
z
" id="DejaVuSans-69"/>
      <path d="M 52 44.1875 
Q 55.375 50.25 60.0625 53.125 
Q 64.75 56 71.09375 56 
Q 79.640625 56 84.28125 50.015625 
Q 88.921875 44.046875 88.921875 33.015625 
L 88.921875 0 
L 79.890625 0 
L 79.890625 32.71875 
Q 79.890625 40.578125 77.09375 44.375 
Q 74.3125 48.1875 68.609375 48.1875 
Q 61.625 48.1875 57.5625 43.546875 
Q 53.515625 38.921875 53.515625 30.90625 
L 53.515625 0 
L 44.484375 0 
L 44.484375 32.71875 
Q 44.484375 40.625 41.703125 44.40625 
Q 38.921875 48.1875 33.109375 48.1875 
Q 26.21875 48.1875 22.15625 43.53125 
Q 18.109375 38.875 18.109375 30.90625 
L 18.109375 0 
L 9.078125 0 
L 9.078125 54.6875 
L 18.109375 54.6875 
L 18.109375 46.1875 
Q 21.1875 51.21875 25.484375 53.609375 
Q 29.78125 56 35.6875 56 
Q 41.65625 56 45.828125 52.96875 
Q 50 49.953125 52 44.1875 
z
" id="DejaVuSans-6d"/>
      <path d="M 54.890625 33.015625 
L 54.890625 0 
L 45.90625 0 
L 45.90625 32.71875 
Q 45.90625 40.484375 42.875 44.328125 
Q 39.84375 48.1875 33.796875 48.1875 
Q 26.515625 48.1875 22.3125 43.546875 
Q 18.109375 38.921875 18.109375 30.90625 
L 18.109375 0 
L 9.078125 0 
L 9.078125 54.6875 
L 18.109375 54.6875 
L 18.109375 46.1875 
Q 21.34375 51.125 25.703125 53.5625 
Q 30.078125 56 35.796875 56 
Q 45.21875 56 50.046875 50.171875 
Q 54.890625 44.34375 54.890625 33.015625 
z
" id="DejaVuSans-6e"/>
      <path d="M 8.015625 75.875 
L 15.828125 75.875 
Q 23.140625 64.359375 26.78125 53.3125 
Q 30.421875 42.28125 30.421875 31.390625 
Q 30.421875 20.453125 26.78125 9.375 
Q 23.140625 -1.703125 15.828125 -13.1875 
L 8.015625 -13.1875 
Q 14.5 -2 17.703125 9.0625 
Q 20.90625 20.125 20.90625 31.390625 
Q 20.90625 42.671875 17.703125 53.65625 
Q 14.5 64.65625 8.015625 75.875 
z
" id="DejaVuSans-29"/>
     </defs>
     <g transform="translate(73.803219 338.153594)scale(0.17 -0.17)">
      <use xlink:href="#DejaVuSans-6c"/>
      <use x="27.783203" xlink:href="#DejaVuSans-6f"/>
      <use x="88.964844" xlink:href="#DejaVuSans-67"/>
      <use x="152.441406" xlink:href="#DejaVuSans-31"/>
      <use x="216.064453" xlink:href="#DejaVuSans-30"/>
      <use x="279.6875" xlink:href="#DejaVuSans-28"/>
      <use x="318.701172" xlink:href="#DejaVuSans-23"/>
      <use x="402.490234" xlink:href="#DejaVuSans-20"/>
      <use x="434.277344" xlink:href="#DejaVuSans-66"/>
      <use x="469.404297" xlink:href="#DejaVuSans-2d"/>
      <use x="505.488281" xlink:href="#DejaVuSans-65"/>
      <use x="567.011719" xlink:href="#DejaVuSans-76"/>
      <use x="626.191406" xlink:href="#DejaVuSans-61"/>
      <use x="687.470703" xlink:href="#DejaVuSans-6c"/>
      <use x="715.253906" xlink:href="#DejaVuSans-73"/>
      <use x="767.353516" xlink:href="#DejaVuSans-20"/>
      <use x="799.140625" xlink:href="#DejaVuSans-2f"/>
      <use x="832.832031" xlink:href="#DejaVuSans-20"/>
      <use x="864.619141" xlink:href="#DejaVuSans-64"/>
      <use x="928.095703" xlink:href="#DejaVuSans-69"/>
      <use x="955.878906" xlink:href="#DejaVuSans-6d"/>
      <use x="1053.291016" xlink:href="#DejaVuSans-65"/>
      <use x="1114.814453" xlink:href="#DejaVuSans-6e"/>
      <use x="1178.193359" xlink:href="#DejaVuSans-73"/>
      <use x="1230.292969" xlink:href="#DejaVuSans-69"/>
      <use x="1258.076172" xlink:href="#DejaVuSans-6f"/>
      <use x="1319.257812" xlink:href="#DejaVuSans-6e"/>
      <use x="1382.636719" xlink:href="#DejaVuSans-29"/>
     </g>
    </g>
   </g>
   <g id="matplotlib.axis_2">
    <g id="ytick_1">
     <g id="line2d_29">
      <path clip-path="url(#p39dc3574d7)" d="M 56.12 294.88 
L 333.168 294.88 
" style="fill:none;stroke:#b0b0b0;stroke-linecap:square;stroke-width:0.8;"/>
     </g>
     <g id="line2d_30">
      <defs>
       <path d="M 0 0 
L -3.5 0 
" id="meec1916441" style="stroke:#000000;stroke-width:0.8;"/>
      </defs>
      <g>
       <use style="stroke:#000000;stroke-width:0.8;" x="56.12" xlink:href="#meec1916441" y="294.88"/>
      </g>
     </g>
     <g id="text_6">
      <!-- 0.0 -->
      <defs>
       <path d="M 10.6875 12.40625 
L 21 12.40625 
L 21 0 
L 10.6875 0 
z
" id="DejaVuSans-2e"/>
      </defs>
      <g transform="translate(23.675 300.95875)scale(0.16 -0.16)">
       <use xlink:href="#DejaVuSans-30"/>
       <use x="63.623047" xlink:href="#DejaVuSans-2e"/>
       <use x="95.410156" xlink:href="#DejaVuSans-30"/>
      </g>
     </g>
    </g>
    <g id="ytick_2">
     <g id="line2d_31">
      <path clip-path="url(#p39dc3574d7)" d="M 56.12 241.406733 
L 333.168 241.406733 
" style="fill:none;stroke:#b0b0b0;stroke-linecap:square;stroke-width:0.8;"/>
     </g>
     <g id="line2d_32">
      <g>
       <use style="stroke:#000000;stroke-width:0.8;" x="56.12" xlink:href="#meec1916441" y="241.406733"/>
      </g>
     </g>
     <g id="text_7">
      <!-- 0.2 -->
      <g transform="translate(23.675 247.485483)scale(0.16 -0.16)">
       <use xlink:href="#DejaVuSans-30"/>
       <use x="63.623047" xlink:href="#DejaVuSans-2e"/>
       <use x="95.410156" xlink:href="#DejaVuSans-32"/>
      </g>
     </g>
    </g>
    <g id="ytick_3">
     <g id="line2d_33">
      <path clip-path="url(#p39dc3574d7)" d="M 56.12 187.933465 
L 333.168 187.933465 
" style="fill:none;stroke:#b0b0b0;stroke-linecap:square;stroke-width:0.8;"/>
     </g>
     <g id="line2d_34">
      <g>
       <use style="stroke:#000000;stroke-width:0.8;" x="56.12" xlink:href="#meec1916441" y="187.933465"/>
      </g>
     </g>
     <g id="text_8">
      <!-- 0.4 -->
      <g transform="translate(23.675 194.012215)scale(0.16 -0.16)">
       <use xlink:href="#DejaVuSans-30"/>
       <use x="63.623047" xlink:href="#DejaVuSans-2e"/>
       <use x="95.410156" xlink:href="#DejaVuSans-34"/>
      </g>
     </g>
    </g>
    <g id="ytick_4">
     <g id="line2d_35">
      <path clip-path="url(#p39dc3574d7)" d="M 56.12 134.460198 
L 333.168 134.460198 
" style="fill:none;stroke:#b0b0b0;stroke-linecap:square;stroke-width:0.8;"/>
     </g>
     <g id="line2d_36">
      <g>
       <use style="stroke:#000000;stroke-width:0.8;" x="56.12" xlink:href="#meec1916441" y="134.460198"/>
      </g>
     </g>
     <g id="text_9">
      <!-- 0.6 -->
      <g transform="translate(23.675 140.538948)scale(0.16 -0.16)">
       <use xlink:href="#DejaVuSans-30"/>
       <use x="63.623047" xlink:href="#DejaVuSans-2e"/>
       <use x="95.410156" xlink:href="#DejaVuSans-36"/>
      </g>
     </g>
    </g>
    <g id="ytick_5">
     <g id="line2d_37">
      <path clip-path="url(#p39dc3574d7)" d="M 56.12 80.986931 
L 333.168 80.986931 
" style="fill:none;stroke:#b0b0b0;stroke-linecap:square;stroke-width:0.8;"/>
     </g>
     <g id="line2d_38">
      <g>
       <use style="stroke:#000000;stroke-width:0.8;" x="56.12" xlink:href="#meec1916441" y="80.986931"/>
      </g>
     </g>
     <g id="text_10">
      <!-- 0.8 -->
      <defs>
       <path d="M 31.78125 34.625 
Q 24.75 34.625 20.71875 30.859375 
Q 16.703125 27.09375 16.703125 20.515625 
Q 16.703125 13.921875 20.71875 10.15625 
Q 24.75 6.390625 31.78125 6.390625 
Q 38.8125 6.390625 42.859375 10.171875 
Q 46.921875 13.96875 46.921875 20.515625 
Q 46.921875 27.09375 42.890625 30.859375 
Q 38.875 34.625 31.78125 34.625 
z
M 21.921875 38.8125 
Q 15.578125 40.375 12.03125 44.71875 
Q 8.5 49.078125 8.5 55.328125 
Q 8.5 64.0625 14.71875 69.140625 
Q 20.953125 74.21875 31.78125 74.21875 
Q 42.671875 74.21875 48.875 69.140625 
Q 55.078125 64.0625 55.078125 55.328125 
Q 55.078125 49.078125 51.53125 44.71875 
Q 48 40.375 41.703125 38.8125 
Q 48.828125 37.15625 52.796875 32.3125 
Q 56.78125 27.484375 56.78125 20.515625 
Q 56.78125 9.90625 50.3125 4.234375 
Q 43.84375 -1.421875 31.78125 -1.421875 
Q 19.734375 -1.421875 13.25 4.234375 
Q 6.78125 9.90625 6.78125 20.515625 
Q 6.78125 27.484375 10.78125 32.3125 
Q 14.796875 37.15625 21.921875 38.8125 
z
M 18.3125 54.390625 
Q 18.3125 48.734375 21.84375 45.5625 
Q 25.390625 42.390625 31.78125 42.390625 
Q 38.140625 42.390625 41.71875 45.5625 
Q 45.3125 48.734375 45.3125 54.390625 
Q 45.3125 60.0625 41.71875 63.234375 
Q 38.140625 66.40625 31.78125 66.40625 
Q 25.390625 66.40625 21.84375 63.234375 
Q 18.3125 60.0625 18.3125 54.390625 
z
" id="DejaVuSans-38"/>
      </defs>
      <g transform="translate(23.675 87.065681)scale(0.16 -0.16)">
       <use xlink:href="#DejaVuSans-30"/>
       <use x="63.623047" xlink:href="#DejaVuSans-2e"/>
       <use x="95.410156" xlink:href="#DejaVuSans-38"/>
      </g>
     </g>
    </g>
    <g id="ytick_6">
     <g id="line2d_39">
      <path clip-path="url(#p39dc3574d7)" d="M 56.12 27.513663 
L 333.168 27.513663 
" style="fill:none;stroke:#b0b0b0;stroke-linecap:square;stroke-width:0.8;"/>
     </g>
     <g id="line2d_40">
      <g>
       <use style="stroke:#000000;stroke-width:0.8;" x="56.12" xlink:href="#meec1916441" y="27.513663"/>
      </g>
     </g>
     <g id="text_11">
      <!-- 1.0 -->
      <g transform="translate(23.675 33.592413)scale(0.16 -0.16)">
       <use xlink:href="#DejaVuSans-31"/>
       <use x="63.623047" xlink:href="#DejaVuSans-2e"/>
       <use x="95.410156" xlink:href="#DejaVuSans-30"/>
      </g>
     </g>
    </g>
    <g id="text_12">
     <!-- Fraction of function,target pairs -->
     <defs>
      <path d="M 9.8125 72.90625 
L 51.703125 72.90625 
L 51.703125 64.59375 
L 19.671875 64.59375 
L 19.671875 43.109375 
L 48.578125 43.109375 
L 48.578125 34.8125 
L 19.671875 34.8125 
L 19.671875 0 
L 9.8125 0 
z
" id="DejaVuSans-46"/>
      <path d="M 41.109375 46.296875 
Q 39.59375 47.171875 37.8125 47.578125 
Q 36.03125 48 33.890625 48 
Q 26.265625 48 22.1875 43.046875 
Q 18.109375 38.09375 18.109375 28.8125 
L 18.109375 0 
L 9.078125 0 
L 9.078125 54.6875 
L 18.109375 54.6875 
L 18.109375 46.1875 
Q 20.953125 51.171875 25.484375 53.578125 
Q 30.03125 56 36.53125 56 
Q 37.453125 56 38.578125 55.875 
Q 39.703125 55.765625 41.0625 55.515625 
z
" id="DejaVuSans-72"/>
      <path d="M 48.78125 52.59375 
L 48.78125 44.1875 
Q 44.96875 46.296875 41.140625 47.34375 
Q 37.3125 48.390625 33.40625 48.390625 
Q 24.65625 48.390625 19.8125 42.84375 
Q 14.984375 37.3125 14.984375 27.296875 
Q 14.984375 17.28125 19.8125 11.734375 
Q 24.65625 6.203125 33.40625 6.203125 
Q 37.3125 6.203125 41.140625 7.25 
Q 44.96875 8.296875 48.78125 10.40625 
L 48.78125 2.09375 
Q 45.015625 0.34375 40.984375 -0.53125 
Q 36.96875 -1.421875 32.421875 -1.421875 
Q 20.0625 -1.421875 12.78125 6.34375 
Q 5.515625 14.109375 5.515625 27.296875 
Q 5.515625 40.671875 12.859375 48.328125 
Q 20.21875 56 33.015625 56 
Q 37.15625 56 41.109375 55.140625 
Q 45.0625 54.296875 48.78125 52.59375 
z
" id="DejaVuSans-63"/>
      <path d="M 18.3125 70.21875 
L 18.3125 54.6875 
L 36.8125 54.6875 
L 36.8125 47.703125 
L 18.3125 47.703125 
L 18.3125 18.015625 
Q 18.3125 11.328125 20.140625 9.421875 
Q 21.96875 7.515625 27.59375 7.515625 
L 36.8125 7.515625 
L 36.8125 0 
L 27.59375 0 
Q 17.1875 0 13.234375 3.875 
Q 9.28125 7.765625 9.28125 18.015625 
L 9.28125 47.703125 
L 2.6875 47.703125 
L 2.6875 54.6875 
L 9.28125 54.6875 
L 9.28125 70.21875 
z
" id="DejaVuSans-74"/>
      <path d="M 8.5 21.578125 
L 8.5 54.6875 
L 17.484375 54.6875 
L 17.484375 21.921875 
Q 17.484375 14.15625 20.5 10.265625 
Q 23.53125 6.390625 29.59375 6.390625 
Q 36.859375 6.390625 41.078125 11.03125 
Q 45.3125 15.671875 45.3125 23.6875 
L 45.3125 54.6875 
L 54.296875 54.6875 
L 54.296875 0 
L 45.3125 0 
L 45.3125 8.40625 
Q 42.046875 3.421875 37.71875 1 
Q 33.40625 -1.421875 27.6875 -1.421875 
Q 18.265625 -1.421875 13.375 4.4375 
Q 8.5 10.296875 8.5 21.578125 
z
M 31.109375 56 
z
" id="DejaVuSans-75"/>
      <path d="M 11.71875 12.40625 
L 22.015625 12.40625 
L 22.015625 4 
L 14.015625 -11.625 
L 7.71875 -11.625 
L 11.71875 4 
z
" id="DejaVuSans-2c"/>
      <path d="M 18.109375 8.203125 
L 18.109375 -20.796875 
L 9.078125 -20.796875 
L 9.078125 54.6875 
L 18.109375 54.6875 
L 18.109375 46.390625 
Q 20.953125 51.265625 25.265625 53.625 
Q 29.59375 56 35.59375 56 
Q 45.5625 56 51.78125 48.09375 
Q 58.015625 40.1875 58.015625 27.296875 
Q 58.015625 14.40625 51.78125 6.484375 
Q 45.5625 -1.421875 35.59375 -1.421875 
Q 29.59375 -1.421875 25.265625 0.953125 
Q 20.953125 3.328125 18.109375 8.203125 
z
M 48.6875 27.296875 
Q 48.6875 37.203125 44.609375 42.84375 
Q 40.53125 48.484375 33.40625 48.484375 
Q 26.265625 48.484375 22.1875 42.84375 
Q 18.109375 37.203125 18.109375 27.296875 
Q 18.109375 17.390625 22.1875 11.75 
Q 26.265625 6.109375 33.40625 6.109375 
Q 40.53125 6.109375 44.609375 11.75 
Q 48.6875 17.390625 48.6875 27.296875 
z
" id="DejaVuSans-70"/>
     </defs>
     <g transform="translate(16.139531 294.999375)rotate(-90)scale(0.17 -0.17)">
      <use xlink:href="#DejaVuSans-46"/>
      <use x="57.410156" xlink:href="#DejaVuSans-72"/>
      <use x="98.523438" xlink:href="#DejaVuSans-61"/>
      <use x="159.802734" xlink:href="#DejaVuSans-63"/>
      <use x="214.783203" xlink:href="#DejaVuSans-74"/>
      <use x="253.992188" xlink:href="#DejaVuSans-69"/>
      <use x="281.775391" xlink:href="#DejaVuSans-6f"/>
      <use x="342.957031" xlink:href="#DejaVuSans-6e"/>
      <use x="406.335938" xlink:href="#DejaVuSans-20"/>
      <use x="438.123047" xlink:href="#DejaVuSans-6f"/>
      <use x="499.304688" xlink:href="#DejaVuSans-66"/>
      <use x="534.509766" xlink:href="#DejaVuSans-20"/>
      <use x="566.296875" xlink:href="#DejaVuSans-66"/>
      <use x="601.501953" xlink:href="#DejaVuSans-75"/>
      <use x="664.880859" xlink:href="#DejaVuSans-6e"/>
      <use x="728.259766" xlink:href="#DejaVuSans-63"/>
      <use x="783.240234" xlink:href="#DejaVuSans-74"/>
      <use x="822.449219" xlink:href="#DejaVuSans-69"/>
      <use x="850.232422" xlink:href="#DejaVuSans-6f"/>
      <use x="911.414062" xlink:href="#DejaVuSans-6e"/>
      <use x="974.792969" xlink:href="#DejaVuSans-2c"/>
      <use x="1006.580078" xlink:href="#DejaVuSans-74"/>
      <use x="1045.789062" xlink:href="#DejaVuSans-61"/>
      <use x="1107.068359" xlink:href="#DejaVuSans-72"/>
      <use x="1148.166016" xlink:href="#DejaVuSans-67"/>
      <use x="1211.642578" xlink:href="#DejaVuSans-65"/>
      <use x="1273.166016" xlink:href="#DejaVuSans-74"/>
      <use x="1312.375" xlink:href="#DejaVuSans-20"/>
      <use x="1344.162109" xlink:href="#DejaVuSans-70"/>
      <use x="1407.638672" xlink:href="#DejaVuSans-61"/>
      <use x="1468.917969" xlink:href="#DejaVuSans-69"/>
      <use x="1496.701172" xlink:href="#DejaVuSans-72"/>
      <use x="1537.814453" xlink:href="#DejaVuSans-73"/>
     </g>
    </g>
   </g>
   <g id="line2d_41">
    <defs>
     <path d="M 0 1.5 
C 0.397805 1.5 0.77937 1.341951 1.06066 1.06066 
C 1.341951 0.77937 1.5 0.397805 1.5 0 
C 1.5 -0.397805 1.341951 -0.77937 1.06066 -1.06066 
C 0.77937 -1.341951 0.397805 -1.5 0 -1.5 
C -0.397805 -1.5 -0.77937 -1.341951 -1.06066 -1.06066 
C -1.341951 -0.77937 -1.5 -0.397805 -1.5 0 
C -1.5 0.397805 -1.341951 0.77937 -1.06066 1.06066 
C -0.77937 1.341951 -0.397805 1.5 0 1.5 
z
" id="m1f2275d7a1" style="stroke:#f5deb3;"/>
    </defs>
    <g>
     <use style="fill:#f5deb3;stroke:#f5deb3;" x="185.87538" xlink:href="#m1f2275d7a1" y="27.513663"/>
     <use style="fill:#f5deb3;stroke:#f5deb3;" x="185.87538" xlink:href="#m1f2275d7a1" y="27.513663"/>
    </g>
   </g>
   <g id="line2d_42">
    <defs>
     <path d="M 0 1.5 
C 0.397805 1.5 0.77937 1.341951 1.06066 1.06066 
C 1.341951 0.77937 1.5 0.397805 1.5 0 
C 1.5 -0.397805 1.341951 -0.77937 1.06066 -1.06066 
C 0.77937 -1.341951 0.397805 -1.5 0 -1.5 
C -0.397805 -1.5 -0.77937 -1.341951 -1.06066 -1.06066 
C -1.341951 -0.77937 -1.5 -0.397805 -1.5 0 
C -1.5 0.397805 -1.341951 0.77937 -1.06066 1.06066 
C -0.77937 1.341951 -0.397805 1.5 0 1.5 
z
" id="m979935d79f" style="stroke:#000080;"/>
    </defs>
    <g>
     <use style="fill:#000080;stroke:#000080;" x="262.713815" xlink:href="#m979935d79f" y="221.485319"/>
     <use style="fill:#000080;stroke:#000080;" x="262.713815" xlink:href="#m979935d79f" y="221.485319"/>
    </g>
   </g>
   <g id="line2d_43">
    <path d="M 37.236359 294.88 
L 37.236359 288.589027 
L 49.15061 288.589027 
L 49.15061 283.870798 
L 56.12 283.870798 
L 56.12 281.249559 
L 61.064861 281.249559 
L 61.064861 280.725312 
L 64.900393 280.725312 
L 64.900393 280.201064 
L 68.034251 280.201064 
L 68.034251 279.676816 
L 75.003641 279.676816 
L 75.003641 279.152568 
L 76.814644 279.152568 
L 76.814644 278.628321 
L 78.452896 278.628321 
L 78.452896 277.055578 
L 79.948502 277.055578 
L 79.948502 276.53133 
L 83.784035 276.53133 
L 83.784035 275.482834 
L 90.367147 275.482834 
L 90.367147 274.958587 
L 95.698286 274.958587 
L 95.698286 274.434339 
L 97.849669 274.434339 
L 97.849669 273.385844 
L 98.347925 273.385844 
L 98.347925 272.861596 
L 99.761485 272.861596 
L 99.761485 271.288853 
L 102.667676 271.288853 
L 102.667676 270.764605 
L 105.801534 270.764605 
L 105.801534 269.191862 
L 106.11693 269.191862 
L 106.11693 268.667614 
L 110.262176 268.667614 
L 110.262176 268.143366 
L 113.396034 268.143366 
L 113.396034 267.619119 
L 114.195649 267.619119 
L 114.195649 266.570623 
L 115.145539 266.570623 
L 115.145539 266.046375 
L 118.795247 266.046375 
L 118.795247 264.99788 
L 121.16504 264.99788 
L 121.16504 264.473632 
L 126.68611 264.473632 
L 126.68611 263.949385 
L 131.441039 263.949385 
L 131.441039 262.376641 
L 132.279675 262.376641 
L 132.279675 261.852394 
L 133.079291 261.852394 
L 133.079291 261.328146 
L 133.465568 261.328146 
L 133.465568 260.803898 
L 134.515111 260.803898 
L 134.515111 259.755403 
L 137.528768 259.755403 
L 137.528768 259.231155 
L 137.827708 259.231155 
L 137.827708 258.706907 
L 141.424506 258.706907 
L 141.424506 258.18266 
L 144.056965 258.18266 
L 144.056965 257.134164 
L 144.464619 257.134164 
L 144.464619 256.609917 
L 146.369367 256.609917 
L 146.369367 256.085669 
L 150.276868 256.085669 
L 150.276868 255.037173 
L 155.287437 255.037173 
L 155.287437 254.512926 
L 155.447664 254.512926 
L 155.447664 253.988678 
L 156.193228 253.988678 
L 156.193228 253.46443 
L 158.433215 253.46443 
L 158.433215 252.940182 
L 159.998191 252.940182 
L 159.998191 252.415935 
L 160.89888 252.415935 
L 160.89888 251.891687 
L 168.32666 251.891687 
L 168.32666 249.270448 
L 169.096552 249.270448 
L 169.096552 248.746201 
L 173.043854 248.746201 
L 173.043854 248.221953 
L 176.19892 248.221953 
L 176.19892 247.697705 
L 176.565876 247.697705 
L 176.565876 247.173458 
L 177.051679 247.173458 
L 177.051679 246.64921 
L 177.699824 246.64921 
L 177.699824 245.600714 
L 178.510692 245.600714 
L 178.510692 245.076467 
L 184.923056 245.076467 
L 184.923056 244.552219 
L 185.860285 244.552219 
L 185.860285 244.027971 
L 187.830026 244.027971 
L 187.830026 243.503724 
L 192.00372 243.503724 
L 192.00372 242.979476 
L 194.65517 242.979476 
L 194.65517 242.455228 
L 194.960259 242.455228 
L 194.960259 241.93098 
L 195.829109 241.93098 
L 195.829109 241.406733 
L 197.855892 241.406733 
L 197.855892 240.882485 
L 199.235879 240.882485 
L 199.338217 239.83399 
L 200.920472 239.83399 
L 200.920472 239.309742 
L 202.587509 239.309742 
L 202.587509 238.785494 
L 203.140072 238.785494 
L 203.140072 238.261246 
L 203.675424 238.261246 
L 203.675424 237.736999 
L 204.231985 237.736999 
L 204.231985 237.212751 
L 208.478283 237.212751 
L 208.478283 236.688503 
L 209.469938 236.688503 
L 209.469938 236.164255 
L 209.869058 236.164255 
L 209.869058 235.640008 
L 210.082916 235.640008 
L 210.082916 235.11576 
L 210.285397 235.11576 
L 210.285397 234.591512 
L 211.920466 234.591512 
L 211.920466 234.067265 
L 212.834723 234.067265 
L 212.866761 233.018769 
L 218.290662 233.018769 
L 218.290662 232.494521 
L 219.289686 232.494521 
L 219.289686 231.970274 
L 219.738594 231.970274 
L 219.738594 231.446026 
L 220.55702 231.446026 
L 220.55702 230.921778 
L 221.783309 230.921778 
L 221.832554 229.873283 
L 223.65875 229.873283 
L 223.698901 228.824787 
L 226.778533 228.824787 
L 226.778533 228.30054 
L 228.677817 228.30054 
L 228.677817 227.776292 
L 229.136918 227.776292 
L 229.136918 227.252044 
L 229.49557 227.252044 
L 229.49557 226.727797 
L 232.781415 226.727797 
L 232.781415 226.203549 
L 234.288051 226.203549 
L 234.288051 225.679301 
L 234.646534 225.679301 
L 234.646534 225.155053 
L 238.910986 225.155053 
L 238.910986 224.630806 
L 242.182222 224.630806 
L 242.182222 224.106558 
L 242.90173 224.106558 
L 242.90173 223.58231 
L 248.379211 223.58231 
L 248.379211 223.058063 
L 248.970041 223.058063 
L 248.970041 222.533815 
L 262.574844 222.533815 
L 262.574844 222.009567 
L 262.713815 222.009567 
L 262.713815 221.485319 
L 333.168 221.485319 
L 333.168 221.485319 
" style="fill:none;stroke:#000080;stroke-linecap:square;stroke-width:1.5;"/>
   </g>
   <g id="line2d_44">
    <defs>
     <path d="M 0 6 
C 1.591219 6 3.117479 5.367802 4.242641 4.242641 
C 5.367802 3.117479 6 1.591219 6 0 
C 6 -1.591219 5.367802 -3.117479 4.242641 -4.242641 
C 3.117479 -5.367802 1.591219 -6 0 -6 
C -1.591219 -6 -3.117479 -5.367802 -4.242641 -4.242641 
C -5.367802 -3.117479 -6 -1.591219 -6 0 
C -6 1.591219 -5.367802 3.117479 -4.242641 4.242641 
C -3.117479 5.367802 -1.591219 6 0 6 
z
" id="meaf1963fdf" style="stroke:#000080;stroke-width:1.5;"/>
    </defs>
    <g>
     <use style="fill:none;stroke:#000080;stroke-width:1.5;" x="97.849669" xlink:href="#meaf1963fdf" y="273.385844"/>
     <use style="fill:none;stroke:#000080;stroke-width:1.5;" x="173.043854" xlink:href="#meaf1963fdf" y="248.746201"/>
     <use style="fill:none;stroke:#000080;stroke-width:1.5;" x="234.646534" xlink:href="#meaf1963fdf" y="225.679301"/>
     <use style="fill:none;stroke:#000080;stroke-width:1.5;" x="262.713815" xlink:href="#meaf1963fdf" y="222.009567"/>
     <use style="fill:none;stroke:#000080;stroke-width:1.5;" x="262.713815" xlink:href="#meaf1963fdf" y="221.485319"/>
     <use style="fill:none;stroke:#000080;stroke-width:1.5;" x="333.168" xlink:href="#meaf1963fdf" y="221.485319"/>
    </g>
   </g>
   <g id="line2d_45">
    <path style="fill:none;stroke:#000080;stroke-linecap:square;stroke-width:1.5;"/>
    <g/>
   </g>
   <g id="line2d_46">
    <path clip-path="url(#p39dc3574d7)" d="M 186.631046 244.027971 
" style="fill:none;stroke:#000080;stroke-linecap:square;stroke-width:1.5;"/>
    <defs>
     <path d="M -12 12 
L 12 -12 
M -12 -12 
L 12 12 
" id="meeeda84d1d" style="stroke:#000080;"/>
    </defs>
    <g clip-path="url(#p39dc3574d7)">
     <use style="fill:#000080;stroke:#000080;" x="186.631046" xlink:href="#meeeda84d1d" y="244.027971"/>
    </g>
   </g>
   <g id="line2d_47">
    <defs>
     <path d="M 0 1.5 
C 0.397805 1.5 0.77937 1.341951 1.06066 1.06066 
C 1.341951 0.77937 1.5 0.397805 1.5 0 
C 1.5 -0.397805 1.341951 -0.77937 1.06066 -1.06066 
C 0.77937 -1.341951 0.397805 -1.5 0 -1.5 
C -0.397805 -1.5 -0.77937 -1.341951 -1.06066 -1.06066 
C -1.341951 -0.77937 -1.5 -0.397805 -1.5 0 
C -1.5 0.397805 -1.341951 0.77937 -1.06066 1.06066 
C -0.77937 1.341951 -0.397805 1.5 0 1.5 
z
" id="m7ee4becd07" style="stroke:#ff00ff;"/>
    </defs>
    <g>
     <use style="fill:#ff00ff;stroke:#ff00ff;" x="245.377184" xlink:href="#m7ee4becd07" y="27.513663"/>
     <use style="fill:#ff00ff;stroke:#ff00ff;" x="245.377184" xlink:href="#m7ee4becd07" y="27.513663"/>
    </g>
   </g>
   <g id="line2d_48">
    <path d="M 37.236359 294.88 
L 37.236359 285.443541 
L 49.15061 285.443541 
L 49.15061 279.152568 
L 56.12 279.152568 
L 56.12 278.628321 
L 61.064861 278.628321 
L 61.064861 277.055578 
L 68.034251 277.055578 
L 68.034251 276.53133 
L 70.68389 276.53133 
L 70.68389 276.007082 
L 76.814644 276.007082 
L 76.814644 272.861596 
L 78.452896 272.861596 
L 78.452896 272.337348 
L 79.948502 272.337348 
L 79.948502 271.8131 
L 81.324327 271.8131 
L 81.324327 271.288853 
L 82.598142 271.288853 
L 82.598142 270.764605 
L 85.935418 270.764605 
L 85.935418 270.240357 
L 87.847234 270.240357 
L 87.847234 268.667614 
L 88.728896 268.667614 
L 88.728896 267.094871 
L 89.567532 267.094871 
L 89.567532 266.046375 
L 90.367147 266.046375 
L 90.367147 263.949385 
L 91.131212 263.949385 
L 91.131212 263.425137 
L 92.564428 263.425137 
L 92.564428 262.900889 
L 93.238578 262.900889 
L 93.238578 261.852394 
L 97.336537 261.852394 
L 97.336537 261.328146 
L 101.067579 261.328146 
L 101.067579 260.803898 
L 101.481783 260.803898 
L 101.481783 260.279651 
L 103.415125 260.279651 
L 103.415125 259.755403 
L 104.478679 259.755403 
L 104.478679 257.658412 
L 104.819059 257.658412 
L 104.819059 256.609917 
L 107.323646 256.609917 
L 107.323646 255.037173 
L 108.176149 255.037173 
L 108.176149 254.512926 
L 109.250788 254.512926 
L 109.250788 253.988678 
L 112.557398 253.988678 
L 112.557398 252.415935 
L 112.770924 252.415935 
L 112.770924 251.891687 
L 113.999206 251.891687 
L 113.999206 251.367439 
L 115.329377 251.367439 
L 115.329377 250.843192 
L 115.869378 250.843192 
L 115.869378 250.318944 
L 117.231566 250.318944 
L 117.231566 249.794696 
L 118.645127 249.794696 
L 118.645127 248.221953 
L 120.365424 248.221953 
L 120.365424 247.173458 
L 120.501303 247.173458 
L 120.501303 246.124962 
L 122.779599 246.124962 
L 122.779599 245.600714 
L 123.589988 245.600714 
L 123.589988 244.552219 
L 126.591406 244.552219 
L 126.68611 242.979476 
L 126.780294 242.979476 
L 126.780294 241.93098 
L 127.05979 241.93098 
L 127.05979 241.406733 
L 127.783629 241.406733 
L 127.783629 240.882485 
L 128.13443 240.882485 
L 128.13443 240.358237 
L 128.307181 240.358237 
L 128.307181 239.309742 
L 128.731613 239.309742 
L 128.731613 238.785494 
L 128.981332 238.785494 
L 128.981332 238.261246 
L 130.634602 238.261246 
L 130.634602 237.736999 
L 131.2972 237.736999 
L 131.36927 236.688503 
L 133.144276 236.688503 
L 133.144276 235.640008 
L 133.780965 235.640008 
L 133.780965 234.591512 
L 133.905521 234.591512 
L 133.905521 234.067265 
L 134.151957 234.067265 
L 134.213018 233.018769 
L 134.455115 233.018769 
L 134.455115 232.494521 
L 135.333772 232.494521 
L 135.333772 231.446026 
L 135.950722 231.446026 
L 135.950722 230.921778 
L 136.332102 230.921778 
L 136.3859 229.873283 
L 137.173303 229.873283 
L 137.173303 229.349035 
L 137.678888 229.349035 
L 137.778244 228.30054 
L 138.362617 228.30054 
L 138.362617 227.776292 
L 140.26435 227.776292 
L 140.26435 227.252044 
L 140.519632 227.252044 
L 140.519632 226.727797 
L 141.100945 226.727797 
L 141.141725 225.679301 
L 141.303883 225.679301 
L 141.303883 225.155053 
L 141.58403 225.155053 
L 141.58403 223.58231 
L 141.859684 223.58231 
L 141.937637 222.533815 
L 142.169397 222.533815 
L 142.169397 222.009567 
L 142.473629 222.009567 
L 142.511282 220.436824 
L 142.586342 220.436824 
L 142.586342 219.912576 
L 142.772569 219.912576 
L 142.772569 219.388328 
L 143.319443 219.388328 
L 143.319443 218.864081 
L 143.497935 218.864081 
L 143.497935 218.339833 
L 144.091308 218.339833 
L 144.091308 217.815585 
L 144.329806 217.815585 
L 144.329806 216.76709 
L 145.252022 216.76709 
L 145.252022 216.242842 
L 145.506674 216.242842 
L 145.569751 214.670099 
L 146.278979 214.670099 
L 146.278979 213.097356 
L 146.960099 213.097356 
L 147.046984 212.04886 
L 147.726689 212.04886 
L 147.837405 211.000365 
L 147.947413 211.000365 
L 147.947413 210.476117 
L 148.380535 210.476117 
L 148.380535 209.95187 
L 148.855098 209.95187 
L 148.9588 208.903374 
L 148.984628 208.903374 
L 149.036169 207.854879 
L 149.189868 207.854879 
L 149.291576 205.757888 
L 149.417871 205.757888 
L 149.417871 205.23364 
L 149.962801 205.23364 
L 149.962801 204.185145 
L 150.419909 204.185145 
L 150.419909 203.660897 
L 151.276624 203.660897 
L 151.366735 202.088154 
L 151.567774 202.088154 
L 151.678454 201.039658 
L 151.941216 201.039658 
L 151.941216 200.515411 
L 152.327976 200.515411 
L 152.327976 199.466915 
L 152.581065 199.466915 
L 152.664606 198.41842 
L 152.768465 198.41842 
L 152.768465 197.369924 
L 153.157504 197.369924 
L 153.157504 196.845677 
L 153.715237 196.845677 
L 153.793457 195.797181 
L 153.851888 195.797181 
L 153.851888 195.272933 
L 154.255441 195.272933 
L 154.255441 194.224438 
L 154.481859 194.224438 
L 154.481859 193.175943 
L 154.649736 193.175943 
L 154.649736 192.651695 
L 154.779183 192.651695 
L 154.871052 191.078952 
L 155.089554 191.078952 
L 155.089554 190.554704 
L 155.711433 190.554704 
L 155.798464 187.933465 
L 155.919572 187.933465 
L 155.919572 186.360722 
L 156.227131 186.360722 
L 156.227131 185.836474 
L 156.412409 185.836474 
L 156.412409 185.312227 
L 156.956555 185.312227 
L 156.956555 184.263731 
L 157.069798 184.263731 
L 157.069798 183.739484 
L 157.198312 183.739484 
L 157.198312 182.690988 
L 157.357615 182.690988 
L 157.357615 182.16674 
L 158.011017 182.16674 
L 158.011017 181.642493 
L 158.132707 181.642493 
L 158.132707 180.593997 
L 158.343613 180.593997 
L 158.343613 179.545502 
L 158.80161 179.545502 
L 158.80161 179.021254 
L 158.975673 179.021254 
L 158.975673 178.497006 
L 159.133698 178.497006 
L 159.133698 177.972759 
L 159.360989 177.972759 
L 159.360989 177.448511 
L 159.543475 177.448511 
L 159.64094 176.400016 
L 159.889056 176.400016 
L 159.998191 175.35152 
L 160.388094 175.35152 
L 160.388094 174.827272 
L 160.546882 174.827272 
L 160.625729 172.206034 
L 161.256457 172.206034 
L 161.256457 171.681786 
L 161.631496 171.681786 
L 161.631496 171.157538 
L 161.766986 171.157538 
L 161.791506 170.109043 
L 161.986418 170.109043 
L 162.083052 168.5363 
L 162.11915 168.5363 
L 162.11915 168.012052 
L 162.262788 168.012052 
L 162.298511 166.439309 
L 162.440665 166.439309 
L 162.49955 165.390813 
L 162.733095 165.390813 
L 162.733095 164.866566 
L 162.963509 164.866566 
L 162.963509 164.342318 
L 163.269748 164.342318 
L 163.325865 161.721079 
L 163.482025 161.721079 
L 163.482025 161.196832 
L 163.909707 161.196832 
L 164.017676 160.148336 
L 164.484845 160.148336 
L 164.547577 158.575593 
L 164.641248 158.575593 
L 164.641248 158.051345 
L 165.061629 158.051345 
L 165.061629 157.527098 
L 165.853416 157.527098 
L 165.853416 157.00285 
L 166.489577 157.00285 
L 166.489577 155.430107 
L 167.388475 155.430107 
L 167.388475 154.905859 
L 179.557377 154.905859 
L 179.557377 154.381611 
L 180.072559 154.381611 
L 180.072559 153.857364 
L 180.194779 153.857364 
L 180.194779 153.333116 
L 180.465603 153.333116 
L 180.494516 152.28462 
L 180.634261 152.28462 
L 180.634261 151.760373 
L 181.43797 151.760373 
L 181.523699 150.711877 
L 181.566403 150.711877 
L 181.566403 150.18763 
L 182.822206 150.18763 
L 182.822206 149.663382 
L 182.940737 149.663382 
L 182.940737 149.139134 
L 183.823293 149.139134 
L 183.860656 148.090639 
L 184.196644 148.090639 
L 184.196644 147.566391 
L 184.38855 147.566391 
L 184.38855 147.042143 
L 193.036824 147.042143 
L 193.036824 146.517896 
L 195.813882 146.517896 
L 195.813882 145.993648 
L 196.180627 145.993648 
L 196.180627 145.4694 
L 196.43881 145.4694 
L 196.43881 144.945152 
L 196.945412 144.945152 
L 196.945412 144.420905 
L 197.057565 144.420905 
L 197.057565 143.896657 
L 197.537322 143.896657 
L 197.537322 143.372409 
L 197.697345 143.372409 
L 197.697345 142.848162 
L 198.014479 142.848162 
L 198.122851 141.275418 
L 198.12729 141.275418 
L 198.12729 140.751171 
L 198.324406 140.751171 
L 198.359473 139.702675 
L 198.555402 139.702675 
L 198.555402 139.178427 
L 198.850137 139.178427 
L 198.929393 138.129932 
L 198.975927 138.129932 
L 199.058811 137.081437 
L 199.310618 137.081437 
L 199.400153 136.032941 
L 199.536995 136.032941 
L 199.536995 135.508693 
L 199.70653 135.508693 
L 199.70653 134.984446 
L 199.922455 134.984446 
L 199.922455 134.460198 
L 200.298156 134.460198 
L 200.307281 133.411703 
L 200.549278 133.411703 
L 200.563408 132.363207 
L 200.676028 132.363207 
L 200.742232 130.790464 
L 200.841061 130.790464 
L 200.841061 130.266216 
L 200.990752 130.266216 
L 201.013282 129.217721 
L 201.325631 129.217721 
L 201.355084 128.169225 
L 201.479702 128.169225 
L 201.54895 125.547987 
L 201.63723 125.547987 
L 201.704646 123.450996 
L 201.784959 123.450996 
L 201.784959 122.926748 
L 201.925498 122.926748 
L 202.022489 120.829757 
L 202.05666 120.829757 
L 202.05666 120.30551 
L 202.182155 120.30551 
L 202.23932 119.257014 
L 202.481035 119.257014 
L 202.566953 117.160023 
L 202.637655 117.160023 
L 202.735247 115.58728 
L 202.795116 115.58728 
L 202.809769 114.538785 
L 203.233762 114.538785 
L 203.237059 113.490289 
L 203.377161 113.490289 
L 203.377161 112.966042 
L 204.524057 112.966042 
L 204.524057 112.441794 
L 205.166566 112.441794 
L 205.222468 111.393298 
L 205.523349 111.393298 
L 205.523349 110.869051 
L 205.68042 110.869051 
L 205.68042 110.344803 
L 206.531355 110.344803 
L 206.531355 109.820555 
L 207.254502 109.820555 
L 207.254502 109.296308 
L 207.857973 109.296308 
L 207.857973 108.77206 
L 208.929253 108.77206 
L 209.024481 107.199317 
L 209.112939 107.199317 
L 209.151156 106.150821 
L 209.251363 106.150821 
L 209.297001 105.102326 
L 209.863827 105.102326 
L 209.916068 104.05383 
L 209.978547 104.05383 
L 209.978547 103.529583 
L 210.097669 103.529583 
L 210.13891 102.481087 
L 210.338555 102.481087 
L 210.414004 101.432592 
L 210.527999 101.432592 
L 210.619083 99.859849 
L 210.644815 99.859849 
L 210.644815 99.335601 
L 211.195842 99.335601 
L 211.22625 98.287105 
L 211.328138 98.287105 
L 211.376802 95.665867 
L 211.542325 95.665867 
L 211.542325 95.141619 
L 211.796009 95.141619 
L 211.796009 94.617371 
L 211.985331 94.617371 
L 212.068371 92.520381 
L 212.157554 92.520381 
L 212.242372 90.947637 
L 212.385609 90.947637 
L 212.462887 89.374894 
L 212.93066 89.374894 
L 212.93066 88.850646 
L 213.120942 88.850646 
L 213.120942 88.326399 
L 213.277304 88.326399 
L 213.337865 86.753656 
L 213.412811 86.753656 
L 213.412811 86.229408 
L 213.529756 86.229408 
L 213.529756 85.70516 
L 213.708774 85.70516 
L 213.708774 85.180912 
L 214.030841 85.180912 
L 214.030841 84.656665 
L 214.545646 84.656665 
L 214.545646 84.132417 
L 214.918396 84.132417 
L 214.918396 83.608169 
L 215.124363 83.608169 
L 215.21165 82.035426 
L 215.327891 82.035426 
L 215.38111 80.986931 
L 215.464409 80.986931 
L 215.468725 79.938435 
L 215.718822 79.938435 
L 215.718822 79.414188 
L 215.96638 79.414188 
L 215.96638 78.88994 
L 216.532883 78.88994 
L 216.560749 77.841444 
L 216.798551 77.841444 
L 216.798551 77.317197 
L 217.169 77.317197 
L 217.239221 75.744454 
L 217.298006 75.744454 
L 217.379775 74.17171 
L 217.491396 74.17171 
L 217.491396 73.647463 
L 217.75646 73.647463 
L 217.832791 72.598967 
L 217.909253 72.598967 
L 217.977453 71.026224 
L 218.042132 71.026224 
L 218.042132 70.501976 
L 218.22967 70.501976 
L 218.288373 69.453481 
L 218.431991 69.453481 
L 218.431991 68.929233 
L 218.758941 68.929233 
L 218.812315 67.880738 
L 218.996511 67.880738 
L 218.996511 67.35649 
L 219.163967 67.35649 
L 219.215233 66.307995 
L 219.369837 66.307995 
L 219.469718 64.735251 
L 219.540951 64.735251 
L 219.566897 63.686756 
L 219.661415 63.686756 
L 219.661415 63.162508 
L 220.174435 63.162508 
L 220.174435 62.638261 
L 220.656238 62.638261 
L 220.759249 61.065517 
L 220.773518 61.065517 
L 220.773518 60.54127 
L 220.908882 60.54127 
L 220.908882 60.017022 
L 221.219747 60.017022 
L 221.219747 59.492774 
L 222.125828 59.492774 
L 222.158026 58.444279 
L 222.335855 58.444279 
L 222.413822 57.395783 
L 222.650955 57.395783 
L 222.722912 56.347288 
L 222.907972 56.347288 
L 222.907972 55.82304 
L 223.060219 55.82304 
L 223.15396 54.774545 
L 223.454881 54.774545 
L 223.454881 54.250297 
L 223.732622 54.250297 
L 223.753956 53.201802 
L 223.854931 53.201802 
L 223.854931 52.677554 
L 224.001021 52.677554 
L 224.001021 52.153306 
L 224.233575 52.153306 
L 224.298569 51.104811 
L 224.48379 51.104811 
L 224.564697 49.532068 
L 224.618952 49.532068 
L 224.636367 48.483572 
L 224.752432 48.483572 
L 224.805159 47.435077 
L 224.951815 47.435077 
L 224.951815 46.910829 
L 225.769414 46.910829 
L 225.874271 45.862334 
L 225.892518 45.862334 
L 225.892518 45.338086 
L 226.164512 45.338086 
L 226.164512 44.813838 
L 226.719482 44.813838 
L 226.719482 44.28959 
L 227.200757 44.28959 
L 227.227996 43.241095 
L 227.92538 43.241095 
L 227.92538 42.716847 
L 228.216397 42.716847 
L 228.216397 42.192599 
L 228.636241 42.192599 
L 228.636241 41.668352 
L 229.116934 41.668352 
L 229.116934 41.144104 
L 229.706799 41.144104 
L 229.706799 40.619856 
L 230.059875 40.619856 
L 230.150352 39.571361 
L 230.270251 39.571361 
L 230.270251 39.047113 
L 230.556304 39.047113 
L 230.556304 38.522865 
L 230.719903 38.522865 
L 230.719903 37.998618 
L 230.962529 37.998618 
L 230.962529 37.47437 
L 231.111906 37.47437 
L 231.111906 36.950122 
L 231.568268 36.950122 
L 231.568268 36.425875 
L 232.17136 36.425875 
L 232.216824 35.377379 
L 232.774714 35.377379 
L 232.774714 34.853131 
L 232.886502 34.853131 
L 232.886502 34.328884 
L 233.03993 34.328884 
L 233.03993 33.804636 
L 233.41733 33.804636 
L 233.41733 33.280388 
L 235.240176 33.280388 
L 235.240176 32.756141 
L 236.645138 32.756141 
L 236.645138 32.231893 
L 239.14973 32.231893 
L 239.242385 31.183397 
L 239.607032 31.183397 
L 239.607032 30.65915 
L 239.877485 30.65915 
L 239.877485 30.134902 
L 240.608195 30.134902 
L 240.608195 29.610654 
L 240.889908 29.610654 
L 240.889908 29.086407 
L 241.984395 29.086407 
L 241.984395 28.562159 
L 243.529078 28.562159 
L 243.529078 28.037911 
L 245.377184 28.037911 
L 245.377184 27.513663 
L 333.168 27.513663 
L 333.168 27.513663 
" style="fill:none;stroke:#ff00ff;stroke-linecap:square;stroke-width:1.5;"/>
   </g>
   <g id="line2d_49">
    <defs>
     <path d="M -0 8.485281 
L 5.091169 0 
L 0 -8.485281 
L -5.091169 -0 
z
" id="m0fcd354985" style="stroke:#ff00ff;stroke-linejoin:miter;stroke-width:1.5;"/>
    </defs>
    <g>
     <use style="fill:none;stroke:#ff00ff;stroke-linejoin:miter;stroke-width:1.5;" x="76.814644" xlink:href="#m0fcd354985" y="272.861596"/>
     <use style="fill:none;stroke:#ff00ff;stroke-linejoin:miter;stroke-width:1.5;" x="148.855098" xlink:href="#m0fcd354985" y="209.427622"/>
     <use style="fill:none;stroke:#ff00ff;stroke-linejoin:miter;stroke-width:1.5;" x="201.355084" xlink:href="#m0fcd354985" y="128.169225"/>
     <use style="fill:none;stroke:#ff00ff;stroke-linejoin:miter;stroke-width:1.5;" x="245.377184" xlink:href="#m0fcd354985" y="28.037911"/>
     <use style="fill:none;stroke:#ff00ff;stroke-linejoin:miter;stroke-width:1.5;" x="245.377184" xlink:href="#m0fcd354985" y="27.513663"/>
     <use style="fill:none;stroke:#ff00ff;stroke-linejoin:miter;stroke-width:1.5;" x="333.168" xlink:href="#m0fcd354985" y="27.513663"/>
    </g>
   </g>
   <g id="line2d_50">
    <path style="fill:none;stroke:#ff00ff;stroke-linecap:square;stroke-width:1.5;"/>
    <g/>
   </g>
   <g id="line2d_51">
    <path clip-path="url(#p39dc3574d7)" d="M 198.956201 138.129932 
" style="fill:none;stroke:#ff00ff;stroke-linecap:square;stroke-width:1.5;"/>
    <defs>
     <path d="M -12 12 
L 12 -12 
M -12 -12 
L 12 12 
" id="m63b2e592ba" style="stroke:#ff00ff;"/>
    </defs>
    <g clip-path="url(#p39dc3574d7)">
     <use style="fill:#ff00ff;stroke:#ff00ff;" x="198.956201" xlink:href="#m63b2e592ba" y="138.129932"/>
    </g>
   </g>
   <g id="line2d_52">
    <defs>
     <path d="M 0 1.5 
C 0.397805 1.5 0.77937 1.341951 1.06066 1.06066 
C 1.341951 0.77937 1.5 0.397805 1.5 0 
C 1.5 -0.397805 1.341951 -0.77937 1.06066 -1.06066 
C 0.77937 -1.341951 0.397805 -1.5 0 -1.5 
C -0.397805 -1.5 -0.77937 -1.341951 -1.06066 -1.06066 
C -1.341951 -0.77937 -1.5 -0.397805 -1.5 0 
C -1.5 0.397805 -1.341951 0.77937 -1.06066 1.06066 
C -0.77937 1.341951 -0.397805 1.5 0 1.5 
z
" id="me6c4e79e06" style="stroke:#ff7500;"/>
    </defs>
    <g>
     <use style="fill:#ff7500;stroke:#ff7500;" x="261.276916" xlink:href="#me6c4e79e06" y="27.513663"/>
     <use style="fill:#ff7500;stroke:#ff7500;" x="261.276916" xlink:href="#me6c4e79e06" y="27.513663"/>
    </g>
   </g>
   <g id="line2d_53">
    <path d="M 37.236359 294.88 
L 37.236359 289.637523 
L 49.15061 289.637523 
L 49.15061 287.540532 
L 56.12 287.540532 
L 56.12 287.016284 
L 61.064861 287.016284 
L 61.064861 286.492036 
L 64.900393 286.492036 
L 64.900393 285.967789 
L 70.68389 285.967789 
L 70.68389 285.443541 
L 76.814644 285.443541 
L 76.814644 282.298055 
L 79.948502 282.298055 
L 79.948502 281.773807 
L 83.784035 281.773807 
L 83.784035 280.201064 
L 84.893363 280.201064 
L 84.893363 279.676816 
L 86.917893 279.676816 
L 86.917893 279.152568 
L 87.847234 279.152568 
L 87.847234 278.104073 
L 89.567532 278.104073 
L 89.567532 276.53133 
L 91.131212 276.53133 
L 91.131212 276.007082 
L 91.862754 276.007082 
L 91.862754 275.482834 
L 92.564428 275.482834 
L 92.564428 273.910091 
L 93.238578 273.910091 
L 93.238578 273.385844 
L 93.887283 273.385844 
L 93.887283 272.861596 
L 95.698286 272.861596 
L 95.698286 271.288853 
L 96.261898 271.288853 
L 96.261898 270.764605 
L 96.807615 270.764605 
L 96.807615 269.716109 
L 97.336537 269.716109 
L 97.336537 269.191862 
L 100.643147 269.191862 
L 100.643147 268.143366 
L 102.281398 268.143366 
L 102.281398 267.094871 
L 102.667676 267.094871 
L 102.667676 266.570623 
L 103.045463 266.570623 
L 103.045463 266.046375 
L 103.415125 266.046375 
L 103.415125 264.99788 
L 104.131422 264.99788 
L 104.131422 263.425137 
L 105.480242 263.425137 
L 105.480242 262.900889 
L 107.323646 262.900889 
L 107.323646 261.328146 
L 108.451173 261.328146 
L 108.451173 260.803898 
L 110.983483 260.803898 
L 110.983483 260.279651 
L 113.396034 260.279651 
L 113.396034 259.755403 
L 113.599452 259.755403 
L 113.599452 259.231155 
L 113.800491 259.231155 
L 113.800491 258.18266 
L 113.999206 258.18266 
L 113.999206 257.658412 
L 115.329377 257.658412 
L 115.329377 256.609917 
L 115.691256 256.609917 
L 115.691256 256.085669 
L 116.045673 256.085669 
L 116.045673 255.561421 
L 117.06708 255.561421 
L 117.06708 255.037173 
L 117.715785 255.037173 
L 117.715785 254.512926 
L 117.874207 254.512926 
L 117.874207 253.988678 
L 118.186736 253.988678 
L 118.186736 253.46443 
L 118.493684 253.46443 
L 118.493684 252.940182 
L 118.944067 252.940182 
L 118.944067 252.415935 
L 119.810904 252.415935 
L 119.810904 251.891687 
L 120.0904 251.891687 
L 120.0904 251.367439 
L 121.294766 251.367439 
L 121.294766 250.318944 
L 121.42352 250.318944 
L 121.42352 248.746201 
L 122.420242 248.746201 
L 122.420242 247.697705 
L 122.897734 247.697705 
L 122.897734 246.64921 
L 123.36232 246.64921 
L 123.36232 246.124962 
L 123.589988 246.124962 
L 123.589988 245.600714 
L 124.363883 245.600714 
L 124.363883 244.552219 
L 124.578744 244.552219 
L 124.578744 244.027971 
L 124.790952 244.027971 
L 124.790952 242.979476 
L 125.207666 242.979476 
L 125.207666 242.455228 
L 125.513703 242.455228 
L 125.513703 241.93098 
L 125.714742 241.93098 
L 125.714742 241.406733 
L 127.05979 241.406733 
L 127.05979 239.83399 
L 127.334814 239.83399 
L 127.334814 239.309742 
L 128.898495 239.309742 
L 128.898495 238.785494 
L 129.867125 238.785494 
L 129.867125 238.261246 
L 130.100987 238.261246 
L 130.100987 237.736999 
L 130.255146 237.736999 
L 130.255146 236.688503 
L 130.559378 236.688503 
L 130.559378 235.640008 
L 131.583684 235.640008 
L 131.583684 235.11576 
L 131.725155 235.11576 
L 131.725155 233.543017 
L 132.882847 233.543017 
L 132.882847 233.018769 
L 133.6555 233.018769 
L 133.6555 232.494521 
L 133.843356 232.494521 
L 133.905521 231.446026 
L 134.273863 231.446026 
L 134.273863 230.921778 
L 134.811986 230.921778 
L 134.811986 230.397531 
L 135.045848 230.397531 
L 135.045848 229.873283 
L 135.21918 229.873283 
L 135.21918 229.349035 
L 136.060554 229.349035 
L 136.169688 228.30054 
L 136.492995 228.30054 
L 136.492995 227.776292 
L 136.966831 227.776292 
L 136.966831 227.252044 
L 138.88138 227.252044 
L 138.88138 226.203549 
L 139.112104 226.203549 
L 139.112104 225.679301 
L 139.43 225.679301 
L 139.43 224.630806 
L 140.135274 224.630806 
L 140.135274 223.58231 
L 140.26435 223.58231 
L 140.26435 223.058063 
L 140.519632 223.058063 
L 140.519632 222.533815 
L 141.222995 222.533815 
L 141.303883 220.961072 
L 141.544287 220.961072 
L 141.544287 220.436824 
L 142.322186 220.436824 
L 142.322186 219.912576 
L 143.391063 219.912576 
L 143.426761 218.339833 
L 143.533413 218.339833 
L 143.533413 217.815585 
L 143.814623 217.815585 
L 143.814623 217.291338 
L 144.797098 217.291338 
L 144.797098 216.76709 
L 144.960957 216.76709 
L 145.058527 215.194347 
L 145.819772 215.194347 
L 145.819772 214.670099 
L 146.035596 214.670099 
L 146.035596 214.145851 
L 146.960099 214.145851 
L 147.018071 212.573108 
L 147.276552 212.573108 
L 147.276552 212.04886 
L 147.615255 212.04886 
L 147.643181 211.000365 
L 148.380535 211.000365 
L 148.380535 210.476117 
L 148.881082 210.476117 
L 148.907027 209.427622 
L 149.266206 209.427622 
L 149.266206 207.854879 
L 149.443019 207.854879 
L 149.443019 207.330631 
L 150.108469 207.330631 
L 150.180842 206.282136 
L 150.795631 206.282136 
L 150.865174 204.185145 
L 151.117784 204.185145 
L 151.117784 203.660897 
L 151.501022 203.660897 
L 151.501022 203.136649 
L 151.875901 203.136649 
L 151.875901 202.612401 
L 152.560116 202.612401 
L 152.560116 202.088154 
L 153.418704 202.088154 
L 153.418704 201.039658 
L 153.537932 201.039658 
L 153.537932 199.991163 
L 153.987461 199.991163 
L 154.064454 198.942667 
L 154.274423 198.942667 
L 154.274423 198.41842 
L 155.125703 198.41842 
L 155.125703 197.369924 
L 155.500742 197.369924 
L 155.500742 196.845677 
L 155.728875 196.845677 
L 155.728875 196.321429 
L 156.579129 196.321429 
L 156.579129 195.797181 
L 156.694877 195.797181 
L 156.694877 194.224438 
L 156.826214 194.224438 
L 156.826214 192.651695 
L 157.278148 192.651695 
L 157.278148 192.127447 
L 157.734023 192.127447 
L 157.7805 190.554704 
L 159.033305 190.554704 
L 159.033305 190.030456 
L 160.361486 190.030456 
L 160.361486 189.506209 
L 160.533705 189.506209 
L 160.533705 188.981961 
L 161.155049 188.981961 
L 161.205828 187.933465 
L 168.838314 187.933465 
L 168.838314 186.88497 
L 168.967918 186.88497 
L 168.967918 186.360722 
L 169.948151 186.360722 
L 169.948151 185.836474 
L 170.473608 185.836474 
L 170.473608 185.312227 
L 172.903225 185.312227 
L 172.903225 184.787979 
L 178.598471 184.787979 
L 178.598471 184.263731 
L 178.745305 184.263731 
L 178.745305 183.739484 
L 179.169514 183.739484 
L 179.169514 183.215236 
L 179.674647 183.215236 
L 179.674647 182.690988 
L 180.257656 182.690988 
L 180.257656 182.16674 
L 180.378572 182.16674 
L 180.461468 181.118245 
L 180.490388 181.118245 
L 180.490388 180.593997 
L 180.797227 180.593997 
L 180.845816 178.497006 
L 181.026814 178.497006 
L 181.026814 177.972759 
L 181.198005 177.972759 
L 181.217801 176.924263 
L 181.473092 176.924263 
L 181.543123 175.875768 
L 181.655354 175.875768 
L 181.655354 175.35152 
L 181.881447 175.35152 
L 181.908076 173.254529 
L 182.017956 173.254529 
L 182.033057 172.206034 
L 182.1796 172.206034 
L 182.287764 170.109043 
L 182.339738 170.109043 
L 182.339738 169.584795 
L 182.582665 169.584795 
L 182.582665 168.5363 
L 182.9622 168.5363 
L 183.069117 167.487804 
L 183.143565 167.487804 
L 183.143565 166.963557 
L 183.273956 166.963557 
L 183.319535 164.866566 
L 183.590502 164.866566 
L 183.590502 164.342318 
L 183.741491 164.342318 
L 183.836889 161.196832 
L 184.233205 161.196832 
L 184.276314 160.148336 
L 186.100228 160.148336 
L 186.100228 159.099841 
L 188.660709 159.099841 
L 188.660709 158.575593 
L 188.82671 158.575593 
L 188.854644 157.00285 
L 189.021305 157.00285 
L 189.021305 156.478602 
L 189.35232 156.478602 
L 189.460441 154.905859 
L 189.472684 154.905859 
L 189.472684 154.381611 
L 189.761535 154.381611 
L 189.855154 153.333116 
L 190.551848 153.333116 
L 190.654987 152.28462 
L 190.768864 152.28462 
L 190.877482 150.18763 
L 191.103813 150.18763 
L 191.15494 148.614886 
L 191.360134 148.614886 
L 191.360134 148.090639 
L 191.584569 148.090639 
L 191.69247 144.945152 
L 191.859455 144.945152 
L 191.887129 143.896657 
L 192.035381 143.896657 
L 192.039598 142.848162 
L 192.155163 142.848162 
L 192.209524 141.799666 
L 192.427328 141.799666 
L 192.427328 141.275418 
L 192.868895 141.275418 
L 192.868895 140.751171 
L 193.588881 140.751171 
L 193.588881 140.226923 
L 194.032005 140.226923 
L 194.12189 138.129932 
L 194.226165 138.129932 
L 194.239155 137.081437 
L 194.372201 137.081437 
L 194.372201 136.557189 
L 195.223279 136.557189 
L 195.326326 135.508693 
L 195.34199 135.508693 
L 195.399306 132.887455 
L 195.570116 132.887455 
L 195.606131 131.838959 
L 195.76812 131.838959 
L 195.76812 129.741969 
L 196.00744 129.741969 
L 196.00744 129.217721 
L 198.651818 129.217721 
L 198.651818 128.693473 
L 198.956201 128.693473 
L 198.956201 128.169225 
L 201.271501 128.169225 
L 201.310885 126.596482 
L 201.611881 126.596482 
L 201.611881 126.072235 
L 202.004788 126.072235 
L 202.004788 125.547987 
L 202.151745 125.547987 
L 202.151745 125.023739 
L 202.331086 125.023739 
L 202.331086 124.499491 
L 202.528057 124.499491 
L 202.631964 121.878253 
L 202.666082 121.878253 
L 202.691059 120.829757 
L 203.002474 120.829757 
L 203.080286 119.781262 
L 203.274385 119.781262 
L 203.274385 119.257014 
L 204.975925 119.257014 
L 205.036409 118.208519 
L 206.042677 118.208519 
L 206.119984 117.160023 
L 206.421215 117.160023 
L 206.51774 112.966042 
L 206.768344 112.966042 
L 206.846917 110.869051 
L 206.881624 110.869051 
L 206.979141 108.247812 
L 206.998578 108.247812 
L 207.075229 107.199317 
L 207.116496 107.199317 
L 207.225769 106.150821 
L 207.231868 106.150821 
L 207.32829 103.005335 
L 207.399174 103.005335 
L 207.491233 100.908344 
L 209.418622 100.908344 
L 209.514236 99.859849 
L 209.55005 99.859849 
L 209.660827 95.665867 
L 212.132682 95.665867 
L 212.132682 95.141619 
L 212.516776 95.141619 
L 212.594744 91.996133 
L 215.854391 91.996133 
L 215.878112 89.899142 
L 216.803544 89.899142 
L 216.822999 88.326399 
L 217.667926 88.326399 
L 217.75646 84.656665 
L 217.780999 84.656665 
L 217.780999 84.132417 
L 218.720587 84.132417 
L 218.816311 81.511178 
L 218.842486 81.511178 
L 218.888972 79.414188 
L 219.094647 79.414188 
L 219.15831 76.268701 
L 219.870636 76.268701 
L 219.956442 74.17171 
L 219.990064 74.17171 
L 219.994625 73.123215 
L 220.20231 73.123215 
L 220.282811 70.501976 
L 220.31865 70.501976 
L 220.331664 68.404985 
L 222.200013 68.404985 
L 222.200013 67.880738 
L 222.473503 67.880738 
L 222.579409 63.686756 
L 222.587255 63.686756 
L 222.587255 62.114013 
L 223.538406 62.114013 
L 223.538406 61.589765 
L 226.798078 61.589765 
L 226.898803 57.920031 
L 226.919321 57.920031 
L 226.941752 56.347288 
L 228.915809 56.347288 
L 228.990156 51.629058 
L 230.871835 51.629058 
L 230.876458 49.532068 
L 234.457954 49.532068 
L 234.525911 44.813838 
L 235.62952 44.813838 
L 235.679863 38.522865 
L 242.215485 38.522865 
L 242.217648 37.47437 
L 242.969939 37.47437 
L 242.987901 35.901627 
L 244.229541 35.901627 
L 244.252604 34.853131 
L 246.059028 34.853131 
L 246.059028 34.328884 
L 246.291325 34.328884 
L 246.364698 33.280388 
L 248.040196 33.280388 
L 248.040196 32.756141 
L 248.674351 32.756141 
L 248.674351 32.231893 
L 249.301169 32.231893 
L 249.301169 31.183397 
L 250.626162 31.183397 
L 250.62979 30.134902 
L 251.098633 30.134902 
L 251.100669 29.086407 
L 254.298024 29.086407 
L 254.298024 28.562159 
L 257.238805 28.562159 
L 257.238805 28.037911 
L 261.276916 28.037911 
L 261.276916 27.513663 
L 333.168 27.513663 
L 333.168 27.513663 
" style="fill:none;stroke:#ff7500;stroke-linecap:square;stroke-width:1.5;"/>
   </g>
   <g id="line2d_54">
    <defs>
     <path d="M 0 -6 
L -1.347084 -1.854102 
L -5.706339 -1.854102 
L -2.179628 0.708204 
L -3.526712 4.854102 
L -0 2.291796 
L 3.526712 4.854102 
L 2.179628 0.708204 
L 5.706339 -1.854102 
L 1.347084 -1.854102 
z
" id="m2945a2867b" style="stroke:#ff7500;stroke-linejoin:bevel;stroke-width:1.5;"/>
    </defs>
    <g>
     <use style="fill:none;stroke:#ff7500;stroke-linejoin:bevel;stroke-width:1.5;" x="64.900393" xlink:href="#m2945a2867b" y="285.967789"/>
     <use style="fill:none;stroke:#ff7500;stroke-linejoin:bevel;stroke-width:1.5;" x="144.960957" xlink:href="#m2945a2867b" y="215.718594"/>
     <use style="fill:none;stroke:#ff7500;stroke-linejoin:bevel;stroke-width:1.5;" x="190.877482" xlink:href="#m2945a2867b" y="150.18763"/>
     <use style="fill:none;stroke:#ff7500;stroke-linejoin:bevel;stroke-width:1.5;" x="235.679863" xlink:href="#m2945a2867b" y="39.571361"/>
     <use style="fill:none;stroke:#ff7500;stroke-linejoin:bevel;stroke-width:1.5;" x="261.276916" xlink:href="#m2945a2867b" y="27.513663"/>
     <use style="fill:none;stroke:#ff7500;stroke-linejoin:bevel;stroke-width:1.5;" x="333.168" xlink:href="#m2945a2867b" y="27.513663"/>
    </g>
   </g>
   <g id="line2d_55">
    <path style="fill:none;stroke:#ff7500;stroke-linecap:square;stroke-width:1.5;"/>
    <g/>
   </g>
   <g id="line2d_56">
    <path clip-path="url(#p39dc3574d7)" d="M 242.097636 38.522865 
" style="fill:none;stroke:#ff7500;stroke-linecap:square;stroke-width:1.5;"/>
    <defs>
     <path d="M -12 12 
L 12 -12 
M -12 -12 
L 12 12 
" id="me3aa55de93" style="stroke:#ff7500;"/>
    </defs>
    <g clip-path="url(#p39dc3574d7)">
     <use style="fill:#ff7500;stroke:#ff7500;" x="242.097636" xlink:href="#me3aa55de93" y="38.522865"/>
    </g>
   </g>
   <g id="line2d_57">
    <path d="M 333.168 221.485319 
L 363.64328 289.532673 
" style="fill:none;stroke:#000080;stroke-linecap:square;stroke-width:1.5;"/>
    <g>
     <use style="fill:none;stroke:#000080;stroke-width:1.5;" x="333.168" xlink:href="#meaf1963fdf" y="221.485319"/>
     <use style="fill:none;stroke:#000080;stroke-width:1.5;" x="363.64328" xlink:href="#meaf1963fdf" y="289.532673"/>
    </g>
   </g>
   <g id="line2d_58">
    <path d="M 333.168 27.513663 
L 363.64328 203.975446 
" style="fill:none;stroke:#ff7500;stroke-linecap:square;stroke-width:1.5;"/>
    <g>
     <use style="fill:none;stroke:#ff7500;stroke-linejoin:bevel;stroke-width:1.5;" x="333.168" xlink:href="#m2945a2867b" y="27.513663"/>
     <use style="fill:none;stroke:#ff7500;stroke-linejoin:bevel;stroke-width:1.5;" x="363.64328" xlink:href="#m2945a2867b" y="203.975446"/>
    </g>
   </g>
   <g id="line2d_59">
    <path d="M 333.168 27.513663 
L 363.64328 118.418218 
" style="fill:none;stroke:#ff00ff;stroke-linecap:square;stroke-width:1.5;"/>
    <g>
     <use style="fill:none;stroke:#ff00ff;stroke-linejoin:miter;stroke-width:1.5;" x="333.168" xlink:href="#m0fcd354985" y="27.513663"/>
     <use style="fill:none;stroke:#ff00ff;stroke-linejoin:miter;stroke-width:1.5;" x="363.64328" xlink:href="#m0fcd354985" y="118.418218"/>
    </g>
   </g>
   <g id="line2d_60">
    <path d="M 333.168 294.88 
L 333.168 27.513663 
" style="fill:none;stroke:#000000;stroke-linecap:square;stroke-width:1.5;"/>
   </g>
   <g id="patch_3">
    <path d="M 56.12 294.88 
L 56.12 24.84 
" style="fill:none;stroke:#000000;stroke-linecap:square;stroke-linejoin:miter;stroke-width:0.8;"/>
   </g>
   <g id="patch_4">
    <path d="M 333.168 294.88 
L 333.168 24.84 
" style="fill:none;stroke:#000000;stroke-linecap:square;stroke-linejoin:miter;stroke-width:0.8;"/>
   </g>
   <g id="patch_5">
    <path d="M 56.12 294.88 
L 333.168 294.88 
" style="fill:none;stroke:#000000;stroke-linecap:square;stroke-linejoin:miter;stroke-width:0.8;"/>
   </g>
   <g id="patch_6">
    <path d="M 56.12 24.84 
L 333.168 24.84 
" style="fill:none;stroke:#000000;stroke-linecap:square;stroke-linejoin:miter;stroke-width:0.8;"/>
   </g>
   <g id="text_13">
    <!-- CMA ES PPM -->
    <defs>
     <path d="M 64.40625 67.28125 
L 64.40625 56.890625 
Q 59.421875 61.53125 53.78125 63.8125 
Q 48.140625 66.109375 41.796875 66.109375 
Q 29.296875 66.109375 22.65625 58.46875 
Q 16.015625 50.828125 16.015625 36.375 
Q 16.015625 21.96875 22.65625 14.328125 
Q 29.296875 6.6875 41.796875 6.6875 
Q 48.140625 6.6875 53.78125 8.984375 
Q 59.421875 11.28125 64.40625 15.921875 
L 64.40625 5.609375 
Q 59.234375 2.09375 53.4375 0.328125 
Q 47.65625 -1.421875 41.21875 -1.421875 
Q 24.65625 -1.421875 15.125 8.703125 
Q 5.609375 18.84375 5.609375 36.375 
Q 5.609375 53.953125 15.125 64.078125 
Q 24.65625 74.21875 41.21875 74.21875 
Q 47.75 74.21875 53.53125 72.484375 
Q 59.328125 70.75 64.40625 67.28125 
z
" id="DejaVuSans-43"/>
     <path d="M 9.8125 72.90625 
L 24.515625 72.90625 
L 43.109375 23.296875 
L 61.8125 72.90625 
L 76.515625 72.90625 
L 76.515625 0 
L 66.890625 0 
L 66.890625 64.015625 
L 48.09375 14.015625 
L 38.1875 14.015625 
L 19.390625 64.015625 
L 19.390625 0 
L 9.8125 0 
z
" id="DejaVuSans-4d"/>
     <path d="M 34.1875 63.1875 
L 20.796875 26.90625 
L 47.609375 26.90625 
z
M 28.609375 72.90625 
L 39.796875 72.90625 
L 67.578125 0 
L 57.328125 0 
L 50.6875 18.703125 
L 17.828125 18.703125 
L 11.1875 0 
L 0.78125 0 
z
" id="DejaVuSans-41"/>
     <path d="M 9.8125 72.90625 
L 55.90625 72.90625 
L 55.90625 64.59375 
L 19.671875 64.59375 
L 19.671875 43.015625 
L 54.390625 43.015625 
L 54.390625 34.71875 
L 19.671875 34.71875 
L 19.671875 8.296875 
L 56.78125 8.296875 
L 56.78125 0 
L 9.8125 0 
z
" id="DejaVuSans-45"/>
     <path d="M 53.515625 70.515625 
L 53.515625 60.890625 
Q 47.90625 63.578125 42.921875 64.890625 
Q 37.9375 66.21875 33.296875 66.21875 
Q 25.25 66.21875 20.875 63.09375 
Q 16.5 59.96875 16.5 54.203125 
Q 16.5 49.359375 19.40625 46.890625 
Q 22.3125 44.4375 30.421875 42.921875 
L 36.375 41.703125 
Q 47.40625 39.59375 52.65625 34.296875 
Q 57.90625 29 57.90625 20.125 
Q 57.90625 9.515625 50.796875 4.046875 
Q 43.703125 -1.421875 29.984375 -1.421875 
Q 24.8125 -1.421875 18.96875 -0.25 
Q 13.140625 0.921875 6.890625 3.21875 
L 6.890625 13.375 
Q 12.890625 10.015625 18.65625 8.296875 
Q 24.421875 6.59375 29.984375 6.59375 
Q 38.421875 6.59375 43.015625 9.90625 
Q 47.609375 13.234375 47.609375 19.390625 
Q 47.609375 24.75 44.3125 27.78125 
Q 41.015625 30.8125 33.5 32.328125 
L 27.484375 33.5 
Q 16.453125 35.6875 11.515625 40.375 
Q 6.59375 45.0625 6.59375 53.421875 
Q 6.59375 63.09375 13.40625 68.65625 
Q 20.21875 74.21875 32.171875 74.21875 
Q 37.3125 74.21875 42.625 73.28125 
Q 47.953125 72.359375 53.515625 70.515625 
z
" id="DejaVuSans-53"/>
     <path d="M 19.671875 64.796875 
L 19.671875 37.40625 
L 32.078125 37.40625 
Q 38.96875 37.40625 42.71875 40.96875 
Q 46.484375 44.53125 46.484375 51.125 
Q 46.484375 57.671875 42.71875 61.234375 
Q 38.96875 64.796875 32.078125 64.796875 
z
M 9.8125 72.90625 
L 32.078125 72.90625 
Q 44.34375 72.90625 50.609375 67.359375 
Q 56.890625 61.8125 56.890625 51.125 
Q 56.890625 40.328125 50.609375 34.8125 
Q 44.34375 29.296875 32.078125 29.296875 
L 19.671875 29.296875 
L 19.671875 0 
L 9.8125 0 
z
" id="DejaVuSans-50"/>
    </defs>
    <g transform="translate(369.18424 294.223611)scale(0.17 -0.17)">
     <use xlink:href="#DejaVuSans-43"/>
     <use x="69.824219" xlink:href="#DejaVuSans-4d"/>
     <use x="156.103516" xlink:href="#DejaVuSans-41"/>
     <use x="224.511719" xlink:href="#DejaVuSans-20"/>
     <use x="256.298828" xlink:href="#DejaVuSans-45"/>
     <use x="319.482422" xlink:href="#DejaVuSans-53"/>
     <use x="382.958984" xlink:href="#DejaVuSans-20"/>
     <use x="414.746094" xlink:href="#DejaVuSans-50"/>
     <use x="475.048828" xlink:href="#DejaVuSans-50"/>
     <use x="535.351562" xlink:href="#DejaVuSans-4d"/>
    </g>
   </g>
   <g id="text_14">
    <!-- CMAES posi -->
    <g transform="translate(369.18424 208.666383)scale(0.17 -0.17)">
     <use xlink:href="#DejaVuSans-43"/>
     <use x="69.824219" xlink:href="#DejaVuSans-4d"/>
     <use x="156.103516" xlink:href="#DejaVuSans-41"/>
     <use x="224.511719" xlink:href="#DejaVuSans-45"/>
     <use x="287.695312" xlink:href="#DejaVuSans-53"/>
     <use x="351.171875" xlink:href="#DejaVuSans-20"/>
     <use x="382.958984" xlink:href="#DejaVuSans-70"/>
     <use x="446.435547" xlink:href="#DejaVuSans-6f"/>
     <use x="507.617188" xlink:href="#DejaVuSans-73"/>
     <use x="559.716797" xlink:href="#DejaVuSans-69"/>
    </g>
   </g>
   <g id="text_15">
    <!-- CMA ES CSA -->
    <g transform="translate(369.18424 123.109155)scale(0.17 -0.17)">
     <use xlink:href="#DejaVuSans-43"/>
     <use x="69.824219" xlink:href="#DejaVuSans-4d"/>
     <use x="156.103516" xlink:href="#DejaVuSans-41"/>
     <use x="224.511719" xlink:href="#DejaVuSans-20"/>
     <use x="256.298828" xlink:href="#DejaVuSans-45"/>
     <use x="319.482422" xlink:href="#DejaVuSans-53"/>
     <use x="382.958984" xlink:href="#DejaVuSans-20"/>
     <use x="414.746094" xlink:href="#DejaVuSans-43"/>
     <use x="484.570312" xlink:href="#DejaVuSans-53"/>
     <use x="548.0625" xlink:href="#DejaVuSans-41"/>
    </g>
   </g>
   <g id="text_16">
    <!-- best 2009 -->
    <defs>
     <path d="M 48.6875 27.296875 
Q 48.6875 37.203125 44.609375 42.84375 
Q 40.53125 48.484375 33.40625 48.484375 
Q 26.265625 48.484375 22.1875 42.84375 
Q 18.109375 37.203125 18.109375 27.296875 
Q 18.109375 17.390625 22.1875 11.75 
Q 26.265625 6.109375 33.40625 6.109375 
Q 40.53125 6.109375 44.609375 11.75 
Q 48.6875 17.390625 48.6875 27.296875 
z
M 18.109375 46.390625 
Q 20.953125 51.265625 25.265625 53.625 
Q 29.59375 56 35.59375 56 
Q 45.5625 56 51.78125 48.09375 
Q 58.015625 40.1875 58.015625 27.296875 
Q 58.015625 14.40625 51.78125 6.484375 
Q 45.5625 -1.421875 35.59375 -1.421875 
Q 29.59375 -1.421875 25.265625 0.953125 
Q 20.953125 3.328125 18.109375 8.203125 
L 18.109375 0 
L 9.078125 0 
L 9.078125 75.984375 
L 18.109375 75.984375 
z
" id="DejaVuSans-62"/>
     <path d="M 10.984375 1.515625 
L 10.984375 10.5 
Q 14.703125 8.734375 18.5 7.8125 
Q 22.3125 6.890625 25.984375 6.890625 
Q 35.75 6.890625 40.890625 13.453125 
Q 46.046875 20.015625 46.78125 33.40625 
Q 43.953125 29.203125 39.59375 26.953125 
Q 35.25 24.703125 29.984375 24.703125 
Q 19.046875 24.703125 12.671875 31.3125 
Q 6.296875 37.9375 6.296875 49.421875 
Q 6.296875 60.640625 12.9375 67.421875 
Q 19.578125 74.21875 30.609375 74.21875 
Q 43.265625 74.21875 49.921875 64.515625 
Q 56.59375 54.828125 56.59375 36.375 
Q 56.59375 19.140625 48.40625 8.859375 
Q 40.234375 -1.421875 26.421875 -1.421875 
Q 22.703125 -1.421875 18.890625 -0.6875 
Q 15.09375 0.046875 10.984375 1.515625 
z
M 30.609375 32.421875 
Q 37.25 32.421875 41.125 36.953125 
Q 45.015625 41.5 45.015625 49.421875 
Q 45.015625 57.28125 41.125 61.84375 
Q 37.25 66.40625 30.609375 66.40625 
Q 23.96875 66.40625 20.09375 61.84375 
Q 16.21875 57.28125 16.21875 49.421875 
Q 16.21875 41.5 20.09375 36.953125 
Q 23.96875 32.421875 30.609375 32.421875 
z
" id="DejaVuSans-39"/>
    </defs>
    <g transform="translate(369.18424 37.551928)scale(0.17 -0.17)">
     <use xlink:href="#DejaVuSans-62"/>
     <use x="63.476562" xlink:href="#DejaVuSans-65"/>
     <use x="125" xlink:href="#DejaVuSans-73"/>
     <use x="177.099609" xlink:href="#DejaVuSans-74"/>
     <use x="216.308594" xlink:href="#DejaVuSans-20"/>
     <use x="248.095703" xlink:href="#DejaVuSans-32"/>
     <use x="311.71875" xlink:href="#DejaVuSans-30"/>
     <use x="375.341797" xlink:href="#DejaVuSans-30"/>
     <use x="438.964844" xlink:href="#DejaVuSans-39"/>
    </g>
   </g>
   <g id="text_17">
    <!-- bbob f18, 3-D -->
    <defs>
     <path d="M 40.578125 39.3125 
Q 47.65625 37.796875 51.625 33 
Q 55.609375 28.21875 55.609375 21.1875 
Q 55.609375 10.40625 48.1875 4.484375 
Q 40.765625 -1.421875 27.09375 -1.421875 
Q 22.515625 -1.421875 17.65625 -0.515625 
Q 12.796875 0.390625 7.625 2.203125 
L 7.625 11.71875 
Q 11.71875 9.328125 16.59375 8.109375 
Q 21.484375 6.890625 26.8125 6.890625 
Q 36.078125 6.890625 40.9375 10.546875 
Q 45.796875 14.203125 45.796875 21.1875 
Q 45.796875 27.640625 41.28125 31.265625 
Q 36.765625 34.90625 28.71875 34.90625 
L 20.21875 34.90625 
L 20.21875 43.015625 
L 29.109375 43.015625 
Q 36.375 43.015625 40.234375 45.921875 
Q 44.09375 48.828125 44.09375 54.296875 
Q 44.09375 59.90625 40.109375 62.90625 
Q 36.140625 65.921875 28.71875 65.921875 
Q 24.65625 65.921875 20.015625 65.03125 
Q 15.375 64.15625 9.8125 62.3125 
L 9.8125 71.09375 
Q 15.4375 72.65625 20.34375 73.4375 
Q 25.25 74.21875 29.59375 74.21875 
Q 40.828125 74.21875 47.359375 69.109375 
Q 53.90625 64.015625 53.90625 55.328125 
Q 53.90625 49.265625 50.4375 45.09375 
Q 46.96875 40.921875 40.578125 39.3125 
z
" id="DejaVuSans-33"/>
     <path d="M 19.671875 64.796875 
L 19.671875 8.109375 
L 31.59375 8.109375 
Q 46.6875 8.109375 53.6875 14.9375 
Q 60.6875 21.78125 60.6875 36.53125 
Q 60.6875 51.171875 53.6875 57.984375 
Q 46.6875 64.796875 31.59375 64.796875 
z
M 9.8125 72.90625 
L 30.078125 72.90625 
Q 51.265625 72.90625 61.171875 64.09375 
Q 71.09375 55.28125 71.09375 36.53125 
Q 71.09375 17.671875 61.125 8.828125 
Q 51.171875 0 30.078125 0 
L 9.8125 0 
z
" id="DejaVuSans-44"/>
    </defs>
    <g transform="translate(58.89048 35.290806)scale(0.102 -0.102)">
     <use xlink:href="#DejaVuSans-62"/>
     <use x="63.476562" xlink:href="#DejaVuSans-62"/>
     <use x="126.953125" xlink:href="#DejaVuSans-6f"/>
     <use x="188.134766" xlink:href="#DejaVuSans-62"/>
     <use x="251.611328" xlink:href="#DejaVuSans-20"/>
     <use x="283.398438" xlink:href="#DejaVuSans-66"/>
     <use x="318.603516" xlink:href="#DejaVuSans-31"/>
     <use x="382.226562" xlink:href="#DejaVuSans-38"/>
     <use x="445.849609" xlink:href="#DejaVuSans-2c"/>
     <use x="477.636719" xlink:href="#DejaVuSans-20"/>
     <use x="509.423828" xlink:href="#DejaVuSans-33"/>
     <use x="573.046875" xlink:href="#DejaVuSans-2d"/>
     <use x="609.130859" xlink:href="#DejaVuSans-44"/>
    </g>
    <!-- 51 targets: 100..1e-08 -->
    <defs>
     <path d="M 10.796875 72.90625 
L 49.515625 72.90625 
L 49.515625 64.59375 
L 19.828125 64.59375 
L 19.828125 46.734375 
Q 21.96875 47.46875 24.109375 47.828125 
Q 26.265625 48.1875 28.421875 48.1875 
Q 40.625 48.1875 47.75 41.5 
Q 54.890625 34.8125 54.890625 23.390625 
Q 54.890625 11.625 47.5625 5.09375 
Q 40.234375 -1.421875 26.90625 -1.421875 
Q 22.3125 -1.421875 17.546875 -0.640625 
Q 12.796875 0.140625 7.71875 1.703125 
L 7.71875 11.625 
Q 12.109375 9.234375 16.796875 8.0625 
Q 21.484375 6.890625 26.703125 6.890625 
Q 35.15625 6.890625 40.078125 11.328125 
Q 45.015625 15.765625 45.015625 23.390625 
Q 45.015625 31 40.078125 35.4375 
Q 35.15625 39.890625 26.703125 39.890625 
Q 22.75 39.890625 18.8125 39.015625 
Q 14.890625 38.140625 10.796875 36.28125 
z
" id="DejaVuSans-35"/>
     <path d="M 11.71875 12.40625 
L 22.015625 12.40625 
L 22.015625 0 
L 11.71875 0 
z
M 11.71875 51.703125 
L 22.015625 51.703125 
L 22.015625 39.3125 
L 11.71875 39.3125 
z
" id="DejaVuSans-3a"/>
    </defs>
    <g transform="translate(58.89048 46.712575)scale(0.102 -0.102)">
     <use xlink:href="#DejaVuSans-35"/>
     <use x="63.623047" xlink:href="#DejaVuSans-31"/>
     <use x="127.246094" xlink:href="#DejaVuSans-20"/>
     <use x="159.033203" xlink:href="#DejaVuSans-74"/>
     <use x="198.242188" xlink:href="#DejaVuSans-61"/>
     <use x="259.521484" xlink:href="#DejaVuSans-72"/>
     <use x="300.619141" xlink:href="#DejaVuSans-67"/>
     <use x="364.095703" xlink:href="#DejaVuSans-65"/>
     <use x="425.619141" xlink:href="#DejaVuSans-74"/>
     <use x="464.828125" xlink:href="#DejaVuSans-73"/>
     <use x="516.927734" xlink:href="#DejaVuSans-3a"/>
     <use x="550.619141" xlink:href="#DejaVuSans-20"/>
     <use x="582.40625" xlink:href="#DejaVuSans-31"/>
     <use x="646.029297" xlink:href="#DejaVuSans-30"/>
     <use x="709.652344" xlink:href="#DejaVuSans-30"/>
     <use x="773.275391" xlink:href="#DejaVuSans-2e"/>
     <use x="805.0625" xlink:href="#DejaVuSans-2e"/>
     <use x="836.849609" xlink:href="#DejaVuSans-31"/>
     <use x="900.472656" xlink:href="#DejaVuSans-65"/>
     <use x="961.996094" xlink:href="#DejaVuSans-2d"/>
     <use x="998.080078" xlink:href="#DejaVuSans-30"/>
     <use x="1061.703125" xlink:href="#DejaVuSans-38"/>
    </g>
    <!-- 15 instances -->
    <g transform="translate(58.89048 58.134344)scale(0.102 -0.102)">
     <use xlink:href="#DejaVuSans-31"/>
     <use x="63.623047" xlink:href="#DejaVuSans-35"/>
     <use x="127.246094" xlink:href="#DejaVuSans-20"/>
     <use x="159.033203" xlink:href="#DejaVuSans-69"/>
     <use x="186.816406" xlink:href="#DejaVuSans-6e"/>
     <use x="250.195312" xlink:href="#DejaVuSans-73"/>
     <use x="302.294922" xlink:href="#DejaVuSans-74"/>
     <use x="341.503906" xlink:href="#DejaVuSans-61"/>
     <use x="402.783203" xlink:href="#DejaVuSans-6e"/>
     <use x="466.162109" xlink:href="#DejaVuSans-63"/>
     <use x="521.142578" xlink:href="#DejaVuSans-65"/>
     <use x="582.666016" xlink:href="#DejaVuSans-73"/>
    </g>
   </g>
   <g id="text_18">
    <!-- v0.0.0 -->
    <g style="fill:#808080;" transform="translate(178.96275 290.099912)scale(0.1 -0.1)">
     <use xlink:href="#DejaVuSans-76"/>
     <use x="59.179688" xlink:href="#DejaVuSans-30"/>
     <use x="122.802734" xlink:href="#DejaVuSans-2e"/>
     <use x="154.589844" xlink:href="#DejaVuSans-30"/>
     <use x="218.212891" xlink:href="#DejaVuSans-2e"/>
     <use x="250" xlink:href="#DejaVuSans-30"/>
    </g>
   </g>
   <g id="text_19">
    <!-- 18 Schaffer F7, condition 1000 -->
    <defs>
     <path d="M 54.890625 33.015625 
L 54.890625 0 
L 45.90625 0 
L 45.90625 32.71875 
Q 45.90625 40.484375 42.875 44.328125 
Q 39.84375 48.1875 33.796875 48.1875 
Q 26.515625 48.1875 22.3125 43.546875 
Q 18.109375 38.921875 18.109375 30.90625 
L 18.109375 0 
L 9.078125 0 
L 9.078125 75.984375 
L 18.109375 75.984375 
L 18.109375 46.1875 
Q 21.34375 51.125 25.703125 53.5625 
Q 30.078125 56 35.796875 56 
Q 45.21875 56 50.046875 50.171875 
Q 54.890625 44.34375 54.890625 33.015625 
z
" id="DejaVuSans-68"/>
     <path d="M 8.203125 72.90625 
L 55.078125 72.90625 
L 55.078125 68.703125 
L 28.609375 0 
L 18.3125 0 
L 43.21875 64.59375 
L 8.203125 64.59375 
z
" id="DejaVuSans-37"/>
    </defs>
    <g transform="translate(40.611187 18.84)scale(0.2 -0.2)">
     <use xlink:href="#DejaVuSans-31"/>
     <use x="63.623047" xlink:href="#DejaVuSans-38"/>
     <use x="127.246094" xlink:href="#DejaVuSans-20"/>
     <use x="159.033203" xlink:href="#DejaVuSans-53"/>
     <use x="222.509766" xlink:href="#DejaVuSans-63"/>
     <use x="277.490234" xlink:href="#DejaVuSans-68"/>
     <use x="340.869141" xlink:href="#DejaVuSans-61"/>
     <use x="402.148438" xlink:href="#DejaVuSans-66"/>
     <use x="437.353516" xlink:href="#DejaVuSans-66"/>
     <use x="472.558594" xlink:href="#DejaVuSans-65"/>
     <use x="534.082031" xlink:href="#DejaVuSans-72"/>
     <use x="575.195312" xlink:href="#DejaVuSans-20"/>
     <use x="606.982422" xlink:href="#DejaVuSans-46"/>
     <use x="664.501953" xlink:href="#DejaVuSans-37"/>
     <use x="728.125" xlink:href="#DejaVuSans-2c"/>
     <use x="759.912109" xlink:href="#DejaVuSans-20"/>
     <use x="791.699219" xlink:href="#DejaVuSans-63"/>
     <use x="846.679688" xlink:href="#DejaVuSans-6f"/>
     <use x="907.861328" xlink:href="#DejaVuSans-6e"/>
     <use x="971.240234" xlink:href="#DejaVuSans-64"/>
     <use x="1034.716797" xlink:href="#DejaVuSans-69"/>
     <use x="1062.5" xlink:href="#DejaVuSans-74"/>
     <use x="1101.708984" xlink:href="#DejaVuSans-69"/>
     <use x="1129.492188" xlink:href="#DejaVuSans-6f"/>
     <use x="1190.673828" xlink:href="#DejaVuSans-6e"/>
     <use x="1254.052734" xlink:href="#DejaVuSans-20"/>
     <use x="1285.839844" xlink:href="#DejaVuSans-31"/>
     <use x="1349.462891" xlink:href="#DejaVuSans-30"/>
     <use x="1413.085938" xlink:href="#DejaVuSans-30"/>
     <use x="1476.708984" xlink:href="#DejaVuSans-30"/>
    </g>
   </g>
  </g>
 </g>
 <defs>
  <clipPath id="p39dc3574d7">
   <rect height="270.04" width="277.048" x="56.12" y="24.84"/>
  </clipPath>
 </defs>
</svg>
