<?xml version="1.0" encoding="utf-8" standalone="no"?>
<!DOCTYPE svg PUBLIC "-//W3C//DTD SVG 1.1//EN"
  "http://www.w3.org/Graphics/SVG/1.1/DTD/svg11.dtd">
<!-- Created with matplotlib (http://matplotlib.org/) -->
<svg height="345pt" version="1.1" viewBox="0 0 460 345" width="460pt" xmlns="http://www.w3.org/2000/svg" xmlns:xlink="http://www.w3.org/1999/xlink">
 <defs>
  <style type="text/css">
*{stroke-linecap:butt;stroke-linejoin:round;}
  </style>
 </defs>
 <g id="figure_1">
  <g id="patch_1">
   <path d="M 0 345.6 
L 460.8 345.6 
L 460.8 0 
L 0 0 
z
" style="fill:#ffffff;"/>
  </g>
  <g id="axes_1">
   <g id="patch_2">
    <path d="M 56.12 294.88 
L 333.168 294.88 
L 333.168 24.84 
L 56.12 24.84 
z
" style="fill:#ffffff;"/>
   </g>
   <g id="line2d_1">
    <path d="M 44.205749 294.88 
L 44.205749 268.667614 
L 56.12 268.667614 
L 56.12 263.425137 
L 63.08939 263.425137 
L 63.08939 258.18266 
L 71.869783 258.18266 
L 71.869783 252.940182 
L 79.948502 252.940182 
L 79.948502 247.697705 
L 102.667676 247.697705 
L 102.667676 242.455228 
L 111.788449 242.455228 
L 111.788449 237.212751 
L 117.231566 237.212751 
L 117.231566 231.970274 
L 124.200956 231.970274 
L 124.200956 226.727797 
L 125.463074 226.727797 
L 125.463074 221.485319 
L 129.022601 221.485319 
L 129.022601 216.242842 
L 132.882847 216.242842 
L 132.882847 211.000365 
L 134.213018 211.000365 
L 134.213018 200.515411 
L 135.016789 200.515411 
L 135.016789 195.272933 
L 137.453213 195.272933 
L 137.453213 190.030456 
L 140.812746 190.030456 
L 140.812746 184.787979 
L 141.060069 184.787979 
L 141.060069 174.303025 
L 141.66324 174.303025 
L 141.66324 158.575593 
L 141.84014 158.575593 
L 141.84014 153.333116 
L 142.18857 153.333116 
L 142.18857 142.848162 
L 142.586342 142.848162 
L 142.586342 137.605684 
L 142.642422 137.605684 
L 142.642422 132.363207 
L 143.35529 132.363207 
L 143.35529 127.12073 
L 143.408921 127.12073 
L 143.408921 121.878253 
L 143.462385 121.878253 
L 143.462385 116.635776 
L 143.515683 116.635776 
L 143.515683 111.393298 
L 143.568817 111.393298 
L 143.568817 100.908344 
L 143.621786 100.908344 
L 143.621786 90.42339 
L 143.674593 90.42339 
L 143.674593 79.938435 
L 143.727238 79.938435 
L 143.727238 74.695958 
L 143.779723 74.695958 
L 143.779723 69.453481 
L 143.832047 69.453481 
L 143.832047 58.968526 
L 143.884213 58.968526 
L 143.884213 53.726049 
L 143.936221 53.726049 
L 143.936221 48.483572 
L 143.988072 48.483572 
L 143.988072 32.756141 
L 144.142694 32.756141 
L 144.142694 27.513663 
L 333.168 27.513663 
" style="fill:none;stroke:#f5deb3;stroke-linecap:square;stroke-width:4;"/>
   </g>
   <g id="line2d_2">
    <defs>
     <path d="M -0 7.778175 
L 7.778175 0 
L 0 -7.778175 
L -7.778175 -0 
z
" id="mf809762c68" style="stroke:#f5deb3;stroke-linejoin:miter;stroke-width:1.5;"/>
    </defs>
    <g>
     <use style="fill:#f5deb3;stroke:#f5deb3;stroke-linejoin:miter;stroke-width:1.5;" x="124.200956" xlink:href="#mf809762c68" y="231.970274"/>
     <use style="fill:#f5deb3;stroke:#f5deb3;stroke-linejoin:miter;stroke-width:1.5;" x="143.568817" xlink:href="#mf809762c68" y="111.393298"/>
     <use style="fill:#f5deb3;stroke:#f5deb3;stroke-linejoin:miter;stroke-width:1.5;" x="144.142694" xlink:href="#mf809762c68" y="32.756141"/>
     <use style="fill:#f5deb3;stroke:#f5deb3;stroke-linejoin:miter;stroke-width:1.5;" x="144.142694" xlink:href="#mf809762c68" y="27.513663"/>
     <use style="fill:#f5deb3;stroke:#f5deb3;stroke-linejoin:miter;stroke-width:1.5;" x="144.142694" xlink:href="#mf809762c68" y="27.513663"/>
     <use style="fill:#f5deb3;stroke:#f5deb3;stroke-linejoin:miter;stroke-width:1.5;" x="333.168" xlink:href="#mf809762c68" y="27.513663"/>
    </g>
   </g>
   <g id="line2d_3">
    <path style="fill:none;stroke:#f5deb3;stroke-linecap:square;stroke-width:4;"/>
    <g/>
   </g>
   <g id="line2d_4">
    <path d="M 333.168 27.513663 
L 363.64328 32.86099 
" style="fill:none;stroke:#f5deb3;stroke-linecap:square;stroke-width:4;"/>
    <g>
     <use style="fill:#f5deb3;stroke:#f5deb3;stroke-linejoin:miter;stroke-width:1.5;" x="333.168" xlink:href="#mf809762c68" y="27.513663"/>
     <use style="fill:#f5deb3;stroke:#f5deb3;stroke-linejoin:miter;stroke-width:1.5;" x="363.64328" xlink:href="#mf809762c68" y="32.86099"/>
    </g>
   </g>
   <g id="matplotlib.axis_1">
    <g id="xtick_1">
     <g id="line2d_5">
      <path clip-path="url(#p31f4c2475e)" d="M 56.12 294.88 
L 56.12 24.84 
" style="fill:none;stroke:#b0b0b0;stroke-linecap:square;stroke-width:0.8;"/>
     </g>
     <g id="line2d_6">
      <defs>
       <path d="M 0 0 
L 0 3.5 
" id="m6cff7697aa" style="stroke:#000000;stroke-width:0.8;"/>
      </defs>
      <g>
       <use style="stroke:#000000;stroke-width:0.8;" x="56.12" xlink:href="#m6cff7697aa" y="294.88"/>
      </g>
     </g>
     <g id="text_1">
      <!-- 0 -->
      <defs>
       <path d="M 31.78125 66.40625 
Q 24.171875 66.40625 20.328125 58.90625 
Q 16.5 51.421875 16.5 36.375 
Q 16.5 21.390625 20.328125 13.890625 
Q 24.171875 6.390625 31.78125 6.390625 
Q 39.453125 6.390625 43.28125 13.890625 
Q 47.125 21.390625 47.125 36.375 
Q 47.125 51.421875 43.28125 58.90625 
Q 39.453125 66.40625 31.78125 66.40625 
z
M 31.78125 74.21875 
Q 44.046875 74.21875 50.515625 64.515625 
Q 56.984375 54.828125 56.984375 36.375 
Q 56.984375 17.96875 50.515625 8.265625 
Q 44.046875 -1.421875 31.78125 -1.421875 
Q 19.53125 -1.421875 13.0625 8.265625 
Q 6.59375 17.96875 6.59375 36.375 
Q 6.59375 54.828125 13.0625 64.515625 
Q 19.53125 74.21875 31.78125 74.21875 
z
" id="DejaVuSans-30"/>
      </defs>
      <g transform="translate(49.7575 317.076875)scale(0.2 -0.2)">
       <use xlink:href="#DejaVuSans-30"/>
      </g>
     </g>
    </g>
    <g id="xtick_2">
     <g id="line2d_7">
      <path clip-path="url(#p31f4c2475e)" d="M 135.276571 294.88 
L 135.276571 24.84 
" style="fill:none;stroke:#b0b0b0;stroke-linecap:square;stroke-width:0.8;"/>
     </g>
     <g id="line2d_8">
      <g>
       <use style="stroke:#000000;stroke-width:0.8;" x="135.276571" xlink:href="#m6cff7697aa" y="294.88"/>
      </g>
     </g>
     <g id="text_2">
      <!-- 2 -->
      <defs>
       <path d="M 19.1875 8.296875 
L 53.609375 8.296875 
L 53.609375 0 
L 7.328125 0 
L 7.328125 8.296875 
Q 12.9375 14.109375 22.625 23.890625 
Q 32.328125 33.6875 34.8125 36.53125 
Q 39.546875 41.84375 41.421875 45.53125 
Q 43.3125 49.21875 43.3125 52.78125 
Q 43.3125 58.59375 39.234375 62.25 
Q 35.15625 65.921875 28.609375 65.921875 
Q 23.96875 65.921875 18.8125 64.3125 
Q 13.671875 62.703125 7.8125 59.421875 
L 7.8125 69.390625 
Q 13.765625 71.78125 18.9375 73 
Q 24.125 74.21875 28.421875 74.21875 
Q 39.75 74.21875 46.484375 68.546875 
Q 53.21875 62.890625 53.21875 53.421875 
Q 53.21875 48.921875 51.53125 44.890625 
Q 49.859375 40.875 45.40625 35.40625 
Q 44.1875 33.984375 37.640625 27.21875 
Q 31.109375 20.453125 19.1875 8.296875 
z
" id="DejaVuSans-32"/>
      </defs>
      <g transform="translate(128.914071 317.076875)scale(0.2 -0.2)">
       <use xlink:href="#DejaVuSans-32"/>
      </g>
     </g>
    </g>
    <g id="xtick_3">
     <g id="line2d_9">
      <path clip-path="url(#p31f4c2475e)" d="M 214.433143 294.88 
L 214.433143 24.84 
" style="fill:none;stroke:#b0b0b0;stroke-linecap:square;stroke-width:0.8;"/>
     </g>
     <g id="line2d_10">
      <g>
       <use style="stroke:#000000;stroke-width:0.8;" x="214.433143" xlink:href="#m6cff7697aa" y="294.88"/>
      </g>
     </g>
     <g id="text_3">
      <!-- 4 -->
      <defs>
       <path d="M 37.796875 64.3125 
L 12.890625 25.390625 
L 37.796875 25.390625 
z
M 35.203125 72.90625 
L 47.609375 72.90625 
L 47.609375 25.390625 
L 58.015625 25.390625 
L 58.015625 17.1875 
L 47.609375 17.1875 
L 47.609375 0 
L 37.796875 0 
L 37.796875 17.1875 
L 4.890625 17.1875 
L 4.890625 26.703125 
z
" id="DejaVuSans-34"/>
      </defs>
      <g transform="translate(208.070643 317.076875)scale(0.2 -0.2)">
       <use xlink:href="#DejaVuSans-34"/>
      </g>
     </g>
    </g>
    <g id="xtick_4">
     <g id="line2d_11">
      <path clip-path="url(#p31f4c2475e)" d="M 293.589714 294.88 
L 293.589714 24.84 
" style="fill:none;stroke:#b0b0b0;stroke-linecap:square;stroke-width:0.8;"/>
     </g>
     <g id="line2d_12">
      <g>
       <use style="stroke:#000000;stroke-width:0.8;" x="293.589714" xlink:href="#m6cff7697aa" y="294.88"/>
      </g>
     </g>
     <g id="text_4">
      <!-- 6 -->
      <defs>
       <path d="M 33.015625 40.375 
Q 26.375 40.375 22.484375 35.828125 
Q 18.609375 31.296875 18.609375 23.390625 
Q 18.609375 15.53125 22.484375 10.953125 
Q 26.375 6.390625 33.015625 6.390625 
Q 39.65625 6.390625 43.53125 10.953125 
Q 47.40625 15.53125 47.40625 23.390625 
Q 47.40625 31.296875 43.53125 35.828125 
Q 39.65625 40.375 33.015625 40.375 
z
M 52.59375 71.296875 
L 52.59375 62.3125 
Q 48.875 64.0625 45.09375 64.984375 
Q 41.3125 65.921875 37.59375 65.921875 
Q 27.828125 65.921875 22.671875 59.328125 
Q 17.53125 52.734375 16.796875 39.40625 
Q 19.671875 43.65625 24.015625 45.921875 
Q 28.375 48.1875 33.59375 48.1875 
Q 44.578125 48.1875 50.953125 41.515625 
Q 57.328125 34.859375 57.328125 23.390625 
Q 57.328125 12.15625 50.6875 5.359375 
Q 44.046875 -1.421875 33.015625 -1.421875 
Q 20.359375 -1.421875 13.671875 8.265625 
Q 6.984375 17.96875 6.984375 36.375 
Q 6.984375 53.65625 15.1875 63.9375 
Q 23.390625 74.21875 37.203125 74.21875 
Q 40.921875 74.21875 44.703125 73.484375 
Q 48.484375 72.75 52.59375 71.296875 
z
" id="DejaVuSans-36"/>
      </defs>
      <g transform="translate(287.227214 317.076875)scale(0.2 -0.2)">
       <use xlink:href="#DejaVuSans-36"/>
      </g>
     </g>
    </g>
    <g id="xtick_5">
     <g id="line2d_13">
      <path clip-path="url(#p31f4c2475e)" d="M 56.12 294.88 
L 56.12 24.84 
" style="fill:none;stroke:#b0b0b0;stroke-linecap:square;stroke-width:0.8;"/>
     </g>
     <g id="line2d_14">
      <defs>
       <path d="M 0 0 
L 0 2 
" id="m1d5f93c775" style="stroke:#000000;stroke-width:0.6;"/>
      </defs>
      <g>
       <use style="stroke:#000000;stroke-width:0.6;" x="56.12" xlink:href="#m1d5f93c775" y="294.88"/>
      </g>
     </g>
    </g>
    <g id="xtick_6">
     <g id="line2d_15">
      <path clip-path="url(#p31f4c2475e)" d="M 95.698286 294.88 
L 95.698286 24.84 
" style="fill:none;stroke:#b0b0b0;stroke-linecap:square;stroke-width:0.8;"/>
     </g>
     <g id="line2d_16">
      <g>
       <use style="stroke:#000000;stroke-width:0.6;" x="95.698286" xlink:href="#m1d5f93c775" y="294.88"/>
      </g>
     </g>
    </g>
    <g id="xtick_7">
     <g id="line2d_17">
      <path clip-path="url(#p31f4c2475e)" d="M 135.276571 294.88 
L 135.276571 24.84 
" style="fill:none;stroke:#b0b0b0;stroke-linecap:square;stroke-width:0.8;"/>
     </g>
     <g id="line2d_18">
      <g>
       <use style="stroke:#000000;stroke-width:0.6;" x="135.276571" xlink:href="#m1d5f93c775" y="294.88"/>
      </g>
     </g>
    </g>
    <g id="xtick_8">
     <g id="line2d_19">
      <path clip-path="url(#p31f4c2475e)" d="M 174.854857 294.88 
L 174.854857 24.84 
" style="fill:none;stroke:#b0b0b0;stroke-linecap:square;stroke-width:0.8;"/>
     </g>
     <g id="line2d_20">
      <g>
       <use style="stroke:#000000;stroke-width:0.6;" x="174.854857" xlink:href="#m1d5f93c775" y="294.88"/>
      </g>
     </g>
    </g>
    <g id="xtick_9">
     <g id="line2d_21">
      <path clip-path="url(#p31f4c2475e)" d="M 214.433143 294.88 
L 214.433143 24.84 
" style="fill:none;stroke:#b0b0b0;stroke-linecap:square;stroke-width:0.8;"/>
     </g>
     <g id="line2d_22">
      <g>
       <use style="stroke:#000000;stroke-width:0.6;" x="214.433143" xlink:href="#m1d5f93c775" y="294.88"/>
      </g>
     </g>
    </g>
    <g id="xtick_10">
     <g id="line2d_23">
      <path clip-path="url(#p31f4c2475e)" d="M 254.011429 294.88 
L 254.011429 24.84 
" style="fill:none;stroke:#b0b0b0;stroke-linecap:square;stroke-width:0.8;"/>
     </g>
     <g id="line2d_24">
      <g>
       <use style="stroke:#000000;stroke-width:0.6;" x="254.011429" xlink:href="#m1d5f93c775" y="294.88"/>
      </g>
     </g>
    </g>
    <g id="xtick_11">
     <g id="line2d_25">
      <path clip-path="url(#p31f4c2475e)" d="M 293.589714 294.88 
L 293.589714 24.84 
" style="fill:none;stroke:#b0b0b0;stroke-linecap:square;stroke-width:0.8;"/>
     </g>
     <g id="line2d_26">
      <g>
       <use style="stroke:#000000;stroke-width:0.6;" x="293.589714" xlink:href="#m1d5f93c775" y="294.88"/>
      </g>
     </g>
    </g>
    <g id="xtick_12">
     <g id="line2d_27">
      <path clip-path="url(#p31f4c2475e)" d="M 333.168 294.88 
L 333.168 24.84 
" style="fill:none;stroke:#b0b0b0;stroke-linecap:square;stroke-width:0.8;"/>
     </g>
     <g id="line2d_28">
      <g>
       <use style="stroke:#000000;stroke-width:0.6;" x="333.168" xlink:href="#m1d5f93c775" y="294.88"/>
      </g>
     </g>
    </g>
    <g id="text_5">
     <!-- log10(# f-evals / dimension) -->
     <defs>
      <path d="M 9.421875 75.984375 
L 18.40625 75.984375 
L 18.40625 0 
L 9.421875 0 
z
" id="DejaVuSans-6c"/>
      <path d="M 30.609375 48.390625 
Q 23.390625 48.390625 19.1875 42.75 
Q 14.984375 37.109375 14.984375 27.296875 
Q 14.984375 17.484375 19.15625 11.84375 
Q 23.34375 6.203125 30.609375 6.203125 
Q 37.796875 6.203125 41.984375 11.859375 
Q 46.1875 17.53125 46.1875 27.296875 
Q 46.1875 37.015625 41.984375 42.703125 
Q 37.796875 48.390625 30.609375 48.390625 
z
M 30.609375 56 
Q 42.328125 56 49.015625 48.375 
Q 55.71875 40.765625 55.71875 27.296875 
Q 55.71875 13.875 49.015625 6.21875 
Q 42.328125 -1.421875 30.609375 -1.421875 
Q 18.84375 -1.421875 12.171875 6.21875 
Q 5.515625 13.875 5.515625 27.296875 
Q 5.515625 40.765625 12.171875 48.375 
Q 18.84375 56 30.609375 56 
z
" id="DejaVuSans-6f"/>
      <path d="M 45.40625 27.984375 
Q 45.40625 37.75 41.375 43.109375 
Q 37.359375 48.484375 30.078125 48.484375 
Q 22.859375 48.484375 18.828125 43.109375 
Q 14.796875 37.75 14.796875 27.984375 
Q 14.796875 18.265625 18.828125 12.890625 
Q 22.859375 7.515625 30.078125 7.515625 
Q 37.359375 7.515625 41.375 12.890625 
Q 45.40625 18.265625 45.40625 27.984375 
z
M 54.390625 6.78125 
Q 54.390625 -7.171875 48.1875 -13.984375 
Q 42 -20.796875 29.203125 -20.796875 
Q 24.46875 -20.796875 20.265625 -20.09375 
Q 16.0625 -19.390625 12.109375 -17.921875 
L 12.109375 -9.1875 
Q 16.0625 -11.328125 19.921875 -12.34375 
Q 23.78125 -13.375 27.78125 -13.375 
Q 36.625 -13.375 41.015625 -8.765625 
Q 45.40625 -4.15625 45.40625 5.171875 
L 45.40625 9.625 
Q 42.625 4.78125 38.28125 2.390625 
Q 33.9375 0 27.875 0 
Q 17.828125 0 11.671875 7.65625 
Q 5.515625 15.328125 5.515625 27.984375 
Q 5.515625 40.671875 11.671875 48.328125 
Q 17.828125 56 27.875 56 
Q 33.9375 56 38.28125 53.609375 
Q 42.625 51.21875 45.40625 46.390625 
L 45.40625 54.6875 
L 54.390625 54.6875 
z
" id="DejaVuSans-67"/>
      <path d="M 12.40625 8.296875 
L 28.515625 8.296875 
L 28.515625 63.921875 
L 10.984375 60.40625 
L 10.984375 69.390625 
L 28.421875 72.90625 
L 38.28125 72.90625 
L 38.28125 8.296875 
L 54.390625 8.296875 
L 54.390625 0 
L 12.40625 0 
z
" id="DejaVuSans-31"/>
      <path d="M 31 75.875 
Q 24.46875 64.65625 21.28125 53.65625 
Q 18.109375 42.671875 18.109375 31.390625 
Q 18.109375 20.125 21.3125 9.0625 
Q 24.515625 -2 31 -13.1875 
L 23.1875 -13.1875 
Q 15.875 -1.703125 12.234375 9.375 
Q 8.59375 20.453125 8.59375 31.390625 
Q 8.59375 42.28125 12.203125 53.3125 
Q 15.828125 64.359375 23.1875 75.875 
z
" id="DejaVuSans-28"/>
      <path d="M 51.125 44 
L 36.921875 44 
L 32.8125 27.6875 
L 47.125 27.6875 
z
M 43.796875 71.78125 
L 38.71875 51.515625 
L 52.984375 51.515625 
L 58.109375 71.78125 
L 65.921875 71.78125 
L 60.890625 51.515625 
L 76.125 51.515625 
L 76.125 44 
L 58.984375 44 
L 54.984375 27.6875 
L 70.515625 27.6875 
L 70.515625 20.21875 
L 53.078125 20.21875 
L 48 0 
L 40.1875 0 
L 45.21875 20.21875 
L 30.90625 20.21875 
L 25.875 0 
L 18.015625 0 
L 23.09375 20.21875 
L 7.71875 20.21875 
L 7.71875 27.6875 
L 24.90625 27.6875 
L 29 44 
L 13.28125 44 
L 13.28125 51.515625 
L 30.90625 51.515625 
L 35.890625 71.78125 
z
" id="DejaVuSans-23"/>
      <path id="DejaVuSans-20"/>
      <path d="M 37.109375 75.984375 
L 37.109375 68.5 
L 28.515625 68.5 
Q 23.6875 68.5 21.796875 66.546875 
Q 19.921875 64.59375 19.921875 59.515625 
L 19.921875 54.6875 
L 34.71875 54.6875 
L 34.71875 47.703125 
L 19.921875 47.703125 
L 19.921875 0 
L 10.890625 0 
L 10.890625 47.703125 
L 2.296875 47.703125 
L 2.296875 54.6875 
L 10.890625 54.6875 
L 10.890625 58.5 
Q 10.890625 67.625 15.140625 71.796875 
Q 19.390625 75.984375 28.609375 75.984375 
z
" id="DejaVuSans-66"/>
      <path d="M 4.890625 31.390625 
L 31.203125 31.390625 
L 31.203125 23.390625 
L 4.890625 23.390625 
z
" id="DejaVuSans-2d"/>
      <path d="M 56.203125 29.59375 
L 56.203125 25.203125 
L 14.890625 25.203125 
Q 15.484375 15.921875 20.484375 11.0625 
Q 25.484375 6.203125 34.421875 6.203125 
Q 39.59375 6.203125 44.453125 7.46875 
Q 49.3125 8.734375 54.109375 11.28125 
L 54.109375 2.78125 
Q 49.265625 0.734375 44.1875 -0.34375 
Q 39.109375 -1.421875 33.890625 -1.421875 
Q 20.796875 -1.421875 13.15625 6.1875 
Q 5.515625 13.8125 5.515625 26.8125 
Q 5.515625 40.234375 12.765625 48.109375 
Q 20.015625 56 32.328125 56 
Q 43.359375 56 49.78125 48.890625 
Q 56.203125 41.796875 56.203125 29.59375 
z
M 47.21875 32.234375 
Q 47.125 39.59375 43.09375 43.984375 
Q 39.0625 48.390625 32.421875 48.390625 
Q 24.90625 48.390625 20.390625 44.140625 
Q 15.875 39.890625 15.1875 32.171875 
z
" id="DejaVuSans-65"/>
      <path d="M 2.984375 54.6875 
L 12.5 54.6875 
L 29.59375 8.796875 
L 46.6875 54.6875 
L 56.203125 54.6875 
L 35.6875 0 
L 23.484375 0 
z
" id="DejaVuSans-76"/>
      <path d="M 34.28125 27.484375 
Q 23.390625 27.484375 19.1875 25 
Q 14.984375 22.515625 14.984375 16.5 
Q 14.984375 11.71875 18.140625 8.90625 
Q 21.296875 6.109375 26.703125 6.109375 
Q 34.1875 6.109375 38.703125 11.40625 
Q 43.21875 16.703125 43.21875 25.484375 
L 43.21875 27.484375 
z
M 52.203125 31.203125 
L 52.203125 0 
L 43.21875 0 
L 43.21875 8.296875 
Q 40.140625 3.328125 35.546875 0.953125 
Q 30.953125 -1.421875 24.3125 -1.421875 
Q 15.921875 -1.421875 10.953125 3.296875 
Q 6 8.015625 6 15.921875 
Q 6 25.140625 12.171875 29.828125 
Q 18.359375 34.515625 30.609375 34.515625 
L 43.21875 34.515625 
L 43.21875 35.40625 
Q 43.21875 41.609375 39.140625 45 
Q 35.0625 48.390625 27.6875 48.390625 
Q 23 48.390625 18.546875 47.265625 
Q 14.109375 46.140625 10.015625 43.890625 
L 10.015625 52.203125 
Q 14.9375 54.109375 19.578125 55.046875 
Q 24.21875 56 28.609375 56 
Q 40.484375 56 46.34375 49.84375 
Q 52.203125 43.703125 52.203125 31.203125 
z
" id="DejaVuSans-61"/>
      <path d="M 44.28125 53.078125 
L 44.28125 44.578125 
Q 40.484375 46.53125 36.375 47.5 
Q 32.28125 48.484375 27.875 48.484375 
Q 21.1875 48.484375 17.84375 46.4375 
Q 14.5 44.390625 14.5 40.28125 
Q 14.5 37.15625 16.890625 35.375 
Q 19.28125 33.59375 26.515625 31.984375 
L 29.59375 31.296875 
Q 39.15625 29.25 43.1875 25.515625 
Q 47.21875 21.78125 47.21875 15.09375 
Q 47.21875 7.46875 41.1875 3.015625 
Q 35.15625 -1.421875 24.609375 -1.421875 
Q 20.21875 -1.421875 15.453125 -0.5625 
Q 10.6875 0.296875 5.421875 2 
L 5.421875 11.28125 
Q 10.40625 8.6875 15.234375 7.390625 
Q 20.0625 6.109375 24.8125 6.109375 
Q 31.15625 6.109375 34.5625 8.28125 
Q 37.984375 10.453125 37.984375 14.40625 
Q 37.984375 18.0625 35.515625 20.015625 
Q 33.0625 21.96875 24.703125 23.78125 
L 21.578125 24.515625 
Q 13.234375 26.265625 9.515625 29.90625 
Q 5.8125 33.546875 5.8125 39.890625 
Q 5.8125 47.609375 11.28125 51.796875 
Q 16.75 56 26.8125 56 
Q 31.78125 56 36.171875 55.265625 
Q 40.578125 54.546875 44.28125 53.078125 
z
" id="DejaVuSans-73"/>
      <path d="M 25.390625 72.90625 
L 33.6875 72.90625 
L 8.296875 -9.28125 
L 0 -9.28125 
z
" id="DejaVuSans-2f"/>
      <path d="M 45.40625 46.390625 
L 45.40625 75.984375 
L 54.390625 75.984375 
L 54.390625 0 
L 45.40625 0 
L 45.40625 8.203125 
Q 42.578125 3.328125 38.25 0.953125 
Q 33.9375 -1.421875 27.875 -1.421875 
Q 17.96875 -1.421875 11.734375 6.484375 
Q 5.515625 14.40625 5.515625 27.296875 
Q 5.515625 40.1875 11.734375 48.09375 
Q 17.96875 56 27.875 56 
Q 33.9375 56 38.25 53.625 
Q 42.578125 51.265625 45.40625 46.390625 
z
M 14.796875 27.296875 
Q 14.796875 17.390625 18.875 11.75 
Q 22.953125 6.109375 30.078125 6.109375 
Q 37.203125 6.109375 41.296875 11.75 
Q 45.40625 17.390625 45.40625 27.296875 
Q 45.40625 37.203125 41.296875 42.84375 
Q 37.203125 48.484375 30.078125 48.484375 
Q 22.953125 48.484375 18.875 42.84375 
Q 14.796875 37.203125 14.796875 27.296875 
z
" id="DejaVuSans-64"/>
      <path d="M 9.421875 54.6875 
L 18.40625 54.6875 
L 18.40625 0 
L 9.421875 0 
z
M 9.421875 75.984375 
L 18.40625 75.984375 
L 18.40625 64.59375 
L 9.421875 64.59375 
z
" id="DejaVuSans-69"/>
      <path d="M 52 44.1875 
Q 55.375 50.25 60.0625 53.125 
Q 64.75 56 71.09375 56 
Q 79.640625 56 84.28125 50.015625 
Q 88.921875 44.046875 88.921875 33.015625 
L 88.921875 0 
L 79.890625 0 
L 79.890625 32.71875 
Q 79.890625 40.578125 77.09375 44.375 
Q 74.3125 48.1875 68.609375 48.1875 
Q 61.625 48.1875 57.5625 43.546875 
Q 53.515625 38.921875 53.515625 30.90625 
L 53.515625 0 
L 44.484375 0 
L 44.484375 32.71875 
Q 44.484375 40.625 41.703125 44.40625 
Q 38.921875 48.1875 33.109375 48.1875 
Q 26.21875 48.1875 22.15625 43.53125 
Q 18.109375 38.875 18.109375 30.90625 
L 18.109375 0 
L 9.078125 0 
L 9.078125 54.6875 
L 18.109375 54.6875 
L 18.109375 46.1875 
Q 21.1875 51.21875 25.484375 53.609375 
Q 29.78125 56 35.6875 56 
Q 41.65625 56 45.828125 52.96875 
Q 50 49.953125 52 44.1875 
z
" id="DejaVuSans-6d"/>
      <path d="M 54.890625 33.015625 
L 54.890625 0 
L 45.90625 0 
L 45.90625 32.71875 
Q 45.90625 40.484375 42.875 44.328125 
Q 39.84375 48.1875 33.796875 48.1875 
Q 26.515625 48.1875 22.3125 43.546875 
Q 18.109375 38.921875 18.109375 30.90625 
L 18.109375 0 
L 9.078125 0 
L 9.078125 54.6875 
L 18.109375 54.6875 
L 18.109375 46.1875 
Q 21.34375 51.125 25.703125 53.5625 
Q 30.078125 56 35.796875 56 
Q 45.21875 56 50.046875 50.171875 
Q 54.890625 44.34375 54.890625 33.015625 
z
" id="DejaVuSans-6e"/>
      <path d="M 8.015625 75.875 
L 15.828125 75.875 
Q 23.140625 64.359375 26.78125 53.3125 
Q 30.421875 42.28125 30.421875 31.390625 
Q 30.421875 20.453125 26.78125 9.375 
Q 23.140625 -1.703125 15.828125 -13.1875 
L 8.015625 -13.1875 
Q 14.5 -2 17.703125 9.0625 
Q 20.90625 20.125 20.90625 31.390625 
Q 20.90625 42.671875 17.703125 53.65625 
Q 14.5 64.65625 8.015625 75.875 
z
" id="DejaVuSans-29"/>
     </defs>
     <g transform="translate(73.803219 338.153594)scale(0.17 -0.17)">
      <use xlink:href="#DejaVuSans-6c"/>
      <use x="27.783203" xlink:href="#DejaVuSans-6f"/>
      <use x="88.964844" xlink:href="#DejaVuSans-67"/>
      <use x="152.441406" xlink:href="#DejaVuSans-31"/>
      <use x="216.064453" xlink:href="#DejaVuSans-30"/>
      <use x="279.6875" xlink:href="#DejaVuSans-28"/>
      <use x="318.701172" xlink:href="#DejaVuSans-23"/>
      <use x="402.490234" xlink:href="#DejaVuSans-20"/>
      <use x="434.277344" xlink:href="#DejaVuSans-66"/>
      <use x="469.404297" xlink:href="#DejaVuSans-2d"/>
      <use x="505.488281" xlink:href="#DejaVuSans-65"/>
      <use x="567.011719" xlink:href="#DejaVuSans-76"/>
      <use x="626.191406" xlink:href="#DejaVuSans-61"/>
      <use x="687.470703" xlink:href="#DejaVuSans-6c"/>
      <use x="715.253906" xlink:href="#DejaVuSans-73"/>
      <use x="767.353516" xlink:href="#DejaVuSans-20"/>
      <use x="799.140625" xlink:href="#DejaVuSans-2f"/>
      <use x="832.832031" xlink:href="#DejaVuSans-20"/>
      <use x="864.619141" xlink:href="#DejaVuSans-64"/>
      <use x="928.095703" xlink:href="#DejaVuSans-69"/>
      <use x="955.878906" xlink:href="#DejaVuSans-6d"/>
      <use x="1053.291016" xlink:href="#DejaVuSans-65"/>
      <use x="1114.814453" xlink:href="#DejaVuSans-6e"/>
      <use x="1178.193359" xlink:href="#DejaVuSans-73"/>
      <use x="1230.292969" xlink:href="#DejaVuSans-69"/>
      <use x="1258.076172" xlink:href="#DejaVuSans-6f"/>
      <use x="1319.257812" xlink:href="#DejaVuSans-6e"/>
      <use x="1382.636719" xlink:href="#DejaVuSans-29"/>
     </g>
    </g>
   </g>
   <g id="matplotlib.axis_2">
    <g id="ytick_1">
     <g id="line2d_29">
      <path clip-path="url(#p31f4c2475e)" d="M 56.12 294.88 
L 333.168 294.88 
" style="fill:none;stroke:#b0b0b0;stroke-linecap:square;stroke-width:0.8;"/>
     </g>
     <g id="line2d_30">
      <defs>
       <path d="M 0 0 
L -3.5 0 
" id="mc4e3b6834d" style="stroke:#000000;stroke-width:0.8;"/>
      </defs>
      <g>
       <use style="stroke:#000000;stroke-width:0.8;" x="56.12" xlink:href="#mc4e3b6834d" y="294.88"/>
      </g>
     </g>
     <g id="text_6">
      <!-- 0.0 -->
      <defs>
       <path d="M 10.6875 12.40625 
L 21 12.40625 
L 21 0 
L 10.6875 0 
z
" id="DejaVuSans-2e"/>
      </defs>
      <g transform="translate(23.675 300.95875)scale(0.16 -0.16)">
       <use xlink:href="#DejaVuSans-30"/>
       <use x="63.623047" xlink:href="#DejaVuSans-2e"/>
       <use x="95.410156" xlink:href="#DejaVuSans-30"/>
      </g>
     </g>
    </g>
    <g id="ytick_2">
     <g id="line2d_31">
      <path clip-path="url(#p31f4c2475e)" d="M 56.12 241.406733 
L 333.168 241.406733 
" style="fill:none;stroke:#b0b0b0;stroke-linecap:square;stroke-width:0.8;"/>
     </g>
     <g id="line2d_32">
      <g>
       <use style="stroke:#000000;stroke-width:0.8;" x="56.12" xlink:href="#mc4e3b6834d" y="241.406733"/>
      </g>
     </g>
     <g id="text_7">
      <!-- 0.2 -->
      <g transform="translate(23.675 247.485483)scale(0.16 -0.16)">
       <use xlink:href="#DejaVuSans-30"/>
       <use x="63.623047" xlink:href="#DejaVuSans-2e"/>
       <use x="95.410156" xlink:href="#DejaVuSans-32"/>
      </g>
     </g>
    </g>
    <g id="ytick_3">
     <g id="line2d_33">
      <path clip-path="url(#p31f4c2475e)" d="M 56.12 187.933465 
L 333.168 187.933465 
" style="fill:none;stroke:#b0b0b0;stroke-linecap:square;stroke-width:0.8;"/>
     </g>
     <g id="line2d_34">
      <g>
       <use style="stroke:#000000;stroke-width:0.8;" x="56.12" xlink:href="#mc4e3b6834d" y="187.933465"/>
      </g>
     </g>
     <g id="text_8">
      <!-- 0.4 -->
      <g transform="translate(23.675 194.012215)scale(0.16 -0.16)">
       <use xlink:href="#DejaVuSans-30"/>
       <use x="63.623047" xlink:href="#DejaVuSans-2e"/>
       <use x="95.410156" xlink:href="#DejaVuSans-34"/>
      </g>
     </g>
    </g>
    <g id="ytick_4">
     <g id="line2d_35">
      <path clip-path="url(#p31f4c2475e)" d="M 56.12 134.460198 
L 333.168 134.460198 
" style="fill:none;stroke:#b0b0b0;stroke-linecap:square;stroke-width:0.8;"/>
     </g>
     <g id="line2d_36">
      <g>
       <use style="stroke:#000000;stroke-width:0.8;" x="56.12" xlink:href="#mc4e3b6834d" y="134.460198"/>
      </g>
     </g>
     <g id="text_9">
      <!-- 0.6 -->
      <g transform="translate(23.675 140.538948)scale(0.16 -0.16)">
       <use xlink:href="#DejaVuSans-30"/>
       <use x="63.623047" xlink:href="#DejaVuSans-2e"/>
       <use x="95.410156" xlink:href="#DejaVuSans-36"/>
      </g>
     </g>
    </g>
    <g id="ytick_5">
     <g id="line2d_37">
      <path clip-path="url(#p31f4c2475e)" d="M 56.12 80.986931 
L 333.168 80.986931 
" style="fill:none;stroke:#b0b0b0;stroke-linecap:square;stroke-width:0.8;"/>
     </g>
     <g id="line2d_38">
      <g>
       <use style="stroke:#000000;stroke-width:0.8;" x="56.12" xlink:href="#mc4e3b6834d" y="80.986931"/>
      </g>
     </g>
     <g id="text_10">
      <!-- 0.8 -->
      <defs>
       <path d="M 31.78125 34.625 
Q 24.75 34.625 20.71875 30.859375 
Q 16.703125 27.09375 16.703125 20.515625 
Q 16.703125 13.921875 20.71875 10.15625 
Q 24.75 6.390625 31.78125 6.390625 
Q 38.8125 6.390625 42.859375 10.171875 
Q 46.921875 13.96875 46.921875 20.515625 
Q 46.921875 27.09375 42.890625 30.859375 
Q 38.875 34.625 31.78125 34.625 
z
M 21.921875 38.8125 
Q 15.578125 40.375 12.03125 44.71875 
Q 8.5 49.078125 8.5 55.328125 
Q 8.5 64.0625 14.71875 69.140625 
Q 20.953125 74.21875 31.78125 74.21875 
Q 42.671875 74.21875 48.875 69.140625 
Q 55.078125 64.0625 55.078125 55.328125 
Q 55.078125 49.078125 51.53125 44.71875 
Q 48 40.375 41.703125 38.8125 
Q 48.828125 37.15625 52.796875 32.3125 
Q 56.78125 27.484375 56.78125 20.515625 
Q 56.78125 9.90625 50.3125 4.234375 
Q 43.84375 -1.421875 31.78125 -1.421875 
Q 19.734375 -1.421875 13.25 4.234375 
Q 6.78125 9.90625 6.78125 20.515625 
Q 6.78125 27.484375 10.78125 32.3125 
Q 14.796875 37.15625 21.921875 38.8125 
z
M 18.3125 54.390625 
Q 18.3125 48.734375 21.84375 45.5625 
Q 25.390625 42.390625 31.78125 42.390625 
Q 38.140625 42.390625 41.71875 45.5625 
Q 45.3125 48.734375 45.3125 54.390625 
Q 45.3125 60.0625 41.71875 63.234375 
Q 38.140625 66.40625 31.78125 66.40625 
Q 25.390625 66.40625 21.84375 63.234375 
Q 18.3125 60.0625 18.3125 54.390625 
z
" id="DejaVuSans-38"/>
      </defs>
      <g transform="translate(23.675 87.065681)scale(0.16 -0.16)">
       <use xlink:href="#DejaVuSans-30"/>
       <use x="63.623047" xlink:href="#DejaVuSans-2e"/>
       <use x="95.410156" xlink:href="#DejaVuSans-38"/>
      </g>
     </g>
    </g>
    <g id="ytick_6">
     <g id="line2d_39">
      <path clip-path="url(#p31f4c2475e)" d="M 56.12 27.513663 
L 333.168 27.513663 
" style="fill:none;stroke:#b0b0b0;stroke-linecap:square;stroke-width:0.8;"/>
     </g>
     <g id="line2d_40">
      <g>
       <use style="stroke:#000000;stroke-width:0.8;" x="56.12" xlink:href="#mc4e3b6834d" y="27.513663"/>
      </g>
     </g>
     <g id="text_11">
      <!-- 1.0 -->
      <g transform="translate(23.675 33.592413)scale(0.16 -0.16)">
       <use xlink:href="#DejaVuSans-31"/>
       <use x="63.623047" xlink:href="#DejaVuSans-2e"/>
       <use x="95.410156" xlink:href="#DejaVuSans-30"/>
      </g>
     </g>
    </g>
    <g id="text_12">
     <!-- Fraction of function,target pairs -->
     <defs>
      <path d="M 9.8125 72.90625 
L 51.703125 72.90625 
L 51.703125 64.59375 
L 19.671875 64.59375 
L 19.671875 43.109375 
L 48.578125 43.109375 
L 48.578125 34.8125 
L 19.671875 34.8125 
L 19.671875 0 
L 9.8125 0 
z
" id="DejaVuSans-46"/>
      <path d="M 41.109375 46.296875 
Q 39.59375 47.171875 37.8125 47.578125 
Q 36.03125 48 33.890625 48 
Q 26.265625 48 22.1875 43.046875 
Q 18.109375 38.09375 18.109375 28.8125 
L 18.109375 0 
L 9.078125 0 
L 9.078125 54.6875 
L 18.109375 54.6875 
L 18.109375 46.1875 
Q 20.953125 51.171875 25.484375 53.578125 
Q 30.03125 56 36.53125 56 
Q 37.453125 56 38.578125 55.875 
Q 39.703125 55.765625 41.0625 55.515625 
z
" id="DejaVuSans-72"/>
      <path d="M 48.78125 52.59375 
L 48.78125 44.1875 
Q 44.96875 46.296875 41.140625 47.34375 
Q 37.3125 48.390625 33.40625 48.390625 
Q 24.65625 48.390625 19.8125 42.84375 
Q 14.984375 37.3125 14.984375 27.296875 
Q 14.984375 17.28125 19.8125 11.734375 
Q 24.65625 6.203125 33.40625 6.203125 
Q 37.3125 6.203125 41.140625 7.25 
Q 44.96875 8.296875 48.78125 10.40625 
L 48.78125 2.09375 
Q 45.015625 0.34375 40.984375 -0.53125 
Q 36.96875 -1.421875 32.421875 -1.421875 
Q 20.0625 -1.421875 12.78125 6.34375 
Q 5.515625 14.109375 5.515625 27.296875 
Q 5.515625 40.671875 12.859375 48.328125 
Q 20.21875 56 33.015625 56 
Q 37.15625 56 41.109375 55.140625 
Q 45.0625 54.296875 48.78125 52.59375 
z
" id="DejaVuSans-63"/>
      <path d="M 18.3125 70.21875 
L 18.3125 54.6875 
L 36.8125 54.6875 
L 36.8125 47.703125 
L 18.3125 47.703125 
L 18.3125 18.015625 
Q 18.3125 11.328125 20.140625 9.421875 
Q 21.96875 7.515625 27.59375 7.515625 
L 36.8125 7.515625 
L 36.8125 0 
L 27.59375 0 
Q 17.1875 0 13.234375 3.875 
Q 9.28125 7.765625 9.28125 18.015625 
L 9.28125 47.703125 
L 2.6875 47.703125 
L 2.6875 54.6875 
L 9.28125 54.6875 
L 9.28125 70.21875 
z
" id="DejaVuSans-74"/>
      <path d="M 8.5 21.578125 
L 8.5 54.6875 
L 17.484375 54.6875 
L 17.484375 21.921875 
Q 17.484375 14.15625 20.5 10.265625 
Q 23.53125 6.390625 29.59375 6.390625 
Q 36.859375 6.390625 41.078125 11.03125 
Q 45.3125 15.671875 45.3125 23.6875 
L 45.3125 54.6875 
L 54.296875 54.6875 
L 54.296875 0 
L 45.3125 0 
L 45.3125 8.40625 
Q 42.046875 3.421875 37.71875 1 
Q 33.40625 -1.421875 27.6875 -1.421875 
Q 18.265625 -1.421875 13.375 4.4375 
Q 8.5 10.296875 8.5 21.578125 
z
M 31.109375 56 
z
" id="DejaVuSans-75"/>
      <path d="M 11.71875 12.40625 
L 22.015625 12.40625 
L 22.015625 4 
L 14.015625 -11.625 
L 7.71875 -11.625 
L 11.71875 4 
z
" id="DejaVuSans-2c"/>
      <path d="M 18.109375 8.203125 
L 18.109375 -20.796875 
L 9.078125 -20.796875 
L 9.078125 54.6875 
L 18.109375 54.6875 
L 18.109375 46.390625 
Q 20.953125 51.265625 25.265625 53.625 
Q 29.59375 56 35.59375 56 
Q 45.5625 56 51.78125 48.09375 
Q 58.015625 40.1875 58.015625 27.296875 
Q 58.015625 14.40625 51.78125 6.484375 
Q 45.5625 -1.421875 35.59375 -1.421875 
Q 29.59375 -1.421875 25.265625 0.953125 
Q 20.953125 3.328125 18.109375 8.203125 
z
M 48.6875 27.296875 
Q 48.6875 37.203125 44.609375 42.84375 
Q 40.53125 48.484375 33.40625 48.484375 
Q 26.265625 48.484375 22.1875 42.84375 
Q 18.109375 37.203125 18.109375 27.296875 
Q 18.109375 17.390625 22.1875 11.75 
Q 26.265625 6.109375 33.40625 6.109375 
Q 40.53125 6.109375 44.609375 11.75 
Q 48.6875 17.390625 48.6875 27.296875 
z
" id="DejaVuSans-70"/>
     </defs>
     <g transform="translate(16.139531 294.999375)rotate(-90)scale(0.17 -0.17)">
      <use xlink:href="#DejaVuSans-46"/>
      <use x="57.410156" xlink:href="#DejaVuSans-72"/>
      <use x="98.523438" xlink:href="#DejaVuSans-61"/>
      <use x="159.802734" xlink:href="#DejaVuSans-63"/>
      <use x="214.783203" xlink:href="#DejaVuSans-74"/>
      <use x="253.992188" xlink:href="#DejaVuSans-69"/>
      <use x="281.775391" xlink:href="#DejaVuSans-6f"/>
      <use x="342.957031" xlink:href="#DejaVuSans-6e"/>
      <use x="406.335938" xlink:href="#DejaVuSans-20"/>
      <use x="438.123047" xlink:href="#DejaVuSans-6f"/>
      <use x="499.304688" xlink:href="#DejaVuSans-66"/>
      <use x="534.509766" xlink:href="#DejaVuSans-20"/>
      <use x="566.296875" xlink:href="#DejaVuSans-66"/>
      <use x="601.501953" xlink:href="#DejaVuSans-75"/>
      <use x="664.880859" xlink:href="#DejaVuSans-6e"/>
      <use x="728.259766" xlink:href="#DejaVuSans-63"/>
      <use x="783.240234" xlink:href="#DejaVuSans-74"/>
      <use x="822.449219" xlink:href="#DejaVuSans-69"/>
      <use x="850.232422" xlink:href="#DejaVuSans-6f"/>
      <use x="911.414062" xlink:href="#DejaVuSans-6e"/>
      <use x="974.792969" xlink:href="#DejaVuSans-2c"/>
      <use x="1006.580078" xlink:href="#DejaVuSans-74"/>
      <use x="1045.789062" xlink:href="#DejaVuSans-61"/>
      <use x="1107.068359" xlink:href="#DejaVuSans-72"/>
      <use x="1148.166016" xlink:href="#DejaVuSans-67"/>
      <use x="1211.642578" xlink:href="#DejaVuSans-65"/>
      <use x="1273.166016" xlink:href="#DejaVuSans-74"/>
      <use x="1312.375" xlink:href="#DejaVuSans-20"/>
      <use x="1344.162109" xlink:href="#DejaVuSans-70"/>
      <use x="1407.638672" xlink:href="#DejaVuSans-61"/>
      <use x="1468.917969" xlink:href="#DejaVuSans-69"/>
      <use x="1496.701172" xlink:href="#DejaVuSans-72"/>
      <use x="1537.814453" xlink:href="#DejaVuSans-73"/>
     </g>
    </g>
   </g>
   <g id="line2d_41">
    <defs>
     <path d="M 0 1.5 
C 0.397805 1.5 0.77937 1.341951 1.06066 1.06066 
C 1.341951 0.77937 1.5 0.397805 1.5 0 
C 1.5 -0.397805 1.341951 -0.77937 1.06066 -1.06066 
C 0.77937 -1.341951 0.397805 -1.5 0 -1.5 
C -0.397805 -1.5 -0.77937 -1.341951 -1.06066 -1.06066 
C -1.341951 -0.77937 -1.5 -0.397805 -1.5 0 
C -1.5 0.397805 -1.341951 0.77937 -1.06066 1.06066 
C -0.77937 1.341951 -0.397805 1.5 0 1.5 
z
" id="m7dc8f6990c" style="stroke:#f5deb3;"/>
    </defs>
    <g>
     <use style="fill:#f5deb3;stroke:#f5deb3;" x="144.142694" xlink:href="#m7dc8f6990c" y="27.513663"/>
     <use style="fill:#f5deb3;stroke:#f5deb3;" x="144.142694" xlink:href="#m7dc8f6990c" y="27.513663"/>
    </g>
   </g>
   <g id="line2d_42">
    <defs>
     <path d="M 0 1.5 
C 0.397805 1.5 0.77937 1.341951 1.06066 1.06066 
C 1.341951 0.77937 1.5 0.397805 1.5 0 
C 1.5 -0.397805 1.341951 -0.77937 1.06066 -1.06066 
C 0.77937 -1.341951 0.397805 -1.5 0 -1.5 
C -0.397805 -1.5 -0.77937 -1.341951 -1.06066 -1.06066 
C -1.341951 -0.77937 -1.5 -0.397805 -1.5 0 
C -1.5 0.397805 -1.341951 0.77937 -1.06066 1.06066 
C -0.77937 1.341951 -0.397805 1.5 0 1.5 
z
" id="m77a7ed4073" style="stroke:#000080;"/>
    </defs>
    <g>
     <use style="fill:#000080;stroke:#000080;" x="248.371457" xlink:href="#m77a7ed4073" y="85.180912"/>
     <use style="fill:#000080;stroke:#000080;" x="248.371457" xlink:href="#m77a7ed4073" y="85.180912"/>
    </g>
   </g>
   <g id="line2d_43">
    <path d="M 44.205749 294.88 
L 44.205749 267.619119 
L 56.12 267.619119 
L 56.12 261.852394 
L 63.08939 261.852394 
L 63.08939 258.706907 
L 68.034251 258.706907 
L 68.034251 257.134164 
L 71.869783 257.134164 
L 71.869783 253.988678 
L 75.003641 253.988678 
L 75.003641 252.415935 
L 79.948502 252.415935 
L 79.948502 251.891687 
L 81.973032 251.891687 
L 81.973032 249.794696 
L 86.917893 249.794696 
L 86.917893 247.173458 
L 88.293717 247.173458 
L 88.293717 246.124962 
L 94.816624 246.124962 
L 94.816624 245.600714 
L 100.856673 245.600714 
L 100.856673 245.076467 
L 117.715785 245.076467 
L 117.715785 242.979476 
L 119.526788 242.979476 
L 119.526788 242.455228 
L 121.16504 242.455228 
L 121.16504 241.93098 
L 122.660646 241.93098 
L 122.660646 240.882485 
L 124.200956 240.882485 
L 124.200956 240.358237 
L 125.463074 240.358237 
L 125.463074 236.164255 
L 126.496178 236.164255 
L 126.496178 235.640008 
L 131.441039 235.640008 
L 131.441039 235.11576 
L 142.015238 235.11576 
L 142.015238 234.591512 
L 142.360172 234.591512 
L 142.360172 230.921778 
L 143.193387 230.921778 
L 143.193387 227.776292 
L 144.698028 227.776292 
L 144.698028 227.252044 
L 148.192385 227.252044 
L 148.192385 223.058063 
L 155.296378 223.058063 
L 155.296378 219.388328 
L 163.68074 219.388328 
L 163.68074 216.242842 
L 164.071407 216.242842 
L 164.071407 212.573108 
L 164.687893 212.573108 
L 164.687893 212.04886 
L 168.124439 212.04886 
L 168.124439 208.903374 
L 168.38937 208.903374 
L 168.47678 206.806383 
L 168.674922 206.806383 
L 168.674922 206.282136 
L 169.208322 206.282136 
L 169.30355 205.23364 
L 169.492438 205.23364 
L 169.597782 204.185145 
L 169.632754 204.185145 
L 169.690883 202.612401 
L 169.875584 202.612401 
L 169.875584 201.563906 
L 171.755342 201.563906 
L 171.837486 199.466915 
L 172.202353 199.466915 
L 172.202353 198.942667 
L 172.716074 198.942667 
L 172.716074 197.894172 
L 172.861454 197.894172 
L 172.861454 197.369924 
L 173.718004 197.369924 
L 173.754693 194.748686 
L 173.864292 194.748686 
L 173.864292 194.224438 
L 178.102926 194.224438 
L 178.102926 193.70019 
L 178.216382 193.70019 
L 178.300986 190.030456 
L 178.662865 190.030456 
L 178.662865 189.506209 
L 178.88863 189.506209 
L 178.88863 188.981961 
L 179.50937 188.981961 
L 179.50937 188.457713 
L 180.140098 188.457713 
L 180.177973 187.409218 
L 180.316135 187.409218 
L 180.366102 186.360722 
L 180.515138 186.360722 
L 180.515138 185.836474 
L 180.785058 185.836474 
L 180.785058 185.312227 
L 181.032815 185.312227 
L 181.032815 184.787979 
L 182.187081 184.787979 
L 182.220708 181.642493 
L 182.575354 181.642493 
L 182.575354 181.118245 
L 182.804176 181.118245 
L 182.804176 180.593997 
L 183.16831 180.593997 
L 183.16831 179.545502 
L 183.352767 179.545502 
L 183.352767 176.400016 
L 184.31601 176.400016 
L 184.31601 175.875768 
L 185.433701 175.875768 
L 185.466181 174.827272 
L 185.778543 174.827272 
L 185.778543 174.303025 
L 185.905531 174.303025 
L 186.013636 172.730281 
L 186.116602 172.730281 
L 186.116602 172.206034 
L 186.824881 172.206034 
L 186.824881 171.681786 
L 187.542139 171.681786 
L 187.542139 171.157538 
L 188.461964 171.157538 
L 188.531916 170.109043 
L 189.245996 170.109043 
L 189.346157 168.012052 
L 189.599502 168.012052 
L 189.614075 166.963557 
L 189.71936 166.963557 
L 189.791596 165.390813 
L 190.088175 165.390813 
L 190.088175 164.866566 
L 190.652701 164.866566 
L 190.652701 164.342318 
L 190.813073 164.342318 
L 190.891011 163.293823 
L 191.106039 163.293823 
L 191.212553 161.721079 
L 191.225821 161.721079 
L 191.225821 161.196832 
L 191.528191 161.196832 
L 191.528191 160.672584 
L 192.221002 160.672584 
L 192.221002 160.148336 
L 192.44175 160.148336 
L 192.478782 159.099841 
L 193.405852 159.099841 
L 193.405852 158.575593 
L 193.772841 158.575593 
L 193.772841 158.051345 
L 194.081687 158.051345 
L 194.081687 157.527098 
L 194.517006 157.527098 
L 194.604397 155.954354 
L 194.675076 155.954354 
L 194.675076 155.430107 
L 194.986921 155.430107 
L 194.986921 154.905859 
L 195.101096 154.905859 
L 195.101096 154.381611 
L 195.511645 154.381611 
L 195.511645 153.857364 
L 195.737544 153.857364 
L 195.737544 153.333116 
L 196.486079 153.333116 
L 196.581037 152.28462 
L 196.766993 152.28462 
L 196.810174 151.236125 
L 197.033932 151.236125 
L 197.114153 149.663382 
L 197.222096 149.663382 
L 197.222096 149.139134 
L 197.941352 149.139134 
L 198.044238 148.090639 
L 198.265801 148.090639 
L 198.349252 146.517896 
L 198.403934 146.517896 
L 198.403934 145.993648 
L 198.640334 145.993648 
L 198.726277 144.945152 
L 199.13502 144.945152 
L 199.13502 144.420905 
L 199.427609 144.420905 
L 199.427609 143.896657 
L 199.725414 143.896657 
L 199.725414 143.372409 
L 200.065794 143.372409 
L 200.065794 142.848162 
L 200.19221 142.848162 
L 200.19221 142.323914 
L 200.411227 142.323914 
L 200.444228 141.275418 
L 200.719344 141.275418 
L 200.719344 140.751171 
L 200.83727 140.751171 
L 200.83727 140.226923 
L 201.173264 140.226923 
L 201.249308 138.129932 
L 201.306582 138.129932 
L 201.345272 137.081437 
L 201.418728 137.081437 
L 201.418728 136.557189 
L 202.000655 136.557189 
L 202.000655 136.032941 
L 202.192669 136.032941 
L 202.225921 134.984446 
L 202.572094 134.984446 
L 202.572094 134.460198 
L 202.72053 134.460198 
L 202.72053 133.93595 
L 202.933259 133.93595 
L 202.933259 133.411703 
L 203.3837 133.411703 
L 203.3837 132.887455 
L 203.765182 132.887455 
L 203.765182 132.363207 
L 203.979656 132.363207 
L 203.979656 131.838959 
L 204.304953 131.838959 
L 204.304953 131.314712 
L 204.522017 131.314712 
L 204.549531 130.266216 
L 204.672802 130.266216 
L 204.672802 129.741969 
L 204.789172 129.741969 
L 204.789172 129.217721 
L 205.02106 129.217721 
L 205.121813 128.169225 
L 205.210224 128.169225 
L 205.280627 127.12073 
L 205.488677 127.12073 
L 205.488677 126.596482 
L 205.945317 126.596482 
L 205.945317 126.072235 
L 206.065999 126.072235 
L 206.065999 125.547987 
L 206.507748 125.547987 
L 206.598819 124.499491 
L 206.652961 124.499491 
L 206.652961 123.975244 
L 207.587921 123.975244 
L 207.587921 123.450996 
L 208.013914 123.450996 
L 208.013914 122.926748 
L 208.428385 122.926748 
L 208.428385 122.4025 
L 208.842618 122.4025 
L 208.842618 121.878253 
L 210.090663 121.878253 
L 210.090663 121.354005 
L 210.222927 121.354005 
L 210.222927 120.829757 
L 210.512532 120.829757 
L 210.519008 119.781262 
L 210.638385 119.781262 
L 210.638385 119.257014 
L 211.34186 119.257014 
L 211.427036 118.208519 
L 211.806693 118.208519 
L 211.806693 117.684271 
L 212.372049 117.684271 
L 212.372049 117.160023 
L 212.871468 117.160023 
L 212.871468 116.635776 
L 213.600264 116.635776 
L 213.600264 116.111528 
L 213.766348 116.111528 
L 213.872338 115.063032 
L 213.894522 115.063032 
L 213.894522 114.538785 
L 214.042861 114.538785 
L 214.042861 114.014537 
L 214.518872 114.014537 
L 214.518872 113.490289 
L 214.658548 113.490289 
L 214.705138 112.441794 
L 215.064268 112.441794 
L 215.064268 111.917546 
L 215.523661 111.917546 
L 215.618578 110.869051 
L 216.111974 110.869051 
L 216.170334 109.296308 
L 216.273342 109.296308 
L 216.273342 108.77206 
L 216.684585 108.77206 
L 216.684585 108.247812 
L 216.930109 108.247812 
L 216.930109 107.723564 
L 217.376154 107.723564 
L 217.376154 107.199317 
L 217.59491 107.199317 
L 217.666977 106.150821 
L 218.278985 106.150821 
L 218.278985 105.626573 
L 219.005516 105.626573 
L 219.005516 105.102326 
L 219.606166 105.102326 
L 219.606166 104.578078 
L 219.781462 104.578078 
L 219.781462 104.05383 
L 220.34812 104.05383 
L 220.34812 103.529583 
L 220.708019 103.529583 
L 220.708019 103.005335 
L 220.965592 103.005335 
L 220.965592 102.481087 
L 221.388203 102.481087 
L 221.388203 101.956839 
L 222.427862 101.956839 
L 222.427862 101.432592 
L 222.648291 101.432592 
L 222.661076 100.384096 
L 223.325413 100.384096 
L 223.366349 99.335601 
L 223.487054 99.335601 
L 223.487054 98.811353 
L 223.790395 98.811353 
L 223.790395 98.287105 
L 223.980814 98.287105 
L 224.008408 97.23861 
L 224.293566 97.23861 
L 224.293566 96.714362 
L 224.931918 96.714362 
L 224.980842 95.665867 
L 225.208705 95.665867 
L 225.217426 94.617371 
L 227.503123 94.617371 
L 227.503123 94.093124 
L 228.541821 94.093124 
L 228.541821 93.568876 
L 229.318625 93.568876 
L 229.318625 93.044628 
L 230.033424 93.044628 
L 230.033424 92.520381 
L 233.139113 92.520381 
L 233.139113 91.996133 
L 234.94227 91.996133 
L 234.94227 91.471885 
L 236.700676 91.471885 
L 236.756348 90.42339 
L 238.576518 90.42339 
L 238.576518 89.899142 
L 239.027896 89.899142 
L 239.027896 89.374894 
L 240.258459 89.374894 
L 240.258459 88.850646 
L 243.209782 88.850646 
L 243.209782 88.326399 
L 243.648799 88.326399 
L 243.648799 87.802151 
L 245.203368 87.802151 
L 245.265235 86.753656 
L 245.987488 86.753656 
L 245.987488 86.229408 
L 246.80131 86.229408 
L 246.80131 85.70516 
L 248.371457 85.70516 
L 248.371457 85.180912 
L 333.168 85.180912 
L 333.168 85.180912 
" style="fill:none;stroke:#000080;stroke-linecap:square;stroke-width:1.5;"/>
   </g>
   <g id="line2d_44">
    <defs>
     <path d="M 0 6 
C 1.591219 6 3.117479 5.367802 4.242641 4.242641 
C 5.367802 3.117479 6 1.591219 6 0 
C 6 -1.591219 5.367802 -3.117479 4.242641 -4.242641 
C 3.117479 -5.367802 1.591219 -6 0 -6 
C -1.591219 -6 -3.117479 -5.367802 -4.242641 -4.242641 
C -5.367802 -3.117479 -6 -1.591219 -6 0 
C -6 1.591219 -5.367802 3.117479 -4.242641 4.242641 
C -3.117479 5.367802 -1.591219 6 0 6 
z
" id="m689515910c" style="stroke:#000080;stroke-width:1.5;"/>
    </defs>
    <g>
     <use style="fill:none;stroke:#000080;stroke-width:1.5;" x="100.856673" xlink:href="#m689515910c" y="245.076467"/>
     <use style="fill:none;stroke:#000080;stroke-width:1.5;" x="186.824881" xlink:href="#m689515910c" y="172.206034"/>
     <use style="fill:none;stroke:#000080;stroke-width:1.5;" x="228.541821" xlink:href="#m689515910c" y="93.568876"/>
     <use style="fill:none;stroke:#000080;stroke-width:1.5;" x="248.371457" xlink:href="#m689515910c" y="85.180912"/>
     <use style="fill:none;stroke:#000080;stroke-width:1.5;" x="248.371457" xlink:href="#m689515910c" y="85.180912"/>
     <use style="fill:none;stroke:#000080;stroke-width:1.5;" x="333.168" xlink:href="#m689515910c" y="85.180912"/>
    </g>
   </g>
   <g id="line2d_45">
    <path style="fill:none;stroke:#000080;stroke-linecap:square;stroke-width:1.5;"/>
    <g/>
   </g>
   <g id="line2d_46">
    <path clip-path="url(#p31f4c2475e)" d="M 169.492438 204.709392 
" style="fill:none;stroke:#000080;stroke-linecap:square;stroke-width:1.5;"/>
    <defs>
     <path d="M -12 12 
L 12 -12 
M -12 -12 
L 12 12 
" id="m386713ab42" style="stroke:#000080;"/>
    </defs>
    <g clip-path="url(#p31f4c2475e)">
     <use style="fill:#000080;stroke:#000080;" x="169.492438" xlink:href="#m386713ab42" y="204.709392"/>
    </g>
   </g>
   <g id="line2d_47">
    <defs>
     <path d="M 0 1.5 
C 0.397805 1.5 0.77937 1.341951 1.06066 1.06066 
C 1.341951 0.77937 1.5 0.397805 1.5 0 
C 1.5 -0.397805 1.341951 -0.77937 1.06066 -1.06066 
C 0.77937 -1.341951 0.397805 -1.5 0 -1.5 
C -0.397805 -1.5 -0.77937 -1.341951 -1.06066 -1.06066 
C -1.341951 -0.77937 -1.5 -0.397805 -1.5 0 
C -1.5 0.397805 -1.341951 0.77937 -1.06066 1.06066 
C -0.77937 1.341951 -0.397805 1.5 0 1.5 
z
" id="m9032fdb3cc" style="stroke:#ff00ff;"/>
    </defs>
    <g>
     <use style="fill:#ff00ff;stroke:#ff00ff;" x="246.950092" xlink:href="#m9032fdb3cc" y="27.513663"/>
     <use style="fill:#ff00ff;stroke:#ff00ff;" x="246.950092" xlink:href="#m9032fdb3cc" y="27.513663"/>
    </g>
   </g>
   <g id="line2d_48">
    <path d="M 44.205749 294.88 
L 44.205749 264.473632 
L 56.12 264.473632 
L 56.12 260.279651 
L 63.08939 260.279651 
L 63.08939 256.609917 
L 68.034251 256.609917 
L 68.034251 256.085669 
L 71.869783 256.085669 
L 71.869783 245.076467 
L 77.653281 245.076467 
L 77.653281 244.027971 
L 83.784035 244.027971 
L 83.784035 241.93098 
L 92.904808 241.93098 
L 92.904808 241.406733 
L 93.887283 241.406733 
L 93.887283 240.358237 
L 94.816624 240.358237 
L 94.816624 239.83399 
L 98.100602 239.83399 
L 98.100602 238.261246 
L 100.856673 238.261246 
L 100.856673 237.736999 
L 103.231288 237.736999 
L 103.231288 235.640008 
L 107.177358 235.640008 
L 107.177358 234.591512 
L 107.612537 234.591512 
L 107.612537 234.067265 
L 108.036969 234.067265 
L 108.036969 233.543017 
L 108.451173 233.543017 
L 108.451173 231.446026 
L 109.250788 231.446026 
L 109.250788 230.921778 
L 111.788449 230.921778 
L 111.788449 230.397531 
L 116.73331 230.397531 
L 116.73331 229.873283 
L 116.984244 229.873283 
L 116.984244 228.30054 
L 117.231566 228.30054 
L 117.231566 227.252044 
L 117.715785 227.252044 
L 117.715785 226.727797 
L 117.952873 226.727797 
L 117.952873 225.679301 
L 118.186736 225.679301 
L 118.186736 224.630806 
L 119.95122 224.630806 
L 119.95122 224.106558 
L 121.16504 224.106558 
L 121.16504 223.058063 
L 121.929105 223.058063 
L 121.929105 222.533815 
L 122.838768 222.533815 
L 122.838768 222.009567 
L 123.189569 222.009567 
L 123.189569 221.485319 
L 123.36232 221.485319 
L 123.36232 220.961072 
L 123.533353 220.961072 
L 123.533353 219.912576 
L 124.52528 219.912576 
L 124.52528 216.242842 
L 125.310285 216.242842 
L 125.310285 215.718594 
L 125.614517 215.718594 
L 125.614517 214.670099 
L 126.92061 214.670099 
L 126.92061 214.145851 
L 127.605507 214.145851 
L 127.605507 211.000365 
L 127.739271 211.000365 
L 127.739271 210.476117 
L 128.264156 210.476117 
L 128.264156 207.330631 
L 128.773486 207.330631 
L 128.773486 205.757888 
L 129.867125 205.757888 
L 129.867125 204.709392 
L 131.115693 204.709392 
L 131.115693 201.039658 
L 132.073821 201.039658 
L 132.177056 196.845677 
L 132.583907 196.845677 
L 132.583907 196.321429 
L 134.121345 196.321429 
L 134.121345 195.272933 
L 134.574897 195.272933 
L 134.574897 193.175943 
L 135.190413 193.175943 
L 135.190413 191.603199 
L 135.701004 191.603199 
L 135.701004 191.078952 
L 136.196864 191.078952 
L 136.196864 190.554704 
L 136.519665 190.554704 
L 136.519665 188.457713 
L 150.922912 188.457713 
L 150.922912 187.933465 
L 185.171631 187.933465 
L 185.237524 184.787979 
L 185.331221 184.787979 
L 185.331221 183.739484 
L 185.456907 183.739484 
L 185.558643 180.593997 
L 185.581681 180.593997 
L 185.646023 177.972759 
L 185.742088 177.972759 
L 185.851222 173.778777 
L 185.873871 173.778777 
L 185.982175 169.584795 
L 186.009145 169.584795 
L 186.089801 166.439309 
L 186.129987 166.439309 
L 186.17008 165.390813 
L 186.245556 165.390813 
L 186.267692 163.81807 
L 186.364754 163.81807 
L 186.364754 163.293823 
L 186.47876 163.293823 
L 186.58333 161.196832 
L 186.781995 161.196832 
L 186.876203 158.051345 
L 186.995362 158.051345 
L 186.995362 157.527098 
L 187.239595 157.527098 
L 187.239595 157.00285 
L 187.422587 157.00285 
L 187.443259 155.430107 
L 189.062719 155.430107 
L 189.062719 154.905859 
L 189.249716 154.905859 
L 189.249716 153.857364 
L 189.390486 153.857364 
L 189.47146 152.28462 
L 197.074089 152.28462 
L 197.074089 151.760373 
L 197.186972 151.760373 
L 197.186972 151.236125 
L 197.324715 151.236125 
L 197.401279 150.18763 
L 197.491327 150.18763 
L 197.583195 147.566391 
L 197.603799 147.566391 
L 197.654058 144.945152 
L 197.720085 144.945152 
L 197.815263 141.799666 
L 197.837847 141.799666 
L 197.92115 140.226923 
L 197.963771 140.226923 
L 198.06875 138.129932 
L 198.091004 138.129932 
L 198.181943 136.557189 
L 198.245977 136.557189 
L 198.300988 133.411703 
L 198.430119 133.411703 
L 198.540965 131.838959 
L 198.728421 131.838959 
L 198.728421 131.314712 
L 199.245585 131.314712 
L 199.245585 130.790464 
L 199.398779 130.790464 
L 199.423493 128.693473 
L 199.575116 128.693473 
L 199.658552 127.644978 
L 199.721369 127.644978 
L 199.775894 126.596482 
L 200.032058 126.596482 
L 200.032058 126.072235 
L 200.984489 126.072235 
L 200.984489 125.547987 
L 204.152455 125.547987 
L 204.252199 123.450996 
L 204.273941 123.450996 
L 204.352912 122.4025 
L 204.419215 122.4025 
L 204.500587 119.257014 
L 204.540365 119.257014 
L 204.60595 118.208519 
L 204.721259 118.208519 
L 204.775611 116.111528 
L 204.847813 116.111528 
L 204.952567 115.063032 
L 205.108512 115.063032 
L 205.108512 114.538785 
L 205.714232 114.538785 
L 205.762691 113.490289 
L 205.873348 113.490289 
L 205.945317 112.441794 
L 206.060404 112.441794 
L 206.060404 111.917546 
L 207.090606 111.917546 
L 207.090606 111.393298 
L 209.216862 111.393298 
L 209.313215 109.820555 
L 209.40788 109.820555 
L 209.512329 107.723564 
L 209.574011 107.723564 
L 209.661583 106.150821 
L 209.721602 106.150821 
L 209.814051 103.005335 
L 209.898174 103.005335 
L 209.994132 99.335601 
L 210.014149 99.335601 
L 210.065196 97.23861 
L 210.565352 97.23861 
L 210.565352 96.714362 
L 211.01051 96.714362 
L 211.01051 96.190115 
L 213.026997 96.190115 
L 213.135777 94.617371 
L 213.198685 94.617371 
L 213.288943 91.471885 
L 213.359529 91.471885 
L 213.396996 89.899142 
L 213.503467 89.899142 
L 213.593046 87.802151 
L 213.657003 87.802151 
L 213.690238 86.753656 
L 213.796697 86.753656 
L 213.835894 85.180912 
L 213.939689 85.180912 
L 213.966202 84.132417 
L 214.193416 84.132417 
L 214.295947 83.083922 
L 214.54963 83.083922 
L 214.54963 82.559674 
L 216.533897 82.559674 
L 216.644581 80.986931 
L 216.674027 80.986931 
L 216.747047 77.841444 
L 217.073694 77.841444 
L 217.099471 76.792949 
L 217.208778 76.792949 
L 217.208778 76.268701 
L 218.977828 76.268701 
L 219.067322 73.123215 
L 219.16549 73.123215 
L 219.240375 71.550472 
L 219.425851 71.550472 
L 219.470786 68.929233 
L 219.63032 68.929233 
L 219.63032 68.404985 
L 219.842426 68.404985 
L 219.842426 67.880738 
L 219.970563 67.880738 
L 219.970563 67.35649 
L 220.269965 67.35649 
L 220.269965 66.832242 
L 221.287558 66.832242 
L 221.287558 66.307995 
L 221.415706 66.307995 
L 221.50023 64.735251 
L 221.617757 64.735251 
L 221.713116 61.589765 
L 221.765367 61.589765 
L 221.853217 59.492774 
L 221.961709 59.492774 
L 221.961709 58.968526 
L 222.077234 58.968526 
L 222.104207 57.920031 
L 223.459626 57.920031 
L 223.459626 57.395783 
L 223.627568 57.395783 
L 223.627568 56.871536 
L 223.759951 56.871536 
L 223.759951 56.347288 
L 223.905197 56.347288 
L 224.003484 54.250297 
L 224.111983 54.250297 
L 224.111983 53.726049 
L 224.298892 53.726049 
L 224.298892 53.201802 
L 225.093533 53.201802 
L 225.098617 52.153306 
L 225.22018 52.153306 
L 225.22018 51.629058 
L 225.339066 51.629058 
L 225.339066 51.104811 
L 225.519927 51.104811 
L 225.59686 49.00782 
L 225.651985 49.00782 
L 225.745696 47.435077 
L 225.968537 47.435077 
L 225.968537 46.910829 
L 226.767214 46.910829 
L 226.767214 46.386581 
L 227.020718 46.386581 
L 227.09082 44.813838 
L 227.349362 44.813838 
L 227.385403 43.765343 
L 227.686555 43.765343 
L 227.686555 43.241095 
L 227.899094 43.241095 
L 227.899094 42.716847 
L 228.306865 42.716847 
L 228.393682 41.668352 
L 228.453851 41.668352 
L 228.453851 41.144104 
L 228.605244 41.144104 
L 228.643636 40.095609 
L 228.723908 40.095609 
L 228.763531 39.047113 
L 228.889267 39.047113 
L 228.889267 38.522865 
L 229.657248 38.522865 
L 229.657248 37.998618 
L 229.791061 37.998618 
L 229.791061 37.47437 
L 230.072565 37.47437 
L 230.072565 36.950122 
L 230.438841 36.950122 
L 230.438841 36.425875 
L 231.01927 36.425875 
L 231.01927 35.901627 
L 231.499732 35.901627 
L 231.499732 35.377379 
L 232.533749 35.377379 
L 232.533749 34.853131 
L 232.837181 34.853131 
L 232.837181 34.328884 
L 234.245492 34.328884 
L 234.245492 33.804636 
L 234.497673 33.804636 
L 234.497673 33.280388 
L 235.645205 33.280388 
L 235.668457 32.231893 
L 235.794416 32.231893 
L 235.794416 31.707645 
L 236.73828 31.707645 
L 236.73828 31.183397 
L 237.011251 31.183397 
L 237.011251 30.65915 
L 238.294273 30.65915 
L 238.39477 29.610654 
L 238.924636 29.610654 
L 238.924636 29.086407 
L 239.146669 29.086407 
L 239.146669 28.562159 
L 246.632756 28.562159 
L 246.632756 28.037911 
L 246.950092 28.037911 
L 246.950092 27.513663 
L 333.168 27.513663 
L 333.168 27.513663 
" style="fill:none;stroke:#ff00ff;stroke-linecap:square;stroke-width:1.5;"/>
   </g>
   <g id="line2d_49">
    <defs>
     <path d="M -0 8.485281 
L 5.091169 0 
L 0 -8.485281 
L -5.091169 -0 
z
" id="m3d65c9da7c" style="stroke:#ff00ff;stroke-linejoin:miter;stroke-width:1.5;"/>
    </defs>
    <g>
     <use style="fill:none;stroke:#ff00ff;stroke-linejoin:miter;stroke-width:1.5;" x="83.784035" xlink:href="#m3d65c9da7c" y="244.027971"/>
     <use style="fill:none;stroke:#ff00ff;stroke-linejoin:miter;stroke-width:1.5;" x="150.922912" xlink:href="#m3d65c9da7c" y="188.457713"/>
     <use style="fill:none;stroke:#ff00ff;stroke-linejoin:miter;stroke-width:1.5;" x="200.984489" xlink:href="#m3d65c9da7c" y="126.072235"/>
     <use style="fill:none;stroke:#ff00ff;stroke-linejoin:miter;stroke-width:1.5;" x="246.950092" xlink:href="#m3d65c9da7c" y="28.037911"/>
     <use style="fill:none;stroke:#ff00ff;stroke-linejoin:miter;stroke-width:1.5;" x="246.950092" xlink:href="#m3d65c9da7c" y="27.513663"/>
     <use style="fill:none;stroke:#ff00ff;stroke-linejoin:miter;stroke-width:1.5;" x="333.168" xlink:href="#m3d65c9da7c" y="27.513663"/>
    </g>
   </g>
   <g id="line2d_50">
    <path style="fill:none;stroke:#ff00ff;stroke-linecap:square;stroke-width:1.5;"/>
    <g/>
   </g>
   <g id="line2d_51">
    <path clip-path="url(#p31f4c2475e)" d="M 185.558643 180.593997 
" style="fill:none;stroke:#ff00ff;stroke-linecap:square;stroke-width:1.5;"/>
    <defs>
     <path d="M -12 12 
L 12 -12 
M -12 -12 
L 12 12 
" id="m48aa2cc97b" style="stroke:#ff00ff;"/>
    </defs>
    <g clip-path="url(#p31f4c2475e)">
     <use style="fill:#ff00ff;stroke:#ff00ff;" x="185.558643" xlink:href="#m48aa2cc97b" y="180.593997"/>
    </g>
   </g>
   <g id="line2d_52">
    <defs>
     <path d="M 0 1.5 
C 0.397805 1.5 0.77937 1.341951 1.06066 1.06066 
C 1.341951 0.77937 1.5 0.397805 1.5 0 
C 1.5 -0.397805 1.341951 -0.77937 1.06066 -1.06066 
C 0.77937 -1.341951 0.397805 -1.5 0 -1.5 
C -0.397805 -1.5 -0.77937 -1.341951 -1.06066 -1.06066 
C -1.341951 -0.77937 -1.5 -0.397805 -1.5 0 
C -1.5 0.397805 -1.341951 0.77937 -1.06066 1.06066 
C -0.77937 1.341951 -0.397805 1.5 0 1.5 
z
" id="m2306d38156" style="stroke:#ff7500;"/>
    </defs>
    <g>
     <use style="fill:#ff7500;stroke:#ff7500;" x="194.936228" xlink:href="#m2306d38156" y="27.513663"/>
     <use style="fill:#ff7500;stroke:#ff7500;" x="194.936228" xlink:href="#m2306d38156" y="27.513663"/>
    </g>
   </g>
   <g id="line2d_53">
    <path d="M 44.205749 294.88 
L 44.205749 262.376641 
L 56.12 262.376641 
L 56.12 259.755403 
L 71.869783 259.755403 
L 71.869783 255.561421 
L 75.003641 255.561421 
L 75.003641 253.988678 
L 79.948502 253.988678 
L 79.948502 252.415935 
L 81.973032 252.415935 
L 81.973032 251.891687 
L 83.784035 251.891687 
L 83.784035 250.843192 
L 90.753425 250.843192 
L 90.753425 248.221953 
L 93.887283 248.221953 
L 93.887283 247.173458 
L 94.816624 247.173458 
L 94.816624 245.076467 
L 97.336537 245.076467 
L 97.336537 244.552219 
L 98.100602 244.552219 
L 98.100602 244.027971 
L 98.832144 244.027971 
L 98.832144 238.261246 
L 100.856673 238.261246 
L 100.856673 237.736999 
L 106.272485 237.736999 
L 106.272485 234.591512 
L 107.177358 234.591512 
L 107.177358 234.067265 
L 108.036969 234.067265 
L 108.036969 233.018769 
L 110.384516 233.018769 
L 110.384516 231.446026 
L 113.396034 231.446026 
L 113.396034 230.921778 
L 114.293036 230.921778 
L 114.293036 229.873283 
L 117.952873 229.873283 
L 117.952873 229.349035 
L 118.417459 229.349035 
L 118.417459 227.776292 
L 119.310576 227.776292 
L 119.310576 224.106558 
L 120.15957 224.106558 
L 120.15957 223.058063 
L 120.769881 223.058063 
L 120.769881 217.815585 
L 122.660646 217.815585 
L 122.660646 216.76709 
L 123.533353 216.76709 
L 123.533353 212.573108 
L 125.156126 212.573108 
L 125.156126 212.04886 
L 127.05979 212.04886 
L 127.05979 211.524613 
L 127.739271 211.524613 
L 127.739271 209.427622 
L 128.003717 209.427622 
L 128.003717 207.854879 
L 128.39291 207.854879 
L 128.39291 207.330631 
L 128.647561 207.330631 
L 128.647561 201.039658 
L 130.100987 201.039658 
L 130.100987 198.41842 
L 133.176677 198.41842 
L 133.176677 197.894172 
L 133.560797 197.894172 
L 133.560797 194.748686 
L 133.749684 194.748686 
L 133.749684 194.224438 
L 134.121345 194.224438 
L 134.121345 190.030456 
L 134.929315 190.030456 
L 134.929315 189.506209 
L 137.14763 189.506209 
L 137.14763 186.88497 
L 141.95707 186.88497 
L 141.95707 186.360722 
L 142.586342 186.360722 
L 142.586342 185.836474 
L 142.754037 185.836474 
L 142.754037 182.16674 
L 143.884213 182.16674 
L 143.884213 180.593997 
L 152.124937 180.593997 
L 152.124937 179.021254 
L 153.812956 179.021254 
L 153.812956 178.497006 
L 153.9585 178.497006 
L 153.9585 177.972759 
L 154.584645 177.972759 
L 154.584645 176.400016 
L 154.751526 176.400016 
L 154.806795 172.730281 
L 155.215743 172.730281 
L 155.215743 171.157538 
L 155.376636 171.157538 
L 155.376636 170.633291 
L 155.509573 170.633291 
L 155.509573 167.487804 
L 155.772401 167.487804 
L 155.850472 163.293823 
L 155.954019 163.293823 
L 155.954019 162.769575 
L 156.412409 162.769575 
L 156.412409 159.099841 
L 157.174289 159.099841 
L 157.198312 154.905859 
L 157.317927 154.905859 
L 157.389299 151.760373 
L 157.718503 151.760373 
L 157.718503 149.663382 
L 158.757817 149.663382 
L 158.845291 146.517896 
L 159.212168 146.517896 
L 159.212168 143.896657 
L 160.328169 143.896657 
L 160.427929 142.323914 
L 160.606051 142.323914 
L 160.645384 138.65418 
L 160.743325 138.65418 
L 160.743325 137.605684 
L 160.89888 137.605684 
L 160.89888 136.557189 
L 161.148691 136.557189 
L 161.148691 134.460198 
L 161.319534 134.460198 
L 161.319534 133.93595 
L 161.711688 133.93595 
L 161.73014 131.838959 
L 162.238932 131.838959 
L 162.238932 131.314712 
L 162.417054 131.314712 
L 162.417054 127.644978 
L 162.593349 127.644978 
L 162.593349 126.072235 
L 162.733095 126.072235 
L 162.750483 122.926748 
L 163.162618 122.926748 
L 163.162618 121.354005 
L 165.387704 121.354005 
L 165.387704 119.257014 
L 166.060134 119.257014 
L 166.060134 118.732766 
L 166.259673 118.732766 
L 166.35858 115.063032 
L 166.400795 115.063032 
L 166.400795 114.014537 
L 166.526822 114.014537 
L 166.526822 113.490289 
L 166.665777 113.490289 
L 166.748614 109.296308 
L 166.831054 109.296308 
L 166.940362 105.102326 
L 166.967581 105.102326 
L 167.008328 103.005335 
L 167.089534 103.005335 
L 167.183793 99.335601 
L 167.210629 99.335601 
L 167.264176 89.374894 
L 167.489909 89.374894 
L 167.489909 88.850646 
L 167.66055 88.850646 
L 167.764723 83.083922 
L 167.958364 83.083922 
L 168.035213 79.414188 
L 168.098993 79.414188 
L 168.162537 77.841444 
L 168.238481 77.841444 
L 168.314091 72.074719 
L 168.501673 72.074719 
L 168.588516 69.453481 
L 168.69953 69.453481 
L 168.69953 66.307995 
L 169.350967 66.307995 
L 169.350967 64.211004 
L 182.82581 64.211004 
L 182.917454 62.114013 
L 183.019305 62.114013 
L 183.088646 58.444279 
L 183.194782 58.444279 
L 183.247605 56.347288 
L 183.331786 56.347288 
L 183.368486 53.726049 
L 186.982634 53.726049 
L 187.067308 46.386581 
L 187.766617 46.386581 
L 187.823291 39.571361 
L 194.385081 39.571361 
L 194.385081 37.47437 
L 194.675076 37.47437 
L 194.737358 34.328884 
L 194.802109 34.328884 
L 194.802109 28.037911 
L 194.936228 28.037911 
L 194.936228 27.513663 
L 333.168 27.513663 
L 333.168 27.513663 
" style="fill:none;stroke:#ff7500;stroke-linecap:square;stroke-width:1.5;"/>
   </g>
   <g id="line2d_54">
    <defs>
     <path d="M 0 -6 
L -1.347084 -1.854102 
L -5.706339 -1.854102 
L -2.179628 0.708204 
L -3.526712 4.854102 
L -0 2.291796 
L 3.526712 4.854102 
L 2.179628 0.708204 
L 5.706339 -1.854102 
L 1.347084 -1.854102 
z
" id="m920b557fce" style="stroke:#ff7500;stroke-linejoin:bevel;stroke-width:1.5;"/>
    </defs>
    <g>
     <use style="fill:none;stroke:#ff7500;stroke-linejoin:bevel;stroke-width:1.5;" x="106.272485" xlink:href="#m920b557fce" y="237.736999"/>
     <use style="fill:none;stroke:#ff7500;stroke-linejoin:bevel;stroke-width:1.5;" x="155.954019" xlink:href="#m920b557fce" y="162.769575"/>
     <use style="fill:none;stroke:#ff7500;stroke-linejoin:bevel;stroke-width:1.5;" x="194.936228" xlink:href="#m920b557fce" y="28.037911"/>
     <use style="fill:none;stroke:#ff7500;stroke-linejoin:bevel;stroke-width:1.5;" x="194.936228" xlink:href="#m920b557fce" y="27.513663"/>
     <use style="fill:none;stroke:#ff7500;stroke-linejoin:bevel;stroke-width:1.5;" x="194.936228" xlink:href="#m920b557fce" y="27.513663"/>
     <use style="fill:none;stroke:#ff7500;stroke-linejoin:bevel;stroke-width:1.5;" x="333.168" xlink:href="#m920b557fce" y="27.513663"/>
    </g>
   </g>
   <g id="line2d_55">
    <path style="fill:none;stroke:#ff7500;stroke-linecap:square;stroke-width:1.5;"/>
    <g/>
   </g>
   <g id="line2d_56">
    <path d="M 333.168 85.180912 
L 363.64328 289.532673 
" style="fill:none;stroke:#000080;stroke-linecap:square;stroke-width:1.5;"/>
    <g>
     <use style="fill:none;stroke:#000080;stroke-width:1.5;" x="333.168" xlink:href="#m689515910c" y="85.180912"/>
     <use style="fill:none;stroke:#000080;stroke-width:1.5;" x="363.64328" xlink:href="#m689515910c" y="289.532673"/>
    </g>
   </g>
   <g id="line2d_57">
    <path d="M 333.168 27.513663 
L 363.64328 203.975446 
" style="fill:none;stroke:#ff00ff;stroke-linecap:square;stroke-width:1.5;"/>
    <g>
     <use style="fill:none;stroke:#ff00ff;stroke-linejoin:miter;stroke-width:1.5;" x="333.168" xlink:href="#m3d65c9da7c" y="27.513663"/>
     <use style="fill:none;stroke:#ff00ff;stroke-linejoin:miter;stroke-width:1.5;" x="363.64328" xlink:href="#m3d65c9da7c" y="203.975446"/>
    </g>
   </g>
   <g id="line2d_58">
    <path d="M 333.168 27.513663 
L 363.64328 118.418218 
" style="fill:none;stroke:#ff7500;stroke-linecap:square;stroke-width:1.5;"/>
    <g>
     <use style="fill:none;stroke:#ff7500;stroke-linejoin:bevel;stroke-width:1.5;" x="333.168" xlink:href="#m920b557fce" y="27.513663"/>
     <use style="fill:none;stroke:#ff7500;stroke-linejoin:bevel;stroke-width:1.5;" x="363.64328" xlink:href="#m920b557fce" y="118.418218"/>
    </g>
   </g>
   <g id="line2d_59">
    <path d="M 333.168 294.88 
L 333.168 27.513663 
" style="fill:none;stroke:#000000;stroke-linecap:square;stroke-width:1.5;"/>
   </g>
   <g id="patch_3">
    <path d="M 56.12 294.88 
L 56.12 24.84 
" style="fill:none;stroke:#000000;stroke-linecap:square;stroke-linejoin:miter;stroke-width:0.8;"/>
   </g>
   <g id="patch_4">
    <path d="M 333.168 294.88 
L 333.168 24.84 
" style="fill:none;stroke:#000000;stroke-linecap:square;stroke-linejoin:miter;stroke-width:0.8;"/>
   </g>
   <g id="patch_5">
    <path d="M 56.12 294.88 
L 333.168 294.88 
" style="fill:none;stroke:#000000;stroke-linecap:square;stroke-linejoin:miter;stroke-width:0.8;"/>
   </g>
   <g id="patch_6">
    <path d="M 56.12 24.84 
L 333.168 24.84 
" style="fill:none;stroke:#000000;stroke-linecap:square;stroke-linejoin:miter;stroke-width:0.8;"/>
   </g>
   <g id="text_13">
    <!-- CMA ES PPM -->
    <defs>
     <path d="M 64.40625 67.28125 
L 64.40625 56.890625 
Q 59.421875 61.53125 53.78125 63.8125 
Q 48.140625 66.109375 41.796875 66.109375 
Q 29.296875 66.109375 22.65625 58.46875 
Q 16.015625 50.828125 16.015625 36.375 
Q 16.015625 21.96875 22.65625 14.328125 
Q 29.296875 6.6875 41.796875 6.6875 
Q 48.140625 6.6875 53.78125 8.984375 
Q 59.421875 11.28125 64.40625 15.921875 
L 64.40625 5.609375 
Q 59.234375 2.09375 53.4375 0.328125 
Q 47.65625 -1.421875 41.21875 -1.421875 
Q 24.65625 -1.421875 15.125 8.703125 
Q 5.609375 18.84375 5.609375 36.375 
Q 5.609375 53.953125 15.125 64.078125 
Q 24.65625 74.21875 41.21875 74.21875 
Q 47.75 74.21875 53.53125 72.484375 
Q 59.328125 70.75 64.40625 67.28125 
z
" id="DejaVuSans-43"/>
     <path d="M 9.8125 72.90625 
L 24.515625 72.90625 
L 43.109375 23.296875 
L 61.8125 72.90625 
L 76.515625 72.90625 
L 76.515625 0 
L 66.890625 0 
L 66.890625 64.015625 
L 48.09375 14.015625 
L 38.1875 14.015625 
L 19.390625 64.015625 
L 19.390625 0 
L 9.8125 0 
z
" id="DejaVuSans-4d"/>
     <path d="M 34.1875 63.1875 
L 20.796875 26.90625 
L 47.609375 26.90625 
z
M 28.609375 72.90625 
L 39.796875 72.90625 
L 67.578125 0 
L 57.328125 0 
L 50.6875 18.703125 
L 17.828125 18.703125 
L 11.1875 0 
L 0.78125 0 
z
" id="DejaVuSans-41"/>
     <path d="M 9.8125 72.90625 
L 55.90625 72.90625 
L 55.90625 64.59375 
L 19.671875 64.59375 
L 19.671875 43.015625 
L 54.390625 43.015625 
L 54.390625 34.71875 
L 19.671875 34.71875 
L 19.671875 8.296875 
L 56.78125 8.296875 
L 56.78125 0 
L 9.8125 0 
z
" id="DejaVuSans-45"/>
     <path d="M 53.515625 70.515625 
L 53.515625 60.890625 
Q 47.90625 63.578125 42.921875 64.890625 
Q 37.9375 66.21875 33.296875 66.21875 
Q 25.25 66.21875 20.875 63.09375 
Q 16.5 59.96875 16.5 54.203125 
Q 16.5 49.359375 19.40625 46.890625 
Q 22.3125 44.4375 30.421875 42.921875 
L 36.375 41.703125 
Q 47.40625 39.59375 52.65625 34.296875 
Q 57.90625 29 57.90625 20.125 
Q 57.90625 9.515625 50.796875 4.046875 
Q 43.703125 -1.421875 29.984375 -1.421875 
Q 24.8125 -1.421875 18.96875 -0.25 
Q 13.140625 0.921875 6.890625 3.21875 
L 6.890625 13.375 
Q 12.890625 10.015625 18.65625 8.296875 
Q 24.421875 6.59375 29.984375 6.59375 
Q 38.421875 6.59375 43.015625 9.90625 
Q 47.609375 13.234375 47.609375 19.390625 
Q 47.609375 24.75 44.3125 27.78125 
Q 41.015625 30.8125 33.5 32.328125 
L 27.484375 33.5 
Q 16.453125 35.6875 11.515625 40.375 
Q 6.59375 45.0625 6.59375 53.421875 
Q 6.59375 63.09375 13.40625 68.65625 
Q 20.21875 74.21875 32.171875 74.21875 
Q 37.3125 74.21875 42.625 73.28125 
Q 47.953125 72.359375 53.515625 70.515625 
z
" id="DejaVuSans-53"/>
     <path d="M 19.671875 64.796875 
L 19.671875 37.40625 
L 32.078125 37.40625 
Q 38.96875 37.40625 42.71875 40.96875 
Q 46.484375 44.53125 46.484375 51.125 
Q 46.484375 57.671875 42.71875 61.234375 
Q 38.96875 64.796875 32.078125 64.796875 
z
M 9.8125 72.90625 
L 32.078125 72.90625 
Q 44.34375 72.90625 50.609375 67.359375 
Q 56.890625 61.8125 56.890625 51.125 
Q 56.890625 40.328125 50.609375 34.8125 
Q 44.34375 29.296875 32.078125 29.296875 
L 19.671875 29.296875 
L 19.671875 0 
L 9.8125 0 
z
" id="DejaVuSans-50"/>
    </defs>
    <g transform="translate(369.18424 294.223611)scale(0.17 -0.17)">
     <use xlink:href="#DejaVuSans-43"/>
     <use x="69.824219" xlink:href="#DejaVuSans-4d"/>
     <use x="156.103516" xlink:href="#DejaVuSans-41"/>
     <use x="224.511719" xlink:href="#DejaVuSans-20"/>
     <use x="256.298828" xlink:href="#DejaVuSans-45"/>
     <use x="319.482422" xlink:href="#DejaVuSans-53"/>
     <use x="382.958984" xlink:href="#DejaVuSans-20"/>
     <use x="414.746094" xlink:href="#DejaVuSans-50"/>
     <use x="475.048828" xlink:href="#DejaVuSans-50"/>
     <use x="535.351562" xlink:href="#DejaVuSans-4d"/>
    </g>
   </g>
   <g id="text_14">
    <!-- CMA ES CSA -->
    <g transform="translate(369.18424 208.666383)scale(0.17 -0.17)">
     <use xlink:href="#DejaVuSans-43"/>
     <use x="69.824219" xlink:href="#DejaVuSans-4d"/>
     <use x="156.103516" xlink:href="#DejaVuSans-41"/>
     <use x="224.511719" xlink:href="#DejaVuSans-20"/>
     <use x="256.298828" xlink:href="#DejaVuSans-45"/>
     <use x="319.482422" xlink:href="#DejaVuSans-53"/>
     <use x="382.958984" xlink:href="#DejaVuSans-20"/>
     <use x="414.746094" xlink:href="#DejaVuSans-43"/>
     <use x="484.570312" xlink:href="#DejaVuSans-53"/>
     <use x="548.0625" xlink:href="#DejaVuSans-41"/>
    </g>
   </g>
   <g id="text_15">
    <!-- CMAES posi -->
    <g transform="translate(369.18424 123.109155)scale(0.17 -0.17)">
     <use xlink:href="#DejaVuSans-43"/>
     <use x="69.824219" xlink:href="#DejaVuSans-4d"/>
     <use x="156.103516" xlink:href="#DejaVuSans-41"/>
     <use x="224.511719" xlink:href="#DejaVuSans-45"/>
     <use x="287.695312" xlink:href="#DejaVuSans-53"/>
     <use x="351.171875" xlink:href="#DejaVuSans-20"/>
     <use x="382.958984" xlink:href="#DejaVuSans-70"/>
     <use x="446.435547" xlink:href="#DejaVuSans-6f"/>
     <use x="507.617188" xlink:href="#DejaVuSans-73"/>
     <use x="559.716797" xlink:href="#DejaVuSans-69"/>
    </g>
   </g>
   <g id="text_16">
    <!-- best 2009 -->
    <defs>
     <path d="M 48.6875 27.296875 
Q 48.6875 37.203125 44.609375 42.84375 
Q 40.53125 48.484375 33.40625 48.484375 
Q 26.265625 48.484375 22.1875 42.84375 
Q 18.109375 37.203125 18.109375 27.296875 
Q 18.109375 17.390625 22.1875 11.75 
Q 26.265625 6.109375 33.40625 6.109375 
Q 40.53125 6.109375 44.609375 11.75 
Q 48.6875 17.390625 48.6875 27.296875 
z
M 18.109375 46.390625 
Q 20.953125 51.265625 25.265625 53.625 
Q 29.59375 56 35.59375 56 
Q 45.5625 56 51.78125 48.09375 
Q 58.015625 40.1875 58.015625 27.296875 
Q 58.015625 14.40625 51.78125 6.484375 
Q 45.5625 -1.421875 35.59375 -1.421875 
Q 29.59375 -1.421875 25.265625 0.953125 
Q 20.953125 3.328125 18.109375 8.203125 
L 18.109375 0 
L 9.078125 0 
L 9.078125 75.984375 
L 18.109375 75.984375 
z
" id="DejaVuSans-62"/>
     <path d="M 10.984375 1.515625 
L 10.984375 10.5 
Q 14.703125 8.734375 18.5 7.8125 
Q 22.3125 6.890625 25.984375 6.890625 
Q 35.75 6.890625 40.890625 13.453125 
Q 46.046875 20.015625 46.78125 33.40625 
Q 43.953125 29.203125 39.59375 26.953125 
Q 35.25 24.703125 29.984375 24.703125 
Q 19.046875 24.703125 12.671875 31.3125 
Q 6.296875 37.9375 6.296875 49.421875 
Q 6.296875 60.640625 12.9375 67.421875 
Q 19.578125 74.21875 30.609375 74.21875 
Q 43.265625 74.21875 49.921875 64.515625 
Q 56.59375 54.828125 56.59375 36.375 
Q 56.59375 19.140625 48.40625 8.859375 
Q 40.234375 -1.421875 26.421875 -1.421875 
Q 22.703125 -1.421875 18.890625 -0.6875 
Q 15.09375 0.046875 10.984375 1.515625 
z
M 30.609375 32.421875 
Q 37.25 32.421875 41.125 36.953125 
Q 45.015625 41.5 45.015625 49.421875 
Q 45.015625 57.28125 41.125 61.84375 
Q 37.25 66.40625 30.609375 66.40625 
Q 23.96875 66.40625 20.09375 61.84375 
Q 16.21875 57.28125 16.21875 49.421875 
Q 16.21875 41.5 20.09375 36.953125 
Q 23.96875 32.421875 30.609375 32.421875 
z
" id="DejaVuSans-39"/>
    </defs>
    <g transform="translate(369.18424 37.551928)scale(0.17 -0.17)">
     <use xlink:href="#DejaVuSans-62"/>
     <use x="63.476562" xlink:href="#DejaVuSans-65"/>
     <use x="125" xlink:href="#DejaVuSans-73"/>
     <use x="177.099609" xlink:href="#DejaVuSans-74"/>
     <use x="216.308594" xlink:href="#DejaVuSans-20"/>
     <use x="248.095703" xlink:href="#DejaVuSans-32"/>
     <use x="311.71875" xlink:href="#DejaVuSans-30"/>
     <use x="375.341797" xlink:href="#DejaVuSans-30"/>
     <use x="438.964844" xlink:href="#DejaVuSans-39"/>
    </g>
   </g>
   <g id="text_17">
    <!-- bbob f21, 2-D -->
    <defs>
     <path d="M 19.671875 64.796875 
L 19.671875 8.109375 
L 31.59375 8.109375 
Q 46.6875 8.109375 53.6875 14.9375 
Q 60.6875 21.78125 60.6875 36.53125 
Q 60.6875 51.171875 53.6875 57.984375 
Q 46.6875 64.796875 31.59375 64.796875 
z
M 9.8125 72.90625 
L 30.078125 72.90625 
Q 51.265625 72.90625 61.171875 64.09375 
Q 71.09375 55.28125 71.09375 36.53125 
Q 71.09375 17.671875 61.125 8.828125 
Q 51.171875 0 30.078125 0 
L 9.8125 0 
z
" id="DejaVuSans-44"/>
    </defs>
    <g transform="translate(58.89048 35.290806)scale(0.102 -0.102)">
     <use xlink:href="#DejaVuSans-62"/>
     <use x="63.476562" xlink:href="#DejaVuSans-62"/>
     <use x="126.953125" xlink:href="#DejaVuSans-6f"/>
     <use x="188.134766" xlink:href="#DejaVuSans-62"/>
     <use x="251.611328" xlink:href="#DejaVuSans-20"/>
     <use x="283.398438" xlink:href="#DejaVuSans-66"/>
     <use x="318.603516" xlink:href="#DejaVuSans-32"/>
     <use x="382.226562" xlink:href="#DejaVuSans-31"/>
     <use x="445.849609" xlink:href="#DejaVuSans-2c"/>
     <use x="477.636719" xlink:href="#DejaVuSans-20"/>
     <use x="509.423828" xlink:href="#DejaVuSans-32"/>
     <use x="573.046875" xlink:href="#DejaVuSans-2d"/>
     <use x="609.130859" xlink:href="#DejaVuSans-44"/>
    </g>
    <!-- 51 targets: 100..1e-08 -->
    <defs>
     <path d="M 10.796875 72.90625 
L 49.515625 72.90625 
L 49.515625 64.59375 
L 19.828125 64.59375 
L 19.828125 46.734375 
Q 21.96875 47.46875 24.109375 47.828125 
Q 26.265625 48.1875 28.421875 48.1875 
Q 40.625 48.1875 47.75 41.5 
Q 54.890625 34.8125 54.890625 23.390625 
Q 54.890625 11.625 47.5625 5.09375 
Q 40.234375 -1.421875 26.90625 -1.421875 
Q 22.3125 -1.421875 17.546875 -0.640625 
Q 12.796875 0.140625 7.71875 1.703125 
L 7.71875 11.625 
Q 12.109375 9.234375 16.796875 8.0625 
Q 21.484375 6.890625 26.703125 6.890625 
Q 35.15625 6.890625 40.078125 11.328125 
Q 45.015625 15.765625 45.015625 23.390625 
Q 45.015625 31 40.078125 35.4375 
Q 35.15625 39.890625 26.703125 39.890625 
Q 22.75 39.890625 18.8125 39.015625 
Q 14.890625 38.140625 10.796875 36.28125 
z
" id="DejaVuSans-35"/>
     <path d="M 11.71875 12.40625 
L 22.015625 12.40625 
L 22.015625 0 
L 11.71875 0 
z
M 11.71875 51.703125 
L 22.015625 51.703125 
L 22.015625 39.3125 
L 11.71875 39.3125 
z
" id="DejaVuSans-3a"/>
    </defs>
    <g transform="translate(58.89048 46.712575)scale(0.102 -0.102)">
     <use xlink:href="#DejaVuSans-35"/>
     <use x="63.623047" xlink:href="#DejaVuSans-31"/>
     <use x="127.246094" xlink:href="#DejaVuSans-20"/>
     <use x="159.033203" xlink:href="#DejaVuSans-74"/>
     <use x="198.242188" xlink:href="#DejaVuSans-61"/>
     <use x="259.521484" xlink:href="#DejaVuSans-72"/>
     <use x="300.619141" xlink:href="#DejaVuSans-67"/>
     <use x="364.095703" xlink:href="#DejaVuSans-65"/>
     <use x="425.619141" xlink:href="#DejaVuSans-74"/>
     <use x="464.828125" xlink:href="#DejaVuSans-73"/>
     <use x="516.927734" xlink:href="#DejaVuSans-3a"/>
     <use x="550.619141" xlink:href="#DejaVuSans-20"/>
     <use x="582.40625" xlink:href="#DejaVuSans-31"/>
     <use x="646.029297" xlink:href="#DejaVuSans-30"/>
     <use x="709.652344" xlink:href="#DejaVuSans-30"/>
     <use x="773.275391" xlink:href="#DejaVuSans-2e"/>
     <use x="805.0625" xlink:href="#DejaVuSans-2e"/>
     <use x="836.849609" xlink:href="#DejaVuSans-31"/>
     <use x="900.472656" xlink:href="#DejaVuSans-65"/>
     <use x="961.996094" xlink:href="#DejaVuSans-2d"/>
     <use x="998.080078" xlink:href="#DejaVuSans-30"/>
     <use x="1061.703125" xlink:href="#DejaVuSans-38"/>
    </g>
    <!-- 15 instances -->
    <g transform="translate(58.89048 58.134344)scale(0.102 -0.102)">
     <use xlink:href="#DejaVuSans-31"/>
     <use x="63.623047" xlink:href="#DejaVuSans-35"/>
     <use x="127.246094" xlink:href="#DejaVuSans-20"/>
     <use x="159.033203" xlink:href="#DejaVuSans-69"/>
     <use x="186.816406" xlink:href="#DejaVuSans-6e"/>
     <use x="250.195312" xlink:href="#DejaVuSans-73"/>
     <use x="302.294922" xlink:href="#DejaVuSans-74"/>
     <use x="341.503906" xlink:href="#DejaVuSans-61"/>
     <use x="402.783203" xlink:href="#DejaVuSans-6e"/>
     <use x="466.162109" xlink:href="#DejaVuSans-63"/>
     <use x="521.142578" xlink:href="#DejaVuSans-65"/>
     <use x="582.666016" xlink:href="#DejaVuSans-73"/>
    </g>
   </g>
   <g id="text_18">
    <!-- v0.0.0 -->
    <g style="fill:#808080;" transform="translate(178.96275 290.099912)scale(0.1 -0.1)">
     <use xlink:href="#DejaVuSans-76"/>
     <use x="59.179688" xlink:href="#DejaVuSans-30"/>
     <use x="122.802734" xlink:href="#DejaVuSans-2e"/>
     <use x="154.589844" xlink:href="#DejaVuSans-30"/>
     <use x="218.212891" xlink:href="#DejaVuSans-2e"/>
     <use x="250" xlink:href="#DejaVuSans-30"/>
    </g>
   </g>
   <g id="text_19">
    <!-- 21 Gallagher 101 peaks -->
    <defs>
     <path d="M 59.515625 10.40625 
L 59.515625 29.984375 
L 43.40625 29.984375 
L 43.40625 38.09375 
L 69.28125 38.09375 
L 69.28125 6.78125 
Q 63.578125 2.734375 56.6875 0.65625 
Q 49.8125 -1.421875 42 -1.421875 
Q 24.90625 -1.421875 15.25 8.5625 
Q 5.609375 18.5625 5.609375 36.375 
Q 5.609375 54.25 15.25 64.234375 
Q 24.90625 74.21875 42 74.21875 
Q 49.125 74.21875 55.546875 72.453125 
Q 61.96875 70.703125 67.390625 67.28125 
L 67.390625 56.78125 
Q 61.921875 61.421875 55.765625 63.765625 
Q 49.609375 66.109375 42.828125 66.109375 
Q 29.4375 66.109375 22.71875 58.640625 
Q 16.015625 51.171875 16.015625 36.375 
Q 16.015625 21.625 22.71875 14.15625 
Q 29.4375 6.6875 42.828125 6.6875 
Q 48.046875 6.6875 52.140625 7.59375 
Q 56.25 8.5 59.515625 10.40625 
z
" id="DejaVuSans-47"/>
     <path d="M 54.890625 33.015625 
L 54.890625 0 
L 45.90625 0 
L 45.90625 32.71875 
Q 45.90625 40.484375 42.875 44.328125 
Q 39.84375 48.1875 33.796875 48.1875 
Q 26.515625 48.1875 22.3125 43.546875 
Q 18.109375 38.921875 18.109375 30.90625 
L 18.109375 0 
L 9.078125 0 
L 9.078125 75.984375 
L 18.109375 75.984375 
L 18.109375 46.1875 
Q 21.34375 51.125 25.703125 53.5625 
Q 30.078125 56 35.796875 56 
Q 45.21875 56 50.046875 50.171875 
Q 54.890625 44.34375 54.890625 33.015625 
z
" id="DejaVuSans-68"/>
     <path d="M 9.078125 75.984375 
L 18.109375 75.984375 
L 18.109375 31.109375 
L 44.921875 54.6875 
L 56.390625 54.6875 
L 27.390625 29.109375 
L 57.625 0 
L 45.90625 0 
L 18.109375 26.703125 
L 18.109375 0 
L 9.078125 0 
z
" id="DejaVuSans-6b"/>
    </defs>
    <g transform="translate(75.1565 18.84)scale(0.2 -0.2)">
     <use xlink:href="#DejaVuSans-32"/>
     <use x="63.623047" xlink:href="#DejaVuSans-31"/>
     <use x="127.246094" xlink:href="#DejaVuSans-20"/>
     <use x="159.033203" xlink:href="#DejaVuSans-47"/>
     <use x="236.523438" xlink:href="#DejaVuSans-61"/>
     <use x="297.802734" xlink:href="#DejaVuSans-6c"/>
     <use x="325.585938" xlink:href="#DejaVuSans-6c"/>
     <use x="353.369141" xlink:href="#DejaVuSans-61"/>
     <use x="414.648438" xlink:href="#DejaVuSans-67"/>
     <use x="478.125" xlink:href="#DejaVuSans-68"/>
     <use x="541.503906" xlink:href="#DejaVuSans-65"/>
     <use x="603.027344" xlink:href="#DejaVuSans-72"/>
     <use x="644.140625" xlink:href="#DejaVuSans-20"/>
     <use x="675.927734" xlink:href="#DejaVuSans-31"/>
     <use x="739.550781" xlink:href="#DejaVuSans-30"/>
     <use x="803.173828" xlink:href="#DejaVuSans-31"/>
     <use x="866.796875" xlink:href="#DejaVuSans-20"/>
     <use x="898.583984" xlink:href="#DejaVuSans-70"/>
     <use x="962.060547" xlink:href="#DejaVuSans-65"/>
     <use x="1023.583984" xlink:href="#DejaVuSans-61"/>
     <use x="1084.863281" xlink:href="#DejaVuSans-6b"/>
     <use x="1142.773438" xlink:href="#DejaVuSans-73"/>
    </g>
   </g>
  </g>
 </g>
 <defs>
  <clipPath id="p31f4c2475e">
   <rect height="270.04" width="277.048" x="56.12" y="24.84"/>
  </clipPath>
 </defs>
</svg>
