<?xml version="1.0" encoding="utf-8" standalone="no"?>
<!DOCTYPE svg PUBLIC "-//W3C//DTD SVG 1.1//EN"
  "http://www.w3.org/Graphics/SVG/1.1/DTD/svg11.dtd">
<!-- Created with matplotlib (http://matplotlib.org/) -->
<svg height="345pt" version="1.1" viewBox="0 0 460 345" width="460pt" xmlns="http://www.w3.org/2000/svg" xmlns:xlink="http://www.w3.org/1999/xlink">
 <defs>
  <style type="text/css">
*{stroke-linecap:butt;stroke-linejoin:round;}
  </style>
 </defs>
 <g id="figure_1">
  <g id="patch_1">
   <path d="M 0 345.6 
L 460.8 345.6 
L 460.8 0 
L 0 0 
z
" style="fill:#ffffff;"/>
  </g>
  <g id="axes_1">
   <g id="patch_2">
    <path d="M 56.12 294.88 
L 333.168 294.88 
L 333.168 24.84 
L 56.12 24.84 
z
" style="fill:#ffffff;"/>
   </g>
   <g id="line2d_1">
    <path d="M 4.627463 294.88 
L 4.627463 289.637523 
L 23.511104 289.637523 
L 23.511104 284.395046 
L 60.629683 284.395046 
L 60.629683 279.152568 
L 87.892408 279.152568 
L 87.892408 273.910091 
L 112.770924 273.910091 
L 112.770924 268.667614 
L 128.948245 268.667614 
L 128.948245 263.425137 
L 151.796099 263.425137 
L 151.796099 258.18266 
L 155.218437 258.18266 
L 155.218437 252.940182 
L 164.285728 252.940182 
L 164.285728 247.697705 
L 175.298563 247.697705 
L 175.298563 242.455228 
L 180.181125 242.455228 
L 180.181125 237.212751 
L 185.173518 237.212751 
L 185.173518 231.970274 
L 189.267933 231.970274 
L 189.267933 226.727797 
L 192.182783 226.727797 
L 192.182783 221.485319 
L 195.374406 221.485319 
L 195.374406 216.242842 
L 198.029737 216.242842 
L 198.029737 211.000365 
L 200.392174 211.000365 
L 200.392174 205.757888 
L 202.611119 205.757888 
L 202.611119 200.515411 
L 204.27363 200.515411 
L 204.27363 195.272933 
L 206.490431 195.272933 
L 206.490431 190.030456 
L 208.212158 190.030456 
L 208.212158 184.787979 
L 208.452744 184.787979 
L 208.452744 179.545502 
L 209.276131 179.545502 
L 209.276131 174.303025 
L 212.167166 174.303025 
L 212.167166 169.060547 
L 212.915552 169.060547 
L 212.915552 163.81807 
L 213.364103 163.81807 
L 213.364103 158.575593 
L 213.405848 158.575593 
L 213.405848 153.333116 
L 213.46214 153.333116 
L 213.46214 148.090639 
L 213.503739 148.090639 
L 213.503739 142.848162 
L 213.571372 142.848162 
L 213.571372 137.605684 
L 214.018843 137.605684 
L 214.018843 132.363207 
L 214.051299 132.363207 
L 214.051299 127.12073 
L 214.103241 127.12073 
L 214.103241 121.878253 
L 214.158958 121.878253 
L 214.158958 116.635776 
L 214.204481 116.635776 
L 214.204481 111.393298 
L 214.2405 111.393298 
L 214.2405 106.150821 
L 214.281213 106.150821 
L 214.281213 100.908344 
L 214.33264 100.908344 
L 214.33264 95.665867 
L 215.825804 95.665867 
L 215.825804 90.42339 
L 215.864753 90.42339 
L 215.864753 85.180912 
L 215.896749 85.180912 
L 215.896749 79.938435 
L 215.930891 79.938435 
L 215.930891 74.695958 
L 215.97086 74.695958 
L 215.97086 69.453481 
L 215.998501 69.453481 
L 215.998501 64.211004 
L 216.039957 64.211004 
L 216.039957 58.968526 
L 216.079128 58.968526 
L 216.079128 53.726049 
L 216.10909 53.726049 
L 216.10909 48.483572 
L 216.132228 48.483572 
L 216.132228 43.241095 
L 216.167848 43.241095 
L 216.167848 37.998618 
L 216.216106 37.998618 
L 216.216106 32.756141 
L 216.241963 32.756141 
L 216.241963 27.513663 
L 333.168 27.513663 
" style="fill:none;stroke:#f5deb3;stroke-linecap:square;stroke-width:4;"/>
   </g>
   <g id="line2d_2">
    <defs>
     <path d="M -0 7.778175 
L 7.778175 0 
L 0 -7.778175 
L -7.778175 -0 
z
" id="mf5485b6608" style="stroke:#f5deb3;stroke-linejoin:miter;stroke-width:1.5;"/>
    </defs>
    <g>
     <use style="fill:#f5deb3;stroke:#f5deb3;stroke-linejoin:miter;stroke-width:1.5;" x="151.796099" xlink:href="#mf5485b6608" y="258.18266"/>
     <use style="fill:#f5deb3;stroke:#f5deb3;stroke-linejoin:miter;stroke-width:1.5;" x="213.46214" xlink:href="#mf5485b6608" y="148.090639"/>
     <use style="fill:#f5deb3;stroke:#f5deb3;stroke-linejoin:miter;stroke-width:1.5;" x="216.079128" xlink:href="#mf5485b6608" y="53.726049"/>
     <use style="fill:#f5deb3;stroke:#f5deb3;stroke-linejoin:miter;stroke-width:1.5;" x="216.241963" xlink:href="#mf5485b6608" y="27.513663"/>
     <use style="fill:#f5deb3;stroke:#f5deb3;stroke-linejoin:miter;stroke-width:1.5;" x="216.241963" xlink:href="#mf5485b6608" y="27.513663"/>
     <use style="fill:#f5deb3;stroke:#f5deb3;stroke-linejoin:miter;stroke-width:1.5;" x="333.168" xlink:href="#mf5485b6608" y="27.513663"/>
    </g>
   </g>
   <g id="line2d_3">
    <path style="fill:none;stroke:#f5deb3;stroke-linecap:square;stroke-width:4;"/>
    <g/>
   </g>
   <g id="line2d_4">
    <path d="M 333.168 27.513663 
L 363.64328 32.86099 
" style="fill:none;stroke:#f5deb3;stroke-linecap:square;stroke-width:4;"/>
    <g>
     <use style="fill:#f5deb3;stroke:#f5deb3;stroke-linejoin:miter;stroke-width:1.5;" x="333.168" xlink:href="#mf5485b6608" y="27.513663"/>
     <use style="fill:#f5deb3;stroke:#f5deb3;stroke-linejoin:miter;stroke-width:1.5;" x="363.64328" xlink:href="#mf5485b6608" y="32.86099"/>
    </g>
   </g>
   <g id="matplotlib.axis_1">
    <g id="xtick_1">
     <g id="line2d_5">
      <path clip-path="url(#p564ba1d0dc)" d="M 56.12 294.88 
L 56.12 24.84 
" style="fill:none;stroke:#b0b0b0;stroke-linecap:square;stroke-width:0.8;"/>
     </g>
     <g id="line2d_6">
      <defs>
       <path d="M 0 0 
L 0 3.5 
" id="ma677ee4e64" style="stroke:#000000;stroke-width:0.8;"/>
      </defs>
      <g>
       <use style="stroke:#000000;stroke-width:0.8;" x="56.12" xlink:href="#ma677ee4e64" y="294.88"/>
      </g>
     </g>
     <g id="text_1">
      <!-- 0 -->
      <defs>
       <path d="M 31.78125 66.40625 
Q 24.171875 66.40625 20.328125 58.90625 
Q 16.5 51.421875 16.5 36.375 
Q 16.5 21.390625 20.328125 13.890625 
Q 24.171875 6.390625 31.78125 6.390625 
Q 39.453125 6.390625 43.28125 13.890625 
Q 47.125 21.390625 47.125 36.375 
Q 47.125 51.421875 43.28125 58.90625 
Q 39.453125 66.40625 31.78125 66.40625 
z
M 31.78125 74.21875 
Q 44.046875 74.21875 50.515625 64.515625 
Q 56.984375 54.828125 56.984375 36.375 
Q 56.984375 17.96875 50.515625 8.265625 
Q 44.046875 -1.421875 31.78125 -1.421875 
Q 19.53125 -1.421875 13.0625 8.265625 
Q 6.59375 17.96875 6.59375 36.375 
Q 6.59375 54.828125 13.0625 64.515625 
Q 19.53125 74.21875 31.78125 74.21875 
z
" id="DejaVuSans-30"/>
      </defs>
      <g transform="translate(49.7575 317.076875)scale(0.2 -0.2)">
       <use xlink:href="#DejaVuSans-30"/>
      </g>
     </g>
    </g>
    <g id="xtick_2">
     <g id="line2d_7">
      <path clip-path="url(#p564ba1d0dc)" d="M 135.276571 294.88 
L 135.276571 24.84 
" style="fill:none;stroke:#b0b0b0;stroke-linecap:square;stroke-width:0.8;"/>
     </g>
     <g id="line2d_8">
      <g>
       <use style="stroke:#000000;stroke-width:0.8;" x="135.276571" xlink:href="#ma677ee4e64" y="294.88"/>
      </g>
     </g>
     <g id="text_2">
      <!-- 2 -->
      <defs>
       <path d="M 19.1875 8.296875 
L 53.609375 8.296875 
L 53.609375 0 
L 7.328125 0 
L 7.328125 8.296875 
Q 12.9375 14.109375 22.625 23.890625 
Q 32.328125 33.6875 34.8125 36.53125 
Q 39.546875 41.84375 41.421875 45.53125 
Q 43.3125 49.21875 43.3125 52.78125 
Q 43.3125 58.59375 39.234375 62.25 
Q 35.15625 65.921875 28.609375 65.921875 
Q 23.96875 65.921875 18.8125 64.3125 
Q 13.671875 62.703125 7.8125 59.421875 
L 7.8125 69.390625 
Q 13.765625 71.78125 18.9375 73 
Q 24.125 74.21875 28.421875 74.21875 
Q 39.75 74.21875 46.484375 68.546875 
Q 53.21875 62.890625 53.21875 53.421875 
Q 53.21875 48.921875 51.53125 44.890625 
Q 49.859375 40.875 45.40625 35.40625 
Q 44.1875 33.984375 37.640625 27.21875 
Q 31.109375 20.453125 19.1875 8.296875 
z
" id="DejaVuSans-32"/>
      </defs>
      <g transform="translate(128.914071 317.076875)scale(0.2 -0.2)">
       <use xlink:href="#DejaVuSans-32"/>
      </g>
     </g>
    </g>
    <g id="xtick_3">
     <g id="line2d_9">
      <path clip-path="url(#p564ba1d0dc)" d="M 214.433143 294.88 
L 214.433143 24.84 
" style="fill:none;stroke:#b0b0b0;stroke-linecap:square;stroke-width:0.8;"/>
     </g>
     <g id="line2d_10">
      <g>
       <use style="stroke:#000000;stroke-width:0.8;" x="214.433143" xlink:href="#ma677ee4e64" y="294.88"/>
      </g>
     </g>
     <g id="text_3">
      <!-- 4 -->
      <defs>
       <path d="M 37.796875 64.3125 
L 12.890625 25.390625 
L 37.796875 25.390625 
z
M 35.203125 72.90625 
L 47.609375 72.90625 
L 47.609375 25.390625 
L 58.015625 25.390625 
L 58.015625 17.1875 
L 47.609375 17.1875 
L 47.609375 0 
L 37.796875 0 
L 37.796875 17.1875 
L 4.890625 17.1875 
L 4.890625 26.703125 
z
" id="DejaVuSans-34"/>
      </defs>
      <g transform="translate(208.070643 317.076875)scale(0.2 -0.2)">
       <use xlink:href="#DejaVuSans-34"/>
      </g>
     </g>
    </g>
    <g id="xtick_4">
     <g id="line2d_11">
      <path clip-path="url(#p564ba1d0dc)" d="M 293.589714 294.88 
L 293.589714 24.84 
" style="fill:none;stroke:#b0b0b0;stroke-linecap:square;stroke-width:0.8;"/>
     </g>
     <g id="line2d_12">
      <g>
       <use style="stroke:#000000;stroke-width:0.8;" x="293.589714" xlink:href="#ma677ee4e64" y="294.88"/>
      </g>
     </g>
     <g id="text_4">
      <!-- 6 -->
      <defs>
       <path d="M 33.015625 40.375 
Q 26.375 40.375 22.484375 35.828125 
Q 18.609375 31.296875 18.609375 23.390625 
Q 18.609375 15.53125 22.484375 10.953125 
Q 26.375 6.390625 33.015625 6.390625 
Q 39.65625 6.390625 43.53125 10.953125 
Q 47.40625 15.53125 47.40625 23.390625 
Q 47.40625 31.296875 43.53125 35.828125 
Q 39.65625 40.375 33.015625 40.375 
z
M 52.59375 71.296875 
L 52.59375 62.3125 
Q 48.875 64.0625 45.09375 64.984375 
Q 41.3125 65.921875 37.59375 65.921875 
Q 27.828125 65.921875 22.671875 59.328125 
Q 17.53125 52.734375 16.796875 39.40625 
Q 19.671875 43.65625 24.015625 45.921875 
Q 28.375 48.1875 33.59375 48.1875 
Q 44.578125 48.1875 50.953125 41.515625 
Q 57.328125 34.859375 57.328125 23.390625 
Q 57.328125 12.15625 50.6875 5.359375 
Q 44.046875 -1.421875 33.015625 -1.421875 
Q 20.359375 -1.421875 13.671875 8.265625 
Q 6.984375 17.96875 6.984375 36.375 
Q 6.984375 53.65625 15.1875 63.9375 
Q 23.390625 74.21875 37.203125 74.21875 
Q 40.921875 74.21875 44.703125 73.484375 
Q 48.484375 72.75 52.59375 71.296875 
z
" id="DejaVuSans-36"/>
      </defs>
      <g transform="translate(287.227214 317.076875)scale(0.2 -0.2)">
       <use xlink:href="#DejaVuSans-36"/>
      </g>
     </g>
    </g>
    <g id="xtick_5">
     <g id="line2d_13">
      <path clip-path="url(#p564ba1d0dc)" d="M 56.12 294.88 
L 56.12 24.84 
" style="fill:none;stroke:#b0b0b0;stroke-linecap:square;stroke-width:0.8;"/>
     </g>
     <g id="line2d_14">
      <defs>
       <path d="M 0 0 
L 0 2 
" id="m3f2d831038" style="stroke:#000000;stroke-width:0.6;"/>
      </defs>
      <g>
       <use style="stroke:#000000;stroke-width:0.6;" x="56.12" xlink:href="#m3f2d831038" y="294.88"/>
      </g>
     </g>
    </g>
    <g id="xtick_6">
     <g id="line2d_15">
      <path clip-path="url(#p564ba1d0dc)" d="M 95.698286 294.88 
L 95.698286 24.84 
" style="fill:none;stroke:#b0b0b0;stroke-linecap:square;stroke-width:0.8;"/>
     </g>
     <g id="line2d_16">
      <g>
       <use style="stroke:#000000;stroke-width:0.6;" x="95.698286" xlink:href="#m3f2d831038" y="294.88"/>
      </g>
     </g>
    </g>
    <g id="xtick_7">
     <g id="line2d_17">
      <path clip-path="url(#p564ba1d0dc)" d="M 135.276571 294.88 
L 135.276571 24.84 
" style="fill:none;stroke:#b0b0b0;stroke-linecap:square;stroke-width:0.8;"/>
     </g>
     <g id="line2d_18">
      <g>
       <use style="stroke:#000000;stroke-width:0.6;" x="135.276571" xlink:href="#m3f2d831038" y="294.88"/>
      </g>
     </g>
    </g>
    <g id="xtick_8">
     <g id="line2d_19">
      <path clip-path="url(#p564ba1d0dc)" d="M 174.854857 294.88 
L 174.854857 24.84 
" style="fill:none;stroke:#b0b0b0;stroke-linecap:square;stroke-width:0.8;"/>
     </g>
     <g id="line2d_20">
      <g>
       <use style="stroke:#000000;stroke-width:0.6;" x="174.854857" xlink:href="#m3f2d831038" y="294.88"/>
      </g>
     </g>
    </g>
    <g id="xtick_9">
     <g id="line2d_21">
      <path clip-path="url(#p564ba1d0dc)" d="M 214.433143 294.88 
L 214.433143 24.84 
" style="fill:none;stroke:#b0b0b0;stroke-linecap:square;stroke-width:0.8;"/>
     </g>
     <g id="line2d_22">
      <g>
       <use style="stroke:#000000;stroke-width:0.6;" x="214.433143" xlink:href="#m3f2d831038" y="294.88"/>
      </g>
     </g>
    </g>
    <g id="xtick_10">
     <g id="line2d_23">
      <path clip-path="url(#p564ba1d0dc)" d="M 254.011429 294.88 
L 254.011429 24.84 
" style="fill:none;stroke:#b0b0b0;stroke-linecap:square;stroke-width:0.8;"/>
     </g>
     <g id="line2d_24">
      <g>
       <use style="stroke:#000000;stroke-width:0.6;" x="254.011429" xlink:href="#m3f2d831038" y="294.88"/>
      </g>
     </g>
    </g>
    <g id="xtick_11">
     <g id="line2d_25">
      <path clip-path="url(#p564ba1d0dc)" d="M 293.589714 294.88 
L 293.589714 24.84 
" style="fill:none;stroke:#b0b0b0;stroke-linecap:square;stroke-width:0.8;"/>
     </g>
     <g id="line2d_26">
      <g>
       <use style="stroke:#000000;stroke-width:0.6;" x="293.589714" xlink:href="#m3f2d831038" y="294.88"/>
      </g>
     </g>
    </g>
    <g id="xtick_12">
     <g id="line2d_27">
      <path clip-path="url(#p564ba1d0dc)" d="M 333.168 294.88 
L 333.168 24.84 
" style="fill:none;stroke:#b0b0b0;stroke-linecap:square;stroke-width:0.8;"/>
     </g>
     <g id="line2d_28">
      <g>
       <use style="stroke:#000000;stroke-width:0.6;" x="333.168" xlink:href="#m3f2d831038" y="294.88"/>
      </g>
     </g>
    </g>
    <g id="text_5">
     <!-- log10(# f-evals / dimension) -->
     <defs>
      <path d="M 9.421875 75.984375 
L 18.40625 75.984375 
L 18.40625 0 
L 9.421875 0 
z
" id="DejaVuSans-6c"/>
      <path d="M 30.609375 48.390625 
Q 23.390625 48.390625 19.1875 42.75 
Q 14.984375 37.109375 14.984375 27.296875 
Q 14.984375 17.484375 19.15625 11.84375 
Q 23.34375 6.203125 30.609375 6.203125 
Q 37.796875 6.203125 41.984375 11.859375 
Q 46.1875 17.53125 46.1875 27.296875 
Q 46.1875 37.015625 41.984375 42.703125 
Q 37.796875 48.390625 30.609375 48.390625 
z
M 30.609375 56 
Q 42.328125 56 49.015625 48.375 
Q 55.71875 40.765625 55.71875 27.296875 
Q 55.71875 13.875 49.015625 6.21875 
Q 42.328125 -1.421875 30.609375 -1.421875 
Q 18.84375 -1.421875 12.171875 6.21875 
Q 5.515625 13.875 5.515625 27.296875 
Q 5.515625 40.765625 12.171875 48.375 
Q 18.84375 56 30.609375 56 
z
" id="DejaVuSans-6f"/>
      <path d="M 45.40625 27.984375 
Q 45.40625 37.75 41.375 43.109375 
Q 37.359375 48.484375 30.078125 48.484375 
Q 22.859375 48.484375 18.828125 43.109375 
Q 14.796875 37.75 14.796875 27.984375 
Q 14.796875 18.265625 18.828125 12.890625 
Q 22.859375 7.515625 30.078125 7.515625 
Q 37.359375 7.515625 41.375 12.890625 
Q 45.40625 18.265625 45.40625 27.984375 
z
M 54.390625 6.78125 
Q 54.390625 -7.171875 48.1875 -13.984375 
Q 42 -20.796875 29.203125 -20.796875 
Q 24.46875 -20.796875 20.265625 -20.09375 
Q 16.0625 -19.390625 12.109375 -17.921875 
L 12.109375 -9.1875 
Q 16.0625 -11.328125 19.921875 -12.34375 
Q 23.78125 -13.375 27.78125 -13.375 
Q 36.625 -13.375 41.015625 -8.765625 
Q 45.40625 -4.15625 45.40625 5.171875 
L 45.40625 9.625 
Q 42.625 4.78125 38.28125 2.390625 
Q 33.9375 0 27.875 0 
Q 17.828125 0 11.671875 7.65625 
Q 5.515625 15.328125 5.515625 27.984375 
Q 5.515625 40.671875 11.671875 48.328125 
Q 17.828125 56 27.875 56 
Q 33.9375 56 38.28125 53.609375 
Q 42.625 51.21875 45.40625 46.390625 
L 45.40625 54.6875 
L 54.390625 54.6875 
z
" id="DejaVuSans-67"/>
      <path d="M 12.40625 8.296875 
L 28.515625 8.296875 
L 28.515625 63.921875 
L 10.984375 60.40625 
L 10.984375 69.390625 
L 28.421875 72.90625 
L 38.28125 72.90625 
L 38.28125 8.296875 
L 54.390625 8.296875 
L 54.390625 0 
L 12.40625 0 
z
" id="DejaVuSans-31"/>
      <path d="M 31 75.875 
Q 24.46875 64.65625 21.28125 53.65625 
Q 18.109375 42.671875 18.109375 31.390625 
Q 18.109375 20.125 21.3125 9.0625 
Q 24.515625 -2 31 -13.1875 
L 23.1875 -13.1875 
Q 15.875 -1.703125 12.234375 9.375 
Q 8.59375 20.453125 8.59375 31.390625 
Q 8.59375 42.28125 12.203125 53.3125 
Q 15.828125 64.359375 23.1875 75.875 
z
" id="DejaVuSans-28"/>
      <path d="M 51.125 44 
L 36.921875 44 
L 32.8125 27.6875 
L 47.125 27.6875 
z
M 43.796875 71.78125 
L 38.71875 51.515625 
L 52.984375 51.515625 
L 58.109375 71.78125 
L 65.921875 71.78125 
L 60.890625 51.515625 
L 76.125 51.515625 
L 76.125 44 
L 58.984375 44 
L 54.984375 27.6875 
L 70.515625 27.6875 
L 70.515625 20.21875 
L 53.078125 20.21875 
L 48 0 
L 40.1875 0 
L 45.21875 20.21875 
L 30.90625 20.21875 
L 25.875 0 
L 18.015625 0 
L 23.09375 20.21875 
L 7.71875 20.21875 
L 7.71875 27.6875 
L 24.90625 27.6875 
L 29 44 
L 13.28125 44 
L 13.28125 51.515625 
L 30.90625 51.515625 
L 35.890625 71.78125 
z
" id="DejaVuSans-23"/>
      <path id="DejaVuSans-20"/>
      <path d="M 37.109375 75.984375 
L 37.109375 68.5 
L 28.515625 68.5 
Q 23.6875 68.5 21.796875 66.546875 
Q 19.921875 64.59375 19.921875 59.515625 
L 19.921875 54.6875 
L 34.71875 54.6875 
L 34.71875 47.703125 
L 19.921875 47.703125 
L 19.921875 0 
L 10.890625 0 
L 10.890625 47.703125 
L 2.296875 47.703125 
L 2.296875 54.6875 
L 10.890625 54.6875 
L 10.890625 58.5 
Q 10.890625 67.625 15.140625 71.796875 
Q 19.390625 75.984375 28.609375 75.984375 
z
" id="DejaVuSans-66"/>
      <path d="M 4.890625 31.390625 
L 31.203125 31.390625 
L 31.203125 23.390625 
L 4.890625 23.390625 
z
" id="DejaVuSans-2d"/>
      <path d="M 56.203125 29.59375 
L 56.203125 25.203125 
L 14.890625 25.203125 
Q 15.484375 15.921875 20.484375 11.0625 
Q 25.484375 6.203125 34.421875 6.203125 
Q 39.59375 6.203125 44.453125 7.46875 
Q 49.3125 8.734375 54.109375 11.28125 
L 54.109375 2.78125 
Q 49.265625 0.734375 44.1875 -0.34375 
Q 39.109375 -1.421875 33.890625 -1.421875 
Q 20.796875 -1.421875 13.15625 6.1875 
Q 5.515625 13.8125 5.515625 26.8125 
Q 5.515625 40.234375 12.765625 48.109375 
Q 20.015625 56 32.328125 56 
Q 43.359375 56 49.78125 48.890625 
Q 56.203125 41.796875 56.203125 29.59375 
z
M 47.21875 32.234375 
Q 47.125 39.59375 43.09375 43.984375 
Q 39.0625 48.390625 32.421875 48.390625 
Q 24.90625 48.390625 20.390625 44.140625 
Q 15.875 39.890625 15.1875 32.171875 
z
" id="DejaVuSans-65"/>
      <path d="M 2.984375 54.6875 
L 12.5 54.6875 
L 29.59375 8.796875 
L 46.6875 54.6875 
L 56.203125 54.6875 
L 35.6875 0 
L 23.484375 0 
z
" id="DejaVuSans-76"/>
      <path d="M 34.28125 27.484375 
Q 23.390625 27.484375 19.1875 25 
Q 14.984375 22.515625 14.984375 16.5 
Q 14.984375 11.71875 18.140625 8.90625 
Q 21.296875 6.109375 26.703125 6.109375 
Q 34.1875 6.109375 38.703125 11.40625 
Q 43.21875 16.703125 43.21875 25.484375 
L 43.21875 27.484375 
z
M 52.203125 31.203125 
L 52.203125 0 
L 43.21875 0 
L 43.21875 8.296875 
Q 40.140625 3.328125 35.546875 0.953125 
Q 30.953125 -1.421875 24.3125 -1.421875 
Q 15.921875 -1.421875 10.953125 3.296875 
Q 6 8.015625 6 15.921875 
Q 6 25.140625 12.171875 29.828125 
Q 18.359375 34.515625 30.609375 34.515625 
L 43.21875 34.515625 
L 43.21875 35.40625 
Q 43.21875 41.609375 39.140625 45 
Q 35.0625 48.390625 27.6875 48.390625 
Q 23 48.390625 18.546875 47.265625 
Q 14.109375 46.140625 10.015625 43.890625 
L 10.015625 52.203125 
Q 14.9375 54.109375 19.578125 55.046875 
Q 24.21875 56 28.609375 56 
Q 40.484375 56 46.34375 49.84375 
Q 52.203125 43.703125 52.203125 31.203125 
z
" id="DejaVuSans-61"/>
      <path d="M 44.28125 53.078125 
L 44.28125 44.578125 
Q 40.484375 46.53125 36.375 47.5 
Q 32.28125 48.484375 27.875 48.484375 
Q 21.1875 48.484375 17.84375 46.4375 
Q 14.5 44.390625 14.5 40.28125 
Q 14.5 37.15625 16.890625 35.375 
Q 19.28125 33.59375 26.515625 31.984375 
L 29.59375 31.296875 
Q 39.15625 29.25 43.1875 25.515625 
Q 47.21875 21.78125 47.21875 15.09375 
Q 47.21875 7.46875 41.1875 3.015625 
Q 35.15625 -1.421875 24.609375 -1.421875 
Q 20.21875 -1.421875 15.453125 -0.5625 
Q 10.6875 0.296875 5.421875 2 
L 5.421875 11.28125 
Q 10.40625 8.6875 15.234375 7.390625 
Q 20.0625 6.109375 24.8125 6.109375 
Q 31.15625 6.109375 34.5625 8.28125 
Q 37.984375 10.453125 37.984375 14.40625 
Q 37.984375 18.0625 35.515625 20.015625 
Q 33.0625 21.96875 24.703125 23.78125 
L 21.578125 24.515625 
Q 13.234375 26.265625 9.515625 29.90625 
Q 5.8125 33.546875 5.8125 39.890625 
Q 5.8125 47.609375 11.28125 51.796875 
Q 16.75 56 26.8125 56 
Q 31.78125 56 36.171875 55.265625 
Q 40.578125 54.546875 44.28125 53.078125 
z
" id="DejaVuSans-73"/>
      <path d="M 25.390625 72.90625 
L 33.6875 72.90625 
L 8.296875 -9.28125 
L 0 -9.28125 
z
" id="DejaVuSans-2f"/>
      <path d="M 45.40625 46.390625 
L 45.40625 75.984375 
L 54.390625 75.984375 
L 54.390625 0 
L 45.40625 0 
L 45.40625 8.203125 
Q 42.578125 3.328125 38.25 0.953125 
Q 33.9375 -1.421875 27.875 -1.421875 
Q 17.96875 -1.421875 11.734375 6.484375 
Q 5.515625 14.40625 5.515625 27.296875 
Q 5.515625 40.1875 11.734375 48.09375 
Q 17.96875 56 27.875 56 
Q 33.9375 56 38.25 53.625 
Q 42.578125 51.265625 45.40625 46.390625 
z
M 14.796875 27.296875 
Q 14.796875 17.390625 18.875 11.75 
Q 22.953125 6.109375 30.078125 6.109375 
Q 37.203125 6.109375 41.296875 11.75 
Q 45.40625 17.390625 45.40625 27.296875 
Q 45.40625 37.203125 41.296875 42.84375 
Q 37.203125 48.484375 30.078125 48.484375 
Q 22.953125 48.484375 18.875 42.84375 
Q 14.796875 37.203125 14.796875 27.296875 
z
" id="DejaVuSans-64"/>
      <path d="M 9.421875 54.6875 
L 18.40625 54.6875 
L 18.40625 0 
L 9.421875 0 
z
M 9.421875 75.984375 
L 18.40625 75.984375 
L 18.40625 64.59375 
L 9.421875 64.59375 
z
" id="DejaVuSans-69"/>
      <path d="M 52 44.1875 
Q 55.375 50.25 60.0625 53.125 
Q 64.75 56 71.09375 56 
Q 79.640625 56 84.28125 50.015625 
Q 88.921875 44.046875 88.921875 33.015625 
L 88.921875 0 
L 79.890625 0 
L 79.890625 32.71875 
Q 79.890625 40.578125 77.09375 44.375 
Q 74.3125 48.1875 68.609375 48.1875 
Q 61.625 48.1875 57.5625 43.546875 
Q 53.515625 38.921875 53.515625 30.90625 
L 53.515625 0 
L 44.484375 0 
L 44.484375 32.71875 
Q 44.484375 40.625 41.703125 44.40625 
Q 38.921875 48.1875 33.109375 48.1875 
Q 26.21875 48.1875 22.15625 43.53125 
Q 18.109375 38.875 18.109375 30.90625 
L 18.109375 0 
L 9.078125 0 
L 9.078125 54.6875 
L 18.109375 54.6875 
L 18.109375 46.1875 
Q 21.1875 51.21875 25.484375 53.609375 
Q 29.78125 56 35.6875 56 
Q 41.65625 56 45.828125 52.96875 
Q 50 49.953125 52 44.1875 
z
" id="DejaVuSans-6d"/>
      <path d="M 54.890625 33.015625 
L 54.890625 0 
L 45.90625 0 
L 45.90625 32.71875 
Q 45.90625 40.484375 42.875 44.328125 
Q 39.84375 48.1875 33.796875 48.1875 
Q 26.515625 48.1875 22.3125 43.546875 
Q 18.109375 38.921875 18.109375 30.90625 
L 18.109375 0 
L 9.078125 0 
L 9.078125 54.6875 
L 18.109375 54.6875 
L 18.109375 46.1875 
Q 21.34375 51.125 25.703125 53.5625 
Q 30.078125 56 35.796875 56 
Q 45.21875 56 50.046875 50.171875 
Q 54.890625 44.34375 54.890625 33.015625 
z
" id="DejaVuSans-6e"/>
      <path d="M 8.015625 75.875 
L 15.828125 75.875 
Q 23.140625 64.359375 26.78125 53.3125 
Q 30.421875 42.28125 30.421875 31.390625 
Q 30.421875 20.453125 26.78125 9.375 
Q 23.140625 -1.703125 15.828125 -13.1875 
L 8.015625 -13.1875 
Q 14.5 -2 17.703125 9.0625 
Q 20.90625 20.125 20.90625 31.390625 
Q 20.90625 42.671875 17.703125 53.65625 
Q 14.5 64.65625 8.015625 75.875 
z
" id="DejaVuSans-29"/>
     </defs>
     <g transform="translate(73.803219 338.153594)scale(0.17 -0.17)">
      <use xlink:href="#DejaVuSans-6c"/>
      <use x="27.783203" xlink:href="#DejaVuSans-6f"/>
      <use x="88.964844" xlink:href="#DejaVuSans-67"/>
      <use x="152.441406" xlink:href="#DejaVuSans-31"/>
      <use x="216.064453" xlink:href="#DejaVuSans-30"/>
      <use x="279.6875" xlink:href="#DejaVuSans-28"/>
      <use x="318.701172" xlink:href="#DejaVuSans-23"/>
      <use x="402.490234" xlink:href="#DejaVuSans-20"/>
      <use x="434.277344" xlink:href="#DejaVuSans-66"/>
      <use x="469.404297" xlink:href="#DejaVuSans-2d"/>
      <use x="505.488281" xlink:href="#DejaVuSans-65"/>
      <use x="567.011719" xlink:href="#DejaVuSans-76"/>
      <use x="626.191406" xlink:href="#DejaVuSans-61"/>
      <use x="687.470703" xlink:href="#DejaVuSans-6c"/>
      <use x="715.253906" xlink:href="#DejaVuSans-73"/>
      <use x="767.353516" xlink:href="#DejaVuSans-20"/>
      <use x="799.140625" xlink:href="#DejaVuSans-2f"/>
      <use x="832.832031" xlink:href="#DejaVuSans-20"/>
      <use x="864.619141" xlink:href="#DejaVuSans-64"/>
      <use x="928.095703" xlink:href="#DejaVuSans-69"/>
      <use x="955.878906" xlink:href="#DejaVuSans-6d"/>
      <use x="1053.291016" xlink:href="#DejaVuSans-65"/>
      <use x="1114.814453" xlink:href="#DejaVuSans-6e"/>
      <use x="1178.193359" xlink:href="#DejaVuSans-73"/>
      <use x="1230.292969" xlink:href="#DejaVuSans-69"/>
      <use x="1258.076172" xlink:href="#DejaVuSans-6f"/>
      <use x="1319.257812" xlink:href="#DejaVuSans-6e"/>
      <use x="1382.636719" xlink:href="#DejaVuSans-29"/>
     </g>
    </g>
   </g>
   <g id="matplotlib.axis_2">
    <g id="ytick_1">
     <g id="line2d_29">
      <path clip-path="url(#p564ba1d0dc)" d="M 56.12 294.88 
L 333.168 294.88 
" style="fill:none;stroke:#b0b0b0;stroke-linecap:square;stroke-width:0.8;"/>
     </g>
     <g id="line2d_30">
      <defs>
       <path d="M 0 0 
L -3.5 0 
" id="m39ab0ebd7a" style="stroke:#000000;stroke-width:0.8;"/>
      </defs>
      <g>
       <use style="stroke:#000000;stroke-width:0.8;" x="56.12" xlink:href="#m39ab0ebd7a" y="294.88"/>
      </g>
     </g>
     <g id="text_6">
      <!-- 0.0 -->
      <defs>
       <path d="M 10.6875 12.40625 
L 21 12.40625 
L 21 0 
L 10.6875 0 
z
" id="DejaVuSans-2e"/>
      </defs>
      <g transform="translate(23.675 300.95875)scale(0.16 -0.16)">
       <use xlink:href="#DejaVuSans-30"/>
       <use x="63.623047" xlink:href="#DejaVuSans-2e"/>
       <use x="95.410156" xlink:href="#DejaVuSans-30"/>
      </g>
     </g>
    </g>
    <g id="ytick_2">
     <g id="line2d_31">
      <path clip-path="url(#p564ba1d0dc)" d="M 56.12 241.406733 
L 333.168 241.406733 
" style="fill:none;stroke:#b0b0b0;stroke-linecap:square;stroke-width:0.8;"/>
     </g>
     <g id="line2d_32">
      <g>
       <use style="stroke:#000000;stroke-width:0.8;" x="56.12" xlink:href="#m39ab0ebd7a" y="241.406733"/>
      </g>
     </g>
     <g id="text_7">
      <!-- 0.2 -->
      <g transform="translate(23.675 247.485483)scale(0.16 -0.16)">
       <use xlink:href="#DejaVuSans-30"/>
       <use x="63.623047" xlink:href="#DejaVuSans-2e"/>
       <use x="95.410156" xlink:href="#DejaVuSans-32"/>
      </g>
     </g>
    </g>
    <g id="ytick_3">
     <g id="line2d_33">
      <path clip-path="url(#p564ba1d0dc)" d="M 56.12 187.933465 
L 333.168 187.933465 
" style="fill:none;stroke:#b0b0b0;stroke-linecap:square;stroke-width:0.8;"/>
     </g>
     <g id="line2d_34">
      <g>
       <use style="stroke:#000000;stroke-width:0.8;" x="56.12" xlink:href="#m39ab0ebd7a" y="187.933465"/>
      </g>
     </g>
     <g id="text_8">
      <!-- 0.4 -->
      <g transform="translate(23.675 194.012215)scale(0.16 -0.16)">
       <use xlink:href="#DejaVuSans-30"/>
       <use x="63.623047" xlink:href="#DejaVuSans-2e"/>
       <use x="95.410156" xlink:href="#DejaVuSans-34"/>
      </g>
     </g>
    </g>
    <g id="ytick_4">
     <g id="line2d_35">
      <path clip-path="url(#p564ba1d0dc)" d="M 56.12 134.460198 
L 333.168 134.460198 
" style="fill:none;stroke:#b0b0b0;stroke-linecap:square;stroke-width:0.8;"/>
     </g>
     <g id="line2d_36">
      <g>
       <use style="stroke:#000000;stroke-width:0.8;" x="56.12" xlink:href="#m39ab0ebd7a" y="134.460198"/>
      </g>
     </g>
     <g id="text_9">
      <!-- 0.6 -->
      <g transform="translate(23.675 140.538948)scale(0.16 -0.16)">
       <use xlink:href="#DejaVuSans-30"/>
       <use x="63.623047" xlink:href="#DejaVuSans-2e"/>
       <use x="95.410156" xlink:href="#DejaVuSans-36"/>
      </g>
     </g>
    </g>
    <g id="ytick_5">
     <g id="line2d_37">
      <path clip-path="url(#p564ba1d0dc)" d="M 56.12 80.986931 
L 333.168 80.986931 
" style="fill:none;stroke:#b0b0b0;stroke-linecap:square;stroke-width:0.8;"/>
     </g>
     <g id="line2d_38">
      <g>
       <use style="stroke:#000000;stroke-width:0.8;" x="56.12" xlink:href="#m39ab0ebd7a" y="80.986931"/>
      </g>
     </g>
     <g id="text_10">
      <!-- 0.8 -->
      <defs>
       <path d="M 31.78125 34.625 
Q 24.75 34.625 20.71875 30.859375 
Q 16.703125 27.09375 16.703125 20.515625 
Q 16.703125 13.921875 20.71875 10.15625 
Q 24.75 6.390625 31.78125 6.390625 
Q 38.8125 6.390625 42.859375 10.171875 
Q 46.921875 13.96875 46.921875 20.515625 
Q 46.921875 27.09375 42.890625 30.859375 
Q 38.875 34.625 31.78125 34.625 
z
M 21.921875 38.8125 
Q 15.578125 40.375 12.03125 44.71875 
Q 8.5 49.078125 8.5 55.328125 
Q 8.5 64.0625 14.71875 69.140625 
Q 20.953125 74.21875 31.78125 74.21875 
Q 42.671875 74.21875 48.875 69.140625 
Q 55.078125 64.0625 55.078125 55.328125 
Q 55.078125 49.078125 51.53125 44.71875 
Q 48 40.375 41.703125 38.8125 
Q 48.828125 37.15625 52.796875 32.3125 
Q 56.78125 27.484375 56.78125 20.515625 
Q 56.78125 9.90625 50.3125 4.234375 
Q 43.84375 -1.421875 31.78125 -1.421875 
Q 19.734375 -1.421875 13.25 4.234375 
Q 6.78125 9.90625 6.78125 20.515625 
Q 6.78125 27.484375 10.78125 32.3125 
Q 14.796875 37.15625 21.921875 38.8125 
z
M 18.3125 54.390625 
Q 18.3125 48.734375 21.84375 45.5625 
Q 25.390625 42.390625 31.78125 42.390625 
Q 38.140625 42.390625 41.71875 45.5625 
Q 45.3125 48.734375 45.3125 54.390625 
Q 45.3125 60.0625 41.71875 63.234375 
Q 38.140625 66.40625 31.78125 66.40625 
Q 25.390625 66.40625 21.84375 63.234375 
Q 18.3125 60.0625 18.3125 54.390625 
z
" id="DejaVuSans-38"/>
      </defs>
      <g transform="translate(23.675 87.065681)scale(0.16 -0.16)">
       <use xlink:href="#DejaVuSans-30"/>
       <use x="63.623047" xlink:href="#DejaVuSans-2e"/>
       <use x="95.410156" xlink:href="#DejaVuSans-38"/>
      </g>
     </g>
    </g>
    <g id="ytick_6">
     <g id="line2d_39">
      <path clip-path="url(#p564ba1d0dc)" d="M 56.12 27.513663 
L 333.168 27.513663 
" style="fill:none;stroke:#b0b0b0;stroke-linecap:square;stroke-width:0.8;"/>
     </g>
     <g id="line2d_40">
      <g>
       <use style="stroke:#000000;stroke-width:0.8;" x="56.12" xlink:href="#m39ab0ebd7a" y="27.513663"/>
      </g>
     </g>
     <g id="text_11">
      <!-- 1.0 -->
      <g transform="translate(23.675 33.592413)scale(0.16 -0.16)">
       <use xlink:href="#DejaVuSans-31"/>
       <use x="63.623047" xlink:href="#DejaVuSans-2e"/>
       <use x="95.410156" xlink:href="#DejaVuSans-30"/>
      </g>
     </g>
    </g>
    <g id="text_12">
     <!-- Fraction of function,target pairs -->
     <defs>
      <path d="M 9.8125 72.90625 
L 51.703125 72.90625 
L 51.703125 64.59375 
L 19.671875 64.59375 
L 19.671875 43.109375 
L 48.578125 43.109375 
L 48.578125 34.8125 
L 19.671875 34.8125 
L 19.671875 0 
L 9.8125 0 
z
" id="DejaVuSans-46"/>
      <path d="M 41.109375 46.296875 
Q 39.59375 47.171875 37.8125 47.578125 
Q 36.03125 48 33.890625 48 
Q 26.265625 48 22.1875 43.046875 
Q 18.109375 38.09375 18.109375 28.8125 
L 18.109375 0 
L 9.078125 0 
L 9.078125 54.6875 
L 18.109375 54.6875 
L 18.109375 46.1875 
Q 20.953125 51.171875 25.484375 53.578125 
Q 30.03125 56 36.53125 56 
Q 37.453125 56 38.578125 55.875 
Q 39.703125 55.765625 41.0625 55.515625 
z
" id="DejaVuSans-72"/>
      <path d="M 48.78125 52.59375 
L 48.78125 44.1875 
Q 44.96875 46.296875 41.140625 47.34375 
Q 37.3125 48.390625 33.40625 48.390625 
Q 24.65625 48.390625 19.8125 42.84375 
Q 14.984375 37.3125 14.984375 27.296875 
Q 14.984375 17.28125 19.8125 11.734375 
Q 24.65625 6.203125 33.40625 6.203125 
Q 37.3125 6.203125 41.140625 7.25 
Q 44.96875 8.296875 48.78125 10.40625 
L 48.78125 2.09375 
Q 45.015625 0.34375 40.984375 -0.53125 
Q 36.96875 -1.421875 32.421875 -1.421875 
Q 20.0625 -1.421875 12.78125 6.34375 
Q 5.515625 14.109375 5.515625 27.296875 
Q 5.515625 40.671875 12.859375 48.328125 
Q 20.21875 56 33.015625 56 
Q 37.15625 56 41.109375 55.140625 
Q 45.0625 54.296875 48.78125 52.59375 
z
" id="DejaVuSans-63"/>
      <path d="M 18.3125 70.21875 
L 18.3125 54.6875 
L 36.8125 54.6875 
L 36.8125 47.703125 
L 18.3125 47.703125 
L 18.3125 18.015625 
Q 18.3125 11.328125 20.140625 9.421875 
Q 21.96875 7.515625 27.59375 7.515625 
L 36.8125 7.515625 
L 36.8125 0 
L 27.59375 0 
Q 17.1875 0 13.234375 3.875 
Q 9.28125 7.765625 9.28125 18.015625 
L 9.28125 47.703125 
L 2.6875 47.703125 
L 2.6875 54.6875 
L 9.28125 54.6875 
L 9.28125 70.21875 
z
" id="DejaVuSans-74"/>
      <path d="M 8.5 21.578125 
L 8.5 54.6875 
L 17.484375 54.6875 
L 17.484375 21.921875 
Q 17.484375 14.15625 20.5 10.265625 
Q 23.53125 6.390625 29.59375 6.390625 
Q 36.859375 6.390625 41.078125 11.03125 
Q 45.3125 15.671875 45.3125 23.6875 
L 45.3125 54.6875 
L 54.296875 54.6875 
L 54.296875 0 
L 45.3125 0 
L 45.3125 8.40625 
Q 42.046875 3.421875 37.71875 1 
Q 33.40625 -1.421875 27.6875 -1.421875 
Q 18.265625 -1.421875 13.375 4.4375 
Q 8.5 10.296875 8.5 21.578125 
z
M 31.109375 56 
z
" id="DejaVuSans-75"/>
      <path d="M 11.71875 12.40625 
L 22.015625 12.40625 
L 22.015625 4 
L 14.015625 -11.625 
L 7.71875 -11.625 
L 11.71875 4 
z
" id="DejaVuSans-2c"/>
      <path d="M 18.109375 8.203125 
L 18.109375 -20.796875 
L 9.078125 -20.796875 
L 9.078125 54.6875 
L 18.109375 54.6875 
L 18.109375 46.390625 
Q 20.953125 51.265625 25.265625 53.625 
Q 29.59375 56 35.59375 56 
Q 45.5625 56 51.78125 48.09375 
Q 58.015625 40.1875 58.015625 27.296875 
Q 58.015625 14.40625 51.78125 6.484375 
Q 45.5625 -1.421875 35.59375 -1.421875 
Q 29.59375 -1.421875 25.265625 0.953125 
Q 20.953125 3.328125 18.109375 8.203125 
z
M 48.6875 27.296875 
Q 48.6875 37.203125 44.609375 42.84375 
Q 40.53125 48.484375 33.40625 48.484375 
Q 26.265625 48.484375 22.1875 42.84375 
Q 18.109375 37.203125 18.109375 27.296875 
Q 18.109375 17.390625 22.1875 11.75 
Q 26.265625 6.109375 33.40625 6.109375 
Q 40.53125 6.109375 44.609375 11.75 
Q 48.6875 17.390625 48.6875 27.296875 
z
" id="DejaVuSans-70"/>
     </defs>
     <g transform="translate(16.139531 294.999375)rotate(-90)scale(0.17 -0.17)">
      <use xlink:href="#DejaVuSans-46"/>
      <use x="57.410156" xlink:href="#DejaVuSans-72"/>
      <use x="98.523438" xlink:href="#DejaVuSans-61"/>
      <use x="159.802734" xlink:href="#DejaVuSans-63"/>
      <use x="214.783203" xlink:href="#DejaVuSans-74"/>
      <use x="253.992188" xlink:href="#DejaVuSans-69"/>
      <use x="281.775391" xlink:href="#DejaVuSans-6f"/>
      <use x="342.957031" xlink:href="#DejaVuSans-6e"/>
      <use x="406.335938" xlink:href="#DejaVuSans-20"/>
      <use x="438.123047" xlink:href="#DejaVuSans-6f"/>
      <use x="499.304688" xlink:href="#DejaVuSans-66"/>
      <use x="534.509766" xlink:href="#DejaVuSans-20"/>
      <use x="566.296875" xlink:href="#DejaVuSans-66"/>
      <use x="601.501953" xlink:href="#DejaVuSans-75"/>
      <use x="664.880859" xlink:href="#DejaVuSans-6e"/>
      <use x="728.259766" xlink:href="#DejaVuSans-63"/>
      <use x="783.240234" xlink:href="#DejaVuSans-74"/>
      <use x="822.449219" xlink:href="#DejaVuSans-69"/>
      <use x="850.232422" xlink:href="#DejaVuSans-6f"/>
      <use x="911.414062" xlink:href="#DejaVuSans-6e"/>
      <use x="974.792969" xlink:href="#DejaVuSans-2c"/>
      <use x="1006.580078" xlink:href="#DejaVuSans-74"/>
      <use x="1045.789062" xlink:href="#DejaVuSans-61"/>
      <use x="1107.068359" xlink:href="#DejaVuSans-72"/>
      <use x="1148.166016" xlink:href="#DejaVuSans-67"/>
      <use x="1211.642578" xlink:href="#DejaVuSans-65"/>
      <use x="1273.166016" xlink:href="#DejaVuSans-74"/>
      <use x="1312.375" xlink:href="#DejaVuSans-20"/>
      <use x="1344.162109" xlink:href="#DejaVuSans-70"/>
      <use x="1407.638672" xlink:href="#DejaVuSans-61"/>
      <use x="1468.917969" xlink:href="#DejaVuSans-69"/>
      <use x="1496.701172" xlink:href="#DejaVuSans-72"/>
      <use x="1537.814453" xlink:href="#DejaVuSans-73"/>
     </g>
    </g>
   </g>
   <g id="line2d_41">
    <defs>
     <path d="M 0 1.5 
C 0.397805 1.5 0.77937 1.341951 1.06066 1.06066 
C 1.341951 0.77937 1.5 0.397805 1.5 0 
C 1.5 -0.397805 1.341951 -0.77937 1.06066 -1.06066 
C 0.77937 -1.341951 0.397805 -1.5 0 -1.5 
C -0.397805 -1.5 -0.77937 -1.341951 -1.06066 -1.06066 
C -1.341951 -0.77937 -1.5 -0.397805 -1.5 0 
C -1.5 0.397805 -1.341951 0.77937 -1.06066 1.06066 
C -0.77937 1.341951 -0.397805 1.5 0 1.5 
z
" id="m2bea1ecbad" style="stroke:#f5deb3;"/>
    </defs>
    <g>
     <use style="fill:#f5deb3;stroke:#f5deb3;" x="216.241963" xlink:href="#m2bea1ecbad" y="27.513663"/>
     <use style="fill:#f5deb3;stroke:#f5deb3;" x="216.241963" xlink:href="#m2bea1ecbad" y="27.513663"/>
    </g>
   </g>
   <g id="line2d_42">
    <defs>
     <path d="M 0 1.5 
C 0.397805 1.5 0.77937 1.341951 1.06066 1.06066 
C 1.341951 0.77937 1.5 0.397805 1.5 0 
C 1.5 -0.397805 1.341951 -0.77937 1.06066 -1.06066 
C 0.77937 -1.341951 0.397805 -1.5 0 -1.5 
C -0.397805 -1.5 -0.77937 -1.341951 -1.06066 -1.06066 
C -1.341951 -0.77937 -1.5 -0.397805 -1.5 0 
C -1.5 0.397805 -1.341951 0.77937 -1.06066 1.06066 
C -0.77937 1.341951 -0.397805 1.5 0 1.5 
z
" id="m2c037d3d93" style="stroke:#000080;"/>
    </defs>
    <g>
     <use style="fill:#000080;stroke:#000080;" x="279.899196" xlink:href="#m2c037d3d93" y="231.970274"/>
     <use style="fill:#000080;stroke:#000080;" x="279.899196" xlink:href="#m2c037d3d93" y="231.970274"/>
    </g>
   </g>
   <g id="line2d_43">
    <path d="M 4.627463 294.88 
L 4.627463 289.637523 
L 16.541714 289.637523 
L 16.541714 288.589027 
L 23.511104 288.589027 
L 23.511104 287.540532 
L 28.455965 287.540532 
L 28.455965 285.967789 
L 38.074995 285.967789 
L 38.074995 284.919293 
L 45.844 284.919293 
L 45.844 284.395046 
L 59.253858 284.395046 
L 59.253858 283.34655 
L 61.278387 283.34655 
L 61.278387 282.822302 
L 63.08939 282.822302 
L 63.08939 282.298055 
L 66.694199 282.298055 
L 66.694199 281.249559 
L 84.785597 281.249559 
L 84.785597 280.725312 
L 91.969848 280.725312 
L 91.969848 280.201064 
L 93.403064 280.201064 
L 93.403064 279.676816 
L 96.780736 279.676816 
L 96.780736 279.152568 
L 98.025706 279.152568 
L 98.025706 278.628321 
L 111.754713 278.628321 
L 111.754713 278.104073 
L 132.563791 278.104073 
L 132.563791 277.579825 
L 134.699776 277.579825 
L 134.699776 277.055578 
L 136.757848 277.055578 
L 136.757848 276.53133 
L 143.046358 276.53133 
L 143.046358 276.007082 
L 144.618359 276.007082 
L 144.618359 275.482834 
L 147.782136 275.482834 
L 147.782136 274.958587 
L 153.175716 274.958587 
L 153.175716 274.434339 
L 168.292702 274.434339 
L 168.292702 273.910091 
L 192.071719 273.910091 
L 192.071719 273.385844 
L 197.753684 273.385844 
L 197.753684 272.861596 
L 197.935518 272.861596 
L 198.036208 271.8131 
L 198.104564 271.8131 
L 198.159807 270.764605 
L 198.409392 270.764605 
L 198.409392 270.240357 
L 200.605983 270.240357 
L 200.605983 269.716109 
L 205.357156 269.716109 
L 205.357156 269.191862 
L 218.572279 269.191862 
L 218.572279 268.143366 
L 220.053249 268.143366 
L 220.053249 267.619119 
L 220.222287 267.619119 
L 220.222287 267.094871 
L 220.840781 267.094871 
L 220.900232 264.99788 
L 220.962359 264.99788 
L 220.962359 264.473632 
L 221.442307 264.473632 
L 221.442307 263.949385 
L 221.670354 263.949385 
L 221.671088 262.900889 
L 222.585401 262.900889 
L 222.585401 262.376641 
L 223.219809 262.376641 
L 223.219809 261.852394 
L 223.485785 261.852394 
L 223.485785 261.328146 
L 224.828724 261.328146 
L 224.828724 260.803898 
L 229.484546 260.803898 
L 229.484546 260.279651 
L 231.850873 260.279651 
L 231.850873 259.755403 
L 233.024921 259.755403 
L 233.024921 259.231155 
L 233.178087 259.231155 
L 233.178087 258.706907 
L 235.37403 258.706907 
L 235.407394 257.134164 
L 235.725925 257.134164 
L 235.737127 255.561421 
L 236.085617 255.561421 
L 236.085617 255.037173 
L 236.74978 255.037173 
L 236.840429 253.988678 
L 240.370079 253.988678 
L 240.405222 252.940182 
L 244.760739 252.940182 
L 244.760739 252.415935 
L 246.461786 252.415935 
L 246.461786 251.891687 
L 246.664991 251.891687 
L 246.664991 251.367439 
L 247.152058 251.367439 
L 247.152058 250.843192 
L 247.602859 250.843192 
L 247.602859 250.318944 
L 247.891365 250.318944 
L 247.940069 249.270448 
L 248.893353 249.270448 
L 248.990207 248.221953 
L 249.725351 248.221953 
L 249.725351 247.697705 
L 249.897508 247.697705 
L 249.897508 247.173458 
L 250.086326 247.173458 
L 250.086326 246.64921 
L 250.481337 246.64921 
L 250.481337 246.124962 
L 252.210354 246.124962 
L 252.210354 245.600714 
L 252.956787 245.600714 
L 252.956787 245.076467 
L 253.285799 245.076467 
L 253.285799 244.552219 
L 254.204333 244.552219 
L 254.204333 244.027971 
L 255.105125 244.027971 
L 255.105125 243.503724 
L 255.8715 243.503724 
L 255.8715 242.979476 
L 257.153306 242.979476 
L 257.153306 242.455228 
L 257.281438 242.455228 
L 257.379201 241.406733 
L 257.908557 241.406733 
L 257.908557 240.882485 
L 258.380323 240.882485 
L 258.380323 240.358237 
L 261.135767 240.358237 
L 261.163454 239.309742 
L 261.398833 239.309742 
L 261.398833 238.785494 
L 263.734258 238.785494 
L 263.734258 238.261246 
L 265.188724 238.261246 
L 265.262346 237.212751 
L 266.021377 237.212751 
L 266.021377 236.688503 
L 267.322676 236.688503 
L 267.322676 236.164255 
L 267.996944 236.164255 
L 267.996944 235.640008 
L 269.956231 235.640008 
L 269.956231 235.11576 
L 270.183108 235.11576 
L 270.183108 234.591512 
L 271.615585 234.591512 
L 271.615585 234.067265 
L 271.835146 234.067265 
L 271.835146 233.543017 
L 274.932311 233.543017 
L 274.932311 233.018769 
L 278.468761 233.018769 
L 278.468761 232.494521 
L 279.899196 232.494521 
L 279.899196 231.970274 
L 333.168 231.970274 
L 333.168 231.970274 
" style="fill:none;stroke:#000080;stroke-linecap:square;stroke-width:1.5;"/>
   </g>
   <g id="line2d_44">
    <defs>
     <path d="M 0 6 
C 1.591219 6 3.117479 5.367802 4.242641 4.242641 
C 5.367802 3.117479 6 1.591219 6 0 
C 6 -1.591219 5.367802 -3.117479 4.242641 -4.242641 
C 3.117479 -5.367802 1.591219 -6 0 -6 
C -1.591219 -6 -3.117479 -5.367802 -4.242641 -4.242641 
C -5.367802 -3.117479 -6 -1.591219 -6 0 
C -6 1.591219 -5.367802 3.117479 -4.242641 4.242641 
C -3.117479 5.367802 -1.591219 6 0 6 
z
" id="m09976bce16" style="stroke:#000080;stroke-width:1.5;"/>
    </defs>
    <g>
     <use style="fill:none;stroke:#000080;stroke-width:1.5;" x="59.253858" xlink:href="#m09976bce16" y="284.395046"/>
     <use style="fill:none;stroke:#000080;stroke-width:1.5;" x="111.754713" xlink:href="#m09976bce16" y="278.628321"/>
     <use style="fill:none;stroke:#000080;stroke-width:1.5;" x="192.071719" xlink:href="#m09976bce16" y="273.910091"/>
     <use style="fill:none;stroke:#000080;stroke-width:1.5;" x="279.899196" xlink:href="#m09976bce16" y="232.494521"/>
     <use style="fill:none;stroke:#000080;stroke-width:1.5;" x="279.899196" xlink:href="#m09976bce16" y="231.970274"/>
     <use style="fill:none;stroke:#000080;stroke-width:1.5;" x="333.168" xlink:href="#m09976bce16" y="231.970274"/>
    </g>
   </g>
   <g id="line2d_45">
    <path style="fill:none;stroke:#000080;stroke-linecap:square;stroke-width:1.5;"/>
    <g/>
   </g>
   <g id="line2d_46">
    <path clip-path="url(#p564ba1d0dc)" d="M 214.433143 269.191862 
" style="fill:none;stroke:#000080;stroke-linecap:square;stroke-width:1.5;"/>
    <defs>
     <path d="M -12 12 
L 12 -12 
M -12 -12 
L 12 12 
" id="m28a9e42003" style="stroke:#000080;"/>
    </defs>
    <g clip-path="url(#p564ba1d0dc)">
     <use style="fill:#000080;stroke:#000080;" x="214.433143" xlink:href="#m28a9e42003" y="269.191862"/>
    </g>
   </g>
   <g id="line2d_47">
    <defs>
     <path d="M 0 1.5 
C 0.397805 1.5 0.77937 1.341951 1.06066 1.06066 
C 1.341951 0.77937 1.5 0.397805 1.5 0 
C 1.5 -0.397805 1.341951 -0.77937 1.06066 -1.06066 
C 0.77937 -1.341951 0.397805 -1.5 0 -1.5 
C -0.397805 -1.5 -0.77937 -1.341951 -1.06066 -1.06066 
C -1.341951 -0.77937 -1.5 -0.397805 -1.5 0 
C -1.5 0.397805 -1.341951 0.77937 -1.06066 1.06066 
C -0.77937 1.341951 -0.397805 1.5 0 1.5 
z
" id="md10e2ab8f6" style="stroke:#ff00ff;"/>
    </defs>
    <g>
     <use style="fill:#ff00ff;stroke:#ff00ff;" x="276.698331" xlink:href="#md10e2ab8f6" y="27.513663"/>
     <use style="fill:#ff00ff;stroke:#ff00ff;" x="276.698331" xlink:href="#md10e2ab8f6" y="27.513663"/>
    </g>
   </g>
   <g id="line2d_48">
    <path d="M 4.627463 294.88 
L 4.627463 287.540532 
L 16.541714 287.540532 
L 16.541714 287.016284 
L 23.511104 287.016284 
L 23.511104 285.967789 
L 35.425356 285.967789 
L 35.425356 284.919293 
L 40.370217 284.919293 
L 40.370217 284.395046 
L 49.989246 284.395046 
L 49.989246 283.870798 
L 63.653002 283.870798 
L 63.653002 283.34655 
L 72.871346 283.34655 
L 72.871346 282.822302 
L 83.955067 282.822302 
L 83.955067 282.298055 
L 84.946994 282.298055 
L 84.946994 281.773807 
L 85.106889 281.773807 
L 85.106889 281.249559 
L 86.482714 281.249559 
L 86.482714 280.725312 
L 90.522701 280.725312 
L 90.522701 280.201064 
L 93.695229 280.201064 
L 93.695229 279.676816 
L 105.218813 279.676816 
L 105.218813 279.152568 
L 120.749883 279.152568 
L 120.749883 278.628321 
L 126.366778 278.628321 
L 126.366778 278.104073 
L 127.645746 278.104073 
L 127.645746 277.579825 
L 127.951152 277.579825 
L 127.951152 277.055578 
L 129.618096 277.055578 
L 129.618096 276.53133 
L 130.308777 276.53133 
L 130.308777 276.007082 
L 131.300811 276.007082 
L 131.300811 275.482834 
L 135.892778 275.482834 
L 135.892778 274.958587 
L 138.431902 274.958587 
L 138.431902 274.434339 
L 139.146447 274.434339 
L 139.146447 273.385844 
L 139.486154 273.385844 
L 139.49288 272.337348 
L 139.799471 272.337348 
L 139.799471 271.8131 
L 140.003044 271.8131 
L 140.003044 271.288853 
L 140.694009 271.288853 
L 140.694009 270.764605 
L 140.955391 270.764605 
L 140.955391 270.240357 
L 143.057293 270.240357 
L 143.166254 269.191862 
L 143.306879 269.191862 
L 143.306879 268.667614 
L 143.972533 268.667614 
L 144.024275 267.619119 
L 144.727809 267.619119 
L 144.727809 267.094871 
L 145.076355 267.094871 
L 145.076355 266.570623 
L 145.869343 266.570623 
L 145.869343 265.522128 
L 146.104397 265.522128 
L 146.104397 264.99788 
L 146.457786 264.99788 
L 146.466753 263.949385 
L 146.746827 263.949385 
L 146.856715 262.900889 
L 147.748889 262.900889 
L 147.748889 262.376641 
L 147.922722 262.376641 
L 147.922722 261.852394 
L 148.293436 261.852394 
L 148.38588 260.279651 
L 148.413917 260.279651 
L 148.413917 259.755403 
L 148.949751 259.755403 
L 148.949751 259.231155 
L 149.566963 259.231155 
L 149.604345 258.18266 
L 149.871128 258.18266 
L 149.871128 257.658412 
L 150.133834 257.658412 
L 150.133834 257.134164 
L 150.495713 257.134164 
L 150.495713 256.609917 
L 150.728138 256.609917 
L 150.728138 256.085669 
L 150.964364 256.085669 
L 151.067558 254.512926 
L 151.373474 254.512926 
L 151.373474 253.988678 
L 151.517734 253.988678 
L 151.594402 251.891687 
L 151.720327 251.891687 
L 151.720327 251.367439 
L 152.639586 251.367439 
L 152.639586 250.843192 
L 152.804668 250.843192 
L 152.804668 250.318944 
L 153.425682 250.318944 
L 153.509194 248.746201 
L 153.981673 248.746201 
L 153.993248 247.697705 
L 154.263036 247.697705 
L 154.263036 247.173458 
L 154.494975 247.173458 
L 154.570665 246.124962 
L 154.740451 246.124962 
L 154.779183 245.076467 
L 155.031558 245.076467 
L 155.058768 244.027971 
L 155.204963 244.027971 
L 155.204963 243.503724 
L 155.517517 243.503724 
L 155.517517 242.979476 
L 155.790649 242.979476 
L 155.790649 242.455228 
L 155.920434 242.455228 
L 155.933359 241.406733 
L 156.113293 241.406733 
L 156.217814 239.83399 
L 156.387261 239.83399 
L 156.387261 239.309742 
L 156.5376 239.309742 
L 156.5376 238.785494 
L 156.694053 238.785494 
L 156.698997 237.736999 
L 157.04398 237.736999 
L 157.065767 236.688503 
L 157.334607 236.688503 
L 157.334607 236.164255 
L 157.486363 236.164255 
L 157.486363 235.640008 
L 157.667187 235.640008 
L 157.667187 235.11576 
L 158.000328 235.11576 
L 158.000328 234.591512 
L 158.162239 234.591512 
L 158.180387 233.543017 
L 158.407875 233.543017 
L 158.407875 233.018769 
L 158.523834 233.018769 
L 158.523834 232.494521 
L 158.757817 232.494521 
L 158.757817 231.970274 
L 158.873625 231.970274 
L 158.888862 230.921778 
L 159.012436 230.921778 
L 159.120107 229.873283 
L 159.322843 229.873283 
L 159.43281 228.824787 
L 159.508531 228.824787 
L 159.563012 227.776292 
L 159.752346 227.776292 
L 159.752346 227.252044 
L 159.945756 227.252044 
L 159.945756 226.727797 
L 160.324166 226.727797 
L 160.324166 226.203549 
L 160.449798 226.203549 
L 160.5192 224.630806 
L 160.778448 224.630806 
L 160.867881 223.058063 
L 161.058793 223.058063 
L 161.058793 222.533815 
L 161.230528 222.533815 
L 161.302526 220.961072 
L 161.746731 220.961072 
L 161.825776 219.912576 
L 161.877052 219.912576 
L 161.877052 219.388328 
L 162.276491 219.388328 
L 162.276491 218.864081 
L 162.422369 218.864081 
L 162.516002 216.76709 
L 162.584577 216.76709 
L 162.619638 215.718594 
L 162.831975 215.718594 
L 162.831975 215.194347 
L 163.094612 215.194347 
L 163.101424 214.145851 
L 163.27593 214.145851 
L 163.356651 213.097356 
L 163.431985 213.097356 
L 163.431985 212.573108 
L 163.616409 212.573108 
L 163.616409 212.04886 
L 163.777605 212.04886 
L 163.785789 211.000365 
L 164.039189 211.000365 
L 164.060138 209.95187 
L 164.180501 209.95187 
L 164.180501 209.427622 
L 164.325419 209.427622 
L 164.415574 208.379126 
L 164.868608 208.379126 
L 164.914641 207.330631 
L 165.00329 207.330631 
L 165.00329 206.806383 
L 165.152044 206.806383 
L 165.179227 205.23364 
L 165.298024 205.23364 
L 165.405584 203.660897 
L 165.633408 203.660897 
L 165.722822 202.612401 
L 165.856801 202.612401 
L 165.856801 202.088154 
L 166.084488 202.088154 
L 166.111666 201.039658 
L 166.217109 201.039658 
L 166.327556 199.466915 
L 166.503088 199.466915 
L 166.503088 198.942667 
L 166.653317 198.942667 
L 166.759629 197.369924 
L 167.088184 197.369924 
L 167.088184 196.845677 
L 167.201241 196.845677 
L 167.201241 196.321429 
L 167.674911 196.321429 
L 167.780295 195.272933 
L 168.005795 195.272933 
L 168.060754 193.70019 
L 168.176485 193.70019 
L 168.176485 193.175943 
L 168.411889 193.175943 
L 168.506648 191.603199 
L 168.67246 191.603199 
L 168.67246 191.078952 
L 169.106561 191.078952 
L 169.191603 189.506209 
L 169.247667 189.506209 
L 169.247667 188.981961 
L 169.511213 188.981961 
L 169.511213 188.457713 
L 169.93061 188.457713 
L 170.020791 187.409218 
L 170.070815 187.409218 
L 170.070815 186.88497 
L 170.202 186.88497 
L 170.296376 185.836474 
L 170.319889 185.836474 
L 170.319889 185.312227 
L 170.454746 185.312227 
L 170.454746 184.787979 
L 170.856337 184.787979 
L 170.931007 183.739484 
L 171.391273 183.739484 
L 171.391273 183.215236 
L 171.546164 183.215236 
L 171.565948 182.16674 
L 171.701737 182.16674 
L 171.701737 181.642493 
L 171.979285 181.642493 
L 172.028994 180.06975 
L 172.36703 180.06975 
L 172.36703 179.545502 
L 172.585154 179.545502 
L 172.585154 179.021254 
L 172.75302 179.021254 
L 172.794732 177.448511 
L 173.06485 177.448511 
L 173.06485 176.924263 
L 173.196913 176.924263 
L 173.196913 176.400016 
L 173.706064 176.400016 
L 173.706064 175.875768 
L 174.122718 175.875768 
L 174.122718 175.35152 
L 174.381734 175.35152 
L 174.381734 174.827272 
L 174.497073 174.827272 
L 174.497073 174.303025 
L 184.426183 174.303025 
L 184.426183 173.778777 
L 185.159838 173.778777 
L 185.262404 172.730281 
L 185.724288 172.730281 
L 185.724288 172.206034 
L 186.431495 172.206034 
L 186.529382 171.157538 
L 187.00469 171.157538 
L 187.091363 170.109043 
L 187.200247 170.109043 
L 187.277601 168.5363 
L 187.320934 168.5363 
L 187.320934 168.012052 
L 187.768239 168.012052 
L 187.768239 167.487804 
L 187.968174 167.487804 
L 187.968174 166.963557 
L 188.352973 166.963557 
L 188.352973 166.439309 
L 188.476366 166.439309 
L 188.476366 165.915061 
L 188.659041 165.915061 
L 188.659041 165.390813 
L 189.225149 165.390813 
L 189.323949 164.342318 
L 189.41666 164.342318 
L 189.499345 163.293823 
L 189.70705 163.293823 
L 189.70705 162.769575 
L 190.133814 162.769575 
L 190.220863 161.721079 
L 190.470737 161.721079 
L 190.470737 161.196832 
L 190.862926 161.196832 
L 190.862926 160.672584 
L 190.998525 160.672584 
L 191.014981 159.099841 
L 191.719984 159.099841 
L 191.719984 158.575593 
L 196.618874 158.575593 
L 196.618874 158.051345 
L 200.054093 158.051345 
L 200.054093 157.527098 
L 215.279471 157.527098 
L 215.389485 154.381611 
L 215.41004 154.381611 
L 215.504615 152.808868 
L 215.529387 152.808868 
L 215.577699 149.663382 
L 215.644868 149.663382 
L 215.749471 145.993648 
L 215.795582 145.993648 
L 215.893986 140.751171 
L 215.916154 140.751171 
L 215.916154 140.226923 
L 216.039175 140.226923 
L 216.039175 139.702675 
L 217.810987 139.702675 
L 217.881874 138.65418 
L 217.96794 138.65418 
L 218.020057 136.557189 
L 218.1329 136.557189 
L 218.149385 135.508693 
L 218.263586 135.508693 
L 218.292448 134.460198 
L 218.497609 134.460198 
L 218.497609 133.93595 
L 220.169368 133.93595 
L 220.169368 133.411703 
L 220.407475 133.411703 
L 220.407475 132.887455 
L 220.52461 132.887455 
L 220.52461 132.363207 
L 226.746654 132.363207 
L 226.842782 129.741969 
L 226.863436 129.741969 
L 226.965922 127.12073 
L 226.980921 127.12073 
L 227.050278 122.926748 
L 227.09333 122.926748 
L 227.163793 120.829757 
L 228.260947 120.829757 
L 228.31936 119.257014 
L 228.440008 119.257014 
L 228.440008 118.732766 
L 229.488806 118.732766 
L 229.549406 117.684271 
L 229.60158 117.684271 
L 229.60158 117.160023 
L 231.714528 117.160023 
L 231.714528 116.635776 
L 233.631362 116.635776 
L 233.722676 114.538785 
L 233.748398 114.538785 
L 233.85576 109.820555 
L 234.566538 109.820555 
L 234.676444 104.578078 
L 234.701227 104.578078 
L 234.739246 103.529583 
L 235.369276 103.529583 
L 235.369276 103.005335 
L 235.502939 103.005335 
L 235.562345 101.432592 
L 238.498117 101.432592 
L 238.604047 96.190115 
L 238.614428 96.190115 
L 238.63414 94.617371 
L 239.171202 94.617371 
L 239.274717 93.568876 
L 239.305499 93.568876 
L 239.380935 91.996133 
L 240.005147 91.996133 
L 240.056767 90.947637 
L 240.624101 90.947637 
L 240.624101 90.42339 
L 242.291849 90.42339 
L 242.399971 85.180912 
L 242.41216 85.180912 
L 242.41216 84.656665 
L 242.895496 84.656665 
L 242.990599 82.035426 
L 243.511667 82.035426 
L 243.518521 80.986931 
L 244.001086 80.986931 
L 244.001086 80.462683 
L 245.393415 80.462683 
L 245.471688 77.841444 
L 245.872513 77.841444 
L 245.937467 74.17171 
L 246.388064 74.17171 
L 246.388064 73.647463 
L 246.827032 73.647463 
L 246.827032 73.123215 
L 248.020596 73.123215 
L 248.119501 67.880738 
L 248.443411 67.880738 
L 248.467503 65.783747 
L 248.84302 65.783747 
L 248.9029 63.686756 
L 249.238179 63.686756 
L 249.253805 62.638261 
L 250.350651 62.638261 
L 250.375698 61.589765 
L 250.697703 61.589765 
L 250.739703 60.017022 
L 251.009314 60.017022 
L 251.062675 58.968526 
L 251.375624 58.968526 
L 251.375624 58.444279 
L 252.039361 58.444279 
L 252.039361 57.920031 
L 252.326964 57.920031 
L 252.382479 56.871536 
L 252.923135 56.871536 
L 252.994696 54.774545 
L 253.293659 54.774545 
L 253.313263 53.726049 
L 254.403499 53.726049 
L 254.445576 52.153306 
L 254.705244 52.153306 
L 254.705244 51.629058 
L 255.749894 51.629058 
L 255.749894 51.104811 
L 256.00851 51.104811 
L 256.036431 47.435077 
L 256.277039 47.435077 
L 256.298013 45.338086 
L 256.526023 45.338086 
L 256.526023 44.813838 
L 257.272099 44.813838 
L 257.272099 44.28959 
L 257.75387 44.28959 
L 257.75387 43.765343 
L 258.186377 43.765343 
L 258.186377 43.241095 
L 258.628863 43.241095 
L 258.628863 42.716847 
L 258.863189 42.716847 
L 258.870252 41.668352 
L 260.097499 41.668352 
L 260.106146 40.619856 
L 260.310158 40.619856 
L 260.310158 40.095609 
L 260.495547 40.095609 
L 260.504385 39.047113 
L 260.889742 39.047113 
L 260.889742 38.522865 
L 261.44264 38.522865 
L 261.472053 36.950122 
L 261.791155 36.950122 
L 261.791155 36.425875 
L 262.180622 36.425875 
L 262.18339 35.377379 
L 262.537334 35.377379 
L 262.537334 34.853131 
L 263.422092 34.853131 
L 263.422092 34.328884 
L 263.536188 34.328884 
L 263.536188 33.804636 
L 264.50157 33.804636 
L 264.50157 33.280388 
L 265.283909 33.280388 
L 265.283909 32.756141 
L 267.080806 32.756141 
L 267.080806 32.231893 
L 268.503416 32.231893 
L 268.503416 31.707645 
L 269.690242 31.707645 
L 269.690242 31.183397 
L 270.04065 31.183397 
L 270.04065 30.65915 
L 270.60178 30.65915 
L 270.60178 30.134902 
L 271.249051 30.134902 
L 271.249051 29.610654 
L 271.654519 29.610654 
L 271.654519 29.086407 
L 272.566795 29.086407 
L 272.566795 28.562159 
L 274.404645 28.562159 
L 274.404645 28.037911 
L 276.698331 28.037911 
L 276.698331 27.513663 
L 333.168 27.513663 
L 333.168 27.513663 
" style="fill:none;stroke:#ff00ff;stroke-linecap:square;stroke-width:1.5;"/>
   </g>
   <g id="line2d_49">
    <defs>
     <path d="M -0 8.485281 
L 5.091169 0 
L 0 -8.485281 
L -5.091169 -0 
z
" id="m28461d5d8a" style="stroke:#ff00ff;stroke-linejoin:miter;stroke-width:1.5;"/>
    </defs>
    <g>
     <use style="fill:none;stroke:#ff00ff;stroke-linejoin:miter;stroke-width:1.5;" x="90.522701" xlink:href="#m28461d5d8a" y="280.201064"/>
     <use style="fill:none;stroke:#ff00ff;stroke-linejoin:miter;stroke-width:1.5;" x="163.777605" xlink:href="#m28461d5d8a" y="212.04886"/>
     <use style="fill:none;stroke:#ff00ff;stroke-linejoin:miter;stroke-width:1.5;" x="226.916689" xlink:href="#m28461d5d8a" y="128.169225"/>
     <use style="fill:none;stroke:#ff00ff;stroke-linejoin:miter;stroke-width:1.5;" x="276.698331" xlink:href="#m28461d5d8a" y="28.037911"/>
     <use style="fill:none;stroke:#ff00ff;stroke-linejoin:miter;stroke-width:1.5;" x="276.698331" xlink:href="#m28461d5d8a" y="27.513663"/>
     <use style="fill:none;stroke:#ff00ff;stroke-linejoin:miter;stroke-width:1.5;" x="333.168" xlink:href="#m28461d5d8a" y="27.513663"/>
    </g>
   </g>
   <g id="line2d_50">
    <path style="fill:none;stroke:#ff00ff;stroke-linecap:square;stroke-width:1.5;"/>
    <g/>
   </g>
   <g id="line2d_51">
    <path clip-path="url(#p564ba1d0dc)" d="M 214.433143 157.527098 
" style="fill:none;stroke:#ff00ff;stroke-linecap:square;stroke-width:1.5;"/>
    <defs>
     <path d="M -12 12 
L 12 -12 
M -12 -12 
L 12 12 
" id="m828fc9c2b3" style="stroke:#ff00ff;"/>
    </defs>
    <g clip-path="url(#p564ba1d0dc)">
     <use style="fill:#ff00ff;stroke:#ff00ff;" x="214.433143" xlink:href="#m828fc9c2b3" y="157.527098"/>
    </g>
   </g>
   <g id="line2d_52">
    <defs>
     <path d="M 0 1.5 
C 0.397805 1.5 0.77937 1.341951 1.06066 1.06066 
C 1.341951 0.77937 1.5 0.397805 1.5 0 
C 1.5 -0.397805 1.341951 -0.77937 1.06066 -1.06066 
C 0.77937 -1.341951 0.397805 -1.5 0 -1.5 
C -0.397805 -1.5 -0.77937 -1.341951 -1.06066 -1.06066 
C -1.341951 -0.77937 -1.5 -0.397805 -1.5 0 
C -1.5 0.397805 -1.341951 0.77937 -1.06066 1.06066 
C -0.77937 1.341951 -0.397805 1.5 0 1.5 
z
" id="me83afde731" style="stroke:#ff7500;"/>
    </defs>
    <g>
     <use style="fill:#ff7500;stroke:#ff7500;" x="272.173274" xlink:href="#me83afde731" y="216.242842"/>
     <use style="fill:#ff7500;stroke:#ff7500;" x="272.173274" xlink:href="#me83afde731" y="216.242842"/>
    </g>
   </g>
   <g id="line2d_53">
    <path d="M 4.627463 294.88 
L 4.627463 290.161771 
L 16.541714 290.161771 
L 16.541714 289.637523 
L 23.511104 289.637523 
L 23.511104 287.540532 
L 28.455965 287.540532 
L 28.455965 287.016284 
L 32.291498 287.016284 
L 32.291498 285.967789 
L 38.074995 285.967789 
L 38.074995 284.395046 
L 40.370217 284.395046 
L 40.370217 283.870798 
L 49.989246 283.870798 
L 49.989246 283.34655 
L 51.175139 283.34655 
L 51.175139 282.822302 
L 56.958636 282.822302 
L 56.958636 282.298055 
L 68.872887 282.298055 
L 68.872887 281.773807 
L 81.780978 281.773807 
L 81.780978 281.249559 
L 84.622671 281.249559 
L 84.622671 280.725312 
L 90.753425 280.725312 
L 90.753425 280.201064 
L 101.543061 280.201064 
L 101.543061 279.676816 
L 117.231566 279.676816 
L 117.231566 279.152568 
L 118.417459 279.152568 
L 118.417459 278.628321 
L 124.732855 278.628321 
L 124.732855 278.104073 
L 126.119664 278.104073 
L 126.119664 277.579825 
L 130.124199 277.579825 
L 130.124199 277.055578 
L 130.525419 277.055578 
L 130.525419 276.53133 
L 130.994839 276.53133 
L 130.994839 276.007082 
L 131.289977 276.007082 
L 131.289977 275.482834 
L 132.664134 275.482834 
L 132.664134 274.958587 
L 132.912457 274.958587 
L 132.912457 274.434339 
L 133.484656 274.434339 
L 133.484656 273.910091 
L 133.759075 273.910091 
L 133.759075 273.385844 
L 133.917927 273.385844 
L 133.917927 272.861596 
L 134.664189 272.861596 
L 134.664189 272.337348 
L 134.814929 272.337348 
L 134.814929 271.8131 
L 135.302335 271.8131 
L 135.302335 271.288853 
L 135.859579 271.288853 
L 135.859579 270.764605 
L 137.047134 270.764605 
L 137.047134 270.240357 
L 137.193815 270.240357 
L 137.301101 268.143366 
L 137.588973 268.143366 
L 137.588973 267.619119 
L 137.827708 267.619119 
L 137.827708 267.094871 
L 138.595638 267.094871 
L 138.595638 266.570623 
L 138.953236 266.570623 
L 139.050113 265.522128 
L 139.499603 265.522128 
L 139.499603 264.99788 
L 139.904842 264.99788 
L 139.970373 263.949385 
L 140.415849 263.949385 
L 140.422222 262.900889 
L 140.549169 262.900889 
L 140.549169 262.376641 
L 140.918293 262.376641 
L 140.918293 261.852394 
L 141.139688 261.852394 
L 141.139688 261.328146 
L 141.466524 261.328146 
L 141.544287 260.279651 
L 141.84014 260.279651 
L 141.84014 259.755403 
L 142.00362 259.755403 
L 142.00362 259.231155 
L 142.200064 259.231155 
L 142.200064 258.706907 
L 142.467974 258.706907 
L 142.563858 257.658412 
L 142.815118 257.658412 
L 142.887025 255.561421 
L 143.552894 255.561421 
L 143.579424 254.512926 
L 144.311186 254.512926 
L 144.311186 253.988678 
L 144.593386 253.988678 
L 144.68809 252.940182 
L 146.067737 252.940182 
L 146.067737 252.415935 
L 146.363355 252.415935 
L 146.390389 251.367439 
L 147.01373 251.367439 
L 147.083057 250.318944 
L 147.877364 250.318944 
L 147.877364 249.794696 
L 148.53356 249.794696 
L 148.53356 249.270448 
L 150.046711 249.270448 
L 150.046711 248.746201 
L 156.319177 248.746201 
L 156.319177 248.221953 
L 157.128552 248.221953 
L 157.128552 247.697705 
L 159.458088 247.697705 
L 159.458088 247.173458 
L 167.66969 247.173458 
L 167.66969 246.64921 
L 169.221447 246.64921 
L 169.221447 246.124962 
L 170.001425 246.124962 
L 170.109369 245.076467 
L 170.464734 245.076467 
L 170.464734 244.552219 
L 171.802623 244.552219 
L 171.802623 244.027971 
L 172.968249 244.027971 
L 172.968249 243.503724 
L 180.844603 243.503724 
L 180.844603 242.979476 
L 181.815078 242.979476 
L 181.815078 242.455228 
L 187.328007 242.455228 
L 187.328007 241.93098 
L 187.595462 241.93098 
L 187.595462 241.406733 
L 194.081968 241.406733 
L 194.081968 240.882485 
L 194.538348 240.882485 
L 194.538348 240.358237 
L 200.391007 240.358237 
L 200.444034 239.309742 
L 200.852996 239.309742 
L 200.852996 238.785494 
L 203.447491 238.785494 
L 203.447491 238.261246 
L 203.594239 238.261246 
L 203.594239 237.736999 
L 204.953015 237.736999 
L 205.049864 236.164255 
L 206.923269 236.164255 
L 206.923269 235.640008 
L 207.30675 235.640008 
L 207.30675 235.11576 
L 207.97992 235.11576 
L 208.047965 234.067265 
L 208.196352 234.067265 
L 208.196352 233.543017 
L 211.077815 233.543017 
L 211.175633 232.494521 
L 211.355023 232.494521 
L 211.355023 231.970274 
L 215.262773 231.970274 
L 215.262773 231.446026 
L 215.412151 231.446026 
L 215.412151 230.921778 
L 217.572586 230.921778 
L 217.572586 230.397531 
L 218.657385 230.397531 
L 218.657385 229.873283 
L 221.070237 229.873283 
L 221.070237 229.349035 
L 228.724282 229.349035 
L 228.737936 228.30054 
L 229.36552 228.30054 
L 229.36552 227.776292 
L 231.300557 227.776292 
L 231.300557 227.252044 
L 231.754231 227.252044 
L 231.754231 226.727797 
L 233.436629 226.727797 
L 233.436629 226.203549 
L 235.169308 226.203549 
L 235.169308 225.679301 
L 237.178858 225.679301 
L 237.246185 223.58231 
L 237.783044 223.58231 
L 237.783044 223.058063 
L 243.991513 223.058063 
L 243.991513 222.533815 
L 244.754967 222.533815 
L 244.754967 222.009567 
L 245.398153 222.009567 
L 245.398153 221.485319 
L 248.594021 221.485319 
L 248.60277 220.436824 
L 249.614492 220.436824 
L 249.614492 219.912576 
L 251.732631 219.912576 
L 251.756518 218.864081 
L 255.741161 218.864081 
L 255.741161 218.339833 
L 258.177834 218.339833 
L 258.177834 217.815585 
L 259.492555 217.815585 
L 259.492555 217.291338 
L 262.153157 217.291338 
L 262.153157 216.76709 
L 272.173274 216.76709 
L 272.173274 216.242842 
L 333.168 216.242842 
L 333.168 216.242842 
" style="fill:none;stroke:#ff7500;stroke-linecap:square;stroke-width:1.5;"/>
   </g>
   <g id="line2d_54">
    <defs>
     <path d="M 0 -6 
L -1.347084 -1.854102 
L -5.706339 -1.854102 
L -2.179628 0.708204 
L -3.526712 4.854102 
L -0 2.291796 
L 3.526712 4.854102 
L 2.179628 0.708204 
L 5.706339 -1.854102 
L 1.347084 -1.854102 
z
" id="m233e18158c" style="stroke:#ff7500;stroke-linejoin:bevel;stroke-width:1.5;"/>
    </defs>
    <g>
     <use style="fill:none;stroke:#ff7500;stroke-linejoin:bevel;stroke-width:1.5;" x="130.994839" xlink:href="#m233e18158c" y="276.007082"/>
     <use style="fill:none;stroke:#ff7500;stroke-linejoin:bevel;stroke-width:1.5;" x="172.968249" xlink:href="#m233e18158c" y="243.503724"/>
     <use style="fill:none;stroke:#ff7500;stroke-linejoin:bevel;stroke-width:1.5;" x="272.173274" xlink:href="#m233e18158c" y="216.76709"/>
     <use style="fill:none;stroke:#ff7500;stroke-linejoin:bevel;stroke-width:1.5;" x="272.173274" xlink:href="#m233e18158c" y="216.242842"/>
     <use style="fill:none;stroke:#ff7500;stroke-linejoin:bevel;stroke-width:1.5;" x="333.168" xlink:href="#m233e18158c" y="216.242842"/>
    </g>
   </g>
   <g id="line2d_55">
    <path style="fill:none;stroke:#ff7500;stroke-linecap:square;stroke-width:1.5;"/>
    <g/>
   </g>
   <g id="line2d_56">
    <path clip-path="url(#p564ba1d0dc)" d="M 242.097315 223.058063 
" style="fill:none;stroke:#ff7500;stroke-linecap:square;stroke-width:1.5;"/>
    <defs>
     <path d="M -12 12 
L 12 -12 
M -12 -12 
L 12 12 
" id="md505e90f20" style="stroke:#ff7500;"/>
    </defs>
    <g clip-path="url(#p564ba1d0dc)">
     <use style="fill:#ff7500;stroke:#ff7500;" x="242.097315" xlink:href="#md505e90f20" y="223.058063"/>
    </g>
   </g>
   <g id="line2d_57">
    <path d="M 333.168 231.970274 
L 363.64328 289.532673 
" style="fill:none;stroke:#000080;stroke-linecap:square;stroke-width:1.5;"/>
    <g>
     <use style="fill:none;stroke:#000080;stroke-width:1.5;" x="333.168" xlink:href="#m09976bce16" y="231.970274"/>
     <use style="fill:none;stroke:#000080;stroke-width:1.5;" x="363.64328" xlink:href="#m09976bce16" y="289.532673"/>
    </g>
   </g>
   <g id="line2d_58">
    <path d="M 333.168 216.242842 
L 363.64328 203.975446 
" style="fill:none;stroke:#ff7500;stroke-linecap:square;stroke-width:1.5;"/>
    <g>
     <use style="fill:none;stroke:#ff7500;stroke-linejoin:bevel;stroke-width:1.5;" x="333.168" xlink:href="#m233e18158c" y="216.242842"/>
     <use style="fill:none;stroke:#ff7500;stroke-linejoin:bevel;stroke-width:1.5;" x="363.64328" xlink:href="#m233e18158c" y="203.975446"/>
    </g>
   </g>
   <g id="line2d_59">
    <path d="M 333.168 27.513663 
L 363.64328 118.418218 
" style="fill:none;stroke:#ff00ff;stroke-linecap:square;stroke-width:1.5;"/>
    <g>
     <use style="fill:none;stroke:#ff00ff;stroke-linejoin:miter;stroke-width:1.5;" x="333.168" xlink:href="#m28461d5d8a" y="27.513663"/>
     <use style="fill:none;stroke:#ff00ff;stroke-linejoin:miter;stroke-width:1.5;" x="363.64328" xlink:href="#m28461d5d8a" y="118.418218"/>
    </g>
   </g>
   <g id="line2d_60">
    <path d="M 333.168 294.88 
L 333.168 27.513663 
" style="fill:none;stroke:#000000;stroke-linecap:square;stroke-width:1.5;"/>
   </g>
   <g id="patch_3">
    <path d="M 56.12 294.88 
L 56.12 24.84 
" style="fill:none;stroke:#000000;stroke-linecap:square;stroke-linejoin:miter;stroke-width:0.8;"/>
   </g>
   <g id="patch_4">
    <path d="M 333.168 294.88 
L 333.168 24.84 
" style="fill:none;stroke:#000000;stroke-linecap:square;stroke-linejoin:miter;stroke-width:0.8;"/>
   </g>
   <g id="patch_5">
    <path d="M 56.12 294.88 
L 333.168 294.88 
" style="fill:none;stroke:#000000;stroke-linecap:square;stroke-linejoin:miter;stroke-width:0.8;"/>
   </g>
   <g id="patch_6">
    <path d="M 56.12 24.84 
L 333.168 24.84 
" style="fill:none;stroke:#000000;stroke-linecap:square;stroke-linejoin:miter;stroke-width:0.8;"/>
   </g>
   <g id="text_13">
    <!-- CMA ES PPM -->
    <defs>
     <path d="M 64.40625 67.28125 
L 64.40625 56.890625 
Q 59.421875 61.53125 53.78125 63.8125 
Q 48.140625 66.109375 41.796875 66.109375 
Q 29.296875 66.109375 22.65625 58.46875 
Q 16.015625 50.828125 16.015625 36.375 
Q 16.015625 21.96875 22.65625 14.328125 
Q 29.296875 6.6875 41.796875 6.6875 
Q 48.140625 6.6875 53.78125 8.984375 
Q 59.421875 11.28125 64.40625 15.921875 
L 64.40625 5.609375 
Q 59.234375 2.09375 53.4375 0.328125 
Q 47.65625 -1.421875 41.21875 -1.421875 
Q 24.65625 -1.421875 15.125 8.703125 
Q 5.609375 18.84375 5.609375 36.375 
Q 5.609375 53.953125 15.125 64.078125 
Q 24.65625 74.21875 41.21875 74.21875 
Q 47.75 74.21875 53.53125 72.484375 
Q 59.328125 70.75 64.40625 67.28125 
z
" id="DejaVuSans-43"/>
     <path d="M 9.8125 72.90625 
L 24.515625 72.90625 
L 43.109375 23.296875 
L 61.8125 72.90625 
L 76.515625 72.90625 
L 76.515625 0 
L 66.890625 0 
L 66.890625 64.015625 
L 48.09375 14.015625 
L 38.1875 14.015625 
L 19.390625 64.015625 
L 19.390625 0 
L 9.8125 0 
z
" id="DejaVuSans-4d"/>
     <path d="M 34.1875 63.1875 
L 20.796875 26.90625 
L 47.609375 26.90625 
z
M 28.609375 72.90625 
L 39.796875 72.90625 
L 67.578125 0 
L 57.328125 0 
L 50.6875 18.703125 
L 17.828125 18.703125 
L 11.1875 0 
L 0.78125 0 
z
" id="DejaVuSans-41"/>
     <path d="M 9.8125 72.90625 
L 55.90625 72.90625 
L 55.90625 64.59375 
L 19.671875 64.59375 
L 19.671875 43.015625 
L 54.390625 43.015625 
L 54.390625 34.71875 
L 19.671875 34.71875 
L 19.671875 8.296875 
L 56.78125 8.296875 
L 56.78125 0 
L 9.8125 0 
z
" id="DejaVuSans-45"/>
     <path d="M 53.515625 70.515625 
L 53.515625 60.890625 
Q 47.90625 63.578125 42.921875 64.890625 
Q 37.9375 66.21875 33.296875 66.21875 
Q 25.25 66.21875 20.875 63.09375 
Q 16.5 59.96875 16.5 54.203125 
Q 16.5 49.359375 19.40625 46.890625 
Q 22.3125 44.4375 30.421875 42.921875 
L 36.375 41.703125 
Q 47.40625 39.59375 52.65625 34.296875 
Q 57.90625 29 57.90625 20.125 
Q 57.90625 9.515625 50.796875 4.046875 
Q 43.703125 -1.421875 29.984375 -1.421875 
Q 24.8125 -1.421875 18.96875 -0.25 
Q 13.140625 0.921875 6.890625 3.21875 
L 6.890625 13.375 
Q 12.890625 10.015625 18.65625 8.296875 
Q 24.421875 6.59375 29.984375 6.59375 
Q 38.421875 6.59375 43.015625 9.90625 
Q 47.609375 13.234375 47.609375 19.390625 
Q 47.609375 24.75 44.3125 27.78125 
Q 41.015625 30.8125 33.5 32.328125 
L 27.484375 33.5 
Q 16.453125 35.6875 11.515625 40.375 
Q 6.59375 45.0625 6.59375 53.421875 
Q 6.59375 63.09375 13.40625 68.65625 
Q 20.21875 74.21875 32.171875 74.21875 
Q 37.3125 74.21875 42.625 73.28125 
Q 47.953125 72.359375 53.515625 70.515625 
z
" id="DejaVuSans-53"/>
     <path d="M 19.671875 64.796875 
L 19.671875 37.40625 
L 32.078125 37.40625 
Q 38.96875 37.40625 42.71875 40.96875 
Q 46.484375 44.53125 46.484375 51.125 
Q 46.484375 57.671875 42.71875 61.234375 
Q 38.96875 64.796875 32.078125 64.796875 
z
M 9.8125 72.90625 
L 32.078125 72.90625 
Q 44.34375 72.90625 50.609375 67.359375 
Q 56.890625 61.8125 56.890625 51.125 
Q 56.890625 40.328125 50.609375 34.8125 
Q 44.34375 29.296875 32.078125 29.296875 
L 19.671875 29.296875 
L 19.671875 0 
L 9.8125 0 
z
" id="DejaVuSans-50"/>
    </defs>
    <g transform="translate(369.18424 294.223611)scale(0.17 -0.17)">
     <use xlink:href="#DejaVuSans-43"/>
     <use x="69.824219" xlink:href="#DejaVuSans-4d"/>
     <use x="156.103516" xlink:href="#DejaVuSans-41"/>
     <use x="224.511719" xlink:href="#DejaVuSans-20"/>
     <use x="256.298828" xlink:href="#DejaVuSans-45"/>
     <use x="319.482422" xlink:href="#DejaVuSans-53"/>
     <use x="382.958984" xlink:href="#DejaVuSans-20"/>
     <use x="414.746094" xlink:href="#DejaVuSans-50"/>
     <use x="475.048828" xlink:href="#DejaVuSans-50"/>
     <use x="535.351562" xlink:href="#DejaVuSans-4d"/>
    </g>
   </g>
   <g id="text_14">
    <!-- CMAES posi -->
    <g transform="translate(369.18424 208.666383)scale(0.17 -0.17)">
     <use xlink:href="#DejaVuSans-43"/>
     <use x="69.824219" xlink:href="#DejaVuSans-4d"/>
     <use x="156.103516" xlink:href="#DejaVuSans-41"/>
     <use x="224.511719" xlink:href="#DejaVuSans-45"/>
     <use x="287.695312" xlink:href="#DejaVuSans-53"/>
     <use x="351.171875" xlink:href="#DejaVuSans-20"/>
     <use x="382.958984" xlink:href="#DejaVuSans-70"/>
     <use x="446.435547" xlink:href="#DejaVuSans-6f"/>
     <use x="507.617188" xlink:href="#DejaVuSans-73"/>
     <use x="559.716797" xlink:href="#DejaVuSans-69"/>
    </g>
   </g>
   <g id="text_15">
    <!-- CMA ES CSA -->
    <g transform="translate(369.18424 123.109155)scale(0.17 -0.17)">
     <use xlink:href="#DejaVuSans-43"/>
     <use x="69.824219" xlink:href="#DejaVuSans-4d"/>
     <use x="156.103516" xlink:href="#DejaVuSans-41"/>
     <use x="224.511719" xlink:href="#DejaVuSans-20"/>
     <use x="256.298828" xlink:href="#DejaVuSans-45"/>
     <use x="319.482422" xlink:href="#DejaVuSans-53"/>
     <use x="382.958984" xlink:href="#DejaVuSans-20"/>
     <use x="414.746094" xlink:href="#DejaVuSans-43"/>
     <use x="484.570312" xlink:href="#DejaVuSans-53"/>
     <use x="548.0625" xlink:href="#DejaVuSans-41"/>
    </g>
   </g>
   <g id="text_16">
    <!-- best 2009 -->
    <defs>
     <path d="M 48.6875 27.296875 
Q 48.6875 37.203125 44.609375 42.84375 
Q 40.53125 48.484375 33.40625 48.484375 
Q 26.265625 48.484375 22.1875 42.84375 
Q 18.109375 37.203125 18.109375 27.296875 
Q 18.109375 17.390625 22.1875 11.75 
Q 26.265625 6.109375 33.40625 6.109375 
Q 40.53125 6.109375 44.609375 11.75 
Q 48.6875 17.390625 48.6875 27.296875 
z
M 18.109375 46.390625 
Q 20.953125 51.265625 25.265625 53.625 
Q 29.59375 56 35.59375 56 
Q 45.5625 56 51.78125 48.09375 
Q 58.015625 40.1875 58.015625 27.296875 
Q 58.015625 14.40625 51.78125 6.484375 
Q 45.5625 -1.421875 35.59375 -1.421875 
Q 29.59375 -1.421875 25.265625 0.953125 
Q 20.953125 3.328125 18.109375 8.203125 
L 18.109375 0 
L 9.078125 0 
L 9.078125 75.984375 
L 18.109375 75.984375 
z
" id="DejaVuSans-62"/>
     <path d="M 10.984375 1.515625 
L 10.984375 10.5 
Q 14.703125 8.734375 18.5 7.8125 
Q 22.3125 6.890625 25.984375 6.890625 
Q 35.75 6.890625 40.890625 13.453125 
Q 46.046875 20.015625 46.78125 33.40625 
Q 43.953125 29.203125 39.59375 26.953125 
Q 35.25 24.703125 29.984375 24.703125 
Q 19.046875 24.703125 12.671875 31.3125 
Q 6.296875 37.9375 6.296875 49.421875 
Q 6.296875 60.640625 12.9375 67.421875 
Q 19.578125 74.21875 30.609375 74.21875 
Q 43.265625 74.21875 49.921875 64.515625 
Q 56.59375 54.828125 56.59375 36.375 
Q 56.59375 19.140625 48.40625 8.859375 
Q 40.234375 -1.421875 26.421875 -1.421875 
Q 22.703125 -1.421875 18.890625 -0.6875 
Q 15.09375 0.046875 10.984375 1.515625 
z
M 30.609375 32.421875 
Q 37.25 32.421875 41.125 36.953125 
Q 45.015625 41.5 45.015625 49.421875 
Q 45.015625 57.28125 41.125 61.84375 
Q 37.25 66.40625 30.609375 66.40625 
Q 23.96875 66.40625 20.09375 61.84375 
Q 16.21875 57.28125 16.21875 49.421875 
Q 16.21875 41.5 20.09375 36.953125 
Q 23.96875 32.421875 30.609375 32.421875 
z
" id="DejaVuSans-39"/>
    </defs>
    <g transform="translate(369.18424 37.551928)scale(0.17 -0.17)">
     <use xlink:href="#DejaVuSans-62"/>
     <use x="63.476562" xlink:href="#DejaVuSans-65"/>
     <use x="125" xlink:href="#DejaVuSans-73"/>
     <use x="177.099609" xlink:href="#DejaVuSans-74"/>
     <use x="216.308594" xlink:href="#DejaVuSans-20"/>
     <use x="248.095703" xlink:href="#DejaVuSans-32"/>
     <use x="311.71875" xlink:href="#DejaVuSans-30"/>
     <use x="375.341797" xlink:href="#DejaVuSans-30"/>
     <use x="438.964844" xlink:href="#DejaVuSans-39"/>
    </g>
   </g>
   <g id="text_17">
    <!-- bbob f16, 20-D -->
    <defs>
     <path d="M 19.671875 64.796875 
L 19.671875 8.109375 
L 31.59375 8.109375 
Q 46.6875 8.109375 53.6875 14.9375 
Q 60.6875 21.78125 60.6875 36.53125 
Q 60.6875 51.171875 53.6875 57.984375 
Q 46.6875 64.796875 31.59375 64.796875 
z
M 9.8125 72.90625 
L 30.078125 72.90625 
Q 51.265625 72.90625 61.171875 64.09375 
Q 71.09375 55.28125 71.09375 36.53125 
Q 71.09375 17.671875 61.125 8.828125 
Q 51.171875 0 30.078125 0 
L 9.8125 0 
z
" id="DejaVuSans-44"/>
    </defs>
    <g transform="translate(58.89048 35.290806)scale(0.102 -0.102)">
     <use xlink:href="#DejaVuSans-62"/>
     <use x="63.476562" xlink:href="#DejaVuSans-62"/>
     <use x="126.953125" xlink:href="#DejaVuSans-6f"/>
     <use x="188.134766" xlink:href="#DejaVuSans-62"/>
     <use x="251.611328" xlink:href="#DejaVuSans-20"/>
     <use x="283.398438" xlink:href="#DejaVuSans-66"/>
     <use x="318.603516" xlink:href="#DejaVuSans-31"/>
     <use x="382.226562" xlink:href="#DejaVuSans-36"/>
     <use x="445.849609" xlink:href="#DejaVuSans-2c"/>
     <use x="477.636719" xlink:href="#DejaVuSans-20"/>
     <use x="509.423828" xlink:href="#DejaVuSans-32"/>
     <use x="573.046875" xlink:href="#DejaVuSans-30"/>
     <use x="636.669922" xlink:href="#DejaVuSans-2d"/>
     <use x="672.753906" xlink:href="#DejaVuSans-44"/>
    </g>
    <!-- 51 targets: 100..1e-08 -->
    <defs>
     <path d="M 10.796875 72.90625 
L 49.515625 72.90625 
L 49.515625 64.59375 
L 19.828125 64.59375 
L 19.828125 46.734375 
Q 21.96875 47.46875 24.109375 47.828125 
Q 26.265625 48.1875 28.421875 48.1875 
Q 40.625 48.1875 47.75 41.5 
Q 54.890625 34.8125 54.890625 23.390625 
Q 54.890625 11.625 47.5625 5.09375 
Q 40.234375 -1.421875 26.90625 -1.421875 
Q 22.3125 -1.421875 17.546875 -0.640625 
Q 12.796875 0.140625 7.71875 1.703125 
L 7.71875 11.625 
Q 12.109375 9.234375 16.796875 8.0625 
Q 21.484375 6.890625 26.703125 6.890625 
Q 35.15625 6.890625 40.078125 11.328125 
Q 45.015625 15.765625 45.015625 23.390625 
Q 45.015625 31 40.078125 35.4375 
Q 35.15625 39.890625 26.703125 39.890625 
Q 22.75 39.890625 18.8125 39.015625 
Q 14.890625 38.140625 10.796875 36.28125 
z
" id="DejaVuSans-35"/>
     <path d="M 11.71875 12.40625 
L 22.015625 12.40625 
L 22.015625 0 
L 11.71875 0 
z
M 11.71875 51.703125 
L 22.015625 51.703125 
L 22.015625 39.3125 
L 11.71875 39.3125 
z
" id="DejaVuSans-3a"/>
    </defs>
    <g transform="translate(58.89048 46.712575)scale(0.102 -0.102)">
     <use xlink:href="#DejaVuSans-35"/>
     <use x="63.623047" xlink:href="#DejaVuSans-31"/>
     <use x="127.246094" xlink:href="#DejaVuSans-20"/>
     <use x="159.033203" xlink:href="#DejaVuSans-74"/>
     <use x="198.242188" xlink:href="#DejaVuSans-61"/>
     <use x="259.521484" xlink:href="#DejaVuSans-72"/>
     <use x="300.619141" xlink:href="#DejaVuSans-67"/>
     <use x="364.095703" xlink:href="#DejaVuSans-65"/>
     <use x="425.619141" xlink:href="#DejaVuSans-74"/>
     <use x="464.828125" xlink:href="#DejaVuSans-73"/>
     <use x="516.927734" xlink:href="#DejaVuSans-3a"/>
     <use x="550.619141" xlink:href="#DejaVuSans-20"/>
     <use x="582.40625" xlink:href="#DejaVuSans-31"/>
     <use x="646.029297" xlink:href="#DejaVuSans-30"/>
     <use x="709.652344" xlink:href="#DejaVuSans-30"/>
     <use x="773.275391" xlink:href="#DejaVuSans-2e"/>
     <use x="805.0625" xlink:href="#DejaVuSans-2e"/>
     <use x="836.849609" xlink:href="#DejaVuSans-31"/>
     <use x="900.472656" xlink:href="#DejaVuSans-65"/>
     <use x="961.996094" xlink:href="#DejaVuSans-2d"/>
     <use x="998.080078" xlink:href="#DejaVuSans-30"/>
     <use x="1061.703125" xlink:href="#DejaVuSans-38"/>
    </g>
    <!-- 15 instances -->
    <g transform="translate(58.89048 58.134344)scale(0.102 -0.102)">
     <use xlink:href="#DejaVuSans-31"/>
     <use x="63.623047" xlink:href="#DejaVuSans-35"/>
     <use x="127.246094" xlink:href="#DejaVuSans-20"/>
     <use x="159.033203" xlink:href="#DejaVuSans-69"/>
     <use x="186.816406" xlink:href="#DejaVuSans-6e"/>
     <use x="250.195312" xlink:href="#DejaVuSans-73"/>
     <use x="302.294922" xlink:href="#DejaVuSans-74"/>
     <use x="341.503906" xlink:href="#DejaVuSans-61"/>
     <use x="402.783203" xlink:href="#DejaVuSans-6e"/>
     <use x="466.162109" xlink:href="#DejaVuSans-63"/>
     <use x="521.142578" xlink:href="#DejaVuSans-65"/>
     <use x="582.666016" xlink:href="#DejaVuSans-73"/>
    </g>
   </g>
   <g id="text_18">
    <!-- v0.0.0 -->
    <g style="fill:#808080;" transform="translate(178.96275 290.099912)scale(0.1 -0.1)">
     <use xlink:href="#DejaVuSans-76"/>
     <use x="59.179688" xlink:href="#DejaVuSans-30"/>
     <use x="122.802734" xlink:href="#DejaVuSans-2e"/>
     <use x="154.589844" xlink:href="#DejaVuSans-30"/>
     <use x="218.212891" xlink:href="#DejaVuSans-2e"/>
     <use x="250" xlink:href="#DejaVuSans-30"/>
    </g>
   </g>
   <g id="text_19">
    <!-- 16 Weierstrass -->
    <defs>
     <path d="M 3.328125 72.90625 
L 13.28125 72.90625 
L 28.609375 11.28125 
L 43.890625 72.90625 
L 54.984375 72.90625 
L 70.3125 11.28125 
L 85.59375 72.90625 
L 95.609375 72.90625 
L 77.296875 0 
L 64.890625 0 
L 49.515625 63.28125 
L 33.984375 0 
L 21.578125 0 
z
" id="DejaVuSans-57"/>
    </defs>
    <g transform="translate(119.878375 18.84)scale(0.2 -0.2)">
     <use xlink:href="#DejaVuSans-31"/>
     <use x="63.623047" xlink:href="#DejaVuSans-36"/>
     <use x="127.246094" xlink:href="#DejaVuSans-20"/>
     <use x="159.033203" xlink:href="#DejaVuSans-57"/>
     <use x="257.832031" xlink:href="#DejaVuSans-65"/>
     <use x="319.355469" xlink:href="#DejaVuSans-69"/>
     <use x="347.138672" xlink:href="#DejaVuSans-65"/>
     <use x="408.662109" xlink:href="#DejaVuSans-72"/>
     <use x="449.775391" xlink:href="#DejaVuSans-73"/>
     <use x="501.875" xlink:href="#DejaVuSans-74"/>
     <use x="541.083984" xlink:href="#DejaVuSans-72"/>
     <use x="582.197266" xlink:href="#DejaVuSans-61"/>
     <use x="643.476562" xlink:href="#DejaVuSans-73"/>
     <use x="695.576172" xlink:href="#DejaVuSans-73"/>
    </g>
   </g>
  </g>
 </g>
 <defs>
  <clipPath id="p564ba1d0dc">
   <rect height="270.04" width="277.048" x="56.12" y="24.84"/>
  </clipPath>
 </defs>
</svg>
