<?xml version="1.0" encoding="utf-8" standalone="no"?>
<!DOCTYPE svg PUBLIC "-//W3C//DTD SVG 1.1//EN"
  "http://www.w3.org/Graphics/SVG/1.1/DTD/svg11.dtd">
<!-- Created with matplotlib (http://matplotlib.org/) -->
<svg height="345pt" version="1.1" viewBox="0 0 460 345" width="460pt" xmlns="http://www.w3.org/2000/svg" xmlns:xlink="http://www.w3.org/1999/xlink">
 <defs>
  <style type="text/css">
*{stroke-linecap:butt;stroke-linejoin:round;}
  </style>
 </defs>
 <g id="figure_1">
  <g id="patch_1">
   <path d="M 0 345.6 
L 460.8 345.6 
L 460.8 0 
L 0 0 
z
" style="fill:#ffffff;"/>
  </g>
  <g id="axes_1">
   <g id="patch_2">
    <path d="M 56.12 294.88 
L 333.168 294.88 
L 333.168 24.84 
L 56.12 24.84 
z
" style="fill:#ffffff;"/>
   </g>
   <g id="line2d_1">
    <path d="M 44.205749 294.88 
L 44.205749 263.425137 
L 56.12 263.425137 
L 56.12 252.940182 
L 68.034251 252.940182 
L 68.034251 242.455228 
L 77.653281 242.455228 
L 77.653281 237.212751 
L 85.422286 237.212751 
L 85.422286 231.970274 
L 86.917893 231.970274 
L 86.917893 226.727797 
L 89.567532 226.727797 
L 89.567532 221.485319 
L 90.753425 221.485319 
L 90.753425 216.242842 
L 91.862754 216.242842 
L 91.862754 211.000365 
L 93.887283 211.000365 
L 93.887283 205.757888 
L 94.816624 205.757888 
L 94.816624 200.515411 
L 96.536922 200.515411 
L 96.536922 195.272933 
L 97.336537 195.272933 
L 97.336537 190.030456 
L 98.832144 190.030456 
L 98.832144 184.787979 
L 100.207968 184.787979 
L 100.207968 179.545502 
L 101.481783 179.545502 
L 101.481783 174.303025 
L 103.777005 174.303025 
L 103.777005 169.060547 
L 105.317315 169.060547 
L 105.317315 163.81807 
L 106.730875 163.81807 
L 106.730875 158.575593 
L 108.451173 158.575593 
L 108.451173 153.333116 
L 110.014853 153.333116 
L 110.014853 148.090639 
L 111.100812 148.090639 
L 111.100812 142.848162 
L 111.788449 142.848162 
L 111.788449 137.605684 
L 113.396034 137.605684 
L 113.396034 132.363207 
L 113.999206 132.363207 
L 113.999206 127.12073 
L 114.293036 127.12073 
L 114.293036 121.878253 
L 115.145539 121.878253 
L 115.145539 116.635776 
L 115.957752 116.635776 
L 115.957752 111.393298 
L 116.478659 111.393298 
L 116.478659 106.150821 
L 117.231566 106.150821 
L 117.231566 100.908344 
L 117.715785 100.908344 
L 117.715785 95.665867 
L 118.417459 95.665867 
L 118.417459 90.42339 
L 119.09161 90.42339 
L 119.09161 85.180912 
L 119.310576 85.180912 
L 119.310576 79.938435 
L 119.740314 79.938435 
L 119.740314 74.695958 
L 120.568842 74.695958 
L 120.568842 69.453481 
L 120.769881 69.453481 
L 120.769881 64.211004 
L 121.359263 64.211004 
L 121.359263 58.968526 
L 121.551317 58.968526 
L 121.551317 53.726049 
L 122.114929 53.726049 
L 122.114929 48.483572 
L 122.660646 48.483572 
L 122.660646 43.241095 
L 123.015063 43.241095 
L 123.015063 37.998618 
L 123.189569 37.998618 
L 123.189569 32.756141 
L 123.533353 32.756141 
L 123.533353 27.513663 
L 333.168 27.513663 
" style="fill:none;stroke:#f5deb3;stroke-linecap:square;stroke-width:4;"/>
   </g>
   <g id="line2d_2">
    <defs>
     <path d="M -0 7.778175 
L 7.778175 0 
L 0 -7.778175 
L -7.778175 -0 
z
" id="m371472fbb1" style="stroke:#f5deb3;stroke-linejoin:miter;stroke-width:1.5;"/>
    </defs>
    <g>
     <use style="fill:#f5deb3;stroke:#f5deb3;stroke-linejoin:miter;stroke-width:1.5;" x="68.034251" xlink:href="#m371472fbb1" y="242.455228"/>
     <use style="fill:#f5deb3;stroke:#f5deb3;stroke-linejoin:miter;stroke-width:1.5;" x="108.451173" xlink:href="#m371472fbb1" y="158.575593"/>
     <use style="fill:#f5deb3;stroke:#f5deb3;stroke-linejoin:miter;stroke-width:1.5;" x="123.533353" xlink:href="#m371472fbb1" y="32.756141"/>
     <use style="fill:#f5deb3;stroke:#f5deb3;stroke-linejoin:miter;stroke-width:1.5;" x="123.533353" xlink:href="#m371472fbb1" y="27.513663"/>
     <use style="fill:#f5deb3;stroke:#f5deb3;stroke-linejoin:miter;stroke-width:1.5;" x="123.533353" xlink:href="#m371472fbb1" y="27.513663"/>
     <use style="fill:#f5deb3;stroke:#f5deb3;stroke-linejoin:miter;stroke-width:1.5;" x="333.168" xlink:href="#m371472fbb1" y="27.513663"/>
    </g>
   </g>
   <g id="line2d_3">
    <path style="fill:none;stroke:#f5deb3;stroke-linecap:square;stroke-width:4;"/>
    <g/>
   </g>
   <g id="line2d_4">
    <path d="M 333.168 27.513663 
L 363.64328 32.86099 
" style="fill:none;stroke:#f5deb3;stroke-linecap:square;stroke-width:4;"/>
    <g>
     <use style="fill:#f5deb3;stroke:#f5deb3;stroke-linejoin:miter;stroke-width:1.5;" x="333.168" xlink:href="#m371472fbb1" y="27.513663"/>
     <use style="fill:#f5deb3;stroke:#f5deb3;stroke-linejoin:miter;stroke-width:1.5;" x="363.64328" xlink:href="#m371472fbb1" y="32.86099"/>
    </g>
   </g>
   <g id="matplotlib.axis_1">
    <g id="xtick_1">
     <g id="line2d_5">
      <path clip-path="url(#p15bb96b53b)" d="M 56.12 294.88 
L 56.12 24.84 
" style="fill:none;stroke:#b0b0b0;stroke-linecap:square;stroke-width:0.8;"/>
     </g>
     <g id="line2d_6">
      <defs>
       <path d="M 0 0 
L 0 3.5 
" id="m1f7fcbe28c" style="stroke:#000000;stroke-width:0.8;"/>
      </defs>
      <g>
       <use style="stroke:#000000;stroke-width:0.8;" x="56.12" xlink:href="#m1f7fcbe28c" y="294.88"/>
      </g>
     </g>
     <g id="text_1">
      <!-- 0 -->
      <defs>
       <path d="M 31.78125 66.40625 
Q 24.171875 66.40625 20.328125 58.90625 
Q 16.5 51.421875 16.5 36.375 
Q 16.5 21.390625 20.328125 13.890625 
Q 24.171875 6.390625 31.78125 6.390625 
Q 39.453125 6.390625 43.28125 13.890625 
Q 47.125 21.390625 47.125 36.375 
Q 47.125 51.421875 43.28125 58.90625 
Q 39.453125 66.40625 31.78125 66.40625 
z
M 31.78125 74.21875 
Q 44.046875 74.21875 50.515625 64.515625 
Q 56.984375 54.828125 56.984375 36.375 
Q 56.984375 17.96875 50.515625 8.265625 
Q 44.046875 -1.421875 31.78125 -1.421875 
Q 19.53125 -1.421875 13.0625 8.265625 
Q 6.59375 17.96875 6.59375 36.375 
Q 6.59375 54.828125 13.0625 64.515625 
Q 19.53125 74.21875 31.78125 74.21875 
z
" id="DejaVuSans-30"/>
      </defs>
      <g transform="translate(49.7575 317.076875)scale(0.2 -0.2)">
       <use xlink:href="#DejaVuSans-30"/>
      </g>
     </g>
    </g>
    <g id="xtick_2">
     <g id="line2d_7">
      <path clip-path="url(#p15bb96b53b)" d="M 135.276571 294.88 
L 135.276571 24.84 
" style="fill:none;stroke:#b0b0b0;stroke-linecap:square;stroke-width:0.8;"/>
     </g>
     <g id="line2d_8">
      <g>
       <use style="stroke:#000000;stroke-width:0.8;" x="135.276571" xlink:href="#m1f7fcbe28c" y="294.88"/>
      </g>
     </g>
     <g id="text_2">
      <!-- 2 -->
      <defs>
       <path d="M 19.1875 8.296875 
L 53.609375 8.296875 
L 53.609375 0 
L 7.328125 0 
L 7.328125 8.296875 
Q 12.9375 14.109375 22.625 23.890625 
Q 32.328125 33.6875 34.8125 36.53125 
Q 39.546875 41.84375 41.421875 45.53125 
Q 43.3125 49.21875 43.3125 52.78125 
Q 43.3125 58.59375 39.234375 62.25 
Q 35.15625 65.921875 28.609375 65.921875 
Q 23.96875 65.921875 18.8125 64.3125 
Q 13.671875 62.703125 7.8125 59.421875 
L 7.8125 69.390625 
Q 13.765625 71.78125 18.9375 73 
Q 24.125 74.21875 28.421875 74.21875 
Q 39.75 74.21875 46.484375 68.546875 
Q 53.21875 62.890625 53.21875 53.421875 
Q 53.21875 48.921875 51.53125 44.890625 
Q 49.859375 40.875 45.40625 35.40625 
Q 44.1875 33.984375 37.640625 27.21875 
Q 31.109375 20.453125 19.1875 8.296875 
z
" id="DejaVuSans-32"/>
      </defs>
      <g transform="translate(128.914071 317.076875)scale(0.2 -0.2)">
       <use xlink:href="#DejaVuSans-32"/>
      </g>
     </g>
    </g>
    <g id="xtick_3">
     <g id="line2d_9">
      <path clip-path="url(#p15bb96b53b)" d="M 214.433143 294.88 
L 214.433143 24.84 
" style="fill:none;stroke:#b0b0b0;stroke-linecap:square;stroke-width:0.8;"/>
     </g>
     <g id="line2d_10">
      <g>
       <use style="stroke:#000000;stroke-width:0.8;" x="214.433143" xlink:href="#m1f7fcbe28c" y="294.88"/>
      </g>
     </g>
     <g id="text_3">
      <!-- 4 -->
      <defs>
       <path d="M 37.796875 64.3125 
L 12.890625 25.390625 
L 37.796875 25.390625 
z
M 35.203125 72.90625 
L 47.609375 72.90625 
L 47.609375 25.390625 
L 58.015625 25.390625 
L 58.015625 17.1875 
L 47.609375 17.1875 
L 47.609375 0 
L 37.796875 0 
L 37.796875 17.1875 
L 4.890625 17.1875 
L 4.890625 26.703125 
z
" id="DejaVuSans-34"/>
      </defs>
      <g transform="translate(208.070643 317.076875)scale(0.2 -0.2)">
       <use xlink:href="#DejaVuSans-34"/>
      </g>
     </g>
    </g>
    <g id="xtick_4">
     <g id="line2d_11">
      <path clip-path="url(#p15bb96b53b)" d="M 293.589714 294.88 
L 293.589714 24.84 
" style="fill:none;stroke:#b0b0b0;stroke-linecap:square;stroke-width:0.8;"/>
     </g>
     <g id="line2d_12">
      <g>
       <use style="stroke:#000000;stroke-width:0.8;" x="293.589714" xlink:href="#m1f7fcbe28c" y="294.88"/>
      </g>
     </g>
     <g id="text_4">
      <!-- 6 -->
      <defs>
       <path d="M 33.015625 40.375 
Q 26.375 40.375 22.484375 35.828125 
Q 18.609375 31.296875 18.609375 23.390625 
Q 18.609375 15.53125 22.484375 10.953125 
Q 26.375 6.390625 33.015625 6.390625 
Q 39.65625 6.390625 43.53125 10.953125 
Q 47.40625 15.53125 47.40625 23.390625 
Q 47.40625 31.296875 43.53125 35.828125 
Q 39.65625 40.375 33.015625 40.375 
z
M 52.59375 71.296875 
L 52.59375 62.3125 
Q 48.875 64.0625 45.09375 64.984375 
Q 41.3125 65.921875 37.59375 65.921875 
Q 27.828125 65.921875 22.671875 59.328125 
Q 17.53125 52.734375 16.796875 39.40625 
Q 19.671875 43.65625 24.015625 45.921875 
Q 28.375 48.1875 33.59375 48.1875 
Q 44.578125 48.1875 50.953125 41.515625 
Q 57.328125 34.859375 57.328125 23.390625 
Q 57.328125 12.15625 50.6875 5.359375 
Q 44.046875 -1.421875 33.015625 -1.421875 
Q 20.359375 -1.421875 13.671875 8.265625 
Q 6.984375 17.96875 6.984375 36.375 
Q 6.984375 53.65625 15.1875 63.9375 
Q 23.390625 74.21875 37.203125 74.21875 
Q 40.921875 74.21875 44.703125 73.484375 
Q 48.484375 72.75 52.59375 71.296875 
z
" id="DejaVuSans-36"/>
      </defs>
      <g transform="translate(287.227214 317.076875)scale(0.2 -0.2)">
       <use xlink:href="#DejaVuSans-36"/>
      </g>
     </g>
    </g>
    <g id="xtick_5">
     <g id="line2d_13">
      <path clip-path="url(#p15bb96b53b)" d="M 56.12 294.88 
L 56.12 24.84 
" style="fill:none;stroke:#b0b0b0;stroke-linecap:square;stroke-width:0.8;"/>
     </g>
     <g id="line2d_14">
      <defs>
       <path d="M 0 0 
L 0 2 
" id="me3aada9ec3" style="stroke:#000000;stroke-width:0.6;"/>
      </defs>
      <g>
       <use style="stroke:#000000;stroke-width:0.6;" x="56.12" xlink:href="#me3aada9ec3" y="294.88"/>
      </g>
     </g>
    </g>
    <g id="xtick_6">
     <g id="line2d_15">
      <path clip-path="url(#p15bb96b53b)" d="M 95.698286 294.88 
L 95.698286 24.84 
" style="fill:none;stroke:#b0b0b0;stroke-linecap:square;stroke-width:0.8;"/>
     </g>
     <g id="line2d_16">
      <g>
       <use style="stroke:#000000;stroke-width:0.6;" x="95.698286" xlink:href="#me3aada9ec3" y="294.88"/>
      </g>
     </g>
    </g>
    <g id="xtick_7">
     <g id="line2d_17">
      <path clip-path="url(#p15bb96b53b)" d="M 135.276571 294.88 
L 135.276571 24.84 
" style="fill:none;stroke:#b0b0b0;stroke-linecap:square;stroke-width:0.8;"/>
     </g>
     <g id="line2d_18">
      <g>
       <use style="stroke:#000000;stroke-width:0.6;" x="135.276571" xlink:href="#me3aada9ec3" y="294.88"/>
      </g>
     </g>
    </g>
    <g id="xtick_8">
     <g id="line2d_19">
      <path clip-path="url(#p15bb96b53b)" d="M 174.854857 294.88 
L 174.854857 24.84 
" style="fill:none;stroke:#b0b0b0;stroke-linecap:square;stroke-width:0.8;"/>
     </g>
     <g id="line2d_20">
      <g>
       <use style="stroke:#000000;stroke-width:0.6;" x="174.854857" xlink:href="#me3aada9ec3" y="294.88"/>
      </g>
     </g>
    </g>
    <g id="xtick_9">
     <g id="line2d_21">
      <path clip-path="url(#p15bb96b53b)" d="M 214.433143 294.88 
L 214.433143 24.84 
" style="fill:none;stroke:#b0b0b0;stroke-linecap:square;stroke-width:0.8;"/>
     </g>
     <g id="line2d_22">
      <g>
       <use style="stroke:#000000;stroke-width:0.6;" x="214.433143" xlink:href="#me3aada9ec3" y="294.88"/>
      </g>
     </g>
    </g>
    <g id="xtick_10">
     <g id="line2d_23">
      <path clip-path="url(#p15bb96b53b)" d="M 254.011429 294.88 
L 254.011429 24.84 
" style="fill:none;stroke:#b0b0b0;stroke-linecap:square;stroke-width:0.8;"/>
     </g>
     <g id="line2d_24">
      <g>
       <use style="stroke:#000000;stroke-width:0.6;" x="254.011429" xlink:href="#me3aada9ec3" y="294.88"/>
      </g>
     </g>
    </g>
    <g id="xtick_11">
     <g id="line2d_25">
      <path clip-path="url(#p15bb96b53b)" d="M 293.589714 294.88 
L 293.589714 24.84 
" style="fill:none;stroke:#b0b0b0;stroke-linecap:square;stroke-width:0.8;"/>
     </g>
     <g id="line2d_26">
      <g>
       <use style="stroke:#000000;stroke-width:0.6;" x="293.589714" xlink:href="#me3aada9ec3" y="294.88"/>
      </g>
     </g>
    </g>
    <g id="xtick_12">
     <g id="line2d_27">
      <path clip-path="url(#p15bb96b53b)" d="M 333.168 294.88 
L 333.168 24.84 
" style="fill:none;stroke:#b0b0b0;stroke-linecap:square;stroke-width:0.8;"/>
     </g>
     <g id="line2d_28">
      <g>
       <use style="stroke:#000000;stroke-width:0.6;" x="333.168" xlink:href="#me3aada9ec3" y="294.88"/>
      </g>
     </g>
    </g>
    <g id="text_5">
     <!-- log10(# f-evals / dimension) -->
     <defs>
      <path d="M 9.421875 75.984375 
L 18.40625 75.984375 
L 18.40625 0 
L 9.421875 0 
z
" id="DejaVuSans-6c"/>
      <path d="M 30.609375 48.390625 
Q 23.390625 48.390625 19.1875 42.75 
Q 14.984375 37.109375 14.984375 27.296875 
Q 14.984375 17.484375 19.15625 11.84375 
Q 23.34375 6.203125 30.609375 6.203125 
Q 37.796875 6.203125 41.984375 11.859375 
Q 46.1875 17.53125 46.1875 27.296875 
Q 46.1875 37.015625 41.984375 42.703125 
Q 37.796875 48.390625 30.609375 48.390625 
z
M 30.609375 56 
Q 42.328125 56 49.015625 48.375 
Q 55.71875 40.765625 55.71875 27.296875 
Q 55.71875 13.875 49.015625 6.21875 
Q 42.328125 -1.421875 30.609375 -1.421875 
Q 18.84375 -1.421875 12.171875 6.21875 
Q 5.515625 13.875 5.515625 27.296875 
Q 5.515625 40.765625 12.171875 48.375 
Q 18.84375 56 30.609375 56 
z
" id="DejaVuSans-6f"/>
      <path d="M 45.40625 27.984375 
Q 45.40625 37.75 41.375 43.109375 
Q 37.359375 48.484375 30.078125 48.484375 
Q 22.859375 48.484375 18.828125 43.109375 
Q 14.796875 37.75 14.796875 27.984375 
Q 14.796875 18.265625 18.828125 12.890625 
Q 22.859375 7.515625 30.078125 7.515625 
Q 37.359375 7.515625 41.375 12.890625 
Q 45.40625 18.265625 45.40625 27.984375 
z
M 54.390625 6.78125 
Q 54.390625 -7.171875 48.1875 -13.984375 
Q 42 -20.796875 29.203125 -20.796875 
Q 24.46875 -20.796875 20.265625 -20.09375 
Q 16.0625 -19.390625 12.109375 -17.921875 
L 12.109375 -9.1875 
Q 16.0625 -11.328125 19.921875 -12.34375 
Q 23.78125 -13.375 27.78125 -13.375 
Q 36.625 -13.375 41.015625 -8.765625 
Q 45.40625 -4.15625 45.40625 5.171875 
L 45.40625 9.625 
Q 42.625 4.78125 38.28125 2.390625 
Q 33.9375 0 27.875 0 
Q 17.828125 0 11.671875 7.65625 
Q 5.515625 15.328125 5.515625 27.984375 
Q 5.515625 40.671875 11.671875 48.328125 
Q 17.828125 56 27.875 56 
Q 33.9375 56 38.28125 53.609375 
Q 42.625 51.21875 45.40625 46.390625 
L 45.40625 54.6875 
L 54.390625 54.6875 
z
" id="DejaVuSans-67"/>
      <path d="M 12.40625 8.296875 
L 28.515625 8.296875 
L 28.515625 63.921875 
L 10.984375 60.40625 
L 10.984375 69.390625 
L 28.421875 72.90625 
L 38.28125 72.90625 
L 38.28125 8.296875 
L 54.390625 8.296875 
L 54.390625 0 
L 12.40625 0 
z
" id="DejaVuSans-31"/>
      <path d="M 31 75.875 
Q 24.46875 64.65625 21.28125 53.65625 
Q 18.109375 42.671875 18.109375 31.390625 
Q 18.109375 20.125 21.3125 9.0625 
Q 24.515625 -2 31 -13.1875 
L 23.1875 -13.1875 
Q 15.875 -1.703125 12.234375 9.375 
Q 8.59375 20.453125 8.59375 31.390625 
Q 8.59375 42.28125 12.203125 53.3125 
Q 15.828125 64.359375 23.1875 75.875 
z
" id="DejaVuSans-28"/>
      <path d="M 51.125 44 
L 36.921875 44 
L 32.8125 27.6875 
L 47.125 27.6875 
z
M 43.796875 71.78125 
L 38.71875 51.515625 
L 52.984375 51.515625 
L 58.109375 71.78125 
L 65.921875 71.78125 
L 60.890625 51.515625 
L 76.125 51.515625 
L 76.125 44 
L 58.984375 44 
L 54.984375 27.6875 
L 70.515625 27.6875 
L 70.515625 20.21875 
L 53.078125 20.21875 
L 48 0 
L 40.1875 0 
L 45.21875 20.21875 
L 30.90625 20.21875 
L 25.875 0 
L 18.015625 0 
L 23.09375 20.21875 
L 7.71875 20.21875 
L 7.71875 27.6875 
L 24.90625 27.6875 
L 29 44 
L 13.28125 44 
L 13.28125 51.515625 
L 30.90625 51.515625 
L 35.890625 71.78125 
z
" id="DejaVuSans-23"/>
      <path id="DejaVuSans-20"/>
      <path d="M 37.109375 75.984375 
L 37.109375 68.5 
L 28.515625 68.5 
Q 23.6875 68.5 21.796875 66.546875 
Q 19.921875 64.59375 19.921875 59.515625 
L 19.921875 54.6875 
L 34.71875 54.6875 
L 34.71875 47.703125 
L 19.921875 47.703125 
L 19.921875 0 
L 10.890625 0 
L 10.890625 47.703125 
L 2.296875 47.703125 
L 2.296875 54.6875 
L 10.890625 54.6875 
L 10.890625 58.5 
Q 10.890625 67.625 15.140625 71.796875 
Q 19.390625 75.984375 28.609375 75.984375 
z
" id="DejaVuSans-66"/>
      <path d="M 4.890625 31.390625 
L 31.203125 31.390625 
L 31.203125 23.390625 
L 4.890625 23.390625 
z
" id="DejaVuSans-2d"/>
      <path d="M 56.203125 29.59375 
L 56.203125 25.203125 
L 14.890625 25.203125 
Q 15.484375 15.921875 20.484375 11.0625 
Q 25.484375 6.203125 34.421875 6.203125 
Q 39.59375 6.203125 44.453125 7.46875 
Q 49.3125 8.734375 54.109375 11.28125 
L 54.109375 2.78125 
Q 49.265625 0.734375 44.1875 -0.34375 
Q 39.109375 -1.421875 33.890625 -1.421875 
Q 20.796875 -1.421875 13.15625 6.1875 
Q 5.515625 13.8125 5.515625 26.8125 
Q 5.515625 40.234375 12.765625 48.109375 
Q 20.015625 56 32.328125 56 
Q 43.359375 56 49.78125 48.890625 
Q 56.203125 41.796875 56.203125 29.59375 
z
M 47.21875 32.234375 
Q 47.125 39.59375 43.09375 43.984375 
Q 39.0625 48.390625 32.421875 48.390625 
Q 24.90625 48.390625 20.390625 44.140625 
Q 15.875 39.890625 15.1875 32.171875 
z
" id="DejaVuSans-65"/>
      <path d="M 2.984375 54.6875 
L 12.5 54.6875 
L 29.59375 8.796875 
L 46.6875 54.6875 
L 56.203125 54.6875 
L 35.6875 0 
L 23.484375 0 
z
" id="DejaVuSans-76"/>
      <path d="M 34.28125 27.484375 
Q 23.390625 27.484375 19.1875 25 
Q 14.984375 22.515625 14.984375 16.5 
Q 14.984375 11.71875 18.140625 8.90625 
Q 21.296875 6.109375 26.703125 6.109375 
Q 34.1875 6.109375 38.703125 11.40625 
Q 43.21875 16.703125 43.21875 25.484375 
L 43.21875 27.484375 
z
M 52.203125 31.203125 
L 52.203125 0 
L 43.21875 0 
L 43.21875 8.296875 
Q 40.140625 3.328125 35.546875 0.953125 
Q 30.953125 -1.421875 24.3125 -1.421875 
Q 15.921875 -1.421875 10.953125 3.296875 
Q 6 8.015625 6 15.921875 
Q 6 25.140625 12.171875 29.828125 
Q 18.359375 34.515625 30.609375 34.515625 
L 43.21875 34.515625 
L 43.21875 35.40625 
Q 43.21875 41.609375 39.140625 45 
Q 35.0625 48.390625 27.6875 48.390625 
Q 23 48.390625 18.546875 47.265625 
Q 14.109375 46.140625 10.015625 43.890625 
L 10.015625 52.203125 
Q 14.9375 54.109375 19.578125 55.046875 
Q 24.21875 56 28.609375 56 
Q 40.484375 56 46.34375 49.84375 
Q 52.203125 43.703125 52.203125 31.203125 
z
" id="DejaVuSans-61"/>
      <path d="M 44.28125 53.078125 
L 44.28125 44.578125 
Q 40.484375 46.53125 36.375 47.5 
Q 32.28125 48.484375 27.875 48.484375 
Q 21.1875 48.484375 17.84375 46.4375 
Q 14.5 44.390625 14.5 40.28125 
Q 14.5 37.15625 16.890625 35.375 
Q 19.28125 33.59375 26.515625 31.984375 
L 29.59375 31.296875 
Q 39.15625 29.25 43.1875 25.515625 
Q 47.21875 21.78125 47.21875 15.09375 
Q 47.21875 7.46875 41.1875 3.015625 
Q 35.15625 -1.421875 24.609375 -1.421875 
Q 20.21875 -1.421875 15.453125 -0.5625 
Q 10.6875 0.296875 5.421875 2 
L 5.421875 11.28125 
Q 10.40625 8.6875 15.234375 7.390625 
Q 20.0625 6.109375 24.8125 6.109375 
Q 31.15625 6.109375 34.5625 8.28125 
Q 37.984375 10.453125 37.984375 14.40625 
Q 37.984375 18.0625 35.515625 20.015625 
Q 33.0625 21.96875 24.703125 23.78125 
L 21.578125 24.515625 
Q 13.234375 26.265625 9.515625 29.90625 
Q 5.8125 33.546875 5.8125 39.890625 
Q 5.8125 47.609375 11.28125 51.796875 
Q 16.75 56 26.8125 56 
Q 31.78125 56 36.171875 55.265625 
Q 40.578125 54.546875 44.28125 53.078125 
z
" id="DejaVuSans-73"/>
      <path d="M 25.390625 72.90625 
L 33.6875 72.90625 
L 8.296875 -9.28125 
L 0 -9.28125 
z
" id="DejaVuSans-2f"/>
      <path d="M 45.40625 46.390625 
L 45.40625 75.984375 
L 54.390625 75.984375 
L 54.390625 0 
L 45.40625 0 
L 45.40625 8.203125 
Q 42.578125 3.328125 38.25 0.953125 
Q 33.9375 -1.421875 27.875 -1.421875 
Q 17.96875 -1.421875 11.734375 6.484375 
Q 5.515625 14.40625 5.515625 27.296875 
Q 5.515625 40.1875 11.734375 48.09375 
Q 17.96875 56 27.875 56 
Q 33.9375 56 38.25 53.625 
Q 42.578125 51.265625 45.40625 46.390625 
z
M 14.796875 27.296875 
Q 14.796875 17.390625 18.875 11.75 
Q 22.953125 6.109375 30.078125 6.109375 
Q 37.203125 6.109375 41.296875 11.75 
Q 45.40625 17.390625 45.40625 27.296875 
Q 45.40625 37.203125 41.296875 42.84375 
Q 37.203125 48.484375 30.078125 48.484375 
Q 22.953125 48.484375 18.875 42.84375 
Q 14.796875 37.203125 14.796875 27.296875 
z
" id="DejaVuSans-64"/>
      <path d="M 9.421875 54.6875 
L 18.40625 54.6875 
L 18.40625 0 
L 9.421875 0 
z
M 9.421875 75.984375 
L 18.40625 75.984375 
L 18.40625 64.59375 
L 9.421875 64.59375 
z
" id="DejaVuSans-69"/>
      <path d="M 52 44.1875 
Q 55.375 50.25 60.0625 53.125 
Q 64.75 56 71.09375 56 
Q 79.640625 56 84.28125 50.015625 
Q 88.921875 44.046875 88.921875 33.015625 
L 88.921875 0 
L 79.890625 0 
L 79.890625 32.71875 
Q 79.890625 40.578125 77.09375 44.375 
Q 74.3125 48.1875 68.609375 48.1875 
Q 61.625 48.1875 57.5625 43.546875 
Q 53.515625 38.921875 53.515625 30.90625 
L 53.515625 0 
L 44.484375 0 
L 44.484375 32.71875 
Q 44.484375 40.625 41.703125 44.40625 
Q 38.921875 48.1875 33.109375 48.1875 
Q 26.21875 48.1875 22.15625 43.53125 
Q 18.109375 38.875 18.109375 30.90625 
L 18.109375 0 
L 9.078125 0 
L 9.078125 54.6875 
L 18.109375 54.6875 
L 18.109375 46.1875 
Q 21.1875 51.21875 25.484375 53.609375 
Q 29.78125 56 35.6875 56 
Q 41.65625 56 45.828125 52.96875 
Q 50 49.953125 52 44.1875 
z
" id="DejaVuSans-6d"/>
      <path d="M 54.890625 33.015625 
L 54.890625 0 
L 45.90625 0 
L 45.90625 32.71875 
Q 45.90625 40.484375 42.875 44.328125 
Q 39.84375 48.1875 33.796875 48.1875 
Q 26.515625 48.1875 22.3125 43.546875 
Q 18.109375 38.921875 18.109375 30.90625 
L 18.109375 0 
L 9.078125 0 
L 9.078125 54.6875 
L 18.109375 54.6875 
L 18.109375 46.1875 
Q 21.34375 51.125 25.703125 53.5625 
Q 30.078125 56 35.796875 56 
Q 45.21875 56 50.046875 50.171875 
Q 54.890625 44.34375 54.890625 33.015625 
z
" id="DejaVuSans-6e"/>
      <path d="M 8.015625 75.875 
L 15.828125 75.875 
Q 23.140625 64.359375 26.78125 53.3125 
Q 30.421875 42.28125 30.421875 31.390625 
Q 30.421875 20.453125 26.78125 9.375 
Q 23.140625 -1.703125 15.828125 -13.1875 
L 8.015625 -13.1875 
Q 14.5 -2 17.703125 9.0625 
Q 20.90625 20.125 20.90625 31.390625 
Q 20.90625 42.671875 17.703125 53.65625 
Q 14.5 64.65625 8.015625 75.875 
z
" id="DejaVuSans-29"/>
     </defs>
     <g transform="translate(73.803219 338.153594)scale(0.17 -0.17)">
      <use xlink:href="#DejaVuSans-6c"/>
      <use x="27.783203" xlink:href="#DejaVuSans-6f"/>
      <use x="88.964844" xlink:href="#DejaVuSans-67"/>
      <use x="152.441406" xlink:href="#DejaVuSans-31"/>
      <use x="216.064453" xlink:href="#DejaVuSans-30"/>
      <use x="279.6875" xlink:href="#DejaVuSans-28"/>
      <use x="318.701172" xlink:href="#DejaVuSans-23"/>
      <use x="402.490234" xlink:href="#DejaVuSans-20"/>
      <use x="434.277344" xlink:href="#DejaVuSans-66"/>
      <use x="469.404297" xlink:href="#DejaVuSans-2d"/>
      <use x="505.488281" xlink:href="#DejaVuSans-65"/>
      <use x="567.011719" xlink:href="#DejaVuSans-76"/>
      <use x="626.191406" xlink:href="#DejaVuSans-61"/>
      <use x="687.470703" xlink:href="#DejaVuSans-6c"/>
      <use x="715.253906" xlink:href="#DejaVuSans-73"/>
      <use x="767.353516" xlink:href="#DejaVuSans-20"/>
      <use x="799.140625" xlink:href="#DejaVuSans-2f"/>
      <use x="832.832031" xlink:href="#DejaVuSans-20"/>
      <use x="864.619141" xlink:href="#DejaVuSans-64"/>
      <use x="928.095703" xlink:href="#DejaVuSans-69"/>
      <use x="955.878906" xlink:href="#DejaVuSans-6d"/>
      <use x="1053.291016" xlink:href="#DejaVuSans-65"/>
      <use x="1114.814453" xlink:href="#DejaVuSans-6e"/>
      <use x="1178.193359" xlink:href="#DejaVuSans-73"/>
      <use x="1230.292969" xlink:href="#DejaVuSans-69"/>
      <use x="1258.076172" xlink:href="#DejaVuSans-6f"/>
      <use x="1319.257812" xlink:href="#DejaVuSans-6e"/>
      <use x="1382.636719" xlink:href="#DejaVuSans-29"/>
     </g>
    </g>
   </g>
   <g id="matplotlib.axis_2">
    <g id="ytick_1">
     <g id="line2d_29">
      <path clip-path="url(#p15bb96b53b)" d="M 56.12 294.88 
L 333.168 294.88 
" style="fill:none;stroke:#b0b0b0;stroke-linecap:square;stroke-width:0.8;"/>
     </g>
     <g id="line2d_30">
      <defs>
       <path d="M 0 0 
L -3.5 0 
" id="m7fcbf7e572" style="stroke:#000000;stroke-width:0.8;"/>
      </defs>
      <g>
       <use style="stroke:#000000;stroke-width:0.8;" x="56.12" xlink:href="#m7fcbf7e572" y="294.88"/>
      </g>
     </g>
     <g id="text_6">
      <!-- 0.0 -->
      <defs>
       <path d="M 10.6875 12.40625 
L 21 12.40625 
L 21 0 
L 10.6875 0 
z
" id="DejaVuSans-2e"/>
      </defs>
      <g transform="translate(23.675 300.95875)scale(0.16 -0.16)">
       <use xlink:href="#DejaVuSans-30"/>
       <use x="63.623047" xlink:href="#DejaVuSans-2e"/>
       <use x="95.410156" xlink:href="#DejaVuSans-30"/>
      </g>
     </g>
    </g>
    <g id="ytick_2">
     <g id="line2d_31">
      <path clip-path="url(#p15bb96b53b)" d="M 56.12 241.406733 
L 333.168 241.406733 
" style="fill:none;stroke:#b0b0b0;stroke-linecap:square;stroke-width:0.8;"/>
     </g>
     <g id="line2d_32">
      <g>
       <use style="stroke:#000000;stroke-width:0.8;" x="56.12" xlink:href="#m7fcbf7e572" y="241.406733"/>
      </g>
     </g>
     <g id="text_7">
      <!-- 0.2 -->
      <g transform="translate(23.675 247.485483)scale(0.16 -0.16)">
       <use xlink:href="#DejaVuSans-30"/>
       <use x="63.623047" xlink:href="#DejaVuSans-2e"/>
       <use x="95.410156" xlink:href="#DejaVuSans-32"/>
      </g>
     </g>
    </g>
    <g id="ytick_3">
     <g id="line2d_33">
      <path clip-path="url(#p15bb96b53b)" d="M 56.12 187.933465 
L 333.168 187.933465 
" style="fill:none;stroke:#b0b0b0;stroke-linecap:square;stroke-width:0.8;"/>
     </g>
     <g id="line2d_34">
      <g>
       <use style="stroke:#000000;stroke-width:0.8;" x="56.12" xlink:href="#m7fcbf7e572" y="187.933465"/>
      </g>
     </g>
     <g id="text_8">
      <!-- 0.4 -->
      <g transform="translate(23.675 194.012215)scale(0.16 -0.16)">
       <use xlink:href="#DejaVuSans-30"/>
       <use x="63.623047" xlink:href="#DejaVuSans-2e"/>
       <use x="95.410156" xlink:href="#DejaVuSans-34"/>
      </g>
     </g>
    </g>
    <g id="ytick_4">
     <g id="line2d_35">
      <path clip-path="url(#p15bb96b53b)" d="M 56.12 134.460198 
L 333.168 134.460198 
" style="fill:none;stroke:#b0b0b0;stroke-linecap:square;stroke-width:0.8;"/>
     </g>
     <g id="line2d_36">
      <g>
       <use style="stroke:#000000;stroke-width:0.8;" x="56.12" xlink:href="#m7fcbf7e572" y="134.460198"/>
      </g>
     </g>
     <g id="text_9">
      <!-- 0.6 -->
      <g transform="translate(23.675 140.538948)scale(0.16 -0.16)">
       <use xlink:href="#DejaVuSans-30"/>
       <use x="63.623047" xlink:href="#DejaVuSans-2e"/>
       <use x="95.410156" xlink:href="#DejaVuSans-36"/>
      </g>
     </g>
    </g>
    <g id="ytick_5">
     <g id="line2d_37">
      <path clip-path="url(#p15bb96b53b)" d="M 56.12 80.986931 
L 333.168 80.986931 
" style="fill:none;stroke:#b0b0b0;stroke-linecap:square;stroke-width:0.8;"/>
     </g>
     <g id="line2d_38">
      <g>
       <use style="stroke:#000000;stroke-width:0.8;" x="56.12" xlink:href="#m7fcbf7e572" y="80.986931"/>
      </g>
     </g>
     <g id="text_10">
      <!-- 0.8 -->
      <defs>
       <path d="M 31.78125 34.625 
Q 24.75 34.625 20.71875 30.859375 
Q 16.703125 27.09375 16.703125 20.515625 
Q 16.703125 13.921875 20.71875 10.15625 
Q 24.75 6.390625 31.78125 6.390625 
Q 38.8125 6.390625 42.859375 10.171875 
Q 46.921875 13.96875 46.921875 20.515625 
Q 46.921875 27.09375 42.890625 30.859375 
Q 38.875 34.625 31.78125 34.625 
z
M 21.921875 38.8125 
Q 15.578125 40.375 12.03125 44.71875 
Q 8.5 49.078125 8.5 55.328125 
Q 8.5 64.0625 14.71875 69.140625 
Q 20.953125 74.21875 31.78125 74.21875 
Q 42.671875 74.21875 48.875 69.140625 
Q 55.078125 64.0625 55.078125 55.328125 
Q 55.078125 49.078125 51.53125 44.71875 
Q 48 40.375 41.703125 38.8125 
Q 48.828125 37.15625 52.796875 32.3125 
Q 56.78125 27.484375 56.78125 20.515625 
Q 56.78125 9.90625 50.3125 4.234375 
Q 43.84375 -1.421875 31.78125 -1.421875 
Q 19.734375 -1.421875 13.25 4.234375 
Q 6.78125 9.90625 6.78125 20.515625 
Q 6.78125 27.484375 10.78125 32.3125 
Q 14.796875 37.15625 21.921875 38.8125 
z
M 18.3125 54.390625 
Q 18.3125 48.734375 21.84375 45.5625 
Q 25.390625 42.390625 31.78125 42.390625 
Q 38.140625 42.390625 41.71875 45.5625 
Q 45.3125 48.734375 45.3125 54.390625 
Q 45.3125 60.0625 41.71875 63.234375 
Q 38.140625 66.40625 31.78125 66.40625 
Q 25.390625 66.40625 21.84375 63.234375 
Q 18.3125 60.0625 18.3125 54.390625 
z
" id="DejaVuSans-38"/>
      </defs>
      <g transform="translate(23.675 87.065681)scale(0.16 -0.16)">
       <use xlink:href="#DejaVuSans-30"/>
       <use x="63.623047" xlink:href="#DejaVuSans-2e"/>
       <use x="95.410156" xlink:href="#DejaVuSans-38"/>
      </g>
     </g>
    </g>
    <g id="ytick_6">
     <g id="line2d_39">
      <path clip-path="url(#p15bb96b53b)" d="M 56.12 27.513663 
L 333.168 27.513663 
" style="fill:none;stroke:#b0b0b0;stroke-linecap:square;stroke-width:0.8;"/>
     </g>
     <g id="line2d_40">
      <g>
       <use style="stroke:#000000;stroke-width:0.8;" x="56.12" xlink:href="#m7fcbf7e572" y="27.513663"/>
      </g>
     </g>
     <g id="text_11">
      <!-- 1.0 -->
      <g transform="translate(23.675 33.592413)scale(0.16 -0.16)">
       <use xlink:href="#DejaVuSans-31"/>
       <use x="63.623047" xlink:href="#DejaVuSans-2e"/>
       <use x="95.410156" xlink:href="#DejaVuSans-30"/>
      </g>
     </g>
    </g>
    <g id="text_12">
     <!-- Fraction of function,target pairs -->
     <defs>
      <path d="M 9.8125 72.90625 
L 51.703125 72.90625 
L 51.703125 64.59375 
L 19.671875 64.59375 
L 19.671875 43.109375 
L 48.578125 43.109375 
L 48.578125 34.8125 
L 19.671875 34.8125 
L 19.671875 0 
L 9.8125 0 
z
" id="DejaVuSans-46"/>
      <path d="M 41.109375 46.296875 
Q 39.59375 47.171875 37.8125 47.578125 
Q 36.03125 48 33.890625 48 
Q 26.265625 48 22.1875 43.046875 
Q 18.109375 38.09375 18.109375 28.8125 
L 18.109375 0 
L 9.078125 0 
L 9.078125 54.6875 
L 18.109375 54.6875 
L 18.109375 46.1875 
Q 20.953125 51.171875 25.484375 53.578125 
Q 30.03125 56 36.53125 56 
Q 37.453125 56 38.578125 55.875 
Q 39.703125 55.765625 41.0625 55.515625 
z
" id="DejaVuSans-72"/>
      <path d="M 48.78125 52.59375 
L 48.78125 44.1875 
Q 44.96875 46.296875 41.140625 47.34375 
Q 37.3125 48.390625 33.40625 48.390625 
Q 24.65625 48.390625 19.8125 42.84375 
Q 14.984375 37.3125 14.984375 27.296875 
Q 14.984375 17.28125 19.8125 11.734375 
Q 24.65625 6.203125 33.40625 6.203125 
Q 37.3125 6.203125 41.140625 7.25 
Q 44.96875 8.296875 48.78125 10.40625 
L 48.78125 2.09375 
Q 45.015625 0.34375 40.984375 -0.53125 
Q 36.96875 -1.421875 32.421875 -1.421875 
Q 20.0625 -1.421875 12.78125 6.34375 
Q 5.515625 14.109375 5.515625 27.296875 
Q 5.515625 40.671875 12.859375 48.328125 
Q 20.21875 56 33.015625 56 
Q 37.15625 56 41.109375 55.140625 
Q 45.0625 54.296875 48.78125 52.59375 
z
" id="DejaVuSans-63"/>
      <path d="M 18.3125 70.21875 
L 18.3125 54.6875 
L 36.8125 54.6875 
L 36.8125 47.703125 
L 18.3125 47.703125 
L 18.3125 18.015625 
Q 18.3125 11.328125 20.140625 9.421875 
Q 21.96875 7.515625 27.59375 7.515625 
L 36.8125 7.515625 
L 36.8125 0 
L 27.59375 0 
Q 17.1875 0 13.234375 3.875 
Q 9.28125 7.765625 9.28125 18.015625 
L 9.28125 47.703125 
L 2.6875 47.703125 
L 2.6875 54.6875 
L 9.28125 54.6875 
L 9.28125 70.21875 
z
" id="DejaVuSans-74"/>
      <path d="M 8.5 21.578125 
L 8.5 54.6875 
L 17.484375 54.6875 
L 17.484375 21.921875 
Q 17.484375 14.15625 20.5 10.265625 
Q 23.53125 6.390625 29.59375 6.390625 
Q 36.859375 6.390625 41.078125 11.03125 
Q 45.3125 15.671875 45.3125 23.6875 
L 45.3125 54.6875 
L 54.296875 54.6875 
L 54.296875 0 
L 45.3125 0 
L 45.3125 8.40625 
Q 42.046875 3.421875 37.71875 1 
Q 33.40625 -1.421875 27.6875 -1.421875 
Q 18.265625 -1.421875 13.375 4.4375 
Q 8.5 10.296875 8.5 21.578125 
z
M 31.109375 56 
z
" id="DejaVuSans-75"/>
      <path d="M 11.71875 12.40625 
L 22.015625 12.40625 
L 22.015625 4 
L 14.015625 -11.625 
L 7.71875 -11.625 
L 11.71875 4 
z
" id="DejaVuSans-2c"/>
      <path d="M 18.109375 8.203125 
L 18.109375 -20.796875 
L 9.078125 -20.796875 
L 9.078125 54.6875 
L 18.109375 54.6875 
L 18.109375 46.390625 
Q 20.953125 51.265625 25.265625 53.625 
Q 29.59375 56 35.59375 56 
Q 45.5625 56 51.78125 48.09375 
Q 58.015625 40.1875 58.015625 27.296875 
Q 58.015625 14.40625 51.78125 6.484375 
Q 45.5625 -1.421875 35.59375 -1.421875 
Q 29.59375 -1.421875 25.265625 0.953125 
Q 20.953125 3.328125 18.109375 8.203125 
z
M 48.6875 27.296875 
Q 48.6875 37.203125 44.609375 42.84375 
Q 40.53125 48.484375 33.40625 48.484375 
Q 26.265625 48.484375 22.1875 42.84375 
Q 18.109375 37.203125 18.109375 27.296875 
Q 18.109375 17.390625 22.1875 11.75 
Q 26.265625 6.109375 33.40625 6.109375 
Q 40.53125 6.109375 44.609375 11.75 
Q 48.6875 17.390625 48.6875 27.296875 
z
" id="DejaVuSans-70"/>
     </defs>
     <g transform="translate(16.139531 294.999375)rotate(-90)scale(0.17 -0.17)">
      <use xlink:href="#DejaVuSans-46"/>
      <use x="57.410156" xlink:href="#DejaVuSans-72"/>
      <use x="98.523438" xlink:href="#DejaVuSans-61"/>
      <use x="159.802734" xlink:href="#DejaVuSans-63"/>
      <use x="214.783203" xlink:href="#DejaVuSans-74"/>
      <use x="253.992188" xlink:href="#DejaVuSans-69"/>
      <use x="281.775391" xlink:href="#DejaVuSans-6f"/>
      <use x="342.957031" xlink:href="#DejaVuSans-6e"/>
      <use x="406.335938" xlink:href="#DejaVuSans-20"/>
      <use x="438.123047" xlink:href="#DejaVuSans-6f"/>
      <use x="499.304688" xlink:href="#DejaVuSans-66"/>
      <use x="534.509766" xlink:href="#DejaVuSans-20"/>
      <use x="566.296875" xlink:href="#DejaVuSans-66"/>
      <use x="601.501953" xlink:href="#DejaVuSans-75"/>
      <use x="664.880859" xlink:href="#DejaVuSans-6e"/>
      <use x="728.259766" xlink:href="#DejaVuSans-63"/>
      <use x="783.240234" xlink:href="#DejaVuSans-74"/>
      <use x="822.449219" xlink:href="#DejaVuSans-69"/>
      <use x="850.232422" xlink:href="#DejaVuSans-6f"/>
      <use x="911.414062" xlink:href="#DejaVuSans-6e"/>
      <use x="974.792969" xlink:href="#DejaVuSans-2c"/>
      <use x="1006.580078" xlink:href="#DejaVuSans-74"/>
      <use x="1045.789062" xlink:href="#DejaVuSans-61"/>
      <use x="1107.068359" xlink:href="#DejaVuSans-72"/>
      <use x="1148.166016" xlink:href="#DejaVuSans-67"/>
      <use x="1211.642578" xlink:href="#DejaVuSans-65"/>
      <use x="1273.166016" xlink:href="#DejaVuSans-74"/>
      <use x="1312.375" xlink:href="#DejaVuSans-20"/>
      <use x="1344.162109" xlink:href="#DejaVuSans-70"/>
      <use x="1407.638672" xlink:href="#DejaVuSans-61"/>
      <use x="1468.917969" xlink:href="#DejaVuSans-69"/>
      <use x="1496.701172" xlink:href="#DejaVuSans-72"/>
      <use x="1537.814453" xlink:href="#DejaVuSans-73"/>
     </g>
    </g>
   </g>
   <g id="line2d_41">
    <defs>
     <path d="M 0 1.5 
C 0.397805 1.5 0.77937 1.341951 1.06066 1.06066 
C 1.341951 0.77937 1.5 0.397805 1.5 0 
C 1.5 -0.397805 1.341951 -0.77937 1.06066 -1.06066 
C 0.77937 -1.341951 0.397805 -1.5 0 -1.5 
C -0.397805 -1.5 -0.77937 -1.341951 -1.06066 -1.06066 
C -1.341951 -0.77937 -1.5 -0.397805 -1.5 0 
C -1.5 0.397805 -1.341951 0.77937 -1.06066 1.06066 
C -0.77937 1.341951 -0.397805 1.5 0 1.5 
z
" id="mc283c5ae05" style="stroke:#f5deb3;"/>
    </defs>
    <g>
     <use style="fill:#f5deb3;stroke:#f5deb3;" x="123.533353" xlink:href="#mc283c5ae05" y="27.513663"/>
     <use style="fill:#f5deb3;stroke:#f5deb3;" x="123.533353" xlink:href="#mc283c5ae05" y="27.513663"/>
    </g>
   </g>
   <g id="line2d_42">
    <defs>
     <path d="M 0 1.5 
C 0.397805 1.5 0.77937 1.341951 1.06066 1.06066 
C 1.341951 0.77937 1.5 0.397805 1.5 0 
C 1.5 -0.397805 1.341951 -0.77937 1.06066 -1.06066 
C 0.77937 -1.341951 0.397805 -1.5 0 -1.5 
C -0.397805 -1.5 -0.77937 -1.341951 -1.06066 -1.06066 
C -1.341951 -0.77937 -1.5 -0.397805 -1.5 0 
C -1.5 0.397805 -1.341951 0.77937 -1.06066 1.06066 
C -0.77937 1.341951 -0.397805 1.5 0 1.5 
z
" id="m860d5b301f" style="stroke:#000080;"/>
    </defs>
    <g>
     <use style="fill:#000080;stroke:#000080;" x="240.338996" xlink:href="#m860d5b301f" y="174.303025"/>
     <use style="fill:#000080;stroke:#000080;" x="240.338996" xlink:href="#m860d5b301f" y="174.303025"/>
    </g>
   </g>
   <g id="line2d_43">
    <path d="M 44.205749 294.88 
L 44.205749 269.716109 
L 56.12 269.716109 
L 56.12 264.99788 
L 63.08939 264.99788 
L 63.08939 259.231155 
L 68.034251 259.231155 
L 68.034251 258.18266 
L 71.869783 258.18266 
L 71.869783 253.988678 
L 75.003641 253.988678 
L 75.003641 252.415935 
L 77.653281 252.415935 
L 77.653281 250.318944 
L 81.973032 250.318944 
L 81.973032 249.270448 
L 83.784035 249.270448 
L 83.784035 248.221953 
L 85.422286 248.221953 
L 85.422286 247.697705 
L 86.917893 247.697705 
L 86.917893 247.173458 
L 89.567532 247.173458 
L 89.567532 246.64921 
L 90.753425 246.64921 
L 90.753425 245.600714 
L 91.862754 245.600714 
L 91.862754 244.027971 
L 101.481783 244.027971 
L 101.481783 243.503724 
L 103.777005 243.503724 
L 103.777005 241.93098 
L 105.317315 241.93098 
L 105.317315 240.882485 
L 106.730875 240.882485 
L 106.730875 240.358237 
L 107.612537 240.358237 
L 107.612537 238.785494 
L 108.451173 238.785494 
L 108.451173 237.736999 
L 111.100812 237.736999 
L 111.100812 237.212751 
L 112.122219 237.212751 
L 112.122219 236.164255 
L 113.396034 236.164255 
L 113.396034 235.11576 
L 115.691256 235.11576 
L 115.691256 234.591512 
L 117.715785 234.591512 
L 117.715785 229.349035 
L 119.526788 229.349035 
L 119.526788 227.252044 
L 121.16504 227.252044 
L 121.16504 226.727797 
L 121.741249 226.727797 
L 121.741249 226.203549 
L 125.764637 226.203549 
L 125.764637 225.679301 
L 127.605507 225.679301 
L 127.605507 225.155053 
L 131.441039 225.155053 
L 131.441039 224.106558 
L 132.073821 224.106558 
L 132.073821 223.58231 
L 139.519758 223.58231 
L 139.519758 223.058063 
L 140.561812 223.058063 
L 140.561812 222.533815 
L 142.754037 222.533815 
L 142.754037 222.009567 
L 144.295937 222.009567 
L 144.295937 221.485319 
L 145.37982 221.485319 
L 145.37982 220.961072 
L 146.444328 220.961072 
L 146.444328 219.388328 
L 147.489022 219.388328 
L 147.489022 218.864081 
L 148.192385 218.864081 
L 148.192385 217.291338 
L 150.853603 217.291338 
L 150.853603 216.242842 
L 153.066156 216.242842 
L 153.066156 214.670099 
L 153.695627 214.670099 
L 153.695627 213.621604 
L 158.910606 213.621604 
L 158.910606 213.097356 
L 159.779224 213.097356 
L 159.779224 211.524613 
L 161.394923 211.524613 
L 161.394923 211.000365 
L 162.185133 211.000365 
L 162.185133 208.903374 
L 162.715689 208.903374 
L 162.715689 207.854879 
L 171.734745 207.854879 
L 171.734745 206.806383 
L 173.110569 206.806383 
L 173.110569 206.282136 
L 176.609906 206.282136 
L 176.609906 205.757888 
L 177.324302 205.757888 
L 177.324302 204.709392 
L 177.597554 204.709392 
L 177.597554 204.185145 
L 178.159748 204.185145 
L 178.159748 203.660897 
L 179.291664 203.660897 
L 179.291664 202.088154 
L 179.639983 202.088154 
L 179.639983 201.563906 
L 179.763153 201.563906 
L 179.763153 201.039658 
L 179.930284 201.039658 
L 179.930284 200.515411 
L 180.533677 200.515411 
L 180.533677 199.991163 
L 182.624644 199.991163 
L 182.624644 199.466915 
L 182.885165 199.466915 
L 182.885165 198.942667 
L 183.173607 198.942667 
L 183.173607 198.41842 
L 183.415557 198.41842 
L 183.415557 197.894172 
L 185.668944 197.894172 
L 185.668944 197.369924 
L 186.790581 197.369924 
L 186.854837 195.797181 
L 187.976188 195.797181 
L 187.976188 195.272933 
L 189.212479 195.272933 
L 189.298004 194.224438 
L 189.497145 194.224438 
L 189.497145 193.70019 
L 190.176512 193.70019 
L 190.176512 193.175943 
L 190.809676 193.175943 
L 190.809676 192.651695 
L 193.146884 192.651695 
L 193.146884 192.127447 
L 193.597548 192.127447 
L 193.66673 191.078952 
L 193.872618 191.078952 
L 193.872618 190.554704 
L 196.269867 190.554704 
L 196.269867 190.030456 
L 197.205714 190.030456 
L 197.285139 188.981961 
L 199.747643 188.981961 
L 199.747643 188.457713 
L 201.21411 188.457713 
L 201.262257 187.409218 
L 202.01128 187.409218 
L 202.01128 186.88497 
L 203.593271 186.88497 
L 203.593271 186.360722 
L 206.366795 186.360722 
L 206.366795 185.836474 
L 209.170232 185.836474 
L 209.170232 185.312227 
L 209.955144 185.312227 
L 209.955144 184.787979 
L 211.127575 184.787979 
L 211.127575 184.263731 
L 212.596338 184.263731 
L 212.596338 183.739484 
L 214.041102 183.739484 
L 214.041102 183.215236 
L 215.176569 183.215236 
L 215.176569 182.690988 
L 216.622653 182.690988 
L 216.622653 182.16674 
L 218.067426 182.16674 
L 218.084113 181.118245 
L 219.118439 181.118245 
L 219.213714 180.06975 
L 225.970733 180.06975 
L 225.970733 179.545502 
L 227.473769 179.545502 
L 227.473769 179.021254 
L 227.827488 179.021254 
L 227.827488 178.497006 
L 229.20583 178.497006 
L 229.20583 177.972759 
L 230.726011 177.972759 
L 230.726011 177.448511 
L 231.01927 177.448511 
L 231.01927 176.924263 
L 233.407358 176.924263 
L 233.407358 176.400016 
L 234.504625 176.400016 
L 234.504625 175.875768 
L 235.361927 175.875768 
L 235.361927 175.35152 
L 239.761244 175.35152 
L 239.761244 174.827272 
L 240.338996 174.827272 
L 240.338996 174.303025 
L 333.168 174.303025 
L 333.168 174.303025 
" style="fill:none;stroke:#000080;stroke-linecap:square;stroke-width:1.5;"/>
   </g>
   <g id="line2d_44">
    <defs>
     <path d="M 0 6 
C 1.591219 6 3.117479 5.367802 4.242641 4.242641 
C 5.367802 3.117479 6 1.591219 6 0 
C 6 -1.591219 5.367802 -3.117479 4.242641 -4.242641 
C 3.117479 -5.367802 1.591219 -6 0 -6 
C -1.591219 -6 -3.117479 -5.367802 -4.242641 -4.242641 
C -5.367802 -3.117479 -6 -1.591219 -6 0 
C -6 1.591219 -5.367802 3.117479 -4.242641 4.242641 
C -3.117479 5.367802 -1.591219 6 0 6 
z
" id="md294679dd0" style="stroke:#000080;stroke-width:1.5;"/>
    </defs>
    <g>
     <use style="fill:none;stroke:#000080;stroke-width:1.5;" x="91.862754" xlink:href="#md294679dd0" y="245.600714"/>
     <use style="fill:none;stroke:#000080;stroke-width:1.5;" x="162.715689" xlink:href="#md294679dd0" y="208.903374"/>
     <use style="fill:none;stroke:#000080;stroke-width:1.5;" x="209.955144" xlink:href="#md294679dd0" y="185.312227"/>
     <use style="fill:none;stroke:#000080;stroke-width:1.5;" x="240.338996" xlink:href="#md294679dd0" y="174.303025"/>
     <use style="fill:none;stroke:#000080;stroke-width:1.5;" x="240.338996" xlink:href="#md294679dd0" y="174.303025"/>
     <use style="fill:none;stroke:#000080;stroke-width:1.5;" x="333.168" xlink:href="#md294679dd0" y="174.303025"/>
    </g>
   </g>
   <g id="line2d_45">
    <path style="fill:none;stroke:#000080;stroke-linecap:square;stroke-width:1.5;"/>
    <g/>
   </g>
   <g id="line2d_46">
    <path clip-path="url(#p15bb96b53b)" d="M 178.49679 203.660897 
" style="fill:none;stroke:#000080;stroke-linecap:square;stroke-width:1.5;"/>
    <defs>
     <path d="M -12 12 
L 12 -12 
M -12 -12 
L 12 12 
" id="mea20bf5845" style="stroke:#000080;"/>
    </defs>
    <g clip-path="url(#p15bb96b53b)">
     <use style="fill:#000080;stroke:#000080;" x="178.49679" xlink:href="#mea20bf5845" y="203.660897"/>
    </g>
   </g>
   <g id="line2d_47">
    <defs>
     <path d="M 0 1.5 
C 0.397805 1.5 0.77937 1.341951 1.06066 1.06066 
C 1.341951 0.77937 1.5 0.397805 1.5 0 
C 1.5 -0.397805 1.341951 -0.77937 1.06066 -1.06066 
C 0.77937 -1.341951 0.397805 -1.5 0 -1.5 
C -0.397805 -1.5 -0.77937 -1.341951 -1.06066 -1.06066 
C -1.341951 -0.77937 -1.5 -0.397805 -1.5 0 
C -1.5 0.397805 -1.341951 0.77937 -1.06066 1.06066 
C -0.77937 1.341951 -0.397805 1.5 0 1.5 
z
" id="mfc9010578d" style="stroke:#ff00ff;"/>
    </defs>
    <g>
     <use style="fill:#ff00ff;stroke:#ff00ff;" x="215.325716" xlink:href="#mfc9010578d" y="27.513663"/>
     <use style="fill:#ff00ff;stroke:#ff00ff;" x="215.325716" xlink:href="#mfc9010578d" y="27.513663"/>
    </g>
   </g>
   <g id="line2d_48">
    <path d="M 44.205749 294.88 
L 44.205749 264.99788 
L 56.12 264.99788 
L 56.12 258.18266 
L 63.08939 258.18266 
L 63.08939 253.46443 
L 71.869783 253.46443 
L 71.869783 252.940182 
L 75.003641 252.940182 
L 75.003641 250.843192 
L 77.653281 250.843192 
L 77.653281 246.64921 
L 79.948502 246.64921 
L 79.948502 245.600714 
L 81.973032 245.600714 
L 81.973032 240.358237 
L 83.784035 240.358237 
L 83.784035 239.83399 
L 86.917893 239.83399 
L 86.917893 237.736999 
L 89.567532 237.736999 
L 89.567532 233.018769 
L 91.862754 233.018769 
L 91.862754 232.494521 
L 92.904808 232.494521 
L 92.904808 231.970274 
L 93.887283 231.970274 
L 93.887283 229.349035 
L 94.816624 229.349035 
L 94.816624 228.30054 
L 95.698286 228.30054 
L 95.698286 226.727797 
L 97.336537 226.727797 
L 97.336537 226.203549 
L 98.832144 226.203549 
L 98.832144 225.155053 
L 100.856673 225.155053 
L 100.856673 224.630806 
L 102.084955 224.630806 
L 102.084955 223.58231 
L 103.231288 223.58231 
L 103.231288 223.058063 
L 103.777005 223.058063 
L 103.777005 221.485319 
L 105.317315 221.485319 
L 105.317315 220.961072 
L 108.036969 220.961072 
L 108.036969 220.436824 
L 111.100812 220.436824 
L 111.100812 219.388328 
L 111.788449 219.388328 
L 111.788449 218.339833 
L 112.122219 218.339833 
L 112.122219 216.76709 
L 112.449632 216.76709 
L 112.449632 216.242842 
L 113.999206 216.242842 
L 113.999206 214.145851 
L 114.293036 214.145851 
L 114.293036 212.573108 
L 114.581927 212.573108 
L 114.581927 209.427622 
L 115.145539 209.427622 
L 115.145539 208.903374 
L 116.220179 208.903374 
L 116.220179 207.854879 
L 117.475381 207.854879 
L 117.475381 207.330631 
L 117.952873 207.330631 
L 117.952873 204.185145 
L 118.186736 204.185145 
L 118.186736 203.660897 
L 119.09161 203.660897 
L 119.09161 202.612401 
L 119.310576 202.612401 
L 119.310576 197.894172 
L 119.526788 197.894172 
L 119.526788 197.369924 
L 121.551317 197.369924 
L 121.551317 196.845677 
L 123.015063 196.845677 
L 123.015063 195.797181 
L 123.36232 195.797181 
L 123.36232 195.272933 
L 123.7027 195.272933 
L 123.7027 194.748686 
L 124.200956 194.748686 
L 124.200956 194.224438 
L 124.685175 194.224438 
L 124.685175 192.651695 
L 124.843597 192.651695 
L 124.843597 192.127447 
L 125.463074 192.127447 
L 125.463074 191.603199 
L 126.061 191.603199 
L 126.061 191.078952 
L 126.352339 191.078952 
L 126.352339 190.554704 
L 127.605507 190.554704 
L 127.605507 188.457713 
L 127.872003 188.457713 
L 127.872003 186.88497 
L 128.003717 186.88497 
L 128.003717 185.312227 
L 128.773486 185.312227 
L 128.773486 184.263731 
L 129.022601 184.263731 
L 129.022601 182.690988 
L 129.145817 182.690988 
L 129.145817 182.16674 
L 129.630036 182.16674 
L 129.630036 180.593997 
L 129.867125 180.593997 
L 129.867125 179.545502 
L 130.100987 179.545502 
L 130.100987 179.021254 
L 130.445921 179.021254 
L 130.445921 177.448511 
L 131.005861 177.448511 
L 131.005861 176.400016 
L 131.441039 176.400016 
L 131.441039 175.875768 
L 132.684132 175.875768 
L 132.684132 175.35152 
L 132.98135 175.35152 
L 132.98135 174.303025 
L 133.176677 174.303025 
L 133.176677 173.778777 
L 133.560797 173.778777 
L 133.560797 173.254529 
L 134.213018 173.254529 
L 134.213018 172.730281 
L 134.664189 172.730281 
L 134.664189 170.633291 
L 134.841393 170.633291 
L 134.929315 168.5363 
L 135.784647 168.5363 
L 135.784647 168.012052 
L 136.033161 168.012052 
L 136.033161 165.915061 
L 136.836515 165.915061 
L 136.914823 164.866566 
L 137.301101 164.866566 
L 137.301101 164.342318 
L 137.678888 164.342318 
L 137.678888 163.81807 
L 138.266591 163.81807 
L 138.266591 163.293823 
L 139.384945 163.293823 
L 139.384945 161.721079 
L 139.653523 161.721079 
L 139.653523 160.672584 
L 139.852237 160.672584 
L 139.852237 158.575593 
L 140.874911 158.575593 
L 140.874911 158.051345 
L 142.015238 158.051345 
L 142.015238 157.527098 
L 142.530078 157.527098 
L 142.530078 156.478602 
L 143.301492 156.478602 
L 143.301492 155.954354 
L 143.515683 155.954354 
L 143.621786 154.905859 
L 143.988072 154.905859 
L 143.988072 153.857364 
L 144.447825 153.857364 
L 144.447825 153.333116 
L 144.698028 153.333116 
L 144.797098 152.28462 
L 145.475048 152.28462 
L 145.522465 151.236125 
L 145.616908 151.236125 
L 145.710835 150.18763 
L 146.127269 150.18763 
L 146.127269 149.663382 
L 146.354335 149.663382 
L 146.354335 149.139134 
L 147.489022 149.139134 
L 147.489022 148.614886 
L 149.405283 148.614886 
L 149.443019 147.566391 
L 149.555732 147.566391 
L 149.555732 147.042143 
L 150.324681 147.042143 
L 150.324681 146.517896 
L 150.643983 146.517896 
L 150.643983 145.993648 
L 150.784014 145.993648 
L 150.784014 145.4694 
L 151.467548 145.4694 
L 151.467548 144.945152 
L 151.700505 144.945152 
L 151.766488 142.848162 
L 151.995456 142.848162 
L 152.060318 141.799666 
L 152.317349 141.799666 
L 152.317349 141.275418 
L 152.507631 141.275418 
L 152.507631 140.751171 
L 152.633326 140.751171 
L 152.633326 140.226923 
L 152.912822 140.226923 
L 152.912822 139.702675 
L 153.248369 139.702675 
L 153.278551 138.65418 
L 153.607102 138.65418 
L 153.607102 138.129932 
L 153.812956 138.129932 
L 153.90043 137.081437 
L 154.045238 137.081437 
L 154.074054 136.032941 
L 154.806795 136.032941 
L 154.889367 134.460198 
L 154.944195 134.460198 
L 154.998849 132.887455 
L 155.269542 132.887455 
L 155.269542 132.363207 
L 155.456522 132.363207 
L 155.536037 130.790464 
L 155.615187 130.790464 
L 155.667752 129.217721 
L 155.979808 129.217721 
L 156.005559 127.12073 
L 156.108178 127.12073 
L 156.108178 126.596482 
L 156.336855 126.596482 
L 156.412409 125.547987 
L 156.5376 125.547987 
L 156.5376 123.450996 
L 156.661886 123.450996 
L 156.661886 121.354005 
L 156.809852 121.354005 
L 156.907793 119.781262 
L 156.932191 119.781262 
L 157.02944 117.684271 
L 157.460375 117.684271 
L 157.484002 116.111528 
L 157.811415 116.111528 
L 157.811415 115.063032 
L 158.018648 115.063032 
L 158.018648 114.538785 
L 158.132707 114.538785 
L 158.132707 114.014537 
L 158.425766 114.014537 
L 158.492691 112.966042 
L 158.559357 112.966042 
L 158.647844 110.869051 
L 159.062048 110.869051 
L 159.126546 109.820555 
L 159.276106 109.820555 
L 159.297366 108.77206 
L 159.508531 108.77206 
L 159.529506 107.199317 
L 159.675615 107.199317 
L 159.737856 105.626573 
L 159.820493 105.626573 
L 159.820493 105.102326 
L 159.984587 105.102326 
L 159.984587 104.578078 
L 160.167338 104.578078 
L 160.167338 104.05383 
L 160.368142 104.05383 
L 160.447811 102.481087 
L 160.801823 102.481087 
L 160.801823 101.956839 
L 160.937549 101.956839 
L 160.937549 101.432592 
L 161.129603 101.432592 
L 161.148691 99.859849 
L 161.394923 99.859849 
L 161.432494 98.811353 
L 161.600554 98.811353 
L 161.600554 98.287105 
L 161.766986 98.287105 
L 161.840442 97.23861 
L 161.895329 97.23861 
L 161.895329 96.714362 
L 162.095093 96.714362 
L 162.113139 95.665867 
L 162.221018 95.665867 
L 162.256827 93.044628 
L 162.434765 93.044628 
L 162.523048 91.996133 
L 162.854447 91.996133 
L 162.957786 89.899142 
L 163.162618 89.899142 
L 163.162618 89.374894 
L 163.381799 89.374894 
L 163.381799 88.850646 
L 163.631276 88.850646 
L 163.664268 86.229408 
L 164.006909 86.229408 
L 164.055305 84.656665 
L 164.215648 84.656665 
L 164.263461 83.608169 
L 164.703413 83.608169 
L 164.703413 83.083922 
L 166.188675 83.083922 
L 166.188675 82.559674 
L 185.914565 82.559674 
L 185.977676 80.986931 
L 186.098739 80.986931 
L 186.098739 80.462683 
L 186.214518 80.462683 
L 186.2898 78.88994 
L 186.369152 78.88994 
L 186.465644 77.841444 
L 186.535481 77.841444 
L 186.639708 75.744454 
L 186.661342 75.744454 
L 186.751911 73.123215 
L 186.859113 73.123215 
L 186.923114 72.074719 
L 187.372873 72.074719 
L 187.45565 69.977729 
L 187.636368 69.977729 
L 187.669023 66.832242 
L 187.815206 66.832242 
L 187.87978 65.259499 
L 187.928051 65.259499 
L 187.972181 64.211004 
L 188.135675 64.211004 
L 188.230662 63.162508 
L 188.309419 63.162508 
L 188.360418 61.589765 
L 188.442482 61.589765 
L 188.442482 61.065517 
L 188.617027 61.065517 
L 188.670971 59.492774 
L 188.751569 59.492774 
L 188.839413 57.920031 
L 189.00622 57.920031 
L 189.047671 56.347288 
L 189.156472 56.347288 
L 189.156472 55.82304 
L 189.268304 55.82304 
L 189.268304 55.298792 
L 189.394175 55.298792 
L 189.394175 54.250297 
L 189.592211 54.250297 
L 189.6795 53.201802 
L 189.759128 53.201802 
L 189.816808 52.153306 
L 189.949456 52.153306 
L 190.056262 51.104811 
L 190.081088 51.104811 
L 190.144763 50.056315 
L 190.197646 50.056315 
L 190.292427 47.959324 
L 190.559892 47.959324 
L 190.559892 47.435077 
L 190.904529 47.435077 
L 190.99214 45.862334 
L 191.202596 45.862334 
L 191.288705 44.813838 
L 198.006287 44.813838 
L 198.006287 44.28959 
L 198.696246 44.28959 
L 198.734848 43.241095 
L 199.008988 43.241095 
L 199.055307 40.619856 
L 199.212282 40.619856 
L 199.212282 40.095609 
L 199.396718 40.095609 
L 199.396718 39.571361 
L 199.613832 39.571361 
L 199.642303 38.522865 
L 199.771861 38.522865 
L 199.808124 37.47437 
L 199.898448 37.47437 
L 199.906454 36.425875 
L 200.127143 36.425875 
L 200.204014 34.328884 
L 200.304023 34.328884 
L 200.304023 33.804636 
L 200.690691 33.804636 
L 200.787916 32.756141 
L 205.69281 32.756141 
L 205.69281 32.231893 
L 206.135775 32.231893 
L 206.135775 31.707645 
L 206.257897 31.707645 
L 206.257897 31.183397 
L 206.449044 31.183397 
L 206.462714 30.134902 
L 206.759393 30.134902 
L 206.759393 29.610654 
L 207.423312 29.610654 
L 207.423312 29.086407 
L 214.382361 29.086407 
L 214.382361 28.562159 
L 215.160924 28.562159 
L 215.160924 28.037911 
L 215.325716 28.037911 
L 215.325716 27.513663 
L 333.168 27.513663 
L 333.168 27.513663 
" style="fill:none;stroke:#ff00ff;stroke-linecap:square;stroke-width:1.5;"/>
   </g>
   <g id="line2d_49">
    <defs>
     <path d="M -0 8.485281 
L 5.091169 0 
L 0 -8.485281 
L -5.091169 -0 
z
" id="m998b6dea61" style="stroke:#ff00ff;stroke-linejoin:miter;stroke-width:1.5;"/>
    </defs>
    <g>
     <use style="fill:none;stroke:#ff00ff;stroke-linejoin:miter;stroke-width:1.5;" x="108.036969" xlink:href="#m998b6dea61" y="220.436824"/>
     <use style="fill:none;stroke:#ff00ff;stroke-linejoin:miter;stroke-width:1.5;" x="164.263461" xlink:href="#m998b6dea61" y="84.132417"/>
     <use style="fill:none;stroke:#ff00ff;stroke-linejoin:miter;stroke-width:1.5;" x="199.898448" xlink:href="#m998b6dea61" y="36.950122"/>
     <use style="fill:none;stroke:#ff00ff;stroke-linejoin:miter;stroke-width:1.5;" x="215.325716" xlink:href="#m998b6dea61" y="27.513663"/>
     <use style="fill:none;stroke:#ff00ff;stroke-linejoin:miter;stroke-width:1.5;" x="215.325716" xlink:href="#m998b6dea61" y="27.513663"/>
     <use style="fill:none;stroke:#ff00ff;stroke-linejoin:miter;stroke-width:1.5;" x="333.168" xlink:href="#m998b6dea61" y="27.513663"/>
    </g>
   </g>
   <g id="line2d_50">
    <path style="fill:none;stroke:#ff00ff;stroke-linecap:square;stroke-width:1.5;"/>
    <g/>
   </g>
   <g id="line2d_51">
    <path clip-path="url(#p15bb96b53b)" d="M 186.067434 80.986931 
" style="fill:none;stroke:#ff00ff;stroke-linecap:square;stroke-width:1.5;"/>
    <defs>
     <path d="M -12 12 
L 12 -12 
M -12 -12 
L 12 12 
" id="m7e960a31b6" style="stroke:#ff00ff;"/>
    </defs>
    <g clip-path="url(#p15bb96b53b)">
     <use style="fill:#ff00ff;stroke:#ff00ff;" x="186.067434" xlink:href="#m7e960a31b6" y="80.986931"/>
    </g>
   </g>
   <g id="line2d_52">
    <defs>
     <path d="M 0 1.5 
C 0.397805 1.5 0.77937 1.341951 1.06066 1.06066 
C 1.341951 0.77937 1.5 0.397805 1.5 0 
C 1.5 -0.397805 1.341951 -0.77937 1.06066 -1.06066 
C 0.77937 -1.341951 0.397805 -1.5 0 -1.5 
C -0.397805 -1.5 -0.77937 -1.341951 -1.06066 -1.06066 
C -1.341951 -0.77937 -1.5 -0.397805 -1.5 0 
C -1.5 0.397805 -1.341951 0.77937 -1.06066 1.06066 
C -0.77937 1.341951 -0.397805 1.5 0 1.5 
z
" id="m76085eefbd" style="stroke:#ff7500;"/>
    </defs>
    <g>
     <use style="fill:#ff7500;stroke:#ff7500;" x="162.854447" xlink:href="#m76085eefbd" y="27.513663"/>
     <use style="fill:#ff7500;stroke:#ff7500;" x="162.854447" xlink:href="#m76085eefbd" y="27.513663"/>
    </g>
   </g>
   <g id="line2d_53">
    <path d="M 44.205749 294.88 
L 44.205749 268.143366 
L 56.12 268.143366 
L 56.12 256.085669 
L 63.08939 256.085669 
L 63.08939 255.037173 
L 68.034251 255.037173 
L 68.034251 252.415935 
L 75.003641 252.415935 
L 75.003641 249.270448 
L 77.653281 249.270448 
L 77.653281 248.746201 
L 79.948502 248.746201 
L 79.948502 239.309742 
L 81.973032 239.309742 
L 81.973032 238.261246 
L 83.784035 238.261246 
L 83.784035 237.212751 
L 85.422286 237.212751 
L 85.422286 236.688503 
L 93.887283 236.688503 
L 93.887283 235.640008 
L 98.832144 235.640008 
L 98.832144 233.543017 
L 99.533818 233.543017 
L 99.533818 231.446026 
L 102.084955 231.446026 
L 102.084955 228.824787 
L 102.667676 228.824787 
L 102.667676 228.30054 
L 103.777005 228.30054 
L 103.777005 226.203549 
L 104.305927 226.203549 
L 104.305927 225.679301 
L 105.317315 225.679301 
L 105.317315 222.533815 
L 105.801534 222.533815 
L 105.801534 222.009567 
L 107.612537 222.009567 
L 107.612537 221.485319 
L 108.036969 221.485319 
L 108.036969 220.961072 
L 108.85563 220.961072 
L 108.85563 220.436824 
L 110.384516 220.436824 
L 110.384516 219.912576 
L 110.746395 219.912576 
L 110.746395 218.339833 
L 112.449632 218.339833 
L 112.449632 216.76709 
L 112.770924 216.76709 
L 112.770924 216.242842 
L 114.581927 216.242842 
L 114.581927 213.097356 
L 115.691256 213.097356 
L 115.691256 212.573108 
L 116.220179 212.573108 
L 116.220179 210.476117 
L 116.984244 210.476117 
L 116.984244 207.854879 
L 117.231566 207.854879 
L 117.231566 206.806383 
L 117.475381 206.806383 
L 117.475381 204.185145 
L 117.715785 204.185145 
L 117.715785 202.612401 
L 117.952873 202.612401 
L 117.952873 199.991163 
L 118.186736 199.991163 
L 118.186736 199.466915 
L 118.417459 199.466915 
L 118.417459 197.894172 
L 118.869818 197.894172 
L 118.869818 196.845677 
L 119.310576 196.845677 
L 119.310576 196.321429 
L 119.526788 196.321429 
L 119.526788 195.272933 
L 119.740314 195.272933 
L 119.740314 194.748686 
L 120.568842 194.748686 
L 120.568842 193.70019 
L 120.769881 193.70019 
L 120.769881 191.078952 
L 120.968596 191.078952 
L 120.968596 190.030456 
L 121.16504 190.030456 
L 121.16504 189.506209 
L 121.359263 189.506209 
L 121.359263 188.981961 
L 122.480659 188.981961 
L 122.480659 186.360722 
L 123.189569 186.360722 
L 123.189569 185.836474 
L 123.36232 185.836474 
L 123.36232 184.787979 
L 123.870396 184.787979 
L 123.870396 184.263731 
L 124.036471 184.263731 
L 124.036471 183.739484 
L 124.363883 183.739484 
L 124.363883 183.215236 
L 124.52528 183.215236 
L 124.52528 182.16674 
L 124.685175 182.16674 
L 124.685175 181.642493 
L 125.000572 181.642493 
L 125.000572 180.06975 
L 125.310285 180.06975 
L 125.310285 178.497006 
L 125.463074 178.497006 
L 125.463074 177.448511 
L 126.207287 177.448511 
L 126.207287 173.778777 
L 126.638823 173.778777 
L 126.638823 173.254529 
L 127.197852 173.254529 
L 127.197852 172.206034 
L 129.022601 172.206034 
L 129.022601 171.157538 
L 129.510254 171.157538 
L 129.510254 170.633291 
L 130.445921 170.633291 
L 130.445921 169.584795 
L 130.559378 169.584795 
L 130.559378 168.5363 
L 130.895323 168.5363 
L 130.895323 167.487804 
L 131.115693 167.487804 
L 131.115693 164.866566 
L 132.381685 164.866566 
L 132.381685 162.769575 
L 132.783777 162.769575 
L 132.783777 161.721079 
L 133.465568 161.721079 
L 133.465568 159.099841 
L 133.6555 159.099841 
L 133.6555 158.051345 
L 134.029181 158.051345 
L 134.029181 157.527098 
L 134.753019 157.527098 
L 134.753019 157.00285 
L 135.190413 157.00285 
L 135.190413 156.478602 
L 135.3623 156.478602 
L 135.447604 153.333116 
L 135.532486 153.333116 
L 135.532486 152.808868 
L 135.784647 152.808868 
L 135.867885 151.760373 
L 136.599426 151.760373 
L 136.599426 150.711877 
L 136.757848 150.711877 
L 136.757848 150.18763 
L 136.914823 150.18763 
L 136.914823 148.614886 
L 137.070377 148.614886 
L 137.070377 145.993648 
L 137.301101 145.993648 
L 137.301101 145.4694 
L 137.528768 145.4694 
L 137.528768 144.945152 
L 137.827708 144.945152 
L 137.827708 144.420905 
L 138.623956 144.420905 
L 138.623956 143.896657 
L 138.974042 143.896657 
L 138.974042 143.372409 
L 139.112104 143.372409 
L 139.112104 142.323914 
L 139.519758 142.323914 
L 139.586771 138.65418 
L 139.917968 138.65418 
L 139.917968 137.605684 
L 140.307161 137.605684 
L 140.307161 136.557189 
L 140.498503 136.557189 
L 140.498503 134.984446 
L 141.424506 134.984446 
L 141.424506 134.460198 
L 141.66324 134.460198 
L 141.66324 133.93595 
L 142.015238 133.93595 
L 142.015238 132.363207 
L 142.245962 132.363207 
L 142.245962 131.838959 
L 142.642422 131.838959 
L 142.642422 128.169225 
L 143.084598 128.169225 
L 143.084598 127.644978 
L 143.462385 127.644978 
L 143.462385 127.12073 
L 144.193927 127.12073 
L 144.295937 126.072235 
L 144.548344 126.072235 
L 144.548344 125.547987 
L 144.698028 125.547987 
L 144.698028 125.023739 
L 144.993542 125.023739 
L 144.993542 124.499491 
L 145.139415 124.499491 
L 145.235981 122.926748 
L 145.37982 122.926748 
L 145.475048 121.354005 
L 145.522465 121.354005 
L 145.522465 120.829757 
L 145.989576 120.829757 
L 146.081494 119.781262 
L 146.444328 119.781262 
L 146.444328 118.732766 
L 146.843566 118.732766 
L 146.843566 118.208519 
L 147.061422 118.208519 
L 147.061422 117.684271 
L 147.864973 117.684271 
L 147.864973 117.160023 
L 148.232877 117.160023 
L 148.232877 116.635776 
L 148.63263 116.635776 
L 148.63263 116.111528 
L 148.750766 116.111528 
L 148.829074 114.538785 
L 148.984628 114.538785 
L 148.984628 113.490289 
L 149.138788 113.490289 
L 149.177112 111.393298 
L 149.291576 111.393298 
L 149.329562 109.820555 
L 149.480672 109.820555 
L 149.480672 109.296308 
L 149.593139 109.296308 
L 149.593139 107.723564 
L 149.741959 107.723564 
L 149.815889 106.675069 
L 149.926191 106.675069 
L 149.999334 105.102326 
L 150.144693 105.102326 
L 150.180842 102.481087 
L 150.324681 102.481087 
L 150.324681 99.859849 
L 150.467326 99.859849 
L 150.538207 98.811353 
L 150.749113 98.811353 
L 150.853603 96.714362 
L 150.922912 96.714362 
L 151.026355 95.665867 
L 151.400405 95.665867 
L 151.501022 94.093124 
L 151.634268 94.093124 
L 151.634268 93.568876 
L 151.832219 93.568876 
L 151.930347 91.471885 
L 152.027918 91.471885 
L 152.027918 89.374894 
L 152.221413 89.374894 
L 152.221413 88.850646 
L 152.381011 88.850646 
L 152.412754 87.277903 
L 152.601988 87.277903 
L 152.664606 84.132417 
L 152.726997 84.132417 
L 152.726997 83.083922 
L 152.851103 83.083922 
L 152.943598 80.986931 
L 152.97432 80.986931 
L 153.066156 77.841444 
L 153.338757 77.841444 
L 153.338757 76.792949 
L 153.518118 76.792949 
L 153.577492 75.220206 
L 153.666169 75.220206 
L 153.695627 74.17171 
L 153.842163 74.17171 
L 153.842163 73.647463 
L 154.045238 73.647463 
L 154.045238 72.598967 
L 154.217413 72.598967 
L 154.302858 67.35649 
L 154.472484 67.35649 
L 154.556673 65.783747 
L 154.696079 65.783747 
L 154.806795 63.162508 
L 154.861887 63.162508 
L 154.861887 62.114013 
L 155.026111 62.114013 
L 155.107638 58.444279 
L 155.269542 58.444279 
L 155.269542 57.920031 
L 155.456522 57.920031 
L 155.483068 56.347288 
L 155.588844 56.347288 
L 155.588844 55.82304 
L 155.772401 55.82304 
L 155.798464 53.201802 
L 155.902323 53.201802 
L 155.902323 52.677554 
L 156.184742 52.677554 
L 156.260967 51.104811 
L 156.311596 51.104811 
L 156.336855 49.00782 
L 156.5376 49.00782 
L 156.5376 48.483572 
L 156.661886 48.483572 
L 156.686635 47.435077 
L 156.83439 47.435077 
L 156.88336 46.386581 
L 157.077859 46.386581 
L 157.174289 44.813838 
L 157.246258 44.813838 
L 157.246258 44.28959 
L 157.578187 44.28959 
L 157.578187 43.765343 
L 157.765022 43.765343 
L 157.765022 43.241095 
L 157.903827 43.241095 
L 157.995745 41.668352 
L 158.04152 41.668352 
L 158.04152 40.619856 
L 158.223412 40.619856 
L 158.268586 39.571361 
L 158.381004 39.571361 
L 158.448103 38.522865 
L 158.492691 38.522865 
L 158.492691 37.998618 
L 158.713912 37.998618 
L 158.713912 37.47437 
L 158.845291 37.47437 
L 158.86709 36.425875 
L 158.997308 36.425875 
L 158.997308 35.901627 
L 159.147992 35.901627 
L 159.25482 34.853131 
L 159.445454 34.853131 
L 159.445454 33.804636 
L 159.633996 33.804636 
L 159.633996 33.280388 
L 159.799871 33.280388 
L 159.799871 32.756141 
L 160.147128 32.756141 
L 160.147128 32.231893 
L 160.408023 32.231893 
L 160.487508 30.65915 
L 160.879512 30.65915 
L 160.879512 30.134902 
L 161.451249 30.134902 
L 161.451249 29.610654 
L 161.600554 29.610654 
L 161.600554 29.086407 
L 162.185133 29.086407 
L 162.292562 28.037911 
L 162.854447 28.037911 
L 162.854447 27.513663 
L 333.168 27.513663 
L 333.168 27.513663 
" style="fill:none;stroke:#ff7500;stroke-linecap:square;stroke-width:1.5;"/>
   </g>
   <g id="line2d_54">
    <defs>
     <path d="M 0 -6 
L -1.347084 -1.854102 
L -5.706339 -1.854102 
L -2.179628 0.708204 
L -3.526712 4.854102 
L -0 2.291796 
L 3.526712 4.854102 
L 2.179628 0.708204 
L 5.706339 -1.854102 
L 1.347084 -1.854102 
z
" id="ma7b13d5ebb" style="stroke:#ff7500;stroke-linejoin:bevel;stroke-width:1.5;"/>
    </defs>
    <g>
     <use style="fill:none;stroke:#ff7500;stroke-linejoin:bevel;stroke-width:1.5;" x="81.973032" xlink:href="#ma7b13d5ebb" y="239.309742"/>
     <use style="fill:none;stroke:#ff7500;stroke-linejoin:bevel;stroke-width:1.5;" x="131.115693" xlink:href="#ma7b13d5ebb" y="167.487804"/>
     <use style="fill:none;stroke:#ff7500;stroke-linejoin:bevel;stroke-width:1.5;" x="162.854447" xlink:href="#ma7b13d5ebb" y="28.037911"/>
     <use style="fill:none;stroke:#ff7500;stroke-linejoin:bevel;stroke-width:1.5;" x="162.854447" xlink:href="#ma7b13d5ebb" y="28.037911"/>
     <use style="fill:none;stroke:#ff7500;stroke-linejoin:bevel;stroke-width:1.5;" x="162.854447" xlink:href="#ma7b13d5ebb" y="27.513663"/>
     <use style="fill:none;stroke:#ff7500;stroke-linejoin:bevel;stroke-width:1.5;" x="333.168" xlink:href="#ma7b13d5ebb" y="27.513663"/>
    </g>
   </g>
   <g id="line2d_55">
    <path style="fill:none;stroke:#ff7500;stroke-linecap:square;stroke-width:1.5;"/>
    <g/>
   </g>
   <g id="line2d_56">
    <path d="M 333.168 174.303025 
L 363.64328 289.532673 
" style="fill:none;stroke:#000080;stroke-linecap:square;stroke-width:1.5;"/>
    <g>
     <use style="fill:none;stroke:#000080;stroke-width:1.5;" x="333.168" xlink:href="#md294679dd0" y="174.303025"/>
     <use style="fill:none;stroke:#000080;stroke-width:1.5;" x="363.64328" xlink:href="#md294679dd0" y="289.532673"/>
    </g>
   </g>
   <g id="line2d_57">
    <path d="M 333.168 27.513663 
L 363.64328 203.975446 
" style="fill:none;stroke:#ff00ff;stroke-linecap:square;stroke-width:1.5;"/>
    <g>
     <use style="fill:none;stroke:#ff00ff;stroke-linejoin:miter;stroke-width:1.5;" x="333.168" xlink:href="#m998b6dea61" y="27.513663"/>
     <use style="fill:none;stroke:#ff00ff;stroke-linejoin:miter;stroke-width:1.5;" x="363.64328" xlink:href="#m998b6dea61" y="203.975446"/>
    </g>
   </g>
   <g id="line2d_58">
    <path d="M 333.168 27.513663 
L 363.64328 118.418218 
" style="fill:none;stroke:#ff7500;stroke-linecap:square;stroke-width:1.5;"/>
    <g>
     <use style="fill:none;stroke:#ff7500;stroke-linejoin:bevel;stroke-width:1.5;" x="333.168" xlink:href="#ma7b13d5ebb" y="27.513663"/>
     <use style="fill:none;stroke:#ff7500;stroke-linejoin:bevel;stroke-width:1.5;" x="363.64328" xlink:href="#ma7b13d5ebb" y="118.418218"/>
    </g>
   </g>
   <g id="line2d_59">
    <path d="M 333.168 294.88 
L 333.168 27.513663 
" style="fill:none;stroke:#000000;stroke-linecap:square;stroke-width:1.5;"/>
   </g>
   <g id="patch_3">
    <path d="M 56.12 294.88 
L 56.12 24.84 
" style="fill:none;stroke:#000000;stroke-linecap:square;stroke-linejoin:miter;stroke-width:0.8;"/>
   </g>
   <g id="patch_4">
    <path d="M 333.168 294.88 
L 333.168 24.84 
" style="fill:none;stroke:#000000;stroke-linecap:square;stroke-linejoin:miter;stroke-width:0.8;"/>
   </g>
   <g id="patch_5">
    <path d="M 56.12 294.88 
L 333.168 294.88 
" style="fill:none;stroke:#000000;stroke-linecap:square;stroke-linejoin:miter;stroke-width:0.8;"/>
   </g>
   <g id="patch_6">
    <path d="M 56.12 24.84 
L 333.168 24.84 
" style="fill:none;stroke:#000000;stroke-linecap:square;stroke-linejoin:miter;stroke-width:0.8;"/>
   </g>
   <g id="text_13">
    <!-- CMA ES PPM -->
    <defs>
     <path d="M 64.40625 67.28125 
L 64.40625 56.890625 
Q 59.421875 61.53125 53.78125 63.8125 
Q 48.140625 66.109375 41.796875 66.109375 
Q 29.296875 66.109375 22.65625 58.46875 
Q 16.015625 50.828125 16.015625 36.375 
Q 16.015625 21.96875 22.65625 14.328125 
Q 29.296875 6.6875 41.796875 6.6875 
Q 48.140625 6.6875 53.78125 8.984375 
Q 59.421875 11.28125 64.40625 15.921875 
L 64.40625 5.609375 
Q 59.234375 2.09375 53.4375 0.328125 
Q 47.65625 -1.421875 41.21875 -1.421875 
Q 24.65625 -1.421875 15.125 8.703125 
Q 5.609375 18.84375 5.609375 36.375 
Q 5.609375 53.953125 15.125 64.078125 
Q 24.65625 74.21875 41.21875 74.21875 
Q 47.75 74.21875 53.53125 72.484375 
Q 59.328125 70.75 64.40625 67.28125 
z
" id="DejaVuSans-43"/>
     <path d="M 9.8125 72.90625 
L 24.515625 72.90625 
L 43.109375 23.296875 
L 61.8125 72.90625 
L 76.515625 72.90625 
L 76.515625 0 
L 66.890625 0 
L 66.890625 64.015625 
L 48.09375 14.015625 
L 38.1875 14.015625 
L 19.390625 64.015625 
L 19.390625 0 
L 9.8125 0 
z
" id="DejaVuSans-4d"/>
     <path d="M 34.1875 63.1875 
L 20.796875 26.90625 
L 47.609375 26.90625 
z
M 28.609375 72.90625 
L 39.796875 72.90625 
L 67.578125 0 
L 57.328125 0 
L 50.6875 18.703125 
L 17.828125 18.703125 
L 11.1875 0 
L 0.78125 0 
z
" id="DejaVuSans-41"/>
     <path d="M 9.8125 72.90625 
L 55.90625 72.90625 
L 55.90625 64.59375 
L 19.671875 64.59375 
L 19.671875 43.015625 
L 54.390625 43.015625 
L 54.390625 34.71875 
L 19.671875 34.71875 
L 19.671875 8.296875 
L 56.78125 8.296875 
L 56.78125 0 
L 9.8125 0 
z
" id="DejaVuSans-45"/>
     <path d="M 53.515625 70.515625 
L 53.515625 60.890625 
Q 47.90625 63.578125 42.921875 64.890625 
Q 37.9375 66.21875 33.296875 66.21875 
Q 25.25 66.21875 20.875 63.09375 
Q 16.5 59.96875 16.5 54.203125 
Q 16.5 49.359375 19.40625 46.890625 
Q 22.3125 44.4375 30.421875 42.921875 
L 36.375 41.703125 
Q 47.40625 39.59375 52.65625 34.296875 
Q 57.90625 29 57.90625 20.125 
Q 57.90625 9.515625 50.796875 4.046875 
Q 43.703125 -1.421875 29.984375 -1.421875 
Q 24.8125 -1.421875 18.96875 -0.25 
Q 13.140625 0.921875 6.890625 3.21875 
L 6.890625 13.375 
Q 12.890625 10.015625 18.65625 8.296875 
Q 24.421875 6.59375 29.984375 6.59375 
Q 38.421875 6.59375 43.015625 9.90625 
Q 47.609375 13.234375 47.609375 19.390625 
Q 47.609375 24.75 44.3125 27.78125 
Q 41.015625 30.8125 33.5 32.328125 
L 27.484375 33.5 
Q 16.453125 35.6875 11.515625 40.375 
Q 6.59375 45.0625 6.59375 53.421875 
Q 6.59375 63.09375 13.40625 68.65625 
Q 20.21875 74.21875 32.171875 74.21875 
Q 37.3125 74.21875 42.625 73.28125 
Q 47.953125 72.359375 53.515625 70.515625 
z
" id="DejaVuSans-53"/>
     <path d="M 19.671875 64.796875 
L 19.671875 37.40625 
L 32.078125 37.40625 
Q 38.96875 37.40625 42.71875 40.96875 
Q 46.484375 44.53125 46.484375 51.125 
Q 46.484375 57.671875 42.71875 61.234375 
Q 38.96875 64.796875 32.078125 64.796875 
z
M 9.8125 72.90625 
L 32.078125 72.90625 
Q 44.34375 72.90625 50.609375 67.359375 
Q 56.890625 61.8125 56.890625 51.125 
Q 56.890625 40.328125 50.609375 34.8125 
Q 44.34375 29.296875 32.078125 29.296875 
L 19.671875 29.296875 
L 19.671875 0 
L 9.8125 0 
z
" id="DejaVuSans-50"/>
    </defs>
    <g transform="translate(369.18424 294.223611)scale(0.17 -0.17)">
     <use xlink:href="#DejaVuSans-43"/>
     <use x="69.824219" xlink:href="#DejaVuSans-4d"/>
     <use x="156.103516" xlink:href="#DejaVuSans-41"/>
     <use x="224.511719" xlink:href="#DejaVuSans-20"/>
     <use x="256.298828" xlink:href="#DejaVuSans-45"/>
     <use x="319.482422" xlink:href="#DejaVuSans-53"/>
     <use x="382.958984" xlink:href="#DejaVuSans-20"/>
     <use x="414.746094" xlink:href="#DejaVuSans-50"/>
     <use x="475.048828" xlink:href="#DejaVuSans-50"/>
     <use x="535.351562" xlink:href="#DejaVuSans-4d"/>
    </g>
   </g>
   <g id="text_14">
    <!-- CMA ES CSA -->
    <g transform="translate(369.18424 208.666383)scale(0.17 -0.17)">
     <use xlink:href="#DejaVuSans-43"/>
     <use x="69.824219" xlink:href="#DejaVuSans-4d"/>
     <use x="156.103516" xlink:href="#DejaVuSans-41"/>
     <use x="224.511719" xlink:href="#DejaVuSans-20"/>
     <use x="256.298828" xlink:href="#DejaVuSans-45"/>
     <use x="319.482422" xlink:href="#DejaVuSans-53"/>
     <use x="382.958984" xlink:href="#DejaVuSans-20"/>
     <use x="414.746094" xlink:href="#DejaVuSans-43"/>
     <use x="484.570312" xlink:href="#DejaVuSans-53"/>
     <use x="548.0625" xlink:href="#DejaVuSans-41"/>
    </g>
   </g>
   <g id="text_15">
    <!-- CMAES posi -->
    <g transform="translate(369.18424 123.109155)scale(0.17 -0.17)">
     <use xlink:href="#DejaVuSans-43"/>
     <use x="69.824219" xlink:href="#DejaVuSans-4d"/>
     <use x="156.103516" xlink:href="#DejaVuSans-41"/>
     <use x="224.511719" xlink:href="#DejaVuSans-45"/>
     <use x="287.695312" xlink:href="#DejaVuSans-53"/>
     <use x="351.171875" xlink:href="#DejaVuSans-20"/>
     <use x="382.958984" xlink:href="#DejaVuSans-70"/>
     <use x="446.435547" xlink:href="#DejaVuSans-6f"/>
     <use x="507.617188" xlink:href="#DejaVuSans-73"/>
     <use x="559.716797" xlink:href="#DejaVuSans-69"/>
    </g>
   </g>
   <g id="text_16">
    <!-- best 2009 -->
    <defs>
     <path d="M 48.6875 27.296875 
Q 48.6875 37.203125 44.609375 42.84375 
Q 40.53125 48.484375 33.40625 48.484375 
Q 26.265625 48.484375 22.1875 42.84375 
Q 18.109375 37.203125 18.109375 27.296875 
Q 18.109375 17.390625 22.1875 11.75 
Q 26.265625 6.109375 33.40625 6.109375 
Q 40.53125 6.109375 44.609375 11.75 
Q 48.6875 17.390625 48.6875 27.296875 
z
M 18.109375 46.390625 
Q 20.953125 51.265625 25.265625 53.625 
Q 29.59375 56 35.59375 56 
Q 45.5625 56 51.78125 48.09375 
Q 58.015625 40.1875 58.015625 27.296875 
Q 58.015625 14.40625 51.78125 6.484375 
Q 45.5625 -1.421875 35.59375 -1.421875 
Q 29.59375 -1.421875 25.265625 0.953125 
Q 20.953125 3.328125 18.109375 8.203125 
L 18.109375 0 
L 9.078125 0 
L 9.078125 75.984375 
L 18.109375 75.984375 
z
" id="DejaVuSans-62"/>
     <path d="M 10.984375 1.515625 
L 10.984375 10.5 
Q 14.703125 8.734375 18.5 7.8125 
Q 22.3125 6.890625 25.984375 6.890625 
Q 35.75 6.890625 40.890625 13.453125 
Q 46.046875 20.015625 46.78125 33.40625 
Q 43.953125 29.203125 39.59375 26.953125 
Q 35.25 24.703125 29.984375 24.703125 
Q 19.046875 24.703125 12.671875 31.3125 
Q 6.296875 37.9375 6.296875 49.421875 
Q 6.296875 60.640625 12.9375 67.421875 
Q 19.578125 74.21875 30.609375 74.21875 
Q 43.265625 74.21875 49.921875 64.515625 
Q 56.59375 54.828125 56.59375 36.375 
Q 56.59375 19.140625 48.40625 8.859375 
Q 40.234375 -1.421875 26.421875 -1.421875 
Q 22.703125 -1.421875 18.890625 -0.6875 
Q 15.09375 0.046875 10.984375 1.515625 
z
M 30.609375 32.421875 
Q 37.25 32.421875 41.125 36.953125 
Q 45.015625 41.5 45.015625 49.421875 
Q 45.015625 57.28125 41.125 61.84375 
Q 37.25 66.40625 30.609375 66.40625 
Q 23.96875 66.40625 20.09375 61.84375 
Q 16.21875 57.28125 16.21875 49.421875 
Q 16.21875 41.5 20.09375 36.953125 
Q 23.96875 32.421875 30.609375 32.421875 
z
" id="DejaVuSans-39"/>
    </defs>
    <g transform="translate(369.18424 37.551928)scale(0.17 -0.17)">
     <use xlink:href="#DejaVuSans-62"/>
     <use x="63.476562" xlink:href="#DejaVuSans-65"/>
     <use x="125" xlink:href="#DejaVuSans-73"/>
     <use x="177.099609" xlink:href="#DejaVuSans-74"/>
     <use x="216.308594" xlink:href="#DejaVuSans-20"/>
     <use x="248.095703" xlink:href="#DejaVuSans-32"/>
     <use x="311.71875" xlink:href="#DejaVuSans-30"/>
     <use x="375.341797" xlink:href="#DejaVuSans-30"/>
     <use x="438.964844" xlink:href="#DejaVuSans-39"/>
    </g>
   </g>
   <g id="text_17">
    <!-- bbob f14, 2-D -->
    <defs>
     <path d="M 19.671875 64.796875 
L 19.671875 8.109375 
L 31.59375 8.109375 
Q 46.6875 8.109375 53.6875 14.9375 
Q 60.6875 21.78125 60.6875 36.53125 
Q 60.6875 51.171875 53.6875 57.984375 
Q 46.6875 64.796875 31.59375 64.796875 
z
M 9.8125 72.90625 
L 30.078125 72.90625 
Q 51.265625 72.90625 61.171875 64.09375 
Q 71.09375 55.28125 71.09375 36.53125 
Q 71.09375 17.671875 61.125 8.828125 
Q 51.171875 0 30.078125 0 
L 9.8125 0 
z
" id="DejaVuSans-44"/>
    </defs>
    <g transform="translate(58.89048 35.290806)scale(0.102 -0.102)">
     <use xlink:href="#DejaVuSans-62"/>
     <use x="63.476562" xlink:href="#DejaVuSans-62"/>
     <use x="126.953125" xlink:href="#DejaVuSans-6f"/>
     <use x="188.134766" xlink:href="#DejaVuSans-62"/>
     <use x="251.611328" xlink:href="#DejaVuSans-20"/>
     <use x="283.398438" xlink:href="#DejaVuSans-66"/>
     <use x="318.603516" xlink:href="#DejaVuSans-31"/>
     <use x="382.226562" xlink:href="#DejaVuSans-34"/>
     <use x="445.849609" xlink:href="#DejaVuSans-2c"/>
     <use x="477.636719" xlink:href="#DejaVuSans-20"/>
     <use x="509.423828" xlink:href="#DejaVuSans-32"/>
     <use x="573.046875" xlink:href="#DejaVuSans-2d"/>
     <use x="609.130859" xlink:href="#DejaVuSans-44"/>
    </g>
    <!-- 51 targets: 100..1e-08 -->
    <defs>
     <path d="M 10.796875 72.90625 
L 49.515625 72.90625 
L 49.515625 64.59375 
L 19.828125 64.59375 
L 19.828125 46.734375 
Q 21.96875 47.46875 24.109375 47.828125 
Q 26.265625 48.1875 28.421875 48.1875 
Q 40.625 48.1875 47.75 41.5 
Q 54.890625 34.8125 54.890625 23.390625 
Q 54.890625 11.625 47.5625 5.09375 
Q 40.234375 -1.421875 26.90625 -1.421875 
Q 22.3125 -1.421875 17.546875 -0.640625 
Q 12.796875 0.140625 7.71875 1.703125 
L 7.71875 11.625 
Q 12.109375 9.234375 16.796875 8.0625 
Q 21.484375 6.890625 26.703125 6.890625 
Q 35.15625 6.890625 40.078125 11.328125 
Q 45.015625 15.765625 45.015625 23.390625 
Q 45.015625 31 40.078125 35.4375 
Q 35.15625 39.890625 26.703125 39.890625 
Q 22.75 39.890625 18.8125 39.015625 
Q 14.890625 38.140625 10.796875 36.28125 
z
" id="DejaVuSans-35"/>
     <path d="M 11.71875 12.40625 
L 22.015625 12.40625 
L 22.015625 0 
L 11.71875 0 
z
M 11.71875 51.703125 
L 22.015625 51.703125 
L 22.015625 39.3125 
L 11.71875 39.3125 
z
" id="DejaVuSans-3a"/>
    </defs>
    <g transform="translate(58.89048 46.712575)scale(0.102 -0.102)">
     <use xlink:href="#DejaVuSans-35"/>
     <use x="63.623047" xlink:href="#DejaVuSans-31"/>
     <use x="127.246094" xlink:href="#DejaVuSans-20"/>
     <use x="159.033203" xlink:href="#DejaVuSans-74"/>
     <use x="198.242188" xlink:href="#DejaVuSans-61"/>
     <use x="259.521484" xlink:href="#DejaVuSans-72"/>
     <use x="300.619141" xlink:href="#DejaVuSans-67"/>
     <use x="364.095703" xlink:href="#DejaVuSans-65"/>
     <use x="425.619141" xlink:href="#DejaVuSans-74"/>
     <use x="464.828125" xlink:href="#DejaVuSans-73"/>
     <use x="516.927734" xlink:href="#DejaVuSans-3a"/>
     <use x="550.619141" xlink:href="#DejaVuSans-20"/>
     <use x="582.40625" xlink:href="#DejaVuSans-31"/>
     <use x="646.029297" xlink:href="#DejaVuSans-30"/>
     <use x="709.652344" xlink:href="#DejaVuSans-30"/>
     <use x="773.275391" xlink:href="#DejaVuSans-2e"/>
     <use x="805.0625" xlink:href="#DejaVuSans-2e"/>
     <use x="836.849609" xlink:href="#DejaVuSans-31"/>
     <use x="900.472656" xlink:href="#DejaVuSans-65"/>
     <use x="961.996094" xlink:href="#DejaVuSans-2d"/>
     <use x="998.080078" xlink:href="#DejaVuSans-30"/>
     <use x="1061.703125" xlink:href="#DejaVuSans-38"/>
    </g>
    <!-- 15 instances -->
    <g transform="translate(58.89048 58.134344)scale(0.102 -0.102)">
     <use xlink:href="#DejaVuSans-31"/>
     <use x="63.623047" xlink:href="#DejaVuSans-35"/>
     <use x="127.246094" xlink:href="#DejaVuSans-20"/>
     <use x="159.033203" xlink:href="#DejaVuSans-69"/>
     <use x="186.816406" xlink:href="#DejaVuSans-6e"/>
     <use x="250.195312" xlink:href="#DejaVuSans-73"/>
     <use x="302.294922" xlink:href="#DejaVuSans-74"/>
     <use x="341.503906" xlink:href="#DejaVuSans-61"/>
     <use x="402.783203" xlink:href="#DejaVuSans-6e"/>
     <use x="466.162109" xlink:href="#DejaVuSans-63"/>
     <use x="521.142578" xlink:href="#DejaVuSans-65"/>
     <use x="582.666016" xlink:href="#DejaVuSans-73"/>
    </g>
   </g>
   <g id="text_18">
    <!-- v0.0.0 -->
    <g style="fill:#808080;" transform="translate(178.96275 290.099912)scale(0.1 -0.1)">
     <use xlink:href="#DejaVuSans-76"/>
     <use x="59.179688" xlink:href="#DejaVuSans-30"/>
     <use x="122.802734" xlink:href="#DejaVuSans-2e"/>
     <use x="154.589844" xlink:href="#DejaVuSans-30"/>
     <use x="218.212891" xlink:href="#DejaVuSans-2e"/>
     <use x="250" xlink:href="#DejaVuSans-30"/>
    </g>
   </g>
   <g id="text_19">
    <!-- 14 Sum of different powers -->
    <defs>
     <path d="M 4.203125 54.6875 
L 13.1875 54.6875 
L 24.421875 12.015625 
L 35.59375 54.6875 
L 46.1875 54.6875 
L 57.421875 12.015625 
L 68.609375 54.6875 
L 77.59375 54.6875 
L 63.28125 0 
L 52.6875 0 
L 40.921875 44.828125 
L 29.109375 0 
L 18.5 0 
z
" id="DejaVuSans-77"/>
    </defs>
    <g transform="translate(58.183063 18.84)scale(0.2 -0.2)">
     <use xlink:href="#DejaVuSans-31"/>
     <use x="63.623047" xlink:href="#DejaVuSans-34"/>
     <use x="127.246094" xlink:href="#DejaVuSans-20"/>
     <use x="159.033203" xlink:href="#DejaVuSans-53"/>
     <use x="222.509766" xlink:href="#DejaVuSans-75"/>
     <use x="285.888672" xlink:href="#DejaVuSans-6d"/>
     <use x="383.300781" xlink:href="#DejaVuSans-20"/>
     <use x="415.087891" xlink:href="#DejaVuSans-6f"/>
     <use x="476.269531" xlink:href="#DejaVuSans-66"/>
     <use x="511.474609" xlink:href="#DejaVuSans-20"/>
     <use x="543.261719" xlink:href="#DejaVuSans-64"/>
     <use x="606.738281" xlink:href="#DejaVuSans-69"/>
     <use x="634.521484" xlink:href="#DejaVuSans-66"/>
     <use x="669.726562" xlink:href="#DejaVuSans-66"/>
     <use x="704.931641" xlink:href="#DejaVuSans-65"/>
     <use x="766.455078" xlink:href="#DejaVuSans-72"/>
     <use x="807.537109" xlink:href="#DejaVuSans-65"/>
     <use x="869.060547" xlink:href="#DejaVuSans-6e"/>
     <use x="932.439453" xlink:href="#DejaVuSans-74"/>
     <use x="971.648438" xlink:href="#DejaVuSans-20"/>
     <use x="1003.435547" xlink:href="#DejaVuSans-70"/>
     <use x="1066.912109" xlink:href="#DejaVuSans-6f"/>
     <use x="1128.09375" xlink:href="#DejaVuSans-77"/>
     <use x="1209.880859" xlink:href="#DejaVuSans-65"/>
     <use x="1271.404297" xlink:href="#DejaVuSans-72"/>
     <use x="1312.517578" xlink:href="#DejaVuSans-73"/>
    </g>
   </g>
  </g>
 </g>
 <defs>
  <clipPath id="p15bb96b53b">
   <rect height="270.04" width="277.048" x="56.12" y="24.84"/>
  </clipPath>
 </defs>
</svg>
