<?xml version="1.0" encoding="utf-8" standalone="no"?>
<!DOCTYPE svg PUBLIC "-//W3C//DTD SVG 1.1//EN"
  "http://www.w3.org/Graphics/SVG/1.1/DTD/svg11.dtd">
<!-- Created with matplotlib (http://matplotlib.org/) -->
<svg height="345pt" version="1.1" viewBox="0 0 460 345" width="460pt" xmlns="http://www.w3.org/2000/svg" xmlns:xlink="http://www.w3.org/1999/xlink">
 <defs>
  <style type="text/css">
*{stroke-linecap:butt;stroke-linejoin:round;}
  </style>
 </defs>
 <g id="figure_1">
  <g id="patch_1">
   <path d="M 0 345.6 
L 460.8 345.6 
L 460.8 0 
L 0 0 
z
" style="fill:#ffffff;"/>
  </g>
  <g id="axes_1">
   <g id="patch_2">
    <path d="M 56.12 294.88 
L 333.168 294.88 
L 333.168 24.84 
L 56.12 24.84 
z
" style="fill:#ffffff;"/>
   </g>
   <g id="line2d_1">
    <path d="M 44.205749 294.88 
L 44.205749 284.395046 
L 56.12 284.395046 
L 56.12 279.152568 
L 63.08939 279.152568 
L 63.08939 273.910091 
L 68.034251 273.910091 
L 68.034251 268.667614 
L 79.948502 268.667614 
L 79.948502 263.425137 
L 91.862754 263.425137 
L 91.862754 258.18266 
L 113.086321 258.18266 
L 113.086321 252.940182 
L 123.870396 252.940182 
L 123.870396 247.697705 
L 134.029181 247.697705 
L 134.029181 242.455228 
L 134.664189 242.455228 
L 134.664189 237.212751 
L 136.757848 237.212751 
L 136.757848 231.970274 
L 136.992776 231.970274 
L 136.992776 226.727797 
L 137.377325 226.727797 
L 137.377325 221.485319 
L 137.603992 221.485319 
L 137.603992 216.242842 
L 137.975251 216.242842 
L 137.975251 211.000365 
L 139.043211 211.000365 
L 139.043211 205.757888 
L 139.180721 205.757888 
L 139.180721 200.515411 
L 139.317139 200.515411 
L 139.317139 195.272933 
L 139.653523 195.272933 
L 139.653523 190.030456 
L 139.983449 190.030456 
L 139.983449 184.787979 
L 140.242905 184.787979 
L 140.242905 179.545502 
L 140.812746 179.545502 
L 140.812746 174.303025 
L 141.060069 174.303025 
L 141.060069 169.060547 
L 141.243253 169.060547 
L 141.243253 163.81807 
L 142.18857 163.81807 
L 142.18857 158.575593 
L 142.416994 158.575593 
L 142.416994 153.333116 
L 142.473629 153.333116 
L 142.473629 148.090639 
L 142.69832 148.090639 
L 142.69832 142.848162 
L 142.864932 142.848162 
L 142.864932 137.605684 
L 142.975116 137.605684 
L 142.975116 132.363207 
L 143.247524 132.363207 
L 143.247524 127.12073 
L 143.884213 127.12073 
L 143.884213 121.878253 
L 144.447825 121.878253 
L 144.447825 116.635776 
L 144.598384 116.635776 
L 144.598384 111.393298 
L 144.797098 111.393298 
L 144.797098 106.150821 
L 144.944641 106.150821 
L 144.944641 100.908344 
L 145.139415 100.908344 
L 145.139415 95.665867 
L 145.284061 95.665867 
L 145.284061 90.42339 
L 145.37982 90.42339 
L 145.37982 85.180912 
L 145.569751 85.180912 
L 145.569751 79.938435 
L 145.663936 79.938435 
L 145.663936 74.695958 
L 145.897164 74.695958 
L 145.897164 69.453481 
L 145.989576 69.453481 
L 145.989576 64.211004 
L 146.081494 64.211004 
L 146.081494 58.968526 
L 146.263868 58.968526 
L 146.263868 53.726049 
L 146.354335 53.726049 
L 146.354335 48.483572 
L 146.533852 48.483572 
L 146.533852 43.241095 
L 146.667271 43.241095 
L 146.667271 37.998618 
L 146.755644 37.998618 
L 146.755644 32.756141 
L 150.538207 32.756141 
L 150.538207 27.513663 
L 333.168 27.513663 
" style="fill:none;stroke:#f5deb3;stroke-linecap:square;stroke-width:4;"/>
   </g>
   <g id="line2d_2">
    <defs>
     <path d="M -0 7.778175 
L 7.778175 0 
L 0 -7.778175 
L -7.778175 -0 
z
" id="mca3ccf2cb7" style="stroke:#f5deb3;stroke-linejoin:miter;stroke-width:1.5;"/>
    </defs>
    <g>
     <use style="fill:#f5deb3;stroke:#f5deb3;stroke-linejoin:miter;stroke-width:1.5;" x="134.664189" xlink:href="#mca3ccf2cb7" y="237.212751"/>
     <use style="fill:#f5deb3;stroke:#f5deb3;stroke-linejoin:miter;stroke-width:1.5;" x="144.447825" xlink:href="#mca3ccf2cb7" y="116.635776"/>
     <use style="fill:#f5deb3;stroke:#f5deb3;stroke-linejoin:miter;stroke-width:1.5;" x="150.538207" xlink:href="#mca3ccf2cb7" y="32.756141"/>
     <use style="fill:#f5deb3;stroke:#f5deb3;stroke-linejoin:miter;stroke-width:1.5;" x="150.538207" xlink:href="#mca3ccf2cb7" y="27.513663"/>
     <use style="fill:#f5deb3;stroke:#f5deb3;stroke-linejoin:miter;stroke-width:1.5;" x="150.538207" xlink:href="#mca3ccf2cb7" y="27.513663"/>
     <use style="fill:#f5deb3;stroke:#f5deb3;stroke-linejoin:miter;stroke-width:1.5;" x="333.168" xlink:href="#mca3ccf2cb7" y="27.513663"/>
    </g>
   </g>
   <g id="line2d_3">
    <path style="fill:none;stroke:#f5deb3;stroke-linecap:square;stroke-width:4;"/>
    <g/>
   </g>
   <g id="line2d_4">
    <path d="M 333.168 27.513663 
L 363.64328 32.86099 
" style="fill:none;stroke:#f5deb3;stroke-linecap:square;stroke-width:4;"/>
    <g>
     <use style="fill:#f5deb3;stroke:#f5deb3;stroke-linejoin:miter;stroke-width:1.5;" x="333.168" xlink:href="#mca3ccf2cb7" y="27.513663"/>
     <use style="fill:#f5deb3;stroke:#f5deb3;stroke-linejoin:miter;stroke-width:1.5;" x="363.64328" xlink:href="#mca3ccf2cb7" y="32.86099"/>
    </g>
   </g>
   <g id="matplotlib.axis_1">
    <g id="xtick_1">
     <g id="line2d_5">
      <path clip-path="url(#pce65f7eae9)" d="M 56.12 294.88 
L 56.12 24.84 
" style="fill:none;stroke:#b0b0b0;stroke-linecap:square;stroke-width:0.8;"/>
     </g>
     <g id="line2d_6">
      <defs>
       <path d="M 0 0 
L 0 3.5 
" id="mbe02feadb1" style="stroke:#000000;stroke-width:0.8;"/>
      </defs>
      <g>
       <use style="stroke:#000000;stroke-width:0.8;" x="56.12" xlink:href="#mbe02feadb1" y="294.88"/>
      </g>
     </g>
     <g id="text_1">
      <!-- 0 -->
      <defs>
       <path d="M 31.78125 66.40625 
Q 24.171875 66.40625 20.328125 58.90625 
Q 16.5 51.421875 16.5 36.375 
Q 16.5 21.390625 20.328125 13.890625 
Q 24.171875 6.390625 31.78125 6.390625 
Q 39.453125 6.390625 43.28125 13.890625 
Q 47.125 21.390625 47.125 36.375 
Q 47.125 51.421875 43.28125 58.90625 
Q 39.453125 66.40625 31.78125 66.40625 
z
M 31.78125 74.21875 
Q 44.046875 74.21875 50.515625 64.515625 
Q 56.984375 54.828125 56.984375 36.375 
Q 56.984375 17.96875 50.515625 8.265625 
Q 44.046875 -1.421875 31.78125 -1.421875 
Q 19.53125 -1.421875 13.0625 8.265625 
Q 6.59375 17.96875 6.59375 36.375 
Q 6.59375 54.828125 13.0625 64.515625 
Q 19.53125 74.21875 31.78125 74.21875 
z
" id="DejaVuSans-30"/>
      </defs>
      <g transform="translate(49.7575 317.076875)scale(0.2 -0.2)">
       <use xlink:href="#DejaVuSans-30"/>
      </g>
     </g>
    </g>
    <g id="xtick_2">
     <g id="line2d_7">
      <path clip-path="url(#pce65f7eae9)" d="M 135.276571 294.88 
L 135.276571 24.84 
" style="fill:none;stroke:#b0b0b0;stroke-linecap:square;stroke-width:0.8;"/>
     </g>
     <g id="line2d_8">
      <g>
       <use style="stroke:#000000;stroke-width:0.8;" x="135.276571" xlink:href="#mbe02feadb1" y="294.88"/>
      </g>
     </g>
     <g id="text_2">
      <!-- 2 -->
      <defs>
       <path d="M 19.1875 8.296875 
L 53.609375 8.296875 
L 53.609375 0 
L 7.328125 0 
L 7.328125 8.296875 
Q 12.9375 14.109375 22.625 23.890625 
Q 32.328125 33.6875 34.8125 36.53125 
Q 39.546875 41.84375 41.421875 45.53125 
Q 43.3125 49.21875 43.3125 52.78125 
Q 43.3125 58.59375 39.234375 62.25 
Q 35.15625 65.921875 28.609375 65.921875 
Q 23.96875 65.921875 18.8125 64.3125 
Q 13.671875 62.703125 7.8125 59.421875 
L 7.8125 69.390625 
Q 13.765625 71.78125 18.9375 73 
Q 24.125 74.21875 28.421875 74.21875 
Q 39.75 74.21875 46.484375 68.546875 
Q 53.21875 62.890625 53.21875 53.421875 
Q 53.21875 48.921875 51.53125 44.890625 
Q 49.859375 40.875 45.40625 35.40625 
Q 44.1875 33.984375 37.640625 27.21875 
Q 31.109375 20.453125 19.1875 8.296875 
z
" id="DejaVuSans-32"/>
      </defs>
      <g transform="translate(128.914071 317.076875)scale(0.2 -0.2)">
       <use xlink:href="#DejaVuSans-32"/>
      </g>
     </g>
    </g>
    <g id="xtick_3">
     <g id="line2d_9">
      <path clip-path="url(#pce65f7eae9)" d="M 214.433143 294.88 
L 214.433143 24.84 
" style="fill:none;stroke:#b0b0b0;stroke-linecap:square;stroke-width:0.8;"/>
     </g>
     <g id="line2d_10">
      <g>
       <use style="stroke:#000000;stroke-width:0.8;" x="214.433143" xlink:href="#mbe02feadb1" y="294.88"/>
      </g>
     </g>
     <g id="text_3">
      <!-- 4 -->
      <defs>
       <path d="M 37.796875 64.3125 
L 12.890625 25.390625 
L 37.796875 25.390625 
z
M 35.203125 72.90625 
L 47.609375 72.90625 
L 47.609375 25.390625 
L 58.015625 25.390625 
L 58.015625 17.1875 
L 47.609375 17.1875 
L 47.609375 0 
L 37.796875 0 
L 37.796875 17.1875 
L 4.890625 17.1875 
L 4.890625 26.703125 
z
" id="DejaVuSans-34"/>
      </defs>
      <g transform="translate(208.070643 317.076875)scale(0.2 -0.2)">
       <use xlink:href="#DejaVuSans-34"/>
      </g>
     </g>
    </g>
    <g id="xtick_4">
     <g id="line2d_11">
      <path clip-path="url(#pce65f7eae9)" d="M 293.589714 294.88 
L 293.589714 24.84 
" style="fill:none;stroke:#b0b0b0;stroke-linecap:square;stroke-width:0.8;"/>
     </g>
     <g id="line2d_12">
      <g>
       <use style="stroke:#000000;stroke-width:0.8;" x="293.589714" xlink:href="#mbe02feadb1" y="294.88"/>
      </g>
     </g>
     <g id="text_4">
      <!-- 6 -->
      <defs>
       <path d="M 33.015625 40.375 
Q 26.375 40.375 22.484375 35.828125 
Q 18.609375 31.296875 18.609375 23.390625 
Q 18.609375 15.53125 22.484375 10.953125 
Q 26.375 6.390625 33.015625 6.390625 
Q 39.65625 6.390625 43.53125 10.953125 
Q 47.40625 15.53125 47.40625 23.390625 
Q 47.40625 31.296875 43.53125 35.828125 
Q 39.65625 40.375 33.015625 40.375 
z
M 52.59375 71.296875 
L 52.59375 62.3125 
Q 48.875 64.0625 45.09375 64.984375 
Q 41.3125 65.921875 37.59375 65.921875 
Q 27.828125 65.921875 22.671875 59.328125 
Q 17.53125 52.734375 16.796875 39.40625 
Q 19.671875 43.65625 24.015625 45.921875 
Q 28.375 48.1875 33.59375 48.1875 
Q 44.578125 48.1875 50.953125 41.515625 
Q 57.328125 34.859375 57.328125 23.390625 
Q 57.328125 12.15625 50.6875 5.359375 
Q 44.046875 -1.421875 33.015625 -1.421875 
Q 20.359375 -1.421875 13.671875 8.265625 
Q 6.984375 17.96875 6.984375 36.375 
Q 6.984375 53.65625 15.1875 63.9375 
Q 23.390625 74.21875 37.203125 74.21875 
Q 40.921875 74.21875 44.703125 73.484375 
Q 48.484375 72.75 52.59375 71.296875 
z
" id="DejaVuSans-36"/>
      </defs>
      <g transform="translate(287.227214 317.076875)scale(0.2 -0.2)">
       <use xlink:href="#DejaVuSans-36"/>
      </g>
     </g>
    </g>
    <g id="xtick_5">
     <g id="line2d_13">
      <path clip-path="url(#pce65f7eae9)" d="M 56.12 294.88 
L 56.12 24.84 
" style="fill:none;stroke:#b0b0b0;stroke-linecap:square;stroke-width:0.8;"/>
     </g>
     <g id="line2d_14">
      <defs>
       <path d="M 0 0 
L 0 2 
" id="m3e9d1fe03e" style="stroke:#000000;stroke-width:0.6;"/>
      </defs>
      <g>
       <use style="stroke:#000000;stroke-width:0.6;" x="56.12" xlink:href="#m3e9d1fe03e" y="294.88"/>
      </g>
     </g>
    </g>
    <g id="xtick_6">
     <g id="line2d_15">
      <path clip-path="url(#pce65f7eae9)" d="M 95.698286 294.88 
L 95.698286 24.84 
" style="fill:none;stroke:#b0b0b0;stroke-linecap:square;stroke-width:0.8;"/>
     </g>
     <g id="line2d_16">
      <g>
       <use style="stroke:#000000;stroke-width:0.6;" x="95.698286" xlink:href="#m3e9d1fe03e" y="294.88"/>
      </g>
     </g>
    </g>
    <g id="xtick_7">
     <g id="line2d_17">
      <path clip-path="url(#pce65f7eae9)" d="M 135.276571 294.88 
L 135.276571 24.84 
" style="fill:none;stroke:#b0b0b0;stroke-linecap:square;stroke-width:0.8;"/>
     </g>
     <g id="line2d_18">
      <g>
       <use style="stroke:#000000;stroke-width:0.6;" x="135.276571" xlink:href="#m3e9d1fe03e" y="294.88"/>
      </g>
     </g>
    </g>
    <g id="xtick_8">
     <g id="line2d_19">
      <path clip-path="url(#pce65f7eae9)" d="M 174.854857 294.88 
L 174.854857 24.84 
" style="fill:none;stroke:#b0b0b0;stroke-linecap:square;stroke-width:0.8;"/>
     </g>
     <g id="line2d_20">
      <g>
       <use style="stroke:#000000;stroke-width:0.6;" x="174.854857" xlink:href="#m3e9d1fe03e" y="294.88"/>
      </g>
     </g>
    </g>
    <g id="xtick_9">
     <g id="line2d_21">
      <path clip-path="url(#pce65f7eae9)" d="M 214.433143 294.88 
L 214.433143 24.84 
" style="fill:none;stroke:#b0b0b0;stroke-linecap:square;stroke-width:0.8;"/>
     </g>
     <g id="line2d_22">
      <g>
       <use style="stroke:#000000;stroke-width:0.6;" x="214.433143" xlink:href="#m3e9d1fe03e" y="294.88"/>
      </g>
     </g>
    </g>
    <g id="xtick_10">
     <g id="line2d_23">
      <path clip-path="url(#pce65f7eae9)" d="M 254.011429 294.88 
L 254.011429 24.84 
" style="fill:none;stroke:#b0b0b0;stroke-linecap:square;stroke-width:0.8;"/>
     </g>
     <g id="line2d_24">
      <g>
       <use style="stroke:#000000;stroke-width:0.6;" x="254.011429" xlink:href="#m3e9d1fe03e" y="294.88"/>
      </g>
     </g>
    </g>
    <g id="xtick_11">
     <g id="line2d_25">
      <path clip-path="url(#pce65f7eae9)" d="M 293.589714 294.88 
L 293.589714 24.84 
" style="fill:none;stroke:#b0b0b0;stroke-linecap:square;stroke-width:0.8;"/>
     </g>
     <g id="line2d_26">
      <g>
       <use style="stroke:#000000;stroke-width:0.6;" x="293.589714" xlink:href="#m3e9d1fe03e" y="294.88"/>
      </g>
     </g>
    </g>
    <g id="xtick_12">
     <g id="line2d_27">
      <path clip-path="url(#pce65f7eae9)" d="M 333.168 294.88 
L 333.168 24.84 
" style="fill:none;stroke:#b0b0b0;stroke-linecap:square;stroke-width:0.8;"/>
     </g>
     <g id="line2d_28">
      <g>
       <use style="stroke:#000000;stroke-width:0.6;" x="333.168" xlink:href="#m3e9d1fe03e" y="294.88"/>
      </g>
     </g>
    </g>
    <g id="text_5">
     <!-- log10(# f-evals / dimension) -->
     <defs>
      <path d="M 9.421875 75.984375 
L 18.40625 75.984375 
L 18.40625 0 
L 9.421875 0 
z
" id="DejaVuSans-6c"/>
      <path d="M 30.609375 48.390625 
Q 23.390625 48.390625 19.1875 42.75 
Q 14.984375 37.109375 14.984375 27.296875 
Q 14.984375 17.484375 19.15625 11.84375 
Q 23.34375 6.203125 30.609375 6.203125 
Q 37.796875 6.203125 41.984375 11.859375 
Q 46.1875 17.53125 46.1875 27.296875 
Q 46.1875 37.015625 41.984375 42.703125 
Q 37.796875 48.390625 30.609375 48.390625 
z
M 30.609375 56 
Q 42.328125 56 49.015625 48.375 
Q 55.71875 40.765625 55.71875 27.296875 
Q 55.71875 13.875 49.015625 6.21875 
Q 42.328125 -1.421875 30.609375 -1.421875 
Q 18.84375 -1.421875 12.171875 6.21875 
Q 5.515625 13.875 5.515625 27.296875 
Q 5.515625 40.765625 12.171875 48.375 
Q 18.84375 56 30.609375 56 
z
" id="DejaVuSans-6f"/>
      <path d="M 45.40625 27.984375 
Q 45.40625 37.75 41.375 43.109375 
Q 37.359375 48.484375 30.078125 48.484375 
Q 22.859375 48.484375 18.828125 43.109375 
Q 14.796875 37.75 14.796875 27.984375 
Q 14.796875 18.265625 18.828125 12.890625 
Q 22.859375 7.515625 30.078125 7.515625 
Q 37.359375 7.515625 41.375 12.890625 
Q 45.40625 18.265625 45.40625 27.984375 
z
M 54.390625 6.78125 
Q 54.390625 -7.171875 48.1875 -13.984375 
Q 42 -20.796875 29.203125 -20.796875 
Q 24.46875 -20.796875 20.265625 -20.09375 
Q 16.0625 -19.390625 12.109375 -17.921875 
L 12.109375 -9.1875 
Q 16.0625 -11.328125 19.921875 -12.34375 
Q 23.78125 -13.375 27.78125 -13.375 
Q 36.625 -13.375 41.015625 -8.765625 
Q 45.40625 -4.15625 45.40625 5.171875 
L 45.40625 9.625 
Q 42.625 4.78125 38.28125 2.390625 
Q 33.9375 0 27.875 0 
Q 17.828125 0 11.671875 7.65625 
Q 5.515625 15.328125 5.515625 27.984375 
Q 5.515625 40.671875 11.671875 48.328125 
Q 17.828125 56 27.875 56 
Q 33.9375 56 38.28125 53.609375 
Q 42.625 51.21875 45.40625 46.390625 
L 45.40625 54.6875 
L 54.390625 54.6875 
z
" id="DejaVuSans-67"/>
      <path d="M 12.40625 8.296875 
L 28.515625 8.296875 
L 28.515625 63.921875 
L 10.984375 60.40625 
L 10.984375 69.390625 
L 28.421875 72.90625 
L 38.28125 72.90625 
L 38.28125 8.296875 
L 54.390625 8.296875 
L 54.390625 0 
L 12.40625 0 
z
" id="DejaVuSans-31"/>
      <path d="M 31 75.875 
Q 24.46875 64.65625 21.28125 53.65625 
Q 18.109375 42.671875 18.109375 31.390625 
Q 18.109375 20.125 21.3125 9.0625 
Q 24.515625 -2 31 -13.1875 
L 23.1875 -13.1875 
Q 15.875 -1.703125 12.234375 9.375 
Q 8.59375 20.453125 8.59375 31.390625 
Q 8.59375 42.28125 12.203125 53.3125 
Q 15.828125 64.359375 23.1875 75.875 
z
" id="DejaVuSans-28"/>
      <path d="M 51.125 44 
L 36.921875 44 
L 32.8125 27.6875 
L 47.125 27.6875 
z
M 43.796875 71.78125 
L 38.71875 51.515625 
L 52.984375 51.515625 
L 58.109375 71.78125 
L 65.921875 71.78125 
L 60.890625 51.515625 
L 76.125 51.515625 
L 76.125 44 
L 58.984375 44 
L 54.984375 27.6875 
L 70.515625 27.6875 
L 70.515625 20.21875 
L 53.078125 20.21875 
L 48 0 
L 40.1875 0 
L 45.21875 20.21875 
L 30.90625 20.21875 
L 25.875 0 
L 18.015625 0 
L 23.09375 20.21875 
L 7.71875 20.21875 
L 7.71875 27.6875 
L 24.90625 27.6875 
L 29 44 
L 13.28125 44 
L 13.28125 51.515625 
L 30.90625 51.515625 
L 35.890625 71.78125 
z
" id="DejaVuSans-23"/>
      <path id="DejaVuSans-20"/>
      <path d="M 37.109375 75.984375 
L 37.109375 68.5 
L 28.515625 68.5 
Q 23.6875 68.5 21.796875 66.546875 
Q 19.921875 64.59375 19.921875 59.515625 
L 19.921875 54.6875 
L 34.71875 54.6875 
L 34.71875 47.703125 
L 19.921875 47.703125 
L 19.921875 0 
L 10.890625 0 
L 10.890625 47.703125 
L 2.296875 47.703125 
L 2.296875 54.6875 
L 10.890625 54.6875 
L 10.890625 58.5 
Q 10.890625 67.625 15.140625 71.796875 
Q 19.390625 75.984375 28.609375 75.984375 
z
" id="DejaVuSans-66"/>
      <path d="M 4.890625 31.390625 
L 31.203125 31.390625 
L 31.203125 23.390625 
L 4.890625 23.390625 
z
" id="DejaVuSans-2d"/>
      <path d="M 56.203125 29.59375 
L 56.203125 25.203125 
L 14.890625 25.203125 
Q 15.484375 15.921875 20.484375 11.0625 
Q 25.484375 6.203125 34.421875 6.203125 
Q 39.59375 6.203125 44.453125 7.46875 
Q 49.3125 8.734375 54.109375 11.28125 
L 54.109375 2.78125 
Q 49.265625 0.734375 44.1875 -0.34375 
Q 39.109375 -1.421875 33.890625 -1.421875 
Q 20.796875 -1.421875 13.15625 6.1875 
Q 5.515625 13.8125 5.515625 26.8125 
Q 5.515625 40.234375 12.765625 48.109375 
Q 20.015625 56 32.328125 56 
Q 43.359375 56 49.78125 48.890625 
Q 56.203125 41.796875 56.203125 29.59375 
z
M 47.21875 32.234375 
Q 47.125 39.59375 43.09375 43.984375 
Q 39.0625 48.390625 32.421875 48.390625 
Q 24.90625 48.390625 20.390625 44.140625 
Q 15.875 39.890625 15.1875 32.171875 
z
" id="DejaVuSans-65"/>
      <path d="M 2.984375 54.6875 
L 12.5 54.6875 
L 29.59375 8.796875 
L 46.6875 54.6875 
L 56.203125 54.6875 
L 35.6875 0 
L 23.484375 0 
z
" id="DejaVuSans-76"/>
      <path d="M 34.28125 27.484375 
Q 23.390625 27.484375 19.1875 25 
Q 14.984375 22.515625 14.984375 16.5 
Q 14.984375 11.71875 18.140625 8.90625 
Q 21.296875 6.109375 26.703125 6.109375 
Q 34.1875 6.109375 38.703125 11.40625 
Q 43.21875 16.703125 43.21875 25.484375 
L 43.21875 27.484375 
z
M 52.203125 31.203125 
L 52.203125 0 
L 43.21875 0 
L 43.21875 8.296875 
Q 40.140625 3.328125 35.546875 0.953125 
Q 30.953125 -1.421875 24.3125 -1.421875 
Q 15.921875 -1.421875 10.953125 3.296875 
Q 6 8.015625 6 15.921875 
Q 6 25.140625 12.171875 29.828125 
Q 18.359375 34.515625 30.609375 34.515625 
L 43.21875 34.515625 
L 43.21875 35.40625 
Q 43.21875 41.609375 39.140625 45 
Q 35.0625 48.390625 27.6875 48.390625 
Q 23 48.390625 18.546875 47.265625 
Q 14.109375 46.140625 10.015625 43.890625 
L 10.015625 52.203125 
Q 14.9375 54.109375 19.578125 55.046875 
Q 24.21875 56 28.609375 56 
Q 40.484375 56 46.34375 49.84375 
Q 52.203125 43.703125 52.203125 31.203125 
z
" id="DejaVuSans-61"/>
      <path d="M 44.28125 53.078125 
L 44.28125 44.578125 
Q 40.484375 46.53125 36.375 47.5 
Q 32.28125 48.484375 27.875 48.484375 
Q 21.1875 48.484375 17.84375 46.4375 
Q 14.5 44.390625 14.5 40.28125 
Q 14.5 37.15625 16.890625 35.375 
Q 19.28125 33.59375 26.515625 31.984375 
L 29.59375 31.296875 
Q 39.15625 29.25 43.1875 25.515625 
Q 47.21875 21.78125 47.21875 15.09375 
Q 47.21875 7.46875 41.1875 3.015625 
Q 35.15625 -1.421875 24.609375 -1.421875 
Q 20.21875 -1.421875 15.453125 -0.5625 
Q 10.6875 0.296875 5.421875 2 
L 5.421875 11.28125 
Q 10.40625 8.6875 15.234375 7.390625 
Q 20.0625 6.109375 24.8125 6.109375 
Q 31.15625 6.109375 34.5625 8.28125 
Q 37.984375 10.453125 37.984375 14.40625 
Q 37.984375 18.0625 35.515625 20.015625 
Q 33.0625 21.96875 24.703125 23.78125 
L 21.578125 24.515625 
Q 13.234375 26.265625 9.515625 29.90625 
Q 5.8125 33.546875 5.8125 39.890625 
Q 5.8125 47.609375 11.28125 51.796875 
Q 16.75 56 26.8125 56 
Q 31.78125 56 36.171875 55.265625 
Q 40.578125 54.546875 44.28125 53.078125 
z
" id="DejaVuSans-73"/>
      <path d="M 25.390625 72.90625 
L 33.6875 72.90625 
L 8.296875 -9.28125 
L 0 -9.28125 
z
" id="DejaVuSans-2f"/>
      <path d="M 45.40625 46.390625 
L 45.40625 75.984375 
L 54.390625 75.984375 
L 54.390625 0 
L 45.40625 0 
L 45.40625 8.203125 
Q 42.578125 3.328125 38.25 0.953125 
Q 33.9375 -1.421875 27.875 -1.421875 
Q 17.96875 -1.421875 11.734375 6.484375 
Q 5.515625 14.40625 5.515625 27.296875 
Q 5.515625 40.1875 11.734375 48.09375 
Q 17.96875 56 27.875 56 
Q 33.9375 56 38.25 53.625 
Q 42.578125 51.265625 45.40625 46.390625 
z
M 14.796875 27.296875 
Q 14.796875 17.390625 18.875 11.75 
Q 22.953125 6.109375 30.078125 6.109375 
Q 37.203125 6.109375 41.296875 11.75 
Q 45.40625 17.390625 45.40625 27.296875 
Q 45.40625 37.203125 41.296875 42.84375 
Q 37.203125 48.484375 30.078125 48.484375 
Q 22.953125 48.484375 18.875 42.84375 
Q 14.796875 37.203125 14.796875 27.296875 
z
" id="DejaVuSans-64"/>
      <path d="M 9.421875 54.6875 
L 18.40625 54.6875 
L 18.40625 0 
L 9.421875 0 
z
M 9.421875 75.984375 
L 18.40625 75.984375 
L 18.40625 64.59375 
L 9.421875 64.59375 
z
" id="DejaVuSans-69"/>
      <path d="M 52 44.1875 
Q 55.375 50.25 60.0625 53.125 
Q 64.75 56 71.09375 56 
Q 79.640625 56 84.28125 50.015625 
Q 88.921875 44.046875 88.921875 33.015625 
L 88.921875 0 
L 79.890625 0 
L 79.890625 32.71875 
Q 79.890625 40.578125 77.09375 44.375 
Q 74.3125 48.1875 68.609375 48.1875 
Q 61.625 48.1875 57.5625 43.546875 
Q 53.515625 38.921875 53.515625 30.90625 
L 53.515625 0 
L 44.484375 0 
L 44.484375 32.71875 
Q 44.484375 40.625 41.703125 44.40625 
Q 38.921875 48.1875 33.109375 48.1875 
Q 26.21875 48.1875 22.15625 43.53125 
Q 18.109375 38.875 18.109375 30.90625 
L 18.109375 0 
L 9.078125 0 
L 9.078125 54.6875 
L 18.109375 54.6875 
L 18.109375 46.1875 
Q 21.1875 51.21875 25.484375 53.609375 
Q 29.78125 56 35.6875 56 
Q 41.65625 56 45.828125 52.96875 
Q 50 49.953125 52 44.1875 
z
" id="DejaVuSans-6d"/>
      <path d="M 54.890625 33.015625 
L 54.890625 0 
L 45.90625 0 
L 45.90625 32.71875 
Q 45.90625 40.484375 42.875 44.328125 
Q 39.84375 48.1875 33.796875 48.1875 
Q 26.515625 48.1875 22.3125 43.546875 
Q 18.109375 38.921875 18.109375 30.90625 
L 18.109375 0 
L 9.078125 0 
L 9.078125 54.6875 
L 18.109375 54.6875 
L 18.109375 46.1875 
Q 21.34375 51.125 25.703125 53.5625 
Q 30.078125 56 35.796875 56 
Q 45.21875 56 50.046875 50.171875 
Q 54.890625 44.34375 54.890625 33.015625 
z
" id="DejaVuSans-6e"/>
      <path d="M 8.015625 75.875 
L 15.828125 75.875 
Q 23.140625 64.359375 26.78125 53.3125 
Q 30.421875 42.28125 30.421875 31.390625 
Q 30.421875 20.453125 26.78125 9.375 
Q 23.140625 -1.703125 15.828125 -13.1875 
L 8.015625 -13.1875 
Q 14.5 -2 17.703125 9.0625 
Q 20.90625 20.125 20.90625 31.390625 
Q 20.90625 42.671875 17.703125 53.65625 
Q 14.5 64.65625 8.015625 75.875 
z
" id="DejaVuSans-29"/>
     </defs>
     <g transform="translate(73.803219 338.153594)scale(0.17 -0.17)">
      <use xlink:href="#DejaVuSans-6c"/>
      <use x="27.783203" xlink:href="#DejaVuSans-6f"/>
      <use x="88.964844" xlink:href="#DejaVuSans-67"/>
      <use x="152.441406" xlink:href="#DejaVuSans-31"/>
      <use x="216.064453" xlink:href="#DejaVuSans-30"/>
      <use x="279.6875" xlink:href="#DejaVuSans-28"/>
      <use x="318.701172" xlink:href="#DejaVuSans-23"/>
      <use x="402.490234" xlink:href="#DejaVuSans-20"/>
      <use x="434.277344" xlink:href="#DejaVuSans-66"/>
      <use x="469.404297" xlink:href="#DejaVuSans-2d"/>
      <use x="505.488281" xlink:href="#DejaVuSans-65"/>
      <use x="567.011719" xlink:href="#DejaVuSans-76"/>
      <use x="626.191406" xlink:href="#DejaVuSans-61"/>
      <use x="687.470703" xlink:href="#DejaVuSans-6c"/>
      <use x="715.253906" xlink:href="#DejaVuSans-73"/>
      <use x="767.353516" xlink:href="#DejaVuSans-20"/>
      <use x="799.140625" xlink:href="#DejaVuSans-2f"/>
      <use x="832.832031" xlink:href="#DejaVuSans-20"/>
      <use x="864.619141" xlink:href="#DejaVuSans-64"/>
      <use x="928.095703" xlink:href="#DejaVuSans-69"/>
      <use x="955.878906" xlink:href="#DejaVuSans-6d"/>
      <use x="1053.291016" xlink:href="#DejaVuSans-65"/>
      <use x="1114.814453" xlink:href="#DejaVuSans-6e"/>
      <use x="1178.193359" xlink:href="#DejaVuSans-73"/>
      <use x="1230.292969" xlink:href="#DejaVuSans-69"/>
      <use x="1258.076172" xlink:href="#DejaVuSans-6f"/>
      <use x="1319.257812" xlink:href="#DejaVuSans-6e"/>
      <use x="1382.636719" xlink:href="#DejaVuSans-29"/>
     </g>
    </g>
   </g>
   <g id="matplotlib.axis_2">
    <g id="ytick_1">
     <g id="line2d_29">
      <path clip-path="url(#pce65f7eae9)" d="M 56.12 294.88 
L 333.168 294.88 
" style="fill:none;stroke:#b0b0b0;stroke-linecap:square;stroke-width:0.8;"/>
     </g>
     <g id="line2d_30">
      <defs>
       <path d="M 0 0 
L -3.5 0 
" id="m2427f13d93" style="stroke:#000000;stroke-width:0.8;"/>
      </defs>
      <g>
       <use style="stroke:#000000;stroke-width:0.8;" x="56.12" xlink:href="#m2427f13d93" y="294.88"/>
      </g>
     </g>
     <g id="text_6">
      <!-- 0.0 -->
      <defs>
       <path d="M 10.6875 12.40625 
L 21 12.40625 
L 21 0 
L 10.6875 0 
z
" id="DejaVuSans-2e"/>
      </defs>
      <g transform="translate(23.675 300.95875)scale(0.16 -0.16)">
       <use xlink:href="#DejaVuSans-30"/>
       <use x="63.623047" xlink:href="#DejaVuSans-2e"/>
       <use x="95.410156" xlink:href="#DejaVuSans-30"/>
      </g>
     </g>
    </g>
    <g id="ytick_2">
     <g id="line2d_31">
      <path clip-path="url(#pce65f7eae9)" d="M 56.12 241.406733 
L 333.168 241.406733 
" style="fill:none;stroke:#b0b0b0;stroke-linecap:square;stroke-width:0.8;"/>
     </g>
     <g id="line2d_32">
      <g>
       <use style="stroke:#000000;stroke-width:0.8;" x="56.12" xlink:href="#m2427f13d93" y="241.406733"/>
      </g>
     </g>
     <g id="text_7">
      <!-- 0.2 -->
      <g transform="translate(23.675 247.485483)scale(0.16 -0.16)">
       <use xlink:href="#DejaVuSans-30"/>
       <use x="63.623047" xlink:href="#DejaVuSans-2e"/>
       <use x="95.410156" xlink:href="#DejaVuSans-32"/>
      </g>
     </g>
    </g>
    <g id="ytick_3">
     <g id="line2d_33">
      <path clip-path="url(#pce65f7eae9)" d="M 56.12 187.933465 
L 333.168 187.933465 
" style="fill:none;stroke:#b0b0b0;stroke-linecap:square;stroke-width:0.8;"/>
     </g>
     <g id="line2d_34">
      <g>
       <use style="stroke:#000000;stroke-width:0.8;" x="56.12" xlink:href="#m2427f13d93" y="187.933465"/>
      </g>
     </g>
     <g id="text_8">
      <!-- 0.4 -->
      <g transform="translate(23.675 194.012215)scale(0.16 -0.16)">
       <use xlink:href="#DejaVuSans-30"/>
       <use x="63.623047" xlink:href="#DejaVuSans-2e"/>
       <use x="95.410156" xlink:href="#DejaVuSans-34"/>
      </g>
     </g>
    </g>
    <g id="ytick_4">
     <g id="line2d_35">
      <path clip-path="url(#pce65f7eae9)" d="M 56.12 134.460198 
L 333.168 134.460198 
" style="fill:none;stroke:#b0b0b0;stroke-linecap:square;stroke-width:0.8;"/>
     </g>
     <g id="line2d_36">
      <g>
       <use style="stroke:#000000;stroke-width:0.8;" x="56.12" xlink:href="#m2427f13d93" y="134.460198"/>
      </g>
     </g>
     <g id="text_9">
      <!-- 0.6 -->
      <g transform="translate(23.675 140.538948)scale(0.16 -0.16)">
       <use xlink:href="#DejaVuSans-30"/>
       <use x="63.623047" xlink:href="#DejaVuSans-2e"/>
       <use x="95.410156" xlink:href="#DejaVuSans-36"/>
      </g>
     </g>
    </g>
    <g id="ytick_5">
     <g id="line2d_37">
      <path clip-path="url(#pce65f7eae9)" d="M 56.12 80.986931 
L 333.168 80.986931 
" style="fill:none;stroke:#b0b0b0;stroke-linecap:square;stroke-width:0.8;"/>
     </g>
     <g id="line2d_38">
      <g>
       <use style="stroke:#000000;stroke-width:0.8;" x="56.12" xlink:href="#m2427f13d93" y="80.986931"/>
      </g>
     </g>
     <g id="text_10">
      <!-- 0.8 -->
      <defs>
       <path d="M 31.78125 34.625 
Q 24.75 34.625 20.71875 30.859375 
Q 16.703125 27.09375 16.703125 20.515625 
Q 16.703125 13.921875 20.71875 10.15625 
Q 24.75 6.390625 31.78125 6.390625 
Q 38.8125 6.390625 42.859375 10.171875 
Q 46.921875 13.96875 46.921875 20.515625 
Q 46.921875 27.09375 42.890625 30.859375 
Q 38.875 34.625 31.78125 34.625 
z
M 21.921875 38.8125 
Q 15.578125 40.375 12.03125 44.71875 
Q 8.5 49.078125 8.5 55.328125 
Q 8.5 64.0625 14.71875 69.140625 
Q 20.953125 74.21875 31.78125 74.21875 
Q 42.671875 74.21875 48.875 69.140625 
Q 55.078125 64.0625 55.078125 55.328125 
Q 55.078125 49.078125 51.53125 44.71875 
Q 48 40.375 41.703125 38.8125 
Q 48.828125 37.15625 52.796875 32.3125 
Q 56.78125 27.484375 56.78125 20.515625 
Q 56.78125 9.90625 50.3125 4.234375 
Q 43.84375 -1.421875 31.78125 -1.421875 
Q 19.734375 -1.421875 13.25 4.234375 
Q 6.78125 9.90625 6.78125 20.515625 
Q 6.78125 27.484375 10.78125 32.3125 
Q 14.796875 37.15625 21.921875 38.8125 
z
M 18.3125 54.390625 
Q 18.3125 48.734375 21.84375 45.5625 
Q 25.390625 42.390625 31.78125 42.390625 
Q 38.140625 42.390625 41.71875 45.5625 
Q 45.3125 48.734375 45.3125 54.390625 
Q 45.3125 60.0625 41.71875 63.234375 
Q 38.140625 66.40625 31.78125 66.40625 
Q 25.390625 66.40625 21.84375 63.234375 
Q 18.3125 60.0625 18.3125 54.390625 
z
" id="DejaVuSans-38"/>
      </defs>
      <g transform="translate(23.675 87.065681)scale(0.16 -0.16)">
       <use xlink:href="#DejaVuSans-30"/>
       <use x="63.623047" xlink:href="#DejaVuSans-2e"/>
       <use x="95.410156" xlink:href="#DejaVuSans-38"/>
      </g>
     </g>
    </g>
    <g id="ytick_6">
     <g id="line2d_39">
      <path clip-path="url(#pce65f7eae9)" d="M 56.12 27.513663 
L 333.168 27.513663 
" style="fill:none;stroke:#b0b0b0;stroke-linecap:square;stroke-width:0.8;"/>
     </g>
     <g id="line2d_40">
      <g>
       <use style="stroke:#000000;stroke-width:0.8;" x="56.12" xlink:href="#m2427f13d93" y="27.513663"/>
      </g>
     </g>
     <g id="text_11">
      <!-- 1.0 -->
      <g transform="translate(23.675 33.592413)scale(0.16 -0.16)">
       <use xlink:href="#DejaVuSans-31"/>
       <use x="63.623047" xlink:href="#DejaVuSans-2e"/>
       <use x="95.410156" xlink:href="#DejaVuSans-30"/>
      </g>
     </g>
    </g>
    <g id="text_12">
     <!-- Fraction of function,target pairs -->
     <defs>
      <path d="M 9.8125 72.90625 
L 51.703125 72.90625 
L 51.703125 64.59375 
L 19.671875 64.59375 
L 19.671875 43.109375 
L 48.578125 43.109375 
L 48.578125 34.8125 
L 19.671875 34.8125 
L 19.671875 0 
L 9.8125 0 
z
" id="DejaVuSans-46"/>
      <path d="M 41.109375 46.296875 
Q 39.59375 47.171875 37.8125 47.578125 
Q 36.03125 48 33.890625 48 
Q 26.265625 48 22.1875 43.046875 
Q 18.109375 38.09375 18.109375 28.8125 
L 18.109375 0 
L 9.078125 0 
L 9.078125 54.6875 
L 18.109375 54.6875 
L 18.109375 46.1875 
Q 20.953125 51.171875 25.484375 53.578125 
Q 30.03125 56 36.53125 56 
Q 37.453125 56 38.578125 55.875 
Q 39.703125 55.765625 41.0625 55.515625 
z
" id="DejaVuSans-72"/>
      <path d="M 48.78125 52.59375 
L 48.78125 44.1875 
Q 44.96875 46.296875 41.140625 47.34375 
Q 37.3125 48.390625 33.40625 48.390625 
Q 24.65625 48.390625 19.8125 42.84375 
Q 14.984375 37.3125 14.984375 27.296875 
Q 14.984375 17.28125 19.8125 11.734375 
Q 24.65625 6.203125 33.40625 6.203125 
Q 37.3125 6.203125 41.140625 7.25 
Q 44.96875 8.296875 48.78125 10.40625 
L 48.78125 2.09375 
Q 45.015625 0.34375 40.984375 -0.53125 
Q 36.96875 -1.421875 32.421875 -1.421875 
Q 20.0625 -1.421875 12.78125 6.34375 
Q 5.515625 14.109375 5.515625 27.296875 
Q 5.515625 40.671875 12.859375 48.328125 
Q 20.21875 56 33.015625 56 
Q 37.15625 56 41.109375 55.140625 
Q 45.0625 54.296875 48.78125 52.59375 
z
" id="DejaVuSans-63"/>
      <path d="M 18.3125 70.21875 
L 18.3125 54.6875 
L 36.8125 54.6875 
L 36.8125 47.703125 
L 18.3125 47.703125 
L 18.3125 18.015625 
Q 18.3125 11.328125 20.140625 9.421875 
Q 21.96875 7.515625 27.59375 7.515625 
L 36.8125 7.515625 
L 36.8125 0 
L 27.59375 0 
Q 17.1875 0 13.234375 3.875 
Q 9.28125 7.765625 9.28125 18.015625 
L 9.28125 47.703125 
L 2.6875 47.703125 
L 2.6875 54.6875 
L 9.28125 54.6875 
L 9.28125 70.21875 
z
" id="DejaVuSans-74"/>
      <path d="M 8.5 21.578125 
L 8.5 54.6875 
L 17.484375 54.6875 
L 17.484375 21.921875 
Q 17.484375 14.15625 20.5 10.265625 
Q 23.53125 6.390625 29.59375 6.390625 
Q 36.859375 6.390625 41.078125 11.03125 
Q 45.3125 15.671875 45.3125 23.6875 
L 45.3125 54.6875 
L 54.296875 54.6875 
L 54.296875 0 
L 45.3125 0 
L 45.3125 8.40625 
Q 42.046875 3.421875 37.71875 1 
Q 33.40625 -1.421875 27.6875 -1.421875 
Q 18.265625 -1.421875 13.375 4.4375 
Q 8.5 10.296875 8.5 21.578125 
z
M 31.109375 56 
z
" id="DejaVuSans-75"/>
      <path d="M 11.71875 12.40625 
L 22.015625 12.40625 
L 22.015625 4 
L 14.015625 -11.625 
L 7.71875 -11.625 
L 11.71875 4 
z
" id="DejaVuSans-2c"/>
      <path d="M 18.109375 8.203125 
L 18.109375 -20.796875 
L 9.078125 -20.796875 
L 9.078125 54.6875 
L 18.109375 54.6875 
L 18.109375 46.390625 
Q 20.953125 51.265625 25.265625 53.625 
Q 29.59375 56 35.59375 56 
Q 45.5625 56 51.78125 48.09375 
Q 58.015625 40.1875 58.015625 27.296875 
Q 58.015625 14.40625 51.78125 6.484375 
Q 45.5625 -1.421875 35.59375 -1.421875 
Q 29.59375 -1.421875 25.265625 0.953125 
Q 20.953125 3.328125 18.109375 8.203125 
z
M 48.6875 27.296875 
Q 48.6875 37.203125 44.609375 42.84375 
Q 40.53125 48.484375 33.40625 48.484375 
Q 26.265625 48.484375 22.1875 42.84375 
Q 18.109375 37.203125 18.109375 27.296875 
Q 18.109375 17.390625 22.1875 11.75 
Q 26.265625 6.109375 33.40625 6.109375 
Q 40.53125 6.109375 44.609375 11.75 
Q 48.6875 17.390625 48.6875 27.296875 
z
" id="DejaVuSans-70"/>
     </defs>
     <g transform="translate(16.139531 294.999375)rotate(-90)scale(0.17 -0.17)">
      <use xlink:href="#DejaVuSans-46"/>
      <use x="57.410156" xlink:href="#DejaVuSans-72"/>
      <use x="98.523438" xlink:href="#DejaVuSans-61"/>
      <use x="159.802734" xlink:href="#DejaVuSans-63"/>
      <use x="214.783203" xlink:href="#DejaVuSans-74"/>
      <use x="253.992188" xlink:href="#DejaVuSans-69"/>
      <use x="281.775391" xlink:href="#DejaVuSans-6f"/>
      <use x="342.957031" xlink:href="#DejaVuSans-6e"/>
      <use x="406.335938" xlink:href="#DejaVuSans-20"/>
      <use x="438.123047" xlink:href="#DejaVuSans-6f"/>
      <use x="499.304688" xlink:href="#DejaVuSans-66"/>
      <use x="534.509766" xlink:href="#DejaVuSans-20"/>
      <use x="566.296875" xlink:href="#DejaVuSans-66"/>
      <use x="601.501953" xlink:href="#DejaVuSans-75"/>
      <use x="664.880859" xlink:href="#DejaVuSans-6e"/>
      <use x="728.259766" xlink:href="#DejaVuSans-63"/>
      <use x="783.240234" xlink:href="#DejaVuSans-74"/>
      <use x="822.449219" xlink:href="#DejaVuSans-69"/>
      <use x="850.232422" xlink:href="#DejaVuSans-6f"/>
      <use x="911.414062" xlink:href="#DejaVuSans-6e"/>
      <use x="974.792969" xlink:href="#DejaVuSans-2c"/>
      <use x="1006.580078" xlink:href="#DejaVuSans-74"/>
      <use x="1045.789062" xlink:href="#DejaVuSans-61"/>
      <use x="1107.068359" xlink:href="#DejaVuSans-72"/>
      <use x="1148.166016" xlink:href="#DejaVuSans-67"/>
      <use x="1211.642578" xlink:href="#DejaVuSans-65"/>
      <use x="1273.166016" xlink:href="#DejaVuSans-74"/>
      <use x="1312.375" xlink:href="#DejaVuSans-20"/>
      <use x="1344.162109" xlink:href="#DejaVuSans-70"/>
      <use x="1407.638672" xlink:href="#DejaVuSans-61"/>
      <use x="1468.917969" xlink:href="#DejaVuSans-69"/>
      <use x="1496.701172" xlink:href="#DejaVuSans-72"/>
      <use x="1537.814453" xlink:href="#DejaVuSans-73"/>
     </g>
    </g>
   </g>
   <g id="line2d_41">
    <defs>
     <path d="M 0 1.5 
C 0.397805 1.5 0.77937 1.341951 1.06066 1.06066 
C 1.341951 0.77937 1.5 0.397805 1.5 0 
C 1.5 -0.397805 1.341951 -0.77937 1.06066 -1.06066 
C 0.77937 -1.341951 0.397805 -1.5 0 -1.5 
C -0.397805 -1.5 -0.77937 -1.341951 -1.06066 -1.06066 
C -1.341951 -0.77937 -1.5 -0.397805 -1.5 0 
C -1.5 0.397805 -1.341951 0.77937 -1.06066 1.06066 
C -0.77937 1.341951 -0.397805 1.5 0 1.5 
z
" id="m92e26f1d13" style="stroke:#f5deb3;"/>
    </defs>
    <g>
     <use style="fill:#f5deb3;stroke:#f5deb3;" x="150.538207" xlink:href="#m92e26f1d13" y="27.513663"/>
     <use style="fill:#f5deb3;stroke:#f5deb3;" x="150.538207" xlink:href="#m92e26f1d13" y="27.513663"/>
    </g>
   </g>
   <g id="line2d_42">
    <defs>
     <path d="M 0 1.5 
C 0.397805 1.5 0.77937 1.341951 1.06066 1.06066 
C 1.341951 0.77937 1.5 0.397805 1.5 0 
C 1.5 -0.397805 1.341951 -0.77937 1.06066 -1.06066 
C 0.77937 -1.341951 0.397805 -1.5 0 -1.5 
C -0.397805 -1.5 -0.77937 -1.341951 -1.06066 -1.06066 
C -1.341951 -0.77937 -1.5 -0.397805 -1.5 0 
C -1.5 0.397805 -1.341951 0.77937 -1.06066 1.06066 
C -0.77937 1.341951 -0.397805 1.5 0 1.5 
z
" id="md665035ba2" style="stroke:#000080;"/>
    </defs>
    <g>
     <use style="fill:#000080;stroke:#000080;" x="241.768677" xlink:href="#md665035ba2" y="226.727797"/>
     <use style="fill:#000080;stroke:#000080;" x="241.768677" xlink:href="#md665035ba2" y="226.727797"/>
    </g>
   </g>
   <g id="line2d_43">
    <path d="M 44.205749 294.88 
L 44.205749 284.919293 
L 56.12 284.919293 
L 56.12 281.249559 
L 63.08939 281.249559 
L 63.08939 278.628321 
L 68.034251 278.628321 
L 68.034251 276.007082 
L 71.869783 276.007082 
L 71.869783 273.910091 
L 75.003641 273.910091 
L 75.003641 270.764605 
L 77.653281 270.764605 
L 77.653281 267.619119 
L 83.784035 267.619119 
L 83.784035 267.094871 
L 85.422286 267.094871 
L 85.422286 266.570623 
L 88.293717 266.570623 
L 88.293717 264.473632 
L 89.567532 264.473632 
L 89.567532 263.949385 
L 90.753425 263.949385 
L 90.753425 263.425137 
L 94.816624 263.425137 
L 94.816624 262.376641 
L 95.698286 262.376641 
L 95.698286 261.852394 
L 99.533818 261.852394 
L 99.533818 260.279651 
L 101.481783 260.279651 
L 101.481783 258.18266 
L 103.777005 258.18266 
L 103.777005 257.658412 
L 112.770924 257.658412 
L 112.770924 257.134164 
L 126.352339 257.134164 
L 126.352339 256.609917 
L 127.334814 256.609917 
L 127.334814 256.085669 
L 129.630036 256.085669 
L 129.630036 255.037173 
L 131.333273 255.037173 
L 131.333273 254.512926 
L 133.560797 254.512926 
L 133.560797 253.46443 
L 135.447604 253.46443 
L 135.447604 252.940182 
L 136.836515 252.940182 
L 136.836515 251.891687 
L 137.224536 251.891687 
L 137.224536 251.367439 
L 141.72241 251.367439 
L 141.72241 249.794696 
L 152.633326 249.794696 
L 152.633326 249.270448 
L 153.187846 249.270448 
L 153.187846 248.746201 
L 161.986418 248.746201 
L 161.986418 248.221953 
L 166.498896 248.221953 
L 166.498896 247.697705 
L 169.852605 247.697705 
L 169.852605 247.173458 
L 171.051523 247.173458 
L 171.051523 246.64921 
L 175.093829 246.64921 
L 175.093829 246.124962 
L 178.003033 246.124962 
L 178.003033 245.600714 
L 178.517638 245.600714 
L 178.517638 245.076467 
L 179.06444 245.076467 
L 179.06444 244.552219 
L 179.40416 244.552219 
L 179.40416 244.027971 
L 180.515138 244.027971 
L 180.515138 243.503724 
L 181.259298 243.503724 
L 181.259298 242.979476 
L 183.685025 242.979476 
L 183.685025 242.455228 
L 184.649781 242.455228 
L 184.649781 241.93098 
L 185.600089 241.93098 
L 185.600089 241.406733 
L 185.937131 241.406733 
L 185.937131 240.358237 
L 187.928051 240.358237 
L 187.928051 239.83399 
L 188.230662 239.83399 
L 188.230662 239.309742 
L 192.950066 239.309742 
L 192.950066 238.785494 
L 195.058701 238.785494 
L 195.058701 238.261246 
L 196.444522 238.261246 
L 196.444522 237.736999 
L 198.569106 237.736999 
L 198.569106 237.212751 
L 199.729458 237.212751 
L 199.729458 236.688503 
L 200.417055 236.688503 
L 200.417055 236.164255 
L 202.007739 236.164255 
L 202.007739 235.640008 
L 207.211385 235.640008 
L 207.211385 235.11576 
L 208.364891 235.11576 
L 208.364891 234.591512 
L 208.878274 234.591512 
L 208.878274 234.067265 
L 210.471457 234.067265 
L 210.471457 233.543017 
L 212.995256 233.543017 
L 212.995256 233.018769 
L 214.387533 233.018769 
L 214.387533 232.494521 
L 215.929394 232.494521 
L 215.929394 231.970274 
L 216.807786 231.970274 
L 216.807786 231.446026 
L 221.399668 231.446026 
L 221.399668 230.921778 
L 223.506836 230.921778 
L 223.506836 230.397531 
L 227.350173 230.397531 
L 227.350173 229.873283 
L 227.598081 229.873283 
L 227.598081 229.349035 
L 227.82039 229.349035 
L 227.82039 228.824787 
L 230.475719 228.824787 
L 230.521621 227.776292 
L 233.807885 227.776292 
L 233.807885 227.252044 
L 241.768677 227.252044 
L 241.768677 226.727797 
L 333.168 226.727797 
L 333.168 226.727797 
" style="fill:none;stroke:#000080;stroke-linecap:square;stroke-width:1.5;"/>
   </g>
   <g id="line2d_44">
    <defs>
     <path d="M 0 6 
C 1.591219 6 3.117479 5.367802 4.242641 4.242641 
C 5.367802 3.117479 6 1.591219 6 0 
C 6 -1.591219 5.367802 -3.117479 4.242641 -4.242641 
C 3.117479 -5.367802 1.591219 -6 0 -6 
C -1.591219 -6 -3.117479 -5.367802 -4.242641 -4.242641 
C -5.367802 -3.117479 -6 -1.591219 -6 0 
C -6 1.591219 -5.367802 3.117479 -4.242641 4.242641 
C -3.117479 5.367802 -1.591219 6 0 6 
z
" id="m891be2a129" style="stroke:#000080;stroke-width:1.5;"/>
    </defs>
    <g>
     <use style="fill:none;stroke:#000080;stroke-width:1.5;" x="77.653281" xlink:href="#m891be2a129" y="267.619119"/>
     <use style="fill:none;stroke:#000080;stroke-width:1.5;" x="153.187846" xlink:href="#m891be2a129" y="248.746201"/>
     <use style="fill:none;stroke:#000080;stroke-width:1.5;" x="227.82039" xlink:href="#m891be2a129" y="229.349035"/>
     <use style="fill:none;stroke:#000080;stroke-width:1.5;" x="241.768677" xlink:href="#m891be2a129" y="227.252044"/>
     <use style="fill:none;stroke:#000080;stroke-width:1.5;" x="241.768677" xlink:href="#m891be2a129" y="226.727797"/>
     <use style="fill:none;stroke:#000080;stroke-width:1.5;" x="333.168" xlink:href="#m891be2a129" y="226.727797"/>
    </g>
   </g>
   <g id="line2d_45">
    <path style="fill:none;stroke:#000080;stroke-linecap:square;stroke-width:1.5;"/>
    <g/>
   </g>
   <g id="line2d_46">
    <path clip-path="url(#pce65f7eae9)" d="M 183.358008 242.979476 
" style="fill:none;stroke:#000080;stroke-linecap:square;stroke-width:1.5;"/>
    <defs>
     <path d="M -12 12 
L 12 -12 
M -12 -12 
L 12 12 
" id="m34608ed80d" style="stroke:#000080;"/>
    </defs>
    <g clip-path="url(#pce65f7eae9)">
     <use style="fill:#000080;stroke:#000080;" x="183.358008" xlink:href="#m34608ed80d" y="242.979476"/>
    </g>
   </g>
   <g id="line2d_47">
    <defs>
     <path d="M 0 1.5 
C 0.397805 1.5 0.77937 1.341951 1.06066 1.06066 
C 1.341951 0.77937 1.5 0.397805 1.5 0 
C 1.5 -0.397805 1.341951 -0.77937 1.06066 -1.06066 
C 0.77937 -1.341951 0.397805 -1.5 0 -1.5 
C -0.397805 -1.5 -0.77937 -1.341951 -1.06066 -1.06066 
C -1.341951 -0.77937 -1.5 -0.397805 -1.5 0 
C -1.5 0.397805 -1.341951 0.77937 -1.06066 1.06066 
C -0.77937 1.341951 -0.397805 1.5 0 1.5 
z
" id="mca6d064b34" style="stroke:#ff00ff;"/>
    </defs>
    <g>
     <use style="fill:#ff00ff;stroke:#ff00ff;" x="219.033158" xlink:href="#mca6d064b34" y="27.513663"/>
     <use style="fill:#ff00ff;stroke:#ff00ff;" x="219.033158" xlink:href="#mca6d064b34" y="27.513663"/>
    </g>
   </g>
   <g id="line2d_48">
    <path d="M 44.205749 294.88 
L 44.205749 281.773807 
L 56.12 281.773807 
L 56.12 278.628321 
L 63.08939 278.628321 
L 63.08939 277.055578 
L 68.034251 277.055578 
L 68.034251 274.958587 
L 71.869783 274.958587 
L 71.869783 274.434339 
L 75.003641 274.434339 
L 75.003641 272.337348 
L 77.653281 272.337348 
L 77.653281 270.240357 
L 81.973032 270.240357 
L 81.973032 268.143366 
L 83.784035 268.143366 
L 83.784035 267.619119 
L 85.422286 267.619119 
L 85.422286 267.094871 
L 88.293717 267.094871 
L 88.293717 266.570623 
L 90.753425 266.570623 
L 90.753425 265.522128 
L 94.816624 265.522128 
L 94.816624 264.473632 
L 96.536922 264.473632 
L 96.536922 263.949385 
L 97.336537 263.949385 
L 97.336537 263.425137 
L 98.100602 263.425137 
L 98.100602 262.900889 
L 99.533818 262.900889 
L 99.533818 262.376641 
L 100.207968 262.376641 
L 100.207968 261.852394 
L 104.819059 261.852394 
L 104.819059 261.328146 
L 105.317315 261.328146 
L 105.317315 260.279651 
L 106.730875 260.279651 
L 106.730875 259.755403 
L 107.177358 259.755403 
L 107.177358 259.231155 
L 108.036969 259.231155 
L 108.036969 258.706907 
L 108.451173 258.706907 
L 108.451173 258.18266 
L 112.449632 258.18266 
L 112.449632 257.658412 
L 115.691256 257.658412 
L 115.691256 256.609917 
L 124.363883 256.609917 
L 124.363883 256.085669 
L 126.207287 256.085669 
L 126.207287 255.561421 
L 126.780294 255.561421 
L 126.780294 255.037173 
L 128.39291 255.037173 
L 128.39291 253.988678 
L 128.647561 253.988678 
L 128.647561 253.46443 
L 128.898495 253.46443 
L 128.898495 251.891687 
L 129.510254 251.891687 
L 129.510254 251.367439 
L 130.784069 251.367439 
L 130.784069 250.843192 
L 131.441039 250.843192 
L 131.441039 250.318944 
L 132.483094 250.318944 
L 132.583907 249.270448 
L 132.684132 249.270448 
L 132.684132 248.746201 
L 135.532486 248.746201 
L 135.532486 248.221953 
L 138.121538 248.221953 
L 138.194217 246.64921 
L 139.653523 246.64921 
L 139.653523 246.124962 
L 141.544287 246.124962 
L 141.544287 245.076467 
L 142.303162 245.076467 
L 142.303162 244.552219 
L 142.530078 244.552219 
L 142.530078 244.027971 
L 143.139078 244.027971 
L 143.139078 243.503724 
L 143.301492 243.503724 
L 143.301492 242.979476 
L 143.779723 242.979476 
L 143.779723 242.455228 
L 143.936221 242.455228 
L 143.936221 241.406733 
L 144.895601 241.406733 
L 144.895601 240.358237 
L 145.332007 240.358237 
L 145.332007 238.785494 
L 146.843566 238.785494 
L 146.843566 238.261246 
L 147.531203 238.261246 
L 147.531203 236.688503 
L 147.988485 236.688503 
L 147.988485 233.018769 
L 148.711478 233.018769 
L 148.711478 232.494521 
L 149.480672 232.494521 
L 149.480672 231.970274 
L 149.741959 231.970274 
L 149.741959 231.446026 
L 150.035789 231.446026 
L 150.035789 230.921778 
L 150.922912 230.921778 
L 151.026355 229.873283 
L 151.129178 229.873283 
L 151.163317 228.824787 
L 151.265327 228.824787 
L 151.265327 228.30054 
L 151.766488 228.30054 
L 151.766488 227.776292 
L 152.124937 227.776292 
L 152.157156 226.203549 
L 152.507631 226.203549 
L 152.601988 224.630806 
L 152.69583 224.630806 
L 152.69583 224.106558 
L 152.912822 224.106558 
L 153.004986 221.485319 
L 153.066156 221.485319 
L 153.066156 220.961072 
L 153.187846 220.961072 
L 153.187846 219.388328 
L 153.428671 219.388328 
L 153.428671 218.864081 
L 153.577492 218.864081 
L 153.577492 218.339833 
L 153.754391 218.339833 
L 153.812956 216.76709 
L 153.871321 216.76709 
L 153.90043 215.194347 
L 153.987461 215.194347 
L 154.016374 213.097356 
L 154.131541 213.097356 
L 154.131541 212.573108 
L 154.998849 212.573108 
L 154.998849 211.524613 
L 155.269542 211.524613 
L 155.269542 208.903374 
L 155.562461 208.903374 
L 155.615187 207.854879 
L 156.108178 207.854879 
L 156.159258 206.282136 
L 156.311596 206.282136 
L 156.362076 205.23364 
L 156.512635 205.23364 
L 156.587422 203.136649 
L 156.858892 203.136649 
L 156.956555 198.942667 
L 157.246258 198.942667 
L 157.246258 198.41842 
L 157.365541 198.41842 
L 157.460375 195.272933 
L 157.554689 195.272933 
L 157.554689 194.748686 
L 157.695196 194.748686 
L 157.695196 194.224438 
L 157.811415 194.224438 
L 157.811415 192.651695 
L 158.064362 192.651695 
L 158.064362 192.127447 
L 158.178119 192.127447 
L 158.178119 191.603199 
L 158.291129 191.603199 
L 158.291129 191.078952 
L 158.448103 191.078952 
L 158.470412 188.981961 
L 158.647844 188.981961 
L 158.713912 187.933465 
L 158.779727 187.933465 
L 158.779727 186.88497 
L 158.910606 186.88497 
L 159.018915 184.787979 
L 159.126546 184.787979 
L 159.126546 183.215236 
L 159.25482 183.215236 
L 159.276106 182.16674 
L 159.424376 182.16674 
L 159.508531 179.021254 
L 159.571378 179.021254 
L 159.613149 176.924263 
L 159.820493 176.924263 
L 159.923235 173.254529 
L 160.147128 173.254529 
L 160.227826 171.681786 
L 160.268033 171.681786 
L 160.288102 169.584795 
L 160.487508 169.584795 
L 160.487508 168.5363 
L 160.606051 168.5363 
L 160.665017 166.439309 
L 160.801823 166.439309 
L 160.879512 164.342318 
L 160.918225 164.342318 
L 160.976132 163.293823 
L 161.091363 163.293823 
L 161.091363 162.769575 
L 161.224831 162.769575 
L 161.281716 161.196832 
L 161.376107 161.196832 
L 161.469983 159.099841 
L 161.488697 159.099841 
L 161.488697 157.527098 
L 161.637678 157.527098 
L 161.711688 155.430107 
L 161.78538 155.430107 
L 161.822107 153.857364 
L 162.004579 153.857364 
L 162.095093 150.18763 
L 162.238932 150.18763 
L 162.346026 148.090639 
L 162.399325 148.090639 
L 162.399325 147.566391 
L 162.593349 147.566391 
L 162.593349 147.042143 
L 162.819862 147.042143 
L 162.923409 142.323914 
L 163.094612 142.323914 
L 163.094612 140.751171 
L 163.24725 140.751171 
L 163.24725 139.178427 
L 163.398544 139.178427 
L 163.398544 138.65418 
L 163.614756 138.65418 
L 163.614756 137.081437 
L 163.811951 137.081437 
L 163.811951 136.032941 
L 164.055305 136.032941 
L 164.135664 134.460198 
L 164.215648 134.460198 
L 164.215648 133.93595 
L 164.437645 133.93595 
L 164.547577 131.838959 
L 164.641248 131.838959 
L 164.74989 129.741969 
L 164.811664 129.741969 
L 164.903911 126.072235 
L 165.071755 126.072235 
L 165.14751 125.023739 
L 165.491743 125.023739 
L 165.565672 122.4025 
L 165.741817 122.4025 
L 165.800133 118.732766 
L 166.017073 118.732766 
L 166.017073 118.208519 
L 166.344485 118.208519 
L 166.344485 117.684271 
L 166.484916 117.684271 
L 166.568627 116.635776 
L 166.693434 116.635776 
L 166.803618 115.063032 
L 167.116518 115.063032 
L 167.116518 114.538785 
L 167.250805 114.538785 
L 167.304227 113.490289 
L 167.410577 113.490289 
L 167.516272 112.441794 
L 169.932899 112.441794 
L 169.932899 111.917546 
L 170.21664 111.917546 
L 170.21664 111.393298 
L 170.340017 111.393298 
L 170.340017 109.820555 
L 170.94396 109.820555 
L 170.94396 109.296308 
L 171.433273 109.296308 
L 171.433273 108.247812 
L 172.172241 108.247812 
L 172.172241 107.723564 
L 172.352124 107.723564 
L 172.431472 105.626573 
L 173.053401 105.626573 
L 173.053401 104.578078 
L 173.243227 104.578078 
L 173.299769 103.005335 
L 174.099384 103.005335 
L 174.162133 100.908344 
L 174.481271 100.908344 
L 174.481271 100.384096 
L 174.647346 100.384096 
L 174.647346 99.859849 
L 174.923475 99.859849 
L 174.923475 98.811353 
L 175.085351 98.811353 
L 175.153056 97.762858 
L 175.254117 97.762858 
L 175.254117 97.23861 
L 175.512472 97.23861 
L 175.512472 96.714362 
L 175.644313 96.714362 
L 175.644313 96.190115 
L 189.624996 96.190115 
L 189.624996 95.665867 
L 190.313418 95.665867 
L 190.344858 94.617371 
L 190.563338 94.617371 
L 190.614951 93.568876 
L 190.755239 93.568876 
L 190.755239 93.044628 
L 190.877482 93.044628 
L 190.877482 92.520381 
L 191.059231 92.520381 
L 191.059231 91.996133 
L 191.222505 91.996133 
L 191.331598 89.899142 
L 191.377671 89.899142 
L 191.472718 87.802151 
L 191.498845 87.802151 
L 191.573741 86.753656 
L 191.658015 86.753656 
L 191.658015 86.229408 
L 191.793283 86.229408 
L 191.809316 85.180912 
L 191.937042 85.180912 
L 191.937042 84.656665 
L 192.123722 84.656665 
L 192.230387 83.083922 
L 192.23664 83.083922 
L 192.333285 81.511178 
L 192.404639 81.511178 
L 192.50958 78.88994 
L 192.674945 78.88994 
L 192.674945 78.365692 
L 192.874921 78.365692 
L 192.929058 77.317197 
L 193.045774 77.317197 
L 193.120178 76.268701 
L 193.353197 76.268701 
L 193.379545 75.220206 
L 193.496157 75.220206 
L 193.591771 73.647463 
L 193.672482 73.647463 
L 193.764262 72.074719 
L 193.809969 72.074719 
L 193.883984 71.026224 
L 193.952025 71.026224 
L 194.019797 68.929233 
L 194.196437 68.929233 
L 194.213165 67.880738 
L 194.407139 67.880738 
L 194.440173 66.307995 
L 194.563487 66.307995 
L 194.563487 65.783747 
L 194.802109 65.783747 
L 194.829017 64.735251 
L 194.954922 64.735251 
L 195.042775 63.686756 
L 195.08521 63.686756 
L 195.185574 62.638261 
L 195.295825 62.638261 
L 195.295825 62.114013 
L 195.446924 62.114013 
L 195.529723 59.492774 
L 195.957995 59.492774 
L 195.957995 58.968526 
L 196.43228 58.968526 
L 196.43228 58.444279 
L 196.61742 58.444279 
L 196.61742 57.920031 
L 197.546507 57.920031 
L 197.546507 57.395783 
L 199.070019 57.395783 
L 199.088916 56.347288 
L 199.231023 56.347288 
L 199.231023 55.82304 
L 199.536314 55.82304 
L 199.577156 54.250297 
L 199.672756 54.250297 
L 199.76581 53.201802 
L 199.802086 53.201802 
L 199.844311 52.153306 
L 200.018147 52.153306 
L 200.018147 51.629058 
L 200.257032 51.629058 
L 200.313796 49.532068 
L 200.370373 49.532068 
L 200.370373 49.00782 
L 200.95251 49.00782 
L 200.95251 48.483572 
L 202.080187 48.483572 
L 202.080187 47.959324 
L 202.489646 47.959324 
L 202.489646 47.435077 
L 202.618298 47.435077 
L 202.69673 46.386581 
L 203.113526 46.386581 
L 203.113526 45.862334 
L 203.280416 45.862334 
L 203.368983 44.28959 
L 203.470112 44.28959 
L 203.470112 43.765343 
L 203.586811 43.765343 
L 203.586811 43.241095 
L 203.832195 43.241095 
L 203.930643 41.144104 
L 203.96228 41.144104 
L 203.998591 40.095609 
L 204.136817 40.095609 
L 204.136817 39.571361 
L 204.495991 39.571361 
L 204.495991 39.047113 
L 204.637889 39.047113 
L 204.637889 38.522865 
L 205.188164 38.522865 
L 205.188164 37.998618 
L 206.747301 37.998618 
L 206.747301 37.47437 
L 207.164224 37.47437 
L 207.164224 36.950122 
L 208.142034 36.950122 
L 208.146991 35.901627 
L 208.47099 35.901627 
L 208.47099 35.377379 
L 208.825953 35.377379 
L 208.825953 34.853131 
L 208.941087 34.853131 
L 208.941087 34.328884 
L 209.108253 34.328884 
L 209.108253 33.804636 
L 209.647965 33.804636 
L 209.647965 33.280388 
L 210.172346 33.280388 
L 210.172346 32.756141 
L 210.49741 32.756141 
L 210.531954 31.707645 
L 210.921131 31.707645 
L 210.921131 31.183397 
L 212.572412 31.183397 
L 212.572412 30.65915 
L 213.29629 30.65915 
L 213.29629 30.134902 
L 213.589435 30.134902 
L 213.625504 29.086407 
L 215.890749 29.086407 
L 215.890749 28.562159 
L 216.521723 28.562159 
L 216.521723 28.037911 
L 219.033158 28.037911 
L 219.033158 27.513663 
L 333.168 27.513663 
L 333.168 27.513663 
" style="fill:none;stroke:#ff00ff;stroke-linecap:square;stroke-width:1.5;"/>
   </g>
   <g id="line2d_49">
    <defs>
     <path d="M -0 8.485281 
L 5.091169 0 
L 0 -8.485281 
L -5.091169 -0 
z
" id="m057bd748ad" style="stroke:#ff00ff;stroke-linejoin:miter;stroke-width:1.5;"/>
    </defs>
    <g>
     <use style="fill:none;stroke:#ff00ff;stroke-linejoin:miter;stroke-width:1.5;" x="153.066156" xlink:href="#m057bd748ad" y="220.961072"/>
     <use style="fill:none;stroke:#ff00ff;stroke-linejoin:miter;stroke-width:1.5;" x="175.644313" xlink:href="#m057bd748ad" y="96.714362"/>
     <use style="fill:none;stroke:#ff00ff;stroke-linejoin:miter;stroke-width:1.5;" x="219.033158" xlink:href="#m057bd748ad" y="28.037911"/>
     <use style="fill:none;stroke:#ff00ff;stroke-linejoin:miter;stroke-width:1.5;" x="219.033158" xlink:href="#m057bd748ad" y="27.513663"/>
     <use style="fill:none;stroke:#ff00ff;stroke-linejoin:miter;stroke-width:1.5;" x="219.033158" xlink:href="#m057bd748ad" y="27.513663"/>
     <use style="fill:none;stroke:#ff00ff;stroke-linejoin:miter;stroke-width:1.5;" x="333.168" xlink:href="#m057bd748ad" y="27.513663"/>
    </g>
   </g>
   <g id="line2d_50">
    <path style="fill:none;stroke:#ff00ff;stroke-linecap:square;stroke-width:1.5;"/>
    <g/>
   </g>
   <g id="line2d_51">
    <path clip-path="url(#pce65f7eae9)" d="M 190.604641 94.093124 
" style="fill:none;stroke:#ff00ff;stroke-linecap:square;stroke-width:1.5;"/>
    <defs>
     <path d="M -12 12 
L 12 -12 
M -12 -12 
L 12 12 
" id="mec4418689e" style="stroke:#ff00ff;"/>
    </defs>
    <g clip-path="url(#pce65f7eae9)">
     <use style="fill:#ff00ff;stroke:#ff00ff;" x="190.604641" xlink:href="#mec4418689e" y="94.093124"/>
    </g>
   </g>
   <g id="line2d_52">
    <defs>
     <path d="M 0 1.5 
C 0.397805 1.5 0.77937 1.341951 1.06066 1.06066 
C 1.341951 0.77937 1.5 0.397805 1.5 0 
C 1.5 -0.397805 1.341951 -0.77937 1.06066 -1.06066 
C 0.77937 -1.341951 0.397805 -1.5 0 -1.5 
C -0.397805 -1.5 -0.77937 -1.341951 -1.06066 -1.06066 
C -1.341951 -0.77937 -1.5 -0.397805 -1.5 0 
C -1.5 0.397805 -1.341951 0.77937 -1.06066 1.06066 
C -0.77937 1.341951 -0.397805 1.5 0 1.5 
z
" id="m61df3dcfd8" style="stroke:#ff7500;"/>
    </defs>
    <g>
     <use style="fill:#ff7500;stroke:#ff7500;" x="198.22613" xlink:href="#m61df3dcfd8" y="27.513663"/>
     <use style="fill:#ff7500;stroke:#ff7500;" x="198.22613" xlink:href="#m61df3dcfd8" y="27.513663"/>
    </g>
   </g>
   <g id="line2d_53">
    <path d="M 44.205749 294.88 
L 44.205749 284.395046 
L 56.12 284.395046 
L 56.12 279.152568 
L 63.08939 279.152568 
L 63.08939 276.53133 
L 68.034251 276.53133 
L 68.034251 274.434339 
L 71.869783 274.434339 
L 71.869783 272.337348 
L 75.003641 272.337348 
L 75.003641 269.716109 
L 77.653281 269.716109 
L 77.653281 267.619119 
L 79.948502 267.619119 
L 79.948502 267.094871 
L 85.422286 267.094871 
L 85.422286 266.570623 
L 86.917893 266.570623 
L 86.917893 265.522128 
L 88.293717 265.522128 
L 88.293717 264.473632 
L 90.753425 264.473632 
L 90.753425 262.900889 
L 93.887283 262.900889 
L 93.887283 261.852394 
L 94.816624 261.852394 
L 94.816624 261.328146 
L 97.336537 261.328146 
L 97.336537 260.803898 
L 98.100602 260.803898 
L 98.100602 259.231155 
L 99.533818 259.231155 
L 99.533818 257.134164 
L 103.777005 257.134164 
L 103.777005 256.609917 
L 104.305927 256.609917 
L 104.305927 255.037173 
L 106.730875 255.037173 
L 106.730875 254.512926 
L 108.036969 254.512926 
L 108.036969 252.940182 
L 108.85563 252.940182 
L 108.85563 252.415935 
L 109.637066 252.415935 
L 109.637066 251.891687 
L 120.568842 251.891687 
L 120.568842 251.367439 
L 122.298767 251.367439 
L 122.298767 250.843192 
L 128.898495 250.843192 
L 128.898495 250.318944 
L 132.583907 250.318944 
L 132.583907 249.270448 
L 137.377325 249.270448 
L 137.377325 248.746201 
L 141.603867 248.746201 
L 141.603867 248.221953 
L 142.18857 248.221953 
L 142.18857 247.697705 
L 142.360172 247.697705 
L 142.360172 247.173458 
L 146.39939 247.173458 
L 146.39939 246.64921 
L 146.799661 246.64921 
L 146.799661 246.124962 
L 147.740567 246.124962 
L 147.740567 245.600714 
L 148.593071 245.600714 
L 148.593071 244.552219 
L 149.138788 244.552219 
L 149.138788 244.027971 
L 150.108469 244.027971 
L 150.108469 243.503724 
L 150.252912 243.503724 
L 150.252912 242.455228 
L 150.818844 242.455228 
L 150.818844 241.93098 
L 151.962932 241.93098 
L 151.962932 240.882485 
L 153.157504 240.882485 
L 153.157504 238.785494 
L 155.269542 238.785494 
L 155.269542 238.261246 
L 155.536037 238.261246 
L 155.588844 235.640008 
L 157.484002 235.640008 
L 157.484002 235.11576 
L 157.625086 235.11576 
L 157.625086 233.543017 
L 157.765022 233.543017 
L 157.765022 233.018769 
L 158.246014 233.018769 
L 158.291129 231.970274 
L 158.381004 231.970274 
L 158.448103 230.921778 
L 158.514942 230.921778 
L 158.603658 229.873283 
L 159.018915 229.873283 
L 159.126546 228.824787 
L 159.25482 228.824787 
L 159.25482 228.30054 
L 159.613149 228.30054 
L 159.717134 226.203549 
L 159.841091 226.203549 
L 159.841091 225.679301 
L 160.126894 225.679301 
L 160.126894 225.155053 
L 160.645384 225.155053 
L 160.645384 224.630806 
L 161.469983 224.630806 
L 161.544716 223.58231 
L 161.711688 223.58231 
L 161.711688 223.058063 
L 162.292562 223.058063 
L 162.292562 222.533815 
L 163.179578 222.533815 
L 163.179578 220.961072 
L 163.581669 220.961072 
L 163.68074 219.912576 
L 163.990747 219.912576 
L 163.990747 215.194347 
L 164.625672 215.194347 
L 164.625672 214.670099 
L 164.796241 214.670099 
L 164.796241 214.145851 
L 165.402605 214.145851 
L 165.402605 213.621604 
L 165.973903 213.621604 
L 166.017073 212.573108 
L 166.330379 212.573108 
L 166.35858 211.524613 
L 166.470924 211.524613 
L 166.470924 211.000365 
L 166.665777 211.000365 
L 166.693434 209.95187 
L 166.803618 209.95187 
L 166.803618 209.427622 
L 167.224031 209.427622 
L 167.277537 208.379126 
L 167.881169 208.379126 
L 167.881169 207.854879 
L 168.098993 207.854879 
L 168.098993 206.806383 
L 168.748641 206.806383 
L 168.748641 206.282136 
L 168.967918 206.282136 
L 168.967918 205.757888 
L 169.267901 205.757888 
L 169.327275 202.612401 
L 170.227893 202.612401 
L 170.227893 201.563906 
L 170.528966 201.563906 
L 170.528966 200.515411 
L 170.726792 200.515411 
L 170.726792 199.991163 
L 171.548248 199.991163 
L 171.652107 198.942667 
L 171.82724 198.942667 
L 171.909042 196.845677 
L 171.959971 196.845677 
L 172.051265 194.748686 
L 172.172241 194.748686 
L 172.172241 194.224438 
L 172.706339 194.224438 
L 172.813131 193.175943 
L 173.252664 193.175943 
L 173.252664 192.651695 
L 173.644391 192.651695 
L 173.718004 191.603199 
L 173.827836 191.603199 
L 173.827836 190.554704 
L 174.099384 190.554704 
L 174.135269 189.506209 
L 174.269172 189.506209 
L 174.269172 188.457713 
L 174.446102 188.457713 
L 174.446102 187.933465 
L 174.820445 187.933465 
L 174.8892 186.88497 
L 175.186809 186.88497 
L 175.195237 185.836474 
L 175.396276 185.836474 
L 175.396276 184.787979 
L 175.570277 184.787979 
L 175.677115 183.215236 
L 175.9615 183.215236 
L 175.993704 182.16674 
L 176.161789 182.16674 
L 176.185668 181.118245 
L 176.571062 181.118245 
L 176.571062 180.593997 
L 177.016348 180.593997 
L 177.016348 180.06975 
L 178.152655 180.06975 
L 178.188088 179.021254 
L 178.510692 179.021254 
L 178.552327 176.924263 
L 178.711003 176.924263 
L 178.711003 176.400016 
L 179.010536 176.400016 
L 179.010536 175.875768 
L 179.185109 175.875768 
L 179.245128 174.303025 
L 179.548658 174.303025 
L 179.594382 172.206034 
L 179.685465 172.206034 
L 179.7114 170.633291 
L 179.879032 170.633291 
L 179.879032 169.584795 
L 180.013244 169.584795 
L 180.013244 168.5363 
L 180.184277 168.5363 
L 180.284832 165.915061 
L 180.309879 165.915061 
L 180.403483 162.245327 
L 180.502767 162.245327 
L 180.595329 161.196832 
L 180.656761 161.196832 
L 180.766788 159.099841 
L 180.77288 159.099841 
L 180.77288 158.051345 
L 180.96067 158.051345 
L 181.04481 157.00285 
L 181.07476 157.00285 
L 181.158345 155.430107 
L 181.253376 155.430107 
L 181.294787 153.333116 
L 181.365547 153.333116 
L 181.465293 151.760373 
L 181.506198 151.760373 
L 181.506198 150.711877 
L 181.892865 150.711877 
L 181.955524 149.139134 
L 182.271024 149.139134 
L 182.343444 144.420905 
L 182.43216 144.420905 
L 182.43216 143.896657 
L 182.564381 143.896657 
L 182.580837 142.848162 
L 182.782514 142.848162 
L 182.804176 140.751171 
L 182.917454 140.751171 
L 182.997913 138.129932 
L 183.072669 138.129932 
L 183.072669 137.081437 
L 183.237054 137.081437 
L 183.337034 136.032941 
L 183.441651 136.032941 
L 183.530079 134.984446 
L 183.741491 134.984446 
L 183.741491 133.411703 
L 183.879307 133.411703 
L 183.879307 131.838959 
L 184.296174 131.838959 
L 184.345723 129.217721 
L 184.473886 129.217721 
L 184.473886 128.169225 
L 184.644919 128.169225 
L 184.746728 125.547987 
L 184.895923 125.547987 
L 184.962879 123.450996 
L 185.062827 123.450996 
L 185.143314 120.30551 
L 185.204609 120.30551 
L 185.204609 119.781262 
L 185.354566 119.781262 
L 185.354566 119.257014 
L 185.480082 119.257014 
L 185.586284 116.635776 
L 185.814921 116.635776 
L 185.873871 115.58728 
L 185.995665 115.58728 
L 185.995665 115.063032 
L 186.192313 115.063032 
L 186.192313 112.966042 
L 186.347147 112.966042 
L 186.426236 111.917546 
L 186.57464 111.917546 
L 186.665666 108.77206 
L 186.859113 108.77206 
L 186.859113 108.247812 
L 187.38946 108.247812 
L 187.406031 106.150821 
L 187.525698 106.150821 
L 187.525698 105.102326 
L 187.697545 105.102326 
L 187.697545 104.578078 
L 188.274023 104.578078 
L 188.274023 104.05383 
L 188.403453 104.05383 
L 188.454174 102.481087 
L 188.547422 102.481087 
L 188.547422 101.956839 
L 188.667123 101.956839 
L 188.755398 99.335601 
L 188.782175 99.335601 
L 188.885067 97.762858 
L 188.930599 97.762858 
L 188.994898 96.714362 
L 189.043907 96.714362 
L 189.130272 94.617371 
L 189.160211 94.617371 
L 189.249716 92.520381 
L 189.279448 92.520381 
L 189.342457 89.899142 
L 189.394175 89.899142 
L 189.419975 88.850646 
L 189.508141 88.850646 
L 189.610433 85.70516 
L 189.624996 85.70516 
L 189.624996 85.180912 
L 189.755516 85.180912 
L 189.85276 80.986931 
L 189.888636 80.986931 
L 189.978003 78.365692 
L 190.013619 78.365692 
L 190.120029 75.220206 
L 190.127099 75.220206 
L 190.222269 73.647463 
L 190.341367 73.647463 
L 190.421468 71.550472 
L 190.673258 71.550472 
L 190.779076 69.453481 
L 191.092679 69.453481 
L 191.106039 68.404985 
L 192.085917 68.404985 
L 192.085917 67.35649 
L 192.202216 67.35649 
L 192.202216 66.832242 
L 192.376753 66.832242 
L 192.376753 66.307995 
L 192.494188 66.307995 
L 192.549536 65.259499 
L 192.62 65.259499 
L 192.729715 63.162508 
L 192.938065 63.162508 
L 193.030855 61.065517 
L 193.051738 61.065517 
L 193.152813 60.017022 
L 193.170589 60.017022 
L 193.262136 57.920031 
L 193.347337 57.920031 
L 193.347337 56.871536 
L 193.548376 56.871536 
L 193.611984 55.82304 
L 193.675358 55.82304 
L 193.761401 54.250297 
L 193.835626 54.250297 
L 193.835626 53.726049 
L 195.791016 53.726049 
L 195.851924 52.677554 
L 195.917664 52.677554 
L 196.02584 51.629058 
L 196.068421 51.629058 
L 196.165708 47.435077 
L 196.483637 47.435077 
L 196.549443 45.338086 
L 196.61015 45.338086 
L 196.697193 42.716847 
L 196.908129 42.716847 
L 196.915274 40.619856 
L 197.081166 40.619856 
L 197.130623 39.571361 
L 197.257149 39.571361 
L 197.34563 36.950122 
L 197.472894 36.950122 
L 197.544211 35.901627 
L 197.638082 35.901627 
L 197.747332 33.804636 
L 197.765473 33.804636 
L 197.869414 32.231893 
L 197.916657 32.231893 
L 197.986161 30.65915 
L 198.033085 30.65915 
L 198.133206 28.562159 
L 198.155377 28.562159 
L 198.22613 27.513663 
L 333.168 27.513663 
L 333.168 27.513663 
" style="fill:none;stroke:#ff7500;stroke-linecap:square;stroke-width:1.5;"/>
   </g>
   <g id="line2d_54">
    <defs>
     <path d="M 0 -6 
L -1.347084 -1.854102 
L -5.706339 -1.854102 
L -2.179628 0.708204 
L -3.526712 4.854102 
L -0 2.291796 
L 3.526712 4.854102 
L 2.179628 0.708204 
L 5.706339 -1.854102 
L 1.347084 -1.854102 
z
" id="mce078e3b60" style="stroke:#ff7500;stroke-linejoin:bevel;stroke-width:1.5;"/>
    </defs>
    <g>
     <use style="fill:none;stroke:#ff7500;stroke-linejoin:bevel;stroke-width:1.5;" x="159.018915" xlink:href="#mce078e3b60" y="229.873283"/>
     <use style="fill:none;stroke:#ff7500;stroke-linejoin:bevel;stroke-width:1.5;" x="188.454174" xlink:href="#mce078e3b60" y="103.529583"/>
     <use style="fill:none;stroke:#ff7500;stroke-linejoin:bevel;stroke-width:1.5;" x="198.22613" xlink:href="#mce078e3b60" y="28.037911"/>
     <use style="fill:none;stroke:#ff7500;stroke-linejoin:bevel;stroke-width:1.5;" x="198.22613" xlink:href="#mce078e3b60" y="27.513663"/>
     <use style="fill:none;stroke:#ff7500;stroke-linejoin:bevel;stroke-width:1.5;" x="198.22613" xlink:href="#mce078e3b60" y="27.513663"/>
     <use style="fill:none;stroke:#ff7500;stroke-linejoin:bevel;stroke-width:1.5;" x="333.168" xlink:href="#mce078e3b60" y="27.513663"/>
    </g>
   </g>
   <g id="line2d_55">
    <path style="fill:none;stroke:#ff7500;stroke-linecap:square;stroke-width:1.5;"/>
    <g/>
   </g>
   <g id="line2d_56">
    <path d="M 333.168 226.727797 
L 363.64328 289.532673 
" style="fill:none;stroke:#000080;stroke-linecap:square;stroke-width:1.5;"/>
    <g>
     <use style="fill:none;stroke:#000080;stroke-width:1.5;" x="333.168" xlink:href="#m891be2a129" y="226.727797"/>
     <use style="fill:none;stroke:#000080;stroke-width:1.5;" x="363.64328" xlink:href="#m891be2a129" y="289.532673"/>
    </g>
   </g>
   <g id="line2d_57">
    <path d="M 333.168 27.513663 
L 363.64328 203.975446 
" style="fill:none;stroke:#ff00ff;stroke-linecap:square;stroke-width:1.5;"/>
    <g>
     <use style="fill:none;stroke:#ff00ff;stroke-linejoin:miter;stroke-width:1.5;" x="333.168" xlink:href="#m057bd748ad" y="27.513663"/>
     <use style="fill:none;stroke:#ff00ff;stroke-linejoin:miter;stroke-width:1.5;" x="363.64328" xlink:href="#m057bd748ad" y="203.975446"/>
    </g>
   </g>
   <g id="line2d_58">
    <path d="M 333.168 27.513663 
L 363.64328 118.418218 
" style="fill:none;stroke:#ff7500;stroke-linecap:square;stroke-width:1.5;"/>
    <g>
     <use style="fill:none;stroke:#ff7500;stroke-linejoin:bevel;stroke-width:1.5;" x="333.168" xlink:href="#mce078e3b60" y="27.513663"/>
     <use style="fill:none;stroke:#ff7500;stroke-linejoin:bevel;stroke-width:1.5;" x="363.64328" xlink:href="#mce078e3b60" y="118.418218"/>
    </g>
   </g>
   <g id="line2d_59">
    <path d="M 333.168 294.88 
L 333.168 27.513663 
" style="fill:none;stroke:#000000;stroke-linecap:square;stroke-width:1.5;"/>
   </g>
   <g id="patch_3">
    <path d="M 56.12 294.88 
L 56.12 24.84 
" style="fill:none;stroke:#000000;stroke-linecap:square;stroke-linejoin:miter;stroke-width:0.8;"/>
   </g>
   <g id="patch_4">
    <path d="M 333.168 294.88 
L 333.168 24.84 
" style="fill:none;stroke:#000000;stroke-linecap:square;stroke-linejoin:miter;stroke-width:0.8;"/>
   </g>
   <g id="patch_5">
    <path d="M 56.12 294.88 
L 333.168 294.88 
" style="fill:none;stroke:#000000;stroke-linecap:square;stroke-linejoin:miter;stroke-width:0.8;"/>
   </g>
   <g id="patch_6">
    <path d="M 56.12 24.84 
L 333.168 24.84 
" style="fill:none;stroke:#000000;stroke-linecap:square;stroke-linejoin:miter;stroke-width:0.8;"/>
   </g>
   <g id="text_13">
    <!-- CMA ES PPM -->
    <defs>
     <path d="M 64.40625 67.28125 
L 64.40625 56.890625 
Q 59.421875 61.53125 53.78125 63.8125 
Q 48.140625 66.109375 41.796875 66.109375 
Q 29.296875 66.109375 22.65625 58.46875 
Q 16.015625 50.828125 16.015625 36.375 
Q 16.015625 21.96875 22.65625 14.328125 
Q 29.296875 6.6875 41.796875 6.6875 
Q 48.140625 6.6875 53.78125 8.984375 
Q 59.421875 11.28125 64.40625 15.921875 
L 64.40625 5.609375 
Q 59.234375 2.09375 53.4375 0.328125 
Q 47.65625 -1.421875 41.21875 -1.421875 
Q 24.65625 -1.421875 15.125 8.703125 
Q 5.609375 18.84375 5.609375 36.375 
Q 5.609375 53.953125 15.125 64.078125 
Q 24.65625 74.21875 41.21875 74.21875 
Q 47.75 74.21875 53.53125 72.484375 
Q 59.328125 70.75 64.40625 67.28125 
z
" id="DejaVuSans-43"/>
     <path d="M 9.8125 72.90625 
L 24.515625 72.90625 
L 43.109375 23.296875 
L 61.8125 72.90625 
L 76.515625 72.90625 
L 76.515625 0 
L 66.890625 0 
L 66.890625 64.015625 
L 48.09375 14.015625 
L 38.1875 14.015625 
L 19.390625 64.015625 
L 19.390625 0 
L 9.8125 0 
z
" id="DejaVuSans-4d"/>
     <path d="M 34.1875 63.1875 
L 20.796875 26.90625 
L 47.609375 26.90625 
z
M 28.609375 72.90625 
L 39.796875 72.90625 
L 67.578125 0 
L 57.328125 0 
L 50.6875 18.703125 
L 17.828125 18.703125 
L 11.1875 0 
L 0.78125 0 
z
" id="DejaVuSans-41"/>
     <path d="M 9.8125 72.90625 
L 55.90625 72.90625 
L 55.90625 64.59375 
L 19.671875 64.59375 
L 19.671875 43.015625 
L 54.390625 43.015625 
L 54.390625 34.71875 
L 19.671875 34.71875 
L 19.671875 8.296875 
L 56.78125 8.296875 
L 56.78125 0 
L 9.8125 0 
z
" id="DejaVuSans-45"/>
     <path d="M 53.515625 70.515625 
L 53.515625 60.890625 
Q 47.90625 63.578125 42.921875 64.890625 
Q 37.9375 66.21875 33.296875 66.21875 
Q 25.25 66.21875 20.875 63.09375 
Q 16.5 59.96875 16.5 54.203125 
Q 16.5 49.359375 19.40625 46.890625 
Q 22.3125 44.4375 30.421875 42.921875 
L 36.375 41.703125 
Q 47.40625 39.59375 52.65625 34.296875 
Q 57.90625 29 57.90625 20.125 
Q 57.90625 9.515625 50.796875 4.046875 
Q 43.703125 -1.421875 29.984375 -1.421875 
Q 24.8125 -1.421875 18.96875 -0.25 
Q 13.140625 0.921875 6.890625 3.21875 
L 6.890625 13.375 
Q 12.890625 10.015625 18.65625 8.296875 
Q 24.421875 6.59375 29.984375 6.59375 
Q 38.421875 6.59375 43.015625 9.90625 
Q 47.609375 13.234375 47.609375 19.390625 
Q 47.609375 24.75 44.3125 27.78125 
Q 41.015625 30.8125 33.5 32.328125 
L 27.484375 33.5 
Q 16.453125 35.6875 11.515625 40.375 
Q 6.59375 45.0625 6.59375 53.421875 
Q 6.59375 63.09375 13.40625 68.65625 
Q 20.21875 74.21875 32.171875 74.21875 
Q 37.3125 74.21875 42.625 73.28125 
Q 47.953125 72.359375 53.515625 70.515625 
z
" id="DejaVuSans-53"/>
     <path d="M 19.671875 64.796875 
L 19.671875 37.40625 
L 32.078125 37.40625 
Q 38.96875 37.40625 42.71875 40.96875 
Q 46.484375 44.53125 46.484375 51.125 
Q 46.484375 57.671875 42.71875 61.234375 
Q 38.96875 64.796875 32.078125 64.796875 
z
M 9.8125 72.90625 
L 32.078125 72.90625 
Q 44.34375 72.90625 50.609375 67.359375 
Q 56.890625 61.8125 56.890625 51.125 
Q 56.890625 40.328125 50.609375 34.8125 
Q 44.34375 29.296875 32.078125 29.296875 
L 19.671875 29.296875 
L 19.671875 0 
L 9.8125 0 
z
" id="DejaVuSans-50"/>
    </defs>
    <g transform="translate(369.18424 294.223611)scale(0.17 -0.17)">
     <use xlink:href="#DejaVuSans-43"/>
     <use x="69.824219" xlink:href="#DejaVuSans-4d"/>
     <use x="156.103516" xlink:href="#DejaVuSans-41"/>
     <use x="224.511719" xlink:href="#DejaVuSans-20"/>
     <use x="256.298828" xlink:href="#DejaVuSans-45"/>
     <use x="319.482422" xlink:href="#DejaVuSans-53"/>
     <use x="382.958984" xlink:href="#DejaVuSans-20"/>
     <use x="414.746094" xlink:href="#DejaVuSans-50"/>
     <use x="475.048828" xlink:href="#DejaVuSans-50"/>
     <use x="535.351562" xlink:href="#DejaVuSans-4d"/>
    </g>
   </g>
   <g id="text_14">
    <!-- CMA ES CSA -->
    <g transform="translate(369.18424 208.666383)scale(0.17 -0.17)">
     <use xlink:href="#DejaVuSans-43"/>
     <use x="69.824219" xlink:href="#DejaVuSans-4d"/>
     <use x="156.103516" xlink:href="#DejaVuSans-41"/>
     <use x="224.511719" xlink:href="#DejaVuSans-20"/>
     <use x="256.298828" xlink:href="#DejaVuSans-45"/>
     <use x="319.482422" xlink:href="#DejaVuSans-53"/>
     <use x="382.958984" xlink:href="#DejaVuSans-20"/>
     <use x="414.746094" xlink:href="#DejaVuSans-43"/>
     <use x="484.570312" xlink:href="#DejaVuSans-53"/>
     <use x="548.0625" xlink:href="#DejaVuSans-41"/>
    </g>
   </g>
   <g id="text_15">
    <!-- CMAES posi -->
    <g transform="translate(369.18424 123.109155)scale(0.17 -0.17)">
     <use xlink:href="#DejaVuSans-43"/>
     <use x="69.824219" xlink:href="#DejaVuSans-4d"/>
     <use x="156.103516" xlink:href="#DejaVuSans-41"/>
     <use x="224.511719" xlink:href="#DejaVuSans-45"/>
     <use x="287.695312" xlink:href="#DejaVuSans-53"/>
     <use x="351.171875" xlink:href="#DejaVuSans-20"/>
     <use x="382.958984" xlink:href="#DejaVuSans-70"/>
     <use x="446.435547" xlink:href="#DejaVuSans-6f"/>
     <use x="507.617188" xlink:href="#DejaVuSans-73"/>
     <use x="559.716797" xlink:href="#DejaVuSans-69"/>
    </g>
   </g>
   <g id="text_16">
    <!-- best 2009 -->
    <defs>
     <path d="M 48.6875 27.296875 
Q 48.6875 37.203125 44.609375 42.84375 
Q 40.53125 48.484375 33.40625 48.484375 
Q 26.265625 48.484375 22.1875 42.84375 
Q 18.109375 37.203125 18.109375 27.296875 
Q 18.109375 17.390625 22.1875 11.75 
Q 26.265625 6.109375 33.40625 6.109375 
Q 40.53125 6.109375 44.609375 11.75 
Q 48.6875 17.390625 48.6875 27.296875 
z
M 18.109375 46.390625 
Q 20.953125 51.265625 25.265625 53.625 
Q 29.59375 56 35.59375 56 
Q 45.5625 56 51.78125 48.09375 
Q 58.015625 40.1875 58.015625 27.296875 
Q 58.015625 14.40625 51.78125 6.484375 
Q 45.5625 -1.421875 35.59375 -1.421875 
Q 29.59375 -1.421875 25.265625 0.953125 
Q 20.953125 3.328125 18.109375 8.203125 
L 18.109375 0 
L 9.078125 0 
L 9.078125 75.984375 
L 18.109375 75.984375 
z
" id="DejaVuSans-62"/>
     <path d="M 10.984375 1.515625 
L 10.984375 10.5 
Q 14.703125 8.734375 18.5 7.8125 
Q 22.3125 6.890625 25.984375 6.890625 
Q 35.75 6.890625 40.890625 13.453125 
Q 46.046875 20.015625 46.78125 33.40625 
Q 43.953125 29.203125 39.59375 26.953125 
Q 35.25 24.703125 29.984375 24.703125 
Q 19.046875 24.703125 12.671875 31.3125 
Q 6.296875 37.9375 6.296875 49.421875 
Q 6.296875 60.640625 12.9375 67.421875 
Q 19.578125 74.21875 30.609375 74.21875 
Q 43.265625 74.21875 49.921875 64.515625 
Q 56.59375 54.828125 56.59375 36.375 
Q 56.59375 19.140625 48.40625 8.859375 
Q 40.234375 -1.421875 26.421875 -1.421875 
Q 22.703125 -1.421875 18.890625 -0.6875 
Q 15.09375 0.046875 10.984375 1.515625 
z
M 30.609375 32.421875 
Q 37.25 32.421875 41.125 36.953125 
Q 45.015625 41.5 45.015625 49.421875 
Q 45.015625 57.28125 41.125 61.84375 
Q 37.25 66.40625 30.609375 66.40625 
Q 23.96875 66.40625 20.09375 61.84375 
Q 16.21875 57.28125 16.21875 49.421875 
Q 16.21875 41.5 20.09375 36.953125 
Q 23.96875 32.421875 30.609375 32.421875 
z
" id="DejaVuSans-39"/>
    </defs>
    <g transform="translate(369.18424 37.551928)scale(0.17 -0.17)">
     <use xlink:href="#DejaVuSans-62"/>
     <use x="63.476562" xlink:href="#DejaVuSans-65"/>
     <use x="125" xlink:href="#DejaVuSans-73"/>
     <use x="177.099609" xlink:href="#DejaVuSans-74"/>
     <use x="216.308594" xlink:href="#DejaVuSans-20"/>
     <use x="248.095703" xlink:href="#DejaVuSans-32"/>
     <use x="311.71875" xlink:href="#DejaVuSans-30"/>
     <use x="375.341797" xlink:href="#DejaVuSans-30"/>
     <use x="438.964844" xlink:href="#DejaVuSans-39"/>
    </g>
   </g>
   <g id="text_17">
    <!-- bbob f23, 2-D -->
    <defs>
     <path d="M 40.578125 39.3125 
Q 47.65625 37.796875 51.625 33 
Q 55.609375 28.21875 55.609375 21.1875 
Q 55.609375 10.40625 48.1875 4.484375 
Q 40.765625 -1.421875 27.09375 -1.421875 
Q 22.515625 -1.421875 17.65625 -0.515625 
Q 12.796875 0.390625 7.625 2.203125 
L 7.625 11.71875 
Q 11.71875 9.328125 16.59375 8.109375 
Q 21.484375 6.890625 26.8125 6.890625 
Q 36.078125 6.890625 40.9375 10.546875 
Q 45.796875 14.203125 45.796875 21.1875 
Q 45.796875 27.640625 41.28125 31.265625 
Q 36.765625 34.90625 28.71875 34.90625 
L 20.21875 34.90625 
L 20.21875 43.015625 
L 29.109375 43.015625 
Q 36.375 43.015625 40.234375 45.921875 
Q 44.09375 48.828125 44.09375 54.296875 
Q 44.09375 59.90625 40.109375 62.90625 
Q 36.140625 65.921875 28.71875 65.921875 
Q 24.65625 65.921875 20.015625 65.03125 
Q 15.375 64.15625 9.8125 62.3125 
L 9.8125 71.09375 
Q 15.4375 72.65625 20.34375 73.4375 
Q 25.25 74.21875 29.59375 74.21875 
Q 40.828125 74.21875 47.359375 69.109375 
Q 53.90625 64.015625 53.90625 55.328125 
Q 53.90625 49.265625 50.4375 45.09375 
Q 46.96875 40.921875 40.578125 39.3125 
z
" id="DejaVuSans-33"/>
     <path d="M 19.671875 64.796875 
L 19.671875 8.109375 
L 31.59375 8.109375 
Q 46.6875 8.109375 53.6875 14.9375 
Q 60.6875 21.78125 60.6875 36.53125 
Q 60.6875 51.171875 53.6875 57.984375 
Q 46.6875 64.796875 31.59375 64.796875 
z
M 9.8125 72.90625 
L 30.078125 72.90625 
Q 51.265625 72.90625 61.171875 64.09375 
Q 71.09375 55.28125 71.09375 36.53125 
Q 71.09375 17.671875 61.125 8.828125 
Q 51.171875 0 30.078125 0 
L 9.8125 0 
z
" id="DejaVuSans-44"/>
    </defs>
    <g transform="translate(58.89048 35.290806)scale(0.102 -0.102)">
     <use xlink:href="#DejaVuSans-62"/>
     <use x="63.476562" xlink:href="#DejaVuSans-62"/>
     <use x="126.953125" xlink:href="#DejaVuSans-6f"/>
     <use x="188.134766" xlink:href="#DejaVuSans-62"/>
     <use x="251.611328" xlink:href="#DejaVuSans-20"/>
     <use x="283.398438" xlink:href="#DejaVuSans-66"/>
     <use x="318.603516" xlink:href="#DejaVuSans-32"/>
     <use x="382.226562" xlink:href="#DejaVuSans-33"/>
     <use x="445.849609" xlink:href="#DejaVuSans-2c"/>
     <use x="477.636719" xlink:href="#DejaVuSans-20"/>
     <use x="509.423828" xlink:href="#DejaVuSans-32"/>
     <use x="573.046875" xlink:href="#DejaVuSans-2d"/>
     <use x="609.130859" xlink:href="#DejaVuSans-44"/>
    </g>
    <!-- 51 targets: 100..1e-08 -->
    <defs>
     <path d="M 10.796875 72.90625 
L 49.515625 72.90625 
L 49.515625 64.59375 
L 19.828125 64.59375 
L 19.828125 46.734375 
Q 21.96875 47.46875 24.109375 47.828125 
Q 26.265625 48.1875 28.421875 48.1875 
Q 40.625 48.1875 47.75 41.5 
Q 54.890625 34.8125 54.890625 23.390625 
Q 54.890625 11.625 47.5625 5.09375 
Q 40.234375 -1.421875 26.90625 -1.421875 
Q 22.3125 -1.421875 17.546875 -0.640625 
Q 12.796875 0.140625 7.71875 1.703125 
L 7.71875 11.625 
Q 12.109375 9.234375 16.796875 8.0625 
Q 21.484375 6.890625 26.703125 6.890625 
Q 35.15625 6.890625 40.078125 11.328125 
Q 45.015625 15.765625 45.015625 23.390625 
Q 45.015625 31 40.078125 35.4375 
Q 35.15625 39.890625 26.703125 39.890625 
Q 22.75 39.890625 18.8125 39.015625 
Q 14.890625 38.140625 10.796875 36.28125 
z
" id="DejaVuSans-35"/>
     <path d="M 11.71875 12.40625 
L 22.015625 12.40625 
L 22.015625 0 
L 11.71875 0 
z
M 11.71875 51.703125 
L 22.015625 51.703125 
L 22.015625 39.3125 
L 11.71875 39.3125 
z
" id="DejaVuSans-3a"/>
    </defs>
    <g transform="translate(58.89048 46.712575)scale(0.102 -0.102)">
     <use xlink:href="#DejaVuSans-35"/>
     <use x="63.623047" xlink:href="#DejaVuSans-31"/>
     <use x="127.246094" xlink:href="#DejaVuSans-20"/>
     <use x="159.033203" xlink:href="#DejaVuSans-74"/>
     <use x="198.242188" xlink:href="#DejaVuSans-61"/>
     <use x="259.521484" xlink:href="#DejaVuSans-72"/>
     <use x="300.619141" xlink:href="#DejaVuSans-67"/>
     <use x="364.095703" xlink:href="#DejaVuSans-65"/>
     <use x="425.619141" xlink:href="#DejaVuSans-74"/>
     <use x="464.828125" xlink:href="#DejaVuSans-73"/>
     <use x="516.927734" xlink:href="#DejaVuSans-3a"/>
     <use x="550.619141" xlink:href="#DejaVuSans-20"/>
     <use x="582.40625" xlink:href="#DejaVuSans-31"/>
     <use x="646.029297" xlink:href="#DejaVuSans-30"/>
     <use x="709.652344" xlink:href="#DejaVuSans-30"/>
     <use x="773.275391" xlink:href="#DejaVuSans-2e"/>
     <use x="805.0625" xlink:href="#DejaVuSans-2e"/>
     <use x="836.849609" xlink:href="#DejaVuSans-31"/>
     <use x="900.472656" xlink:href="#DejaVuSans-65"/>
     <use x="961.996094" xlink:href="#DejaVuSans-2d"/>
     <use x="998.080078" xlink:href="#DejaVuSans-30"/>
     <use x="1061.703125" xlink:href="#DejaVuSans-38"/>
    </g>
    <!-- 15 instances -->
    <g transform="translate(58.89048 58.134344)scale(0.102 -0.102)">
     <use xlink:href="#DejaVuSans-31"/>
     <use x="63.623047" xlink:href="#DejaVuSans-35"/>
     <use x="127.246094" xlink:href="#DejaVuSans-20"/>
     <use x="159.033203" xlink:href="#DejaVuSans-69"/>
     <use x="186.816406" xlink:href="#DejaVuSans-6e"/>
     <use x="250.195312" xlink:href="#DejaVuSans-73"/>
     <use x="302.294922" xlink:href="#DejaVuSans-74"/>
     <use x="341.503906" xlink:href="#DejaVuSans-61"/>
     <use x="402.783203" xlink:href="#DejaVuSans-6e"/>
     <use x="466.162109" xlink:href="#DejaVuSans-63"/>
     <use x="521.142578" xlink:href="#DejaVuSans-65"/>
     <use x="582.666016" xlink:href="#DejaVuSans-73"/>
    </g>
   </g>
   <g id="text_18">
    <!-- v0.0.0 -->
    <g style="fill:#808080;" transform="translate(178.96275 290.099912)scale(0.1 -0.1)">
     <use xlink:href="#DejaVuSans-76"/>
     <use x="59.179688" xlink:href="#DejaVuSans-30"/>
     <use x="122.802734" xlink:href="#DejaVuSans-2e"/>
     <use x="154.589844" xlink:href="#DejaVuSans-30"/>
     <use x="218.212891" xlink:href="#DejaVuSans-2e"/>
     <use x="250" xlink:href="#DejaVuSans-30"/>
    </g>
   </g>
   <g id="text_19">
    <!-- 23 Katsuuras -->
    <defs>
     <path d="M 9.8125 72.90625 
L 19.671875 72.90625 
L 19.671875 42.09375 
L 52.390625 72.90625 
L 65.09375 72.90625 
L 28.90625 38.921875 
L 67.671875 0 
L 54.6875 0 
L 19.671875 35.109375 
L 19.671875 0 
L 9.8125 0 
z
" id="DejaVuSans-4b"/>
    </defs>
    <g transform="translate(128.803375 18.84)scale(0.2 -0.2)">
     <use xlink:href="#DejaVuSans-32"/>
     <use x="63.623047" xlink:href="#DejaVuSans-33"/>
     <use x="127.246094" xlink:href="#DejaVuSans-20"/>
     <use x="159.033203" xlink:href="#DejaVuSans-4b"/>
     <use x="224.59375" xlink:href="#DejaVuSans-61"/>
     <use x="285.873047" xlink:href="#DejaVuSans-74"/>
     <use x="325.082031" xlink:href="#DejaVuSans-73"/>
     <use x="377.181641" xlink:href="#DejaVuSans-75"/>
     <use x="440.560547" xlink:href="#DejaVuSans-75"/>
     <use x="503.939453" xlink:href="#DejaVuSans-72"/>
     <use x="545.052734" xlink:href="#DejaVuSans-61"/>
     <use x="606.332031" xlink:href="#DejaVuSans-73"/>
    </g>
   </g>
  </g>
 </g>
 <defs>
  <clipPath id="pce65f7eae9">
   <rect height="270.04" width="277.048" x="56.12" y="24.84"/>
  </clipPath>
 </defs>
</svg>
