<?xml version="1.0" encoding="utf-8" standalone="no"?>
<!DOCTYPE svg PUBLIC "-//W3C//DTD SVG 1.1//EN"
  "http://www.w3.org/Graphics/SVG/1.1/DTD/svg11.dtd">
<!-- Created with matplotlib (http://matplotlib.org/) -->
<svg height="345pt" version="1.1" viewBox="0 0 460 345" width="460pt" xmlns="http://www.w3.org/2000/svg" xmlns:xlink="http://www.w3.org/1999/xlink">
 <defs>
  <style type="text/css">
*{stroke-linecap:butt;stroke-linejoin:round;}
  </style>
 </defs>
 <g id="figure_1">
  <g id="patch_1">
   <path d="M 0 345.6 
L 460.8 345.6 
L 460.8 0 
L 0 0 
z
" style="fill:#ffffff;"/>
  </g>
  <g id="axes_1">
   <g id="patch_2">
    <path d="M 56.12 294.88 
L 333.168 294.88 
L 333.168 24.84 
L 56.12 24.84 
z
" style="fill:#ffffff;"/>
   </g>
   <g id="line2d_1">
    <path d="M 96.038666 294.88 
L 96.038666 289.637523 
L 100.983527 289.637523 
L 100.983527 284.395046 
L 110.014853 284.395046 
L 110.014853 279.152568 
L 113.579218 279.152568 
L 113.579218 273.910091 
L 116.682681 273.910091 
L 116.682681 268.667614 
L 120.034863 268.667614 
L 120.034863 263.425137 
L 121.929105 263.425137 
L 121.929105 258.18266 
L 123.499282 258.18266 
L 123.499282 252.940182 
L 125.000572 252.940182 
L 125.000572 247.697705 
L 125.794504 247.697705 
L 125.794504 242.455228 
L 127.142761 242.455228 
L 127.142761 237.212751 
L 128.13443 237.212751 
L 128.13443 231.970274 
L 128.798561 231.970274 
L 128.798561 226.727797 
L 129.890654 226.727797 
L 129.890654 221.485319 
L 131.181257 221.485319 
L 131.181257 216.242842 
L 131.990784 216.242842 
L 131.990784 211.000365 
L 133.196088 211.000365 
L 133.196088 205.757888 
L 133.973644 205.757888 
L 133.973644 200.515411 
L 134.53905 200.515411 
L 134.53905 195.272933 
L 135.464614 195.272933 
L 135.464614 190.030456 
L 135.934186 190.030456 
L 135.934186 184.787979 
L 136.67882 184.787979 
L 136.67882 179.545502 
L 137.377325 179.545502 
L 137.377325 174.303025 
L 137.931121 174.303025 
L 137.931121 169.060547 
L 139.001743 169.060547 
L 139.001743 163.81807 
L 139.680151 163.81807 
L 139.680151 158.575593 
L 140.319984 158.575593 
L 140.319984 153.333116 
L 141.035496 153.333116 
L 141.035496 148.090639 
L 141.804906 148.090639 
L 141.804906 142.848162 
L 142.303162 142.848162 
L 142.303162 137.605684 
L 143.051826 137.605684 
L 143.051826 132.363207 
L 143.65349 132.363207 
L 143.65349 127.12073 
L 144.295937 127.12073 
L 144.295937 121.878253 
L 144.915234 121.878253 
L 144.915234 116.635776 
L 145.34158 116.635776 
L 145.34158 111.393298 
L 145.766946 111.393298 
L 145.766946 106.150821 
L 146.182039 106.150821 
L 146.182039 100.908344 
L 146.631793 100.908344 
L 146.631793 95.665867 
L 147.225166 95.665867 
L 147.225166 90.42339 
L 147.657127 90.42339 
L 147.657127 85.180912 
L 147.922722 85.180912 
L 147.922722 79.938435 
L 148.441909 79.938435 
L 148.441909 74.695958 
L 149.007841 74.695958 
L 149.007841 69.453481 
L 149.367465 69.453481 
L 149.367465 64.211004 
L 149.778964 64.211004 
L 149.778964 58.968526 
L 150.108469 58.968526 
L 150.108469 53.726049 
L 150.353304 53.726049 
L 150.353304 48.483572 
L 150.672081 48.483572 
L 150.672081 43.241095 
L 150.998831 43.241095 
L 150.998831 37.998618 
L 151.359993 37.998618 
L 151.359993 32.756141 
L 151.85189 32.756141 
L 151.85189 27.513663 
L 333.168 27.513663 
" style="fill:none;stroke:#f5deb3;stroke-linecap:square;stroke-width:4;"/>
   </g>
   <g id="line2d_2">
    <defs>
     <path d="M -0 7.778175 
L 7.778175 0 
L 0 -7.778175 
L -7.778175 -0 
z
" id="m40e0f0eeb0" style="stroke:#f5deb3;stroke-linejoin:miter;stroke-width:1.5;"/>
    </defs>
    <g>
     <use style="fill:#f5deb3;stroke:#f5deb3;stroke-linejoin:miter;stroke-width:1.5;" x="141.804906" xlink:href="#m40e0f0eeb0" y="142.848162"/>
     <use style="fill:#f5deb3;stroke:#f5deb3;stroke-linejoin:miter;stroke-width:1.5;" x="151.85189" xlink:href="#m40e0f0eeb0" y="32.756141"/>
     <use style="fill:#f5deb3;stroke:#f5deb3;stroke-linejoin:miter;stroke-width:1.5;" x="151.85189" xlink:href="#m40e0f0eeb0" y="27.513663"/>
     <use style="fill:#f5deb3;stroke:#f5deb3;stroke-linejoin:miter;stroke-width:1.5;" x="151.85189" xlink:href="#m40e0f0eeb0" y="27.513663"/>
     <use style="fill:#f5deb3;stroke:#f5deb3;stroke-linejoin:miter;stroke-width:1.5;" x="333.168" xlink:href="#m40e0f0eeb0" y="27.513663"/>
    </g>
   </g>
   <g id="line2d_3">
    <path style="fill:none;stroke:#f5deb3;stroke-linecap:square;stroke-width:4;"/>
    <g/>
   </g>
   <g id="line2d_4">
    <path d="M 333.168 27.513663 
L 363.64328 32.86099 
" style="fill:none;stroke:#f5deb3;stroke-linecap:square;stroke-width:4;"/>
    <g>
     <use style="fill:#f5deb3;stroke:#f5deb3;stroke-linejoin:miter;stroke-width:1.5;" x="333.168" xlink:href="#m40e0f0eeb0" y="27.513663"/>
     <use style="fill:#f5deb3;stroke:#f5deb3;stroke-linejoin:miter;stroke-width:1.5;" x="363.64328" xlink:href="#m40e0f0eeb0" y="32.86099"/>
    </g>
   </g>
   <g id="matplotlib.axis_1">
    <g id="xtick_1">
     <g id="line2d_5">
      <path clip-path="url(#p029e68caf6)" d="M 56.12 294.88 
L 56.12 24.84 
" style="fill:none;stroke:#b0b0b0;stroke-linecap:square;stroke-width:0.8;"/>
     </g>
     <g id="line2d_6">
      <defs>
       <path d="M 0 0 
L 0 3.5 
" id="m64c75a6d89" style="stroke:#000000;stroke-width:0.8;"/>
      </defs>
      <g>
       <use style="stroke:#000000;stroke-width:0.8;" x="56.12" xlink:href="#m64c75a6d89" y="294.88"/>
      </g>
     </g>
     <g id="text_1">
      <!-- 0 -->
      <defs>
       <path d="M 31.78125 66.40625 
Q 24.171875 66.40625 20.328125 58.90625 
Q 16.5 51.421875 16.5 36.375 
Q 16.5 21.390625 20.328125 13.890625 
Q 24.171875 6.390625 31.78125 6.390625 
Q 39.453125 6.390625 43.28125 13.890625 
Q 47.125 21.390625 47.125 36.375 
Q 47.125 51.421875 43.28125 58.90625 
Q 39.453125 66.40625 31.78125 66.40625 
z
M 31.78125 74.21875 
Q 44.046875 74.21875 50.515625 64.515625 
Q 56.984375 54.828125 56.984375 36.375 
Q 56.984375 17.96875 50.515625 8.265625 
Q 44.046875 -1.421875 31.78125 -1.421875 
Q 19.53125 -1.421875 13.0625 8.265625 
Q 6.59375 17.96875 6.59375 36.375 
Q 6.59375 54.828125 13.0625 64.515625 
Q 19.53125 74.21875 31.78125 74.21875 
z
" id="DejaVuSans-30"/>
      </defs>
      <g transform="translate(49.7575 317.076875)scale(0.2 -0.2)">
       <use xlink:href="#DejaVuSans-30"/>
      </g>
     </g>
    </g>
    <g id="xtick_2">
     <g id="line2d_7">
      <path clip-path="url(#p029e68caf6)" d="M 135.276571 294.88 
L 135.276571 24.84 
" style="fill:none;stroke:#b0b0b0;stroke-linecap:square;stroke-width:0.8;"/>
     </g>
     <g id="line2d_8">
      <g>
       <use style="stroke:#000000;stroke-width:0.8;" x="135.276571" xlink:href="#m64c75a6d89" y="294.88"/>
      </g>
     </g>
     <g id="text_2">
      <!-- 2 -->
      <defs>
       <path d="M 19.1875 8.296875 
L 53.609375 8.296875 
L 53.609375 0 
L 7.328125 0 
L 7.328125 8.296875 
Q 12.9375 14.109375 22.625 23.890625 
Q 32.328125 33.6875 34.8125 36.53125 
Q 39.546875 41.84375 41.421875 45.53125 
Q 43.3125 49.21875 43.3125 52.78125 
Q 43.3125 58.59375 39.234375 62.25 
Q 35.15625 65.921875 28.609375 65.921875 
Q 23.96875 65.921875 18.8125 64.3125 
Q 13.671875 62.703125 7.8125 59.421875 
L 7.8125 69.390625 
Q 13.765625 71.78125 18.9375 73 
Q 24.125 74.21875 28.421875 74.21875 
Q 39.75 74.21875 46.484375 68.546875 
Q 53.21875 62.890625 53.21875 53.421875 
Q 53.21875 48.921875 51.53125 44.890625 
Q 49.859375 40.875 45.40625 35.40625 
Q 44.1875 33.984375 37.640625 27.21875 
Q 31.109375 20.453125 19.1875 8.296875 
z
" id="DejaVuSans-32"/>
      </defs>
      <g transform="translate(128.914071 317.076875)scale(0.2 -0.2)">
       <use xlink:href="#DejaVuSans-32"/>
      </g>
     </g>
    </g>
    <g id="xtick_3">
     <g id="line2d_9">
      <path clip-path="url(#p029e68caf6)" d="M 214.433143 294.88 
L 214.433143 24.84 
" style="fill:none;stroke:#b0b0b0;stroke-linecap:square;stroke-width:0.8;"/>
     </g>
     <g id="line2d_10">
      <g>
       <use style="stroke:#000000;stroke-width:0.8;" x="214.433143" xlink:href="#m64c75a6d89" y="294.88"/>
      </g>
     </g>
     <g id="text_3">
      <!-- 4 -->
      <defs>
       <path d="M 37.796875 64.3125 
L 12.890625 25.390625 
L 37.796875 25.390625 
z
M 35.203125 72.90625 
L 47.609375 72.90625 
L 47.609375 25.390625 
L 58.015625 25.390625 
L 58.015625 17.1875 
L 47.609375 17.1875 
L 47.609375 0 
L 37.796875 0 
L 37.796875 17.1875 
L 4.890625 17.1875 
L 4.890625 26.703125 
z
" id="DejaVuSans-34"/>
      </defs>
      <g transform="translate(208.070643 317.076875)scale(0.2 -0.2)">
       <use xlink:href="#DejaVuSans-34"/>
      </g>
     </g>
    </g>
    <g id="xtick_4">
     <g id="line2d_11">
      <path clip-path="url(#p029e68caf6)" d="M 293.589714 294.88 
L 293.589714 24.84 
" style="fill:none;stroke:#b0b0b0;stroke-linecap:square;stroke-width:0.8;"/>
     </g>
     <g id="line2d_12">
      <g>
       <use style="stroke:#000000;stroke-width:0.8;" x="293.589714" xlink:href="#m64c75a6d89" y="294.88"/>
      </g>
     </g>
     <g id="text_4">
      <!-- 6 -->
      <defs>
       <path d="M 33.015625 40.375 
Q 26.375 40.375 22.484375 35.828125 
Q 18.609375 31.296875 18.609375 23.390625 
Q 18.609375 15.53125 22.484375 10.953125 
Q 26.375 6.390625 33.015625 6.390625 
Q 39.65625 6.390625 43.53125 10.953125 
Q 47.40625 15.53125 47.40625 23.390625 
Q 47.40625 31.296875 43.53125 35.828125 
Q 39.65625 40.375 33.015625 40.375 
z
M 52.59375 71.296875 
L 52.59375 62.3125 
Q 48.875 64.0625 45.09375 64.984375 
Q 41.3125 65.921875 37.59375 65.921875 
Q 27.828125 65.921875 22.671875 59.328125 
Q 17.53125 52.734375 16.796875 39.40625 
Q 19.671875 43.65625 24.015625 45.921875 
Q 28.375 48.1875 33.59375 48.1875 
Q 44.578125 48.1875 50.953125 41.515625 
Q 57.328125 34.859375 57.328125 23.390625 
Q 57.328125 12.15625 50.6875 5.359375 
Q 44.046875 -1.421875 33.015625 -1.421875 
Q 20.359375 -1.421875 13.671875 8.265625 
Q 6.984375 17.96875 6.984375 36.375 
Q 6.984375 53.65625 15.1875 63.9375 
Q 23.390625 74.21875 37.203125 74.21875 
Q 40.921875 74.21875 44.703125 73.484375 
Q 48.484375 72.75 52.59375 71.296875 
z
" id="DejaVuSans-36"/>
      </defs>
      <g transform="translate(287.227214 317.076875)scale(0.2 -0.2)">
       <use xlink:href="#DejaVuSans-36"/>
      </g>
     </g>
    </g>
    <g id="xtick_5">
     <g id="line2d_13">
      <path clip-path="url(#p029e68caf6)" d="M 56.12 294.88 
L 56.12 24.84 
" style="fill:none;stroke:#b0b0b0;stroke-linecap:square;stroke-width:0.8;"/>
     </g>
     <g id="line2d_14">
      <defs>
       <path d="M 0 0 
L 0 2 
" id="m7fc9583a59" style="stroke:#000000;stroke-width:0.6;"/>
      </defs>
      <g>
       <use style="stroke:#000000;stroke-width:0.6;" x="56.12" xlink:href="#m7fc9583a59" y="294.88"/>
      </g>
     </g>
    </g>
    <g id="xtick_6">
     <g id="line2d_15">
      <path clip-path="url(#p029e68caf6)" d="M 95.698286 294.88 
L 95.698286 24.84 
" style="fill:none;stroke:#b0b0b0;stroke-linecap:square;stroke-width:0.8;"/>
     </g>
     <g id="line2d_16">
      <g>
       <use style="stroke:#000000;stroke-width:0.6;" x="95.698286" xlink:href="#m7fc9583a59" y="294.88"/>
      </g>
     </g>
    </g>
    <g id="xtick_7">
     <g id="line2d_17">
      <path clip-path="url(#p029e68caf6)" d="M 135.276571 294.88 
L 135.276571 24.84 
" style="fill:none;stroke:#b0b0b0;stroke-linecap:square;stroke-width:0.8;"/>
     </g>
     <g id="line2d_18">
      <g>
       <use style="stroke:#000000;stroke-width:0.6;" x="135.276571" xlink:href="#m7fc9583a59" y="294.88"/>
      </g>
     </g>
    </g>
    <g id="xtick_8">
     <g id="line2d_19">
      <path clip-path="url(#p029e68caf6)" d="M 174.854857 294.88 
L 174.854857 24.84 
" style="fill:none;stroke:#b0b0b0;stroke-linecap:square;stroke-width:0.8;"/>
     </g>
     <g id="line2d_20">
      <g>
       <use style="stroke:#000000;stroke-width:0.6;" x="174.854857" xlink:href="#m7fc9583a59" y="294.88"/>
      </g>
     </g>
    </g>
    <g id="xtick_9">
     <g id="line2d_21">
      <path clip-path="url(#p029e68caf6)" d="M 214.433143 294.88 
L 214.433143 24.84 
" style="fill:none;stroke:#b0b0b0;stroke-linecap:square;stroke-width:0.8;"/>
     </g>
     <g id="line2d_22">
      <g>
       <use style="stroke:#000000;stroke-width:0.6;" x="214.433143" xlink:href="#m7fc9583a59" y="294.88"/>
      </g>
     </g>
    </g>
    <g id="xtick_10">
     <g id="line2d_23">
      <path clip-path="url(#p029e68caf6)" d="M 254.011429 294.88 
L 254.011429 24.84 
" style="fill:none;stroke:#b0b0b0;stroke-linecap:square;stroke-width:0.8;"/>
     </g>
     <g id="line2d_24">
      <g>
       <use style="stroke:#000000;stroke-width:0.6;" x="254.011429" xlink:href="#m7fc9583a59" y="294.88"/>
      </g>
     </g>
    </g>
    <g id="xtick_11">
     <g id="line2d_25">
      <path clip-path="url(#p029e68caf6)" d="M 293.589714 294.88 
L 293.589714 24.84 
" style="fill:none;stroke:#b0b0b0;stroke-linecap:square;stroke-width:0.8;"/>
     </g>
     <g id="line2d_26">
      <g>
       <use style="stroke:#000000;stroke-width:0.6;" x="293.589714" xlink:href="#m7fc9583a59" y="294.88"/>
      </g>
     </g>
    </g>
    <g id="xtick_12">
     <g id="line2d_27">
      <path clip-path="url(#p029e68caf6)" d="M 333.168 294.88 
L 333.168 24.84 
" style="fill:none;stroke:#b0b0b0;stroke-linecap:square;stroke-width:0.8;"/>
     </g>
     <g id="line2d_28">
      <g>
       <use style="stroke:#000000;stroke-width:0.6;" x="333.168" xlink:href="#m7fc9583a59" y="294.88"/>
      </g>
     </g>
    </g>
    <g id="text_5">
     <!-- log10(# f-evals / dimension) -->
     <defs>
      <path d="M 9.421875 75.984375 
L 18.40625 75.984375 
L 18.40625 0 
L 9.421875 0 
z
" id="DejaVuSans-6c"/>
      <path d="M 30.609375 48.390625 
Q 23.390625 48.390625 19.1875 42.75 
Q 14.984375 37.109375 14.984375 27.296875 
Q 14.984375 17.484375 19.15625 11.84375 
Q 23.34375 6.203125 30.609375 6.203125 
Q 37.796875 6.203125 41.984375 11.859375 
Q 46.1875 17.53125 46.1875 27.296875 
Q 46.1875 37.015625 41.984375 42.703125 
Q 37.796875 48.390625 30.609375 48.390625 
z
M 30.609375 56 
Q 42.328125 56 49.015625 48.375 
Q 55.71875 40.765625 55.71875 27.296875 
Q 55.71875 13.875 49.015625 6.21875 
Q 42.328125 -1.421875 30.609375 -1.421875 
Q 18.84375 -1.421875 12.171875 6.21875 
Q 5.515625 13.875 5.515625 27.296875 
Q 5.515625 40.765625 12.171875 48.375 
Q 18.84375 56 30.609375 56 
z
" id="DejaVuSans-6f"/>
      <path d="M 45.40625 27.984375 
Q 45.40625 37.75 41.375 43.109375 
Q 37.359375 48.484375 30.078125 48.484375 
Q 22.859375 48.484375 18.828125 43.109375 
Q 14.796875 37.75 14.796875 27.984375 
Q 14.796875 18.265625 18.828125 12.890625 
Q 22.859375 7.515625 30.078125 7.515625 
Q 37.359375 7.515625 41.375 12.890625 
Q 45.40625 18.265625 45.40625 27.984375 
z
M 54.390625 6.78125 
Q 54.390625 -7.171875 48.1875 -13.984375 
Q 42 -20.796875 29.203125 -20.796875 
Q 24.46875 -20.796875 20.265625 -20.09375 
Q 16.0625 -19.390625 12.109375 -17.921875 
L 12.109375 -9.1875 
Q 16.0625 -11.328125 19.921875 -12.34375 
Q 23.78125 -13.375 27.78125 -13.375 
Q 36.625 -13.375 41.015625 -8.765625 
Q 45.40625 -4.15625 45.40625 5.171875 
L 45.40625 9.625 
Q 42.625 4.78125 38.28125 2.390625 
Q 33.9375 0 27.875 0 
Q 17.828125 0 11.671875 7.65625 
Q 5.515625 15.328125 5.515625 27.984375 
Q 5.515625 40.671875 11.671875 48.328125 
Q 17.828125 56 27.875 56 
Q 33.9375 56 38.28125 53.609375 
Q 42.625 51.21875 45.40625 46.390625 
L 45.40625 54.6875 
L 54.390625 54.6875 
z
" id="DejaVuSans-67"/>
      <path d="M 12.40625 8.296875 
L 28.515625 8.296875 
L 28.515625 63.921875 
L 10.984375 60.40625 
L 10.984375 69.390625 
L 28.421875 72.90625 
L 38.28125 72.90625 
L 38.28125 8.296875 
L 54.390625 8.296875 
L 54.390625 0 
L 12.40625 0 
z
" id="DejaVuSans-31"/>
      <path d="M 31 75.875 
Q 24.46875 64.65625 21.28125 53.65625 
Q 18.109375 42.671875 18.109375 31.390625 
Q 18.109375 20.125 21.3125 9.0625 
Q 24.515625 -2 31 -13.1875 
L 23.1875 -13.1875 
Q 15.875 -1.703125 12.234375 9.375 
Q 8.59375 20.453125 8.59375 31.390625 
Q 8.59375 42.28125 12.203125 53.3125 
Q 15.828125 64.359375 23.1875 75.875 
z
" id="DejaVuSans-28"/>
      <path d="M 51.125 44 
L 36.921875 44 
L 32.8125 27.6875 
L 47.125 27.6875 
z
M 43.796875 71.78125 
L 38.71875 51.515625 
L 52.984375 51.515625 
L 58.109375 71.78125 
L 65.921875 71.78125 
L 60.890625 51.515625 
L 76.125 51.515625 
L 76.125 44 
L 58.984375 44 
L 54.984375 27.6875 
L 70.515625 27.6875 
L 70.515625 20.21875 
L 53.078125 20.21875 
L 48 0 
L 40.1875 0 
L 45.21875 20.21875 
L 30.90625 20.21875 
L 25.875 0 
L 18.015625 0 
L 23.09375 20.21875 
L 7.71875 20.21875 
L 7.71875 27.6875 
L 24.90625 27.6875 
L 29 44 
L 13.28125 44 
L 13.28125 51.515625 
L 30.90625 51.515625 
L 35.890625 71.78125 
z
" id="DejaVuSans-23"/>
      <path id="DejaVuSans-20"/>
      <path d="M 37.109375 75.984375 
L 37.109375 68.5 
L 28.515625 68.5 
Q 23.6875 68.5 21.796875 66.546875 
Q 19.921875 64.59375 19.921875 59.515625 
L 19.921875 54.6875 
L 34.71875 54.6875 
L 34.71875 47.703125 
L 19.921875 47.703125 
L 19.921875 0 
L 10.890625 0 
L 10.890625 47.703125 
L 2.296875 47.703125 
L 2.296875 54.6875 
L 10.890625 54.6875 
L 10.890625 58.5 
Q 10.890625 67.625 15.140625 71.796875 
Q 19.390625 75.984375 28.609375 75.984375 
z
" id="DejaVuSans-66"/>
      <path d="M 4.890625 31.390625 
L 31.203125 31.390625 
L 31.203125 23.390625 
L 4.890625 23.390625 
z
" id="DejaVuSans-2d"/>
      <path d="M 56.203125 29.59375 
L 56.203125 25.203125 
L 14.890625 25.203125 
Q 15.484375 15.921875 20.484375 11.0625 
Q 25.484375 6.203125 34.421875 6.203125 
Q 39.59375 6.203125 44.453125 7.46875 
Q 49.3125 8.734375 54.109375 11.28125 
L 54.109375 2.78125 
Q 49.265625 0.734375 44.1875 -0.34375 
Q 39.109375 -1.421875 33.890625 -1.421875 
Q 20.796875 -1.421875 13.15625 6.1875 
Q 5.515625 13.8125 5.515625 26.8125 
Q 5.515625 40.234375 12.765625 48.109375 
Q 20.015625 56 32.328125 56 
Q 43.359375 56 49.78125 48.890625 
Q 56.203125 41.796875 56.203125 29.59375 
z
M 47.21875 32.234375 
Q 47.125 39.59375 43.09375 43.984375 
Q 39.0625 48.390625 32.421875 48.390625 
Q 24.90625 48.390625 20.390625 44.140625 
Q 15.875 39.890625 15.1875 32.171875 
z
" id="DejaVuSans-65"/>
      <path d="M 2.984375 54.6875 
L 12.5 54.6875 
L 29.59375 8.796875 
L 46.6875 54.6875 
L 56.203125 54.6875 
L 35.6875 0 
L 23.484375 0 
z
" id="DejaVuSans-76"/>
      <path d="M 34.28125 27.484375 
Q 23.390625 27.484375 19.1875 25 
Q 14.984375 22.515625 14.984375 16.5 
Q 14.984375 11.71875 18.140625 8.90625 
Q 21.296875 6.109375 26.703125 6.109375 
Q 34.1875 6.109375 38.703125 11.40625 
Q 43.21875 16.703125 43.21875 25.484375 
L 43.21875 27.484375 
z
M 52.203125 31.203125 
L 52.203125 0 
L 43.21875 0 
L 43.21875 8.296875 
Q 40.140625 3.328125 35.546875 0.953125 
Q 30.953125 -1.421875 24.3125 -1.421875 
Q 15.921875 -1.421875 10.953125 3.296875 
Q 6 8.015625 6 15.921875 
Q 6 25.140625 12.171875 29.828125 
Q 18.359375 34.515625 30.609375 34.515625 
L 43.21875 34.515625 
L 43.21875 35.40625 
Q 43.21875 41.609375 39.140625 45 
Q 35.0625 48.390625 27.6875 48.390625 
Q 23 48.390625 18.546875 47.265625 
Q 14.109375 46.140625 10.015625 43.890625 
L 10.015625 52.203125 
Q 14.9375 54.109375 19.578125 55.046875 
Q 24.21875 56 28.609375 56 
Q 40.484375 56 46.34375 49.84375 
Q 52.203125 43.703125 52.203125 31.203125 
z
" id="DejaVuSans-61"/>
      <path d="M 44.28125 53.078125 
L 44.28125 44.578125 
Q 40.484375 46.53125 36.375 47.5 
Q 32.28125 48.484375 27.875 48.484375 
Q 21.1875 48.484375 17.84375 46.4375 
Q 14.5 44.390625 14.5 40.28125 
Q 14.5 37.15625 16.890625 35.375 
Q 19.28125 33.59375 26.515625 31.984375 
L 29.59375 31.296875 
Q 39.15625 29.25 43.1875 25.515625 
Q 47.21875 21.78125 47.21875 15.09375 
Q 47.21875 7.46875 41.1875 3.015625 
Q 35.15625 -1.421875 24.609375 -1.421875 
Q 20.21875 -1.421875 15.453125 -0.5625 
Q 10.6875 0.296875 5.421875 2 
L 5.421875 11.28125 
Q 10.40625 8.6875 15.234375 7.390625 
Q 20.0625 6.109375 24.8125 6.109375 
Q 31.15625 6.109375 34.5625 8.28125 
Q 37.984375 10.453125 37.984375 14.40625 
Q 37.984375 18.0625 35.515625 20.015625 
Q 33.0625 21.96875 24.703125 23.78125 
L 21.578125 24.515625 
Q 13.234375 26.265625 9.515625 29.90625 
Q 5.8125 33.546875 5.8125 39.890625 
Q 5.8125 47.609375 11.28125 51.796875 
Q 16.75 56 26.8125 56 
Q 31.78125 56 36.171875 55.265625 
Q 40.578125 54.546875 44.28125 53.078125 
z
" id="DejaVuSans-73"/>
      <path d="M 25.390625 72.90625 
L 33.6875 72.90625 
L 8.296875 -9.28125 
L 0 -9.28125 
z
" id="DejaVuSans-2f"/>
      <path d="M 45.40625 46.390625 
L 45.40625 75.984375 
L 54.390625 75.984375 
L 54.390625 0 
L 45.40625 0 
L 45.40625 8.203125 
Q 42.578125 3.328125 38.25 0.953125 
Q 33.9375 -1.421875 27.875 -1.421875 
Q 17.96875 -1.421875 11.734375 6.484375 
Q 5.515625 14.40625 5.515625 27.296875 
Q 5.515625 40.1875 11.734375 48.09375 
Q 17.96875 56 27.875 56 
Q 33.9375 56 38.25 53.625 
Q 42.578125 51.265625 45.40625 46.390625 
z
M 14.796875 27.296875 
Q 14.796875 17.390625 18.875 11.75 
Q 22.953125 6.109375 30.078125 6.109375 
Q 37.203125 6.109375 41.296875 11.75 
Q 45.40625 17.390625 45.40625 27.296875 
Q 45.40625 37.203125 41.296875 42.84375 
Q 37.203125 48.484375 30.078125 48.484375 
Q 22.953125 48.484375 18.875 42.84375 
Q 14.796875 37.203125 14.796875 27.296875 
z
" id="DejaVuSans-64"/>
      <path d="M 9.421875 54.6875 
L 18.40625 54.6875 
L 18.40625 0 
L 9.421875 0 
z
M 9.421875 75.984375 
L 18.40625 75.984375 
L 18.40625 64.59375 
L 9.421875 64.59375 
z
" id="DejaVuSans-69"/>
      <path d="M 52 44.1875 
Q 55.375 50.25 60.0625 53.125 
Q 64.75 56 71.09375 56 
Q 79.640625 56 84.28125 50.015625 
Q 88.921875 44.046875 88.921875 33.015625 
L 88.921875 0 
L 79.890625 0 
L 79.890625 32.71875 
Q 79.890625 40.578125 77.09375 44.375 
Q 74.3125 48.1875 68.609375 48.1875 
Q 61.625 48.1875 57.5625 43.546875 
Q 53.515625 38.921875 53.515625 30.90625 
L 53.515625 0 
L 44.484375 0 
L 44.484375 32.71875 
Q 44.484375 40.625 41.703125 44.40625 
Q 38.921875 48.1875 33.109375 48.1875 
Q 26.21875 48.1875 22.15625 43.53125 
Q 18.109375 38.875 18.109375 30.90625 
L 18.109375 0 
L 9.078125 0 
L 9.078125 54.6875 
L 18.109375 54.6875 
L 18.109375 46.1875 
Q 21.1875 51.21875 25.484375 53.609375 
Q 29.78125 56 35.6875 56 
Q 41.65625 56 45.828125 52.96875 
Q 50 49.953125 52 44.1875 
z
" id="DejaVuSans-6d"/>
      <path d="M 54.890625 33.015625 
L 54.890625 0 
L 45.90625 0 
L 45.90625 32.71875 
Q 45.90625 40.484375 42.875 44.328125 
Q 39.84375 48.1875 33.796875 48.1875 
Q 26.515625 48.1875 22.3125 43.546875 
Q 18.109375 38.921875 18.109375 30.90625 
L 18.109375 0 
L 9.078125 0 
L 9.078125 54.6875 
L 18.109375 54.6875 
L 18.109375 46.1875 
Q 21.34375 51.125 25.703125 53.5625 
Q 30.078125 56 35.796875 56 
Q 45.21875 56 50.046875 50.171875 
Q 54.890625 44.34375 54.890625 33.015625 
z
" id="DejaVuSans-6e"/>
      <path d="M 8.015625 75.875 
L 15.828125 75.875 
Q 23.140625 64.359375 26.78125 53.3125 
Q 30.421875 42.28125 30.421875 31.390625 
Q 30.421875 20.453125 26.78125 9.375 
Q 23.140625 -1.703125 15.828125 -13.1875 
L 8.015625 -13.1875 
Q 14.5 -2 17.703125 9.0625 
Q 20.90625 20.125 20.90625 31.390625 
Q 20.90625 42.671875 17.703125 53.65625 
Q 14.5 64.65625 8.015625 75.875 
z
" id="DejaVuSans-29"/>
     </defs>
     <g transform="translate(73.803219 338.153594)scale(0.17 -0.17)">
      <use xlink:href="#DejaVuSans-6c"/>
      <use x="27.783203" xlink:href="#DejaVuSans-6f"/>
      <use x="88.964844" xlink:href="#DejaVuSans-67"/>
      <use x="152.441406" xlink:href="#DejaVuSans-31"/>
      <use x="216.064453" xlink:href="#DejaVuSans-30"/>
      <use x="279.6875" xlink:href="#DejaVuSans-28"/>
      <use x="318.701172" xlink:href="#DejaVuSans-23"/>
      <use x="402.490234" xlink:href="#DejaVuSans-20"/>
      <use x="434.277344" xlink:href="#DejaVuSans-66"/>
      <use x="469.404297" xlink:href="#DejaVuSans-2d"/>
      <use x="505.488281" xlink:href="#DejaVuSans-65"/>
      <use x="567.011719" xlink:href="#DejaVuSans-76"/>
      <use x="626.191406" xlink:href="#DejaVuSans-61"/>
      <use x="687.470703" xlink:href="#DejaVuSans-6c"/>
      <use x="715.253906" xlink:href="#DejaVuSans-73"/>
      <use x="767.353516" xlink:href="#DejaVuSans-20"/>
      <use x="799.140625" xlink:href="#DejaVuSans-2f"/>
      <use x="832.832031" xlink:href="#DejaVuSans-20"/>
      <use x="864.619141" xlink:href="#DejaVuSans-64"/>
      <use x="928.095703" xlink:href="#DejaVuSans-69"/>
      <use x="955.878906" xlink:href="#DejaVuSans-6d"/>
      <use x="1053.291016" xlink:href="#DejaVuSans-65"/>
      <use x="1114.814453" xlink:href="#DejaVuSans-6e"/>
      <use x="1178.193359" xlink:href="#DejaVuSans-73"/>
      <use x="1230.292969" xlink:href="#DejaVuSans-69"/>
      <use x="1258.076172" xlink:href="#DejaVuSans-6f"/>
      <use x="1319.257812" xlink:href="#DejaVuSans-6e"/>
      <use x="1382.636719" xlink:href="#DejaVuSans-29"/>
     </g>
    </g>
   </g>
   <g id="matplotlib.axis_2">
    <g id="ytick_1">
     <g id="line2d_29">
      <path clip-path="url(#p029e68caf6)" d="M 56.12 294.88 
L 333.168 294.88 
" style="fill:none;stroke:#b0b0b0;stroke-linecap:square;stroke-width:0.8;"/>
     </g>
     <g id="line2d_30">
      <defs>
       <path d="M 0 0 
L -3.5 0 
" id="m385fc03e87" style="stroke:#000000;stroke-width:0.8;"/>
      </defs>
      <g>
       <use style="stroke:#000000;stroke-width:0.8;" x="56.12" xlink:href="#m385fc03e87" y="294.88"/>
      </g>
     </g>
     <g id="text_6">
      <!-- 0.0 -->
      <defs>
       <path d="M 10.6875 12.40625 
L 21 12.40625 
L 21 0 
L 10.6875 0 
z
" id="DejaVuSans-2e"/>
      </defs>
      <g transform="translate(23.675 300.95875)scale(0.16 -0.16)">
       <use xlink:href="#DejaVuSans-30"/>
       <use x="63.623047" xlink:href="#DejaVuSans-2e"/>
       <use x="95.410156" xlink:href="#DejaVuSans-30"/>
      </g>
     </g>
    </g>
    <g id="ytick_2">
     <g id="line2d_31">
      <path clip-path="url(#p029e68caf6)" d="M 56.12 241.406733 
L 333.168 241.406733 
" style="fill:none;stroke:#b0b0b0;stroke-linecap:square;stroke-width:0.8;"/>
     </g>
     <g id="line2d_32">
      <g>
       <use style="stroke:#000000;stroke-width:0.8;" x="56.12" xlink:href="#m385fc03e87" y="241.406733"/>
      </g>
     </g>
     <g id="text_7">
      <!-- 0.2 -->
      <g transform="translate(23.675 247.485483)scale(0.16 -0.16)">
       <use xlink:href="#DejaVuSans-30"/>
       <use x="63.623047" xlink:href="#DejaVuSans-2e"/>
       <use x="95.410156" xlink:href="#DejaVuSans-32"/>
      </g>
     </g>
    </g>
    <g id="ytick_3">
     <g id="line2d_33">
      <path clip-path="url(#p029e68caf6)" d="M 56.12 187.933465 
L 333.168 187.933465 
" style="fill:none;stroke:#b0b0b0;stroke-linecap:square;stroke-width:0.8;"/>
     </g>
     <g id="line2d_34">
      <g>
       <use style="stroke:#000000;stroke-width:0.8;" x="56.12" xlink:href="#m385fc03e87" y="187.933465"/>
      </g>
     </g>
     <g id="text_8">
      <!-- 0.4 -->
      <g transform="translate(23.675 194.012215)scale(0.16 -0.16)">
       <use xlink:href="#DejaVuSans-30"/>
       <use x="63.623047" xlink:href="#DejaVuSans-2e"/>
       <use x="95.410156" xlink:href="#DejaVuSans-34"/>
      </g>
     </g>
    </g>
    <g id="ytick_4">
     <g id="line2d_35">
      <path clip-path="url(#p029e68caf6)" d="M 56.12 134.460198 
L 333.168 134.460198 
" style="fill:none;stroke:#b0b0b0;stroke-linecap:square;stroke-width:0.8;"/>
     </g>
     <g id="line2d_36">
      <g>
       <use style="stroke:#000000;stroke-width:0.8;" x="56.12" xlink:href="#m385fc03e87" y="134.460198"/>
      </g>
     </g>
     <g id="text_9">
      <!-- 0.6 -->
      <g transform="translate(23.675 140.538948)scale(0.16 -0.16)">
       <use xlink:href="#DejaVuSans-30"/>
       <use x="63.623047" xlink:href="#DejaVuSans-2e"/>
       <use x="95.410156" xlink:href="#DejaVuSans-36"/>
      </g>
     </g>
    </g>
    <g id="ytick_5">
     <g id="line2d_37">
      <path clip-path="url(#p029e68caf6)" d="M 56.12 80.986931 
L 333.168 80.986931 
" style="fill:none;stroke:#b0b0b0;stroke-linecap:square;stroke-width:0.8;"/>
     </g>
     <g id="line2d_38">
      <g>
       <use style="stroke:#000000;stroke-width:0.8;" x="56.12" xlink:href="#m385fc03e87" y="80.986931"/>
      </g>
     </g>
     <g id="text_10">
      <!-- 0.8 -->
      <defs>
       <path d="M 31.78125 34.625 
Q 24.75 34.625 20.71875 30.859375 
Q 16.703125 27.09375 16.703125 20.515625 
Q 16.703125 13.921875 20.71875 10.15625 
Q 24.75 6.390625 31.78125 6.390625 
Q 38.8125 6.390625 42.859375 10.171875 
Q 46.921875 13.96875 46.921875 20.515625 
Q 46.921875 27.09375 42.890625 30.859375 
Q 38.875 34.625 31.78125 34.625 
z
M 21.921875 38.8125 
Q 15.578125 40.375 12.03125 44.71875 
Q 8.5 49.078125 8.5 55.328125 
Q 8.5 64.0625 14.71875 69.140625 
Q 20.953125 74.21875 31.78125 74.21875 
Q 42.671875 74.21875 48.875 69.140625 
Q 55.078125 64.0625 55.078125 55.328125 
Q 55.078125 49.078125 51.53125 44.71875 
Q 48 40.375 41.703125 38.8125 
Q 48.828125 37.15625 52.796875 32.3125 
Q 56.78125 27.484375 56.78125 20.515625 
Q 56.78125 9.90625 50.3125 4.234375 
Q 43.84375 -1.421875 31.78125 -1.421875 
Q 19.734375 -1.421875 13.25 4.234375 
Q 6.78125 9.90625 6.78125 20.515625 
Q 6.78125 27.484375 10.78125 32.3125 
Q 14.796875 37.15625 21.921875 38.8125 
z
M 18.3125 54.390625 
Q 18.3125 48.734375 21.84375 45.5625 
Q 25.390625 42.390625 31.78125 42.390625 
Q 38.140625 42.390625 41.71875 45.5625 
Q 45.3125 48.734375 45.3125 54.390625 
Q 45.3125 60.0625 41.71875 63.234375 
Q 38.140625 66.40625 31.78125 66.40625 
Q 25.390625 66.40625 21.84375 63.234375 
Q 18.3125 60.0625 18.3125 54.390625 
z
" id="DejaVuSans-38"/>
      </defs>
      <g transform="translate(23.675 87.065681)scale(0.16 -0.16)">
       <use xlink:href="#DejaVuSans-30"/>
       <use x="63.623047" xlink:href="#DejaVuSans-2e"/>
       <use x="95.410156" xlink:href="#DejaVuSans-38"/>
      </g>
     </g>
    </g>
    <g id="ytick_6">
     <g id="line2d_39">
      <path clip-path="url(#p029e68caf6)" d="M 56.12 27.513663 
L 333.168 27.513663 
" style="fill:none;stroke:#b0b0b0;stroke-linecap:square;stroke-width:0.8;"/>
     </g>
     <g id="line2d_40">
      <g>
       <use style="stroke:#000000;stroke-width:0.8;" x="56.12" xlink:href="#m385fc03e87" y="27.513663"/>
      </g>
     </g>
     <g id="text_11">
      <!-- 1.0 -->
      <g transform="translate(23.675 33.592413)scale(0.16 -0.16)">
       <use xlink:href="#DejaVuSans-31"/>
       <use x="63.623047" xlink:href="#DejaVuSans-2e"/>
       <use x="95.410156" xlink:href="#DejaVuSans-30"/>
      </g>
     </g>
    </g>
    <g id="text_12">
     <!-- Fraction of function,target pairs -->
     <defs>
      <path d="M 9.8125 72.90625 
L 51.703125 72.90625 
L 51.703125 64.59375 
L 19.671875 64.59375 
L 19.671875 43.109375 
L 48.578125 43.109375 
L 48.578125 34.8125 
L 19.671875 34.8125 
L 19.671875 0 
L 9.8125 0 
z
" id="DejaVuSans-46"/>
      <path d="M 41.109375 46.296875 
Q 39.59375 47.171875 37.8125 47.578125 
Q 36.03125 48 33.890625 48 
Q 26.265625 48 22.1875 43.046875 
Q 18.109375 38.09375 18.109375 28.8125 
L 18.109375 0 
L 9.078125 0 
L 9.078125 54.6875 
L 18.109375 54.6875 
L 18.109375 46.1875 
Q 20.953125 51.171875 25.484375 53.578125 
Q 30.03125 56 36.53125 56 
Q 37.453125 56 38.578125 55.875 
Q 39.703125 55.765625 41.0625 55.515625 
z
" id="DejaVuSans-72"/>
      <path d="M 48.78125 52.59375 
L 48.78125 44.1875 
Q 44.96875 46.296875 41.140625 47.34375 
Q 37.3125 48.390625 33.40625 48.390625 
Q 24.65625 48.390625 19.8125 42.84375 
Q 14.984375 37.3125 14.984375 27.296875 
Q 14.984375 17.28125 19.8125 11.734375 
Q 24.65625 6.203125 33.40625 6.203125 
Q 37.3125 6.203125 41.140625 7.25 
Q 44.96875 8.296875 48.78125 10.40625 
L 48.78125 2.09375 
Q 45.015625 0.34375 40.984375 -0.53125 
Q 36.96875 -1.421875 32.421875 -1.421875 
Q 20.0625 -1.421875 12.78125 6.34375 
Q 5.515625 14.109375 5.515625 27.296875 
Q 5.515625 40.671875 12.859375 48.328125 
Q 20.21875 56 33.015625 56 
Q 37.15625 56 41.109375 55.140625 
Q 45.0625 54.296875 48.78125 52.59375 
z
" id="DejaVuSans-63"/>
      <path d="M 18.3125 70.21875 
L 18.3125 54.6875 
L 36.8125 54.6875 
L 36.8125 47.703125 
L 18.3125 47.703125 
L 18.3125 18.015625 
Q 18.3125 11.328125 20.140625 9.421875 
Q 21.96875 7.515625 27.59375 7.515625 
L 36.8125 7.515625 
L 36.8125 0 
L 27.59375 0 
Q 17.1875 0 13.234375 3.875 
Q 9.28125 7.765625 9.28125 18.015625 
L 9.28125 47.703125 
L 2.6875 47.703125 
L 2.6875 54.6875 
L 9.28125 54.6875 
L 9.28125 70.21875 
z
" id="DejaVuSans-74"/>
      <path d="M 8.5 21.578125 
L 8.5 54.6875 
L 17.484375 54.6875 
L 17.484375 21.921875 
Q 17.484375 14.15625 20.5 10.265625 
Q 23.53125 6.390625 29.59375 6.390625 
Q 36.859375 6.390625 41.078125 11.03125 
Q 45.3125 15.671875 45.3125 23.6875 
L 45.3125 54.6875 
L 54.296875 54.6875 
L 54.296875 0 
L 45.3125 0 
L 45.3125 8.40625 
Q 42.046875 3.421875 37.71875 1 
Q 33.40625 -1.421875 27.6875 -1.421875 
Q 18.265625 -1.421875 13.375 4.4375 
Q 8.5 10.296875 8.5 21.578125 
z
M 31.109375 56 
z
" id="DejaVuSans-75"/>
      <path d="M 11.71875 12.40625 
L 22.015625 12.40625 
L 22.015625 4 
L 14.015625 -11.625 
L 7.71875 -11.625 
L 11.71875 4 
z
" id="DejaVuSans-2c"/>
      <path d="M 18.109375 8.203125 
L 18.109375 -20.796875 
L 9.078125 -20.796875 
L 9.078125 54.6875 
L 18.109375 54.6875 
L 18.109375 46.390625 
Q 20.953125 51.265625 25.265625 53.625 
Q 29.59375 56 35.59375 56 
Q 45.5625 56 51.78125 48.09375 
Q 58.015625 40.1875 58.015625 27.296875 
Q 58.015625 14.40625 51.78125 6.484375 
Q 45.5625 -1.421875 35.59375 -1.421875 
Q 29.59375 -1.421875 25.265625 0.953125 
Q 20.953125 3.328125 18.109375 8.203125 
z
M 48.6875 27.296875 
Q 48.6875 37.203125 44.609375 42.84375 
Q 40.53125 48.484375 33.40625 48.484375 
Q 26.265625 48.484375 22.1875 42.84375 
Q 18.109375 37.203125 18.109375 27.296875 
Q 18.109375 17.390625 22.1875 11.75 
Q 26.265625 6.109375 33.40625 6.109375 
Q 40.53125 6.109375 44.609375 11.75 
Q 48.6875 17.390625 48.6875 27.296875 
z
" id="DejaVuSans-70"/>
     </defs>
     <g transform="translate(16.139531 294.999375)rotate(-90)scale(0.17 -0.17)">
      <use xlink:href="#DejaVuSans-46"/>
      <use x="57.410156" xlink:href="#DejaVuSans-72"/>
      <use x="98.523438" xlink:href="#DejaVuSans-61"/>
      <use x="159.802734" xlink:href="#DejaVuSans-63"/>
      <use x="214.783203" xlink:href="#DejaVuSans-74"/>
      <use x="253.992188" xlink:href="#DejaVuSans-69"/>
      <use x="281.775391" xlink:href="#DejaVuSans-6f"/>
      <use x="342.957031" xlink:href="#DejaVuSans-6e"/>
      <use x="406.335938" xlink:href="#DejaVuSans-20"/>
      <use x="438.123047" xlink:href="#DejaVuSans-6f"/>
      <use x="499.304688" xlink:href="#DejaVuSans-66"/>
      <use x="534.509766" xlink:href="#DejaVuSans-20"/>
      <use x="566.296875" xlink:href="#DejaVuSans-66"/>
      <use x="601.501953" xlink:href="#DejaVuSans-75"/>
      <use x="664.880859" xlink:href="#DejaVuSans-6e"/>
      <use x="728.259766" xlink:href="#DejaVuSans-63"/>
      <use x="783.240234" xlink:href="#DejaVuSans-74"/>
      <use x="822.449219" xlink:href="#DejaVuSans-69"/>
      <use x="850.232422" xlink:href="#DejaVuSans-6f"/>
      <use x="911.414062" xlink:href="#DejaVuSans-6e"/>
      <use x="974.792969" xlink:href="#DejaVuSans-2c"/>
      <use x="1006.580078" xlink:href="#DejaVuSans-74"/>
      <use x="1045.789062" xlink:href="#DejaVuSans-61"/>
      <use x="1107.068359" xlink:href="#DejaVuSans-72"/>
      <use x="1148.166016" xlink:href="#DejaVuSans-67"/>
      <use x="1211.642578" xlink:href="#DejaVuSans-65"/>
      <use x="1273.166016" xlink:href="#DejaVuSans-74"/>
      <use x="1312.375" xlink:href="#DejaVuSans-20"/>
      <use x="1344.162109" xlink:href="#DejaVuSans-70"/>
      <use x="1407.638672" xlink:href="#DejaVuSans-61"/>
      <use x="1468.917969" xlink:href="#DejaVuSans-69"/>
      <use x="1496.701172" xlink:href="#DejaVuSans-72"/>
      <use x="1537.814453" xlink:href="#DejaVuSans-73"/>
     </g>
    </g>
   </g>
   <g id="line2d_41">
    <defs>
     <path d="M 0 1.5 
C 0.397805 1.5 0.77937 1.341951 1.06066 1.06066 
C 1.341951 0.77937 1.5 0.397805 1.5 0 
C 1.5 -0.397805 1.341951 -0.77937 1.06066 -1.06066 
C 0.77937 -1.341951 0.397805 -1.5 0 -1.5 
C -0.397805 -1.5 -0.77937 -1.341951 -1.06066 -1.06066 
C -1.341951 -0.77937 -1.5 -0.397805 -1.5 0 
C -1.5 0.397805 -1.341951 0.77937 -1.06066 1.06066 
C -0.77937 1.341951 -0.397805 1.5 0 1.5 
z
" id="m8ced453935" style="stroke:#f5deb3;"/>
    </defs>
    <g>
     <use style="fill:#f5deb3;stroke:#f5deb3;" x="151.85189" xlink:href="#m8ced453935" y="27.513663"/>
     <use style="fill:#f5deb3;stroke:#f5deb3;" x="151.85189" xlink:href="#m8ced453935" y="27.513663"/>
    </g>
   </g>
   <g id="line2d_42">
    <defs>
     <path d="M 0 1.5 
C 0.397805 1.5 0.77937 1.341951 1.06066 1.06066 
C 1.341951 0.77937 1.5 0.397805 1.5 0 
C 1.5 -0.397805 1.341951 -0.77937 1.06066 -1.06066 
C 0.77937 -1.341951 0.397805 -1.5 0 -1.5 
C -0.397805 -1.5 -0.77937 -1.341951 -1.06066 -1.06066 
C -1.341951 -0.77937 -1.5 -0.397805 -1.5 0 
C -1.5 0.397805 -1.341951 0.77937 -1.06066 1.06066 
C -0.77937 1.341951 -0.397805 1.5 0 1.5 
z
" id="m5c77039615" style="stroke:#000080;"/>
    </defs>
    <g>
     <use style="fill:#000080;stroke:#000080;" x="239.872412" xlink:href="#m5c77039615" y="27.513663"/>
     <use style="fill:#000080;stroke:#000080;" x="239.872412" xlink:href="#m5c77039615" y="27.513663"/>
    </g>
   </g>
   <g id="line2d_43">
    <path d="M 113.700266 294.88 
L 113.700266 294.355752 
L 122.516807 294.355752 
L 122.516807 293.831505 
L 123.430938 293.831505 
L 123.430938 293.307257 
L 126.92061 293.307257 
L 126.92061 292.783009 
L 127.032044 292.783009 
L 127.087492 291.734514 
L 128.13443 291.734514 
L 128.13443 291.210266 
L 128.596932 291.210266 
L 128.67282 290.161771 
L 128.898495 290.161771 
L 128.898495 289.637523 
L 129.582224 289.637523 
L 129.677716 288.589027 
L 130.239792 288.589027 
L 130.285813 287.540532 
L 130.627094 287.540532 
L 130.627094 287.016284 
L 131.990784 287.016284 
L 131.990784 285.967789 
L 132.197629 285.967789 
L 132.197629 285.443541 
L 132.961694 285.443541 
L 132.961694 284.919293 
L 134.412994 284.919293 
L 134.412994 284.395046 
L 134.73529 284.395046 
L 134.73529 283.870798 
L 135.121173 283.870798 
L 135.121173 283.34655 
L 136.033161 283.34655 
L 136.033161 282.822302 
L 136.503668 282.822302 
L 136.503668 282.298055 
L 136.82081 282.298055 
L 136.82081 281.773807 
L 137.543839 281.773807 
L 137.543839 281.249559 
L 137.768335 281.249559 
L 137.768335 280.725312 
L 138.736761 280.725312 
L 138.736761 280.201064 
L 140.307161 280.201064 
L 140.307161 279.676816 
L 141.023196 279.676816 
L 141.096862 278.628321 
L 142.026848 278.628321 
L 142.026848 278.104073 
L 142.82066 278.104073 
L 142.82066 277.579825 
L 143.279925 277.579825 
L 143.279925 277.055578 
L 144.173452 277.055578 
L 144.173452 276.53133 
L 144.866109 276.53133 
L 144.885776 275.482834 
L 145.503514 275.482834 
L 145.503514 274.958587 
L 146.799661 274.958587 
L 146.799661 274.434339 
L 149.046458 274.434339 
L 149.046458 273.910091 
L 149.352314 273.910091 
L 149.352314 273.385844 
L 149.786355 273.385844 
L 149.845372 271.8131 
L 150.846657 271.8131 
L 150.846657 271.288853 
L 151.176953 271.288853 
L 151.176953 270.764605 
L 151.759902 270.764605 
L 151.759902 270.240357 
L 153.224185 270.240357 
L 153.224185 269.716109 
L 154.25734 269.716109 
L 154.25734 269.191862 
L 155.530748 269.191862 
L 155.530748 268.667614 
L 156.255895 268.667614 
L 156.255895 268.143366 
L 156.878469 268.143366 
L 156.878469 267.619119 
L 157.568792 267.619119 
L 157.57349 266.570623 
L 157.995745 266.570623 
L 157.995745 266.046375 
L 159.845207 266.046375 
L 159.845207 264.99788 
L 161.247608 264.99788 
L 161.247608 264.473632 
L 161.466238 264.473632 
L 161.466238 263.949385 
L 162.087869 263.949385 
L 162.174353 262.900889 
L 162.96122 262.900889 
L 162.96122 262.376641 
L 163.237116 262.376641 
L 163.237116 261.852394 
L 163.565102 261.852394 
L 163.565102 261.328146 
L 163.912956 261.328146 
L 163.912956 260.803898 
L 164.170903 260.803898 
L 164.170903 260.279651 
L 165.680372 260.279651 
L 165.77683 258.706907 
L 166.24266 258.706907 
L 166.24266 258.18266 
L 166.378293 258.18266 
L 166.487713 257.134164 
L 167.336201 257.134164 
L 167.336201 256.609917 
L 167.497822 256.609917 
L 167.497822 256.085669 
L 167.668385 256.085669 
L 167.673606 255.037173 
L 167.909514 255.037173 
L 168.019871 253.988678 
L 168.045434 253.988678 
L 168.147308 252.940182 
L 168.899997 252.940182 
L 168.899997 252.415935 
L 169.322533 252.415935 
L 169.322533 251.891687 
L 169.616443 251.891687 
L 169.616443 251.367439 
L 169.882472 251.367439 
L 169.96948 250.318944 
L 170.16704 250.318944 
L 170.243634 249.270448 
L 171.55658 249.270448 
L 171.58363 248.221953 
L 171.683143 248.221953 
L 171.683143 247.697705 
L 172.31829 247.697705 
L 172.31829 247.173458 
L 172.459157 247.173458 
L 172.478905 246.124962 
L 173.239451 246.124962 
L 173.305413 244.552219 
L 173.563051 244.552219 
L 173.563051 244.027971 
L 173.956904 244.027971 
L 173.956904 243.503724 
L 174.106567 243.503724 
L 174.190742 242.455228 
L 175.029293 242.455228 
L 175.12093 240.882485 
L 175.56533 240.882485 
L 175.56533 240.358237 
L 175.84831 240.358237 
L 175.84831 239.83399 
L 175.974389 239.83399 
L 175.974389 239.309742 
L 176.631621 239.309742 
L 176.70895 237.736999 
L 176.778249 237.736999 
L 176.778249 236.688503 
L 176.99815 236.688503 
L 176.99815 236.164255 
L 177.569689 236.164255 
L 177.569689 235.640008 
L 178.502352 235.640008 
L 178.502352 235.11576 
L 178.884551 235.11576 
L 178.898142 234.067265 
L 179.015934 234.067265 
L 179.015934 233.543017 
L 179.379078 233.543017 
L 179.397563 232.494521 
L 179.637381 232.494521 
L 179.637381 231.970274 
L 179.849493 231.970274 
L 179.911083 230.921778 
L 180.247193 230.921778 
L 180.247193 230.397531 
L 180.560831 230.397531 
L 180.560831 229.873283 
L 180.799659 229.873283 
L 180.900316 228.30054 
L 180.963079 228.30054 
L 180.965489 227.252044 
L 181.167872 227.252044 
L 181.183342 226.203549 
L 181.644549 226.203549 
L 181.688495 224.630806 
L 181.812784 224.630806 
L 181.812784 224.106558 
L 182.311172 224.106558 
L 182.408917 222.533815 
L 182.466415 222.533815 
L 182.466415 222.009567 
L 182.596182 222.009567 
L 182.596182 221.485319 
L 182.7141 221.485319 
L 182.820404 220.436824 
L 183.269743 220.436824 
L 183.325487 219.388328 
L 183.386283 219.388328 
L 183.386283 218.864081 
L 183.783463 218.864081 
L 183.81513 217.815585 
L 184.034174 217.815585 
L 184.034174 217.291338 
L 184.213605 217.291338 
L 184.321957 216.242842 
L 184.420765 216.242842 
L 184.498424 214.145851 
L 184.664358 214.145851 
L 184.738025 212.573108 
L 184.968606 212.573108 
L 184.968606 212.04886 
L 185.249734 212.04886 
L 185.249734 211.524613 
L 185.522642 211.524613 
L 185.522642 211.000365 
L 185.667112 211.000365 
L 185.764881 208.379126 
L 185.821279 208.379126 
L 185.821279 207.854879 
L 186.199422 207.854879 
L 186.199422 207.330631 
L 186.338337 207.330631 
L 186.338337 206.806383 
L 186.46302 206.806383 
L 186.46302 206.282136 
L 186.592884 206.282136 
L 186.608506 205.23364 
L 186.717465 205.23364 
L 186.717465 204.709392 
L 186.979239 204.709392 
L 187.070686 203.136649 
L 187.179281 203.136649 
L 187.217839 202.088154 
L 187.397748 202.088154 
L 187.448216 200.515411 
L 187.745518 200.515411 
L 187.745518 199.991163 
L 187.910368 199.991163 
L 187.910368 199.466915 
L 188.106281 199.466915 
L 188.106281 198.41842 
L 188.23303 198.41842 
L 188.33376 196.845677 
L 188.492311 196.845677 
L 188.593084 195.797181 
L 188.757695 195.797181 
L 188.757695 195.272933 
L 188.954078 195.272933 
L 188.954078 194.748686 
L 189.259384 194.748686 
L 189.299488 193.70019 
L 189.57689 193.70019 
L 189.57689 193.175943 
L 189.702703 193.175943 
L 189.759128 192.127447 
L 189.841263 192.127447 
L 189.841263 191.603199 
L 190.001518 191.603199 
L 190.107294 190.554704 
L 190.247559 190.554704 
L 190.247559 190.030456 
L 190.361602 190.030456 
L 190.395042 188.981961 
L 190.590884 188.981961 
L 190.590884 188.457713 
L 190.834117 188.457713 
L 190.834117 187.933465 
L 190.970616 187.933465 
L 191.072618 186.88497 
L 191.138729 186.88497 
L 191.203924 185.836474 
L 191.572441 185.836474 
L 191.650253 184.787979 
L 191.747669 184.787979 
L 191.747669 184.263731 
L 191.978984 184.263731 
L 192.086548 183.215236 
L 192.237891 183.215236 
L 192.237891 182.690988 
L 192.36993 182.690988 
L 192.451016 181.642493 
L 192.489259 181.642493 
L 192.595523 179.545502 
L 192.732753 179.545502 
L 192.732753 179.021254 
L 192.925454 179.021254 
L 192.963857 177.972759 
L 193.101756 177.972759 
L 193.101756 177.448511 
L 193.404099 177.448511 
L 193.485113 175.875768 
L 193.618332 175.875768 
L 193.704661 174.827272 
L 193.93504 174.827272 
L 193.93504 174.303025 
L 194.047393 174.303025 
L 194.047393 173.778777 
L 194.196995 173.778777 
L 194.289908 172.206034 
L 194.372937 172.206034 
L 194.449521 171.157538 
L 194.53452 171.157538 
L 194.53452 170.633291 
L 194.750328 170.633291 
L 194.855883 169.584795 
L 194.973062 169.584795 
L 194.973062 169.060547 
L 195.106917 169.060547 
L 195.171875 168.012052 
L 195.259153 168.012052 
L 195.259153 166.963557 
L 195.616749 166.963557 
L 195.66394 165.390813 
L 195.9328 165.390813 
L 195.9328 164.866566 
L 196.053404 164.866566 
L 196.126859 163.293823 
L 196.338957 163.293823 
L 196.437668 161.196832 
L 196.535815 161.196832 
L 196.612089 159.099841 
L 196.672093 159.099841 
L 196.782838 157.527098 
L 196.937645 157.527098 
L 197.015002 156.478602 
L 197.084939 156.478602 
L 197.166332 153.857364 
L 197.20946 153.857364 
L 197.220692 152.808868 
L 197.360487 152.808868 
L 197.360487 152.28462 
L 197.488102 152.28462 
L 197.523537 151.236125 
L 197.688241 151.236125 
L 197.746425 149.663382 
L 197.813907 149.663382 
L 197.916208 147.042143 
L 197.977209 147.042143 
L 198.081216 144.420905 
L 198.10923 144.420905 
L 198.217743 140.751171 
L 198.24201 140.751171 
L 198.351005 138.129932 
L 198.361516 138.129932 
L 198.454088 136.557189 
L 198.523625 136.557189 
L 198.607563 134.460198 
L 198.660569 134.460198 
L 198.706548 132.887455 
L 198.826289 132.887455 
L 198.907068 130.790464 
L 199.032584 130.790464 
L 199.141716 128.169225 
L 199.345523 128.169225 
L 199.442417 127.12073 
L 199.538767 127.12073 
L 199.621564 125.023739 
L 199.704775 125.023739 
L 199.800072 121.878253 
L 199.848327 121.878253 
L 199.848327 121.354005 
L 200.108959 121.354005 
L 200.185124 120.30551 
L 200.234667 120.30551 
L 200.312624 119.257014 
L 200.368815 119.257014 
L 200.368815 118.732766 
L 200.494964 118.732766 
L 200.494964 118.208519 
L 200.61213 118.208519 
L 200.61213 117.684271 
L 200.729647 117.684271 
L 200.834616 116.111528 
L 200.852806 116.111528 
L 200.852806 115.58728 
L 201.012656 115.58728 
L 201.012656 115.063032 
L 201.130457 115.063032 
L 201.206319 114.014537 
L 201.283325 114.014537 
L 201.343063 112.966042 
L 201.46521 112.966042 
L 201.52177 111.917546 
L 201.630353 111.917546 
L 201.630353 111.393298 
L 202.380137 111.393298 
L 202.448964 110.344803 
L 202.667786 110.344803 
L 202.697411 109.296308 
L 203.068304 109.296308 
L 203.165584 108.247812 
L 203.228045 108.247812 
L 203.228045 107.723564 
L 203.457748 107.723564 
L 203.549618 104.578078 
L 203.778925 104.578078 
L 203.778925 104.05383 
L 203.951846 104.05383 
L 204.022231 103.005335 
L 204.13713 103.005335 
L 204.13713 102.481087 
L 204.404743 102.481087 
L 204.404743 101.956839 
L 204.610821 101.956839 
L 204.610821 101.432592 
L 204.786159 101.432592 
L 204.861917 100.384096 
L 204.98923 100.384096 
L 204.98923 99.859849 
L 205.114129 99.859849 
L 205.114129 99.335601 
L 205.226677 99.335601 
L 205.33003 97.23861 
L 205.359779 97.23861 
L 205.359779 96.714362 
L 205.524215 96.714362 
L 205.612883 95.665867 
L 205.76383 95.665867 
L 205.837675 94.617371 
L 205.914026 94.617371 
L 205.914026 94.093124 
L 206.102597 94.093124 
L 206.102597 93.568876 
L 206.232711 93.568876 
L 206.334336 90.947637 
L 206.485109 90.947637 
L 206.571956 89.374894 
L 206.714206 89.374894 
L 206.714206 88.326399 
L 206.883047 88.326399 
L 206.903037 87.277903 
L 207.055526 87.277903 
L 207.109303 85.70516 
L 207.246409 85.70516 
L 207.309222 84.132417 
L 207.60992 84.132417 
L 207.60992 83.608169 
L 207.811714 83.608169 
L 207.811714 83.083922 
L 208.308772 83.083922 
L 208.395446 81.511178 
L 208.515915 81.511178 
L 208.615062 79.414188 
L 208.779205 79.414188 
L 208.842142 78.365692 
L 209.209642 78.365692 
L 209.209642 77.841444 
L 209.568993 77.841444 
L 209.568993 77.317197 
L 209.810902 77.317197 
L 209.87242 76.268701 
L 210.382486 76.268701 
L 210.425076 75.220206 
L 210.51944 75.220206 
L 210.51944 74.695958 
L 210.689538 74.695958 
L 210.76077 73.647463 
L 210.899611 73.647463 
L 210.967876 72.598967 
L 211.176672 72.598967 
L 211.176672 72.074719 
L 212.437423 72.074719 
L 212.512163 69.977729 
L 212.612015 69.977729 
L 212.612015 69.453481 
L 213.568661 69.453481 
L 213.624603 67.35649 
L 213.743819 67.35649 
L 213.743819 66.832242 
L 214.138948 66.832242 
L 214.138948 66.307995 
L 214.381844 66.307995 
L 214.381844 65.783747 
L 214.702262 65.783747 
L 214.702262 65.259499 
L 215.073875 65.259499 
L 215.181342 63.686756 
L 215.199106 63.686756 
L 215.206995 62.638261 
L 215.683909 62.638261 
L 215.733861 61.589765 
L 215.815736 61.589765 
L 215.815736 61.065517 
L 215.983822 61.065517 
L 216.088418 59.492774 
L 216.28276 59.492774 
L 216.311291 58.444279 
L 216.537699 58.444279 
L 216.58129 57.395783 
L 216.717575 57.395783 
L 216.717575 56.871536 
L 216.899759 56.871536 
L 216.899759 56.347288 
L 217.104475 56.347288 
L 217.182579 55.298792 
L 217.353835 55.298792 
L 217.392368 54.250297 
L 217.513346 54.250297 
L 217.513346 53.726049 
L 217.82094 53.726049 
L 217.837868 52.677554 
L 218.118688 52.677554 
L 218.149732 51.104811 
L 218.23757 51.104811 
L 218.265925 50.056315 
L 218.474526 50.056315 
L 218.474526 49.532068 
L 218.662493 49.532068 
L 218.662493 49.00782 
L 219.111109 49.00782 
L 219.113596 47.959324 
L 219.476812 47.959324 
L 219.520848 46.386581 
L 219.604385 46.386581 
L 219.694733 45.338086 
L 220.053063 45.338086 
L 220.125298 44.28959 
L 220.429439 44.28959 
L 220.429439 43.765343 
L 220.837465 43.765343 
L 220.859241 42.716847 
L 221.019458 42.716847 
L 221.058433 41.668352 
L 221.257192 41.668352 
L 221.257192 41.144104 
L 221.512873 41.144104 
L 221.512873 40.619856 
L 222.581442 40.619856 
L 222.581442 40.095609 
L 222.731647 40.095609 
L 222.774761 39.047113 
L 222.86235 39.047113 
L 222.86235 38.522865 
L 223.084586 38.522865 
L 223.084586 37.998618 
L 223.782016 37.998618 
L 223.782016 37.47437 
L 224.058261 37.47437 
L 224.059439 36.425875 
L 224.356597 36.425875 
L 224.441112 34.853131 
L 224.841721 34.853131 
L 224.841721 34.328884 
L 225.095382 34.328884 
L 225.095382 33.804636 
L 225.307778 33.804636 
L 225.307778 33.280388 
L 225.968625 33.280388 
L 225.968625 32.756141 
L 226.242828 32.756141 
L 226.242828 32.231893 
L 226.45278 32.231893 
L 226.491943 31.183397 
L 226.729515 31.183397 
L 226.729515 30.65915 
L 226.930319 30.65915 
L 226.930319 30.134902 
L 227.402628 30.134902 
L 227.402628 29.610654 
L 227.628899 29.610654 
L 227.628899 29.086407 
L 227.748533 29.086407 
L 227.748533 28.562159 
L 230.998891 28.562159 
L 230.998891 28.037911 
L 239.872412 28.037911 
L 239.872412 27.513663 
L 333.168 27.513663 
L 333.168 27.513663 
" style="fill:none;stroke:#000080;stroke-linecap:square;stroke-width:1.5;"/>
   </g>
   <g id="line2d_44">
    <defs>
     <path d="M 0 6 
C 1.591219 6 3.117479 5.367802 4.242641 4.242641 
C 5.367802 3.117479 6 1.591219 6 0 
C 6 -1.591219 5.367802 -3.117479 4.242641 -4.242641 
C 3.117479 -5.367802 1.591219 -6 0 -6 
C -1.591219 -6 -3.117479 -5.367802 -4.242641 -4.242641 
C -5.367802 -3.117479 -6 -1.591219 -6 0 
C -6 1.591219 -5.367802 3.117479 -4.242641 4.242641 
C -3.117479 5.367802 -1.591219 6 0 6 
z
" id="m0ae70cd2af" style="stroke:#000080;stroke-width:1.5;"/>
    </defs>
    <g>
     <use style="fill:none;stroke:#000080;stroke-width:1.5;" x="187.745518" xlink:href="#m0ae70cd2af" y="199.991163"/>
     <use style="fill:none;stroke:#000080;stroke-width:1.5;" x="227.748533" xlink:href="#m0ae70cd2af" y="28.562159"/>
     <use style="fill:none;stroke:#000080;stroke-width:1.5;" x="239.872412" xlink:href="#m0ae70cd2af" y="27.513663"/>
     <use style="fill:none;stroke:#000080;stroke-width:1.5;" x="239.872412" xlink:href="#m0ae70cd2af" y="27.513663"/>
     <use style="fill:none;stroke:#000080;stroke-width:1.5;" x="333.168" xlink:href="#m0ae70cd2af" y="27.513663"/>
    </g>
   </g>
   <g id="line2d_45">
    <path style="fill:none;stroke:#000080;stroke-linecap:square;stroke-width:1.5;"/>
    <g/>
   </g>
   <g id="line2d_46">
    <path clip-path="url(#p029e68caf6)" d="M 208.371006 82.035426 
" style="fill:none;stroke:#000080;stroke-linecap:square;stroke-width:1.5;"/>
    <defs>
     <path d="M -12 12 
L 12 -12 
M -12 -12 
L 12 12 
" id="mfdc7d948dd" style="stroke:#000080;"/>
    </defs>
    <g clip-path="url(#p029e68caf6)">
     <use style="fill:#000080;stroke:#000080;" x="208.371006" xlink:href="#mfdc7d948dd" y="82.035426"/>
    </g>
   </g>
   <g id="line2d_47">
    <defs>
     <path d="M 0 1.5 
C 0.397805 1.5 0.77937 1.341951 1.06066 1.06066 
C 1.341951 0.77937 1.5 0.397805 1.5 0 
C 1.5 -0.397805 1.341951 -0.77937 1.06066 -1.06066 
C 0.77937 -1.341951 0.397805 -1.5 0 -1.5 
C -0.397805 -1.5 -0.77937 -1.341951 -1.06066 -1.06066 
C -1.341951 -0.77937 -1.5 -0.397805 -1.5 0 
C -1.5 0.397805 -1.341951 0.77937 -1.06066 1.06066 
C -0.77937 1.341951 -0.397805 1.5 0 1.5 
z
" id="mb21306d854" style="stroke:#ff00ff;"/>
    </defs>
    <g>
     <use style="fill:#ff00ff;stroke:#ff00ff;" x="211.799081" xlink:href="#mb21306d854" y="27.513663"/>
     <use style="fill:#ff00ff;stroke:#ff00ff;" x="211.799081" xlink:href="#mb21306d854" y="27.513663"/>
    </g>
   </g>
   <g id="line2d_48">
    <path d="M 104.305927 294.88 
L 104.305927 294.355752 
L 105.60948 294.355752 
L 105.60948 293.831505 
L 116.168013 293.831505 
L 116.168013 292.783009 
L 117.475381 292.783009 
L 117.475381 292.258761 
L 120.365424 292.258761 
L 120.365424 291.734514 
L 123.903739 291.734514 
L 123.903739 291.210266 
L 125.972626 291.210266 
L 125.972626 290.686018 
L 126.667211 290.686018 
L 126.667211 289.637523 
L 128.948245 289.637523 
L 128.948245 289.113275 
L 129.890654 289.113275 
L 129.890654 288.589027 
L 131.224827 288.589027 
L 131.224827 288.06478 
L 131.781419 288.06478 
L 131.781419 287.540532 
L 133.331356 287.540532 
L 133.427329 286.492036 
L 134.158073 286.492036 
L 134.158073 285.967789 
L 134.376807 285.967789 
L 134.376807 285.443541 
L 135.293751 285.443541 
L 135.293751 284.395046 
L 135.901068 284.395046 
L 135.901068 283.870798 
L 137.239877 283.870798 
L 137.239877 283.34655 
L 137.573942 283.34655 
L 137.573942 282.822302 
L 138.750809 282.822302 
L 138.750809 281.773807 
L 138.918505 281.773807 
L 138.918505 281.249559 
L 139.452484 281.249559 
L 139.452484 280.725312 
L 140.035654 280.725312 
L 140.139592 279.676816 
L 140.294329 279.676816 
L 140.294329 279.152568 
L 140.874911 279.152568 
L 140.924482 278.104073 
L 141.218941 278.104073 
L 141.328075 276.53133 
L 141.639516 276.53133 
L 141.639516 276.007082 
L 141.922075 276.007082 
L 141.922075 275.482834 
L 142.142519 275.482834 
L 142.21155 273.385844 
L 142.754037 273.385844 
L 142.754037 272.861596 
L 143.290712 272.861596 
L 143.290712 271.8131 
L 143.842493 271.8131 
L 143.915437 270.764605 
L 144.214377 270.764605 
L 144.295937 269.716109 
L 144.326422 269.716109 
L 144.326422 269.191862 
L 145.022816 269.191862 
L 145.120037 267.094871 
L 145.312845 267.094871 
L 145.312845 266.570623 
L 145.456044 266.570623 
L 145.456044 266.046375 
L 145.794933 266.046375 
L 145.794933 265.522128 
L 146.560619 265.522128 
L 146.649541 264.473632 
L 146.782068 264.473632 
L 146.782068 263.949385 
L 146.939763 263.949385 
L 146.965905 262.900889 
L 147.310724 262.900889 
L 147.310724 262.376641 
L 148.1274 262.376641 
L 148.224786 260.803898 
L 148.281341 260.803898 
L 148.281341 260.279651 
L 148.473843 260.279651 
L 148.489788 259.231155 
L 148.782132 259.231155 
L 148.782132 258.706907 
L 149.154128 258.706907 
L 149.161793 257.658412 
L 149.600611 257.658412 
L 149.690019 256.085669 
L 149.889502 256.085669 
L 149.970114 255.037173 
L 150.043071 255.037173 
L 150.108469 253.988678 
L 150.19528 253.988678 
L 150.274474 252.940182 
L 150.495713 252.940182 
L 150.495713 252.415935 
L 150.915994 252.415935 
L 150.915994 251.891687 
L 151.210997 251.891687 
L 151.210997 251.367439 
L 151.460846 251.367439 
L 151.56111 249.270448 
L 151.640903 249.270448 
L 151.700505 248.221953 
L 151.936869 248.221953 
L 151.936869 247.697705 
L 152.247048 247.697705 
L 152.259852 246.124962 
L 152.361937 246.124962 
L 152.361937 245.600714 
L 152.633326 245.600714 
L 152.633326 245.076467 
L 153.004986 245.076467 
L 153.072261 242.455228 
L 153.187846 242.455228 
L 153.187846 241.93098 
L 153.458539 241.93098 
L 153.458539 241.406733 
L 153.719157 241.406733 
L 153.748524 240.358237 
L 154.131541 240.358237 
L 154.200273 239.309742 
L 154.297175 239.309742 
L 154.297175 238.785494 
L 154.573462 238.785494 
L 154.612571 237.736999 
L 154.734911 237.736999 
L 154.734911 237.212751 
L 154.87838 237.212751 
L 154.87838 236.688503 
L 155.210354 236.688503 
L 155.2319 235.640008 
L 155.477762 235.640008 
L 155.498976 234.591512 
L 155.609922 234.591512 
L 155.609922 234.067265 
L 155.730618 234.067265 
L 155.772401 233.018769 
L 155.891966 233.018769 
L 155.897145 231.970274 
L 156.041545 231.970274 
L 156.097943 230.921778 
L 156.5376 230.921778 
L 156.5376 230.397531 
L 156.961424 230.397531 
L 156.961424 229.873283 
L 157.082693 229.873283 
L 157.174289 228.30054 
L 157.24147 228.30054 
L 157.346511 226.203549 
L 157.484002 226.203549 
L 157.484002 225.679301 
L 157.676528 225.679301 
L 157.737126 224.630806 
L 157.788234 224.630806 
L 157.899218 223.058063 
L 158.046091 223.058063 
L 158.141799 220.961072 
L 158.318141 220.961072 
L 158.389966 219.912576 
L 158.434704 219.912576 
L 158.452567 218.864081 
L 158.744657 218.864081 
L 158.762201 217.815585 
L 158.962679 217.815585 
L 158.962679 217.291338 
L 159.139417 217.291338 
L 159.139417 216.76709 
L 159.301615 216.76709 
L 159.360989 214.145851 
L 159.483328 214.145851 
L 159.508531 213.097356 
L 159.66314 213.097356 
L 159.696387 211.000365 
L 159.923235 211.000365 
L 160.013143 209.95187 
L 160.04572 209.95187 
L 160.057921 208.903374 
L 160.171377 208.903374 
L 160.191559 207.330631 
L 160.447811 207.330631 
L 160.554783 205.23364 
L 160.637525 205.23364 
L 160.637525 204.709392 
L 160.960709 204.709392 
L 161.014628 203.136649 
L 161.266565 203.136649 
L 161.334639 201.563906 
L 161.424987 201.563906 
L 161.484956 199.466915 
L 161.792731 199.466915 
L 161.884365 196.845677 
L 162.185133 196.845677 
L 162.292562 194.224438 
L 162.313968 194.224438 
L 162.370919 193.175943 
L 162.487789 193.175943 
L 162.568776 190.554704 
L 162.65288 190.554704 
L 162.65288 190.030456 
L 162.764382 190.030456 
L 162.857902 188.457713 
L 162.878615 188.457713 
L 162.878615 187.933465 
L 163.098018 187.933465 
L 163.118445 186.88497 
L 163.220213 186.88497 
L 163.287725 184.787979 
L 163.361684 184.787979 
L 163.435326 183.215236 
L 163.5452 183.215236 
L 163.5452 182.690988 
L 163.687324 182.690988 
L 163.792333 180.593997 
L 163.883693 180.593997 
L 163.883693 180.06975 
L 164.003678 180.06975 
L 164.071407 178.497006 
L 164.307966 178.497006 
L 164.380833 176.924263 
L 164.459688 176.924263 
L 164.563224 173.778777 
L 164.603841 173.778777 
L 164.603841 173.254529 
L 164.845546 173.254529 
L 164.93455 171.157538 
L 165.059603 171.157538 
L 165.059603 170.633291 
L 165.219921 170.633291 
L 165.219921 170.109043 
L 165.384722 170.109043 
L 165.438316 168.012052 
L 165.497669 168.012052 
L 165.571573 166.963557 
L 165.668643 166.963557 
L 165.744738 165.915061 
L 165.829217 165.915061 
L 165.933514 164.342318 
L 165.95372 164.342318 
L 165.95372 163.81807 
L 166.105948 163.81807 
L 166.105948 163.293823 
L 166.336023 163.293823 
L 166.42046 161.196832 
L 166.482119 161.196832 
L 166.588101 160.148336 
L 166.710007 160.148336 
L 166.726563 158.575593 
L 166.828312 158.575593 
L 166.932188 156.478602 
L 166.975738 156.478602 
L 167.065213 153.857364 
L 167.103032 153.857364 
L 167.189163 151.760373 
L 167.437061 151.760373 
L 167.471431 150.18763 
L 167.595119 150.18763 
L 167.595119 149.663382 
L 167.751736 149.663382 
L 167.832099 148.090639 
L 167.904364 148.090639 
L 167.937813 147.042143 
L 168.022429 147.042143 
L 168.086256 145.4694 
L 168.185356 145.4694 
L 168.281368 142.323914 
L 168.311576 142.323914 
L 168.386866 140.751171 
L 168.44187 140.751171 
L 168.548871 138.65418 
L 168.608305 138.65418 
L 168.689691 137.605684 
L 168.736376 137.605684 
L 168.834248 136.557189 
L 168.880542 136.557189 
L 168.967918 134.984446 
L 169.033159 134.984446 
L 169.052442 133.93595 
L 169.225025 133.93595 
L 169.315417 132.363207 
L 169.381718 132.363207 
L 169.454826 131.314712 
L 169.504175 131.314712 
L 169.614111 129.741969 
L 169.700165 129.741969 
L 169.702485 128.169225 
L 169.838803 128.169225 
L 169.884768 127.12073 
L 169.96948 127.12073 
L 170.049232 125.547987 
L 170.299737 125.547987 
L 170.348956 123.975244 
L 170.426969 123.975244 
L 170.535597 121.354005 
L 170.548852 121.354005 
L 170.623767 120.30551 
L 170.66549 120.30551 
L 170.689599 118.208519 
L 170.805289 118.208519 
L 170.883429 116.635776 
L 170.963371 116.635776 
L 171.010728 115.58728 
L 171.17546 115.58728 
L 171.271006 113.490289 
L 171.361811 113.490289 
L 171.439564 111.393298 
L 171.573231 111.393298 
L 171.61479 110.344803 
L 171.732683 110.344803 
L 171.765632 109.296308 
L 171.935544 109.296308 
L 171.996547 106.150821 
L 172.119923 106.150821 
L 172.230409 104.05383 
L 172.248422 104.05383 
L 172.268413 101.956839 
L 172.366036 101.956839 
L 172.474957 99.335601 
L 172.534079 99.335601 
L 172.624339 97.23861 
L 172.745249 97.23861 
L 172.846005 96.190115 
L 172.898089 96.190115 
L 172.974962 93.044628 
L 173.036213 93.044628 
L 173.144779 89.899142 
L 173.265866 89.899142 
L 173.372996 88.326399 
L 173.605618 88.326399 
L 173.662824 86.229408 
L 173.725348 86.229408 
L 173.725348 85.70516 
L 173.846074 85.70516 
L 173.846074 85.180912 
L 173.960526 85.180912 
L 173.960526 84.656665 
L 174.131684 84.656665 
L 174.131684 84.132417 
L 174.299379 84.132417 
L 174.299379 83.608169 
L 175.419578 83.608169 
L 175.419578 83.083922 
L 183.948309 83.083922 
L 183.985738 82.035426 
L 184.963834 82.035426 
L 185.038132 80.986931 
L 185.161254 80.986931 
L 185.161254 80.462683 
L 185.320939 80.462683 
L 185.378811 79.414188 
L 185.487491 79.414188 
L 185.556798 78.365692 
L 185.6396 78.365692 
L 185.743912 76.792949 
L 185.789464 76.792949 
L 185.848502 75.744454 
L 186.258841 75.744454 
L 186.366513 73.647463 
L 186.392887 73.647463 
L 186.392887 73.123215 
L 186.753632 73.123215 
L 186.805167 72.074719 
L 187.111173 72.074719 
L 187.192702 69.977729 
L 187.255476 69.977729 
L 187.255476 69.453481 
L 187.415967 69.453481 
L 187.415967 68.929233 
L 187.527343 68.929233 
L 187.527343 68.404985 
L 187.69103 68.404985 
L 187.754448 67.35649 
L 187.953741 67.35649 
L 187.993804 66.307995 
L 188.098328 66.307995 
L 188.121382 64.735251 
L 188.309419 64.735251 
L 188.309419 64.211004 
L 188.600811 64.211004 
L 188.619343 63.162508 
L 188.740845 63.162508 
L 188.740845 62.638261 
L 188.871383 62.638261 
L 188.904812 61.589765 
L 189.147494 61.589765 
L 189.248972 60.54127 
L 189.321727 60.54127 
L 189.4045 59.492774 
L 189.434701 59.492774 
L 189.545475 58.444279 
L 189.615532 58.444279 
L 189.704152 57.395783 
L 189.930875 57.395783 
L 189.977289 55.82304 
L 190.052003 55.82304 
L 190.078253 54.774545 
L 190.227189 54.774545 
L 190.316215 52.677554 
L 190.422163 52.677554 
L 190.475586 50.580563 
L 190.548169 50.580563 
L 190.548169 50.056315 
L 190.69037 50.056315 
L 190.751831 48.483572 
L 190.823938 48.483572 
L 190.823938 47.959324 
L 191.095352 47.959324 
L 191.143394 46.910829 
L 191.422966 46.910829 
L 191.5321 45.862334 
L 191.698062 45.862334 
L 191.76053 44.28959 
L 192.012591 44.28959 
L 192.012591 43.765343 
L 192.192816 43.765343 
L 192.192816 43.241095 
L 192.480631 43.241095 
L 192.480631 42.716847 
L 192.668239 42.716847 
L 192.719383 41.668352 
L 192.918845 41.668352 
L 192.920047 40.619856 
L 193.288034 40.619856 
L 193.288034 40.095609 
L 193.55301 40.095609 
L 193.55301 39.571361 
L 193.907829 39.571361 
L 193.923707 38.522865 
L 194.133279 38.522865 
L 194.133279 37.998618 
L 194.290463 37.998618 
L 194.290463 37.47437 
L 196.063917 37.47437 
L 196.063917 36.950122 
L 196.232244 36.950122 
L 196.232244 36.425875 
L 197.19119 36.425875 
L 197.19119 35.901627 
L 197.374405 35.901627 
L 197.374405 35.377379 
L 197.667283 35.377379 
L 197.667283 34.853131 
L 198.048252 34.853131 
L 198.048252 34.328884 
L 198.416159 34.328884 
L 198.416159 33.804636 
L 198.855243 33.804636 
L 198.855243 33.280388 
L 199.538767 33.280388 
L 199.538767 32.756141 
L 200.014568 32.756141 
L 200.014568 32.231893 
L 200.204801 32.231893 
L 200.309497 31.183397 
L 200.769657 31.183397 
L 200.769657 30.65915 
L 201.013031 30.65915 
L 201.013031 30.134902 
L 201.301047 30.134902 
L 201.301047 29.610654 
L 202.39053 29.610654 
L 202.39053 29.086407 
L 204.070984 29.086407 
L 204.070984 28.562159 
L 206.04249 28.562159 
L 206.04249 28.037911 
L 211.799081 28.037911 
L 211.799081 27.513663 
L 333.168 27.513663 
L 333.168 27.513663 
" style="fill:none;stroke:#ff00ff;stroke-linecap:square;stroke-width:1.5;"/>
   </g>
   <g id="line2d_49">
    <defs>
     <path d="M -0 8.485281 
L 5.091169 0 
L 0 -8.485281 
L -5.091169 -0 
z
" id="m6c1dd5b889" style="stroke:#ff00ff;stroke-linejoin:miter;stroke-width:1.5;"/>
    </defs>
    <g>
     <use style="fill:none;stroke:#ff00ff;stroke-linejoin:miter;stroke-width:1.5;" x="168.086256" xlink:href="#m6c1dd5b889" y="145.993648"/>
     <use style="fill:none;stroke:#ff00ff;stroke-linejoin:miter;stroke-width:1.5;" x="211.799081" xlink:href="#m6c1dd5b889" y="28.037911"/>
     <use style="fill:none;stroke:#ff00ff;stroke-linejoin:miter;stroke-width:1.5;" x="211.799081" xlink:href="#m6c1dd5b889" y="27.513663"/>
     <use style="fill:none;stroke:#ff00ff;stroke-linejoin:miter;stroke-width:1.5;" x="211.799081" xlink:href="#m6c1dd5b889" y="27.513663"/>
     <use style="fill:none;stroke:#ff00ff;stroke-linejoin:miter;stroke-width:1.5;" x="333.168" xlink:href="#m6c1dd5b889" y="27.513663"/>
    </g>
   </g>
   <g id="line2d_50">
    <path style="fill:none;stroke:#ff00ff;stroke-linecap:square;stroke-width:1.5;"/>
    <g/>
   </g>
   <g id="line2d_51">
    <path clip-path="url(#p029e68caf6)" d="M 183.772212 83.083922 
" style="fill:none;stroke:#ff00ff;stroke-linecap:square;stroke-width:1.5;"/>
    <defs>
     <path d="M -12 12 
L 12 -12 
M -12 -12 
L 12 12 
" id="m99fa6a4f9e" style="stroke:#ff00ff;"/>
    </defs>
    <g clip-path="url(#p029e68caf6)">
     <use style="fill:#ff00ff;stroke:#ff00ff;" x="183.772212" xlink:href="#m99fa6a4f9e" y="83.083922"/>
    </g>
   </g>
   <g id="line2d_52">
    <defs>
     <path d="M 0 1.5 
C 0.397805 1.5 0.77937 1.341951 1.06066 1.06066 
C 1.341951 0.77937 1.5 0.397805 1.5 0 
C 1.5 -0.397805 1.341951 -0.77937 1.06066 -1.06066 
C 0.77937 -1.341951 0.397805 -1.5 0 -1.5 
C -0.397805 -1.5 -0.77937 -1.341951 -1.06066 -1.06066 
C -1.341951 -0.77937 -1.5 -0.397805 -1.5 0 
C -1.5 0.397805 -1.341951 0.77937 -1.06066 1.06066 
C -0.77937 1.341951 -0.397805 1.5 0 1.5 
z
" id="mdf946cebe5" style="stroke:#ff7500;"/>
    </defs>
    <g>
     <use style="fill:#ff7500;stroke:#ff7500;" x="162.008208" xlink:href="#mdf946cebe5" y="27.513663"/>
     <use style="fill:#ff7500;stroke:#ff7500;" x="162.008208" xlink:href="#mdf946cebe5" y="27.513663"/>
    </g>
   </g>
   <g id="line2d_53">
    <path d="M 92.904808 294.88 
L 92.904808 294.355752 
L 102.320419 294.355752 
L 102.320419 293.831505 
L 106.730875 293.831505 
L 106.730875 293.307257 
L 108.369127 293.307257 
L 108.369127 292.783009 
L 108.6141 292.783009 
L 108.6141 292.258761 
L 111.653105 292.258761 
L 111.653105 291.734514 
L 112.960856 291.734514 
L 112.960856 291.210266 
L 113.334536 291.210266 
L 113.334536 290.686018 
L 113.820466 290.686018 
L 113.820466 290.161771 
L 113.939832 290.161771 
L 113.939832 289.637523 
L 115.090002 289.637523 
L 115.090002 289.113275 
L 115.798351 289.113275 
L 115.798351 288.589027 
L 116.631902 288.589027 
L 116.631902 288.06478 
L 116.783791 288.06478 
L 116.783791 287.540532 
L 117.133064 287.540532 
L 117.133064 287.016284 
L 117.426894 287.016284 
L 117.426894 286.492036 
L 118.093572 286.492036 
L 118.093572 285.967789 
L 118.508888 285.967789 
L 118.599834 284.919293 
L 118.645127 284.919293 
L 118.645127 284.395046 
L 119.697821 284.395046 
L 119.697821 283.870798 
L 119.993093 283.870798 
L 119.993093 283.34655 
L 120.15957 283.34655 
L 120.200938 282.298055 
L 121.474753 282.298055 
L 121.474753 281.773807 
L 122.444434 281.773807 
L 122.480659 280.725312 
L 122.624799 280.725312 
L 122.624799 280.201064 
L 123.050106 280.201064 
L 123.050106 279.676816 
L 123.189569 279.676816 
L 123.189569 279.152568 
L 123.36232 279.152568 
L 123.36232 278.104073 
L 123.769975 278.104073 
L 123.836987 276.007082 
L 124.168185 276.007082 
L 124.168185 274.958587 
L 124.52528 274.958587 
L 124.52528 274.434339 
L 125.000572 274.434339 
L 125.000572 273.910091 
L 125.156126 273.910091 
L 125.156126 273.385844 
L 125.432625 273.385844 
L 125.432625 272.861596 
L 126.864621 272.861596 
L 126.864621 272.337348 
L 127.004254 272.337348 
L 127.115148 271.288853 
L 128.186438 271.288853 
L 128.186438 270.764605 
L 128.418546 270.764605 
L 128.469703 269.716109 
L 129.071994 269.716109 
L 129.071994 269.191862 
L 129.413824 269.191862 
L 129.413824 268.667614 
L 129.558267 268.667614 
L 129.558267 268.143366 
L 129.984454 268.143366 
L 129.984454 267.619119 
L 130.100987 267.619119 
L 130.124199 266.570623 
L 130.514085 266.570623 
L 130.514085 265.522128 
L 130.917487 265.522128 
L 130.917487 264.99788 
L 131.181257 264.99788 
L 131.181257 264.473632 
L 131.483957 264.473632 
L 131.548134 262.900889 
L 131.696954 262.900889 
L 131.696954 262.376641 
L 132.053099 262.376641 
L 132.053099 261.852394 
L 132.402015 261.852394 
L 132.402015 261.328146 
L 132.743988 261.328146 
L 132.743988 260.803898 
L 132.922316 260.803898 
L 133.020593 259.755403 
L 133.040181 259.755403 
L 133.059747 258.706907 
L 133.503723 258.706907 
L 133.503723 258.18266 
L 133.674378 258.18266 
L 133.674378 257.658412 
L 133.899314 257.658412 
L 133.992176 256.609917 
L 134.029181 256.609917 
L 134.029181 256.085669 
L 134.231294 256.085669 
L 134.322384 255.037173 
L 134.39491 255.037173 
L 134.39491 254.512926 
L 134.61067 254.512926 
L 134.61067 253.988678 
L 134.823755 253.988678 
L 134.823755 253.46443 
L 134.981852 253.46443 
L 134.981852 252.940182 
L 135.173129 252.940182 
L 135.224928 251.891687 
L 135.481607 251.891687 
L 135.566322 250.318944 
L 135.633795 250.318944 
L 135.650622 248.746201 
L 135.81799 248.746201 
L 135.81799 248.221953 
L 135.983745 248.221953 
L 135.983745 247.697705 
L 136.294342 247.697705 
L 136.326713 246.64921 
L 136.551614 246.64921 
L 136.551614 246.124962 
L 136.66297 246.124962 
L 136.66297 245.600714 
L 137.039379 245.600714 
L 137.039379 245.076467 
L 137.239877 245.076467 
L 137.301101 244.027971 
L 137.377325 244.027971 
L 137.483475 241.93098 
L 137.558897 241.93098 
L 137.558897 241.406733 
L 137.857318 241.406733 
L 137.931121 239.83399 
L 138.121538 239.83399 
L 138.165183 238.785494 
L 138.33866 238.785494 
L 138.410429 237.212751 
L 138.510405 237.212751 
L 138.595638 235.640008 
L 138.652226 235.640008 
L 138.652226 235.11576 
L 138.84883 235.11576 
L 138.890669 233.543017 
L 138.960174 233.543017 
L 138.960174 233.018769 
L 139.438997 233.018769 
L 139.506324 231.446026 
L 139.586771 231.446026 
L 139.653523 230.397531 
L 139.812678 230.397531 
L 139.825874 229.349035 
L 139.94419 229.349035 
L 140.022618 228.30054 
L 140.113666 228.30054 
L 140.217135 227.252044 
L 140.242905 227.252044 
L 140.307161 226.203549 
L 140.396719 226.203549 
L 140.447686 225.155053 
L 140.511183 225.155053 
L 140.612293 224.106558 
L 140.675186 224.106558 
L 140.73785 222.009567 
L 140.837639 222.009567 
L 140.837639 221.485319 
L 141.035496 221.485319 
L 141.121347 219.912576 
L 141.218941 219.912576 
L 141.218941 219.388328 
L 141.352234 219.388328 
L 141.460528 217.815585 
L 141.520398 217.815585 
L 141.55622 216.76709 
L 141.804906 216.76709 
L 141.84014 215.194347 
L 142.061631 215.194347 
L 142.119447 214.145851 
L 142.18857 214.145851 
L 142.245962 213.097356 
L 142.575104 213.097356 
L 142.664803 212.04886 
L 142.84281 212.04886 
L 142.898061 211.000365 
L 142.997068 211.000365 
L 143.106411 208.903374 
L 143.301492 208.903374 
L 143.301492 208.379126 
L 143.600618 208.379126 
L 143.600618 207.854879 
L 143.737748 207.854879 
L 143.821595 206.282136 
L 143.852933 206.282136 
L 143.936221 204.709392 
L 144.091308 204.709392 
L 144.091308 204.185145 
L 144.366985 204.185145 
L 144.467976 202.612401 
L 144.528287 202.612401 
L 144.568377 201.563906 
L 144.77733 201.563906 
L 144.77733 201.039658 
L 144.983773 201.039658 
L 145.071495 199.991163 
L 145.100637 199.991163 
L 145.207068 197.894172 
L 145.303255 197.894172 
L 145.303255 197.369924 
L 145.446535 197.369924 
L 145.446535 196.845677 
L 145.579193 196.845677 
L 145.579193 196.321429 
L 145.701465 196.321429 
L 145.785609 195.272933 
L 145.934188 195.272933 
L 145.99879 193.70019 
L 146.236635 193.70019 
L 146.34531 190.554704 
L 146.426367 190.554704 
L 146.515985 188.981961 
L 146.69383 188.981961 
L 146.799661 186.88497 
L 146.817236 186.88497 
L 146.817236 186.360722 
L 147.035425 186.360722 
L 147.12193 184.263731 
L 147.293646 184.263731 
L 147.404349 183.215236 
L 147.421317 183.215236 
L 147.421317 182.690988 
L 147.673848 182.690988 
L 147.782136 179.545502 
L 147.864973 179.545502 
L 147.963853 177.972759 
L 148.029459 177.972759 
L 148.1274 176.400016 
L 148.143669 176.400016 
L 148.208593 175.35152 
L 148.257126 175.35152 
L 148.353782 173.254529 
L 148.377861 173.254529 
L 148.377861 172.730281 
L 148.521633 172.730281 
L 148.63263 171.157538 
L 148.695737 171.157538 
L 148.766456 169.584795 
L 148.899248 169.584795 
L 149.000107 168.012052 
L 149.07729 168.012052 
L 149.177112 166.439309 
L 149.268744 166.439309 
L 149.359891 164.866566 
L 149.412837 164.866566 
L 149.488193 163.81807 
L 149.585664 163.81807 
L 149.682586 162.245327 
L 149.80851 162.245327 
L 149.882155 161.196832 
L 149.926191 161.196832 
L 150.035789 160.148336 
L 150.072167 160.148336 
L 150.11572 158.051345 
L 150.252912 158.051345 
L 150.310351 157.00285 
L 150.374741 157.00285 
L 150.453114 155.954354 
L 150.552348 155.954354 
L 150.566477 154.905859 
L 150.777039 154.905859 
L 150.846657 152.28462 
L 150.909073 152.28462 
L 151.012598 150.711877 
L 151.122343 150.711877 
L 151.217797 149.139134 
L 151.265327 149.139134 
L 151.373474 144.945152 
L 151.407131 144.945152 
L 151.467548 143.896657 
L 151.620989 143.896657 
L 151.713722 142.848162 
L 151.759902 142.848162 
L 151.812527 141.275418 
L 151.871538 141.275418 
L 151.982454 139.702675 
L 152.144276 139.702675 
L 152.227825 137.605684 
L 152.336473 137.605684 
L 152.425434 136.032941 
L 152.457095 136.032941 
L 152.55802 133.93595 
L 152.595714 133.93595 
L 152.664606 132.887455 
L 152.720768 132.887455 
L 152.820161 131.838959 
L 152.937447 131.838959 
L 153.011113 130.266216 
L 153.066156 130.266216 
L 153.084464 128.693473 
L 153.224185 128.693473 
L 153.3147 127.644978 
L 153.392762 127.644978 
L 153.458539 124.499491 
L 153.535952 124.499491 
L 153.636661 120.829757 
L 153.830486 120.829757 
L 153.90043 119.781262 
L 153.946902 119.781262 
L 154.016374 117.160023 
L 154.085567 117.160023 
L 154.160213 115.58728 
L 154.314218 115.58728 
L 154.314218 115.063032 
L 154.444329 115.063032 
L 154.539868 113.490289 
L 154.60699 113.490289 
L 154.701632 110.344803 
L 154.845378 110.344803 
L 154.861887 108.77206 
L 154.971544 108.77206 
L 155.042447 107.199317 
L 155.102215 107.199317 
L 155.161776 105.102326 
L 155.215743 105.102326 
L 155.22113 103.529583 
L 155.371297 103.529583 
L 155.477762 101.956839 
L 155.583571 101.956839 
L 155.693974 96.714362 
L 155.746298 96.714362 
L 155.782831 95.141619 
L 155.891966 95.141619 
L 155.969497 93.568876 
L 156.056945 93.568876 
L 156.08258 91.471885 
L 156.200014 91.471885 
L 156.215272 90.42339 
L 156.321704 90.42339 
L 156.346948 89.374894 
L 156.522625 89.374894 
L 156.632139 87.277903 
L 156.656932 87.277903 
L 156.750818 83.608169 
L 156.770519 83.608169 
L 156.853995 82.035426 
L 156.976021 82.035426 
L 157.082693 80.462683 
L 157.227096 80.462683 
L 157.298845 78.88994 
L 157.408281 78.88994 
L 157.493444 76.268701 
L 157.521738 76.268701 
L 157.521738 75.744454 
L 157.648488 75.744454 
L 157.732472 72.074719 
L 157.788234 72.074719 
L 157.885384 69.977729 
L 157.96363 69.977729 
L 158.068927 65.783747 
L 158.11906 65.783747 
L 158.11906 65.259499 
L 158.286622 65.259499 
L 158.367553 62.114013 
L 158.416823 62.114013 
L 158.514942 60.54127 
L 158.572659 60.54127 
L 158.59038 59.492774 
L 158.705118 59.492774 
L 158.744657 57.920031 
L 158.823464 57.920031 
L 158.923639 55.82304 
L 158.958346 55.82304 
L 158.988657 54.250297 
L 159.105074 54.250297 
L 159.113666 53.201802 
L 159.3186 53.201802 
L 159.411718 50.056315 
L 159.453878 50.056315 
L 159.550455 47.435077 
L 159.567196 47.435077 
L 159.588099 46.386581 
L 159.696387 46.386581 
L 159.791615 44.28959 
L 159.816371 44.28959 
L 159.849323 43.241095 
L 159.939617 43.241095 
L 159.988669 41.144104 
L 160.11069 41.144104 
L 160.171377 39.571361 
L 160.24392 39.571361 
L 160.24392 39.047113 
L 160.415988 39.047113 
L 160.415988 38.522865 
L 160.531069 38.522865 
L 160.641455 35.901627 
L 160.645384 35.901627 
L 160.672864 33.804636 
L 160.925957 33.804636 
L 160.956851 32.756141 
L 161.060711 32.756141 
L 161.163946 30.134902 
L 161.175378 30.134902 
L 161.175378 29.610654 
L 161.537258 29.610654 
L 161.633969 28.562159 
L 161.663618 28.562159 
L 161.663618 28.037911 
L 162.008208 28.037911 
L 162.008208 27.513663 
L 333.168 27.513663 
L 333.168 27.513663 
" style="fill:none;stroke:#ff7500;stroke-linecap:square;stroke-width:1.5;"/>
   </g>
   <g id="line2d_54">
    <defs>
     <path d="M 0 -6 
L -1.347084 -1.854102 
L -5.706339 -1.854102 
L -2.179628 0.708204 
L -3.526712 4.854102 
L -0 2.291796 
L 3.526712 4.854102 
L 2.179628 0.708204 
L 5.706339 -1.854102 
L 1.347084 -1.854102 
z
" id="mf452aab841" style="stroke:#ff7500;stroke-linejoin:bevel;stroke-width:1.5;"/>
    </defs>
    <g>
     <use style="fill:none;stroke:#ff7500;stroke-linejoin:bevel;stroke-width:1.5;" x="155.477762" xlink:href="#mf452aab841" y="101.956839"/>
     <use style="fill:none;stroke:#ff7500;stroke-linejoin:bevel;stroke-width:1.5;" x="162.008208" xlink:href="#mf452aab841" y="28.037911"/>
     <use style="fill:none;stroke:#ff7500;stroke-linejoin:bevel;stroke-width:1.5;" x="162.008208" xlink:href="#mf452aab841" y="27.513663"/>
     <use style="fill:none;stroke:#ff7500;stroke-linejoin:bevel;stroke-width:1.5;" x="162.008208" xlink:href="#mf452aab841" y="27.513663"/>
     <use style="fill:none;stroke:#ff7500;stroke-linejoin:bevel;stroke-width:1.5;" x="333.168" xlink:href="#mf452aab841" y="27.513663"/>
    </g>
   </g>
   <g id="line2d_55">
    <path style="fill:none;stroke:#ff7500;stroke-linecap:square;stroke-width:1.5;"/>
    <g/>
   </g>
   <g id="line2d_56">
    <path d="M 333.168 27.513663 
L 363.64328 289.532673 
" style="fill:none;stroke:#000080;stroke-linecap:square;stroke-width:1.5;"/>
    <g>
     <use style="fill:none;stroke:#000080;stroke-width:1.5;" x="333.168" xlink:href="#m0ae70cd2af" y="27.513663"/>
     <use style="fill:none;stroke:#000080;stroke-width:1.5;" x="363.64328" xlink:href="#m0ae70cd2af" y="289.532673"/>
    </g>
   </g>
   <g id="line2d_57">
    <path d="M 333.168 27.513663 
L 363.64328 203.975446 
" style="fill:none;stroke:#ff00ff;stroke-linecap:square;stroke-width:1.5;"/>
    <g>
     <use style="fill:none;stroke:#ff00ff;stroke-linejoin:miter;stroke-width:1.5;" x="333.168" xlink:href="#m6c1dd5b889" y="27.513663"/>
     <use style="fill:none;stroke:#ff00ff;stroke-linejoin:miter;stroke-width:1.5;" x="363.64328" xlink:href="#m6c1dd5b889" y="203.975446"/>
    </g>
   </g>
   <g id="line2d_58">
    <path d="M 333.168 27.513663 
L 363.64328 118.418218 
" style="fill:none;stroke:#ff7500;stroke-linecap:square;stroke-width:1.5;"/>
    <g>
     <use style="fill:none;stroke:#ff7500;stroke-linejoin:bevel;stroke-width:1.5;" x="333.168" xlink:href="#mf452aab841" y="27.513663"/>
     <use style="fill:none;stroke:#ff7500;stroke-linejoin:bevel;stroke-width:1.5;" x="363.64328" xlink:href="#mf452aab841" y="118.418218"/>
    </g>
   </g>
   <g id="line2d_59">
    <path d="M 333.168 294.88 
L 333.168 27.513663 
" style="fill:none;stroke:#000000;stroke-linecap:square;stroke-width:1.5;"/>
   </g>
   <g id="patch_3">
    <path d="M 56.12 294.88 
L 56.12 24.84 
" style="fill:none;stroke:#000000;stroke-linecap:square;stroke-linejoin:miter;stroke-width:0.8;"/>
   </g>
   <g id="patch_4">
    <path d="M 333.168 294.88 
L 333.168 24.84 
" style="fill:none;stroke:#000000;stroke-linecap:square;stroke-linejoin:miter;stroke-width:0.8;"/>
   </g>
   <g id="patch_5">
    <path d="M 56.12 294.88 
L 333.168 294.88 
" style="fill:none;stroke:#000000;stroke-linecap:square;stroke-linejoin:miter;stroke-width:0.8;"/>
   </g>
   <g id="patch_6">
    <path d="M 56.12 24.84 
L 333.168 24.84 
" style="fill:none;stroke:#000000;stroke-linecap:square;stroke-linejoin:miter;stroke-width:0.8;"/>
   </g>
   <g id="text_13">
    <!-- CMA ES PPM -->
    <defs>
     <path d="M 64.40625 67.28125 
L 64.40625 56.890625 
Q 59.421875 61.53125 53.78125 63.8125 
Q 48.140625 66.109375 41.796875 66.109375 
Q 29.296875 66.109375 22.65625 58.46875 
Q 16.015625 50.828125 16.015625 36.375 
Q 16.015625 21.96875 22.65625 14.328125 
Q 29.296875 6.6875 41.796875 6.6875 
Q 48.140625 6.6875 53.78125 8.984375 
Q 59.421875 11.28125 64.40625 15.921875 
L 64.40625 5.609375 
Q 59.234375 2.09375 53.4375 0.328125 
Q 47.65625 -1.421875 41.21875 -1.421875 
Q 24.65625 -1.421875 15.125 8.703125 
Q 5.609375 18.84375 5.609375 36.375 
Q 5.609375 53.953125 15.125 64.078125 
Q 24.65625 74.21875 41.21875 74.21875 
Q 47.75 74.21875 53.53125 72.484375 
Q 59.328125 70.75 64.40625 67.28125 
z
" id="DejaVuSans-43"/>
     <path d="M 9.8125 72.90625 
L 24.515625 72.90625 
L 43.109375 23.296875 
L 61.8125 72.90625 
L 76.515625 72.90625 
L 76.515625 0 
L 66.890625 0 
L 66.890625 64.015625 
L 48.09375 14.015625 
L 38.1875 14.015625 
L 19.390625 64.015625 
L 19.390625 0 
L 9.8125 0 
z
" id="DejaVuSans-4d"/>
     <path d="M 34.1875 63.1875 
L 20.796875 26.90625 
L 47.609375 26.90625 
z
M 28.609375 72.90625 
L 39.796875 72.90625 
L 67.578125 0 
L 57.328125 0 
L 50.6875 18.703125 
L 17.828125 18.703125 
L 11.1875 0 
L 0.78125 0 
z
" id="DejaVuSans-41"/>
     <path d="M 9.8125 72.90625 
L 55.90625 72.90625 
L 55.90625 64.59375 
L 19.671875 64.59375 
L 19.671875 43.015625 
L 54.390625 43.015625 
L 54.390625 34.71875 
L 19.671875 34.71875 
L 19.671875 8.296875 
L 56.78125 8.296875 
L 56.78125 0 
L 9.8125 0 
z
" id="DejaVuSans-45"/>
     <path d="M 53.515625 70.515625 
L 53.515625 60.890625 
Q 47.90625 63.578125 42.921875 64.890625 
Q 37.9375 66.21875 33.296875 66.21875 
Q 25.25 66.21875 20.875 63.09375 
Q 16.5 59.96875 16.5 54.203125 
Q 16.5 49.359375 19.40625 46.890625 
Q 22.3125 44.4375 30.421875 42.921875 
L 36.375 41.703125 
Q 47.40625 39.59375 52.65625 34.296875 
Q 57.90625 29 57.90625 20.125 
Q 57.90625 9.515625 50.796875 4.046875 
Q 43.703125 -1.421875 29.984375 -1.421875 
Q 24.8125 -1.421875 18.96875 -0.25 
Q 13.140625 0.921875 6.890625 3.21875 
L 6.890625 13.375 
Q 12.890625 10.015625 18.65625 8.296875 
Q 24.421875 6.59375 29.984375 6.59375 
Q 38.421875 6.59375 43.015625 9.90625 
Q 47.609375 13.234375 47.609375 19.390625 
Q 47.609375 24.75 44.3125 27.78125 
Q 41.015625 30.8125 33.5 32.328125 
L 27.484375 33.5 
Q 16.453125 35.6875 11.515625 40.375 
Q 6.59375 45.0625 6.59375 53.421875 
Q 6.59375 63.09375 13.40625 68.65625 
Q 20.21875 74.21875 32.171875 74.21875 
Q 37.3125 74.21875 42.625 73.28125 
Q 47.953125 72.359375 53.515625 70.515625 
z
" id="DejaVuSans-53"/>
     <path d="M 19.671875 64.796875 
L 19.671875 37.40625 
L 32.078125 37.40625 
Q 38.96875 37.40625 42.71875 40.96875 
Q 46.484375 44.53125 46.484375 51.125 
Q 46.484375 57.671875 42.71875 61.234375 
Q 38.96875 64.796875 32.078125 64.796875 
z
M 9.8125 72.90625 
L 32.078125 72.90625 
Q 44.34375 72.90625 50.609375 67.359375 
Q 56.890625 61.8125 56.890625 51.125 
Q 56.890625 40.328125 50.609375 34.8125 
Q 44.34375 29.296875 32.078125 29.296875 
L 19.671875 29.296875 
L 19.671875 0 
L 9.8125 0 
z
" id="DejaVuSans-50"/>
    </defs>
    <g transform="translate(369.18424 294.223611)scale(0.17 -0.17)">
     <use xlink:href="#DejaVuSans-43"/>
     <use x="69.824219" xlink:href="#DejaVuSans-4d"/>
     <use x="156.103516" xlink:href="#DejaVuSans-41"/>
     <use x="224.511719" xlink:href="#DejaVuSans-20"/>
     <use x="256.298828" xlink:href="#DejaVuSans-45"/>
     <use x="319.482422" xlink:href="#DejaVuSans-53"/>
     <use x="382.958984" xlink:href="#DejaVuSans-20"/>
     <use x="414.746094" xlink:href="#DejaVuSans-50"/>
     <use x="475.048828" xlink:href="#DejaVuSans-50"/>
     <use x="535.351562" xlink:href="#DejaVuSans-4d"/>
    </g>
   </g>
   <g id="text_14">
    <!-- CMA ES CSA -->
    <g transform="translate(369.18424 208.666383)scale(0.17 -0.17)">
     <use xlink:href="#DejaVuSans-43"/>
     <use x="69.824219" xlink:href="#DejaVuSans-4d"/>
     <use x="156.103516" xlink:href="#DejaVuSans-41"/>
     <use x="224.511719" xlink:href="#DejaVuSans-20"/>
     <use x="256.298828" xlink:href="#DejaVuSans-45"/>
     <use x="319.482422" xlink:href="#DejaVuSans-53"/>
     <use x="382.958984" xlink:href="#DejaVuSans-20"/>
     <use x="414.746094" xlink:href="#DejaVuSans-43"/>
     <use x="484.570312" xlink:href="#DejaVuSans-53"/>
     <use x="548.0625" xlink:href="#DejaVuSans-41"/>
    </g>
   </g>
   <g id="text_15">
    <!-- CMAES posi -->
    <g transform="translate(369.18424 123.109155)scale(0.17 -0.17)">
     <use xlink:href="#DejaVuSans-43"/>
     <use x="69.824219" xlink:href="#DejaVuSans-4d"/>
     <use x="156.103516" xlink:href="#DejaVuSans-41"/>
     <use x="224.511719" xlink:href="#DejaVuSans-45"/>
     <use x="287.695312" xlink:href="#DejaVuSans-53"/>
     <use x="351.171875" xlink:href="#DejaVuSans-20"/>
     <use x="382.958984" xlink:href="#DejaVuSans-70"/>
     <use x="446.435547" xlink:href="#DejaVuSans-6f"/>
     <use x="507.617188" xlink:href="#DejaVuSans-73"/>
     <use x="559.716797" xlink:href="#DejaVuSans-69"/>
    </g>
   </g>
   <g id="text_16">
    <!-- best 2009 -->
    <defs>
     <path d="M 48.6875 27.296875 
Q 48.6875 37.203125 44.609375 42.84375 
Q 40.53125 48.484375 33.40625 48.484375 
Q 26.265625 48.484375 22.1875 42.84375 
Q 18.109375 37.203125 18.109375 27.296875 
Q 18.109375 17.390625 22.1875 11.75 
Q 26.265625 6.109375 33.40625 6.109375 
Q 40.53125 6.109375 44.609375 11.75 
Q 48.6875 17.390625 48.6875 27.296875 
z
M 18.109375 46.390625 
Q 20.953125 51.265625 25.265625 53.625 
Q 29.59375 56 35.59375 56 
Q 45.5625 56 51.78125 48.09375 
Q 58.015625 40.1875 58.015625 27.296875 
Q 58.015625 14.40625 51.78125 6.484375 
Q 45.5625 -1.421875 35.59375 -1.421875 
Q 29.59375 -1.421875 25.265625 0.953125 
Q 20.953125 3.328125 18.109375 8.203125 
L 18.109375 0 
L 9.078125 0 
L 9.078125 75.984375 
L 18.109375 75.984375 
z
" id="DejaVuSans-62"/>
     <path d="M 10.984375 1.515625 
L 10.984375 10.5 
Q 14.703125 8.734375 18.5 7.8125 
Q 22.3125 6.890625 25.984375 6.890625 
Q 35.75 6.890625 40.890625 13.453125 
Q 46.046875 20.015625 46.78125 33.40625 
Q 43.953125 29.203125 39.59375 26.953125 
Q 35.25 24.703125 29.984375 24.703125 
Q 19.046875 24.703125 12.671875 31.3125 
Q 6.296875 37.9375 6.296875 49.421875 
Q 6.296875 60.640625 12.9375 67.421875 
Q 19.578125 74.21875 30.609375 74.21875 
Q 43.265625 74.21875 49.921875 64.515625 
Q 56.59375 54.828125 56.59375 36.375 
Q 56.59375 19.140625 48.40625 8.859375 
Q 40.234375 -1.421875 26.421875 -1.421875 
Q 22.703125 -1.421875 18.890625 -0.6875 
Q 15.09375 0.046875 10.984375 1.515625 
z
M 30.609375 32.421875 
Q 37.25 32.421875 41.125 36.953125 
Q 45.015625 41.5 45.015625 49.421875 
Q 45.015625 57.28125 41.125 61.84375 
Q 37.25 66.40625 30.609375 66.40625 
Q 23.96875 66.40625 20.09375 61.84375 
Q 16.21875 57.28125 16.21875 49.421875 
Q 16.21875 41.5 20.09375 36.953125 
Q 23.96875 32.421875 30.609375 32.421875 
z
" id="DejaVuSans-39"/>
    </defs>
    <g transform="translate(369.18424 37.551928)scale(0.17 -0.17)">
     <use xlink:href="#DejaVuSans-62"/>
     <use x="63.476562" xlink:href="#DejaVuSans-65"/>
     <use x="125" xlink:href="#DejaVuSans-73"/>
     <use x="177.099609" xlink:href="#DejaVuSans-74"/>
     <use x="216.308594" xlink:href="#DejaVuSans-20"/>
     <use x="248.095703" xlink:href="#DejaVuSans-32"/>
     <use x="311.71875" xlink:href="#DejaVuSans-30"/>
     <use x="375.341797" xlink:href="#DejaVuSans-30"/>
     <use x="438.964844" xlink:href="#DejaVuSans-39"/>
    </g>
   </g>
   <g id="text_17">
    <!-- bbob f6, 10-D -->
    <defs>
     <path d="M 19.671875 64.796875 
L 19.671875 8.109375 
L 31.59375 8.109375 
Q 46.6875 8.109375 53.6875 14.9375 
Q 60.6875 21.78125 60.6875 36.53125 
Q 60.6875 51.171875 53.6875 57.984375 
Q 46.6875 64.796875 31.59375 64.796875 
z
M 9.8125 72.90625 
L 30.078125 72.90625 
Q 51.265625 72.90625 61.171875 64.09375 
Q 71.09375 55.28125 71.09375 36.53125 
Q 71.09375 17.671875 61.125 8.828125 
Q 51.171875 0 30.078125 0 
L 9.8125 0 
z
" id="DejaVuSans-44"/>
    </defs>
    <g transform="translate(58.89048 35.290806)scale(0.102 -0.102)">
     <use xlink:href="#DejaVuSans-62"/>
     <use x="63.476562" xlink:href="#DejaVuSans-62"/>
     <use x="126.953125" xlink:href="#DejaVuSans-6f"/>
     <use x="188.134766" xlink:href="#DejaVuSans-62"/>
     <use x="251.611328" xlink:href="#DejaVuSans-20"/>
     <use x="283.398438" xlink:href="#DejaVuSans-66"/>
     <use x="318.603516" xlink:href="#DejaVuSans-36"/>
     <use x="382.226562" xlink:href="#DejaVuSans-2c"/>
     <use x="414.013672" xlink:href="#DejaVuSans-20"/>
     <use x="445.800781" xlink:href="#DejaVuSans-31"/>
     <use x="509.423828" xlink:href="#DejaVuSans-30"/>
     <use x="573.046875" xlink:href="#DejaVuSans-2d"/>
     <use x="609.130859" xlink:href="#DejaVuSans-44"/>
    </g>
    <!-- 51 targets: 100..1e-08 -->
    <defs>
     <path d="M 10.796875 72.90625 
L 49.515625 72.90625 
L 49.515625 64.59375 
L 19.828125 64.59375 
L 19.828125 46.734375 
Q 21.96875 47.46875 24.109375 47.828125 
Q 26.265625 48.1875 28.421875 48.1875 
Q 40.625 48.1875 47.75 41.5 
Q 54.890625 34.8125 54.890625 23.390625 
Q 54.890625 11.625 47.5625 5.09375 
Q 40.234375 -1.421875 26.90625 -1.421875 
Q 22.3125 -1.421875 17.546875 -0.640625 
Q 12.796875 0.140625 7.71875 1.703125 
L 7.71875 11.625 
Q 12.109375 9.234375 16.796875 8.0625 
Q 21.484375 6.890625 26.703125 6.890625 
Q 35.15625 6.890625 40.078125 11.328125 
Q 45.015625 15.765625 45.015625 23.390625 
Q 45.015625 31 40.078125 35.4375 
Q 35.15625 39.890625 26.703125 39.890625 
Q 22.75 39.890625 18.8125 39.015625 
Q 14.890625 38.140625 10.796875 36.28125 
z
" id="DejaVuSans-35"/>
     <path d="M 11.71875 12.40625 
L 22.015625 12.40625 
L 22.015625 0 
L 11.71875 0 
z
M 11.71875 51.703125 
L 22.015625 51.703125 
L 22.015625 39.3125 
L 11.71875 39.3125 
z
" id="DejaVuSans-3a"/>
    </defs>
    <g transform="translate(58.89048 46.712575)scale(0.102 -0.102)">
     <use xlink:href="#DejaVuSans-35"/>
     <use x="63.623047" xlink:href="#DejaVuSans-31"/>
     <use x="127.246094" xlink:href="#DejaVuSans-20"/>
     <use x="159.033203" xlink:href="#DejaVuSans-74"/>
     <use x="198.242188" xlink:href="#DejaVuSans-61"/>
     <use x="259.521484" xlink:href="#DejaVuSans-72"/>
     <use x="300.619141" xlink:href="#DejaVuSans-67"/>
     <use x="364.095703" xlink:href="#DejaVuSans-65"/>
     <use x="425.619141" xlink:href="#DejaVuSans-74"/>
     <use x="464.828125" xlink:href="#DejaVuSans-73"/>
     <use x="516.927734" xlink:href="#DejaVuSans-3a"/>
     <use x="550.619141" xlink:href="#DejaVuSans-20"/>
     <use x="582.40625" xlink:href="#DejaVuSans-31"/>
     <use x="646.029297" xlink:href="#DejaVuSans-30"/>
     <use x="709.652344" xlink:href="#DejaVuSans-30"/>
     <use x="773.275391" xlink:href="#DejaVuSans-2e"/>
     <use x="805.0625" xlink:href="#DejaVuSans-2e"/>
     <use x="836.849609" xlink:href="#DejaVuSans-31"/>
     <use x="900.472656" xlink:href="#DejaVuSans-65"/>
     <use x="961.996094" xlink:href="#DejaVuSans-2d"/>
     <use x="998.080078" xlink:href="#DejaVuSans-30"/>
     <use x="1061.703125" xlink:href="#DejaVuSans-38"/>
    </g>
    <!-- 15 instances -->
    <g transform="translate(58.89048 58.134344)scale(0.102 -0.102)">
     <use xlink:href="#DejaVuSans-31"/>
     <use x="63.623047" xlink:href="#DejaVuSans-35"/>
     <use x="127.246094" xlink:href="#DejaVuSans-20"/>
     <use x="159.033203" xlink:href="#DejaVuSans-69"/>
     <use x="186.816406" xlink:href="#DejaVuSans-6e"/>
     <use x="250.195312" xlink:href="#DejaVuSans-73"/>
     <use x="302.294922" xlink:href="#DejaVuSans-74"/>
     <use x="341.503906" xlink:href="#DejaVuSans-61"/>
     <use x="402.783203" xlink:href="#DejaVuSans-6e"/>
     <use x="466.162109" xlink:href="#DejaVuSans-63"/>
     <use x="521.142578" xlink:href="#DejaVuSans-65"/>
     <use x="582.666016" xlink:href="#DejaVuSans-73"/>
    </g>
   </g>
   <g id="text_18">
    <!-- v0.0.0 -->
    <g style="fill:#808080;" transform="translate(178.96275 290.099912)scale(0.1 -0.1)">
     <use xlink:href="#DejaVuSans-76"/>
     <use x="59.179688" xlink:href="#DejaVuSans-30"/>
     <use x="122.802734" xlink:href="#DejaVuSans-2e"/>
     <use x="154.589844" xlink:href="#DejaVuSans-30"/>
     <use x="218.212891" xlink:href="#DejaVuSans-2e"/>
     <use x="250" xlink:href="#DejaVuSans-30"/>
    </g>
   </g>
   <g id="text_19">
    <!-- 6 Attractive sector -->
    <g transform="translate(101.726812 18.84)scale(0.2 -0.2)">
     <use xlink:href="#DejaVuSans-36"/>
     <use x="63.623047" xlink:href="#DejaVuSans-20"/>
     <use x="95.410156" xlink:href="#DejaVuSans-41"/>
     <use x="163.802734" xlink:href="#DejaVuSans-74"/>
     <use x="203.011719" xlink:href="#DejaVuSans-74"/>
     <use x="242.220703" xlink:href="#DejaVuSans-72"/>
     <use x="283.333984" xlink:href="#DejaVuSans-61"/>
     <use x="344.613281" xlink:href="#DejaVuSans-63"/>
     <use x="399.59375" xlink:href="#DejaVuSans-74"/>
     <use x="438.802734" xlink:href="#DejaVuSans-69"/>
     <use x="466.585938" xlink:href="#DejaVuSans-76"/>
     <use x="525.765625" xlink:href="#DejaVuSans-65"/>
     <use x="587.289062" xlink:href="#DejaVuSans-20"/>
     <use x="619.076172" xlink:href="#DejaVuSans-73"/>
     <use x="671.175781" xlink:href="#DejaVuSans-65"/>
     <use x="732.699219" xlink:href="#DejaVuSans-63"/>
     <use x="787.679688" xlink:href="#DejaVuSans-74"/>
     <use x="826.888672" xlink:href="#DejaVuSans-6f"/>
     <use x="888.070312" xlink:href="#DejaVuSans-72"/>
    </g>
   </g>
  </g>
 </g>
 <defs>
  <clipPath id="p029e68caf6">
   <rect height="270.04" width="277.048" x="56.12" y="24.84"/>
  </clipPath>
 </defs>
</svg>
