<?xml version="1.0" encoding="utf-8" standalone="no"?>
<!DOCTYPE svg PUBLIC "-//W3C//DTD SVG 1.1//EN"
  "http://www.w3.org/Graphics/SVG/1.1/DTD/svg11.dtd">
<!-- Created with matplotlib (http://matplotlib.org/) -->
<svg height="345pt" version="1.1" viewBox="0 0 460 345" width="460pt" xmlns="http://www.w3.org/2000/svg" xmlns:xlink="http://www.w3.org/1999/xlink">
 <defs>
  <style type="text/css">
*{stroke-linecap:butt;stroke-linejoin:round;}
  </style>
 </defs>
 <g id="figure_1">
  <g id="patch_1">
   <path d="M 0 345.6 
L 460.8 345.6 
L 460.8 0 
L 0 0 
z
" style="fill:#ffffff;"/>
  </g>
  <g id="axes_1">
   <g id="patch_2">
    <path d="M 56.12 294.88 
L 333.168 294.88 
L 333.168 24.84 
L 56.12 24.84 
z
" style="fill:#ffffff;"/>
   </g>
   <g id="line2d_1">
    <path d="M 4.627463 294.88 
L 4.627463 289.637523 
L 61.593784 289.637523 
L 61.593784 284.395046 
L 92.33951 284.395046 
L 92.33951 279.152568 
L 102.055293 279.152568 
L 102.055293 273.910091 
L 111.550893 273.910091 
L 111.550893 268.667614 
L 117.739642 268.667614 
L 117.739642 263.425137 
L 123.413809 263.425137 
L 123.413809 258.18266 
L 128.966864 258.18266 
L 128.966864 252.940182 
L 139.756479 252.940182 
L 139.756479 247.697705 
L 147.531203 247.697705 
L 147.531203 242.455228 
L 160.145106 242.455228 
L 160.145106 237.212751 
L 162.392228 237.212751 
L 162.392228 231.970274 
L 164.428189 231.970274 
L 164.428189 226.727797 
L 166.424671 226.727797 
L 166.424671 221.485319 
L 176.657178 221.485319 
L 176.657178 216.242842 
L 177.651687 216.242842 
L 177.651687 211.000365 
L 178.802095 211.000365 
L 178.802095 205.757888 
L 180.579013 205.757888 
L 180.579013 200.515411 
L 190.31674 200.515411 
L 190.31674 195.272933 
L 193.691452 195.272933 
L 193.691452 190.030456 
L 194.736142 190.030456 
L 194.736142 184.787979 
L 195.947292 184.787979 
L 195.947292 179.545502 
L 197.258666 179.545502 
L 197.258666 174.303025 
L 199.617597 174.303025 
L 199.617597 169.060547 
L 200.576564 169.060547 
L 200.576564 163.81807 
L 201.400852 163.81807 
L 201.400852 158.575593 
L 201.672476 158.575593 
L 201.672476 153.333116 
L 203.201139 153.333116 
L 203.201139 148.090639 
L 204.947196 148.090639 
L 204.947196 142.848162 
L 206.506794 142.848162 
L 206.506794 137.605684 
L 206.819859 137.605684 
L 206.819859 132.363207 
L 207.56852 132.363207 
L 207.56852 127.12073 
L 211.032625 127.12073 
L 211.032625 121.878253 
L 214.713215 121.878253 
L 214.713215 116.635776 
L 221.031757 116.635776 
L 221.031757 111.393298 
L 223.326028 111.393298 
L 223.326028 106.150821 
L 223.380118 106.150821 
L 223.380118 100.908344 
L 223.473269 100.908344 
L 223.473269 95.665867 
L 223.586493 95.665867 
L 223.586493 90.42339 
L 228.883744 90.42339 
L 228.883744 85.180912 
L 228.93097 85.180912 
L 228.93097 79.938435 
L 228.99128 79.938435 
L 228.99128 74.695958 
L 229.088515 74.695958 
L 229.088515 69.453481 
L 229.161634 69.453481 
L 229.161634 64.211004 
L 229.219361 64.211004 
L 229.219361 58.968526 
L 229.291419 58.968526 
L 229.291419 53.726049 
L 231.214818 53.726049 
L 231.214818 48.483572 
L 231.275816 48.483572 
L 231.275816 43.241095 
L 231.335553 43.241095 
L 231.335553 37.998618 
L 231.389909 37.998618 
L 231.389909 32.756141 
L 231.445579 32.756141 
L 231.445579 27.513663 
L 333.168 27.513663 
" style="fill:none;stroke:#f5deb3;stroke-linecap:square;stroke-width:4;"/>
   </g>
   <g id="line2d_2">
    <defs>
     <path d="M -0 7.778175 
L 7.778175 0 
L 0 -7.778175 
L -7.778175 -0 
z
" id="m2a324c9eae" style="stroke:#f5deb3;stroke-linejoin:miter;stroke-width:1.5;"/>
    </defs>
    <g>
     <use style="fill:#f5deb3;stroke:#f5deb3;stroke-linejoin:miter;stroke-width:1.5;" x="139.756479" xlink:href="#m2a324c9eae" y="247.697705"/>
     <use style="fill:#f5deb3;stroke:#f5deb3;stroke-linejoin:miter;stroke-width:1.5;" x="197.258666" xlink:href="#m2a324c9eae" y="174.303025"/>
     <use style="fill:#f5deb3;stroke:#f5deb3;stroke-linejoin:miter;stroke-width:1.5;" x="228.883744" xlink:href="#m2a324c9eae" y="90.42339"/>
     <use style="fill:#f5deb3;stroke:#f5deb3;stroke-linejoin:miter;stroke-width:1.5;" x="231.445579" xlink:href="#m2a324c9eae" y="27.513663"/>
     <use style="fill:#f5deb3;stroke:#f5deb3;stroke-linejoin:miter;stroke-width:1.5;" x="231.445579" xlink:href="#m2a324c9eae" y="27.513663"/>
     <use style="fill:#f5deb3;stroke:#f5deb3;stroke-linejoin:miter;stroke-width:1.5;" x="333.168" xlink:href="#m2a324c9eae" y="27.513663"/>
    </g>
   </g>
   <g id="line2d_3">
    <path style="fill:none;stroke:#f5deb3;stroke-linecap:square;stroke-width:4;"/>
    <g/>
   </g>
   <g id="line2d_4">
    <path d="M 333.168 27.513663 
L 363.64328 32.86099 
" style="fill:none;stroke:#f5deb3;stroke-linecap:square;stroke-width:4;"/>
    <g>
     <use style="fill:#f5deb3;stroke:#f5deb3;stroke-linejoin:miter;stroke-width:1.5;" x="333.168" xlink:href="#m2a324c9eae" y="27.513663"/>
     <use style="fill:#f5deb3;stroke:#f5deb3;stroke-linejoin:miter;stroke-width:1.5;" x="363.64328" xlink:href="#m2a324c9eae" y="32.86099"/>
    </g>
   </g>
   <g id="matplotlib.axis_1">
    <g id="xtick_1">
     <g id="line2d_5">
      <path clip-path="url(#pafb65b9e33)" d="M 56.12 294.88 
L 56.12 24.84 
" style="fill:none;stroke:#b0b0b0;stroke-linecap:square;stroke-width:0.8;"/>
     </g>
     <g id="line2d_6">
      <defs>
       <path d="M 0 0 
L 0 3.5 
" id="mb4312f78cc" style="stroke:#000000;stroke-width:0.8;"/>
      </defs>
      <g>
       <use style="stroke:#000000;stroke-width:0.8;" x="56.12" xlink:href="#mb4312f78cc" y="294.88"/>
      </g>
     </g>
     <g id="text_1">
      <!-- 0 -->
      <defs>
       <path d="M 31.78125 66.40625 
Q 24.171875 66.40625 20.328125 58.90625 
Q 16.5 51.421875 16.5 36.375 
Q 16.5 21.390625 20.328125 13.890625 
Q 24.171875 6.390625 31.78125 6.390625 
Q 39.453125 6.390625 43.28125 13.890625 
Q 47.125 21.390625 47.125 36.375 
Q 47.125 51.421875 43.28125 58.90625 
Q 39.453125 66.40625 31.78125 66.40625 
z
M 31.78125 74.21875 
Q 44.046875 74.21875 50.515625 64.515625 
Q 56.984375 54.828125 56.984375 36.375 
Q 56.984375 17.96875 50.515625 8.265625 
Q 44.046875 -1.421875 31.78125 -1.421875 
Q 19.53125 -1.421875 13.0625 8.265625 
Q 6.59375 17.96875 6.59375 36.375 
Q 6.59375 54.828125 13.0625 64.515625 
Q 19.53125 74.21875 31.78125 74.21875 
z
" id="DejaVuSans-30"/>
      </defs>
      <g transform="translate(49.7575 317.076875)scale(0.2 -0.2)">
       <use xlink:href="#DejaVuSans-30"/>
      </g>
     </g>
    </g>
    <g id="xtick_2">
     <g id="line2d_7">
      <path clip-path="url(#pafb65b9e33)" d="M 135.276571 294.88 
L 135.276571 24.84 
" style="fill:none;stroke:#b0b0b0;stroke-linecap:square;stroke-width:0.8;"/>
     </g>
     <g id="line2d_8">
      <g>
       <use style="stroke:#000000;stroke-width:0.8;" x="135.276571" xlink:href="#mb4312f78cc" y="294.88"/>
      </g>
     </g>
     <g id="text_2">
      <!-- 2 -->
      <defs>
       <path d="M 19.1875 8.296875 
L 53.609375 8.296875 
L 53.609375 0 
L 7.328125 0 
L 7.328125 8.296875 
Q 12.9375 14.109375 22.625 23.890625 
Q 32.328125 33.6875 34.8125 36.53125 
Q 39.546875 41.84375 41.421875 45.53125 
Q 43.3125 49.21875 43.3125 52.78125 
Q 43.3125 58.59375 39.234375 62.25 
Q 35.15625 65.921875 28.609375 65.921875 
Q 23.96875 65.921875 18.8125 64.3125 
Q 13.671875 62.703125 7.8125 59.421875 
L 7.8125 69.390625 
Q 13.765625 71.78125 18.9375 73 
Q 24.125 74.21875 28.421875 74.21875 
Q 39.75 74.21875 46.484375 68.546875 
Q 53.21875 62.890625 53.21875 53.421875 
Q 53.21875 48.921875 51.53125 44.890625 
Q 49.859375 40.875 45.40625 35.40625 
Q 44.1875 33.984375 37.640625 27.21875 
Q 31.109375 20.453125 19.1875 8.296875 
z
" id="DejaVuSans-32"/>
      </defs>
      <g transform="translate(128.914071 317.076875)scale(0.2 -0.2)">
       <use xlink:href="#DejaVuSans-32"/>
      </g>
     </g>
    </g>
    <g id="xtick_3">
     <g id="line2d_9">
      <path clip-path="url(#pafb65b9e33)" d="M 214.433143 294.88 
L 214.433143 24.84 
" style="fill:none;stroke:#b0b0b0;stroke-linecap:square;stroke-width:0.8;"/>
     </g>
     <g id="line2d_10">
      <g>
       <use style="stroke:#000000;stroke-width:0.8;" x="214.433143" xlink:href="#mb4312f78cc" y="294.88"/>
      </g>
     </g>
     <g id="text_3">
      <!-- 4 -->
      <defs>
       <path d="M 37.796875 64.3125 
L 12.890625 25.390625 
L 37.796875 25.390625 
z
M 35.203125 72.90625 
L 47.609375 72.90625 
L 47.609375 25.390625 
L 58.015625 25.390625 
L 58.015625 17.1875 
L 47.609375 17.1875 
L 47.609375 0 
L 37.796875 0 
L 37.796875 17.1875 
L 4.890625 17.1875 
L 4.890625 26.703125 
z
" id="DejaVuSans-34"/>
      </defs>
      <g transform="translate(208.070643 317.076875)scale(0.2 -0.2)">
       <use xlink:href="#DejaVuSans-34"/>
      </g>
     </g>
    </g>
    <g id="xtick_4">
     <g id="line2d_11">
      <path clip-path="url(#pafb65b9e33)" d="M 293.589714 294.88 
L 293.589714 24.84 
" style="fill:none;stroke:#b0b0b0;stroke-linecap:square;stroke-width:0.8;"/>
     </g>
     <g id="line2d_12">
      <g>
       <use style="stroke:#000000;stroke-width:0.8;" x="293.589714" xlink:href="#mb4312f78cc" y="294.88"/>
      </g>
     </g>
     <g id="text_4">
      <!-- 6 -->
      <defs>
       <path d="M 33.015625 40.375 
Q 26.375 40.375 22.484375 35.828125 
Q 18.609375 31.296875 18.609375 23.390625 
Q 18.609375 15.53125 22.484375 10.953125 
Q 26.375 6.390625 33.015625 6.390625 
Q 39.65625 6.390625 43.53125 10.953125 
Q 47.40625 15.53125 47.40625 23.390625 
Q 47.40625 31.296875 43.53125 35.828125 
Q 39.65625 40.375 33.015625 40.375 
z
M 52.59375 71.296875 
L 52.59375 62.3125 
Q 48.875 64.0625 45.09375 64.984375 
Q 41.3125 65.921875 37.59375 65.921875 
Q 27.828125 65.921875 22.671875 59.328125 
Q 17.53125 52.734375 16.796875 39.40625 
Q 19.671875 43.65625 24.015625 45.921875 
Q 28.375 48.1875 33.59375 48.1875 
Q 44.578125 48.1875 50.953125 41.515625 
Q 57.328125 34.859375 57.328125 23.390625 
Q 57.328125 12.15625 50.6875 5.359375 
Q 44.046875 -1.421875 33.015625 -1.421875 
Q 20.359375 -1.421875 13.671875 8.265625 
Q 6.984375 17.96875 6.984375 36.375 
Q 6.984375 53.65625 15.1875 63.9375 
Q 23.390625 74.21875 37.203125 74.21875 
Q 40.921875 74.21875 44.703125 73.484375 
Q 48.484375 72.75 52.59375 71.296875 
z
" id="DejaVuSans-36"/>
      </defs>
      <g transform="translate(287.227214 317.076875)scale(0.2 -0.2)">
       <use xlink:href="#DejaVuSans-36"/>
      </g>
     </g>
    </g>
    <g id="xtick_5">
     <g id="line2d_13">
      <path clip-path="url(#pafb65b9e33)" d="M 56.12 294.88 
L 56.12 24.84 
" style="fill:none;stroke:#b0b0b0;stroke-linecap:square;stroke-width:0.8;"/>
     </g>
     <g id="line2d_14">
      <defs>
       <path d="M 0 0 
L 0 2 
" id="m9e0e4e904f" style="stroke:#000000;stroke-width:0.6;"/>
      </defs>
      <g>
       <use style="stroke:#000000;stroke-width:0.6;" x="56.12" xlink:href="#m9e0e4e904f" y="294.88"/>
      </g>
     </g>
    </g>
    <g id="xtick_6">
     <g id="line2d_15">
      <path clip-path="url(#pafb65b9e33)" d="M 95.698286 294.88 
L 95.698286 24.84 
" style="fill:none;stroke:#b0b0b0;stroke-linecap:square;stroke-width:0.8;"/>
     </g>
     <g id="line2d_16">
      <g>
       <use style="stroke:#000000;stroke-width:0.6;" x="95.698286" xlink:href="#m9e0e4e904f" y="294.88"/>
      </g>
     </g>
    </g>
    <g id="xtick_7">
     <g id="line2d_17">
      <path clip-path="url(#pafb65b9e33)" d="M 135.276571 294.88 
L 135.276571 24.84 
" style="fill:none;stroke:#b0b0b0;stroke-linecap:square;stroke-width:0.8;"/>
     </g>
     <g id="line2d_18">
      <g>
       <use style="stroke:#000000;stroke-width:0.6;" x="135.276571" xlink:href="#m9e0e4e904f" y="294.88"/>
      </g>
     </g>
    </g>
    <g id="xtick_8">
     <g id="line2d_19">
      <path clip-path="url(#pafb65b9e33)" d="M 174.854857 294.88 
L 174.854857 24.84 
" style="fill:none;stroke:#b0b0b0;stroke-linecap:square;stroke-width:0.8;"/>
     </g>
     <g id="line2d_20">
      <g>
       <use style="stroke:#000000;stroke-width:0.6;" x="174.854857" xlink:href="#m9e0e4e904f" y="294.88"/>
      </g>
     </g>
    </g>
    <g id="xtick_9">
     <g id="line2d_21">
      <path clip-path="url(#pafb65b9e33)" d="M 214.433143 294.88 
L 214.433143 24.84 
" style="fill:none;stroke:#b0b0b0;stroke-linecap:square;stroke-width:0.8;"/>
     </g>
     <g id="line2d_22">
      <g>
       <use style="stroke:#000000;stroke-width:0.6;" x="214.433143" xlink:href="#m9e0e4e904f" y="294.88"/>
      </g>
     </g>
    </g>
    <g id="xtick_10">
     <g id="line2d_23">
      <path clip-path="url(#pafb65b9e33)" d="M 254.011429 294.88 
L 254.011429 24.84 
" style="fill:none;stroke:#b0b0b0;stroke-linecap:square;stroke-width:0.8;"/>
     </g>
     <g id="line2d_24">
      <g>
       <use style="stroke:#000000;stroke-width:0.6;" x="254.011429" xlink:href="#m9e0e4e904f" y="294.88"/>
      </g>
     </g>
    </g>
    <g id="xtick_11">
     <g id="line2d_25">
      <path clip-path="url(#pafb65b9e33)" d="M 293.589714 294.88 
L 293.589714 24.84 
" style="fill:none;stroke:#b0b0b0;stroke-linecap:square;stroke-width:0.8;"/>
     </g>
     <g id="line2d_26">
      <g>
       <use style="stroke:#000000;stroke-width:0.6;" x="293.589714" xlink:href="#m9e0e4e904f" y="294.88"/>
      </g>
     </g>
    </g>
    <g id="xtick_12">
     <g id="line2d_27">
      <path clip-path="url(#pafb65b9e33)" d="M 333.168 294.88 
L 333.168 24.84 
" style="fill:none;stroke:#b0b0b0;stroke-linecap:square;stroke-width:0.8;"/>
     </g>
     <g id="line2d_28">
      <g>
       <use style="stroke:#000000;stroke-width:0.6;" x="333.168" xlink:href="#m9e0e4e904f" y="294.88"/>
      </g>
     </g>
    </g>
    <g id="text_5">
     <!-- log10(# f-evals / dimension) -->
     <defs>
      <path d="M 9.421875 75.984375 
L 18.40625 75.984375 
L 18.40625 0 
L 9.421875 0 
z
" id="DejaVuSans-6c"/>
      <path d="M 30.609375 48.390625 
Q 23.390625 48.390625 19.1875 42.75 
Q 14.984375 37.109375 14.984375 27.296875 
Q 14.984375 17.484375 19.15625 11.84375 
Q 23.34375 6.203125 30.609375 6.203125 
Q 37.796875 6.203125 41.984375 11.859375 
Q 46.1875 17.53125 46.1875 27.296875 
Q 46.1875 37.015625 41.984375 42.703125 
Q 37.796875 48.390625 30.609375 48.390625 
z
M 30.609375 56 
Q 42.328125 56 49.015625 48.375 
Q 55.71875 40.765625 55.71875 27.296875 
Q 55.71875 13.875 49.015625 6.21875 
Q 42.328125 -1.421875 30.609375 -1.421875 
Q 18.84375 -1.421875 12.171875 6.21875 
Q 5.515625 13.875 5.515625 27.296875 
Q 5.515625 40.765625 12.171875 48.375 
Q 18.84375 56 30.609375 56 
z
" id="DejaVuSans-6f"/>
      <path d="M 45.40625 27.984375 
Q 45.40625 37.75 41.375 43.109375 
Q 37.359375 48.484375 30.078125 48.484375 
Q 22.859375 48.484375 18.828125 43.109375 
Q 14.796875 37.75 14.796875 27.984375 
Q 14.796875 18.265625 18.828125 12.890625 
Q 22.859375 7.515625 30.078125 7.515625 
Q 37.359375 7.515625 41.375 12.890625 
Q 45.40625 18.265625 45.40625 27.984375 
z
M 54.390625 6.78125 
Q 54.390625 -7.171875 48.1875 -13.984375 
Q 42 -20.796875 29.203125 -20.796875 
Q 24.46875 -20.796875 20.265625 -20.09375 
Q 16.0625 -19.390625 12.109375 -17.921875 
L 12.109375 -9.1875 
Q 16.0625 -11.328125 19.921875 -12.34375 
Q 23.78125 -13.375 27.78125 -13.375 
Q 36.625 -13.375 41.015625 -8.765625 
Q 45.40625 -4.15625 45.40625 5.171875 
L 45.40625 9.625 
Q 42.625 4.78125 38.28125 2.390625 
Q 33.9375 0 27.875 0 
Q 17.828125 0 11.671875 7.65625 
Q 5.515625 15.328125 5.515625 27.984375 
Q 5.515625 40.671875 11.671875 48.328125 
Q 17.828125 56 27.875 56 
Q 33.9375 56 38.28125 53.609375 
Q 42.625 51.21875 45.40625 46.390625 
L 45.40625 54.6875 
L 54.390625 54.6875 
z
" id="DejaVuSans-67"/>
      <path d="M 12.40625 8.296875 
L 28.515625 8.296875 
L 28.515625 63.921875 
L 10.984375 60.40625 
L 10.984375 69.390625 
L 28.421875 72.90625 
L 38.28125 72.90625 
L 38.28125 8.296875 
L 54.390625 8.296875 
L 54.390625 0 
L 12.40625 0 
z
" id="DejaVuSans-31"/>
      <path d="M 31 75.875 
Q 24.46875 64.65625 21.28125 53.65625 
Q 18.109375 42.671875 18.109375 31.390625 
Q 18.109375 20.125 21.3125 9.0625 
Q 24.515625 -2 31 -13.1875 
L 23.1875 -13.1875 
Q 15.875 -1.703125 12.234375 9.375 
Q 8.59375 20.453125 8.59375 31.390625 
Q 8.59375 42.28125 12.203125 53.3125 
Q 15.828125 64.359375 23.1875 75.875 
z
" id="DejaVuSans-28"/>
      <path d="M 51.125 44 
L 36.921875 44 
L 32.8125 27.6875 
L 47.125 27.6875 
z
M 43.796875 71.78125 
L 38.71875 51.515625 
L 52.984375 51.515625 
L 58.109375 71.78125 
L 65.921875 71.78125 
L 60.890625 51.515625 
L 76.125 51.515625 
L 76.125 44 
L 58.984375 44 
L 54.984375 27.6875 
L 70.515625 27.6875 
L 70.515625 20.21875 
L 53.078125 20.21875 
L 48 0 
L 40.1875 0 
L 45.21875 20.21875 
L 30.90625 20.21875 
L 25.875 0 
L 18.015625 0 
L 23.09375 20.21875 
L 7.71875 20.21875 
L 7.71875 27.6875 
L 24.90625 27.6875 
L 29 44 
L 13.28125 44 
L 13.28125 51.515625 
L 30.90625 51.515625 
L 35.890625 71.78125 
z
" id="DejaVuSans-23"/>
      <path id="DejaVuSans-20"/>
      <path d="M 37.109375 75.984375 
L 37.109375 68.5 
L 28.515625 68.5 
Q 23.6875 68.5 21.796875 66.546875 
Q 19.921875 64.59375 19.921875 59.515625 
L 19.921875 54.6875 
L 34.71875 54.6875 
L 34.71875 47.703125 
L 19.921875 47.703125 
L 19.921875 0 
L 10.890625 0 
L 10.890625 47.703125 
L 2.296875 47.703125 
L 2.296875 54.6875 
L 10.890625 54.6875 
L 10.890625 58.5 
Q 10.890625 67.625 15.140625 71.796875 
Q 19.390625 75.984375 28.609375 75.984375 
z
" id="DejaVuSans-66"/>
      <path d="M 4.890625 31.390625 
L 31.203125 31.390625 
L 31.203125 23.390625 
L 4.890625 23.390625 
z
" id="DejaVuSans-2d"/>
      <path d="M 56.203125 29.59375 
L 56.203125 25.203125 
L 14.890625 25.203125 
Q 15.484375 15.921875 20.484375 11.0625 
Q 25.484375 6.203125 34.421875 6.203125 
Q 39.59375 6.203125 44.453125 7.46875 
Q 49.3125 8.734375 54.109375 11.28125 
L 54.109375 2.78125 
Q 49.265625 0.734375 44.1875 -0.34375 
Q 39.109375 -1.421875 33.890625 -1.421875 
Q 20.796875 -1.421875 13.15625 6.1875 
Q 5.515625 13.8125 5.515625 26.8125 
Q 5.515625 40.234375 12.765625 48.109375 
Q 20.015625 56 32.328125 56 
Q 43.359375 56 49.78125 48.890625 
Q 56.203125 41.796875 56.203125 29.59375 
z
M 47.21875 32.234375 
Q 47.125 39.59375 43.09375 43.984375 
Q 39.0625 48.390625 32.421875 48.390625 
Q 24.90625 48.390625 20.390625 44.140625 
Q 15.875 39.890625 15.1875 32.171875 
z
" id="DejaVuSans-65"/>
      <path d="M 2.984375 54.6875 
L 12.5 54.6875 
L 29.59375 8.796875 
L 46.6875 54.6875 
L 56.203125 54.6875 
L 35.6875 0 
L 23.484375 0 
z
" id="DejaVuSans-76"/>
      <path d="M 34.28125 27.484375 
Q 23.390625 27.484375 19.1875 25 
Q 14.984375 22.515625 14.984375 16.5 
Q 14.984375 11.71875 18.140625 8.90625 
Q 21.296875 6.109375 26.703125 6.109375 
Q 34.1875 6.109375 38.703125 11.40625 
Q 43.21875 16.703125 43.21875 25.484375 
L 43.21875 27.484375 
z
M 52.203125 31.203125 
L 52.203125 0 
L 43.21875 0 
L 43.21875 8.296875 
Q 40.140625 3.328125 35.546875 0.953125 
Q 30.953125 -1.421875 24.3125 -1.421875 
Q 15.921875 -1.421875 10.953125 3.296875 
Q 6 8.015625 6 15.921875 
Q 6 25.140625 12.171875 29.828125 
Q 18.359375 34.515625 30.609375 34.515625 
L 43.21875 34.515625 
L 43.21875 35.40625 
Q 43.21875 41.609375 39.140625 45 
Q 35.0625 48.390625 27.6875 48.390625 
Q 23 48.390625 18.546875 47.265625 
Q 14.109375 46.140625 10.015625 43.890625 
L 10.015625 52.203125 
Q 14.9375 54.109375 19.578125 55.046875 
Q 24.21875 56 28.609375 56 
Q 40.484375 56 46.34375 49.84375 
Q 52.203125 43.703125 52.203125 31.203125 
z
" id="DejaVuSans-61"/>
      <path d="M 44.28125 53.078125 
L 44.28125 44.578125 
Q 40.484375 46.53125 36.375 47.5 
Q 32.28125 48.484375 27.875 48.484375 
Q 21.1875 48.484375 17.84375 46.4375 
Q 14.5 44.390625 14.5 40.28125 
Q 14.5 37.15625 16.890625 35.375 
Q 19.28125 33.59375 26.515625 31.984375 
L 29.59375 31.296875 
Q 39.15625 29.25 43.1875 25.515625 
Q 47.21875 21.78125 47.21875 15.09375 
Q 47.21875 7.46875 41.1875 3.015625 
Q 35.15625 -1.421875 24.609375 -1.421875 
Q 20.21875 -1.421875 15.453125 -0.5625 
Q 10.6875 0.296875 5.421875 2 
L 5.421875 11.28125 
Q 10.40625 8.6875 15.234375 7.390625 
Q 20.0625 6.109375 24.8125 6.109375 
Q 31.15625 6.109375 34.5625 8.28125 
Q 37.984375 10.453125 37.984375 14.40625 
Q 37.984375 18.0625 35.515625 20.015625 
Q 33.0625 21.96875 24.703125 23.78125 
L 21.578125 24.515625 
Q 13.234375 26.265625 9.515625 29.90625 
Q 5.8125 33.546875 5.8125 39.890625 
Q 5.8125 47.609375 11.28125 51.796875 
Q 16.75 56 26.8125 56 
Q 31.78125 56 36.171875 55.265625 
Q 40.578125 54.546875 44.28125 53.078125 
z
" id="DejaVuSans-73"/>
      <path d="M 25.390625 72.90625 
L 33.6875 72.90625 
L 8.296875 -9.28125 
L 0 -9.28125 
z
" id="DejaVuSans-2f"/>
      <path d="M 45.40625 46.390625 
L 45.40625 75.984375 
L 54.390625 75.984375 
L 54.390625 0 
L 45.40625 0 
L 45.40625 8.203125 
Q 42.578125 3.328125 38.25 0.953125 
Q 33.9375 -1.421875 27.875 -1.421875 
Q 17.96875 -1.421875 11.734375 6.484375 
Q 5.515625 14.40625 5.515625 27.296875 
Q 5.515625 40.1875 11.734375 48.09375 
Q 17.96875 56 27.875 56 
Q 33.9375 56 38.25 53.625 
Q 42.578125 51.265625 45.40625 46.390625 
z
M 14.796875 27.296875 
Q 14.796875 17.390625 18.875 11.75 
Q 22.953125 6.109375 30.078125 6.109375 
Q 37.203125 6.109375 41.296875 11.75 
Q 45.40625 17.390625 45.40625 27.296875 
Q 45.40625 37.203125 41.296875 42.84375 
Q 37.203125 48.484375 30.078125 48.484375 
Q 22.953125 48.484375 18.875 42.84375 
Q 14.796875 37.203125 14.796875 27.296875 
z
" id="DejaVuSans-64"/>
      <path d="M 9.421875 54.6875 
L 18.40625 54.6875 
L 18.40625 0 
L 9.421875 0 
z
M 9.421875 75.984375 
L 18.40625 75.984375 
L 18.40625 64.59375 
L 9.421875 64.59375 
z
" id="DejaVuSans-69"/>
      <path d="M 52 44.1875 
Q 55.375 50.25 60.0625 53.125 
Q 64.75 56 71.09375 56 
Q 79.640625 56 84.28125 50.015625 
Q 88.921875 44.046875 88.921875 33.015625 
L 88.921875 0 
L 79.890625 0 
L 79.890625 32.71875 
Q 79.890625 40.578125 77.09375 44.375 
Q 74.3125 48.1875 68.609375 48.1875 
Q 61.625 48.1875 57.5625 43.546875 
Q 53.515625 38.921875 53.515625 30.90625 
L 53.515625 0 
L 44.484375 0 
L 44.484375 32.71875 
Q 44.484375 40.625 41.703125 44.40625 
Q 38.921875 48.1875 33.109375 48.1875 
Q 26.21875 48.1875 22.15625 43.53125 
Q 18.109375 38.875 18.109375 30.90625 
L 18.109375 0 
L 9.078125 0 
L 9.078125 54.6875 
L 18.109375 54.6875 
L 18.109375 46.1875 
Q 21.1875 51.21875 25.484375 53.609375 
Q 29.78125 56 35.6875 56 
Q 41.65625 56 45.828125 52.96875 
Q 50 49.953125 52 44.1875 
z
" id="DejaVuSans-6d"/>
      <path d="M 54.890625 33.015625 
L 54.890625 0 
L 45.90625 0 
L 45.90625 32.71875 
Q 45.90625 40.484375 42.875 44.328125 
Q 39.84375 48.1875 33.796875 48.1875 
Q 26.515625 48.1875 22.3125 43.546875 
Q 18.109375 38.921875 18.109375 30.90625 
L 18.109375 0 
L 9.078125 0 
L 9.078125 54.6875 
L 18.109375 54.6875 
L 18.109375 46.1875 
Q 21.34375 51.125 25.703125 53.5625 
Q 30.078125 56 35.796875 56 
Q 45.21875 56 50.046875 50.171875 
Q 54.890625 44.34375 54.890625 33.015625 
z
" id="DejaVuSans-6e"/>
      <path d="M 8.015625 75.875 
L 15.828125 75.875 
Q 23.140625 64.359375 26.78125 53.3125 
Q 30.421875 42.28125 30.421875 31.390625 
Q 30.421875 20.453125 26.78125 9.375 
Q 23.140625 -1.703125 15.828125 -13.1875 
L 8.015625 -13.1875 
Q 14.5 -2 17.703125 9.0625 
Q 20.90625 20.125 20.90625 31.390625 
Q 20.90625 42.671875 17.703125 53.65625 
Q 14.5 64.65625 8.015625 75.875 
z
" id="DejaVuSans-29"/>
     </defs>
     <g transform="translate(73.803219 338.153594)scale(0.17 -0.17)">
      <use xlink:href="#DejaVuSans-6c"/>
      <use x="27.783203" xlink:href="#DejaVuSans-6f"/>
      <use x="88.964844" xlink:href="#DejaVuSans-67"/>
      <use x="152.441406" xlink:href="#DejaVuSans-31"/>
      <use x="216.064453" xlink:href="#DejaVuSans-30"/>
      <use x="279.6875" xlink:href="#DejaVuSans-28"/>
      <use x="318.701172" xlink:href="#DejaVuSans-23"/>
      <use x="402.490234" xlink:href="#DejaVuSans-20"/>
      <use x="434.277344" xlink:href="#DejaVuSans-66"/>
      <use x="469.404297" xlink:href="#DejaVuSans-2d"/>
      <use x="505.488281" xlink:href="#DejaVuSans-65"/>
      <use x="567.011719" xlink:href="#DejaVuSans-76"/>
      <use x="626.191406" xlink:href="#DejaVuSans-61"/>
      <use x="687.470703" xlink:href="#DejaVuSans-6c"/>
      <use x="715.253906" xlink:href="#DejaVuSans-73"/>
      <use x="767.353516" xlink:href="#DejaVuSans-20"/>
      <use x="799.140625" xlink:href="#DejaVuSans-2f"/>
      <use x="832.832031" xlink:href="#DejaVuSans-20"/>
      <use x="864.619141" xlink:href="#DejaVuSans-64"/>
      <use x="928.095703" xlink:href="#DejaVuSans-69"/>
      <use x="955.878906" xlink:href="#DejaVuSans-6d"/>
      <use x="1053.291016" xlink:href="#DejaVuSans-65"/>
      <use x="1114.814453" xlink:href="#DejaVuSans-6e"/>
      <use x="1178.193359" xlink:href="#DejaVuSans-73"/>
      <use x="1230.292969" xlink:href="#DejaVuSans-69"/>
      <use x="1258.076172" xlink:href="#DejaVuSans-6f"/>
      <use x="1319.257812" xlink:href="#DejaVuSans-6e"/>
      <use x="1382.636719" xlink:href="#DejaVuSans-29"/>
     </g>
    </g>
   </g>
   <g id="matplotlib.axis_2">
    <g id="ytick_1">
     <g id="line2d_29">
      <path clip-path="url(#pafb65b9e33)" d="M 56.12 294.88 
L 333.168 294.88 
" style="fill:none;stroke:#b0b0b0;stroke-linecap:square;stroke-width:0.8;"/>
     </g>
     <g id="line2d_30">
      <defs>
       <path d="M 0 0 
L -3.5 0 
" id="m9e3c93244e" style="stroke:#000000;stroke-width:0.8;"/>
      </defs>
      <g>
       <use style="stroke:#000000;stroke-width:0.8;" x="56.12" xlink:href="#m9e3c93244e" y="294.88"/>
      </g>
     </g>
     <g id="text_6">
      <!-- 0.0 -->
      <defs>
       <path d="M 10.6875 12.40625 
L 21 12.40625 
L 21 0 
L 10.6875 0 
z
" id="DejaVuSans-2e"/>
      </defs>
      <g transform="translate(23.675 300.95875)scale(0.16 -0.16)">
       <use xlink:href="#DejaVuSans-30"/>
       <use x="63.623047" xlink:href="#DejaVuSans-2e"/>
       <use x="95.410156" xlink:href="#DejaVuSans-30"/>
      </g>
     </g>
    </g>
    <g id="ytick_2">
     <g id="line2d_31">
      <path clip-path="url(#pafb65b9e33)" d="M 56.12 241.406733 
L 333.168 241.406733 
" style="fill:none;stroke:#b0b0b0;stroke-linecap:square;stroke-width:0.8;"/>
     </g>
     <g id="line2d_32">
      <g>
       <use style="stroke:#000000;stroke-width:0.8;" x="56.12" xlink:href="#m9e3c93244e" y="241.406733"/>
      </g>
     </g>
     <g id="text_7">
      <!-- 0.2 -->
      <g transform="translate(23.675 247.485483)scale(0.16 -0.16)">
       <use xlink:href="#DejaVuSans-30"/>
       <use x="63.623047" xlink:href="#DejaVuSans-2e"/>
       <use x="95.410156" xlink:href="#DejaVuSans-32"/>
      </g>
     </g>
    </g>
    <g id="ytick_3">
     <g id="line2d_33">
      <path clip-path="url(#pafb65b9e33)" d="M 56.12 187.933465 
L 333.168 187.933465 
" style="fill:none;stroke:#b0b0b0;stroke-linecap:square;stroke-width:0.8;"/>
     </g>
     <g id="line2d_34">
      <g>
       <use style="stroke:#000000;stroke-width:0.8;" x="56.12" xlink:href="#m9e3c93244e" y="187.933465"/>
      </g>
     </g>
     <g id="text_8">
      <!-- 0.4 -->
      <g transform="translate(23.675 194.012215)scale(0.16 -0.16)">
       <use xlink:href="#DejaVuSans-30"/>
       <use x="63.623047" xlink:href="#DejaVuSans-2e"/>
       <use x="95.410156" xlink:href="#DejaVuSans-34"/>
      </g>
     </g>
    </g>
    <g id="ytick_4">
     <g id="line2d_35">
      <path clip-path="url(#pafb65b9e33)" d="M 56.12 134.460198 
L 333.168 134.460198 
" style="fill:none;stroke:#b0b0b0;stroke-linecap:square;stroke-width:0.8;"/>
     </g>
     <g id="line2d_36">
      <g>
       <use style="stroke:#000000;stroke-width:0.8;" x="56.12" xlink:href="#m9e3c93244e" y="134.460198"/>
      </g>
     </g>
     <g id="text_9">
      <!-- 0.6 -->
      <g transform="translate(23.675 140.538948)scale(0.16 -0.16)">
       <use xlink:href="#DejaVuSans-30"/>
       <use x="63.623047" xlink:href="#DejaVuSans-2e"/>
       <use x="95.410156" xlink:href="#DejaVuSans-36"/>
      </g>
     </g>
    </g>
    <g id="ytick_5">
     <g id="line2d_37">
      <path clip-path="url(#pafb65b9e33)" d="M 56.12 80.986931 
L 333.168 80.986931 
" style="fill:none;stroke:#b0b0b0;stroke-linecap:square;stroke-width:0.8;"/>
     </g>
     <g id="line2d_38">
      <g>
       <use style="stroke:#000000;stroke-width:0.8;" x="56.12" xlink:href="#m9e3c93244e" y="80.986931"/>
      </g>
     </g>
     <g id="text_10">
      <!-- 0.8 -->
      <defs>
       <path d="M 31.78125 34.625 
Q 24.75 34.625 20.71875 30.859375 
Q 16.703125 27.09375 16.703125 20.515625 
Q 16.703125 13.921875 20.71875 10.15625 
Q 24.75 6.390625 31.78125 6.390625 
Q 38.8125 6.390625 42.859375 10.171875 
Q 46.921875 13.96875 46.921875 20.515625 
Q 46.921875 27.09375 42.890625 30.859375 
Q 38.875 34.625 31.78125 34.625 
z
M 21.921875 38.8125 
Q 15.578125 40.375 12.03125 44.71875 
Q 8.5 49.078125 8.5 55.328125 
Q 8.5 64.0625 14.71875 69.140625 
Q 20.953125 74.21875 31.78125 74.21875 
Q 42.671875 74.21875 48.875 69.140625 
Q 55.078125 64.0625 55.078125 55.328125 
Q 55.078125 49.078125 51.53125 44.71875 
Q 48 40.375 41.703125 38.8125 
Q 48.828125 37.15625 52.796875 32.3125 
Q 56.78125 27.484375 56.78125 20.515625 
Q 56.78125 9.90625 50.3125 4.234375 
Q 43.84375 -1.421875 31.78125 -1.421875 
Q 19.734375 -1.421875 13.25 4.234375 
Q 6.78125 9.90625 6.78125 20.515625 
Q 6.78125 27.484375 10.78125 32.3125 
Q 14.796875 37.15625 21.921875 38.8125 
z
M 18.3125 54.390625 
Q 18.3125 48.734375 21.84375 45.5625 
Q 25.390625 42.390625 31.78125 42.390625 
Q 38.140625 42.390625 41.71875 45.5625 
Q 45.3125 48.734375 45.3125 54.390625 
Q 45.3125 60.0625 41.71875 63.234375 
Q 38.140625 66.40625 31.78125 66.40625 
Q 25.390625 66.40625 21.84375 63.234375 
Q 18.3125 60.0625 18.3125 54.390625 
z
" id="DejaVuSans-38"/>
      </defs>
      <g transform="translate(23.675 87.065681)scale(0.16 -0.16)">
       <use xlink:href="#DejaVuSans-30"/>
       <use x="63.623047" xlink:href="#DejaVuSans-2e"/>
       <use x="95.410156" xlink:href="#DejaVuSans-38"/>
      </g>
     </g>
    </g>
    <g id="ytick_6">
     <g id="line2d_39">
      <path clip-path="url(#pafb65b9e33)" d="M 56.12 27.513663 
L 333.168 27.513663 
" style="fill:none;stroke:#b0b0b0;stroke-linecap:square;stroke-width:0.8;"/>
     </g>
     <g id="line2d_40">
      <g>
       <use style="stroke:#000000;stroke-width:0.8;" x="56.12" xlink:href="#m9e3c93244e" y="27.513663"/>
      </g>
     </g>
     <g id="text_11">
      <!-- 1.0 -->
      <g transform="translate(23.675 33.592413)scale(0.16 -0.16)">
       <use xlink:href="#DejaVuSans-31"/>
       <use x="63.623047" xlink:href="#DejaVuSans-2e"/>
       <use x="95.410156" xlink:href="#DejaVuSans-30"/>
      </g>
     </g>
    </g>
    <g id="text_12">
     <!-- Fraction of function,target pairs -->
     <defs>
      <path d="M 9.8125 72.90625 
L 51.703125 72.90625 
L 51.703125 64.59375 
L 19.671875 64.59375 
L 19.671875 43.109375 
L 48.578125 43.109375 
L 48.578125 34.8125 
L 19.671875 34.8125 
L 19.671875 0 
L 9.8125 0 
z
" id="DejaVuSans-46"/>
      <path d="M 41.109375 46.296875 
Q 39.59375 47.171875 37.8125 47.578125 
Q 36.03125 48 33.890625 48 
Q 26.265625 48 22.1875 43.046875 
Q 18.109375 38.09375 18.109375 28.8125 
L 18.109375 0 
L 9.078125 0 
L 9.078125 54.6875 
L 18.109375 54.6875 
L 18.109375 46.1875 
Q 20.953125 51.171875 25.484375 53.578125 
Q 30.03125 56 36.53125 56 
Q 37.453125 56 38.578125 55.875 
Q 39.703125 55.765625 41.0625 55.515625 
z
" id="DejaVuSans-72"/>
      <path d="M 48.78125 52.59375 
L 48.78125 44.1875 
Q 44.96875 46.296875 41.140625 47.34375 
Q 37.3125 48.390625 33.40625 48.390625 
Q 24.65625 48.390625 19.8125 42.84375 
Q 14.984375 37.3125 14.984375 27.296875 
Q 14.984375 17.28125 19.8125 11.734375 
Q 24.65625 6.203125 33.40625 6.203125 
Q 37.3125 6.203125 41.140625 7.25 
Q 44.96875 8.296875 48.78125 10.40625 
L 48.78125 2.09375 
Q 45.015625 0.34375 40.984375 -0.53125 
Q 36.96875 -1.421875 32.421875 -1.421875 
Q 20.0625 -1.421875 12.78125 6.34375 
Q 5.515625 14.109375 5.515625 27.296875 
Q 5.515625 40.671875 12.859375 48.328125 
Q 20.21875 56 33.015625 56 
Q 37.15625 56 41.109375 55.140625 
Q 45.0625 54.296875 48.78125 52.59375 
z
" id="DejaVuSans-63"/>
      <path d="M 18.3125 70.21875 
L 18.3125 54.6875 
L 36.8125 54.6875 
L 36.8125 47.703125 
L 18.3125 47.703125 
L 18.3125 18.015625 
Q 18.3125 11.328125 20.140625 9.421875 
Q 21.96875 7.515625 27.59375 7.515625 
L 36.8125 7.515625 
L 36.8125 0 
L 27.59375 0 
Q 17.1875 0 13.234375 3.875 
Q 9.28125 7.765625 9.28125 18.015625 
L 9.28125 47.703125 
L 2.6875 47.703125 
L 2.6875 54.6875 
L 9.28125 54.6875 
L 9.28125 70.21875 
z
" id="DejaVuSans-74"/>
      <path d="M 8.5 21.578125 
L 8.5 54.6875 
L 17.484375 54.6875 
L 17.484375 21.921875 
Q 17.484375 14.15625 20.5 10.265625 
Q 23.53125 6.390625 29.59375 6.390625 
Q 36.859375 6.390625 41.078125 11.03125 
Q 45.3125 15.671875 45.3125 23.6875 
L 45.3125 54.6875 
L 54.296875 54.6875 
L 54.296875 0 
L 45.3125 0 
L 45.3125 8.40625 
Q 42.046875 3.421875 37.71875 1 
Q 33.40625 -1.421875 27.6875 -1.421875 
Q 18.265625 -1.421875 13.375 4.4375 
Q 8.5 10.296875 8.5 21.578125 
z
M 31.109375 56 
z
" id="DejaVuSans-75"/>
      <path d="M 11.71875 12.40625 
L 22.015625 12.40625 
L 22.015625 4 
L 14.015625 -11.625 
L 7.71875 -11.625 
L 11.71875 4 
z
" id="DejaVuSans-2c"/>
      <path d="M 18.109375 8.203125 
L 18.109375 -20.796875 
L 9.078125 -20.796875 
L 9.078125 54.6875 
L 18.109375 54.6875 
L 18.109375 46.390625 
Q 20.953125 51.265625 25.265625 53.625 
Q 29.59375 56 35.59375 56 
Q 45.5625 56 51.78125 48.09375 
Q 58.015625 40.1875 58.015625 27.296875 
Q 58.015625 14.40625 51.78125 6.484375 
Q 45.5625 -1.421875 35.59375 -1.421875 
Q 29.59375 -1.421875 25.265625 0.953125 
Q 20.953125 3.328125 18.109375 8.203125 
z
M 48.6875 27.296875 
Q 48.6875 37.203125 44.609375 42.84375 
Q 40.53125 48.484375 33.40625 48.484375 
Q 26.265625 48.484375 22.1875 42.84375 
Q 18.109375 37.203125 18.109375 27.296875 
Q 18.109375 17.390625 22.1875 11.75 
Q 26.265625 6.109375 33.40625 6.109375 
Q 40.53125 6.109375 44.609375 11.75 
Q 48.6875 17.390625 48.6875 27.296875 
z
" id="DejaVuSans-70"/>
     </defs>
     <g transform="translate(16.139531 294.999375)rotate(-90)scale(0.17 -0.17)">
      <use xlink:href="#DejaVuSans-46"/>
      <use x="57.410156" xlink:href="#DejaVuSans-72"/>
      <use x="98.523438" xlink:href="#DejaVuSans-61"/>
      <use x="159.802734" xlink:href="#DejaVuSans-63"/>
      <use x="214.783203" xlink:href="#DejaVuSans-74"/>
      <use x="253.992188" xlink:href="#DejaVuSans-69"/>
      <use x="281.775391" xlink:href="#DejaVuSans-6f"/>
      <use x="342.957031" xlink:href="#DejaVuSans-6e"/>
      <use x="406.335938" xlink:href="#DejaVuSans-20"/>
      <use x="438.123047" xlink:href="#DejaVuSans-6f"/>
      <use x="499.304688" xlink:href="#DejaVuSans-66"/>
      <use x="534.509766" xlink:href="#DejaVuSans-20"/>
      <use x="566.296875" xlink:href="#DejaVuSans-66"/>
      <use x="601.501953" xlink:href="#DejaVuSans-75"/>
      <use x="664.880859" xlink:href="#DejaVuSans-6e"/>
      <use x="728.259766" xlink:href="#DejaVuSans-63"/>
      <use x="783.240234" xlink:href="#DejaVuSans-74"/>
      <use x="822.449219" xlink:href="#DejaVuSans-69"/>
      <use x="850.232422" xlink:href="#DejaVuSans-6f"/>
      <use x="911.414062" xlink:href="#DejaVuSans-6e"/>
      <use x="974.792969" xlink:href="#DejaVuSans-2c"/>
      <use x="1006.580078" xlink:href="#DejaVuSans-74"/>
      <use x="1045.789062" xlink:href="#DejaVuSans-61"/>
      <use x="1107.068359" xlink:href="#DejaVuSans-72"/>
      <use x="1148.166016" xlink:href="#DejaVuSans-67"/>
      <use x="1211.642578" xlink:href="#DejaVuSans-65"/>
      <use x="1273.166016" xlink:href="#DejaVuSans-74"/>
      <use x="1312.375" xlink:href="#DejaVuSans-20"/>
      <use x="1344.162109" xlink:href="#DejaVuSans-70"/>
      <use x="1407.638672" xlink:href="#DejaVuSans-61"/>
      <use x="1468.917969" xlink:href="#DejaVuSans-69"/>
      <use x="1496.701172" xlink:href="#DejaVuSans-72"/>
      <use x="1537.814453" xlink:href="#DejaVuSans-73"/>
     </g>
    </g>
   </g>
   <g id="line2d_41">
    <defs>
     <path d="M 0 1.5 
C 0.397805 1.5 0.77937 1.341951 1.06066 1.06066 
C 1.341951 0.77937 1.5 0.397805 1.5 0 
C 1.5 -0.397805 1.341951 -0.77937 1.06066 -1.06066 
C 0.77937 -1.341951 0.397805 -1.5 0 -1.5 
C -0.397805 -1.5 -0.77937 -1.341951 -1.06066 -1.06066 
C -1.341951 -0.77937 -1.5 -0.397805 -1.5 0 
C -1.5 0.397805 -1.341951 0.77937 -1.06066 1.06066 
C -0.77937 1.341951 -0.397805 1.5 0 1.5 
z
" id="mfd8bb0277b" style="stroke:#f5deb3;"/>
    </defs>
    <g>
     <use style="fill:#f5deb3;stroke:#f5deb3;" x="231.445579" xlink:href="#mfd8bb0277b" y="27.513663"/>
     <use style="fill:#f5deb3;stroke:#f5deb3;" x="231.445579" xlink:href="#mfd8bb0277b" y="27.513663"/>
    </g>
   </g>
   <g id="line2d_42">
    <defs>
     <path d="M 0 1.5 
C 0.397805 1.5 0.77937 1.341951 1.06066 1.06066 
C 1.341951 0.77937 1.5 0.397805 1.5 0 
C 1.5 -0.397805 1.341951 -0.77937 1.06066 -1.06066 
C 0.77937 -1.341951 0.397805 -1.5 0 -1.5 
C -0.397805 -1.5 -0.77937 -1.341951 -1.06066 -1.06066 
C -1.341951 -0.77937 -1.5 -0.397805 -1.5 0 
C -1.5 0.397805 -1.341951 0.77937 -1.06066 1.06066 
C -0.77937 1.341951 -0.397805 1.5 0 1.5 
z
" id="m0624be3fc6" style="stroke:#000080;"/>
    </defs>
    <g>
     <use style="fill:#000080;stroke:#000080;" x="281.298434" xlink:href="#m0624be3fc6" y="231.970274"/>
     <use style="fill:#000080;stroke:#000080;" x="281.298434" xlink:href="#m0624be3fc6" y="231.970274"/>
    </g>
   </g>
   <g id="line2d_43">
    <path d="M -1 288.06478 
L 4.627463 288.06478 
L 4.627463 287.016284 
L 11.596853 287.016284 
L 11.596853 286.492036 
L 23.511104 286.492036 
L 23.511104 285.967789 
L 42.394746 285.967789 
L 42.394746 285.443541 
L 51.175139 285.443541 
L 51.175139 284.919293 
L 62.207729 284.919293 
L 62.207729 284.395046 
L 98.832144 284.395046 
L 98.832144 283.870798 
L 107.612537 283.870798 
L 107.612537 283.34655 
L 110.746395 283.34655 
L 110.746395 282.822302 
L 112.786832 282.822302 
L 112.786832 282.298055 
L 115.58349 282.298055 
L 115.58349 281.773807 
L 115.891514 281.773807 
L 115.891514 281.249559 
L 116.207152 281.249559 
L 116.207152 280.725312 
L 116.783791 280.725312 
L 116.783791 280.201064 
L 120.859587 280.201064 
L 120.859587 279.676816 
L 122.669596 279.676816 
L 122.669596 279.152568 
L 122.856479 279.152568 
L 122.918325 278.104073 
L 124.135351 278.104073 
L 124.135351 277.579825 
L 124.645341 277.579825 
L 124.645341 277.055578 
L 125.271875 277.055578 
L 125.310285 276.007082 
L 126.090357 276.007082 
L 126.090357 275.482834 
L 126.265455 275.482834 
L 126.265455 274.958587 
L 126.962483 274.958587 
L 126.962483 274.434339 
L 127.705928 274.434339 
L 127.705928 273.910091 
L 127.964309 273.910091 
L 127.964309 273.385844 
L 129.630036 273.385844 
L 129.630036 272.861596 
L 131.441039 272.861596 
L 131.441039 271.8131 
L 132.391853 271.8131 
L 132.391853 271.288853 
L 132.614036 271.288853 
L 132.614036 270.764605 
L 132.729044 270.764605 
L 132.729044 270.240357 
L 133.005887 270.240357 
L 133.005887 269.716109 
L 133.162104 269.716109 
L 133.162104 269.191862 
L 133.360204 269.191862 
L 133.360204 268.667614 
L 133.843356 268.667614 
L 133.843356 267.619119 
L 135.276571 267.619119 
L 135.276571 267.094871 
L 135.519781 267.094871 
L 135.519781 266.570623 
L 135.801327 266.570623 
L 135.801327 266.046375 
L 135.950722 266.046375 
L 135.950722 265.522128 
L 136.107021 265.522128 
L 136.107021 264.99788 
L 137.224536 264.99788 
L 137.224536 263.949385 
L 137.827708 263.949385 
L 137.827708 262.900889 
L 138.574369 262.900889 
L 138.574369 262.376641 
L 138.810389 262.376641 
L 138.810389 261.852394 
L 138.974042 261.852394 
L 138.974042 261.328146 
L 139.519758 261.328146 
L 139.573389 260.279651 
L 140.048681 260.279651 
L 140.110423 259.231155 
L 140.473113 259.231155 
L 140.561812 258.18266 
L 141.544287 258.18266 
L 141.544287 257.658412 
L 142.055839 257.658412 
L 142.102123 256.609917 
L 142.21442 256.609917 
L 142.21442 256.085669 
L 142.920112 256.085669 
L 142.920112 255.561421 
L 143.774481 255.561421 
L 143.779723 254.512926 
L 144.193927 254.512926 
L 144.193927 253.988678 
L 144.598384 253.988678 
L 144.598384 253.46443 
L 144.993542 253.46443 
L 144.993542 252.940182 
L 145.37982 252.940182 
L 145.37982 252.415935 
L 147.531203 252.415935 
L 147.531203 251.891687 
L 148.192385 251.891687 
L 148.192385 251.367439 
L 148.829074 251.367439 
L 148.829074 250.843192 
L 149.608079 250.843192 
L 149.608079 250.318944 
L 167.076027 250.318944 
L 167.076027 249.794696 
L 178.936479 249.794696 
L 179.044245 248.746201 
L 179.626967 248.746201 
L 179.713343 247.697705 
L 180.47707 247.697705 
L 180.47707 247.173458 
L 180.638354 247.173458 
L 180.638354 246.64921 
L 180.838233 246.64921 
L 180.838233 246.124962 
L 181.07476 246.124962 
L 181.07476 245.600714 
L 181.403754 245.600714 
L 181.403754 245.076467 
L 213.365612 245.076467 
L 213.365612 244.552219 
L 214.60945 244.552219 
L 214.659354 242.455228 
L 214.733031 242.455228 
L 214.733031 241.93098 
L 226.470709 241.93098 
L 226.528635 240.358237 
L 233.39453 240.358237 
L 233.437823 239.309742 
L 239.418178 239.309742 
L 239.419785 238.261246 
L 242.6266 238.261246 
L 242.6266 237.736999 
L 246.342513 237.736999 
L 246.342513 237.212751 
L 248.828392 237.212751 
L 248.828392 236.688503 
L 250.764719 236.688503 
L 250.764719 236.164255 
L 252.241629 236.164255 
L 252.241629 235.640008 
L 256.059776 235.640008 
L 256.059776 235.11576 
L 258.72667 235.11576 
L 258.72667 234.591512 
L 266.048653 234.591512 
L 266.048653 233.543017 
L 270.881967 233.543017 
L 270.881967 233.018769 
L 273.358363 233.018769 
L 273.358363 232.494521 
L 281.298434 232.494521 
L 281.298434 231.970274 
L 333.168 231.970274 
L 333.168 231.970274 
" style="fill:none;stroke:#000080;stroke-linecap:square;stroke-width:1.5;"/>
   </g>
   <g id="line2d_44">
    <defs>
     <path d="M 0 6 
C 1.591219 6 3.117479 5.367802 4.242641 4.242641 
C 5.367802 3.117479 6 1.591219 6 0 
C 6 -1.591219 5.367802 -3.117479 4.242641 -4.242641 
C 3.117479 -5.367802 1.591219 -6 0 -6 
C -1.591219 -6 -3.117479 -5.367802 -4.242641 -4.242641 
C -5.367802 -3.117479 -6 -1.591219 -6 0 
C -6 1.591219 -5.367802 3.117479 -4.242641 4.242641 
C -3.117479 5.367802 -1.591219 6 0 6 
z
" id="m5f97445db6" style="stroke:#000080;stroke-width:1.5;"/>
    </defs>
    <g>
     <use style="fill:none;stroke:#000080;stroke-width:1.5;" x="98.832144" xlink:href="#m5f97445db6" y="283.870798"/>
     <use style="fill:none;stroke:#000080;stroke-width:1.5;" x="167.076027" xlink:href="#m5f97445db6" y="250.318944"/>
     <use style="fill:none;stroke:#000080;stroke-width:1.5;" x="266.048653" xlink:href="#m5f97445db6" y="233.543017"/>
     <use style="fill:none;stroke:#000080;stroke-width:1.5;" x="281.298434" xlink:href="#m5f97445db6" y="231.970274"/>
     <use style="fill:none;stroke:#000080;stroke-width:1.5;" x="281.298434" xlink:href="#m5f97445db6" y="231.970274"/>
     <use style="fill:none;stroke:#000080;stroke-width:1.5;" x="333.168" xlink:href="#m5f97445db6" y="231.970274"/>
    </g>
   </g>
   <g id="line2d_45">
    <path style="fill:none;stroke:#000080;stroke-linecap:square;stroke-width:1.5;"/>
    <g/>
   </g>
   <g id="line2d_46">
    <path clip-path="url(#pafb65b9e33)" d="M 214.433143 244.552219 
" style="fill:none;stroke:#000080;stroke-linecap:square;stroke-width:1.5;"/>
    <defs>
     <path d="M -12 12 
L 12 -12 
M -12 -12 
L 12 12 
" id="m8feee8b20b" style="stroke:#000080;"/>
    </defs>
    <g clip-path="url(#pafb65b9e33)">
     <use style="fill:#000080;stroke:#000080;" x="214.433143" xlink:href="#m8feee8b20b" y="244.552219"/>
    </g>
   </g>
   <g id="line2d_47">
    <defs>
     <path d="M 0 1.5 
C 0.397805 1.5 0.77937 1.341951 1.06066 1.06066 
C 1.341951 0.77937 1.5 0.397805 1.5 0 
C 1.5 -0.397805 1.341951 -0.77937 1.06066 -1.06066 
C 0.77937 -1.341951 0.397805 -1.5 0 -1.5 
C -0.397805 -1.5 -0.77937 -1.341951 -1.06066 -1.06066 
C -1.341951 -0.77937 -1.5 -0.397805 -1.5 0 
C -1.5 0.397805 -1.341951 0.77937 -1.06066 1.06066 
C -0.77937 1.341951 -0.397805 1.5 0 1.5 
z
" id="m4209a03e16" style="stroke:#ff00ff;"/>
    </defs>
    <g>
     <use style="fill:#ff00ff;stroke:#ff00ff;" x="272.962262" xlink:href="#m4209a03e16" y="111.393298"/>
     <use style="fill:#ff00ff;stroke:#ff00ff;" x="272.962262" xlink:href="#m4209a03e16" y="111.393298"/>
    </g>
   </g>
   <g id="line2d_48">
    <path d="M -1 287.540532 
L 4.627463 287.540532 
L 4.627463 287.016284 
L 11.596853 287.016284 
L 11.596853 286.492036 
L 20.377246 286.492036 
L 20.377246 285.967789 
L 23.511104 285.967789 
L 23.511104 285.443541 
L 28.455965 285.443541 
L 28.455965 284.395046 
L 45.044385 284.395046 
L 45.044385 283.870798 
L 47.339607 283.870798 
L 47.339607 283.34655 
L 81.191596 283.34655 
L 81.191596 282.822302 
L 81.586754 282.822302 
L 81.586754 282.298055 
L 82.536644 282.298055 
L 82.536644 281.773807 
L 85.265311 281.773807 
L 85.265311 281.249559 
L 89.991964 281.249559 
L 89.991964 280.725312 
L 94.450895 280.725312 
L 94.450895 280.201064 
L 102.639004 280.201064 
L 102.639004 279.676816 
L 103.120034 279.676816 
L 103.120034 279.152568 
L 125.062963 279.152568 
L 125.062963 278.628321 
L 125.531388 278.628321 
L 125.531388 278.104073 
L 128.997851 278.104073 
L 128.997851 277.579825 
L 129.274251 277.579825 
L 129.274251 277.055578 
L 130.536746 277.055578 
L 130.536746 276.53133 
L 132.644112 276.53133 
L 132.644112 276.007082 
L 135.129844 276.007082 
L 135.129844 275.482834 
L 135.456111 275.482834 
L 135.456111 274.958587 
L 136.615334 274.958587 
L 136.615334 274.434339 
L 138.7227 274.434339 
L 138.79989 273.385844 
L 138.987898 273.385844 
L 138.987898 272.861596 
L 140.048681 272.861596 
L 140.097443 271.8131 
L 140.409475 271.8131 
L 140.409475 271.288853 
L 140.815859 271.288853 
L 140.815859 270.764605 
L 144.382172 270.764605 
L 144.427651 269.716109 
L 144.939743 269.716109 
L 144.939743 269.191862 
L 145.103063 269.191862 
L 145.158772 268.143366 
L 145.45129 268.143366 
L 145.45129 267.619119 
L 145.839153 267.619119 
L 145.839153 267.094871 
L 147.935072 267.094871 
L 147.935072 266.570623 
L 148.230855 266.570623 
L 148.230855 266.046375 
L 148.738989 266.046375 
L 148.738989 265.522128 
L 150.355092 265.522128 
L 150.355092 264.99788 
L 150.922912 264.99788 
L 150.922912 264.473632 
L 151.632608 264.473632 
L 151.632608 263.949385 
L 152.235837 263.949385 
L 152.235837 263.425137 
L 152.433355 263.425137 
L 152.447603 262.376641 
L 152.634891 262.376641 
L 152.634891 261.852394 
L 152.94821 261.852394 
L 152.94821 261.328146 
L 153.190877 261.328146 
L 153.258939 260.279651 
L 153.37178 260.279651 
L 153.37178 259.755403 
L 153.623365 259.755403 
L 153.623365 259.231155 
L 154.048122 259.231155 
L 154.048122 258.706907 
L 154.194556 258.706907 
L 154.194556 258.18266 
L 154.736296 258.18266 
L 154.736296 257.658412 
L 155.341904 257.658412 
L 155.341904 257.134164 
L 155.675622 257.134164 
L 155.675622 256.609917 
L 155.942401 256.609917 
L 155.988825 255.561421 
L 156.37971 255.561421 
L 156.37971 255.037173 
L 156.713819 255.037173 
L 156.713819 254.512926 
L 157.002751 254.512926 
L 157.002751 253.988678 
L 157.872693 253.988678 
L 157.872693 253.46443 
L 158.428001 253.46443 
L 158.487124 252.415935 
L 159.147992 252.415935 
L 159.147992 251.891687 
L 159.262273 251.891687 
L 159.307986 250.843192 
L 159.646493 250.843192 
L 159.646493 250.318944 
L 160.745278 250.318944 
L 160.835855 248.746201 
L 161.065504 248.746201 
L 161.086578 247.697705 
L 161.254245 247.697705 
L 161.254245 247.173458 
L 161.816603 247.173458 
L 161.816603 246.64921 
L 162.242512 246.64921 
L 162.242512 246.124962 
L 162.394002 246.124962 
L 162.394002 245.600714 
L 162.544168 245.600714 
L 162.559992 244.552219 
L 162.859629 244.552219 
L 162.859629 244.027971 
L 163.035739 244.027971 
L 163.035739 243.503724 
L 163.63953 243.503724 
L 163.63953 242.979476 
L 164.074626 242.979476 
L 164.119622 241.406733 
L 164.362645 241.406733 
L 164.362645 240.882485 
L 164.783893 240.882485 
L 164.783893 240.358237 
L 164.963607 240.358237 
L 165.048203 239.309742 
L 165.302519 239.309742 
L 165.302519 238.785494 
L 165.648832 238.785494 
L 165.692092 237.212751 
L 165.922679 237.212751 
L 165.955163 236.164255 
L 166.321909 236.164255 
L 166.321909 235.640008 
L 166.459023 235.640008 
L 166.459023 235.11576 
L 166.654702 235.11576 
L 166.654702 234.591512 
L 166.990004 234.591512 
L 166.990004 234.067265 
L 167.530754 234.067265 
L 167.530754 233.543017 
L 167.777052 233.543017 
L 167.846318 231.446026 
L 167.930742 231.446026 
L 167.930742 230.921778 
L 168.120624 230.921778 
L 168.120624 230.397531 
L 168.25363 230.397531 
L 168.25363 229.873283 
L 168.634859 229.873283 
L 168.73699 228.824787 
L 168.901213 228.824787 
L 169.005401 227.252044 
L 169.116164 227.252044 
L 169.116164 226.727797 
L 169.332016 226.727797 
L 169.332016 226.203549 
L 169.612946 226.203549 
L 169.612946 225.679301 
L 169.780596 225.679301 
L 169.780596 225.155053 
L 169.893946 225.155053 
L 169.893946 224.630806 
L 170.011681 224.630806 
L 170.011681 224.106558 
L 170.152358 224.106558 
L 170.152358 223.58231 
L 170.328278 223.58231 
L 170.328278 223.058063 
L 170.72242 223.058063 
L 170.72242 222.533815 
L 170.955825 222.533815 
L 171.04187 220.961072 
L 171.179718 220.961072 
L 171.179718 220.436824 
L 171.37076 220.436824 
L 171.440088 218.864081 
L 171.690376 218.864081 
L 171.690376 218.339833 
L 171.864099 218.339833 
L 171.94878 217.291338 
L 171.975729 217.291338 
L 171.975729 216.76709 
L 172.231911 216.76709 
L 172.231911 216.242842 
L 172.450263 216.242842 
L 172.450263 215.718594 
L 172.810711 215.718594 
L 172.810711 215.194347 
L 173.046719 215.194347 
L 173.101054 214.145851 
L 173.428646 214.145851 
L 173.434248 213.097356 
L 173.557955 213.097356 
L 173.661442 212.04886 
L 173.945128 212.04886 
L 173.945128 211.524613 
L 174.082313 211.524613 
L 174.082313 211.000365 
L 174.425407 211.000365 
L 174.425407 210.476117 
L 174.561012 210.476117 
L 174.561012 209.95187 
L 174.717661 209.95187 
L 174.717661 209.427622 
L 174.891773 209.427622 
L 174.891773 208.903374 
L 175.008437 208.903374 
L 175.046725 207.854879 
L 175.29982 207.854879 
L 175.335375 206.282136 
L 175.488053 206.282136 
L 175.488053 205.757888 
L 175.746614 205.757888 
L 175.746614 205.23364 
L 176.187259 205.23364 
L 176.187259 204.709392 
L 176.310095 204.709392 
L 176.397132 203.136649 
L 176.505995 203.136649 
L 176.56406 202.088154 
L 176.773638 202.088154 
L 176.815479 201.039658 
L 176.933541 201.039658 
L 176.933541 200.515411 
L 177.361483 200.515411 
L 177.434864 198.942667 
L 177.564551 198.942667 
L 177.564551 198.41842 
L 177.816687 198.41842 
L 177.831149 197.369924 
L 178.115372 197.369924 
L 178.115372 196.845677 
L 178.64047 196.845677 
L 178.662865 195.797181 
L 179.125886 195.797181 
L 179.165056 194.748686 
L 179.609378 194.748686 
L 179.609378 194.224438 
L 179.753785 194.224438 
L 179.832774 192.651695 
L 180.200972 192.651695 
L 180.200972 192.127447 
L 180.831254 192.127447 
L 180.831254 191.603199 
L 181.189585 191.603199 
L 181.189585 191.078952 
L 181.802748 191.078952 
L 181.802748 190.554704 
L 182.579741 190.554704 
L 182.670248 188.981961 
L 182.69886 188.981961 
L 182.69886 188.457713 
L 182.820674 188.457713 
L 182.820674 187.933465 
L 183.172283 187.933465 
L 183.172283 187.409218 
L 183.49996 187.409218 
L 183.49996 186.88497 
L 185.643729 186.88497 
L 185.643729 186.360722 
L 191.918103 186.360722 
L 191.918103 185.836474 
L 192.620917 185.836474 
L 192.620917 185.312227 
L 192.917794 185.312227 
L 192.917794 184.787979 
L 193.053676 184.787979 
L 193.053676 184.263731 
L 193.2667 184.263731 
L 193.2667 183.739484 
L 193.517499 183.739484 
L 193.517499 183.215236 
L 193.795984 183.215236 
L 193.872334 181.642493 
L 193.991026 181.642493 
L 194.060894 180.593997 
L 194.150349 180.593997 
L 194.214977 179.545502 
L 194.443748 179.545502 
L 194.531511 177.972759 
L 194.578908 177.972759 
L 194.578908 177.448511 
L 194.839096 177.448511 
L 194.927008 176.400016 
L 195.010881 176.400016 
L 195.010881 175.875768 
L 195.128861 175.875768 
L 195.171479 174.827272 
L 195.542883 174.827272 
L 195.542883 174.303025 
L 195.844956 174.303025 
L 195.844956 173.778777 
L 196.057535 173.778777 
L 196.115137 172.730281 
L 196.209556 172.730281 
L 196.26962 171.157538 
L 196.391575 171.157538 
L 196.452597 170.109043 
L 196.516084 170.109043 
L 196.624809 168.5363 
L 196.654089 168.5363 
L 196.758103 167.487804 
L 196.825501 167.487804 
L 196.93027 166.439309 
L 197.034286 166.439309 
L 197.128977 165.390813 
L 197.179235 165.390813 
L 197.179235 164.866566 
L 197.340984 164.866566 
L 197.424182 163.81807 
L 197.661014 163.81807 
L 197.703488 162.769575 
L 197.828591 162.769575 
L 197.937314 161.196832 
L 197.946063 161.196832 
L 197.946063 160.672584 
L 198.305381 160.672584 
L 198.310981 159.624089 
L 198.462034 159.624089 
L 198.548654 158.575593 
L 198.887971 158.575593 
L 198.887971 158.051345 
L 199.208948 158.051345 
L 199.208948 157.527098 
L 199.925553 157.527098 
L 199.925553 157.00285 
L 200.594068 157.00285 
L 200.594068 156.478602 
L 200.773652 156.478602 
L 200.773652 155.954354 
L 204.088329 155.954354 
L 204.088329 155.430107 
L 204.373138 155.430107 
L 204.373138 154.905859 
L 204.591025 154.905859 
L 204.591025 154.381611 
L 204.766187 154.381611 
L 204.850065 153.333116 
L 205.243408 153.333116 
L 205.257631 152.28462 
L 205.357739 152.28462 
L 205.438496 151.236125 
L 205.584864 151.236125 
L 205.620706 150.18763 
L 205.875186 150.18763 
L 205.875186 149.663382 
L 206.085006 149.663382 
L 206.085006 149.139134 
L 206.239495 149.139134 
L 206.239495 148.614886 
L 206.382933 148.614886 
L 206.473779 147.566391 
L 206.880646 147.566391 
L 206.880646 147.042143 
L 207.081908 147.042143 
L 207.081908 146.517896 
L 207.426348 146.517896 
L 207.426348 145.993648 
L 208.140299 145.993648 
L 208.140299 145.4694 
L 208.462538 145.4694 
L 208.462538 144.945152 
L 211.285236 144.945152 
L 211.285236 144.420905 
L 211.778382 144.420905 
L 211.778382 143.896657 
L 212.127113 143.896657 
L 212.127113 143.372409 
L 212.245723 143.372409 
L 212.245723 142.848162 
L 213.526268 142.848162 
L 213.526268 142.323914 
L 216.085413 142.323914 
L 216.09669 141.275418 
L 216.21843 141.275418 
L 216.314989 140.226923 
L 216.454616 140.226923 
L 216.49232 139.178427 
L 216.597665 139.178427 
L 216.597665 138.65418 
L 216.770206 138.65418 
L 216.770206 138.129932 
L 216.913044 138.129932 
L 216.935906 137.081437 
L 218.449269 137.081437 
L 218.449269 136.557189 
L 220.28009 136.557189 
L 220.314642 135.508693 
L 220.432409 135.508693 
L 220.432409 134.984446 
L 220.925669 134.984446 
L 220.925669 134.460198 
L 222.813466 134.460198 
L 222.813466 133.93595 
L 223.682877 133.93595 
L 223.682877 133.411703 
L 226.032073 133.411703 
L 226.047079 132.363207 
L 227.094009 132.363207 
L 227.094009 131.838959 
L 227.632029 131.838959 
L 227.632029 131.314712 
L 227.993945 131.314712 
L 227.993945 130.790464 
L 229.387174 130.790464 
L 229.387174 130.266216 
L 229.643702 130.266216 
L 229.719076 129.217721 
L 229.906924 129.217721 
L 229.906924 128.693473 
L 231.552445 128.693473 
L 231.623549 127.644978 
L 232.084034 127.644978 
L 232.084219 126.596482 
L 233.012154 126.596482 
L 233.012154 126.072235 
L 234.222067 126.072235 
L 234.222067 125.547987 
L 235.340575 125.547987 
L 235.417893 124.499491 
L 236.744805 124.499491 
L 236.744805 123.975244 
L 238.247469 123.975244 
L 238.247469 123.450996 
L 238.945038 123.450996 
L 238.945038 122.926748 
L 239.305954 122.926748 
L 239.305954 122.4025 
L 242.588039 122.4025 
L 242.588039 121.878253 
L 243.476281 121.878253 
L 243.563806 120.829757 
L 243.941399 120.829757 
L 243.959917 119.781262 
L 248.453087 119.781262 
L 248.453087 119.257014 
L 250.421981 119.257014 
L 250.460064 118.208519 
L 251.733294 118.208519 
L 251.733294 117.684271 
L 252.333413 117.684271 
L 252.333413 117.160023 
L 253.512366 117.160023 
L 253.512366 116.635776 
L 255.197244 116.635776 
L 255.197244 116.111528 
L 255.337311 116.111528 
L 255.337311 115.58728 
L 255.855801 115.58728 
L 255.855801 115.063032 
L 260.53722 115.063032 
L 260.53722 114.538785 
L 261.281876 114.538785 
L 261.281876 114.014537 
L 261.551419 114.014537 
L 261.551419 113.490289 
L 266.035595 113.490289 
L 266.035595 112.966042 
L 269.137168 112.966042 
L 269.137168 112.441794 
L 269.725586 112.441794 
L 269.725586 111.917546 
L 272.962262 111.917546 
L 272.962262 111.393298 
L 333.168 111.393298 
L 333.168 111.393298 
" style="fill:none;stroke:#ff00ff;stroke-linecap:square;stroke-width:1.5;"/>
   </g>
   <g id="line2d_49">
    <defs>
     <path d="M -0 8.485281 
L 5.091169 0 
L 0 -8.485281 
L -5.091169 -0 
z
" id="m162416775a" style="stroke:#ff00ff;stroke-linejoin:miter;stroke-width:1.5;"/>
    </defs>
    <g>
     <use style="fill:none;stroke:#ff00ff;stroke-linejoin:miter;stroke-width:1.5;" x="151.632608" xlink:href="#m162416775a" y="264.473632"/>
     <use style="fill:none;stroke:#ff00ff;stroke-linejoin:miter;stroke-width:1.5;" x="197.946063" xlink:href="#m162416775a" y="160.672584"/>
     <use style="fill:none;stroke:#ff00ff;stroke-linejoin:miter;stroke-width:1.5;" x="272.962262" xlink:href="#m162416775a" y="111.917546"/>
     <use style="fill:none;stroke:#ff00ff;stroke-linejoin:miter;stroke-width:1.5;" x="272.962262" xlink:href="#m162416775a" y="111.393298"/>
     <use style="fill:none;stroke:#ff00ff;stroke-linejoin:miter;stroke-width:1.5;" x="333.168" xlink:href="#m162416775a" y="111.393298"/>
    </g>
   </g>
   <g id="line2d_50">
    <path style="fill:none;stroke:#ff00ff;stroke-linecap:square;stroke-width:1.5;"/>
    <g/>
   </g>
   <g id="line2d_51">
    <path clip-path="url(#pafb65b9e33)" d="M 193.108295 184.263731 
" style="fill:none;stroke:#ff00ff;stroke-linecap:square;stroke-width:1.5;"/>
    <defs>
     <path d="M -12 12 
L 12 -12 
M -12 -12 
L 12 12 
" id="mb6a50157b2" style="stroke:#ff00ff;"/>
    </defs>
    <g clip-path="url(#pafb65b9e33)">
     <use style="fill:#ff00ff;stroke:#ff00ff;" x="193.108295" xlink:href="#mb6a50157b2" y="184.263731"/>
    </g>
   </g>
   <g id="line2d_52">
    <defs>
     <path d="M 0 1.5 
C 0.397805 1.5 0.77937 1.341951 1.06066 1.06066 
C 1.341951 0.77937 1.5 0.397805 1.5 0 
C 1.5 -0.397805 1.341951 -0.77937 1.06066 -1.06066 
C 0.77937 -1.341951 0.397805 -1.5 0 -1.5 
C -0.397805 -1.5 -0.77937 -1.341951 -1.06066 -1.06066 
C -1.341951 -0.77937 -1.5 -0.397805 -1.5 0 
C -1.5 0.397805 -1.341951 0.77937 -1.06066 1.06066 
C -0.77937 1.341951 -0.397805 1.5 0 1.5 
z
" id="m70e795ec9f" style="stroke:#ff7500;"/>
    </defs>
    <g>
     <use style="fill:#ff7500;stroke:#ff7500;" x="300.644661" xlink:href="#m70e795ec9f" y="200.515411"/>
     <use style="fill:#ff7500;stroke:#ff7500;" x="300.644661" xlink:href="#m70e795ec9f" y="200.515411"/>
    </g>
   </g>
   <g id="line2d_53">
    <path d="M -1 293.831505 
L 35.425356 293.831505 
L 35.425356 293.307257 
L 41.412271 293.307257 
L 41.412271 292.783009 
L 49.364136 292.783009 
L 49.364136 292.258761 
L 56.544432 292.258761 
L 56.544432 291.734514 
L 60.957095 291.734514 
L 60.957095 291.210266 
L 62.800499 291.210266 
L 62.800499 290.686018 
L 64.727642 290.686018 
L 64.727642 290.161771 
L 66.694199 290.161771 
L 66.694199 289.637523 
L 69.277344 289.637523 
L 69.277344 289.113275 
L 70.988122 289.113275 
L 70.988122 288.589027 
L 75.842277 288.589027 
L 75.842277 288.06478 
L 76.641893 288.06478 
L 76.641893 287.540532 
L 78.724199 287.540532 
L 78.724199 287.016284 
L 79.513324 287.016284 
L 79.513324 286.492036 
L 80.055597 286.492036 
L 80.055597 285.967789 
L 80.477425 285.967789 
L 80.581284 284.919293 
L 82.811668 284.919293 
L 82.811668 284.395046 
L 84.540625 284.395046 
L 84.540625 283.870798 
L 85.732 283.870798 
L 85.732 283.34655 
L 89.257818 283.34655 
L 89.257818 282.822302 
L 90.229873 282.822302 
L 90.229873 282.298055 
L 92.287186 282.298055 
L 92.287186 281.249559 
L 94.816624 281.249559 
L 94.816624 280.725312 
L 95.525534 280.725312 
L 95.525534 280.201064 
L 96.901359 280.201064 
L 96.901359 279.676816 
L 97.258229 279.676816 
L 97.258229 279.152568 
L 97.950482 279.152568 
L 97.950482 278.628321 
L 100.108516 278.628321 
L 100.108516 278.104073 
L 100.535381 278.104073 
L 100.535381 277.579825 
L 101.84622 277.579825 
L 101.906215 276.53133 
L 102.951792 276.53133 
L 102.951792 276.007082 
L 104.894724 276.007082 
L 104.894724 275.482834 
L 106.295697 275.482834 
L 106.295697 274.958587 
L 106.594637 274.958587 
L 106.594637 274.434339 
L 107.28719 274.434339 
L 107.28719 273.910091 
L 108.015995 273.910091 
L 108.015995 273.385844 
L 108.183079 273.385844 
L 108.183079 272.861596 
L 109.093814 272.861596 
L 109.093814 272.337348 
L 109.864733 272.337348 
L 109.864733 271.8131 
L 110.800026 271.8131 
L 110.800026 271.288853 
L 111.379177 271.288853 
L 111.379177 270.764605 
L 111.550893 270.764605 
L 111.585031 269.716109 
L 112.659154 269.716109 
L 112.659154 269.191862 
L 112.897778 269.191862 
L 112.897778 268.667614 
L 113.518374 268.667614 
L 113.518374 268.143366 
L 114.524536 268.143366 
L 114.524536 267.619119 
L 115.50222 267.619119 
L 115.50222 267.094871 
L 116.67 267.094871 
L 116.67 266.570623 
L 117.033994 266.570623 
L 117.133064 265.522128 
L 117.715785 265.522128 
L 117.715785 264.99788 
L 118.209948 264.99788 
L 118.209948 264.473632 
L 118.892126 264.473632 
L 118.892126 263.949385 
L 119.761522 263.949385 
L 119.761522 263.425137 
L 120.303926 263.425137 
L 120.303926 262.900889 
L 120.739875 262.900889 
L 120.739875 262.376641 
L 120.988342 262.376641 
L 121.008065 261.328146 
L 121.872963 261.328146 
L 121.872963 260.803898 
L 122.543869 260.803898 
L 122.543869 260.279651 
L 123.293428 260.279651 
L 123.293428 259.755403 
L 123.961935 259.755403 
L 123.961935 259.231155 
L 124.209139 259.231155 
L 124.225494 258.18266 
L 124.788315 258.18266 
L 124.788315 257.658412 
L 125.233378 257.658412 
L 125.233378 257.134164 
L 125.659691 257.134164 
L 125.659691 256.609917 
L 125.891216 256.609917 
L 125.891216 256.085669 
L 126.083022 256.085669 
L 126.083022 255.561421 
L 126.624612 255.561421 
L 126.624612 255.037173 
L 126.829535 255.037173 
L 126.829535 254.512926 
L 127.225332 254.512926 
L 127.225332 253.988678 
L 127.725942 253.988678 
L 127.725942 253.46443 
L 127.931399 253.46443 
L 127.931399 252.940182 
L 128.127918 252.940182 
L 128.127918 252.415935 
L 128.615935 252.415935 
L 128.615935 251.891687 
L 130.031162 251.891687 
L 130.124199 250.843192 
L 131.110218 250.843192 
L 131.19216 249.270448 
L 131.349481 249.270448 
L 131.457146 248.221953 
L 131.467876 248.221953 
L 131.467876 247.697705 
L 131.638643 247.697705 
L 131.638643 247.173458 
L 131.828749 247.173458 
L 131.828749 246.64921 
L 132.228442 246.64921 
L 132.274559 245.600714 
L 133.205786 245.600714 
L 133.312097 244.552219 
L 133.541793 244.552219 
L 133.541793 244.027971 
L 134.015313 244.027971 
L 134.015313 243.503724 
L 134.148898 243.503724 
L 134.148898 242.979476 
L 134.832576 242.979476 
L 134.832576 242.455228 
L 135.06906 242.455228 
L 135.06906 241.93098 
L 136.19279 241.93098 
L 136.28624 240.882485 
L 137.120631 240.882485 
L 137.120631 240.358237 
L 138.074131 240.358237 
L 138.074131 239.83399 
L 139.053563 239.83399 
L 139.146447 238.785494 
L 139.41537 238.785494 
L 139.41537 238.261246 
L 139.593457 238.261246 
L 139.593457 237.736999 
L 141.98327 237.736999 
L 141.98327 237.212751 
L 142.200064 237.212751 
L 142.200064 236.688503 
L 143.435674 236.688503 
L 143.435674 236.164255 
L 143.855541 236.164255 
L 143.855541 235.640008 
L 146.329504 235.640008 
L 146.329504 235.11576 
L 146.845758 235.11576 
L 146.845758 234.591512 
L 171.146692 234.591512 
L 171.146692 234.067265 
L 171.299566 234.067265 
L 171.299566 233.543017 
L 172.213381 233.543017 
L 172.213381 233.018769 
L 174.329533 233.018769 
L 174.329533 232.494521 
L 175.652929 232.494521 
L 175.652929 231.970274 
L 183.027587 231.970274 
L 183.027587 231.446026 
L 183.288169 231.446026 
L 183.288169 230.921778 
L 183.881849 230.921778 
L 183.881849 230.397531 
L 189.138698 230.397531 
L 189.138698 229.873283 
L 189.352074 229.873283 
L 189.352074 229.349035 
L 192.252109 229.349035 
L 192.355964 228.30054 
L 192.438815 228.30054 
L 192.438815 227.776292 
L 196.062541 227.776292 
L 196.062541 227.252044 
L 197.420136 227.252044 
L 197.420136 226.727797 
L 197.559127 226.727797 
L 197.559127 226.203549 
L 201.53306 226.203549 
L 201.53306 225.679301 
L 201.951515 225.679301 
L 201.951515 225.155053 
L 202.361499 225.155053 
L 202.409482 224.106558 
L 202.47466 224.106558 
L 202.47466 223.58231 
L 202.699452 223.58231 
L 202.699452 223.058063 
L 203.999222 223.058063 
L 203.999222 222.533815 
L 209.197351 222.533815 
L 209.197351 222.009567 
L 209.427326 222.009567 
L 209.449104 220.961072 
L 212.025929 220.961072 
L 212.10715 219.912576 
L 212.644471 219.912576 
L 212.644471 219.388328 
L 212.780073 219.388328 
L 212.792558 218.339833 
L 214.673174 218.339833 
L 214.673174 217.815585 
L 221.059105 217.815585 
L 221.059105 217.291338 
L 223.839665 217.291338 
L 223.839665 216.76709 
L 228.132235 216.76709 
L 228.132235 216.242842 
L 230.660101 216.242842 
L 230.660101 215.718594 
L 231.309929 215.718594 
L 231.309929 215.194347 
L 232.081172 215.194347 
L 232.081172 214.670099 
L 232.829933 214.670099 
L 232.829933 214.145851 
L 236.711919 214.145851 
L 236.711919 213.621604 
L 239.491202 213.621604 
L 239.491202 213.097356 
L 241.845263 213.097356 
L 241.845263 212.573108 
L 242.389505 212.573108 
L 242.389505 212.04886 
L 243.684671 212.04886 
L 243.751977 211.000365 
L 244.493507 211.000365 
L 244.493507 210.476117 
L 249.450544 210.476117 
L 249.450544 209.427622 
L 249.994956 209.427622 
L 249.994956 208.903374 
L 254.158235 208.903374 
L 254.182853 207.854879 
L 255.251348 207.854879 
L 255.251348 207.330631 
L 258.078398 207.330631 
L 258.078398 206.806383 
L 261.076314 206.806383 
L 261.0953 205.757888 
L 271.657723 205.757888 
L 271.657723 205.23364 
L 275.58683 205.23364 
L 275.58683 204.709392 
L 278.15221 204.709392 
L 278.15221 204.185145 
L 279.902745 204.185145 
L 279.902745 203.660897 
L 280.147869 203.660897 
L 280.147869 203.136649 
L 281.704973 203.136649 
L 281.709921 202.088154 
L 286.381867 202.088154 
L 286.381867 201.563906 
L 299.464848 201.563906 
L 299.464848 201.039658 
L 300.644661 201.039658 
L 300.644661 200.515411 
L 333.168 200.515411 
L 333.168 200.515411 
" style="fill:none;stroke:#ff7500;stroke-linecap:square;stroke-width:1.5;"/>
   </g>
   <g id="line2d_54">
    <defs>
     <path d="M 0 -6 
L -1.347084 -1.854102 
L -5.706339 -1.854102 
L -2.179628 0.708204 
L -3.526712 4.854102 
L -0 2.291796 
L 3.526712 4.854102 
L 2.179628 0.708204 
L 5.706339 -1.854102 
L 1.347084 -1.854102 
z
" id="m9a9dd130c4" style="stroke:#ff7500;stroke-linejoin:bevel;stroke-width:1.5;"/>
    </defs>
    <g>
     <use style="fill:none;stroke:#ff7500;stroke-linejoin:bevel;stroke-width:1.5;" x="102.951792" xlink:href="#m9a9dd130c4" y="276.007082"/>
     <use style="fill:none;stroke:#ff7500;stroke-linejoin:bevel;stroke-width:1.5;" x="192.438815" xlink:href="#m9a9dd130c4" y="227.776292"/>
     <use style="fill:none;stroke:#ff7500;stroke-linejoin:bevel;stroke-width:1.5;" x="249.994956" xlink:href="#m9a9dd130c4" y="209.427622"/>
     <use style="fill:none;stroke:#ff7500;stroke-linejoin:bevel;stroke-width:1.5;" x="300.644661" xlink:href="#m9a9dd130c4" y="200.515411"/>
     <use style="fill:none;stroke:#ff7500;stroke-linejoin:bevel;stroke-width:1.5;" x="333.168" xlink:href="#m9a9dd130c4" y="200.515411"/>
    </g>
   </g>
   <g id="line2d_55">
    <path style="fill:none;stroke:#ff7500;stroke-linecap:square;stroke-width:1.5;"/>
    <g/>
   </g>
   <g id="line2d_56">
    <path clip-path="url(#pafb65b9e33)" d="M 242.097238 212.573108 
" style="fill:none;stroke:#ff7500;stroke-linecap:square;stroke-width:1.5;"/>
    <defs>
     <path d="M -12 12 
L 12 -12 
M -12 -12 
L 12 12 
" id="m1a2785095a" style="stroke:#ff7500;"/>
    </defs>
    <g clip-path="url(#pafb65b9e33)">
     <use style="fill:#ff7500;stroke:#ff7500;" x="242.097238" xlink:href="#m1a2785095a" y="212.573108"/>
    </g>
   </g>
   <g id="line2d_57">
    <path d="M 333.168 231.970274 
L 363.64328 289.532673 
" style="fill:none;stroke:#000080;stroke-linecap:square;stroke-width:1.5;"/>
    <g>
     <use style="fill:none;stroke:#000080;stroke-width:1.5;" x="333.168" xlink:href="#m5f97445db6" y="231.970274"/>
     <use style="fill:none;stroke:#000080;stroke-width:1.5;" x="363.64328" xlink:href="#m5f97445db6" y="289.532673"/>
    </g>
   </g>
   <g id="line2d_58">
    <path d="M 333.168 200.515411 
L 363.64328 203.975446 
" style="fill:none;stroke:#ff7500;stroke-linecap:square;stroke-width:1.5;"/>
    <g>
     <use style="fill:none;stroke:#ff7500;stroke-linejoin:bevel;stroke-width:1.5;" x="333.168" xlink:href="#m9a9dd130c4" y="200.515411"/>
     <use style="fill:none;stroke:#ff7500;stroke-linejoin:bevel;stroke-width:1.5;" x="363.64328" xlink:href="#m9a9dd130c4" y="203.975446"/>
    </g>
   </g>
   <g id="line2d_59">
    <path d="M 333.168 111.393298 
L 363.64328 118.418218 
" style="fill:none;stroke:#ff00ff;stroke-linecap:square;stroke-width:1.5;"/>
    <g>
     <use style="fill:none;stroke:#ff00ff;stroke-linejoin:miter;stroke-width:1.5;" x="333.168" xlink:href="#m162416775a" y="111.393298"/>
     <use style="fill:none;stroke:#ff00ff;stroke-linejoin:miter;stroke-width:1.5;" x="363.64328" xlink:href="#m162416775a" y="118.418218"/>
    </g>
   </g>
   <g id="line2d_60">
    <path d="M 333.168 294.88 
L 333.168 27.513663 
" style="fill:none;stroke:#000000;stroke-linecap:square;stroke-width:1.5;"/>
   </g>
   <g id="patch_3">
    <path d="M 56.12 294.88 
L 56.12 24.84 
" style="fill:none;stroke:#000000;stroke-linecap:square;stroke-linejoin:miter;stroke-width:0.8;"/>
   </g>
   <g id="patch_4">
    <path d="M 333.168 294.88 
L 333.168 24.84 
" style="fill:none;stroke:#000000;stroke-linecap:square;stroke-linejoin:miter;stroke-width:0.8;"/>
   </g>
   <g id="patch_5">
    <path d="M 56.12 294.88 
L 333.168 294.88 
" style="fill:none;stroke:#000000;stroke-linecap:square;stroke-linejoin:miter;stroke-width:0.8;"/>
   </g>
   <g id="patch_6">
    <path d="M 56.12 24.84 
L 333.168 24.84 
" style="fill:none;stroke:#000000;stroke-linecap:square;stroke-linejoin:miter;stroke-width:0.8;"/>
   </g>
   <g id="text_13">
    <!-- CMA ES PPM -->
    <defs>
     <path d="M 64.40625 67.28125 
L 64.40625 56.890625 
Q 59.421875 61.53125 53.78125 63.8125 
Q 48.140625 66.109375 41.796875 66.109375 
Q 29.296875 66.109375 22.65625 58.46875 
Q 16.015625 50.828125 16.015625 36.375 
Q 16.015625 21.96875 22.65625 14.328125 
Q 29.296875 6.6875 41.796875 6.6875 
Q 48.140625 6.6875 53.78125 8.984375 
Q 59.421875 11.28125 64.40625 15.921875 
L 64.40625 5.609375 
Q 59.234375 2.09375 53.4375 0.328125 
Q 47.65625 -1.421875 41.21875 -1.421875 
Q 24.65625 -1.421875 15.125 8.703125 
Q 5.609375 18.84375 5.609375 36.375 
Q 5.609375 53.953125 15.125 64.078125 
Q 24.65625 74.21875 41.21875 74.21875 
Q 47.75 74.21875 53.53125 72.484375 
Q 59.328125 70.75 64.40625 67.28125 
z
" id="DejaVuSans-43"/>
     <path d="M 9.8125 72.90625 
L 24.515625 72.90625 
L 43.109375 23.296875 
L 61.8125 72.90625 
L 76.515625 72.90625 
L 76.515625 0 
L 66.890625 0 
L 66.890625 64.015625 
L 48.09375 14.015625 
L 38.1875 14.015625 
L 19.390625 64.015625 
L 19.390625 0 
L 9.8125 0 
z
" id="DejaVuSans-4d"/>
     <path d="M 34.1875 63.1875 
L 20.796875 26.90625 
L 47.609375 26.90625 
z
M 28.609375 72.90625 
L 39.796875 72.90625 
L 67.578125 0 
L 57.328125 0 
L 50.6875 18.703125 
L 17.828125 18.703125 
L 11.1875 0 
L 0.78125 0 
z
" id="DejaVuSans-41"/>
     <path d="M 9.8125 72.90625 
L 55.90625 72.90625 
L 55.90625 64.59375 
L 19.671875 64.59375 
L 19.671875 43.015625 
L 54.390625 43.015625 
L 54.390625 34.71875 
L 19.671875 34.71875 
L 19.671875 8.296875 
L 56.78125 8.296875 
L 56.78125 0 
L 9.8125 0 
z
" id="DejaVuSans-45"/>
     <path d="M 53.515625 70.515625 
L 53.515625 60.890625 
Q 47.90625 63.578125 42.921875 64.890625 
Q 37.9375 66.21875 33.296875 66.21875 
Q 25.25 66.21875 20.875 63.09375 
Q 16.5 59.96875 16.5 54.203125 
Q 16.5 49.359375 19.40625 46.890625 
Q 22.3125 44.4375 30.421875 42.921875 
L 36.375 41.703125 
Q 47.40625 39.59375 52.65625 34.296875 
Q 57.90625 29 57.90625 20.125 
Q 57.90625 9.515625 50.796875 4.046875 
Q 43.703125 -1.421875 29.984375 -1.421875 
Q 24.8125 -1.421875 18.96875 -0.25 
Q 13.140625 0.921875 6.890625 3.21875 
L 6.890625 13.375 
Q 12.890625 10.015625 18.65625 8.296875 
Q 24.421875 6.59375 29.984375 6.59375 
Q 38.421875 6.59375 43.015625 9.90625 
Q 47.609375 13.234375 47.609375 19.390625 
Q 47.609375 24.75 44.3125 27.78125 
Q 41.015625 30.8125 33.5 32.328125 
L 27.484375 33.5 
Q 16.453125 35.6875 11.515625 40.375 
Q 6.59375 45.0625 6.59375 53.421875 
Q 6.59375 63.09375 13.40625 68.65625 
Q 20.21875 74.21875 32.171875 74.21875 
Q 37.3125 74.21875 42.625 73.28125 
Q 47.953125 72.359375 53.515625 70.515625 
z
" id="DejaVuSans-53"/>
     <path d="M 19.671875 64.796875 
L 19.671875 37.40625 
L 32.078125 37.40625 
Q 38.96875 37.40625 42.71875 40.96875 
Q 46.484375 44.53125 46.484375 51.125 
Q 46.484375 57.671875 42.71875 61.234375 
Q 38.96875 64.796875 32.078125 64.796875 
z
M 9.8125 72.90625 
L 32.078125 72.90625 
Q 44.34375 72.90625 50.609375 67.359375 
Q 56.890625 61.8125 56.890625 51.125 
Q 56.890625 40.328125 50.609375 34.8125 
Q 44.34375 29.296875 32.078125 29.296875 
L 19.671875 29.296875 
L 19.671875 0 
L 9.8125 0 
z
" id="DejaVuSans-50"/>
    </defs>
    <g transform="translate(369.18424 294.223611)scale(0.17 -0.17)">
     <use xlink:href="#DejaVuSans-43"/>
     <use x="69.824219" xlink:href="#DejaVuSans-4d"/>
     <use x="156.103516" xlink:href="#DejaVuSans-41"/>
     <use x="224.511719" xlink:href="#DejaVuSans-20"/>
     <use x="256.298828" xlink:href="#DejaVuSans-45"/>
     <use x="319.482422" xlink:href="#DejaVuSans-53"/>
     <use x="382.958984" xlink:href="#DejaVuSans-20"/>
     <use x="414.746094" xlink:href="#DejaVuSans-50"/>
     <use x="475.048828" xlink:href="#DejaVuSans-50"/>
     <use x="535.351562" xlink:href="#DejaVuSans-4d"/>
    </g>
   </g>
   <g id="text_14">
    <!-- CMAES posi -->
    <g transform="translate(369.18424 208.666383)scale(0.17 -0.17)">
     <use xlink:href="#DejaVuSans-43"/>
     <use x="69.824219" xlink:href="#DejaVuSans-4d"/>
     <use x="156.103516" xlink:href="#DejaVuSans-41"/>
     <use x="224.511719" xlink:href="#DejaVuSans-45"/>
     <use x="287.695312" xlink:href="#DejaVuSans-53"/>
     <use x="351.171875" xlink:href="#DejaVuSans-20"/>
     <use x="382.958984" xlink:href="#DejaVuSans-70"/>
     <use x="446.435547" xlink:href="#DejaVuSans-6f"/>
     <use x="507.617188" xlink:href="#DejaVuSans-73"/>
     <use x="559.716797" xlink:href="#DejaVuSans-69"/>
    </g>
   </g>
   <g id="text_15">
    <!-- CMA ES CSA -->
    <g transform="translate(369.18424 123.109155)scale(0.17 -0.17)">
     <use xlink:href="#DejaVuSans-43"/>
     <use x="69.824219" xlink:href="#DejaVuSans-4d"/>
     <use x="156.103516" xlink:href="#DejaVuSans-41"/>
     <use x="224.511719" xlink:href="#DejaVuSans-20"/>
     <use x="256.298828" xlink:href="#DejaVuSans-45"/>
     <use x="319.482422" xlink:href="#DejaVuSans-53"/>
     <use x="382.958984" xlink:href="#DejaVuSans-20"/>
     <use x="414.746094" xlink:href="#DejaVuSans-43"/>
     <use x="484.570312" xlink:href="#DejaVuSans-53"/>
     <use x="548.0625" xlink:href="#DejaVuSans-41"/>
    </g>
   </g>
   <g id="text_16">
    <!-- best 2009 -->
    <defs>
     <path d="M 48.6875 27.296875 
Q 48.6875 37.203125 44.609375 42.84375 
Q 40.53125 48.484375 33.40625 48.484375 
Q 26.265625 48.484375 22.1875 42.84375 
Q 18.109375 37.203125 18.109375 27.296875 
Q 18.109375 17.390625 22.1875 11.75 
Q 26.265625 6.109375 33.40625 6.109375 
Q 40.53125 6.109375 44.609375 11.75 
Q 48.6875 17.390625 48.6875 27.296875 
z
M 18.109375 46.390625 
Q 20.953125 51.265625 25.265625 53.625 
Q 29.59375 56 35.59375 56 
Q 45.5625 56 51.78125 48.09375 
Q 58.015625 40.1875 58.015625 27.296875 
Q 58.015625 14.40625 51.78125 6.484375 
Q 45.5625 -1.421875 35.59375 -1.421875 
Q 29.59375 -1.421875 25.265625 0.953125 
Q 20.953125 3.328125 18.109375 8.203125 
L 18.109375 0 
L 9.078125 0 
L 9.078125 75.984375 
L 18.109375 75.984375 
z
" id="DejaVuSans-62"/>
     <path d="M 10.984375 1.515625 
L 10.984375 10.5 
Q 14.703125 8.734375 18.5 7.8125 
Q 22.3125 6.890625 25.984375 6.890625 
Q 35.75 6.890625 40.890625 13.453125 
Q 46.046875 20.015625 46.78125 33.40625 
Q 43.953125 29.203125 39.59375 26.953125 
Q 35.25 24.703125 29.984375 24.703125 
Q 19.046875 24.703125 12.671875 31.3125 
Q 6.296875 37.9375 6.296875 49.421875 
Q 6.296875 60.640625 12.9375 67.421875 
Q 19.578125 74.21875 30.609375 74.21875 
Q 43.265625 74.21875 49.921875 64.515625 
Q 56.59375 54.828125 56.59375 36.375 
Q 56.59375 19.140625 48.40625 8.859375 
Q 40.234375 -1.421875 26.421875 -1.421875 
Q 22.703125 -1.421875 18.890625 -0.6875 
Q 15.09375 0.046875 10.984375 1.515625 
z
M 30.609375 32.421875 
Q 37.25 32.421875 41.125 36.953125 
Q 45.015625 41.5 45.015625 49.421875 
Q 45.015625 57.28125 41.125 61.84375 
Q 37.25 66.40625 30.609375 66.40625 
Q 23.96875 66.40625 20.09375 61.84375 
Q 16.21875 57.28125 16.21875 49.421875 
Q 16.21875 41.5 20.09375 36.953125 
Q 23.96875 32.421875 30.609375 32.421875 
z
" id="DejaVuSans-39"/>
    </defs>
    <g transform="translate(369.18424 37.551928)scale(0.17 -0.17)">
     <use xlink:href="#DejaVuSans-62"/>
     <use x="63.476562" xlink:href="#DejaVuSans-65"/>
     <use x="125" xlink:href="#DejaVuSans-73"/>
     <use x="177.099609" xlink:href="#DejaVuSans-74"/>
     <use x="216.308594" xlink:href="#DejaVuSans-20"/>
     <use x="248.095703" xlink:href="#DejaVuSans-32"/>
     <use x="311.71875" xlink:href="#DejaVuSans-30"/>
     <use x="375.341797" xlink:href="#DejaVuSans-30"/>
     <use x="438.964844" xlink:href="#DejaVuSans-39"/>
    </g>
   </g>
   <g id="text_17">
    <!-- bbob f18, 40-D -->
    <defs>
     <path d="M 19.671875 64.796875 
L 19.671875 8.109375 
L 31.59375 8.109375 
Q 46.6875 8.109375 53.6875 14.9375 
Q 60.6875 21.78125 60.6875 36.53125 
Q 60.6875 51.171875 53.6875 57.984375 
Q 46.6875 64.796875 31.59375 64.796875 
z
M 9.8125 72.90625 
L 30.078125 72.90625 
Q 51.265625 72.90625 61.171875 64.09375 
Q 71.09375 55.28125 71.09375 36.53125 
Q 71.09375 17.671875 61.125 8.828125 
Q 51.171875 0 30.078125 0 
L 9.8125 0 
z
" id="DejaVuSans-44"/>
    </defs>
    <g transform="translate(58.89048 35.290806)scale(0.102 -0.102)">
     <use xlink:href="#DejaVuSans-62"/>
     <use x="63.476562" xlink:href="#DejaVuSans-62"/>
     <use x="126.953125" xlink:href="#DejaVuSans-6f"/>
     <use x="188.134766" xlink:href="#DejaVuSans-62"/>
     <use x="251.611328" xlink:href="#DejaVuSans-20"/>
     <use x="283.398438" xlink:href="#DejaVuSans-66"/>
     <use x="318.603516" xlink:href="#DejaVuSans-31"/>
     <use x="382.226562" xlink:href="#DejaVuSans-38"/>
     <use x="445.849609" xlink:href="#DejaVuSans-2c"/>
     <use x="477.636719" xlink:href="#DejaVuSans-20"/>
     <use x="509.423828" xlink:href="#DejaVuSans-34"/>
     <use x="573.046875" xlink:href="#DejaVuSans-30"/>
     <use x="636.669922" xlink:href="#DejaVuSans-2d"/>
     <use x="672.753906" xlink:href="#DejaVuSans-44"/>
    </g>
    <!-- 51 targets: 100..1e-08 -->
    <defs>
     <path d="M 10.796875 72.90625 
L 49.515625 72.90625 
L 49.515625 64.59375 
L 19.828125 64.59375 
L 19.828125 46.734375 
Q 21.96875 47.46875 24.109375 47.828125 
Q 26.265625 48.1875 28.421875 48.1875 
Q 40.625 48.1875 47.75 41.5 
Q 54.890625 34.8125 54.890625 23.390625 
Q 54.890625 11.625 47.5625 5.09375 
Q 40.234375 -1.421875 26.90625 -1.421875 
Q 22.3125 -1.421875 17.546875 -0.640625 
Q 12.796875 0.140625 7.71875 1.703125 
L 7.71875 11.625 
Q 12.109375 9.234375 16.796875 8.0625 
Q 21.484375 6.890625 26.703125 6.890625 
Q 35.15625 6.890625 40.078125 11.328125 
Q 45.015625 15.765625 45.015625 23.390625 
Q 45.015625 31 40.078125 35.4375 
Q 35.15625 39.890625 26.703125 39.890625 
Q 22.75 39.890625 18.8125 39.015625 
Q 14.890625 38.140625 10.796875 36.28125 
z
" id="DejaVuSans-35"/>
     <path d="M 11.71875 12.40625 
L 22.015625 12.40625 
L 22.015625 0 
L 11.71875 0 
z
M 11.71875 51.703125 
L 22.015625 51.703125 
L 22.015625 39.3125 
L 11.71875 39.3125 
z
" id="DejaVuSans-3a"/>
    </defs>
    <g transform="translate(58.89048 46.712575)scale(0.102 -0.102)">
     <use xlink:href="#DejaVuSans-35"/>
     <use x="63.623047" xlink:href="#DejaVuSans-31"/>
     <use x="127.246094" xlink:href="#DejaVuSans-20"/>
     <use x="159.033203" xlink:href="#DejaVuSans-74"/>
     <use x="198.242188" xlink:href="#DejaVuSans-61"/>
     <use x="259.521484" xlink:href="#DejaVuSans-72"/>
     <use x="300.619141" xlink:href="#DejaVuSans-67"/>
     <use x="364.095703" xlink:href="#DejaVuSans-65"/>
     <use x="425.619141" xlink:href="#DejaVuSans-74"/>
     <use x="464.828125" xlink:href="#DejaVuSans-73"/>
     <use x="516.927734" xlink:href="#DejaVuSans-3a"/>
     <use x="550.619141" xlink:href="#DejaVuSans-20"/>
     <use x="582.40625" xlink:href="#DejaVuSans-31"/>
     <use x="646.029297" xlink:href="#DejaVuSans-30"/>
     <use x="709.652344" xlink:href="#DejaVuSans-30"/>
     <use x="773.275391" xlink:href="#DejaVuSans-2e"/>
     <use x="805.0625" xlink:href="#DejaVuSans-2e"/>
     <use x="836.849609" xlink:href="#DejaVuSans-31"/>
     <use x="900.472656" xlink:href="#DejaVuSans-65"/>
     <use x="961.996094" xlink:href="#DejaVuSans-2d"/>
     <use x="998.080078" xlink:href="#DejaVuSans-30"/>
     <use x="1061.703125" xlink:href="#DejaVuSans-38"/>
    </g>
    <!-- 15 instances -->
    <g transform="translate(58.89048 58.134344)scale(0.102 -0.102)">
     <use xlink:href="#DejaVuSans-31"/>
     <use x="63.623047" xlink:href="#DejaVuSans-35"/>
     <use x="127.246094" xlink:href="#DejaVuSans-20"/>
     <use x="159.033203" xlink:href="#DejaVuSans-69"/>
     <use x="186.816406" xlink:href="#DejaVuSans-6e"/>
     <use x="250.195312" xlink:href="#DejaVuSans-73"/>
     <use x="302.294922" xlink:href="#DejaVuSans-74"/>
     <use x="341.503906" xlink:href="#DejaVuSans-61"/>
     <use x="402.783203" xlink:href="#DejaVuSans-6e"/>
     <use x="466.162109" xlink:href="#DejaVuSans-63"/>
     <use x="521.142578" xlink:href="#DejaVuSans-65"/>
     <use x="582.666016" xlink:href="#DejaVuSans-73"/>
    </g>
   </g>
   <g id="text_18">
    <!-- v0.0.0 -->
    <g style="fill:#808080;" transform="translate(178.96275 290.099912)scale(0.1 -0.1)">
     <use xlink:href="#DejaVuSans-76"/>
     <use x="59.179688" xlink:href="#DejaVuSans-30"/>
     <use x="122.802734" xlink:href="#DejaVuSans-2e"/>
     <use x="154.589844" xlink:href="#DejaVuSans-30"/>
     <use x="218.212891" xlink:href="#DejaVuSans-2e"/>
     <use x="250" xlink:href="#DejaVuSans-30"/>
    </g>
   </g>
   <g id="text_19">
    <!-- 18 Schaffer F7, condition 1000 -->
    <defs>
     <path d="M 54.890625 33.015625 
L 54.890625 0 
L 45.90625 0 
L 45.90625 32.71875 
Q 45.90625 40.484375 42.875 44.328125 
Q 39.84375 48.1875 33.796875 48.1875 
Q 26.515625 48.1875 22.3125 43.546875 
Q 18.109375 38.921875 18.109375 30.90625 
L 18.109375 0 
L 9.078125 0 
L 9.078125 75.984375 
L 18.109375 75.984375 
L 18.109375 46.1875 
Q 21.34375 51.125 25.703125 53.5625 
Q 30.078125 56 35.796875 56 
Q 45.21875 56 50.046875 50.171875 
Q 54.890625 44.34375 54.890625 33.015625 
z
" id="DejaVuSans-68"/>
     <path d="M 8.203125 72.90625 
L 55.078125 72.90625 
L 55.078125 68.703125 
L 28.609375 0 
L 18.3125 0 
L 43.21875 64.59375 
L 8.203125 64.59375 
z
" id="DejaVuSans-37"/>
    </defs>
    <g transform="translate(40.611187 18.84)scale(0.2 -0.2)">
     <use xlink:href="#DejaVuSans-31"/>
     <use x="63.623047" xlink:href="#DejaVuSans-38"/>
     <use x="127.246094" xlink:href="#DejaVuSans-20"/>
     <use x="159.033203" xlink:href="#DejaVuSans-53"/>
     <use x="222.509766" xlink:href="#DejaVuSans-63"/>
     <use x="277.490234" xlink:href="#DejaVuSans-68"/>
     <use x="340.869141" xlink:href="#DejaVuSans-61"/>
     <use x="402.148438" xlink:href="#DejaVuSans-66"/>
     <use x="437.353516" xlink:href="#DejaVuSans-66"/>
     <use x="472.558594" xlink:href="#DejaVuSans-65"/>
     <use x="534.082031" xlink:href="#DejaVuSans-72"/>
     <use x="575.195312" xlink:href="#DejaVuSans-20"/>
     <use x="606.982422" xlink:href="#DejaVuSans-46"/>
     <use x="664.501953" xlink:href="#DejaVuSans-37"/>
     <use x="728.125" xlink:href="#DejaVuSans-2c"/>
     <use x="759.912109" xlink:href="#DejaVuSans-20"/>
     <use x="791.699219" xlink:href="#DejaVuSans-63"/>
     <use x="846.679688" xlink:href="#DejaVuSans-6f"/>
     <use x="907.861328" xlink:href="#DejaVuSans-6e"/>
     <use x="971.240234" xlink:href="#DejaVuSans-64"/>
     <use x="1034.716797" xlink:href="#DejaVuSans-69"/>
     <use x="1062.5" xlink:href="#DejaVuSans-74"/>
     <use x="1101.708984" xlink:href="#DejaVuSans-69"/>
     <use x="1129.492188" xlink:href="#DejaVuSans-6f"/>
     <use x="1190.673828" xlink:href="#DejaVuSans-6e"/>
     <use x="1254.052734" xlink:href="#DejaVuSans-20"/>
     <use x="1285.839844" xlink:href="#DejaVuSans-31"/>
     <use x="1349.462891" xlink:href="#DejaVuSans-30"/>
     <use x="1413.085938" xlink:href="#DejaVuSans-30"/>
     <use x="1476.708984" xlink:href="#DejaVuSans-30"/>
    </g>
   </g>
  </g>
 </g>
 <defs>
  <clipPath id="pafb65b9e33">
   <rect height="270.04" width="277.048" x="56.12" y="24.84"/>
  </clipPath>
 </defs>
</svg>
