<?xml version="1.0" encoding="utf-8" standalone="no"?>
<!DOCTYPE svg PUBLIC "-//W3C//DTD SVG 1.1//EN"
  "http://www.w3.org/Graphics/SVG/1.1/DTD/svg11.dtd">
<!-- Created with matplotlib (http://matplotlib.org/) -->
<svg height="345pt" version="1.1" viewBox="0 0 460 345" width="460pt" xmlns="http://www.w3.org/2000/svg" xmlns:xlink="http://www.w3.org/1999/xlink">
 <defs>
  <style type="text/css">
*{stroke-linecap:butt;stroke-linejoin:round;}
  </style>
 </defs>
 <g id="figure_1">
  <g id="patch_1">
   <path d="M 0 345.6 
L 460.8 345.6 
L 460.8 0 
L 0 0 
z
" style="fill:#ffffff;"/>
  </g>
  <g id="axes_1">
   <g id="patch_2">
    <path d="M 56.12 294.88 
L 333.168 294.88 
L 333.168 24.84 
L 56.12 24.84 
z
" style="fill:#ffffff;"/>
   </g>
   <g id="line2d_1">
    <path d="M 90.981092 294.88 
L 90.981092 289.637523 
L 103.723206 289.637523 
L 103.723206 284.395046 
L 105.896762 284.395046 
L 105.896762 279.152568 
L 108.286687 279.152568 
L 108.286687 273.910091 
L 122.133402 273.910091 
L 122.133402 268.667614 
L 128.533435 268.667614 
L 128.533435 263.425137 
L 138.960174 263.425137 
L 138.960174 258.18266 
L 142.636822 258.18266 
L 142.636822 252.940182 
L 144.643295 252.940182 
L 144.643295 247.697705 
L 146.904844 247.697705 
L 146.904844 242.455228 
L 148.329669 242.455228 
L 148.329669 237.212751 
L 156.829485 237.212751 
L 156.829485 231.970274 
L 157.549986 231.970274 
L 157.549986 226.727797 
L 160.879512 226.727797 
L 160.879512 221.485319 
L 161.550308 221.485319 
L 161.550308 216.242842 
L 162.064372 216.242842 
L 162.064372 211.000365 
L 162.840622 211.000365 
L 162.840622 205.757888 
L 163.869043 205.757888 
L 163.869043 200.515411 
L 168.375593 200.515411 
L 168.375593 195.272933 
L 171.323858 195.272933 
L 171.323858 190.030456 
L 171.572191 190.030456 
L 171.572191 184.787979 
L 171.573231 184.787979 
L 171.573231 74.695958 
L 171.641749 74.695958 
L 171.641749 69.453481 
L 171.716186 69.453481 
L 171.716186 64.211004 
L 171.857961 64.211004 
L 171.857961 58.968526 
L 172.030007 58.968526 
L 172.030007 53.726049 
L 172.084619 53.726049 
L 172.084619 48.483572 
L 172.150126 48.483572 
L 172.150126 43.241095 
L 172.349141 43.241095 
L 172.349141 37.998618 
L 172.637055 37.998618 
L 172.637055 32.756141 
L 172.873996 32.756141 
L 172.873996 27.513663 
L 333.168 27.513663 
" style="fill:none;stroke:#f5deb3;stroke-linecap:square;stroke-width:4;"/>
   </g>
   <g id="line2d_2">
    <defs>
     <path d="M -0 7.778175 
L 7.778175 0 
L 0 -7.778175 
L -7.778175 -0 
z
" id="md367323711" style="stroke:#f5deb3;stroke-linejoin:miter;stroke-width:1.5;"/>
    </defs>
    <g>
     <use style="fill:#f5deb3;stroke:#f5deb3;stroke-linejoin:miter;stroke-width:1.5;" x="171.572191" xlink:href="#md367323711" y="184.787979"/>
     <use style="fill:#f5deb3;stroke:#f5deb3;stroke-linejoin:miter;stroke-width:1.5;" x="172.349141" xlink:href="#md367323711" y="37.998618"/>
     <use style="fill:#f5deb3;stroke:#f5deb3;stroke-linejoin:miter;stroke-width:1.5;" x="172.873996" xlink:href="#md367323711" y="27.513663"/>
     <use style="fill:#f5deb3;stroke:#f5deb3;stroke-linejoin:miter;stroke-width:1.5;" x="172.873996" xlink:href="#md367323711" y="27.513663"/>
     <use style="fill:#f5deb3;stroke:#f5deb3;stroke-linejoin:miter;stroke-width:1.5;" x="333.168" xlink:href="#md367323711" y="27.513663"/>
    </g>
   </g>
   <g id="line2d_3">
    <path style="fill:none;stroke:#f5deb3;stroke-linecap:square;stroke-width:4;"/>
    <g/>
   </g>
   <g id="line2d_4">
    <path d="M 333.168 27.513663 
L 363.64328 32.86099 
" style="fill:none;stroke:#f5deb3;stroke-linecap:square;stroke-width:4;"/>
    <g>
     <use style="fill:#f5deb3;stroke:#f5deb3;stroke-linejoin:miter;stroke-width:1.5;" x="333.168" xlink:href="#md367323711" y="27.513663"/>
     <use style="fill:#f5deb3;stroke:#f5deb3;stroke-linejoin:miter;stroke-width:1.5;" x="363.64328" xlink:href="#md367323711" y="32.86099"/>
    </g>
   </g>
   <g id="matplotlib.axis_1">
    <g id="xtick_1">
     <g id="line2d_5">
      <path clip-path="url(#pfd8baa16da)" d="M 56.12 294.88 
L 56.12 24.84 
" style="fill:none;stroke:#b0b0b0;stroke-linecap:square;stroke-width:0.8;"/>
     </g>
     <g id="line2d_6">
      <defs>
       <path d="M 0 0 
L 0 3.5 
" id="m31cebf90cf" style="stroke:#000000;stroke-width:0.8;"/>
      </defs>
      <g>
       <use style="stroke:#000000;stroke-width:0.8;" x="56.12" xlink:href="#m31cebf90cf" y="294.88"/>
      </g>
     </g>
     <g id="text_1">
      <!-- 0 -->
      <defs>
       <path d="M 31.78125 66.40625 
Q 24.171875 66.40625 20.328125 58.90625 
Q 16.5 51.421875 16.5 36.375 
Q 16.5 21.390625 20.328125 13.890625 
Q 24.171875 6.390625 31.78125 6.390625 
Q 39.453125 6.390625 43.28125 13.890625 
Q 47.125 21.390625 47.125 36.375 
Q 47.125 51.421875 43.28125 58.90625 
Q 39.453125 66.40625 31.78125 66.40625 
z
M 31.78125 74.21875 
Q 44.046875 74.21875 50.515625 64.515625 
Q 56.984375 54.828125 56.984375 36.375 
Q 56.984375 17.96875 50.515625 8.265625 
Q 44.046875 -1.421875 31.78125 -1.421875 
Q 19.53125 -1.421875 13.0625 8.265625 
Q 6.59375 17.96875 6.59375 36.375 
Q 6.59375 54.828125 13.0625 64.515625 
Q 19.53125 74.21875 31.78125 74.21875 
z
" id="DejaVuSans-30"/>
      </defs>
      <g transform="translate(49.7575 317.076875)scale(0.2 -0.2)">
       <use xlink:href="#DejaVuSans-30"/>
      </g>
     </g>
    </g>
    <g id="xtick_2">
     <g id="line2d_7">
      <path clip-path="url(#pfd8baa16da)" d="M 135.276571 294.88 
L 135.276571 24.84 
" style="fill:none;stroke:#b0b0b0;stroke-linecap:square;stroke-width:0.8;"/>
     </g>
     <g id="line2d_8">
      <g>
       <use style="stroke:#000000;stroke-width:0.8;" x="135.276571" xlink:href="#m31cebf90cf" y="294.88"/>
      </g>
     </g>
     <g id="text_2">
      <!-- 2 -->
      <defs>
       <path d="M 19.1875 8.296875 
L 53.609375 8.296875 
L 53.609375 0 
L 7.328125 0 
L 7.328125 8.296875 
Q 12.9375 14.109375 22.625 23.890625 
Q 32.328125 33.6875 34.8125 36.53125 
Q 39.546875 41.84375 41.421875 45.53125 
Q 43.3125 49.21875 43.3125 52.78125 
Q 43.3125 58.59375 39.234375 62.25 
Q 35.15625 65.921875 28.609375 65.921875 
Q 23.96875 65.921875 18.8125 64.3125 
Q 13.671875 62.703125 7.8125 59.421875 
L 7.8125 69.390625 
Q 13.765625 71.78125 18.9375 73 
Q 24.125 74.21875 28.421875 74.21875 
Q 39.75 74.21875 46.484375 68.546875 
Q 53.21875 62.890625 53.21875 53.421875 
Q 53.21875 48.921875 51.53125 44.890625 
Q 49.859375 40.875 45.40625 35.40625 
Q 44.1875 33.984375 37.640625 27.21875 
Q 31.109375 20.453125 19.1875 8.296875 
z
" id="DejaVuSans-32"/>
      </defs>
      <g transform="translate(128.914071 317.076875)scale(0.2 -0.2)">
       <use xlink:href="#DejaVuSans-32"/>
      </g>
     </g>
    </g>
    <g id="xtick_3">
     <g id="line2d_9">
      <path clip-path="url(#pfd8baa16da)" d="M 214.433143 294.88 
L 214.433143 24.84 
" style="fill:none;stroke:#b0b0b0;stroke-linecap:square;stroke-width:0.8;"/>
     </g>
     <g id="line2d_10">
      <g>
       <use style="stroke:#000000;stroke-width:0.8;" x="214.433143" xlink:href="#m31cebf90cf" y="294.88"/>
      </g>
     </g>
     <g id="text_3">
      <!-- 4 -->
      <defs>
       <path d="M 37.796875 64.3125 
L 12.890625 25.390625 
L 37.796875 25.390625 
z
M 35.203125 72.90625 
L 47.609375 72.90625 
L 47.609375 25.390625 
L 58.015625 25.390625 
L 58.015625 17.1875 
L 47.609375 17.1875 
L 47.609375 0 
L 37.796875 0 
L 37.796875 17.1875 
L 4.890625 17.1875 
L 4.890625 26.703125 
z
" id="DejaVuSans-34"/>
      </defs>
      <g transform="translate(208.070643 317.076875)scale(0.2 -0.2)">
       <use xlink:href="#DejaVuSans-34"/>
      </g>
     </g>
    </g>
    <g id="xtick_4">
     <g id="line2d_11">
      <path clip-path="url(#pfd8baa16da)" d="M 293.589714 294.88 
L 293.589714 24.84 
" style="fill:none;stroke:#b0b0b0;stroke-linecap:square;stroke-width:0.8;"/>
     </g>
     <g id="line2d_12">
      <g>
       <use style="stroke:#000000;stroke-width:0.8;" x="293.589714" xlink:href="#m31cebf90cf" y="294.88"/>
      </g>
     </g>
     <g id="text_4">
      <!-- 6 -->
      <defs>
       <path d="M 33.015625 40.375 
Q 26.375 40.375 22.484375 35.828125 
Q 18.609375 31.296875 18.609375 23.390625 
Q 18.609375 15.53125 22.484375 10.953125 
Q 26.375 6.390625 33.015625 6.390625 
Q 39.65625 6.390625 43.53125 10.953125 
Q 47.40625 15.53125 47.40625 23.390625 
Q 47.40625 31.296875 43.53125 35.828125 
Q 39.65625 40.375 33.015625 40.375 
z
M 52.59375 71.296875 
L 52.59375 62.3125 
Q 48.875 64.0625 45.09375 64.984375 
Q 41.3125 65.921875 37.59375 65.921875 
Q 27.828125 65.921875 22.671875 59.328125 
Q 17.53125 52.734375 16.796875 39.40625 
Q 19.671875 43.65625 24.015625 45.921875 
Q 28.375 48.1875 33.59375 48.1875 
Q 44.578125 48.1875 50.953125 41.515625 
Q 57.328125 34.859375 57.328125 23.390625 
Q 57.328125 12.15625 50.6875 5.359375 
Q 44.046875 -1.421875 33.015625 -1.421875 
Q 20.359375 -1.421875 13.671875 8.265625 
Q 6.984375 17.96875 6.984375 36.375 
Q 6.984375 53.65625 15.1875 63.9375 
Q 23.390625 74.21875 37.203125 74.21875 
Q 40.921875 74.21875 44.703125 73.484375 
Q 48.484375 72.75 52.59375 71.296875 
z
" id="DejaVuSans-36"/>
      </defs>
      <g transform="translate(287.227214 317.076875)scale(0.2 -0.2)">
       <use xlink:href="#DejaVuSans-36"/>
      </g>
     </g>
    </g>
    <g id="xtick_5">
     <g id="line2d_13">
      <path clip-path="url(#pfd8baa16da)" d="M 56.12 294.88 
L 56.12 24.84 
" style="fill:none;stroke:#b0b0b0;stroke-linecap:square;stroke-width:0.8;"/>
     </g>
     <g id="line2d_14">
      <defs>
       <path d="M 0 0 
L 0 2 
" id="mc309d2db98" style="stroke:#000000;stroke-width:0.6;"/>
      </defs>
      <g>
       <use style="stroke:#000000;stroke-width:0.6;" x="56.12" xlink:href="#mc309d2db98" y="294.88"/>
      </g>
     </g>
    </g>
    <g id="xtick_6">
     <g id="line2d_15">
      <path clip-path="url(#pfd8baa16da)" d="M 95.698286 294.88 
L 95.698286 24.84 
" style="fill:none;stroke:#b0b0b0;stroke-linecap:square;stroke-width:0.8;"/>
     </g>
     <g id="line2d_16">
      <g>
       <use style="stroke:#000000;stroke-width:0.6;" x="95.698286" xlink:href="#mc309d2db98" y="294.88"/>
      </g>
     </g>
    </g>
    <g id="xtick_7">
     <g id="line2d_17">
      <path clip-path="url(#pfd8baa16da)" d="M 135.276571 294.88 
L 135.276571 24.84 
" style="fill:none;stroke:#b0b0b0;stroke-linecap:square;stroke-width:0.8;"/>
     </g>
     <g id="line2d_18">
      <g>
       <use style="stroke:#000000;stroke-width:0.6;" x="135.276571" xlink:href="#mc309d2db98" y="294.88"/>
      </g>
     </g>
    </g>
    <g id="xtick_8">
     <g id="line2d_19">
      <path clip-path="url(#pfd8baa16da)" d="M 174.854857 294.88 
L 174.854857 24.84 
" style="fill:none;stroke:#b0b0b0;stroke-linecap:square;stroke-width:0.8;"/>
     </g>
     <g id="line2d_20">
      <g>
       <use style="stroke:#000000;stroke-width:0.6;" x="174.854857" xlink:href="#mc309d2db98" y="294.88"/>
      </g>
     </g>
    </g>
    <g id="xtick_9">
     <g id="line2d_21">
      <path clip-path="url(#pfd8baa16da)" d="M 214.433143 294.88 
L 214.433143 24.84 
" style="fill:none;stroke:#b0b0b0;stroke-linecap:square;stroke-width:0.8;"/>
     </g>
     <g id="line2d_22">
      <g>
       <use style="stroke:#000000;stroke-width:0.6;" x="214.433143" xlink:href="#mc309d2db98" y="294.88"/>
      </g>
     </g>
    </g>
    <g id="xtick_10">
     <g id="line2d_23">
      <path clip-path="url(#pfd8baa16da)" d="M 254.011429 294.88 
L 254.011429 24.84 
" style="fill:none;stroke:#b0b0b0;stroke-linecap:square;stroke-width:0.8;"/>
     </g>
     <g id="line2d_24">
      <g>
       <use style="stroke:#000000;stroke-width:0.6;" x="254.011429" xlink:href="#mc309d2db98" y="294.88"/>
      </g>
     </g>
    </g>
    <g id="xtick_11">
     <g id="line2d_25">
      <path clip-path="url(#pfd8baa16da)" d="M 293.589714 294.88 
L 293.589714 24.84 
" style="fill:none;stroke:#b0b0b0;stroke-linecap:square;stroke-width:0.8;"/>
     </g>
     <g id="line2d_26">
      <g>
       <use style="stroke:#000000;stroke-width:0.6;" x="293.589714" xlink:href="#mc309d2db98" y="294.88"/>
      </g>
     </g>
    </g>
    <g id="xtick_12">
     <g id="line2d_27">
      <path clip-path="url(#pfd8baa16da)" d="M 333.168 294.88 
L 333.168 24.84 
" style="fill:none;stroke:#b0b0b0;stroke-linecap:square;stroke-width:0.8;"/>
     </g>
     <g id="line2d_28">
      <g>
       <use style="stroke:#000000;stroke-width:0.6;" x="333.168" xlink:href="#mc309d2db98" y="294.88"/>
      </g>
     </g>
    </g>
    <g id="text_5">
     <!-- log10(# f-evals / dimension) -->
     <defs>
      <path d="M 9.421875 75.984375 
L 18.40625 75.984375 
L 18.40625 0 
L 9.421875 0 
z
" id="DejaVuSans-6c"/>
      <path d="M 30.609375 48.390625 
Q 23.390625 48.390625 19.1875 42.75 
Q 14.984375 37.109375 14.984375 27.296875 
Q 14.984375 17.484375 19.15625 11.84375 
Q 23.34375 6.203125 30.609375 6.203125 
Q 37.796875 6.203125 41.984375 11.859375 
Q 46.1875 17.53125 46.1875 27.296875 
Q 46.1875 37.015625 41.984375 42.703125 
Q 37.796875 48.390625 30.609375 48.390625 
z
M 30.609375 56 
Q 42.328125 56 49.015625 48.375 
Q 55.71875 40.765625 55.71875 27.296875 
Q 55.71875 13.875 49.015625 6.21875 
Q 42.328125 -1.421875 30.609375 -1.421875 
Q 18.84375 -1.421875 12.171875 6.21875 
Q 5.515625 13.875 5.515625 27.296875 
Q 5.515625 40.765625 12.171875 48.375 
Q 18.84375 56 30.609375 56 
z
" id="DejaVuSans-6f"/>
      <path d="M 45.40625 27.984375 
Q 45.40625 37.75 41.375 43.109375 
Q 37.359375 48.484375 30.078125 48.484375 
Q 22.859375 48.484375 18.828125 43.109375 
Q 14.796875 37.75 14.796875 27.984375 
Q 14.796875 18.265625 18.828125 12.890625 
Q 22.859375 7.515625 30.078125 7.515625 
Q 37.359375 7.515625 41.375 12.890625 
Q 45.40625 18.265625 45.40625 27.984375 
z
M 54.390625 6.78125 
Q 54.390625 -7.171875 48.1875 -13.984375 
Q 42 -20.796875 29.203125 -20.796875 
Q 24.46875 -20.796875 20.265625 -20.09375 
Q 16.0625 -19.390625 12.109375 -17.921875 
L 12.109375 -9.1875 
Q 16.0625 -11.328125 19.921875 -12.34375 
Q 23.78125 -13.375 27.78125 -13.375 
Q 36.625 -13.375 41.015625 -8.765625 
Q 45.40625 -4.15625 45.40625 5.171875 
L 45.40625 9.625 
Q 42.625 4.78125 38.28125 2.390625 
Q 33.9375 0 27.875 0 
Q 17.828125 0 11.671875 7.65625 
Q 5.515625 15.328125 5.515625 27.984375 
Q 5.515625 40.671875 11.671875 48.328125 
Q 17.828125 56 27.875 56 
Q 33.9375 56 38.28125 53.609375 
Q 42.625 51.21875 45.40625 46.390625 
L 45.40625 54.6875 
L 54.390625 54.6875 
z
" id="DejaVuSans-67"/>
      <path d="M 12.40625 8.296875 
L 28.515625 8.296875 
L 28.515625 63.921875 
L 10.984375 60.40625 
L 10.984375 69.390625 
L 28.421875 72.90625 
L 38.28125 72.90625 
L 38.28125 8.296875 
L 54.390625 8.296875 
L 54.390625 0 
L 12.40625 0 
z
" id="DejaVuSans-31"/>
      <path d="M 31 75.875 
Q 24.46875 64.65625 21.28125 53.65625 
Q 18.109375 42.671875 18.109375 31.390625 
Q 18.109375 20.125 21.3125 9.0625 
Q 24.515625 -2 31 -13.1875 
L 23.1875 -13.1875 
Q 15.875 -1.703125 12.234375 9.375 
Q 8.59375 20.453125 8.59375 31.390625 
Q 8.59375 42.28125 12.203125 53.3125 
Q 15.828125 64.359375 23.1875 75.875 
z
" id="DejaVuSans-28"/>
      <path d="M 51.125 44 
L 36.921875 44 
L 32.8125 27.6875 
L 47.125 27.6875 
z
M 43.796875 71.78125 
L 38.71875 51.515625 
L 52.984375 51.515625 
L 58.109375 71.78125 
L 65.921875 71.78125 
L 60.890625 51.515625 
L 76.125 51.515625 
L 76.125 44 
L 58.984375 44 
L 54.984375 27.6875 
L 70.515625 27.6875 
L 70.515625 20.21875 
L 53.078125 20.21875 
L 48 0 
L 40.1875 0 
L 45.21875 20.21875 
L 30.90625 20.21875 
L 25.875 0 
L 18.015625 0 
L 23.09375 20.21875 
L 7.71875 20.21875 
L 7.71875 27.6875 
L 24.90625 27.6875 
L 29 44 
L 13.28125 44 
L 13.28125 51.515625 
L 30.90625 51.515625 
L 35.890625 71.78125 
z
" id="DejaVuSans-23"/>
      <path id="DejaVuSans-20"/>
      <path d="M 37.109375 75.984375 
L 37.109375 68.5 
L 28.515625 68.5 
Q 23.6875 68.5 21.796875 66.546875 
Q 19.921875 64.59375 19.921875 59.515625 
L 19.921875 54.6875 
L 34.71875 54.6875 
L 34.71875 47.703125 
L 19.921875 47.703125 
L 19.921875 0 
L 10.890625 0 
L 10.890625 47.703125 
L 2.296875 47.703125 
L 2.296875 54.6875 
L 10.890625 54.6875 
L 10.890625 58.5 
Q 10.890625 67.625 15.140625 71.796875 
Q 19.390625 75.984375 28.609375 75.984375 
z
" id="DejaVuSans-66"/>
      <path d="M 4.890625 31.390625 
L 31.203125 31.390625 
L 31.203125 23.390625 
L 4.890625 23.390625 
z
" id="DejaVuSans-2d"/>
      <path d="M 56.203125 29.59375 
L 56.203125 25.203125 
L 14.890625 25.203125 
Q 15.484375 15.921875 20.484375 11.0625 
Q 25.484375 6.203125 34.421875 6.203125 
Q 39.59375 6.203125 44.453125 7.46875 
Q 49.3125 8.734375 54.109375 11.28125 
L 54.109375 2.78125 
Q 49.265625 0.734375 44.1875 -0.34375 
Q 39.109375 -1.421875 33.890625 -1.421875 
Q 20.796875 -1.421875 13.15625 6.1875 
Q 5.515625 13.8125 5.515625 26.8125 
Q 5.515625 40.234375 12.765625 48.109375 
Q 20.015625 56 32.328125 56 
Q 43.359375 56 49.78125 48.890625 
Q 56.203125 41.796875 56.203125 29.59375 
z
M 47.21875 32.234375 
Q 47.125 39.59375 43.09375 43.984375 
Q 39.0625 48.390625 32.421875 48.390625 
Q 24.90625 48.390625 20.390625 44.140625 
Q 15.875 39.890625 15.1875 32.171875 
z
" id="DejaVuSans-65"/>
      <path d="M 2.984375 54.6875 
L 12.5 54.6875 
L 29.59375 8.796875 
L 46.6875 54.6875 
L 56.203125 54.6875 
L 35.6875 0 
L 23.484375 0 
z
" id="DejaVuSans-76"/>
      <path d="M 34.28125 27.484375 
Q 23.390625 27.484375 19.1875 25 
Q 14.984375 22.515625 14.984375 16.5 
Q 14.984375 11.71875 18.140625 8.90625 
Q 21.296875 6.109375 26.703125 6.109375 
Q 34.1875 6.109375 38.703125 11.40625 
Q 43.21875 16.703125 43.21875 25.484375 
L 43.21875 27.484375 
z
M 52.203125 31.203125 
L 52.203125 0 
L 43.21875 0 
L 43.21875 8.296875 
Q 40.140625 3.328125 35.546875 0.953125 
Q 30.953125 -1.421875 24.3125 -1.421875 
Q 15.921875 -1.421875 10.953125 3.296875 
Q 6 8.015625 6 15.921875 
Q 6 25.140625 12.171875 29.828125 
Q 18.359375 34.515625 30.609375 34.515625 
L 43.21875 34.515625 
L 43.21875 35.40625 
Q 43.21875 41.609375 39.140625 45 
Q 35.0625 48.390625 27.6875 48.390625 
Q 23 48.390625 18.546875 47.265625 
Q 14.109375 46.140625 10.015625 43.890625 
L 10.015625 52.203125 
Q 14.9375 54.109375 19.578125 55.046875 
Q 24.21875 56 28.609375 56 
Q 40.484375 56 46.34375 49.84375 
Q 52.203125 43.703125 52.203125 31.203125 
z
" id="DejaVuSans-61"/>
      <path d="M 44.28125 53.078125 
L 44.28125 44.578125 
Q 40.484375 46.53125 36.375 47.5 
Q 32.28125 48.484375 27.875 48.484375 
Q 21.1875 48.484375 17.84375 46.4375 
Q 14.5 44.390625 14.5 40.28125 
Q 14.5 37.15625 16.890625 35.375 
Q 19.28125 33.59375 26.515625 31.984375 
L 29.59375 31.296875 
Q 39.15625 29.25 43.1875 25.515625 
Q 47.21875 21.78125 47.21875 15.09375 
Q 47.21875 7.46875 41.1875 3.015625 
Q 35.15625 -1.421875 24.609375 -1.421875 
Q 20.21875 -1.421875 15.453125 -0.5625 
Q 10.6875 0.296875 5.421875 2 
L 5.421875 11.28125 
Q 10.40625 8.6875 15.234375 7.390625 
Q 20.0625 6.109375 24.8125 6.109375 
Q 31.15625 6.109375 34.5625 8.28125 
Q 37.984375 10.453125 37.984375 14.40625 
Q 37.984375 18.0625 35.515625 20.015625 
Q 33.0625 21.96875 24.703125 23.78125 
L 21.578125 24.515625 
Q 13.234375 26.265625 9.515625 29.90625 
Q 5.8125 33.546875 5.8125 39.890625 
Q 5.8125 47.609375 11.28125 51.796875 
Q 16.75 56 26.8125 56 
Q 31.78125 56 36.171875 55.265625 
Q 40.578125 54.546875 44.28125 53.078125 
z
" id="DejaVuSans-73"/>
      <path d="M 25.390625 72.90625 
L 33.6875 72.90625 
L 8.296875 -9.28125 
L 0 -9.28125 
z
" id="DejaVuSans-2f"/>
      <path d="M 45.40625 46.390625 
L 45.40625 75.984375 
L 54.390625 75.984375 
L 54.390625 0 
L 45.40625 0 
L 45.40625 8.203125 
Q 42.578125 3.328125 38.25 0.953125 
Q 33.9375 -1.421875 27.875 -1.421875 
Q 17.96875 -1.421875 11.734375 6.484375 
Q 5.515625 14.40625 5.515625 27.296875 
Q 5.515625 40.1875 11.734375 48.09375 
Q 17.96875 56 27.875 56 
Q 33.9375 56 38.25 53.625 
Q 42.578125 51.265625 45.40625 46.390625 
z
M 14.796875 27.296875 
Q 14.796875 17.390625 18.875 11.75 
Q 22.953125 6.109375 30.078125 6.109375 
Q 37.203125 6.109375 41.296875 11.75 
Q 45.40625 17.390625 45.40625 27.296875 
Q 45.40625 37.203125 41.296875 42.84375 
Q 37.203125 48.484375 30.078125 48.484375 
Q 22.953125 48.484375 18.875 42.84375 
Q 14.796875 37.203125 14.796875 27.296875 
z
" id="DejaVuSans-64"/>
      <path d="M 9.421875 54.6875 
L 18.40625 54.6875 
L 18.40625 0 
L 9.421875 0 
z
M 9.421875 75.984375 
L 18.40625 75.984375 
L 18.40625 64.59375 
L 9.421875 64.59375 
z
" id="DejaVuSans-69"/>
      <path d="M 52 44.1875 
Q 55.375 50.25 60.0625 53.125 
Q 64.75 56 71.09375 56 
Q 79.640625 56 84.28125 50.015625 
Q 88.921875 44.046875 88.921875 33.015625 
L 88.921875 0 
L 79.890625 0 
L 79.890625 32.71875 
Q 79.890625 40.578125 77.09375 44.375 
Q 74.3125 48.1875 68.609375 48.1875 
Q 61.625 48.1875 57.5625 43.546875 
Q 53.515625 38.921875 53.515625 30.90625 
L 53.515625 0 
L 44.484375 0 
L 44.484375 32.71875 
Q 44.484375 40.625 41.703125 44.40625 
Q 38.921875 48.1875 33.109375 48.1875 
Q 26.21875 48.1875 22.15625 43.53125 
Q 18.109375 38.875 18.109375 30.90625 
L 18.109375 0 
L 9.078125 0 
L 9.078125 54.6875 
L 18.109375 54.6875 
L 18.109375 46.1875 
Q 21.1875 51.21875 25.484375 53.609375 
Q 29.78125 56 35.6875 56 
Q 41.65625 56 45.828125 52.96875 
Q 50 49.953125 52 44.1875 
z
" id="DejaVuSans-6d"/>
      <path d="M 54.890625 33.015625 
L 54.890625 0 
L 45.90625 0 
L 45.90625 32.71875 
Q 45.90625 40.484375 42.875 44.328125 
Q 39.84375 48.1875 33.796875 48.1875 
Q 26.515625 48.1875 22.3125 43.546875 
Q 18.109375 38.921875 18.109375 30.90625 
L 18.109375 0 
L 9.078125 0 
L 9.078125 54.6875 
L 18.109375 54.6875 
L 18.109375 46.1875 
Q 21.34375 51.125 25.703125 53.5625 
Q 30.078125 56 35.796875 56 
Q 45.21875 56 50.046875 50.171875 
Q 54.890625 44.34375 54.890625 33.015625 
z
" id="DejaVuSans-6e"/>
      <path d="M 8.015625 75.875 
L 15.828125 75.875 
Q 23.140625 64.359375 26.78125 53.3125 
Q 30.421875 42.28125 30.421875 31.390625 
Q 30.421875 20.453125 26.78125 9.375 
Q 23.140625 -1.703125 15.828125 -13.1875 
L 8.015625 -13.1875 
Q 14.5 -2 17.703125 9.0625 
Q 20.90625 20.125 20.90625 31.390625 
Q 20.90625 42.671875 17.703125 53.65625 
Q 14.5 64.65625 8.015625 75.875 
z
" id="DejaVuSans-29"/>
     </defs>
     <g transform="translate(73.803219 338.153594)scale(0.17 -0.17)">
      <use xlink:href="#DejaVuSans-6c"/>
      <use x="27.783203" xlink:href="#DejaVuSans-6f"/>
      <use x="88.964844" xlink:href="#DejaVuSans-67"/>
      <use x="152.441406" xlink:href="#DejaVuSans-31"/>
      <use x="216.064453" xlink:href="#DejaVuSans-30"/>
      <use x="279.6875" xlink:href="#DejaVuSans-28"/>
      <use x="318.701172" xlink:href="#DejaVuSans-23"/>
      <use x="402.490234" xlink:href="#DejaVuSans-20"/>
      <use x="434.277344" xlink:href="#DejaVuSans-66"/>
      <use x="469.404297" xlink:href="#DejaVuSans-2d"/>
      <use x="505.488281" xlink:href="#DejaVuSans-65"/>
      <use x="567.011719" xlink:href="#DejaVuSans-76"/>
      <use x="626.191406" xlink:href="#DejaVuSans-61"/>
      <use x="687.470703" xlink:href="#DejaVuSans-6c"/>
      <use x="715.253906" xlink:href="#DejaVuSans-73"/>
      <use x="767.353516" xlink:href="#DejaVuSans-20"/>
      <use x="799.140625" xlink:href="#DejaVuSans-2f"/>
      <use x="832.832031" xlink:href="#DejaVuSans-20"/>
      <use x="864.619141" xlink:href="#DejaVuSans-64"/>
      <use x="928.095703" xlink:href="#DejaVuSans-69"/>
      <use x="955.878906" xlink:href="#DejaVuSans-6d"/>
      <use x="1053.291016" xlink:href="#DejaVuSans-65"/>
      <use x="1114.814453" xlink:href="#DejaVuSans-6e"/>
      <use x="1178.193359" xlink:href="#DejaVuSans-73"/>
      <use x="1230.292969" xlink:href="#DejaVuSans-69"/>
      <use x="1258.076172" xlink:href="#DejaVuSans-6f"/>
      <use x="1319.257812" xlink:href="#DejaVuSans-6e"/>
      <use x="1382.636719" xlink:href="#DejaVuSans-29"/>
     </g>
    </g>
   </g>
   <g id="matplotlib.axis_2">
    <g id="ytick_1">
     <g id="line2d_29">
      <path clip-path="url(#pfd8baa16da)" d="M 56.12 294.88 
L 333.168 294.88 
" style="fill:none;stroke:#b0b0b0;stroke-linecap:square;stroke-width:0.8;"/>
     </g>
     <g id="line2d_30">
      <defs>
       <path d="M 0 0 
L -3.5 0 
" id="m7df0ff8ce6" style="stroke:#000000;stroke-width:0.8;"/>
      </defs>
      <g>
       <use style="stroke:#000000;stroke-width:0.8;" x="56.12" xlink:href="#m7df0ff8ce6" y="294.88"/>
      </g>
     </g>
     <g id="text_6">
      <!-- 0.0 -->
      <defs>
       <path d="M 10.6875 12.40625 
L 21 12.40625 
L 21 0 
L 10.6875 0 
z
" id="DejaVuSans-2e"/>
      </defs>
      <g transform="translate(23.675 300.95875)scale(0.16 -0.16)">
       <use xlink:href="#DejaVuSans-30"/>
       <use x="63.623047" xlink:href="#DejaVuSans-2e"/>
       <use x="95.410156" xlink:href="#DejaVuSans-30"/>
      </g>
     </g>
    </g>
    <g id="ytick_2">
     <g id="line2d_31">
      <path clip-path="url(#pfd8baa16da)" d="M 56.12 241.406733 
L 333.168 241.406733 
" style="fill:none;stroke:#b0b0b0;stroke-linecap:square;stroke-width:0.8;"/>
     </g>
     <g id="line2d_32">
      <g>
       <use style="stroke:#000000;stroke-width:0.8;" x="56.12" xlink:href="#m7df0ff8ce6" y="241.406733"/>
      </g>
     </g>
     <g id="text_7">
      <!-- 0.2 -->
      <g transform="translate(23.675 247.485483)scale(0.16 -0.16)">
       <use xlink:href="#DejaVuSans-30"/>
       <use x="63.623047" xlink:href="#DejaVuSans-2e"/>
       <use x="95.410156" xlink:href="#DejaVuSans-32"/>
      </g>
     </g>
    </g>
    <g id="ytick_3">
     <g id="line2d_33">
      <path clip-path="url(#pfd8baa16da)" d="M 56.12 187.933465 
L 333.168 187.933465 
" style="fill:none;stroke:#b0b0b0;stroke-linecap:square;stroke-width:0.8;"/>
     </g>
     <g id="line2d_34">
      <g>
       <use style="stroke:#000000;stroke-width:0.8;" x="56.12" xlink:href="#m7df0ff8ce6" y="187.933465"/>
      </g>
     </g>
     <g id="text_8">
      <!-- 0.4 -->
      <g transform="translate(23.675 194.012215)scale(0.16 -0.16)">
       <use xlink:href="#DejaVuSans-30"/>
       <use x="63.623047" xlink:href="#DejaVuSans-2e"/>
       <use x="95.410156" xlink:href="#DejaVuSans-34"/>
      </g>
     </g>
    </g>
    <g id="ytick_4">
     <g id="line2d_35">
      <path clip-path="url(#pfd8baa16da)" d="M 56.12 134.460198 
L 333.168 134.460198 
" style="fill:none;stroke:#b0b0b0;stroke-linecap:square;stroke-width:0.8;"/>
     </g>
     <g id="line2d_36">
      <g>
       <use style="stroke:#000000;stroke-width:0.8;" x="56.12" xlink:href="#m7df0ff8ce6" y="134.460198"/>
      </g>
     </g>
     <g id="text_9">
      <!-- 0.6 -->
      <g transform="translate(23.675 140.538948)scale(0.16 -0.16)">
       <use xlink:href="#DejaVuSans-30"/>
       <use x="63.623047" xlink:href="#DejaVuSans-2e"/>
       <use x="95.410156" xlink:href="#DejaVuSans-36"/>
      </g>
     </g>
    </g>
    <g id="ytick_5">
     <g id="line2d_37">
      <path clip-path="url(#pfd8baa16da)" d="M 56.12 80.986931 
L 333.168 80.986931 
" style="fill:none;stroke:#b0b0b0;stroke-linecap:square;stroke-width:0.8;"/>
     </g>
     <g id="line2d_38">
      <g>
       <use style="stroke:#000000;stroke-width:0.8;" x="56.12" xlink:href="#m7df0ff8ce6" y="80.986931"/>
      </g>
     </g>
     <g id="text_10">
      <!-- 0.8 -->
      <defs>
       <path d="M 31.78125 34.625 
Q 24.75 34.625 20.71875 30.859375 
Q 16.703125 27.09375 16.703125 20.515625 
Q 16.703125 13.921875 20.71875 10.15625 
Q 24.75 6.390625 31.78125 6.390625 
Q 38.8125 6.390625 42.859375 10.171875 
Q 46.921875 13.96875 46.921875 20.515625 
Q 46.921875 27.09375 42.890625 30.859375 
Q 38.875 34.625 31.78125 34.625 
z
M 21.921875 38.8125 
Q 15.578125 40.375 12.03125 44.71875 
Q 8.5 49.078125 8.5 55.328125 
Q 8.5 64.0625 14.71875 69.140625 
Q 20.953125 74.21875 31.78125 74.21875 
Q 42.671875 74.21875 48.875 69.140625 
Q 55.078125 64.0625 55.078125 55.328125 
Q 55.078125 49.078125 51.53125 44.71875 
Q 48 40.375 41.703125 38.8125 
Q 48.828125 37.15625 52.796875 32.3125 
Q 56.78125 27.484375 56.78125 20.515625 
Q 56.78125 9.90625 50.3125 4.234375 
Q 43.84375 -1.421875 31.78125 -1.421875 
Q 19.734375 -1.421875 13.25 4.234375 
Q 6.78125 9.90625 6.78125 20.515625 
Q 6.78125 27.484375 10.78125 32.3125 
Q 14.796875 37.15625 21.921875 38.8125 
z
M 18.3125 54.390625 
Q 18.3125 48.734375 21.84375 45.5625 
Q 25.390625 42.390625 31.78125 42.390625 
Q 38.140625 42.390625 41.71875 45.5625 
Q 45.3125 48.734375 45.3125 54.390625 
Q 45.3125 60.0625 41.71875 63.234375 
Q 38.140625 66.40625 31.78125 66.40625 
Q 25.390625 66.40625 21.84375 63.234375 
Q 18.3125 60.0625 18.3125 54.390625 
z
" id="DejaVuSans-38"/>
      </defs>
      <g transform="translate(23.675 87.065681)scale(0.16 -0.16)">
       <use xlink:href="#DejaVuSans-30"/>
       <use x="63.623047" xlink:href="#DejaVuSans-2e"/>
       <use x="95.410156" xlink:href="#DejaVuSans-38"/>
      </g>
     </g>
    </g>
    <g id="ytick_6">
     <g id="line2d_39">
      <path clip-path="url(#pfd8baa16da)" d="M 56.12 27.513663 
L 333.168 27.513663 
" style="fill:none;stroke:#b0b0b0;stroke-linecap:square;stroke-width:0.8;"/>
     </g>
     <g id="line2d_40">
      <g>
       <use style="stroke:#000000;stroke-width:0.8;" x="56.12" xlink:href="#m7df0ff8ce6" y="27.513663"/>
      </g>
     </g>
     <g id="text_11">
      <!-- 1.0 -->
      <g transform="translate(23.675 33.592413)scale(0.16 -0.16)">
       <use xlink:href="#DejaVuSans-31"/>
       <use x="63.623047" xlink:href="#DejaVuSans-2e"/>
       <use x="95.410156" xlink:href="#DejaVuSans-30"/>
      </g>
     </g>
    </g>
    <g id="text_12">
     <!-- Fraction of function,target pairs -->
     <defs>
      <path d="M 9.8125 72.90625 
L 51.703125 72.90625 
L 51.703125 64.59375 
L 19.671875 64.59375 
L 19.671875 43.109375 
L 48.578125 43.109375 
L 48.578125 34.8125 
L 19.671875 34.8125 
L 19.671875 0 
L 9.8125 0 
z
" id="DejaVuSans-46"/>
      <path d="M 41.109375 46.296875 
Q 39.59375 47.171875 37.8125 47.578125 
Q 36.03125 48 33.890625 48 
Q 26.265625 48 22.1875 43.046875 
Q 18.109375 38.09375 18.109375 28.8125 
L 18.109375 0 
L 9.078125 0 
L 9.078125 54.6875 
L 18.109375 54.6875 
L 18.109375 46.1875 
Q 20.953125 51.171875 25.484375 53.578125 
Q 30.03125 56 36.53125 56 
Q 37.453125 56 38.578125 55.875 
Q 39.703125 55.765625 41.0625 55.515625 
z
" id="DejaVuSans-72"/>
      <path d="M 48.78125 52.59375 
L 48.78125 44.1875 
Q 44.96875 46.296875 41.140625 47.34375 
Q 37.3125 48.390625 33.40625 48.390625 
Q 24.65625 48.390625 19.8125 42.84375 
Q 14.984375 37.3125 14.984375 27.296875 
Q 14.984375 17.28125 19.8125 11.734375 
Q 24.65625 6.203125 33.40625 6.203125 
Q 37.3125 6.203125 41.140625 7.25 
Q 44.96875 8.296875 48.78125 10.40625 
L 48.78125 2.09375 
Q 45.015625 0.34375 40.984375 -0.53125 
Q 36.96875 -1.421875 32.421875 -1.421875 
Q 20.0625 -1.421875 12.78125 6.34375 
Q 5.515625 14.109375 5.515625 27.296875 
Q 5.515625 40.671875 12.859375 48.328125 
Q 20.21875 56 33.015625 56 
Q 37.15625 56 41.109375 55.140625 
Q 45.0625 54.296875 48.78125 52.59375 
z
" id="DejaVuSans-63"/>
      <path d="M 18.3125 70.21875 
L 18.3125 54.6875 
L 36.8125 54.6875 
L 36.8125 47.703125 
L 18.3125 47.703125 
L 18.3125 18.015625 
Q 18.3125 11.328125 20.140625 9.421875 
Q 21.96875 7.515625 27.59375 7.515625 
L 36.8125 7.515625 
L 36.8125 0 
L 27.59375 0 
Q 17.1875 0 13.234375 3.875 
Q 9.28125 7.765625 9.28125 18.015625 
L 9.28125 47.703125 
L 2.6875 47.703125 
L 2.6875 54.6875 
L 9.28125 54.6875 
L 9.28125 70.21875 
z
" id="DejaVuSans-74"/>
      <path d="M 8.5 21.578125 
L 8.5 54.6875 
L 17.484375 54.6875 
L 17.484375 21.921875 
Q 17.484375 14.15625 20.5 10.265625 
Q 23.53125 6.390625 29.59375 6.390625 
Q 36.859375 6.390625 41.078125 11.03125 
Q 45.3125 15.671875 45.3125 23.6875 
L 45.3125 54.6875 
L 54.296875 54.6875 
L 54.296875 0 
L 45.3125 0 
L 45.3125 8.40625 
Q 42.046875 3.421875 37.71875 1 
Q 33.40625 -1.421875 27.6875 -1.421875 
Q 18.265625 -1.421875 13.375 4.4375 
Q 8.5 10.296875 8.5 21.578125 
z
M 31.109375 56 
z
" id="DejaVuSans-75"/>
      <path d="M 11.71875 12.40625 
L 22.015625 12.40625 
L 22.015625 4 
L 14.015625 -11.625 
L 7.71875 -11.625 
L 11.71875 4 
z
" id="DejaVuSans-2c"/>
      <path d="M 18.109375 8.203125 
L 18.109375 -20.796875 
L 9.078125 -20.796875 
L 9.078125 54.6875 
L 18.109375 54.6875 
L 18.109375 46.390625 
Q 20.953125 51.265625 25.265625 53.625 
Q 29.59375 56 35.59375 56 
Q 45.5625 56 51.78125 48.09375 
Q 58.015625 40.1875 58.015625 27.296875 
Q 58.015625 14.40625 51.78125 6.484375 
Q 45.5625 -1.421875 35.59375 -1.421875 
Q 29.59375 -1.421875 25.265625 0.953125 
Q 20.953125 3.328125 18.109375 8.203125 
z
M 48.6875 27.296875 
Q 48.6875 37.203125 44.609375 42.84375 
Q 40.53125 48.484375 33.40625 48.484375 
Q 26.265625 48.484375 22.1875 42.84375 
Q 18.109375 37.203125 18.109375 27.296875 
Q 18.109375 17.390625 22.1875 11.75 
Q 26.265625 6.109375 33.40625 6.109375 
Q 40.53125 6.109375 44.609375 11.75 
Q 48.6875 17.390625 48.6875 27.296875 
z
" id="DejaVuSans-70"/>
     </defs>
     <g transform="translate(16.139531 294.999375)rotate(-90)scale(0.17 -0.17)">
      <use xlink:href="#DejaVuSans-46"/>
      <use x="57.410156" xlink:href="#DejaVuSans-72"/>
      <use x="98.523438" xlink:href="#DejaVuSans-61"/>
      <use x="159.802734" xlink:href="#DejaVuSans-63"/>
      <use x="214.783203" xlink:href="#DejaVuSans-74"/>
      <use x="253.992188" xlink:href="#DejaVuSans-69"/>
      <use x="281.775391" xlink:href="#DejaVuSans-6f"/>
      <use x="342.957031" xlink:href="#DejaVuSans-6e"/>
      <use x="406.335938" xlink:href="#DejaVuSans-20"/>
      <use x="438.123047" xlink:href="#DejaVuSans-6f"/>
      <use x="499.304688" xlink:href="#DejaVuSans-66"/>
      <use x="534.509766" xlink:href="#DejaVuSans-20"/>
      <use x="566.296875" xlink:href="#DejaVuSans-66"/>
      <use x="601.501953" xlink:href="#DejaVuSans-75"/>
      <use x="664.880859" xlink:href="#DejaVuSans-6e"/>
      <use x="728.259766" xlink:href="#DejaVuSans-63"/>
      <use x="783.240234" xlink:href="#DejaVuSans-74"/>
      <use x="822.449219" xlink:href="#DejaVuSans-69"/>
      <use x="850.232422" xlink:href="#DejaVuSans-6f"/>
      <use x="911.414062" xlink:href="#DejaVuSans-6e"/>
      <use x="974.792969" xlink:href="#DejaVuSans-2c"/>
      <use x="1006.580078" xlink:href="#DejaVuSans-74"/>
      <use x="1045.789062" xlink:href="#DejaVuSans-61"/>
      <use x="1107.068359" xlink:href="#DejaVuSans-72"/>
      <use x="1148.166016" xlink:href="#DejaVuSans-67"/>
      <use x="1211.642578" xlink:href="#DejaVuSans-65"/>
      <use x="1273.166016" xlink:href="#DejaVuSans-74"/>
      <use x="1312.375" xlink:href="#DejaVuSans-20"/>
      <use x="1344.162109" xlink:href="#DejaVuSans-70"/>
      <use x="1407.638672" xlink:href="#DejaVuSans-61"/>
      <use x="1468.917969" xlink:href="#DejaVuSans-69"/>
      <use x="1496.701172" xlink:href="#DejaVuSans-72"/>
      <use x="1537.814453" xlink:href="#DejaVuSans-73"/>
     </g>
    </g>
   </g>
   <g id="line2d_41">
    <defs>
     <path d="M 0 1.5 
C 0.397805 1.5 0.77937 1.341951 1.06066 1.06066 
C 1.341951 0.77937 1.5 0.397805 1.5 0 
C 1.5 -0.397805 1.341951 -0.77937 1.06066 -1.06066 
C 0.77937 -1.341951 0.397805 -1.5 0 -1.5 
C -0.397805 -1.5 -0.77937 -1.341951 -1.06066 -1.06066 
C -1.341951 -0.77937 -1.5 -0.397805 -1.5 0 
C -1.5 0.397805 -1.341951 0.77937 -1.06066 1.06066 
C -0.77937 1.341951 -0.397805 1.5 0 1.5 
z
" id="mb16a2b0d54" style="stroke:#f5deb3;"/>
    </defs>
    <g>
     <use style="fill:#f5deb3;stroke:#f5deb3;" x="172.873996" xlink:href="#mb16a2b0d54" y="27.513663"/>
     <use style="fill:#f5deb3;stroke:#f5deb3;" x="172.873996" xlink:href="#mb16a2b0d54" y="27.513663"/>
    </g>
   </g>
   <g id="line2d_42">
    <defs>
     <path d="M 0 1.5 
C 0.397805 1.5 0.77937 1.341951 1.06066 1.06066 
C 1.341951 0.77937 1.5 0.397805 1.5 0 
C 1.5 -0.397805 1.341951 -0.77937 1.06066 -1.06066 
C 0.77937 -1.341951 0.397805 -1.5 0 -1.5 
C -0.397805 -1.5 -0.77937 -1.341951 -1.06066 -1.06066 
C -1.341951 -0.77937 -1.5 -0.397805 -1.5 0 
C -1.5 0.397805 -1.341951 0.77937 -1.06066 1.06066 
C -0.77937 1.341951 -0.397805 1.5 0 1.5 
z
" id="m94b3c67c3a" style="stroke:#000080;"/>
    </defs>
    <g>
     <use style="fill:#000080;stroke:#000080;" x="287.567227" xlink:href="#m94b3c67c3a" y="27.513663"/>
     <use style="fill:#000080;stroke:#000080;" x="287.567227" xlink:href="#m94b3c67c3a" y="27.513663"/>
    </g>
   </g>
   <g id="line2d_43">
    <path d="M 116.063204 294.88 
L 116.063204 294.355752 
L 117.715785 294.355752 
L 117.715785 292.783009 
L 118.023367 292.783009 
L 118.023367 292.258761 
L 119.526788 292.258761 
L 119.526788 291.734514 
L 121.16504 291.734514 
L 121.16504 290.161771 
L 121.436343 290.161771 
L 121.436343 289.637523 
L 121.778985 289.637523 
L 121.778985 289.113275 
L 122.55288 289.113275 
L 122.660646 287.016284 
L 123.499282 287.016284 
L 123.499282 286.492036 
L 123.736371 286.492036 
L 123.736371 285.967789 
L 123.920387 285.967789 
L 123.920387 285.443541 
L 124.233665 285.443541 
L 124.233665 284.919293 
L 125.310285 284.919293 
L 125.310285 282.822302 
L 125.447856 282.822302 
L 125.447856 282.298055 
L 125.599432 282.298055 
L 125.674722 281.249559 
L 126.496178 281.249559 
L 126.510496 280.201064 
L 126.864621 280.201064 
L 126.864621 279.676816 
L 127.197852 279.676816 
L 127.197852 279.152568 
L 127.605507 279.152568 
L 127.632343 277.579825 
L 128.760935 277.579825 
L 128.760935 277.055578 
L 129.52227 277.055578 
L 129.630036 275.482834 
L 129.677716 275.482834 
L 129.677716 274.958587 
L 130.274319 274.958587 
L 130.274319 274.434339 
L 131.005861 274.434339 
L 131.005861 273.910091 
L 131.441039 273.910091 
L 131.441039 273.385844 
L 131.980376 273.385844 
L 131.980376 272.861596 
L 132.279675 272.861596 
L 132.279675 272.337348 
L 132.763894 272.337348 
L 132.843288 271.288853 
L 133.059747 271.288853 
L 133.059747 270.764605 
L 133.263855 270.764605 
L 133.263855 270.240357 
L 133.475115 270.240357 
L 133.475115 269.716109 
L 133.862029 269.716109 
L 133.862029 269.191862 
L 134.130534 269.191862 
L 134.130534 268.667614 
L 134.920543 268.667614 
L 135.008061 267.619119 
L 135.138509 267.619119 
L 135.138509 267.094871 
L 135.524017 267.094871 
L 135.524017 266.570623 
L 136.156084 266.570623 
L 136.156084 266.046375 
L 137.062633 266.046375 
L 137.062633 265.522128 
L 138.974042 265.522128 
L 138.974042 264.99788 
L 139.194412 264.99788 
L 139.194412 264.473632 
L 139.438997 264.473632 
L 139.539889 262.900889 
L 141.041642 262.900889 
L 141.041642 262.376641 
L 141.394429 262.376641 
L 141.394429 261.852394 
L 141.816659 261.852394 
L 141.816659 261.328146 
L 142.015238 261.328146 
L 142.015238 260.803898 
L 143.339169 260.803898 
L 143.339169 260.279651 
L 143.832047 260.279651 
L 143.832047 259.755403 
L 144.573382 259.755403 
L 144.573382 259.231155 
L 145.013063 259.231155 
L 145.013063 258.706907 
L 146.186595 258.706907 
L 146.186595 258.18266 
L 146.952839 258.18266 
L 146.952839 257.658412 
L 147.302187 257.658412 
L 147.302187 257.134164 
L 147.864973 257.134164 
L 147.864973 256.609917 
L 151.084697 256.609917 
L 151.084697 256.085669 
L 151.231391 256.085669 
L 151.231391 255.561421 
L 174.203243 255.561421 
L 174.203243 255.037173 
L 175.499232 255.037173 
L 175.499232 254.512926 
L 176.716663 254.512926 
L 176.716663 253.988678 
L 177.167259 253.988678 
L 177.167259 253.46443 
L 177.757992 253.46443 
L 177.757992 252.940182 
L 178.138461 252.940182 
L 178.138461 252.415935 
L 179.684816 252.415935 
L 179.684816 251.891687 
L 180.539852 251.891687 
L 180.539852 251.367439 
L 182.063219 251.367439 
L 182.152827 250.318944 
L 183.285011 250.318944 
L 183.285011 249.794696 
L 186.362114 249.794696 
L 186.362114 249.270448 
L 186.769108 249.270448 
L 186.769108 248.746201 
L 186.895409 248.746201 
L 186.895409 248.221953 
L 187.210302 248.221953 
L 187.210302 247.697705 
L 188.03018 247.697705 
L 188.03018 247.173458 
L 190.309222 247.173458 
L 190.309222 246.64921 
L 190.748763 246.64921 
L 190.748763 246.124962 
L 197.362808 246.124962 
L 197.362808 245.600714 
L 197.69416 245.600714 
L 197.723947 244.552219 
L 198.20869 244.552219 
L 198.285163 236.164255 
L 199.158026 236.164255 
L 199.158026 235.640008 
L 199.340974 235.640008 
L 199.340974 235.11576 
L 199.866388 235.11576 
L 199.866388 234.591512 
L 203.057146 234.591512 
L 203.057146 234.067265 
L 204.141666 234.067265 
L 204.141666 233.543017 
L 208.008419 233.543017 
L 208.008419 233.018769 
L 210.431477 233.018769 
L 210.469076 231.446026 
L 211.08168 231.446026 
L 211.08168 230.921778 
L 214.613108 230.921778 
L 214.613108 230.397531 
L 216.397215 230.397531 
L 216.397215 229.873283 
L 216.878675 229.873283 
L 216.878675 229.349035 
L 218.297596 229.349035 
L 218.297596 228.824787 
L 219.849577 228.824787 
L 219.947943 227.776292 
L 220.082352 227.776292 
L 220.103808 220.436824 
L 221.58383 220.436824 
L 221.648284 218.864081 
L 224.282618 218.864081 
L 224.282618 218.339833 
L 224.462752 218.339833 
L 224.479383 217.291338 
L 227.249918 217.291338 
L 227.335979 215.718594 
L 227.560921 215.718594 
L 227.655362 214.670099 
L 227.985646 214.670099 
L 228.026225 213.097356 
L 228.281848 213.097356 
L 228.355491 211.524613 
L 228.529752 211.524613 
L 228.529752 211.000365 
L 228.978435 211.000365 
L 228.978435 210.476117 
L 229.262393 210.476117 
L 229.325023 208.903374 
L 229.403045 208.903374 
L 229.463732 202.612401 
L 230.291934 202.612401 
L 230.310916 199.991163 
L 230.474299 199.991163 
L 230.53109 198.942667 
L 232.083588 198.942667 
L 232.083588 197.369924 
L 232.846929 197.369924 
L 232.846929 196.845677 
L 233.960055 196.845677 
L 233.960055 196.321429 
L 234.454022 196.321429 
L 234.454022 195.797181 
L 235.101684 195.797181 
L 235.101684 195.272933 
L 235.313968 195.272933 
L 235.421797 188.457713 
L 236.044356 188.457713 
L 236.044356 187.409218 
L 236.265009 187.409218 
L 236.265009 186.88497 
L 236.490702 186.88497 
L 236.561224 185.836474 
L 236.602211 185.836474 
L 236.653342 184.787979 
L 239.387436 184.787979 
L 239.489782 183.739484 
L 239.857283 183.739484 
L 239.857283 181.118245 
L 240.34682 181.118245 
L 240.34682 179.545502 
L 240.675915 179.545502 
L 240.675915 179.021254 
L 241.148349 179.021254 
L 241.148349 178.497006 
L 241.367926 178.497006 
L 241.374147 175.875768 
L 241.82287 175.875768 
L 241.82287 175.35152 
L 242.756463 175.35152 
L 242.756463 174.827272 
L 243.049796 174.827272 
L 243.049796 174.303025 
L 243.170927 174.303025 
L 243.170927 172.730281 
L 243.302045 172.730281 
L 243.385318 168.012052 
L 243.70371 168.012052 
L 243.790469 165.915061 
L 244.175724 165.915061 
L 244.270654 164.342318 
L 244.625494 164.342318 
L 244.630642 163.293823 
L 244.997713 163.293823 
L 244.997713 162.245327 
L 245.55873 162.245327 
L 245.619684 160.672584 
L 245.805761 160.672584 
L 245.809058 159.624089 
L 246.13042 159.624089 
L 246.135136 158.575593 
L 246.260736 158.575593 
L 246.313163 155.430107 
L 246.618571 155.430107 
L 246.648868 151.236125 
L 247.214798 151.236125 
L 247.214798 150.711877 
L 247.333893 150.711877 
L 247.362956 148.614886 
L 247.680879 148.614886 
L 247.680879 148.090639 
L 248.152162 148.090639 
L 248.168977 147.042143 
L 248.354159 147.042143 
L 248.354159 146.517896 
L 248.766998 146.517896 
L 248.863069 143.372409 
L 249.021486 143.372409 
L 249.021486 142.848162 
L 249.266813 142.848162 
L 249.266813 142.323914 
L 249.39436 142.323914 
L 249.39436 141.799666 
L 249.944578 141.799666 
L 250.002884 140.226923 
L 250.854808 140.226923 
L 250.854808 139.702675 
L 250.968696 139.702675 
L 250.968696 139.178427 
L 251.250084 139.178427 
L 251.251648 137.605684 
L 251.75448 137.605684 
L 251.75448 137.081437 
L 252.048573 137.081437 
L 252.048573 136.557189 
L 252.927941 136.557189 
L 253.01774 132.887455 
L 253.111411 132.887455 
L 253.161654 129.741969 
L 253.386047 129.741969 
L 253.441662 128.693473 
L 253.533013 128.693473 
L 253.533013 128.169225 
L 253.871816 128.169225 
L 253.874822 126.596482 
L 254.223019 126.596482 
L 254.311376 125.547987 
L 254.63532 125.547987 
L 254.667563 123.975244 
L 254.876082 123.975244 
L 254.880625 121.354005 
L 255.010891 121.354005 
L 255.082101 119.781262 
L 255.215311 119.781262 
L 255.215311 119.257014 
L 255.522806 119.257014 
L 255.524026 118.208519 
L 255.721262 118.208519 
L 255.721262 117.684271 
L 255.917453 117.684271 
L 255.917453 117.160023 
L 256.039174 117.160023 
L 256.039174 116.635776 
L 256.437501 116.635776 
L 256.437501 116.111528 
L 256.625728 116.111528 
L 256.625728 115.58728 
L 257.029021 115.58728 
L 257.041203 114.538785 
L 257.228885 114.538785 
L 257.228885 114.014537 
L 257.423068 114.014537 
L 257.425514 112.966042 
L 257.982156 112.966042 
L 257.982156 112.441794 
L 258.229734 112.441794 
L 258.244279 110.869051 
L 258.416126 110.869051 
L 258.416126 110.344803 
L 259.028038 110.344803 
L 259.028038 109.820555 
L 259.190055 109.820555 
L 259.26619 107.723564 
L 259.350559 107.723564 
L 259.350559 107.199317 
L 259.465212 107.199317 
L 259.538016 106.150821 
L 259.695318 106.150821 
L 259.769253 105.102326 
L 259.959484 105.102326 
L 259.959484 104.578078 
L 260.186152 104.578078 
L 260.266135 103.005335 
L 260.393871 103.005335 
L 260.416941 101.956839 
L 260.714642 101.956839 
L 260.718517 100.908344 
L 260.88787 100.908344 
L 260.88787 99.859849 
L 261.421013 99.859849 
L 261.421013 98.811353 
L 261.541348 98.811353 
L 261.563982 97.23861 
L 261.930744 97.23861 
L 261.978387 96.190115 
L 262.139392 96.190115 
L 262.139392 95.665867 
L 262.298904 95.665867 
L 262.3643 94.617371 
L 262.432955 94.617371 
L 262.503157 93.044628 
L 262.565969 93.044628 
L 262.565969 92.520381 
L 262.768884 92.520381 
L 262.768884 91.996133 
L 263.050214 91.996133 
L 263.050214 90.42339 
L 263.178554 90.42339 
L 263.178554 89.899142 
L 263.328748 89.899142 
L 263.328748 89.374894 
L 264.037254 89.374894 
L 264.147523 88.326399 
L 264.158457 88.326399 
L 264.158457 87.277903 
L 264.300363 87.277903 
L 264.300363 86.753656 
L 264.41973 86.753656 
L 264.518638 85.70516 
L 264.717708 85.70516 
L 264.810354 84.656665 
L 264.855089 84.656665 
L 264.855089 84.132417 
L 265.199553 84.132417 
L 265.199553 83.608169 
L 265.447114 83.608169 
L 265.447114 83.083922 
L 265.615833 83.083922 
L 265.695498 82.035426 
L 265.856015 82.035426 
L 265.966574 80.986931 
L 266.092887 80.986931 
L 266.200471 79.938435 
L 266.363443 79.938435 
L 266.469997 78.365692 
L 266.571926 78.365692 
L 266.682615 75.744454 
L 266.697975 75.744454 
L 266.785939 74.17171 
L 266.841968 74.17171 
L 266.86934 73.123215 
L 267.026745 73.123215 
L 267.080509 72.074719 
L 267.22935 72.074719 
L 267.22935 71.026224 
L 267.348119 71.026224 
L 267.348119 70.501976 
L 267.485953 70.501976 
L 267.485953 69.977729 
L 267.59976 69.977729 
L 267.59976 69.453481 
L 267.813922 69.453481 
L 267.911284 68.404985 
L 268.267434 68.404985 
L 268.267434 67.35649 
L 268.423913 67.35649 
L 268.456582 66.307995 
L 268.567193 66.307995 
L 268.567193 65.783747 
L 268.709288 65.783747 
L 268.709288 65.259499 
L 268.854422 65.259499 
L 268.953433 63.686756 
L 269.092383 63.686756 
L 269.185711 62.638261 
L 269.288834 62.638261 
L 269.378211 61.589765 
L 269.602001 61.589765 
L 269.602001 61.065517 
L 269.849475 61.065517 
L 269.922735 58.968526 
L 269.981395 58.968526 
L 270.038306 56.871536 
L 270.11231 56.871536 
L 270.11231 56.347288 
L 270.252929 56.347288 
L 270.29802 55.298792 
L 270.436622 55.298792 
L 270.436622 54.774545 
L 270.569671 54.774545 
L 270.569671 54.250297 
L 270.730235 54.250297 
L 270.730235 53.726049 
L 271.152456 53.726049 
L 271.20808 52.153306 
L 271.375511 52.153306 
L 271.375511 51.629058 
L 272.059127 51.629058 
L 272.148877 50.580563 
L 272.264795 50.580563 
L 272.299959 49.532068 
L 272.388465 49.532068 
L 272.463126 47.959324 
L 274.68862 47.959324 
L 274.75484 46.910829 
L 274.941131 46.910829 
L 274.941131 46.386581 
L 275.197204 46.386581 
L 275.197204 45.862334 
L 275.562235 45.862334 
L 275.640455 44.813838 
L 275.880866 44.813838 
L 275.880866 44.28959 
L 276.051201 44.28959 
L 276.091095 43.241095 
L 276.231277 43.241095 
L 276.231277 42.716847 
L 276.853692 42.716847 
L 276.921639 41.668352 
L 277.054453 41.668352 
L 277.054453 41.144104 
L 277.172012 41.144104 
L 277.172012 40.619856 
L 277.369828 40.619856 
L 277.416926 39.571361 
L 277.747511 39.571361 
L 277.747511 39.047113 
L 277.940379 39.047113 
L 277.940379 38.522865 
L 278.361645 38.522865 
L 278.424617 37.47437 
L 278.936863 37.47437 
L 278.936863 36.950122 
L 279.310426 36.950122 
L 279.310426 36.425875 
L 279.482227 36.425875 
L 279.482227 35.901627 
L 279.935096 35.901627 
L 279.935096 35.377379 
L 280.18762 35.377379 
L 280.18762 34.853131 
L 280.398292 34.853131 
L 280.398292 34.328884 
L 280.926565 34.328884 
L 280.926565 33.804636 
L 281.299806 33.804636 
L 281.334533 32.756141 
L 281.527293 32.756141 
L 281.572956 31.707645 
L 282.392677 31.707645 
L 282.392677 31.183397 
L 283.003754 31.183397 
L 283.003754 30.65915 
L 284.022772 30.65915 
L 284.100455 29.610654 
L 285.333195 29.610654 
L 285.333195 29.086407 
L 286.066767 29.086407 
L 286.066767 28.562159 
L 286.250788 28.562159 
L 286.250788 28.037911 
L 287.567227 28.037911 
L 287.567227 27.513663 
L 333.168 27.513663 
L 333.168 27.513663 
" style="fill:none;stroke:#000080;stroke-linecap:square;stroke-width:1.5;"/>
   </g>
   <g id="line2d_44">
    <defs>
     <path d="M 0 6 
C 1.591219 6 3.117479 5.367802 4.242641 4.242641 
C 5.367802 3.117479 6 1.591219 6 0 
C 6 -1.591219 5.367802 -3.117479 4.242641 -4.242641 
C 3.117479 -5.367802 1.591219 -6 0 -6 
C -1.591219 -6 -3.117479 -5.367802 -4.242641 -4.242641 
C -5.367802 -3.117479 -6 -1.591219 -6 0 
C -6 1.591219 -5.367802 3.117479 -4.242641 4.242641 
C -3.117479 5.367802 -1.591219 6 0 6 
z
" id="m1e1cce5970" style="stroke:#000080;stroke-width:1.5;"/>
    </defs>
    <g>
     <use style="fill:none;stroke:#000080;stroke-width:1.5;" x="203.057146" xlink:href="#m1e1cce5970" y="234.591512"/>
     <use style="fill:none;stroke:#000080;stroke-width:1.5;" x="249.39436" xlink:href="#m1e1cce5970" y="141.799666"/>
     <use style="fill:none;stroke:#000080;stroke-width:1.5;" x="287.567227" xlink:href="#m1e1cce5970" y="28.037911"/>
     <use style="fill:none;stroke:#000080;stroke-width:1.5;" x="287.567227" xlink:href="#m1e1cce5970" y="27.513663"/>
     <use style="fill:none;stroke:#000080;stroke-width:1.5;" x="333.168" xlink:href="#m1e1cce5970" y="27.513663"/>
    </g>
   </g>
   <g id="line2d_45">
    <path style="fill:none;stroke:#000080;stroke-linecap:square;stroke-width:1.5;"/>
    <g/>
   </g>
   <g id="line2d_46">
    <path clip-path="url(#pfd8baa16da)" d="M 214.433143 230.921778 
" style="fill:none;stroke:#000080;stroke-linecap:square;stroke-width:1.5;"/>
    <defs>
     <path d="M -12 12 
L 12 -12 
M -12 -12 
L 12 12 
" id="m2545d42b31" style="stroke:#000080;"/>
    </defs>
    <g clip-path="url(#pfd8baa16da)">
     <use style="fill:#000080;stroke:#000080;" x="214.433143" xlink:href="#m2545d42b31" y="230.921778"/>
    </g>
   </g>
   <g id="line2d_47">
    <defs>
     <path d="M 0 1.5 
C 0.397805 1.5 0.77937 1.341951 1.06066 1.06066 
C 1.341951 0.77937 1.5 0.397805 1.5 0 
C 1.5 -0.397805 1.341951 -0.77937 1.06066 -1.06066 
C 0.77937 -1.341951 0.397805 -1.5 0 -1.5 
C -0.397805 -1.5 -0.77937 -1.341951 -1.06066 -1.06066 
C -1.341951 -0.77937 -1.5 -0.397805 -1.5 0 
C -1.5 0.397805 -1.341951 0.77937 -1.06066 1.06066 
C -0.77937 1.341951 -0.397805 1.5 0 1.5 
z
" id="ma4a8b982cf" style="stroke:#ff00ff;"/>
    </defs>
    <g>
     <use style="fill:#ff00ff;stroke:#ff00ff;" x="255.72978" xlink:href="#ma4a8b982cf" y="27.513663"/>
     <use style="fill:#ff00ff;stroke:#ff00ff;" x="255.72978" xlink:href="#ma4a8b982cf" y="27.513663"/>
    </g>
   </g>
   <g id="line2d_48">
    <path d="M 120.32445 294.88 
L 120.32445 294.355752 
L 124.363883 294.355752 
L 124.363883 293.831505 
L 125.340952 293.831505 
L 125.340952 293.307257 
L 125.523811 293.307257 
L 125.523811 292.783009 
L 126.207287 292.783009 
L 126.207287 292.258761 
L 126.82251 292.258761 
L 126.82251 291.734514 
L 127.087492 291.734514 
L 127.087492 291.210266 
L 127.362076 291.210266 
L 127.362076 290.686018 
L 128.685436 290.686018 
L 128.723227 289.113275 
L 128.873566 289.113275 
L 128.873566 288.589027 
L 129.914152 288.589027 
L 129.937618 287.540532 
L 130.14738 287.540532 
L 130.158959 286.492036 
L 130.627094 286.492036 
L 130.683321 285.443541 
L 131.781419 285.443541 
L 131.781419 284.919293 
L 132.483094 284.919293 
L 132.483094 284.395046 
L 132.773838 284.395046 
L 132.773838 283.870798 
L 134.047653 283.870798 
L 134.047653 283.34655 
L 134.358685 283.34655 
L 134.358685 282.822302 
L 134.548019 282.822302 
L 134.63745 281.249559 
L 134.981852 281.249559 
L 134.981852 280.725312 
L 135.267975 280.725312 
L 135.267975 280.201064 
L 135.633795 280.201064 
L 135.633795 279.676816 
L 136.09883 279.676816 
L 136.09883 279.152568 
L 136.718379 279.152568 
L 136.789358 278.104073 
L 137.44564 278.104073 
L 137.44564 277.579825 
L 137.923755 277.579825 
L 137.923755 277.055578 
L 138.179706 277.055578 
L 138.179706 276.53133 
L 138.381758 276.53133 
L 138.381758 276.007082 
L 138.560176 276.007082 
L 138.560176 275.482834 
L 139.255885 275.482834 
L 139.262702 274.434339 
L 139.479425 274.434339 
L 139.479425 273.910091 
L 140.074705 273.910091 
L 140.165478 272.861596 
L 140.887317 272.861596 
L 140.887317 272.337348 
L 141.32203 272.337348 
L 141.406466 271.288853 
L 141.66324 271.288853 
L 141.66324 270.764605 
L 141.980361 270.764605 
L 141.980361 270.240357 
L 142.848343 270.240357 
L 142.848343 269.716109 
L 143.36603 269.716109 
L 143.36603 269.191862 
L 143.711462 269.191862 
L 143.811137 268.143366 
L 144.193927 268.143366 
L 144.265397 266.046375 
L 144.698028 266.046375 
L 144.698028 265.522128 
L 145.042304 265.522128 
L 145.042304 264.99788 
L 145.202245 264.99788 
L 145.202245 264.473632 
L 145.465549 264.473632 
L 145.465549 263.949385 
L 145.602774 263.949385 
L 145.602774 262.900889 
L 145.957288 262.900889 
L 145.957288 262.376641 
L 146.090659 262.376641 
L 146.090659 261.852394 
L 146.417379 261.852394 
L 146.417379 261.328146 
L 147.417076 261.328146 
L 147.493245 260.279651 
L 147.585883 260.279651 
L 147.585883 259.755403 
L 148.537534 259.755403 
L 148.58911 258.706907 
L 148.829074 258.706907 
L 148.829074 258.18266 
L 149.242069 258.18266 
L 149.261127 257.134164 
L 149.45809 257.134164 
L 149.45809 256.609917 
L 149.619276 256.609917 
L 149.686303 255.561421 
L 149.760472 255.561421 
L 149.852735 254.512926 
L 150.342576 254.512926 
L 150.342576 253.988678 
L 150.61936 253.988678 
L 150.61936 253.46443 
L 150.811883 253.46443 
L 150.811883 252.940182 
L 151.227993 252.940182 
L 151.258545 251.891687 
L 151.517734 251.891687 
L 151.517734 251.367439 
L 152.358756 251.367439 
L 152.381011 250.318944 
L 152.542289 250.318944 
L 152.542289 249.794696 
L 152.670856 249.794696 
L 152.773642 248.746201 
L 152.869642 248.746201 
L 152.869642 248.221953 
L 153.242327 248.221953 
L 153.242327 247.697705 
L 153.624843 247.697705 
L 153.704454 246.64921 
L 153.9585 246.64921 
L 154.025038 245.600714 
L 154.188837 245.600714 
L 154.188837 245.076467 
L 154.668288 245.076467 
L 154.74599 243.503724 
L 155.194176 243.503724 
L 155.194176 242.979476 
L 155.55718 242.979476 
L 155.575658 241.93098 
L 156.182195 241.93098 
L 156.278704 240.882485 
L 156.33433 240.882485 
L 156.33433 240.358237 
L 156.841744 240.358237 
L 156.841744 239.83399 
L 156.971157 239.83399 
L 156.971157 239.309742 
L 157.356029 239.309742 
L 157.408281 238.261246 
L 157.725489 238.261246 
L 157.725489 237.736999 
L 157.862303 237.736999 
L 157.931454 236.164255 
L 158.068927 236.164255 
L 158.12361 235.11576 
L 158.257304 235.11576 
L 158.257304 234.591512 
L 158.372038 234.591512 
L 158.394445 225.155053 
L 158.685314 225.155053 
L 158.685314 224.106558 
L 158.977838 224.106558 
L 159.042652 216.242842 
L 159.152278 216.242842 
L 159.152278 215.718594 
L 159.396937 215.718594 
L 159.424376 213.097356 
L 159.68185 213.097356 
L 159.68185 212.573108 
L 159.925284 212.573108 
L 159.925284 211.524613 
L 160.199625 211.524613 
L 160.199625 211.000365 
L 160.564654 211.000365 
L 160.564654 210.476117 
L 161.345958 210.476117 
L 161.345958 209.95187 
L 161.812933 209.95187 
L 161.820273 199.991163 
L 162.098704 199.991163 
L 162.098704 191.078952 
L 162.708721 191.078952 
L 162.708721 190.554704 
L 162.825055 190.554704 
L 162.830245 183.215236 
L 163.166011 183.215236 
L 163.166011 182.690988 
L 163.319701 182.690988 
L 163.408583 180.06975 
L 163.49368 180.06975 
L 163.49368 179.545502 
L 163.950275 179.545502 
L 163.950275 179.021254 
L 174.902918 179.021254 
L 174.902918 178.497006 
L 175.952633 178.497006 
L 175.952633 177.972759 
L 176.141068 177.972759 
L 176.141068 177.448511 
L 177.049662 177.448511 
L 177.049662 176.924263 
L 177.326535 176.924263 
L 177.326535 176.400016 
L 177.440041 176.400016 
L 177.440041 166.439309 
L 177.562349 166.439309 
L 177.562349 165.915061 
L 177.715112 165.915061 
L 177.715112 165.390813 
L 183.443216 165.390813 
L 183.443216 164.866566 
L 183.974619 164.866566 
L 183.987759 163.81807 
L 184.2927 163.81807 
L 184.2927 163.293823 
L 184.408445 163.293823 
L 184.449314 161.721079 
L 184.537612 161.721079 
L 184.570363 160.672584 
L 184.695899 160.672584 
L 184.695899 160.148336 
L 184.813304 160.148336 
L 184.813304 159.624089 
L 185.074687 159.624089 
L 185.074687 159.099841 
L 185.544805 159.099841 
L 185.544805 158.575593 
L 185.708297 158.575593 
L 185.708297 158.051345 
L 185.884733 158.051345 
L 185.887899 157.00285 
L 186.162514 157.00285 
L 186.162514 156.478602 
L 186.45777 156.478602 
L 186.559857 154.905859 
L 186.570728 154.905859 
L 186.570728 154.381611 
L 186.764811 154.381611 
L 186.807311 153.333116 
L 186.894556 153.333116 
L 186.991969 152.28462 
L 187.124648 152.28462 
L 187.174245 151.236125 
L 187.244611 151.236125 
L 187.298448 147.566391 
L 187.514592 147.566391 
L 187.514592 147.042143 
L 187.871319 147.042143 
L 187.871319 145.993648 
L 188.23303 145.993648 
L 188.23303 145.4694 
L 192.194696 145.4694 
L 192.269748 143.896657 
L 192.713302 143.896657 
L 192.713302 142.848162 
L 195.828094 142.848162 
L 195.828094 142.323914 
L 196.375364 142.323914 
L 196.375364 141.799666 
L 197.25318 141.799666 
L 197.25318 141.275418 
L 197.456518 141.275418 
L 197.456518 140.226923 
L 197.586173 140.226923 
L 197.586173 139.178427 
L 198.063183 139.178427 
L 198.063183 138.65418 
L 200.032653 138.65418 
L 200.032653 138.129932 
L 202.697751 138.129932 
L 202.697751 137.605684 
L 203.573721 137.605684 
L 203.573721 137.081437 
L 214.829883 137.081437 
L 214.873499 135.508693 
L 214.983554 135.508693 
L 215.091337 124.499491 
L 215.097953 124.499491 
L 215.199106 117.160023 
L 215.220053 117.160023 
L 215.321227 105.626573 
L 216.323152 105.626573 
L 216.352001 101.432592 
L 217.487823 101.432592 
L 217.583537 97.762858 
L 217.619489 97.762858 
L 217.708865 91.471885 
L 217.755681 91.471885 
L 217.795587 88.850646 
L 218.341743 88.850646 
L 218.341743 88.326399 
L 218.598671 88.326399 
L 218.676598 85.70516 
L 218.711611 85.70516 
L 218.711611 85.180912 
L 219.588665 85.180912 
L 219.679223 84.132417 
L 219.734996 84.132417 
L 219.753484 83.083922 
L 219.869508 83.083922 
L 219.895234 80.986931 
L 220.622256 80.986931 
L 220.722689 79.938435 
L 221.443165 79.938435 
L 221.443165 79.414188 
L 221.601283 79.414188 
L 221.601283 78.88994 
L 223.4611 78.88994 
L 223.4611 78.365692 
L 226.674119 78.365692 
L 226.783393 71.026224 
L 227.318363 71.026224 
L 227.318363 68.929233 
L 227.951704 68.929233 
L 228.04282 63.162508 
L 228.094759 63.162508 
L 228.124003 61.589765 
L 228.555583 61.589765 
L 228.556036 60.017022 
L 229.162145 60.017022 
L 229.251 58.968526 
L 229.274067 58.968526 
L 229.274067 58.444279 
L 229.719023 58.444279 
L 229.719023 57.920031 
L 230.34337 57.920031 
L 230.347218 56.871536 
L 231.422693 56.871536 
L 231.482911 55.298792 
L 232.372829 55.298792 
L 232.461699 54.250297 
L 233.485831 54.250297 
L 233.583111 52.677554 
L 233.970152 52.677554 
L 233.980492 51.629058 
L 234.370644 51.629058 
L 234.478994 48.483572 
L 234.491654 48.483572 
L 234.5213 47.435077 
L 234.830122 47.435077 
L 234.864322 46.386581 
L 235.183988 46.386581 
L 235.203508 45.338086 
L 235.300343 45.338086 
L 235.328296 44.28959 
L 236.034331 44.28959 
L 236.121427 41.668352 
L 236.154029 41.668352 
L 236.154029 41.144104 
L 237.612107 41.144104 
L 237.612107 40.619856 
L 238.425784 40.619856 
L 238.481027 39.571361 
L 239.100486 39.571361 
L 239.100486 39.047113 
L 239.406242 39.047113 
L 239.406242 38.522865 
L 239.707167 38.522865 
L 239.791914 35.901627 
L 240.05789 35.901627 
L 240.05789 35.377379 
L 240.406853 35.377379 
L 240.406853 34.853131 
L 242.200172 34.853131 
L 242.260073 33.280388 
L 242.758349 33.280388 
L 242.817576 31.707645 
L 243.852676 31.707645 
L 243.852676 31.183397 
L 245.364714 31.183397 
L 245.364714 30.65915 
L 245.791182 30.65915 
L 245.791182 30.134902 
L 248.373509 30.134902 
L 248.376456 29.086407 
L 250.940801 29.086407 
L 250.940801 28.562159 
L 251.578234 28.562159 
L 251.578234 28.037911 
L 255.72978 28.037911 
L 255.72978 27.513663 
L 333.168 27.513663 
L 333.168 27.513663 
" style="fill:none;stroke:#ff00ff;stroke-linecap:square;stroke-width:1.5;"/>
   </g>
   <g id="line2d_49">
    <defs>
     <path d="M -0 8.485281 
L 5.091169 0 
L 0 -8.485281 
L -5.091169 -0 
z
" id="mad147a1dbe" style="stroke:#ff00ff;stroke-linejoin:miter;stroke-width:1.5;"/>
    </defs>
    <g>
     <use style="fill:none;stroke:#ff00ff;stroke-linejoin:miter;stroke-width:1.5;" x="152.542289" xlink:href="#mad147a1dbe" y="249.794696"/>
     <use style="fill:none;stroke:#ff00ff;stroke-linejoin:miter;stroke-width:1.5;" x="215.097953" xlink:href="#mad147a1dbe" y="123.450996"/>
     <use style="fill:none;stroke:#ff00ff;stroke-linejoin:miter;stroke-width:1.5;" x="255.72978" xlink:href="#mad147a1dbe" y="28.037911"/>
     <use style="fill:none;stroke:#ff00ff;stroke-linejoin:miter;stroke-width:1.5;" x="255.72978" xlink:href="#mad147a1dbe" y="27.513663"/>
     <use style="fill:none;stroke:#ff00ff;stroke-linejoin:miter;stroke-width:1.5;" x="333.168" xlink:href="#mad147a1dbe" y="27.513663"/>
    </g>
   </g>
   <g id="line2d_50">
    <path style="fill:none;stroke:#ff00ff;stroke-linecap:square;stroke-width:1.5;"/>
    <g/>
   </g>
   <g id="line2d_51">
    <path clip-path="url(#pfd8baa16da)" d="M 214.433143 137.081437 
" style="fill:none;stroke:#ff00ff;stroke-linecap:square;stroke-width:1.5;"/>
    <defs>
     <path d="M -12 12 
L 12 -12 
M -12 -12 
L 12 12 
" id="m676c8b3d93" style="stroke:#ff00ff;"/>
    </defs>
    <g clip-path="url(#pfd8baa16da)">
     <use style="fill:#ff00ff;stroke:#ff00ff;" x="214.433143" xlink:href="#m676c8b3d93" y="137.081437"/>
    </g>
   </g>
   <g id="line2d_52">
    <defs>
     <path d="M 0 1.5 
C 0.397805 1.5 0.77937 1.341951 1.06066 1.06066 
C 1.341951 0.77937 1.5 0.397805 1.5 0 
C 1.5 -0.397805 1.341951 -0.77937 1.06066 -1.06066 
C 0.77937 -1.341951 0.397805 -1.5 0 -1.5 
C -0.397805 -1.5 -0.77937 -1.341951 -1.06066 -1.06066 
C -1.341951 -0.77937 -1.5 -0.397805 -1.5 0 
C -1.5 0.397805 -1.341951 0.77937 -1.06066 1.06066 
C -0.77937 1.341951 -0.397805 1.5 0 1.5 
z
" id="m38dd33eabd" style="stroke:#ff7500;"/>
    </defs>
    <g>
     <use style="fill:#ff7500;stroke:#ff7500;" x="315.532967" xlink:href="#m38dd33eabd" y="200.515411"/>
     <use style="fill:#ff7500;stroke:#ff7500;" x="315.532967" xlink:href="#m38dd33eabd" y="200.515411"/>
    </g>
   </g>
   <g id="line2d_53">
    <path d="M 103.39683 294.88 
L 103.39683 294.355752 
L 104.253762 294.355752 
L 104.253762 293.831505 
L 104.970058 293.831505 
L 104.970058 293.307257 
L 105.705775 293.307257 
L 105.705775 292.783009 
L 106.45731 292.783009 
L 106.45731 292.258761 
L 107.655455 292.258761 
L 107.655455 291.734514 
L 109.014785 291.734514 
L 109.014785 291.210266 
L 109.902386 291.210266 
L 109.902386 290.686018 
L 110.347905 290.686018 
L 110.347905 290.161771 
L 110.853489 290.161771 
L 110.924517 288.06478 
L 111.065698 288.06478 
L 111.065698 287.540532 
L 111.822119 287.540532 
L 111.822119 287.016284 
L 112.089133 287.016284 
L 112.155243 285.967789 
L 113.023703 285.967789 
L 113.023703 285.443541 
L 113.334536 285.443541 
L 113.334536 284.395046 
L 115.062167 284.395046 
L 115.062167 283.870798 
L 115.200897 283.870798 
L 115.200897 283.34655 
L 116.063204 283.34655 
L 116.115688 282.298055 
L 116.606456 282.298055 
L 116.606456 281.773807 
L 117.182386 281.773807 
L 117.182386 281.249559 
L 117.475381 281.249559 
L 117.475381 280.725312 
L 117.644016 280.725312 
L 117.644016 280.201064 
L 117.787256 280.201064 
L 117.787256 279.676816 
L 118.233129 279.676816 
L 118.233129 279.152568 
L 118.394526 279.152568 
L 118.394526 278.628321 
L 118.892126 278.628321 
L 119.003236 277.579825 
L 119.375726 277.579825 
L 119.375726 277.055578 
L 120.749883 277.055578 
L 120.789856 276.007082 
L 120.909222 276.007082 
L 120.909222 275.482834 
L 121.145496 275.482834 
L 121.145496 274.958587 
L 122.262156 274.958587 
L 122.262156 274.434339 
L 122.678542 274.434339 
L 122.696418 273.385844 
L 122.997515 273.385844 
L 122.997515 272.861596 
L 123.465144 272.861596 
L 123.465144 272.337348 
L 123.668964 272.337348 
L 123.668964 271.8131 
L 124.282613 271.8131 
L 124.282613 271.288853 
L 124.637363 271.288853 
L 124.732855 270.240357 
L 125.463074 270.240357 
L 125.463074 269.716109 
L 125.794504 269.716109 
L 125.854083 268.667614 
L 126.075685 268.667614 
L 126.075685 268.143366 
L 126.624612 268.143366 
L 126.624612 267.619119 
L 126.934579 267.619119 
L 126.934579 267.094871 
L 127.115148 267.094871 
L 127.115148 266.570623 
L 127.685891 266.570623 
L 127.685891 266.046375 
L 128.069198 266.046375 
L 128.069198 265.522128 
L 128.622265 265.522128 
L 128.622265 264.99788 
L 128.997851 264.99788 
L 129.08432 263.949385 
L 129.255962 263.949385 
L 129.255962 263.425137 
L 129.996143 263.425137 
L 129.996143 262.900889 
L 130.366053 262.900889 
L 130.366053 262.376641 
L 131.005861 262.376641 
L 131.005861 261.852394 
L 131.126637 261.852394 
L 131.126637 261.328146 
L 131.257433 261.328146 
L 131.257433 260.803898 
L 131.696954 260.803898 
L 131.696954 260.279651 
L 133.475115 260.279651 
L 133.475115 259.755403 
L 134.056882 259.755403 
L 134.056882 259.231155 
L 145.682711 259.231155 
L 145.682711 258.706907 
L 146.768861 258.706907 
L 146.768861 258.18266 
L 147.374614 258.18266 
L 147.374614 257.658412 
L 147.984382 257.658412 
L 147.984382 257.134164 
L 148.891465 257.134164 
L 148.891465 256.609917 
L 149.626736 256.609917 
L 149.645373 255.561421 
L 150.538207 255.561421 
L 150.552348 254.512926 
L 150.790985 254.512926 
L 150.790985 253.988678 
L 155.761965 253.988678 
L 155.761965 253.46443 
L 160.189542 253.46443 
L 160.189542 252.940182 
L 161.100931 252.940182 
L 161.100931 252.415935 
L 173.211104 252.415935 
L 173.211104 251.891687 
L 175.409595 251.891687 
L 175.409595 251.367439 
L 175.702494 251.367439 
L 175.702494 250.843192 
L 175.926006 250.843192 
L 175.926006 250.318944 
L 180.430843 250.318944 
L 180.430843 249.794696 
L 183.065208 249.794696 
L 183.065208 249.270448 
L 184.26389 249.270448 
L 184.26389 248.746201 
L 186.923114 248.746201 
L 186.923114 248.221953 
L 187.429618 248.221953 
L 187.538441 247.173458 
L 187.764995 247.173458 
L 187.764995 246.64921 
L 192.47354 246.64921 
L 192.47354 246.124962 
L 195.474136 246.124962 
L 195.474136 245.600714 
L 195.693368 245.600714 
L 195.693368 245.076467 
L 197.956152 245.076467 
L 197.956152 244.552219 
L 205.005599 244.552219 
L 205.005599 244.027971 
L 205.863022 244.027971 
L 205.863022 243.503724 
L 213.12901 243.503724 
L 213.151896 242.455228 
L 214.057185 242.455228 
L 214.057185 241.93098 
L 214.643104 241.93098 
L 214.643104 241.406733 
L 217.300891 241.406733 
L 217.300891 240.882485 
L 220.418036 240.882485 
L 220.418036 240.358237 
L 227.01117 240.358237 
L 227.01117 239.83399 
L 228.321084 239.83399 
L 228.321084 239.309742 
L 229.775263 239.309742 
L 229.775263 238.785494 
L 231.037336 238.785494 
L 231.037336 238.261246 
L 234.653188 238.261246 
L 234.675253 235.640008 
L 235.684165 235.640008 
L 235.685138 234.591512 
L 235.930609 234.591512 
L 235.930609 234.067265 
L 239.633767 234.067265 
L 239.650224 233.018769 
L 242.173052 233.018769 
L 242.17632 231.970274 
L 242.810915 231.970274 
L 242.810915 231.446026 
L 249.011073 231.446026 
L 249.011073 230.921778 
L 250.689384 230.921778 
L 250.698109 228.824787 
L 251.102369 228.824787 
L 251.203294 226.203549 
L 252.831495 226.203549 
L 252.831495 225.679301 
L 258.839064 225.679301 
L 258.839064 225.155053 
L 259.097197 225.155053 
L 259.097197 224.630806 
L 264.345661 224.630806 
L 264.345661 224.106558 
L 264.531291 224.106558 
L 264.532866 223.058063 
L 266.104679 223.058063 
L 266.104679 222.533815 
L 268.654882 222.533815 
L 268.656052 220.961072 
L 269.906493 220.961072 
L 269.906493 220.436824 
L 271.858382 220.436824 
L 271.858388 219.388328 
L 271.978199 219.388328 
L 271.978199 218.864081 
L 273.016211 218.864081 
L 273.016211 218.339833 
L 274.659366 218.339833 
L 274.76305 215.718594 
L 277.068124 215.718594 
L 277.157731 213.097356 
L 277.930901 213.097356 
L 277.930901 212.573108 
L 279.180157 212.573108 
L 279.259601 211.000365 
L 281.062044 211.000365 
L 281.132557 209.95187 
L 281.524428 209.95187 
L 281.524428 209.427622 
L 281.683531 209.427622 
L 281.683531 208.903374 
L 282.755657 208.903374 
L 282.820917 207.330631 
L 284.358148 207.330631 
L 284.358148 206.806383 
L 285.768731 206.806383 
L 285.768731 206.282136 
L 286.241277 206.282136 
L 286.241277 205.757888 
L 288.284558 205.757888 
L 288.284558 205.23364 
L 289.41695 205.23364 
L 289.41695 204.709392 
L 290.437848 204.709392 
L 290.437848 204.185145 
L 291.440413 204.185145 
L 291.440413 203.660897 
L 297.892729 203.660897 
L 297.892729 203.136649 
L 301.500717 203.136649 
L 301.500717 202.612401 
L 304.481205 202.612401 
L 304.481205 202.088154 
L 305.797677 202.088154 
L 305.797677 201.563906 
L 307.789837 201.563906 
L 307.789837 201.039658 
L 315.532967 201.039658 
L 315.532967 200.515411 
L 333.168 200.515411 
L 333.168 200.515411 
" style="fill:none;stroke:#ff7500;stroke-linecap:square;stroke-width:1.5;"/>
   </g>
   <g id="line2d_54">
    <defs>
     <path d="M 0 -6 
L -1.347084 -1.854102 
L -5.706339 -1.854102 
L -2.179628 0.708204 
L -3.526712 4.854102 
L -0 2.291796 
L 3.526712 4.854102 
L 2.179628 0.708204 
L 5.706339 -1.854102 
L 1.347084 -1.854102 
z
" id="m437db3aa35" style="stroke:#ff7500;stroke-linejoin:bevel;stroke-width:1.5;"/>
    </defs>
    <g>
     <use style="fill:none;stroke:#ff7500;stroke-linejoin:bevel;stroke-width:1.5;" x="150.790985" xlink:href="#m437db3aa35" y="253.988678"/>
     <use style="fill:none;stroke:#ff7500;stroke-linejoin:bevel;stroke-width:1.5;" x="227.01117" xlink:href="#m437db3aa35" y="240.358237"/>
     <use style="fill:none;stroke:#ff7500;stroke-linejoin:bevel;stroke-width:1.5;" x="281.062044" xlink:href="#m437db3aa35" y="211.000365"/>
     <use style="fill:none;stroke:#ff7500;stroke-linejoin:bevel;stroke-width:1.5;" x="315.532967" xlink:href="#m437db3aa35" y="200.515411"/>
     <use style="fill:none;stroke:#ff7500;stroke-linejoin:bevel;stroke-width:1.5;" x="333.168" xlink:href="#m437db3aa35" y="200.515411"/>
    </g>
   </g>
   <g id="line2d_55">
    <path style="fill:none;stroke:#ff7500;stroke-linecap:square;stroke-width:1.5;"/>
    <g/>
   </g>
   <g id="line2d_56">
    <path clip-path="url(#pfd8baa16da)" d="M 242.097315 233.018769 
" style="fill:none;stroke:#ff7500;stroke-linecap:square;stroke-width:1.5;"/>
    <defs>
     <path d="M -12 12 
L 12 -12 
M -12 -12 
L 12 12 
" id="mad67c9cae5" style="stroke:#ff7500;"/>
    </defs>
    <g clip-path="url(#pfd8baa16da)">
     <use style="fill:#ff7500;stroke:#ff7500;" x="242.097315" xlink:href="#mad67c9cae5" y="233.018769"/>
    </g>
   </g>
   <g id="line2d_57">
    <path d="M 333.168 200.515411 
L 363.64328 289.532673 
" style="fill:none;stroke:#ff7500;stroke-linecap:square;stroke-width:1.5;"/>
    <g>
     <use style="fill:none;stroke:#ff7500;stroke-linejoin:bevel;stroke-width:1.5;" x="333.168" xlink:href="#m437db3aa35" y="200.515411"/>
     <use style="fill:none;stroke:#ff7500;stroke-linejoin:bevel;stroke-width:1.5;" x="363.64328" xlink:href="#m437db3aa35" y="289.532673"/>
    </g>
   </g>
   <g id="line2d_58">
    <path d="M 333.168 27.513663 
L 363.64328 203.975446 
" style="fill:none;stroke:#000080;stroke-linecap:square;stroke-width:1.5;"/>
    <g>
     <use style="fill:none;stroke:#000080;stroke-width:1.5;" x="333.168" xlink:href="#m1e1cce5970" y="27.513663"/>
     <use style="fill:none;stroke:#000080;stroke-width:1.5;" x="363.64328" xlink:href="#m1e1cce5970" y="203.975446"/>
    </g>
   </g>
   <g id="line2d_59">
    <path d="M 333.168 27.513663 
L 363.64328 118.418218 
" style="fill:none;stroke:#ff00ff;stroke-linecap:square;stroke-width:1.5;"/>
    <g>
     <use style="fill:none;stroke:#ff00ff;stroke-linejoin:miter;stroke-width:1.5;" x="333.168" xlink:href="#mad147a1dbe" y="27.513663"/>
     <use style="fill:none;stroke:#ff00ff;stroke-linejoin:miter;stroke-width:1.5;" x="363.64328" xlink:href="#mad147a1dbe" y="118.418218"/>
    </g>
   </g>
   <g id="line2d_60">
    <path d="M 333.168 294.88 
L 333.168 27.513663 
" style="fill:none;stroke:#000000;stroke-linecap:square;stroke-width:1.5;"/>
   </g>
   <g id="patch_3">
    <path d="M 56.12 294.88 
L 56.12 24.84 
" style="fill:none;stroke:#000000;stroke-linecap:square;stroke-linejoin:miter;stroke-width:0.8;"/>
   </g>
   <g id="patch_4">
    <path d="M 333.168 294.88 
L 333.168 24.84 
" style="fill:none;stroke:#000000;stroke-linecap:square;stroke-linejoin:miter;stroke-width:0.8;"/>
   </g>
   <g id="patch_5">
    <path d="M 56.12 294.88 
L 333.168 294.88 
" style="fill:none;stroke:#000000;stroke-linecap:square;stroke-linejoin:miter;stroke-width:0.8;"/>
   </g>
   <g id="patch_6">
    <path d="M 56.12 24.84 
L 333.168 24.84 
" style="fill:none;stroke:#000000;stroke-linecap:square;stroke-linejoin:miter;stroke-width:0.8;"/>
   </g>
   <g id="text_13">
    <!-- CMAES posi -->
    <defs>
     <path d="M 64.40625 67.28125 
L 64.40625 56.890625 
Q 59.421875 61.53125 53.78125 63.8125 
Q 48.140625 66.109375 41.796875 66.109375 
Q 29.296875 66.109375 22.65625 58.46875 
Q 16.015625 50.828125 16.015625 36.375 
Q 16.015625 21.96875 22.65625 14.328125 
Q 29.296875 6.6875 41.796875 6.6875 
Q 48.140625 6.6875 53.78125 8.984375 
Q 59.421875 11.28125 64.40625 15.921875 
L 64.40625 5.609375 
Q 59.234375 2.09375 53.4375 0.328125 
Q 47.65625 -1.421875 41.21875 -1.421875 
Q 24.65625 -1.421875 15.125 8.703125 
Q 5.609375 18.84375 5.609375 36.375 
Q 5.609375 53.953125 15.125 64.078125 
Q 24.65625 74.21875 41.21875 74.21875 
Q 47.75 74.21875 53.53125 72.484375 
Q 59.328125 70.75 64.40625 67.28125 
z
" id="DejaVuSans-43"/>
     <path d="M 9.8125 72.90625 
L 24.515625 72.90625 
L 43.109375 23.296875 
L 61.8125 72.90625 
L 76.515625 72.90625 
L 76.515625 0 
L 66.890625 0 
L 66.890625 64.015625 
L 48.09375 14.015625 
L 38.1875 14.015625 
L 19.390625 64.015625 
L 19.390625 0 
L 9.8125 0 
z
" id="DejaVuSans-4d"/>
     <path d="M 34.1875 63.1875 
L 20.796875 26.90625 
L 47.609375 26.90625 
z
M 28.609375 72.90625 
L 39.796875 72.90625 
L 67.578125 0 
L 57.328125 0 
L 50.6875 18.703125 
L 17.828125 18.703125 
L 11.1875 0 
L 0.78125 0 
z
" id="DejaVuSans-41"/>
     <path d="M 9.8125 72.90625 
L 55.90625 72.90625 
L 55.90625 64.59375 
L 19.671875 64.59375 
L 19.671875 43.015625 
L 54.390625 43.015625 
L 54.390625 34.71875 
L 19.671875 34.71875 
L 19.671875 8.296875 
L 56.78125 8.296875 
L 56.78125 0 
L 9.8125 0 
z
" id="DejaVuSans-45"/>
     <path d="M 53.515625 70.515625 
L 53.515625 60.890625 
Q 47.90625 63.578125 42.921875 64.890625 
Q 37.9375 66.21875 33.296875 66.21875 
Q 25.25 66.21875 20.875 63.09375 
Q 16.5 59.96875 16.5 54.203125 
Q 16.5 49.359375 19.40625 46.890625 
Q 22.3125 44.4375 30.421875 42.921875 
L 36.375 41.703125 
Q 47.40625 39.59375 52.65625 34.296875 
Q 57.90625 29 57.90625 20.125 
Q 57.90625 9.515625 50.796875 4.046875 
Q 43.703125 -1.421875 29.984375 -1.421875 
Q 24.8125 -1.421875 18.96875 -0.25 
Q 13.140625 0.921875 6.890625 3.21875 
L 6.890625 13.375 
Q 12.890625 10.015625 18.65625 8.296875 
Q 24.421875 6.59375 29.984375 6.59375 
Q 38.421875 6.59375 43.015625 9.90625 
Q 47.609375 13.234375 47.609375 19.390625 
Q 47.609375 24.75 44.3125 27.78125 
Q 41.015625 30.8125 33.5 32.328125 
L 27.484375 33.5 
Q 16.453125 35.6875 11.515625 40.375 
Q 6.59375 45.0625 6.59375 53.421875 
Q 6.59375 63.09375 13.40625 68.65625 
Q 20.21875 74.21875 32.171875 74.21875 
Q 37.3125 74.21875 42.625 73.28125 
Q 47.953125 72.359375 53.515625 70.515625 
z
" id="DejaVuSans-53"/>
    </defs>
    <g transform="translate(369.18424 294.223611)scale(0.17 -0.17)">
     <use xlink:href="#DejaVuSans-43"/>
     <use x="69.824219" xlink:href="#DejaVuSans-4d"/>
     <use x="156.103516" xlink:href="#DejaVuSans-41"/>
     <use x="224.511719" xlink:href="#DejaVuSans-45"/>
     <use x="287.695312" xlink:href="#DejaVuSans-53"/>
     <use x="351.171875" xlink:href="#DejaVuSans-20"/>
     <use x="382.958984" xlink:href="#DejaVuSans-70"/>
     <use x="446.435547" xlink:href="#DejaVuSans-6f"/>
     <use x="507.617188" xlink:href="#DejaVuSans-73"/>
     <use x="559.716797" xlink:href="#DejaVuSans-69"/>
    </g>
   </g>
   <g id="text_14">
    <!-- CMA ES PPM -->
    <defs>
     <path d="M 19.671875 64.796875 
L 19.671875 37.40625 
L 32.078125 37.40625 
Q 38.96875 37.40625 42.71875 40.96875 
Q 46.484375 44.53125 46.484375 51.125 
Q 46.484375 57.671875 42.71875 61.234375 
Q 38.96875 64.796875 32.078125 64.796875 
z
M 9.8125 72.90625 
L 32.078125 72.90625 
Q 44.34375 72.90625 50.609375 67.359375 
Q 56.890625 61.8125 56.890625 51.125 
Q 56.890625 40.328125 50.609375 34.8125 
Q 44.34375 29.296875 32.078125 29.296875 
L 19.671875 29.296875 
L 19.671875 0 
L 9.8125 0 
z
" id="DejaVuSans-50"/>
    </defs>
    <g transform="translate(369.18424 208.666383)scale(0.17 -0.17)">
     <use xlink:href="#DejaVuSans-43"/>
     <use x="69.824219" xlink:href="#DejaVuSans-4d"/>
     <use x="156.103516" xlink:href="#DejaVuSans-41"/>
     <use x="224.511719" xlink:href="#DejaVuSans-20"/>
     <use x="256.298828" xlink:href="#DejaVuSans-45"/>
     <use x="319.482422" xlink:href="#DejaVuSans-53"/>
     <use x="382.958984" xlink:href="#DejaVuSans-20"/>
     <use x="414.746094" xlink:href="#DejaVuSans-50"/>
     <use x="475.048828" xlink:href="#DejaVuSans-50"/>
     <use x="535.351562" xlink:href="#DejaVuSans-4d"/>
    </g>
   </g>
   <g id="text_15">
    <!-- CMA ES CSA -->
    <g transform="translate(369.18424 123.109155)scale(0.17 -0.17)">
     <use xlink:href="#DejaVuSans-43"/>
     <use x="69.824219" xlink:href="#DejaVuSans-4d"/>
     <use x="156.103516" xlink:href="#DejaVuSans-41"/>
     <use x="224.511719" xlink:href="#DejaVuSans-20"/>
     <use x="256.298828" xlink:href="#DejaVuSans-45"/>
     <use x="319.482422" xlink:href="#DejaVuSans-53"/>
     <use x="382.958984" xlink:href="#DejaVuSans-20"/>
     <use x="414.746094" xlink:href="#DejaVuSans-43"/>
     <use x="484.570312" xlink:href="#DejaVuSans-53"/>
     <use x="548.0625" xlink:href="#DejaVuSans-41"/>
    </g>
   </g>
   <g id="text_16">
    <!-- best 2009 -->
    <defs>
     <path d="M 48.6875 27.296875 
Q 48.6875 37.203125 44.609375 42.84375 
Q 40.53125 48.484375 33.40625 48.484375 
Q 26.265625 48.484375 22.1875 42.84375 
Q 18.109375 37.203125 18.109375 27.296875 
Q 18.109375 17.390625 22.1875 11.75 
Q 26.265625 6.109375 33.40625 6.109375 
Q 40.53125 6.109375 44.609375 11.75 
Q 48.6875 17.390625 48.6875 27.296875 
z
M 18.109375 46.390625 
Q 20.953125 51.265625 25.265625 53.625 
Q 29.59375 56 35.59375 56 
Q 45.5625 56 51.78125 48.09375 
Q 58.015625 40.1875 58.015625 27.296875 
Q 58.015625 14.40625 51.78125 6.484375 
Q 45.5625 -1.421875 35.59375 -1.421875 
Q 29.59375 -1.421875 25.265625 0.953125 
Q 20.953125 3.328125 18.109375 8.203125 
L 18.109375 0 
L 9.078125 0 
L 9.078125 75.984375 
L 18.109375 75.984375 
z
" id="DejaVuSans-62"/>
     <path d="M 10.984375 1.515625 
L 10.984375 10.5 
Q 14.703125 8.734375 18.5 7.8125 
Q 22.3125 6.890625 25.984375 6.890625 
Q 35.75 6.890625 40.890625 13.453125 
Q 46.046875 20.015625 46.78125 33.40625 
Q 43.953125 29.203125 39.59375 26.953125 
Q 35.25 24.703125 29.984375 24.703125 
Q 19.046875 24.703125 12.671875 31.3125 
Q 6.296875 37.9375 6.296875 49.421875 
Q 6.296875 60.640625 12.9375 67.421875 
Q 19.578125 74.21875 30.609375 74.21875 
Q 43.265625 74.21875 49.921875 64.515625 
Q 56.59375 54.828125 56.59375 36.375 
Q 56.59375 19.140625 48.40625 8.859375 
Q 40.234375 -1.421875 26.421875 -1.421875 
Q 22.703125 -1.421875 18.890625 -0.6875 
Q 15.09375 0.046875 10.984375 1.515625 
z
M 30.609375 32.421875 
Q 37.25 32.421875 41.125 36.953125 
Q 45.015625 41.5 45.015625 49.421875 
Q 45.015625 57.28125 41.125 61.84375 
Q 37.25 66.40625 30.609375 66.40625 
Q 23.96875 66.40625 20.09375 61.84375 
Q 16.21875 57.28125 16.21875 49.421875 
Q 16.21875 41.5 20.09375 36.953125 
Q 23.96875 32.421875 30.609375 32.421875 
z
" id="DejaVuSans-39"/>
    </defs>
    <g transform="translate(369.18424 37.551928)scale(0.17 -0.17)">
     <use xlink:href="#DejaVuSans-62"/>
     <use x="63.476562" xlink:href="#DejaVuSans-65"/>
     <use x="125" xlink:href="#DejaVuSans-73"/>
     <use x="177.099609" xlink:href="#DejaVuSans-74"/>
     <use x="216.308594" xlink:href="#DejaVuSans-20"/>
     <use x="248.095703" xlink:href="#DejaVuSans-32"/>
     <use x="311.71875" xlink:href="#DejaVuSans-30"/>
     <use x="375.341797" xlink:href="#DejaVuSans-30"/>
     <use x="438.964844" xlink:href="#DejaVuSans-39"/>
    </g>
   </g>
   <g id="text_17">
    <!-- bbob f7, 20-D -->
    <defs>
     <path d="M 8.203125 72.90625 
L 55.078125 72.90625 
L 55.078125 68.703125 
L 28.609375 0 
L 18.3125 0 
L 43.21875 64.59375 
L 8.203125 64.59375 
z
" id="DejaVuSans-37"/>
     <path d="M 19.671875 64.796875 
L 19.671875 8.109375 
L 31.59375 8.109375 
Q 46.6875 8.109375 53.6875 14.9375 
Q 60.6875 21.78125 60.6875 36.53125 
Q 60.6875 51.171875 53.6875 57.984375 
Q 46.6875 64.796875 31.59375 64.796875 
z
M 9.8125 72.90625 
L 30.078125 72.90625 
Q 51.265625 72.90625 61.171875 64.09375 
Q 71.09375 55.28125 71.09375 36.53125 
Q 71.09375 17.671875 61.125 8.828125 
Q 51.171875 0 30.078125 0 
L 9.8125 0 
z
" id="DejaVuSans-44"/>
    </defs>
    <g transform="translate(58.89048 35.290806)scale(0.102 -0.102)">
     <use xlink:href="#DejaVuSans-62"/>
     <use x="63.476562" xlink:href="#DejaVuSans-62"/>
     <use x="126.953125" xlink:href="#DejaVuSans-6f"/>
     <use x="188.134766" xlink:href="#DejaVuSans-62"/>
     <use x="251.611328" xlink:href="#DejaVuSans-20"/>
     <use x="283.398438" xlink:href="#DejaVuSans-66"/>
     <use x="318.603516" xlink:href="#DejaVuSans-37"/>
     <use x="382.226562" xlink:href="#DejaVuSans-2c"/>
     <use x="414.013672" xlink:href="#DejaVuSans-20"/>
     <use x="445.800781" xlink:href="#DejaVuSans-32"/>
     <use x="509.423828" xlink:href="#DejaVuSans-30"/>
     <use x="573.046875" xlink:href="#DejaVuSans-2d"/>
     <use x="609.130859" xlink:href="#DejaVuSans-44"/>
    </g>
    <!-- 51 targets: 100..1e-08 -->
    <defs>
     <path d="M 10.796875 72.90625 
L 49.515625 72.90625 
L 49.515625 64.59375 
L 19.828125 64.59375 
L 19.828125 46.734375 
Q 21.96875 47.46875 24.109375 47.828125 
Q 26.265625 48.1875 28.421875 48.1875 
Q 40.625 48.1875 47.75 41.5 
Q 54.890625 34.8125 54.890625 23.390625 
Q 54.890625 11.625 47.5625 5.09375 
Q 40.234375 -1.421875 26.90625 -1.421875 
Q 22.3125 -1.421875 17.546875 -0.640625 
Q 12.796875 0.140625 7.71875 1.703125 
L 7.71875 11.625 
Q 12.109375 9.234375 16.796875 8.0625 
Q 21.484375 6.890625 26.703125 6.890625 
Q 35.15625 6.890625 40.078125 11.328125 
Q 45.015625 15.765625 45.015625 23.390625 
Q 45.015625 31 40.078125 35.4375 
Q 35.15625 39.890625 26.703125 39.890625 
Q 22.75 39.890625 18.8125 39.015625 
Q 14.890625 38.140625 10.796875 36.28125 
z
" id="DejaVuSans-35"/>
     <path d="M 11.71875 12.40625 
L 22.015625 12.40625 
L 22.015625 0 
L 11.71875 0 
z
M 11.71875 51.703125 
L 22.015625 51.703125 
L 22.015625 39.3125 
L 11.71875 39.3125 
z
" id="DejaVuSans-3a"/>
    </defs>
    <g transform="translate(58.89048 46.712575)scale(0.102 -0.102)">
     <use xlink:href="#DejaVuSans-35"/>
     <use x="63.623047" xlink:href="#DejaVuSans-31"/>
     <use x="127.246094" xlink:href="#DejaVuSans-20"/>
     <use x="159.033203" xlink:href="#DejaVuSans-74"/>
     <use x="198.242188" xlink:href="#DejaVuSans-61"/>
     <use x="259.521484" xlink:href="#DejaVuSans-72"/>
     <use x="300.619141" xlink:href="#DejaVuSans-67"/>
     <use x="364.095703" xlink:href="#DejaVuSans-65"/>
     <use x="425.619141" xlink:href="#DejaVuSans-74"/>
     <use x="464.828125" xlink:href="#DejaVuSans-73"/>
     <use x="516.927734" xlink:href="#DejaVuSans-3a"/>
     <use x="550.619141" xlink:href="#DejaVuSans-20"/>
     <use x="582.40625" xlink:href="#DejaVuSans-31"/>
     <use x="646.029297" xlink:href="#DejaVuSans-30"/>
     <use x="709.652344" xlink:href="#DejaVuSans-30"/>
     <use x="773.275391" xlink:href="#DejaVuSans-2e"/>
     <use x="805.0625" xlink:href="#DejaVuSans-2e"/>
     <use x="836.849609" xlink:href="#DejaVuSans-31"/>
     <use x="900.472656" xlink:href="#DejaVuSans-65"/>
     <use x="961.996094" xlink:href="#DejaVuSans-2d"/>
     <use x="998.080078" xlink:href="#DejaVuSans-30"/>
     <use x="1061.703125" xlink:href="#DejaVuSans-38"/>
    </g>
    <!-- 15 instances -->
    <g transform="translate(58.89048 58.134344)scale(0.102 -0.102)">
     <use xlink:href="#DejaVuSans-31"/>
     <use x="63.623047" xlink:href="#DejaVuSans-35"/>
     <use x="127.246094" xlink:href="#DejaVuSans-20"/>
     <use x="159.033203" xlink:href="#DejaVuSans-69"/>
     <use x="186.816406" xlink:href="#DejaVuSans-6e"/>
     <use x="250.195312" xlink:href="#DejaVuSans-73"/>
     <use x="302.294922" xlink:href="#DejaVuSans-74"/>
     <use x="341.503906" xlink:href="#DejaVuSans-61"/>
     <use x="402.783203" xlink:href="#DejaVuSans-6e"/>
     <use x="466.162109" xlink:href="#DejaVuSans-63"/>
     <use x="521.142578" xlink:href="#DejaVuSans-65"/>
     <use x="582.666016" xlink:href="#DejaVuSans-73"/>
    </g>
   </g>
   <g id="text_18">
    <!-- v0.0.0 -->
    <g style="fill:#808080;" transform="translate(178.96275 290.099912)scale(0.1 -0.1)">
     <use xlink:href="#DejaVuSans-76"/>
     <use x="59.179688" xlink:href="#DejaVuSans-30"/>
     <use x="122.802734" xlink:href="#DejaVuSans-2e"/>
     <use x="154.589844" xlink:href="#DejaVuSans-30"/>
     <use x="218.212891" xlink:href="#DejaVuSans-2e"/>
     <use x="250" xlink:href="#DejaVuSans-30"/>
    </g>
   </g>
   <g id="text_19">
    <!-- 7 Step-ellipsoid -->
    <g transform="translate(117.434625 18.84)scale(0.2 -0.2)">
     <use xlink:href="#DejaVuSans-37"/>
     <use x="63.623047" xlink:href="#DejaVuSans-20"/>
     <use x="95.410156" xlink:href="#DejaVuSans-53"/>
     <use x="158.886719" xlink:href="#DejaVuSans-74"/>
     <use x="198.095703" xlink:href="#DejaVuSans-65"/>
     <use x="259.619141" xlink:href="#DejaVuSans-70"/>
     <use x="323.095703" xlink:href="#DejaVuSans-2d"/>
     <use x="359.179688" xlink:href="#DejaVuSans-65"/>
     <use x="420.703125" xlink:href="#DejaVuSans-6c"/>
     <use x="448.486328" xlink:href="#DejaVuSans-6c"/>
     <use x="476.269531" xlink:href="#DejaVuSans-69"/>
     <use x="504.052734" xlink:href="#DejaVuSans-70"/>
     <use x="567.529297" xlink:href="#DejaVuSans-73"/>
     <use x="619.628906" xlink:href="#DejaVuSans-6f"/>
     <use x="680.810547" xlink:href="#DejaVuSans-69"/>
     <use x="708.59375" xlink:href="#DejaVuSans-64"/>
    </g>
   </g>
  </g>
 </g>
 <defs>
  <clipPath id="pfd8baa16da">
   <rect height="270.04" width="277.048" x="56.12" y="24.84"/>
  </clipPath>
 </defs>
</svg>
