<?xml version="1.0" encoding="utf-8" standalone="no"?>
<!DOCTYPE svg PUBLIC "-//W3C//DTD SVG 1.1//EN"
  "http://www.w3.org/Graphics/SVG/1.1/DTD/svg11.dtd">
<!-- Created with matplotlib (http://matplotlib.org/) -->
<svg height="345pt" version="1.1" viewBox="0 0 460 345" width="460pt" xmlns="http://www.w3.org/2000/svg" xmlns:xlink="http://www.w3.org/1999/xlink">
 <defs>
  <style type="text/css">
*{stroke-linecap:butt;stroke-linejoin:round;}
  </style>
 </defs>
 <g id="figure_1">
  <g id="patch_1">
   <path d="M 0 345.6 
L 460.8 345.6 
L 460.8 0 
L 0 0 
z
" style="fill:#ffffff;"/>
  </g>
  <g id="axes_1">
   <g id="patch_2">
    <path d="M 56.12 294.88 
L 333.168 294.88 
L 333.168 24.84 
L 56.12 24.84 
z
" style="fill:#ffffff;"/>
   </g>
   <g id="line2d_1">
    <path d="M 37.236359 294.88 
L 37.236359 221.485319 
L 112.770924 221.485319 
L 112.770924 216.242842 
L 117.874207 216.242842 
L 117.874207 205.757888 
L 119.382949 205.757888 
L 119.382949 200.515411 
L 122.779599 200.515411 
L 122.779599 195.272933 
L 159.529506 195.272933 
L 159.529506 190.030456 
L 188.829251 190.030456 
L 188.829251 184.787979 
L 190.248027 184.787979 
L 190.248027 179.545502 
L 190.259722 179.545502 
L 190.259722 174.303025 
L 190.264398 174.303025 
L 190.264398 169.060547 
L 190.283089 169.060547 
L 190.283089 163.81807 
L 190.297094 163.81807 
L 190.297094 158.575593 
L 190.308756 158.575593 
L 190.308756 148.090639 
L 190.313418 148.090639 
L 190.313418 142.848162 
L 190.325069 142.848162 
L 190.325069 132.363207 
L 190.329727 132.363207 
L 190.329727 127.12073 
L 190.352999 127.12073 
L 190.352999 121.878253 
L 190.364623 121.878253 
L 190.364623 111.393298 
L 190.371594 111.393298 
L 190.371594 106.150821 
L 190.37624 106.150821 
L 190.37624 100.908344 
L 190.387848 100.908344 
L 190.387848 95.665867 
L 190.406405 95.665867 
L 190.406405 90.42339 
L 190.429574 90.42339 
L 190.429574 85.180912 
L 190.434204 85.180912 
L 190.434204 79.938435 
L 190.441146 79.938435 
L 190.441146 74.695958 
L 190.452711 74.695958 
L 190.452711 64.211004 
L 190.468889 64.211004 
L 190.468889 53.726049 
L 190.480435 53.726049 
L 190.480435 48.483572 
L 190.521936 48.483572 
L 190.521936 43.241095 
L 190.528844 43.241095 
L 190.528844 37.998618 
L 190.538049 37.998618 
L 190.538049 32.756141 
L 190.563338 32.756141 
L 190.563338 27.513663 
L 333.168 27.513663 
" style="fill:none;stroke:#f5deb3;stroke-linecap:square;stroke-width:4;"/>
   </g>
   <g id="line2d_2">
    <defs>
     <path d="M -0 7.778175 
L 7.778175 0 
L 0 -7.778175 
L -7.778175 -0 
z
" id="md60650cfad" style="stroke:#f5deb3;stroke-linejoin:miter;stroke-width:1.5;"/>
    </defs>
    <g>
     <use style="fill:#f5deb3;stroke:#f5deb3;stroke-linejoin:miter;stroke-width:1.5;" x="122.779599" xlink:href="#md60650cfad" y="195.272933"/>
     <use style="fill:#f5deb3;stroke:#f5deb3;stroke-linejoin:miter;stroke-width:1.5;" x="190.387848" xlink:href="#md60650cfad" y="95.665867"/>
     <use style="fill:#f5deb3;stroke:#f5deb3;stroke-linejoin:miter;stroke-width:1.5;" x="190.563338" xlink:href="#md60650cfad" y="27.513663"/>
     <use style="fill:#f5deb3;stroke:#f5deb3;stroke-linejoin:miter;stroke-width:1.5;" x="190.563338" xlink:href="#md60650cfad" y="27.513663"/>
     <use style="fill:#f5deb3;stroke:#f5deb3;stroke-linejoin:miter;stroke-width:1.5;" x="333.168" xlink:href="#md60650cfad" y="27.513663"/>
    </g>
   </g>
   <g id="line2d_3">
    <path style="fill:none;stroke:#f5deb3;stroke-linecap:square;stroke-width:4;"/>
    <g/>
   </g>
   <g id="line2d_4">
    <path d="M 333.168 27.513663 
L 363.64328 32.86099 
" style="fill:none;stroke:#f5deb3;stroke-linecap:square;stroke-width:4;"/>
    <g>
     <use style="fill:#f5deb3;stroke:#f5deb3;stroke-linejoin:miter;stroke-width:1.5;" x="333.168" xlink:href="#md60650cfad" y="27.513663"/>
     <use style="fill:#f5deb3;stroke:#f5deb3;stroke-linejoin:miter;stroke-width:1.5;" x="363.64328" xlink:href="#md60650cfad" y="32.86099"/>
    </g>
   </g>
   <g id="matplotlib.axis_1">
    <g id="xtick_1">
     <g id="line2d_5">
      <path clip-path="url(#pa24ac62498)" d="M 56.12 294.88 
L 56.12 24.84 
" style="fill:none;stroke:#b0b0b0;stroke-linecap:square;stroke-width:0.8;"/>
     </g>
     <g id="line2d_6">
      <defs>
       <path d="M 0 0 
L 0 3.5 
" id="ma8c1b41195" style="stroke:#000000;stroke-width:0.8;"/>
      </defs>
      <g>
       <use style="stroke:#000000;stroke-width:0.8;" x="56.12" xlink:href="#ma8c1b41195" y="294.88"/>
      </g>
     </g>
     <g id="text_1">
      <!-- 0 -->
      <defs>
       <path d="M 31.78125 66.40625 
Q 24.171875 66.40625 20.328125 58.90625 
Q 16.5 51.421875 16.5 36.375 
Q 16.5 21.390625 20.328125 13.890625 
Q 24.171875 6.390625 31.78125 6.390625 
Q 39.453125 6.390625 43.28125 13.890625 
Q 47.125 21.390625 47.125 36.375 
Q 47.125 51.421875 43.28125 58.90625 
Q 39.453125 66.40625 31.78125 66.40625 
z
M 31.78125 74.21875 
Q 44.046875 74.21875 50.515625 64.515625 
Q 56.984375 54.828125 56.984375 36.375 
Q 56.984375 17.96875 50.515625 8.265625 
Q 44.046875 -1.421875 31.78125 -1.421875 
Q 19.53125 -1.421875 13.0625 8.265625 
Q 6.59375 17.96875 6.59375 36.375 
Q 6.59375 54.828125 13.0625 64.515625 
Q 19.53125 74.21875 31.78125 74.21875 
z
" id="DejaVuSans-30"/>
      </defs>
      <g transform="translate(49.7575 317.076875)scale(0.2 -0.2)">
       <use xlink:href="#DejaVuSans-30"/>
      </g>
     </g>
    </g>
    <g id="xtick_2">
     <g id="line2d_7">
      <path clip-path="url(#pa24ac62498)" d="M 135.276571 294.88 
L 135.276571 24.84 
" style="fill:none;stroke:#b0b0b0;stroke-linecap:square;stroke-width:0.8;"/>
     </g>
     <g id="line2d_8">
      <g>
       <use style="stroke:#000000;stroke-width:0.8;" x="135.276571" xlink:href="#ma8c1b41195" y="294.88"/>
      </g>
     </g>
     <g id="text_2">
      <!-- 2 -->
      <defs>
       <path d="M 19.1875 8.296875 
L 53.609375 8.296875 
L 53.609375 0 
L 7.328125 0 
L 7.328125 8.296875 
Q 12.9375 14.109375 22.625 23.890625 
Q 32.328125 33.6875 34.8125 36.53125 
Q 39.546875 41.84375 41.421875 45.53125 
Q 43.3125 49.21875 43.3125 52.78125 
Q 43.3125 58.59375 39.234375 62.25 
Q 35.15625 65.921875 28.609375 65.921875 
Q 23.96875 65.921875 18.8125 64.3125 
Q 13.671875 62.703125 7.8125 59.421875 
L 7.8125 69.390625 
Q 13.765625 71.78125 18.9375 73 
Q 24.125 74.21875 28.421875 74.21875 
Q 39.75 74.21875 46.484375 68.546875 
Q 53.21875 62.890625 53.21875 53.421875 
Q 53.21875 48.921875 51.53125 44.890625 
Q 49.859375 40.875 45.40625 35.40625 
Q 44.1875 33.984375 37.640625 27.21875 
Q 31.109375 20.453125 19.1875 8.296875 
z
" id="DejaVuSans-32"/>
      </defs>
      <g transform="translate(128.914071 317.076875)scale(0.2 -0.2)">
       <use xlink:href="#DejaVuSans-32"/>
      </g>
     </g>
    </g>
    <g id="xtick_3">
     <g id="line2d_9">
      <path clip-path="url(#pa24ac62498)" d="M 214.433143 294.88 
L 214.433143 24.84 
" style="fill:none;stroke:#b0b0b0;stroke-linecap:square;stroke-width:0.8;"/>
     </g>
     <g id="line2d_10">
      <g>
       <use style="stroke:#000000;stroke-width:0.8;" x="214.433143" xlink:href="#ma8c1b41195" y="294.88"/>
      </g>
     </g>
     <g id="text_3">
      <!-- 4 -->
      <defs>
       <path d="M 37.796875 64.3125 
L 12.890625 25.390625 
L 37.796875 25.390625 
z
M 35.203125 72.90625 
L 47.609375 72.90625 
L 47.609375 25.390625 
L 58.015625 25.390625 
L 58.015625 17.1875 
L 47.609375 17.1875 
L 47.609375 0 
L 37.796875 0 
L 37.796875 17.1875 
L 4.890625 17.1875 
L 4.890625 26.703125 
z
" id="DejaVuSans-34"/>
      </defs>
      <g transform="translate(208.070643 317.076875)scale(0.2 -0.2)">
       <use xlink:href="#DejaVuSans-34"/>
      </g>
     </g>
    </g>
    <g id="xtick_4">
     <g id="line2d_11">
      <path clip-path="url(#pa24ac62498)" d="M 293.589714 294.88 
L 293.589714 24.84 
" style="fill:none;stroke:#b0b0b0;stroke-linecap:square;stroke-width:0.8;"/>
     </g>
     <g id="line2d_12">
      <g>
       <use style="stroke:#000000;stroke-width:0.8;" x="293.589714" xlink:href="#ma8c1b41195" y="294.88"/>
      </g>
     </g>
     <g id="text_4">
      <!-- 6 -->
      <defs>
       <path d="M 33.015625 40.375 
Q 26.375 40.375 22.484375 35.828125 
Q 18.609375 31.296875 18.609375 23.390625 
Q 18.609375 15.53125 22.484375 10.953125 
Q 26.375 6.390625 33.015625 6.390625 
Q 39.65625 6.390625 43.53125 10.953125 
Q 47.40625 15.53125 47.40625 23.390625 
Q 47.40625 31.296875 43.53125 35.828125 
Q 39.65625 40.375 33.015625 40.375 
z
M 52.59375 71.296875 
L 52.59375 62.3125 
Q 48.875 64.0625 45.09375 64.984375 
Q 41.3125 65.921875 37.59375 65.921875 
Q 27.828125 65.921875 22.671875 59.328125 
Q 17.53125 52.734375 16.796875 39.40625 
Q 19.671875 43.65625 24.015625 45.921875 
Q 28.375 48.1875 33.59375 48.1875 
Q 44.578125 48.1875 50.953125 41.515625 
Q 57.328125 34.859375 57.328125 23.390625 
Q 57.328125 12.15625 50.6875 5.359375 
Q 44.046875 -1.421875 33.015625 -1.421875 
Q 20.359375 -1.421875 13.671875 8.265625 
Q 6.984375 17.96875 6.984375 36.375 
Q 6.984375 53.65625 15.1875 63.9375 
Q 23.390625 74.21875 37.203125 74.21875 
Q 40.921875 74.21875 44.703125 73.484375 
Q 48.484375 72.75 52.59375 71.296875 
z
" id="DejaVuSans-36"/>
      </defs>
      <g transform="translate(287.227214 317.076875)scale(0.2 -0.2)">
       <use xlink:href="#DejaVuSans-36"/>
      </g>
     </g>
    </g>
    <g id="xtick_5">
     <g id="line2d_13">
      <path clip-path="url(#pa24ac62498)" d="M 56.12 294.88 
L 56.12 24.84 
" style="fill:none;stroke:#b0b0b0;stroke-linecap:square;stroke-width:0.8;"/>
     </g>
     <g id="line2d_14">
      <defs>
       <path d="M 0 0 
L 0 2 
" id="m536baa5229" style="stroke:#000000;stroke-width:0.6;"/>
      </defs>
      <g>
       <use style="stroke:#000000;stroke-width:0.6;" x="56.12" xlink:href="#m536baa5229" y="294.88"/>
      </g>
     </g>
    </g>
    <g id="xtick_6">
     <g id="line2d_15">
      <path clip-path="url(#pa24ac62498)" d="M 95.698286 294.88 
L 95.698286 24.84 
" style="fill:none;stroke:#b0b0b0;stroke-linecap:square;stroke-width:0.8;"/>
     </g>
     <g id="line2d_16">
      <g>
       <use style="stroke:#000000;stroke-width:0.6;" x="95.698286" xlink:href="#m536baa5229" y="294.88"/>
      </g>
     </g>
    </g>
    <g id="xtick_7">
     <g id="line2d_17">
      <path clip-path="url(#pa24ac62498)" d="M 135.276571 294.88 
L 135.276571 24.84 
" style="fill:none;stroke:#b0b0b0;stroke-linecap:square;stroke-width:0.8;"/>
     </g>
     <g id="line2d_18">
      <g>
       <use style="stroke:#000000;stroke-width:0.6;" x="135.276571" xlink:href="#m536baa5229" y="294.88"/>
      </g>
     </g>
    </g>
    <g id="xtick_8">
     <g id="line2d_19">
      <path clip-path="url(#pa24ac62498)" d="M 174.854857 294.88 
L 174.854857 24.84 
" style="fill:none;stroke:#b0b0b0;stroke-linecap:square;stroke-width:0.8;"/>
     </g>
     <g id="line2d_20">
      <g>
       <use style="stroke:#000000;stroke-width:0.6;" x="174.854857" xlink:href="#m536baa5229" y="294.88"/>
      </g>
     </g>
    </g>
    <g id="xtick_9">
     <g id="line2d_21">
      <path clip-path="url(#pa24ac62498)" d="M 214.433143 294.88 
L 214.433143 24.84 
" style="fill:none;stroke:#b0b0b0;stroke-linecap:square;stroke-width:0.8;"/>
     </g>
     <g id="line2d_22">
      <g>
       <use style="stroke:#000000;stroke-width:0.6;" x="214.433143" xlink:href="#m536baa5229" y="294.88"/>
      </g>
     </g>
    </g>
    <g id="xtick_10">
     <g id="line2d_23">
      <path clip-path="url(#pa24ac62498)" d="M 254.011429 294.88 
L 254.011429 24.84 
" style="fill:none;stroke:#b0b0b0;stroke-linecap:square;stroke-width:0.8;"/>
     </g>
     <g id="line2d_24">
      <g>
       <use style="stroke:#000000;stroke-width:0.6;" x="254.011429" xlink:href="#m536baa5229" y="294.88"/>
      </g>
     </g>
    </g>
    <g id="xtick_11">
     <g id="line2d_25">
      <path clip-path="url(#pa24ac62498)" d="M 293.589714 294.88 
L 293.589714 24.84 
" style="fill:none;stroke:#b0b0b0;stroke-linecap:square;stroke-width:0.8;"/>
     </g>
     <g id="line2d_26">
      <g>
       <use style="stroke:#000000;stroke-width:0.6;" x="293.589714" xlink:href="#m536baa5229" y="294.88"/>
      </g>
     </g>
    </g>
    <g id="xtick_12">
     <g id="line2d_27">
      <path clip-path="url(#pa24ac62498)" d="M 333.168 294.88 
L 333.168 24.84 
" style="fill:none;stroke:#b0b0b0;stroke-linecap:square;stroke-width:0.8;"/>
     </g>
     <g id="line2d_28">
      <g>
       <use style="stroke:#000000;stroke-width:0.6;" x="333.168" xlink:href="#m536baa5229" y="294.88"/>
      </g>
     </g>
    </g>
    <g id="text_5">
     <!-- log10(# f-evals / dimension) -->
     <defs>
      <path d="M 9.421875 75.984375 
L 18.40625 75.984375 
L 18.40625 0 
L 9.421875 0 
z
" id="DejaVuSans-6c"/>
      <path d="M 30.609375 48.390625 
Q 23.390625 48.390625 19.1875 42.75 
Q 14.984375 37.109375 14.984375 27.296875 
Q 14.984375 17.484375 19.15625 11.84375 
Q 23.34375 6.203125 30.609375 6.203125 
Q 37.796875 6.203125 41.984375 11.859375 
Q 46.1875 17.53125 46.1875 27.296875 
Q 46.1875 37.015625 41.984375 42.703125 
Q 37.796875 48.390625 30.609375 48.390625 
z
M 30.609375 56 
Q 42.328125 56 49.015625 48.375 
Q 55.71875 40.765625 55.71875 27.296875 
Q 55.71875 13.875 49.015625 6.21875 
Q 42.328125 -1.421875 30.609375 -1.421875 
Q 18.84375 -1.421875 12.171875 6.21875 
Q 5.515625 13.875 5.515625 27.296875 
Q 5.515625 40.765625 12.171875 48.375 
Q 18.84375 56 30.609375 56 
z
" id="DejaVuSans-6f"/>
      <path d="M 45.40625 27.984375 
Q 45.40625 37.75 41.375 43.109375 
Q 37.359375 48.484375 30.078125 48.484375 
Q 22.859375 48.484375 18.828125 43.109375 
Q 14.796875 37.75 14.796875 27.984375 
Q 14.796875 18.265625 18.828125 12.890625 
Q 22.859375 7.515625 30.078125 7.515625 
Q 37.359375 7.515625 41.375 12.890625 
Q 45.40625 18.265625 45.40625 27.984375 
z
M 54.390625 6.78125 
Q 54.390625 -7.171875 48.1875 -13.984375 
Q 42 -20.796875 29.203125 -20.796875 
Q 24.46875 -20.796875 20.265625 -20.09375 
Q 16.0625 -19.390625 12.109375 -17.921875 
L 12.109375 -9.1875 
Q 16.0625 -11.328125 19.921875 -12.34375 
Q 23.78125 -13.375 27.78125 -13.375 
Q 36.625 -13.375 41.015625 -8.765625 
Q 45.40625 -4.15625 45.40625 5.171875 
L 45.40625 9.625 
Q 42.625 4.78125 38.28125 2.390625 
Q 33.9375 0 27.875 0 
Q 17.828125 0 11.671875 7.65625 
Q 5.515625 15.328125 5.515625 27.984375 
Q 5.515625 40.671875 11.671875 48.328125 
Q 17.828125 56 27.875 56 
Q 33.9375 56 38.28125 53.609375 
Q 42.625 51.21875 45.40625 46.390625 
L 45.40625 54.6875 
L 54.390625 54.6875 
z
" id="DejaVuSans-67"/>
      <path d="M 12.40625 8.296875 
L 28.515625 8.296875 
L 28.515625 63.921875 
L 10.984375 60.40625 
L 10.984375 69.390625 
L 28.421875 72.90625 
L 38.28125 72.90625 
L 38.28125 8.296875 
L 54.390625 8.296875 
L 54.390625 0 
L 12.40625 0 
z
" id="DejaVuSans-31"/>
      <path d="M 31 75.875 
Q 24.46875 64.65625 21.28125 53.65625 
Q 18.109375 42.671875 18.109375 31.390625 
Q 18.109375 20.125 21.3125 9.0625 
Q 24.515625 -2 31 -13.1875 
L 23.1875 -13.1875 
Q 15.875 -1.703125 12.234375 9.375 
Q 8.59375 20.453125 8.59375 31.390625 
Q 8.59375 42.28125 12.203125 53.3125 
Q 15.828125 64.359375 23.1875 75.875 
z
" id="DejaVuSans-28"/>
      <path d="M 51.125 44 
L 36.921875 44 
L 32.8125 27.6875 
L 47.125 27.6875 
z
M 43.796875 71.78125 
L 38.71875 51.515625 
L 52.984375 51.515625 
L 58.109375 71.78125 
L 65.921875 71.78125 
L 60.890625 51.515625 
L 76.125 51.515625 
L 76.125 44 
L 58.984375 44 
L 54.984375 27.6875 
L 70.515625 27.6875 
L 70.515625 20.21875 
L 53.078125 20.21875 
L 48 0 
L 40.1875 0 
L 45.21875 20.21875 
L 30.90625 20.21875 
L 25.875 0 
L 18.015625 0 
L 23.09375 20.21875 
L 7.71875 20.21875 
L 7.71875 27.6875 
L 24.90625 27.6875 
L 29 44 
L 13.28125 44 
L 13.28125 51.515625 
L 30.90625 51.515625 
L 35.890625 71.78125 
z
" id="DejaVuSans-23"/>
      <path id="DejaVuSans-20"/>
      <path d="M 37.109375 75.984375 
L 37.109375 68.5 
L 28.515625 68.5 
Q 23.6875 68.5 21.796875 66.546875 
Q 19.921875 64.59375 19.921875 59.515625 
L 19.921875 54.6875 
L 34.71875 54.6875 
L 34.71875 47.703125 
L 19.921875 47.703125 
L 19.921875 0 
L 10.890625 0 
L 10.890625 47.703125 
L 2.296875 47.703125 
L 2.296875 54.6875 
L 10.890625 54.6875 
L 10.890625 58.5 
Q 10.890625 67.625 15.140625 71.796875 
Q 19.390625 75.984375 28.609375 75.984375 
z
" id="DejaVuSans-66"/>
      <path d="M 4.890625 31.390625 
L 31.203125 31.390625 
L 31.203125 23.390625 
L 4.890625 23.390625 
z
" id="DejaVuSans-2d"/>
      <path d="M 56.203125 29.59375 
L 56.203125 25.203125 
L 14.890625 25.203125 
Q 15.484375 15.921875 20.484375 11.0625 
Q 25.484375 6.203125 34.421875 6.203125 
Q 39.59375 6.203125 44.453125 7.46875 
Q 49.3125 8.734375 54.109375 11.28125 
L 54.109375 2.78125 
Q 49.265625 0.734375 44.1875 -0.34375 
Q 39.109375 -1.421875 33.890625 -1.421875 
Q 20.796875 -1.421875 13.15625 6.1875 
Q 5.515625 13.8125 5.515625 26.8125 
Q 5.515625 40.234375 12.765625 48.109375 
Q 20.015625 56 32.328125 56 
Q 43.359375 56 49.78125 48.890625 
Q 56.203125 41.796875 56.203125 29.59375 
z
M 47.21875 32.234375 
Q 47.125 39.59375 43.09375 43.984375 
Q 39.0625 48.390625 32.421875 48.390625 
Q 24.90625 48.390625 20.390625 44.140625 
Q 15.875 39.890625 15.1875 32.171875 
z
" id="DejaVuSans-65"/>
      <path d="M 2.984375 54.6875 
L 12.5 54.6875 
L 29.59375 8.796875 
L 46.6875 54.6875 
L 56.203125 54.6875 
L 35.6875 0 
L 23.484375 0 
z
" id="DejaVuSans-76"/>
      <path d="M 34.28125 27.484375 
Q 23.390625 27.484375 19.1875 25 
Q 14.984375 22.515625 14.984375 16.5 
Q 14.984375 11.71875 18.140625 8.90625 
Q 21.296875 6.109375 26.703125 6.109375 
Q 34.1875 6.109375 38.703125 11.40625 
Q 43.21875 16.703125 43.21875 25.484375 
L 43.21875 27.484375 
z
M 52.203125 31.203125 
L 52.203125 0 
L 43.21875 0 
L 43.21875 8.296875 
Q 40.140625 3.328125 35.546875 0.953125 
Q 30.953125 -1.421875 24.3125 -1.421875 
Q 15.921875 -1.421875 10.953125 3.296875 
Q 6 8.015625 6 15.921875 
Q 6 25.140625 12.171875 29.828125 
Q 18.359375 34.515625 30.609375 34.515625 
L 43.21875 34.515625 
L 43.21875 35.40625 
Q 43.21875 41.609375 39.140625 45 
Q 35.0625 48.390625 27.6875 48.390625 
Q 23 48.390625 18.546875 47.265625 
Q 14.109375 46.140625 10.015625 43.890625 
L 10.015625 52.203125 
Q 14.9375 54.109375 19.578125 55.046875 
Q 24.21875 56 28.609375 56 
Q 40.484375 56 46.34375 49.84375 
Q 52.203125 43.703125 52.203125 31.203125 
z
" id="DejaVuSans-61"/>
      <path d="M 44.28125 53.078125 
L 44.28125 44.578125 
Q 40.484375 46.53125 36.375 47.5 
Q 32.28125 48.484375 27.875 48.484375 
Q 21.1875 48.484375 17.84375 46.4375 
Q 14.5 44.390625 14.5 40.28125 
Q 14.5 37.15625 16.890625 35.375 
Q 19.28125 33.59375 26.515625 31.984375 
L 29.59375 31.296875 
Q 39.15625 29.25 43.1875 25.515625 
Q 47.21875 21.78125 47.21875 15.09375 
Q 47.21875 7.46875 41.1875 3.015625 
Q 35.15625 -1.421875 24.609375 -1.421875 
Q 20.21875 -1.421875 15.453125 -0.5625 
Q 10.6875 0.296875 5.421875 2 
L 5.421875 11.28125 
Q 10.40625 8.6875 15.234375 7.390625 
Q 20.0625 6.109375 24.8125 6.109375 
Q 31.15625 6.109375 34.5625 8.28125 
Q 37.984375 10.453125 37.984375 14.40625 
Q 37.984375 18.0625 35.515625 20.015625 
Q 33.0625 21.96875 24.703125 23.78125 
L 21.578125 24.515625 
Q 13.234375 26.265625 9.515625 29.90625 
Q 5.8125 33.546875 5.8125 39.890625 
Q 5.8125 47.609375 11.28125 51.796875 
Q 16.75 56 26.8125 56 
Q 31.78125 56 36.171875 55.265625 
Q 40.578125 54.546875 44.28125 53.078125 
z
" id="DejaVuSans-73"/>
      <path d="M 25.390625 72.90625 
L 33.6875 72.90625 
L 8.296875 -9.28125 
L 0 -9.28125 
z
" id="DejaVuSans-2f"/>
      <path d="M 45.40625 46.390625 
L 45.40625 75.984375 
L 54.390625 75.984375 
L 54.390625 0 
L 45.40625 0 
L 45.40625 8.203125 
Q 42.578125 3.328125 38.25 0.953125 
Q 33.9375 -1.421875 27.875 -1.421875 
Q 17.96875 -1.421875 11.734375 6.484375 
Q 5.515625 14.40625 5.515625 27.296875 
Q 5.515625 40.1875 11.734375 48.09375 
Q 17.96875 56 27.875 56 
Q 33.9375 56 38.25 53.625 
Q 42.578125 51.265625 45.40625 46.390625 
z
M 14.796875 27.296875 
Q 14.796875 17.390625 18.875 11.75 
Q 22.953125 6.109375 30.078125 6.109375 
Q 37.203125 6.109375 41.296875 11.75 
Q 45.40625 17.390625 45.40625 27.296875 
Q 45.40625 37.203125 41.296875 42.84375 
Q 37.203125 48.484375 30.078125 48.484375 
Q 22.953125 48.484375 18.875 42.84375 
Q 14.796875 37.203125 14.796875 27.296875 
z
" id="DejaVuSans-64"/>
      <path d="M 9.421875 54.6875 
L 18.40625 54.6875 
L 18.40625 0 
L 9.421875 0 
z
M 9.421875 75.984375 
L 18.40625 75.984375 
L 18.40625 64.59375 
L 9.421875 64.59375 
z
" id="DejaVuSans-69"/>
      <path d="M 52 44.1875 
Q 55.375 50.25 60.0625 53.125 
Q 64.75 56 71.09375 56 
Q 79.640625 56 84.28125 50.015625 
Q 88.921875 44.046875 88.921875 33.015625 
L 88.921875 0 
L 79.890625 0 
L 79.890625 32.71875 
Q 79.890625 40.578125 77.09375 44.375 
Q 74.3125 48.1875 68.609375 48.1875 
Q 61.625 48.1875 57.5625 43.546875 
Q 53.515625 38.921875 53.515625 30.90625 
L 53.515625 0 
L 44.484375 0 
L 44.484375 32.71875 
Q 44.484375 40.625 41.703125 44.40625 
Q 38.921875 48.1875 33.109375 48.1875 
Q 26.21875 48.1875 22.15625 43.53125 
Q 18.109375 38.875 18.109375 30.90625 
L 18.109375 0 
L 9.078125 0 
L 9.078125 54.6875 
L 18.109375 54.6875 
L 18.109375 46.1875 
Q 21.1875 51.21875 25.484375 53.609375 
Q 29.78125 56 35.6875 56 
Q 41.65625 56 45.828125 52.96875 
Q 50 49.953125 52 44.1875 
z
" id="DejaVuSans-6d"/>
      <path d="M 54.890625 33.015625 
L 54.890625 0 
L 45.90625 0 
L 45.90625 32.71875 
Q 45.90625 40.484375 42.875 44.328125 
Q 39.84375 48.1875 33.796875 48.1875 
Q 26.515625 48.1875 22.3125 43.546875 
Q 18.109375 38.921875 18.109375 30.90625 
L 18.109375 0 
L 9.078125 0 
L 9.078125 54.6875 
L 18.109375 54.6875 
L 18.109375 46.1875 
Q 21.34375 51.125 25.703125 53.5625 
Q 30.078125 56 35.796875 56 
Q 45.21875 56 50.046875 50.171875 
Q 54.890625 44.34375 54.890625 33.015625 
z
" id="DejaVuSans-6e"/>
      <path d="M 8.015625 75.875 
L 15.828125 75.875 
Q 23.140625 64.359375 26.78125 53.3125 
Q 30.421875 42.28125 30.421875 31.390625 
Q 30.421875 20.453125 26.78125 9.375 
Q 23.140625 -1.703125 15.828125 -13.1875 
L 8.015625 -13.1875 
Q 14.5 -2 17.703125 9.0625 
Q 20.90625 20.125 20.90625 31.390625 
Q 20.90625 42.671875 17.703125 53.65625 
Q 14.5 64.65625 8.015625 75.875 
z
" id="DejaVuSans-29"/>
     </defs>
     <g transform="translate(73.803219 338.153594)scale(0.17 -0.17)">
      <use xlink:href="#DejaVuSans-6c"/>
      <use x="27.783203" xlink:href="#DejaVuSans-6f"/>
      <use x="88.964844" xlink:href="#DejaVuSans-67"/>
      <use x="152.441406" xlink:href="#DejaVuSans-31"/>
      <use x="216.064453" xlink:href="#DejaVuSans-30"/>
      <use x="279.6875" xlink:href="#DejaVuSans-28"/>
      <use x="318.701172" xlink:href="#DejaVuSans-23"/>
      <use x="402.490234" xlink:href="#DejaVuSans-20"/>
      <use x="434.277344" xlink:href="#DejaVuSans-66"/>
      <use x="469.404297" xlink:href="#DejaVuSans-2d"/>
      <use x="505.488281" xlink:href="#DejaVuSans-65"/>
      <use x="567.011719" xlink:href="#DejaVuSans-76"/>
      <use x="626.191406" xlink:href="#DejaVuSans-61"/>
      <use x="687.470703" xlink:href="#DejaVuSans-6c"/>
      <use x="715.253906" xlink:href="#DejaVuSans-73"/>
      <use x="767.353516" xlink:href="#DejaVuSans-20"/>
      <use x="799.140625" xlink:href="#DejaVuSans-2f"/>
      <use x="832.832031" xlink:href="#DejaVuSans-20"/>
      <use x="864.619141" xlink:href="#DejaVuSans-64"/>
      <use x="928.095703" xlink:href="#DejaVuSans-69"/>
      <use x="955.878906" xlink:href="#DejaVuSans-6d"/>
      <use x="1053.291016" xlink:href="#DejaVuSans-65"/>
      <use x="1114.814453" xlink:href="#DejaVuSans-6e"/>
      <use x="1178.193359" xlink:href="#DejaVuSans-73"/>
      <use x="1230.292969" xlink:href="#DejaVuSans-69"/>
      <use x="1258.076172" xlink:href="#DejaVuSans-6f"/>
      <use x="1319.257812" xlink:href="#DejaVuSans-6e"/>
      <use x="1382.636719" xlink:href="#DejaVuSans-29"/>
     </g>
    </g>
   </g>
   <g id="matplotlib.axis_2">
    <g id="ytick_1">
     <g id="line2d_29">
      <path clip-path="url(#pa24ac62498)" d="M 56.12 294.88 
L 333.168 294.88 
" style="fill:none;stroke:#b0b0b0;stroke-linecap:square;stroke-width:0.8;"/>
     </g>
     <g id="line2d_30">
      <defs>
       <path d="M 0 0 
L -3.5 0 
" id="m9ad150b0bb" style="stroke:#000000;stroke-width:0.8;"/>
      </defs>
      <g>
       <use style="stroke:#000000;stroke-width:0.8;" x="56.12" xlink:href="#m9ad150b0bb" y="294.88"/>
      </g>
     </g>
     <g id="text_6">
      <!-- 0.0 -->
      <defs>
       <path d="M 10.6875 12.40625 
L 21 12.40625 
L 21 0 
L 10.6875 0 
z
" id="DejaVuSans-2e"/>
      </defs>
      <g transform="translate(23.675 300.95875)scale(0.16 -0.16)">
       <use xlink:href="#DejaVuSans-30"/>
       <use x="63.623047" xlink:href="#DejaVuSans-2e"/>
       <use x="95.410156" xlink:href="#DejaVuSans-30"/>
      </g>
     </g>
    </g>
    <g id="ytick_2">
     <g id="line2d_31">
      <path clip-path="url(#pa24ac62498)" d="M 56.12 241.406733 
L 333.168 241.406733 
" style="fill:none;stroke:#b0b0b0;stroke-linecap:square;stroke-width:0.8;"/>
     </g>
     <g id="line2d_32">
      <g>
       <use style="stroke:#000000;stroke-width:0.8;" x="56.12" xlink:href="#m9ad150b0bb" y="241.406733"/>
      </g>
     </g>
     <g id="text_7">
      <!-- 0.2 -->
      <g transform="translate(23.675 247.485483)scale(0.16 -0.16)">
       <use xlink:href="#DejaVuSans-30"/>
       <use x="63.623047" xlink:href="#DejaVuSans-2e"/>
       <use x="95.410156" xlink:href="#DejaVuSans-32"/>
      </g>
     </g>
    </g>
    <g id="ytick_3">
     <g id="line2d_33">
      <path clip-path="url(#pa24ac62498)" d="M 56.12 187.933465 
L 333.168 187.933465 
" style="fill:none;stroke:#b0b0b0;stroke-linecap:square;stroke-width:0.8;"/>
     </g>
     <g id="line2d_34">
      <g>
       <use style="stroke:#000000;stroke-width:0.8;" x="56.12" xlink:href="#m9ad150b0bb" y="187.933465"/>
      </g>
     </g>
     <g id="text_8">
      <!-- 0.4 -->
      <g transform="translate(23.675 194.012215)scale(0.16 -0.16)">
       <use xlink:href="#DejaVuSans-30"/>
       <use x="63.623047" xlink:href="#DejaVuSans-2e"/>
       <use x="95.410156" xlink:href="#DejaVuSans-34"/>
      </g>
     </g>
    </g>
    <g id="ytick_4">
     <g id="line2d_35">
      <path clip-path="url(#pa24ac62498)" d="M 56.12 134.460198 
L 333.168 134.460198 
" style="fill:none;stroke:#b0b0b0;stroke-linecap:square;stroke-width:0.8;"/>
     </g>
     <g id="line2d_36">
      <g>
       <use style="stroke:#000000;stroke-width:0.8;" x="56.12" xlink:href="#m9ad150b0bb" y="134.460198"/>
      </g>
     </g>
     <g id="text_9">
      <!-- 0.6 -->
      <g transform="translate(23.675 140.538948)scale(0.16 -0.16)">
       <use xlink:href="#DejaVuSans-30"/>
       <use x="63.623047" xlink:href="#DejaVuSans-2e"/>
       <use x="95.410156" xlink:href="#DejaVuSans-36"/>
      </g>
     </g>
    </g>
    <g id="ytick_5">
     <g id="line2d_37">
      <path clip-path="url(#pa24ac62498)" d="M 56.12 80.986931 
L 333.168 80.986931 
" style="fill:none;stroke:#b0b0b0;stroke-linecap:square;stroke-width:0.8;"/>
     </g>
     <g id="line2d_38">
      <g>
       <use style="stroke:#000000;stroke-width:0.8;" x="56.12" xlink:href="#m9ad150b0bb" y="80.986931"/>
      </g>
     </g>
     <g id="text_10">
      <!-- 0.8 -->
      <defs>
       <path d="M 31.78125 34.625 
Q 24.75 34.625 20.71875 30.859375 
Q 16.703125 27.09375 16.703125 20.515625 
Q 16.703125 13.921875 20.71875 10.15625 
Q 24.75 6.390625 31.78125 6.390625 
Q 38.8125 6.390625 42.859375 10.171875 
Q 46.921875 13.96875 46.921875 20.515625 
Q 46.921875 27.09375 42.890625 30.859375 
Q 38.875 34.625 31.78125 34.625 
z
M 21.921875 38.8125 
Q 15.578125 40.375 12.03125 44.71875 
Q 8.5 49.078125 8.5 55.328125 
Q 8.5 64.0625 14.71875 69.140625 
Q 20.953125 74.21875 31.78125 74.21875 
Q 42.671875 74.21875 48.875 69.140625 
Q 55.078125 64.0625 55.078125 55.328125 
Q 55.078125 49.078125 51.53125 44.71875 
Q 48 40.375 41.703125 38.8125 
Q 48.828125 37.15625 52.796875 32.3125 
Q 56.78125 27.484375 56.78125 20.515625 
Q 56.78125 9.90625 50.3125 4.234375 
Q 43.84375 -1.421875 31.78125 -1.421875 
Q 19.734375 -1.421875 13.25 4.234375 
Q 6.78125 9.90625 6.78125 20.515625 
Q 6.78125 27.484375 10.78125 32.3125 
Q 14.796875 37.15625 21.921875 38.8125 
z
M 18.3125 54.390625 
Q 18.3125 48.734375 21.84375 45.5625 
Q 25.390625 42.390625 31.78125 42.390625 
Q 38.140625 42.390625 41.71875 45.5625 
Q 45.3125 48.734375 45.3125 54.390625 
Q 45.3125 60.0625 41.71875 63.234375 
Q 38.140625 66.40625 31.78125 66.40625 
Q 25.390625 66.40625 21.84375 63.234375 
Q 18.3125 60.0625 18.3125 54.390625 
z
" id="DejaVuSans-38"/>
      </defs>
      <g transform="translate(23.675 87.065681)scale(0.16 -0.16)">
       <use xlink:href="#DejaVuSans-30"/>
       <use x="63.623047" xlink:href="#DejaVuSans-2e"/>
       <use x="95.410156" xlink:href="#DejaVuSans-38"/>
      </g>
     </g>
    </g>
    <g id="ytick_6">
     <g id="line2d_39">
      <path clip-path="url(#pa24ac62498)" d="M 56.12 27.513663 
L 333.168 27.513663 
" style="fill:none;stroke:#b0b0b0;stroke-linecap:square;stroke-width:0.8;"/>
     </g>
     <g id="line2d_40">
      <g>
       <use style="stroke:#000000;stroke-width:0.8;" x="56.12" xlink:href="#m9ad150b0bb" y="27.513663"/>
      </g>
     </g>
     <g id="text_11">
      <!-- 1.0 -->
      <g transform="translate(23.675 33.592413)scale(0.16 -0.16)">
       <use xlink:href="#DejaVuSans-31"/>
       <use x="63.623047" xlink:href="#DejaVuSans-2e"/>
       <use x="95.410156" xlink:href="#DejaVuSans-30"/>
      </g>
     </g>
    </g>
    <g id="text_12">
     <!-- Fraction of function,target pairs -->
     <defs>
      <path d="M 9.8125 72.90625 
L 51.703125 72.90625 
L 51.703125 64.59375 
L 19.671875 64.59375 
L 19.671875 43.109375 
L 48.578125 43.109375 
L 48.578125 34.8125 
L 19.671875 34.8125 
L 19.671875 0 
L 9.8125 0 
z
" id="DejaVuSans-46"/>
      <path d="M 41.109375 46.296875 
Q 39.59375 47.171875 37.8125 47.578125 
Q 36.03125 48 33.890625 48 
Q 26.265625 48 22.1875 43.046875 
Q 18.109375 38.09375 18.109375 28.8125 
L 18.109375 0 
L 9.078125 0 
L 9.078125 54.6875 
L 18.109375 54.6875 
L 18.109375 46.1875 
Q 20.953125 51.171875 25.484375 53.578125 
Q 30.03125 56 36.53125 56 
Q 37.453125 56 38.578125 55.875 
Q 39.703125 55.765625 41.0625 55.515625 
z
" id="DejaVuSans-72"/>
      <path d="M 48.78125 52.59375 
L 48.78125 44.1875 
Q 44.96875 46.296875 41.140625 47.34375 
Q 37.3125 48.390625 33.40625 48.390625 
Q 24.65625 48.390625 19.8125 42.84375 
Q 14.984375 37.3125 14.984375 27.296875 
Q 14.984375 17.28125 19.8125 11.734375 
Q 24.65625 6.203125 33.40625 6.203125 
Q 37.3125 6.203125 41.140625 7.25 
Q 44.96875 8.296875 48.78125 10.40625 
L 48.78125 2.09375 
Q 45.015625 0.34375 40.984375 -0.53125 
Q 36.96875 -1.421875 32.421875 -1.421875 
Q 20.0625 -1.421875 12.78125 6.34375 
Q 5.515625 14.109375 5.515625 27.296875 
Q 5.515625 40.671875 12.859375 48.328125 
Q 20.21875 56 33.015625 56 
Q 37.15625 56 41.109375 55.140625 
Q 45.0625 54.296875 48.78125 52.59375 
z
" id="DejaVuSans-63"/>
      <path d="M 18.3125 70.21875 
L 18.3125 54.6875 
L 36.8125 54.6875 
L 36.8125 47.703125 
L 18.3125 47.703125 
L 18.3125 18.015625 
Q 18.3125 11.328125 20.140625 9.421875 
Q 21.96875 7.515625 27.59375 7.515625 
L 36.8125 7.515625 
L 36.8125 0 
L 27.59375 0 
Q 17.1875 0 13.234375 3.875 
Q 9.28125 7.765625 9.28125 18.015625 
L 9.28125 47.703125 
L 2.6875 47.703125 
L 2.6875 54.6875 
L 9.28125 54.6875 
L 9.28125 70.21875 
z
" id="DejaVuSans-74"/>
      <path d="M 8.5 21.578125 
L 8.5 54.6875 
L 17.484375 54.6875 
L 17.484375 21.921875 
Q 17.484375 14.15625 20.5 10.265625 
Q 23.53125 6.390625 29.59375 6.390625 
Q 36.859375 6.390625 41.078125 11.03125 
Q 45.3125 15.671875 45.3125 23.6875 
L 45.3125 54.6875 
L 54.296875 54.6875 
L 54.296875 0 
L 45.3125 0 
L 45.3125 8.40625 
Q 42.046875 3.421875 37.71875 1 
Q 33.40625 -1.421875 27.6875 -1.421875 
Q 18.265625 -1.421875 13.375 4.4375 
Q 8.5 10.296875 8.5 21.578125 
z
M 31.109375 56 
z
" id="DejaVuSans-75"/>
      <path d="M 11.71875 12.40625 
L 22.015625 12.40625 
L 22.015625 4 
L 14.015625 -11.625 
L 7.71875 -11.625 
L 11.71875 4 
z
" id="DejaVuSans-2c"/>
      <path d="M 18.109375 8.203125 
L 18.109375 -20.796875 
L 9.078125 -20.796875 
L 9.078125 54.6875 
L 18.109375 54.6875 
L 18.109375 46.390625 
Q 20.953125 51.265625 25.265625 53.625 
Q 29.59375 56 35.59375 56 
Q 45.5625 56 51.78125 48.09375 
Q 58.015625 40.1875 58.015625 27.296875 
Q 58.015625 14.40625 51.78125 6.484375 
Q 45.5625 -1.421875 35.59375 -1.421875 
Q 29.59375 -1.421875 25.265625 0.953125 
Q 20.953125 3.328125 18.109375 8.203125 
z
M 48.6875 27.296875 
Q 48.6875 37.203125 44.609375 42.84375 
Q 40.53125 48.484375 33.40625 48.484375 
Q 26.265625 48.484375 22.1875 42.84375 
Q 18.109375 37.203125 18.109375 27.296875 
Q 18.109375 17.390625 22.1875 11.75 
Q 26.265625 6.109375 33.40625 6.109375 
Q 40.53125 6.109375 44.609375 11.75 
Q 48.6875 17.390625 48.6875 27.296875 
z
" id="DejaVuSans-70"/>
     </defs>
     <g transform="translate(16.139531 294.999375)rotate(-90)scale(0.17 -0.17)">
      <use xlink:href="#DejaVuSans-46"/>
      <use x="57.410156" xlink:href="#DejaVuSans-72"/>
      <use x="98.523438" xlink:href="#DejaVuSans-61"/>
      <use x="159.802734" xlink:href="#DejaVuSans-63"/>
      <use x="214.783203" xlink:href="#DejaVuSans-74"/>
      <use x="253.992188" xlink:href="#DejaVuSans-69"/>
      <use x="281.775391" xlink:href="#DejaVuSans-6f"/>
      <use x="342.957031" xlink:href="#DejaVuSans-6e"/>
      <use x="406.335938" xlink:href="#DejaVuSans-20"/>
      <use x="438.123047" xlink:href="#DejaVuSans-6f"/>
      <use x="499.304688" xlink:href="#DejaVuSans-66"/>
      <use x="534.509766" xlink:href="#DejaVuSans-20"/>
      <use x="566.296875" xlink:href="#DejaVuSans-66"/>
      <use x="601.501953" xlink:href="#DejaVuSans-75"/>
      <use x="664.880859" xlink:href="#DejaVuSans-6e"/>
      <use x="728.259766" xlink:href="#DejaVuSans-63"/>
      <use x="783.240234" xlink:href="#DejaVuSans-74"/>
      <use x="822.449219" xlink:href="#DejaVuSans-69"/>
      <use x="850.232422" xlink:href="#DejaVuSans-6f"/>
      <use x="911.414062" xlink:href="#DejaVuSans-6e"/>
      <use x="974.792969" xlink:href="#DejaVuSans-2c"/>
      <use x="1006.580078" xlink:href="#DejaVuSans-74"/>
      <use x="1045.789062" xlink:href="#DejaVuSans-61"/>
      <use x="1107.068359" xlink:href="#DejaVuSans-72"/>
      <use x="1148.166016" xlink:href="#DejaVuSans-67"/>
      <use x="1211.642578" xlink:href="#DejaVuSans-65"/>
      <use x="1273.166016" xlink:href="#DejaVuSans-74"/>
      <use x="1312.375" xlink:href="#DejaVuSans-20"/>
      <use x="1344.162109" xlink:href="#DejaVuSans-70"/>
      <use x="1407.638672" xlink:href="#DejaVuSans-61"/>
      <use x="1468.917969" xlink:href="#DejaVuSans-69"/>
      <use x="1496.701172" xlink:href="#DejaVuSans-72"/>
      <use x="1537.814453" xlink:href="#DejaVuSans-73"/>
     </g>
    </g>
   </g>
   <g id="line2d_41">
    <defs>
     <path d="M 0 1.5 
C 0.397805 1.5 0.77937 1.341951 1.06066 1.06066 
C 1.341951 0.77937 1.5 0.397805 1.5 0 
C 1.5 -0.397805 1.341951 -0.77937 1.06066 -1.06066 
C 0.77937 -1.341951 0.397805 -1.5 0 -1.5 
C -0.397805 -1.5 -0.77937 -1.341951 -1.06066 -1.06066 
C -1.341951 -0.77937 -1.5 -0.397805 -1.5 0 
C -1.5 0.397805 -1.341951 0.77937 -1.06066 1.06066 
C -0.77937 1.341951 -0.397805 1.5 0 1.5 
z
" id="m0eebc538f1" style="stroke:#f5deb3;"/>
    </defs>
    <g>
     <use style="fill:#f5deb3;stroke:#f5deb3;" x="190.563338" xlink:href="#m0eebc538f1" y="27.513663"/>
     <use style="fill:#f5deb3;stroke:#f5deb3;" x="190.563338" xlink:href="#m0eebc538f1" y="27.513663"/>
    </g>
   </g>
   <g id="line2d_42">
    <defs>
     <path d="M 0 1.5 
C 0.397805 1.5 0.77937 1.341951 1.06066 1.06066 
C 1.341951 0.77937 1.5 0.397805 1.5 0 
C 1.5 -0.397805 1.341951 -0.77937 1.06066 -1.06066 
C 0.77937 -1.341951 0.397805 -1.5 0 -1.5 
C -0.397805 -1.5 -0.77937 -1.341951 -1.06066 -1.06066 
C -1.341951 -0.77937 -1.5 -0.397805 -1.5 0 
C -1.5 0.397805 -1.341951 0.77937 -1.06066 1.06066 
C -0.77937 1.341951 -0.397805 1.5 0 1.5 
z
" id="meb44b3a428" style="stroke:#000080;"/>
    </defs>
    <g>
     <use style="fill:#000080;stroke:#000080;" x="105.152829" xlink:href="#meb44b3a428" y="190.030456"/>
     <use style="fill:#000080;stroke:#000080;" x="105.152829" xlink:href="#meb44b3a428" y="190.030456"/>
    </g>
   </g>
   <g id="line2d_43">
    <path d="M 37.236359 294.88 
L 37.236359 221.485319 
L 78.452896 221.485319 
L 78.452896 219.388328 
L 79.948502 219.388328 
L 79.948502 217.291338 
L 81.324327 217.291338 
L 81.324327 215.718594 
L 82.598142 215.718594 
L 82.598142 214.145851 
L 83.784035 214.145851 
L 83.784035 211.524613 
L 84.893363 211.524613 
L 84.893363 208.903374 
L 85.935418 208.903374 
L 85.935418 206.806383 
L 86.917893 206.806383 
L 86.917893 202.612401 
L 87.847234 202.612401 
L 87.847234 202.088154 
L 88.728896 202.088154 
L 88.728896 201.563906 
L 89.567532 201.563906 
L 89.567532 201.039658 
L 90.367147 201.039658 
L 90.367147 199.991163 
L 91.131212 199.991163 
L 91.131212 198.41842 
L 91.862754 198.41842 
L 91.862754 196.845677 
L 92.564428 196.845677 
L 92.564428 196.321429 
L 93.238578 196.321429 
L 93.238578 195.797181 
L 94.512393 195.797181 
L 94.512393 195.272933 
L 95.115564 195.272933 
L 95.115564 194.224438 
L 97.849669 194.224438 
L 97.849669 193.70019 
L 99.761485 193.70019 
L 99.761485 193.175943 
L 101.067579 193.175943 
L 101.067579 191.603199 
L 102.667676 191.603199 
L 102.667676 191.078952 
L 103.045463 191.078952 
L 103.045463 190.554704 
L 105.152829 190.554704 
L 105.152829 190.030456 
L 333.168 190.030456 
" style="fill:none;stroke:#000080;stroke-linecap:square;stroke-width:1.5;"/>
   </g>
   <g id="line2d_44">
    <defs>
     <path d="M 0 6 
C 1.591219 6 3.117479 5.367802 4.242641 4.242641 
C 5.367802 3.117479 6 1.591219 6 0 
C 6 -1.591219 5.367802 -3.117479 4.242641 -4.242641 
C 3.117479 -5.367802 1.591219 -6 0 -6 
C -1.591219 -6 -3.117479 -5.367802 -4.242641 -4.242641 
C -5.367802 -3.117479 -6 -1.591219 -6 0 
C -6 1.591219 -5.367802 3.117479 -4.242641 4.242641 
C -3.117479 5.367802 -1.591219 6 0 6 
z
" id="mfa0680cbde" style="stroke:#000080;stroke-width:1.5;"/>
    </defs>
    <g>
     <use style="fill:none;stroke:#000080;stroke-width:1.5;" x="82.598142" xlink:href="#mfa0680cbde" y="214.145851"/>
     <use style="fill:none;stroke:#000080;stroke-width:1.5;" x="105.152829" xlink:href="#mfa0680cbde" y="190.554704"/>
     <use style="fill:none;stroke:#000080;stroke-width:1.5;" x="105.152829" xlink:href="#mfa0680cbde" y="190.030456"/>
     <use style="fill:none;stroke:#000080;stroke-width:1.5;" x="105.152829" xlink:href="#mfa0680cbde" y="190.030456"/>
     <use style="fill:none;stroke:#000080;stroke-width:1.5;" x="105.152829" xlink:href="#mfa0680cbde" y="190.030456"/>
     <use style="fill:none;stroke:#000080;stroke-width:1.5;" x="333.168" xlink:href="#mfa0680cbde" y="190.030456"/>
    </g>
   </g>
   <g id="line2d_45">
    <path style="fill:none;stroke:#000080;stroke-linecap:square;stroke-width:1.5;"/>
    <g/>
   </g>
   <g id="line2d_46">
    <path clip-path="url(#pa24ac62498)" d="M 106.426644 190.030456 
" style="fill:none;stroke:#000080;stroke-linecap:square;stroke-width:1.5;"/>
    <defs>
     <path d="M -12 12 
L 12 -12 
M -12 -12 
L 12 12 
" id="m3f9b66cc80" style="stroke:#000080;"/>
    </defs>
    <g clip-path="url(#pa24ac62498)">
     <use style="fill:#000080;stroke:#000080;" x="106.426644" xlink:href="#m3f9b66cc80" y="190.030456"/>
    </g>
   </g>
   <g id="line2d_47">
    <defs>
     <path d="M 0 1.5 
C 0.397805 1.5 0.77937 1.341951 1.06066 1.06066 
C 1.341951 0.77937 1.5 0.397805 1.5 0 
C 1.5 -0.397805 1.341951 -0.77937 1.06066 -1.06066 
C 0.77937 -1.341951 0.397805 -1.5 0 -1.5 
C -0.397805 -1.5 -0.77937 -1.341951 -1.06066 -1.06066 
C -1.341951 -0.77937 -1.5 -0.397805 -1.5 0 
C -1.5 0.397805 -1.341951 0.77937 -1.06066 1.06066 
C -0.77937 1.341951 -0.397805 1.5 0 1.5 
z
" id="m746227d068" style="stroke:#ff00ff;"/>
    </defs>
    <g>
     <use style="fill:#ff00ff;stroke:#ff00ff;" x="247.473177" xlink:href="#m746227d068" y="205.757888"/>
     <use style="fill:#ff00ff;stroke:#ff00ff;" x="247.473177" xlink:href="#m746227d068" y="205.757888"/>
    </g>
   </g>
   <g id="line2d_48">
    <path d="M 37.236359 294.88 
L 37.236359 267.094871 
L 49.15061 267.094871 
L 49.15061 264.99788 
L 56.12 264.99788 
L 56.12 258.706907 
L 61.064861 258.706907 
L 61.064861 253.988678 
L 64.900393 253.988678 
L 64.900393 252.415935 
L 68.034251 252.415935 
L 68.034251 251.891687 
L 70.68389 251.891687 
L 70.68389 251.367439 
L 72.979112 251.367439 
L 72.979112 249.794696 
L 75.003641 249.794696 
L 75.003641 247.173458 
L 78.452896 247.173458 
L 78.452896 245.600714 
L 79.948502 245.600714 
L 79.948502 244.027971 
L 81.324327 244.027971 
L 81.324327 243.503724 
L 103.777005 243.503724 
L 103.777005 242.455228 
L 115.691256 242.455228 
L 115.691256 241.93098 
L 121.034327 241.93098 
L 121.034327 241.406733 
L 121.16504 241.406733 
L 121.16504 240.358237 
L 131.152148 240.358237 
L 131.152148 239.309742 
L 134.455115 239.309742 
L 134.455115 238.785494 
L 138.410429 238.785494 
L 138.410429 238.261246 
L 141.060069 238.261246 
L 141.060069 236.688503 
L 144.664877 236.688503 
L 144.664877 236.164255 
L 152.433883 236.164255 
L 152.433883 235.640008 
L 155.05333 235.640008 
L 155.05333 235.11576 
L 166.074464 235.11576 
L 166.074464 234.591512 
L 166.302131 234.591512 
L 166.302131 233.543017 
L 166.940362 233.543017 
L 166.940362 233.018769 
L 167.183793 233.018769 
L 167.183793 232.494521 
L 167.397319 232.494521 
L 167.397319 231.970274 
L 167.712715 231.970274 
L 167.712715 230.921778 
L 170.672068 230.921778 
L 170.672068 230.397531 
L 173.334231 230.397531 
L 173.334231 229.873283 
L 176.049915 229.873283 
L 176.049915 228.30054 
L 178.216382 228.30054 
L 178.216382 227.776292 
L 178.49679 227.776292 
L 178.49679 226.727797 
L 179.240689 226.727797 
L 179.240689 226.203549 
L 179.373352 226.203549 
L 179.373352 225.679301 
L 179.987761 225.679301 
L 179.987761 225.155053 
L 181.593524 225.155053 
L 181.593524 224.630806 
L 185.148037 224.630806 
L 185.148037 224.106558 
L 185.398058 224.106558 
L 185.447628 222.533815 
L 186.700216 222.533815 
L 186.734697 221.485319 
L 190.604641 221.485319 
L 190.604641 220.961072 
L 190.931534 220.961072 
L 191.039131 219.912576 
L 193.661934 219.912576 
L 193.661934 219.388328 
L 195.542625 219.388328 
L 195.542625 218.864081 
L 197.062288 218.864081 
L 197.062288 218.339833 
L 198.803261 218.339833 
L 198.803261 217.815585 
L 200.753664 217.815585 
L 200.753664 217.291338 
L 201.145359 217.291338 
L 201.145359 216.76709 
L 203.879901 216.76709 
L 203.879901 216.242842 
L 206.762078 216.242842 
L 206.762078 215.718594 
L 208.213762 215.718594 
L 208.292564 214.670099 
L 209.724993 214.670099 
L 209.724993 214.145851 
L 211.370641 214.145851 
L 211.370641 213.621604 
L 213.074498 213.621604 
L 213.074498 213.097356 
L 218.55775 213.097356 
L 218.55775 212.573108 
L 219.750793 212.573108 
L 219.750793 212.04886 
L 221.190382 212.04886 
L 221.190382 211.524613 
L 222.64456 211.524613 
L 222.64456 211.000365 
L 225.823842 211.000365 
L 225.823842 210.476117 
L 226.538837 210.476117 
L 226.538837 209.95187 
L 226.981832 209.95187 
L 226.981832 209.427622 
L 227.235071 209.427622 
L 227.235071 208.903374 
L 231.16372 208.903374 
L 231.16372 208.379126 
L 235.982132 208.379126 
L 235.982132 207.854879 
L 240.056999 207.854879 
L 240.115738 206.806383 
L 247.45909 206.806383 
L 247.473177 205.757888 
L 333.168 205.757888 
L 333.168 205.757888 
" style="fill:none;stroke:#ff00ff;stroke-linecap:square;stroke-width:1.5;"/>
   </g>
   <g id="line2d_49">
    <defs>
     <path d="M -0 8.485281 
L 5.091169 0 
L 0 -8.485281 
L -5.091169 -0 
z
" id="mcb2e001cdc" style="stroke:#ff00ff;stroke-linejoin:miter;stroke-width:1.5;"/>
    </defs>
    <g>
     <use style="fill:none;stroke:#ff00ff;stroke-linejoin:miter;stroke-width:1.5;" x="115.691256" xlink:href="#mcb2e001cdc" y="242.455228"/>
     <use style="fill:none;stroke:#ff00ff;stroke-linejoin:miter;stroke-width:1.5;" x="201.145359" xlink:href="#mcb2e001cdc" y="216.76709"/>
     <use style="fill:none;stroke:#ff00ff;stroke-linejoin:miter;stroke-width:1.5;" x="247.473177" xlink:href="#mcb2e001cdc" y="206.282136"/>
     <use style="fill:none;stroke:#ff00ff;stroke-linejoin:miter;stroke-width:1.5;" x="247.473177" xlink:href="#mcb2e001cdc" y="205.757888"/>
     <use style="fill:none;stroke:#ff00ff;stroke-linejoin:miter;stroke-width:1.5;" x="333.168" xlink:href="#mcb2e001cdc" y="205.757888"/>
    </g>
   </g>
   <g id="line2d_50">
    <path style="fill:none;stroke:#ff00ff;stroke-linecap:square;stroke-width:1.5;"/>
    <g/>
   </g>
   <g id="line2d_51">
    <path clip-path="url(#pa24ac62498)" d="M 178.159748 228.30054 
" style="fill:none;stroke:#ff00ff;stroke-linecap:square;stroke-width:1.5;"/>
    <defs>
     <path d="M -12 12 
L 12 -12 
M -12 -12 
L 12 12 
" id="mbeb0121f05" style="stroke:#ff00ff;"/>
    </defs>
    <g clip-path="url(#pa24ac62498)">
     <use style="fill:#ff00ff;stroke:#ff00ff;" x="178.159748" xlink:href="#mbeb0121f05" y="228.30054"/>
    </g>
   </g>
   <g id="line2d_52">
    <defs>
     <path d="M 0 1.5 
C 0.397805 1.5 0.77937 1.341951 1.06066 1.06066 
C 1.341951 0.77937 1.5 0.397805 1.5 0 
C 1.5 -0.397805 1.341951 -0.77937 1.06066 -1.06066 
C 0.77937 -1.341951 0.397805 -1.5 0 -1.5 
C -0.397805 -1.5 -0.77937 -1.341951 -1.06066 -1.06066 
C -1.341951 -0.77937 -1.5 -0.397805 -1.5 0 
C -1.5 0.397805 -1.341951 0.77937 -1.06066 1.06066 
C -0.77937 1.341951 -0.397805 1.5 0 1.5 
z
" id="m66b9c80fb9" style="stroke:#ff7500;"/>
    </defs>
    <g>
     <use style="fill:#ff7500;stroke:#ff7500;" x="233.084125" xlink:href="#m66b9c80fb9" y="27.513663"/>
     <use style="fill:#ff7500;stroke:#ff7500;" x="233.084125" xlink:href="#m66b9c80fb9" y="27.513663"/>
    </g>
   </g>
   <g id="line2d_53">
    <path d="M 37.236359 294.88 
L 37.236359 271.288853 
L 49.15061 271.288853 
L 49.15061 268.667614 
L 56.12 268.667614 
L 56.12 268.143366 
L 61.064861 268.143366 
L 61.064861 266.046375 
L 64.900393 266.046375 
L 64.900393 264.99788 
L 68.034251 264.99788 
L 68.034251 262.900889 
L 75.003641 262.900889 
L 75.003641 262.376641 
L 76.814644 262.376641 
L 76.814644 261.852394 
L 78.452896 261.852394 
L 78.452896 259.755403 
L 83.784035 259.755403 
L 83.784035 259.231155 
L 85.935418 259.231155 
L 85.935418 258.18266 
L 86.917893 258.18266 
L 86.917893 256.085669 
L 87.847234 256.085669 
L 87.847234 255.037173 
L 91.131212 255.037173 
L 91.131212 254.512926 
L 92.564428 254.512926 
L 92.564428 253.988678 
L 94.512393 253.988678 
L 94.512393 253.46443 
L 95.698286 253.46443 
L 95.698286 250.843192 
L 98.347925 250.843192 
L 98.347925 249.794696 
L 98.832144 249.794696 
L 98.832144 249.270448 
L 100.207968 249.270448 
L 100.207968 248.221953 
L 103.045463 248.221953 
L 103.045463 247.697705 
L 103.777005 247.697705 
L 103.777005 246.64921 
L 104.478679 246.64921 
L 104.478679 242.979476 
L 108.988361 242.979476 
L 108.988361 242.455228 
L 110.505991 242.455228 
L 110.505991 241.93098 
L 111.217346 241.93098 
L 111.217346 240.882485 
L 111.448069 240.882485 
L 111.448069 240.358237 
L 111.675736 240.358237 
L 111.675736 239.83399 
L 112.341186 239.83399 
L 112.341186 239.309742 
L 113.599452 239.309742 
L 113.599452 238.261246 
L 115.329377 238.261246 
L 115.329377 237.736999 
L 116.563963 237.736999 
L 116.563963 237.212751 
L 118.031182 237.212751 
L 118.031182 236.688503 
L 121.034327 236.688503 
L 121.034327 236.164255 
L 121.804096 236.164255 
L 121.804096 235.640008 
L 123.015063 235.640008 
L 123.015063 234.591512 
L 125.412295 234.591512 
L 125.412295 234.067265 
L 126.304124 234.067265 
L 126.304124 233.543017 
L 126.591406 233.543017 
L 126.591406 233.018769 
L 132.004651 233.018769 
L 132.004651 232.494521 
L 133.843356 232.494521 
L 133.843356 231.446026 
L 134.151957 231.446026 
L 134.151957 230.397531 
L 134.574897 230.397531 
L 134.574897 229.873283 
L 136.3859 229.873283 
L 136.3859 229.349035 
L 137.478435 229.349035 
L 137.478435 228.824787 
L 144.731115 228.824787 
L 144.731115 228.30054 
L 145.9126 228.30054 
L 145.9126 227.776292 
L 146.901931 227.776292 
L 146.901931 227.252044 
L 153.871321 227.252044 
L 153.871321 226.727797 
L 154.649736 226.727797 
L 154.649736 226.203549 
L 157.468255 226.203549 
L 157.468255 225.679301 
L 158.566748 225.679301 
L 158.566748 225.155053 
L 159.133698 225.155053 
L 159.133698 224.630806 
L 160.093118 224.630806 
L 160.093118 223.58231 
L 161.705532 223.58231 
L 161.705532 223.058063 
L 162.452458 223.058063 
L 162.452458 222.009567 
L 163.493125 222.009567 
L 163.493125 221.485319 
L 163.952976 221.485319 
L 163.952976 220.961072 
L 164.274068 220.961072 
L 164.274068 220.436824 
L 166.922192 220.436824 
L 166.922192 218.864081 
L 167.616957 218.864081 
L 167.616957 218.339833 
L 167.911231 218.339833 
L 167.911231 217.815585 
L 171.76906 217.815585 
L 171.76906 217.291338 
L 172.657576 217.291338 
L 172.657576 216.76709 
L 172.78084 216.76709 
L 172.78084 216.242842 
L 172.992849 216.242842 
L 172.992849 215.718594 
L 173.208582 215.718594 
L 173.208582 215.194347 
L 175.473827 215.194347 
L 175.473827 214.670099 
L 176.299299 214.670099 
L 176.299299 214.145851 
L 177.563328 214.145851 
L 177.617081 212.573108 
L 181.578032 212.573108 
L 181.578032 212.04886 
L 181.755355 212.04886 
L 181.766856 211.000365 
L 181.904274 211.000365 
L 182.002842 209.427622 
L 182.051915 209.427622 
L 182.130891 207.854879 
L 182.175858 207.854879 
L 182.235632 206.806383 
L 182.321194 206.806383 
L 182.373067 205.23364 
L 182.439532 205.23364 
L 182.513083 203.136649 
L 182.626467 203.136649 
L 182.626467 202.088154 
L 182.897729 202.088154 
L 182.983637 201.039658 
L 183.051344 201.039658 
L 183.051344 199.991163 
L 184.146663 199.991163 
L 184.243163 198.41842 
L 185.598555 198.41842 
L 185.598555 197.894172 
L 186.526767 197.894172 
L 186.526767 197.369924 
L 186.794872 197.369924 
L 186.851987 196.321429 
L 187.335493 196.321429 
L 187.335493 195.797181 
L 187.883808 195.797181 
L 187.883808 195.272933 
L 188.745186 195.272933 
L 188.745186 194.748686 
L 189.053942 194.748686 
L 189.053942 192.651695 
L 189.45309 192.651695 
L 189.521571 191.078952 
L 189.61893 191.078952 
L 189.703669 186.88497 
L 189.775971 186.88497 
L 189.831197 185.312227 
L 189.953027 185.312227 
L 189.972059 181.118245 
L 190.095259 181.118245 
L 190.201166 175.35152 
L 190.222269 175.35152 
L 190.222269 174.303025 
L 190.362299 174.303025 
L 190.466578 171.157538 
L 190.600056 171.157538 
L 190.600056 170.633291 
L 192.670881 170.633291 
L 192.670881 170.109043 
L 196.215386 170.109043 
L 196.215386 169.060547 
L 196.396321 169.060547 
L 196.396321 168.5363 
L 196.827735 168.5363 
L 196.843685 166.963557 
L 197.475967 166.963557 
L 197.475967 166.439309 
L 198.423577 166.439309 
L 198.423577 165.390813 
L 198.911027 165.390813 
L 198.911027 164.866566 
L 199.371277 164.866566 
L 199.371277 164.342318 
L 199.490591 164.342318 
L 199.519267 161.721079 
L 199.636206 161.721079 
L 199.636206 160.672584 
L 199.755047 160.672584 
L 199.848996 154.905859 
L 199.897114 154.905859 
L 199.897114 154.381611 
L 200.041987 154.381611 
L 200.129118 148.614886 
L 200.164636 148.614886 
L 200.261607 144.420905 
L 200.290331 144.420905 
L 200.317704 143.372409 
L 200.417702 143.372409 
L 200.473294 142.323914 
L 200.567259 142.323914 
L 200.567259 141.799666 
L 201.040777 141.799666 
L 201.109325 140.751171 
L 201.189985 140.751171 
L 201.189985 139.702675 
L 201.441923 139.702675 
L 201.541674 137.081437 
L 201.642054 137.081437 
L 201.722659 133.93595 
L 201.839882 133.93595 
L 201.839882 132.887455 
L 202.051951 132.887455 
L 202.051951 131.314712 
L 202.205511 131.314712 
L 202.205511 130.266216 
L 203.208461 130.266216 
L 203.252438 128.169225 
L 203.368438 128.169225 
L 203.377161 127.12073 
L 203.552855 127.12073 
L 203.552855 125.023739 
L 203.703257 125.023739 
L 203.703257 123.975244 
L 203.854474 123.975244 
L 203.950686 120.829757 
L 204.01488 120.829757 
L 204.101842 118.208519 
L 204.12795 118.208519 
L 204.213305 116.111528 
L 204.302371 116.111528 
L 204.38995 110.344803 
L 204.46174 110.344803 
L 204.492416 107.723564 
L 208.189886 107.723564 
L 208.189886 107.199317 
L 209.711425 107.199317 
L 209.711425 106.675069 
L 209.827164 106.675069 
L 209.827164 106.150821 
L 210.312361 106.150821 
L 210.312361 105.626573 
L 213.711762 105.626573 
L 213.711762 105.102326 
L 214.278901 105.102326 
L 214.303165 101.956839 
L 214.403323 101.956839 
L 214.44288 98.287105 
L 214.526282 98.287105 
L 214.526282 97.762858 
L 214.638179 97.762858 
L 214.67155 96.714362 
L 214.750477 96.714362 
L 214.750477 96.190115 
L 221.347058 96.190115 
L 221.347058 95.665867 
L 221.681388 95.665867 
L 221.681388 95.141619 
L 225.159659 95.141619 
L 225.262189 92.520381 
L 225.32311 92.520381 
L 225.38624 90.947637 
L 225.442195 90.947637 
L 225.517522 87.277903 
L 225.65288 87.277903 
L 225.742432 84.656665 
L 225.772673 84.656665 
L 225.80966 78.88994 
L 225.891047 78.88994 
L 225.941279 76.792949 
L 226.013871 76.792949 
L 226.107377 73.647463 
L 226.129441 73.647463 
L 226.206733 69.453481 
L 226.280515 69.453481 
L 226.335358 63.686756 
L 226.473553 63.686756 
L 226.48464 62.638261 
L 226.619107 62.638261 
L 226.619107 62.114013 
L 226.840165 62.114013 
L 226.865201 61.065517 
L 226.963877 61.065517 
L 226.972166 59.492774 
L 227.149978 59.492774 
L 227.157632 58.444279 
L 227.268501 58.444279 
L 227.30539 54.774545 
L 227.493746 54.774545 
L 227.511424 51.629058 
L 228.091058 51.629058 
L 228.091058 47.959324 
L 228.327302 47.959324 
L 228.327302 45.862334 
L 228.486387 45.862334 
L 228.495238 42.716847 
L 228.600596 42.716847 
L 228.627713 41.144104 
L 228.734009 41.144104 
L 228.768881 39.047113 
L 232.599585 39.047113 
L 232.672905 37.47437 
L 232.736631 37.47437 
L 232.84317 34.853131 
L 232.864752 34.853131 
L 232.967383 29.086407 
L 233.052153 29.086407 
L 233.084125 27.513663 
L 333.168 27.513663 
L 333.168 27.513663 
" style="fill:none;stroke:#ff7500;stroke-linecap:square;stroke-width:1.5;"/>
   </g>
   <g id="line2d_54">
    <defs>
     <path d="M 0 -6 
L -1.347084 -1.854102 
L -5.706339 -1.854102 
L -2.179628 0.708204 
L -3.526712 4.854102 
L -0 2.291796 
L 3.526712 4.854102 
L 2.179628 0.708204 
L 5.706339 -1.854102 
L 1.347084 -1.854102 
z
" id="m5a8a486ca7" style="stroke:#ff7500;stroke-linejoin:bevel;stroke-width:1.5;"/>
    </defs>
    <g>
     <use style="fill:none;stroke:#ff7500;stroke-linejoin:bevel;stroke-width:1.5;" x="64.900393" xlink:href="#m5a8a486ca7" y="264.99788"/>
     <use style="fill:none;stroke:#ff7500;stroke-linejoin:bevel;stroke-width:1.5;" x="154.649736" xlink:href="#m5a8a486ca7" y="226.727797"/>
     <use style="fill:none;stroke:#ff7500;stroke-linejoin:bevel;stroke-width:1.5;" x="200.204014" xlink:href="#m5a8a486ca7" y="146.517896"/>
     <use style="fill:none;stroke:#ff7500;stroke-linejoin:bevel;stroke-width:1.5;" x="233.084125" xlink:href="#m5a8a486ca7" y="28.562159"/>
     <use style="fill:none;stroke:#ff7500;stroke-linejoin:bevel;stroke-width:1.5;" x="233.084125" xlink:href="#m5a8a486ca7" y="27.513663"/>
     <use style="fill:none;stroke:#ff7500;stroke-linejoin:bevel;stroke-width:1.5;" x="333.168" xlink:href="#m5a8a486ca7" y="27.513663"/>
    </g>
   </g>
   <g id="line2d_55">
    <path style="fill:none;stroke:#ff7500;stroke-linecap:square;stroke-width:1.5;"/>
    <g/>
   </g>
   <g id="line2d_56">
    <defs>
     <path d="M 0 1.5 
C 0.397805 1.5 0.77937 1.341951 1.06066 1.06066 
C 1.341951 0.77937 1.5 0.397805 1.5 0 
C 1.5 -0.397805 1.341951 -0.77937 1.06066 -1.06066 
C 0.77937 -1.341951 0.397805 -1.5 0 -1.5 
C -0.397805 -1.5 -0.77937 -1.341951 -1.06066 -1.06066 
C -1.341951 -0.77937 -1.5 -0.397805 -1.5 0 
C -1.5 0.397805 -1.341951 0.77937 -1.06066 1.06066 
C -0.77937 1.341951 -0.397805 1.5 0 1.5 
z
" id="m57efc5ca8e" style="stroke:#6495ed;"/>
    </defs>
    <g>
     <use style="fill:#6495ed;stroke:#6495ed;" x="232.0328" xlink:href="#m57efc5ca8e" y="27.513663"/>
     <use style="fill:#6495ed;stroke:#6495ed;" x="232.0328" xlink:href="#m57efc5ca8e" y="27.513663"/>
    </g>
   </g>
   <g id="line2d_57">
    <path d="M 37.236359 294.88 
L 37.236359 279.152568 
L 49.15061 279.152568 
L 49.15061 273.910091 
L 56.12 273.910091 
L 56.12 271.8131 
L 61.064861 271.8131 
L 61.064861 270.240357 
L 64.900393 270.240357 
L 64.900393 269.191862 
L 68.034251 269.191862 
L 68.034251 266.046375 
L 70.68389 266.046375 
L 70.68389 263.949385 
L 72.979112 263.949385 
L 72.979112 262.900889 
L 76.814644 262.900889 
L 76.814644 262.376641 
L 78.452896 262.376641 
L 78.452896 261.328146 
L 79.948502 261.328146 
L 79.948502 260.803898 
L 81.324327 260.803898 
L 81.324327 260.279651 
L 82.598142 260.279651 
L 82.598142 258.18266 
L 86.917893 258.18266 
L 86.917893 257.658412 
L 88.728896 257.658412 
L 88.728896 255.037173 
L 89.567532 255.037173 
L 89.567532 254.512926 
L 91.862754 254.512926 
L 91.862754 253.988678 
L 92.564428 253.988678 
L 92.564428 252.940182 
L 95.115564 252.940182 
L 95.115564 251.367439 
L 97.336537 251.367439 
L 97.336537 250.318944 
L 99.761485 250.318944 
L 99.761485 249.794696 
L 102.281398 249.794696 
L 102.281398 249.270448 
L 103.415125 249.270448 
L 103.415125 246.64921 
L 106.426644 246.64921 
L 106.426644 246.124962 
L 106.730875 246.124962 
L 106.730875 245.600714 
L 107.029816 245.600714 
L 107.029816 244.552219 
L 108.176149 244.552219 
L 108.176149 244.027971 
L 110.746395 244.027971 
L 110.746395 243.503724 
L 113.599452 243.503724 
L 113.599452 242.979476 
L 113.999206 242.979476 
L 113.999206 242.455228 
L 114.389873 242.455228 
L 114.389873 241.93098 
L 115.869378 241.93098 
L 115.869378 241.406733 
L 117.231566 241.406733 
L 117.231566 240.882485 
L 117.55589 240.882485 
L 117.55589 240.358237 
L 119.09161 240.358237 
L 119.09161 239.83399 
L 120.902613 239.83399 
L 120.902613 239.309742 
L 122.660646 239.309742 
L 122.660646 238.785494 
L 123.589988 238.785494 
L 123.589988 238.261246 
L 124.255437 238.261246 
L 124.255437 236.164255 
L 124.685175 236.164255 
L 124.685175 235.640008 
L 125.513703 235.640008 
L 125.513703 235.11576 
L 126.780294 235.11576 
L 126.780294 234.591512 
L 128.221023 234.591512 
L 128.221023 233.018769 
L 128.478214 233.018769 
L 128.478214 232.494521 
L 136.914823 232.494521 
L 136.914823 231.970274 
L 137.377325 231.970274 
L 137.377325 231.446026 
L 137.578954 231.446026 
L 137.578954 230.921778 
L 137.926211 230.921778 
L 137.926211 230.397531 
L 139.339771 230.397531 
L 139.339771 229.873283 
L 142.130987 229.873283 
L 142.130987 228.824787 
L 144.022553 228.824787 
L 144.022553 228.30054 
L 145.9126 228.30054 
L 145.974208 227.252044 
L 146.726237 227.252044 
L 146.726237 226.203549 
L 147.892497 226.203549 
L 147.892497 225.679301 
L 149.266206 225.679301 
L 149.266206 225.155053 
L 150.490985 225.155053 
L 150.490985 224.630806 
L 150.679098 224.630806 
L 150.679098 224.106558 
L 150.888293 224.106558 
L 150.888293 223.58231 
L 154.160213 223.58231 
L 154.160213 223.058063 
L 154.834363 223.058063 
L 154.834363 222.533815 
L 155.089554 222.533815 
L 155.089554 222.009567 
L 155.641489 222.009567 
L 155.641489 221.485319 
L 161.532283 221.485319 
L 161.532283 220.961072 
L 162.871714 220.961072 
L 162.871714 220.436824 
L 163.526383 220.436824 
L 163.526383 219.912576 
L 169.570533 219.912576 
L 169.570533 219.388328 
L 169.940527 219.388328 
L 169.940527 218.864081 
L 171.147759 218.864081 
L 171.147759 218.339833 
L 171.953189 218.339833 
L 171.953189 217.815585 
L 172.108499 217.815585 
L 172.108499 217.291338 
L 172.249088 217.291338 
L 172.249088 216.242842 
L 172.83892 216.242842 
L 172.83892 215.718594 
L 178.967741 215.718594 
L 178.967741 215.194347 
L 180.519259 215.194347 
L 180.519259 214.670099 
L 185.836106 214.670099 
L 185.836106 214.145851 
L 186.004653 214.145851 
L 186.004653 213.621604 
L 186.578986 213.621604 
L 186.578986 213.097356 
L 186.869084 213.097356 
L 186.869084 212.04886 
L 187.599557 212.04886 
L 187.599557 208.903374 
L 188.06276 208.903374 
L 188.06276 207.854879 
L 188.187191 207.854879 
L 188.200376 204.185145 
L 188.47494 204.185145 
L 188.47494 203.660897 
L 188.737524 203.660897 
L 188.788544 202.088154 
L 188.872397 202.088154 
L 188.907848 200.515411 
L 189.033865 200.515411 
L 189.033865 199.466915 
L 189.372029 199.466915 
L 189.372029 198.942667 
L 190.406405 198.942667 
L 190.406405 198.41842 
L 192.458219 198.41842 
L 192.458219 197.894172 
L 192.820612 197.894172 
L 192.820612 197.369924 
L 195.265271 197.369924 
L 195.265271 196.845677 
L 197.707961 196.845677 
L 197.707961 196.321429 
L 199.276057 196.321429 
L 199.276057 195.797181 
L 200.804383 195.797181 
L 200.804383 194.224438 
L 201.030784 194.224438 
L 201.030784 193.175943 
L 201.197412 193.175943 
L 201.292435 190.554704 
L 201.435822 190.554704 
L 201.513753 187.409218 
L 201.711854 187.409218 
L 201.775389 185.836474 
L 201.895819 185.836474 
L 201.895819 185.312227 
L 203.662563 185.312227 
L 203.726772 184.263731 
L 203.891543 184.263731 
L 203.986496 182.690988 
L 204.024331 182.690988 
L 204.130037 181.642493 
L 204.167557 181.642493 
L 204.218496 175.875768 
L 204.429984 175.875768 
L 204.46174 174.303025 
L 204.565815 174.303025 
L 204.672297 171.157538 
L 204.700581 171.157538 
L 204.781137 168.5363 
L 204.82929 168.5363 
L 204.937144 164.342318 
L 204.964996 164.342318 
L 205.072004 161.721079 
L 205.116395 161.721079 
L 205.226384 155.430107 
L 205.253771 155.430107 
L 205.362887 147.566391 
L 205.423962 147.566391 
L 205.532968 145.4694 
L 205.542581 145.4694 
L 205.571389 143.372409 
L 205.68042 143.372409 
L 205.783079 140.751171 
L 205.793501 140.751171 
L 205.899254 138.129932 
L 205.910546 138.129932 
L 206.011844 137.081437 
L 206.031471 137.081437 
L 206.142273 132.363207 
L 206.146913 132.363207 
L 206.197869 131.314712 
L 206.272641 131.314712 
L 206.354424 128.169225 
L 206.417562 128.169225 
L 206.417562 126.596482 
L 206.530448 126.596482 
L 206.530448 125.023739 
L 206.727129 125.023739 
L 206.727129 123.975244 
L 209.144922 123.975244 
L 209.228111 122.4025 
L 209.374076 122.4025 
L 209.374076 121.354005 
L 209.715949 121.354005 
L 209.815925 116.111528 
L 209.857847 116.111528 
L 209.939152 113.490289 
L 209.985228 113.490289 
L 210.067412 104.578078 
L 210.107252 104.578078 
L 210.180786 102.481087 
L 210.306534 102.481087 
L 210.321824 99.335601 
L 210.429199 99.335601 
L 210.429199 98.811353 
L 210.965353 98.811353 
L 211.061127 95.141619 
L 211.540291 95.141619 
L 211.643709 91.996133 
L 211.664587 91.996133 
L 211.764586 87.802151 
L 211.856686 87.802151 
L 211.856686 86.229408 
L 213.153069 86.229408 
L 213.153069 85.70516 
L 213.577396 85.70516 
L 213.577396 83.608169 
L 214.095238 83.608169 
L 214.185571 82.559674 
L 214.23027 82.559674 
L 214.330853 80.986931 
L 214.396435 80.986931 
L 214.502902 78.88994 
L 214.5126 78.88994 
L 214.5126 77.841444 
L 214.635348 77.841444 
L 214.725147 75.220206 
L 214.780262 75.220206 
L 214.780262 74.695958 
L 215.115004 74.695958 
L 215.115004 74.17171 
L 219.882741 74.17171 
L 219.882741 73.647463 
L 220.984584 73.647463 
L 220.984584 73.123215 
L 221.312535 73.123215 
L 221.312535 72.598967 
L 221.923212 72.598967 
L 222.023345 70.501976 
L 222.066397 70.501976 
L 222.172277 67.880738 
L 222.188705 67.880738 
L 222.292386 62.114013 
L 222.331513 62.114013 
L 222.433979 56.347288 
L 222.444767 56.347288 
L 222.472067 51.629058 
L 222.562279 51.629058 
L 222.581193 49.532068 
L 222.69955 49.532068 
L 222.710527 48.483572 
L 227.383516 48.483572 
L 227.383516 47.959324 
L 228.159772 47.959324 
L 228.173688 45.862334 
L 228.327302 45.862334 
L 228.372687 44.813838 
L 228.442569 44.813838 
L 228.539678 40.095609 
L 228.55858 40.095609 
L 228.668558 38.522865 
L 228.730518 38.522865 
L 228.732015 37.47437 
L 231.338816 37.47437 
L 231.338816 33.280388 
L 231.644217 33.280388 
L 231.672821 30.65915 
L 231.851362 30.65915 
L 231.947802 28.037911 
L 232.0328 28.037911 
L 232.0328 27.513663 
L 333.168 27.513663 
L 333.168 27.513663 
" style="fill:none;stroke:#6495ed;stroke-linecap:square;stroke-width:1.5;"/>
   </g>
   <g id="line2d_58">
    <defs>
     <path d="M -0 6 
L 6 -6 
L -6 -6 
z
" id="m9c3eeca0a7" style="stroke:#6495ed;stroke-linejoin:miter;stroke-width:1.5;"/>
    </defs>
    <g>
     <use style="fill:none;stroke:#6495ed;stroke-linejoin:miter;stroke-width:1.5;" x="128.478214" xlink:href="#m9c3eeca0a7" y="232.494521"/>
     <use style="fill:none;stroke:#6495ed;stroke-linejoin:miter;stroke-width:1.5;" x="204.923201" xlink:href="#m9c3eeca0a7" y="165.390813"/>
     <use style="fill:none;stroke:#6495ed;stroke-linejoin:miter;stroke-width:1.5;" x="232.0328" xlink:href="#m9c3eeca0a7" y="28.037911"/>
     <use style="fill:none;stroke:#6495ed;stroke-linejoin:miter;stroke-width:1.5;" x="232.0328" xlink:href="#m9c3eeca0a7" y="27.513663"/>
     <use style="fill:none;stroke:#6495ed;stroke-linejoin:miter;stroke-width:1.5;" x="232.0328" xlink:href="#m9c3eeca0a7" y="27.513663"/>
     <use style="fill:none;stroke:#6495ed;stroke-linejoin:miter;stroke-width:1.5;" x="333.168" xlink:href="#m9c3eeca0a7" y="27.513663"/>
    </g>
   </g>
   <g id="line2d_59">
    <path style="fill:none;stroke:#6495ed;stroke-linecap:square;stroke-width:1.5;"/>
    <g/>
   </g>
   <g id="line2d_60">
    <defs>
     <path d="M 0 1.5 
C 0.397805 1.5 0.77937 1.341951 1.06066 1.06066 
C 1.341951 0.77937 1.5 0.397805 1.5 0 
C 1.5 -0.397805 1.341951 -0.77937 1.06066 -1.06066 
C 0.77937 -1.341951 0.397805 -1.5 0 -1.5 
C -0.397805 -1.5 -0.77937 -1.341951 -1.06066 -1.06066 
C -1.341951 -0.77937 -1.5 -0.397805 -1.5 0 
C -1.5 0.397805 -1.341951 0.77937 -1.06066 1.06066 
C -0.77937 1.341951 -0.397805 1.5 0 1.5 
z
" id="m1e58435471" style="stroke:#ff0000;"/>
    </defs>
    <g>
     <use style="fill:#ff0000;stroke:#ff0000;" x="261.057348" xlink:href="#m1e58435471" y="27.513663"/>
     <use style="fill:#ff0000;stroke:#ff0000;" x="261.057348" xlink:href="#m1e58435471" y="27.513663"/>
    </g>
   </g>
   <g id="line2d_61">
    <path d="M 37.236359 294.88 
L 37.236359 277.055578 
L 49.15061 277.055578 
L 49.15061 272.337348 
L 61.064861 272.337348 
L 61.064861 271.8131 
L 64.900393 271.8131 
L 64.900393 270.764605 
L 68.034251 270.764605 
L 68.034251 270.240357 
L 70.68389 270.240357 
L 70.68389 267.094871 
L 72.979112 267.094871 
L 72.979112 266.570623 
L 76.814644 266.570623 
L 76.814644 263.949385 
L 81.324327 263.949385 
L 81.324327 263.425137 
L 82.598142 263.425137 
L 82.598142 262.376641 
L 85.935418 262.376641 
L 85.935418 261.328146 
L 86.917893 261.328146 
L 86.917893 260.803898 
L 87.847234 260.803898 
L 87.847234 260.279651 
L 88.728896 260.279651 
L 88.728896 259.755403 
L 89.567532 259.755403 
L 89.567532 259.231155 
L 90.367147 259.231155 
L 90.367147 258.706907 
L 91.131212 258.706907 
L 91.131212 257.658412 
L 95.115564 257.658412 
L 95.115564 257.134164 
L 97.336537 257.134164 
L 97.336537 256.609917 
L 100.643147 256.609917 
L 100.643147 254.512926 
L 102.281398 254.512926 
L 102.281398 252.415935 
L 103.045463 252.415935 
L 103.045463 251.891687 
L 103.415125 251.891687 
L 103.415125 251.367439 
L 103.777005 251.367439 
L 103.777005 250.843192 
L 104.478679 250.843192 
L 104.478679 250.318944 
L 105.801534 250.318944 
L 105.801534 249.794696 
L 106.730875 249.794696 
L 106.730875 249.270448 
L 107.323646 249.270448 
L 107.323646 247.173458 
L 108.176149 247.173458 
L 108.176149 246.124962 
L 108.451173 246.124962 
L 108.451173 245.076467 
L 109.509269 245.076467 
L 109.509269 244.552219 
L 110.262176 244.552219 
L 110.262176 242.979476 
L 110.505991 242.979476 
L 110.505991 242.455228 
L 112.557398 242.455228 
L 112.557398 241.406733 
L 113.599452 241.406733 
L 113.599452 240.358237 
L 113.999206 240.358237 
L 113.999206 238.261246 
L 114.771859 238.261246 
L 114.771859 237.212751 
L 115.145539 237.212751 
L 115.145539 236.688503 
L 116.220179 236.688503 
L 116.220179 236.164255 
L 120.769881 236.164255 
L 120.769881 234.591512 
L 121.294766 234.591512 
L 121.294766 234.067265 
L 121.678171 234.067265 
L 121.678171 233.543017 
L 123.131597 233.543017 
L 123.131597 233.018769 
L 123.36232 233.018769 
L 123.36232 232.494521 
L 130.709498 232.494521 
L 130.709498 231.970274 
L 134.929315 231.970274 
L 134.929315 231.446026 
L 137.427955 231.446026 
L 137.427955 230.921778 
L 139.249066 230.921778 
L 139.249066 230.397531 
L 140.978022 230.397531 
L 140.978022 229.873283 
L 145.663936 229.873283 
L 145.663936 229.349035 
L 145.788718 229.349035 
L 145.788718 228.30054 
L 146.489148 228.30054 
L 146.489148 226.203549 
L 146.93104 226.203549 
L 146.93104 225.679301 
L 148.566647 225.679301 
L 148.566647 225.155053 
L 156.429154 225.155053 
L 156.429154 224.630806 
L 157.357615 224.630806 
L 157.357615 224.106558 
L 161.407456 224.106558 
L 161.407456 223.058063 
L 163.66976 223.058063 
L 163.66976 221.485319 
L 164.970227 221.485319 
L 165.01091 220.436824 
L 165.639285 220.436824 
L 165.746684 218.864081 
L 166.812768 218.864081 
L 166.9131 217.815585 
L 167.085033 217.815585 
L 167.085033 217.291338 
L 167.246346 217.291338 
L 167.246346 216.76709 
L 167.590748 216.76709 
L 167.590748 216.242842 
L 167.773376 216.242842 
L 167.773376 215.718594 
L 167.885467 215.718594 
L 167.962642 214.145851 
L 168.005368 214.145851 
L 168.005368 212.573108 
L 168.360134 212.573108 
L 168.451851 211.000365 
L 168.559617 211.000365 
L 168.650279 209.427622 
L 168.756812 209.427622 
L 168.822044 208.379126 
L 169.295634 208.379126 
L 169.295634 207.854879 
L 169.570533 207.854879 
L 169.679273 206.806383 
L 170.795859 206.806383 
L 170.795859 206.282136 
L 171.097926 206.282136 
L 171.097926 204.709392 
L 171.401782 204.709392 
L 171.401782 204.185145 
L 173.082009 204.185145 
L 173.082009 203.660897 
L 173.359251 203.660897 
L 173.359251 203.136649 
L 173.930926 203.136649 
L 173.930926 202.612401 
L 175.212081 202.612401 
L 175.212081 202.088154 
L 175.861824 202.088154 
L 175.861824 201.563906 
L 176.336134 201.563906 
L 176.435718 200.515411 
L 176.638336 200.515411 
L 176.638336 199.991163 
L 177.031499 199.991163 
L 177.081906 198.41842 
L 177.301955 198.41842 
L 177.39117 196.845677 
L 177.430672 196.845677 
L 177.499585 195.272933 
L 177.54374 195.272933 
L 177.64633 192.127447 
L 177.675529 192.127447 
L 177.733779 189.506209 
L 177.926533 189.506209 
L 178.022105 185.836474 
L 178.069693 185.836474 
L 178.15502 180.593997 
L 178.272831 180.593997 
L 178.272831 179.545502 
L 178.468955 179.545502 
L 178.53846 178.497006 
L 178.589252 178.497006 
L 178.607685 176.924263 
L 178.786377 176.924263 
L 178.890895 175.35152 
L 178.899954 175.35152 
L 178.985773 173.778777 
L 179.053224 173.778777 
L 179.053224 173.254529 
L 179.169514 173.254529 
L 179.258437 171.681786 
L 179.289451 171.681786 
L 179.289451 171.157538 
L 186.156726 171.157538 
L 186.156726 170.633291 
L 187.101061 170.633291 
L 187.101061 170.109043 
L 187.288305 170.109043 
L 187.363189 168.012052 
L 187.473532 168.012052 
L 187.553091 166.439309 
L 187.716534 166.439309 
L 187.819249 163.81807 
L 187.889177 163.81807 
L 187.985532 159.624089 
L 188.07073 159.624089 
L 188.155507 158.575593 
L 188.187191 158.575593 
L 188.187191 156.478602 
L 189.64803 156.478602 
L 189.64803 155.954354 
L 189.881467 155.954354 
L 189.881467 155.430107 
L 190.109417 155.430107 
L 190.109417 154.905859 
L 192.369516 154.905859 
L 192.369516 154.381611 
L 192.648512 154.381611 
L 192.648512 153.857364 
L 192.907023 153.857364 
L 192.907023 153.333116 
L 194.392437 153.333116 
L 194.392437 152.808868 
L 194.575316 152.808868 
L 194.575316 152.28462 
L 195.284483 152.28462 
L 195.284483 151.236125 
L 195.542625 151.236125 
L 195.542625 150.711877 
L 195.754537 150.711877 
L 195.818959 147.042143 
L 196.030855 147.042143 
L 196.120875 144.945152 
L 196.157414 144.945152 
L 196.246775 141.799666 
L 196.327461 141.799666 
L 196.327461 141.275418 
L 198.555402 141.275418 
L 198.654688 140.226923 
L 198.684792 140.226923 
L 198.75055 137.081437 
L 198.877068 137.081437 
L 198.963248 135.508693 
L 198.99985 135.508693 
L 199.088216 130.790464 
L 199.170562 130.790464 
L 199.226166 127.12073 
L 199.59007 127.12073 
L 199.630785 125.023739 
L 199.70248 125.023739 
L 199.811478 119.257014 
L 199.857025 119.257014 
L 199.873072 117.160023 
L 200.090888 117.160023 
L 200.125167 116.111528 
L 200.531278 116.111528 
L 200.61341 113.490289 
L 200.659438 113.490289 
L 200.707889 111.393298 
L 200.775238 111.393298 
L 200.854953 107.723564 
L 202.135348 107.723564 
L 202.217177 104.05383 
L 202.30558 104.05383 
L 202.37043 103.005335 
L 202.424669 103.005335 
L 202.533782 98.287105 
L 202.539506 98.287105 
L 202.626271 95.141619 
L 211.534188 95.141619 
L 211.534188 94.617371 
L 216.058368 94.617371 
L 216.058368 94.093124 
L 218.825189 94.093124 
L 218.825189 91.996133 
L 226.722005 91.996133 
L 226.80589 83.083922 
L 226.903519 83.083922 
L 226.913501 82.035426 
L 231.195296 82.035426 
L 231.285163 71.550472 
L 234.218239 71.550472 
L 234.328614 70.501976 
L 235.11145 70.501976 
L 235.219501 65.259499 
L 235.229415 65.259499 
L 235.243762 60.54127 
L 236.380312 60.54127 
L 236.467822 47.435077 
L 242.326541 47.435077 
L 242.334567 45.862334 
L 242.496997 45.862334 
L 242.52038 42.716847 
L 242.809519 42.716847 
L 242.809519 42.192599 
L 243.256924 42.192599 
L 243.259709 41.144104 
L 243.430957 41.144104 
L 243.452151 39.571361 
L 243.543726 39.571361 
L 243.57919 37.47437 
L 243.742199 37.47437 
L 243.74449 36.425875 
L 249.431795 36.425875 
L 249.437104 34.853131 
L 250.87145 34.853131 
L 250.924466 31.183397 
L 251.390051 31.183397 
L 251.423386 28.562159 
L 258.062637 28.562159 
L 258.062637 28.037911 
L 261.057348 28.037911 
L 261.057348 27.513663 
L 333.168 27.513663 
L 333.168 27.513663 
" style="fill:none;stroke:#ff0000;stroke-linecap:square;stroke-width:1.5;"/>
   </g>
   <g id="line2d_62">
    <defs>
     <path d="M 0 -6 
L -5.196152 -3 
L -5.196152 3 
L -0 6 
L 5.196152 3 
L 5.196152 -3 
z
" id="m8f9e3691d7" style="stroke:#ff0000;stroke-linejoin:miter;stroke-width:1.5;"/>
    </defs>
    <g>
     <use style="fill:none;stroke:#ff0000;stroke-linejoin:miter;stroke-width:1.5;" x="86.917893" xlink:href="#m8f9e3691d7" y="260.803898"/>
     <use style="fill:none;stroke:#ff0000;stroke-linejoin:miter;stroke-width:1.5;" x="148.566647" xlink:href="#m8f9e3691d7" y="225.155053"/>
     <use style="fill:none;stroke:#ff0000;stroke-linejoin:miter;stroke-width:1.5;" x="199.190044" xlink:href="#m8f9e3691d7" y="130.266216"/>
     <use style="fill:none;stroke:#ff0000;stroke-linejoin:miter;stroke-width:1.5;" x="236.467822" xlink:href="#m8f9e3691d7" y="47.959324"/>
     <use style="fill:none;stroke:#ff0000;stroke-linejoin:miter;stroke-width:1.5;" x="261.057348" xlink:href="#m8f9e3691d7" y="27.513663"/>
     <use style="fill:none;stroke:#ff0000;stroke-linejoin:miter;stroke-width:1.5;" x="333.168" xlink:href="#m8f9e3691d7" y="27.513663"/>
    </g>
   </g>
   <g id="line2d_63">
    <path style="fill:none;stroke:#ff0000;stroke-linecap:square;stroke-width:1.5;"/>
    <g/>
   </g>
   <g id="line2d_64">
    <path clip-path="url(#pa24ac62498)" d="M 242.097922 47.435077 
" style="fill:none;stroke:#ff0000;stroke-linecap:square;stroke-width:1.5;"/>
    <defs>
     <path d="M -12 12 
L 12 -12 
M -12 -12 
L 12 12 
" id="mfb225be60a" style="stroke:#ff0000;"/>
    </defs>
    <g clip-path="url(#pa24ac62498)">
     <use style="fill:#ff0000;stroke:#ff0000;" x="242.097922" xlink:href="#mfb225be60a" y="47.435077"/>
    </g>
   </g>
   <g id="line2d_65">
    <path d="M 333.168 205.757888 
L 363.64328 289.532673 
" style="fill:none;stroke:#ff00ff;stroke-linecap:square;stroke-width:1.5;"/>
    <g>
     <use style="fill:none;stroke:#ff00ff;stroke-linejoin:miter;stroke-width:1.5;" x="333.168" xlink:href="#mcb2e001cdc" y="205.757888"/>
     <use style="fill:none;stroke:#ff00ff;stroke-linejoin:miter;stroke-width:1.5;" x="363.64328" xlink:href="#mcb2e001cdc" y="289.532673"/>
    </g>
   </g>
   <g id="line2d_66">
    <path d="M 333.168 190.030456 
L 363.64328 238.198337 
" style="fill:none;stroke:#000080;stroke-linecap:square;stroke-width:1.5;"/>
    <g>
     <use style="fill:none;stroke:#000080;stroke-width:1.5;" x="333.168" xlink:href="#mfa0680cbde" y="190.030456"/>
     <use style="fill:none;stroke:#000080;stroke-width:1.5;" x="363.64328" xlink:href="#mfa0680cbde" y="238.198337"/>
    </g>
   </g>
   <g id="line2d_67">
    <path d="M 333.168 27.513663 
L 363.64328 186.864 
" style="fill:none;stroke:#ff0000;stroke-linecap:square;stroke-width:1.5;"/>
    <g>
     <use style="fill:none;stroke:#ff0000;stroke-linejoin:miter;stroke-width:1.5;" x="333.168" xlink:href="#m8f9e3691d7" y="27.513663"/>
     <use style="fill:none;stroke:#ff0000;stroke-linejoin:miter;stroke-width:1.5;" x="363.64328" xlink:href="#m8f9e3691d7" y="186.864"/>
    </g>
   </g>
   <g id="line2d_68">
    <path d="M 333.168 27.513663 
L 363.64328 135.529663 
" style="fill:none;stroke:#ff7500;stroke-linecap:square;stroke-width:1.5;"/>
    <g>
     <use style="fill:none;stroke:#ff7500;stroke-linejoin:bevel;stroke-width:1.5;" x="333.168" xlink:href="#m5a8a486ca7" y="27.513663"/>
     <use style="fill:none;stroke:#ff7500;stroke-linejoin:bevel;stroke-width:1.5;" x="363.64328" xlink:href="#m5a8a486ca7" y="135.529663"/>
    </g>
   </g>
   <g id="line2d_69">
    <path d="M 333.168 27.513663 
L 363.64328 84.195327 
" style="fill:none;stroke:#6495ed;stroke-linecap:square;stroke-width:1.5;"/>
    <g>
     <use style="fill:none;stroke:#6495ed;stroke-linejoin:miter;stroke-width:1.5;" x="333.168" xlink:href="#m9c3eeca0a7" y="27.513663"/>
     <use style="fill:none;stroke:#6495ed;stroke-linejoin:miter;stroke-width:1.5;" x="363.64328" xlink:href="#m9c3eeca0a7" y="84.195327"/>
    </g>
   </g>
   <g id="line2d_70">
    <path d="M 333.168 294.88 
L 333.168 27.513663 
" style="fill:none;stroke:#000000;stroke-linecap:square;stroke-width:1.5;"/>
   </g>
   <g id="patch_3">
    <path d="M 56.12 294.88 
L 56.12 24.84 
" style="fill:none;stroke:#000000;stroke-linecap:square;stroke-linejoin:miter;stroke-width:0.8;"/>
   </g>
   <g id="patch_4">
    <path d="M 333.168 294.88 
L 333.168 24.84 
" style="fill:none;stroke:#000000;stroke-linecap:square;stroke-linejoin:miter;stroke-width:0.8;"/>
   </g>
   <g id="patch_5">
    <path d="M 56.12 294.88 
L 333.168 294.88 
" style="fill:none;stroke:#000000;stroke-linecap:square;stroke-linejoin:miter;stroke-width:0.8;"/>
   </g>
   <g id="patch_6">
    <path d="M 56.12 24.84 
L 333.168 24.84 
" style="fill:none;stroke:#000000;stroke-linecap:square;stroke-linejoin:miter;stroke-width:0.8;"/>
   </g>
   <g id="text_13">
    <!-- CMA ES PP -->
    <defs>
     <path d="M 64.40625 67.28125 
L 64.40625 56.890625 
Q 59.421875 61.53125 53.78125 63.8125 
Q 48.140625 66.109375 41.796875 66.109375 
Q 29.296875 66.109375 22.65625 58.46875 
Q 16.015625 50.828125 16.015625 36.375 
Q 16.015625 21.96875 22.65625 14.328125 
Q 29.296875 6.6875 41.796875 6.6875 
Q 48.140625 6.6875 53.78125 8.984375 
Q 59.421875 11.28125 64.40625 15.921875 
L 64.40625 5.609375 
Q 59.234375 2.09375 53.4375 0.328125 
Q 47.65625 -1.421875 41.21875 -1.421875 
Q 24.65625 -1.421875 15.125 8.703125 
Q 5.609375 18.84375 5.609375 36.375 
Q 5.609375 53.953125 15.125 64.078125 
Q 24.65625 74.21875 41.21875 74.21875 
Q 47.75 74.21875 53.53125 72.484375 
Q 59.328125 70.75 64.40625 67.28125 
z
" id="DejaVuSans-43"/>
     <path d="M 9.8125 72.90625 
L 24.515625 72.90625 
L 43.109375 23.296875 
L 61.8125 72.90625 
L 76.515625 72.90625 
L 76.515625 0 
L 66.890625 0 
L 66.890625 64.015625 
L 48.09375 14.015625 
L 38.1875 14.015625 
L 19.390625 64.015625 
L 19.390625 0 
L 9.8125 0 
z
" id="DejaVuSans-4d"/>
     <path d="M 34.1875 63.1875 
L 20.796875 26.90625 
L 47.609375 26.90625 
z
M 28.609375 72.90625 
L 39.796875 72.90625 
L 67.578125 0 
L 57.328125 0 
L 50.6875 18.703125 
L 17.828125 18.703125 
L 11.1875 0 
L 0.78125 0 
z
" id="DejaVuSans-41"/>
     <path d="M 9.8125 72.90625 
L 55.90625 72.90625 
L 55.90625 64.59375 
L 19.671875 64.59375 
L 19.671875 43.015625 
L 54.390625 43.015625 
L 54.390625 34.71875 
L 19.671875 34.71875 
L 19.671875 8.296875 
L 56.78125 8.296875 
L 56.78125 0 
L 9.8125 0 
z
" id="DejaVuSans-45"/>
     <path d="M 53.515625 70.515625 
L 53.515625 60.890625 
Q 47.90625 63.578125 42.921875 64.890625 
Q 37.9375 66.21875 33.296875 66.21875 
Q 25.25 66.21875 20.875 63.09375 
Q 16.5 59.96875 16.5 54.203125 
Q 16.5 49.359375 19.40625 46.890625 
Q 22.3125 44.4375 30.421875 42.921875 
L 36.375 41.703125 
Q 47.40625 39.59375 52.65625 34.296875 
Q 57.90625 29 57.90625 20.125 
Q 57.90625 9.515625 50.796875 4.046875 
Q 43.703125 -1.421875 29.984375 -1.421875 
Q 24.8125 -1.421875 18.96875 -0.25 
Q 13.140625 0.921875 6.890625 3.21875 
L 6.890625 13.375 
Q 12.890625 10.015625 18.65625 8.296875 
Q 24.421875 6.59375 29.984375 6.59375 
Q 38.421875 6.59375 43.015625 9.90625 
Q 47.609375 13.234375 47.609375 19.390625 
Q 47.609375 24.75 44.3125 27.78125 
Q 41.015625 30.8125 33.5 32.328125 
L 27.484375 33.5 
Q 16.453125 35.6875 11.515625 40.375 
Q 6.59375 45.0625 6.59375 53.421875 
Q 6.59375 63.09375 13.40625 68.65625 
Q 20.21875 74.21875 32.171875 74.21875 
Q 37.3125 74.21875 42.625 73.28125 
Q 47.953125 72.359375 53.515625 70.515625 
z
" id="DejaVuSans-53"/>
     <path d="M 19.671875 64.796875 
L 19.671875 37.40625 
L 32.078125 37.40625 
Q 38.96875 37.40625 42.71875 40.96875 
Q 46.484375 44.53125 46.484375 51.125 
Q 46.484375 57.671875 42.71875 61.234375 
Q 38.96875 64.796875 32.078125 64.796875 
z
M 9.8125 72.90625 
L 32.078125 72.90625 
Q 44.34375 72.90625 50.609375 67.359375 
Q 56.890625 61.8125 56.890625 51.125 
Q 56.890625 40.328125 50.609375 34.8125 
Q 44.34375 29.296875 32.078125 29.296875 
L 19.671875 29.296875 
L 19.671875 0 
L 9.8125 0 
z
" id="DejaVuSans-50"/>
    </defs>
    <g transform="translate(369.18424 294.223611)scale(0.17 -0.17)">
     <use xlink:href="#DejaVuSans-43"/>
     <use x="69.824219" xlink:href="#DejaVuSans-4d"/>
     <use x="156.103516" xlink:href="#DejaVuSans-41"/>
     <use x="224.511719" xlink:href="#DejaVuSans-20"/>
     <use x="256.298828" xlink:href="#DejaVuSans-45"/>
     <use x="319.482422" xlink:href="#DejaVuSans-53"/>
     <use x="382.958984" xlink:href="#DejaVuSans-20"/>
     <use x="414.746094" xlink:href="#DejaVuSans-50"/>
     <use x="475.048828" xlink:href="#DejaVuSans-50"/>
    </g>
   </g>
   <g id="text_14">
    <!-- scipyAlg -->
    <defs>
     <path d="M 32.171875 -5.078125 
Q 28.375 -14.84375 24.75 -17.8125 
Q 21.140625 -20.796875 15.09375 -20.796875 
L 7.90625 -20.796875 
L 7.90625 -13.28125 
L 13.1875 -13.28125 
Q 16.890625 -13.28125 18.9375 -11.515625 
Q 21 -9.765625 23.484375 -3.21875 
L 25.09375 0.875 
L 2.984375 54.6875 
L 12.5 54.6875 
L 29.59375 11.921875 
L 46.6875 54.6875 
L 56.203125 54.6875 
z
" id="DejaVuSans-79"/>
    </defs>
    <g transform="translate(369.18424 242.889274)scale(0.17 -0.17)">
     <use xlink:href="#DejaVuSans-73"/>
     <use x="52.099609" xlink:href="#DejaVuSans-63"/>
     <use x="107.080078" xlink:href="#DejaVuSans-69"/>
     <use x="134.863281" xlink:href="#DejaVuSans-70"/>
     <use x="198.339844" xlink:href="#DejaVuSans-79"/>
     <use x="257.519531" xlink:href="#DejaVuSans-41"/>
     <use x="325.927734" xlink:href="#DejaVuSans-6c"/>
     <use x="353.710938" xlink:href="#DejaVuSans-67"/>
    </g>
   </g>
   <g id="text_15">
    <!-- CMAES pos -->
    <g transform="translate(369.18424 191.554937)scale(0.17 -0.17)">
     <use xlink:href="#DejaVuSans-43"/>
     <use x="69.824219" xlink:href="#DejaVuSans-4d"/>
     <use x="156.103516" xlink:href="#DejaVuSans-41"/>
     <use x="224.511719" xlink:href="#DejaVuSans-45"/>
     <use x="287.695312" xlink:href="#DejaVuSans-53"/>
     <use x="351.171875" xlink:href="#DejaVuSans-20"/>
     <use x="382.958984" xlink:href="#DejaVuSans-70"/>
     <use x="446.435547" xlink:href="#DejaVuSans-6f"/>
     <use x="507.617188" xlink:href="#DejaVuSans-73"/>
    </g>
   </g>
   <g id="text_16">
    <!-- IPOP-ACTC -->
    <defs>
     <path d="M 9.8125 72.90625 
L 19.671875 72.90625 
L 19.671875 0 
L 9.8125 0 
z
" id="DejaVuSans-49"/>
     <path d="M 39.40625 66.21875 
Q 28.65625 66.21875 22.328125 58.203125 
Q 16.015625 50.203125 16.015625 36.375 
Q 16.015625 22.609375 22.328125 14.59375 
Q 28.65625 6.59375 39.40625 6.59375 
Q 50.140625 6.59375 56.421875 14.59375 
Q 62.703125 22.609375 62.703125 36.375 
Q 62.703125 50.203125 56.421875 58.203125 
Q 50.140625 66.21875 39.40625 66.21875 
z
M 39.40625 74.21875 
Q 54.734375 74.21875 63.90625 63.9375 
Q 73.09375 53.65625 73.09375 36.375 
Q 73.09375 19.140625 63.90625 8.859375 
Q 54.734375 -1.421875 39.40625 -1.421875 
Q 24.03125 -1.421875 14.8125 8.828125 
Q 5.609375 19.09375 5.609375 36.375 
Q 5.609375 53.65625 14.8125 63.9375 
Q 24.03125 74.21875 39.40625 74.21875 
z
" id="DejaVuSans-4f"/>
     <path d="M -0.296875 72.90625 
L 61.375 72.90625 
L 61.375 64.59375 
L 35.5 64.59375 
L 35.5 0 
L 25.59375 0 
L 25.59375 64.59375 
L -0.296875 64.59375 
z
" id="DejaVuSans-54"/>
    </defs>
    <g transform="translate(369.18424 140.220601)scale(0.17 -0.17)">
     <use xlink:href="#DejaVuSans-49"/>
     <use x="29.492188" xlink:href="#DejaVuSans-50"/>
     <use x="89.794922" xlink:href="#DejaVuSans-4f"/>
     <use x="168.505859" xlink:href="#DejaVuSans-50"/>
     <use x="228.777344" xlink:href="#DejaVuSans-2d"/>
     <use x="264.830078" xlink:href="#DejaVuSans-41"/>
     <use x="333.222656" xlink:href="#DejaVuSans-43"/>
     <use x="403.046875" xlink:href="#DejaVuSans-54"/>
     <use x="464.052734" xlink:href="#DejaVuSans-43"/>
    </g>
   </g>
   <g id="text_17">
    <!-- IPOP-CMA- -->
    <g transform="translate(369.18424 88.886264)scale(0.17 -0.17)">
     <use xlink:href="#DejaVuSans-49"/>
     <use x="29.492188" xlink:href="#DejaVuSans-50"/>
     <use x="89.794922" xlink:href="#DejaVuSans-4f"/>
     <use x="168.505859" xlink:href="#DejaVuSans-50"/>
     <use x="228.777344" xlink:href="#DejaVuSans-2d"/>
     <use x="264.861328" xlink:href="#DejaVuSans-43"/>
     <use x="334.685547" xlink:href="#DejaVuSans-4d"/>
     <use x="420.964844" xlink:href="#DejaVuSans-41"/>
     <use x="489.341797" xlink:href="#DejaVuSans-2d"/>
    </g>
   </g>
   <g id="text_18">
    <!-- best 2009 -->
    <defs>
     <path d="M 48.6875 27.296875 
Q 48.6875 37.203125 44.609375 42.84375 
Q 40.53125 48.484375 33.40625 48.484375 
Q 26.265625 48.484375 22.1875 42.84375 
Q 18.109375 37.203125 18.109375 27.296875 
Q 18.109375 17.390625 22.1875 11.75 
Q 26.265625 6.109375 33.40625 6.109375 
Q 40.53125 6.109375 44.609375 11.75 
Q 48.6875 17.390625 48.6875 27.296875 
z
M 18.109375 46.390625 
Q 20.953125 51.265625 25.265625 53.625 
Q 29.59375 56 35.59375 56 
Q 45.5625 56 51.78125 48.09375 
Q 58.015625 40.1875 58.015625 27.296875 
Q 58.015625 14.40625 51.78125 6.484375 
Q 45.5625 -1.421875 35.59375 -1.421875 
Q 29.59375 -1.421875 25.265625 0.953125 
Q 20.953125 3.328125 18.109375 8.203125 
L 18.109375 0 
L 9.078125 0 
L 9.078125 75.984375 
L 18.109375 75.984375 
z
" id="DejaVuSans-62"/>
     <path d="M 10.984375 1.515625 
L 10.984375 10.5 
Q 14.703125 8.734375 18.5 7.8125 
Q 22.3125 6.890625 25.984375 6.890625 
Q 35.75 6.890625 40.890625 13.453125 
Q 46.046875 20.015625 46.78125 33.40625 
Q 43.953125 29.203125 39.59375 26.953125 
Q 35.25 24.703125 29.984375 24.703125 
Q 19.046875 24.703125 12.671875 31.3125 
Q 6.296875 37.9375 6.296875 49.421875 
Q 6.296875 60.640625 12.9375 67.421875 
Q 19.578125 74.21875 30.609375 74.21875 
Q 43.265625 74.21875 49.921875 64.515625 
Q 56.59375 54.828125 56.59375 36.375 
Q 56.59375 19.140625 48.40625 8.859375 
Q 40.234375 -1.421875 26.421875 -1.421875 
Q 22.703125 -1.421875 18.890625 -0.6875 
Q 15.09375 0.046875 10.984375 1.515625 
z
M 30.609375 32.421875 
Q 37.25 32.421875 41.125 36.953125 
Q 45.015625 41.5 45.015625 49.421875 
Q 45.015625 57.28125 41.125 61.84375 
Q 37.25 66.40625 30.609375 66.40625 
Q 23.96875 66.40625 20.09375 61.84375 
Q 16.21875 57.28125 16.21875 49.421875 
Q 16.21875 41.5 20.09375 36.953125 
Q 23.96875 32.421875 30.609375 32.421875 
z
" id="DejaVuSans-39"/>
    </defs>
    <g transform="translate(369.18424 37.551928)scale(0.17 -0.17)">
     <use xlink:href="#DejaVuSans-62"/>
     <use x="63.476562" xlink:href="#DejaVuSans-65"/>
     <use x="125" xlink:href="#DejaVuSans-73"/>
     <use x="177.099609" xlink:href="#DejaVuSans-74"/>
     <use x="216.308594" xlink:href="#DejaVuSans-20"/>
     <use x="248.095703" xlink:href="#DejaVuSans-32"/>
     <use x="311.71875" xlink:href="#DejaVuSans-30"/>
     <use x="375.341797" xlink:href="#DejaVuSans-30"/>
     <use x="438.964844" xlink:href="#DejaVuSans-39"/>
    </g>
   </g>
   <g id="text_19">
    <!-- bbob f19, 3-D -->
    <defs>
     <path d="M 40.578125 39.3125 
Q 47.65625 37.796875 51.625 33 
Q 55.609375 28.21875 55.609375 21.1875 
Q 55.609375 10.40625 48.1875 4.484375 
Q 40.765625 -1.421875 27.09375 -1.421875 
Q 22.515625 -1.421875 17.65625 -0.515625 
Q 12.796875 0.390625 7.625 2.203125 
L 7.625 11.71875 
Q 11.71875 9.328125 16.59375 8.109375 
Q 21.484375 6.890625 26.8125 6.890625 
Q 36.078125 6.890625 40.9375 10.546875 
Q 45.796875 14.203125 45.796875 21.1875 
Q 45.796875 27.640625 41.28125 31.265625 
Q 36.765625 34.90625 28.71875 34.90625 
L 20.21875 34.90625 
L 20.21875 43.015625 
L 29.109375 43.015625 
Q 36.375 43.015625 40.234375 45.921875 
Q 44.09375 48.828125 44.09375 54.296875 
Q 44.09375 59.90625 40.109375 62.90625 
Q 36.140625 65.921875 28.71875 65.921875 
Q 24.65625 65.921875 20.015625 65.03125 
Q 15.375 64.15625 9.8125 62.3125 
L 9.8125 71.09375 
Q 15.4375 72.65625 20.34375 73.4375 
Q 25.25 74.21875 29.59375 74.21875 
Q 40.828125 74.21875 47.359375 69.109375 
Q 53.90625 64.015625 53.90625 55.328125 
Q 53.90625 49.265625 50.4375 45.09375 
Q 46.96875 40.921875 40.578125 39.3125 
z
" id="DejaVuSans-33"/>
     <path d="M 19.671875 64.796875 
L 19.671875 8.109375 
L 31.59375 8.109375 
Q 46.6875 8.109375 53.6875 14.9375 
Q 60.6875 21.78125 60.6875 36.53125 
Q 60.6875 51.171875 53.6875 57.984375 
Q 46.6875 64.796875 31.59375 64.796875 
z
M 9.8125 72.90625 
L 30.078125 72.90625 
Q 51.265625 72.90625 61.171875 64.09375 
Q 71.09375 55.28125 71.09375 36.53125 
Q 71.09375 17.671875 61.125 8.828125 
Q 51.171875 0 30.078125 0 
L 9.8125 0 
z
" id="DejaVuSans-44"/>
    </defs>
    <g transform="translate(58.89048 35.290806)scale(0.102 -0.102)">
     <use xlink:href="#DejaVuSans-62"/>
     <use x="63.476562" xlink:href="#DejaVuSans-62"/>
     <use x="126.953125" xlink:href="#DejaVuSans-6f"/>
     <use x="188.134766" xlink:href="#DejaVuSans-62"/>
     <use x="251.611328" xlink:href="#DejaVuSans-20"/>
     <use x="283.398438" xlink:href="#DejaVuSans-66"/>
     <use x="318.603516" xlink:href="#DejaVuSans-31"/>
     <use x="382.226562" xlink:href="#DejaVuSans-39"/>
     <use x="445.849609" xlink:href="#DejaVuSans-2c"/>
     <use x="477.636719" xlink:href="#DejaVuSans-20"/>
     <use x="509.423828" xlink:href="#DejaVuSans-33"/>
     <use x="573.046875" xlink:href="#DejaVuSans-2d"/>
     <use x="609.130859" xlink:href="#DejaVuSans-44"/>
    </g>
    <!-- 51 targets: 100..1e-08 -->
    <defs>
     <path d="M 10.796875 72.90625 
L 49.515625 72.90625 
L 49.515625 64.59375 
L 19.828125 64.59375 
L 19.828125 46.734375 
Q 21.96875 47.46875 24.109375 47.828125 
Q 26.265625 48.1875 28.421875 48.1875 
Q 40.625 48.1875 47.75 41.5 
Q 54.890625 34.8125 54.890625 23.390625 
Q 54.890625 11.625 47.5625 5.09375 
Q 40.234375 -1.421875 26.90625 -1.421875 
Q 22.3125 -1.421875 17.546875 -0.640625 
Q 12.796875 0.140625 7.71875 1.703125 
L 7.71875 11.625 
Q 12.109375 9.234375 16.796875 8.0625 
Q 21.484375 6.890625 26.703125 6.890625 
Q 35.15625 6.890625 40.078125 11.328125 
Q 45.015625 15.765625 45.015625 23.390625 
Q 45.015625 31 40.078125 35.4375 
Q 35.15625 39.890625 26.703125 39.890625 
Q 22.75 39.890625 18.8125 39.015625 
Q 14.890625 38.140625 10.796875 36.28125 
z
" id="DejaVuSans-35"/>
     <path d="M 11.71875 12.40625 
L 22.015625 12.40625 
L 22.015625 0 
L 11.71875 0 
z
M 11.71875 51.703125 
L 22.015625 51.703125 
L 22.015625 39.3125 
L 11.71875 39.3125 
z
" id="DejaVuSans-3a"/>
    </defs>
    <g transform="translate(58.89048 46.712575)scale(0.102 -0.102)">
     <use xlink:href="#DejaVuSans-35"/>
     <use x="63.623047" xlink:href="#DejaVuSans-31"/>
     <use x="127.246094" xlink:href="#DejaVuSans-20"/>
     <use x="159.033203" xlink:href="#DejaVuSans-74"/>
     <use x="198.242188" xlink:href="#DejaVuSans-61"/>
     <use x="259.521484" xlink:href="#DejaVuSans-72"/>
     <use x="300.619141" xlink:href="#DejaVuSans-67"/>
     <use x="364.095703" xlink:href="#DejaVuSans-65"/>
     <use x="425.619141" xlink:href="#DejaVuSans-74"/>
     <use x="464.828125" xlink:href="#DejaVuSans-73"/>
     <use x="516.927734" xlink:href="#DejaVuSans-3a"/>
     <use x="550.619141" xlink:href="#DejaVuSans-20"/>
     <use x="582.40625" xlink:href="#DejaVuSans-31"/>
     <use x="646.029297" xlink:href="#DejaVuSans-30"/>
     <use x="709.652344" xlink:href="#DejaVuSans-30"/>
     <use x="773.275391" xlink:href="#DejaVuSans-2e"/>
     <use x="805.0625" xlink:href="#DejaVuSans-2e"/>
     <use x="836.849609" xlink:href="#DejaVuSans-31"/>
     <use x="900.472656" xlink:href="#DejaVuSans-65"/>
     <use x="961.996094" xlink:href="#DejaVuSans-2d"/>
     <use x="998.080078" xlink:href="#DejaVuSans-30"/>
     <use x="1061.703125" xlink:href="#DejaVuSans-38"/>
    </g>
    <!-- 15 instances -->
    <g transform="translate(58.89048 58.134344)scale(0.102 -0.102)">
     <use xlink:href="#DejaVuSans-31"/>
     <use x="63.623047" xlink:href="#DejaVuSans-35"/>
     <use x="127.246094" xlink:href="#DejaVuSans-20"/>
     <use x="159.033203" xlink:href="#DejaVuSans-69"/>
     <use x="186.816406" xlink:href="#DejaVuSans-6e"/>
     <use x="250.195312" xlink:href="#DejaVuSans-73"/>
     <use x="302.294922" xlink:href="#DejaVuSans-74"/>
     <use x="341.503906" xlink:href="#DejaVuSans-61"/>
     <use x="402.783203" xlink:href="#DejaVuSans-6e"/>
     <use x="466.162109" xlink:href="#DejaVuSans-63"/>
     <use x="521.142578" xlink:href="#DejaVuSans-65"/>
     <use x="582.666016" xlink:href="#DejaVuSans-73"/>
    </g>
   </g>
   <g id="text_20">
    <!-- v0.0.0 -->
    <g style="fill:#808080;" transform="translate(178.96275 290.099912)scale(0.1 -0.1)">
     <use xlink:href="#DejaVuSans-76"/>
     <use x="59.179688" xlink:href="#DejaVuSans-30"/>
     <use x="122.802734" xlink:href="#DejaVuSans-2e"/>
     <use x="154.589844" xlink:href="#DejaVuSans-30"/>
     <use x="218.212891" xlink:href="#DejaVuSans-2e"/>
     <use x="250" xlink:href="#DejaVuSans-30"/>
    </g>
   </g>
   <g id="text_21">
    <!-- 19 Griewank-Rosenbrock F8F2 -->
    <defs>
     <path d="M 59.515625 10.40625 
L 59.515625 29.984375 
L 43.40625 29.984375 
L 43.40625 38.09375 
L 69.28125 38.09375 
L 69.28125 6.78125 
Q 63.578125 2.734375 56.6875 0.65625 
Q 49.8125 -1.421875 42 -1.421875 
Q 24.90625 -1.421875 15.25 8.5625 
Q 5.609375 18.5625 5.609375 36.375 
Q 5.609375 54.25 15.25 64.234375 
Q 24.90625 74.21875 42 74.21875 
Q 49.125 74.21875 55.546875 72.453125 
Q 61.96875 70.703125 67.390625 67.28125 
L 67.390625 56.78125 
Q 61.921875 61.421875 55.765625 63.765625 
Q 49.609375 66.109375 42.828125 66.109375 
Q 29.4375 66.109375 22.71875 58.640625 
Q 16.015625 51.171875 16.015625 36.375 
Q 16.015625 21.625 22.71875 14.15625 
Q 29.4375 6.6875 42.828125 6.6875 
Q 48.046875 6.6875 52.140625 7.59375 
Q 56.25 8.5 59.515625 10.40625 
z
" id="DejaVuSans-47"/>
     <path d="M 4.203125 54.6875 
L 13.1875 54.6875 
L 24.421875 12.015625 
L 35.59375 54.6875 
L 46.1875 54.6875 
L 57.421875 12.015625 
L 68.609375 54.6875 
L 77.59375 54.6875 
L 63.28125 0 
L 52.6875 0 
L 40.921875 44.828125 
L 29.109375 0 
L 18.5 0 
z
" id="DejaVuSans-77"/>
     <path d="M 9.078125 75.984375 
L 18.109375 75.984375 
L 18.109375 31.109375 
L 44.921875 54.6875 
L 56.390625 54.6875 
L 27.390625 29.109375 
L 57.625 0 
L 45.90625 0 
L 18.109375 26.703125 
L 18.109375 0 
L 9.078125 0 
z
" id="DejaVuSans-6b"/>
     <path d="M 44.390625 34.1875 
Q 47.5625 33.109375 50.5625 29.59375 
Q 53.5625 26.078125 56.59375 19.921875 
L 66.609375 0 
L 56 0 
L 46.6875 18.703125 
Q 43.0625 26.03125 39.671875 28.421875 
Q 36.28125 30.8125 30.421875 30.8125 
L 19.671875 30.8125 
L 19.671875 0 
L 9.8125 0 
L 9.8125 72.90625 
L 32.078125 72.90625 
Q 44.578125 72.90625 50.734375 67.671875 
Q 56.890625 62.453125 56.890625 51.90625 
Q 56.890625 45.015625 53.6875 40.46875 
Q 50.484375 35.9375 44.390625 34.1875 
z
M 19.671875 64.796875 
L 19.671875 38.921875 
L 32.078125 38.921875 
Q 39.203125 38.921875 42.84375 42.21875 
Q 46.484375 45.515625 46.484375 51.90625 
Q 46.484375 58.296875 42.84375 61.546875 
Q 39.203125 64.796875 32.078125 64.796875 
z
" id="DejaVuSans-52"/>
    </defs>
    <g transform="translate(41.876812 18.84)scale(0.2 -0.2)">
     <use xlink:href="#DejaVuSans-31"/>
     <use x="63.623047" xlink:href="#DejaVuSans-39"/>
     <use x="127.246094" xlink:href="#DejaVuSans-20"/>
     <use x="159.033203" xlink:href="#DejaVuSans-47"/>
     <use x="236.523438" xlink:href="#DejaVuSans-72"/>
     <use x="277.636719" xlink:href="#DejaVuSans-69"/>
     <use x="305.419922" xlink:href="#DejaVuSans-65"/>
     <use x="366.943359" xlink:href="#DejaVuSans-77"/>
     <use x="448.730469" xlink:href="#DejaVuSans-61"/>
     <use x="510.009766" xlink:href="#DejaVuSans-6e"/>
     <use x="573.388672" xlink:href="#DejaVuSans-6b"/>
     <use x="631.298828" xlink:href="#DejaVuSans-2d"/>
     <use x="667.382812" xlink:href="#DejaVuSans-52"/>
     <use x="736.802734" xlink:href="#DejaVuSans-6f"/>
     <use x="797.984375" xlink:href="#DejaVuSans-73"/>
     <use x="850.083984" xlink:href="#DejaVuSans-65"/>
     <use x="911.607422" xlink:href="#DejaVuSans-6e"/>
     <use x="974.986328" xlink:href="#DejaVuSans-62"/>
     <use x="1038.462891" xlink:href="#DejaVuSans-72"/>
     <use x="1079.544922" xlink:href="#DejaVuSans-6f"/>
     <use x="1140.726562" xlink:href="#DejaVuSans-63"/>
     <use x="1195.707031" xlink:href="#DejaVuSans-6b"/>
     <use x="1253.617188" xlink:href="#DejaVuSans-20"/>
     <use x="1285.404297" xlink:href="#DejaVuSans-46"/>
     <use x="1342.923828" xlink:href="#DejaVuSans-38"/>
     <use x="1406.546875" xlink:href="#DejaVuSans-46"/>
     <use x="1464.066406" xlink:href="#DejaVuSans-32"/>
    </g>
   </g>
  </g>
 </g>
 <defs>
  <clipPath id="pa24ac62498">
   <rect height="270.04" width="277.048" x="56.12" y="24.84"/>
  </clipPath>
 </defs>
</svg>
