<?xml version="1.0" encoding="utf-8" standalone="no"?>
<!DOCTYPE svg PUBLIC "-//W3C//DTD SVG 1.1//EN"
  "http://www.w3.org/Graphics/SVG/1.1/DTD/svg11.dtd">
<!-- Created with matplotlib (http://matplotlib.org/) -->
<svg height="345pt" version="1.1" viewBox="0 0 460 345" width="460pt" xmlns="http://www.w3.org/2000/svg" xmlns:xlink="http://www.w3.org/1999/xlink">
 <defs>
  <style type="text/css">
*{stroke-linecap:butt;stroke-linejoin:round;}
  </style>
 </defs>
 <g id="figure_1">
  <g id="patch_1">
   <path d="M 0 345.6 
L 460.8 345.6 
L 460.8 0 
L 0 0 
z
" style="fill:#ffffff;"/>
  </g>
  <g id="axes_1">
   <g id="patch_2">
    <path d="M 56.12 294.88 
L 333.168 294.88 
L 333.168 24.84 
L 56.12 24.84 
z
" style="fill:#ffffff;"/>
   </g>
   <g id="line2d_1">
    <path d="M 37.236359 294.88 
L 37.236359 284.395046 
L 64.900393 284.395046 
L 64.900393 279.152568 
L 81.324327 279.152568 
L 81.324327 273.910091 
L 103.415125 273.910091 
L 103.415125 268.667614 
L 115.869378 268.667614 
L 115.869378 263.425137 
L 139.43 263.425137 
L 139.43 258.18266 
L 161.519841 258.18266 
L 161.519841 252.940182 
L 180.076788 252.940182 
L 180.076788 247.697705 
L 186.215997 247.697705 
L 186.215997 242.455228 
L 196.208771 242.455228 
L 196.208771 237.212751 
L 207.001227 237.212751 
L 207.001227 231.970274 
L 213.744594 231.970274 
L 213.744594 226.727797 
L 220.341011 226.727797 
L 220.341011 221.485319 
L 224.305668 221.485319 
L 224.305668 216.242842 
L 235.578025 216.242842 
L 235.578025 211.000365 
L 239.456703 211.000365 
L 239.456703 205.757888 
L 249.722859 205.757888 
L 249.722859 200.515411 
L 257.026418 200.515411 
L 257.026418 195.272933 
L 257.026466 195.272933 
L 257.026466 190.030456 
L 257.02661 190.030456 
L 257.02661 111.393298 
L 257.026803 111.393298 
L 257.026803 106.150821 
L 257.026851 106.150821 
L 257.026851 100.908344 
L 257.026899 100.908344 
L 257.026899 79.938435 
L 257.027187 79.938435 
L 257.027187 27.513663 
L 333.168 27.513663 
" style="fill:none;stroke:#f5deb3;stroke-linecap:square;stroke-width:4;"/>
   </g>
   <g id="line2d_2">
    <defs>
     <path d="M -0 7.778175 
L 7.778175 0 
L 0 -7.778175 
L -7.778175 -0 
z
" id="m30a59780de" style="stroke:#f5deb3;stroke-linejoin:miter;stroke-width:1.5;"/>
    </defs>
    <g>
     <use style="fill:#f5deb3;stroke:#f5deb3;stroke-linejoin:miter;stroke-width:1.5;" x="180.076788" xlink:href="#m30a59780de" y="247.697705"/>
     <use style="fill:#f5deb3;stroke:#f5deb3;stroke-linejoin:miter;stroke-width:1.5;" x="239.456703" xlink:href="#m30a59780de" y="205.757888"/>
     <use style="fill:#f5deb3;stroke:#f5deb3;stroke-linejoin:miter;stroke-width:1.5;" x="257.026851" xlink:href="#m30a59780de" y="100.908344"/>
     <use style="fill:#f5deb3;stroke:#f5deb3;stroke-linejoin:miter;stroke-width:1.5;" x="257.027187" xlink:href="#m30a59780de" y="27.513663"/>
     <use style="fill:#f5deb3;stroke:#f5deb3;stroke-linejoin:miter;stroke-width:1.5;" x="257.027187" xlink:href="#m30a59780de" y="27.513663"/>
     <use style="fill:#f5deb3;stroke:#f5deb3;stroke-linejoin:miter;stroke-width:1.5;" x="333.168" xlink:href="#m30a59780de" y="27.513663"/>
    </g>
   </g>
   <g id="line2d_3">
    <path style="fill:none;stroke:#f5deb3;stroke-linecap:square;stroke-width:4;"/>
    <g/>
   </g>
   <g id="line2d_4">
    <path d="M 333.168 27.513663 
L 363.64328 32.86099 
" style="fill:none;stroke:#f5deb3;stroke-linecap:square;stroke-width:4;"/>
    <g>
     <use style="fill:#f5deb3;stroke:#f5deb3;stroke-linejoin:miter;stroke-width:1.5;" x="333.168" xlink:href="#m30a59780de" y="27.513663"/>
     <use style="fill:#f5deb3;stroke:#f5deb3;stroke-linejoin:miter;stroke-width:1.5;" x="363.64328" xlink:href="#m30a59780de" y="32.86099"/>
    </g>
   </g>
   <g id="matplotlib.axis_1">
    <g id="xtick_1">
     <g id="line2d_5">
      <path clip-path="url(#pa289246a5f)" d="M 56.12 294.88 
L 56.12 24.84 
" style="fill:none;stroke:#b0b0b0;stroke-linecap:square;stroke-width:0.8;"/>
     </g>
     <g id="line2d_6">
      <defs>
       <path d="M 0 0 
L 0 3.5 
" id="md470b8c418" style="stroke:#000000;stroke-width:0.8;"/>
      </defs>
      <g>
       <use style="stroke:#000000;stroke-width:0.8;" x="56.12" xlink:href="#md470b8c418" y="294.88"/>
      </g>
     </g>
     <g id="text_1">
      <!-- 0 -->
      <defs>
       <path d="M 31.78125 66.40625 
Q 24.171875 66.40625 20.328125 58.90625 
Q 16.5 51.421875 16.5 36.375 
Q 16.5 21.390625 20.328125 13.890625 
Q 24.171875 6.390625 31.78125 6.390625 
Q 39.453125 6.390625 43.28125 13.890625 
Q 47.125 21.390625 47.125 36.375 
Q 47.125 51.421875 43.28125 58.90625 
Q 39.453125 66.40625 31.78125 66.40625 
z
M 31.78125 74.21875 
Q 44.046875 74.21875 50.515625 64.515625 
Q 56.984375 54.828125 56.984375 36.375 
Q 56.984375 17.96875 50.515625 8.265625 
Q 44.046875 -1.421875 31.78125 -1.421875 
Q 19.53125 -1.421875 13.0625 8.265625 
Q 6.59375 17.96875 6.59375 36.375 
Q 6.59375 54.828125 13.0625 64.515625 
Q 19.53125 74.21875 31.78125 74.21875 
z
" id="DejaVuSans-30"/>
      </defs>
      <g transform="translate(49.7575 317.076875)scale(0.2 -0.2)">
       <use xlink:href="#DejaVuSans-30"/>
      </g>
     </g>
    </g>
    <g id="xtick_2">
     <g id="line2d_7">
      <path clip-path="url(#pa289246a5f)" d="M 135.276571 294.88 
L 135.276571 24.84 
" style="fill:none;stroke:#b0b0b0;stroke-linecap:square;stroke-width:0.8;"/>
     </g>
     <g id="line2d_8">
      <g>
       <use style="stroke:#000000;stroke-width:0.8;" x="135.276571" xlink:href="#md470b8c418" y="294.88"/>
      </g>
     </g>
     <g id="text_2">
      <!-- 2 -->
      <defs>
       <path d="M 19.1875 8.296875 
L 53.609375 8.296875 
L 53.609375 0 
L 7.328125 0 
L 7.328125 8.296875 
Q 12.9375 14.109375 22.625 23.890625 
Q 32.328125 33.6875 34.8125 36.53125 
Q 39.546875 41.84375 41.421875 45.53125 
Q 43.3125 49.21875 43.3125 52.78125 
Q 43.3125 58.59375 39.234375 62.25 
Q 35.15625 65.921875 28.609375 65.921875 
Q 23.96875 65.921875 18.8125 64.3125 
Q 13.671875 62.703125 7.8125 59.421875 
L 7.8125 69.390625 
Q 13.765625 71.78125 18.9375 73 
Q 24.125 74.21875 28.421875 74.21875 
Q 39.75 74.21875 46.484375 68.546875 
Q 53.21875 62.890625 53.21875 53.421875 
Q 53.21875 48.921875 51.53125 44.890625 
Q 49.859375 40.875 45.40625 35.40625 
Q 44.1875 33.984375 37.640625 27.21875 
Q 31.109375 20.453125 19.1875 8.296875 
z
" id="DejaVuSans-32"/>
      </defs>
      <g transform="translate(128.914071 317.076875)scale(0.2 -0.2)">
       <use xlink:href="#DejaVuSans-32"/>
      </g>
     </g>
    </g>
    <g id="xtick_3">
     <g id="line2d_9">
      <path clip-path="url(#pa289246a5f)" d="M 214.433143 294.88 
L 214.433143 24.84 
" style="fill:none;stroke:#b0b0b0;stroke-linecap:square;stroke-width:0.8;"/>
     </g>
     <g id="line2d_10">
      <g>
       <use style="stroke:#000000;stroke-width:0.8;" x="214.433143" xlink:href="#md470b8c418" y="294.88"/>
      </g>
     </g>
     <g id="text_3">
      <!-- 4 -->
      <defs>
       <path d="M 37.796875 64.3125 
L 12.890625 25.390625 
L 37.796875 25.390625 
z
M 35.203125 72.90625 
L 47.609375 72.90625 
L 47.609375 25.390625 
L 58.015625 25.390625 
L 58.015625 17.1875 
L 47.609375 17.1875 
L 47.609375 0 
L 37.796875 0 
L 37.796875 17.1875 
L 4.890625 17.1875 
L 4.890625 26.703125 
z
" id="DejaVuSans-34"/>
      </defs>
      <g transform="translate(208.070643 317.076875)scale(0.2 -0.2)">
       <use xlink:href="#DejaVuSans-34"/>
      </g>
     </g>
    </g>
    <g id="xtick_4">
     <g id="line2d_11">
      <path clip-path="url(#pa289246a5f)" d="M 293.589714 294.88 
L 293.589714 24.84 
" style="fill:none;stroke:#b0b0b0;stroke-linecap:square;stroke-width:0.8;"/>
     </g>
     <g id="line2d_12">
      <g>
       <use style="stroke:#000000;stroke-width:0.8;" x="293.589714" xlink:href="#md470b8c418" y="294.88"/>
      </g>
     </g>
     <g id="text_4">
      <!-- 6 -->
      <defs>
       <path d="M 33.015625 40.375 
Q 26.375 40.375 22.484375 35.828125 
Q 18.609375 31.296875 18.609375 23.390625 
Q 18.609375 15.53125 22.484375 10.953125 
Q 26.375 6.390625 33.015625 6.390625 
Q 39.65625 6.390625 43.53125 10.953125 
Q 47.40625 15.53125 47.40625 23.390625 
Q 47.40625 31.296875 43.53125 35.828125 
Q 39.65625 40.375 33.015625 40.375 
z
M 52.59375 71.296875 
L 52.59375 62.3125 
Q 48.875 64.0625 45.09375 64.984375 
Q 41.3125 65.921875 37.59375 65.921875 
Q 27.828125 65.921875 22.671875 59.328125 
Q 17.53125 52.734375 16.796875 39.40625 
Q 19.671875 43.65625 24.015625 45.921875 
Q 28.375 48.1875 33.59375 48.1875 
Q 44.578125 48.1875 50.953125 41.515625 
Q 57.328125 34.859375 57.328125 23.390625 
Q 57.328125 12.15625 50.6875 5.359375 
Q 44.046875 -1.421875 33.015625 -1.421875 
Q 20.359375 -1.421875 13.671875 8.265625 
Q 6.984375 17.96875 6.984375 36.375 
Q 6.984375 53.65625 15.1875 63.9375 
Q 23.390625 74.21875 37.203125 74.21875 
Q 40.921875 74.21875 44.703125 73.484375 
Q 48.484375 72.75 52.59375 71.296875 
z
" id="DejaVuSans-36"/>
      </defs>
      <g transform="translate(287.227214 317.076875)scale(0.2 -0.2)">
       <use xlink:href="#DejaVuSans-36"/>
      </g>
     </g>
    </g>
    <g id="xtick_5">
     <g id="line2d_13">
      <path clip-path="url(#pa289246a5f)" d="M 56.12 294.88 
L 56.12 24.84 
" style="fill:none;stroke:#b0b0b0;stroke-linecap:square;stroke-width:0.8;"/>
     </g>
     <g id="line2d_14">
      <defs>
       <path d="M 0 0 
L 0 2 
" id="m60fa337d75" style="stroke:#000000;stroke-width:0.6;"/>
      </defs>
      <g>
       <use style="stroke:#000000;stroke-width:0.6;" x="56.12" xlink:href="#m60fa337d75" y="294.88"/>
      </g>
     </g>
    </g>
    <g id="xtick_6">
     <g id="line2d_15">
      <path clip-path="url(#pa289246a5f)" d="M 95.698286 294.88 
L 95.698286 24.84 
" style="fill:none;stroke:#b0b0b0;stroke-linecap:square;stroke-width:0.8;"/>
     </g>
     <g id="line2d_16">
      <g>
       <use style="stroke:#000000;stroke-width:0.6;" x="95.698286" xlink:href="#m60fa337d75" y="294.88"/>
      </g>
     </g>
    </g>
    <g id="xtick_7">
     <g id="line2d_17">
      <path clip-path="url(#pa289246a5f)" d="M 135.276571 294.88 
L 135.276571 24.84 
" style="fill:none;stroke:#b0b0b0;stroke-linecap:square;stroke-width:0.8;"/>
     </g>
     <g id="line2d_18">
      <g>
       <use style="stroke:#000000;stroke-width:0.6;" x="135.276571" xlink:href="#m60fa337d75" y="294.88"/>
      </g>
     </g>
    </g>
    <g id="xtick_8">
     <g id="line2d_19">
      <path clip-path="url(#pa289246a5f)" d="M 174.854857 294.88 
L 174.854857 24.84 
" style="fill:none;stroke:#b0b0b0;stroke-linecap:square;stroke-width:0.8;"/>
     </g>
     <g id="line2d_20">
      <g>
       <use style="stroke:#000000;stroke-width:0.6;" x="174.854857" xlink:href="#m60fa337d75" y="294.88"/>
      </g>
     </g>
    </g>
    <g id="xtick_9">
     <g id="line2d_21">
      <path clip-path="url(#pa289246a5f)" d="M 214.433143 294.88 
L 214.433143 24.84 
" style="fill:none;stroke:#b0b0b0;stroke-linecap:square;stroke-width:0.8;"/>
     </g>
     <g id="line2d_22">
      <g>
       <use style="stroke:#000000;stroke-width:0.6;" x="214.433143" xlink:href="#m60fa337d75" y="294.88"/>
      </g>
     </g>
    </g>
    <g id="xtick_10">
     <g id="line2d_23">
      <path clip-path="url(#pa289246a5f)" d="M 254.011429 294.88 
L 254.011429 24.84 
" style="fill:none;stroke:#b0b0b0;stroke-linecap:square;stroke-width:0.8;"/>
     </g>
     <g id="line2d_24">
      <g>
       <use style="stroke:#000000;stroke-width:0.6;" x="254.011429" xlink:href="#m60fa337d75" y="294.88"/>
      </g>
     </g>
    </g>
    <g id="xtick_11">
     <g id="line2d_25">
      <path clip-path="url(#pa289246a5f)" d="M 293.589714 294.88 
L 293.589714 24.84 
" style="fill:none;stroke:#b0b0b0;stroke-linecap:square;stroke-width:0.8;"/>
     </g>
     <g id="line2d_26">
      <g>
       <use style="stroke:#000000;stroke-width:0.6;" x="293.589714" xlink:href="#m60fa337d75" y="294.88"/>
      </g>
     </g>
    </g>
    <g id="xtick_12">
     <g id="line2d_27">
      <path clip-path="url(#pa289246a5f)" d="M 333.168 294.88 
L 333.168 24.84 
" style="fill:none;stroke:#b0b0b0;stroke-linecap:square;stroke-width:0.8;"/>
     </g>
     <g id="line2d_28">
      <g>
       <use style="stroke:#000000;stroke-width:0.6;" x="333.168" xlink:href="#m60fa337d75" y="294.88"/>
      </g>
     </g>
    </g>
    <g id="text_5">
     <!-- log10(# f-evals / dimension) -->
     <defs>
      <path d="M 9.421875 75.984375 
L 18.40625 75.984375 
L 18.40625 0 
L 9.421875 0 
z
" id="DejaVuSans-6c"/>
      <path d="M 30.609375 48.390625 
Q 23.390625 48.390625 19.1875 42.75 
Q 14.984375 37.109375 14.984375 27.296875 
Q 14.984375 17.484375 19.15625 11.84375 
Q 23.34375 6.203125 30.609375 6.203125 
Q 37.796875 6.203125 41.984375 11.859375 
Q 46.1875 17.53125 46.1875 27.296875 
Q 46.1875 37.015625 41.984375 42.703125 
Q 37.796875 48.390625 30.609375 48.390625 
z
M 30.609375 56 
Q 42.328125 56 49.015625 48.375 
Q 55.71875 40.765625 55.71875 27.296875 
Q 55.71875 13.875 49.015625 6.21875 
Q 42.328125 -1.421875 30.609375 -1.421875 
Q 18.84375 -1.421875 12.171875 6.21875 
Q 5.515625 13.875 5.515625 27.296875 
Q 5.515625 40.765625 12.171875 48.375 
Q 18.84375 56 30.609375 56 
z
" id="DejaVuSans-6f"/>
      <path d="M 45.40625 27.984375 
Q 45.40625 37.75 41.375 43.109375 
Q 37.359375 48.484375 30.078125 48.484375 
Q 22.859375 48.484375 18.828125 43.109375 
Q 14.796875 37.75 14.796875 27.984375 
Q 14.796875 18.265625 18.828125 12.890625 
Q 22.859375 7.515625 30.078125 7.515625 
Q 37.359375 7.515625 41.375 12.890625 
Q 45.40625 18.265625 45.40625 27.984375 
z
M 54.390625 6.78125 
Q 54.390625 -7.171875 48.1875 -13.984375 
Q 42 -20.796875 29.203125 -20.796875 
Q 24.46875 -20.796875 20.265625 -20.09375 
Q 16.0625 -19.390625 12.109375 -17.921875 
L 12.109375 -9.1875 
Q 16.0625 -11.328125 19.921875 -12.34375 
Q 23.78125 -13.375 27.78125 -13.375 
Q 36.625 -13.375 41.015625 -8.765625 
Q 45.40625 -4.15625 45.40625 5.171875 
L 45.40625 9.625 
Q 42.625 4.78125 38.28125 2.390625 
Q 33.9375 0 27.875 0 
Q 17.828125 0 11.671875 7.65625 
Q 5.515625 15.328125 5.515625 27.984375 
Q 5.515625 40.671875 11.671875 48.328125 
Q 17.828125 56 27.875 56 
Q 33.9375 56 38.28125 53.609375 
Q 42.625 51.21875 45.40625 46.390625 
L 45.40625 54.6875 
L 54.390625 54.6875 
z
" id="DejaVuSans-67"/>
      <path d="M 12.40625 8.296875 
L 28.515625 8.296875 
L 28.515625 63.921875 
L 10.984375 60.40625 
L 10.984375 69.390625 
L 28.421875 72.90625 
L 38.28125 72.90625 
L 38.28125 8.296875 
L 54.390625 8.296875 
L 54.390625 0 
L 12.40625 0 
z
" id="DejaVuSans-31"/>
      <path d="M 31 75.875 
Q 24.46875 64.65625 21.28125 53.65625 
Q 18.109375 42.671875 18.109375 31.390625 
Q 18.109375 20.125 21.3125 9.0625 
Q 24.515625 -2 31 -13.1875 
L 23.1875 -13.1875 
Q 15.875 -1.703125 12.234375 9.375 
Q 8.59375 20.453125 8.59375 31.390625 
Q 8.59375 42.28125 12.203125 53.3125 
Q 15.828125 64.359375 23.1875 75.875 
z
" id="DejaVuSans-28"/>
      <path d="M 51.125 44 
L 36.921875 44 
L 32.8125 27.6875 
L 47.125 27.6875 
z
M 43.796875 71.78125 
L 38.71875 51.515625 
L 52.984375 51.515625 
L 58.109375 71.78125 
L 65.921875 71.78125 
L 60.890625 51.515625 
L 76.125 51.515625 
L 76.125 44 
L 58.984375 44 
L 54.984375 27.6875 
L 70.515625 27.6875 
L 70.515625 20.21875 
L 53.078125 20.21875 
L 48 0 
L 40.1875 0 
L 45.21875 20.21875 
L 30.90625 20.21875 
L 25.875 0 
L 18.015625 0 
L 23.09375 20.21875 
L 7.71875 20.21875 
L 7.71875 27.6875 
L 24.90625 27.6875 
L 29 44 
L 13.28125 44 
L 13.28125 51.515625 
L 30.90625 51.515625 
L 35.890625 71.78125 
z
" id="DejaVuSans-23"/>
      <path id="DejaVuSans-20"/>
      <path d="M 37.109375 75.984375 
L 37.109375 68.5 
L 28.515625 68.5 
Q 23.6875 68.5 21.796875 66.546875 
Q 19.921875 64.59375 19.921875 59.515625 
L 19.921875 54.6875 
L 34.71875 54.6875 
L 34.71875 47.703125 
L 19.921875 47.703125 
L 19.921875 0 
L 10.890625 0 
L 10.890625 47.703125 
L 2.296875 47.703125 
L 2.296875 54.6875 
L 10.890625 54.6875 
L 10.890625 58.5 
Q 10.890625 67.625 15.140625 71.796875 
Q 19.390625 75.984375 28.609375 75.984375 
z
" id="DejaVuSans-66"/>
      <path d="M 4.890625 31.390625 
L 31.203125 31.390625 
L 31.203125 23.390625 
L 4.890625 23.390625 
z
" id="DejaVuSans-2d"/>
      <path d="M 56.203125 29.59375 
L 56.203125 25.203125 
L 14.890625 25.203125 
Q 15.484375 15.921875 20.484375 11.0625 
Q 25.484375 6.203125 34.421875 6.203125 
Q 39.59375 6.203125 44.453125 7.46875 
Q 49.3125 8.734375 54.109375 11.28125 
L 54.109375 2.78125 
Q 49.265625 0.734375 44.1875 -0.34375 
Q 39.109375 -1.421875 33.890625 -1.421875 
Q 20.796875 -1.421875 13.15625 6.1875 
Q 5.515625 13.8125 5.515625 26.8125 
Q 5.515625 40.234375 12.765625 48.109375 
Q 20.015625 56 32.328125 56 
Q 43.359375 56 49.78125 48.890625 
Q 56.203125 41.796875 56.203125 29.59375 
z
M 47.21875 32.234375 
Q 47.125 39.59375 43.09375 43.984375 
Q 39.0625 48.390625 32.421875 48.390625 
Q 24.90625 48.390625 20.390625 44.140625 
Q 15.875 39.890625 15.1875 32.171875 
z
" id="DejaVuSans-65"/>
      <path d="M 2.984375 54.6875 
L 12.5 54.6875 
L 29.59375 8.796875 
L 46.6875 54.6875 
L 56.203125 54.6875 
L 35.6875 0 
L 23.484375 0 
z
" id="DejaVuSans-76"/>
      <path d="M 34.28125 27.484375 
Q 23.390625 27.484375 19.1875 25 
Q 14.984375 22.515625 14.984375 16.5 
Q 14.984375 11.71875 18.140625 8.90625 
Q 21.296875 6.109375 26.703125 6.109375 
Q 34.1875 6.109375 38.703125 11.40625 
Q 43.21875 16.703125 43.21875 25.484375 
L 43.21875 27.484375 
z
M 52.203125 31.203125 
L 52.203125 0 
L 43.21875 0 
L 43.21875 8.296875 
Q 40.140625 3.328125 35.546875 0.953125 
Q 30.953125 -1.421875 24.3125 -1.421875 
Q 15.921875 -1.421875 10.953125 3.296875 
Q 6 8.015625 6 15.921875 
Q 6 25.140625 12.171875 29.828125 
Q 18.359375 34.515625 30.609375 34.515625 
L 43.21875 34.515625 
L 43.21875 35.40625 
Q 43.21875 41.609375 39.140625 45 
Q 35.0625 48.390625 27.6875 48.390625 
Q 23 48.390625 18.546875 47.265625 
Q 14.109375 46.140625 10.015625 43.890625 
L 10.015625 52.203125 
Q 14.9375 54.109375 19.578125 55.046875 
Q 24.21875 56 28.609375 56 
Q 40.484375 56 46.34375 49.84375 
Q 52.203125 43.703125 52.203125 31.203125 
z
" id="DejaVuSans-61"/>
      <path d="M 44.28125 53.078125 
L 44.28125 44.578125 
Q 40.484375 46.53125 36.375 47.5 
Q 32.28125 48.484375 27.875 48.484375 
Q 21.1875 48.484375 17.84375 46.4375 
Q 14.5 44.390625 14.5 40.28125 
Q 14.5 37.15625 16.890625 35.375 
Q 19.28125 33.59375 26.515625 31.984375 
L 29.59375 31.296875 
Q 39.15625 29.25 43.1875 25.515625 
Q 47.21875 21.78125 47.21875 15.09375 
Q 47.21875 7.46875 41.1875 3.015625 
Q 35.15625 -1.421875 24.609375 -1.421875 
Q 20.21875 -1.421875 15.453125 -0.5625 
Q 10.6875 0.296875 5.421875 2 
L 5.421875 11.28125 
Q 10.40625 8.6875 15.234375 7.390625 
Q 20.0625 6.109375 24.8125 6.109375 
Q 31.15625 6.109375 34.5625 8.28125 
Q 37.984375 10.453125 37.984375 14.40625 
Q 37.984375 18.0625 35.515625 20.015625 
Q 33.0625 21.96875 24.703125 23.78125 
L 21.578125 24.515625 
Q 13.234375 26.265625 9.515625 29.90625 
Q 5.8125 33.546875 5.8125 39.890625 
Q 5.8125 47.609375 11.28125 51.796875 
Q 16.75 56 26.8125 56 
Q 31.78125 56 36.171875 55.265625 
Q 40.578125 54.546875 44.28125 53.078125 
z
" id="DejaVuSans-73"/>
      <path d="M 25.390625 72.90625 
L 33.6875 72.90625 
L 8.296875 -9.28125 
L 0 -9.28125 
z
" id="DejaVuSans-2f"/>
      <path d="M 45.40625 46.390625 
L 45.40625 75.984375 
L 54.390625 75.984375 
L 54.390625 0 
L 45.40625 0 
L 45.40625 8.203125 
Q 42.578125 3.328125 38.25 0.953125 
Q 33.9375 -1.421875 27.875 -1.421875 
Q 17.96875 -1.421875 11.734375 6.484375 
Q 5.515625 14.40625 5.515625 27.296875 
Q 5.515625 40.1875 11.734375 48.09375 
Q 17.96875 56 27.875 56 
Q 33.9375 56 38.25 53.625 
Q 42.578125 51.265625 45.40625 46.390625 
z
M 14.796875 27.296875 
Q 14.796875 17.390625 18.875 11.75 
Q 22.953125 6.109375 30.078125 6.109375 
Q 37.203125 6.109375 41.296875 11.75 
Q 45.40625 17.390625 45.40625 27.296875 
Q 45.40625 37.203125 41.296875 42.84375 
Q 37.203125 48.484375 30.078125 48.484375 
Q 22.953125 48.484375 18.875 42.84375 
Q 14.796875 37.203125 14.796875 27.296875 
z
" id="DejaVuSans-64"/>
      <path d="M 9.421875 54.6875 
L 18.40625 54.6875 
L 18.40625 0 
L 9.421875 0 
z
M 9.421875 75.984375 
L 18.40625 75.984375 
L 18.40625 64.59375 
L 9.421875 64.59375 
z
" id="DejaVuSans-69"/>
      <path d="M 52 44.1875 
Q 55.375 50.25 60.0625 53.125 
Q 64.75 56 71.09375 56 
Q 79.640625 56 84.28125 50.015625 
Q 88.921875 44.046875 88.921875 33.015625 
L 88.921875 0 
L 79.890625 0 
L 79.890625 32.71875 
Q 79.890625 40.578125 77.09375 44.375 
Q 74.3125 48.1875 68.609375 48.1875 
Q 61.625 48.1875 57.5625 43.546875 
Q 53.515625 38.921875 53.515625 30.90625 
L 53.515625 0 
L 44.484375 0 
L 44.484375 32.71875 
Q 44.484375 40.625 41.703125 44.40625 
Q 38.921875 48.1875 33.109375 48.1875 
Q 26.21875 48.1875 22.15625 43.53125 
Q 18.109375 38.875 18.109375 30.90625 
L 18.109375 0 
L 9.078125 0 
L 9.078125 54.6875 
L 18.109375 54.6875 
L 18.109375 46.1875 
Q 21.1875 51.21875 25.484375 53.609375 
Q 29.78125 56 35.6875 56 
Q 41.65625 56 45.828125 52.96875 
Q 50 49.953125 52 44.1875 
z
" id="DejaVuSans-6d"/>
      <path d="M 54.890625 33.015625 
L 54.890625 0 
L 45.90625 0 
L 45.90625 32.71875 
Q 45.90625 40.484375 42.875 44.328125 
Q 39.84375 48.1875 33.796875 48.1875 
Q 26.515625 48.1875 22.3125 43.546875 
Q 18.109375 38.921875 18.109375 30.90625 
L 18.109375 0 
L 9.078125 0 
L 9.078125 54.6875 
L 18.109375 54.6875 
L 18.109375 46.1875 
Q 21.34375 51.125 25.703125 53.5625 
Q 30.078125 56 35.796875 56 
Q 45.21875 56 50.046875 50.171875 
Q 54.890625 44.34375 54.890625 33.015625 
z
" id="DejaVuSans-6e"/>
      <path d="M 8.015625 75.875 
L 15.828125 75.875 
Q 23.140625 64.359375 26.78125 53.3125 
Q 30.421875 42.28125 30.421875 31.390625 
Q 30.421875 20.453125 26.78125 9.375 
Q 23.140625 -1.703125 15.828125 -13.1875 
L 8.015625 -13.1875 
Q 14.5 -2 17.703125 9.0625 
Q 20.90625 20.125 20.90625 31.390625 
Q 20.90625 42.671875 17.703125 53.65625 
Q 14.5 64.65625 8.015625 75.875 
z
" id="DejaVuSans-29"/>
     </defs>
     <g transform="translate(73.803219 338.153594)scale(0.17 -0.17)">
      <use xlink:href="#DejaVuSans-6c"/>
      <use x="27.783203" xlink:href="#DejaVuSans-6f"/>
      <use x="88.964844" xlink:href="#DejaVuSans-67"/>
      <use x="152.441406" xlink:href="#DejaVuSans-31"/>
      <use x="216.064453" xlink:href="#DejaVuSans-30"/>
      <use x="279.6875" xlink:href="#DejaVuSans-28"/>
      <use x="318.701172" xlink:href="#DejaVuSans-23"/>
      <use x="402.490234" xlink:href="#DejaVuSans-20"/>
      <use x="434.277344" xlink:href="#DejaVuSans-66"/>
      <use x="469.404297" xlink:href="#DejaVuSans-2d"/>
      <use x="505.488281" xlink:href="#DejaVuSans-65"/>
      <use x="567.011719" xlink:href="#DejaVuSans-76"/>
      <use x="626.191406" xlink:href="#DejaVuSans-61"/>
      <use x="687.470703" xlink:href="#DejaVuSans-6c"/>
      <use x="715.253906" xlink:href="#DejaVuSans-73"/>
      <use x="767.353516" xlink:href="#DejaVuSans-20"/>
      <use x="799.140625" xlink:href="#DejaVuSans-2f"/>
      <use x="832.832031" xlink:href="#DejaVuSans-20"/>
      <use x="864.619141" xlink:href="#DejaVuSans-64"/>
      <use x="928.095703" xlink:href="#DejaVuSans-69"/>
      <use x="955.878906" xlink:href="#DejaVuSans-6d"/>
      <use x="1053.291016" xlink:href="#DejaVuSans-65"/>
      <use x="1114.814453" xlink:href="#DejaVuSans-6e"/>
      <use x="1178.193359" xlink:href="#DejaVuSans-73"/>
      <use x="1230.292969" xlink:href="#DejaVuSans-69"/>
      <use x="1258.076172" xlink:href="#DejaVuSans-6f"/>
      <use x="1319.257812" xlink:href="#DejaVuSans-6e"/>
      <use x="1382.636719" xlink:href="#DejaVuSans-29"/>
     </g>
    </g>
   </g>
   <g id="matplotlib.axis_2">
    <g id="ytick_1">
     <g id="line2d_29">
      <path clip-path="url(#pa289246a5f)" d="M 56.12 294.88 
L 333.168 294.88 
" style="fill:none;stroke:#b0b0b0;stroke-linecap:square;stroke-width:0.8;"/>
     </g>
     <g id="line2d_30">
      <defs>
       <path d="M 0 0 
L -3.5 0 
" id="m7f8e8de55a" style="stroke:#000000;stroke-width:0.8;"/>
      </defs>
      <g>
       <use style="stroke:#000000;stroke-width:0.8;" x="56.12" xlink:href="#m7f8e8de55a" y="294.88"/>
      </g>
     </g>
     <g id="text_6">
      <!-- 0.0 -->
      <defs>
       <path d="M 10.6875 12.40625 
L 21 12.40625 
L 21 0 
L 10.6875 0 
z
" id="DejaVuSans-2e"/>
      </defs>
      <g transform="translate(23.675 300.95875)scale(0.16 -0.16)">
       <use xlink:href="#DejaVuSans-30"/>
       <use x="63.623047" xlink:href="#DejaVuSans-2e"/>
       <use x="95.410156" xlink:href="#DejaVuSans-30"/>
      </g>
     </g>
    </g>
    <g id="ytick_2">
     <g id="line2d_31">
      <path clip-path="url(#pa289246a5f)" d="M 56.12 241.406733 
L 333.168 241.406733 
" style="fill:none;stroke:#b0b0b0;stroke-linecap:square;stroke-width:0.8;"/>
     </g>
     <g id="line2d_32">
      <g>
       <use style="stroke:#000000;stroke-width:0.8;" x="56.12" xlink:href="#m7f8e8de55a" y="241.406733"/>
      </g>
     </g>
     <g id="text_7">
      <!-- 0.2 -->
      <g transform="translate(23.675 247.485483)scale(0.16 -0.16)">
       <use xlink:href="#DejaVuSans-30"/>
       <use x="63.623047" xlink:href="#DejaVuSans-2e"/>
       <use x="95.410156" xlink:href="#DejaVuSans-32"/>
      </g>
     </g>
    </g>
    <g id="ytick_3">
     <g id="line2d_33">
      <path clip-path="url(#pa289246a5f)" d="M 56.12 187.933465 
L 333.168 187.933465 
" style="fill:none;stroke:#b0b0b0;stroke-linecap:square;stroke-width:0.8;"/>
     </g>
     <g id="line2d_34">
      <g>
       <use style="stroke:#000000;stroke-width:0.8;" x="56.12" xlink:href="#m7f8e8de55a" y="187.933465"/>
      </g>
     </g>
     <g id="text_8">
      <!-- 0.4 -->
      <g transform="translate(23.675 194.012215)scale(0.16 -0.16)">
       <use xlink:href="#DejaVuSans-30"/>
       <use x="63.623047" xlink:href="#DejaVuSans-2e"/>
       <use x="95.410156" xlink:href="#DejaVuSans-34"/>
      </g>
     </g>
    </g>
    <g id="ytick_4">
     <g id="line2d_35">
      <path clip-path="url(#pa289246a5f)" d="M 56.12 134.460198 
L 333.168 134.460198 
" style="fill:none;stroke:#b0b0b0;stroke-linecap:square;stroke-width:0.8;"/>
     </g>
     <g id="line2d_36">
      <g>
       <use style="stroke:#000000;stroke-width:0.8;" x="56.12" xlink:href="#m7f8e8de55a" y="134.460198"/>
      </g>
     </g>
     <g id="text_9">
      <!-- 0.6 -->
      <g transform="translate(23.675 140.538948)scale(0.16 -0.16)">
       <use xlink:href="#DejaVuSans-30"/>
       <use x="63.623047" xlink:href="#DejaVuSans-2e"/>
       <use x="95.410156" xlink:href="#DejaVuSans-36"/>
      </g>
     </g>
    </g>
    <g id="ytick_5">
     <g id="line2d_37">
      <path clip-path="url(#pa289246a5f)" d="M 56.12 80.986931 
L 333.168 80.986931 
" style="fill:none;stroke:#b0b0b0;stroke-linecap:square;stroke-width:0.8;"/>
     </g>
     <g id="line2d_38">
      <g>
       <use style="stroke:#000000;stroke-width:0.8;" x="56.12" xlink:href="#m7f8e8de55a" y="80.986931"/>
      </g>
     </g>
     <g id="text_10">
      <!-- 0.8 -->
      <defs>
       <path d="M 31.78125 34.625 
Q 24.75 34.625 20.71875 30.859375 
Q 16.703125 27.09375 16.703125 20.515625 
Q 16.703125 13.921875 20.71875 10.15625 
Q 24.75 6.390625 31.78125 6.390625 
Q 38.8125 6.390625 42.859375 10.171875 
Q 46.921875 13.96875 46.921875 20.515625 
Q 46.921875 27.09375 42.890625 30.859375 
Q 38.875 34.625 31.78125 34.625 
z
M 21.921875 38.8125 
Q 15.578125 40.375 12.03125 44.71875 
Q 8.5 49.078125 8.5 55.328125 
Q 8.5 64.0625 14.71875 69.140625 
Q 20.953125 74.21875 31.78125 74.21875 
Q 42.671875 74.21875 48.875 69.140625 
Q 55.078125 64.0625 55.078125 55.328125 
Q 55.078125 49.078125 51.53125 44.71875 
Q 48 40.375 41.703125 38.8125 
Q 48.828125 37.15625 52.796875 32.3125 
Q 56.78125 27.484375 56.78125 20.515625 
Q 56.78125 9.90625 50.3125 4.234375 
Q 43.84375 -1.421875 31.78125 -1.421875 
Q 19.734375 -1.421875 13.25 4.234375 
Q 6.78125 9.90625 6.78125 20.515625 
Q 6.78125 27.484375 10.78125 32.3125 
Q 14.796875 37.15625 21.921875 38.8125 
z
M 18.3125 54.390625 
Q 18.3125 48.734375 21.84375 45.5625 
Q 25.390625 42.390625 31.78125 42.390625 
Q 38.140625 42.390625 41.71875 45.5625 
Q 45.3125 48.734375 45.3125 54.390625 
Q 45.3125 60.0625 41.71875 63.234375 
Q 38.140625 66.40625 31.78125 66.40625 
Q 25.390625 66.40625 21.84375 63.234375 
Q 18.3125 60.0625 18.3125 54.390625 
z
" id="DejaVuSans-38"/>
      </defs>
      <g transform="translate(23.675 87.065681)scale(0.16 -0.16)">
       <use xlink:href="#DejaVuSans-30"/>
       <use x="63.623047" xlink:href="#DejaVuSans-2e"/>
       <use x="95.410156" xlink:href="#DejaVuSans-38"/>
      </g>
     </g>
    </g>
    <g id="ytick_6">
     <g id="line2d_39">
      <path clip-path="url(#pa289246a5f)" d="M 56.12 27.513663 
L 333.168 27.513663 
" style="fill:none;stroke:#b0b0b0;stroke-linecap:square;stroke-width:0.8;"/>
     </g>
     <g id="line2d_40">
      <g>
       <use style="stroke:#000000;stroke-width:0.8;" x="56.12" xlink:href="#m7f8e8de55a" y="27.513663"/>
      </g>
     </g>
     <g id="text_11">
      <!-- 1.0 -->
      <g transform="translate(23.675 33.592413)scale(0.16 -0.16)">
       <use xlink:href="#DejaVuSans-31"/>
       <use x="63.623047" xlink:href="#DejaVuSans-2e"/>
       <use x="95.410156" xlink:href="#DejaVuSans-30"/>
      </g>
     </g>
    </g>
    <g id="text_12">
     <!-- Fraction of function,target pairs -->
     <defs>
      <path d="M 9.8125 72.90625 
L 51.703125 72.90625 
L 51.703125 64.59375 
L 19.671875 64.59375 
L 19.671875 43.109375 
L 48.578125 43.109375 
L 48.578125 34.8125 
L 19.671875 34.8125 
L 19.671875 0 
L 9.8125 0 
z
" id="DejaVuSans-46"/>
      <path d="M 41.109375 46.296875 
Q 39.59375 47.171875 37.8125 47.578125 
Q 36.03125 48 33.890625 48 
Q 26.265625 48 22.1875 43.046875 
Q 18.109375 38.09375 18.109375 28.8125 
L 18.109375 0 
L 9.078125 0 
L 9.078125 54.6875 
L 18.109375 54.6875 
L 18.109375 46.1875 
Q 20.953125 51.171875 25.484375 53.578125 
Q 30.03125 56 36.53125 56 
Q 37.453125 56 38.578125 55.875 
Q 39.703125 55.765625 41.0625 55.515625 
z
" id="DejaVuSans-72"/>
      <path d="M 48.78125 52.59375 
L 48.78125 44.1875 
Q 44.96875 46.296875 41.140625 47.34375 
Q 37.3125 48.390625 33.40625 48.390625 
Q 24.65625 48.390625 19.8125 42.84375 
Q 14.984375 37.3125 14.984375 27.296875 
Q 14.984375 17.28125 19.8125 11.734375 
Q 24.65625 6.203125 33.40625 6.203125 
Q 37.3125 6.203125 41.140625 7.25 
Q 44.96875 8.296875 48.78125 10.40625 
L 48.78125 2.09375 
Q 45.015625 0.34375 40.984375 -0.53125 
Q 36.96875 -1.421875 32.421875 -1.421875 
Q 20.0625 -1.421875 12.78125 6.34375 
Q 5.515625 14.109375 5.515625 27.296875 
Q 5.515625 40.671875 12.859375 48.328125 
Q 20.21875 56 33.015625 56 
Q 37.15625 56 41.109375 55.140625 
Q 45.0625 54.296875 48.78125 52.59375 
z
" id="DejaVuSans-63"/>
      <path d="M 18.3125 70.21875 
L 18.3125 54.6875 
L 36.8125 54.6875 
L 36.8125 47.703125 
L 18.3125 47.703125 
L 18.3125 18.015625 
Q 18.3125 11.328125 20.140625 9.421875 
Q 21.96875 7.515625 27.59375 7.515625 
L 36.8125 7.515625 
L 36.8125 0 
L 27.59375 0 
Q 17.1875 0 13.234375 3.875 
Q 9.28125 7.765625 9.28125 18.015625 
L 9.28125 47.703125 
L 2.6875 47.703125 
L 2.6875 54.6875 
L 9.28125 54.6875 
L 9.28125 70.21875 
z
" id="DejaVuSans-74"/>
      <path d="M 8.5 21.578125 
L 8.5 54.6875 
L 17.484375 54.6875 
L 17.484375 21.921875 
Q 17.484375 14.15625 20.5 10.265625 
Q 23.53125 6.390625 29.59375 6.390625 
Q 36.859375 6.390625 41.078125 11.03125 
Q 45.3125 15.671875 45.3125 23.6875 
L 45.3125 54.6875 
L 54.296875 54.6875 
L 54.296875 0 
L 45.3125 0 
L 45.3125 8.40625 
Q 42.046875 3.421875 37.71875 1 
Q 33.40625 -1.421875 27.6875 -1.421875 
Q 18.265625 -1.421875 13.375 4.4375 
Q 8.5 10.296875 8.5 21.578125 
z
M 31.109375 56 
z
" id="DejaVuSans-75"/>
      <path d="M 11.71875 12.40625 
L 22.015625 12.40625 
L 22.015625 4 
L 14.015625 -11.625 
L 7.71875 -11.625 
L 11.71875 4 
z
" id="DejaVuSans-2c"/>
      <path d="M 18.109375 8.203125 
L 18.109375 -20.796875 
L 9.078125 -20.796875 
L 9.078125 54.6875 
L 18.109375 54.6875 
L 18.109375 46.390625 
Q 20.953125 51.265625 25.265625 53.625 
Q 29.59375 56 35.59375 56 
Q 45.5625 56 51.78125 48.09375 
Q 58.015625 40.1875 58.015625 27.296875 
Q 58.015625 14.40625 51.78125 6.484375 
Q 45.5625 -1.421875 35.59375 -1.421875 
Q 29.59375 -1.421875 25.265625 0.953125 
Q 20.953125 3.328125 18.109375 8.203125 
z
M 48.6875 27.296875 
Q 48.6875 37.203125 44.609375 42.84375 
Q 40.53125 48.484375 33.40625 48.484375 
Q 26.265625 48.484375 22.1875 42.84375 
Q 18.109375 37.203125 18.109375 27.296875 
Q 18.109375 17.390625 22.1875 11.75 
Q 26.265625 6.109375 33.40625 6.109375 
Q 40.53125 6.109375 44.609375 11.75 
Q 48.6875 17.390625 48.6875 27.296875 
z
" id="DejaVuSans-70"/>
     </defs>
     <g transform="translate(16.139531 294.999375)rotate(-90)scale(0.17 -0.17)">
      <use xlink:href="#DejaVuSans-46"/>
      <use x="57.410156" xlink:href="#DejaVuSans-72"/>
      <use x="98.523438" xlink:href="#DejaVuSans-61"/>
      <use x="159.802734" xlink:href="#DejaVuSans-63"/>
      <use x="214.783203" xlink:href="#DejaVuSans-74"/>
      <use x="253.992188" xlink:href="#DejaVuSans-69"/>
      <use x="281.775391" xlink:href="#DejaVuSans-6f"/>
      <use x="342.957031" xlink:href="#DejaVuSans-6e"/>
      <use x="406.335938" xlink:href="#DejaVuSans-20"/>
      <use x="438.123047" xlink:href="#DejaVuSans-6f"/>
      <use x="499.304688" xlink:href="#DejaVuSans-66"/>
      <use x="534.509766" xlink:href="#DejaVuSans-20"/>
      <use x="566.296875" xlink:href="#DejaVuSans-66"/>
      <use x="601.501953" xlink:href="#DejaVuSans-75"/>
      <use x="664.880859" xlink:href="#DejaVuSans-6e"/>
      <use x="728.259766" xlink:href="#DejaVuSans-63"/>
      <use x="783.240234" xlink:href="#DejaVuSans-74"/>
      <use x="822.449219" xlink:href="#DejaVuSans-69"/>
      <use x="850.232422" xlink:href="#DejaVuSans-6f"/>
      <use x="911.414062" xlink:href="#DejaVuSans-6e"/>
      <use x="974.792969" xlink:href="#DejaVuSans-2c"/>
      <use x="1006.580078" xlink:href="#DejaVuSans-74"/>
      <use x="1045.789062" xlink:href="#DejaVuSans-61"/>
      <use x="1107.068359" xlink:href="#DejaVuSans-72"/>
      <use x="1148.166016" xlink:href="#DejaVuSans-67"/>
      <use x="1211.642578" xlink:href="#DejaVuSans-65"/>
      <use x="1273.166016" xlink:href="#DejaVuSans-74"/>
      <use x="1312.375" xlink:href="#DejaVuSans-20"/>
      <use x="1344.162109" xlink:href="#DejaVuSans-70"/>
      <use x="1407.638672" xlink:href="#DejaVuSans-61"/>
      <use x="1468.917969" xlink:href="#DejaVuSans-69"/>
      <use x="1496.701172" xlink:href="#DejaVuSans-72"/>
      <use x="1537.814453" xlink:href="#DejaVuSans-73"/>
     </g>
    </g>
   </g>
   <g id="line2d_41">
    <defs>
     <path d="M 0 1.5 
C 0.397805 1.5 0.77937 1.341951 1.06066 1.06066 
C 1.341951 0.77937 1.5 0.397805 1.5 0 
C 1.5 -0.397805 1.341951 -0.77937 1.06066 -1.06066 
C 0.77937 -1.341951 0.397805 -1.5 0 -1.5 
C -0.397805 -1.5 -0.77937 -1.341951 -1.06066 -1.06066 
C -1.341951 -0.77937 -1.5 -0.397805 -1.5 0 
C -1.5 0.397805 -1.341951 0.77937 -1.06066 1.06066 
C -0.77937 1.341951 -0.397805 1.5 0 1.5 
z
" id="m688874286e" style="stroke:#f5deb3;"/>
    </defs>
    <g>
     <use style="fill:#f5deb3;stroke:#f5deb3;" x="257.027187" xlink:href="#m688874286e" y="27.513663"/>
     <use style="fill:#f5deb3;stroke:#f5deb3;" x="257.027187" xlink:href="#m688874286e" y="27.513663"/>
    </g>
   </g>
   <g id="line2d_42">
    <defs>
     <path d="M 0 1.5 
C 0.397805 1.5 0.77937 1.341951 1.06066 1.06066 
C 1.341951 0.77937 1.5 0.397805 1.5 0 
C 1.5 -0.397805 1.341951 -0.77937 1.06066 -1.06066 
C 0.77937 -1.341951 0.397805 -1.5 0 -1.5 
C -0.397805 -1.5 -0.77937 -1.341951 -1.06066 -1.06066 
C -1.341951 -0.77937 -1.5 -0.397805 -1.5 0 
C -1.5 0.397805 -1.341951 0.77937 -1.06066 1.06066 
C -0.77937 1.341951 -0.397805 1.5 0 1.5 
z
" id="ma17001a9e7" style="stroke:#000080;"/>
    </defs>
    <g>
     <use style="fill:#000080;stroke:#000080;" x="120.365424" xlink:href="#ma17001a9e7" y="273.910091"/>
     <use style="fill:#000080;stroke:#000080;" x="120.365424" xlink:href="#ma17001a9e7" y="273.910091"/>
    </g>
   </g>
   <g id="line2d_43">
    <path d="M 37.236359 294.88 
L 37.236359 284.395046 
L 86.917893 284.395046 
L 86.917893 283.34655 
L 87.847234 283.34655 
L 87.847234 282.822302 
L 88.728896 282.822302 
L 88.728896 281.773807 
L 92.564428 281.773807 
L 92.564428 281.249559 
L 93.238578 281.249559 
L 93.238578 280.725312 
L 100.207968 280.725312 
L 100.207968 280.201064 
L 102.281398 280.201064 
L 102.281398 279.676816 
L 105.480242 279.676816 
L 105.480242 279.152568 
L 107.612537 279.152568 
L 107.612537 278.104073 
L 108.451173 278.104073 
L 108.451173 277.055578 
L 110.505991 277.055578 
L 110.505991 276.53133 
L 112.770924 276.53133 
L 112.770924 276.007082 
L 114.389873 276.007082 
L 114.389873 275.482834 
L 117.874207 275.482834 
L 117.874207 274.958587 
L 120.0904 274.958587 
L 120.0904 274.434339 
L 120.365424 274.434339 
L 120.365424 273.910091 
L 333.168 273.910091 
" style="fill:none;stroke:#000080;stroke-linecap:square;stroke-width:1.5;"/>
   </g>
   <g id="line2d_44">
    <defs>
     <path d="M 0 6 
C 1.591219 6 3.117479 5.367802 4.242641 4.242641 
C 5.367802 3.117479 6 1.591219 6 0 
C 6 -1.591219 5.367802 -3.117479 4.242641 -4.242641 
C 3.117479 -5.367802 1.591219 -6 0 -6 
C -1.591219 -6 -3.117479 -5.367802 -4.242641 -4.242641 
C -5.367802 -3.117479 -6 -1.591219 -6 0 
C -6 1.591219 -5.367802 3.117479 -4.242641 4.242641 
C -3.117479 5.367802 -1.591219 6 0 6 
z
" id="m508855c307" style="stroke:#000080;stroke-width:1.5;"/>
    </defs>
    <g>
     <use style="fill:none;stroke:#000080;stroke-width:1.5;" x="86.917893" xlink:href="#m508855c307" y="283.34655"/>
     <use style="fill:none;stroke:#000080;stroke-width:1.5;" x="120.365424" xlink:href="#m508855c307" y="274.434339"/>
     <use style="fill:none;stroke:#000080;stroke-width:1.5;" x="120.365424" xlink:href="#m508855c307" y="273.910091"/>
     <use style="fill:none;stroke:#000080;stroke-width:1.5;" x="120.365424" xlink:href="#m508855c307" y="273.910091"/>
     <use style="fill:none;stroke:#000080;stroke-width:1.5;" x="120.365424" xlink:href="#m508855c307" y="273.910091"/>
     <use style="fill:none;stroke:#000080;stroke-width:1.5;" x="333.168" xlink:href="#m508855c307" y="273.910091"/>
    </g>
   </g>
   <g id="line2d_45">
    <path style="fill:none;stroke:#000080;stroke-linecap:square;stroke-width:1.5;"/>
    <g/>
   </g>
   <g id="line2d_46">
    <path clip-path="url(#pa289246a5f)" d="M 126.591406 273.910091 
" style="fill:none;stroke:#000080;stroke-linecap:square;stroke-width:1.5;"/>
    <defs>
     <path d="M -12 12 
L 12 -12 
M -12 -12 
L 12 12 
" id="m46a6047ade" style="stroke:#000080;"/>
    </defs>
    <g clip-path="url(#pa289246a5f)">
     <use style="fill:#000080;stroke:#000080;" x="126.591406" xlink:href="#m46a6047ade" y="273.910091"/>
    </g>
   </g>
   <g id="line2d_47">
    <defs>
     <path d="M 0 1.5 
C 0.397805 1.5 0.77937 1.341951 1.06066 1.06066 
C 1.341951 0.77937 1.5 0.397805 1.5 0 
C 1.5 -0.397805 1.341951 -0.77937 1.06066 -1.06066 
C 0.77937 -1.341951 0.397805 -1.5 0 -1.5 
C -0.397805 -1.5 -0.77937 -1.341951 -1.06066 -1.06066 
C -1.341951 -0.77937 -1.5 -0.397805 -1.5 0 
C -1.5 0.397805 -1.341951 0.77937 -1.06066 1.06066 
C -0.77937 1.341951 -0.397805 1.5 0 1.5 
z
" id="m37a5bd81fd" style="stroke:#ff00ff;"/>
    </defs>
    <g>
     <use style="fill:#ff00ff;stroke:#ff00ff;" x="204.223685" xlink:href="#m37a5bd81fd" y="258.18266"/>
     <use style="fill:#ff00ff;stroke:#ff00ff;" x="204.223685" xlink:href="#m37a5bd81fd" y="258.18266"/>
    </g>
   </g>
   <g id="line2d_48">
    <path d="M 37.236359 294.88 
L 37.236359 282.822302 
L 49.15061 282.822302 
L 49.15061 281.249559 
L 56.12 281.249559 
L 56.12 277.579825 
L 68.034251 277.579825 
L 68.034251 277.055578 
L 70.68389 277.055578 
L 70.68389 276.53133 
L 75.003641 276.53133 
L 75.003641 276.007082 
L 87.847234 276.007082 
L 87.847234 275.482834 
L 91.862754 275.482834 
L 91.862754 274.958587 
L 99.761485 274.958587 
L 99.761485 274.434339 
L 113.19018 274.434339 
L 113.19018 273.910091 
L 113.800491 273.910091 
L 113.800491 273.385844 
L 116.39293 273.385844 
L 116.39293 271.8131 
L 131.441039 271.8131 
L 131.441039 271.288853 
L 132.684132 271.288853 
L 132.684132 270.764605 
L 134.574897 270.764605 
L 134.574897 270.240357 
L 136.599426 270.240357 
L 136.599426 269.191862 
L 138.974042 269.191862 
L 138.974042 268.667614 
L 142.772569 268.667614 
L 142.772569 268.143366 
L 147.837405 268.143366 
L 147.837405 267.619119 
L 155.902323 267.619119 
L 155.902323 267.094871 
L 158.253541 267.094871 
L 158.253541 266.570623 
L 158.433215 266.570623 
L 158.433215 266.046375 
L 158.581522 266.046375 
L 158.581522 265.522128 
L 166.867567 265.522128 
L 166.867567 264.99788 
L 166.894901 264.99788 
L 166.894901 264.473632 
L 167.704032 264.473632 
L 167.704032 263.949385 
L 168.0565 263.949385 
L 168.0565 263.425137 
L 169.008219 263.425137 
L 169.008219 262.900889 
L 169.31937 262.900889 
L 169.31937 262.376641 
L 169.864099 262.376641 
L 169.864099 261.852394 
L 180.047164 261.852394 
L 180.047164 261.328146 
L 180.173768 261.328146 
L 180.173768 260.803898 
L 181.320373 260.803898 
L 181.320373 260.279651 
L 184.555543 260.279651 
L 184.555543 259.755403 
L 185.148037 259.755403 
L 185.148037 259.231155 
L 187.786879 259.231155 
L 187.786879 258.706907 
L 204.223685 258.706907 
L 204.223685 258.18266 
L 333.168 258.18266 
" style="fill:none;stroke:#ff00ff;stroke-linecap:square;stroke-width:1.5;"/>
   </g>
   <g id="line2d_49">
    <defs>
     <path d="M -0 8.485281 
L 5.091169 0 
L 0 -8.485281 
L -5.091169 -0 
z
" id="m23d5227a7c" style="stroke:#ff00ff;stroke-linejoin:miter;stroke-width:1.5;"/>
    </defs>
    <g>
     <use style="fill:none;stroke:#ff00ff;stroke-linejoin:miter;stroke-width:1.5;" x="116.39293" xlink:href="#m23d5227a7c" y="273.385844"/>
     <use style="fill:none;stroke:#ff00ff;stroke-linejoin:miter;stroke-width:1.5;" x="181.320373" xlink:href="#m23d5227a7c" y="260.803898"/>
     <use style="fill:none;stroke:#ff00ff;stroke-linejoin:miter;stroke-width:1.5;" x="204.223685" xlink:href="#m23d5227a7c" y="258.706907"/>
     <use style="fill:none;stroke:#ff00ff;stroke-linejoin:miter;stroke-width:1.5;" x="204.223685" xlink:href="#m23d5227a7c" y="258.18266"/>
     <use style="fill:none;stroke:#ff00ff;stroke-linejoin:miter;stroke-width:1.5;" x="204.223685" xlink:href="#m23d5227a7c" y="258.18266"/>
     <use style="fill:none;stroke:#ff00ff;stroke-linejoin:miter;stroke-width:1.5;" x="333.168" xlink:href="#m23d5227a7c" y="258.18266"/>
    </g>
   </g>
   <g id="line2d_50">
    <path style="fill:none;stroke:#ff00ff;stroke-linecap:square;stroke-width:1.5;"/>
    <g/>
   </g>
   <g id="line2d_51">
    <path clip-path="url(#pa289246a5f)" d="M 186.596357 259.231155 
" style="fill:none;stroke:#ff00ff;stroke-linecap:square;stroke-width:1.5;"/>
    <defs>
     <path d="M -12 12 
L 12 -12 
M -12 -12 
L 12 12 
" id="mcc4f107c5c" style="stroke:#ff00ff;"/>
    </defs>
    <g clip-path="url(#pa289246a5f)">
     <use style="fill:#ff00ff;stroke:#ff00ff;" x="186.596357" xlink:href="#mcc4f107c5c" y="259.231155"/>
    </g>
   </g>
   <g id="line2d_52">
    <defs>
     <path d="M 0 1.5 
C 0.397805 1.5 0.77937 1.341951 1.06066 1.06066 
C 1.341951 0.77937 1.5 0.397805 1.5 0 
C 1.5 -0.397805 1.341951 -0.77937 1.06066 -1.06066 
C 0.77937 -1.341951 0.397805 -1.5 0 -1.5 
C -0.397805 -1.5 -0.77937 -1.341951 -1.06066 -1.06066 
C -1.341951 -0.77937 -1.5 -0.397805 -1.5 0 
C -1.5 0.397805 -1.341951 0.77937 -1.06066 1.06066 
C -0.77937 1.341951 -0.397805 1.5 0 1.5 
z
" id="m021e181e2f" style="stroke:#ff7500;"/>
    </defs>
    <g>
     <use style="fill:#ff7500;stroke:#ff7500;" x="345.487028" xlink:href="#m021e181e2f" y="27.513663"/>
     <use style="fill:#ff7500;stroke:#ff7500;" x="345.487028" xlink:href="#m021e181e2f" y="27.513663"/>
    </g>
   </g>
   <g id="line2d_53">
    <path d="M 37.236359 294.88 
L 37.236359 284.395046 
L 49.15061 284.395046 
L 49.15061 282.298055 
L 61.064861 282.298055 
L 61.064861 281.773807 
L 68.034251 281.773807 
L 68.034251 280.725312 
L 76.814644 280.725312 
L 76.814644 278.628321 
L 78.452896 278.628321 
L 78.452896 276.53133 
L 82.598142 276.53133 
L 82.598142 275.482834 
L 83.784035 275.482834 
L 83.784035 274.958587 
L 84.893363 274.958587 
L 84.893363 274.434339 
L 85.935418 274.434339 
L 85.935418 273.910091 
L 86.917893 273.910091 
L 86.917893 273.385844 
L 96.807615 273.385844 
L 96.807615 272.861596 
L 97.336537 272.861596 
L 97.336537 272.337348 
L 98.832144 272.337348 
L 98.832144 271.8131 
L 105.480242 271.8131 
L 105.480242 271.288853 
L 105.801534 271.288853 
L 105.801534 270.764605 
L 109.509269 270.764605 
L 109.509269 270.240357 
L 110.014853 270.240357 
L 110.014853 269.716109 
L 110.262176 269.716109 
L 110.262176 269.191862 
L 110.746395 269.191862 
L 110.746395 268.667614 
L 111.217346 268.667614 
L 111.217346 268.143366 
L 112.122219 268.143366 
L 112.122219 267.619119 
L 117.06708 267.619119 
L 117.06708 267.094871 
L 117.874207 267.094871 
L 117.874207 266.570623 
L 120.0904 266.570623 
L 120.0904 266.046375 
L 121.678171 266.046375 
L 121.678171 265.522128 
L 128.307181 265.522128 
L 128.307181 264.99788 
L 130.023386 264.99788 
L 130.023386 264.473632 
L 130.634602 264.473632 
L 130.634602 263.949385 
L 130.932248 263.949385 
L 130.932248 263.425137 
L 131.725155 263.425137 
L 131.725155 262.900889 
L 132.61738 262.900889 
L 132.61738 262.376641 
L 133.718347 262.376641 
L 133.718347 261.328146 
L 137.975251 261.328146 
L 137.975251 260.803898 
L 138.410429 260.803898 
L 138.410429 260.279651 
L 139.112104 260.279651 
L 139.112104 259.755403 
L 139.653523 259.755403 
L 139.653523 259.231155 
L 140.936852 259.231155 
L 140.936852 258.706907 
L 142.169397 258.706907 
L 142.207722 257.658412 
L 149.91397 257.658412 
L 149.91397 257.134164 
L 150.348537 257.134164 
L 150.348537 256.609917 
L 160.691159 256.609917 
L 160.691159 256.085669 
L 160.860123 256.085669 
L 160.860123 255.561421 
L 162.095093 255.561421 
L 162.095093 255.037173 
L 162.675005 255.037173 
L 162.675005 254.512926 
L 163.713637 254.512926 
L 163.713637 253.988678 
L 164.220967 253.988678 
L 164.220967 253.46443 
L 164.970227 253.46443 
L 165.04136 252.415935 
L 167.039954 252.415935 
L 167.039954 251.891687 
L 169.072506 251.891687 
L 169.072506 251.367439 
L 169.398253 251.367439 
L 169.398253 250.843192 
L 170.392093 250.843192 
L 170.392093 250.318944 
L 172.041145 250.318944 
L 172.041145 249.794696 
L 172.64455 249.794696 
L 172.64455 249.270448 
L 174.785965 249.270448 
L 174.785965 248.746201 
L 174.986134 248.746201 
L 174.986134 248.221953 
L 175.122058 248.221953 
L 175.122058 247.697705 
L 176.4148 247.697705 
L 176.4148 247.173458 
L 176.725915 247.173458 
L 176.725915 246.64921 
L 180.938565 246.64921 
L 180.938565 246.124962 
L 194.188997 246.124962 
L 194.188997 245.600714 
L 197.633515 245.600714 
L 197.633515 245.076467 
L 198.651818 245.076467 
L 198.697677 243.503724 
L 198.878485 243.503724 
L 198.930805 241.406733 
L 198.990003 241.406733 
L 199.060213 239.83399 
L 199.185871 239.83399 
L 199.25113 238.785494 
L 199.397405 238.785494 
L 199.397405 237.736999 
L 199.568315 237.736999 
L 199.659228 236.688503 
L 199.715974 236.688503 
L 199.806112 235.11576 
L 199.870398 235.11576 
L 199.870398 234.067265 
L 201.619127 234.067265 
L 201.619127 233.543017 
L 205.56947 233.543017 
L 205.56947 233.018769 
L 205.889838 233.018769 
L 205.889838 232.494521 
L 209.173734 232.494521 
L 209.227336 231.446026 
L 209.397132 231.446026 
L 209.397132 230.921778 
L 209.597939 230.921778 
L 209.597939 230.397531 
L 209.824917 230.397531 
L 209.824917 229.873283 
L 264.05802 229.873283 
L 264.05802 229.349035 
L 264.572336 229.349035 
L 264.572336 228.824787 
L 264.738436 228.824787 
L 264.738436 228.30054 
L 274.613798 228.30054 
L 274.70193 226.727797 
L 274.784052 226.727797 
L 274.8925 224.106558 
L 274.915915 224.106558 
L 274.959583 222.009567 
L 275.038447 222.009567 
L 275.136625 214.670099 
L 275.177797 214.670099 
L 275.274154 210.476117 
L 275.409634 210.476117 
L 275.410772 209.427622 
L 286.516095 209.427622 
L 286.557652 207.854879 
L 286.694411 207.854879 
L 286.791433 205.23364 
L 286.810509 205.23364 
L 286.921319 197.894172 
L 286.929273 197.894172 
L 287.026225 193.70019 
L 293.342096 193.70019 
L 293.342096 193.175943 
L 293.55141 193.175943 
L 293.636187 191.078952 
L 293.738745 191.078952 
L 293.843789 184.263731 
L 293.893972 184.263731 
L 293.926499 183.215236 
L 298.511678 183.215236 
L 298.581402 181.642493 
L 298.635673 181.642493 
L 298.725746 173.778777 
L 298.750983 173.778777 
L 298.820891 168.5363 
L 298.92055 168.5363 
L 298.92055 168.012052 
L 302.290951 168.012052 
L 302.395991 166.963557 
L 302.448149 166.963557 
L 302.535506 162.245327 
L 302.579637 162.245327 
L 302.681887 158.051345 
L 305.471095 158.051345 
L 305.551855 155.954354 
L 305.592188 155.954354 
L 305.698074 150.711877 
L 305.705343 150.711877 
L 305.807283 149.663382 
L 305.84275 149.663382 
L 305.84275 149.139134 
L 308.092375 149.139134 
L 308.158385 148.090639 
L 308.246381 148.090639 
L 308.348206 144.420905 
L 308.36383 144.420905 
L 308.417327 142.848162 
L 310.342048 142.848162 
L 310.450419 141.275418 
L 310.473279 141.275418 
L 310.576533 136.032941 
L 310.584804 136.032941 
L 310.658632 131.838959 
L 312.462093 131.838959 
L 312.462093 131.314712 
L 312.578903 131.314712 
L 312.684212 126.596482 
L 312.708125 126.596482 
L 312.708125 126.072235 
L 314.296369 126.072235 
L 314.388055 122.4025 
L 314.419774 122.4025 
L 314.492253 118.732766 
L 314.531065 118.732766 
L 314.531065 118.208519 
L 315.947584 118.208519 
L 316.053496 115.58728 
L 316.060794 115.58728 
L 316.114417 114.538785 
L 316.18131 114.538785 
L 316.18131 114.014537 
L 317.41007 114.014537 
L 317.514897 111.393298 
L 317.536057 111.393298 
L 317.622552 107.199317 
L 318.856258 107.199317 
L 318.954328 103.005335 
L 318.999303 103.005335 
L 319.01184 101.956839 
L 320.136028 101.956839 
L 320.242367 98.287105 
L 320.258302 98.287105 
L 320.274648 97.23861 
L 321.329338 97.23861 
L 321.414235 93.044628 
L 321.451461 93.044628 
L 321.451461 92.520381 
L 322.368398 92.520381 
L 322.449315 88.850646 
L 322.505721 88.850646 
L 322.505721 88.326399 
L 323.406612 88.326399 
L 323.515149 86.229408 
L 323.526589 86.229408 
L 323.539055 85.180912 
L 324.366803 85.180912 
L 324.415489 83.608169 
L 324.493844 83.608169 
L 324.569799 78.88994 
L 325.351736 78.88994 
L 325.454579 74.17171 
L 326.184499 74.17171 
L 326.281293 71.550472 
L 326.299616 71.550472 
L 326.350276 69.453481 
L 327.103382 69.453481 
L 327.193338 65.783747 
L 327.217653 65.783747 
L 327.217653 65.259499 
L 327.924962 65.259499 
L 327.976133 63.162508 
L 328.655905 63.162508 
L 328.760258 60.017022 
L 329.431605 60.017022 
L 329.52218 58.444279 
L 330.076886 58.444279 
L 330.157694 55.82304 
L 330.795799 55.82304 
L 330.835928 54.774545 
L 331.395409 54.774545 
L 331.467368 51.629058 
L 331.519551 51.629058 
L 331.528355 50.580563 
L 331.975126 50.580563 
L 332.079607 49.532068 
L 332.133017 49.532068 
L 332.133017 49.00782 
L 332.63266 49.00782 
L 332.723557 46.386581 
L 333.168 46.386581 
L 333.168 46.386581 
" style="fill:none;stroke:#ff7500;stroke-linecap:square;stroke-width:1.5;"/>
   </g>
   <g id="line2d_54">
    <defs>
     <path d="M 0 -6 
L -1.347084 -1.854102 
L -5.706339 -1.854102 
L -2.179628 0.708204 
L -3.526712 4.854102 
L -0 2.291796 
L 3.526712 4.854102 
L 2.179628 0.708204 
L 5.706339 -1.854102 
L 1.347084 -1.854102 
z
" id="m2043f1e3fb" style="stroke:#ff7500;stroke-linejoin:bevel;stroke-width:1.5;"/>
    </defs>
    <g>
     <use style="fill:none;stroke:#ff7500;stroke-linejoin:bevel;stroke-width:1.5;" x="68.034251" xlink:href="#m2043f1e3fb" y="281.773807"/>
     <use style="fill:none;stroke:#ff7500;stroke-linejoin:bevel;stroke-width:1.5;" x="149.91397" xlink:href="#m2043f1e3fb" y="257.134164"/>
     <use style="fill:none;stroke:#ff7500;stroke-linejoin:bevel;stroke-width:1.5;" x="264.738436" xlink:href="#m2043f1e3fb" y="228.824787"/>
     <use style="fill:none;stroke:#ff7500;stroke-linejoin:bevel;stroke-width:1.5;" x="302.681887" xlink:href="#m2043f1e3fb" y="158.051345"/>
     <use style="fill:none;stroke:#ff7500;stroke-linejoin:bevel;stroke-width:1.5;" x="332.723557" xlink:href="#m2043f1e3fb" y="46.386581"/>
     <use style="fill:none;stroke:#ff7500;stroke-linejoin:bevel;stroke-width:1.5;" x="333.168" xlink:href="#m2043f1e3fb" y="46.386581"/>
    </g>
   </g>
   <g id="line2d_55">
    <path style="fill:none;stroke:#ff7500;stroke-linecap:square;stroke-width:1.5;"/>
    <g/>
   </g>
   <g id="line2d_56">
    <path clip-path="url(#pa289246a5f)" d="M 274.863656 224.630806 
" style="fill:none;stroke:#ff7500;stroke-linecap:square;stroke-width:1.5;"/>
    <defs>
     <path d="M -12 12 
L 12 -12 
M -12 -12 
L 12 12 
" id="m29226efaae" style="stroke:#ff7500;"/>
    </defs>
    <g clip-path="url(#pa289246a5f)">
     <use style="fill:#ff7500;stroke:#ff7500;" x="274.863656" xlink:href="#m29226efaae" y="224.630806"/>
    </g>
   </g>
   <g id="line2d_57">
    <defs>
     <path d="M 0 1.5 
C 0.397805 1.5 0.77937 1.341951 1.06066 1.06066 
C 1.341951 0.77937 1.5 0.397805 1.5 0 
C 1.5 -0.397805 1.341951 -0.77937 1.06066 -1.06066 
C 0.77937 -1.341951 0.397805 -1.5 0 -1.5 
C -0.397805 -1.5 -0.77937 -1.341951 -1.06066 -1.06066 
C -1.341951 -0.77937 -1.5 -0.397805 -1.5 0 
C -1.5 0.397805 -1.341951 0.77937 -1.06066 1.06066 
C -0.77937 1.341951 -0.397805 1.5 0 1.5 
z
" id="m417e7bd814" style="stroke:#6495ed;"/>
    </defs>
    <g>
     <use style="fill:#6495ed;stroke:#6495ed;" x="333.054809" xlink:href="#m417e7bd814" y="221.485319"/>
     <use style="fill:#6495ed;stroke:#6495ed;" x="333.054809" xlink:href="#m417e7bd814" y="221.485319"/>
    </g>
   </g>
   <g id="line2d_58">
    <path d="M 37.236359 294.88 
L 37.236359 282.822302 
L 61.064861 282.822302 
L 61.064861 282.298055 
L 64.900393 282.298055 
L 64.900393 281.249559 
L 70.68389 281.249559 
L 70.68389 280.725312 
L 76.814644 280.725312 
L 76.814644 280.201064 
L 78.452896 280.201064 
L 78.452896 279.676816 
L 81.324327 279.676816 
L 81.324327 278.628321 
L 84.893363 278.628321 
L 84.893363 278.104073 
L 85.935418 278.104073 
L 85.935418 277.579825 
L 89.567532 277.579825 
L 89.567532 277.055578 
L 90.367147 277.055578 
L 90.367147 276.007082 
L 93.238578 276.007082 
L 93.238578 275.482834 
L 93.887283 275.482834 
L 93.887283 274.958587 
L 95.698286 274.958587 
L 95.698286 274.434339 
L 97.336537 274.434339 
L 97.336537 273.910091 
L 100.207968 273.910091 
L 100.207968 273.385844 
L 102.281398 273.385844 
L 102.281398 271.8131 
L 104.819059 271.8131 
L 104.819059 271.288853 
L 106.426644 271.288853 
L 106.426644 270.240357 
L 111.900428 270.240357 
L 111.900428 269.716109 
L 112.770924 269.716109 
L 112.770924 269.191862 
L 114.959714 269.191862 
L 114.959714 268.667614 
L 115.511269 268.667614 
L 115.511269 268.143366 
L 116.73331 268.143366 
L 116.73331 267.619119 
L 118.031182 267.619119 
L 118.031182 265.522128 
L 121.929105 265.522128 
L 121.929105 264.473632 
L 122.176427 264.473632 
L 122.176427 263.425137 
L 125.310285 263.425137 
L 125.310285 262.900889 
L 127.515749 262.900889 
L 127.515749 262.376641 
L 128.307181 262.376641 
L 128.307181 261.852394 
L 133.337771 261.852394 
L 133.337771 261.328146 
L 141.303883 261.328146 
L 141.303883 260.803898 
L 141.544287 260.803898 
L 141.544287 260.279651 
L 143.283522 260.279651 
L 143.283522 259.755403 
L 143.674593 259.755403 
L 143.674593 259.231155 
L 145.569751 259.231155 
L 145.632598 258.18266 
L 147.075848 258.18266 
L 147.075848 257.658412 
L 152.953845 257.658412 
L 152.953845 257.134164 
L 163.359447 257.134164 
L 163.359447 256.609917 
L 163.877183 256.609917 
L 163.877183 256.085669 
L 166.526822 256.085669 
L 166.526822 255.037173 
L 166.821913 255.037173 
L 166.821913 254.512926 
L 168.935608 254.512926 
L 168.935608 253.46443 
L 170.889924 253.46443 
L 170.889924 252.940182 
L 171.040797 252.940182 
L 171.040797 252.415935 
L 173.371747 252.415935 
L 173.371747 251.367439 
L 173.949054 251.367439 
L 173.949054 250.843192 
L 174.963375 250.843192 
L 174.963375 250.318944 
L 182.295198 250.318944 
L 182.295198 249.794696 
L 184.427989 249.794696 
L 184.427989 249.270448 
L 195.537465 249.270448 
L 195.537465 248.746201 
L 240.950283 248.746201 
L 240.950283 248.221953 
L 242.708629 248.221953 
L 242.708629 247.697705 
L 264.553947 247.697705 
L 264.553947 246.124962 
L 274.331468 246.124962 
L 274.339512 245.076467 
L 274.762514 245.076467 
L 274.762514 244.552219 
L 275.069625 244.552219 
L 275.069625 244.027971 
L 277.416311 244.027971 
L 277.448975 242.455228 
L 282.119973 242.455228 
L 282.119973 241.93098 
L 282.428291 241.93098 
L 282.463113 240.882485 
L 286.614582 240.882485 
L 286.614582 240.358237 
L 286.887954 240.358237 
L 286.887954 239.83399 
L 287.044119 239.83399 
L 287.044119 239.309742 
L 287.895638 239.309742 
L 287.974393 238.261246 
L 291.191854 238.261246 
L 291.191854 237.212751 
L 293.553396 237.212751 
L 293.553396 236.688503 
L 293.807167 236.688503 
L 293.807167 236.164255 
L 294.587547 236.164255 
L 294.587547 235.640008 
L 296.511358 235.640008 
L 296.511358 235.11576 
L 298.731316 235.11576 
L 298.731316 234.591512 
L 299.401259 234.591512 
L 299.401259 234.067265 
L 300.933603 234.067265 
L 301.024379 233.018769 
L 302.61696 233.018769 
L 302.61696 232.494521 
L 309.543408 232.494521 
L 309.543408 231.970274 
L 309.711722 231.970274 
L 309.739268 230.921778 
L 309.82554 230.921778 
L 309.82554 230.397531 
L 310.976976 230.397531 
L 310.976976 229.873283 
L 312.571803 229.873283 
L 312.595633 228.824787 
L 313.563534 228.824787 
L 313.649631 227.776292 
L 314.458179 227.776292 
L 314.517235 226.727797 
L 318.338191 226.727797 
L 318.338191 226.203549 
L 319.802059 226.203549 
L 319.802059 225.679301 
L 324.114227 225.679301 
L 324.114227 225.155053 
L 325.000514 225.155053 
L 325.092096 224.106558 
L 326.006971 224.106558 
L 326.006971 223.58231 
L 326.293047 223.58231 
L 326.293047 223.058063 
L 326.88416 223.058063 
L 326.88416 222.533815 
L 329.880519 222.533815 
L 329.880519 222.009567 
L 333.054809 222.009567 
L 333.054809 221.485319 
L 333.168 221.485319 
L 333.168 221.485319 
" style="fill:none;stroke:#6495ed;stroke-linecap:square;stroke-width:1.5;"/>
   </g>
   <g id="line2d_59">
    <defs>
     <path d="M -0 6 
L 6 -6 
L -6 -6 
z
" id="mcd472d8276" style="stroke:#6495ed;stroke-linejoin:miter;stroke-width:1.5;"/>
    </defs>
    <g>
     <use style="fill:none;stroke:#6495ed;stroke-linejoin:miter;stroke-width:1.5;" x="100.207968" xlink:href="#mcd472d8276" y="273.385844"/>
     <use style="fill:none;stroke:#6495ed;stroke-linejoin:miter;stroke-width:1.5;" x="171.040797" xlink:href="#mcd472d8276" y="252.415935"/>
     <use style="fill:none;stroke:#6495ed;stroke-linejoin:miter;stroke-width:1.5;" x="242.708629" xlink:href="#mcd472d8276" y="248.221953"/>
     <use style="fill:none;stroke:#6495ed;stroke-linejoin:miter;stroke-width:1.5;" x="312.595633" xlink:href="#mcd472d8276" y="229.349035"/>
     <use style="fill:none;stroke:#6495ed;stroke-linejoin:miter;stroke-width:1.5;" x="333.054809" xlink:href="#mcd472d8276" y="221.485319"/>
     <use style="fill:none;stroke:#6495ed;stroke-linejoin:miter;stroke-width:1.5;" x="333.168" xlink:href="#mcd472d8276" y="221.485319"/>
    </g>
   </g>
   <g id="line2d_60">
    <path style="fill:none;stroke:#6495ed;stroke-linecap:square;stroke-width:1.5;"/>
    <g/>
   </g>
   <g id="line2d_61">
    <path clip-path="url(#pa289246a5f)" d="M 274.899861 244.552219 
" style="fill:none;stroke:#6495ed;stroke-linecap:square;stroke-width:1.5;"/>
    <defs>
     <path d="M -12 12 
L 12 -12 
M -12 -12 
L 12 12 
" id="m3cdb73e4be" style="stroke:#6495ed;"/>
    </defs>
    <g clip-path="url(#pa289246a5f)">
     <use style="fill:#6495ed;stroke:#6495ed;" x="274.899861" xlink:href="#m3cdb73e4be" y="244.552219"/>
    </g>
   </g>
   <g id="line2d_62">
    <defs>
     <path d="M 0 1.5 
C 0.397805 1.5 0.77937 1.341951 1.06066 1.06066 
C 1.341951 0.77937 1.5 0.397805 1.5 0 
C 1.5 -0.397805 1.341951 -0.77937 1.06066 -1.06066 
C 0.77937 -1.341951 0.397805 -1.5 0 -1.5 
C -0.397805 -1.5 -0.77937 -1.341951 -1.06066 -1.06066 
C -1.341951 -0.77937 -1.5 -0.397805 -1.5 0 
C -1.5 0.397805 -1.341951 0.77937 -1.06066 1.06066 
C -0.77937 1.341951 -0.397805 1.5 0 1.5 
z
" id="mfce392db66" style="stroke:#ff0000;"/>
    </defs>
    <g>
     <use style="fill:#ff0000;stroke:#ff0000;" x="306.396375" xlink:href="#mfce392db66" y="27.513663"/>
     <use style="fill:#ff0000;stroke:#ff0000;" x="306.396375" xlink:href="#mfce392db66" y="27.513663"/>
    </g>
   </g>
   <g id="line2d_63">
    <path d="M 37.236359 294.88 
L 37.236359 283.34655 
L 49.15061 283.34655 
L 49.15061 282.822302 
L 56.12 282.822302 
L 56.12 281.773807 
L 61.064861 281.773807 
L 61.064861 280.201064 
L 64.900393 280.201064 
L 64.900393 279.676816 
L 68.034251 279.676816 
L 68.034251 279.152568 
L 70.68389 279.152568 
L 70.68389 278.104073 
L 75.003641 278.104073 
L 75.003641 277.579825 
L 78.452896 277.579825 
L 78.452896 277.055578 
L 81.324327 277.055578 
L 81.324327 276.53133 
L 82.598142 276.53133 
L 82.598142 276.007082 
L 83.784035 276.007082 
L 83.784035 275.482834 
L 84.893363 275.482834 
L 84.893363 273.910091 
L 91.131212 273.910091 
L 91.131212 273.385844 
L 93.887283 273.385844 
L 93.887283 272.861596 
L 95.698286 272.861596 
L 95.698286 272.337348 
L 97.849669 272.337348 
L 97.849669 271.8131 
L 98.347925 271.8131 
L 98.347925 271.288853 
L 98.832144 271.288853 
L 98.832144 270.764605 
L 107.029816 270.764605 
L 107.029816 270.240357 
L 107.323646 270.240357 
L 107.323646 269.716109 
L 111.675736 269.716109 
L 111.675736 268.667614 
L 112.122219 268.667614 
L 112.122219 268.143366 
L 113.999206 268.143366 
L 113.999206 267.619119 
L 114.195649 267.619119 
L 114.195649 267.094871 
L 117.231566 267.094871 
L 117.231566 266.570623 
L 118.795247 266.570623 
L 118.795247 266.046375 
L 120.365424 266.046375 
L 120.365424 265.522128 
L 121.034327 265.522128 
L 121.034327 264.99788 
L 125.104431 264.99788 
L 125.104431 264.473632 
L 130.483823 264.473632 
L 130.559378 263.425137 
L 131.51251 263.425137 
L 131.51251 262.900889 
L 136.652396 262.900889 
L 136.652396 262.376641 
L 137.678888 262.376641 
L 137.678888 261.852394 
L 137.926211 261.852394 
L 137.926211 261.328146 
L 139.020186 261.328146 
L 139.020186 260.803898 
L 139.874176 260.803898 
L 139.874176 259.755403 
L 148.829074 259.755403 
L 148.829074 259.231155 
L 150.702468 259.231155 
L 150.702468 258.706907 
L 151.8977 258.706907 
L 151.8977 258.18266 
L 154.76075 258.18266 
L 154.76075 257.658412 
L 155.606411 257.658412 
L 155.606411 257.134164 
L 161.027441 257.134164 
L 161.027441 256.609917 
L 162.997806 256.609917 
L 162.997806 256.085669 
L 168.090503 256.085669 
L 168.090503 255.561421 
L 168.805759 255.561421 
L 168.805759 255.037173 
L 170.642811 255.037173 
L 170.642811 254.512926 
L 171.154866 254.512926 
L 171.154866 253.988678 
L 171.317524 253.988678 
L 171.317524 253.46443 
L 172.533423 253.46443 
L 172.533423 252.940182 
L 173.164388 252.940182 
L 173.164388 252.415935 
L 175.110772 252.415935 
L 175.110772 251.891687 
L 175.228907 251.891687 
L 175.312795 250.843192 
L 175.791434 250.843192 
L 175.791434 249.794696 
L 175.985658 249.794696 
L 176.076618 248.746201 
L 176.103279 248.746201 
L 176.103279 248.221953 
L 183.479852 248.221953 
L 183.479852 247.697705 
L 189.565451 247.697705 
L 189.565451 247.173458 
L 189.703669 247.173458 
L 189.703669 246.64921 
L 189.850365 246.64921 
L 189.850365 246.124962 
L 196.16405 246.124962 
L 196.16405 245.600714 
L 200.236761 245.600714 
L 200.236761 245.076467 
L 202.557808 245.076467 
L 202.557808 244.552219 
L 203.08583 244.552219 
L 203.137862 243.503724 
L 203.204057 243.503724 
L 203.204057 242.979476 
L 204.722772 242.979476 
L 204.722772 242.455228 
L 206.634482 242.455228 
L 206.709178 241.406733 
L 206.900284 241.406733 
L 206.959682 237.212751 
L 207.022403 237.212751 
L 207.132274 231.446026 
L 207.141033 231.446026 
L 207.205715 227.252044 
L 208.350613 227.252044 
L 208.350613 226.203549 
L 208.690849 226.203549 
L 208.690849 225.679301 
L 208.907931 225.679301 
L 208.907931 225.155053 
L 210.86058 225.155053 
L 210.86058 224.630806 
L 211.419869 224.630806 
L 211.419869 224.106558 
L 212.92378 224.106558 
L 212.967512 223.058063 
L 214.537106 223.058063 
L 214.537106 222.533815 
L 222.347789 222.533815 
L 222.370551 221.485319 
L 223.328999 221.485319 
L 223.328999 220.961072 
L 226.287703 220.961072 
L 226.287703 219.912576 
L 226.410875 219.912576 
L 226.519845 208.379126 
L 226.524098 208.379126 
L 226.526083 206.806383 
L 227.993717 206.806383 
L 227.993717 206.282136 
L 228.909887 206.282136 
L 228.909887 205.757888 
L 231.308576 205.757888 
L 231.308576 205.23364 
L 231.930627 205.23364 
L 231.933939 204.185145 
L 232.326826 204.185145 
L 232.423459 202.612401 
L 233.048468 202.612401 
L 233.048468 202.088154 
L 234.151418 202.088154 
L 234.151418 201.563906 
L 235.979514 201.563906 
L 235.979514 201.039658 
L 236.931346 201.039658 
L 236.949289 199.466915 
L 238.51022 199.466915 
L 238.534909 198.41842 
L 240.684003 198.41842 
L 240.684003 197.894172 
L 241.153888 197.894172 
L 241.156067 196.845677 
L 242.455411 196.845677 
L 242.463265 193.70019 
L 244.189309 193.70019 
L 244.216276 185.312227 
L 244.398156 185.312227 
L 244.398156 184.787979 
L 246.835745 184.787979 
L 246.835745 184.263731 
L 247.898918 184.263731 
L 247.932326 171.681786 
L 253.54749 171.681786 
L 253.547667 170.633291 
L 254.192102 170.633291 
L 254.195447 169.060547 
L 255.089252 169.060547 
L 255.105066 159.624089 
L 257.156503 159.624089 
L 257.175674 150.18763 
L 259.87369 150.18763 
L 259.87369 149.663382 
L 261.101744 149.663382 
L 261.104133 146.517896 
L 261.7073 146.517896 
L 261.716744 139.702675 
L 263.142141 139.702675 
L 263.153758 133.411703 
L 265.1023 133.411703 
L 265.1023 132.887455 
L 266.017622 132.887455 
L 266.01765 131.838959 
L 266.473427 131.838959 
L 266.481472 122.926748 
L 267.570207 122.926748 
L 267.580513 115.58728 
L 270.200953 115.58728 
L 270.206895 110.344803 
L 271.090559 110.344803 
L 271.097515 106.150821 
L 273.262429 106.150821 
L 273.266672 103.005335 
L 274.00891 103.005335 
L 274.015979 97.762858 
L 275.597862 97.762858 
L 275.597862 97.23861 
L 275.860195 97.23861 
L 275.864341 90.947637 
L 276.504818 90.947637 
L 276.510081 88.326399 
L 278.117043 88.326399 
L 278.119904 84.132417 
L 278.682836 84.132417 
L 278.686573 81.511178 
L 280.111303 81.511178 
L 280.113926 79.414188 
L 280.619027 79.414188 
L 280.620088 77.841444 
L 281.897758 77.841444 
L 281.900179 76.792949 
L 282.35261 76.792949 
L 282.356917 71.026224 
L 283.515209 71.026224 
L 283.518184 68.404985 
L 283.930424 68.404985 
L 283.934383 64.735251 
L 284.994794 64.735251 
L 284.996636 61.589765 
L 285.375447 61.589765 
L 285.37905 57.395783 
L 286.357636 57.395783 
L 286.358116 56.347288 
L 286.708413 56.347288 
L 286.71079 51.629058 
L 287.617508 51.629058 
L 287.618903 50.056315 
L 287.94606 50.056315 
L 287.947603 48.483572 
L 288.793483 48.483572 
L 288.795088 45.862334 
L 289.101029 45.862334 
L 289.102301 43.241095 
L 289.893197 43.241095 
L 289.893901 41.668352 
L 290.181074 41.668352 
L 290.181074 41.144104 
L 290.928363 41.144104 
L 290.928925 40.095609 
L 291.198288 40.095609 
L 291.200171 39.047113 
L 291.902639 39.047113 
L 291.904086 37.998618 
L 292.825516 37.998618 
L 292.825516 37.47437 
L 293.701056 37.47437 
L 293.701631 36.425875 
L 294.535318 36.425875 
L 294.535318 35.901627 
L 294.754617 35.901627 
L 294.756063 34.853131 
L 295.330116 34.853131 
L 295.330116 34.328884 
L 296.089743 34.328884 
L 296.089743 33.804636 
L 296.290269 33.804636 
L 296.290269 33.280388 
L 296.816421 33.280388 
L 296.816421 32.756141 
L 297.011004 32.756141 
L 297.011004 32.231893 
L 298.185617 32.231893 
L 298.185617 31.707645 
L 300.789606 31.707645 
L 300.789606 31.183397 
L 301.34547 31.183397 
L 301.34547 30.65915 
L 301.883989 30.65915 
L 301.883989 30.134902 
L 302.265333 30.134902 
L 302.265333 29.610654 
L 302.406649 29.610654 
L 302.406649 29.086407 
L 303.273542 29.086407 
L 303.273542 28.562159 
L 304.681953 28.562159 
L 304.681953 28.037911 
L 306.396375 28.037911 
L 306.396375 27.513663 
L 333.168 27.513663 
L 333.168 27.513663 
" style="fill:none;stroke:#ff0000;stroke-linecap:square;stroke-width:1.5;"/>
   </g>
   <g id="line2d_64">
    <defs>
     <path d="M 0 -6 
L -5.196152 -3 
L -5.196152 3 
L -0 6 
L 5.196152 3 
L 5.196152 -3 
z
" id="m225332a67a" style="stroke:#ff0000;stroke-linejoin:miter;stroke-width:1.5;"/>
    </defs>
    <g>
     <use style="fill:none;stroke:#ff0000;stroke-linejoin:miter;stroke-width:1.5;" x="84.893363" xlink:href="#m225332a67a" y="273.910091"/>
     <use style="fill:none;stroke:#ff0000;stroke-linejoin:miter;stroke-width:1.5;" x="176.103279" xlink:href="#m225332a67a" y="248.746201"/>
     <use style="fill:none;stroke:#ff0000;stroke-linejoin:miter;stroke-width:1.5;" x="244.213136" xlink:href="#m225332a67a" y="186.88497"/>
     <use style="fill:none;stroke:#ff0000;stroke-linejoin:miter;stroke-width:1.5;" x="275.862284" xlink:href="#m225332a67a" y="93.044628"/>
     <use style="fill:none;stroke:#ff0000;stroke-linejoin:miter;stroke-width:1.5;" x="306.396375" xlink:href="#m225332a67a" y="27.513663"/>
     <use style="fill:none;stroke:#ff0000;stroke-linejoin:miter;stroke-width:1.5;" x="333.168" xlink:href="#m225332a67a" y="27.513663"/>
    </g>
   </g>
   <g id="line2d_65">
    <path style="fill:none;stroke:#ff0000;stroke-linecap:square;stroke-width:1.5;"/>
    <g/>
   </g>
   <g id="line2d_66">
    <path clip-path="url(#pa289246a5f)" d="M 242.097521 196.845677 
" style="fill:none;stroke:#ff0000;stroke-linecap:square;stroke-width:1.5;"/>
    <defs>
     <path d="M -12 12 
L 12 -12 
M -12 -12 
L 12 12 
" id="me2405a3301" style="stroke:#ff0000;"/>
    </defs>
    <g clip-path="url(#pa289246a5f)">
     <use style="fill:#ff0000;stroke:#ff0000;" x="242.097521" xlink:href="#me2405a3301" y="196.845677"/>
    </g>
   </g>
   <g id="line2d_67">
    <path d="M 333.168 273.910091 
L 363.64328 289.532673 
" style="fill:none;stroke:#000080;stroke-linecap:square;stroke-width:1.5;"/>
    <g>
     <use style="fill:none;stroke:#000080;stroke-width:1.5;" x="333.168" xlink:href="#m508855c307" y="273.910091"/>
     <use style="fill:none;stroke:#000080;stroke-width:1.5;" x="363.64328" xlink:href="#m508855c307" y="289.532673"/>
    </g>
   </g>
   <g id="line2d_68">
    <path d="M 333.168 258.18266 
L 363.64328 238.198337 
" style="fill:none;stroke:#ff00ff;stroke-linecap:square;stroke-width:1.5;"/>
    <g>
     <use style="fill:none;stroke:#ff00ff;stroke-linejoin:miter;stroke-width:1.5;" x="333.168" xlink:href="#m23d5227a7c" y="258.18266"/>
     <use style="fill:none;stroke:#ff00ff;stroke-linejoin:miter;stroke-width:1.5;" x="363.64328" xlink:href="#m23d5227a7c" y="238.198337"/>
    </g>
   </g>
   <g id="line2d_69">
    <path d="M 333.168 221.485319 
L 363.64328 186.864 
" style="fill:none;stroke:#6495ed;stroke-linecap:square;stroke-width:1.5;"/>
    <g>
     <use style="fill:none;stroke:#6495ed;stroke-linejoin:miter;stroke-width:1.5;" x="333.168" xlink:href="#mcd472d8276" y="221.485319"/>
     <use style="fill:none;stroke:#6495ed;stroke-linejoin:miter;stroke-width:1.5;" x="363.64328" xlink:href="#mcd472d8276" y="186.864"/>
    </g>
   </g>
   <g id="line2d_70">
    <path d="M 333.168 46.386581 
L 363.64328 135.529663 
" style="fill:none;stroke:#ff7500;stroke-linecap:square;stroke-width:1.5;"/>
    <g>
     <use style="fill:none;stroke:#ff7500;stroke-linejoin:bevel;stroke-width:1.5;" x="333.168" xlink:href="#m2043f1e3fb" y="46.386581"/>
     <use style="fill:none;stroke:#ff7500;stroke-linejoin:bevel;stroke-width:1.5;" x="363.64328" xlink:href="#m2043f1e3fb" y="135.529663"/>
    </g>
   </g>
   <g id="line2d_71">
    <path d="M 333.168 27.513663 
L 363.64328 84.195327 
" style="fill:none;stroke:#ff0000;stroke-linecap:square;stroke-width:1.5;"/>
    <g>
     <use style="fill:none;stroke:#ff0000;stroke-linejoin:miter;stroke-width:1.5;" x="333.168" xlink:href="#m225332a67a" y="27.513663"/>
     <use style="fill:none;stroke:#ff0000;stroke-linejoin:miter;stroke-width:1.5;" x="363.64328" xlink:href="#m225332a67a" y="84.195327"/>
    </g>
   </g>
   <g id="line2d_72">
    <path d="M 333.168 294.88 
L 333.168 27.513663 
" style="fill:none;stroke:#000000;stroke-linecap:square;stroke-width:1.5;"/>
   </g>
   <g id="patch_3">
    <path d="M 56.12 294.88 
L 56.12 24.84 
" style="fill:none;stroke:#000000;stroke-linecap:square;stroke-linejoin:miter;stroke-width:0.8;"/>
   </g>
   <g id="patch_4">
    <path d="M 333.168 294.88 
L 333.168 24.84 
" style="fill:none;stroke:#000000;stroke-linecap:square;stroke-linejoin:miter;stroke-width:0.8;"/>
   </g>
   <g id="patch_5">
    <path d="M 56.12 294.88 
L 333.168 294.88 
" style="fill:none;stroke:#000000;stroke-linecap:square;stroke-linejoin:miter;stroke-width:0.8;"/>
   </g>
   <g id="patch_6">
    <path d="M 56.12 24.84 
L 333.168 24.84 
" style="fill:none;stroke:#000000;stroke-linecap:square;stroke-linejoin:miter;stroke-width:0.8;"/>
   </g>
   <g id="text_13">
    <!-- scipyAlg -->
    <defs>
     <path d="M 32.171875 -5.078125 
Q 28.375 -14.84375 24.75 -17.8125 
Q 21.140625 -20.796875 15.09375 -20.796875 
L 7.90625 -20.796875 
L 7.90625 -13.28125 
L 13.1875 -13.28125 
Q 16.890625 -13.28125 18.9375 -11.515625 
Q 21 -9.765625 23.484375 -3.21875 
L 25.09375 0.875 
L 2.984375 54.6875 
L 12.5 54.6875 
L 29.59375 11.921875 
L 46.6875 54.6875 
L 56.203125 54.6875 
z
" id="DejaVuSans-79"/>
     <path d="M 34.1875 63.1875 
L 20.796875 26.90625 
L 47.609375 26.90625 
z
M 28.609375 72.90625 
L 39.796875 72.90625 
L 67.578125 0 
L 57.328125 0 
L 50.6875 18.703125 
L 17.828125 18.703125 
L 11.1875 0 
L 0.78125 0 
z
" id="DejaVuSans-41"/>
    </defs>
    <g transform="translate(369.18424 294.223611)scale(0.17 -0.17)">
     <use xlink:href="#DejaVuSans-73"/>
     <use x="52.099609" xlink:href="#DejaVuSans-63"/>
     <use x="107.080078" xlink:href="#DejaVuSans-69"/>
     <use x="134.863281" xlink:href="#DejaVuSans-70"/>
     <use x="198.339844" xlink:href="#DejaVuSans-79"/>
     <use x="257.519531" xlink:href="#DejaVuSans-41"/>
     <use x="325.927734" xlink:href="#DejaVuSans-6c"/>
     <use x="353.710938" xlink:href="#DejaVuSans-67"/>
    </g>
   </g>
   <g id="text_14">
    <!-- CMA ES PP -->
    <defs>
     <path d="M 64.40625 67.28125 
L 64.40625 56.890625 
Q 59.421875 61.53125 53.78125 63.8125 
Q 48.140625 66.109375 41.796875 66.109375 
Q 29.296875 66.109375 22.65625 58.46875 
Q 16.015625 50.828125 16.015625 36.375 
Q 16.015625 21.96875 22.65625 14.328125 
Q 29.296875 6.6875 41.796875 6.6875 
Q 48.140625 6.6875 53.78125 8.984375 
Q 59.421875 11.28125 64.40625 15.921875 
L 64.40625 5.609375 
Q 59.234375 2.09375 53.4375 0.328125 
Q 47.65625 -1.421875 41.21875 -1.421875 
Q 24.65625 -1.421875 15.125 8.703125 
Q 5.609375 18.84375 5.609375 36.375 
Q 5.609375 53.953125 15.125 64.078125 
Q 24.65625 74.21875 41.21875 74.21875 
Q 47.75 74.21875 53.53125 72.484375 
Q 59.328125 70.75 64.40625 67.28125 
z
" id="DejaVuSans-43"/>
     <path d="M 9.8125 72.90625 
L 24.515625 72.90625 
L 43.109375 23.296875 
L 61.8125 72.90625 
L 76.515625 72.90625 
L 76.515625 0 
L 66.890625 0 
L 66.890625 64.015625 
L 48.09375 14.015625 
L 38.1875 14.015625 
L 19.390625 64.015625 
L 19.390625 0 
L 9.8125 0 
z
" id="DejaVuSans-4d"/>
     <path d="M 9.8125 72.90625 
L 55.90625 72.90625 
L 55.90625 64.59375 
L 19.671875 64.59375 
L 19.671875 43.015625 
L 54.390625 43.015625 
L 54.390625 34.71875 
L 19.671875 34.71875 
L 19.671875 8.296875 
L 56.78125 8.296875 
L 56.78125 0 
L 9.8125 0 
z
" id="DejaVuSans-45"/>
     <path d="M 53.515625 70.515625 
L 53.515625 60.890625 
Q 47.90625 63.578125 42.921875 64.890625 
Q 37.9375 66.21875 33.296875 66.21875 
Q 25.25 66.21875 20.875 63.09375 
Q 16.5 59.96875 16.5 54.203125 
Q 16.5 49.359375 19.40625 46.890625 
Q 22.3125 44.4375 30.421875 42.921875 
L 36.375 41.703125 
Q 47.40625 39.59375 52.65625 34.296875 
Q 57.90625 29 57.90625 20.125 
Q 57.90625 9.515625 50.796875 4.046875 
Q 43.703125 -1.421875 29.984375 -1.421875 
Q 24.8125 -1.421875 18.96875 -0.25 
Q 13.140625 0.921875 6.890625 3.21875 
L 6.890625 13.375 
Q 12.890625 10.015625 18.65625 8.296875 
Q 24.421875 6.59375 29.984375 6.59375 
Q 38.421875 6.59375 43.015625 9.90625 
Q 47.609375 13.234375 47.609375 19.390625 
Q 47.609375 24.75 44.3125 27.78125 
Q 41.015625 30.8125 33.5 32.328125 
L 27.484375 33.5 
Q 16.453125 35.6875 11.515625 40.375 
Q 6.59375 45.0625 6.59375 53.421875 
Q 6.59375 63.09375 13.40625 68.65625 
Q 20.21875 74.21875 32.171875 74.21875 
Q 37.3125 74.21875 42.625 73.28125 
Q 47.953125 72.359375 53.515625 70.515625 
z
" id="DejaVuSans-53"/>
     <path d="M 19.671875 64.796875 
L 19.671875 37.40625 
L 32.078125 37.40625 
Q 38.96875 37.40625 42.71875 40.96875 
Q 46.484375 44.53125 46.484375 51.125 
Q 46.484375 57.671875 42.71875 61.234375 
Q 38.96875 64.796875 32.078125 64.796875 
z
M 9.8125 72.90625 
L 32.078125 72.90625 
Q 44.34375 72.90625 50.609375 67.359375 
Q 56.890625 61.8125 56.890625 51.125 
Q 56.890625 40.328125 50.609375 34.8125 
Q 44.34375 29.296875 32.078125 29.296875 
L 19.671875 29.296875 
L 19.671875 0 
L 9.8125 0 
z
" id="DejaVuSans-50"/>
    </defs>
    <g transform="translate(369.18424 242.889274)scale(0.17 -0.17)">
     <use xlink:href="#DejaVuSans-43"/>
     <use x="69.824219" xlink:href="#DejaVuSans-4d"/>
     <use x="156.103516" xlink:href="#DejaVuSans-41"/>
     <use x="224.511719" xlink:href="#DejaVuSans-20"/>
     <use x="256.298828" xlink:href="#DejaVuSans-45"/>
     <use x="319.482422" xlink:href="#DejaVuSans-53"/>
     <use x="382.958984" xlink:href="#DejaVuSans-20"/>
     <use x="414.746094" xlink:href="#DejaVuSans-50"/>
     <use x="475.048828" xlink:href="#DejaVuSans-50"/>
    </g>
   </g>
   <g id="text_15">
    <!-- IPOP-CMA- -->
    <defs>
     <path d="M 9.8125 72.90625 
L 19.671875 72.90625 
L 19.671875 0 
L 9.8125 0 
z
" id="DejaVuSans-49"/>
     <path d="M 39.40625 66.21875 
Q 28.65625 66.21875 22.328125 58.203125 
Q 16.015625 50.203125 16.015625 36.375 
Q 16.015625 22.609375 22.328125 14.59375 
Q 28.65625 6.59375 39.40625 6.59375 
Q 50.140625 6.59375 56.421875 14.59375 
Q 62.703125 22.609375 62.703125 36.375 
Q 62.703125 50.203125 56.421875 58.203125 
Q 50.140625 66.21875 39.40625 66.21875 
z
M 39.40625 74.21875 
Q 54.734375 74.21875 63.90625 63.9375 
Q 73.09375 53.65625 73.09375 36.375 
Q 73.09375 19.140625 63.90625 8.859375 
Q 54.734375 -1.421875 39.40625 -1.421875 
Q 24.03125 -1.421875 14.8125 8.828125 
Q 5.609375 19.09375 5.609375 36.375 
Q 5.609375 53.65625 14.8125 63.9375 
Q 24.03125 74.21875 39.40625 74.21875 
z
" id="DejaVuSans-4f"/>
    </defs>
    <g transform="translate(369.18424 191.554937)scale(0.17 -0.17)">
     <use xlink:href="#DejaVuSans-49"/>
     <use x="29.492188" xlink:href="#DejaVuSans-50"/>
     <use x="89.794922" xlink:href="#DejaVuSans-4f"/>
     <use x="168.505859" xlink:href="#DejaVuSans-50"/>
     <use x="228.777344" xlink:href="#DejaVuSans-2d"/>
     <use x="264.861328" xlink:href="#DejaVuSans-43"/>
     <use x="334.685547" xlink:href="#DejaVuSans-4d"/>
     <use x="420.964844" xlink:href="#DejaVuSans-41"/>
     <use x="489.341797" xlink:href="#DejaVuSans-2d"/>
    </g>
   </g>
   <g id="text_16">
    <!-- IPOP-ACTC -->
    <defs>
     <path d="M -0.296875 72.90625 
L 61.375 72.90625 
L 61.375 64.59375 
L 35.5 64.59375 
L 35.5 0 
L 25.59375 0 
L 25.59375 64.59375 
L -0.296875 64.59375 
z
" id="DejaVuSans-54"/>
    </defs>
    <g transform="translate(369.18424 140.220601)scale(0.17 -0.17)">
     <use xlink:href="#DejaVuSans-49"/>
     <use x="29.492188" xlink:href="#DejaVuSans-50"/>
     <use x="89.794922" xlink:href="#DejaVuSans-4f"/>
     <use x="168.505859" xlink:href="#DejaVuSans-50"/>
     <use x="228.777344" xlink:href="#DejaVuSans-2d"/>
     <use x="264.830078" xlink:href="#DejaVuSans-41"/>
     <use x="333.222656" xlink:href="#DejaVuSans-43"/>
     <use x="403.046875" xlink:href="#DejaVuSans-54"/>
     <use x="464.052734" xlink:href="#DejaVuSans-43"/>
    </g>
   </g>
   <g id="text_17">
    <!-- CMAES pos -->
    <g transform="translate(369.18424 88.886264)scale(0.17 -0.17)">
     <use xlink:href="#DejaVuSans-43"/>
     <use x="69.824219" xlink:href="#DejaVuSans-4d"/>
     <use x="156.103516" xlink:href="#DejaVuSans-41"/>
     <use x="224.511719" xlink:href="#DejaVuSans-45"/>
     <use x="287.695312" xlink:href="#DejaVuSans-53"/>
     <use x="351.171875" xlink:href="#DejaVuSans-20"/>
     <use x="382.958984" xlink:href="#DejaVuSans-70"/>
     <use x="446.435547" xlink:href="#DejaVuSans-6f"/>
     <use x="507.617188" xlink:href="#DejaVuSans-73"/>
    </g>
   </g>
   <g id="text_18">
    <!-- best 2009 -->
    <defs>
     <path d="M 48.6875 27.296875 
Q 48.6875 37.203125 44.609375 42.84375 
Q 40.53125 48.484375 33.40625 48.484375 
Q 26.265625 48.484375 22.1875 42.84375 
Q 18.109375 37.203125 18.109375 27.296875 
Q 18.109375 17.390625 22.1875 11.75 
Q 26.265625 6.109375 33.40625 6.109375 
Q 40.53125 6.109375 44.609375 11.75 
Q 48.6875 17.390625 48.6875 27.296875 
z
M 18.109375 46.390625 
Q 20.953125 51.265625 25.265625 53.625 
Q 29.59375 56 35.59375 56 
Q 45.5625 56 51.78125 48.09375 
Q 58.015625 40.1875 58.015625 27.296875 
Q 58.015625 14.40625 51.78125 6.484375 
Q 45.5625 -1.421875 35.59375 -1.421875 
Q 29.59375 -1.421875 25.265625 0.953125 
Q 20.953125 3.328125 18.109375 8.203125 
L 18.109375 0 
L 9.078125 0 
L 9.078125 75.984375 
L 18.109375 75.984375 
z
" id="DejaVuSans-62"/>
     <path d="M 10.984375 1.515625 
L 10.984375 10.5 
Q 14.703125 8.734375 18.5 7.8125 
Q 22.3125 6.890625 25.984375 6.890625 
Q 35.75 6.890625 40.890625 13.453125 
Q 46.046875 20.015625 46.78125 33.40625 
Q 43.953125 29.203125 39.59375 26.953125 
Q 35.25 24.703125 29.984375 24.703125 
Q 19.046875 24.703125 12.671875 31.3125 
Q 6.296875 37.9375 6.296875 49.421875 
Q 6.296875 60.640625 12.9375 67.421875 
Q 19.578125 74.21875 30.609375 74.21875 
Q 43.265625 74.21875 49.921875 64.515625 
Q 56.59375 54.828125 56.59375 36.375 
Q 56.59375 19.140625 48.40625 8.859375 
Q 40.234375 -1.421875 26.421875 -1.421875 
Q 22.703125 -1.421875 18.890625 -0.6875 
Q 15.09375 0.046875 10.984375 1.515625 
z
M 30.609375 32.421875 
Q 37.25 32.421875 41.125 36.953125 
Q 45.015625 41.5 45.015625 49.421875 
Q 45.015625 57.28125 41.125 61.84375 
Q 37.25 66.40625 30.609375 66.40625 
Q 23.96875 66.40625 20.09375 61.84375 
Q 16.21875 57.28125 16.21875 49.421875 
Q 16.21875 41.5 20.09375 36.953125 
Q 23.96875 32.421875 30.609375 32.421875 
z
" id="DejaVuSans-39"/>
    </defs>
    <g transform="translate(369.18424 37.551928)scale(0.17 -0.17)">
     <use xlink:href="#DejaVuSans-62"/>
     <use x="63.476562" xlink:href="#DejaVuSans-65"/>
     <use x="125" xlink:href="#DejaVuSans-73"/>
     <use x="177.099609" xlink:href="#DejaVuSans-74"/>
     <use x="216.308594" xlink:href="#DejaVuSans-20"/>
     <use x="248.095703" xlink:href="#DejaVuSans-32"/>
     <use x="311.71875" xlink:href="#DejaVuSans-30"/>
     <use x="375.341797" xlink:href="#DejaVuSans-30"/>
     <use x="438.964844" xlink:href="#DejaVuSans-39"/>
    </g>
   </g>
   <g id="text_19">
    <!-- bbob f24, 3-D -->
    <defs>
     <path d="M 40.578125 39.3125 
Q 47.65625 37.796875 51.625 33 
Q 55.609375 28.21875 55.609375 21.1875 
Q 55.609375 10.40625 48.1875 4.484375 
Q 40.765625 -1.421875 27.09375 -1.421875 
Q 22.515625 -1.421875 17.65625 -0.515625 
Q 12.796875 0.390625 7.625 2.203125 
L 7.625 11.71875 
Q 11.71875 9.328125 16.59375 8.109375 
Q 21.484375 6.890625 26.8125 6.890625 
Q 36.078125 6.890625 40.9375 10.546875 
Q 45.796875 14.203125 45.796875 21.1875 
Q 45.796875 27.640625 41.28125 31.265625 
Q 36.765625 34.90625 28.71875 34.90625 
L 20.21875 34.90625 
L 20.21875 43.015625 
L 29.109375 43.015625 
Q 36.375 43.015625 40.234375 45.921875 
Q 44.09375 48.828125 44.09375 54.296875 
Q 44.09375 59.90625 40.109375 62.90625 
Q 36.140625 65.921875 28.71875 65.921875 
Q 24.65625 65.921875 20.015625 65.03125 
Q 15.375 64.15625 9.8125 62.3125 
L 9.8125 71.09375 
Q 15.4375 72.65625 20.34375 73.4375 
Q 25.25 74.21875 29.59375 74.21875 
Q 40.828125 74.21875 47.359375 69.109375 
Q 53.90625 64.015625 53.90625 55.328125 
Q 53.90625 49.265625 50.4375 45.09375 
Q 46.96875 40.921875 40.578125 39.3125 
z
" id="DejaVuSans-33"/>
     <path d="M 19.671875 64.796875 
L 19.671875 8.109375 
L 31.59375 8.109375 
Q 46.6875 8.109375 53.6875 14.9375 
Q 60.6875 21.78125 60.6875 36.53125 
Q 60.6875 51.171875 53.6875 57.984375 
Q 46.6875 64.796875 31.59375 64.796875 
z
M 9.8125 72.90625 
L 30.078125 72.90625 
Q 51.265625 72.90625 61.171875 64.09375 
Q 71.09375 55.28125 71.09375 36.53125 
Q 71.09375 17.671875 61.125 8.828125 
Q 51.171875 0 30.078125 0 
L 9.8125 0 
z
" id="DejaVuSans-44"/>
    </defs>
    <g transform="translate(58.89048 35.290806)scale(0.102 -0.102)">
     <use xlink:href="#DejaVuSans-62"/>
     <use x="63.476562" xlink:href="#DejaVuSans-62"/>
     <use x="126.953125" xlink:href="#DejaVuSans-6f"/>
     <use x="188.134766" xlink:href="#DejaVuSans-62"/>
     <use x="251.611328" xlink:href="#DejaVuSans-20"/>
     <use x="283.398438" xlink:href="#DejaVuSans-66"/>
     <use x="318.603516" xlink:href="#DejaVuSans-32"/>
     <use x="382.226562" xlink:href="#DejaVuSans-34"/>
     <use x="445.849609" xlink:href="#DejaVuSans-2c"/>
     <use x="477.636719" xlink:href="#DejaVuSans-20"/>
     <use x="509.423828" xlink:href="#DejaVuSans-33"/>
     <use x="573.046875" xlink:href="#DejaVuSans-2d"/>
     <use x="609.130859" xlink:href="#DejaVuSans-44"/>
    </g>
    <!-- 51 targets: 100..1e-08 -->
    <defs>
     <path d="M 10.796875 72.90625 
L 49.515625 72.90625 
L 49.515625 64.59375 
L 19.828125 64.59375 
L 19.828125 46.734375 
Q 21.96875 47.46875 24.109375 47.828125 
Q 26.265625 48.1875 28.421875 48.1875 
Q 40.625 48.1875 47.75 41.5 
Q 54.890625 34.8125 54.890625 23.390625 
Q 54.890625 11.625 47.5625 5.09375 
Q 40.234375 -1.421875 26.90625 -1.421875 
Q 22.3125 -1.421875 17.546875 -0.640625 
Q 12.796875 0.140625 7.71875 1.703125 
L 7.71875 11.625 
Q 12.109375 9.234375 16.796875 8.0625 
Q 21.484375 6.890625 26.703125 6.890625 
Q 35.15625 6.890625 40.078125 11.328125 
Q 45.015625 15.765625 45.015625 23.390625 
Q 45.015625 31 40.078125 35.4375 
Q 35.15625 39.890625 26.703125 39.890625 
Q 22.75 39.890625 18.8125 39.015625 
Q 14.890625 38.140625 10.796875 36.28125 
z
" id="DejaVuSans-35"/>
     <path d="M 11.71875 12.40625 
L 22.015625 12.40625 
L 22.015625 0 
L 11.71875 0 
z
M 11.71875 51.703125 
L 22.015625 51.703125 
L 22.015625 39.3125 
L 11.71875 39.3125 
z
" id="DejaVuSans-3a"/>
    </defs>
    <g transform="translate(58.89048 46.712575)scale(0.102 -0.102)">
     <use xlink:href="#DejaVuSans-35"/>
     <use x="63.623047" xlink:href="#DejaVuSans-31"/>
     <use x="127.246094" xlink:href="#DejaVuSans-20"/>
     <use x="159.033203" xlink:href="#DejaVuSans-74"/>
     <use x="198.242188" xlink:href="#DejaVuSans-61"/>
     <use x="259.521484" xlink:href="#DejaVuSans-72"/>
     <use x="300.619141" xlink:href="#DejaVuSans-67"/>
     <use x="364.095703" xlink:href="#DejaVuSans-65"/>
     <use x="425.619141" xlink:href="#DejaVuSans-74"/>
     <use x="464.828125" xlink:href="#DejaVuSans-73"/>
     <use x="516.927734" xlink:href="#DejaVuSans-3a"/>
     <use x="550.619141" xlink:href="#DejaVuSans-20"/>
     <use x="582.40625" xlink:href="#DejaVuSans-31"/>
     <use x="646.029297" xlink:href="#DejaVuSans-30"/>
     <use x="709.652344" xlink:href="#DejaVuSans-30"/>
     <use x="773.275391" xlink:href="#DejaVuSans-2e"/>
     <use x="805.0625" xlink:href="#DejaVuSans-2e"/>
     <use x="836.849609" xlink:href="#DejaVuSans-31"/>
     <use x="900.472656" xlink:href="#DejaVuSans-65"/>
     <use x="961.996094" xlink:href="#DejaVuSans-2d"/>
     <use x="998.080078" xlink:href="#DejaVuSans-30"/>
     <use x="1061.703125" xlink:href="#DejaVuSans-38"/>
    </g>
    <!-- 15 instances -->
    <g transform="translate(58.89048 58.134344)scale(0.102 -0.102)">
     <use xlink:href="#DejaVuSans-31"/>
     <use x="63.623047" xlink:href="#DejaVuSans-35"/>
     <use x="127.246094" xlink:href="#DejaVuSans-20"/>
     <use x="159.033203" xlink:href="#DejaVuSans-69"/>
     <use x="186.816406" xlink:href="#DejaVuSans-6e"/>
     <use x="250.195312" xlink:href="#DejaVuSans-73"/>
     <use x="302.294922" xlink:href="#DejaVuSans-74"/>
     <use x="341.503906" xlink:href="#DejaVuSans-61"/>
     <use x="402.783203" xlink:href="#DejaVuSans-6e"/>
     <use x="466.162109" xlink:href="#DejaVuSans-63"/>
     <use x="521.142578" xlink:href="#DejaVuSans-65"/>
     <use x="582.666016" xlink:href="#DejaVuSans-73"/>
    </g>
   </g>
   <g id="text_20">
    <!-- v0.0.0 -->
    <g style="fill:#808080;" transform="translate(178.96275 290.099912)scale(0.1 -0.1)">
     <use xlink:href="#DejaVuSans-76"/>
     <use x="59.179688" xlink:href="#DejaVuSans-30"/>
     <use x="122.802734" xlink:href="#DejaVuSans-2e"/>
     <use x="154.589844" xlink:href="#DejaVuSans-30"/>
     <use x="218.212891" xlink:href="#DejaVuSans-2e"/>
     <use x="250" xlink:href="#DejaVuSans-30"/>
    </g>
   </g>
   <g id="text_21">
    <!-- 24 Lunacek bi-Rastrigin -->
    <defs>
     <path d="M 9.8125 72.90625 
L 19.671875 72.90625 
L 19.671875 8.296875 
L 55.171875 8.296875 
L 55.171875 0 
L 9.8125 0 
z
" id="DejaVuSans-4c"/>
     <path d="M 9.078125 75.984375 
L 18.109375 75.984375 
L 18.109375 31.109375 
L 44.921875 54.6875 
L 56.390625 54.6875 
L 27.390625 29.109375 
L 57.625 0 
L 45.90625 0 
L 18.109375 26.703125 
L 18.109375 0 
L 9.078125 0 
z
" id="DejaVuSans-6b"/>
     <path d="M 44.390625 34.1875 
Q 47.5625 33.109375 50.5625 29.59375 
Q 53.5625 26.078125 56.59375 19.921875 
L 66.609375 0 
L 56 0 
L 46.6875 18.703125 
Q 43.0625 26.03125 39.671875 28.421875 
Q 36.28125 30.8125 30.421875 30.8125 
L 19.671875 30.8125 
L 19.671875 0 
L 9.8125 0 
L 9.8125 72.90625 
L 32.078125 72.90625 
Q 44.578125 72.90625 50.734375 67.671875 
Q 56.890625 62.453125 56.890625 51.90625 
Q 56.890625 45.015625 53.6875 40.46875 
Q 50.484375 35.9375 44.390625 34.1875 
z
M 19.671875 64.796875 
L 19.671875 38.921875 
L 32.078125 38.921875 
Q 39.203125 38.921875 42.84375 42.21875 
Q 46.484375 45.515625 46.484375 51.90625 
Q 46.484375 58.296875 42.84375 61.546875 
Q 39.203125 64.796875 32.078125 64.796875 
z
" id="DejaVuSans-52"/>
    </defs>
    <g transform="translate(76.4565 18.84)scale(0.2 -0.2)">
     <use xlink:href="#DejaVuSans-32"/>
     <use x="63.623047" xlink:href="#DejaVuSans-34"/>
     <use x="127.246094" xlink:href="#DejaVuSans-20"/>
     <use x="159.033203" xlink:href="#DejaVuSans-4c"/>
     <use x="214.730469" xlink:href="#DejaVuSans-75"/>
     <use x="278.109375" xlink:href="#DejaVuSans-6e"/>
     <use x="341.488281" xlink:href="#DejaVuSans-61"/>
     <use x="402.767578" xlink:href="#DejaVuSans-63"/>
     <use x="457.748047" xlink:href="#DejaVuSans-65"/>
     <use x="519.271484" xlink:href="#DejaVuSans-6b"/>
     <use x="577.181641" xlink:href="#DejaVuSans-20"/>
     <use x="608.96875" xlink:href="#DejaVuSans-62"/>
     <use x="672.445312" xlink:href="#DejaVuSans-69"/>
     <use x="700.228516" xlink:href="#DejaVuSans-2d"/>
     <use x="736.3125" xlink:href="#DejaVuSans-52"/>
     <use x="805.763672" xlink:href="#DejaVuSans-61"/>
     <use x="867.042969" xlink:href="#DejaVuSans-73"/>
     <use x="919.142578" xlink:href="#DejaVuSans-74"/>
     <use x="958.351562" xlink:href="#DejaVuSans-72"/>
     <use x="999.464844" xlink:href="#DejaVuSans-69"/>
     <use x="1027.248047" xlink:href="#DejaVuSans-67"/>
     <use x="1090.724609" xlink:href="#DejaVuSans-69"/>
     <use x="1118.507812" xlink:href="#DejaVuSans-6e"/>
    </g>
   </g>
  </g>
 </g>
 <defs>
  <clipPath id="pa289246a5f">
   <rect height="270.04" width="277.048" x="56.12" y="24.84"/>
  </clipPath>
 </defs>
</svg>
