<?xml version="1.0" encoding="utf-8" standalone="no"?>
<!DOCTYPE svg PUBLIC "-//W3C//DTD SVG 1.1//EN"
  "http://www.w3.org/Graphics/SVG/1.1/DTD/svg11.dtd">
<!-- Created with matplotlib (http://matplotlib.org/) -->
<svg height="345pt" version="1.1" viewBox="0 0 460 345" width="460pt" xmlns="http://www.w3.org/2000/svg" xmlns:xlink="http://www.w3.org/1999/xlink">
 <defs>
  <style type="text/css">
*{stroke-linecap:butt;stroke-linejoin:round;}
  </style>
 </defs>
 <g id="figure_1">
  <g id="patch_1">
   <path d="M 0 345.6 
L 460.8 345.6 
L 460.8 0 
L 0 0 
z
" style="fill:#ffffff;"/>
  </g>
  <g id="axes_1">
   <g id="patch_2">
    <path d="M 56.12 294.88 
L 333.168 294.88 
L 333.168 24.84 
L 56.12 24.84 
z
" style="fill:#ffffff;"/>
   </g>
   <g id="line2d_1">
    <path d="M 106.365146 294.88 
L 106.365146 289.637523 
L 121.551317 289.637523 
L 121.551317 284.395046 
L 132.922316 284.395046 
L 132.922316 279.152568 
L 136.551614 279.152568 
L 136.551614 273.910091 
L 155.317817 273.910091 
L 155.317817 268.667614 
L 162.145574 268.667614 
L 162.145574 263.425137 
L 173.705145 263.425137 
L 173.705145 258.18266 
L 182.144394 258.18266 
L 182.144394 252.940182 
L 192.790367 252.940182 
L 192.790367 247.697705 
L 197.958841 247.697705 
L 197.958841 242.455228 
L 198.356261 242.455228 
L 198.356261 237.212751 
L 208.958586 237.212751 
L 208.958586 231.970274 
L 209.015688 231.970274 
L 209.015688 226.727797 
L 209.050988 226.727797 
L 209.050988 221.485319 
L 209.125115 221.485319 
L 209.125115 216.242842 
L 209.174434 216.242842 
L 209.174434 211.000365 
L 209.232221 211.000365 
L 209.232221 205.757888 
L 209.269401 205.757888 
L 209.269401 200.515411 
L 209.321085 200.515411 
L 209.321085 195.272933 
L 209.369846 195.272933 
L 209.369846 190.030456 
L 209.412255 190.030456 
L 209.412255 184.787979 
L 209.46443 184.787979 
L 209.46443 179.545502 
L 209.530628 179.545502 
L 209.530628 174.303025 
L 209.565115 174.303025 
L 209.565115 169.060547 
L 209.621378 169.060547 
L 209.621378 163.81807 
L 209.668389 163.81807 
L 209.668389 158.575593 
L 209.696488 158.575593 
L 209.696488 153.333116 
L 209.757288 153.333116 
L 209.757288 148.090639 
L 209.789296 148.090639 
L 209.789296 142.848162 
L 209.829561 142.848162 
L 209.829561 137.605684 
L 209.881607 137.605684 
L 209.881607 132.363207 
L 209.939078 132.363207 
L 209.939078 127.12073 
L 209.987455 127.12073 
L 209.987455 121.878253 
L 210.031921 121.878253 
L 210.031921 116.635776 
L 210.080481 116.635776 
L 210.080481 111.393298 
L 210.121395 111.393298 
L 210.121395 106.150821 
L 210.173447 106.150821 
L 210.173447 100.908344 
L 210.232366 100.908344 
L 210.232366 95.665867 
L 210.265037 95.665867 
L 210.265037 90.42339 
L 210.297864 90.42339 
L 210.297864 85.180912 
L 210.333901 85.180912 
L 210.333901 79.938435 
L 210.364637 79.938435 
L 210.364637 74.695958 
L 210.412918 74.695958 
L 210.412918 69.453481 
L 210.470375 69.453481 
L 210.470375 64.211004 
L 210.493952 64.211004 
L 210.493952 58.968526 
L 210.561907 58.968526 
L 210.561907 53.726049 
L 210.597611 53.726049 
L 210.597611 48.483572 
L 210.633883 48.483572 
L 210.633883 43.241095 
L 210.686332 43.241095 
L 210.686332 37.998618 
L 210.721139 37.998618 
L 210.721139 32.756141 
L 210.768431 32.756141 
L 210.768431 27.513663 
L 333.168 27.513663 
" style="fill:none;stroke:#f5deb3;stroke-linecap:square;stroke-width:4;"/>
   </g>
   <g id="line2d_2">
    <defs>
     <path d="M -0 7.778175 
L 7.778175 0 
L 0 -7.778175 
L -7.778175 -0 
z
" id="m183d7d191d" style="stroke:#f5deb3;stroke-linejoin:miter;stroke-width:1.5;"/>
    </defs>
    <g>
     <use style="fill:#f5deb3;stroke:#f5deb3;stroke-linejoin:miter;stroke-width:1.5;" x="209.321085" xlink:href="#m183d7d191d" y="195.272933"/>
     <use style="fill:#f5deb3;stroke:#f5deb3;stroke-linejoin:miter;stroke-width:1.5;" x="210.768431" xlink:href="#m183d7d191d" y="32.756141"/>
     <use style="fill:#f5deb3;stroke:#f5deb3;stroke-linejoin:miter;stroke-width:1.5;" x="210.768431" xlink:href="#m183d7d191d" y="27.513663"/>
     <use style="fill:#f5deb3;stroke:#f5deb3;stroke-linejoin:miter;stroke-width:1.5;" x="210.768431" xlink:href="#m183d7d191d" y="27.513663"/>
     <use style="fill:#f5deb3;stroke:#f5deb3;stroke-linejoin:miter;stroke-width:1.5;" x="333.168" xlink:href="#m183d7d191d" y="27.513663"/>
    </g>
   </g>
   <g id="line2d_3">
    <path style="fill:none;stroke:#f5deb3;stroke-linecap:square;stroke-width:4;"/>
    <g/>
   </g>
   <g id="line2d_4">
    <path d="M 333.168 27.513663 
L 363.64328 32.86099 
" style="fill:none;stroke:#f5deb3;stroke-linecap:square;stroke-width:4;"/>
    <g>
     <use style="fill:#f5deb3;stroke:#f5deb3;stroke-linejoin:miter;stroke-width:1.5;" x="333.168" xlink:href="#m183d7d191d" y="27.513663"/>
     <use style="fill:#f5deb3;stroke:#f5deb3;stroke-linejoin:miter;stroke-width:1.5;" x="363.64328" xlink:href="#m183d7d191d" y="32.86099"/>
    </g>
   </g>
   <g id="matplotlib.axis_1">
    <g id="xtick_1">
     <g id="line2d_5">
      <path clip-path="url(#paf139edcbb)" d="M 56.12 294.88 
L 56.12 24.84 
" style="fill:none;stroke:#b0b0b0;stroke-linecap:square;stroke-width:0.8;"/>
     </g>
     <g id="line2d_6">
      <defs>
       <path d="M 0 0 
L 0 3.5 
" id="m6c896cd962" style="stroke:#000000;stroke-width:0.8;"/>
      </defs>
      <g>
       <use style="stroke:#000000;stroke-width:0.8;" x="56.12" xlink:href="#m6c896cd962" y="294.88"/>
      </g>
     </g>
     <g id="text_1">
      <!-- 0 -->
      <defs>
       <path d="M 31.78125 66.40625 
Q 24.171875 66.40625 20.328125 58.90625 
Q 16.5 51.421875 16.5 36.375 
Q 16.5 21.390625 20.328125 13.890625 
Q 24.171875 6.390625 31.78125 6.390625 
Q 39.453125 6.390625 43.28125 13.890625 
Q 47.125 21.390625 47.125 36.375 
Q 47.125 51.421875 43.28125 58.90625 
Q 39.453125 66.40625 31.78125 66.40625 
z
M 31.78125 74.21875 
Q 44.046875 74.21875 50.515625 64.515625 
Q 56.984375 54.828125 56.984375 36.375 
Q 56.984375 17.96875 50.515625 8.265625 
Q 44.046875 -1.421875 31.78125 -1.421875 
Q 19.53125 -1.421875 13.0625 8.265625 
Q 6.59375 17.96875 6.59375 36.375 
Q 6.59375 54.828125 13.0625 64.515625 
Q 19.53125 74.21875 31.78125 74.21875 
z
" id="DejaVuSans-30"/>
      </defs>
      <g transform="translate(49.7575 317.076875)scale(0.2 -0.2)">
       <use xlink:href="#DejaVuSans-30"/>
      </g>
     </g>
    </g>
    <g id="xtick_2">
     <g id="line2d_7">
      <path clip-path="url(#paf139edcbb)" d="M 135.276571 294.88 
L 135.276571 24.84 
" style="fill:none;stroke:#b0b0b0;stroke-linecap:square;stroke-width:0.8;"/>
     </g>
     <g id="line2d_8">
      <g>
       <use style="stroke:#000000;stroke-width:0.8;" x="135.276571" xlink:href="#m6c896cd962" y="294.88"/>
      </g>
     </g>
     <g id="text_2">
      <!-- 2 -->
      <defs>
       <path d="M 19.1875 8.296875 
L 53.609375 8.296875 
L 53.609375 0 
L 7.328125 0 
L 7.328125 8.296875 
Q 12.9375 14.109375 22.625 23.890625 
Q 32.328125 33.6875 34.8125 36.53125 
Q 39.546875 41.84375 41.421875 45.53125 
Q 43.3125 49.21875 43.3125 52.78125 
Q 43.3125 58.59375 39.234375 62.25 
Q 35.15625 65.921875 28.609375 65.921875 
Q 23.96875 65.921875 18.8125 64.3125 
Q 13.671875 62.703125 7.8125 59.421875 
L 7.8125 69.390625 
Q 13.765625 71.78125 18.9375 73 
Q 24.125 74.21875 28.421875 74.21875 
Q 39.75 74.21875 46.484375 68.546875 
Q 53.21875 62.890625 53.21875 53.421875 
Q 53.21875 48.921875 51.53125 44.890625 
Q 49.859375 40.875 45.40625 35.40625 
Q 44.1875 33.984375 37.640625 27.21875 
Q 31.109375 20.453125 19.1875 8.296875 
z
" id="DejaVuSans-32"/>
      </defs>
      <g transform="translate(128.914071 317.076875)scale(0.2 -0.2)">
       <use xlink:href="#DejaVuSans-32"/>
      </g>
     </g>
    </g>
    <g id="xtick_3">
     <g id="line2d_9">
      <path clip-path="url(#paf139edcbb)" d="M 214.433143 294.88 
L 214.433143 24.84 
" style="fill:none;stroke:#b0b0b0;stroke-linecap:square;stroke-width:0.8;"/>
     </g>
     <g id="line2d_10">
      <g>
       <use style="stroke:#000000;stroke-width:0.8;" x="214.433143" xlink:href="#m6c896cd962" y="294.88"/>
      </g>
     </g>
     <g id="text_3">
      <!-- 4 -->
      <defs>
       <path d="M 37.796875 64.3125 
L 12.890625 25.390625 
L 37.796875 25.390625 
z
M 35.203125 72.90625 
L 47.609375 72.90625 
L 47.609375 25.390625 
L 58.015625 25.390625 
L 58.015625 17.1875 
L 47.609375 17.1875 
L 47.609375 0 
L 37.796875 0 
L 37.796875 17.1875 
L 4.890625 17.1875 
L 4.890625 26.703125 
z
" id="DejaVuSans-34"/>
      </defs>
      <g transform="translate(208.070643 317.076875)scale(0.2 -0.2)">
       <use xlink:href="#DejaVuSans-34"/>
      </g>
     </g>
    </g>
    <g id="xtick_4">
     <g id="line2d_11">
      <path clip-path="url(#paf139edcbb)" d="M 293.589714 294.88 
L 293.589714 24.84 
" style="fill:none;stroke:#b0b0b0;stroke-linecap:square;stroke-width:0.8;"/>
     </g>
     <g id="line2d_12">
      <g>
       <use style="stroke:#000000;stroke-width:0.8;" x="293.589714" xlink:href="#m6c896cd962" y="294.88"/>
      </g>
     </g>
     <g id="text_4">
      <!-- 6 -->
      <defs>
       <path d="M 33.015625 40.375 
Q 26.375 40.375 22.484375 35.828125 
Q 18.609375 31.296875 18.609375 23.390625 
Q 18.609375 15.53125 22.484375 10.953125 
Q 26.375 6.390625 33.015625 6.390625 
Q 39.65625 6.390625 43.53125 10.953125 
Q 47.40625 15.53125 47.40625 23.390625 
Q 47.40625 31.296875 43.53125 35.828125 
Q 39.65625 40.375 33.015625 40.375 
z
M 52.59375 71.296875 
L 52.59375 62.3125 
Q 48.875 64.0625 45.09375 64.984375 
Q 41.3125 65.921875 37.59375 65.921875 
Q 27.828125 65.921875 22.671875 59.328125 
Q 17.53125 52.734375 16.796875 39.40625 
Q 19.671875 43.65625 24.015625 45.921875 
Q 28.375 48.1875 33.59375 48.1875 
Q 44.578125 48.1875 50.953125 41.515625 
Q 57.328125 34.859375 57.328125 23.390625 
Q 57.328125 12.15625 50.6875 5.359375 
Q 44.046875 -1.421875 33.015625 -1.421875 
Q 20.359375 -1.421875 13.671875 8.265625 
Q 6.984375 17.96875 6.984375 36.375 
Q 6.984375 53.65625 15.1875 63.9375 
Q 23.390625 74.21875 37.203125 74.21875 
Q 40.921875 74.21875 44.703125 73.484375 
Q 48.484375 72.75 52.59375 71.296875 
z
" id="DejaVuSans-36"/>
      </defs>
      <g transform="translate(287.227214 317.076875)scale(0.2 -0.2)">
       <use xlink:href="#DejaVuSans-36"/>
      </g>
     </g>
    </g>
    <g id="xtick_5">
     <g id="line2d_13">
      <path clip-path="url(#paf139edcbb)" d="M 56.12 294.88 
L 56.12 24.84 
" style="fill:none;stroke:#b0b0b0;stroke-linecap:square;stroke-width:0.8;"/>
     </g>
     <g id="line2d_14">
      <defs>
       <path d="M 0 0 
L 0 2 
" id="mfc54b414ab" style="stroke:#000000;stroke-width:0.6;"/>
      </defs>
      <g>
       <use style="stroke:#000000;stroke-width:0.6;" x="56.12" xlink:href="#mfc54b414ab" y="294.88"/>
      </g>
     </g>
    </g>
    <g id="xtick_6">
     <g id="line2d_15">
      <path clip-path="url(#paf139edcbb)" d="M 95.698286 294.88 
L 95.698286 24.84 
" style="fill:none;stroke:#b0b0b0;stroke-linecap:square;stroke-width:0.8;"/>
     </g>
     <g id="line2d_16">
      <g>
       <use style="stroke:#000000;stroke-width:0.6;" x="95.698286" xlink:href="#mfc54b414ab" y="294.88"/>
      </g>
     </g>
    </g>
    <g id="xtick_7">
     <g id="line2d_17">
      <path clip-path="url(#paf139edcbb)" d="M 135.276571 294.88 
L 135.276571 24.84 
" style="fill:none;stroke:#b0b0b0;stroke-linecap:square;stroke-width:0.8;"/>
     </g>
     <g id="line2d_18">
      <g>
       <use style="stroke:#000000;stroke-width:0.6;" x="135.276571" xlink:href="#mfc54b414ab" y="294.88"/>
      </g>
     </g>
    </g>
    <g id="xtick_8">
     <g id="line2d_19">
      <path clip-path="url(#paf139edcbb)" d="M 174.854857 294.88 
L 174.854857 24.84 
" style="fill:none;stroke:#b0b0b0;stroke-linecap:square;stroke-width:0.8;"/>
     </g>
     <g id="line2d_20">
      <g>
       <use style="stroke:#000000;stroke-width:0.6;" x="174.854857" xlink:href="#mfc54b414ab" y="294.88"/>
      </g>
     </g>
    </g>
    <g id="xtick_9">
     <g id="line2d_21">
      <path clip-path="url(#paf139edcbb)" d="M 214.433143 294.88 
L 214.433143 24.84 
" style="fill:none;stroke:#b0b0b0;stroke-linecap:square;stroke-width:0.8;"/>
     </g>
     <g id="line2d_22">
      <g>
       <use style="stroke:#000000;stroke-width:0.6;" x="214.433143" xlink:href="#mfc54b414ab" y="294.88"/>
      </g>
     </g>
    </g>
    <g id="xtick_10">
     <g id="line2d_23">
      <path clip-path="url(#paf139edcbb)" d="M 254.011429 294.88 
L 254.011429 24.84 
" style="fill:none;stroke:#b0b0b0;stroke-linecap:square;stroke-width:0.8;"/>
     </g>
     <g id="line2d_24">
      <g>
       <use style="stroke:#000000;stroke-width:0.6;" x="254.011429" xlink:href="#mfc54b414ab" y="294.88"/>
      </g>
     </g>
    </g>
    <g id="xtick_11">
     <g id="line2d_25">
      <path clip-path="url(#paf139edcbb)" d="M 293.589714 294.88 
L 293.589714 24.84 
" style="fill:none;stroke:#b0b0b0;stroke-linecap:square;stroke-width:0.8;"/>
     </g>
     <g id="line2d_26">
      <g>
       <use style="stroke:#000000;stroke-width:0.6;" x="293.589714" xlink:href="#mfc54b414ab" y="294.88"/>
      </g>
     </g>
    </g>
    <g id="xtick_12">
     <g id="line2d_27">
      <path clip-path="url(#paf139edcbb)" d="M 333.168 294.88 
L 333.168 24.84 
" style="fill:none;stroke:#b0b0b0;stroke-linecap:square;stroke-width:0.8;"/>
     </g>
     <g id="line2d_28">
      <g>
       <use style="stroke:#000000;stroke-width:0.6;" x="333.168" xlink:href="#mfc54b414ab" y="294.88"/>
      </g>
     </g>
    </g>
    <g id="text_5">
     <!-- log10(# f-evals / dimension) -->
     <defs>
      <path d="M 9.421875 75.984375 
L 18.40625 75.984375 
L 18.40625 0 
L 9.421875 0 
z
" id="DejaVuSans-6c"/>
      <path d="M 30.609375 48.390625 
Q 23.390625 48.390625 19.1875 42.75 
Q 14.984375 37.109375 14.984375 27.296875 
Q 14.984375 17.484375 19.15625 11.84375 
Q 23.34375 6.203125 30.609375 6.203125 
Q 37.796875 6.203125 41.984375 11.859375 
Q 46.1875 17.53125 46.1875 27.296875 
Q 46.1875 37.015625 41.984375 42.703125 
Q 37.796875 48.390625 30.609375 48.390625 
z
M 30.609375 56 
Q 42.328125 56 49.015625 48.375 
Q 55.71875 40.765625 55.71875 27.296875 
Q 55.71875 13.875 49.015625 6.21875 
Q 42.328125 -1.421875 30.609375 -1.421875 
Q 18.84375 -1.421875 12.171875 6.21875 
Q 5.515625 13.875 5.515625 27.296875 
Q 5.515625 40.765625 12.171875 48.375 
Q 18.84375 56 30.609375 56 
z
" id="DejaVuSans-6f"/>
      <path d="M 45.40625 27.984375 
Q 45.40625 37.75 41.375 43.109375 
Q 37.359375 48.484375 30.078125 48.484375 
Q 22.859375 48.484375 18.828125 43.109375 
Q 14.796875 37.75 14.796875 27.984375 
Q 14.796875 18.265625 18.828125 12.890625 
Q 22.859375 7.515625 30.078125 7.515625 
Q 37.359375 7.515625 41.375 12.890625 
Q 45.40625 18.265625 45.40625 27.984375 
z
M 54.390625 6.78125 
Q 54.390625 -7.171875 48.1875 -13.984375 
Q 42 -20.796875 29.203125 -20.796875 
Q 24.46875 -20.796875 20.265625 -20.09375 
Q 16.0625 -19.390625 12.109375 -17.921875 
L 12.109375 -9.1875 
Q 16.0625 -11.328125 19.921875 -12.34375 
Q 23.78125 -13.375 27.78125 -13.375 
Q 36.625 -13.375 41.015625 -8.765625 
Q 45.40625 -4.15625 45.40625 5.171875 
L 45.40625 9.625 
Q 42.625 4.78125 38.28125 2.390625 
Q 33.9375 0 27.875 0 
Q 17.828125 0 11.671875 7.65625 
Q 5.515625 15.328125 5.515625 27.984375 
Q 5.515625 40.671875 11.671875 48.328125 
Q 17.828125 56 27.875 56 
Q 33.9375 56 38.28125 53.609375 
Q 42.625 51.21875 45.40625 46.390625 
L 45.40625 54.6875 
L 54.390625 54.6875 
z
" id="DejaVuSans-67"/>
      <path d="M 12.40625 8.296875 
L 28.515625 8.296875 
L 28.515625 63.921875 
L 10.984375 60.40625 
L 10.984375 69.390625 
L 28.421875 72.90625 
L 38.28125 72.90625 
L 38.28125 8.296875 
L 54.390625 8.296875 
L 54.390625 0 
L 12.40625 0 
z
" id="DejaVuSans-31"/>
      <path d="M 31 75.875 
Q 24.46875 64.65625 21.28125 53.65625 
Q 18.109375 42.671875 18.109375 31.390625 
Q 18.109375 20.125 21.3125 9.0625 
Q 24.515625 -2 31 -13.1875 
L 23.1875 -13.1875 
Q 15.875 -1.703125 12.234375 9.375 
Q 8.59375 20.453125 8.59375 31.390625 
Q 8.59375 42.28125 12.203125 53.3125 
Q 15.828125 64.359375 23.1875 75.875 
z
" id="DejaVuSans-28"/>
      <path d="M 51.125 44 
L 36.921875 44 
L 32.8125 27.6875 
L 47.125 27.6875 
z
M 43.796875 71.78125 
L 38.71875 51.515625 
L 52.984375 51.515625 
L 58.109375 71.78125 
L 65.921875 71.78125 
L 60.890625 51.515625 
L 76.125 51.515625 
L 76.125 44 
L 58.984375 44 
L 54.984375 27.6875 
L 70.515625 27.6875 
L 70.515625 20.21875 
L 53.078125 20.21875 
L 48 0 
L 40.1875 0 
L 45.21875 20.21875 
L 30.90625 20.21875 
L 25.875 0 
L 18.015625 0 
L 23.09375 20.21875 
L 7.71875 20.21875 
L 7.71875 27.6875 
L 24.90625 27.6875 
L 29 44 
L 13.28125 44 
L 13.28125 51.515625 
L 30.90625 51.515625 
L 35.890625 71.78125 
z
" id="DejaVuSans-23"/>
      <path id="DejaVuSans-20"/>
      <path d="M 37.109375 75.984375 
L 37.109375 68.5 
L 28.515625 68.5 
Q 23.6875 68.5 21.796875 66.546875 
Q 19.921875 64.59375 19.921875 59.515625 
L 19.921875 54.6875 
L 34.71875 54.6875 
L 34.71875 47.703125 
L 19.921875 47.703125 
L 19.921875 0 
L 10.890625 0 
L 10.890625 47.703125 
L 2.296875 47.703125 
L 2.296875 54.6875 
L 10.890625 54.6875 
L 10.890625 58.5 
Q 10.890625 67.625 15.140625 71.796875 
Q 19.390625 75.984375 28.609375 75.984375 
z
" id="DejaVuSans-66"/>
      <path d="M 4.890625 31.390625 
L 31.203125 31.390625 
L 31.203125 23.390625 
L 4.890625 23.390625 
z
" id="DejaVuSans-2d"/>
      <path d="M 56.203125 29.59375 
L 56.203125 25.203125 
L 14.890625 25.203125 
Q 15.484375 15.921875 20.484375 11.0625 
Q 25.484375 6.203125 34.421875 6.203125 
Q 39.59375 6.203125 44.453125 7.46875 
Q 49.3125 8.734375 54.109375 11.28125 
L 54.109375 2.78125 
Q 49.265625 0.734375 44.1875 -0.34375 
Q 39.109375 -1.421875 33.890625 -1.421875 
Q 20.796875 -1.421875 13.15625 6.1875 
Q 5.515625 13.8125 5.515625 26.8125 
Q 5.515625 40.234375 12.765625 48.109375 
Q 20.015625 56 32.328125 56 
Q 43.359375 56 49.78125 48.890625 
Q 56.203125 41.796875 56.203125 29.59375 
z
M 47.21875 32.234375 
Q 47.125 39.59375 43.09375 43.984375 
Q 39.0625 48.390625 32.421875 48.390625 
Q 24.90625 48.390625 20.390625 44.140625 
Q 15.875 39.890625 15.1875 32.171875 
z
" id="DejaVuSans-65"/>
      <path d="M 2.984375 54.6875 
L 12.5 54.6875 
L 29.59375 8.796875 
L 46.6875 54.6875 
L 56.203125 54.6875 
L 35.6875 0 
L 23.484375 0 
z
" id="DejaVuSans-76"/>
      <path d="M 34.28125 27.484375 
Q 23.390625 27.484375 19.1875 25 
Q 14.984375 22.515625 14.984375 16.5 
Q 14.984375 11.71875 18.140625 8.90625 
Q 21.296875 6.109375 26.703125 6.109375 
Q 34.1875 6.109375 38.703125 11.40625 
Q 43.21875 16.703125 43.21875 25.484375 
L 43.21875 27.484375 
z
M 52.203125 31.203125 
L 52.203125 0 
L 43.21875 0 
L 43.21875 8.296875 
Q 40.140625 3.328125 35.546875 0.953125 
Q 30.953125 -1.421875 24.3125 -1.421875 
Q 15.921875 -1.421875 10.953125 3.296875 
Q 6 8.015625 6 15.921875 
Q 6 25.140625 12.171875 29.828125 
Q 18.359375 34.515625 30.609375 34.515625 
L 43.21875 34.515625 
L 43.21875 35.40625 
Q 43.21875 41.609375 39.140625 45 
Q 35.0625 48.390625 27.6875 48.390625 
Q 23 48.390625 18.546875 47.265625 
Q 14.109375 46.140625 10.015625 43.890625 
L 10.015625 52.203125 
Q 14.9375 54.109375 19.578125 55.046875 
Q 24.21875 56 28.609375 56 
Q 40.484375 56 46.34375 49.84375 
Q 52.203125 43.703125 52.203125 31.203125 
z
" id="DejaVuSans-61"/>
      <path d="M 44.28125 53.078125 
L 44.28125 44.578125 
Q 40.484375 46.53125 36.375 47.5 
Q 32.28125 48.484375 27.875 48.484375 
Q 21.1875 48.484375 17.84375 46.4375 
Q 14.5 44.390625 14.5 40.28125 
Q 14.5 37.15625 16.890625 35.375 
Q 19.28125 33.59375 26.515625 31.984375 
L 29.59375 31.296875 
Q 39.15625 29.25 43.1875 25.515625 
Q 47.21875 21.78125 47.21875 15.09375 
Q 47.21875 7.46875 41.1875 3.015625 
Q 35.15625 -1.421875 24.609375 -1.421875 
Q 20.21875 -1.421875 15.453125 -0.5625 
Q 10.6875 0.296875 5.421875 2 
L 5.421875 11.28125 
Q 10.40625 8.6875 15.234375 7.390625 
Q 20.0625 6.109375 24.8125 6.109375 
Q 31.15625 6.109375 34.5625 8.28125 
Q 37.984375 10.453125 37.984375 14.40625 
Q 37.984375 18.0625 35.515625 20.015625 
Q 33.0625 21.96875 24.703125 23.78125 
L 21.578125 24.515625 
Q 13.234375 26.265625 9.515625 29.90625 
Q 5.8125 33.546875 5.8125 39.890625 
Q 5.8125 47.609375 11.28125 51.796875 
Q 16.75 56 26.8125 56 
Q 31.78125 56 36.171875 55.265625 
Q 40.578125 54.546875 44.28125 53.078125 
z
" id="DejaVuSans-73"/>
      <path d="M 25.390625 72.90625 
L 33.6875 72.90625 
L 8.296875 -9.28125 
L 0 -9.28125 
z
" id="DejaVuSans-2f"/>
      <path d="M 45.40625 46.390625 
L 45.40625 75.984375 
L 54.390625 75.984375 
L 54.390625 0 
L 45.40625 0 
L 45.40625 8.203125 
Q 42.578125 3.328125 38.25 0.953125 
Q 33.9375 -1.421875 27.875 -1.421875 
Q 17.96875 -1.421875 11.734375 6.484375 
Q 5.515625 14.40625 5.515625 27.296875 
Q 5.515625 40.1875 11.734375 48.09375 
Q 17.96875 56 27.875 56 
Q 33.9375 56 38.25 53.625 
Q 42.578125 51.265625 45.40625 46.390625 
z
M 14.796875 27.296875 
Q 14.796875 17.390625 18.875 11.75 
Q 22.953125 6.109375 30.078125 6.109375 
Q 37.203125 6.109375 41.296875 11.75 
Q 45.40625 17.390625 45.40625 27.296875 
Q 45.40625 37.203125 41.296875 42.84375 
Q 37.203125 48.484375 30.078125 48.484375 
Q 22.953125 48.484375 18.875 42.84375 
Q 14.796875 37.203125 14.796875 27.296875 
z
" id="DejaVuSans-64"/>
      <path d="M 9.421875 54.6875 
L 18.40625 54.6875 
L 18.40625 0 
L 9.421875 0 
z
M 9.421875 75.984375 
L 18.40625 75.984375 
L 18.40625 64.59375 
L 9.421875 64.59375 
z
" id="DejaVuSans-69"/>
      <path d="M 52 44.1875 
Q 55.375 50.25 60.0625 53.125 
Q 64.75 56 71.09375 56 
Q 79.640625 56 84.28125 50.015625 
Q 88.921875 44.046875 88.921875 33.015625 
L 88.921875 0 
L 79.890625 0 
L 79.890625 32.71875 
Q 79.890625 40.578125 77.09375 44.375 
Q 74.3125 48.1875 68.609375 48.1875 
Q 61.625 48.1875 57.5625 43.546875 
Q 53.515625 38.921875 53.515625 30.90625 
L 53.515625 0 
L 44.484375 0 
L 44.484375 32.71875 
Q 44.484375 40.625 41.703125 44.40625 
Q 38.921875 48.1875 33.109375 48.1875 
Q 26.21875 48.1875 22.15625 43.53125 
Q 18.109375 38.875 18.109375 30.90625 
L 18.109375 0 
L 9.078125 0 
L 9.078125 54.6875 
L 18.109375 54.6875 
L 18.109375 46.1875 
Q 21.1875 51.21875 25.484375 53.609375 
Q 29.78125 56 35.6875 56 
Q 41.65625 56 45.828125 52.96875 
Q 50 49.953125 52 44.1875 
z
" id="DejaVuSans-6d"/>
      <path d="M 54.890625 33.015625 
L 54.890625 0 
L 45.90625 0 
L 45.90625 32.71875 
Q 45.90625 40.484375 42.875 44.328125 
Q 39.84375 48.1875 33.796875 48.1875 
Q 26.515625 48.1875 22.3125 43.546875 
Q 18.109375 38.921875 18.109375 30.90625 
L 18.109375 0 
L 9.078125 0 
L 9.078125 54.6875 
L 18.109375 54.6875 
L 18.109375 46.1875 
Q 21.34375 51.125 25.703125 53.5625 
Q 30.078125 56 35.796875 56 
Q 45.21875 56 50.046875 50.171875 
Q 54.890625 44.34375 54.890625 33.015625 
z
" id="DejaVuSans-6e"/>
      <path d="M 8.015625 75.875 
L 15.828125 75.875 
Q 23.140625 64.359375 26.78125 53.3125 
Q 30.421875 42.28125 30.421875 31.390625 
Q 30.421875 20.453125 26.78125 9.375 
Q 23.140625 -1.703125 15.828125 -13.1875 
L 8.015625 -13.1875 
Q 14.5 -2 17.703125 9.0625 
Q 20.90625 20.125 20.90625 31.390625 
Q 20.90625 42.671875 17.703125 53.65625 
Q 14.5 64.65625 8.015625 75.875 
z
" id="DejaVuSans-29"/>
     </defs>
     <g transform="translate(73.803219 338.153594)scale(0.17 -0.17)">
      <use xlink:href="#DejaVuSans-6c"/>
      <use x="27.783203" xlink:href="#DejaVuSans-6f"/>
      <use x="88.964844" xlink:href="#DejaVuSans-67"/>
      <use x="152.441406" xlink:href="#DejaVuSans-31"/>
      <use x="216.064453" xlink:href="#DejaVuSans-30"/>
      <use x="279.6875" xlink:href="#DejaVuSans-28"/>
      <use x="318.701172" xlink:href="#DejaVuSans-23"/>
      <use x="402.490234" xlink:href="#DejaVuSans-20"/>
      <use x="434.277344" xlink:href="#DejaVuSans-66"/>
      <use x="469.404297" xlink:href="#DejaVuSans-2d"/>
      <use x="505.488281" xlink:href="#DejaVuSans-65"/>
      <use x="567.011719" xlink:href="#DejaVuSans-76"/>
      <use x="626.191406" xlink:href="#DejaVuSans-61"/>
      <use x="687.470703" xlink:href="#DejaVuSans-6c"/>
      <use x="715.253906" xlink:href="#DejaVuSans-73"/>
      <use x="767.353516" xlink:href="#DejaVuSans-20"/>
      <use x="799.140625" xlink:href="#DejaVuSans-2f"/>
      <use x="832.832031" xlink:href="#DejaVuSans-20"/>
      <use x="864.619141" xlink:href="#DejaVuSans-64"/>
      <use x="928.095703" xlink:href="#DejaVuSans-69"/>
      <use x="955.878906" xlink:href="#DejaVuSans-6d"/>
      <use x="1053.291016" xlink:href="#DejaVuSans-65"/>
      <use x="1114.814453" xlink:href="#DejaVuSans-6e"/>
      <use x="1178.193359" xlink:href="#DejaVuSans-73"/>
      <use x="1230.292969" xlink:href="#DejaVuSans-69"/>
      <use x="1258.076172" xlink:href="#DejaVuSans-6f"/>
      <use x="1319.257812" xlink:href="#DejaVuSans-6e"/>
      <use x="1382.636719" xlink:href="#DejaVuSans-29"/>
     </g>
    </g>
   </g>
   <g id="matplotlib.axis_2">
    <g id="ytick_1">
     <g id="line2d_29">
      <path clip-path="url(#paf139edcbb)" d="M 56.12 294.88 
L 333.168 294.88 
" style="fill:none;stroke:#b0b0b0;stroke-linecap:square;stroke-width:0.8;"/>
     </g>
     <g id="line2d_30">
      <defs>
       <path d="M 0 0 
L -3.5 0 
" id="mc44229570d" style="stroke:#000000;stroke-width:0.8;"/>
      </defs>
      <g>
       <use style="stroke:#000000;stroke-width:0.8;" x="56.12" xlink:href="#mc44229570d" y="294.88"/>
      </g>
     </g>
     <g id="text_6">
      <!-- 0.0 -->
      <defs>
       <path d="M 10.6875 12.40625 
L 21 12.40625 
L 21 0 
L 10.6875 0 
z
" id="DejaVuSans-2e"/>
      </defs>
      <g transform="translate(23.675 300.95875)scale(0.16 -0.16)">
       <use xlink:href="#DejaVuSans-30"/>
       <use x="63.623047" xlink:href="#DejaVuSans-2e"/>
       <use x="95.410156" xlink:href="#DejaVuSans-30"/>
      </g>
     </g>
    </g>
    <g id="ytick_2">
     <g id="line2d_31">
      <path clip-path="url(#paf139edcbb)" d="M 56.12 241.406733 
L 333.168 241.406733 
" style="fill:none;stroke:#b0b0b0;stroke-linecap:square;stroke-width:0.8;"/>
     </g>
     <g id="line2d_32">
      <g>
       <use style="stroke:#000000;stroke-width:0.8;" x="56.12" xlink:href="#mc44229570d" y="241.406733"/>
      </g>
     </g>
     <g id="text_7">
      <!-- 0.2 -->
      <g transform="translate(23.675 247.485483)scale(0.16 -0.16)">
       <use xlink:href="#DejaVuSans-30"/>
       <use x="63.623047" xlink:href="#DejaVuSans-2e"/>
       <use x="95.410156" xlink:href="#DejaVuSans-32"/>
      </g>
     </g>
    </g>
    <g id="ytick_3">
     <g id="line2d_33">
      <path clip-path="url(#paf139edcbb)" d="M 56.12 187.933465 
L 333.168 187.933465 
" style="fill:none;stroke:#b0b0b0;stroke-linecap:square;stroke-width:0.8;"/>
     </g>
     <g id="line2d_34">
      <g>
       <use style="stroke:#000000;stroke-width:0.8;" x="56.12" xlink:href="#mc44229570d" y="187.933465"/>
      </g>
     </g>
     <g id="text_8">
      <!-- 0.4 -->
      <g transform="translate(23.675 194.012215)scale(0.16 -0.16)">
       <use xlink:href="#DejaVuSans-30"/>
       <use x="63.623047" xlink:href="#DejaVuSans-2e"/>
       <use x="95.410156" xlink:href="#DejaVuSans-34"/>
      </g>
     </g>
    </g>
    <g id="ytick_4">
     <g id="line2d_35">
      <path clip-path="url(#paf139edcbb)" d="M 56.12 134.460198 
L 333.168 134.460198 
" style="fill:none;stroke:#b0b0b0;stroke-linecap:square;stroke-width:0.8;"/>
     </g>
     <g id="line2d_36">
      <g>
       <use style="stroke:#000000;stroke-width:0.8;" x="56.12" xlink:href="#mc44229570d" y="134.460198"/>
      </g>
     </g>
     <g id="text_9">
      <!-- 0.6 -->
      <g transform="translate(23.675 140.538948)scale(0.16 -0.16)">
       <use xlink:href="#DejaVuSans-30"/>
       <use x="63.623047" xlink:href="#DejaVuSans-2e"/>
       <use x="95.410156" xlink:href="#DejaVuSans-36"/>
      </g>
     </g>
    </g>
    <g id="ytick_5">
     <g id="line2d_37">
      <path clip-path="url(#paf139edcbb)" d="M 56.12 80.986931 
L 333.168 80.986931 
" style="fill:none;stroke:#b0b0b0;stroke-linecap:square;stroke-width:0.8;"/>
     </g>
     <g id="line2d_38">
      <g>
       <use style="stroke:#000000;stroke-width:0.8;" x="56.12" xlink:href="#mc44229570d" y="80.986931"/>
      </g>
     </g>
     <g id="text_10">
      <!-- 0.8 -->
      <defs>
       <path d="M 31.78125 34.625 
Q 24.75 34.625 20.71875 30.859375 
Q 16.703125 27.09375 16.703125 20.515625 
Q 16.703125 13.921875 20.71875 10.15625 
Q 24.75 6.390625 31.78125 6.390625 
Q 38.8125 6.390625 42.859375 10.171875 
Q 46.921875 13.96875 46.921875 20.515625 
Q 46.921875 27.09375 42.890625 30.859375 
Q 38.875 34.625 31.78125 34.625 
z
M 21.921875 38.8125 
Q 15.578125 40.375 12.03125 44.71875 
Q 8.5 49.078125 8.5 55.328125 
Q 8.5 64.0625 14.71875 69.140625 
Q 20.953125 74.21875 31.78125 74.21875 
Q 42.671875 74.21875 48.875 69.140625 
Q 55.078125 64.0625 55.078125 55.328125 
Q 55.078125 49.078125 51.53125 44.71875 
Q 48 40.375 41.703125 38.8125 
Q 48.828125 37.15625 52.796875 32.3125 
Q 56.78125 27.484375 56.78125 20.515625 
Q 56.78125 9.90625 50.3125 4.234375 
Q 43.84375 -1.421875 31.78125 -1.421875 
Q 19.734375 -1.421875 13.25 4.234375 
Q 6.78125 9.90625 6.78125 20.515625 
Q 6.78125 27.484375 10.78125 32.3125 
Q 14.796875 37.15625 21.921875 38.8125 
z
M 18.3125 54.390625 
Q 18.3125 48.734375 21.84375 45.5625 
Q 25.390625 42.390625 31.78125 42.390625 
Q 38.140625 42.390625 41.71875 45.5625 
Q 45.3125 48.734375 45.3125 54.390625 
Q 45.3125 60.0625 41.71875 63.234375 
Q 38.140625 66.40625 31.78125 66.40625 
Q 25.390625 66.40625 21.84375 63.234375 
Q 18.3125 60.0625 18.3125 54.390625 
z
" id="DejaVuSans-38"/>
      </defs>
      <g transform="translate(23.675 87.065681)scale(0.16 -0.16)">
       <use xlink:href="#DejaVuSans-30"/>
       <use x="63.623047" xlink:href="#DejaVuSans-2e"/>
       <use x="95.410156" xlink:href="#DejaVuSans-38"/>
      </g>
     </g>
    </g>
    <g id="ytick_6">
     <g id="line2d_39">
      <path clip-path="url(#paf139edcbb)" d="M 56.12 27.513663 
L 333.168 27.513663 
" style="fill:none;stroke:#b0b0b0;stroke-linecap:square;stroke-width:0.8;"/>
     </g>
     <g id="line2d_40">
      <g>
       <use style="stroke:#000000;stroke-width:0.8;" x="56.12" xlink:href="#mc44229570d" y="27.513663"/>
      </g>
     </g>
     <g id="text_11">
      <!-- 1.0 -->
      <g transform="translate(23.675 33.592413)scale(0.16 -0.16)">
       <use xlink:href="#DejaVuSans-31"/>
       <use x="63.623047" xlink:href="#DejaVuSans-2e"/>
       <use x="95.410156" xlink:href="#DejaVuSans-30"/>
      </g>
     </g>
    </g>
    <g id="text_12">
     <!-- Fraction of function,target pairs -->
     <defs>
      <path d="M 9.8125 72.90625 
L 51.703125 72.90625 
L 51.703125 64.59375 
L 19.671875 64.59375 
L 19.671875 43.109375 
L 48.578125 43.109375 
L 48.578125 34.8125 
L 19.671875 34.8125 
L 19.671875 0 
L 9.8125 0 
z
" id="DejaVuSans-46"/>
      <path d="M 41.109375 46.296875 
Q 39.59375 47.171875 37.8125 47.578125 
Q 36.03125 48 33.890625 48 
Q 26.265625 48 22.1875 43.046875 
Q 18.109375 38.09375 18.109375 28.8125 
L 18.109375 0 
L 9.078125 0 
L 9.078125 54.6875 
L 18.109375 54.6875 
L 18.109375 46.1875 
Q 20.953125 51.171875 25.484375 53.578125 
Q 30.03125 56 36.53125 56 
Q 37.453125 56 38.578125 55.875 
Q 39.703125 55.765625 41.0625 55.515625 
z
" id="DejaVuSans-72"/>
      <path d="M 48.78125 52.59375 
L 48.78125 44.1875 
Q 44.96875 46.296875 41.140625 47.34375 
Q 37.3125 48.390625 33.40625 48.390625 
Q 24.65625 48.390625 19.8125 42.84375 
Q 14.984375 37.3125 14.984375 27.296875 
Q 14.984375 17.28125 19.8125 11.734375 
Q 24.65625 6.203125 33.40625 6.203125 
Q 37.3125 6.203125 41.140625 7.25 
Q 44.96875 8.296875 48.78125 10.40625 
L 48.78125 2.09375 
Q 45.015625 0.34375 40.984375 -0.53125 
Q 36.96875 -1.421875 32.421875 -1.421875 
Q 20.0625 -1.421875 12.78125 6.34375 
Q 5.515625 14.109375 5.515625 27.296875 
Q 5.515625 40.671875 12.859375 48.328125 
Q 20.21875 56 33.015625 56 
Q 37.15625 56 41.109375 55.140625 
Q 45.0625 54.296875 48.78125 52.59375 
z
" id="DejaVuSans-63"/>
      <path d="M 18.3125 70.21875 
L 18.3125 54.6875 
L 36.8125 54.6875 
L 36.8125 47.703125 
L 18.3125 47.703125 
L 18.3125 18.015625 
Q 18.3125 11.328125 20.140625 9.421875 
Q 21.96875 7.515625 27.59375 7.515625 
L 36.8125 7.515625 
L 36.8125 0 
L 27.59375 0 
Q 17.1875 0 13.234375 3.875 
Q 9.28125 7.765625 9.28125 18.015625 
L 9.28125 47.703125 
L 2.6875 47.703125 
L 2.6875 54.6875 
L 9.28125 54.6875 
L 9.28125 70.21875 
z
" id="DejaVuSans-74"/>
      <path d="M 8.5 21.578125 
L 8.5 54.6875 
L 17.484375 54.6875 
L 17.484375 21.921875 
Q 17.484375 14.15625 20.5 10.265625 
Q 23.53125 6.390625 29.59375 6.390625 
Q 36.859375 6.390625 41.078125 11.03125 
Q 45.3125 15.671875 45.3125 23.6875 
L 45.3125 54.6875 
L 54.296875 54.6875 
L 54.296875 0 
L 45.3125 0 
L 45.3125 8.40625 
Q 42.046875 3.421875 37.71875 1 
Q 33.40625 -1.421875 27.6875 -1.421875 
Q 18.265625 -1.421875 13.375 4.4375 
Q 8.5 10.296875 8.5 21.578125 
z
M 31.109375 56 
z
" id="DejaVuSans-75"/>
      <path d="M 11.71875 12.40625 
L 22.015625 12.40625 
L 22.015625 4 
L 14.015625 -11.625 
L 7.71875 -11.625 
L 11.71875 4 
z
" id="DejaVuSans-2c"/>
      <path d="M 18.109375 8.203125 
L 18.109375 -20.796875 
L 9.078125 -20.796875 
L 9.078125 54.6875 
L 18.109375 54.6875 
L 18.109375 46.390625 
Q 20.953125 51.265625 25.265625 53.625 
Q 29.59375 56 35.59375 56 
Q 45.5625 56 51.78125 48.09375 
Q 58.015625 40.1875 58.015625 27.296875 
Q 58.015625 14.40625 51.78125 6.484375 
Q 45.5625 -1.421875 35.59375 -1.421875 
Q 29.59375 -1.421875 25.265625 0.953125 
Q 20.953125 3.328125 18.109375 8.203125 
z
M 48.6875 27.296875 
Q 48.6875 37.203125 44.609375 42.84375 
Q 40.53125 48.484375 33.40625 48.484375 
Q 26.265625 48.484375 22.1875 42.84375 
Q 18.109375 37.203125 18.109375 27.296875 
Q 18.109375 17.390625 22.1875 11.75 
Q 26.265625 6.109375 33.40625 6.109375 
Q 40.53125 6.109375 44.609375 11.75 
Q 48.6875 17.390625 48.6875 27.296875 
z
" id="DejaVuSans-70"/>
     </defs>
     <g transform="translate(16.139531 294.999375)rotate(-90)scale(0.17 -0.17)">
      <use xlink:href="#DejaVuSans-46"/>
      <use x="57.410156" xlink:href="#DejaVuSans-72"/>
      <use x="98.523438" xlink:href="#DejaVuSans-61"/>
      <use x="159.802734" xlink:href="#DejaVuSans-63"/>
      <use x="214.783203" xlink:href="#DejaVuSans-74"/>
      <use x="253.992188" xlink:href="#DejaVuSans-69"/>
      <use x="281.775391" xlink:href="#DejaVuSans-6f"/>
      <use x="342.957031" xlink:href="#DejaVuSans-6e"/>
      <use x="406.335938" xlink:href="#DejaVuSans-20"/>
      <use x="438.123047" xlink:href="#DejaVuSans-6f"/>
      <use x="499.304688" xlink:href="#DejaVuSans-66"/>
      <use x="534.509766" xlink:href="#DejaVuSans-20"/>
      <use x="566.296875" xlink:href="#DejaVuSans-66"/>
      <use x="601.501953" xlink:href="#DejaVuSans-75"/>
      <use x="664.880859" xlink:href="#DejaVuSans-6e"/>
      <use x="728.259766" xlink:href="#DejaVuSans-63"/>
      <use x="783.240234" xlink:href="#DejaVuSans-74"/>
      <use x="822.449219" xlink:href="#DejaVuSans-69"/>
      <use x="850.232422" xlink:href="#DejaVuSans-6f"/>
      <use x="911.414062" xlink:href="#DejaVuSans-6e"/>
      <use x="974.792969" xlink:href="#DejaVuSans-2c"/>
      <use x="1006.580078" xlink:href="#DejaVuSans-74"/>
      <use x="1045.789062" xlink:href="#DejaVuSans-61"/>
      <use x="1107.068359" xlink:href="#DejaVuSans-72"/>
      <use x="1148.166016" xlink:href="#DejaVuSans-67"/>
      <use x="1211.642578" xlink:href="#DejaVuSans-65"/>
      <use x="1273.166016" xlink:href="#DejaVuSans-74"/>
      <use x="1312.375" xlink:href="#DejaVuSans-20"/>
      <use x="1344.162109" xlink:href="#DejaVuSans-70"/>
      <use x="1407.638672" xlink:href="#DejaVuSans-61"/>
      <use x="1468.917969" xlink:href="#DejaVuSans-69"/>
      <use x="1496.701172" xlink:href="#DejaVuSans-72"/>
      <use x="1537.814453" xlink:href="#DejaVuSans-73"/>
     </g>
    </g>
   </g>
   <g id="line2d_41">
    <defs>
     <path d="M 0 1.5 
C 0.397805 1.5 0.77937 1.341951 1.06066 1.06066 
C 1.341951 0.77937 1.5 0.397805 1.5 0 
C 1.5 -0.397805 1.341951 -0.77937 1.06066 -1.06066 
C 0.77937 -1.341951 0.397805 -1.5 0 -1.5 
C -0.397805 -1.5 -0.77937 -1.341951 -1.06066 -1.06066 
C -1.341951 -0.77937 -1.5 -0.397805 -1.5 0 
C -1.5 0.397805 -1.341951 0.77937 -1.06066 1.06066 
C -0.77937 1.341951 -0.397805 1.5 0 1.5 
z
" id="mdb24c2e748" style="stroke:#f5deb3;"/>
    </defs>
    <g>
     <use style="fill:#f5deb3;stroke:#f5deb3;" x="210.768431" xlink:href="#mdb24c2e748" y="27.513663"/>
     <use style="fill:#f5deb3;stroke:#f5deb3;" x="210.768431" xlink:href="#mdb24c2e748" y="27.513663"/>
    </g>
   </g>
   <g id="line2d_42">
    <defs>
     <path d="M 0 1.5 
C 0.397805 1.5 0.77937 1.341951 1.06066 1.06066 
C 1.341951 0.77937 1.5 0.397805 1.5 0 
C 1.5 -0.397805 1.341951 -0.77937 1.06066 -1.06066 
C 0.77937 -1.341951 0.397805 -1.5 0 -1.5 
C -0.397805 -1.5 -0.77937 -1.341951 -1.06066 -1.06066 
C -1.341951 -0.77937 -1.5 -0.397805 -1.5 0 
C -1.5 0.397805 -1.341951 0.77937 -1.06066 1.06066 
C -0.77937 1.341951 -0.397805 1.5 0 1.5 
z
" id="mac43ef54ce" style="stroke:#000080;"/>
    </defs>
    <g>
     <use style="fill:#000080;stroke:#000080;" x="212.806782" xlink:href="#mac43ef54ce" y="289.637523"/>
     <use style="fill:#000080;stroke:#000080;" x="212.806782" xlink:href="#mac43ef54ce" y="289.637523"/>
    </g>
   </g>
   <g id="line2d_43">
    <path d="M 144.568377 294.88 
L 144.568377 294.355752 
L 156.863789 294.355752 
L 156.863789 293.831505 
L 163.495344 293.831505 
L 163.495344 293.307257 
L 169.016268 293.307257 
L 169.016268 292.783009 
L 177.159745 292.783009 
L 177.159745 292.258761 
L 178.42572 292.258761 
L 178.42572 291.734514 
L 189.980142 291.734514 
L 189.980142 291.210266 
L 201.666516 291.210266 
L 201.666516 290.686018 
L 203.769338 290.686018 
L 203.769338 290.161771 
L 212.806782 290.161771 
L 212.806782 289.637523 
L 333.168 289.637523 
" style="fill:none;stroke:#000080;stroke-linecap:square;stroke-width:1.5;"/>
   </g>
   <g id="line2d_44">
    <defs>
     <path d="M 0 6 
C 1.591219 6 3.117479 5.367802 4.242641 4.242641 
C 5.367802 3.117479 6 1.591219 6 0 
C 6 -1.591219 5.367802 -3.117479 4.242641 -4.242641 
C 3.117479 -5.367802 1.591219 -6 0 -6 
C -1.591219 -6 -3.117479 -5.367802 -4.242641 -4.242641 
C -5.367802 -3.117479 -6 -1.591219 -6 0 
C -6 1.591219 -5.367802 3.117479 -4.242641 4.242641 
C -3.117479 5.367802 -1.591219 6 0 6 
z
" id="m8d0ce9e106" style="stroke:#000080;stroke-width:1.5;"/>
    </defs>
    <g>
     <use style="fill:none;stroke:#000080;stroke-width:1.5;" x="178.42572" xlink:href="#m8d0ce9e106" y="291.734514"/>
     <use style="fill:none;stroke:#000080;stroke-width:1.5;" x="212.806782" xlink:href="#m8d0ce9e106" y="290.161771"/>
     <use style="fill:none;stroke:#000080;stroke-width:1.5;" x="212.806782" xlink:href="#m8d0ce9e106" y="289.637523"/>
     <use style="fill:none;stroke:#000080;stroke-width:1.5;" x="212.806782" xlink:href="#m8d0ce9e106" y="289.637523"/>
     <use style="fill:none;stroke:#000080;stroke-width:1.5;" x="333.168" xlink:href="#m8d0ce9e106" y="289.637523"/>
    </g>
   </g>
   <g id="line2d_45">
    <path style="fill:none;stroke:#000080;stroke-linecap:square;stroke-width:1.5;"/>
    <g/>
   </g>
   <g id="line2d_46">
    <path clip-path="url(#paf139edcbb)" d="M 147.190823 294.355752 
" style="fill:none;stroke:#000080;stroke-linecap:square;stroke-width:1.5;"/>
    <defs>
     <path d="M -12 12 
L 12 -12 
M -12 -12 
L 12 12 
" id="m03639960e3" style="stroke:#000080;"/>
    </defs>
    <g clip-path="url(#paf139edcbb)">
     <use style="fill:#000080;stroke:#000080;" x="147.190823" xlink:href="#m03639960e3" y="294.355752"/>
    </g>
   </g>
   <g id="line2d_47">
    <defs>
     <path d="M 0 1.5 
C 0.397805 1.5 0.77937 1.341951 1.06066 1.06066 
C 1.341951 0.77937 1.5 0.397805 1.5 0 
C 1.5 -0.397805 1.341951 -0.77937 1.06066 -1.06066 
C 0.77937 -1.341951 0.397805 -1.5 0 -1.5 
C -0.397805 -1.5 -0.77937 -1.341951 -1.06066 -1.06066 
C -1.341951 -0.77937 -1.5 -0.397805 -1.5 0 
C -1.5 0.397805 -1.341951 0.77937 -1.06066 1.06066 
C -0.77937 1.341951 -0.397805 1.5 0 1.5 
z
" id="m4aba67774f" style="stroke:#ff00ff;"/>
    </defs>
    <g>
     <use style="fill:#ff00ff;stroke:#ff00ff;" x="264.830591" xlink:href="#m4aba67774f" y="273.910091"/>
     <use style="fill:#ff00ff;stroke:#ff00ff;" x="264.830591" xlink:href="#m4aba67774f" y="273.910091"/>
    </g>
   </g>
   <g id="line2d_48">
    <path d="M 113.396034 294.88 
L 113.396034 294.355752 
L 118.914406 294.355752 
L 118.914406 293.831505 
L 119.526788 293.831505 
L 119.526788 293.307257 
L 121.281837 293.307257 
L 121.281837 292.783009 
L 121.397846 292.783009 
L 121.397846 292.258761 
L 122.660646 292.258761 
L 122.660646 291.734514 
L 126.581907 291.734514 
L 126.581907 291.210266 
L 126.864621 291.210266 
L 126.864621 290.686018 
L 133.617681 290.686018 
L 133.617681 290.161771 
L 134.102952 290.161771 
L 134.102952 289.637523 
L 138.778873 289.637523 
L 138.778873 289.113275 
L 143.915437 289.113275 
L 143.915437 288.589027 
L 146.808451 288.589027 
L 146.808451 288.06478 
L 147.190823 288.06478 
L 147.190823 287.540532 
L 151.163317 287.540532 
L 151.163317 287.016284 
L 155.567741 287.016284 
L 155.567741 286.492036 
L 161.311977 286.492036 
L 161.311977 285.967789 
L 164.450244 285.967789 
L 164.450244 285.443541 
L 173.352374 285.443541 
L 173.352374 284.919293 
L 184.335824 284.919293 
L 184.335824 284.395046 
L 184.4316 284.395046 
L 184.4316 283.870798 
L 188.281895 283.870798 
L 188.281895 283.34655 
L 192.155163 283.34655 
L 192.155163 282.822302 
L 194.693513 282.822302 
L 194.693513 282.298055 
L 198.441018 282.298055 
L 198.441018 281.773807 
L 201.541431 281.773807 
L 201.541431 281.249559 
L 202.573807 281.249559 
L 202.573807 280.725312 
L 203.711384 280.725312 
L 203.711384 280.201064 
L 210.566643 280.201064 
L 210.566643 279.676816 
L 212.750384 279.676816 
L 212.750384 279.152568 
L 214.772512 279.152568 
L 214.772512 278.628321 
L 219.864747 278.628321 
L 219.864747 278.104073 
L 232.773965 278.104073 
L 232.773965 277.579825 
L 248.672334 277.579825 
L 248.672334 277.055578 
L 251.148124 277.055578 
L 251.148124 276.53133 
L 253.679494 276.53133 
L 253.679494 276.007082 
L 255.908273 276.007082 
L 255.908273 275.482834 
L 259.433055 275.482834 
L 259.433055 274.958587 
L 263.00549 274.958587 
L 263.00549 274.434339 
L 264.830591 274.434339 
L 264.830591 273.910091 
L 333.168 273.910091 
" style="fill:none;stroke:#ff00ff;stroke-linecap:square;stroke-width:1.5;"/>
   </g>
   <g id="line2d_49">
    <defs>
     <path d="M -0 8.485281 
L 5.091169 0 
L 0 -8.485281 
L -5.091169 -0 
z
" id="m10d0f16807" style="stroke:#ff00ff;stroke-linejoin:miter;stroke-width:1.5;"/>
    </defs>
    <g>
     <use style="fill:none;stroke:#ff00ff;stroke-linejoin:miter;stroke-width:1.5;" x="161.311977" xlink:href="#m10d0f16807" y="286.492036"/>
     <use style="fill:none;stroke:#ff00ff;stroke-linejoin:miter;stroke-width:1.5;" x="232.773965" xlink:href="#m10d0f16807" y="278.104073"/>
     <use style="fill:none;stroke:#ff00ff;stroke-linejoin:miter;stroke-width:1.5;" x="264.830591" xlink:href="#m10d0f16807" y="274.434339"/>
     <use style="fill:none;stroke:#ff00ff;stroke-linejoin:miter;stroke-width:1.5;" x="264.830591" xlink:href="#m10d0f16807" y="273.910091"/>
     <use style="fill:none;stroke:#ff00ff;stroke-linejoin:miter;stroke-width:1.5;" x="333.168" xlink:href="#m10d0f16807" y="273.910091"/>
    </g>
   </g>
   <g id="line2d_50">
    <path style="fill:none;stroke:#ff00ff;stroke-linecap:square;stroke-width:1.5;"/>
    <g/>
   </g>
   <g id="line2d_51">
    <path clip-path="url(#paf139edcbb)" d="M 211.526048 279.676816 
" style="fill:none;stroke:#ff00ff;stroke-linecap:square;stroke-width:1.5;"/>
    <defs>
     <path d="M -12 12 
L 12 -12 
M -12 -12 
L 12 12 
" id="m10c8425ca2" style="stroke:#ff00ff;"/>
    </defs>
    <g clip-path="url(#paf139edcbb)">
     <use style="fill:#ff00ff;stroke:#ff00ff;" x="211.526048" xlink:href="#m10c8425ca2" y="279.676816"/>
    </g>
   </g>
   <g id="line2d_52">
    <defs>
     <path d="M 0 1.5 
C 0.397805 1.5 0.77937 1.341951 1.06066 1.06066 
C 1.341951 0.77937 1.5 0.397805 1.5 0 
C 1.5 -0.397805 1.341951 -0.77937 1.06066 -1.06066 
C 0.77937 -1.341951 0.397805 -1.5 0 -1.5 
C -0.397805 -1.5 -0.77937 -1.341951 -1.06066 -1.06066 
C -1.341951 -0.77937 -1.5 -0.397805 -1.5 0 
C -1.5 0.397805 -1.341951 0.77937 -1.06066 1.06066 
C -0.77937 1.341951 -0.397805 1.5 0 1.5 
z
" id="mf7f077a80f" style="stroke:#ff7500;"/>
    </defs>
    <g>
     <use style="fill:#ff7500;stroke:#ff7500;" x="221.256036" xlink:href="#mf7f077a80f" y="27.513663"/>
     <use style="fill:#ff7500;stroke:#ff7500;" x="221.256036" xlink:href="#mf7f077a80f" y="27.513663"/>
    </g>
   </g>
   <g id="line2d_53">
    <path d="M 98.396965 294.88 
L 98.396965 294.355752 
L 98.543252 294.355752 
L 98.543252 293.831505 
L 100.728876 293.831505 
L 100.728876 293.307257 
L 102.436953 293.307257 
L 102.436953 292.783009 
L 102.895343 292.783009 
L 102.895343 292.258761 
L 104.513022 292.258761 
L 104.513022 291.734514 
L 104.819059 291.734514 
L 104.819059 291.210266 
L 109.789179 291.210266 
L 109.789179 290.686018 
L 110.311216 290.686018 
L 110.311216 290.161771 
L 112.384646 290.161771 
L 112.384646 289.637523 
L 115.58349 289.637523 
L 115.58349 289.113275 
L 116.631902 289.113275 
L 116.631902 288.589027 
L 118.599834 288.589027 
L 118.599834 288.06478 
L 118.958878 288.06478 
L 118.958878 287.540532 
L 119.267005 287.540532 
L 119.267005 287.016284 
L 120.849643 287.016284 
L 120.849643 286.492036 
L 124.200956 286.492036 
L 124.200956 285.967789 
L 126.864621 285.967789 
L 126.864621 285.443541 
L 127.004254 285.443541 
L 127.004254 284.919293 
L 128.444143 284.919293 
L 128.546153 283.870798 
L 128.873566 283.870798 
L 128.873566 283.34655 
L 130.17053 283.34655 
L 130.17053 282.822302 
L 130.377486 282.822302 
L 130.377486 282.298055 
L 130.961731 282.298055 
L 130.961731 281.773807 
L 132.032353 281.773807 
L 132.032353 281.249559 
L 133.843356 281.249559 
L 133.899314 280.201064 
L 134.841393 280.201064 
L 134.841393 279.676816 
L 134.964358 279.676816 
L 134.964358 279.152568 
L 135.224928 279.152568 
L 135.224928 278.628321 
L 135.600092 278.628321 
L 135.600092 278.104073 
L 135.967241 278.104073 
L 135.967241 277.579825 
L 136.213149 277.579825 
L 136.294342 276.53133 
L 137.132207 276.53133 
L 137.132207 276.007082 
L 138.890669 276.007082 
L 138.987898 274.958587 
L 139.139583 274.958587 
L 139.167019 273.910091 
L 139.289942 273.910091 
L 139.289942 273.385844 
L 139.506324 273.385844 
L 139.533182 272.337348 
L 140.165478 272.337348 
L 140.165478 271.8131 
L 140.332797 271.8131 
L 140.332797 271.288853 
L 141.084606 271.288853 
L 141.084606 270.764605 
L 142.268865 270.764605 
L 142.268865 270.240357 
L 142.552605 270.240357 
L 142.552605 269.716109 
L 142.986095 269.716109 
L 142.986095 269.191862 
L 143.7902 269.191862 
L 143.7902 268.667614 
L 162.441844 268.667614 
L 162.441844 268.143366 
L 162.677333 268.143366 
L 162.677333 267.619119 
L 162.854447 267.619119 
L 162.854447 267.094871 
L 164.081061 267.094871 
L 164.081061 266.570623 
L 164.60072 266.570623 
L 164.60072 266.046375 
L 164.842468 266.046375 
L 164.882431 264.99788 
L 165.645161 264.99788 
L 165.645161 264.473632 
L 166.588101 264.473632 
L 166.588101 263.949385 
L 166.842016 263.949385 
L 166.842016 263.425137 
L 167.005615 263.425137 
L 167.005615 262.900889 
L 167.25348 262.900889 
L 167.25348 262.376641 
L 167.413227 262.376641 
L 167.42912 261.328146 
L 168.001954 261.328146 
L 168.001954 260.803898 
L 168.304029 260.803898 
L 168.304029 260.279651 
L 169.248858 260.279651 
L 169.248858 259.755403 
L 176.603697 259.755403 
L 176.603697 259.231155 
L 176.727457 259.231155 
L 176.727457 258.706907 
L 176.848802 258.706907 
L 176.848802 258.18266 
L 177.287041 258.18266 
L 177.287041 257.658412 
L 177.629761 257.658412 
L 177.629761 257.134164 
L 178.09581 257.134164 
L 178.09581 256.609917 
L 178.427116 256.609917 
L 178.427116 256.085669 
L 178.556485 256.085669 
L 178.556485 255.561421 
L 179.28768 255.561421 
L 179.387002 254.512926 
L 179.511992 254.512926 
L 179.511992 253.988678 
L 179.637381 253.988678 
L 179.637381 253.46443 
L 179.930284 253.46443 
L 179.968623 252.415935 
L 180.156521 252.415935 
L 180.156521 251.891687 
L 180.298613 251.891687 
L 180.357369 250.843192 
L 180.480478 250.843192 
L 180.56453 249.794696 
L 180.607633 249.794696 
L 180.607633 248.746201 
L 180.894269 248.746201 
L 180.981142 247.173458 
L 181.080744 247.173458 
L 181.148813 246.124962 
L 181.229668 246.124962 
L 181.29006 245.076467 
L 181.454759 245.076467 
L 181.467634 243.503724 
L 181.705812 243.503724 
L 181.802461 242.455228 
L 181.887157 242.455228 
L 181.939596 240.882485 
L 182.211747 240.882485 
L 182.29557 239.83399 
L 182.387859 239.83399 
L 182.387859 239.309742 
L 182.561088 239.309742 
L 182.61808 237.736999 
L 182.699949 237.736999 
L 182.699949 237.212751 
L 187.90715 237.212751 
L 188.001005 236.164255 
L 188.321986 236.164255 
L 188.321986 235.640008 
L 188.566785 235.640008 
L 188.641708 234.067265 
L 188.957861 234.067265 
L 188.972988 233.018769 
L 189.114534 233.018769 
L 189.160959 231.970274 
L 189.314317 231.970274 
L 189.372029 230.397531 
L 189.456766 230.397531 
L 189.522059 228.30054 
L 189.592211 228.30054 
L 189.694005 226.727797 
L 189.7952 226.727797 
L 189.89007 225.155053 
L 189.921577 225.155053 
L 190.002942 223.58231 
L 190.039928 223.58231 
L 190.108002 222.009567 
L 190.167346 222.009567 
L 190.167346 220.961072 
L 190.321109 220.961072 
L 190.424248 219.388328 
L 190.521936 219.388328 
L 190.521936 218.339833 
L 190.656129 218.339833 
L 190.764778 215.718594 
L 190.828689 215.718594 
L 190.93693 214.145851 
L 191.004908 214.145851 
L 191.100696 211.524613 
L 191.15605 211.524613 
L 191.262917 207.854879 
L 191.308515 207.854879 
L 191.333575 206.282136 
L 191.432141 206.282136 
L 191.540567 201.039658 
L 191.687091 201.039658 
L 191.756673 198.41842 
L 191.819569 198.41842 
L 191.925585 195.797181 
L 191.949127 195.797181 
L 191.972636 194.748686 
L 192.097267 194.748686 
L 192.193443 193.175943 
L 192.262882 193.175943 
L 192.334528 190.554704 
L 192.650547 190.554704 
L 192.751574 189.506209 
L 192.800051 189.506209 
L 192.858043 188.457713 
L 192.924854 188.457713 
L 193.009946 185.836474 
L 193.094619 185.836474 
L 193.179469 184.263731 
L 193.216718 184.263731 
L 193.302732 181.642493 
L 193.394165 181.642493 
L 193.447859 180.06975 
L 193.601592 180.06975 
L 193.705235 177.972759 
L 193.717286 177.972759 
L 193.800837 176.400016 
L 193.891936 176.400016 
L 193.945233 174.827272 
L 194.043454 174.827272 
L 194.143915 173.254529 
L 194.331473 173.254529 
L 194.381218 172.206034 
L 199.340147 172.206034 
L 199.340147 171.681786 
L 199.668293 171.681786 
L 199.746836 170.109043 
L 199.837481 170.109043 
L 199.945629 168.012052 
L 200.073326 168.012052 
L 200.073326 167.487804 
L 200.202048 167.487804 
L 200.311451 166.439309 
L 200.355954 166.439309 
L 200.392952 164.866566 
L 200.473294 164.866566 
L 200.538995 163.293823 
L 200.589453 163.293823 
L 200.669266 161.721079 
L 200.744519 161.721079 
L 200.855079 158.051345 
L 200.911037 158.051345 
L 200.979602 156.478602 
L 201.039279 156.478602 
L 201.139772 151.236125 
L 201.158015 151.236125 
L 201.266695 150.18763 
L 201.271131 150.18763 
L 201.365871 148.090639 
L 201.400026 148.090639 
L 201.485666 143.372409 
L 201.531967 143.372409 
L 201.594477 141.275418 
L 201.652783 141.275418 
L 201.759467 138.65418 
L 201.780294 138.65418 
L 201.881554 134.984446 
L 201.896532 134.984446 
L 201.91292 133.93595 
L 202.016237 133.93595 
L 202.111897 130.266216 
L 202.139332 130.266216 
L 202.216127 127.644978 
L 202.326336 127.644978 
L 202.436533 124.499491 
L 202.448619 124.499491 
L 202.535385 121.354005 
L 202.574835 121.354005 
L 202.667786 119.257014 
L 202.694348 119.257014 
L 202.769387 114.538785 
L 202.814726 114.538785 
L 202.925203 112.966042 
L 202.948019 112.966042 
L 203.05498 110.344803 
L 203.080619 110.344803 
L 203.135761 108.247812 
L 203.195686 108.247812 
L 203.297508 106.150821 
L 203.391544 106.150821 
L 203.447329 105.102326 
L 203.67671 105.102326 
L 203.67671 104.578078 
L 203.832513 104.578078 
L 203.832513 103.529583 
L 204.086996 103.529583 
L 204.086996 103.005335 
L 204.276113 103.005335 
L 204.276113 102.481087 
L 204.423216 102.481087 
L 204.423216 101.432592 
L 208.717715 101.432592 
L 208.796154 100.384096 
L 208.880411 100.384096 
L 208.940613 99.335601 
L 209.014275 99.335601 
L 209.018986 98.287105 
L 209.167431 98.287105 
L 209.243151 97.23861 
L 209.400511 97.23861 
L 209.42054 96.190115 
L 209.560095 96.190115 
L 209.560095 95.665867 
L 209.746003 95.665867 
L 209.830909 94.093124 
L 209.92322 94.093124 
L 209.961834 93.044628 
L 210.181373 93.044628 
L 210.24224 91.996133 
L 210.383357 91.996133 
L 210.4001 90.947637 
L 210.544028 90.947637 
L 210.601048 89.899142 
L 210.714525 89.899142 
L 210.819835 88.326399 
L 210.949993 88.326399 
L 211.022672 86.753656 
L 211.16046 86.753656 
L 211.266595 85.70516 
L 211.331981 85.70516 
L 211.331981 85.180912 
L 217.486599 85.180912 
L 217.57774 84.132417 
L 217.692449 84.132417 
L 217.692449 83.608169 
L 217.84097 83.608169 
L 217.92717 81.511178 
L 217.991293 81.511178 
L 217.991293 80.986931 
L 218.10842 80.986931 
L 218.150839 79.938435 
L 218.240876 79.938435 
L 218.321946 77.841444 
L 218.392672 77.841444 
L 218.495438 76.268701 
L 218.637746 76.268701 
L 218.722596 73.647463 
L 218.74936 73.647463 
L 218.847761 71.026224 
L 218.872074 71.026224 
L 218.953003 68.929233 
L 219.013945 68.929233 
L 219.105216 66.307995 
L 219.159485 66.307995 
L 219.231796 61.589765 
L 219.283854 61.589765 
L 219.389688 58.444279 
L 219.407715 58.444279 
L 219.511001 54.250297 
L 219.559159 54.250297 
L 219.669022 50.056315 
L 219.680173 50.056315 
L 219.721922 49.00782 
L 219.791533 49.00782 
L 219.839917 46.910829 
L 219.912301 46.910829 
L 220.011987 42.716847 
L 220.071274 42.716847 
L 220.147255 40.095609 
L 220.182843 40.095609 
L 220.231367 37.47437 
L 220.327029 37.47437 
L 220.327029 36.950122 
L 220.468442 36.950122 
L 220.557983 34.853131 
L 220.584322 34.853131 
L 220.658073 32.756141 
L 220.793 32.756141 
L 220.819338 31.707645 
L 220.908489 31.707645 
L 220.965827 29.610654 
L 221.151241 29.610654 
L 221.256036 27.513663 
L 333.168 27.513663 
L 333.168 27.513663 
" style="fill:none;stroke:#ff7500;stroke-linecap:square;stroke-width:1.5;"/>
   </g>
   <g id="line2d_54">
    <defs>
     <path d="M 0 -6 
L -1.347084 -1.854102 
L -5.706339 -1.854102 
L -2.179628 0.708204 
L -3.526712 4.854102 
L -0 2.291796 
L 3.526712 4.854102 
L 2.179628 0.708204 
L 5.706339 -1.854102 
L 1.347084 -1.854102 
z
" id="m2213bba23b" style="stroke:#ff7500;stroke-linejoin:bevel;stroke-width:1.5;"/>
    </defs>
    <g>
     <use style="fill:none;stroke:#ff7500;stroke-linejoin:bevel;stroke-width:1.5;" x="176.848802" xlink:href="#m2213bba23b" y="258.706907"/>
     <use style="fill:none;stroke:#ff7500;stroke-linejoin:bevel;stroke-width:1.5;" x="202.326336" xlink:href="#m2213bba23b" y="127.12073"/>
     <use style="fill:none;stroke:#ff7500;stroke-linejoin:bevel;stroke-width:1.5;" x="221.256036" xlink:href="#m2213bba23b" y="28.037911"/>
     <use style="fill:none;stroke:#ff7500;stroke-linejoin:bevel;stroke-width:1.5;" x="221.256036" xlink:href="#m2213bba23b" y="27.513663"/>
     <use style="fill:none;stroke:#ff7500;stroke-linejoin:bevel;stroke-width:1.5;" x="333.168" xlink:href="#m2213bba23b" y="27.513663"/>
    </g>
   </g>
   <g id="line2d_55">
    <path style="fill:none;stroke:#ff7500;stroke-linecap:square;stroke-width:1.5;"/>
    <g/>
   </g>
   <g id="line2d_56">
    <defs>
     <path d="M 0 1.5 
C 0.397805 1.5 0.77937 1.341951 1.06066 1.06066 
C 1.341951 0.77937 1.5 0.397805 1.5 0 
C 1.5 -0.397805 1.341951 -0.77937 1.06066 -1.06066 
C 0.77937 -1.341951 0.397805 -1.5 0 -1.5 
C -0.397805 -1.5 -0.77937 -1.341951 -1.06066 -1.06066 
C -1.341951 -0.77937 -1.5 -0.397805 -1.5 0 
C -1.5 0.397805 -1.341951 0.77937 -1.06066 1.06066 
C -0.77937 1.341951 -0.397805 1.5 0 1.5 
z
" id="mc16da3b60e" style="stroke:#6495ed;"/>
    </defs>
    <g>
     <use style="fill:#6495ed;stroke:#6495ed;" x="222.008565" xlink:href="#mc16da3b60e" y="27.513663"/>
     <use style="fill:#6495ed;stroke:#6495ed;" x="222.008565" xlink:href="#mc16da3b60e" y="27.513663"/>
    </g>
   </g>
   <g id="line2d_57">
    <path d="M 103.560793 294.88 
L 103.560793 294.355752 
L 105.020098 294.355752 
L 105.020098 293.831505 
L 108.451173 293.831505 
L 108.451173 293.307257 
L 108.935392 293.307257 
L 108.935392 292.783009 
L 110.014853 292.783009 
L 110.014853 292.258761 
L 110.311216 292.258761 
L 110.311216 291.734514 
L 112.122219 291.734514 
L 112.188203 290.686018 
L 113.939832 290.686018 
L 113.939832 290.161771 
L 114.866043 290.161771 
L 114.866043 289.637523 
L 117.523731 289.637523 
L 117.523731 289.113275 
L 119.003236 289.113275 
L 119.003236 288.589027 
L 122.803291 288.589027 
L 122.803291 288.06478 
L 124.003384 288.06478 
L 124.003384 287.540532 
L 126.381204 287.540532 
L 126.381204 287.016284 
L 126.553378 287.016284 
L 126.553378 286.492036 
L 127.470694 286.492036 
L 127.470694 285.967789 
L 129.890654 285.967789 
L 129.890654 285.443541 
L 130.445921 285.443541 
L 130.445921 284.919293 
L 130.627094 284.919293 
L 130.627094 284.395046 
L 133.560797 284.395046 
L 133.579779 283.34655 
L 134.322384 283.34655 
L 134.322384 282.822302 
L 135.498584 282.822302 
L 135.498584 282.298055 
L 135.751238 282.298055 
L 135.751238 281.773807 
L 136.742071 281.773807 
L 136.742071 281.249559 
L 136.946047 281.249559 
L 136.946047 280.725312 
L 137.812884 280.725312 
L 137.812884 280.201064 
L 137.989936 280.201064 
L 138.077782 278.628321 
L 138.581462 278.628321 
L 138.581462 278.104073 
L 139.384945 278.104073 
L 139.384945 277.579825 
L 139.613502 277.579825 
L 139.680151 276.53133 
L 139.733284 276.53133 
L 139.733284 276.007082 
L 139.904842 276.007082 
L 139.904842 275.482834 
L 141.121347 275.482834 
L 141.121347 274.958587 
L 141.591967 274.958587 
L 141.591967 274.434339 
L 142.280305 274.434339 
L 142.382924 273.385844 
L 142.709478 273.385844 
L 142.709478 272.861596 
L 144.568377 272.861596 
L 144.568377 272.337348 
L 146.878609 272.337348 
L 146.878609 271.8131 
L 147.421317 271.8131 
L 147.421317 271.288853 
L 163.002374 271.288853 
L 163.002374 270.764605 
L 163.684032 270.764605 
L 163.684032 270.240357 
L 165.032231 270.240357 
L 165.086933 269.191862 
L 165.168661 269.191862 
L 165.168661 268.667614 
L 165.58042 268.667614 
L 165.639285 267.094871 
L 165.69795 267.094871 
L 165.69795 266.570623 
L 165.956605 266.570623 
L 165.956605 266.046375 
L 166.088782 266.046375 
L 166.088782 265.522128 
L 166.202898 265.522128 
L 166.202898 264.99788 
L 166.437298 264.99788 
L 166.521241 263.949385 
L 166.599219 263.949385 
L 166.599219 263.425137 
L 167.901788 263.425137 
L 167.901788 262.900889 
L 168.220791 262.900889 
L 168.220791 262.376641 
L 168.583566 262.376641 
L 168.583566 261.852394 
L 169.887063 261.852394 
L 169.887063 261.328146 
L 170.046958 261.328146 
L 170.046958 260.803898 
L 170.322126 260.803898 
L 170.322126 260.279651 
L 170.850913 260.279651 
L 170.850913 259.755403 
L 173.034302 259.755403 
L 173.034302 259.231155 
L 177.432645 259.231155 
L 177.432645 258.706907 
L 177.667747 258.706907 
L 177.772503 257.658412 
L 177.785553 257.658412 
L 177.802937 256.609917 
L 178.023058 256.609917 
L 178.023058 256.085669 
L 178.213555 256.085669 
L 178.213555 255.561421 
L 178.372573 255.561421 
L 178.372573 255.037173 
L 178.488444 255.037173 
L 178.568953 253.988678 
L 178.618735 253.988678 
L 178.647709 252.940182 
L 178.789112 252.940182 
L 178.876392 251.367439 
L 178.964584 251.367439 
L 179.072511 250.318944 
L 179.146319 250.318944 
L 179.237137 249.270448 
L 179.380399 249.270448 
L 179.394923 248.221953 
L 179.629571 248.221953 
L 179.629571 247.697705 
L 179.754108 247.697705 
L 179.765737 246.64921 
L 180.019609 246.64921 
L 180.085666 245.600714 
L 180.287339 245.600714 
L 180.33614 244.027971 
L 180.407216 244.027971 
L 180.496579 242.979476 
L 180.600252 242.979476 
L 180.66657 241.93098 
L 181.016008 241.93098 
L 181.029215 240.882485 
L 181.169063 240.882485 
L 181.169063 240.358237 
L 181.285331 240.358237 
L 181.285331 239.83399 
L 181.5097 239.83399 
L 181.5097 239.309742 
L 181.867737 239.309742 
L 181.867737 238.785494 
L 183.833491 238.785494 
L 183.833491 238.261246 
L 184.101555 238.261246 
L 184.101555 237.736999 
L 184.321957 237.736999 
L 184.321957 237.212751 
L 189.373506 237.212751 
L 189.373506 236.688503 
L 189.620629 236.688503 
L 189.620629 236.164255 
L 189.744677 236.164255 
L 189.744677 235.640008 
L 189.893653 235.640008 
L 189.893653 235.11576 
L 190.130634 235.11576 
L 190.130634 234.591512 
L 190.468658 234.591512 
L 190.572984 233.018769 
L 190.895743 233.018769 
L 190.895743 232.494521 
L 191.904562 232.494521 
L 191.904562 231.970274 
L 192.400924 231.970274 
L 192.400924 231.446026 
L 192.583272 231.446026 
L 192.583272 230.921778 
L 193.049949 230.921778 
L 193.049949 230.397531 
L 193.284505 230.397531 
L 193.284505 229.873283 
L 193.395918 229.873283 
L 193.446694 227.776292 
L 193.546638 227.776292 
L 193.546638 227.252044 
L 193.676508 227.252044 
L 193.676508 226.203549 
L 193.861244 226.203549 
L 193.861244 225.679301 
L 194.124318 225.679301 
L 194.224866 224.106558 
L 194.267143 224.106558 
L 194.267143 223.58231 
L 194.395562 223.58231 
L 194.433571 222.533815 
L 194.539989 222.533815 
L 194.539989 221.485319 
L 194.770843 221.485319 
L 194.770843 220.961072 
L 195.082031 220.961072 
L 195.191893 219.912576 
L 195.307858 219.912576 
L 195.41681 218.339833 
L 195.440179 218.339833 
L 195.440179 217.815585 
L 195.69618 217.815585 
L 195.770665 216.76709 
L 195.922711 216.76709 
L 195.922711 216.242842 
L 199.973557 216.242842 
L 199.973557 215.718594 
L 200.215024 215.718594 
L 200.215024 215.194347 
L 200.343864 215.194347 
L 200.411227 213.097356 
L 200.518925 213.097356 
L 200.610978 211.000365 
L 200.644364 211.000365 
L 200.65433 209.95187 
L 200.762424 209.95187 
L 200.814888 206.806383 
L 200.879299 206.806383 
L 200.981858 203.660897 
L 201.041152 203.660897 
L 201.149082 202.088154 
L 201.172149 202.088154 
L 201.270392 198.41842 
L 201.288865 198.41842 
L 201.387547 194.224438 
L 201.408096 194.224438 
L 201.483475 191.603199 
L 201.575966 191.603199 
L 201.679155 186.88497 
L 201.729619 186.88497 
L 201.832609 183.215236 
L 201.85156 183.215236 
L 201.960573 180.593997 
L 202.010218 180.593997 
L 202.085829 174.303025 
L 202.149872 174.303025 
L 202.254571 169.584795 
L 202.275156 169.584795 
L 202.359677 166.963557 
L 202.386373 166.963557 
L 202.474832 162.245327 
L 202.505823 162.245327 
L 202.604279 157.00285 
L 202.630598 157.00285 
L 202.72019 154.905859 
L 202.747351 154.905859 
L 202.848821 150.18763 
L 202.858935 150.18763 
L 202.95774 144.420905 
L 202.984527 144.420905 
L 203.082947 141.275418 
L 203.116515 141.275418 
L 203.222106 136.557189 
L 203.242224 136.557189 
L 203.32574 133.93595 
L 203.359165 133.93595 
L 203.394485 129.217721 
L 203.47499 129.217721 
L 203.584226 126.072235 
L 203.621666 126.072235 
L 203.689239 124.499491 
L 203.760386 124.499491 
L 203.836335 122.4025 
L 203.91607 122.4025 
L 203.989126 119.781262 
L 204.14151 119.781262 
L 204.21424 118.208519 
L 204.34364 118.208519 
L 204.379772 117.160023 
L 204.489555 117.160023 
L 204.546782 116.111528 
L 204.675532 116.111528 
L 204.675532 115.58728 
L 209.051928 115.58728 
L 209.051928 114.538785 
L 209.339127 114.538785 
L 209.339127 114.014537 
L 209.517363 114.014537 
L 209.519651 112.966042 
L 209.680631 112.966042 
L 209.73087 111.917546 
L 209.801003 111.917546 
L 209.867041 110.344803 
L 209.94064 110.344803 
L 209.980552 109.296308 
L 210.099955 109.296308 
L 210.192376 106.150821 
L 210.300706 106.150821 
L 210.358756 101.956839 
L 210.48552 101.956839 
L 210.568365 99.335601 
L 210.614361 99.335601 
L 210.70684 97.23861 
L 210.742884 97.23861 
L 210.839549 95.141619 
L 210.866222 95.141619 
L 210.949993 92.520381 
L 210.99834 92.520381 
L 211.087528 90.42339 
L 211.114862 90.42339 
L 211.188094 87.802151 
L 211.24033 87.802151 
L 211.328687 83.608169 
L 211.362628 83.608169 
L 211.44852 79.938435 
L 211.500584 79.938435 
L 211.6089 76.268701 
L 211.629753 76.268701 
L 211.696999 73.123215 
L 211.742288 73.123215 
L 211.827708 71.026224 
L 211.866467 71.026224 
L 211.94015 67.880738 
L 211.97945 67.880738 
L 212.077507 65.259499 
L 212.097603 65.259499 
L 212.179516 62.114013 
L 212.235472 62.114013 
L 212.331306 58.968526 
L 212.360418 58.968526 
L 212.464622 55.298792 
L 212.471944 55.298792 
L 212.504858 53.201802 
L 212.696083 53.201802 
L 212.803569 50.580563 
L 212.836609 50.580563 
L 212.836609 50.056315 
L 212.956714 50.056315 
L 212.987592 49.00782 
L 213.087701 49.00782 
L 213.130957 47.959324 
L 213.228393 47.959324 
L 213.299228 46.910829 
L 213.372149 46.910829 
L 213.435475 45.338086 
L 213.573541 45.338086 
L 213.639011 43.765343 
L 213.731111 43.765343 
L 213.761165 42.716847 
L 219.900425 42.716847 
L 219.900425 42.192599 
L 220.057897 42.192599 
L 220.153171 40.095609 
L 220.372349 40.095609 
L 220.385363 39.047113 
L 220.565925 39.047113 
L 220.610501 37.998618 
L 220.713745 37.998618 
L 220.783737 36.425875 
L 220.899052 36.425875 
L 220.908961 35.377379 
L 221.011372 35.377379 
L 221.011372 34.853131 
L 221.123894 34.853131 
L 221.215075 33.280388 
L 221.359508 33.280388 
L 221.359508 32.756141 
L 221.520386 32.756141 
L 221.585928 30.65915 
L 221.791713 30.65915 
L 221.900147 28.037911 
L 222.008565 28.037911 
L 222.008565 27.513663 
L 333.168 27.513663 
L 333.168 27.513663 
" style="fill:none;stroke:#6495ed;stroke-linecap:square;stroke-width:1.5;"/>
   </g>
   <g id="line2d_58">
    <defs>
     <path d="M -0 6 
L 6 -6 
L -6 -6 
z
" id="mbf03780628" style="stroke:#6495ed;stroke-linejoin:miter;stroke-width:1.5;"/>
    </defs>
    <g>
     <use style="fill:none;stroke:#6495ed;stroke-linejoin:miter;stroke-width:1.5;" x="147.421317" xlink:href="#mbf03780628" y="271.8131"/>
     <use style="fill:none;stroke:#6495ed;stroke-linejoin:miter;stroke-width:1.5;" x="202.865337" xlink:href="#mbf03780628" y="147.566391"/>
     <use style="fill:none;stroke:#6495ed;stroke-linejoin:miter;stroke-width:1.5;" x="222.008565" xlink:href="#mbf03780628" y="28.037911"/>
     <use style="fill:none;stroke:#6495ed;stroke-linejoin:miter;stroke-width:1.5;" x="222.008565" xlink:href="#mbf03780628" y="27.513663"/>
     <use style="fill:none;stroke:#6495ed;stroke-linejoin:miter;stroke-width:1.5;" x="333.168" xlink:href="#mbf03780628" y="27.513663"/>
    </g>
   </g>
   <g id="line2d_59">
    <path style="fill:none;stroke:#6495ed;stroke-linecap:square;stroke-width:1.5;"/>
    <g/>
   </g>
   <g id="line2d_60">
    <defs>
     <path d="M 0 1.5 
C 0.397805 1.5 0.77937 1.341951 1.06066 1.06066 
C 1.341951 0.77937 1.5 0.397805 1.5 0 
C 1.5 -0.397805 1.341951 -0.77937 1.06066 -1.06066 
C 0.77937 -1.341951 0.397805 -1.5 0 -1.5 
C -0.397805 -1.5 -0.77937 -1.341951 -1.06066 -1.06066 
C -1.341951 -0.77937 -1.5 -0.397805 -1.5 0 
C -1.5 0.397805 -1.341951 0.77937 -1.06066 1.06066 
C -0.77937 1.341951 -0.397805 1.5 0 1.5 
z
" id="m0ec0c490a5" style="stroke:#ff0000;"/>
    </defs>
    <g>
     <use style="fill:#ff0000;stroke:#ff0000;" x="302.172298" xlink:href="#m0ec0c490a5" y="237.212751"/>
     <use style="fill:#ff0000;stroke:#ff0000;" x="302.172298" xlink:href="#m0ec0c490a5" y="237.212751"/>
    </g>
   </g>
   <g id="line2d_61">
    <path d="M 95.869318 294.88 
L 95.869318 294.355752 
L 97.492092 294.355752 
L 97.492092 293.831505 
L 100.339683 293.831505 
L 100.339683 293.307257 
L 100.470395 293.307257 
L 100.470395 292.783009 
L 100.600121 292.783009 
L 100.600121 292.258761 
L 102.20309 292.258761 
L 102.20309 291.734514 
L 102.895343 291.734514 
L 102.895343 291.210266 
L 104.305927 291.210266 
L 104.305927 290.686018 
L 106.272485 290.686018 
L 106.272485 290.161771 
L 109.939957 290.161771 
L 109.939957 289.637523 
L 112.834468 289.637523 
L 112.834468 289.113275 
L 115.256077 289.113275 
L 115.311081 288.06478 
L 115.420563 288.06478 
L 115.420563 287.540532 
L 119.397387 287.540532 
L 119.397387 287.016284 
L 120.118102 287.016284 
L 120.118102 286.492036 
L 124.653315 286.492036 
L 124.653315 285.967789 
L 125.402121 285.967789 
L 125.402121 285.443541 
L 126.410019 285.443541 
L 126.410019 284.919293 
L 128.997851 284.919293 
L 129.022601 283.870798 
L 130.828657 283.870798 
L 130.828657 283.34655 
L 131.093782 283.34655 
L 131.093782 282.822302 
L 131.569473 282.822302 
L 131.569473 282.298055 
L 132.843288 282.298055 
L 132.843288 281.773807 
L 132.961694 281.773807 
L 132.961694 281.249559 
L 133.079291 281.249559 
L 133.079291 280.725312 
L 133.215478 280.725312 
L 133.215478 280.201064 
L 133.446459 280.201064 
L 133.446459 279.676816 
L 133.579779 279.676816 
L 133.579779 279.152568 
L 134.084539 279.152568 
L 134.084539 278.628321 
L 134.503128 278.628321 
L 134.503128 278.104073 
L 135.751238 278.104073 
L 135.751238 277.579825 
L 136.066027 277.579825 
L 136.066027 277.055578 
L 136.391271 277.055578 
L 136.391271 276.53133 
L 136.551614 276.53133 
L 136.599426 275.482834 
L 137.346876 275.482834 
L 137.346876 274.958587 
L 138.150647 274.958587 
L 138.150647 274.434339 
L 138.904592 274.434339 
L 138.904592 273.910091 
L 141.255396 273.910091 
L 141.255396 273.385844 
L 141.615758 273.385844 
L 141.615758 272.861596 
L 142.015238 272.861596 
L 142.015238 272.337348 
L 143.23671 272.337348 
L 143.344544 271.288853 
L 144.193927 271.288853 
L 144.193927 270.764605 
L 144.508207 270.764605 
L 144.508207 270.240357 
L 148.313575 270.240357 
L 148.313575 269.716109 
L 149.412837 269.716109 
L 149.412837 269.191862 
L 149.608079 269.191862 
L 149.608079 268.667614 
L 162.747007 268.667614 
L 162.750483 267.619119 
L 163.063921 267.619119 
L 163.063921 267.094871 
L 163.502 267.094871 
L 163.502 266.570623 
L 166.163043 266.570623 
L 166.163043 266.046375 
L 166.383922 266.046375 
L 166.383922 265.522128 
L 166.63253 265.522128 
L 166.63253 264.99788 
L 171.262534 264.99788 
L 171.262534 264.473632 
L 176.01621 264.473632 
L 176.01621 263.949385 
L 176.233326 263.949385 
L 176.244427 262.900889 
L 177.733294 262.900889 
L 177.733294 262.376641 
L 177.857871 262.376641 
L 177.857871 261.852394 
L 178.556485 261.852394 
L 178.556485 261.328146 
L 185.246917 261.328146 
L 185.246917 260.803898 
L 185.603768 260.803898 
L 185.603768 260.279651 
L 186.424482 260.279651 
L 186.424482 259.755403 
L 186.872786 259.755403 
L 186.872786 259.231155 
L 188.495421 259.231155 
L 188.495421 258.706907 
L 196.322696 258.706907 
L 196.322696 258.18266 
L 202.460696 258.18266 
L 202.537445 257.134164 
L 206.946933 257.134164 
L 206.946933 256.609917 
L 207.310002 256.609917 
L 207.310002 256.085669 
L 211.512811 256.085669 
L 211.512811 255.561421 
L 212.164224 255.561421 
L 212.164224 255.037173 
L 212.500819 255.037173 
L 212.500819 254.512926 
L 214.657021 254.512926 
L 214.657021 253.988678 
L 215.553641 253.988678 
L 215.553641 253.46443 
L 215.818432 253.46443 
L 215.818432 252.940182 
L 241.236672 252.940182 
L 241.256178 251.367439 
L 241.658367 251.367439 
L 241.658367 250.843192 
L 245.423215 250.843192 
L 245.423215 250.318944 
L 253.588639 250.318944 
L 253.596248 248.221953 
L 258.839648 248.221953 
L 258.839648 247.697705 
L 260.698976 247.697705 
L 260.705242 245.600714 
L 265.715741 245.600714 
L 265.715741 245.076467 
L 266.009733 245.076467 
L 266.009733 244.552219 
L 269.593536 244.552219 
L 269.593536 244.027971 
L 270.480153 244.027971 
L 270.480153 243.503724 
L 275.425157 243.503724 
L 275.427304 242.455228 
L 276.061355 242.455228 
L 276.061355 241.93098 
L 277.882172 241.93098 
L 277.882172 241.406733 
L 281.593453 241.406733 
L 281.593453 240.882485 
L 283.237877 240.882485 
L 283.344508 239.83399 
L 284.741076 239.83399 
L 284.741076 239.309742 
L 292.664253 239.309742 
L 292.664253 238.785494 
L 293.54891 238.785494 
L 293.54891 238.261246 
L 296.68901 238.261246 
L 296.68901 237.736999 
L 302.172298 237.736999 
L 302.172298 237.212751 
L 333.168 237.212751 
L 333.168 237.212751 
" style="fill:none;stroke:#ff0000;stroke-linecap:square;stroke-width:1.5;"/>
   </g>
   <g id="line2d_62">
    <defs>
     <path d="M 0 -6 
L -5.196152 -3 
L -5.196152 3 
L -0 6 
L 5.196152 3 
L 5.196152 -3 
z
" id="m35e99b95b2" style="stroke:#ff0000;stroke-linejoin:miter;stroke-width:1.5;"/>
    </defs>
    <g>
     <use style="fill:none;stroke:#ff0000;stroke-linejoin:miter;stroke-width:1.5;" x="137.346876" xlink:href="#m35e99b95b2" y="275.482834"/>
     <use style="fill:none;stroke:#ff0000;stroke-linejoin:miter;stroke-width:1.5;" x="188.495421" xlink:href="#m35e99b95b2" y="259.231155"/>
     <use style="fill:none;stroke:#ff0000;stroke-linejoin:miter;stroke-width:1.5;" x="253.596248" xlink:href="#m35e99b95b2" y="248.221953"/>
     <use style="fill:none;stroke:#ff0000;stroke-linejoin:miter;stroke-width:1.5;" x="302.172298" xlink:href="#m35e99b95b2" y="237.212751"/>
     <use style="fill:none;stroke:#ff0000;stroke-linejoin:miter;stroke-width:1.5;" x="333.168" xlink:href="#m35e99b95b2" y="237.212751"/>
    </g>
   </g>
   <g id="line2d_63">
    <path style="fill:none;stroke:#ff0000;stroke-linecap:square;stroke-width:1.5;"/>
    <g/>
   </g>
   <g id="line2d_64">
    <path clip-path="url(#paf139edcbb)" d="M 242.097521 250.843192 
" style="fill:none;stroke:#ff0000;stroke-linecap:square;stroke-width:1.5;"/>
    <defs>
     <path d="M -12 12 
L 12 -12 
M -12 -12 
L 12 12 
" id="me217217cef" style="stroke:#ff0000;"/>
    </defs>
    <g clip-path="url(#paf139edcbb)">
     <use style="fill:#ff0000;stroke:#ff0000;" x="242.097521" xlink:href="#me217217cef" y="250.843192"/>
    </g>
   </g>
   <g id="line2d_65">
    <path d="M 333.168 289.637523 
L 363.64328 289.532673 
" style="fill:none;stroke:#000080;stroke-linecap:square;stroke-width:1.5;"/>
    <g>
     <use style="fill:none;stroke:#000080;stroke-width:1.5;" x="333.168" xlink:href="#m8d0ce9e106" y="289.637523"/>
     <use style="fill:none;stroke:#000080;stroke-width:1.5;" x="363.64328" xlink:href="#m8d0ce9e106" y="289.532673"/>
    </g>
   </g>
   <g id="line2d_66">
    <path d="M 333.168 273.910091 
L 363.64328 238.198337 
" style="fill:none;stroke:#ff00ff;stroke-linecap:square;stroke-width:1.5;"/>
    <g>
     <use style="fill:none;stroke:#ff00ff;stroke-linejoin:miter;stroke-width:1.5;" x="333.168" xlink:href="#m10d0f16807" y="273.910091"/>
     <use style="fill:none;stroke:#ff00ff;stroke-linejoin:miter;stroke-width:1.5;" x="363.64328" xlink:href="#m10d0f16807" y="238.198337"/>
    </g>
   </g>
   <g id="line2d_67">
    <path d="M 333.168 237.212751 
L 363.64328 186.864 
" style="fill:none;stroke:#ff0000;stroke-linecap:square;stroke-width:1.5;"/>
    <g>
     <use style="fill:none;stroke:#ff0000;stroke-linejoin:miter;stroke-width:1.5;" x="333.168" xlink:href="#m35e99b95b2" y="237.212751"/>
     <use style="fill:none;stroke:#ff0000;stroke-linejoin:miter;stroke-width:1.5;" x="363.64328" xlink:href="#m35e99b95b2" y="186.864"/>
    </g>
   </g>
   <g id="line2d_68">
    <path d="M 333.168 27.513663 
L 363.64328 135.529663 
" style="fill:none;stroke:#6495ed;stroke-linecap:square;stroke-width:1.5;"/>
    <g>
     <use style="fill:none;stroke:#6495ed;stroke-linejoin:miter;stroke-width:1.5;" x="333.168" xlink:href="#mbf03780628" y="27.513663"/>
     <use style="fill:none;stroke:#6495ed;stroke-linejoin:miter;stroke-width:1.5;" x="363.64328" xlink:href="#mbf03780628" y="135.529663"/>
    </g>
   </g>
   <g id="line2d_69">
    <path d="M 333.168 27.513663 
L 363.64328 84.195327 
" style="fill:none;stroke:#ff7500;stroke-linecap:square;stroke-width:1.5;"/>
    <g>
     <use style="fill:none;stroke:#ff7500;stroke-linejoin:bevel;stroke-width:1.5;" x="333.168" xlink:href="#m2213bba23b" y="27.513663"/>
     <use style="fill:none;stroke:#ff7500;stroke-linejoin:bevel;stroke-width:1.5;" x="363.64328" xlink:href="#m2213bba23b" y="84.195327"/>
    </g>
   </g>
   <g id="line2d_70">
    <path d="M 333.168 294.88 
L 333.168 27.513663 
" style="fill:none;stroke:#000000;stroke-linecap:square;stroke-width:1.5;"/>
   </g>
   <g id="patch_3">
    <path d="M 56.12 294.88 
L 56.12 24.84 
" style="fill:none;stroke:#000000;stroke-linecap:square;stroke-linejoin:miter;stroke-width:0.8;"/>
   </g>
   <g id="patch_4">
    <path d="M 333.168 294.88 
L 333.168 24.84 
" style="fill:none;stroke:#000000;stroke-linecap:square;stroke-linejoin:miter;stroke-width:0.8;"/>
   </g>
   <g id="patch_5">
    <path d="M 56.12 294.88 
L 333.168 294.88 
" style="fill:none;stroke:#000000;stroke-linecap:square;stroke-linejoin:miter;stroke-width:0.8;"/>
   </g>
   <g id="patch_6">
    <path d="M 56.12 24.84 
L 333.168 24.84 
" style="fill:none;stroke:#000000;stroke-linecap:square;stroke-linejoin:miter;stroke-width:0.8;"/>
   </g>
   <g id="text_13">
    <!-- scipyAlg -->
    <defs>
     <path d="M 32.171875 -5.078125 
Q 28.375 -14.84375 24.75 -17.8125 
Q 21.140625 -20.796875 15.09375 -20.796875 
L 7.90625 -20.796875 
L 7.90625 -13.28125 
L 13.1875 -13.28125 
Q 16.890625 -13.28125 18.9375 -11.515625 
Q 21 -9.765625 23.484375 -3.21875 
L 25.09375 0.875 
L 2.984375 54.6875 
L 12.5 54.6875 
L 29.59375 11.921875 
L 46.6875 54.6875 
L 56.203125 54.6875 
z
" id="DejaVuSans-79"/>
     <path d="M 34.1875 63.1875 
L 20.796875 26.90625 
L 47.609375 26.90625 
z
M 28.609375 72.90625 
L 39.796875 72.90625 
L 67.578125 0 
L 57.328125 0 
L 50.6875 18.703125 
L 17.828125 18.703125 
L 11.1875 0 
L 0.78125 0 
z
" id="DejaVuSans-41"/>
    </defs>
    <g transform="translate(369.18424 294.223611)scale(0.17 -0.17)">
     <use xlink:href="#DejaVuSans-73"/>
     <use x="52.099609" xlink:href="#DejaVuSans-63"/>
     <use x="107.080078" xlink:href="#DejaVuSans-69"/>
     <use x="134.863281" xlink:href="#DejaVuSans-70"/>
     <use x="198.339844" xlink:href="#DejaVuSans-79"/>
     <use x="257.519531" xlink:href="#DejaVuSans-41"/>
     <use x="325.927734" xlink:href="#DejaVuSans-6c"/>
     <use x="353.710938" xlink:href="#DejaVuSans-67"/>
    </g>
   </g>
   <g id="text_14">
    <!-- CMA ES PP -->
    <defs>
     <path d="M 64.40625 67.28125 
L 64.40625 56.890625 
Q 59.421875 61.53125 53.78125 63.8125 
Q 48.140625 66.109375 41.796875 66.109375 
Q 29.296875 66.109375 22.65625 58.46875 
Q 16.015625 50.828125 16.015625 36.375 
Q 16.015625 21.96875 22.65625 14.328125 
Q 29.296875 6.6875 41.796875 6.6875 
Q 48.140625 6.6875 53.78125 8.984375 
Q 59.421875 11.28125 64.40625 15.921875 
L 64.40625 5.609375 
Q 59.234375 2.09375 53.4375 0.328125 
Q 47.65625 -1.421875 41.21875 -1.421875 
Q 24.65625 -1.421875 15.125 8.703125 
Q 5.609375 18.84375 5.609375 36.375 
Q 5.609375 53.953125 15.125 64.078125 
Q 24.65625 74.21875 41.21875 74.21875 
Q 47.75 74.21875 53.53125 72.484375 
Q 59.328125 70.75 64.40625 67.28125 
z
" id="DejaVuSans-43"/>
     <path d="M 9.8125 72.90625 
L 24.515625 72.90625 
L 43.109375 23.296875 
L 61.8125 72.90625 
L 76.515625 72.90625 
L 76.515625 0 
L 66.890625 0 
L 66.890625 64.015625 
L 48.09375 14.015625 
L 38.1875 14.015625 
L 19.390625 64.015625 
L 19.390625 0 
L 9.8125 0 
z
" id="DejaVuSans-4d"/>
     <path d="M 9.8125 72.90625 
L 55.90625 72.90625 
L 55.90625 64.59375 
L 19.671875 64.59375 
L 19.671875 43.015625 
L 54.390625 43.015625 
L 54.390625 34.71875 
L 19.671875 34.71875 
L 19.671875 8.296875 
L 56.78125 8.296875 
L 56.78125 0 
L 9.8125 0 
z
" id="DejaVuSans-45"/>
     <path d="M 53.515625 70.515625 
L 53.515625 60.890625 
Q 47.90625 63.578125 42.921875 64.890625 
Q 37.9375 66.21875 33.296875 66.21875 
Q 25.25 66.21875 20.875 63.09375 
Q 16.5 59.96875 16.5 54.203125 
Q 16.5 49.359375 19.40625 46.890625 
Q 22.3125 44.4375 30.421875 42.921875 
L 36.375 41.703125 
Q 47.40625 39.59375 52.65625 34.296875 
Q 57.90625 29 57.90625 20.125 
Q 57.90625 9.515625 50.796875 4.046875 
Q 43.703125 -1.421875 29.984375 -1.421875 
Q 24.8125 -1.421875 18.96875 -0.25 
Q 13.140625 0.921875 6.890625 3.21875 
L 6.890625 13.375 
Q 12.890625 10.015625 18.65625 8.296875 
Q 24.421875 6.59375 29.984375 6.59375 
Q 38.421875 6.59375 43.015625 9.90625 
Q 47.609375 13.234375 47.609375 19.390625 
Q 47.609375 24.75 44.3125 27.78125 
Q 41.015625 30.8125 33.5 32.328125 
L 27.484375 33.5 
Q 16.453125 35.6875 11.515625 40.375 
Q 6.59375 45.0625 6.59375 53.421875 
Q 6.59375 63.09375 13.40625 68.65625 
Q 20.21875 74.21875 32.171875 74.21875 
Q 37.3125 74.21875 42.625 73.28125 
Q 47.953125 72.359375 53.515625 70.515625 
z
" id="DejaVuSans-53"/>
     <path d="M 19.671875 64.796875 
L 19.671875 37.40625 
L 32.078125 37.40625 
Q 38.96875 37.40625 42.71875 40.96875 
Q 46.484375 44.53125 46.484375 51.125 
Q 46.484375 57.671875 42.71875 61.234375 
Q 38.96875 64.796875 32.078125 64.796875 
z
M 9.8125 72.90625 
L 32.078125 72.90625 
Q 44.34375 72.90625 50.609375 67.359375 
Q 56.890625 61.8125 56.890625 51.125 
Q 56.890625 40.328125 50.609375 34.8125 
Q 44.34375 29.296875 32.078125 29.296875 
L 19.671875 29.296875 
L 19.671875 0 
L 9.8125 0 
z
" id="DejaVuSans-50"/>
    </defs>
    <g transform="translate(369.18424 242.889274)scale(0.17 -0.17)">
     <use xlink:href="#DejaVuSans-43"/>
     <use x="69.824219" xlink:href="#DejaVuSans-4d"/>
     <use x="156.103516" xlink:href="#DejaVuSans-41"/>
     <use x="224.511719" xlink:href="#DejaVuSans-20"/>
     <use x="256.298828" xlink:href="#DejaVuSans-45"/>
     <use x="319.482422" xlink:href="#DejaVuSans-53"/>
     <use x="382.958984" xlink:href="#DejaVuSans-20"/>
     <use x="414.746094" xlink:href="#DejaVuSans-50"/>
     <use x="475.048828" xlink:href="#DejaVuSans-50"/>
    </g>
   </g>
   <g id="text_15">
    <!-- CMAES pos -->
    <g transform="translate(369.18424 191.554937)scale(0.17 -0.17)">
     <use xlink:href="#DejaVuSans-43"/>
     <use x="69.824219" xlink:href="#DejaVuSans-4d"/>
     <use x="156.103516" xlink:href="#DejaVuSans-41"/>
     <use x="224.511719" xlink:href="#DejaVuSans-45"/>
     <use x="287.695312" xlink:href="#DejaVuSans-53"/>
     <use x="351.171875" xlink:href="#DejaVuSans-20"/>
     <use x="382.958984" xlink:href="#DejaVuSans-70"/>
     <use x="446.435547" xlink:href="#DejaVuSans-6f"/>
     <use x="507.617188" xlink:href="#DejaVuSans-73"/>
    </g>
   </g>
   <g id="text_16">
    <!-- IPOP-CMA- -->
    <defs>
     <path d="M 9.8125 72.90625 
L 19.671875 72.90625 
L 19.671875 0 
L 9.8125 0 
z
" id="DejaVuSans-49"/>
     <path d="M 39.40625 66.21875 
Q 28.65625 66.21875 22.328125 58.203125 
Q 16.015625 50.203125 16.015625 36.375 
Q 16.015625 22.609375 22.328125 14.59375 
Q 28.65625 6.59375 39.40625 6.59375 
Q 50.140625 6.59375 56.421875 14.59375 
Q 62.703125 22.609375 62.703125 36.375 
Q 62.703125 50.203125 56.421875 58.203125 
Q 50.140625 66.21875 39.40625 66.21875 
z
M 39.40625 74.21875 
Q 54.734375 74.21875 63.90625 63.9375 
Q 73.09375 53.65625 73.09375 36.375 
Q 73.09375 19.140625 63.90625 8.859375 
Q 54.734375 -1.421875 39.40625 -1.421875 
Q 24.03125 -1.421875 14.8125 8.828125 
Q 5.609375 19.09375 5.609375 36.375 
Q 5.609375 53.65625 14.8125 63.9375 
Q 24.03125 74.21875 39.40625 74.21875 
z
" id="DejaVuSans-4f"/>
    </defs>
    <g transform="translate(369.18424 140.220601)scale(0.17 -0.17)">
     <use xlink:href="#DejaVuSans-49"/>
     <use x="29.492188" xlink:href="#DejaVuSans-50"/>
     <use x="89.794922" xlink:href="#DejaVuSans-4f"/>
     <use x="168.505859" xlink:href="#DejaVuSans-50"/>
     <use x="228.777344" xlink:href="#DejaVuSans-2d"/>
     <use x="264.861328" xlink:href="#DejaVuSans-43"/>
     <use x="334.685547" xlink:href="#DejaVuSans-4d"/>
     <use x="420.964844" xlink:href="#DejaVuSans-41"/>
     <use x="489.341797" xlink:href="#DejaVuSans-2d"/>
    </g>
   </g>
   <g id="text_17">
    <!-- IPOP-ACTC -->
    <defs>
     <path d="M -0.296875 72.90625 
L 61.375 72.90625 
L 61.375 64.59375 
L 35.5 64.59375 
L 35.5 0 
L 25.59375 0 
L 25.59375 64.59375 
L -0.296875 64.59375 
z
" id="DejaVuSans-54"/>
    </defs>
    <g transform="translate(369.18424 88.886264)scale(0.17 -0.17)">
     <use xlink:href="#DejaVuSans-49"/>
     <use x="29.492188" xlink:href="#DejaVuSans-50"/>
     <use x="89.794922" xlink:href="#DejaVuSans-4f"/>
     <use x="168.505859" xlink:href="#DejaVuSans-50"/>
     <use x="228.777344" xlink:href="#DejaVuSans-2d"/>
     <use x="264.830078" xlink:href="#DejaVuSans-41"/>
     <use x="333.222656" xlink:href="#DejaVuSans-43"/>
     <use x="403.046875" xlink:href="#DejaVuSans-54"/>
     <use x="464.052734" xlink:href="#DejaVuSans-43"/>
    </g>
   </g>
   <g id="text_18">
    <!-- best 2009 -->
    <defs>
     <path d="M 48.6875 27.296875 
Q 48.6875 37.203125 44.609375 42.84375 
Q 40.53125 48.484375 33.40625 48.484375 
Q 26.265625 48.484375 22.1875 42.84375 
Q 18.109375 37.203125 18.109375 27.296875 
Q 18.109375 17.390625 22.1875 11.75 
Q 26.265625 6.109375 33.40625 6.109375 
Q 40.53125 6.109375 44.609375 11.75 
Q 48.6875 17.390625 48.6875 27.296875 
z
M 18.109375 46.390625 
Q 20.953125 51.265625 25.265625 53.625 
Q 29.59375 56 35.59375 56 
Q 45.5625 56 51.78125 48.09375 
Q 58.015625 40.1875 58.015625 27.296875 
Q 58.015625 14.40625 51.78125 6.484375 
Q 45.5625 -1.421875 35.59375 -1.421875 
Q 29.59375 -1.421875 25.265625 0.953125 
Q 20.953125 3.328125 18.109375 8.203125 
L 18.109375 0 
L 9.078125 0 
L 9.078125 75.984375 
L 18.109375 75.984375 
z
" id="DejaVuSans-62"/>
     <path d="M 10.984375 1.515625 
L 10.984375 10.5 
Q 14.703125 8.734375 18.5 7.8125 
Q 22.3125 6.890625 25.984375 6.890625 
Q 35.75 6.890625 40.890625 13.453125 
Q 46.046875 20.015625 46.78125 33.40625 
Q 43.953125 29.203125 39.59375 26.953125 
Q 35.25 24.703125 29.984375 24.703125 
Q 19.046875 24.703125 12.671875 31.3125 
Q 6.296875 37.9375 6.296875 49.421875 
Q 6.296875 60.640625 12.9375 67.421875 
Q 19.578125 74.21875 30.609375 74.21875 
Q 43.265625 74.21875 49.921875 64.515625 
Q 56.59375 54.828125 56.59375 36.375 
Q 56.59375 19.140625 48.40625 8.859375 
Q 40.234375 -1.421875 26.421875 -1.421875 
Q 22.703125 -1.421875 18.890625 -0.6875 
Q 15.09375 0.046875 10.984375 1.515625 
z
M 30.609375 32.421875 
Q 37.25 32.421875 41.125 36.953125 
Q 45.015625 41.5 45.015625 49.421875 
Q 45.015625 57.28125 41.125 61.84375 
Q 37.25 66.40625 30.609375 66.40625 
Q 23.96875 66.40625 20.09375 61.84375 
Q 16.21875 57.28125 16.21875 49.421875 
Q 16.21875 41.5 20.09375 36.953125 
Q 23.96875 32.421875 30.609375 32.421875 
z
" id="DejaVuSans-39"/>
    </defs>
    <g transform="translate(369.18424 37.551928)scale(0.17 -0.17)">
     <use xlink:href="#DejaVuSans-62"/>
     <use x="63.476562" xlink:href="#DejaVuSans-65"/>
     <use x="125" xlink:href="#DejaVuSans-73"/>
     <use x="177.099609" xlink:href="#DejaVuSans-74"/>
     <use x="216.308594" xlink:href="#DejaVuSans-20"/>
     <use x="248.095703" xlink:href="#DejaVuSans-32"/>
     <use x="311.71875" xlink:href="#DejaVuSans-30"/>
     <use x="375.341797" xlink:href="#DejaVuSans-30"/>
     <use x="438.964844" xlink:href="#DejaVuSans-39"/>
    </g>
   </g>
   <g id="text_19">
    <!-- bbob f15, 10-D -->
    <defs>
     <path d="M 10.796875 72.90625 
L 49.515625 72.90625 
L 49.515625 64.59375 
L 19.828125 64.59375 
L 19.828125 46.734375 
Q 21.96875 47.46875 24.109375 47.828125 
Q 26.265625 48.1875 28.421875 48.1875 
Q 40.625 48.1875 47.75 41.5 
Q 54.890625 34.8125 54.890625 23.390625 
Q 54.890625 11.625 47.5625 5.09375 
Q 40.234375 -1.421875 26.90625 -1.421875 
Q 22.3125 -1.421875 17.546875 -0.640625 
Q 12.796875 0.140625 7.71875 1.703125 
L 7.71875 11.625 
Q 12.109375 9.234375 16.796875 8.0625 
Q 21.484375 6.890625 26.703125 6.890625 
Q 35.15625 6.890625 40.078125 11.328125 
Q 45.015625 15.765625 45.015625 23.390625 
Q 45.015625 31 40.078125 35.4375 
Q 35.15625 39.890625 26.703125 39.890625 
Q 22.75 39.890625 18.8125 39.015625 
Q 14.890625 38.140625 10.796875 36.28125 
z
" id="DejaVuSans-35"/>
     <path d="M 19.671875 64.796875 
L 19.671875 8.109375 
L 31.59375 8.109375 
Q 46.6875 8.109375 53.6875 14.9375 
Q 60.6875 21.78125 60.6875 36.53125 
Q 60.6875 51.171875 53.6875 57.984375 
Q 46.6875 64.796875 31.59375 64.796875 
z
M 9.8125 72.90625 
L 30.078125 72.90625 
Q 51.265625 72.90625 61.171875 64.09375 
Q 71.09375 55.28125 71.09375 36.53125 
Q 71.09375 17.671875 61.125 8.828125 
Q 51.171875 0 30.078125 0 
L 9.8125 0 
z
" id="DejaVuSans-44"/>
    </defs>
    <g transform="translate(58.89048 35.290806)scale(0.102 -0.102)">
     <use xlink:href="#DejaVuSans-62"/>
     <use x="63.476562" xlink:href="#DejaVuSans-62"/>
     <use x="126.953125" xlink:href="#DejaVuSans-6f"/>
     <use x="188.134766" xlink:href="#DejaVuSans-62"/>
     <use x="251.611328" xlink:href="#DejaVuSans-20"/>
     <use x="283.398438" xlink:href="#DejaVuSans-66"/>
     <use x="318.603516" xlink:href="#DejaVuSans-31"/>
     <use x="382.226562" xlink:href="#DejaVuSans-35"/>
     <use x="445.849609" xlink:href="#DejaVuSans-2c"/>
     <use x="477.636719" xlink:href="#DejaVuSans-20"/>
     <use x="509.423828" xlink:href="#DejaVuSans-31"/>
     <use x="573.046875" xlink:href="#DejaVuSans-30"/>
     <use x="636.669922" xlink:href="#DejaVuSans-2d"/>
     <use x="672.753906" xlink:href="#DejaVuSans-44"/>
    </g>
    <!-- 51 targets: 100..1e-08 -->
    <defs>
     <path d="M 11.71875 12.40625 
L 22.015625 12.40625 
L 22.015625 0 
L 11.71875 0 
z
M 11.71875 51.703125 
L 22.015625 51.703125 
L 22.015625 39.3125 
L 11.71875 39.3125 
z
" id="DejaVuSans-3a"/>
    </defs>
    <g transform="translate(58.89048 46.712575)scale(0.102 -0.102)">
     <use xlink:href="#DejaVuSans-35"/>
     <use x="63.623047" xlink:href="#DejaVuSans-31"/>
     <use x="127.246094" xlink:href="#DejaVuSans-20"/>
     <use x="159.033203" xlink:href="#DejaVuSans-74"/>
     <use x="198.242188" xlink:href="#DejaVuSans-61"/>
     <use x="259.521484" xlink:href="#DejaVuSans-72"/>
     <use x="300.619141" xlink:href="#DejaVuSans-67"/>
     <use x="364.095703" xlink:href="#DejaVuSans-65"/>
     <use x="425.619141" xlink:href="#DejaVuSans-74"/>
     <use x="464.828125" xlink:href="#DejaVuSans-73"/>
     <use x="516.927734" xlink:href="#DejaVuSans-3a"/>
     <use x="550.619141" xlink:href="#DejaVuSans-20"/>
     <use x="582.40625" xlink:href="#DejaVuSans-31"/>
     <use x="646.029297" xlink:href="#DejaVuSans-30"/>
     <use x="709.652344" xlink:href="#DejaVuSans-30"/>
     <use x="773.275391" xlink:href="#DejaVuSans-2e"/>
     <use x="805.0625" xlink:href="#DejaVuSans-2e"/>
     <use x="836.849609" xlink:href="#DejaVuSans-31"/>
     <use x="900.472656" xlink:href="#DejaVuSans-65"/>
     <use x="961.996094" xlink:href="#DejaVuSans-2d"/>
     <use x="998.080078" xlink:href="#DejaVuSans-30"/>
     <use x="1061.703125" xlink:href="#DejaVuSans-38"/>
    </g>
    <!-- 15 instances -->
    <g transform="translate(58.89048 58.134344)scale(0.102 -0.102)">
     <use xlink:href="#DejaVuSans-31"/>
     <use x="63.623047" xlink:href="#DejaVuSans-35"/>
     <use x="127.246094" xlink:href="#DejaVuSans-20"/>
     <use x="159.033203" xlink:href="#DejaVuSans-69"/>
     <use x="186.816406" xlink:href="#DejaVuSans-6e"/>
     <use x="250.195312" xlink:href="#DejaVuSans-73"/>
     <use x="302.294922" xlink:href="#DejaVuSans-74"/>
     <use x="341.503906" xlink:href="#DejaVuSans-61"/>
     <use x="402.783203" xlink:href="#DejaVuSans-6e"/>
     <use x="466.162109" xlink:href="#DejaVuSans-63"/>
     <use x="521.142578" xlink:href="#DejaVuSans-65"/>
     <use x="582.666016" xlink:href="#DejaVuSans-73"/>
    </g>
   </g>
   <g id="text_20">
    <!-- v0.0.0 -->
    <g style="fill:#808080;" transform="translate(178.96275 290.099912)scale(0.1 -0.1)">
     <use xlink:href="#DejaVuSans-76"/>
     <use x="59.179688" xlink:href="#DejaVuSans-30"/>
     <use x="122.802734" xlink:href="#DejaVuSans-2e"/>
     <use x="154.589844" xlink:href="#DejaVuSans-30"/>
     <use x="218.212891" xlink:href="#DejaVuSans-2e"/>
     <use x="250" xlink:href="#DejaVuSans-30"/>
    </g>
   </g>
   <g id="text_21">
    <!-- 15 Rastrigin -->
    <defs>
     <path d="M 44.390625 34.1875 
Q 47.5625 33.109375 50.5625 29.59375 
Q 53.5625 26.078125 56.59375 19.921875 
L 66.609375 0 
L 56 0 
L 46.6875 18.703125 
Q 43.0625 26.03125 39.671875 28.421875 
Q 36.28125 30.8125 30.421875 30.8125 
L 19.671875 30.8125 
L 19.671875 0 
L 9.8125 0 
L 9.8125 72.90625 
L 32.078125 72.90625 
Q 44.578125 72.90625 50.734375 67.671875 
Q 56.890625 62.453125 56.890625 51.90625 
Q 56.890625 45.015625 53.6875 40.46875 
Q 50.484375 35.9375 44.390625 34.1875 
z
M 19.671875 64.796875 
L 19.671875 38.921875 
L 32.078125 38.921875 
Q 39.203125 38.921875 42.84375 42.21875 
Q 46.484375 45.515625 46.484375 51.90625 
Q 46.484375 58.296875 42.84375 61.546875 
Q 39.203125 64.796875 32.078125 64.796875 
z
" id="DejaVuSans-52"/>
    </defs>
    <g transform="translate(134.184625 18.84)scale(0.2 -0.2)">
     <use xlink:href="#DejaVuSans-31"/>
     <use x="63.623047" xlink:href="#DejaVuSans-35"/>
     <use x="127.246094" xlink:href="#DejaVuSans-20"/>
     <use x="159.033203" xlink:href="#DejaVuSans-52"/>
     <use x="228.484375" xlink:href="#DejaVuSans-61"/>
     <use x="289.763672" xlink:href="#DejaVuSans-73"/>
     <use x="341.863281" xlink:href="#DejaVuSans-74"/>
     <use x="381.072266" xlink:href="#DejaVuSans-72"/>
     <use x="422.185547" xlink:href="#DejaVuSans-69"/>
     <use x="449.96875" xlink:href="#DejaVuSans-67"/>
     <use x="513.445312" xlink:href="#DejaVuSans-69"/>
     <use x="541.228516" xlink:href="#DejaVuSans-6e"/>
    </g>
   </g>
  </g>
 </g>
 <defs>
  <clipPath id="paf139edcbb">
   <rect height="270.04" width="277.048" x="56.12" y="24.84"/>
  </clipPath>
 </defs>
</svg>
