<?xml version="1.0" encoding="utf-8" standalone="no"?>
<!DOCTYPE svg PUBLIC "-//W3C//DTD SVG 1.1//EN"
  "http://www.w3.org/Graphics/SVG/1.1/DTD/svg11.dtd">
<!-- Created with matplotlib (http://matplotlib.org/) -->
<svg height="345pt" version="1.1" viewBox="0 0 460 345" width="460pt" xmlns="http://www.w3.org/2000/svg" xmlns:xlink="http://www.w3.org/1999/xlink">
 <defs>
  <style type="text/css">
*{stroke-linecap:butt;stroke-linejoin:round;}
  </style>
 </defs>
 <g id="figure_1">
  <g id="patch_1">
   <path d="M 0 345.6 
L 460.8 345.6 
L 460.8 0 
L 0 0 
z
" style="fill:#ffffff;"/>
  </g>
  <g id="axes_1">
   <g id="patch_2">
    <path d="M 56.12 294.88 
L 333.168 294.88 
L 333.168 24.84 
L 56.12 24.84 
z
" style="fill:#ffffff;"/>
   </g>
   <g id="line2d_1">
    <path d="M 159.207897 294.88 
L 159.207897 289.637523 
L 161.442812 289.637523 
L 161.442812 284.395046 
L 163.623844 284.395046 
L 163.623844 279.152568 
L 164.866303 279.152568 
L 164.866303 273.910091 
L 166.133092 273.910091 
L 166.133092 268.667614 
L 167.140767 268.667614 
L 167.140767 263.425137 
L 167.605605 263.425137 
L 167.605605 258.18266 
L 168.346752 258.18266 
L 168.346752 252.940182 
L 168.974574 252.940182 
L 168.974574 247.697705 
L 169.4189 247.697705 
L 169.4189 242.455228 
L 169.773089 242.455228 
L 169.773089 237.212751 
L 170.366819 237.212751 
L 170.366819 231.970274 
L 170.931007 231.970274 
L 170.931007 226.727797 
L 171.229668 226.727797 
L 171.229668 221.485319 
L 171.471509 221.485319 
L 171.471509 216.242842 
L 172.888456 216.242842 
L 172.888456 211.000365 
L 173.348622 211.000365 
L 173.348622 205.757888 
L 174.767835 205.757888 
L 174.767835 200.515411 
L 178.6177 200.515411 
L 178.6177 195.272933 
L 178.974731 195.272933 
L 178.974731 190.030456 
L 179.224811 190.030456 
L 179.224811 184.787979 
L 179.547677 184.787979 
L 179.547677 179.545502 
L 179.868122 179.545502 
L 179.868122 174.303025 
L 180.125874 174.303025 
L 180.125874 169.060547 
L 180.414992 169.060547 
L 180.414992 163.81807 
L 180.640503 163.81807 
L 180.640503 158.575593 
L 180.925992 158.575593 
L 180.925992 153.333116 
L 181.191369 153.333116 
L 181.191369 148.090639 
L 181.485466 148.090639 
L 181.485466 142.848162 
L 181.720805 142.848162 
L 181.720805 137.605684 
L 182.012007 137.605684 
L 182.012007 132.363207 
L 182.249797 132.363207 
L 182.249797 127.12073 
L 182.490683 127.12073 
L 182.490683 121.878253 
L 182.747798 121.878253 
L 182.747798 116.635776 
L 183.027053 116.635776 
L 183.027053 111.393298 
L 183.233887 111.393298 
L 183.233887 106.150821 
L 183.478378 106.150821 
L 183.478378 100.908344 
L 183.712768 100.908344 
L 183.712768 95.665867 
L 183.972344 95.665867 
L 183.972344 90.42339 
L 184.174421 90.42339 
L 184.174421 85.180912 
L 184.410171 85.180912 
L 184.410171 79.938435 
L 184.58891 79.938435 
L 184.58891 74.695958 
L 184.609143 74.695958 
L 184.609143 69.453481 
L 184.633245 69.453481 
L 184.633245 64.211004 
L 184.655127 64.211004 
L 184.655127 58.968526 
L 184.67504 58.968526 
L 184.67504 53.726049 
L 184.695414 53.726049 
L 184.695414 48.483572 
L 184.718669 48.483572 
L 184.718669 43.241095 
L 184.740201 43.241095 
L 184.740201 37.998618 
L 184.760981 37.998618 
L 184.760981 32.756141 
L 184.785836 32.756141 
L 184.785836 27.513663 
L 333.168 27.513663 
" style="fill:none;stroke:#f5deb3;stroke-linecap:square;stroke-width:4;"/>
   </g>
   <g id="line2d_2">
    <defs>
     <path d="M -0 7.778175 
L 7.778175 0 
L 0 -7.778175 
L -7.778175 -0 
z
" id="mcb6b4f241d" style="stroke:#f5deb3;stroke-linejoin:miter;stroke-width:1.5;"/>
    </defs>
    <g>
     <use style="fill:#f5deb3;stroke:#f5deb3;stroke-linejoin:miter;stroke-width:1.5;" x="184.740201" xlink:href="#mcb6b4f241d" y="43.241095"/>
     <use style="fill:#f5deb3;stroke:#f5deb3;stroke-linejoin:miter;stroke-width:1.5;" x="184.785836" xlink:href="#mcb6b4f241d" y="27.513663"/>
     <use style="fill:#f5deb3;stroke:#f5deb3;stroke-linejoin:miter;stroke-width:1.5;" x="184.785836" xlink:href="#mcb6b4f241d" y="27.513663"/>
     <use style="fill:#f5deb3;stroke:#f5deb3;stroke-linejoin:miter;stroke-width:1.5;" x="333.168" xlink:href="#mcb6b4f241d" y="27.513663"/>
    </g>
   </g>
   <g id="line2d_3">
    <path style="fill:none;stroke:#f5deb3;stroke-linecap:square;stroke-width:4;"/>
    <g/>
   </g>
   <g id="line2d_4">
    <path d="M 333.168 27.513663 
L 363.64328 84.195327 
" style="fill:none;stroke:#f5deb3;stroke-linecap:square;stroke-width:4;"/>
    <g>
     <use style="fill:#f5deb3;stroke:#f5deb3;stroke-linejoin:miter;stroke-width:1.5;" x="333.168" xlink:href="#mcb6b4f241d" y="27.513663"/>
     <use style="fill:#f5deb3;stroke:#f5deb3;stroke-linejoin:miter;stroke-width:1.5;" x="363.64328" xlink:href="#mcb6b4f241d" y="84.195327"/>
    </g>
   </g>
   <g id="matplotlib.axis_1">
    <g id="xtick_1">
     <g id="line2d_5">
      <path clip-path="url(#p6666c13e75)" d="M 56.12 294.88 
L 56.12 24.84 
" style="fill:none;stroke:#b0b0b0;stroke-linecap:square;stroke-width:0.8;"/>
     </g>
     <g id="line2d_6">
      <defs>
       <path d="M 0 0 
L 0 3.5 
" id="m634385f6fe" style="stroke:#000000;stroke-width:0.8;"/>
      </defs>
      <g>
       <use style="stroke:#000000;stroke-width:0.8;" x="56.12" xlink:href="#m634385f6fe" y="294.88"/>
      </g>
     </g>
     <g id="text_1">
      <!-- 0 -->
      <defs>
       <path d="M 31.78125 66.40625 
Q 24.171875 66.40625 20.328125 58.90625 
Q 16.5 51.421875 16.5 36.375 
Q 16.5 21.390625 20.328125 13.890625 
Q 24.171875 6.390625 31.78125 6.390625 
Q 39.453125 6.390625 43.28125 13.890625 
Q 47.125 21.390625 47.125 36.375 
Q 47.125 51.421875 43.28125 58.90625 
Q 39.453125 66.40625 31.78125 66.40625 
z
M 31.78125 74.21875 
Q 44.046875 74.21875 50.515625 64.515625 
Q 56.984375 54.828125 56.984375 36.375 
Q 56.984375 17.96875 50.515625 8.265625 
Q 44.046875 -1.421875 31.78125 -1.421875 
Q 19.53125 -1.421875 13.0625 8.265625 
Q 6.59375 17.96875 6.59375 36.375 
Q 6.59375 54.828125 13.0625 64.515625 
Q 19.53125 74.21875 31.78125 74.21875 
z
" id="DejaVuSans-30"/>
      </defs>
      <g transform="translate(49.7575 317.076875)scale(0.2 -0.2)">
       <use xlink:href="#DejaVuSans-30"/>
      </g>
     </g>
    </g>
    <g id="xtick_2">
     <g id="line2d_7">
      <path clip-path="url(#p6666c13e75)" d="M 135.276571 294.88 
L 135.276571 24.84 
" style="fill:none;stroke:#b0b0b0;stroke-linecap:square;stroke-width:0.8;"/>
     </g>
     <g id="line2d_8">
      <g>
       <use style="stroke:#000000;stroke-width:0.8;" x="135.276571" xlink:href="#m634385f6fe" y="294.88"/>
      </g>
     </g>
     <g id="text_2">
      <!-- 2 -->
      <defs>
       <path d="M 19.1875 8.296875 
L 53.609375 8.296875 
L 53.609375 0 
L 7.328125 0 
L 7.328125 8.296875 
Q 12.9375 14.109375 22.625 23.890625 
Q 32.328125 33.6875 34.8125 36.53125 
Q 39.546875 41.84375 41.421875 45.53125 
Q 43.3125 49.21875 43.3125 52.78125 
Q 43.3125 58.59375 39.234375 62.25 
Q 35.15625 65.921875 28.609375 65.921875 
Q 23.96875 65.921875 18.8125 64.3125 
Q 13.671875 62.703125 7.8125 59.421875 
L 7.8125 69.390625 
Q 13.765625 71.78125 18.9375 73 
Q 24.125 74.21875 28.421875 74.21875 
Q 39.75 74.21875 46.484375 68.546875 
Q 53.21875 62.890625 53.21875 53.421875 
Q 53.21875 48.921875 51.53125 44.890625 
Q 49.859375 40.875 45.40625 35.40625 
Q 44.1875 33.984375 37.640625 27.21875 
Q 31.109375 20.453125 19.1875 8.296875 
z
" id="DejaVuSans-32"/>
      </defs>
      <g transform="translate(128.914071 317.076875)scale(0.2 -0.2)">
       <use xlink:href="#DejaVuSans-32"/>
      </g>
     </g>
    </g>
    <g id="xtick_3">
     <g id="line2d_9">
      <path clip-path="url(#p6666c13e75)" d="M 214.433143 294.88 
L 214.433143 24.84 
" style="fill:none;stroke:#b0b0b0;stroke-linecap:square;stroke-width:0.8;"/>
     </g>
     <g id="line2d_10">
      <g>
       <use style="stroke:#000000;stroke-width:0.8;" x="214.433143" xlink:href="#m634385f6fe" y="294.88"/>
      </g>
     </g>
     <g id="text_3">
      <!-- 4 -->
      <defs>
       <path d="M 37.796875 64.3125 
L 12.890625 25.390625 
L 37.796875 25.390625 
z
M 35.203125 72.90625 
L 47.609375 72.90625 
L 47.609375 25.390625 
L 58.015625 25.390625 
L 58.015625 17.1875 
L 47.609375 17.1875 
L 47.609375 0 
L 37.796875 0 
L 37.796875 17.1875 
L 4.890625 17.1875 
L 4.890625 26.703125 
z
" id="DejaVuSans-34"/>
      </defs>
      <g transform="translate(208.070643 317.076875)scale(0.2 -0.2)">
       <use xlink:href="#DejaVuSans-34"/>
      </g>
     </g>
    </g>
    <g id="xtick_4">
     <g id="line2d_11">
      <path clip-path="url(#p6666c13e75)" d="M 293.589714 294.88 
L 293.589714 24.84 
" style="fill:none;stroke:#b0b0b0;stroke-linecap:square;stroke-width:0.8;"/>
     </g>
     <g id="line2d_12">
      <g>
       <use style="stroke:#000000;stroke-width:0.8;" x="293.589714" xlink:href="#m634385f6fe" y="294.88"/>
      </g>
     </g>
     <g id="text_4">
      <!-- 6 -->
      <defs>
       <path d="M 33.015625 40.375 
Q 26.375 40.375 22.484375 35.828125 
Q 18.609375 31.296875 18.609375 23.390625 
Q 18.609375 15.53125 22.484375 10.953125 
Q 26.375 6.390625 33.015625 6.390625 
Q 39.65625 6.390625 43.53125 10.953125 
Q 47.40625 15.53125 47.40625 23.390625 
Q 47.40625 31.296875 43.53125 35.828125 
Q 39.65625 40.375 33.015625 40.375 
z
M 52.59375 71.296875 
L 52.59375 62.3125 
Q 48.875 64.0625 45.09375 64.984375 
Q 41.3125 65.921875 37.59375 65.921875 
Q 27.828125 65.921875 22.671875 59.328125 
Q 17.53125 52.734375 16.796875 39.40625 
Q 19.671875 43.65625 24.015625 45.921875 
Q 28.375 48.1875 33.59375 48.1875 
Q 44.578125 48.1875 50.953125 41.515625 
Q 57.328125 34.859375 57.328125 23.390625 
Q 57.328125 12.15625 50.6875 5.359375 
Q 44.046875 -1.421875 33.015625 -1.421875 
Q 20.359375 -1.421875 13.671875 8.265625 
Q 6.984375 17.96875 6.984375 36.375 
Q 6.984375 53.65625 15.1875 63.9375 
Q 23.390625 74.21875 37.203125 74.21875 
Q 40.921875 74.21875 44.703125 73.484375 
Q 48.484375 72.75 52.59375 71.296875 
z
" id="DejaVuSans-36"/>
      </defs>
      <g transform="translate(287.227214 317.076875)scale(0.2 -0.2)">
       <use xlink:href="#DejaVuSans-36"/>
      </g>
     </g>
    </g>
    <g id="xtick_5">
     <g id="line2d_13">
      <path clip-path="url(#p6666c13e75)" d="M 56.12 294.88 
L 56.12 24.84 
" style="fill:none;stroke:#b0b0b0;stroke-linecap:square;stroke-width:0.8;"/>
     </g>
     <g id="line2d_14">
      <defs>
       <path d="M 0 0 
L 0 2 
" id="m041a6edd17" style="stroke:#000000;stroke-width:0.6;"/>
      </defs>
      <g>
       <use style="stroke:#000000;stroke-width:0.6;" x="56.12" xlink:href="#m041a6edd17" y="294.88"/>
      </g>
     </g>
    </g>
    <g id="xtick_6">
     <g id="line2d_15">
      <path clip-path="url(#p6666c13e75)" d="M 95.698286 294.88 
L 95.698286 24.84 
" style="fill:none;stroke:#b0b0b0;stroke-linecap:square;stroke-width:0.8;"/>
     </g>
     <g id="line2d_16">
      <g>
       <use style="stroke:#000000;stroke-width:0.6;" x="95.698286" xlink:href="#m041a6edd17" y="294.88"/>
      </g>
     </g>
    </g>
    <g id="xtick_7">
     <g id="line2d_17">
      <path clip-path="url(#p6666c13e75)" d="M 135.276571 294.88 
L 135.276571 24.84 
" style="fill:none;stroke:#b0b0b0;stroke-linecap:square;stroke-width:0.8;"/>
     </g>
     <g id="line2d_18">
      <g>
       <use style="stroke:#000000;stroke-width:0.6;" x="135.276571" xlink:href="#m041a6edd17" y="294.88"/>
      </g>
     </g>
    </g>
    <g id="xtick_8">
     <g id="line2d_19">
      <path clip-path="url(#p6666c13e75)" d="M 174.854857 294.88 
L 174.854857 24.84 
" style="fill:none;stroke:#b0b0b0;stroke-linecap:square;stroke-width:0.8;"/>
     </g>
     <g id="line2d_20">
      <g>
       <use style="stroke:#000000;stroke-width:0.6;" x="174.854857" xlink:href="#m041a6edd17" y="294.88"/>
      </g>
     </g>
    </g>
    <g id="xtick_9">
     <g id="line2d_21">
      <path clip-path="url(#p6666c13e75)" d="M 214.433143 294.88 
L 214.433143 24.84 
" style="fill:none;stroke:#b0b0b0;stroke-linecap:square;stroke-width:0.8;"/>
     </g>
     <g id="line2d_22">
      <g>
       <use style="stroke:#000000;stroke-width:0.6;" x="214.433143" xlink:href="#m041a6edd17" y="294.88"/>
      </g>
     </g>
    </g>
    <g id="xtick_10">
     <g id="line2d_23">
      <path clip-path="url(#p6666c13e75)" d="M 254.011429 294.88 
L 254.011429 24.84 
" style="fill:none;stroke:#b0b0b0;stroke-linecap:square;stroke-width:0.8;"/>
     </g>
     <g id="line2d_24">
      <g>
       <use style="stroke:#000000;stroke-width:0.6;" x="254.011429" xlink:href="#m041a6edd17" y="294.88"/>
      </g>
     </g>
    </g>
    <g id="xtick_11">
     <g id="line2d_25">
      <path clip-path="url(#p6666c13e75)" d="M 293.589714 294.88 
L 293.589714 24.84 
" style="fill:none;stroke:#b0b0b0;stroke-linecap:square;stroke-width:0.8;"/>
     </g>
     <g id="line2d_26">
      <g>
       <use style="stroke:#000000;stroke-width:0.6;" x="293.589714" xlink:href="#m041a6edd17" y="294.88"/>
      </g>
     </g>
    </g>
    <g id="xtick_12">
     <g id="line2d_27">
      <path clip-path="url(#p6666c13e75)" d="M 333.168 294.88 
L 333.168 24.84 
" style="fill:none;stroke:#b0b0b0;stroke-linecap:square;stroke-width:0.8;"/>
     </g>
     <g id="line2d_28">
      <g>
       <use style="stroke:#000000;stroke-width:0.6;" x="333.168" xlink:href="#m041a6edd17" y="294.88"/>
      </g>
     </g>
    </g>
    <g id="text_5">
     <!-- log10(# f-evals / dimension) -->
     <defs>
      <path d="M 9.421875 75.984375 
L 18.40625 75.984375 
L 18.40625 0 
L 9.421875 0 
z
" id="DejaVuSans-6c"/>
      <path d="M 30.609375 48.390625 
Q 23.390625 48.390625 19.1875 42.75 
Q 14.984375 37.109375 14.984375 27.296875 
Q 14.984375 17.484375 19.15625 11.84375 
Q 23.34375 6.203125 30.609375 6.203125 
Q 37.796875 6.203125 41.984375 11.859375 
Q 46.1875 17.53125 46.1875 27.296875 
Q 46.1875 37.015625 41.984375 42.703125 
Q 37.796875 48.390625 30.609375 48.390625 
z
M 30.609375 56 
Q 42.328125 56 49.015625 48.375 
Q 55.71875 40.765625 55.71875 27.296875 
Q 55.71875 13.875 49.015625 6.21875 
Q 42.328125 -1.421875 30.609375 -1.421875 
Q 18.84375 -1.421875 12.171875 6.21875 
Q 5.515625 13.875 5.515625 27.296875 
Q 5.515625 40.765625 12.171875 48.375 
Q 18.84375 56 30.609375 56 
z
" id="DejaVuSans-6f"/>
      <path d="M 45.40625 27.984375 
Q 45.40625 37.75 41.375 43.109375 
Q 37.359375 48.484375 30.078125 48.484375 
Q 22.859375 48.484375 18.828125 43.109375 
Q 14.796875 37.75 14.796875 27.984375 
Q 14.796875 18.265625 18.828125 12.890625 
Q 22.859375 7.515625 30.078125 7.515625 
Q 37.359375 7.515625 41.375 12.890625 
Q 45.40625 18.265625 45.40625 27.984375 
z
M 54.390625 6.78125 
Q 54.390625 -7.171875 48.1875 -13.984375 
Q 42 -20.796875 29.203125 -20.796875 
Q 24.46875 -20.796875 20.265625 -20.09375 
Q 16.0625 -19.390625 12.109375 -17.921875 
L 12.109375 -9.1875 
Q 16.0625 -11.328125 19.921875 -12.34375 
Q 23.78125 -13.375 27.78125 -13.375 
Q 36.625 -13.375 41.015625 -8.765625 
Q 45.40625 -4.15625 45.40625 5.171875 
L 45.40625 9.625 
Q 42.625 4.78125 38.28125 2.390625 
Q 33.9375 0 27.875 0 
Q 17.828125 0 11.671875 7.65625 
Q 5.515625 15.328125 5.515625 27.984375 
Q 5.515625 40.671875 11.671875 48.328125 
Q 17.828125 56 27.875 56 
Q 33.9375 56 38.28125 53.609375 
Q 42.625 51.21875 45.40625 46.390625 
L 45.40625 54.6875 
L 54.390625 54.6875 
z
" id="DejaVuSans-67"/>
      <path d="M 12.40625 8.296875 
L 28.515625 8.296875 
L 28.515625 63.921875 
L 10.984375 60.40625 
L 10.984375 69.390625 
L 28.421875 72.90625 
L 38.28125 72.90625 
L 38.28125 8.296875 
L 54.390625 8.296875 
L 54.390625 0 
L 12.40625 0 
z
" id="DejaVuSans-31"/>
      <path d="M 31 75.875 
Q 24.46875 64.65625 21.28125 53.65625 
Q 18.109375 42.671875 18.109375 31.390625 
Q 18.109375 20.125 21.3125 9.0625 
Q 24.515625 -2 31 -13.1875 
L 23.1875 -13.1875 
Q 15.875 -1.703125 12.234375 9.375 
Q 8.59375 20.453125 8.59375 31.390625 
Q 8.59375 42.28125 12.203125 53.3125 
Q 15.828125 64.359375 23.1875 75.875 
z
" id="DejaVuSans-28"/>
      <path d="M 51.125 44 
L 36.921875 44 
L 32.8125 27.6875 
L 47.125 27.6875 
z
M 43.796875 71.78125 
L 38.71875 51.515625 
L 52.984375 51.515625 
L 58.109375 71.78125 
L 65.921875 71.78125 
L 60.890625 51.515625 
L 76.125 51.515625 
L 76.125 44 
L 58.984375 44 
L 54.984375 27.6875 
L 70.515625 27.6875 
L 70.515625 20.21875 
L 53.078125 20.21875 
L 48 0 
L 40.1875 0 
L 45.21875 20.21875 
L 30.90625 20.21875 
L 25.875 0 
L 18.015625 0 
L 23.09375 20.21875 
L 7.71875 20.21875 
L 7.71875 27.6875 
L 24.90625 27.6875 
L 29 44 
L 13.28125 44 
L 13.28125 51.515625 
L 30.90625 51.515625 
L 35.890625 71.78125 
z
" id="DejaVuSans-23"/>
      <path id="DejaVuSans-20"/>
      <path d="M 37.109375 75.984375 
L 37.109375 68.5 
L 28.515625 68.5 
Q 23.6875 68.5 21.796875 66.546875 
Q 19.921875 64.59375 19.921875 59.515625 
L 19.921875 54.6875 
L 34.71875 54.6875 
L 34.71875 47.703125 
L 19.921875 47.703125 
L 19.921875 0 
L 10.890625 0 
L 10.890625 47.703125 
L 2.296875 47.703125 
L 2.296875 54.6875 
L 10.890625 54.6875 
L 10.890625 58.5 
Q 10.890625 67.625 15.140625 71.796875 
Q 19.390625 75.984375 28.609375 75.984375 
z
" id="DejaVuSans-66"/>
      <path d="M 4.890625 31.390625 
L 31.203125 31.390625 
L 31.203125 23.390625 
L 4.890625 23.390625 
z
" id="DejaVuSans-2d"/>
      <path d="M 56.203125 29.59375 
L 56.203125 25.203125 
L 14.890625 25.203125 
Q 15.484375 15.921875 20.484375 11.0625 
Q 25.484375 6.203125 34.421875 6.203125 
Q 39.59375 6.203125 44.453125 7.46875 
Q 49.3125 8.734375 54.109375 11.28125 
L 54.109375 2.78125 
Q 49.265625 0.734375 44.1875 -0.34375 
Q 39.109375 -1.421875 33.890625 -1.421875 
Q 20.796875 -1.421875 13.15625 6.1875 
Q 5.515625 13.8125 5.515625 26.8125 
Q 5.515625 40.234375 12.765625 48.109375 
Q 20.015625 56 32.328125 56 
Q 43.359375 56 49.78125 48.890625 
Q 56.203125 41.796875 56.203125 29.59375 
z
M 47.21875 32.234375 
Q 47.125 39.59375 43.09375 43.984375 
Q 39.0625 48.390625 32.421875 48.390625 
Q 24.90625 48.390625 20.390625 44.140625 
Q 15.875 39.890625 15.1875 32.171875 
z
" id="DejaVuSans-65"/>
      <path d="M 2.984375 54.6875 
L 12.5 54.6875 
L 29.59375 8.796875 
L 46.6875 54.6875 
L 56.203125 54.6875 
L 35.6875 0 
L 23.484375 0 
z
" id="DejaVuSans-76"/>
      <path d="M 34.28125 27.484375 
Q 23.390625 27.484375 19.1875 25 
Q 14.984375 22.515625 14.984375 16.5 
Q 14.984375 11.71875 18.140625 8.90625 
Q 21.296875 6.109375 26.703125 6.109375 
Q 34.1875 6.109375 38.703125 11.40625 
Q 43.21875 16.703125 43.21875 25.484375 
L 43.21875 27.484375 
z
M 52.203125 31.203125 
L 52.203125 0 
L 43.21875 0 
L 43.21875 8.296875 
Q 40.140625 3.328125 35.546875 0.953125 
Q 30.953125 -1.421875 24.3125 -1.421875 
Q 15.921875 -1.421875 10.953125 3.296875 
Q 6 8.015625 6 15.921875 
Q 6 25.140625 12.171875 29.828125 
Q 18.359375 34.515625 30.609375 34.515625 
L 43.21875 34.515625 
L 43.21875 35.40625 
Q 43.21875 41.609375 39.140625 45 
Q 35.0625 48.390625 27.6875 48.390625 
Q 23 48.390625 18.546875 47.265625 
Q 14.109375 46.140625 10.015625 43.890625 
L 10.015625 52.203125 
Q 14.9375 54.109375 19.578125 55.046875 
Q 24.21875 56 28.609375 56 
Q 40.484375 56 46.34375 49.84375 
Q 52.203125 43.703125 52.203125 31.203125 
z
" id="DejaVuSans-61"/>
      <path d="M 44.28125 53.078125 
L 44.28125 44.578125 
Q 40.484375 46.53125 36.375 47.5 
Q 32.28125 48.484375 27.875 48.484375 
Q 21.1875 48.484375 17.84375 46.4375 
Q 14.5 44.390625 14.5 40.28125 
Q 14.5 37.15625 16.890625 35.375 
Q 19.28125 33.59375 26.515625 31.984375 
L 29.59375 31.296875 
Q 39.15625 29.25 43.1875 25.515625 
Q 47.21875 21.78125 47.21875 15.09375 
Q 47.21875 7.46875 41.1875 3.015625 
Q 35.15625 -1.421875 24.609375 -1.421875 
Q 20.21875 -1.421875 15.453125 -0.5625 
Q 10.6875 0.296875 5.421875 2 
L 5.421875 11.28125 
Q 10.40625 8.6875 15.234375 7.390625 
Q 20.0625 6.109375 24.8125 6.109375 
Q 31.15625 6.109375 34.5625 8.28125 
Q 37.984375 10.453125 37.984375 14.40625 
Q 37.984375 18.0625 35.515625 20.015625 
Q 33.0625 21.96875 24.703125 23.78125 
L 21.578125 24.515625 
Q 13.234375 26.265625 9.515625 29.90625 
Q 5.8125 33.546875 5.8125 39.890625 
Q 5.8125 47.609375 11.28125 51.796875 
Q 16.75 56 26.8125 56 
Q 31.78125 56 36.171875 55.265625 
Q 40.578125 54.546875 44.28125 53.078125 
z
" id="DejaVuSans-73"/>
      <path d="M 25.390625 72.90625 
L 33.6875 72.90625 
L 8.296875 -9.28125 
L 0 -9.28125 
z
" id="DejaVuSans-2f"/>
      <path d="M 45.40625 46.390625 
L 45.40625 75.984375 
L 54.390625 75.984375 
L 54.390625 0 
L 45.40625 0 
L 45.40625 8.203125 
Q 42.578125 3.328125 38.25 0.953125 
Q 33.9375 -1.421875 27.875 -1.421875 
Q 17.96875 -1.421875 11.734375 6.484375 
Q 5.515625 14.40625 5.515625 27.296875 
Q 5.515625 40.1875 11.734375 48.09375 
Q 17.96875 56 27.875 56 
Q 33.9375 56 38.25 53.625 
Q 42.578125 51.265625 45.40625 46.390625 
z
M 14.796875 27.296875 
Q 14.796875 17.390625 18.875 11.75 
Q 22.953125 6.109375 30.078125 6.109375 
Q 37.203125 6.109375 41.296875 11.75 
Q 45.40625 17.390625 45.40625 27.296875 
Q 45.40625 37.203125 41.296875 42.84375 
Q 37.203125 48.484375 30.078125 48.484375 
Q 22.953125 48.484375 18.875 42.84375 
Q 14.796875 37.203125 14.796875 27.296875 
z
" id="DejaVuSans-64"/>
      <path d="M 9.421875 54.6875 
L 18.40625 54.6875 
L 18.40625 0 
L 9.421875 0 
z
M 9.421875 75.984375 
L 18.40625 75.984375 
L 18.40625 64.59375 
L 9.421875 64.59375 
z
" id="DejaVuSans-69"/>
      <path d="M 52 44.1875 
Q 55.375 50.25 60.0625 53.125 
Q 64.75 56 71.09375 56 
Q 79.640625 56 84.28125 50.015625 
Q 88.921875 44.046875 88.921875 33.015625 
L 88.921875 0 
L 79.890625 0 
L 79.890625 32.71875 
Q 79.890625 40.578125 77.09375 44.375 
Q 74.3125 48.1875 68.609375 48.1875 
Q 61.625 48.1875 57.5625 43.546875 
Q 53.515625 38.921875 53.515625 30.90625 
L 53.515625 0 
L 44.484375 0 
L 44.484375 32.71875 
Q 44.484375 40.625 41.703125 44.40625 
Q 38.921875 48.1875 33.109375 48.1875 
Q 26.21875 48.1875 22.15625 43.53125 
Q 18.109375 38.875 18.109375 30.90625 
L 18.109375 0 
L 9.078125 0 
L 9.078125 54.6875 
L 18.109375 54.6875 
L 18.109375 46.1875 
Q 21.1875 51.21875 25.484375 53.609375 
Q 29.78125 56 35.6875 56 
Q 41.65625 56 45.828125 52.96875 
Q 50 49.953125 52 44.1875 
z
" id="DejaVuSans-6d"/>
      <path d="M 54.890625 33.015625 
L 54.890625 0 
L 45.90625 0 
L 45.90625 32.71875 
Q 45.90625 40.484375 42.875 44.328125 
Q 39.84375 48.1875 33.796875 48.1875 
Q 26.515625 48.1875 22.3125 43.546875 
Q 18.109375 38.921875 18.109375 30.90625 
L 18.109375 0 
L 9.078125 0 
L 9.078125 54.6875 
L 18.109375 54.6875 
L 18.109375 46.1875 
Q 21.34375 51.125 25.703125 53.5625 
Q 30.078125 56 35.796875 56 
Q 45.21875 56 50.046875 50.171875 
Q 54.890625 44.34375 54.890625 33.015625 
z
" id="DejaVuSans-6e"/>
      <path d="M 8.015625 75.875 
L 15.828125 75.875 
Q 23.140625 64.359375 26.78125 53.3125 
Q 30.421875 42.28125 30.421875 31.390625 
Q 30.421875 20.453125 26.78125 9.375 
Q 23.140625 -1.703125 15.828125 -13.1875 
L 8.015625 -13.1875 
Q 14.5 -2 17.703125 9.0625 
Q 20.90625 20.125 20.90625 31.390625 
Q 20.90625 42.671875 17.703125 53.65625 
Q 14.5 64.65625 8.015625 75.875 
z
" id="DejaVuSans-29"/>
     </defs>
     <g transform="translate(73.803219 338.153594)scale(0.17 -0.17)">
      <use xlink:href="#DejaVuSans-6c"/>
      <use x="27.783203" xlink:href="#DejaVuSans-6f"/>
      <use x="88.964844" xlink:href="#DejaVuSans-67"/>
      <use x="152.441406" xlink:href="#DejaVuSans-31"/>
      <use x="216.064453" xlink:href="#DejaVuSans-30"/>
      <use x="279.6875" xlink:href="#DejaVuSans-28"/>
      <use x="318.701172" xlink:href="#DejaVuSans-23"/>
      <use x="402.490234" xlink:href="#DejaVuSans-20"/>
      <use x="434.277344" xlink:href="#DejaVuSans-66"/>
      <use x="469.404297" xlink:href="#DejaVuSans-2d"/>
      <use x="505.488281" xlink:href="#DejaVuSans-65"/>
      <use x="567.011719" xlink:href="#DejaVuSans-76"/>
      <use x="626.191406" xlink:href="#DejaVuSans-61"/>
      <use x="687.470703" xlink:href="#DejaVuSans-6c"/>
      <use x="715.253906" xlink:href="#DejaVuSans-73"/>
      <use x="767.353516" xlink:href="#DejaVuSans-20"/>
      <use x="799.140625" xlink:href="#DejaVuSans-2f"/>
      <use x="832.832031" xlink:href="#DejaVuSans-20"/>
      <use x="864.619141" xlink:href="#DejaVuSans-64"/>
      <use x="928.095703" xlink:href="#DejaVuSans-69"/>
      <use x="955.878906" xlink:href="#DejaVuSans-6d"/>
      <use x="1053.291016" xlink:href="#DejaVuSans-65"/>
      <use x="1114.814453" xlink:href="#DejaVuSans-6e"/>
      <use x="1178.193359" xlink:href="#DejaVuSans-73"/>
      <use x="1230.292969" xlink:href="#DejaVuSans-69"/>
      <use x="1258.076172" xlink:href="#DejaVuSans-6f"/>
      <use x="1319.257812" xlink:href="#DejaVuSans-6e"/>
      <use x="1382.636719" xlink:href="#DejaVuSans-29"/>
     </g>
    </g>
   </g>
   <g id="matplotlib.axis_2">
    <g id="ytick_1">
     <g id="line2d_29">
      <path clip-path="url(#p6666c13e75)" d="M 56.12 294.88 
L 333.168 294.88 
" style="fill:none;stroke:#b0b0b0;stroke-linecap:square;stroke-width:0.8;"/>
     </g>
     <g id="line2d_30">
      <defs>
       <path d="M 0 0 
L -3.5 0 
" id="m5d6e0abf60" style="stroke:#000000;stroke-width:0.8;"/>
      </defs>
      <g>
       <use style="stroke:#000000;stroke-width:0.8;" x="56.12" xlink:href="#m5d6e0abf60" y="294.88"/>
      </g>
     </g>
     <g id="text_6">
      <!-- 0.0 -->
      <defs>
       <path d="M 10.6875 12.40625 
L 21 12.40625 
L 21 0 
L 10.6875 0 
z
" id="DejaVuSans-2e"/>
      </defs>
      <g transform="translate(23.675 300.95875)scale(0.16 -0.16)">
       <use xlink:href="#DejaVuSans-30"/>
       <use x="63.623047" xlink:href="#DejaVuSans-2e"/>
       <use x="95.410156" xlink:href="#DejaVuSans-30"/>
      </g>
     </g>
    </g>
    <g id="ytick_2">
     <g id="line2d_31">
      <path clip-path="url(#p6666c13e75)" d="M 56.12 241.406733 
L 333.168 241.406733 
" style="fill:none;stroke:#b0b0b0;stroke-linecap:square;stroke-width:0.8;"/>
     </g>
     <g id="line2d_32">
      <g>
       <use style="stroke:#000000;stroke-width:0.8;" x="56.12" xlink:href="#m5d6e0abf60" y="241.406733"/>
      </g>
     </g>
     <g id="text_7">
      <!-- 0.2 -->
      <g transform="translate(23.675 247.485483)scale(0.16 -0.16)">
       <use xlink:href="#DejaVuSans-30"/>
       <use x="63.623047" xlink:href="#DejaVuSans-2e"/>
       <use x="95.410156" xlink:href="#DejaVuSans-32"/>
      </g>
     </g>
    </g>
    <g id="ytick_3">
     <g id="line2d_33">
      <path clip-path="url(#p6666c13e75)" d="M 56.12 187.933465 
L 333.168 187.933465 
" style="fill:none;stroke:#b0b0b0;stroke-linecap:square;stroke-width:0.8;"/>
     </g>
     <g id="line2d_34">
      <g>
       <use style="stroke:#000000;stroke-width:0.8;" x="56.12" xlink:href="#m5d6e0abf60" y="187.933465"/>
      </g>
     </g>
     <g id="text_8">
      <!-- 0.4 -->
      <g transform="translate(23.675 194.012215)scale(0.16 -0.16)">
       <use xlink:href="#DejaVuSans-30"/>
       <use x="63.623047" xlink:href="#DejaVuSans-2e"/>
       <use x="95.410156" xlink:href="#DejaVuSans-34"/>
      </g>
     </g>
    </g>
    <g id="ytick_4">
     <g id="line2d_35">
      <path clip-path="url(#p6666c13e75)" d="M 56.12 134.460198 
L 333.168 134.460198 
" style="fill:none;stroke:#b0b0b0;stroke-linecap:square;stroke-width:0.8;"/>
     </g>
     <g id="line2d_36">
      <g>
       <use style="stroke:#000000;stroke-width:0.8;" x="56.12" xlink:href="#m5d6e0abf60" y="134.460198"/>
      </g>
     </g>
     <g id="text_9">
      <!-- 0.6 -->
      <g transform="translate(23.675 140.538948)scale(0.16 -0.16)">
       <use xlink:href="#DejaVuSans-30"/>
       <use x="63.623047" xlink:href="#DejaVuSans-2e"/>
       <use x="95.410156" xlink:href="#DejaVuSans-36"/>
      </g>
     </g>
    </g>
    <g id="ytick_5">
     <g id="line2d_37">
      <path clip-path="url(#p6666c13e75)" d="M 56.12 80.986931 
L 333.168 80.986931 
" style="fill:none;stroke:#b0b0b0;stroke-linecap:square;stroke-width:0.8;"/>
     </g>
     <g id="line2d_38">
      <g>
       <use style="stroke:#000000;stroke-width:0.8;" x="56.12" xlink:href="#m5d6e0abf60" y="80.986931"/>
      </g>
     </g>
     <g id="text_10">
      <!-- 0.8 -->
      <defs>
       <path d="M 31.78125 34.625 
Q 24.75 34.625 20.71875 30.859375 
Q 16.703125 27.09375 16.703125 20.515625 
Q 16.703125 13.921875 20.71875 10.15625 
Q 24.75 6.390625 31.78125 6.390625 
Q 38.8125 6.390625 42.859375 10.171875 
Q 46.921875 13.96875 46.921875 20.515625 
Q 46.921875 27.09375 42.890625 30.859375 
Q 38.875 34.625 31.78125 34.625 
z
M 21.921875 38.8125 
Q 15.578125 40.375 12.03125 44.71875 
Q 8.5 49.078125 8.5 55.328125 
Q 8.5 64.0625 14.71875 69.140625 
Q 20.953125 74.21875 31.78125 74.21875 
Q 42.671875 74.21875 48.875 69.140625 
Q 55.078125 64.0625 55.078125 55.328125 
Q 55.078125 49.078125 51.53125 44.71875 
Q 48 40.375 41.703125 38.8125 
Q 48.828125 37.15625 52.796875 32.3125 
Q 56.78125 27.484375 56.78125 20.515625 
Q 56.78125 9.90625 50.3125 4.234375 
Q 43.84375 -1.421875 31.78125 -1.421875 
Q 19.734375 -1.421875 13.25 4.234375 
Q 6.78125 9.90625 6.78125 20.515625 
Q 6.78125 27.484375 10.78125 32.3125 
Q 14.796875 37.15625 21.921875 38.8125 
z
M 18.3125 54.390625 
Q 18.3125 48.734375 21.84375 45.5625 
Q 25.390625 42.390625 31.78125 42.390625 
Q 38.140625 42.390625 41.71875 45.5625 
Q 45.3125 48.734375 45.3125 54.390625 
Q 45.3125 60.0625 41.71875 63.234375 
Q 38.140625 66.40625 31.78125 66.40625 
Q 25.390625 66.40625 21.84375 63.234375 
Q 18.3125 60.0625 18.3125 54.390625 
z
" id="DejaVuSans-38"/>
      </defs>
      <g transform="translate(23.675 87.065681)scale(0.16 -0.16)">
       <use xlink:href="#DejaVuSans-30"/>
       <use x="63.623047" xlink:href="#DejaVuSans-2e"/>
       <use x="95.410156" xlink:href="#DejaVuSans-38"/>
      </g>
     </g>
    </g>
    <g id="ytick_6">
     <g id="line2d_39">
      <path clip-path="url(#p6666c13e75)" d="M 56.12 27.513663 
L 333.168 27.513663 
" style="fill:none;stroke:#b0b0b0;stroke-linecap:square;stroke-width:0.8;"/>
     </g>
     <g id="line2d_40">
      <g>
       <use style="stroke:#000000;stroke-width:0.8;" x="56.12" xlink:href="#m5d6e0abf60" y="27.513663"/>
      </g>
     </g>
     <g id="text_11">
      <!-- 1.0 -->
      <g transform="translate(23.675 33.592413)scale(0.16 -0.16)">
       <use xlink:href="#DejaVuSans-31"/>
       <use x="63.623047" xlink:href="#DejaVuSans-2e"/>
       <use x="95.410156" xlink:href="#DejaVuSans-30"/>
      </g>
     </g>
    </g>
    <g id="text_12">
     <!-- Fraction of function,target pairs -->
     <defs>
      <path d="M 9.8125 72.90625 
L 51.703125 72.90625 
L 51.703125 64.59375 
L 19.671875 64.59375 
L 19.671875 43.109375 
L 48.578125 43.109375 
L 48.578125 34.8125 
L 19.671875 34.8125 
L 19.671875 0 
L 9.8125 0 
z
" id="DejaVuSans-46"/>
      <path d="M 41.109375 46.296875 
Q 39.59375 47.171875 37.8125 47.578125 
Q 36.03125 48 33.890625 48 
Q 26.265625 48 22.1875 43.046875 
Q 18.109375 38.09375 18.109375 28.8125 
L 18.109375 0 
L 9.078125 0 
L 9.078125 54.6875 
L 18.109375 54.6875 
L 18.109375 46.1875 
Q 20.953125 51.171875 25.484375 53.578125 
Q 30.03125 56 36.53125 56 
Q 37.453125 56 38.578125 55.875 
Q 39.703125 55.765625 41.0625 55.515625 
z
" id="DejaVuSans-72"/>
      <path d="M 48.78125 52.59375 
L 48.78125 44.1875 
Q 44.96875 46.296875 41.140625 47.34375 
Q 37.3125 48.390625 33.40625 48.390625 
Q 24.65625 48.390625 19.8125 42.84375 
Q 14.984375 37.3125 14.984375 27.296875 
Q 14.984375 17.28125 19.8125 11.734375 
Q 24.65625 6.203125 33.40625 6.203125 
Q 37.3125 6.203125 41.140625 7.25 
Q 44.96875 8.296875 48.78125 10.40625 
L 48.78125 2.09375 
Q 45.015625 0.34375 40.984375 -0.53125 
Q 36.96875 -1.421875 32.421875 -1.421875 
Q 20.0625 -1.421875 12.78125 6.34375 
Q 5.515625 14.109375 5.515625 27.296875 
Q 5.515625 40.671875 12.859375 48.328125 
Q 20.21875 56 33.015625 56 
Q 37.15625 56 41.109375 55.140625 
Q 45.0625 54.296875 48.78125 52.59375 
z
" id="DejaVuSans-63"/>
      <path d="M 18.3125 70.21875 
L 18.3125 54.6875 
L 36.8125 54.6875 
L 36.8125 47.703125 
L 18.3125 47.703125 
L 18.3125 18.015625 
Q 18.3125 11.328125 20.140625 9.421875 
Q 21.96875 7.515625 27.59375 7.515625 
L 36.8125 7.515625 
L 36.8125 0 
L 27.59375 0 
Q 17.1875 0 13.234375 3.875 
Q 9.28125 7.765625 9.28125 18.015625 
L 9.28125 47.703125 
L 2.6875 47.703125 
L 2.6875 54.6875 
L 9.28125 54.6875 
L 9.28125 70.21875 
z
" id="DejaVuSans-74"/>
      <path d="M 8.5 21.578125 
L 8.5 54.6875 
L 17.484375 54.6875 
L 17.484375 21.921875 
Q 17.484375 14.15625 20.5 10.265625 
Q 23.53125 6.390625 29.59375 6.390625 
Q 36.859375 6.390625 41.078125 11.03125 
Q 45.3125 15.671875 45.3125 23.6875 
L 45.3125 54.6875 
L 54.296875 54.6875 
L 54.296875 0 
L 45.3125 0 
L 45.3125 8.40625 
Q 42.046875 3.421875 37.71875 1 
Q 33.40625 -1.421875 27.6875 -1.421875 
Q 18.265625 -1.421875 13.375 4.4375 
Q 8.5 10.296875 8.5 21.578125 
z
M 31.109375 56 
z
" id="DejaVuSans-75"/>
      <path d="M 11.71875 12.40625 
L 22.015625 12.40625 
L 22.015625 4 
L 14.015625 -11.625 
L 7.71875 -11.625 
L 11.71875 4 
z
" id="DejaVuSans-2c"/>
      <path d="M 18.109375 8.203125 
L 18.109375 -20.796875 
L 9.078125 -20.796875 
L 9.078125 54.6875 
L 18.109375 54.6875 
L 18.109375 46.390625 
Q 20.953125 51.265625 25.265625 53.625 
Q 29.59375 56 35.59375 56 
Q 45.5625 56 51.78125 48.09375 
Q 58.015625 40.1875 58.015625 27.296875 
Q 58.015625 14.40625 51.78125 6.484375 
Q 45.5625 -1.421875 35.59375 -1.421875 
Q 29.59375 -1.421875 25.265625 0.953125 
Q 20.953125 3.328125 18.109375 8.203125 
z
M 48.6875 27.296875 
Q 48.6875 37.203125 44.609375 42.84375 
Q 40.53125 48.484375 33.40625 48.484375 
Q 26.265625 48.484375 22.1875 42.84375 
Q 18.109375 37.203125 18.109375 27.296875 
Q 18.109375 17.390625 22.1875 11.75 
Q 26.265625 6.109375 33.40625 6.109375 
Q 40.53125 6.109375 44.609375 11.75 
Q 48.6875 17.390625 48.6875 27.296875 
z
" id="DejaVuSans-70"/>
     </defs>
     <g transform="translate(16.139531 294.999375)rotate(-90)scale(0.17 -0.17)">
      <use xlink:href="#DejaVuSans-46"/>
      <use x="57.410156" xlink:href="#DejaVuSans-72"/>
      <use x="98.523438" xlink:href="#DejaVuSans-61"/>
      <use x="159.802734" xlink:href="#DejaVuSans-63"/>
      <use x="214.783203" xlink:href="#DejaVuSans-74"/>
      <use x="253.992188" xlink:href="#DejaVuSans-69"/>
      <use x="281.775391" xlink:href="#DejaVuSans-6f"/>
      <use x="342.957031" xlink:href="#DejaVuSans-6e"/>
      <use x="406.335938" xlink:href="#DejaVuSans-20"/>
      <use x="438.123047" xlink:href="#DejaVuSans-6f"/>
      <use x="499.304688" xlink:href="#DejaVuSans-66"/>
      <use x="534.509766" xlink:href="#DejaVuSans-20"/>
      <use x="566.296875" xlink:href="#DejaVuSans-66"/>
      <use x="601.501953" xlink:href="#DejaVuSans-75"/>
      <use x="664.880859" xlink:href="#DejaVuSans-6e"/>
      <use x="728.259766" xlink:href="#DejaVuSans-63"/>
      <use x="783.240234" xlink:href="#DejaVuSans-74"/>
      <use x="822.449219" xlink:href="#DejaVuSans-69"/>
      <use x="850.232422" xlink:href="#DejaVuSans-6f"/>
      <use x="911.414062" xlink:href="#DejaVuSans-6e"/>
      <use x="974.792969" xlink:href="#DejaVuSans-2c"/>
      <use x="1006.580078" xlink:href="#DejaVuSans-74"/>
      <use x="1045.789062" xlink:href="#DejaVuSans-61"/>
      <use x="1107.068359" xlink:href="#DejaVuSans-72"/>
      <use x="1148.166016" xlink:href="#DejaVuSans-67"/>
      <use x="1211.642578" xlink:href="#DejaVuSans-65"/>
      <use x="1273.166016" xlink:href="#DejaVuSans-74"/>
      <use x="1312.375" xlink:href="#DejaVuSans-20"/>
      <use x="1344.162109" xlink:href="#DejaVuSans-70"/>
      <use x="1407.638672" xlink:href="#DejaVuSans-61"/>
      <use x="1468.917969" xlink:href="#DejaVuSans-69"/>
      <use x="1496.701172" xlink:href="#DejaVuSans-72"/>
      <use x="1537.814453" xlink:href="#DejaVuSans-73"/>
     </g>
    </g>
   </g>
   <g id="line2d_41">
    <defs>
     <path d="M 0 1.5 
C 0.397805 1.5 0.77937 1.341951 1.06066 1.06066 
C 1.341951 0.77937 1.5 0.397805 1.5 0 
C 1.5 -0.397805 1.341951 -0.77937 1.06066 -1.06066 
C 0.77937 -1.341951 0.397805 -1.5 0 -1.5 
C -0.397805 -1.5 -0.77937 -1.341951 -1.06066 -1.06066 
C -1.341951 -0.77937 -1.5 -0.397805 -1.5 0 
C -1.5 0.397805 -1.341951 0.77937 -1.06066 1.06066 
C -0.77937 1.341951 -0.397805 1.5 0 1.5 
z
" id="m2d79cbc712" style="stroke:#f5deb3;"/>
    </defs>
    <g>
     <use style="fill:#f5deb3;stroke:#f5deb3;" x="184.785836" xlink:href="#m2d79cbc712" y="27.513663"/>
     <use style="fill:#f5deb3;stroke:#f5deb3;" x="184.785836" xlink:href="#m2d79cbc712" y="27.513663"/>
    </g>
   </g>
   <g id="line2d_42">
    <path clip-path="url(#p6666c13e75)" d="M 56.12 294.88 
L 56.12 294.88 
L 56.12 294.88 
L 56.12 294.88 
L 333.168 294.88 
" style="fill:none;stroke:#000080;stroke-linecap:square;stroke-width:1.5;"/>
   </g>
   <g id="line2d_43">
    <defs>
     <path d="M 0 6 
C 1.591219 6 3.117479 5.367802 4.242641 4.242641 
C 5.367802 3.117479 6 1.591219 6 0 
C 6 -1.591219 5.367802 -3.117479 4.242641 -4.242641 
C 3.117479 -5.367802 1.591219 -6 0 -6 
C -1.591219 -6 -3.117479 -5.367802 -4.242641 -4.242641 
C -5.367802 -3.117479 -6 -1.591219 -6 0 
C -6 1.591219 -5.367802 3.117479 -4.242641 4.242641 
C -3.117479 5.367802 -1.591219 6 0 6 
z
" id="m651fa1d35b" style="stroke:#000080;stroke-width:1.5;"/>
    </defs>
    <g clip-path="url(#p6666c13e75)">
     <use style="fill:none;stroke:#000080;stroke-width:1.5;" x="56.12" xlink:href="#m651fa1d35b" y="294.88"/>
    </g>
   </g>
   <g id="line2d_44">
    <path clip-path="url(#p6666c13e75)" style="fill:none;stroke:#000080;stroke-linecap:square;stroke-width:1.5;"/>
    <g clip-path="url(#p6666c13e75)">
     <use style="fill:none;stroke:#000080;stroke-width:1.5;" x="-1" xlink:href="#m651fa1d35b" y="562.246337"/>
     <use style="fill:none;stroke:#000080;stroke-width:1.5;" x="333.168" xlink:href="#m651fa1d35b" y="562.246337"/>
    </g>
   </g>
   <g id="line2d_45">
    <defs>
     <path d="M 0 1.5 
C 0.397805 1.5 0.77937 1.341951 1.06066 1.06066 
C 1.341951 0.77937 1.5 0.397805 1.5 0 
C 1.5 -0.397805 1.341951 -0.77937 1.06066 -1.06066 
C 0.77937 -1.341951 0.397805 -1.5 0 -1.5 
C -0.397805 -1.5 -0.77937 -1.341951 -1.06066 -1.06066 
C -1.341951 -0.77937 -1.5 -0.397805 -1.5 0 
C -1.5 0.397805 -1.341951 0.77937 -1.06066 1.06066 
C -0.77937 1.341951 -0.397805 1.5 0 1.5 
z
" id="m80916ae783" style="stroke:#ff00ff;"/>
    </defs>
    <g>
     <use style="fill:#ff00ff;stroke:#ff00ff;" x="201.674733" xlink:href="#m80916ae783" y="27.513663"/>
     <use style="fill:#ff00ff;stroke:#ff00ff;" x="201.674733" xlink:href="#m80916ae783" y="27.513663"/>
    </g>
   </g>
   <g id="line2d_46">
    <path d="M 183.046808 294.88 
L 183.046808 294.355752 
L 183.492943 294.355752 
L 183.522035 293.307257 
L 183.704553 293.307257 
L 183.704553 292.783009 
L 183.902931 292.783009 
L 183.902931 292.258761 
L 184.618398 292.258761 
L 184.676496 291.210266 
L 185.114477 291.210266 
L 185.218488 290.161771 
L 185.275064 290.161771 
L 185.275064 289.637523 
L 185.788327 289.637523 
L 185.814921 288.589027 
L 186.143584 288.589027 
L 186.227162 286.492036 
L 186.458864 286.492036 
L 186.458864 285.967789 
L 187.007445 285.967789 
L 187.007445 285.443541 
L 187.174874 285.443541 
L 187.174874 284.919293 
L 187.366233 284.919293 
L 187.366233 284.395046 
L 187.477725 284.395046 
L 187.477725 283.870798 
L 187.64127 283.870798 
L 187.718499 281.773807 
L 187.843891 281.773807 
L 187.90715 279.676816 
L 188.09256 279.676816 
L 188.141825 278.628321 
L 188.219212 278.628321 
L 188.219212 278.104073 
L 188.406579 278.104073 
L 188.412242 277.055578 
L 188.586126 277.055578 
L 188.586126 276.53133 
L 188.717073 276.53133 
L 188.717073 276.007082 
L 188.900637 276.007082 
L 188.964481 274.958587 
L 189.087707 274.958587 
L 189.180204 273.910091 
L 189.251576 273.910091 
L 189.350225 272.861596 
L 189.45548 272.861596 
L 189.45548 272.337348 
L 189.753891 272.337348 
L 189.753891 271.8131 
L 189.882005 271.8131 
L 189.960345 270.764605 
L 190.103047 270.764605 
L 190.103047 270.240357 
L 190.358115 270.240357 
L 190.420774 269.191862 
L 190.477837 269.191862 
L 190.522627 268.143366 
L 190.610312 268.143366 
L 190.715493 267.094871 
L 190.769205 267.094871 
L 190.769205 266.570623 
L 190.903347 266.570623 
L 190.904529 265.522128 
L 191.071112 265.522128 
L 191.071112 264.99788 
L 191.2016 264.99788 
L 191.252326 263.949385 
L 191.382764 263.949385 
L 191.382764 263.425137 
L 191.580239 263.425137 
L 191.642812 261.852394 
L 191.774025 261.852394 
L 191.779804 260.803898 
L 191.980412 260.803898 
L 192.080081 259.231155 
L 192.227259 259.231155 
L 192.227259 258.706907 
L 192.378614 258.706907 
L 192.406497 257.658412 
L 192.504502 257.658412 
L 192.53802 256.085669 
L 192.67784 256.085669 
L 192.67784 255.561421 
L 192.90186 255.561421 
L 192.994996 253.988678 
L 193.199286 253.988678 
L 193.307874 252.415935 
L 193.403953 252.415935 
L 193.459218 250.318944 
L 193.558511 250.318944 
L 193.629003 248.746201 
L 193.669894 248.746201 
L 193.765978 246.64921 
L 193.781274 246.64921 
L 193.812679 245.076467 
L 193.924983 245.076467 
L 194.016978 242.455228 
L 194.111988 242.455228 
L 194.215395 239.309742 
L 194.302111 239.309742 
L 194.406174 236.688503 
L 194.591453 236.688503 
L 194.640996 235.11576 
L 194.722621 235.11576 
L 194.828076 231.970274 
L 194.872921 231.970274 
L 194.927008 230.397531 
L 195.02112 230.397531 
L 195.106653 229.349035 
L 195.180965 229.349035 
L 195.256006 228.30054 
L 195.317268 228.30054 
L 195.379615 226.727797 
L 195.466625 226.727797 
L 195.564921 224.630806 
L 195.60673 224.630806 
L 195.64754 223.058063 
L 195.813628 223.058063 
L 195.84939 220.961072 
L 195.935321 220.961072 
L 196.029978 219.912576 
L 196.071297 219.912576 
L 196.178638 216.76709 
L 196.235093 216.76709 
L 196.311724 213.621604 
L 196.388383 213.621604 
L 196.451618 211.000365 
L 196.507185 211.000365 
L 196.593659 207.854879 
L 196.623719 207.854879 
L 196.734174 203.660897 
L 196.738144 203.660897 
L 196.840456 200.515411 
L 196.873073 200.515411 
L 196.959629 198.41842 
L 197.007542 198.41842 
L 197.100024 195.797181 
L 197.126154 195.797181 
L 197.212737 193.70019 
L 197.250611 193.70019 
L 197.354917 188.981961 
L 197.408338 188.981961 
L 197.51066 186.360722 
L 197.519858 186.360722 
L 197.60151 184.787979 
L 197.692794 184.787979 
L 197.78518 182.16674 
L 197.804977 182.16674 
L 197.91149 179.545502 
L 197.929346 179.545502 
L 198.015671 176.924263 
L 198.075652 176.924263 
L 198.156595 173.254529 
L 198.195211 173.254529 
L 198.283404 169.060547 
L 198.340268 169.060547 
L 198.423577 164.866566 
L 198.478349 164.866566 
L 198.586941 160.672584 
L 198.591153 160.672584 
L 198.692166 155.954354 
L 198.705583 155.954354 
L 198.804221 152.808868 
L 198.816697 152.808868 
L 198.8902 150.18763 
L 198.94065 150.18763 
L 199.040583 144.945152 
L 199.05741 144.945152 
L 199.158026 137.605684 
L 199.193521 137.605684 
L 199.279136 133.93595 
L 199.305576 133.93595 
L 199.390533 126.072235 
L 199.41845 126.072235 
L 199.5222 120.30551 
L 199.558891 120.30551 
L 199.644945 115.063032 
L 199.671945 115.063032 
L 199.762077 111.393298 
L 199.818083 111.393298 
L 199.919956 106.675069 
L 199.92955 106.675069 
L 200.022122 100.384096 
L 200.052406 100.384096 
L 200.15172 95.141619 
L 200.181777 95.141619 
L 200.291113 89.374894 
L 200.294342 89.374894 
L 200.384002 83.608169 
L 200.41181 83.608169 
L 200.517959 71.550472 
L 200.538995 71.550472 
L 200.64791 62.114013 
L 200.66314 62.114013 
L 200.772511 53.726049 
L 200.784113 53.726049 
L 200.879678 44.813838 
L 200.898481 44.813838 
L 201.003648 39.571361 
L 201.01078 39.571361 
L 201.118993 34.853131 
L 201.193792 34.853131 
L 201.219672 33.804636 
L 201.324095 33.804636 
L 201.42917 30.65915 
L 201.469961 30.65915 
L 201.575512 28.562159 
L 201.645822 28.562159 
L 201.674733 27.513663 
L 333.168 27.513663 
L 333.168 27.513663 
" style="fill:none;stroke:#ff00ff;stroke-linecap:square;stroke-width:1.5;"/>
   </g>
   <g id="line2d_47">
    <defs>
     <path d="M -0 8.485281 
L 5.091169 0 
L 0 -8.485281 
L -5.091169 -0 
z
" id="m14790e7a74" style="stroke:#ff00ff;stroke-linejoin:miter;stroke-width:1.5;"/>
    </defs>
    <g>
     <use style="fill:none;stroke:#ff00ff;stroke-linejoin:miter;stroke-width:1.5;" x="199.919956" xlink:href="#m14790e7a74" y="106.675069"/>
     <use style="fill:none;stroke:#ff00ff;stroke-linejoin:miter;stroke-width:1.5;" x="201.674733" xlink:href="#m14790e7a74" y="27.513663"/>
     <use style="fill:none;stroke:#ff00ff;stroke-linejoin:miter;stroke-width:1.5;" x="201.674733" xlink:href="#m14790e7a74" y="27.513663"/>
     <use style="fill:none;stroke:#ff00ff;stroke-linejoin:miter;stroke-width:1.5;" x="333.168" xlink:href="#m14790e7a74" y="27.513663"/>
    </g>
   </g>
   <g id="line2d_48">
    <path style="fill:none;stroke:#ff00ff;stroke-linecap:square;stroke-width:1.5;"/>
    <g/>
   </g>
   <g id="line2d_49">
    <defs>
     <path d="M 0 1.5 
C 0.397805 1.5 0.77937 1.341951 1.06066 1.06066 
C 1.341951 0.77937 1.5 0.397805 1.5 0 
C 1.5 -0.397805 1.341951 -0.77937 1.06066 -1.06066 
C 0.77937 -1.341951 0.397805 -1.5 0 -1.5 
C -0.397805 -1.5 -0.77937 -1.341951 -1.06066 -1.06066 
C -1.341951 -0.77937 -1.5 -0.397805 -1.5 0 
C -1.5 0.397805 -1.341951 0.77937 -1.06066 1.06066 
C -0.77937 1.341951 -0.397805 1.5 0 1.5 
z
" id="m2431839c34" style="stroke:#ff7500;"/>
    </defs>
    <g>
     <use style="fill:#ff7500;stroke:#ff7500;" x="178.652188" xlink:href="#m2431839c34" y="27.513663"/>
     <use style="fill:#ff7500;stroke:#ff7500;" x="178.652188" xlink:href="#m2431839c34" y="27.513663"/>
    </g>
   </g>
   <g id="line2d_50">
    <path d="M 161.918146 294.88 
L 161.918146 294.355752 
L 162.05804 294.355752 
L 162.05804 293.831505 
L 163.060507 293.831505 
L 163.060507 293.307257 
L 163.240495 293.307257 
L 163.240495 292.783009 
L 164.001254 292.783009 
L 164.057722 291.734514 
L 164.133259 291.734514 
L 164.141275 290.686018 
L 164.703413 290.686018 
L 164.703413 290.161771 
L 164.853237 290.161771 
L 164.853237 289.637523 
L 165.086174 289.637523 
L 165.164131 288.06478 
L 165.269527 288.06478 
L 165.369059 287.016284 
L 165.38994 287.016284 
L 165.437572 285.967789 
L 165.692825 285.967789 
L 165.712585 284.919293 
L 165.924847 284.919293 
L 165.924847 284.395046 
L 166.065151 284.395046 
L 166.065151 283.870798 
L 166.271713 283.870798 
L 166.333201 282.822302 
L 166.586016 282.822302 
L 166.645006 280.725312 
L 166.741038 280.725312 
L 166.84544 279.152568 
L 167.108428 279.152568 
L 167.135382 278.104073 
L 167.310894 278.104073 
L 167.312226 277.055578 
L 167.466808 277.055578 
L 167.539964 276.007082 
L 167.588562 276.007082 
L 167.588562 275.482834 
L 167.776404 275.482834 
L 167.808159 274.434339 
L 167.943595 274.434339 
L 167.943595 273.910091 
L 168.132701 273.910091 
L 168.192955 272.861596 
L 168.599032 272.861596 
L 168.643496 271.8131 
L 168.749254 271.8131 
L 168.770695 270.764605 
L 168.900605 270.764605 
L 168.95702 269.191862 
L 169.032556 269.191862 
L 169.081327 268.143366 
L 169.323125 268.143366 
L 169.323125 267.619119 
L 169.487154 267.619119 
L 169.572675 265.522128 
L 169.618774 265.522128 
L 169.679853 263.949385 
L 169.738402 263.949385 
L 169.808283 262.900889 
L 169.869268 262.900889 
L 169.883046 261.852394 
L 170.169862 261.852394 
L 170.277318 259.755403 
L 170.296936 259.755403 
L 170.296936 258.706907 
L 170.428637 258.706907 
L 170.529519 256.609917 
L 170.560992 256.609917 
L 170.670424 254.512926 
L 170.829202 254.512926 
L 170.923446 252.940182 
L 170.946657 252.940182 
L 171.034895 251.891687 
L 171.087942 251.891687 
L 171.087942 251.367439 
L 171.210024 251.367439 
L 171.314885 248.221953 
L 171.400732 248.221953 
L 171.506528 245.600714 
L 171.547206 245.600714 
L 171.574791 244.027971 
L 171.667632 244.027971 
L 171.76306 241.406733 
L 171.812884 241.406733 
L 171.90343 239.309742 
L 171.928413 239.309742 
L 171.997054 236.688503 
L 172.128486 236.688503 
L 172.172241 235.640008 
L 172.25992 235.640008 
L 172.338698 233.543017 
L 172.385396 233.543017 
L 172.418603 231.970274 
L 172.611614 231.970274 
L 172.704878 230.397531 
L 172.752535 230.397531 
L 172.841658 228.824787 
L 172.866279 228.824787 
L 172.933205 226.203549 
L 172.988858 226.203549 
L 173.095819 223.58231 
L 173.145728 223.58231 
L 173.252192 220.436824 
L 173.351905 220.436824 
L 173.455705 216.76709 
L 173.521308 216.76709 
L 173.534305 215.718594 
L 173.727184 215.718594 
L 173.758358 213.621604 
L 173.952829 213.621604 
L 174.051272 212.573108 
L 174.069723 212.573108 
L 174.171078 211.000365 
L 174.261612 211.000365 
L 174.351229 208.903374 
L 174.421882 208.903374 
L 174.45754 206.806383 
L 174.548331 206.806383 
L 174.592457 205.23364 
L 174.666907 205.23364 
L 174.748821 202.612401 
L 174.789416 202.612401 
L 174.888771 199.991163 
L 174.903347 199.991163 
L 174.986703 198.41842 
L 175.029293 198.41842 
L 175.135732 195.272933 
L 175.171207 195.272933 
L 175.251598 193.175943 
L 175.298145 193.175943 
L 175.380446 189.506209 
L 175.417083 189.506209 
L 175.517434 186.360722 
L 175.54016 186.360722 
L 175.648006 181.118245 
L 175.666051 181.118245 
L 175.75518 178.497006 
L 175.780444 178.497006 
L 175.885988 173.778777 
L 175.946989 173.778777 
L 176.054324 168.5363 
L 176.062337 168.5363 
L 176.168956 163.293823 
L 176.175325 163.293823 
L 176.256313 157.527098 
L 176.315227 157.527098 
L 176.413231 152.808868 
L 176.437547 152.808868 
L 176.546545 147.566391 
L 176.585056 147.566391 
L 176.690809 141.275418 
L 176.696214 141.275418 
L 176.80474 134.984446 
L 176.818162 134.984446 
L 176.92059 127.644978 
L 176.932398 127.644978 
L 177.03642 118.732766 
L 177.051553 118.732766 
L 177.155611 107.723564 
L 177.16801 107.723564 
L 177.27174 97.23861 
L 177.282564 97.23861 
L 177.391911 83.608169 
L 177.394136 83.608169 
L 177.496883 76.792949 
L 177.506092 76.792949 
L 177.615129 67.35649 
L 177.620252 67.35649 
L 177.727842 57.920031 
L 177.735112 57.920031 
L 177.841987 49.532068 
L 177.847404 49.532068 
L 177.949279 43.241095 
L 177.958967 43.241095 
L 178.065177 33.804636 
L 178.075869 33.804636 
L 178.175695 32.231893 
L 178.189858 32.231893 
L 178.297469 29.610654 
L 178.349095 29.610654 
L 178.369421 28.562159 
L 178.551288 28.562159 
L 178.652188 27.513663 
L 333.168 27.513663 
L 333.168 27.513663 
" style="fill:none;stroke:#ff7500;stroke-linecap:square;stroke-width:1.5;"/>
   </g>
   <g id="line2d_51">
    <defs>
     <path d="M 0 -6 
L -1.347084 -1.854102 
L -5.706339 -1.854102 
L -2.179628 0.708204 
L -3.526712 4.854102 
L -0 2.291796 
L 3.526712 4.854102 
L 2.179628 0.708204 
L 5.706339 -1.854102 
L 1.347084 -1.854102 
z
" id="ma4e9bcdcdd" style="stroke:#ff7500;stroke-linejoin:bevel;stroke-width:1.5;"/>
    </defs>
    <g>
     <use style="fill:none;stroke:#ff7500;stroke-linejoin:bevel;stroke-width:1.5;" x="177.318718" xlink:href="#ma4e9bcdcdd" y="93.568876"/>
     <use style="fill:none;stroke:#ff7500;stroke-linejoin:bevel;stroke-width:1.5;" x="178.652188" xlink:href="#ma4e9bcdcdd" y="27.513663"/>
     <use style="fill:none;stroke:#ff7500;stroke-linejoin:bevel;stroke-width:1.5;" x="178.652188" xlink:href="#ma4e9bcdcdd" y="27.513663"/>
     <use style="fill:none;stroke:#ff7500;stroke-linejoin:bevel;stroke-width:1.5;" x="333.168" xlink:href="#ma4e9bcdcdd" y="27.513663"/>
    </g>
   </g>
   <g id="line2d_52">
    <path style="fill:none;stroke:#ff7500;stroke-linecap:square;stroke-width:1.5;"/>
    <g/>
   </g>
   <g id="line2d_53">
    <defs>
     <path d="M 0 1.5 
C 0.397805 1.5 0.77937 1.341951 1.06066 1.06066 
C 1.341951 0.77937 1.5 0.397805 1.5 0 
C 1.5 -0.397805 1.341951 -0.77937 1.06066 -1.06066 
C 0.77937 -1.341951 0.397805 -1.5 0 -1.5 
C -0.397805 -1.5 -0.77937 -1.341951 -1.06066 -1.06066 
C -1.341951 -0.77937 -1.5 -0.397805 -1.5 0 
C -1.5 0.397805 -1.341951 0.77937 -1.06066 1.06066 
C -0.77937 1.341951 -0.397805 1.5 0 1.5 
z
" id="m1ba4f147f3" style="stroke:#6495ed;"/>
    </defs>
    <g>
     <use style="fill:#6495ed;stroke:#6495ed;" x="185.667799" xlink:href="#m1ba4f147f3" y="27.513663"/>
     <use style="fill:#6495ed;stroke:#6495ed;" x="185.667799" xlink:href="#m1ba4f147f3" y="27.513663"/>
    </g>
   </g>
   <g id="line2d_54">
    <path d="M 169.918016 294.88 
L 169.918016 294.355752 
L 171.48197 294.355752 
L 171.507572 293.307257 
L 171.876879 293.307257 
L 171.876879 292.783009 
L 172.034564 292.783009 
L 172.034564 292.258761 
L 172.282892 292.258761 
L 172.282892 291.734514 
L 172.785041 291.734514 
L 172.785041 291.210266 
L 173.238979 291.210266 
L 173.320454 290.161771 
L 173.399675 290.161771 
L 173.399675 289.637523 
L 173.937424 289.637523 
L 174.029194 288.589027 
L 174.209045 288.589027 
L 174.209045 288.06478 
L 174.423645 288.06478 
L 174.423645 287.540532 
L 174.542643 287.540532 
L 174.616438 286.492036 
L 174.688181 286.492036 
L 174.762651 285.443541 
L 174.865597 285.443541 
L 174.865597 284.919293 
L 174.979025 284.919293 
L 174.979025 284.395046 
L 175.123468 284.395046 
L 175.199871 283.34655 
L 175.435372 283.34655 
L 175.435372 282.822302 
L 175.606923 282.822302 
L 175.681211 281.773807 
L 175.738452 281.773807 
L 175.755995 280.725312 
L 175.885179 280.725312 
L 175.920353 279.676816 
L 176.02384 279.676816 
L 176.095152 278.104073 
L 176.18169 278.104073 
L 176.242842 276.53133 
L 176.406165 276.53133 
L 176.406165 276.007082 
L 176.57184 276.007082 
L 176.668009 274.958587 
L 176.728998 274.958587 
L 176.729384 273.910091 
L 176.868306 273.910091 
L 176.93849 272.337348 
L 177.117981 272.337348 
L 177.117981 271.8131 
L 177.267633 271.8131 
L 177.267633 271.288853 
L 177.485087 271.288853 
L 177.578127 269.191862 
L 177.644016 269.191862 
L 177.702373 268.143366 
L 177.853902 268.143366 
L 177.934917 267.094871 
L 178.140591 267.094871 
L 178.245688 264.99788 
L 178.266842 264.99788 
L 178.266842 264.473632 
L 178.464775 264.473632 
L 178.567915 261.852394 
L 178.602849 261.852394 
L 178.602849 261.328146 
L 178.732279 261.328146 
L 178.797655 259.755403 
L 178.869929 259.755403 
L 178.974393 258.18266 
L 179.011885 258.18266 
L 179.080242 257.134164 
L 179.138283 257.134164 
L 179.138283 256.609917 
L 179.298302 256.609917 
L 179.298302 256.085669 
L 179.46572 256.085669 
L 179.556505 252.940182 
L 179.64226 252.940182 
L 179.648439 251.891687 
L 179.809921 251.891687 
L 179.904357 249.794696 
L 179.943073 249.794696 
L 180.051081 247.697705 
L 180.071079 247.697705 
L 180.168827 246.124962 
L 180.265709 246.124962 
L 180.307063 245.076467 
L 180.433328 245.076467 
L 180.516374 243.503724 
L 180.548493 243.503724 
L 180.603635 241.93098 
L 180.665344 241.93098 
L 180.738432 239.309742 
L 180.80574 239.309742 
L 180.906059 235.11576 
L 180.999786 235.11576 
L 181.108841 231.970274 
L 181.166086 231.970274 
L 181.196718 230.921778 
L 181.310734 230.921778 
L 181.419599 228.30054 
L 181.43162 228.30054 
L 181.531277 227.252044 
L 181.572606 227.252044 
L 181.600781 226.203549 
L 181.703215 226.203549 
L 181.703215 225.679301 
L 181.861163 225.679301 
L 181.95524 222.533815 
L 182.013423 222.533815 
L 182.092012 219.912576 
L 182.126106 219.912576 
L 182.235538 217.815585 
L 182.274932 217.815585 
L 182.3837 213.621604 
L 182.391463 213.621604 
L 182.444046 211.000365 
L 182.581386 211.000365 
L 182.676792 208.903374 
L 182.754584 208.903374 
L 182.864414 207.330631 
L 182.888666 207.330631 
L 182.982655 205.23364 
L 183.047075 205.23364 
L 183.153467 202.612401 
L 183.16089 202.612401 
L 183.239428 199.991163 
L 183.28238 199.991163 
L 183.38576 195.797181 
L 183.401188 195.797181 
L 183.491643 191.078952 
L 183.512949 191.078952 
L 183.59481 187.409218 
L 183.625536 187.409218 
L 183.707377 183.215236 
L 183.746103 183.215236 
L 183.853614 179.545502 
L 184.014009 179.545502 
L 184.122119 177.448511 
L 184.146162 177.448511 
L 184.254442 172.206034 
L 184.257923 172.206034 
L 184.35883 165.390813 
L 184.369209 165.390813 
L 184.477815 153.857364 
L 184.483215 153.857364 
L 184.593544 137.605684 
L 184.610605 137.605684 
L 184.721574 119.257014 
L 184.723752 119.257014 
L 184.834477 101.956839 
L 184.836881 101.956839 
L 184.947837 85.180912 
L 184.948792 85.180912 
L 185.052621 65.259499 
L 185.061404 65.259499 
L 185.169981 50.580563 
L 185.172575 50.580563 
L 185.279048 43.765343 
L 185.286779 43.765343 
L 185.39767 35.901627 
L 185.398601 35.901627 
L 185.474291 32.756141 
L 185.512011 32.756141 
L 185.618937 28.037911 
L 185.667799 28.037911 
L 185.667799 27.513663 
L 333.168 27.513663 
L 333.168 27.513663 
" style="fill:none;stroke:#6495ed;stroke-linecap:square;stroke-width:1.5;"/>
   </g>
   <g id="line2d_55">
    <defs>
     <path d="M -0 6 
L 6 -6 
L -6 -6 
z
" id="m0bb25ece02" style="stroke:#6495ed;stroke-linejoin:miter;stroke-width:1.5;"/>
    </defs>
    <g>
     <use style="fill:none;stroke:#6495ed;stroke-linejoin:miter;stroke-width:1.5;" x="184.994354" xlink:href="#m0bb25ece02" y="76.792949"/>
     <use style="fill:none;stroke:#6495ed;stroke-linejoin:miter;stroke-width:1.5;" x="185.667799" xlink:href="#m0bb25ece02" y="27.513663"/>
     <use style="fill:none;stroke:#6495ed;stroke-linejoin:miter;stroke-width:1.5;" x="185.667799" xlink:href="#m0bb25ece02" y="27.513663"/>
     <use style="fill:none;stroke:#6495ed;stroke-linejoin:miter;stroke-width:1.5;" x="333.168" xlink:href="#m0bb25ece02" y="27.513663"/>
    </g>
   </g>
   <g id="line2d_56">
    <path style="fill:none;stroke:#6495ed;stroke-linecap:square;stroke-width:1.5;"/>
    <g/>
   </g>
   <g id="line2d_57">
    <defs>
     <path d="M 0 1.5 
C 0.397805 1.5 0.77937 1.341951 1.06066 1.06066 
C 1.341951 0.77937 1.5 0.397805 1.5 0 
C 1.5 -0.397805 1.341951 -0.77937 1.06066 -1.06066 
C 0.77937 -1.341951 0.397805 -1.5 0 -1.5 
C -0.397805 -1.5 -0.77937 -1.341951 -1.06066 -1.06066 
C -1.341951 -0.77937 -1.5 -0.397805 -1.5 0 
C -1.5 0.397805 -1.341951 0.77937 -1.06066 1.06066 
C -0.77937 1.341951 -0.397805 1.5 0 1.5 
z
" id="m0108eba262" style="stroke:#ff0000;"/>
    </defs>
    <g>
     <use style="fill:#ff0000;stroke:#ff0000;" x="185.617099" xlink:href="#m0108eba262" y="27.513663"/>
     <use style="fill:#ff0000;stroke:#ff0000;" x="185.617099" xlink:href="#m0108eba262" y="27.513663"/>
    </g>
   </g>
   <g id="line2d_58">
    <path d="M 171.214273 294.88 
L 171.214273 294.355752 
L 171.624645 294.355752 
L 171.624645 293.831505 
L 171.807754 293.831505 
L 171.807754 293.307257 
L 172.054806 293.307257 
L 172.054806 292.783009 
L 172.617488 292.783009 
L 172.726777 291.734514 
L 172.802966 291.734514 
L 172.802966 291.210266 
L 172.924072 291.210266 
L 172.978317 290.161771 
L 173.048628 290.161771 
L 173.048628 289.637523 
L 173.478531 289.637523 
L 173.478531 289.113275 
L 174.120476 289.113275 
L 174.208598 287.540532 
L 174.401158 287.540532 
L 174.489174 286.492036 
L 174.605977 286.492036 
L 174.689483 285.443541 
L 174.735845 285.443541 
L 174.820445 284.395046 
L 174.875471 284.395046 
L 174.875471 283.870798 
L 175.013973 283.870798 
L 175.013973 283.34655 
L 175.196501 283.34655 
L 175.234793 282.298055 
L 175.312377 282.298055 
L 175.337882 281.249559 
L 175.578931 281.249559 
L 175.578931 280.725312 
L 175.790621 280.725312 
L 175.817458 279.676816 
L 175.960694 279.676816 
L 175.992899 278.628321 
L 176.174529 278.628321 
L 176.174529 278.104073 
L 176.291527 278.104073 
L 176.319568 277.055578 
L 176.434411 277.055578 
L 176.444991 276.007082 
L 176.971955 276.007082 
L 176.997012 273.910091 
L 177.247456 273.910091 
L 177.331373 272.337348 
L 177.377817 272.337348 
L 177.433015 270.764605 
L 177.511984 270.764605 
L 177.572258 269.716109 
L 177.629396 269.716109 
L 177.702009 268.667614 
L 177.798955 268.667614 
L 177.873741 267.619119 
L 177.953227 267.619119 
L 178.051625 266.046375 
L 178.109683 266.046375 
L 178.135976 264.99788 
L 178.262614 264.99788 
L 178.336115 262.900889 
L 178.477658 262.900889 
L 178.542275 261.328146 
L 178.628744 261.328146 
L 178.732279 258.18266 
L 178.741535 258.18266 
L 178.82087 256.609917 
L 179.02133 256.609917 
L 179.056701 255.561421 
L 179.154352 255.561421 
L 179.256441 253.988678 
L 179.281703 253.988678 
L 179.391623 250.843192 
L 179.504453 250.843192 
L 179.558466 248.221953 
L 179.704272 248.221953 
L 179.741501 247.173458 
L 179.939877 247.173458 
L 180.046952 245.076467 
L 180.09929 245.076467 
L 180.189634 242.979476 
L 180.222997 242.979476 
L 180.222997 242.455228 
L 180.37826 242.455228 
L 180.444818 240.882485 
L 180.495031 240.882485 
L 180.602097 236.688503 
L 180.629758 236.688503 
L 180.731412 234.591512 
L 180.746364 234.591512 
L 180.832468 232.494521 
L 180.881564 232.494521 
L 180.953137 229.873283 
L 181.028915 229.873283 
L 181.078351 227.776292 
L 181.260778 227.776292 
L 181.276165 226.727797 
L 181.380546 226.727797 
L 181.47202 224.106558 
L 181.546714 224.106558 
L 181.641075 223.058063 
L 181.707542 223.058063 
L 181.784381 219.912576 
L 181.836848 219.912576 
L 181.932481 217.291338 
L 181.952965 217.291338 
L 182.059829 214.145851 
L 182.073105 214.145851 
L 182.166312 209.427622 
L 182.212307 209.427622 
L 182.317297 206.806383 
L 182.323698 206.806383 
L 182.4139 202.612401 
L 182.445428 202.612401 
L 182.550655 199.991163 
L 182.55697 199.991163 
L 182.666703 196.845677 
L 182.752413 196.845677 
L 182.840398 195.272933 
L 182.88328 195.272933 
L 182.961753 192.651695 
L 183.002996 192.651695 
L 183.112053 186.88497 
L 183.117102 186.88497 
L 183.221742 181.642493 
L 183.244441 181.642493 
L 183.345951 175.35152 
L 183.365343 175.35152 
L 183.473173 169.584795 
L 183.477077 169.584795 
L 183.569982 164.866566 
L 183.592742 164.866566 
L 183.682454 160.672584 
L 183.711228 160.672584 
L 183.803645 157.527098 
L 183.830177 157.527098 
L 183.906992 154.905859 
L 183.964758 154.905859 
L 184.067898 152.808868 
L 184.120114 152.808868 
L 184.220833 147.566391 
L 184.247725 147.566391 
L 184.35339 140.751171 
L 184.361054 140.751171 
L 184.471922 132.363207 
L 184.472413 132.363207 
L 184.582079 120.30551 
L 184.585251 120.30551 
L 184.693232 109.820555 
L 184.696383 109.820555 
L 184.802948 93.568876 
L 184.809451 93.568876 
L 184.911011 76.268701 
L 184.920823 76.268701 
L 185.023869 58.444279 
L 185.033855 58.444279 
L 185.144023 46.386581 
L 185.146148 46.386581 
L 185.249969 40.095609 
L 185.264984 40.095609 
L 185.371354 35.377379 
L 185.38114 35.377379 
L 185.467108 31.707645 
L 185.495128 31.707645 
L 185.590197 28.037911 
L 185.617099 28.037911 
L 185.617099 27.513663 
L 333.168 27.513663 
L 333.168 27.513663 
" style="fill:none;stroke:#ff0000;stroke-linecap:square;stroke-width:1.5;"/>
   </g>
   <g id="line2d_59">
    <defs>
     <path d="M 0 -6 
L -5.196152 -3 
L -5.196152 3 
L -0 6 
L 5.196152 3 
L 5.196152 -3 
z
" id="m0428c4c1e8" style="stroke:#ff0000;stroke-linejoin:miter;stroke-width:1.5;"/>
    </defs>
    <g>
     <use style="fill:none;stroke:#ff0000;stroke-linejoin:miter;stroke-width:1.5;" x="184.874825" xlink:href="#m0428c4c1e8" y="82.559674"/>
     <use style="fill:none;stroke:#ff0000;stroke-linejoin:miter;stroke-width:1.5;" x="185.617099" xlink:href="#m0428c4c1e8" y="27.513663"/>
     <use style="fill:none;stroke:#ff0000;stroke-linejoin:miter;stroke-width:1.5;" x="185.617099" xlink:href="#m0428c4c1e8" y="27.513663"/>
     <use style="fill:none;stroke:#ff0000;stroke-linejoin:miter;stroke-width:1.5;" x="333.168" xlink:href="#m0428c4c1e8" y="27.513663"/>
    </g>
   </g>
   <g id="line2d_60">
    <path style="fill:none;stroke:#ff0000;stroke-linecap:square;stroke-width:1.5;"/>
    <g/>
   </g>
   <g id="line2d_61">
    <path d="M 333.168 294.88 
L 363.64328 289.532673 
" style="fill:none;stroke:#000080;stroke-linecap:square;stroke-width:1.5;"/>
    <g>
     <use style="fill:none;stroke:#000080;stroke-width:1.5;" x="333.168" xlink:href="#m651fa1d35b" y="294.88"/>
     <use style="fill:none;stroke:#000080;stroke-width:1.5;" x="363.64328" xlink:href="#m651fa1d35b" y="289.532673"/>
    </g>
   </g>
   <g id="line2d_62">
    <path d="M 333.168 27.513663 
L 363.64328 238.198337 
" style="fill:none;stroke:#ff00ff;stroke-linecap:square;stroke-width:1.5;"/>
    <g>
     <use style="fill:none;stroke:#ff00ff;stroke-linejoin:miter;stroke-width:1.5;" x="333.168" xlink:href="#m14790e7a74" y="27.513663"/>
     <use style="fill:none;stroke:#ff00ff;stroke-linejoin:miter;stroke-width:1.5;" x="363.64328" xlink:href="#m14790e7a74" y="238.198337"/>
    </g>
   </g>
   <g id="line2d_63">
    <path d="M 333.168 27.513663 
L 363.64328 186.864 
" style="fill:none;stroke:#6495ed;stroke-linecap:square;stroke-width:1.5;"/>
    <g>
     <use style="fill:none;stroke:#6495ed;stroke-linejoin:miter;stroke-width:1.5;" x="333.168" xlink:href="#m0bb25ece02" y="27.513663"/>
     <use style="fill:none;stroke:#6495ed;stroke-linejoin:miter;stroke-width:1.5;" x="363.64328" xlink:href="#m0bb25ece02" y="186.864"/>
    </g>
   </g>
   <g id="line2d_64">
    <path d="M 333.168 27.513663 
L 363.64328 135.529663 
" style="fill:none;stroke:#ff0000;stroke-linecap:square;stroke-width:1.5;"/>
    <g>
     <use style="fill:none;stroke:#ff0000;stroke-linejoin:miter;stroke-width:1.5;" x="333.168" xlink:href="#m0428c4c1e8" y="27.513663"/>
     <use style="fill:none;stroke:#ff0000;stroke-linejoin:miter;stroke-width:1.5;" x="363.64328" xlink:href="#m0428c4c1e8" y="135.529663"/>
    </g>
   </g>
   <g id="line2d_65">
    <path d="M 333.168 27.513663 
L 363.64328 32.86099 
" style="fill:none;stroke:#ff7500;stroke-linecap:square;stroke-width:1.5;"/>
    <g>
     <use style="fill:none;stroke:#ff7500;stroke-linejoin:bevel;stroke-width:1.5;" x="333.168" xlink:href="#ma4e9bcdcdd" y="27.513663"/>
     <use style="fill:none;stroke:#ff7500;stroke-linejoin:bevel;stroke-width:1.5;" x="363.64328" xlink:href="#ma4e9bcdcdd" y="32.86099"/>
    </g>
   </g>
   <g id="line2d_66">
    <path d="M 333.168 294.88 
L 333.168 27.513663 
" style="fill:none;stroke:#000000;stroke-linecap:square;stroke-width:1.5;"/>
   </g>
   <g id="patch_3">
    <path d="M 56.12 294.88 
L 56.12 24.84 
" style="fill:none;stroke:#000000;stroke-linecap:square;stroke-linejoin:miter;stroke-width:0.8;"/>
   </g>
   <g id="patch_4">
    <path d="M 333.168 294.88 
L 333.168 24.84 
" style="fill:none;stroke:#000000;stroke-linecap:square;stroke-linejoin:miter;stroke-width:0.8;"/>
   </g>
   <g id="patch_5">
    <path d="M 56.12 294.88 
L 333.168 294.88 
" style="fill:none;stroke:#000000;stroke-linecap:square;stroke-linejoin:miter;stroke-width:0.8;"/>
   </g>
   <g id="patch_6">
    <path d="M 56.12 24.84 
L 333.168 24.84 
" style="fill:none;stroke:#000000;stroke-linecap:square;stroke-linejoin:miter;stroke-width:0.8;"/>
   </g>
   <g id="text_13">
    <!-- scipyAlg -->
    <defs>
     <path d="M 32.171875 -5.078125 
Q 28.375 -14.84375 24.75 -17.8125 
Q 21.140625 -20.796875 15.09375 -20.796875 
L 7.90625 -20.796875 
L 7.90625 -13.28125 
L 13.1875 -13.28125 
Q 16.890625 -13.28125 18.9375 -11.515625 
Q 21 -9.765625 23.484375 -3.21875 
L 25.09375 0.875 
L 2.984375 54.6875 
L 12.5 54.6875 
L 29.59375 11.921875 
L 46.6875 54.6875 
L 56.203125 54.6875 
z
" id="DejaVuSans-79"/>
     <path d="M 34.1875 63.1875 
L 20.796875 26.90625 
L 47.609375 26.90625 
z
M 28.609375 72.90625 
L 39.796875 72.90625 
L 67.578125 0 
L 57.328125 0 
L 50.6875 18.703125 
L 17.828125 18.703125 
L 11.1875 0 
L 0.78125 0 
z
" id="DejaVuSans-41"/>
    </defs>
    <g transform="translate(369.18424 294.223611)scale(0.17 -0.17)">
     <use xlink:href="#DejaVuSans-73"/>
     <use x="52.099609" xlink:href="#DejaVuSans-63"/>
     <use x="107.080078" xlink:href="#DejaVuSans-69"/>
     <use x="134.863281" xlink:href="#DejaVuSans-70"/>
     <use x="198.339844" xlink:href="#DejaVuSans-79"/>
     <use x="257.519531" xlink:href="#DejaVuSans-41"/>
     <use x="325.927734" xlink:href="#DejaVuSans-6c"/>
     <use x="353.710938" xlink:href="#DejaVuSans-67"/>
    </g>
   </g>
   <g id="text_14">
    <!-- CMA ES PP -->
    <defs>
     <path d="M 64.40625 67.28125 
L 64.40625 56.890625 
Q 59.421875 61.53125 53.78125 63.8125 
Q 48.140625 66.109375 41.796875 66.109375 
Q 29.296875 66.109375 22.65625 58.46875 
Q 16.015625 50.828125 16.015625 36.375 
Q 16.015625 21.96875 22.65625 14.328125 
Q 29.296875 6.6875 41.796875 6.6875 
Q 48.140625 6.6875 53.78125 8.984375 
Q 59.421875 11.28125 64.40625 15.921875 
L 64.40625 5.609375 
Q 59.234375 2.09375 53.4375 0.328125 
Q 47.65625 -1.421875 41.21875 -1.421875 
Q 24.65625 -1.421875 15.125 8.703125 
Q 5.609375 18.84375 5.609375 36.375 
Q 5.609375 53.953125 15.125 64.078125 
Q 24.65625 74.21875 41.21875 74.21875 
Q 47.75 74.21875 53.53125 72.484375 
Q 59.328125 70.75 64.40625 67.28125 
z
" id="DejaVuSans-43"/>
     <path d="M 9.8125 72.90625 
L 24.515625 72.90625 
L 43.109375 23.296875 
L 61.8125 72.90625 
L 76.515625 72.90625 
L 76.515625 0 
L 66.890625 0 
L 66.890625 64.015625 
L 48.09375 14.015625 
L 38.1875 14.015625 
L 19.390625 64.015625 
L 19.390625 0 
L 9.8125 0 
z
" id="DejaVuSans-4d"/>
     <path d="M 9.8125 72.90625 
L 55.90625 72.90625 
L 55.90625 64.59375 
L 19.671875 64.59375 
L 19.671875 43.015625 
L 54.390625 43.015625 
L 54.390625 34.71875 
L 19.671875 34.71875 
L 19.671875 8.296875 
L 56.78125 8.296875 
L 56.78125 0 
L 9.8125 0 
z
" id="DejaVuSans-45"/>
     <path d="M 53.515625 70.515625 
L 53.515625 60.890625 
Q 47.90625 63.578125 42.921875 64.890625 
Q 37.9375 66.21875 33.296875 66.21875 
Q 25.25 66.21875 20.875 63.09375 
Q 16.5 59.96875 16.5 54.203125 
Q 16.5 49.359375 19.40625 46.890625 
Q 22.3125 44.4375 30.421875 42.921875 
L 36.375 41.703125 
Q 47.40625 39.59375 52.65625 34.296875 
Q 57.90625 29 57.90625 20.125 
Q 57.90625 9.515625 50.796875 4.046875 
Q 43.703125 -1.421875 29.984375 -1.421875 
Q 24.8125 -1.421875 18.96875 -0.25 
Q 13.140625 0.921875 6.890625 3.21875 
L 6.890625 13.375 
Q 12.890625 10.015625 18.65625 8.296875 
Q 24.421875 6.59375 29.984375 6.59375 
Q 38.421875 6.59375 43.015625 9.90625 
Q 47.609375 13.234375 47.609375 19.390625 
Q 47.609375 24.75 44.3125 27.78125 
Q 41.015625 30.8125 33.5 32.328125 
L 27.484375 33.5 
Q 16.453125 35.6875 11.515625 40.375 
Q 6.59375 45.0625 6.59375 53.421875 
Q 6.59375 63.09375 13.40625 68.65625 
Q 20.21875 74.21875 32.171875 74.21875 
Q 37.3125 74.21875 42.625 73.28125 
Q 47.953125 72.359375 53.515625 70.515625 
z
" id="DejaVuSans-53"/>
     <path d="M 19.671875 64.796875 
L 19.671875 37.40625 
L 32.078125 37.40625 
Q 38.96875 37.40625 42.71875 40.96875 
Q 46.484375 44.53125 46.484375 51.125 
Q 46.484375 57.671875 42.71875 61.234375 
Q 38.96875 64.796875 32.078125 64.796875 
z
M 9.8125 72.90625 
L 32.078125 72.90625 
Q 44.34375 72.90625 50.609375 67.359375 
Q 56.890625 61.8125 56.890625 51.125 
Q 56.890625 40.328125 50.609375 34.8125 
Q 44.34375 29.296875 32.078125 29.296875 
L 19.671875 29.296875 
L 19.671875 0 
L 9.8125 0 
z
" id="DejaVuSans-50"/>
    </defs>
    <g transform="translate(369.18424 242.889274)scale(0.17 -0.17)">
     <use xlink:href="#DejaVuSans-43"/>
     <use x="69.824219" xlink:href="#DejaVuSans-4d"/>
     <use x="156.103516" xlink:href="#DejaVuSans-41"/>
     <use x="224.511719" xlink:href="#DejaVuSans-20"/>
     <use x="256.298828" xlink:href="#DejaVuSans-45"/>
     <use x="319.482422" xlink:href="#DejaVuSans-53"/>
     <use x="382.958984" xlink:href="#DejaVuSans-20"/>
     <use x="414.746094" xlink:href="#DejaVuSans-50"/>
     <use x="475.048828" xlink:href="#DejaVuSans-50"/>
    </g>
   </g>
   <g id="text_15">
    <!-- IPOP-CMA- -->
    <defs>
     <path d="M 9.8125 72.90625 
L 19.671875 72.90625 
L 19.671875 0 
L 9.8125 0 
z
" id="DejaVuSans-49"/>
     <path d="M 39.40625 66.21875 
Q 28.65625 66.21875 22.328125 58.203125 
Q 16.015625 50.203125 16.015625 36.375 
Q 16.015625 22.609375 22.328125 14.59375 
Q 28.65625 6.59375 39.40625 6.59375 
Q 50.140625 6.59375 56.421875 14.59375 
Q 62.703125 22.609375 62.703125 36.375 
Q 62.703125 50.203125 56.421875 58.203125 
Q 50.140625 66.21875 39.40625 66.21875 
z
M 39.40625 74.21875 
Q 54.734375 74.21875 63.90625 63.9375 
Q 73.09375 53.65625 73.09375 36.375 
Q 73.09375 19.140625 63.90625 8.859375 
Q 54.734375 -1.421875 39.40625 -1.421875 
Q 24.03125 -1.421875 14.8125 8.828125 
Q 5.609375 19.09375 5.609375 36.375 
Q 5.609375 53.65625 14.8125 63.9375 
Q 24.03125 74.21875 39.40625 74.21875 
z
" id="DejaVuSans-4f"/>
    </defs>
    <g transform="translate(369.18424 191.554937)scale(0.17 -0.17)">
     <use xlink:href="#DejaVuSans-49"/>
     <use x="29.492188" xlink:href="#DejaVuSans-50"/>
     <use x="89.794922" xlink:href="#DejaVuSans-4f"/>
     <use x="168.505859" xlink:href="#DejaVuSans-50"/>
     <use x="228.777344" xlink:href="#DejaVuSans-2d"/>
     <use x="264.861328" xlink:href="#DejaVuSans-43"/>
     <use x="334.685547" xlink:href="#DejaVuSans-4d"/>
     <use x="420.964844" xlink:href="#DejaVuSans-41"/>
     <use x="489.341797" xlink:href="#DejaVuSans-2d"/>
    </g>
   </g>
   <g id="text_16">
    <!-- CMAES pos -->
    <g transform="translate(369.18424 140.220601)scale(0.17 -0.17)">
     <use xlink:href="#DejaVuSans-43"/>
     <use x="69.824219" xlink:href="#DejaVuSans-4d"/>
     <use x="156.103516" xlink:href="#DejaVuSans-41"/>
     <use x="224.511719" xlink:href="#DejaVuSans-45"/>
     <use x="287.695312" xlink:href="#DejaVuSans-53"/>
     <use x="351.171875" xlink:href="#DejaVuSans-20"/>
     <use x="382.958984" xlink:href="#DejaVuSans-70"/>
     <use x="446.435547" xlink:href="#DejaVuSans-6f"/>
     <use x="507.617188" xlink:href="#DejaVuSans-73"/>
    </g>
   </g>
   <g id="text_17">
    <!-- best 2009 -->
    <defs>
     <path d="M 48.6875 27.296875 
Q 48.6875 37.203125 44.609375 42.84375 
Q 40.53125 48.484375 33.40625 48.484375 
Q 26.265625 48.484375 22.1875 42.84375 
Q 18.109375 37.203125 18.109375 27.296875 
Q 18.109375 17.390625 22.1875 11.75 
Q 26.265625 6.109375 33.40625 6.109375 
Q 40.53125 6.109375 44.609375 11.75 
Q 48.6875 17.390625 48.6875 27.296875 
z
M 18.109375 46.390625 
Q 20.953125 51.265625 25.265625 53.625 
Q 29.59375 56 35.59375 56 
Q 45.5625 56 51.78125 48.09375 
Q 58.015625 40.1875 58.015625 27.296875 
Q 58.015625 14.40625 51.78125 6.484375 
Q 45.5625 -1.421875 35.59375 -1.421875 
Q 29.59375 -1.421875 25.265625 0.953125 
Q 20.953125 3.328125 18.109375 8.203125 
L 18.109375 0 
L 9.078125 0 
L 9.078125 75.984375 
L 18.109375 75.984375 
z
" id="DejaVuSans-62"/>
     <path d="M 10.984375 1.515625 
L 10.984375 10.5 
Q 14.703125 8.734375 18.5 7.8125 
Q 22.3125 6.890625 25.984375 6.890625 
Q 35.75 6.890625 40.890625 13.453125 
Q 46.046875 20.015625 46.78125 33.40625 
Q 43.953125 29.203125 39.59375 26.953125 
Q 35.25 24.703125 29.984375 24.703125 
Q 19.046875 24.703125 12.671875 31.3125 
Q 6.296875 37.9375 6.296875 49.421875 
Q 6.296875 60.640625 12.9375 67.421875 
Q 19.578125 74.21875 30.609375 74.21875 
Q 43.265625 74.21875 49.921875 64.515625 
Q 56.59375 54.828125 56.59375 36.375 
Q 56.59375 19.140625 48.40625 8.859375 
Q 40.234375 -1.421875 26.421875 -1.421875 
Q 22.703125 -1.421875 18.890625 -0.6875 
Q 15.09375 0.046875 10.984375 1.515625 
z
M 30.609375 32.421875 
Q 37.25 32.421875 41.125 36.953125 
Q 45.015625 41.5 45.015625 49.421875 
Q 45.015625 57.28125 41.125 61.84375 
Q 37.25 66.40625 30.609375 66.40625 
Q 23.96875 66.40625 20.09375 61.84375 
Q 16.21875 57.28125 16.21875 49.421875 
Q 16.21875 41.5 20.09375 36.953125 
Q 23.96875 32.421875 30.609375 32.421875 
z
" id="DejaVuSans-39"/>
    </defs>
    <g transform="translate(369.18424 88.886264)scale(0.17 -0.17)">
     <use xlink:href="#DejaVuSans-62"/>
     <use x="63.476562" xlink:href="#DejaVuSans-65"/>
     <use x="125" xlink:href="#DejaVuSans-73"/>
     <use x="177.099609" xlink:href="#DejaVuSans-74"/>
     <use x="216.308594" xlink:href="#DejaVuSans-20"/>
     <use x="248.095703" xlink:href="#DejaVuSans-32"/>
     <use x="311.71875" xlink:href="#DejaVuSans-30"/>
     <use x="375.341797" xlink:href="#DejaVuSans-30"/>
     <use x="438.964844" xlink:href="#DejaVuSans-39"/>
    </g>
   </g>
   <g id="text_18">
    <!-- IPOP-ACTC -->
    <defs>
     <path d="M -0.296875 72.90625 
L 61.375 72.90625 
L 61.375 64.59375 
L 35.5 64.59375 
L 35.5 0 
L 25.59375 0 
L 25.59375 64.59375 
L -0.296875 64.59375 
z
" id="DejaVuSans-54"/>
    </defs>
    <g transform="translate(369.18424 37.551928)scale(0.17 -0.17)">
     <use xlink:href="#DejaVuSans-49"/>
     <use x="29.492188" xlink:href="#DejaVuSans-50"/>
     <use x="89.794922" xlink:href="#DejaVuSans-4f"/>
     <use x="168.505859" xlink:href="#DejaVuSans-50"/>
     <use x="228.777344" xlink:href="#DejaVuSans-2d"/>
     <use x="264.830078" xlink:href="#DejaVuSans-41"/>
     <use x="333.222656" xlink:href="#DejaVuSans-43"/>
     <use x="403.046875" xlink:href="#DejaVuSans-54"/>
     <use x="464.052734" xlink:href="#DejaVuSans-43"/>
    </g>
   </g>
   <g id="text_19">
    <!-- bbob f10, 40-D -->
    <defs>
     <path d="M 19.671875 64.796875 
L 19.671875 8.109375 
L 31.59375 8.109375 
Q 46.6875 8.109375 53.6875 14.9375 
Q 60.6875 21.78125 60.6875 36.53125 
Q 60.6875 51.171875 53.6875 57.984375 
Q 46.6875 64.796875 31.59375 64.796875 
z
M 9.8125 72.90625 
L 30.078125 72.90625 
Q 51.265625 72.90625 61.171875 64.09375 
Q 71.09375 55.28125 71.09375 36.53125 
Q 71.09375 17.671875 61.125 8.828125 
Q 51.171875 0 30.078125 0 
L 9.8125 0 
z
" id="DejaVuSans-44"/>
    </defs>
    <g transform="translate(58.89048 35.290806)scale(0.102 -0.102)">
     <use xlink:href="#DejaVuSans-62"/>
     <use x="63.476562" xlink:href="#DejaVuSans-62"/>
     <use x="126.953125" xlink:href="#DejaVuSans-6f"/>
     <use x="188.134766" xlink:href="#DejaVuSans-62"/>
     <use x="251.611328" xlink:href="#DejaVuSans-20"/>
     <use x="283.398438" xlink:href="#DejaVuSans-66"/>
     <use x="318.603516" xlink:href="#DejaVuSans-31"/>
     <use x="382.226562" xlink:href="#DejaVuSans-30"/>
     <use x="445.849609" xlink:href="#DejaVuSans-2c"/>
     <use x="477.636719" xlink:href="#DejaVuSans-20"/>
     <use x="509.423828" xlink:href="#DejaVuSans-34"/>
     <use x="573.046875" xlink:href="#DejaVuSans-30"/>
     <use x="636.669922" xlink:href="#DejaVuSans-2d"/>
     <use x="672.753906" xlink:href="#DejaVuSans-44"/>
    </g>
    <!-- 51 targets: 100..1e-08 -->
    <defs>
     <path d="M 10.796875 72.90625 
L 49.515625 72.90625 
L 49.515625 64.59375 
L 19.828125 64.59375 
L 19.828125 46.734375 
Q 21.96875 47.46875 24.109375 47.828125 
Q 26.265625 48.1875 28.421875 48.1875 
Q 40.625 48.1875 47.75 41.5 
Q 54.890625 34.8125 54.890625 23.390625 
Q 54.890625 11.625 47.5625 5.09375 
Q 40.234375 -1.421875 26.90625 -1.421875 
Q 22.3125 -1.421875 17.546875 -0.640625 
Q 12.796875 0.140625 7.71875 1.703125 
L 7.71875 11.625 
Q 12.109375 9.234375 16.796875 8.0625 
Q 21.484375 6.890625 26.703125 6.890625 
Q 35.15625 6.890625 40.078125 11.328125 
Q 45.015625 15.765625 45.015625 23.390625 
Q 45.015625 31 40.078125 35.4375 
Q 35.15625 39.890625 26.703125 39.890625 
Q 22.75 39.890625 18.8125 39.015625 
Q 14.890625 38.140625 10.796875 36.28125 
z
" id="DejaVuSans-35"/>
     <path d="M 11.71875 12.40625 
L 22.015625 12.40625 
L 22.015625 0 
L 11.71875 0 
z
M 11.71875 51.703125 
L 22.015625 51.703125 
L 22.015625 39.3125 
L 11.71875 39.3125 
z
" id="DejaVuSans-3a"/>
    </defs>
    <g transform="translate(58.89048 46.712575)scale(0.102 -0.102)">
     <use xlink:href="#DejaVuSans-35"/>
     <use x="63.623047" xlink:href="#DejaVuSans-31"/>
     <use x="127.246094" xlink:href="#DejaVuSans-20"/>
     <use x="159.033203" xlink:href="#DejaVuSans-74"/>
     <use x="198.242188" xlink:href="#DejaVuSans-61"/>
     <use x="259.521484" xlink:href="#DejaVuSans-72"/>
     <use x="300.619141" xlink:href="#DejaVuSans-67"/>
     <use x="364.095703" xlink:href="#DejaVuSans-65"/>
     <use x="425.619141" xlink:href="#DejaVuSans-74"/>
     <use x="464.828125" xlink:href="#DejaVuSans-73"/>
     <use x="516.927734" xlink:href="#DejaVuSans-3a"/>
     <use x="550.619141" xlink:href="#DejaVuSans-20"/>
     <use x="582.40625" xlink:href="#DejaVuSans-31"/>
     <use x="646.029297" xlink:href="#DejaVuSans-30"/>
     <use x="709.652344" xlink:href="#DejaVuSans-30"/>
     <use x="773.275391" xlink:href="#DejaVuSans-2e"/>
     <use x="805.0625" xlink:href="#DejaVuSans-2e"/>
     <use x="836.849609" xlink:href="#DejaVuSans-31"/>
     <use x="900.472656" xlink:href="#DejaVuSans-65"/>
     <use x="961.996094" xlink:href="#DejaVuSans-2d"/>
     <use x="998.080078" xlink:href="#DejaVuSans-30"/>
     <use x="1061.703125" xlink:href="#DejaVuSans-38"/>
    </g>
    <!-- 15 instances -->
    <g transform="translate(58.89048 58.134344)scale(0.102 -0.102)">
     <use xlink:href="#DejaVuSans-31"/>
     <use x="63.623047" xlink:href="#DejaVuSans-35"/>
     <use x="127.246094" xlink:href="#DejaVuSans-20"/>
     <use x="159.033203" xlink:href="#DejaVuSans-69"/>
     <use x="186.816406" xlink:href="#DejaVuSans-6e"/>
     <use x="250.195312" xlink:href="#DejaVuSans-73"/>
     <use x="302.294922" xlink:href="#DejaVuSans-74"/>
     <use x="341.503906" xlink:href="#DejaVuSans-61"/>
     <use x="402.783203" xlink:href="#DejaVuSans-6e"/>
     <use x="466.162109" xlink:href="#DejaVuSans-63"/>
     <use x="521.142578" xlink:href="#DejaVuSans-65"/>
     <use x="582.666016" xlink:href="#DejaVuSans-73"/>
    </g>
   </g>
   <g id="text_20">
    <!-- v0.0.0 -->
    <g style="fill:#808080;" transform="translate(178.96275 290.099912)scale(0.1 -0.1)">
     <use xlink:href="#DejaVuSans-76"/>
     <use x="59.179688" xlink:href="#DejaVuSans-30"/>
     <use x="122.802734" xlink:href="#DejaVuSans-2e"/>
     <use x="154.589844" xlink:href="#DejaVuSans-30"/>
     <use x="218.212891" xlink:href="#DejaVuSans-2e"/>
     <use x="250" xlink:href="#DejaVuSans-30"/>
    </g>
   </g>
   <g id="text_21">
    <!-- 10 Ellipsoid -->
    <g transform="translate(137.284625 18.84)scale(0.2 -0.2)">
     <use xlink:href="#DejaVuSans-31"/>
     <use x="63.623047" xlink:href="#DejaVuSans-30"/>
     <use x="127.246094" xlink:href="#DejaVuSans-20"/>
     <use x="159.033203" xlink:href="#DejaVuSans-45"/>
     <use x="222.216797" xlink:href="#DejaVuSans-6c"/>
     <use x="250" xlink:href="#DejaVuSans-6c"/>
     <use x="277.783203" xlink:href="#DejaVuSans-69"/>
     <use x="305.566406" xlink:href="#DejaVuSans-70"/>
     <use x="369.042969" xlink:href="#DejaVuSans-73"/>
     <use x="421.142578" xlink:href="#DejaVuSans-6f"/>
     <use x="482.324219" xlink:href="#DejaVuSans-69"/>
     <use x="510.107422" xlink:href="#DejaVuSans-64"/>
    </g>
   </g>
  </g>
 </g>
 <defs>
  <clipPath id="p6666c13e75">
   <rect height="270.04" width="277.048" x="56.12" y="24.84"/>
  </clipPath>
 </defs>
</svg>
