<?xml version="1.0" encoding="utf-8" standalone="no"?>
<!DOCTYPE svg PUBLIC "-//W3C//DTD SVG 1.1//EN"
  "http://www.w3.org/Graphics/SVG/1.1/DTD/svg11.dtd">
<!-- Created with matplotlib (http://matplotlib.org/) -->
<svg height="345pt" version="1.1" viewBox="0 0 460 345" width="460pt" xmlns="http://www.w3.org/2000/svg" xmlns:xlink="http://www.w3.org/1999/xlink">
 <defs>
  <style type="text/css">
*{stroke-linecap:butt;stroke-linejoin:round;}
  </style>
 </defs>
 <g id="figure_1">
  <g id="patch_1">
   <path d="M 0 345.6 
L 460.8 345.6 
L 460.8 0 
L 0 0 
z
" style="fill:#ffffff;"/>
  </g>
  <g id="axes_1">
   <g id="patch_2">
    <path d="M 56.12 294.88 
L 333.168 294.88 
L 333.168 24.84 
L 56.12 24.84 
z
" style="fill:#ffffff;"/>
   </g>
   <g id="line2d_1">
    <path d="M 44.205749 294.88 
L 44.205749 284.395046 
L 56.12 284.395046 
L 56.12 279.152568 
L 68.034251 279.152568 
L 68.034251 273.910091 
L 75.003641 273.910091 
L 75.003641 268.667614 
L 81.973032 268.667614 
L 81.973032 263.425137 
L 92.904808 263.425137 
L 92.904808 258.18266 
L 103.231288 258.18266 
L 103.231288 252.940182 
L 107.612537 252.940182 
L 107.612537 247.697705 
L 110.014853 247.697705 
L 110.014853 242.455228 
L 111.448069 242.455228 
L 111.448069 237.212751 
L 115.420563 237.212751 
L 115.420563 231.970274 
L 117.952873 231.970274 
L 117.952873 226.727797 
L 127.470694 226.727797 
L 127.470694 221.485319 
L 131.005861 221.485319 
L 131.005861 216.242842 
L 132.882847 216.242842 
L 132.882847 211.000365 
L 133.176677 211.000365 
L 133.176677 205.757888 
L 136.196864 205.757888 
L 136.196864 200.515411 
L 142.360172 200.515411 
L 142.360172 195.272933 
L 143.462385 195.272933 
L 143.462385 190.030456 
L 143.674593 190.030456 
L 143.674593 184.787979 
L 144.193927 184.787979 
L 144.193927 179.545502 
L 144.498158 179.545502 
L 144.498158 174.303025 
L 144.797098 174.303025 
L 144.797098 169.060547 
L 145.235981 169.060547 
L 145.235981 163.81807 
L 145.284061 163.81807 
L 145.284061 158.575593 
L 146.489148 158.575593 
L 146.489148 153.333116 
L 146.622913 153.333116 
L 146.622913 148.090639 
L 146.667271 148.090639 
L 146.667271 142.848162 
L 146.755644 142.848162 
L 146.755644 137.605684 
L 146.799661 137.605684 
L 146.799661 132.363207 
L 146.887358 132.363207 
L 146.887358 127.12073 
L 147.276552 127.12073 
L 147.276552 121.878253 
L 147.404349 121.878253 
L 147.404349 116.635776 
L 147.531203 116.635776 
L 147.531203 111.393298 
L 147.57328 111.393298 
L 147.57328 106.150821 
L 147.740567 106.150821 
L 147.740567 100.908344 
L 149.815889 100.908344 
L 149.815889 95.665867 
L 151.864991 95.665867 
L 151.864991 90.42339 
L 151.930347 90.42339 
L 151.930347 79.938435 
L 152.027918 79.938435 
L 152.027918 74.695958 
L 152.092658 74.695958 
L 152.092658 69.453481 
L 152.189314 69.453481 
L 152.189314 64.211004 
L 152.221413 64.211004 
L 152.221413 58.968526 
L 152.28543 58.968526 
L 152.28543 53.726049 
L 152.820161 53.726049 
L 152.820161 48.483572 
L 152.851103 48.483572 
L 152.851103 43.241095 
L 152.912822 43.241095 
L 152.912822 32.756141 
L 152.97432 32.756141 
L 152.97432 27.513663 
L 333.168 27.513663 
" style="fill:none;stroke:#f5deb3;stroke-linecap:square;stroke-width:4;"/>
   </g>
   <g id="line2d_2">
    <defs>
     <path d="M -0 7.778175 
L 7.778175 0 
L 0 -7.778175 
L -7.778175 -0 
z
" id="me4a9a9ffab" style="stroke:#f5deb3;stroke-linejoin:miter;stroke-width:1.5;"/>
    </defs>
    <g>
     <use style="fill:#f5deb3;stroke:#f5deb3;stroke-linejoin:miter;stroke-width:1.5;" x="117.952873" xlink:href="#me4a9a9ffab" y="231.970274"/>
     <use style="fill:#f5deb3;stroke:#f5deb3;stroke-linejoin:miter;stroke-width:1.5;" x="146.887358" xlink:href="#me4a9a9ffab" y="132.363207"/>
     <use style="fill:#f5deb3;stroke:#f5deb3;stroke-linejoin:miter;stroke-width:1.5;" x="152.97432" xlink:href="#me4a9a9ffab" y="32.756141"/>
     <use style="fill:#f5deb3;stroke:#f5deb3;stroke-linejoin:miter;stroke-width:1.5;" x="152.97432" xlink:href="#me4a9a9ffab" y="27.513663"/>
     <use style="fill:#f5deb3;stroke:#f5deb3;stroke-linejoin:miter;stroke-width:1.5;" x="152.97432" xlink:href="#me4a9a9ffab" y="27.513663"/>
     <use style="fill:#f5deb3;stroke:#f5deb3;stroke-linejoin:miter;stroke-width:1.5;" x="333.168" xlink:href="#me4a9a9ffab" y="27.513663"/>
    </g>
   </g>
   <g id="line2d_3">
    <path style="fill:none;stroke:#f5deb3;stroke-linecap:square;stroke-width:4;"/>
    <g/>
   </g>
   <g id="line2d_4">
    <path d="M 333.168 27.513663 
L 363.64328 32.86099 
" style="fill:none;stroke:#f5deb3;stroke-linecap:square;stroke-width:4;"/>
    <g>
     <use style="fill:#f5deb3;stroke:#f5deb3;stroke-linejoin:miter;stroke-width:1.5;" x="333.168" xlink:href="#me4a9a9ffab" y="27.513663"/>
     <use style="fill:#f5deb3;stroke:#f5deb3;stroke-linejoin:miter;stroke-width:1.5;" x="363.64328" xlink:href="#me4a9a9ffab" y="32.86099"/>
    </g>
   </g>
   <g id="matplotlib.axis_1">
    <g id="xtick_1">
     <g id="line2d_5">
      <path clip-path="url(#p5c9b9ae22d)" d="M 56.12 294.88 
L 56.12 24.84 
" style="fill:none;stroke:#b0b0b0;stroke-linecap:square;stroke-width:0.8;"/>
     </g>
     <g id="line2d_6">
      <defs>
       <path d="M 0 0 
L 0 3.5 
" id="mfd1a61e446" style="stroke:#000000;stroke-width:0.8;"/>
      </defs>
      <g>
       <use style="stroke:#000000;stroke-width:0.8;" x="56.12" xlink:href="#mfd1a61e446" y="294.88"/>
      </g>
     </g>
     <g id="text_1">
      <!-- 0 -->
      <defs>
       <path d="M 31.78125 66.40625 
Q 24.171875 66.40625 20.328125 58.90625 
Q 16.5 51.421875 16.5 36.375 
Q 16.5 21.390625 20.328125 13.890625 
Q 24.171875 6.390625 31.78125 6.390625 
Q 39.453125 6.390625 43.28125 13.890625 
Q 47.125 21.390625 47.125 36.375 
Q 47.125 51.421875 43.28125 58.90625 
Q 39.453125 66.40625 31.78125 66.40625 
z
M 31.78125 74.21875 
Q 44.046875 74.21875 50.515625 64.515625 
Q 56.984375 54.828125 56.984375 36.375 
Q 56.984375 17.96875 50.515625 8.265625 
Q 44.046875 -1.421875 31.78125 -1.421875 
Q 19.53125 -1.421875 13.0625 8.265625 
Q 6.59375 17.96875 6.59375 36.375 
Q 6.59375 54.828125 13.0625 64.515625 
Q 19.53125 74.21875 31.78125 74.21875 
z
" id="DejaVuSans-30"/>
      </defs>
      <g transform="translate(49.7575 317.076875)scale(0.2 -0.2)">
       <use xlink:href="#DejaVuSans-30"/>
      </g>
     </g>
    </g>
    <g id="xtick_2">
     <g id="line2d_7">
      <path clip-path="url(#p5c9b9ae22d)" d="M 135.276571 294.88 
L 135.276571 24.84 
" style="fill:none;stroke:#b0b0b0;stroke-linecap:square;stroke-width:0.8;"/>
     </g>
     <g id="line2d_8">
      <g>
       <use style="stroke:#000000;stroke-width:0.8;" x="135.276571" xlink:href="#mfd1a61e446" y="294.88"/>
      </g>
     </g>
     <g id="text_2">
      <!-- 2 -->
      <defs>
       <path d="M 19.1875 8.296875 
L 53.609375 8.296875 
L 53.609375 0 
L 7.328125 0 
L 7.328125 8.296875 
Q 12.9375 14.109375 22.625 23.890625 
Q 32.328125 33.6875 34.8125 36.53125 
Q 39.546875 41.84375 41.421875 45.53125 
Q 43.3125 49.21875 43.3125 52.78125 
Q 43.3125 58.59375 39.234375 62.25 
Q 35.15625 65.921875 28.609375 65.921875 
Q 23.96875 65.921875 18.8125 64.3125 
Q 13.671875 62.703125 7.8125 59.421875 
L 7.8125 69.390625 
Q 13.765625 71.78125 18.9375 73 
Q 24.125 74.21875 28.421875 74.21875 
Q 39.75 74.21875 46.484375 68.546875 
Q 53.21875 62.890625 53.21875 53.421875 
Q 53.21875 48.921875 51.53125 44.890625 
Q 49.859375 40.875 45.40625 35.40625 
Q 44.1875 33.984375 37.640625 27.21875 
Q 31.109375 20.453125 19.1875 8.296875 
z
" id="DejaVuSans-32"/>
      </defs>
      <g transform="translate(128.914071 317.076875)scale(0.2 -0.2)">
       <use xlink:href="#DejaVuSans-32"/>
      </g>
     </g>
    </g>
    <g id="xtick_3">
     <g id="line2d_9">
      <path clip-path="url(#p5c9b9ae22d)" d="M 214.433143 294.88 
L 214.433143 24.84 
" style="fill:none;stroke:#b0b0b0;stroke-linecap:square;stroke-width:0.8;"/>
     </g>
     <g id="line2d_10">
      <g>
       <use style="stroke:#000000;stroke-width:0.8;" x="214.433143" xlink:href="#mfd1a61e446" y="294.88"/>
      </g>
     </g>
     <g id="text_3">
      <!-- 4 -->
      <defs>
       <path d="M 37.796875 64.3125 
L 12.890625 25.390625 
L 37.796875 25.390625 
z
M 35.203125 72.90625 
L 47.609375 72.90625 
L 47.609375 25.390625 
L 58.015625 25.390625 
L 58.015625 17.1875 
L 47.609375 17.1875 
L 47.609375 0 
L 37.796875 0 
L 37.796875 17.1875 
L 4.890625 17.1875 
L 4.890625 26.703125 
z
" id="DejaVuSans-34"/>
      </defs>
      <g transform="translate(208.070643 317.076875)scale(0.2 -0.2)">
       <use xlink:href="#DejaVuSans-34"/>
      </g>
     </g>
    </g>
    <g id="xtick_4">
     <g id="line2d_11">
      <path clip-path="url(#p5c9b9ae22d)" d="M 293.589714 294.88 
L 293.589714 24.84 
" style="fill:none;stroke:#b0b0b0;stroke-linecap:square;stroke-width:0.8;"/>
     </g>
     <g id="line2d_12">
      <g>
       <use style="stroke:#000000;stroke-width:0.8;" x="293.589714" xlink:href="#mfd1a61e446" y="294.88"/>
      </g>
     </g>
     <g id="text_4">
      <!-- 6 -->
      <defs>
       <path d="M 33.015625 40.375 
Q 26.375 40.375 22.484375 35.828125 
Q 18.609375 31.296875 18.609375 23.390625 
Q 18.609375 15.53125 22.484375 10.953125 
Q 26.375 6.390625 33.015625 6.390625 
Q 39.65625 6.390625 43.53125 10.953125 
Q 47.40625 15.53125 47.40625 23.390625 
Q 47.40625 31.296875 43.53125 35.828125 
Q 39.65625 40.375 33.015625 40.375 
z
M 52.59375 71.296875 
L 52.59375 62.3125 
Q 48.875 64.0625 45.09375 64.984375 
Q 41.3125 65.921875 37.59375 65.921875 
Q 27.828125 65.921875 22.671875 59.328125 
Q 17.53125 52.734375 16.796875 39.40625 
Q 19.671875 43.65625 24.015625 45.921875 
Q 28.375 48.1875 33.59375 48.1875 
Q 44.578125 48.1875 50.953125 41.515625 
Q 57.328125 34.859375 57.328125 23.390625 
Q 57.328125 12.15625 50.6875 5.359375 
Q 44.046875 -1.421875 33.015625 -1.421875 
Q 20.359375 -1.421875 13.671875 8.265625 
Q 6.984375 17.96875 6.984375 36.375 
Q 6.984375 53.65625 15.1875 63.9375 
Q 23.390625 74.21875 37.203125 74.21875 
Q 40.921875 74.21875 44.703125 73.484375 
Q 48.484375 72.75 52.59375 71.296875 
z
" id="DejaVuSans-36"/>
      </defs>
      <g transform="translate(287.227214 317.076875)scale(0.2 -0.2)">
       <use xlink:href="#DejaVuSans-36"/>
      </g>
     </g>
    </g>
    <g id="xtick_5">
     <g id="line2d_13">
      <path clip-path="url(#p5c9b9ae22d)" d="M 56.12 294.88 
L 56.12 24.84 
" style="fill:none;stroke:#b0b0b0;stroke-linecap:square;stroke-width:0.8;"/>
     </g>
     <g id="line2d_14">
      <defs>
       <path d="M 0 0 
L 0 2 
" id="m7b78d93aba" style="stroke:#000000;stroke-width:0.6;"/>
      </defs>
      <g>
       <use style="stroke:#000000;stroke-width:0.6;" x="56.12" xlink:href="#m7b78d93aba" y="294.88"/>
      </g>
     </g>
    </g>
    <g id="xtick_6">
     <g id="line2d_15">
      <path clip-path="url(#p5c9b9ae22d)" d="M 95.698286 294.88 
L 95.698286 24.84 
" style="fill:none;stroke:#b0b0b0;stroke-linecap:square;stroke-width:0.8;"/>
     </g>
     <g id="line2d_16">
      <g>
       <use style="stroke:#000000;stroke-width:0.6;" x="95.698286" xlink:href="#m7b78d93aba" y="294.88"/>
      </g>
     </g>
    </g>
    <g id="xtick_7">
     <g id="line2d_17">
      <path clip-path="url(#p5c9b9ae22d)" d="M 135.276571 294.88 
L 135.276571 24.84 
" style="fill:none;stroke:#b0b0b0;stroke-linecap:square;stroke-width:0.8;"/>
     </g>
     <g id="line2d_18">
      <g>
       <use style="stroke:#000000;stroke-width:0.6;" x="135.276571" xlink:href="#m7b78d93aba" y="294.88"/>
      </g>
     </g>
    </g>
    <g id="xtick_8">
     <g id="line2d_19">
      <path clip-path="url(#p5c9b9ae22d)" d="M 174.854857 294.88 
L 174.854857 24.84 
" style="fill:none;stroke:#b0b0b0;stroke-linecap:square;stroke-width:0.8;"/>
     </g>
     <g id="line2d_20">
      <g>
       <use style="stroke:#000000;stroke-width:0.6;" x="174.854857" xlink:href="#m7b78d93aba" y="294.88"/>
      </g>
     </g>
    </g>
    <g id="xtick_9">
     <g id="line2d_21">
      <path clip-path="url(#p5c9b9ae22d)" d="M 214.433143 294.88 
L 214.433143 24.84 
" style="fill:none;stroke:#b0b0b0;stroke-linecap:square;stroke-width:0.8;"/>
     </g>
     <g id="line2d_22">
      <g>
       <use style="stroke:#000000;stroke-width:0.6;" x="214.433143" xlink:href="#m7b78d93aba" y="294.88"/>
      </g>
     </g>
    </g>
    <g id="xtick_10">
     <g id="line2d_23">
      <path clip-path="url(#p5c9b9ae22d)" d="M 254.011429 294.88 
L 254.011429 24.84 
" style="fill:none;stroke:#b0b0b0;stroke-linecap:square;stroke-width:0.8;"/>
     </g>
     <g id="line2d_24">
      <g>
       <use style="stroke:#000000;stroke-width:0.6;" x="254.011429" xlink:href="#m7b78d93aba" y="294.88"/>
      </g>
     </g>
    </g>
    <g id="xtick_11">
     <g id="line2d_25">
      <path clip-path="url(#p5c9b9ae22d)" d="M 293.589714 294.88 
L 293.589714 24.84 
" style="fill:none;stroke:#b0b0b0;stroke-linecap:square;stroke-width:0.8;"/>
     </g>
     <g id="line2d_26">
      <g>
       <use style="stroke:#000000;stroke-width:0.6;" x="293.589714" xlink:href="#m7b78d93aba" y="294.88"/>
      </g>
     </g>
    </g>
    <g id="xtick_12">
     <g id="line2d_27">
      <path clip-path="url(#p5c9b9ae22d)" d="M 333.168 294.88 
L 333.168 24.84 
" style="fill:none;stroke:#b0b0b0;stroke-linecap:square;stroke-width:0.8;"/>
     </g>
     <g id="line2d_28">
      <g>
       <use style="stroke:#000000;stroke-width:0.6;" x="333.168" xlink:href="#m7b78d93aba" y="294.88"/>
      </g>
     </g>
    </g>
    <g id="text_5">
     <!-- log10(# f-evals / dimension) -->
     <defs>
      <path d="M 9.421875 75.984375 
L 18.40625 75.984375 
L 18.40625 0 
L 9.421875 0 
z
" id="DejaVuSans-6c"/>
      <path d="M 30.609375 48.390625 
Q 23.390625 48.390625 19.1875 42.75 
Q 14.984375 37.109375 14.984375 27.296875 
Q 14.984375 17.484375 19.15625 11.84375 
Q 23.34375 6.203125 30.609375 6.203125 
Q 37.796875 6.203125 41.984375 11.859375 
Q 46.1875 17.53125 46.1875 27.296875 
Q 46.1875 37.015625 41.984375 42.703125 
Q 37.796875 48.390625 30.609375 48.390625 
z
M 30.609375 56 
Q 42.328125 56 49.015625 48.375 
Q 55.71875 40.765625 55.71875 27.296875 
Q 55.71875 13.875 49.015625 6.21875 
Q 42.328125 -1.421875 30.609375 -1.421875 
Q 18.84375 -1.421875 12.171875 6.21875 
Q 5.515625 13.875 5.515625 27.296875 
Q 5.515625 40.765625 12.171875 48.375 
Q 18.84375 56 30.609375 56 
z
" id="DejaVuSans-6f"/>
      <path d="M 45.40625 27.984375 
Q 45.40625 37.75 41.375 43.109375 
Q 37.359375 48.484375 30.078125 48.484375 
Q 22.859375 48.484375 18.828125 43.109375 
Q 14.796875 37.75 14.796875 27.984375 
Q 14.796875 18.265625 18.828125 12.890625 
Q 22.859375 7.515625 30.078125 7.515625 
Q 37.359375 7.515625 41.375 12.890625 
Q 45.40625 18.265625 45.40625 27.984375 
z
M 54.390625 6.78125 
Q 54.390625 -7.171875 48.1875 -13.984375 
Q 42 -20.796875 29.203125 -20.796875 
Q 24.46875 -20.796875 20.265625 -20.09375 
Q 16.0625 -19.390625 12.109375 -17.921875 
L 12.109375 -9.1875 
Q 16.0625 -11.328125 19.921875 -12.34375 
Q 23.78125 -13.375 27.78125 -13.375 
Q 36.625 -13.375 41.015625 -8.765625 
Q 45.40625 -4.15625 45.40625 5.171875 
L 45.40625 9.625 
Q 42.625 4.78125 38.28125 2.390625 
Q 33.9375 0 27.875 0 
Q 17.828125 0 11.671875 7.65625 
Q 5.515625 15.328125 5.515625 27.984375 
Q 5.515625 40.671875 11.671875 48.328125 
Q 17.828125 56 27.875 56 
Q 33.9375 56 38.28125 53.609375 
Q 42.625 51.21875 45.40625 46.390625 
L 45.40625 54.6875 
L 54.390625 54.6875 
z
" id="DejaVuSans-67"/>
      <path d="M 12.40625 8.296875 
L 28.515625 8.296875 
L 28.515625 63.921875 
L 10.984375 60.40625 
L 10.984375 69.390625 
L 28.421875 72.90625 
L 38.28125 72.90625 
L 38.28125 8.296875 
L 54.390625 8.296875 
L 54.390625 0 
L 12.40625 0 
z
" id="DejaVuSans-31"/>
      <path d="M 31 75.875 
Q 24.46875 64.65625 21.28125 53.65625 
Q 18.109375 42.671875 18.109375 31.390625 
Q 18.109375 20.125 21.3125 9.0625 
Q 24.515625 -2 31 -13.1875 
L 23.1875 -13.1875 
Q 15.875 -1.703125 12.234375 9.375 
Q 8.59375 20.453125 8.59375 31.390625 
Q 8.59375 42.28125 12.203125 53.3125 
Q 15.828125 64.359375 23.1875 75.875 
z
" id="DejaVuSans-28"/>
      <path d="M 51.125 44 
L 36.921875 44 
L 32.8125 27.6875 
L 47.125 27.6875 
z
M 43.796875 71.78125 
L 38.71875 51.515625 
L 52.984375 51.515625 
L 58.109375 71.78125 
L 65.921875 71.78125 
L 60.890625 51.515625 
L 76.125 51.515625 
L 76.125 44 
L 58.984375 44 
L 54.984375 27.6875 
L 70.515625 27.6875 
L 70.515625 20.21875 
L 53.078125 20.21875 
L 48 0 
L 40.1875 0 
L 45.21875 20.21875 
L 30.90625 20.21875 
L 25.875 0 
L 18.015625 0 
L 23.09375 20.21875 
L 7.71875 20.21875 
L 7.71875 27.6875 
L 24.90625 27.6875 
L 29 44 
L 13.28125 44 
L 13.28125 51.515625 
L 30.90625 51.515625 
L 35.890625 71.78125 
z
" id="DejaVuSans-23"/>
      <path id="DejaVuSans-20"/>
      <path d="M 37.109375 75.984375 
L 37.109375 68.5 
L 28.515625 68.5 
Q 23.6875 68.5 21.796875 66.546875 
Q 19.921875 64.59375 19.921875 59.515625 
L 19.921875 54.6875 
L 34.71875 54.6875 
L 34.71875 47.703125 
L 19.921875 47.703125 
L 19.921875 0 
L 10.890625 0 
L 10.890625 47.703125 
L 2.296875 47.703125 
L 2.296875 54.6875 
L 10.890625 54.6875 
L 10.890625 58.5 
Q 10.890625 67.625 15.140625 71.796875 
Q 19.390625 75.984375 28.609375 75.984375 
z
" id="DejaVuSans-66"/>
      <path d="M 4.890625 31.390625 
L 31.203125 31.390625 
L 31.203125 23.390625 
L 4.890625 23.390625 
z
" id="DejaVuSans-2d"/>
      <path d="M 56.203125 29.59375 
L 56.203125 25.203125 
L 14.890625 25.203125 
Q 15.484375 15.921875 20.484375 11.0625 
Q 25.484375 6.203125 34.421875 6.203125 
Q 39.59375 6.203125 44.453125 7.46875 
Q 49.3125 8.734375 54.109375 11.28125 
L 54.109375 2.78125 
Q 49.265625 0.734375 44.1875 -0.34375 
Q 39.109375 -1.421875 33.890625 -1.421875 
Q 20.796875 -1.421875 13.15625 6.1875 
Q 5.515625 13.8125 5.515625 26.8125 
Q 5.515625 40.234375 12.765625 48.109375 
Q 20.015625 56 32.328125 56 
Q 43.359375 56 49.78125 48.890625 
Q 56.203125 41.796875 56.203125 29.59375 
z
M 47.21875 32.234375 
Q 47.125 39.59375 43.09375 43.984375 
Q 39.0625 48.390625 32.421875 48.390625 
Q 24.90625 48.390625 20.390625 44.140625 
Q 15.875 39.890625 15.1875 32.171875 
z
" id="DejaVuSans-65"/>
      <path d="M 2.984375 54.6875 
L 12.5 54.6875 
L 29.59375 8.796875 
L 46.6875 54.6875 
L 56.203125 54.6875 
L 35.6875 0 
L 23.484375 0 
z
" id="DejaVuSans-76"/>
      <path d="M 34.28125 27.484375 
Q 23.390625 27.484375 19.1875 25 
Q 14.984375 22.515625 14.984375 16.5 
Q 14.984375 11.71875 18.140625 8.90625 
Q 21.296875 6.109375 26.703125 6.109375 
Q 34.1875 6.109375 38.703125 11.40625 
Q 43.21875 16.703125 43.21875 25.484375 
L 43.21875 27.484375 
z
M 52.203125 31.203125 
L 52.203125 0 
L 43.21875 0 
L 43.21875 8.296875 
Q 40.140625 3.328125 35.546875 0.953125 
Q 30.953125 -1.421875 24.3125 -1.421875 
Q 15.921875 -1.421875 10.953125 3.296875 
Q 6 8.015625 6 15.921875 
Q 6 25.140625 12.171875 29.828125 
Q 18.359375 34.515625 30.609375 34.515625 
L 43.21875 34.515625 
L 43.21875 35.40625 
Q 43.21875 41.609375 39.140625 45 
Q 35.0625 48.390625 27.6875 48.390625 
Q 23 48.390625 18.546875 47.265625 
Q 14.109375 46.140625 10.015625 43.890625 
L 10.015625 52.203125 
Q 14.9375 54.109375 19.578125 55.046875 
Q 24.21875 56 28.609375 56 
Q 40.484375 56 46.34375 49.84375 
Q 52.203125 43.703125 52.203125 31.203125 
z
" id="DejaVuSans-61"/>
      <path d="M 44.28125 53.078125 
L 44.28125 44.578125 
Q 40.484375 46.53125 36.375 47.5 
Q 32.28125 48.484375 27.875 48.484375 
Q 21.1875 48.484375 17.84375 46.4375 
Q 14.5 44.390625 14.5 40.28125 
Q 14.5 37.15625 16.890625 35.375 
Q 19.28125 33.59375 26.515625 31.984375 
L 29.59375 31.296875 
Q 39.15625 29.25 43.1875 25.515625 
Q 47.21875 21.78125 47.21875 15.09375 
Q 47.21875 7.46875 41.1875 3.015625 
Q 35.15625 -1.421875 24.609375 -1.421875 
Q 20.21875 -1.421875 15.453125 -0.5625 
Q 10.6875 0.296875 5.421875 2 
L 5.421875 11.28125 
Q 10.40625 8.6875 15.234375 7.390625 
Q 20.0625 6.109375 24.8125 6.109375 
Q 31.15625 6.109375 34.5625 8.28125 
Q 37.984375 10.453125 37.984375 14.40625 
Q 37.984375 18.0625 35.515625 20.015625 
Q 33.0625 21.96875 24.703125 23.78125 
L 21.578125 24.515625 
Q 13.234375 26.265625 9.515625 29.90625 
Q 5.8125 33.546875 5.8125 39.890625 
Q 5.8125 47.609375 11.28125 51.796875 
Q 16.75 56 26.8125 56 
Q 31.78125 56 36.171875 55.265625 
Q 40.578125 54.546875 44.28125 53.078125 
z
" id="DejaVuSans-73"/>
      <path d="M 25.390625 72.90625 
L 33.6875 72.90625 
L 8.296875 -9.28125 
L 0 -9.28125 
z
" id="DejaVuSans-2f"/>
      <path d="M 45.40625 46.390625 
L 45.40625 75.984375 
L 54.390625 75.984375 
L 54.390625 0 
L 45.40625 0 
L 45.40625 8.203125 
Q 42.578125 3.328125 38.25 0.953125 
Q 33.9375 -1.421875 27.875 -1.421875 
Q 17.96875 -1.421875 11.734375 6.484375 
Q 5.515625 14.40625 5.515625 27.296875 
Q 5.515625 40.1875 11.734375 48.09375 
Q 17.96875 56 27.875 56 
Q 33.9375 56 38.25 53.625 
Q 42.578125 51.265625 45.40625 46.390625 
z
M 14.796875 27.296875 
Q 14.796875 17.390625 18.875 11.75 
Q 22.953125 6.109375 30.078125 6.109375 
Q 37.203125 6.109375 41.296875 11.75 
Q 45.40625 17.390625 45.40625 27.296875 
Q 45.40625 37.203125 41.296875 42.84375 
Q 37.203125 48.484375 30.078125 48.484375 
Q 22.953125 48.484375 18.875 42.84375 
Q 14.796875 37.203125 14.796875 27.296875 
z
" id="DejaVuSans-64"/>
      <path d="M 9.421875 54.6875 
L 18.40625 54.6875 
L 18.40625 0 
L 9.421875 0 
z
M 9.421875 75.984375 
L 18.40625 75.984375 
L 18.40625 64.59375 
L 9.421875 64.59375 
z
" id="DejaVuSans-69"/>
      <path d="M 52 44.1875 
Q 55.375 50.25 60.0625 53.125 
Q 64.75 56 71.09375 56 
Q 79.640625 56 84.28125 50.015625 
Q 88.921875 44.046875 88.921875 33.015625 
L 88.921875 0 
L 79.890625 0 
L 79.890625 32.71875 
Q 79.890625 40.578125 77.09375 44.375 
Q 74.3125 48.1875 68.609375 48.1875 
Q 61.625 48.1875 57.5625 43.546875 
Q 53.515625 38.921875 53.515625 30.90625 
L 53.515625 0 
L 44.484375 0 
L 44.484375 32.71875 
Q 44.484375 40.625 41.703125 44.40625 
Q 38.921875 48.1875 33.109375 48.1875 
Q 26.21875 48.1875 22.15625 43.53125 
Q 18.109375 38.875 18.109375 30.90625 
L 18.109375 0 
L 9.078125 0 
L 9.078125 54.6875 
L 18.109375 54.6875 
L 18.109375 46.1875 
Q 21.1875 51.21875 25.484375 53.609375 
Q 29.78125 56 35.6875 56 
Q 41.65625 56 45.828125 52.96875 
Q 50 49.953125 52 44.1875 
z
" id="DejaVuSans-6d"/>
      <path d="M 54.890625 33.015625 
L 54.890625 0 
L 45.90625 0 
L 45.90625 32.71875 
Q 45.90625 40.484375 42.875 44.328125 
Q 39.84375 48.1875 33.796875 48.1875 
Q 26.515625 48.1875 22.3125 43.546875 
Q 18.109375 38.921875 18.109375 30.90625 
L 18.109375 0 
L 9.078125 0 
L 9.078125 54.6875 
L 18.109375 54.6875 
L 18.109375 46.1875 
Q 21.34375 51.125 25.703125 53.5625 
Q 30.078125 56 35.796875 56 
Q 45.21875 56 50.046875 50.171875 
Q 54.890625 44.34375 54.890625 33.015625 
z
" id="DejaVuSans-6e"/>
      <path d="M 8.015625 75.875 
L 15.828125 75.875 
Q 23.140625 64.359375 26.78125 53.3125 
Q 30.421875 42.28125 30.421875 31.390625 
Q 30.421875 20.453125 26.78125 9.375 
Q 23.140625 -1.703125 15.828125 -13.1875 
L 8.015625 -13.1875 
Q 14.5 -2 17.703125 9.0625 
Q 20.90625 20.125 20.90625 31.390625 
Q 20.90625 42.671875 17.703125 53.65625 
Q 14.5 64.65625 8.015625 75.875 
z
" id="DejaVuSans-29"/>
     </defs>
     <g transform="translate(73.803219 338.153594)scale(0.17 -0.17)">
      <use xlink:href="#DejaVuSans-6c"/>
      <use x="27.783203" xlink:href="#DejaVuSans-6f"/>
      <use x="88.964844" xlink:href="#DejaVuSans-67"/>
      <use x="152.441406" xlink:href="#DejaVuSans-31"/>
      <use x="216.064453" xlink:href="#DejaVuSans-30"/>
      <use x="279.6875" xlink:href="#DejaVuSans-28"/>
      <use x="318.701172" xlink:href="#DejaVuSans-23"/>
      <use x="402.490234" xlink:href="#DejaVuSans-20"/>
      <use x="434.277344" xlink:href="#DejaVuSans-66"/>
      <use x="469.404297" xlink:href="#DejaVuSans-2d"/>
      <use x="505.488281" xlink:href="#DejaVuSans-65"/>
      <use x="567.011719" xlink:href="#DejaVuSans-76"/>
      <use x="626.191406" xlink:href="#DejaVuSans-61"/>
      <use x="687.470703" xlink:href="#DejaVuSans-6c"/>
      <use x="715.253906" xlink:href="#DejaVuSans-73"/>
      <use x="767.353516" xlink:href="#DejaVuSans-20"/>
      <use x="799.140625" xlink:href="#DejaVuSans-2f"/>
      <use x="832.832031" xlink:href="#DejaVuSans-20"/>
      <use x="864.619141" xlink:href="#DejaVuSans-64"/>
      <use x="928.095703" xlink:href="#DejaVuSans-69"/>
      <use x="955.878906" xlink:href="#DejaVuSans-6d"/>
      <use x="1053.291016" xlink:href="#DejaVuSans-65"/>
      <use x="1114.814453" xlink:href="#DejaVuSans-6e"/>
      <use x="1178.193359" xlink:href="#DejaVuSans-73"/>
      <use x="1230.292969" xlink:href="#DejaVuSans-69"/>
      <use x="1258.076172" xlink:href="#DejaVuSans-6f"/>
      <use x="1319.257812" xlink:href="#DejaVuSans-6e"/>
      <use x="1382.636719" xlink:href="#DejaVuSans-29"/>
     </g>
    </g>
   </g>
   <g id="matplotlib.axis_2">
    <g id="ytick_1">
     <g id="line2d_29">
      <path clip-path="url(#p5c9b9ae22d)" d="M 56.12 294.88 
L 333.168 294.88 
" style="fill:none;stroke:#b0b0b0;stroke-linecap:square;stroke-width:0.8;"/>
     </g>
     <g id="line2d_30">
      <defs>
       <path d="M 0 0 
L -3.5 0 
" id="ma1a628875f" style="stroke:#000000;stroke-width:0.8;"/>
      </defs>
      <g>
       <use style="stroke:#000000;stroke-width:0.8;" x="56.12" xlink:href="#ma1a628875f" y="294.88"/>
      </g>
     </g>
     <g id="text_6">
      <!-- 0.0 -->
      <defs>
       <path d="M 10.6875 12.40625 
L 21 12.40625 
L 21 0 
L 10.6875 0 
z
" id="DejaVuSans-2e"/>
      </defs>
      <g transform="translate(23.675 300.95875)scale(0.16 -0.16)">
       <use xlink:href="#DejaVuSans-30"/>
       <use x="63.623047" xlink:href="#DejaVuSans-2e"/>
       <use x="95.410156" xlink:href="#DejaVuSans-30"/>
      </g>
     </g>
    </g>
    <g id="ytick_2">
     <g id="line2d_31">
      <path clip-path="url(#p5c9b9ae22d)" d="M 56.12 241.406733 
L 333.168 241.406733 
" style="fill:none;stroke:#b0b0b0;stroke-linecap:square;stroke-width:0.8;"/>
     </g>
     <g id="line2d_32">
      <g>
       <use style="stroke:#000000;stroke-width:0.8;" x="56.12" xlink:href="#ma1a628875f" y="241.406733"/>
      </g>
     </g>
     <g id="text_7">
      <!-- 0.2 -->
      <g transform="translate(23.675 247.485483)scale(0.16 -0.16)">
       <use xlink:href="#DejaVuSans-30"/>
       <use x="63.623047" xlink:href="#DejaVuSans-2e"/>
       <use x="95.410156" xlink:href="#DejaVuSans-32"/>
      </g>
     </g>
    </g>
    <g id="ytick_3">
     <g id="line2d_33">
      <path clip-path="url(#p5c9b9ae22d)" d="M 56.12 187.933465 
L 333.168 187.933465 
" style="fill:none;stroke:#b0b0b0;stroke-linecap:square;stroke-width:0.8;"/>
     </g>
     <g id="line2d_34">
      <g>
       <use style="stroke:#000000;stroke-width:0.8;" x="56.12" xlink:href="#ma1a628875f" y="187.933465"/>
      </g>
     </g>
     <g id="text_8">
      <!-- 0.4 -->
      <g transform="translate(23.675 194.012215)scale(0.16 -0.16)">
       <use xlink:href="#DejaVuSans-30"/>
       <use x="63.623047" xlink:href="#DejaVuSans-2e"/>
       <use x="95.410156" xlink:href="#DejaVuSans-34"/>
      </g>
     </g>
    </g>
    <g id="ytick_4">
     <g id="line2d_35">
      <path clip-path="url(#p5c9b9ae22d)" d="M 56.12 134.460198 
L 333.168 134.460198 
" style="fill:none;stroke:#b0b0b0;stroke-linecap:square;stroke-width:0.8;"/>
     </g>
     <g id="line2d_36">
      <g>
       <use style="stroke:#000000;stroke-width:0.8;" x="56.12" xlink:href="#ma1a628875f" y="134.460198"/>
      </g>
     </g>
     <g id="text_9">
      <!-- 0.6 -->
      <g transform="translate(23.675 140.538948)scale(0.16 -0.16)">
       <use xlink:href="#DejaVuSans-30"/>
       <use x="63.623047" xlink:href="#DejaVuSans-2e"/>
       <use x="95.410156" xlink:href="#DejaVuSans-36"/>
      </g>
     </g>
    </g>
    <g id="ytick_5">
     <g id="line2d_37">
      <path clip-path="url(#p5c9b9ae22d)" d="M 56.12 80.986931 
L 333.168 80.986931 
" style="fill:none;stroke:#b0b0b0;stroke-linecap:square;stroke-width:0.8;"/>
     </g>
     <g id="line2d_38">
      <g>
       <use style="stroke:#000000;stroke-width:0.8;" x="56.12" xlink:href="#ma1a628875f" y="80.986931"/>
      </g>
     </g>
     <g id="text_10">
      <!-- 0.8 -->
      <defs>
       <path d="M 31.78125 34.625 
Q 24.75 34.625 20.71875 30.859375 
Q 16.703125 27.09375 16.703125 20.515625 
Q 16.703125 13.921875 20.71875 10.15625 
Q 24.75 6.390625 31.78125 6.390625 
Q 38.8125 6.390625 42.859375 10.171875 
Q 46.921875 13.96875 46.921875 20.515625 
Q 46.921875 27.09375 42.890625 30.859375 
Q 38.875 34.625 31.78125 34.625 
z
M 21.921875 38.8125 
Q 15.578125 40.375 12.03125 44.71875 
Q 8.5 49.078125 8.5 55.328125 
Q 8.5 64.0625 14.71875 69.140625 
Q 20.953125 74.21875 31.78125 74.21875 
Q 42.671875 74.21875 48.875 69.140625 
Q 55.078125 64.0625 55.078125 55.328125 
Q 55.078125 49.078125 51.53125 44.71875 
Q 48 40.375 41.703125 38.8125 
Q 48.828125 37.15625 52.796875 32.3125 
Q 56.78125 27.484375 56.78125 20.515625 
Q 56.78125 9.90625 50.3125 4.234375 
Q 43.84375 -1.421875 31.78125 -1.421875 
Q 19.734375 -1.421875 13.25 4.234375 
Q 6.78125 9.90625 6.78125 20.515625 
Q 6.78125 27.484375 10.78125 32.3125 
Q 14.796875 37.15625 21.921875 38.8125 
z
M 18.3125 54.390625 
Q 18.3125 48.734375 21.84375 45.5625 
Q 25.390625 42.390625 31.78125 42.390625 
Q 38.140625 42.390625 41.71875 45.5625 
Q 45.3125 48.734375 45.3125 54.390625 
Q 45.3125 60.0625 41.71875 63.234375 
Q 38.140625 66.40625 31.78125 66.40625 
Q 25.390625 66.40625 21.84375 63.234375 
Q 18.3125 60.0625 18.3125 54.390625 
z
" id="DejaVuSans-38"/>
      </defs>
      <g transform="translate(23.675 87.065681)scale(0.16 -0.16)">
       <use xlink:href="#DejaVuSans-30"/>
       <use x="63.623047" xlink:href="#DejaVuSans-2e"/>
       <use x="95.410156" xlink:href="#DejaVuSans-38"/>
      </g>
     </g>
    </g>
    <g id="ytick_6">
     <g id="line2d_39">
      <path clip-path="url(#p5c9b9ae22d)" d="M 56.12 27.513663 
L 333.168 27.513663 
" style="fill:none;stroke:#b0b0b0;stroke-linecap:square;stroke-width:0.8;"/>
     </g>
     <g id="line2d_40">
      <g>
       <use style="stroke:#000000;stroke-width:0.8;" x="56.12" xlink:href="#ma1a628875f" y="27.513663"/>
      </g>
     </g>
     <g id="text_11">
      <!-- 1.0 -->
      <g transform="translate(23.675 33.592413)scale(0.16 -0.16)">
       <use xlink:href="#DejaVuSans-31"/>
       <use x="63.623047" xlink:href="#DejaVuSans-2e"/>
       <use x="95.410156" xlink:href="#DejaVuSans-30"/>
      </g>
     </g>
    </g>
    <g id="text_12">
     <!-- Fraction of function,target pairs -->
     <defs>
      <path d="M 9.8125 72.90625 
L 51.703125 72.90625 
L 51.703125 64.59375 
L 19.671875 64.59375 
L 19.671875 43.109375 
L 48.578125 43.109375 
L 48.578125 34.8125 
L 19.671875 34.8125 
L 19.671875 0 
L 9.8125 0 
z
" id="DejaVuSans-46"/>
      <path d="M 41.109375 46.296875 
Q 39.59375 47.171875 37.8125 47.578125 
Q 36.03125 48 33.890625 48 
Q 26.265625 48 22.1875 43.046875 
Q 18.109375 38.09375 18.109375 28.8125 
L 18.109375 0 
L 9.078125 0 
L 9.078125 54.6875 
L 18.109375 54.6875 
L 18.109375 46.1875 
Q 20.953125 51.171875 25.484375 53.578125 
Q 30.03125 56 36.53125 56 
Q 37.453125 56 38.578125 55.875 
Q 39.703125 55.765625 41.0625 55.515625 
z
" id="DejaVuSans-72"/>
      <path d="M 48.78125 52.59375 
L 48.78125 44.1875 
Q 44.96875 46.296875 41.140625 47.34375 
Q 37.3125 48.390625 33.40625 48.390625 
Q 24.65625 48.390625 19.8125 42.84375 
Q 14.984375 37.3125 14.984375 27.296875 
Q 14.984375 17.28125 19.8125 11.734375 
Q 24.65625 6.203125 33.40625 6.203125 
Q 37.3125 6.203125 41.140625 7.25 
Q 44.96875 8.296875 48.78125 10.40625 
L 48.78125 2.09375 
Q 45.015625 0.34375 40.984375 -0.53125 
Q 36.96875 -1.421875 32.421875 -1.421875 
Q 20.0625 -1.421875 12.78125 6.34375 
Q 5.515625 14.109375 5.515625 27.296875 
Q 5.515625 40.671875 12.859375 48.328125 
Q 20.21875 56 33.015625 56 
Q 37.15625 56 41.109375 55.140625 
Q 45.0625 54.296875 48.78125 52.59375 
z
" id="DejaVuSans-63"/>
      <path d="M 18.3125 70.21875 
L 18.3125 54.6875 
L 36.8125 54.6875 
L 36.8125 47.703125 
L 18.3125 47.703125 
L 18.3125 18.015625 
Q 18.3125 11.328125 20.140625 9.421875 
Q 21.96875 7.515625 27.59375 7.515625 
L 36.8125 7.515625 
L 36.8125 0 
L 27.59375 0 
Q 17.1875 0 13.234375 3.875 
Q 9.28125 7.765625 9.28125 18.015625 
L 9.28125 47.703125 
L 2.6875 47.703125 
L 2.6875 54.6875 
L 9.28125 54.6875 
L 9.28125 70.21875 
z
" id="DejaVuSans-74"/>
      <path d="M 8.5 21.578125 
L 8.5 54.6875 
L 17.484375 54.6875 
L 17.484375 21.921875 
Q 17.484375 14.15625 20.5 10.265625 
Q 23.53125 6.390625 29.59375 6.390625 
Q 36.859375 6.390625 41.078125 11.03125 
Q 45.3125 15.671875 45.3125 23.6875 
L 45.3125 54.6875 
L 54.296875 54.6875 
L 54.296875 0 
L 45.3125 0 
L 45.3125 8.40625 
Q 42.046875 3.421875 37.71875 1 
Q 33.40625 -1.421875 27.6875 -1.421875 
Q 18.265625 -1.421875 13.375 4.4375 
Q 8.5 10.296875 8.5 21.578125 
z
M 31.109375 56 
z
" id="DejaVuSans-75"/>
      <path d="M 11.71875 12.40625 
L 22.015625 12.40625 
L 22.015625 4 
L 14.015625 -11.625 
L 7.71875 -11.625 
L 11.71875 4 
z
" id="DejaVuSans-2c"/>
      <path d="M 18.109375 8.203125 
L 18.109375 -20.796875 
L 9.078125 -20.796875 
L 9.078125 54.6875 
L 18.109375 54.6875 
L 18.109375 46.390625 
Q 20.953125 51.265625 25.265625 53.625 
Q 29.59375 56 35.59375 56 
Q 45.5625 56 51.78125 48.09375 
Q 58.015625 40.1875 58.015625 27.296875 
Q 58.015625 14.40625 51.78125 6.484375 
Q 45.5625 -1.421875 35.59375 -1.421875 
Q 29.59375 -1.421875 25.265625 0.953125 
Q 20.953125 3.328125 18.109375 8.203125 
z
M 48.6875 27.296875 
Q 48.6875 37.203125 44.609375 42.84375 
Q 40.53125 48.484375 33.40625 48.484375 
Q 26.265625 48.484375 22.1875 42.84375 
Q 18.109375 37.203125 18.109375 27.296875 
Q 18.109375 17.390625 22.1875 11.75 
Q 26.265625 6.109375 33.40625 6.109375 
Q 40.53125 6.109375 44.609375 11.75 
Q 48.6875 17.390625 48.6875 27.296875 
z
" id="DejaVuSans-70"/>
     </defs>
     <g transform="translate(16.139531 294.999375)rotate(-90)scale(0.17 -0.17)">
      <use xlink:href="#DejaVuSans-46"/>
      <use x="57.410156" xlink:href="#DejaVuSans-72"/>
      <use x="98.523438" xlink:href="#DejaVuSans-61"/>
      <use x="159.802734" xlink:href="#DejaVuSans-63"/>
      <use x="214.783203" xlink:href="#DejaVuSans-74"/>
      <use x="253.992188" xlink:href="#DejaVuSans-69"/>
      <use x="281.775391" xlink:href="#DejaVuSans-6f"/>
      <use x="342.957031" xlink:href="#DejaVuSans-6e"/>
      <use x="406.335938" xlink:href="#DejaVuSans-20"/>
      <use x="438.123047" xlink:href="#DejaVuSans-6f"/>
      <use x="499.304688" xlink:href="#DejaVuSans-66"/>
      <use x="534.509766" xlink:href="#DejaVuSans-20"/>
      <use x="566.296875" xlink:href="#DejaVuSans-66"/>
      <use x="601.501953" xlink:href="#DejaVuSans-75"/>
      <use x="664.880859" xlink:href="#DejaVuSans-6e"/>
      <use x="728.259766" xlink:href="#DejaVuSans-63"/>
      <use x="783.240234" xlink:href="#DejaVuSans-74"/>
      <use x="822.449219" xlink:href="#DejaVuSans-69"/>
      <use x="850.232422" xlink:href="#DejaVuSans-6f"/>
      <use x="911.414062" xlink:href="#DejaVuSans-6e"/>
      <use x="974.792969" xlink:href="#DejaVuSans-2c"/>
      <use x="1006.580078" xlink:href="#DejaVuSans-74"/>
      <use x="1045.789062" xlink:href="#DejaVuSans-61"/>
      <use x="1107.068359" xlink:href="#DejaVuSans-72"/>
      <use x="1148.166016" xlink:href="#DejaVuSans-67"/>
      <use x="1211.642578" xlink:href="#DejaVuSans-65"/>
      <use x="1273.166016" xlink:href="#DejaVuSans-74"/>
      <use x="1312.375" xlink:href="#DejaVuSans-20"/>
      <use x="1344.162109" xlink:href="#DejaVuSans-70"/>
      <use x="1407.638672" xlink:href="#DejaVuSans-61"/>
      <use x="1468.917969" xlink:href="#DejaVuSans-69"/>
      <use x="1496.701172" xlink:href="#DejaVuSans-72"/>
      <use x="1537.814453" xlink:href="#DejaVuSans-73"/>
     </g>
    </g>
   </g>
   <g id="line2d_41">
    <defs>
     <path d="M 0 1.5 
C 0.397805 1.5 0.77937 1.341951 1.06066 1.06066 
C 1.341951 0.77937 1.5 0.397805 1.5 0 
C 1.5 -0.397805 1.341951 -0.77937 1.06066 -1.06066 
C 0.77937 -1.341951 0.397805 -1.5 0 -1.5 
C -0.397805 -1.5 -0.77937 -1.341951 -1.06066 -1.06066 
C -1.341951 -0.77937 -1.5 -0.397805 -1.5 0 
C -1.5 0.397805 -1.341951 0.77937 -1.06066 1.06066 
C -0.77937 1.341951 -0.397805 1.5 0 1.5 
z
" id="m5a6f54ad92" style="stroke:#f5deb3;"/>
    </defs>
    <g>
     <use style="fill:#f5deb3;stroke:#f5deb3;" x="152.97432" xlink:href="#m5a6f54ad92" y="27.513663"/>
     <use style="fill:#f5deb3;stroke:#f5deb3;" x="152.97432" xlink:href="#m5a6f54ad92" y="27.513663"/>
    </g>
   </g>
   <g id="line2d_42">
    <defs>
     <path d="M 0 1.5 
C 0.397805 1.5 0.77937 1.341951 1.06066 1.06066 
C 1.341951 0.77937 1.5 0.397805 1.5 0 
C 1.5 -0.397805 1.341951 -0.77937 1.06066 -1.06066 
C 0.77937 -1.341951 0.397805 -1.5 0 -1.5 
C -0.397805 -1.5 -0.77937 -1.341951 -1.06066 -1.06066 
C -1.341951 -0.77937 -1.5 -0.397805 -1.5 0 
C -1.5 0.397805 -1.341951 0.77937 -1.06066 1.06066 
C -0.77937 1.341951 -0.397805 1.5 0 1.5 
z
" id="me7ebe8fa05" style="stroke:#000080;"/>
    </defs>
    <g>
     <use style="fill:#000080;stroke:#000080;" x="176.978413" xlink:href="#me7ebe8fa05" y="273.910091"/>
     <use style="fill:#000080;stroke:#000080;" x="176.978413" xlink:href="#me7ebe8fa05" y="273.910091"/>
    </g>
   </g>
   <g id="line2d_43">
    <path d="M 44.205749 294.88 
L 44.205749 285.443541 
L 111.788449 285.443541 
L 111.788449 284.919293 
L 114.581927 284.919293 
L 114.581927 284.395046 
L 115.145539 284.395046 
L 115.145539 283.870798 
L 115.957752 283.870798 
L 115.957752 283.34655 
L 117.231566 283.34655 
L 117.231566 282.298055 
L 118.645127 282.298055 
L 118.645127 281.249559 
L 125.764637 281.249559 
L 125.764637 280.725312 
L 133.560797 280.725312 
L 133.560797 280.201064 
L 134.029181 280.201064 
L 134.029181 279.676816 
L 134.213018 279.676816 
L 134.213018 279.152568 
L 134.304205 279.152568 
L 134.304205 278.628321 
L 135.784647 278.628321 
L 135.784647 278.104073 
L 138.974042 278.104073 
L 138.974042 277.579825 
L 144.039767 277.579825 
L 144.039767 277.055578 
L 144.895601 277.055578 
L 144.895601 276.53133 
L 148.907027 276.53133 
L 148.907027 276.007082 
L 157.554689 276.007082 
L 157.554689 275.482834 
L 165.550912 275.482834 
L 165.550912 274.958587 
L 175.245718 274.958587 
L 175.245718 274.434339 
L 176.978413 274.434339 
L 176.978413 273.910091 
L 333.168 273.910091 
" style="fill:none;stroke:#000080;stroke-linecap:square;stroke-width:1.5;"/>
   </g>
   <g id="line2d_44">
    <defs>
     <path d="M 0 6 
C 1.591219 6 3.117479 5.367802 4.242641 4.242641 
C 5.367802 3.117479 6 1.591219 6 0 
C 6 -1.591219 5.367802 -3.117479 4.242641 -4.242641 
C 3.117479 -5.367802 1.591219 -6 0 -6 
C -1.591219 -6 -3.117479 -5.367802 -4.242641 -4.242641 
C -5.367802 -3.117479 -6 -1.591219 -6 0 
C -6 1.591219 -5.367802 3.117479 -4.242641 4.242641 
C -3.117479 5.367802 -1.591219 6 0 6 
z
" id="m807e7dc1d1" style="stroke:#000080;stroke-width:1.5;"/>
    </defs>
    <g>
     <use style="fill:none;stroke:#000080;stroke-width:1.5;" x="148.907027" xlink:href="#m807e7dc1d1" y="276.53133"/>
     <use style="fill:none;stroke:#000080;stroke-width:1.5;" x="176.978413" xlink:href="#m807e7dc1d1" y="274.434339"/>
     <use style="fill:none;stroke:#000080;stroke-width:1.5;" x="176.978413" xlink:href="#m807e7dc1d1" y="273.910091"/>
     <use style="fill:none;stroke:#000080;stroke-width:1.5;" x="176.978413" xlink:href="#m807e7dc1d1" y="273.910091"/>
     <use style="fill:none;stroke:#000080;stroke-width:1.5;" x="333.168" xlink:href="#m807e7dc1d1" y="273.910091"/>
    </g>
   </g>
   <g id="line2d_45">
    <path style="fill:none;stroke:#000080;stroke-linecap:square;stroke-width:1.5;"/>
    <g/>
   </g>
   <g id="line2d_46">
    <path clip-path="url(#p5c9b9ae22d)" d="M 114.866043 284.395046 
" style="fill:none;stroke:#000080;stroke-linecap:square;stroke-width:1.5;"/>
    <defs>
     <path d="M -12 12 
L 12 -12 
M -12 -12 
L 12 12 
" id="m368c41fa27" style="stroke:#000080;"/>
    </defs>
    <g clip-path="url(#p5c9b9ae22d)">
     <use style="fill:#000080;stroke:#000080;" x="114.866043" xlink:href="#m368c41fa27" y="284.395046"/>
    </g>
   </g>
   <g id="line2d_47">
    <defs>
     <path d="M 0 1.5 
C 0.397805 1.5 0.77937 1.341951 1.06066 1.06066 
C 1.341951 0.77937 1.5 0.397805 1.5 0 
C 1.5 -0.397805 1.341951 -0.77937 1.06066 -1.06066 
C 0.77937 -1.341951 0.397805 -1.5 0 -1.5 
C -0.397805 -1.5 -0.77937 -1.341951 -1.06066 -1.06066 
C -1.341951 -0.77937 -1.5 -0.397805 -1.5 0 
C -1.5 0.397805 -1.341951 0.77937 -1.06066 1.06066 
C -0.77937 1.341951 -0.397805 1.5 0 1.5 
z
" id="m7ca133e3da" style="stroke:#ff00ff;"/>
    </defs>
    <g>
     <use style="fill:#ff00ff;stroke:#ff00ff;" x="245.776895" xlink:href="#m7ca133e3da" y="184.787979"/>
     <use style="fill:#ff00ff;stroke:#ff00ff;" x="245.776895" xlink:href="#m7ca133e3da" y="184.787979"/>
    </g>
   </g>
   <g id="line2d_48">
    <path d="M 44.205749 294.88 
L 44.205749 285.967789 
L 56.12 285.967789 
L 56.12 282.822302 
L 63.08939 282.822302 
L 63.08939 279.152568 
L 68.034251 279.152568 
L 68.034251 278.104073 
L 71.869783 278.104073 
L 71.869783 276.007082 
L 75.003641 276.007082 
L 75.003641 274.958587 
L 79.948502 274.958587 
L 79.948502 273.910091 
L 83.784035 273.910091 
L 83.784035 273.385844 
L 86.917893 273.385844 
L 86.917893 270.764605 
L 89.567532 270.764605 
L 89.567532 269.716109 
L 90.753425 269.716109 
L 90.753425 269.191862 
L 92.904808 269.191862 
L 92.904808 268.667614 
L 94.816624 268.667614 
L 94.816624 268.143366 
L 96.536922 268.143366 
L 96.536922 267.094871 
L 98.832144 267.094871 
L 98.832144 266.046375 
L 102.667676 266.046375 
L 102.667676 265.522128 
L 104.819059 265.522128 
L 104.819059 264.99788 
L 111.448069 264.99788 
L 111.448069 263.949385 
L 112.122219 263.949385 
L 112.122219 262.900889 
L 113.396034 262.900889 
L 113.396034 260.803898 
L 115.691256 260.803898 
L 115.691256 260.279651 
L 119.95122 260.279651 
L 119.95122 257.658412 
L 121.16504 257.658412 
L 121.16504 257.134164 
L 123.533353 257.134164 
L 123.533353 256.609917 
L 130.445921 256.609917 
L 130.445921 256.085669 
L 135.276571 256.085669 
L 135.276571 255.037173 
L 136.67882 255.037173 
L 136.67882 253.988678 
L 137.14763 253.988678 
L 137.14763 252.415935 
L 139.586771 252.415935 
L 139.586771 251.891687 
L 140.048681 251.891687 
L 140.048681 250.318944 
L 140.561812 250.318944 
L 140.561812 246.64921 
L 141.544287 246.64921 
L 141.544287 245.600714 
L 142.920112 245.600714 
L 142.920112 245.076467 
L 144.993542 245.076467 
L 144.993542 243.503724 
L 147.233741 243.503724 
L 147.233741 242.455228 
L 151.434009 242.455228 
L 151.434009 241.93098 
L 160.126894 241.93098 
L 160.126894 240.882485 
L 163.925945 240.882485 
L 163.925945 240.358237 
L 168.46432 240.358237 
L 168.46432 239.83399 
L 169.551042 239.83399 
L 169.551042 238.785494 
L 169.887063 238.785494 
L 169.887063 238.261246 
L 170.194112 238.261246 
L 170.194112 237.212751 
L 172.822806 237.212751 
L 172.822806 236.688503 
L 176.925162 236.688503 
L 176.925162 236.164255 
L 177.728932 236.164255 
L 177.728932 235.640008 
L 179.158367 235.640008 
L 179.158367 235.11576 
L 179.724353 235.11576 
L 179.724353 234.591512 
L 180.347382 234.591512 
L 180.347382 234.067265 
L 180.533677 234.067265 
L 180.539852 233.018769 
L 180.864002 233.018769 
L 180.912404 231.970274 
L 181.152389 231.970274 
L 181.170253 230.921778 
L 181.277052 230.921778 
L 181.324306 228.824787 
L 181.482836 228.824787 
L 181.482836 228.30054 
L 181.829976 228.30054 
L 181.938458 226.203549 
L 183.761978 226.203549 
L 183.761978 225.679301 
L 184.688625 225.679301 
L 184.688625 224.630806 
L 184.958105 224.630806 
L 184.958105 224.106558 
L 185.447628 224.106558 
L 185.447628 223.58231 
L 185.668944 223.58231 
L 185.668944 223.058063 
L 186.112138 223.058063 
L 186.112138 222.533815 
L 186.557247 222.533815 
L 186.557247 222.009567 
L 186.769108 222.009567 
L 186.769108 221.485319 
L 186.901807 221.485319 
L 186.974144 219.912576 
L 187.07153 219.912576 
L 187.07153 219.388328 
L 187.323014 219.388328 
L 187.323014 218.864081 
L 187.693473 218.864081 
L 187.693473 218.339833 
L 188.391727 218.339833 
L 188.391727 217.291338 
L 188.547422 217.291338 
L 188.547422 215.718594 
L 190.260891 215.718594 
L 190.299427 214.670099 
L 191.729003 214.670099 
L 191.729003 214.145851 
L 192.302169 214.145851 
L 192.302169 213.621604 
L 192.705394 213.621604 
L 192.705394 212.573108 
L 193.28274 212.573108 
L 193.28274 212.04886 
L 193.812822 212.04886 
L 193.898182 211.000365 
L 193.985944 211.000365 
L 193.985944 210.476117 
L 194.162931 210.476117 
L 194.227093 209.427622 
L 194.653359 209.427622 
L 194.680501 208.379126 
L 195.114323 208.379126 
L 195.114323 207.854879 
L 196.544577 207.854879 
L 196.544577 207.330631 
L 197.60151 207.330631 
L 197.60151 206.806383 
L 199.174739 206.806383 
L 199.174739 206.282136 
L 199.291272 206.282136 
L 199.291272 205.757888 
L 199.942435 205.757888 
L 199.942435 205.23364 
L 200.492644 205.23364 
L 200.492644 204.709392 
L 200.846745 204.709392 
L 200.846745 204.185145 
L 200.973209 204.185145 
L 200.973209 203.660897 
L 201.160247 203.660897 
L 201.167687 202.612401 
L 204.037973 202.612401 
L 204.037973 202.088154 
L 204.306502 202.088154 
L 204.306502 201.563906 
L 205.02106 201.563906 
L 205.02106 201.039658 
L 207.291001 201.039658 
L 207.291001 200.515411 
L 209.383687 200.515411 
L 209.477966 199.466915 
L 210.481194 199.466915 
L 210.481194 198.942667 
L 210.950625 198.942667 
L 210.988471 197.894172 
L 212.73635 197.894172 
L 212.740144 196.845677 
L 214.391841 196.845677 
L 214.391841 196.321429 
L 214.573515 196.321429 
L 214.573515 195.797181 
L 214.777735 195.797181 
L 214.777735 195.272933 
L 216.920445 195.272933 
L 216.920445 194.748686 
L 218.720587 194.748686 
L 218.720587 194.224438 
L 219.667755 194.224438 
L 219.667755 193.70019 
L 219.80537 193.70019 
L 219.80537 193.175943 
L 220.518459 193.175943 
L 220.518459 192.651695 
L 222.760366 192.651695 
L 222.760366 192.127447 
L 223.545825 192.127447 
L 223.545825 191.603199 
L 223.770937 191.603199 
L 223.778922 190.554704 
L 223.887356 190.554704 
L 223.887356 190.030456 
L 224.775363 190.030456 
L 224.775363 189.506209 
L 225.355008 189.506209 
L 225.355008 188.981961 
L 227.03311 188.981961 
L 227.03311 188.457713 
L 234.251191 188.457713 
L 234.251191 187.933465 
L 235.393183 187.933465 
L 235.45603 186.88497 
L 236.593287 186.88497 
L 236.593287 186.360722 
L 237.996627 186.360722 
L 237.996627 185.836474 
L 245.327023 185.836474 
L 245.327023 185.312227 
L 245.776895 185.312227 
L 245.776895 184.787979 
L 333.168 184.787979 
L 333.168 184.787979 
" style="fill:none;stroke:#ff00ff;stroke-linecap:square;stroke-width:1.5;"/>
   </g>
   <g id="line2d_49">
    <defs>
     <path d="M -0 8.485281 
L 5.091169 0 
L 0 -8.485281 
L -5.091169 -0 
z
" id="m83518517aa" style="stroke:#ff00ff;stroke-linejoin:miter;stroke-width:1.5;"/>
    </defs>
    <g>
     <use style="fill:none;stroke:#ff00ff;stroke-linejoin:miter;stroke-width:1.5;" x="96.536922" xlink:href="#m83518517aa" y="268.143366"/>
     <use style="fill:none;stroke:#ff00ff;stroke-linejoin:miter;stroke-width:1.5;" x="180.864002" xlink:href="#m83518517aa" y="233.018769"/>
     <use style="fill:none;stroke:#ff00ff;stroke-linejoin:miter;stroke-width:1.5;" x="223.887356" xlink:href="#m83518517aa" y="190.554704"/>
     <use style="fill:none;stroke:#ff00ff;stroke-linejoin:miter;stroke-width:1.5;" x="245.776895" xlink:href="#m83518517aa" y="184.787979"/>
     <use style="fill:none;stroke:#ff00ff;stroke-linejoin:miter;stroke-width:1.5;" x="245.776895" xlink:href="#m83518517aa" y="184.787979"/>
     <use style="fill:none;stroke:#ff00ff;stroke-linejoin:miter;stroke-width:1.5;" x="333.168" xlink:href="#m83518517aa" y="184.787979"/>
    </g>
   </g>
   <g id="line2d_50">
    <path style="fill:none;stroke:#ff00ff;stroke-linecap:square;stroke-width:1.5;"/>
    <g/>
   </g>
   <g id="line2d_51">
    <path clip-path="url(#p5c9b9ae22d)" d="M 178.216382 235.640008 
" style="fill:none;stroke:#ff00ff;stroke-linecap:square;stroke-width:1.5;"/>
    <defs>
     <path d="M -12 12 
L 12 -12 
M -12 -12 
L 12 12 
" id="m8000cba449" style="stroke:#ff00ff;"/>
    </defs>
    <g clip-path="url(#p5c9b9ae22d)">
     <use style="fill:#ff00ff;stroke:#ff00ff;" x="178.216382" xlink:href="#m8000cba449" y="235.640008"/>
    </g>
   </g>
   <g id="line2d_52">
    <defs>
     <path d="M 0 1.5 
C 0.397805 1.5 0.77937 1.341951 1.06066 1.06066 
C 1.341951 0.77937 1.5 0.397805 1.5 0 
C 1.5 -0.397805 1.341951 -0.77937 1.06066 -1.06066 
C 0.77937 -1.341951 0.397805 -1.5 0 -1.5 
C -0.397805 -1.5 -0.77937 -1.341951 -1.06066 -1.06066 
C -1.341951 -0.77937 -1.5 -0.397805 -1.5 0 
C -1.5 0.397805 -1.341951 0.77937 -1.06066 1.06066 
C -0.77937 1.341951 -0.397805 1.5 0 1.5 
z
" id="ma36839d401" style="stroke:#ff7500;"/>
    </defs>
    <g>
     <use style="fill:#ff7500;stroke:#ff7500;" x="183.34228" xlink:href="#ma36839d401" y="27.513663"/>
     <use style="fill:#ff7500;stroke:#ff7500;" x="183.34228" xlink:href="#ma36839d401" y="27.513663"/>
    </g>
   </g>
   <g id="line2d_53">
    <path d="M 44.205749 294.88 
L 44.205749 284.395046 
L 56.12 284.395046 
L 56.12 280.725312 
L 63.08939 280.725312 
L 63.08939 278.628321 
L 71.869783 278.628321 
L 71.869783 276.007082 
L 75.003641 276.007082 
L 75.003641 274.434339 
L 77.653281 274.434339 
L 77.653281 273.385844 
L 79.948502 273.385844 
L 79.948502 269.716109 
L 81.973032 269.716109 
L 81.973032 268.143366 
L 83.784035 268.143366 
L 83.784035 267.619119 
L 85.422286 267.619119 
L 85.422286 267.094871 
L 88.293717 267.094871 
L 88.293717 266.570623 
L 90.753425 266.570623 
L 90.753425 263.425137 
L 92.904808 263.425137 
L 92.904808 262.376641 
L 93.887283 262.376641 
L 93.887283 260.803898 
L 95.698286 260.803898 
L 95.698286 260.279651 
L 98.832144 260.279651 
L 98.832144 259.755403 
L 99.533818 259.755403 
L 99.533818 257.658412 
L 100.856673 257.658412 
L 100.856673 256.609917 
L 102.667676 256.609917 
L 102.667676 255.037173 
L 104.819059 255.037173 
L 104.819059 254.512926 
L 108.451173 254.512926 
L 108.451173 253.988678 
L 110.014853 253.988678 
L 110.014853 253.46443 
L 111.788449 253.46443 
L 111.788449 251.891687 
L 115.145539 251.891687 
L 115.145539 251.367439 
L 116.984244 251.367439 
L 116.984244 247.697705 
L 117.231566 247.697705 
L 117.231566 247.173458 
L 117.475381 247.173458 
L 117.475381 246.64921 
L 119.09161 246.64921 
L 119.09161 246.124962 
L 119.95122 246.124962 
L 119.95122 245.076467 
L 122.480659 245.076467 
L 122.480659 244.552219 
L 122.660646 244.552219 
L 122.660646 244.027971 
L 123.015063 244.027971 
L 123.015063 242.979476 
L 124.036471 242.979476 
L 124.036471 242.455228 
L 125.614517 242.455228 
L 125.614517 241.93098 
L 125.764637 241.93098 
L 125.764637 241.406733 
L 125.913457 241.406733 
L 125.913457 240.358237 
L 126.638823 240.358237 
L 126.638823 238.785494 
L 126.780294 238.785494 
L 126.780294 238.261246 
L 126.92061 238.261246 
L 126.92061 237.212751 
L 127.605507 237.212751 
L 127.605507 236.688503 
L 128.520707 236.688503 
L 128.520707 236.164255 
L 129.022601 236.164255 
L 129.022601 235.640008 
L 129.389632 235.640008 
L 129.389632 234.591512 
L 130.784069 234.591512 
L 130.784069 234.067265 
L 130.895323 234.067265 
L 130.895323 233.543017 
L 131.115693 233.543017 
L 131.115693 233.018769 
L 131.654565 233.018769 
L 131.654565 231.970274 
L 132.073821 231.970274 
L 132.177056 230.397531 
L 132.381685 230.397531 
L 132.483094 228.30054 
L 133.36981 228.30054 
L 133.36981 227.776292 
L 133.749684 227.776292 
L 133.749684 225.679301 
L 134.39491 225.679301 
L 134.39491 223.58231 
L 135.016789 223.58231 
L 135.016789 223.058063 
L 135.616951 223.058063 
L 135.616951 222.009567 
L 135.867885 222.009567 
L 135.867885 220.961072 
L 136.196864 220.961072 
L 136.196864 220.436824 
L 136.359022 220.436824 
L 136.359022 219.912576 
L 136.519665 219.912576 
L 136.519665 218.864081 
L 136.67882 218.864081 
L 136.67882 217.291338 
L 137.070377 217.291338 
L 137.070377 216.242842 
L 137.224536 216.242842 
L 137.301101 214.670099 
L 137.827708 214.670099 
L 137.901638 213.097356 
L 138.121538 213.097356 
L 138.121538 212.573108 
L 138.410429 212.573108 
L 138.410429 211.000365 
L 138.553074 211.000365 
L 138.553074 208.903374 
L 139.180721 208.903374 
L 139.180721 207.330631 
L 139.586771 207.330631 
L 139.586771 206.806383 
L 139.720016 206.806383 
L 139.720016 206.282136 
L 140.113666 206.282136 
L 140.113666 205.23364 
L 140.242905 205.23364 
L 140.242905 204.709392 
L 140.434959 204.709392 
L 140.434959 201.563906 
L 140.62489 201.563906 
L 140.62489 201.039658 
L 140.750355 201.039658 
L 140.750355 199.466915 
L 141.182408 199.466915 
L 141.243253 198.41842 
L 141.303883 198.41842 
L 141.303883 197.369924 
L 141.72241 197.369924 
L 141.72241 196.845677 
L 141.95707 196.845677 
L 141.95707 192.651695 
L 142.416994 192.651695 
L 142.416994 192.127447 
L 142.530078 192.127447 
L 142.530078 191.603199 
L 142.69832 191.603199 
L 142.754037 190.030456 
L 142.864932 190.030456 
L 142.864932 187.933465 
L 144.039767 187.933465 
L 144.039767 187.409218 
L 144.397345 187.409218 
L 144.397345 186.360722 
L 145.139415 186.360722 
L 145.139415 185.836474 
L 145.85077 185.836474 
L 145.85077 183.739484 
L 146.172923 183.739484 
L 146.172923 183.215236 
L 146.354335 183.215236 
L 146.354335 182.690988 
L 146.93104 182.690988 
L 146.93104 182.16674 
L 147.061422 182.16674 
L 147.104664 179.545502 
L 147.615255 179.545502 
L 147.615255 179.021254 
L 148.593071 179.021254 
L 148.63263 177.972759 
L 149.291576 177.972759 
L 149.291576 177.448511 
L 159.737856 177.448511 
L 159.737856 175.35152 
L 160.04572 175.35152 
L 160.04572 174.827272 
L 162.113139 174.827272 
L 162.113139 173.778777 
L 162.310402 173.778777 
L 162.310402 172.730281 
L 162.698265 172.730281 
L 162.698265 172.206034 
L 163.04343 172.206034 
L 163.04343 170.109043 
L 163.264126 170.109043 
L 163.264126 169.584795 
L 163.548519 169.584795 
L 163.548519 168.5363 
L 164.023057 168.5363 
L 164.055305 167.487804 
L 164.215648 167.487804 
L 164.215648 166.439309 
L 164.327005 166.439309 
L 164.327005 164.342318 
L 164.563224 164.342318 
L 164.578857 161.721079 
L 164.873217 161.721079 
L 164.873217 160.672584 
L 165.132385 160.672584 
L 165.16262 158.051345 
L 165.268026 158.051345 
L 165.342922 155.954354 
L 165.536139 155.954354 
L 165.624588 154.905859 
L 165.800133 154.905859 
L 165.872751 153.333116 
L 166.045792 153.333116 
L 166.045792 151.236125 
L 166.188675 151.236125 
L 166.188675 150.711877 
L 166.302131 150.711877 
L 166.372663 149.663382 
L 166.414844 149.663382 
L 166.512865 146.517896 
L 166.526822 146.517896 
L 166.526822 145.4694 
L 166.651932 145.4694 
L 166.651932 144.420905 
L 166.858446 144.420905 
L 166.967581 141.275418 
L 167.03544 141.275418 
L 167.129994 138.65418 
L 167.170359 138.65418 
L 167.237423 135.508693 
L 167.290887 135.508693 
L 167.357484 133.93595 
L 167.489909 133.93595 
L 167.529438 130.790464 
L 167.634407 130.790464 
L 167.634407 128.693473 
L 167.803626 128.693473 
L 167.803626 125.547987 
L 167.91981 125.547987 
L 168.022429 121.354005 
L 168.276328 121.354005 
L 168.376846 117.160023 
L 168.38937 117.160023 
L 168.426886 116.111528 
L 168.52653 116.111528 
L 168.613248 113.490289 
L 168.662605 113.490289 
L 168.773143 108.77206 
L 168.785382 108.77206 
L 168.834248 107.199317 
L 168.980018 107.199317 
L 169.064483 101.956839 
L 169.172475 101.956839 
L 169.267901 99.335601 
L 169.315417 99.335601 
L 169.421848 98.287105 
L 169.433633 98.287105 
L 169.539337 90.42339 
L 169.574428 90.42339 
L 169.656029 89.374894 
L 169.829595 89.374894 
L 169.829595 88.326399 
L 169.944339 88.326399 
L 169.990023 84.132417 
L 170.194112 84.132417 
L 170.194112 82.035426 
L 170.373512 82.035426 
L 170.373512 79.938435 
L 170.562096 79.938435 
L 170.672068 76.268701 
L 170.868263 76.268701 
L 170.965526 73.647463 
L 171.019325 73.647463 
L 171.019325 73.123215 
L 171.137092 73.123215 
L 171.137092 72.598967 
L 171.285821 72.598967 
L 171.296395 71.026224 
L 171.412286 71.026224 
L 171.506528 69.453481 
L 171.621015 69.453481 
L 171.714122 66.832242 
L 176.05793 66.832242 
L 176.05793 66.307995 
L 176.58661 66.307995 
L 176.58661 65.783747 
L 177.129655 65.783747 
L 177.137183 62.638261 
L 177.830426 62.638261 
L 177.902556 61.065517 
L 178.152655 61.065517 
L 178.152655 60.017022 
L 178.336115 60.017022 
L 178.378176 56.347288 
L 178.448048 56.347288 
L 178.503742 52.153306 
L 178.942917 52.153306 
L 178.942917 49.532068 
L 179.118175 49.532068 
L 179.205139 48.483572 
L 179.410755 48.483572 
L 179.410755 47.959324 
L 179.600904 47.959324 
L 179.65949 45.338086 
L 179.859773 45.338086 
L 179.859773 44.28959 
L 180.10214 44.28959 
L 180.10214 43.241095 
L 180.215764 43.241095 
L 180.29736 41.668352 
L 180.465603 41.668352 
L 180.465603 39.571361 
L 180.876115 39.571361 
L 180.876115 38.522865 
L 181.223735 38.522865 
L 181.223735 36.425875 
L 181.686185 36.425875 
L 181.732329 33.280388 
L 182.315627 33.280388 
L 182.315627 31.183397 
L 182.885165 31.183397 
L 182.885165 29.086407 
L 183.147102 29.086407 
L 183.147102 28.562159 
L 183.34228 28.562159 
L 183.34228 27.513663 
L 333.168 27.513663 
L 333.168 27.513663 
" style="fill:none;stroke:#ff7500;stroke-linecap:square;stroke-width:1.5;"/>
   </g>
   <g id="line2d_54">
    <defs>
     <path d="M 0 -6 
L -1.347084 -1.854102 
L -5.706339 -1.854102 
L -2.179628 0.708204 
L -3.526712 4.854102 
L -0 2.291796 
L 3.526712 4.854102 
L 2.179628 0.708204 
L 5.706339 -1.854102 
L 1.347084 -1.854102 
z
" id="m166abe5a19" style="stroke:#ff7500;stroke-linejoin:bevel;stroke-width:1.5;"/>
    </defs>
    <g>
     <use style="fill:none;stroke:#ff7500;stroke-linejoin:bevel;stroke-width:1.5;" x="136.196864" xlink:href="#m166abe5a19" y="220.961072"/>
     <use style="fill:none;stroke:#ff7500;stroke-linejoin:bevel;stroke-width:1.5;" x="171.714122" xlink:href="#m166abe5a19" y="68.404985"/>
     <use style="fill:none;stroke:#ff7500;stroke-linejoin:bevel;stroke-width:1.5;" x="183.34228" xlink:href="#m166abe5a19" y="28.562159"/>
     <use style="fill:none;stroke:#ff7500;stroke-linejoin:bevel;stroke-width:1.5;" x="183.34228" xlink:href="#m166abe5a19" y="27.513663"/>
     <use style="fill:none;stroke:#ff7500;stroke-linejoin:bevel;stroke-width:1.5;" x="183.34228" xlink:href="#m166abe5a19" y="27.513663"/>
     <use style="fill:none;stroke:#ff7500;stroke-linejoin:bevel;stroke-width:1.5;" x="333.168" xlink:href="#m166abe5a19" y="27.513663"/>
    </g>
   </g>
   <g id="line2d_55">
    <path style="fill:none;stroke:#ff7500;stroke-linecap:square;stroke-width:1.5;"/>
    <g/>
   </g>
   <g id="line2d_56">
    <defs>
     <path d="M 0 1.5 
C 0.397805 1.5 0.77937 1.341951 1.06066 1.06066 
C 1.341951 0.77937 1.5 0.397805 1.5 0 
C 1.5 -0.397805 1.341951 -0.77937 1.06066 -1.06066 
C 0.77937 -1.341951 0.397805 -1.5 0 -1.5 
C -0.397805 -1.5 -0.77937 -1.341951 -1.06066 -1.06066 
C -1.341951 -0.77937 -1.5 -0.397805 -1.5 0 
C -1.5 0.397805 -1.341951 0.77937 -1.06066 1.06066 
C -0.77937 1.341951 -0.397805 1.5 0 1.5 
z
" id="m62256820ad" style="stroke:#6495ed;"/>
    </defs>
    <g>
     <use style="fill:#6495ed;stroke:#6495ed;" x="197.104735" xlink:href="#m62256820ad" y="27.513663"/>
     <use style="fill:#6495ed;stroke:#6495ed;" x="197.104735" xlink:href="#m62256820ad" y="27.513663"/>
    </g>
   </g>
   <g id="line2d_57">
    <path d="M 44.205749 294.88 
L 44.205749 283.870798 
L 56.12 283.870798 
L 56.12 279.676816 
L 63.08939 279.676816 
L 63.08939 278.104073 
L 68.034251 278.104073 
L 68.034251 276.007082 
L 71.869783 276.007082 
L 71.869783 272.861596 
L 75.003641 272.861596 
L 75.003641 270.240357 
L 79.948502 270.240357 
L 79.948502 268.667614 
L 81.973032 268.667614 
L 81.973032 267.619119 
L 83.784035 267.619119 
L 83.784035 266.570623 
L 86.917893 266.570623 
L 86.917893 264.99788 
L 88.293717 264.99788 
L 88.293717 264.473632 
L 89.567532 264.473632 
L 89.567532 262.900889 
L 90.753425 262.900889 
L 90.753425 262.376641 
L 92.904808 262.376641 
L 92.904808 261.852394 
L 93.887283 261.852394 
L 93.887283 260.803898 
L 99.533818 260.803898 
L 99.533818 259.231155 
L 100.856673 259.231155 
L 100.856673 257.134164 
L 104.305927 257.134164 
L 104.305927 256.609917 
L 105.317315 256.609917 
L 105.317315 255.561421 
L 112.449632 255.561421 
L 112.449632 255.037173 
L 113.396034 255.037173 
L 113.396034 254.512926 
L 118.869818 254.512926 
L 118.869818 253.988678 
L 120.769881 253.988678 
L 120.769881 252.940182 
L 120.968596 252.940182 
L 120.968596 251.891687 
L 121.359263 251.891687 
L 121.359263 250.843192 
L 123.015063 250.843192 
L 123.015063 249.270448 
L 123.533353 249.270448 
L 123.533353 248.221953 
L 124.200956 248.221953 
L 124.200956 245.600714 
L 124.52528 245.600714 
L 124.52528 244.552219 
L 125.000572 244.552219 
L 125.000572 240.882485 
L 125.463074 240.882485 
L 125.463074 238.785494 
L 126.061 238.785494 
L 126.061 238.261246 
L 126.207287 238.261246 
L 126.207287 237.212751 
L 126.352339 237.212751 
L 126.352339 236.688503 
L 128.39291 236.688503 
L 128.39291 235.640008 
L 129.145817 235.640008 
L 129.145817 235.11576 
L 129.389632 235.11576 
L 129.389632 234.591512 
L 129.867125 234.591512 
L 129.867125 233.018769 
L 130.67209 233.018769 
L 130.67209 231.446026 
L 130.784069 231.446026 
L 130.784069 230.921778 
L 130.895323 230.921778 
L 130.895323 229.349035 
L 131.441039 229.349035 
L 131.548134 227.776292 
L 131.760342 227.776292 
L 131.760342 227.252044 
L 132.177056 227.252044 
L 132.177056 226.203549 
L 132.483094 226.203549 
L 132.483094 225.679301 
L 132.882847 225.679301 
L 132.98135 223.58231 
L 133.36981 223.58231 
L 133.36981 223.058063 
L 134.39491 223.058063 
L 134.485139 222.009567 
L 135.016789 222.009567 
L 135.016789 220.961072 
L 135.276571 220.961072 
L 135.276571 220.436824 
L 135.701004 220.436824 
L 135.701004 219.912576 
L 135.867885 219.912576 
L 135.867885 218.339833 
L 136.196864 218.339833 
L 136.196864 217.815585 
L 136.599426 217.815585 
L 136.67882 215.718594 
L 136.836515 215.718594 
L 136.836515 214.670099 
L 137.070377 214.670099 
L 137.14763 213.621604 
L 137.224536 213.621604 
L 137.224536 213.097356 
L 137.453213 213.097356 
L 137.528768 212.04886 
L 137.678888 212.04886 
L 137.753459 210.476117 
L 137.975251 210.476117 
L 137.975251 208.903374 
L 138.194217 208.903374 
L 138.194217 204.709392 
L 138.553074 204.709392 
L 138.553074 204.185145 
L 138.834862 204.185145 
L 138.834862 203.136649 
L 139.043211 203.136649 
L 139.112104 200.515411 
L 139.180721 200.515411 
L 139.180721 199.466915 
L 139.586771 199.466915 
L 139.653523 196.845677 
L 139.852237 196.845677 
L 139.852237 196.321429 
L 140.048681 196.321429 
L 140.048681 195.797181 
L 140.561812 195.797181 
L 140.561812 195.272933 
L 140.687737 195.272933 
L 140.687737 194.224438 
L 140.998571 194.224438 
L 140.998571 193.175943 
L 141.243253 193.175943 
L 141.243253 192.651695 
L 141.3643 192.651695 
L 141.3643 189.506209 
L 141.544287 189.506209 
L 141.544287 188.981961 
L 141.66324 188.981961 
L 141.66324 188.457713 
L 142.015238 188.457713 
L 142.015238 187.409218 
L 142.18857 187.409218 
L 142.18857 186.360722 
L 142.530078 186.360722 
L 142.530078 182.690988 
L 142.69832 182.690988 
L 142.754037 180.06975 
L 143.139078 180.06975 
L 143.247524 178.497006 
L 143.301492 178.497006 
L 143.301492 177.448511 
L 144.346715 177.448511 
L 144.447825 175.35152 
L 144.548344 175.35152 
L 144.648278 172.206034 
L 145.042304 172.206034 
L 145.042304 171.681786 
L 145.37982 171.681786 
L 145.37982 169.584795 
L 145.522465 169.584795 
L 145.522465 164.866566 
L 145.757607 164.866566 
L 145.85077 163.293823 
L 145.897164 163.293823 
L 145.943432 161.721079 
L 146.035596 161.721079 
L 146.035596 161.196832 
L 146.57844 161.196832 
L 146.622913 160.148336 
L 146.843566 160.148336 
L 146.843566 158.575593 
L 147.147797 158.575593 
L 147.147797 158.051345 
L 147.446737 158.051345 
L 147.446737 157.00285 
L 147.823604 157.00285 
L 147.823604 155.430107 
L 148.232877 155.430107 
L 148.232877 152.808868 
L 148.473843 152.808868 
L 148.473843 152.28462 
L 148.945872 152.28462 
L 148.945872 151.236125 
L 149.518243 151.236125 
L 149.518243 149.663382 
L 150.072167 149.663382 
L 150.072167 149.139134 
L 150.749113 149.139134 
L 150.853603 147.566391 
L 151.53443 147.566391 
L 151.53443 146.517896 
L 151.832219 146.517896 
L 151.8977 145.4694 
L 152.027918 145.4694 
L 152.027918 144.945152 
L 152.253451 144.945152 
L 152.253451 142.848162 
L 152.851103 142.848162 
L 152.851103 140.751171 
L 160.467671 140.751171 
L 160.467671 140.226923 
L 161.224831 140.226923 
L 161.224831 139.178427 
L 161.413719 139.178427 
L 161.413719 138.129932 
L 163.860898 138.129932 
L 163.860898 137.605684 
L 164.903911 137.605684 
L 164.903911 136.557189 
L 166.103088 136.557189 
L 166.188675 132.887455 
L 166.817341 132.887455 
L 166.817341 131.838959 
L 167.048979 131.838959 
L 167.048979 131.314712 
L 167.437061 131.314712 
L 167.437061 129.741969 
L 167.647483 129.741969 
L 167.647483 129.217721 
L 167.764723 129.217721 
L 167.816575 127.12073 
L 168.111721 127.12073 
L 168.162537 122.926748 
L 168.263721 122.926748 
L 168.314091 120.30551 
L 168.426886 120.30551 
L 168.501673 117.684271 
L 168.69953 117.684271 
L 168.760896 116.111528 
L 168.834248 116.111528 
L 168.834248 115.58728 
L 168.955809 115.58728 
L 169.016268 112.966042 
L 169.112563 112.966042 
L 169.136553 108.77206 
L 169.279792 108.77206 
L 169.386444 106.675069 
L 169.410055 106.675069 
L 169.410055 103.005335 
L 169.597782 103.005335 
L 169.679273 99.859849 
L 170.081029 99.859849 
L 170.160265 92.520381 
L 170.239138 92.520381 
L 170.250376 91.471885 
L 170.35119 91.471885 
L 170.406943 89.374894 
L 170.462515 89.374894 
L 170.573125 86.753656 
L 170.683027 86.753656 
L 170.781341 84.656665 
L 170.824857 84.656665 
L 170.900745 81.511178 
L 170.954746 81.511178 
L 171.019325 77.317197 
L 171.094361 77.317197 
L 171.094361 76.792949 
L 171.328079 76.792949 
L 171.359705 75.220206 
L 171.548248 75.220206 
L 171.600256 72.074719 
L 171.888628 72.074719 
L 171.929432 67.880738 
L 172.371995 67.880738 
L 172.371995 67.35649 
L 172.784071 67.35649 
L 172.784071 66.832242 
L 177.699824 66.832242 
L 177.699824 64.735251 
L 177.974385 64.735251 
L 177.974385 63.162508 
L 179.594382 63.162508 
L 179.594382 62.114013 
L 179.821191 62.114013 
L 179.821191 61.589765 
L 180.490388 61.589765 
L 180.583016 59.492774 
L 180.833682 59.492774 
L 180.833682 58.968526 
L 181.080744 58.968526 
L 181.080744 58.444279 
L 181.300695 58.444279 
L 181.300695 57.920031 
L 181.494521 57.920031 
L 181.494521 57.395783 
L 181.864307 57.395783 
L 181.864307 55.298792 
L 182.365666 55.298792 
L 182.365666 54.774545 
L 182.503906 54.774545 
L 182.503906 50.580563 
L 182.874388 50.580563 
L 182.874388 50.056315 
L 192.512657 50.056315 
L 192.601646 47.435077 
L 192.754001 47.435077 
L 192.81759 46.386581 
L 192.986019 46.386581 
L 192.986019 44.813838 
L 193.19426 44.813838 
L 193.291563 43.241095 
L 193.440865 43.241095 
L 193.440865 42.716847 
L 193.609098 42.716847 
L 193.609098 41.668352 
L 193.974645 41.668352 
L 194.06764 39.571361 
L 194.090109 39.571361 
L 194.126559 38.522865 
L 196.198015 38.522865 
L 196.274811 32.756141 
L 196.76459 32.756141 
L 196.76459 32.231893 
L 196.939071 32.231893 
L 196.939071 29.610654 
L 197.104735 29.610654 
L 197.104735 27.513663 
L 333.168 27.513663 
L 333.168 27.513663 
" style="fill:none;stroke:#6495ed;stroke-linecap:square;stroke-width:1.5;"/>
   </g>
   <g id="line2d_58">
    <defs>
     <path d="M -0 6 
L 6 -6 
L -6 -6 
z
" id="m43c5c80c7a" style="stroke:#6495ed;stroke-linejoin:miter;stroke-width:1.5;"/>
    </defs>
    <g>
     <use style="fill:none;stroke:#6495ed;stroke-linejoin:miter;stroke-width:1.5;" x="75.003641" xlink:href="#m43c5c80c7a" y="272.861596"/>
     <use style="fill:none;stroke:#6495ed;stroke-linejoin:miter;stroke-width:1.5;" x="142.18857" xlink:href="#m43c5c80c7a" y="186.360722"/>
     <use style="fill:none;stroke:#6495ed;stroke-linejoin:miter;stroke-width:1.5;" x="170.517909" xlink:href="#m43c5c80c7a" y="88.326399"/>
     <use style="fill:none;stroke:#6495ed;stroke-linejoin:miter;stroke-width:1.5;" x="197.104735" xlink:href="#m43c5c80c7a" y="29.610654"/>
     <use style="fill:none;stroke:#6495ed;stroke-linejoin:miter;stroke-width:1.5;" x="197.104735" xlink:href="#m43c5c80c7a" y="27.513663"/>
     <use style="fill:none;stroke:#6495ed;stroke-linejoin:miter;stroke-width:1.5;" x="333.168" xlink:href="#m43c5c80c7a" y="27.513663"/>
    </g>
   </g>
   <g id="line2d_59">
    <path style="fill:none;stroke:#6495ed;stroke-linecap:square;stroke-width:1.5;"/>
    <g/>
   </g>
   <g id="line2d_60">
    <defs>
     <path d="M 0 1.5 
C 0.397805 1.5 0.77937 1.341951 1.06066 1.06066 
C 1.341951 0.77937 1.5 0.397805 1.5 0 
C 1.5 -0.397805 1.341951 -0.77937 1.06066 -1.06066 
C 0.77937 -1.341951 0.397805 -1.5 0 -1.5 
C -0.397805 -1.5 -0.77937 -1.341951 -1.06066 -1.06066 
C -1.341951 -0.77937 -1.5 -0.397805 -1.5 0 
C -1.5 0.397805 -1.341951 0.77937 -1.06066 1.06066 
C -0.77937 1.341951 -0.397805 1.5 0 1.5 
z
" id="m4a04845b02" style="stroke:#ff0000;"/>
    </defs>
    <g>
     <use style="fill:#ff0000;stroke:#ff0000;" x="183.787552" xlink:href="#m4a04845b02" y="27.513663"/>
     <use style="fill:#ff0000;stroke:#ff0000;" x="183.787552" xlink:href="#m4a04845b02" y="27.513663"/>
    </g>
   </g>
   <g id="line2d_61">
    <path d="M 44.205749 294.88 
L 44.205749 282.298055 
L 56.12 282.298055 
L 56.12 277.579825 
L 63.08939 277.579825 
L 63.08939 276.007082 
L 68.034251 276.007082 
L 68.034251 274.958587 
L 71.869783 274.958587 
L 71.869783 273.910091 
L 77.653281 273.910091 
L 77.653281 269.191862 
L 81.973032 269.191862 
L 81.973032 268.667614 
L 89.567532 268.667614 
L 89.567532 268.143366 
L 91.862754 268.143366 
L 91.862754 267.619119 
L 92.904808 267.619119 
L 92.904808 267.094871 
L 94.816624 267.094871 
L 94.816624 266.570623 
L 95.698286 266.570623 
L 95.698286 264.99788 
L 96.536922 264.99788 
L 96.536922 264.473632 
L 100.856673 264.473632 
L 100.856673 262.900889 
L 102.084955 262.900889 
L 102.084955 261.852394 
L 104.305927 261.852394 
L 104.305927 260.279651 
L 104.819059 260.279651 
L 104.819059 258.706907 
L 105.317315 258.706907 
L 105.317315 258.18266 
L 106.730875 258.18266 
L 106.730875 257.658412 
L 107.177358 257.658412 
L 107.177358 256.609917 
L 111.100812 256.609917 
L 111.100812 256.085669 
L 111.448069 256.085669 
L 111.448069 255.037173 
L 112.449632 255.037173 
L 112.449632 253.46443 
L 112.770924 253.46443 
L 112.770924 252.415935 
L 113.396034 252.415935 
L 113.396034 249.794696 
L 113.999206 249.794696 
L 113.999206 248.221953 
L 116.478659 248.221953 
L 116.478659 247.173458 
L 119.95122 247.173458 
L 119.95122 246.64921 
L 120.15957 246.64921 
L 120.15957 245.600714 
L 120.568842 245.600714 
L 120.568842 244.027971 
L 121.16504 244.027971 
L 121.16504 243.503724 
L 123.870396 243.503724 
L 123.870396 242.979476 
L 124.363883 242.979476 
L 124.363883 241.93098 
L 125.000572 241.93098 
L 125.000572 241.406733 
L 125.463074 241.406733 
L 125.463074 238.261246 
L 126.352339 238.261246 
L 126.352339 237.736999 
L 127.334814 237.736999 
L 127.334814 237.212751 
L 127.470694 237.212751 
L 127.470694 236.164255 
L 127.605507 236.164255 
L 127.605507 235.640008 
L 128.520707 235.640008 
L 128.520707 232.494521 
L 128.898495 232.494521 
L 128.898495 231.970274 
L 129.022601 231.970274 
L 129.022601 230.921778 
L 129.984454 230.921778 
L 129.984454 230.397531 
L 130.100987 230.397531 
L 130.100987 229.873283 
L 130.216736 229.873283 
L 130.216736 228.824787 
L 130.67209 228.824787 
L 130.67209 228.30054 
L 131.005861 228.30054 
L 131.005861 226.727797 
L 131.224827 226.727797 
L 131.224827 226.203549 
L 132.177056 226.203549 
L 132.177056 223.58231 
L 133.176677 223.58231 
L 133.176677 221.485319 
L 133.36981 221.485319 
L 133.36981 220.961072 
L 133.843356 220.961072 
L 133.936519 218.864081 
L 135.10382 218.864081 
L 135.10382 218.339833 
L 135.701004 218.339833 
L 135.784647 215.718594 
L 136.278134 215.718594 
L 136.359022 213.621604 
L 136.439531 213.621604 
L 136.439531 213.097356 
L 136.599426 213.097356 
L 136.67882 210.476117 
L 137.678888 210.476117 
L 137.678888 209.427622 
L 138.121538 209.427622 
L 138.194217 207.330631 
L 138.410429 207.330631 
L 138.410429 206.282136 
L 138.553074 206.282136 
L 138.553074 205.757888 
L 138.694545 205.757888 
L 138.764847 204.709392 
L 138.974042 204.709392 
L 138.974042 204.185145 
L 139.112104 204.185145 
L 139.112104 203.660897 
L 139.452484 203.660897 
L 139.519758 199.991163 
L 139.653523 199.991163 
L 139.653523 197.369924 
L 140.113666 197.369924 
L 140.113666 196.845677 
L 140.307161 196.845677 
L 140.371179 192.651695 
L 140.687737 192.651695 
L 140.687737 191.603199 
L 141.182408 191.603199 
L 141.182408 190.030456 
L 141.3643 190.030456 
L 141.3643 188.981961 
L 141.484501 188.981961 
L 141.484501 187.409218 
L 142.015238 187.409218 
L 142.07321 185.836474 
L 142.642422 185.836474 
L 142.69832 184.787979 
L 142.754037 184.787979 
L 142.754037 181.642493 
L 143.139078 181.642493 
L 143.139078 179.545502 
L 143.568817 179.545502 
L 143.568817 177.972759 
L 143.779723 177.972759 
L 143.884213 175.35152 
L 143.988072 175.35152 
L 144.091308 173.778777 
L 144.598384 173.778777 
L 144.698028 170.109043 
L 144.797098 170.109043 
L 144.797098 169.060547 
L 144.944641 169.060547 
L 144.993542 166.439309 
L 145.235981 166.439309 
L 145.235981 163.81807 
L 145.522465 163.81807 
L 145.522465 163.293823 
L 145.663936 163.293823 
L 145.663936 161.196832 
L 145.85077 161.196832 
L 145.85077 158.051345 
L 146.354335 158.051345 
L 146.444328 154.905859 
L 146.667271 154.905859 
L 146.711514 152.808868 
L 146.887358 152.808868 
L 146.887358 150.711877 
L 147.104664 150.711877 
L 147.147797 148.090639 
L 147.361855 148.090639 
L 147.361855 147.566391 
L 147.489022 147.566391 
L 147.57328 144.945152 
L 147.740567 144.945152 
L 147.782136 140.751171 
L 147.906242 140.751171 
L 147.906242 140.226923 
L 148.151798 140.226923 
L 148.232877 136.557189 
L 148.513678 136.557189 
L 148.55342 131.838959 
L 149.405283 131.838959 
L 149.405283 131.314712 
L 149.630465 131.314712 
L 149.630465 130.790464 
L 149.741959 130.790464 
L 149.741959 129.217721 
L 149.926191 129.217721 
L 149.926191 128.693473 
L 150.467326 128.693473 
L 150.467326 127.644978 
L 152.124937 127.644978 
L 152.124937 126.072235 
L 152.601988 126.072235 
L 152.601988 125.547987 
L 161.376107 125.547987 
L 161.376107 125.023739 
L 161.986418 125.023739 
L 161.986418 122.4025 
L 162.767854 122.4025 
L 162.767854 121.354005 
L 162.940606 121.354005 
L 162.940606 120.829757 
L 163.348261 120.829757 
L 163.415273 119.257014 
L 163.614756 119.257014 
L 163.614756 118.732766 
L 163.811951 118.732766 
L 163.811951 116.111528 
L 164.311141 116.111528 
L 164.327005 115.063032 
L 164.500549 115.063032 
L 164.500549 113.490289 
L 164.71892 113.490289 
L 164.71892 110.869051 
L 164.94985 110.869051 
L 165.04136 109.820555 
L 165.237976 109.820555 
L 165.237976 107.723564 
L 165.357863 107.723564 
L 165.357863 107.199317 
L 165.65397 107.199317 
L 165.741817 100.908344 
L 165.945063 100.908344 
L 165.945063 100.384096 
L 166.145934 100.384096 
L 166.217109 98.287105 
L 166.442907 98.287105 
L 166.442907 95.141619 
L 166.707246 95.141619 
L 166.803618 93.044628 
L 166.9131 93.044628 
L 166.953977 91.471885 
L 167.103032 91.471885 
L 167.210629 88.850646 
L 167.476712 88.850646 
L 167.489909 85.180912 
L 167.699689 85.180912 
L 167.777701 83.608169 
L 167.86827 83.608169 
L 167.86827 82.035426 
L 168.098993 82.035426 
L 168.098993 80.986931 
L 168.38937 80.986931 
L 168.38937 80.462683 
L 168.760896 80.462683 
L 168.760896 78.88994 
L 168.919431 78.88994 
L 168.919431 74.695958 
L 169.291675 74.695958 
L 169.291675 73.123215 
L 169.621105 73.123215 
L 169.621105 72.598967 
L 170.506844 72.598967 
L 170.506844 71.026224 
L 170.748632 71.026224 
L 170.748632 68.929233 
L 171.179718 68.929233 
L 171.179718 66.832242 
L 171.464706 66.832242 
L 171.464706 65.259499 
L 171.714122 65.259499 
L 171.796463 62.114013 
L 172.051265 62.114013 
L 172.091685 59.492774 
L 172.490743 59.492774 
L 172.500602 58.444279 
L 172.66734 58.444279 
L 172.73553 56.871536 
L 173.514805 56.871536 
L 173.514805 56.347288 
L 174.560138 56.347288 
L 174.560138 55.82304 
L 175.085351 55.82304 
L 175.186809 52.677554 
L 175.304425 52.677554 
L 175.304425 50.580563 
L 175.872628 50.580563 
L 175.872628 49.532068 
L 176.05793 49.532068 
L 176.05793 47.435077 
L 176.209513 47.435077 
L 176.209513 46.386581 
L 176.532129 46.386581 
L 176.578838 44.813838 
L 176.664141 44.813838 
L 176.664141 43.241095 
L 176.894658 43.241095 
L 176.894658 42.716847 
L 177.137183 42.716847 
L 177.137183 41.144104 
L 177.309407 41.144104 
L 177.309407 40.619856 
L 181.436016 40.619856 
L 181.436016 39.571361 
L 182.382314 39.571361 
L 182.382314 35.901627 
L 182.793348 35.901627 
L 182.852815 34.328884 
L 183.019305 34.328884 
L 183.06201 30.65915 
L 183.295008 30.65915 
L 183.394652 28.562159 
L 183.566358 28.562159 
L 183.566358 28.037911 
L 183.787552 28.037911 
L 183.787552 27.513663 
L 333.168 27.513663 
L 333.168 27.513663 
" style="fill:none;stroke:#ff0000;stroke-linecap:square;stroke-width:1.5;"/>
   </g>
   <g id="line2d_62">
    <defs>
     <path d="M 0 -6 
L -5.196152 -3 
L -5.196152 3 
L -0 6 
L 5.196152 3 
L 5.196152 -3 
z
" id="m9bb99f2edf" style="stroke:#ff0000;stroke-linejoin:miter;stroke-width:1.5;"/>
    </defs>
    <g>
     <use style="fill:none;stroke:#ff0000;stroke-linejoin:miter;stroke-width:1.5;" x="120.15957" xlink:href="#m9bb99f2edf" y="246.64921"/>
     <use style="fill:none;stroke:#ff0000;stroke-linejoin:miter;stroke-width:1.5;" x="145.663936" xlink:href="#m9bb99f2edf" y="163.293823"/>
     <use style="fill:none;stroke:#ff0000;stroke-linejoin:miter;stroke-width:1.5;" x="183.787552" xlink:href="#m9bb99f2edf" y="28.037911"/>
     <use style="fill:none;stroke:#ff0000;stroke-linejoin:miter;stroke-width:1.5;" x="183.787552" xlink:href="#m9bb99f2edf" y="27.513663"/>
     <use style="fill:none;stroke:#ff0000;stroke-linejoin:miter;stroke-width:1.5;" x="183.787552" xlink:href="#m9bb99f2edf" y="27.513663"/>
     <use style="fill:none;stroke:#ff0000;stroke-linejoin:miter;stroke-width:1.5;" x="333.168" xlink:href="#m9bb99f2edf" y="27.513663"/>
    </g>
   </g>
   <g id="line2d_63">
    <path style="fill:none;stroke:#ff0000;stroke-linecap:square;stroke-width:1.5;"/>
    <g/>
   </g>
   <g id="line2d_64">
    <path d="M 333.168 273.910091 
L 363.64328 289.532673 
" style="fill:none;stroke:#000080;stroke-linecap:square;stroke-width:1.5;"/>
    <g>
     <use style="fill:none;stroke:#000080;stroke-width:1.5;" x="333.168" xlink:href="#m807e7dc1d1" y="273.910091"/>
     <use style="fill:none;stroke:#000080;stroke-width:1.5;" x="363.64328" xlink:href="#m807e7dc1d1" y="289.532673"/>
    </g>
   </g>
   <g id="line2d_65">
    <path d="M 333.168 184.787979 
L 363.64328 238.198337 
" style="fill:none;stroke:#ff00ff;stroke-linecap:square;stroke-width:1.5;"/>
    <g>
     <use style="fill:none;stroke:#ff00ff;stroke-linejoin:miter;stroke-width:1.5;" x="333.168" xlink:href="#m83518517aa" y="184.787979"/>
     <use style="fill:none;stroke:#ff00ff;stroke-linejoin:miter;stroke-width:1.5;" x="363.64328" xlink:href="#m83518517aa" y="238.198337"/>
    </g>
   </g>
   <g id="line2d_66">
    <path d="M 333.168 27.513663 
L 363.64328 186.864 
" style="fill:none;stroke:#6495ed;stroke-linecap:square;stroke-width:1.5;"/>
    <g>
     <use style="fill:none;stroke:#6495ed;stroke-linejoin:miter;stroke-width:1.5;" x="333.168" xlink:href="#m43c5c80c7a" y="27.513663"/>
     <use style="fill:none;stroke:#6495ed;stroke-linejoin:miter;stroke-width:1.5;" x="363.64328" xlink:href="#m43c5c80c7a" y="186.864"/>
    </g>
   </g>
   <g id="line2d_67">
    <path d="M 333.168 27.513663 
L 363.64328 135.529663 
" style="fill:none;stroke:#ff0000;stroke-linecap:square;stroke-width:1.5;"/>
    <g>
     <use style="fill:none;stroke:#ff0000;stroke-linejoin:miter;stroke-width:1.5;" x="333.168" xlink:href="#m9bb99f2edf" y="27.513663"/>
     <use style="fill:none;stroke:#ff0000;stroke-linejoin:miter;stroke-width:1.5;" x="363.64328" xlink:href="#m9bb99f2edf" y="135.529663"/>
    </g>
   </g>
   <g id="line2d_68">
    <path d="M 333.168 27.513663 
L 363.64328 84.195327 
" style="fill:none;stroke:#ff7500;stroke-linecap:square;stroke-width:1.5;"/>
    <g>
     <use style="fill:none;stroke:#ff7500;stroke-linejoin:bevel;stroke-width:1.5;" x="333.168" xlink:href="#m166abe5a19" y="27.513663"/>
     <use style="fill:none;stroke:#ff7500;stroke-linejoin:bevel;stroke-width:1.5;" x="363.64328" xlink:href="#m166abe5a19" y="84.195327"/>
    </g>
   </g>
   <g id="line2d_69">
    <path d="M 333.168 294.88 
L 333.168 27.513663 
" style="fill:none;stroke:#000000;stroke-linecap:square;stroke-width:1.5;"/>
   </g>
   <g id="patch_3">
    <path d="M 56.12 294.88 
L 56.12 24.84 
" style="fill:none;stroke:#000000;stroke-linecap:square;stroke-linejoin:miter;stroke-width:0.8;"/>
   </g>
   <g id="patch_4">
    <path d="M 333.168 294.88 
L 333.168 24.84 
" style="fill:none;stroke:#000000;stroke-linecap:square;stroke-linejoin:miter;stroke-width:0.8;"/>
   </g>
   <g id="patch_5">
    <path d="M 56.12 294.88 
L 333.168 294.88 
" style="fill:none;stroke:#000000;stroke-linecap:square;stroke-linejoin:miter;stroke-width:0.8;"/>
   </g>
   <g id="patch_6">
    <path d="M 56.12 24.84 
L 333.168 24.84 
" style="fill:none;stroke:#000000;stroke-linecap:square;stroke-linejoin:miter;stroke-width:0.8;"/>
   </g>
   <g id="text_13">
    <!-- scipyAlg -->
    <defs>
     <path d="M 32.171875 -5.078125 
Q 28.375 -14.84375 24.75 -17.8125 
Q 21.140625 -20.796875 15.09375 -20.796875 
L 7.90625 -20.796875 
L 7.90625 -13.28125 
L 13.1875 -13.28125 
Q 16.890625 -13.28125 18.9375 -11.515625 
Q 21 -9.765625 23.484375 -3.21875 
L 25.09375 0.875 
L 2.984375 54.6875 
L 12.5 54.6875 
L 29.59375 11.921875 
L 46.6875 54.6875 
L 56.203125 54.6875 
z
" id="DejaVuSans-79"/>
     <path d="M 34.1875 63.1875 
L 20.796875 26.90625 
L 47.609375 26.90625 
z
M 28.609375 72.90625 
L 39.796875 72.90625 
L 67.578125 0 
L 57.328125 0 
L 50.6875 18.703125 
L 17.828125 18.703125 
L 11.1875 0 
L 0.78125 0 
z
" id="DejaVuSans-41"/>
    </defs>
    <g transform="translate(369.18424 294.223611)scale(0.17 -0.17)">
     <use xlink:href="#DejaVuSans-73"/>
     <use x="52.099609" xlink:href="#DejaVuSans-63"/>
     <use x="107.080078" xlink:href="#DejaVuSans-69"/>
     <use x="134.863281" xlink:href="#DejaVuSans-70"/>
     <use x="198.339844" xlink:href="#DejaVuSans-79"/>
     <use x="257.519531" xlink:href="#DejaVuSans-41"/>
     <use x="325.927734" xlink:href="#DejaVuSans-6c"/>
     <use x="353.710938" xlink:href="#DejaVuSans-67"/>
    </g>
   </g>
   <g id="text_14">
    <!-- CMA ES PP -->
    <defs>
     <path d="M 64.40625 67.28125 
L 64.40625 56.890625 
Q 59.421875 61.53125 53.78125 63.8125 
Q 48.140625 66.109375 41.796875 66.109375 
Q 29.296875 66.109375 22.65625 58.46875 
Q 16.015625 50.828125 16.015625 36.375 
Q 16.015625 21.96875 22.65625 14.328125 
Q 29.296875 6.6875 41.796875 6.6875 
Q 48.140625 6.6875 53.78125 8.984375 
Q 59.421875 11.28125 64.40625 15.921875 
L 64.40625 5.609375 
Q 59.234375 2.09375 53.4375 0.328125 
Q 47.65625 -1.421875 41.21875 -1.421875 
Q 24.65625 -1.421875 15.125 8.703125 
Q 5.609375 18.84375 5.609375 36.375 
Q 5.609375 53.953125 15.125 64.078125 
Q 24.65625 74.21875 41.21875 74.21875 
Q 47.75 74.21875 53.53125 72.484375 
Q 59.328125 70.75 64.40625 67.28125 
z
" id="DejaVuSans-43"/>
     <path d="M 9.8125 72.90625 
L 24.515625 72.90625 
L 43.109375 23.296875 
L 61.8125 72.90625 
L 76.515625 72.90625 
L 76.515625 0 
L 66.890625 0 
L 66.890625 64.015625 
L 48.09375 14.015625 
L 38.1875 14.015625 
L 19.390625 64.015625 
L 19.390625 0 
L 9.8125 0 
z
" id="DejaVuSans-4d"/>
     <path d="M 9.8125 72.90625 
L 55.90625 72.90625 
L 55.90625 64.59375 
L 19.671875 64.59375 
L 19.671875 43.015625 
L 54.390625 43.015625 
L 54.390625 34.71875 
L 19.671875 34.71875 
L 19.671875 8.296875 
L 56.78125 8.296875 
L 56.78125 0 
L 9.8125 0 
z
" id="DejaVuSans-45"/>
     <path d="M 53.515625 70.515625 
L 53.515625 60.890625 
Q 47.90625 63.578125 42.921875 64.890625 
Q 37.9375 66.21875 33.296875 66.21875 
Q 25.25 66.21875 20.875 63.09375 
Q 16.5 59.96875 16.5 54.203125 
Q 16.5 49.359375 19.40625 46.890625 
Q 22.3125 44.4375 30.421875 42.921875 
L 36.375 41.703125 
Q 47.40625 39.59375 52.65625 34.296875 
Q 57.90625 29 57.90625 20.125 
Q 57.90625 9.515625 50.796875 4.046875 
Q 43.703125 -1.421875 29.984375 -1.421875 
Q 24.8125 -1.421875 18.96875 -0.25 
Q 13.140625 0.921875 6.890625 3.21875 
L 6.890625 13.375 
Q 12.890625 10.015625 18.65625 8.296875 
Q 24.421875 6.59375 29.984375 6.59375 
Q 38.421875 6.59375 43.015625 9.90625 
Q 47.609375 13.234375 47.609375 19.390625 
Q 47.609375 24.75 44.3125 27.78125 
Q 41.015625 30.8125 33.5 32.328125 
L 27.484375 33.5 
Q 16.453125 35.6875 11.515625 40.375 
Q 6.59375 45.0625 6.59375 53.421875 
Q 6.59375 63.09375 13.40625 68.65625 
Q 20.21875 74.21875 32.171875 74.21875 
Q 37.3125 74.21875 42.625 73.28125 
Q 47.953125 72.359375 53.515625 70.515625 
z
" id="DejaVuSans-53"/>
     <path d="M 19.671875 64.796875 
L 19.671875 37.40625 
L 32.078125 37.40625 
Q 38.96875 37.40625 42.71875 40.96875 
Q 46.484375 44.53125 46.484375 51.125 
Q 46.484375 57.671875 42.71875 61.234375 
Q 38.96875 64.796875 32.078125 64.796875 
z
M 9.8125 72.90625 
L 32.078125 72.90625 
Q 44.34375 72.90625 50.609375 67.359375 
Q 56.890625 61.8125 56.890625 51.125 
Q 56.890625 40.328125 50.609375 34.8125 
Q 44.34375 29.296875 32.078125 29.296875 
L 19.671875 29.296875 
L 19.671875 0 
L 9.8125 0 
z
" id="DejaVuSans-50"/>
    </defs>
    <g transform="translate(369.18424 242.889274)scale(0.17 -0.17)">
     <use xlink:href="#DejaVuSans-43"/>
     <use x="69.824219" xlink:href="#DejaVuSans-4d"/>
     <use x="156.103516" xlink:href="#DejaVuSans-41"/>
     <use x="224.511719" xlink:href="#DejaVuSans-20"/>
     <use x="256.298828" xlink:href="#DejaVuSans-45"/>
     <use x="319.482422" xlink:href="#DejaVuSans-53"/>
     <use x="382.958984" xlink:href="#DejaVuSans-20"/>
     <use x="414.746094" xlink:href="#DejaVuSans-50"/>
     <use x="475.048828" xlink:href="#DejaVuSans-50"/>
    </g>
   </g>
   <g id="text_15">
    <!-- IPOP-CMA- -->
    <defs>
     <path d="M 9.8125 72.90625 
L 19.671875 72.90625 
L 19.671875 0 
L 9.8125 0 
z
" id="DejaVuSans-49"/>
     <path d="M 39.40625 66.21875 
Q 28.65625 66.21875 22.328125 58.203125 
Q 16.015625 50.203125 16.015625 36.375 
Q 16.015625 22.609375 22.328125 14.59375 
Q 28.65625 6.59375 39.40625 6.59375 
Q 50.140625 6.59375 56.421875 14.59375 
Q 62.703125 22.609375 62.703125 36.375 
Q 62.703125 50.203125 56.421875 58.203125 
Q 50.140625 66.21875 39.40625 66.21875 
z
M 39.40625 74.21875 
Q 54.734375 74.21875 63.90625 63.9375 
Q 73.09375 53.65625 73.09375 36.375 
Q 73.09375 19.140625 63.90625 8.859375 
Q 54.734375 -1.421875 39.40625 -1.421875 
Q 24.03125 -1.421875 14.8125 8.828125 
Q 5.609375 19.09375 5.609375 36.375 
Q 5.609375 53.65625 14.8125 63.9375 
Q 24.03125 74.21875 39.40625 74.21875 
z
" id="DejaVuSans-4f"/>
    </defs>
    <g transform="translate(369.18424 191.554937)scale(0.17 -0.17)">
     <use xlink:href="#DejaVuSans-49"/>
     <use x="29.492188" xlink:href="#DejaVuSans-50"/>
     <use x="89.794922" xlink:href="#DejaVuSans-4f"/>
     <use x="168.505859" xlink:href="#DejaVuSans-50"/>
     <use x="228.777344" xlink:href="#DejaVuSans-2d"/>
     <use x="264.861328" xlink:href="#DejaVuSans-43"/>
     <use x="334.685547" xlink:href="#DejaVuSans-4d"/>
     <use x="420.964844" xlink:href="#DejaVuSans-41"/>
     <use x="489.341797" xlink:href="#DejaVuSans-2d"/>
    </g>
   </g>
   <g id="text_16">
    <!-- CMAES pos -->
    <g transform="translate(369.18424 140.220601)scale(0.17 -0.17)">
     <use xlink:href="#DejaVuSans-43"/>
     <use x="69.824219" xlink:href="#DejaVuSans-4d"/>
     <use x="156.103516" xlink:href="#DejaVuSans-41"/>
     <use x="224.511719" xlink:href="#DejaVuSans-45"/>
     <use x="287.695312" xlink:href="#DejaVuSans-53"/>
     <use x="351.171875" xlink:href="#DejaVuSans-20"/>
     <use x="382.958984" xlink:href="#DejaVuSans-70"/>
     <use x="446.435547" xlink:href="#DejaVuSans-6f"/>
     <use x="507.617188" xlink:href="#DejaVuSans-73"/>
    </g>
   </g>
   <g id="text_17">
    <!-- IPOP-ACTC -->
    <defs>
     <path d="M -0.296875 72.90625 
L 61.375 72.90625 
L 61.375 64.59375 
L 35.5 64.59375 
L 35.5 0 
L 25.59375 0 
L 25.59375 64.59375 
L -0.296875 64.59375 
z
" id="DejaVuSans-54"/>
    </defs>
    <g transform="translate(369.18424 88.886264)scale(0.17 -0.17)">
     <use xlink:href="#DejaVuSans-49"/>
     <use x="29.492188" xlink:href="#DejaVuSans-50"/>
     <use x="89.794922" xlink:href="#DejaVuSans-4f"/>
     <use x="168.505859" xlink:href="#DejaVuSans-50"/>
     <use x="228.777344" xlink:href="#DejaVuSans-2d"/>
     <use x="264.830078" xlink:href="#DejaVuSans-41"/>
     <use x="333.222656" xlink:href="#DejaVuSans-43"/>
     <use x="403.046875" xlink:href="#DejaVuSans-54"/>
     <use x="464.052734" xlink:href="#DejaVuSans-43"/>
    </g>
   </g>
   <g id="text_18">
    <!-- best 2009 -->
    <defs>
     <path d="M 48.6875 27.296875 
Q 48.6875 37.203125 44.609375 42.84375 
Q 40.53125 48.484375 33.40625 48.484375 
Q 26.265625 48.484375 22.1875 42.84375 
Q 18.109375 37.203125 18.109375 27.296875 
Q 18.109375 17.390625 22.1875 11.75 
Q 26.265625 6.109375 33.40625 6.109375 
Q 40.53125 6.109375 44.609375 11.75 
Q 48.6875 17.390625 48.6875 27.296875 
z
M 18.109375 46.390625 
Q 20.953125 51.265625 25.265625 53.625 
Q 29.59375 56 35.59375 56 
Q 45.5625 56 51.78125 48.09375 
Q 58.015625 40.1875 58.015625 27.296875 
Q 58.015625 14.40625 51.78125 6.484375 
Q 45.5625 -1.421875 35.59375 -1.421875 
Q 29.59375 -1.421875 25.265625 0.953125 
Q 20.953125 3.328125 18.109375 8.203125 
L 18.109375 0 
L 9.078125 0 
L 9.078125 75.984375 
L 18.109375 75.984375 
z
" id="DejaVuSans-62"/>
     <path d="M 10.984375 1.515625 
L 10.984375 10.5 
Q 14.703125 8.734375 18.5 7.8125 
Q 22.3125 6.890625 25.984375 6.890625 
Q 35.75 6.890625 40.890625 13.453125 
Q 46.046875 20.015625 46.78125 33.40625 
Q 43.953125 29.203125 39.59375 26.953125 
Q 35.25 24.703125 29.984375 24.703125 
Q 19.046875 24.703125 12.671875 31.3125 
Q 6.296875 37.9375 6.296875 49.421875 
Q 6.296875 60.640625 12.9375 67.421875 
Q 19.578125 74.21875 30.609375 74.21875 
Q 43.265625 74.21875 49.921875 64.515625 
Q 56.59375 54.828125 56.59375 36.375 
Q 56.59375 19.140625 48.40625 8.859375 
Q 40.234375 -1.421875 26.421875 -1.421875 
Q 22.703125 -1.421875 18.890625 -0.6875 
Q 15.09375 0.046875 10.984375 1.515625 
z
M 30.609375 32.421875 
Q 37.25 32.421875 41.125 36.953125 
Q 45.015625 41.5 45.015625 49.421875 
Q 45.015625 57.28125 41.125 61.84375 
Q 37.25 66.40625 30.609375 66.40625 
Q 23.96875 66.40625 20.09375 61.84375 
Q 16.21875 57.28125 16.21875 49.421875 
Q 16.21875 41.5 20.09375 36.953125 
Q 23.96875 32.421875 30.609375 32.421875 
z
" id="DejaVuSans-39"/>
    </defs>
    <g transform="translate(369.18424 37.551928)scale(0.17 -0.17)">
     <use xlink:href="#DejaVuSans-62"/>
     <use x="63.476562" xlink:href="#DejaVuSans-65"/>
     <use x="125" xlink:href="#DejaVuSans-73"/>
     <use x="177.099609" xlink:href="#DejaVuSans-74"/>
     <use x="216.308594" xlink:href="#DejaVuSans-20"/>
     <use x="248.095703" xlink:href="#DejaVuSans-32"/>
     <use x="311.71875" xlink:href="#DejaVuSans-30"/>
     <use x="375.341797" xlink:href="#DejaVuSans-30"/>
     <use x="438.964844" xlink:href="#DejaVuSans-39"/>
    </g>
   </g>
   <g id="text_19">
    <!-- bbob f16, 2-D -->
    <defs>
     <path d="M 19.671875 64.796875 
L 19.671875 8.109375 
L 31.59375 8.109375 
Q 46.6875 8.109375 53.6875 14.9375 
Q 60.6875 21.78125 60.6875 36.53125 
Q 60.6875 51.171875 53.6875 57.984375 
Q 46.6875 64.796875 31.59375 64.796875 
z
M 9.8125 72.90625 
L 30.078125 72.90625 
Q 51.265625 72.90625 61.171875 64.09375 
Q 71.09375 55.28125 71.09375 36.53125 
Q 71.09375 17.671875 61.125 8.828125 
Q 51.171875 0 30.078125 0 
L 9.8125 0 
z
" id="DejaVuSans-44"/>
    </defs>
    <g transform="translate(58.89048 35.290806)scale(0.102 -0.102)">
     <use xlink:href="#DejaVuSans-62"/>
     <use x="63.476562" xlink:href="#DejaVuSans-62"/>
     <use x="126.953125" xlink:href="#DejaVuSans-6f"/>
     <use x="188.134766" xlink:href="#DejaVuSans-62"/>
     <use x="251.611328" xlink:href="#DejaVuSans-20"/>
     <use x="283.398438" xlink:href="#DejaVuSans-66"/>
     <use x="318.603516" xlink:href="#DejaVuSans-31"/>
     <use x="382.226562" xlink:href="#DejaVuSans-36"/>
     <use x="445.849609" xlink:href="#DejaVuSans-2c"/>
     <use x="477.636719" xlink:href="#DejaVuSans-20"/>
     <use x="509.423828" xlink:href="#DejaVuSans-32"/>
     <use x="573.046875" xlink:href="#DejaVuSans-2d"/>
     <use x="609.130859" xlink:href="#DejaVuSans-44"/>
    </g>
    <!-- 51 targets: 100..1e-08 -->
    <defs>
     <path d="M 10.796875 72.90625 
L 49.515625 72.90625 
L 49.515625 64.59375 
L 19.828125 64.59375 
L 19.828125 46.734375 
Q 21.96875 47.46875 24.109375 47.828125 
Q 26.265625 48.1875 28.421875 48.1875 
Q 40.625 48.1875 47.75 41.5 
Q 54.890625 34.8125 54.890625 23.390625 
Q 54.890625 11.625 47.5625 5.09375 
Q 40.234375 -1.421875 26.90625 -1.421875 
Q 22.3125 -1.421875 17.546875 -0.640625 
Q 12.796875 0.140625 7.71875 1.703125 
L 7.71875 11.625 
Q 12.109375 9.234375 16.796875 8.0625 
Q 21.484375 6.890625 26.703125 6.890625 
Q 35.15625 6.890625 40.078125 11.328125 
Q 45.015625 15.765625 45.015625 23.390625 
Q 45.015625 31 40.078125 35.4375 
Q 35.15625 39.890625 26.703125 39.890625 
Q 22.75 39.890625 18.8125 39.015625 
Q 14.890625 38.140625 10.796875 36.28125 
z
" id="DejaVuSans-35"/>
     <path d="M 11.71875 12.40625 
L 22.015625 12.40625 
L 22.015625 0 
L 11.71875 0 
z
M 11.71875 51.703125 
L 22.015625 51.703125 
L 22.015625 39.3125 
L 11.71875 39.3125 
z
" id="DejaVuSans-3a"/>
    </defs>
    <g transform="translate(58.89048 46.712575)scale(0.102 -0.102)">
     <use xlink:href="#DejaVuSans-35"/>
     <use x="63.623047" xlink:href="#DejaVuSans-31"/>
     <use x="127.246094" xlink:href="#DejaVuSans-20"/>
     <use x="159.033203" xlink:href="#DejaVuSans-74"/>
     <use x="198.242188" xlink:href="#DejaVuSans-61"/>
     <use x="259.521484" xlink:href="#DejaVuSans-72"/>
     <use x="300.619141" xlink:href="#DejaVuSans-67"/>
     <use x="364.095703" xlink:href="#DejaVuSans-65"/>
     <use x="425.619141" xlink:href="#DejaVuSans-74"/>
     <use x="464.828125" xlink:href="#DejaVuSans-73"/>
     <use x="516.927734" xlink:href="#DejaVuSans-3a"/>
     <use x="550.619141" xlink:href="#DejaVuSans-20"/>
     <use x="582.40625" xlink:href="#DejaVuSans-31"/>
     <use x="646.029297" xlink:href="#DejaVuSans-30"/>
     <use x="709.652344" xlink:href="#DejaVuSans-30"/>
     <use x="773.275391" xlink:href="#DejaVuSans-2e"/>
     <use x="805.0625" xlink:href="#DejaVuSans-2e"/>
     <use x="836.849609" xlink:href="#DejaVuSans-31"/>
     <use x="900.472656" xlink:href="#DejaVuSans-65"/>
     <use x="961.996094" xlink:href="#DejaVuSans-2d"/>
     <use x="998.080078" xlink:href="#DejaVuSans-30"/>
     <use x="1061.703125" xlink:href="#DejaVuSans-38"/>
    </g>
    <!-- 15 instances -->
    <g transform="translate(58.89048 58.134344)scale(0.102 -0.102)">
     <use xlink:href="#DejaVuSans-31"/>
     <use x="63.623047" xlink:href="#DejaVuSans-35"/>
     <use x="127.246094" xlink:href="#DejaVuSans-20"/>
     <use x="159.033203" xlink:href="#DejaVuSans-69"/>
     <use x="186.816406" xlink:href="#DejaVuSans-6e"/>
     <use x="250.195312" xlink:href="#DejaVuSans-73"/>
     <use x="302.294922" xlink:href="#DejaVuSans-74"/>
     <use x="341.503906" xlink:href="#DejaVuSans-61"/>
     <use x="402.783203" xlink:href="#DejaVuSans-6e"/>
     <use x="466.162109" xlink:href="#DejaVuSans-63"/>
     <use x="521.142578" xlink:href="#DejaVuSans-65"/>
     <use x="582.666016" xlink:href="#DejaVuSans-73"/>
    </g>
   </g>
   <g id="text_20">
    <!-- v0.0.0 -->
    <g style="fill:#808080;" transform="translate(178.96275 290.099912)scale(0.1 -0.1)">
     <use xlink:href="#DejaVuSans-76"/>
     <use x="59.179688" xlink:href="#DejaVuSans-30"/>
     <use x="122.802734" xlink:href="#DejaVuSans-2e"/>
     <use x="154.589844" xlink:href="#DejaVuSans-30"/>
     <use x="218.212891" xlink:href="#DejaVuSans-2e"/>
     <use x="250" xlink:href="#DejaVuSans-30"/>
    </g>
   </g>
   <g id="text_21">
    <!-- 16 Weierstrass -->
    <defs>
     <path d="M 3.328125 72.90625 
L 13.28125 72.90625 
L 28.609375 11.28125 
L 43.890625 72.90625 
L 54.984375 72.90625 
L 70.3125 11.28125 
L 85.59375 72.90625 
L 95.609375 72.90625 
L 77.296875 0 
L 64.890625 0 
L 49.515625 63.28125 
L 33.984375 0 
L 21.578125 0 
z
" id="DejaVuSans-57"/>
    </defs>
    <g transform="translate(119.878375 18.84)scale(0.2 -0.2)">
     <use xlink:href="#DejaVuSans-31"/>
     <use x="63.623047" xlink:href="#DejaVuSans-36"/>
     <use x="127.246094" xlink:href="#DejaVuSans-20"/>
     <use x="159.033203" xlink:href="#DejaVuSans-57"/>
     <use x="257.832031" xlink:href="#DejaVuSans-65"/>
     <use x="319.355469" xlink:href="#DejaVuSans-69"/>
     <use x="347.138672" xlink:href="#DejaVuSans-65"/>
     <use x="408.662109" xlink:href="#DejaVuSans-72"/>
     <use x="449.775391" xlink:href="#DejaVuSans-73"/>
     <use x="501.875" xlink:href="#DejaVuSans-74"/>
     <use x="541.083984" xlink:href="#DejaVuSans-72"/>
     <use x="582.197266" xlink:href="#DejaVuSans-61"/>
     <use x="643.476562" xlink:href="#DejaVuSans-73"/>
     <use x="695.576172" xlink:href="#DejaVuSans-73"/>
    </g>
   </g>
  </g>
 </g>
 <defs>
  <clipPath id="p5c9b9ae22d">
   <rect height="270.04" width="277.048" x="56.12" y="24.84"/>
  </clipPath>
 </defs>
</svg>
