<?xml version="1.0" encoding="utf-8" standalone="no"?>
<!DOCTYPE svg PUBLIC "-//W3C//DTD SVG 1.1//EN"
  "http://www.w3.org/Graphics/SVG/1.1/DTD/svg11.dtd">
<!-- Created with matplotlib (http://matplotlib.org/) -->
<svg height="345pt" version="1.1" viewBox="0 0 460 345" width="460pt" xmlns="http://www.w3.org/2000/svg" xmlns:xlink="http://www.w3.org/1999/xlink">
 <defs>
  <style type="text/css">
*{stroke-linecap:butt;stroke-linejoin:round;}
  </style>
 </defs>
 <g id="figure_1">
  <g id="patch_1">
   <path d="M 0 345.6 
L 460.8 345.6 
L 460.8 0 
L 0 0 
z
" style="fill:#ffffff;"/>
  </g>
  <g id="axes_1">
   <g id="patch_2">
    <path d="M 56.12 294.88 
L 333.168 294.88 
L 333.168 24.84 
L 56.12 24.84 
z
" style="fill:#ffffff;"/>
   </g>
   <g id="line2d_1">
    <path d="M 100.470395 294.88 
L 100.470395 289.637523 
L 107.868452 289.637523 
L 107.868452 284.395046 
L 109.864733 284.395046 
L 109.864733 279.152568 
L 111.379177 279.152568 
L 111.379177 273.910091 
L 112.960856 273.910091 
L 112.960856 268.667614 
L 116.010559 268.667614 
L 116.010559 263.425137 
L 120.487764 263.425137 
L 120.487764 258.18266 
L 129.796341 258.18266 
L 129.796341 252.940182 
L 131.718109 252.940182 
L 131.718109 247.697705 
L 132.922316 247.697705 
L 132.922316 242.455228 
L 133.862029 242.455228 
L 133.862029 237.212751 
L 134.664189 237.212751 
L 134.664189 231.970274 
L 135.413533 231.970274 
L 135.413533 226.727797 
L 136.09883 226.727797 
L 136.09883 221.485319 
L 136.67882 221.485319 
L 136.67882 216.242842 
L 137.132207 216.242842 
L 137.132207 211.000365 
L 137.528768 211.000365 
L 137.528768 205.757888 
L 137.945844 205.757888 
L 137.945844 200.515411 
L 138.223203 200.515411 
L 138.223203 195.272933 
L 138.410429 195.272933 
L 138.410429 190.030456 
L 138.652226 190.030456 
L 138.652226 184.787979 
L 138.862788 184.787979 
L 138.862788 179.545502 
L 139.015577 179.545502 
L 139.015577 174.303025 
L 139.139583 174.303025 
L 139.139583 169.060547 
L 139.22176 169.060547 
L 139.22176 163.81807 
L 139.344294 163.81807 
L 139.344294 158.575593 
L 139.4255 158.575593 
L 139.4255 153.333116 
L 139.546595 153.333116 
L 139.546595 148.090639 
L 139.600142 148.090639 
L 139.600142 142.848162 
L 139.666842 142.848162 
L 139.666842 137.605684 
L 139.720016 137.605684 
L 139.720016 132.363207 
L 139.799471 132.363207 
L 139.799471 127.12073 
L 139.904842 127.12073 
L 139.904842 121.878253 
L 139.94419 121.878253 
L 139.94419 116.635776 
L 139.970373 116.635776 
L 139.970373 111.393298 
L 139.983449 111.393298 
L 139.983449 106.150821 
L 140.035654 106.150821 
L 140.035654 100.908344 
L 140.061698 100.908344 
L 140.061698 95.665867 
L 140.100689 95.665867 
L 140.100689 90.42339 
L 140.165478 90.42339 
L 140.165478 85.180912 
L 140.217135 85.180912 
L 140.217135 79.938435 
L 140.242905 79.938435 
L 140.242905 74.695958 
L 140.268636 74.695958 
L 140.268636 69.453481 
L 140.319984 69.453481 
L 140.319984 64.211004 
L 140.332797 64.211004 
L 140.332797 58.968526 
L 140.3456 58.968526 
L 140.3456 53.726049 
L 140.371179 53.726049 
L 140.371179 48.483572 
L 140.409475 48.483572 
L 140.409475 43.241095 
L 140.422222 43.241095 
L 140.422222 37.998618 
L 140.434959 37.998618 
L 140.434959 32.756141 
L 140.447686 32.756141 
L 140.447686 27.513663 
L 333.168 27.513663 
" style="fill:none;stroke:#f5deb3;stroke-linecap:square;stroke-width:4;"/>
   </g>
   <g id="line2d_2">
    <defs>
     <path d="M -0 7.778175 
L 7.778175 0 
L 0 -7.778175 
L -7.778175 -0 
z
" id="m82f7b25d62" style="stroke:#f5deb3;stroke-linejoin:miter;stroke-width:1.5;"/>
    </defs>
    <g>
     <use style="fill:#f5deb3;stroke:#f5deb3;stroke-linejoin:miter;stroke-width:1.5;" x="129.796341" xlink:href="#m82f7b25d62" y="252.940182"/>
     <use style="fill:#f5deb3;stroke:#f5deb3;stroke-linejoin:miter;stroke-width:1.5;" x="140.035654" xlink:href="#m82f7b25d62" y="100.908344"/>
     <use style="fill:#f5deb3;stroke:#f5deb3;stroke-linejoin:miter;stroke-width:1.5;" x="140.447686" xlink:href="#m82f7b25d62" y="32.756141"/>
     <use style="fill:#f5deb3;stroke:#f5deb3;stroke-linejoin:miter;stroke-width:1.5;" x="140.447686" xlink:href="#m82f7b25d62" y="27.513663"/>
     <use style="fill:#f5deb3;stroke:#f5deb3;stroke-linejoin:miter;stroke-width:1.5;" x="333.168" xlink:href="#m82f7b25d62" y="27.513663"/>
    </g>
   </g>
   <g id="line2d_3">
    <path style="fill:none;stroke:#f5deb3;stroke-linecap:square;stroke-width:4;"/>
    <g/>
   </g>
   <g id="line2d_4">
    <path d="M 333.168 27.513663 
L 363.64328 32.86099 
" style="fill:none;stroke:#f5deb3;stroke-linecap:square;stroke-width:4;"/>
    <g>
     <use style="fill:#f5deb3;stroke:#f5deb3;stroke-linejoin:miter;stroke-width:1.5;" x="333.168" xlink:href="#m82f7b25d62" y="27.513663"/>
     <use style="fill:#f5deb3;stroke:#f5deb3;stroke-linejoin:miter;stroke-width:1.5;" x="363.64328" xlink:href="#m82f7b25d62" y="32.86099"/>
    </g>
   </g>
   <g id="matplotlib.axis_1">
    <g id="xtick_1">
     <g id="line2d_5">
      <path clip-path="url(#pbc56df6af3)" d="M 56.12 294.88 
L 56.12 24.84 
" style="fill:none;stroke:#b0b0b0;stroke-linecap:square;stroke-width:0.8;"/>
     </g>
     <g id="line2d_6">
      <defs>
       <path d="M 0 0 
L 0 3.5 
" id="mf5fda080c2" style="stroke:#000000;stroke-width:0.8;"/>
      </defs>
      <g>
       <use style="stroke:#000000;stroke-width:0.8;" x="56.12" xlink:href="#mf5fda080c2" y="294.88"/>
      </g>
     </g>
     <g id="text_1">
      <!-- 0 -->
      <defs>
       <path d="M 31.78125 66.40625 
Q 24.171875 66.40625 20.328125 58.90625 
Q 16.5 51.421875 16.5 36.375 
Q 16.5 21.390625 20.328125 13.890625 
Q 24.171875 6.390625 31.78125 6.390625 
Q 39.453125 6.390625 43.28125 13.890625 
Q 47.125 21.390625 47.125 36.375 
Q 47.125 51.421875 43.28125 58.90625 
Q 39.453125 66.40625 31.78125 66.40625 
z
M 31.78125 74.21875 
Q 44.046875 74.21875 50.515625 64.515625 
Q 56.984375 54.828125 56.984375 36.375 
Q 56.984375 17.96875 50.515625 8.265625 
Q 44.046875 -1.421875 31.78125 -1.421875 
Q 19.53125 -1.421875 13.0625 8.265625 
Q 6.59375 17.96875 6.59375 36.375 
Q 6.59375 54.828125 13.0625 64.515625 
Q 19.53125 74.21875 31.78125 74.21875 
z
" id="DejaVuSans-30"/>
      </defs>
      <g transform="translate(49.7575 317.076875)scale(0.2 -0.2)">
       <use xlink:href="#DejaVuSans-30"/>
      </g>
     </g>
    </g>
    <g id="xtick_2">
     <g id="line2d_7">
      <path clip-path="url(#pbc56df6af3)" d="M 135.276571 294.88 
L 135.276571 24.84 
" style="fill:none;stroke:#b0b0b0;stroke-linecap:square;stroke-width:0.8;"/>
     </g>
     <g id="line2d_8">
      <g>
       <use style="stroke:#000000;stroke-width:0.8;" x="135.276571" xlink:href="#mf5fda080c2" y="294.88"/>
      </g>
     </g>
     <g id="text_2">
      <!-- 2 -->
      <defs>
       <path d="M 19.1875 8.296875 
L 53.609375 8.296875 
L 53.609375 0 
L 7.328125 0 
L 7.328125 8.296875 
Q 12.9375 14.109375 22.625 23.890625 
Q 32.328125 33.6875 34.8125 36.53125 
Q 39.546875 41.84375 41.421875 45.53125 
Q 43.3125 49.21875 43.3125 52.78125 
Q 43.3125 58.59375 39.234375 62.25 
Q 35.15625 65.921875 28.609375 65.921875 
Q 23.96875 65.921875 18.8125 64.3125 
Q 13.671875 62.703125 7.8125 59.421875 
L 7.8125 69.390625 
Q 13.765625 71.78125 18.9375 73 
Q 24.125 74.21875 28.421875 74.21875 
Q 39.75 74.21875 46.484375 68.546875 
Q 53.21875 62.890625 53.21875 53.421875 
Q 53.21875 48.921875 51.53125 44.890625 
Q 49.859375 40.875 45.40625 35.40625 
Q 44.1875 33.984375 37.640625 27.21875 
Q 31.109375 20.453125 19.1875 8.296875 
z
" id="DejaVuSans-32"/>
      </defs>
      <g transform="translate(128.914071 317.076875)scale(0.2 -0.2)">
       <use xlink:href="#DejaVuSans-32"/>
      </g>
     </g>
    </g>
    <g id="xtick_3">
     <g id="line2d_9">
      <path clip-path="url(#pbc56df6af3)" d="M 214.433143 294.88 
L 214.433143 24.84 
" style="fill:none;stroke:#b0b0b0;stroke-linecap:square;stroke-width:0.8;"/>
     </g>
     <g id="line2d_10">
      <g>
       <use style="stroke:#000000;stroke-width:0.8;" x="214.433143" xlink:href="#mf5fda080c2" y="294.88"/>
      </g>
     </g>
     <g id="text_3">
      <!-- 4 -->
      <defs>
       <path d="M 37.796875 64.3125 
L 12.890625 25.390625 
L 37.796875 25.390625 
z
M 35.203125 72.90625 
L 47.609375 72.90625 
L 47.609375 25.390625 
L 58.015625 25.390625 
L 58.015625 17.1875 
L 47.609375 17.1875 
L 47.609375 0 
L 37.796875 0 
L 37.796875 17.1875 
L 4.890625 17.1875 
L 4.890625 26.703125 
z
" id="DejaVuSans-34"/>
      </defs>
      <g transform="translate(208.070643 317.076875)scale(0.2 -0.2)">
       <use xlink:href="#DejaVuSans-34"/>
      </g>
     </g>
    </g>
    <g id="xtick_4">
     <g id="line2d_11">
      <path clip-path="url(#pbc56df6af3)" d="M 293.589714 294.88 
L 293.589714 24.84 
" style="fill:none;stroke:#b0b0b0;stroke-linecap:square;stroke-width:0.8;"/>
     </g>
     <g id="line2d_12">
      <g>
       <use style="stroke:#000000;stroke-width:0.8;" x="293.589714" xlink:href="#mf5fda080c2" y="294.88"/>
      </g>
     </g>
     <g id="text_4">
      <!-- 6 -->
      <defs>
       <path d="M 33.015625 40.375 
Q 26.375 40.375 22.484375 35.828125 
Q 18.609375 31.296875 18.609375 23.390625 
Q 18.609375 15.53125 22.484375 10.953125 
Q 26.375 6.390625 33.015625 6.390625 
Q 39.65625 6.390625 43.53125 10.953125 
Q 47.40625 15.53125 47.40625 23.390625 
Q 47.40625 31.296875 43.53125 35.828125 
Q 39.65625 40.375 33.015625 40.375 
z
M 52.59375 71.296875 
L 52.59375 62.3125 
Q 48.875 64.0625 45.09375 64.984375 
Q 41.3125 65.921875 37.59375 65.921875 
Q 27.828125 65.921875 22.671875 59.328125 
Q 17.53125 52.734375 16.796875 39.40625 
Q 19.671875 43.65625 24.015625 45.921875 
Q 28.375 48.1875 33.59375 48.1875 
Q 44.578125 48.1875 50.953125 41.515625 
Q 57.328125 34.859375 57.328125 23.390625 
Q 57.328125 12.15625 50.6875 5.359375 
Q 44.046875 -1.421875 33.015625 -1.421875 
Q 20.359375 -1.421875 13.671875 8.265625 
Q 6.984375 17.96875 6.984375 36.375 
Q 6.984375 53.65625 15.1875 63.9375 
Q 23.390625 74.21875 37.203125 74.21875 
Q 40.921875 74.21875 44.703125 73.484375 
Q 48.484375 72.75 52.59375 71.296875 
z
" id="DejaVuSans-36"/>
      </defs>
      <g transform="translate(287.227214 317.076875)scale(0.2 -0.2)">
       <use xlink:href="#DejaVuSans-36"/>
      </g>
     </g>
    </g>
    <g id="xtick_5">
     <g id="line2d_13">
      <path clip-path="url(#pbc56df6af3)" d="M 56.12 294.88 
L 56.12 24.84 
" style="fill:none;stroke:#b0b0b0;stroke-linecap:square;stroke-width:0.8;"/>
     </g>
     <g id="line2d_14">
      <defs>
       <path d="M 0 0 
L 0 2 
" id="m378f7b4e32" style="stroke:#000000;stroke-width:0.6;"/>
      </defs>
      <g>
       <use style="stroke:#000000;stroke-width:0.6;" x="56.12" xlink:href="#m378f7b4e32" y="294.88"/>
      </g>
     </g>
    </g>
    <g id="xtick_6">
     <g id="line2d_15">
      <path clip-path="url(#pbc56df6af3)" d="M 95.698286 294.88 
L 95.698286 24.84 
" style="fill:none;stroke:#b0b0b0;stroke-linecap:square;stroke-width:0.8;"/>
     </g>
     <g id="line2d_16">
      <g>
       <use style="stroke:#000000;stroke-width:0.6;" x="95.698286" xlink:href="#m378f7b4e32" y="294.88"/>
      </g>
     </g>
    </g>
    <g id="xtick_7">
     <g id="line2d_17">
      <path clip-path="url(#pbc56df6af3)" d="M 135.276571 294.88 
L 135.276571 24.84 
" style="fill:none;stroke:#b0b0b0;stroke-linecap:square;stroke-width:0.8;"/>
     </g>
     <g id="line2d_18">
      <g>
       <use style="stroke:#000000;stroke-width:0.6;" x="135.276571" xlink:href="#m378f7b4e32" y="294.88"/>
      </g>
     </g>
    </g>
    <g id="xtick_8">
     <g id="line2d_19">
      <path clip-path="url(#pbc56df6af3)" d="M 174.854857 294.88 
L 174.854857 24.84 
" style="fill:none;stroke:#b0b0b0;stroke-linecap:square;stroke-width:0.8;"/>
     </g>
     <g id="line2d_20">
      <g>
       <use style="stroke:#000000;stroke-width:0.6;" x="174.854857" xlink:href="#m378f7b4e32" y="294.88"/>
      </g>
     </g>
    </g>
    <g id="xtick_9">
     <g id="line2d_21">
      <path clip-path="url(#pbc56df6af3)" d="M 214.433143 294.88 
L 214.433143 24.84 
" style="fill:none;stroke:#b0b0b0;stroke-linecap:square;stroke-width:0.8;"/>
     </g>
     <g id="line2d_22">
      <g>
       <use style="stroke:#000000;stroke-width:0.6;" x="214.433143" xlink:href="#m378f7b4e32" y="294.88"/>
      </g>
     </g>
    </g>
    <g id="xtick_10">
     <g id="line2d_23">
      <path clip-path="url(#pbc56df6af3)" d="M 254.011429 294.88 
L 254.011429 24.84 
" style="fill:none;stroke:#b0b0b0;stroke-linecap:square;stroke-width:0.8;"/>
     </g>
     <g id="line2d_24">
      <g>
       <use style="stroke:#000000;stroke-width:0.6;" x="254.011429" xlink:href="#m378f7b4e32" y="294.88"/>
      </g>
     </g>
    </g>
    <g id="xtick_11">
     <g id="line2d_25">
      <path clip-path="url(#pbc56df6af3)" d="M 293.589714 294.88 
L 293.589714 24.84 
" style="fill:none;stroke:#b0b0b0;stroke-linecap:square;stroke-width:0.8;"/>
     </g>
     <g id="line2d_26">
      <g>
       <use style="stroke:#000000;stroke-width:0.6;" x="293.589714" xlink:href="#m378f7b4e32" y="294.88"/>
      </g>
     </g>
    </g>
    <g id="xtick_12">
     <g id="line2d_27">
      <path clip-path="url(#pbc56df6af3)" d="M 333.168 294.88 
L 333.168 24.84 
" style="fill:none;stroke:#b0b0b0;stroke-linecap:square;stroke-width:0.8;"/>
     </g>
     <g id="line2d_28">
      <g>
       <use style="stroke:#000000;stroke-width:0.6;" x="333.168" xlink:href="#m378f7b4e32" y="294.88"/>
      </g>
     </g>
    </g>
    <g id="text_5">
     <!-- log10(# f-evals / dimension) -->
     <defs>
      <path d="M 9.421875 75.984375 
L 18.40625 75.984375 
L 18.40625 0 
L 9.421875 0 
z
" id="DejaVuSans-6c"/>
      <path d="M 30.609375 48.390625 
Q 23.390625 48.390625 19.1875 42.75 
Q 14.984375 37.109375 14.984375 27.296875 
Q 14.984375 17.484375 19.15625 11.84375 
Q 23.34375 6.203125 30.609375 6.203125 
Q 37.796875 6.203125 41.984375 11.859375 
Q 46.1875 17.53125 46.1875 27.296875 
Q 46.1875 37.015625 41.984375 42.703125 
Q 37.796875 48.390625 30.609375 48.390625 
z
M 30.609375 56 
Q 42.328125 56 49.015625 48.375 
Q 55.71875 40.765625 55.71875 27.296875 
Q 55.71875 13.875 49.015625 6.21875 
Q 42.328125 -1.421875 30.609375 -1.421875 
Q 18.84375 -1.421875 12.171875 6.21875 
Q 5.515625 13.875 5.515625 27.296875 
Q 5.515625 40.765625 12.171875 48.375 
Q 18.84375 56 30.609375 56 
z
" id="DejaVuSans-6f"/>
      <path d="M 45.40625 27.984375 
Q 45.40625 37.75 41.375 43.109375 
Q 37.359375 48.484375 30.078125 48.484375 
Q 22.859375 48.484375 18.828125 43.109375 
Q 14.796875 37.75 14.796875 27.984375 
Q 14.796875 18.265625 18.828125 12.890625 
Q 22.859375 7.515625 30.078125 7.515625 
Q 37.359375 7.515625 41.375 12.890625 
Q 45.40625 18.265625 45.40625 27.984375 
z
M 54.390625 6.78125 
Q 54.390625 -7.171875 48.1875 -13.984375 
Q 42 -20.796875 29.203125 -20.796875 
Q 24.46875 -20.796875 20.265625 -20.09375 
Q 16.0625 -19.390625 12.109375 -17.921875 
L 12.109375 -9.1875 
Q 16.0625 -11.328125 19.921875 -12.34375 
Q 23.78125 -13.375 27.78125 -13.375 
Q 36.625 -13.375 41.015625 -8.765625 
Q 45.40625 -4.15625 45.40625 5.171875 
L 45.40625 9.625 
Q 42.625 4.78125 38.28125 2.390625 
Q 33.9375 0 27.875 0 
Q 17.828125 0 11.671875 7.65625 
Q 5.515625 15.328125 5.515625 27.984375 
Q 5.515625 40.671875 11.671875 48.328125 
Q 17.828125 56 27.875 56 
Q 33.9375 56 38.28125 53.609375 
Q 42.625 51.21875 45.40625 46.390625 
L 45.40625 54.6875 
L 54.390625 54.6875 
z
" id="DejaVuSans-67"/>
      <path d="M 12.40625 8.296875 
L 28.515625 8.296875 
L 28.515625 63.921875 
L 10.984375 60.40625 
L 10.984375 69.390625 
L 28.421875 72.90625 
L 38.28125 72.90625 
L 38.28125 8.296875 
L 54.390625 8.296875 
L 54.390625 0 
L 12.40625 0 
z
" id="DejaVuSans-31"/>
      <path d="M 31 75.875 
Q 24.46875 64.65625 21.28125 53.65625 
Q 18.109375 42.671875 18.109375 31.390625 
Q 18.109375 20.125 21.3125 9.0625 
Q 24.515625 -2 31 -13.1875 
L 23.1875 -13.1875 
Q 15.875 -1.703125 12.234375 9.375 
Q 8.59375 20.453125 8.59375 31.390625 
Q 8.59375 42.28125 12.203125 53.3125 
Q 15.828125 64.359375 23.1875 75.875 
z
" id="DejaVuSans-28"/>
      <path d="M 51.125 44 
L 36.921875 44 
L 32.8125 27.6875 
L 47.125 27.6875 
z
M 43.796875 71.78125 
L 38.71875 51.515625 
L 52.984375 51.515625 
L 58.109375 71.78125 
L 65.921875 71.78125 
L 60.890625 51.515625 
L 76.125 51.515625 
L 76.125 44 
L 58.984375 44 
L 54.984375 27.6875 
L 70.515625 27.6875 
L 70.515625 20.21875 
L 53.078125 20.21875 
L 48 0 
L 40.1875 0 
L 45.21875 20.21875 
L 30.90625 20.21875 
L 25.875 0 
L 18.015625 0 
L 23.09375 20.21875 
L 7.71875 20.21875 
L 7.71875 27.6875 
L 24.90625 27.6875 
L 29 44 
L 13.28125 44 
L 13.28125 51.515625 
L 30.90625 51.515625 
L 35.890625 71.78125 
z
" id="DejaVuSans-23"/>
      <path id="DejaVuSans-20"/>
      <path d="M 37.109375 75.984375 
L 37.109375 68.5 
L 28.515625 68.5 
Q 23.6875 68.5 21.796875 66.546875 
Q 19.921875 64.59375 19.921875 59.515625 
L 19.921875 54.6875 
L 34.71875 54.6875 
L 34.71875 47.703125 
L 19.921875 47.703125 
L 19.921875 0 
L 10.890625 0 
L 10.890625 47.703125 
L 2.296875 47.703125 
L 2.296875 54.6875 
L 10.890625 54.6875 
L 10.890625 58.5 
Q 10.890625 67.625 15.140625 71.796875 
Q 19.390625 75.984375 28.609375 75.984375 
z
" id="DejaVuSans-66"/>
      <path d="M 4.890625 31.390625 
L 31.203125 31.390625 
L 31.203125 23.390625 
L 4.890625 23.390625 
z
" id="DejaVuSans-2d"/>
      <path d="M 56.203125 29.59375 
L 56.203125 25.203125 
L 14.890625 25.203125 
Q 15.484375 15.921875 20.484375 11.0625 
Q 25.484375 6.203125 34.421875 6.203125 
Q 39.59375 6.203125 44.453125 7.46875 
Q 49.3125 8.734375 54.109375 11.28125 
L 54.109375 2.78125 
Q 49.265625 0.734375 44.1875 -0.34375 
Q 39.109375 -1.421875 33.890625 -1.421875 
Q 20.796875 -1.421875 13.15625 6.1875 
Q 5.515625 13.8125 5.515625 26.8125 
Q 5.515625 40.234375 12.765625 48.109375 
Q 20.015625 56 32.328125 56 
Q 43.359375 56 49.78125 48.890625 
Q 56.203125 41.796875 56.203125 29.59375 
z
M 47.21875 32.234375 
Q 47.125 39.59375 43.09375 43.984375 
Q 39.0625 48.390625 32.421875 48.390625 
Q 24.90625 48.390625 20.390625 44.140625 
Q 15.875 39.890625 15.1875 32.171875 
z
" id="DejaVuSans-65"/>
      <path d="M 2.984375 54.6875 
L 12.5 54.6875 
L 29.59375 8.796875 
L 46.6875 54.6875 
L 56.203125 54.6875 
L 35.6875 0 
L 23.484375 0 
z
" id="DejaVuSans-76"/>
      <path d="M 34.28125 27.484375 
Q 23.390625 27.484375 19.1875 25 
Q 14.984375 22.515625 14.984375 16.5 
Q 14.984375 11.71875 18.140625 8.90625 
Q 21.296875 6.109375 26.703125 6.109375 
Q 34.1875 6.109375 38.703125 11.40625 
Q 43.21875 16.703125 43.21875 25.484375 
L 43.21875 27.484375 
z
M 52.203125 31.203125 
L 52.203125 0 
L 43.21875 0 
L 43.21875 8.296875 
Q 40.140625 3.328125 35.546875 0.953125 
Q 30.953125 -1.421875 24.3125 -1.421875 
Q 15.921875 -1.421875 10.953125 3.296875 
Q 6 8.015625 6 15.921875 
Q 6 25.140625 12.171875 29.828125 
Q 18.359375 34.515625 30.609375 34.515625 
L 43.21875 34.515625 
L 43.21875 35.40625 
Q 43.21875 41.609375 39.140625 45 
Q 35.0625 48.390625 27.6875 48.390625 
Q 23 48.390625 18.546875 47.265625 
Q 14.109375 46.140625 10.015625 43.890625 
L 10.015625 52.203125 
Q 14.9375 54.109375 19.578125 55.046875 
Q 24.21875 56 28.609375 56 
Q 40.484375 56 46.34375 49.84375 
Q 52.203125 43.703125 52.203125 31.203125 
z
" id="DejaVuSans-61"/>
      <path d="M 44.28125 53.078125 
L 44.28125 44.578125 
Q 40.484375 46.53125 36.375 47.5 
Q 32.28125 48.484375 27.875 48.484375 
Q 21.1875 48.484375 17.84375 46.4375 
Q 14.5 44.390625 14.5 40.28125 
Q 14.5 37.15625 16.890625 35.375 
Q 19.28125 33.59375 26.515625 31.984375 
L 29.59375 31.296875 
Q 39.15625 29.25 43.1875 25.515625 
Q 47.21875 21.78125 47.21875 15.09375 
Q 47.21875 7.46875 41.1875 3.015625 
Q 35.15625 -1.421875 24.609375 -1.421875 
Q 20.21875 -1.421875 15.453125 -0.5625 
Q 10.6875 0.296875 5.421875 2 
L 5.421875 11.28125 
Q 10.40625 8.6875 15.234375 7.390625 
Q 20.0625 6.109375 24.8125 6.109375 
Q 31.15625 6.109375 34.5625 8.28125 
Q 37.984375 10.453125 37.984375 14.40625 
Q 37.984375 18.0625 35.515625 20.015625 
Q 33.0625 21.96875 24.703125 23.78125 
L 21.578125 24.515625 
Q 13.234375 26.265625 9.515625 29.90625 
Q 5.8125 33.546875 5.8125 39.890625 
Q 5.8125 47.609375 11.28125 51.796875 
Q 16.75 56 26.8125 56 
Q 31.78125 56 36.171875 55.265625 
Q 40.578125 54.546875 44.28125 53.078125 
z
" id="DejaVuSans-73"/>
      <path d="M 25.390625 72.90625 
L 33.6875 72.90625 
L 8.296875 -9.28125 
L 0 -9.28125 
z
" id="DejaVuSans-2f"/>
      <path d="M 45.40625 46.390625 
L 45.40625 75.984375 
L 54.390625 75.984375 
L 54.390625 0 
L 45.40625 0 
L 45.40625 8.203125 
Q 42.578125 3.328125 38.25 0.953125 
Q 33.9375 -1.421875 27.875 -1.421875 
Q 17.96875 -1.421875 11.734375 6.484375 
Q 5.515625 14.40625 5.515625 27.296875 
Q 5.515625 40.1875 11.734375 48.09375 
Q 17.96875 56 27.875 56 
Q 33.9375 56 38.25 53.625 
Q 42.578125 51.265625 45.40625 46.390625 
z
M 14.796875 27.296875 
Q 14.796875 17.390625 18.875 11.75 
Q 22.953125 6.109375 30.078125 6.109375 
Q 37.203125 6.109375 41.296875 11.75 
Q 45.40625 17.390625 45.40625 27.296875 
Q 45.40625 37.203125 41.296875 42.84375 
Q 37.203125 48.484375 30.078125 48.484375 
Q 22.953125 48.484375 18.875 42.84375 
Q 14.796875 37.203125 14.796875 27.296875 
z
" id="DejaVuSans-64"/>
      <path d="M 9.421875 54.6875 
L 18.40625 54.6875 
L 18.40625 0 
L 9.421875 0 
z
M 9.421875 75.984375 
L 18.40625 75.984375 
L 18.40625 64.59375 
L 9.421875 64.59375 
z
" id="DejaVuSans-69"/>
      <path d="M 52 44.1875 
Q 55.375 50.25 60.0625 53.125 
Q 64.75 56 71.09375 56 
Q 79.640625 56 84.28125 50.015625 
Q 88.921875 44.046875 88.921875 33.015625 
L 88.921875 0 
L 79.890625 0 
L 79.890625 32.71875 
Q 79.890625 40.578125 77.09375 44.375 
Q 74.3125 48.1875 68.609375 48.1875 
Q 61.625 48.1875 57.5625 43.546875 
Q 53.515625 38.921875 53.515625 30.90625 
L 53.515625 0 
L 44.484375 0 
L 44.484375 32.71875 
Q 44.484375 40.625 41.703125 44.40625 
Q 38.921875 48.1875 33.109375 48.1875 
Q 26.21875 48.1875 22.15625 43.53125 
Q 18.109375 38.875 18.109375 30.90625 
L 18.109375 0 
L 9.078125 0 
L 9.078125 54.6875 
L 18.109375 54.6875 
L 18.109375 46.1875 
Q 21.1875 51.21875 25.484375 53.609375 
Q 29.78125 56 35.6875 56 
Q 41.65625 56 45.828125 52.96875 
Q 50 49.953125 52 44.1875 
z
" id="DejaVuSans-6d"/>
      <path d="M 54.890625 33.015625 
L 54.890625 0 
L 45.90625 0 
L 45.90625 32.71875 
Q 45.90625 40.484375 42.875 44.328125 
Q 39.84375 48.1875 33.796875 48.1875 
Q 26.515625 48.1875 22.3125 43.546875 
Q 18.109375 38.921875 18.109375 30.90625 
L 18.109375 0 
L 9.078125 0 
L 9.078125 54.6875 
L 18.109375 54.6875 
L 18.109375 46.1875 
Q 21.34375 51.125 25.703125 53.5625 
Q 30.078125 56 35.796875 56 
Q 45.21875 56 50.046875 50.171875 
Q 54.890625 44.34375 54.890625 33.015625 
z
" id="DejaVuSans-6e"/>
      <path d="M 8.015625 75.875 
L 15.828125 75.875 
Q 23.140625 64.359375 26.78125 53.3125 
Q 30.421875 42.28125 30.421875 31.390625 
Q 30.421875 20.453125 26.78125 9.375 
Q 23.140625 -1.703125 15.828125 -13.1875 
L 8.015625 -13.1875 
Q 14.5 -2 17.703125 9.0625 
Q 20.90625 20.125 20.90625 31.390625 
Q 20.90625 42.671875 17.703125 53.65625 
Q 14.5 64.65625 8.015625 75.875 
z
" id="DejaVuSans-29"/>
     </defs>
     <g transform="translate(73.803219 338.153594)scale(0.17 -0.17)">
      <use xlink:href="#DejaVuSans-6c"/>
      <use x="27.783203" xlink:href="#DejaVuSans-6f"/>
      <use x="88.964844" xlink:href="#DejaVuSans-67"/>
      <use x="152.441406" xlink:href="#DejaVuSans-31"/>
      <use x="216.064453" xlink:href="#DejaVuSans-30"/>
      <use x="279.6875" xlink:href="#DejaVuSans-28"/>
      <use x="318.701172" xlink:href="#DejaVuSans-23"/>
      <use x="402.490234" xlink:href="#DejaVuSans-20"/>
      <use x="434.277344" xlink:href="#DejaVuSans-66"/>
      <use x="469.404297" xlink:href="#DejaVuSans-2d"/>
      <use x="505.488281" xlink:href="#DejaVuSans-65"/>
      <use x="567.011719" xlink:href="#DejaVuSans-76"/>
      <use x="626.191406" xlink:href="#DejaVuSans-61"/>
      <use x="687.470703" xlink:href="#DejaVuSans-6c"/>
      <use x="715.253906" xlink:href="#DejaVuSans-73"/>
      <use x="767.353516" xlink:href="#DejaVuSans-20"/>
      <use x="799.140625" xlink:href="#DejaVuSans-2f"/>
      <use x="832.832031" xlink:href="#DejaVuSans-20"/>
      <use x="864.619141" xlink:href="#DejaVuSans-64"/>
      <use x="928.095703" xlink:href="#DejaVuSans-69"/>
      <use x="955.878906" xlink:href="#DejaVuSans-6d"/>
      <use x="1053.291016" xlink:href="#DejaVuSans-65"/>
      <use x="1114.814453" xlink:href="#DejaVuSans-6e"/>
      <use x="1178.193359" xlink:href="#DejaVuSans-73"/>
      <use x="1230.292969" xlink:href="#DejaVuSans-69"/>
      <use x="1258.076172" xlink:href="#DejaVuSans-6f"/>
      <use x="1319.257812" xlink:href="#DejaVuSans-6e"/>
      <use x="1382.636719" xlink:href="#DejaVuSans-29"/>
     </g>
    </g>
   </g>
   <g id="matplotlib.axis_2">
    <g id="ytick_1">
     <g id="line2d_29">
      <path clip-path="url(#pbc56df6af3)" d="M 56.12 294.88 
L 333.168 294.88 
" style="fill:none;stroke:#b0b0b0;stroke-linecap:square;stroke-width:0.8;"/>
     </g>
     <g id="line2d_30">
      <defs>
       <path d="M 0 0 
L -3.5 0 
" id="m501cafb497" style="stroke:#000000;stroke-width:0.8;"/>
      </defs>
      <g>
       <use style="stroke:#000000;stroke-width:0.8;" x="56.12" xlink:href="#m501cafb497" y="294.88"/>
      </g>
     </g>
     <g id="text_6">
      <!-- 0.0 -->
      <defs>
       <path d="M 10.6875 12.40625 
L 21 12.40625 
L 21 0 
L 10.6875 0 
z
" id="DejaVuSans-2e"/>
      </defs>
      <g transform="translate(23.675 300.95875)scale(0.16 -0.16)">
       <use xlink:href="#DejaVuSans-30"/>
       <use x="63.623047" xlink:href="#DejaVuSans-2e"/>
       <use x="95.410156" xlink:href="#DejaVuSans-30"/>
      </g>
     </g>
    </g>
    <g id="ytick_2">
     <g id="line2d_31">
      <path clip-path="url(#pbc56df6af3)" d="M 56.12 241.406733 
L 333.168 241.406733 
" style="fill:none;stroke:#b0b0b0;stroke-linecap:square;stroke-width:0.8;"/>
     </g>
     <g id="line2d_32">
      <g>
       <use style="stroke:#000000;stroke-width:0.8;" x="56.12" xlink:href="#m501cafb497" y="241.406733"/>
      </g>
     </g>
     <g id="text_7">
      <!-- 0.2 -->
      <g transform="translate(23.675 247.485483)scale(0.16 -0.16)">
       <use xlink:href="#DejaVuSans-30"/>
       <use x="63.623047" xlink:href="#DejaVuSans-2e"/>
       <use x="95.410156" xlink:href="#DejaVuSans-32"/>
      </g>
     </g>
    </g>
    <g id="ytick_3">
     <g id="line2d_33">
      <path clip-path="url(#pbc56df6af3)" d="M 56.12 187.933465 
L 333.168 187.933465 
" style="fill:none;stroke:#b0b0b0;stroke-linecap:square;stroke-width:0.8;"/>
     </g>
     <g id="line2d_34">
      <g>
       <use style="stroke:#000000;stroke-width:0.8;" x="56.12" xlink:href="#m501cafb497" y="187.933465"/>
      </g>
     </g>
     <g id="text_8">
      <!-- 0.4 -->
      <g transform="translate(23.675 194.012215)scale(0.16 -0.16)">
       <use xlink:href="#DejaVuSans-30"/>
       <use x="63.623047" xlink:href="#DejaVuSans-2e"/>
       <use x="95.410156" xlink:href="#DejaVuSans-34"/>
      </g>
     </g>
    </g>
    <g id="ytick_4">
     <g id="line2d_35">
      <path clip-path="url(#pbc56df6af3)" d="M 56.12 134.460198 
L 333.168 134.460198 
" style="fill:none;stroke:#b0b0b0;stroke-linecap:square;stroke-width:0.8;"/>
     </g>
     <g id="line2d_36">
      <g>
       <use style="stroke:#000000;stroke-width:0.8;" x="56.12" xlink:href="#m501cafb497" y="134.460198"/>
      </g>
     </g>
     <g id="text_9">
      <!-- 0.6 -->
      <g transform="translate(23.675 140.538948)scale(0.16 -0.16)">
       <use xlink:href="#DejaVuSans-30"/>
       <use x="63.623047" xlink:href="#DejaVuSans-2e"/>
       <use x="95.410156" xlink:href="#DejaVuSans-36"/>
      </g>
     </g>
    </g>
    <g id="ytick_5">
     <g id="line2d_37">
      <path clip-path="url(#pbc56df6af3)" d="M 56.12 80.986931 
L 333.168 80.986931 
" style="fill:none;stroke:#b0b0b0;stroke-linecap:square;stroke-width:0.8;"/>
     </g>
     <g id="line2d_38">
      <g>
       <use style="stroke:#000000;stroke-width:0.8;" x="56.12" xlink:href="#m501cafb497" y="80.986931"/>
      </g>
     </g>
     <g id="text_10">
      <!-- 0.8 -->
      <defs>
       <path d="M 31.78125 34.625 
Q 24.75 34.625 20.71875 30.859375 
Q 16.703125 27.09375 16.703125 20.515625 
Q 16.703125 13.921875 20.71875 10.15625 
Q 24.75 6.390625 31.78125 6.390625 
Q 38.8125 6.390625 42.859375 10.171875 
Q 46.921875 13.96875 46.921875 20.515625 
Q 46.921875 27.09375 42.890625 30.859375 
Q 38.875 34.625 31.78125 34.625 
z
M 21.921875 38.8125 
Q 15.578125 40.375 12.03125 44.71875 
Q 8.5 49.078125 8.5 55.328125 
Q 8.5 64.0625 14.71875 69.140625 
Q 20.953125 74.21875 31.78125 74.21875 
Q 42.671875 74.21875 48.875 69.140625 
Q 55.078125 64.0625 55.078125 55.328125 
Q 55.078125 49.078125 51.53125 44.71875 
Q 48 40.375 41.703125 38.8125 
Q 48.828125 37.15625 52.796875 32.3125 
Q 56.78125 27.484375 56.78125 20.515625 
Q 56.78125 9.90625 50.3125 4.234375 
Q 43.84375 -1.421875 31.78125 -1.421875 
Q 19.734375 -1.421875 13.25 4.234375 
Q 6.78125 9.90625 6.78125 20.515625 
Q 6.78125 27.484375 10.78125 32.3125 
Q 14.796875 37.15625 21.921875 38.8125 
z
M 18.3125 54.390625 
Q 18.3125 48.734375 21.84375 45.5625 
Q 25.390625 42.390625 31.78125 42.390625 
Q 38.140625 42.390625 41.71875 45.5625 
Q 45.3125 48.734375 45.3125 54.390625 
Q 45.3125 60.0625 41.71875 63.234375 
Q 38.140625 66.40625 31.78125 66.40625 
Q 25.390625 66.40625 21.84375 63.234375 
Q 18.3125 60.0625 18.3125 54.390625 
z
" id="DejaVuSans-38"/>
      </defs>
      <g transform="translate(23.675 87.065681)scale(0.16 -0.16)">
       <use xlink:href="#DejaVuSans-30"/>
       <use x="63.623047" xlink:href="#DejaVuSans-2e"/>
       <use x="95.410156" xlink:href="#DejaVuSans-38"/>
      </g>
     </g>
    </g>
    <g id="ytick_6">
     <g id="line2d_39">
      <path clip-path="url(#pbc56df6af3)" d="M 56.12 27.513663 
L 333.168 27.513663 
" style="fill:none;stroke:#b0b0b0;stroke-linecap:square;stroke-width:0.8;"/>
     </g>
     <g id="line2d_40">
      <g>
       <use style="stroke:#000000;stroke-width:0.8;" x="56.12" xlink:href="#m501cafb497" y="27.513663"/>
      </g>
     </g>
     <g id="text_11">
      <!-- 1.0 -->
      <g transform="translate(23.675 33.592413)scale(0.16 -0.16)">
       <use xlink:href="#DejaVuSans-31"/>
       <use x="63.623047" xlink:href="#DejaVuSans-2e"/>
       <use x="95.410156" xlink:href="#DejaVuSans-30"/>
      </g>
     </g>
    </g>
    <g id="text_12">
     <!-- Fraction of function,target pairs -->
     <defs>
      <path d="M 9.8125 72.90625 
L 51.703125 72.90625 
L 51.703125 64.59375 
L 19.671875 64.59375 
L 19.671875 43.109375 
L 48.578125 43.109375 
L 48.578125 34.8125 
L 19.671875 34.8125 
L 19.671875 0 
L 9.8125 0 
z
" id="DejaVuSans-46"/>
      <path d="M 41.109375 46.296875 
Q 39.59375 47.171875 37.8125 47.578125 
Q 36.03125 48 33.890625 48 
Q 26.265625 48 22.1875 43.046875 
Q 18.109375 38.09375 18.109375 28.8125 
L 18.109375 0 
L 9.078125 0 
L 9.078125 54.6875 
L 18.109375 54.6875 
L 18.109375 46.1875 
Q 20.953125 51.171875 25.484375 53.578125 
Q 30.03125 56 36.53125 56 
Q 37.453125 56 38.578125 55.875 
Q 39.703125 55.765625 41.0625 55.515625 
z
" id="DejaVuSans-72"/>
      <path d="M 48.78125 52.59375 
L 48.78125 44.1875 
Q 44.96875 46.296875 41.140625 47.34375 
Q 37.3125 48.390625 33.40625 48.390625 
Q 24.65625 48.390625 19.8125 42.84375 
Q 14.984375 37.3125 14.984375 27.296875 
Q 14.984375 17.28125 19.8125 11.734375 
Q 24.65625 6.203125 33.40625 6.203125 
Q 37.3125 6.203125 41.140625 7.25 
Q 44.96875 8.296875 48.78125 10.40625 
L 48.78125 2.09375 
Q 45.015625 0.34375 40.984375 -0.53125 
Q 36.96875 -1.421875 32.421875 -1.421875 
Q 20.0625 -1.421875 12.78125 6.34375 
Q 5.515625 14.109375 5.515625 27.296875 
Q 5.515625 40.671875 12.859375 48.328125 
Q 20.21875 56 33.015625 56 
Q 37.15625 56 41.109375 55.140625 
Q 45.0625 54.296875 48.78125 52.59375 
z
" id="DejaVuSans-63"/>
      <path d="M 18.3125 70.21875 
L 18.3125 54.6875 
L 36.8125 54.6875 
L 36.8125 47.703125 
L 18.3125 47.703125 
L 18.3125 18.015625 
Q 18.3125 11.328125 20.140625 9.421875 
Q 21.96875 7.515625 27.59375 7.515625 
L 36.8125 7.515625 
L 36.8125 0 
L 27.59375 0 
Q 17.1875 0 13.234375 3.875 
Q 9.28125 7.765625 9.28125 18.015625 
L 9.28125 47.703125 
L 2.6875 47.703125 
L 2.6875 54.6875 
L 9.28125 54.6875 
L 9.28125 70.21875 
z
" id="DejaVuSans-74"/>
      <path d="M 8.5 21.578125 
L 8.5 54.6875 
L 17.484375 54.6875 
L 17.484375 21.921875 
Q 17.484375 14.15625 20.5 10.265625 
Q 23.53125 6.390625 29.59375 6.390625 
Q 36.859375 6.390625 41.078125 11.03125 
Q 45.3125 15.671875 45.3125 23.6875 
L 45.3125 54.6875 
L 54.296875 54.6875 
L 54.296875 0 
L 45.3125 0 
L 45.3125 8.40625 
Q 42.046875 3.421875 37.71875 1 
Q 33.40625 -1.421875 27.6875 -1.421875 
Q 18.265625 -1.421875 13.375 4.4375 
Q 8.5 10.296875 8.5 21.578125 
z
M 31.109375 56 
z
" id="DejaVuSans-75"/>
      <path d="M 11.71875 12.40625 
L 22.015625 12.40625 
L 22.015625 4 
L 14.015625 -11.625 
L 7.71875 -11.625 
L 11.71875 4 
z
" id="DejaVuSans-2c"/>
      <path d="M 18.109375 8.203125 
L 18.109375 -20.796875 
L 9.078125 -20.796875 
L 9.078125 54.6875 
L 18.109375 54.6875 
L 18.109375 46.390625 
Q 20.953125 51.265625 25.265625 53.625 
Q 29.59375 56 35.59375 56 
Q 45.5625 56 51.78125 48.09375 
Q 58.015625 40.1875 58.015625 27.296875 
Q 58.015625 14.40625 51.78125 6.484375 
Q 45.5625 -1.421875 35.59375 -1.421875 
Q 29.59375 -1.421875 25.265625 0.953125 
Q 20.953125 3.328125 18.109375 8.203125 
z
M 48.6875 27.296875 
Q 48.6875 37.203125 44.609375 42.84375 
Q 40.53125 48.484375 33.40625 48.484375 
Q 26.265625 48.484375 22.1875 42.84375 
Q 18.109375 37.203125 18.109375 27.296875 
Q 18.109375 17.390625 22.1875 11.75 
Q 26.265625 6.109375 33.40625 6.109375 
Q 40.53125 6.109375 44.609375 11.75 
Q 48.6875 17.390625 48.6875 27.296875 
z
" id="DejaVuSans-70"/>
     </defs>
     <g transform="translate(16.139531 294.999375)rotate(-90)scale(0.17 -0.17)">
      <use xlink:href="#DejaVuSans-46"/>
      <use x="57.410156" xlink:href="#DejaVuSans-72"/>
      <use x="98.523438" xlink:href="#DejaVuSans-61"/>
      <use x="159.802734" xlink:href="#DejaVuSans-63"/>
      <use x="214.783203" xlink:href="#DejaVuSans-74"/>
      <use x="253.992188" xlink:href="#DejaVuSans-69"/>
      <use x="281.775391" xlink:href="#DejaVuSans-6f"/>
      <use x="342.957031" xlink:href="#DejaVuSans-6e"/>
      <use x="406.335938" xlink:href="#DejaVuSans-20"/>
      <use x="438.123047" xlink:href="#DejaVuSans-6f"/>
      <use x="499.304688" xlink:href="#DejaVuSans-66"/>
      <use x="534.509766" xlink:href="#DejaVuSans-20"/>
      <use x="566.296875" xlink:href="#DejaVuSans-66"/>
      <use x="601.501953" xlink:href="#DejaVuSans-75"/>
      <use x="664.880859" xlink:href="#DejaVuSans-6e"/>
      <use x="728.259766" xlink:href="#DejaVuSans-63"/>
      <use x="783.240234" xlink:href="#DejaVuSans-74"/>
      <use x="822.449219" xlink:href="#DejaVuSans-69"/>
      <use x="850.232422" xlink:href="#DejaVuSans-6f"/>
      <use x="911.414062" xlink:href="#DejaVuSans-6e"/>
      <use x="974.792969" xlink:href="#DejaVuSans-2c"/>
      <use x="1006.580078" xlink:href="#DejaVuSans-74"/>
      <use x="1045.789062" xlink:href="#DejaVuSans-61"/>
      <use x="1107.068359" xlink:href="#DejaVuSans-72"/>
      <use x="1148.166016" xlink:href="#DejaVuSans-67"/>
      <use x="1211.642578" xlink:href="#DejaVuSans-65"/>
      <use x="1273.166016" xlink:href="#DejaVuSans-74"/>
      <use x="1312.375" xlink:href="#DejaVuSans-20"/>
      <use x="1344.162109" xlink:href="#DejaVuSans-70"/>
      <use x="1407.638672" xlink:href="#DejaVuSans-61"/>
      <use x="1468.917969" xlink:href="#DejaVuSans-69"/>
      <use x="1496.701172" xlink:href="#DejaVuSans-72"/>
      <use x="1537.814453" xlink:href="#DejaVuSans-73"/>
     </g>
    </g>
   </g>
   <g id="line2d_41">
    <defs>
     <path d="M 0 1.5 
C 0.397805 1.5 0.77937 1.341951 1.06066 1.06066 
C 1.341951 0.77937 1.5 0.397805 1.5 0 
C 1.5 -0.397805 1.341951 -0.77937 1.06066 -1.06066 
C 0.77937 -1.341951 0.397805 -1.5 0 -1.5 
C -0.397805 -1.5 -0.77937 -1.341951 -1.06066 -1.06066 
C -1.341951 -0.77937 -1.5 -0.397805 -1.5 0 
C -1.5 0.397805 -1.341951 0.77937 -1.06066 1.06066 
C -0.77937 1.341951 -0.397805 1.5 0 1.5 
z
" id="m1db5cc9a13" style="stroke:#f5deb3;"/>
    </defs>
    <g>
     <use style="fill:#f5deb3;stroke:#f5deb3;" x="140.447686" xlink:href="#m1db5cc9a13" y="27.513663"/>
     <use style="fill:#f5deb3;stroke:#f5deb3;" x="140.447686" xlink:href="#m1db5cc9a13" y="27.513663"/>
    </g>
   </g>
   <g id="line2d_42">
    <path clip-path="url(#pbc56df6af3)" d="M 56.12 294.88 
L 56.12 294.88 
L 56.12 294.88 
L 56.12 294.88 
L 333.168 294.88 
" style="fill:none;stroke:#000080;stroke-linecap:square;stroke-width:1.5;"/>
   </g>
   <g id="line2d_43">
    <defs>
     <path d="M 0 6 
C 1.591219 6 3.117479 5.367802 4.242641 4.242641 
C 5.367802 3.117479 6 1.591219 6 0 
C 6 -1.591219 5.367802 -3.117479 4.242641 -4.242641 
C 3.117479 -5.367802 1.591219 -6 0 -6 
C -1.591219 -6 -3.117479 -5.367802 -4.242641 -4.242641 
C -5.367802 -3.117479 -6 -1.591219 -6 0 
C -6 1.591219 -5.367802 3.117479 -4.242641 4.242641 
C -3.117479 5.367802 -1.591219 6 0 6 
z
" id="m405f2c780a" style="stroke:#000080;stroke-width:1.5;"/>
    </defs>
    <g clip-path="url(#pbc56df6af3)">
     <use style="fill:none;stroke:#000080;stroke-width:1.5;" x="56.12" xlink:href="#m405f2c780a" y="294.88"/>
    </g>
   </g>
   <g id="line2d_44">
    <path clip-path="url(#pbc56df6af3)" style="fill:none;stroke:#000080;stroke-linecap:square;stroke-width:1.5;"/>
    <g clip-path="url(#pbc56df6af3)">
     <use style="fill:none;stroke:#000080;stroke-width:1.5;" x="-1" xlink:href="#m405f2c780a" y="562.246337"/>
     <use style="fill:none;stroke:#000080;stroke-width:1.5;" x="333.168" xlink:href="#m405f2c780a" y="562.246337"/>
    </g>
   </g>
   <g id="line2d_45">
    <defs>
     <path d="M 0 1.5 
C 0.397805 1.5 0.77937 1.341951 1.06066 1.06066 
C 1.341951 0.77937 1.5 0.397805 1.5 0 
C 1.5 -0.397805 1.341951 -0.77937 1.06066 -1.06066 
C 0.77937 -1.341951 0.397805 -1.5 0 -1.5 
C -0.397805 -1.5 -0.77937 -1.341951 -1.06066 -1.06066 
C -1.341951 -0.77937 -1.5 -0.397805 -1.5 0 
C -1.5 0.397805 -1.341951 0.77937 -1.06066 1.06066 
C -0.77937 1.341951 -0.397805 1.5 0 1.5 
z
" id="md61a7b31ee" style="stroke:#ff00ff;"/>
    </defs>
    <g>
     <use style="fill:#ff00ff;stroke:#ff00ff;" x="181.233226" xlink:href="#md61a7b31ee" y="27.513663"/>
     <use style="fill:#ff00ff;stroke:#ff00ff;" x="181.233226" xlink:href="#md61a7b31ee" y="27.513663"/>
    </g>
   </g>
   <g id="line2d_46">
    <path d="M 121.16504 294.88 
L 121.16504 293.831505 
L 122.003676 293.831505 
L 122.003676 292.258761 
L 124.036471 292.258761 
L 124.036471 290.686018 
L 125.310285 290.686018 
L 125.310285 290.161771 
L 125.734717 290.161771 
L 125.734717 289.637523 
L 126.381204 289.637523 
L 126.410019 288.589027 
L 126.496178 288.589027 
L 126.496178 287.016284 
L 127.307509 287.016284 
L 127.307509 286.492036 
L 127.605507 286.492036 
L 127.605507 285.443541 
L 127.951152 285.443541 
L 127.951152 284.919293 
L 128.082264 284.919293 
L 128.082264 284.395046 
L 128.212383 284.395046 
L 128.212383 283.870798 
L 128.647561 283.870798 
L 128.647561 282.298055 
L 129.047315 282.298055 
L 129.047315 281.773807 
L 129.606147 281.773807 
L 129.677716 279.152568 
L 130.100987 279.152568 
L 130.14738 277.579825 
L 130.536746 277.579825 
L 130.581979 276.007082 
L 131.441039 276.007082 
L 131.441039 274.434339 
L 131.844497 274.434339 
L 131.844497 273.910091 
L 132.279675 273.910091 
L 132.279675 272.861596 
L 132.503304 272.861596 
L 132.503304 272.337348 
L 133.079291 272.337348 
L 133.079291 271.8131 
L 133.273515 271.8131 
L 133.273515 270.764605 
L 133.843356 270.764605 
L 133.862029 268.667614 
L 134.574897 268.667614 
L 134.574897 268.143366 
L 135.276571 268.143366 
L 135.3623 267.094871 
L 135.950722 267.094871 
L 135.950722 266.570623 
L 136.196864 266.570623 
L 136.196864 266.046375 
L 136.599426 266.046375 
L 136.599426 265.522128 
L 137.827708 265.522128 
L 137.84252 264.473632 
L 138.3961 264.473632 
L 138.3961 263.949385 
L 138.960174 263.949385 
L 138.960174 263.425137 
L 150.629917 263.425137 
L 150.629917 262.900889 
L 152.532844 262.900889 
L 152.532844 262.376641 
L 153.452569 262.376641 
L 153.452569 261.852394 
L 153.771982 261.852394 
L 153.771982 261.328146 
L 154.998849 261.328146 
L 154.998849 260.803898 
L 155.467145 260.803898 
L 155.467145 260.279651 
L 158.055229 260.279651 
L 158.055229 259.755403 
L 158.770966 259.755403 
L 158.770966 259.231155 
L 160.914358 259.231155 
L 160.914358 258.706907 
L 161.160133 258.706907 
L 161.160133 258.18266 
L 161.52233 258.18266 
L 161.570796 257.134164 
L 162.116746 257.134164 
L 162.116746 256.609917 
L 162.544168 256.609917 
L 162.645887 255.561421 
L 162.998948 255.561421 
L 162.998948 255.037173 
L 163.415273 255.037173 
L 163.415273 254.512926 
L 164.01014 254.512926 
L 164.01014 253.988678 
L 164.805497 253.988678 
L 164.903911 252.415935 
L 165.27403 252.415935 
L 165.27403 251.891687 
L 165.494706 251.891687 
L 165.494706 251.367439 
L 165.645161 251.367439 
L 165.69795 250.318944 
L 166.22279 250.318944 
L 166.22279 249.794696 
L 166.487713 249.794696 
L 166.487713 249.270448 
L 166.795379 249.270448 
L 166.795379 248.746201 
L 167.258829 248.746201 
L 167.258829 248.221953 
L 167.526806 248.221953 
L 167.526806 247.697705 
L 167.652711 247.697705 
L 167.652711 247.173458 
L 167.816575 247.173458 
L 167.824339 246.124962 
L 167.999393 246.124962 
L 167.999393 245.600714 
L 168.124439 245.600714 
L 168.228375 244.552219 
L 168.787828 244.552219 
L 168.873241 242.979476 
L 168.917003 242.979476 
L 168.972759 241.93098 
L 169.112563 241.93098 
L 169.210709 240.358237 
L 169.336756 240.358237 
L 169.336756 239.83399 
L 169.820382 239.83399 
L 169.820382 239.309742 
L 169.944339 239.309742 
L 169.944339 238.785494 
L 170.139925 238.785494 
L 170.139925 238.261246 
L 170.406943 238.261246 
L 170.446973 237.212751 
L 170.61497 237.212751 
L 170.715861 236.164255 
L 170.796584 236.164255 
L 170.796584 235.640008 
L 171.113603 235.640008 
L 171.113603 235.11576 
L 171.311188 235.11576 
L 171.403884 233.543017 
L 171.441661 233.543017 
L 171.535742 231.970274 
L 171.621015 231.970274 
L 171.621015 231.446026 
L 171.798517 231.446026 
L 171.798517 230.921778 
L 171.941654 230.921778 
L 172.000606 229.349035 
L 172.101776 229.349035 
L 172.109843 228.30054 
L 172.272409 228.30054 
L 172.366036 226.727797 
L 172.397794 226.727797 
L 172.459157 225.155053 
L 172.510455 225.155053 
L 172.612593 224.106558 
L 172.741362 224.106558 
L 172.818937 222.533815 
L 172.907717 222.533815 
L 172.978796 221.485319 
L 173.159962 221.485319 
L 173.214887 219.912576 
L 173.32797 219.912576 
L 173.421641 216.76709 
L 173.444047 216.76709 
L 173.50737 215.194347 
L 173.57972 215.194347 
L 173.679397 213.097356 
L 173.765684 213.097356 
L 173.873393 211.524613 
L 173.931531 211.524613 
L 173.960526 210.476117 
L 174.052622 210.476117 
L 174.154973 207.330631 
L 174.224653 207.330631 
L 174.324216 204.185145 
L 174.347246 204.185145 
L 174.444342 202.088154 
L 174.514615 202.088154 
L 174.617745 198.41842 
L 174.642126 198.41842 
L 174.735845 195.797181 
L 174.782513 195.797181 
L 174.866885 191.603199 
L 174.973051 191.603199 
L 175.078566 188.981961 
L 175.095524 188.981961 
L 175.200292 183.739484 
L 175.238996 183.739484 
L 175.346236 181.118245 
L 175.37461 181.118245 
L 175.464429 175.875768 
L 175.487639 175.875768 
L 175.593344 170.633291 
L 175.601575 170.633291 
L 175.686944 165.915061 
L 175.726202 165.915061 
L 175.823958 160.672584 
L 175.854798 160.672584 
L 175.924391 155.954354 
L 175.985658 155.954354 
L 176.091553 151.236125 
L 176.102746 151.236125 
L 176.177712 145.4694 
L 176.241256 145.4694 
L 176.347169 136.557189 
L 176.367644 136.557189 
L 176.432059 132.363207 
L 176.493109 132.363207 
L 176.569506 124.499491 
L 176.61301 124.499491 
L 176.70432 120.30551 
L 176.741324 120.30551 
L 176.844209 114.538785 
L 176.864101 114.538785 
L 176.961694 107.723564 
L 176.986006 107.723564 
L 177.046637 103.529583 
L 177.107054 103.529583 
L 177.207779 95.665867 
L 177.225757 95.665867 
L 177.312387 90.947637 
L 177.34662 90.947637 
L 177.44152 86.229408 
L 177.465163 86.229408 
L 177.54325 83.608169 
L 177.582894 83.608169 
L 177.693996 79.414188 
L 177.699824 79.414188 
L 177.782654 76.792949 
L 177.815964 76.792949 
L 177.876624 73.123215 
L 177.931324 73.123215 
L 177.988715 70.501976 
L 178.045915 70.501976 
L 178.102926 67.35649 
L 178.159748 67.35649 
L 178.216382 64.735251 
L 178.272831 64.735251 
L 178.329095 61.065517 
L 178.385176 61.065517 
L 178.441074 56.871536 
L 178.49679 56.871536 
L 178.607685 53.201802 
L 178.662865 53.201802 
L 178.728849 48.483572 
L 178.783642 48.483572 
L 178.881832 44.28959 
L 178.93614 44.28959 
L 179.028073 42.192599 
L 179.098044 42.192599 
L 179.098044 41.668352 
L 179.238469 41.668352 
L 179.289008 40.619856 
L 179.36454 40.619856 
L 179.36454 39.571361 
L 179.54735 39.571361 
L 179.54735 39.047113 
L 179.782521 39.047113 
L 179.782521 38.522865 
L 179.981384 38.522865 
L 180.089469 37.47437 
L 180.140098 37.47437 
L 180.240912 36.425875 
L 180.291097 36.425875 
L 180.391032 34.328884 
L 180.440782 34.328884 
L 180.490388 32.231893 
L 180.656761 32.231893 
L 180.736295 30.65915 
L 180.785058 30.65915 
L 180.882169 29.610654 
L 180.930519 29.610654 
L 180.930519 29.086407 
L 181.114215 29.086407 
L 181.217801 28.037911 
L 181.233226 28.037911 
L 181.233226 27.513663 
L 333.168 27.513663 
L 333.168 27.513663 
" style="fill:none;stroke:#ff00ff;stroke-linecap:square;stroke-width:1.5;"/>
   </g>
   <g id="line2d_47">
    <defs>
     <path d="M -0 8.485281 
L 5.091169 0 
L 0 -8.485281 
L -5.091169 -0 
z
" id="m5ddf66da97" style="stroke:#ff00ff;stroke-linejoin:miter;stroke-width:1.5;"/>
    </defs>
    <g>
     <use style="fill:none;stroke:#ff00ff;stroke-linejoin:miter;stroke-width:1.5;" x="158.770966" xlink:href="#m5ddf66da97" y="259.755403"/>
     <use style="fill:none;stroke:#ff00ff;stroke-linejoin:miter;stroke-width:1.5;" x="177.693996" xlink:href="#m5ddf66da97" y="79.938435"/>
     <use style="fill:none;stroke:#ff00ff;stroke-linejoin:miter;stroke-width:1.5;" x="181.233226" xlink:href="#m5ddf66da97" y="28.037911"/>
     <use style="fill:none;stroke:#ff00ff;stroke-linejoin:miter;stroke-width:1.5;" x="181.233226" xlink:href="#m5ddf66da97" y="27.513663"/>
     <use style="fill:none;stroke:#ff00ff;stroke-linejoin:miter;stroke-width:1.5;" x="333.168" xlink:href="#m5ddf66da97" y="27.513663"/>
    </g>
   </g>
   <g id="line2d_48">
    <path style="fill:none;stroke:#ff00ff;stroke-linecap:square;stroke-width:1.5;"/>
    <g/>
   </g>
   <g id="line2d_49">
    <defs>
     <path d="M 0 1.5 
C 0.397805 1.5 0.77937 1.341951 1.06066 1.06066 
C 1.341951 0.77937 1.5 0.397805 1.5 0 
C 1.5 -0.397805 1.341951 -0.77937 1.06066 -1.06066 
C 0.77937 -1.341951 0.397805 -1.5 0 -1.5 
C -0.397805 -1.5 -0.77937 -1.341951 -1.06066 -1.06066 
C -1.341951 -0.77937 -1.5 -0.397805 -1.5 0 
C -1.5 0.397805 -1.341951 0.77937 -1.06066 1.06066 
C -0.77937 1.341951 -0.397805 1.5 0 1.5 
z
" id="m0b438d4d10" style="stroke:#ff7500;"/>
    </defs>
    <g>
     <use style="fill:#ff7500;stroke:#ff7500;" x="179.922606" xlink:href="#m0b438d4d10" y="27.513663"/>
     <use style="fill:#ff7500;stroke:#ff7500;" x="179.922606" xlink:href="#m0b438d4d10" y="27.513663"/>
    </g>
   </g>
   <g id="line2d_50">
    <path d="M 112.253934 294.88 
L 112.253934 294.355752 
L 112.770924 294.355752 
L 112.770924 293.307257 
L 113.396034 293.307257 
L 113.396034 292.783009 
L 113.999206 292.783009 
L 113.999206 292.258761 
L 114.117341 292.258761 
L 114.117341 291.734514 
L 114.581927 291.734514 
L 114.581927 291.210266 
L 114.75296 291.210266 
L 114.75296 290.686018 
L 114.922307 290.686018 
L 114.922307 290.161771 
L 115.637457 290.161771 
L 115.637457 289.637523 
L 116.220179 289.637523 
L 116.220179 288.589027 
L 116.427273 288.589027 
L 116.427273 288.06478 
L 116.682681 288.06478 
L 116.682681 287.540532 
L 116.834124 287.540532 
L 116.884309 285.967789 
L 117.37827 285.967789 
L 117.37827 284.395046 
L 118.140217 284.395046 
L 118.186736 283.34655 
L 119.09161 283.34655 
L 119.135627 282.298055 
L 119.223324 282.298055 
L 119.223324 281.773807 
L 119.397387 281.773807 
L 119.397387 281.249559 
L 120.729861 281.249559 
L 120.729861 280.725312 
L 120.849643 280.725312 
L 120.889386 279.676816 
L 120.968596 279.676816 
L 120.968596 279.152568 
L 121.12593 279.152568 
L 121.12593 278.628321 
L 121.359263 278.628321 
L 121.436343 277.579825 
L 121.474753 277.579825 
L 121.474753 277.055578 
L 121.589472 277.055578 
L 121.589472 276.53133 
L 121.816638 276.53133 
L 121.816638 276.007082 
L 121.929105 276.007082 
L 121.929105 275.482834 
L 122.077925 275.482834 
L 122.114929 274.434339 
L 122.225468 274.434339 
L 122.225468 273.910091 
L 122.696418 273.910091 
L 122.732117 272.861596 
L 123.903739 272.861596 
L 123.903739 272.337348 
L 124.331421 272.337348 
L 124.331421 271.8131 
L 124.969291 271.8131 
L 124.969291 271.288853 
L 125.094073 271.288853 
L 125.094073 270.764605 
L 125.248787 270.764605 
L 125.248787 270.240357 
L 126.119664 270.240357 
L 126.119664 269.716109 
L 126.265455 269.716109 
L 126.265455 269.191862 
L 126.381204 269.191862 
L 126.381204 268.667614 
L 126.836558 268.667614 
L 126.836558 268.143366 
L 127.416471 268.143366 
L 127.416471 267.619119 
L 128.056122 267.619119 
L 128.056122 267.094871 
L 128.341524 267.094871 
L 128.341524 266.570623 
L 128.647561 266.570623 
L 128.647561 266.046375 
L 129.047315 266.046375 
L 129.047315 265.522128 
L 138.581462 265.522128 
L 138.581462 264.99788 
L 139.812678 264.99788 
L 139.812678 264.473632 
L 141.804906 264.473632 
L 141.804906 263.949385 
L 142.776273 263.949385 
L 142.776273 263.425137 
L 142.953135 263.425137 
L 142.953135 262.900889 
L 144.678145 262.900889 
L 144.678145 262.376641 
L 145.149096 262.376641 
L 145.149096 261.852394 
L 145.961904 261.852394 
L 145.961904 261.328146 
L 146.381382 261.328146 
L 146.381382 260.803898 
L 146.965905 260.803898 
L 146.965905 260.279651 
L 147.455203 260.279651 
L 147.455203 259.755403 
L 147.715578 259.755403 
L 147.715578 259.231155 
L 148.176162 259.231155 
L 148.176162 258.706907 
L 148.537534 258.706907 
L 148.537534 258.18266 
L 149.200066 258.18266 
L 149.200066 257.658412 
L 149.443019 257.658412 
L 149.443019 257.134164 
L 149.756771 257.134164 
L 149.756771 256.609917 
L 150.006631 256.609917 
L 150.006631 256.085669 
L 150.317517 256.085669 
L 150.317517 255.561421 
L 150.509889 255.561421 
L 150.509889 255.037173 
L 150.818844 255.037173 
L 150.818844 254.512926 
L 151.115504 254.512926 
L 151.190579 253.46443 
L 151.910766 253.46443 
L 151.910766 252.940182 
L 152.144276 252.940182 
L 152.144276 252.415935 
L 152.31097 252.415935 
L 152.31097 251.891687 
L 152.551729 251.891687 
L 152.551729 251.367439 
L 152.813965 251.367439 
L 152.813965 250.843192 
L 152.980457 250.843192 
L 152.980457 250.318944 
L 153.789554 250.318944 
L 153.789554 249.794696 
L 153.999032 249.794696 
L 153.999032 249.270448 
L 154.194556 249.270448 
L 154.205988 248.221953 
L 154.579054 248.221953 
L 154.579054 247.697705 
L 154.872884 247.697705 
L 154.966077 246.64921 
L 155.091364 246.64921 
L 155.091364 246.124962 
L 155.22113 246.124962 
L 155.22113 245.600714 
L 155.583571 245.600714 
L 155.651999 244.552219 
L 155.714923 244.552219 
L 155.772401 242.979476 
L 155.876417 242.979476 
L 155.974653 241.406733 
L 156.08258 241.406733 
L 156.08258 240.882485 
L 156.472615 240.882485 
L 156.472615 240.358237 
L 156.632139 240.358237 
L 156.632139 239.83399 
L 156.819671 239.83399 
L 156.927315 238.261246 
L 156.966291 238.261246 
L 156.966291 237.736999 
L 157.24147 237.736999 
L 157.24147 237.212751 
L 157.47928 237.212751 
L 157.582883 235.11576 
L 157.629769 235.11576 
L 157.639131 234.067265 
L 157.820678 234.067265 
L 157.926853 232.494521 
L 157.968221 232.494521 
L 158.064362 231.446026 
L 158.114508 231.446026 
L 158.12361 230.397531 
L 158.227935 230.397531 
L 158.227935 229.873283 
L 158.669895 229.873283 
L 158.709516 228.824787 
L 158.788484 228.824787 
L 158.888862 227.776292 
L 158.941001 227.776292 
L 159.04912 226.203549 
L 159.087877 226.203549 
L 159.143705 225.155053 
L 159.199352 225.155053 
L 159.259079 223.058063 
L 159.322843 223.058063 
L 159.386372 221.485319 
L 159.445454 221.485319 
L 159.516924 220.436824 
L 159.57556 220.436824 
L 159.683927 218.339833 
L 159.770958 218.339833 
L 159.845207 215.718594 
L 159.906838 215.718594 
L 160.00091 213.621604 
L 160.029439 213.621604 
L 160.114742 209.95187 
L 160.159257 209.95187 
L 160.191559 207.854879 
L 160.288102 207.854879 
L 160.384106 204.185145 
L 160.415988 204.185145 
L 160.499399 201.039658 
L 160.574519 201.039658 
L 160.672864 198.942667 
L 160.723782 198.942667 
L 160.825167 197.369924 
L 160.867881 197.369924 
L 160.976132 194.748686 
L 160.983838 194.748686 
L 161.076044 191.078952 
L 161.110494 191.078952 
L 161.221032 187.409218 
L 161.224831 187.409218 
L 161.334639 185.312227 
L 161.342186 185.312227 
L 161.428741 182.690988 
L 161.499915 182.690988 
L 161.596837 179.021254 
L 161.619126 179.021254 
L 161.73014 175.875768 
L 161.741202 175.875768 
L 161.851433 172.206034 
L 161.880709 172.206034 
L 161.982784 166.439309 
L 162.008208 166.439309 
L 162.113139 162.769575 
L 162.120352 162.769575 
L 162.213847 158.051345 
L 162.231768 158.051345 
L 162.321097 154.381611 
L 162.388678 154.381611 
L 162.498374 150.711877 
L 162.523048 150.711877 
L 162.631893 147.042143 
L 162.635392 147.042143 
L 162.740052 144.420905 
L 162.753959 144.420905 
L 162.864809 140.751171 
L 162.885514 140.751171 
L 162.964653 137.605684 
L 163.009223 137.605684 
L 163.118445 133.411703 
L 163.128649 133.411703 
L 163.226976 128.693473 
L 163.24725 128.693473 
L 163.321382 125.547987 
L 163.401891 125.547987 
L 163.485356 122.926748 
L 163.521952 122.926748 
L 163.608144 118.732766 
L 163.634578 118.732766 
L 163.739909 114.538785 
L 163.75303 114.538785 
L 163.785789 112.966042 
L 163.864157 112.966042 
L 163.961617 110.344803 
L 164.045637 110.344803 
L 164.122832 108.77206 
L 164.158097 108.77206 
L 164.247538 104.578078 
L 164.317488 104.578078 
L 164.402949 102.481087 
L 164.431342 102.481087 
L 164.516239 100.908344 
L 164.544446 100.908344 
L 164.572606 98.287105 
L 164.675467 98.287105 
L 164.780805 94.617371 
L 164.790068 94.617371 
L 164.894709 90.947637 
L 164.916173 90.947637 
L 164.980407 89.899142 
L 165.032231 89.899142 
L 165.135411 86.229408 
L 165.168661 86.229408 
L 165.27403 84.132417 
L 165.298024 84.132417 
L 165.387704 83.083922 
L 165.41154 83.083922 
L 165.521353 80.986931 
L 165.527269 80.986931 
L 165.606935 79.938435 
L 165.642223 79.938435 
L 165.73013 77.841444 
L 165.765167 77.841444 
L 165.808863 74.17171 
L 165.942177 74.17171 
L 166.040052 71.026224 
L 166.091644 71.026224 
L 166.091644 70.501976 
L 166.245497 70.501976 
L 166.341665 67.35649 
L 166.409226 67.35649 
L 166.487713 64.735251 
L 166.524032 64.735251 
L 166.613107 63.162508 
L 166.69896 63.162508 
L 166.701722 62.114013 
L 166.836536 62.114013 
L 166.945809 58.444279 
L 167.016466 58.444279 
L 167.054392 56.871536 
L 167.167671 56.871536 
L 167.167671 55.82304 
L 167.344186 55.82304 
L 167.352166 54.774545 
L 168.037769 54.774545 
L 168.037769 54.250297 
L 168.466813 54.250297 
L 168.466813 52.677554 
L 168.724103 52.677554 
L 168.724103 51.629058 
L 168.839127 51.629058 
L 168.839127 51.104811 
L 168.972759 51.104811 
L 168.972759 50.580563 
L 169.435989 50.580563 
L 169.435989 50.056315 
L 169.651377 50.056315 
L 169.727982 49.00782 
L 169.769624 49.00782 
L 169.769624 48.483572 
L 169.891652 48.483572 
L 169.98546 47.435077 
L 170.04241 47.435077 
L 170.04241 46.910829 
L 170.234641 46.910829 
L 170.234641 46.386581 
L 170.435863 46.386581 
L 170.526755 45.338086 
L 170.579739 45.338086 
L 170.632559 44.28959 
L 170.693978 44.28959 
L 170.755179 42.716847 
L 170.922366 42.716847 
L 170.922366 42.192599 
L 176.158603 42.192599 
L 176.158603 41.668352 
L 176.521213 41.668352 
L 176.521213 41.144104 
L 177.093478 41.144104 
L 177.147715 40.095609 
L 177.555006 40.095609 
L 177.555006 39.571361 
L 177.844876 39.571361 
L 177.844876 39.047113 
L 177.995876 39.047113 
L 178.080144 37.998618 
L 178.186672 37.998618 
L 178.186672 37.47437 
L 178.379576 37.47437 
L 178.379576 36.950122 
L 178.528746 36.950122 
L 178.528746 36.425875 
L 178.764484 36.425875 
L 178.835534 35.377379 
L 178.879112 35.377379 
L 178.984872 34.328884 
L 179.005136 34.328884 
L 179.098044 33.280388 
L 179.261097 33.280388 
L 179.360573 31.707645 
L 179.397563 31.707645 
L 179.459476 30.65915 
L 179.599599 30.65915 
L 179.671183 29.610654 
L 179.76832 29.610654 
L 179.834061 28.037911 
L 179.922606 28.037911 
L 179.922606 27.513663 
L 333.168 27.513663 
L 333.168 27.513663 
" style="fill:none;stroke:#ff7500;stroke-linecap:square;stroke-width:1.5;"/>
   </g>
   <g id="line2d_51">
    <defs>
     <path d="M 0 -6 
L -1.347084 -1.854102 
L -5.706339 -1.854102 
L -2.179628 0.708204 
L -3.526712 4.854102 
L -0 2.291796 
L 3.526712 4.854102 
L 2.179628 0.708204 
L 5.706339 -1.854102 
L 1.347084 -1.854102 
z
" id="m5004b7c553" style="stroke:#ff7500;stroke-linejoin:bevel;stroke-width:1.5;"/>
    </defs>
    <g>
     <use style="fill:none;stroke:#ff7500;stroke-linejoin:bevel;stroke-width:1.5;" x="160.288102" xlink:href="#m5004b7c553" y="207.330631"/>
     <use style="fill:none;stroke:#ff7500;stroke-linejoin:bevel;stroke-width:1.5;" x="177.147715" xlink:href="#m5004b7c553" y="40.619856"/>
     <use style="fill:none;stroke:#ff7500;stroke-linejoin:bevel;stroke-width:1.5;" x="179.922606" xlink:href="#m5004b7c553" y="27.513663"/>
     <use style="fill:none;stroke:#ff7500;stroke-linejoin:bevel;stroke-width:1.5;" x="179.922606" xlink:href="#m5004b7c553" y="27.513663"/>
     <use style="fill:none;stroke:#ff7500;stroke-linejoin:bevel;stroke-width:1.5;" x="333.168" xlink:href="#m5004b7c553" y="27.513663"/>
    </g>
   </g>
   <g id="line2d_52">
    <path style="fill:none;stroke:#ff7500;stroke-linecap:square;stroke-width:1.5;"/>
    <g/>
   </g>
   <g id="line2d_53">
    <defs>
     <path d="M 0 1.5 
C 0.397805 1.5 0.77937 1.341951 1.06066 1.06066 
C 1.341951 0.77937 1.5 0.397805 1.5 0 
C 1.5 -0.397805 1.341951 -0.77937 1.06066 -1.06066 
C 0.77937 -1.341951 0.397805 -1.5 0 -1.5 
C -0.397805 -1.5 -0.77937 -1.341951 -1.06066 -1.06066 
C -1.341951 -0.77937 -1.5 -0.397805 -1.5 0 
C -1.5 0.397805 -1.341951 0.77937 -1.06066 1.06066 
C -0.77937 1.341951 -0.397805 1.5 0 1.5 
z
" id="m820f982bbb" style="stroke:#6495ed;"/>
    </defs>
    <g>
     <use style="fill:#6495ed;stroke:#6495ed;" x="171.0965" xlink:href="#m820f982bbb" y="27.513663"/>
     <use style="fill:#6495ed;stroke:#6495ed;" x="171.0965" xlink:href="#m820f982bbb" y="27.513663"/>
    </g>
   </g>
   <g id="line2d_54">
    <path d="M 107.177358 294.88 
L 107.177358 294.355752 
L 110.88904 294.355752 
L 110.88904 293.831505 
L 111.170827 293.831505 
L 111.170827 293.307257 
L 111.516686 293.307257 
L 111.516686 292.783009 
L 112.122219 292.783009 
L 112.122219 291.734514 
L 113.023703 291.734514 
L 113.023703 291.210266 
L 114.176106 291.210266 
L 114.176106 290.686018 
L 114.581927 290.686018 
L 114.581927 290.161771 
L 115.090002 290.161771 
L 115.090002 289.637523 
L 115.311081 289.637523 
L 115.420563 288.589027 
L 115.58349 288.589027 
L 115.58349 288.06478 
L 115.851649 288.06478 
L 115.851649 287.540532 
L 116.631902 287.540532 
L 116.631902 287.016284 
L 118.371562 287.016284 
L 118.371562 286.492036 
L 118.508888 286.492036 
L 118.508888 285.967789 
L 118.825114 285.967789 
L 118.869818 284.919293 
L 119.09161 284.919293 
L 119.179531 283.870798 
L 119.397387 283.870798 
L 119.397387 283.34655 
L 120.15957 283.34655 
L 120.15957 282.822302 
L 120.365424 282.822302 
L 120.365424 282.298055 
L 120.487764 282.298055 
L 120.568842 281.249559 
L 120.689748 281.249559 
L 120.689748 280.201064 
L 121.047443 280.201064 
L 121.12593 279.152568 
L 121.929105 279.152568 
L 122.003676 278.104073 
L 122.371755 278.104073 
L 122.371755 277.579825 
L 122.909503 277.579825 
L 122.909503 276.53133 
L 123.119979 276.53133 
L 123.119979 276.007082 
L 123.499282 276.007082 
L 123.499282 275.482834 
L 124.102454 275.482834 
L 124.102454 274.958587 
L 124.969291 274.958587 
L 124.969291 274.434339 
L 125.187069 274.434339 
L 125.187069 273.910091 
L 125.371564 273.910091 
L 125.463074 272.861596 
L 125.584335 272.861596 
L 125.584335 272.337348 
L 125.854083 272.337348 
L 125.854083 271.8131 
L 126.667211 271.8131 
L 126.667211 271.288853 
L 126.948537 271.288853 
L 126.948537 270.764605 
L 128.186438 270.764605 
L 128.186438 270.240357 
L 128.546153 270.240357 
L 128.546153 269.716109 
L 129.796341 269.716109 
L 129.796341 269.191862 
L 130.400328 269.191862 
L 130.491394 268.143366 
L 131.505376 268.143366 
L 131.505376 267.619119 
L 134.521099 267.619119 
L 134.521099 267.094871 
L 135.379395 267.094871 
L 135.379395 266.570623 
L 135.81799 266.570623 
L 135.81799 266.046375 
L 137.362107 266.046375 
L 137.362107 265.522128 
L 137.723669 265.522128 
L 137.723669 264.99788 
L 138.764847 264.99788 
L 138.764847 264.473632 
L 139.666842 264.473632 
L 139.720016 263.425137 
L 139.799471 263.425137 
L 139.799471 262.900889 
L 140.561812 262.900889 
L 140.574447 261.328146 
L 141.400449 261.328146 
L 141.400449 260.803898 
L 142.119447 260.803898 
L 142.119447 260.279651 
L 142.314579 260.279651 
L 142.416994 259.231155 
L 142.642422 259.231155 
L 142.642422 258.706907 
L 143.632361 258.706907 
L 143.632361 258.18266 
L 144.122158 258.18266 
L 144.122158 257.658412 
L 144.964218 257.658412 
L 144.964218 257.134164 
L 146.327245 257.134164 
L 146.327245 256.609917 
L 146.57844 256.609917 
L 146.57844 256.085669 
L 148.168045 256.085669 
L 148.240964 254.512926 
L 150.417534 254.512926 
L 150.438891 253.46443 
L 150.552348 253.46443 
L 150.658038 252.415935 
L 151.440722 252.415935 
L 151.440722 251.891687 
L 152.176458 251.891687 
L 152.189314 250.843192 
L 152.450768 250.843192 
L 152.450768 250.318944 
L 152.832544 250.318944 
L 152.832544 249.794696 
L 153.108845 249.794696 
L 153.108845 249.270448 
L 153.25441 249.270448 
L 153.338757 248.221953 
L 153.535952 248.221953 
L 153.535952 247.697705 
L 153.801259 247.697705 
L 153.801259 247.173458 
L 154.114315 247.173458 
L 154.114315 246.64921 
L 154.382225 246.64921 
L 154.455596 245.600714 
L 154.595821 245.600714 
L 154.595821 245.076467 
L 154.707183 245.076467 
L 154.74599 244.027971 
L 154.872884 244.027971 
L 154.872884 243.503724 
L 154.987932 243.503724 
L 154.987932 242.979476 
L 155.333878 242.979476 
L 155.333878 242.455228 
L 155.504275 242.455228 
L 155.536037 241.406733 
L 155.808878 241.406733 
L 155.808878 240.882485 
L 156.154157 240.882485 
L 156.154157 240.358237 
L 156.301482 240.358237 
L 156.301482 239.83399 
L 156.422458 239.83399 
L 156.422458 239.309742 
L 156.6371 239.309742 
L 156.736028 237.736999 
L 156.770519 237.736999 
L 156.770519 237.212751 
L 157.01974 237.212751 
L 157.01974 236.688503 
L 157.130962 236.688503 
L 157.130962 236.164255 
L 157.265399 236.164255 
L 157.346511 234.591512 
L 157.446184 234.591512 
L 157.446184 234.067265 
L 157.620402 234.067265 
L 157.64381 233.018769 
L 157.760375 233.018769 
L 157.760375 231.446026 
L 157.903827 231.446026 
L 157.986575 229.349035 
L 158.200781 229.349035 
L 158.200781 228.30054 
L 158.318141 228.30054 
L 158.41235 227.252044 
L 158.434704 227.252044 
L 158.514942 225.155053 
L 158.554921 225.155053 
L 158.616926 223.58231 
L 158.705118 223.58231 
L 158.766584 222.533815 
L 158.954011 222.533815 
L 158.980002 221.485319 
L 159.096477 221.485319 
L 159.195078 219.912576 
L 159.415938 219.912576 
L 159.466505 217.815585 
L 159.608977 217.815585 
L 159.700539 214.145851 
L 159.72957 214.145851 
L 159.816371 212.04886 
L 159.968248 212.04886 
L 160.041651 210.476117 
L 160.09447 210.476117 
L 160.175415 208.903374 
L 160.30414 208.903374 
L 160.408023 205.23364 
L 160.419969 205.23364 
L 160.527113 201.563906 
L 160.558732 201.563906 
L 160.633594 199.991163 
L 160.696383 199.991163 
L 160.801823 198.942667 
L 160.844596 198.942667 
L 160.949133 196.845677 
L 160.968422 196.845677 
L 161.049202 194.748686 
L 161.121962 194.748686 
L 161.232427 193.175943 
L 161.274142 193.175943 
L 161.379872 189.506209 
L 161.402444 189.506209 
L 161.484956 186.88497 
L 161.533527 186.88497 
L 161.626549 184.787979 
L 161.65621 184.787979 
L 161.759623 181.118245 
L 161.792731 181.118245 
L 161.898981 178.497006 
L 161.917234 178.497006 
L 162.02272 175.35152 
L 162.040842 175.35152 
L 162.145574 172.206034 
L 162.163567 172.206034 
L 162.27113 168.5363 
L 162.321097 168.5363 
L 162.420598 163.81807 
L 162.45953 163.81807 
L 162.568776 159.624089 
L 162.575801 159.624089 
L 162.649384 157.00285 
L 162.69129 157.00285 
L 162.785208 153.333116 
L 162.812937 153.333116 
L 162.895857 150.18763 
L 162.940606 150.18763 
L 163.022914 144.945152 
L 163.084387 144.945152 
L 163.182968 141.799666 
L 163.203293 141.799666 
L 163.301196 138.129932 
L 163.328106 138.129932 
L 163.411928 131.838959 
L 163.442005 131.838959 
L 163.468695 127.644978 
L 163.565102 127.644978 
L 163.654377 123.450996 
L 163.684032 123.450996 
L 163.789061 120.829757 
L 163.821752 120.829757 
L 163.919452 116.635776 
L 163.938925 116.635776 
L 163.993981 115.063032 
L 164.081061 115.063032 
L 164.186897 109.820555 
L 164.196486 109.820555 
L 164.304791 105.102326 
L 164.333346 105.102326 
L 164.431342 103.005335 
L 164.447095 103.005335 
L 164.531915 98.811353 
L 164.560096 98.811353 
L 164.6132 95.665867 
L 164.672359 95.665867 
L 164.740605 92.520381 
L 164.783893 92.520381 
L 164.894709 87.277903 
L 164.897777 87.277903 
L 165.001765 83.608169 
L 165.017005 83.608169 
L 165.123304 79.938435 
L 165.135411 79.938435 
L 165.234968 75.744454 
L 165.324977 75.744454 
L 165.42047 71.550472 
L 165.447232 71.550472 
L 165.547958 66.307995 
L 165.58042 66.307995 
L 165.618706 63.686756 
L 165.700878 63.686756 
L 165.808863 60.017022 
L 165.855351 60.017022 
L 165.930625 57.395783 
L 165.976785 57.395783 
L 166.019947 54.774545 
L 166.091644 54.774545 
L 166.177288 52.677554 
L 166.392361 52.677554 
L 166.431687 51.104811 
L 166.57141 51.104811 
L 166.649162 48.483572 
L 166.784387 48.483572 
L 166.836536 46.910829 
L 166.978456 46.910829 
L 167.073324 45.338086 
L 167.12191 45.338086 
L 167.12191 44.813838 
L 167.245454 44.813838 
L 167.333539 43.765343 
L 167.450289 43.765343 
L 167.511002 42.716847 
L 167.665773 42.716847 
L 167.702295 41.668352 
L 167.896636 41.668352 
L 167.955796 40.619856 
L 168.014754 40.619856 
L 168.014754 40.095609 
L 168.132065 40.095609 
L 168.230902 38.522865 
L 168.346752 38.522865 
L 168.349262 36.425875 
L 168.790275 36.425875 
L 168.790275 35.901627 
L 169.059668 35.901627 
L 169.059668 35.377379 
L 169.234562 35.377379 
L 169.234562 34.853131 
L 169.513559 34.853131 
L 169.621105 32.756141 
L 170.07422 32.756141 
L 170.07422 31.707645 
L 170.245882 31.707645 
L 170.245882 31.183397 
L 170.43364 31.183397 
L 170.43364 30.134902 
L 170.641347 30.134902 
L 170.680836 29.086407 
L 170.770445 29.086407 
L 170.770445 28.562159 
L 170.984913 28.562159 
L 170.984913 28.037911 
L 171.0965 28.037911 
L 171.0965 27.513663 
L 333.168 27.513663 
L 333.168 27.513663 
" style="fill:none;stroke:#6495ed;stroke-linecap:square;stroke-width:1.5;"/>
   </g>
   <g id="line2d_55">
    <defs>
     <path d="M -0 6 
L 6 -6 
L -6 -6 
z
" id="mbfb5bf8e00" style="stroke:#6495ed;stroke-linejoin:miter;stroke-width:1.5;"/>
    </defs>
    <g>
     <use style="fill:none;stroke:#6495ed;stroke-linejoin:miter;stroke-width:1.5;" x="156.6371" xlink:href="#mbfb5bf8e00" y="238.785494"/>
     <use style="fill:none;stroke:#6495ed;stroke-linejoin:miter;stroke-width:1.5;" x="171.0965" xlink:href="#mbfb5bf8e00" y="28.037911"/>
     <use style="fill:none;stroke:#6495ed;stroke-linejoin:miter;stroke-width:1.5;" x="171.0965" xlink:href="#mbfb5bf8e00" y="27.513663"/>
     <use style="fill:none;stroke:#6495ed;stroke-linejoin:miter;stroke-width:1.5;" x="171.0965" xlink:href="#mbfb5bf8e00" y="27.513663"/>
     <use style="fill:none;stroke:#6495ed;stroke-linejoin:miter;stroke-width:1.5;" x="333.168" xlink:href="#mbfb5bf8e00" y="27.513663"/>
    </g>
   </g>
   <g id="line2d_56">
    <path style="fill:none;stroke:#6495ed;stroke-linecap:square;stroke-width:1.5;"/>
    <g/>
   </g>
   <g id="line2d_57">
    <defs>
     <path d="M 0 1.5 
C 0.397805 1.5 0.77937 1.341951 1.06066 1.06066 
C 1.341951 0.77937 1.5 0.397805 1.5 0 
C 1.5 -0.397805 1.341951 -0.77937 1.06066 -1.06066 
C 0.77937 -1.341951 0.397805 -1.5 0 -1.5 
C -0.397805 -1.5 -0.77937 -1.341951 -1.06066 -1.06066 
C -1.341951 -0.77937 -1.5 -0.397805 -1.5 0 
C -1.5 0.397805 -1.341951 0.77937 -1.06066 1.06066 
C -0.77937 1.341951 -0.397805 1.5 0 1.5 
z
" id="mcf63892895" style="stroke:#ff0000;"/>
    </defs>
    <g>
     <use style="fill:#ff0000;stroke:#ff0000;" x="179.875182" xlink:href="#mcf63892895" y="27.513663"/>
     <use style="fill:#ff0000;stroke:#ff0000;" x="179.875182" xlink:href="#mcf63892895" y="27.513663"/>
    </g>
   </g>
   <g id="line2d_58">
    <path d="M 110.457504 294.88 
L 110.457504 293.831505 
L 110.602556 293.831505 
L 110.602556 293.307257 
L 112.707144 293.307257 
L 112.707144 292.783009 
L 113.579218 292.783009 
L 113.579218 292.258761 
L 113.760471 292.258761 
L 113.760471 291.734514 
L 115.145539 291.734514 
L 115.145539 291.210266 
L 115.58349 291.210266 
L 115.58349 290.686018 
L 115.798351 290.686018 
L 115.798351 289.637523 
L 116.478659 289.637523 
L 116.478659 289.113275 
L 116.631902 289.113275 
L 116.631902 288.589027 
L 116.783791 288.589027 
L 116.783791 288.06478 
L 117.523731 288.06478 
L 117.523731 287.540532 
L 117.999901 287.540532 
L 117.999901 287.016284 
L 118.599834 287.016284 
L 118.645127 285.967789 
L 118.735356 285.967789 
L 118.735356 285.443541 
L 119.04748 285.443541 
L 119.04748 284.919293 
L 119.179531 284.919293 
L 119.223324 283.870798 
L 119.310576 283.870798 
L 119.397387 282.822302 
L 119.655222 282.822302 
L 119.655222 282.298055 
L 119.824987 282.298055 
L 119.909246 281.249559 
L 120.283378 281.249559 
L 120.283378 280.725312 
L 120.406301 280.725312 
L 120.406301 280.201064 
L 121.70343 280.201064 
L 121.70343 279.676816 
L 122.1887 279.676816 
L 122.298767 278.628321 
L 122.444434 278.628321 
L 122.444434 278.104073 
L 122.767741 278.104073 
L 122.874172 276.007082 
L 123.189569 276.007082 
L 123.189569 275.482834 
L 123.769975 275.482834 
L 123.803514 274.434339 
L 124.135351 274.434339 
L 124.135351 273.385844 
L 124.653315 273.385844 
L 124.748719 272.337348 
L 125.062963 272.337348 
L 125.062963 271.8131 
L 125.187069 271.8131 
L 125.187069 271.288853 
L 126.638823 271.288853 
L 126.638823 270.764605 
L 127.389295 270.764605 
L 127.389295 270.240357 
L 128.186438 270.240357 
L 128.186438 269.716109 
L 128.418546 269.716109 
L 128.418546 269.191862 
L 129.510254 269.191862 
L 129.510254 268.667614 
L 132.442602 268.667614 
L 132.442602 268.143366 
L 133.157244 268.143366 
L 133.157244 267.619119 
L 134.029181 267.619119 
L 134.029181 267.094871 
L 134.158073 267.094871 
L 134.158073 266.570623 
L 135.481607 266.570623 
L 135.583215 265.522128 
L 137.10132 265.522128 
L 137.10132 264.99788 
L 137.678888 264.99788 
L 137.678888 264.473632 
L 138.778873 264.473632 
L 138.778873 263.949385 
L 140.087702 263.949385 
L 140.087702 263.425137 
L 141.484501 263.425137 
L 141.484501 262.900889 
L 141.96872 262.900889 
L 141.96872 262.376641 
L 142.18857 262.376641 
L 142.18857 261.852394 
L 143.642928 261.852394 
L 143.642928 261.328146 
L 143.779723 261.328146 
L 143.779723 260.803898 
L 144.173452 260.803898 
L 144.173452 260.279651 
L 146.272936 260.279651 
L 146.272936 259.231155 
L 146.515985 259.231155 
L 146.515985 258.706907 
L 147.972068 258.706907 
L 147.972068 258.18266 
L 148.687861 258.18266 
L 148.758613 257.134164 
L 149.830637 257.134164 
L 149.830637 256.609917 
L 150.064898 256.609917 
L 150.064898 256.085669 
L 150.381881 256.085669 
L 150.381881 255.561421 
L 150.971263 255.561421 
L 150.998831 254.512926 
L 151.319485 254.512926 
L 151.319485 253.988678 
L 151.962932 253.988678 
L 152.066791 252.940182 
L 152.551729 252.940182 
L 152.551729 252.415935 
L 152.758108 252.415935 
L 152.758108 251.891687 
L 153.133192 251.891687 
L 153.133192 251.367439 
L 154.200273 251.367439 
L 154.200273 250.843192 
L 154.455596 250.843192 
L 154.455596 250.318944 
L 154.773655 250.318944 
L 154.790233 249.270448 
L 154.905834 249.270448 
L 154.905834 248.746201 
L 155.06964 248.746201 
L 155.06964 248.221953 
L 155.183383 248.221953 
L 155.183383 247.697705 
L 155.317817 247.697705 
L 155.392643 246.64921 
L 155.530748 246.64921 
L 155.530748 246.124962 
L 155.68349 246.124962 
L 155.68349 245.600714 
L 155.850472 245.600714 
L 155.850472 245.076467 
L 156.467606 245.076467 
L 156.572491 242.979476 
L 156.67674 242.979476 
L 156.67674 242.455228 
L 156.941941 242.455228 
L 156.941941 241.93098 
L 157.394046 241.93098 
L 157.502881 240.882485 
L 157.526449 240.882485 
L 157.526449 240.358237 
L 157.732472 240.358237 
L 157.732472 239.83399 
L 157.908435 239.83399 
L 157.908435 239.309742 
L 158.055229 239.309742 
L 158.055229 238.785494 
L 158.336125 238.785494 
L 158.385485 237.736999 
L 158.568226 237.736999 
L 158.6346 236.164255 
L 158.779727 236.164255 
L 158.779727 235.640008 
L 159.014596 235.640008 
L 159.014596 235.11576 
L 159.25056 235.11576 
L 159.284613 234.067265 
L 159.458088 234.067265 
L 159.495934 232.494521 
L 159.621491 232.494521 
L 159.621491 231.970274 
L 159.762689 231.970274 
L 159.762689 231.446026 
L 159.927332 231.446026 
L 159.951893 230.397531 
L 160.102582 230.397531 
L 160.102582 229.873283 
L 160.24392 229.873283 
L 160.352164 227.252044 
L 160.475609 227.252044 
L 160.546882 225.679301 
L 160.613925 225.679301 
L 160.621795 224.630806 
L 160.832941 224.630806 
L 160.941411 223.058063 
L 160.964566 223.058063 
L 161.072212 220.961072 
L 161.076044 220.961072 
L 161.179187 219.388328 
L 161.194415 219.388328 
L 161.274142 216.76709 
L 161.342186 216.76709 
L 161.421232 215.194347 
L 161.548444 215.194347 
L 161.6488 213.097356 
L 161.73014 213.097356 
L 161.811097 211.524613 
L 161.851433 211.524613 
L 161.957322 207.854879 
L 162.004579 207.854879 
L 162.004579 207.330631 
L 162.149174 207.330631 
L 162.246092 205.23364 
L 162.278277 205.23364 
L 162.381577 202.088154 
L 162.441844 202.088154 
L 162.54065 199.466915 
L 162.579312 199.466915 
L 162.656375 194.748686 
L 162.708721 194.748686 
L 162.785208 191.603199 
L 162.864809 191.603199 
L 162.964653 187.933465 
L 162.981809 187.933465 
L 163.033175 186.360722 
L 163.152434 186.360722 
L 163.254002 182.690988 
L 163.267499 182.690988 
L 163.375097 180.06975 
L 163.38515 180.06975 
L 163.492015 176.400016 
L 163.508653 176.400016 
L 163.588292 173.254529 
L 163.651078 173.254529 
L 163.759587 169.584795 
L 163.762864 169.584795 
L 163.864157 164.342318 
L 163.8902 164.342318 
L 164.000446 159.099841 
L 164.04886 159.099841 
L 164.151691 155.954354 
L 164.174103 155.954354 
L 164.273007 154.381611 
L 164.295262 154.381611 
L 164.393474 149.663382 
L 164.412418 149.663382 
L 164.503688 144.420905 
L 164.528781 144.420905 
L 164.638134 142.323914 
L 164.641248 142.323914 
L 164.731314 137.605684 
L 164.786981 137.605684 
L 164.897777 131.838959 
L 164.910043 131.838959 
L 165.017005 128.693473 
L 165.04136 128.693473 
L 165.14751 124.499491 
L 165.171681 124.499491 
L 165.256013 119.257014 
L 165.301021 119.257014 
L 165.396646 116.635776 
L 165.423445 116.635776 
L 165.527269 110.344803 
L 165.542049 110.344803 
L 165.636347 107.723564 
L 165.67744 107.723564 
L 165.768084 103.005335 
L 165.826311 103.005335 
L 165.919066 98.287105 
L 165.956605 98.287105 
L 166.048662 95.665867 
L 166.094506 95.665867 
L 166.202898 91.471885 
L 166.276669 91.471885 
L 166.375479 88.326399 
L 166.400795 88.326399 
L 166.498896 83.083922 
L 166.521241 83.083922 
L 166.624209 79.414188 
L 166.693434 79.414188 
L 166.765134 76.792949 
L 166.833795 76.792949 
L 166.926736 74.17171 
L 166.978456 74.17171 
L 167.086834 72.074719 
L 167.119214 72.074719 
L 167.194532 68.929233 
L 167.242777 68.929233 
L 167.330876 66.307995 
L 167.357484 66.307995 
L 167.463505 62.114013 
L 167.584627 62.114013 
L 167.639639 60.54127 
L 167.72313 60.54127 
L 167.798444 58.968526 
L 167.84761 58.968526 
L 167.948091 55.82304 
L 168.017312 55.82304 
L 168.119353 54.250297 
L 168.134607 54.250297 
L 168.149847 52.677554 
L 168.25363 52.677554 
L 168.324147 50.580563 
L 168.386866 50.580563 
L 168.481762 49.00782 
L 168.501673 49.00782 
L 168.568705 46.910829 
L 168.697071 46.910829 
L 168.731468 45.338086 
L 168.858629 45.338086 
L 168.858629 44.813838 
L 169.093347 44.813838 
L 169.093347 44.28959 
L 175.051398 44.28959 
L 175.051398 43.765343 
L 176.623869 43.765343 
L 176.623869 43.241095 
L 177.002701 43.241095 
L 177.002701 42.716847 
L 177.227254 42.716847 
L 177.227254 42.192599 
L 177.510879 42.192599 
L 177.510879 41.668352 
L 177.717295 41.668352 
L 177.717295 41.144104 
L 177.850653 41.144104 
L 177.850653 40.619856 
L 178.114305 40.619856 
L 178.114305 40.095609 
L 178.27424 40.095609 
L 178.27424 39.571361 
L 178.468955 39.571361 
L 178.575876 38.522865 
L 178.737079 38.522865 
L 178.836898 36.950122 
L 178.911723 36.950122 
L 178.911723 36.425875 
L 179.080578 36.425875 
L 179.162381 35.377379 
L 179.194459 35.377379 
L 179.27971 33.280388 
L 179.306264 33.280388 
L 179.306264 32.756141 
L 179.425254 32.756141 
L 179.425254 31.707645 
L 179.542117 31.707645 
L 179.642586 29.610654 
L 179.703623 29.610654 
L 179.803156 28.037911 
L 179.875182 28.037911 
L 179.875182 27.513663 
L 333.168 27.513663 
L 333.168 27.513663 
" style="fill:none;stroke:#ff0000;stroke-linecap:square;stroke-width:1.5;"/>
   </g>
   <g id="line2d_59">
    <defs>
     <path d="M 0 -6 
L -5.196152 -3 
L -5.196152 3 
L -0 6 
L 5.196152 3 
L 5.196152 -3 
z
" id="mb2f8469b2c" style="stroke:#ff0000;stroke-linejoin:miter;stroke-width:1.5;"/>
    </defs>
    <g>
     <use style="fill:none;stroke:#ff0000;stroke-linejoin:miter;stroke-width:1.5;" x="164.638134" xlink:href="#mb2f8469b2c" y="142.323914"/>
     <use style="fill:none;stroke:#ff0000;stroke-linejoin:miter;stroke-width:1.5;" x="179.875182" xlink:href="#mb2f8469b2c" y="28.037911"/>
     <use style="fill:none;stroke:#ff0000;stroke-linejoin:miter;stroke-width:1.5;" x="179.875182" xlink:href="#mb2f8469b2c" y="27.513663"/>
     <use style="fill:none;stroke:#ff0000;stroke-linejoin:miter;stroke-width:1.5;" x="179.875182" xlink:href="#mb2f8469b2c" y="27.513663"/>
     <use style="fill:none;stroke:#ff0000;stroke-linejoin:miter;stroke-width:1.5;" x="333.168" xlink:href="#mb2f8469b2c" y="27.513663"/>
    </g>
   </g>
   <g id="line2d_60">
    <path style="fill:none;stroke:#ff0000;stroke-linecap:square;stroke-width:1.5;"/>
    <g/>
   </g>
   <g id="line2d_61">
    <path d="M 333.168 294.88 
L 363.64328 289.532673 
" style="fill:none;stroke:#000080;stroke-linecap:square;stroke-width:1.5;"/>
    <g>
     <use style="fill:none;stroke:#000080;stroke-width:1.5;" x="333.168" xlink:href="#m405f2c780a" y="294.88"/>
     <use style="fill:none;stroke:#000080;stroke-width:1.5;" x="363.64328" xlink:href="#m405f2c780a" y="289.532673"/>
    </g>
   </g>
   <g id="line2d_62">
    <path d="M 333.168 27.513663 
L 363.64328 238.198337 
" style="fill:none;stroke:#ff00ff;stroke-linecap:square;stroke-width:1.5;"/>
    <g>
     <use style="fill:none;stroke:#ff00ff;stroke-linejoin:miter;stroke-width:1.5;" x="333.168" xlink:href="#m5ddf66da97" y="27.513663"/>
     <use style="fill:none;stroke:#ff00ff;stroke-linejoin:miter;stroke-width:1.5;" x="363.64328" xlink:href="#m5ddf66da97" y="238.198337"/>
    </g>
   </g>
   <g id="line2d_63">
    <path d="M 333.168 27.513663 
L 363.64328 186.864 
" style="fill:none;stroke:#ff7500;stroke-linecap:square;stroke-width:1.5;"/>
    <g>
     <use style="fill:none;stroke:#ff7500;stroke-linejoin:bevel;stroke-width:1.5;" x="333.168" xlink:href="#m5004b7c553" y="27.513663"/>
     <use style="fill:none;stroke:#ff7500;stroke-linejoin:bevel;stroke-width:1.5;" x="363.64328" xlink:href="#m5004b7c553" y="186.864"/>
    </g>
   </g>
   <g id="line2d_64">
    <path d="M 333.168 27.513663 
L 363.64328 135.529663 
" style="fill:none;stroke:#ff0000;stroke-linecap:square;stroke-width:1.5;"/>
    <g>
     <use style="fill:none;stroke:#ff0000;stroke-linejoin:miter;stroke-width:1.5;" x="333.168" xlink:href="#mb2f8469b2c" y="27.513663"/>
     <use style="fill:none;stroke:#ff0000;stroke-linejoin:miter;stroke-width:1.5;" x="363.64328" xlink:href="#mb2f8469b2c" y="135.529663"/>
    </g>
   </g>
   <g id="line2d_65">
    <path d="M 333.168 27.513663 
L 363.64328 84.195327 
" style="fill:none;stroke:#6495ed;stroke-linecap:square;stroke-width:1.5;"/>
    <g>
     <use style="fill:none;stroke:#6495ed;stroke-linejoin:miter;stroke-width:1.5;" x="333.168" xlink:href="#mbfb5bf8e00" y="27.513663"/>
     <use style="fill:none;stroke:#6495ed;stroke-linejoin:miter;stroke-width:1.5;" x="363.64328" xlink:href="#mbfb5bf8e00" y="84.195327"/>
    </g>
   </g>
   <g id="line2d_66">
    <path d="M 333.168 294.88 
L 333.168 27.513663 
" style="fill:none;stroke:#000000;stroke-linecap:square;stroke-width:1.5;"/>
   </g>
   <g id="patch_3">
    <path d="M 56.12 294.88 
L 56.12 24.84 
" style="fill:none;stroke:#000000;stroke-linecap:square;stroke-linejoin:miter;stroke-width:0.8;"/>
   </g>
   <g id="patch_4">
    <path d="M 333.168 294.88 
L 333.168 24.84 
" style="fill:none;stroke:#000000;stroke-linecap:square;stroke-linejoin:miter;stroke-width:0.8;"/>
   </g>
   <g id="patch_5">
    <path d="M 56.12 294.88 
L 333.168 294.88 
" style="fill:none;stroke:#000000;stroke-linecap:square;stroke-linejoin:miter;stroke-width:0.8;"/>
   </g>
   <g id="patch_6">
    <path d="M 56.12 24.84 
L 333.168 24.84 
" style="fill:none;stroke:#000000;stroke-linecap:square;stroke-linejoin:miter;stroke-width:0.8;"/>
   </g>
   <g id="text_13">
    <!-- scipyAlg -->
    <defs>
     <path d="M 32.171875 -5.078125 
Q 28.375 -14.84375 24.75 -17.8125 
Q 21.140625 -20.796875 15.09375 -20.796875 
L 7.90625 -20.796875 
L 7.90625 -13.28125 
L 13.1875 -13.28125 
Q 16.890625 -13.28125 18.9375 -11.515625 
Q 21 -9.765625 23.484375 -3.21875 
L 25.09375 0.875 
L 2.984375 54.6875 
L 12.5 54.6875 
L 29.59375 11.921875 
L 46.6875 54.6875 
L 56.203125 54.6875 
z
" id="DejaVuSans-79"/>
     <path d="M 34.1875 63.1875 
L 20.796875 26.90625 
L 47.609375 26.90625 
z
M 28.609375 72.90625 
L 39.796875 72.90625 
L 67.578125 0 
L 57.328125 0 
L 50.6875 18.703125 
L 17.828125 18.703125 
L 11.1875 0 
L 0.78125 0 
z
" id="DejaVuSans-41"/>
    </defs>
    <g transform="translate(369.18424 294.223611)scale(0.17 -0.17)">
     <use xlink:href="#DejaVuSans-73"/>
     <use x="52.099609" xlink:href="#DejaVuSans-63"/>
     <use x="107.080078" xlink:href="#DejaVuSans-69"/>
     <use x="134.863281" xlink:href="#DejaVuSans-70"/>
     <use x="198.339844" xlink:href="#DejaVuSans-79"/>
     <use x="257.519531" xlink:href="#DejaVuSans-41"/>
     <use x="325.927734" xlink:href="#DejaVuSans-6c"/>
     <use x="353.710938" xlink:href="#DejaVuSans-67"/>
    </g>
   </g>
   <g id="text_14">
    <!-- CMA ES PP -->
    <defs>
     <path d="M 64.40625 67.28125 
L 64.40625 56.890625 
Q 59.421875 61.53125 53.78125 63.8125 
Q 48.140625 66.109375 41.796875 66.109375 
Q 29.296875 66.109375 22.65625 58.46875 
Q 16.015625 50.828125 16.015625 36.375 
Q 16.015625 21.96875 22.65625 14.328125 
Q 29.296875 6.6875 41.796875 6.6875 
Q 48.140625 6.6875 53.78125 8.984375 
Q 59.421875 11.28125 64.40625 15.921875 
L 64.40625 5.609375 
Q 59.234375 2.09375 53.4375 0.328125 
Q 47.65625 -1.421875 41.21875 -1.421875 
Q 24.65625 -1.421875 15.125 8.703125 
Q 5.609375 18.84375 5.609375 36.375 
Q 5.609375 53.953125 15.125 64.078125 
Q 24.65625 74.21875 41.21875 74.21875 
Q 47.75 74.21875 53.53125 72.484375 
Q 59.328125 70.75 64.40625 67.28125 
z
" id="DejaVuSans-43"/>
     <path d="M 9.8125 72.90625 
L 24.515625 72.90625 
L 43.109375 23.296875 
L 61.8125 72.90625 
L 76.515625 72.90625 
L 76.515625 0 
L 66.890625 0 
L 66.890625 64.015625 
L 48.09375 14.015625 
L 38.1875 14.015625 
L 19.390625 64.015625 
L 19.390625 0 
L 9.8125 0 
z
" id="DejaVuSans-4d"/>
     <path d="M 9.8125 72.90625 
L 55.90625 72.90625 
L 55.90625 64.59375 
L 19.671875 64.59375 
L 19.671875 43.015625 
L 54.390625 43.015625 
L 54.390625 34.71875 
L 19.671875 34.71875 
L 19.671875 8.296875 
L 56.78125 8.296875 
L 56.78125 0 
L 9.8125 0 
z
" id="DejaVuSans-45"/>
     <path d="M 53.515625 70.515625 
L 53.515625 60.890625 
Q 47.90625 63.578125 42.921875 64.890625 
Q 37.9375 66.21875 33.296875 66.21875 
Q 25.25 66.21875 20.875 63.09375 
Q 16.5 59.96875 16.5 54.203125 
Q 16.5 49.359375 19.40625 46.890625 
Q 22.3125 44.4375 30.421875 42.921875 
L 36.375 41.703125 
Q 47.40625 39.59375 52.65625 34.296875 
Q 57.90625 29 57.90625 20.125 
Q 57.90625 9.515625 50.796875 4.046875 
Q 43.703125 -1.421875 29.984375 -1.421875 
Q 24.8125 -1.421875 18.96875 -0.25 
Q 13.140625 0.921875 6.890625 3.21875 
L 6.890625 13.375 
Q 12.890625 10.015625 18.65625 8.296875 
Q 24.421875 6.59375 29.984375 6.59375 
Q 38.421875 6.59375 43.015625 9.90625 
Q 47.609375 13.234375 47.609375 19.390625 
Q 47.609375 24.75 44.3125 27.78125 
Q 41.015625 30.8125 33.5 32.328125 
L 27.484375 33.5 
Q 16.453125 35.6875 11.515625 40.375 
Q 6.59375 45.0625 6.59375 53.421875 
Q 6.59375 63.09375 13.40625 68.65625 
Q 20.21875 74.21875 32.171875 74.21875 
Q 37.3125 74.21875 42.625 73.28125 
Q 47.953125 72.359375 53.515625 70.515625 
z
" id="DejaVuSans-53"/>
     <path d="M 19.671875 64.796875 
L 19.671875 37.40625 
L 32.078125 37.40625 
Q 38.96875 37.40625 42.71875 40.96875 
Q 46.484375 44.53125 46.484375 51.125 
Q 46.484375 57.671875 42.71875 61.234375 
Q 38.96875 64.796875 32.078125 64.796875 
z
M 9.8125 72.90625 
L 32.078125 72.90625 
Q 44.34375 72.90625 50.609375 67.359375 
Q 56.890625 61.8125 56.890625 51.125 
Q 56.890625 40.328125 50.609375 34.8125 
Q 44.34375 29.296875 32.078125 29.296875 
L 19.671875 29.296875 
L 19.671875 0 
L 9.8125 0 
z
" id="DejaVuSans-50"/>
    </defs>
    <g transform="translate(369.18424 242.889274)scale(0.17 -0.17)">
     <use xlink:href="#DejaVuSans-43"/>
     <use x="69.824219" xlink:href="#DejaVuSans-4d"/>
     <use x="156.103516" xlink:href="#DejaVuSans-41"/>
     <use x="224.511719" xlink:href="#DejaVuSans-20"/>
     <use x="256.298828" xlink:href="#DejaVuSans-45"/>
     <use x="319.482422" xlink:href="#DejaVuSans-53"/>
     <use x="382.958984" xlink:href="#DejaVuSans-20"/>
     <use x="414.746094" xlink:href="#DejaVuSans-50"/>
     <use x="475.048828" xlink:href="#DejaVuSans-50"/>
    </g>
   </g>
   <g id="text_15">
    <!-- IPOP-ACTC -->
    <defs>
     <path d="M 9.8125 72.90625 
L 19.671875 72.90625 
L 19.671875 0 
L 9.8125 0 
z
" id="DejaVuSans-49"/>
     <path d="M 39.40625 66.21875 
Q 28.65625 66.21875 22.328125 58.203125 
Q 16.015625 50.203125 16.015625 36.375 
Q 16.015625 22.609375 22.328125 14.59375 
Q 28.65625 6.59375 39.40625 6.59375 
Q 50.140625 6.59375 56.421875 14.59375 
Q 62.703125 22.609375 62.703125 36.375 
Q 62.703125 50.203125 56.421875 58.203125 
Q 50.140625 66.21875 39.40625 66.21875 
z
M 39.40625 74.21875 
Q 54.734375 74.21875 63.90625 63.9375 
Q 73.09375 53.65625 73.09375 36.375 
Q 73.09375 19.140625 63.90625 8.859375 
Q 54.734375 -1.421875 39.40625 -1.421875 
Q 24.03125 -1.421875 14.8125 8.828125 
Q 5.609375 19.09375 5.609375 36.375 
Q 5.609375 53.65625 14.8125 63.9375 
Q 24.03125 74.21875 39.40625 74.21875 
z
" id="DejaVuSans-4f"/>
     <path d="M -0.296875 72.90625 
L 61.375 72.90625 
L 61.375 64.59375 
L 35.5 64.59375 
L 35.5 0 
L 25.59375 0 
L 25.59375 64.59375 
L -0.296875 64.59375 
z
" id="DejaVuSans-54"/>
    </defs>
    <g transform="translate(369.18424 191.554937)scale(0.17 -0.17)">
     <use xlink:href="#DejaVuSans-49"/>
     <use x="29.492188" xlink:href="#DejaVuSans-50"/>
     <use x="89.794922" xlink:href="#DejaVuSans-4f"/>
     <use x="168.505859" xlink:href="#DejaVuSans-50"/>
     <use x="228.777344" xlink:href="#DejaVuSans-2d"/>
     <use x="264.830078" xlink:href="#DejaVuSans-41"/>
     <use x="333.222656" xlink:href="#DejaVuSans-43"/>
     <use x="403.046875" xlink:href="#DejaVuSans-54"/>
     <use x="464.052734" xlink:href="#DejaVuSans-43"/>
    </g>
   </g>
   <g id="text_16">
    <!-- CMAES pos -->
    <g transform="translate(369.18424 140.220601)scale(0.17 -0.17)">
     <use xlink:href="#DejaVuSans-43"/>
     <use x="69.824219" xlink:href="#DejaVuSans-4d"/>
     <use x="156.103516" xlink:href="#DejaVuSans-41"/>
     <use x="224.511719" xlink:href="#DejaVuSans-45"/>
     <use x="287.695312" xlink:href="#DejaVuSans-53"/>
     <use x="351.171875" xlink:href="#DejaVuSans-20"/>
     <use x="382.958984" xlink:href="#DejaVuSans-70"/>
     <use x="446.435547" xlink:href="#DejaVuSans-6f"/>
     <use x="507.617188" xlink:href="#DejaVuSans-73"/>
    </g>
   </g>
   <g id="text_17">
    <!-- IPOP-CMA- -->
    <g transform="translate(369.18424 88.886264)scale(0.17 -0.17)">
     <use xlink:href="#DejaVuSans-49"/>
     <use x="29.492188" xlink:href="#DejaVuSans-50"/>
     <use x="89.794922" xlink:href="#DejaVuSans-4f"/>
     <use x="168.505859" xlink:href="#DejaVuSans-50"/>
     <use x="228.777344" xlink:href="#DejaVuSans-2d"/>
     <use x="264.861328" xlink:href="#DejaVuSans-43"/>
     <use x="334.685547" xlink:href="#DejaVuSans-4d"/>
     <use x="420.964844" xlink:href="#DejaVuSans-41"/>
     <use x="489.341797" xlink:href="#DejaVuSans-2d"/>
    </g>
   </g>
   <g id="text_18">
    <!-- best 2009 -->
    <defs>
     <path d="M 48.6875 27.296875 
Q 48.6875 37.203125 44.609375 42.84375 
Q 40.53125 48.484375 33.40625 48.484375 
Q 26.265625 48.484375 22.1875 42.84375 
Q 18.109375 37.203125 18.109375 27.296875 
Q 18.109375 17.390625 22.1875 11.75 
Q 26.265625 6.109375 33.40625 6.109375 
Q 40.53125 6.109375 44.609375 11.75 
Q 48.6875 17.390625 48.6875 27.296875 
z
M 18.109375 46.390625 
Q 20.953125 51.265625 25.265625 53.625 
Q 29.59375 56 35.59375 56 
Q 45.5625 56 51.78125 48.09375 
Q 58.015625 40.1875 58.015625 27.296875 
Q 58.015625 14.40625 51.78125 6.484375 
Q 45.5625 -1.421875 35.59375 -1.421875 
Q 29.59375 -1.421875 25.265625 0.953125 
Q 20.953125 3.328125 18.109375 8.203125 
L 18.109375 0 
L 9.078125 0 
L 9.078125 75.984375 
L 18.109375 75.984375 
z
" id="DejaVuSans-62"/>
     <path d="M 10.984375 1.515625 
L 10.984375 10.5 
Q 14.703125 8.734375 18.5 7.8125 
Q 22.3125 6.890625 25.984375 6.890625 
Q 35.75 6.890625 40.890625 13.453125 
Q 46.046875 20.015625 46.78125 33.40625 
Q 43.953125 29.203125 39.59375 26.953125 
Q 35.25 24.703125 29.984375 24.703125 
Q 19.046875 24.703125 12.671875 31.3125 
Q 6.296875 37.9375 6.296875 49.421875 
Q 6.296875 60.640625 12.9375 67.421875 
Q 19.578125 74.21875 30.609375 74.21875 
Q 43.265625 74.21875 49.921875 64.515625 
Q 56.59375 54.828125 56.59375 36.375 
Q 56.59375 19.140625 48.40625 8.859375 
Q 40.234375 -1.421875 26.421875 -1.421875 
Q 22.703125 -1.421875 18.890625 -0.6875 
Q 15.09375 0.046875 10.984375 1.515625 
z
M 30.609375 32.421875 
Q 37.25 32.421875 41.125 36.953125 
Q 45.015625 41.5 45.015625 49.421875 
Q 45.015625 57.28125 41.125 61.84375 
Q 37.25 66.40625 30.609375 66.40625 
Q 23.96875 66.40625 20.09375 61.84375 
Q 16.21875 57.28125 16.21875 49.421875 
Q 16.21875 41.5 20.09375 36.953125 
Q 23.96875 32.421875 30.609375 32.421875 
z
" id="DejaVuSans-39"/>
    </defs>
    <g transform="translate(369.18424 37.551928)scale(0.17 -0.17)">
     <use xlink:href="#DejaVuSans-62"/>
     <use x="63.476562" xlink:href="#DejaVuSans-65"/>
     <use x="125" xlink:href="#DejaVuSans-73"/>
     <use x="177.099609" xlink:href="#DejaVuSans-74"/>
     <use x="216.308594" xlink:href="#DejaVuSans-20"/>
     <use x="248.095703" xlink:href="#DejaVuSans-32"/>
     <use x="311.71875" xlink:href="#DejaVuSans-30"/>
     <use x="375.341797" xlink:href="#DejaVuSans-30"/>
     <use x="438.964844" xlink:href="#DejaVuSans-39"/>
    </g>
   </g>
   <g id="text_19">
    <!-- bbob f8, 10-D -->
    <defs>
     <path d="M 19.671875 64.796875 
L 19.671875 8.109375 
L 31.59375 8.109375 
Q 46.6875 8.109375 53.6875 14.9375 
Q 60.6875 21.78125 60.6875 36.53125 
Q 60.6875 51.171875 53.6875 57.984375 
Q 46.6875 64.796875 31.59375 64.796875 
z
M 9.8125 72.90625 
L 30.078125 72.90625 
Q 51.265625 72.90625 61.171875 64.09375 
Q 71.09375 55.28125 71.09375 36.53125 
Q 71.09375 17.671875 61.125 8.828125 
Q 51.171875 0 30.078125 0 
L 9.8125 0 
z
" id="DejaVuSans-44"/>
    </defs>
    <g transform="translate(58.89048 35.290806)scale(0.102 -0.102)">
     <use xlink:href="#DejaVuSans-62"/>
     <use x="63.476562" xlink:href="#DejaVuSans-62"/>
     <use x="126.953125" xlink:href="#DejaVuSans-6f"/>
     <use x="188.134766" xlink:href="#DejaVuSans-62"/>
     <use x="251.611328" xlink:href="#DejaVuSans-20"/>
     <use x="283.398438" xlink:href="#DejaVuSans-66"/>
     <use x="318.603516" xlink:href="#DejaVuSans-38"/>
     <use x="382.226562" xlink:href="#DejaVuSans-2c"/>
     <use x="414.013672" xlink:href="#DejaVuSans-20"/>
     <use x="445.800781" xlink:href="#DejaVuSans-31"/>
     <use x="509.423828" xlink:href="#DejaVuSans-30"/>
     <use x="573.046875" xlink:href="#DejaVuSans-2d"/>
     <use x="609.130859" xlink:href="#DejaVuSans-44"/>
    </g>
    <!-- 51 targets: 100..1e-08 -->
    <defs>
     <path d="M 10.796875 72.90625 
L 49.515625 72.90625 
L 49.515625 64.59375 
L 19.828125 64.59375 
L 19.828125 46.734375 
Q 21.96875 47.46875 24.109375 47.828125 
Q 26.265625 48.1875 28.421875 48.1875 
Q 40.625 48.1875 47.75 41.5 
Q 54.890625 34.8125 54.890625 23.390625 
Q 54.890625 11.625 47.5625 5.09375 
Q 40.234375 -1.421875 26.90625 -1.421875 
Q 22.3125 -1.421875 17.546875 -0.640625 
Q 12.796875 0.140625 7.71875 1.703125 
L 7.71875 11.625 
Q 12.109375 9.234375 16.796875 8.0625 
Q 21.484375 6.890625 26.703125 6.890625 
Q 35.15625 6.890625 40.078125 11.328125 
Q 45.015625 15.765625 45.015625 23.390625 
Q 45.015625 31 40.078125 35.4375 
Q 35.15625 39.890625 26.703125 39.890625 
Q 22.75 39.890625 18.8125 39.015625 
Q 14.890625 38.140625 10.796875 36.28125 
z
" id="DejaVuSans-35"/>
     <path d="M 11.71875 12.40625 
L 22.015625 12.40625 
L 22.015625 0 
L 11.71875 0 
z
M 11.71875 51.703125 
L 22.015625 51.703125 
L 22.015625 39.3125 
L 11.71875 39.3125 
z
" id="DejaVuSans-3a"/>
    </defs>
    <g transform="translate(58.89048 46.712575)scale(0.102 -0.102)">
     <use xlink:href="#DejaVuSans-35"/>
     <use x="63.623047" xlink:href="#DejaVuSans-31"/>
     <use x="127.246094" xlink:href="#DejaVuSans-20"/>
     <use x="159.033203" xlink:href="#DejaVuSans-74"/>
     <use x="198.242188" xlink:href="#DejaVuSans-61"/>
     <use x="259.521484" xlink:href="#DejaVuSans-72"/>
     <use x="300.619141" xlink:href="#DejaVuSans-67"/>
     <use x="364.095703" xlink:href="#DejaVuSans-65"/>
     <use x="425.619141" xlink:href="#DejaVuSans-74"/>
     <use x="464.828125" xlink:href="#DejaVuSans-73"/>
     <use x="516.927734" xlink:href="#DejaVuSans-3a"/>
     <use x="550.619141" xlink:href="#DejaVuSans-20"/>
     <use x="582.40625" xlink:href="#DejaVuSans-31"/>
     <use x="646.029297" xlink:href="#DejaVuSans-30"/>
     <use x="709.652344" xlink:href="#DejaVuSans-30"/>
     <use x="773.275391" xlink:href="#DejaVuSans-2e"/>
     <use x="805.0625" xlink:href="#DejaVuSans-2e"/>
     <use x="836.849609" xlink:href="#DejaVuSans-31"/>
     <use x="900.472656" xlink:href="#DejaVuSans-65"/>
     <use x="961.996094" xlink:href="#DejaVuSans-2d"/>
     <use x="998.080078" xlink:href="#DejaVuSans-30"/>
     <use x="1061.703125" xlink:href="#DejaVuSans-38"/>
    </g>
    <!-- 15 instances -->
    <g transform="translate(58.89048 58.134344)scale(0.102 -0.102)">
     <use xlink:href="#DejaVuSans-31"/>
     <use x="63.623047" xlink:href="#DejaVuSans-35"/>
     <use x="127.246094" xlink:href="#DejaVuSans-20"/>
     <use x="159.033203" xlink:href="#DejaVuSans-69"/>
     <use x="186.816406" xlink:href="#DejaVuSans-6e"/>
     <use x="250.195312" xlink:href="#DejaVuSans-73"/>
     <use x="302.294922" xlink:href="#DejaVuSans-74"/>
     <use x="341.503906" xlink:href="#DejaVuSans-61"/>
     <use x="402.783203" xlink:href="#DejaVuSans-6e"/>
     <use x="466.162109" xlink:href="#DejaVuSans-63"/>
     <use x="521.142578" xlink:href="#DejaVuSans-65"/>
     <use x="582.666016" xlink:href="#DejaVuSans-73"/>
    </g>
   </g>
   <g id="text_20">
    <!-- v0.0.0 -->
    <g style="fill:#808080;" transform="translate(178.96275 290.099912)scale(0.1 -0.1)">
     <use xlink:href="#DejaVuSans-76"/>
     <use x="59.179688" xlink:href="#DejaVuSans-30"/>
     <use x="122.802734" xlink:href="#DejaVuSans-2e"/>
     <use x="154.589844" xlink:href="#DejaVuSans-30"/>
     <use x="218.212891" xlink:href="#DejaVuSans-2e"/>
     <use x="250" xlink:href="#DejaVuSans-30"/>
    </g>
   </g>
   <g id="text_21">
    <!-- 8 Rosenbrock original -->
    <defs>
     <path d="M 44.390625 34.1875 
Q 47.5625 33.109375 50.5625 29.59375 
Q 53.5625 26.078125 56.59375 19.921875 
L 66.609375 0 
L 56 0 
L 46.6875 18.703125 
Q 43.0625 26.03125 39.671875 28.421875 
Q 36.28125 30.8125 30.421875 30.8125 
L 19.671875 30.8125 
L 19.671875 0 
L 9.8125 0 
L 9.8125 72.90625 
L 32.078125 72.90625 
Q 44.578125 72.90625 50.734375 67.671875 
Q 56.890625 62.453125 56.890625 51.90625 
Q 56.890625 45.015625 53.6875 40.46875 
Q 50.484375 35.9375 44.390625 34.1875 
z
M 19.671875 64.796875 
L 19.671875 38.921875 
L 32.078125 38.921875 
Q 39.203125 38.921875 42.84375 42.21875 
Q 46.484375 45.515625 46.484375 51.90625 
Q 46.484375 58.296875 42.84375 61.546875 
Q 39.203125 64.796875 32.078125 64.796875 
z
" id="DejaVuSans-52"/>
     <path d="M 9.078125 75.984375 
L 18.109375 75.984375 
L 18.109375 31.109375 
L 44.921875 54.6875 
L 56.390625 54.6875 
L 27.390625 29.109375 
L 57.625 0 
L 45.90625 0 
L 18.109375 26.703125 
L 18.109375 0 
L 9.078125 0 
z
" id="DejaVuSans-6b"/>
    </defs>
    <g transform="translate(85.922125 18.84)scale(0.2 -0.2)">
     <use xlink:href="#DejaVuSans-38"/>
     <use x="63.623047" xlink:href="#DejaVuSans-20"/>
     <use x="95.410156" xlink:href="#DejaVuSans-52"/>
     <use x="164.830078" xlink:href="#DejaVuSans-6f"/>
     <use x="226.011719" xlink:href="#DejaVuSans-73"/>
     <use x="278.111328" xlink:href="#DejaVuSans-65"/>
     <use x="339.634766" xlink:href="#DejaVuSans-6e"/>
     <use x="403.013672" xlink:href="#DejaVuSans-62"/>
     <use x="466.490234" xlink:href="#DejaVuSans-72"/>
     <use x="507.572266" xlink:href="#DejaVuSans-6f"/>
     <use x="568.753906" xlink:href="#DejaVuSans-63"/>
     <use x="623.734375" xlink:href="#DejaVuSans-6b"/>
     <use x="681.644531" xlink:href="#DejaVuSans-20"/>
     <use x="713.431641" xlink:href="#DejaVuSans-6f"/>
     <use x="774.613281" xlink:href="#DejaVuSans-72"/>
     <use x="815.726562" xlink:href="#DejaVuSans-69"/>
     <use x="843.509766" xlink:href="#DejaVuSans-67"/>
     <use x="906.986328" xlink:href="#DejaVuSans-69"/>
     <use x="934.769531" xlink:href="#DejaVuSans-6e"/>
     <use x="998.148438" xlink:href="#DejaVuSans-61"/>
     <use x="1059.427734" xlink:href="#DejaVuSans-6c"/>
    </g>
   </g>
  </g>
 </g>
 <defs>
  <clipPath id="pbc56df6af3">
   <rect height="270.04" width="277.048" x="56.12" y="24.84"/>
  </clipPath>
 </defs>
</svg>
