<?xml version="1.0" encoding="utf-8" standalone="no"?>
<!DOCTYPE svg PUBLIC "-//W3C//DTD SVG 1.1//EN"
  "http://www.w3.org/Graphics/SVG/1.1/DTD/svg11.dtd">
<!-- Created with matplotlib (http://matplotlib.org/) -->
<svg height="345pt" version="1.1" viewBox="0 0 460 345" width="460pt" xmlns="http://www.w3.org/2000/svg" xmlns:xlink="http://www.w3.org/1999/xlink">
 <defs>
  <style type="text/css">
*{stroke-linecap:butt;stroke-linejoin:round;}
  </style>
 </defs>
 <g id="figure_1">
  <g id="patch_1">
   <path d="M 0 345.6 
L 460.8 345.6 
L 460.8 0 
L 0 0 
z
" style="fill:#ffffff;"/>
  </g>
  <g id="axes_1">
   <g id="patch_2">
    <path d="M 56.12 294.88 
L 333.168 294.88 
L 333.168 24.84 
L 56.12 24.84 
z
" style="fill:#ffffff;"/>
   </g>
   <g id="line2d_1">
    <path d="M 110.782167 294.88 
L 110.782167 289.637523 
L 111.135855 289.637523 
L 111.135855 284.395046 
L 111.855724 284.395046 
L 111.855724 279.152568 
L 116.65731 279.152568 
L 116.65731 273.910091 
L 120.948828 273.910091 
L 120.948828 268.667614 
L 123.396663 268.667614 
L 123.396663 263.425137 
L 126.366778 263.425137 
L 126.366778 258.18266 
L 129.677716 258.18266 
L 129.677716 252.940182 
L 130.411737 252.940182 
L 130.411737 247.697705 
L 131.686367 247.697705 
L 131.686367 242.455228 
L 137.132207 242.455228 
L 137.132207 237.212751 
L 140.818973 237.212751 
L 140.818973 231.970274 
L 143.435674 231.970274 
L 143.435674 226.727797 
L 145.887895 226.727797 
L 145.887895 221.485319 
L 150.378311 221.485319 
L 150.378311 216.242842 
L 154.93872 216.242842 
L 154.93872 211.000365 
L 157.972811 211.000365 
L 157.972811 205.757888 
L 158.709516 205.757888 
L 158.709516 200.515411 
L 159.143705 200.515411 
L 159.143705 195.272933 
L 159.756484 195.272933 
L 159.756484 190.030456 
L 160.320163 190.030456 
L 160.320163 184.787979 
L 160.80377 184.787979 
L 160.80377 179.545502 
L 161.247608 179.545502 
L 161.247608 174.303025 
L 161.641386 174.303025 
L 161.641386 169.060547 
L 162.127562 169.060547 
L 162.127562 163.81807 
L 162.52657 163.81807 
L 162.52657 158.575593 
L 163.007511 158.575593 
L 163.007511 153.333116 
L 163.42196 153.333116 
L 163.42196 148.090639 
L 163.912956 148.090639 
L 163.912956 142.848162 
L 164.303203 142.848162 
L 164.303203 137.605684 
L 164.706516 137.605684 
L 164.706516 132.363207 
L 165.032231 132.363207 
L 165.032231 127.12073 
L 165.456143 127.12073 
L 165.456143 121.878253 
L 165.768084 121.878253 
L 165.768084 116.635776 
L 166.234147 116.635776 
L 166.234147 111.393298 
L 166.477922 111.393298 
L 166.477922 106.150821 
L 166.851602 106.150821 
L 166.851602 100.908344 
L 167.233407 100.908344 
L 167.233407 95.665867 
L 167.579378 95.665867 
L 167.579378 90.42339 
L 167.833393 90.42339 
L 167.833393 85.180912 
L 168.195487 85.180912 
L 168.195487 79.938435 
L 168.521562 79.938435 
L 168.521562 74.695958 
L 168.844004 74.695958 
L 168.844004 69.453481 
L 169.142545 69.453481 
L 169.142545 64.211004 
L 169.431277 64.211004 
L 169.431277 58.968526 
L 169.715238 58.968526 
L 169.715238 53.726049 
L 170.035586 53.726049 
L 170.035586 48.483572 
L 170.375743 48.483572 
L 170.375743 43.241095 
L 170.503524 43.241095 
L 170.503524 37.998618 
L 170.559889 37.998618 
L 170.559889 32.756141 
L 170.656714 32.756141 
L 170.656714 27.513663 
L 333.168 27.513663 
" style="fill:none;stroke:#f5deb3;stroke-linecap:square;stroke-width:4;"/>
   </g>
   <g id="line2d_2">
    <defs>
     <path d="M -0 7.778175 
L 7.778175 0 
L 0 -7.778175 
L -7.778175 -0 
z
" id="me3f5eff507" style="stroke:#f5deb3;stroke-linejoin:miter;stroke-width:1.5;"/>
    </defs>
    <g>
     <use style="fill:#f5deb3;stroke:#f5deb3;stroke-linejoin:miter;stroke-width:1.5;" x="150.378311" xlink:href="#me3f5eff507" y="221.485319"/>
     <use style="fill:#f5deb3;stroke:#f5deb3;stroke-linejoin:miter;stroke-width:1.5;" x="167.579378" xlink:href="#me3f5eff507" y="90.42339"/>
     <use style="fill:#f5deb3;stroke:#f5deb3;stroke-linejoin:miter;stroke-width:1.5;" x="170.656714" xlink:href="#me3f5eff507" y="32.756141"/>
     <use style="fill:#f5deb3;stroke:#f5deb3;stroke-linejoin:miter;stroke-width:1.5;" x="170.656714" xlink:href="#me3f5eff507" y="27.513663"/>
     <use style="fill:#f5deb3;stroke:#f5deb3;stroke-linejoin:miter;stroke-width:1.5;" x="333.168" xlink:href="#me3f5eff507" y="27.513663"/>
    </g>
   </g>
   <g id="line2d_3">
    <path style="fill:none;stroke:#f5deb3;stroke-linecap:square;stroke-width:4;"/>
    <g/>
   </g>
   <g id="line2d_4">
    <path d="M 333.168 27.513663 
L 363.64328 32.86099 
" style="fill:none;stroke:#f5deb3;stroke-linecap:square;stroke-width:4;"/>
    <g>
     <use style="fill:#f5deb3;stroke:#f5deb3;stroke-linejoin:miter;stroke-width:1.5;" x="333.168" xlink:href="#me3f5eff507" y="27.513663"/>
     <use style="fill:#f5deb3;stroke:#f5deb3;stroke-linejoin:miter;stroke-width:1.5;" x="363.64328" xlink:href="#me3f5eff507" y="32.86099"/>
    </g>
   </g>
   <g id="matplotlib.axis_1">
    <g id="xtick_1">
     <g id="line2d_5">
      <path clip-path="url(#p75c1d6e39b)" d="M 56.12 294.88 
L 56.12 24.84 
" style="fill:none;stroke:#b0b0b0;stroke-linecap:square;stroke-width:0.8;"/>
     </g>
     <g id="line2d_6">
      <defs>
       <path d="M 0 0 
L 0 3.5 
" id="mf99f47f4bb" style="stroke:#000000;stroke-width:0.8;"/>
      </defs>
      <g>
       <use style="stroke:#000000;stroke-width:0.8;" x="56.12" xlink:href="#mf99f47f4bb" y="294.88"/>
      </g>
     </g>
     <g id="text_1">
      <!-- 0 -->
      <defs>
       <path d="M 31.78125 66.40625 
Q 24.171875 66.40625 20.328125 58.90625 
Q 16.5 51.421875 16.5 36.375 
Q 16.5 21.390625 20.328125 13.890625 
Q 24.171875 6.390625 31.78125 6.390625 
Q 39.453125 6.390625 43.28125 13.890625 
Q 47.125 21.390625 47.125 36.375 
Q 47.125 51.421875 43.28125 58.90625 
Q 39.453125 66.40625 31.78125 66.40625 
z
M 31.78125 74.21875 
Q 44.046875 74.21875 50.515625 64.515625 
Q 56.984375 54.828125 56.984375 36.375 
Q 56.984375 17.96875 50.515625 8.265625 
Q 44.046875 -1.421875 31.78125 -1.421875 
Q 19.53125 -1.421875 13.0625 8.265625 
Q 6.59375 17.96875 6.59375 36.375 
Q 6.59375 54.828125 13.0625 64.515625 
Q 19.53125 74.21875 31.78125 74.21875 
z
" id="DejaVuSans-30"/>
      </defs>
      <g transform="translate(49.7575 317.076875)scale(0.2 -0.2)">
       <use xlink:href="#DejaVuSans-30"/>
      </g>
     </g>
    </g>
    <g id="xtick_2">
     <g id="line2d_7">
      <path clip-path="url(#p75c1d6e39b)" d="M 135.276571 294.88 
L 135.276571 24.84 
" style="fill:none;stroke:#b0b0b0;stroke-linecap:square;stroke-width:0.8;"/>
     </g>
     <g id="line2d_8">
      <g>
       <use style="stroke:#000000;stroke-width:0.8;" x="135.276571" xlink:href="#mf99f47f4bb" y="294.88"/>
      </g>
     </g>
     <g id="text_2">
      <!-- 2 -->
      <defs>
       <path d="M 19.1875 8.296875 
L 53.609375 8.296875 
L 53.609375 0 
L 7.328125 0 
L 7.328125 8.296875 
Q 12.9375 14.109375 22.625 23.890625 
Q 32.328125 33.6875 34.8125 36.53125 
Q 39.546875 41.84375 41.421875 45.53125 
Q 43.3125 49.21875 43.3125 52.78125 
Q 43.3125 58.59375 39.234375 62.25 
Q 35.15625 65.921875 28.609375 65.921875 
Q 23.96875 65.921875 18.8125 64.3125 
Q 13.671875 62.703125 7.8125 59.421875 
L 7.8125 69.390625 
Q 13.765625 71.78125 18.9375 73 
Q 24.125 74.21875 28.421875 74.21875 
Q 39.75 74.21875 46.484375 68.546875 
Q 53.21875 62.890625 53.21875 53.421875 
Q 53.21875 48.921875 51.53125 44.890625 
Q 49.859375 40.875 45.40625 35.40625 
Q 44.1875 33.984375 37.640625 27.21875 
Q 31.109375 20.453125 19.1875 8.296875 
z
" id="DejaVuSans-32"/>
      </defs>
      <g transform="translate(128.914071 317.076875)scale(0.2 -0.2)">
       <use xlink:href="#DejaVuSans-32"/>
      </g>
     </g>
    </g>
    <g id="xtick_3">
     <g id="line2d_9">
      <path clip-path="url(#p75c1d6e39b)" d="M 214.433143 294.88 
L 214.433143 24.84 
" style="fill:none;stroke:#b0b0b0;stroke-linecap:square;stroke-width:0.8;"/>
     </g>
     <g id="line2d_10">
      <g>
       <use style="stroke:#000000;stroke-width:0.8;" x="214.433143" xlink:href="#mf99f47f4bb" y="294.88"/>
      </g>
     </g>
     <g id="text_3">
      <!-- 4 -->
      <defs>
       <path d="M 37.796875 64.3125 
L 12.890625 25.390625 
L 37.796875 25.390625 
z
M 35.203125 72.90625 
L 47.609375 72.90625 
L 47.609375 25.390625 
L 58.015625 25.390625 
L 58.015625 17.1875 
L 47.609375 17.1875 
L 47.609375 0 
L 37.796875 0 
L 37.796875 17.1875 
L 4.890625 17.1875 
L 4.890625 26.703125 
z
" id="DejaVuSans-34"/>
      </defs>
      <g transform="translate(208.070643 317.076875)scale(0.2 -0.2)">
       <use xlink:href="#DejaVuSans-34"/>
      </g>
     </g>
    </g>
    <g id="xtick_4">
     <g id="line2d_11">
      <path clip-path="url(#p75c1d6e39b)" d="M 293.589714 294.88 
L 293.589714 24.84 
" style="fill:none;stroke:#b0b0b0;stroke-linecap:square;stroke-width:0.8;"/>
     </g>
     <g id="line2d_12">
      <g>
       <use style="stroke:#000000;stroke-width:0.8;" x="293.589714" xlink:href="#mf99f47f4bb" y="294.88"/>
      </g>
     </g>
     <g id="text_4">
      <!-- 6 -->
      <defs>
       <path d="M 33.015625 40.375 
Q 26.375 40.375 22.484375 35.828125 
Q 18.609375 31.296875 18.609375 23.390625 
Q 18.609375 15.53125 22.484375 10.953125 
Q 26.375 6.390625 33.015625 6.390625 
Q 39.65625 6.390625 43.53125 10.953125 
Q 47.40625 15.53125 47.40625 23.390625 
Q 47.40625 31.296875 43.53125 35.828125 
Q 39.65625 40.375 33.015625 40.375 
z
M 52.59375 71.296875 
L 52.59375 62.3125 
Q 48.875 64.0625 45.09375 64.984375 
Q 41.3125 65.921875 37.59375 65.921875 
Q 27.828125 65.921875 22.671875 59.328125 
Q 17.53125 52.734375 16.796875 39.40625 
Q 19.671875 43.65625 24.015625 45.921875 
Q 28.375 48.1875 33.59375 48.1875 
Q 44.578125 48.1875 50.953125 41.515625 
Q 57.328125 34.859375 57.328125 23.390625 
Q 57.328125 12.15625 50.6875 5.359375 
Q 44.046875 -1.421875 33.015625 -1.421875 
Q 20.359375 -1.421875 13.671875 8.265625 
Q 6.984375 17.96875 6.984375 36.375 
Q 6.984375 53.65625 15.1875 63.9375 
Q 23.390625 74.21875 37.203125 74.21875 
Q 40.921875 74.21875 44.703125 73.484375 
Q 48.484375 72.75 52.59375 71.296875 
z
" id="DejaVuSans-36"/>
      </defs>
      <g transform="translate(287.227214 317.076875)scale(0.2 -0.2)">
       <use xlink:href="#DejaVuSans-36"/>
      </g>
     </g>
    </g>
    <g id="xtick_5">
     <g id="line2d_13">
      <path clip-path="url(#p75c1d6e39b)" d="M 56.12 294.88 
L 56.12 24.84 
" style="fill:none;stroke:#b0b0b0;stroke-linecap:square;stroke-width:0.8;"/>
     </g>
     <g id="line2d_14">
      <defs>
       <path d="M 0 0 
L 0 2 
" id="mf9e57c0bc0" style="stroke:#000000;stroke-width:0.6;"/>
      </defs>
      <g>
       <use style="stroke:#000000;stroke-width:0.6;" x="56.12" xlink:href="#mf9e57c0bc0" y="294.88"/>
      </g>
     </g>
    </g>
    <g id="xtick_6">
     <g id="line2d_15">
      <path clip-path="url(#p75c1d6e39b)" d="M 95.698286 294.88 
L 95.698286 24.84 
" style="fill:none;stroke:#b0b0b0;stroke-linecap:square;stroke-width:0.8;"/>
     </g>
     <g id="line2d_16">
      <g>
       <use style="stroke:#000000;stroke-width:0.6;" x="95.698286" xlink:href="#mf9e57c0bc0" y="294.88"/>
      </g>
     </g>
    </g>
    <g id="xtick_7">
     <g id="line2d_17">
      <path clip-path="url(#p75c1d6e39b)" d="M 135.276571 294.88 
L 135.276571 24.84 
" style="fill:none;stroke:#b0b0b0;stroke-linecap:square;stroke-width:0.8;"/>
     </g>
     <g id="line2d_18">
      <g>
       <use style="stroke:#000000;stroke-width:0.6;" x="135.276571" xlink:href="#mf9e57c0bc0" y="294.88"/>
      </g>
     </g>
    </g>
    <g id="xtick_8">
     <g id="line2d_19">
      <path clip-path="url(#p75c1d6e39b)" d="M 174.854857 294.88 
L 174.854857 24.84 
" style="fill:none;stroke:#b0b0b0;stroke-linecap:square;stroke-width:0.8;"/>
     </g>
     <g id="line2d_20">
      <g>
       <use style="stroke:#000000;stroke-width:0.6;" x="174.854857" xlink:href="#mf9e57c0bc0" y="294.88"/>
      </g>
     </g>
    </g>
    <g id="xtick_9">
     <g id="line2d_21">
      <path clip-path="url(#p75c1d6e39b)" d="M 214.433143 294.88 
L 214.433143 24.84 
" style="fill:none;stroke:#b0b0b0;stroke-linecap:square;stroke-width:0.8;"/>
     </g>
     <g id="line2d_22">
      <g>
       <use style="stroke:#000000;stroke-width:0.6;" x="214.433143" xlink:href="#mf9e57c0bc0" y="294.88"/>
      </g>
     </g>
    </g>
    <g id="xtick_10">
     <g id="line2d_23">
      <path clip-path="url(#p75c1d6e39b)" d="M 254.011429 294.88 
L 254.011429 24.84 
" style="fill:none;stroke:#b0b0b0;stroke-linecap:square;stroke-width:0.8;"/>
     </g>
     <g id="line2d_24">
      <g>
       <use style="stroke:#000000;stroke-width:0.6;" x="254.011429" xlink:href="#mf9e57c0bc0" y="294.88"/>
      </g>
     </g>
    </g>
    <g id="xtick_11">
     <g id="line2d_25">
      <path clip-path="url(#p75c1d6e39b)" d="M 293.589714 294.88 
L 293.589714 24.84 
" style="fill:none;stroke:#b0b0b0;stroke-linecap:square;stroke-width:0.8;"/>
     </g>
     <g id="line2d_26">
      <g>
       <use style="stroke:#000000;stroke-width:0.6;" x="293.589714" xlink:href="#mf9e57c0bc0" y="294.88"/>
      </g>
     </g>
    </g>
    <g id="xtick_12">
     <g id="line2d_27">
      <path clip-path="url(#p75c1d6e39b)" d="M 333.168 294.88 
L 333.168 24.84 
" style="fill:none;stroke:#b0b0b0;stroke-linecap:square;stroke-width:0.8;"/>
     </g>
     <g id="line2d_28">
      <g>
       <use style="stroke:#000000;stroke-width:0.6;" x="333.168" xlink:href="#mf9e57c0bc0" y="294.88"/>
      </g>
     </g>
    </g>
    <g id="text_5">
     <!-- log10(# f-evals / dimension) -->
     <defs>
      <path d="M 9.421875 75.984375 
L 18.40625 75.984375 
L 18.40625 0 
L 9.421875 0 
z
" id="DejaVuSans-6c"/>
      <path d="M 30.609375 48.390625 
Q 23.390625 48.390625 19.1875 42.75 
Q 14.984375 37.109375 14.984375 27.296875 
Q 14.984375 17.484375 19.15625 11.84375 
Q 23.34375 6.203125 30.609375 6.203125 
Q 37.796875 6.203125 41.984375 11.859375 
Q 46.1875 17.53125 46.1875 27.296875 
Q 46.1875 37.015625 41.984375 42.703125 
Q 37.796875 48.390625 30.609375 48.390625 
z
M 30.609375 56 
Q 42.328125 56 49.015625 48.375 
Q 55.71875 40.765625 55.71875 27.296875 
Q 55.71875 13.875 49.015625 6.21875 
Q 42.328125 -1.421875 30.609375 -1.421875 
Q 18.84375 -1.421875 12.171875 6.21875 
Q 5.515625 13.875 5.515625 27.296875 
Q 5.515625 40.765625 12.171875 48.375 
Q 18.84375 56 30.609375 56 
z
" id="DejaVuSans-6f"/>
      <path d="M 45.40625 27.984375 
Q 45.40625 37.75 41.375 43.109375 
Q 37.359375 48.484375 30.078125 48.484375 
Q 22.859375 48.484375 18.828125 43.109375 
Q 14.796875 37.75 14.796875 27.984375 
Q 14.796875 18.265625 18.828125 12.890625 
Q 22.859375 7.515625 30.078125 7.515625 
Q 37.359375 7.515625 41.375 12.890625 
Q 45.40625 18.265625 45.40625 27.984375 
z
M 54.390625 6.78125 
Q 54.390625 -7.171875 48.1875 -13.984375 
Q 42 -20.796875 29.203125 -20.796875 
Q 24.46875 -20.796875 20.265625 -20.09375 
Q 16.0625 -19.390625 12.109375 -17.921875 
L 12.109375 -9.1875 
Q 16.0625 -11.328125 19.921875 -12.34375 
Q 23.78125 -13.375 27.78125 -13.375 
Q 36.625 -13.375 41.015625 -8.765625 
Q 45.40625 -4.15625 45.40625 5.171875 
L 45.40625 9.625 
Q 42.625 4.78125 38.28125 2.390625 
Q 33.9375 0 27.875 0 
Q 17.828125 0 11.671875 7.65625 
Q 5.515625 15.328125 5.515625 27.984375 
Q 5.515625 40.671875 11.671875 48.328125 
Q 17.828125 56 27.875 56 
Q 33.9375 56 38.28125 53.609375 
Q 42.625 51.21875 45.40625 46.390625 
L 45.40625 54.6875 
L 54.390625 54.6875 
z
" id="DejaVuSans-67"/>
      <path d="M 12.40625 8.296875 
L 28.515625 8.296875 
L 28.515625 63.921875 
L 10.984375 60.40625 
L 10.984375 69.390625 
L 28.421875 72.90625 
L 38.28125 72.90625 
L 38.28125 8.296875 
L 54.390625 8.296875 
L 54.390625 0 
L 12.40625 0 
z
" id="DejaVuSans-31"/>
      <path d="M 31 75.875 
Q 24.46875 64.65625 21.28125 53.65625 
Q 18.109375 42.671875 18.109375 31.390625 
Q 18.109375 20.125 21.3125 9.0625 
Q 24.515625 -2 31 -13.1875 
L 23.1875 -13.1875 
Q 15.875 -1.703125 12.234375 9.375 
Q 8.59375 20.453125 8.59375 31.390625 
Q 8.59375 42.28125 12.203125 53.3125 
Q 15.828125 64.359375 23.1875 75.875 
z
" id="DejaVuSans-28"/>
      <path d="M 51.125 44 
L 36.921875 44 
L 32.8125 27.6875 
L 47.125 27.6875 
z
M 43.796875 71.78125 
L 38.71875 51.515625 
L 52.984375 51.515625 
L 58.109375 71.78125 
L 65.921875 71.78125 
L 60.890625 51.515625 
L 76.125 51.515625 
L 76.125 44 
L 58.984375 44 
L 54.984375 27.6875 
L 70.515625 27.6875 
L 70.515625 20.21875 
L 53.078125 20.21875 
L 48 0 
L 40.1875 0 
L 45.21875 20.21875 
L 30.90625 20.21875 
L 25.875 0 
L 18.015625 0 
L 23.09375 20.21875 
L 7.71875 20.21875 
L 7.71875 27.6875 
L 24.90625 27.6875 
L 29 44 
L 13.28125 44 
L 13.28125 51.515625 
L 30.90625 51.515625 
L 35.890625 71.78125 
z
" id="DejaVuSans-23"/>
      <path id="DejaVuSans-20"/>
      <path d="M 37.109375 75.984375 
L 37.109375 68.5 
L 28.515625 68.5 
Q 23.6875 68.5 21.796875 66.546875 
Q 19.921875 64.59375 19.921875 59.515625 
L 19.921875 54.6875 
L 34.71875 54.6875 
L 34.71875 47.703125 
L 19.921875 47.703125 
L 19.921875 0 
L 10.890625 0 
L 10.890625 47.703125 
L 2.296875 47.703125 
L 2.296875 54.6875 
L 10.890625 54.6875 
L 10.890625 58.5 
Q 10.890625 67.625 15.140625 71.796875 
Q 19.390625 75.984375 28.609375 75.984375 
z
" id="DejaVuSans-66"/>
      <path d="M 4.890625 31.390625 
L 31.203125 31.390625 
L 31.203125 23.390625 
L 4.890625 23.390625 
z
" id="DejaVuSans-2d"/>
      <path d="M 56.203125 29.59375 
L 56.203125 25.203125 
L 14.890625 25.203125 
Q 15.484375 15.921875 20.484375 11.0625 
Q 25.484375 6.203125 34.421875 6.203125 
Q 39.59375 6.203125 44.453125 7.46875 
Q 49.3125 8.734375 54.109375 11.28125 
L 54.109375 2.78125 
Q 49.265625 0.734375 44.1875 -0.34375 
Q 39.109375 -1.421875 33.890625 -1.421875 
Q 20.796875 -1.421875 13.15625 6.1875 
Q 5.515625 13.8125 5.515625 26.8125 
Q 5.515625 40.234375 12.765625 48.109375 
Q 20.015625 56 32.328125 56 
Q 43.359375 56 49.78125 48.890625 
Q 56.203125 41.796875 56.203125 29.59375 
z
M 47.21875 32.234375 
Q 47.125 39.59375 43.09375 43.984375 
Q 39.0625 48.390625 32.421875 48.390625 
Q 24.90625 48.390625 20.390625 44.140625 
Q 15.875 39.890625 15.1875 32.171875 
z
" id="DejaVuSans-65"/>
      <path d="M 2.984375 54.6875 
L 12.5 54.6875 
L 29.59375 8.796875 
L 46.6875 54.6875 
L 56.203125 54.6875 
L 35.6875 0 
L 23.484375 0 
z
" id="DejaVuSans-76"/>
      <path d="M 34.28125 27.484375 
Q 23.390625 27.484375 19.1875 25 
Q 14.984375 22.515625 14.984375 16.5 
Q 14.984375 11.71875 18.140625 8.90625 
Q 21.296875 6.109375 26.703125 6.109375 
Q 34.1875 6.109375 38.703125 11.40625 
Q 43.21875 16.703125 43.21875 25.484375 
L 43.21875 27.484375 
z
M 52.203125 31.203125 
L 52.203125 0 
L 43.21875 0 
L 43.21875 8.296875 
Q 40.140625 3.328125 35.546875 0.953125 
Q 30.953125 -1.421875 24.3125 -1.421875 
Q 15.921875 -1.421875 10.953125 3.296875 
Q 6 8.015625 6 15.921875 
Q 6 25.140625 12.171875 29.828125 
Q 18.359375 34.515625 30.609375 34.515625 
L 43.21875 34.515625 
L 43.21875 35.40625 
Q 43.21875 41.609375 39.140625 45 
Q 35.0625 48.390625 27.6875 48.390625 
Q 23 48.390625 18.546875 47.265625 
Q 14.109375 46.140625 10.015625 43.890625 
L 10.015625 52.203125 
Q 14.9375 54.109375 19.578125 55.046875 
Q 24.21875 56 28.609375 56 
Q 40.484375 56 46.34375 49.84375 
Q 52.203125 43.703125 52.203125 31.203125 
z
" id="DejaVuSans-61"/>
      <path d="M 44.28125 53.078125 
L 44.28125 44.578125 
Q 40.484375 46.53125 36.375 47.5 
Q 32.28125 48.484375 27.875 48.484375 
Q 21.1875 48.484375 17.84375 46.4375 
Q 14.5 44.390625 14.5 40.28125 
Q 14.5 37.15625 16.890625 35.375 
Q 19.28125 33.59375 26.515625 31.984375 
L 29.59375 31.296875 
Q 39.15625 29.25 43.1875 25.515625 
Q 47.21875 21.78125 47.21875 15.09375 
Q 47.21875 7.46875 41.1875 3.015625 
Q 35.15625 -1.421875 24.609375 -1.421875 
Q 20.21875 -1.421875 15.453125 -0.5625 
Q 10.6875 0.296875 5.421875 2 
L 5.421875 11.28125 
Q 10.40625 8.6875 15.234375 7.390625 
Q 20.0625 6.109375 24.8125 6.109375 
Q 31.15625 6.109375 34.5625 8.28125 
Q 37.984375 10.453125 37.984375 14.40625 
Q 37.984375 18.0625 35.515625 20.015625 
Q 33.0625 21.96875 24.703125 23.78125 
L 21.578125 24.515625 
Q 13.234375 26.265625 9.515625 29.90625 
Q 5.8125 33.546875 5.8125 39.890625 
Q 5.8125 47.609375 11.28125 51.796875 
Q 16.75 56 26.8125 56 
Q 31.78125 56 36.171875 55.265625 
Q 40.578125 54.546875 44.28125 53.078125 
z
" id="DejaVuSans-73"/>
      <path d="M 25.390625 72.90625 
L 33.6875 72.90625 
L 8.296875 -9.28125 
L 0 -9.28125 
z
" id="DejaVuSans-2f"/>
      <path d="M 45.40625 46.390625 
L 45.40625 75.984375 
L 54.390625 75.984375 
L 54.390625 0 
L 45.40625 0 
L 45.40625 8.203125 
Q 42.578125 3.328125 38.25 0.953125 
Q 33.9375 -1.421875 27.875 -1.421875 
Q 17.96875 -1.421875 11.734375 6.484375 
Q 5.515625 14.40625 5.515625 27.296875 
Q 5.515625 40.1875 11.734375 48.09375 
Q 17.96875 56 27.875 56 
Q 33.9375 56 38.25 53.625 
Q 42.578125 51.265625 45.40625 46.390625 
z
M 14.796875 27.296875 
Q 14.796875 17.390625 18.875 11.75 
Q 22.953125 6.109375 30.078125 6.109375 
Q 37.203125 6.109375 41.296875 11.75 
Q 45.40625 17.390625 45.40625 27.296875 
Q 45.40625 37.203125 41.296875 42.84375 
Q 37.203125 48.484375 30.078125 48.484375 
Q 22.953125 48.484375 18.875 42.84375 
Q 14.796875 37.203125 14.796875 27.296875 
z
" id="DejaVuSans-64"/>
      <path d="M 9.421875 54.6875 
L 18.40625 54.6875 
L 18.40625 0 
L 9.421875 0 
z
M 9.421875 75.984375 
L 18.40625 75.984375 
L 18.40625 64.59375 
L 9.421875 64.59375 
z
" id="DejaVuSans-69"/>
      <path d="M 52 44.1875 
Q 55.375 50.25 60.0625 53.125 
Q 64.75 56 71.09375 56 
Q 79.640625 56 84.28125 50.015625 
Q 88.921875 44.046875 88.921875 33.015625 
L 88.921875 0 
L 79.890625 0 
L 79.890625 32.71875 
Q 79.890625 40.578125 77.09375 44.375 
Q 74.3125 48.1875 68.609375 48.1875 
Q 61.625 48.1875 57.5625 43.546875 
Q 53.515625 38.921875 53.515625 30.90625 
L 53.515625 0 
L 44.484375 0 
L 44.484375 32.71875 
Q 44.484375 40.625 41.703125 44.40625 
Q 38.921875 48.1875 33.109375 48.1875 
Q 26.21875 48.1875 22.15625 43.53125 
Q 18.109375 38.875 18.109375 30.90625 
L 18.109375 0 
L 9.078125 0 
L 9.078125 54.6875 
L 18.109375 54.6875 
L 18.109375 46.1875 
Q 21.1875 51.21875 25.484375 53.609375 
Q 29.78125 56 35.6875 56 
Q 41.65625 56 45.828125 52.96875 
Q 50 49.953125 52 44.1875 
z
" id="DejaVuSans-6d"/>
      <path d="M 54.890625 33.015625 
L 54.890625 0 
L 45.90625 0 
L 45.90625 32.71875 
Q 45.90625 40.484375 42.875 44.328125 
Q 39.84375 48.1875 33.796875 48.1875 
Q 26.515625 48.1875 22.3125 43.546875 
Q 18.109375 38.921875 18.109375 30.90625 
L 18.109375 0 
L 9.078125 0 
L 9.078125 54.6875 
L 18.109375 54.6875 
L 18.109375 46.1875 
Q 21.34375 51.125 25.703125 53.5625 
Q 30.078125 56 35.796875 56 
Q 45.21875 56 50.046875 50.171875 
Q 54.890625 44.34375 54.890625 33.015625 
z
" id="DejaVuSans-6e"/>
      <path d="M 8.015625 75.875 
L 15.828125 75.875 
Q 23.140625 64.359375 26.78125 53.3125 
Q 30.421875 42.28125 30.421875 31.390625 
Q 30.421875 20.453125 26.78125 9.375 
Q 23.140625 -1.703125 15.828125 -13.1875 
L 8.015625 -13.1875 
Q 14.5 -2 17.703125 9.0625 
Q 20.90625 20.125 20.90625 31.390625 
Q 20.90625 42.671875 17.703125 53.65625 
Q 14.5 64.65625 8.015625 75.875 
z
" id="DejaVuSans-29"/>
     </defs>
     <g transform="translate(73.803219 338.153594)scale(0.17 -0.17)">
      <use xlink:href="#DejaVuSans-6c"/>
      <use x="27.783203" xlink:href="#DejaVuSans-6f"/>
      <use x="88.964844" xlink:href="#DejaVuSans-67"/>
      <use x="152.441406" xlink:href="#DejaVuSans-31"/>
      <use x="216.064453" xlink:href="#DejaVuSans-30"/>
      <use x="279.6875" xlink:href="#DejaVuSans-28"/>
      <use x="318.701172" xlink:href="#DejaVuSans-23"/>
      <use x="402.490234" xlink:href="#DejaVuSans-20"/>
      <use x="434.277344" xlink:href="#DejaVuSans-66"/>
      <use x="469.404297" xlink:href="#DejaVuSans-2d"/>
      <use x="505.488281" xlink:href="#DejaVuSans-65"/>
      <use x="567.011719" xlink:href="#DejaVuSans-76"/>
      <use x="626.191406" xlink:href="#DejaVuSans-61"/>
      <use x="687.470703" xlink:href="#DejaVuSans-6c"/>
      <use x="715.253906" xlink:href="#DejaVuSans-73"/>
      <use x="767.353516" xlink:href="#DejaVuSans-20"/>
      <use x="799.140625" xlink:href="#DejaVuSans-2f"/>
      <use x="832.832031" xlink:href="#DejaVuSans-20"/>
      <use x="864.619141" xlink:href="#DejaVuSans-64"/>
      <use x="928.095703" xlink:href="#DejaVuSans-69"/>
      <use x="955.878906" xlink:href="#DejaVuSans-6d"/>
      <use x="1053.291016" xlink:href="#DejaVuSans-65"/>
      <use x="1114.814453" xlink:href="#DejaVuSans-6e"/>
      <use x="1178.193359" xlink:href="#DejaVuSans-73"/>
      <use x="1230.292969" xlink:href="#DejaVuSans-69"/>
      <use x="1258.076172" xlink:href="#DejaVuSans-6f"/>
      <use x="1319.257812" xlink:href="#DejaVuSans-6e"/>
      <use x="1382.636719" xlink:href="#DejaVuSans-29"/>
     </g>
    </g>
   </g>
   <g id="matplotlib.axis_2">
    <g id="ytick_1">
     <g id="line2d_29">
      <path clip-path="url(#p75c1d6e39b)" d="M 56.12 294.88 
L 333.168 294.88 
" style="fill:none;stroke:#b0b0b0;stroke-linecap:square;stroke-width:0.8;"/>
     </g>
     <g id="line2d_30">
      <defs>
       <path d="M 0 0 
L -3.5 0 
" id="m59221fcfa4" style="stroke:#000000;stroke-width:0.8;"/>
      </defs>
      <g>
       <use style="stroke:#000000;stroke-width:0.8;" x="56.12" xlink:href="#m59221fcfa4" y="294.88"/>
      </g>
     </g>
     <g id="text_6">
      <!-- 0.0 -->
      <defs>
       <path d="M 10.6875 12.40625 
L 21 12.40625 
L 21 0 
L 10.6875 0 
z
" id="DejaVuSans-2e"/>
      </defs>
      <g transform="translate(23.675 300.95875)scale(0.16 -0.16)">
       <use xlink:href="#DejaVuSans-30"/>
       <use x="63.623047" xlink:href="#DejaVuSans-2e"/>
       <use x="95.410156" xlink:href="#DejaVuSans-30"/>
      </g>
     </g>
    </g>
    <g id="ytick_2">
     <g id="line2d_31">
      <path clip-path="url(#p75c1d6e39b)" d="M 56.12 241.406733 
L 333.168 241.406733 
" style="fill:none;stroke:#b0b0b0;stroke-linecap:square;stroke-width:0.8;"/>
     </g>
     <g id="line2d_32">
      <g>
       <use style="stroke:#000000;stroke-width:0.8;" x="56.12" xlink:href="#m59221fcfa4" y="241.406733"/>
      </g>
     </g>
     <g id="text_7">
      <!-- 0.2 -->
      <g transform="translate(23.675 247.485483)scale(0.16 -0.16)">
       <use xlink:href="#DejaVuSans-30"/>
       <use x="63.623047" xlink:href="#DejaVuSans-2e"/>
       <use x="95.410156" xlink:href="#DejaVuSans-32"/>
      </g>
     </g>
    </g>
    <g id="ytick_3">
     <g id="line2d_33">
      <path clip-path="url(#p75c1d6e39b)" d="M 56.12 187.933465 
L 333.168 187.933465 
" style="fill:none;stroke:#b0b0b0;stroke-linecap:square;stroke-width:0.8;"/>
     </g>
     <g id="line2d_34">
      <g>
       <use style="stroke:#000000;stroke-width:0.8;" x="56.12" xlink:href="#m59221fcfa4" y="187.933465"/>
      </g>
     </g>
     <g id="text_8">
      <!-- 0.4 -->
      <g transform="translate(23.675 194.012215)scale(0.16 -0.16)">
       <use xlink:href="#DejaVuSans-30"/>
       <use x="63.623047" xlink:href="#DejaVuSans-2e"/>
       <use x="95.410156" xlink:href="#DejaVuSans-34"/>
      </g>
     </g>
    </g>
    <g id="ytick_4">
     <g id="line2d_35">
      <path clip-path="url(#p75c1d6e39b)" d="M 56.12 134.460198 
L 333.168 134.460198 
" style="fill:none;stroke:#b0b0b0;stroke-linecap:square;stroke-width:0.8;"/>
     </g>
     <g id="line2d_36">
      <g>
       <use style="stroke:#000000;stroke-width:0.8;" x="56.12" xlink:href="#m59221fcfa4" y="134.460198"/>
      </g>
     </g>
     <g id="text_9">
      <!-- 0.6 -->
      <g transform="translate(23.675 140.538948)scale(0.16 -0.16)">
       <use xlink:href="#DejaVuSans-30"/>
       <use x="63.623047" xlink:href="#DejaVuSans-2e"/>
       <use x="95.410156" xlink:href="#DejaVuSans-36"/>
      </g>
     </g>
    </g>
    <g id="ytick_5">
     <g id="line2d_37">
      <path clip-path="url(#p75c1d6e39b)" d="M 56.12 80.986931 
L 333.168 80.986931 
" style="fill:none;stroke:#b0b0b0;stroke-linecap:square;stroke-width:0.8;"/>
     </g>
     <g id="line2d_38">
      <g>
       <use style="stroke:#000000;stroke-width:0.8;" x="56.12" xlink:href="#m59221fcfa4" y="80.986931"/>
      </g>
     </g>
     <g id="text_10">
      <!-- 0.8 -->
      <defs>
       <path d="M 31.78125 34.625 
Q 24.75 34.625 20.71875 30.859375 
Q 16.703125 27.09375 16.703125 20.515625 
Q 16.703125 13.921875 20.71875 10.15625 
Q 24.75 6.390625 31.78125 6.390625 
Q 38.8125 6.390625 42.859375 10.171875 
Q 46.921875 13.96875 46.921875 20.515625 
Q 46.921875 27.09375 42.890625 30.859375 
Q 38.875 34.625 31.78125 34.625 
z
M 21.921875 38.8125 
Q 15.578125 40.375 12.03125 44.71875 
Q 8.5 49.078125 8.5 55.328125 
Q 8.5 64.0625 14.71875 69.140625 
Q 20.953125 74.21875 31.78125 74.21875 
Q 42.671875 74.21875 48.875 69.140625 
Q 55.078125 64.0625 55.078125 55.328125 
Q 55.078125 49.078125 51.53125 44.71875 
Q 48 40.375 41.703125 38.8125 
Q 48.828125 37.15625 52.796875 32.3125 
Q 56.78125 27.484375 56.78125 20.515625 
Q 56.78125 9.90625 50.3125 4.234375 
Q 43.84375 -1.421875 31.78125 -1.421875 
Q 19.734375 -1.421875 13.25 4.234375 
Q 6.78125 9.90625 6.78125 20.515625 
Q 6.78125 27.484375 10.78125 32.3125 
Q 14.796875 37.15625 21.921875 38.8125 
z
M 18.3125 54.390625 
Q 18.3125 48.734375 21.84375 45.5625 
Q 25.390625 42.390625 31.78125 42.390625 
Q 38.140625 42.390625 41.71875 45.5625 
Q 45.3125 48.734375 45.3125 54.390625 
Q 45.3125 60.0625 41.71875 63.234375 
Q 38.140625 66.40625 31.78125 66.40625 
Q 25.390625 66.40625 21.84375 63.234375 
Q 18.3125 60.0625 18.3125 54.390625 
z
" id="DejaVuSans-38"/>
      </defs>
      <g transform="translate(23.675 87.065681)scale(0.16 -0.16)">
       <use xlink:href="#DejaVuSans-30"/>
       <use x="63.623047" xlink:href="#DejaVuSans-2e"/>
       <use x="95.410156" xlink:href="#DejaVuSans-38"/>
      </g>
     </g>
    </g>
    <g id="ytick_6">
     <g id="line2d_39">
      <path clip-path="url(#p75c1d6e39b)" d="M 56.12 27.513663 
L 333.168 27.513663 
" style="fill:none;stroke:#b0b0b0;stroke-linecap:square;stroke-width:0.8;"/>
     </g>
     <g id="line2d_40">
      <g>
       <use style="stroke:#000000;stroke-width:0.8;" x="56.12" xlink:href="#m59221fcfa4" y="27.513663"/>
      </g>
     </g>
     <g id="text_11">
      <!-- 1.0 -->
      <g transform="translate(23.675 33.592413)scale(0.16 -0.16)">
       <use xlink:href="#DejaVuSans-31"/>
       <use x="63.623047" xlink:href="#DejaVuSans-2e"/>
       <use x="95.410156" xlink:href="#DejaVuSans-30"/>
      </g>
     </g>
    </g>
    <g id="text_12">
     <!-- Fraction of function,target pairs -->
     <defs>
      <path d="M 9.8125 72.90625 
L 51.703125 72.90625 
L 51.703125 64.59375 
L 19.671875 64.59375 
L 19.671875 43.109375 
L 48.578125 43.109375 
L 48.578125 34.8125 
L 19.671875 34.8125 
L 19.671875 0 
L 9.8125 0 
z
" id="DejaVuSans-46"/>
      <path d="M 41.109375 46.296875 
Q 39.59375 47.171875 37.8125 47.578125 
Q 36.03125 48 33.890625 48 
Q 26.265625 48 22.1875 43.046875 
Q 18.109375 38.09375 18.109375 28.8125 
L 18.109375 0 
L 9.078125 0 
L 9.078125 54.6875 
L 18.109375 54.6875 
L 18.109375 46.1875 
Q 20.953125 51.171875 25.484375 53.578125 
Q 30.03125 56 36.53125 56 
Q 37.453125 56 38.578125 55.875 
Q 39.703125 55.765625 41.0625 55.515625 
z
" id="DejaVuSans-72"/>
      <path d="M 48.78125 52.59375 
L 48.78125 44.1875 
Q 44.96875 46.296875 41.140625 47.34375 
Q 37.3125 48.390625 33.40625 48.390625 
Q 24.65625 48.390625 19.8125 42.84375 
Q 14.984375 37.3125 14.984375 27.296875 
Q 14.984375 17.28125 19.8125 11.734375 
Q 24.65625 6.203125 33.40625 6.203125 
Q 37.3125 6.203125 41.140625 7.25 
Q 44.96875 8.296875 48.78125 10.40625 
L 48.78125 2.09375 
Q 45.015625 0.34375 40.984375 -0.53125 
Q 36.96875 -1.421875 32.421875 -1.421875 
Q 20.0625 -1.421875 12.78125 6.34375 
Q 5.515625 14.109375 5.515625 27.296875 
Q 5.515625 40.671875 12.859375 48.328125 
Q 20.21875 56 33.015625 56 
Q 37.15625 56 41.109375 55.140625 
Q 45.0625 54.296875 48.78125 52.59375 
z
" id="DejaVuSans-63"/>
      <path d="M 18.3125 70.21875 
L 18.3125 54.6875 
L 36.8125 54.6875 
L 36.8125 47.703125 
L 18.3125 47.703125 
L 18.3125 18.015625 
Q 18.3125 11.328125 20.140625 9.421875 
Q 21.96875 7.515625 27.59375 7.515625 
L 36.8125 7.515625 
L 36.8125 0 
L 27.59375 0 
Q 17.1875 0 13.234375 3.875 
Q 9.28125 7.765625 9.28125 18.015625 
L 9.28125 47.703125 
L 2.6875 47.703125 
L 2.6875 54.6875 
L 9.28125 54.6875 
L 9.28125 70.21875 
z
" id="DejaVuSans-74"/>
      <path d="M 8.5 21.578125 
L 8.5 54.6875 
L 17.484375 54.6875 
L 17.484375 21.921875 
Q 17.484375 14.15625 20.5 10.265625 
Q 23.53125 6.390625 29.59375 6.390625 
Q 36.859375 6.390625 41.078125 11.03125 
Q 45.3125 15.671875 45.3125 23.6875 
L 45.3125 54.6875 
L 54.296875 54.6875 
L 54.296875 0 
L 45.3125 0 
L 45.3125 8.40625 
Q 42.046875 3.421875 37.71875 1 
Q 33.40625 -1.421875 27.6875 -1.421875 
Q 18.265625 -1.421875 13.375 4.4375 
Q 8.5 10.296875 8.5 21.578125 
z
M 31.109375 56 
z
" id="DejaVuSans-75"/>
      <path d="M 11.71875 12.40625 
L 22.015625 12.40625 
L 22.015625 4 
L 14.015625 -11.625 
L 7.71875 -11.625 
L 11.71875 4 
z
" id="DejaVuSans-2c"/>
      <path d="M 18.109375 8.203125 
L 18.109375 -20.796875 
L 9.078125 -20.796875 
L 9.078125 54.6875 
L 18.109375 54.6875 
L 18.109375 46.390625 
Q 20.953125 51.265625 25.265625 53.625 
Q 29.59375 56 35.59375 56 
Q 45.5625 56 51.78125 48.09375 
Q 58.015625 40.1875 58.015625 27.296875 
Q 58.015625 14.40625 51.78125 6.484375 
Q 45.5625 -1.421875 35.59375 -1.421875 
Q 29.59375 -1.421875 25.265625 0.953125 
Q 20.953125 3.328125 18.109375 8.203125 
z
M 48.6875 27.296875 
Q 48.6875 37.203125 44.609375 42.84375 
Q 40.53125 48.484375 33.40625 48.484375 
Q 26.265625 48.484375 22.1875 42.84375 
Q 18.109375 37.203125 18.109375 27.296875 
Q 18.109375 17.390625 22.1875 11.75 
Q 26.265625 6.109375 33.40625 6.109375 
Q 40.53125 6.109375 44.609375 11.75 
Q 48.6875 17.390625 48.6875 27.296875 
z
" id="DejaVuSans-70"/>
     </defs>
     <g transform="translate(16.139531 294.999375)rotate(-90)scale(0.17 -0.17)">
      <use xlink:href="#DejaVuSans-46"/>
      <use x="57.410156" xlink:href="#DejaVuSans-72"/>
      <use x="98.523438" xlink:href="#DejaVuSans-61"/>
      <use x="159.802734" xlink:href="#DejaVuSans-63"/>
      <use x="214.783203" xlink:href="#DejaVuSans-74"/>
      <use x="253.992188" xlink:href="#DejaVuSans-69"/>
      <use x="281.775391" xlink:href="#DejaVuSans-6f"/>
      <use x="342.957031" xlink:href="#DejaVuSans-6e"/>
      <use x="406.335938" xlink:href="#DejaVuSans-20"/>
      <use x="438.123047" xlink:href="#DejaVuSans-6f"/>
      <use x="499.304688" xlink:href="#DejaVuSans-66"/>
      <use x="534.509766" xlink:href="#DejaVuSans-20"/>
      <use x="566.296875" xlink:href="#DejaVuSans-66"/>
      <use x="601.501953" xlink:href="#DejaVuSans-75"/>
      <use x="664.880859" xlink:href="#DejaVuSans-6e"/>
      <use x="728.259766" xlink:href="#DejaVuSans-63"/>
      <use x="783.240234" xlink:href="#DejaVuSans-74"/>
      <use x="822.449219" xlink:href="#DejaVuSans-69"/>
      <use x="850.232422" xlink:href="#DejaVuSans-6f"/>
      <use x="911.414062" xlink:href="#DejaVuSans-6e"/>
      <use x="974.792969" xlink:href="#DejaVuSans-2c"/>
      <use x="1006.580078" xlink:href="#DejaVuSans-74"/>
      <use x="1045.789062" xlink:href="#DejaVuSans-61"/>
      <use x="1107.068359" xlink:href="#DejaVuSans-72"/>
      <use x="1148.166016" xlink:href="#DejaVuSans-67"/>
      <use x="1211.642578" xlink:href="#DejaVuSans-65"/>
      <use x="1273.166016" xlink:href="#DejaVuSans-74"/>
      <use x="1312.375" xlink:href="#DejaVuSans-20"/>
      <use x="1344.162109" xlink:href="#DejaVuSans-70"/>
      <use x="1407.638672" xlink:href="#DejaVuSans-61"/>
      <use x="1468.917969" xlink:href="#DejaVuSans-69"/>
      <use x="1496.701172" xlink:href="#DejaVuSans-72"/>
      <use x="1537.814453" xlink:href="#DejaVuSans-73"/>
     </g>
    </g>
   </g>
   <g id="line2d_41">
    <defs>
     <path d="M 0 1.5 
C 0.397805 1.5 0.77937 1.341951 1.06066 1.06066 
C 1.341951 0.77937 1.5 0.397805 1.5 0 
C 1.5 -0.397805 1.341951 -0.77937 1.06066 -1.06066 
C 0.77937 -1.341951 0.397805 -1.5 0 -1.5 
C -0.397805 -1.5 -0.77937 -1.341951 -1.06066 -1.06066 
C -1.341951 -0.77937 -1.5 -0.397805 -1.5 0 
C -1.5 0.397805 -1.341951 0.77937 -1.06066 1.06066 
C -0.77937 1.341951 -0.397805 1.5 0 1.5 
z
" id="m9c3d38c32e" style="stroke:#f5deb3;"/>
    </defs>
    <g>
     <use style="fill:#f5deb3;stroke:#f5deb3;" x="170.656714" xlink:href="#m9c3d38c32e" y="27.513663"/>
     <use style="fill:#f5deb3;stroke:#f5deb3;" x="170.656714" xlink:href="#m9c3d38c32e" y="27.513663"/>
    </g>
   </g>
   <g id="line2d_42">
    <defs>
     <path d="M 0 1.5 
C 0.397805 1.5 0.77937 1.341951 1.06066 1.06066 
C 1.341951 0.77937 1.5 0.397805 1.5 0 
C 1.5 -0.397805 1.341951 -0.77937 1.06066 -1.06066 
C 0.77937 -1.341951 0.397805 -1.5 0 -1.5 
C -0.397805 -1.5 -0.77937 -1.341951 -1.06066 -1.06066 
C -1.341951 -0.77937 -1.5 -0.397805 -1.5 0 
C -1.5 0.397805 -1.341951 0.77937 -1.06066 1.06066 
C -0.77937 1.341951 -0.397805 1.5 0 1.5 
z
" id="mc65b7bd054" style="stroke:#000080;"/>
    </defs>
    <g>
     <use style="fill:#000080;stroke:#000080;" x="227.901057" xlink:href="#mc65b7bd054" y="27.513663"/>
     <use style="fill:#000080;stroke:#000080;" x="227.901057" xlink:href="#mc65b7bd054" y="27.513663"/>
    </g>
   </g>
   <g id="line2d_43">
    <path d="M 148.856398 294.88 
L 148.856398 294.355752 
L 153.479415 294.355752 
L 153.479415 293.831505 
L 155.325849 293.831505 
L 155.325849 293.307257 
L 155.496325 293.307257 
L 155.496325 292.783009 
L 156.136291 292.783009 
L 156.14395 291.734514 
L 156.417434 291.734514 
L 156.525122 290.161771 
L 157.263008 290.161771 
L 157.263008 289.637523 
L 157.65784 289.637523 
L 157.755728 288.589027 
L 157.841503 288.589027 
L 157.841503 288.06478 
L 158.09629 288.06478 
L 158.182654 287.016284 
L 158.486011 287.016284 
L 158.486011 286.492036 
L 158.825648 286.492036 
L 158.860553 285.443541 
L 158.973508 285.443541 
L 158.973508 284.919293 
L 159.489632 284.919293 
L 159.529506 283.870798 
L 159.644411 283.870798 
L 159.644411 283.34655 
L 160.376126 283.34655 
L 160.465686 281.773807 
L 160.914358 281.773807 
L 160.914358 281.249559 
L 161.093277 281.249559 
L 161.093277 280.725312 
L 161.441874 280.725312 
L 161.441874 280.201064 
L 162.000948 280.201064 
L 162.035407 279.152568 
L 162.255039 279.152568 
L 162.255039 278.628321 
L 162.998948 278.628321 
L 163.055386 277.579825 
L 163.11334 277.579825 
L 163.11334 277.055578 
L 164.023057 277.055578 
L 164.058527 276.007082 
L 164.774626 276.007082 
L 164.774626 275.482834 
L 165.126332 275.482834 
L 165.126332 274.958587 
L 165.493224 274.958587 
L 165.493224 274.434339 
L 165.712585 274.434339 
L 165.756415 273.385844 
L 165.919066 273.385844 
L 165.998379 272.337348 
L 166.304958 272.337348 
L 166.304958 271.8131 
L 166.419056 271.8131 
L 166.449916 270.764605 
L 166.647777 270.764605 
L 166.647777 270.240357 
L 166.982533 270.240357 
L 167.081431 269.191862 
L 167.340194 269.191862 
L 167.340194 268.667614 
L 167.513637 268.667614 
L 167.518906 267.619119 
L 167.861816 267.619119 
L 167.861816 267.094871 
L 167.987863 267.094871 
L 167.987863 266.570623 
L 168.124439 266.570623 
L 168.124439 266.046375 
L 168.339221 266.046375 
L 168.339221 265.522128 
L 168.52653 265.522128 
L 168.605832 264.473632 
L 168.758446 264.473632 
L 168.758446 263.949385 
L 168.988483 263.949385 
L 168.994527 262.900889 
L 169.208322 262.900889 
L 169.261953 261.328146 
L 169.506521 261.328146 
L 169.609448 260.279651 
L 169.771934 260.279651 
L 169.771934 259.755403 
L 169.955771 259.755403 
L 169.955771 259.231155 
L 170.147838 259.231155 
L 170.147838 258.706907 
L 170.335546 258.706907 
L 170.424745 257.134164 
L 170.49688 257.134164 
L 170.603968 256.085669 
L 170.759542 256.085669 
L 170.759542 255.037173 
L 170.933166 255.037173 
L 171.019325 252.940182 
L 171.140293 252.940182 
L 171.190358 251.891687 
L 171.298509 251.891687 
L 171.361811 250.318944 
L 171.446901 250.318944 
L 171.555538 248.746201 
L 171.591945 248.746201 
L 171.70277 247.697705 
L 171.723405 247.697705 
L 171.723405 247.173458 
L 171.84875 247.173458 
L 171.939617 246.124962 
L 172.049242 246.124962 
L 172.049242 245.600714 
L 172.172241 245.600714 
L 172.262418 243.503724 
L 172.304339 243.503724 
L 172.360075 242.455228 
L 172.421573 242.455228 
L 172.52916 239.83399 
L 172.579268 239.83399 
L 172.681 238.261246 
L 172.73553 238.261246 
L 172.813131 236.688503 
L 172.96729 236.688503 
L 173.048628 235.640008 
L 173.089629 235.640008 
L 173.195967 234.067265 
L 173.271521 234.067265 
L 173.346745 231.970274 
L 173.421641 231.970274 
L 173.496213 230.921778 
L 173.570462 230.921778 
L 173.661903 228.824787 
L 173.770262 228.824787 
L 173.864292 227.776292 
L 173.881581 227.776292 
L 173.975005 226.727797 
L 174.009344 226.727797 
L 174.081414 225.679301 
L 174.224653 225.679301 
L 174.224653 225.155053 
L 174.340163 225.155053 
L 174.340163 224.630806 
L 175.115005 224.630806 
L 175.175847 223.58231 
L 175.329524 223.58231 
L 175.329524 223.058063 
L 175.560381 223.058063 
L 175.560381 222.533815 
L 175.870198 222.533815 
L 175.870198 222.009567 
L 176.32667 222.009567 
L 176.418724 220.961072 
L 176.521213 220.961072 
L 176.521213 220.436824 
L 176.68656 220.436824 
L 176.68656 219.912576 
L 176.820462 219.912576 
L 176.820462 219.388328 
L 176.963975 219.388328 
L 177.050419 218.339833 
L 177.183028 218.339833 
L 177.271367 217.291338 
L 177.334721 217.291338 
L 177.334721 216.76709 
L 177.483612 216.76709 
L 177.483612 216.242842 
L 177.730387 216.242842 
L 177.764523 215.194347 
L 177.885273 215.194347 
L 177.885273 214.670099 
L 178.103637 214.670099 
L 178.184548 213.621604 
L 178.223449 213.621604 
L 178.33401 212.573108 
L 178.505827 212.573108 
L 178.567569 211.524613 
L 178.662865 211.524613 
L 178.662865 211.000365 
L 178.827351 211.000365 
L 178.898142 209.95187 
L 179.205139 209.95187 
L 179.265087 208.903374 
L 179.327478 208.903374 
L 179.371149 207.854879 
L 179.522476 207.854879 
L 179.522476 207.330631 
L 179.683518 207.330631 
L 179.74053 206.282136 
L 179.859131 206.282136 
L 179.93668 204.709392 
L 179.987123 204.709392 
L 179.987761 203.660897 
L 180.252216 203.660897 
L 180.281699 202.612401 
L 180.578089 202.612401 
L 180.605173 201.563906 
L 180.717974 201.563906 
L 180.799051 200.515411 
L 180.830647 200.515411 
L 180.84157 199.466915 
L 181.075359 199.466915 
L 181.174419 198.41842 
L 181.233226 198.41842 
L 181.233226 197.894172 
L 181.479329 197.894172 
L 181.556901 196.845677 
L 181.6376 196.845677 
L 181.698887 195.797181 
L 181.750177 195.797181 
L 181.750177 195.272933 
L 181.870023 195.272933 
L 181.915676 194.224438 
L 181.984498 194.224438 
L 182.067739 192.651695 
L 182.142144 192.651695 
L 182.225746 191.078952 
L 182.273815 191.078952 
L 182.363445 189.506209 
L 182.454268 189.506209 
L 182.498398 188.457713 
L 182.595635 188.457713 
L 182.640496 187.409218 
L 182.717908 187.409218 
L 182.813374 185.836474 
L 182.907236 185.836474 
L 182.976494 184.787979 
L 183.019305 184.787979 
L 183.051877 183.739484 
L 183.191608 183.739484 
L 183.297637 182.16674 
L 183.329162 182.16674 
L 183.404585 181.118245 
L 183.452078 181.118245 
L 183.485922 180.06975 
L 183.566358 180.06975 
L 183.595326 178.497006 
L 183.690166 178.497006 
L 183.731238 177.448511 
L 183.813089 177.448511 
L 183.91993 175.35152 
L 183.984728 175.35152 
L 183.984728 174.827272 
L 184.100049 174.827272 
L 184.176669 173.778777 
L 184.244988 173.778777 
L 184.35067 171.681786 
L 184.375384 171.681786 
L 184.440951 170.633291 
L 184.593788 170.633291 
L 184.593788 170.109043 
L 184.727382 170.109043 
L 184.747211 169.060547 
L 184.862347 169.060547 
L 184.958105 167.487804 
L 184.997689 167.487804 
L 185.073739 165.915061 
L 185.148037 165.915061 
L 185.240343 164.342318 
L 185.335893 164.342318 
L 185.394644 162.769575 
L 185.470816 162.769575 
L 185.559104 160.672584 
L 185.587205 160.672584 
L 185.654278 159.099841 
L 185.778543 159.099841 
L 185.814921 158.051345 
L 185.931267 158.051345 
L 186.031587 155.954354 
L 186.132217 155.954354 
L 186.158507 154.905859 
L 186.28096 154.905859 
L 186.34054 153.857364 
L 186.413079 153.857364 
L 186.500598 151.236125 
L 186.709705 151.236125 
L 186.81074 149.663382 
L 186.847995 149.663382 
L 186.915446 148.614886 
L 187.00808 148.614886 
L 187.109488 147.042143 
L 187.141477 147.042143 
L 187.176763 145.993648 
L 187.277184 145.993648 
L 187.377851 144.945152 
L 187.509242 144.945152 
L 187.588089 143.372409 
L 187.640454 143.372409 
L 187.705686 141.799666 
L 187.770671 141.799666 
L 187.867691 138.65418 
L 187.89991 138.65418 
L 187.996205 137.605684 
L 188.020594 137.605684 
L 188.074846 136.557189 
L 188.137659 136.557189 
L 188.200639 135.508693 
L 188.324734 135.508693 
L 188.324734 134.984446 
L 188.446381 134.984446 
L 188.446381 134.460198 
L 188.578392 134.460198 
L 188.684046 132.887455 
L 188.73203 132.887455 
L 188.778352 131.838959 
L 188.929842 131.838959 
L 188.991123 130.266216 
L 189.08151 130.266216 
L 189.135515 129.217721 
L 189.21807 129.217721 
L 189.299858 127.12073 
L 189.349855 127.12073 
L 189.349855 126.596482 
L 191.44033 126.596482 
L 191.44033 126.072235 
L 191.828856 126.072235 
L 191.89723 125.023739 
L 192.081501 125.023739 
L 192.163642 123.450996 
L 192.286589 123.450996 
L 192.360931 121.878253 
L 192.399066 121.878253 
L 192.468298 120.829757 
L 192.531414 120.829757 
L 192.585417 119.257014 
L 192.691394 119.257014 
L 192.736701 117.684271 
L 192.820612 117.684271 
L 192.898702 115.58728 
L 192.945266 115.58728 
L 193.021897 114.538785 
L 193.084504 114.538785 
L 193.159629 111.917546 
L 193.227936 111.917546 
L 193.297443 109.820555 
L 193.391534 109.820555 
L 193.495867 106.150821 
L 193.537075 106.150821 
L 193.603035 103.529583 
L 193.65234 103.529583 
L 193.747091 100.384096 
L 193.784274 100.384096 
L 193.887109 95.665867 
L 193.898182 95.665867 
L 193.988768 92.520381 
L 194.01134 92.520381 
L 194.078879 88.850646 
L 194.123757 88.850646 
L 194.224309 85.180912 
L 194.280473 85.180912 
L 194.37128 84.132417 
L 194.447871 84.132417 
L 194.447871 83.608169 
L 194.634063 83.608169 
L 194.634063 83.083922 
L 194.769764 83.083922 
L 194.769764 82.559674 
L 194.894228 82.559674 
L 194.955456 81.511178 
L 195.026304 81.511178 
L 195.106123 80.462683 
L 195.168975 80.462683 
L 195.168975 79.938435 
L 195.293208 79.938435 
L 195.355903 77.841444 
L 195.509836 77.841444 
L 195.604417 75.220206 
L 195.645489 75.220206 
L 195.706914 73.647463 
L 201.735557 73.647463 
L 201.790877 72.598967 
L 201.850131 72.598967 
L 201.850131 72.074719 
L 202.060956 72.074719 
L 202.150223 70.501976 
L 202.208603 70.501976 
L 202.286484 68.929233 
L 202.353084 68.929233 
L 202.449999 66.307995 
L 202.523016 66.307995 
L 202.628548 64.735251 
L 202.639988 64.735251 
L 202.751082 62.114013 
L 202.765321 62.114013 
L 202.858766 60.017022 
L 202.892437 60.017022 
L 202.993559 57.395783 
L 203.00693 57.395783 
L 203.00693 56.871536 
L 209.249775 56.871536 
L 209.351144 55.298792 
L 209.387145 55.298792 
L 209.423991 54.250297 
L 209.503516 54.250297 
L 209.599191 52.153306 
L 209.616261 52.153306 
L 209.715949 49.532068 
L 209.752775 49.532068 
L 209.841128 47.435077 
L 209.886982 47.435077 
L 209.985785 44.28959 
L 210.016927 44.28959 
L 210.074059 41.144104 
L 215.736889 41.144104 
L 215.838559 38.522865 
L 215.920963 38.522865 
L 216.025236 36.950122 
L 216.430148 36.950122 
L 216.529637 35.901627 
L 216.759512 35.901627 
L 216.759512 35.377379 
L 217.321463 35.377379 
L 217.321463 34.853131 
L 217.515357 34.853131 
L 217.515357 34.328884 
L 217.974655 34.328884 
L 217.974655 33.804636 
L 218.969249 33.804636 
L 218.974529 32.756141 
L 219.268227 32.756141 
L 219.350738 31.707645 
L 221.210151 31.707645 
L 221.30687 30.65915 
L 221.562216 30.65915 
L 221.562216 30.134902 
L 224.081809 30.134902 
L 224.099792 29.086407 
L 224.193324 29.086407 
L 224.235842 28.037911 
L 227.901057 28.037911 
L 227.901057 27.513663 
L 333.168 27.513663 
L 333.168 27.513663 
" style="fill:none;stroke:#000080;stroke-linecap:square;stroke-width:1.5;"/>
   </g>
   <g id="line2d_44">
    <defs>
     <path d="M 0 6 
C 1.591219 6 3.117479 5.367802 4.242641 4.242641 
C 5.367802 3.117479 6 1.591219 6 0 
C 6 -1.591219 5.367802 -3.117479 4.242641 -4.242641 
C 3.117479 -5.367802 1.591219 -6 0 -6 
C -1.591219 -6 -3.117479 -5.367802 -4.242641 -4.242641 
C -5.367802 -3.117479 -6 -1.591219 -6 0 
C -6 1.591219 -5.367802 3.117479 -4.242641 4.242641 
C -3.117479 5.367802 -1.591219 6 0 6 
z
" id="m583d80666d" style="stroke:#000080;stroke-width:1.5;"/>
    </defs>
    <g>
     <use style="fill:none;stroke:#000080;stroke-width:1.5;" x="195.706914" xlink:href="#m583d80666d" y="74.17171"/>
     <use style="fill:none;stroke:#000080;stroke-width:1.5;" x="227.901057" xlink:href="#m583d80666d" y="27.513663"/>
     <use style="fill:none;stroke:#000080;stroke-width:1.5;" x="227.901057" xlink:href="#m583d80666d" y="27.513663"/>
     <use style="fill:none;stroke:#000080;stroke-width:1.5;" x="333.168" xlink:href="#m583d80666d" y="27.513663"/>
    </g>
   </g>
   <g id="line2d_45">
    <path style="fill:none;stroke:#000080;stroke-linecap:square;stroke-width:1.5;"/>
    <g/>
   </g>
   <g id="line2d_46">
    <path clip-path="url(#p75c1d6e39b)" d="M 214.433143 41.144104 
" style="fill:none;stroke:#000080;stroke-linecap:square;stroke-width:1.5;"/>
    <defs>
     <path d="M -12 12 
L 12 -12 
M -12 -12 
L 12 12 
" id="m568fb42f46" style="stroke:#000080;"/>
    </defs>
    <g clip-path="url(#p75c1d6e39b)">
     <use style="fill:#000080;stroke:#000080;" x="214.433143" xlink:href="#m568fb42f46" y="41.144104"/>
    </g>
   </g>
   <g id="line2d_47">
    <defs>
     <path d="M 0 1.5 
C 0.397805 1.5 0.77937 1.341951 1.06066 1.06066 
C 1.341951 0.77937 1.5 0.397805 1.5 0 
C 1.5 -0.397805 1.341951 -0.77937 1.06066 -1.06066 
C 0.77937 -1.341951 0.397805 -1.5 0 -1.5 
C -0.397805 -1.5 -0.77937 -1.341951 -1.06066 -1.06066 
C -1.341951 -0.77937 -1.5 -0.397805 -1.5 0 
C -1.5 0.397805 -1.341951 0.77937 -1.06066 1.06066 
C -0.77937 1.341951 -0.397805 1.5 0 1.5 
z
" id="mb8e8fdf73b" style="stroke:#ff00ff;"/>
    </defs>
    <g>
     <use style="fill:#ff00ff;stroke:#ff00ff;" x="195.993208" xlink:href="#mb8e8fdf73b" y="27.513663"/>
     <use style="fill:#ff00ff;stroke:#ff00ff;" x="195.993208" xlink:href="#mb8e8fdf73b" y="27.513663"/>
    </g>
   </g>
   <g id="line2d_48">
    <path d="M 122.962364 294.88 
L 122.962364 294.355752 
L 130.536746 294.355752 
L 130.536746 293.831505 
L 131.516075 293.831505 
L 131.516075 293.307257 
L 143.478392 293.307257 
L 143.478392 292.783009 
L 155.699213 292.783009 
L 155.699213 292.258761 
L 156.141397 292.258761 
L 156.227977 290.686018 
L 156.263502 290.686018 
L 156.263502 290.161771 
L 156.83439 290.161771 
L 156.83439 289.637523 
L 157.481641 289.637523 
L 157.481641 289.113275 
L 157.926853 289.113275 
L 157.926853 288.589027 
L 158.385485 288.589027 
L 158.416823 287.016284 
L 158.548264 287.016284 
L 158.548264 286.492036 
L 158.895388 286.492036 
L 158.895388 285.967789 
L 159.369454 285.967789 
L 159.369454 285.443541 
L 159.756484 285.443541 
L 159.812247 284.395046 
L 160.013143 284.395046 
L 160.066049 283.34655 
L 160.147128 283.34655 
L 160.185507 282.298055 
L 160.306143 282.298055 
L 160.306143 281.773807 
L 160.463701 281.773807 
L 160.463701 281.249559 
L 160.613925 281.249559 
L 160.613925 280.725312 
L 160.962638 280.725312 
L 160.962638 280.201064 
L 161.253297 280.201064 
L 161.359155 279.152568 
L 161.404324 279.152568 
L 161.404324 278.628321 
L 161.516729 278.628321 
L 161.587541 277.579825 
L 161.755941 277.579825 
L 161.755941 277.055578 
L 162.183337 277.055578 
L 162.183337 276.53133 
L 162.406418 276.53133 
L 162.406418 276.007082 
L 162.713947 276.007082 
L 162.747007 274.958587 
L 162.887238 274.958587 
L 162.887238 274.434339 
L 163.115042 274.434339 
L 163.126948 272.861596 
L 163.30961 272.861596 
L 163.30961 272.337348 
L 163.42196 272.337348 
L 163.472029 270.764605 
L 163.586637 270.764605 
L 163.586637 270.240357 
L 163.82665 270.240357 
L 163.898331 269.191862 
L 163.985895 269.191862 
L 163.985895 268.667614 
L 164.119622 268.667614 
L 164.188495 267.094871 
L 164.236383 267.094871 
L 164.277779 266.046375 
L 164.35394 266.046375 
L 164.393474 264.99788 
L 164.478559 264.99788 
L 164.478559 264.473632 
L 164.647475 264.473632 
L 164.695655 262.900889 
L 164.785437 262.900889 
L 164.882431 261.852394 
L 164.902378 261.852394 
L 164.977354 260.803898 
L 165.024619 260.803898 
L 165.024619 260.279651 
L 165.14751 260.279651 
L 165.171681 259.231155 
L 165.351888 259.231155 
L 165.375774 258.18266 
L 165.531704 258.18266 
L 165.617235 256.609917 
L 165.651034 256.609917 
L 165.674508 254.512926 
L 165.810318 254.512926 
L 165.88579 252.415935 
L 165.955163 252.415935 
L 166.063001 250.843192 
L 166.120239 250.843192 
L 166.218529 248.746201 
L 166.498896 248.746201 
L 166.57141 247.697705 
L 166.611718 247.697705 
L 166.712767 246.124962 
L 166.888527 246.124962 
L 166.979815 244.027971 
L 167.044919 244.027971 
L 167.128647 242.979476 
L 167.29489 242.979476 
L 167.401297 241.406733 
L 167.474072 241.406733 
L 167.560996 238.785494 
L 167.642254 238.785494 
L 167.642254 238.261246 
L 167.834686 238.261246 
L 167.933956 235.640008 
L 167.954512 235.640008 
L 168.035213 231.446026 
L 168.115537 231.446026 
L 168.216998 229.873283 
L 168.281368 229.873283 
L 168.354281 228.824787 
L 168.494209 228.824787 
L 168.541427 227.252044 
L 168.616955 227.252044 
L 168.657676 225.679301 
L 168.730241 225.679301 
L 168.840346 221.485319 
L 168.856192 221.485319 
L 168.964286 218.339833 
L 169.023509 218.339833 
L 169.123363 216.76709 
L 169.160509 216.76709 
L 169.228602 215.194347 
L 169.330831 215.194347 
L 169.439523 212.573108 
L 169.498307 212.573108 
L 169.597782 209.95187 
L 169.666493 209.95187 
L 169.768468 207.854879 
L 169.797329 207.854879 
L 169.892799 204.185145 
L 169.914579 204.185145 
L 170.005984 203.136649 
L 170.028759 203.136649 
L 170.102572 200.515411 
L 170.192985 200.515411 
L 170.264975 197.894172 
L 170.31877 197.894172 
L 170.422521 195.272933 
L 170.479152 195.272933 
L 170.560992 191.603199 
L 170.641347 191.603199 
L 170.749724 190.030456 
L 170.755179 190.030456 
L 170.840061 186.88497 
L 170.869346 186.88497 
L 170.909397 184.787979 
L 171.044016 184.787979 
L 171.149891 181.118245 
L 171.155221 181.118245 
L 171.250879 177.448511 
L 171.280531 177.448511 
L 171.384964 175.35152 
L 171.461565 175.35152 
L 171.566989 171.681786 
L 171.613752 171.681786 
L 171.718249 170.109043 
L 171.733714 170.109043 
L 171.812884 168.012052 
L 171.864099 168.012052 
L 171.973188 163.293823 
L 171.98741 163.293823 
L 172.075529 161.721079 
L 172.109843 161.721079 
L 172.219393 157.527098 
L 172.224401 157.527098 
L 172.31829 155.954354 
L 172.34019 155.954354 
L 172.436419 153.333116 
L 172.454216 153.333116 
L 172.543913 150.711877 
L 172.639988 150.711877 
L 172.751078 145.4694 
L 172.787949 145.4694 
L 172.858559 142.323914 
L 172.903867 142.323914 
L 173.004658 139.178427 
L 173.047673 139.178427 
L 173.127683 135.508693 
L 173.164704 135.508693 
L 173.268694 132.887455 
L 173.277175 132.887455 
L 173.387979 127.12073 
L 173.400142 127.12073 
L 173.426312 125.547987 
L 173.525022 125.547987 
L 173.632399 122.4025 
L 173.654532 122.4025 
L 173.751028 118.732766 
L 173.802272 118.732766 
L 173.897035 116.111528 
L 173.91883 116.111528 
L 174.01115 114.014537 
L 174.041813 114.014537 
L 174.13258 110.344803 
L 174.182701 110.344803 
L 174.2905 106.675069 
L 174.325988 106.675069 
L 174.417034 101.956839 
L 174.471607 101.956839 
L 174.581982 97.23861 
L 174.588093 97.23861 
L 174.694255 93.568876 
L 174.72892 93.568876 
L 174.816139 89.374894 
L 174.857435 89.374894 
L 174.943151 86.229408 
L 174.973051 86.229408 
L 175.072627 82.559674 
L 175.090438 82.559674 
L 175.19945 77.841444 
L 175.222179 77.841444 
L 175.30275 74.17171 
L 175.334539 74.17171 
L 175.402105 72.074719 
L 175.454472 72.074719 
L 175.529834 69.453481 
L 175.566979 69.453481 
L 175.673838 65.783747 
L 175.682849 65.783747 
L 175.762926 62.638261 
L 175.804451 62.638261 
L 175.883155 57.920031 
L 175.944569 57.920031 
L 176.025044 53.726049 
L 176.065141 53.726049 
L 176.167364 50.580563 
L 176.180895 50.580563 
L 176.260274 47.435077 
L 176.340864 47.435077 
L 176.344017 46.386581 
L 176.471218 46.386581 
L 176.57495 43.765343 
L 176.601368 43.765343 
L 176.650986 42.716847 
L 176.851862 42.716847 
L 176.887024 41.668352 
L 192.461819 41.668352 
L 192.461819 41.144104 
L 193.023689 41.144104 
L 193.023689 40.619856 
L 193.24475 40.619856 
L 193.24475 40.095609 
L 193.408772 40.095609 
L 193.408772 39.571361 
L 193.814818 39.571361 
L 193.856124 38.522865 
L 194.063143 38.522865 
L 194.152307 36.425875 
L 194.289076 36.425875 
L 194.368519 34.328884 
L 194.575498 34.328884 
L 194.642219 33.280388 
L 194.709495 33.280388 
L 194.709495 32.756141 
L 194.827404 32.756141 
L 194.914305 31.707645 
L 195.070635 31.707645 
L 195.070635 31.183397 
L 195.231598 31.183397 
L 195.332941 29.610654 
L 195.467143 29.610654 
L 195.541077 28.562159 
L 195.610327 28.562159 
L 195.610327 28.037911 
L 195.993208 28.037911 
L 195.993208 27.513663 
L 333.168 27.513663 
L 333.168 27.513663 
" style="fill:none;stroke:#ff00ff;stroke-linecap:square;stroke-width:1.5;"/>
   </g>
   <g id="line2d_49">
    <defs>
     <path d="M -0 8.485281 
L 5.091169 0 
L 0 -8.485281 
L -5.091169 -0 
z
" id="m95527cc75e" style="stroke:#ff00ff;stroke-linejoin:miter;stroke-width:1.5;"/>
    </defs>
    <g>
     <use style="fill:none;stroke:#ff00ff;stroke-linejoin:miter;stroke-width:1.5;" x="168.867154" xlink:href="#m95527cc75e" y="220.436824"/>
     <use style="fill:none;stroke:#ff00ff;stroke-linejoin:miter;stroke-width:1.5;" x="175.454472" xlink:href="#m95527cc75e" y="71.550472"/>
     <use style="fill:none;stroke:#ff00ff;stroke-linejoin:miter;stroke-width:1.5;" x="195.993208" xlink:href="#m95527cc75e" y="28.037911"/>
     <use style="fill:none;stroke:#ff00ff;stroke-linejoin:miter;stroke-width:1.5;" x="195.993208" xlink:href="#m95527cc75e" y="27.513663"/>
     <use style="fill:none;stroke:#ff00ff;stroke-linejoin:miter;stroke-width:1.5;" x="333.168" xlink:href="#m95527cc75e" y="27.513663"/>
    </g>
   </g>
   <g id="line2d_50">
    <path style="fill:none;stroke:#ff00ff;stroke-linecap:square;stroke-width:1.5;"/>
    <g/>
   </g>
   <g id="line2d_51">
    <path clip-path="url(#p75c1d6e39b)" d="M 189.379414 41.668352 
" style="fill:none;stroke:#ff00ff;stroke-linecap:square;stroke-width:1.5;"/>
    <defs>
     <path d="M -12 12 
L 12 -12 
M -12 -12 
L 12 12 
" id="m748ec725a9" style="stroke:#ff00ff;"/>
    </defs>
    <g clip-path="url(#p75c1d6e39b)">
     <use style="fill:#ff00ff;stroke:#ff00ff;" x="189.379414" xlink:href="#m748ec725a9" y="41.668352"/>
    </g>
   </g>
   <g id="line2d_52">
    <defs>
     <path d="M 0 1.5 
C 0.397805 1.5 0.77937 1.341951 1.06066 1.06066 
C 1.341951 0.77937 1.5 0.397805 1.5 0 
C 1.5 -0.397805 1.341951 -0.77937 1.06066 -1.06066 
C 0.77937 -1.341951 0.397805 -1.5 0 -1.5 
C -0.397805 -1.5 -0.77937 -1.341951 -1.06066 -1.06066 
C -1.341951 -0.77937 -1.5 -0.397805 -1.5 0 
C -1.5 0.397805 -1.341951 0.77937 -1.06066 1.06066 
C -0.77937 1.341951 -0.397805 1.5 0 1.5 
z
" id="m3c77014bb3" style="stroke:#6495ed;"/>
    </defs>
    <g>
     <use style="fill:#6495ed;stroke:#6495ed;" x="171.415435" xlink:href="#m3c77014bb3" y="27.513663"/>
     <use style="fill:#6495ed;stroke:#6495ed;" x="171.415435" xlink:href="#m3c77014bb3" y="27.513663"/>
    </g>
   </g>
   <g id="line2d_53">
    <path d="M 157.155046 294.88 
L 157.155046 294.355752 
L 158.187188 294.355752 
L 158.187188 293.831505 
L 158.421295 293.831505 
L 158.421295 293.307257 
L 159.52741 293.307257 
L 159.52741 292.783009 
L 159.855495 292.783009 
L 159.855495 292.258761 
L 160.082296 292.258761 
L 160.082296 291.734514 
L 160.354162 291.734514 
L 160.354162 291.210266 
L 160.631628 291.210266 
L 160.706173 290.161771 
L 160.991541 290.161771 
L 161.068379 289.113275 
L 161.456871 289.113275 
L 161.531661 288.06478 
L 161.853265 288.06478 
L 161.853265 287.540532 
L 162.294347 287.540532 
L 162.294347 287.016284 
L 162.452458 287.016284 
L 162.473665 285.967789 
L 162.56702 285.967789 
L 162.617887 284.395046 
L 162.826785 284.395046 
L 162.92685 282.822302 
L 162.940606 282.822302 
L 163.033175 280.725312 
L 163.143943 280.725312 
L 163.211755 279.676816 
L 163.306245 279.676816 
L 163.38515 275.482834 
L 163.435326 275.482834 
L 163.435326 274.958587 
L 163.581669 274.958587 
L 163.692261 272.337348 
L 163.700485 272.337348 
L 163.72842 271.288853 
L 163.828282 271.288853 
L 163.899956 269.191862 
L 163.94379 269.191862 
L 164.047249 267.619119 
L 164.113201 267.619119 
L 164.215648 264.99788 
L 164.230006 264.99788 
L 164.296851 263.949385 
L 164.409262 263.949385 
L 164.458114 262.376641 
L 164.536615 262.376641 
L 164.647475 258.706907 
L 164.663032 258.706907 
L 164.757624 257.134164 
L 164.830153 257.134164 
L 164.910043 255.037173 
L 165.130872 255.037173 
L 165.20938 250.843192 
L 165.342922 250.843192 
L 165.447232 247.697705 
L 165.479884 247.697705 
L 165.586316 245.076467 
L 165.636347 245.076467 
L 165.734514 243.503724 
L 165.750577 243.503724 
L 165.798678 241.93098 
L 165.862603 241.93098 
L 165.955163 236.688503 
L 166.009885 236.688503 
L 166.111666 233.018769 
L 166.135946 233.018769 
L 166.236985 230.397531 
L 166.290819 230.397531 
L 166.39939 226.727797 
L 166.444309 226.727797 
L 166.549131 223.58231 
L 166.564451 223.58231 
L 166.667161 217.291338 
L 166.685142 217.291338 
L 166.762382 215.194347 
L 166.800872 215.194347 
L 166.903548 210.476117 
L 166.925373 210.476117 
L 166.993399 207.330631 
L 167.053039 207.330631 
L 167.160949 201.039658 
L 167.186478 201.039658 
L 167.29489 197.894172 
L 167.304227 197.894172 
L 167.414552 192.651695 
L 167.415877 192.651695 
L 167.500459 189.506209 
L 167.533386 189.506209 
L 167.612155 184.263731 
L 167.66969 184.263731 
L 167.777701 181.118245 
L 167.786779 181.118245 
L 167.886326 176.924263 
L 167.903076 176.924263 
L 168.008355 171.157538 
L 168.017312 171.157538 
L 168.123167 166.439309 
L 168.132065 166.439309 
L 168.242269 162.769575 
L 168.244795 162.769575 
L 168.346752 158.051345 
L 168.360552 158.051345 
L 168.44187 153.857364 
L 168.471797 153.857364 
L 168.582328 146.517896 
L 168.584803 146.517896 
L 168.681078 141.799666 
L 168.697071 141.799666 
L 168.79272 136.032941 
L 168.814718 136.032941 
L 168.921858 131.314712 
L 168.936417 131.314712 
L 169.030747 126.072235 
L 169.053647 126.072235 
L 169.135354 122.4025 
L 169.186823 122.4025 
L 169.294051 115.063032 
L 169.299988 115.063032 
L 169.410055 109.296308 
L 169.41949 109.296308 
L 169.525281 102.481087 
L 169.531139 102.481087 
L 169.642068 98.287105 
L 169.643232 98.287105 
L 169.748816 91.996133 
L 169.754598 91.996133 
L 169.865247 84.656665 
L 169.877881 84.656665 
L 169.974048 76.268701 
L 169.990023 76.268701 
L 170.094638 71.026224 
L 170.103705 71.026224 
L 170.211011 63.162508 
L 170.217766 63.162508 
L 170.310935 58.444279 
L 170.335546 58.444279 
L 170.438085 53.201802 
L 170.452525 53.201802 
L 170.533387 46.386581 
L 170.569817 46.386581 
L 170.672068 42.192599 
L 170.687408 42.192599 
L 170.797673 36.950122 
L 170.815076 36.950122 
L 170.88018 33.804636 
L 170.929927 33.804636 
L 171.033285 31.707645 
L 171.045089 31.707645 
L 171.133891 29.086407 
L 171.220114 29.086407 
L 171.225422 28.037911 
L 171.415435 28.037911 
L 171.415435 27.513663 
L 333.168 27.513663 
L 333.168 27.513663 
" style="fill:none;stroke:#6495ed;stroke-linecap:square;stroke-width:1.5;"/>
   </g>
   <g id="line2d_54">
    <defs>
     <path d="M -0 6 
L 6 -6 
L -6 -6 
z
" id="m2a286b2c98" style="stroke:#6495ed;stroke-linejoin:miter;stroke-width:1.5;"/>
    </defs>
    <g>
     <use style="fill:none;stroke:#6495ed;stroke-linejoin:miter;stroke-width:1.5;" x="169.294051" xlink:href="#m2a286b2c98" y="115.063032"/>
     <use style="fill:none;stroke:#6495ed;stroke-linejoin:miter;stroke-width:1.5;" x="171.415435" xlink:href="#m2a286b2c98" y="28.037911"/>
     <use style="fill:none;stroke:#6495ed;stroke-linejoin:miter;stroke-width:1.5;" x="171.415435" xlink:href="#m2a286b2c98" y="27.513663"/>
     <use style="fill:none;stroke:#6495ed;stroke-linejoin:miter;stroke-width:1.5;" x="333.168" xlink:href="#m2a286b2c98" y="27.513663"/>
    </g>
   </g>
   <g id="line2d_55">
    <path style="fill:none;stroke:#6495ed;stroke-linecap:square;stroke-width:1.5;"/>
    <g/>
   </g>
   <g id="line2d_56">
    <path d="M 333.168 27.513663 
L 363.64328 289.532673 
" style="fill:none;stroke:#000080;stroke-linecap:square;stroke-width:1.5;"/>
    <g>
     <use style="fill:none;stroke:#000080;stroke-width:1.5;" x="333.168" xlink:href="#m583d80666d" y="27.513663"/>
     <use style="fill:none;stroke:#000080;stroke-width:1.5;" x="363.64328" xlink:href="#m583d80666d" y="289.532673"/>
    </g>
   </g>
   <g id="line2d_57">
    <path d="M 333.168 27.513663 
L 363.64328 203.975446 
" style="fill:none;stroke:#ff00ff;stroke-linecap:square;stroke-width:1.5;"/>
    <g>
     <use style="fill:none;stroke:#ff00ff;stroke-linejoin:miter;stroke-width:1.5;" x="333.168" xlink:href="#m95527cc75e" y="27.513663"/>
     <use style="fill:none;stroke:#ff00ff;stroke-linejoin:miter;stroke-width:1.5;" x="363.64328" xlink:href="#m95527cc75e" y="203.975446"/>
    </g>
   </g>
   <g id="line2d_58">
    <path d="M 333.168 27.513663 
L 363.64328 118.418218 
" style="fill:none;stroke:#6495ed;stroke-linecap:square;stroke-width:1.5;"/>
    <g>
     <use style="fill:none;stroke:#6495ed;stroke-linejoin:miter;stroke-width:1.5;" x="333.168" xlink:href="#m2a286b2c98" y="27.513663"/>
     <use style="fill:none;stroke:#6495ed;stroke-linejoin:miter;stroke-width:1.5;" x="363.64328" xlink:href="#m2a286b2c98" y="118.418218"/>
    </g>
   </g>
   <g id="line2d_59">
    <path d="M 333.168 294.88 
L 333.168 27.513663 
" style="fill:none;stroke:#000000;stroke-linecap:square;stroke-width:1.5;"/>
   </g>
   <g id="patch_3">
    <path d="M 56.12 294.88 
L 56.12 24.84 
" style="fill:none;stroke:#000000;stroke-linecap:square;stroke-linejoin:miter;stroke-width:0.8;"/>
   </g>
   <g id="patch_4">
    <path d="M 333.168 294.88 
L 333.168 24.84 
" style="fill:none;stroke:#000000;stroke-linecap:square;stroke-linejoin:miter;stroke-width:0.8;"/>
   </g>
   <g id="patch_5">
    <path d="M 56.12 294.88 
L 333.168 294.88 
" style="fill:none;stroke:#000000;stroke-linecap:square;stroke-linejoin:miter;stroke-width:0.8;"/>
   </g>
   <g id="patch_6">
    <path d="M 56.12 24.84 
L 333.168 24.84 
" style="fill:none;stroke:#000000;stroke-linecap:square;stroke-linejoin:miter;stroke-width:0.8;"/>
   </g>
   <g id="text_13">
    <!-- CMA ES PPM -->
    <defs>
     <path d="M 64.40625 67.28125 
L 64.40625 56.890625 
Q 59.421875 61.53125 53.78125 63.8125 
Q 48.140625 66.109375 41.796875 66.109375 
Q 29.296875 66.109375 22.65625 58.46875 
Q 16.015625 50.828125 16.015625 36.375 
Q 16.015625 21.96875 22.65625 14.328125 
Q 29.296875 6.6875 41.796875 6.6875 
Q 48.140625 6.6875 53.78125 8.984375 
Q 59.421875 11.28125 64.40625 15.921875 
L 64.40625 5.609375 
Q 59.234375 2.09375 53.4375 0.328125 
Q 47.65625 -1.421875 41.21875 -1.421875 
Q 24.65625 -1.421875 15.125 8.703125 
Q 5.609375 18.84375 5.609375 36.375 
Q 5.609375 53.953125 15.125 64.078125 
Q 24.65625 74.21875 41.21875 74.21875 
Q 47.75 74.21875 53.53125 72.484375 
Q 59.328125 70.75 64.40625 67.28125 
z
" id="DejaVuSans-43"/>
     <path d="M 9.8125 72.90625 
L 24.515625 72.90625 
L 43.109375 23.296875 
L 61.8125 72.90625 
L 76.515625 72.90625 
L 76.515625 0 
L 66.890625 0 
L 66.890625 64.015625 
L 48.09375 14.015625 
L 38.1875 14.015625 
L 19.390625 64.015625 
L 19.390625 0 
L 9.8125 0 
z
" id="DejaVuSans-4d"/>
     <path d="M 34.1875 63.1875 
L 20.796875 26.90625 
L 47.609375 26.90625 
z
M 28.609375 72.90625 
L 39.796875 72.90625 
L 67.578125 0 
L 57.328125 0 
L 50.6875 18.703125 
L 17.828125 18.703125 
L 11.1875 0 
L 0.78125 0 
z
" id="DejaVuSans-41"/>
     <path d="M 9.8125 72.90625 
L 55.90625 72.90625 
L 55.90625 64.59375 
L 19.671875 64.59375 
L 19.671875 43.015625 
L 54.390625 43.015625 
L 54.390625 34.71875 
L 19.671875 34.71875 
L 19.671875 8.296875 
L 56.78125 8.296875 
L 56.78125 0 
L 9.8125 0 
z
" id="DejaVuSans-45"/>
     <path d="M 53.515625 70.515625 
L 53.515625 60.890625 
Q 47.90625 63.578125 42.921875 64.890625 
Q 37.9375 66.21875 33.296875 66.21875 
Q 25.25 66.21875 20.875 63.09375 
Q 16.5 59.96875 16.5 54.203125 
Q 16.5 49.359375 19.40625 46.890625 
Q 22.3125 44.4375 30.421875 42.921875 
L 36.375 41.703125 
Q 47.40625 39.59375 52.65625 34.296875 
Q 57.90625 29 57.90625 20.125 
Q 57.90625 9.515625 50.796875 4.046875 
Q 43.703125 -1.421875 29.984375 -1.421875 
Q 24.8125 -1.421875 18.96875 -0.25 
Q 13.140625 0.921875 6.890625 3.21875 
L 6.890625 13.375 
Q 12.890625 10.015625 18.65625 8.296875 
Q 24.421875 6.59375 29.984375 6.59375 
Q 38.421875 6.59375 43.015625 9.90625 
Q 47.609375 13.234375 47.609375 19.390625 
Q 47.609375 24.75 44.3125 27.78125 
Q 41.015625 30.8125 33.5 32.328125 
L 27.484375 33.5 
Q 16.453125 35.6875 11.515625 40.375 
Q 6.59375 45.0625 6.59375 53.421875 
Q 6.59375 63.09375 13.40625 68.65625 
Q 20.21875 74.21875 32.171875 74.21875 
Q 37.3125 74.21875 42.625 73.28125 
Q 47.953125 72.359375 53.515625 70.515625 
z
" id="DejaVuSans-53"/>
     <path d="M 19.671875 64.796875 
L 19.671875 37.40625 
L 32.078125 37.40625 
Q 38.96875 37.40625 42.71875 40.96875 
Q 46.484375 44.53125 46.484375 51.125 
Q 46.484375 57.671875 42.71875 61.234375 
Q 38.96875 64.796875 32.078125 64.796875 
z
M 9.8125 72.90625 
L 32.078125 72.90625 
Q 44.34375 72.90625 50.609375 67.359375 
Q 56.890625 61.8125 56.890625 51.125 
Q 56.890625 40.328125 50.609375 34.8125 
Q 44.34375 29.296875 32.078125 29.296875 
L 19.671875 29.296875 
L 19.671875 0 
L 9.8125 0 
z
" id="DejaVuSans-50"/>
    </defs>
    <g transform="translate(369.18424 294.223611)scale(0.17 -0.17)">
     <use xlink:href="#DejaVuSans-43"/>
     <use x="69.824219" xlink:href="#DejaVuSans-4d"/>
     <use x="156.103516" xlink:href="#DejaVuSans-41"/>
     <use x="224.511719" xlink:href="#DejaVuSans-20"/>
     <use x="256.298828" xlink:href="#DejaVuSans-45"/>
     <use x="319.482422" xlink:href="#DejaVuSans-53"/>
     <use x="382.958984" xlink:href="#DejaVuSans-20"/>
     <use x="414.746094" xlink:href="#DejaVuSans-50"/>
     <use x="475.048828" xlink:href="#DejaVuSans-50"/>
     <use x="535.351562" xlink:href="#DejaVuSans-4d"/>
    </g>
   </g>
   <g id="text_14">
    <!-- CMA ES CSA -->
    <g transform="translate(369.18424 208.666383)scale(0.17 -0.17)">
     <use xlink:href="#DejaVuSans-43"/>
     <use x="69.824219" xlink:href="#DejaVuSans-4d"/>
     <use x="156.103516" xlink:href="#DejaVuSans-41"/>
     <use x="224.511719" xlink:href="#DejaVuSans-20"/>
     <use x="256.298828" xlink:href="#DejaVuSans-45"/>
     <use x="319.482422" xlink:href="#DejaVuSans-53"/>
     <use x="382.958984" xlink:href="#DejaVuSans-20"/>
     <use x="414.746094" xlink:href="#DejaVuSans-43"/>
     <use x="484.570312" xlink:href="#DejaVuSans-53"/>
     <use x="548.0625" xlink:href="#DejaVuSans-41"/>
    </g>
   </g>
   <g id="text_15">
    <!-- CMAES posi -->
    <g transform="translate(369.18424 123.109155)scale(0.17 -0.17)">
     <use xlink:href="#DejaVuSans-43"/>
     <use x="69.824219" xlink:href="#DejaVuSans-4d"/>
     <use x="156.103516" xlink:href="#DejaVuSans-41"/>
     <use x="224.511719" xlink:href="#DejaVuSans-45"/>
     <use x="287.695312" xlink:href="#DejaVuSans-53"/>
     <use x="351.171875" xlink:href="#DejaVuSans-20"/>
     <use x="382.958984" xlink:href="#DejaVuSans-70"/>
     <use x="446.435547" xlink:href="#DejaVuSans-6f"/>
     <use x="507.617188" xlink:href="#DejaVuSans-73"/>
     <use x="559.716797" xlink:href="#DejaVuSans-69"/>
    </g>
   </g>
   <g id="text_16">
    <!-- best 2009 -->
    <defs>
     <path d="M 48.6875 27.296875 
Q 48.6875 37.203125 44.609375 42.84375 
Q 40.53125 48.484375 33.40625 48.484375 
Q 26.265625 48.484375 22.1875 42.84375 
Q 18.109375 37.203125 18.109375 27.296875 
Q 18.109375 17.390625 22.1875 11.75 
Q 26.265625 6.109375 33.40625 6.109375 
Q 40.53125 6.109375 44.609375 11.75 
Q 48.6875 17.390625 48.6875 27.296875 
z
M 18.109375 46.390625 
Q 20.953125 51.265625 25.265625 53.625 
Q 29.59375 56 35.59375 56 
Q 45.5625 56 51.78125 48.09375 
Q 58.015625 40.1875 58.015625 27.296875 
Q 58.015625 14.40625 51.78125 6.484375 
Q 45.5625 -1.421875 35.59375 -1.421875 
Q 29.59375 -1.421875 25.265625 0.953125 
Q 20.953125 3.328125 18.109375 8.203125 
L 18.109375 0 
L 9.078125 0 
L 9.078125 75.984375 
L 18.109375 75.984375 
z
" id="DejaVuSans-62"/>
     <path d="M 10.984375 1.515625 
L 10.984375 10.5 
Q 14.703125 8.734375 18.5 7.8125 
Q 22.3125 6.890625 25.984375 6.890625 
Q 35.75 6.890625 40.890625 13.453125 
Q 46.046875 20.015625 46.78125 33.40625 
Q 43.953125 29.203125 39.59375 26.953125 
Q 35.25 24.703125 29.984375 24.703125 
Q 19.046875 24.703125 12.671875 31.3125 
Q 6.296875 37.9375 6.296875 49.421875 
Q 6.296875 60.640625 12.9375 67.421875 
Q 19.578125 74.21875 30.609375 74.21875 
Q 43.265625 74.21875 49.921875 64.515625 
Q 56.59375 54.828125 56.59375 36.375 
Q 56.59375 19.140625 48.40625 8.859375 
Q 40.234375 -1.421875 26.421875 -1.421875 
Q 22.703125 -1.421875 18.890625 -0.6875 
Q 15.09375 0.046875 10.984375 1.515625 
z
M 30.609375 32.421875 
Q 37.25 32.421875 41.125 36.953125 
Q 45.015625 41.5 45.015625 49.421875 
Q 45.015625 57.28125 41.125 61.84375 
Q 37.25 66.40625 30.609375 66.40625 
Q 23.96875 66.40625 20.09375 61.84375 
Q 16.21875 57.28125 16.21875 49.421875 
Q 16.21875 41.5 20.09375 36.953125 
Q 23.96875 32.421875 30.609375 32.421875 
z
" id="DejaVuSans-39"/>
    </defs>
    <g transform="translate(369.18424 37.551928)scale(0.17 -0.17)">
     <use xlink:href="#DejaVuSans-62"/>
     <use x="63.476562" xlink:href="#DejaVuSans-65"/>
     <use x="125" xlink:href="#DejaVuSans-73"/>
     <use x="177.099609" xlink:href="#DejaVuSans-74"/>
     <use x="216.308594" xlink:href="#DejaVuSans-20"/>
     <use x="248.095703" xlink:href="#DejaVuSans-32"/>
     <use x="311.71875" xlink:href="#DejaVuSans-30"/>
     <use x="375.341797" xlink:href="#DejaVuSans-30"/>
     <use x="438.964844" xlink:href="#DejaVuSans-39"/>
    </g>
   </g>
   <g id="text_17">
    <!-- bbob f11, 20-D -->
    <defs>
     <path d="M 19.671875 64.796875 
L 19.671875 8.109375 
L 31.59375 8.109375 
Q 46.6875 8.109375 53.6875 14.9375 
Q 60.6875 21.78125 60.6875 36.53125 
Q 60.6875 51.171875 53.6875 57.984375 
Q 46.6875 64.796875 31.59375 64.796875 
z
M 9.8125 72.90625 
L 30.078125 72.90625 
Q 51.265625 72.90625 61.171875 64.09375 
Q 71.09375 55.28125 71.09375 36.53125 
Q 71.09375 17.671875 61.125 8.828125 
Q 51.171875 0 30.078125 0 
L 9.8125 0 
z
" id="DejaVuSans-44"/>
    </defs>
    <g transform="translate(58.89048 35.290806)scale(0.102 -0.102)">
     <use xlink:href="#DejaVuSans-62"/>
     <use x="63.476562" xlink:href="#DejaVuSans-62"/>
     <use x="126.953125" xlink:href="#DejaVuSans-6f"/>
     <use x="188.134766" xlink:href="#DejaVuSans-62"/>
     <use x="251.611328" xlink:href="#DejaVuSans-20"/>
     <use x="283.398438" xlink:href="#DejaVuSans-66"/>
     <use x="318.603516" xlink:href="#DejaVuSans-31"/>
     <use x="382.226562" xlink:href="#DejaVuSans-31"/>
     <use x="445.849609" xlink:href="#DejaVuSans-2c"/>
     <use x="477.636719" xlink:href="#DejaVuSans-20"/>
     <use x="509.423828" xlink:href="#DejaVuSans-32"/>
     <use x="573.046875" xlink:href="#DejaVuSans-30"/>
     <use x="636.669922" xlink:href="#DejaVuSans-2d"/>
     <use x="672.753906" xlink:href="#DejaVuSans-44"/>
    </g>
    <!-- 51 targets: 100..1e-08 -->
    <defs>
     <path d="M 10.796875 72.90625 
L 49.515625 72.90625 
L 49.515625 64.59375 
L 19.828125 64.59375 
L 19.828125 46.734375 
Q 21.96875 47.46875 24.109375 47.828125 
Q 26.265625 48.1875 28.421875 48.1875 
Q 40.625 48.1875 47.75 41.5 
Q 54.890625 34.8125 54.890625 23.390625 
Q 54.890625 11.625 47.5625 5.09375 
Q 40.234375 -1.421875 26.90625 -1.421875 
Q 22.3125 -1.421875 17.546875 -0.640625 
Q 12.796875 0.140625 7.71875 1.703125 
L 7.71875 11.625 
Q 12.109375 9.234375 16.796875 8.0625 
Q 21.484375 6.890625 26.703125 6.890625 
Q 35.15625 6.890625 40.078125 11.328125 
Q 45.015625 15.765625 45.015625 23.390625 
Q 45.015625 31 40.078125 35.4375 
Q 35.15625 39.890625 26.703125 39.890625 
Q 22.75 39.890625 18.8125 39.015625 
Q 14.890625 38.140625 10.796875 36.28125 
z
" id="DejaVuSans-35"/>
     <path d="M 11.71875 12.40625 
L 22.015625 12.40625 
L 22.015625 0 
L 11.71875 0 
z
M 11.71875 51.703125 
L 22.015625 51.703125 
L 22.015625 39.3125 
L 11.71875 39.3125 
z
" id="DejaVuSans-3a"/>
    </defs>
    <g transform="translate(58.89048 46.712575)scale(0.102 -0.102)">
     <use xlink:href="#DejaVuSans-35"/>
     <use x="63.623047" xlink:href="#DejaVuSans-31"/>
     <use x="127.246094" xlink:href="#DejaVuSans-20"/>
     <use x="159.033203" xlink:href="#DejaVuSans-74"/>
     <use x="198.242188" xlink:href="#DejaVuSans-61"/>
     <use x="259.521484" xlink:href="#DejaVuSans-72"/>
     <use x="300.619141" xlink:href="#DejaVuSans-67"/>
     <use x="364.095703" xlink:href="#DejaVuSans-65"/>
     <use x="425.619141" xlink:href="#DejaVuSans-74"/>
     <use x="464.828125" xlink:href="#DejaVuSans-73"/>
     <use x="516.927734" xlink:href="#DejaVuSans-3a"/>
     <use x="550.619141" xlink:href="#DejaVuSans-20"/>
     <use x="582.40625" xlink:href="#DejaVuSans-31"/>
     <use x="646.029297" xlink:href="#DejaVuSans-30"/>
     <use x="709.652344" xlink:href="#DejaVuSans-30"/>
     <use x="773.275391" xlink:href="#DejaVuSans-2e"/>
     <use x="805.0625" xlink:href="#DejaVuSans-2e"/>
     <use x="836.849609" xlink:href="#DejaVuSans-31"/>
     <use x="900.472656" xlink:href="#DejaVuSans-65"/>
     <use x="961.996094" xlink:href="#DejaVuSans-2d"/>
     <use x="998.080078" xlink:href="#DejaVuSans-30"/>
     <use x="1061.703125" xlink:href="#DejaVuSans-38"/>
    </g>
    <!-- 15 instances -->
    <g transform="translate(58.89048 58.134344)scale(0.102 -0.102)">
     <use xlink:href="#DejaVuSans-31"/>
     <use x="63.623047" xlink:href="#DejaVuSans-35"/>
     <use x="127.246094" xlink:href="#DejaVuSans-20"/>
     <use x="159.033203" xlink:href="#DejaVuSans-69"/>
     <use x="186.816406" xlink:href="#DejaVuSans-6e"/>
     <use x="250.195312" xlink:href="#DejaVuSans-73"/>
     <use x="302.294922" xlink:href="#DejaVuSans-74"/>
     <use x="341.503906" xlink:href="#DejaVuSans-61"/>
     <use x="402.783203" xlink:href="#DejaVuSans-6e"/>
     <use x="466.162109" xlink:href="#DejaVuSans-63"/>
     <use x="521.142578" xlink:href="#DejaVuSans-65"/>
     <use x="582.666016" xlink:href="#DejaVuSans-73"/>
    </g>
   </g>
   <g id="text_18">
    <!-- v0.0.0 -->
    <g style="fill:#808080;" transform="translate(178.96275 290.099912)scale(0.1 -0.1)">
     <use xlink:href="#DejaVuSans-76"/>
     <use x="59.179688" xlink:href="#DejaVuSans-30"/>
     <use x="122.802734" xlink:href="#DejaVuSans-2e"/>
     <use x="154.589844" xlink:href="#DejaVuSans-30"/>
     <use x="218.212891" xlink:href="#DejaVuSans-2e"/>
     <use x="250" xlink:href="#DejaVuSans-30"/>
    </g>
   </g>
   <g id="text_19">
    <!-- 11 Discus -->
    <g transform="translate(146.008062 18.84)scale(0.2 -0.2)">
     <use xlink:href="#DejaVuSans-31"/>
     <use x="63.623047" xlink:href="#DejaVuSans-31"/>
     <use x="127.246094" xlink:href="#DejaVuSans-20"/>
     <use x="159.033203" xlink:href="#DejaVuSans-44"/>
     <use x="236.035156" xlink:href="#DejaVuSans-69"/>
     <use x="263.818359" xlink:href="#DejaVuSans-73"/>
     <use x="315.917969" xlink:href="#DejaVuSans-63"/>
     <use x="370.898438" xlink:href="#DejaVuSans-75"/>
     <use x="434.277344" xlink:href="#DejaVuSans-73"/>
    </g>
   </g>
  </g>
 </g>
 <defs>
  <clipPath id="p75c1d6e39b">
   <rect height="270.04" width="277.048" x="56.12" y="24.84"/>
  </clipPath>
 </defs>
</svg>
