<?xml version="1.0" encoding="utf-8" standalone="no"?>
<!DOCTYPE svg PUBLIC "-//W3C//DTD SVG 1.1//EN"
  "http://www.w3.org/Graphics/SVG/1.1/DTD/svg11.dtd">
<!-- Created with matplotlib (http://matplotlib.org/) -->
<svg height="345pt" version="1.1" viewBox="0 0 460 345" width="460pt" xmlns="http://www.w3.org/2000/svg" xmlns:xlink="http://www.w3.org/1999/xlink">
 <defs>
  <style type="text/css">
*{stroke-linecap:butt;stroke-linejoin:round;}
  </style>
 </defs>
 <g id="figure_1">
  <g id="patch_1">
   <path d="M 0 345.6 
L 460.8 345.6 
L 460.8 0 
L 0 0 
z
" style="fill:#ffffff;"/>
  </g>
  <g id="axes_1">
   <g id="patch_2">
    <path d="M 56.12 294.88 
L 333.168 294.88 
L 333.168 24.84 
L 56.12 24.84 
z
" style="fill:#ffffff;"/>
   </g>
   <g id="line2d_1">
    <path d="M 44.205749 294.88 
L 44.205749 289.637523 
L 56.12 289.637523 
L 56.12 284.395046 
L 71.869783 284.395046 
L 71.869783 279.152568 
L 79.948502 279.152568 
L 79.948502 273.910091 
L 95.698286 273.910091 
L 95.698286 268.667614 
L 97.336537 268.667614 
L 97.336537 258.18266 
L 100.207968 258.18266 
L 100.207968 252.940182 
L 126.496178 252.940182 
L 126.496178 247.697705 
L 142.809574 247.697705 
L 142.809574 242.455228 
L 144.598384 242.455228 
L 144.598384 237.212751 
L 149.100377 237.212751 
L 149.100377 231.970274 
L 149.291576 231.970274 
L 149.291576 216.242842 
L 149.555732 216.242842 
L 149.555732 211.000365 
L 149.741959 211.000365 
L 149.741959 205.757888 
L 150.324681 205.757888 
L 150.324681 195.272933 
L 150.360453 195.272933 
L 150.360453 190.030456 
L 150.888293 190.030456 
L 150.888293 179.545502 
L 150.922912 179.545502 
L 150.922912 174.303025 
L 151.060698 174.303025 
L 151.060698 169.060547 
L 151.299196 169.060547 
L 151.299196 163.81807 
L 151.799385 163.81807 
L 151.799385 158.575593 
L 152.253451 158.575593 
L 152.253451 153.333116 
L 152.28543 153.333116 
L 152.28543 137.605684 
L 152.317349 137.605684 
L 152.317349 132.363207 
L 152.34921 132.363207 
L 152.34921 127.12073 
L 152.444438 127.12073 
L 152.444438 111.393298 
L 152.476064 111.393298 
L 152.476064 100.908344 
L 152.726997 100.908344 
L 152.726997 85.180912 
L 152.943598 85.180912 
L 152.943598 79.938435 
L 153.066156 79.938435 
L 153.066156 69.453481 
L 153.096659 69.453481 
L 153.096659 58.968526 
L 153.157504 58.968526 
L 153.157504 53.726049 
L 153.187846 53.726049 
L 153.187846 48.483572 
L 153.218134 48.483572 
L 153.218134 32.756141 
L 153.248369 32.756141 
L 153.248369 27.513663 
L 333.168 27.513663 
" style="fill:none;stroke:#f5deb3;stroke-linecap:square;stroke-width:4;"/>
   </g>
   <g id="line2d_2">
    <defs>
     <path d="M -0 7.778175 
L 7.778175 0 
L 0 -7.778175 
L -7.778175 -0 
z
" id="mb1e8cdad2e" style="stroke:#f5deb3;stroke-linejoin:miter;stroke-width:1.5;"/>
    </defs>
    <g>
     <use style="fill:#f5deb3;stroke:#f5deb3;stroke-linejoin:miter;stroke-width:1.5;" x="126.496178" xlink:href="#mb1e8cdad2e" y="252.940182"/>
     <use style="fill:#f5deb3;stroke:#f5deb3;stroke-linejoin:miter;stroke-width:1.5;" x="152.34921" xlink:href="#mb1e8cdad2e" y="127.12073"/>
     <use style="fill:#f5deb3;stroke:#f5deb3;stroke-linejoin:miter;stroke-width:1.5;" x="153.248369" xlink:href="#mb1e8cdad2e" y="32.756141"/>
     <use style="fill:#f5deb3;stroke:#f5deb3;stroke-linejoin:miter;stroke-width:1.5;" x="153.248369" xlink:href="#mb1e8cdad2e" y="27.513663"/>
     <use style="fill:#f5deb3;stroke:#f5deb3;stroke-linejoin:miter;stroke-width:1.5;" x="153.248369" xlink:href="#mb1e8cdad2e" y="27.513663"/>
     <use style="fill:#f5deb3;stroke:#f5deb3;stroke-linejoin:miter;stroke-width:1.5;" x="333.168" xlink:href="#mb1e8cdad2e" y="27.513663"/>
    </g>
   </g>
   <g id="line2d_3">
    <path style="fill:none;stroke:#f5deb3;stroke-linecap:square;stroke-width:4;"/>
    <g/>
   </g>
   <g id="line2d_4">
    <path d="M 333.168 27.513663 
L 363.64328 32.86099 
" style="fill:none;stroke:#f5deb3;stroke-linecap:square;stroke-width:4;"/>
    <g>
     <use style="fill:#f5deb3;stroke:#f5deb3;stroke-linejoin:miter;stroke-width:1.5;" x="333.168" xlink:href="#mb1e8cdad2e" y="27.513663"/>
     <use style="fill:#f5deb3;stroke:#f5deb3;stroke-linejoin:miter;stroke-width:1.5;" x="363.64328" xlink:href="#mb1e8cdad2e" y="32.86099"/>
    </g>
   </g>
   <g id="matplotlib.axis_1">
    <g id="xtick_1">
     <g id="line2d_5">
      <path clip-path="url(#p55b1f4a6a4)" d="M 56.12 294.88 
L 56.12 24.84 
" style="fill:none;stroke:#b0b0b0;stroke-linecap:square;stroke-width:0.8;"/>
     </g>
     <g id="line2d_6">
      <defs>
       <path d="M 0 0 
L 0 3.5 
" id="mce00cb9ea9" style="stroke:#000000;stroke-width:0.8;"/>
      </defs>
      <g>
       <use style="stroke:#000000;stroke-width:0.8;" x="56.12" xlink:href="#mce00cb9ea9" y="294.88"/>
      </g>
     </g>
     <g id="text_1">
      <!-- 0 -->
      <defs>
       <path d="M 31.78125 66.40625 
Q 24.171875 66.40625 20.328125 58.90625 
Q 16.5 51.421875 16.5 36.375 
Q 16.5 21.390625 20.328125 13.890625 
Q 24.171875 6.390625 31.78125 6.390625 
Q 39.453125 6.390625 43.28125 13.890625 
Q 47.125 21.390625 47.125 36.375 
Q 47.125 51.421875 43.28125 58.90625 
Q 39.453125 66.40625 31.78125 66.40625 
z
M 31.78125 74.21875 
Q 44.046875 74.21875 50.515625 64.515625 
Q 56.984375 54.828125 56.984375 36.375 
Q 56.984375 17.96875 50.515625 8.265625 
Q 44.046875 -1.421875 31.78125 -1.421875 
Q 19.53125 -1.421875 13.0625 8.265625 
Q 6.59375 17.96875 6.59375 36.375 
Q 6.59375 54.828125 13.0625 64.515625 
Q 19.53125 74.21875 31.78125 74.21875 
z
" id="DejaVuSans-30"/>
      </defs>
      <g transform="translate(49.7575 317.076875)scale(0.2 -0.2)">
       <use xlink:href="#DejaVuSans-30"/>
      </g>
     </g>
    </g>
    <g id="xtick_2">
     <g id="line2d_7">
      <path clip-path="url(#p55b1f4a6a4)" d="M 135.276571 294.88 
L 135.276571 24.84 
" style="fill:none;stroke:#b0b0b0;stroke-linecap:square;stroke-width:0.8;"/>
     </g>
     <g id="line2d_8">
      <g>
       <use style="stroke:#000000;stroke-width:0.8;" x="135.276571" xlink:href="#mce00cb9ea9" y="294.88"/>
      </g>
     </g>
     <g id="text_2">
      <!-- 2 -->
      <defs>
       <path d="M 19.1875 8.296875 
L 53.609375 8.296875 
L 53.609375 0 
L 7.328125 0 
L 7.328125 8.296875 
Q 12.9375 14.109375 22.625 23.890625 
Q 32.328125 33.6875 34.8125 36.53125 
Q 39.546875 41.84375 41.421875 45.53125 
Q 43.3125 49.21875 43.3125 52.78125 
Q 43.3125 58.59375 39.234375 62.25 
Q 35.15625 65.921875 28.609375 65.921875 
Q 23.96875 65.921875 18.8125 64.3125 
Q 13.671875 62.703125 7.8125 59.421875 
L 7.8125 69.390625 
Q 13.765625 71.78125 18.9375 73 
Q 24.125 74.21875 28.421875 74.21875 
Q 39.75 74.21875 46.484375 68.546875 
Q 53.21875 62.890625 53.21875 53.421875 
Q 53.21875 48.921875 51.53125 44.890625 
Q 49.859375 40.875 45.40625 35.40625 
Q 44.1875 33.984375 37.640625 27.21875 
Q 31.109375 20.453125 19.1875 8.296875 
z
" id="DejaVuSans-32"/>
      </defs>
      <g transform="translate(128.914071 317.076875)scale(0.2 -0.2)">
       <use xlink:href="#DejaVuSans-32"/>
      </g>
     </g>
    </g>
    <g id="xtick_3">
     <g id="line2d_9">
      <path clip-path="url(#p55b1f4a6a4)" d="M 214.433143 294.88 
L 214.433143 24.84 
" style="fill:none;stroke:#b0b0b0;stroke-linecap:square;stroke-width:0.8;"/>
     </g>
     <g id="line2d_10">
      <g>
       <use style="stroke:#000000;stroke-width:0.8;" x="214.433143" xlink:href="#mce00cb9ea9" y="294.88"/>
      </g>
     </g>
     <g id="text_3">
      <!-- 4 -->
      <defs>
       <path d="M 37.796875 64.3125 
L 12.890625 25.390625 
L 37.796875 25.390625 
z
M 35.203125 72.90625 
L 47.609375 72.90625 
L 47.609375 25.390625 
L 58.015625 25.390625 
L 58.015625 17.1875 
L 47.609375 17.1875 
L 47.609375 0 
L 37.796875 0 
L 37.796875 17.1875 
L 4.890625 17.1875 
L 4.890625 26.703125 
z
" id="DejaVuSans-34"/>
      </defs>
      <g transform="translate(208.070643 317.076875)scale(0.2 -0.2)">
       <use xlink:href="#DejaVuSans-34"/>
      </g>
     </g>
    </g>
    <g id="xtick_4">
     <g id="line2d_11">
      <path clip-path="url(#p55b1f4a6a4)" d="M 293.589714 294.88 
L 293.589714 24.84 
" style="fill:none;stroke:#b0b0b0;stroke-linecap:square;stroke-width:0.8;"/>
     </g>
     <g id="line2d_12">
      <g>
       <use style="stroke:#000000;stroke-width:0.8;" x="293.589714" xlink:href="#mce00cb9ea9" y="294.88"/>
      </g>
     </g>
     <g id="text_4">
      <!-- 6 -->
      <defs>
       <path d="M 33.015625 40.375 
Q 26.375 40.375 22.484375 35.828125 
Q 18.609375 31.296875 18.609375 23.390625 
Q 18.609375 15.53125 22.484375 10.953125 
Q 26.375 6.390625 33.015625 6.390625 
Q 39.65625 6.390625 43.53125 10.953125 
Q 47.40625 15.53125 47.40625 23.390625 
Q 47.40625 31.296875 43.53125 35.828125 
Q 39.65625 40.375 33.015625 40.375 
z
M 52.59375 71.296875 
L 52.59375 62.3125 
Q 48.875 64.0625 45.09375 64.984375 
Q 41.3125 65.921875 37.59375 65.921875 
Q 27.828125 65.921875 22.671875 59.328125 
Q 17.53125 52.734375 16.796875 39.40625 
Q 19.671875 43.65625 24.015625 45.921875 
Q 28.375 48.1875 33.59375 48.1875 
Q 44.578125 48.1875 50.953125 41.515625 
Q 57.328125 34.859375 57.328125 23.390625 
Q 57.328125 12.15625 50.6875 5.359375 
Q 44.046875 -1.421875 33.015625 -1.421875 
Q 20.359375 -1.421875 13.671875 8.265625 
Q 6.984375 17.96875 6.984375 36.375 
Q 6.984375 53.65625 15.1875 63.9375 
Q 23.390625 74.21875 37.203125 74.21875 
Q 40.921875 74.21875 44.703125 73.484375 
Q 48.484375 72.75 52.59375 71.296875 
z
" id="DejaVuSans-36"/>
      </defs>
      <g transform="translate(287.227214 317.076875)scale(0.2 -0.2)">
       <use xlink:href="#DejaVuSans-36"/>
      </g>
     </g>
    </g>
    <g id="xtick_5">
     <g id="line2d_13">
      <path clip-path="url(#p55b1f4a6a4)" d="M 56.12 294.88 
L 56.12 24.84 
" style="fill:none;stroke:#b0b0b0;stroke-linecap:square;stroke-width:0.8;"/>
     </g>
     <g id="line2d_14">
      <defs>
       <path d="M 0 0 
L 0 2 
" id="me43b26c14d" style="stroke:#000000;stroke-width:0.6;"/>
      </defs>
      <g>
       <use style="stroke:#000000;stroke-width:0.6;" x="56.12" xlink:href="#me43b26c14d" y="294.88"/>
      </g>
     </g>
    </g>
    <g id="xtick_6">
     <g id="line2d_15">
      <path clip-path="url(#p55b1f4a6a4)" d="M 95.698286 294.88 
L 95.698286 24.84 
" style="fill:none;stroke:#b0b0b0;stroke-linecap:square;stroke-width:0.8;"/>
     </g>
     <g id="line2d_16">
      <g>
       <use style="stroke:#000000;stroke-width:0.6;" x="95.698286" xlink:href="#me43b26c14d" y="294.88"/>
      </g>
     </g>
    </g>
    <g id="xtick_7">
     <g id="line2d_17">
      <path clip-path="url(#p55b1f4a6a4)" d="M 135.276571 294.88 
L 135.276571 24.84 
" style="fill:none;stroke:#b0b0b0;stroke-linecap:square;stroke-width:0.8;"/>
     </g>
     <g id="line2d_18">
      <g>
       <use style="stroke:#000000;stroke-width:0.6;" x="135.276571" xlink:href="#me43b26c14d" y="294.88"/>
      </g>
     </g>
    </g>
    <g id="xtick_8">
     <g id="line2d_19">
      <path clip-path="url(#p55b1f4a6a4)" d="M 174.854857 294.88 
L 174.854857 24.84 
" style="fill:none;stroke:#b0b0b0;stroke-linecap:square;stroke-width:0.8;"/>
     </g>
     <g id="line2d_20">
      <g>
       <use style="stroke:#000000;stroke-width:0.6;" x="174.854857" xlink:href="#me43b26c14d" y="294.88"/>
      </g>
     </g>
    </g>
    <g id="xtick_9">
     <g id="line2d_21">
      <path clip-path="url(#p55b1f4a6a4)" d="M 214.433143 294.88 
L 214.433143 24.84 
" style="fill:none;stroke:#b0b0b0;stroke-linecap:square;stroke-width:0.8;"/>
     </g>
     <g id="line2d_22">
      <g>
       <use style="stroke:#000000;stroke-width:0.6;" x="214.433143" xlink:href="#me43b26c14d" y="294.88"/>
      </g>
     </g>
    </g>
    <g id="xtick_10">
     <g id="line2d_23">
      <path clip-path="url(#p55b1f4a6a4)" d="M 254.011429 294.88 
L 254.011429 24.84 
" style="fill:none;stroke:#b0b0b0;stroke-linecap:square;stroke-width:0.8;"/>
     </g>
     <g id="line2d_24">
      <g>
       <use style="stroke:#000000;stroke-width:0.6;" x="254.011429" xlink:href="#me43b26c14d" y="294.88"/>
      </g>
     </g>
    </g>
    <g id="xtick_11">
     <g id="line2d_25">
      <path clip-path="url(#p55b1f4a6a4)" d="M 293.589714 294.88 
L 293.589714 24.84 
" style="fill:none;stroke:#b0b0b0;stroke-linecap:square;stroke-width:0.8;"/>
     </g>
     <g id="line2d_26">
      <g>
       <use style="stroke:#000000;stroke-width:0.6;" x="293.589714" xlink:href="#me43b26c14d" y="294.88"/>
      </g>
     </g>
    </g>
    <g id="xtick_12">
     <g id="line2d_27">
      <path clip-path="url(#p55b1f4a6a4)" d="M 333.168 294.88 
L 333.168 24.84 
" style="fill:none;stroke:#b0b0b0;stroke-linecap:square;stroke-width:0.8;"/>
     </g>
     <g id="line2d_28">
      <g>
       <use style="stroke:#000000;stroke-width:0.6;" x="333.168" xlink:href="#me43b26c14d" y="294.88"/>
      </g>
     </g>
    </g>
    <g id="text_5">
     <!-- log10(# f-evals / dimension) -->
     <defs>
      <path d="M 9.421875 75.984375 
L 18.40625 75.984375 
L 18.40625 0 
L 9.421875 0 
z
" id="DejaVuSans-6c"/>
      <path d="M 30.609375 48.390625 
Q 23.390625 48.390625 19.1875 42.75 
Q 14.984375 37.109375 14.984375 27.296875 
Q 14.984375 17.484375 19.15625 11.84375 
Q 23.34375 6.203125 30.609375 6.203125 
Q 37.796875 6.203125 41.984375 11.859375 
Q 46.1875 17.53125 46.1875 27.296875 
Q 46.1875 37.015625 41.984375 42.703125 
Q 37.796875 48.390625 30.609375 48.390625 
z
M 30.609375 56 
Q 42.328125 56 49.015625 48.375 
Q 55.71875 40.765625 55.71875 27.296875 
Q 55.71875 13.875 49.015625 6.21875 
Q 42.328125 -1.421875 30.609375 -1.421875 
Q 18.84375 -1.421875 12.171875 6.21875 
Q 5.515625 13.875 5.515625 27.296875 
Q 5.515625 40.765625 12.171875 48.375 
Q 18.84375 56 30.609375 56 
z
" id="DejaVuSans-6f"/>
      <path d="M 45.40625 27.984375 
Q 45.40625 37.75 41.375 43.109375 
Q 37.359375 48.484375 30.078125 48.484375 
Q 22.859375 48.484375 18.828125 43.109375 
Q 14.796875 37.75 14.796875 27.984375 
Q 14.796875 18.265625 18.828125 12.890625 
Q 22.859375 7.515625 30.078125 7.515625 
Q 37.359375 7.515625 41.375 12.890625 
Q 45.40625 18.265625 45.40625 27.984375 
z
M 54.390625 6.78125 
Q 54.390625 -7.171875 48.1875 -13.984375 
Q 42 -20.796875 29.203125 -20.796875 
Q 24.46875 -20.796875 20.265625 -20.09375 
Q 16.0625 -19.390625 12.109375 -17.921875 
L 12.109375 -9.1875 
Q 16.0625 -11.328125 19.921875 -12.34375 
Q 23.78125 -13.375 27.78125 -13.375 
Q 36.625 -13.375 41.015625 -8.765625 
Q 45.40625 -4.15625 45.40625 5.171875 
L 45.40625 9.625 
Q 42.625 4.78125 38.28125 2.390625 
Q 33.9375 0 27.875 0 
Q 17.828125 0 11.671875 7.65625 
Q 5.515625 15.328125 5.515625 27.984375 
Q 5.515625 40.671875 11.671875 48.328125 
Q 17.828125 56 27.875 56 
Q 33.9375 56 38.28125 53.609375 
Q 42.625 51.21875 45.40625 46.390625 
L 45.40625 54.6875 
L 54.390625 54.6875 
z
" id="DejaVuSans-67"/>
      <path d="M 12.40625 8.296875 
L 28.515625 8.296875 
L 28.515625 63.921875 
L 10.984375 60.40625 
L 10.984375 69.390625 
L 28.421875 72.90625 
L 38.28125 72.90625 
L 38.28125 8.296875 
L 54.390625 8.296875 
L 54.390625 0 
L 12.40625 0 
z
" id="DejaVuSans-31"/>
      <path d="M 31 75.875 
Q 24.46875 64.65625 21.28125 53.65625 
Q 18.109375 42.671875 18.109375 31.390625 
Q 18.109375 20.125 21.3125 9.0625 
Q 24.515625 -2 31 -13.1875 
L 23.1875 -13.1875 
Q 15.875 -1.703125 12.234375 9.375 
Q 8.59375 20.453125 8.59375 31.390625 
Q 8.59375 42.28125 12.203125 53.3125 
Q 15.828125 64.359375 23.1875 75.875 
z
" id="DejaVuSans-28"/>
      <path d="M 51.125 44 
L 36.921875 44 
L 32.8125 27.6875 
L 47.125 27.6875 
z
M 43.796875 71.78125 
L 38.71875 51.515625 
L 52.984375 51.515625 
L 58.109375 71.78125 
L 65.921875 71.78125 
L 60.890625 51.515625 
L 76.125 51.515625 
L 76.125 44 
L 58.984375 44 
L 54.984375 27.6875 
L 70.515625 27.6875 
L 70.515625 20.21875 
L 53.078125 20.21875 
L 48 0 
L 40.1875 0 
L 45.21875 20.21875 
L 30.90625 20.21875 
L 25.875 0 
L 18.015625 0 
L 23.09375 20.21875 
L 7.71875 20.21875 
L 7.71875 27.6875 
L 24.90625 27.6875 
L 29 44 
L 13.28125 44 
L 13.28125 51.515625 
L 30.90625 51.515625 
L 35.890625 71.78125 
z
" id="DejaVuSans-23"/>
      <path id="DejaVuSans-20"/>
      <path d="M 37.109375 75.984375 
L 37.109375 68.5 
L 28.515625 68.5 
Q 23.6875 68.5 21.796875 66.546875 
Q 19.921875 64.59375 19.921875 59.515625 
L 19.921875 54.6875 
L 34.71875 54.6875 
L 34.71875 47.703125 
L 19.921875 47.703125 
L 19.921875 0 
L 10.890625 0 
L 10.890625 47.703125 
L 2.296875 47.703125 
L 2.296875 54.6875 
L 10.890625 54.6875 
L 10.890625 58.5 
Q 10.890625 67.625 15.140625 71.796875 
Q 19.390625 75.984375 28.609375 75.984375 
z
" id="DejaVuSans-66"/>
      <path d="M 4.890625 31.390625 
L 31.203125 31.390625 
L 31.203125 23.390625 
L 4.890625 23.390625 
z
" id="DejaVuSans-2d"/>
      <path d="M 56.203125 29.59375 
L 56.203125 25.203125 
L 14.890625 25.203125 
Q 15.484375 15.921875 20.484375 11.0625 
Q 25.484375 6.203125 34.421875 6.203125 
Q 39.59375 6.203125 44.453125 7.46875 
Q 49.3125 8.734375 54.109375 11.28125 
L 54.109375 2.78125 
Q 49.265625 0.734375 44.1875 -0.34375 
Q 39.109375 -1.421875 33.890625 -1.421875 
Q 20.796875 -1.421875 13.15625 6.1875 
Q 5.515625 13.8125 5.515625 26.8125 
Q 5.515625 40.234375 12.765625 48.109375 
Q 20.015625 56 32.328125 56 
Q 43.359375 56 49.78125 48.890625 
Q 56.203125 41.796875 56.203125 29.59375 
z
M 47.21875 32.234375 
Q 47.125 39.59375 43.09375 43.984375 
Q 39.0625 48.390625 32.421875 48.390625 
Q 24.90625 48.390625 20.390625 44.140625 
Q 15.875 39.890625 15.1875 32.171875 
z
" id="DejaVuSans-65"/>
      <path d="M 2.984375 54.6875 
L 12.5 54.6875 
L 29.59375 8.796875 
L 46.6875 54.6875 
L 56.203125 54.6875 
L 35.6875 0 
L 23.484375 0 
z
" id="DejaVuSans-76"/>
      <path d="M 34.28125 27.484375 
Q 23.390625 27.484375 19.1875 25 
Q 14.984375 22.515625 14.984375 16.5 
Q 14.984375 11.71875 18.140625 8.90625 
Q 21.296875 6.109375 26.703125 6.109375 
Q 34.1875 6.109375 38.703125 11.40625 
Q 43.21875 16.703125 43.21875 25.484375 
L 43.21875 27.484375 
z
M 52.203125 31.203125 
L 52.203125 0 
L 43.21875 0 
L 43.21875 8.296875 
Q 40.140625 3.328125 35.546875 0.953125 
Q 30.953125 -1.421875 24.3125 -1.421875 
Q 15.921875 -1.421875 10.953125 3.296875 
Q 6 8.015625 6 15.921875 
Q 6 25.140625 12.171875 29.828125 
Q 18.359375 34.515625 30.609375 34.515625 
L 43.21875 34.515625 
L 43.21875 35.40625 
Q 43.21875 41.609375 39.140625 45 
Q 35.0625 48.390625 27.6875 48.390625 
Q 23 48.390625 18.546875 47.265625 
Q 14.109375 46.140625 10.015625 43.890625 
L 10.015625 52.203125 
Q 14.9375 54.109375 19.578125 55.046875 
Q 24.21875 56 28.609375 56 
Q 40.484375 56 46.34375 49.84375 
Q 52.203125 43.703125 52.203125 31.203125 
z
" id="DejaVuSans-61"/>
      <path d="M 44.28125 53.078125 
L 44.28125 44.578125 
Q 40.484375 46.53125 36.375 47.5 
Q 32.28125 48.484375 27.875 48.484375 
Q 21.1875 48.484375 17.84375 46.4375 
Q 14.5 44.390625 14.5 40.28125 
Q 14.5 37.15625 16.890625 35.375 
Q 19.28125 33.59375 26.515625 31.984375 
L 29.59375 31.296875 
Q 39.15625 29.25 43.1875 25.515625 
Q 47.21875 21.78125 47.21875 15.09375 
Q 47.21875 7.46875 41.1875 3.015625 
Q 35.15625 -1.421875 24.609375 -1.421875 
Q 20.21875 -1.421875 15.453125 -0.5625 
Q 10.6875 0.296875 5.421875 2 
L 5.421875 11.28125 
Q 10.40625 8.6875 15.234375 7.390625 
Q 20.0625 6.109375 24.8125 6.109375 
Q 31.15625 6.109375 34.5625 8.28125 
Q 37.984375 10.453125 37.984375 14.40625 
Q 37.984375 18.0625 35.515625 20.015625 
Q 33.0625 21.96875 24.703125 23.78125 
L 21.578125 24.515625 
Q 13.234375 26.265625 9.515625 29.90625 
Q 5.8125 33.546875 5.8125 39.890625 
Q 5.8125 47.609375 11.28125 51.796875 
Q 16.75 56 26.8125 56 
Q 31.78125 56 36.171875 55.265625 
Q 40.578125 54.546875 44.28125 53.078125 
z
" id="DejaVuSans-73"/>
      <path d="M 25.390625 72.90625 
L 33.6875 72.90625 
L 8.296875 -9.28125 
L 0 -9.28125 
z
" id="DejaVuSans-2f"/>
      <path d="M 45.40625 46.390625 
L 45.40625 75.984375 
L 54.390625 75.984375 
L 54.390625 0 
L 45.40625 0 
L 45.40625 8.203125 
Q 42.578125 3.328125 38.25 0.953125 
Q 33.9375 -1.421875 27.875 -1.421875 
Q 17.96875 -1.421875 11.734375 6.484375 
Q 5.515625 14.40625 5.515625 27.296875 
Q 5.515625 40.1875 11.734375 48.09375 
Q 17.96875 56 27.875 56 
Q 33.9375 56 38.25 53.625 
Q 42.578125 51.265625 45.40625 46.390625 
z
M 14.796875 27.296875 
Q 14.796875 17.390625 18.875 11.75 
Q 22.953125 6.109375 30.078125 6.109375 
Q 37.203125 6.109375 41.296875 11.75 
Q 45.40625 17.390625 45.40625 27.296875 
Q 45.40625 37.203125 41.296875 42.84375 
Q 37.203125 48.484375 30.078125 48.484375 
Q 22.953125 48.484375 18.875 42.84375 
Q 14.796875 37.203125 14.796875 27.296875 
z
" id="DejaVuSans-64"/>
      <path d="M 9.421875 54.6875 
L 18.40625 54.6875 
L 18.40625 0 
L 9.421875 0 
z
M 9.421875 75.984375 
L 18.40625 75.984375 
L 18.40625 64.59375 
L 9.421875 64.59375 
z
" id="DejaVuSans-69"/>
      <path d="M 52 44.1875 
Q 55.375 50.25 60.0625 53.125 
Q 64.75 56 71.09375 56 
Q 79.640625 56 84.28125 50.015625 
Q 88.921875 44.046875 88.921875 33.015625 
L 88.921875 0 
L 79.890625 0 
L 79.890625 32.71875 
Q 79.890625 40.578125 77.09375 44.375 
Q 74.3125 48.1875 68.609375 48.1875 
Q 61.625 48.1875 57.5625 43.546875 
Q 53.515625 38.921875 53.515625 30.90625 
L 53.515625 0 
L 44.484375 0 
L 44.484375 32.71875 
Q 44.484375 40.625 41.703125 44.40625 
Q 38.921875 48.1875 33.109375 48.1875 
Q 26.21875 48.1875 22.15625 43.53125 
Q 18.109375 38.875 18.109375 30.90625 
L 18.109375 0 
L 9.078125 0 
L 9.078125 54.6875 
L 18.109375 54.6875 
L 18.109375 46.1875 
Q 21.1875 51.21875 25.484375 53.609375 
Q 29.78125 56 35.6875 56 
Q 41.65625 56 45.828125 52.96875 
Q 50 49.953125 52 44.1875 
z
" id="DejaVuSans-6d"/>
      <path d="M 54.890625 33.015625 
L 54.890625 0 
L 45.90625 0 
L 45.90625 32.71875 
Q 45.90625 40.484375 42.875 44.328125 
Q 39.84375 48.1875 33.796875 48.1875 
Q 26.515625 48.1875 22.3125 43.546875 
Q 18.109375 38.921875 18.109375 30.90625 
L 18.109375 0 
L 9.078125 0 
L 9.078125 54.6875 
L 18.109375 54.6875 
L 18.109375 46.1875 
Q 21.34375 51.125 25.703125 53.5625 
Q 30.078125 56 35.796875 56 
Q 45.21875 56 50.046875 50.171875 
Q 54.890625 44.34375 54.890625 33.015625 
z
" id="DejaVuSans-6e"/>
      <path d="M 8.015625 75.875 
L 15.828125 75.875 
Q 23.140625 64.359375 26.78125 53.3125 
Q 30.421875 42.28125 30.421875 31.390625 
Q 30.421875 20.453125 26.78125 9.375 
Q 23.140625 -1.703125 15.828125 -13.1875 
L 8.015625 -13.1875 
Q 14.5 -2 17.703125 9.0625 
Q 20.90625 20.125 20.90625 31.390625 
Q 20.90625 42.671875 17.703125 53.65625 
Q 14.5 64.65625 8.015625 75.875 
z
" id="DejaVuSans-29"/>
     </defs>
     <g transform="translate(73.803219 338.153594)scale(0.17 -0.17)">
      <use xlink:href="#DejaVuSans-6c"/>
      <use x="27.783203" xlink:href="#DejaVuSans-6f"/>
      <use x="88.964844" xlink:href="#DejaVuSans-67"/>
      <use x="152.441406" xlink:href="#DejaVuSans-31"/>
      <use x="216.064453" xlink:href="#DejaVuSans-30"/>
      <use x="279.6875" xlink:href="#DejaVuSans-28"/>
      <use x="318.701172" xlink:href="#DejaVuSans-23"/>
      <use x="402.490234" xlink:href="#DejaVuSans-20"/>
      <use x="434.277344" xlink:href="#DejaVuSans-66"/>
      <use x="469.404297" xlink:href="#DejaVuSans-2d"/>
      <use x="505.488281" xlink:href="#DejaVuSans-65"/>
      <use x="567.011719" xlink:href="#DejaVuSans-76"/>
      <use x="626.191406" xlink:href="#DejaVuSans-61"/>
      <use x="687.470703" xlink:href="#DejaVuSans-6c"/>
      <use x="715.253906" xlink:href="#DejaVuSans-73"/>
      <use x="767.353516" xlink:href="#DejaVuSans-20"/>
      <use x="799.140625" xlink:href="#DejaVuSans-2f"/>
      <use x="832.832031" xlink:href="#DejaVuSans-20"/>
      <use x="864.619141" xlink:href="#DejaVuSans-64"/>
      <use x="928.095703" xlink:href="#DejaVuSans-69"/>
      <use x="955.878906" xlink:href="#DejaVuSans-6d"/>
      <use x="1053.291016" xlink:href="#DejaVuSans-65"/>
      <use x="1114.814453" xlink:href="#DejaVuSans-6e"/>
      <use x="1178.193359" xlink:href="#DejaVuSans-73"/>
      <use x="1230.292969" xlink:href="#DejaVuSans-69"/>
      <use x="1258.076172" xlink:href="#DejaVuSans-6f"/>
      <use x="1319.257812" xlink:href="#DejaVuSans-6e"/>
      <use x="1382.636719" xlink:href="#DejaVuSans-29"/>
     </g>
    </g>
   </g>
   <g id="matplotlib.axis_2">
    <g id="ytick_1">
     <g id="line2d_29">
      <path clip-path="url(#p55b1f4a6a4)" d="M 56.12 294.88 
L 333.168 294.88 
" style="fill:none;stroke:#b0b0b0;stroke-linecap:square;stroke-width:0.8;"/>
     </g>
     <g id="line2d_30">
      <defs>
       <path d="M 0 0 
L -3.5 0 
" id="ma0af77dcb6" style="stroke:#000000;stroke-width:0.8;"/>
      </defs>
      <g>
       <use style="stroke:#000000;stroke-width:0.8;" x="56.12" xlink:href="#ma0af77dcb6" y="294.88"/>
      </g>
     </g>
     <g id="text_6">
      <!-- 0.0 -->
      <defs>
       <path d="M 10.6875 12.40625 
L 21 12.40625 
L 21 0 
L 10.6875 0 
z
" id="DejaVuSans-2e"/>
      </defs>
      <g transform="translate(23.675 300.95875)scale(0.16 -0.16)">
       <use xlink:href="#DejaVuSans-30"/>
       <use x="63.623047" xlink:href="#DejaVuSans-2e"/>
       <use x="95.410156" xlink:href="#DejaVuSans-30"/>
      </g>
     </g>
    </g>
    <g id="ytick_2">
     <g id="line2d_31">
      <path clip-path="url(#p55b1f4a6a4)" d="M 56.12 241.406733 
L 333.168 241.406733 
" style="fill:none;stroke:#b0b0b0;stroke-linecap:square;stroke-width:0.8;"/>
     </g>
     <g id="line2d_32">
      <g>
       <use style="stroke:#000000;stroke-width:0.8;" x="56.12" xlink:href="#ma0af77dcb6" y="241.406733"/>
      </g>
     </g>
     <g id="text_7">
      <!-- 0.2 -->
      <g transform="translate(23.675 247.485483)scale(0.16 -0.16)">
       <use xlink:href="#DejaVuSans-30"/>
       <use x="63.623047" xlink:href="#DejaVuSans-2e"/>
       <use x="95.410156" xlink:href="#DejaVuSans-32"/>
      </g>
     </g>
    </g>
    <g id="ytick_3">
     <g id="line2d_33">
      <path clip-path="url(#p55b1f4a6a4)" d="M 56.12 187.933465 
L 333.168 187.933465 
" style="fill:none;stroke:#b0b0b0;stroke-linecap:square;stroke-width:0.8;"/>
     </g>
     <g id="line2d_34">
      <g>
       <use style="stroke:#000000;stroke-width:0.8;" x="56.12" xlink:href="#ma0af77dcb6" y="187.933465"/>
      </g>
     </g>
     <g id="text_8">
      <!-- 0.4 -->
      <g transform="translate(23.675 194.012215)scale(0.16 -0.16)">
       <use xlink:href="#DejaVuSans-30"/>
       <use x="63.623047" xlink:href="#DejaVuSans-2e"/>
       <use x="95.410156" xlink:href="#DejaVuSans-34"/>
      </g>
     </g>
    </g>
    <g id="ytick_4">
     <g id="line2d_35">
      <path clip-path="url(#p55b1f4a6a4)" d="M 56.12 134.460198 
L 333.168 134.460198 
" style="fill:none;stroke:#b0b0b0;stroke-linecap:square;stroke-width:0.8;"/>
     </g>
     <g id="line2d_36">
      <g>
       <use style="stroke:#000000;stroke-width:0.8;" x="56.12" xlink:href="#ma0af77dcb6" y="134.460198"/>
      </g>
     </g>
     <g id="text_9">
      <!-- 0.6 -->
      <g transform="translate(23.675 140.538948)scale(0.16 -0.16)">
       <use xlink:href="#DejaVuSans-30"/>
       <use x="63.623047" xlink:href="#DejaVuSans-2e"/>
       <use x="95.410156" xlink:href="#DejaVuSans-36"/>
      </g>
     </g>
    </g>
    <g id="ytick_5">
     <g id="line2d_37">
      <path clip-path="url(#p55b1f4a6a4)" d="M 56.12 80.986931 
L 333.168 80.986931 
" style="fill:none;stroke:#b0b0b0;stroke-linecap:square;stroke-width:0.8;"/>
     </g>
     <g id="line2d_38">
      <g>
       <use style="stroke:#000000;stroke-width:0.8;" x="56.12" xlink:href="#ma0af77dcb6" y="80.986931"/>
      </g>
     </g>
     <g id="text_10">
      <!-- 0.8 -->
      <defs>
       <path d="M 31.78125 34.625 
Q 24.75 34.625 20.71875 30.859375 
Q 16.703125 27.09375 16.703125 20.515625 
Q 16.703125 13.921875 20.71875 10.15625 
Q 24.75 6.390625 31.78125 6.390625 
Q 38.8125 6.390625 42.859375 10.171875 
Q 46.921875 13.96875 46.921875 20.515625 
Q 46.921875 27.09375 42.890625 30.859375 
Q 38.875 34.625 31.78125 34.625 
z
M 21.921875 38.8125 
Q 15.578125 40.375 12.03125 44.71875 
Q 8.5 49.078125 8.5 55.328125 
Q 8.5 64.0625 14.71875 69.140625 
Q 20.953125 74.21875 31.78125 74.21875 
Q 42.671875 74.21875 48.875 69.140625 
Q 55.078125 64.0625 55.078125 55.328125 
Q 55.078125 49.078125 51.53125 44.71875 
Q 48 40.375 41.703125 38.8125 
Q 48.828125 37.15625 52.796875 32.3125 
Q 56.78125 27.484375 56.78125 20.515625 
Q 56.78125 9.90625 50.3125 4.234375 
Q 43.84375 -1.421875 31.78125 -1.421875 
Q 19.734375 -1.421875 13.25 4.234375 
Q 6.78125 9.90625 6.78125 20.515625 
Q 6.78125 27.484375 10.78125 32.3125 
Q 14.796875 37.15625 21.921875 38.8125 
z
M 18.3125 54.390625 
Q 18.3125 48.734375 21.84375 45.5625 
Q 25.390625 42.390625 31.78125 42.390625 
Q 38.140625 42.390625 41.71875 45.5625 
Q 45.3125 48.734375 45.3125 54.390625 
Q 45.3125 60.0625 41.71875 63.234375 
Q 38.140625 66.40625 31.78125 66.40625 
Q 25.390625 66.40625 21.84375 63.234375 
Q 18.3125 60.0625 18.3125 54.390625 
z
" id="DejaVuSans-38"/>
      </defs>
      <g transform="translate(23.675 87.065681)scale(0.16 -0.16)">
       <use xlink:href="#DejaVuSans-30"/>
       <use x="63.623047" xlink:href="#DejaVuSans-2e"/>
       <use x="95.410156" xlink:href="#DejaVuSans-38"/>
      </g>
     </g>
    </g>
    <g id="ytick_6">
     <g id="line2d_39">
      <path clip-path="url(#p55b1f4a6a4)" d="M 56.12 27.513663 
L 333.168 27.513663 
" style="fill:none;stroke:#b0b0b0;stroke-linecap:square;stroke-width:0.8;"/>
     </g>
     <g id="line2d_40">
      <g>
       <use style="stroke:#000000;stroke-width:0.8;" x="56.12" xlink:href="#ma0af77dcb6" y="27.513663"/>
      </g>
     </g>
     <g id="text_11">
      <!-- 1.0 -->
      <g transform="translate(23.675 33.592413)scale(0.16 -0.16)">
       <use xlink:href="#DejaVuSans-31"/>
       <use x="63.623047" xlink:href="#DejaVuSans-2e"/>
       <use x="95.410156" xlink:href="#DejaVuSans-30"/>
      </g>
     </g>
    </g>
    <g id="text_12">
     <!-- Fraction of function,target pairs -->
     <defs>
      <path d="M 9.8125 72.90625 
L 51.703125 72.90625 
L 51.703125 64.59375 
L 19.671875 64.59375 
L 19.671875 43.109375 
L 48.578125 43.109375 
L 48.578125 34.8125 
L 19.671875 34.8125 
L 19.671875 0 
L 9.8125 0 
z
" id="DejaVuSans-46"/>
      <path d="M 41.109375 46.296875 
Q 39.59375 47.171875 37.8125 47.578125 
Q 36.03125 48 33.890625 48 
Q 26.265625 48 22.1875 43.046875 
Q 18.109375 38.09375 18.109375 28.8125 
L 18.109375 0 
L 9.078125 0 
L 9.078125 54.6875 
L 18.109375 54.6875 
L 18.109375 46.1875 
Q 20.953125 51.171875 25.484375 53.578125 
Q 30.03125 56 36.53125 56 
Q 37.453125 56 38.578125 55.875 
Q 39.703125 55.765625 41.0625 55.515625 
z
" id="DejaVuSans-72"/>
      <path d="M 48.78125 52.59375 
L 48.78125 44.1875 
Q 44.96875 46.296875 41.140625 47.34375 
Q 37.3125 48.390625 33.40625 48.390625 
Q 24.65625 48.390625 19.8125 42.84375 
Q 14.984375 37.3125 14.984375 27.296875 
Q 14.984375 17.28125 19.8125 11.734375 
Q 24.65625 6.203125 33.40625 6.203125 
Q 37.3125 6.203125 41.140625 7.25 
Q 44.96875 8.296875 48.78125 10.40625 
L 48.78125 2.09375 
Q 45.015625 0.34375 40.984375 -0.53125 
Q 36.96875 -1.421875 32.421875 -1.421875 
Q 20.0625 -1.421875 12.78125 6.34375 
Q 5.515625 14.109375 5.515625 27.296875 
Q 5.515625 40.671875 12.859375 48.328125 
Q 20.21875 56 33.015625 56 
Q 37.15625 56 41.109375 55.140625 
Q 45.0625 54.296875 48.78125 52.59375 
z
" id="DejaVuSans-63"/>
      <path d="M 18.3125 70.21875 
L 18.3125 54.6875 
L 36.8125 54.6875 
L 36.8125 47.703125 
L 18.3125 47.703125 
L 18.3125 18.015625 
Q 18.3125 11.328125 20.140625 9.421875 
Q 21.96875 7.515625 27.59375 7.515625 
L 36.8125 7.515625 
L 36.8125 0 
L 27.59375 0 
Q 17.1875 0 13.234375 3.875 
Q 9.28125 7.765625 9.28125 18.015625 
L 9.28125 47.703125 
L 2.6875 47.703125 
L 2.6875 54.6875 
L 9.28125 54.6875 
L 9.28125 70.21875 
z
" id="DejaVuSans-74"/>
      <path d="M 8.5 21.578125 
L 8.5 54.6875 
L 17.484375 54.6875 
L 17.484375 21.921875 
Q 17.484375 14.15625 20.5 10.265625 
Q 23.53125 6.390625 29.59375 6.390625 
Q 36.859375 6.390625 41.078125 11.03125 
Q 45.3125 15.671875 45.3125 23.6875 
L 45.3125 54.6875 
L 54.296875 54.6875 
L 54.296875 0 
L 45.3125 0 
L 45.3125 8.40625 
Q 42.046875 3.421875 37.71875 1 
Q 33.40625 -1.421875 27.6875 -1.421875 
Q 18.265625 -1.421875 13.375 4.4375 
Q 8.5 10.296875 8.5 21.578125 
z
M 31.109375 56 
z
" id="DejaVuSans-75"/>
      <path d="M 11.71875 12.40625 
L 22.015625 12.40625 
L 22.015625 4 
L 14.015625 -11.625 
L 7.71875 -11.625 
L 11.71875 4 
z
" id="DejaVuSans-2c"/>
      <path d="M 18.109375 8.203125 
L 18.109375 -20.796875 
L 9.078125 -20.796875 
L 9.078125 54.6875 
L 18.109375 54.6875 
L 18.109375 46.390625 
Q 20.953125 51.265625 25.265625 53.625 
Q 29.59375 56 35.59375 56 
Q 45.5625 56 51.78125 48.09375 
Q 58.015625 40.1875 58.015625 27.296875 
Q 58.015625 14.40625 51.78125 6.484375 
Q 45.5625 -1.421875 35.59375 -1.421875 
Q 29.59375 -1.421875 25.265625 0.953125 
Q 20.953125 3.328125 18.109375 8.203125 
z
M 48.6875 27.296875 
Q 48.6875 37.203125 44.609375 42.84375 
Q 40.53125 48.484375 33.40625 48.484375 
Q 26.265625 48.484375 22.1875 42.84375 
Q 18.109375 37.203125 18.109375 27.296875 
Q 18.109375 17.390625 22.1875 11.75 
Q 26.265625 6.109375 33.40625 6.109375 
Q 40.53125 6.109375 44.609375 11.75 
Q 48.6875 17.390625 48.6875 27.296875 
z
" id="DejaVuSans-70"/>
     </defs>
     <g transform="translate(16.139531 294.999375)rotate(-90)scale(0.17 -0.17)">
      <use xlink:href="#DejaVuSans-46"/>
      <use x="57.410156" xlink:href="#DejaVuSans-72"/>
      <use x="98.523438" xlink:href="#DejaVuSans-61"/>
      <use x="159.802734" xlink:href="#DejaVuSans-63"/>
      <use x="214.783203" xlink:href="#DejaVuSans-74"/>
      <use x="253.992188" xlink:href="#DejaVuSans-69"/>
      <use x="281.775391" xlink:href="#DejaVuSans-6f"/>
      <use x="342.957031" xlink:href="#DejaVuSans-6e"/>
      <use x="406.335938" xlink:href="#DejaVuSans-20"/>
      <use x="438.123047" xlink:href="#DejaVuSans-6f"/>
      <use x="499.304688" xlink:href="#DejaVuSans-66"/>
      <use x="534.509766" xlink:href="#DejaVuSans-20"/>
      <use x="566.296875" xlink:href="#DejaVuSans-66"/>
      <use x="601.501953" xlink:href="#DejaVuSans-75"/>
      <use x="664.880859" xlink:href="#DejaVuSans-6e"/>
      <use x="728.259766" xlink:href="#DejaVuSans-63"/>
      <use x="783.240234" xlink:href="#DejaVuSans-74"/>
      <use x="822.449219" xlink:href="#DejaVuSans-69"/>
      <use x="850.232422" xlink:href="#DejaVuSans-6f"/>
      <use x="911.414062" xlink:href="#DejaVuSans-6e"/>
      <use x="974.792969" xlink:href="#DejaVuSans-2c"/>
      <use x="1006.580078" xlink:href="#DejaVuSans-74"/>
      <use x="1045.789062" xlink:href="#DejaVuSans-61"/>
      <use x="1107.068359" xlink:href="#DejaVuSans-72"/>
      <use x="1148.166016" xlink:href="#DejaVuSans-67"/>
      <use x="1211.642578" xlink:href="#DejaVuSans-65"/>
      <use x="1273.166016" xlink:href="#DejaVuSans-74"/>
      <use x="1312.375" xlink:href="#DejaVuSans-20"/>
      <use x="1344.162109" xlink:href="#DejaVuSans-70"/>
      <use x="1407.638672" xlink:href="#DejaVuSans-61"/>
      <use x="1468.917969" xlink:href="#DejaVuSans-69"/>
      <use x="1496.701172" xlink:href="#DejaVuSans-72"/>
      <use x="1537.814453" xlink:href="#DejaVuSans-73"/>
     </g>
    </g>
   </g>
   <g id="line2d_41">
    <defs>
     <path d="M 0 1.5 
C 0.397805 1.5 0.77937 1.341951 1.06066 1.06066 
C 1.341951 0.77937 1.5 0.397805 1.5 0 
C 1.5 -0.397805 1.341951 -0.77937 1.06066 -1.06066 
C 0.77937 -1.341951 0.397805 -1.5 0 -1.5 
C -0.397805 -1.5 -0.77937 -1.341951 -1.06066 -1.06066 
C -1.341951 -0.77937 -1.5 -0.397805 -1.5 0 
C -1.5 0.397805 -1.341951 0.77937 -1.06066 1.06066 
C -0.77937 1.341951 -0.397805 1.5 0 1.5 
z
" id="m01458ce904" style="stroke:#f5deb3;"/>
    </defs>
    <g>
     <use style="fill:#f5deb3;stroke:#f5deb3;" x="153.248369" xlink:href="#m01458ce904" y="27.513663"/>
     <use style="fill:#f5deb3;stroke:#f5deb3;" x="153.248369" xlink:href="#m01458ce904" y="27.513663"/>
    </g>
   </g>
   <g id="line2d_42">
    <defs>
     <path d="M 0 1.5 
C 0.397805 1.5 0.77937 1.341951 1.06066 1.06066 
C 1.341951 0.77937 1.5 0.397805 1.5 0 
C 1.5 -0.397805 1.341951 -0.77937 1.06066 -1.06066 
C 0.77937 -1.341951 0.397805 -1.5 0 -1.5 
C -0.397805 -1.5 -0.77937 -1.341951 -1.06066 -1.06066 
C -1.341951 -0.77937 -1.5 -0.397805 -1.5 0 
C -1.5 0.397805 -1.341951 0.77937 -1.06066 1.06066 
C -0.77937 1.341951 -0.397805 1.5 0 1.5 
z
" id="m0025e8185c" style="stroke:#000080;"/>
    </defs>
    <g>
     <use style="fill:#000080;stroke:#000080;" x="237.752263" xlink:href="#m0025e8185c" y="231.970274"/>
     <use style="fill:#000080;stroke:#000080;" x="237.752263" xlink:href="#m0025e8185c" y="231.970274"/>
    </g>
   </g>
   <g id="line2d_43">
    <path d="M 44.205749 294.88 
L 44.205749 281.249559 
L 56.12 281.249559 
L 56.12 279.152568 
L 68.034251 279.152568 
L 68.034251 278.104073 
L 71.869783 278.104073 
L 71.869783 277.579825 
L 77.653281 277.579825 
L 77.653281 276.007082 
L 91.862754 276.007082 
L 91.862754 274.958587 
L 96.536922 274.958587 
L 96.536922 274.434339 
L 99.533818 274.434339 
L 99.533818 273.385844 
L 104.819059 273.385844 
L 104.819059 272.861596 
L 105.801534 272.861596 
L 105.801534 272.337348 
L 108.036969 272.337348 
L 108.036969 271.8131 
L 110.746395 271.8131 
L 110.746395 270.764605 
L 113.396034 270.764605 
L 113.396034 269.716109 
L 117.715785 269.716109 
L 117.715785 269.191862 
L 118.417459 269.191862 
L 118.417459 268.667614 
L 119.09161 268.667614 
L 119.09161 268.143366 
L 121.741249 268.143366 
L 121.741249 267.619119 
L 124.843597 267.619119 
L 124.843597 267.094871 
L 125.310285 267.094871 
L 125.310285 266.570623 
L 134.485139 266.570623 
L 134.485139 266.046375 
L 141.72241 266.046375 
L 141.72241 264.99788 
L 147.018071 264.99788 
L 147.018071 263.949385 
L 147.531203 263.949385 
L 147.531203 262.900889 
L 148.868095 262.900889 
L 148.868095 262.376641 
L 153.248369 262.376641 
L 153.338757 261.328146 
L 162.61088 261.328146 
L 162.61088 260.803898 
L 167.66055 260.803898 
L 167.66055 260.279651 
L 168.175218 260.279651 
L 168.175218 259.755403 
L 168.41439 259.755403 
L 168.426886 258.18266 
L 172.579268 258.18266 
L 172.579268 257.658412 
L 173.393594 257.658412 
L 173.393594 257.134164 
L 177.648765 257.134164 
L 177.648765 256.609917 
L 178.053052 256.609917 
L 178.053052 256.085669 
L 178.329095 256.085669 
L 178.329095 255.561421 
L 178.475918 255.561421 
L 178.586947 254.512926 
L 179.7114 254.512926 
L 179.7114 253.46443 
L 185.42441 253.46443 
L 185.42441 252.415935 
L 185.959668 252.415935 
L 185.959668 251.891687 
L 188.016198 251.891687 
L 188.016198 251.367439 
L 189.290584 251.367439 
L 189.290584 250.843192 
L 189.657719 250.843192 
L 189.730215 249.794696 
L 193.137987 249.794696 
L 193.206084 248.221953 
L 193.683981 248.221953 
L 193.752816 246.64921 
L 196.853247 246.64921 
L 196.853247 246.124962 
L 197.343307 246.124962 
L 197.410537 245.076467 
L 198.597201 245.076467 
L 198.597201 244.552219 
L 198.865025 244.552219 
L 198.865025 244.027971 
L 199.367836 244.027971 
L 199.367836 243.503724 
L 199.662611 243.503724 
L 199.662611 242.979476 
L 200.905374 242.979476 
L 200.905374 242.455228 
L 201.449852 242.455228 
L 201.449852 241.93098 
L 202.751082 241.93098 
L 202.751082 241.406733 
L 203.824231 241.406733 
L 203.824231 240.882485 
L 206.134382 240.882485 
L 206.134382 240.358237 
L 206.267574 240.358237 
L 206.267574 239.83399 
L 209.870179 239.83399 
L 209.870179 239.309742 
L 210.29524 239.309742 
L 210.29524 238.785494 
L 212.5839 238.785494 
L 212.5839 238.261246 
L 213.09402 238.261246 
L 213.09402 237.736999 
L 214.631383 237.736999 
L 214.631383 237.212751 
L 215.389242 237.212751 
L 215.389242 236.688503 
L 216.531615 236.688503 
L 216.531615 236.164255 
L 216.913007 236.164255 
L 216.913007 235.640008 
L 218.078552 235.640008 
L 218.078552 235.11576 
L 219.438059 235.11576 
L 219.438059 234.591512 
L 220.627292 234.591512 
L 220.627292 234.067265 
L 221.995507 234.067265 
L 221.995507 233.543017 
L 231.310186 233.543017 
L 231.310186 233.018769 
L 234.134945 233.018769 
L 234.134945 232.494521 
L 237.752263 232.494521 
L 237.752263 231.970274 
L 333.168 231.970274 
L 333.168 231.970274 
" style="fill:none;stroke:#000080;stroke-linecap:square;stroke-width:1.5;"/>
   </g>
   <g id="line2d_44">
    <defs>
     <path d="M 0 6 
C 1.591219 6 3.117479 5.367802 4.242641 4.242641 
C 5.367802 3.117479 6 1.591219 6 0 
C 6 -1.591219 5.367802 -3.117479 4.242641 -4.242641 
C 3.117479 -5.367802 1.591219 -6 0 -6 
C -1.591219 -6 -3.117479 -5.367802 -4.242641 -4.242641 
C -5.367802 -3.117479 -6 -1.591219 -6 0 
C -6 1.591219 -5.367802 3.117479 -4.242641 4.242641 
C -3.117479 5.367802 -1.591219 6 0 6 
z
" id="m3e8e90201b" style="stroke:#000080;stroke-width:1.5;"/>
    </defs>
    <g>
     <use style="fill:none;stroke:#000080;stroke-width:1.5;" x="77.653281" xlink:href="#m3e8e90201b" y="276.007082"/>
     <use style="fill:none;stroke:#000080;stroke-width:1.5;" x="134.485139" xlink:href="#m3e8e90201b" y="266.046375"/>
     <use style="fill:none;stroke:#000080;stroke-width:1.5;" x="202.751082" xlink:href="#m3e8e90201b" y="241.93098"/>
     <use style="fill:none;stroke:#000080;stroke-width:1.5;" x="237.752263" xlink:href="#m3e8e90201b" y="232.494521"/>
     <use style="fill:none;stroke:#000080;stroke-width:1.5;" x="237.752263" xlink:href="#m3e8e90201b" y="231.970274"/>
     <use style="fill:none;stroke:#000080;stroke-width:1.5;" x="333.168" xlink:href="#m3e8e90201b" y="231.970274"/>
    </g>
   </g>
   <g id="line2d_45">
    <path style="fill:none;stroke:#000080;stroke-linecap:square;stroke-width:1.5;"/>
    <g/>
   </g>
   <g id="line2d_46">
    <path clip-path="url(#p55b1f4a6a4)" d="M 183.607727 253.46443 
" style="fill:none;stroke:#000080;stroke-linecap:square;stroke-width:1.5;"/>
    <defs>
     <path d="M -12 12 
L 12 -12 
M -12 -12 
L 12 12 
" id="m495814143e" style="stroke:#000080;"/>
    </defs>
    <g clip-path="url(#p55b1f4a6a4)">
     <use style="fill:#000080;stroke:#000080;" x="183.607727" xlink:href="#m495814143e" y="253.46443"/>
    </g>
   </g>
   <g id="line2d_47">
    <defs>
     <path d="M 0 1.5 
C 0.397805 1.5 0.77937 1.341951 1.06066 1.06066 
C 1.341951 0.77937 1.5 0.397805 1.5 0 
C 1.5 -0.397805 1.341951 -0.77937 1.06066 -1.06066 
C 0.77937 -1.341951 0.397805 -1.5 0 -1.5 
C -0.397805 -1.5 -0.77937 -1.341951 -1.06066 -1.06066 
C -1.341951 -0.77937 -1.5 -0.397805 -1.5 0 
C -1.5 0.397805 -1.341951 0.77937 -1.06066 1.06066 
C -0.77937 1.341951 -0.397805 1.5 0 1.5 
z
" id="m8cb3473df5" style="stroke:#ff00ff;"/>
    </defs>
    <g>
     <use style="fill:#ff00ff;stroke:#ff00ff;" x="264.989017" xlink:href="#m8cb3473df5" y="27.513663"/>
     <use style="fill:#ff00ff;stroke:#ff00ff;" x="264.989017" xlink:href="#m8cb3473df5" y="27.513663"/>
    </g>
   </g>
   <g id="line2d_48">
    <path d="M 44.205749 294.88 
L 44.205749 286.492036 
L 56.12 286.492036 
L 56.12 281.773807 
L 63.08939 281.773807 
L 63.08939 281.249559 
L 68.034251 281.249559 
L 68.034251 280.201064 
L 71.869783 280.201064 
L 71.869783 276.007082 
L 75.003641 276.007082 
L 75.003641 273.910091 
L 77.653281 273.910091 
L 77.653281 272.337348 
L 81.973032 272.337348 
L 81.973032 270.240357 
L 86.917893 270.240357 
L 86.917893 269.716109 
L 89.567532 269.716109 
L 89.567532 269.191862 
L 92.904808 269.191862 
L 92.904808 268.667614 
L 94.816624 268.667614 
L 94.816624 268.143366 
L 96.536922 268.143366 
L 96.536922 267.619119 
L 97.336537 267.619119 
L 97.336537 266.570623 
L 99.533818 266.570623 
L 99.533818 266.046375 
L 100.207968 266.046375 
L 100.207968 264.99788 
L 105.317315 264.99788 
L 105.317315 264.473632 
L 105.801534 264.473632 
L 105.801534 263.949385 
L 106.272485 263.949385 
L 106.272485 263.425137 
L 109.637066 263.425137 
L 109.637066 262.900889 
L 111.448069 262.900889 
L 111.448069 262.376641 
L 111.788449 262.376641 
L 111.788449 261.852394 
L 113.999206 261.852394 
L 113.999206 261.328146 
L 119.09161 261.328146 
L 119.09161 260.803898 
L 119.310576 260.803898 
L 119.310576 258.18266 
L 123.189569 258.18266 
L 123.189569 257.658412 
L 123.533353 257.658412 
L 123.533353 257.134164 
L 135.190413 257.134164 
L 135.190413 256.609917 
L 139.249066 256.609917 
L 139.249066 256.085669 
L 139.786254 256.085669 
L 139.786254 255.561421 
L 141.060069 255.561421 
L 141.121347 254.512926 
L 141.72241 254.512926 
L 141.72241 253.988678 
L 143.515683 253.988678 
L 143.515683 251.891687 
L 144.295937 251.891687 
L 144.295937 250.843192 
L 144.698028 250.843192 
L 144.698028 249.794696 
L 146.93104 249.794696 
L 146.93104 249.270448 
L 149.329562 249.270448 
L 149.329562 248.746201 
L 149.555732 248.746201 
L 149.555732 248.221953 
L 149.926191 248.221953 
L 149.926191 247.173458 
L 151.026355 247.173458 
L 151.026355 243.503724 
L 152.124937 243.503724 
L 152.124937 242.455228 
L 153.929489 242.455228 
L 153.929489 240.882485 
L 185.896491 240.882485 
L 185.896491 240.358237 
L 186.040556 240.358237 
L 186.098739 238.785494 
L 186.2898 238.785494 
L 186.2898 238.261246 
L 186.587673 238.261246 
L 186.631046 236.688503 
L 186.73039 236.688503 
L 186.816312 235.640008 
L 186.863387 235.640008 
L 186.880473 234.591512 
L 187.054633 234.591512 
L 187.117912 233.018769 
L 187.459778 233.018769 
L 187.459778 232.494521 
L 187.709754 232.494521 
L 187.815206 230.397531 
L 187.835412 230.397531 
L 187.835412 229.873283 
L 187.972181 229.873283 
L 187.972181 229.349035 
L 188.332975 229.349035 
L 188.403453 228.30054 
L 188.578392 228.30054 
L 188.578392 227.776292 
L 188.808909 227.776292 
L 188.888866 226.727797 
L 189.070238 226.727797 
L 189.070238 226.203549 
L 189.360946 226.203549 
L 189.360946 225.679301 
L 189.478803 225.679301 
L 189.544744 224.630806 
L 189.759128 224.630806 
L 189.777173 223.58231 
L 189.97087 223.58231 
L 189.97087 223.058063 
L 196.522663 223.058063 
L 196.522663 222.533815 
L 197.447516 222.533815 
L 197.55798 220.961072 
L 197.76774 220.961072 
L 197.76774 220.436824 
L 198.111008 220.436824 
L 198.201842 218.864081 
L 198.579917 218.864081 
L 198.588561 217.815585 
L 198.81819 217.815585 
L 198.92445 216.242842 
L 198.975223 216.242842 
L 198.975223 215.718594 
L 199.324423 215.718594 
L 199.324423 215.194347 
L 199.460498 215.194347 
L 199.499472 214.145851 
L 199.575116 214.145851 
L 199.619937 213.097356 
L 199.781942 213.097356 
L 199.781942 212.573108 
L 199.920456 212.573108 
L 199.994274 211.000365 
L 201.115543 211.000365 
L 201.115543 210.476117 
L 203.627146 210.476117 
L 203.627146 209.95187 
L 204.037973 209.95187 
L 204.037973 209.427622 
L 204.766564 209.427622 
L 204.766564 208.903374 
L 205.089281 208.903374 
L 205.194049 207.330631 
L 205.204344 207.330631 
L 205.204344 206.806383 
L 205.432186 206.806383 
L 205.433636 205.757888 
L 205.591046 205.757888 
L 205.591046 205.23364 
L 205.735628 205.23364 
L 205.795395 203.136649 
L 205.984702 203.136649 
L 205.984702 202.612401 
L 206.130203 202.612401 
L 206.239911 201.563906 
L 206.365421 201.563906 
L 206.450412 199.991163 
L 206.702891 199.991163 
L 206.740579 198.942667 
L 208.893702 198.942667 
L 208.918595 197.894172 
L 209.242454 197.894172 
L 209.242454 197.369924 
L 209.451574 197.369924 
L 209.451574 196.845677 
L 209.617284 196.845677 
L 209.64683 195.797181 
L 209.745326 195.797181 
L 209.745326 195.272933 
L 209.883622 195.272933 
L 209.954029 193.175943 
L 210.153615 193.175943 
L 210.254738 192.127447 
L 210.34328 192.127447 
L 210.369428 191.078952 
L 210.458466 191.078952 
L 210.458466 190.554704 
L 210.644815 190.554704 
L 210.752681 188.981961 
L 210.934831 188.981961 
L 210.934831 188.457713 
L 211.077502 188.457713 
L 211.126533 187.409218 
L 211.256259 187.409218 
L 211.256259 186.88497 
L 212.959711 186.88497 
L 213.026064 185.836474 
L 213.29078 185.836474 
L 213.29078 185.312227 
L 213.770814 185.312227 
L 213.843011 183.739484 
L 213.890087 183.739484 
L 213.961786 182.16674 
L 214.068338 182.16674 
L 214.124429 181.118245 
L 214.185571 181.118245 
L 214.262127 180.06975 
L 214.353893 180.06975 
L 214.427985 179.021254 
L 214.630534 179.021254 
L 214.630534 178.497006 
L 214.750758 178.497006 
L 214.750758 177.972759 
L 215.042715 177.972759 
L 215.042715 177.448511 
L 215.740872 177.448511 
L 215.740872 176.924263 
L 216.510303 176.924263 
L 216.510303 176.400016 
L 216.753056 176.400016 
L 216.753056 175.875768 
L 216.926393 175.875768 
L 217.023502 173.778777 
L 217.155312 173.778777 
L 217.193415 171.681786 
L 217.572729 171.681786 
L 217.673384 170.633291 
L 218.078552 170.633291 
L 218.141699 169.584795 
L 218.243906 169.584795 
L 218.243906 169.060547 
L 219.035131 169.060547 
L 219.104037 168.012052 
L 219.351126 168.012052 
L 219.449617 166.439309 
L 219.485526 166.439309 
L 219.563496 164.866566 
L 219.644923 164.866566 
L 219.734175 162.245327 
L 219.964957 162.245327 
L 220.049468 161.196832 
L 220.086621 161.196832 
L 220.087858 160.148336 
L 220.479811 160.148336 
L 220.479811 159.624089 
L 221.185741 159.624089 
L 221.185741 159.099841 
L 221.535516 159.099841 
L 221.535516 158.575593 
L 221.655061 158.575593 
L 221.744036 157.00285 
L 221.853217 157.00285 
L 221.942286 154.905859 
L 221.992739 154.905859 
L 221.992739 154.381611 
L 222.152542 154.381611 
L 222.206211 152.808868 
L 222.27769 152.808868 
L 222.323912 150.711877 
L 222.441351 150.711877 
L 222.441351 150.18763 
L 223.527101 150.18763 
L 223.527101 149.663382 
L 223.728953 149.663382 
L 223.81979 148.614886 
L 223.852612 148.614886 
L 223.852612 148.090639 
L 223.991167 148.090639 
L 224.093375 145.993648 
L 224.151578 145.993648 
L 224.220773 143.372409 
L 225.246772 143.372409 
L 225.246772 142.848162 
L 225.506394 142.848162 
L 225.607181 141.275418 
L 225.707381 141.275418 
L 225.736347 140.226923 
L 225.917944 140.226923 
L 225.917944 139.702675 
L 226.166393 139.702675 
L 226.245681 137.605684 
L 226.68651 137.605684 
L 226.739515 136.557189 
L 227.040128 136.557189 
L 227.062401 134.984446 
L 227.168014 134.984446 
L 227.233846 133.93595 
L 227.444767 133.93595 
L 227.444767 133.411703 
L 227.613656 133.411703 
L 227.613656 132.887455 
L 228.027394 132.887455 
L 228.027394 132.363207 
L 228.225003 132.363207 
L 228.225003 131.838959 
L 228.381852 131.838959 
L 228.381852 131.314712 
L 228.531228 131.314712 
L 228.638748 129.741969 
L 228.696568 129.741969 
L 228.700316 128.693473 
L 228.864416 128.693473 
L 228.94071 127.644978 
L 229.000471 127.644978 
L 229.000471 127.12073 
L 229.164662 127.12073 
L 229.164662 126.596482 
L 229.32477 126.596482 
L 229.334524 125.547987 
L 229.451504 125.547987 
L 229.451504 125.023739 
L 229.960447 125.023739 
L 230.012952 123.975244 
L 230.159878 123.975244 
L 230.191862 122.926748 
L 230.435454 122.926748 
L 230.435454 122.4025 
L 230.633499 122.4025 
L 230.633499 121.878253 
L 231.018615 121.878253 
L 231.128942 120.30551 
L 231.174757 120.30551 
L 231.174757 119.781262 
L 231.363868 119.781262 
L 231.402659 118.732766 
L 231.48954 118.732766 
L 231.539806 117.160023 
L 231.764832 117.160023 
L 231.764832 116.635776 
L 231.894464 116.635776 
L 231.926486 115.58728 
L 232.183298 115.58728 
L 232.262067 114.014537 
L 232.592416 114.014537 
L 232.702027 112.441794 
L 232.742063 112.441794 
L 232.845133 110.344803 
L 232.982385 110.344803 
L 232.982385 109.820555 
L 233.661938 109.820555 
L 233.718563 107.723564 
L 233.834035 107.723564 
L 233.834035 107.199317 
L 234.171783 107.199317 
L 234.171783 106.675069 
L 234.293465 106.675069 
L 234.293465 106.150821 
L 234.48938 106.150821 
L 234.578522 104.578078 
L 234.607779 104.578078 
L 234.607779 104.05383 
L 234.826422 104.05383 
L 234.826422 103.529583 
L 235.078299 103.529583 
L 235.166247 102.481087 
L 235.238639 102.481087 
L 235.346915 101.432592 
L 235.503772 101.432592 
L 235.586311 99.859849 
L 235.827371 99.859849 
L 235.906404 96.714362 
L 236.143533 96.714362 
L 236.163693 95.665867 
L 236.255933 95.665867 
L 236.255933 95.141619 
L 236.380312 95.141619 
L 236.380312 94.617371 
L 236.772991 94.617371 
L 236.784702 93.568876 
L 237.258557 93.568876 
L 237.361881 91.471885 
L 237.740308 91.471885 
L 237.816988 90.42339 
L 237.893767 90.42339 
L 237.927757 89.374894 
L 238.351436 89.374894 
L 238.447137 87.277903 
L 238.477293 87.277903 
L 238.575253 86.229408 
L 238.683143 86.229408 
L 238.683143 85.70516 
L 238.799941 85.70516 
L 238.799941 85.180912 
L 239.246173 85.180912 
L 239.246173 84.656665 
L 239.360631 84.656665 
L 239.458908 82.559674 
L 239.57674 82.559674 
L 239.672802 80.986931 
L 239.893059 80.986931 
L 239.964234 79.414188 
L 240.030075 79.414188 
L 240.030075 78.88994 
L 240.568788 78.88994 
L 240.663962 77.317197 
L 241.227815 77.317197 
L 241.227815 76.792949 
L 241.645066 76.792949 
L 241.743605 75.220206 
L 241.82727 75.220206 
L 241.917827 74.17171 
L 242.00549 74.17171 
L 242.045706 73.123215 
L 242.126888 73.123215 
L 242.158089 72.074719 
L 242.566995 72.074719 
L 242.568667 71.026224 
L 243.083653 71.026224 
L 243.178498 69.453481 
L 243.485479 69.453481 
L 243.553678 68.404985 
L 243.908937 68.404985 
L 243.908937 67.880738 
L 244.082395 67.880738 
L 244.082395 67.35649 
L 244.217694 67.35649 
L 244.217694 66.832242 
L 244.377396 66.832242 
L 244.398006 65.259499 
L 244.744066 65.259499 
L 244.84339 63.686756 
L 244.991454 63.686756 
L 245.091385 62.114013 
L 245.116061 62.114013 
L 245.116061 61.589765 
L 245.625956 61.589765 
L 245.703751 59.492774 
L 245.796449 59.492774 
L 245.899125 58.444279 
L 246.107145 58.444279 
L 246.208934 56.871536 
L 246.275381 56.871536 
L 246.359691 55.298792 
L 246.389041 55.298792 
L 246.493838 54.250297 
L 246.975346 54.250297 
L 246.975346 53.726049 
L 247.431135 53.726049 
L 247.53442 52.677554 
L 247.69229 52.677554 
L 247.695145 51.629058 
L 247.868393 51.629058 
L 247.868393 51.104811 
L 248.141185 51.104811 
L 248.150132 50.056315 
L 248.258929 50.056315 
L 248.258929 49.532068 
L 248.374917 49.532068 
L 248.374917 49.00782 
L 249.134728 49.00782 
L 249.134728 48.483572 
L 249.404701 48.483572 
L 249.404701 47.959324 
L 249.765711 47.959324 
L 249.83412 46.910829 
L 249.918295 46.910829 
L 249.918295 46.386581 
L 250.1993 46.386581 
L 250.229313 45.338086 
L 250.480007 45.338086 
L 250.480007 44.813838 
L 251.190427 44.813838 
L 251.251385 43.241095 
L 251.499547 43.241095 
L 251.499547 42.716847 
L 251.773864 42.716847 
L 251.773864 42.192599 
L 252.185522 42.192599 
L 252.185522 41.668352 
L 252.4345 41.668352 
L 252.4345 41.144104 
L 252.681408 41.144104 
L 252.748135 40.095609 
L 252.935711 40.095609 
L 253.020317 39.047113 
L 253.072225 39.047113 
L 253.072225 38.522865 
L 253.375786 38.522865 
L 253.375786 37.998618 
L 253.588498 37.998618 
L 253.588498 37.47437 
L 253.721867 37.47437 
L 253.721867 36.950122 
L 255.074824 36.950122 
L 255.074824 36.425875 
L 255.403931 36.425875 
L 255.44881 35.377379 
L 255.778269 35.377379 
L 255.778269 34.853131 
L 255.911136 34.853131 
L 255.911136 34.328884 
L 256.400961 34.328884 
L 256.400961 33.804636 
L 256.863677 33.804636 
L 256.947414 32.756141 
L 257.016102 32.756141 
L 257.016102 32.231893 
L 257.739644 32.231893 
L 257.739644 31.707645 
L 258.480339 31.707645 
L 258.480339 31.183397 
L 259.296986 31.183397 
L 259.296986 30.65915 
L 260.233067 30.65915 
L 260.233067 30.134902 
L 261.080054 30.134902 
L 261.080054 29.610654 
L 262.66204 29.610654 
L 262.66204 29.086407 
L 263.575612 29.086407 
L 263.658967 28.037911 
L 264.989017 28.037911 
L 264.989017 27.513663 
L 333.168 27.513663 
L 333.168 27.513663 
" style="fill:none;stroke:#ff00ff;stroke-linecap:square;stroke-width:1.5;"/>
   </g>
   <g id="line2d_49">
    <defs>
     <path d="M -0 8.485281 
L 5.091169 0 
L 0 -8.485281 
L -5.091169 -0 
z
" id="m34ed470a9b" style="stroke:#ff00ff;stroke-linejoin:miter;stroke-width:1.5;"/>
    </defs>
    <g>
     <use style="fill:none;stroke:#ff00ff;stroke-linejoin:miter;stroke-width:1.5;" x="153.929489" xlink:href="#m34ed470a9b" y="242.455228"/>
     <use style="fill:none;stroke:#ff00ff;stroke-linejoin:miter;stroke-width:1.5;" x="219.351126" xlink:href="#m34ed470a9b" y="168.012052"/>
     <use style="fill:none;stroke:#ff00ff;stroke-linejoin:miter;stroke-width:1.5;" x="251.204599" xlink:href="#m34ed470a9b" y="43.765343"/>
     <use style="fill:none;stroke:#ff00ff;stroke-linejoin:miter;stroke-width:1.5;" x="264.989017" xlink:href="#m34ed470a9b" y="27.513663"/>
     <use style="fill:none;stroke:#ff00ff;stroke-linejoin:miter;stroke-width:1.5;" x="264.989017" xlink:href="#m34ed470a9b" y="27.513663"/>
     <use style="fill:none;stroke:#ff00ff;stroke-linejoin:miter;stroke-width:1.5;" x="333.168" xlink:href="#m34ed470a9b" y="27.513663"/>
    </g>
   </g>
   <g id="line2d_50">
    <path style="fill:none;stroke:#ff00ff;stroke-linecap:square;stroke-width:1.5;"/>
    <g/>
   </g>
   <g id="line2d_51">
    <path clip-path="url(#p55b1f4a6a4)" d="M 186.456895 238.261246 
" style="fill:none;stroke:#ff00ff;stroke-linecap:square;stroke-width:1.5;"/>
    <defs>
     <path d="M -12 12 
L 12 -12 
M -12 -12 
L 12 12 
" id="madd6c40784" style="stroke:#ff00ff;"/>
    </defs>
    <g clip-path="url(#p55b1f4a6a4)">
     <use style="fill:#ff00ff;stroke:#ff00ff;" x="186.456895" xlink:href="#madd6c40784" y="238.261246"/>
    </g>
   </g>
   <g id="line2d_52">
    <defs>
     <path d="M 0 1.5 
C 0.397805 1.5 0.77937 1.341951 1.06066 1.06066 
C 1.341951 0.77937 1.5 0.397805 1.5 0 
C 1.5 -0.397805 1.341951 -0.77937 1.06066 -1.06066 
C 0.77937 -1.341951 0.397805 -1.5 0 -1.5 
C -0.397805 -1.5 -0.77937 -1.341951 -1.06066 -1.06066 
C -1.341951 -0.77937 -1.5 -0.397805 -1.5 0 
C -1.5 0.397805 -1.341951 0.77937 -1.06066 1.06066 
C -0.77937 1.341951 -0.397805 1.5 0 1.5 
z
" id="mffd9ebb6a7" style="stroke:#ff7500;"/>
    </defs>
    <g>
     <use style="fill:#ff7500;stroke:#ff7500;" x="275.684813" xlink:href="#mffd9ebb6a7" y="237.212751"/>
     <use style="fill:#ff7500;stroke:#ff7500;" x="275.684813" xlink:href="#mffd9ebb6a7" y="237.212751"/>
    </g>
   </g>
   <g id="line2d_53">
    <path d="M 44.205749 294.88 
L 44.205749 283.870798 
L 56.12 283.870798 
L 56.12 278.104073 
L 63.08939 278.104073 
L 63.08939 277.579825 
L 68.034251 277.579825 
L 68.034251 277.055578 
L 71.869783 277.055578 
L 71.869783 276.007082 
L 77.653281 276.007082 
L 77.653281 275.482834 
L 91.862754 275.482834 
L 91.862754 273.910091 
L 94.816624 273.910091 
L 94.816624 273.385844 
L 95.698286 273.385844 
L 95.698286 272.861596 
L 96.536922 272.861596 
L 96.536922 272.337348 
L 99.533818 272.337348 
L 99.533818 271.8131 
L 100.856673 271.8131 
L 100.856673 271.288853 
L 106.272485 271.288853 
L 106.272485 270.764605 
L 106.730875 270.764605 
L 106.730875 270.240357 
L 108.85563 270.240357 
L 108.85563 269.716109 
L 109.637066 269.716109 
L 109.637066 268.667614 
L 113.396034 268.667614 
L 113.396034 268.143366 
L 117.952873 268.143366 
L 117.952873 267.619119 
L 121.551317 267.619119 
L 121.551317 267.094871 
L 122.480659 267.094871 
L 122.480659 266.570623 
L 123.870396 266.570623 
L 123.870396 266.046375 
L 124.036471 266.046375 
L 124.036471 265.522128 
L 126.780294 265.522128 
L 126.780294 264.99788 
L 129.510254 264.99788 
L 129.510254 264.473632 
L 133.36981 264.473632 
L 133.36981 263.949385 
L 136.836515 263.949385 
L 136.836515 263.425137 
L 142.07321 263.425137 
L 142.07321 262.900889 
L 145.616908 262.900889 
L 145.616908 262.376641 
L 146.755644 262.376641 
L 146.755644 261.852394 
L 147.988485 261.852394 
L 147.988485 261.328146 
L 157.811415 261.328146 
L 157.811415 260.803898 
L 182.19269 260.803898 
L 182.19269 260.279651 
L 182.717364 260.279651 
L 182.717364 259.755403 
L 182.992561 259.755403 
L 182.992561 259.231155 
L 185.586284 259.231155 
L 185.586284 258.706907 
L 193.821377 258.706907 
L 193.821377 258.18266 
L 201.460823 258.18266 
L 201.460823 257.658412 
L 202.083713 257.658412 
L 202.083713 257.134164 
L 206.100922 257.134164 
L 206.156653 256.085669 
L 206.249598 256.085669 
L 206.249598 255.561421 
L 206.67592 255.561421 
L 206.67592 255.037173 
L 207.18389 255.037173 
L 207.18389 254.512926 
L 208.254439 254.512926 
L 208.281504 253.46443 
L 208.640361 253.46443 
L 208.640361 252.940182 
L 209.904887 252.940182 
L 209.904887 252.415935 
L 211.461806 252.415935 
L 211.461806 251.891687 
L 211.679053 251.891687 
L 211.782644 250.843192 
L 218.462157 250.843192 
L 218.462157 250.318944 
L 218.757381 250.318944 
L 218.757381 249.794696 
L 219.311053 249.794696 
L 219.311053 249.270448 
L 219.623331 249.270448 
L 219.623331 248.746201 
L 219.98488 248.746201 
L 219.98488 248.221953 
L 221.019576 248.221953 
L 221.019576 247.697705 
L 226.349542 247.697705 
L 226.349542 247.173458 
L 227.222415 247.173458 
L 227.222415 246.64921 
L 228.245794 246.64921 
L 228.245794 246.124962 
L 228.765771 246.124962 
L 228.765771 245.600714 
L 231.337852 245.600714 
L 231.432094 244.552219 
L 232.667848 244.552219 
L 232.667848 244.027971 
L 234.756748 244.027971 
L 234.756748 243.503724 
L 236.790788 243.503724 
L 236.790788 242.979476 
L 237.278589 242.979476 
L 237.278589 242.455228 
L 238.100826 242.455228 
L 238.137656 241.406733 
L 241.358759 241.406733 
L 241.358759 240.882485 
L 246.863426 240.882485 
L 246.863426 240.358237 
L 250.146113 240.358237 
L 250.146113 239.83399 
L 251.519727 239.83399 
L 251.519727 239.309742 
L 260.243955 239.309742 
L 260.243955 238.785494 
L 261.809903 238.785494 
L 261.809903 238.261246 
L 263.886034 238.261246 
L 263.886034 237.736999 
L 275.684813 237.736999 
L 275.684813 237.212751 
L 333.168 237.212751 
L 333.168 237.212751 
" style="fill:none;stroke:#ff7500;stroke-linecap:square;stroke-width:1.5;"/>
   </g>
   <g id="line2d_54">
    <defs>
     <path d="M 0 -6 
L -1.347084 -1.854102 
L -5.706339 -1.854102 
L -2.179628 0.708204 
L -3.526712 4.854102 
L -0 2.291796 
L 3.526712 4.854102 
L 2.179628 0.708204 
L 5.706339 -1.854102 
L 1.347084 -1.854102 
z
" id="m345b14301b" style="stroke:#ff7500;stroke-linejoin:bevel;stroke-width:1.5;"/>
    </defs>
    <g>
     <use style="fill:none;stroke:#ff7500;stroke-linejoin:bevel;stroke-width:1.5;" x="113.396034" xlink:href="#m345b14301b" y="268.143366"/>
     <use style="fill:none;stroke:#ff7500;stroke-linejoin:bevel;stroke-width:1.5;" x="157.811415" xlink:href="#m345b14301b" y="260.803898"/>
     <use style="fill:none;stroke:#ff7500;stroke-linejoin:bevel;stroke-width:1.5;" x="238.137656" xlink:href="#m345b14301b" y="241.93098"/>
     <use style="fill:none;stroke:#ff7500;stroke-linejoin:bevel;stroke-width:1.5;" x="275.684813" xlink:href="#m345b14301b" y="237.212751"/>
     <use style="fill:none;stroke:#ff7500;stroke-linejoin:bevel;stroke-width:1.5;" x="275.684813" xlink:href="#m345b14301b" y="237.212751"/>
     <use style="fill:none;stroke:#ff7500;stroke-linejoin:bevel;stroke-width:1.5;" x="333.168" xlink:href="#m345b14301b" y="237.212751"/>
    </g>
   </g>
   <g id="line2d_55">
    <path style="fill:none;stroke:#ff7500;stroke-linecap:square;stroke-width:1.5;"/>
    <g/>
   </g>
   <g id="line2d_56">
    <path clip-path="url(#p55b1f4a6a4)" d="M 206.534984 255.561421 
" style="fill:none;stroke:#ff7500;stroke-linecap:square;stroke-width:1.5;"/>
    <defs>
     <path d="M -12 12 
L 12 -12 
M -12 -12 
L 12 12 
" id="m2a86dc8a0f" style="stroke:#ff7500;"/>
    </defs>
    <g clip-path="url(#p55b1f4a6a4)">
     <use style="fill:#ff7500;stroke:#ff7500;" x="206.534984" xlink:href="#m2a86dc8a0f" y="255.561421"/>
    </g>
   </g>
   <g id="line2d_57">
    <defs>
     <path d="M 0 1.5 
C 0.397805 1.5 0.77937 1.341951 1.06066 1.06066 
C 1.341951 0.77937 1.5 0.397805 1.5 0 
C 1.5 -0.397805 1.341951 -0.77937 1.06066 -1.06066 
C 0.77937 -1.341951 0.397805 -1.5 0 -1.5 
C -0.397805 -1.5 -0.77937 -1.341951 -1.06066 -1.06066 
C -1.341951 -0.77937 -1.5 -0.397805 -1.5 0 
C -1.5 0.397805 -1.341951 0.77937 -1.06066 1.06066 
C -0.77937 1.341951 -0.397805 1.5 0 1.5 
z
" id="mf3bc6d48ac" style="stroke:#6495ed;"/>
    </defs>
    <g>
     <use style="fill:#6495ed;stroke:#6495ed;" x="230.718681" xlink:href="#mf3bc6d48ac" y="27.513663"/>
     <use style="fill:#6495ed;stroke:#6495ed;" x="230.718681" xlink:href="#mf3bc6d48ac" y="27.513663"/>
    </g>
   </g>
   <g id="line2d_58">
    <path d="M 44.205749 294.88 
L 44.205749 290.161771 
L 56.12 290.161771 
L 56.12 288.06478 
L 63.08939 288.06478 
L 63.08939 287.540532 
L 68.034251 287.540532 
L 68.034251 285.967789 
L 71.869783 285.967789 
L 71.869783 283.34655 
L 75.003641 283.34655 
L 75.003641 282.298055 
L 77.653281 282.298055 
L 77.653281 281.773807 
L 79.948502 281.773807 
L 79.948502 281.249559 
L 81.973032 281.249559 
L 81.973032 280.725312 
L 83.784035 280.725312 
L 83.784035 280.201064 
L 85.422286 280.201064 
L 85.422286 279.152568 
L 86.917893 279.152568 
L 86.917893 277.055578 
L 88.293717 277.055578 
L 88.293717 275.482834 
L 89.567532 275.482834 
L 89.567532 274.434339 
L 91.862754 274.434339 
L 91.862754 273.910091 
L 92.904808 273.910091 
L 92.904808 273.385844 
L 93.887283 273.385844 
L 93.887283 271.288853 
L 96.536922 271.288853 
L 96.536922 270.240357 
L 98.100602 270.240357 
L 98.100602 269.716109 
L 100.207968 269.716109 
L 100.207968 269.191862 
L 100.856673 269.191862 
L 100.856673 268.667614 
L 103.231288 268.667614 
L 103.231288 268.143366 
L 103.777005 268.143366 
L 103.777005 267.619119 
L 104.819059 267.619119 
L 104.819059 267.094871 
L 107.177358 267.094871 
L 107.177358 266.570623 
L 107.612537 266.570623 
L 107.612537 264.99788 
L 108.036969 264.99788 
L 108.036969 263.949385 
L 108.451173 263.949385 
L 108.451173 261.328146 
L 108.85563 261.328146 
L 108.85563 260.279651 
L 111.788449 260.279651 
L 111.788449 259.231155 
L 112.449632 259.231155 
L 112.449632 258.706907 
L 115.957752 258.706907 
L 115.957752 258.18266 
L 118.869818 258.18266 
L 118.869818 257.658412 
L 120.15957 257.658412 
L 120.15957 257.134164 
L 121.359263 257.134164 
L 121.359263 256.609917 
L 121.929105 256.609917 
L 121.929105 255.561421 
L 123.015063 255.561421 
L 123.015063 255.037173 
L 123.533353 255.037173 
L 123.533353 254.512926 
L 125.000572 254.512926 
L 125.000572 253.988678 
L 126.061 253.988678 
L 126.061 253.46443 
L 129.510254 253.46443 
L 129.510254 252.940182 
L 129.630036 252.940182 
L 129.630036 251.891687 
L 132.483094 251.891687 
L 132.483094 251.367439 
L 132.783777 251.367439 
L 132.783777 250.843192 
L 134.213018 250.843192 
L 134.213018 250.318944 
L 135.016789 250.318944 
L 135.016789 249.794696 
L 137.753459 249.794696 
L 137.753459 249.270448 
L 139.043211 249.270448 
L 139.043211 248.746201 
L 141.781376 248.746201 
L 141.781376 248.221953 
L 156.056945 248.221953 
L 156.056945 247.697705 
L 157.102017 247.697705 
L 157.102017 247.173458 
L 157.995745 247.173458 
L 157.995745 246.64921 
L 159.923235 246.64921 
L 159.923235 246.124962 
L 160.126894 246.124962 
L 160.126894 245.600714 
L 160.487508 245.600714 
L 160.566627 244.552219 
L 161.053039 244.552219 
L 161.053039 244.027971 
L 162.077028 244.027971 
L 162.077028 243.503724 
L 162.854447 243.503724 
L 162.854447 242.979476 
L 163.24725 242.979476 
L 163.24725 242.455228 
L 171.391273 242.455228 
L 171.391273 241.93098 
L 171.683143 241.93098 
L 171.683143 240.882485 
L 172.322274 240.882485 
L 172.322274 240.358237 
L 175.880726 240.358237 
L 175.880726 239.83399 
L 177.772503 239.83399 
L 177.772503 238.785494 
L 182.057568 238.785494 
L 182.057568 237.736999 
L 182.60823 237.736999 
L 182.60823 237.212751 
L 185.265687 237.212751 
L 185.265687 236.688503 
L 185.466181 236.688503 
L 185.466181 236.164255 
L 186.223392 236.164255 
L 186.276539 233.018769 
L 186.48313 233.018769 
L 186.48313 232.494521 
L 186.618046 232.494521 
L 186.67863 229.349035 
L 186.756212 229.349035 
L 186.799162 226.727797 
L 186.940141 226.727797 
L 187.025023 225.679301 
L 187.088411 225.679301 
L 187.193541 221.485319 
L 187.210302 221.485319 
L 187.277184 218.339833 
L 187.385315 218.339833 
L 187.393604 214.670099 
L 187.677177 214.670099 
L 187.786879 211.000365 
L 187.915996 211.000365 
L 188.008204 208.379126 
L 188.820355 208.379126 
L 188.820355 207.330631 
L 189.201292 207.330631 
L 189.201292 206.806383 
L 189.312835 206.806383 
L 189.323949 204.185145 
L 189.445737 204.185145 
L 189.464115 201.563906 
L 189.57762 201.563906 
L 189.683128 200.515411 
L 189.802406 200.515411 
L 189.802406 198.41842 
L 190.211721 198.41842 
L 190.239835 197.369924 
L 190.337876 197.369924 
L 190.414518 194.224438 
L 190.480435 194.224438 
L 190.5461 192.127447 
L 194.148951 192.127447 
L 194.148951 190.030456 
L 205.973458 190.030456 
L 206.028201 186.360722 
L 206.105108 186.360722 
L 206.201107 179.545502 
L 206.217748 179.545502 
L 206.280008 171.157538 
L 206.354424 171.157538 
L 206.436732 168.012052 
L 206.468179 168.012052 
L 206.556742 164.866566 
L 206.609661 164.866566 
L 206.704238 161.721079 
L 206.760736 161.721079 
L 206.760736 161.196832 
L 209.661583 161.196832 
L 209.734033 157.527098 
L 209.778033 157.527098 
L 209.863453 151.236125 
L 209.904887 151.236125 
L 209.945104 149.139134 
L 210.714311 149.139134 
L 210.714311 148.614886 
L 210.871509 148.614886 
L 210.961146 141.275418 
L 211.024139 141.275418 
L 211.129658 134.460198 
L 214.763409 134.460198 
L 214.767624 132.363207 
L 214.890244 132.363207 
L 214.987881 117.160023 
L 215.009503 117.160023 
L 215.086621 111.917546 
L 215.122162 111.917546 
L 215.156804 108.77206 
L 215.520435 108.77206 
L 215.626597 101.432592 
L 215.656238 101.432592 
L 215.755998 96.714362 
L 215.775086 96.714362 
L 215.793358 95.141619 
L 216.536939 95.141619 
L 216.536939 94.093124 
L 217.318121 94.093124 
L 217.318121 93.044628 
L 221.577536 93.044628 
L 221.577536 90.947637 
L 221.764245 90.947637 
L 221.861029 80.986931 
L 221.880544 80.986931 
L 221.90727 77.841444 
L 222.496815 77.841444 
L 222.607209 66.832242 
L 222.621092 66.832242 
L 222.648291 62.638261 
L 224.593591 62.638261 
L 224.697493 52.677554 
L 224.716876 52.677554 
L 224.717821 51.629058 
L 228.492204 51.629058 
L 228.579978 39.571361 
L 230.601991 39.571361 
L 230.707681 28.562159 
L 230.714682 28.562159 
L 230.718681 27.513663 
L 333.168 27.513663 
L 333.168 27.513663 
" style="fill:none;stroke:#6495ed;stroke-linecap:square;stroke-width:1.5;"/>
   </g>
   <g id="line2d_59">
    <defs>
     <path d="M -0 6 
L 6 -6 
L -6 -6 
z
" id="mb8d49651fe" style="stroke:#6495ed;stroke-linejoin:miter;stroke-width:1.5;"/>
    </defs>
    <g>
     <use style="fill:none;stroke:#6495ed;stroke-linejoin:miter;stroke-width:1.5;" x="132.783777" xlink:href="#mb8d49651fe" y="250.843192"/>
     <use style="fill:none;stroke:#6495ed;stroke-linejoin:miter;stroke-width:1.5;" x="194.148951" xlink:href="#mb8d49651fe" y="192.127447"/>
     <use style="fill:none;stroke:#6495ed;stroke-linejoin:miter;stroke-width:1.5;" x="221.840376" xlink:href="#mb8d49651fe" y="84.132417"/>
     <use style="fill:none;stroke:#6495ed;stroke-linejoin:miter;stroke-width:1.5;" x="230.718681" xlink:href="#mb8d49651fe" y="27.513663"/>
     <use style="fill:none;stroke:#6495ed;stroke-linejoin:miter;stroke-width:1.5;" x="230.718681" xlink:href="#mb8d49651fe" y="27.513663"/>
     <use style="fill:none;stroke:#6495ed;stroke-linejoin:miter;stroke-width:1.5;" x="333.168" xlink:href="#mb8d49651fe" y="27.513663"/>
    </g>
   </g>
   <g id="line2d_60">
    <path style="fill:none;stroke:#6495ed;stroke-linecap:square;stroke-width:1.5;"/>
    <g/>
   </g>
   <g id="line2d_61">
    <path d="M 333.168 237.212751 
L 363.64328 289.532673 
" style="fill:none;stroke:#ff7500;stroke-linecap:square;stroke-width:1.5;"/>
    <g>
     <use style="fill:none;stroke:#ff7500;stroke-linejoin:bevel;stroke-width:1.5;" x="333.168" xlink:href="#m345b14301b" y="237.212751"/>
     <use style="fill:none;stroke:#ff7500;stroke-linejoin:bevel;stroke-width:1.5;" x="363.64328" xlink:href="#m345b14301b" y="289.532673"/>
    </g>
   </g>
   <g id="line2d_62">
    <path d="M 333.168 231.970274 
L 363.64328 225.364752 
" style="fill:none;stroke:#000080;stroke-linecap:square;stroke-width:1.5;"/>
    <g>
     <use style="fill:none;stroke:#000080;stroke-width:1.5;" x="333.168" xlink:href="#m3e8e90201b" y="231.970274"/>
     <use style="fill:none;stroke:#000080;stroke-width:1.5;" x="363.64328" xlink:href="#m3e8e90201b" y="225.364752"/>
    </g>
   </g>
   <g id="line2d_63">
    <path d="M 333.168 27.513663 
L 363.64328 161.196832 
" style="fill:none;stroke:#ff00ff;stroke-linecap:square;stroke-width:1.5;"/>
    <g>
     <use style="fill:none;stroke:#ff00ff;stroke-linejoin:miter;stroke-width:1.5;" x="333.168" xlink:href="#m34ed470a9b" y="27.513663"/>
     <use style="fill:none;stroke:#ff00ff;stroke-linejoin:miter;stroke-width:1.5;" x="363.64328" xlink:href="#m34ed470a9b" y="161.196832"/>
    </g>
   </g>
   <g id="line2d_64">
    <path d="M 333.168 27.513663 
L 363.64328 97.028911 
" style="fill:none;stroke:#6495ed;stroke-linecap:square;stroke-width:1.5;"/>
    <g>
     <use style="fill:none;stroke:#6495ed;stroke-linejoin:miter;stroke-width:1.5;" x="333.168" xlink:href="#mb8d49651fe" y="27.513663"/>
     <use style="fill:none;stroke:#6495ed;stroke-linejoin:miter;stroke-width:1.5;" x="363.64328" xlink:href="#mb8d49651fe" y="97.028911"/>
    </g>
   </g>
   <g id="line2d_65">
    <path d="M 333.168 294.88 
L 333.168 27.513663 
" style="fill:none;stroke:#000000;stroke-linecap:square;stroke-width:1.5;"/>
   </g>
   <g id="patch_3">
    <path d="M 56.12 294.88 
L 56.12 24.84 
" style="fill:none;stroke:#000000;stroke-linecap:square;stroke-linejoin:miter;stroke-width:0.8;"/>
   </g>
   <g id="patch_4">
    <path d="M 333.168 294.88 
L 333.168 24.84 
" style="fill:none;stroke:#000000;stroke-linecap:square;stroke-linejoin:miter;stroke-width:0.8;"/>
   </g>
   <g id="patch_5">
    <path d="M 56.12 294.88 
L 333.168 294.88 
" style="fill:none;stroke:#000000;stroke-linecap:square;stroke-linejoin:miter;stroke-width:0.8;"/>
   </g>
   <g id="patch_6">
    <path d="M 56.12 24.84 
L 333.168 24.84 
" style="fill:none;stroke:#000000;stroke-linecap:square;stroke-linejoin:miter;stroke-width:0.8;"/>
   </g>
   <g id="text_13">
    <!-- ppmf-new -->
    <defs>
     <path d="M 4.203125 54.6875 
L 13.1875 54.6875 
L 24.421875 12.015625 
L 35.59375 54.6875 
L 46.1875 54.6875 
L 57.421875 12.015625 
L 68.609375 54.6875 
L 77.59375 54.6875 
L 63.28125 0 
L 52.6875 0 
L 40.921875 44.828125 
L 29.109375 0 
L 18.5 0 
z
" id="DejaVuSans-77"/>
    </defs>
    <g transform="translate(369.18424 294.223611)scale(0.17 -0.17)">
     <use xlink:href="#DejaVuSans-70"/>
     <use x="63.476562" xlink:href="#DejaVuSans-70"/>
     <use x="126.953125" xlink:href="#DejaVuSans-6d"/>
     <use x="224.365234" xlink:href="#DejaVuSans-66"/>
     <use x="259.492188" xlink:href="#DejaVuSans-2d"/>
     <use x="295.576172" xlink:href="#DejaVuSans-6e"/>
     <use x="358.955078" xlink:href="#DejaVuSans-65"/>
     <use x="420.478516" xlink:href="#DejaVuSans-77"/>
    </g>
   </g>
   <g id="text_14">
    <!-- CMA ES PPM -->
    <defs>
     <path d="M 64.40625 67.28125 
L 64.40625 56.890625 
Q 59.421875 61.53125 53.78125 63.8125 
Q 48.140625 66.109375 41.796875 66.109375 
Q 29.296875 66.109375 22.65625 58.46875 
Q 16.015625 50.828125 16.015625 36.375 
Q 16.015625 21.96875 22.65625 14.328125 
Q 29.296875 6.6875 41.796875 6.6875 
Q 48.140625 6.6875 53.78125 8.984375 
Q 59.421875 11.28125 64.40625 15.921875 
L 64.40625 5.609375 
Q 59.234375 2.09375 53.4375 0.328125 
Q 47.65625 -1.421875 41.21875 -1.421875 
Q 24.65625 -1.421875 15.125 8.703125 
Q 5.609375 18.84375 5.609375 36.375 
Q 5.609375 53.953125 15.125 64.078125 
Q 24.65625 74.21875 41.21875 74.21875 
Q 47.75 74.21875 53.53125 72.484375 
Q 59.328125 70.75 64.40625 67.28125 
z
" id="DejaVuSans-43"/>
     <path d="M 9.8125 72.90625 
L 24.515625 72.90625 
L 43.109375 23.296875 
L 61.8125 72.90625 
L 76.515625 72.90625 
L 76.515625 0 
L 66.890625 0 
L 66.890625 64.015625 
L 48.09375 14.015625 
L 38.1875 14.015625 
L 19.390625 64.015625 
L 19.390625 0 
L 9.8125 0 
z
" id="DejaVuSans-4d"/>
     <path d="M 34.1875 63.1875 
L 20.796875 26.90625 
L 47.609375 26.90625 
z
M 28.609375 72.90625 
L 39.796875 72.90625 
L 67.578125 0 
L 57.328125 0 
L 50.6875 18.703125 
L 17.828125 18.703125 
L 11.1875 0 
L 0.78125 0 
z
" id="DejaVuSans-41"/>
     <path d="M 9.8125 72.90625 
L 55.90625 72.90625 
L 55.90625 64.59375 
L 19.671875 64.59375 
L 19.671875 43.015625 
L 54.390625 43.015625 
L 54.390625 34.71875 
L 19.671875 34.71875 
L 19.671875 8.296875 
L 56.78125 8.296875 
L 56.78125 0 
L 9.8125 0 
z
" id="DejaVuSans-45"/>
     <path d="M 53.515625 70.515625 
L 53.515625 60.890625 
Q 47.90625 63.578125 42.921875 64.890625 
Q 37.9375 66.21875 33.296875 66.21875 
Q 25.25 66.21875 20.875 63.09375 
Q 16.5 59.96875 16.5 54.203125 
Q 16.5 49.359375 19.40625 46.890625 
Q 22.3125 44.4375 30.421875 42.921875 
L 36.375 41.703125 
Q 47.40625 39.59375 52.65625 34.296875 
Q 57.90625 29 57.90625 20.125 
Q 57.90625 9.515625 50.796875 4.046875 
Q 43.703125 -1.421875 29.984375 -1.421875 
Q 24.8125 -1.421875 18.96875 -0.25 
Q 13.140625 0.921875 6.890625 3.21875 
L 6.890625 13.375 
Q 12.890625 10.015625 18.65625 8.296875 
Q 24.421875 6.59375 29.984375 6.59375 
Q 38.421875 6.59375 43.015625 9.90625 
Q 47.609375 13.234375 47.609375 19.390625 
Q 47.609375 24.75 44.3125 27.78125 
Q 41.015625 30.8125 33.5 32.328125 
L 27.484375 33.5 
Q 16.453125 35.6875 11.515625 40.375 
Q 6.59375 45.0625 6.59375 53.421875 
Q 6.59375 63.09375 13.40625 68.65625 
Q 20.21875 74.21875 32.171875 74.21875 
Q 37.3125 74.21875 42.625 73.28125 
Q 47.953125 72.359375 53.515625 70.515625 
z
" id="DejaVuSans-53"/>
     <path d="M 19.671875 64.796875 
L 19.671875 37.40625 
L 32.078125 37.40625 
Q 38.96875 37.40625 42.71875 40.96875 
Q 46.484375 44.53125 46.484375 51.125 
Q 46.484375 57.671875 42.71875 61.234375 
Q 38.96875 64.796875 32.078125 64.796875 
z
M 9.8125 72.90625 
L 32.078125 72.90625 
Q 44.34375 72.90625 50.609375 67.359375 
Q 56.890625 61.8125 56.890625 51.125 
Q 56.890625 40.328125 50.609375 34.8125 
Q 44.34375 29.296875 32.078125 29.296875 
L 19.671875 29.296875 
L 19.671875 0 
L 9.8125 0 
z
" id="DejaVuSans-50"/>
    </defs>
    <g transform="translate(369.18424 230.05569)scale(0.17 -0.17)">
     <use xlink:href="#DejaVuSans-43"/>
     <use x="69.824219" xlink:href="#DejaVuSans-4d"/>
     <use x="156.103516" xlink:href="#DejaVuSans-41"/>
     <use x="224.511719" xlink:href="#DejaVuSans-20"/>
     <use x="256.298828" xlink:href="#DejaVuSans-45"/>
     <use x="319.482422" xlink:href="#DejaVuSans-53"/>
     <use x="382.958984" xlink:href="#DejaVuSans-20"/>
     <use x="414.746094" xlink:href="#DejaVuSans-50"/>
     <use x="475.048828" xlink:href="#DejaVuSans-50"/>
     <use x="535.351562" xlink:href="#DejaVuSans-4d"/>
    </g>
   </g>
   <g id="text_15">
    <!-- CMA ES CSA -->
    <g transform="translate(369.18424 165.887769)scale(0.17 -0.17)">
     <use xlink:href="#DejaVuSans-43"/>
     <use x="69.824219" xlink:href="#DejaVuSans-4d"/>
     <use x="156.103516" xlink:href="#DejaVuSans-41"/>
     <use x="224.511719" xlink:href="#DejaVuSans-20"/>
     <use x="256.298828" xlink:href="#DejaVuSans-45"/>
     <use x="319.482422" xlink:href="#DejaVuSans-53"/>
     <use x="382.958984" xlink:href="#DejaVuSans-20"/>
     <use x="414.746094" xlink:href="#DejaVuSans-43"/>
     <use x="484.570312" xlink:href="#DejaVuSans-53"/>
     <use x="548.0625" xlink:href="#DejaVuSans-41"/>
    </g>
   </g>
   <g id="text_16">
    <!-- CMAES posi -->
    <g transform="translate(369.18424 101.719848)scale(0.17 -0.17)">
     <use xlink:href="#DejaVuSans-43"/>
     <use x="69.824219" xlink:href="#DejaVuSans-4d"/>
     <use x="156.103516" xlink:href="#DejaVuSans-41"/>
     <use x="224.511719" xlink:href="#DejaVuSans-45"/>
     <use x="287.695312" xlink:href="#DejaVuSans-53"/>
     <use x="351.171875" xlink:href="#DejaVuSans-20"/>
     <use x="382.958984" xlink:href="#DejaVuSans-70"/>
     <use x="446.435547" xlink:href="#DejaVuSans-6f"/>
     <use x="507.617188" xlink:href="#DejaVuSans-73"/>
     <use x="559.716797" xlink:href="#DejaVuSans-69"/>
    </g>
   </g>
   <g id="text_17">
    <!-- best 2009 -->
    <defs>
     <path d="M 48.6875 27.296875 
Q 48.6875 37.203125 44.609375 42.84375 
Q 40.53125 48.484375 33.40625 48.484375 
Q 26.265625 48.484375 22.1875 42.84375 
Q 18.109375 37.203125 18.109375 27.296875 
Q 18.109375 17.390625 22.1875 11.75 
Q 26.265625 6.109375 33.40625 6.109375 
Q 40.53125 6.109375 44.609375 11.75 
Q 48.6875 17.390625 48.6875 27.296875 
z
M 18.109375 46.390625 
Q 20.953125 51.265625 25.265625 53.625 
Q 29.59375 56 35.59375 56 
Q 45.5625 56 51.78125 48.09375 
Q 58.015625 40.1875 58.015625 27.296875 
Q 58.015625 14.40625 51.78125 6.484375 
Q 45.5625 -1.421875 35.59375 -1.421875 
Q 29.59375 -1.421875 25.265625 0.953125 
Q 20.953125 3.328125 18.109375 8.203125 
L 18.109375 0 
L 9.078125 0 
L 9.078125 75.984375 
L 18.109375 75.984375 
z
" id="DejaVuSans-62"/>
     <path d="M 10.984375 1.515625 
L 10.984375 10.5 
Q 14.703125 8.734375 18.5 7.8125 
Q 22.3125 6.890625 25.984375 6.890625 
Q 35.75 6.890625 40.890625 13.453125 
Q 46.046875 20.015625 46.78125 33.40625 
Q 43.953125 29.203125 39.59375 26.953125 
Q 35.25 24.703125 29.984375 24.703125 
Q 19.046875 24.703125 12.671875 31.3125 
Q 6.296875 37.9375 6.296875 49.421875 
Q 6.296875 60.640625 12.9375 67.421875 
Q 19.578125 74.21875 30.609375 74.21875 
Q 43.265625 74.21875 49.921875 64.515625 
Q 56.59375 54.828125 56.59375 36.375 
Q 56.59375 19.140625 48.40625 8.859375 
Q 40.234375 -1.421875 26.421875 -1.421875 
Q 22.703125 -1.421875 18.890625 -0.6875 
Q 15.09375 0.046875 10.984375 1.515625 
z
M 30.609375 32.421875 
Q 37.25 32.421875 41.125 36.953125 
Q 45.015625 41.5 45.015625 49.421875 
Q 45.015625 57.28125 41.125 61.84375 
Q 37.25 66.40625 30.609375 66.40625 
Q 23.96875 66.40625 20.09375 61.84375 
Q 16.21875 57.28125 16.21875 49.421875 
Q 16.21875 41.5 20.09375 36.953125 
Q 23.96875 32.421875 30.609375 32.421875 
z
" id="DejaVuSans-39"/>
    </defs>
    <g transform="translate(369.18424 37.551928)scale(0.17 -0.17)">
     <use xlink:href="#DejaVuSans-62"/>
     <use x="63.476562" xlink:href="#DejaVuSans-65"/>
     <use x="125" xlink:href="#DejaVuSans-73"/>
     <use x="177.099609" xlink:href="#DejaVuSans-74"/>
     <use x="216.308594" xlink:href="#DejaVuSans-20"/>
     <use x="248.095703" xlink:href="#DejaVuSans-32"/>
     <use x="311.71875" xlink:href="#DejaVuSans-30"/>
     <use x="375.341797" xlink:href="#DejaVuSans-30"/>
     <use x="438.964844" xlink:href="#DejaVuSans-39"/>
    </g>
   </g>
   <g id="text_18">
    <!-- bbob f4, 2-D -->
    <defs>
     <path d="M 19.671875 64.796875 
L 19.671875 8.109375 
L 31.59375 8.109375 
Q 46.6875 8.109375 53.6875 14.9375 
Q 60.6875 21.78125 60.6875 36.53125 
Q 60.6875 51.171875 53.6875 57.984375 
Q 46.6875 64.796875 31.59375 64.796875 
z
M 9.8125 72.90625 
L 30.078125 72.90625 
Q 51.265625 72.90625 61.171875 64.09375 
Q 71.09375 55.28125 71.09375 36.53125 
Q 71.09375 17.671875 61.125 8.828125 
Q 51.171875 0 30.078125 0 
L 9.8125 0 
z
" id="DejaVuSans-44"/>
    </defs>
    <g transform="translate(58.89048 35.290806)scale(0.102 -0.102)">
     <use xlink:href="#DejaVuSans-62"/>
     <use x="63.476562" xlink:href="#DejaVuSans-62"/>
     <use x="126.953125" xlink:href="#DejaVuSans-6f"/>
     <use x="188.134766" xlink:href="#DejaVuSans-62"/>
     <use x="251.611328" xlink:href="#DejaVuSans-20"/>
     <use x="283.398438" xlink:href="#DejaVuSans-66"/>
     <use x="318.603516" xlink:href="#DejaVuSans-34"/>
     <use x="382.226562" xlink:href="#DejaVuSans-2c"/>
     <use x="414.013672" xlink:href="#DejaVuSans-20"/>
     <use x="445.800781" xlink:href="#DejaVuSans-32"/>
     <use x="509.423828" xlink:href="#DejaVuSans-2d"/>
     <use x="545.507812" xlink:href="#DejaVuSans-44"/>
    </g>
    <!-- 51 targets: 100..1e-08 -->
    <defs>
     <path d="M 10.796875 72.90625 
L 49.515625 72.90625 
L 49.515625 64.59375 
L 19.828125 64.59375 
L 19.828125 46.734375 
Q 21.96875 47.46875 24.109375 47.828125 
Q 26.265625 48.1875 28.421875 48.1875 
Q 40.625 48.1875 47.75 41.5 
Q 54.890625 34.8125 54.890625 23.390625 
Q 54.890625 11.625 47.5625 5.09375 
Q 40.234375 -1.421875 26.90625 -1.421875 
Q 22.3125 -1.421875 17.546875 -0.640625 
Q 12.796875 0.140625 7.71875 1.703125 
L 7.71875 11.625 
Q 12.109375 9.234375 16.796875 8.0625 
Q 21.484375 6.890625 26.703125 6.890625 
Q 35.15625 6.890625 40.078125 11.328125 
Q 45.015625 15.765625 45.015625 23.390625 
Q 45.015625 31 40.078125 35.4375 
Q 35.15625 39.890625 26.703125 39.890625 
Q 22.75 39.890625 18.8125 39.015625 
Q 14.890625 38.140625 10.796875 36.28125 
z
" id="DejaVuSans-35"/>
     <path d="M 11.71875 12.40625 
L 22.015625 12.40625 
L 22.015625 0 
L 11.71875 0 
z
M 11.71875 51.703125 
L 22.015625 51.703125 
L 22.015625 39.3125 
L 11.71875 39.3125 
z
" id="DejaVuSans-3a"/>
    </defs>
    <g transform="translate(58.89048 46.712575)scale(0.102 -0.102)">
     <use xlink:href="#DejaVuSans-35"/>
     <use x="63.623047" xlink:href="#DejaVuSans-31"/>
     <use x="127.246094" xlink:href="#DejaVuSans-20"/>
     <use x="159.033203" xlink:href="#DejaVuSans-74"/>
     <use x="198.242188" xlink:href="#DejaVuSans-61"/>
     <use x="259.521484" xlink:href="#DejaVuSans-72"/>
     <use x="300.619141" xlink:href="#DejaVuSans-67"/>
     <use x="364.095703" xlink:href="#DejaVuSans-65"/>
     <use x="425.619141" xlink:href="#DejaVuSans-74"/>
     <use x="464.828125" xlink:href="#DejaVuSans-73"/>
     <use x="516.927734" xlink:href="#DejaVuSans-3a"/>
     <use x="550.619141" xlink:href="#DejaVuSans-20"/>
     <use x="582.40625" xlink:href="#DejaVuSans-31"/>
     <use x="646.029297" xlink:href="#DejaVuSans-30"/>
     <use x="709.652344" xlink:href="#DejaVuSans-30"/>
     <use x="773.275391" xlink:href="#DejaVuSans-2e"/>
     <use x="805.0625" xlink:href="#DejaVuSans-2e"/>
     <use x="836.849609" xlink:href="#DejaVuSans-31"/>
     <use x="900.472656" xlink:href="#DejaVuSans-65"/>
     <use x="961.996094" xlink:href="#DejaVuSans-2d"/>
     <use x="998.080078" xlink:href="#DejaVuSans-30"/>
     <use x="1061.703125" xlink:href="#DejaVuSans-38"/>
    </g>
    <!-- 15 instances -->
    <g transform="translate(58.89048 58.134344)scale(0.102 -0.102)">
     <use xlink:href="#DejaVuSans-31"/>
     <use x="63.623047" xlink:href="#DejaVuSans-35"/>
     <use x="127.246094" xlink:href="#DejaVuSans-20"/>
     <use x="159.033203" xlink:href="#DejaVuSans-69"/>
     <use x="186.816406" xlink:href="#DejaVuSans-6e"/>
     <use x="250.195312" xlink:href="#DejaVuSans-73"/>
     <use x="302.294922" xlink:href="#DejaVuSans-74"/>
     <use x="341.503906" xlink:href="#DejaVuSans-61"/>
     <use x="402.783203" xlink:href="#DejaVuSans-6e"/>
     <use x="466.162109" xlink:href="#DejaVuSans-63"/>
     <use x="521.142578" xlink:href="#DejaVuSans-65"/>
     <use x="582.666016" xlink:href="#DejaVuSans-73"/>
    </g>
   </g>
   <g id="text_19">
    <!-- v0.0.0 -->
    <g style="fill:#808080;" transform="translate(178.96275 290.099912)scale(0.1 -0.1)">
     <use xlink:href="#DejaVuSans-76"/>
     <use x="59.179688" xlink:href="#DejaVuSans-30"/>
     <use x="122.802734" xlink:href="#DejaVuSans-2e"/>
     <use x="154.589844" xlink:href="#DejaVuSans-30"/>
     <use x="218.212891" xlink:href="#DejaVuSans-2e"/>
     <use x="250" xlink:href="#DejaVuSans-30"/>
    </g>
   </g>
   <g id="text_20">
    <!-- 4 Skew Rastrigin-Bueche separ -->
    <defs>
     <path d="M 9.078125 75.984375 
L 18.109375 75.984375 
L 18.109375 31.109375 
L 44.921875 54.6875 
L 56.390625 54.6875 
L 27.390625 29.109375 
L 57.625 0 
L 45.90625 0 
L 18.109375 26.703125 
L 18.109375 0 
L 9.078125 0 
z
" id="DejaVuSans-6b"/>
     <path d="M 44.390625 34.1875 
Q 47.5625 33.109375 50.5625 29.59375 
Q 53.5625 26.078125 56.59375 19.921875 
L 66.609375 0 
L 56 0 
L 46.6875 18.703125 
Q 43.0625 26.03125 39.671875 28.421875 
Q 36.28125 30.8125 30.421875 30.8125 
L 19.671875 30.8125 
L 19.671875 0 
L 9.8125 0 
L 9.8125 72.90625 
L 32.078125 72.90625 
Q 44.578125 72.90625 50.734375 67.671875 
Q 56.890625 62.453125 56.890625 51.90625 
Q 56.890625 45.015625 53.6875 40.46875 
Q 50.484375 35.9375 44.390625 34.1875 
z
M 19.671875 64.796875 
L 19.671875 38.921875 
L 32.078125 38.921875 
Q 39.203125 38.921875 42.84375 42.21875 
Q 46.484375 45.515625 46.484375 51.90625 
Q 46.484375 58.296875 42.84375 61.546875 
Q 39.203125 64.796875 32.078125 64.796875 
z
" id="DejaVuSans-52"/>
     <path d="M 19.671875 34.8125 
L 19.671875 8.109375 
L 35.5 8.109375 
Q 43.453125 8.109375 47.28125 11.40625 
Q 51.125 14.703125 51.125 21.484375 
Q 51.125 28.328125 47.28125 31.5625 
Q 43.453125 34.8125 35.5 34.8125 
z
M 19.671875 64.796875 
L 19.671875 42.828125 
L 34.28125 42.828125 
Q 41.5 42.828125 45.03125 45.53125 
Q 48.578125 48.25 48.578125 53.8125 
Q 48.578125 59.328125 45.03125 62.0625 
Q 41.5 64.796875 34.28125 64.796875 
z
M 9.8125 72.90625 
L 35.015625 72.90625 
Q 46.296875 72.90625 52.390625 68.21875 
Q 58.5 63.53125 58.5 54.890625 
Q 58.5 48.1875 55.375 44.234375 
Q 52.25 40.28125 46.1875 39.3125 
Q 53.46875 37.75 57.5 32.78125 
Q 61.53125 27.828125 61.53125 20.40625 
Q 61.53125 10.640625 54.890625 5.3125 
Q 48.25 0 35.984375 0 
L 9.8125 0 
z
" id="DejaVuSans-42"/>
     <path d="M 54.890625 33.015625 
L 54.890625 0 
L 45.90625 0 
L 45.90625 32.71875 
Q 45.90625 40.484375 42.875 44.328125 
Q 39.84375 48.1875 33.796875 48.1875 
Q 26.515625 48.1875 22.3125 43.546875 
Q 18.109375 38.921875 18.109375 30.90625 
L 18.109375 0 
L 9.078125 0 
L 9.078125 75.984375 
L 18.109375 75.984375 
L 18.109375 46.1875 
Q 21.34375 51.125 25.703125 53.5625 
Q 30.078125 56 35.796875 56 
Q 45.21875 56 50.046875 50.171875 
Q 54.890625 44.34375 54.890625 33.015625 
z
" id="DejaVuSans-68"/>
    </defs>
    <g transform="translate(38.8315 18.84)scale(0.2 -0.2)">
     <use xlink:href="#DejaVuSans-34"/>
     <use x="63.623047" xlink:href="#DejaVuSans-20"/>
     <use x="95.410156" xlink:href="#DejaVuSans-53"/>
     <use x="158.886719" xlink:href="#DejaVuSans-6b"/>
     <use x="216.75" xlink:href="#DejaVuSans-65"/>
     <use x="278.273438" xlink:href="#DejaVuSans-77"/>
     <use x="360.060547" xlink:href="#DejaVuSans-20"/>
     <use x="391.847656" xlink:href="#DejaVuSans-52"/>
     <use x="461.298828" xlink:href="#DejaVuSans-61"/>
     <use x="522.578125" xlink:href="#DejaVuSans-73"/>
     <use x="574.677734" xlink:href="#DejaVuSans-74"/>
     <use x="613.886719" xlink:href="#DejaVuSans-72"/>
     <use x="655" xlink:href="#DejaVuSans-69"/>
     <use x="682.783203" xlink:href="#DejaVuSans-67"/>
     <use x="746.259766" xlink:href="#DejaVuSans-69"/>
     <use x="774.042969" xlink:href="#DejaVuSans-6e"/>
     <use x="837.421875" xlink:href="#DejaVuSans-2d"/>
     <use x="873.458984" xlink:href="#DejaVuSans-42"/>
     <use x="942.0625" xlink:href="#DejaVuSans-75"/>
     <use x="1005.441406" xlink:href="#DejaVuSans-65"/>
     <use x="1066.964844" xlink:href="#DejaVuSans-63"/>
     <use x="1121.945312" xlink:href="#DejaVuSans-68"/>
     <use x="1185.324219" xlink:href="#DejaVuSans-65"/>
     <use x="1246.847656" xlink:href="#DejaVuSans-20"/>
     <use x="1278.634766" xlink:href="#DejaVuSans-73"/>
     <use x="1330.734375" xlink:href="#DejaVuSans-65"/>
     <use x="1392.257812" xlink:href="#DejaVuSans-70"/>
     <use x="1455.734375" xlink:href="#DejaVuSans-61"/>
     <use x="1517.013672" xlink:href="#DejaVuSans-72"/>
    </g>
   </g>
  </g>
 </g>
 <defs>
  <clipPath id="p55b1f4a6a4">
   <rect height="270.04" width="277.048" x="56.12" y="24.84"/>
  </clipPath>
 </defs>
</svg>
