<?xml version="1.0" encoding="utf-8" standalone="no"?>
<!DOCTYPE svg PUBLIC "-//W3C//DTD SVG 1.1//EN"
  "http://www.w3.org/Graphics/SVG/1.1/DTD/svg11.dtd">
<!-- Created with matplotlib (http://matplotlib.org/) -->
<svg height="345pt" version="1.1" viewBox="0 0 460 345" width="460pt" xmlns="http://www.w3.org/2000/svg" xmlns:xlink="http://www.w3.org/1999/xlink">
 <defs>
  <style type="text/css">
*{stroke-linecap:butt;stroke-linejoin:round;}
  </style>
 </defs>
 <g id="figure_1">
  <g id="patch_1">
   <path d="M 0 345.6 
L 460.8 345.6 
L 460.8 0 
L 0 0 
z
" style="fill:#ffffff;"/>
  </g>
  <g id="axes_1">
   <g id="patch_2">
    <path d="M 56.12 294.88 
L 333.168 294.88 
L 333.168 24.84 
L 56.12 24.84 
z
" style="fill:#ffffff;"/>
   </g>
   <g id="line2d_1">
    <path d="M 116.834124 294.88 
L 116.834124 289.637523 
L 119.440629 289.637523 
L 119.440629 284.395046 
L 122.003676 284.395046 
L 122.003676 279.152568 
L 126.323427 279.152568 
L 126.323427 273.910091 
L 127.28016 273.910091 
L 127.28016 268.667614 
L 129.096637 268.667614 
L 129.096637 263.425137 
L 131.907344 263.425137 
L 131.907344 258.18266 
L 132.882847 258.18266 
L 132.882847 252.940182 
L 134.176407 252.940182 
L 134.176407 247.697705 
L 134.8942 247.697705 
L 134.8942 242.455228 
L 135.276571 242.455228 
L 135.276571 237.212751 
L 135.717765 237.212751 
L 135.717765 231.970274 
L 135.983745 231.970274 
L 135.983745 226.727797 
L 136.883542 226.727797 
L 136.883542 221.485319 
L 137.498586 221.485319 
L 137.498586 216.242842 
L 137.648969 216.242842 
L 137.648969 211.000365 
L 137.738571 211.000365 
L 137.738571 205.757888 
L 137.916386 205.757888 
L 137.916386 200.515411 
L 138.004608 200.515411 
L 138.004608 195.272933 
L 138.381758 195.272933 
L 138.381758 190.030456 
L 138.609803 190.030456 
L 138.609803 184.787979 
L 138.7227 184.787979 
L 138.7227 179.545502 
L 138.834862 179.545502 
L 138.834862 174.303025 
L 138.918505 174.303025 
L 138.918505 169.060547 
L 139.001743 169.060547 
L 139.001743 163.81807 
L 139.139583 163.81807 
L 139.139583 158.575593 
L 139.249066 158.575593 
L 139.249066 153.333116 
L 139.330722 153.333116 
L 139.330722 148.090639 
L 139.438997 148.090639 
L 139.438997 142.848162 
L 139.600142 142.848162 
L 139.600142 137.605684 
L 139.680151 137.605684 
L 139.680151 132.363207 
L 139.812678 132.363207 
L 139.812678 127.12073 
L 139.917968 127.12073 
L 139.917968 121.878253 
L 141.328075 121.878253 
L 141.328075 116.635776 
L 141.376358 116.635776 
L 141.376358 111.393298 
L 143.967351 111.393298 
L 143.967351 106.150821 
L 144.091308 106.150821 
L 144.091308 100.908344 
L 144.173452 100.908344 
L 144.173452 95.665867 
L 144.275583 95.665867 
L 144.275583 90.42339 
L 144.356853 90.42339 
L 144.356853 85.180912 
L 144.457904 85.180912 
L 144.457904 79.938435 
L 144.558363 79.938435 
L 144.558363 74.695958 
L 144.678145 74.695958 
L 144.678145 69.453481 
L 144.816844 69.453481 
L 144.816844 64.211004 
L 144.915234 64.211004 
L 144.915234 58.968526 
L 144.993542 58.968526 
L 144.993542 53.726049 
L 145.090928 53.726049 
L 145.090928 48.483572 
L 145.168442 48.483572 
L 145.168442 43.241095 
L 145.284061 43.241095 
L 145.284061 37.998618 
L 145.322428 37.998618 
L 145.322428 32.756141 
L 145.417974 32.756141 
L 145.417974 27.513663 
L 333.168 27.513663 
" style="fill:none;stroke:#f5deb3;stroke-linecap:square;stroke-width:4;"/>
   </g>
   <g id="line2d_2">
    <defs>
     <path d="M -0 7.778175 
L 7.778175 0 
L 0 -7.778175 
L -7.778175 -0 
z
" id="mb696d23b11" style="stroke:#f5deb3;stroke-linejoin:miter;stroke-width:1.5;"/>
    </defs>
    <g>
     <use style="fill:#f5deb3;stroke:#f5deb3;stroke-linejoin:miter;stroke-width:1.5;" x="138.381758" xlink:href="#mb696d23b11" y="190.030456"/>
     <use style="fill:#f5deb3;stroke:#f5deb3;stroke-linejoin:miter;stroke-width:1.5;" x="144.993542" xlink:href="#mb696d23b11" y="58.968526"/>
     <use style="fill:#f5deb3;stroke:#f5deb3;stroke-linejoin:miter;stroke-width:1.5;" x="145.417974" xlink:href="#mb696d23b11" y="27.513663"/>
     <use style="fill:#f5deb3;stroke:#f5deb3;stroke-linejoin:miter;stroke-width:1.5;" x="145.417974" xlink:href="#mb696d23b11" y="27.513663"/>
     <use style="fill:#f5deb3;stroke:#f5deb3;stroke-linejoin:miter;stroke-width:1.5;" x="333.168" xlink:href="#mb696d23b11" y="27.513663"/>
    </g>
   </g>
   <g id="line2d_3">
    <path style="fill:none;stroke:#f5deb3;stroke-linecap:square;stroke-width:4;"/>
    <g/>
   </g>
   <g id="line2d_4">
    <path d="M 333.168 27.513663 
L 363.64328 32.86099 
" style="fill:none;stroke:#f5deb3;stroke-linecap:square;stroke-width:4;"/>
    <g>
     <use style="fill:#f5deb3;stroke:#f5deb3;stroke-linejoin:miter;stroke-width:1.5;" x="333.168" xlink:href="#mb696d23b11" y="27.513663"/>
     <use style="fill:#f5deb3;stroke:#f5deb3;stroke-linejoin:miter;stroke-width:1.5;" x="363.64328" xlink:href="#mb696d23b11" y="32.86099"/>
    </g>
   </g>
   <g id="matplotlib.axis_1">
    <g id="xtick_1">
     <g id="line2d_5">
      <path clip-path="url(#pddc7e5ee49)" d="M 56.12 294.88 
L 56.12 24.84 
" style="fill:none;stroke:#b0b0b0;stroke-linecap:square;stroke-width:0.8;"/>
     </g>
     <g id="line2d_6">
      <defs>
       <path d="M 0 0 
L 0 3.5 
" id="m9212f45d85" style="stroke:#000000;stroke-width:0.8;"/>
      </defs>
      <g>
       <use style="stroke:#000000;stroke-width:0.8;" x="56.12" xlink:href="#m9212f45d85" y="294.88"/>
      </g>
     </g>
     <g id="text_1">
      <!-- 0 -->
      <defs>
       <path d="M 31.78125 66.40625 
Q 24.171875 66.40625 20.328125 58.90625 
Q 16.5 51.421875 16.5 36.375 
Q 16.5 21.390625 20.328125 13.890625 
Q 24.171875 6.390625 31.78125 6.390625 
Q 39.453125 6.390625 43.28125 13.890625 
Q 47.125 21.390625 47.125 36.375 
Q 47.125 51.421875 43.28125 58.90625 
Q 39.453125 66.40625 31.78125 66.40625 
z
M 31.78125 74.21875 
Q 44.046875 74.21875 50.515625 64.515625 
Q 56.984375 54.828125 56.984375 36.375 
Q 56.984375 17.96875 50.515625 8.265625 
Q 44.046875 -1.421875 31.78125 -1.421875 
Q 19.53125 -1.421875 13.0625 8.265625 
Q 6.59375 17.96875 6.59375 36.375 
Q 6.59375 54.828125 13.0625 64.515625 
Q 19.53125 74.21875 31.78125 74.21875 
z
" id="DejaVuSans-30"/>
      </defs>
      <g transform="translate(49.7575 317.076875)scale(0.2 -0.2)">
       <use xlink:href="#DejaVuSans-30"/>
      </g>
     </g>
    </g>
    <g id="xtick_2">
     <g id="line2d_7">
      <path clip-path="url(#pddc7e5ee49)" d="M 135.276571 294.88 
L 135.276571 24.84 
" style="fill:none;stroke:#b0b0b0;stroke-linecap:square;stroke-width:0.8;"/>
     </g>
     <g id="line2d_8">
      <g>
       <use style="stroke:#000000;stroke-width:0.8;" x="135.276571" xlink:href="#m9212f45d85" y="294.88"/>
      </g>
     </g>
     <g id="text_2">
      <!-- 2 -->
      <defs>
       <path d="M 19.1875 8.296875 
L 53.609375 8.296875 
L 53.609375 0 
L 7.328125 0 
L 7.328125 8.296875 
Q 12.9375 14.109375 22.625 23.890625 
Q 32.328125 33.6875 34.8125 36.53125 
Q 39.546875 41.84375 41.421875 45.53125 
Q 43.3125 49.21875 43.3125 52.78125 
Q 43.3125 58.59375 39.234375 62.25 
Q 35.15625 65.921875 28.609375 65.921875 
Q 23.96875 65.921875 18.8125 64.3125 
Q 13.671875 62.703125 7.8125 59.421875 
L 7.8125 69.390625 
Q 13.765625 71.78125 18.9375 73 
Q 24.125 74.21875 28.421875 74.21875 
Q 39.75 74.21875 46.484375 68.546875 
Q 53.21875 62.890625 53.21875 53.421875 
Q 53.21875 48.921875 51.53125 44.890625 
Q 49.859375 40.875 45.40625 35.40625 
Q 44.1875 33.984375 37.640625 27.21875 
Q 31.109375 20.453125 19.1875 8.296875 
z
" id="DejaVuSans-32"/>
      </defs>
      <g transform="translate(128.914071 317.076875)scale(0.2 -0.2)">
       <use xlink:href="#DejaVuSans-32"/>
      </g>
     </g>
    </g>
    <g id="xtick_3">
     <g id="line2d_9">
      <path clip-path="url(#pddc7e5ee49)" d="M 214.433143 294.88 
L 214.433143 24.84 
" style="fill:none;stroke:#b0b0b0;stroke-linecap:square;stroke-width:0.8;"/>
     </g>
     <g id="line2d_10">
      <g>
       <use style="stroke:#000000;stroke-width:0.8;" x="214.433143" xlink:href="#m9212f45d85" y="294.88"/>
      </g>
     </g>
     <g id="text_3">
      <!-- 4 -->
      <defs>
       <path d="M 37.796875 64.3125 
L 12.890625 25.390625 
L 37.796875 25.390625 
z
M 35.203125 72.90625 
L 47.609375 72.90625 
L 47.609375 25.390625 
L 58.015625 25.390625 
L 58.015625 17.1875 
L 47.609375 17.1875 
L 47.609375 0 
L 37.796875 0 
L 37.796875 17.1875 
L 4.890625 17.1875 
L 4.890625 26.703125 
z
" id="DejaVuSans-34"/>
      </defs>
      <g transform="translate(208.070643 317.076875)scale(0.2 -0.2)">
       <use xlink:href="#DejaVuSans-34"/>
      </g>
     </g>
    </g>
    <g id="xtick_4">
     <g id="line2d_11">
      <path clip-path="url(#pddc7e5ee49)" d="M 293.589714 294.88 
L 293.589714 24.84 
" style="fill:none;stroke:#b0b0b0;stroke-linecap:square;stroke-width:0.8;"/>
     </g>
     <g id="line2d_12">
      <g>
       <use style="stroke:#000000;stroke-width:0.8;" x="293.589714" xlink:href="#m9212f45d85" y="294.88"/>
      </g>
     </g>
     <g id="text_4">
      <!-- 6 -->
      <defs>
       <path d="M 33.015625 40.375 
Q 26.375 40.375 22.484375 35.828125 
Q 18.609375 31.296875 18.609375 23.390625 
Q 18.609375 15.53125 22.484375 10.953125 
Q 26.375 6.390625 33.015625 6.390625 
Q 39.65625 6.390625 43.53125 10.953125 
Q 47.40625 15.53125 47.40625 23.390625 
Q 47.40625 31.296875 43.53125 35.828125 
Q 39.65625 40.375 33.015625 40.375 
z
M 52.59375 71.296875 
L 52.59375 62.3125 
Q 48.875 64.0625 45.09375 64.984375 
Q 41.3125 65.921875 37.59375 65.921875 
Q 27.828125 65.921875 22.671875 59.328125 
Q 17.53125 52.734375 16.796875 39.40625 
Q 19.671875 43.65625 24.015625 45.921875 
Q 28.375 48.1875 33.59375 48.1875 
Q 44.578125 48.1875 50.953125 41.515625 
Q 57.328125 34.859375 57.328125 23.390625 
Q 57.328125 12.15625 50.6875 5.359375 
Q 44.046875 -1.421875 33.015625 -1.421875 
Q 20.359375 -1.421875 13.671875 8.265625 
Q 6.984375 17.96875 6.984375 36.375 
Q 6.984375 53.65625 15.1875 63.9375 
Q 23.390625 74.21875 37.203125 74.21875 
Q 40.921875 74.21875 44.703125 73.484375 
Q 48.484375 72.75 52.59375 71.296875 
z
" id="DejaVuSans-36"/>
      </defs>
      <g transform="translate(287.227214 317.076875)scale(0.2 -0.2)">
       <use xlink:href="#DejaVuSans-36"/>
      </g>
     </g>
    </g>
    <g id="xtick_5">
     <g id="line2d_13">
      <path clip-path="url(#pddc7e5ee49)" d="M 56.12 294.88 
L 56.12 24.84 
" style="fill:none;stroke:#b0b0b0;stroke-linecap:square;stroke-width:0.8;"/>
     </g>
     <g id="line2d_14">
      <defs>
       <path d="M 0 0 
L 0 2 
" id="m2e0a8d80fa" style="stroke:#000000;stroke-width:0.6;"/>
      </defs>
      <g>
       <use style="stroke:#000000;stroke-width:0.6;" x="56.12" xlink:href="#m2e0a8d80fa" y="294.88"/>
      </g>
     </g>
    </g>
    <g id="xtick_6">
     <g id="line2d_15">
      <path clip-path="url(#pddc7e5ee49)" d="M 95.698286 294.88 
L 95.698286 24.84 
" style="fill:none;stroke:#b0b0b0;stroke-linecap:square;stroke-width:0.8;"/>
     </g>
     <g id="line2d_16">
      <g>
       <use style="stroke:#000000;stroke-width:0.6;" x="95.698286" xlink:href="#m2e0a8d80fa" y="294.88"/>
      </g>
     </g>
    </g>
    <g id="xtick_7">
     <g id="line2d_17">
      <path clip-path="url(#pddc7e5ee49)" d="M 135.276571 294.88 
L 135.276571 24.84 
" style="fill:none;stroke:#b0b0b0;stroke-linecap:square;stroke-width:0.8;"/>
     </g>
     <g id="line2d_18">
      <g>
       <use style="stroke:#000000;stroke-width:0.6;" x="135.276571" xlink:href="#m2e0a8d80fa" y="294.88"/>
      </g>
     </g>
    </g>
    <g id="xtick_8">
     <g id="line2d_19">
      <path clip-path="url(#pddc7e5ee49)" d="M 174.854857 294.88 
L 174.854857 24.84 
" style="fill:none;stroke:#b0b0b0;stroke-linecap:square;stroke-width:0.8;"/>
     </g>
     <g id="line2d_20">
      <g>
       <use style="stroke:#000000;stroke-width:0.6;" x="174.854857" xlink:href="#m2e0a8d80fa" y="294.88"/>
      </g>
     </g>
    </g>
    <g id="xtick_9">
     <g id="line2d_21">
      <path clip-path="url(#pddc7e5ee49)" d="M 214.433143 294.88 
L 214.433143 24.84 
" style="fill:none;stroke:#b0b0b0;stroke-linecap:square;stroke-width:0.8;"/>
     </g>
     <g id="line2d_22">
      <g>
       <use style="stroke:#000000;stroke-width:0.6;" x="214.433143" xlink:href="#m2e0a8d80fa" y="294.88"/>
      </g>
     </g>
    </g>
    <g id="xtick_10">
     <g id="line2d_23">
      <path clip-path="url(#pddc7e5ee49)" d="M 254.011429 294.88 
L 254.011429 24.84 
" style="fill:none;stroke:#b0b0b0;stroke-linecap:square;stroke-width:0.8;"/>
     </g>
     <g id="line2d_24">
      <g>
       <use style="stroke:#000000;stroke-width:0.6;" x="254.011429" xlink:href="#m2e0a8d80fa" y="294.88"/>
      </g>
     </g>
    </g>
    <g id="xtick_11">
     <g id="line2d_25">
      <path clip-path="url(#pddc7e5ee49)" d="M 293.589714 294.88 
L 293.589714 24.84 
" style="fill:none;stroke:#b0b0b0;stroke-linecap:square;stroke-width:0.8;"/>
     </g>
     <g id="line2d_26">
      <g>
       <use style="stroke:#000000;stroke-width:0.6;" x="293.589714" xlink:href="#m2e0a8d80fa" y="294.88"/>
      </g>
     </g>
    </g>
    <g id="xtick_12">
     <g id="line2d_27">
      <path clip-path="url(#pddc7e5ee49)" d="M 333.168 294.88 
L 333.168 24.84 
" style="fill:none;stroke:#b0b0b0;stroke-linecap:square;stroke-width:0.8;"/>
     </g>
     <g id="line2d_28">
      <g>
       <use style="stroke:#000000;stroke-width:0.6;" x="333.168" xlink:href="#m2e0a8d80fa" y="294.88"/>
      </g>
     </g>
    </g>
    <g id="text_5">
     <!-- log10(# f-evals / dimension) -->
     <defs>
      <path d="M 9.421875 75.984375 
L 18.40625 75.984375 
L 18.40625 0 
L 9.421875 0 
z
" id="DejaVuSans-6c"/>
      <path d="M 30.609375 48.390625 
Q 23.390625 48.390625 19.1875 42.75 
Q 14.984375 37.109375 14.984375 27.296875 
Q 14.984375 17.484375 19.15625 11.84375 
Q 23.34375 6.203125 30.609375 6.203125 
Q 37.796875 6.203125 41.984375 11.859375 
Q 46.1875 17.53125 46.1875 27.296875 
Q 46.1875 37.015625 41.984375 42.703125 
Q 37.796875 48.390625 30.609375 48.390625 
z
M 30.609375 56 
Q 42.328125 56 49.015625 48.375 
Q 55.71875 40.765625 55.71875 27.296875 
Q 55.71875 13.875 49.015625 6.21875 
Q 42.328125 -1.421875 30.609375 -1.421875 
Q 18.84375 -1.421875 12.171875 6.21875 
Q 5.515625 13.875 5.515625 27.296875 
Q 5.515625 40.765625 12.171875 48.375 
Q 18.84375 56 30.609375 56 
z
" id="DejaVuSans-6f"/>
      <path d="M 45.40625 27.984375 
Q 45.40625 37.75 41.375 43.109375 
Q 37.359375 48.484375 30.078125 48.484375 
Q 22.859375 48.484375 18.828125 43.109375 
Q 14.796875 37.75 14.796875 27.984375 
Q 14.796875 18.265625 18.828125 12.890625 
Q 22.859375 7.515625 30.078125 7.515625 
Q 37.359375 7.515625 41.375 12.890625 
Q 45.40625 18.265625 45.40625 27.984375 
z
M 54.390625 6.78125 
Q 54.390625 -7.171875 48.1875 -13.984375 
Q 42 -20.796875 29.203125 -20.796875 
Q 24.46875 -20.796875 20.265625 -20.09375 
Q 16.0625 -19.390625 12.109375 -17.921875 
L 12.109375 -9.1875 
Q 16.0625 -11.328125 19.921875 -12.34375 
Q 23.78125 -13.375 27.78125 -13.375 
Q 36.625 -13.375 41.015625 -8.765625 
Q 45.40625 -4.15625 45.40625 5.171875 
L 45.40625 9.625 
Q 42.625 4.78125 38.28125 2.390625 
Q 33.9375 0 27.875 0 
Q 17.828125 0 11.671875 7.65625 
Q 5.515625 15.328125 5.515625 27.984375 
Q 5.515625 40.671875 11.671875 48.328125 
Q 17.828125 56 27.875 56 
Q 33.9375 56 38.28125 53.609375 
Q 42.625 51.21875 45.40625 46.390625 
L 45.40625 54.6875 
L 54.390625 54.6875 
z
" id="DejaVuSans-67"/>
      <path d="M 12.40625 8.296875 
L 28.515625 8.296875 
L 28.515625 63.921875 
L 10.984375 60.40625 
L 10.984375 69.390625 
L 28.421875 72.90625 
L 38.28125 72.90625 
L 38.28125 8.296875 
L 54.390625 8.296875 
L 54.390625 0 
L 12.40625 0 
z
" id="DejaVuSans-31"/>
      <path d="M 31 75.875 
Q 24.46875 64.65625 21.28125 53.65625 
Q 18.109375 42.671875 18.109375 31.390625 
Q 18.109375 20.125 21.3125 9.0625 
Q 24.515625 -2 31 -13.1875 
L 23.1875 -13.1875 
Q 15.875 -1.703125 12.234375 9.375 
Q 8.59375 20.453125 8.59375 31.390625 
Q 8.59375 42.28125 12.203125 53.3125 
Q 15.828125 64.359375 23.1875 75.875 
z
" id="DejaVuSans-28"/>
      <path d="M 51.125 44 
L 36.921875 44 
L 32.8125 27.6875 
L 47.125 27.6875 
z
M 43.796875 71.78125 
L 38.71875 51.515625 
L 52.984375 51.515625 
L 58.109375 71.78125 
L 65.921875 71.78125 
L 60.890625 51.515625 
L 76.125 51.515625 
L 76.125 44 
L 58.984375 44 
L 54.984375 27.6875 
L 70.515625 27.6875 
L 70.515625 20.21875 
L 53.078125 20.21875 
L 48 0 
L 40.1875 0 
L 45.21875 20.21875 
L 30.90625 20.21875 
L 25.875 0 
L 18.015625 0 
L 23.09375 20.21875 
L 7.71875 20.21875 
L 7.71875 27.6875 
L 24.90625 27.6875 
L 29 44 
L 13.28125 44 
L 13.28125 51.515625 
L 30.90625 51.515625 
L 35.890625 71.78125 
z
" id="DejaVuSans-23"/>
      <path id="DejaVuSans-20"/>
      <path d="M 37.109375 75.984375 
L 37.109375 68.5 
L 28.515625 68.5 
Q 23.6875 68.5 21.796875 66.546875 
Q 19.921875 64.59375 19.921875 59.515625 
L 19.921875 54.6875 
L 34.71875 54.6875 
L 34.71875 47.703125 
L 19.921875 47.703125 
L 19.921875 0 
L 10.890625 0 
L 10.890625 47.703125 
L 2.296875 47.703125 
L 2.296875 54.6875 
L 10.890625 54.6875 
L 10.890625 58.5 
Q 10.890625 67.625 15.140625 71.796875 
Q 19.390625 75.984375 28.609375 75.984375 
z
" id="DejaVuSans-66"/>
      <path d="M 4.890625 31.390625 
L 31.203125 31.390625 
L 31.203125 23.390625 
L 4.890625 23.390625 
z
" id="DejaVuSans-2d"/>
      <path d="M 56.203125 29.59375 
L 56.203125 25.203125 
L 14.890625 25.203125 
Q 15.484375 15.921875 20.484375 11.0625 
Q 25.484375 6.203125 34.421875 6.203125 
Q 39.59375 6.203125 44.453125 7.46875 
Q 49.3125 8.734375 54.109375 11.28125 
L 54.109375 2.78125 
Q 49.265625 0.734375 44.1875 -0.34375 
Q 39.109375 -1.421875 33.890625 -1.421875 
Q 20.796875 -1.421875 13.15625 6.1875 
Q 5.515625 13.8125 5.515625 26.8125 
Q 5.515625 40.234375 12.765625 48.109375 
Q 20.015625 56 32.328125 56 
Q 43.359375 56 49.78125 48.890625 
Q 56.203125 41.796875 56.203125 29.59375 
z
M 47.21875 32.234375 
Q 47.125 39.59375 43.09375 43.984375 
Q 39.0625 48.390625 32.421875 48.390625 
Q 24.90625 48.390625 20.390625 44.140625 
Q 15.875 39.890625 15.1875 32.171875 
z
" id="DejaVuSans-65"/>
      <path d="M 2.984375 54.6875 
L 12.5 54.6875 
L 29.59375 8.796875 
L 46.6875 54.6875 
L 56.203125 54.6875 
L 35.6875 0 
L 23.484375 0 
z
" id="DejaVuSans-76"/>
      <path d="M 34.28125 27.484375 
Q 23.390625 27.484375 19.1875 25 
Q 14.984375 22.515625 14.984375 16.5 
Q 14.984375 11.71875 18.140625 8.90625 
Q 21.296875 6.109375 26.703125 6.109375 
Q 34.1875 6.109375 38.703125 11.40625 
Q 43.21875 16.703125 43.21875 25.484375 
L 43.21875 27.484375 
z
M 52.203125 31.203125 
L 52.203125 0 
L 43.21875 0 
L 43.21875 8.296875 
Q 40.140625 3.328125 35.546875 0.953125 
Q 30.953125 -1.421875 24.3125 -1.421875 
Q 15.921875 -1.421875 10.953125 3.296875 
Q 6 8.015625 6 15.921875 
Q 6 25.140625 12.171875 29.828125 
Q 18.359375 34.515625 30.609375 34.515625 
L 43.21875 34.515625 
L 43.21875 35.40625 
Q 43.21875 41.609375 39.140625 45 
Q 35.0625 48.390625 27.6875 48.390625 
Q 23 48.390625 18.546875 47.265625 
Q 14.109375 46.140625 10.015625 43.890625 
L 10.015625 52.203125 
Q 14.9375 54.109375 19.578125 55.046875 
Q 24.21875 56 28.609375 56 
Q 40.484375 56 46.34375 49.84375 
Q 52.203125 43.703125 52.203125 31.203125 
z
" id="DejaVuSans-61"/>
      <path d="M 44.28125 53.078125 
L 44.28125 44.578125 
Q 40.484375 46.53125 36.375 47.5 
Q 32.28125 48.484375 27.875 48.484375 
Q 21.1875 48.484375 17.84375 46.4375 
Q 14.5 44.390625 14.5 40.28125 
Q 14.5 37.15625 16.890625 35.375 
Q 19.28125 33.59375 26.515625 31.984375 
L 29.59375 31.296875 
Q 39.15625 29.25 43.1875 25.515625 
Q 47.21875 21.78125 47.21875 15.09375 
Q 47.21875 7.46875 41.1875 3.015625 
Q 35.15625 -1.421875 24.609375 -1.421875 
Q 20.21875 -1.421875 15.453125 -0.5625 
Q 10.6875 0.296875 5.421875 2 
L 5.421875 11.28125 
Q 10.40625 8.6875 15.234375 7.390625 
Q 20.0625 6.109375 24.8125 6.109375 
Q 31.15625 6.109375 34.5625 8.28125 
Q 37.984375 10.453125 37.984375 14.40625 
Q 37.984375 18.0625 35.515625 20.015625 
Q 33.0625 21.96875 24.703125 23.78125 
L 21.578125 24.515625 
Q 13.234375 26.265625 9.515625 29.90625 
Q 5.8125 33.546875 5.8125 39.890625 
Q 5.8125 47.609375 11.28125 51.796875 
Q 16.75 56 26.8125 56 
Q 31.78125 56 36.171875 55.265625 
Q 40.578125 54.546875 44.28125 53.078125 
z
" id="DejaVuSans-73"/>
      <path d="M 25.390625 72.90625 
L 33.6875 72.90625 
L 8.296875 -9.28125 
L 0 -9.28125 
z
" id="DejaVuSans-2f"/>
      <path d="M 45.40625 46.390625 
L 45.40625 75.984375 
L 54.390625 75.984375 
L 54.390625 0 
L 45.40625 0 
L 45.40625 8.203125 
Q 42.578125 3.328125 38.25 0.953125 
Q 33.9375 -1.421875 27.875 -1.421875 
Q 17.96875 -1.421875 11.734375 6.484375 
Q 5.515625 14.40625 5.515625 27.296875 
Q 5.515625 40.1875 11.734375 48.09375 
Q 17.96875 56 27.875 56 
Q 33.9375 56 38.25 53.625 
Q 42.578125 51.265625 45.40625 46.390625 
z
M 14.796875 27.296875 
Q 14.796875 17.390625 18.875 11.75 
Q 22.953125 6.109375 30.078125 6.109375 
Q 37.203125 6.109375 41.296875 11.75 
Q 45.40625 17.390625 45.40625 27.296875 
Q 45.40625 37.203125 41.296875 42.84375 
Q 37.203125 48.484375 30.078125 48.484375 
Q 22.953125 48.484375 18.875 42.84375 
Q 14.796875 37.203125 14.796875 27.296875 
z
" id="DejaVuSans-64"/>
      <path d="M 9.421875 54.6875 
L 18.40625 54.6875 
L 18.40625 0 
L 9.421875 0 
z
M 9.421875 75.984375 
L 18.40625 75.984375 
L 18.40625 64.59375 
L 9.421875 64.59375 
z
" id="DejaVuSans-69"/>
      <path d="M 52 44.1875 
Q 55.375 50.25 60.0625 53.125 
Q 64.75 56 71.09375 56 
Q 79.640625 56 84.28125 50.015625 
Q 88.921875 44.046875 88.921875 33.015625 
L 88.921875 0 
L 79.890625 0 
L 79.890625 32.71875 
Q 79.890625 40.578125 77.09375 44.375 
Q 74.3125 48.1875 68.609375 48.1875 
Q 61.625 48.1875 57.5625 43.546875 
Q 53.515625 38.921875 53.515625 30.90625 
L 53.515625 0 
L 44.484375 0 
L 44.484375 32.71875 
Q 44.484375 40.625 41.703125 44.40625 
Q 38.921875 48.1875 33.109375 48.1875 
Q 26.21875 48.1875 22.15625 43.53125 
Q 18.109375 38.875 18.109375 30.90625 
L 18.109375 0 
L 9.078125 0 
L 9.078125 54.6875 
L 18.109375 54.6875 
L 18.109375 46.1875 
Q 21.1875 51.21875 25.484375 53.609375 
Q 29.78125 56 35.6875 56 
Q 41.65625 56 45.828125 52.96875 
Q 50 49.953125 52 44.1875 
z
" id="DejaVuSans-6d"/>
      <path d="M 54.890625 33.015625 
L 54.890625 0 
L 45.90625 0 
L 45.90625 32.71875 
Q 45.90625 40.484375 42.875 44.328125 
Q 39.84375 48.1875 33.796875 48.1875 
Q 26.515625 48.1875 22.3125 43.546875 
Q 18.109375 38.921875 18.109375 30.90625 
L 18.109375 0 
L 9.078125 0 
L 9.078125 54.6875 
L 18.109375 54.6875 
L 18.109375 46.1875 
Q 21.34375 51.125 25.703125 53.5625 
Q 30.078125 56 35.796875 56 
Q 45.21875 56 50.046875 50.171875 
Q 54.890625 44.34375 54.890625 33.015625 
z
" id="DejaVuSans-6e"/>
      <path d="M 8.015625 75.875 
L 15.828125 75.875 
Q 23.140625 64.359375 26.78125 53.3125 
Q 30.421875 42.28125 30.421875 31.390625 
Q 30.421875 20.453125 26.78125 9.375 
Q 23.140625 -1.703125 15.828125 -13.1875 
L 8.015625 -13.1875 
Q 14.5 -2 17.703125 9.0625 
Q 20.90625 20.125 20.90625 31.390625 
Q 20.90625 42.671875 17.703125 53.65625 
Q 14.5 64.65625 8.015625 75.875 
z
" id="DejaVuSans-29"/>
     </defs>
     <g transform="translate(73.803219 338.153594)scale(0.17 -0.17)">
      <use xlink:href="#DejaVuSans-6c"/>
      <use x="27.783203" xlink:href="#DejaVuSans-6f"/>
      <use x="88.964844" xlink:href="#DejaVuSans-67"/>
      <use x="152.441406" xlink:href="#DejaVuSans-31"/>
      <use x="216.064453" xlink:href="#DejaVuSans-30"/>
      <use x="279.6875" xlink:href="#DejaVuSans-28"/>
      <use x="318.701172" xlink:href="#DejaVuSans-23"/>
      <use x="402.490234" xlink:href="#DejaVuSans-20"/>
      <use x="434.277344" xlink:href="#DejaVuSans-66"/>
      <use x="469.404297" xlink:href="#DejaVuSans-2d"/>
      <use x="505.488281" xlink:href="#DejaVuSans-65"/>
      <use x="567.011719" xlink:href="#DejaVuSans-76"/>
      <use x="626.191406" xlink:href="#DejaVuSans-61"/>
      <use x="687.470703" xlink:href="#DejaVuSans-6c"/>
      <use x="715.253906" xlink:href="#DejaVuSans-73"/>
      <use x="767.353516" xlink:href="#DejaVuSans-20"/>
      <use x="799.140625" xlink:href="#DejaVuSans-2f"/>
      <use x="832.832031" xlink:href="#DejaVuSans-20"/>
      <use x="864.619141" xlink:href="#DejaVuSans-64"/>
      <use x="928.095703" xlink:href="#DejaVuSans-69"/>
      <use x="955.878906" xlink:href="#DejaVuSans-6d"/>
      <use x="1053.291016" xlink:href="#DejaVuSans-65"/>
      <use x="1114.814453" xlink:href="#DejaVuSans-6e"/>
      <use x="1178.193359" xlink:href="#DejaVuSans-73"/>
      <use x="1230.292969" xlink:href="#DejaVuSans-69"/>
      <use x="1258.076172" xlink:href="#DejaVuSans-6f"/>
      <use x="1319.257812" xlink:href="#DejaVuSans-6e"/>
      <use x="1382.636719" xlink:href="#DejaVuSans-29"/>
     </g>
    </g>
   </g>
   <g id="matplotlib.axis_2">
    <g id="ytick_1">
     <g id="line2d_29">
      <path clip-path="url(#pddc7e5ee49)" d="M 56.12 294.88 
L 333.168 294.88 
" style="fill:none;stroke:#b0b0b0;stroke-linecap:square;stroke-width:0.8;"/>
     </g>
     <g id="line2d_30">
      <defs>
       <path d="M 0 0 
L -3.5 0 
" id="m7f5286c8b8" style="stroke:#000000;stroke-width:0.8;"/>
      </defs>
      <g>
       <use style="stroke:#000000;stroke-width:0.8;" x="56.12" xlink:href="#m7f5286c8b8" y="294.88"/>
      </g>
     </g>
     <g id="text_6">
      <!-- 0.0 -->
      <defs>
       <path d="M 10.6875 12.40625 
L 21 12.40625 
L 21 0 
L 10.6875 0 
z
" id="DejaVuSans-2e"/>
      </defs>
      <g transform="translate(23.675 300.95875)scale(0.16 -0.16)">
       <use xlink:href="#DejaVuSans-30"/>
       <use x="63.623047" xlink:href="#DejaVuSans-2e"/>
       <use x="95.410156" xlink:href="#DejaVuSans-30"/>
      </g>
     </g>
    </g>
    <g id="ytick_2">
     <g id="line2d_31">
      <path clip-path="url(#pddc7e5ee49)" d="M 56.12 241.406733 
L 333.168 241.406733 
" style="fill:none;stroke:#b0b0b0;stroke-linecap:square;stroke-width:0.8;"/>
     </g>
     <g id="line2d_32">
      <g>
       <use style="stroke:#000000;stroke-width:0.8;" x="56.12" xlink:href="#m7f5286c8b8" y="241.406733"/>
      </g>
     </g>
     <g id="text_7">
      <!-- 0.2 -->
      <g transform="translate(23.675 247.485483)scale(0.16 -0.16)">
       <use xlink:href="#DejaVuSans-30"/>
       <use x="63.623047" xlink:href="#DejaVuSans-2e"/>
       <use x="95.410156" xlink:href="#DejaVuSans-32"/>
      </g>
     </g>
    </g>
    <g id="ytick_3">
     <g id="line2d_33">
      <path clip-path="url(#pddc7e5ee49)" d="M 56.12 187.933465 
L 333.168 187.933465 
" style="fill:none;stroke:#b0b0b0;stroke-linecap:square;stroke-width:0.8;"/>
     </g>
     <g id="line2d_34">
      <g>
       <use style="stroke:#000000;stroke-width:0.8;" x="56.12" xlink:href="#m7f5286c8b8" y="187.933465"/>
      </g>
     </g>
     <g id="text_8">
      <!-- 0.4 -->
      <g transform="translate(23.675 194.012215)scale(0.16 -0.16)">
       <use xlink:href="#DejaVuSans-30"/>
       <use x="63.623047" xlink:href="#DejaVuSans-2e"/>
       <use x="95.410156" xlink:href="#DejaVuSans-34"/>
      </g>
     </g>
    </g>
    <g id="ytick_4">
     <g id="line2d_35">
      <path clip-path="url(#pddc7e5ee49)" d="M 56.12 134.460198 
L 333.168 134.460198 
" style="fill:none;stroke:#b0b0b0;stroke-linecap:square;stroke-width:0.8;"/>
     </g>
     <g id="line2d_36">
      <g>
       <use style="stroke:#000000;stroke-width:0.8;" x="56.12" xlink:href="#m7f5286c8b8" y="134.460198"/>
      </g>
     </g>
     <g id="text_9">
      <!-- 0.6 -->
      <g transform="translate(23.675 140.538948)scale(0.16 -0.16)">
       <use xlink:href="#DejaVuSans-30"/>
       <use x="63.623047" xlink:href="#DejaVuSans-2e"/>
       <use x="95.410156" xlink:href="#DejaVuSans-36"/>
      </g>
     </g>
    </g>
    <g id="ytick_5">
     <g id="line2d_37">
      <path clip-path="url(#pddc7e5ee49)" d="M 56.12 80.986931 
L 333.168 80.986931 
" style="fill:none;stroke:#b0b0b0;stroke-linecap:square;stroke-width:0.8;"/>
     </g>
     <g id="line2d_38">
      <g>
       <use style="stroke:#000000;stroke-width:0.8;" x="56.12" xlink:href="#m7f5286c8b8" y="80.986931"/>
      </g>
     </g>
     <g id="text_10">
      <!-- 0.8 -->
      <defs>
       <path d="M 31.78125 34.625 
Q 24.75 34.625 20.71875 30.859375 
Q 16.703125 27.09375 16.703125 20.515625 
Q 16.703125 13.921875 20.71875 10.15625 
Q 24.75 6.390625 31.78125 6.390625 
Q 38.8125 6.390625 42.859375 10.171875 
Q 46.921875 13.96875 46.921875 20.515625 
Q 46.921875 27.09375 42.890625 30.859375 
Q 38.875 34.625 31.78125 34.625 
z
M 21.921875 38.8125 
Q 15.578125 40.375 12.03125 44.71875 
Q 8.5 49.078125 8.5 55.328125 
Q 8.5 64.0625 14.71875 69.140625 
Q 20.953125 74.21875 31.78125 74.21875 
Q 42.671875 74.21875 48.875 69.140625 
Q 55.078125 64.0625 55.078125 55.328125 
Q 55.078125 49.078125 51.53125 44.71875 
Q 48 40.375 41.703125 38.8125 
Q 48.828125 37.15625 52.796875 32.3125 
Q 56.78125 27.484375 56.78125 20.515625 
Q 56.78125 9.90625 50.3125 4.234375 
Q 43.84375 -1.421875 31.78125 -1.421875 
Q 19.734375 -1.421875 13.25 4.234375 
Q 6.78125 9.90625 6.78125 20.515625 
Q 6.78125 27.484375 10.78125 32.3125 
Q 14.796875 37.15625 21.921875 38.8125 
z
M 18.3125 54.390625 
Q 18.3125 48.734375 21.84375 45.5625 
Q 25.390625 42.390625 31.78125 42.390625 
Q 38.140625 42.390625 41.71875 45.5625 
Q 45.3125 48.734375 45.3125 54.390625 
Q 45.3125 60.0625 41.71875 63.234375 
Q 38.140625 66.40625 31.78125 66.40625 
Q 25.390625 66.40625 21.84375 63.234375 
Q 18.3125 60.0625 18.3125 54.390625 
z
" id="DejaVuSans-38"/>
      </defs>
      <g transform="translate(23.675 87.065681)scale(0.16 -0.16)">
       <use xlink:href="#DejaVuSans-30"/>
       <use x="63.623047" xlink:href="#DejaVuSans-2e"/>
       <use x="95.410156" xlink:href="#DejaVuSans-38"/>
      </g>
     </g>
    </g>
    <g id="ytick_6">
     <g id="line2d_39">
      <path clip-path="url(#pddc7e5ee49)" d="M 56.12 27.513663 
L 333.168 27.513663 
" style="fill:none;stroke:#b0b0b0;stroke-linecap:square;stroke-width:0.8;"/>
     </g>
     <g id="line2d_40">
      <g>
       <use style="stroke:#000000;stroke-width:0.8;" x="56.12" xlink:href="#m7f5286c8b8" y="27.513663"/>
      </g>
     </g>
     <g id="text_11">
      <!-- 1.0 -->
      <g transform="translate(23.675 33.592413)scale(0.16 -0.16)">
       <use xlink:href="#DejaVuSans-31"/>
       <use x="63.623047" xlink:href="#DejaVuSans-2e"/>
       <use x="95.410156" xlink:href="#DejaVuSans-30"/>
      </g>
     </g>
    </g>
    <g id="text_12">
     <!-- Fraction of function,target pairs -->
     <defs>
      <path d="M 9.8125 72.90625 
L 51.703125 72.90625 
L 51.703125 64.59375 
L 19.671875 64.59375 
L 19.671875 43.109375 
L 48.578125 43.109375 
L 48.578125 34.8125 
L 19.671875 34.8125 
L 19.671875 0 
L 9.8125 0 
z
" id="DejaVuSans-46"/>
      <path d="M 41.109375 46.296875 
Q 39.59375 47.171875 37.8125 47.578125 
Q 36.03125 48 33.890625 48 
Q 26.265625 48 22.1875 43.046875 
Q 18.109375 38.09375 18.109375 28.8125 
L 18.109375 0 
L 9.078125 0 
L 9.078125 54.6875 
L 18.109375 54.6875 
L 18.109375 46.1875 
Q 20.953125 51.171875 25.484375 53.578125 
Q 30.03125 56 36.53125 56 
Q 37.453125 56 38.578125 55.875 
Q 39.703125 55.765625 41.0625 55.515625 
z
" id="DejaVuSans-72"/>
      <path d="M 48.78125 52.59375 
L 48.78125 44.1875 
Q 44.96875 46.296875 41.140625 47.34375 
Q 37.3125 48.390625 33.40625 48.390625 
Q 24.65625 48.390625 19.8125 42.84375 
Q 14.984375 37.3125 14.984375 27.296875 
Q 14.984375 17.28125 19.8125 11.734375 
Q 24.65625 6.203125 33.40625 6.203125 
Q 37.3125 6.203125 41.140625 7.25 
Q 44.96875 8.296875 48.78125 10.40625 
L 48.78125 2.09375 
Q 45.015625 0.34375 40.984375 -0.53125 
Q 36.96875 -1.421875 32.421875 -1.421875 
Q 20.0625 -1.421875 12.78125 6.34375 
Q 5.515625 14.109375 5.515625 27.296875 
Q 5.515625 40.671875 12.859375 48.328125 
Q 20.21875 56 33.015625 56 
Q 37.15625 56 41.109375 55.140625 
Q 45.0625 54.296875 48.78125 52.59375 
z
" id="DejaVuSans-63"/>
      <path d="M 18.3125 70.21875 
L 18.3125 54.6875 
L 36.8125 54.6875 
L 36.8125 47.703125 
L 18.3125 47.703125 
L 18.3125 18.015625 
Q 18.3125 11.328125 20.140625 9.421875 
Q 21.96875 7.515625 27.59375 7.515625 
L 36.8125 7.515625 
L 36.8125 0 
L 27.59375 0 
Q 17.1875 0 13.234375 3.875 
Q 9.28125 7.765625 9.28125 18.015625 
L 9.28125 47.703125 
L 2.6875 47.703125 
L 2.6875 54.6875 
L 9.28125 54.6875 
L 9.28125 70.21875 
z
" id="DejaVuSans-74"/>
      <path d="M 8.5 21.578125 
L 8.5 54.6875 
L 17.484375 54.6875 
L 17.484375 21.921875 
Q 17.484375 14.15625 20.5 10.265625 
Q 23.53125 6.390625 29.59375 6.390625 
Q 36.859375 6.390625 41.078125 11.03125 
Q 45.3125 15.671875 45.3125 23.6875 
L 45.3125 54.6875 
L 54.296875 54.6875 
L 54.296875 0 
L 45.3125 0 
L 45.3125 8.40625 
Q 42.046875 3.421875 37.71875 1 
Q 33.40625 -1.421875 27.6875 -1.421875 
Q 18.265625 -1.421875 13.375 4.4375 
Q 8.5 10.296875 8.5 21.578125 
z
M 31.109375 56 
z
" id="DejaVuSans-75"/>
      <path d="M 11.71875 12.40625 
L 22.015625 12.40625 
L 22.015625 4 
L 14.015625 -11.625 
L 7.71875 -11.625 
L 11.71875 4 
z
" id="DejaVuSans-2c"/>
      <path d="M 18.109375 8.203125 
L 18.109375 -20.796875 
L 9.078125 -20.796875 
L 9.078125 54.6875 
L 18.109375 54.6875 
L 18.109375 46.390625 
Q 20.953125 51.265625 25.265625 53.625 
Q 29.59375 56 35.59375 56 
Q 45.5625 56 51.78125 48.09375 
Q 58.015625 40.1875 58.015625 27.296875 
Q 58.015625 14.40625 51.78125 6.484375 
Q 45.5625 -1.421875 35.59375 -1.421875 
Q 29.59375 -1.421875 25.265625 0.953125 
Q 20.953125 3.328125 18.109375 8.203125 
z
M 48.6875 27.296875 
Q 48.6875 37.203125 44.609375 42.84375 
Q 40.53125 48.484375 33.40625 48.484375 
Q 26.265625 48.484375 22.1875 42.84375 
Q 18.109375 37.203125 18.109375 27.296875 
Q 18.109375 17.390625 22.1875 11.75 
Q 26.265625 6.109375 33.40625 6.109375 
Q 40.53125 6.109375 44.609375 11.75 
Q 48.6875 17.390625 48.6875 27.296875 
z
" id="DejaVuSans-70"/>
     </defs>
     <g transform="translate(16.139531 294.999375)rotate(-90)scale(0.17 -0.17)">
      <use xlink:href="#DejaVuSans-46"/>
      <use x="57.410156" xlink:href="#DejaVuSans-72"/>
      <use x="98.523438" xlink:href="#DejaVuSans-61"/>
      <use x="159.802734" xlink:href="#DejaVuSans-63"/>
      <use x="214.783203" xlink:href="#DejaVuSans-74"/>
      <use x="253.992188" xlink:href="#DejaVuSans-69"/>
      <use x="281.775391" xlink:href="#DejaVuSans-6f"/>
      <use x="342.957031" xlink:href="#DejaVuSans-6e"/>
      <use x="406.335938" xlink:href="#DejaVuSans-20"/>
      <use x="438.123047" xlink:href="#DejaVuSans-6f"/>
      <use x="499.304688" xlink:href="#DejaVuSans-66"/>
      <use x="534.509766" xlink:href="#DejaVuSans-20"/>
      <use x="566.296875" xlink:href="#DejaVuSans-66"/>
      <use x="601.501953" xlink:href="#DejaVuSans-75"/>
      <use x="664.880859" xlink:href="#DejaVuSans-6e"/>
      <use x="728.259766" xlink:href="#DejaVuSans-63"/>
      <use x="783.240234" xlink:href="#DejaVuSans-74"/>
      <use x="822.449219" xlink:href="#DejaVuSans-69"/>
      <use x="850.232422" xlink:href="#DejaVuSans-6f"/>
      <use x="911.414062" xlink:href="#DejaVuSans-6e"/>
      <use x="974.792969" xlink:href="#DejaVuSans-2c"/>
      <use x="1006.580078" xlink:href="#DejaVuSans-74"/>
      <use x="1045.789062" xlink:href="#DejaVuSans-61"/>
      <use x="1107.068359" xlink:href="#DejaVuSans-72"/>
      <use x="1148.166016" xlink:href="#DejaVuSans-67"/>
      <use x="1211.642578" xlink:href="#DejaVuSans-65"/>
      <use x="1273.166016" xlink:href="#DejaVuSans-74"/>
      <use x="1312.375" xlink:href="#DejaVuSans-20"/>
      <use x="1344.162109" xlink:href="#DejaVuSans-70"/>
      <use x="1407.638672" xlink:href="#DejaVuSans-61"/>
      <use x="1468.917969" xlink:href="#DejaVuSans-69"/>
      <use x="1496.701172" xlink:href="#DejaVuSans-72"/>
      <use x="1537.814453" xlink:href="#DejaVuSans-73"/>
     </g>
    </g>
   </g>
   <g id="line2d_41">
    <defs>
     <path d="M 0 1.5 
C 0.397805 1.5 0.77937 1.341951 1.06066 1.06066 
C 1.341951 0.77937 1.5 0.397805 1.5 0 
C 1.5 -0.397805 1.341951 -0.77937 1.06066 -1.06066 
C 0.77937 -1.341951 0.397805 -1.5 0 -1.5 
C -0.397805 -1.5 -0.77937 -1.341951 -1.06066 -1.06066 
C -1.341951 -0.77937 -1.5 -0.397805 -1.5 0 
C -1.5 0.397805 -1.341951 0.77937 -1.06066 1.06066 
C -0.77937 1.341951 -0.397805 1.5 0 1.5 
z
" id="med26f38a8a" style="stroke:#f5deb3;"/>
    </defs>
    <g>
     <use style="fill:#f5deb3;stroke:#f5deb3;" x="145.417974" xlink:href="#med26f38a8a" y="27.513663"/>
     <use style="fill:#f5deb3;stroke:#f5deb3;" x="145.417974" xlink:href="#med26f38a8a" y="27.513663"/>
    </g>
   </g>
   <g id="line2d_42">
    <defs>
     <path d="M 0 1.5 
C 0.397805 1.5 0.77937 1.341951 1.06066 1.06066 
C 1.341951 0.77937 1.5 0.397805 1.5 0 
C 1.5 -0.397805 1.341951 -0.77937 1.06066 -1.06066 
C 0.77937 -1.341951 0.397805 -1.5 0 -1.5 
C -0.397805 -1.5 -0.77937 -1.341951 -1.06066 -1.06066 
C -1.341951 -0.77937 -1.5 -0.397805 -1.5 0 
C -1.5 0.397805 -1.341951 0.77937 -1.06066 1.06066 
C -0.77937 1.341951 -0.397805 1.5 0 1.5 
z
" id="m98b820f611" style="stroke:#000080;"/>
    </defs>
    <g>
     <use style="fill:#000080;stroke:#000080;" x="209.285409" xlink:href="#m98b820f611" y="27.513663"/>
     <use style="fill:#000080;stroke:#000080;" x="209.285409" xlink:href="#m98b820f611" y="27.513663"/>
    </g>
   </g>
   <g id="line2d_43">
    <path d="M 143.441019 294.88 
L 143.441019 294.355752 
L 144.397345 294.355752 
L 144.397345 293.831505 
L 146.108974 293.831505 
L 146.108974 293.307257 
L 146.471234 293.307257 
L 146.471234 292.783009 
L 146.667271 292.783009 
L 146.667271 291.734514 
L 149.860095 291.734514 
L 149.860095 291.210266 
L 150.035789 291.210266 
L 150.035789 290.686018 
L 150.324681 290.686018 
L 150.324681 289.637523 
L 150.580595 289.637523 
L 150.580595 289.113275 
L 150.929828 289.113275 
L 150.985052 288.06478 
L 151.581093 288.06478 
L 151.581093 287.016284 
L 151.740126 287.016284 
L 151.753312 285.967789 
L 151.936869 285.967789 
L 151.936869 285.443541 
L 152.066791 285.443541 
L 152.066791 284.919293 
L 152.182887 284.919293 
L 152.182887 284.395046 
L 152.513938 284.395046 
L 152.513938 283.870798 
L 152.726997 283.870798 
L 152.726997 283.34655 
L 152.97432 283.34655 
L 152.97432 282.822302 
L 153.577492 282.822302 
L 153.624843 281.773807 
L 153.964296 281.773807 
L 153.964296 281.249559 
L 154.24024 281.249559 
L 154.251642 280.201064 
L 154.38788 280.201064 
L 154.421772 279.152568 
L 154.834363 279.152568 
L 154.834363 278.104073 
L 154.977008 278.104073 
L 154.977008 277.579825 
L 155.269542 277.579825 
L 155.269542 277.055578 
L 155.429934 277.055578 
L 155.429934 276.007082 
L 155.902323 276.007082 
L 155.902323 275.482834 
L 156.036409 275.482834 
L 156.108178 273.910091 
L 156.210188 273.910091 
L 156.311596 272.861596 
L 156.45257 272.861596 
L 156.45257 272.337348 
L 156.64206 272.337348 
L 156.64206 271.8131 
L 156.809852 271.8131 
L 156.809852 271.288853 
L 157.102017 271.288853 
L 157.102017 270.764605 
L 157.294071 270.764605 
L 157.303617 269.191862 
L 157.455646 269.191862 
L 157.521738 267.619119 
L 157.718503 267.619119 
L 157.718503 267.094871 
L 158.132707 267.094871 
L 158.132707 266.046375 
L 158.358579 266.046375 
L 158.358579 264.99788 
L 158.47487 264.99788 
L 158.581522 258.706907 
L 158.669895 258.706907 
L 158.669895 258.18266 
L 158.784106 258.18266 
L 158.888862 256.609917 
L 159.087877 256.609917 
L 159.087877 256.085669 
L 159.403273 256.085669 
L 159.445454 254.512926 
L 159.537889 254.512926 
L 159.646493 251.367439 
L 159.72128 251.367439 
L 159.779224 250.318944 
L 159.902736 250.318944 
L 160.009066 248.221953 
L 160.066049 248.221953 
L 160.155215 246.64921 
L 160.203656 246.64921 
L 160.268033 245.600714 
L 160.419969 245.600714 
L 160.483543 242.455228 
L 160.58635 242.455228 
L 160.688547 238.261246 
L 160.743325 238.261246 
L 160.829054 236.688503 
L 160.89888 236.688503 
L 160.89888 235.640008 
L 161.053039 235.640008 
L 161.121962 234.591512 
L 161.19061 234.591512 
L 161.205828 233.018769 
L 161.35727 233.018769 
L 161.409962 231.970274 
L 161.484956 231.970274 
L 161.484956 231.446026 
L 161.619126 231.446026 
L 161.65621 229.873283 
L 161.811097 229.873283 
L 161.898981 227.776292 
L 161.95004 227.776292 
L 161.95004 226.727797 
L 162.095093 226.727797 
L 162.131166 224.106558 
L 162.260404 224.106558 
L 162.317533 221.485319 
L 162.381577 221.485319 
L 162.381577 219.912576 
L 162.494847 219.912576 
L 162.516002 217.291338 
L 162.663364 217.291338 
L 162.663364 215.718594 
L 162.940606 215.718594 
L 162.940606 213.621604 
L 163.070746 213.621604 
L 163.10483 211.524613 
L 163.213447 211.524613 
L 163.321382 209.95187 
L 163.348261 209.95187 
L 163.348261 209.427622 
L 163.614756 209.427622 
L 163.700485 207.854879 
L 163.726778 207.854879 
L 163.811951 205.23364 
L 163.877183 205.23364 
L 163.968094 202.612401 
L 164.006909 202.612401 
L 164.097139 198.942667 
L 164.135664 198.942667 
L 164.244352 195.272933 
L 164.263461 195.272933 
L 164.358689 189.506209 
L 164.390315 189.506209 
L 164.390315 187.933465 
L 164.516239 187.933465 
L 164.566352 184.263731 
L 164.765354 184.263731 
L 164.765354 183.215236 
L 164.888571 183.215236 
L 164.888571 182.690988 
L 165.01091 182.690988 
L 165.114219 179.545502 
L 165.132385 179.545502 
L 165.132385 178.497006 
L 165.246997 178.497006 
L 165.253008 175.35152 
L 165.37279 175.35152 
L 165.42642 173.778777 
L 165.491743 173.778777 
L 165.545004 171.681786 
L 165.633408 171.681786 
L 165.727207 168.012052 
L 165.785573 168.012052 
L 165.785573 167.487804 
L 165.959489 167.487804 
L 166.005572 165.390813 
L 166.239823 165.390813 
L 166.302131 164.342318 
L 166.364215 164.342318 
L 166.414844 162.245327 
L 166.526822 162.245327 
L 166.526822 161.721079 
L 166.638076 161.721079 
L 166.638076 161.196832 
L 166.765134 161.196832 
L 166.858446 158.051345 
L 166.967581 158.051345 
L 167.043565 155.954354 
L 167.113822 155.954354 
L 167.183793 154.905859 
L 167.290887 154.905859 
L 167.322886 153.333116 
L 167.707506 153.333116 
L 167.75953 151.236125 
L 167.940383 151.236125 
L 167.940383 150.711877 
L 168.063306 150.711877 
L 168.124439 149.663382 
L 168.225847 149.663382 
L 168.32666 147.566391 
L 168.625601 147.566391 
L 168.665069 144.945152 
L 168.763347 144.945152 
L 168.856192 142.323914 
L 168.919431 142.323914 
L 168.919431 140.751171 
L 169.102958 140.751171 
L 169.208322 137.605684 
L 169.279792 137.605684 
L 169.279792 136.557189 
L 169.398253 136.557189 
L 169.492438 134.460198 
L 169.548702 134.460198 
L 169.586109 133.411703 
L 169.697845 133.411703 
L 169.697845 132.363207 
L 169.978614 132.363207 
L 170.051505 130.790464 
L 170.227893 130.790464 
L 170.317651 127.12073 
L 170.398034 127.12073 
L 170.495773 125.023739 
L 170.584146 125.023739 
L 170.636953 123.975244 
L 170.720234 123.975244 
L 170.759542 122.926748 
L 171.023622 122.926748 
L 171.105054 121.878253 
L 171.330189 121.878253 
L 171.359705 119.781262 
L 171.443757 119.781262 
L 171.51488 117.160023 
L 171.589867 117.160023 
L 171.589867 116.635776 
L 171.857961 116.635776 
L 171.911082 115.58728 
L 172.101776 115.58728 
L 172.198341 111.917546 
L 172.262418 111.917546 
L 172.262418 111.393298 
L 172.421573 111.393298 
L 172.421573 110.869051 
L 172.855663 110.869051 
L 172.859524 109.820555 
L 172.96729 109.820555 
L 172.96729 109.296308 
L 173.123881 109.296308 
L 173.123881 108.77206 
L 173.335483 108.77206 
L 173.440315 105.626573 
L 173.458967 105.626573 
L 173.496213 102.481087 
L 173.570462 102.481087 
L 173.644391 98.811353 
L 173.692276 98.811353 
L 173.791304 96.714362 
L 173.936971 96.714362 
L 174.009344 92.520381 
L 174.138853 92.520381 
L 174.210383 90.947637 
L 174.366709 90.947637 
L 174.437299 89.899142 
L 174.5076 89.899142 
L 174.577615 87.802151 
L 174.647346 87.802151 
L 174.678633 85.70516 
L 174.782513 85.70516 
L 174.782513 85.180912 
L 174.923475 85.180912 
L 174.923475 83.608169 
L 175.066686 83.608169 
L 175.066686 83.083922 
L 175.195237 83.083922 
L 175.238996 82.035426 
L 175.422905 82.035426 
L 175.529008 78.88994 
L 175.542224 78.88994 
L 175.63446 77.841444 
L 175.765371 77.841444 
L 175.765371 77.317197 
L 175.921161 77.317197 
L 175.921161 76.792949 
L 176.049915 76.792949 
L 176.056327 75.744454 
L 176.177712 75.744454 
L 176.177712 75.220206 
L 176.377085 75.220206 
L 176.377085 74.695958 
L 176.741324 74.695958 
L 176.79054 73.647463 
L 176.925162 73.647463 
L 177.013316 72.074719 
L 177.107054 72.074719 
L 177.107054 71.550472 
L 177.227254 71.550472 
L 177.227254 69.977729 
L 177.582894 69.977729 
L 177.615129 67.880738 
L 178.045915 67.880738 
L 178.114305 66.832242 
L 178.224862 66.832242 
L 178.272831 65.783747 
L 178.348744 65.783747 
L 178.385176 64.211004 
L 178.602157 64.211004 
L 178.602157 63.686756 
L 183.566358 63.686756 
L 183.566358 63.162508 
L 184.232541 63.162508 
L 184.232541 62.638261 
L 184.837362 62.638261 
L 184.839285 61.589765 
L 185.115896 61.589765 
L 185.115896 61.065517 
L 185.296613 61.065517 
L 185.40116 60.017022 
L 185.510624 60.017022 
L 185.510624 59.492774 
L 185.632256 59.492774 
L 185.632256 58.968526 
L 185.778543 58.968526 
L 185.851222 57.920031 
L 185.943445 57.920031 
L 185.943445 57.395783 
L 186.103207 57.395783 
L 186.103207 56.871536 
L 186.303934 56.871536 
L 186.303934 56.347288 
L 186.453393 56.347288 
L 186.526767 54.774545 
L 186.657018 54.774545 
L 186.717465 53.726049 
L 186.837726 53.726049 
L 186.837726 53.201802 
L 186.95375 53.201802 
L 186.95375 52.677554 
L 187.075752 52.677554 
L 187.075752 52.153306 
L 187.243775 52.153306 
L 187.335493 51.104811 
L 188.344742 51.104811 
L 188.40736 49.532068 
L 188.595402 49.532068 
L 188.595402 49.00782 
L 188.991123 49.00782 
L 188.991123 48.483572 
L 189.526452 48.483572 
L 189.526452 47.959324 
L 190.383206 47.959324 
L 190.383206 47.435077 
L 190.695158 47.435077 
L 190.695158 46.910829 
L 191.619171 46.910829 
L 191.619171 46.386581 
L 195.027367 46.386581 
L 195.027367 45.862334 
L 195.527142 45.862334 
L 195.527142 45.338086 
L 195.78237 45.338086 
L 195.78237 44.813838 
L 197.466438 44.813838 
L 197.466438 44.28959 
L 197.598764 44.28959 
L 197.598764 43.765343 
L 197.710993 43.765343 
L 197.710993 43.241095 
L 197.910815 43.241095 
L 197.997792 42.192599 
L 198.030853 42.192599 
L 198.08878 40.619856 
L 198.142078 40.619856 
L 198.248181 38.522865 
L 198.348376 38.522865 
L 198.38864 36.950122 
L 198.570404 36.950122 
L 198.638611 35.901627 
L 198.717702 35.901627 
L 198.798139 34.853131 
L 199.00688 34.853131 
L 199.00688 34.328884 
L 199.35751 34.328884 
L 199.35751 33.804636 
L 199.523633 33.804636 
L 199.523633 33.280388 
L 199.990292 33.280388 
L 200.085608 31.707645 
L 200.635928 31.707645 
L 200.667352 30.134902 
L 200.958911 30.134902 
L 200.958911 29.610654 
L 202.14917 29.610654 
L 202.14917 29.086407 
L 203.514616 29.086407 
L 203.514616 28.562159 
L 203.841747 28.562159 
L 203.841747 28.037911 
L 209.285409 28.037911 
L 209.285409 27.513663 
L 333.168 27.513663 
L 333.168 27.513663 
" style="fill:none;stroke:#000080;stroke-linecap:square;stroke-width:1.5;"/>
   </g>
   <g id="line2d_44">
    <defs>
     <path d="M 0 6 
C 1.591219 6 3.117479 5.367802 4.242641 4.242641 
C 5.367802 3.117479 6 1.591219 6 0 
C 6 -1.591219 5.367802 -3.117479 4.242641 -4.242641 
C 3.117479 -5.367802 1.591219 -6 0 -6 
C -1.591219 -6 -3.117479 -5.367802 -4.242641 -4.242641 
C -5.367802 -3.117479 -6 -1.591219 -6 0 
C -6 1.591219 -5.367802 3.117479 -4.242641 4.242641 
C -3.117479 5.367802 -1.591219 6 0 6 
z
" id="maf627c859d" style="stroke:#000080;stroke-width:1.5;"/>
    </defs>
    <g>
     <use style="fill:none;stroke:#000080;stroke-width:1.5;" x="168.625601" xlink:href="#maf627c859d" y="147.566391"/>
     <use style="fill:none;stroke:#000080;stroke-width:1.5;" x="209.285409" xlink:href="#maf627c859d" y="28.037911"/>
     <use style="fill:none;stroke:#000080;stroke-width:1.5;" x="209.285409" xlink:href="#maf627c859d" y="27.513663"/>
     <use style="fill:none;stroke:#000080;stroke-width:1.5;" x="209.285409" xlink:href="#maf627c859d" y="27.513663"/>
     <use style="fill:none;stroke:#000080;stroke-width:1.5;" x="333.168" xlink:href="#maf627c859d" y="27.513663"/>
    </g>
   </g>
   <g id="line2d_45">
    <path style="fill:none;stroke:#000080;stroke-linecap:square;stroke-width:1.5;"/>
    <g/>
   </g>
   <g id="line2d_46">
    <path clip-path="url(#pddc7e5ee49)" d="M 180.930519 63.686756 
" style="fill:none;stroke:#000080;stroke-linecap:square;stroke-width:1.5;"/>
    <defs>
     <path d="M -12 12 
L 12 -12 
M -12 -12 
L 12 12 
" id="m3d341e25ae" style="stroke:#000080;"/>
    </defs>
    <g clip-path="url(#pddc7e5ee49)">
     <use style="fill:#000080;stroke:#000080;" x="180.930519" xlink:href="#m3d341e25ae" y="63.686756"/>
    </g>
   </g>
   <g id="line2d_47">
    <defs>
     <path d="M 0 1.5 
C 0.397805 1.5 0.77937 1.341951 1.06066 1.06066 
C 1.341951 0.77937 1.5 0.397805 1.5 0 
C 1.5 -0.397805 1.341951 -0.77937 1.06066 -1.06066 
C 0.77937 -1.341951 0.397805 -1.5 0 -1.5 
C -0.397805 -1.5 -0.77937 -1.341951 -1.06066 -1.06066 
C -1.341951 -0.77937 -1.5 -0.397805 -1.5 0 
C -1.5 0.397805 -1.341951 0.77937 -1.06066 1.06066 
C -0.77937 1.341951 -0.397805 1.5 0 1.5 
z
" id="md545a8b75e" style="stroke:#ff00ff;"/>
    </defs>
    <g>
     <use style="fill:#ff00ff;stroke:#ff00ff;" x="201.365871" xlink:href="#md545a8b75e" y="27.513663"/>
     <use style="fill:#ff00ff;stroke:#ff00ff;" x="201.365871" xlink:href="#md545a8b75e" y="27.513663"/>
    </g>
   </g>
   <g id="line2d_48">
    <path d="M 137.039379 294.88 
L 137.039379 294.355752 
L 139.001743 294.355752 
L 139.001743 293.831505 
L 140.637478 293.831505 
L 140.637478 293.307257 
L 140.762851 293.307257 
L 140.787817 292.258761 
L 140.961566 292.258761 
L 140.961566 291.734514 
L 142.942135 291.734514 
L 143.029944 290.686018 
L 143.117307 290.686018 
L 143.117307 290.161771 
L 143.590024 290.161771 
L 143.674593 288.589027 
L 144.07071 288.589027 
L 144.07071 288.06478 
L 144.737725 288.06478 
L 144.737725 287.016284 
L 145.226349 287.016284 
L 145.226349 286.492036 
L 145.531932 286.492036 
L 145.531932 285.967789 
L 146.108974 285.967789 
L 146.108974 285.443541 
L 146.309161 285.443541 
L 146.309161 284.919293 
L 146.471234 284.919293 
L 146.471234 284.395046 
L 146.596243 284.395046 
L 146.596243 283.870798 
L 147.052761 283.870798 
L 147.052761 283.34655 
L 147.190823 283.34655 
L 147.25944 281.773807 
L 147.327785 281.773807 
L 147.344828 280.725312 
L 147.531203 280.725312 
L 147.531203 280.201064 
L 147.881493 280.201064 
L 147.881493 279.152568 
L 148.273273 279.152568 
L 148.273273 278.628321 
L 148.608906 278.628321 
L 148.608906 278.104073 
L 148.860298 278.104073 
L 148.860298 277.579825 
L 149.215352 277.579825 
L 149.261127 276.53133 
L 149.367465 276.53133 
L 149.367465 276.007082 
L 149.697448 276.007082 
L 149.756771 274.958587 
L 149.874805 274.958587 
L 149.904187 273.910091 
L 150.122968 273.910091 
L 150.22412 272.337348 
L 150.267289 272.337348 
L 150.281655 271.288853 
L 150.396151 271.288853 
L 150.424656 269.716109 
L 150.509889 269.716109 
L 150.509889 269.191862 
L 150.971263 269.191862 
L 150.985052 268.143366 
L 151.244973 268.143366 
L 151.244973 267.619119 
L 151.447433 267.619119 
L 151.554444 266.046375 
L 151.567774 266.046375 
L 151.634268 264.99788 
L 151.975949 264.99788 
L 151.975949 264.473632 
L 152.31097 264.473632 
L 152.361937 263.425137 
L 152.551729 263.425137 
L 152.601988 262.376641 
L 152.851103 262.376641 
L 152.851103 261.852394 
L 153.230235 261.852394 
L 153.230235 261.328146 
L 153.36278 261.328146 
L 153.458539 259.755403 
L 153.541892 259.755403 
L 153.541892 258.706907 
L 153.801259 258.706907 
L 153.801259 258.18266 
L 154.079811 258.18266 
L 154.183116 257.134164 
L 154.24024 257.134164 
L 154.285803 255.561421 
L 154.376568 255.561421 
L 154.455596 254.512926 
L 154.579054 254.512926 
L 154.579054 253.988678 
L 154.95514 253.988678 
L 155.031558 251.891687 
L 155.355271 251.891687 
L 155.461834 250.318944 
L 155.483068 250.318944 
L 155.504275 248.746201 
L 155.68349 248.746201 
L 155.693974 247.697705 
L 155.819286 247.697705 
L 155.902323 245.600714 
L 155.995263 245.600714 
L 156.04668 244.552219 
L 156.128628 244.552219 
L 156.200014 243.503724 
L 156.542589 243.503724 
L 156.592397 242.455228 
L 156.731095 242.455228 
L 156.74096 241.406733 
L 156.888249 241.406733 
L 156.985746 239.309742 
L 157.014888 239.309742 
L 157.121319 237.736999 
L 157.23668 237.736999 
L 157.265399 236.688503 
L 157.370295 236.688503 
L 157.446184 235.11576 
L 157.521738 235.11576 
L 157.625086 233.018769 
L 157.653165 233.018769 
L 157.755728 229.349035 
L 157.783594 229.349035 
L 157.885384 227.252044 
L 157.995745 227.252044 
L 158.078053 226.203549 
L 158.187188 226.203549 
L 158.286622 224.630806 
L 158.331631 224.630806 
L 158.430236 222.533815 
L 158.537164 222.533815 
L 158.608082 219.388328 
L 158.766584 219.388328 
L 158.827832 215.718594 
L 158.880156 215.718594 
L 158.98433 213.097356 
L 159.113666 213.097356 
L 159.182249 212.04886 
L 159.25056 212.04886 
L 159.25056 211.524613 
L 159.377915 211.524613 
L 159.411718 209.427622 
L 159.571378 209.427622 
L 159.654819 204.709392 
L 159.712987 204.709392 
L 159.787486 203.136649 
L 159.845207 203.136649 
L 159.927332 199.466915 
L 159.968248 199.466915 
L 160.057921 194.748686 
L 160.098527 194.748686 
L 160.163298 192.127447 
L 160.276064 192.127447 
L 160.324166 188.457713 
L 160.396068 188.457713 
L 160.451785 185.836474 
L 160.546882 185.836474 
L 160.657167 180.06975 
L 160.680707 180.06975 
L 160.79014 176.400016 
L 160.836827 176.400016 
L 160.937549 173.254529 
L 160.991541 173.254529 
L 161.099018 169.060547 
L 161.137241 169.060547 
L 161.236223 167.487804 
L 161.334639 167.487804 
L 161.417476 161.196832 
L 161.447499 161.196832 
L 161.514862 156.478602 
L 161.581961 156.478602 
L 161.678423 152.808868 
L 161.707995 152.808868 
L 161.811097 148.614886 
L 161.83311 148.614886 
L 161.935468 147.042143 
L 161.95004 147.042143 
L 162.044464 142.848162 
L 162.102314 142.848162 
L 162.181541 139.702675 
L 162.303269 139.702675 
L 162.395776 134.984446 
L 162.445383 134.984446 
L 162.551203 129.741969 
L 162.565263 129.741969 
L 162.656375 126.596482 
L 162.677333 126.596482 
L 162.774798 123.450996 
L 162.809473 123.450996 
L 162.823324 121.878253 
L 162.940606 121.878253 
L 163.050263 118.732766 
L 163.057093 118.732766 
L 163.159224 115.58728 
L 163.179578 115.58728 
L 163.280986 109.820555 
L 163.294462 109.820555 
L 163.401891 104.578078 
L 163.428644 104.578078 
L 163.535241 102.481087 
L 163.561787 102.481087 
L 163.64778 98.287105 
L 163.687324 98.287105 
L 163.785789 92.520381 
L 163.825017 92.520381 
L 163.922699 87.277903 
L 163.993981 87.277903 
L 164.045637 86.229408 
L 164.122832 86.229408 
L 164.225221 82.035426 
L 164.269826 82.035426 
L 164.327005 76.792949 
L 164.409262 76.792949 
L 164.509965 74.17171 
L 164.535049 74.17171 
L 164.628788 70.501976 
L 164.678574 70.501976 
L 164.771536 69.453481 
L 164.790068 69.453481 
L 164.900844 63.162508 
L 164.913109 63.162508 
L 164.9743 62.114013 
L 165.156578 62.114013 
L 165.240984 60.54127 
L 165.307013 60.54127 
L 165.307013 60.017022 
L 165.491743 60.017022 
L 165.574523 57.395783 
L 165.627529 57.395783 
L 165.692092 55.82304 
L 165.744738 55.82304 
L 165.843741 52.677554 
L 165.907499 52.677554 
L 165.994063 49.532068 
L 166.045792 49.532068 
L 166.045792 48.483572 
L 166.313436 48.483572 
L 166.397984 46.910829 
L 166.437298 46.910829 
L 166.437298 46.386581 
L 166.721046 46.386581 
L 166.809109 43.765343 
L 166.973019 43.765343 
L 166.973019 43.241095 
L 183.157709 43.241095 
L 183.157709 42.716847 
L 183.776304 42.716847 
L 183.78653 41.668352 
L 184.140655 41.668352 
L 184.140655 41.144104 
L 184.300143 41.144104 
L 184.300143 40.619856 
L 184.904546 40.619856 
L 184.973377 39.571361 
L 185.040033 39.571361 
L 185.106432 37.47437 
L 185.170688 37.47437 
L 185.170688 36.950122 
L 185.337761 36.950122 
L 185.375083 35.377379 
L 185.610205 35.377379 
L 185.69092 33.804636 
L 185.880208 33.804636 
L 185.880208 33.280388 
L 186.083541 33.280388 
L 186.144253 31.707645 
L 186.21718 31.707645 
L 186.243784 30.65915 
L 186.367393 30.65915 
L 186.444638 28.562159 
L 194.040639 28.562159 
L 194.040639 28.037911 
L 201.365871 28.037911 
L 201.365871 27.513663 
L 333.168 27.513663 
L 333.168 27.513663 
" style="fill:none;stroke:#ff00ff;stroke-linecap:square;stroke-width:1.5;"/>
   </g>
   <g id="line2d_49">
    <defs>
     <path d="M -0 8.485281 
L 5.091169 0 
L 0 -8.485281 
L -5.091169 -0 
z
" id="mbec3dbea43" style="stroke:#ff00ff;stroke-linejoin:miter;stroke-width:1.5;"/>
    </defs>
    <g>
     <use style="fill:none;stroke:#ff00ff;stroke-linejoin:miter;stroke-width:1.5;" x="163.883693" xlink:href="#mbec3dbea43" y="89.374894"/>
     <use style="fill:none;stroke:#ff00ff;stroke-linejoin:miter;stroke-width:1.5;" x="201.365871" xlink:href="#mbec3dbea43" y="28.037911"/>
     <use style="fill:none;stroke:#ff00ff;stroke-linejoin:miter;stroke-width:1.5;" x="201.365871" xlink:href="#mbec3dbea43" y="27.513663"/>
     <use style="fill:none;stroke:#ff00ff;stroke-linejoin:miter;stroke-width:1.5;" x="201.365871" xlink:href="#mbec3dbea43" y="27.513663"/>
     <use style="fill:none;stroke:#ff00ff;stroke-linejoin:miter;stroke-width:1.5;" x="333.168" xlink:href="#mbec3dbea43" y="27.513663"/>
    </g>
   </g>
   <g id="line2d_50">
    <path style="fill:none;stroke:#ff00ff;stroke-linecap:square;stroke-width:1.5;"/>
    <g/>
   </g>
   <g id="line2d_51">
    <path clip-path="url(#pddc7e5ee49)" d="M 180.391032 43.241095 
" style="fill:none;stroke:#ff00ff;stroke-linecap:square;stroke-width:1.5;"/>
    <defs>
     <path d="M -12 12 
L 12 -12 
M -12 -12 
L 12 12 
" id="mb909542d12" style="stroke:#ff00ff;"/>
    </defs>
    <g clip-path="url(#pddc7e5ee49)">
     <use style="fill:#ff00ff;stroke:#ff00ff;" x="180.391032" xlink:href="#mb909542d12" y="43.241095"/>
    </g>
   </g>
   <g id="line2d_52">
    <defs>
     <path d="M 0 1.5 
C 0.397805 1.5 0.77937 1.341951 1.06066 1.06066 
C 1.341951 0.77937 1.5 0.397805 1.5 0 
C 1.5 -0.397805 1.341951 -0.77937 1.06066 -1.06066 
C 0.77937 -1.341951 0.397805 -1.5 0 -1.5 
C -0.397805 -1.5 -0.77937 -1.341951 -1.06066 -1.06066 
C -1.341951 -0.77937 -1.5 -0.397805 -1.5 0 
C -1.5 0.397805 -1.341951 0.77937 -1.06066 1.06066 
C -0.77937 1.341951 -0.397805 1.5 0 1.5 
z
" id="md7367f70c0" style="stroke:#ff7500;"/>
    </defs>
    <g>
     <use style="fill:#ff7500;stroke:#ff7500;" x="242.303232" xlink:href="#md7367f70c0" y="27.513663"/>
     <use style="fill:#ff7500;stroke:#ff7500;" x="242.303232" xlink:href="#md7367f70c0" y="27.513663"/>
    </g>
   </g>
   <g id="line2d_53">
    <path d="M 148.640531 294.88 
L 148.640531 294.355752 
L 150.064898 294.355752 
L 150.064898 293.831505 
L 150.957462 293.831505 
L 150.957462 293.307257 
L 151.554444 293.307257 
L 151.554444 292.783009 
L 152.01494 292.783009 
L 152.01494 291.734514 
L 153.278551 291.734514 
L 153.278551 291.210266 
L 153.906246 291.210266 
L 153.906246 290.686018 
L 154.867386 290.686018 
L 154.933243 289.637523 
L 155.064205 289.637523 
L 155.064205 289.113275 
L 155.536037 289.113275 
L 155.546612 288.06478 
L 155.974653 288.06478 
L 156.015848 287.016284 
L 156.422458 287.016284 
L 156.53261 285.967789 
L 156.651976 285.967789 
L 156.681688 284.919293 
L 156.917557 284.919293 
L 156.995466 283.870798 
L 157.159859 283.870798 
L 157.159859 283.34655 
L 157.332225 283.34655 
L 157.3798 282.298055 
L 157.502881 282.298055 
L 157.540575 281.249559 
L 158.087174 281.249559 
L 158.187188 279.676816 
L 158.295634 279.676816 
L 158.322638 278.628321 
L 158.430236 278.628321 
L 158.430236 278.104073 
L 158.661078 278.104073 
L 158.661078 277.579825 
L 158.932322 277.579825 
L 158.932322 277.055578 
L 159.453878 277.055578 
L 159.453878 276.007082 
L 159.66314 276.007082 
L 159.688082 274.958587 
L 159.787486 274.958587 
L 159.787486 273.910091 
L 160.114742 273.910091 
L 160.155215 272.861596 
L 160.34017 272.861596 
L 160.34017 272.337348 
L 160.602113 272.337348 
L 160.602113 271.8131 
L 160.79793 271.8131 
L 160.79793 271.288853 
L 161.030003 271.288853 
L 161.045364 270.240357 
L 161.71538 270.240357 
L 161.737516 269.191862 
L 163.179578 269.191862 
L 163.179578 268.667614 
L 163.627973 268.667614 
L 163.627973 268.143366 
L 163.8902 268.143366 
L 163.8902 267.619119 
L 164.142076 267.619119 
L 164.142076 267.094871 
L 164.906977 267.094871 
L 164.919238 266.046375 
L 165.071755 266.046375 
L 165.071755 265.522128 
L 165.497669 265.522128 
L 165.497669 264.99788 
L 165.627529 264.99788 
L 165.733053 263.425137 
L 165.738896 263.425137 
L 165.738896 262.900889 
L 165.872751 262.900889 
L 165.982546 260.803898 
L 166.120239 260.803898 
L 166.205741 259.755403 
L 166.262507 259.755403 
L 166.336023 258.706907 
L 166.532402 258.706907 
L 166.576976 257.658412 
L 166.654702 257.658412 
L 166.654702 257.134164 
L 166.863919 257.134164 
L 166.863919 256.609917 
L 167.048979 256.609917 
L 167.119214 254.512926 
L 167.210629 254.512926 
L 167.258829 252.940182 
L 167.360143 252.940182 
L 167.455577 251.367439 
L 167.545224 251.367439 
L 167.545224 250.843192 
L 167.66055 250.843192 
L 167.72313 248.221953 
L 167.811397 248.221953 
L 167.904364 245.076467 
L 167.991707 245.076467 
L 168.032657 242.455228 
L 168.134607 242.455228 
L 168.149847 240.882485 
L 168.261199 240.882485 
L 168.351772 237.212751 
L 168.376846 237.212751 
L 168.481762 235.11576 
L 168.506648 235.11576 
L 168.615719 233.018769 
L 168.635476 233.018769 
L 168.69953 231.446026 
L 168.758446 231.446026 
L 168.841566 229.349035 
L 168.948539 229.349035 
L 169.021096 227.776292 
L 169.098153 227.776292 
L 169.131758 225.679301 
L 169.213096 225.679301 
L 169.289299 224.630806 
L 169.374626 224.630806 
L 169.459532 222.533815 
L 169.497134 222.533815 
L 169.581438 220.436824 
L 169.683918 220.436824 
L 169.795022 216.242842 
L 169.850305 216.242842 
L 169.960342 212.04886 
L 170.04241 212.04886 
L 170.151228 206.806383 
L 170.169298 206.806383 
L 170.277318 202.088154 
L 170.295255 202.088154 
L 170.366819 201.039658 
L 170.411395 201.039658 
L 170.504631 198.41842 
L 170.557682 198.41842 
L 170.65452 194.748686 
L 170.680836 194.748686 
L 170.790053 188.981961 
L 170.829202 188.981961 
L 170.885594 184.787979 
L 171.019325 184.787979 
L 171.113603 179.545502 
L 171.143493 179.545502 
L 171.241337 176.400016 
L 171.300623 176.400016 
L 171.359705 174.303025 
L 171.43537 174.303025 
L 171.531572 170.109043 
L 171.61479 170.109043 
L 171.668666 167.487804 
L 171.730622 167.487804 
L 171.837486 163.293823 
L 171.853868 163.293823 
L 171.94369 160.148336 
L 171.992487 160.148336 
L 172.077549 158.051345 
L 172.10581 158.051345 
L 172.194328 154.905859 
L 172.31829 154.905859 
L 172.350136 152.808868 
L 172.429492 152.808868 
L 172.512425 150.18763 
L 172.583192 150.18763 
L 172.65367 145.993648 
L 172.73164 145.993648 
L 172.793763 142.323914 
L 172.844073 142.323914 
L 172.901941 141.275418 
L 172.963453 141.275418 
L 173.055309 138.129932 
L 173.123881 138.129932 
L 173.14288 136.557189 
L 173.256437 136.557189 
L 173.297887 134.460198 
L 173.425378 134.460198 
L 173.525951 130.790464 
L 173.625939 130.790464 
L 173.651767 128.169225 
L 173.816885 128.169225 
L 173.816885 126.596482 
L 173.940597 126.596482 
L 173.940597 125.023739 
L 174.088604 125.023739 
L 174.167501 123.450996 
L 174.238912 123.450996 
L 174.334849 119.257014 
L 174.465454 119.257014 
L 174.465454 118.208519 
L 174.581108 118.208519 
L 174.581108 117.160023 
L 174.998639 117.160023 
L 174.998639 116.635776 
L 209.583814 116.635776 
L 209.583814 116.111528 
L 209.819222 116.111528 
L 209.819222 115.58728 
L 210.172126 115.58728 
L 210.261312 114.538785 
L 210.350039 114.538785 
L 210.350039 114.014537 
L 210.485952 114.014537 
L 210.561046 110.869051 
L 210.621229 110.869051 
L 210.652098 108.247812 
L 210.745227 108.247812 
L 210.803496 105.102326 
L 210.879331 105.102326 
L 210.972922 103.005335 
L 210.99729 103.005335 
L 210.99729 102.481087 
L 211.498341 102.481087 
L 211.593903 99.335601 
L 211.655431 99.335601 
L 211.754545 95.665867 
L 211.796276 95.665867 
L 211.881429 93.568876 
L 211.914894 93.568876 
L 212.016485 90.42339 
L 212.032305 90.42339 
L 212.119839 88.850646 
L 212.361581 88.850646 
L 212.379411 87.802151 
L 212.530606 87.802151 
L 212.568198 86.753656 
L 212.66982 86.753656 
L 212.762512 83.083922 
L 212.799222 83.083922 
L 212.865631 79.414188 
L 212.935161 79.414188 
L 213.000301 77.841444 
L 213.052533 77.841444 
L 213.052533 77.317197 
L 213.474958 77.317197 
L 213.52287 76.268701 
L 213.842833 76.268701 
L 213.935443 74.695958 
L 213.975737 74.695958 
L 214.023332 73.123215 
L 214.100262 73.123215 
L 214.193939 70.501976 
L 214.243715 70.501976 
L 214.323474 68.929233 
L 214.379086 68.929233 
L 214.412848 67.880738 
L 214.496281 67.880738 
L 214.496281 66.832242 
L 214.964232 66.832242 
L 215.072882 65.783747 
L 215.113903 65.783747 
L 215.186114 64.211004 
L 215.551708 64.211004 
L 215.659919 62.114013 
L 215.724775 62.114013 
L 215.827468 58.444279 
L 215.845844 58.444279 
L 215.858189 56.871536 
L 216.036356 56.871536 
L 216.036356 56.347288 
L 222.32869 56.347288 
L 222.426135 55.298792 
L 222.449224 55.298792 
L 222.451165 54.250297 
L 222.724327 54.250297 
L 222.763754 52.153306 
L 222.841917 52.153306 
L 222.873714 51.104811 
L 222.97963 51.104811 
L 222.97963 50.580563 
L 223.377692 50.580563 
L 223.377692 50.056315 
L 223.562407 50.056315 
L 223.664577 47.959324 
L 223.771137 47.959324 
L 223.860163 46.386581 
L 224.106501 46.386581 
L 224.205691 45.338086 
L 224.260896 45.338086 
L 224.260896 44.813838 
L 224.510206 44.813838 
L 224.510206 44.28959 
L 225.04187 44.28959 
L 225.04187 43.765343 
L 225.419895 43.765343 
L 225.5275 41.668352 
L 225.539395 41.668352 
L 225.588688 40.619856 
L 225.817639 40.619856 
L 225.817639 40.095609 
L 227.014436 40.095609 
L 227.085223 39.047113 
L 227.143579 39.047113 
L 227.143579 38.522865 
L 229.282582 38.522865 
L 229.340591 37.47437 
L 229.524313 37.47437 
L 229.572966 36.425875 
L 229.918117 36.425875 
L 229.918117 35.901627 
L 230.221523 35.901627 
L 230.221523 35.377379 
L 230.976847 35.377379 
L 231.083004 33.804636 
L 231.122238 33.804636 
L 231.164759 32.756141 
L 231.957272 32.756141 
L 231.957272 32.231893 
L 232.101154 32.231893 
L 232.101154 31.707645 
L 232.468382 31.707645 
L 232.468382 31.183397 
L 234.242941 31.183397 
L 234.242941 30.65915 
L 236.810391 30.65915 
L 236.810391 30.134902 
L 237.027095 30.134902 
L 237.027095 29.610654 
L 240.015453 29.610654 
L 240.015453 29.086407 
L 240.396742 29.086407 
L 240.396742 28.562159 
L 241.108214 28.562159 
L 241.108214 28.037911 
L 242.303232 28.037911 
L 242.303232 27.513663 
L 333.168 27.513663 
L 333.168 27.513663 
" style="fill:none;stroke:#ff7500;stroke-linecap:square;stroke-width:1.5;"/>
   </g>
   <g id="line2d_54">
    <defs>
     <path d="M 0 -6 
L -1.347084 -1.854102 
L -5.706339 -1.854102 
L -2.179628 0.708204 
L -3.526712 4.854102 
L -0 2.291796 
L 3.526712 4.854102 
L 2.179628 0.708204 
L 5.706339 -1.854102 
L 1.347084 -1.854102 
z
" id="m76194188d6" style="stroke:#ff7500;stroke-linejoin:bevel;stroke-width:1.5;"/>
    </defs>
    <g>
     <use style="fill:none;stroke:#ff7500;stroke-linejoin:bevel;stroke-width:1.5;" x="173.50737" xlink:href="#m76194188d6" y="131.314712"/>
     <use style="fill:none;stroke:#ff7500;stroke-linejoin:bevel;stroke-width:1.5;" x="237.027095" xlink:href="#m76194188d6" y="29.610654"/>
     <use style="fill:none;stroke:#ff7500;stroke-linejoin:bevel;stroke-width:1.5;" x="242.303232" xlink:href="#m76194188d6" y="27.513663"/>
     <use style="fill:none;stroke:#ff7500;stroke-linejoin:bevel;stroke-width:1.5;" x="333.168" xlink:href="#m76194188d6" y="27.513663"/>
    </g>
   </g>
   <g id="line2d_55">
    <path style="fill:none;stroke:#ff7500;stroke-linecap:square;stroke-width:1.5;"/>
    <g/>
   </g>
   <g id="line2d_56">
    <path clip-path="url(#pddc7e5ee49)" d="M 211.188924 102.481087 
" style="fill:none;stroke:#ff7500;stroke-linecap:square;stroke-width:1.5;"/>
    <defs>
     <path d="M -12 12 
L 12 -12 
M -12 -12 
L 12 12 
" id="m2d3dfba5b2" style="stroke:#ff7500;"/>
    </defs>
    <g clip-path="url(#pddc7e5ee49)">
     <use style="fill:#ff7500;stroke:#ff7500;" x="211.188924" xlink:href="#m2d3dfba5b2" y="102.481087"/>
    </g>
   </g>
   <g id="line2d_57">
    <defs>
     <path d="M 0 1.5 
C 0.397805 1.5 0.77937 1.341951 1.06066 1.06066 
C 1.341951 0.77937 1.5 0.397805 1.5 0 
C 1.5 -0.397805 1.341951 -0.77937 1.06066 -1.06066 
C 0.77937 -1.341951 0.397805 -1.5 0 -1.5 
C -0.397805 -1.5 -0.77937 -1.341951 -1.06066 -1.06066 
C -1.341951 -0.77937 -1.5 -0.397805 -1.5 0 
C -1.5 0.397805 -1.341951 0.77937 -1.06066 1.06066 
C -0.77937 1.341951 -0.397805 1.5 0 1.5 
z
" id="m0280434066" style="stroke:#6495ed;"/>
    </defs>
    <g>
     <use style="fill:#6495ed;stroke:#6495ed;" x="162.167163" xlink:href="#m0280434066" y="27.513663"/>
     <use style="fill:#6495ed;stroke:#6495ed;" x="162.167163" xlink:href="#m0280434066" y="27.513663"/>
    </g>
   </g>
   <g id="line2d_58">
    <path d="M 141.400449 294.88 
L 141.400449 294.355752 
L 141.710592 294.355752 
L 141.710592 293.831505 
L 141.945413 293.831505 
L 141.945413 292.258761 
L 143.051826 292.258761 
L 143.051826 291.210266 
L 143.69567 291.210266 
L 143.69567 290.686018 
L 143.842493 290.686018 
L 143.863366 289.113275 
L 144.397345 289.113275 
L 144.457904 287.540532 
L 144.618359 287.540532 
L 144.618359 287.016284 
L 145.129729 287.016284 
L 145.168442 285.443541 
L 145.588629 285.443541 
L 145.682711 283.870798 
L 146.291058 283.870798 
L 146.381382 282.298055 
L 146.507044 282.298055 
L 146.596243 280.725312 
L 146.790867 280.725312 
L 146.896104 279.152568 
L 147.25944 279.152568 
L 147.276552 277.579825 
L 147.497466 277.579825 
L 147.497466 277.055578 
L 147.698898 277.055578 
L 147.798735 274.434339 
L 148.078499 274.434339 
L 148.078499 273.910091 
L 148.192385 273.910091 
L 148.192385 273.385844 
L 148.321624 273.385844 
L 148.369839 272.337348 
L 148.481817 272.337348 
L 148.545479 270.240357 
L 148.750766 270.240357 
L 148.782132 269.191862 
L 148.969136 269.191862 
L 149.07729 268.143366 
L 149.108066 268.143366 
L 149.108066 267.619119 
L 149.245882 267.619119 
L 149.291576 266.570623 
L 149.548241 266.570623 
L 149.652822 264.473632 
L 149.697448 264.473632 
L 149.697448 263.949385 
L 150.453114 263.949385 
L 150.453114 263.425137 
L 150.80492 263.425137 
L 150.80492 262.900889 
L 150.929828 262.900889 
L 151.026355 261.852394 
L 151.231391 261.852394 
L 151.272106 260.279651 
L 151.594402 260.279651 
L 151.700505 259.231155 
L 151.792811 259.231155 
L 151.792811 258.706907 
L 151.910766 258.706907 
L 151.936869 255.561421 
L 152.221413 255.561421 
L 152.221413 255.037173 
L 152.400064 255.037173 
L 152.400064 254.512926 
L 152.551729 254.512926 
L 152.639586 252.415935 
L 152.925139 252.415935 
L 153.011113 249.794696 
L 153.096659 249.794696 
L 153.206025 246.124962 
L 153.25441 246.124962 
L 153.278551 245.076467 
L 153.38677 245.076467 
L 153.482395 242.455228 
L 153.530009 242.455228 
L 153.613017 239.83399 
L 153.64847 239.83399 
L 153.754391 237.736999 
L 153.76612 237.736999 
L 153.789554 236.164255 
L 153.906246 236.164255 
L 153.987461 234.067265 
L 154.022151 234.067265 
L 154.05677 232.494521 
L 154.137279 232.494521 
L 154.22883 227.776292 
L 154.319896 227.776292 
L 154.410482 224.106558 
L 154.444329 224.106558 
L 154.466857 222.533815 
L 154.567867 222.533815 
L 154.657159 217.291338 
L 154.712732 217.291338 
L 154.779183 215.194347 
L 154.933243 215.194347 
L 155.031558 211.000365 
L 155.064205 211.000365 
L 155.172583 208.903374 
L 155.215743 208.903374 
L 155.323172 205.23364 
L 155.355271 205.23364 
L 155.461834 201.563906 
L 155.514869 201.563906 
L 155.620451 198.41842 
L 155.641489 198.41842 
L 155.725388 193.70019 
L 155.788044 193.70019 
L 155.850472 188.981961 
L 155.902323 188.981961 
L 155.995263 186.88497 
L 156.036409 186.88497 
L 156.128628 183.739484 
L 156.169456 183.739484 
L 156.240673 179.021254 
L 156.291362 179.021254 
L 156.402354 174.827272 
L 156.422458 174.827272 
L 156.522625 172.206034 
L 156.542589 172.206034 
L 156.64206 166.963557 
L 156.661886 166.963557 
L 156.731095 161.721079 
L 156.790197 161.721079 
L 156.888249 155.954354 
L 156.927315 155.954354 
L 156.927315 154.905859 
L 157.053666 154.905859 
L 157.150232 150.711877 
L 157.16948 150.711877 
L 157.265399 147.042143 
L 157.294071 147.042143 
L 157.389299 136.032941 
L 157.408281 136.032941 
L 157.446184 133.93595 
L 157.521738 133.93595 
L 157.587577 130.266216 
L 157.634451 130.266216 
L 157.69986 127.644978 
L 157.746429 127.644978 
L 157.848439 123.975244 
L 157.866922 123.975244 
L 157.977401 118.732766 
L 158.01407 118.732766 
L 158.105402 113.490289 
L 158.132707 113.490289 
L 158.223412 109.820555 
L 158.268586 109.820555 
L 158.376521 104.578078 
L 158.385485 104.578078 
L 158.492691 98.811353 
L 158.537164 98.811353 
L 158.6346 94.617371 
L 158.687516 94.617371 
L 158.784106 89.374894 
L 158.819096 89.374894 
L 158.923639 82.035426 
L 158.98433 82.035426 
L 159.079271 78.365692 
L 159.139417 78.365692 
L 159.216438 75.744454 
L 159.25056 75.744454 
L 159.352519 71.550472 
L 159.369454 71.550472 
L 159.470713 65.783747 
L 159.537889 65.783747 
L 159.646493 61.065517 
L 159.72128 61.065517 
L 159.828735 55.298792 
L 159.836973 55.298792 
L 159.927332 49.00782 
L 159.976419 49.00782 
L 160.033511 47.435077 
L 160.130943 47.435077 
L 160.203656 45.338086 
L 160.251962 45.338086 
L 160.324166 43.765343 
L 160.467671 43.765343 
L 160.546882 40.619856 
L 160.602113 40.619856 
L 160.704216 37.998618 
L 160.79014 37.998618 
L 160.79014 37.47437 
L 160.968422 37.47437 
L 161.045364 34.853131 
L 161.083705 34.853131 
L 161.121962 33.804636 
L 161.243814 33.804636 
L 161.334639 31.707645 
L 161.387399 31.707645 
L 161.492437 30.134902 
L 161.766986 30.134902 
L 161.818438 28.562159 
L 162.044464 28.562159 
L 162.044464 28.037911 
L 162.167163 28.037911 
L 162.167163 27.513663 
L 333.168 27.513663 
L 333.168 27.513663 
" style="fill:none;stroke:#6495ed;stroke-linecap:square;stroke-width:1.5;"/>
   </g>
   <g id="line2d_59">
    <defs>
     <path d="M -0 6 
L 6 -6 
L -6 -6 
z
" id="m71a163bcd8" style="stroke:#6495ed;stroke-linejoin:miter;stroke-width:1.5;"/>
    </defs>
    <g>
     <use style="fill:none;stroke:#6495ed;stroke-linejoin:miter;stroke-width:1.5;" x="157.866922" xlink:href="#m71a163bcd8" y="123.450996"/>
     <use style="fill:none;stroke:#6495ed;stroke-linejoin:miter;stroke-width:1.5;" x="162.167163" xlink:href="#m71a163bcd8" y="28.037911"/>
     <use style="fill:none;stroke:#6495ed;stroke-linejoin:miter;stroke-width:1.5;" x="162.167163" xlink:href="#m71a163bcd8" y="27.513663"/>
     <use style="fill:none;stroke:#6495ed;stroke-linejoin:miter;stroke-width:1.5;" x="162.167163" xlink:href="#m71a163bcd8" y="27.513663"/>
     <use style="fill:none;stroke:#6495ed;stroke-linejoin:miter;stroke-width:1.5;" x="333.168" xlink:href="#m71a163bcd8" y="27.513663"/>
    </g>
   </g>
   <g id="line2d_60">
    <path style="fill:none;stroke:#6495ed;stroke-linecap:square;stroke-width:1.5;"/>
    <g/>
   </g>
   <g id="line2d_61">
    <path d="M 333.168 27.513663 
L 363.64328 289.532673 
" style="fill:none;stroke:#ff7500;stroke-linecap:square;stroke-width:1.5;"/>
    <g>
     <use style="fill:none;stroke:#ff7500;stroke-linejoin:bevel;stroke-width:1.5;" x="333.168" xlink:href="#m76194188d6" y="27.513663"/>
     <use style="fill:none;stroke:#ff7500;stroke-linejoin:bevel;stroke-width:1.5;" x="363.64328" xlink:href="#m76194188d6" y="289.532673"/>
    </g>
   </g>
   <g id="line2d_62">
    <path d="M 333.168 27.513663 
L 363.64328 225.364752 
" style="fill:none;stroke:#000080;stroke-linecap:square;stroke-width:1.5;"/>
    <g>
     <use style="fill:none;stroke:#000080;stroke-width:1.5;" x="333.168" xlink:href="#maf627c859d" y="27.513663"/>
     <use style="fill:none;stroke:#000080;stroke-width:1.5;" x="363.64328" xlink:href="#maf627c859d" y="225.364752"/>
    </g>
   </g>
   <g id="line2d_63">
    <path d="M 333.168 27.513663 
L 363.64328 161.196832 
" style="fill:none;stroke:#ff00ff;stroke-linecap:square;stroke-width:1.5;"/>
    <g>
     <use style="fill:none;stroke:#ff00ff;stroke-linejoin:miter;stroke-width:1.5;" x="333.168" xlink:href="#mbec3dbea43" y="27.513663"/>
     <use style="fill:none;stroke:#ff00ff;stroke-linejoin:miter;stroke-width:1.5;" x="363.64328" xlink:href="#mbec3dbea43" y="161.196832"/>
    </g>
   </g>
   <g id="line2d_64">
    <path d="M 333.168 27.513663 
L 363.64328 97.028911 
" style="fill:none;stroke:#6495ed;stroke-linecap:square;stroke-width:1.5;"/>
    <g>
     <use style="fill:none;stroke:#6495ed;stroke-linejoin:miter;stroke-width:1.5;" x="333.168" xlink:href="#m71a163bcd8" y="27.513663"/>
     <use style="fill:none;stroke:#6495ed;stroke-linejoin:miter;stroke-width:1.5;" x="363.64328" xlink:href="#m71a163bcd8" y="97.028911"/>
    </g>
   </g>
   <g id="line2d_65">
    <path d="M 333.168 294.88 
L 333.168 27.513663 
" style="fill:none;stroke:#000000;stroke-linecap:square;stroke-width:1.5;"/>
   </g>
   <g id="patch_3">
    <path d="M 56.12 294.88 
L 56.12 24.84 
" style="fill:none;stroke:#000000;stroke-linecap:square;stroke-linejoin:miter;stroke-width:0.8;"/>
   </g>
   <g id="patch_4">
    <path d="M 333.168 294.88 
L 333.168 24.84 
" style="fill:none;stroke:#000000;stroke-linecap:square;stroke-linejoin:miter;stroke-width:0.8;"/>
   </g>
   <g id="patch_5">
    <path d="M 56.12 294.88 
L 333.168 294.88 
" style="fill:none;stroke:#000000;stroke-linecap:square;stroke-linejoin:miter;stroke-width:0.8;"/>
   </g>
   <g id="patch_6">
    <path d="M 56.12 24.84 
L 333.168 24.84 
" style="fill:none;stroke:#000000;stroke-linecap:square;stroke-linejoin:miter;stroke-width:0.8;"/>
   </g>
   <g id="text_13">
    <!-- ppmf-new -->
    <defs>
     <path d="M 4.203125 54.6875 
L 13.1875 54.6875 
L 24.421875 12.015625 
L 35.59375 54.6875 
L 46.1875 54.6875 
L 57.421875 12.015625 
L 68.609375 54.6875 
L 77.59375 54.6875 
L 63.28125 0 
L 52.6875 0 
L 40.921875 44.828125 
L 29.109375 0 
L 18.5 0 
z
" id="DejaVuSans-77"/>
    </defs>
    <g transform="translate(369.18424 294.223611)scale(0.17 -0.17)">
     <use xlink:href="#DejaVuSans-70"/>
     <use x="63.476562" xlink:href="#DejaVuSans-70"/>
     <use x="126.953125" xlink:href="#DejaVuSans-6d"/>
     <use x="224.365234" xlink:href="#DejaVuSans-66"/>
     <use x="259.492188" xlink:href="#DejaVuSans-2d"/>
     <use x="295.576172" xlink:href="#DejaVuSans-6e"/>
     <use x="358.955078" xlink:href="#DejaVuSans-65"/>
     <use x="420.478516" xlink:href="#DejaVuSans-77"/>
    </g>
   </g>
   <g id="text_14">
    <!-- CMA ES PPM -->
    <defs>
     <path d="M 64.40625 67.28125 
L 64.40625 56.890625 
Q 59.421875 61.53125 53.78125 63.8125 
Q 48.140625 66.109375 41.796875 66.109375 
Q 29.296875 66.109375 22.65625 58.46875 
Q 16.015625 50.828125 16.015625 36.375 
Q 16.015625 21.96875 22.65625 14.328125 
Q 29.296875 6.6875 41.796875 6.6875 
Q 48.140625 6.6875 53.78125 8.984375 
Q 59.421875 11.28125 64.40625 15.921875 
L 64.40625 5.609375 
Q 59.234375 2.09375 53.4375 0.328125 
Q 47.65625 -1.421875 41.21875 -1.421875 
Q 24.65625 -1.421875 15.125 8.703125 
Q 5.609375 18.84375 5.609375 36.375 
Q 5.609375 53.953125 15.125 64.078125 
Q 24.65625 74.21875 41.21875 74.21875 
Q 47.75 74.21875 53.53125 72.484375 
Q 59.328125 70.75 64.40625 67.28125 
z
" id="DejaVuSans-43"/>
     <path d="M 9.8125 72.90625 
L 24.515625 72.90625 
L 43.109375 23.296875 
L 61.8125 72.90625 
L 76.515625 72.90625 
L 76.515625 0 
L 66.890625 0 
L 66.890625 64.015625 
L 48.09375 14.015625 
L 38.1875 14.015625 
L 19.390625 64.015625 
L 19.390625 0 
L 9.8125 0 
z
" id="DejaVuSans-4d"/>
     <path d="M 34.1875 63.1875 
L 20.796875 26.90625 
L 47.609375 26.90625 
z
M 28.609375 72.90625 
L 39.796875 72.90625 
L 67.578125 0 
L 57.328125 0 
L 50.6875 18.703125 
L 17.828125 18.703125 
L 11.1875 0 
L 0.78125 0 
z
" id="DejaVuSans-41"/>
     <path d="M 9.8125 72.90625 
L 55.90625 72.90625 
L 55.90625 64.59375 
L 19.671875 64.59375 
L 19.671875 43.015625 
L 54.390625 43.015625 
L 54.390625 34.71875 
L 19.671875 34.71875 
L 19.671875 8.296875 
L 56.78125 8.296875 
L 56.78125 0 
L 9.8125 0 
z
" id="DejaVuSans-45"/>
     <path d="M 53.515625 70.515625 
L 53.515625 60.890625 
Q 47.90625 63.578125 42.921875 64.890625 
Q 37.9375 66.21875 33.296875 66.21875 
Q 25.25 66.21875 20.875 63.09375 
Q 16.5 59.96875 16.5 54.203125 
Q 16.5 49.359375 19.40625 46.890625 
Q 22.3125 44.4375 30.421875 42.921875 
L 36.375 41.703125 
Q 47.40625 39.59375 52.65625 34.296875 
Q 57.90625 29 57.90625 20.125 
Q 57.90625 9.515625 50.796875 4.046875 
Q 43.703125 -1.421875 29.984375 -1.421875 
Q 24.8125 -1.421875 18.96875 -0.25 
Q 13.140625 0.921875 6.890625 3.21875 
L 6.890625 13.375 
Q 12.890625 10.015625 18.65625 8.296875 
Q 24.421875 6.59375 29.984375 6.59375 
Q 38.421875 6.59375 43.015625 9.90625 
Q 47.609375 13.234375 47.609375 19.390625 
Q 47.609375 24.75 44.3125 27.78125 
Q 41.015625 30.8125 33.5 32.328125 
L 27.484375 33.5 
Q 16.453125 35.6875 11.515625 40.375 
Q 6.59375 45.0625 6.59375 53.421875 
Q 6.59375 63.09375 13.40625 68.65625 
Q 20.21875 74.21875 32.171875 74.21875 
Q 37.3125 74.21875 42.625 73.28125 
Q 47.953125 72.359375 53.515625 70.515625 
z
" id="DejaVuSans-53"/>
     <path d="M 19.671875 64.796875 
L 19.671875 37.40625 
L 32.078125 37.40625 
Q 38.96875 37.40625 42.71875 40.96875 
Q 46.484375 44.53125 46.484375 51.125 
Q 46.484375 57.671875 42.71875 61.234375 
Q 38.96875 64.796875 32.078125 64.796875 
z
M 9.8125 72.90625 
L 32.078125 72.90625 
Q 44.34375 72.90625 50.609375 67.359375 
Q 56.890625 61.8125 56.890625 51.125 
Q 56.890625 40.328125 50.609375 34.8125 
Q 44.34375 29.296875 32.078125 29.296875 
L 19.671875 29.296875 
L 19.671875 0 
L 9.8125 0 
z
" id="DejaVuSans-50"/>
    </defs>
    <g transform="translate(369.18424 230.05569)scale(0.17 -0.17)">
     <use xlink:href="#DejaVuSans-43"/>
     <use x="69.824219" xlink:href="#DejaVuSans-4d"/>
     <use x="156.103516" xlink:href="#DejaVuSans-41"/>
     <use x="224.511719" xlink:href="#DejaVuSans-20"/>
     <use x="256.298828" xlink:href="#DejaVuSans-45"/>
     <use x="319.482422" xlink:href="#DejaVuSans-53"/>
     <use x="382.958984" xlink:href="#DejaVuSans-20"/>
     <use x="414.746094" xlink:href="#DejaVuSans-50"/>
     <use x="475.048828" xlink:href="#DejaVuSans-50"/>
     <use x="535.351562" xlink:href="#DejaVuSans-4d"/>
    </g>
   </g>
   <g id="text_15">
    <!-- CMA ES CSA -->
    <g transform="translate(369.18424 165.887769)scale(0.17 -0.17)">
     <use xlink:href="#DejaVuSans-43"/>
     <use x="69.824219" xlink:href="#DejaVuSans-4d"/>
     <use x="156.103516" xlink:href="#DejaVuSans-41"/>
     <use x="224.511719" xlink:href="#DejaVuSans-20"/>
     <use x="256.298828" xlink:href="#DejaVuSans-45"/>
     <use x="319.482422" xlink:href="#DejaVuSans-53"/>
     <use x="382.958984" xlink:href="#DejaVuSans-20"/>
     <use x="414.746094" xlink:href="#DejaVuSans-43"/>
     <use x="484.570312" xlink:href="#DejaVuSans-53"/>
     <use x="548.0625" xlink:href="#DejaVuSans-41"/>
    </g>
   </g>
   <g id="text_16">
    <!-- CMAES posi -->
    <g transform="translate(369.18424 101.719848)scale(0.17 -0.17)">
     <use xlink:href="#DejaVuSans-43"/>
     <use x="69.824219" xlink:href="#DejaVuSans-4d"/>
     <use x="156.103516" xlink:href="#DejaVuSans-41"/>
     <use x="224.511719" xlink:href="#DejaVuSans-45"/>
     <use x="287.695312" xlink:href="#DejaVuSans-53"/>
     <use x="351.171875" xlink:href="#DejaVuSans-20"/>
     <use x="382.958984" xlink:href="#DejaVuSans-70"/>
     <use x="446.435547" xlink:href="#DejaVuSans-6f"/>
     <use x="507.617188" xlink:href="#DejaVuSans-73"/>
     <use x="559.716797" xlink:href="#DejaVuSans-69"/>
    </g>
   </g>
   <g id="text_17">
    <!-- best 2009 -->
    <defs>
     <path d="M 48.6875 27.296875 
Q 48.6875 37.203125 44.609375 42.84375 
Q 40.53125 48.484375 33.40625 48.484375 
Q 26.265625 48.484375 22.1875 42.84375 
Q 18.109375 37.203125 18.109375 27.296875 
Q 18.109375 17.390625 22.1875 11.75 
Q 26.265625 6.109375 33.40625 6.109375 
Q 40.53125 6.109375 44.609375 11.75 
Q 48.6875 17.390625 48.6875 27.296875 
z
M 18.109375 46.390625 
Q 20.953125 51.265625 25.265625 53.625 
Q 29.59375 56 35.59375 56 
Q 45.5625 56 51.78125 48.09375 
Q 58.015625 40.1875 58.015625 27.296875 
Q 58.015625 14.40625 51.78125 6.484375 
Q 45.5625 -1.421875 35.59375 -1.421875 
Q 29.59375 -1.421875 25.265625 0.953125 
Q 20.953125 3.328125 18.109375 8.203125 
L 18.109375 0 
L 9.078125 0 
L 9.078125 75.984375 
L 18.109375 75.984375 
z
" id="DejaVuSans-62"/>
     <path d="M 10.984375 1.515625 
L 10.984375 10.5 
Q 14.703125 8.734375 18.5 7.8125 
Q 22.3125 6.890625 25.984375 6.890625 
Q 35.75 6.890625 40.890625 13.453125 
Q 46.046875 20.015625 46.78125 33.40625 
Q 43.953125 29.203125 39.59375 26.953125 
Q 35.25 24.703125 29.984375 24.703125 
Q 19.046875 24.703125 12.671875 31.3125 
Q 6.296875 37.9375 6.296875 49.421875 
Q 6.296875 60.640625 12.9375 67.421875 
Q 19.578125 74.21875 30.609375 74.21875 
Q 43.265625 74.21875 49.921875 64.515625 
Q 56.59375 54.828125 56.59375 36.375 
Q 56.59375 19.140625 48.40625 8.859375 
Q 40.234375 -1.421875 26.421875 -1.421875 
Q 22.703125 -1.421875 18.890625 -0.6875 
Q 15.09375 0.046875 10.984375 1.515625 
z
M 30.609375 32.421875 
Q 37.25 32.421875 41.125 36.953125 
Q 45.015625 41.5 45.015625 49.421875 
Q 45.015625 57.28125 41.125 61.84375 
Q 37.25 66.40625 30.609375 66.40625 
Q 23.96875 66.40625 20.09375 61.84375 
Q 16.21875 57.28125 16.21875 49.421875 
Q 16.21875 41.5 20.09375 36.953125 
Q 23.96875 32.421875 30.609375 32.421875 
z
" id="DejaVuSans-39"/>
    </defs>
    <g transform="translate(369.18424 37.551928)scale(0.17 -0.17)">
     <use xlink:href="#DejaVuSans-62"/>
     <use x="63.476562" xlink:href="#DejaVuSans-65"/>
     <use x="125" xlink:href="#DejaVuSans-73"/>
     <use x="177.099609" xlink:href="#DejaVuSans-74"/>
     <use x="216.308594" xlink:href="#DejaVuSans-20"/>
     <use x="248.095703" xlink:href="#DejaVuSans-32"/>
     <use x="311.71875" xlink:href="#DejaVuSans-30"/>
     <use x="375.341797" xlink:href="#DejaVuSans-30"/>
     <use x="438.964844" xlink:href="#DejaVuSans-39"/>
    </g>
   </g>
   <g id="text_18">
    <!-- bbob f10, 5-D -->
    <defs>
     <path d="M 10.796875 72.90625 
L 49.515625 72.90625 
L 49.515625 64.59375 
L 19.828125 64.59375 
L 19.828125 46.734375 
Q 21.96875 47.46875 24.109375 47.828125 
Q 26.265625 48.1875 28.421875 48.1875 
Q 40.625 48.1875 47.75 41.5 
Q 54.890625 34.8125 54.890625 23.390625 
Q 54.890625 11.625 47.5625 5.09375 
Q 40.234375 -1.421875 26.90625 -1.421875 
Q 22.3125 -1.421875 17.546875 -0.640625 
Q 12.796875 0.140625 7.71875 1.703125 
L 7.71875 11.625 
Q 12.109375 9.234375 16.796875 8.0625 
Q 21.484375 6.890625 26.703125 6.890625 
Q 35.15625 6.890625 40.078125 11.328125 
Q 45.015625 15.765625 45.015625 23.390625 
Q 45.015625 31 40.078125 35.4375 
Q 35.15625 39.890625 26.703125 39.890625 
Q 22.75 39.890625 18.8125 39.015625 
Q 14.890625 38.140625 10.796875 36.28125 
z
" id="DejaVuSans-35"/>
     <path d="M 19.671875 64.796875 
L 19.671875 8.109375 
L 31.59375 8.109375 
Q 46.6875 8.109375 53.6875 14.9375 
Q 60.6875 21.78125 60.6875 36.53125 
Q 60.6875 51.171875 53.6875 57.984375 
Q 46.6875 64.796875 31.59375 64.796875 
z
M 9.8125 72.90625 
L 30.078125 72.90625 
Q 51.265625 72.90625 61.171875 64.09375 
Q 71.09375 55.28125 71.09375 36.53125 
Q 71.09375 17.671875 61.125 8.828125 
Q 51.171875 0 30.078125 0 
L 9.8125 0 
z
" id="DejaVuSans-44"/>
    </defs>
    <g transform="translate(58.89048 35.290806)scale(0.102 -0.102)">
     <use xlink:href="#DejaVuSans-62"/>
     <use x="63.476562" xlink:href="#DejaVuSans-62"/>
     <use x="126.953125" xlink:href="#DejaVuSans-6f"/>
     <use x="188.134766" xlink:href="#DejaVuSans-62"/>
     <use x="251.611328" xlink:href="#DejaVuSans-20"/>
     <use x="283.398438" xlink:href="#DejaVuSans-66"/>
     <use x="318.603516" xlink:href="#DejaVuSans-31"/>
     <use x="382.226562" xlink:href="#DejaVuSans-30"/>
     <use x="445.849609" xlink:href="#DejaVuSans-2c"/>
     <use x="477.636719" xlink:href="#DejaVuSans-20"/>
     <use x="509.423828" xlink:href="#DejaVuSans-35"/>
     <use x="573.046875" xlink:href="#DejaVuSans-2d"/>
     <use x="609.130859" xlink:href="#DejaVuSans-44"/>
    </g>
    <!-- 51 targets: 100..1e-08 -->
    <defs>
     <path d="M 11.71875 12.40625 
L 22.015625 12.40625 
L 22.015625 0 
L 11.71875 0 
z
M 11.71875 51.703125 
L 22.015625 51.703125 
L 22.015625 39.3125 
L 11.71875 39.3125 
z
" id="DejaVuSans-3a"/>
    </defs>
    <g transform="translate(58.89048 46.712575)scale(0.102 -0.102)">
     <use xlink:href="#DejaVuSans-35"/>
     <use x="63.623047" xlink:href="#DejaVuSans-31"/>
     <use x="127.246094" xlink:href="#DejaVuSans-20"/>
     <use x="159.033203" xlink:href="#DejaVuSans-74"/>
     <use x="198.242188" xlink:href="#DejaVuSans-61"/>
     <use x="259.521484" xlink:href="#DejaVuSans-72"/>
     <use x="300.619141" xlink:href="#DejaVuSans-67"/>
     <use x="364.095703" xlink:href="#DejaVuSans-65"/>
     <use x="425.619141" xlink:href="#DejaVuSans-74"/>
     <use x="464.828125" xlink:href="#DejaVuSans-73"/>
     <use x="516.927734" xlink:href="#DejaVuSans-3a"/>
     <use x="550.619141" xlink:href="#DejaVuSans-20"/>
     <use x="582.40625" xlink:href="#DejaVuSans-31"/>
     <use x="646.029297" xlink:href="#DejaVuSans-30"/>
     <use x="709.652344" xlink:href="#DejaVuSans-30"/>
     <use x="773.275391" xlink:href="#DejaVuSans-2e"/>
     <use x="805.0625" xlink:href="#DejaVuSans-2e"/>
     <use x="836.849609" xlink:href="#DejaVuSans-31"/>
     <use x="900.472656" xlink:href="#DejaVuSans-65"/>
     <use x="961.996094" xlink:href="#DejaVuSans-2d"/>
     <use x="998.080078" xlink:href="#DejaVuSans-30"/>
     <use x="1061.703125" xlink:href="#DejaVuSans-38"/>
    </g>
    <!-- 15 instances -->
    <g transform="translate(58.89048 58.134344)scale(0.102 -0.102)">
     <use xlink:href="#DejaVuSans-31"/>
     <use x="63.623047" xlink:href="#DejaVuSans-35"/>
     <use x="127.246094" xlink:href="#DejaVuSans-20"/>
     <use x="159.033203" xlink:href="#DejaVuSans-69"/>
     <use x="186.816406" xlink:href="#DejaVuSans-6e"/>
     <use x="250.195312" xlink:href="#DejaVuSans-73"/>
     <use x="302.294922" xlink:href="#DejaVuSans-74"/>
     <use x="341.503906" xlink:href="#DejaVuSans-61"/>
     <use x="402.783203" xlink:href="#DejaVuSans-6e"/>
     <use x="466.162109" xlink:href="#DejaVuSans-63"/>
     <use x="521.142578" xlink:href="#DejaVuSans-65"/>
     <use x="582.666016" xlink:href="#DejaVuSans-73"/>
    </g>
   </g>
   <g id="text_19">
    <!-- v0.0.0 -->
    <g style="fill:#808080;" transform="translate(178.96275 290.099912)scale(0.1 -0.1)">
     <use xlink:href="#DejaVuSans-76"/>
     <use x="59.179688" xlink:href="#DejaVuSans-30"/>
     <use x="122.802734" xlink:href="#DejaVuSans-2e"/>
     <use x="154.589844" xlink:href="#DejaVuSans-30"/>
     <use x="218.212891" xlink:href="#DejaVuSans-2e"/>
     <use x="250" xlink:href="#DejaVuSans-30"/>
    </g>
   </g>
   <g id="text_20">
    <!-- 10 Ellipsoid -->
    <g transform="translate(137.284625 18.84)scale(0.2 -0.2)">
     <use xlink:href="#DejaVuSans-31"/>
     <use x="63.623047" xlink:href="#DejaVuSans-30"/>
     <use x="127.246094" xlink:href="#DejaVuSans-20"/>
     <use x="159.033203" xlink:href="#DejaVuSans-45"/>
     <use x="222.216797" xlink:href="#DejaVuSans-6c"/>
     <use x="250" xlink:href="#DejaVuSans-6c"/>
     <use x="277.783203" xlink:href="#DejaVuSans-69"/>
     <use x="305.566406" xlink:href="#DejaVuSans-70"/>
     <use x="369.042969" xlink:href="#DejaVuSans-73"/>
     <use x="421.142578" xlink:href="#DejaVuSans-6f"/>
     <use x="482.324219" xlink:href="#DejaVuSans-69"/>
     <use x="510.107422" xlink:href="#DejaVuSans-64"/>
    </g>
   </g>
  </g>
 </g>
 <defs>
  <clipPath id="pddc7e5ee49">
   <rect height="270.04" width="277.048" x="56.12" y="24.84"/>
  </clipPath>
 </defs>
</svg>
