<?xml version="1.0" encoding="utf-8" standalone="no"?>
<!DOCTYPE svg PUBLIC "-//W3C//DTD SVG 1.1//EN"
  "http://www.w3.org/Graphics/SVG/1.1/DTD/svg11.dtd">
<!-- Created with matplotlib (http://matplotlib.org/) -->
<svg height="345pt" version="1.1" viewBox="0 0 460 345" width="460pt" xmlns="http://www.w3.org/2000/svg" xmlns:xlink="http://www.w3.org/1999/xlink">
 <defs>
  <style type="text/css">
*{stroke-linecap:butt;stroke-linejoin:round;}
  </style>
 </defs>
 <g id="figure_1">
  <g id="patch_1">
   <path d="M 0 345.6 
L 460.8 345.6 
L 460.8 0 
L 0 0 
z
" style="fill:#ffffff;"/>
  </g>
  <g id="axes_1">
   <g id="patch_2">
    <path d="M 56.12 294.88 
L 333.168 294.88 
L 333.168 24.84 
L 56.12 24.84 
z
" style="fill:#ffffff;"/>
   </g>
   <g id="line2d_1">
    <path d="M 44.205749 294.88 
L 44.205749 279.152568 
L 56.12 279.152568 
L 56.12 273.910091 
L 63.08939 273.910091 
L 63.08939 268.667614 
L 71.869783 268.667614 
L 71.869783 263.425137 
L 81.973032 263.425137 
L 81.973032 258.18266 
L 88.293717 258.18266 
L 88.293717 252.940182 
L 93.887283 252.940182 
L 93.887283 247.697705 
L 99.533818 247.697705 
L 99.533818 242.455228 
L 100.856673 242.455228 
L 100.856673 237.212751 
L 107.612537 237.212751 
L 107.612537 226.727797 
L 118.186736 226.727797 
L 118.186736 216.242842 
L 132.279675 216.242842 
L 132.279675 211.000365 
L 134.485139 211.000365 
L 134.485139 205.757888 
L 135.616951 205.757888 
L 135.616951 200.515411 
L 135.950722 200.515411 
L 135.950722 195.272933 
L 136.278134 195.272933 
L 136.278134 190.030456 
L 136.757848 190.030456 
L 136.757848 184.787979 
L 136.914823 184.787979 
L 136.914823 179.545502 
L 137.14763 179.545502 
L 137.14763 174.303025 
L 138.410429 174.303025 
L 138.410429 169.060547 
L 138.694545 169.060547 
L 138.694545 163.81807 
L 139.043211 163.81807 
L 139.043211 158.575593 
L 139.983449 158.575593 
L 139.983449 153.333116 
L 140.178407 153.333116 
L 140.178407 148.090639 
L 140.498503 148.090639 
L 140.498503 142.848162 
L 140.998571 142.848162 
L 140.998571 137.605684 
L 141.243253 137.605684 
L 141.243253 132.363207 
L 141.3643 132.363207 
L 141.3643 127.12073 
L 141.424506 127.12073 
L 141.424506 121.878253 
L 141.484501 121.878253 
L 141.484501 116.635776 
L 141.544287 116.635776 
L 141.544287 111.393298 
L 141.603867 111.393298 
L 141.603867 106.150821 
L 141.66324 106.150821 
L 141.66324 100.908344 
L 141.72241 100.908344 
L 141.72241 95.665867 
L 141.84014 95.665867 
L 141.84014 90.42339 
L 141.898705 90.42339 
L 141.898705 85.180912 
L 142.015238 85.180912 
L 142.015238 79.938435 
L 142.130987 79.938435 
L 142.130987 74.695958 
L 142.245962 74.695958 
L 142.245962 69.453481 
L 142.303162 69.453481 
L 142.303162 64.211004 
L 142.530078 64.211004 
L 142.530078 58.968526 
L 142.586342 58.968526 
L 142.586342 48.483572 
L 143.462385 48.483572 
L 143.462385 32.756141 
L 143.515683 32.756141 
L 143.515683 27.513663 
L 333.168 27.513663 
" style="fill:none;stroke:#f5deb3;stroke-linecap:square;stroke-width:4;"/>
   </g>
   <g id="line2d_2">
    <defs>
     <path d="M -0 7.778175 
L 7.778175 0 
L 0 -7.778175 
L -7.778175 -0 
z
" id="m1358d3aaf5" style="stroke:#f5deb3;stroke-linejoin:miter;stroke-width:1.5;"/>
    </defs>
    <g>
     <use style="fill:#f5deb3;stroke:#f5deb3;stroke-linejoin:miter;stroke-width:1.5;" x="100.856673" xlink:href="#m1358d3aaf5" y="242.455228"/>
     <use style="fill:#f5deb3;stroke:#f5deb3;stroke-linejoin:miter;stroke-width:1.5;" x="139.043211" xlink:href="#m1358d3aaf5" y="158.575593"/>
     <use style="fill:#f5deb3;stroke:#f5deb3;stroke-linejoin:miter;stroke-width:1.5;" x="142.586342" xlink:href="#m1358d3aaf5" y="48.483572"/>
     <use style="fill:#f5deb3;stroke:#f5deb3;stroke-linejoin:miter;stroke-width:1.5;" x="143.515683" xlink:href="#m1358d3aaf5" y="27.513663"/>
     <use style="fill:#f5deb3;stroke:#f5deb3;stroke-linejoin:miter;stroke-width:1.5;" x="143.515683" xlink:href="#m1358d3aaf5" y="27.513663"/>
     <use style="fill:#f5deb3;stroke:#f5deb3;stroke-linejoin:miter;stroke-width:1.5;" x="333.168" xlink:href="#m1358d3aaf5" y="27.513663"/>
    </g>
   </g>
   <g id="line2d_3">
    <path style="fill:none;stroke:#f5deb3;stroke-linecap:square;stroke-width:4;"/>
    <g/>
   </g>
   <g id="line2d_4">
    <path d="M 333.168 27.513663 
L 363.64328 32.86099 
" style="fill:none;stroke:#f5deb3;stroke-linecap:square;stroke-width:4;"/>
    <g>
     <use style="fill:#f5deb3;stroke:#f5deb3;stroke-linejoin:miter;stroke-width:1.5;" x="333.168" xlink:href="#m1358d3aaf5" y="27.513663"/>
     <use style="fill:#f5deb3;stroke:#f5deb3;stroke-linejoin:miter;stroke-width:1.5;" x="363.64328" xlink:href="#m1358d3aaf5" y="32.86099"/>
    </g>
   </g>
   <g id="matplotlib.axis_1">
    <g id="xtick_1">
     <g id="line2d_5">
      <path clip-path="url(#pad64963861)" d="M 56.12 294.88 
L 56.12 24.84 
" style="fill:none;stroke:#b0b0b0;stroke-linecap:square;stroke-width:0.8;"/>
     </g>
     <g id="line2d_6">
      <defs>
       <path d="M 0 0 
L 0 3.5 
" id="mf39bf1483d" style="stroke:#000000;stroke-width:0.8;"/>
      </defs>
      <g>
       <use style="stroke:#000000;stroke-width:0.8;" x="56.12" xlink:href="#mf39bf1483d" y="294.88"/>
      </g>
     </g>
     <g id="text_1">
      <!-- 0 -->
      <defs>
       <path d="M 31.78125 66.40625 
Q 24.171875 66.40625 20.328125 58.90625 
Q 16.5 51.421875 16.5 36.375 
Q 16.5 21.390625 20.328125 13.890625 
Q 24.171875 6.390625 31.78125 6.390625 
Q 39.453125 6.390625 43.28125 13.890625 
Q 47.125 21.390625 47.125 36.375 
Q 47.125 51.421875 43.28125 58.90625 
Q 39.453125 66.40625 31.78125 66.40625 
z
M 31.78125 74.21875 
Q 44.046875 74.21875 50.515625 64.515625 
Q 56.984375 54.828125 56.984375 36.375 
Q 56.984375 17.96875 50.515625 8.265625 
Q 44.046875 -1.421875 31.78125 -1.421875 
Q 19.53125 -1.421875 13.0625 8.265625 
Q 6.59375 17.96875 6.59375 36.375 
Q 6.59375 54.828125 13.0625 64.515625 
Q 19.53125 74.21875 31.78125 74.21875 
z
" id="DejaVuSans-30"/>
      </defs>
      <g transform="translate(49.7575 317.076875)scale(0.2 -0.2)">
       <use xlink:href="#DejaVuSans-30"/>
      </g>
     </g>
    </g>
    <g id="xtick_2">
     <g id="line2d_7">
      <path clip-path="url(#pad64963861)" d="M 135.276571 294.88 
L 135.276571 24.84 
" style="fill:none;stroke:#b0b0b0;stroke-linecap:square;stroke-width:0.8;"/>
     </g>
     <g id="line2d_8">
      <g>
       <use style="stroke:#000000;stroke-width:0.8;" x="135.276571" xlink:href="#mf39bf1483d" y="294.88"/>
      </g>
     </g>
     <g id="text_2">
      <!-- 2 -->
      <defs>
       <path d="M 19.1875 8.296875 
L 53.609375 8.296875 
L 53.609375 0 
L 7.328125 0 
L 7.328125 8.296875 
Q 12.9375 14.109375 22.625 23.890625 
Q 32.328125 33.6875 34.8125 36.53125 
Q 39.546875 41.84375 41.421875 45.53125 
Q 43.3125 49.21875 43.3125 52.78125 
Q 43.3125 58.59375 39.234375 62.25 
Q 35.15625 65.921875 28.609375 65.921875 
Q 23.96875 65.921875 18.8125 64.3125 
Q 13.671875 62.703125 7.8125 59.421875 
L 7.8125 69.390625 
Q 13.765625 71.78125 18.9375 73 
Q 24.125 74.21875 28.421875 74.21875 
Q 39.75 74.21875 46.484375 68.546875 
Q 53.21875 62.890625 53.21875 53.421875 
Q 53.21875 48.921875 51.53125 44.890625 
Q 49.859375 40.875 45.40625 35.40625 
Q 44.1875 33.984375 37.640625 27.21875 
Q 31.109375 20.453125 19.1875 8.296875 
z
" id="DejaVuSans-32"/>
      </defs>
      <g transform="translate(128.914071 317.076875)scale(0.2 -0.2)">
       <use xlink:href="#DejaVuSans-32"/>
      </g>
     </g>
    </g>
    <g id="xtick_3">
     <g id="line2d_9">
      <path clip-path="url(#pad64963861)" d="M 214.433143 294.88 
L 214.433143 24.84 
" style="fill:none;stroke:#b0b0b0;stroke-linecap:square;stroke-width:0.8;"/>
     </g>
     <g id="line2d_10">
      <g>
       <use style="stroke:#000000;stroke-width:0.8;" x="214.433143" xlink:href="#mf39bf1483d" y="294.88"/>
      </g>
     </g>
     <g id="text_3">
      <!-- 4 -->
      <defs>
       <path d="M 37.796875 64.3125 
L 12.890625 25.390625 
L 37.796875 25.390625 
z
M 35.203125 72.90625 
L 47.609375 72.90625 
L 47.609375 25.390625 
L 58.015625 25.390625 
L 58.015625 17.1875 
L 47.609375 17.1875 
L 47.609375 0 
L 37.796875 0 
L 37.796875 17.1875 
L 4.890625 17.1875 
L 4.890625 26.703125 
z
" id="DejaVuSans-34"/>
      </defs>
      <g transform="translate(208.070643 317.076875)scale(0.2 -0.2)">
       <use xlink:href="#DejaVuSans-34"/>
      </g>
     </g>
    </g>
    <g id="xtick_4">
     <g id="line2d_11">
      <path clip-path="url(#pad64963861)" d="M 293.589714 294.88 
L 293.589714 24.84 
" style="fill:none;stroke:#b0b0b0;stroke-linecap:square;stroke-width:0.8;"/>
     </g>
     <g id="line2d_12">
      <g>
       <use style="stroke:#000000;stroke-width:0.8;" x="293.589714" xlink:href="#mf39bf1483d" y="294.88"/>
      </g>
     </g>
     <g id="text_4">
      <!-- 6 -->
      <defs>
       <path d="M 33.015625 40.375 
Q 26.375 40.375 22.484375 35.828125 
Q 18.609375 31.296875 18.609375 23.390625 
Q 18.609375 15.53125 22.484375 10.953125 
Q 26.375 6.390625 33.015625 6.390625 
Q 39.65625 6.390625 43.53125 10.953125 
Q 47.40625 15.53125 47.40625 23.390625 
Q 47.40625 31.296875 43.53125 35.828125 
Q 39.65625 40.375 33.015625 40.375 
z
M 52.59375 71.296875 
L 52.59375 62.3125 
Q 48.875 64.0625 45.09375 64.984375 
Q 41.3125 65.921875 37.59375 65.921875 
Q 27.828125 65.921875 22.671875 59.328125 
Q 17.53125 52.734375 16.796875 39.40625 
Q 19.671875 43.65625 24.015625 45.921875 
Q 28.375 48.1875 33.59375 48.1875 
Q 44.578125 48.1875 50.953125 41.515625 
Q 57.328125 34.859375 57.328125 23.390625 
Q 57.328125 12.15625 50.6875 5.359375 
Q 44.046875 -1.421875 33.015625 -1.421875 
Q 20.359375 -1.421875 13.671875 8.265625 
Q 6.984375 17.96875 6.984375 36.375 
Q 6.984375 53.65625 15.1875 63.9375 
Q 23.390625 74.21875 37.203125 74.21875 
Q 40.921875 74.21875 44.703125 73.484375 
Q 48.484375 72.75 52.59375 71.296875 
z
" id="DejaVuSans-36"/>
      </defs>
      <g transform="translate(287.227214 317.076875)scale(0.2 -0.2)">
       <use xlink:href="#DejaVuSans-36"/>
      </g>
     </g>
    </g>
    <g id="xtick_5">
     <g id="line2d_13">
      <path clip-path="url(#pad64963861)" d="M 56.12 294.88 
L 56.12 24.84 
" style="fill:none;stroke:#b0b0b0;stroke-linecap:square;stroke-width:0.8;"/>
     </g>
     <g id="line2d_14">
      <defs>
       <path d="M 0 0 
L 0 2 
" id="mb6bd738771" style="stroke:#000000;stroke-width:0.6;"/>
      </defs>
      <g>
       <use style="stroke:#000000;stroke-width:0.6;" x="56.12" xlink:href="#mb6bd738771" y="294.88"/>
      </g>
     </g>
    </g>
    <g id="xtick_6">
     <g id="line2d_15">
      <path clip-path="url(#pad64963861)" d="M 95.698286 294.88 
L 95.698286 24.84 
" style="fill:none;stroke:#b0b0b0;stroke-linecap:square;stroke-width:0.8;"/>
     </g>
     <g id="line2d_16">
      <g>
       <use style="stroke:#000000;stroke-width:0.6;" x="95.698286" xlink:href="#mb6bd738771" y="294.88"/>
      </g>
     </g>
    </g>
    <g id="xtick_7">
     <g id="line2d_17">
      <path clip-path="url(#pad64963861)" d="M 135.276571 294.88 
L 135.276571 24.84 
" style="fill:none;stroke:#b0b0b0;stroke-linecap:square;stroke-width:0.8;"/>
     </g>
     <g id="line2d_18">
      <g>
       <use style="stroke:#000000;stroke-width:0.6;" x="135.276571" xlink:href="#mb6bd738771" y="294.88"/>
      </g>
     </g>
    </g>
    <g id="xtick_8">
     <g id="line2d_19">
      <path clip-path="url(#pad64963861)" d="M 174.854857 294.88 
L 174.854857 24.84 
" style="fill:none;stroke:#b0b0b0;stroke-linecap:square;stroke-width:0.8;"/>
     </g>
     <g id="line2d_20">
      <g>
       <use style="stroke:#000000;stroke-width:0.6;" x="174.854857" xlink:href="#mb6bd738771" y="294.88"/>
      </g>
     </g>
    </g>
    <g id="xtick_9">
     <g id="line2d_21">
      <path clip-path="url(#pad64963861)" d="M 214.433143 294.88 
L 214.433143 24.84 
" style="fill:none;stroke:#b0b0b0;stroke-linecap:square;stroke-width:0.8;"/>
     </g>
     <g id="line2d_22">
      <g>
       <use style="stroke:#000000;stroke-width:0.6;" x="214.433143" xlink:href="#mb6bd738771" y="294.88"/>
      </g>
     </g>
    </g>
    <g id="xtick_10">
     <g id="line2d_23">
      <path clip-path="url(#pad64963861)" d="M 254.011429 294.88 
L 254.011429 24.84 
" style="fill:none;stroke:#b0b0b0;stroke-linecap:square;stroke-width:0.8;"/>
     </g>
     <g id="line2d_24">
      <g>
       <use style="stroke:#000000;stroke-width:0.6;" x="254.011429" xlink:href="#mb6bd738771" y="294.88"/>
      </g>
     </g>
    </g>
    <g id="xtick_11">
     <g id="line2d_25">
      <path clip-path="url(#pad64963861)" d="M 293.589714 294.88 
L 293.589714 24.84 
" style="fill:none;stroke:#b0b0b0;stroke-linecap:square;stroke-width:0.8;"/>
     </g>
     <g id="line2d_26">
      <g>
       <use style="stroke:#000000;stroke-width:0.6;" x="293.589714" xlink:href="#mb6bd738771" y="294.88"/>
      </g>
     </g>
    </g>
    <g id="xtick_12">
     <g id="line2d_27">
      <path clip-path="url(#pad64963861)" d="M 333.168 294.88 
L 333.168 24.84 
" style="fill:none;stroke:#b0b0b0;stroke-linecap:square;stroke-width:0.8;"/>
     </g>
     <g id="line2d_28">
      <g>
       <use style="stroke:#000000;stroke-width:0.6;" x="333.168" xlink:href="#mb6bd738771" y="294.88"/>
      </g>
     </g>
    </g>
    <g id="text_5">
     <!-- log10(# f-evals / dimension) -->
     <defs>
      <path d="M 9.421875 75.984375 
L 18.40625 75.984375 
L 18.40625 0 
L 9.421875 0 
z
" id="DejaVuSans-6c"/>
      <path d="M 30.609375 48.390625 
Q 23.390625 48.390625 19.1875 42.75 
Q 14.984375 37.109375 14.984375 27.296875 
Q 14.984375 17.484375 19.15625 11.84375 
Q 23.34375 6.203125 30.609375 6.203125 
Q 37.796875 6.203125 41.984375 11.859375 
Q 46.1875 17.53125 46.1875 27.296875 
Q 46.1875 37.015625 41.984375 42.703125 
Q 37.796875 48.390625 30.609375 48.390625 
z
M 30.609375 56 
Q 42.328125 56 49.015625 48.375 
Q 55.71875 40.765625 55.71875 27.296875 
Q 55.71875 13.875 49.015625 6.21875 
Q 42.328125 -1.421875 30.609375 -1.421875 
Q 18.84375 -1.421875 12.171875 6.21875 
Q 5.515625 13.875 5.515625 27.296875 
Q 5.515625 40.765625 12.171875 48.375 
Q 18.84375 56 30.609375 56 
z
" id="DejaVuSans-6f"/>
      <path d="M 45.40625 27.984375 
Q 45.40625 37.75 41.375 43.109375 
Q 37.359375 48.484375 30.078125 48.484375 
Q 22.859375 48.484375 18.828125 43.109375 
Q 14.796875 37.75 14.796875 27.984375 
Q 14.796875 18.265625 18.828125 12.890625 
Q 22.859375 7.515625 30.078125 7.515625 
Q 37.359375 7.515625 41.375 12.890625 
Q 45.40625 18.265625 45.40625 27.984375 
z
M 54.390625 6.78125 
Q 54.390625 -7.171875 48.1875 -13.984375 
Q 42 -20.796875 29.203125 -20.796875 
Q 24.46875 -20.796875 20.265625 -20.09375 
Q 16.0625 -19.390625 12.109375 -17.921875 
L 12.109375 -9.1875 
Q 16.0625 -11.328125 19.921875 -12.34375 
Q 23.78125 -13.375 27.78125 -13.375 
Q 36.625 -13.375 41.015625 -8.765625 
Q 45.40625 -4.15625 45.40625 5.171875 
L 45.40625 9.625 
Q 42.625 4.78125 38.28125 2.390625 
Q 33.9375 0 27.875 0 
Q 17.828125 0 11.671875 7.65625 
Q 5.515625 15.328125 5.515625 27.984375 
Q 5.515625 40.671875 11.671875 48.328125 
Q 17.828125 56 27.875 56 
Q 33.9375 56 38.28125 53.609375 
Q 42.625 51.21875 45.40625 46.390625 
L 45.40625 54.6875 
L 54.390625 54.6875 
z
" id="DejaVuSans-67"/>
      <path d="M 12.40625 8.296875 
L 28.515625 8.296875 
L 28.515625 63.921875 
L 10.984375 60.40625 
L 10.984375 69.390625 
L 28.421875 72.90625 
L 38.28125 72.90625 
L 38.28125 8.296875 
L 54.390625 8.296875 
L 54.390625 0 
L 12.40625 0 
z
" id="DejaVuSans-31"/>
      <path d="M 31 75.875 
Q 24.46875 64.65625 21.28125 53.65625 
Q 18.109375 42.671875 18.109375 31.390625 
Q 18.109375 20.125 21.3125 9.0625 
Q 24.515625 -2 31 -13.1875 
L 23.1875 -13.1875 
Q 15.875 -1.703125 12.234375 9.375 
Q 8.59375 20.453125 8.59375 31.390625 
Q 8.59375 42.28125 12.203125 53.3125 
Q 15.828125 64.359375 23.1875 75.875 
z
" id="DejaVuSans-28"/>
      <path d="M 51.125 44 
L 36.921875 44 
L 32.8125 27.6875 
L 47.125 27.6875 
z
M 43.796875 71.78125 
L 38.71875 51.515625 
L 52.984375 51.515625 
L 58.109375 71.78125 
L 65.921875 71.78125 
L 60.890625 51.515625 
L 76.125 51.515625 
L 76.125 44 
L 58.984375 44 
L 54.984375 27.6875 
L 70.515625 27.6875 
L 70.515625 20.21875 
L 53.078125 20.21875 
L 48 0 
L 40.1875 0 
L 45.21875 20.21875 
L 30.90625 20.21875 
L 25.875 0 
L 18.015625 0 
L 23.09375 20.21875 
L 7.71875 20.21875 
L 7.71875 27.6875 
L 24.90625 27.6875 
L 29 44 
L 13.28125 44 
L 13.28125 51.515625 
L 30.90625 51.515625 
L 35.890625 71.78125 
z
" id="DejaVuSans-23"/>
      <path id="DejaVuSans-20"/>
      <path d="M 37.109375 75.984375 
L 37.109375 68.5 
L 28.515625 68.5 
Q 23.6875 68.5 21.796875 66.546875 
Q 19.921875 64.59375 19.921875 59.515625 
L 19.921875 54.6875 
L 34.71875 54.6875 
L 34.71875 47.703125 
L 19.921875 47.703125 
L 19.921875 0 
L 10.890625 0 
L 10.890625 47.703125 
L 2.296875 47.703125 
L 2.296875 54.6875 
L 10.890625 54.6875 
L 10.890625 58.5 
Q 10.890625 67.625 15.140625 71.796875 
Q 19.390625 75.984375 28.609375 75.984375 
z
" id="DejaVuSans-66"/>
      <path d="M 4.890625 31.390625 
L 31.203125 31.390625 
L 31.203125 23.390625 
L 4.890625 23.390625 
z
" id="DejaVuSans-2d"/>
      <path d="M 56.203125 29.59375 
L 56.203125 25.203125 
L 14.890625 25.203125 
Q 15.484375 15.921875 20.484375 11.0625 
Q 25.484375 6.203125 34.421875 6.203125 
Q 39.59375 6.203125 44.453125 7.46875 
Q 49.3125 8.734375 54.109375 11.28125 
L 54.109375 2.78125 
Q 49.265625 0.734375 44.1875 -0.34375 
Q 39.109375 -1.421875 33.890625 -1.421875 
Q 20.796875 -1.421875 13.15625 6.1875 
Q 5.515625 13.8125 5.515625 26.8125 
Q 5.515625 40.234375 12.765625 48.109375 
Q 20.015625 56 32.328125 56 
Q 43.359375 56 49.78125 48.890625 
Q 56.203125 41.796875 56.203125 29.59375 
z
M 47.21875 32.234375 
Q 47.125 39.59375 43.09375 43.984375 
Q 39.0625 48.390625 32.421875 48.390625 
Q 24.90625 48.390625 20.390625 44.140625 
Q 15.875 39.890625 15.1875 32.171875 
z
" id="DejaVuSans-65"/>
      <path d="M 2.984375 54.6875 
L 12.5 54.6875 
L 29.59375 8.796875 
L 46.6875 54.6875 
L 56.203125 54.6875 
L 35.6875 0 
L 23.484375 0 
z
" id="DejaVuSans-76"/>
      <path d="M 34.28125 27.484375 
Q 23.390625 27.484375 19.1875 25 
Q 14.984375 22.515625 14.984375 16.5 
Q 14.984375 11.71875 18.140625 8.90625 
Q 21.296875 6.109375 26.703125 6.109375 
Q 34.1875 6.109375 38.703125 11.40625 
Q 43.21875 16.703125 43.21875 25.484375 
L 43.21875 27.484375 
z
M 52.203125 31.203125 
L 52.203125 0 
L 43.21875 0 
L 43.21875 8.296875 
Q 40.140625 3.328125 35.546875 0.953125 
Q 30.953125 -1.421875 24.3125 -1.421875 
Q 15.921875 -1.421875 10.953125 3.296875 
Q 6 8.015625 6 15.921875 
Q 6 25.140625 12.171875 29.828125 
Q 18.359375 34.515625 30.609375 34.515625 
L 43.21875 34.515625 
L 43.21875 35.40625 
Q 43.21875 41.609375 39.140625 45 
Q 35.0625 48.390625 27.6875 48.390625 
Q 23 48.390625 18.546875 47.265625 
Q 14.109375 46.140625 10.015625 43.890625 
L 10.015625 52.203125 
Q 14.9375 54.109375 19.578125 55.046875 
Q 24.21875 56 28.609375 56 
Q 40.484375 56 46.34375 49.84375 
Q 52.203125 43.703125 52.203125 31.203125 
z
" id="DejaVuSans-61"/>
      <path d="M 44.28125 53.078125 
L 44.28125 44.578125 
Q 40.484375 46.53125 36.375 47.5 
Q 32.28125 48.484375 27.875 48.484375 
Q 21.1875 48.484375 17.84375 46.4375 
Q 14.5 44.390625 14.5 40.28125 
Q 14.5 37.15625 16.890625 35.375 
Q 19.28125 33.59375 26.515625 31.984375 
L 29.59375 31.296875 
Q 39.15625 29.25 43.1875 25.515625 
Q 47.21875 21.78125 47.21875 15.09375 
Q 47.21875 7.46875 41.1875 3.015625 
Q 35.15625 -1.421875 24.609375 -1.421875 
Q 20.21875 -1.421875 15.453125 -0.5625 
Q 10.6875 0.296875 5.421875 2 
L 5.421875 11.28125 
Q 10.40625 8.6875 15.234375 7.390625 
Q 20.0625 6.109375 24.8125 6.109375 
Q 31.15625 6.109375 34.5625 8.28125 
Q 37.984375 10.453125 37.984375 14.40625 
Q 37.984375 18.0625 35.515625 20.015625 
Q 33.0625 21.96875 24.703125 23.78125 
L 21.578125 24.515625 
Q 13.234375 26.265625 9.515625 29.90625 
Q 5.8125 33.546875 5.8125 39.890625 
Q 5.8125 47.609375 11.28125 51.796875 
Q 16.75 56 26.8125 56 
Q 31.78125 56 36.171875 55.265625 
Q 40.578125 54.546875 44.28125 53.078125 
z
" id="DejaVuSans-73"/>
      <path d="M 25.390625 72.90625 
L 33.6875 72.90625 
L 8.296875 -9.28125 
L 0 -9.28125 
z
" id="DejaVuSans-2f"/>
      <path d="M 45.40625 46.390625 
L 45.40625 75.984375 
L 54.390625 75.984375 
L 54.390625 0 
L 45.40625 0 
L 45.40625 8.203125 
Q 42.578125 3.328125 38.25 0.953125 
Q 33.9375 -1.421875 27.875 -1.421875 
Q 17.96875 -1.421875 11.734375 6.484375 
Q 5.515625 14.40625 5.515625 27.296875 
Q 5.515625 40.1875 11.734375 48.09375 
Q 17.96875 56 27.875 56 
Q 33.9375 56 38.25 53.625 
Q 42.578125 51.265625 45.40625 46.390625 
z
M 14.796875 27.296875 
Q 14.796875 17.390625 18.875 11.75 
Q 22.953125 6.109375 30.078125 6.109375 
Q 37.203125 6.109375 41.296875 11.75 
Q 45.40625 17.390625 45.40625 27.296875 
Q 45.40625 37.203125 41.296875 42.84375 
Q 37.203125 48.484375 30.078125 48.484375 
Q 22.953125 48.484375 18.875 42.84375 
Q 14.796875 37.203125 14.796875 27.296875 
z
" id="DejaVuSans-64"/>
      <path d="M 9.421875 54.6875 
L 18.40625 54.6875 
L 18.40625 0 
L 9.421875 0 
z
M 9.421875 75.984375 
L 18.40625 75.984375 
L 18.40625 64.59375 
L 9.421875 64.59375 
z
" id="DejaVuSans-69"/>
      <path d="M 52 44.1875 
Q 55.375 50.25 60.0625 53.125 
Q 64.75 56 71.09375 56 
Q 79.640625 56 84.28125 50.015625 
Q 88.921875 44.046875 88.921875 33.015625 
L 88.921875 0 
L 79.890625 0 
L 79.890625 32.71875 
Q 79.890625 40.578125 77.09375 44.375 
Q 74.3125 48.1875 68.609375 48.1875 
Q 61.625 48.1875 57.5625 43.546875 
Q 53.515625 38.921875 53.515625 30.90625 
L 53.515625 0 
L 44.484375 0 
L 44.484375 32.71875 
Q 44.484375 40.625 41.703125 44.40625 
Q 38.921875 48.1875 33.109375 48.1875 
Q 26.21875 48.1875 22.15625 43.53125 
Q 18.109375 38.875 18.109375 30.90625 
L 18.109375 0 
L 9.078125 0 
L 9.078125 54.6875 
L 18.109375 54.6875 
L 18.109375 46.1875 
Q 21.1875 51.21875 25.484375 53.609375 
Q 29.78125 56 35.6875 56 
Q 41.65625 56 45.828125 52.96875 
Q 50 49.953125 52 44.1875 
z
" id="DejaVuSans-6d"/>
      <path d="M 54.890625 33.015625 
L 54.890625 0 
L 45.90625 0 
L 45.90625 32.71875 
Q 45.90625 40.484375 42.875 44.328125 
Q 39.84375 48.1875 33.796875 48.1875 
Q 26.515625 48.1875 22.3125 43.546875 
Q 18.109375 38.921875 18.109375 30.90625 
L 18.109375 0 
L 9.078125 0 
L 9.078125 54.6875 
L 18.109375 54.6875 
L 18.109375 46.1875 
Q 21.34375 51.125 25.703125 53.5625 
Q 30.078125 56 35.796875 56 
Q 45.21875 56 50.046875 50.171875 
Q 54.890625 44.34375 54.890625 33.015625 
z
" id="DejaVuSans-6e"/>
      <path d="M 8.015625 75.875 
L 15.828125 75.875 
Q 23.140625 64.359375 26.78125 53.3125 
Q 30.421875 42.28125 30.421875 31.390625 
Q 30.421875 20.453125 26.78125 9.375 
Q 23.140625 -1.703125 15.828125 -13.1875 
L 8.015625 -13.1875 
Q 14.5 -2 17.703125 9.0625 
Q 20.90625 20.125 20.90625 31.390625 
Q 20.90625 42.671875 17.703125 53.65625 
Q 14.5 64.65625 8.015625 75.875 
z
" id="DejaVuSans-29"/>
     </defs>
     <g transform="translate(73.803219 338.153594)scale(0.17 -0.17)">
      <use xlink:href="#DejaVuSans-6c"/>
      <use x="27.783203" xlink:href="#DejaVuSans-6f"/>
      <use x="88.964844" xlink:href="#DejaVuSans-67"/>
      <use x="152.441406" xlink:href="#DejaVuSans-31"/>
      <use x="216.064453" xlink:href="#DejaVuSans-30"/>
      <use x="279.6875" xlink:href="#DejaVuSans-28"/>
      <use x="318.701172" xlink:href="#DejaVuSans-23"/>
      <use x="402.490234" xlink:href="#DejaVuSans-20"/>
      <use x="434.277344" xlink:href="#DejaVuSans-66"/>
      <use x="469.404297" xlink:href="#DejaVuSans-2d"/>
      <use x="505.488281" xlink:href="#DejaVuSans-65"/>
      <use x="567.011719" xlink:href="#DejaVuSans-76"/>
      <use x="626.191406" xlink:href="#DejaVuSans-61"/>
      <use x="687.470703" xlink:href="#DejaVuSans-6c"/>
      <use x="715.253906" xlink:href="#DejaVuSans-73"/>
      <use x="767.353516" xlink:href="#DejaVuSans-20"/>
      <use x="799.140625" xlink:href="#DejaVuSans-2f"/>
      <use x="832.832031" xlink:href="#DejaVuSans-20"/>
      <use x="864.619141" xlink:href="#DejaVuSans-64"/>
      <use x="928.095703" xlink:href="#DejaVuSans-69"/>
      <use x="955.878906" xlink:href="#DejaVuSans-6d"/>
      <use x="1053.291016" xlink:href="#DejaVuSans-65"/>
      <use x="1114.814453" xlink:href="#DejaVuSans-6e"/>
      <use x="1178.193359" xlink:href="#DejaVuSans-73"/>
      <use x="1230.292969" xlink:href="#DejaVuSans-69"/>
      <use x="1258.076172" xlink:href="#DejaVuSans-6f"/>
      <use x="1319.257812" xlink:href="#DejaVuSans-6e"/>
      <use x="1382.636719" xlink:href="#DejaVuSans-29"/>
     </g>
    </g>
   </g>
   <g id="matplotlib.axis_2">
    <g id="ytick_1">
     <g id="line2d_29">
      <path clip-path="url(#pad64963861)" d="M 56.12 294.88 
L 333.168 294.88 
" style="fill:none;stroke:#b0b0b0;stroke-linecap:square;stroke-width:0.8;"/>
     </g>
     <g id="line2d_30">
      <defs>
       <path d="M 0 0 
L -3.5 0 
" id="mdca3e93640" style="stroke:#000000;stroke-width:0.8;"/>
      </defs>
      <g>
       <use style="stroke:#000000;stroke-width:0.8;" x="56.12" xlink:href="#mdca3e93640" y="294.88"/>
      </g>
     </g>
     <g id="text_6">
      <!-- 0.0 -->
      <defs>
       <path d="M 10.6875 12.40625 
L 21 12.40625 
L 21 0 
L 10.6875 0 
z
" id="DejaVuSans-2e"/>
      </defs>
      <g transform="translate(23.675 300.95875)scale(0.16 -0.16)">
       <use xlink:href="#DejaVuSans-30"/>
       <use x="63.623047" xlink:href="#DejaVuSans-2e"/>
       <use x="95.410156" xlink:href="#DejaVuSans-30"/>
      </g>
     </g>
    </g>
    <g id="ytick_2">
     <g id="line2d_31">
      <path clip-path="url(#pad64963861)" d="M 56.12 241.406733 
L 333.168 241.406733 
" style="fill:none;stroke:#b0b0b0;stroke-linecap:square;stroke-width:0.8;"/>
     </g>
     <g id="line2d_32">
      <g>
       <use style="stroke:#000000;stroke-width:0.8;" x="56.12" xlink:href="#mdca3e93640" y="241.406733"/>
      </g>
     </g>
     <g id="text_7">
      <!-- 0.2 -->
      <g transform="translate(23.675 247.485483)scale(0.16 -0.16)">
       <use xlink:href="#DejaVuSans-30"/>
       <use x="63.623047" xlink:href="#DejaVuSans-2e"/>
       <use x="95.410156" xlink:href="#DejaVuSans-32"/>
      </g>
     </g>
    </g>
    <g id="ytick_3">
     <g id="line2d_33">
      <path clip-path="url(#pad64963861)" d="M 56.12 187.933465 
L 333.168 187.933465 
" style="fill:none;stroke:#b0b0b0;stroke-linecap:square;stroke-width:0.8;"/>
     </g>
     <g id="line2d_34">
      <g>
       <use style="stroke:#000000;stroke-width:0.8;" x="56.12" xlink:href="#mdca3e93640" y="187.933465"/>
      </g>
     </g>
     <g id="text_8">
      <!-- 0.4 -->
      <g transform="translate(23.675 194.012215)scale(0.16 -0.16)">
       <use xlink:href="#DejaVuSans-30"/>
       <use x="63.623047" xlink:href="#DejaVuSans-2e"/>
       <use x="95.410156" xlink:href="#DejaVuSans-34"/>
      </g>
     </g>
    </g>
    <g id="ytick_4">
     <g id="line2d_35">
      <path clip-path="url(#pad64963861)" d="M 56.12 134.460198 
L 333.168 134.460198 
" style="fill:none;stroke:#b0b0b0;stroke-linecap:square;stroke-width:0.8;"/>
     </g>
     <g id="line2d_36">
      <g>
       <use style="stroke:#000000;stroke-width:0.8;" x="56.12" xlink:href="#mdca3e93640" y="134.460198"/>
      </g>
     </g>
     <g id="text_9">
      <!-- 0.6 -->
      <g transform="translate(23.675 140.538948)scale(0.16 -0.16)">
       <use xlink:href="#DejaVuSans-30"/>
       <use x="63.623047" xlink:href="#DejaVuSans-2e"/>
       <use x="95.410156" xlink:href="#DejaVuSans-36"/>
      </g>
     </g>
    </g>
    <g id="ytick_5">
     <g id="line2d_37">
      <path clip-path="url(#pad64963861)" d="M 56.12 80.986931 
L 333.168 80.986931 
" style="fill:none;stroke:#b0b0b0;stroke-linecap:square;stroke-width:0.8;"/>
     </g>
     <g id="line2d_38">
      <g>
       <use style="stroke:#000000;stroke-width:0.8;" x="56.12" xlink:href="#mdca3e93640" y="80.986931"/>
      </g>
     </g>
     <g id="text_10">
      <!-- 0.8 -->
      <defs>
       <path d="M 31.78125 34.625 
Q 24.75 34.625 20.71875 30.859375 
Q 16.703125 27.09375 16.703125 20.515625 
Q 16.703125 13.921875 20.71875 10.15625 
Q 24.75 6.390625 31.78125 6.390625 
Q 38.8125 6.390625 42.859375 10.171875 
Q 46.921875 13.96875 46.921875 20.515625 
Q 46.921875 27.09375 42.890625 30.859375 
Q 38.875 34.625 31.78125 34.625 
z
M 21.921875 38.8125 
Q 15.578125 40.375 12.03125 44.71875 
Q 8.5 49.078125 8.5 55.328125 
Q 8.5 64.0625 14.71875 69.140625 
Q 20.953125 74.21875 31.78125 74.21875 
Q 42.671875 74.21875 48.875 69.140625 
Q 55.078125 64.0625 55.078125 55.328125 
Q 55.078125 49.078125 51.53125 44.71875 
Q 48 40.375 41.703125 38.8125 
Q 48.828125 37.15625 52.796875 32.3125 
Q 56.78125 27.484375 56.78125 20.515625 
Q 56.78125 9.90625 50.3125 4.234375 
Q 43.84375 -1.421875 31.78125 -1.421875 
Q 19.734375 -1.421875 13.25 4.234375 
Q 6.78125 9.90625 6.78125 20.515625 
Q 6.78125 27.484375 10.78125 32.3125 
Q 14.796875 37.15625 21.921875 38.8125 
z
M 18.3125 54.390625 
Q 18.3125 48.734375 21.84375 45.5625 
Q 25.390625 42.390625 31.78125 42.390625 
Q 38.140625 42.390625 41.71875 45.5625 
Q 45.3125 48.734375 45.3125 54.390625 
Q 45.3125 60.0625 41.71875 63.234375 
Q 38.140625 66.40625 31.78125 66.40625 
Q 25.390625 66.40625 21.84375 63.234375 
Q 18.3125 60.0625 18.3125 54.390625 
z
" id="DejaVuSans-38"/>
      </defs>
      <g transform="translate(23.675 87.065681)scale(0.16 -0.16)">
       <use xlink:href="#DejaVuSans-30"/>
       <use x="63.623047" xlink:href="#DejaVuSans-2e"/>
       <use x="95.410156" xlink:href="#DejaVuSans-38"/>
      </g>
     </g>
    </g>
    <g id="ytick_6">
     <g id="line2d_39">
      <path clip-path="url(#pad64963861)" d="M 56.12 27.513663 
L 333.168 27.513663 
" style="fill:none;stroke:#b0b0b0;stroke-linecap:square;stroke-width:0.8;"/>
     </g>
     <g id="line2d_40">
      <g>
       <use style="stroke:#000000;stroke-width:0.8;" x="56.12" xlink:href="#mdca3e93640" y="27.513663"/>
      </g>
     </g>
     <g id="text_11">
      <!-- 1.0 -->
      <g transform="translate(23.675 33.592413)scale(0.16 -0.16)">
       <use xlink:href="#DejaVuSans-31"/>
       <use x="63.623047" xlink:href="#DejaVuSans-2e"/>
       <use x="95.410156" xlink:href="#DejaVuSans-30"/>
      </g>
     </g>
    </g>
    <g id="text_12">
     <!-- Fraction of function,target pairs -->
     <defs>
      <path d="M 9.8125 72.90625 
L 51.703125 72.90625 
L 51.703125 64.59375 
L 19.671875 64.59375 
L 19.671875 43.109375 
L 48.578125 43.109375 
L 48.578125 34.8125 
L 19.671875 34.8125 
L 19.671875 0 
L 9.8125 0 
z
" id="DejaVuSans-46"/>
      <path d="M 41.109375 46.296875 
Q 39.59375 47.171875 37.8125 47.578125 
Q 36.03125 48 33.890625 48 
Q 26.265625 48 22.1875 43.046875 
Q 18.109375 38.09375 18.109375 28.8125 
L 18.109375 0 
L 9.078125 0 
L 9.078125 54.6875 
L 18.109375 54.6875 
L 18.109375 46.1875 
Q 20.953125 51.171875 25.484375 53.578125 
Q 30.03125 56 36.53125 56 
Q 37.453125 56 38.578125 55.875 
Q 39.703125 55.765625 41.0625 55.515625 
z
" id="DejaVuSans-72"/>
      <path d="M 48.78125 52.59375 
L 48.78125 44.1875 
Q 44.96875 46.296875 41.140625 47.34375 
Q 37.3125 48.390625 33.40625 48.390625 
Q 24.65625 48.390625 19.8125 42.84375 
Q 14.984375 37.3125 14.984375 27.296875 
Q 14.984375 17.28125 19.8125 11.734375 
Q 24.65625 6.203125 33.40625 6.203125 
Q 37.3125 6.203125 41.140625 7.25 
Q 44.96875 8.296875 48.78125 10.40625 
L 48.78125 2.09375 
Q 45.015625 0.34375 40.984375 -0.53125 
Q 36.96875 -1.421875 32.421875 -1.421875 
Q 20.0625 -1.421875 12.78125 6.34375 
Q 5.515625 14.109375 5.515625 27.296875 
Q 5.515625 40.671875 12.859375 48.328125 
Q 20.21875 56 33.015625 56 
Q 37.15625 56 41.109375 55.140625 
Q 45.0625 54.296875 48.78125 52.59375 
z
" id="DejaVuSans-63"/>
      <path d="M 18.3125 70.21875 
L 18.3125 54.6875 
L 36.8125 54.6875 
L 36.8125 47.703125 
L 18.3125 47.703125 
L 18.3125 18.015625 
Q 18.3125 11.328125 20.140625 9.421875 
Q 21.96875 7.515625 27.59375 7.515625 
L 36.8125 7.515625 
L 36.8125 0 
L 27.59375 0 
Q 17.1875 0 13.234375 3.875 
Q 9.28125 7.765625 9.28125 18.015625 
L 9.28125 47.703125 
L 2.6875 47.703125 
L 2.6875 54.6875 
L 9.28125 54.6875 
L 9.28125 70.21875 
z
" id="DejaVuSans-74"/>
      <path d="M 8.5 21.578125 
L 8.5 54.6875 
L 17.484375 54.6875 
L 17.484375 21.921875 
Q 17.484375 14.15625 20.5 10.265625 
Q 23.53125 6.390625 29.59375 6.390625 
Q 36.859375 6.390625 41.078125 11.03125 
Q 45.3125 15.671875 45.3125 23.6875 
L 45.3125 54.6875 
L 54.296875 54.6875 
L 54.296875 0 
L 45.3125 0 
L 45.3125 8.40625 
Q 42.046875 3.421875 37.71875 1 
Q 33.40625 -1.421875 27.6875 -1.421875 
Q 18.265625 -1.421875 13.375 4.4375 
Q 8.5 10.296875 8.5 21.578125 
z
M 31.109375 56 
z
" id="DejaVuSans-75"/>
      <path d="M 11.71875 12.40625 
L 22.015625 12.40625 
L 22.015625 4 
L 14.015625 -11.625 
L 7.71875 -11.625 
L 11.71875 4 
z
" id="DejaVuSans-2c"/>
      <path d="M 18.109375 8.203125 
L 18.109375 -20.796875 
L 9.078125 -20.796875 
L 9.078125 54.6875 
L 18.109375 54.6875 
L 18.109375 46.390625 
Q 20.953125 51.265625 25.265625 53.625 
Q 29.59375 56 35.59375 56 
Q 45.5625 56 51.78125 48.09375 
Q 58.015625 40.1875 58.015625 27.296875 
Q 58.015625 14.40625 51.78125 6.484375 
Q 45.5625 -1.421875 35.59375 -1.421875 
Q 29.59375 -1.421875 25.265625 0.953125 
Q 20.953125 3.328125 18.109375 8.203125 
z
M 48.6875 27.296875 
Q 48.6875 37.203125 44.609375 42.84375 
Q 40.53125 48.484375 33.40625 48.484375 
Q 26.265625 48.484375 22.1875 42.84375 
Q 18.109375 37.203125 18.109375 27.296875 
Q 18.109375 17.390625 22.1875 11.75 
Q 26.265625 6.109375 33.40625 6.109375 
Q 40.53125 6.109375 44.609375 11.75 
Q 48.6875 17.390625 48.6875 27.296875 
z
" id="DejaVuSans-70"/>
     </defs>
     <g transform="translate(16.139531 294.999375)rotate(-90)scale(0.17 -0.17)">
      <use xlink:href="#DejaVuSans-46"/>
      <use x="57.410156" xlink:href="#DejaVuSans-72"/>
      <use x="98.523438" xlink:href="#DejaVuSans-61"/>
      <use x="159.802734" xlink:href="#DejaVuSans-63"/>
      <use x="214.783203" xlink:href="#DejaVuSans-74"/>
      <use x="253.992188" xlink:href="#DejaVuSans-69"/>
      <use x="281.775391" xlink:href="#DejaVuSans-6f"/>
      <use x="342.957031" xlink:href="#DejaVuSans-6e"/>
      <use x="406.335938" xlink:href="#DejaVuSans-20"/>
      <use x="438.123047" xlink:href="#DejaVuSans-6f"/>
      <use x="499.304688" xlink:href="#DejaVuSans-66"/>
      <use x="534.509766" xlink:href="#DejaVuSans-20"/>
      <use x="566.296875" xlink:href="#DejaVuSans-66"/>
      <use x="601.501953" xlink:href="#DejaVuSans-75"/>
      <use x="664.880859" xlink:href="#DejaVuSans-6e"/>
      <use x="728.259766" xlink:href="#DejaVuSans-63"/>
      <use x="783.240234" xlink:href="#DejaVuSans-74"/>
      <use x="822.449219" xlink:href="#DejaVuSans-69"/>
      <use x="850.232422" xlink:href="#DejaVuSans-6f"/>
      <use x="911.414062" xlink:href="#DejaVuSans-6e"/>
      <use x="974.792969" xlink:href="#DejaVuSans-2c"/>
      <use x="1006.580078" xlink:href="#DejaVuSans-74"/>
      <use x="1045.789062" xlink:href="#DejaVuSans-61"/>
      <use x="1107.068359" xlink:href="#DejaVuSans-72"/>
      <use x="1148.166016" xlink:href="#DejaVuSans-67"/>
      <use x="1211.642578" xlink:href="#DejaVuSans-65"/>
      <use x="1273.166016" xlink:href="#DejaVuSans-74"/>
      <use x="1312.375" xlink:href="#DejaVuSans-20"/>
      <use x="1344.162109" xlink:href="#DejaVuSans-70"/>
      <use x="1407.638672" xlink:href="#DejaVuSans-61"/>
      <use x="1468.917969" xlink:href="#DejaVuSans-69"/>
      <use x="1496.701172" xlink:href="#DejaVuSans-72"/>
      <use x="1537.814453" xlink:href="#DejaVuSans-73"/>
     </g>
    </g>
   </g>
   <g id="line2d_41">
    <defs>
     <path d="M 0 1.5 
C 0.397805 1.5 0.77937 1.341951 1.06066 1.06066 
C 1.341951 0.77937 1.5 0.397805 1.5 0 
C 1.5 -0.397805 1.341951 -0.77937 1.06066 -1.06066 
C 0.77937 -1.341951 0.397805 -1.5 0 -1.5 
C -0.397805 -1.5 -0.77937 -1.341951 -1.06066 -1.06066 
C -1.341951 -0.77937 -1.5 -0.397805 -1.5 0 
C -1.5 0.397805 -1.341951 0.77937 -1.06066 1.06066 
C -0.77937 1.341951 -0.397805 1.5 0 1.5 
z
" id="mbf53f9c0dd" style="stroke:#f5deb3;"/>
    </defs>
    <g>
     <use style="fill:#f5deb3;stroke:#f5deb3;" x="143.515683" xlink:href="#mbf53f9c0dd" y="27.513663"/>
     <use style="fill:#f5deb3;stroke:#f5deb3;" x="143.515683" xlink:href="#mbf53f9c0dd" y="27.513663"/>
    </g>
   </g>
   <g id="line2d_42">
    <defs>
     <path d="M 0 1.5 
C 0.397805 1.5 0.77937 1.341951 1.06066 1.06066 
C 1.341951 0.77937 1.5 0.397805 1.5 0 
C 1.5 -0.397805 1.341951 -0.77937 1.06066 -1.06066 
C 0.77937 -1.341951 0.397805 -1.5 0 -1.5 
C -0.397805 -1.5 -0.77937 -1.341951 -1.06066 -1.06066 
C -1.341951 -0.77937 -1.5 -0.397805 -1.5 0 
C -1.5 0.397805 -1.341951 0.77937 -1.06066 1.06066 
C -0.77937 1.341951 -0.397805 1.5 0 1.5 
z
" id="m09fff265be" style="stroke:#000080;"/>
    </defs>
    <g>
     <use style="fill:#000080;stroke:#000080;" x="248.081585" xlink:href="#m09fff265be" y="111.393298"/>
     <use style="fill:#000080;stroke:#000080;" x="248.081585" xlink:href="#m09fff265be" y="111.393298"/>
    </g>
   </g>
   <g id="line2d_43">
    <path d="M 44.205749 294.88 
L 44.205749 277.579825 
L 56.12 277.579825 
L 56.12 269.716109 
L 63.08939 269.716109 
L 63.08939 269.191862 
L 68.034251 269.191862 
L 68.034251 268.143366 
L 71.869783 268.143366 
L 71.869783 262.900889 
L 75.003641 262.900889 
L 75.003641 260.803898 
L 77.653281 260.803898 
L 77.653281 255.561421 
L 79.948502 255.561421 
L 79.948502 255.037173 
L 81.973032 255.037173 
L 81.973032 254.512926 
L 83.784035 254.512926 
L 83.784035 251.367439 
L 94.816624 251.367439 
L 94.816624 250.843192 
L 95.698286 250.843192 
L 95.698286 249.270448 
L 98.832144 249.270448 
L 98.832144 247.173458 
L 102.084955 247.173458 
L 102.084955 246.64921 
L 110.746395 246.64921 
L 110.746395 245.076467 
L 115.420563 245.076467 
L 115.420563 240.358237 
L 119.310576 240.358237 
L 119.310576 237.212751 
L 121.359263 237.212751 
L 121.359263 236.164255 
L 127.334814 236.164255 
L 127.334814 231.970274 
L 129.145817 231.970274 
L 129.145817 230.921778 
L 129.630036 230.921778 
L 129.630036 228.30054 
L 132.279675 228.30054 
L 132.279675 227.776292 
L 132.882847 227.776292 
L 132.882847 220.436824 
L 133.079291 220.436824 
L 133.079291 214.670099 
L 134.574897 214.670099 
L 134.574897 214.145851 
L 140.561812 214.145851 
L 140.561812 211.000365 
L 141.243253 211.000365 
L 141.243253 210.476117 
L 142.245962 210.476117 
L 142.245962 208.903374 
L 144.498158 208.903374 
L 144.498158 207.330631 
L 148.273273 207.330631 
L 148.273273 206.806383 
L 149.061881 206.806383 
L 149.138788 205.757888 
L 150.502803 205.757888 
L 150.502803 204.185145 
L 150.888293 204.185145 
L 150.888293 200.515411 
L 156.108178 200.515411 
L 156.108178 198.942667 
L 166.526822 198.942667 
L 166.526822 195.797181 
L 168.489231 195.797181 
L 168.514106 194.748686 
L 168.907287 194.748686 
L 168.907287 193.70019 
L 169.100556 193.70019 
L 169.196381 190.554704 
L 169.291675 190.554704 
L 169.386444 189.506209 
L 169.841104 189.506209 
L 169.841104 188.981961 
L 170.473608 188.981961 
L 170.495773 187.409218 
L 171.169071 187.409218 
L 171.169071 184.263731 
L 171.5274 184.263731 
L 171.5274 183.215236 
L 171.816987 183.215236 
L 171.816987 182.690988 
L 173.177026 182.690988 
L 173.252664 181.642493 
L 173.616705 181.642493 
L 173.644391 180.593997 
L 175.195237 180.593997 
L 175.195237 180.06975 
L 178.434096 180.06975 
L 178.434096 179.545502 
L 178.545395 179.545502 
L 178.545395 179.021254 
L 178.96323 179.021254 
L 178.96323 178.497006 
L 179.191788 178.497006 
L 179.205139 176.924263 
L 179.36454 176.924263 
L 179.36454 176.400016 
L 181.110632 176.400016 
L 181.110632 175.875768 
L 181.359661 175.875768 
L 181.406689 174.303025 
L 181.766856 174.303025 
L 181.766856 172.730281 
L 186.526767 172.730281 
L 186.526767 172.206034 
L 186.829163 172.206034 
L 186.829163 171.681786 
L 187.33965 171.681786 
L 187.33965 171.157538 
L 187.996205 171.157538 
L 187.996205 170.633291 
L 188.274023 170.633291 
L 188.274023 170.109043 
L 188.500861 170.109043 
L 188.500861 169.584795 
L 188.74774 169.584795 
L 188.74774 169.060547 
L 188.869862 169.060547 
L 188.869862 168.5363 
L 189.408923 168.5363 
L 189.408923 168.012052 
L 189.874295 168.012052 
L 189.924439 166.439309 
L 190.348347 166.439309 
L 190.348347 165.915061 
L 190.487359 165.915061 
L 190.487359 165.390813 
L 190.762053 165.390813 
L 190.762053 164.342318 
L 191.11939 164.342318 
L 191.11939 163.81807 
L 191.593226 163.81807 
L 191.593226 163.293823 
L 192.790367 163.293823 
L 192.790367 162.769575 
L 193.244455 162.769575 
L 193.244455 162.245327 
L 193.600436 162.245327 
L 193.600436 161.721079 
L 193.852709 161.721079 
L 193.852709 161.196832 
L 194.185275 161.196832 
L 194.257696 160.148336 
L 194.429168 160.148336 
L 194.517006 158.051345 
L 194.713014 158.051345 
L 194.713014 157.527098 
L 194.885386 157.527098 
L 194.906812 155.954354 
L 195.353295 155.954354 
L 195.353295 155.430107 
L 195.583844 155.430107 
L 195.640361 154.381611 
L 196.065919 154.381611 
L 196.125862 153.333116 
L 196.884289 153.333116 
L 196.884289 152.808868 
L 197.224435 152.808868 
L 197.224435 152.28462 
L 197.36188 152.28462 
L 197.380432 150.711877 
L 198.08878 150.711877 
L 198.08878 150.18763 
L 198.300988 150.18763 
L 198.300988 149.663382 
L 199.002662 149.663382 
L 199.019526 148.614886 
L 199.170562 148.614886 
L 199.220614 147.042143 
L 200.916698 147.042143 
L 200.916698 146.517896 
L 201.264106 146.517896 
L 201.363665 145.4694 
L 201.582864 145.4694 
L 201.582864 144.945152 
L 201.731059 144.945152 
L 201.731059 144.420905 
L 201.945651 144.420905 
L 201.945651 143.896657 
L 202.08195 143.896657 
L 202.08195 143.372409 
L 202.556665 143.372409 
L 202.655854 142.323914 
L 202.710334 142.323914 
L 202.710334 141.799666 
L 203.272192 141.799666 
L 203.272192 141.275418 
L 204.291004 141.275418 
L 204.377613 140.226923 
L 204.466857 140.226923 
L 204.466857 139.702675 
L 204.963008 139.702675 
L 205.043336 138.65418 
L 207.02593 138.65418 
L 207.12351 137.605684 
L 208.102332 137.605684 
L 208.102332 137.081437 
L 209.752098 137.081437 
L 209.752098 136.557189 
L 210.249258 136.557189 
L 210.249258 136.032941 
L 210.836583 136.032941 
L 210.836583 135.508693 
L 211.170231 135.508693 
L 211.170231 134.984446 
L 211.574833 134.984446 
L 211.574833 134.460198 
L 212.194795 134.460198 
L 212.194795 133.93595 
L 213.081938 133.93595 
L 213.185752 132.887455 
L 214.119179 132.887455 
L 214.119179 132.363207 
L 214.979558 132.363207 
L 214.979558 131.838959 
L 215.69701 131.838959 
L 215.69701 131.314712 
L 216.057325 131.314712 
L 216.158678 130.266216 
L 216.301118 130.266216 
L 216.301118 129.741969 
L 218.173531 129.741969 
L 218.173531 129.217721 
L 218.599616 129.217721 
L 218.599616 128.693473 
L 219.580067 128.693473 
L 219.580067 128.169225 
L 219.691822 128.169225 
L 219.691822 127.644978 
L 219.804113 127.644978 
L 219.898174 126.596482 
L 220.022793 126.596482 
L 220.022793 126.072235 
L 220.410754 126.072235 
L 220.410754 125.547987 
L 220.555816 125.547987 
L 220.627891 124.499491 
L 221.179938 124.499491 
L 221.179938 123.975244 
L 221.835907 123.975244 
L 221.942842 122.4025 
L 222.208398 122.4025 
L 222.208398 121.878253 
L 223.633608 121.878253 
L 223.633608 121.354005 
L 224.397366 121.354005 
L 224.397366 120.829757 
L 225.076885 120.829757 
L 225.076885 120.30551 
L 226.30523 120.30551 
L 226.30523 119.781262 
L 227.535235 119.781262 
L 227.535235 119.257014 
L 227.849946 119.257014 
L 227.849946 118.732766 
L 228.969509 118.732766 
L 228.969509 118.208519 
L 229.614661 118.208519 
L 229.614661 117.684271 
L 231.222715 117.684271 
L 231.307933 116.635776 
L 233.371129 116.635776 
L 233.371129 116.111528 
L 233.795352 116.111528 
L 233.795352 115.58728 
L 234.014608 115.58728 
L 234.056369 114.538785 
L 237.654606 114.538785 
L 237.654606 114.014537 
L 240.256738 114.014537 
L 240.256738 113.490289 
L 240.899617 113.490289 
L 240.899617 112.966042 
L 241.053727 112.966042 
L 241.053727 112.441794 
L 244.987532 112.441794 
L 244.987532 111.917546 
L 248.081585 111.917546 
L 248.081585 111.393298 
L 333.168 111.393298 
L 333.168 111.393298 
" style="fill:none;stroke:#000080;stroke-linecap:square;stroke-width:1.5;"/>
   </g>
   <g id="line2d_44">
    <defs>
     <path d="M 0 6 
C 1.591219 6 3.117479 5.367802 4.242641 4.242641 
C 5.367802 3.117479 6 1.591219 6 0 
C 6 -1.591219 5.367802 -3.117479 4.242641 -4.242641 
C 3.117479 -5.367802 1.591219 -6 0 -6 
C -1.591219 -6 -3.117479 -5.367802 -4.242641 -4.242641 
C -5.367802 -3.117479 -6 -1.591219 -6 0 
C -6 1.591219 -5.367802 3.117479 -4.242641 4.242641 
C -3.117479 5.367802 -1.591219 6 0 6 
z
" id="mc7c387f738" style="stroke:#000080;stroke-width:1.5;"/>
    </defs>
    <g>
     <use style="fill:none;stroke:#000080;stroke-width:1.5;" x="129.630036" xlink:href="#mc7c387f738" y="228.30054"/>
     <use style="fill:none;stroke:#000080;stroke-width:1.5;" x="175.195237" xlink:href="#mc7c387f738" y="180.06975"/>
     <use style="fill:none;stroke:#000080;stroke-width:1.5;" x="237.654606" xlink:href="#mc7c387f738" y="114.538785"/>
     <use style="fill:none;stroke:#000080;stroke-width:1.5;" x="248.081585" xlink:href="#mc7c387f738" y="111.393298"/>
     <use style="fill:none;stroke:#000080;stroke-width:1.5;" x="248.081585" xlink:href="#mc7c387f738" y="111.393298"/>
     <use style="fill:none;stroke:#000080;stroke-width:1.5;" x="333.168" xlink:href="#mc7c387f738" y="111.393298"/>
    </g>
   </g>
   <g id="line2d_45">
    <path style="fill:none;stroke:#000080;stroke-linecap:square;stroke-width:1.5;"/>
    <g/>
   </g>
   <g id="line2d_46">
    <path clip-path="url(#pad64963861)" d="M 177.988715 180.06975 
" style="fill:none;stroke:#000080;stroke-linecap:square;stroke-width:1.5;"/>
    <defs>
     <path d="M -12 12 
L 12 -12 
M -12 -12 
L 12 12 
" id="med777b85c1" style="stroke:#000080;"/>
    </defs>
    <g clip-path="url(#pad64963861)">
     <use style="fill:#000080;stroke:#000080;" x="177.988715" xlink:href="#med777b85c1" y="180.06975"/>
    </g>
   </g>
   <g id="line2d_47">
    <defs>
     <path d="M 0 1.5 
C 0.397805 1.5 0.77937 1.341951 1.06066 1.06066 
C 1.341951 0.77937 1.5 0.397805 1.5 0 
C 1.5 -0.397805 1.341951 -0.77937 1.06066 -1.06066 
C 0.77937 -1.341951 0.397805 -1.5 0 -1.5 
C -0.397805 -1.5 -0.77937 -1.341951 -1.06066 -1.06066 
C -1.341951 -0.77937 -1.5 -0.397805 -1.5 0 
C -1.5 0.397805 -1.341951 0.77937 -1.06066 1.06066 
C -0.77937 1.341951 -0.397805 1.5 0 1.5 
z
" id="mc0601125fa" style="stroke:#ff00ff;"/>
    </defs>
    <g>
     <use style="fill:#ff00ff;stroke:#ff00ff;" x="223.631595" xlink:href="#mc0601125fa" y="27.513663"/>
     <use style="fill:#ff00ff;stroke:#ff00ff;" x="223.631595" xlink:href="#mc0601125fa" y="27.513663"/>
    </g>
   </g>
   <g id="line2d_48">
    <path d="M 44.205749 294.88 
L 44.205749 274.958587 
L 56.12 274.958587 
L 56.12 267.094871 
L 63.08939 267.094871 
L 63.08939 261.852394 
L 68.034251 261.852394 
L 68.034251 256.085669 
L 71.869783 256.085669 
L 71.869783 252.415935 
L 75.003641 252.415935 
L 75.003641 247.697705 
L 81.973032 247.697705 
L 81.973032 247.173458 
L 83.784035 247.173458 
L 83.784035 246.64921 
L 85.422286 246.64921 
L 85.422286 238.261246 
L 86.917893 238.261246 
L 86.917893 237.212751 
L 88.293717 237.212751 
L 88.293717 236.688503 
L 95.698286 236.688503 
L 95.698286 236.164255 
L 96.536922 236.164255 
L 96.536922 234.067265 
L 100.207968 234.067265 
L 100.207968 231.446026 
L 102.667676 231.446026 
L 102.667676 229.873283 
L 104.305927 229.873283 
L 104.305927 228.824787 
L 106.730875 228.824787 
L 106.730875 228.30054 
L 107.177358 228.30054 
L 107.177358 227.776292 
L 108.451173 227.776292 
L 108.451173 226.203549 
L 113.700266 226.203549 
L 113.700266 225.155053 
L 114.581927 225.155053 
L 114.581927 224.630806 
L 114.866043 224.630806 
L 114.866043 224.106558 
L 115.957752 224.106558 
L 115.957752 223.58231 
L 116.220179 223.58231 
L 116.220179 223.058063 
L 117.231566 223.058063 
L 117.231566 219.912576 
L 120.15957 219.912576 
L 120.15957 219.388328 
L 121.16504 219.388328 
L 121.16504 218.864081 
L 121.551317 218.864081 
L 121.551317 216.242842 
L 121.741249 216.242842 
L 121.741249 214.670099 
L 122.480659 214.670099 
L 122.480659 212.04886 
L 123.36232 212.04886 
L 123.36232 211.524613 
L 123.870396 211.524613 
L 123.870396 211.000365 
L 124.843597 211.000365 
L 124.843597 208.379126 
L 130.100987 208.379126 
L 130.100987 207.854879 
L 130.445921 207.854879 
L 130.445921 206.806383 
L 130.67209 206.806383 
L 130.67209 205.757888 
L 130.784069 205.757888 
L 130.784069 205.23364 
L 131.333273 205.23364 
L 131.333273 204.185145 
L 131.654565 204.185145 
L 131.654565 203.660897 
L 132.98135 203.660897 
L 132.98135 202.088154 
L 133.176677 202.088154 
L 133.273515 198.942667 
L 134.753019 198.942667 
L 134.753019 197.894172 
L 134.929315 197.894172 
L 134.929315 197.369924 
L 135.447604 197.369924 
L 135.447604 196.845677 
L 135.950722 196.845677 
L 136.033161 195.272933 
L 136.519665 195.272933 
L 136.519665 192.651695 
L 138.121538 192.651695 
L 138.121538 191.603199 
L 138.33866 191.603199 
L 138.33866 190.030456 
L 139.586771 190.030456 
L 139.586771 188.981961 
L 139.852237 188.981961 
L 139.917968 187.933465 
L 140.113666 187.933465 
L 140.178407 186.360722 
L 140.242905 186.360722 
L 140.307161 184.263731 
L 140.498503 184.263731 
L 140.498503 181.642493 
L 140.62489 181.642493 
L 140.62489 180.06975 
L 141.060069 180.06975 
L 141.060069 176.924263 
L 141.182408 176.924263 
L 141.182408 176.400016 
L 141.424506 176.400016 
L 141.424506 172.730281 
L 141.544287 172.730281 
L 141.603867 171.157538 
L 141.66324 171.157538 
L 141.66324 167.487804 
L 142.015238 167.487804 
L 142.015238 166.963557 
L 142.18857 166.963557 
L 142.245962 163.81807 
L 142.303162 163.81807 
L 142.303162 162.769575 
L 142.864932 162.769575 
L 142.864932 162.245327 
L 143.301492 162.245327 
L 143.408921 160.148336 
L 143.515683 160.148336 
L 143.568817 158.051345 
L 143.884213 158.051345 
L 143.884213 157.00285 
L 144.091308 157.00285 
L 144.193927 155.430107 
L 144.245007 155.430107 
L 144.245007 152.28462 
L 144.698028 152.28462 
L 144.797098 143.896657 
L 144.895601 143.896657 
L 144.895601 143.372409 
L 145.090928 143.372409 
L 145.090928 142.323914 
L 145.710835 142.323914 
L 145.710835 141.275418 
L 146.127269 141.275418 
L 146.218456 140.226923 
L 146.354335 140.226923 
L 146.354335 138.129932 
L 146.622913 138.129932 
L 146.622913 137.081437 
L 147.061422 137.081437 
L 147.061422 135.508693 
L 147.190823 135.508693 
L 147.190823 134.460198 
L 147.361855 134.460198 
L 147.361855 132.363207 
L 184.221581 132.363207 
L 184.246481 130.266216 
L 184.345723 130.266216 
L 184.345723 129.741969 
L 184.683774 129.741969 
L 184.698323 128.169225 
L 184.895923 128.169225 
L 184.972423 127.12073 
L 185.010546 127.12073 
L 185.081799 124.499491 
L 185.195194 124.499491 
L 185.195194 123.975244 
L 185.368557 123.975244 
L 185.419762 122.926748 
L 185.493971 122.926748 
L 185.586284 119.257014 
L 185.632256 119.257014 
L 185.700983 116.635776 
L 185.796741 116.635776 
L 185.887447 113.490289 
L 185.914565 113.490289 
L 185.932621 111.393298 
L 186.07191 111.393298 
L 186.152272 109.296308 
L 186.187869 109.296308 
L 186.187869 108.77206 
L 186.325113 108.77206 
L 186.430619 106.675069 
L 186.48313 106.675069 
L 186.500598 105.626573 
L 186.669988 105.626573 
L 186.760512 104.05383 
L 186.781995 104.05383 
L 186.86766 100.384096 
L 186.901807 100.384096 
L 187.012318 98.811353 
L 187.054633 98.811353 
L 187.138953 96.714362 
L 187.176763 96.714362 
L 187.281355 95.665867 
L 187.310527 95.665867 
L 187.393604 92.520381 
L 187.488649 92.520381 
L 187.599557 89.374894 
L 187.607744 89.374894 
L 187.664945 86.229408 
L 187.721955 86.229408 
L 187.819249 84.132417 
L 187.847524 84.132417 
L 187.915996 79.938435 
L 188.008204 79.938435 
L 188.111846 78.365692 
L 188.199058 78.365692 
L 188.199058 77.841444 
L 188.442482 77.841444 
L 188.539671 76.792949 
L 188.601584 76.792949 
L 188.682508 75.744454 
L 188.774528 75.744454 
L 188.85845 74.695958 
L 188.904053 74.695958 
L 188.960888 73.123215 
L 189.141505 73.123215 
L 189.178896 71.026224 
L 189.368335 71.026224 
L 189.368335 70.501976 
L 196.336494 70.501976 
L 196.336494 69.977729 
L 196.958085 69.977729 
L 196.986567 68.404985 
L 197.254814 68.404985 
L 197.254814 67.880738 
L 197.410537 67.880738 
L 197.410537 67.35649 
L 197.635799 67.35649 
L 197.731443 65.259499 
L 197.747332 65.259499 
L 197.799436 64.211004 
L 197.932376 64.211004 
L 197.932376 63.686756 
L 198.059841 63.686756 
L 198.066523 62.638261 
L 198.175306 62.638261 
L 198.2636 60.017022 
L 198.311969 60.017022 
L 198.421395 58.968526 
L 198.497581 58.968526 
L 198.601519 56.347288 
L 198.66186 56.347288 
L 198.754117 55.298792 
L 198.790454 55.298792 
L 198.854392 53.201802 
L 198.920212 53.201802 
L 198.98367 52.153306 
L 199.065817 52.153306 
L 199.151755 50.056315 
L 199.272597 50.056315 
L 199.365772 49.00782 
L 199.621971 49.00782 
L 199.65246 47.959324 
L 199.890439 47.959324 
L 199.890439 47.435077 
L 200.321611 47.435077 
L 200.321611 46.910829 
L 203.368983 46.910829 
L 203.368983 46.386581 
L 203.884665 46.386581 
L 203.884665 45.862334 
L 204.485263 45.862334 
L 204.486796 44.813838 
L 204.712184 44.813838 
L 204.814758 43.765343 
L 204.877808 43.765343 
L 204.977912 41.144104 
L 205.013628 41.144104 
L 205.0952 39.047113 
L 205.208754 39.047113 
L 205.261588 37.47437 
L 205.507466 37.47437 
L 205.507466 36.950122 
L 205.704238 36.950122 
L 205.744179 35.901627 
L 205.828036 35.901627 
L 205.828036 35.377379 
L 206.088358 35.377379 
L 206.088358 34.853131 
L 209.925007 34.853131 
L 209.925007 34.328884 
L 210.109463 34.328884 
L 210.186656 33.280388 
L 210.249258 33.280388 
L 210.249258 32.756141 
L 210.408574 32.756141 
L 210.408574 32.231893 
L 210.595462 32.231893 
L 210.595462 31.707645 
L 214.00942 31.707645 
L 214.00942 31.183397 
L 216.630217 31.183397 
L 216.630217 30.65915 
L 217.112713 30.65915 
L 217.112713 30.134902 
L 219.100107 30.134902 
L 219.100107 29.610654 
L 219.627144 29.610654 
L 219.627144 29.086407 
L 219.835524 29.086407 
L 219.835524 28.562159 
L 221.765367 28.562159 
L 221.765367 28.037911 
L 223.631595 28.037911 
L 223.631595 27.513663 
L 333.168 27.513663 
L 333.168 27.513663 
" style="fill:none;stroke:#ff00ff;stroke-linecap:square;stroke-width:1.5;"/>
   </g>
   <g id="line2d_49">
    <defs>
     <path d="M -0 8.485281 
L 5.091169 0 
L 0 -8.485281 
L -5.091169 -0 
z
" id="ma2cb59e061" style="stroke:#ff00ff;stroke-linejoin:miter;stroke-width:1.5;"/>
    </defs>
    <g>
     <use style="fill:none;stroke:#ff00ff;stroke-linejoin:miter;stroke-width:1.5;" x="133.273515" xlink:href="#ma2cb59e061" y="198.942667"/>
     <use style="fill:none;stroke:#ff00ff;stroke-linejoin:miter;stroke-width:1.5;" x="185.010546" xlink:href="#ma2cb59e061" y="127.12073"/>
     <use style="fill:none;stroke:#ff00ff;stroke-linejoin:miter;stroke-width:1.5;" x="223.631595" xlink:href="#ma2cb59e061" y="28.037911"/>
     <use style="fill:none;stroke:#ff00ff;stroke-linejoin:miter;stroke-width:1.5;" x="223.631595" xlink:href="#ma2cb59e061" y="27.513663"/>
     <use style="fill:none;stroke:#ff00ff;stroke-linejoin:miter;stroke-width:1.5;" x="223.631595" xlink:href="#ma2cb59e061" y="27.513663"/>
     <use style="fill:none;stroke:#ff00ff;stroke-linejoin:miter;stroke-width:1.5;" x="333.168" xlink:href="#ma2cb59e061" y="27.513663"/>
    </g>
   </g>
   <g id="line2d_50">
    <path style="fill:none;stroke:#ff00ff;stroke-linecap:square;stroke-width:1.5;"/>
    <g/>
   </g>
   <g id="line2d_51">
    <path clip-path="url(#pad64963861)" d="M 186.103207 110.869051 
" style="fill:none;stroke:#ff00ff;stroke-linecap:square;stroke-width:1.5;"/>
    <defs>
     <path d="M -12 12 
L 12 -12 
M -12 -12 
L 12 12 
" id="mf95c3e2d78" style="stroke:#ff00ff;"/>
    </defs>
    <g clip-path="url(#pad64963861)">
     <use style="fill:#ff00ff;stroke:#ff00ff;" x="186.103207" xlink:href="#mf95c3e2d78" y="110.869051"/>
    </g>
   </g>
   <g id="line2d_52">
    <defs>
     <path d="M 0 1.5 
C 0.397805 1.5 0.77937 1.341951 1.06066 1.06066 
C 1.341951 0.77937 1.5 0.397805 1.5 0 
C 1.5 -0.397805 1.341951 -0.77937 1.06066 -1.06066 
C 0.77937 -1.341951 0.397805 -1.5 0 -1.5 
C -0.397805 -1.5 -0.77937 -1.341951 -1.06066 -1.06066 
C -1.341951 -0.77937 -1.5 -0.397805 -1.5 0 
C -1.5 0.397805 -1.341951 0.77937 -1.06066 1.06066 
C -0.77937 1.341951 -0.397805 1.5 0 1.5 
z
" id="ma7ec0d52a8" style="stroke:#ff7500;"/>
    </defs>
    <g>
     <use style="fill:#ff7500;stroke:#ff7500;" x="274.930622" xlink:href="#ma7ec0d52a8" y="27.513663"/>
     <use style="fill:#ff7500;stroke:#ff7500;" x="274.930622" xlink:href="#ma7ec0d52a8" y="27.513663"/>
    </g>
   </g>
   <g id="line2d_53">
    <path d="M 44.205749 294.88 
L 44.205749 279.152568 
L 56.12 279.152568 
L 56.12 272.861596 
L 63.08939 272.861596 
L 63.08939 264.99788 
L 68.034251 264.99788 
L 68.034251 260.279651 
L 71.869783 260.279651 
L 71.869783 258.18266 
L 75.003641 258.18266 
L 75.003641 249.270448 
L 79.948502 249.270448 
L 79.948502 247.697705 
L 88.293717 247.697705 
L 88.293717 246.64921 
L 89.567532 246.64921 
L 89.567532 246.124962 
L 91.862754 246.124962 
L 91.862754 245.600714 
L 92.904808 245.600714 
L 92.904808 245.076467 
L 94.816624 245.076467 
L 94.816624 244.027971 
L 98.100602 244.027971 
L 98.100602 243.503724 
L 98.832144 243.503724 
L 98.832144 241.406733 
L 101.481783 241.406733 
L 101.481783 240.882485 
L 102.084955 240.882485 
L 102.084955 239.83399 
L 103.777005 239.83399 
L 103.777005 236.688503 
L 111.448069 236.688503 
L 111.448069 236.164255 
L 112.449632 236.164255 
L 112.449632 235.11576 
L 113.086321 235.11576 
L 113.086321 234.067265 
L 118.186736 234.067265 
L 118.186736 233.018769 
L 120.365424 233.018769 
L 120.365424 231.446026 
L 120.769881 231.446026 
L 120.769881 230.921778 
L 121.359263 230.921778 
L 121.359263 229.873283 
L 122.660646 229.873283 
L 122.660646 224.106558 
L 125.463074 224.106558 
L 125.463074 223.058063 
L 148.151798 223.058063 
L 148.151798 222.009567 
L 158.713912 222.009567 
L 158.713912 221.485319 
L 158.910606 221.485319 
L 158.954011 220.436824 
L 159.276106 220.436824 
L 159.360989 218.864081 
L 159.403273 218.864081 
L 159.403273 218.339833 
L 159.737856 218.339833 
L 159.737856 217.815585 
L 159.882212 217.815585 
L 159.923235 216.76709 
L 160.167338 216.76709 
L 160.167338 215.194347 
L 160.665017 215.194347 
L 160.665017 211.524613 
L 161.822107 211.524613 
L 161.822107 211.000365 
L 162.238932 211.000365 
L 162.238932 210.476117 
L 168.301512 210.476117 
L 168.301512 209.427622 
L 168.69953 209.427622 
L 168.69953 208.903374 
L 169.492438 208.903374 
L 169.492438 208.379126 
L 176.493109 208.379126 
L 176.493109 207.854879 
L 176.609906 207.854879 
L 176.640919 206.806383 
L 176.833489 206.806383 
L 176.894658 205.757888 
L 180.328641 205.757888 
L 180.328641 205.23364 
L 180.576856 205.23364 
L 180.576856 204.709392 
L 182.624644 204.709392 
L 182.624644 204.185145 
L 184.688625 204.185145 
L 184.688625 203.660897 
L 184.838323 203.660897 
L 184.91508 202.612401 
L 204.924197 202.612401 
L 204.924197 202.088154 
L 205.65275 202.088154 
L 205.744179 200.515411 
L 205.764114 200.515411 
L 205.768383 199.466915 
L 206.142737 199.466915 
L 206.177505 198.41842 
L 206.72982 198.41842 
L 206.821063 196.321429 
L 206.902504 196.321429 
L 206.907831 195.272933 
L 207.474922 195.272933 
L 207.495522 193.70019 
L 207.595598 193.70019 
L 207.610943 191.603199 
L 207.879798 191.603199 
L 207.948867 190.030456 
L 208.164327 190.030456 
L 208.239659 186.88497 
L 208.277816 186.88497 
L 208.292564 185.836474 
L 208.477068 185.836474 
L 208.564351 184.787979 
L 208.686047 184.787979 
L 208.739992 182.690988 
L 208.943452 182.690988 
L 208.943452 182.16674 
L 209.057804 182.16674 
L 209.162059 180.593997 
L 209.19939 180.593997 
L 209.303952 179.545502 
L 209.531771 179.545502 
L 209.531771 179.021254 
L 209.785918 179.021254 
L 209.785918 178.497006 
L 210.149205 178.497006 
L 210.149205 177.972759 
L 210.481194 177.972759 
L 210.481194 177.448511 
L 210.596536 177.448511 
L 210.689752 175.875768 
L 211.045085 175.875768 
L 211.045085 175.35152 
L 211.294471 175.35152 
L 211.294471 174.827272 
L 211.596133 174.827272 
L 211.627527 173.778777 
L 212.319648 173.778777 
L 212.385609 172.206034 
L 213.593046 172.206034 
L 213.593046 171.681786 
L 213.746681 171.681786 
L 213.746681 171.157538 
L 214.830723 171.157538 
L 214.830723 170.633291 
L 215.568772 170.633291 
L 215.568772 170.109043 
L 216.833965 170.109043 
L 216.893653 169.060547 
L 217.183165 169.060547 
L 217.257704 167.487804 
L 217.609919 167.487804 
L 217.609919 166.963557 
L 218.307135 166.963557 
L 218.307135 166.439309 
L 218.538809 166.439309 
L 218.614447 164.866566 
L 218.75404 164.866566 
L 218.804763 163.81807 
L 218.868622 163.81807 
L 218.925628 162.769575 
L 219.174624 162.769575 
L 219.270238 161.721079 
L 219.639845 161.721079 
L 219.639845 161.196832 
L 219.791533 161.196832 
L 219.823594 160.148336 
L 219.923794 160.148336 
L 219.923794 159.624089 
L 220.039547 159.624089 
L 220.122459 158.575593 
L 220.245468 158.575593 
L 220.245468 158.051345 
L 220.788963 158.051345 
L 220.864799 156.478602 
L 220.97323 156.478602 
L 221.052937 155.430107 
L 221.203139 155.430107 
L 221.213569 154.381611 
L 221.443165 154.381611 
L 221.443165 153.857364 
L 221.711991 153.857364 
L 221.711991 153.333116 
L 222.109157 153.333116 
L 222.188705 151.760373 
L 222.407879 151.760373 
L 222.407879 151.236125 
L 222.65788 151.236125 
L 222.65788 150.711877 
L 222.885387 150.711877 
L 222.885387 150.18763 
L 223.04443 150.18763 
L 223.085521 149.139134 
L 224.155972 149.139134 
L 224.155972 148.614886 
L 224.691816 148.614886 
L 224.691816 148.090639 
L 225.433134 148.090639 
L 225.433134 147.566391 
L 225.569455 147.566391 
L 225.569455 147.042143 
L 225.951396 147.042143 
L 226.060105 145.4694 
L 226.125959 145.4694 
L 226.209332 142.848162 
L 226.25994 142.848162 
L 226.25994 142.323914 
L 226.425853 142.323914 
L 226.439108 141.275418 
L 226.61262 141.275418 
L 226.662478 140.226923 
L 226.872149 140.226923 
L 226.956551 138.65418 
L 227.206072 138.65418 
L 227.30268 137.605684 
L 227.364355 137.605684 
L 227.439526 136.557189 
L 227.534433 136.557189 
L 227.534433 136.032941 
L 227.844433 136.032941 
L 227.921067 134.460198 
L 228.06321 134.460198 
L 228.133843 132.887455 
L 228.282309 132.887455 
L 228.282309 132.363207 
L 228.467911 132.363207 
L 228.558832 131.314712 
L 228.831721 131.314712 
L 228.831721 130.790464 
L 228.960284 130.790464 
L 228.998629 129.217721 
L 229.321517 129.217721 
L 229.34716 128.169225 
L 229.468356 128.169225 
L 229.532027 126.072235 
L 230.18052 126.072235 
L 230.18052 125.547987 
L 230.346469 125.547987 
L 230.346469 125.023739 
L 230.553949 125.023739 
L 230.553949 124.499491 
L 231.115597 124.499491 
L 231.225304 123.450996 
L 231.463713 123.450996 
L 231.463713 122.926748 
L 231.909705 122.926748 
L 232.008911 121.878253 
L 232.073705 121.878253 
L 232.073705 121.354005 
L 232.237681 121.354005 
L 232.237681 120.829757 
L 232.489317 120.829757 
L 232.596001 118.732766 
L 232.713009 118.732766 
L 232.713009 118.208519 
L 232.879549 118.208519 
L 232.879549 117.684271 
L 233.025271 117.684271 
L 233.025271 117.160023 
L 233.248179 117.160023 
L 233.343692 116.111528 
L 233.376554 116.111528 
L 233.376554 115.58728 
L 233.87596 115.58728 
L 233.960883 114.538785 
L 234.169329 114.538785 
L 234.169329 114.014537 
L 234.46126 114.014537 
L 234.46126 113.490289 
L 234.6468 113.490289 
L 234.700804 111.917546 
L 235.082952 111.917546 
L 235.117815 110.869051 
L 235.435275 110.869051 
L 235.435275 110.344803 
L 235.712623 110.344803 
L 235.813255 108.77206 
L 236.102411 108.77206 
L 236.102411 108.247812 
L 236.403548 108.247812 
L 236.403548 107.723564 
L 236.527818 107.723564 
L 236.577654 106.675069 
L 237.200606 106.675069 
L 237.200606 106.150821 
L 237.346932 106.150821 
L 237.346932 105.626573 
L 237.59351 105.626573 
L 237.59351 105.102326 
L 237.737872 105.102326 
L 237.761999 104.05383 
L 237.863009 104.05383 
L 237.863009 103.529583 
L 238.106898 103.529583 
L 238.106898 103.005335 
L 238.219481 103.005335 
L 238.298561 101.432592 
L 238.43438 101.432592 
L 238.489595 99.859849 
L 238.653346 99.859849 
L 238.677481 98.287105 
L 238.973149 98.287105 
L 238.973149 97.762858 
L 239.330776 97.762858 
L 239.363251 96.714362 
L 239.537485 96.714362 
L 239.537485 96.190115 
L 239.810204 96.190115 
L 239.810204 95.665867 
L 239.963455 95.665867 
L 239.963455 95.141619 
L 240.162738 95.141619 
L 240.254824 94.093124 
L 240.316323 94.093124 
L 240.347752 93.044628 
L 240.471194 93.044628 
L 240.471194 92.520381 
L 240.606883 92.520381 
L 240.606883 91.996133 
L 241.094772 91.996133 
L 241.164417 90.947637 
L 241.771656 90.947637 
L 241.771656 90.42339 
L 242.331402 90.42339 
L 242.339539 89.374894 
L 242.497277 89.374894 
L 242.497277 88.850646 
L 242.641927 88.850646 
L 242.720679 87.802151 
L 242.781241 87.802151 
L 242.827265 85.180912 
L 242.899105 85.180912 
L 242.929919 84.132417 
L 243.214454 84.132417 
L 243.214454 83.608169 
L 243.482942 83.608169 
L 243.482942 83.083922 
L 243.96654 83.083922 
L 243.96654 82.559674 
L 244.12079 82.559674 
L 244.12079 82.035426 
L 244.462536 82.035426 
L 244.551877 80.462683 
L 245.026713 80.462683 
L 245.127737 79.414188 
L 245.147036 79.414188 
L 245.215559 77.841444 
L 245.573381 77.841444 
L 245.573381 77.317197 
L 245.686881 77.317197 
L 245.733964 76.268701 
L 245.914962 76.268701 
L 245.984198 74.695958 
L 246.507674 74.695958 
L 246.564895 73.647463 
L 246.645425 73.647463 
L 246.645425 73.123215 
L 247.397073 73.123215 
L 247.487126 72.074719 
L 247.514866 72.074719 
L 247.514866 71.550472 
L 248.231403 71.550472 
L 248.231403 71.026224 
L 248.401976 71.026224 
L 248.495933 69.977729 
L 248.643725 69.977729 
L 248.702582 68.929233 
L 248.814229 68.929233 
L 248.814229 68.404985 
L 249.159706 68.404985 
L 249.159706 67.880738 
L 249.511558 67.880738 
L 249.573753 66.832242 
L 249.755256 66.832242 
L 249.755256 66.307995 
L 250.099884 66.307995 
L 250.196296 65.259499 
L 250.574946 65.259499 
L 250.574946 64.735251 
L 250.973046 64.735251 
L 251.04765 63.162508 
L 251.547522 63.162508 
L 251.608317 62.114013 
L 251.697731 62.114013 
L 251.697731 61.589765 
L 251.991271 61.589765 
L 251.991271 61.065517 
L 252.134984 61.065517 
L 252.146004 60.017022 
L 252.655853 60.017022 
L 252.716936 58.968526 
L 252.828144 58.968526 
L 252.926467 57.920031 
L 252.960853 57.920031 
L 253.010481 56.871536 
L 253.09055 56.871536 
L 253.200907 55.298792 
L 253.368025 55.298792 
L 253.41151 54.250297 
L 253.643463 54.250297 
L 253.643463 53.726049 
L 253.919309 53.726049 
L 253.929329 52.677554 
L 254.482667 52.677554 
L 254.482667 52.153306 
L 254.778214 52.153306 
L 254.838192 51.104811 
L 255.237084 51.104811 
L 255.324413 50.056315 
L 255.733465 50.056315 
L 255.815684 48.483572 
L 256.704231 48.483572 
L 256.797153 47.435077 
L 257.244408 47.435077 
L 257.244408 46.910829 
L 258.331991 46.910829 
L 258.331991 46.386581 
L 258.474042 46.386581 
L 258.474042 45.862334 
L 258.831326 45.862334 
L 258.930509 44.813838 
L 259.294837 44.813838 
L 259.294837 44.28959 
L 259.476647 44.28959 
L 259.551464 42.716847 
L 259.840783 42.716847 
L 259.840783 42.192599 
L 260.196285 42.192599 
L 260.210012 41.144104 
L 260.647821 41.144104 
L 260.729352 39.047113 
L 260.815647 39.047113 
L 260.815647 38.522865 
L 262.026486 38.522865 
L 262.112639 37.47437 
L 262.829252 37.47437 
L 262.829252 36.950122 
L 263.020009 36.950122 
L 263.020009 36.425875 
L 263.491406 36.425875 
L 263.491406 35.901627 
L 264.302908 35.901627 
L 264.302908 35.377379 
L 264.822629 35.377379 
L 264.822629 34.853131 
L 265.601384 34.853131 
L 265.601384 34.328884 
L 265.884765 34.328884 
L 265.884765 33.804636 
L 266.582219 33.804636 
L 266.650165 32.756141 
L 267.095947 32.756141 
L 267.095947 32.231893 
L 267.482601 32.231893 
L 267.482601 31.707645 
L 267.710347 31.707645 
L 267.710347 31.183397 
L 268.734301 31.183397 
L 268.734301 30.65915 
L 268.906597 30.65915 
L 269.016369 29.610654 
L 271.734818 29.610654 
L 271.734818 29.086407 
L 272.77773 29.086407 
L 272.77773 28.562159 
L 274.168516 28.562159 
L 274.168516 28.037911 
L 274.930622 28.037911 
L 274.930622 27.513663 
L 333.168 27.513663 
L 333.168 27.513663 
" style="fill:none;stroke:#ff7500;stroke-linecap:square;stroke-width:1.5;"/>
   </g>
   <g id="line2d_54">
    <defs>
     <path d="M 0 -6 
L -1.347084 -1.854102 
L -5.706339 -1.854102 
L -2.179628 0.708204 
L -3.526712 4.854102 
L -0 2.291796 
L 3.526712 4.854102 
L 2.179628 0.708204 
L 5.706339 -1.854102 
L 1.347084 -1.854102 
z
" id="m8b84d93606" style="stroke:#ff7500;stroke-linejoin:bevel;stroke-width:1.5;"/>
    </defs>
    <g>
     <use style="fill:none;stroke:#ff7500;stroke-linejoin:bevel;stroke-width:1.5;" x="125.463074" xlink:href="#m8b84d93606" y="224.106558"/>
     <use style="fill:none;stroke:#ff7500;stroke-linejoin:bevel;stroke-width:1.5;" x="212.319648" xlink:href="#m8b84d93606" y="173.778777"/>
     <use style="fill:none;stroke:#ff7500;stroke-linejoin:bevel;stroke-width:1.5;" x="259.294837" xlink:href="#m8b84d93606" y="44.28959"/>
     <use style="fill:none;stroke:#ff7500;stroke-linejoin:bevel;stroke-width:1.5;" x="274.930622" xlink:href="#m8b84d93606" y="27.513663"/>
     <use style="fill:none;stroke:#ff7500;stroke-linejoin:bevel;stroke-width:1.5;" x="274.930622" xlink:href="#m8b84d93606" y="27.513663"/>
     <use style="fill:none;stroke:#ff7500;stroke-linejoin:bevel;stroke-width:1.5;" x="333.168" xlink:href="#m8b84d93606" y="27.513663"/>
    </g>
   </g>
   <g id="line2d_55">
    <path style="fill:none;stroke:#ff7500;stroke-linecap:square;stroke-width:1.5;"/>
    <g/>
   </g>
   <g id="line2d_56">
    <path clip-path="url(#pad64963861)" d="M 205.606852 202.088154 
" style="fill:none;stroke:#ff7500;stroke-linecap:square;stroke-width:1.5;"/>
    <defs>
     <path d="M -12 12 
L 12 -12 
M -12 -12 
L 12 12 
" id="m7ed32b1411" style="stroke:#ff7500;"/>
    </defs>
    <g clip-path="url(#pad64963861)">
     <use style="fill:#ff7500;stroke:#ff7500;" x="205.606852" xlink:href="#m7ed32b1411" y="202.088154"/>
    </g>
   </g>
   <g id="line2d_57">
    <defs>
     <path d="M 0 1.5 
C 0.397805 1.5 0.77937 1.341951 1.06066 1.06066 
C 1.341951 0.77937 1.5 0.397805 1.5 0 
C 1.5 -0.397805 1.341951 -0.77937 1.06066 -1.06066 
C 0.77937 -1.341951 0.397805 -1.5 0 -1.5 
C -0.397805 -1.5 -0.77937 -1.341951 -1.06066 -1.06066 
C -1.341951 -0.77937 -1.5 -0.397805 -1.5 0 
C -1.5 0.397805 -1.341951 0.77937 -1.06066 1.06066 
C -0.77937 1.341951 -0.397805 1.5 0 1.5 
z
" id="m50b6c401f8" style="stroke:#6495ed;"/>
    </defs>
    <g>
     <use style="fill:#6495ed;stroke:#6495ed;" x="195.630099" xlink:href="#m50b6c401f8" y="27.513663"/>
     <use style="fill:#6495ed;stroke:#6495ed;" x="195.630099" xlink:href="#m50b6c401f8" y="27.513663"/>
    </g>
   </g>
   <g id="line2d_58">
    <path d="M 44.205749 294.88 
L 44.205749 277.579825 
L 56.12 277.579825 
L 56.12 274.958587 
L 63.08939 274.958587 
L 63.08939 270.764605 
L 68.034251 270.764605 
L 68.034251 268.143366 
L 75.003641 268.143366 
L 75.003641 266.046375 
L 77.653281 266.046375 
L 77.653281 261.852394 
L 81.973032 261.852394 
L 81.973032 261.328146 
L 83.784035 261.328146 
L 83.784035 259.231155 
L 86.917893 259.231155 
L 86.917893 255.037173 
L 89.567532 255.037173 
L 89.567532 254.512926 
L 90.753425 254.512926 
L 90.753425 253.988678 
L 91.862754 253.988678 
L 91.862754 251.891687 
L 92.904808 251.891687 
L 92.904808 251.367439 
L 94.816624 251.367439 
L 94.816624 249.270448 
L 95.698286 249.270448 
L 95.698286 248.221953 
L 96.536922 248.221953 
L 96.536922 241.406733 
L 98.100602 241.406733 
L 98.100602 237.212751 
L 99.533818 237.212751 
L 99.533818 236.688503 
L 100.207968 236.688503 
L 100.207968 235.11576 
L 101.481783 235.11576 
L 101.481783 233.018769 
L 102.084955 233.018769 
L 102.084955 231.970274 
L 103.231288 231.970274 
L 103.231288 230.921778 
L 107.177358 230.921778 
L 107.177358 228.824787 
L 108.451173 228.824787 
L 108.451173 228.30054 
L 110.384516 228.30054 
L 110.384516 219.912576 
L 111.100812 219.912576 
L 111.100812 212.573108 
L 111.448069 212.573108 
L 111.448069 212.04886 
L 118.186736 212.04886 
L 118.186736 211.524613 
L 118.645127 211.524613 
L 118.645127 210.476117 
L 121.359263 210.476117 
L 121.359263 209.427622 
L 122.298767 209.427622 
L 122.298767 208.903374 
L 123.533353 208.903374 
L 123.533353 207.854879 
L 125.000572 207.854879 
L 125.000572 207.330631 
L 125.463074 207.330631 
L 125.463074 206.806383 
L 126.061 206.806383 
L 126.061 206.282136 
L 127.605507 206.282136 
L 127.605507 205.757888 
L 128.647561 205.757888 
L 128.647561 205.23364 
L 130.445921 205.23364 
L 130.445921 204.709392 
L 130.784069 204.709392 
L 130.784069 204.185145 
L 130.895323 204.185145 
L 130.895323 203.136649 
L 131.441039 203.136649 
L 131.441039 200.515411 
L 132.583907 200.515411 
L 132.583907 193.175943 
L 132.882847 193.175943 
L 132.882847 192.651695 
L 134.213018 192.651695 
L 134.213018 191.078952 
L 135.016789 191.078952 
L 135.016789 190.554704 
L 135.532486 190.554704 
L 135.532486 190.030456 
L 135.701004 190.030456 
L 135.784647 185.312227 
L 136.278134 185.312227 
L 136.278134 182.690988 
L 137.301101 182.690988 
L 137.301101 182.16674 
L 137.453213 182.16674 
L 137.453213 181.118245 
L 138.4819 181.118245 
L 138.4819 175.35152 
L 139.384945 175.35152 
L 139.452484 173.254529 
L 139.519758 173.254529 
L 139.519758 170.633291 
L 140.434959 170.633291 
L 140.434959 170.109043 
L 140.62489 170.109043 
L 140.62489 169.584795 
L 140.936852 169.584795 
L 140.936852 169.060547 
L 141.121347 169.060547 
L 141.121347 165.915061 
L 141.243253 165.915061 
L 141.243253 164.866566 
L 141.781376 164.866566 
L 141.781376 164.342318 
L 142.245962 164.342318 
L 142.245962 163.81807 
L 142.416994 163.81807 
L 142.416994 159.624089 
L 143.247524 159.624089 
L 143.247524 159.099841 
L 143.408921 159.099841 
L 143.408921 158.575593 
L 144.091308 158.575593 
L 144.091308 158.051345 
L 144.346715 158.051345 
L 144.346715 156.478602 
L 145.090928 156.478602 
L 145.187766 151.236125 
L 145.235981 151.236125 
L 145.235981 150.711877 
L 145.943432 150.711877 
L 146.035596 148.090639 
L 146.309161 148.090639 
L 146.39939 147.042143 
L 146.533852 147.042143 
L 146.57844 142.848162 
L 146.711514 142.848162 
L 146.711514 139.702675 
L 148.513678 139.702675 
L 148.55342 138.129932 
L 148.711478 138.129932 
L 148.711478 137.081437 
L 149.023298 137.081437 
L 149.023298 134.460198 
L 150.216915 134.460198 
L 150.216915 133.93595 
L 151.501022 133.93595 
L 151.501022 133.411703 
L 154.944195 133.411703 
L 154.944195 130.790464 
L 155.403306 130.790464 
L 155.403306 126.596482 
L 156.83439 126.596482 
L 156.83439 125.547987 
L 157.102017 125.547987 
L 157.198312 121.354005 
L 157.222302 121.354005 
L 157.222302 119.257014 
L 157.671858 119.257014 
L 157.671858 118.208519 
L 157.926853 118.208519 
L 157.926853 117.160023 
L 158.735879 117.160023 
L 158.80161 114.014537 
L 159.018915 114.014537 
L 159.018915 113.490289 
L 159.297366 113.490289 
L 159.403273 108.77206 
L 159.675615 108.77206 
L 159.779224 104.578078 
L 159.861664 104.578078 
L 159.861664 104.05383 
L 160.004989 104.05383 
L 160.025366 101.956839 
L 160.268033 101.956839 
L 160.288102 100.908344 
L 160.447811 100.908344 
L 160.447811 99.335601 
L 160.821278 99.335601 
L 160.821278 97.762858 
L 161.110494 97.762858 
L 161.110494 96.190115 
L 161.544716 96.190115 
L 161.544716 95.141619 
L 162.185133 95.141619 
L 162.238932 93.568876 
L 162.399325 93.568876 
L 162.399325 92.520381 
L 162.523048 92.520381 
L 162.523048 91.996133 
L 165.102097 91.996133 
L 165.102097 87.802151 
L 165.283032 87.802151 
L 165.283032 84.132417 
L 166.17444 84.132417 
L 166.17444 83.083922 
L 166.428881 83.083922 
L 166.428881 82.559674 
L 167.410577 82.559674 
L 167.410577 82.035426 
L 167.673606 82.035426 
L 167.673606 80.986931 
L 167.803626 80.986931 
L 167.86827 75.744454 
L 168.514106 75.744454 
L 168.514106 74.695958 
L 171.147759 74.695958 
L 171.147759 73.123215 
L 171.285821 73.123215 
L 171.328079 68.929233 
L 171.401782 68.929233 
L 171.401782 66.307995 
L 171.970139 66.307995 
L 171.970139 64.735251 
L 172.091685 64.735251 
L 172.091685 64.211004 
L 173.243227 64.211004 
L 173.252664 63.162508 
L 173.356125 63.162508 
L 173.356125 60.017022 
L 174.664735 60.017022 
L 174.742766 57.920031 
L 174.785965 57.920031 
L 174.785965 56.347288 
L 175.161501 56.347288 
L 175.203661 52.677554 
L 181.465293 52.677554 
L 181.465293 52.153306 
L 181.89857 52.153306 
L 181.89857 51.629058 
L 182.034944 51.629058 
L 182.034944 50.580563 
L 182.209506 50.580563 
L 182.209506 49.00782 
L 182.343444 49.00782 
L 182.343444 43.241095 
L 182.74997 43.241095 
L 182.831214 41.144104 
L 182.890551 41.144104 
L 182.901317 40.095609 
L 195.261775 40.095609 
L 195.371541 32.756141 
L 195.552939 32.756141 
L 195.630099 27.513663 
L 333.168 27.513663 
L 333.168 27.513663 
" style="fill:none;stroke:#6495ed;stroke-linecap:square;stroke-width:1.5;"/>
   </g>
   <g id="line2d_59">
    <defs>
     <path d="M -0 6 
L 6 -6 
L -6 -6 
z
" id="m4b2da72df6" style="stroke:#6495ed;stroke-linejoin:miter;stroke-width:1.5;"/>
    </defs>
    <g>
     <use style="fill:none;stroke:#6495ed;stroke-linejoin:miter;stroke-width:1.5;" x="111.100812" xlink:href="#m4b2da72df6" y="219.912576"/>
     <use style="fill:none;stroke:#6495ed;stroke-linejoin:miter;stroke-width:1.5;" x="151.501022" xlink:href="#m4b2da72df6" y="133.411703"/>
     <use style="fill:none;stroke:#6495ed;stroke-linejoin:miter;stroke-width:1.5;" x="195.630099" xlink:href="#m4b2da72df6" y="28.037911"/>
     <use style="fill:none;stroke:#6495ed;stroke-linejoin:miter;stroke-width:1.5;" x="195.630099" xlink:href="#m4b2da72df6" y="27.513663"/>
     <use style="fill:none;stroke:#6495ed;stroke-linejoin:miter;stroke-width:1.5;" x="195.630099" xlink:href="#m4b2da72df6" y="27.513663"/>
     <use style="fill:none;stroke:#6495ed;stroke-linejoin:miter;stroke-width:1.5;" x="333.168" xlink:href="#m4b2da72df6" y="27.513663"/>
    </g>
   </g>
   <g id="line2d_60">
    <path style="fill:none;stroke:#6495ed;stroke-linecap:square;stroke-width:1.5;"/>
    <g/>
   </g>
   <g id="line2d_61">
    <path d="M 333.168 111.393298 
L 363.64328 289.532673 
" style="fill:none;stroke:#000080;stroke-linecap:square;stroke-width:1.5;"/>
    <g>
     <use style="fill:none;stroke:#000080;stroke-width:1.5;" x="333.168" xlink:href="#mc7c387f738" y="111.393298"/>
     <use style="fill:none;stroke:#000080;stroke-width:1.5;" x="363.64328" xlink:href="#mc7c387f738" y="289.532673"/>
    </g>
   </g>
   <g id="line2d_62">
    <path d="M 333.168 27.513663 
L 363.64328 225.364752 
" style="fill:none;stroke:#ff7500;stroke-linecap:square;stroke-width:1.5;"/>
    <g>
     <use style="fill:none;stroke:#ff7500;stroke-linejoin:bevel;stroke-width:1.5;" x="333.168" xlink:href="#m8b84d93606" y="27.513663"/>
     <use style="fill:none;stroke:#ff7500;stroke-linejoin:bevel;stroke-width:1.5;" x="363.64328" xlink:href="#m8b84d93606" y="225.364752"/>
    </g>
   </g>
   <g id="line2d_63">
    <path d="M 333.168 27.513663 
L 363.64328 161.196832 
" style="fill:none;stroke:#ff00ff;stroke-linecap:square;stroke-width:1.5;"/>
    <g>
     <use style="fill:none;stroke:#ff00ff;stroke-linejoin:miter;stroke-width:1.5;" x="333.168" xlink:href="#ma2cb59e061" y="27.513663"/>
     <use style="fill:none;stroke:#ff00ff;stroke-linejoin:miter;stroke-width:1.5;" x="363.64328" xlink:href="#ma2cb59e061" y="161.196832"/>
    </g>
   </g>
   <g id="line2d_64">
    <path d="M 333.168 27.513663 
L 363.64328 97.028911 
" style="fill:none;stroke:#6495ed;stroke-linecap:square;stroke-width:1.5;"/>
    <g>
     <use style="fill:none;stroke:#6495ed;stroke-linejoin:miter;stroke-width:1.5;" x="333.168" xlink:href="#m4b2da72df6" y="27.513663"/>
     <use style="fill:none;stroke:#6495ed;stroke-linejoin:miter;stroke-width:1.5;" x="363.64328" xlink:href="#m4b2da72df6" y="97.028911"/>
    </g>
   </g>
   <g id="line2d_65">
    <path d="M 333.168 294.88 
L 333.168 27.513663 
" style="fill:none;stroke:#000000;stroke-linecap:square;stroke-width:1.5;"/>
   </g>
   <g id="patch_3">
    <path d="M 56.12 294.88 
L 56.12 24.84 
" style="fill:none;stroke:#000000;stroke-linecap:square;stroke-linejoin:miter;stroke-width:0.8;"/>
   </g>
   <g id="patch_4">
    <path d="M 333.168 294.88 
L 333.168 24.84 
" style="fill:none;stroke:#000000;stroke-linecap:square;stroke-linejoin:miter;stroke-width:0.8;"/>
   </g>
   <g id="patch_5">
    <path d="M 56.12 294.88 
L 333.168 294.88 
" style="fill:none;stroke:#000000;stroke-linecap:square;stroke-linejoin:miter;stroke-width:0.8;"/>
   </g>
   <g id="patch_6">
    <path d="M 56.12 24.84 
L 333.168 24.84 
" style="fill:none;stroke:#000000;stroke-linecap:square;stroke-linejoin:miter;stroke-width:0.8;"/>
   </g>
   <g id="text_13">
    <!-- CMA ES PPM -->
    <defs>
     <path d="M 64.40625 67.28125 
L 64.40625 56.890625 
Q 59.421875 61.53125 53.78125 63.8125 
Q 48.140625 66.109375 41.796875 66.109375 
Q 29.296875 66.109375 22.65625 58.46875 
Q 16.015625 50.828125 16.015625 36.375 
Q 16.015625 21.96875 22.65625 14.328125 
Q 29.296875 6.6875 41.796875 6.6875 
Q 48.140625 6.6875 53.78125 8.984375 
Q 59.421875 11.28125 64.40625 15.921875 
L 64.40625 5.609375 
Q 59.234375 2.09375 53.4375 0.328125 
Q 47.65625 -1.421875 41.21875 -1.421875 
Q 24.65625 -1.421875 15.125 8.703125 
Q 5.609375 18.84375 5.609375 36.375 
Q 5.609375 53.953125 15.125 64.078125 
Q 24.65625 74.21875 41.21875 74.21875 
Q 47.75 74.21875 53.53125 72.484375 
Q 59.328125 70.75 64.40625 67.28125 
z
" id="DejaVuSans-43"/>
     <path d="M 9.8125 72.90625 
L 24.515625 72.90625 
L 43.109375 23.296875 
L 61.8125 72.90625 
L 76.515625 72.90625 
L 76.515625 0 
L 66.890625 0 
L 66.890625 64.015625 
L 48.09375 14.015625 
L 38.1875 14.015625 
L 19.390625 64.015625 
L 19.390625 0 
L 9.8125 0 
z
" id="DejaVuSans-4d"/>
     <path d="M 34.1875 63.1875 
L 20.796875 26.90625 
L 47.609375 26.90625 
z
M 28.609375 72.90625 
L 39.796875 72.90625 
L 67.578125 0 
L 57.328125 0 
L 50.6875 18.703125 
L 17.828125 18.703125 
L 11.1875 0 
L 0.78125 0 
z
" id="DejaVuSans-41"/>
     <path d="M 9.8125 72.90625 
L 55.90625 72.90625 
L 55.90625 64.59375 
L 19.671875 64.59375 
L 19.671875 43.015625 
L 54.390625 43.015625 
L 54.390625 34.71875 
L 19.671875 34.71875 
L 19.671875 8.296875 
L 56.78125 8.296875 
L 56.78125 0 
L 9.8125 0 
z
" id="DejaVuSans-45"/>
     <path d="M 53.515625 70.515625 
L 53.515625 60.890625 
Q 47.90625 63.578125 42.921875 64.890625 
Q 37.9375 66.21875 33.296875 66.21875 
Q 25.25 66.21875 20.875 63.09375 
Q 16.5 59.96875 16.5 54.203125 
Q 16.5 49.359375 19.40625 46.890625 
Q 22.3125 44.4375 30.421875 42.921875 
L 36.375 41.703125 
Q 47.40625 39.59375 52.65625 34.296875 
Q 57.90625 29 57.90625 20.125 
Q 57.90625 9.515625 50.796875 4.046875 
Q 43.703125 -1.421875 29.984375 -1.421875 
Q 24.8125 -1.421875 18.96875 -0.25 
Q 13.140625 0.921875 6.890625 3.21875 
L 6.890625 13.375 
Q 12.890625 10.015625 18.65625 8.296875 
Q 24.421875 6.59375 29.984375 6.59375 
Q 38.421875 6.59375 43.015625 9.90625 
Q 47.609375 13.234375 47.609375 19.390625 
Q 47.609375 24.75 44.3125 27.78125 
Q 41.015625 30.8125 33.5 32.328125 
L 27.484375 33.5 
Q 16.453125 35.6875 11.515625 40.375 
Q 6.59375 45.0625 6.59375 53.421875 
Q 6.59375 63.09375 13.40625 68.65625 
Q 20.21875 74.21875 32.171875 74.21875 
Q 37.3125 74.21875 42.625 73.28125 
Q 47.953125 72.359375 53.515625 70.515625 
z
" id="DejaVuSans-53"/>
     <path d="M 19.671875 64.796875 
L 19.671875 37.40625 
L 32.078125 37.40625 
Q 38.96875 37.40625 42.71875 40.96875 
Q 46.484375 44.53125 46.484375 51.125 
Q 46.484375 57.671875 42.71875 61.234375 
Q 38.96875 64.796875 32.078125 64.796875 
z
M 9.8125 72.90625 
L 32.078125 72.90625 
Q 44.34375 72.90625 50.609375 67.359375 
Q 56.890625 61.8125 56.890625 51.125 
Q 56.890625 40.328125 50.609375 34.8125 
Q 44.34375 29.296875 32.078125 29.296875 
L 19.671875 29.296875 
L 19.671875 0 
L 9.8125 0 
z
" id="DejaVuSans-50"/>
    </defs>
    <g transform="translate(369.18424 294.223611)scale(0.17 -0.17)">
     <use xlink:href="#DejaVuSans-43"/>
     <use x="69.824219" xlink:href="#DejaVuSans-4d"/>
     <use x="156.103516" xlink:href="#DejaVuSans-41"/>
     <use x="224.511719" xlink:href="#DejaVuSans-20"/>
     <use x="256.298828" xlink:href="#DejaVuSans-45"/>
     <use x="319.482422" xlink:href="#DejaVuSans-53"/>
     <use x="382.958984" xlink:href="#DejaVuSans-20"/>
     <use x="414.746094" xlink:href="#DejaVuSans-50"/>
     <use x="475.048828" xlink:href="#DejaVuSans-50"/>
     <use x="535.351562" xlink:href="#DejaVuSans-4d"/>
    </g>
   </g>
   <g id="text_14">
    <!-- ppmf-new -->
    <defs>
     <path d="M 4.203125 54.6875 
L 13.1875 54.6875 
L 24.421875 12.015625 
L 35.59375 54.6875 
L 46.1875 54.6875 
L 57.421875 12.015625 
L 68.609375 54.6875 
L 77.59375 54.6875 
L 63.28125 0 
L 52.6875 0 
L 40.921875 44.828125 
L 29.109375 0 
L 18.5 0 
z
" id="DejaVuSans-77"/>
    </defs>
    <g transform="translate(369.18424 230.05569)scale(0.17 -0.17)">
     <use xlink:href="#DejaVuSans-70"/>
     <use x="63.476562" xlink:href="#DejaVuSans-70"/>
     <use x="126.953125" xlink:href="#DejaVuSans-6d"/>
     <use x="224.365234" xlink:href="#DejaVuSans-66"/>
     <use x="259.492188" xlink:href="#DejaVuSans-2d"/>
     <use x="295.576172" xlink:href="#DejaVuSans-6e"/>
     <use x="358.955078" xlink:href="#DejaVuSans-65"/>
     <use x="420.478516" xlink:href="#DejaVuSans-77"/>
    </g>
   </g>
   <g id="text_15">
    <!-- CMA ES CSA -->
    <g transform="translate(369.18424 165.887769)scale(0.17 -0.17)">
     <use xlink:href="#DejaVuSans-43"/>
     <use x="69.824219" xlink:href="#DejaVuSans-4d"/>
     <use x="156.103516" xlink:href="#DejaVuSans-41"/>
     <use x="224.511719" xlink:href="#DejaVuSans-20"/>
     <use x="256.298828" xlink:href="#DejaVuSans-45"/>
     <use x="319.482422" xlink:href="#DejaVuSans-53"/>
     <use x="382.958984" xlink:href="#DejaVuSans-20"/>
     <use x="414.746094" xlink:href="#DejaVuSans-43"/>
     <use x="484.570312" xlink:href="#DejaVuSans-53"/>
     <use x="548.0625" xlink:href="#DejaVuSans-41"/>
    </g>
   </g>
   <g id="text_16">
    <!-- CMAES posi -->
    <g transform="translate(369.18424 101.719848)scale(0.17 -0.17)">
     <use xlink:href="#DejaVuSans-43"/>
     <use x="69.824219" xlink:href="#DejaVuSans-4d"/>
     <use x="156.103516" xlink:href="#DejaVuSans-41"/>
     <use x="224.511719" xlink:href="#DejaVuSans-45"/>
     <use x="287.695312" xlink:href="#DejaVuSans-53"/>
     <use x="351.171875" xlink:href="#DejaVuSans-20"/>
     <use x="382.958984" xlink:href="#DejaVuSans-70"/>
     <use x="446.435547" xlink:href="#DejaVuSans-6f"/>
     <use x="507.617188" xlink:href="#DejaVuSans-73"/>
     <use x="559.716797" xlink:href="#DejaVuSans-69"/>
    </g>
   </g>
   <g id="text_17">
    <!-- best 2009 -->
    <defs>
     <path d="M 48.6875 27.296875 
Q 48.6875 37.203125 44.609375 42.84375 
Q 40.53125 48.484375 33.40625 48.484375 
Q 26.265625 48.484375 22.1875 42.84375 
Q 18.109375 37.203125 18.109375 27.296875 
Q 18.109375 17.390625 22.1875 11.75 
Q 26.265625 6.109375 33.40625 6.109375 
Q 40.53125 6.109375 44.609375 11.75 
Q 48.6875 17.390625 48.6875 27.296875 
z
M 18.109375 46.390625 
Q 20.953125 51.265625 25.265625 53.625 
Q 29.59375 56 35.59375 56 
Q 45.5625 56 51.78125 48.09375 
Q 58.015625 40.1875 58.015625 27.296875 
Q 58.015625 14.40625 51.78125 6.484375 
Q 45.5625 -1.421875 35.59375 -1.421875 
Q 29.59375 -1.421875 25.265625 0.953125 
Q 20.953125 3.328125 18.109375 8.203125 
L 18.109375 0 
L 9.078125 0 
L 9.078125 75.984375 
L 18.109375 75.984375 
z
" id="DejaVuSans-62"/>
     <path d="M 10.984375 1.515625 
L 10.984375 10.5 
Q 14.703125 8.734375 18.5 7.8125 
Q 22.3125 6.890625 25.984375 6.890625 
Q 35.75 6.890625 40.890625 13.453125 
Q 46.046875 20.015625 46.78125 33.40625 
Q 43.953125 29.203125 39.59375 26.953125 
Q 35.25 24.703125 29.984375 24.703125 
Q 19.046875 24.703125 12.671875 31.3125 
Q 6.296875 37.9375 6.296875 49.421875 
Q 6.296875 60.640625 12.9375 67.421875 
Q 19.578125 74.21875 30.609375 74.21875 
Q 43.265625 74.21875 49.921875 64.515625 
Q 56.59375 54.828125 56.59375 36.375 
Q 56.59375 19.140625 48.40625 8.859375 
Q 40.234375 -1.421875 26.421875 -1.421875 
Q 22.703125 -1.421875 18.890625 -0.6875 
Q 15.09375 0.046875 10.984375 1.515625 
z
M 30.609375 32.421875 
Q 37.25 32.421875 41.125 36.953125 
Q 45.015625 41.5 45.015625 49.421875 
Q 45.015625 57.28125 41.125 61.84375 
Q 37.25 66.40625 30.609375 66.40625 
Q 23.96875 66.40625 20.09375 61.84375 
Q 16.21875 57.28125 16.21875 49.421875 
Q 16.21875 41.5 20.09375 36.953125 
Q 23.96875 32.421875 30.609375 32.421875 
z
" id="DejaVuSans-39"/>
    </defs>
    <g transform="translate(369.18424 37.551928)scale(0.17 -0.17)">
     <use xlink:href="#DejaVuSans-62"/>
     <use x="63.476562" xlink:href="#DejaVuSans-65"/>
     <use x="125" xlink:href="#DejaVuSans-73"/>
     <use x="177.099609" xlink:href="#DejaVuSans-74"/>
     <use x="216.308594" xlink:href="#DejaVuSans-20"/>
     <use x="248.095703" xlink:href="#DejaVuSans-32"/>
     <use x="311.71875" xlink:href="#DejaVuSans-30"/>
     <use x="375.341797" xlink:href="#DejaVuSans-30"/>
     <use x="438.964844" xlink:href="#DejaVuSans-39"/>
    </g>
   </g>
   <g id="text_18">
    <!-- bbob f22, 2-D -->
    <defs>
     <path d="M 19.671875 64.796875 
L 19.671875 8.109375 
L 31.59375 8.109375 
Q 46.6875 8.109375 53.6875 14.9375 
Q 60.6875 21.78125 60.6875 36.53125 
Q 60.6875 51.171875 53.6875 57.984375 
Q 46.6875 64.796875 31.59375 64.796875 
z
M 9.8125 72.90625 
L 30.078125 72.90625 
Q 51.265625 72.90625 61.171875 64.09375 
Q 71.09375 55.28125 71.09375 36.53125 
Q 71.09375 17.671875 61.125 8.828125 
Q 51.171875 0 30.078125 0 
L 9.8125 0 
z
" id="DejaVuSans-44"/>
    </defs>
    <g transform="translate(58.89048 35.290806)scale(0.102 -0.102)">
     <use xlink:href="#DejaVuSans-62"/>
     <use x="63.476562" xlink:href="#DejaVuSans-62"/>
     <use x="126.953125" xlink:href="#DejaVuSans-6f"/>
     <use x="188.134766" xlink:href="#DejaVuSans-62"/>
     <use x="251.611328" xlink:href="#DejaVuSans-20"/>
     <use x="283.398438" xlink:href="#DejaVuSans-66"/>
     <use x="318.603516" xlink:href="#DejaVuSans-32"/>
     <use x="382.226562" xlink:href="#DejaVuSans-32"/>
     <use x="445.849609" xlink:href="#DejaVuSans-2c"/>
     <use x="477.636719" xlink:href="#DejaVuSans-20"/>
     <use x="509.423828" xlink:href="#DejaVuSans-32"/>
     <use x="573.046875" xlink:href="#DejaVuSans-2d"/>
     <use x="609.130859" xlink:href="#DejaVuSans-44"/>
    </g>
    <!-- 51 targets: 100..1e-08 -->
    <defs>
     <path d="M 10.796875 72.90625 
L 49.515625 72.90625 
L 49.515625 64.59375 
L 19.828125 64.59375 
L 19.828125 46.734375 
Q 21.96875 47.46875 24.109375 47.828125 
Q 26.265625 48.1875 28.421875 48.1875 
Q 40.625 48.1875 47.75 41.5 
Q 54.890625 34.8125 54.890625 23.390625 
Q 54.890625 11.625 47.5625 5.09375 
Q 40.234375 -1.421875 26.90625 -1.421875 
Q 22.3125 -1.421875 17.546875 -0.640625 
Q 12.796875 0.140625 7.71875 1.703125 
L 7.71875 11.625 
Q 12.109375 9.234375 16.796875 8.0625 
Q 21.484375 6.890625 26.703125 6.890625 
Q 35.15625 6.890625 40.078125 11.328125 
Q 45.015625 15.765625 45.015625 23.390625 
Q 45.015625 31 40.078125 35.4375 
Q 35.15625 39.890625 26.703125 39.890625 
Q 22.75 39.890625 18.8125 39.015625 
Q 14.890625 38.140625 10.796875 36.28125 
z
" id="DejaVuSans-35"/>
     <path d="M 11.71875 12.40625 
L 22.015625 12.40625 
L 22.015625 0 
L 11.71875 0 
z
M 11.71875 51.703125 
L 22.015625 51.703125 
L 22.015625 39.3125 
L 11.71875 39.3125 
z
" id="DejaVuSans-3a"/>
    </defs>
    <g transform="translate(58.89048 46.712575)scale(0.102 -0.102)">
     <use xlink:href="#DejaVuSans-35"/>
     <use x="63.623047" xlink:href="#DejaVuSans-31"/>
     <use x="127.246094" xlink:href="#DejaVuSans-20"/>
     <use x="159.033203" xlink:href="#DejaVuSans-74"/>
     <use x="198.242188" xlink:href="#DejaVuSans-61"/>
     <use x="259.521484" xlink:href="#DejaVuSans-72"/>
     <use x="300.619141" xlink:href="#DejaVuSans-67"/>
     <use x="364.095703" xlink:href="#DejaVuSans-65"/>
     <use x="425.619141" xlink:href="#DejaVuSans-74"/>
     <use x="464.828125" xlink:href="#DejaVuSans-73"/>
     <use x="516.927734" xlink:href="#DejaVuSans-3a"/>
     <use x="550.619141" xlink:href="#DejaVuSans-20"/>
     <use x="582.40625" xlink:href="#DejaVuSans-31"/>
     <use x="646.029297" xlink:href="#DejaVuSans-30"/>
     <use x="709.652344" xlink:href="#DejaVuSans-30"/>
     <use x="773.275391" xlink:href="#DejaVuSans-2e"/>
     <use x="805.0625" xlink:href="#DejaVuSans-2e"/>
     <use x="836.849609" xlink:href="#DejaVuSans-31"/>
     <use x="900.472656" xlink:href="#DejaVuSans-65"/>
     <use x="961.996094" xlink:href="#DejaVuSans-2d"/>
     <use x="998.080078" xlink:href="#DejaVuSans-30"/>
     <use x="1061.703125" xlink:href="#DejaVuSans-38"/>
    </g>
    <!-- 15 instances -->
    <g transform="translate(58.89048 58.134344)scale(0.102 -0.102)">
     <use xlink:href="#DejaVuSans-31"/>
     <use x="63.623047" xlink:href="#DejaVuSans-35"/>
     <use x="127.246094" xlink:href="#DejaVuSans-20"/>
     <use x="159.033203" xlink:href="#DejaVuSans-69"/>
     <use x="186.816406" xlink:href="#DejaVuSans-6e"/>
     <use x="250.195312" xlink:href="#DejaVuSans-73"/>
     <use x="302.294922" xlink:href="#DejaVuSans-74"/>
     <use x="341.503906" xlink:href="#DejaVuSans-61"/>
     <use x="402.783203" xlink:href="#DejaVuSans-6e"/>
     <use x="466.162109" xlink:href="#DejaVuSans-63"/>
     <use x="521.142578" xlink:href="#DejaVuSans-65"/>
     <use x="582.666016" xlink:href="#DejaVuSans-73"/>
    </g>
   </g>
   <g id="text_19">
    <!-- v0.0.0 -->
    <g style="fill:#808080;" transform="translate(178.96275 290.099912)scale(0.1 -0.1)">
     <use xlink:href="#DejaVuSans-76"/>
     <use x="59.179688" xlink:href="#DejaVuSans-30"/>
     <use x="122.802734" xlink:href="#DejaVuSans-2e"/>
     <use x="154.589844" xlink:href="#DejaVuSans-30"/>
     <use x="218.212891" xlink:href="#DejaVuSans-2e"/>
     <use x="250" xlink:href="#DejaVuSans-30"/>
    </g>
   </g>
   <g id="text_20">
    <!-- 22 Gallagher 21 peaks -->
    <defs>
     <path d="M 59.515625 10.40625 
L 59.515625 29.984375 
L 43.40625 29.984375 
L 43.40625 38.09375 
L 69.28125 38.09375 
L 69.28125 6.78125 
Q 63.578125 2.734375 56.6875 0.65625 
Q 49.8125 -1.421875 42 -1.421875 
Q 24.90625 -1.421875 15.25 8.5625 
Q 5.609375 18.5625 5.609375 36.375 
Q 5.609375 54.25 15.25 64.234375 
Q 24.90625 74.21875 42 74.21875 
Q 49.125 74.21875 55.546875 72.453125 
Q 61.96875 70.703125 67.390625 67.28125 
L 67.390625 56.78125 
Q 61.921875 61.421875 55.765625 63.765625 
Q 49.609375 66.109375 42.828125 66.109375 
Q 29.4375 66.109375 22.71875 58.640625 
Q 16.015625 51.171875 16.015625 36.375 
Q 16.015625 21.625 22.71875 14.15625 
Q 29.4375 6.6875 42.828125 6.6875 
Q 48.046875 6.6875 52.140625 7.59375 
Q 56.25 8.5 59.515625 10.40625 
z
" id="DejaVuSans-47"/>
     <path d="M 54.890625 33.015625 
L 54.890625 0 
L 45.90625 0 
L 45.90625 32.71875 
Q 45.90625 40.484375 42.875 44.328125 
Q 39.84375 48.1875 33.796875 48.1875 
Q 26.515625 48.1875 22.3125 43.546875 
Q 18.109375 38.921875 18.109375 30.90625 
L 18.109375 0 
L 9.078125 0 
L 9.078125 75.984375 
L 18.109375 75.984375 
L 18.109375 46.1875 
Q 21.34375 51.125 25.703125 53.5625 
Q 30.078125 56 35.796875 56 
Q 45.21875 56 50.046875 50.171875 
Q 54.890625 44.34375 54.890625 33.015625 
z
" id="DejaVuSans-68"/>
     <path d="M 9.078125 75.984375 
L 18.109375 75.984375 
L 18.109375 31.109375 
L 44.921875 54.6875 
L 56.390625 54.6875 
L 27.390625 29.109375 
L 57.625 0 
L 45.90625 0 
L 18.109375 26.703125 
L 18.109375 0 
L 9.078125 0 
z
" id="DejaVuSans-6b"/>
    </defs>
    <g transform="translate(81.519 18.84)scale(0.2 -0.2)">
     <use xlink:href="#DejaVuSans-32"/>
     <use x="63.623047" xlink:href="#DejaVuSans-32"/>
     <use x="127.246094" xlink:href="#DejaVuSans-20"/>
     <use x="159.033203" xlink:href="#DejaVuSans-47"/>
     <use x="236.523438" xlink:href="#DejaVuSans-61"/>
     <use x="297.802734" xlink:href="#DejaVuSans-6c"/>
     <use x="325.585938" xlink:href="#DejaVuSans-6c"/>
     <use x="353.369141" xlink:href="#DejaVuSans-61"/>
     <use x="414.648438" xlink:href="#DejaVuSans-67"/>
     <use x="478.125" xlink:href="#DejaVuSans-68"/>
     <use x="541.503906" xlink:href="#DejaVuSans-65"/>
     <use x="603.027344" xlink:href="#DejaVuSans-72"/>
     <use x="644.140625" xlink:href="#DejaVuSans-20"/>
     <use x="675.927734" xlink:href="#DejaVuSans-32"/>
     <use x="739.550781" xlink:href="#DejaVuSans-31"/>
     <use x="803.173828" xlink:href="#DejaVuSans-20"/>
     <use x="834.960938" xlink:href="#DejaVuSans-70"/>
     <use x="898.4375" xlink:href="#DejaVuSans-65"/>
     <use x="959.960938" xlink:href="#DejaVuSans-61"/>
     <use x="1021.240234" xlink:href="#DejaVuSans-6b"/>
     <use x="1079.150391" xlink:href="#DejaVuSans-73"/>
    </g>
   </g>
  </g>
 </g>
 <defs>
  <clipPath id="pad64963861">
   <rect height="270.04" width="277.048" x="56.12" y="24.84"/>
  </clipPath>
 </defs>
</svg>
