<?xml version="1.0" encoding="utf-8" standalone="no"?>
<!DOCTYPE svg PUBLIC "-//W3C//DTD SVG 1.1//EN"
  "http://www.w3.org/Graphics/SVG/1.1/DTD/svg11.dtd">
<!-- Created with matplotlib (http://matplotlib.org/) -->
<svg height="345pt" version="1.1" viewBox="0 0 460 345" width="460pt" xmlns="http://www.w3.org/2000/svg" xmlns:xlink="http://www.w3.org/1999/xlink">
 <defs>
  <style type="text/css">
*{stroke-linecap:butt;stroke-linejoin:round;}
  </style>
 </defs>
 <g id="figure_1">
  <g id="patch_1">
   <path d="M 0 345.6 
L 460.8 345.6 
L 460.8 0 
L 0 0 
z
" style="fill:#ffffff;"/>
  </g>
  <g id="axes_1">
   <g id="patch_2">
    <path d="M 56.12 294.88 
L 333.168 294.88 
L 333.168 24.84 
L 56.12 24.84 
z
" style="fill:#ffffff;"/>
   </g>
   <g id="line2d_1">
    <path d="M 114.908258 294.88 
L 114.908258 289.637523 
L 115.556442 289.637523 
L 115.556442 284.395046 
L 127.052858 284.395046 
L 127.052858 279.152568 
L 128.792295 279.152568 
L 128.792295 273.910091 
L 132.598978 273.910091 
L 132.598978 268.667614 
L 135.987869 268.667614 
L 135.987869 263.425137 
L 139.438997 263.425137 
L 139.438997 258.18266 
L 140.769096 258.18266 
L 140.769096 252.940182 
L 142.870458 252.940182 
L 142.870458 247.697705 
L 144.470493 247.697705 
L 144.470493 242.455228 
L 145.971133 242.455228 
L 145.971133 237.212751 
L 147.263719 237.212751 
L 147.263719 231.970274 
L 148.051953 231.970274 
L 148.051953 226.727797 
L 148.668156 226.727797 
L 148.668156 221.485319 
L 149.207711 221.485319 
L 149.207711 216.242842 
L 149.544494 216.242842 
L 149.544494 211.000365 
L 150.417534 211.000365 
L 150.417534 205.757888 
L 151.250064 205.757888 
L 151.250064 200.515411 
L 151.62597 200.515411 
L 151.62597 195.272933 
L 151.971069 195.272933 
L 151.971069 190.030456 
L 152.271047 190.030456 
L 152.271047 184.787979 
L 152.54701 184.787979 
L 152.54701 179.545502 
L 152.90666 179.545502 
L 152.90666 174.303025 
L 154.101384 174.303025 
L 154.101384 169.060547 
L 154.366664 169.060547 
L 154.366664 163.81807 
L 155.728003 163.81807 
L 155.728003 158.575593 
L 162.387791 158.575593 
L 162.387791 153.333116 
L 162.768723 153.333116 
L 162.768723 148.090639 
L 163.138847 148.090639 
L 163.138847 142.848162 
L 163.491183 142.848162 
L 163.491183 137.605684 
L 163.817669 137.605684 
L 163.817669 132.363207 
L 164.126041 132.363207 
L 164.126041 127.12073 
L 164.398212 127.12073 
L 164.398212 121.878253 
L 164.670805 121.878253 
L 164.670805 116.635776 
L 164.913109 116.635776 
L 164.913109 111.393298 
L 165.16111 111.393298 
L 165.16111 106.150821 
L 165.357863 106.150821 
L 165.357863 100.908344 
L 165.553127 100.908344 
L 165.553127 95.665867 
L 165.760791 95.665867 
L 165.760791 90.42339 
L 165.963815 90.42339 
L 165.963815 85.180912 
L 166.154491 85.180912 
L 166.154491 79.938435 
L 166.317673 79.938435 
L 166.317673 74.695958 
L 166.474423 74.695958 
L 166.474423 69.453481 
L 166.622821 69.453481 
L 166.622821 64.211004 
L 166.779576 64.211004 
L 166.779576 58.968526 
L 166.907643 58.968526 
L 166.907643 53.726049 
L 167.031376 53.726049 
L 167.031376 48.483572 
L 167.152879 48.483572 
L 167.152879 43.241095 
L 167.285548 43.241095 
L 167.285548 37.998618 
L 167.456898 37.998618 
L 167.456898 32.756141 
L 168.080521 32.756141 
L 168.080521 27.513663 
L 333.168 27.513663 
" style="fill:none;stroke:#f5deb3;stroke-linecap:square;stroke-width:4;"/>
   </g>
   <g id="line2d_2">
    <defs>
     <path d="M -0 7.778175 
L 7.778175 0 
L 0 -7.778175 
L -7.778175 -0 
z
" id="m2c2c8dfd8b" style="stroke:#f5deb3;stroke-linejoin:miter;stroke-width:1.5;"/>
    </defs>
    <g>
     <use style="fill:#f5deb3;stroke:#f5deb3;stroke-linejoin:miter;stroke-width:1.5;" x="164.398212" xlink:href="#m2c2c8dfd8b" y="127.12073"/>
     <use style="fill:#f5deb3;stroke:#f5deb3;stroke-linejoin:miter;stroke-width:1.5;" x="168.080521" xlink:href="#m2c2c8dfd8b" y="32.756141"/>
     <use style="fill:#f5deb3;stroke:#f5deb3;stroke-linejoin:miter;stroke-width:1.5;" x="168.080521" xlink:href="#m2c2c8dfd8b" y="27.513663"/>
     <use style="fill:#f5deb3;stroke:#f5deb3;stroke-linejoin:miter;stroke-width:1.5;" x="168.080521" xlink:href="#m2c2c8dfd8b" y="27.513663"/>
     <use style="fill:#f5deb3;stroke:#f5deb3;stroke-linejoin:miter;stroke-width:1.5;" x="333.168" xlink:href="#m2c2c8dfd8b" y="27.513663"/>
    </g>
   </g>
   <g id="line2d_3">
    <path style="fill:none;stroke:#f5deb3;stroke-linecap:square;stroke-width:4;"/>
    <g/>
   </g>
   <g id="line2d_4">
    <path d="M 333.168 27.513663 
L 363.64328 32.86099 
" style="fill:none;stroke:#f5deb3;stroke-linecap:square;stroke-width:4;"/>
    <g>
     <use style="fill:#f5deb3;stroke:#f5deb3;stroke-linejoin:miter;stroke-width:1.5;" x="333.168" xlink:href="#m2c2c8dfd8b" y="27.513663"/>
     <use style="fill:#f5deb3;stroke:#f5deb3;stroke-linejoin:miter;stroke-width:1.5;" x="363.64328" xlink:href="#m2c2c8dfd8b" y="32.86099"/>
    </g>
   </g>
   <g id="matplotlib.axis_1">
    <g id="xtick_1">
     <g id="line2d_5">
      <path clip-path="url(#p2299d8d1ed)" d="M 56.12 294.88 
L 56.12 24.84 
" style="fill:none;stroke:#b0b0b0;stroke-linecap:square;stroke-width:0.8;"/>
     </g>
     <g id="line2d_6">
      <defs>
       <path d="M 0 0 
L 0 3.5 
" id="m4728649d51" style="stroke:#000000;stroke-width:0.8;"/>
      </defs>
      <g>
       <use style="stroke:#000000;stroke-width:0.8;" x="56.12" xlink:href="#m4728649d51" y="294.88"/>
      </g>
     </g>
     <g id="text_1">
      <!-- 0 -->
      <defs>
       <path d="M 31.78125 66.40625 
Q 24.171875 66.40625 20.328125 58.90625 
Q 16.5 51.421875 16.5 36.375 
Q 16.5 21.390625 20.328125 13.890625 
Q 24.171875 6.390625 31.78125 6.390625 
Q 39.453125 6.390625 43.28125 13.890625 
Q 47.125 21.390625 47.125 36.375 
Q 47.125 51.421875 43.28125 58.90625 
Q 39.453125 66.40625 31.78125 66.40625 
z
M 31.78125 74.21875 
Q 44.046875 74.21875 50.515625 64.515625 
Q 56.984375 54.828125 56.984375 36.375 
Q 56.984375 17.96875 50.515625 8.265625 
Q 44.046875 -1.421875 31.78125 -1.421875 
Q 19.53125 -1.421875 13.0625 8.265625 
Q 6.59375 17.96875 6.59375 36.375 
Q 6.59375 54.828125 13.0625 64.515625 
Q 19.53125 74.21875 31.78125 74.21875 
z
" id="DejaVuSans-30"/>
      </defs>
      <g transform="translate(49.7575 317.076875)scale(0.2 -0.2)">
       <use xlink:href="#DejaVuSans-30"/>
      </g>
     </g>
    </g>
    <g id="xtick_2">
     <g id="line2d_7">
      <path clip-path="url(#p2299d8d1ed)" d="M 135.276571 294.88 
L 135.276571 24.84 
" style="fill:none;stroke:#b0b0b0;stroke-linecap:square;stroke-width:0.8;"/>
     </g>
     <g id="line2d_8">
      <g>
       <use style="stroke:#000000;stroke-width:0.8;" x="135.276571" xlink:href="#m4728649d51" y="294.88"/>
      </g>
     </g>
     <g id="text_2">
      <!-- 2 -->
      <defs>
       <path d="M 19.1875 8.296875 
L 53.609375 8.296875 
L 53.609375 0 
L 7.328125 0 
L 7.328125 8.296875 
Q 12.9375 14.109375 22.625 23.890625 
Q 32.328125 33.6875 34.8125 36.53125 
Q 39.546875 41.84375 41.421875 45.53125 
Q 43.3125 49.21875 43.3125 52.78125 
Q 43.3125 58.59375 39.234375 62.25 
Q 35.15625 65.921875 28.609375 65.921875 
Q 23.96875 65.921875 18.8125 64.3125 
Q 13.671875 62.703125 7.8125 59.421875 
L 7.8125 69.390625 
Q 13.765625 71.78125 18.9375 73 
Q 24.125 74.21875 28.421875 74.21875 
Q 39.75 74.21875 46.484375 68.546875 
Q 53.21875 62.890625 53.21875 53.421875 
Q 53.21875 48.921875 51.53125 44.890625 
Q 49.859375 40.875 45.40625 35.40625 
Q 44.1875 33.984375 37.640625 27.21875 
Q 31.109375 20.453125 19.1875 8.296875 
z
" id="DejaVuSans-32"/>
      </defs>
      <g transform="translate(128.914071 317.076875)scale(0.2 -0.2)">
       <use xlink:href="#DejaVuSans-32"/>
      </g>
     </g>
    </g>
    <g id="xtick_3">
     <g id="line2d_9">
      <path clip-path="url(#p2299d8d1ed)" d="M 214.433143 294.88 
L 214.433143 24.84 
" style="fill:none;stroke:#b0b0b0;stroke-linecap:square;stroke-width:0.8;"/>
     </g>
     <g id="line2d_10">
      <g>
       <use style="stroke:#000000;stroke-width:0.8;" x="214.433143" xlink:href="#m4728649d51" y="294.88"/>
      </g>
     </g>
     <g id="text_3">
      <!-- 4 -->
      <defs>
       <path d="M 37.796875 64.3125 
L 12.890625 25.390625 
L 37.796875 25.390625 
z
M 35.203125 72.90625 
L 47.609375 72.90625 
L 47.609375 25.390625 
L 58.015625 25.390625 
L 58.015625 17.1875 
L 47.609375 17.1875 
L 47.609375 0 
L 37.796875 0 
L 37.796875 17.1875 
L 4.890625 17.1875 
L 4.890625 26.703125 
z
" id="DejaVuSans-34"/>
      </defs>
      <g transform="translate(208.070643 317.076875)scale(0.2 -0.2)">
       <use xlink:href="#DejaVuSans-34"/>
      </g>
     </g>
    </g>
    <g id="xtick_4">
     <g id="line2d_11">
      <path clip-path="url(#p2299d8d1ed)" d="M 293.589714 294.88 
L 293.589714 24.84 
" style="fill:none;stroke:#b0b0b0;stroke-linecap:square;stroke-width:0.8;"/>
     </g>
     <g id="line2d_12">
      <g>
       <use style="stroke:#000000;stroke-width:0.8;" x="293.589714" xlink:href="#m4728649d51" y="294.88"/>
      </g>
     </g>
     <g id="text_4">
      <!-- 6 -->
      <defs>
       <path d="M 33.015625 40.375 
Q 26.375 40.375 22.484375 35.828125 
Q 18.609375 31.296875 18.609375 23.390625 
Q 18.609375 15.53125 22.484375 10.953125 
Q 26.375 6.390625 33.015625 6.390625 
Q 39.65625 6.390625 43.53125 10.953125 
Q 47.40625 15.53125 47.40625 23.390625 
Q 47.40625 31.296875 43.53125 35.828125 
Q 39.65625 40.375 33.015625 40.375 
z
M 52.59375 71.296875 
L 52.59375 62.3125 
Q 48.875 64.0625 45.09375 64.984375 
Q 41.3125 65.921875 37.59375 65.921875 
Q 27.828125 65.921875 22.671875 59.328125 
Q 17.53125 52.734375 16.796875 39.40625 
Q 19.671875 43.65625 24.015625 45.921875 
Q 28.375 48.1875 33.59375 48.1875 
Q 44.578125 48.1875 50.953125 41.515625 
Q 57.328125 34.859375 57.328125 23.390625 
Q 57.328125 12.15625 50.6875 5.359375 
Q 44.046875 -1.421875 33.015625 -1.421875 
Q 20.359375 -1.421875 13.671875 8.265625 
Q 6.984375 17.96875 6.984375 36.375 
Q 6.984375 53.65625 15.1875 63.9375 
Q 23.390625 74.21875 37.203125 74.21875 
Q 40.921875 74.21875 44.703125 73.484375 
Q 48.484375 72.75 52.59375 71.296875 
z
" id="DejaVuSans-36"/>
      </defs>
      <g transform="translate(287.227214 317.076875)scale(0.2 -0.2)">
       <use xlink:href="#DejaVuSans-36"/>
      </g>
     </g>
    </g>
    <g id="xtick_5">
     <g id="line2d_13">
      <path clip-path="url(#p2299d8d1ed)" d="M 56.12 294.88 
L 56.12 24.84 
" style="fill:none;stroke:#b0b0b0;stroke-linecap:square;stroke-width:0.8;"/>
     </g>
     <g id="line2d_14">
      <defs>
       <path d="M 0 0 
L 0 2 
" id="mc32b34ef82" style="stroke:#000000;stroke-width:0.6;"/>
      </defs>
      <g>
       <use style="stroke:#000000;stroke-width:0.6;" x="56.12" xlink:href="#mc32b34ef82" y="294.88"/>
      </g>
     </g>
    </g>
    <g id="xtick_6">
     <g id="line2d_15">
      <path clip-path="url(#p2299d8d1ed)" d="M 95.698286 294.88 
L 95.698286 24.84 
" style="fill:none;stroke:#b0b0b0;stroke-linecap:square;stroke-width:0.8;"/>
     </g>
     <g id="line2d_16">
      <g>
       <use style="stroke:#000000;stroke-width:0.6;" x="95.698286" xlink:href="#mc32b34ef82" y="294.88"/>
      </g>
     </g>
    </g>
    <g id="xtick_7">
     <g id="line2d_17">
      <path clip-path="url(#p2299d8d1ed)" d="M 135.276571 294.88 
L 135.276571 24.84 
" style="fill:none;stroke:#b0b0b0;stroke-linecap:square;stroke-width:0.8;"/>
     </g>
     <g id="line2d_18">
      <g>
       <use style="stroke:#000000;stroke-width:0.6;" x="135.276571" xlink:href="#mc32b34ef82" y="294.88"/>
      </g>
     </g>
    </g>
    <g id="xtick_8">
     <g id="line2d_19">
      <path clip-path="url(#p2299d8d1ed)" d="M 174.854857 294.88 
L 174.854857 24.84 
" style="fill:none;stroke:#b0b0b0;stroke-linecap:square;stroke-width:0.8;"/>
     </g>
     <g id="line2d_20">
      <g>
       <use style="stroke:#000000;stroke-width:0.6;" x="174.854857" xlink:href="#mc32b34ef82" y="294.88"/>
      </g>
     </g>
    </g>
    <g id="xtick_9">
     <g id="line2d_21">
      <path clip-path="url(#p2299d8d1ed)" d="M 214.433143 294.88 
L 214.433143 24.84 
" style="fill:none;stroke:#b0b0b0;stroke-linecap:square;stroke-width:0.8;"/>
     </g>
     <g id="line2d_22">
      <g>
       <use style="stroke:#000000;stroke-width:0.6;" x="214.433143" xlink:href="#mc32b34ef82" y="294.88"/>
      </g>
     </g>
    </g>
    <g id="xtick_10">
     <g id="line2d_23">
      <path clip-path="url(#p2299d8d1ed)" d="M 254.011429 294.88 
L 254.011429 24.84 
" style="fill:none;stroke:#b0b0b0;stroke-linecap:square;stroke-width:0.8;"/>
     </g>
     <g id="line2d_24">
      <g>
       <use style="stroke:#000000;stroke-width:0.6;" x="254.011429" xlink:href="#mc32b34ef82" y="294.88"/>
      </g>
     </g>
    </g>
    <g id="xtick_11">
     <g id="line2d_25">
      <path clip-path="url(#p2299d8d1ed)" d="M 293.589714 294.88 
L 293.589714 24.84 
" style="fill:none;stroke:#b0b0b0;stroke-linecap:square;stroke-width:0.8;"/>
     </g>
     <g id="line2d_26">
      <g>
       <use style="stroke:#000000;stroke-width:0.6;" x="293.589714" xlink:href="#mc32b34ef82" y="294.88"/>
      </g>
     </g>
    </g>
    <g id="xtick_12">
     <g id="line2d_27">
      <path clip-path="url(#p2299d8d1ed)" d="M 333.168 294.88 
L 333.168 24.84 
" style="fill:none;stroke:#b0b0b0;stroke-linecap:square;stroke-width:0.8;"/>
     </g>
     <g id="line2d_28">
      <g>
       <use style="stroke:#000000;stroke-width:0.6;" x="333.168" xlink:href="#mc32b34ef82" y="294.88"/>
      </g>
     </g>
    </g>
    <g id="text_5">
     <!-- log10(# f-evals / dimension) -->
     <defs>
      <path d="M 9.421875 75.984375 
L 18.40625 75.984375 
L 18.40625 0 
L 9.421875 0 
z
" id="DejaVuSans-6c"/>
      <path d="M 30.609375 48.390625 
Q 23.390625 48.390625 19.1875 42.75 
Q 14.984375 37.109375 14.984375 27.296875 
Q 14.984375 17.484375 19.15625 11.84375 
Q 23.34375 6.203125 30.609375 6.203125 
Q 37.796875 6.203125 41.984375 11.859375 
Q 46.1875 17.53125 46.1875 27.296875 
Q 46.1875 37.015625 41.984375 42.703125 
Q 37.796875 48.390625 30.609375 48.390625 
z
M 30.609375 56 
Q 42.328125 56 49.015625 48.375 
Q 55.71875 40.765625 55.71875 27.296875 
Q 55.71875 13.875 49.015625 6.21875 
Q 42.328125 -1.421875 30.609375 -1.421875 
Q 18.84375 -1.421875 12.171875 6.21875 
Q 5.515625 13.875 5.515625 27.296875 
Q 5.515625 40.765625 12.171875 48.375 
Q 18.84375 56 30.609375 56 
z
" id="DejaVuSans-6f"/>
      <path d="M 45.40625 27.984375 
Q 45.40625 37.75 41.375 43.109375 
Q 37.359375 48.484375 30.078125 48.484375 
Q 22.859375 48.484375 18.828125 43.109375 
Q 14.796875 37.75 14.796875 27.984375 
Q 14.796875 18.265625 18.828125 12.890625 
Q 22.859375 7.515625 30.078125 7.515625 
Q 37.359375 7.515625 41.375 12.890625 
Q 45.40625 18.265625 45.40625 27.984375 
z
M 54.390625 6.78125 
Q 54.390625 -7.171875 48.1875 -13.984375 
Q 42 -20.796875 29.203125 -20.796875 
Q 24.46875 -20.796875 20.265625 -20.09375 
Q 16.0625 -19.390625 12.109375 -17.921875 
L 12.109375 -9.1875 
Q 16.0625 -11.328125 19.921875 -12.34375 
Q 23.78125 -13.375 27.78125 -13.375 
Q 36.625 -13.375 41.015625 -8.765625 
Q 45.40625 -4.15625 45.40625 5.171875 
L 45.40625 9.625 
Q 42.625 4.78125 38.28125 2.390625 
Q 33.9375 0 27.875 0 
Q 17.828125 0 11.671875 7.65625 
Q 5.515625 15.328125 5.515625 27.984375 
Q 5.515625 40.671875 11.671875 48.328125 
Q 17.828125 56 27.875 56 
Q 33.9375 56 38.28125 53.609375 
Q 42.625 51.21875 45.40625 46.390625 
L 45.40625 54.6875 
L 54.390625 54.6875 
z
" id="DejaVuSans-67"/>
      <path d="M 12.40625 8.296875 
L 28.515625 8.296875 
L 28.515625 63.921875 
L 10.984375 60.40625 
L 10.984375 69.390625 
L 28.421875 72.90625 
L 38.28125 72.90625 
L 38.28125 8.296875 
L 54.390625 8.296875 
L 54.390625 0 
L 12.40625 0 
z
" id="DejaVuSans-31"/>
      <path d="M 31 75.875 
Q 24.46875 64.65625 21.28125 53.65625 
Q 18.109375 42.671875 18.109375 31.390625 
Q 18.109375 20.125 21.3125 9.0625 
Q 24.515625 -2 31 -13.1875 
L 23.1875 -13.1875 
Q 15.875 -1.703125 12.234375 9.375 
Q 8.59375 20.453125 8.59375 31.390625 
Q 8.59375 42.28125 12.203125 53.3125 
Q 15.828125 64.359375 23.1875 75.875 
z
" id="DejaVuSans-28"/>
      <path d="M 51.125 44 
L 36.921875 44 
L 32.8125 27.6875 
L 47.125 27.6875 
z
M 43.796875 71.78125 
L 38.71875 51.515625 
L 52.984375 51.515625 
L 58.109375 71.78125 
L 65.921875 71.78125 
L 60.890625 51.515625 
L 76.125 51.515625 
L 76.125 44 
L 58.984375 44 
L 54.984375 27.6875 
L 70.515625 27.6875 
L 70.515625 20.21875 
L 53.078125 20.21875 
L 48 0 
L 40.1875 0 
L 45.21875 20.21875 
L 30.90625 20.21875 
L 25.875 0 
L 18.015625 0 
L 23.09375 20.21875 
L 7.71875 20.21875 
L 7.71875 27.6875 
L 24.90625 27.6875 
L 29 44 
L 13.28125 44 
L 13.28125 51.515625 
L 30.90625 51.515625 
L 35.890625 71.78125 
z
" id="DejaVuSans-23"/>
      <path id="DejaVuSans-20"/>
      <path d="M 37.109375 75.984375 
L 37.109375 68.5 
L 28.515625 68.5 
Q 23.6875 68.5 21.796875 66.546875 
Q 19.921875 64.59375 19.921875 59.515625 
L 19.921875 54.6875 
L 34.71875 54.6875 
L 34.71875 47.703125 
L 19.921875 47.703125 
L 19.921875 0 
L 10.890625 0 
L 10.890625 47.703125 
L 2.296875 47.703125 
L 2.296875 54.6875 
L 10.890625 54.6875 
L 10.890625 58.5 
Q 10.890625 67.625 15.140625 71.796875 
Q 19.390625 75.984375 28.609375 75.984375 
z
" id="DejaVuSans-66"/>
      <path d="M 4.890625 31.390625 
L 31.203125 31.390625 
L 31.203125 23.390625 
L 4.890625 23.390625 
z
" id="DejaVuSans-2d"/>
      <path d="M 56.203125 29.59375 
L 56.203125 25.203125 
L 14.890625 25.203125 
Q 15.484375 15.921875 20.484375 11.0625 
Q 25.484375 6.203125 34.421875 6.203125 
Q 39.59375 6.203125 44.453125 7.46875 
Q 49.3125 8.734375 54.109375 11.28125 
L 54.109375 2.78125 
Q 49.265625 0.734375 44.1875 -0.34375 
Q 39.109375 -1.421875 33.890625 -1.421875 
Q 20.796875 -1.421875 13.15625 6.1875 
Q 5.515625 13.8125 5.515625 26.8125 
Q 5.515625 40.234375 12.765625 48.109375 
Q 20.015625 56 32.328125 56 
Q 43.359375 56 49.78125 48.890625 
Q 56.203125 41.796875 56.203125 29.59375 
z
M 47.21875 32.234375 
Q 47.125 39.59375 43.09375 43.984375 
Q 39.0625 48.390625 32.421875 48.390625 
Q 24.90625 48.390625 20.390625 44.140625 
Q 15.875 39.890625 15.1875 32.171875 
z
" id="DejaVuSans-65"/>
      <path d="M 2.984375 54.6875 
L 12.5 54.6875 
L 29.59375 8.796875 
L 46.6875 54.6875 
L 56.203125 54.6875 
L 35.6875 0 
L 23.484375 0 
z
" id="DejaVuSans-76"/>
      <path d="M 34.28125 27.484375 
Q 23.390625 27.484375 19.1875 25 
Q 14.984375 22.515625 14.984375 16.5 
Q 14.984375 11.71875 18.140625 8.90625 
Q 21.296875 6.109375 26.703125 6.109375 
Q 34.1875 6.109375 38.703125 11.40625 
Q 43.21875 16.703125 43.21875 25.484375 
L 43.21875 27.484375 
z
M 52.203125 31.203125 
L 52.203125 0 
L 43.21875 0 
L 43.21875 8.296875 
Q 40.140625 3.328125 35.546875 0.953125 
Q 30.953125 -1.421875 24.3125 -1.421875 
Q 15.921875 -1.421875 10.953125 3.296875 
Q 6 8.015625 6 15.921875 
Q 6 25.140625 12.171875 29.828125 
Q 18.359375 34.515625 30.609375 34.515625 
L 43.21875 34.515625 
L 43.21875 35.40625 
Q 43.21875 41.609375 39.140625 45 
Q 35.0625 48.390625 27.6875 48.390625 
Q 23 48.390625 18.546875 47.265625 
Q 14.109375 46.140625 10.015625 43.890625 
L 10.015625 52.203125 
Q 14.9375 54.109375 19.578125 55.046875 
Q 24.21875 56 28.609375 56 
Q 40.484375 56 46.34375 49.84375 
Q 52.203125 43.703125 52.203125 31.203125 
z
" id="DejaVuSans-61"/>
      <path d="M 44.28125 53.078125 
L 44.28125 44.578125 
Q 40.484375 46.53125 36.375 47.5 
Q 32.28125 48.484375 27.875 48.484375 
Q 21.1875 48.484375 17.84375 46.4375 
Q 14.5 44.390625 14.5 40.28125 
Q 14.5 37.15625 16.890625 35.375 
Q 19.28125 33.59375 26.515625 31.984375 
L 29.59375 31.296875 
Q 39.15625 29.25 43.1875 25.515625 
Q 47.21875 21.78125 47.21875 15.09375 
Q 47.21875 7.46875 41.1875 3.015625 
Q 35.15625 -1.421875 24.609375 -1.421875 
Q 20.21875 -1.421875 15.453125 -0.5625 
Q 10.6875 0.296875 5.421875 2 
L 5.421875 11.28125 
Q 10.40625 8.6875 15.234375 7.390625 
Q 20.0625 6.109375 24.8125 6.109375 
Q 31.15625 6.109375 34.5625 8.28125 
Q 37.984375 10.453125 37.984375 14.40625 
Q 37.984375 18.0625 35.515625 20.015625 
Q 33.0625 21.96875 24.703125 23.78125 
L 21.578125 24.515625 
Q 13.234375 26.265625 9.515625 29.90625 
Q 5.8125 33.546875 5.8125 39.890625 
Q 5.8125 47.609375 11.28125 51.796875 
Q 16.75 56 26.8125 56 
Q 31.78125 56 36.171875 55.265625 
Q 40.578125 54.546875 44.28125 53.078125 
z
" id="DejaVuSans-73"/>
      <path d="M 25.390625 72.90625 
L 33.6875 72.90625 
L 8.296875 -9.28125 
L 0 -9.28125 
z
" id="DejaVuSans-2f"/>
      <path d="M 45.40625 46.390625 
L 45.40625 75.984375 
L 54.390625 75.984375 
L 54.390625 0 
L 45.40625 0 
L 45.40625 8.203125 
Q 42.578125 3.328125 38.25 0.953125 
Q 33.9375 -1.421875 27.875 -1.421875 
Q 17.96875 -1.421875 11.734375 6.484375 
Q 5.515625 14.40625 5.515625 27.296875 
Q 5.515625 40.1875 11.734375 48.09375 
Q 17.96875 56 27.875 56 
Q 33.9375 56 38.25 53.625 
Q 42.578125 51.265625 45.40625 46.390625 
z
M 14.796875 27.296875 
Q 14.796875 17.390625 18.875 11.75 
Q 22.953125 6.109375 30.078125 6.109375 
Q 37.203125 6.109375 41.296875 11.75 
Q 45.40625 17.390625 45.40625 27.296875 
Q 45.40625 37.203125 41.296875 42.84375 
Q 37.203125 48.484375 30.078125 48.484375 
Q 22.953125 48.484375 18.875 42.84375 
Q 14.796875 37.203125 14.796875 27.296875 
z
" id="DejaVuSans-64"/>
      <path d="M 9.421875 54.6875 
L 18.40625 54.6875 
L 18.40625 0 
L 9.421875 0 
z
M 9.421875 75.984375 
L 18.40625 75.984375 
L 18.40625 64.59375 
L 9.421875 64.59375 
z
" id="DejaVuSans-69"/>
      <path d="M 52 44.1875 
Q 55.375 50.25 60.0625 53.125 
Q 64.75 56 71.09375 56 
Q 79.640625 56 84.28125 50.015625 
Q 88.921875 44.046875 88.921875 33.015625 
L 88.921875 0 
L 79.890625 0 
L 79.890625 32.71875 
Q 79.890625 40.578125 77.09375 44.375 
Q 74.3125 48.1875 68.609375 48.1875 
Q 61.625 48.1875 57.5625 43.546875 
Q 53.515625 38.921875 53.515625 30.90625 
L 53.515625 0 
L 44.484375 0 
L 44.484375 32.71875 
Q 44.484375 40.625 41.703125 44.40625 
Q 38.921875 48.1875 33.109375 48.1875 
Q 26.21875 48.1875 22.15625 43.53125 
Q 18.109375 38.875 18.109375 30.90625 
L 18.109375 0 
L 9.078125 0 
L 9.078125 54.6875 
L 18.109375 54.6875 
L 18.109375 46.1875 
Q 21.1875 51.21875 25.484375 53.609375 
Q 29.78125 56 35.6875 56 
Q 41.65625 56 45.828125 52.96875 
Q 50 49.953125 52 44.1875 
z
" id="DejaVuSans-6d"/>
      <path d="M 54.890625 33.015625 
L 54.890625 0 
L 45.90625 0 
L 45.90625 32.71875 
Q 45.90625 40.484375 42.875 44.328125 
Q 39.84375 48.1875 33.796875 48.1875 
Q 26.515625 48.1875 22.3125 43.546875 
Q 18.109375 38.921875 18.109375 30.90625 
L 18.109375 0 
L 9.078125 0 
L 9.078125 54.6875 
L 18.109375 54.6875 
L 18.109375 46.1875 
Q 21.34375 51.125 25.703125 53.5625 
Q 30.078125 56 35.796875 56 
Q 45.21875 56 50.046875 50.171875 
Q 54.890625 44.34375 54.890625 33.015625 
z
" id="DejaVuSans-6e"/>
      <path d="M 8.015625 75.875 
L 15.828125 75.875 
Q 23.140625 64.359375 26.78125 53.3125 
Q 30.421875 42.28125 30.421875 31.390625 
Q 30.421875 20.453125 26.78125 9.375 
Q 23.140625 -1.703125 15.828125 -13.1875 
L 8.015625 -13.1875 
Q 14.5 -2 17.703125 9.0625 
Q 20.90625 20.125 20.90625 31.390625 
Q 20.90625 42.671875 17.703125 53.65625 
Q 14.5 64.65625 8.015625 75.875 
z
" id="DejaVuSans-29"/>
     </defs>
     <g transform="translate(73.803219 338.153594)scale(0.17 -0.17)">
      <use xlink:href="#DejaVuSans-6c"/>
      <use x="27.783203" xlink:href="#DejaVuSans-6f"/>
      <use x="88.964844" xlink:href="#DejaVuSans-67"/>
      <use x="152.441406" xlink:href="#DejaVuSans-31"/>
      <use x="216.064453" xlink:href="#DejaVuSans-30"/>
      <use x="279.6875" xlink:href="#DejaVuSans-28"/>
      <use x="318.701172" xlink:href="#DejaVuSans-23"/>
      <use x="402.490234" xlink:href="#DejaVuSans-20"/>
      <use x="434.277344" xlink:href="#DejaVuSans-66"/>
      <use x="469.404297" xlink:href="#DejaVuSans-2d"/>
      <use x="505.488281" xlink:href="#DejaVuSans-65"/>
      <use x="567.011719" xlink:href="#DejaVuSans-76"/>
      <use x="626.191406" xlink:href="#DejaVuSans-61"/>
      <use x="687.470703" xlink:href="#DejaVuSans-6c"/>
      <use x="715.253906" xlink:href="#DejaVuSans-73"/>
      <use x="767.353516" xlink:href="#DejaVuSans-20"/>
      <use x="799.140625" xlink:href="#DejaVuSans-2f"/>
      <use x="832.832031" xlink:href="#DejaVuSans-20"/>
      <use x="864.619141" xlink:href="#DejaVuSans-64"/>
      <use x="928.095703" xlink:href="#DejaVuSans-69"/>
      <use x="955.878906" xlink:href="#DejaVuSans-6d"/>
      <use x="1053.291016" xlink:href="#DejaVuSans-65"/>
      <use x="1114.814453" xlink:href="#DejaVuSans-6e"/>
      <use x="1178.193359" xlink:href="#DejaVuSans-73"/>
      <use x="1230.292969" xlink:href="#DejaVuSans-69"/>
      <use x="1258.076172" xlink:href="#DejaVuSans-6f"/>
      <use x="1319.257812" xlink:href="#DejaVuSans-6e"/>
      <use x="1382.636719" xlink:href="#DejaVuSans-29"/>
     </g>
    </g>
   </g>
   <g id="matplotlib.axis_2">
    <g id="ytick_1">
     <g id="line2d_29">
      <path clip-path="url(#p2299d8d1ed)" d="M 56.12 294.88 
L 333.168 294.88 
" style="fill:none;stroke:#b0b0b0;stroke-linecap:square;stroke-width:0.8;"/>
     </g>
     <g id="line2d_30">
      <defs>
       <path d="M 0 0 
L -3.5 0 
" id="mc2c03e109f" style="stroke:#000000;stroke-width:0.8;"/>
      </defs>
      <g>
       <use style="stroke:#000000;stroke-width:0.8;" x="56.12" xlink:href="#mc2c03e109f" y="294.88"/>
      </g>
     </g>
     <g id="text_6">
      <!-- 0.0 -->
      <defs>
       <path d="M 10.6875 12.40625 
L 21 12.40625 
L 21 0 
L 10.6875 0 
z
" id="DejaVuSans-2e"/>
      </defs>
      <g transform="translate(23.675 300.95875)scale(0.16 -0.16)">
       <use xlink:href="#DejaVuSans-30"/>
       <use x="63.623047" xlink:href="#DejaVuSans-2e"/>
       <use x="95.410156" xlink:href="#DejaVuSans-30"/>
      </g>
     </g>
    </g>
    <g id="ytick_2">
     <g id="line2d_31">
      <path clip-path="url(#p2299d8d1ed)" d="M 56.12 241.406733 
L 333.168 241.406733 
" style="fill:none;stroke:#b0b0b0;stroke-linecap:square;stroke-width:0.8;"/>
     </g>
     <g id="line2d_32">
      <g>
       <use style="stroke:#000000;stroke-width:0.8;" x="56.12" xlink:href="#mc2c03e109f" y="241.406733"/>
      </g>
     </g>
     <g id="text_7">
      <!-- 0.2 -->
      <g transform="translate(23.675 247.485483)scale(0.16 -0.16)">
       <use xlink:href="#DejaVuSans-30"/>
       <use x="63.623047" xlink:href="#DejaVuSans-2e"/>
       <use x="95.410156" xlink:href="#DejaVuSans-32"/>
      </g>
     </g>
    </g>
    <g id="ytick_3">
     <g id="line2d_33">
      <path clip-path="url(#p2299d8d1ed)" d="M 56.12 187.933465 
L 333.168 187.933465 
" style="fill:none;stroke:#b0b0b0;stroke-linecap:square;stroke-width:0.8;"/>
     </g>
     <g id="line2d_34">
      <g>
       <use style="stroke:#000000;stroke-width:0.8;" x="56.12" xlink:href="#mc2c03e109f" y="187.933465"/>
      </g>
     </g>
     <g id="text_8">
      <!-- 0.4 -->
      <g transform="translate(23.675 194.012215)scale(0.16 -0.16)">
       <use xlink:href="#DejaVuSans-30"/>
       <use x="63.623047" xlink:href="#DejaVuSans-2e"/>
       <use x="95.410156" xlink:href="#DejaVuSans-34"/>
      </g>
     </g>
    </g>
    <g id="ytick_4">
     <g id="line2d_35">
      <path clip-path="url(#p2299d8d1ed)" d="M 56.12 134.460198 
L 333.168 134.460198 
" style="fill:none;stroke:#b0b0b0;stroke-linecap:square;stroke-width:0.8;"/>
     </g>
     <g id="line2d_36">
      <g>
       <use style="stroke:#000000;stroke-width:0.8;" x="56.12" xlink:href="#mc2c03e109f" y="134.460198"/>
      </g>
     </g>
     <g id="text_9">
      <!-- 0.6 -->
      <g transform="translate(23.675 140.538948)scale(0.16 -0.16)">
       <use xlink:href="#DejaVuSans-30"/>
       <use x="63.623047" xlink:href="#DejaVuSans-2e"/>
       <use x="95.410156" xlink:href="#DejaVuSans-36"/>
      </g>
     </g>
    </g>
    <g id="ytick_5">
     <g id="line2d_37">
      <path clip-path="url(#p2299d8d1ed)" d="M 56.12 80.986931 
L 333.168 80.986931 
" style="fill:none;stroke:#b0b0b0;stroke-linecap:square;stroke-width:0.8;"/>
     </g>
     <g id="line2d_38">
      <g>
       <use style="stroke:#000000;stroke-width:0.8;" x="56.12" xlink:href="#mc2c03e109f" y="80.986931"/>
      </g>
     </g>
     <g id="text_10">
      <!-- 0.8 -->
      <defs>
       <path d="M 31.78125 34.625 
Q 24.75 34.625 20.71875 30.859375 
Q 16.703125 27.09375 16.703125 20.515625 
Q 16.703125 13.921875 20.71875 10.15625 
Q 24.75 6.390625 31.78125 6.390625 
Q 38.8125 6.390625 42.859375 10.171875 
Q 46.921875 13.96875 46.921875 20.515625 
Q 46.921875 27.09375 42.890625 30.859375 
Q 38.875 34.625 31.78125 34.625 
z
M 21.921875 38.8125 
Q 15.578125 40.375 12.03125 44.71875 
Q 8.5 49.078125 8.5 55.328125 
Q 8.5 64.0625 14.71875 69.140625 
Q 20.953125 74.21875 31.78125 74.21875 
Q 42.671875 74.21875 48.875 69.140625 
Q 55.078125 64.0625 55.078125 55.328125 
Q 55.078125 49.078125 51.53125 44.71875 
Q 48 40.375 41.703125 38.8125 
Q 48.828125 37.15625 52.796875 32.3125 
Q 56.78125 27.484375 56.78125 20.515625 
Q 56.78125 9.90625 50.3125 4.234375 
Q 43.84375 -1.421875 31.78125 -1.421875 
Q 19.734375 -1.421875 13.25 4.234375 
Q 6.78125 9.90625 6.78125 20.515625 
Q 6.78125 27.484375 10.78125 32.3125 
Q 14.796875 37.15625 21.921875 38.8125 
z
M 18.3125 54.390625 
Q 18.3125 48.734375 21.84375 45.5625 
Q 25.390625 42.390625 31.78125 42.390625 
Q 38.140625 42.390625 41.71875 45.5625 
Q 45.3125 48.734375 45.3125 54.390625 
Q 45.3125 60.0625 41.71875 63.234375 
Q 38.140625 66.40625 31.78125 66.40625 
Q 25.390625 66.40625 21.84375 63.234375 
Q 18.3125 60.0625 18.3125 54.390625 
z
" id="DejaVuSans-38"/>
      </defs>
      <g transform="translate(23.675 87.065681)scale(0.16 -0.16)">
       <use xlink:href="#DejaVuSans-30"/>
       <use x="63.623047" xlink:href="#DejaVuSans-2e"/>
       <use x="95.410156" xlink:href="#DejaVuSans-38"/>
      </g>
     </g>
    </g>
    <g id="ytick_6">
     <g id="line2d_39">
      <path clip-path="url(#p2299d8d1ed)" d="M 56.12 27.513663 
L 333.168 27.513663 
" style="fill:none;stroke:#b0b0b0;stroke-linecap:square;stroke-width:0.8;"/>
     </g>
     <g id="line2d_40">
      <g>
       <use style="stroke:#000000;stroke-width:0.8;" x="56.12" xlink:href="#mc2c03e109f" y="27.513663"/>
      </g>
     </g>
     <g id="text_11">
      <!-- 1.0 -->
      <g transform="translate(23.675 33.592413)scale(0.16 -0.16)">
       <use xlink:href="#DejaVuSans-31"/>
       <use x="63.623047" xlink:href="#DejaVuSans-2e"/>
       <use x="95.410156" xlink:href="#DejaVuSans-30"/>
      </g>
     </g>
    </g>
    <g id="text_12">
     <!-- Fraction of function,target pairs -->
     <defs>
      <path d="M 9.8125 72.90625 
L 51.703125 72.90625 
L 51.703125 64.59375 
L 19.671875 64.59375 
L 19.671875 43.109375 
L 48.578125 43.109375 
L 48.578125 34.8125 
L 19.671875 34.8125 
L 19.671875 0 
L 9.8125 0 
z
" id="DejaVuSans-46"/>
      <path d="M 41.109375 46.296875 
Q 39.59375 47.171875 37.8125 47.578125 
Q 36.03125 48 33.890625 48 
Q 26.265625 48 22.1875 43.046875 
Q 18.109375 38.09375 18.109375 28.8125 
L 18.109375 0 
L 9.078125 0 
L 9.078125 54.6875 
L 18.109375 54.6875 
L 18.109375 46.1875 
Q 20.953125 51.171875 25.484375 53.578125 
Q 30.03125 56 36.53125 56 
Q 37.453125 56 38.578125 55.875 
Q 39.703125 55.765625 41.0625 55.515625 
z
" id="DejaVuSans-72"/>
      <path d="M 48.78125 52.59375 
L 48.78125 44.1875 
Q 44.96875 46.296875 41.140625 47.34375 
Q 37.3125 48.390625 33.40625 48.390625 
Q 24.65625 48.390625 19.8125 42.84375 
Q 14.984375 37.3125 14.984375 27.296875 
Q 14.984375 17.28125 19.8125 11.734375 
Q 24.65625 6.203125 33.40625 6.203125 
Q 37.3125 6.203125 41.140625 7.25 
Q 44.96875 8.296875 48.78125 10.40625 
L 48.78125 2.09375 
Q 45.015625 0.34375 40.984375 -0.53125 
Q 36.96875 -1.421875 32.421875 -1.421875 
Q 20.0625 -1.421875 12.78125 6.34375 
Q 5.515625 14.109375 5.515625 27.296875 
Q 5.515625 40.671875 12.859375 48.328125 
Q 20.21875 56 33.015625 56 
Q 37.15625 56 41.109375 55.140625 
Q 45.0625 54.296875 48.78125 52.59375 
z
" id="DejaVuSans-63"/>
      <path d="M 18.3125 70.21875 
L 18.3125 54.6875 
L 36.8125 54.6875 
L 36.8125 47.703125 
L 18.3125 47.703125 
L 18.3125 18.015625 
Q 18.3125 11.328125 20.140625 9.421875 
Q 21.96875 7.515625 27.59375 7.515625 
L 36.8125 7.515625 
L 36.8125 0 
L 27.59375 0 
Q 17.1875 0 13.234375 3.875 
Q 9.28125 7.765625 9.28125 18.015625 
L 9.28125 47.703125 
L 2.6875 47.703125 
L 2.6875 54.6875 
L 9.28125 54.6875 
L 9.28125 70.21875 
z
" id="DejaVuSans-74"/>
      <path d="M 8.5 21.578125 
L 8.5 54.6875 
L 17.484375 54.6875 
L 17.484375 21.921875 
Q 17.484375 14.15625 20.5 10.265625 
Q 23.53125 6.390625 29.59375 6.390625 
Q 36.859375 6.390625 41.078125 11.03125 
Q 45.3125 15.671875 45.3125 23.6875 
L 45.3125 54.6875 
L 54.296875 54.6875 
L 54.296875 0 
L 45.3125 0 
L 45.3125 8.40625 
Q 42.046875 3.421875 37.71875 1 
Q 33.40625 -1.421875 27.6875 -1.421875 
Q 18.265625 -1.421875 13.375 4.4375 
Q 8.5 10.296875 8.5 21.578125 
z
M 31.109375 56 
z
" id="DejaVuSans-75"/>
      <path d="M 11.71875 12.40625 
L 22.015625 12.40625 
L 22.015625 4 
L 14.015625 -11.625 
L 7.71875 -11.625 
L 11.71875 4 
z
" id="DejaVuSans-2c"/>
      <path d="M 18.109375 8.203125 
L 18.109375 -20.796875 
L 9.078125 -20.796875 
L 9.078125 54.6875 
L 18.109375 54.6875 
L 18.109375 46.390625 
Q 20.953125 51.265625 25.265625 53.625 
Q 29.59375 56 35.59375 56 
Q 45.5625 56 51.78125 48.09375 
Q 58.015625 40.1875 58.015625 27.296875 
Q 58.015625 14.40625 51.78125 6.484375 
Q 45.5625 -1.421875 35.59375 -1.421875 
Q 29.59375 -1.421875 25.265625 0.953125 
Q 20.953125 3.328125 18.109375 8.203125 
z
M 48.6875 27.296875 
Q 48.6875 37.203125 44.609375 42.84375 
Q 40.53125 48.484375 33.40625 48.484375 
Q 26.265625 48.484375 22.1875 42.84375 
Q 18.109375 37.203125 18.109375 27.296875 
Q 18.109375 17.390625 22.1875 11.75 
Q 26.265625 6.109375 33.40625 6.109375 
Q 40.53125 6.109375 44.609375 11.75 
Q 48.6875 17.390625 48.6875 27.296875 
z
" id="DejaVuSans-70"/>
     </defs>
     <g transform="translate(16.139531 294.999375)rotate(-90)scale(0.17 -0.17)">
      <use xlink:href="#DejaVuSans-46"/>
      <use x="57.410156" xlink:href="#DejaVuSans-72"/>
      <use x="98.523438" xlink:href="#DejaVuSans-61"/>
      <use x="159.802734" xlink:href="#DejaVuSans-63"/>
      <use x="214.783203" xlink:href="#DejaVuSans-74"/>
      <use x="253.992188" xlink:href="#DejaVuSans-69"/>
      <use x="281.775391" xlink:href="#DejaVuSans-6f"/>
      <use x="342.957031" xlink:href="#DejaVuSans-6e"/>
      <use x="406.335938" xlink:href="#DejaVuSans-20"/>
      <use x="438.123047" xlink:href="#DejaVuSans-6f"/>
      <use x="499.304688" xlink:href="#DejaVuSans-66"/>
      <use x="534.509766" xlink:href="#DejaVuSans-20"/>
      <use x="566.296875" xlink:href="#DejaVuSans-66"/>
      <use x="601.501953" xlink:href="#DejaVuSans-75"/>
      <use x="664.880859" xlink:href="#DejaVuSans-6e"/>
      <use x="728.259766" xlink:href="#DejaVuSans-63"/>
      <use x="783.240234" xlink:href="#DejaVuSans-74"/>
      <use x="822.449219" xlink:href="#DejaVuSans-69"/>
      <use x="850.232422" xlink:href="#DejaVuSans-6f"/>
      <use x="911.414062" xlink:href="#DejaVuSans-6e"/>
      <use x="974.792969" xlink:href="#DejaVuSans-2c"/>
      <use x="1006.580078" xlink:href="#DejaVuSans-74"/>
      <use x="1045.789062" xlink:href="#DejaVuSans-61"/>
      <use x="1107.068359" xlink:href="#DejaVuSans-72"/>
      <use x="1148.166016" xlink:href="#DejaVuSans-67"/>
      <use x="1211.642578" xlink:href="#DejaVuSans-65"/>
      <use x="1273.166016" xlink:href="#DejaVuSans-74"/>
      <use x="1312.375" xlink:href="#DejaVuSans-20"/>
      <use x="1344.162109" xlink:href="#DejaVuSans-70"/>
      <use x="1407.638672" xlink:href="#DejaVuSans-61"/>
      <use x="1468.917969" xlink:href="#DejaVuSans-69"/>
      <use x="1496.701172" xlink:href="#DejaVuSans-72"/>
      <use x="1537.814453" xlink:href="#DejaVuSans-73"/>
     </g>
    </g>
   </g>
   <g id="line2d_41">
    <defs>
     <path d="M 0 1.5 
C 0.397805 1.5 0.77937 1.341951 1.06066 1.06066 
C 1.341951 0.77937 1.5 0.397805 1.5 0 
C 1.5 -0.397805 1.341951 -0.77937 1.06066 -1.06066 
C 0.77937 -1.341951 0.397805 -1.5 0 -1.5 
C -0.397805 -1.5 -0.77937 -1.341951 -1.06066 -1.06066 
C -1.341951 -0.77937 -1.5 -0.397805 -1.5 0 
C -1.5 0.397805 -1.341951 0.77937 -1.06066 1.06066 
C -0.77937 1.341951 -0.397805 1.5 0 1.5 
z
" id="m3a3dc9254c" style="stroke:#f5deb3;"/>
    </defs>
    <g>
     <use style="fill:#f5deb3;stroke:#f5deb3;" x="168.080521" xlink:href="#m3a3dc9254c" y="27.513663"/>
     <use style="fill:#f5deb3;stroke:#f5deb3;" x="168.080521" xlink:href="#m3a3dc9254c" y="27.513663"/>
    </g>
   </g>
   <g id="line2d_42">
    <defs>
     <path d="M 0 1.5 
C 0.397805 1.5 0.77937 1.341951 1.06066 1.06066 
C 1.341951 0.77937 1.5 0.397805 1.5 0 
C 1.5 -0.397805 1.341951 -0.77937 1.06066 -1.06066 
C 0.77937 -1.341951 0.397805 -1.5 0 -1.5 
C -0.397805 -1.5 -0.77937 -1.341951 -1.06066 -1.06066 
C -1.341951 -0.77937 -1.5 -0.397805 -1.5 0 
C -1.5 0.397805 -1.341951 0.77937 -1.06066 1.06066 
C -0.77937 1.341951 -0.397805 1.5 0 1.5 
z
" id="mdb98dd2fab" style="stroke:#000080;"/>
    </defs>
    <g>
     <use style="fill:#000080;stroke:#000080;" x="207.136457" xlink:href="#mdb98dd2fab" y="27.513663"/>
     <use style="fill:#000080;stroke:#000080;" x="207.136457" xlink:href="#mdb98dd2fab" y="27.513663"/>
    </g>
   </g>
   <g id="line2d_43">
    <path d="M 145.076355 294.88 
L 145.076355 294.355752 
L 145.757607 294.355752 
L 145.757607 293.831505 
L 145.954979 293.831505 
L 145.954979 293.307257 
L 146.127269 293.307257 
L 146.195704 291.734514 
L 146.489148 291.734514 
L 146.591794 290.686018 
L 146.676128 290.686018 
L 146.676128 290.161771 
L 146.843566 290.161771 
L 146.889545 289.113275 
L 147.050595 289.113275 
L 147.050595 288.589027 
L 147.190823 288.589027 
L 147.220876 287.540532 
L 147.325653 287.540532 
L 147.368236 286.492036 
L 147.531203 286.492036 
L 147.533309 283.870798 
L 147.864973 283.870798 
L 147.910364 281.773807 
L 148.008984 281.773807 
L 148.008984 281.249559 
L 148.147734 281.249559 
L 148.192385 279.152568 
L 148.309549 279.152568 
L 148.383876 278.104073 
L 148.429918 278.104073 
L 148.513678 275.482834 
L 148.543493 275.482834 
L 148.543493 274.958587 
L 148.658295 274.958587 
L 148.658295 274.434339 
L 148.789965 274.434339 
L 148.825167 272.861596 
L 149.019435 272.861596 
L 149.048387 271.8131 
L 149.138788 271.8131 
L 149.192418 270.764605 
L 149.443019 270.764605 
L 149.461856 268.667614 
L 149.697448 268.667614 
L 149.741959 267.094871 
L 150.017571 267.094871 
L 150.073984 264.473632 
L 150.142884 264.473632 
L 150.142884 263.949385 
L 150.324681 263.949385 
L 150.324681 263.425137 
L 150.444226 263.425137 
L 150.444226 262.900889 
L 150.626399 262.900889 
L 150.649255 261.852394 
L 150.843183 261.852394 
L 150.888293 260.803898 
L 151.058982 260.803898 
L 151.163317 259.231155 
L 151.182064 259.231155 
L 151.212697 257.658412 
L 151.434009 257.658412 
L 151.541104 256.085669 
L 151.882989 256.085669 
L 151.980828 253.988678 
L 152.331694 253.988678 
L 152.331694 253.46443 
L 152.476064 253.46443 
L 152.476064 252.940182 
L 152.786059 252.940182 
L 152.786059 252.415935 
L 153.127109 252.415935 
L 153.146872 251.367439 
L 153.278551 251.367439 
L 153.278551 250.843192 
L 153.458539 250.843192 
L 153.458539 250.318944 
L 153.748524 250.318944 
L 153.748524 249.794696 
L 154.039469 249.794696 
L 154.039469 249.270448 
L 154.689135 249.270448 
L 154.689135 248.746201 
L 155.05333 248.746201 
L 155.05333 248.221953 
L 158.672099 248.221953 
L 158.672099 247.697705 
L 179.575127 247.697705 
L 179.575127 247.173458 
L 179.786069 247.173458 
L 179.889295 246.124962 
L 179.899551 246.124962 
L 179.899551 245.600714 
L 180.362672 245.600714 
L 180.362672 245.076467 
L 180.786579 245.076467 
L 180.786579 244.552219 
L 181.23708 244.552219 
L 181.23708 244.027971 
L 181.502112 244.027971 
L 181.55981 242.455228 
L 181.879163 242.455228 
L 181.879163 241.93098 
L 182.659336 241.93098 
L 182.659336 241.406733 
L 182.868458 241.406733 
L 182.952902 240.358237 
L 183.063876 240.358237 
L 183.063876 239.83399 
L 183.960457 239.83399 
L 183.960457 239.309742 
L 184.129636 239.309742 
L 184.129636 238.785494 
L 184.458164 238.785494 
L 184.458164 238.261246 
L 184.693959 238.261246 
L 184.693959 237.736999 
L 184.884418 237.736999 
L 184.884418 237.212751 
L 185.075161 237.212751 
L 185.157479 236.164255 
L 185.187422 236.164255 
L 185.187422 235.640008 
L 185.487954 235.640008 
L 185.487954 235.11576 
L 185.614341 235.11576 
L 185.614341 234.591512 
L 185.743456 234.591512 
L 185.743456 234.067265 
L 186.251979 234.067265 
L 186.317174 232.494521 
L 186.457551 232.494521 
L 186.457551 231.970274 
L 186.669988 231.970274 
L 186.743521 229.873283 
L 186.834943 229.873283 
L 186.856334 228.824787 
L 187.280521 228.824787 
L 187.280521 228.30054 
L 187.453792 228.30054 
L 187.507595 226.727797 
L 187.720735 226.727797 
L 187.813589 225.679301 
L 187.845304 225.679301 
L 187.8689 224.630806 
L 188.127537 224.630806 
L 188.224543 223.058063 
L 188.47014 223.058063 
L 188.47014 222.533815 
L 188.595402 222.533815 
L 188.595402 222.009567 
L 188.728388 222.009567 
L 188.824168 220.436824 
L 188.846269 220.436824 
L 188.902156 218.864081 
L 189.01565 218.864081 
L 189.086393 217.291338 
L 189.644819 217.291338 
L 189.657538 216.242842 
L 189.806728 216.242842 
L 189.806728 215.718594 
L 190.029623 215.718594 
L 190.029623 215.194347 
L 190.14441 215.194347 
L 190.14441 214.670099 
L 190.309047 214.670099 
L 190.38721 213.097356 
L 190.448722 213.097356 
L 190.492031 212.04886 
L 190.85378 212.04886 
L 190.85378 211.524613 
L 190.994493 211.524613 
L 191.093681 209.95187 
L 191.3849 209.95187 
L 191.487093 207.330631 
L 191.497377 207.330631 
L 191.497377 206.806383 
L 191.819249 206.806383 
L 191.903128 205.23364 
L 191.985489 205.23364 
L 191.985489 204.709392 
L 192.257418 204.709392 
L 192.3154 203.136649 
L 192.376133 203.136649 
L 192.420576 201.039658 
L 192.584957 201.039658 
L 192.603788 199.991163 
L 192.714671 199.991163 
L 192.797176 198.41842 
L 192.850805 198.41842 
L 192.942716 197.369924 
L 192.96925 197.369924 
L 192.96925 196.845677 
L 193.160518 196.845677 
L 193.213765 194.748686 
L 193.301557 194.748686 
L 193.36784 193.70019 
L 193.509372 193.70019 
L 193.560827 192.651695 
L 193.624245 192.651695 
L 193.718864 190.554704 
L 193.744084 190.554704 
L 193.811538 188.457713 
L 194.124458 188.457713 
L 194.193229 186.360722 
L 194.304051 186.360722 
L 194.329674 184.787979 
L 194.539032 184.787979 
L 194.591725 183.739484 
L 194.663814 183.739484 
L 194.701641 181.642493 
L 194.778261 181.642493 
L 194.871982 178.497006 
L 194.892085 178.497006 
L 194.998772 177.448511 
L 195.168448 177.448511 
L 195.253121 176.400016 
L 195.299619 176.400016 
L 195.372192 173.778777 
L 195.414601 173.778777 
L 195.507252 172.730281 
L 195.564406 172.730281 
L 195.675077 170.633291 
L 195.725171 170.633291 
L 195.8102 168.012052 
L 195.87572 168.012052 
L 195.97888 166.439309 
L 196.114389 166.439309 
L 196.184106 163.293823 
L 196.27135 163.293823 
L 196.349666 161.196832 
L 196.431423 161.196832 
L 196.469713 160.148336 
L 196.546888 160.148336 
L 196.642601 158.051345 
L 196.66255 158.051345 
L 196.66255 157.527098 
L 196.796751 157.527098 
L 196.860774 155.954354 
L 196.911821 155.954354 
L 197.012042 151.760373 
L 197.121567 151.760373 
L 197.156473 150.18763 
L 197.269517 150.18763 
L 197.369999 148.090639 
L 197.398038 148.090639 
L 197.49386 145.993648 
L 197.60254 145.993648 
L 197.712584 142.848162 
L 197.722584 142.848162 
L 197.756972 141.799666 
L 197.853976 141.799666 
L 197.929121 139.702675 
L 197.978328 139.702675 
L 198.076988 138.129932 
L 198.106898 138.129932 
L 198.177519 136.557189 
L 198.271304 136.557189 
L 198.338405 134.984446 
L 198.39607 134.984446 
L 198.463448 133.411703 
L 198.529371 133.411703 
L 198.600655 131.314712 
L 198.676698 131.314712 
L 198.769944 128.693473 
L 198.811473 128.693473 
L 198.912582 126.072235 
L 198.923073 126.072235 
L 199.019631 123.975244 
L 199.076215 123.975244 
L 199.178392 120.30551 
L 199.190913 120.30551 
L 199.246001 118.732766 
L 199.343249 118.732766 
L 199.442725 114.538785 
L 199.491787 114.538785 
L 199.523939 113.490289 
L 199.637019 113.490289 
L 199.717525 109.820555 
L 199.769139 109.820555 
L 199.864181 107.199317 
L 199.944931 107.199317 
L 200.00711 105.626573 
L 200.088677 105.626573 
L 200.16503 103.529583 
L 200.270849 103.529583 
L 200.380109 100.384096 
L 200.399661 100.384096 
L 200.487711 96.714362 
L 200.554418 96.714362 
L 200.647335 94.093124 
L 200.694706 94.093124 
L 200.797798 91.996133 
L 200.83035 91.996133 
L 200.937723 90.42339 
L 200.968131 90.42339 
L 201.075397 86.753656 
L 201.087077 86.753656 
L 201.195648 84.132417 
L 201.222731 84.132417 
L 201.296803 82.559674 
L 201.346928 82.559674 
L 201.408004 79.938435 
L 201.558616 79.938435 
L 201.600552 77.841444 
L 201.688178 77.841444 
L 201.789622 74.695958 
L 201.811756 74.695958 
L 201.92013 71.550472 
L 201.938274 71.550472 
L 202.039053 69.453481 
L 202.093759 69.453481 
L 202.192844 66.832242 
L 202.243746 66.832242 
L 202.327813 64.735251 
L 202.356728 64.735251 
L 202.465093 62.638261 
L 202.557351 62.638261 
L 202.642206 61.065517 
L 202.69052 61.065517 
L 202.75388 58.968526 
L 202.867443 58.968526 
L 202.954472 56.347288 
L 203.007765 56.347288 
L 203.100902 54.774545 
L 203.143388 54.774545 
L 203.239587 53.201802 
L 203.274413 53.201802 
L 203.367756 50.056315 
L 203.471738 50.056315 
L 203.581075 47.959324 
L 203.585195 47.959324 
L 203.63786 45.862334 
L 203.728695 45.862334 
L 203.780203 43.765343 
L 203.874025 43.765343 
L 203.968996 41.144104 
L 204.004347 41.144104 
L 204.086368 40.095609 
L 204.132202 40.095609 
L 204.185871 39.047113 
L 204.282785 39.047113 
L 204.306657 37.998618 
L 204.455419 37.998618 
L 204.5012 36.425875 
L 204.77252 36.425875 
L 204.832345 35.377379 
L 205.026557 35.377379 
L 205.026557 34.853131 
L 205.51281 34.853131 
L 205.51281 34.328884 
L 205.691666 34.328884 
L 205.691666 33.804636 
L 205.813568 33.804636 
L 205.880558 32.756141 
L 205.939613 32.756141 
L 205.939613 32.231893 
L 206.051589 32.231893 
L 206.054318 31.183397 
L 206.175699 31.183397 
L 206.175699 30.65915 
L 206.363635 30.65915 
L 206.363635 30.134902 
L 206.50509 30.134902 
L 206.50509 29.610654 
L 206.785831 29.610654 
L 206.785831 29.086407 
L 206.903503 29.086407 
L 206.903503 28.562159 
L 207.025864 28.562159 
L 207.136457 27.513663 
L 333.168 27.513663 
L 333.168 27.513663 
" style="fill:none;stroke:#000080;stroke-linecap:square;stroke-width:1.5;"/>
   </g>
   <g id="line2d_44">
    <defs>
     <path d="M 0 6 
C 1.591219 6 3.117479 5.367802 4.242641 4.242641 
C 5.367802 3.117479 6 1.591219 6 0 
C 6 -1.591219 5.367802 -3.117479 4.242641 -4.242641 
C 3.117479 -5.367802 1.591219 -6 0 -6 
C -1.591219 -6 -3.117479 -5.367802 -4.242641 -4.242641 
C -5.367802 -3.117479 -6 -1.591219 -6 0 
C -6 1.591219 -5.367802 3.117479 -4.242641 4.242641 
C -3.117479 5.367802 -1.591219 6 0 6 
z
" id="m4f6f463c87" style="stroke:#000080;stroke-width:1.5;"/>
    </defs>
    <g>
     <use style="fill:none;stroke:#000080;stroke-width:1.5;" x="191.093681" xlink:href="#m4f6f463c87" y="210.476117"/>
     <use style="fill:none;stroke:#000080;stroke-width:1.5;" x="207.136457" xlink:href="#m4f6f463c87" y="28.037911"/>
     <use style="fill:none;stroke:#000080;stroke-width:1.5;" x="207.136457" xlink:href="#m4f6f463c87" y="27.513663"/>
     <use style="fill:none;stroke:#000080;stroke-width:1.5;" x="207.136457" xlink:href="#m4f6f463c87" y="27.513663"/>
     <use style="fill:none;stroke:#000080;stroke-width:1.5;" x="333.168" xlink:href="#m4f6f463c87" y="27.513663"/>
    </g>
   </g>
   <g id="line2d_45">
    <path style="fill:none;stroke:#000080;stroke-linecap:square;stroke-width:1.5;"/>
    <g/>
   </g>
   <g id="line2d_46">
    <defs>
     <path d="M 0 1.5 
C 0.397805 1.5 0.77937 1.341951 1.06066 1.06066 
C 1.341951 0.77937 1.5 0.397805 1.5 0 
C 1.5 -0.397805 1.341951 -0.77937 1.06066 -1.06066 
C 0.77937 -1.341951 0.397805 -1.5 0 -1.5 
C -0.397805 -1.5 -0.77937 -1.341951 -1.06066 -1.06066 
C -1.341951 -0.77937 -1.5 -0.397805 -1.5 0 
C -1.5 0.397805 -1.341951 0.77937 -1.06066 1.06066 
C -0.77937 1.341951 -0.397805 1.5 0 1.5 
z
" id="m7c68e779cc" style="stroke:#ff00ff;"/>
    </defs>
    <g>
     <use style="fill:#ff00ff;stroke:#ff00ff;" x="199.606096" xlink:href="#m7c68e779cc" y="27.513663"/>
     <use style="fill:#ff00ff;stroke:#ff00ff;" x="199.606096" xlink:href="#m7c68e779cc" y="27.513663"/>
    </g>
   </g>
   <g id="line2d_47">
    <path d="M 162.563506 294.88 
L 162.563506 294.355752 
L 162.905333 294.355752 
L 162.959503 293.307257 
L 163.215985 293.307257 
L 163.254002 291.734514 
L 163.418617 291.734514 
L 163.485356 290.686018 
L 163.555983 290.686018 
L 163.617235 289.637523 
L 163.693083 289.637523 
L 163.784152 288.589027 
L 163.820935 288.589027 
L 163.913768 286.492036 
L 163.959187 286.492036 
L 163.959187 285.967789 
L 164.106778 285.967789 
L 164.106778 285.443541 
L 164.399791 285.443541 
L 164.471485 282.298055 
L 164.756077 282.298055 
L 164.805497 280.201064 
L 164.89931 280.201064 
L 164.996428 278.104073 
L 165.119519 278.104073 
L 165.170926 276.007082 
L 165.322733 276.007082 
L 165.412284 274.434339 
L 165.448717 274.434339 
L 165.555341 272.861596 
L 165.581894 272.861596 
L 165.686965 271.8131 
L 165.811773 271.8131 
L 165.882169 269.191862 
L 165.93207 269.191862 
L 166.017073 268.143366 
L 166.090928 268.143366 
L 166.105233 267.094871 
L 166.213557 267.094871 
L 166.314142 263.949385 
L 166.331084 263.949385 
L 166.435896 261.852394 
L 166.463924 261.852394 
L 166.567931 260.279651 
L 166.681685 260.279651 
L 166.689288 259.231155 
L 166.798812 259.231155 
L 166.878962 257.658412 
L 166.928099 257.658412 
L 167.03273 255.561421 
L 167.088859 255.561421 
L 167.167671 253.988678 
L 167.342855 253.988678 
L 167.424486 251.367439 
L 167.480012 251.367439 
L 167.480012 250.843192 
L 167.697082 250.843192 
L 167.732887 249.270448 
L 167.84761 249.270448 
L 167.925599 247.173458 
L 168.07351 247.173458 
L 168.155559 246.124962 
L 168.226479 246.124962 
L 168.290813 244.552219 
L 168.339221 244.552219 
L 168.444365 243.503724 
L 168.477403 243.503724 
L 168.537704 241.93098 
L 168.611394 241.93098 
L 168.709978 239.83399 
L 168.889057 239.83399 
L 168.999965 237.736999 
L 169.193395 237.736999 
L 169.24052 236.164255 
L 169.401795 236.164255 
L 169.401795 235.640008 
L 169.555722 235.640008 
L 169.555722 235.11576 
L 169.746502 235.11576 
L 169.842254 233.543017 
L 169.923169 233.543017 
L 169.994585 231.970274 
L 170.048095 231.970274 
L 170.048095 231.446026 
L 170.238576 231.446026 
L 170.238576 230.921778 
L 170.421409 230.921778 
L 170.421409 230.397531 
L 170.591307 230.397531 
L 170.63146 229.349035 
L 171.026843 229.349035 
L 171.082056 228.30054 
L 171.496604 228.30054 
L 171.496604 227.776292 
L 171.661423 227.776292 
L 171.661423 227.252044 
L 171.896286 227.252044 
L 171.896286 226.727797 
L 172.49863 226.727797 
L 172.49863 226.203549 
L 172.658065 226.203549 
L 172.658065 225.679301 
L 173.718923 225.679301 
L 173.718923 225.155053 
L 179.15569 225.155053 
L 179.15569 224.630806 
L 179.706216 224.630806 
L 179.706216 224.106558 
L 179.947547 224.106558 
L 179.947547 223.58231 
L 180.234 223.58231 
L 180.234 223.058063 
L 180.728969 223.058063 
L 180.728969 222.533815 
L 180.852487 222.533815 
L 180.852487 222.009567 
L 181.01871 222.009567 
L 181.01871 221.485319 
L 181.472897 221.485319 
L 181.472897 220.961072 
L 181.602522 220.961072 
L 181.602522 220.436824 
L 181.778924 220.436824 
L 181.810491 219.388328 
L 182.008039 219.388328 
L 182.008039 218.864081 
L 182.151422 218.864081 
L 182.23358 217.815585 
L 182.375934 217.815585 
L 182.482689 216.76709 
L 182.687966 216.76709 
L 182.687966 216.242842 
L 182.806881 216.242842 
L 182.892166 214.670099 
L 183.052944 214.670099 
L 183.052944 214.145851 
L 183.186845 214.145851 
L 183.192137 213.097356 
L 183.379219 213.097356 
L 183.379219 212.573108 
L 183.75737 212.573108 
L 183.774514 211.000365 
L 183.92779 211.000365 
L 183.988264 209.95187 
L 184.195397 209.95187 
L 184.292452 208.903374 
L 184.418548 208.903374 
L 184.472659 207.854879 
L 184.578419 207.854879 
L 184.629839 206.282136 
L 184.691777 206.282136 
L 184.695899 205.23364 
L 184.887775 205.23364 
L 184.887775 204.709392 
L 185.013402 204.709392 
L 185.036707 203.660897 
L 185.131974 203.660897 
L 185.155827 202.088154 
L 185.578457 202.088154 
L 185.660696 201.039658 
L 185.767159 201.039658 
L 185.827408 199.466915 
L 185.890161 199.466915 
L 186.000609 198.41842 
L 186.004877 198.41842 
L 186.10343 196.321429 
L 186.146258 196.321429 
L 186.156503 195.272933 
L 186.350229 195.272933 
L 186.452956 194.224438 
L 186.525242 194.224438 
L 186.566816 192.651695 
L 186.657666 192.651695 
L 186.756857 190.554704 
L 186.804523 190.554704 
L 186.890503 188.981961 
L 186.978178 188.981961 
L 187.078074 186.88497 
L 187.17949 186.88497 
L 187.17949 186.360722 
L 187.360214 186.360722 
L 187.418863 184.787979 
L 187.480818 184.787979 
L 187.512329 183.739484 
L 187.610814 183.739484 
L 187.610814 183.215236 
L 187.789309 183.215236 
L 187.789309 182.690988 
L 187.940098 182.690988 
L 188.042156 181.118245 
L 188.057113 181.118245 
L 188.166801 179.021254 
L 188.23007 179.021254 
L 188.323753 176.924263 
L 188.366488 176.924263 
L 188.366488 176.400016 
L 188.534436 176.400016 
L 188.572977 174.827272 
L 188.687313 174.827272 
L 188.755972 173.254529 
L 188.876516 173.254529 
L 188.986591 169.584795 
L 189.001126 169.584795 
L 189.09559 168.012052 
L 189.305606 168.012052 
L 189.331355 166.439309 
L 189.484674 166.439309 
L 189.569589 164.342318 
L 189.717369 164.342318 
L 189.734916 163.293823 
L 189.929981 163.293823 
L 190.017888 161.721079 
L 190.051825 161.721079 
L 190.086581 160.672584 
L 190.190076 160.672584 
L 190.250015 159.099841 
L 190.351662 159.099841 
L 190.432583 155.954354 
L 190.539717 155.954354 
L 190.625426 153.857364 
L 190.745013 153.857364 
L 190.844968 150.711877 
L 190.912297 150.711877 
L 190.965567 149.139134 
L 191.028402 149.139134 
L 191.127062 145.993648 
L 191.182164 145.993648 
L 191.182164 145.4694 
L 191.344939 145.4694 
L 191.423621 144.420905 
L 191.483827 144.420905 
L 191.549517 141.799666 
L 191.656722 141.799666 
L 191.755226 138.65418 
L 191.792802 138.65418 
L 191.792802 138.129932 
L 191.939587 138.129932 
L 191.995479 135.508693 
L 192.084813 135.508693 
L 192.152807 133.93595 
L 192.211612 133.93595 
L 192.318823 130.790464 
L 192.362017 130.790464 
L 192.449781 128.169225 
L 192.488335 128.169225 
L 192.580361 124.499491 
L 192.607919 124.499491 
L 192.699917 123.450996 
L 192.794604 123.450996 
L 192.845223 119.781262 
L 192.921099 119.781262 
L 193.015325 118.208519 
L 193.047564 118.208519 
L 193.064256 116.111528 
L 193.16037 116.111528 
L 193.267436 113.490289 
L 193.313601 113.490289 
L 193.402492 110.344803 
L 193.425847 110.344803 
L 193.513146 107.199317 
L 193.559524 107.199317 
L 193.622947 104.578078 
L 193.671763 104.578078 
L 193.749381 103.529583 
L 193.78456 103.529583 
L 193.884979 100.384096 
L 193.930508 100.384096 
L 194.027404 97.23861 
L 194.082108 97.23861 
L 194.160695 94.093124 
L 194.209124 94.093124 
L 194.284913 91.996133 
L 194.332856 91.996133 
L 194.430269 89.374894 
L 194.498926 89.374894 
L 194.546277 86.753656 
L 194.632839 86.753656 
L 194.688093 83.608169 
L 194.764637 83.608169 
L 194.860848 80.462683 
L 194.895567 80.462683 
L 194.94718 79.414188 
L 195.044103 79.414188 
L 195.131239 75.744454 
L 195.189524 75.744454 
L 195.278416 73.123215 
L 195.314655 73.123215 
L 195.420707 71.026224 
L 195.470381 71.026224 
L 195.556161 68.404985 
L 195.586675 68.404985 
L 195.666757 67.35649 
L 195.721981 67.35649 
L 195.831518 63.686756 
L 195.85623 63.686756 
L 195.956233 62.638261 
L 196.028348 62.638261 
L 196.100037 60.54127 
L 196.174909 60.54127 
L 196.272339 57.920031 
L 196.289512 57.920031 
L 196.291611 56.871536 
L 196.444155 56.871536 
L 196.523029 53.726049 
L 196.597419 53.726049 
L 196.64756 52.153306 
L 196.725749 52.153306 
L 196.780918 51.104811 
L 196.916584 51.104811 
L 197.022931 50.056315 
L 197.030147 50.056315 
L 197.060163 49.00782 
L 197.147312 49.00782 
L 197.25388 46.910829 
L 197.28945 46.910829 
L 197.345165 45.338086 
L 197.426841 45.338086 
L 197.528018 42.716847 
L 197.550294 42.716847 
L 197.626319 40.619856 
L 197.662382 40.619856 
L 197.749374 38.522865 
L 197.786538 38.522865 
L 197.876171 36.425875 
L 197.955367 36.425875 
L 198.058727 34.328884 
L 198.066969 34.328884 
L 198.149615 33.280388 
L 198.214873 33.280388 
L 198.260517 32.231893 
L 198.386127 32.231893 
L 198.482262 31.183397 
L 198.565212 31.183397 
L 198.649271 30.134902 
L 198.806461 30.134902 
L 198.813499 29.086407 
L 199.109469 29.086407 
L 199.109469 28.562159 
L 199.48338 28.562159 
L 199.48338 28.037911 
L 199.606096 28.037911 
L 199.606096 27.513663 
L 333.168 27.513663 
L 333.168 27.513663 
" style="fill:none;stroke:#ff00ff;stroke-linecap:square;stroke-width:1.5;"/>
   </g>
   <g id="line2d_48">
    <defs>
     <path d="M -0 8.485281 
L 5.091169 0 
L 0 -8.485281 
L -5.091169 -0 
z
" id="m2adbb0d468" style="stroke:#ff00ff;stroke-linejoin:miter;stroke-width:1.5;"/>
    </defs>
    <g>
     <use style="fill:none;stroke:#ff00ff;stroke-linejoin:miter;stroke-width:1.5;" x="197.606086" xlink:href="#m2adbb0d468" y="41.668352"/>
     <use style="fill:none;stroke:#ff00ff;stroke-linejoin:miter;stroke-width:1.5;" x="199.606096" xlink:href="#m2adbb0d468" y="27.513663"/>
     <use style="fill:none;stroke:#ff00ff;stroke-linejoin:miter;stroke-width:1.5;" x="199.606096" xlink:href="#m2adbb0d468" y="27.513663"/>
     <use style="fill:none;stroke:#ff00ff;stroke-linejoin:miter;stroke-width:1.5;" x="333.168" xlink:href="#m2adbb0d468" y="27.513663"/>
    </g>
   </g>
   <g id="line2d_49">
    <path style="fill:none;stroke:#ff00ff;stroke-linecap:square;stroke-width:1.5;"/>
    <g/>
   </g>
   <g id="line2d_50">
    <defs>
     <path d="M 0 1.5 
C 0.397805 1.5 0.77937 1.341951 1.06066 1.06066 
C 1.341951 0.77937 1.5 0.397805 1.5 0 
C 1.5 -0.397805 1.341951 -0.77937 1.06066 -1.06066 
C 0.77937 -1.341951 0.397805 -1.5 0 -1.5 
C -0.397805 -1.5 -0.77937 -1.341951 -1.06066 -1.06066 
C -1.341951 -0.77937 -1.5 -0.397805 -1.5 0 
C -1.5 0.397805 -1.341951 0.77937 -1.06066 1.06066 
C -0.77937 1.341951 -0.397805 1.5 0 1.5 
z
" id="mb7592144d6" style="stroke:#6495ed;"/>
    </defs>
    <g>
     <use style="fill:#6495ed;stroke:#6495ed;" x="185.765564" xlink:href="#mb7592144d6" y="27.513663"/>
     <use style="fill:#6495ed;stroke:#6495ed;" x="185.765564" xlink:href="#mb7592144d6" y="27.513663"/>
    </g>
   </g>
   <g id="line2d_51">
    <path d="M 131.322459 294.88 
L 131.322459 294.355752 
L 132.325655 294.355752 
L 132.325655 293.831505 
L 132.488148 293.831505 
L 132.598978 292.258761 
L 132.624067 292.258761 
L 132.704108 290.686018 
L 132.858133 290.686018 
L 132.927243 289.113275 
L 133.069522 289.113275 
L 133.162104 287.016284 
L 133.225164 287.016284 
L 133.287993 285.967789 
L 133.393799 285.967789 
L 133.393799 285.443541 
L 133.513248 285.443541 
L 133.513248 284.919293 
L 133.641328 284.919293 
L 133.702657 283.870798 
L 133.782528 283.870798 
L 133.890001 281.773807 
L 133.908623 281.773807 
L 134.015313 279.152568 
L 134.029181 279.152568 
L 134.029181 278.628321 
L 134.267788 278.628321 
L 134.340544 277.055578 
L 134.512116 277.055578 
L 134.534564 276.007082 
L 134.650825 276.007082 
L 134.757449 274.434339 
L 135.029871 274.434339 
L 135.056007 273.385844 
L 135.255072 273.385844 
L 135.263675 272.337348 
L 135.405005 272.337348 
L 135.485853 270.764605 
L 135.540952 270.764605 
L 135.540952 270.240357 
L 135.654826 270.240357 
L 135.675831 268.667614 
L 135.851269 268.667614 
L 135.925913 267.619119 
L 136.217218 267.619119 
L 136.24161 266.046375 
L 136.391271 266.046375 
L 136.499666 264.473632 
L 136.615334 264.473632 
L 136.615334 263.949385 
L 136.934344 263.949385 
L 137.043257 261.852394 
L 137.047134 261.852394 
L 137.047134 261.328146 
L 137.285815 261.328146 
L 137.373522 260.279651 
L 137.772051 260.279651 
L 137.820298 259.231155 
L 138.262979 259.231155 
L 138.33866 258.18266 
L 138.3961 258.18266 
L 138.3961 257.658412 
L 138.553074 257.658412 
L 138.553074 257.134164 
L 138.796389 257.134164 
L 138.841847 256.085669 
L 139.008661 256.085669 
L 139.008661 255.561421 
L 139.411992 255.561421 
L 139.411992 255.037173 
L 139.616841 255.037173 
L 139.616841 254.512926 
L 139.7366 254.512926 
L 139.7366 253.988678 
L 140.403098 253.988678 
L 140.403098 253.46443 
L 140.74723 253.46443 
L 140.74723 252.940182 
L 141.686932 252.940182 
L 141.686932 252.415935 
L 143.261032 252.415935 
L 143.261032 251.891687 
L 150.82754 251.891687 
L 150.82754 251.367439 
L 151.57277 251.367439 
L 151.57277 250.843192 
L 152.277441 250.843192 
L 152.379422 249.794696 
L 152.609828 249.794696 
L 152.609828 249.270448 
L 152.951284 249.270448 
L 152.951284 248.746201 
L 153.534466 248.746201 
L 153.534466 247.697705 
L 153.676485 247.697705 
L 153.729441 246.64921 
L 154.137279 246.64921 
L 154.137279 246.124962 
L 154.783328 246.124962 
L 154.783328 245.600714 
L 154.993391 245.600714 
L 154.993391 245.076467 
L 155.248042 245.076467 
L 155.293696 244.027971 
L 155.440574 244.027971 
L 155.440574 243.503724 
L 155.682179 243.503724 
L 155.734539 242.455228 
L 155.963049 242.455228 
L 155.963049 241.93098 
L 156.119684 241.93098 
L 156.119684 241.406733 
L 156.531362 241.406733 
L 156.611037 239.83399 
L 156.968724 239.83399 
L 156.984531 238.785494 
L 157.622744 238.785494 
L 157.727817 237.212751 
L 157.765022 237.212751 
L 157.765022 236.688503 
L 157.909586 236.688503 
L 158.016359 234.591512 
L 158.308016 234.591512 
L 158.417941 233.543017 
L 158.642327 233.543017 
L 158.642327 233.018769 
L 158.857284 233.018769 
L 158.967012 231.446026 
L 158.992983 231.446026 
L 158.992983 230.921778 
L 159.138345 230.921778 
L 159.138345 230.397531 
L 159.282487 230.397531 
L 159.282487 229.873283 
L 159.645452 229.873283 
L 159.679772 228.824787 
L 159.835944 228.824787 
L 159.871941 227.252044 
L 160.112716 227.252044 
L 160.112716 226.727797 
L 160.388094 226.727797 
L 160.388094 226.203549 
L 160.564654 226.203549 
L 160.627695 225.155053 
L 160.749184 225.155053 
L 160.846537 222.533815 
L 161.323312 222.533815 
L 161.323312 222.009567 
L 161.569866 222.009567 
L 161.587541 220.961072 
L 161.698759 220.961072 
L 161.698759 220.436824 
L 161.881623 220.436824 
L 161.960962 218.864081 
L 162.192316 218.864081 
L 162.251461 217.291338 
L 162.349585 217.291338 
L 162.370919 216.242842 
L 162.64851 216.242842 
L 162.64851 215.718594 
L 162.798212 215.718594 
L 162.8484 214.670099 
L 163.202447 214.670099 
L 163.281829 212.04886 
L 163.39436 212.04886 
L 163.39436 211.524613 
L 163.54603 211.524613 
L 163.611451 210.476117 
L 163.811951 210.476117 
L 163.811951 209.95187 
L 164.0166 209.95187 
L 164.127645 207.854879 
L 164.508396 207.854879 
L 164.58745 205.757888 
L 164.680128 205.757888 
L 164.736734 204.709392 
L 164.841699 204.709392 
L 164.910043 203.136649 
L 164.953672 203.136649 
L 165.029948 202.088154 
L 165.170171 202.088154 
L 165.170171 201.563906 
L 165.410795 201.563906 
L 165.410795 201.039658 
L 165.690628 201.039658 
L 165.757874 198.942667 
L 165.837207 198.942667 
L 165.883617 197.894172 
L 166.129523 197.894172 
L 166.129523 197.369924 
L 166.26534 197.369924 
L 166.376182 196.321429 
L 166.395173 196.321429 
L 166.418354 195.272933 
L 166.521939 195.272933 
L 166.620046 193.175943 
L 166.683759 193.175943 
L 166.754123 192.127447 
L 166.81597 192.127447 
L 166.81597 191.603199 
L 167.027311 191.603199 
L 167.027311 191.078952 
L 167.17842 191.078952 
L 167.17842 190.554704 
L 167.386042 190.554704 
L 167.465487 188.981961 
L 167.528122 188.981961 
L 167.536018 187.933465 
L 167.694475 187.933465 
L 167.795205 186.88497 
L 167.832099 186.88497 
L 167.901144 185.836474 
L 168.084982 185.836474 
L 168.163171 184.787979 
L 168.198652 184.787979 
L 168.29459 183.739484 
L 168.319748 183.739484 
L 168.327917 182.16674 
L 168.438125 182.16674 
L 168.543289 180.593997 
L 168.632391 180.593997 
L 168.693997 177.972759 
L 168.762122 177.972759 
L 168.762122 177.448511 
L 168.963075 177.448511 
L 169.013854 176.400016 
L 169.076516 176.400016 
L 169.104759 174.827272 
L 169.1922 174.827272 
L 169.27682 173.778777 
L 169.309484 173.778777 
L 169.347415 172.206034 
L 169.508281 172.206034 
L 169.608864 170.109043 
L 169.705384 170.109043 
L 169.74361 168.5363 
L 169.931182 168.5363 
L 170.017945 166.439309 
L 170.109369 166.439309 
L 170.134836 165.390813 
L 170.241386 165.390813 
L 170.348397 163.81807 
L 170.372955 163.81807 
L 170.45197 162.245327 
L 170.512378 162.245327 
L 170.531177 161.196832 
L 170.672616 161.196832 
L 170.761178 160.148336 
L 170.82703 160.148336 
L 170.887218 159.099841 
L 171.003203 159.099841 
L 171.105054 155.954354 
L 171.120013 155.954354 
L 171.120013 155.430107 
L 171.235503 155.430107 
L 171.311188 153.857364 
L 171.38917 153.857364 
L 171.475694 151.760373 
L 171.50705 151.760373 
L 171.50705 151.236125 
L 171.642267 151.236125 
L 171.699156 149.663382 
L 171.762031 149.663382 
L 171.788247 148.614886 
L 171.96353 148.614886 
L 172.055312 147.042143 
L 172.075529 147.042143 
L 172.137045 145.4694 
L 172.2234 145.4694 
L 172.315302 142.848162 
L 172.347153 142.848162 
L 172.347153 142.323914 
L 172.507007 142.323914 
L 172.601818 141.275418 
L 172.656111 141.275418 
L 172.732127 140.226923 
L 172.807323 140.226923 
L 172.903385 137.081437 
L 172.945695 137.081437 
L 173.030958 136.032941 
L 173.081056 136.032941 
L 173.140507 134.984446 
L 173.207321 134.984446 
L 173.250777 133.411703 
L 173.371591 133.411703 
L 173.470149 131.314712 
L 173.512947 131.314712 
L 173.581571 130.266216 
L 173.630092 130.266216 
L 173.728102 127.12073 
L 173.771178 127.12073 
L 173.870663 124.499491 
L 173.891128 124.499491 
L 173.970481 122.926748 
L 174.07467 122.926748 
L 174.128994 121.354005 
L 174.220195 121.354005 
L 174.306479 120.30551 
L 174.349901 120.30551 
L 174.430694 117.684271 
L 174.461498 117.684271 
L 174.509354 116.635776 
L 174.590711 116.635776 
L 174.664735 115.063032 
L 174.712029 115.063032 
L 174.783807 113.490289 
L 174.840241 113.490289 
L 174.935882 111.917546 
L 174.988408 111.917546 
L 175.095524 110.344803 
L 175.151367 110.344803 
L 175.240676 108.77206 
L 175.309448 108.77206 
L 175.397525 107.723564 
L 175.433711 107.723564 
L 175.541812 105.626573 
L 175.597049 105.626573 
L 175.707811 103.005335 
L 175.799164 103.005335 
L 175.909444 99.859849 
L 175.915506 99.859849 
L 175.996921 97.762858 
L 176.112335 97.762858 
L 176.214676 96.190115 
L 176.226186 96.190115 
L 176.257105 94.617371 
L 176.421078 94.617371 
L 176.486466 92.520381 
L 176.628908 92.520381 
L 176.707792 90.42339 
L 176.758258 90.42339 
L 176.857983 88.850646 
L 176.887024 88.850646 
L 176.946101 87.802151 
L 177.027713 87.802151 
L 177.064406 86.753656 
L 177.177398 86.753656 
L 177.243342 85.180912 
L 177.349966 85.180912 
L 177.369281 84.132417 
L 177.60671 84.132417 
L 177.686344 82.559674 
L 177.722387 82.559674 
L 177.802575 80.986931 
L 177.847765 80.986931 
L 177.947485 78.88994 
L 178.027346 78.88994 
L 178.133846 76.268701 
L 178.207546 76.268701 
L 178.249216 75.220206 
L 178.356107 75.220206 
L 178.45502 73.647463 
L 178.473481 73.647463 
L 178.573107 72.074719 
L 178.626673 72.074719 
L 178.733307 70.501976 
L 178.764484 70.501976 
L 178.819847 67.880738 
L 178.902897 67.880738 
L 178.962892 65.783747 
L 179.11784 65.783747 
L 179.209475 63.162508 
L 179.27672 63.162508 
L 179.368175 60.017022 
L 179.485754 60.017022 
L 179.596665 58.444279 
L 179.664688 58.444279 
L 179.751522 56.871536 
L 179.777036 56.871536 
L 179.777036 56.347288 
L 179.96607 56.347288 
L 180.035194 54.774545 
L 180.13441 54.774545 
L 180.13441 54.250297 
L 180.333328 54.250297 
L 180.333328 53.726049 
L 180.5105 53.726049 
L 180.5105 53.201802 
L 180.72561 53.201802 
L 180.72561 52.677554 
L 180.837323 52.677554 
L 180.938967 51.104811 
L 181.063086 51.104811 
L 181.063086 50.580563 
L 181.221955 50.580563 
L 181.3128 49.532068 
L 181.336394 49.532068 
L 181.336394 49.00782 
L 181.48342 49.00782 
L 181.491892 47.959324 
L 181.606875 47.959324 
L 181.707254 46.910829 
L 181.73924 46.910829 
L 181.789549 45.338086 
L 182.015973 45.338086 
L 182.03268 44.28959 
L 182.132579 44.28959 
L 182.183715 43.241095 
L 182.282465 43.241095 
L 182.282465 42.716847 
L 182.419712 42.716847 
L 182.437137 41.668352 
L 182.619174 41.668352 
L 182.653059 40.619856 
L 182.751056 40.619856 
L 182.751056 40.095609 
L 183.022512 40.095609 
L 183.058544 38.522865 
L 183.159565 38.522865 
L 183.159565 37.998618 
L 183.309991 37.998618 
L 183.319711 36.425875 
L 183.477858 36.425875 
L 183.561698 34.853131 
L 183.708404 34.853131 
L 183.708404 34.328884 
L 183.926776 34.328884 
L 184.034426 32.756141 
L 184.191902 32.756141 
L 184.274823 31.707645 
L 184.376866 31.707645 
L 184.480024 30.65915 
L 184.614746 30.65915 
L 184.614746 30.134902 
L 184.926325 30.134902 
L 184.926325 29.610654 
L 185.334491 29.610654 
L 185.334491 29.086407 
L 185.512011 29.086407 
L 185.512011 28.562159 
L 185.633403 28.562159 
L 185.633403 28.037911 
L 185.765564 28.037911 
L 185.765564 27.513663 
L 333.168 27.513663 
L 333.168 27.513663 
" style="fill:none;stroke:#6495ed;stroke-linecap:square;stroke-width:1.5;"/>
   </g>
   <g id="line2d_52">
    <defs>
     <path d="M -0 6 
L 6 -6 
L -6 -6 
z
" id="md75fd14c74" style="stroke:#6495ed;stroke-linejoin:miter;stroke-width:1.5;"/>
    </defs>
    <g>
     <use style="fill:none;stroke:#6495ed;stroke-linejoin:miter;stroke-width:1.5;" x="167.795205" xlink:href="#md75fd14c74" y="186.88497"/>
     <use style="fill:none;stroke:#6495ed;stroke-linejoin:miter;stroke-width:1.5;" x="183.309991" xlink:href="#md75fd14c74" y="37.47437"/>
     <use style="fill:none;stroke:#6495ed;stroke-linejoin:miter;stroke-width:1.5;" x="185.765564" xlink:href="#md75fd14c74" y="27.513663"/>
     <use style="fill:none;stroke:#6495ed;stroke-linejoin:miter;stroke-width:1.5;" x="185.765564" xlink:href="#md75fd14c74" y="27.513663"/>
     <use style="fill:none;stroke:#6495ed;stroke-linejoin:miter;stroke-width:1.5;" x="333.168" xlink:href="#md75fd14c74" y="27.513663"/>
    </g>
   </g>
   <g id="line2d_53">
    <path style="fill:none;stroke:#6495ed;stroke-linecap:square;stroke-width:1.5;"/>
    <g/>
   </g>
   <g id="line2d_54">
    <path d="M 333.168 27.513663 
L 363.64328 289.532673 
" style="fill:none;stroke:#000080;stroke-linecap:square;stroke-width:1.5;"/>
    <g>
     <use style="fill:none;stroke:#000080;stroke-width:1.5;" x="333.168" xlink:href="#m4f6f463c87" y="27.513663"/>
     <use style="fill:none;stroke:#000080;stroke-width:1.5;" x="363.64328" xlink:href="#m4f6f463c87" y="289.532673"/>
    </g>
   </g>
   <g id="line2d_55">
    <path d="M 333.168 27.513663 
L 363.64328 203.975446 
" style="fill:none;stroke:#ff00ff;stroke-linecap:square;stroke-width:1.5;"/>
    <g>
     <use style="fill:none;stroke:#ff00ff;stroke-linejoin:miter;stroke-width:1.5;" x="333.168" xlink:href="#m2adbb0d468" y="27.513663"/>
     <use style="fill:none;stroke:#ff00ff;stroke-linejoin:miter;stroke-width:1.5;" x="363.64328" xlink:href="#m2adbb0d468" y="203.975446"/>
    </g>
   </g>
   <g id="line2d_56">
    <path d="M 333.168 27.513663 
L 363.64328 118.418218 
" style="fill:none;stroke:#6495ed;stroke-linecap:square;stroke-width:1.5;"/>
    <g>
     <use style="fill:none;stroke:#6495ed;stroke-linejoin:miter;stroke-width:1.5;" x="333.168" xlink:href="#md75fd14c74" y="27.513663"/>
     <use style="fill:none;stroke:#6495ed;stroke-linejoin:miter;stroke-width:1.5;" x="363.64328" xlink:href="#md75fd14c74" y="118.418218"/>
    </g>
   </g>
   <g id="line2d_57">
    <path d="M 333.168 294.88 
L 333.168 27.513663 
" style="fill:none;stroke:#000000;stroke-linecap:square;stroke-width:1.5;"/>
   </g>
   <g id="patch_3">
    <path d="M 56.12 294.88 
L 56.12 24.84 
" style="fill:none;stroke:#000000;stroke-linecap:square;stroke-linejoin:miter;stroke-width:0.8;"/>
   </g>
   <g id="patch_4">
    <path d="M 333.168 294.88 
L 333.168 24.84 
" style="fill:none;stroke:#000000;stroke-linecap:square;stroke-linejoin:miter;stroke-width:0.8;"/>
   </g>
   <g id="patch_5">
    <path d="M 56.12 294.88 
L 333.168 294.88 
" style="fill:none;stroke:#000000;stroke-linecap:square;stroke-linejoin:miter;stroke-width:0.8;"/>
   </g>
   <g id="patch_6">
    <path d="M 56.12 24.84 
L 333.168 24.84 
" style="fill:none;stroke:#000000;stroke-linecap:square;stroke-linejoin:miter;stroke-width:0.8;"/>
   </g>
   <g id="text_13">
    <!-- CMA ES PPM -->
    <defs>
     <path d="M 64.40625 67.28125 
L 64.40625 56.890625 
Q 59.421875 61.53125 53.78125 63.8125 
Q 48.140625 66.109375 41.796875 66.109375 
Q 29.296875 66.109375 22.65625 58.46875 
Q 16.015625 50.828125 16.015625 36.375 
Q 16.015625 21.96875 22.65625 14.328125 
Q 29.296875 6.6875 41.796875 6.6875 
Q 48.140625 6.6875 53.78125 8.984375 
Q 59.421875 11.28125 64.40625 15.921875 
L 64.40625 5.609375 
Q 59.234375 2.09375 53.4375 0.328125 
Q 47.65625 -1.421875 41.21875 -1.421875 
Q 24.65625 -1.421875 15.125 8.703125 
Q 5.609375 18.84375 5.609375 36.375 
Q 5.609375 53.953125 15.125 64.078125 
Q 24.65625 74.21875 41.21875 74.21875 
Q 47.75 74.21875 53.53125 72.484375 
Q 59.328125 70.75 64.40625 67.28125 
z
" id="DejaVuSans-43"/>
     <path d="M 9.8125 72.90625 
L 24.515625 72.90625 
L 43.109375 23.296875 
L 61.8125 72.90625 
L 76.515625 72.90625 
L 76.515625 0 
L 66.890625 0 
L 66.890625 64.015625 
L 48.09375 14.015625 
L 38.1875 14.015625 
L 19.390625 64.015625 
L 19.390625 0 
L 9.8125 0 
z
" id="DejaVuSans-4d"/>
     <path d="M 34.1875 63.1875 
L 20.796875 26.90625 
L 47.609375 26.90625 
z
M 28.609375 72.90625 
L 39.796875 72.90625 
L 67.578125 0 
L 57.328125 0 
L 50.6875 18.703125 
L 17.828125 18.703125 
L 11.1875 0 
L 0.78125 0 
z
" id="DejaVuSans-41"/>
     <path d="M 9.8125 72.90625 
L 55.90625 72.90625 
L 55.90625 64.59375 
L 19.671875 64.59375 
L 19.671875 43.015625 
L 54.390625 43.015625 
L 54.390625 34.71875 
L 19.671875 34.71875 
L 19.671875 8.296875 
L 56.78125 8.296875 
L 56.78125 0 
L 9.8125 0 
z
" id="DejaVuSans-45"/>
     <path d="M 53.515625 70.515625 
L 53.515625 60.890625 
Q 47.90625 63.578125 42.921875 64.890625 
Q 37.9375 66.21875 33.296875 66.21875 
Q 25.25 66.21875 20.875 63.09375 
Q 16.5 59.96875 16.5 54.203125 
Q 16.5 49.359375 19.40625 46.890625 
Q 22.3125 44.4375 30.421875 42.921875 
L 36.375 41.703125 
Q 47.40625 39.59375 52.65625 34.296875 
Q 57.90625 29 57.90625 20.125 
Q 57.90625 9.515625 50.796875 4.046875 
Q 43.703125 -1.421875 29.984375 -1.421875 
Q 24.8125 -1.421875 18.96875 -0.25 
Q 13.140625 0.921875 6.890625 3.21875 
L 6.890625 13.375 
Q 12.890625 10.015625 18.65625 8.296875 
Q 24.421875 6.59375 29.984375 6.59375 
Q 38.421875 6.59375 43.015625 9.90625 
Q 47.609375 13.234375 47.609375 19.390625 
Q 47.609375 24.75 44.3125 27.78125 
Q 41.015625 30.8125 33.5 32.328125 
L 27.484375 33.5 
Q 16.453125 35.6875 11.515625 40.375 
Q 6.59375 45.0625 6.59375 53.421875 
Q 6.59375 63.09375 13.40625 68.65625 
Q 20.21875 74.21875 32.171875 74.21875 
Q 37.3125 74.21875 42.625 73.28125 
Q 47.953125 72.359375 53.515625 70.515625 
z
" id="DejaVuSans-53"/>
     <path d="M 19.671875 64.796875 
L 19.671875 37.40625 
L 32.078125 37.40625 
Q 38.96875 37.40625 42.71875 40.96875 
Q 46.484375 44.53125 46.484375 51.125 
Q 46.484375 57.671875 42.71875 61.234375 
Q 38.96875 64.796875 32.078125 64.796875 
z
M 9.8125 72.90625 
L 32.078125 72.90625 
Q 44.34375 72.90625 50.609375 67.359375 
Q 56.890625 61.8125 56.890625 51.125 
Q 56.890625 40.328125 50.609375 34.8125 
Q 44.34375 29.296875 32.078125 29.296875 
L 19.671875 29.296875 
L 19.671875 0 
L 9.8125 0 
z
" id="DejaVuSans-50"/>
    </defs>
    <g transform="translate(369.18424 294.223611)scale(0.17 -0.17)">
     <use xlink:href="#DejaVuSans-43"/>
     <use x="69.824219" xlink:href="#DejaVuSans-4d"/>
     <use x="156.103516" xlink:href="#DejaVuSans-41"/>
     <use x="224.511719" xlink:href="#DejaVuSans-20"/>
     <use x="256.298828" xlink:href="#DejaVuSans-45"/>
     <use x="319.482422" xlink:href="#DejaVuSans-53"/>
     <use x="382.958984" xlink:href="#DejaVuSans-20"/>
     <use x="414.746094" xlink:href="#DejaVuSans-50"/>
     <use x="475.048828" xlink:href="#DejaVuSans-50"/>
     <use x="535.351562" xlink:href="#DejaVuSans-4d"/>
    </g>
   </g>
   <g id="text_14">
    <!-- CMA ES CSA -->
    <g transform="translate(369.18424 208.666383)scale(0.17 -0.17)">
     <use xlink:href="#DejaVuSans-43"/>
     <use x="69.824219" xlink:href="#DejaVuSans-4d"/>
     <use x="156.103516" xlink:href="#DejaVuSans-41"/>
     <use x="224.511719" xlink:href="#DejaVuSans-20"/>
     <use x="256.298828" xlink:href="#DejaVuSans-45"/>
     <use x="319.482422" xlink:href="#DejaVuSans-53"/>
     <use x="382.958984" xlink:href="#DejaVuSans-20"/>
     <use x="414.746094" xlink:href="#DejaVuSans-43"/>
     <use x="484.570312" xlink:href="#DejaVuSans-53"/>
     <use x="548.0625" xlink:href="#DejaVuSans-41"/>
    </g>
   </g>
   <g id="text_15">
    <!-- CMAES posi -->
    <g transform="translate(369.18424 123.109155)scale(0.17 -0.17)">
     <use xlink:href="#DejaVuSans-43"/>
     <use x="69.824219" xlink:href="#DejaVuSans-4d"/>
     <use x="156.103516" xlink:href="#DejaVuSans-41"/>
     <use x="224.511719" xlink:href="#DejaVuSans-45"/>
     <use x="287.695312" xlink:href="#DejaVuSans-53"/>
     <use x="351.171875" xlink:href="#DejaVuSans-20"/>
     <use x="382.958984" xlink:href="#DejaVuSans-70"/>
     <use x="446.435547" xlink:href="#DejaVuSans-6f"/>
     <use x="507.617188" xlink:href="#DejaVuSans-73"/>
     <use x="559.716797" xlink:href="#DejaVuSans-69"/>
    </g>
   </g>
   <g id="text_16">
    <!-- best 2009 -->
    <defs>
     <path d="M 48.6875 27.296875 
Q 48.6875 37.203125 44.609375 42.84375 
Q 40.53125 48.484375 33.40625 48.484375 
Q 26.265625 48.484375 22.1875 42.84375 
Q 18.109375 37.203125 18.109375 27.296875 
Q 18.109375 17.390625 22.1875 11.75 
Q 26.265625 6.109375 33.40625 6.109375 
Q 40.53125 6.109375 44.609375 11.75 
Q 48.6875 17.390625 48.6875 27.296875 
z
M 18.109375 46.390625 
Q 20.953125 51.265625 25.265625 53.625 
Q 29.59375 56 35.59375 56 
Q 45.5625 56 51.78125 48.09375 
Q 58.015625 40.1875 58.015625 27.296875 
Q 58.015625 14.40625 51.78125 6.484375 
Q 45.5625 -1.421875 35.59375 -1.421875 
Q 29.59375 -1.421875 25.265625 0.953125 
Q 20.953125 3.328125 18.109375 8.203125 
L 18.109375 0 
L 9.078125 0 
L 9.078125 75.984375 
L 18.109375 75.984375 
z
" id="DejaVuSans-62"/>
     <path d="M 10.984375 1.515625 
L 10.984375 10.5 
Q 14.703125 8.734375 18.5 7.8125 
Q 22.3125 6.890625 25.984375 6.890625 
Q 35.75 6.890625 40.890625 13.453125 
Q 46.046875 20.015625 46.78125 33.40625 
Q 43.953125 29.203125 39.59375 26.953125 
Q 35.25 24.703125 29.984375 24.703125 
Q 19.046875 24.703125 12.671875 31.3125 
Q 6.296875 37.9375 6.296875 49.421875 
Q 6.296875 60.640625 12.9375 67.421875 
Q 19.578125 74.21875 30.609375 74.21875 
Q 43.265625 74.21875 49.921875 64.515625 
Q 56.59375 54.828125 56.59375 36.375 
Q 56.59375 19.140625 48.40625 8.859375 
Q 40.234375 -1.421875 26.421875 -1.421875 
Q 22.703125 -1.421875 18.890625 -0.6875 
Q 15.09375 0.046875 10.984375 1.515625 
z
M 30.609375 32.421875 
Q 37.25 32.421875 41.125 36.953125 
Q 45.015625 41.5 45.015625 49.421875 
Q 45.015625 57.28125 41.125 61.84375 
Q 37.25 66.40625 30.609375 66.40625 
Q 23.96875 66.40625 20.09375 61.84375 
Q 16.21875 57.28125 16.21875 49.421875 
Q 16.21875 41.5 20.09375 36.953125 
Q 23.96875 32.421875 30.609375 32.421875 
z
" id="DejaVuSans-39"/>
    </defs>
    <g transform="translate(369.18424 37.551928)scale(0.17 -0.17)">
     <use xlink:href="#DejaVuSans-62"/>
     <use x="63.476562" xlink:href="#DejaVuSans-65"/>
     <use x="125" xlink:href="#DejaVuSans-73"/>
     <use x="177.099609" xlink:href="#DejaVuSans-74"/>
     <use x="216.308594" xlink:href="#DejaVuSans-20"/>
     <use x="248.095703" xlink:href="#DejaVuSans-32"/>
     <use x="311.71875" xlink:href="#DejaVuSans-30"/>
     <use x="375.341797" xlink:href="#DejaVuSans-30"/>
     <use x="438.964844" xlink:href="#DejaVuSans-39"/>
    </g>
   </g>
   <g id="text_17">
    <!-- bbob f12, 40-D -->
    <defs>
     <path d="M 19.671875 64.796875 
L 19.671875 8.109375 
L 31.59375 8.109375 
Q 46.6875 8.109375 53.6875 14.9375 
Q 60.6875 21.78125 60.6875 36.53125 
Q 60.6875 51.171875 53.6875 57.984375 
Q 46.6875 64.796875 31.59375 64.796875 
z
M 9.8125 72.90625 
L 30.078125 72.90625 
Q 51.265625 72.90625 61.171875 64.09375 
Q 71.09375 55.28125 71.09375 36.53125 
Q 71.09375 17.671875 61.125 8.828125 
Q 51.171875 0 30.078125 0 
L 9.8125 0 
z
" id="DejaVuSans-44"/>
    </defs>
    <g transform="translate(58.89048 35.290806)scale(0.102 -0.102)">
     <use xlink:href="#DejaVuSans-62"/>
     <use x="63.476562" xlink:href="#DejaVuSans-62"/>
     <use x="126.953125" xlink:href="#DejaVuSans-6f"/>
     <use x="188.134766" xlink:href="#DejaVuSans-62"/>
     <use x="251.611328" xlink:href="#DejaVuSans-20"/>
     <use x="283.398438" xlink:href="#DejaVuSans-66"/>
     <use x="318.603516" xlink:href="#DejaVuSans-31"/>
     <use x="382.226562" xlink:href="#DejaVuSans-32"/>
     <use x="445.849609" xlink:href="#DejaVuSans-2c"/>
     <use x="477.636719" xlink:href="#DejaVuSans-20"/>
     <use x="509.423828" xlink:href="#DejaVuSans-34"/>
     <use x="573.046875" xlink:href="#DejaVuSans-30"/>
     <use x="636.669922" xlink:href="#DejaVuSans-2d"/>
     <use x="672.753906" xlink:href="#DejaVuSans-44"/>
    </g>
    <!-- 51 targets: 100..1e-08 -->
    <defs>
     <path d="M 10.796875 72.90625 
L 49.515625 72.90625 
L 49.515625 64.59375 
L 19.828125 64.59375 
L 19.828125 46.734375 
Q 21.96875 47.46875 24.109375 47.828125 
Q 26.265625 48.1875 28.421875 48.1875 
Q 40.625 48.1875 47.75 41.5 
Q 54.890625 34.8125 54.890625 23.390625 
Q 54.890625 11.625 47.5625 5.09375 
Q 40.234375 -1.421875 26.90625 -1.421875 
Q 22.3125 -1.421875 17.546875 -0.640625 
Q 12.796875 0.140625 7.71875 1.703125 
L 7.71875 11.625 
Q 12.109375 9.234375 16.796875 8.0625 
Q 21.484375 6.890625 26.703125 6.890625 
Q 35.15625 6.890625 40.078125 11.328125 
Q 45.015625 15.765625 45.015625 23.390625 
Q 45.015625 31 40.078125 35.4375 
Q 35.15625 39.890625 26.703125 39.890625 
Q 22.75 39.890625 18.8125 39.015625 
Q 14.890625 38.140625 10.796875 36.28125 
z
" id="DejaVuSans-35"/>
     <path d="M 11.71875 12.40625 
L 22.015625 12.40625 
L 22.015625 0 
L 11.71875 0 
z
M 11.71875 51.703125 
L 22.015625 51.703125 
L 22.015625 39.3125 
L 11.71875 39.3125 
z
" id="DejaVuSans-3a"/>
    </defs>
    <g transform="translate(58.89048 46.712575)scale(0.102 -0.102)">
     <use xlink:href="#DejaVuSans-35"/>
     <use x="63.623047" xlink:href="#DejaVuSans-31"/>
     <use x="127.246094" xlink:href="#DejaVuSans-20"/>
     <use x="159.033203" xlink:href="#DejaVuSans-74"/>
     <use x="198.242188" xlink:href="#DejaVuSans-61"/>
     <use x="259.521484" xlink:href="#DejaVuSans-72"/>
     <use x="300.619141" xlink:href="#DejaVuSans-67"/>
     <use x="364.095703" xlink:href="#DejaVuSans-65"/>
     <use x="425.619141" xlink:href="#DejaVuSans-74"/>
     <use x="464.828125" xlink:href="#DejaVuSans-73"/>
     <use x="516.927734" xlink:href="#DejaVuSans-3a"/>
     <use x="550.619141" xlink:href="#DejaVuSans-20"/>
     <use x="582.40625" xlink:href="#DejaVuSans-31"/>
     <use x="646.029297" xlink:href="#DejaVuSans-30"/>
     <use x="709.652344" xlink:href="#DejaVuSans-30"/>
     <use x="773.275391" xlink:href="#DejaVuSans-2e"/>
     <use x="805.0625" xlink:href="#DejaVuSans-2e"/>
     <use x="836.849609" xlink:href="#DejaVuSans-31"/>
     <use x="900.472656" xlink:href="#DejaVuSans-65"/>
     <use x="961.996094" xlink:href="#DejaVuSans-2d"/>
     <use x="998.080078" xlink:href="#DejaVuSans-30"/>
     <use x="1061.703125" xlink:href="#DejaVuSans-38"/>
    </g>
    <!-- 15 instances -->
    <g transform="translate(58.89048 58.134344)scale(0.102 -0.102)">
     <use xlink:href="#DejaVuSans-31"/>
     <use x="63.623047" xlink:href="#DejaVuSans-35"/>
     <use x="127.246094" xlink:href="#DejaVuSans-20"/>
     <use x="159.033203" xlink:href="#DejaVuSans-69"/>
     <use x="186.816406" xlink:href="#DejaVuSans-6e"/>
     <use x="250.195312" xlink:href="#DejaVuSans-73"/>
     <use x="302.294922" xlink:href="#DejaVuSans-74"/>
     <use x="341.503906" xlink:href="#DejaVuSans-61"/>
     <use x="402.783203" xlink:href="#DejaVuSans-6e"/>
     <use x="466.162109" xlink:href="#DejaVuSans-63"/>
     <use x="521.142578" xlink:href="#DejaVuSans-65"/>
     <use x="582.666016" xlink:href="#DejaVuSans-73"/>
    </g>
   </g>
   <g id="text_18">
    <!-- v0.0.0 -->
    <g style="fill:#808080;" transform="translate(178.96275 290.099912)scale(0.1 -0.1)">
     <use xlink:href="#DejaVuSans-76"/>
     <use x="59.179688" xlink:href="#DejaVuSans-30"/>
     <use x="122.802734" xlink:href="#DejaVuSans-2e"/>
     <use x="154.589844" xlink:href="#DejaVuSans-30"/>
     <use x="218.212891" xlink:href="#DejaVuSans-2e"/>
     <use x="250" xlink:href="#DejaVuSans-30"/>
    </g>
   </g>
   <g id="text_19">
    <!-- 12 Bent cigar -->
    <defs>
     <path d="M 19.671875 34.8125 
L 19.671875 8.109375 
L 35.5 8.109375 
Q 43.453125 8.109375 47.28125 11.40625 
Q 51.125 14.703125 51.125 21.484375 
Q 51.125 28.328125 47.28125 31.5625 
Q 43.453125 34.8125 35.5 34.8125 
z
M 19.671875 64.796875 
L 19.671875 42.828125 
L 34.28125 42.828125 
Q 41.5 42.828125 45.03125 45.53125 
Q 48.578125 48.25 48.578125 53.8125 
Q 48.578125 59.328125 45.03125 62.0625 
Q 41.5 64.796875 34.28125 64.796875 
z
M 9.8125 72.90625 
L 35.015625 72.90625 
Q 46.296875 72.90625 52.390625 68.21875 
Q 58.5 63.53125 58.5 54.890625 
Q 58.5 48.1875 55.375 44.234375 
Q 52.25 40.28125 46.1875 39.3125 
Q 53.46875 37.75 57.5 32.78125 
Q 61.53125 27.828125 61.53125 20.40625 
Q 61.53125 10.640625 54.890625 5.3125 
Q 48.25 0 35.984375 0 
L 9.8125 0 
z
" id="DejaVuSans-42"/>
    </defs>
    <g transform="translate(127.426812 18.84)scale(0.2 -0.2)">
     <use xlink:href="#DejaVuSans-31"/>
     <use x="63.623047" xlink:href="#DejaVuSans-32"/>
     <use x="127.246094" xlink:href="#DejaVuSans-20"/>
     <use x="159.033203" xlink:href="#DejaVuSans-42"/>
     <use x="227.636719" xlink:href="#DejaVuSans-65"/>
     <use x="289.160156" xlink:href="#DejaVuSans-6e"/>
     <use x="352.539062" xlink:href="#DejaVuSans-74"/>
     <use x="391.748047" xlink:href="#DejaVuSans-20"/>
     <use x="423.535156" xlink:href="#DejaVuSans-63"/>
     <use x="478.515625" xlink:href="#DejaVuSans-69"/>
     <use x="506.298828" xlink:href="#DejaVuSans-67"/>
     <use x="569.775391" xlink:href="#DejaVuSans-61"/>
     <use x="631.054688" xlink:href="#DejaVuSans-72"/>
    </g>
   </g>
  </g>
 </g>
 <defs>
  <clipPath id="p2299d8d1ed">
   <rect height="270.04" width="277.048" x="56.12" y="24.84"/>
  </clipPath>
 </defs>
</svg>
