<?xml version="1.0" encoding="utf-8" standalone="no"?>
<!DOCTYPE svg PUBLIC "-//W3C//DTD SVG 1.1//EN"
  "http://www.w3.org/Graphics/SVG/1.1/DTD/svg11.dtd">
<!-- Created with matplotlib (http://matplotlib.org/) -->
<svg height="345pt" version="1.1" viewBox="0 0 460 345" width="460pt" xmlns="http://www.w3.org/2000/svg" xmlns:xlink="http://www.w3.org/1999/xlink">
 <defs>
  <style type="text/css">
*{stroke-linecap:butt;stroke-linejoin:round;}
  </style>
 </defs>
 <g id="figure_1">
  <g id="patch_1">
   <path d="M 0 345.6 
L 460.8 345.6 
L 460.8 0 
L 0 0 
z
" style="fill:#ffffff;"/>
  </g>
  <g id="axes_1">
   <g id="patch_2">
    <path d="M 56.12 294.88 
L 333.168 294.88 
L 333.168 24.84 
L 56.12 24.84 
z
" style="fill:#ffffff;"/>
   </g>
   <g id="line2d_1">
    <path d="M 37.236359 294.88 
L 37.236359 284.395046 
L 56.12 284.395046 
L 56.12 279.152568 
L 64.900393 279.152568 
L 64.900393 273.910091 
L 75.003641 273.910091 
L 75.003641 268.667614 
L 86.917893 268.667614 
L 86.917893 263.425137 
L 97.336537 263.425137 
L 97.336537 258.18266 
L 108.176149 258.18266 
L 108.176149 252.940182 
L 113.599452 252.940182 
L 113.599452 247.697705 
L 123.247346 247.697705 
L 123.247346 242.455228 
L 125.513703 242.455228 
L 125.513703 237.212751 
L 136.439531 237.212751 
L 136.439531 231.970274 
L 137.018682 231.970274 
L 137.018682 226.727797 
L 137.070377 226.727797 
L 137.070377 221.485319 
L 137.926211 221.485319 
L 137.926211 216.242842 
L 138.121538 216.242842 
L 138.121538 211.000365 
L 138.218376 211.000365 
L 138.218376 205.757888 
L 138.266591 205.757888 
L 138.266591 200.515411 
L 138.314671 200.515411 
L 138.314671 195.272933 
L 138.362617 195.272933 
L 138.362617 190.030456 
L 138.505658 190.030456 
L 138.505658 184.787979 
L 138.553074 184.787979 
L 138.553074 179.545502 
L 138.600361 179.545502 
L 138.600361 174.303025 
L 138.788217 174.303025 
L 138.788217 169.060547 
L 139.43 169.060547 
L 139.43 163.81807 
L 139.519758 163.81807 
L 139.519758 158.575593 
L 139.742124 158.575593 
L 139.742124 153.333116 
L 139.786254 153.333116 
L 139.786254 148.090639 
L 139.830271 148.090639 
L 139.830271 142.848162 
L 139.917968 142.848162 
L 139.917968 137.605684 
L 140.00522 137.605684 
L 140.00522 132.363207 
L 140.048681 132.363207 
L 140.048681 121.878253 
L 140.135274 121.878253 
L 140.135274 116.635776 
L 140.26435 116.635776 
L 140.26435 106.150821 
L 140.349866 106.150821 
L 140.349866 100.908344 
L 140.434959 100.908344 
L 140.434959 95.665867 
L 140.477347 95.665867 
L 140.477347 90.42339 
L 140.561812 90.42339 
L 140.561812 85.180912 
L 140.60389 85.180912 
L 140.60389 79.938435 
L 140.645865 79.938435 
L 140.645865 74.695958 
L 140.687737 74.695958 
L 140.687737 69.453481 
L 140.729508 69.453481 
L 140.729508 64.211004 
L 140.771177 64.211004 
L 140.771177 58.968526 
L 140.812746 58.968526 
L 140.812746 53.726049 
L 140.854214 53.726049 
L 140.854214 48.483572 
L 140.936852 48.483572 
L 140.936852 37.998618 
L 140.978022 37.998618 
L 140.978022 32.756141 
L 143.604148 32.756141 
L 143.604148 27.513663 
L 333.168 27.513663 
" style="fill:none;stroke:#f5deb3;stroke-linecap:square;stroke-width:4;"/>
   </g>
   <g id="line2d_2">
    <defs>
     <path d="M -0 7.778175 
L 7.778175 0 
L 0 -7.778175 
L -7.778175 -0 
z
" id="md0125b79e6" style="stroke:#f5deb3;stroke-linejoin:miter;stroke-width:1.5;"/>
    </defs>
    <g>
     <use style="fill:#f5deb3;stroke:#f5deb3;stroke-linejoin:miter;stroke-width:1.5;" x="125.513703" xlink:href="#md0125b79e6" y="242.455228"/>
     <use style="fill:#f5deb3;stroke:#f5deb3;stroke-linejoin:miter;stroke-width:1.5;" x="140.048681" xlink:href="#md0125b79e6" y="132.363207"/>
     <use style="fill:#f5deb3;stroke:#f5deb3;stroke-linejoin:miter;stroke-width:1.5;" x="143.604148" xlink:href="#md0125b79e6" y="32.756141"/>
     <use style="fill:#f5deb3;stroke:#f5deb3;stroke-linejoin:miter;stroke-width:1.5;" x="143.604148" xlink:href="#md0125b79e6" y="27.513663"/>
     <use style="fill:#f5deb3;stroke:#f5deb3;stroke-linejoin:miter;stroke-width:1.5;" x="143.604148" xlink:href="#md0125b79e6" y="27.513663"/>
     <use style="fill:#f5deb3;stroke:#f5deb3;stroke-linejoin:miter;stroke-width:1.5;" x="333.168" xlink:href="#md0125b79e6" y="27.513663"/>
    </g>
   </g>
   <g id="line2d_3">
    <path style="fill:none;stroke:#f5deb3;stroke-linecap:square;stroke-width:4;"/>
    <g/>
   </g>
   <g id="line2d_4">
    <path d="M 333.168 27.513663 
L 363.64328 32.86099 
" style="fill:none;stroke:#f5deb3;stroke-linecap:square;stroke-width:4;"/>
    <g>
     <use style="fill:#f5deb3;stroke:#f5deb3;stroke-linejoin:miter;stroke-width:1.5;" x="333.168" xlink:href="#md0125b79e6" y="27.513663"/>
     <use style="fill:#f5deb3;stroke:#f5deb3;stroke-linejoin:miter;stroke-width:1.5;" x="363.64328" xlink:href="#md0125b79e6" y="32.86099"/>
    </g>
   </g>
   <g id="matplotlib.axis_1">
    <g id="xtick_1">
     <g id="line2d_5">
      <path clip-path="url(#p8f50c03072)" d="M 56.12 294.88 
L 56.12 24.84 
" style="fill:none;stroke:#b0b0b0;stroke-linecap:square;stroke-width:0.8;"/>
     </g>
     <g id="line2d_6">
      <defs>
       <path d="M 0 0 
L 0 3.5 
" id="mc6b8178cdd" style="stroke:#000000;stroke-width:0.8;"/>
      </defs>
      <g>
       <use style="stroke:#000000;stroke-width:0.8;" x="56.12" xlink:href="#mc6b8178cdd" y="294.88"/>
      </g>
     </g>
     <g id="text_1">
      <!-- 0 -->
      <defs>
       <path d="M 31.78125 66.40625 
Q 24.171875 66.40625 20.328125 58.90625 
Q 16.5 51.421875 16.5 36.375 
Q 16.5 21.390625 20.328125 13.890625 
Q 24.171875 6.390625 31.78125 6.390625 
Q 39.453125 6.390625 43.28125 13.890625 
Q 47.125 21.390625 47.125 36.375 
Q 47.125 51.421875 43.28125 58.90625 
Q 39.453125 66.40625 31.78125 66.40625 
z
M 31.78125 74.21875 
Q 44.046875 74.21875 50.515625 64.515625 
Q 56.984375 54.828125 56.984375 36.375 
Q 56.984375 17.96875 50.515625 8.265625 
Q 44.046875 -1.421875 31.78125 -1.421875 
Q 19.53125 -1.421875 13.0625 8.265625 
Q 6.59375 17.96875 6.59375 36.375 
Q 6.59375 54.828125 13.0625 64.515625 
Q 19.53125 74.21875 31.78125 74.21875 
z
" id="DejaVuSans-30"/>
      </defs>
      <g transform="translate(49.7575 317.076875)scale(0.2 -0.2)">
       <use xlink:href="#DejaVuSans-30"/>
      </g>
     </g>
    </g>
    <g id="xtick_2">
     <g id="line2d_7">
      <path clip-path="url(#p8f50c03072)" d="M 135.276571 294.88 
L 135.276571 24.84 
" style="fill:none;stroke:#b0b0b0;stroke-linecap:square;stroke-width:0.8;"/>
     </g>
     <g id="line2d_8">
      <g>
       <use style="stroke:#000000;stroke-width:0.8;" x="135.276571" xlink:href="#mc6b8178cdd" y="294.88"/>
      </g>
     </g>
     <g id="text_2">
      <!-- 2 -->
      <defs>
       <path d="M 19.1875 8.296875 
L 53.609375 8.296875 
L 53.609375 0 
L 7.328125 0 
L 7.328125 8.296875 
Q 12.9375 14.109375 22.625 23.890625 
Q 32.328125 33.6875 34.8125 36.53125 
Q 39.546875 41.84375 41.421875 45.53125 
Q 43.3125 49.21875 43.3125 52.78125 
Q 43.3125 58.59375 39.234375 62.25 
Q 35.15625 65.921875 28.609375 65.921875 
Q 23.96875 65.921875 18.8125 64.3125 
Q 13.671875 62.703125 7.8125 59.421875 
L 7.8125 69.390625 
Q 13.765625 71.78125 18.9375 73 
Q 24.125 74.21875 28.421875 74.21875 
Q 39.75 74.21875 46.484375 68.546875 
Q 53.21875 62.890625 53.21875 53.421875 
Q 53.21875 48.921875 51.53125 44.890625 
Q 49.859375 40.875 45.40625 35.40625 
Q 44.1875 33.984375 37.640625 27.21875 
Q 31.109375 20.453125 19.1875 8.296875 
z
" id="DejaVuSans-32"/>
      </defs>
      <g transform="translate(128.914071 317.076875)scale(0.2 -0.2)">
       <use xlink:href="#DejaVuSans-32"/>
      </g>
     </g>
    </g>
    <g id="xtick_3">
     <g id="line2d_9">
      <path clip-path="url(#p8f50c03072)" d="M 214.433143 294.88 
L 214.433143 24.84 
" style="fill:none;stroke:#b0b0b0;stroke-linecap:square;stroke-width:0.8;"/>
     </g>
     <g id="line2d_10">
      <g>
       <use style="stroke:#000000;stroke-width:0.8;" x="214.433143" xlink:href="#mc6b8178cdd" y="294.88"/>
      </g>
     </g>
     <g id="text_3">
      <!-- 4 -->
      <defs>
       <path d="M 37.796875 64.3125 
L 12.890625 25.390625 
L 37.796875 25.390625 
z
M 35.203125 72.90625 
L 47.609375 72.90625 
L 47.609375 25.390625 
L 58.015625 25.390625 
L 58.015625 17.1875 
L 47.609375 17.1875 
L 47.609375 0 
L 37.796875 0 
L 37.796875 17.1875 
L 4.890625 17.1875 
L 4.890625 26.703125 
z
" id="DejaVuSans-34"/>
      </defs>
      <g transform="translate(208.070643 317.076875)scale(0.2 -0.2)">
       <use xlink:href="#DejaVuSans-34"/>
      </g>
     </g>
    </g>
    <g id="xtick_4">
     <g id="line2d_11">
      <path clip-path="url(#p8f50c03072)" d="M 293.589714 294.88 
L 293.589714 24.84 
" style="fill:none;stroke:#b0b0b0;stroke-linecap:square;stroke-width:0.8;"/>
     </g>
     <g id="line2d_12">
      <g>
       <use style="stroke:#000000;stroke-width:0.8;" x="293.589714" xlink:href="#mc6b8178cdd" y="294.88"/>
      </g>
     </g>
     <g id="text_4">
      <!-- 6 -->
      <defs>
       <path d="M 33.015625 40.375 
Q 26.375 40.375 22.484375 35.828125 
Q 18.609375 31.296875 18.609375 23.390625 
Q 18.609375 15.53125 22.484375 10.953125 
Q 26.375 6.390625 33.015625 6.390625 
Q 39.65625 6.390625 43.53125 10.953125 
Q 47.40625 15.53125 47.40625 23.390625 
Q 47.40625 31.296875 43.53125 35.828125 
Q 39.65625 40.375 33.015625 40.375 
z
M 52.59375 71.296875 
L 52.59375 62.3125 
Q 48.875 64.0625 45.09375 64.984375 
Q 41.3125 65.921875 37.59375 65.921875 
Q 27.828125 65.921875 22.671875 59.328125 
Q 17.53125 52.734375 16.796875 39.40625 
Q 19.671875 43.65625 24.015625 45.921875 
Q 28.375 48.1875 33.59375 48.1875 
Q 44.578125 48.1875 50.953125 41.515625 
Q 57.328125 34.859375 57.328125 23.390625 
Q 57.328125 12.15625 50.6875 5.359375 
Q 44.046875 -1.421875 33.015625 -1.421875 
Q 20.359375 -1.421875 13.671875 8.265625 
Q 6.984375 17.96875 6.984375 36.375 
Q 6.984375 53.65625 15.1875 63.9375 
Q 23.390625 74.21875 37.203125 74.21875 
Q 40.921875 74.21875 44.703125 73.484375 
Q 48.484375 72.75 52.59375 71.296875 
z
" id="DejaVuSans-36"/>
      </defs>
      <g transform="translate(287.227214 317.076875)scale(0.2 -0.2)">
       <use xlink:href="#DejaVuSans-36"/>
      </g>
     </g>
    </g>
    <g id="xtick_5">
     <g id="line2d_13">
      <path clip-path="url(#p8f50c03072)" d="M 56.12 294.88 
L 56.12 24.84 
" style="fill:none;stroke:#b0b0b0;stroke-linecap:square;stroke-width:0.8;"/>
     </g>
     <g id="line2d_14">
      <defs>
       <path d="M 0 0 
L 0 2 
" id="m0ddded80fc" style="stroke:#000000;stroke-width:0.6;"/>
      </defs>
      <g>
       <use style="stroke:#000000;stroke-width:0.6;" x="56.12" xlink:href="#m0ddded80fc" y="294.88"/>
      </g>
     </g>
    </g>
    <g id="xtick_6">
     <g id="line2d_15">
      <path clip-path="url(#p8f50c03072)" d="M 95.698286 294.88 
L 95.698286 24.84 
" style="fill:none;stroke:#b0b0b0;stroke-linecap:square;stroke-width:0.8;"/>
     </g>
     <g id="line2d_16">
      <g>
       <use style="stroke:#000000;stroke-width:0.6;" x="95.698286" xlink:href="#m0ddded80fc" y="294.88"/>
      </g>
     </g>
    </g>
    <g id="xtick_7">
     <g id="line2d_17">
      <path clip-path="url(#p8f50c03072)" d="M 135.276571 294.88 
L 135.276571 24.84 
" style="fill:none;stroke:#b0b0b0;stroke-linecap:square;stroke-width:0.8;"/>
     </g>
     <g id="line2d_18">
      <g>
       <use style="stroke:#000000;stroke-width:0.6;" x="135.276571" xlink:href="#m0ddded80fc" y="294.88"/>
      </g>
     </g>
    </g>
    <g id="xtick_8">
     <g id="line2d_19">
      <path clip-path="url(#p8f50c03072)" d="M 174.854857 294.88 
L 174.854857 24.84 
" style="fill:none;stroke:#b0b0b0;stroke-linecap:square;stroke-width:0.8;"/>
     </g>
     <g id="line2d_20">
      <g>
       <use style="stroke:#000000;stroke-width:0.6;" x="174.854857" xlink:href="#m0ddded80fc" y="294.88"/>
      </g>
     </g>
    </g>
    <g id="xtick_9">
     <g id="line2d_21">
      <path clip-path="url(#p8f50c03072)" d="M 214.433143 294.88 
L 214.433143 24.84 
" style="fill:none;stroke:#b0b0b0;stroke-linecap:square;stroke-width:0.8;"/>
     </g>
     <g id="line2d_22">
      <g>
       <use style="stroke:#000000;stroke-width:0.6;" x="214.433143" xlink:href="#m0ddded80fc" y="294.88"/>
      </g>
     </g>
    </g>
    <g id="xtick_10">
     <g id="line2d_23">
      <path clip-path="url(#p8f50c03072)" d="M 254.011429 294.88 
L 254.011429 24.84 
" style="fill:none;stroke:#b0b0b0;stroke-linecap:square;stroke-width:0.8;"/>
     </g>
     <g id="line2d_24">
      <g>
       <use style="stroke:#000000;stroke-width:0.6;" x="254.011429" xlink:href="#m0ddded80fc" y="294.88"/>
      </g>
     </g>
    </g>
    <g id="xtick_11">
     <g id="line2d_25">
      <path clip-path="url(#p8f50c03072)" d="M 293.589714 294.88 
L 293.589714 24.84 
" style="fill:none;stroke:#b0b0b0;stroke-linecap:square;stroke-width:0.8;"/>
     </g>
     <g id="line2d_26">
      <g>
       <use style="stroke:#000000;stroke-width:0.6;" x="293.589714" xlink:href="#m0ddded80fc" y="294.88"/>
      </g>
     </g>
    </g>
    <g id="xtick_12">
     <g id="line2d_27">
      <path clip-path="url(#p8f50c03072)" d="M 333.168 294.88 
L 333.168 24.84 
" style="fill:none;stroke:#b0b0b0;stroke-linecap:square;stroke-width:0.8;"/>
     </g>
     <g id="line2d_28">
      <g>
       <use style="stroke:#000000;stroke-width:0.6;" x="333.168" xlink:href="#m0ddded80fc" y="294.88"/>
      </g>
     </g>
    </g>
    <g id="text_5">
     <!-- log10(# f-evals / dimension) -->
     <defs>
      <path d="M 9.421875 75.984375 
L 18.40625 75.984375 
L 18.40625 0 
L 9.421875 0 
z
" id="DejaVuSans-6c"/>
      <path d="M 30.609375 48.390625 
Q 23.390625 48.390625 19.1875 42.75 
Q 14.984375 37.109375 14.984375 27.296875 
Q 14.984375 17.484375 19.15625 11.84375 
Q 23.34375 6.203125 30.609375 6.203125 
Q 37.796875 6.203125 41.984375 11.859375 
Q 46.1875 17.53125 46.1875 27.296875 
Q 46.1875 37.015625 41.984375 42.703125 
Q 37.796875 48.390625 30.609375 48.390625 
z
M 30.609375 56 
Q 42.328125 56 49.015625 48.375 
Q 55.71875 40.765625 55.71875 27.296875 
Q 55.71875 13.875 49.015625 6.21875 
Q 42.328125 -1.421875 30.609375 -1.421875 
Q 18.84375 -1.421875 12.171875 6.21875 
Q 5.515625 13.875 5.515625 27.296875 
Q 5.515625 40.765625 12.171875 48.375 
Q 18.84375 56 30.609375 56 
z
" id="DejaVuSans-6f"/>
      <path d="M 45.40625 27.984375 
Q 45.40625 37.75 41.375 43.109375 
Q 37.359375 48.484375 30.078125 48.484375 
Q 22.859375 48.484375 18.828125 43.109375 
Q 14.796875 37.75 14.796875 27.984375 
Q 14.796875 18.265625 18.828125 12.890625 
Q 22.859375 7.515625 30.078125 7.515625 
Q 37.359375 7.515625 41.375 12.890625 
Q 45.40625 18.265625 45.40625 27.984375 
z
M 54.390625 6.78125 
Q 54.390625 -7.171875 48.1875 -13.984375 
Q 42 -20.796875 29.203125 -20.796875 
Q 24.46875 -20.796875 20.265625 -20.09375 
Q 16.0625 -19.390625 12.109375 -17.921875 
L 12.109375 -9.1875 
Q 16.0625 -11.328125 19.921875 -12.34375 
Q 23.78125 -13.375 27.78125 -13.375 
Q 36.625 -13.375 41.015625 -8.765625 
Q 45.40625 -4.15625 45.40625 5.171875 
L 45.40625 9.625 
Q 42.625 4.78125 38.28125 2.390625 
Q 33.9375 0 27.875 0 
Q 17.828125 0 11.671875 7.65625 
Q 5.515625 15.328125 5.515625 27.984375 
Q 5.515625 40.671875 11.671875 48.328125 
Q 17.828125 56 27.875 56 
Q 33.9375 56 38.28125 53.609375 
Q 42.625 51.21875 45.40625 46.390625 
L 45.40625 54.6875 
L 54.390625 54.6875 
z
" id="DejaVuSans-67"/>
      <path d="M 12.40625 8.296875 
L 28.515625 8.296875 
L 28.515625 63.921875 
L 10.984375 60.40625 
L 10.984375 69.390625 
L 28.421875 72.90625 
L 38.28125 72.90625 
L 38.28125 8.296875 
L 54.390625 8.296875 
L 54.390625 0 
L 12.40625 0 
z
" id="DejaVuSans-31"/>
      <path d="M 31 75.875 
Q 24.46875 64.65625 21.28125 53.65625 
Q 18.109375 42.671875 18.109375 31.390625 
Q 18.109375 20.125 21.3125 9.0625 
Q 24.515625 -2 31 -13.1875 
L 23.1875 -13.1875 
Q 15.875 -1.703125 12.234375 9.375 
Q 8.59375 20.453125 8.59375 31.390625 
Q 8.59375 42.28125 12.203125 53.3125 
Q 15.828125 64.359375 23.1875 75.875 
z
" id="DejaVuSans-28"/>
      <path d="M 51.125 44 
L 36.921875 44 
L 32.8125 27.6875 
L 47.125 27.6875 
z
M 43.796875 71.78125 
L 38.71875 51.515625 
L 52.984375 51.515625 
L 58.109375 71.78125 
L 65.921875 71.78125 
L 60.890625 51.515625 
L 76.125 51.515625 
L 76.125 44 
L 58.984375 44 
L 54.984375 27.6875 
L 70.515625 27.6875 
L 70.515625 20.21875 
L 53.078125 20.21875 
L 48 0 
L 40.1875 0 
L 45.21875 20.21875 
L 30.90625 20.21875 
L 25.875 0 
L 18.015625 0 
L 23.09375 20.21875 
L 7.71875 20.21875 
L 7.71875 27.6875 
L 24.90625 27.6875 
L 29 44 
L 13.28125 44 
L 13.28125 51.515625 
L 30.90625 51.515625 
L 35.890625 71.78125 
z
" id="DejaVuSans-23"/>
      <path id="DejaVuSans-20"/>
      <path d="M 37.109375 75.984375 
L 37.109375 68.5 
L 28.515625 68.5 
Q 23.6875 68.5 21.796875 66.546875 
Q 19.921875 64.59375 19.921875 59.515625 
L 19.921875 54.6875 
L 34.71875 54.6875 
L 34.71875 47.703125 
L 19.921875 47.703125 
L 19.921875 0 
L 10.890625 0 
L 10.890625 47.703125 
L 2.296875 47.703125 
L 2.296875 54.6875 
L 10.890625 54.6875 
L 10.890625 58.5 
Q 10.890625 67.625 15.140625 71.796875 
Q 19.390625 75.984375 28.609375 75.984375 
z
" id="DejaVuSans-66"/>
      <path d="M 4.890625 31.390625 
L 31.203125 31.390625 
L 31.203125 23.390625 
L 4.890625 23.390625 
z
" id="DejaVuSans-2d"/>
      <path d="M 56.203125 29.59375 
L 56.203125 25.203125 
L 14.890625 25.203125 
Q 15.484375 15.921875 20.484375 11.0625 
Q 25.484375 6.203125 34.421875 6.203125 
Q 39.59375 6.203125 44.453125 7.46875 
Q 49.3125 8.734375 54.109375 11.28125 
L 54.109375 2.78125 
Q 49.265625 0.734375 44.1875 -0.34375 
Q 39.109375 -1.421875 33.890625 -1.421875 
Q 20.796875 -1.421875 13.15625 6.1875 
Q 5.515625 13.8125 5.515625 26.8125 
Q 5.515625 40.234375 12.765625 48.109375 
Q 20.015625 56 32.328125 56 
Q 43.359375 56 49.78125 48.890625 
Q 56.203125 41.796875 56.203125 29.59375 
z
M 47.21875 32.234375 
Q 47.125 39.59375 43.09375 43.984375 
Q 39.0625 48.390625 32.421875 48.390625 
Q 24.90625 48.390625 20.390625 44.140625 
Q 15.875 39.890625 15.1875 32.171875 
z
" id="DejaVuSans-65"/>
      <path d="M 2.984375 54.6875 
L 12.5 54.6875 
L 29.59375 8.796875 
L 46.6875 54.6875 
L 56.203125 54.6875 
L 35.6875 0 
L 23.484375 0 
z
" id="DejaVuSans-76"/>
      <path d="M 34.28125 27.484375 
Q 23.390625 27.484375 19.1875 25 
Q 14.984375 22.515625 14.984375 16.5 
Q 14.984375 11.71875 18.140625 8.90625 
Q 21.296875 6.109375 26.703125 6.109375 
Q 34.1875 6.109375 38.703125 11.40625 
Q 43.21875 16.703125 43.21875 25.484375 
L 43.21875 27.484375 
z
M 52.203125 31.203125 
L 52.203125 0 
L 43.21875 0 
L 43.21875 8.296875 
Q 40.140625 3.328125 35.546875 0.953125 
Q 30.953125 -1.421875 24.3125 -1.421875 
Q 15.921875 -1.421875 10.953125 3.296875 
Q 6 8.015625 6 15.921875 
Q 6 25.140625 12.171875 29.828125 
Q 18.359375 34.515625 30.609375 34.515625 
L 43.21875 34.515625 
L 43.21875 35.40625 
Q 43.21875 41.609375 39.140625 45 
Q 35.0625 48.390625 27.6875 48.390625 
Q 23 48.390625 18.546875 47.265625 
Q 14.109375 46.140625 10.015625 43.890625 
L 10.015625 52.203125 
Q 14.9375 54.109375 19.578125 55.046875 
Q 24.21875 56 28.609375 56 
Q 40.484375 56 46.34375 49.84375 
Q 52.203125 43.703125 52.203125 31.203125 
z
" id="DejaVuSans-61"/>
      <path d="M 44.28125 53.078125 
L 44.28125 44.578125 
Q 40.484375 46.53125 36.375 47.5 
Q 32.28125 48.484375 27.875 48.484375 
Q 21.1875 48.484375 17.84375 46.4375 
Q 14.5 44.390625 14.5 40.28125 
Q 14.5 37.15625 16.890625 35.375 
Q 19.28125 33.59375 26.515625 31.984375 
L 29.59375 31.296875 
Q 39.15625 29.25 43.1875 25.515625 
Q 47.21875 21.78125 47.21875 15.09375 
Q 47.21875 7.46875 41.1875 3.015625 
Q 35.15625 -1.421875 24.609375 -1.421875 
Q 20.21875 -1.421875 15.453125 -0.5625 
Q 10.6875 0.296875 5.421875 2 
L 5.421875 11.28125 
Q 10.40625 8.6875 15.234375 7.390625 
Q 20.0625 6.109375 24.8125 6.109375 
Q 31.15625 6.109375 34.5625 8.28125 
Q 37.984375 10.453125 37.984375 14.40625 
Q 37.984375 18.0625 35.515625 20.015625 
Q 33.0625 21.96875 24.703125 23.78125 
L 21.578125 24.515625 
Q 13.234375 26.265625 9.515625 29.90625 
Q 5.8125 33.546875 5.8125 39.890625 
Q 5.8125 47.609375 11.28125 51.796875 
Q 16.75 56 26.8125 56 
Q 31.78125 56 36.171875 55.265625 
Q 40.578125 54.546875 44.28125 53.078125 
z
" id="DejaVuSans-73"/>
      <path d="M 25.390625 72.90625 
L 33.6875 72.90625 
L 8.296875 -9.28125 
L 0 -9.28125 
z
" id="DejaVuSans-2f"/>
      <path d="M 45.40625 46.390625 
L 45.40625 75.984375 
L 54.390625 75.984375 
L 54.390625 0 
L 45.40625 0 
L 45.40625 8.203125 
Q 42.578125 3.328125 38.25 0.953125 
Q 33.9375 -1.421875 27.875 -1.421875 
Q 17.96875 -1.421875 11.734375 6.484375 
Q 5.515625 14.40625 5.515625 27.296875 
Q 5.515625 40.1875 11.734375 48.09375 
Q 17.96875 56 27.875 56 
Q 33.9375 56 38.25 53.625 
Q 42.578125 51.265625 45.40625 46.390625 
z
M 14.796875 27.296875 
Q 14.796875 17.390625 18.875 11.75 
Q 22.953125 6.109375 30.078125 6.109375 
Q 37.203125 6.109375 41.296875 11.75 
Q 45.40625 17.390625 45.40625 27.296875 
Q 45.40625 37.203125 41.296875 42.84375 
Q 37.203125 48.484375 30.078125 48.484375 
Q 22.953125 48.484375 18.875 42.84375 
Q 14.796875 37.203125 14.796875 27.296875 
z
" id="DejaVuSans-64"/>
      <path d="M 9.421875 54.6875 
L 18.40625 54.6875 
L 18.40625 0 
L 9.421875 0 
z
M 9.421875 75.984375 
L 18.40625 75.984375 
L 18.40625 64.59375 
L 9.421875 64.59375 
z
" id="DejaVuSans-69"/>
      <path d="M 52 44.1875 
Q 55.375 50.25 60.0625 53.125 
Q 64.75 56 71.09375 56 
Q 79.640625 56 84.28125 50.015625 
Q 88.921875 44.046875 88.921875 33.015625 
L 88.921875 0 
L 79.890625 0 
L 79.890625 32.71875 
Q 79.890625 40.578125 77.09375 44.375 
Q 74.3125 48.1875 68.609375 48.1875 
Q 61.625 48.1875 57.5625 43.546875 
Q 53.515625 38.921875 53.515625 30.90625 
L 53.515625 0 
L 44.484375 0 
L 44.484375 32.71875 
Q 44.484375 40.625 41.703125 44.40625 
Q 38.921875 48.1875 33.109375 48.1875 
Q 26.21875 48.1875 22.15625 43.53125 
Q 18.109375 38.875 18.109375 30.90625 
L 18.109375 0 
L 9.078125 0 
L 9.078125 54.6875 
L 18.109375 54.6875 
L 18.109375 46.1875 
Q 21.1875 51.21875 25.484375 53.609375 
Q 29.78125 56 35.6875 56 
Q 41.65625 56 45.828125 52.96875 
Q 50 49.953125 52 44.1875 
z
" id="DejaVuSans-6d"/>
      <path d="M 54.890625 33.015625 
L 54.890625 0 
L 45.90625 0 
L 45.90625 32.71875 
Q 45.90625 40.484375 42.875 44.328125 
Q 39.84375 48.1875 33.796875 48.1875 
Q 26.515625 48.1875 22.3125 43.546875 
Q 18.109375 38.921875 18.109375 30.90625 
L 18.109375 0 
L 9.078125 0 
L 9.078125 54.6875 
L 18.109375 54.6875 
L 18.109375 46.1875 
Q 21.34375 51.125 25.703125 53.5625 
Q 30.078125 56 35.796875 56 
Q 45.21875 56 50.046875 50.171875 
Q 54.890625 44.34375 54.890625 33.015625 
z
" id="DejaVuSans-6e"/>
      <path d="M 8.015625 75.875 
L 15.828125 75.875 
Q 23.140625 64.359375 26.78125 53.3125 
Q 30.421875 42.28125 30.421875 31.390625 
Q 30.421875 20.453125 26.78125 9.375 
Q 23.140625 -1.703125 15.828125 -13.1875 
L 8.015625 -13.1875 
Q 14.5 -2 17.703125 9.0625 
Q 20.90625 20.125 20.90625 31.390625 
Q 20.90625 42.671875 17.703125 53.65625 
Q 14.5 64.65625 8.015625 75.875 
z
" id="DejaVuSans-29"/>
     </defs>
     <g transform="translate(73.803219 338.153594)scale(0.17 -0.17)">
      <use xlink:href="#DejaVuSans-6c"/>
      <use x="27.783203" xlink:href="#DejaVuSans-6f"/>
      <use x="88.964844" xlink:href="#DejaVuSans-67"/>
      <use x="152.441406" xlink:href="#DejaVuSans-31"/>
      <use x="216.064453" xlink:href="#DejaVuSans-30"/>
      <use x="279.6875" xlink:href="#DejaVuSans-28"/>
      <use x="318.701172" xlink:href="#DejaVuSans-23"/>
      <use x="402.490234" xlink:href="#DejaVuSans-20"/>
      <use x="434.277344" xlink:href="#DejaVuSans-66"/>
      <use x="469.404297" xlink:href="#DejaVuSans-2d"/>
      <use x="505.488281" xlink:href="#DejaVuSans-65"/>
      <use x="567.011719" xlink:href="#DejaVuSans-76"/>
      <use x="626.191406" xlink:href="#DejaVuSans-61"/>
      <use x="687.470703" xlink:href="#DejaVuSans-6c"/>
      <use x="715.253906" xlink:href="#DejaVuSans-73"/>
      <use x="767.353516" xlink:href="#DejaVuSans-20"/>
      <use x="799.140625" xlink:href="#DejaVuSans-2f"/>
      <use x="832.832031" xlink:href="#DejaVuSans-20"/>
      <use x="864.619141" xlink:href="#DejaVuSans-64"/>
      <use x="928.095703" xlink:href="#DejaVuSans-69"/>
      <use x="955.878906" xlink:href="#DejaVuSans-6d"/>
      <use x="1053.291016" xlink:href="#DejaVuSans-65"/>
      <use x="1114.814453" xlink:href="#DejaVuSans-6e"/>
      <use x="1178.193359" xlink:href="#DejaVuSans-73"/>
      <use x="1230.292969" xlink:href="#DejaVuSans-69"/>
      <use x="1258.076172" xlink:href="#DejaVuSans-6f"/>
      <use x="1319.257812" xlink:href="#DejaVuSans-6e"/>
      <use x="1382.636719" xlink:href="#DejaVuSans-29"/>
     </g>
    </g>
   </g>
   <g id="matplotlib.axis_2">
    <g id="ytick_1">
     <g id="line2d_29">
      <path clip-path="url(#p8f50c03072)" d="M 56.12 294.88 
L 333.168 294.88 
" style="fill:none;stroke:#b0b0b0;stroke-linecap:square;stroke-width:0.8;"/>
     </g>
     <g id="line2d_30">
      <defs>
       <path d="M 0 0 
L -3.5 0 
" id="mf7f0811757" style="stroke:#000000;stroke-width:0.8;"/>
      </defs>
      <g>
       <use style="stroke:#000000;stroke-width:0.8;" x="56.12" xlink:href="#mf7f0811757" y="294.88"/>
      </g>
     </g>
     <g id="text_6">
      <!-- 0.0 -->
      <defs>
       <path d="M 10.6875 12.40625 
L 21 12.40625 
L 21 0 
L 10.6875 0 
z
" id="DejaVuSans-2e"/>
      </defs>
      <g transform="translate(23.675 300.95875)scale(0.16 -0.16)">
       <use xlink:href="#DejaVuSans-30"/>
       <use x="63.623047" xlink:href="#DejaVuSans-2e"/>
       <use x="95.410156" xlink:href="#DejaVuSans-30"/>
      </g>
     </g>
    </g>
    <g id="ytick_2">
     <g id="line2d_31">
      <path clip-path="url(#p8f50c03072)" d="M 56.12 241.406733 
L 333.168 241.406733 
" style="fill:none;stroke:#b0b0b0;stroke-linecap:square;stroke-width:0.8;"/>
     </g>
     <g id="line2d_32">
      <g>
       <use style="stroke:#000000;stroke-width:0.8;" x="56.12" xlink:href="#mf7f0811757" y="241.406733"/>
      </g>
     </g>
     <g id="text_7">
      <!-- 0.2 -->
      <g transform="translate(23.675 247.485483)scale(0.16 -0.16)">
       <use xlink:href="#DejaVuSans-30"/>
       <use x="63.623047" xlink:href="#DejaVuSans-2e"/>
       <use x="95.410156" xlink:href="#DejaVuSans-32"/>
      </g>
     </g>
    </g>
    <g id="ytick_3">
     <g id="line2d_33">
      <path clip-path="url(#p8f50c03072)" d="M 56.12 187.933465 
L 333.168 187.933465 
" style="fill:none;stroke:#b0b0b0;stroke-linecap:square;stroke-width:0.8;"/>
     </g>
     <g id="line2d_34">
      <g>
       <use style="stroke:#000000;stroke-width:0.8;" x="56.12" xlink:href="#mf7f0811757" y="187.933465"/>
      </g>
     </g>
     <g id="text_8">
      <!-- 0.4 -->
      <g transform="translate(23.675 194.012215)scale(0.16 -0.16)">
       <use xlink:href="#DejaVuSans-30"/>
       <use x="63.623047" xlink:href="#DejaVuSans-2e"/>
       <use x="95.410156" xlink:href="#DejaVuSans-34"/>
      </g>
     </g>
    </g>
    <g id="ytick_4">
     <g id="line2d_35">
      <path clip-path="url(#p8f50c03072)" d="M 56.12 134.460198 
L 333.168 134.460198 
" style="fill:none;stroke:#b0b0b0;stroke-linecap:square;stroke-width:0.8;"/>
     </g>
     <g id="line2d_36">
      <g>
       <use style="stroke:#000000;stroke-width:0.8;" x="56.12" xlink:href="#mf7f0811757" y="134.460198"/>
      </g>
     </g>
     <g id="text_9">
      <!-- 0.6 -->
      <g transform="translate(23.675 140.538948)scale(0.16 -0.16)">
       <use xlink:href="#DejaVuSans-30"/>
       <use x="63.623047" xlink:href="#DejaVuSans-2e"/>
       <use x="95.410156" xlink:href="#DejaVuSans-36"/>
      </g>
     </g>
    </g>
    <g id="ytick_5">
     <g id="line2d_37">
      <path clip-path="url(#p8f50c03072)" d="M 56.12 80.986931 
L 333.168 80.986931 
" style="fill:none;stroke:#b0b0b0;stroke-linecap:square;stroke-width:0.8;"/>
     </g>
     <g id="line2d_38">
      <g>
       <use style="stroke:#000000;stroke-width:0.8;" x="56.12" xlink:href="#mf7f0811757" y="80.986931"/>
      </g>
     </g>
     <g id="text_10">
      <!-- 0.8 -->
      <defs>
       <path d="M 31.78125 34.625 
Q 24.75 34.625 20.71875 30.859375 
Q 16.703125 27.09375 16.703125 20.515625 
Q 16.703125 13.921875 20.71875 10.15625 
Q 24.75 6.390625 31.78125 6.390625 
Q 38.8125 6.390625 42.859375 10.171875 
Q 46.921875 13.96875 46.921875 20.515625 
Q 46.921875 27.09375 42.890625 30.859375 
Q 38.875 34.625 31.78125 34.625 
z
M 21.921875 38.8125 
Q 15.578125 40.375 12.03125 44.71875 
Q 8.5 49.078125 8.5 55.328125 
Q 8.5 64.0625 14.71875 69.140625 
Q 20.953125 74.21875 31.78125 74.21875 
Q 42.671875 74.21875 48.875 69.140625 
Q 55.078125 64.0625 55.078125 55.328125 
Q 55.078125 49.078125 51.53125 44.71875 
Q 48 40.375 41.703125 38.8125 
Q 48.828125 37.15625 52.796875 32.3125 
Q 56.78125 27.484375 56.78125 20.515625 
Q 56.78125 9.90625 50.3125 4.234375 
Q 43.84375 -1.421875 31.78125 -1.421875 
Q 19.734375 -1.421875 13.25 4.234375 
Q 6.78125 9.90625 6.78125 20.515625 
Q 6.78125 27.484375 10.78125 32.3125 
Q 14.796875 37.15625 21.921875 38.8125 
z
M 18.3125 54.390625 
Q 18.3125 48.734375 21.84375 45.5625 
Q 25.390625 42.390625 31.78125 42.390625 
Q 38.140625 42.390625 41.71875 45.5625 
Q 45.3125 48.734375 45.3125 54.390625 
Q 45.3125 60.0625 41.71875 63.234375 
Q 38.140625 66.40625 31.78125 66.40625 
Q 25.390625 66.40625 21.84375 63.234375 
Q 18.3125 60.0625 18.3125 54.390625 
z
" id="DejaVuSans-38"/>
      </defs>
      <g transform="translate(23.675 87.065681)scale(0.16 -0.16)">
       <use xlink:href="#DejaVuSans-30"/>
       <use x="63.623047" xlink:href="#DejaVuSans-2e"/>
       <use x="95.410156" xlink:href="#DejaVuSans-38"/>
      </g>
     </g>
    </g>
    <g id="ytick_6">
     <g id="line2d_39">
      <path clip-path="url(#p8f50c03072)" d="M 56.12 27.513663 
L 333.168 27.513663 
" style="fill:none;stroke:#b0b0b0;stroke-linecap:square;stroke-width:0.8;"/>
     </g>
     <g id="line2d_40">
      <g>
       <use style="stroke:#000000;stroke-width:0.8;" x="56.12" xlink:href="#mf7f0811757" y="27.513663"/>
      </g>
     </g>
     <g id="text_11">
      <!-- 1.0 -->
      <g transform="translate(23.675 33.592413)scale(0.16 -0.16)">
       <use xlink:href="#DejaVuSans-31"/>
       <use x="63.623047" xlink:href="#DejaVuSans-2e"/>
       <use x="95.410156" xlink:href="#DejaVuSans-30"/>
      </g>
     </g>
    </g>
    <g id="text_12">
     <!-- Fraction of function,target pairs -->
     <defs>
      <path d="M 9.8125 72.90625 
L 51.703125 72.90625 
L 51.703125 64.59375 
L 19.671875 64.59375 
L 19.671875 43.109375 
L 48.578125 43.109375 
L 48.578125 34.8125 
L 19.671875 34.8125 
L 19.671875 0 
L 9.8125 0 
z
" id="DejaVuSans-46"/>
      <path d="M 41.109375 46.296875 
Q 39.59375 47.171875 37.8125 47.578125 
Q 36.03125 48 33.890625 48 
Q 26.265625 48 22.1875 43.046875 
Q 18.109375 38.09375 18.109375 28.8125 
L 18.109375 0 
L 9.078125 0 
L 9.078125 54.6875 
L 18.109375 54.6875 
L 18.109375 46.1875 
Q 20.953125 51.171875 25.484375 53.578125 
Q 30.03125 56 36.53125 56 
Q 37.453125 56 38.578125 55.875 
Q 39.703125 55.765625 41.0625 55.515625 
z
" id="DejaVuSans-72"/>
      <path d="M 48.78125 52.59375 
L 48.78125 44.1875 
Q 44.96875 46.296875 41.140625 47.34375 
Q 37.3125 48.390625 33.40625 48.390625 
Q 24.65625 48.390625 19.8125 42.84375 
Q 14.984375 37.3125 14.984375 27.296875 
Q 14.984375 17.28125 19.8125 11.734375 
Q 24.65625 6.203125 33.40625 6.203125 
Q 37.3125 6.203125 41.140625 7.25 
Q 44.96875 8.296875 48.78125 10.40625 
L 48.78125 2.09375 
Q 45.015625 0.34375 40.984375 -0.53125 
Q 36.96875 -1.421875 32.421875 -1.421875 
Q 20.0625 -1.421875 12.78125 6.34375 
Q 5.515625 14.109375 5.515625 27.296875 
Q 5.515625 40.671875 12.859375 48.328125 
Q 20.21875 56 33.015625 56 
Q 37.15625 56 41.109375 55.140625 
Q 45.0625 54.296875 48.78125 52.59375 
z
" id="DejaVuSans-63"/>
      <path d="M 18.3125 70.21875 
L 18.3125 54.6875 
L 36.8125 54.6875 
L 36.8125 47.703125 
L 18.3125 47.703125 
L 18.3125 18.015625 
Q 18.3125 11.328125 20.140625 9.421875 
Q 21.96875 7.515625 27.59375 7.515625 
L 36.8125 7.515625 
L 36.8125 0 
L 27.59375 0 
Q 17.1875 0 13.234375 3.875 
Q 9.28125 7.765625 9.28125 18.015625 
L 9.28125 47.703125 
L 2.6875 47.703125 
L 2.6875 54.6875 
L 9.28125 54.6875 
L 9.28125 70.21875 
z
" id="DejaVuSans-74"/>
      <path d="M 8.5 21.578125 
L 8.5 54.6875 
L 17.484375 54.6875 
L 17.484375 21.921875 
Q 17.484375 14.15625 20.5 10.265625 
Q 23.53125 6.390625 29.59375 6.390625 
Q 36.859375 6.390625 41.078125 11.03125 
Q 45.3125 15.671875 45.3125 23.6875 
L 45.3125 54.6875 
L 54.296875 54.6875 
L 54.296875 0 
L 45.3125 0 
L 45.3125 8.40625 
Q 42.046875 3.421875 37.71875 1 
Q 33.40625 -1.421875 27.6875 -1.421875 
Q 18.265625 -1.421875 13.375 4.4375 
Q 8.5 10.296875 8.5 21.578125 
z
M 31.109375 56 
z
" id="DejaVuSans-75"/>
      <path d="M 11.71875 12.40625 
L 22.015625 12.40625 
L 22.015625 4 
L 14.015625 -11.625 
L 7.71875 -11.625 
L 11.71875 4 
z
" id="DejaVuSans-2c"/>
      <path d="M 18.109375 8.203125 
L 18.109375 -20.796875 
L 9.078125 -20.796875 
L 9.078125 54.6875 
L 18.109375 54.6875 
L 18.109375 46.390625 
Q 20.953125 51.265625 25.265625 53.625 
Q 29.59375 56 35.59375 56 
Q 45.5625 56 51.78125 48.09375 
Q 58.015625 40.1875 58.015625 27.296875 
Q 58.015625 14.40625 51.78125 6.484375 
Q 45.5625 -1.421875 35.59375 -1.421875 
Q 29.59375 -1.421875 25.265625 0.953125 
Q 20.953125 3.328125 18.109375 8.203125 
z
M 48.6875 27.296875 
Q 48.6875 37.203125 44.609375 42.84375 
Q 40.53125 48.484375 33.40625 48.484375 
Q 26.265625 48.484375 22.1875 42.84375 
Q 18.109375 37.203125 18.109375 27.296875 
Q 18.109375 17.390625 22.1875 11.75 
Q 26.265625 6.109375 33.40625 6.109375 
Q 40.53125 6.109375 44.609375 11.75 
Q 48.6875 17.390625 48.6875 27.296875 
z
" id="DejaVuSans-70"/>
     </defs>
     <g transform="translate(16.139531 294.999375)rotate(-90)scale(0.17 -0.17)">
      <use xlink:href="#DejaVuSans-46"/>
      <use x="57.410156" xlink:href="#DejaVuSans-72"/>
      <use x="98.523438" xlink:href="#DejaVuSans-61"/>
      <use x="159.802734" xlink:href="#DejaVuSans-63"/>
      <use x="214.783203" xlink:href="#DejaVuSans-74"/>
      <use x="253.992188" xlink:href="#DejaVuSans-69"/>
      <use x="281.775391" xlink:href="#DejaVuSans-6f"/>
      <use x="342.957031" xlink:href="#DejaVuSans-6e"/>
      <use x="406.335938" xlink:href="#DejaVuSans-20"/>
      <use x="438.123047" xlink:href="#DejaVuSans-6f"/>
      <use x="499.304688" xlink:href="#DejaVuSans-66"/>
      <use x="534.509766" xlink:href="#DejaVuSans-20"/>
      <use x="566.296875" xlink:href="#DejaVuSans-66"/>
      <use x="601.501953" xlink:href="#DejaVuSans-75"/>
      <use x="664.880859" xlink:href="#DejaVuSans-6e"/>
      <use x="728.259766" xlink:href="#DejaVuSans-63"/>
      <use x="783.240234" xlink:href="#DejaVuSans-74"/>
      <use x="822.449219" xlink:href="#DejaVuSans-69"/>
      <use x="850.232422" xlink:href="#DejaVuSans-6f"/>
      <use x="911.414062" xlink:href="#DejaVuSans-6e"/>
      <use x="974.792969" xlink:href="#DejaVuSans-2c"/>
      <use x="1006.580078" xlink:href="#DejaVuSans-74"/>
      <use x="1045.789062" xlink:href="#DejaVuSans-61"/>
      <use x="1107.068359" xlink:href="#DejaVuSans-72"/>
      <use x="1148.166016" xlink:href="#DejaVuSans-67"/>
      <use x="1211.642578" xlink:href="#DejaVuSans-65"/>
      <use x="1273.166016" xlink:href="#DejaVuSans-74"/>
      <use x="1312.375" xlink:href="#DejaVuSans-20"/>
      <use x="1344.162109" xlink:href="#DejaVuSans-70"/>
      <use x="1407.638672" xlink:href="#DejaVuSans-61"/>
      <use x="1468.917969" xlink:href="#DejaVuSans-69"/>
      <use x="1496.701172" xlink:href="#DejaVuSans-72"/>
      <use x="1537.814453" xlink:href="#DejaVuSans-73"/>
     </g>
    </g>
   </g>
   <g id="line2d_41">
    <defs>
     <path d="M 0 1.5 
C 0.397805 1.5 0.77937 1.341951 1.06066 1.06066 
C 1.341951 0.77937 1.5 0.397805 1.5 0 
C 1.5 -0.397805 1.341951 -0.77937 1.06066 -1.06066 
C 0.77937 -1.341951 0.397805 -1.5 0 -1.5 
C -0.397805 -1.5 -0.77937 -1.341951 -1.06066 -1.06066 
C -1.341951 -0.77937 -1.5 -0.397805 -1.5 0 
C -1.5 0.397805 -1.341951 0.77937 -1.06066 1.06066 
C -0.77937 1.341951 -0.397805 1.5 0 1.5 
z
" id="m4643aab49d" style="stroke:#f5deb3;"/>
    </defs>
    <g>
     <use style="fill:#f5deb3;stroke:#f5deb3;" x="143.604148" xlink:href="#m4643aab49d" y="27.513663"/>
     <use style="fill:#f5deb3;stroke:#f5deb3;" x="143.604148" xlink:href="#m4643aab49d" y="27.513663"/>
    </g>
   </g>
   <g id="line2d_42">
    <defs>
     <path d="M 0 1.5 
C 0.397805 1.5 0.77937 1.341951 1.06066 1.06066 
C 1.341951 0.77937 1.5 0.397805 1.5 0 
C 1.5 -0.397805 1.341951 -0.77937 1.06066 -1.06066 
C 0.77937 -1.341951 0.397805 -1.5 0 -1.5 
C -0.397805 -1.5 -0.77937 -1.341951 -1.06066 -1.06066 
C -1.341951 -0.77937 -1.5 -0.397805 -1.5 0 
C -1.5 0.397805 -1.341951 0.77937 -1.06066 1.06066 
C -0.77937 1.341951 -0.397805 1.5 0 1.5 
z
" id="mb2429610f1" style="stroke:#000080;"/>
    </defs>
    <g>
     <use style="fill:#000080;stroke:#000080;" x="235.874834" xlink:href="#mb2429610f1" y="169.060547"/>
     <use style="fill:#000080;stroke:#000080;" x="235.874834" xlink:href="#mb2429610f1" y="169.060547"/>
    </g>
   </g>
   <g id="line2d_43">
    <path d="M 37.236359 294.88 
L 37.236359 284.919293 
L 49.15061 284.919293 
L 49.15061 280.201064 
L 56.12 280.201064 
L 56.12 274.958587 
L 68.034251 274.958587 
L 68.034251 273.910091 
L 72.979112 273.910091 
L 72.979112 273.385844 
L 75.003641 273.385844 
L 75.003641 272.337348 
L 76.814644 272.337348 
L 76.814644 271.8131 
L 82.598142 271.8131 
L 82.598142 268.143366 
L 85.935418 268.143366 
L 85.935418 267.094871 
L 86.917893 267.094871 
L 86.917893 266.046375 
L 90.367147 266.046375 
L 90.367147 264.473632 
L 93.238578 264.473632 
L 93.238578 263.425137 
L 94.512393 263.425137 
L 94.512393 262.376641 
L 102.281398 262.376641 
L 102.281398 260.803898 
L 103.777005 260.803898 
L 103.777005 260.279651 
L 112.122219 260.279651 
L 112.122219 259.755403 
L 113.396034 259.755403 
L 113.396034 259.231155 
L 114.581927 259.231155 
L 114.581927 258.18266 
L 124.036471 258.18266 
L 124.036471 256.609917 
L 125.412295 256.609917 
L 125.412295 255.561421 
L 125.913457 255.561421 
L 125.913457 253.46443 
L 126.873966 253.46443 
L 126.967129 251.367439 
L 128.647561 251.367439 
L 128.647561 250.843192 
L 129.308744 250.843192 
L 129.308744 250.318944 
L 130.559378 250.318944 
L 130.559378 248.221953 
L 142.920112 248.221953 
L 142.920112 244.552219 
L 143.814623 244.552219 
L 143.814623 241.93098 
L 144.598384 241.93098 
L 144.598384 239.83399 
L 147.474939 239.83399 
L 147.474939 239.309742 
L 148.513678 239.309742 
L 148.566647 237.736999 
L 153.597237 237.736999 
L 153.597237 236.164255 
L 154.871052 236.164255 
L 154.871052 235.640008 
L 156.462595 235.640008 
L 156.462595 233.543017 
L 157.294071 233.543017 
L 157.294071 233.018769 
L 161.754713 233.018769 
L 161.754713 231.970274 
L 163.370627 231.970274 
L 163.370627 230.921778 
L 163.570626 230.921778 
L 163.570626 229.349035 
L 163.811951 229.349035 
L 163.811951 225.155053 
L 165.332955 225.155053 
L 165.332955 223.058063 
L 166.207636 223.058063 
L 166.207636 222.533815 
L 166.330379 222.533815 
L 166.330379 219.912576 
L 166.9131 219.912576 
L 166.9131 219.388328 
L 168.039473 219.388328 
L 168.07351 218.339833 
L 169.208322 218.339833 
L 169.208322 217.815585 
L 170.933166 217.815585 
L 170.933166 217.291338 
L 171.857961 217.291338 
L 171.946405 216.242842 
L 173.315442 216.242842 
L 173.315442 215.194347 
L 174.009344 215.194347 
L 174.009344 212.04886 
L 174.437299 212.04886 
L 174.437299 211.524613 
L 174.991819 211.524613 
L 174.991819 211.000365 
L 176.894658 211.000365 
L 176.894658 210.476117 
L 177.137183 210.476117 
L 177.137183 209.95187 
L 177.709532 209.95187 
L 177.709532 209.427622 
L 177.902556 209.427622 
L 177.969606 207.854879 
L 178.074444 207.854879 
L 178.117149 206.806383 
L 180.621976 206.806383 
L 180.687395 202.612401 
L 182.586319 202.612401 
L 182.586319 202.088154 
L 183.497188 202.088154 
L 183.497188 201.563906 
L 184.019389 201.563906 
L 184.019389 199.991163 
L 184.708014 199.991163 
L 184.708014 199.466915 
L 185.242221 199.466915 
L 185.242221 198.41842 
L 185.620009 198.41842 
L 185.620009 197.894172 
L 187.432237 197.894172 
L 187.476282 196.845677 
L 187.867691 196.845677 
L 187.867691 196.321429 
L 189.322714 196.321429 
L 189.322714 195.797181 
L 189.703669 195.797181 
L 189.703669 195.272933 
L 189.879077 195.272933 
L 189.917284 194.224438 
L 190.755239 194.224438 
L 190.755239 193.70019 
L 190.918037 193.70019 
L 190.918037 193.175943 
L 191.791145 193.175943 
L 191.791145 192.651695 
L 193.060681 192.651695 
L 193.124137 191.603199 
L 193.579246 191.603199 
L 193.6485 190.554704 
L 194.685924 190.554704 
L 194.685924 190.030456 
L 195.822343 190.030456 
L 195.862898 188.981961 
L 196.250076 188.981961 
L 196.250076 188.457713 
L 196.862805 188.457713 
L 196.862805 187.933465 
L 197.09374 187.933465 
L 197.09374 187.409218 
L 197.307654 187.409218 
L 197.307654 186.88497 
L 197.45598 186.88497 
L 197.45598 186.360722 
L 199.767155 186.360722 
L 199.767155 185.836474 
L 199.879753 185.836474 
L 199.879753 185.312227 
L 202.368118 185.312227 
L 202.368118 184.787979 
L 203.765182 184.787979 
L 203.765182 184.263731 
L 204.233022 184.263731 
L 204.233022 183.739484 
L 204.406386 183.739484 
L 204.406386 183.215236 
L 204.626743 183.215236 
L 204.735871 182.16674 
L 204.760028 182.16674 
L 204.760028 181.642493 
L 205.135103 181.642493 
L 205.135103 181.118245 
L 205.264519 181.118245 
L 205.264519 180.593997 
L 206.338832 180.593997 
L 206.398371 179.545502 
L 207.569993 179.545502 
L 207.673034 178.497006 
L 208.513894 178.497006 
L 208.560723 177.448511 
L 209.516524 177.448511 
L 209.516524 176.924263 
L 209.653262 176.924263 
L 209.653262 176.400016 
L 211.009461 176.400016 
L 211.009461 175.875768 
L 211.482566 175.875768 
L 211.482566 175.35152 
L 212.306684 175.35152 
L 212.306684 174.827272 
L 213.813634 174.827272 
L 213.813634 174.303025 
L 215.499985 174.303025 
L 215.499985 173.778777 
L 216.558724 173.778777 
L 216.558724 173.254529 
L 217.016848 173.254529 
L 217.016848 172.730281 
L 219.046525 172.730281 
L 219.046525 172.206034 
L 219.356074 172.206034 
L 219.356074 171.681786 
L 225.289325 171.681786 
L 225.289325 171.157538 
L 226.807006 171.157538 
L 226.807006 170.633291 
L 230.873156 170.633291 
L 230.873156 170.109043 
L 233.381977 170.109043 
L 233.381977 169.584795 
L 235.874834 169.584795 
L 235.874834 169.060547 
L 333.168 169.060547 
L 333.168 169.060547 
" style="fill:none;stroke:#000080;stroke-linecap:square;stroke-width:1.5;"/>
   </g>
   <g id="line2d_44">
    <defs>
     <path d="M 0 6 
C 1.591219 6 3.117479 5.367802 4.242641 4.242641 
C 5.367802 3.117479 6 1.591219 6 0 
C 6 -1.591219 5.367802 -3.117479 4.242641 -4.242641 
C 3.117479 -5.367802 1.591219 -6 0 -6 
C -1.591219 -6 -3.117479 -5.367802 -4.242641 -4.242641 
C -5.367802 -3.117479 -6 -1.591219 -6 0 
C -6 1.591219 -5.367802 3.117479 -4.242641 4.242641 
C -3.117479 5.367802 -1.591219 6 0 6 
z
" id="m54e190f852" style="stroke:#000080;stroke-width:1.5;"/>
    </defs>
    <g>
     <use style="fill:none;stroke:#000080;stroke-width:1.5;" x="75.003641" xlink:href="#m54e190f852" y="273.385844"/>
     <use style="fill:none;stroke:#000080;stroke-width:1.5;" x="142.920112" xlink:href="#m54e190f852" y="244.552219"/>
     <use style="fill:none;stroke:#000080;stroke-width:1.5;" x="202.368118" xlink:href="#m54e190f852" y="185.312227"/>
     <use style="fill:none;stroke:#000080;stroke-width:1.5;" x="235.874834" xlink:href="#m54e190f852" y="169.584795"/>
     <use style="fill:none;stroke:#000080;stroke-width:1.5;" x="235.874834" xlink:href="#m54e190f852" y="169.060547"/>
     <use style="fill:none;stroke:#000080;stroke-width:1.5;" x="333.168" xlink:href="#m54e190f852" y="169.060547"/>
    </g>
   </g>
   <g id="line2d_45">
    <path style="fill:none;stroke:#000080;stroke-linecap:square;stroke-width:1.5;"/>
    <g/>
   </g>
   <g id="line2d_46">
    <path clip-path="url(#p8f50c03072)" d="M 185.668944 197.894172 
" style="fill:none;stroke:#000080;stroke-linecap:square;stroke-width:1.5;"/>
    <defs>
     <path d="M -12 12 
L 12 -12 
M -12 -12 
L 12 12 
" id="macaa5b6a23" style="stroke:#000080;"/>
    </defs>
    <g clip-path="url(#p8f50c03072)">
     <use style="fill:#000080;stroke:#000080;" x="185.668944" xlink:href="#macaa5b6a23" y="197.894172"/>
    </g>
   </g>
   <g id="line2d_47">
    <defs>
     <path d="M 0 1.5 
C 0.397805 1.5 0.77937 1.341951 1.06066 1.06066 
C 1.341951 0.77937 1.5 0.397805 1.5 0 
C 1.5 -0.397805 1.341951 -0.77937 1.06066 -1.06066 
C 0.77937 -1.341951 0.397805 -1.5 0 -1.5 
C -0.397805 -1.5 -0.77937 -1.341951 -1.06066 -1.06066 
C -1.341951 -0.77937 -1.5 -0.397805 -1.5 0 
C -1.5 0.397805 -1.341951 0.77937 -1.06066 1.06066 
C -0.77937 1.341951 -0.397805 1.5 0 1.5 
z
" id="mf0f9dd62a9" style="stroke:#ff00ff;"/>
    </defs>
    <g>
     <use style="fill:#ff00ff;stroke:#ff00ff;" x="236.904396" xlink:href="#mf0f9dd62a9" y="27.513663"/>
     <use style="fill:#ff00ff;stroke:#ff00ff;" x="236.904396" xlink:href="#mf0f9dd62a9" y="27.513663"/>
    </g>
   </g>
   <g id="line2d_48">
    <path d="M 37.236359 294.88 
L 37.236359 284.919293 
L 49.15061 284.919293 
L 49.15061 283.34655 
L 56.12 283.34655 
L 56.12 282.822302 
L 61.064861 282.822302 
L 61.064861 281.249559 
L 64.900393 281.249559 
L 64.900393 276.53133 
L 68.034251 276.53133 
L 68.034251 274.958587 
L 70.68389 274.958587 
L 70.68389 273.385844 
L 72.979112 273.385844 
L 72.979112 267.619119 
L 75.003641 267.619119 
L 75.003641 267.094871 
L 76.814644 267.094871 
L 76.814644 266.046375 
L 81.324327 266.046375 
L 81.324327 265.522128 
L 82.598142 265.522128 
L 82.598142 264.473632 
L 83.784035 264.473632 
L 83.784035 257.134164 
L 85.935418 257.134164 
L 85.935418 256.609917 
L 86.917893 256.609917 
L 86.917893 256.085669 
L 87.847234 256.085669 
L 87.847234 255.037173 
L 88.728896 255.037173 
L 88.728896 254.512926 
L 92.564428 254.512926 
L 92.564428 253.988678 
L 94.512393 253.988678 
L 94.512393 253.46443 
L 97.849669 253.46443 
L 97.849669 252.940182 
L 99.761485 252.940182 
L 99.761485 252.415935 
L 101.067579 252.415935 
L 101.067579 251.367439 
L 101.88624 251.367439 
L 101.88624 250.843192 
L 102.281398 250.843192 
L 102.281398 246.64921 
L 102.667676 246.64921 
L 102.667676 242.979476 
L 104.478679 242.979476 
L 104.478679 242.455228 
L 104.819059 242.455228 
L 104.819059 241.406733 
L 106.426644 241.406733 
L 106.426644 240.882485 
L 108.988361 240.882485 
L 108.988361 240.358237 
L 109.76392 240.358237 
L 109.76392 239.83399 
L 112.122219 239.83399 
L 112.122219 239.309742 
L 113.19018 239.309742 
L 113.19018 238.261246 
L 113.599452 238.261246 
L 113.599452 237.212751 
L 117.715785 237.212751 
L 117.715785 236.688503 
L 119.526788 236.688503 
L 119.526788 235.640008 
L 121.16504 235.640008 
L 121.16504 234.067265 
L 121.929105 234.067265 
L 121.929105 233.543017 
L 122.176427 233.543017 
L 122.176427 232.494521 
L 123.015063 232.494521 
L 123.015063 230.921778 
L 123.925932 230.921778 
L 123.925932 229.873283 
L 125.000572 229.873283 
L 125.000572 229.349035 
L 125.412295 229.349035 
L 125.412295 228.824787 
L 127.515749 228.824787 
L 127.515749 228.30054 
L 128.898495 228.30054 
L 128.898495 227.776292 
L 129.063771 227.776292 
L 129.063771 226.203549 
L 129.389632 226.203549 
L 129.470141 225.155053 
L 129.70943 225.155053 
L 129.70943 224.630806 
L 130.784069 224.630806 
L 130.784069 223.058063 
L 131.07916 223.058063 
L 131.07916 221.485319 
L 132.211331 221.485319 
L 132.211331 220.961072 
L 133.6555 220.961072 
L 133.6555 220.436824 
L 134.151957 220.436824 
L 134.151957 216.242842 
L 134.634477 216.242842 
L 134.634477 215.194347 
L 135.673032 215.194347 
L 135.673032 214.145851 
L 136.169688 214.145851 
L 136.169688 213.621604 
L 137.528768 213.621604 
L 137.528768 213.097356 
L 137.827708 213.097356 
L 137.827708 212.573108 
L 138.266591 212.573108 
L 138.266591 211.524613 
L 138.741445 211.524613 
L 138.741445 211.000365 
L 138.88138 211.000365 
L 138.88138 209.95187 
L 139.020186 209.95187 
L 139.020186 209.427622 
L 139.157879 209.427622 
L 139.157879 207.854879 
L 139.519758 207.854879 
L 139.60905 206.806383 
L 140.048681 206.806383 
L 140.135274 205.23364 
L 140.307161 205.23364 
L 140.307161 204.185145 
L 140.729508 204.185145 
L 140.729508 203.136649 
L 141.141725 203.136649 
L 141.182408 201.039658 
L 141.464526 201.039658 
L 141.464526 200.515411 
L 142.092491 200.515411 
L 142.092491 199.466915 
L 142.473629 199.466915 
L 142.548853 194.748686 
L 143.283522 194.748686 
L 143.319443 193.175943 
L 143.674593 193.175943 
L 143.674593 192.651695 
L 143.814623 192.651695 
L 143.814623 188.981961 
L 144.397345 188.981961 
L 144.397345 187.933465 
L 145.284061 187.933465 
L 145.284061 187.409218 
L 145.632598 187.409218 
L 145.632598 186.88497 
L 145.9126 186.88497 
L 145.9126 186.360722 
L 146.608101 186.360722 
L 146.696779 184.263731 
L 146.814308 184.263731 
L 146.814308 182.690988 
L 147.809793 182.690988 
L 147.809793 181.118245 
L 148.083939 181.118245 
L 148.138248 176.924263 
L 148.593071 176.924263 
L 148.593071 175.875768 
L 149.036169 175.875768 
L 149.061881 174.827272 
L 149.840462 174.827272 
L 149.938403 173.778777 
L 150.204899 173.778777 
L 150.204899 172.730281 
L 150.561769 172.730281 
L 150.561769 172.206034 
L 150.980457 172.206034 
L 150.980457 171.157538 
L 187.218676 171.157538 
L 187.218676 170.633291 
L 187.473532 170.633291 
L 187.553091 168.012052 
L 187.599557 168.012052 
L 187.599557 167.487804 
L 187.773373 167.487804 
L 187.875751 164.342318 
L 187.934745 164.342318 
L 187.934745 163.81807 
L 188.173997 163.81807 
L 188.224083 162.245327 
L 188.342128 162.245327 
L 188.40736 160.672584 
L 188.454174 160.672584 
L 188.547422 157.527098 
L 188.668406 157.527098 
L 188.742633 154.381611 
L 188.7809 154.381611 
L 188.852107 151.760373 
L 188.933125 151.760373 
L 189.023818 149.663382 
L 189.046416 149.663382 
L 189.106534 148.614886 
L 189.178896 148.614886 
L 189.273258 145.4694 
L 189.295531 145.4694 
L 189.386796 142.848162 
L 189.480026 142.848162 
L 189.480026 142.323914 
L 189.686754 142.323914 
L 189.790395 139.702675 
L 189.876686 139.702675 
L 189.972059 137.605684 
L 190.208203 137.605684 
L 190.208203 136.557189 
L 190.336712 136.557189 
L 190.44346 134.460198 
L 190.845872 134.460198 
L 190.861684 133.411703 
L 191.139396 133.411703 
L 191.139396 132.887455 
L 191.254533 132.887455 
L 191.285401 131.838959 
L 191.39519 131.838959 
L 191.39519 130.790464 
L 191.528191 130.790464 
L 191.601879 129.741969 
L 191.988925 129.741969 
L 191.988925 129.217721 
L 193.443779 129.217721 
L 193.443779 128.693473 
L 193.713653 128.693473 
L 193.782369 127.12073 
L 193.952968 127.12073 
L 194.032005 125.023739 
L 194.172244 125.023739 
L 194.261401 123.975244 
L 194.513355 123.975244 
L 194.513355 123.450996 
L 194.637054 123.450996 
L 194.66784 122.4025 
L 194.752669 122.4025 
L 194.752669 121.878253 
L 198.909613 121.878253 
L 198.909613 121.354005 
L 199.176131 121.354005 
L 199.231717 120.30551 
L 199.386409 120.30551 
L 199.386409 119.781262 
L 199.679516 119.781262 
L 199.773878 118.732766 
L 199.885097 118.732766 
L 199.992946 116.111528 
L 200.011519 116.111528 
L 200.077685 114.014537 
L 200.19221 114.014537 
L 200.25115 112.441794 
L 200.369724 112.441794 
L 200.420292 110.869051 
L 200.505532 110.869051 
L 200.609569 108.77206 
L 200.632603 108.77206 
L 200.682405 107.199317 
L 200.746043 107.199317 
L 200.820834 105.102326 
L 200.886483 105.102326 
L 200.886483 104.578078 
L 201.088167 104.578078 
L 201.103105 103.529583 
L 201.236966 103.529583 
L 201.330543 101.432592 
L 201.451681 101.432592 
L 201.473614 100.384096 
L 201.621542 100.384096 
L 201.714255 98.811353 
L 201.761024 98.811353 
L 201.861326 97.23861 
L 201.895819 97.23861 
L 201.895819 96.714362 
L 202.041351 96.714362 
L 202.094288 95.665867 
L 202.226504 95.665867 
L 202.242814 94.617371 
L 202.907512 94.617371 
L 202.999131 93.568876 
L 203.291922 93.568876 
L 203.291922 93.044628 
L 203.781161 93.044628 
L 203.837502 91.996133 
L 204.550549 91.996133 
L 204.550549 91.471885 
L 204.708654 91.471885 
L 204.708654 90.947637 
L 205.761268 90.947637 
L 205.761268 90.42339 
L 206.340667 90.42339 
L 206.340667 89.899142 
L 206.648906 89.899142 
L 206.754019 88.850646 
L 206.878957 88.850646 
L 206.982677 87.277903 
L 207.060278 87.277903 
L 207.093679 86.229408 
L 207.190877 86.229408 
L 207.271023 84.656665 
L 207.33695 84.656665 
L 207.377594 83.083922 
L 207.462034 83.083922 
L 207.500669 80.986931 
L 207.629679 80.986931 
L 207.724747 78.88994 
L 207.800762 78.88994 
L 207.800762 78.365692 
L 208.027642 78.365692 
L 208.096534 76.792949 
L 208.161851 76.792949 
L 208.170926 75.744454 
L 208.313026 75.744454 
L 208.402771 73.647463 
L 208.442598 73.647463 
L 208.442598 73.123215 
L 208.657207 73.123215 
L 208.657207 72.598967 
L 208.812053 72.598967 
L 208.812053 72.074719 
L 208.925306 72.074719 
L 208.925306 71.550472 
L 209.302407 71.550472 
L 209.302407 71.026224 
L 209.647208 71.026224 
L 209.647208 70.501976 
L 209.858594 70.501976 
L 209.965921 68.929233 
L 210.464602 68.929233 
L 210.464602 68.404985 
L 211.131394 68.404985 
L 211.131394 67.880738 
L 211.253847 67.880738 
L 211.253847 67.35649 
L 211.570096 67.35649 
L 211.570096 66.832242 
L 212.017013 66.832242 
L 212.017013 66.307995 
L 212.142504 66.307995 
L 212.142504 65.783747 
L 212.484078 65.783747 
L 212.484078 65.259499 
L 212.626596 65.259499 
L 212.669185 64.211004 
L 212.941911 64.211004 
L 213.047193 62.114013 
L 213.119705 62.114013 
L 213.198685 61.065517 
L 213.293841 61.065517 
L 213.347022 60.017022 
L 213.412203 60.017022 
L 213.412203 59.492774 
L 213.792832 59.492774 
L 213.850422 57.920031 
L 213.935561 57.920031 
L 213.935561 57.395783 
L 214.135509 57.395783 
L 214.208806 56.347288 
L 214.538244 56.347288 
L 214.538244 55.82304 
L 214.738661 55.82304 
L 214.738661 55.298792 
L 215.131517 55.298792 
L 215.139767 54.250297 
L 215.255947 54.250297 
L 215.255947 53.726049 
L 215.534413 53.726049 
L 215.62339 52.677554 
L 215.681032 52.677554 
L 215.681032 52.153306 
L 215.913894 52.153306 
L 215.913894 51.629058 
L 216.094297 51.629058 
L 216.181465 50.580563 
L 216.515126 50.580563 
L 216.600696 49.00782 
L 216.629965 49.00782 
L 216.650122 47.959324 
L 216.829978 47.959324 
L 216.829978 47.435077 
L 217.307703 47.435077 
L 217.307703 46.910829 
L 217.893332 46.910829 
L 217.902699 45.862334 
L 218.526622 45.862334 
L 218.59377 44.813838 
L 218.813647 44.813838 
L 218.826076 43.765343 
L 219.341439 43.765343 
L 219.341439 43.241095 
L 219.594925 43.241095 
L 219.614433 42.192599 
L 219.836361 42.192599 
L 219.876064 41.144104 
L 219.996283 41.144104 
L 220.016583 40.095609 
L 220.134183 40.095609 
L 220.180998 39.047113 
L 221.285251 39.047113 
L 221.364294 37.998618 
L 221.606814 37.998618 
L 221.606814 37.47437 
L 223.149475 37.47437 
L 223.149475 36.950122 
L 223.758286 36.950122 
L 223.758286 36.425875 
L 224.180037 36.425875 
L 224.180037 35.901627 
L 224.786346 35.901627 
L 224.786346 35.377379 
L 225.389875 35.377379 
L 225.389875 34.853131 
L 225.703812 34.853131 
L 225.703812 34.328884 
L 226.078302 34.328884 
L 226.078302 33.804636 
L 227.000873 33.804636 
L 227.000873 33.280388 
L 227.456186 33.280388 
L 227.456186 32.756141 
L 228.620184 32.756141 
L 228.620184 32.231893 
L 229.088381 32.231893 
L 229.088381 31.707645 
L 230.140016 31.707645 
L 230.140016 31.183397 
L 230.599084 31.183397 
L 230.599084 30.65915 
L 231.062983 30.65915 
L 231.062983 30.134902 
L 231.378198 30.134902 
L 231.378198 29.610654 
L 231.70851 29.610654 
L 231.70851 29.086407 
L 232.28733 29.086407 
L 232.28733 28.562159 
L 232.467459 28.562159 
L 232.467459 28.037911 
L 236.904396 28.037911 
L 236.904396 27.513663 
L 333.168 27.513663 
L 333.168 27.513663 
" style="fill:none;stroke:#ff00ff;stroke-linecap:square;stroke-width:1.5;"/>
   </g>
   <g id="line2d_49">
    <defs>
     <path d="M -0 8.485281 
L 5.091169 0 
L 0 -8.485281 
L -5.091169 -0 
z
" id="m2d0ed11289" style="stroke:#ff00ff;stroke-linejoin:miter;stroke-width:1.5;"/>
    </defs>
    <g>
     <use style="fill:none;stroke:#ff00ff;stroke-linejoin:miter;stroke-width:1.5;" x="117.715785" xlink:href="#m2d0ed11289" y="237.212751"/>
     <use style="fill:none;stroke:#ff00ff;stroke-linejoin:miter;stroke-width:1.5;" x="149.938403" xlink:href="#m2d0ed11289" y="173.778777"/>
     <use style="fill:none;stroke:#ff00ff;stroke-linejoin:miter;stroke-width:1.5;" x="215.681032" xlink:href="#m2d0ed11289" y="52.153306"/>
     <use style="fill:none;stroke:#ff00ff;stroke-linejoin:miter;stroke-width:1.5;" x="236.904396" xlink:href="#m2d0ed11289" y="28.037911"/>
     <use style="fill:none;stroke:#ff00ff;stroke-linejoin:miter;stroke-width:1.5;" x="236.904396" xlink:href="#m2d0ed11289" y="27.513663"/>
     <use style="fill:none;stroke:#ff00ff;stroke-linejoin:miter;stroke-width:1.5;" x="333.168" xlink:href="#m2d0ed11289" y="27.513663"/>
    </g>
   </g>
   <g id="line2d_50">
    <path style="fill:none;stroke:#ff00ff;stroke-linecap:square;stroke-width:1.5;"/>
    <g/>
   </g>
   <g id="line2d_51">
    <path clip-path="url(#p8f50c03072)" d="M 188.123765 163.81807 
" style="fill:none;stroke:#ff00ff;stroke-linecap:square;stroke-width:1.5;"/>
    <defs>
     <path d="M -12 12 
L 12 -12 
M -12 -12 
L 12 12 
" id="ma9917cead7" style="stroke:#ff00ff;"/>
    </defs>
    <g clip-path="url(#p8f50c03072)">
     <use style="fill:#ff00ff;stroke:#ff00ff;" x="188.123765" xlink:href="#ma9917cead7" y="163.81807"/>
    </g>
   </g>
   <g id="line2d_52">
    <defs>
     <path d="M 0 1.5 
C 0.397805 1.5 0.77937 1.341951 1.06066 1.06066 
C 1.341951 0.77937 1.5 0.397805 1.5 0 
C 1.5 -0.397805 1.341951 -0.77937 1.06066 -1.06066 
C 0.77937 -1.341951 0.397805 -1.5 0 -1.5 
C -0.397805 -1.5 -0.77937 -1.341951 -1.06066 -1.06066 
C -1.341951 -0.77937 -1.5 -0.397805 -1.5 0 
C -1.5 0.397805 -1.341951 0.77937 -1.06066 1.06066 
C -0.77937 1.341951 -0.397805 1.5 0 1.5 
z
" id="mfd5d1f9a4f" style="stroke:#ff7500;"/>
    </defs>
    <g>
     <use style="fill:#ff7500;stroke:#ff7500;" x="251.27374" xlink:href="#mfd5d1f9a4f" y="27.513663"/>
     <use style="fill:#ff7500;stroke:#ff7500;" x="251.27374" xlink:href="#mfd5d1f9a4f" y="27.513663"/>
    </g>
   </g>
   <g id="line2d_53">
    <path d="M 37.236359 294.88 
L 37.236359 279.152568 
L 49.15061 279.152568 
L 49.15061 276.53133 
L 56.12 276.53133 
L 56.12 270.764605 
L 61.064861 270.764605 
L 61.064861 269.716109 
L 64.900393 269.716109 
L 64.900393 267.619119 
L 68.034251 267.619119 
L 68.034251 266.570623 
L 72.979112 266.570623 
L 72.979112 266.046375 
L 76.814644 266.046375 
L 76.814644 264.99788 
L 78.452896 264.99788 
L 78.452896 264.473632 
L 81.324327 264.473632 
L 81.324327 263.425137 
L 83.784035 263.425137 
L 83.784035 262.900889 
L 91.131212 262.900889 
L 91.131212 262.376641 
L 91.862754 262.376641 
L 91.862754 261.328146 
L 94.512393 261.328146 
L 94.512393 259.755403 
L 96.261898 259.755403 
L 96.261898 259.231155 
L 96.807615 259.231155 
L 96.807615 258.18266 
L 98.832144 258.18266 
L 98.832144 257.134164 
L 100.207968 257.134164 
L 100.207968 256.085669 
L 101.88624 256.085669 
L 101.88624 255.561421 
L 103.777005 255.561421 
L 103.777005 254.512926 
L 104.478679 254.512926 
L 104.478679 253.988678 
L 106.426644 253.988678 
L 106.426644 253.46443 
L 107.323646 253.46443 
L 107.323646 252.940182 
L 107.896653 252.940182 
L 107.896653 251.891687 
L 108.176149 251.891687 
L 108.176149 251.367439 
L 113.599452 251.367439 
L 113.599452 250.843192 
L 114.581927 250.843192 
L 114.581927 250.318944 
L 117.874207 250.318944 
L 117.874207 249.794696 
L 118.493684 249.794696 
L 118.493684 249.270448 
L 121.16504 249.270448 
L 121.16504 248.746201 
L 122.176427 248.746201 
L 122.176427 247.697705 
L 123.7027 247.697705 
L 123.7027 247.173458 
L 125.310285 247.173458 
L 125.310285 246.64921 
L 126.011959 246.64921 
L 126.011959 246.124962 
L 126.873966 246.124962 
L 126.873966 245.600714 
L 127.05979 245.600714 
L 127.151955 244.027971 
L 127.334814 244.027971 
L 127.334814 243.503724 
L 127.872003 243.503724 
L 127.872003 241.93098 
L 128.047399 241.93098 
L 128.047399 240.358237 
L 128.898495 240.358237 
L 128.898495 239.83399 
L 131.2972 239.83399 
L 131.2972 239.309742 
L 133.144276 239.309742 
L 133.144276 238.785494 
L 134.39491 238.785494 
L 134.39491 237.736999 
L 138.362617 237.736999 
L 138.362617 237.212751 
L 139.564462 237.212751 
L 139.564462 236.688503 
L 141.544287 236.688503 
L 141.544287 236.164255 
L 142.284116 236.164255 
L 142.284116 235.640008 
L 143.211452 235.640008 
L 143.211452 235.11576 
L 143.426761 235.11576 
L 143.426761 234.591512 
L 145.252022 234.591512 
L 145.252022 234.067265 
L 146.188114 234.067265 
L 146.188114 233.018769 
L 146.901931 233.018769 
L 146.901931 232.494521 
L 147.219446 232.494521 
L 147.219446 231.970274 
L 147.559266 231.970274 
L 147.615255 230.921778 
L 148.002154 230.921778 
L 148.056721 229.873283 
L 149.46813 229.873283 
L 149.46813 229.349035 
L 149.766638 229.349035 
L 149.766638 227.776292 
L 150.419909 227.776292 
L 150.467326 226.203549 
L 150.632262 226.203549 
L 150.679098 223.58231 
L 150.749113 223.58231 
L 150.749113 222.533815 
L 150.91138 222.533815 
L 150.91138 222.009567 
L 151.049258 222.009567 
L 151.049258 221.485319 
L 151.208729 221.485319 
L 151.208729 217.815585 
L 151.810337 217.815585 
L 151.810337 216.76709 
L 151.984621 216.76709 
L 151.984621 215.718594 
L 152.242778 215.718594 
L 152.327976 213.621604 
L 152.497115 213.621604 
L 152.539141 209.95187 
L 152.747744 209.95187 
L 152.768465 206.282136 
L 152.99477 206.282136 
L 153.096659 201.563906 
L 153.137246 201.563906 
L 153.137246 199.991163 
L 153.597237 199.991163 
L 153.597237 198.942667 
L 153.812956 198.942667 
L 153.812956 198.41842 
L 153.948835 198.41842 
L 154.045238 196.321429 
L 154.198367 196.321429 
L 154.198367 195.272933 
L 154.612571 195.272933 
L 154.668288 193.175943 
L 154.925938 193.175943 
L 154.925938 187.933465 
L 155.071451 187.933465 
L 155.179784 184.787979 
L 155.412187 184.787979 
L 155.412187 184.263731 
L 166.876683 184.263731 
L 166.876683 183.739484 
L 167.634407 183.739484 
L 167.634407 183.215236 
L 167.91981 183.215236 
L 167.91981 182.690988 
L 168.039473 182.690988 
L 168.039473 182.16674 
L 168.158308 182.16674 
L 168.158308 181.642493 
L 168.443534 181.642493 
L 168.443534 181.118245 
L 168.633831 181.118245 
L 168.633831 180.593997 
L 168.919431 180.593997 
L 169.016268 179.545502 
L 169.072506 179.545502 
L 169.168487 177.972759 
L 169.44541 177.972759 
L 169.515904 176.924263 
L 169.932899 176.924263 
L 169.932899 175.875768 
L 172.128654 175.875768 
L 172.222398 174.303025 
L 172.533423 174.303025 
L 172.533423 173.778777 
L 172.92888 173.778777 
L 172.92888 173.254529 
L 173.13275 173.254529 
L 173.208582 171.681786 
L 173.434092 171.681786 
L 173.434092 170.633291 
L 173.613626 170.633291 
L 173.662824 169.060547 
L 173.730243 169.060547 
L 173.730243 168.5363 
L 173.876426 168.5363 
L 173.985254 166.963557 
L 174.045417 166.963557 
L 174.123316 165.915061 
L 174.224653 165.915061 
L 174.301746 164.866566 
L 180.093694 164.866566 
L 180.093694 164.342318 
L 181.740008 164.342318 
L 181.740008 163.81807 
L 182.190821 163.81807 
L 182.190821 163.293823 
L 182.395251 163.293823 
L 182.395251 162.769575 
L 182.6374 162.769575 
L 182.6374 162.245327 
L 182.897729 162.245327 
L 182.997913 161.196832 
L 183.147102 161.196832 
L 183.164777 160.148336 
L 183.399881 160.148336 
L 183.399881 159.624089 
L 189.161457 159.624089 
L 189.161457 159.099841 
L 196.157414 159.099841 
L 196.157414 158.575593 
L 206.492295 158.575593 
L 206.580282 157.00285 
L 206.687612 157.00285 
L 206.687612 156.478602 
L 208.001007 156.478602 
L 208.076642 155.430107 
L 208.189062 155.430107 
L 208.264696 153.857364 
L 208.314662 153.857364 
L 208.322839 152.28462 
L 208.577647 152.28462 
L 208.649989 149.139134 
L 208.87392 149.139134 
L 208.977326 146.517896 
L 209.009563 146.517896 
L 209.009563 145.993648 
L 209.259107 145.993648 
L 209.259107 145.4694 
L 209.899666 145.4694 
L 210.000807 144.420905 
L 210.180786 144.420905 
L 210.207915 143.372409 
L 210.357448 143.372409 
L 210.434261 140.751171 
L 210.481194 140.751171 
L 210.566069 138.65418 
L 210.627664 138.65418 
L 210.627664 138.129932 
L 211.122366 138.129932 
L 211.21589 137.081437 
L 211.376802 137.081437 
L 211.376802 136.557189 
L 211.761909 136.557189 
L 211.802687 135.508693 
L 214.178013 135.508693 
L 214.277167 133.93595 
L 214.330277 133.93595 
L 214.415372 131.838959 
L 214.450895 131.838959 
L 214.551337 127.644978 
L 214.78756 127.644978 
L 214.891081 121.878253 
L 214.902235 121.878253 
L 214.922295 120.30551 
L 215.048244 120.30551 
L 215.048244 119.781262 
L 215.305033 119.781262 
L 215.396827 117.160023 
L 215.442271 117.160023 
L 215.535487 115.58728 
L 215.611624 115.58728 
L 215.658639 114.538785 
L 215.795211 114.538785 
L 215.859665 111.917546 
L 215.980524 111.917546 
L 216.022363 110.869051 
L 216.234174 110.869051 
L 216.234174 110.344803 
L 216.55923 110.344803 
L 216.658178 109.296308 
L 217.244087 109.296308 
L 217.244087 108.77206 
L 217.768734 108.77206 
L 217.768734 108.247812 
L 217.89708 108.247812 
L 217.909721 107.199317 
L 218.081565 107.199317 
L 218.081565 106.150821 
L 218.666031 106.150821 
L 218.703613 104.578078 
L 218.911946 104.578078 
L 218.911946 104.05383 
L 219.174842 104.05383 
L 219.174842 103.529583 
L 219.446621 103.529583 
L 219.446621 103.005335 
L 219.851835 103.005335 
L 219.851835 102.481087 
L 220.172794 102.481087 
L 220.244855 100.908344 
L 220.300333 100.908344 
L 220.300333 100.384096 
L 220.610301 100.384096 
L 220.668201 98.811353 
L 220.735043 98.811353 
L 220.735043 98.287105 
L 220.93363 98.287105 
L 220.93363 97.762858 
L 221.225923 97.762858 
L 221.278712 96.714362 
L 221.454403 96.714362 
L 221.454403 96.190115 
L 221.740666 96.190115 
L 221.740666 95.665867 
L 222.252443 95.665867 
L 222.252443 95.141619 
L 222.527611 95.141619 
L 222.555851 94.093124 
L 222.840301 94.093124 
L 222.852944 93.044628 
L 223.363112 93.044628 
L 223.465047 91.471885 
L 223.521868 91.471885 
L 223.521868 90.947637 
L 223.812487 90.947637 
L 223.814811 89.899142 
L 224.015792 89.899142 
L 224.015792 89.374894 
L 224.139693 89.374894 
L 224.189784 88.326399 
L 224.26206 88.326399 
L 224.331779 87.277903 
L 224.412121 87.277903 
L 224.467499 86.229408 
L 224.52461 86.229408 
L 224.52461 85.70516 
L 224.847099 85.70516 
L 224.916981 84.132417 
L 225.06022 84.132417 
L 225.15229 82.559674 
L 226.004229 82.559674 
L 226.056755 80.986931 
L 226.197488 80.986931 
L 226.197488 80.462683 
L 226.355986 80.462683 
L 226.385167 78.88994 
L 226.543935 78.88994 
L 226.647564 77.841444 
L 226.807285 77.841444 
L 226.807285 77.317197 
L 227.088351 77.317197 
L 227.088351 76.792949 
L 227.362465 76.792949 
L 227.362465 76.268701 
L 227.600877 76.268701 
L 227.697019 74.695958 
L 227.820784 74.695958 
L 227.820784 74.17171 
L 228.176522 74.17171 
L 228.176522 73.647463 
L 228.414905 73.647463 
L 228.414905 73.123215 
L 228.705312 73.123215 
L 228.79797 71.550472 
L 229.337654 71.550472 
L 229.337654 71.026224 
L 229.950577 71.026224 
L 229.950577 70.501976 
L 230.147596 70.501976 
L 230.175362 69.453481 
L 230.415795 69.453481 
L 230.464112 68.404985 
L 230.971725 68.404985 
L 230.971725 67.880738 
L 231.404047 67.880738 
L 231.491558 66.307995 
L 231.592566 66.307995 
L 231.67072 65.259499 
L 231.799079 65.259499 
L 231.799079 64.735251 
L 231.929385 64.735251 
L 231.929385 64.211004 
L 232.064669 64.211004 
L 232.123932 62.638261 
L 232.231477 62.638261 
L 232.30476 60.54127 
L 232.470068 60.54127 
L 232.539545 59.492774 
L 232.890418 59.492774 
L 232.890418 58.968526 
L 233.039736 58.968526 
L 233.039736 58.444279 
L 233.26878 58.444279 
L 233.375697 56.871536 
L 233.484791 56.871536 
L 233.546901 55.298792 
L 233.665027 55.298792 
L 233.665027 54.774545 
L 234.156512 54.774545 
L 234.156512 54.250297 
L 234.282455 54.250297 
L 234.282455 53.726049 
L 234.430231 53.726049 
L 234.485454 52.677554 
L 234.857182 52.677554 
L 234.943747 51.104811 
L 235.409593 51.104811 
L 235.409593 50.580563 
L 235.717274 50.580563 
L 235.717274 50.056315 
L 235.894079 50.056315 
L 235.894079 49.532068 
L 236.49483 49.532068 
L 236.49483 49.00782 
L 237.08281 49.00782 
L 237.183914 47.959324 
L 237.373197 47.959324 
L 237.475912 46.910829 
L 237.685146 46.910829 
L 237.685146 46.386581 
L 238.053119 46.386581 
L 238.102055 44.813838 
L 238.647745 44.813838 
L 238.686217 43.765343 
L 238.879648 43.765343 
L 238.969094 42.716847 
L 239.011792 42.716847 
L 239.011792 42.192599 
L 239.780858 42.192599 
L 239.780858 41.668352 
L 239.914475 41.668352 
L 239.914475 41.144104 
L 240.126664 41.144104 
L 240.173379 40.095609 
L 240.37469 40.095609 
L 240.405317 38.522865 
L 240.502027 38.522865 
L 240.502027 37.998618 
L 241.423412 37.998618 
L 241.46091 36.950122 
L 241.560862 36.950122 
L 241.560862 36.425875 
L 241.724762 36.425875 
L 241.724762 35.901627 
L 242.857166 35.901627 
L 242.890025 34.853131 
L 243.409737 34.853131 
L 243.413028 33.804636 
L 243.634082 33.804636 
L 243.634082 33.280388 
L 243.917391 33.280388 
L 243.917391 32.756141 
L 244.518714 32.756141 
L 244.518714 32.231893 
L 245.509139 32.231893 
L 245.509139 31.707645 
L 245.814043 31.707645 
L 245.814043 31.183397 
L 245.976108 31.183397 
L 245.976108 30.65915 
L 247.245121 30.65915 
L 247.245121 30.134902 
L 247.402797 30.134902 
L 247.402797 29.610654 
L 247.841998 29.610654 
L 247.841998 29.086407 
L 248.962126 29.086407 
L 248.962126 28.562159 
L 250.2226 28.562159 
L 250.2226 28.037911 
L 251.27374 28.037911 
L 251.27374 27.513663 
L 333.168 27.513663 
L 333.168 27.513663 
" style="fill:none;stroke:#ff7500;stroke-linecap:square;stroke-width:1.5;"/>
   </g>
   <g id="line2d_54">
    <defs>
     <path d="M 0 -6 
L -1.347084 -1.854102 
L -5.706339 -1.854102 
L -2.179628 0.708204 
L -3.526712 4.854102 
L -0 2.291796 
L 3.526712 4.854102 
L 2.179628 0.708204 
L 5.706339 -1.854102 
L 1.347084 -1.854102 
z
" id="mf21e8a1762" style="stroke:#ff7500;stroke-linejoin:bevel;stroke-width:1.5;"/>
    </defs>
    <g>
     <use style="fill:none;stroke:#ff7500;stroke-linejoin:bevel;stroke-width:1.5;" x="128.898495" xlink:href="#mf21e8a1762" y="239.83399"/>
     <use style="fill:none;stroke:#ff7500;stroke-linejoin:bevel;stroke-width:1.5;" x="183.399881" xlink:href="#mf21e8a1762" y="160.148336"/>
     <use style="fill:none;stroke:#ff7500;stroke-linejoin:bevel;stroke-width:1.5;" x="230.415795" xlink:href="#mf21e8a1762" y="69.453481"/>
     <use style="fill:none;stroke:#ff7500;stroke-linejoin:bevel;stroke-width:1.5;" x="251.27374" xlink:href="#mf21e8a1762" y="27.513663"/>
     <use style="fill:none;stroke:#ff7500;stroke-linejoin:bevel;stroke-width:1.5;" x="251.27374" xlink:href="#mf21e8a1762" y="27.513663"/>
     <use style="fill:none;stroke:#ff7500;stroke-linejoin:bevel;stroke-width:1.5;" x="333.168" xlink:href="#mf21e8a1762" y="27.513663"/>
    </g>
   </g>
   <g id="line2d_55">
    <path style="fill:none;stroke:#ff7500;stroke-linecap:square;stroke-width:1.5;"/>
    <g/>
   </g>
   <g id="line2d_56">
    <path clip-path="url(#p8f50c03072)" d="M 205.812433 158.575593 
" style="fill:none;stroke:#ff7500;stroke-linecap:square;stroke-width:1.5;"/>
    <defs>
     <path d="M -12 12 
L 12 -12 
M -12 -12 
L 12 12 
" id="m52cf53267f" style="stroke:#ff7500;"/>
    </defs>
    <g clip-path="url(#p8f50c03072)">
     <use style="fill:#ff7500;stroke:#ff7500;" x="205.812433" xlink:href="#m52cf53267f" y="158.575593"/>
    </g>
   </g>
   <g id="line2d_57">
    <defs>
     <path d="M 0 1.5 
C 0.397805 1.5 0.77937 1.341951 1.06066 1.06066 
C 1.341951 0.77937 1.5 0.397805 1.5 0 
C 1.5 -0.397805 1.341951 -0.77937 1.06066 -1.06066 
C 0.77937 -1.341951 0.397805 -1.5 0 -1.5 
C -0.397805 -1.5 -0.77937 -1.341951 -1.06066 -1.06066 
C -1.341951 -0.77937 -1.5 -0.397805 -1.5 0 
C -1.5 0.397805 -1.341951 0.77937 -1.06066 1.06066 
C -0.77937 1.341951 -0.397805 1.5 0 1.5 
z
" id="m671c1eba8d" style="stroke:#6495ed;"/>
    </defs>
    <g>
     <use style="fill:#6495ed;stroke:#6495ed;" x="204.174844" xlink:href="#m671c1eba8d" y="27.513663"/>
     <use style="fill:#6495ed;stroke:#6495ed;" x="204.174844" xlink:href="#m671c1eba8d" y="27.513663"/>
    </g>
   </g>
   <g id="line2d_58">
    <path d="M 37.236359 294.88 
L 37.236359 278.628321 
L 49.15061 278.628321 
L 49.15061 278.104073 
L 56.12 278.104073 
L 56.12 277.579825 
L 61.064861 277.579825 
L 61.064861 273.910091 
L 64.900393 273.910091 
L 64.900393 271.8131 
L 68.034251 271.8131 
L 68.034251 270.764605 
L 75.003641 270.764605 
L 75.003641 270.240357 
L 76.814644 270.240357 
L 76.814644 267.619119 
L 79.948502 267.619119 
L 79.948502 265.522128 
L 82.598142 265.522128 
L 82.598142 264.99788 
L 83.784035 264.99788 
L 83.784035 263.425137 
L 85.935418 263.425137 
L 85.935418 262.900889 
L 87.847234 262.900889 
L 87.847234 262.376641 
L 91.131212 262.376641 
L 91.131212 256.609917 
L 93.238578 256.609917 
L 93.238578 253.988678 
L 93.887283 253.988678 
L 93.887283 253.46443 
L 95.115564 253.46443 
L 95.115564 252.940182 
L 97.336537 252.940182 
L 97.336537 252.415935 
L 98.347925 252.415935 
L 98.347925 250.318944 
L 100.643147 250.318944 
L 100.643147 248.746201 
L 102.281398 248.746201 
L 102.281398 248.221953 
L 104.131422 248.221953 
L 104.131422 247.173458 
L 105.801534 247.173458 
L 105.801534 246.64921 
L 106.11693 246.64921 
L 106.11693 246.124962 
L 109.76392 246.124962 
L 109.76392 245.600714 
L 111.448069 245.600714 
L 111.448069 244.552219 
L 113.800491 244.552219 
L 113.800491 244.027971 
L 115.145539 244.027971 
L 115.145539 243.503724 
L 115.329377 243.503724 
L 115.329377 242.979476 
L 117.231566 242.979476 
L 117.231566 242.455228 
L 119.09161 242.455228 
L 119.09161 241.93098 
L 120.636117 241.93098 
L 120.636117 241.406733 
L 120.769881 241.406733 
L 120.769881 240.882485 
L 126.496178 240.882485 
L 126.496178 240.358237 
L 127.783629 240.358237 
L 127.783629 238.785494 
L 128.981332 238.785494 
L 128.981332 237.212751 
L 130.33171 237.212751 
L 130.33171 236.164255 
L 130.483823 236.164255 
L 130.483823 231.970274 
L 136.705203 231.970274 
L 136.757848 230.921778 
L 137.778244 230.921778 
L 137.827708 228.824787 
L 139.203533 228.824787 
L 139.203533 227.252044 
L 139.653523 227.252044 
L 139.653523 226.727797 
L 154.723825 226.727797 
L 154.723825 226.203549 
L 155.05333 226.203549 
L 155.05333 225.679301 
L 156.694877 225.679301 
L 156.727806 224.630806 
L 157.96516 224.630806 
L 157.96516 224.106558 
L 158.522353 224.106558 
L 158.522353 223.58231 
L 158.699253 223.58231 
L 158.787024 222.533815 
L 158.946785 222.533815 
L 159.018915 218.339833 
L 159.64094 218.339833 
L 159.64094 217.291338 
L 160.200969 217.291338 
L 160.281415 213.621604 
L 160.480898 213.621604 
L 160.480898 213.097356 
L 160.717262 213.097356 
L 160.717262 211.524613 
L 160.95042 211.524613 
L 160.95042 210.476117 
L 161.457496 210.476117 
L 161.544716 205.757888 
L 162.274704 205.757888 
L 162.286612 204.709392 
L 162.47602 204.709392 
L 162.47602 202.088154 
L 163.269748 202.088154 
L 163.280986 200.515411 
L 164.178369 200.515411 
L 164.178369 199.991163 
L 166.320968 199.991163 
L 166.320968 199.466915 
L 166.498896 199.466915 
L 166.582539 198.41842 
L 166.794463 198.41842 
L 166.794463 195.797181 
L 167.264176 195.797181 
L 167.264176 195.272933 
L 167.599489 195.272933 
L 167.599489 192.127447 
L 168.551352 192.127447 
L 168.650279 190.030456 
L 168.683129 190.030456 
L 168.683129 189.506209 
L 168.911336 189.506209 
L 168.911336 187.933465 
L 169.152528 187.933465 
L 169.232178 184.263731 
L 171.380757 184.263731 
L 171.380757 183.739484 
L 171.844314 183.739484 
L 171.844314 183.215236 
L 172.142077 183.215236 
L 172.202353 177.448511 
L 172.414971 177.448511 
L 172.414971 175.35152 
L 172.598879 175.35152 
L 172.624991 173.778777 
L 172.73553 173.778777 
L 172.819582 172.730281 
L 173.031117 172.730281 
L 173.13275 171.157538 
L 173.164388 171.157538 
L 173.164388 170.633291 
L 173.296633 170.633291 
L 173.384234 166.963557 
L 173.440315 166.963557 
L 173.520998 164.342318 
L 173.601304 164.342318 
L 173.687371 162.769575 
L 173.730243 162.769575 
L 173.7608 158.575593 
L 173.852148 158.575593 
L 173.961129 150.18763 
L 174.063425 150.18763 
L 174.147214 144.420905 
L 174.254345 144.420905 
L 174.301746 142.323914 
L 174.407922 142.323914 
L 174.407922 138.65418 
L 174.536808 138.65418 
L 174.641546 137.605684 
L 174.774456 137.605684 
L 174.849127 136.557189 
L 177.6512 136.557189 
L 177.6512 135.508693 
L 177.95526 135.508693 
L 178.06494 127.644978 
L 178.249333 127.644978 
L 178.249333 126.596482 
L 178.492154 126.596482 
L 178.5708 125.547987 
L 178.635298 125.547987 
L 178.722445 123.450996 
L 184.708014 123.450996 
L 184.79821 121.878253 
L 184.881541 121.878253 
L 184.961288 120.829757 
L 185.005785 120.829757 
L 185.094436 117.160023 
L 185.129138 117.160023 
L 185.22656 114.014537 
L 185.285998 114.014537 
L 185.382537 109.296308 
L 185.410464 109.296308 
L 185.478538 104.578078 
L 185.567861 104.578078 
L 185.641435 97.23861 
L 185.687259 97.23861 
L 185.717741 90.947637 
L 185.860285 90.947637 
L 185.968674 87.802151 
L 185.998662 87.802151 
L 186.070418 86.753656 
L 186.115114 86.753656 
L 186.22487 80.986931 
L 186.278013 80.986931 
L 186.278013 77.317197 
L 186.404303 77.317197 
L 186.44814 75.744454 
L 186.523861 75.744454 
L 186.523861 73.647463 
L 186.665666 73.647463 
L 186.769108 71.550472 
L 186.780564 71.550472 
L 186.780564 69.977729 
L 186.897542 69.977729 
L 186.897542 69.453481 
L 191.658015 69.453481 
L 191.658015 68.929233 
L 196.350445 68.929233 
L 196.411041 66.832242 
L 196.481195 66.832242 
L 196.572132 61.589765 
L 196.606109 61.589765 
L 196.710855 57.395783 
L 196.760586 57.395783 
L 196.848467 53.201802 
L 196.885084 53.201802 
L 196.977078 46.910829 
L 197.024469 46.910829 
L 197.117292 42.192599 
L 197.159603 42.192599 
L 197.159603 41.144104 
L 203.954903 41.144104 
L 204.047411 36.425875 
L 204.080928 36.425875 
L 204.174844 27.513663 
L 333.168 27.513663 
L 333.168 27.513663 
" style="fill:none;stroke:#6495ed;stroke-linecap:square;stroke-width:1.5;"/>
   </g>
   <g id="line2d_59">
    <defs>
     <path d="M -0 6 
L 6 -6 
L -6 -6 
z
" id="m76df33eb6a" style="stroke:#6495ed;stroke-linejoin:miter;stroke-width:1.5;"/>
    </defs>
    <g>
     <use style="fill:none;stroke:#6495ed;stroke-linejoin:miter;stroke-width:1.5;" x="76.814644" xlink:href="#m76df33eb6a" y="267.619119"/>
     <use style="fill:none;stroke:#6495ed;stroke-linejoin:miter;stroke-width:1.5;" x="159.64094" xlink:href="#m76df33eb6a" y="217.291338"/>
     <use style="fill:none;stroke:#6495ed;stroke-linejoin:miter;stroke-width:1.5;" x="185.447628" xlink:href="#m76df33eb6a" y="106.675069"/>
     <use style="fill:none;stroke:#6495ed;stroke-linejoin:miter;stroke-width:1.5;" x="204.174844" xlink:href="#m76df33eb6a" y="30.134902"/>
     <use style="fill:none;stroke:#6495ed;stroke-linejoin:miter;stroke-width:1.5;" x="204.174844" xlink:href="#m76df33eb6a" y="27.513663"/>
     <use style="fill:none;stroke:#6495ed;stroke-linejoin:miter;stroke-width:1.5;" x="333.168" xlink:href="#m76df33eb6a" y="27.513663"/>
    </g>
   </g>
   <g id="line2d_60">
    <path style="fill:none;stroke:#6495ed;stroke-linecap:square;stroke-width:1.5;"/>
    <g/>
   </g>
   <g id="line2d_61">
    <path d="M 333.168 169.060547 
L 363.64328 289.532673 
" style="fill:none;stroke:#000080;stroke-linecap:square;stroke-width:1.5;"/>
    <g>
     <use style="fill:none;stroke:#000080;stroke-width:1.5;" x="333.168" xlink:href="#m54e190f852" y="169.060547"/>
     <use style="fill:none;stroke:#000080;stroke-width:1.5;" x="363.64328" xlink:href="#m54e190f852" y="289.532673"/>
    </g>
   </g>
   <g id="line2d_62">
    <path d="M 333.168 27.513663 
L 363.64328 225.364752 
" style="fill:none;stroke:#ff7500;stroke-linecap:square;stroke-width:1.5;"/>
    <g>
     <use style="fill:none;stroke:#ff7500;stroke-linejoin:bevel;stroke-width:1.5;" x="333.168" xlink:href="#mf21e8a1762" y="27.513663"/>
     <use style="fill:none;stroke:#ff7500;stroke-linejoin:bevel;stroke-width:1.5;" x="363.64328" xlink:href="#mf21e8a1762" y="225.364752"/>
    </g>
   </g>
   <g id="line2d_63">
    <path d="M 333.168 27.513663 
L 363.64328 161.196832 
" style="fill:none;stroke:#ff00ff;stroke-linecap:square;stroke-width:1.5;"/>
    <g>
     <use style="fill:none;stroke:#ff00ff;stroke-linejoin:miter;stroke-width:1.5;" x="333.168" xlink:href="#m2d0ed11289" y="27.513663"/>
     <use style="fill:none;stroke:#ff00ff;stroke-linejoin:miter;stroke-width:1.5;" x="363.64328" xlink:href="#m2d0ed11289" y="161.196832"/>
    </g>
   </g>
   <g id="line2d_64">
    <path d="M 333.168 27.513663 
L 363.64328 97.028911 
" style="fill:none;stroke:#6495ed;stroke-linecap:square;stroke-width:1.5;"/>
    <g>
     <use style="fill:none;stroke:#6495ed;stroke-linejoin:miter;stroke-width:1.5;" x="333.168" xlink:href="#m76df33eb6a" y="27.513663"/>
     <use style="fill:none;stroke:#6495ed;stroke-linejoin:miter;stroke-width:1.5;" x="363.64328" xlink:href="#m76df33eb6a" y="97.028911"/>
    </g>
   </g>
   <g id="line2d_65">
    <path d="M 333.168 294.88 
L 333.168 27.513663 
" style="fill:none;stroke:#000000;stroke-linecap:square;stroke-width:1.5;"/>
   </g>
   <g id="patch_3">
    <path d="M 56.12 294.88 
L 56.12 24.84 
" style="fill:none;stroke:#000000;stroke-linecap:square;stroke-linejoin:miter;stroke-width:0.8;"/>
   </g>
   <g id="patch_4">
    <path d="M 333.168 294.88 
L 333.168 24.84 
" style="fill:none;stroke:#000000;stroke-linecap:square;stroke-linejoin:miter;stroke-width:0.8;"/>
   </g>
   <g id="patch_5">
    <path d="M 56.12 294.88 
L 333.168 294.88 
" style="fill:none;stroke:#000000;stroke-linecap:square;stroke-linejoin:miter;stroke-width:0.8;"/>
   </g>
   <g id="patch_6">
    <path d="M 56.12 24.84 
L 333.168 24.84 
" style="fill:none;stroke:#000000;stroke-linecap:square;stroke-linejoin:miter;stroke-width:0.8;"/>
   </g>
   <g id="text_13">
    <!-- CMA ES PPM -->
    <defs>
     <path d="M 64.40625 67.28125 
L 64.40625 56.890625 
Q 59.421875 61.53125 53.78125 63.8125 
Q 48.140625 66.109375 41.796875 66.109375 
Q 29.296875 66.109375 22.65625 58.46875 
Q 16.015625 50.828125 16.015625 36.375 
Q 16.015625 21.96875 22.65625 14.328125 
Q 29.296875 6.6875 41.796875 6.6875 
Q 48.140625 6.6875 53.78125 8.984375 
Q 59.421875 11.28125 64.40625 15.921875 
L 64.40625 5.609375 
Q 59.234375 2.09375 53.4375 0.328125 
Q 47.65625 -1.421875 41.21875 -1.421875 
Q 24.65625 -1.421875 15.125 8.703125 
Q 5.609375 18.84375 5.609375 36.375 
Q 5.609375 53.953125 15.125 64.078125 
Q 24.65625 74.21875 41.21875 74.21875 
Q 47.75 74.21875 53.53125 72.484375 
Q 59.328125 70.75 64.40625 67.28125 
z
" id="DejaVuSans-43"/>
     <path d="M 9.8125 72.90625 
L 24.515625 72.90625 
L 43.109375 23.296875 
L 61.8125 72.90625 
L 76.515625 72.90625 
L 76.515625 0 
L 66.890625 0 
L 66.890625 64.015625 
L 48.09375 14.015625 
L 38.1875 14.015625 
L 19.390625 64.015625 
L 19.390625 0 
L 9.8125 0 
z
" id="DejaVuSans-4d"/>
     <path d="M 34.1875 63.1875 
L 20.796875 26.90625 
L 47.609375 26.90625 
z
M 28.609375 72.90625 
L 39.796875 72.90625 
L 67.578125 0 
L 57.328125 0 
L 50.6875 18.703125 
L 17.828125 18.703125 
L 11.1875 0 
L 0.78125 0 
z
" id="DejaVuSans-41"/>
     <path d="M 9.8125 72.90625 
L 55.90625 72.90625 
L 55.90625 64.59375 
L 19.671875 64.59375 
L 19.671875 43.015625 
L 54.390625 43.015625 
L 54.390625 34.71875 
L 19.671875 34.71875 
L 19.671875 8.296875 
L 56.78125 8.296875 
L 56.78125 0 
L 9.8125 0 
z
" id="DejaVuSans-45"/>
     <path d="M 53.515625 70.515625 
L 53.515625 60.890625 
Q 47.90625 63.578125 42.921875 64.890625 
Q 37.9375 66.21875 33.296875 66.21875 
Q 25.25 66.21875 20.875 63.09375 
Q 16.5 59.96875 16.5 54.203125 
Q 16.5 49.359375 19.40625 46.890625 
Q 22.3125 44.4375 30.421875 42.921875 
L 36.375 41.703125 
Q 47.40625 39.59375 52.65625 34.296875 
Q 57.90625 29 57.90625 20.125 
Q 57.90625 9.515625 50.796875 4.046875 
Q 43.703125 -1.421875 29.984375 -1.421875 
Q 24.8125 -1.421875 18.96875 -0.25 
Q 13.140625 0.921875 6.890625 3.21875 
L 6.890625 13.375 
Q 12.890625 10.015625 18.65625 8.296875 
Q 24.421875 6.59375 29.984375 6.59375 
Q 38.421875 6.59375 43.015625 9.90625 
Q 47.609375 13.234375 47.609375 19.390625 
Q 47.609375 24.75 44.3125 27.78125 
Q 41.015625 30.8125 33.5 32.328125 
L 27.484375 33.5 
Q 16.453125 35.6875 11.515625 40.375 
Q 6.59375 45.0625 6.59375 53.421875 
Q 6.59375 63.09375 13.40625 68.65625 
Q 20.21875 74.21875 32.171875 74.21875 
Q 37.3125 74.21875 42.625 73.28125 
Q 47.953125 72.359375 53.515625 70.515625 
z
" id="DejaVuSans-53"/>
     <path d="M 19.671875 64.796875 
L 19.671875 37.40625 
L 32.078125 37.40625 
Q 38.96875 37.40625 42.71875 40.96875 
Q 46.484375 44.53125 46.484375 51.125 
Q 46.484375 57.671875 42.71875 61.234375 
Q 38.96875 64.796875 32.078125 64.796875 
z
M 9.8125 72.90625 
L 32.078125 72.90625 
Q 44.34375 72.90625 50.609375 67.359375 
Q 56.890625 61.8125 56.890625 51.125 
Q 56.890625 40.328125 50.609375 34.8125 
Q 44.34375 29.296875 32.078125 29.296875 
L 19.671875 29.296875 
L 19.671875 0 
L 9.8125 0 
z
" id="DejaVuSans-50"/>
    </defs>
    <g transform="translate(369.18424 294.223611)scale(0.17 -0.17)">
     <use xlink:href="#DejaVuSans-43"/>
     <use x="69.824219" xlink:href="#DejaVuSans-4d"/>
     <use x="156.103516" xlink:href="#DejaVuSans-41"/>
     <use x="224.511719" xlink:href="#DejaVuSans-20"/>
     <use x="256.298828" xlink:href="#DejaVuSans-45"/>
     <use x="319.482422" xlink:href="#DejaVuSans-53"/>
     <use x="382.958984" xlink:href="#DejaVuSans-20"/>
     <use x="414.746094" xlink:href="#DejaVuSans-50"/>
     <use x="475.048828" xlink:href="#DejaVuSans-50"/>
     <use x="535.351562" xlink:href="#DejaVuSans-4d"/>
    </g>
   </g>
   <g id="text_14">
    <!-- ppmf-new -->
    <defs>
     <path d="M 4.203125 54.6875 
L 13.1875 54.6875 
L 24.421875 12.015625 
L 35.59375 54.6875 
L 46.1875 54.6875 
L 57.421875 12.015625 
L 68.609375 54.6875 
L 77.59375 54.6875 
L 63.28125 0 
L 52.6875 0 
L 40.921875 44.828125 
L 29.109375 0 
L 18.5 0 
z
" id="DejaVuSans-77"/>
    </defs>
    <g transform="translate(369.18424 230.05569)scale(0.17 -0.17)">
     <use xlink:href="#DejaVuSans-70"/>
     <use x="63.476562" xlink:href="#DejaVuSans-70"/>
     <use x="126.953125" xlink:href="#DejaVuSans-6d"/>
     <use x="224.365234" xlink:href="#DejaVuSans-66"/>
     <use x="259.492188" xlink:href="#DejaVuSans-2d"/>
     <use x="295.576172" xlink:href="#DejaVuSans-6e"/>
     <use x="358.955078" xlink:href="#DejaVuSans-65"/>
     <use x="420.478516" xlink:href="#DejaVuSans-77"/>
    </g>
   </g>
   <g id="text_15">
    <!-- CMA ES CSA -->
    <g transform="translate(369.18424 165.887769)scale(0.17 -0.17)">
     <use xlink:href="#DejaVuSans-43"/>
     <use x="69.824219" xlink:href="#DejaVuSans-4d"/>
     <use x="156.103516" xlink:href="#DejaVuSans-41"/>
     <use x="224.511719" xlink:href="#DejaVuSans-20"/>
     <use x="256.298828" xlink:href="#DejaVuSans-45"/>
     <use x="319.482422" xlink:href="#DejaVuSans-53"/>
     <use x="382.958984" xlink:href="#DejaVuSans-20"/>
     <use x="414.746094" xlink:href="#DejaVuSans-43"/>
     <use x="484.570312" xlink:href="#DejaVuSans-53"/>
     <use x="548.0625" xlink:href="#DejaVuSans-41"/>
    </g>
   </g>
   <g id="text_16">
    <!-- CMAES posi -->
    <g transform="translate(369.18424 101.719848)scale(0.17 -0.17)">
     <use xlink:href="#DejaVuSans-43"/>
     <use x="69.824219" xlink:href="#DejaVuSans-4d"/>
     <use x="156.103516" xlink:href="#DejaVuSans-41"/>
     <use x="224.511719" xlink:href="#DejaVuSans-45"/>
     <use x="287.695312" xlink:href="#DejaVuSans-53"/>
     <use x="351.171875" xlink:href="#DejaVuSans-20"/>
     <use x="382.958984" xlink:href="#DejaVuSans-70"/>
     <use x="446.435547" xlink:href="#DejaVuSans-6f"/>
     <use x="507.617188" xlink:href="#DejaVuSans-73"/>
     <use x="559.716797" xlink:href="#DejaVuSans-69"/>
    </g>
   </g>
   <g id="text_17">
    <!-- best 2009 -->
    <defs>
     <path d="M 48.6875 27.296875 
Q 48.6875 37.203125 44.609375 42.84375 
Q 40.53125 48.484375 33.40625 48.484375 
Q 26.265625 48.484375 22.1875 42.84375 
Q 18.109375 37.203125 18.109375 27.296875 
Q 18.109375 17.390625 22.1875 11.75 
Q 26.265625 6.109375 33.40625 6.109375 
Q 40.53125 6.109375 44.609375 11.75 
Q 48.6875 17.390625 48.6875 27.296875 
z
M 18.109375 46.390625 
Q 20.953125 51.265625 25.265625 53.625 
Q 29.59375 56 35.59375 56 
Q 45.5625 56 51.78125 48.09375 
Q 58.015625 40.1875 58.015625 27.296875 
Q 58.015625 14.40625 51.78125 6.484375 
Q 45.5625 -1.421875 35.59375 -1.421875 
Q 29.59375 -1.421875 25.265625 0.953125 
Q 20.953125 3.328125 18.109375 8.203125 
L 18.109375 0 
L 9.078125 0 
L 9.078125 75.984375 
L 18.109375 75.984375 
z
" id="DejaVuSans-62"/>
     <path d="M 10.984375 1.515625 
L 10.984375 10.5 
Q 14.703125 8.734375 18.5 7.8125 
Q 22.3125 6.890625 25.984375 6.890625 
Q 35.75 6.890625 40.890625 13.453125 
Q 46.046875 20.015625 46.78125 33.40625 
Q 43.953125 29.203125 39.59375 26.953125 
Q 35.25 24.703125 29.984375 24.703125 
Q 19.046875 24.703125 12.671875 31.3125 
Q 6.296875 37.9375 6.296875 49.421875 
Q 6.296875 60.640625 12.9375 67.421875 
Q 19.578125 74.21875 30.609375 74.21875 
Q 43.265625 74.21875 49.921875 64.515625 
Q 56.59375 54.828125 56.59375 36.375 
Q 56.59375 19.140625 48.40625 8.859375 
Q 40.234375 -1.421875 26.421875 -1.421875 
Q 22.703125 -1.421875 18.890625 -0.6875 
Q 15.09375 0.046875 10.984375 1.515625 
z
M 30.609375 32.421875 
Q 37.25 32.421875 41.125 36.953125 
Q 45.015625 41.5 45.015625 49.421875 
Q 45.015625 57.28125 41.125 61.84375 
Q 37.25 66.40625 30.609375 66.40625 
Q 23.96875 66.40625 20.09375 61.84375 
Q 16.21875 57.28125 16.21875 49.421875 
Q 16.21875 41.5 20.09375 36.953125 
Q 23.96875 32.421875 30.609375 32.421875 
z
" id="DejaVuSans-39"/>
    </defs>
    <g transform="translate(369.18424 37.551928)scale(0.17 -0.17)">
     <use xlink:href="#DejaVuSans-62"/>
     <use x="63.476562" xlink:href="#DejaVuSans-65"/>
     <use x="125" xlink:href="#DejaVuSans-73"/>
     <use x="177.099609" xlink:href="#DejaVuSans-74"/>
     <use x="216.308594" xlink:href="#DejaVuSans-20"/>
     <use x="248.095703" xlink:href="#DejaVuSans-32"/>
     <use x="311.71875" xlink:href="#DejaVuSans-30"/>
     <use x="375.341797" xlink:href="#DejaVuSans-30"/>
     <use x="438.964844" xlink:href="#DejaVuSans-39"/>
    </g>
   </g>
   <g id="text_18">
    <!-- bbob f22, 3-D -->
    <defs>
     <path d="M 40.578125 39.3125 
Q 47.65625 37.796875 51.625 33 
Q 55.609375 28.21875 55.609375 21.1875 
Q 55.609375 10.40625 48.1875 4.484375 
Q 40.765625 -1.421875 27.09375 -1.421875 
Q 22.515625 -1.421875 17.65625 -0.515625 
Q 12.796875 0.390625 7.625 2.203125 
L 7.625 11.71875 
Q 11.71875 9.328125 16.59375 8.109375 
Q 21.484375 6.890625 26.8125 6.890625 
Q 36.078125 6.890625 40.9375 10.546875 
Q 45.796875 14.203125 45.796875 21.1875 
Q 45.796875 27.640625 41.28125 31.265625 
Q 36.765625 34.90625 28.71875 34.90625 
L 20.21875 34.90625 
L 20.21875 43.015625 
L 29.109375 43.015625 
Q 36.375 43.015625 40.234375 45.921875 
Q 44.09375 48.828125 44.09375 54.296875 
Q 44.09375 59.90625 40.109375 62.90625 
Q 36.140625 65.921875 28.71875 65.921875 
Q 24.65625 65.921875 20.015625 65.03125 
Q 15.375 64.15625 9.8125 62.3125 
L 9.8125 71.09375 
Q 15.4375 72.65625 20.34375 73.4375 
Q 25.25 74.21875 29.59375 74.21875 
Q 40.828125 74.21875 47.359375 69.109375 
Q 53.90625 64.015625 53.90625 55.328125 
Q 53.90625 49.265625 50.4375 45.09375 
Q 46.96875 40.921875 40.578125 39.3125 
z
" id="DejaVuSans-33"/>
     <path d="M 19.671875 64.796875 
L 19.671875 8.109375 
L 31.59375 8.109375 
Q 46.6875 8.109375 53.6875 14.9375 
Q 60.6875 21.78125 60.6875 36.53125 
Q 60.6875 51.171875 53.6875 57.984375 
Q 46.6875 64.796875 31.59375 64.796875 
z
M 9.8125 72.90625 
L 30.078125 72.90625 
Q 51.265625 72.90625 61.171875 64.09375 
Q 71.09375 55.28125 71.09375 36.53125 
Q 71.09375 17.671875 61.125 8.828125 
Q 51.171875 0 30.078125 0 
L 9.8125 0 
z
" id="DejaVuSans-44"/>
    </defs>
    <g transform="translate(58.89048 35.290806)scale(0.102 -0.102)">
     <use xlink:href="#DejaVuSans-62"/>
     <use x="63.476562" xlink:href="#DejaVuSans-62"/>
     <use x="126.953125" xlink:href="#DejaVuSans-6f"/>
     <use x="188.134766" xlink:href="#DejaVuSans-62"/>
     <use x="251.611328" xlink:href="#DejaVuSans-20"/>
     <use x="283.398438" xlink:href="#DejaVuSans-66"/>
     <use x="318.603516" xlink:href="#DejaVuSans-32"/>
     <use x="382.226562" xlink:href="#DejaVuSans-32"/>
     <use x="445.849609" xlink:href="#DejaVuSans-2c"/>
     <use x="477.636719" xlink:href="#DejaVuSans-20"/>
     <use x="509.423828" xlink:href="#DejaVuSans-33"/>
     <use x="573.046875" xlink:href="#DejaVuSans-2d"/>
     <use x="609.130859" xlink:href="#DejaVuSans-44"/>
    </g>
    <!-- 51 targets: 100..1e-08 -->
    <defs>
     <path d="M 10.796875 72.90625 
L 49.515625 72.90625 
L 49.515625 64.59375 
L 19.828125 64.59375 
L 19.828125 46.734375 
Q 21.96875 47.46875 24.109375 47.828125 
Q 26.265625 48.1875 28.421875 48.1875 
Q 40.625 48.1875 47.75 41.5 
Q 54.890625 34.8125 54.890625 23.390625 
Q 54.890625 11.625 47.5625 5.09375 
Q 40.234375 -1.421875 26.90625 -1.421875 
Q 22.3125 -1.421875 17.546875 -0.640625 
Q 12.796875 0.140625 7.71875 1.703125 
L 7.71875 11.625 
Q 12.109375 9.234375 16.796875 8.0625 
Q 21.484375 6.890625 26.703125 6.890625 
Q 35.15625 6.890625 40.078125 11.328125 
Q 45.015625 15.765625 45.015625 23.390625 
Q 45.015625 31 40.078125 35.4375 
Q 35.15625 39.890625 26.703125 39.890625 
Q 22.75 39.890625 18.8125 39.015625 
Q 14.890625 38.140625 10.796875 36.28125 
z
" id="DejaVuSans-35"/>
     <path d="M 11.71875 12.40625 
L 22.015625 12.40625 
L 22.015625 0 
L 11.71875 0 
z
M 11.71875 51.703125 
L 22.015625 51.703125 
L 22.015625 39.3125 
L 11.71875 39.3125 
z
" id="DejaVuSans-3a"/>
    </defs>
    <g transform="translate(58.89048 46.712575)scale(0.102 -0.102)">
     <use xlink:href="#DejaVuSans-35"/>
     <use x="63.623047" xlink:href="#DejaVuSans-31"/>
     <use x="127.246094" xlink:href="#DejaVuSans-20"/>
     <use x="159.033203" xlink:href="#DejaVuSans-74"/>
     <use x="198.242188" xlink:href="#DejaVuSans-61"/>
     <use x="259.521484" xlink:href="#DejaVuSans-72"/>
     <use x="300.619141" xlink:href="#DejaVuSans-67"/>
     <use x="364.095703" xlink:href="#DejaVuSans-65"/>
     <use x="425.619141" xlink:href="#DejaVuSans-74"/>
     <use x="464.828125" xlink:href="#DejaVuSans-73"/>
     <use x="516.927734" xlink:href="#DejaVuSans-3a"/>
     <use x="550.619141" xlink:href="#DejaVuSans-20"/>
     <use x="582.40625" xlink:href="#DejaVuSans-31"/>
     <use x="646.029297" xlink:href="#DejaVuSans-30"/>
     <use x="709.652344" xlink:href="#DejaVuSans-30"/>
     <use x="773.275391" xlink:href="#DejaVuSans-2e"/>
     <use x="805.0625" xlink:href="#DejaVuSans-2e"/>
     <use x="836.849609" xlink:href="#DejaVuSans-31"/>
     <use x="900.472656" xlink:href="#DejaVuSans-65"/>
     <use x="961.996094" xlink:href="#DejaVuSans-2d"/>
     <use x="998.080078" xlink:href="#DejaVuSans-30"/>
     <use x="1061.703125" xlink:href="#DejaVuSans-38"/>
    </g>
    <!-- 15 instances -->
    <g transform="translate(58.89048 58.134344)scale(0.102 -0.102)">
     <use xlink:href="#DejaVuSans-31"/>
     <use x="63.623047" xlink:href="#DejaVuSans-35"/>
     <use x="127.246094" xlink:href="#DejaVuSans-20"/>
     <use x="159.033203" xlink:href="#DejaVuSans-69"/>
     <use x="186.816406" xlink:href="#DejaVuSans-6e"/>
     <use x="250.195312" xlink:href="#DejaVuSans-73"/>
     <use x="302.294922" xlink:href="#DejaVuSans-74"/>
     <use x="341.503906" xlink:href="#DejaVuSans-61"/>
     <use x="402.783203" xlink:href="#DejaVuSans-6e"/>
     <use x="466.162109" xlink:href="#DejaVuSans-63"/>
     <use x="521.142578" xlink:href="#DejaVuSans-65"/>
     <use x="582.666016" xlink:href="#DejaVuSans-73"/>
    </g>
   </g>
   <g id="text_19">
    <!-- v0.0.0 -->
    <g style="fill:#808080;" transform="translate(178.96275 290.099912)scale(0.1 -0.1)">
     <use xlink:href="#DejaVuSans-76"/>
     <use x="59.179688" xlink:href="#DejaVuSans-30"/>
     <use x="122.802734" xlink:href="#DejaVuSans-2e"/>
     <use x="154.589844" xlink:href="#DejaVuSans-30"/>
     <use x="218.212891" xlink:href="#DejaVuSans-2e"/>
     <use x="250" xlink:href="#DejaVuSans-30"/>
    </g>
   </g>
   <g id="text_20">
    <!-- 22 Gallagher 21 peaks -->
    <defs>
     <path d="M 59.515625 10.40625 
L 59.515625 29.984375 
L 43.40625 29.984375 
L 43.40625 38.09375 
L 69.28125 38.09375 
L 69.28125 6.78125 
Q 63.578125 2.734375 56.6875 0.65625 
Q 49.8125 -1.421875 42 -1.421875 
Q 24.90625 -1.421875 15.25 8.5625 
Q 5.609375 18.5625 5.609375 36.375 
Q 5.609375 54.25 15.25 64.234375 
Q 24.90625 74.21875 42 74.21875 
Q 49.125 74.21875 55.546875 72.453125 
Q 61.96875 70.703125 67.390625 67.28125 
L 67.390625 56.78125 
Q 61.921875 61.421875 55.765625 63.765625 
Q 49.609375 66.109375 42.828125 66.109375 
Q 29.4375 66.109375 22.71875 58.640625 
Q 16.015625 51.171875 16.015625 36.375 
Q 16.015625 21.625 22.71875 14.15625 
Q 29.4375 6.6875 42.828125 6.6875 
Q 48.046875 6.6875 52.140625 7.59375 
Q 56.25 8.5 59.515625 10.40625 
z
" id="DejaVuSans-47"/>
     <path d="M 54.890625 33.015625 
L 54.890625 0 
L 45.90625 0 
L 45.90625 32.71875 
Q 45.90625 40.484375 42.875 44.328125 
Q 39.84375 48.1875 33.796875 48.1875 
Q 26.515625 48.1875 22.3125 43.546875 
Q 18.109375 38.921875 18.109375 30.90625 
L 18.109375 0 
L 9.078125 0 
L 9.078125 75.984375 
L 18.109375 75.984375 
L 18.109375 46.1875 
Q 21.34375 51.125 25.703125 53.5625 
Q 30.078125 56 35.796875 56 
Q 45.21875 56 50.046875 50.171875 
Q 54.890625 44.34375 54.890625 33.015625 
z
" id="DejaVuSans-68"/>
     <path d="M 9.078125 75.984375 
L 18.109375 75.984375 
L 18.109375 31.109375 
L 44.921875 54.6875 
L 56.390625 54.6875 
L 27.390625 29.109375 
L 57.625 0 
L 45.90625 0 
L 18.109375 26.703125 
L 18.109375 0 
L 9.078125 0 
z
" id="DejaVuSans-6b"/>
    </defs>
    <g transform="translate(81.519 18.84)scale(0.2 -0.2)">
     <use xlink:href="#DejaVuSans-32"/>
     <use x="63.623047" xlink:href="#DejaVuSans-32"/>
     <use x="127.246094" xlink:href="#DejaVuSans-20"/>
     <use x="159.033203" xlink:href="#DejaVuSans-47"/>
     <use x="236.523438" xlink:href="#DejaVuSans-61"/>
     <use x="297.802734" xlink:href="#DejaVuSans-6c"/>
     <use x="325.585938" xlink:href="#DejaVuSans-6c"/>
     <use x="353.369141" xlink:href="#DejaVuSans-61"/>
     <use x="414.648438" xlink:href="#DejaVuSans-67"/>
     <use x="478.125" xlink:href="#DejaVuSans-68"/>
     <use x="541.503906" xlink:href="#DejaVuSans-65"/>
     <use x="603.027344" xlink:href="#DejaVuSans-72"/>
     <use x="644.140625" xlink:href="#DejaVuSans-20"/>
     <use x="675.927734" xlink:href="#DejaVuSans-32"/>
     <use x="739.550781" xlink:href="#DejaVuSans-31"/>
     <use x="803.173828" xlink:href="#DejaVuSans-20"/>
     <use x="834.960938" xlink:href="#DejaVuSans-70"/>
     <use x="898.4375" xlink:href="#DejaVuSans-65"/>
     <use x="959.960938" xlink:href="#DejaVuSans-61"/>
     <use x="1021.240234" xlink:href="#DejaVuSans-6b"/>
     <use x="1079.150391" xlink:href="#DejaVuSans-73"/>
    </g>
   </g>
  </g>
 </g>
 <defs>
  <clipPath id="p8f50c03072">
   <rect height="270.04" width="277.048" x="56.12" y="24.84"/>
  </clipPath>
 </defs>
</svg>
