<?xml version="1.0" encoding="utf-8" standalone="no"?>
<!DOCTYPE svg PUBLIC "-//W3C//DTD SVG 1.1//EN"
  "http://www.w3.org/Graphics/SVG/1.1/DTD/svg11.dtd">
<!-- Created with matplotlib (http://matplotlib.org/) -->
<svg height="345pt" version="1.1" viewBox="0 0 460 345" width="460pt" xmlns="http://www.w3.org/2000/svg" xmlns:xlink="http://www.w3.org/1999/xlink">
 <defs>
  <style type="text/css">
*{stroke-linecap:butt;stroke-linejoin:round;}
  </style>
 </defs>
 <g id="figure_1">
  <g id="patch_1">
   <path d="M 0 345.6 
L 460.8 345.6 
L 460.8 0 
L 0 0 
z
" style="fill:#ffffff;"/>
  </g>
  <g id="axes_1">
   <g id="patch_2">
    <path d="M 56.12 294.88 
L 333.168 294.88 
L 333.168 24.84 
L 56.12 24.84 
z
" style="fill:#ffffff;"/>
   </g>
   <g id="line2d_1">
    <path d="M 68.667033 294.88 
L 68.667033 27.513663 
L 333.168 27.513663 
" style="fill:none;stroke:#f5deb3;stroke-linecap:square;stroke-width:4;"/>
   </g>
   <g id="line2d_2">
    <defs>
     <path d="M -0 7.778175 
L 7.778175 0 
L 0 -7.778175 
L -7.778175 -0 
z
" id="maac9da86c1" style="stroke:#f5deb3;stroke-linejoin:miter;stroke-width:1.5;"/>
    </defs>
    <g>
     <use style="fill:#f5deb3;stroke:#f5deb3;stroke-linejoin:miter;stroke-width:1.5;" x="68.667033" xlink:href="#maac9da86c1" y="294.88"/>
     <use style="fill:#f5deb3;stroke:#f5deb3;stroke-linejoin:miter;stroke-width:1.5;" x="68.667033" xlink:href="#maac9da86c1" y="294.88"/>
     <use style="fill:#f5deb3;stroke:#f5deb3;stroke-linejoin:miter;stroke-width:1.5;" x="68.667033" xlink:href="#maac9da86c1" y="27.513663"/>
     <use style="fill:#f5deb3;stroke:#f5deb3;stroke-linejoin:miter;stroke-width:1.5;" x="68.667033" xlink:href="#maac9da86c1" y="27.513663"/>
     <use style="fill:#f5deb3;stroke:#f5deb3;stroke-linejoin:miter;stroke-width:1.5;" x="333.168" xlink:href="#maac9da86c1" y="27.513663"/>
    </g>
   </g>
   <g id="line2d_3">
    <path style="fill:none;stroke:#f5deb3;stroke-linecap:square;stroke-width:4;"/>
    <g/>
   </g>
   <g id="line2d_4">
    <path d="M 333.168 27.513663 
L 363.64328 32.86099 
" style="fill:none;stroke:#f5deb3;stroke-linecap:square;stroke-width:4;"/>
    <g>
     <use style="fill:#f5deb3;stroke:#f5deb3;stroke-linejoin:miter;stroke-width:1.5;" x="333.168" xlink:href="#maac9da86c1" y="27.513663"/>
     <use style="fill:#f5deb3;stroke:#f5deb3;stroke-linejoin:miter;stroke-width:1.5;" x="363.64328" xlink:href="#maac9da86c1" y="32.86099"/>
    </g>
   </g>
   <g id="matplotlib.axis_1">
    <g id="xtick_1">
     <g id="line2d_5">
      <path clip-path="url(#p2ff95d72d3)" d="M 56.12 294.88 
L 56.12 24.84 
" style="fill:none;stroke:#b0b0b0;stroke-linecap:square;stroke-width:0.8;"/>
     </g>
     <g id="line2d_6">
      <defs>
       <path d="M 0 0 
L 0 3.5 
" id="m6f8ed19cc5" style="stroke:#000000;stroke-width:0.8;"/>
      </defs>
      <g>
       <use style="stroke:#000000;stroke-width:0.8;" x="56.12" xlink:href="#m6f8ed19cc5" y="294.88"/>
      </g>
     </g>
     <g id="text_1">
      <!-- 0 -->
      <defs>
       <path d="M 31.78125 66.40625 
Q 24.171875 66.40625 20.328125 58.90625 
Q 16.5 51.421875 16.5 36.375 
Q 16.5 21.390625 20.328125 13.890625 
Q 24.171875 6.390625 31.78125 6.390625 
Q 39.453125 6.390625 43.28125 13.890625 
Q 47.125 21.390625 47.125 36.375 
Q 47.125 51.421875 43.28125 58.90625 
Q 39.453125 66.40625 31.78125 66.40625 
z
M 31.78125 74.21875 
Q 44.046875 74.21875 50.515625 64.515625 
Q 56.984375 54.828125 56.984375 36.375 
Q 56.984375 17.96875 50.515625 8.265625 
Q 44.046875 -1.421875 31.78125 -1.421875 
Q 19.53125 -1.421875 13.0625 8.265625 
Q 6.59375 17.96875 6.59375 36.375 
Q 6.59375 54.828125 13.0625 64.515625 
Q 19.53125 74.21875 31.78125 74.21875 
z
" id="DejaVuSans-30"/>
      </defs>
      <g transform="translate(49.7575 317.076875)scale(0.2 -0.2)">
       <use xlink:href="#DejaVuSans-30"/>
      </g>
     </g>
    </g>
    <g id="xtick_2">
     <g id="line2d_7">
      <path clip-path="url(#p2ff95d72d3)" d="M 135.276571 294.88 
L 135.276571 24.84 
" style="fill:none;stroke:#b0b0b0;stroke-linecap:square;stroke-width:0.8;"/>
     </g>
     <g id="line2d_8">
      <g>
       <use style="stroke:#000000;stroke-width:0.8;" x="135.276571" xlink:href="#m6f8ed19cc5" y="294.88"/>
      </g>
     </g>
     <g id="text_2">
      <!-- 2 -->
      <defs>
       <path d="M 19.1875 8.296875 
L 53.609375 8.296875 
L 53.609375 0 
L 7.328125 0 
L 7.328125 8.296875 
Q 12.9375 14.109375 22.625 23.890625 
Q 32.328125 33.6875 34.8125 36.53125 
Q 39.546875 41.84375 41.421875 45.53125 
Q 43.3125 49.21875 43.3125 52.78125 
Q 43.3125 58.59375 39.234375 62.25 
Q 35.15625 65.921875 28.609375 65.921875 
Q 23.96875 65.921875 18.8125 64.3125 
Q 13.671875 62.703125 7.8125 59.421875 
L 7.8125 69.390625 
Q 13.765625 71.78125 18.9375 73 
Q 24.125 74.21875 28.421875 74.21875 
Q 39.75 74.21875 46.484375 68.546875 
Q 53.21875 62.890625 53.21875 53.421875 
Q 53.21875 48.921875 51.53125 44.890625 
Q 49.859375 40.875 45.40625 35.40625 
Q 44.1875 33.984375 37.640625 27.21875 
Q 31.109375 20.453125 19.1875 8.296875 
z
" id="DejaVuSans-32"/>
      </defs>
      <g transform="translate(128.914071 317.076875)scale(0.2 -0.2)">
       <use xlink:href="#DejaVuSans-32"/>
      </g>
     </g>
    </g>
    <g id="xtick_3">
     <g id="line2d_9">
      <path clip-path="url(#p2ff95d72d3)" d="M 214.433143 294.88 
L 214.433143 24.84 
" style="fill:none;stroke:#b0b0b0;stroke-linecap:square;stroke-width:0.8;"/>
     </g>
     <g id="line2d_10">
      <g>
       <use style="stroke:#000000;stroke-width:0.8;" x="214.433143" xlink:href="#m6f8ed19cc5" y="294.88"/>
      </g>
     </g>
     <g id="text_3">
      <!-- 4 -->
      <defs>
       <path d="M 37.796875 64.3125 
L 12.890625 25.390625 
L 37.796875 25.390625 
z
M 35.203125 72.90625 
L 47.609375 72.90625 
L 47.609375 25.390625 
L 58.015625 25.390625 
L 58.015625 17.1875 
L 47.609375 17.1875 
L 47.609375 0 
L 37.796875 0 
L 37.796875 17.1875 
L 4.890625 17.1875 
L 4.890625 26.703125 
z
" id="DejaVuSans-34"/>
      </defs>
      <g transform="translate(208.070643 317.076875)scale(0.2 -0.2)">
       <use xlink:href="#DejaVuSans-34"/>
      </g>
     </g>
    </g>
    <g id="xtick_4">
     <g id="line2d_11">
      <path clip-path="url(#p2ff95d72d3)" d="M 293.589714 294.88 
L 293.589714 24.84 
" style="fill:none;stroke:#b0b0b0;stroke-linecap:square;stroke-width:0.8;"/>
     </g>
     <g id="line2d_12">
      <g>
       <use style="stroke:#000000;stroke-width:0.8;" x="293.589714" xlink:href="#m6f8ed19cc5" y="294.88"/>
      </g>
     </g>
     <g id="text_4">
      <!-- 6 -->
      <defs>
       <path d="M 33.015625 40.375 
Q 26.375 40.375 22.484375 35.828125 
Q 18.609375 31.296875 18.609375 23.390625 
Q 18.609375 15.53125 22.484375 10.953125 
Q 26.375 6.390625 33.015625 6.390625 
Q 39.65625 6.390625 43.53125 10.953125 
Q 47.40625 15.53125 47.40625 23.390625 
Q 47.40625 31.296875 43.53125 35.828125 
Q 39.65625 40.375 33.015625 40.375 
z
M 52.59375 71.296875 
L 52.59375 62.3125 
Q 48.875 64.0625 45.09375 64.984375 
Q 41.3125 65.921875 37.59375 65.921875 
Q 27.828125 65.921875 22.671875 59.328125 
Q 17.53125 52.734375 16.796875 39.40625 
Q 19.671875 43.65625 24.015625 45.921875 
Q 28.375 48.1875 33.59375 48.1875 
Q 44.578125 48.1875 50.953125 41.515625 
Q 57.328125 34.859375 57.328125 23.390625 
Q 57.328125 12.15625 50.6875 5.359375 
Q 44.046875 -1.421875 33.015625 -1.421875 
Q 20.359375 -1.421875 13.671875 8.265625 
Q 6.984375 17.96875 6.984375 36.375 
Q 6.984375 53.65625 15.1875 63.9375 
Q 23.390625 74.21875 37.203125 74.21875 
Q 40.921875 74.21875 44.703125 73.484375 
Q 48.484375 72.75 52.59375 71.296875 
z
" id="DejaVuSans-36"/>
      </defs>
      <g transform="translate(287.227214 317.076875)scale(0.2 -0.2)">
       <use xlink:href="#DejaVuSans-36"/>
      </g>
     </g>
    </g>
    <g id="xtick_5">
     <g id="line2d_13">
      <path clip-path="url(#p2ff95d72d3)" d="M 56.12 294.88 
L 56.12 24.84 
" style="fill:none;stroke:#b0b0b0;stroke-linecap:square;stroke-width:0.8;"/>
     </g>
     <g id="line2d_14">
      <defs>
       <path d="M 0 0 
L 0 2 
" id="m83a05c08b2" style="stroke:#000000;stroke-width:0.6;"/>
      </defs>
      <g>
       <use style="stroke:#000000;stroke-width:0.6;" x="56.12" xlink:href="#m83a05c08b2" y="294.88"/>
      </g>
     </g>
    </g>
    <g id="xtick_6">
     <g id="line2d_15">
      <path clip-path="url(#p2ff95d72d3)" d="M 95.698286 294.88 
L 95.698286 24.84 
" style="fill:none;stroke:#b0b0b0;stroke-linecap:square;stroke-width:0.8;"/>
     </g>
     <g id="line2d_16">
      <g>
       <use style="stroke:#000000;stroke-width:0.6;" x="95.698286" xlink:href="#m83a05c08b2" y="294.88"/>
      </g>
     </g>
    </g>
    <g id="xtick_7">
     <g id="line2d_17">
      <path clip-path="url(#p2ff95d72d3)" d="M 135.276571 294.88 
L 135.276571 24.84 
" style="fill:none;stroke:#b0b0b0;stroke-linecap:square;stroke-width:0.8;"/>
     </g>
     <g id="line2d_18">
      <g>
       <use style="stroke:#000000;stroke-width:0.6;" x="135.276571" xlink:href="#m83a05c08b2" y="294.88"/>
      </g>
     </g>
    </g>
    <g id="xtick_8">
     <g id="line2d_19">
      <path clip-path="url(#p2ff95d72d3)" d="M 174.854857 294.88 
L 174.854857 24.84 
" style="fill:none;stroke:#b0b0b0;stroke-linecap:square;stroke-width:0.8;"/>
     </g>
     <g id="line2d_20">
      <g>
       <use style="stroke:#000000;stroke-width:0.6;" x="174.854857" xlink:href="#m83a05c08b2" y="294.88"/>
      </g>
     </g>
    </g>
    <g id="xtick_9">
     <g id="line2d_21">
      <path clip-path="url(#p2ff95d72d3)" d="M 214.433143 294.88 
L 214.433143 24.84 
" style="fill:none;stroke:#b0b0b0;stroke-linecap:square;stroke-width:0.8;"/>
     </g>
     <g id="line2d_22">
      <g>
       <use style="stroke:#000000;stroke-width:0.6;" x="214.433143" xlink:href="#m83a05c08b2" y="294.88"/>
      </g>
     </g>
    </g>
    <g id="xtick_10">
     <g id="line2d_23">
      <path clip-path="url(#p2ff95d72d3)" d="M 254.011429 294.88 
L 254.011429 24.84 
" style="fill:none;stroke:#b0b0b0;stroke-linecap:square;stroke-width:0.8;"/>
     </g>
     <g id="line2d_24">
      <g>
       <use style="stroke:#000000;stroke-width:0.6;" x="254.011429" xlink:href="#m83a05c08b2" y="294.88"/>
      </g>
     </g>
    </g>
    <g id="xtick_11">
     <g id="line2d_25">
      <path clip-path="url(#p2ff95d72d3)" d="M 293.589714 294.88 
L 293.589714 24.84 
" style="fill:none;stroke:#b0b0b0;stroke-linecap:square;stroke-width:0.8;"/>
     </g>
     <g id="line2d_26">
      <g>
       <use style="stroke:#000000;stroke-width:0.6;" x="293.589714" xlink:href="#m83a05c08b2" y="294.88"/>
      </g>
     </g>
    </g>
    <g id="xtick_12">
     <g id="line2d_27">
      <path clip-path="url(#p2ff95d72d3)" d="M 333.168 294.88 
L 333.168 24.84 
" style="fill:none;stroke:#b0b0b0;stroke-linecap:square;stroke-width:0.8;"/>
     </g>
     <g id="line2d_28">
      <g>
       <use style="stroke:#000000;stroke-width:0.6;" x="333.168" xlink:href="#m83a05c08b2" y="294.88"/>
      </g>
     </g>
    </g>
    <g id="text_5">
     <!-- log10(# f-evals / dimension) -->
     <defs>
      <path d="M 9.421875 75.984375 
L 18.40625 75.984375 
L 18.40625 0 
L 9.421875 0 
z
" id="DejaVuSans-6c"/>
      <path d="M 30.609375 48.390625 
Q 23.390625 48.390625 19.1875 42.75 
Q 14.984375 37.109375 14.984375 27.296875 
Q 14.984375 17.484375 19.15625 11.84375 
Q 23.34375 6.203125 30.609375 6.203125 
Q 37.796875 6.203125 41.984375 11.859375 
Q 46.1875 17.53125 46.1875 27.296875 
Q 46.1875 37.015625 41.984375 42.703125 
Q 37.796875 48.390625 30.609375 48.390625 
z
M 30.609375 56 
Q 42.328125 56 49.015625 48.375 
Q 55.71875 40.765625 55.71875 27.296875 
Q 55.71875 13.875 49.015625 6.21875 
Q 42.328125 -1.421875 30.609375 -1.421875 
Q 18.84375 -1.421875 12.171875 6.21875 
Q 5.515625 13.875 5.515625 27.296875 
Q 5.515625 40.765625 12.171875 48.375 
Q 18.84375 56 30.609375 56 
z
" id="DejaVuSans-6f"/>
      <path d="M 45.40625 27.984375 
Q 45.40625 37.75 41.375 43.109375 
Q 37.359375 48.484375 30.078125 48.484375 
Q 22.859375 48.484375 18.828125 43.109375 
Q 14.796875 37.75 14.796875 27.984375 
Q 14.796875 18.265625 18.828125 12.890625 
Q 22.859375 7.515625 30.078125 7.515625 
Q 37.359375 7.515625 41.375 12.890625 
Q 45.40625 18.265625 45.40625 27.984375 
z
M 54.390625 6.78125 
Q 54.390625 -7.171875 48.1875 -13.984375 
Q 42 -20.796875 29.203125 -20.796875 
Q 24.46875 -20.796875 20.265625 -20.09375 
Q 16.0625 -19.390625 12.109375 -17.921875 
L 12.109375 -9.1875 
Q 16.0625 -11.328125 19.921875 -12.34375 
Q 23.78125 -13.375 27.78125 -13.375 
Q 36.625 -13.375 41.015625 -8.765625 
Q 45.40625 -4.15625 45.40625 5.171875 
L 45.40625 9.625 
Q 42.625 4.78125 38.28125 2.390625 
Q 33.9375 0 27.875 0 
Q 17.828125 0 11.671875 7.65625 
Q 5.515625 15.328125 5.515625 27.984375 
Q 5.515625 40.671875 11.671875 48.328125 
Q 17.828125 56 27.875 56 
Q 33.9375 56 38.28125 53.609375 
Q 42.625 51.21875 45.40625 46.390625 
L 45.40625 54.6875 
L 54.390625 54.6875 
z
" id="DejaVuSans-67"/>
      <path d="M 12.40625 8.296875 
L 28.515625 8.296875 
L 28.515625 63.921875 
L 10.984375 60.40625 
L 10.984375 69.390625 
L 28.421875 72.90625 
L 38.28125 72.90625 
L 38.28125 8.296875 
L 54.390625 8.296875 
L 54.390625 0 
L 12.40625 0 
z
" id="DejaVuSans-31"/>
      <path d="M 31 75.875 
Q 24.46875 64.65625 21.28125 53.65625 
Q 18.109375 42.671875 18.109375 31.390625 
Q 18.109375 20.125 21.3125 9.0625 
Q 24.515625 -2 31 -13.1875 
L 23.1875 -13.1875 
Q 15.875 -1.703125 12.234375 9.375 
Q 8.59375 20.453125 8.59375 31.390625 
Q 8.59375 42.28125 12.203125 53.3125 
Q 15.828125 64.359375 23.1875 75.875 
z
" id="DejaVuSans-28"/>
      <path d="M 51.125 44 
L 36.921875 44 
L 32.8125 27.6875 
L 47.125 27.6875 
z
M 43.796875 71.78125 
L 38.71875 51.515625 
L 52.984375 51.515625 
L 58.109375 71.78125 
L 65.921875 71.78125 
L 60.890625 51.515625 
L 76.125 51.515625 
L 76.125 44 
L 58.984375 44 
L 54.984375 27.6875 
L 70.515625 27.6875 
L 70.515625 20.21875 
L 53.078125 20.21875 
L 48 0 
L 40.1875 0 
L 45.21875 20.21875 
L 30.90625 20.21875 
L 25.875 0 
L 18.015625 0 
L 23.09375 20.21875 
L 7.71875 20.21875 
L 7.71875 27.6875 
L 24.90625 27.6875 
L 29 44 
L 13.28125 44 
L 13.28125 51.515625 
L 30.90625 51.515625 
L 35.890625 71.78125 
z
" id="DejaVuSans-23"/>
      <path id="DejaVuSans-20"/>
      <path d="M 37.109375 75.984375 
L 37.109375 68.5 
L 28.515625 68.5 
Q 23.6875 68.5 21.796875 66.546875 
Q 19.921875 64.59375 19.921875 59.515625 
L 19.921875 54.6875 
L 34.71875 54.6875 
L 34.71875 47.703125 
L 19.921875 47.703125 
L 19.921875 0 
L 10.890625 0 
L 10.890625 47.703125 
L 2.296875 47.703125 
L 2.296875 54.6875 
L 10.890625 54.6875 
L 10.890625 58.5 
Q 10.890625 67.625 15.140625 71.796875 
Q 19.390625 75.984375 28.609375 75.984375 
z
" id="DejaVuSans-66"/>
      <path d="M 4.890625 31.390625 
L 31.203125 31.390625 
L 31.203125 23.390625 
L 4.890625 23.390625 
z
" id="DejaVuSans-2d"/>
      <path d="M 56.203125 29.59375 
L 56.203125 25.203125 
L 14.890625 25.203125 
Q 15.484375 15.921875 20.484375 11.0625 
Q 25.484375 6.203125 34.421875 6.203125 
Q 39.59375 6.203125 44.453125 7.46875 
Q 49.3125 8.734375 54.109375 11.28125 
L 54.109375 2.78125 
Q 49.265625 0.734375 44.1875 -0.34375 
Q 39.109375 -1.421875 33.890625 -1.421875 
Q 20.796875 -1.421875 13.15625 6.1875 
Q 5.515625 13.8125 5.515625 26.8125 
Q 5.515625 40.234375 12.765625 48.109375 
Q 20.015625 56 32.328125 56 
Q 43.359375 56 49.78125 48.890625 
Q 56.203125 41.796875 56.203125 29.59375 
z
M 47.21875 32.234375 
Q 47.125 39.59375 43.09375 43.984375 
Q 39.0625 48.390625 32.421875 48.390625 
Q 24.90625 48.390625 20.390625 44.140625 
Q 15.875 39.890625 15.1875 32.171875 
z
" id="DejaVuSans-65"/>
      <path d="M 2.984375 54.6875 
L 12.5 54.6875 
L 29.59375 8.796875 
L 46.6875 54.6875 
L 56.203125 54.6875 
L 35.6875 0 
L 23.484375 0 
z
" id="DejaVuSans-76"/>
      <path d="M 34.28125 27.484375 
Q 23.390625 27.484375 19.1875 25 
Q 14.984375 22.515625 14.984375 16.5 
Q 14.984375 11.71875 18.140625 8.90625 
Q 21.296875 6.109375 26.703125 6.109375 
Q 34.1875 6.109375 38.703125 11.40625 
Q 43.21875 16.703125 43.21875 25.484375 
L 43.21875 27.484375 
z
M 52.203125 31.203125 
L 52.203125 0 
L 43.21875 0 
L 43.21875 8.296875 
Q 40.140625 3.328125 35.546875 0.953125 
Q 30.953125 -1.421875 24.3125 -1.421875 
Q 15.921875 -1.421875 10.953125 3.296875 
Q 6 8.015625 6 15.921875 
Q 6 25.140625 12.171875 29.828125 
Q 18.359375 34.515625 30.609375 34.515625 
L 43.21875 34.515625 
L 43.21875 35.40625 
Q 43.21875 41.609375 39.140625 45 
Q 35.0625 48.390625 27.6875 48.390625 
Q 23 48.390625 18.546875 47.265625 
Q 14.109375 46.140625 10.015625 43.890625 
L 10.015625 52.203125 
Q 14.9375 54.109375 19.578125 55.046875 
Q 24.21875 56 28.609375 56 
Q 40.484375 56 46.34375 49.84375 
Q 52.203125 43.703125 52.203125 31.203125 
z
" id="DejaVuSans-61"/>
      <path d="M 44.28125 53.078125 
L 44.28125 44.578125 
Q 40.484375 46.53125 36.375 47.5 
Q 32.28125 48.484375 27.875 48.484375 
Q 21.1875 48.484375 17.84375 46.4375 
Q 14.5 44.390625 14.5 40.28125 
Q 14.5 37.15625 16.890625 35.375 
Q 19.28125 33.59375 26.515625 31.984375 
L 29.59375 31.296875 
Q 39.15625 29.25 43.1875 25.515625 
Q 47.21875 21.78125 47.21875 15.09375 
Q 47.21875 7.46875 41.1875 3.015625 
Q 35.15625 -1.421875 24.609375 -1.421875 
Q 20.21875 -1.421875 15.453125 -0.5625 
Q 10.6875 0.296875 5.421875 2 
L 5.421875 11.28125 
Q 10.40625 8.6875 15.234375 7.390625 
Q 20.0625 6.109375 24.8125 6.109375 
Q 31.15625 6.109375 34.5625 8.28125 
Q 37.984375 10.453125 37.984375 14.40625 
Q 37.984375 18.0625 35.515625 20.015625 
Q 33.0625 21.96875 24.703125 23.78125 
L 21.578125 24.515625 
Q 13.234375 26.265625 9.515625 29.90625 
Q 5.8125 33.546875 5.8125 39.890625 
Q 5.8125 47.609375 11.28125 51.796875 
Q 16.75 56 26.8125 56 
Q 31.78125 56 36.171875 55.265625 
Q 40.578125 54.546875 44.28125 53.078125 
z
" id="DejaVuSans-73"/>
      <path d="M 25.390625 72.90625 
L 33.6875 72.90625 
L 8.296875 -9.28125 
L 0 -9.28125 
z
" id="DejaVuSans-2f"/>
      <path d="M 45.40625 46.390625 
L 45.40625 75.984375 
L 54.390625 75.984375 
L 54.390625 0 
L 45.40625 0 
L 45.40625 8.203125 
Q 42.578125 3.328125 38.25 0.953125 
Q 33.9375 -1.421875 27.875 -1.421875 
Q 17.96875 -1.421875 11.734375 6.484375 
Q 5.515625 14.40625 5.515625 27.296875 
Q 5.515625 40.1875 11.734375 48.09375 
Q 17.96875 56 27.875 56 
Q 33.9375 56 38.25 53.625 
Q 42.578125 51.265625 45.40625 46.390625 
z
M 14.796875 27.296875 
Q 14.796875 17.390625 18.875 11.75 
Q 22.953125 6.109375 30.078125 6.109375 
Q 37.203125 6.109375 41.296875 11.75 
Q 45.40625 17.390625 45.40625 27.296875 
Q 45.40625 37.203125 41.296875 42.84375 
Q 37.203125 48.484375 30.078125 48.484375 
Q 22.953125 48.484375 18.875 42.84375 
Q 14.796875 37.203125 14.796875 27.296875 
z
" id="DejaVuSans-64"/>
      <path d="M 9.421875 54.6875 
L 18.40625 54.6875 
L 18.40625 0 
L 9.421875 0 
z
M 9.421875 75.984375 
L 18.40625 75.984375 
L 18.40625 64.59375 
L 9.421875 64.59375 
z
" id="DejaVuSans-69"/>
      <path d="M 52 44.1875 
Q 55.375 50.25 60.0625 53.125 
Q 64.75 56 71.09375 56 
Q 79.640625 56 84.28125 50.015625 
Q 88.921875 44.046875 88.921875 33.015625 
L 88.921875 0 
L 79.890625 0 
L 79.890625 32.71875 
Q 79.890625 40.578125 77.09375 44.375 
Q 74.3125 48.1875 68.609375 48.1875 
Q 61.625 48.1875 57.5625 43.546875 
Q 53.515625 38.921875 53.515625 30.90625 
L 53.515625 0 
L 44.484375 0 
L 44.484375 32.71875 
Q 44.484375 40.625 41.703125 44.40625 
Q 38.921875 48.1875 33.109375 48.1875 
Q 26.21875 48.1875 22.15625 43.53125 
Q 18.109375 38.875 18.109375 30.90625 
L 18.109375 0 
L 9.078125 0 
L 9.078125 54.6875 
L 18.109375 54.6875 
L 18.109375 46.1875 
Q 21.1875 51.21875 25.484375 53.609375 
Q 29.78125 56 35.6875 56 
Q 41.65625 56 45.828125 52.96875 
Q 50 49.953125 52 44.1875 
z
" id="DejaVuSans-6d"/>
      <path d="M 54.890625 33.015625 
L 54.890625 0 
L 45.90625 0 
L 45.90625 32.71875 
Q 45.90625 40.484375 42.875 44.328125 
Q 39.84375 48.1875 33.796875 48.1875 
Q 26.515625 48.1875 22.3125 43.546875 
Q 18.109375 38.921875 18.109375 30.90625 
L 18.109375 0 
L 9.078125 0 
L 9.078125 54.6875 
L 18.109375 54.6875 
L 18.109375 46.1875 
Q 21.34375 51.125 25.703125 53.5625 
Q 30.078125 56 35.796875 56 
Q 45.21875 56 50.046875 50.171875 
Q 54.890625 44.34375 54.890625 33.015625 
z
" id="DejaVuSans-6e"/>
      <path d="M 8.015625 75.875 
L 15.828125 75.875 
Q 23.140625 64.359375 26.78125 53.3125 
Q 30.421875 42.28125 30.421875 31.390625 
Q 30.421875 20.453125 26.78125 9.375 
Q 23.140625 -1.703125 15.828125 -13.1875 
L 8.015625 -13.1875 
Q 14.5 -2 17.703125 9.0625 
Q 20.90625 20.125 20.90625 31.390625 
Q 20.90625 42.671875 17.703125 53.65625 
Q 14.5 64.65625 8.015625 75.875 
z
" id="DejaVuSans-29"/>
     </defs>
     <g transform="translate(73.803219 338.153594)scale(0.17 -0.17)">
      <use xlink:href="#DejaVuSans-6c"/>
      <use x="27.783203" xlink:href="#DejaVuSans-6f"/>
      <use x="88.964844" xlink:href="#DejaVuSans-67"/>
      <use x="152.441406" xlink:href="#DejaVuSans-31"/>
      <use x="216.064453" xlink:href="#DejaVuSans-30"/>
      <use x="279.6875" xlink:href="#DejaVuSans-28"/>
      <use x="318.701172" xlink:href="#DejaVuSans-23"/>
      <use x="402.490234" xlink:href="#DejaVuSans-20"/>
      <use x="434.277344" xlink:href="#DejaVuSans-66"/>
      <use x="469.404297" xlink:href="#DejaVuSans-2d"/>
      <use x="505.488281" xlink:href="#DejaVuSans-65"/>
      <use x="567.011719" xlink:href="#DejaVuSans-76"/>
      <use x="626.191406" xlink:href="#DejaVuSans-61"/>
      <use x="687.470703" xlink:href="#DejaVuSans-6c"/>
      <use x="715.253906" xlink:href="#DejaVuSans-73"/>
      <use x="767.353516" xlink:href="#DejaVuSans-20"/>
      <use x="799.140625" xlink:href="#DejaVuSans-2f"/>
      <use x="832.832031" xlink:href="#DejaVuSans-20"/>
      <use x="864.619141" xlink:href="#DejaVuSans-64"/>
      <use x="928.095703" xlink:href="#DejaVuSans-69"/>
      <use x="955.878906" xlink:href="#DejaVuSans-6d"/>
      <use x="1053.291016" xlink:href="#DejaVuSans-65"/>
      <use x="1114.814453" xlink:href="#DejaVuSans-6e"/>
      <use x="1178.193359" xlink:href="#DejaVuSans-73"/>
      <use x="1230.292969" xlink:href="#DejaVuSans-69"/>
      <use x="1258.076172" xlink:href="#DejaVuSans-6f"/>
      <use x="1319.257812" xlink:href="#DejaVuSans-6e"/>
      <use x="1382.636719" xlink:href="#DejaVuSans-29"/>
     </g>
    </g>
   </g>
   <g id="matplotlib.axis_2">
    <g id="ytick_1">
     <g id="line2d_29">
      <path clip-path="url(#p2ff95d72d3)" d="M 56.12 294.88 
L 333.168 294.88 
" style="fill:none;stroke:#b0b0b0;stroke-linecap:square;stroke-width:0.8;"/>
     </g>
     <g id="line2d_30">
      <defs>
       <path d="M 0 0 
L -3.5 0 
" id="m337d78562e" style="stroke:#000000;stroke-width:0.8;"/>
      </defs>
      <g>
       <use style="stroke:#000000;stroke-width:0.8;" x="56.12" xlink:href="#m337d78562e" y="294.88"/>
      </g>
     </g>
     <g id="text_6">
      <!-- 0.0 -->
      <defs>
       <path d="M 10.6875 12.40625 
L 21 12.40625 
L 21 0 
L 10.6875 0 
z
" id="DejaVuSans-2e"/>
      </defs>
      <g transform="translate(23.675 300.95875)scale(0.16 -0.16)">
       <use xlink:href="#DejaVuSans-30"/>
       <use x="63.623047" xlink:href="#DejaVuSans-2e"/>
       <use x="95.410156" xlink:href="#DejaVuSans-30"/>
      </g>
     </g>
    </g>
    <g id="ytick_2">
     <g id="line2d_31">
      <path clip-path="url(#p2ff95d72d3)" d="M 56.12 241.406733 
L 333.168 241.406733 
" style="fill:none;stroke:#b0b0b0;stroke-linecap:square;stroke-width:0.8;"/>
     </g>
     <g id="line2d_32">
      <g>
       <use style="stroke:#000000;stroke-width:0.8;" x="56.12" xlink:href="#m337d78562e" y="241.406733"/>
      </g>
     </g>
     <g id="text_7">
      <!-- 0.2 -->
      <g transform="translate(23.675 247.485483)scale(0.16 -0.16)">
       <use xlink:href="#DejaVuSans-30"/>
       <use x="63.623047" xlink:href="#DejaVuSans-2e"/>
       <use x="95.410156" xlink:href="#DejaVuSans-32"/>
      </g>
     </g>
    </g>
    <g id="ytick_3">
     <g id="line2d_33">
      <path clip-path="url(#p2ff95d72d3)" d="M 56.12 187.933465 
L 333.168 187.933465 
" style="fill:none;stroke:#b0b0b0;stroke-linecap:square;stroke-width:0.8;"/>
     </g>
     <g id="line2d_34">
      <g>
       <use style="stroke:#000000;stroke-width:0.8;" x="56.12" xlink:href="#m337d78562e" y="187.933465"/>
      </g>
     </g>
     <g id="text_8">
      <!-- 0.4 -->
      <g transform="translate(23.675 194.012215)scale(0.16 -0.16)">
       <use xlink:href="#DejaVuSans-30"/>
       <use x="63.623047" xlink:href="#DejaVuSans-2e"/>
       <use x="95.410156" xlink:href="#DejaVuSans-34"/>
      </g>
     </g>
    </g>
    <g id="ytick_4">
     <g id="line2d_35">
      <path clip-path="url(#p2ff95d72d3)" d="M 56.12 134.460198 
L 333.168 134.460198 
" style="fill:none;stroke:#b0b0b0;stroke-linecap:square;stroke-width:0.8;"/>
     </g>
     <g id="line2d_36">
      <g>
       <use style="stroke:#000000;stroke-width:0.8;" x="56.12" xlink:href="#m337d78562e" y="134.460198"/>
      </g>
     </g>
     <g id="text_9">
      <!-- 0.6 -->
      <g transform="translate(23.675 140.538948)scale(0.16 -0.16)">
       <use xlink:href="#DejaVuSans-30"/>
       <use x="63.623047" xlink:href="#DejaVuSans-2e"/>
       <use x="95.410156" xlink:href="#DejaVuSans-36"/>
      </g>
     </g>
    </g>
    <g id="ytick_5">
     <g id="line2d_37">
      <path clip-path="url(#p2ff95d72d3)" d="M 56.12 80.986931 
L 333.168 80.986931 
" style="fill:none;stroke:#b0b0b0;stroke-linecap:square;stroke-width:0.8;"/>
     </g>
     <g id="line2d_38">
      <g>
       <use style="stroke:#000000;stroke-width:0.8;" x="56.12" xlink:href="#m337d78562e" y="80.986931"/>
      </g>
     </g>
     <g id="text_10">
      <!-- 0.8 -->
      <defs>
       <path d="M 31.78125 34.625 
Q 24.75 34.625 20.71875 30.859375 
Q 16.703125 27.09375 16.703125 20.515625 
Q 16.703125 13.921875 20.71875 10.15625 
Q 24.75 6.390625 31.78125 6.390625 
Q 38.8125 6.390625 42.859375 10.171875 
Q 46.921875 13.96875 46.921875 20.515625 
Q 46.921875 27.09375 42.890625 30.859375 
Q 38.875 34.625 31.78125 34.625 
z
M 21.921875 38.8125 
Q 15.578125 40.375 12.03125 44.71875 
Q 8.5 49.078125 8.5 55.328125 
Q 8.5 64.0625 14.71875 69.140625 
Q 20.953125 74.21875 31.78125 74.21875 
Q 42.671875 74.21875 48.875 69.140625 
Q 55.078125 64.0625 55.078125 55.328125 
Q 55.078125 49.078125 51.53125 44.71875 
Q 48 40.375 41.703125 38.8125 
Q 48.828125 37.15625 52.796875 32.3125 
Q 56.78125 27.484375 56.78125 20.515625 
Q 56.78125 9.90625 50.3125 4.234375 
Q 43.84375 -1.421875 31.78125 -1.421875 
Q 19.734375 -1.421875 13.25 4.234375 
Q 6.78125 9.90625 6.78125 20.515625 
Q 6.78125 27.484375 10.78125 32.3125 
Q 14.796875 37.15625 21.921875 38.8125 
z
M 18.3125 54.390625 
Q 18.3125 48.734375 21.84375 45.5625 
Q 25.390625 42.390625 31.78125 42.390625 
Q 38.140625 42.390625 41.71875 45.5625 
Q 45.3125 48.734375 45.3125 54.390625 
Q 45.3125 60.0625 41.71875 63.234375 
Q 38.140625 66.40625 31.78125 66.40625 
Q 25.390625 66.40625 21.84375 63.234375 
Q 18.3125 60.0625 18.3125 54.390625 
z
" id="DejaVuSans-38"/>
      </defs>
      <g transform="translate(23.675 87.065681)scale(0.16 -0.16)">
       <use xlink:href="#DejaVuSans-30"/>
       <use x="63.623047" xlink:href="#DejaVuSans-2e"/>
       <use x="95.410156" xlink:href="#DejaVuSans-38"/>
      </g>
     </g>
    </g>
    <g id="ytick_6">
     <g id="line2d_39">
      <path clip-path="url(#p2ff95d72d3)" d="M 56.12 27.513663 
L 333.168 27.513663 
" style="fill:none;stroke:#b0b0b0;stroke-linecap:square;stroke-width:0.8;"/>
     </g>
     <g id="line2d_40">
      <g>
       <use style="stroke:#000000;stroke-width:0.8;" x="56.12" xlink:href="#m337d78562e" y="27.513663"/>
      </g>
     </g>
     <g id="text_11">
      <!-- 1.0 -->
      <g transform="translate(23.675 33.592413)scale(0.16 -0.16)">
       <use xlink:href="#DejaVuSans-31"/>
       <use x="63.623047" xlink:href="#DejaVuSans-2e"/>
       <use x="95.410156" xlink:href="#DejaVuSans-30"/>
      </g>
     </g>
    </g>
    <g id="text_12">
     <!-- Fraction of function,target pairs -->
     <defs>
      <path d="M 9.8125 72.90625 
L 51.703125 72.90625 
L 51.703125 64.59375 
L 19.671875 64.59375 
L 19.671875 43.109375 
L 48.578125 43.109375 
L 48.578125 34.8125 
L 19.671875 34.8125 
L 19.671875 0 
L 9.8125 0 
z
" id="DejaVuSans-46"/>
      <path d="M 41.109375 46.296875 
Q 39.59375 47.171875 37.8125 47.578125 
Q 36.03125 48 33.890625 48 
Q 26.265625 48 22.1875 43.046875 
Q 18.109375 38.09375 18.109375 28.8125 
L 18.109375 0 
L 9.078125 0 
L 9.078125 54.6875 
L 18.109375 54.6875 
L 18.109375 46.1875 
Q 20.953125 51.171875 25.484375 53.578125 
Q 30.03125 56 36.53125 56 
Q 37.453125 56 38.578125 55.875 
Q 39.703125 55.765625 41.0625 55.515625 
z
" id="DejaVuSans-72"/>
      <path d="M 48.78125 52.59375 
L 48.78125 44.1875 
Q 44.96875 46.296875 41.140625 47.34375 
Q 37.3125 48.390625 33.40625 48.390625 
Q 24.65625 48.390625 19.8125 42.84375 
Q 14.984375 37.3125 14.984375 27.296875 
Q 14.984375 17.28125 19.8125 11.734375 
Q 24.65625 6.203125 33.40625 6.203125 
Q 37.3125 6.203125 41.140625 7.25 
Q 44.96875 8.296875 48.78125 10.40625 
L 48.78125 2.09375 
Q 45.015625 0.34375 40.984375 -0.53125 
Q 36.96875 -1.421875 32.421875 -1.421875 
Q 20.0625 -1.421875 12.78125 6.34375 
Q 5.515625 14.109375 5.515625 27.296875 
Q 5.515625 40.671875 12.859375 48.328125 
Q 20.21875 56 33.015625 56 
Q 37.15625 56 41.109375 55.140625 
Q 45.0625 54.296875 48.78125 52.59375 
z
" id="DejaVuSans-63"/>
      <path d="M 18.3125 70.21875 
L 18.3125 54.6875 
L 36.8125 54.6875 
L 36.8125 47.703125 
L 18.3125 47.703125 
L 18.3125 18.015625 
Q 18.3125 11.328125 20.140625 9.421875 
Q 21.96875 7.515625 27.59375 7.515625 
L 36.8125 7.515625 
L 36.8125 0 
L 27.59375 0 
Q 17.1875 0 13.234375 3.875 
Q 9.28125 7.765625 9.28125 18.015625 
L 9.28125 47.703125 
L 2.6875 47.703125 
L 2.6875 54.6875 
L 9.28125 54.6875 
L 9.28125 70.21875 
z
" id="DejaVuSans-74"/>
      <path d="M 8.5 21.578125 
L 8.5 54.6875 
L 17.484375 54.6875 
L 17.484375 21.921875 
Q 17.484375 14.15625 20.5 10.265625 
Q 23.53125 6.390625 29.59375 6.390625 
Q 36.859375 6.390625 41.078125 11.03125 
Q 45.3125 15.671875 45.3125 23.6875 
L 45.3125 54.6875 
L 54.296875 54.6875 
L 54.296875 0 
L 45.3125 0 
L 45.3125 8.40625 
Q 42.046875 3.421875 37.71875 1 
Q 33.40625 -1.421875 27.6875 -1.421875 
Q 18.265625 -1.421875 13.375 4.4375 
Q 8.5 10.296875 8.5 21.578125 
z
M 31.109375 56 
z
" id="DejaVuSans-75"/>
      <path d="M 11.71875 12.40625 
L 22.015625 12.40625 
L 22.015625 4 
L 14.015625 -11.625 
L 7.71875 -11.625 
L 11.71875 4 
z
" id="DejaVuSans-2c"/>
      <path d="M 18.109375 8.203125 
L 18.109375 -20.796875 
L 9.078125 -20.796875 
L 9.078125 54.6875 
L 18.109375 54.6875 
L 18.109375 46.390625 
Q 20.953125 51.265625 25.265625 53.625 
Q 29.59375 56 35.59375 56 
Q 45.5625 56 51.78125 48.09375 
Q 58.015625 40.1875 58.015625 27.296875 
Q 58.015625 14.40625 51.78125 6.484375 
Q 45.5625 -1.421875 35.59375 -1.421875 
Q 29.59375 -1.421875 25.265625 0.953125 
Q 20.953125 3.328125 18.109375 8.203125 
z
M 48.6875 27.296875 
Q 48.6875 37.203125 44.609375 42.84375 
Q 40.53125 48.484375 33.40625 48.484375 
Q 26.265625 48.484375 22.1875 42.84375 
Q 18.109375 37.203125 18.109375 27.296875 
Q 18.109375 17.390625 22.1875 11.75 
Q 26.265625 6.109375 33.40625 6.109375 
Q 40.53125 6.109375 44.609375 11.75 
Q 48.6875 17.390625 48.6875 27.296875 
z
" id="DejaVuSans-70"/>
     </defs>
     <g transform="translate(16.139531 294.999375)rotate(-90)scale(0.17 -0.17)">
      <use xlink:href="#DejaVuSans-46"/>
      <use x="57.410156" xlink:href="#DejaVuSans-72"/>
      <use x="98.523438" xlink:href="#DejaVuSans-61"/>
      <use x="159.802734" xlink:href="#DejaVuSans-63"/>
      <use x="214.783203" xlink:href="#DejaVuSans-74"/>
      <use x="253.992188" xlink:href="#DejaVuSans-69"/>
      <use x="281.775391" xlink:href="#DejaVuSans-6f"/>
      <use x="342.957031" xlink:href="#DejaVuSans-6e"/>
      <use x="406.335938" xlink:href="#DejaVuSans-20"/>
      <use x="438.123047" xlink:href="#DejaVuSans-6f"/>
      <use x="499.304688" xlink:href="#DejaVuSans-66"/>
      <use x="534.509766" xlink:href="#DejaVuSans-20"/>
      <use x="566.296875" xlink:href="#DejaVuSans-66"/>
      <use x="601.501953" xlink:href="#DejaVuSans-75"/>
      <use x="664.880859" xlink:href="#DejaVuSans-6e"/>
      <use x="728.259766" xlink:href="#DejaVuSans-63"/>
      <use x="783.240234" xlink:href="#DejaVuSans-74"/>
      <use x="822.449219" xlink:href="#DejaVuSans-69"/>
      <use x="850.232422" xlink:href="#DejaVuSans-6f"/>
      <use x="911.414062" xlink:href="#DejaVuSans-6e"/>
      <use x="974.792969" xlink:href="#DejaVuSans-2c"/>
      <use x="1006.580078" xlink:href="#DejaVuSans-74"/>
      <use x="1045.789062" xlink:href="#DejaVuSans-61"/>
      <use x="1107.068359" xlink:href="#DejaVuSans-72"/>
      <use x="1148.166016" xlink:href="#DejaVuSans-67"/>
      <use x="1211.642578" xlink:href="#DejaVuSans-65"/>
      <use x="1273.166016" xlink:href="#DejaVuSans-74"/>
      <use x="1312.375" xlink:href="#DejaVuSans-20"/>
      <use x="1344.162109" xlink:href="#DejaVuSans-70"/>
      <use x="1407.638672" xlink:href="#DejaVuSans-61"/>
      <use x="1468.917969" xlink:href="#DejaVuSans-69"/>
      <use x="1496.701172" xlink:href="#DejaVuSans-72"/>
      <use x="1537.814453" xlink:href="#DejaVuSans-73"/>
     </g>
    </g>
   </g>
   <g id="line2d_41">
    <defs>
     <path d="M 0 1.5 
C 0.397805 1.5 0.77937 1.341951 1.06066 1.06066 
C 1.341951 0.77937 1.5 0.397805 1.5 0 
C 1.5 -0.397805 1.341951 -0.77937 1.06066 -1.06066 
C 0.77937 -1.341951 0.397805 -1.5 0 -1.5 
C -0.397805 -1.5 -0.77937 -1.341951 -1.06066 -1.06066 
C -1.341951 -0.77937 -1.5 -0.397805 -1.5 0 
C -1.5 0.397805 -1.341951 0.77937 -1.06066 1.06066 
C -0.77937 1.341951 -0.397805 1.5 0 1.5 
z
" id="mc08ab3fefb" style="stroke:#f5deb3;"/>
    </defs>
    <g>
     <use style="fill:#f5deb3;stroke:#f5deb3;" x="68.667033" xlink:href="#mc08ab3fefb" y="27.513663"/>
     <use style="fill:#f5deb3;stroke:#f5deb3;" x="68.667033" xlink:href="#mc08ab3fefb" y="27.513663"/>
    </g>
   </g>
   <g id="line2d_42">
    <defs>
     <path d="M 0 1.5 
C 0.397805 1.5 0.77937 1.341951 1.06066 1.06066 
C 1.341951 0.77937 1.5 0.397805 1.5 0 
C 1.5 -0.397805 1.341951 -0.77937 1.06066 -1.06066 
C 0.77937 -1.341951 0.397805 -1.5 0 -1.5 
C -0.397805 -1.5 -0.77937 -1.341951 -1.06066 -1.06066 
C -1.341951 -0.77937 -1.5 -0.397805 -1.5 0 
C -1.5 0.397805 -1.341951 0.77937 -1.06066 1.06066 
C -0.77937 1.341951 -0.397805 1.5 0 1.5 
z
" id="md57c4548f6" style="stroke:#000080;"/>
    </defs>
    <g>
     <use style="fill:#000080;stroke:#000080;" x="243.354975" xlink:href="#md57c4548f6" y="27.513663"/>
     <use style="fill:#000080;stroke:#000080;" x="243.354975" xlink:href="#md57c4548f6" y="27.513663"/>
    </g>
   </g>
   <g id="line2d_43">
    <path d="M 103.777005 294.88 
L 103.777005 293.831505 
L 107.612537 293.831505 
L 107.612537 293.307257 
L 110.746395 293.307257 
L 110.746395 292.783009 
L 113.396034 292.783009 
L 113.396034 291.210266 
L 115.691256 291.210266 
L 115.691256 289.637523 
L 117.715785 289.637523 
L 117.715785 288.06478 
L 117.988156 288.06478 
L 117.988156 287.540532 
L 118.554421 287.540532 
L 118.554421 287.016284 
L 119.526788 287.016284 
L 119.558987 285.967789 
L 119.719081 285.967789 
L 119.750921 284.395046 
L 119.846091 284.395046 
L 119.846091 283.870798 
L 120.221585 283.870798 
L 120.221585 283.34655 
L 121.16504 283.34655 
L 121.16504 282.822302 
L 121.291534 282.822302 
L 121.291534 282.298055 
L 121.910411 282.298055 
L 121.910411 281.773807 
L 122.114929 281.773807 
L 122.114929 281.249559 
L 122.660646 281.249559 
L 122.660646 280.201064 
L 123.172198 280.201064 
L 123.198248 279.152568 
L 123.567356 279.152568 
L 123.567356 278.628321 
L 124.036471 278.628321 
L 124.05299 276.53133 
L 124.159982 276.53133 
L 124.241833 274.958587 
L 125.310285 274.958587 
L 125.317957 273.910091 
L 126.496178 273.910091 
L 126.496178 272.337348 
L 127.252768 272.337348 
L 127.252768 271.8131 
L 127.605507 271.8131 
L 127.605507 269.191862 
L 127.970883 269.191862 
L 128.069198 268.143366 
L 128.647561 268.143366 
L 128.704342 265.522128 
L 128.861087 265.522128 
L 128.917168 264.473632 
L 129.624067 264.473632 
L 129.630036 261.852394 
L 130.02533 261.852394 
L 130.02533 261.328146 
L 130.559378 261.328146 
L 130.627094 259.231155 
L 131.268288 259.231155 
L 131.268288 258.706907 
L 131.441039 258.706907 
L 131.441039 256.609917 
L 132.279675 256.609917 
L 132.335856 253.988678 
L 133.079291 253.988678 
L 133.079291 250.318944 
L 133.843356 250.318944 
L 133.922577 247.697705 
L 134.574897 247.697705 
L 134.574897 245.076467 
L 135.194731 245.076467 
L 135.276571 244.027971 
L 135.515543 244.027971 
L 135.515543 243.503724 
L 135.950722 243.503724 
L 135.950722 240.358237 
L 136.427479 240.358237 
L 136.427479 239.83399 
L 136.599426 239.83399 
L 136.698611 236.164255 
L 137.224536 236.164255 
L 137.224536 234.067265 
L 137.426691 234.067265 
L 137.426691 233.543017 
L 137.827708 233.543017 
L 137.827708 229.873283 
L 138.320671 229.873283 
L 138.410429 226.727797 
L 138.974042 226.727797 
L 138.974042 225.155053 
L 139.519758 225.155053 
L 139.519758 223.058063 
L 139.656853 223.058063 
L 139.656853 222.533815 
L 140.048681 222.533815 
L 140.06495 219.388328 
L 140.323188 219.388328 
L 140.323188 218.864081 
L 140.447686 218.864081 
L 140.447686 218.339833 
L 140.561812 218.339833 
L 140.561812 216.242842 
L 141.026272 216.242842 
L 141.060069 213.621604 
L 141.544287 213.621604 
L 141.544287 209.95187 
L 142.015238 209.95187 
L 142.015238 207.854879 
L 142.248826 207.854879 
L 142.248826 207.330631 
L 142.473629 207.330631 
L 142.476456 204.185145 
L 142.920112 204.185145 
L 142.920112 201.039658 
L 143.35529 201.039658 
L 143.35529 199.466915 
L 143.507699 199.466915 
L 143.507699 198.942667 
L 143.645569 198.942667 
L 143.645569 198.41842 
L 143.779723 198.41842 
L 143.779723 195.797181 
L 144.193927 195.797181 
L 144.193927 194.224438 
L 144.598384 194.224438 
L 144.598384 191.603199 
L 144.77733 191.603199 
L 144.77733 191.078952 
L 144.993542 191.078952 
L 144.993542 187.933465 
L 145.221531 187.933465 
L 145.221531 187.409218 
L 145.37982 187.409218 
L 145.472673 185.312227 
L 145.491659 185.312227 
L 145.491659 184.787979 
L 145.818221 184.787979 
L 145.887895 183.215236 
L 145.936499 183.215236 
L 145.982662 182.16674 
L 146.127269 182.16674 
L 146.127269 181.642493 
L 146.489148 181.642493 
L 146.54501 178.497006 
L 146.755644 178.497006 
L 146.843566 176.400016 
L 146.907029 176.400016 
L 146.907029 175.875768 
L 147.190823 175.875768 
L 147.190823 174.303025 
L 147.423437 174.303025 
L 147.531203 172.206034 
L 147.541732 172.206034 
L 147.571179 170.633291 
L 147.790438 170.633291 
L 147.864973 169.584795 
L 148.111115 169.584795 
L 148.192385 166.963557 
L 148.441909 166.963557 
L 148.513678 163.293823 
L 148.829074 163.293823 
L 148.881731 160.672584 
L 149.138788 160.672584 
L 149.203889 157.527098 
L 149.293478 157.527098 
L 149.293478 157.00285 
L 149.443019 157.00285 
L 149.488193 153.857364 
L 149.741959 153.857364 
L 149.741959 152.28462 
L 150.035789 152.28462 
L 150.064898 148.614886 
L 150.324681 148.614886 
L 150.324681 147.042143 
L 150.608797 147.042143 
L 150.608797 144.420905 
L 150.858811 144.420905 
L 150.931556 140.751171 
L 151.052118 140.751171 
L 151.09326 139.702675 
L 151.163317 139.702675 
L 151.163317 137.605684 
L 151.434009 137.605684 
L 151.519404 133.411703 
L 151.700505 133.411703 
L 151.759902 130.266216 
L 151.837139 130.266216 
L 151.837139 129.741969 
L 151.962932 129.741969 
L 151.995456 127.12073 
L 152.149107 127.12073 
L 152.221413 126.072235 
L 152.534418 126.072235 
L 152.535993 125.023739 
L 152.702068 125.023739 
L 152.726997 123.975244 
L 152.880447 123.975244 
L 152.97432 122.926748 
L 153.532981 122.926748 
L 153.532981 122.4025 
L 178.159748 122.4025 
L 178.159748 121.878253 
L 178.272831 121.878253 
L 178.329095 120.30551 
L 178.385176 120.30551 
L 178.385176 119.781262 
L 178.607685 119.781262 
L 178.717869 117.160023 
L 178.772697 117.160023 
L 178.881832 116.111528 
L 178.990278 116.111528 
L 179.062085 114.014537 
L 179.151675 114.014537 
L 179.151675 113.490289 
L 179.31157 113.490289 
L 179.36454 111.917546 
L 179.678975 111.917546 
L 179.782521 110.344803 
L 179.834061 110.344803 
L 179.942434 109.296308 
L 180.005603 109.296308 
L 180.089469 107.199317 
L 180.127455 107.199317 
L 180.224884 106.150821 
L 180.244052 106.150821 
L 180.291097 105.102326 
L 180.440782 105.102326 
L 180.539852 103.529583 
L 180.979035 103.529583 
L 180.979035 103.005335 
L 181.122573 103.005335 
L 181.217801 101.956839 
L 181.265218 101.956839 
L 181.265218 100.908344 
L 181.406689 100.908344 
L 181.453589 99.859849 
L 181.801601 99.859849 
L 181.801601 99.335601 
L 181.915676 99.335601 
L 182.006622 97.23861 
L 182.097088 97.23861 
L 182.151703 96.190115 
L 182.208666 96.190115 
L 182.276606 95.141619 
L 182.324255 95.141619 
L 182.365666 93.568876 
L 182.478002 93.568876 
L 182.586319 92.520381 
L 182.630112 92.520381 
L 182.717364 90.947637 
L 182.804176 90.947637 
L 182.848767 89.899142 
L 183.019305 89.899142 
L 183.06201 88.326399 
L 183.215667 88.326399 
L 183.316034 87.277903 
L 183.441651 87.277903 
L 183.441651 86.753656 
L 183.566358 86.753656 
L 183.566358 86.229408 
L 183.894552 86.229408 
L 183.894552 85.70516 
L 184.056328 85.70516 
L 184.056328 84.656665 
L 184.216596 84.656665 
L 184.216846 83.608169 
L 189.816808 83.608169 
L 189.816808 83.083922 
L 190.383206 83.083922 
L 190.383206 82.559674 
L 190.985417 82.559674 
L 190.985417 82.035426 
L 191.11939 82.035426 
L 191.11939 81.511178 
L 191.278791 81.511178 
L 191.30802 80.462683 
L 191.481377 80.462683 
L 191.541218 79.414188 
L 191.619171 79.414188 
L 191.645077 78.365692 
L 192.130015 78.365692 
L 192.180274 77.317197 
L 192.330176 77.317197 
L 192.330176 76.792949 
L 192.868895 76.792949 
L 192.919446 75.744454 
L 194.101333 75.744454 
L 194.101333 75.220206 
L 199.02374 75.220206 
L 199.02374 74.695958 
L 200.164636 74.695958 
L 200.164636 74.17171 
L 204.831294 74.17171 
L 204.831294 73.647463 
L 214.535966 73.647463 
L 214.631383 68.929233 
L 214.651761 68.929233 
L 214.760036 61.589765 
L 214.780262 61.589765 
L 214.863066 54.774545 
L 214.90781 54.774545 
L 214.90781 54.250297 
L 216.472944 54.250297 
L 216.558217 52.153306 
L 216.601756 52.153306 
L 216.698038 49.532068 
L 216.731829 49.532068 
L 216.827237 46.910829 
L 216.883222 46.910829 
L 216.972421 45.338086 
L 217.025719 45.338086 
L 217.078853 44.28959 
L 217.167082 44.28959 
L 217.194366 43.241095 
L 218.208064 43.241095 
L 218.208064 42.716847 
L 218.328011 42.716847 
L 218.378332 41.144104 
L 218.465556 41.144104 
L 218.503578 40.095609 
L 218.770708 40.095609 
L 218.770708 39.571361 
L 218.9534 39.571361 
L 218.9534 39.047113 
L 219.894421 39.047113 
L 219.894421 38.522865 
L 220.552205 38.522865 
L 220.552205 37.998618 
L 221.628476 37.998618 
L 221.628476 37.47437 
L 226.450218 37.47437 
L 226.555826 34.328884 
L 227.504007 34.328884 
L 227.545658 33.280388 
L 227.702984 33.280388 
L 227.702984 32.756141 
L 228.326026 32.756141 
L 228.326026 32.231893 
L 228.563366 32.231893 
L 228.563366 31.707645 
L 228.750178 31.707645 
L 228.750178 31.183397 
L 229.374927 31.183397 
L 229.374927 30.65915 
L 229.532741 30.65915 
L 229.532741 30.134902 
L 234.017358 30.134902 
L 234.034952 29.086407 
L 234.713223 29.086407 
L 234.713223 28.562159 
L 238.583479 28.562159 
L 238.583479 28.037911 
L 243.354975 28.037911 
L 243.354975 27.513663 
L 333.168 27.513663 
L 333.168 27.513663 
" style="fill:none;stroke:#000080;stroke-linecap:square;stroke-width:1.5;"/>
   </g>
   <g id="line2d_44">
    <defs>
     <path d="M 0 6 
C 1.591219 6 3.117479 5.367802 4.242641 4.242641 
C 5.367802 3.117479 6 1.591219 6 0 
C 6 -1.591219 5.367802 -3.117479 4.242641 -4.242641 
C 3.117479 -5.367802 1.591219 -6 0 -6 
C -1.591219 -6 -3.117479 -5.367802 -4.242641 -4.242641 
C -5.367802 -3.117479 -6 -1.591219 -6 0 
C -6 1.591219 -5.367802 3.117479 -4.242641 4.242641 
C -3.117479 5.367802 -1.591219 6 0 6 
z
" id="m3da77b559a" style="stroke:#000080;stroke-width:1.5;"/>
    </defs>
    <g>
     <use style="fill:none;stroke:#000080;stroke-width:1.5;" x="179.678975" xlink:href="#m3da77b559a" y="111.917546"/>
     <use style="fill:none;stroke:#000080;stroke-width:1.5;" x="221.628476" xlink:href="#m3da77b559a" y="37.47437"/>
     <use style="fill:none;stroke:#000080;stroke-width:1.5;" x="243.354975" xlink:href="#m3da77b559a" y="27.513663"/>
     <use style="fill:none;stroke:#000080;stroke-width:1.5;" x="243.354975" xlink:href="#m3da77b559a" y="27.513663"/>
     <use style="fill:none;stroke:#000080;stroke-width:1.5;" x="333.168" xlink:href="#m3da77b559a" y="27.513663"/>
    </g>
   </g>
   <g id="line2d_45">
    <path style="fill:none;stroke:#000080;stroke-linecap:square;stroke-width:1.5;"/>
    <g/>
   </g>
   <g id="line2d_46">
    <path clip-path="url(#p2ff95d72d3)" d="M 179.987761 109.296308 
" style="fill:none;stroke:#000080;stroke-linecap:square;stroke-width:1.5;"/>
    <defs>
     <path d="M -12 12 
L 12 -12 
M -12 -12 
L 12 12 
" id="m69a2707725" style="stroke:#000080;"/>
    </defs>
    <g clip-path="url(#p2ff95d72d3)">
     <use style="fill:#000080;stroke:#000080;" x="179.987761" xlink:href="#m69a2707725" y="109.296308"/>
    </g>
   </g>
   <g id="line2d_47">
    <defs>
     <path d="M 0 1.5 
C 0.397805 1.5 0.77937 1.341951 1.06066 1.06066 
C 1.341951 0.77937 1.5 0.397805 1.5 0 
C 1.5 -0.397805 1.341951 -0.77937 1.06066 -1.06066 
C 0.77937 -1.341951 0.397805 -1.5 0 -1.5 
C -0.397805 -1.5 -0.77937 -1.341951 -1.06066 -1.06066 
C -1.341951 -0.77937 -1.5 -0.397805 -1.5 0 
C -1.5 0.397805 -1.341951 0.77937 -1.06066 1.06066 
C -0.77937 1.341951 -0.397805 1.5 0 1.5 
z
" id="md98105b4f0" style="stroke:#ff00ff;"/>
    </defs>
    <g>
     <use style="fill:#ff00ff;stroke:#ff00ff;" x="228.817323" xlink:href="#md98105b4f0" y="27.513663"/>
     <use style="fill:#ff00ff;stroke:#ff00ff;" x="228.817323" xlink:href="#md98105b4f0" y="27.513663"/>
    </g>
   </g>
   <g id="line2d_48">
    <path d="M 116.859235 294.88 
L 116.859235 294.355752 
L 118.105245 294.355752 
L 118.105245 293.831505 
L 120.57895 293.831505 
L 120.57895 293.307257 
L 122.988734 293.307257 
L 122.988734 292.783009 
L 124.52528 292.783009 
L 124.52528 292.258761 
L 126.962483 292.258761 
L 126.962483 291.734514 
L 127.211598 291.734514 
L 127.25962 290.686018 
L 129.292521 290.686018 
L 129.292521 290.161771 
L 130.839786 290.161771 
L 130.839786 289.637523 
L 131.558807 289.637523 
L 131.558807 289.113275 
L 131.79721 289.113275 
L 131.79721 288.589027 
L 132.011581 288.589027 
L 132.011581 288.06478 
L 133.432114 288.06478 
L 133.432114 287.016284 
L 133.551297 287.016284 
L 133.551297 286.492036 
L 134.530077 286.492036 
L 134.530077 285.967789 
L 136.143831 285.967789 
L 136.143831 285.443541 
L 136.53964 285.443541 
L 136.575537 284.395046 
L 136.742071 284.395046 
L 136.742071 283.870798 
L 137.84622 283.870798 
L 137.84622 283.34655 
L 138.838355 283.34655 
L 138.838355 282.822302 
L 139.02249 282.822302 
L 139.02249 282.298055 
L 139.381561 282.298055 
L 139.381561 281.773807 
L 139.690126 281.773807 
L 139.782948 280.725312 
L 140.035654 280.725312 
L 140.035654 280.201064 
L 140.265422 280.201064 
L 140.265422 279.676816 
L 140.690873 279.676816 
L 140.775339 278.628321 
L 141.463526 278.628321 
L 141.463526 278.104073 
L 142.532895 278.104073 
L 142.636822 277.055578 
L 142.745691 277.055578 
L 142.787381 276.007082 
L 143.333791 276.007082 
L 143.333791 275.482834 
L 143.555549 275.482834 
L 143.635003 274.434339 
L 144.176012 274.434339 
L 144.176012 273.910091 
L 144.366985 273.910091 
L 144.366985 273.385844 
L 145.370268 273.385844 
L 145.477422 270.764605 
L 145.77628 270.764605 
L 145.797263 269.716109 
L 146.500335 269.716109 
L 146.500335 269.191862 
L 146.891732 269.191862 
L 146.891732 268.667614 
L 147.011559 268.667614 
L 147.011559 268.143366 
L 147.26158 268.143366 
L 147.26158 267.619119 
L 147.545941 267.619119 
L 147.545941 267.094871 
L 147.88562 267.094871 
L 147.986433 265.522128 
L 148.208593 265.522128 
L 148.208593 264.99788 
L 148.697705 264.99788 
L 148.697705 264.473632 
L 149.471267 264.473632 
L 149.473148 263.425137 
L 149.745663 263.425137 
L 149.745663 262.900889 
L 149.904187 262.900889 
L 149.904187 262.376641 
L 150.046711 262.376641 
L 150.046711 261.852394 
L 150.17723 261.852394 
L 150.17723 261.328146 
L 150.326471 261.328146 
L 150.365812 260.279651 
L 150.707138 260.279651 
L 150.707138 259.755403 
L 150.88656 259.755403 
L 150.88656 259.231155 
L 151.190579 259.231155 
L 151.231391 257.658412 
L 151.62431 257.658412 
L 151.635927 256.609917 
L 151.869901 256.609917 
L 151.974322 255.561421 
L 152.003577 255.561421 
L 152.003577 255.037173 
L 152.493433 255.037173 
L 152.493433 254.512926 
L 152.638022 254.512926 
L 152.638022 253.988678 
L 152.764323 253.988678 
L 152.764323 253.46443 
L 153.137753 253.46443 
L 153.237793 252.415935 
L 153.488354 252.415935 
L 153.488354 251.891687 
L 153.932393 251.891687 
L 153.951252 250.843192 
L 154.094196 250.843192 
L 154.095634 249.794696 
L 154.231683 249.794696 
L 154.231683 249.270448 
L 154.523047 249.270448 
L 154.525852 248.221953 
L 154.770891 248.221953 
L 154.868761 246.64921 
L 154.904462 246.64921 
L 154.904462 246.124962 
L 155.076432 246.124962 
L 155.076432 245.600714 
L 155.307101 245.600714 
L 155.307101 245.076467 
L 155.488372 245.076467 
L 155.533393 244.027971 
L 156.028701 244.027971 
L 156.028701 243.503724 
L 156.231787 243.503724 
L 156.231787 242.979476 
L 156.368376 242.979476 
L 156.368376 242.455228 
L 156.521377 242.455228 
L 156.521377 241.93098 
L 156.712584 241.93098 
L 156.712584 241.406733 
L 157.036711 241.406733 
L 157.134577 238.785494 
L 157.511133 238.785494 
L 157.60048 237.212751 
L 157.844972 237.212751 
L 157.844972 236.688503 
L 158.056371 236.688503 
L 158.117922 235.11576 
L 158.411231 235.11576 
L 158.411231 234.591512 
L 158.594807 234.591512 
L 158.611399 233.543017 
L 158.765489 233.543017 
L 158.765489 233.018769 
L 158.916037 233.018769 
L 158.952928 231.970274 
L 159.028629 231.970274 
L 159.050198 230.921778 
L 159.45493 230.921778 
L 159.45493 230.397531 
L 159.620449 230.397531 
L 159.620449 229.873283 
L 159.780257 229.873283 
L 159.865775 227.776292 
L 159.974377 227.776292 
L 160.04572 226.727797 
L 160.157236 226.727797 
L 160.157236 226.203549 
L 160.277067 226.203549 
L 160.277067 225.679301 
L 160.504351 225.679301 
L 160.592263 224.630806 
L 160.663055 224.630806 
L 160.671883 223.58231 
L 161.053998 223.58231 
L 161.053998 223.058063 
L 161.221032 223.058063 
L 161.221032 222.533815 
L 161.439998 222.533815 
L 161.510193 220.961072 
L 161.570796 220.961072 
L 161.66732 219.388328 
L 161.824859 219.388328 
L 161.85418 218.339833 
L 162.015466 218.339833 
L 162.123957 217.291338 
L 162.221018 217.291338 
L 162.322879 216.242842 
L 162.393115 216.242842 
L 162.428568 215.194347 
L 162.534491 215.194347 
L 162.552082 214.145851 
L 162.693906 214.145851 
L 162.693906 213.621604 
L 162.806009 213.621604 
L 162.872576 212.04886 
L 162.994665 212.04886 
L 162.994665 211.524613 
L 163.31802 211.524613 
L 163.428644 209.95187 
L 163.482025 209.95187 
L 163.482025 209.427622 
L 163.769417 209.427622 
L 163.853565 208.379126 
L 163.906457 208.379126 
L 164.014985 207.330631 
L 164.139672 207.330631 
L 164.233992 206.282136 
L 164.296057 206.282136 
L 164.406106 204.185145 
L 164.536615 204.185145 
L 164.596038 203.136649 
L 164.687893 203.136649 
L 164.687893 202.612401 
L 164.820911 202.612401 
L 164.820911 202.088154 
L 165.030709 202.088154 
L 165.105128 200.515411 
L 165.219921 200.515411 
L 165.259017 199.466915 
L 165.44426 199.466915 
L 165.536878 197.369924 
L 165.575997 197.369924 
L 165.613557 196.321429 
L 165.766626 196.321429 
L 165.853174 194.748686 
L 165.900989 194.748686 
L 165.915452 193.70019 
L 166.255421 193.70019 
L 166.34237 191.603199 
L 166.378997 191.603199 
L 166.488412 190.030456 
L 166.674771 190.030456 
L 166.774075 187.933465 
L 166.877595 187.933465 
L 166.877595 187.409218 
L 167.0246 187.409218 
L 167.082782 186.360722 
L 167.154897 186.360722 
L 167.217332 184.263731 
L 167.313559 184.263731 
L 167.313559 183.739484 
L 167.440369 183.739484 
L 167.440369 183.215236 
L 167.629828 183.215236 
L 167.673606 182.16674 
L 167.83921 182.16674 
L 167.924312 180.06975 
L 168.019871 180.06975 
L 168.127617 178.497006 
L 168.13143 178.497006 
L 168.161269 177.448511 
L 168.307803 177.448511 
L 168.307803 176.924263 
L 168.440621 176.924263 
L 168.47678 175.875768 
L 168.654594 175.875768 
L 168.676769 173.778777 
L 168.781711 173.778777 
L 168.781711 173.254529 
L 168.996944 173.254529 
L 169.086737 171.681786 
L 169.14614 171.681786 
L 169.174867 170.633291 
L 169.311857 170.633291 
L 169.316603 169.584795 
L 169.423027 169.584795 
L 169.423027 169.060547 
L 169.577933 169.060547 
L 169.597199 168.012052 
L 169.785213 168.012052 
L 169.785213 167.487804 
L 169.922597 167.487804 
L 170.011111 165.915061 
L 170.048663 165.915061 
L 170.145012 164.342318 
L 170.165911 164.342318 
L 170.165911 163.81807 
L 170.340017 163.81807 
L 170.340017 163.293823 
L 170.686861 163.293823 
L 170.686861 162.769575 
L 171.045089 162.769575 
L 171.045089 162.245327 
L 188.509989 162.245327 
L 188.509989 161.721079 
L 188.781601 161.721079 
L 188.781601 161.196832 
L 189.038071 161.196832 
L 189.038071 160.672584 
L 189.298004 160.672584 
L 189.36889 159.624089 
L 189.689655 159.624089 
L 189.752085 158.575593 
L 189.882184 158.575593 
L 189.882184 158.051345 
L 190.13505 158.051345 
L 190.192013 157.00285 
L 190.24633 157.00285 
L 190.324778 153.857364 
L 190.412606 153.857364 
L 190.498258 152.28462 
L 190.54265 152.28462 
L 190.54265 151.760373 
L 190.769375 151.760373 
L 190.769375 151.236125 
L 190.894391 151.236125 
L 190.894391 150.711877 
L 191.226153 150.711877 
L 191.320225 147.566391 
L 191.426243 147.566391 
L 191.461765 145.4694 
L 191.544473 145.4694 
L 191.62889 143.896657 
L 191.688544 143.896657 
L 191.780607 141.799666 
L 191.85269 141.799666 
L 191.91651 140.226923 
L 192.077873 140.226923 
L 192.183881 138.65418 
L 192.189368 138.65418 
L 192.294381 137.081437 
L 192.335305 137.081437 
L 192.431553 135.508693 
L 192.489105 135.508693 
L 192.495574 134.460198 
L 192.698244 134.460198 
L 192.799143 130.790464 
L 192.855631 130.790464 
L 192.93161 128.693473 
L 192.969999 128.693473 
L 193.002921 127.644978 
L 193.22587 127.644978 
L 193.22587 127.12073 
L 193.393142 127.12073 
L 193.498191 125.547987 
L 193.53693 125.547987 
L 193.585413 123.450996 
L 193.671332 123.450996 
L 193.671332 122.926748 
L 193.798411 122.926748 
L 193.882564 120.829757 
L 193.954571 120.829757 
L 194.05991 119.781262 
L 194.0675 119.781262 
L 194.161813 116.635776 
L 194.316244 116.635776 
L 194.335624 115.58728 
L 194.461611 115.58728 
L 194.547096 113.490289 
L 194.648062 113.490289 
L 194.665171 112.441794 
L 194.762343 112.441794 
L 194.818124 110.344803 
L 194.898379 110.344803 
L 194.917648 109.296308 
L 195.150381 109.296308 
L 195.150381 108.77206 
L 195.299096 108.77206 
L 195.36672 107.723564 
L 195.451981 107.723564 
L 195.550103 106.675069 
L 195.631767 106.675069 
L 195.631767 106.150821 
L 195.85699 106.150821 
L 195.942504 105.102326 
L 196.015806 105.102326 
L 196.123867 103.005335 
L 199.807621 103.005335 
L 199.807621 102.481087 
L 200.053101 102.481087 
L 200.05439 101.432592 
L 200.386629 101.432592 
L 200.386629 100.908344 
L 200.815173 100.908344 
L 200.862557 99.859849 
L 200.981858 99.859849 
L 200.981858 99.335601 
L 201.132414 99.335601 
L 201.168337 98.287105 
L 201.372946 98.287105 
L 201.415154 97.23861 
L 201.644737 97.23861 
L 201.644737 96.714362 
L 201.789532 96.714362 
L 201.876291 95.665867 
L 201.934896 95.665867 
L 202.039318 93.568876 
L 202.047712 93.568876 
L 202.110577 92.520381 
L 202.242698 92.520381 
L 202.340497 91.471885 
L 202.384208 91.471885 
L 202.465783 89.899142 
L 202.517431 89.899142 
L 202.617272 88.326399 
L 202.673323 88.326399 
L 202.677752 87.277903 
L 202.940054 87.277903 
L 202.98436 86.229408 
L 203.312697 86.229408 
L 203.404936 84.132417 
L 203.500903 84.132417 
L 203.576712 82.559674 
L 203.615136 82.559674 
L 203.678397 79.938435 
L 203.765342 79.938435 
L 203.765342 79.414188 
L 203.917179 79.414188 
L 204.024357 76.792949 
L 204.108086 76.792949 
L 204.214551 74.17171 
L 204.237974 74.17171 
L 204.273165 73.123215 
L 204.37229 73.123215 
L 204.457185 71.026224 
L 204.493923 71.026224 
L 204.584395 68.404985 
L 204.662867 68.404985 
L 204.723754 66.832242 
L 204.775234 66.832242 
L 204.808967 65.783747 
L 204.969791 65.783747 
L 204.969791 65.259499 
L 205.130231 65.259499 
L 205.239887 64.211004 
L 205.467406 64.211004 
L 205.493232 63.162508 
L 205.588746 63.162508 
L 205.689523 61.065517 
L 206.020772 61.065517 
L 206.020772 60.54127 
L 207.744438 60.54127 
L 207.744438 60.017022 
L 208.441299 60.017022 
L 208.459497 58.968526 
L 208.629885 58.968526 
L 208.629885 58.444279 
L 208.953149 58.444279 
L 209.00037 57.395783 
L 209.211971 57.395783 
L 209.211971 56.871536 
L 209.397343 56.871536 
L 209.471658 54.774545 
L 209.536057 54.774545 
L 209.548508 53.726049 
L 209.668445 53.726049 
L 209.725728 52.677554 
L 209.790479 52.677554 
L 209.790479 52.153306 
L 209.915341 52.153306 
L 209.915341 51.629058 
L 210.049177 51.629058 
L 210.122941 50.580563 
L 210.211724 50.580563 
L 210.240704 49.532068 
L 210.382758 49.532068 
L 210.419215 48.483572 
L 210.561638 48.483572 
L 210.561638 47.959324 
L 210.737663 47.959324 
L 210.795745 46.386581 
L 210.887467 46.386581 
L 210.887467 45.862334 
L 211.115383 45.862334 
L 211.115383 45.338086 
L 211.269385 45.338086 
L 211.298082 44.28959 
L 212.290905 44.28959 
L 212.290905 43.765343 
L 213.304001 43.765343 
L 213.304001 43.241095 
L 213.496253 43.241095 
L 213.496253 42.716847 
L 213.777824 42.716847 
L 213.777958 41.668352 
L 214.399937 41.668352 
L 214.399937 41.144104 
L 214.867676 41.144104 
L 214.959774 39.571361 
L 215.189239 39.571361 
L 215.189239 39.047113 
L 215.428624 39.047113 
L 215.428624 38.522865 
L 215.540914 38.522865 
L 215.540914 37.998618 
L 216.857305 37.998618 
L 216.857305 37.47437 
L 217.256282 37.47437 
L 217.256282 36.950122 
L 217.418214 36.950122 
L 217.430383 35.901627 
L 217.847876 35.901627 
L 217.847876 35.377379 
L 218.139552 35.377379 
L 218.139552 34.853131 
L 218.597727 34.853131 
L 218.597727 34.328884 
L 218.726111 34.328884 
L 218.726111 33.804636 
L 219.160791 33.804636 
L 219.160791 33.280388 
L 220.330353 33.280388 
L 220.330353 32.756141 
L 220.460666 32.756141 
L 220.460666 32.231893 
L 220.779519 32.231893 
L 220.779519 31.707645 
L 221.439763 31.707645 
L 221.439763 31.183397 
L 221.598281 31.183397 
L 221.598281 30.65915 
L 224.336465 30.65915 
L 224.336465 30.134902 
L 225.628388 30.134902 
L 225.628388 29.610654 
L 225.806312 29.610654 
L 225.806312 29.086407 
L 226.193644 29.086407 
L 226.193644 28.562159 
L 227.510434 28.562159 
L 227.510434 28.037911 
L 228.817323 28.037911 
L 228.817323 27.513663 
L 333.168 27.513663 
L 333.168 27.513663 
" style="fill:none;stroke:#ff00ff;stroke-linecap:square;stroke-width:1.5;"/>
   </g>
   <g id="line2d_49">
    <defs>
     <path d="M -0 8.485281 
L 5.091169 0 
L 0 -8.485281 
L -5.091169 -0 
z
" id="mf8419d525d" style="stroke:#ff00ff;stroke-linejoin:miter;stroke-width:1.5;"/>
    </defs>
    <g>
     <use style="fill:none;stroke:#ff00ff;stroke-linejoin:miter;stroke-width:1.5;" x="155.076432" xlink:href="#mf8419d525d" y="246.124962"/>
     <use style="fill:none;stroke:#ff00ff;stroke-linejoin:miter;stroke-width:1.5;" x="196.015806" xlink:href="#mf8419d525d" y="105.102326"/>
     <use style="fill:none;stroke:#ff00ff;stroke-linejoin:miter;stroke-width:1.5;" x="228.817323" xlink:href="#mf8419d525d" y="28.037911"/>
     <use style="fill:none;stroke:#ff00ff;stroke-linejoin:miter;stroke-width:1.5;" x="228.817323" xlink:href="#mf8419d525d" y="27.513663"/>
     <use style="fill:none;stroke:#ff00ff;stroke-linejoin:miter;stroke-width:1.5;" x="333.168" xlink:href="#mf8419d525d" y="27.513663"/>
    </g>
   </g>
   <g id="line2d_50">
    <path style="fill:none;stroke:#ff00ff;stroke-linecap:square;stroke-width:1.5;"/>
    <g/>
   </g>
   <g id="line2d_51">
    <path clip-path="url(#p2ff95d72d3)" d="M 191.278791 149.139134 
" style="fill:none;stroke:#ff00ff;stroke-linecap:square;stroke-width:1.5;"/>
    <defs>
     <path d="M -12 12 
L 12 -12 
M -12 -12 
L 12 12 
" id="m68ec728a62" style="stroke:#ff00ff;"/>
    </defs>
    <g clip-path="url(#p2ff95d72d3)">
     <use style="fill:#ff00ff;stroke:#ff00ff;" x="191.278791" xlink:href="#m68ec728a62" y="149.139134"/>
    </g>
   </g>
   <g id="line2d_52">
    <defs>
     <path d="M 0 1.5 
C 0.397805 1.5 0.77937 1.341951 1.06066 1.06066 
C 1.341951 0.77937 1.5 0.397805 1.5 0 
C 1.5 -0.397805 1.341951 -0.77937 1.06066 -1.06066 
C 0.77937 -1.341951 0.397805 -1.5 0 -1.5 
C -0.397805 -1.5 -0.77937 -1.341951 -1.06066 -1.06066 
C -1.341951 -0.77937 -1.5 -0.397805 -1.5 0 
C -1.5 0.397805 -1.341951 0.77937 -1.06066 1.06066 
C -0.77937 1.341951 -0.397805 1.5 0 1.5 
z
" id="macae1a7007" style="stroke:#6495ed;"/>
    </defs>
    <g>
     <use style="fill:#6495ed;stroke:#6495ed;" x="140.939943" xlink:href="#macae1a7007" y="27.513663"/>
     <use style="fill:#6495ed;stroke:#6495ed;" x="140.939943" xlink:href="#macae1a7007" y="27.513663"/>
    </g>
   </g>
   <g id="line2d_53">
    <path d="M 82.350819 294.88 
L 82.350819 294.355752 
L 83.869764 294.355752 
L 83.869764 293.831505 
L 86.186351 293.831505 
L 86.186351 293.307257 
L 87.412056 293.307257 
L 87.412056 292.258761 
L 87.688184 292.258761 
L 87.688184 291.734514 
L 88.556144 291.734514 
L 88.556144 291.210266 
L 88.942422 291.210266 
L 88.942422 290.686018 
L 89.320209 290.686018 
L 89.320209 290.161771 
L 90.753425 290.161771 
L 90.753425 289.637523 
L 93.205491 289.637523 
L 93.205491 289.113275 
L 93.982511 289.113275 
L 93.982511 288.589027 
L 95.218977 288.589027 
L 95.218977 288.06478 
L 95.612127 288.06478 
L 95.612127 287.540532 
L 95.741204 287.540532 
L 95.741204 287.016284 
L 96.372436 287.016284 
L 96.372436 286.492036 
L 96.618578 286.492036 
L 96.618578 285.967789 
L 96.821038 285.967789 
L 96.821038 285.443541 
L 97.140094 285.443541 
L 97.140094 284.919293 
L 97.375558 284.919293 
L 97.375558 284.395046 
L 97.684575 284.395046 
L 97.684575 283.870798 
L 98.137928 283.870798 
L 98.137928 283.34655 
L 98.396965 283.34655 
L 98.396965 282.822302 
L 98.615932 282.822302 
L 98.615932 282.298055 
L 98.832144 282.298055 
L 98.832144 281.773807 
L 99.975011 281.773807 
L 100.075237 280.725312 
L 100.174881 280.725312 
L 100.207968 279.676816 
L 100.920217 279.676816 
L 100.920217 279.152568 
L 101.078057 279.152568 
L 101.172069 278.104073 
L 101.573619 278.104073 
L 101.573619 277.579825 
L 101.755832 277.579825 
L 101.816143 275.482834 
L 102.810321 275.482834 
L 102.810321 274.958587 
L 103.231288 274.958587 
L 103.341826 273.385844 
L 103.669239 273.385844 
L 103.669239 272.861596 
L 103.830635 272.861596 
L 103.830635 272.337348 
L 104.069924 272.337348 
L 104.069924 271.8131 
L 104.279864 271.8131 
L 104.279864 271.288853 
L 104.538734 271.288853 
L 104.538734 270.764605 
L 105.045063 270.764605 
L 105.045063 270.240357 
L 105.729765 270.240357 
L 105.729765 269.716109 
L 106.225966 269.716109 
L 106.272485 268.143366 
L 106.708244 268.143366 
L 106.776049 267.094871 
L 106.933229 267.094871 
L 106.933229 266.570623 
L 107.243342 266.570623 
L 107.330927 265.522128 
L 107.612537 265.522128 
L 107.612537 264.99788 
L 107.868452 264.99788 
L 107.952917 263.425137 
L 108.183079 263.425137 
L 108.183079 262.900889 
L 108.935392 262.900889 
L 108.935392 262.376641 
L 109.113514 262.376641 
L 109.133192 261.328146 
L 109.348175 261.328146 
L 109.386975 260.279651 
L 109.464315 260.279651 
L 109.541307 258.706907 
L 109.902386 258.706907 
L 109.902386 258.18266 
L 110.512042 258.18266 
L 110.620602 257.134164 
L 110.782167 257.134164 
L 110.835687 255.037173 
L 110.906788 255.037173 
L 110.906788 254.512926 
L 111.100812 254.512926 
L 111.100812 253.988678 
L 111.822119 253.988678 
L 111.889263 252.940182 
L 112.089133 252.940182 
L 112.171731 251.891687 
L 112.866152 251.891687 
L 112.929346 250.843192 
L 113.117544 250.843192 
L 113.117544 250.318944 
L 113.303705 250.318944 
L 113.411374 248.746201 
L 113.639848 248.746201 
L 113.745439 247.697705 
L 113.880253 247.697705 
L 113.984382 246.64921 
L 114.043602 246.64921 
L 114.043602 246.124962 
L 114.220048 246.124962 
L 114.220048 245.600714 
L 114.438088 245.600714 
L 114.438088 245.076467 
L 114.553255 245.076467 
L 114.624845 244.027971 
L 114.837842 244.027971 
L 114.837842 243.503724 
L 115.187074 243.503724 
L 115.200897 242.455228 
L 115.324805 242.455228 
L 115.324805 241.93098 
L 115.46144 241.93098 
L 115.46144 241.406733 
L 115.596998 241.406733 
L 115.596998 240.882485 
L 115.851649 240.882485 
L 115.957752 239.83399 
L 115.984175 239.83399 
L 116.063204 237.736999 
L 116.154946 237.736999 
L 116.154946 237.212751 
L 116.272187 237.212751 
L 116.362824 235.640008 
L 116.388632 235.640008 
L 116.388632 235.11576 
L 116.542676 235.11576 
L 116.542676 234.591512 
L 116.783791 234.591512 
L 116.783791 233.543017 
L 117.632025 233.543017 
L 117.655998 232.494521 
L 117.775364 232.494521 
L 117.88209 230.921778 
L 117.929311 230.921778 
L 118.023367 229.873283 
L 118.325541 229.873283 
L 118.394526 228.824787 
L 118.486077 228.824787 
L 118.497486 227.252044 
L 118.611168 227.252044 
L 118.656431 226.203549 
L 118.81392 226.203549 
L 118.81392 225.679301 
L 119.014308 225.679301 
L 119.113632 224.106558 
L 119.168566 224.106558 
L 119.212386 223.058063 
L 119.354037 223.058063 
L 119.429829 222.009567 
L 119.665881 222.009567 
L 119.761522 220.961072 
L 119.846091 220.961072 
L 119.846091 220.436824 
L 120.25251 220.436824 
L 120.273095 219.388328 
L 120.396091 219.388328 
L 120.447081 217.815585 
L 120.508069 217.815585 
L 120.538483 216.76709 
L 120.739875 216.76709 
L 120.809808 215.194347 
L 120.919132 215.194347 
L 120.919132 214.670099 
L 121.184561 214.670099 
L 121.184561 214.145851 
L 121.320594 214.145851 
L 121.320594 213.621604 
L 121.474753 213.621604 
L 121.513078 212.573108 
L 121.769558 212.573108 
L 121.788406 211.000365 
L 121.947778 211.000365 
L 122.050119 209.427622 
L 122.399045 209.427622 
L 122.507777 207.854879 
L 122.525833 207.854879 
L 122.597865 206.806383 
L 122.714277 206.806383 
L 122.714277 206.282136 
L 122.838768 206.282136 
L 122.883012 204.709392 
L 122.962364 204.709392 
L 122.962364 204.185145 
L 123.198248 204.185145 
L 123.276162 202.088154 
L 123.430938 202.088154 
L 123.507806 201.039658 
L 123.601292 201.039658 
L 123.7027 198.942667 
L 123.744778 198.942667 
L 123.811888 196.845677 
L 123.895409 196.845677 
L 123.995102 195.797181 
L 124.011661 195.797181 
L 124.09422 193.70019 
L 124.151776 193.70019 
L 124.233665 192.127447 
L 124.47702 192.127447 
L 124.47702 191.603199 
L 124.716977 191.603199 
L 124.716977 191.078952 
L 124.875107 191.078952 
L 124.937954 189.506209 
L 125.256487 189.506209 
L 125.363916 187.409218 
L 125.394487 187.409218 
L 125.485876 185.312227 
L 125.614517 185.312227 
L 125.704746 184.263731 
L 125.779577 184.263731 
L 125.779577 183.739484 
L 125.957853 183.739484 
L 126.009504 181.642493 
L 126.090357 181.642493 
L 126.090357 181.118245 
L 126.294465 181.118245 
L 126.373992 179.021254 
L 126.546239 179.021254 
L 126.645925 177.972759 
L 126.660118 177.972759 
L 126.723846 176.924263 
L 126.808449 176.924263 
L 126.878636 175.35152 
L 127.05979 175.35152 
L 127.135862 173.778777 
L 127.204727 173.778777 
L 127.245913 172.730281 
L 127.321167 172.730281 
L 127.321167 172.206034 
L 127.524746 172.206034 
L 127.598791 170.109043 
L 127.785844 170.109043 
L 127.88522 167.487804 
L 128.13443 167.487804 
L 128.153951 166.439309 
L 128.277075 166.439309 
L 128.277075 165.915061 
L 128.405733 165.915061 
L 128.482468 163.81807 
L 128.590593 163.81807 
L 128.69174 162.769575 
L 128.767212 162.769575 
L 128.8486 161.196832 
L 128.954453 161.196832 
L 129.016417 159.099841 
L 129.133535 159.099841 
L 129.243759 157.527098 
L 129.249861 157.527098 
L 129.298606 156.478602 
L 129.389632 156.478602 
L 129.49823 153.333116 
L 129.819968 153.333116 
L 129.878894 150.18763 
L 129.955196 150.18763 
L 129.955196 149.663382 
L 130.262818 149.663382 
L 130.297299 148.090639 
L 130.440228 148.090639 
L 130.519753 145.4694 
L 130.576332 145.4694 
L 130.576332 144.945152 
L 130.688934 144.945152 
L 130.772904 142.848162 
L 130.867577 142.848162 
L 130.978293 141.275418 
L 130.98381 141.275418 
L 131.077331 139.702675 
L 131.186709 139.702675 
L 131.273713 136.557189 
L 131.306226 136.557189 
L 131.381852 135.508693 
L 131.478598 135.508693 
L 131.58546 133.411703 
L 131.980376 133.411703 
L 132.073821 130.790464 
L 132.104857 130.790464 
L 132.171909 129.217721 
L 132.35624 129.217721 
L 132.437534 127.12073 
L 132.483094 127.12073 
L 132.533574 125.023739 
L 132.694123 125.023739 
L 132.803637 123.975244 
L 132.818516 123.975244 
L 132.892723 122.4025 
L 133.000983 122.4025 
L 133.084173 120.30551 
L 133.263855 120.30551 
L 133.37461 116.111528 
L 133.503723 116.111528 
L 133.598741 114.014537 
L 133.702657 114.014537 
L 133.76846 112.441794 
L 133.834012 112.441794 
L 133.908623 111.393298 
L 133.973644 111.393298 
L 134.061494 109.296308 
L 134.135127 109.296308 
L 134.208446 106.150821 
L 134.258672 106.150821 
L 134.336006 105.102326 
L 134.376807 105.102326 
L 134.453613 103.529583 
L 134.489638 103.529583 
L 134.588321 102.481087 
L 134.659735 102.481087 
L 134.677543 100.908344 
L 134.810514 100.908344 
L 134.88541 99.335601 
L 134.946845 99.335601 
L 135.008061 97.23861 
L 135.181773 97.23861 
L 135.255072 94.093124 
L 135.383666 94.093124 
L 135.468864 91.996133 
L 135.536719 91.996133 
L 135.595874 89.899142 
L 135.688422 89.899142 
L 135.688422 89.374894 
L 135.813826 89.374894 
L 135.872036 87.802151 
L 135.938322 87.802151 
L 136.041384 86.229408 
L 136.074233 86.229408 
L 136.18464 84.132417 
L 136.221285 84.132417 
L 136.330755 83.083922 
L 136.375154 83.083922 
L 136.471629 81.511178 
L 136.495664 81.511178 
L 136.603405 79.414188 
L 136.619309 79.414188 
L 136.72233 76.792949 
L 136.76179 76.792949 
L 136.785422 75.220206 
L 136.887456 75.220206 
L 136.887456 74.695958 
L 137.000552 74.695958 
L 137.10132 73.123215 
L 137.136064 73.123215 
L 137.236043 69.977729 
L 137.259032 69.977729 
L 137.285815 68.404985 
L 137.373522 68.404985 
L 137.407721 66.832242 
L 137.506136 66.832242 
L 137.577701 65.259499 
L 137.618997 65.259499 
L 137.68636 62.638261 
L 137.772051 62.638261 
L 137.816591 61.589765 
L 137.890569 61.589765 
L 138.000941 59.492774 
L 138.004608 59.492774 
L 138.077782 58.444279 
L 138.157916 58.444279 
L 138.223203 55.298792 
L 138.27742 55.298792 
L 138.37817 53.726049 
L 138.435478 53.726049 
L 138.506845 51.104811 
L 138.59918 51.104811 
L 138.620418 50.056315 
L 138.729732 50.056315 
L 138.838355 47.435077 
L 138.894151 47.435077 
L 139.005202 45.338086 
L 139.008661 45.338086 
L 139.067355 43.241095 
L 139.177297 43.241095 
L 139.276327 40.619856 
L 139.313742 40.619856 
L 139.381561 39.047113 
L 139.449113 39.047113 
L 139.472694 37.47437 
L 139.566694 37.47437 
L 139.640193 34.853131 
L 139.706738 34.853131 
L 139.812678 33.280388 
L 139.84565 33.280388 
L 139.947465 30.134902 
L 140.068202 30.134902 
L 140.107179 29.086407 
L 140.252559 29.086407 
L 140.355197 28.037911 
L 140.939943 28.037911 
L 140.939943 27.513663 
L 333.168 27.513663 
L 333.168 27.513663 
" style="fill:none;stroke:#6495ed;stroke-linecap:square;stroke-width:1.5;"/>
   </g>
   <g id="line2d_54">
    <defs>
     <path d="M -0 6 
L 6 -6 
L -6 -6 
z
" id="m3188e9aa4f" style="stroke:#6495ed;stroke-linejoin:miter;stroke-width:1.5;"/>
    </defs>
    <g>
     <use style="fill:none;stroke:#6495ed;stroke-linejoin:miter;stroke-width:1.5;" x="131.273713" xlink:href="#m3188e9aa4f" y="137.081437"/>
     <use style="fill:none;stroke:#6495ed;stroke-linejoin:miter;stroke-width:1.5;" x="140.939943" xlink:href="#m3188e9aa4f" y="28.037911"/>
     <use style="fill:none;stroke:#6495ed;stroke-linejoin:miter;stroke-width:1.5;" x="140.939943" xlink:href="#m3188e9aa4f" y="27.513663"/>
     <use style="fill:none;stroke:#6495ed;stroke-linejoin:miter;stroke-width:1.5;" x="140.939943" xlink:href="#m3188e9aa4f" y="27.513663"/>
     <use style="fill:none;stroke:#6495ed;stroke-linejoin:miter;stroke-width:1.5;" x="333.168" xlink:href="#m3188e9aa4f" y="27.513663"/>
    </g>
   </g>
   <g id="line2d_55">
    <path style="fill:none;stroke:#6495ed;stroke-linecap:square;stroke-width:1.5;"/>
    <g/>
   </g>
   <g id="line2d_56">
    <path d="M 333.168 27.513663 
L 363.64328 289.532673 
" style="fill:none;stroke:#000080;stroke-linecap:square;stroke-width:1.5;"/>
    <g>
     <use style="fill:none;stroke:#000080;stroke-width:1.5;" x="333.168" xlink:href="#m3da77b559a" y="27.513663"/>
     <use style="fill:none;stroke:#000080;stroke-width:1.5;" x="363.64328" xlink:href="#m3da77b559a" y="289.532673"/>
    </g>
   </g>
   <g id="line2d_57">
    <path d="M 333.168 27.513663 
L 363.64328 203.975446 
" style="fill:none;stroke:#ff00ff;stroke-linecap:square;stroke-width:1.5;"/>
    <g>
     <use style="fill:none;stroke:#ff00ff;stroke-linejoin:miter;stroke-width:1.5;" x="333.168" xlink:href="#mf8419d525d" y="27.513663"/>
     <use style="fill:none;stroke:#ff00ff;stroke-linejoin:miter;stroke-width:1.5;" x="363.64328" xlink:href="#mf8419d525d" y="203.975446"/>
    </g>
   </g>
   <g id="line2d_58">
    <path d="M 333.168 27.513663 
L 363.64328 118.418218 
" style="fill:none;stroke:#6495ed;stroke-linecap:square;stroke-width:1.5;"/>
    <g>
     <use style="fill:none;stroke:#6495ed;stroke-linejoin:miter;stroke-width:1.5;" x="333.168" xlink:href="#m3188e9aa4f" y="27.513663"/>
     <use style="fill:none;stroke:#6495ed;stroke-linejoin:miter;stroke-width:1.5;" x="363.64328" xlink:href="#m3188e9aa4f" y="118.418218"/>
    </g>
   </g>
   <g id="line2d_59">
    <path d="M 333.168 294.88 
L 333.168 27.513663 
" style="fill:none;stroke:#000000;stroke-linecap:square;stroke-width:1.5;"/>
   </g>
   <g id="patch_3">
    <path d="M 56.12 294.88 
L 56.12 24.84 
" style="fill:none;stroke:#000000;stroke-linecap:square;stroke-linejoin:miter;stroke-width:0.8;"/>
   </g>
   <g id="patch_4">
    <path d="M 333.168 294.88 
L 333.168 24.84 
" style="fill:none;stroke:#000000;stroke-linecap:square;stroke-linejoin:miter;stroke-width:0.8;"/>
   </g>
   <g id="patch_5">
    <path d="M 56.12 294.88 
L 333.168 294.88 
" style="fill:none;stroke:#000000;stroke-linecap:square;stroke-linejoin:miter;stroke-width:0.8;"/>
   </g>
   <g id="patch_6">
    <path d="M 56.12 24.84 
L 333.168 24.84 
" style="fill:none;stroke:#000000;stroke-linecap:square;stroke-linejoin:miter;stroke-width:0.8;"/>
   </g>
   <g id="text_13">
    <!-- CMA ES PPM -->
    <defs>
     <path d="M 64.40625 67.28125 
L 64.40625 56.890625 
Q 59.421875 61.53125 53.78125 63.8125 
Q 48.140625 66.109375 41.796875 66.109375 
Q 29.296875 66.109375 22.65625 58.46875 
Q 16.015625 50.828125 16.015625 36.375 
Q 16.015625 21.96875 22.65625 14.328125 
Q 29.296875 6.6875 41.796875 6.6875 
Q 48.140625 6.6875 53.78125 8.984375 
Q 59.421875 11.28125 64.40625 15.921875 
L 64.40625 5.609375 
Q 59.234375 2.09375 53.4375 0.328125 
Q 47.65625 -1.421875 41.21875 -1.421875 
Q 24.65625 -1.421875 15.125 8.703125 
Q 5.609375 18.84375 5.609375 36.375 
Q 5.609375 53.953125 15.125 64.078125 
Q 24.65625 74.21875 41.21875 74.21875 
Q 47.75 74.21875 53.53125 72.484375 
Q 59.328125 70.75 64.40625 67.28125 
z
" id="DejaVuSans-43"/>
     <path d="M 9.8125 72.90625 
L 24.515625 72.90625 
L 43.109375 23.296875 
L 61.8125 72.90625 
L 76.515625 72.90625 
L 76.515625 0 
L 66.890625 0 
L 66.890625 64.015625 
L 48.09375 14.015625 
L 38.1875 14.015625 
L 19.390625 64.015625 
L 19.390625 0 
L 9.8125 0 
z
" id="DejaVuSans-4d"/>
     <path d="M 34.1875 63.1875 
L 20.796875 26.90625 
L 47.609375 26.90625 
z
M 28.609375 72.90625 
L 39.796875 72.90625 
L 67.578125 0 
L 57.328125 0 
L 50.6875 18.703125 
L 17.828125 18.703125 
L 11.1875 0 
L 0.78125 0 
z
" id="DejaVuSans-41"/>
     <path d="M 9.8125 72.90625 
L 55.90625 72.90625 
L 55.90625 64.59375 
L 19.671875 64.59375 
L 19.671875 43.015625 
L 54.390625 43.015625 
L 54.390625 34.71875 
L 19.671875 34.71875 
L 19.671875 8.296875 
L 56.78125 8.296875 
L 56.78125 0 
L 9.8125 0 
z
" id="DejaVuSans-45"/>
     <path d="M 53.515625 70.515625 
L 53.515625 60.890625 
Q 47.90625 63.578125 42.921875 64.890625 
Q 37.9375 66.21875 33.296875 66.21875 
Q 25.25 66.21875 20.875 63.09375 
Q 16.5 59.96875 16.5 54.203125 
Q 16.5 49.359375 19.40625 46.890625 
Q 22.3125 44.4375 30.421875 42.921875 
L 36.375 41.703125 
Q 47.40625 39.59375 52.65625 34.296875 
Q 57.90625 29 57.90625 20.125 
Q 57.90625 9.515625 50.796875 4.046875 
Q 43.703125 -1.421875 29.984375 -1.421875 
Q 24.8125 -1.421875 18.96875 -0.25 
Q 13.140625 0.921875 6.890625 3.21875 
L 6.890625 13.375 
Q 12.890625 10.015625 18.65625 8.296875 
Q 24.421875 6.59375 29.984375 6.59375 
Q 38.421875 6.59375 43.015625 9.90625 
Q 47.609375 13.234375 47.609375 19.390625 
Q 47.609375 24.75 44.3125 27.78125 
Q 41.015625 30.8125 33.5 32.328125 
L 27.484375 33.5 
Q 16.453125 35.6875 11.515625 40.375 
Q 6.59375 45.0625 6.59375 53.421875 
Q 6.59375 63.09375 13.40625 68.65625 
Q 20.21875 74.21875 32.171875 74.21875 
Q 37.3125 74.21875 42.625 73.28125 
Q 47.953125 72.359375 53.515625 70.515625 
z
" id="DejaVuSans-53"/>
     <path d="M 19.671875 64.796875 
L 19.671875 37.40625 
L 32.078125 37.40625 
Q 38.96875 37.40625 42.71875 40.96875 
Q 46.484375 44.53125 46.484375 51.125 
Q 46.484375 57.671875 42.71875 61.234375 
Q 38.96875 64.796875 32.078125 64.796875 
z
M 9.8125 72.90625 
L 32.078125 72.90625 
Q 44.34375 72.90625 50.609375 67.359375 
Q 56.890625 61.8125 56.890625 51.125 
Q 56.890625 40.328125 50.609375 34.8125 
Q 44.34375 29.296875 32.078125 29.296875 
L 19.671875 29.296875 
L 19.671875 0 
L 9.8125 0 
z
" id="DejaVuSans-50"/>
    </defs>
    <g transform="translate(369.18424 294.223611)scale(0.17 -0.17)">
     <use xlink:href="#DejaVuSans-43"/>
     <use x="69.824219" xlink:href="#DejaVuSans-4d"/>
     <use x="156.103516" xlink:href="#DejaVuSans-41"/>
     <use x="224.511719" xlink:href="#DejaVuSans-20"/>
     <use x="256.298828" xlink:href="#DejaVuSans-45"/>
     <use x="319.482422" xlink:href="#DejaVuSans-53"/>
     <use x="382.958984" xlink:href="#DejaVuSans-20"/>
     <use x="414.746094" xlink:href="#DejaVuSans-50"/>
     <use x="475.048828" xlink:href="#DejaVuSans-50"/>
     <use x="535.351562" xlink:href="#DejaVuSans-4d"/>
    </g>
   </g>
   <g id="text_14">
    <!-- CMA ES CSA -->
    <g transform="translate(369.18424 208.666383)scale(0.17 -0.17)">
     <use xlink:href="#DejaVuSans-43"/>
     <use x="69.824219" xlink:href="#DejaVuSans-4d"/>
     <use x="156.103516" xlink:href="#DejaVuSans-41"/>
     <use x="224.511719" xlink:href="#DejaVuSans-20"/>
     <use x="256.298828" xlink:href="#DejaVuSans-45"/>
     <use x="319.482422" xlink:href="#DejaVuSans-53"/>
     <use x="382.958984" xlink:href="#DejaVuSans-20"/>
     <use x="414.746094" xlink:href="#DejaVuSans-43"/>
     <use x="484.570312" xlink:href="#DejaVuSans-53"/>
     <use x="548.0625" xlink:href="#DejaVuSans-41"/>
    </g>
   </g>
   <g id="text_15">
    <!-- CMAES posi -->
    <g transform="translate(369.18424 123.109155)scale(0.17 -0.17)">
     <use xlink:href="#DejaVuSans-43"/>
     <use x="69.824219" xlink:href="#DejaVuSans-4d"/>
     <use x="156.103516" xlink:href="#DejaVuSans-41"/>
     <use x="224.511719" xlink:href="#DejaVuSans-45"/>
     <use x="287.695312" xlink:href="#DejaVuSans-53"/>
     <use x="351.171875" xlink:href="#DejaVuSans-20"/>
     <use x="382.958984" xlink:href="#DejaVuSans-70"/>
     <use x="446.435547" xlink:href="#DejaVuSans-6f"/>
     <use x="507.617188" xlink:href="#DejaVuSans-73"/>
     <use x="559.716797" xlink:href="#DejaVuSans-69"/>
    </g>
   </g>
   <g id="text_16">
    <!-- best 2009 -->
    <defs>
     <path d="M 48.6875 27.296875 
Q 48.6875 37.203125 44.609375 42.84375 
Q 40.53125 48.484375 33.40625 48.484375 
Q 26.265625 48.484375 22.1875 42.84375 
Q 18.109375 37.203125 18.109375 27.296875 
Q 18.109375 17.390625 22.1875 11.75 
Q 26.265625 6.109375 33.40625 6.109375 
Q 40.53125 6.109375 44.609375 11.75 
Q 48.6875 17.390625 48.6875 27.296875 
z
M 18.109375 46.390625 
Q 20.953125 51.265625 25.265625 53.625 
Q 29.59375 56 35.59375 56 
Q 45.5625 56 51.78125 48.09375 
Q 58.015625 40.1875 58.015625 27.296875 
Q 58.015625 14.40625 51.78125 6.484375 
Q 45.5625 -1.421875 35.59375 -1.421875 
Q 29.59375 -1.421875 25.265625 0.953125 
Q 20.953125 3.328125 18.109375 8.203125 
L 18.109375 0 
L 9.078125 0 
L 9.078125 75.984375 
L 18.109375 75.984375 
z
" id="DejaVuSans-62"/>
     <path d="M 10.984375 1.515625 
L 10.984375 10.5 
Q 14.703125 8.734375 18.5 7.8125 
Q 22.3125 6.890625 25.984375 6.890625 
Q 35.75 6.890625 40.890625 13.453125 
Q 46.046875 20.015625 46.78125 33.40625 
Q 43.953125 29.203125 39.59375 26.953125 
Q 35.25 24.703125 29.984375 24.703125 
Q 19.046875 24.703125 12.671875 31.3125 
Q 6.296875 37.9375 6.296875 49.421875 
Q 6.296875 60.640625 12.9375 67.421875 
Q 19.578125 74.21875 30.609375 74.21875 
Q 43.265625 74.21875 49.921875 64.515625 
Q 56.59375 54.828125 56.59375 36.375 
Q 56.59375 19.140625 48.40625 8.859375 
Q 40.234375 -1.421875 26.421875 -1.421875 
Q 22.703125 -1.421875 18.890625 -0.6875 
Q 15.09375 0.046875 10.984375 1.515625 
z
M 30.609375 32.421875 
Q 37.25 32.421875 41.125 36.953125 
Q 45.015625 41.5 45.015625 49.421875 
Q 45.015625 57.28125 41.125 61.84375 
Q 37.25 66.40625 30.609375 66.40625 
Q 23.96875 66.40625 20.09375 61.84375 
Q 16.21875 57.28125 16.21875 49.421875 
Q 16.21875 41.5 20.09375 36.953125 
Q 23.96875 32.421875 30.609375 32.421875 
z
" id="DejaVuSans-39"/>
    </defs>
    <g transform="translate(369.18424 37.551928)scale(0.17 -0.17)">
     <use xlink:href="#DejaVuSans-62"/>
     <use x="63.476562" xlink:href="#DejaVuSans-65"/>
     <use x="125" xlink:href="#DejaVuSans-73"/>
     <use x="177.099609" xlink:href="#DejaVuSans-74"/>
     <use x="216.308594" xlink:href="#DejaVuSans-20"/>
     <use x="248.095703" xlink:href="#DejaVuSans-32"/>
     <use x="311.71875" xlink:href="#DejaVuSans-30"/>
     <use x="375.341797" xlink:href="#DejaVuSans-30"/>
     <use x="438.964844" xlink:href="#DejaVuSans-39"/>
    </g>
   </g>
   <g id="text_17">
    <!-- bbob f1, 40-D -->
    <defs>
     <path d="M 19.671875 64.796875 
L 19.671875 8.109375 
L 31.59375 8.109375 
Q 46.6875 8.109375 53.6875 14.9375 
Q 60.6875 21.78125 60.6875 36.53125 
Q 60.6875 51.171875 53.6875 57.984375 
Q 46.6875 64.796875 31.59375 64.796875 
z
M 9.8125 72.90625 
L 30.078125 72.90625 
Q 51.265625 72.90625 61.171875 64.09375 
Q 71.09375 55.28125 71.09375 36.53125 
Q 71.09375 17.671875 61.125 8.828125 
Q 51.171875 0 30.078125 0 
L 9.8125 0 
z
" id="DejaVuSans-44"/>
    </defs>
    <g transform="translate(58.89048 35.290806)scale(0.102 -0.102)">
     <use xlink:href="#DejaVuSans-62"/>
     <use x="63.476562" xlink:href="#DejaVuSans-62"/>
     <use x="126.953125" xlink:href="#DejaVuSans-6f"/>
     <use x="188.134766" xlink:href="#DejaVuSans-62"/>
     <use x="251.611328" xlink:href="#DejaVuSans-20"/>
     <use x="283.398438" xlink:href="#DejaVuSans-66"/>
     <use x="318.603516" xlink:href="#DejaVuSans-31"/>
     <use x="382.226562" xlink:href="#DejaVuSans-2c"/>
     <use x="414.013672" xlink:href="#DejaVuSans-20"/>
     <use x="445.800781" xlink:href="#DejaVuSans-34"/>
     <use x="509.423828" xlink:href="#DejaVuSans-30"/>
     <use x="573.046875" xlink:href="#DejaVuSans-2d"/>
     <use x="609.130859" xlink:href="#DejaVuSans-44"/>
    </g>
    <!-- 51 targets: 100..1e-08 -->
    <defs>
     <path d="M 10.796875 72.90625 
L 49.515625 72.90625 
L 49.515625 64.59375 
L 19.828125 64.59375 
L 19.828125 46.734375 
Q 21.96875 47.46875 24.109375 47.828125 
Q 26.265625 48.1875 28.421875 48.1875 
Q 40.625 48.1875 47.75 41.5 
Q 54.890625 34.8125 54.890625 23.390625 
Q 54.890625 11.625 47.5625 5.09375 
Q 40.234375 -1.421875 26.90625 -1.421875 
Q 22.3125 -1.421875 17.546875 -0.640625 
Q 12.796875 0.140625 7.71875 1.703125 
L 7.71875 11.625 
Q 12.109375 9.234375 16.796875 8.0625 
Q 21.484375 6.890625 26.703125 6.890625 
Q 35.15625 6.890625 40.078125 11.328125 
Q 45.015625 15.765625 45.015625 23.390625 
Q 45.015625 31 40.078125 35.4375 
Q 35.15625 39.890625 26.703125 39.890625 
Q 22.75 39.890625 18.8125 39.015625 
Q 14.890625 38.140625 10.796875 36.28125 
z
" id="DejaVuSans-35"/>
     <path d="M 11.71875 12.40625 
L 22.015625 12.40625 
L 22.015625 0 
L 11.71875 0 
z
M 11.71875 51.703125 
L 22.015625 51.703125 
L 22.015625 39.3125 
L 11.71875 39.3125 
z
" id="DejaVuSans-3a"/>
    </defs>
    <g transform="translate(58.89048 46.712575)scale(0.102 -0.102)">
     <use xlink:href="#DejaVuSans-35"/>
     <use x="63.623047" xlink:href="#DejaVuSans-31"/>
     <use x="127.246094" xlink:href="#DejaVuSans-20"/>
     <use x="159.033203" xlink:href="#DejaVuSans-74"/>
     <use x="198.242188" xlink:href="#DejaVuSans-61"/>
     <use x="259.521484" xlink:href="#DejaVuSans-72"/>
     <use x="300.619141" xlink:href="#DejaVuSans-67"/>
     <use x="364.095703" xlink:href="#DejaVuSans-65"/>
     <use x="425.619141" xlink:href="#DejaVuSans-74"/>
     <use x="464.828125" xlink:href="#DejaVuSans-73"/>
     <use x="516.927734" xlink:href="#DejaVuSans-3a"/>
     <use x="550.619141" xlink:href="#DejaVuSans-20"/>
     <use x="582.40625" xlink:href="#DejaVuSans-31"/>
     <use x="646.029297" xlink:href="#DejaVuSans-30"/>
     <use x="709.652344" xlink:href="#DejaVuSans-30"/>
     <use x="773.275391" xlink:href="#DejaVuSans-2e"/>
     <use x="805.0625" xlink:href="#DejaVuSans-2e"/>
     <use x="836.849609" xlink:href="#DejaVuSans-31"/>
     <use x="900.472656" xlink:href="#DejaVuSans-65"/>
     <use x="961.996094" xlink:href="#DejaVuSans-2d"/>
     <use x="998.080078" xlink:href="#DejaVuSans-30"/>
     <use x="1061.703125" xlink:href="#DejaVuSans-38"/>
    </g>
    <!-- 15 instances -->
    <g transform="translate(58.89048 58.134344)scale(0.102 -0.102)">
     <use xlink:href="#DejaVuSans-31"/>
     <use x="63.623047" xlink:href="#DejaVuSans-35"/>
     <use x="127.246094" xlink:href="#DejaVuSans-20"/>
     <use x="159.033203" xlink:href="#DejaVuSans-69"/>
     <use x="186.816406" xlink:href="#DejaVuSans-6e"/>
     <use x="250.195312" xlink:href="#DejaVuSans-73"/>
     <use x="302.294922" xlink:href="#DejaVuSans-74"/>
     <use x="341.503906" xlink:href="#DejaVuSans-61"/>
     <use x="402.783203" xlink:href="#DejaVuSans-6e"/>
     <use x="466.162109" xlink:href="#DejaVuSans-63"/>
     <use x="521.142578" xlink:href="#DejaVuSans-65"/>
     <use x="582.666016" xlink:href="#DejaVuSans-73"/>
    </g>
   </g>
   <g id="text_18">
    <!-- v0.0.0 -->
    <g style="fill:#808080;" transform="translate(178.96275 290.099912)scale(0.1 -0.1)">
     <use xlink:href="#DejaVuSans-76"/>
     <use x="59.179688" xlink:href="#DejaVuSans-30"/>
     <use x="122.802734" xlink:href="#DejaVuSans-2e"/>
     <use x="154.589844" xlink:href="#DejaVuSans-30"/>
     <use x="218.212891" xlink:href="#DejaVuSans-2e"/>
     <use x="250" xlink:href="#DejaVuSans-30"/>
    </g>
   </g>
   <g id="text_19">
    <!-- 1 Sphere -->
    <defs>
     <path d="M 54.890625 33.015625 
L 54.890625 0 
L 45.90625 0 
L 45.90625 32.71875 
Q 45.90625 40.484375 42.875 44.328125 
Q 39.84375 48.1875 33.796875 48.1875 
Q 26.515625 48.1875 22.3125 43.546875 
Q 18.109375 38.921875 18.109375 30.90625 
L 18.109375 0 
L 9.078125 0 
L 9.078125 75.984375 
L 18.109375 75.984375 
L 18.109375 46.1875 
Q 21.34375 51.125 25.703125 53.5625 
Q 30.078125 56 35.796875 56 
Q 45.21875 56 50.046875 50.171875 
Q 54.890625 44.34375 54.890625 33.015625 
z
" id="DejaVuSans-68"/>
    </defs>
    <g transform="translate(149.654938 18.84)scale(0.2 -0.2)">
     <use xlink:href="#DejaVuSans-31"/>
     <use x="63.623047" xlink:href="#DejaVuSans-20"/>
     <use x="95.410156" xlink:href="#DejaVuSans-53"/>
     <use x="158.886719" xlink:href="#DejaVuSans-70"/>
     <use x="222.363281" xlink:href="#DejaVuSans-68"/>
     <use x="285.742188" xlink:href="#DejaVuSans-65"/>
     <use x="347.265625" xlink:href="#DejaVuSans-72"/>
     <use x="388.347656" xlink:href="#DejaVuSans-65"/>
    </g>
   </g>
  </g>
 </g>
 <defs>
  <clipPath id="p2ff95d72d3">
   <rect height="270.04" width="277.048" x="56.12" y="24.84"/>
  </clipPath>
 </defs>
</svg>
