<?xml version="1.0" encoding="utf-8" standalone="no"?>
<!DOCTYPE svg PUBLIC "-//W3C//DTD SVG 1.1//EN"
  "http://www.w3.org/Graphics/SVG/1.1/DTD/svg11.dtd">
<!-- Created with matplotlib (http://matplotlib.org/) -->
<svg height="345pt" version="1.1" viewBox="0 0 460 345" width="460pt" xmlns="http://www.w3.org/2000/svg" xmlns:xlink="http://www.w3.org/1999/xlink">
 <defs>
  <style type="text/css">
*{stroke-linecap:butt;stroke-linejoin:round;}
  </style>
 </defs>
 <g id="figure_1">
  <g id="patch_1">
   <path d="M 0 345.6 
L 460.8 345.6 
L 460.8 0 
L 0 0 
z
" style="fill:#ffffff;"/>
  </g>
  <g id="axes_1">
   <g id="patch_2">
    <path d="M 56.12 294.88 
L 333.168 294.88 
L 333.168 24.84 
L 56.12 24.84 
z
" style="fill:#ffffff;"/>
   </g>
   <g id="line2d_1">
    <path d="M 114.380214 294.88 
L 114.380214 289.637523 
L 114.837842 289.637523 
L 114.837842 284.395046 
L 115.256077 284.395046 
L 115.256077 279.152568 
L 116.036901 279.152568 
L 116.036901 273.910091 
L 121.417105 273.910091 
L 121.417105 268.667614 
L 124.069494 268.667614 
L 124.069494 263.425137 
L 127.416471 263.425137 
L 127.416471 258.18266 
L 129.450049 258.18266 
L 129.450049 252.940182 
L 131.537454 252.940182 
L 131.537454 247.697705 
L 132.882847 247.697705 
L 132.882847 242.455228 
L 134.73529 242.455228 
L 134.73529 237.212751 
L 135.917635 237.212751 
L 135.917635 231.970274 
L 136.82081 231.970274 
L 136.82081 226.727797 
L 138.345851 226.727797 
L 138.345851 221.485319 
L 139.411992 221.485319 
L 139.411992 216.242842 
L 140.687737 216.242842 
L 140.687737 211.000365 
L 141.334118 211.000365 
L 141.334118 205.757888 
L 141.793145 205.757888 
L 141.793145 200.515411 
L 142.428336 200.515411 
L 142.428336 195.272933 
L 142.776273 195.272933 
L 142.776273 190.030456 
L 143.117307 190.030456 
L 143.117307 184.787979 
L 143.478392 184.787979 
L 143.478392 179.545502 
L 143.863366 179.545502 
L 143.863366 174.303025 
L 144.321345 174.303025 
L 144.321345 169.060547 
L 144.752587 169.060547 
L 144.752587 163.81807 
L 147.782136 163.81807 
L 147.782136 158.575593 
L 150.463774 158.575593 
L 150.463774 153.333116 
L 152.419095 153.333116 
L 152.419095 148.090639 
L 152.686469 148.090639 
L 152.686469 142.848162 
L 155.129314 142.848162 
L 155.129314 137.605684 
L 155.344578 137.605684 
L 155.344578 132.363207 
L 155.580934 132.363207 
L 155.580934 127.12073 
L 155.814083 127.12073 
L 155.814083 121.878253 
L 161.555898 121.878253 
L 161.555898 116.635776 
L 166.430284 116.635776 
L 166.430284 111.393298 
L 166.647777 111.393298 
L 166.647777 106.150821 
L 166.852971 106.150821 
L 166.852971 100.908344 
L 167.051686 100.908344 
L 167.051686 95.665867 
L 167.236085 95.665867 
L 167.236085 90.42339 
L 167.441031 90.42339 
L 167.441031 85.180912 
L 167.644869 85.180912 
L 167.644869 79.938435 
L 167.843734 79.938435 
L 167.843734 74.695958 
L 168.024987 74.695958 
L 168.024987 69.453481 
L 168.196753 69.453481 
L 168.196753 64.211004 
L 168.36306 64.211004 
L 168.36306 58.968526 
L 168.510377 58.968526 
L 168.510377 53.726049 
L 168.652745 53.726049 
L 168.652745 48.483572 
L 168.79272 48.483572 
L 168.79272 43.241095 
L 168.944903 43.241095 
L 168.944903 37.998618 
L 169.104159 37.998618 
L 169.104159 32.756141 
L 169.42892 32.756141 
L 169.42892 27.513663 
L 333.168 27.513663 
" style="fill:none;stroke:#f5deb3;stroke-linecap:square;stroke-width:4;"/>
   </g>
   <g id="line2d_2">
    <defs>
     <path d="M -0 7.778175 
L 7.778175 0 
L 0 -7.778175 
L -7.778175 -0 
z
" id="m605c311b1e" style="stroke:#f5deb3;stroke-linejoin:miter;stroke-width:1.5;"/>
    </defs>
    <g>
     <use style="fill:#f5deb3;stroke:#f5deb3;stroke-linejoin:miter;stroke-width:1.5;" x="147.782136" xlink:href="#m605c311b1e" y="158.575593"/>
     <use style="fill:#f5deb3;stroke:#f5deb3;stroke-linejoin:miter;stroke-width:1.5;" x="168.944903" xlink:href="#m605c311b1e" y="37.998618"/>
     <use style="fill:#f5deb3;stroke:#f5deb3;stroke-linejoin:miter;stroke-width:1.5;" x="169.42892" xlink:href="#m605c311b1e" y="27.513663"/>
     <use style="fill:#f5deb3;stroke:#f5deb3;stroke-linejoin:miter;stroke-width:1.5;" x="169.42892" xlink:href="#m605c311b1e" y="27.513663"/>
     <use style="fill:#f5deb3;stroke:#f5deb3;stroke-linejoin:miter;stroke-width:1.5;" x="333.168" xlink:href="#m605c311b1e" y="27.513663"/>
    </g>
   </g>
   <g id="line2d_3">
    <path style="fill:none;stroke:#f5deb3;stroke-linecap:square;stroke-width:4;"/>
    <g/>
   </g>
   <g id="line2d_4">
    <path d="M 333.168 27.513663 
L 363.64328 32.86099 
" style="fill:none;stroke:#f5deb3;stroke-linecap:square;stroke-width:4;"/>
    <g>
     <use style="fill:#f5deb3;stroke:#f5deb3;stroke-linejoin:miter;stroke-width:1.5;" x="333.168" xlink:href="#m605c311b1e" y="27.513663"/>
     <use style="fill:#f5deb3;stroke:#f5deb3;stroke-linejoin:miter;stroke-width:1.5;" x="363.64328" xlink:href="#m605c311b1e" y="32.86099"/>
    </g>
   </g>
   <g id="matplotlib.axis_1">
    <g id="xtick_1">
     <g id="line2d_5">
      <path clip-path="url(#p2a99eb1e93)" d="M 56.12 294.88 
L 56.12 24.84 
" style="fill:none;stroke:#b0b0b0;stroke-linecap:square;stroke-width:0.8;"/>
     </g>
     <g id="line2d_6">
      <defs>
       <path d="M 0 0 
L 0 3.5 
" id="m34bab9b5ce" style="stroke:#000000;stroke-width:0.8;"/>
      </defs>
      <g>
       <use style="stroke:#000000;stroke-width:0.8;" x="56.12" xlink:href="#m34bab9b5ce" y="294.88"/>
      </g>
     </g>
     <g id="text_1">
      <!-- 0 -->
      <defs>
       <path d="M 31.78125 66.40625 
Q 24.171875 66.40625 20.328125 58.90625 
Q 16.5 51.421875 16.5 36.375 
Q 16.5 21.390625 20.328125 13.890625 
Q 24.171875 6.390625 31.78125 6.390625 
Q 39.453125 6.390625 43.28125 13.890625 
Q 47.125 21.390625 47.125 36.375 
Q 47.125 51.421875 43.28125 58.90625 
Q 39.453125 66.40625 31.78125 66.40625 
z
M 31.78125 74.21875 
Q 44.046875 74.21875 50.515625 64.515625 
Q 56.984375 54.828125 56.984375 36.375 
Q 56.984375 17.96875 50.515625 8.265625 
Q 44.046875 -1.421875 31.78125 -1.421875 
Q 19.53125 -1.421875 13.0625 8.265625 
Q 6.59375 17.96875 6.59375 36.375 
Q 6.59375 54.828125 13.0625 64.515625 
Q 19.53125 74.21875 31.78125 74.21875 
z
" id="DejaVuSans-30"/>
      </defs>
      <g transform="translate(49.7575 317.076875)scale(0.2 -0.2)">
       <use xlink:href="#DejaVuSans-30"/>
      </g>
     </g>
    </g>
    <g id="xtick_2">
     <g id="line2d_7">
      <path clip-path="url(#p2a99eb1e93)" d="M 135.276571 294.88 
L 135.276571 24.84 
" style="fill:none;stroke:#b0b0b0;stroke-linecap:square;stroke-width:0.8;"/>
     </g>
     <g id="line2d_8">
      <g>
       <use style="stroke:#000000;stroke-width:0.8;" x="135.276571" xlink:href="#m34bab9b5ce" y="294.88"/>
      </g>
     </g>
     <g id="text_2">
      <!-- 2 -->
      <defs>
       <path d="M 19.1875 8.296875 
L 53.609375 8.296875 
L 53.609375 0 
L 7.328125 0 
L 7.328125 8.296875 
Q 12.9375 14.109375 22.625 23.890625 
Q 32.328125 33.6875 34.8125 36.53125 
Q 39.546875 41.84375 41.421875 45.53125 
Q 43.3125 49.21875 43.3125 52.78125 
Q 43.3125 58.59375 39.234375 62.25 
Q 35.15625 65.921875 28.609375 65.921875 
Q 23.96875 65.921875 18.8125 64.3125 
Q 13.671875 62.703125 7.8125 59.421875 
L 7.8125 69.390625 
Q 13.765625 71.78125 18.9375 73 
Q 24.125 74.21875 28.421875 74.21875 
Q 39.75 74.21875 46.484375 68.546875 
Q 53.21875 62.890625 53.21875 53.421875 
Q 53.21875 48.921875 51.53125 44.890625 
Q 49.859375 40.875 45.40625 35.40625 
Q 44.1875 33.984375 37.640625 27.21875 
Q 31.109375 20.453125 19.1875 8.296875 
z
" id="DejaVuSans-32"/>
      </defs>
      <g transform="translate(128.914071 317.076875)scale(0.2 -0.2)">
       <use xlink:href="#DejaVuSans-32"/>
      </g>
     </g>
    </g>
    <g id="xtick_3">
     <g id="line2d_9">
      <path clip-path="url(#p2a99eb1e93)" d="M 214.433143 294.88 
L 214.433143 24.84 
" style="fill:none;stroke:#b0b0b0;stroke-linecap:square;stroke-width:0.8;"/>
     </g>
     <g id="line2d_10">
      <g>
       <use style="stroke:#000000;stroke-width:0.8;" x="214.433143" xlink:href="#m34bab9b5ce" y="294.88"/>
      </g>
     </g>
     <g id="text_3">
      <!-- 4 -->
      <defs>
       <path d="M 37.796875 64.3125 
L 12.890625 25.390625 
L 37.796875 25.390625 
z
M 35.203125 72.90625 
L 47.609375 72.90625 
L 47.609375 25.390625 
L 58.015625 25.390625 
L 58.015625 17.1875 
L 47.609375 17.1875 
L 47.609375 0 
L 37.796875 0 
L 37.796875 17.1875 
L 4.890625 17.1875 
L 4.890625 26.703125 
z
" id="DejaVuSans-34"/>
      </defs>
      <g transform="translate(208.070643 317.076875)scale(0.2 -0.2)">
       <use xlink:href="#DejaVuSans-34"/>
      </g>
     </g>
    </g>
    <g id="xtick_4">
     <g id="line2d_11">
      <path clip-path="url(#p2a99eb1e93)" d="M 293.589714 294.88 
L 293.589714 24.84 
" style="fill:none;stroke:#b0b0b0;stroke-linecap:square;stroke-width:0.8;"/>
     </g>
     <g id="line2d_12">
      <g>
       <use style="stroke:#000000;stroke-width:0.8;" x="293.589714" xlink:href="#m34bab9b5ce" y="294.88"/>
      </g>
     </g>
     <g id="text_4">
      <!-- 6 -->
      <defs>
       <path d="M 33.015625 40.375 
Q 26.375 40.375 22.484375 35.828125 
Q 18.609375 31.296875 18.609375 23.390625 
Q 18.609375 15.53125 22.484375 10.953125 
Q 26.375 6.390625 33.015625 6.390625 
Q 39.65625 6.390625 43.53125 10.953125 
Q 47.40625 15.53125 47.40625 23.390625 
Q 47.40625 31.296875 43.53125 35.828125 
Q 39.65625 40.375 33.015625 40.375 
z
M 52.59375 71.296875 
L 52.59375 62.3125 
Q 48.875 64.0625 45.09375 64.984375 
Q 41.3125 65.921875 37.59375 65.921875 
Q 27.828125 65.921875 22.671875 59.328125 
Q 17.53125 52.734375 16.796875 39.40625 
Q 19.671875 43.65625 24.015625 45.921875 
Q 28.375 48.1875 33.59375 48.1875 
Q 44.578125 48.1875 50.953125 41.515625 
Q 57.328125 34.859375 57.328125 23.390625 
Q 57.328125 12.15625 50.6875 5.359375 
Q 44.046875 -1.421875 33.015625 -1.421875 
Q 20.359375 -1.421875 13.671875 8.265625 
Q 6.984375 17.96875 6.984375 36.375 
Q 6.984375 53.65625 15.1875 63.9375 
Q 23.390625 74.21875 37.203125 74.21875 
Q 40.921875 74.21875 44.703125 73.484375 
Q 48.484375 72.75 52.59375 71.296875 
z
" id="DejaVuSans-36"/>
      </defs>
      <g transform="translate(287.227214 317.076875)scale(0.2 -0.2)">
       <use xlink:href="#DejaVuSans-36"/>
      </g>
     </g>
    </g>
    <g id="xtick_5">
     <g id="line2d_13">
      <path clip-path="url(#p2a99eb1e93)" d="M 56.12 294.88 
L 56.12 24.84 
" style="fill:none;stroke:#b0b0b0;stroke-linecap:square;stroke-width:0.8;"/>
     </g>
     <g id="line2d_14">
      <defs>
       <path d="M 0 0 
L 0 2 
" id="m326008c25f" style="stroke:#000000;stroke-width:0.6;"/>
      </defs>
      <g>
       <use style="stroke:#000000;stroke-width:0.6;" x="56.12" xlink:href="#m326008c25f" y="294.88"/>
      </g>
     </g>
    </g>
    <g id="xtick_6">
     <g id="line2d_15">
      <path clip-path="url(#p2a99eb1e93)" d="M 95.698286 294.88 
L 95.698286 24.84 
" style="fill:none;stroke:#b0b0b0;stroke-linecap:square;stroke-width:0.8;"/>
     </g>
     <g id="line2d_16">
      <g>
       <use style="stroke:#000000;stroke-width:0.6;" x="95.698286" xlink:href="#m326008c25f" y="294.88"/>
      </g>
     </g>
    </g>
    <g id="xtick_7">
     <g id="line2d_17">
      <path clip-path="url(#p2a99eb1e93)" d="M 135.276571 294.88 
L 135.276571 24.84 
" style="fill:none;stroke:#b0b0b0;stroke-linecap:square;stroke-width:0.8;"/>
     </g>
     <g id="line2d_18">
      <g>
       <use style="stroke:#000000;stroke-width:0.6;" x="135.276571" xlink:href="#m326008c25f" y="294.88"/>
      </g>
     </g>
    </g>
    <g id="xtick_8">
     <g id="line2d_19">
      <path clip-path="url(#p2a99eb1e93)" d="M 174.854857 294.88 
L 174.854857 24.84 
" style="fill:none;stroke:#b0b0b0;stroke-linecap:square;stroke-width:0.8;"/>
     </g>
     <g id="line2d_20">
      <g>
       <use style="stroke:#000000;stroke-width:0.6;" x="174.854857" xlink:href="#m326008c25f" y="294.88"/>
      </g>
     </g>
    </g>
    <g id="xtick_9">
     <g id="line2d_21">
      <path clip-path="url(#p2a99eb1e93)" d="M 214.433143 294.88 
L 214.433143 24.84 
" style="fill:none;stroke:#b0b0b0;stroke-linecap:square;stroke-width:0.8;"/>
     </g>
     <g id="line2d_22">
      <g>
       <use style="stroke:#000000;stroke-width:0.6;" x="214.433143" xlink:href="#m326008c25f" y="294.88"/>
      </g>
     </g>
    </g>
    <g id="xtick_10">
     <g id="line2d_23">
      <path clip-path="url(#p2a99eb1e93)" d="M 254.011429 294.88 
L 254.011429 24.84 
" style="fill:none;stroke:#b0b0b0;stroke-linecap:square;stroke-width:0.8;"/>
     </g>
     <g id="line2d_24">
      <g>
       <use style="stroke:#000000;stroke-width:0.6;" x="254.011429" xlink:href="#m326008c25f" y="294.88"/>
      </g>
     </g>
    </g>
    <g id="xtick_11">
     <g id="line2d_25">
      <path clip-path="url(#p2a99eb1e93)" d="M 293.589714 294.88 
L 293.589714 24.84 
" style="fill:none;stroke:#b0b0b0;stroke-linecap:square;stroke-width:0.8;"/>
     </g>
     <g id="line2d_26">
      <g>
       <use style="stroke:#000000;stroke-width:0.6;" x="293.589714" xlink:href="#m326008c25f" y="294.88"/>
      </g>
     </g>
    </g>
    <g id="xtick_12">
     <g id="line2d_27">
      <path clip-path="url(#p2a99eb1e93)" d="M 333.168 294.88 
L 333.168 24.84 
" style="fill:none;stroke:#b0b0b0;stroke-linecap:square;stroke-width:0.8;"/>
     </g>
     <g id="line2d_28">
      <g>
       <use style="stroke:#000000;stroke-width:0.6;" x="333.168" xlink:href="#m326008c25f" y="294.88"/>
      </g>
     </g>
    </g>
    <g id="text_5">
     <!-- log10(# f-evals / dimension) -->
     <defs>
      <path d="M 9.421875 75.984375 
L 18.40625 75.984375 
L 18.40625 0 
L 9.421875 0 
z
" id="DejaVuSans-6c"/>
      <path d="M 30.609375 48.390625 
Q 23.390625 48.390625 19.1875 42.75 
Q 14.984375 37.109375 14.984375 27.296875 
Q 14.984375 17.484375 19.15625 11.84375 
Q 23.34375 6.203125 30.609375 6.203125 
Q 37.796875 6.203125 41.984375 11.859375 
Q 46.1875 17.53125 46.1875 27.296875 
Q 46.1875 37.015625 41.984375 42.703125 
Q 37.796875 48.390625 30.609375 48.390625 
z
M 30.609375 56 
Q 42.328125 56 49.015625 48.375 
Q 55.71875 40.765625 55.71875 27.296875 
Q 55.71875 13.875 49.015625 6.21875 
Q 42.328125 -1.421875 30.609375 -1.421875 
Q 18.84375 -1.421875 12.171875 6.21875 
Q 5.515625 13.875 5.515625 27.296875 
Q 5.515625 40.765625 12.171875 48.375 
Q 18.84375 56 30.609375 56 
z
" id="DejaVuSans-6f"/>
      <path d="M 45.40625 27.984375 
Q 45.40625 37.75 41.375 43.109375 
Q 37.359375 48.484375 30.078125 48.484375 
Q 22.859375 48.484375 18.828125 43.109375 
Q 14.796875 37.75 14.796875 27.984375 
Q 14.796875 18.265625 18.828125 12.890625 
Q 22.859375 7.515625 30.078125 7.515625 
Q 37.359375 7.515625 41.375 12.890625 
Q 45.40625 18.265625 45.40625 27.984375 
z
M 54.390625 6.78125 
Q 54.390625 -7.171875 48.1875 -13.984375 
Q 42 -20.796875 29.203125 -20.796875 
Q 24.46875 -20.796875 20.265625 -20.09375 
Q 16.0625 -19.390625 12.109375 -17.921875 
L 12.109375 -9.1875 
Q 16.0625 -11.328125 19.921875 -12.34375 
Q 23.78125 -13.375 27.78125 -13.375 
Q 36.625 -13.375 41.015625 -8.765625 
Q 45.40625 -4.15625 45.40625 5.171875 
L 45.40625 9.625 
Q 42.625 4.78125 38.28125 2.390625 
Q 33.9375 0 27.875 0 
Q 17.828125 0 11.671875 7.65625 
Q 5.515625 15.328125 5.515625 27.984375 
Q 5.515625 40.671875 11.671875 48.328125 
Q 17.828125 56 27.875 56 
Q 33.9375 56 38.28125 53.609375 
Q 42.625 51.21875 45.40625 46.390625 
L 45.40625 54.6875 
L 54.390625 54.6875 
z
" id="DejaVuSans-67"/>
      <path d="M 12.40625 8.296875 
L 28.515625 8.296875 
L 28.515625 63.921875 
L 10.984375 60.40625 
L 10.984375 69.390625 
L 28.421875 72.90625 
L 38.28125 72.90625 
L 38.28125 8.296875 
L 54.390625 8.296875 
L 54.390625 0 
L 12.40625 0 
z
" id="DejaVuSans-31"/>
      <path d="M 31 75.875 
Q 24.46875 64.65625 21.28125 53.65625 
Q 18.109375 42.671875 18.109375 31.390625 
Q 18.109375 20.125 21.3125 9.0625 
Q 24.515625 -2 31 -13.1875 
L 23.1875 -13.1875 
Q 15.875 -1.703125 12.234375 9.375 
Q 8.59375 20.453125 8.59375 31.390625 
Q 8.59375 42.28125 12.203125 53.3125 
Q 15.828125 64.359375 23.1875 75.875 
z
" id="DejaVuSans-28"/>
      <path d="M 51.125 44 
L 36.921875 44 
L 32.8125 27.6875 
L 47.125 27.6875 
z
M 43.796875 71.78125 
L 38.71875 51.515625 
L 52.984375 51.515625 
L 58.109375 71.78125 
L 65.921875 71.78125 
L 60.890625 51.515625 
L 76.125 51.515625 
L 76.125 44 
L 58.984375 44 
L 54.984375 27.6875 
L 70.515625 27.6875 
L 70.515625 20.21875 
L 53.078125 20.21875 
L 48 0 
L 40.1875 0 
L 45.21875 20.21875 
L 30.90625 20.21875 
L 25.875 0 
L 18.015625 0 
L 23.09375 20.21875 
L 7.71875 20.21875 
L 7.71875 27.6875 
L 24.90625 27.6875 
L 29 44 
L 13.28125 44 
L 13.28125 51.515625 
L 30.90625 51.515625 
L 35.890625 71.78125 
z
" id="DejaVuSans-23"/>
      <path id="DejaVuSans-20"/>
      <path d="M 37.109375 75.984375 
L 37.109375 68.5 
L 28.515625 68.5 
Q 23.6875 68.5 21.796875 66.546875 
Q 19.921875 64.59375 19.921875 59.515625 
L 19.921875 54.6875 
L 34.71875 54.6875 
L 34.71875 47.703125 
L 19.921875 47.703125 
L 19.921875 0 
L 10.890625 0 
L 10.890625 47.703125 
L 2.296875 47.703125 
L 2.296875 54.6875 
L 10.890625 54.6875 
L 10.890625 58.5 
Q 10.890625 67.625 15.140625 71.796875 
Q 19.390625 75.984375 28.609375 75.984375 
z
" id="DejaVuSans-66"/>
      <path d="M 4.890625 31.390625 
L 31.203125 31.390625 
L 31.203125 23.390625 
L 4.890625 23.390625 
z
" id="DejaVuSans-2d"/>
      <path d="M 56.203125 29.59375 
L 56.203125 25.203125 
L 14.890625 25.203125 
Q 15.484375 15.921875 20.484375 11.0625 
Q 25.484375 6.203125 34.421875 6.203125 
Q 39.59375 6.203125 44.453125 7.46875 
Q 49.3125 8.734375 54.109375 11.28125 
L 54.109375 2.78125 
Q 49.265625 0.734375 44.1875 -0.34375 
Q 39.109375 -1.421875 33.890625 -1.421875 
Q 20.796875 -1.421875 13.15625 6.1875 
Q 5.515625 13.8125 5.515625 26.8125 
Q 5.515625 40.234375 12.765625 48.109375 
Q 20.015625 56 32.328125 56 
Q 43.359375 56 49.78125 48.890625 
Q 56.203125 41.796875 56.203125 29.59375 
z
M 47.21875 32.234375 
Q 47.125 39.59375 43.09375 43.984375 
Q 39.0625 48.390625 32.421875 48.390625 
Q 24.90625 48.390625 20.390625 44.140625 
Q 15.875 39.890625 15.1875 32.171875 
z
" id="DejaVuSans-65"/>
      <path d="M 2.984375 54.6875 
L 12.5 54.6875 
L 29.59375 8.796875 
L 46.6875 54.6875 
L 56.203125 54.6875 
L 35.6875 0 
L 23.484375 0 
z
" id="DejaVuSans-76"/>
      <path d="M 34.28125 27.484375 
Q 23.390625 27.484375 19.1875 25 
Q 14.984375 22.515625 14.984375 16.5 
Q 14.984375 11.71875 18.140625 8.90625 
Q 21.296875 6.109375 26.703125 6.109375 
Q 34.1875 6.109375 38.703125 11.40625 
Q 43.21875 16.703125 43.21875 25.484375 
L 43.21875 27.484375 
z
M 52.203125 31.203125 
L 52.203125 0 
L 43.21875 0 
L 43.21875 8.296875 
Q 40.140625 3.328125 35.546875 0.953125 
Q 30.953125 -1.421875 24.3125 -1.421875 
Q 15.921875 -1.421875 10.953125 3.296875 
Q 6 8.015625 6 15.921875 
Q 6 25.140625 12.171875 29.828125 
Q 18.359375 34.515625 30.609375 34.515625 
L 43.21875 34.515625 
L 43.21875 35.40625 
Q 43.21875 41.609375 39.140625 45 
Q 35.0625 48.390625 27.6875 48.390625 
Q 23 48.390625 18.546875 47.265625 
Q 14.109375 46.140625 10.015625 43.890625 
L 10.015625 52.203125 
Q 14.9375 54.109375 19.578125 55.046875 
Q 24.21875 56 28.609375 56 
Q 40.484375 56 46.34375 49.84375 
Q 52.203125 43.703125 52.203125 31.203125 
z
" id="DejaVuSans-61"/>
      <path d="M 44.28125 53.078125 
L 44.28125 44.578125 
Q 40.484375 46.53125 36.375 47.5 
Q 32.28125 48.484375 27.875 48.484375 
Q 21.1875 48.484375 17.84375 46.4375 
Q 14.5 44.390625 14.5 40.28125 
Q 14.5 37.15625 16.890625 35.375 
Q 19.28125 33.59375 26.515625 31.984375 
L 29.59375 31.296875 
Q 39.15625 29.25 43.1875 25.515625 
Q 47.21875 21.78125 47.21875 15.09375 
Q 47.21875 7.46875 41.1875 3.015625 
Q 35.15625 -1.421875 24.609375 -1.421875 
Q 20.21875 -1.421875 15.453125 -0.5625 
Q 10.6875 0.296875 5.421875 2 
L 5.421875 11.28125 
Q 10.40625 8.6875 15.234375 7.390625 
Q 20.0625 6.109375 24.8125 6.109375 
Q 31.15625 6.109375 34.5625 8.28125 
Q 37.984375 10.453125 37.984375 14.40625 
Q 37.984375 18.0625 35.515625 20.015625 
Q 33.0625 21.96875 24.703125 23.78125 
L 21.578125 24.515625 
Q 13.234375 26.265625 9.515625 29.90625 
Q 5.8125 33.546875 5.8125 39.890625 
Q 5.8125 47.609375 11.28125 51.796875 
Q 16.75 56 26.8125 56 
Q 31.78125 56 36.171875 55.265625 
Q 40.578125 54.546875 44.28125 53.078125 
z
" id="DejaVuSans-73"/>
      <path d="M 25.390625 72.90625 
L 33.6875 72.90625 
L 8.296875 -9.28125 
L 0 -9.28125 
z
" id="DejaVuSans-2f"/>
      <path d="M 45.40625 46.390625 
L 45.40625 75.984375 
L 54.390625 75.984375 
L 54.390625 0 
L 45.40625 0 
L 45.40625 8.203125 
Q 42.578125 3.328125 38.25 0.953125 
Q 33.9375 -1.421875 27.875 -1.421875 
Q 17.96875 -1.421875 11.734375 6.484375 
Q 5.515625 14.40625 5.515625 27.296875 
Q 5.515625 40.1875 11.734375 48.09375 
Q 17.96875 56 27.875 56 
Q 33.9375 56 38.25 53.625 
Q 42.578125 51.265625 45.40625 46.390625 
z
M 14.796875 27.296875 
Q 14.796875 17.390625 18.875 11.75 
Q 22.953125 6.109375 30.078125 6.109375 
Q 37.203125 6.109375 41.296875 11.75 
Q 45.40625 17.390625 45.40625 27.296875 
Q 45.40625 37.203125 41.296875 42.84375 
Q 37.203125 48.484375 30.078125 48.484375 
Q 22.953125 48.484375 18.875 42.84375 
Q 14.796875 37.203125 14.796875 27.296875 
z
" id="DejaVuSans-64"/>
      <path d="M 9.421875 54.6875 
L 18.40625 54.6875 
L 18.40625 0 
L 9.421875 0 
z
M 9.421875 75.984375 
L 18.40625 75.984375 
L 18.40625 64.59375 
L 9.421875 64.59375 
z
" id="DejaVuSans-69"/>
      <path d="M 52 44.1875 
Q 55.375 50.25 60.0625 53.125 
Q 64.75 56 71.09375 56 
Q 79.640625 56 84.28125 50.015625 
Q 88.921875 44.046875 88.921875 33.015625 
L 88.921875 0 
L 79.890625 0 
L 79.890625 32.71875 
Q 79.890625 40.578125 77.09375 44.375 
Q 74.3125 48.1875 68.609375 48.1875 
Q 61.625 48.1875 57.5625 43.546875 
Q 53.515625 38.921875 53.515625 30.90625 
L 53.515625 0 
L 44.484375 0 
L 44.484375 32.71875 
Q 44.484375 40.625 41.703125 44.40625 
Q 38.921875 48.1875 33.109375 48.1875 
Q 26.21875 48.1875 22.15625 43.53125 
Q 18.109375 38.875 18.109375 30.90625 
L 18.109375 0 
L 9.078125 0 
L 9.078125 54.6875 
L 18.109375 54.6875 
L 18.109375 46.1875 
Q 21.1875 51.21875 25.484375 53.609375 
Q 29.78125 56 35.6875 56 
Q 41.65625 56 45.828125 52.96875 
Q 50 49.953125 52 44.1875 
z
" id="DejaVuSans-6d"/>
      <path d="M 54.890625 33.015625 
L 54.890625 0 
L 45.90625 0 
L 45.90625 32.71875 
Q 45.90625 40.484375 42.875 44.328125 
Q 39.84375 48.1875 33.796875 48.1875 
Q 26.515625 48.1875 22.3125 43.546875 
Q 18.109375 38.921875 18.109375 30.90625 
L 18.109375 0 
L 9.078125 0 
L 9.078125 54.6875 
L 18.109375 54.6875 
L 18.109375 46.1875 
Q 21.34375 51.125 25.703125 53.5625 
Q 30.078125 56 35.796875 56 
Q 45.21875 56 50.046875 50.171875 
Q 54.890625 44.34375 54.890625 33.015625 
z
" id="DejaVuSans-6e"/>
      <path d="M 8.015625 75.875 
L 15.828125 75.875 
Q 23.140625 64.359375 26.78125 53.3125 
Q 30.421875 42.28125 30.421875 31.390625 
Q 30.421875 20.453125 26.78125 9.375 
Q 23.140625 -1.703125 15.828125 -13.1875 
L 8.015625 -13.1875 
Q 14.5 -2 17.703125 9.0625 
Q 20.90625 20.125 20.90625 31.390625 
Q 20.90625 42.671875 17.703125 53.65625 
Q 14.5 64.65625 8.015625 75.875 
z
" id="DejaVuSans-29"/>
     </defs>
     <g transform="translate(73.803219 338.153594)scale(0.17 -0.17)">
      <use xlink:href="#DejaVuSans-6c"/>
      <use x="27.783203" xlink:href="#DejaVuSans-6f"/>
      <use x="88.964844" xlink:href="#DejaVuSans-67"/>
      <use x="152.441406" xlink:href="#DejaVuSans-31"/>
      <use x="216.064453" xlink:href="#DejaVuSans-30"/>
      <use x="279.6875" xlink:href="#DejaVuSans-28"/>
      <use x="318.701172" xlink:href="#DejaVuSans-23"/>
      <use x="402.490234" xlink:href="#DejaVuSans-20"/>
      <use x="434.277344" xlink:href="#DejaVuSans-66"/>
      <use x="469.404297" xlink:href="#DejaVuSans-2d"/>
      <use x="505.488281" xlink:href="#DejaVuSans-65"/>
      <use x="567.011719" xlink:href="#DejaVuSans-76"/>
      <use x="626.191406" xlink:href="#DejaVuSans-61"/>
      <use x="687.470703" xlink:href="#DejaVuSans-6c"/>
      <use x="715.253906" xlink:href="#DejaVuSans-73"/>
      <use x="767.353516" xlink:href="#DejaVuSans-20"/>
      <use x="799.140625" xlink:href="#DejaVuSans-2f"/>
      <use x="832.832031" xlink:href="#DejaVuSans-20"/>
      <use x="864.619141" xlink:href="#DejaVuSans-64"/>
      <use x="928.095703" xlink:href="#DejaVuSans-69"/>
      <use x="955.878906" xlink:href="#DejaVuSans-6d"/>
      <use x="1053.291016" xlink:href="#DejaVuSans-65"/>
      <use x="1114.814453" xlink:href="#DejaVuSans-6e"/>
      <use x="1178.193359" xlink:href="#DejaVuSans-73"/>
      <use x="1230.292969" xlink:href="#DejaVuSans-69"/>
      <use x="1258.076172" xlink:href="#DejaVuSans-6f"/>
      <use x="1319.257812" xlink:href="#DejaVuSans-6e"/>
      <use x="1382.636719" xlink:href="#DejaVuSans-29"/>
     </g>
    </g>
   </g>
   <g id="matplotlib.axis_2">
    <g id="ytick_1">
     <g id="line2d_29">
      <path clip-path="url(#p2a99eb1e93)" d="M 56.12 294.88 
L 333.168 294.88 
" style="fill:none;stroke:#b0b0b0;stroke-linecap:square;stroke-width:0.8;"/>
     </g>
     <g id="line2d_30">
      <defs>
       <path d="M 0 0 
L -3.5 0 
" id="m7a0ede5bae" style="stroke:#000000;stroke-width:0.8;"/>
      </defs>
      <g>
       <use style="stroke:#000000;stroke-width:0.8;" x="56.12" xlink:href="#m7a0ede5bae" y="294.88"/>
      </g>
     </g>
     <g id="text_6">
      <!-- 0.0 -->
      <defs>
       <path d="M 10.6875 12.40625 
L 21 12.40625 
L 21 0 
L 10.6875 0 
z
" id="DejaVuSans-2e"/>
      </defs>
      <g transform="translate(23.675 300.95875)scale(0.16 -0.16)">
       <use xlink:href="#DejaVuSans-30"/>
       <use x="63.623047" xlink:href="#DejaVuSans-2e"/>
       <use x="95.410156" xlink:href="#DejaVuSans-30"/>
      </g>
     </g>
    </g>
    <g id="ytick_2">
     <g id="line2d_31">
      <path clip-path="url(#p2a99eb1e93)" d="M 56.12 241.406733 
L 333.168 241.406733 
" style="fill:none;stroke:#b0b0b0;stroke-linecap:square;stroke-width:0.8;"/>
     </g>
     <g id="line2d_32">
      <g>
       <use style="stroke:#000000;stroke-width:0.8;" x="56.12" xlink:href="#m7a0ede5bae" y="241.406733"/>
      </g>
     </g>
     <g id="text_7">
      <!-- 0.2 -->
      <g transform="translate(23.675 247.485483)scale(0.16 -0.16)">
       <use xlink:href="#DejaVuSans-30"/>
       <use x="63.623047" xlink:href="#DejaVuSans-2e"/>
       <use x="95.410156" xlink:href="#DejaVuSans-32"/>
      </g>
     </g>
    </g>
    <g id="ytick_3">
     <g id="line2d_33">
      <path clip-path="url(#p2a99eb1e93)" d="M 56.12 187.933465 
L 333.168 187.933465 
" style="fill:none;stroke:#b0b0b0;stroke-linecap:square;stroke-width:0.8;"/>
     </g>
     <g id="line2d_34">
      <g>
       <use style="stroke:#000000;stroke-width:0.8;" x="56.12" xlink:href="#m7a0ede5bae" y="187.933465"/>
      </g>
     </g>
     <g id="text_8">
      <!-- 0.4 -->
      <g transform="translate(23.675 194.012215)scale(0.16 -0.16)">
       <use xlink:href="#DejaVuSans-30"/>
       <use x="63.623047" xlink:href="#DejaVuSans-2e"/>
       <use x="95.410156" xlink:href="#DejaVuSans-34"/>
      </g>
     </g>
    </g>
    <g id="ytick_4">
     <g id="line2d_35">
      <path clip-path="url(#p2a99eb1e93)" d="M 56.12 134.460198 
L 333.168 134.460198 
" style="fill:none;stroke:#b0b0b0;stroke-linecap:square;stroke-width:0.8;"/>
     </g>
     <g id="line2d_36">
      <g>
       <use style="stroke:#000000;stroke-width:0.8;" x="56.12" xlink:href="#m7a0ede5bae" y="134.460198"/>
      </g>
     </g>
     <g id="text_9">
      <!-- 0.6 -->
      <g transform="translate(23.675 140.538948)scale(0.16 -0.16)">
       <use xlink:href="#DejaVuSans-30"/>
       <use x="63.623047" xlink:href="#DejaVuSans-2e"/>
       <use x="95.410156" xlink:href="#DejaVuSans-36"/>
      </g>
     </g>
    </g>
    <g id="ytick_5">
     <g id="line2d_37">
      <path clip-path="url(#p2a99eb1e93)" d="M 56.12 80.986931 
L 333.168 80.986931 
" style="fill:none;stroke:#b0b0b0;stroke-linecap:square;stroke-width:0.8;"/>
     </g>
     <g id="line2d_38">
      <g>
       <use style="stroke:#000000;stroke-width:0.8;" x="56.12" xlink:href="#m7a0ede5bae" y="80.986931"/>
      </g>
     </g>
     <g id="text_10">
      <!-- 0.8 -->
      <defs>
       <path d="M 31.78125 34.625 
Q 24.75 34.625 20.71875 30.859375 
Q 16.703125 27.09375 16.703125 20.515625 
Q 16.703125 13.921875 20.71875 10.15625 
Q 24.75 6.390625 31.78125 6.390625 
Q 38.8125 6.390625 42.859375 10.171875 
Q 46.921875 13.96875 46.921875 20.515625 
Q 46.921875 27.09375 42.890625 30.859375 
Q 38.875 34.625 31.78125 34.625 
z
M 21.921875 38.8125 
Q 15.578125 40.375 12.03125 44.71875 
Q 8.5 49.078125 8.5 55.328125 
Q 8.5 64.0625 14.71875 69.140625 
Q 20.953125 74.21875 31.78125 74.21875 
Q 42.671875 74.21875 48.875 69.140625 
Q 55.078125 64.0625 55.078125 55.328125 
Q 55.078125 49.078125 51.53125 44.71875 
Q 48 40.375 41.703125 38.8125 
Q 48.828125 37.15625 52.796875 32.3125 
Q 56.78125 27.484375 56.78125 20.515625 
Q 56.78125 9.90625 50.3125 4.234375 
Q 43.84375 -1.421875 31.78125 -1.421875 
Q 19.734375 -1.421875 13.25 4.234375 
Q 6.78125 9.90625 6.78125 20.515625 
Q 6.78125 27.484375 10.78125 32.3125 
Q 14.796875 37.15625 21.921875 38.8125 
z
M 18.3125 54.390625 
Q 18.3125 48.734375 21.84375 45.5625 
Q 25.390625 42.390625 31.78125 42.390625 
Q 38.140625 42.390625 41.71875 45.5625 
Q 45.3125 48.734375 45.3125 54.390625 
Q 45.3125 60.0625 41.71875 63.234375 
Q 38.140625 66.40625 31.78125 66.40625 
Q 25.390625 66.40625 21.84375 63.234375 
Q 18.3125 60.0625 18.3125 54.390625 
z
" id="DejaVuSans-38"/>
      </defs>
      <g transform="translate(23.675 87.065681)scale(0.16 -0.16)">
       <use xlink:href="#DejaVuSans-30"/>
       <use x="63.623047" xlink:href="#DejaVuSans-2e"/>
       <use x="95.410156" xlink:href="#DejaVuSans-38"/>
      </g>
     </g>
    </g>
    <g id="ytick_6">
     <g id="line2d_39">
      <path clip-path="url(#p2a99eb1e93)" d="M 56.12 27.513663 
L 333.168 27.513663 
" style="fill:none;stroke:#b0b0b0;stroke-linecap:square;stroke-width:0.8;"/>
     </g>
     <g id="line2d_40">
      <g>
       <use style="stroke:#000000;stroke-width:0.8;" x="56.12" xlink:href="#m7a0ede5bae" y="27.513663"/>
      </g>
     </g>
     <g id="text_11">
      <!-- 1.0 -->
      <g transform="translate(23.675 33.592413)scale(0.16 -0.16)">
       <use xlink:href="#DejaVuSans-31"/>
       <use x="63.623047" xlink:href="#DejaVuSans-2e"/>
       <use x="95.410156" xlink:href="#DejaVuSans-30"/>
      </g>
     </g>
    </g>
    <g id="text_12">
     <!-- Fraction of function,target pairs -->
     <defs>
      <path d="M 9.8125 72.90625 
L 51.703125 72.90625 
L 51.703125 64.59375 
L 19.671875 64.59375 
L 19.671875 43.109375 
L 48.578125 43.109375 
L 48.578125 34.8125 
L 19.671875 34.8125 
L 19.671875 0 
L 9.8125 0 
z
" id="DejaVuSans-46"/>
      <path d="M 41.109375 46.296875 
Q 39.59375 47.171875 37.8125 47.578125 
Q 36.03125 48 33.890625 48 
Q 26.265625 48 22.1875 43.046875 
Q 18.109375 38.09375 18.109375 28.8125 
L 18.109375 0 
L 9.078125 0 
L 9.078125 54.6875 
L 18.109375 54.6875 
L 18.109375 46.1875 
Q 20.953125 51.171875 25.484375 53.578125 
Q 30.03125 56 36.53125 56 
Q 37.453125 56 38.578125 55.875 
Q 39.703125 55.765625 41.0625 55.515625 
z
" id="DejaVuSans-72"/>
      <path d="M 48.78125 52.59375 
L 48.78125 44.1875 
Q 44.96875 46.296875 41.140625 47.34375 
Q 37.3125 48.390625 33.40625 48.390625 
Q 24.65625 48.390625 19.8125 42.84375 
Q 14.984375 37.3125 14.984375 27.296875 
Q 14.984375 17.28125 19.8125 11.734375 
Q 24.65625 6.203125 33.40625 6.203125 
Q 37.3125 6.203125 41.140625 7.25 
Q 44.96875 8.296875 48.78125 10.40625 
L 48.78125 2.09375 
Q 45.015625 0.34375 40.984375 -0.53125 
Q 36.96875 -1.421875 32.421875 -1.421875 
Q 20.0625 -1.421875 12.78125 6.34375 
Q 5.515625 14.109375 5.515625 27.296875 
Q 5.515625 40.671875 12.859375 48.328125 
Q 20.21875 56 33.015625 56 
Q 37.15625 56 41.109375 55.140625 
Q 45.0625 54.296875 48.78125 52.59375 
z
" id="DejaVuSans-63"/>
      <path d="M 18.3125 70.21875 
L 18.3125 54.6875 
L 36.8125 54.6875 
L 36.8125 47.703125 
L 18.3125 47.703125 
L 18.3125 18.015625 
Q 18.3125 11.328125 20.140625 9.421875 
Q 21.96875 7.515625 27.59375 7.515625 
L 36.8125 7.515625 
L 36.8125 0 
L 27.59375 0 
Q 17.1875 0 13.234375 3.875 
Q 9.28125 7.765625 9.28125 18.015625 
L 9.28125 47.703125 
L 2.6875 47.703125 
L 2.6875 54.6875 
L 9.28125 54.6875 
L 9.28125 70.21875 
z
" id="DejaVuSans-74"/>
      <path d="M 8.5 21.578125 
L 8.5 54.6875 
L 17.484375 54.6875 
L 17.484375 21.921875 
Q 17.484375 14.15625 20.5 10.265625 
Q 23.53125 6.390625 29.59375 6.390625 
Q 36.859375 6.390625 41.078125 11.03125 
Q 45.3125 15.671875 45.3125 23.6875 
L 45.3125 54.6875 
L 54.296875 54.6875 
L 54.296875 0 
L 45.3125 0 
L 45.3125 8.40625 
Q 42.046875 3.421875 37.71875 1 
Q 33.40625 -1.421875 27.6875 -1.421875 
Q 18.265625 -1.421875 13.375 4.4375 
Q 8.5 10.296875 8.5 21.578125 
z
M 31.109375 56 
z
" id="DejaVuSans-75"/>
      <path d="M 11.71875 12.40625 
L 22.015625 12.40625 
L 22.015625 4 
L 14.015625 -11.625 
L 7.71875 -11.625 
L 11.71875 4 
z
" id="DejaVuSans-2c"/>
      <path d="M 18.109375 8.203125 
L 18.109375 -20.796875 
L 9.078125 -20.796875 
L 9.078125 54.6875 
L 18.109375 54.6875 
L 18.109375 46.390625 
Q 20.953125 51.265625 25.265625 53.625 
Q 29.59375 56 35.59375 56 
Q 45.5625 56 51.78125 48.09375 
Q 58.015625 40.1875 58.015625 27.296875 
Q 58.015625 14.40625 51.78125 6.484375 
Q 45.5625 -1.421875 35.59375 -1.421875 
Q 29.59375 -1.421875 25.265625 0.953125 
Q 20.953125 3.328125 18.109375 8.203125 
z
M 48.6875 27.296875 
Q 48.6875 37.203125 44.609375 42.84375 
Q 40.53125 48.484375 33.40625 48.484375 
Q 26.265625 48.484375 22.1875 42.84375 
Q 18.109375 37.203125 18.109375 27.296875 
Q 18.109375 17.390625 22.1875 11.75 
Q 26.265625 6.109375 33.40625 6.109375 
Q 40.53125 6.109375 44.609375 11.75 
Q 48.6875 17.390625 48.6875 27.296875 
z
" id="DejaVuSans-70"/>
     </defs>
     <g transform="translate(16.139531 294.999375)rotate(-90)scale(0.17 -0.17)">
      <use xlink:href="#DejaVuSans-46"/>
      <use x="57.410156" xlink:href="#DejaVuSans-72"/>
      <use x="98.523438" xlink:href="#DejaVuSans-61"/>
      <use x="159.802734" xlink:href="#DejaVuSans-63"/>
      <use x="214.783203" xlink:href="#DejaVuSans-74"/>
      <use x="253.992188" xlink:href="#DejaVuSans-69"/>
      <use x="281.775391" xlink:href="#DejaVuSans-6f"/>
      <use x="342.957031" xlink:href="#DejaVuSans-6e"/>
      <use x="406.335938" xlink:href="#DejaVuSans-20"/>
      <use x="438.123047" xlink:href="#DejaVuSans-6f"/>
      <use x="499.304688" xlink:href="#DejaVuSans-66"/>
      <use x="534.509766" xlink:href="#DejaVuSans-20"/>
      <use x="566.296875" xlink:href="#DejaVuSans-66"/>
      <use x="601.501953" xlink:href="#DejaVuSans-75"/>
      <use x="664.880859" xlink:href="#DejaVuSans-6e"/>
      <use x="728.259766" xlink:href="#DejaVuSans-63"/>
      <use x="783.240234" xlink:href="#DejaVuSans-74"/>
      <use x="822.449219" xlink:href="#DejaVuSans-69"/>
      <use x="850.232422" xlink:href="#DejaVuSans-6f"/>
      <use x="911.414062" xlink:href="#DejaVuSans-6e"/>
      <use x="974.792969" xlink:href="#DejaVuSans-2c"/>
      <use x="1006.580078" xlink:href="#DejaVuSans-74"/>
      <use x="1045.789062" xlink:href="#DejaVuSans-61"/>
      <use x="1107.068359" xlink:href="#DejaVuSans-72"/>
      <use x="1148.166016" xlink:href="#DejaVuSans-67"/>
      <use x="1211.642578" xlink:href="#DejaVuSans-65"/>
      <use x="1273.166016" xlink:href="#DejaVuSans-74"/>
      <use x="1312.375" xlink:href="#DejaVuSans-20"/>
      <use x="1344.162109" xlink:href="#DejaVuSans-70"/>
      <use x="1407.638672" xlink:href="#DejaVuSans-61"/>
      <use x="1468.917969" xlink:href="#DejaVuSans-69"/>
      <use x="1496.701172" xlink:href="#DejaVuSans-72"/>
      <use x="1537.814453" xlink:href="#DejaVuSans-73"/>
     </g>
    </g>
   </g>
   <g id="line2d_41">
    <defs>
     <path d="M 0 1.5 
C 0.397805 1.5 0.77937 1.341951 1.06066 1.06066 
C 1.341951 0.77937 1.5 0.397805 1.5 0 
C 1.5 -0.397805 1.341951 -0.77937 1.06066 -1.06066 
C 0.77937 -1.341951 0.397805 -1.5 0 -1.5 
C -0.397805 -1.5 -0.77937 -1.341951 -1.06066 -1.06066 
C -1.341951 -0.77937 -1.5 -0.397805 -1.5 0 
C -1.5 0.397805 -1.341951 0.77937 -1.06066 1.06066 
C -0.77937 1.341951 -0.397805 1.5 0 1.5 
z
" id="m88c469f5e5" style="stroke:#f5deb3;"/>
    </defs>
    <g>
     <use style="fill:#f5deb3;stroke:#f5deb3;" x="169.42892" xlink:href="#m88c469f5e5" y="27.513663"/>
     <use style="fill:#f5deb3;stroke:#f5deb3;" x="169.42892" xlink:href="#m88c469f5e5" y="27.513663"/>
    </g>
   </g>
   <g id="line2d_42">
    <defs>
     <path d="M 0 1.5 
C 0.397805 1.5 0.77937 1.341951 1.06066 1.06066 
C 1.341951 0.77937 1.5 0.397805 1.5 0 
C 1.5 -0.397805 1.341951 -0.77937 1.06066 -1.06066 
C 0.77937 -1.341951 0.397805 -1.5 0 -1.5 
C -0.397805 -1.5 -0.77937 -1.341951 -1.06066 -1.06066 
C -1.341951 -0.77937 -1.5 -0.397805 -1.5 0 
C -1.5 0.397805 -1.341951 0.77937 -1.06066 1.06066 
C -0.77937 1.341951 -0.397805 1.5 0 1.5 
z
" id="m90d3bc81e8" style="stroke:#000080;"/>
    </defs>
    <g>
     <use style="fill:#000080;stroke:#000080;" x="204.115058" xlink:href="#m90d3bc81e8" y="27.513663"/>
     <use style="fill:#000080;stroke:#000080;" x="204.115058" xlink:href="#m90d3bc81e8" y="27.513663"/>
    </g>
   </g>
   <g id="line2d_43">
    <path d="M 141.060069 294.88 
L 141.060069 294.355752 
L 141.544287 294.355752 
L 141.544287 292.258761 
L 141.72241 292.258761 
L 141.72241 291.734514 
L 142.015238 291.734514 
L 142.015238 290.686018 
L 142.473629 290.686018 
L 142.473629 285.967789 
L 142.631221 285.967789 
L 142.631221 285.443541 
L 142.837275 285.443541 
L 142.920112 278.628321 
L 143.35529 278.628321 
L 143.35529 274.434339 
L 143.53164 274.434339 
L 143.53164 273.910091 
L 143.779723 273.910091 
L 143.779723 271.8131 
L 144.193927 271.8131 
L 144.193927 266.046375 
L 144.598384 266.046375 
L 144.598384 264.473632 
L 144.856267 264.473632 
L 144.856267 263.949385 
L 144.993542 263.949385 
L 144.993542 259.231155 
L 145.37982 259.231155 
L 145.37982 257.658412 
L 145.757607 257.658412 
L 145.757607 254.512926 
L 146.127269 254.512926 
L 146.127269 253.46443 
L 146.489148 253.46443 
L 146.489148 251.367439 
L 146.843566 251.367439 
L 146.843566 248.221953 
L 147.01373 248.221953 
L 147.01373 247.697705 
L 147.190823 247.697705 
L 147.190823 246.124962 
L 147.531203 246.124962 
L 147.531203 244.027971 
L 147.782136 244.027971 
L 147.864973 242.455228 
L 148.192385 242.455228 
L 148.192385 241.93098 
L 148.513678 241.93098 
L 148.513678 240.358237 
L 148.829074 240.358237 
L 148.829074 239.83399 
L 149.615544 239.83399 
L 149.615544 239.309742 
L 149.741959 239.309742 
L 149.741959 238.785494 
L 150.324681 238.785494 
L 150.324681 238.261246 
L 150.608797 238.261246 
L 150.608797 237.736999 
L 168.760896 237.736999 
L 168.760896 237.212751 
L 169.900826 237.212751 
L 169.900826 236.688503 
L 170.355656 236.688503 
L 170.355656 236.164255 
L 171.611676 236.164255 
L 171.611676 235.640008 
L 172.265416 235.640008 
L 172.265416 235.11576 
L 172.483838 235.11576 
L 172.483838 234.591512 
L 172.814099 234.591512 
L 172.814099 234.067265 
L 173.083914 234.067265 
L 173.083914 233.543017 
L 173.199753 233.543017 
L 173.199753 233.018769 
L 174.089503 233.018769 
L 174.089503 232.494521 
L 174.372013 232.494521 
L 174.424967 231.446026 
L 174.579362 231.446026 
L 174.579362 230.921778 
L 175.529008 230.921778 
L 175.529008 230.397531 
L 175.672199 230.397531 
L 175.672199 229.873283 
L 175.983244 229.873283 
L 175.992899 228.824787 
L 176.491546 228.824787 
L 176.491546 228.30054 
L 176.722061 228.30054 
L 176.722061 227.776292 
L 177.233242 227.776292 
L 177.247456 226.727797 
L 177.983701 226.727797 
L 178.004464 225.679301 
L 178.34664 225.679301 
L 178.34664 225.155053 
L 178.72336 225.155053 
L 178.804145 224.106558 
L 178.940207 224.106558 
L 178.940207 223.58231 
L 179.367184 223.58231 
L 179.367184 223.058063 
L 179.681571 223.058063 
L 179.681571 222.533815 
L 179.794131 222.533815 
L 179.79671 221.485319 
L 179.941795 221.485319 
L 179.941795 220.961072 
L 180.092638 220.961072 
L 180.202546 218.864081 
L 180.30675 218.864081 
L 180.30675 218.339833 
L 180.726526 218.339833 
L 180.791752 217.291338 
L 180.927501 217.291338 
L 180.997983 216.242842 
L 181.460027 216.242842 
L 181.460027 215.718594 
L 181.931627 215.718594 
L 182.01569 214.670099 
L 182.179226 214.670099 
L 182.283301 212.573108 
L 182.455925 212.573108 
L 182.455925 212.04886 
L 182.638857 212.04886 
L 182.638857 211.524613 
L 182.752684 211.524613 
L 182.786307 210.476117 
L 183.301844 210.476117 
L 183.301844 209.95187 
L 183.602561 209.95187 
L 183.608243 208.903374 
L 184.002908 208.903374 
L 184.016027 207.854879 
L 184.120615 207.854879 
L 184.195147 206.806383 
L 184.338795 206.806383 
L 184.347207 205.757888 
L 184.69105 205.757888 
L 184.69105 205.23364 
L 185.0291 205.23364 
L 185.118735 203.136649 
L 185.189542 203.136649 
L 185.26428 201.563906 
L 185.33636 201.563906 
L 185.33636 201.039658 
L 185.505538 201.039658 
L 185.505538 200.515411 
L 185.805834 200.515411 
L 185.805834 199.991163 
L 185.924498 199.991163 
L 185.925852 198.942667 
L 186.453393 198.942667 
L 186.45777 197.894172 
L 186.6033 197.894172 
L 186.692448 196.845677 
L 186.744597 196.845677 
L 186.848422 195.797181 
L 186.896262 195.797181 
L 186.896262 195.272933 
L 187.010199 195.272933 
L 187.010199 194.748686 
L 187.133485 194.748686 
L 187.133485 194.224438 
L 187.325511 194.224438 
L 187.325511 193.70019 
L 187.513358 193.70019 
L 187.576613 192.651695 
L 187.642904 192.651695 
L 187.709348 191.603199 
L 187.761345 191.603199 
L 187.805095 190.554704 
L 187.8826 190.554704 
L 187.941704 188.981961 
L 187.999805 188.981961 
L 187.999805 188.457713 
L 188.288583 188.457713 
L 188.31806 187.409218 
L 188.400717 187.409218 
L 188.473253 185.836474 
L 188.527261 185.836474 
L 188.628215 184.787979 
L 188.66212 184.787979 
L 188.761139 183.215236 
L 188.782557 183.215236 
L 188.782557 182.690988 
L 188.939313 182.690988 
L 188.962023 181.642493 
L 189.095403 181.642493 
L 189.140383 180.06975 
L 189.233342 180.06975 
L 189.260871 179.021254 
L 189.350595 179.021254 
L 189.448679 176.924263 
L 189.538893 176.924263 
L 189.538893 176.400016 
L 189.759128 176.400016 
L 189.829759 175.35152 
L 189.88075 175.35152 
L 189.94767 173.778777 
L 189.994039 173.778777 
L 190.000806 172.730281 
L 190.153235 172.730281 
L 190.219457 171.157538 
L 190.322507 171.157538 
L 190.415561 169.584795 
L 190.435361 169.584795 
L 190.498431 168.5363 
L 190.572295 168.5363 
L 190.647558 167.487804 
L 190.746376 167.487804 
L 190.787922 166.439309 
L 190.904867 166.439309 
L 191.009273 164.342318 
L 191.018337 164.342318 
L 191.018337 163.81807 
L 191.132396 163.81807 
L 191.132396 163.293823 
L 191.257954 163.293823 
L 191.353004 160.672584 
L 191.386871 160.672584 
L 191.473371 159.624089 
L 191.542194 159.624089 
L 191.620143 157.527098 
L 191.658339 157.527098 
L 191.698708 156.478602 
L 191.802584 156.478602 
L 191.903287 154.381611 
L 192.10483 154.381611 
L 192.206288 152.28462 
L 192.221002 152.28462 
L 192.233201 151.236125 
L 192.384814 151.236125 
L 192.470148 150.18763 
L 192.603176 150.18763 
L 192.712998 146.517896 
L 192.803984 146.517896 
L 192.861661 144.945152 
L 192.965954 144.945152 
L 192.967153 143.372409 
L 193.108592 143.372409 
L 193.20697 142.323914 
L 193.222623 142.323914 
L 193.31037 138.65418 
L 193.438824 138.65418 
L 193.510098 137.605684 
L 193.581944 137.605684 
L 193.629868 136.032941 
L 193.764834 136.032941 
L 193.851571 133.411703 
L 193.909247 133.411703 
L 194.000339 131.314712 
L 194.141676 131.314712 
L 194.238228 130.266216 
L 194.283248 130.266216 
L 194.322614 128.169225 
L 194.396389 128.169225 
L 194.396389 127.644978 
L 194.522207 127.644978 
L 194.628895 126.596482 
L 194.675618 126.596482 
L 194.764907 123.975244 
L 194.791065 123.975244 
L 194.850513 122.926748 
L 194.9389 122.926748 
L 194.984523 121.878253 
L 195.061619 121.878253 
L 195.096067 120.30551 
L 195.233699 120.30551 
L 195.315177 118.208519 
L 195.364505 118.208519 
L 195.450814 116.111528 
L 195.507768 116.111528 
L 195.556805 114.014537 
L 195.737799 114.014537 
L 195.834435 109.820555 
L 195.892662 109.820555 
L 195.97058 108.77206 
L 196.031858 108.77206 
L 196.115636 106.150821 
L 196.159986 106.150821 
L 196.264426 104.05383 
L 196.292845 104.05383 
L 196.401638 101.432592 
L 196.453086 101.432592 
L 196.484614 99.859849 
L 196.638245 99.859849 
L 196.703945 96.714362 
L 196.802505 96.714362 
L 196.892637 93.568876 
L 196.927891 93.568876 
L 197.029201 90.947637 
L 197.109916 90.947637 
L 197.208991 89.374894 
L 197.232619 89.374894 
L 197.337964 86.229408 
L 197.393175 86.229408 
L 197.458133 84.132417 
L 197.51135 84.132417 
L 197.604714 82.035426 
L 197.6342 82.035426 
L 197.736438 78.88994 
L 197.772724 78.88994 
L 197.869414 75.744454 
L 197.969595 75.744454 
L 198.074762 73.647463 
L 198.139639 73.647463 
L 198.234733 70.501976 
L 198.301427 70.501976 
L 198.357356 69.453481 
L 198.427721 69.453481 
L 198.522757 68.404985 
L 198.54638 68.404985 
L 198.637318 66.307995 
L 198.772936 66.307995 
L 198.85971 64.735251 
L 198.92 64.735251 
L 199.001397 61.589765 
L 199.07317 61.589765 
L 199.140461 60.017022 
L 199.1979 60.017022 
L 199.307856 57.395783 
L 199.311378 57.395783 
L 199.311378 56.871536 
L 199.494964 56.871536 
L 199.572056 55.82304 
L 199.636613 55.82304 
L 199.70518 53.726049 
L 199.783151 53.726049 
L 199.894044 52.153306 
L 199.97276 52.153306 
L 199.97276 51.629058 
L 200.0864 51.629058 
L 200.180595 50.580563 
L 200.207357 50.580563 
L 200.309497 49.00782 
L 200.385559 49.00782 
L 200.385559 48.483572 
L 200.762804 48.483572 
L 200.815837 47.435077 
L 200.991441 47.435077 
L 201.09128 45.862334 
L 201.114984 45.862334 
L 201.176238 44.28959 
L 201.31746 44.28959 
L 201.31746 43.765343 
L 201.506827 43.765343 
L 201.5776 42.192599 
L 201.67374 42.192599 
L 201.67374 41.668352 
L 201.831178 41.668352 
L 201.921465 40.095609 
L 201.947961 40.095609 
L 202.050361 39.047113 
L 202.075073 39.047113 
L 202.185661 36.950122 
L 202.27533 36.950122 
L 202.385507 35.377379 
L 202.446375 35.377379 
L 202.453796 34.328884 
L 202.563696 34.328884 
L 202.601884 33.280388 
L 202.724437 33.280388 
L 202.792579 31.707645 
L 202.981683 31.707645 
L 202.981683 31.183397 
L 203.350979 31.183397 
L 203.350979 30.65915 
L 203.482468 30.65915 
L 203.482468 30.134902 
L 203.626179 30.134902 
L 203.626179 29.610654 
L 203.766781 29.610654 
L 203.766781 29.086407 
L 203.896567 29.086407 
L 203.996856 28.037911 
L 204.115058 28.037911 
L 204.115058 27.513663 
L 333.168 27.513663 
L 333.168 27.513663 
" style="fill:none;stroke:#000080;stroke-linecap:square;stroke-width:1.5;"/>
   </g>
   <g id="line2d_44">
    <defs>
     <path d="M 0 6 
C 1.591219 6 3.117479 5.367802 4.242641 4.242641 
C 5.367802 3.117479 6 1.591219 6 0 
C 6 -1.591219 5.367802 -3.117479 4.242641 -4.242641 
C 3.117479 -5.367802 1.591219 -6 0 -6 
C -1.591219 -6 -3.117479 -5.367802 -4.242641 -4.242641 
C -5.367802 -3.117479 -6 -1.591219 -6 0 
C -6 1.591219 -5.367802 3.117479 -4.242641 4.242641 
C -3.117479 5.367802 -1.591219 6 0 6 
z
" id="m99f39eaf3b" style="stroke:#000080;stroke-width:1.5;"/>
    </defs>
    <g>
     <use style="fill:none;stroke:#000080;stroke-width:1.5;" x="180.092638" xlink:href="#m99f39eaf3b" y="220.961072"/>
     <use style="fill:none;stroke:#000080;stroke-width:1.5;" x="198.427721" xlink:href="#m99f39eaf3b" y="68.929233"/>
     <use style="fill:none;stroke:#000080;stroke-width:1.5;" x="204.115058" xlink:href="#m99f39eaf3b" y="28.037911"/>
     <use style="fill:none;stroke:#000080;stroke-width:1.5;" x="204.115058" xlink:href="#m99f39eaf3b" y="27.513663"/>
     <use style="fill:none;stroke:#000080;stroke-width:1.5;" x="333.168" xlink:href="#m99f39eaf3b" y="27.513663"/>
    </g>
   </g>
   <g id="line2d_45">
    <path style="fill:none;stroke:#000080;stroke-linecap:square;stroke-width:1.5;"/>
    <g/>
   </g>
   <g id="line2d_46">
    <defs>
     <path d="M 0 1.5 
C 0.397805 1.5 0.77937 1.341951 1.06066 1.06066 
C 1.341951 0.77937 1.5 0.397805 1.5 0 
C 1.5 -0.397805 1.341951 -0.77937 1.06066 -1.06066 
C 0.77937 -1.341951 0.397805 -1.5 0 -1.5 
C -0.397805 -1.5 -0.77937 -1.341951 -1.06066 -1.06066 
C -1.341951 -0.77937 -1.5 -0.397805 -1.5 0 
C -1.5 0.397805 -1.341951 0.77937 -1.06066 1.06066 
C -0.77937 1.341951 -0.397805 1.5 0 1.5 
z
" id="m3da96e2826" style="stroke:#ff00ff;"/>
    </defs>
    <g>
     <use style="fill:#ff00ff;stroke:#ff00ff;" x="194.289908" xlink:href="#m3da96e2826" y="27.513663"/>
     <use style="fill:#ff00ff;stroke:#ff00ff;" x="194.289908" xlink:href="#m3da96e2826" y="27.513663"/>
    </g>
   </g>
   <g id="line2d_47">
    <path d="M 154.62094 294.88 
L 154.62094 294.355752 
L 154.776419 294.355752 
L 154.850883 293.307257 
L 154.93872 293.307257 
L 154.93872 292.783009 
L 155.110349 292.783009 
L 155.110349 292.258761 
L 155.242663 292.258761 
L 155.242663 291.734514 
L 155.459178 291.734514 
L 155.530748 289.637523 
L 155.586208 289.637523 
L 155.609922 288.589027 
L 155.730618 288.589027 
L 155.827088 287.016284 
L 155.972075 287.016284 
L 156.031271 285.967789 
L 156.138844 285.967789 
L 156.138844 285.443541 
L 156.273638 285.443541 
L 156.329281 284.395046 
L 156.492636 284.395046 
L 156.562529 283.34655 
L 156.612279 283.34655 
L 156.721225 282.298055 
L 156.74589 282.298055 
L 156.777901 280.201064 
L 156.863789 280.201064 
L 156.94925 277.579825 
L 156.978453 277.579825 
L 156.978453 277.055578 
L 157.104431 277.055578 
L 157.198312 276.007082 
L 157.26779 276.007082 
L 157.327461 273.910091 
L 157.545281 273.910091 
L 157.549986 272.861596 
L 157.706854 272.861596 
L 157.760375 271.288853 
L 157.859993 271.288853 
L 157.936054 269.716109 
L 158.034662 269.716109 
L 158.11906 267.619119 
L 158.225674 267.619119 
L 158.331631 264.473632 
L 158.401161 264.473632 
L 158.461492 262.900889 
L 158.566009 262.900889 
L 158.592593 261.328146 
L 158.687516 261.328146 
L 158.773157 260.279651 
L 158.838746 260.279651 
L 158.934492 257.658412 
L 159.012436 257.658412 
L 159.018915 256.609917 
L 159.150135 256.609917 
L 159.150135 256.085669 
L 159.344046 256.085669 
L 159.449666 252.940182 
L 159.519022 252.940182 
L 159.615235 251.891687 
L 159.633996 251.891687 
L 159.686004 250.318944 
L 159.803998 250.318944 
L 159.906838 247.173458 
L 160.049788 247.173458 
L 160.143083 245.076467 
L 160.197609 245.076467 
L 160.306143 243.503724 
L 160.312153 243.503724 
L 160.312153 242.979476 
L 160.443837 242.979476 
L 160.538977 239.83399 
L 160.745278 239.83399 
L 160.760896 238.785494 
L 160.931754 238.785494 
L 161.008859 237.212751 
L 161.141058 237.212751 
L 161.232427 235.640008 
L 161.338413 235.640008 
L 161.359155 234.591512 
L 161.458745 234.591512 
L 161.458745 234.067265 
L 161.637678 234.067265 
L 161.739359 231.970274 
L 161.884365 231.970274 
L 161.977331 230.397531 
L 162.026346 230.397531 
L 162.026346 229.873283 
L 162.154572 229.873283 
L 162.237141 228.30054 
L 162.297916 228.30054 
L 162.385128 226.727797 
L 162.470133 226.727797 
L 162.549445 224.630806 
L 162.586332 224.630806 
L 162.65987 223.58231 
L 162.764382 223.58231 
L 162.764382 223.058063 
L 162.933729 223.058063 
L 163.026335 221.485319 
L 163.062214 221.485319 
L 163.062214 220.961072 
L 163.184663 220.961072 
L 163.294462 219.912576 
L 163.354974 219.912576 
L 163.354974 219.388328 
L 163.510316 219.388328 
L 163.550178 217.815585 
L 163.632927 217.815585 
L 163.674153 216.76709 
L 163.759587 216.76709 
L 163.839705 215.718594 
L 163.906457 215.718594 
L 163.981042 214.670099 
L 164.225221 214.670099 
L 164.274598 213.621604 
L 164.371346 213.621604 
L 164.371346 213.097356 
L 164.619437 213.097356 
L 164.684787 212.04886 
L 165.062642 212.04886 
L 165.142974 211.000365 
L 165.320488 211.000365 
L 165.320488 210.476117 
L 165.49915 210.476117 
L 165.598101 209.427622 
L 165.846644 209.427622 
L 165.846644 208.903374 
L 166.198632 208.903374 
L 166.198632 208.379126 
L 166.477922 208.379126 
L 166.477922 207.854879 
L 166.606164 207.854879 
L 166.606164 207.330631 
L 166.952616 207.330631 
L 166.952616 206.806383 
L 167.433091 206.806383 
L 167.543909 205.757888 
L 167.630482 205.757888 
L 167.630482 205.23364 
L 169.108962 205.23364 
L 169.108962 204.709392 
L 171.778999 204.709392 
L 171.778999 204.185145 
L 172.238417 204.185145 
L 172.238417 203.660897 
L 172.997957 203.660897 
L 172.997957 203.136649 
L 173.137183 203.136649 
L 173.238507 202.088154 
L 173.272464 202.088154 
L 173.272464 201.039658 
L 173.687677 201.039658 
L 173.79496 199.466915 
L 173.895218 199.466915 
L 173.895218 198.942667 
L 174.048119 198.942667 
L 174.048119 198.41842 
L 174.35875 198.41842 
L 174.375549 197.369924 
L 174.482149 197.369924 
L 174.482149 196.845677 
L 174.641256 196.845677 
L 174.653434 195.797181 
L 174.882337 195.797181 
L 174.927754 194.748686 
L 175.267547 194.748686 
L 175.267547 194.224438 
L 175.535617 194.224438 
L 175.583462 193.175943 
L 175.67056 193.175943 
L 175.67056 192.651695 
L 175.808517 192.651695 
L 175.808517 192.127447 
L 176.148243 192.127447 
L 176.191235 191.078952 
L 176.311674 191.078952 
L 176.311674 190.554704 
L 176.833489 190.554704 
L 176.896948 188.981961 
L 177.076872 188.981961 
L 177.116851 186.88497 
L 177.212275 186.88497 
L 177.304191 185.836474 
L 177.362226 185.836474 
L 177.465163 184.787979 
L 177.683793 184.787979 
L 177.734021 183.739484 
L 177.802937 183.739484 
L 177.878066 182.690988 
L 177.954303 182.690988 
L 177.954303 182.16674 
L 178.286914 182.16674 
L 178.286914 181.642493 
L 178.404062 181.642493 
L 178.473133 180.06975 
L 178.515554 180.06975 
L 178.515554 179.545502 
L 178.936818 179.545502 
L 178.936818 179.021254 
L 179.072511 179.021254 
L 179.169737 177.448511 
L 179.200467 177.448511 
L 179.266417 175.875768 
L 179.371149 175.875768 
L 179.371149 175.35152 
L 179.543425 175.35152 
L 179.649089 174.303025 
L 179.855919 174.303025 
L 179.960962 172.730281 
L 180.0177 172.730281 
L 180.116701 171.157538 
L 180.264768 171.157538 
L 180.352376 169.584795 
L 180.525028 169.584795 
L 180.623 168.012052 
L 180.688619 168.012052 
L 180.77897 165.915061 
L 180.840964 165.915061 
L 180.873088 164.866566 
L 181.09151 164.866566 
L 181.16311 163.81807 
L 181.298923 163.81807 
L 181.328435 162.769575 
L 181.43836 162.769575 
L 181.496857 160.672584 
L 181.585392 160.672584 
L 181.693692 159.099841 
L 181.974278 159.099841 
L 182.055307 157.00285 
L 182.112871 157.00285 
L 182.196055 155.430107 
L 182.227985 155.430107 
L 182.227985 154.905859 
L 182.362335 154.905859 
L 182.362335 154.381611 
L 182.587963 154.381611 
L 182.63995 152.808868 
L 182.730957 152.808868 
L 182.809046 151.236125 
L 182.922292 151.236125 
L 182.990419 150.18763 
L 183.110458 150.18763 
L 183.110458 149.663382 
L 183.224911 149.663382 
L 183.335984 147.566391 
L 183.353815 147.566391 
L 183.444259 146.517896 
L 183.543044 146.517896 
L 183.57464 145.4694 
L 183.671652 145.4694 
L 183.763002 143.372409 
L 183.848267 143.372409 
L 183.953878 140.226923 
L 184.060353 140.226923 
L 184.169673 139.178427 
L 184.194149 139.178427 
L 184.278301 137.605684 
L 184.375384 137.605684 
L 184.460622 133.93595 
L 184.57671 133.93595 
L 184.618642 132.363207 
L 184.813785 132.363207 
L 184.893047 130.266216 
L 184.937084 130.266216 
L 185.017209 128.693473 
L 185.052384 128.693473 
L 185.05903 127.644978 
L 185.176346 127.644978 
L 185.242221 126.596482 
L 185.302698 126.596482 
L 185.311587 125.547987 
L 185.44113 125.547987 
L 185.546651 123.450996 
L 185.635469 123.450996 
L 185.70784 121.878253 
L 185.7544 121.878253 
L 185.85802 119.781262 
L 185.928109 119.781262 
L 185.928109 119.257014 
L 186.088012 119.257014 
L 186.18698 116.635776 
L 186.214074 116.635776 
L 186.224279 115.58728 
L 186.402547 115.58728 
L 186.404742 114.538785 
L 186.596791 114.538785 
L 186.688995 112.966042 
L 186.712723 112.966042 
L 186.728237 110.869051 
L 186.883034 110.869051 
L 186.925243 108.77206 
L 187.060127 108.77206 
L 187.159129 106.675069 
L 187.184734 106.675069 
L 187.253805 105.102326 
L 187.319685 105.102326 
L 187.421346 103.005335 
L 187.449455 103.005335 
L 187.547479 99.859849 
L 187.564309 99.859849 
L 187.674324 98.811353 
L 187.715856 98.811353 
L 187.804286 97.23861 
L 187.921221 97.23861 
L 187.998205 95.665867 
L 188.05492 95.665867 
L 188.163434 94.093124 
L 188.177296 94.093124 
L 188.224741 91.996133 
L 188.326697 91.996133 
L 188.403844 90.947637 
L 188.483757 90.947637 
L 188.566398 87.802151 
L 188.603515 87.802151 
L 188.710166 85.180912 
L 188.753867 85.180912 
L 188.826837 83.083922 
L 188.875565 83.083922 
L 188.890005 81.511178 
L 189.033363 81.511178 
L 189.085642 79.414188 
L 189.15535 79.414188 
L 189.15535 78.88994 
L 189.335056 78.88994 
L 189.415555 76.792949 
L 189.453826 76.792949 
L 189.480271 75.220206 
L 189.608612 75.220206 
L 189.696905 72.074719 
L 189.764182 72.074719 
L 189.840185 69.977729 
L 189.968373 69.977729 
L 190.060166 67.880738 
L 190.162056 67.880738 
L 190.244048 64.735251 
L 190.294877 64.735251 
L 190.396433 62.638261 
L 190.417994 62.638261 
L 190.422511 61.589765 
L 190.539889 61.589765 
L 190.643443 58.968526 
L 190.712589 58.968526 
L 190.801522 56.871536 
L 190.881541 56.871536 
L 190.988443 55.82304 
L 191.015316 55.82304 
L 191.100362 54.250297 
L 191.153719 54.250297 
L 191.260601 52.677554 
L 191.26821 52.677554 
L 191.286061 51.104811 
L 191.406568 51.104811 
L 191.492643 49.532068 
L 191.541869 49.532068 
L 191.608798 47.959324 
L 191.684831 47.959324 
L 191.70548 46.910829 
L 191.808034 46.910829 
L 191.86691 45.862334 
L 191.970413 45.862334 
L 192.039492 43.765343 
L 192.16427 43.765343 
L 192.270684 42.716847 
L 192.279418 42.716847 
L 192.386983 40.619856 
L 192.391322 40.619856 
L 192.488951 39.047113 
L 192.512965 39.047113 
L 192.524959 37.998618 
L 192.65909 37.998618 
L 192.700526 36.950122 
L 192.834205 36.950122 
L 192.929959 34.853131 
L 192.997388 34.853131 
L 193.010544 33.804636 
L 193.245339 33.804636 
L 193.263019 32.756141 
L 193.456015 32.756141 
L 193.456015 32.231893 
L 193.590326 32.231893 
L 193.677083 30.134902 
L 193.857831 30.134902 
L 193.907262 29.086407 
L 194.138878 29.086407 
L 194.172989 28.037911 
L 194.289908 28.037911 
L 194.289908 27.513663 
L 333.168 27.513663 
L 333.168 27.513663 
" style="fill:none;stroke:#ff00ff;stroke-linecap:square;stroke-width:1.5;"/>
   </g>
   <g id="line2d_48">
    <defs>
     <path d="M -0 8.485281 
L 5.091169 0 
L 0 -8.485281 
L -5.091169 -0 
z
" id="m9425d500df" style="stroke:#ff00ff;stroke-linejoin:miter;stroke-width:1.5;"/>
    </defs>
    <g>
     <use style="fill:none;stroke:#ff00ff;stroke-linejoin:miter;stroke-width:1.5;" x="188.612396" xlink:href="#m9425d500df" y="86.229408"/>
     <use style="fill:none;stroke:#ff00ff;stroke-linejoin:miter;stroke-width:1.5;" x="194.289908" xlink:href="#m9425d500df" y="27.513663"/>
     <use style="fill:none;stroke:#ff00ff;stroke-linejoin:miter;stroke-width:1.5;" x="194.289908" xlink:href="#m9425d500df" y="27.513663"/>
     <use style="fill:none;stroke:#ff00ff;stroke-linejoin:miter;stroke-width:1.5;" x="333.168" xlink:href="#m9425d500df" y="27.513663"/>
    </g>
   </g>
   <g id="line2d_49">
    <path style="fill:none;stroke:#ff00ff;stroke-linecap:square;stroke-width:1.5;"/>
    <g/>
   </g>
   <g id="line2d_50">
    <defs>
     <path d="M 0 1.5 
C 0.397805 1.5 0.77937 1.341951 1.06066 1.06066 
C 1.341951 0.77937 1.5 0.397805 1.5 0 
C 1.5 -0.397805 1.341951 -0.77937 1.06066 -1.06066 
C 0.77937 -1.341951 0.397805 -1.5 0 -1.5 
C -0.397805 -1.5 -0.77937 -1.341951 -1.06066 -1.06066 
C -1.341951 -0.77937 -1.5 -0.397805 -1.5 0 
C -1.5 0.397805 -1.341951 0.77937 -1.06066 1.06066 
C -0.77937 1.341951 -0.397805 1.5 0 1.5 
z
" id="ma403022188" style="stroke:#6495ed;"/>
    </defs>
    <g>
     <use style="fill:#6495ed;stroke:#6495ed;" x="189.1445" xlink:href="#ma403022188" y="27.513663"/>
     <use style="fill:#6495ed;stroke:#6495ed;" x="189.1445" xlink:href="#ma403022188" y="27.513663"/>
    </g>
   </g>
   <g id="line2d_51">
    <path d="M 131.289977 294.88 
L 131.289977 294.355752 
L 131.654565 294.355752 
L 131.654565 293.831505 
L 132.391853 293.831505 
L 132.391853 292.783009 
L 132.593956 292.783009 
L 132.593956 291.734514 
L 132.833383 291.734514 
L 132.932169 290.161771 
L 133.059747 290.161771 
L 133.059747 289.637523 
L 133.273515 289.637523 
L 133.36981 288.06478 
L 133.408177 288.06478 
L 133.417756 287.016284 
L 133.730889 287.016284 
L 133.730889 285.967789 
L 133.862029 285.967789 
L 133.908623 284.919293 
L 134.112151 284.919293 
L 134.194722 282.298055 
L 134.240425 282.298055 
L 134.240425 281.773807 
L 134.412994 281.773807 
L 134.449104 280.201064 
L 134.53905 280.201064 
L 134.53905 279.676816 
L 134.761877 279.676816 
L 134.823755 278.628321 
L 134.876616 278.628321 
L 134.973107 277.055578 
L 135.03423 277.055578 
L 135.129844 273.910091 
L 135.164481 273.910091 
L 135.267975 272.337348 
L 135.276571 272.337348 
L 135.293751 271.288853 
L 135.439093 271.288853 
L 135.464614 270.240357 
L 135.633795 270.240357 
L 135.73451 268.143366 
L 135.792989 268.143366 
L 135.876187 265.522128 
L 135.975495 265.522128 
L 136.074233 263.949385 
L 136.123391 263.949385 
L 136.196864 262.376641 
L 136.302441 262.376641 
L 136.302441 261.852394 
L 136.423459 261.852394 
L 136.527657 259.755403 
L 136.615334 259.755403 
L 136.65504 256.609917 
L 136.805091 256.609917 
L 136.805091 256.085669 
L 136.969427 256.085669 
L 137.03162 253.988678 
L 137.12449 253.988678 
L 137.209183 252.940182 
L 137.400127 252.940182 
L 137.498586 250.318944 
L 137.513684 250.318944 
L 137.573942 248.221953 
L 137.835115 248.221953 
L 137.835115 247.697705 
L 137.9532 247.697705 
L 138.063173 245.076467 
L 138.121538 245.076467 
L 138.179706 244.027971 
L 138.309869 244.027971 
L 138.309869 243.503724 
L 138.489031 243.503724 
L 138.595638 242.455228 
L 138.792887 242.455228 
L 138.862788 240.358237 
L 138.939352 240.358237 
L 139.015577 238.785494 
L 139.378176 238.785494 
L 139.46596 237.736999 
L 139.499603 237.736999 
L 139.573389 236.688503 
L 140.068202 236.688503 
L 140.107179 235.640008 
L 140.242905 235.640008 
L 140.242905 235.11576 
L 140.631185 235.11576 
L 140.631185 234.591512 
L 140.781579 234.591512 
L 140.850072 233.543017 
L 141.121347 233.543017 
L 141.121347 233.018769 
L 141.502459 233.018769 
L 141.502459 232.494521 
L 142.16556 232.494521 
L 142.16556 231.970274 
L 143.494384 231.970274 
L 143.494384 231.446026 
L 151.933608 231.446026 
L 151.933608 230.921778 
L 153.341761 230.921778 
L 153.341761 230.397531 
L 153.515144 230.397531 
L 153.589342 228.824787 
L 154.030812 228.824787 
L 154.09132 227.776292 
L 154.662725 227.776292 
L 154.662725 227.252044 
L 154.776419 227.252044 
L 154.776419 226.727797 
L 154.952404 226.727797 
L 155.012485 225.679301 
L 155.066923 225.679301 
L 155.066923 225.155053 
L 155.387309 225.155053 
L 155.387309 224.630806 
L 155.662502 224.630806 
L 155.662502 224.106558 
L 156.090264 224.106558 
L 156.159258 223.058063 
L 156.238135 223.058063 
L 156.238135 222.533815 
L 156.535105 222.533815 
L 156.535105 222.009567 
L 156.812307 222.009567 
L 156.822125 220.961072 
L 157.367918 220.961072 
L 157.450915 219.388328 
L 157.540575 219.388328 
L 157.540575 218.864081 
L 157.727817 218.864081 
L 157.727817 218.339833 
L 157.869231 218.339833 
L 157.869231 217.815585 
L 158.036948 217.815585 
L 158.036948 217.291338 
L 158.209837 217.291338 
L 158.209837 216.76709 
L 158.59702 216.76709 
L 158.658873 215.718594 
L 159.130837 215.718594 
L 159.130837 215.194347 
L 159.552548 215.194347 
L 159.552548 214.670099 
L 159.801934 214.670099 
L 159.910938 212.573108 
L 160.064018 212.573108 
L 160.064018 212.04886 
L 160.187524 212.04886 
L 160.187524 211.524613 
L 160.521178 211.524613 
L 160.613925 210.476117 
L 160.725737 210.476117 
L 160.725737 209.95187 
L 160.854302 209.95187 
L 160.912424 208.903374 
L 161.351615 208.903374 
L 161.351615 208.379126 
L 161.658063 208.379126 
L 161.658063 207.854879 
L 161.774346 207.854879 
L 161.774346 207.330631 
L 161.982784 207.330631 
L 162.035407 206.282136 
L 162.392228 206.282136 
L 162.392228 205.757888 
L 162.538891 205.757888 
L 162.628392 204.185145 
L 162.658123 204.185145 
L 162.710463 203.136649 
L 162.93029 203.136649 
L 163.033175 201.563906 
L 163.0588 201.563906 
L 163.079273 200.515411 
L 163.480359 200.515411 
L 163.583325 198.942667 
L 163.636229 198.942667 
L 163.679093 197.894172 
L 163.99883 197.894172 
L 164.002062 196.845677 
L 164.201279 196.845677 
L 164.204473 195.797181 
L 164.352357 195.797181 
L 164.352357 195.272933 
L 164.566352 195.272933 
L 164.644362 193.70019 
L 164.942202 193.70019 
L 164.942202 193.175943 
L 165.082381 193.175943 
L 165.145998 191.603199 
L 165.283032 191.603199 
L 165.336943 190.554704 
L 165.404095 190.554704 
L 165.466534 189.506209 
L 165.524311 189.506209 
L 165.524311 188.981961 
L 165.740357 188.981961 
L 165.740357 188.457713 
L 165.950835 188.457713 
L 166.032874 187.409218 
L 166.093075 187.409218 
L 166.200054 185.836474 
L 166.53798 185.836474 
L 166.567235 184.787979 
L 166.658856 184.787979 
L 166.767886 183.739484 
L 166.967581 183.739484 
L 166.967581 183.215236 
L 167.103032 183.215236 
L 167.163638 181.642493 
L 167.250805 181.642493 
L 167.340194 180.593997 
L 167.415877 180.593997 
L 167.430444 179.545502 
L 167.536018 179.545502 
L 167.536018 179.021254 
L 167.856652 179.021254 
L 167.935242 176.400016 
L 168.161269 176.400016 
L 168.161269 175.875768 
L 168.428135 175.875768 
L 168.430633 174.827272 
L 168.541427 174.827272 
L 168.594703 173.778777 
L 168.743736 173.778777 
L 168.80861 172.206034 
L 169.041598 172.206034 
L 169.134156 170.109043 
L 169.158115 170.109043 
L 169.265522 169.060547 
L 169.384081 169.060547 
L 169.427742 168.012052 
L 169.563909 168.012052 
L 169.64905 166.439309 
L 169.808859 166.439309 
L 169.912288 164.342318 
L 170.057186 164.342318 
L 170.153488 162.245327 
L 170.239138 162.245327 
L 170.298616 161.196832 
L 170.393578 161.196832 
L 170.482478 159.099841 
L 170.695073 159.099841 
L 170.744266 157.00285 
L 170.884511 157.00285 
L 170.884511 156.478602 
L 171.004278 156.478602 
L 171.108261 154.381611 
L 171.124284 154.381611 
L 171.233912 152.808868 
L 171.254059 152.808868 
L 171.354438 150.711877 
L 171.368129 150.711877 
L 171.381809 149.663382 
L 171.486675 149.663382 
L 171.548248 148.614886 
L 171.625164 148.614886 
L 171.70277 146.517896 
L 171.795436 146.517896 
L 171.886585 144.945152 
L 171.909042 144.945152 
L 171.999591 142.848162 
L 172.046206 142.848162 
L 172.107827 141.275418 
L 172.18128 141.275418 
L 172.277402 139.702675 
L 172.345164 139.702675 
L 172.345164 139.178427 
L 172.605737 139.178427 
L 172.675147 137.081437 
L 172.736502 137.081437 
L 172.823774 135.508693 
L 172.862419 135.508693 
L 172.971126 132.887455 
L 173.095343 132.887455 
L 173.177026 131.314712 
L 173.240395 131.314712 
L 173.310115 130.266216 
L 173.372059 130.266216 
L 173.38985 128.693473 
L 173.509229 128.693473 
L 173.600996 126.072235 
L 173.682157 126.072235 
L 173.777584 123.450996 
L 173.824187 123.450996 
L 173.933344 121.878253 
L 173.936064 121.878253 
L 174.045417 119.257014 
L 174.069723 119.257014 
L 174.134373 118.208519 
L 174.190742 118.208519 
L 174.208598 117.160023 
L 174.331305 117.160023 
L 174.363172 115.58728 
L 174.444342 115.58728 
L 174.527759 114.014537 
L 174.568005 114.014537 
L 174.675159 112.441794 
L 174.743631 112.441794 
L 174.743631 111.917546 
L 174.859154 111.917546 
L 174.947426 109.296308 
L 174.993524 109.296308 
L 175.088743 107.723564 
L 175.139537 107.723564 
L 175.228066 105.626573 
L 175.328688 105.626573 
L 175.367938 103.529583 
L 175.440357 103.529583 
L 175.499232 100.384096 
L 175.58758 100.384096 
L 175.58758 99.859849 
L 175.70004 99.859849 
L 175.744982 98.811353 
L 175.950215 98.811353 
L 176.015407 97.23861 
L 176.069145 97.23861 
L 176.142662 95.665867 
L 176.352684 95.665867 
L 176.432843 94.093124 
L 176.492327 94.093124 
L 176.576505 93.044628 
L 176.626195 93.044628 
L 176.736703 91.996133 
L 176.83885 91.996133 
L 176.941915 89.899142 
L 176.973855 89.899142 
L 177.058737 88.326399 
L 177.200282 88.326399 
L 177.269874 87.277903 
L 177.314622 87.277903 
L 177.418584 85.70516 
L 177.496883 85.70516 
L 177.607076 84.656665 
L 177.636342 84.656665 
L 177.637073 83.608169 
L 177.834762 83.608169 
L 177.911911 81.511178 
L 178.082994 81.511178 
L 178.082994 80.986931 
L 178.222742 80.986931 
L 178.315046 79.414188 
L 178.427116 79.414188 
L 178.427116 78.88994 
L 178.60354 78.88994 
L 178.653911 76.268701 
L 178.754897 76.268701 
L 178.761746 75.220206 
L 179.022679 75.220206 
L 179.083266 73.123215 
L 179.140292 73.123215 
L 179.140292 72.598967 
L 179.261097 72.598967 
L 179.339399 71.026224 
L 179.447637 71.026224 
L 179.483128 69.977729 
L 179.632825 69.977729 
L 179.678975 67.880738 
L 179.754754 67.880738 
L 179.754754 67.35649 
L 179.944352 67.35649 
L 180.002418 65.259499 
L 180.17545 65.259499 
L 180.237142 63.686756 
L 180.351128 63.686756 
L 180.453817 62.114013 
L 180.462502 62.114013 
L 180.462502 61.589765 
L 180.653694 61.589765 
L 180.674535 60.54127 
L 180.769225 60.54127 
L 180.806955 59.492774 
L 180.952836 59.492774 
L 181.045409 57.920031 
L 181.101671 57.920031 
L 181.101671 57.395783 
L 181.307191 57.395783 
L 181.347884 56.347288 
L 181.465879 56.347288 
L 181.546423 54.774545 
L 181.591201 54.774545 
L 181.68734 52.677554 
L 181.804182 52.677554 
L 181.875736 51.629058 
L 182.036642 51.629058 
L 182.048522 50.580563 
L 182.203903 50.580563 
L 182.207265 49.532068 
L 182.473588 49.532068 
L 182.473588 49.00782 
L 182.632299 49.00782 
L 182.683061 47.959324 
L 182.850656 47.959324 
L 182.850656 47.435077 
L 183.061477 47.435077 
L 183.172548 46.386581 
L 183.231775 46.386581 
L 183.306575 44.813838 
L 183.445823 44.813838 
L 183.552374 43.241095 
L 183.564805 43.241095 
L 183.674739 41.144104 
L 183.761466 41.144104 
L 183.83451 40.095609 
L 184.15467 40.095609 
L 184.232043 38.522865 
L 184.430615 38.522865 
L 184.430615 37.998618 
L 184.667757 37.998618 
L 184.667757 37.47437 
L 184.844573 37.47437 
L 184.879623 36.425875 
L 185.004833 36.425875 
L 185.004833 35.901627 
L 185.313458 35.901627 
L 185.313458 35.377379 
L 185.567861 35.377379 
L 185.567861 34.853131 
L 186.14247 34.853131 
L 186.16563 33.804636 
L 186.71143 33.804636 
L 186.71143 33.280388 
L 186.893276 33.280388 
L 186.893276 32.756141 
L 187.104854 32.756141 
L 187.104854 32.231893 
L 187.595462 32.231893 
L 187.595462 31.707645 
L 187.845506 31.707645 
L 187.845506 31.183397 
L 188.099521 31.183397 
L 188.099521 30.65915 
L 188.563688 30.65915 
L 188.563688 30.134902 
L 188.678663 30.134902 
L 188.678663 29.610654 
L 188.869102 29.610654 
L 188.966183 28.562159 
L 189.049929 28.562159 
L 189.1445 27.513663 
L 333.168 27.513663 
L 333.168 27.513663 
" style="fill:none;stroke:#6495ed;stroke-linecap:square;stroke-width:1.5;"/>
   </g>
   <g id="line2d_52">
    <defs>
     <path d="M -0 6 
L 6 -6 
L -6 -6 
z
" id="m1a5e6bdeb5" style="stroke:#6495ed;stroke-linejoin:miter;stroke-width:1.5;"/>
    </defs>
    <g>
     <use style="fill:none;stroke:#6495ed;stroke-linejoin:miter;stroke-width:1.5;" x="173.777584" xlink:href="#m1a5e6bdeb5" y="123.975244"/>
     <use style="fill:none;stroke:#6495ed;stroke-linejoin:miter;stroke-width:1.5;" x="189.1445" xlink:href="#m1a5e6bdeb5" y="28.037911"/>
     <use style="fill:none;stroke:#6495ed;stroke-linejoin:miter;stroke-width:1.5;" x="189.1445" xlink:href="#m1a5e6bdeb5" y="27.513663"/>
     <use style="fill:none;stroke:#6495ed;stroke-linejoin:miter;stroke-width:1.5;" x="189.1445" xlink:href="#m1a5e6bdeb5" y="27.513663"/>
     <use style="fill:none;stroke:#6495ed;stroke-linejoin:miter;stroke-width:1.5;" x="333.168" xlink:href="#m1a5e6bdeb5" y="27.513663"/>
    </g>
   </g>
   <g id="line2d_53">
    <path style="fill:none;stroke:#6495ed;stroke-linecap:square;stroke-width:1.5;"/>
    <g/>
   </g>
   <g id="line2d_54">
    <path d="M 333.168 27.513663 
L 363.64328 289.532673 
" style="fill:none;stroke:#000080;stroke-linecap:square;stroke-width:1.5;"/>
    <g>
     <use style="fill:none;stroke:#000080;stroke-width:1.5;" x="333.168" xlink:href="#m99f39eaf3b" y="27.513663"/>
     <use style="fill:none;stroke:#000080;stroke-width:1.5;" x="363.64328" xlink:href="#m99f39eaf3b" y="289.532673"/>
    </g>
   </g>
   <g id="line2d_55">
    <path d="M 333.168 27.513663 
L 363.64328 203.975446 
" style="fill:none;stroke:#ff00ff;stroke-linecap:square;stroke-width:1.5;"/>
    <g>
     <use style="fill:none;stroke:#ff00ff;stroke-linejoin:miter;stroke-width:1.5;" x="333.168" xlink:href="#m9425d500df" y="27.513663"/>
     <use style="fill:none;stroke:#ff00ff;stroke-linejoin:miter;stroke-width:1.5;" x="363.64328" xlink:href="#m9425d500df" y="203.975446"/>
    </g>
   </g>
   <g id="line2d_56">
    <path d="M 333.168 27.513663 
L 363.64328 118.418218 
" style="fill:none;stroke:#6495ed;stroke-linecap:square;stroke-width:1.5;"/>
    <g>
     <use style="fill:none;stroke:#6495ed;stroke-linejoin:miter;stroke-width:1.5;" x="333.168" xlink:href="#m1a5e6bdeb5" y="27.513663"/>
     <use style="fill:none;stroke:#6495ed;stroke-linejoin:miter;stroke-width:1.5;" x="363.64328" xlink:href="#m1a5e6bdeb5" y="118.418218"/>
    </g>
   </g>
   <g id="line2d_57">
    <path d="M 333.168 294.88 
L 333.168 27.513663 
" style="fill:none;stroke:#000000;stroke-linecap:square;stroke-width:1.5;"/>
   </g>
   <g id="patch_3">
    <path d="M 56.12 294.88 
L 56.12 24.84 
" style="fill:none;stroke:#000000;stroke-linecap:square;stroke-linejoin:miter;stroke-width:0.8;"/>
   </g>
   <g id="patch_4">
    <path d="M 333.168 294.88 
L 333.168 24.84 
" style="fill:none;stroke:#000000;stroke-linecap:square;stroke-linejoin:miter;stroke-width:0.8;"/>
   </g>
   <g id="patch_5">
    <path d="M 56.12 294.88 
L 333.168 294.88 
" style="fill:none;stroke:#000000;stroke-linecap:square;stroke-linejoin:miter;stroke-width:0.8;"/>
   </g>
   <g id="patch_6">
    <path d="M 56.12 24.84 
L 333.168 24.84 
" style="fill:none;stroke:#000000;stroke-linecap:square;stroke-linejoin:miter;stroke-width:0.8;"/>
   </g>
   <g id="text_13">
    <!-- CMA ES PPM -->
    <defs>
     <path d="M 64.40625 67.28125 
L 64.40625 56.890625 
Q 59.421875 61.53125 53.78125 63.8125 
Q 48.140625 66.109375 41.796875 66.109375 
Q 29.296875 66.109375 22.65625 58.46875 
Q 16.015625 50.828125 16.015625 36.375 
Q 16.015625 21.96875 22.65625 14.328125 
Q 29.296875 6.6875 41.796875 6.6875 
Q 48.140625 6.6875 53.78125 8.984375 
Q 59.421875 11.28125 64.40625 15.921875 
L 64.40625 5.609375 
Q 59.234375 2.09375 53.4375 0.328125 
Q 47.65625 -1.421875 41.21875 -1.421875 
Q 24.65625 -1.421875 15.125 8.703125 
Q 5.609375 18.84375 5.609375 36.375 
Q 5.609375 53.953125 15.125 64.078125 
Q 24.65625 74.21875 41.21875 74.21875 
Q 47.75 74.21875 53.53125 72.484375 
Q 59.328125 70.75 64.40625 67.28125 
z
" id="DejaVuSans-43"/>
     <path d="M 9.8125 72.90625 
L 24.515625 72.90625 
L 43.109375 23.296875 
L 61.8125 72.90625 
L 76.515625 72.90625 
L 76.515625 0 
L 66.890625 0 
L 66.890625 64.015625 
L 48.09375 14.015625 
L 38.1875 14.015625 
L 19.390625 64.015625 
L 19.390625 0 
L 9.8125 0 
z
" id="DejaVuSans-4d"/>
     <path d="M 34.1875 63.1875 
L 20.796875 26.90625 
L 47.609375 26.90625 
z
M 28.609375 72.90625 
L 39.796875 72.90625 
L 67.578125 0 
L 57.328125 0 
L 50.6875 18.703125 
L 17.828125 18.703125 
L 11.1875 0 
L 0.78125 0 
z
" id="DejaVuSans-41"/>
     <path d="M 9.8125 72.90625 
L 55.90625 72.90625 
L 55.90625 64.59375 
L 19.671875 64.59375 
L 19.671875 43.015625 
L 54.390625 43.015625 
L 54.390625 34.71875 
L 19.671875 34.71875 
L 19.671875 8.296875 
L 56.78125 8.296875 
L 56.78125 0 
L 9.8125 0 
z
" id="DejaVuSans-45"/>
     <path d="M 53.515625 70.515625 
L 53.515625 60.890625 
Q 47.90625 63.578125 42.921875 64.890625 
Q 37.9375 66.21875 33.296875 66.21875 
Q 25.25 66.21875 20.875 63.09375 
Q 16.5 59.96875 16.5 54.203125 
Q 16.5 49.359375 19.40625 46.890625 
Q 22.3125 44.4375 30.421875 42.921875 
L 36.375 41.703125 
Q 47.40625 39.59375 52.65625 34.296875 
Q 57.90625 29 57.90625 20.125 
Q 57.90625 9.515625 50.796875 4.046875 
Q 43.703125 -1.421875 29.984375 -1.421875 
Q 24.8125 -1.421875 18.96875 -0.25 
Q 13.140625 0.921875 6.890625 3.21875 
L 6.890625 13.375 
Q 12.890625 10.015625 18.65625 8.296875 
Q 24.421875 6.59375 29.984375 6.59375 
Q 38.421875 6.59375 43.015625 9.90625 
Q 47.609375 13.234375 47.609375 19.390625 
Q 47.609375 24.75 44.3125 27.78125 
Q 41.015625 30.8125 33.5 32.328125 
L 27.484375 33.5 
Q 16.453125 35.6875 11.515625 40.375 
Q 6.59375 45.0625 6.59375 53.421875 
Q 6.59375 63.09375 13.40625 68.65625 
Q 20.21875 74.21875 32.171875 74.21875 
Q 37.3125 74.21875 42.625 73.28125 
Q 47.953125 72.359375 53.515625 70.515625 
z
" id="DejaVuSans-53"/>
     <path d="M 19.671875 64.796875 
L 19.671875 37.40625 
L 32.078125 37.40625 
Q 38.96875 37.40625 42.71875 40.96875 
Q 46.484375 44.53125 46.484375 51.125 
Q 46.484375 57.671875 42.71875 61.234375 
Q 38.96875 64.796875 32.078125 64.796875 
z
M 9.8125 72.90625 
L 32.078125 72.90625 
Q 44.34375 72.90625 50.609375 67.359375 
Q 56.890625 61.8125 56.890625 51.125 
Q 56.890625 40.328125 50.609375 34.8125 
Q 44.34375 29.296875 32.078125 29.296875 
L 19.671875 29.296875 
L 19.671875 0 
L 9.8125 0 
z
" id="DejaVuSans-50"/>
    </defs>
    <g transform="translate(369.18424 294.223611)scale(0.17 -0.17)">
     <use xlink:href="#DejaVuSans-43"/>
     <use x="69.824219" xlink:href="#DejaVuSans-4d"/>
     <use x="156.103516" xlink:href="#DejaVuSans-41"/>
     <use x="224.511719" xlink:href="#DejaVuSans-20"/>
     <use x="256.298828" xlink:href="#DejaVuSans-45"/>
     <use x="319.482422" xlink:href="#DejaVuSans-53"/>
     <use x="382.958984" xlink:href="#DejaVuSans-20"/>
     <use x="414.746094" xlink:href="#DejaVuSans-50"/>
     <use x="475.048828" xlink:href="#DejaVuSans-50"/>
     <use x="535.351562" xlink:href="#DejaVuSans-4d"/>
    </g>
   </g>
   <g id="text_14">
    <!-- CMA ES CSA -->
    <g transform="translate(369.18424 208.666383)scale(0.17 -0.17)">
     <use xlink:href="#DejaVuSans-43"/>
     <use x="69.824219" xlink:href="#DejaVuSans-4d"/>
     <use x="156.103516" xlink:href="#DejaVuSans-41"/>
     <use x="224.511719" xlink:href="#DejaVuSans-20"/>
     <use x="256.298828" xlink:href="#DejaVuSans-45"/>
     <use x="319.482422" xlink:href="#DejaVuSans-53"/>
     <use x="382.958984" xlink:href="#DejaVuSans-20"/>
     <use x="414.746094" xlink:href="#DejaVuSans-43"/>
     <use x="484.570312" xlink:href="#DejaVuSans-53"/>
     <use x="548.0625" xlink:href="#DejaVuSans-41"/>
    </g>
   </g>
   <g id="text_15">
    <!-- CMAES posi -->
    <g transform="translate(369.18424 123.109155)scale(0.17 -0.17)">
     <use xlink:href="#DejaVuSans-43"/>
     <use x="69.824219" xlink:href="#DejaVuSans-4d"/>
     <use x="156.103516" xlink:href="#DejaVuSans-41"/>
     <use x="224.511719" xlink:href="#DejaVuSans-45"/>
     <use x="287.695312" xlink:href="#DejaVuSans-53"/>
     <use x="351.171875" xlink:href="#DejaVuSans-20"/>
     <use x="382.958984" xlink:href="#DejaVuSans-70"/>
     <use x="446.435547" xlink:href="#DejaVuSans-6f"/>
     <use x="507.617188" xlink:href="#DejaVuSans-73"/>
     <use x="559.716797" xlink:href="#DejaVuSans-69"/>
    </g>
   </g>
   <g id="text_16">
    <!-- best 2009 -->
    <defs>
     <path d="M 48.6875 27.296875 
Q 48.6875 37.203125 44.609375 42.84375 
Q 40.53125 48.484375 33.40625 48.484375 
Q 26.265625 48.484375 22.1875 42.84375 
Q 18.109375 37.203125 18.109375 27.296875 
Q 18.109375 17.390625 22.1875 11.75 
Q 26.265625 6.109375 33.40625 6.109375 
Q 40.53125 6.109375 44.609375 11.75 
Q 48.6875 17.390625 48.6875 27.296875 
z
M 18.109375 46.390625 
Q 20.953125 51.265625 25.265625 53.625 
Q 29.59375 56 35.59375 56 
Q 45.5625 56 51.78125 48.09375 
Q 58.015625 40.1875 58.015625 27.296875 
Q 58.015625 14.40625 51.78125 6.484375 
Q 45.5625 -1.421875 35.59375 -1.421875 
Q 29.59375 -1.421875 25.265625 0.953125 
Q 20.953125 3.328125 18.109375 8.203125 
L 18.109375 0 
L 9.078125 0 
L 9.078125 75.984375 
L 18.109375 75.984375 
z
" id="DejaVuSans-62"/>
     <path d="M 10.984375 1.515625 
L 10.984375 10.5 
Q 14.703125 8.734375 18.5 7.8125 
Q 22.3125 6.890625 25.984375 6.890625 
Q 35.75 6.890625 40.890625 13.453125 
Q 46.046875 20.015625 46.78125 33.40625 
Q 43.953125 29.203125 39.59375 26.953125 
Q 35.25 24.703125 29.984375 24.703125 
Q 19.046875 24.703125 12.671875 31.3125 
Q 6.296875 37.9375 6.296875 49.421875 
Q 6.296875 60.640625 12.9375 67.421875 
Q 19.578125 74.21875 30.609375 74.21875 
Q 43.265625 74.21875 49.921875 64.515625 
Q 56.59375 54.828125 56.59375 36.375 
Q 56.59375 19.140625 48.40625 8.859375 
Q 40.234375 -1.421875 26.421875 -1.421875 
Q 22.703125 -1.421875 18.890625 -0.6875 
Q 15.09375 0.046875 10.984375 1.515625 
z
M 30.609375 32.421875 
Q 37.25 32.421875 41.125 36.953125 
Q 45.015625 41.5 45.015625 49.421875 
Q 45.015625 57.28125 41.125 61.84375 
Q 37.25 66.40625 30.609375 66.40625 
Q 23.96875 66.40625 20.09375 61.84375 
Q 16.21875 57.28125 16.21875 49.421875 
Q 16.21875 41.5 20.09375 36.953125 
Q 23.96875 32.421875 30.609375 32.421875 
z
" id="DejaVuSans-39"/>
    </defs>
    <g transform="translate(369.18424 37.551928)scale(0.17 -0.17)">
     <use xlink:href="#DejaVuSans-62"/>
     <use x="63.476562" xlink:href="#DejaVuSans-65"/>
     <use x="125" xlink:href="#DejaVuSans-73"/>
     <use x="177.099609" xlink:href="#DejaVuSans-74"/>
     <use x="216.308594" xlink:href="#DejaVuSans-20"/>
     <use x="248.095703" xlink:href="#DejaVuSans-32"/>
     <use x="311.71875" xlink:href="#DejaVuSans-30"/>
     <use x="375.341797" xlink:href="#DejaVuSans-30"/>
     <use x="438.964844" xlink:href="#DejaVuSans-39"/>
    </g>
   </g>
   <g id="text_17">
    <!-- bbob f12, 20-D -->
    <defs>
     <path d="M 19.671875 64.796875 
L 19.671875 8.109375 
L 31.59375 8.109375 
Q 46.6875 8.109375 53.6875 14.9375 
Q 60.6875 21.78125 60.6875 36.53125 
Q 60.6875 51.171875 53.6875 57.984375 
Q 46.6875 64.796875 31.59375 64.796875 
z
M 9.8125 72.90625 
L 30.078125 72.90625 
Q 51.265625 72.90625 61.171875 64.09375 
Q 71.09375 55.28125 71.09375 36.53125 
Q 71.09375 17.671875 61.125 8.828125 
Q 51.171875 0 30.078125 0 
L 9.8125 0 
z
" id="DejaVuSans-44"/>
    </defs>
    <g transform="translate(58.89048 35.290806)scale(0.102 -0.102)">
     <use xlink:href="#DejaVuSans-62"/>
     <use x="63.476562" xlink:href="#DejaVuSans-62"/>
     <use x="126.953125" xlink:href="#DejaVuSans-6f"/>
     <use x="188.134766" xlink:href="#DejaVuSans-62"/>
     <use x="251.611328" xlink:href="#DejaVuSans-20"/>
     <use x="283.398438" xlink:href="#DejaVuSans-66"/>
     <use x="318.603516" xlink:href="#DejaVuSans-31"/>
     <use x="382.226562" xlink:href="#DejaVuSans-32"/>
     <use x="445.849609" xlink:href="#DejaVuSans-2c"/>
     <use x="477.636719" xlink:href="#DejaVuSans-20"/>
     <use x="509.423828" xlink:href="#DejaVuSans-32"/>
     <use x="573.046875" xlink:href="#DejaVuSans-30"/>
     <use x="636.669922" xlink:href="#DejaVuSans-2d"/>
     <use x="672.753906" xlink:href="#DejaVuSans-44"/>
    </g>
    <!-- 51 targets: 100..1e-08 -->
    <defs>
     <path d="M 10.796875 72.90625 
L 49.515625 72.90625 
L 49.515625 64.59375 
L 19.828125 64.59375 
L 19.828125 46.734375 
Q 21.96875 47.46875 24.109375 47.828125 
Q 26.265625 48.1875 28.421875 48.1875 
Q 40.625 48.1875 47.75 41.5 
Q 54.890625 34.8125 54.890625 23.390625 
Q 54.890625 11.625 47.5625 5.09375 
Q 40.234375 -1.421875 26.90625 -1.421875 
Q 22.3125 -1.421875 17.546875 -0.640625 
Q 12.796875 0.140625 7.71875 1.703125 
L 7.71875 11.625 
Q 12.109375 9.234375 16.796875 8.0625 
Q 21.484375 6.890625 26.703125 6.890625 
Q 35.15625 6.890625 40.078125 11.328125 
Q 45.015625 15.765625 45.015625 23.390625 
Q 45.015625 31 40.078125 35.4375 
Q 35.15625 39.890625 26.703125 39.890625 
Q 22.75 39.890625 18.8125 39.015625 
Q 14.890625 38.140625 10.796875 36.28125 
z
" id="DejaVuSans-35"/>
     <path d="M 11.71875 12.40625 
L 22.015625 12.40625 
L 22.015625 0 
L 11.71875 0 
z
M 11.71875 51.703125 
L 22.015625 51.703125 
L 22.015625 39.3125 
L 11.71875 39.3125 
z
" id="DejaVuSans-3a"/>
    </defs>
    <g transform="translate(58.89048 46.712575)scale(0.102 -0.102)">
     <use xlink:href="#DejaVuSans-35"/>
     <use x="63.623047" xlink:href="#DejaVuSans-31"/>
     <use x="127.246094" xlink:href="#DejaVuSans-20"/>
     <use x="159.033203" xlink:href="#DejaVuSans-74"/>
     <use x="198.242188" xlink:href="#DejaVuSans-61"/>
     <use x="259.521484" xlink:href="#DejaVuSans-72"/>
     <use x="300.619141" xlink:href="#DejaVuSans-67"/>
     <use x="364.095703" xlink:href="#DejaVuSans-65"/>
     <use x="425.619141" xlink:href="#DejaVuSans-74"/>
     <use x="464.828125" xlink:href="#DejaVuSans-73"/>
     <use x="516.927734" xlink:href="#DejaVuSans-3a"/>
     <use x="550.619141" xlink:href="#DejaVuSans-20"/>
     <use x="582.40625" xlink:href="#DejaVuSans-31"/>
     <use x="646.029297" xlink:href="#DejaVuSans-30"/>
     <use x="709.652344" xlink:href="#DejaVuSans-30"/>
     <use x="773.275391" xlink:href="#DejaVuSans-2e"/>
     <use x="805.0625" xlink:href="#DejaVuSans-2e"/>
     <use x="836.849609" xlink:href="#DejaVuSans-31"/>
     <use x="900.472656" xlink:href="#DejaVuSans-65"/>
     <use x="961.996094" xlink:href="#DejaVuSans-2d"/>
     <use x="998.080078" xlink:href="#DejaVuSans-30"/>
     <use x="1061.703125" xlink:href="#DejaVuSans-38"/>
    </g>
    <!-- 15 instances -->
    <g transform="translate(58.89048 58.134344)scale(0.102 -0.102)">
     <use xlink:href="#DejaVuSans-31"/>
     <use x="63.623047" xlink:href="#DejaVuSans-35"/>
     <use x="127.246094" xlink:href="#DejaVuSans-20"/>
     <use x="159.033203" xlink:href="#DejaVuSans-69"/>
     <use x="186.816406" xlink:href="#DejaVuSans-6e"/>
     <use x="250.195312" xlink:href="#DejaVuSans-73"/>
     <use x="302.294922" xlink:href="#DejaVuSans-74"/>
     <use x="341.503906" xlink:href="#DejaVuSans-61"/>
     <use x="402.783203" xlink:href="#DejaVuSans-6e"/>
     <use x="466.162109" xlink:href="#DejaVuSans-63"/>
     <use x="521.142578" xlink:href="#DejaVuSans-65"/>
     <use x="582.666016" xlink:href="#DejaVuSans-73"/>
    </g>
   </g>
   <g id="text_18">
    <!-- v0.0.0 -->
    <g style="fill:#808080;" transform="translate(178.96275 290.099912)scale(0.1 -0.1)">
     <use xlink:href="#DejaVuSans-76"/>
     <use x="59.179688" xlink:href="#DejaVuSans-30"/>
     <use x="122.802734" xlink:href="#DejaVuSans-2e"/>
     <use x="154.589844" xlink:href="#DejaVuSans-30"/>
     <use x="218.212891" xlink:href="#DejaVuSans-2e"/>
     <use x="250" xlink:href="#DejaVuSans-30"/>
    </g>
   </g>
   <g id="text_19">
    <!-- 12 Bent cigar -->
    <defs>
     <path d="M 19.671875 34.8125 
L 19.671875 8.109375 
L 35.5 8.109375 
Q 43.453125 8.109375 47.28125 11.40625 
Q 51.125 14.703125 51.125 21.484375 
Q 51.125 28.328125 47.28125 31.5625 
Q 43.453125 34.8125 35.5 34.8125 
z
M 19.671875 64.796875 
L 19.671875 42.828125 
L 34.28125 42.828125 
Q 41.5 42.828125 45.03125 45.53125 
Q 48.578125 48.25 48.578125 53.8125 
Q 48.578125 59.328125 45.03125 62.0625 
Q 41.5 64.796875 34.28125 64.796875 
z
M 9.8125 72.90625 
L 35.015625 72.90625 
Q 46.296875 72.90625 52.390625 68.21875 
Q 58.5 63.53125 58.5 54.890625 
Q 58.5 48.1875 55.375 44.234375 
Q 52.25 40.28125 46.1875 39.3125 
Q 53.46875 37.75 57.5 32.78125 
Q 61.53125 27.828125 61.53125 20.40625 
Q 61.53125 10.640625 54.890625 5.3125 
Q 48.25 0 35.984375 0 
L 9.8125 0 
z
" id="DejaVuSans-42"/>
    </defs>
    <g transform="translate(127.426812 18.84)scale(0.2 -0.2)">
     <use xlink:href="#DejaVuSans-31"/>
     <use x="63.623047" xlink:href="#DejaVuSans-32"/>
     <use x="127.246094" xlink:href="#DejaVuSans-20"/>
     <use x="159.033203" xlink:href="#DejaVuSans-42"/>
     <use x="227.636719" xlink:href="#DejaVuSans-65"/>
     <use x="289.160156" xlink:href="#DejaVuSans-6e"/>
     <use x="352.539062" xlink:href="#DejaVuSans-74"/>
     <use x="391.748047" xlink:href="#DejaVuSans-20"/>
     <use x="423.535156" xlink:href="#DejaVuSans-63"/>
     <use x="478.515625" xlink:href="#DejaVuSans-69"/>
     <use x="506.298828" xlink:href="#DejaVuSans-67"/>
     <use x="569.775391" xlink:href="#DejaVuSans-61"/>
     <use x="631.054688" xlink:href="#DejaVuSans-72"/>
    </g>
   </g>
  </g>
 </g>
 <defs>
  <clipPath id="p2a99eb1e93">
   <rect height="270.04" width="277.048" x="56.12" y="24.84"/>
  </clipPath>
 </defs>
</svg>
