<?xml version="1.0" encoding="utf-8" standalone="no"?>
<!DOCTYPE svg PUBLIC "-//W3C//DTD SVG 1.1//EN"
  "http://www.w3.org/Graphics/SVG/1.1/DTD/svg11.dtd">
<!-- Created with matplotlib (http://matplotlib.org/) -->
<svg height="345pt" version="1.1" viewBox="0 0 460 345" width="460pt" xmlns="http://www.w3.org/2000/svg" xmlns:xlink="http://www.w3.org/1999/xlink">
 <defs>
  <style type="text/css">
*{stroke-linecap:butt;stroke-linejoin:round;}
  </style>
 </defs>
 <g id="figure_1">
  <g id="patch_1">
   <path d="M 0 345.6 
L 460.8 345.6 
L 460.8 0 
L 0 0 
z
" style="fill:#ffffff;"/>
  </g>
  <g id="axes_1">
   <g id="patch_2">
    <path d="M 56.12 294.88 
L 333.168 294.88 
L 333.168 24.84 
L 56.12 24.84 
z
" style="fill:#ffffff;"/>
   </g>
   <g id="line2d_1">
    <path d="M 112.122219 294.88 
L 112.122219 289.637523 
L 115.664378 289.637523 
L 115.664378 284.395046 
L 119.223324 284.395046 
L 119.223324 279.152568 
L 121.665528 279.152568 
L 121.665528 273.910091 
L 124.653315 273.910091 
L 124.653315 268.667614 
L 127.819033 268.667614 
L 127.819033 263.425137 
L 130.077743 263.425137 
L 130.077743 258.18266 
L 131.928242 258.18266 
L 131.928242 252.940182 
L 134.158073 252.940182 
L 134.158073 247.697705 
L 135.717765 247.697705 
L 135.717765 242.455228 
L 137.997274 242.455228 
L 137.997274 237.212751 
L 139.885134 237.212751 
L 139.885134 231.970274 
L 141.090735 231.970274 
L 141.090735 226.727797 
L 142.382924 226.727797 
L 142.382924 221.485319 
L 143.301492 221.485319 
L 143.301492 216.242842 
L 144.462941 216.242842 
L 144.462941 211.000365 
L 145.583912 211.000365 
L 145.583912 205.757888 
L 146.403889 205.757888 
L 146.403889 200.515411 
L 146.887358 200.515411 
L 146.887358 195.272933 
L 147.526989 195.272933 
L 147.526989 190.030456 
L 148.253087 190.030456 
L 148.253087 184.787979 
L 149.31058 184.787979 
L 149.31058 179.545502 
L 150.389017 179.545502 
L 150.389017 174.303025 
L 150.85013 174.303025 
L 150.85013 169.060547 
L 151.299196 169.060547 
L 151.299196 163.81807 
L 151.766488 163.81807 
L 151.766488 158.575593 
L 152.163592 158.575593 
L 152.163592 153.333116 
L 152.708304 153.333116 
L 152.708304 148.090639 
L 153.224185 148.090639 
L 153.224185 142.848162 
L 153.497289 142.848162 
L 153.497289 137.605684 
L 154.033698 137.605684 
L 154.033698 132.363207 
L 154.718279 132.363207 
L 154.718279 127.12073 
L 155.161776 127.12073 
L 155.161776 121.878253 
L 155.520164 121.878253 
L 155.520164 116.635776 
L 155.788044 116.635776 
L 155.788044 111.393298 
L 156.128628 111.393298 
L 156.128628 106.150821 
L 156.510136 106.150821 
L 156.510136 100.908344 
L 156.790197 100.908344 
L 156.790197 95.665867 
L 157.231888 95.665867 
L 157.231888 90.42339 
L 157.813731 90.42339 
L 157.813731 85.180912 
L 158.264074 85.180912 
L 158.264074 79.938435 
L 158.691918 79.938435 
L 158.691918 74.695958 
L 159.003793 74.695958 
L 159.003793 69.453481 
L 159.259079 69.453481 
L 159.259079 64.211004 
L 159.596453 64.211004 
L 159.596453 58.968526 
L 159.962116 58.968526 
L 159.962116 53.726049 
L 160.118794 53.726049 
L 160.118794 48.483572 
L 160.554783 48.483572 
L 160.554783 43.241095 
L 160.964566 43.241095 
L 160.964566 37.998618 
L 161.454997 37.998618 
L 161.454997 32.756141 
L 161.836777 32.756141 
L 161.836777 27.513663 
L 333.168 27.513663 
" style="fill:none;stroke:#f5deb3;stroke-linecap:square;stroke-width:4;"/>
   </g>
   <g id="line2d_2">
    <defs>
     <path d="M -0 7.778175 
L 7.778175 0 
L 0 -7.778175 
L -7.778175 -0 
z
" id="mebfd14f26d" style="stroke:#f5deb3;stroke-linejoin:miter;stroke-width:1.5;"/>
    </defs>
    <g>
     <use style="fill:#f5deb3;stroke:#f5deb3;stroke-linejoin:miter;stroke-width:1.5;" x="154.033698" xlink:href="#mebfd14f26d" y="137.605684"/>
     <use style="fill:#f5deb3;stroke:#f5deb3;stroke-linejoin:miter;stroke-width:1.5;" x="161.836777" xlink:href="#mebfd14f26d" y="32.756141"/>
     <use style="fill:#f5deb3;stroke:#f5deb3;stroke-linejoin:miter;stroke-width:1.5;" x="161.836777" xlink:href="#mebfd14f26d" y="27.513663"/>
     <use style="fill:#f5deb3;stroke:#f5deb3;stroke-linejoin:miter;stroke-width:1.5;" x="161.836777" xlink:href="#mebfd14f26d" y="27.513663"/>
     <use style="fill:#f5deb3;stroke:#f5deb3;stroke-linejoin:miter;stroke-width:1.5;" x="333.168" xlink:href="#mebfd14f26d" y="27.513663"/>
    </g>
   </g>
   <g id="line2d_3">
    <path style="fill:none;stroke:#f5deb3;stroke-linecap:square;stroke-width:4;"/>
    <g/>
   </g>
   <g id="line2d_4">
    <path d="M 333.168 27.513663 
L 363.64328 32.86099 
" style="fill:none;stroke:#f5deb3;stroke-linecap:square;stroke-width:4;"/>
    <g>
     <use style="fill:#f5deb3;stroke:#f5deb3;stroke-linejoin:miter;stroke-width:1.5;" x="333.168" xlink:href="#mebfd14f26d" y="27.513663"/>
     <use style="fill:#f5deb3;stroke:#f5deb3;stroke-linejoin:miter;stroke-width:1.5;" x="363.64328" xlink:href="#mebfd14f26d" y="32.86099"/>
    </g>
   </g>
   <g id="matplotlib.axis_1">
    <g id="xtick_1">
     <g id="line2d_5">
      <path clip-path="url(#p483c228aa5)" d="M 56.12 294.88 
L 56.12 24.84 
" style="fill:none;stroke:#b0b0b0;stroke-linecap:square;stroke-width:0.8;"/>
     </g>
     <g id="line2d_6">
      <defs>
       <path d="M 0 0 
L 0 3.5 
" id="m581ba5d877" style="stroke:#000000;stroke-width:0.8;"/>
      </defs>
      <g>
       <use style="stroke:#000000;stroke-width:0.8;" x="56.12" xlink:href="#m581ba5d877" y="294.88"/>
      </g>
     </g>
     <g id="text_1">
      <!-- 0 -->
      <defs>
       <path d="M 31.78125 66.40625 
Q 24.171875 66.40625 20.328125 58.90625 
Q 16.5 51.421875 16.5 36.375 
Q 16.5 21.390625 20.328125 13.890625 
Q 24.171875 6.390625 31.78125 6.390625 
Q 39.453125 6.390625 43.28125 13.890625 
Q 47.125 21.390625 47.125 36.375 
Q 47.125 51.421875 43.28125 58.90625 
Q 39.453125 66.40625 31.78125 66.40625 
z
M 31.78125 74.21875 
Q 44.046875 74.21875 50.515625 64.515625 
Q 56.984375 54.828125 56.984375 36.375 
Q 56.984375 17.96875 50.515625 8.265625 
Q 44.046875 -1.421875 31.78125 -1.421875 
Q 19.53125 -1.421875 13.0625 8.265625 
Q 6.59375 17.96875 6.59375 36.375 
Q 6.59375 54.828125 13.0625 64.515625 
Q 19.53125 74.21875 31.78125 74.21875 
z
" id="DejaVuSans-30"/>
      </defs>
      <g transform="translate(49.7575 317.076875)scale(0.2 -0.2)">
       <use xlink:href="#DejaVuSans-30"/>
      </g>
     </g>
    </g>
    <g id="xtick_2">
     <g id="line2d_7">
      <path clip-path="url(#p483c228aa5)" d="M 135.276571 294.88 
L 135.276571 24.84 
" style="fill:none;stroke:#b0b0b0;stroke-linecap:square;stroke-width:0.8;"/>
     </g>
     <g id="line2d_8">
      <g>
       <use style="stroke:#000000;stroke-width:0.8;" x="135.276571" xlink:href="#m581ba5d877" y="294.88"/>
      </g>
     </g>
     <g id="text_2">
      <!-- 2 -->
      <defs>
       <path d="M 19.1875 8.296875 
L 53.609375 8.296875 
L 53.609375 0 
L 7.328125 0 
L 7.328125 8.296875 
Q 12.9375 14.109375 22.625 23.890625 
Q 32.328125 33.6875 34.8125 36.53125 
Q 39.546875 41.84375 41.421875 45.53125 
Q 43.3125 49.21875 43.3125 52.78125 
Q 43.3125 58.59375 39.234375 62.25 
Q 35.15625 65.921875 28.609375 65.921875 
Q 23.96875 65.921875 18.8125 64.3125 
Q 13.671875 62.703125 7.8125 59.421875 
L 7.8125 69.390625 
Q 13.765625 71.78125 18.9375 73 
Q 24.125 74.21875 28.421875 74.21875 
Q 39.75 74.21875 46.484375 68.546875 
Q 53.21875 62.890625 53.21875 53.421875 
Q 53.21875 48.921875 51.53125 44.890625 
Q 49.859375 40.875 45.40625 35.40625 
Q 44.1875 33.984375 37.640625 27.21875 
Q 31.109375 20.453125 19.1875 8.296875 
z
" id="DejaVuSans-32"/>
      </defs>
      <g transform="translate(128.914071 317.076875)scale(0.2 -0.2)">
       <use xlink:href="#DejaVuSans-32"/>
      </g>
     </g>
    </g>
    <g id="xtick_3">
     <g id="line2d_9">
      <path clip-path="url(#p483c228aa5)" d="M 214.433143 294.88 
L 214.433143 24.84 
" style="fill:none;stroke:#b0b0b0;stroke-linecap:square;stroke-width:0.8;"/>
     </g>
     <g id="line2d_10">
      <g>
       <use style="stroke:#000000;stroke-width:0.8;" x="214.433143" xlink:href="#m581ba5d877" y="294.88"/>
      </g>
     </g>
     <g id="text_3">
      <!-- 4 -->
      <defs>
       <path d="M 37.796875 64.3125 
L 12.890625 25.390625 
L 37.796875 25.390625 
z
M 35.203125 72.90625 
L 47.609375 72.90625 
L 47.609375 25.390625 
L 58.015625 25.390625 
L 58.015625 17.1875 
L 47.609375 17.1875 
L 47.609375 0 
L 37.796875 0 
L 37.796875 17.1875 
L 4.890625 17.1875 
L 4.890625 26.703125 
z
" id="DejaVuSans-34"/>
      </defs>
      <g transform="translate(208.070643 317.076875)scale(0.2 -0.2)">
       <use xlink:href="#DejaVuSans-34"/>
      </g>
     </g>
    </g>
    <g id="xtick_4">
     <g id="line2d_11">
      <path clip-path="url(#p483c228aa5)" d="M 293.589714 294.88 
L 293.589714 24.84 
" style="fill:none;stroke:#b0b0b0;stroke-linecap:square;stroke-width:0.8;"/>
     </g>
     <g id="line2d_12">
      <g>
       <use style="stroke:#000000;stroke-width:0.8;" x="293.589714" xlink:href="#m581ba5d877" y="294.88"/>
      </g>
     </g>
     <g id="text_4">
      <!-- 6 -->
      <defs>
       <path d="M 33.015625 40.375 
Q 26.375 40.375 22.484375 35.828125 
Q 18.609375 31.296875 18.609375 23.390625 
Q 18.609375 15.53125 22.484375 10.953125 
Q 26.375 6.390625 33.015625 6.390625 
Q 39.65625 6.390625 43.53125 10.953125 
Q 47.40625 15.53125 47.40625 23.390625 
Q 47.40625 31.296875 43.53125 35.828125 
Q 39.65625 40.375 33.015625 40.375 
z
M 52.59375 71.296875 
L 52.59375 62.3125 
Q 48.875 64.0625 45.09375 64.984375 
Q 41.3125 65.921875 37.59375 65.921875 
Q 27.828125 65.921875 22.671875 59.328125 
Q 17.53125 52.734375 16.796875 39.40625 
Q 19.671875 43.65625 24.015625 45.921875 
Q 28.375 48.1875 33.59375 48.1875 
Q 44.578125 48.1875 50.953125 41.515625 
Q 57.328125 34.859375 57.328125 23.390625 
Q 57.328125 12.15625 50.6875 5.359375 
Q 44.046875 -1.421875 33.015625 -1.421875 
Q 20.359375 -1.421875 13.671875 8.265625 
Q 6.984375 17.96875 6.984375 36.375 
Q 6.984375 53.65625 15.1875 63.9375 
Q 23.390625 74.21875 37.203125 74.21875 
Q 40.921875 74.21875 44.703125 73.484375 
Q 48.484375 72.75 52.59375 71.296875 
z
" id="DejaVuSans-36"/>
      </defs>
      <g transform="translate(287.227214 317.076875)scale(0.2 -0.2)">
       <use xlink:href="#DejaVuSans-36"/>
      </g>
     </g>
    </g>
    <g id="xtick_5">
     <g id="line2d_13">
      <path clip-path="url(#p483c228aa5)" d="M 56.12 294.88 
L 56.12 24.84 
" style="fill:none;stroke:#b0b0b0;stroke-linecap:square;stroke-width:0.8;"/>
     </g>
     <g id="line2d_14">
      <defs>
       <path d="M 0 0 
L 0 2 
" id="m02554d656c" style="stroke:#000000;stroke-width:0.6;"/>
      </defs>
      <g>
       <use style="stroke:#000000;stroke-width:0.6;" x="56.12" xlink:href="#m02554d656c" y="294.88"/>
      </g>
     </g>
    </g>
    <g id="xtick_6">
     <g id="line2d_15">
      <path clip-path="url(#p483c228aa5)" d="M 95.698286 294.88 
L 95.698286 24.84 
" style="fill:none;stroke:#b0b0b0;stroke-linecap:square;stroke-width:0.8;"/>
     </g>
     <g id="line2d_16">
      <g>
       <use style="stroke:#000000;stroke-width:0.6;" x="95.698286" xlink:href="#m02554d656c" y="294.88"/>
      </g>
     </g>
    </g>
    <g id="xtick_7">
     <g id="line2d_17">
      <path clip-path="url(#p483c228aa5)" d="M 135.276571 294.88 
L 135.276571 24.84 
" style="fill:none;stroke:#b0b0b0;stroke-linecap:square;stroke-width:0.8;"/>
     </g>
     <g id="line2d_18">
      <g>
       <use style="stroke:#000000;stroke-width:0.6;" x="135.276571" xlink:href="#m02554d656c" y="294.88"/>
      </g>
     </g>
    </g>
    <g id="xtick_8">
     <g id="line2d_19">
      <path clip-path="url(#p483c228aa5)" d="M 174.854857 294.88 
L 174.854857 24.84 
" style="fill:none;stroke:#b0b0b0;stroke-linecap:square;stroke-width:0.8;"/>
     </g>
     <g id="line2d_20">
      <g>
       <use style="stroke:#000000;stroke-width:0.6;" x="174.854857" xlink:href="#m02554d656c" y="294.88"/>
      </g>
     </g>
    </g>
    <g id="xtick_9">
     <g id="line2d_21">
      <path clip-path="url(#p483c228aa5)" d="M 214.433143 294.88 
L 214.433143 24.84 
" style="fill:none;stroke:#b0b0b0;stroke-linecap:square;stroke-width:0.8;"/>
     </g>
     <g id="line2d_22">
      <g>
       <use style="stroke:#000000;stroke-width:0.6;" x="214.433143" xlink:href="#m02554d656c" y="294.88"/>
      </g>
     </g>
    </g>
    <g id="xtick_10">
     <g id="line2d_23">
      <path clip-path="url(#p483c228aa5)" d="M 254.011429 294.88 
L 254.011429 24.84 
" style="fill:none;stroke:#b0b0b0;stroke-linecap:square;stroke-width:0.8;"/>
     </g>
     <g id="line2d_24">
      <g>
       <use style="stroke:#000000;stroke-width:0.6;" x="254.011429" xlink:href="#m02554d656c" y="294.88"/>
      </g>
     </g>
    </g>
    <g id="xtick_11">
     <g id="line2d_25">
      <path clip-path="url(#p483c228aa5)" d="M 293.589714 294.88 
L 293.589714 24.84 
" style="fill:none;stroke:#b0b0b0;stroke-linecap:square;stroke-width:0.8;"/>
     </g>
     <g id="line2d_26">
      <g>
       <use style="stroke:#000000;stroke-width:0.6;" x="293.589714" xlink:href="#m02554d656c" y="294.88"/>
      </g>
     </g>
    </g>
    <g id="xtick_12">
     <g id="line2d_27">
      <path clip-path="url(#p483c228aa5)" d="M 333.168 294.88 
L 333.168 24.84 
" style="fill:none;stroke:#b0b0b0;stroke-linecap:square;stroke-width:0.8;"/>
     </g>
     <g id="line2d_28">
      <g>
       <use style="stroke:#000000;stroke-width:0.6;" x="333.168" xlink:href="#m02554d656c" y="294.88"/>
      </g>
     </g>
    </g>
    <g id="text_5">
     <!-- log10(# f-evals / dimension) -->
     <defs>
      <path d="M 9.421875 75.984375 
L 18.40625 75.984375 
L 18.40625 0 
L 9.421875 0 
z
" id="DejaVuSans-6c"/>
      <path d="M 30.609375 48.390625 
Q 23.390625 48.390625 19.1875 42.75 
Q 14.984375 37.109375 14.984375 27.296875 
Q 14.984375 17.484375 19.15625 11.84375 
Q 23.34375 6.203125 30.609375 6.203125 
Q 37.796875 6.203125 41.984375 11.859375 
Q 46.1875 17.53125 46.1875 27.296875 
Q 46.1875 37.015625 41.984375 42.703125 
Q 37.796875 48.390625 30.609375 48.390625 
z
M 30.609375 56 
Q 42.328125 56 49.015625 48.375 
Q 55.71875 40.765625 55.71875 27.296875 
Q 55.71875 13.875 49.015625 6.21875 
Q 42.328125 -1.421875 30.609375 -1.421875 
Q 18.84375 -1.421875 12.171875 6.21875 
Q 5.515625 13.875 5.515625 27.296875 
Q 5.515625 40.765625 12.171875 48.375 
Q 18.84375 56 30.609375 56 
z
" id="DejaVuSans-6f"/>
      <path d="M 45.40625 27.984375 
Q 45.40625 37.75 41.375 43.109375 
Q 37.359375 48.484375 30.078125 48.484375 
Q 22.859375 48.484375 18.828125 43.109375 
Q 14.796875 37.75 14.796875 27.984375 
Q 14.796875 18.265625 18.828125 12.890625 
Q 22.859375 7.515625 30.078125 7.515625 
Q 37.359375 7.515625 41.375 12.890625 
Q 45.40625 18.265625 45.40625 27.984375 
z
M 54.390625 6.78125 
Q 54.390625 -7.171875 48.1875 -13.984375 
Q 42 -20.796875 29.203125 -20.796875 
Q 24.46875 -20.796875 20.265625 -20.09375 
Q 16.0625 -19.390625 12.109375 -17.921875 
L 12.109375 -9.1875 
Q 16.0625 -11.328125 19.921875 -12.34375 
Q 23.78125 -13.375 27.78125 -13.375 
Q 36.625 -13.375 41.015625 -8.765625 
Q 45.40625 -4.15625 45.40625 5.171875 
L 45.40625 9.625 
Q 42.625 4.78125 38.28125 2.390625 
Q 33.9375 0 27.875 0 
Q 17.828125 0 11.671875 7.65625 
Q 5.515625 15.328125 5.515625 27.984375 
Q 5.515625 40.671875 11.671875 48.328125 
Q 17.828125 56 27.875 56 
Q 33.9375 56 38.28125 53.609375 
Q 42.625 51.21875 45.40625 46.390625 
L 45.40625 54.6875 
L 54.390625 54.6875 
z
" id="DejaVuSans-67"/>
      <path d="M 12.40625 8.296875 
L 28.515625 8.296875 
L 28.515625 63.921875 
L 10.984375 60.40625 
L 10.984375 69.390625 
L 28.421875 72.90625 
L 38.28125 72.90625 
L 38.28125 8.296875 
L 54.390625 8.296875 
L 54.390625 0 
L 12.40625 0 
z
" id="DejaVuSans-31"/>
      <path d="M 31 75.875 
Q 24.46875 64.65625 21.28125 53.65625 
Q 18.109375 42.671875 18.109375 31.390625 
Q 18.109375 20.125 21.3125 9.0625 
Q 24.515625 -2 31 -13.1875 
L 23.1875 -13.1875 
Q 15.875 -1.703125 12.234375 9.375 
Q 8.59375 20.453125 8.59375 31.390625 
Q 8.59375 42.28125 12.203125 53.3125 
Q 15.828125 64.359375 23.1875 75.875 
z
" id="DejaVuSans-28"/>
      <path d="M 51.125 44 
L 36.921875 44 
L 32.8125 27.6875 
L 47.125 27.6875 
z
M 43.796875 71.78125 
L 38.71875 51.515625 
L 52.984375 51.515625 
L 58.109375 71.78125 
L 65.921875 71.78125 
L 60.890625 51.515625 
L 76.125 51.515625 
L 76.125 44 
L 58.984375 44 
L 54.984375 27.6875 
L 70.515625 27.6875 
L 70.515625 20.21875 
L 53.078125 20.21875 
L 48 0 
L 40.1875 0 
L 45.21875 20.21875 
L 30.90625 20.21875 
L 25.875 0 
L 18.015625 0 
L 23.09375 20.21875 
L 7.71875 20.21875 
L 7.71875 27.6875 
L 24.90625 27.6875 
L 29 44 
L 13.28125 44 
L 13.28125 51.515625 
L 30.90625 51.515625 
L 35.890625 71.78125 
z
" id="DejaVuSans-23"/>
      <path id="DejaVuSans-20"/>
      <path d="M 37.109375 75.984375 
L 37.109375 68.5 
L 28.515625 68.5 
Q 23.6875 68.5 21.796875 66.546875 
Q 19.921875 64.59375 19.921875 59.515625 
L 19.921875 54.6875 
L 34.71875 54.6875 
L 34.71875 47.703125 
L 19.921875 47.703125 
L 19.921875 0 
L 10.890625 0 
L 10.890625 47.703125 
L 2.296875 47.703125 
L 2.296875 54.6875 
L 10.890625 54.6875 
L 10.890625 58.5 
Q 10.890625 67.625 15.140625 71.796875 
Q 19.390625 75.984375 28.609375 75.984375 
z
" id="DejaVuSans-66"/>
      <path d="M 4.890625 31.390625 
L 31.203125 31.390625 
L 31.203125 23.390625 
L 4.890625 23.390625 
z
" id="DejaVuSans-2d"/>
      <path d="M 56.203125 29.59375 
L 56.203125 25.203125 
L 14.890625 25.203125 
Q 15.484375 15.921875 20.484375 11.0625 
Q 25.484375 6.203125 34.421875 6.203125 
Q 39.59375 6.203125 44.453125 7.46875 
Q 49.3125 8.734375 54.109375 11.28125 
L 54.109375 2.78125 
Q 49.265625 0.734375 44.1875 -0.34375 
Q 39.109375 -1.421875 33.890625 -1.421875 
Q 20.796875 -1.421875 13.15625 6.1875 
Q 5.515625 13.8125 5.515625 26.8125 
Q 5.515625 40.234375 12.765625 48.109375 
Q 20.015625 56 32.328125 56 
Q 43.359375 56 49.78125 48.890625 
Q 56.203125 41.796875 56.203125 29.59375 
z
M 47.21875 32.234375 
Q 47.125 39.59375 43.09375 43.984375 
Q 39.0625 48.390625 32.421875 48.390625 
Q 24.90625 48.390625 20.390625 44.140625 
Q 15.875 39.890625 15.1875 32.171875 
z
" id="DejaVuSans-65"/>
      <path d="M 2.984375 54.6875 
L 12.5 54.6875 
L 29.59375 8.796875 
L 46.6875 54.6875 
L 56.203125 54.6875 
L 35.6875 0 
L 23.484375 0 
z
" id="DejaVuSans-76"/>
      <path d="M 34.28125 27.484375 
Q 23.390625 27.484375 19.1875 25 
Q 14.984375 22.515625 14.984375 16.5 
Q 14.984375 11.71875 18.140625 8.90625 
Q 21.296875 6.109375 26.703125 6.109375 
Q 34.1875 6.109375 38.703125 11.40625 
Q 43.21875 16.703125 43.21875 25.484375 
L 43.21875 27.484375 
z
M 52.203125 31.203125 
L 52.203125 0 
L 43.21875 0 
L 43.21875 8.296875 
Q 40.140625 3.328125 35.546875 0.953125 
Q 30.953125 -1.421875 24.3125 -1.421875 
Q 15.921875 -1.421875 10.953125 3.296875 
Q 6 8.015625 6 15.921875 
Q 6 25.140625 12.171875 29.828125 
Q 18.359375 34.515625 30.609375 34.515625 
L 43.21875 34.515625 
L 43.21875 35.40625 
Q 43.21875 41.609375 39.140625 45 
Q 35.0625 48.390625 27.6875 48.390625 
Q 23 48.390625 18.546875 47.265625 
Q 14.109375 46.140625 10.015625 43.890625 
L 10.015625 52.203125 
Q 14.9375 54.109375 19.578125 55.046875 
Q 24.21875 56 28.609375 56 
Q 40.484375 56 46.34375 49.84375 
Q 52.203125 43.703125 52.203125 31.203125 
z
" id="DejaVuSans-61"/>
      <path d="M 44.28125 53.078125 
L 44.28125 44.578125 
Q 40.484375 46.53125 36.375 47.5 
Q 32.28125 48.484375 27.875 48.484375 
Q 21.1875 48.484375 17.84375 46.4375 
Q 14.5 44.390625 14.5 40.28125 
Q 14.5 37.15625 16.890625 35.375 
Q 19.28125 33.59375 26.515625 31.984375 
L 29.59375 31.296875 
Q 39.15625 29.25 43.1875 25.515625 
Q 47.21875 21.78125 47.21875 15.09375 
Q 47.21875 7.46875 41.1875 3.015625 
Q 35.15625 -1.421875 24.609375 -1.421875 
Q 20.21875 -1.421875 15.453125 -0.5625 
Q 10.6875 0.296875 5.421875 2 
L 5.421875 11.28125 
Q 10.40625 8.6875 15.234375 7.390625 
Q 20.0625 6.109375 24.8125 6.109375 
Q 31.15625 6.109375 34.5625 8.28125 
Q 37.984375 10.453125 37.984375 14.40625 
Q 37.984375 18.0625 35.515625 20.015625 
Q 33.0625 21.96875 24.703125 23.78125 
L 21.578125 24.515625 
Q 13.234375 26.265625 9.515625 29.90625 
Q 5.8125 33.546875 5.8125 39.890625 
Q 5.8125 47.609375 11.28125 51.796875 
Q 16.75 56 26.8125 56 
Q 31.78125 56 36.171875 55.265625 
Q 40.578125 54.546875 44.28125 53.078125 
z
" id="DejaVuSans-73"/>
      <path d="M 25.390625 72.90625 
L 33.6875 72.90625 
L 8.296875 -9.28125 
L 0 -9.28125 
z
" id="DejaVuSans-2f"/>
      <path d="M 45.40625 46.390625 
L 45.40625 75.984375 
L 54.390625 75.984375 
L 54.390625 0 
L 45.40625 0 
L 45.40625 8.203125 
Q 42.578125 3.328125 38.25 0.953125 
Q 33.9375 -1.421875 27.875 -1.421875 
Q 17.96875 -1.421875 11.734375 6.484375 
Q 5.515625 14.40625 5.515625 27.296875 
Q 5.515625 40.1875 11.734375 48.09375 
Q 17.96875 56 27.875 56 
Q 33.9375 56 38.25 53.625 
Q 42.578125 51.265625 45.40625 46.390625 
z
M 14.796875 27.296875 
Q 14.796875 17.390625 18.875 11.75 
Q 22.953125 6.109375 30.078125 6.109375 
Q 37.203125 6.109375 41.296875 11.75 
Q 45.40625 17.390625 45.40625 27.296875 
Q 45.40625 37.203125 41.296875 42.84375 
Q 37.203125 48.484375 30.078125 48.484375 
Q 22.953125 48.484375 18.875 42.84375 
Q 14.796875 37.203125 14.796875 27.296875 
z
" id="DejaVuSans-64"/>
      <path d="M 9.421875 54.6875 
L 18.40625 54.6875 
L 18.40625 0 
L 9.421875 0 
z
M 9.421875 75.984375 
L 18.40625 75.984375 
L 18.40625 64.59375 
L 9.421875 64.59375 
z
" id="DejaVuSans-69"/>
      <path d="M 52 44.1875 
Q 55.375 50.25 60.0625 53.125 
Q 64.75 56 71.09375 56 
Q 79.640625 56 84.28125 50.015625 
Q 88.921875 44.046875 88.921875 33.015625 
L 88.921875 0 
L 79.890625 0 
L 79.890625 32.71875 
Q 79.890625 40.578125 77.09375 44.375 
Q 74.3125 48.1875 68.609375 48.1875 
Q 61.625 48.1875 57.5625 43.546875 
Q 53.515625 38.921875 53.515625 30.90625 
L 53.515625 0 
L 44.484375 0 
L 44.484375 32.71875 
Q 44.484375 40.625 41.703125 44.40625 
Q 38.921875 48.1875 33.109375 48.1875 
Q 26.21875 48.1875 22.15625 43.53125 
Q 18.109375 38.875 18.109375 30.90625 
L 18.109375 0 
L 9.078125 0 
L 9.078125 54.6875 
L 18.109375 54.6875 
L 18.109375 46.1875 
Q 21.1875 51.21875 25.484375 53.609375 
Q 29.78125 56 35.6875 56 
Q 41.65625 56 45.828125 52.96875 
Q 50 49.953125 52 44.1875 
z
" id="DejaVuSans-6d"/>
      <path d="M 54.890625 33.015625 
L 54.890625 0 
L 45.90625 0 
L 45.90625 32.71875 
Q 45.90625 40.484375 42.875 44.328125 
Q 39.84375 48.1875 33.796875 48.1875 
Q 26.515625 48.1875 22.3125 43.546875 
Q 18.109375 38.921875 18.109375 30.90625 
L 18.109375 0 
L 9.078125 0 
L 9.078125 54.6875 
L 18.109375 54.6875 
L 18.109375 46.1875 
Q 21.34375 51.125 25.703125 53.5625 
Q 30.078125 56 35.796875 56 
Q 45.21875 56 50.046875 50.171875 
Q 54.890625 44.34375 54.890625 33.015625 
z
" id="DejaVuSans-6e"/>
      <path d="M 8.015625 75.875 
L 15.828125 75.875 
Q 23.140625 64.359375 26.78125 53.3125 
Q 30.421875 42.28125 30.421875 31.390625 
Q 30.421875 20.453125 26.78125 9.375 
Q 23.140625 -1.703125 15.828125 -13.1875 
L 8.015625 -13.1875 
Q 14.5 -2 17.703125 9.0625 
Q 20.90625 20.125 20.90625 31.390625 
Q 20.90625 42.671875 17.703125 53.65625 
Q 14.5 64.65625 8.015625 75.875 
z
" id="DejaVuSans-29"/>
     </defs>
     <g transform="translate(73.803219 338.153594)scale(0.17 -0.17)">
      <use xlink:href="#DejaVuSans-6c"/>
      <use x="27.783203" xlink:href="#DejaVuSans-6f"/>
      <use x="88.964844" xlink:href="#DejaVuSans-67"/>
      <use x="152.441406" xlink:href="#DejaVuSans-31"/>
      <use x="216.064453" xlink:href="#DejaVuSans-30"/>
      <use x="279.6875" xlink:href="#DejaVuSans-28"/>
      <use x="318.701172" xlink:href="#DejaVuSans-23"/>
      <use x="402.490234" xlink:href="#DejaVuSans-20"/>
      <use x="434.277344" xlink:href="#DejaVuSans-66"/>
      <use x="469.404297" xlink:href="#DejaVuSans-2d"/>
      <use x="505.488281" xlink:href="#DejaVuSans-65"/>
      <use x="567.011719" xlink:href="#DejaVuSans-76"/>
      <use x="626.191406" xlink:href="#DejaVuSans-61"/>
      <use x="687.470703" xlink:href="#DejaVuSans-6c"/>
      <use x="715.253906" xlink:href="#DejaVuSans-73"/>
      <use x="767.353516" xlink:href="#DejaVuSans-20"/>
      <use x="799.140625" xlink:href="#DejaVuSans-2f"/>
      <use x="832.832031" xlink:href="#DejaVuSans-20"/>
      <use x="864.619141" xlink:href="#DejaVuSans-64"/>
      <use x="928.095703" xlink:href="#DejaVuSans-69"/>
      <use x="955.878906" xlink:href="#DejaVuSans-6d"/>
      <use x="1053.291016" xlink:href="#DejaVuSans-65"/>
      <use x="1114.814453" xlink:href="#DejaVuSans-6e"/>
      <use x="1178.193359" xlink:href="#DejaVuSans-73"/>
      <use x="1230.292969" xlink:href="#DejaVuSans-69"/>
      <use x="1258.076172" xlink:href="#DejaVuSans-6f"/>
      <use x="1319.257812" xlink:href="#DejaVuSans-6e"/>
      <use x="1382.636719" xlink:href="#DejaVuSans-29"/>
     </g>
    </g>
   </g>
   <g id="matplotlib.axis_2">
    <g id="ytick_1">
     <g id="line2d_29">
      <path clip-path="url(#p483c228aa5)" d="M 56.12 294.88 
L 333.168 294.88 
" style="fill:none;stroke:#b0b0b0;stroke-linecap:square;stroke-width:0.8;"/>
     </g>
     <g id="line2d_30">
      <defs>
       <path d="M 0 0 
L -3.5 0 
" id="m3905246363" style="stroke:#000000;stroke-width:0.8;"/>
      </defs>
      <g>
       <use style="stroke:#000000;stroke-width:0.8;" x="56.12" xlink:href="#m3905246363" y="294.88"/>
      </g>
     </g>
     <g id="text_6">
      <!-- 0.0 -->
      <defs>
       <path d="M 10.6875 12.40625 
L 21 12.40625 
L 21 0 
L 10.6875 0 
z
" id="DejaVuSans-2e"/>
      </defs>
      <g transform="translate(23.675 300.95875)scale(0.16 -0.16)">
       <use xlink:href="#DejaVuSans-30"/>
       <use x="63.623047" xlink:href="#DejaVuSans-2e"/>
       <use x="95.410156" xlink:href="#DejaVuSans-30"/>
      </g>
     </g>
    </g>
    <g id="ytick_2">
     <g id="line2d_31">
      <path clip-path="url(#p483c228aa5)" d="M 56.12 241.406733 
L 333.168 241.406733 
" style="fill:none;stroke:#b0b0b0;stroke-linecap:square;stroke-width:0.8;"/>
     </g>
     <g id="line2d_32">
      <g>
       <use style="stroke:#000000;stroke-width:0.8;" x="56.12" xlink:href="#m3905246363" y="241.406733"/>
      </g>
     </g>
     <g id="text_7">
      <!-- 0.2 -->
      <g transform="translate(23.675 247.485483)scale(0.16 -0.16)">
       <use xlink:href="#DejaVuSans-30"/>
       <use x="63.623047" xlink:href="#DejaVuSans-2e"/>
       <use x="95.410156" xlink:href="#DejaVuSans-32"/>
      </g>
     </g>
    </g>
    <g id="ytick_3">
     <g id="line2d_33">
      <path clip-path="url(#p483c228aa5)" d="M 56.12 187.933465 
L 333.168 187.933465 
" style="fill:none;stroke:#b0b0b0;stroke-linecap:square;stroke-width:0.8;"/>
     </g>
     <g id="line2d_34">
      <g>
       <use style="stroke:#000000;stroke-width:0.8;" x="56.12" xlink:href="#m3905246363" y="187.933465"/>
      </g>
     </g>
     <g id="text_8">
      <!-- 0.4 -->
      <g transform="translate(23.675 194.012215)scale(0.16 -0.16)">
       <use xlink:href="#DejaVuSans-30"/>
       <use x="63.623047" xlink:href="#DejaVuSans-2e"/>
       <use x="95.410156" xlink:href="#DejaVuSans-34"/>
      </g>
     </g>
    </g>
    <g id="ytick_4">
     <g id="line2d_35">
      <path clip-path="url(#p483c228aa5)" d="M 56.12 134.460198 
L 333.168 134.460198 
" style="fill:none;stroke:#b0b0b0;stroke-linecap:square;stroke-width:0.8;"/>
     </g>
     <g id="line2d_36">
      <g>
       <use style="stroke:#000000;stroke-width:0.8;" x="56.12" xlink:href="#m3905246363" y="134.460198"/>
      </g>
     </g>
     <g id="text_9">
      <!-- 0.6 -->
      <g transform="translate(23.675 140.538948)scale(0.16 -0.16)">
       <use xlink:href="#DejaVuSans-30"/>
       <use x="63.623047" xlink:href="#DejaVuSans-2e"/>
       <use x="95.410156" xlink:href="#DejaVuSans-36"/>
      </g>
     </g>
    </g>
    <g id="ytick_5">
     <g id="line2d_37">
      <path clip-path="url(#p483c228aa5)" d="M 56.12 80.986931 
L 333.168 80.986931 
" style="fill:none;stroke:#b0b0b0;stroke-linecap:square;stroke-width:0.8;"/>
     </g>
     <g id="line2d_38">
      <g>
       <use style="stroke:#000000;stroke-width:0.8;" x="56.12" xlink:href="#m3905246363" y="80.986931"/>
      </g>
     </g>
     <g id="text_10">
      <!-- 0.8 -->
      <defs>
       <path d="M 31.78125 34.625 
Q 24.75 34.625 20.71875 30.859375 
Q 16.703125 27.09375 16.703125 20.515625 
Q 16.703125 13.921875 20.71875 10.15625 
Q 24.75 6.390625 31.78125 6.390625 
Q 38.8125 6.390625 42.859375 10.171875 
Q 46.921875 13.96875 46.921875 20.515625 
Q 46.921875 27.09375 42.890625 30.859375 
Q 38.875 34.625 31.78125 34.625 
z
M 21.921875 38.8125 
Q 15.578125 40.375 12.03125 44.71875 
Q 8.5 49.078125 8.5 55.328125 
Q 8.5 64.0625 14.71875 69.140625 
Q 20.953125 74.21875 31.78125 74.21875 
Q 42.671875 74.21875 48.875 69.140625 
Q 55.078125 64.0625 55.078125 55.328125 
Q 55.078125 49.078125 51.53125 44.71875 
Q 48 40.375 41.703125 38.8125 
Q 48.828125 37.15625 52.796875 32.3125 
Q 56.78125 27.484375 56.78125 20.515625 
Q 56.78125 9.90625 50.3125 4.234375 
Q 43.84375 -1.421875 31.78125 -1.421875 
Q 19.734375 -1.421875 13.25 4.234375 
Q 6.78125 9.90625 6.78125 20.515625 
Q 6.78125 27.484375 10.78125 32.3125 
Q 14.796875 37.15625 21.921875 38.8125 
z
M 18.3125 54.390625 
Q 18.3125 48.734375 21.84375 45.5625 
Q 25.390625 42.390625 31.78125 42.390625 
Q 38.140625 42.390625 41.71875 45.5625 
Q 45.3125 48.734375 45.3125 54.390625 
Q 45.3125 60.0625 41.71875 63.234375 
Q 38.140625 66.40625 31.78125 66.40625 
Q 25.390625 66.40625 21.84375 63.234375 
Q 18.3125 60.0625 18.3125 54.390625 
z
" id="DejaVuSans-38"/>
      </defs>
      <g transform="translate(23.675 87.065681)scale(0.16 -0.16)">
       <use xlink:href="#DejaVuSans-30"/>
       <use x="63.623047" xlink:href="#DejaVuSans-2e"/>
       <use x="95.410156" xlink:href="#DejaVuSans-38"/>
      </g>
     </g>
    </g>
    <g id="ytick_6">
     <g id="line2d_39">
      <path clip-path="url(#p483c228aa5)" d="M 56.12 27.513663 
L 333.168 27.513663 
" style="fill:none;stroke:#b0b0b0;stroke-linecap:square;stroke-width:0.8;"/>
     </g>
     <g id="line2d_40">
      <g>
       <use style="stroke:#000000;stroke-width:0.8;" x="56.12" xlink:href="#m3905246363" y="27.513663"/>
      </g>
     </g>
     <g id="text_11">
      <!-- 1.0 -->
      <g transform="translate(23.675 33.592413)scale(0.16 -0.16)">
       <use xlink:href="#DejaVuSans-31"/>
       <use x="63.623047" xlink:href="#DejaVuSans-2e"/>
       <use x="95.410156" xlink:href="#DejaVuSans-30"/>
      </g>
     </g>
    </g>
    <g id="text_12">
     <!-- Fraction of function,target pairs -->
     <defs>
      <path d="M 9.8125 72.90625 
L 51.703125 72.90625 
L 51.703125 64.59375 
L 19.671875 64.59375 
L 19.671875 43.109375 
L 48.578125 43.109375 
L 48.578125 34.8125 
L 19.671875 34.8125 
L 19.671875 0 
L 9.8125 0 
z
" id="DejaVuSans-46"/>
      <path d="M 41.109375 46.296875 
Q 39.59375 47.171875 37.8125 47.578125 
Q 36.03125 48 33.890625 48 
Q 26.265625 48 22.1875 43.046875 
Q 18.109375 38.09375 18.109375 28.8125 
L 18.109375 0 
L 9.078125 0 
L 9.078125 54.6875 
L 18.109375 54.6875 
L 18.109375 46.1875 
Q 20.953125 51.171875 25.484375 53.578125 
Q 30.03125 56 36.53125 56 
Q 37.453125 56 38.578125 55.875 
Q 39.703125 55.765625 41.0625 55.515625 
z
" id="DejaVuSans-72"/>
      <path d="M 48.78125 52.59375 
L 48.78125 44.1875 
Q 44.96875 46.296875 41.140625 47.34375 
Q 37.3125 48.390625 33.40625 48.390625 
Q 24.65625 48.390625 19.8125 42.84375 
Q 14.984375 37.3125 14.984375 27.296875 
Q 14.984375 17.28125 19.8125 11.734375 
Q 24.65625 6.203125 33.40625 6.203125 
Q 37.3125 6.203125 41.140625 7.25 
Q 44.96875 8.296875 48.78125 10.40625 
L 48.78125 2.09375 
Q 45.015625 0.34375 40.984375 -0.53125 
Q 36.96875 -1.421875 32.421875 -1.421875 
Q 20.0625 -1.421875 12.78125 6.34375 
Q 5.515625 14.109375 5.515625 27.296875 
Q 5.515625 40.671875 12.859375 48.328125 
Q 20.21875 56 33.015625 56 
Q 37.15625 56 41.109375 55.140625 
Q 45.0625 54.296875 48.78125 52.59375 
z
" id="DejaVuSans-63"/>
      <path d="M 18.3125 70.21875 
L 18.3125 54.6875 
L 36.8125 54.6875 
L 36.8125 47.703125 
L 18.3125 47.703125 
L 18.3125 18.015625 
Q 18.3125 11.328125 20.140625 9.421875 
Q 21.96875 7.515625 27.59375 7.515625 
L 36.8125 7.515625 
L 36.8125 0 
L 27.59375 0 
Q 17.1875 0 13.234375 3.875 
Q 9.28125 7.765625 9.28125 18.015625 
L 9.28125 47.703125 
L 2.6875 47.703125 
L 2.6875 54.6875 
L 9.28125 54.6875 
L 9.28125 70.21875 
z
" id="DejaVuSans-74"/>
      <path d="M 8.5 21.578125 
L 8.5 54.6875 
L 17.484375 54.6875 
L 17.484375 21.921875 
Q 17.484375 14.15625 20.5 10.265625 
Q 23.53125 6.390625 29.59375 6.390625 
Q 36.859375 6.390625 41.078125 11.03125 
Q 45.3125 15.671875 45.3125 23.6875 
L 45.3125 54.6875 
L 54.296875 54.6875 
L 54.296875 0 
L 45.3125 0 
L 45.3125 8.40625 
Q 42.046875 3.421875 37.71875 1 
Q 33.40625 -1.421875 27.6875 -1.421875 
Q 18.265625 -1.421875 13.375 4.4375 
Q 8.5 10.296875 8.5 21.578125 
z
M 31.109375 56 
z
" id="DejaVuSans-75"/>
      <path d="M 11.71875 12.40625 
L 22.015625 12.40625 
L 22.015625 4 
L 14.015625 -11.625 
L 7.71875 -11.625 
L 11.71875 4 
z
" id="DejaVuSans-2c"/>
      <path d="M 18.109375 8.203125 
L 18.109375 -20.796875 
L 9.078125 -20.796875 
L 9.078125 54.6875 
L 18.109375 54.6875 
L 18.109375 46.390625 
Q 20.953125 51.265625 25.265625 53.625 
Q 29.59375 56 35.59375 56 
Q 45.5625 56 51.78125 48.09375 
Q 58.015625 40.1875 58.015625 27.296875 
Q 58.015625 14.40625 51.78125 6.484375 
Q 45.5625 -1.421875 35.59375 -1.421875 
Q 29.59375 -1.421875 25.265625 0.953125 
Q 20.953125 3.328125 18.109375 8.203125 
z
M 48.6875 27.296875 
Q 48.6875 37.203125 44.609375 42.84375 
Q 40.53125 48.484375 33.40625 48.484375 
Q 26.265625 48.484375 22.1875 42.84375 
Q 18.109375 37.203125 18.109375 27.296875 
Q 18.109375 17.390625 22.1875 11.75 
Q 26.265625 6.109375 33.40625 6.109375 
Q 40.53125 6.109375 44.609375 11.75 
Q 48.6875 17.390625 48.6875 27.296875 
z
" id="DejaVuSans-70"/>
     </defs>
     <g transform="translate(16.139531 294.999375)rotate(-90)scale(0.17 -0.17)">
      <use xlink:href="#DejaVuSans-46"/>
      <use x="57.410156" xlink:href="#DejaVuSans-72"/>
      <use x="98.523438" xlink:href="#DejaVuSans-61"/>
      <use x="159.802734" xlink:href="#DejaVuSans-63"/>
      <use x="214.783203" xlink:href="#DejaVuSans-74"/>
      <use x="253.992188" xlink:href="#DejaVuSans-69"/>
      <use x="281.775391" xlink:href="#DejaVuSans-6f"/>
      <use x="342.957031" xlink:href="#DejaVuSans-6e"/>
      <use x="406.335938" xlink:href="#DejaVuSans-20"/>
      <use x="438.123047" xlink:href="#DejaVuSans-6f"/>
      <use x="499.304688" xlink:href="#DejaVuSans-66"/>
      <use x="534.509766" xlink:href="#DejaVuSans-20"/>
      <use x="566.296875" xlink:href="#DejaVuSans-66"/>
      <use x="601.501953" xlink:href="#DejaVuSans-75"/>
      <use x="664.880859" xlink:href="#DejaVuSans-6e"/>
      <use x="728.259766" xlink:href="#DejaVuSans-63"/>
      <use x="783.240234" xlink:href="#DejaVuSans-74"/>
      <use x="822.449219" xlink:href="#DejaVuSans-69"/>
      <use x="850.232422" xlink:href="#DejaVuSans-6f"/>
      <use x="911.414062" xlink:href="#DejaVuSans-6e"/>
      <use x="974.792969" xlink:href="#DejaVuSans-2c"/>
      <use x="1006.580078" xlink:href="#DejaVuSans-74"/>
      <use x="1045.789062" xlink:href="#DejaVuSans-61"/>
      <use x="1107.068359" xlink:href="#DejaVuSans-72"/>
      <use x="1148.166016" xlink:href="#DejaVuSans-67"/>
      <use x="1211.642578" xlink:href="#DejaVuSans-65"/>
      <use x="1273.166016" xlink:href="#DejaVuSans-74"/>
      <use x="1312.375" xlink:href="#DejaVuSans-20"/>
      <use x="1344.162109" xlink:href="#DejaVuSans-70"/>
      <use x="1407.638672" xlink:href="#DejaVuSans-61"/>
      <use x="1468.917969" xlink:href="#DejaVuSans-69"/>
      <use x="1496.701172" xlink:href="#DejaVuSans-72"/>
      <use x="1537.814453" xlink:href="#DejaVuSans-73"/>
     </g>
    </g>
   </g>
   <g id="line2d_41">
    <defs>
     <path d="M 0 1.5 
C 0.397805 1.5 0.77937 1.341951 1.06066 1.06066 
C 1.341951 0.77937 1.5 0.397805 1.5 0 
C 1.5 -0.397805 1.341951 -0.77937 1.06066 -1.06066 
C 0.77937 -1.341951 0.397805 -1.5 0 -1.5 
C -0.397805 -1.5 -0.77937 -1.341951 -1.06066 -1.06066 
C -1.341951 -0.77937 -1.5 -0.397805 -1.5 0 
C -1.5 0.397805 -1.341951 0.77937 -1.06066 1.06066 
C -0.77937 1.341951 -0.397805 1.5 0 1.5 
z
" id="m576a02be84" style="stroke:#f5deb3;"/>
    </defs>
    <g>
     <use style="fill:#f5deb3;stroke:#f5deb3;" x="161.836777" xlink:href="#m576a02be84" y="27.513663"/>
     <use style="fill:#f5deb3;stroke:#f5deb3;" x="161.836777" xlink:href="#m576a02be84" y="27.513663"/>
    </g>
   </g>
   <g id="line2d_42">
    <defs>
     <path d="M 0 1.5 
C 0.397805 1.5 0.77937 1.341951 1.06066 1.06066 
C 1.341951 0.77937 1.5 0.397805 1.5 0 
C 1.5 -0.397805 1.341951 -0.77937 1.06066 -1.06066 
C 0.77937 -1.341951 0.397805 -1.5 0 -1.5 
C -0.397805 -1.5 -0.77937 -1.341951 -1.06066 -1.06066 
C -1.341951 -0.77937 -1.5 -0.397805 -1.5 0 
C -1.5 0.397805 -1.341951 0.77937 -1.06066 1.06066 
C -0.77937 1.341951 -0.397805 1.5 0 1.5 
z
" id="mc6517ed631" style="stroke:#000080;"/>
    </defs>
    <g>
     <use style="fill:#000080;stroke:#000080;" x="236.033891" xlink:href="#mc6517ed631" y="27.513663"/>
     <use style="fill:#000080;stroke:#000080;" x="236.033891" xlink:href="#mc6517ed631" y="27.513663"/>
    </g>
   </g>
   <g id="line2d_43">
    <path d="M 126.496178 294.88 
L 126.496178 293.831505 
L 129.819968 293.831505 
L 129.843562 292.258761 
L 129.949339 292.258761 
L 129.949339 291.734514 
L 131.537454 291.734514 
L 131.537454 291.210266 
L 134.084539 291.210266 
L 134.102952 290.161771 
L 134.349617 290.161771 
L 134.349617 289.637523 
L 134.779579 289.637523 
L 134.779579 289.113275 
L 136.77361 289.113275 
L 136.77361 288.589027 
L 137.369718 288.589027 
L 137.369718 288.06478 
L 138.403266 288.06478 
L 138.453347 286.492036 
L 139.167019 286.492036 
L 139.167019 285.967789 
L 142.078997 285.967789 
L 142.078997 285.443541 
L 142.41132 285.443541 
L 142.41132 284.919293 
L 143.946604 284.919293 
L 144.024275 283.870798 
L 144.07071 283.870798 
L 144.07071 283.34655 
L 145.36071 283.34655 
L 145.36071 282.822302 
L 146.223002 282.822302 
L 146.318205 281.773807 
L 146.786468 281.773807 
L 146.826017 280.725312 
L 147.048428 280.725312 
L 147.048428 280.201064 
L 147.387364 280.201064 
L 147.387364 279.676816 
L 148.321624 279.676816 
L 148.321624 279.152568 
L 148.672099 279.152568 
L 148.672099 278.628321 
L 148.965261 278.628321 
L 148.965261 278.104073 
L 149.756771 278.104073 
L 149.786355 277.055578 
L 150.053988 277.055578 
L 150.053988 276.53133 
L 150.349729 276.53133 
L 150.349729 276.007082 
L 151.064128 276.007082 
L 151.163317 274.434339 
L 151.370105 274.434339 
L 151.370105 273.910091 
L 152.144276 273.910091 
L 152.144276 273.385844 
L 152.346026 273.385844 
L 152.346026 272.861596 
L 152.491855 272.861596 
L 152.491855 272.337348 
L 153.142313 272.337348 
L 153.142313 271.8131 
L 154.300016 271.8131 
L 154.300016 271.288853 
L 154.562271 271.288853 
L 154.612571 270.240357 
L 155.072357 270.240357 
L 155.172583 269.191862 
L 155.845279 269.191862 
L 155.845279 268.667614 
L 156.777901 268.667614 
L 156.861341 267.094871 
L 157.068186 267.094871 
L 157.068186 266.570623 
L 157.618059 266.570623 
L 157.618059 266.046375 
L 157.896913 266.046375 
L 157.896913 265.522128 
L 158.497144 265.522128 
L 158.50382 264.473632 
L 158.661078 264.473632 
L 158.661078 263.949385 
L 160.670903 263.949385 
L 160.670903 263.425137 
L 161.070295 263.425137 
L 161.070295 262.900889 
L 161.222932 262.900889 
L 161.222932 262.376641 
L 162.150973 262.376641 
L 162.20129 261.328146 
L 163.495344 261.328146 
L 163.495344 260.803898 
L 163.94379 260.803898 
L 163.94379 260.279651 
L 164.661477 260.279651 
L 164.661477 259.755403 
L 164.890106 259.755403 
L 164.890106 259.231155 
L 165.138437 259.231155 
L 165.138437 258.706907 
L 165.418982 258.706907 
L 165.418982 258.18266 
L 165.855351 258.18266 
L 165.897371 257.134164 
L 166.153065 257.134164 
L 166.153065 256.609917 
L 166.328968 256.609917 
L 166.352943 255.561421 
L 166.755499 255.561421 
L 166.829683 254.512926 
L 167.585939 254.512926 
L 167.638331 253.46443 
L 167.922383 253.46443 
L 167.922383 252.940182 
L 168.541427 252.940182 
L 168.605832 251.891687 
L 169.226217 251.891687 
L 169.226217 251.367439 
L 169.708283 251.367439 
L 169.708283 250.843192 
L 169.889357 250.843192 
L 169.96948 249.270448 
L 170.264975 249.270448 
L 170.264975 248.746201 
L 170.386892 248.746201 
L 170.386892 248.221953 
L 170.688503 248.221953 
L 170.786787 247.173458 
L 170.919125 247.173458 
L 170.919125 246.64921 
L 171.04187 246.64921 
L 171.099708 245.600714 
L 171.229668 245.600714 
L 171.229668 245.076467 
L 171.649 245.076467 
L 171.649 244.552219 
L 172.343175 244.552219 
L 172.410678 243.503724 
L 172.932724 243.503724 
L 172.932724 242.979476 
L 173.395465 242.979476 
L 173.441248 241.93098 
L 173.560271 241.93098 
L 173.560271 241.406733 
L 173.93969 241.406733 
L 173.93969 240.882485 
L 174.385267 240.882485 
L 174.385267 240.358237 
L 174.705529 240.358237 
L 174.761787 239.309742 
L 174.971344 239.309742 
L 174.971344 238.785494 
L 175.754772 238.785494 
L 175.754772 238.261246 
L 175.910657 238.261246 
L 175.910657 237.736999 
L 176.13708 237.736999 
L 176.13708 237.212751 
L 176.310884 237.212751 
L 176.310884 236.688503 
L 176.660273 236.688503 
L 176.660273 236.164255 
L 177.131161 236.164255 
L 177.225757 235.11576 
L 177.293008 235.11576 
L 177.293008 234.591512 
L 177.601217 234.591512 
L 177.601217 234.067265 
L 177.722387 234.067265 
L 177.722387 233.543017 
L 177.893917 233.543017 
L 177.946408 232.494521 
L 178.081569 232.494521 
L 178.081569 231.970274 
L 178.261556 231.970274 
L 178.261556 231.446026 
L 178.390074 231.446026 
L 178.390074 230.921778 
L 178.66562 230.921778 
L 178.76996 229.349035 
L 178.806193 229.349035 
L 178.806193 228.824787 
L 179.052999 228.824787 
L 179.052999 228.30054 
L 179.437107 228.30054 
L 179.53099 226.727797 
L 179.62892 226.727797 
L 179.62892 226.203549 
L 179.766383 226.203549 
L 179.844351 225.155053 
L 179.949464 225.155053 
L 179.949464 224.630806 
L 180.382934 224.630806 
L 180.382934 224.106558 
L 180.504005 224.106558 
L 180.608248 222.533815 
L 180.650014 222.533815 
L 180.678823 221.485319 
L 181.15775 221.485319 
L 181.15775 220.961072 
L 181.457101 220.961072 
L 181.457101 220.436824 
L 181.634704 220.436824 
L 181.670006 219.388328 
L 181.797297 219.388328 
L 181.820809 218.339833 
L 181.923653 218.339833 
L 182.030415 217.291338 
L 182.081856 217.291338 
L 182.081856 216.76709 
L 182.199979 216.76709 
L 182.307829 215.718594 
L 182.457029 215.718594 
L 182.457029 215.194347 
L 182.762452 215.194347 
L 182.779262 214.145851 
L 182.98078 214.145851 
L 183.052411 212.573108 
L 183.20536 212.573108 
L 183.259205 211.524613 
L 183.459373 211.524613 
L 183.525409 210.476117 
L 183.573605 210.476117 
L 183.675253 209.427622 
L 183.689652 209.427622 
L 183.746615 207.854879 
L 183.91993 207.854879 
L 184.021574 205.23364 
L 184.068903 205.23364 
L 184.15467 204.185145 
L 184.334339 204.185145 
L 184.392169 202.612401 
L 184.446363 202.612401 
L 184.446363 202.088154 
L 184.617668 202.088154 
L 184.617668 201.563906 
L 184.738992 201.563906 
L 184.738992 201.039658 
L 184.955718 201.039658 
L 184.955718 200.515411 
L 185.267563 200.515411 
L 185.267563 199.991163 
L 185.387195 199.991163 
L 185.432772 197.894172 
L 185.65061 197.894172 
L 185.745737 195.797181 
L 186.036072 195.797181 
L 186.089354 194.748686 
L 186.273443 194.748686 
L 186.273443 194.224438 
L 186.409569 194.224438 
L 186.409569 193.70019 
L 186.647499 193.70019 
L 186.697627 192.651695 
L 186.812455 192.651695 
L 186.83002 191.603199 
L 186.989848 191.603199 
L 186.989848 191.078952 
L 187.183056 191.078952 
L 187.283023 188.457713 
L 187.464318 188.457713 
L 187.49483 187.409218 
L 187.628604 187.409218 
L 187.716669 185.312227 
L 187.81278 185.312227 
L 187.865272 184.263731 
L 188.001805 184.263731 
L 188.046544 183.215236 
L 188.451836 183.215236 
L 188.452616 182.16674 
L 188.599266 182.16674 
L 188.644405 181.118245 
L 188.761139 181.118245 
L 188.854264 179.545502 
L 188.914297 179.545502 
L 188.995276 178.497006 
L 189.20353 178.497006 
L 189.291697 177.448511 
L 189.465584 177.448511 
L 189.465584 176.924263 
L 189.736001 176.924263 
L 189.747568 175.875768 
L 189.970514 175.875768 
L 190.074708 174.303025 
L 190.59226 174.303025 
L 190.689685 172.206034 
L 190.760009 172.206034 
L 190.868005 171.157538 
L 191.030079 171.157538 
L 191.127728 170.109043 
L 191.179006 170.109043 
L 191.179006 169.584795 
L 191.308845 169.584795 
L 191.367809 168.5363 
L 191.578614 168.5363 
L 191.684509 166.439309 
L 191.696449 166.439309 
L 191.801302 164.866566 
L 191.991357 164.866566 
L 192.085286 162.245327 
L 192.127813 162.245327 
L 192.127813 161.721079 
L 192.250703 161.721079 
L 192.253827 160.672584 
L 192.388843 160.672584 
L 192.451942 159.624089 
L 192.625502 159.624089 
L 192.701743 158.575593 
L 193.046073 158.575593 
L 193.143326 156.478602 
L 193.167924 156.478602 
L 193.167924 155.954354 
L 193.397087 155.954354 
L 193.438241 154.905859 
L 193.527508 154.905859 
L 193.578475 152.808868 
L 193.784274 152.808868 
L 193.881996 150.711877 
L 193.987638 150.711877 
L 194.07326 148.090639 
L 194.16349 148.090639 
L 194.23461 146.517896 
L 194.343646 146.517896 
L 194.454468 143.372409 
L 194.532331 143.372409 
L 194.570039 142.323914 
L 194.674805 142.323914 
L 194.682128 141.275418 
L 194.815837 141.275418 
L 194.917782 140.226923 
L 194.927409 140.226923 
L 195.001034 138.65418 
L 195.120933 138.65418 
L 195.221352 134.984446 
L 195.300273 134.984446 
L 195.407454 132.887455 
L 195.502857 132.887455 
L 195.59722 131.314712 
L 195.732698 131.314712 
L 195.774483 130.266216 
L 195.934817 130.266216 
L 195.977371 127.12073 
L 196.151772 127.12073 
L 196.253788 125.547987 
L 196.295314 125.547987 
L 196.338711 124.499491 
L 196.429586 124.499491 
L 196.516084 123.450996 
L 196.669436 123.450996 
L 196.769154 121.354005 
L 197.046462 121.354005 
L 197.100731 119.781262 
L 197.180173 119.781262 
L 197.216013 118.208519 
L 197.328203 118.208519 
L 197.421639 116.635776 
L 197.498924 116.635776 
L 197.587318 115.063032 
L 197.68346 115.063032 
L 197.774763 112.966042 
L 197.854991 112.966042 
L 197.854991 111.917546 
L 198.056276 111.917546 
L 198.056276 111.393298 
L 198.365237 111.393298 
L 198.449079 109.296308 
L 198.594393 109.296308 
L 198.683574 106.675069 
L 198.829272 106.675069 
L 198.829272 106.150821 
L 198.94647 106.150821 
L 199.04416 104.05383 
L 199.098986 104.05383 
L 199.140252 103.005335 
L 199.30309 103.005335 
L 199.409287 101.432592 
L 199.45413 101.432592 
L 199.560218 99.859849 
L 199.6358 99.859849 
L 199.686544 98.287105 
L 199.871 98.287105 
L 199.871 97.762858 
L 200.090756 97.762858 
L 200.124772 96.714362 
L 200.222295 96.714362 
L 200.291309 95.665867 
L 200.4483 95.665867 
L 200.531278 94.617371 
L 200.571367 94.617371 
L 200.571367 94.093124 
L 200.709798 94.093124 
L 200.766802 91.996133 
L 200.830635 91.996133 
L 200.913868 90.947637 
L 201.092214 90.947637 
L 201.099123 89.899142 
L 201.315986 89.899142 
L 201.414879 87.802151 
L 201.564886 87.802151 
L 201.594658 86.753656 
L 201.710352 86.753656 
L 201.779935 85.180912 
L 201.859064 85.180912 
L 201.859064 84.656665 
L 202.01836 84.656665 
L 202.124565 83.083922 
L 202.215253 83.083922 
L 202.215253 82.559674 
L 202.340062 82.559674 
L 202.413547 81.511178 
L 202.674771 81.511178 
L 202.743619 79.938435 
L 202.857924 79.938435 
L 202.857924 79.414188 
L 202.987036 79.414188 
L 203.019289 78.365692 
L 203.110703 78.365692 
L 203.150679 77.317197 
L 203.233982 77.317197 
L 203.304078 76.268701 
L 203.855269 76.268701 
L 203.855269 75.744454 
L 204.136817 75.744454 
L 204.157456 74.695958 
L 204.775611 74.695958 
L 204.858917 73.647463 
L 205.076843 73.647463 
L 205.076843 73.123215 
L 206.088637 73.123215 
L 206.088637 72.598967 
L 206.386296 72.598967 
L 206.452736 71.550472 
L 206.666065 71.550472 
L 206.666065 71.026224 
L 206.890112 71.026224 
L 206.906366 69.977729 
L 207.241317 69.977729 
L 207.26233 68.929233 
L 207.357414 68.929233 
L 207.357414 68.404985 
L 207.626657 68.404985 
L 207.692169 67.35649 
L 208.159871 67.35649 
L 208.159871 66.832242 
L 208.457125 66.832242 
L 208.457125 66.307995 
L 209.165913 66.307995 
L 209.232919 65.259499 
L 209.320623 65.259499 
L 209.320623 64.735251 
L 209.468905 64.735251 
L 209.468905 64.211004 
L 209.879367 64.211004 
L 209.879367 63.686756 
L 209.99569 63.686756 
L 210.067966 62.638261 
L 210.126806 62.638261 
L 210.126806 62.114013 
L 210.44373 62.114013 
L 210.514367 61.065517 
L 210.578585 61.065517 
L 210.578585 60.54127 
L 210.919444 60.54127 
L 210.919444 60.017022 
L 211.352864 60.017022 
L 211.352864 59.492774 
L 211.849096 59.492774 
L 211.938162 58.444279 
L 212.281021 58.444279 
L 212.376699 56.871536 
L 212.488505 56.871536 
L 212.526477 55.82304 
L 213.653316 55.82304 
L 213.653316 55.298792 
L 213.882369 55.298792 
L 213.988706 53.726049 
L 214.628834 53.726049 
L 214.628834 53.201802 
L 214.860929 53.201802 
L 214.953063 50.580563 
L 215.213649 50.580563 
L 215.213649 50.056315 
L 215.41483 50.056315 
L 215.41483 49.532068 
L 216.062954 49.532068 
L 216.062954 49.00782 
L 216.410549 49.00782 
L 216.473555 47.435077 
L 216.750878 47.435077 
L 216.815419 46.386581 
L 217.052159 46.386581 
L 217.052159 45.862334 
L 217.175033 45.862334 
L 217.175033 45.338086 
L 217.718735 45.338086 
L 217.718735 44.813838 
L 217.898251 44.813838 
L 217.964791 43.241095 
L 218.374779 43.241095 
L 218.47174 42.192599 
L 218.65436 42.192599 
L 218.65436 41.668352 
L 218.784025 41.668352 
L 218.873999 40.619856 
L 218.969315 40.619856 
L 218.969315 40.095609 
L 219.093096 40.095609 
L 219.093096 39.571361 
L 219.20994 39.571361 
L 219.20994 39.047113 
L 219.342602 39.047113 
L 219.434526 37.47437 
L 219.847257 37.47437 
L 219.847257 36.950122 
L 220.471769 36.950122 
L 220.551723 35.901627 
L 220.650712 35.901627 
L 220.650712 35.377379 
L 221.206095 35.377379 
L 221.206095 34.853131 
L 221.415076 34.853131 
L 221.415076 34.328884 
L 222.752158 34.328884 
L 222.839915 32.756141 
L 222.987992 32.756141 
L 222.987992 32.231893 
L 223.711379 32.231893 
L 223.711379 31.707645 
L 224.132672 31.707645 
L 224.132672 31.183397 
L 224.377331 31.183397 
L 224.377331 30.65915 
L 226.800185 30.65915 
L 226.800185 30.134902 
L 227.027122 30.134902 
L 227.027122 29.610654 
L 227.44005 29.610654 
L 227.44005 29.086407 
L 228.10578 29.086407 
L 228.10578 28.562159 
L 232.837829 28.562159 
L 232.837829 28.037911 
L 236.033891 28.037911 
L 236.033891 27.513663 
L 333.168 27.513663 
L 333.168 27.513663 
" style="fill:none;stroke:#000080;stroke-linecap:square;stroke-width:1.5;"/>
   </g>
   <g id="line2d_44">
    <defs>
     <path d="M 0 6 
C 1.591219 6 3.117479 5.367802 4.242641 4.242641 
C 5.367802 3.117479 6 1.591219 6 0 
C 6 -1.591219 5.367802 -3.117479 4.242641 -4.242641 
C 3.117479 -5.367802 1.591219 -6 0 -6 
C -1.591219 -6 -3.117479 -5.367802 -4.242641 -4.242641 
C -5.367802 -3.117479 -6 -1.591219 -6 0 
C -6 1.591219 -5.367802 3.117479 -4.242641 4.242641 
C -3.117479 5.367802 -1.591219 6 0 6 
z
" id="m35826411fe" style="stroke:#000080;stroke-width:1.5;"/>
    </defs>
    <g>
     <use style="fill:none;stroke:#000080;stroke-width:1.5;" x="158.661078" xlink:href="#m35826411fe" y="264.473632"/>
     <use style="fill:none;stroke:#000080;stroke-width:1.5;" x="194.928211" xlink:href="#m35826411fe" y="139.702675"/>
     <use style="fill:none;stroke:#000080;stroke-width:1.5;" x="236.033891" xlink:href="#m35826411fe" y="28.037911"/>
     <use style="fill:none;stroke:#000080;stroke-width:1.5;" x="236.033891" xlink:href="#m35826411fe" y="27.513663"/>
     <use style="fill:none;stroke:#000080;stroke-width:1.5;" x="333.168" xlink:href="#m35826411fe" y="27.513663"/>
    </g>
   </g>
   <g id="line2d_45">
    <path style="fill:none;stroke:#000080;stroke-linecap:square;stroke-width:1.5;"/>
    <g/>
   </g>
   <g id="line2d_46">
    <path clip-path="url(#p483c228aa5)" d="M 205.789712 73.123215 
" style="fill:none;stroke:#000080;stroke-linecap:square;stroke-width:1.5;"/>
    <defs>
     <path d="M -12 12 
L 12 -12 
M -12 -12 
L 12 12 
" id="m82064e915c" style="stroke:#000080;"/>
    </defs>
    <g clip-path="url(#p483c228aa5)">
     <use style="fill:#000080;stroke:#000080;" x="205.789712" xlink:href="#m82064e915c" y="73.123215"/>
    </g>
   </g>
   <g id="line2d_47">
    <defs>
     <path d="M 0 1.5 
C 0.397805 1.5 0.77937 1.341951 1.06066 1.06066 
C 1.341951 0.77937 1.5 0.397805 1.5 0 
C 1.5 -0.397805 1.341951 -0.77937 1.06066 -1.06066 
C 0.77937 -1.341951 0.397805 -1.5 0 -1.5 
C -0.397805 -1.5 -0.77937 -1.341951 -1.06066 -1.06066 
C -1.341951 -0.77937 -1.5 -0.397805 -1.5 0 
C -1.5 0.397805 -1.341951 0.77937 -1.06066 1.06066 
C -0.77937 1.341951 -0.397805 1.5 0 1.5 
z
" id="md162269d01" style="stroke:#ff00ff;"/>
    </defs>
    <g>
     <use style="fill:#ff00ff;stroke:#ff00ff;" x="215.910161" xlink:href="#md162269d01" y="27.513663"/>
     <use style="fill:#ff00ff;stroke:#ff00ff;" x="215.910161" xlink:href="#md162269d01" y="27.513663"/>
    </g>
   </g>
   <g id="line2d_48">
    <path d="M 137.753459 294.88 
L 137.753459 294.355752 
L 139.852237 294.355752 
L 139.852237 293.831505 
L 140.15901 293.831505 
L 140.15901 293.307257 
L 141.627641 293.307257 
L 141.627641 292.783009 
L 142.931127 292.783009 
L 143.029944 291.734514 
L 143.584725 291.734514 
L 143.584725 291.210266 
L 143.998424 291.210266 
L 144.08616 290.161771 
L 145.01794 290.161771 
L 145.01794 289.637523 
L 145.883259 289.637523 
L 145.883259 289.113275 
L 146.122697 289.113275 
L 146.122697 288.589027 
L 146.363355 288.589027 
L 146.363355 288.06478 
L 146.507044 288.06478 
L 146.524921 287.016284 
L 146.746827 287.016284 
L 146.746827 286.492036 
L 147.412835 286.492036 
L 147.412835 285.967789 
L 147.615255 285.967789 
L 147.615255 285.443541 
L 147.831886 285.443541 
L 147.831886 284.919293 
L 148.277308 284.919293 
L 148.277308 284.395046 
L 148.63263 284.395046 
L 148.683922 283.34655 
L 148.91869 283.34655 
L 148.91869 282.822302 
L 149.337149 282.822302 
L 149.412837 281.773807 
L 149.551987 281.773807 
L 149.551987 281.249559 
L 150.877893 281.249559 
L 150.947105 280.201064 
L 150.991943 280.201064 
L 150.991943 279.676816 
L 152.205371 279.676816 
L 152.205371 279.152568 
L 152.428603 279.152568 
L 152.466582 278.104073 
L 152.720768 278.104073 
L 152.761216 277.055578 
L 153.248369 277.055578 
L 153.332746 276.007082 
L 153.461522 276.007082 
L 153.461522 275.482834 
L 153.733847 275.482834 
L 153.733847 274.958587 
L 153.856749 274.958587 
L 153.894612 273.385844 
L 154.065414 273.385844 
L 154.065414 272.861596 
L 154.665507 272.861596 
L 154.665507 272.337348 
L 155.037003 272.337348 
L 155.080505 271.288853 
L 155.670376 271.288853 
L 155.670376 270.764605 
L 155.979808 270.764605 
L 156.000412 269.716109 
L 156.100503 269.716109 
L 156.202558 268.143366 
L 156.351992 268.143366 
L 156.362076 267.094871 
L 156.880915 267.094871 
L 156.880915 266.570623 
L 157.286907 266.570623 
L 157.3798 264.99788 
L 157.549986 264.99788 
L 157.549986 264.473632 
L 157.883077 264.473632 
L 157.929153 262.900889 
L 158.184921 262.900889 
L 158.184921 262.376641 
L 158.421295 262.376641 
L 158.421295 261.852394 
L 158.532722 261.852394 
L 158.643431 260.279651 
L 158.840928 260.279651 
L 158.840928 259.755403 
L 158.971343 259.755403 
L 159.014596 258.18266 
L 159.615235 258.18266 
L 159.615235 257.658412 
L 159.741997 257.658412 
L 159.810185 256.609917 
L 160.316158 256.609917 
L 160.408023 255.561421 
L 160.511282 255.561421 
L 160.613925 254.512926 
L 160.762847 254.512926 
L 160.762847 253.988678 
L 160.88145 253.988678 
L 160.88145 253.46443 
L 161.041525 253.46443 
L 161.076044 252.415935 
L 161.281716 252.415935 
L 161.281716 251.891687 
L 161.514862 251.891687 
L 161.514862 251.367439 
L 161.632115 251.367439 
L 161.632115 250.843192 
L 161.744888 250.843192 
L 161.770666 249.794696 
L 161.858757 249.794696 
L 161.858757 249.270448 
L 162.029971 249.270448 
L 162.107727 247.697705 
L 162.161768 247.697705 
L 162.161768 247.173458 
L 162.386903 247.173458 
L 162.386903 246.64921 
L 162.54065 246.64921 
L 162.54065 246.124962 
L 162.91136 246.124962 
L 162.954351 245.076467 
L 163.199907 245.076467 
L 163.21683 244.027971 
L 163.401891 244.027971 
L 163.401891 243.503724 
L 163.570074 243.503724 
L 163.64118 242.455228 
L 163.720208 242.455228 
L 163.782516 241.406733 
L 163.844598 241.406733 
L 163.930814 240.358237 
L 164.01014 240.358237 
L 164.01014 239.83399 
L 164.290496 239.83399 
L 164.382414 238.785494 
L 164.451818 238.785494 
L 164.451818 238.261246 
L 164.945261 238.261246 
L 164.945261 237.736999 
L 165.177718 237.736999 
L 165.177718 237.212751 
L 165.301021 237.212751 
L 165.318991 236.164255 
L 165.441288 236.164255 
L 165.441288 235.640008 
L 165.658373 235.640008 
L 165.658373 235.11576 
L 165.890134 235.11576 
L 165.989745 232.494521 
L 166.095936 232.494521 
L 166.095936 231.970274 
L 166.479321 231.970274 
L 166.54495 230.921778 
L 166.613107 230.921778 
L 166.694816 229.349035 
L 166.831054 229.349035 
L 166.831054 228.824787 
L 167.098984 228.824787 
L 167.142114 227.776292 
L 167.356155 227.776292 
L 167.441031 226.203549 
L 167.605605 226.203549 
L 167.706203 224.106558 
L 167.834686 224.106558 
L 167.91595 222.533815 
L 167.991707 222.533815 
L 167.991707 222.009567 
L 168.206879 222.009567 
L 168.206879 221.485319 
L 168.587279 221.485319 
L 168.656443 219.388328 
L 168.748641 219.388328 
L 168.831808 216.242842 
L 169.252431 216.242842 
L 169.321347 214.670099 
L 169.457179 214.670099 
L 169.547532 213.621604 
L 169.616443 213.621604 
L 169.696685 212.04886 
L 169.771934 212.04886 
L 169.771934 211.524613 
L 169.96377 211.524613 
L 170.007123 209.427622 
L 170.185093 209.427622 
L 170.185093 208.903374 
L 170.421409 208.903374 
L 170.504631 206.806383 
L 170.569817 206.806383 
L 170.599565 205.23364 
L 170.776984 205.23364 
L 170.854168 203.136649 
L 170.905071 203.136649 
L 170.999977 201.563906 
L 171.031138 201.563906 
L 171.103985 200.515411 
L 171.371287 200.515411 
L 171.445853 198.41842 
L 171.530529 198.41842 
L 171.530529 197.894172 
L 171.72856 197.894172 
L 171.78311 196.845677 
L 171.866144 196.845677 
L 171.866144 196.321429 
L 171.988426 196.321429 
L 172.0543 194.748686 
L 172.131004 194.748686 
L 172.131004 194.224438 
L 172.246421 194.224438 
L 172.34218 191.603199 
L 172.453228 191.603199 
L 172.514394 189.506209 
L 172.718021 189.506209 
L 172.801513 188.457713 
L 172.836343 188.457713 
L 172.93849 186.88497 
L 173.009442 186.88497 
L 173.055309 185.312227 
L 173.121029 185.312227 
L 173.196913 183.739484 
L 173.281884 183.739484 
L 173.316695 182.690988 
L 173.528736 182.690988 
L 173.626862 180.593997 
L 173.655453 180.593997 
L 173.754693 179.545502 
L 173.821449 179.545502 
L 173.866112 177.972759 
L 173.979527 177.972759 
L 174.050821 175.875768 
L 174.120027 175.875768 
L 174.154973 174.303025 
L 174.356096 174.303025 
L 174.356096 173.778777 
L 174.581108 173.778777 
L 174.683842 171.681786 
L 174.705529 171.681786 
L 174.749685 170.633291 
L 174.828194 170.633291 
L 174.87633 169.060547 
L 174.949136 169.060547 
L 175.023337 168.012052 
L 175.121776 168.012052 
L 175.189338 166.439309 
L 175.323671 166.439309 
L 175.363767 164.342318 
L 175.487639 164.342318 
L 175.552956 163.293823 
L 175.643492 163.293823 
L 175.728653 161.196832 
L 175.756403 161.196832 
L 175.788179 160.148336 
L 176.053122 160.148336 
L 176.134687 157.527098 
L 176.183282 157.527098 
L 176.261066 155.430107 
L 176.298246 155.430107 
L 176.298246 154.905859 
L 176.463394 154.905859 
L 176.569506 153.333116 
L 176.647889 153.333116 
L 176.647889 152.808868 
L 176.782859 152.808868 
L 176.782859 152.28462 
L 176.930494 152.28462 
L 177.035285 150.18763 
L 177.042097 150.18763 
L 177.151476 149.139134 
L 177.155987 149.139134 
L 177.26091 147.042143 
L 177.275847 147.042143 
L 177.282564 145.993648 
L 177.439302 145.993648 
L 177.499093 144.420905 
L 177.566754 144.420905 
L 177.566754 143.896657 
L 177.707106 143.896657 
L 177.783379 141.799666 
L 177.826812 141.799666 
L 177.934917 140.226923 
L 178.020914 140.226923 
L 178.083706 138.65418 
L 178.259441 138.65418 
L 178.362065 136.557189 
L 178.376775 136.557189 
L 178.41175 135.508693 
L 178.521804 135.508693 
L 178.623568 133.411703 
L 178.70963 133.411703 
L 178.816434 131.838959 
L 178.856656 131.838959 
L 178.912402 129.741969 
L 179.045592 129.741969 
L 179.09603 128.693473 
L 179.195127 128.693473 
L 179.254445 127.12073 
L 179.306264 127.12073 
L 179.368506 126.072235 
L 179.427889 126.072235 
L 179.531644 122.4025 
L 179.596991 122.4025 
L 179.693249 119.257014 
L 179.767029 119.257014 
L 179.8617 117.160023 
L 179.883523 117.160023 
L 179.988398 115.58728 
L 180.018336 115.58728 
L 180.111005 113.490289 
L 180.143889 113.490289 
L 180.143889 112.966042 
L 180.309879 112.966042 
L 180.379818 109.820555 
L 180.481098 109.820555 
L 180.513283 108.247812 
L 180.654308 108.247812 
L 180.699633 106.675069 
L 180.813641 106.675069 
L 180.813641 106.150821 
L 180.928105 106.150821 
L 180.938967 105.102326 
L 181.054999 105.102326 
L 181.089118 103.005335 
L 181.244489 103.005335 
L 181.288878 101.432592 
L 181.380252 101.432592 
L 181.488095 97.23861 
L 181.526031 97.23861 
L 181.595266 95.665867 
L 181.688495 95.665867 
L 181.785816 94.093124 
L 181.808771 94.093124 
L 181.896288 92.520381 
L 181.933904 92.520381 
L 182.029283 90.947637 
L 182.055872 90.947637 
L 182.092012 89.899142 
L 182.167436 89.899142 
L 182.202782 88.850646 
L 182.290552 88.850646 
L 182.362335 86.229408 
L 182.406701 86.229408 
L 182.476898 84.656665 
L 182.569868 84.656665 
L 182.588512 83.083922 
L 182.735305 83.083922 
L 182.735305 82.559674 
L 182.911001 82.559674 
L 182.911001 82.035426 
L 183.038002 82.035426 
L 183.038002 81.511178 
L 183.169369 81.511178 
L 183.169369 80.986931 
L 183.375817 80.986931 
L 183.411378 79.938435 
L 183.820232 79.938435 
L 183.820232 79.414188 
L 189.26496 79.414188 
L 189.351704 78.365692 
L 189.887203 78.365692 
L 189.887203 77.841444 
L 190.139466 77.841444 
L 190.139466 77.317197 
L 190.463459 77.317197 
L 190.463459 76.792949 
L 191.461274 76.792949 
L 191.461274 76.268701 
L 191.664158 76.268701 
L 191.753779 75.220206 
L 191.900418 75.220206 
L 191.930996 74.17171 
L 192.12026 74.17171 
L 192.12026 73.647463 
L 192.579289 73.647463 
L 192.678906 72.598967 
L 192.814567 72.598967 
L 192.820008 71.550472 
L 193.075872 71.550472 
L 193.075872 71.026224 
L 193.342061 71.026224 
L 193.391534 69.977729 
L 193.535916 69.977729 
L 193.535916 69.453481 
L 193.716712 69.453481 
L 193.814533 68.404985 
L 193.853847 68.404985 
L 193.956551 66.832242 
L 193.969841 66.832242 
L 193.969841 66.307995 
L 194.207312 66.307995 
L 194.207312 65.783747 
L 194.339773 65.783747 
L 194.339773 65.259499 
L 194.58259 65.259499 
L 194.58259 64.735251 
L 194.773002 64.735251 
L 194.820411 63.162508 
L 195.154999 63.162508 
L 195.25076 61.589765 
L 195.388466 61.589765 
L 195.43966 60.54127 
L 195.519653 60.54127 
L 195.519653 60.017022 
L 195.721215 60.017022 
L 195.809311 57.395783 
L 195.871166 57.395783 
L 195.931287 56.347288 
L 196.09142 56.347288 
L 196.106902 55.298792 
L 196.237695 55.298792 
L 196.237695 54.774545 
L 196.377084 54.774545 
L 196.487544 51.629058 
L 196.533137 51.629058 
L 196.597783 50.580563 
L 196.799149 50.580563 
L 196.823826 49.532068 
L 197.350739 49.532068 
L 197.416089 47.959324 
L 197.76298 47.959324 
L 197.777708 46.910829 
L 197.961755 46.910829 
L 197.961755 46.386581 
L 198.124108 46.386581 
L 198.223924 45.338086 
L 198.765668 45.338086 
L 198.777211 44.28959 
L 198.893278 44.28959 
L 198.947316 43.241095 
L 199.034058 43.241095 
L 199.034058 42.716847 
L 199.292102 42.716847 
L 199.292102 42.192599 
L 199.599782 42.192599 
L 199.658146 41.144104 
L 199.79101 41.144104 
L 199.845717 40.095609 
L 200.019936 40.095609 
L 200.019936 39.571361 
L 200.1459 39.571361 
L 200.1459 39.047113 
L 200.565591 39.047113 
L 200.662757 37.998618 
L 200.762233 37.998618 
L 200.762233 37.47437 
L 200.873626 37.47437 
L 200.947426 36.425875 
L 201.557071 36.425875 
L 201.557071 35.901627 
L 202.263994 35.901627 
L 202.263994 35.377379 
L 203.554636 35.377379 
L 203.564019 34.328884 
L 204.548309 34.328884 
L 204.548309 33.804636 
L 204.981934 33.804636 
L 204.981934 33.280388 
L 205.504722 33.280388 
L 205.504722 32.756141 
L 206.473779 32.756141 
L 206.551849 31.183397 
L 206.754288 31.183397 
L 206.754288 30.65915 
L 207.496166 30.65915 
L 207.496166 30.134902 
L 207.627168 30.134902 
L 207.627168 29.610654 
L 208.242616 29.610654 
L 208.242616 29.086407 
L 211.320036 29.086407 
L 211.320036 28.562159 
L 214.551508 28.562159 
L 214.551508 28.037911 
L 215.910161 28.037911 
L 215.910161 27.513663 
L 333.168 27.513663 
L 333.168 27.513663 
" style="fill:none;stroke:#ff00ff;stroke-linecap:square;stroke-width:1.5;"/>
   </g>
   <g id="line2d_49">
    <defs>
     <path d="M -0 8.485281 
L 5.091169 0 
L 0 -8.485281 
L -5.091169 -0 
z
" id="m3ecec99ccf" style="stroke:#ff00ff;stroke-linejoin:miter;stroke-width:1.5;"/>
    </defs>
    <g>
     <use style="fill:none;stroke:#ff00ff;stroke-linejoin:miter;stroke-width:1.5;" x="178.70963" xlink:href="#m3ecec99ccf" y="132.887455"/>
     <use style="fill:none;stroke:#ff00ff;stroke-linejoin:miter;stroke-width:1.5;" x="207.627168" xlink:href="#m3ecec99ccf" y="29.610654"/>
     <use style="fill:none;stroke:#ff00ff;stroke-linejoin:miter;stroke-width:1.5;" x="215.910161" xlink:href="#m3ecec99ccf" y="27.513663"/>
     <use style="fill:none;stroke:#ff00ff;stroke-linejoin:miter;stroke-width:1.5;" x="215.910161" xlink:href="#m3ecec99ccf" y="27.513663"/>
     <use style="fill:none;stroke:#ff00ff;stroke-linejoin:miter;stroke-width:1.5;" x="333.168" xlink:href="#m3ecec99ccf" y="27.513663"/>
    </g>
   </g>
   <g id="line2d_50">
    <path style="fill:none;stroke:#ff00ff;stroke-linecap:square;stroke-width:1.5;"/>
    <g/>
   </g>
   <g id="line2d_51">
    <path clip-path="url(#p483c228aa5)" d="M 190.073999 77.841444 
" style="fill:none;stroke:#ff00ff;stroke-linecap:square;stroke-width:1.5;"/>
    <defs>
     <path d="M -12 12 
L 12 -12 
M -12 -12 
L 12 12 
" id="m87ef46601b" style="stroke:#ff00ff;"/>
    </defs>
    <g clip-path="url(#p483c228aa5)">
     <use style="fill:#ff00ff;stroke:#ff00ff;" x="190.073999" xlink:href="#m87ef46601b" y="77.841444"/>
    </g>
   </g>
   <g id="line2d_52">
    <defs>
     <path d="M 0 1.5 
C 0.397805 1.5 0.77937 1.341951 1.06066 1.06066 
C 1.341951 0.77937 1.5 0.397805 1.5 0 
C 1.5 -0.397805 1.341951 -0.77937 1.06066 -1.06066 
C 0.77937 -1.341951 0.397805 -1.5 0 -1.5 
C -0.397805 -1.5 -0.77937 -1.341951 -1.06066 -1.06066 
C -1.341951 -0.77937 -1.5 -0.397805 -1.5 0 
C -1.5 0.397805 -1.341951 0.77937 -1.06066 1.06066 
C -0.77937 1.341951 -0.397805 1.5 0 1.5 
z
" id="m869d4bb906" style="stroke:#6495ed;"/>
    </defs>
    <g>
     <use style="fill:#6495ed;stroke:#6495ed;" x="165.981106" xlink:href="#m869d4bb906" y="27.513663"/>
     <use style="fill:#6495ed;stroke:#6495ed;" x="165.981106" xlink:href="#m869d4bb906" y="27.513663"/>
    </g>
   </g>
   <g id="line2d_53">
    <path d="M 116.682681 294.88 
L 116.682681 294.355752 
L 120.365424 294.355752 
L 120.365424 293.831505 
L 122.714277 293.831505 
L 122.714277 293.307257 
L 122.909503 293.307257 
L 122.909503 292.258761 
L 123.635161 292.258761 
L 123.635161 291.734514 
L 123.803514 291.734514 
L 123.803514 291.210266 
L 123.986816 291.210266 
L 123.986816 290.686018 
L 124.669252 290.686018 
L 124.669252 290.161771 
L 125.704746 290.161771 
L 125.794504 289.113275 
L 126.134299 289.113275 
L 126.134299 288.589027 
L 126.596154 288.589027 
L 126.596154 288.06478 
L 126.878636 288.06478 
L 126.878636 287.540532 
L 127.321167 287.540532 
L 127.416471 286.492036 
L 127.832291 286.492036 
L 127.832291 285.967789 
L 128.17345 285.967789 
L 128.238289 284.919293 
L 128.444143 284.919293 
L 128.444143 284.395046 
L 128.647561 284.395046 
L 128.698042 283.34655 
L 128.935821 283.34655 
L 128.935821 282.822302 
L 129.389632 282.822302 
L 129.389632 282.298055 
L 129.641969 282.298055 
L 129.641969 281.773807 
L 130.228268 281.773807 
L 130.228268 281.249559 
L 130.806377 281.249559 
L 130.806377 280.725312 
L 131.082817 280.725312 
L 131.104741 279.676816 
L 131.462512 279.676816 
L 131.537454 278.104073 
L 131.969962 278.104073 
L 131.990784 277.055578 
L 132.197629 277.055578 
L 132.197629 276.53133 
L 132.654126 276.53133 
L 132.654126 276.007082 
L 132.833383 276.007082 
L 132.942016 274.434339 
L 133.254191 274.434339 
L 133.254191 273.910091 
L 133.398593 273.910091 
L 133.398593 273.385844 
L 133.551297 273.385844 
L 133.551297 272.861596 
L 134.084539 272.861596 
L 134.112151 271.8131 
L 134.267788 271.8131 
L 134.267788 271.288853 
L 134.699776 271.288853 
L 134.788423 270.240357 
L 134.876616 270.240357 
L 134.876616 269.716109 
L 135.37085 269.716109 
L 135.481607 268.667614 
L 135.540952 268.667614 
L 135.600092 267.619119 
L 135.809661 267.619119 
L 135.809661 267.094871 
L 135.950722 267.094871 
L 135.950722 266.570623 
L 136.205008 266.570623 
L 136.310535 265.522128 
L 136.415418 265.522128 
L 136.447561 264.473632 
L 136.575537 264.473632 
L 136.647106 263.425137 
L 137.528768 263.425137 
L 137.528768 262.900889 
L 137.708755 262.900889 
L 137.738571 261.852394 
L 137.9532 261.852394 
L 137.982595 260.803898 
L 138.12882 260.803898 
L 138.12882 260.279651 
L 138.244911 260.279651 
L 138.244911 259.755403 
L 138.360223 259.755403 
L 138.360223 259.231155 
L 138.574369 259.231155 
L 138.581462 258.18266 
L 138.876734 258.18266 
L 138.946296 257.134164 
L 139.289942 257.134164 
L 139.364631 256.085669 
L 139.606823 256.085669 
L 139.606823 255.561421 
L 139.891706 255.561421 
L 139.891706 255.037173 
L 140.074705 255.037173 
L 140.184868 253.988678 
L 140.262207 253.988678 
L 140.332797 252.415935 
L 140.454046 252.415935 
L 140.492159 251.367439 
L 140.868705 251.367439 
L 140.887317 250.318944 
L 140.998571 250.318944 
L 140.998571 249.794696 
L 141.151905 249.794696 
L 141.151905 249.270448 
L 141.285716 249.270448 
L 141.303883 248.221953 
L 141.442526 248.221953 
L 141.544287 246.64921 
L 141.574103 246.64921 
L 141.574103 246.124962 
L 141.769599 246.124962 
L 141.828403 245.076467 
L 142.050045 245.076467 
L 142.050045 244.552219 
L 142.377239 244.552219 
L 142.473629 242.455228 
L 142.64802 242.455228 
L 142.64802 241.93098 
L 142.82066 241.93098 
L 142.853874 239.83399 
L 142.997068 239.83399 
L 143.090054 238.785494 
L 143.171684 238.785494 
L 143.269132 237.736999 
L 143.53164 237.736999 
L 143.53164 237.212751 
L 143.690404 237.212751 
L 143.748251 235.640008 
L 143.811137 235.640008 
L 143.811137 235.11576 
L 143.982894 235.11576 
L 143.982894 234.591512 
L 144.152952 234.591512 
L 144.168329 233.543017 
L 144.407453 233.543017 
L 144.442784 231.970274 
L 144.538318 231.970274 
L 144.538318 231.446026 
L 144.65824 231.446026 
L 144.68809 229.873283 
L 144.787217 229.873283 
L 144.787217 229.349035 
L 144.959326 229.349035 
L 145.056906 228.30054 
L 145.149096 228.30054 
L 145.240795 226.727797 
L 145.293661 226.727797 
L 145.293661 226.203549 
L 145.470299 226.203549 
L 145.546124 225.155053 
L 145.607487 225.155053 
L 145.696779 222.533815 
L 145.85077 222.533815 
L 145.85077 222.009567 
L 145.994183 222.009567 
L 145.994183 221.485319 
L 146.118124 221.485319 
L 146.13641 219.912576 
L 146.304637 219.912576 
L 146.322726 218.864081 
L 146.43535 218.864081 
L 146.43535 218.339833 
L 146.821627 218.339833 
L 146.821627 217.815585 
L 147.022411 217.815585 
L 147.126244 215.718594 
L 147.134869 215.718594 
L 147.134869 215.194347 
L 147.272275 215.194347 
L 147.374614 214.145851 
L 147.421317 214.145851 
L 147.472121 213.097356 
L 147.539626 213.097356 
L 147.539626 212.573108 
L 147.777984 212.573108 
L 147.782136 211.524613 
L 148.074418 211.524613 
L 148.180219 208.903374 
L 148.232877 208.903374 
L 148.232877 208.379126 
L 148.433916 208.379126 
L 148.497755 206.282136 
L 148.648429 206.282136 
L 148.758613 205.23364 
L 148.84079 205.23364 
L 148.92646 203.660897 
L 149.046458 203.660897 
L 149.084989 202.612401 
L 149.165624 202.612401 
L 149.23444 201.039658 
L 149.280164 201.039658 
L 149.295379 199.991163 
L 149.393946 199.991163 
L 149.393946 199.466915 
L 149.540746 199.466915 
L 149.585664 198.41842 
L 149.753069 198.41842 
L 149.823265 196.321429 
L 149.896846 196.321429 
L 149.918859 195.272933 
L 150.053988 195.272933 
L 150.083066 194.224438 
L 150.198888 194.224438 
L 150.198888 193.70019 
L 150.349729 193.70019 
L 150.460221 191.078952 
L 150.495713 191.078952 
L 150.598227 190.030456 
L 150.626399 190.030456 
L 150.703636 188.981961 
L 150.864017 188.981961 
L 150.870957 187.933465 
L 150.991943 187.933465 
L 151.060698 186.360722 
L 151.163317 186.360722 
L 151.163317 185.836474 
L 151.285656 185.836474 
L 151.285656 185.312227 
L 151.494332 185.312227 
L 151.494332 184.787979 
L 151.62763 184.787979 
L 151.687278 183.215236 
L 151.819093 183.215236 
L 151.838779 182.16674 
L 152.008448 182.16674 
L 152.105577 180.593997 
L 152.141054 180.593997 
L 152.240643 178.497006 
L 152.279039 178.497006 
L 152.355575 177.448511 
L 152.453932 177.448511 
L 152.535993 175.875768 
L 152.652101 175.875768 
L 152.652101 175.35152 
L 152.789162 175.35152 
L 152.89433 172.206034 
L 152.96818 172.206034 
L 153.075313 170.633291 
L 153.130151 170.633291 
L 153.184814 169.584795 
L 153.260448 169.584795 
L 153.359779 167.487804 
L 153.401746 167.487804 
L 153.401746 166.963557 
L 153.556734 166.963557 
L 153.663221 165.390813 
L 153.751458 165.390813 
L 153.795408 163.81807 
L 153.897521 163.81807 
L 153.984567 162.245327 
L 154.022151 162.245327 
L 154.022151 161.721079 
L 154.211701 161.721079 
L 154.305699 160.148336 
L 154.370909 160.148336 
L 154.404834 158.051345 
L 154.545472 158.051345 
L 154.60699 155.954354 
L 154.687746 155.954354 
L 154.76536 154.905859 
L 154.839871 154.905859 
L 154.930504 153.857364 
L 154.985202 153.857364 
L 155.001577 152.808868 
L 155.164478 152.808868 
L 155.245353 151.760373 
L 155.30978 151.760373 
L 155.30978 151.236125 
L 155.4698 151.236125 
L 155.549254 149.663382 
L 155.583571 149.663382 
L 155.665127 147.566391 
L 155.769793 147.566391 
L 155.850472 145.993648 
L 156.049247 145.993648 
L 156.149054 143.372409 
L 156.161808 143.372409 
L 156.240673 141.275418 
L 156.281236 141.275418 
L 156.357035 139.178427 
L 156.404869 139.178427 
L 156.482628 137.605684 
L 156.517631 137.605684 
L 156.570001 136.557189 
L 156.74589 136.557189 
L 156.79757 134.984446 
L 156.893137 134.984446 
L 156.915116 133.93595 
L 157.031864 133.93595 
L 157.12373 131.314712 
L 157.152639 131.314712 
L 157.198312 129.741969 
L 157.26779 129.741969 
L 157.28213 128.693473 
L 157.408281 128.693473 
L 157.512312 127.12073 
L 157.566442 127.12073 
L 157.629769 125.023739 
L 157.688198 125.023739 
L 157.734799 123.975244 
L 157.806781 123.975244 
L 157.88077 122.926748 
L 157.975106 122.926748 
L 158.066645 120.829757 
L 158.11906 120.829757 
L 158.189454 118.208519 
L 158.313642 118.208519 
L 158.414586 116.635776 
L 158.439172 116.635776 
L 158.470412 114.538785 
L 158.572659 114.538785 
L 158.652257 111.917546 
L 158.691918 111.917546 
L 158.788484 110.869051 
L 158.814726 110.869051 
L 158.838746 109.820555 
L 158.934492 109.820555 
L 158.934492 109.296308 
L 159.092177 109.296308 
L 159.122254 107.723564 
L 159.222841 107.723564 
L 159.25056 106.150821 
L 159.390599 106.150821 
L 159.48543 104.05383 
L 159.504333 104.05383 
L 159.579741 102.481087 
L 159.677694 102.481087 
L 159.78129 100.908344 
L 159.79368 100.908344 
L 159.902736 98.811353 
L 159.915038 98.811353 
L 159.968248 97.23861 
L 160.043686 97.23861 
L 160.143083 95.141619 
L 160.159257 95.141619 
L 160.268033 94.093124 
L 160.296123 94.093124 
L 160.402047 92.520381 
L 160.463701 92.520381 
L 160.56268 88.326399 
L 160.598173 88.326399 
L 160.598173 87.802151 
L 160.80377 87.802151 
L 160.86982 85.70516 
L 160.974205 85.70516 
L 161.060711 83.083922 
L 161.097105 83.083922 
L 161.202024 80.986931 
L 161.236223 80.986931 
L 161.319534 77.317197 
L 161.368575 77.317197 
L 161.473727 75.744454 
L 161.505522 75.744454 
L 161.550308 74.695958 
L 161.635824 74.695958 
L 161.741202 71.026224 
L 161.752257 71.026224 
L 161.766986 69.453481 
L 161.875224 69.453481 
L 161.96642 67.35649 
L 162.028158 67.35649 
L 162.095093 63.162508 
L 162.170758 63.162508 
L 162.237141 61.589765 
L 162.306836 61.589765 
L 162.356699 60.017022 
L 162.486024 60.017022 
L 162.588086 57.395783 
L 162.59861 57.395783 
L 162.675587 55.82304 
L 162.713947 55.82304 
L 162.811205 54.250297 
L 162.901027 54.250297 
L 162.918246 53.201802 
L 163.082683 53.201802 
L 163.1711 50.580563 
L 163.280986 50.580563 
L 163.334827 47.959324 
L 163.460359 47.959324 
L 163.541881 46.386581 
L 163.589947 46.386581 
L 163.700485 44.813838 
L 163.74483 44.813838 
L 163.841336 42.192599 
L 163.880438 42.192599 
L 163.969713 39.571361 
L 164.018214 39.571361 
L 164.019828 38.522865 
L 164.21884 38.522865 
L 164.301615 36.425875 
L 164.336516 36.425875 
L 164.363437 34.853131 
L 164.566352 34.853131 
L 164.591354 33.280388 
L 164.729766 33.280388 
L 164.796241 32.231893 
L 164.968191 32.231893 
L 164.968191 31.707645 
L 165.083898 31.707645 
L 165.083898 31.183397 
L 165.195818 31.183397 
L 165.195818 30.65915 
L 165.313003 30.65915 
L 165.368313 29.086407 
L 165.699414 29.086407 
L 165.808863 28.037911 
L 165.981106 28.037911 
L 165.981106 27.513663 
L 333.168 27.513663 
L 333.168 27.513663 
" style="fill:none;stroke:#6495ed;stroke-linecap:square;stroke-width:1.5;"/>
   </g>
   <g id="line2d_54">
    <defs>
     <path d="M -0 6 
L 6 -6 
L -6 -6 
z
" id="mb6b2ac6dc5" style="stroke:#6495ed;stroke-linejoin:miter;stroke-width:1.5;"/>
    </defs>
    <g>
     <use style="fill:none;stroke:#6495ed;stroke-linejoin:miter;stroke-width:1.5;" x="158.441405" xlink:href="#mb6b2ac6dc5" y="116.111528"/>
     <use style="fill:none;stroke:#6495ed;stroke-linejoin:miter;stroke-width:1.5;" x="165.981106" xlink:href="#mb6b2ac6dc5" y="28.037911"/>
     <use style="fill:none;stroke:#6495ed;stroke-linejoin:miter;stroke-width:1.5;" x="165.981106" xlink:href="#mb6b2ac6dc5" y="27.513663"/>
     <use style="fill:none;stroke:#6495ed;stroke-linejoin:miter;stroke-width:1.5;" x="165.981106" xlink:href="#mb6b2ac6dc5" y="27.513663"/>
     <use style="fill:none;stroke:#6495ed;stroke-linejoin:miter;stroke-width:1.5;" x="333.168" xlink:href="#mb6b2ac6dc5" y="27.513663"/>
    </g>
   </g>
   <g id="line2d_55">
    <path style="fill:none;stroke:#6495ed;stroke-linecap:square;stroke-width:1.5;"/>
    <g/>
   </g>
   <g id="line2d_56">
    <path d="M 333.168 27.513663 
L 363.64328 289.532673 
" style="fill:none;stroke:#000080;stroke-linecap:square;stroke-width:1.5;"/>
    <g>
     <use style="fill:none;stroke:#000080;stroke-width:1.5;" x="333.168" xlink:href="#m35826411fe" y="27.513663"/>
     <use style="fill:none;stroke:#000080;stroke-width:1.5;" x="363.64328" xlink:href="#m35826411fe" y="289.532673"/>
    </g>
   </g>
   <g id="line2d_57">
    <path d="M 333.168 27.513663 
L 363.64328 203.975446 
" style="fill:none;stroke:#ff00ff;stroke-linecap:square;stroke-width:1.5;"/>
    <g>
     <use style="fill:none;stroke:#ff00ff;stroke-linejoin:miter;stroke-width:1.5;" x="333.168" xlink:href="#m3ecec99ccf" y="27.513663"/>
     <use style="fill:none;stroke:#ff00ff;stroke-linejoin:miter;stroke-width:1.5;" x="363.64328" xlink:href="#m3ecec99ccf" y="203.975446"/>
    </g>
   </g>
   <g id="line2d_58">
    <path d="M 333.168 27.513663 
L 363.64328 118.418218 
" style="fill:none;stroke:#6495ed;stroke-linecap:square;stroke-width:1.5;"/>
    <g>
     <use style="fill:none;stroke:#6495ed;stroke-linejoin:miter;stroke-width:1.5;" x="333.168" xlink:href="#mb6b2ac6dc5" y="27.513663"/>
     <use style="fill:none;stroke:#6495ed;stroke-linejoin:miter;stroke-width:1.5;" x="363.64328" xlink:href="#mb6b2ac6dc5" y="118.418218"/>
    </g>
   </g>
   <g id="line2d_59">
    <path d="M 333.168 294.88 
L 333.168 27.513663 
" style="fill:none;stroke:#000000;stroke-linecap:square;stroke-width:1.5;"/>
   </g>
   <g id="patch_3">
    <path d="M 56.12 294.88 
L 56.12 24.84 
" style="fill:none;stroke:#000000;stroke-linecap:square;stroke-linejoin:miter;stroke-width:0.8;"/>
   </g>
   <g id="patch_4">
    <path d="M 333.168 294.88 
L 333.168 24.84 
" style="fill:none;stroke:#000000;stroke-linecap:square;stroke-linejoin:miter;stroke-width:0.8;"/>
   </g>
   <g id="patch_5">
    <path d="M 56.12 294.88 
L 333.168 294.88 
" style="fill:none;stroke:#000000;stroke-linecap:square;stroke-linejoin:miter;stroke-width:0.8;"/>
   </g>
   <g id="patch_6">
    <path d="M 56.12 24.84 
L 333.168 24.84 
" style="fill:none;stroke:#000000;stroke-linecap:square;stroke-linejoin:miter;stroke-width:0.8;"/>
   </g>
   <g id="text_13">
    <!-- CMA ES PPM -->
    <defs>
     <path d="M 64.40625 67.28125 
L 64.40625 56.890625 
Q 59.421875 61.53125 53.78125 63.8125 
Q 48.140625 66.109375 41.796875 66.109375 
Q 29.296875 66.109375 22.65625 58.46875 
Q 16.015625 50.828125 16.015625 36.375 
Q 16.015625 21.96875 22.65625 14.328125 
Q 29.296875 6.6875 41.796875 6.6875 
Q 48.140625 6.6875 53.78125 8.984375 
Q 59.421875 11.28125 64.40625 15.921875 
L 64.40625 5.609375 
Q 59.234375 2.09375 53.4375 0.328125 
Q 47.65625 -1.421875 41.21875 -1.421875 
Q 24.65625 -1.421875 15.125 8.703125 
Q 5.609375 18.84375 5.609375 36.375 
Q 5.609375 53.953125 15.125 64.078125 
Q 24.65625 74.21875 41.21875 74.21875 
Q 47.75 74.21875 53.53125 72.484375 
Q 59.328125 70.75 64.40625 67.28125 
z
" id="DejaVuSans-43"/>
     <path d="M 9.8125 72.90625 
L 24.515625 72.90625 
L 43.109375 23.296875 
L 61.8125 72.90625 
L 76.515625 72.90625 
L 76.515625 0 
L 66.890625 0 
L 66.890625 64.015625 
L 48.09375 14.015625 
L 38.1875 14.015625 
L 19.390625 64.015625 
L 19.390625 0 
L 9.8125 0 
z
" id="DejaVuSans-4d"/>
     <path d="M 34.1875 63.1875 
L 20.796875 26.90625 
L 47.609375 26.90625 
z
M 28.609375 72.90625 
L 39.796875 72.90625 
L 67.578125 0 
L 57.328125 0 
L 50.6875 18.703125 
L 17.828125 18.703125 
L 11.1875 0 
L 0.78125 0 
z
" id="DejaVuSans-41"/>
     <path d="M 9.8125 72.90625 
L 55.90625 72.90625 
L 55.90625 64.59375 
L 19.671875 64.59375 
L 19.671875 43.015625 
L 54.390625 43.015625 
L 54.390625 34.71875 
L 19.671875 34.71875 
L 19.671875 8.296875 
L 56.78125 8.296875 
L 56.78125 0 
L 9.8125 0 
z
" id="DejaVuSans-45"/>
     <path d="M 53.515625 70.515625 
L 53.515625 60.890625 
Q 47.90625 63.578125 42.921875 64.890625 
Q 37.9375 66.21875 33.296875 66.21875 
Q 25.25 66.21875 20.875 63.09375 
Q 16.5 59.96875 16.5 54.203125 
Q 16.5 49.359375 19.40625 46.890625 
Q 22.3125 44.4375 30.421875 42.921875 
L 36.375 41.703125 
Q 47.40625 39.59375 52.65625 34.296875 
Q 57.90625 29 57.90625 20.125 
Q 57.90625 9.515625 50.796875 4.046875 
Q 43.703125 -1.421875 29.984375 -1.421875 
Q 24.8125 -1.421875 18.96875 -0.25 
Q 13.140625 0.921875 6.890625 3.21875 
L 6.890625 13.375 
Q 12.890625 10.015625 18.65625 8.296875 
Q 24.421875 6.59375 29.984375 6.59375 
Q 38.421875 6.59375 43.015625 9.90625 
Q 47.609375 13.234375 47.609375 19.390625 
Q 47.609375 24.75 44.3125 27.78125 
Q 41.015625 30.8125 33.5 32.328125 
L 27.484375 33.5 
Q 16.453125 35.6875 11.515625 40.375 
Q 6.59375 45.0625 6.59375 53.421875 
Q 6.59375 63.09375 13.40625 68.65625 
Q 20.21875 74.21875 32.171875 74.21875 
Q 37.3125 74.21875 42.625 73.28125 
Q 47.953125 72.359375 53.515625 70.515625 
z
" id="DejaVuSans-53"/>
     <path d="M 19.671875 64.796875 
L 19.671875 37.40625 
L 32.078125 37.40625 
Q 38.96875 37.40625 42.71875 40.96875 
Q 46.484375 44.53125 46.484375 51.125 
Q 46.484375 57.671875 42.71875 61.234375 
Q 38.96875 64.796875 32.078125 64.796875 
z
M 9.8125 72.90625 
L 32.078125 72.90625 
Q 44.34375 72.90625 50.609375 67.359375 
Q 56.890625 61.8125 56.890625 51.125 
Q 56.890625 40.328125 50.609375 34.8125 
Q 44.34375 29.296875 32.078125 29.296875 
L 19.671875 29.296875 
L 19.671875 0 
L 9.8125 0 
z
" id="DejaVuSans-50"/>
    </defs>
    <g transform="translate(369.18424 294.223611)scale(0.17 -0.17)">
     <use xlink:href="#DejaVuSans-43"/>
     <use x="69.824219" xlink:href="#DejaVuSans-4d"/>
     <use x="156.103516" xlink:href="#DejaVuSans-41"/>
     <use x="224.511719" xlink:href="#DejaVuSans-20"/>
     <use x="256.298828" xlink:href="#DejaVuSans-45"/>
     <use x="319.482422" xlink:href="#DejaVuSans-53"/>
     <use x="382.958984" xlink:href="#DejaVuSans-20"/>
     <use x="414.746094" xlink:href="#DejaVuSans-50"/>
     <use x="475.048828" xlink:href="#DejaVuSans-50"/>
     <use x="535.351562" xlink:href="#DejaVuSans-4d"/>
    </g>
   </g>
   <g id="text_14">
    <!-- CMA ES CSA -->
    <g transform="translate(369.18424 208.666383)scale(0.17 -0.17)">
     <use xlink:href="#DejaVuSans-43"/>
     <use x="69.824219" xlink:href="#DejaVuSans-4d"/>
     <use x="156.103516" xlink:href="#DejaVuSans-41"/>
     <use x="224.511719" xlink:href="#DejaVuSans-20"/>
     <use x="256.298828" xlink:href="#DejaVuSans-45"/>
     <use x="319.482422" xlink:href="#DejaVuSans-53"/>
     <use x="382.958984" xlink:href="#DejaVuSans-20"/>
     <use x="414.746094" xlink:href="#DejaVuSans-43"/>
     <use x="484.570312" xlink:href="#DejaVuSans-53"/>
     <use x="548.0625" xlink:href="#DejaVuSans-41"/>
    </g>
   </g>
   <g id="text_15">
    <!-- CMAES posi -->
    <g transform="translate(369.18424 123.109155)scale(0.17 -0.17)">
     <use xlink:href="#DejaVuSans-43"/>
     <use x="69.824219" xlink:href="#DejaVuSans-4d"/>
     <use x="156.103516" xlink:href="#DejaVuSans-41"/>
     <use x="224.511719" xlink:href="#DejaVuSans-45"/>
     <use x="287.695312" xlink:href="#DejaVuSans-53"/>
     <use x="351.171875" xlink:href="#DejaVuSans-20"/>
     <use x="382.958984" xlink:href="#DejaVuSans-70"/>
     <use x="446.435547" xlink:href="#DejaVuSans-6f"/>
     <use x="507.617188" xlink:href="#DejaVuSans-73"/>
     <use x="559.716797" xlink:href="#DejaVuSans-69"/>
    </g>
   </g>
   <g id="text_16">
    <!-- best 2009 -->
    <defs>
     <path d="M 48.6875 27.296875 
Q 48.6875 37.203125 44.609375 42.84375 
Q 40.53125 48.484375 33.40625 48.484375 
Q 26.265625 48.484375 22.1875 42.84375 
Q 18.109375 37.203125 18.109375 27.296875 
Q 18.109375 17.390625 22.1875 11.75 
Q 26.265625 6.109375 33.40625 6.109375 
Q 40.53125 6.109375 44.609375 11.75 
Q 48.6875 17.390625 48.6875 27.296875 
z
M 18.109375 46.390625 
Q 20.953125 51.265625 25.265625 53.625 
Q 29.59375 56 35.59375 56 
Q 45.5625 56 51.78125 48.09375 
Q 58.015625 40.1875 58.015625 27.296875 
Q 58.015625 14.40625 51.78125 6.484375 
Q 45.5625 -1.421875 35.59375 -1.421875 
Q 29.59375 -1.421875 25.265625 0.953125 
Q 20.953125 3.328125 18.109375 8.203125 
L 18.109375 0 
L 9.078125 0 
L 9.078125 75.984375 
L 18.109375 75.984375 
z
" id="DejaVuSans-62"/>
     <path d="M 10.984375 1.515625 
L 10.984375 10.5 
Q 14.703125 8.734375 18.5 7.8125 
Q 22.3125 6.890625 25.984375 6.890625 
Q 35.75 6.890625 40.890625 13.453125 
Q 46.046875 20.015625 46.78125 33.40625 
Q 43.953125 29.203125 39.59375 26.953125 
Q 35.25 24.703125 29.984375 24.703125 
Q 19.046875 24.703125 12.671875 31.3125 
Q 6.296875 37.9375 6.296875 49.421875 
Q 6.296875 60.640625 12.9375 67.421875 
Q 19.578125 74.21875 30.609375 74.21875 
Q 43.265625 74.21875 49.921875 64.515625 
Q 56.59375 54.828125 56.59375 36.375 
Q 56.59375 19.140625 48.40625 8.859375 
Q 40.234375 -1.421875 26.421875 -1.421875 
Q 22.703125 -1.421875 18.890625 -0.6875 
Q 15.09375 0.046875 10.984375 1.515625 
z
M 30.609375 32.421875 
Q 37.25 32.421875 41.125 36.953125 
Q 45.015625 41.5 45.015625 49.421875 
Q 45.015625 57.28125 41.125 61.84375 
Q 37.25 66.40625 30.609375 66.40625 
Q 23.96875 66.40625 20.09375 61.84375 
Q 16.21875 57.28125 16.21875 49.421875 
Q 16.21875 41.5 20.09375 36.953125 
Q 23.96875 32.421875 30.609375 32.421875 
z
" id="DejaVuSans-39"/>
    </defs>
    <g transform="translate(369.18424 37.551928)scale(0.17 -0.17)">
     <use xlink:href="#DejaVuSans-62"/>
     <use x="63.476562" xlink:href="#DejaVuSans-65"/>
     <use x="125" xlink:href="#DejaVuSans-73"/>
     <use x="177.099609" xlink:href="#DejaVuSans-74"/>
     <use x="216.308594" xlink:href="#DejaVuSans-20"/>
     <use x="248.095703" xlink:href="#DejaVuSans-32"/>
     <use x="311.71875" xlink:href="#DejaVuSans-30"/>
     <use x="375.341797" xlink:href="#DejaVuSans-30"/>
     <use x="438.964844" xlink:href="#DejaVuSans-39"/>
    </g>
   </g>
   <g id="text_17">
    <!-- bbob f6, 20-D -->
    <defs>
     <path d="M 19.671875 64.796875 
L 19.671875 8.109375 
L 31.59375 8.109375 
Q 46.6875 8.109375 53.6875 14.9375 
Q 60.6875 21.78125 60.6875 36.53125 
Q 60.6875 51.171875 53.6875 57.984375 
Q 46.6875 64.796875 31.59375 64.796875 
z
M 9.8125 72.90625 
L 30.078125 72.90625 
Q 51.265625 72.90625 61.171875 64.09375 
Q 71.09375 55.28125 71.09375 36.53125 
Q 71.09375 17.671875 61.125 8.828125 
Q 51.171875 0 30.078125 0 
L 9.8125 0 
z
" id="DejaVuSans-44"/>
    </defs>
    <g transform="translate(58.89048 35.290806)scale(0.102 -0.102)">
     <use xlink:href="#DejaVuSans-62"/>
     <use x="63.476562" xlink:href="#DejaVuSans-62"/>
     <use x="126.953125" xlink:href="#DejaVuSans-6f"/>
     <use x="188.134766" xlink:href="#DejaVuSans-62"/>
     <use x="251.611328" xlink:href="#DejaVuSans-20"/>
     <use x="283.398438" xlink:href="#DejaVuSans-66"/>
     <use x="318.603516" xlink:href="#DejaVuSans-36"/>
     <use x="382.226562" xlink:href="#DejaVuSans-2c"/>
     <use x="414.013672" xlink:href="#DejaVuSans-20"/>
     <use x="445.800781" xlink:href="#DejaVuSans-32"/>
     <use x="509.423828" xlink:href="#DejaVuSans-30"/>
     <use x="573.046875" xlink:href="#DejaVuSans-2d"/>
     <use x="609.130859" xlink:href="#DejaVuSans-44"/>
    </g>
    <!-- 51 targets: 100..1e-08 -->
    <defs>
     <path d="M 10.796875 72.90625 
L 49.515625 72.90625 
L 49.515625 64.59375 
L 19.828125 64.59375 
L 19.828125 46.734375 
Q 21.96875 47.46875 24.109375 47.828125 
Q 26.265625 48.1875 28.421875 48.1875 
Q 40.625 48.1875 47.75 41.5 
Q 54.890625 34.8125 54.890625 23.390625 
Q 54.890625 11.625 47.5625 5.09375 
Q 40.234375 -1.421875 26.90625 -1.421875 
Q 22.3125 -1.421875 17.546875 -0.640625 
Q 12.796875 0.140625 7.71875 1.703125 
L 7.71875 11.625 
Q 12.109375 9.234375 16.796875 8.0625 
Q 21.484375 6.890625 26.703125 6.890625 
Q 35.15625 6.890625 40.078125 11.328125 
Q 45.015625 15.765625 45.015625 23.390625 
Q 45.015625 31 40.078125 35.4375 
Q 35.15625 39.890625 26.703125 39.890625 
Q 22.75 39.890625 18.8125 39.015625 
Q 14.890625 38.140625 10.796875 36.28125 
z
" id="DejaVuSans-35"/>
     <path d="M 11.71875 12.40625 
L 22.015625 12.40625 
L 22.015625 0 
L 11.71875 0 
z
M 11.71875 51.703125 
L 22.015625 51.703125 
L 22.015625 39.3125 
L 11.71875 39.3125 
z
" id="DejaVuSans-3a"/>
    </defs>
    <g transform="translate(58.89048 46.712575)scale(0.102 -0.102)">
     <use xlink:href="#DejaVuSans-35"/>
     <use x="63.623047" xlink:href="#DejaVuSans-31"/>
     <use x="127.246094" xlink:href="#DejaVuSans-20"/>
     <use x="159.033203" xlink:href="#DejaVuSans-74"/>
     <use x="198.242188" xlink:href="#DejaVuSans-61"/>
     <use x="259.521484" xlink:href="#DejaVuSans-72"/>
     <use x="300.619141" xlink:href="#DejaVuSans-67"/>
     <use x="364.095703" xlink:href="#DejaVuSans-65"/>
     <use x="425.619141" xlink:href="#DejaVuSans-74"/>
     <use x="464.828125" xlink:href="#DejaVuSans-73"/>
     <use x="516.927734" xlink:href="#DejaVuSans-3a"/>
     <use x="550.619141" xlink:href="#DejaVuSans-20"/>
     <use x="582.40625" xlink:href="#DejaVuSans-31"/>
     <use x="646.029297" xlink:href="#DejaVuSans-30"/>
     <use x="709.652344" xlink:href="#DejaVuSans-30"/>
     <use x="773.275391" xlink:href="#DejaVuSans-2e"/>
     <use x="805.0625" xlink:href="#DejaVuSans-2e"/>
     <use x="836.849609" xlink:href="#DejaVuSans-31"/>
     <use x="900.472656" xlink:href="#DejaVuSans-65"/>
     <use x="961.996094" xlink:href="#DejaVuSans-2d"/>
     <use x="998.080078" xlink:href="#DejaVuSans-30"/>
     <use x="1061.703125" xlink:href="#DejaVuSans-38"/>
    </g>
    <!-- 15 instances -->
    <g transform="translate(58.89048 58.134344)scale(0.102 -0.102)">
     <use xlink:href="#DejaVuSans-31"/>
     <use x="63.623047" xlink:href="#DejaVuSans-35"/>
     <use x="127.246094" xlink:href="#DejaVuSans-20"/>
     <use x="159.033203" xlink:href="#DejaVuSans-69"/>
     <use x="186.816406" xlink:href="#DejaVuSans-6e"/>
     <use x="250.195312" xlink:href="#DejaVuSans-73"/>
     <use x="302.294922" xlink:href="#DejaVuSans-74"/>
     <use x="341.503906" xlink:href="#DejaVuSans-61"/>
     <use x="402.783203" xlink:href="#DejaVuSans-6e"/>
     <use x="466.162109" xlink:href="#DejaVuSans-63"/>
     <use x="521.142578" xlink:href="#DejaVuSans-65"/>
     <use x="582.666016" xlink:href="#DejaVuSans-73"/>
    </g>
   </g>
   <g id="text_18">
    <!-- v0.0.0 -->
    <g style="fill:#808080;" transform="translate(178.96275 290.099912)scale(0.1 -0.1)">
     <use xlink:href="#DejaVuSans-76"/>
     <use x="59.179688" xlink:href="#DejaVuSans-30"/>
     <use x="122.802734" xlink:href="#DejaVuSans-2e"/>
     <use x="154.589844" xlink:href="#DejaVuSans-30"/>
     <use x="218.212891" xlink:href="#DejaVuSans-2e"/>
     <use x="250" xlink:href="#DejaVuSans-30"/>
    </g>
   </g>
   <g id="text_19">
    <!-- 6 Attractive sector -->
    <g transform="translate(101.726812 18.84)scale(0.2 -0.2)">
     <use xlink:href="#DejaVuSans-36"/>
     <use x="63.623047" xlink:href="#DejaVuSans-20"/>
     <use x="95.410156" xlink:href="#DejaVuSans-41"/>
     <use x="163.802734" xlink:href="#DejaVuSans-74"/>
     <use x="203.011719" xlink:href="#DejaVuSans-74"/>
     <use x="242.220703" xlink:href="#DejaVuSans-72"/>
     <use x="283.333984" xlink:href="#DejaVuSans-61"/>
     <use x="344.613281" xlink:href="#DejaVuSans-63"/>
     <use x="399.59375" xlink:href="#DejaVuSans-74"/>
     <use x="438.802734" xlink:href="#DejaVuSans-69"/>
     <use x="466.585938" xlink:href="#DejaVuSans-76"/>
     <use x="525.765625" xlink:href="#DejaVuSans-65"/>
     <use x="587.289062" xlink:href="#DejaVuSans-20"/>
     <use x="619.076172" xlink:href="#DejaVuSans-73"/>
     <use x="671.175781" xlink:href="#DejaVuSans-65"/>
     <use x="732.699219" xlink:href="#DejaVuSans-63"/>
     <use x="787.679688" xlink:href="#DejaVuSans-74"/>
     <use x="826.888672" xlink:href="#DejaVuSans-6f"/>
     <use x="888.070312" xlink:href="#DejaVuSans-72"/>
    </g>
   </g>
  </g>
 </g>
 <defs>
  <clipPath id="p483c228aa5">
   <rect height="270.04" width="277.048" x="56.12" y="24.84"/>
  </clipPath>
 </defs>
</svg>
