<?xml version="1.0" encoding="utf-8" standalone="no"?>
<!DOCTYPE svg PUBLIC "-//W3C//DTD SVG 1.1//EN"
  "http://www.w3.org/Graphics/SVG/1.1/DTD/svg11.dtd">
<!-- Created with matplotlib (http://matplotlib.org/) -->
<svg height="345pt" version="1.1" viewBox="0 0 460 345" width="460pt" xmlns="http://www.w3.org/2000/svg" xmlns:xlink="http://www.w3.org/1999/xlink">
 <defs>
  <style type="text/css">
*{stroke-linecap:butt;stroke-linejoin:round;}
  </style>
 </defs>
 <g id="figure_1">
  <g id="patch_1">
   <path d="M 0 345.6 
L 460.8 345.6 
L 460.8 0 
L 0 0 
z
" style="fill:#ffffff;"/>
  </g>
  <g id="axes_1">
   <g id="patch_2">
    <path d="M 34.16 291.28 
L 450.672 291.28 
L 450.672 5.52 
L 34.16 5.52 
z
" style="fill:#ffffff;"/>
   </g>
   <g id="matplotlib.axis_1">
    <g id="xtick_1">
     <g id="line2d_1">
      <path clip-path="url(#p0397ee3e8f)" d="M 89.681083 291.28 
L 89.681083 5.52 
" style="fill:none;stroke:#b0b0b0;stroke-linecap:square;stroke-width:0.8;"/>
     </g>
     <g id="line2d_2">
      <defs>
       <path d="M 0 0 
L 0 3.5 
" id="mc8ec41fa35" style="stroke:#000000;stroke-width:0.8;"/>
      </defs>
      <g>
       <use style="stroke:#000000;stroke-width:0.8;" x="89.681083" xlink:href="#mc8ec41fa35" y="291.28"/>
      </g>
     </g>
     <g id="text_1">
      <!-- -2 -->
      <defs>
       <path d="M 4.890625 31.390625 
L 31.203125 31.390625 
L 31.203125 23.390625 
L 4.890625 23.390625 
z
" id="DejaVuSans-2d"/>
       <path d="M 19.1875 8.296875 
L 53.609375 8.296875 
L 53.609375 0 
L 7.328125 0 
L 7.328125 8.296875 
Q 12.9375 14.109375 22.625 23.890625 
Q 32.328125 33.6875 34.8125 36.53125 
Q 39.546875 41.84375 41.421875 45.53125 
Q 43.3125 49.21875 43.3125 52.78125 
Q 43.3125 58.59375 39.234375 62.25 
Q 35.15625 65.921875 28.609375 65.921875 
Q 23.96875 65.921875 18.8125 64.3125 
Q 13.671875 62.703125 7.8125 59.421875 
L 7.8125 69.390625 
Q 13.765625 71.78125 18.9375 73 
Q 24.125 74.21875 28.421875 74.21875 
Q 39.75 74.21875 46.484375 68.546875 
Q 53.21875 62.890625 53.21875 53.421875 
Q 53.21875 48.921875 51.53125 44.890625 
Q 49.859375 40.875 45.40625 35.40625 
Q 44.1875 33.984375 37.640625 27.21875 
Q 31.109375 20.453125 19.1875 8.296875 
z
" id="DejaVuSans-32"/>
      </defs>
      <g transform="translate(79.710771 313.476875)scale(0.2 -0.2)">
       <use xlink:href="#DejaVuSans-2d"/>
       <use x="36.083984" xlink:href="#DejaVuSans-32"/>
      </g>
     </g>
    </g>
    <g id="xtick_2">
     <g id="line2d_3">
      <path clip-path="url(#p0397ee3e8f)" d="M 166.048542 291.28 
L 166.048542 5.52 
" style="fill:none;stroke:#b0b0b0;stroke-linecap:square;stroke-width:0.8;"/>
     </g>
     <g id="line2d_4">
      <g>
       <use style="stroke:#000000;stroke-width:0.8;" x="166.048542" xlink:href="#mc8ec41fa35" y="291.28"/>
      </g>
     </g>
     <g id="text_2">
      <!-- -1 -->
      <defs>
       <path d="M 12.40625 8.296875 
L 28.515625 8.296875 
L 28.515625 63.921875 
L 10.984375 60.40625 
L 10.984375 69.390625 
L 28.421875 72.90625 
L 38.28125 72.90625 
L 38.28125 8.296875 
L 54.390625 8.296875 
L 54.390625 0 
L 12.40625 0 
z
" id="DejaVuSans-31"/>
      </defs>
      <g transform="translate(156.078229 313.476875)scale(0.2 -0.2)">
       <use xlink:href="#DejaVuSans-2d"/>
       <use x="36.083984" xlink:href="#DejaVuSans-31"/>
      </g>
     </g>
    </g>
    <g id="xtick_3">
     <g id="line2d_5">
      <path clip-path="url(#p0397ee3e8f)" d="M 242.416 291.28 
L 242.416 5.52 
" style="fill:none;stroke:#b0b0b0;stroke-linecap:square;stroke-width:0.8;"/>
     </g>
     <g id="line2d_6">
      <g>
       <use style="stroke:#000000;stroke-width:0.8;" x="242.416" xlink:href="#mc8ec41fa35" y="291.28"/>
      </g>
     </g>
     <g id="text_3">
      <!-- 0 -->
      <defs>
       <path d="M 31.78125 66.40625 
Q 24.171875 66.40625 20.328125 58.90625 
Q 16.5 51.421875 16.5 36.375 
Q 16.5 21.390625 20.328125 13.890625 
Q 24.171875 6.390625 31.78125 6.390625 
Q 39.453125 6.390625 43.28125 13.890625 
Q 47.125 21.390625 47.125 36.375 
Q 47.125 51.421875 43.28125 58.90625 
Q 39.453125 66.40625 31.78125 66.40625 
z
M 31.78125 74.21875 
Q 44.046875 74.21875 50.515625 64.515625 
Q 56.984375 54.828125 56.984375 36.375 
Q 56.984375 17.96875 50.515625 8.265625 
Q 44.046875 -1.421875 31.78125 -1.421875 
Q 19.53125 -1.421875 13.0625 8.265625 
Q 6.59375 17.96875 6.59375 36.375 
Q 6.59375 54.828125 13.0625 64.515625 
Q 19.53125 74.21875 31.78125 74.21875 
z
" id="DejaVuSans-30"/>
      </defs>
      <g transform="translate(236.0535 313.476875)scale(0.2 -0.2)">
       <use xlink:href="#DejaVuSans-30"/>
      </g>
     </g>
    </g>
    <g id="xtick_4">
     <g id="line2d_7">
      <path clip-path="url(#p0397ee3e8f)" d="M 318.783458 291.28 
L 318.783458 5.52 
" style="fill:none;stroke:#b0b0b0;stroke-linecap:square;stroke-width:0.8;"/>
     </g>
     <g id="line2d_8">
      <g>
       <use style="stroke:#000000;stroke-width:0.8;" x="318.783458" xlink:href="#mc8ec41fa35" y="291.28"/>
      </g>
     </g>
     <g id="text_4">
      <!-- 1 -->
      <g transform="translate(312.420958 313.476875)scale(0.2 -0.2)">
       <use xlink:href="#DejaVuSans-31"/>
      </g>
     </g>
    </g>
    <g id="xtick_5">
     <g id="line2d_9">
      <path clip-path="url(#p0397ee3e8f)" d="M 395.150917 291.28 
L 395.150917 5.52 
" style="fill:none;stroke:#b0b0b0;stroke-linecap:square;stroke-width:0.8;"/>
     </g>
     <g id="line2d_10">
      <g>
       <use style="stroke:#000000;stroke-width:0.8;" x="395.150917" xlink:href="#mc8ec41fa35" y="291.28"/>
      </g>
     </g>
     <g id="text_5">
      <!-- 2 -->
      <g transform="translate(388.788417 313.476875)scale(0.2 -0.2)">
       <use xlink:href="#DejaVuSans-32"/>
      </g>
     </g>
    </g>
    <g id="xtick_6">
     <g id="line2d_11">
      <defs>
       <path d="M 0 0 
L 0 2 
" id="m1020180fdb" style="stroke:#000000;stroke-width:0.6;"/>
      </defs>
      <g>
       <use style="stroke:#000000;stroke-width:0.6;" x="36.30252" xlink:href="#m1020180fdb" y="291.28"/>
      </g>
     </g>
    </g>
    <g id="xtick_7">
     <g id="line2d_12">
      <g>
       <use style="stroke:#000000;stroke-width:0.6;" x="49.750162" xlink:href="#m1020180fdb" y="291.28"/>
      </g>
     </g>
    </g>
    <g id="xtick_8">
     <g id="line2d_13">
      <g>
       <use style="stroke:#000000;stroke-width:0.6;" x="59.291416" xlink:href="#m1020180fdb" y="291.28"/>
      </g>
     </g>
    </g>
    <g id="xtick_9">
     <g id="line2d_14">
      <g>
       <use style="stroke:#000000;stroke-width:0.6;" x="66.692188" xlink:href="#m1020180fdb" y="291.28"/>
      </g>
     </g>
    </g>
    <g id="xtick_10">
     <g id="line2d_15">
      <g>
       <use style="stroke:#000000;stroke-width:0.6;" x="72.739058" xlink:href="#m1020180fdb" y="291.28"/>
      </g>
     </g>
    </g>
    <g id="xtick_11">
     <g id="line2d_16">
      <g>
       <use style="stroke:#000000;stroke-width:0.6;" x="77.851614" xlink:href="#m1020180fdb" y="291.28"/>
      </g>
     </g>
    </g>
    <g id="xtick_12">
     <g id="line2d_17">
      <g>
       <use style="stroke:#000000;stroke-width:0.6;" x="82.280312" xlink:href="#m1020180fdb" y="291.28"/>
      </g>
     </g>
    </g>
    <g id="xtick_13">
     <g id="line2d_18">
      <g>
       <use style="stroke:#000000;stroke-width:0.6;" x="86.1867" xlink:href="#m1020180fdb" y="291.28"/>
      </g>
     </g>
    </g>
    <g id="xtick_14">
     <g id="line2d_19">
      <g>
       <use style="stroke:#000000;stroke-width:0.6;" x="112.669979" xlink:href="#m1020180fdb" y="291.28"/>
      </g>
     </g>
    </g>
    <g id="xtick_15">
     <g id="line2d_20">
      <g>
       <use style="stroke:#000000;stroke-width:0.6;" x="126.117621" xlink:href="#m1020180fdb" y="291.28"/>
      </g>
     </g>
    </g>
    <g id="xtick_16">
     <g id="line2d_21">
      <g>
       <use style="stroke:#000000;stroke-width:0.6;" x="135.658875" xlink:href="#m1020180fdb" y="291.28"/>
      </g>
     </g>
    </g>
    <g id="xtick_17">
     <g id="line2d_22">
      <g>
       <use style="stroke:#000000;stroke-width:0.6;" x="143.059646" xlink:href="#m1020180fdb" y="291.28"/>
      </g>
     </g>
    </g>
    <g id="xtick_18">
     <g id="line2d_23">
      <g>
       <use style="stroke:#000000;stroke-width:0.6;" x="149.106516" xlink:href="#m1020180fdb" y="291.28"/>
      </g>
     </g>
    </g>
    <g id="xtick_19">
     <g id="line2d_24">
      <g>
       <use style="stroke:#000000;stroke-width:0.6;" x="154.219073" xlink:href="#m1020180fdb" y="291.28"/>
      </g>
     </g>
    </g>
    <g id="xtick_20">
     <g id="line2d_25">
      <g>
       <use style="stroke:#000000;stroke-width:0.6;" x="158.64777" xlink:href="#m1020180fdb" y="291.28"/>
      </g>
     </g>
    </g>
    <g id="xtick_21">
     <g id="line2d_26">
      <g>
       <use style="stroke:#000000;stroke-width:0.6;" x="162.554158" xlink:href="#m1020180fdb" y="291.28"/>
      </g>
     </g>
    </g>
    <g id="xtick_22">
     <g id="line2d_27">
      <g>
       <use style="stroke:#000000;stroke-width:0.6;" x="189.037437" xlink:href="#m1020180fdb" y="291.28"/>
      </g>
     </g>
    </g>
    <g id="xtick_23">
     <g id="line2d_28">
      <g>
       <use style="stroke:#000000;stroke-width:0.6;" x="202.485079" xlink:href="#m1020180fdb" y="291.28"/>
      </g>
     </g>
    </g>
    <g id="xtick_24">
     <g id="line2d_29">
      <g>
       <use style="stroke:#000000;stroke-width:0.6;" x="212.026333" xlink:href="#m1020180fdb" y="291.28"/>
      </g>
     </g>
    </g>
    <g id="xtick_25">
     <g id="line2d_30">
      <g>
       <use style="stroke:#000000;stroke-width:0.6;" x="219.427104" xlink:href="#m1020180fdb" y="291.28"/>
      </g>
     </g>
    </g>
    <g id="xtick_26">
     <g id="line2d_31">
      <g>
       <use style="stroke:#000000;stroke-width:0.6;" x="225.473975" xlink:href="#m1020180fdb" y="291.28"/>
      </g>
     </g>
    </g>
    <g id="xtick_27">
     <g id="line2d_32">
      <g>
       <use style="stroke:#000000;stroke-width:0.6;" x="230.586531" xlink:href="#m1020180fdb" y="291.28"/>
      </g>
     </g>
    </g>
    <g id="xtick_28">
     <g id="line2d_33">
      <g>
       <use style="stroke:#000000;stroke-width:0.6;" x="235.015229" xlink:href="#m1020180fdb" y="291.28"/>
      </g>
     </g>
    </g>
    <g id="xtick_29">
     <g id="line2d_34">
      <g>
       <use style="stroke:#000000;stroke-width:0.6;" x="238.921617" xlink:href="#m1020180fdb" y="291.28"/>
      </g>
     </g>
    </g>
    <g id="xtick_30">
     <g id="line2d_35">
      <g>
       <use style="stroke:#000000;stroke-width:0.6;" x="265.404896" xlink:href="#m1020180fdb" y="291.28"/>
      </g>
     </g>
    </g>
    <g id="xtick_31">
     <g id="line2d_36">
      <g>
       <use style="stroke:#000000;stroke-width:0.6;" x="278.852538" xlink:href="#m1020180fdb" y="291.28"/>
      </g>
     </g>
    </g>
    <g id="xtick_32">
     <g id="line2d_37">
      <g>
       <use style="stroke:#000000;stroke-width:0.6;" x="288.393791" xlink:href="#m1020180fdb" y="291.28"/>
      </g>
     </g>
    </g>
    <g id="xtick_33">
     <g id="line2d_38">
      <g>
       <use style="stroke:#000000;stroke-width:0.6;" x="295.794563" xlink:href="#m1020180fdb" y="291.28"/>
      </g>
     </g>
    </g>
    <g id="xtick_34">
     <g id="line2d_39">
      <g>
       <use style="stroke:#000000;stroke-width:0.6;" x="301.841433" xlink:href="#m1020180fdb" y="291.28"/>
      </g>
     </g>
    </g>
    <g id="xtick_35">
     <g id="line2d_40">
      <g>
       <use style="stroke:#000000;stroke-width:0.6;" x="306.953989" xlink:href="#m1020180fdb" y="291.28"/>
      </g>
     </g>
    </g>
    <g id="xtick_36">
     <g id="line2d_41">
      <g>
       <use style="stroke:#000000;stroke-width:0.6;" x="311.382687" xlink:href="#m1020180fdb" y="291.28"/>
      </g>
     </g>
    </g>
    <g id="xtick_37">
     <g id="line2d_42">
      <g>
       <use style="stroke:#000000;stroke-width:0.6;" x="315.289075" xlink:href="#m1020180fdb" y="291.28"/>
      </g>
     </g>
    </g>
    <g id="xtick_38">
     <g id="line2d_43">
      <g>
       <use style="stroke:#000000;stroke-width:0.6;" x="341.772354" xlink:href="#m1020180fdb" y="291.28"/>
      </g>
     </g>
    </g>
    <g id="xtick_39">
     <g id="line2d_44">
      <g>
       <use style="stroke:#000000;stroke-width:0.6;" x="355.219996" xlink:href="#m1020180fdb" y="291.28"/>
      </g>
     </g>
    </g>
    <g id="xtick_40">
     <g id="line2d_45">
      <g>
       <use style="stroke:#000000;stroke-width:0.6;" x="364.76125" xlink:href="#m1020180fdb" y="291.28"/>
      </g>
     </g>
    </g>
    <g id="xtick_41">
     <g id="line2d_46">
      <g>
       <use style="stroke:#000000;stroke-width:0.6;" x="372.162021" xlink:href="#m1020180fdb" y="291.28"/>
      </g>
     </g>
    </g>
    <g id="xtick_42">
     <g id="line2d_47">
      <g>
       <use style="stroke:#000000;stroke-width:0.6;" x="378.208892" xlink:href="#m1020180fdb" y="291.28"/>
      </g>
     </g>
    </g>
    <g id="xtick_43">
     <g id="line2d_48">
      <g>
       <use style="stroke:#000000;stroke-width:0.6;" x="383.321448" xlink:href="#m1020180fdb" y="291.28"/>
      </g>
     </g>
    </g>
    <g id="xtick_44">
     <g id="line2d_49">
      <g>
       <use style="stroke:#000000;stroke-width:0.6;" x="387.750145" xlink:href="#m1020180fdb" y="291.28"/>
      </g>
     </g>
    </g>
    <g id="xtick_45">
     <g id="line2d_50">
      <g>
       <use style="stroke:#000000;stroke-width:0.6;" x="391.656534" xlink:href="#m1020180fdb" y="291.28"/>
      </g>
     </g>
    </g>
    <g id="xtick_46">
     <g id="line2d_51">
      <g>
       <use style="stroke:#000000;stroke-width:0.6;" x="418.139812" xlink:href="#m1020180fdb" y="291.28"/>
      </g>
     </g>
    </g>
    <g id="xtick_47">
     <g id="line2d_52">
      <g>
       <use style="stroke:#000000;stroke-width:0.6;" x="431.587454" xlink:href="#m1020180fdb" y="291.28"/>
      </g>
     </g>
    </g>
    <g id="xtick_48">
     <g id="line2d_53">
      <g>
       <use style="stroke:#000000;stroke-width:0.6;" x="441.128708" xlink:href="#m1020180fdb" y="291.28"/>
      </g>
     </g>
    </g>
    <g id="xtick_49">
     <g id="line2d_54">
      <g>
       <use style="stroke:#000000;stroke-width:0.6;" x="448.52948" xlink:href="#m1020180fdb" y="291.28"/>
      </g>
     </g>
    </g>
    <g id="text_6">
     <!-- log10 of FEvals ratio -->
     <defs>
      <path d="M 9.421875 75.984375 
L 18.40625 75.984375 
L 18.40625 0 
L 9.421875 0 
z
" id="DejaVuSans-6c"/>
      <path d="M 30.609375 48.390625 
Q 23.390625 48.390625 19.1875 42.75 
Q 14.984375 37.109375 14.984375 27.296875 
Q 14.984375 17.484375 19.15625 11.84375 
Q 23.34375 6.203125 30.609375 6.203125 
Q 37.796875 6.203125 41.984375 11.859375 
Q 46.1875 17.53125 46.1875 27.296875 
Q 46.1875 37.015625 41.984375 42.703125 
Q 37.796875 48.390625 30.609375 48.390625 
z
M 30.609375 56 
Q 42.328125 56 49.015625 48.375 
Q 55.71875 40.765625 55.71875 27.296875 
Q 55.71875 13.875 49.015625 6.21875 
Q 42.328125 -1.421875 30.609375 -1.421875 
Q 18.84375 -1.421875 12.171875 6.21875 
Q 5.515625 13.875 5.515625 27.296875 
Q 5.515625 40.765625 12.171875 48.375 
Q 18.84375 56 30.609375 56 
z
" id="DejaVuSans-6f"/>
      <path d="M 45.40625 27.984375 
Q 45.40625 37.75 41.375 43.109375 
Q 37.359375 48.484375 30.078125 48.484375 
Q 22.859375 48.484375 18.828125 43.109375 
Q 14.796875 37.75 14.796875 27.984375 
Q 14.796875 18.265625 18.828125 12.890625 
Q 22.859375 7.515625 30.078125 7.515625 
Q 37.359375 7.515625 41.375 12.890625 
Q 45.40625 18.265625 45.40625 27.984375 
z
M 54.390625 6.78125 
Q 54.390625 -7.171875 48.1875 -13.984375 
Q 42 -20.796875 29.203125 -20.796875 
Q 24.46875 -20.796875 20.265625 -20.09375 
Q 16.0625 -19.390625 12.109375 -17.921875 
L 12.109375 -9.1875 
Q 16.0625 -11.328125 19.921875 -12.34375 
Q 23.78125 -13.375 27.78125 -13.375 
Q 36.625 -13.375 41.015625 -8.765625 
Q 45.40625 -4.15625 45.40625 5.171875 
L 45.40625 9.625 
Q 42.625 4.78125 38.28125 2.390625 
Q 33.9375 0 27.875 0 
Q 17.828125 0 11.671875 7.65625 
Q 5.515625 15.328125 5.515625 27.984375 
Q 5.515625 40.671875 11.671875 48.328125 
Q 17.828125 56 27.875 56 
Q 33.9375 56 38.28125 53.609375 
Q 42.625 51.21875 45.40625 46.390625 
L 45.40625 54.6875 
L 54.390625 54.6875 
z
" id="DejaVuSans-67"/>
      <path id="DejaVuSans-20"/>
      <path d="M 37.109375 75.984375 
L 37.109375 68.5 
L 28.515625 68.5 
Q 23.6875 68.5 21.796875 66.546875 
Q 19.921875 64.59375 19.921875 59.515625 
L 19.921875 54.6875 
L 34.71875 54.6875 
L 34.71875 47.703125 
L 19.921875 47.703125 
L 19.921875 0 
L 10.890625 0 
L 10.890625 47.703125 
L 2.296875 47.703125 
L 2.296875 54.6875 
L 10.890625 54.6875 
L 10.890625 58.5 
Q 10.890625 67.625 15.140625 71.796875 
Q 19.390625 75.984375 28.609375 75.984375 
z
" id="DejaVuSans-66"/>
      <path d="M 9.8125 72.90625 
L 51.703125 72.90625 
L 51.703125 64.59375 
L 19.671875 64.59375 
L 19.671875 43.109375 
L 48.578125 43.109375 
L 48.578125 34.8125 
L 19.671875 34.8125 
L 19.671875 0 
L 9.8125 0 
z
" id="DejaVuSans-46"/>
      <path d="M 9.8125 72.90625 
L 55.90625 72.90625 
L 55.90625 64.59375 
L 19.671875 64.59375 
L 19.671875 43.015625 
L 54.390625 43.015625 
L 54.390625 34.71875 
L 19.671875 34.71875 
L 19.671875 8.296875 
L 56.78125 8.296875 
L 56.78125 0 
L 9.8125 0 
z
" id="DejaVuSans-45"/>
      <path d="M 2.984375 54.6875 
L 12.5 54.6875 
L 29.59375 8.796875 
L 46.6875 54.6875 
L 56.203125 54.6875 
L 35.6875 0 
L 23.484375 0 
z
" id="DejaVuSans-76"/>
      <path d="M 34.28125 27.484375 
Q 23.390625 27.484375 19.1875 25 
Q 14.984375 22.515625 14.984375 16.5 
Q 14.984375 11.71875 18.140625 8.90625 
Q 21.296875 6.109375 26.703125 6.109375 
Q 34.1875 6.109375 38.703125 11.40625 
Q 43.21875 16.703125 43.21875 25.484375 
L 43.21875 27.484375 
z
M 52.203125 31.203125 
L 52.203125 0 
L 43.21875 0 
L 43.21875 8.296875 
Q 40.140625 3.328125 35.546875 0.953125 
Q 30.953125 -1.421875 24.3125 -1.421875 
Q 15.921875 -1.421875 10.953125 3.296875 
Q 6 8.015625 6 15.921875 
Q 6 25.140625 12.171875 29.828125 
Q 18.359375 34.515625 30.609375 34.515625 
L 43.21875 34.515625 
L 43.21875 35.40625 
Q 43.21875 41.609375 39.140625 45 
Q 35.0625 48.390625 27.6875 48.390625 
Q 23 48.390625 18.546875 47.265625 
Q 14.109375 46.140625 10.015625 43.890625 
L 10.015625 52.203125 
Q 14.9375 54.109375 19.578125 55.046875 
Q 24.21875 56 28.609375 56 
Q 40.484375 56 46.34375 49.84375 
Q 52.203125 43.703125 52.203125 31.203125 
z
" id="DejaVuSans-61"/>
      <path d="M 44.28125 53.078125 
L 44.28125 44.578125 
Q 40.484375 46.53125 36.375 47.5 
Q 32.28125 48.484375 27.875 48.484375 
Q 21.1875 48.484375 17.84375 46.4375 
Q 14.5 44.390625 14.5 40.28125 
Q 14.5 37.15625 16.890625 35.375 
Q 19.28125 33.59375 26.515625 31.984375 
L 29.59375 31.296875 
Q 39.15625 29.25 43.1875 25.515625 
Q 47.21875 21.78125 47.21875 15.09375 
Q 47.21875 7.46875 41.1875 3.015625 
Q 35.15625 -1.421875 24.609375 -1.421875 
Q 20.21875 -1.421875 15.453125 -0.5625 
Q 10.6875 0.296875 5.421875 2 
L 5.421875 11.28125 
Q 10.40625 8.6875 15.234375 7.390625 
Q 20.0625 6.109375 24.8125 6.109375 
Q 31.15625 6.109375 34.5625 8.28125 
Q 37.984375 10.453125 37.984375 14.40625 
Q 37.984375 18.0625 35.515625 20.015625 
Q 33.0625 21.96875 24.703125 23.78125 
L 21.578125 24.515625 
Q 13.234375 26.265625 9.515625 29.90625 
Q 5.8125 33.546875 5.8125 39.890625 
Q 5.8125 47.609375 11.28125 51.796875 
Q 16.75 56 26.8125 56 
Q 31.78125 56 36.171875 55.265625 
Q 40.578125 54.546875 44.28125 53.078125 
z
" id="DejaVuSans-73"/>
      <path d="M 41.109375 46.296875 
Q 39.59375 47.171875 37.8125 47.578125 
Q 36.03125 48 33.890625 48 
Q 26.265625 48 22.1875 43.046875 
Q 18.109375 38.09375 18.109375 28.8125 
L 18.109375 0 
L 9.078125 0 
L 9.078125 54.6875 
L 18.109375 54.6875 
L 18.109375 46.1875 
Q 20.953125 51.171875 25.484375 53.578125 
Q 30.03125 56 36.53125 56 
Q 37.453125 56 38.578125 55.875 
Q 39.703125 55.765625 41.0625 55.515625 
z
" id="DejaVuSans-72"/>
      <path d="M 18.3125 70.21875 
L 18.3125 54.6875 
L 36.8125 54.6875 
L 36.8125 47.703125 
L 18.3125 47.703125 
L 18.3125 18.015625 
Q 18.3125 11.328125 20.140625 9.421875 
Q 21.96875 7.515625 27.59375 7.515625 
L 36.8125 7.515625 
L 36.8125 0 
L 27.59375 0 
Q 17.1875 0 13.234375 3.875 
Q 9.28125 7.765625 9.28125 18.015625 
L 9.28125 47.703125 
L 2.6875 47.703125 
L 2.6875 54.6875 
L 9.28125 54.6875 
L 9.28125 70.21875 
z
" id="DejaVuSans-74"/>
      <path d="M 9.421875 54.6875 
L 18.40625 54.6875 
L 18.40625 0 
L 9.421875 0 
z
M 9.421875 75.984375 
L 18.40625 75.984375 
L 18.40625 64.59375 
L 9.421875 64.59375 
z
" id="DejaVuSans-69"/>
     </defs>
     <g transform="translate(140.111312 336.833125)scale(0.2 -0.2)">
      <use xlink:href="#DejaVuSans-6c"/>
      <use x="27.783203" xlink:href="#DejaVuSans-6f"/>
      <use x="88.964844" xlink:href="#DejaVuSans-67"/>
      <use x="152.441406" xlink:href="#DejaVuSans-31"/>
      <use x="216.064453" xlink:href="#DejaVuSans-30"/>
      <use x="279.6875" xlink:href="#DejaVuSans-20"/>
      <use x="311.474609" xlink:href="#DejaVuSans-6f"/>
      <use x="372.65625" xlink:href="#DejaVuSans-66"/>
      <use x="407.861328" xlink:href="#DejaVuSans-20"/>
      <use x="439.648438" xlink:href="#DejaVuSans-46"/>
      <use x="497.167969" xlink:href="#DejaVuSans-45"/>
      <use x="560.351562" xlink:href="#DejaVuSans-76"/>
      <use x="619.53125" xlink:href="#DejaVuSans-61"/>
      <use x="680.810547" xlink:href="#DejaVuSans-6c"/>
      <use x="708.59375" xlink:href="#DejaVuSans-73"/>
      <use x="760.693359" xlink:href="#DejaVuSans-20"/>
      <use x="792.480469" xlink:href="#DejaVuSans-72"/>
      <use x="833.59375" xlink:href="#DejaVuSans-61"/>
      <use x="894.873047" xlink:href="#DejaVuSans-74"/>
      <use x="934.082031" xlink:href="#DejaVuSans-69"/>
      <use x="961.865234" xlink:href="#DejaVuSans-6f"/>
     </g>
    </g>
   </g>
   <g id="matplotlib.axis_2">
    <g id="ytick_1">
     <g id="line2d_55">
      <path clip-path="url(#p0397ee3e8f)" d="M 34.16 288.478431 
L 450.672 288.478431 
" style="fill:none;stroke:#b0b0b0;stroke-linecap:square;stroke-width:0.8;"/>
     </g>
     <g id="line2d_56">
      <defs>
       <path d="M 0 0 
L -3.5 0 
" id="m4a88dc6fd0" style="stroke:#000000;stroke-width:0.8;"/>
      </defs>
      <g>
       <use style="stroke:#000000;stroke-width:0.8;" x="34.16" xlink:href="#m4a88dc6fd0" y="288.478431"/>
      </g>
     </g>
    </g>
    <g id="ytick_2">
     <g id="line2d_57">
      <path clip-path="url(#p0397ee3e8f)" d="M 34.16 218.439216 
L 450.672 218.439216 
" style="fill:none;stroke:#b0b0b0;stroke-linecap:square;stroke-width:0.8;"/>
     </g>
     <g id="line2d_58">
      <g>
       <use style="stroke:#000000;stroke-width:0.8;" x="34.16" xlink:href="#m4a88dc6fd0" y="218.439216"/>
      </g>
     </g>
    </g>
    <g id="ytick_3">
     <g id="line2d_59">
      <path clip-path="url(#p0397ee3e8f)" d="M 34.16 148.4 
L 450.672 148.4 
" style="fill:none;stroke:#b0b0b0;stroke-linecap:square;stroke-width:0.8;"/>
     </g>
     <g id="line2d_60">
      <g>
       <use style="stroke:#000000;stroke-width:0.8;" x="34.16" xlink:href="#m4a88dc6fd0" y="148.4"/>
      </g>
     </g>
    </g>
    <g id="ytick_4">
     <g id="line2d_61">
      <path clip-path="url(#p0397ee3e8f)" d="M 34.16 78.360784 
L 450.672 78.360784 
" style="fill:none;stroke:#b0b0b0;stroke-linecap:square;stroke-width:0.8;"/>
     </g>
     <g id="line2d_62">
      <g>
       <use style="stroke:#000000;stroke-width:0.8;" x="34.16" xlink:href="#m4a88dc6fd0" y="78.360784"/>
      </g>
     </g>
    </g>
    <g id="ytick_5">
     <g id="line2d_63">
      <path clip-path="url(#p0397ee3e8f)" d="M 34.16 8.321569 
L 450.672 8.321569 
" style="fill:none;stroke:#b0b0b0;stroke-linecap:square;stroke-width:0.8;"/>
     </g>
     <g id="line2d_64">
      <g>
       <use style="stroke:#000000;stroke-width:0.8;" x="34.16" xlink:href="#m4a88dc6fd0" y="8.321569"/>
      </g>
     </g>
    </g>
    <g id="text_7">
     <!-- proportion of trials -->
     <defs>
      <path d="M 18.109375 8.203125 
L 18.109375 -20.796875 
L 9.078125 -20.796875 
L 9.078125 54.6875 
L 18.109375 54.6875 
L 18.109375 46.390625 
Q 20.953125 51.265625 25.265625 53.625 
Q 29.59375 56 35.59375 56 
Q 45.5625 56 51.78125 48.09375 
Q 58.015625 40.1875 58.015625 27.296875 
Q 58.015625 14.40625 51.78125 6.484375 
Q 45.5625 -1.421875 35.59375 -1.421875 
Q 29.59375 -1.421875 25.265625 0.953125 
Q 20.953125 3.328125 18.109375 8.203125 
z
M 48.6875 27.296875 
Q 48.6875 37.203125 44.609375 42.84375 
Q 40.53125 48.484375 33.40625 48.484375 
Q 26.265625 48.484375 22.1875 42.84375 
Q 18.109375 37.203125 18.109375 27.296875 
Q 18.109375 17.390625 22.1875 11.75 
Q 26.265625 6.109375 33.40625 6.109375 
Q 40.53125 6.109375 44.609375 11.75 
Q 48.6875 17.390625 48.6875 27.296875 
z
" id="DejaVuSans-70"/>
      <path d="M 54.890625 33.015625 
L 54.890625 0 
L 45.90625 0 
L 45.90625 32.71875 
Q 45.90625 40.484375 42.875 44.328125 
Q 39.84375 48.1875 33.796875 48.1875 
Q 26.515625 48.1875 22.3125 43.546875 
Q 18.109375 38.921875 18.109375 30.90625 
L 18.109375 0 
L 9.078125 0 
L 9.078125 54.6875 
L 18.109375 54.6875 
L 18.109375 46.1875 
Q 21.34375 51.125 25.703125 53.5625 
Q 30.078125 56 35.796875 56 
Q 45.21875 56 50.046875 50.171875 
Q 54.890625 44.34375 54.890625 33.015625 
z
" id="DejaVuSans-6e"/>
     </defs>
     <g transform="translate(19.000625 241.628125)rotate(-90)scale(0.2 -0.2)">
      <use xlink:href="#DejaVuSans-70"/>
      <use x="63.476562" xlink:href="#DejaVuSans-72"/>
      <use x="104.558594" xlink:href="#DejaVuSans-6f"/>
      <use x="165.740234" xlink:href="#DejaVuSans-70"/>
      <use x="229.216797" xlink:href="#DejaVuSans-6f"/>
      <use x="290.398438" xlink:href="#DejaVuSans-72"/>
      <use x="331.511719" xlink:href="#DejaVuSans-74"/>
      <use x="370.720703" xlink:href="#DejaVuSans-69"/>
      <use x="398.503906" xlink:href="#DejaVuSans-6f"/>
      <use x="459.685547" xlink:href="#DejaVuSans-6e"/>
      <use x="523.064453" xlink:href="#DejaVuSans-20"/>
      <use x="554.851562" xlink:href="#DejaVuSans-6f"/>
      <use x="616.033203" xlink:href="#DejaVuSans-66"/>
      <use x="651.238281" xlink:href="#DejaVuSans-20"/>
      <use x="683.025391" xlink:href="#DejaVuSans-74"/>
      <use x="722.234375" xlink:href="#DejaVuSans-72"/>
      <use x="763.347656" xlink:href="#DejaVuSans-69"/>
      <use x="791.130859" xlink:href="#DejaVuSans-61"/>
      <use x="852.410156" xlink:href="#DejaVuSans-6c"/>
      <use x="880.193359" xlink:href="#DejaVuSans-73"/>
     </g>
    </g>
   </g>
   <g id="line2d_65">
    <path clip-path="url(#p0397ee3e8f)" d="M 34.16 272.315535 
L 160.935985 272.315535 
L 160.935985 271.95636 
L 161.484196 271.95636 
L 161.484196 271.597185 
L 163.908059 271.597185 
L 163.908059 271.238009 
L 164.09704 271.238009 
L 164.09704 270.878834 
L 164.456269 270.878834 
L 164.456269 270.519658 
L 165.087142 270.519658 
L 165.087142 270.160483 
L 165.571325 270.160483 
L 165.571325 269.801307 
L 167.069113 269.801307 
L 167.069113 269.442132 
L 167.891569 269.442132 
L 167.891569 268.723781 
L 168.059216 268.723781 
L 168.059216 268.364605 
L 168.336757 268.364605 
L 168.336757 268.00543 
L 168.543399 268.00543 
L 168.543399 267.646254 
L 169.209596 267.646254 
L 169.209596 267.287079 
L 170.863643 267.287079 
L 170.863643 266.568728 
L 171.308831 266.568728 
L 171.308831 266.209553 
L 172.18167 266.209553 
L 172.18167 265.850377 
L 181.447686 265.850377 
L 181.447686 265.132026 
L 182.990567 265.132026 
L 182.990567 264.772851 
L 184.473091 264.772851 
L 184.473091 264.413675 
L 187.445165 264.413675 
L 187.445165 264.0545 
L 187.560296 264.0545 
L 187.560296 263.336149 
L 193.672777 263.336149 
L 193.672777 262.976973 
L 196.644851 262.976973 
L 196.644851 262.617798 
L 199.165715 262.617798 
L 199.165715 262.258622 
L 202.137788 262.258622 
L 202.137788 261.899447 
L 207.990137 261.899447 
L 207.990137 261.540271 
L 209.15368 261.540271 
L 209.15368 260.821921 
L 210.696562 260.821921 
L 210.696562 260.462745 
L 211.038134 260.462745 
L 211.092019 259.026043 
L 212.6349 259.026043 
L 212.6349 258.666868 
L 214.037007 258.666868 
L 214.037007 258.307692 
L 215.266291 258.307692 
L 215.266291 257.589341 
L 217.204629 257.589341 
L 217.204629 256.87099 
L 218.920744 256.87099 
L 218.920744 256.511815 
L 219.824306 256.511815 
L 219.824306 255.793464 
L 221.367188 255.793464 
L 221.367188 255.434289 
L 223.23001 255.434289 
L 223.23001 255.075113 
L 223.778221 255.075113 
L 223.778221 254.715938 
L 225.936917 254.715938 
L 226.013946 253.279236 
L 226.391065 253.279236 
L 226.391065 252.92006 
L 227.381167 252.92006 
L 227.381167 252.560885 
L 227.86535 252.560885 
L 227.86535 252.201709 
L 230.185594 252.201709 
L 230.185594 251.483358 
L 230.630782 251.483358 
L 230.630782 251.124183 
L 231.503621 251.124183 
L 231.503621 250.765008 
L 232.874746 250.765008 
L 232.874746 250.405832 
L 233.422956 250.405832 
L 233.422956 250.046657 
L 235.696131 250.046657 
L 235.696131 249.687481 
L 236.0358 249.687481 
L 236.0358 249.328306 
L 236.2362 249.328306 
L 236.2362 248.96913 
L 237.025903 248.96913 
L 237.025903 248.609955 
L 237.510086 248.609955 
L 237.510086 248.250779 
L 237.63447 248.250779 
L 237.63447 247.891604 
L 238.334593 247.891604 
L 238.334593 247.173253 
L 238.744129 247.173253 
L 238.744129 246.814077 
L 239.208273 246.814077 
L 239.254946 246.095726 
L 239.803156 246.095726 
L 239.877474 244.659025 
L 240.275518 244.659025 
L 240.275518 244.299849 
L 240.682467 244.299849 
L 240.682467 243.940674 
L 241.148357 243.940674 
L 241.148357 243.581498 
L 242.416 243.581498 
L 242.416 243.222323 
L 243.406102 243.222323 
L 243.406102 242.863147 
L 243.890286 242.863147 
L 243.890286 242.503972 
L 244.447204 242.503972 
L 244.447204 241.785621 
L 246.21053 241.785621 
L 246.21053 241.06727 
L 246.366757 241.06727 
L 246.366757 240.708095 
L 246.626739 240.708095 
L 246.655717 239.989744 
L 246.767116 239.989744 
L 246.767116 239.630568 
L 247.528556 239.630568 
L 247.528556 239.271393 
L 248.565077 239.271393 
L 248.565077 238.912217 
L 249.414755 238.912217 
L 249.42427 237.834691 
L 250.967151 237.834691 
L 250.967151 237.475515 
L 251.957254 237.475515 
L 251.957254 236.757164 
L 252.487921 236.757164 
L 252.487921 236.038813 
L 252.68363 236.038813 
L 252.68363 235.679638 
L 253.500135 235.679638 
L 253.500135 235.320463 
L 253.719941 235.320463 
L 253.719941 234.602112 
L 254.030802 234.602112 
L 254.030802 234.242936 
L 255.058295 234.242936 
L 255.058295 233.883761 
L 255.276618 233.883761 
L 255.276618 233.16541 
L 255.536881 233.16541 
L 255.536881 232.447059 
L 255.655704 232.447059 
L 255.658279 231.369532 
L 255.966802 231.369532 
L 255.966802 231.010357 
L 256.411852 231.010357 
L 256.411852 230.651181 
L 256.703331 230.651181 
L 256.703331 230.292006 
L 256.8195 230.292006 
L 256.8195 229.932831 
L 257.251542 229.932831 
L 257.297365 229.21448 
L 257.689753 229.21448 
L 257.689753 228.496129 
L 258.069865 228.496129 
L 258.069865 227.777778 
L 258.600531 227.777778 
L 258.600531 227.059427 
L 258.965524 227.059427 
L 258.965524 226.341076 
L 259.232634 226.341076 
L 259.232634 225.9819 
L 259.864386 225.9819 
L 259.864386 225.622725 
L 260.508405 225.622725 
L 260.508405 225.26355 
L 260.854488 225.26355 
L 260.854488 224.904374 
L 261.338671 224.904374 
L 261.389229 223.826848 
L 261.45974 223.826848 
L 261.45974 223.467672 
L 262.792052 223.467672 
L 262.792052 223.108497 
L 263.264413 223.108497 
L 263.264413 222.749321 
L 263.658915 222.749321 
L 263.658915 222.03097 
L 263.802363 222.03097 
L 263.812624 220.953444 
L 264.104103 220.953444 
L 264.104103 220.594268 
L 264.390567 220.594268 
L 264.390567 219.875918 
L 264.877044 219.875918 
L 264.976942 219.157567 
L 265.078135 219.157567 
L 265.078135 218.439216 
L 265.611538 218.439216 
L 265.611538 218.08004 
L 266.425467 218.08004 
L 266.425467 217.720865 
L 267.41557 217.720865 
L 267.41557 217.361689 
L 267.899753 217.361689 
L 267.925042 216.643338 
L 270.219997 216.643338 
L 270.219997 215.924987 
L 270.665185 215.924987 
L 270.665185 215.565812 
L 271.104475 215.565812 
L 271.104475 215.206637 
L 271.538024 215.206637 
L 271.538024 214.847461 
L 271.991737 214.847461 
L 271.991737 214.488286 
L 273.358958 214.488286 
L 273.358958 214.12911 
L 275.807652 214.12911 
L 275.807652 213.769935 
L 275.966721 213.769935 
L 275.966721 213.410759 
L 276.564322 213.410759 
L 276.564322 212.692408 
L 277.484675 212.692408 
L 277.484675 212.333233 
L 278.107204 212.333233 
L 278.107204 211.974057 
L 278.499705 211.974057 
L 278.499705 211.614882 
L 279.014719 211.614882 
L 279.030372 210.896531 
L 280.058706 210.896531 
L 280.058706 210.17818 
L 280.240437 210.17818 
L 280.240437 209.819005 
L 281.547702 209.819005 
L 281.601587 209.100654 
L 281.819069 209.100654 
L 281.819069 208.741478 
L 282.078369 208.741478 
L 282.078369 208.382303 
L 282.676933 208.382303 
L 282.764289 207.304776 
L 282.900854 207.304776 
L 283.003694 206.22725 
L 284.232204 206.22725 
L 284.232204 205.868074 
L 284.702628 205.868074 
L 284.702628 205.508899 
L 284.867067 205.508899 
L 284.867067 205.149723 
L 285.507975 205.149723 
L 285.507975 204.790548 
L 286.171316 204.790548 
L 286.171316 204.072197 
L 286.801519 204.072197 
L 286.897329 202.635495 
L 287.280201 202.635495 
L 287.280201 202.27632 
L 288.393791 202.27632 
L 288.393791 201.198793 
L 288.555972 201.198793 
L 288.555972 200.839618 
L 289.383894 200.839618 
L 289.440123 199.762092 
L 289.936673 199.762092 
L 289.960979 199.043741 
L 292.749677 199.043741 
L 292.749677 198.684565 
L 292.963521 198.684565 
L 292.963521 197.966214 
L 293.434915 197.966214 
L 293.434915 197.607039 
L 293.990531 197.607039 
L 293.990531 196.888688 
L 294.506402 196.888688 
L 294.506402 196.170337 
L 294.933061 196.170337 
L 294.933061 195.811161 
L 295.162811 195.811161 
L 295.162811 195.451986 
L 296.001205 195.451986 
L 296.001205 195.09281 
L 296.438582 195.09281 
L 296.523514 194.015284 
L 297.054181 194.015284 
L 297.054181 193.296933 
L 298.530225 193.296933 
L 298.530225 192.937758 
L 299.842879 192.937758 
L 299.842879 192.219407 
L 301.494142 192.219407 
L 301.494142 191.860231 
L 302.256013 191.860231 
L 302.256013 191.14188 
L 303.106773 191.14188 
L 303.106773 190.782705 
L 303.531785 190.782705 
L 303.531785 190.064354 
L 305.335816 190.064354 
L 305.335816 189.705178 
L 305.884027 189.705178 
L 305.884027 189.346003 
L 306.154771 189.346003 
L 306.154771 188.986828 
L 306.601157 188.986828 
L 306.601157 188.627652 
L 306.832279 188.627652 
L 306.832279 188.268477 
L 308.17496 188.268477 
L 308.17496 187.909301 
L 308.496871 187.909301 
L 308.496871 187.550126 
L 309.242205 187.550126 
L 309.242205 187.19095 
L 309.486973 187.19095 
L 309.486973 186.831775 
L 309.649154 186.831775 
L 309.649154 186.472599 
L 309.790415 186.472599 
L 309.790415 186.113424 
L 309.971156 186.113424 
L 309.971156 185.754248 
L 311.945202 185.754248 
L 311.945202 185.395073 
L 312.2914 185.395073 
L 312.2914 184.676722 
L 312.403259 184.676722 
L 312.403259 184.317547 
L 312.736588 184.317547 
L 312.736588 183.958371 
L 313.393361 183.958371 
L 313.393361 182.880845 
L 313.609427 182.880845 
L 313.609427 182.521669 
L 313.877544 182.521669 
L 313.877544 182.162494 
L 314.037381 182.162494 
L 314.037381 181.803318 
L 314.55516 181.803318 
L 314.55516 181.444143 
L 314.936242 181.444143 
L 314.977655 180.725792 
L 316.197789 180.725792 
L 316.197789 180.007441 
L 316.441359 180.007441 
L 316.441359 179.648265 
L 316.642976 179.648265 
L 316.642976 179.28909 
L 317.515815 179.28909 
L 317.531764 178.570739 
L 317.98424 178.570739 
L 317.98424 178.211564 
L 318.783458 178.211564 
L 318.783458 177.852388 
L 319.331669 177.852388 
L 319.331669 177.493213 
L 321.130583 177.493213 
L 321.130583 176.774862 
L 321.944513 176.774862 
L 321.944513 176.415686 
L 322.934615 176.415686 
L 323.034879 175.697335 
L 323.418798 175.697335 
L 323.418798 175.33816 
L 324.323968 175.33816 
L 324.323968 174.978984 
L 324.622391 174.978984 
L 324.624966 173.901458 
L 325.567863 173.901458 
L 325.567863 173.542283 
L 325.739042 173.542283 
L 325.739042 172.823932 
L 325.86685 172.823932 
L 325.86685 172.464756 
L 326.09853 172.464756 
L 326.18423 171.746405 
L 327.057069 171.746405 
L 327.057069 171.38723 
L 328.872922 171.38723 
L 328.887227 170.668879 
L 331.002591 170.668879 
L 331.002591 170.309703 
L 331.300362 170.309703 
L 331.300362 169.950528 
L 331.417171 169.950528 
L 331.417171 169.232177 
L 332.003546 169.232177 
L 332.003546 168.873002 
L 332.2311 168.873002 
L 332.2311 168.513826 
L 332.576133 168.513826 
L 332.576133 168.154651 
L 332.779311 168.154651 
L 332.779311 167.4363 
L 332.960052 167.4363 
L 332.960052 166.717949 
L 335.392154 166.717949 
L 335.392154 166.358773 
L 336.382257 166.358773 
L 336.382257 165.999598 
L 336.86644 165.999598 
L 336.86644 165.640422 
L 338.072608 165.640422 
L 338.072608 165.281247 
L 338.564627 165.281247 
L 338.564627 164.922071 
L 339.186684 164.922071 
L 339.186684 164.20372 
L 339.631872 164.20372 
L 339.631872 163.844545 
L 340.504711 163.844545 
L 340.504711 163.48537 
L 341.772354 163.48537 
L 341.772354 163.126194 
L 341.978996 163.126194 
L 341.978996 162.767019 
L 342.320564 162.767019 
L 342.320564 162.048668 
L 343.565546 162.048668 
L 343.565546 161.689492 
L 344.933408 161.689492 
L 344.933408 161.330317 
L 345.923511 161.330317 
L 345.923511 160.971141 
L 346.407694 160.971141 
L 346.407694 160.611966 
L 347.471934 160.611966 
L 347.471934 160.25279 
L 348.450976 160.25279 
L 348.450976 159.893615 
L 348.727938 159.893615 
L 348.727938 159.175264 
L 349.173125 159.175264 
L 349.173125 158.816088 
L 350.045964 158.816088 
L 350.045964 158.456913 
L 350.174931 158.456913 
L 350.174931 158.097738 
L 351.52025 158.097738 
L 351.52025 157.738562 
L 353.669315 157.738562 
L 353.669315 157.379387 
L 355.012058 157.379387 
L 355.012058 157.020211 
L 355.464764 157.020211 
L 355.464764 156.661036 
L 355.768206 156.661036 
L 355.768206 156.30186 
L 357.013188 156.30186 
L 357.013188 155.942685 
L 359.371152 155.942685 
L 359.371152 155.583509 
L 360.461519 155.583509 
L 360.461519 155.224334 
L 362.0044 155.224334 
L 362.0044 154.865158 
L 364.967892 154.865158 
L 364.967892 154.505983 
L 365.30946 154.505983 
L 365.30946 154.146807 
L 368.912406 154.146807 
L 368.912406 153.787632 
L 370.460829 153.787632 
L 370.460829 153.428457 
L 374.509146 153.428457 
L 374.509146 153.069281 
L 380.002083 153.069281 
L 380.002083 152.710106 
L 380.636031 152.710106 
L 380.636031 152.35093 
L 382.360048 152.35093 
L 382.360048 151.991755 
L 384.542419 151.991755 
L 384.542419 151.632579 
L 391.901302 151.632579 
L 391.901302 151.273404 
L 394.083673 151.273404 
L 394.083673 150.914228 
L 397.083461 150.914228 
L 397.083461 150.555053 
L 400.98985 150.555053 
L 400.98985 150.195877 
L 407.531314 150.195877 
L 407.531314 149.836702 
L 410.531103 149.836702 
L 410.531103 149.477526 
L 417.072568 149.477526 
L 417.072568 149.118351 
L 423.978745 149.118351 
L 423.978745 148.759175 
L 433.519999 148.759175 
L 433.519999 148.4 
L 450.672 148.4 
L 450.672 148.4 
" style="fill:none;stroke:#000000;stroke-linecap:square;stroke-width:3;"/>
   </g>
   <g id="line2d_66">
    <path clip-path="url(#p0397ee3e8f)" style="fill:none;stroke:#000000;stroke-linecap:square;stroke-width:3;"/>
   </g>
   <g id="line2d_67">
    <path clip-path="url(#p0397ee3e8f)" d="M 34.16 258.461625 
L 90.479978 258.461625 
L 90.479978 257.50871 
L 92.098151 257.50871 
L 92.098151 257.032253 
L 92.723943 257.032253 
L 92.723943 256.079338 
L 112.458665 256.079338 
L 112.458665 255.602881 
L 125.324562 255.602881 
L 125.324562 254.649967 
L 126.942735 254.649967 
L 126.942735 254.173509 
L 127.55454 254.173509 
L 127.568527 252.26768 
L 129.172713 252.26768 
L 129.172713 251.791223 
L 129.798505 251.791223 
L 129.798505 250.838309 
L 130.675171 250.838309 
L 130.675171 249.885394 
L 132.499519 249.885394 
L 132.499519 249.408937 
L 146.315358 249.408937 
L 146.315358 248.456022 
L 147.303249 248.456022 
L 147.303249 247.979565 
L 147.933531 247.979565 
L 147.933531 247.503108 
L 148.559322 247.503108 
L 148.559322 246.550193 
L 149.533227 246.550193 
L 149.533227 246.073736 
L 165.519755 246.073736 
L 165.519755 245.120822 
L 167.344103 245.120822 
L 167.344103 244.644364 
L 167.749733 244.644364 
L 167.749733 243.69145 
L 168.294045 243.69145 
L 168.294045 243.214993 
L 169.574081 243.214993 
L 169.574081 242.738535 
L 174.716956 242.738535 
L 174.716956 241.785621 
L 176.335129 241.785621 
L 176.335129 241.309164 
L 176.960921 241.309164 
L 176.960921 240.356249 
L 186.510551 240.356249 
L 186.510551 239.403335 
L 188.334899 239.403335 
L 188.334899 238.926877 
L 196.695643 238.926877 
L 196.695643 238.45042 
L 211.499878 238.45042 
L 211.499878 237.497506 
L 213.118051 237.497506 
L 213.118051 237.021048 
L 213.743842 237.021048 
L 213.743842 236.068134 
L 214.912149 236.068134 
L 214.912149 235.115219 
L 216.736497 235.115219 
L 216.736497 234.638762 
L 233.478565 234.638762 
L 233.478565 234.162305 
L 239.483765 234.162305 
L 239.483765 233.685848 
L 239.739874 233.685848 
L 239.739874 233.20939 
L 243.622168 233.20939 
L 243.622168 232.732933 
L 244.822877 232.732933 
L 244.822877 230.827104 
L 245.227322 230.827104 
L 245.227322 230.350647 
L 245.483431 230.350647 
L 245.483431 229.87419 
L 246.280957 229.87419 
L 246.280957 228.921275 
L 246.44105 228.921275 
L 246.44105 227.968361 
L 246.884537 227.968361 
L 246.884537 227.491903 
L 247.066842 227.491903 
L 247.140646 225.109617 
L 247.899129 225.109617 
L 247.899129 224.63316 
L 248.185329 224.63316 
L 248.185329 224.156703 
L 248.524921 224.156703 
L 248.524921 223.203788 
L 249.365725 223.203788 
L 249.365725 222.727331 
L 250.233959 222.727331 
L 250.233959 221.774416 
L 251.022939 221.774416 
L 251.022939 221.297959 
L 251.679713 221.297959 
L 251.695071 219.868587 
L 251.852132 219.868587 
L 251.852132 219.39213 
L 252.477923 219.39213 
L 252.477923 218.439216 
L 252.853686 218.439216 
L 252.853686 217.486301 
L 253.519419 217.486301 
L 253.519419 217.009844 
L 253.928886 217.009844 
L 253.928886 216.533387 
L 254.471859 216.533387 
L 254.471859 216.056929 
L 255.09765 216.056929 
L 255.09765 215.104015 
L 255.379459 215.104015 
L 255.379459 214.627558 
L 255.586101 214.627558 
L 255.586101 214.1511 
L 257.217543 214.1511 
L 257.217543 213.198186 
L 257.423269 213.198186 
L 257.423269 212.721729 
L 257.739852 212.721729 
L 257.739852 211.768814 
L 258.123498 211.768814 
L 258.123498 211.292357 
L 258.270519 211.292357 
L 258.379607 209.862985 
L 258.835716 209.862985 
L 258.835716 209.386528 
L 259.080484 209.386528 
L 259.080484 208.910071 
L 259.358025 208.910071 
L 259.461507 207.480699 
L 259.888692 207.480699 
L 259.983817 206.051327 
L 260.482403 206.051327 
L 260.514483 204.145498 
L 261.085357 204.145498 
L 261.123015 203.192584 
L 261.341466 203.192584 
L 261.341466 202.716126 
L 262.051945 202.716126 
L 262.100576 201.763212 
L 262.261901 201.763212 
L 262.308054 200.810297 
L 262.472661 200.810297 
L 262.472661 200.33384 
L 262.726367 200.33384 
L 262.78023 198.428011 
L 265.223759 198.428011 
L 265.223759 197.951554 
L 266.190348 197.951554 
L 266.190348 197.475097 
L 266.611064 197.475097 
L 266.611064 196.998639 
L 266.801564 196.998639 
L 266.825062 195.569268 
L 268.259643 195.569268 
L 268.259643 195.09281 
L 269.786921 195.09281 
L 269.786921 194.616353 
L 270.319445 194.616353 
L 270.319445 194.139896 
L 270.75351 194.139896 
L 270.75351 193.663439 
L 271.174225 193.663439 
L 271.174225 193.186981 
L 272.212645 193.186981 
L 272.212645 192.710524 
L 273.281304 192.710524 
L 273.281304 192.234067 
L 274.019191 192.234067 
L 274.019191 191.75761 
L 274.247893 191.75761 
L 274.247893 191.281152 
L 274.668608 191.281152 
L 274.668608 190.804695 
L 274.832372 190.804695 
L 274.832372 190.328238 
L 276.98105 190.328238 
L 276.98105 189.851781 
L 277.947639 189.851781 
L 277.947639 189.375323 
L 278.368354 189.375323 
L 278.368354 188.898866 
L 279.196229 188.898866 
L 279.196229 188.422409 
L 279.718539 188.422409 
L 279.718539 187.945952 
L 280.249206 187.945952 
L 280.249206 187.469494 
L 282.461089 187.469494 
L 282.461089 186.993037 
L 285.01807 186.993037 
L 285.01807 185.087208 
L 286.476149 185.087208 
L 286.476149 184.134294 
L 286.842418 184.134294 
L 286.842418 183.181379 
L 288.300497 183.181379 
L 288.300497 182.704922 
L 290.429152 182.704922 
L 290.429152 181.752007 
L 292.2535 181.752007 
L 292.2535 181.27555 
L 293.048879 181.27555 
L 293.048879 180.322636 
L 294.873227 180.322636 
L 294.873227 179.846178 
L 297.412736 179.846178 
L 297.412736 178.893264 
L 297.935045 178.893264 
L 297.935045 177.940349 
L 298.465712 177.940349 
L 298.465712 176.987435 
L 299.237084 176.987435 
L 299.237084 176.510978 
L 299.759393 176.510978 
L 299.759393 176.03452 
L 300.29006 176.03452 
L 300.29006 175.558063 
L 300.677596 175.558063 
L 300.677596 174.605149 
L 302.501944 174.605149 
L 302.501944 174.128691 
L 450.672 174.128691 
L 450.672 174.128691 
" style="fill:none;stroke:#00bfbf;stroke-linecap:square;stroke-width:3;"/>
   </g>
   <g id="line2d_68">
    <path clip-path="url(#p0397ee3e8f)" style="fill:none;stroke:#00bfbf;stroke-linecap:square;stroke-width:3;"/>
   </g>
   <g id="line2d_69">
    <path clip-path="url(#p0397ee3e8f)" d="M 34.16 270.500451 
L 90.479978 270.500451 
L 90.479978 269.501674 
L 92.098151 269.501674 
L 92.098151 269.002286 
L 92.723943 269.002286 
L 92.723943 268.003509 
L 112.458665 268.003509 
L 112.458665 267.504121 
L 125.324562 267.504121 
L 125.324562 266.505344 
L 126.942735 266.505344 
L 126.942735 266.005956 
L 127.55454 266.005956 
L 127.568527 264.008402 
L 129.172713 264.008402 
L 129.172713 263.509014 
L 129.798505 263.509014 
L 129.798505 262.510237 
L 130.675171 262.510237 
L 130.675171 261.511461 
L 132.499519 261.511461 
L 132.499519 261.012072 
L 146.315358 261.012072 
L 146.315358 260.013296 
L 147.303249 260.013296 
L 147.303249 259.513907 
L 147.933531 259.513907 
L 147.933531 259.014519 
L 148.559322 259.014519 
L 148.559322 258.015742 
L 149.533227 258.015742 
L 149.533227 257.516354 
L 165.519755 257.516354 
L 165.519755 256.517577 
L 167.344103 256.517577 
L 167.344103 256.018189 
L 167.749733 256.018189 
L 167.749733 255.019412 
L 168.294045 255.019412 
L 168.294045 254.520024 
L 169.574081 254.520024 
L 169.574081 254.020635 
L 174.716956 254.020635 
L 174.716956 253.021859 
L 176.335129 253.021859 
L 176.335129 252.52247 
L 176.960921 252.52247 
L 176.960921 251.523694 
L 186.510551 251.523694 
L 186.510551 250.524917 
L 188.334899 250.524917 
L 188.334899 250.025529 
L 196.695643 250.025529 
L 196.695643 249.52614 
L 211.499878 249.52614 
L 211.499878 248.527364 
L 213.118051 248.527364 
L 213.118051 248.027975 
L 213.743842 248.027975 
L 213.743842 247.029199 
L 214.912149 247.029199 
L 214.912149 246.030422 
L 216.736497 246.030422 
L 216.736497 245.531034 
L 233.478565 245.531034 
L 233.478565 245.031645 
L 234.755102 245.031645 
L 234.755102 244.532257 
L 235.711172 244.532257 
L 235.711172 244.032868 
L 236.640451 244.032868 
L 236.640451 243.53348 
L 238.256946 243.53348 
L 238.256946 243.034092 
L 239.1838 243.034092 
L 239.1838 242.534703 
L 240.139869 242.534703 
L 240.139869 242.035315 
L 241.069149 242.035315 
L 241.069149 241.535927 
L 242.34147 241.535927 
L 242.34147 241.036538 
L 242.685643 241.036538 
L 242.753475 240.037762 
L 243.297539 240.037762 
L 243.297539 239.538373 
L 243.709544 239.538373 
L 243.709544 239.038985 
L 244.226819 239.038985 
L 244.226819 238.539597 
L 244.638824 238.539597 
L 244.638824 238.040208 
L 244.822877 238.040208 
L 244.822877 236.042655 
L 245.843314 236.042655 
L 245.843314 235.543267 
L 246.255318 235.543267 
L 246.280957 234.045102 
L 246.44105 234.045102 
L 246.44105 233.046325 
L 246.754218 233.046325 
L 246.754218 232.546936 
L 247.066842 232.546936 
L 247.066842 230.549383 
L 247.710288 230.549383 
L 247.710288 230.049995 
L 247.899129 230.049995 
L 247.899129 229.550606 
L 248.500199 229.550606 
L 248.524921 228.052441 
L 248.639568 228.052441 
L 248.639568 227.553053 
L 249.456268 227.553053 
L 249.456268 227.053665 
L 250.233959 227.053665 
L 250.256062 225.5555 
L 250.385548 225.5555 
L 250.385548 225.056111 
L 251.695071 225.056111 
L 251.695071 224.057335 
L 251.852132 224.057335 
L 251.852132 223.557946 
L 252.002042 223.557946 
L 252.002042 223.058558 
L 252.477923 223.058558 
L 252.477923 222.059781 
L 252.853686 222.059781 
L 252.853686 221.061005 
L 253.519419 221.061005 
L 253.519419 220.561616 
L 254.471859 220.561616 
L 254.471859 220.062228 
L 255.09765 220.062228 
L 255.09765 219.063451 
L 257.217543 219.063451 
L 257.217543 218.064674 
L 257.739852 218.064674 
L 257.739852 217.065898 
L 258.270519 217.065898 
L 258.270519 216.067121 
L 258.835716 216.067121 
L 258.835716 215.567733 
L 259.358025 215.567733 
L 259.461507 214.069568 
L 259.888692 214.069568 
L 259.983817 212.571403 
L 260.482403 212.571403 
L 260.514483 210.573849 
L 262.100576 210.573849 
L 262.100576 210.074461 
L 262.726367 210.074461 
L 262.726367 209.075684 
L 266.801564 209.075684 
L 266.801564 208.076907 
L 268.259643 208.076907 
L 268.259643 207.577519 
L 272.212645 207.577519 
L 272.212645 207.078131 
L 274.832372 207.078131 
L 274.832372 206.578742 
L 279.196229 206.578742 
L 279.196229 206.079354 
L 279.718539 206.079354 
L 279.718539 205.579966 
L 280.249206 205.579966 
L 280.249206 205.080577 
L 282.461089 205.080577 
L 282.461089 204.581189 
L 285.01807 204.581189 
L 285.01807 202.583636 
L 286.476149 202.583636 
L 286.476149 201.584859 
L 286.842418 201.584859 
L 286.842418 200.586082 
L 288.300497 200.586082 
L 288.300497 200.086694 
L 290.429152 200.086694 
L 290.429152 199.087917 
L 292.2535 199.087917 
L 292.2535 198.588529 
L 293.048879 198.588529 
L 293.048879 197.589752 
L 294.873227 197.589752 
L 294.873227 197.090364 
L 297.412736 197.090364 
L 297.412736 196.091587 
L 297.935045 196.091587 
L 297.935045 195.09281 
L 298.465712 195.09281 
L 298.465712 194.094034 
L 299.237084 194.094034 
L 299.237084 193.594645 
L 299.759393 193.594645 
L 299.759393 193.095257 
L 300.29006 193.095257 
L 300.29006 192.595869 
L 300.677596 192.595869 
L 300.677596 191.597092 
L 302.501944 191.597092 
L 302.501944 191.097704 
L 450.672 191.097704 
L 450.672 191.097704 
" style="fill:none;stroke:#bf00bf;stroke-linecap:square;stroke-width:3;"/>
   </g>
   <g id="line2d_70">
    <path clip-path="url(#p0397ee3e8f)" style="fill:none;stroke:#bf00bf;stroke-linecap:square;stroke-width:3;"/>
   </g>
   <g id="line2d_71">
    <path clip-path="url(#p0397ee3e8f)" d="M 34.16 283.756686 
L 90.479978 283.756686 
L 90.479978 282.70741 
L 92.098151 282.70741 
L 92.098151 282.182772 
L 92.723943 282.182772 
L 92.723943 281.133495 
L 112.458665 281.133495 
L 112.458665 280.608857 
L 125.324562 280.608857 
L 125.324562 279.55958 
L 126.942735 279.55958 
L 126.942735 279.034942 
L 127.55454 279.034942 
L 127.568527 276.936388 
L 129.172713 276.936388 
L 129.172713 276.41175 
L 129.798505 276.41175 
L 129.798505 275.362473 
L 130.675171 275.362473 
L 130.675171 274.313197 
L 132.499519 274.313197 
L 132.499519 273.788558 
L 146.315358 273.788558 
L 146.315358 272.739282 
L 147.303249 272.739282 
L 147.303249 272.214643 
L 147.933531 272.214643 
L 147.933531 271.690005 
L 148.559322 271.690005 
L 148.559322 270.640729 
L 149.533227 270.640729 
L 149.533227 270.11609 
L 165.519755 270.11609 
L 165.519755 269.066814 
L 167.344103 269.066814 
L 167.344103 268.542175 
L 167.749733 268.542175 
L 167.749733 267.492899 
L 168.294045 267.492899 
L 168.294045 266.96826 
L 169.574081 266.96826 
L 169.574081 266.443622 
L 174.716956 266.443622 
L 174.716956 265.394345 
L 176.335129 265.394345 
L 176.335129 264.869707 
L 176.960921 264.869707 
L 176.960921 263.82043 
L 186.510551 263.82043 
L 186.510551 262.771154 
L 188.334899 262.771154 
L 188.334899 262.246515 
L 196.695643 262.246515 
L 196.695643 261.721877 
L 211.499878 261.721877 
L 211.499878 260.6726 
L 213.118051 260.6726 
L 213.118051 260.147962 
L 213.743842 260.147962 
L 213.743842 259.098685 
L 214.912149 259.098685 
L 214.912149 258.049409 
L 216.736497 258.049409 
L 216.736497 257.524771 
L 225.234261 257.524771 
L 225.234261 257.000132 
L 225.646266 257.000132 
L 225.646266 256.475494 
L 228.231936 256.475494 
L 228.231936 255.950856 
L 228.68318 255.950856 
L 228.68318 255.426217 
L 229.604516 255.426217 
L 229.604516 254.901579 
L 232.532826 254.901579 
L 232.532826 254.376941 
L 233.478565 254.376941 
L 233.478565 253.852302 
L 244.822877 253.852302 
L 244.822877 251.753749 
L 246.280957 251.753749 
L 246.280957 250.704472 
L 246.44105 250.704472 
L 246.44105 249.655196 
L 247.066842 249.655196 
L 247.066842 247.556642 
L 247.899129 247.556642 
L 247.899129 247.032004 
L 248.524921 247.032004 
L 248.524921 245.982727 
L 250.233959 245.982727 
L 250.233959 244.933451 
L 251.695071 244.933451 
L 251.695071 243.884174 
L 251.852132 243.884174 
L 251.852132 243.359536 
L 252.477923 243.359536 
L 252.477923 242.310259 
L 252.853686 242.310259 
L 252.853686 241.260983 
L 253.519419 241.260983 
L 253.519419 240.736344 
L 254.471859 240.736344 
L 254.471859 240.211706 
L 255.09765 240.211706 
L 255.09765 239.162429 
L 257.217543 239.162429 
L 257.217543 238.113153 
L 257.739852 238.113153 
L 257.739852 237.063876 
L 258.270519 237.063876 
L 258.270519 236.014599 
L 258.835716 236.014599 
L 258.835716 235.489961 
L 259.358025 235.489961 
L 259.461507 233.916046 
L 259.888692 233.916046 
L 259.983817 232.342131 
L 260.482403 232.342131 
L 260.514483 230.243578 
L 262.100576 230.243578 
L 262.100576 229.71894 
L 262.726367 229.71894 
L 262.726367 228.669663 
L 266.801564 228.669663 
L 266.801564 227.620386 
L 268.259643 227.620386 
L 268.259643 227.095748 
L 272.212645 227.095748 
L 272.212645 226.57111 
L 274.832372 226.57111 
L 274.832372 226.046471 
L 279.196229 226.046471 
L 279.196229 225.521833 
L 279.718539 225.521833 
L 279.718539 224.997195 
L 280.249206 224.997195 
L 280.249206 224.472556 
L 282.461089 224.472556 
L 282.461089 223.947918 
L 285.01807 223.947918 
L 285.01807 221.849365 
L 286.476149 221.849365 
L 286.476149 220.800088 
L 286.842418 220.800088 
L 286.842418 219.750811 
L 288.300497 219.750811 
L 288.300497 219.226173 
L 290.429152 219.226173 
L 290.429152 218.176897 
L 292.2535 218.176897 
L 292.2535 217.652258 
L 293.048879 217.652258 
L 293.048879 216.602982 
L 294.873227 216.602982 
L 294.873227 216.078343 
L 297.412736 216.078343 
L 297.412736 215.029067 
L 297.935045 215.029067 
L 297.935045 213.97979 
L 298.465712 213.97979 
L 298.465712 212.930513 
L 299.237084 212.930513 
L 299.237084 212.405875 
L 299.759393 212.405875 
L 299.759393 211.881237 
L 300.29006 211.881237 
L 300.29006 211.356598 
L 300.677596 211.356598 
L 300.677596 210.307322 
L 302.501944 210.307322 
L 302.501944 209.782683 
L 450.672 209.782683 
L 450.672 209.782683 
" style="fill:none;stroke:#ff0000;stroke-linecap:square;stroke-width:3;"/>
   </g>
   <g id="line2d_72">
    <path clip-path="url(#p0397ee3e8f)" style="fill:none;stroke:#ff0000;stroke-linecap:square;stroke-width:3;"/>
   </g>
   <g id="line2d_73">
    <path clip-path="url(#p0397ee3e8f)" d="M 242.416 291.28 
L 242.416 5.52 
" style="fill:none;stroke:#000000;stroke-linecap:square;stroke-width:1.5;"/>
   </g>
   <g id="line2d_74">
    <path clip-path="url(#p0397ee3e8f)" d="M 34.16 148.4 
L 450.672 148.4 
" style="fill:none;stroke:#000000;stroke-dasharray:2,3.3;stroke-dashoffset:0;stroke-width:2;"/>
   </g>
   <g id="patch_3">
    <path d="M 34.16 291.28 
L 34.16 5.52 
" style="fill:none;stroke:#000000;stroke-linecap:square;stroke-linejoin:miter;stroke-width:0.8;"/>
   </g>
   <g id="patch_4">
    <path d="M 450.672 291.28 
L 450.672 5.52 
" style="fill:none;stroke:#000000;stroke-linecap:square;stroke-linejoin:miter;stroke-width:0.8;"/>
   </g>
   <g id="patch_5">
    <path d="M 34.16 291.28 
L 450.672 291.28 
" style="fill:none;stroke:#000000;stroke-linecap:square;stroke-linejoin:miter;stroke-width:0.8;"/>
   </g>
   <g id="patch_6">
    <path d="M 34.16 5.52 
L 450.672 5.52 
" style="fill:none;stroke:#000000;stroke-linecap:square;stroke-linejoin:miter;stroke-width:0.8;"/>
   </g>
   <g id="text_8">
    <!-- f1-f5,5-D -->
    <defs>
     <path d="M 10.796875 72.90625 
L 49.515625 72.90625 
L 49.515625 64.59375 
L 19.828125 64.59375 
L 19.828125 46.734375 
Q 21.96875 47.46875 24.109375 47.828125 
Q 26.265625 48.1875 28.421875 48.1875 
Q 40.625 48.1875 47.75 41.5 
Q 54.890625 34.8125 54.890625 23.390625 
Q 54.890625 11.625 47.5625 5.09375 
Q 40.234375 -1.421875 26.90625 -1.421875 
Q 22.3125 -1.421875 17.546875 -0.640625 
Q 12.796875 0.140625 7.71875 1.703125 
L 7.71875 11.625 
Q 12.109375 9.234375 16.796875 8.0625 
Q 21.484375 6.890625 26.703125 6.890625 
Q 35.15625 6.890625 40.078125 11.328125 
Q 45.015625 15.765625 45.015625 23.390625 
Q 45.015625 31 40.078125 35.4375 
Q 35.15625 39.890625 26.703125 39.890625 
Q 22.75 39.890625 18.8125 39.015625 
Q 14.890625 38.140625 10.796875 36.28125 
z
" id="DejaVuSans-35"/>
     <path d="M 11.71875 12.40625 
L 22.015625 12.40625 
L 22.015625 4 
L 14.015625 -11.625 
L 7.71875 -11.625 
L 11.71875 4 
z
" id="DejaVuSans-2c"/>
     <path d="M 19.671875 64.796875 
L 19.671875 8.109375 
L 31.59375 8.109375 
Q 46.6875 8.109375 53.6875 14.9375 
Q 60.6875 21.78125 60.6875 36.53125 
Q 60.6875 51.171875 53.6875 57.984375 
Q 46.6875 64.796875 31.59375 64.796875 
z
M 9.8125 72.90625 
L 30.078125 72.90625 
Q 51.265625 72.90625 61.171875 64.09375 
Q 71.09375 55.28125 71.09375 36.53125 
Q 71.09375 17.671875 61.125 8.828125 
Q 51.171875 0 30.078125 0 
L 9.8125 0 
z
" id="DejaVuSans-44"/>
    </defs>
    <g transform="translate(353.89801 285.5648)scale(0.2 -0.2)">
     <use xlink:href="#DejaVuSans-66"/>
     <use x="35.205078" xlink:href="#DejaVuSans-31"/>
     <use x="98.828125" xlink:href="#DejaVuSans-2d"/>
     <use x="134.912109" xlink:href="#DejaVuSans-66"/>
     <use x="170.117188" xlink:href="#DejaVuSans-35"/>
     <use x="233.740234" xlink:href="#DejaVuSans-2c"/>
     <use x="265.527344" xlink:href="#DejaVuSans-35"/>
     <use x="329.150391" xlink:href="#DejaVuSans-2d"/>
     <use x="365.234375" xlink:href="#DejaVuSans-44"/>
    </g>
   </g>
   <g id="text_9">
    <!-- v0.0.0 -->
    <defs>
     <path d="M 10.6875 12.40625 
L 21 12.40625 
L 21 0 
L 10.6875 0 
z
" id="DejaVuSans-2e"/>
    </defs>
    <g style="fill:#808080;" transform="translate(226.73475 286.342713)scale(0.1 -0.1)">
     <use xlink:href="#DejaVuSans-76"/>
     <use x="59.179688" xlink:href="#DejaVuSans-30"/>
     <use x="122.802734" xlink:href="#DejaVuSans-2e"/>
     <use x="154.589844" xlink:href="#DejaVuSans-30"/>
     <use x="218.212891" xlink:href="#DejaVuSans-2e"/>
     <use x="250" xlink:href="#DejaVuSans-30"/>
    </g>
   </g>
   <g id="legend_1">
    <g id="patch_7">
     <path d="M 307.450125 138.945 
L 436.672 138.945 
Q 440.672 138.945 440.672 134.945 
L 440.672 19.52 
Q 440.672 15.52 436.672 15.52 
L 307.450125 15.52 
Q 303.450125 15.52 303.450125 19.52 
L 303.450125 134.945 
Q 303.450125 138.945 307.450125 138.945 
z
" style="fill:#ffffff;opacity:0.2;stroke:#cccccc;stroke-linejoin:miter;"/>
    </g>
    <g id="line2d_75">
     <path d="M 311.450125 31.716875 
L 351.450125 31.716875 
" style="fill:none;stroke:#000000;stroke-linecap:square;stroke-width:3;"/>
    </g>
    <g id="line2d_76"/>
    <g id="text_10">
     <!-- 1: 2/5 -->
     <defs>
      <path d="M 11.71875 12.40625 
L 22.015625 12.40625 
L 22.015625 0 
L 11.71875 0 
z
M 11.71875 51.703125 
L 22.015625 51.703125 
L 22.015625 39.3125 
L 11.71875 39.3125 
z
" id="DejaVuSans-3a"/>
      <path d="M 25.390625 72.90625 
L 33.6875 72.90625 
L 8.296875 -9.28125 
L 0 -9.28125 
z
" id="DejaVuSans-2f"/>
     </defs>
     <g transform="translate(367.450125 38.716875)scale(0.2 -0.2)">
      <use xlink:href="#DejaVuSans-31"/>
      <use x="63.623047" xlink:href="#DejaVuSans-3a"/>
      <use x="97.314453" xlink:href="#DejaVuSans-20"/>
      <use x="129.101562" xlink:href="#DejaVuSans-32"/>
      <use x="192.724609" xlink:href="#DejaVuSans-2f"/>
      <use x="226.416016" xlink:href="#DejaVuSans-35"/>
     </g>
    </g>
    <g id="line2d_77">
     <path d="M 311.450125 61.073125 
L 351.450125 61.073125 
" style="fill:none;stroke:#00bfbf;stroke-linecap:square;stroke-width:3;"/>
    </g>
    <g id="line2d_78"/>
    <g id="text_11">
     <!-- -1: 2/3 -->
     <defs>
      <path d="M 40.578125 39.3125 
Q 47.65625 37.796875 51.625 33 
Q 55.609375 28.21875 55.609375 21.1875 
Q 55.609375 10.40625 48.1875 4.484375 
Q 40.765625 -1.421875 27.09375 -1.421875 
Q 22.515625 -1.421875 17.65625 -0.515625 
Q 12.796875 0.390625 7.625 2.203125 
L 7.625 11.71875 
Q 11.71875 9.328125 16.59375 8.109375 
Q 21.484375 6.890625 26.8125 6.890625 
Q 36.078125 6.890625 40.9375 10.546875 
Q 45.796875 14.203125 45.796875 21.1875 
Q 45.796875 27.640625 41.28125 31.265625 
Q 36.765625 34.90625 28.71875 34.90625 
L 20.21875 34.90625 
L 20.21875 43.015625 
L 29.109375 43.015625 
Q 36.375 43.015625 40.234375 45.921875 
Q 44.09375 48.828125 44.09375 54.296875 
Q 44.09375 59.90625 40.109375 62.90625 
Q 36.140625 65.921875 28.71875 65.921875 
Q 24.65625 65.921875 20.015625 65.03125 
Q 15.375 64.15625 9.8125 62.3125 
L 9.8125 71.09375 
Q 15.4375 72.65625 20.34375 73.4375 
Q 25.25 74.21875 29.59375 74.21875 
Q 40.828125 74.21875 47.359375 69.109375 
Q 53.90625 64.015625 53.90625 55.328125 
Q 53.90625 49.265625 50.4375 45.09375 
Q 46.96875 40.921875 40.578125 39.3125 
z
" id="DejaVuSans-33"/>
     </defs>
     <g transform="translate(367.450125 68.073125)scale(0.2 -0.2)">
      <use xlink:href="#DejaVuSans-2d"/>
      <use x="36.083984" xlink:href="#DejaVuSans-31"/>
      <use x="99.707031" xlink:href="#DejaVuSans-3a"/>
      <use x="133.398438" xlink:href="#DejaVuSans-20"/>
      <use x="165.185547" xlink:href="#DejaVuSans-32"/>
      <use x="228.808594" xlink:href="#DejaVuSans-2f"/>
      <use x="262.5" xlink:href="#DejaVuSans-33"/>
     </g>
    </g>
    <g id="line2d_79">
     <path d="M 311.450125 90.429375 
L 351.450125 90.429375 
" style="fill:none;stroke:#bf00bf;stroke-linecap:square;stroke-width:3;"/>
    </g>
    <g id="line2d_80"/>
    <g id="text_12">
     <!-- -4: 2/3 -->
     <defs>
      <path d="M 37.796875 64.3125 
L 12.890625 25.390625 
L 37.796875 25.390625 
z
M 35.203125 72.90625 
L 47.609375 72.90625 
L 47.609375 25.390625 
L 58.015625 25.390625 
L 58.015625 17.1875 
L 47.609375 17.1875 
L 47.609375 0 
L 37.796875 0 
L 37.796875 17.1875 
L 4.890625 17.1875 
L 4.890625 26.703125 
z
" id="DejaVuSans-34"/>
     </defs>
     <g transform="translate(367.450125 97.429375)scale(0.2 -0.2)">
      <use xlink:href="#DejaVuSans-2d"/>
      <use x="36.083984" xlink:href="#DejaVuSans-34"/>
      <use x="99.707031" xlink:href="#DejaVuSans-3a"/>
      <use x="133.398438" xlink:href="#DejaVuSans-20"/>
      <use x="165.185547" xlink:href="#DejaVuSans-32"/>
      <use x="228.808594" xlink:href="#DejaVuSans-2f"/>
      <use x="262.5" xlink:href="#DejaVuSans-33"/>
     </g>
    </g>
    <g id="line2d_81">
     <path d="M 311.450125 119.785625 
L 351.450125 119.785625 
" style="fill:none;stroke:#ff0000;stroke-linecap:square;stroke-width:3;"/>
    </g>
    <g id="line2d_82"/>
    <g id="text_13">
     <!-- -8: 2/3 -->
     <defs>
      <path d="M 31.78125 34.625 
Q 24.75 34.625 20.71875 30.859375 
Q 16.703125 27.09375 16.703125 20.515625 
Q 16.703125 13.921875 20.71875 10.15625 
Q 24.75 6.390625 31.78125 6.390625 
Q 38.8125 6.390625 42.859375 10.171875 
Q 46.921875 13.96875 46.921875 20.515625 
Q 46.921875 27.09375 42.890625 30.859375 
Q 38.875 34.625 31.78125 34.625 
z
M 21.921875 38.8125 
Q 15.578125 40.375 12.03125 44.71875 
Q 8.5 49.078125 8.5 55.328125 
Q 8.5 64.0625 14.71875 69.140625 
Q 20.953125 74.21875 31.78125 74.21875 
Q 42.671875 74.21875 48.875 69.140625 
Q 55.078125 64.0625 55.078125 55.328125 
Q 55.078125 49.078125 51.53125 44.71875 
Q 48 40.375 41.703125 38.8125 
Q 48.828125 37.15625 52.796875 32.3125 
Q 56.78125 27.484375 56.78125 20.515625 
Q 56.78125 9.90625 50.3125 4.234375 
Q 43.84375 -1.421875 31.78125 -1.421875 
Q 19.734375 -1.421875 13.25 4.234375 
Q 6.78125 9.90625 6.78125 20.515625 
Q 6.78125 27.484375 10.78125 32.3125 
Q 14.796875 37.15625 21.921875 38.8125 
z
M 18.3125 54.390625 
Q 18.3125 48.734375 21.84375 45.5625 
Q 25.390625 42.390625 31.78125 42.390625 
Q 38.140625 42.390625 41.71875 45.5625 
Q 45.3125 48.734375 45.3125 54.390625 
Q 45.3125 60.0625 41.71875 63.234375 
Q 38.140625 66.40625 31.78125 66.40625 
Q 25.390625 66.40625 21.84375 63.234375 
Q 18.3125 60.0625 18.3125 54.390625 
z
" id="DejaVuSans-38"/>
     </defs>
     <g transform="translate(367.450125 126.785625)scale(0.2 -0.2)">
      <use xlink:href="#DejaVuSans-2d"/>
      <use x="36.083984" xlink:href="#DejaVuSans-38"/>
      <use x="99.707031" xlink:href="#DejaVuSans-3a"/>
      <use x="133.398438" xlink:href="#DejaVuSans-20"/>
      <use x="165.185547" xlink:href="#DejaVuSans-32"/>
      <use x="228.808594" xlink:href="#DejaVuSans-2f"/>
      <use x="262.5" xlink:href="#DejaVuSans-33"/>
     </g>
    </g>
   </g>
  </g>
 </g>
 <defs>
  <clipPath id="p0397ee3e8f">
   <rect height="285.76" width="416.512" x="34.16" y="5.52"/>
  </clipPath>
 </defs>
</svg>
