<?xml version="1.0" encoding="utf-8" standalone="no"?>
<!DOCTYPE svg PUBLIC "-//W3C//DTD SVG 1.1//EN"
  "http://www.w3.org/Graphics/SVG/1.1/DTD/svg11.dtd">
<!-- Created with matplotlib (http://matplotlib.org/) -->
<svg height="345pt" version="1.1" viewBox="0 0 460 345" width="460pt" xmlns="http://www.w3.org/2000/svg" xmlns:xlink="http://www.w3.org/1999/xlink">
 <defs>
  <style type="text/css">
*{stroke-linecap:butt;stroke-linejoin:round;}
  </style>
 </defs>
 <g id="figure_1">
  <g id="patch_1">
   <path d="M 0 345.6 
L 460.8 345.6 
L 460.8 0 
L 0 0 
z
" style="fill:#ffffff;"/>
  </g>
  <g id="axes_1">
   <g id="patch_2">
    <path d="M 34.16 291.28 
L 450.672 291.28 
L 450.672 5.52 
L 34.16 5.52 
z
" style="fill:#ffffff;"/>
   </g>
   <g id="matplotlib.axis_1">
    <g id="xtick_1">
     <g id="line2d_1">
      <path clip-path="url(#p1330eac198)" d="M 119.575241 291.28 
L 119.575241 5.52 
" style="fill:none;stroke:#b0b0b0;stroke-linecap:square;stroke-width:0.8;"/>
     </g>
     <g id="line2d_2">
      <defs>
       <path d="M 0 0 
L 0 3.5 
" id="m7e8aa9f6b9" style="stroke:#000000;stroke-width:0.8;"/>
      </defs>
      <g>
       <use style="stroke:#000000;stroke-width:0.8;" x="119.575241" xlink:href="#m7e8aa9f6b9" y="291.28"/>
      </g>
     </g>
     <g id="text_1">
      <!-- -2 -->
      <defs>
       <path d="M 4.890625 31.390625 
L 31.203125 31.390625 
L 31.203125 23.390625 
L 4.890625 23.390625 
z
" id="DejaVuSans-2d"/>
       <path d="M 19.1875 8.296875 
L 53.609375 8.296875 
L 53.609375 0 
L 7.328125 0 
L 7.328125 8.296875 
Q 12.9375 14.109375 22.625 23.890625 
Q 32.328125 33.6875 34.8125 36.53125 
Q 39.546875 41.84375 41.421875 45.53125 
Q 43.3125 49.21875 43.3125 52.78125 
Q 43.3125 58.59375 39.234375 62.25 
Q 35.15625 65.921875 28.609375 65.921875 
Q 23.96875 65.921875 18.8125 64.3125 
Q 13.671875 62.703125 7.8125 59.421875 
L 7.8125 69.390625 
Q 13.765625 71.78125 18.9375 73 
Q 24.125 74.21875 28.421875 74.21875 
Q 39.75 74.21875 46.484375 68.546875 
Q 53.21875 62.890625 53.21875 53.421875 
Q 53.21875 48.921875 51.53125 44.890625 
Q 49.859375 40.875 45.40625 35.40625 
Q 44.1875 33.984375 37.640625 27.21875 
Q 31.109375 20.453125 19.1875 8.296875 
z
" id="DejaVuSans-32"/>
      </defs>
      <g transform="translate(109.604929 313.476875)scale(0.2 -0.2)">
       <use xlink:href="#DejaVuSans-2d"/>
       <use x="36.083984" xlink:href="#DejaVuSans-32"/>
      </g>
     </g>
    </g>
    <g id="xtick_2">
     <g id="line2d_3">
      <path clip-path="url(#p1330eac198)" d="M 242.416 291.28 
L 242.416 5.52 
" style="fill:none;stroke:#b0b0b0;stroke-linecap:square;stroke-width:0.8;"/>
     </g>
     <g id="line2d_4">
      <g>
       <use style="stroke:#000000;stroke-width:0.8;" x="242.416" xlink:href="#m7e8aa9f6b9" y="291.28"/>
      </g>
     </g>
     <g id="text_2">
      <!-- 0 -->
      <defs>
       <path d="M 31.78125 66.40625 
Q 24.171875 66.40625 20.328125 58.90625 
Q 16.5 51.421875 16.5 36.375 
Q 16.5 21.390625 20.328125 13.890625 
Q 24.171875 6.390625 31.78125 6.390625 
Q 39.453125 6.390625 43.28125 13.890625 
Q 47.125 21.390625 47.125 36.375 
Q 47.125 51.421875 43.28125 58.90625 
Q 39.453125 66.40625 31.78125 66.40625 
z
M 31.78125 74.21875 
Q 44.046875 74.21875 50.515625 64.515625 
Q 56.984375 54.828125 56.984375 36.375 
Q 56.984375 17.96875 50.515625 8.265625 
Q 44.046875 -1.421875 31.78125 -1.421875 
Q 19.53125 -1.421875 13.0625 8.265625 
Q 6.59375 17.96875 6.59375 36.375 
Q 6.59375 54.828125 13.0625 64.515625 
Q 19.53125 74.21875 31.78125 74.21875 
z
" id="DejaVuSans-30"/>
      </defs>
      <g transform="translate(236.0535 313.476875)scale(0.2 -0.2)">
       <use xlink:href="#DejaVuSans-30"/>
      </g>
     </g>
    </g>
    <g id="xtick_3">
     <g id="line2d_5">
      <path clip-path="url(#p1330eac198)" d="M 365.256759 291.28 
L 365.256759 5.52 
" style="fill:none;stroke:#b0b0b0;stroke-linecap:square;stroke-width:0.8;"/>
     </g>
     <g id="line2d_6">
      <g>
       <use style="stroke:#000000;stroke-width:0.8;" x="365.256759" xlink:href="#m7e8aa9f6b9" y="291.28"/>
      </g>
     </g>
     <g id="text_3">
      <!-- 2 -->
      <g transform="translate(358.894259 313.476875)scale(0.2 -0.2)">
       <use xlink:href="#DejaVuSans-32"/>
      </g>
     </g>
    </g>
    <g id="text_4">
     <!-- log10 of FEvals ratio -->
     <defs>
      <path d="M 9.421875 75.984375 
L 18.40625 75.984375 
L 18.40625 0 
L 9.421875 0 
z
" id="DejaVuSans-6c"/>
      <path d="M 30.609375 48.390625 
Q 23.390625 48.390625 19.1875 42.75 
Q 14.984375 37.109375 14.984375 27.296875 
Q 14.984375 17.484375 19.15625 11.84375 
Q 23.34375 6.203125 30.609375 6.203125 
Q 37.796875 6.203125 41.984375 11.859375 
Q 46.1875 17.53125 46.1875 27.296875 
Q 46.1875 37.015625 41.984375 42.703125 
Q 37.796875 48.390625 30.609375 48.390625 
z
M 30.609375 56 
Q 42.328125 56 49.015625 48.375 
Q 55.71875 40.765625 55.71875 27.296875 
Q 55.71875 13.875 49.015625 6.21875 
Q 42.328125 -1.421875 30.609375 -1.421875 
Q 18.84375 -1.421875 12.171875 6.21875 
Q 5.515625 13.875 5.515625 27.296875 
Q 5.515625 40.765625 12.171875 48.375 
Q 18.84375 56 30.609375 56 
z
" id="DejaVuSans-6f"/>
      <path d="M 45.40625 27.984375 
Q 45.40625 37.75 41.375 43.109375 
Q 37.359375 48.484375 30.078125 48.484375 
Q 22.859375 48.484375 18.828125 43.109375 
Q 14.796875 37.75 14.796875 27.984375 
Q 14.796875 18.265625 18.828125 12.890625 
Q 22.859375 7.515625 30.078125 7.515625 
Q 37.359375 7.515625 41.375 12.890625 
Q 45.40625 18.265625 45.40625 27.984375 
z
M 54.390625 6.78125 
Q 54.390625 -7.171875 48.1875 -13.984375 
Q 42 -20.796875 29.203125 -20.796875 
Q 24.46875 -20.796875 20.265625 -20.09375 
Q 16.0625 -19.390625 12.109375 -17.921875 
L 12.109375 -9.1875 
Q 16.0625 -11.328125 19.921875 -12.34375 
Q 23.78125 -13.375 27.78125 -13.375 
Q 36.625 -13.375 41.015625 -8.765625 
Q 45.40625 -4.15625 45.40625 5.171875 
L 45.40625 9.625 
Q 42.625 4.78125 38.28125 2.390625 
Q 33.9375 0 27.875 0 
Q 17.828125 0 11.671875 7.65625 
Q 5.515625 15.328125 5.515625 27.984375 
Q 5.515625 40.671875 11.671875 48.328125 
Q 17.828125 56 27.875 56 
Q 33.9375 56 38.28125 53.609375 
Q 42.625 51.21875 45.40625 46.390625 
L 45.40625 54.6875 
L 54.390625 54.6875 
z
" id="DejaVuSans-67"/>
      <path d="M 12.40625 8.296875 
L 28.515625 8.296875 
L 28.515625 63.921875 
L 10.984375 60.40625 
L 10.984375 69.390625 
L 28.421875 72.90625 
L 38.28125 72.90625 
L 38.28125 8.296875 
L 54.390625 8.296875 
L 54.390625 0 
L 12.40625 0 
z
" id="DejaVuSans-31"/>
      <path id="DejaVuSans-20"/>
      <path d="M 37.109375 75.984375 
L 37.109375 68.5 
L 28.515625 68.5 
Q 23.6875 68.5 21.796875 66.546875 
Q 19.921875 64.59375 19.921875 59.515625 
L 19.921875 54.6875 
L 34.71875 54.6875 
L 34.71875 47.703125 
L 19.921875 47.703125 
L 19.921875 0 
L 10.890625 0 
L 10.890625 47.703125 
L 2.296875 47.703125 
L 2.296875 54.6875 
L 10.890625 54.6875 
L 10.890625 58.5 
Q 10.890625 67.625 15.140625 71.796875 
Q 19.390625 75.984375 28.609375 75.984375 
z
" id="DejaVuSans-66"/>
      <path d="M 9.8125 72.90625 
L 51.703125 72.90625 
L 51.703125 64.59375 
L 19.671875 64.59375 
L 19.671875 43.109375 
L 48.578125 43.109375 
L 48.578125 34.8125 
L 19.671875 34.8125 
L 19.671875 0 
L 9.8125 0 
z
" id="DejaVuSans-46"/>
      <path d="M 9.8125 72.90625 
L 55.90625 72.90625 
L 55.90625 64.59375 
L 19.671875 64.59375 
L 19.671875 43.015625 
L 54.390625 43.015625 
L 54.390625 34.71875 
L 19.671875 34.71875 
L 19.671875 8.296875 
L 56.78125 8.296875 
L 56.78125 0 
L 9.8125 0 
z
" id="DejaVuSans-45"/>
      <path d="M 2.984375 54.6875 
L 12.5 54.6875 
L 29.59375 8.796875 
L 46.6875 54.6875 
L 56.203125 54.6875 
L 35.6875 0 
L 23.484375 0 
z
" id="DejaVuSans-76"/>
      <path d="M 34.28125 27.484375 
Q 23.390625 27.484375 19.1875 25 
Q 14.984375 22.515625 14.984375 16.5 
Q 14.984375 11.71875 18.140625 8.90625 
Q 21.296875 6.109375 26.703125 6.109375 
Q 34.1875 6.109375 38.703125 11.40625 
Q 43.21875 16.703125 43.21875 25.484375 
L 43.21875 27.484375 
z
M 52.203125 31.203125 
L 52.203125 0 
L 43.21875 0 
L 43.21875 8.296875 
Q 40.140625 3.328125 35.546875 0.953125 
Q 30.953125 -1.421875 24.3125 -1.421875 
Q 15.921875 -1.421875 10.953125 3.296875 
Q 6 8.015625 6 15.921875 
Q 6 25.140625 12.171875 29.828125 
Q 18.359375 34.515625 30.609375 34.515625 
L 43.21875 34.515625 
L 43.21875 35.40625 
Q 43.21875 41.609375 39.140625 45 
Q 35.0625 48.390625 27.6875 48.390625 
Q 23 48.390625 18.546875 47.265625 
Q 14.109375 46.140625 10.015625 43.890625 
L 10.015625 52.203125 
Q 14.9375 54.109375 19.578125 55.046875 
Q 24.21875 56 28.609375 56 
Q 40.484375 56 46.34375 49.84375 
Q 52.203125 43.703125 52.203125 31.203125 
z
" id="DejaVuSans-61"/>
      <path d="M 44.28125 53.078125 
L 44.28125 44.578125 
Q 40.484375 46.53125 36.375 47.5 
Q 32.28125 48.484375 27.875 48.484375 
Q 21.1875 48.484375 17.84375 46.4375 
Q 14.5 44.390625 14.5 40.28125 
Q 14.5 37.15625 16.890625 35.375 
Q 19.28125 33.59375 26.515625 31.984375 
L 29.59375 31.296875 
Q 39.15625 29.25 43.1875 25.515625 
Q 47.21875 21.78125 47.21875 15.09375 
Q 47.21875 7.46875 41.1875 3.015625 
Q 35.15625 -1.421875 24.609375 -1.421875 
Q 20.21875 -1.421875 15.453125 -0.5625 
Q 10.6875 0.296875 5.421875 2 
L 5.421875 11.28125 
Q 10.40625 8.6875 15.234375 7.390625 
Q 20.0625 6.109375 24.8125 6.109375 
Q 31.15625 6.109375 34.5625 8.28125 
Q 37.984375 10.453125 37.984375 14.40625 
Q 37.984375 18.0625 35.515625 20.015625 
Q 33.0625 21.96875 24.703125 23.78125 
L 21.578125 24.515625 
Q 13.234375 26.265625 9.515625 29.90625 
Q 5.8125 33.546875 5.8125 39.890625 
Q 5.8125 47.609375 11.28125 51.796875 
Q 16.75 56 26.8125 56 
Q 31.78125 56 36.171875 55.265625 
Q 40.578125 54.546875 44.28125 53.078125 
z
" id="DejaVuSans-73"/>
      <path d="M 41.109375 46.296875 
Q 39.59375 47.171875 37.8125 47.578125 
Q 36.03125 48 33.890625 48 
Q 26.265625 48 22.1875 43.046875 
Q 18.109375 38.09375 18.109375 28.8125 
L 18.109375 0 
L 9.078125 0 
L 9.078125 54.6875 
L 18.109375 54.6875 
L 18.109375 46.1875 
Q 20.953125 51.171875 25.484375 53.578125 
Q 30.03125 56 36.53125 56 
Q 37.453125 56 38.578125 55.875 
Q 39.703125 55.765625 41.0625 55.515625 
z
" id="DejaVuSans-72"/>
      <path d="M 18.3125 70.21875 
L 18.3125 54.6875 
L 36.8125 54.6875 
L 36.8125 47.703125 
L 18.3125 47.703125 
L 18.3125 18.015625 
Q 18.3125 11.328125 20.140625 9.421875 
Q 21.96875 7.515625 27.59375 7.515625 
L 36.8125 7.515625 
L 36.8125 0 
L 27.59375 0 
Q 17.1875 0 13.234375 3.875 
Q 9.28125 7.765625 9.28125 18.015625 
L 9.28125 47.703125 
L 2.6875 47.703125 
L 2.6875 54.6875 
L 9.28125 54.6875 
L 9.28125 70.21875 
z
" id="DejaVuSans-74"/>
      <path d="M 9.421875 54.6875 
L 18.40625 54.6875 
L 18.40625 0 
L 9.421875 0 
z
M 9.421875 75.984375 
L 18.40625 75.984375 
L 18.40625 64.59375 
L 9.421875 64.59375 
z
" id="DejaVuSans-69"/>
     </defs>
     <g transform="translate(140.111312 336.833125)scale(0.2 -0.2)">
      <use xlink:href="#DejaVuSans-6c"/>
      <use x="27.783203" xlink:href="#DejaVuSans-6f"/>
      <use x="88.964844" xlink:href="#DejaVuSans-67"/>
      <use x="152.441406" xlink:href="#DejaVuSans-31"/>
      <use x="216.064453" xlink:href="#DejaVuSans-30"/>
      <use x="279.6875" xlink:href="#DejaVuSans-20"/>
      <use x="311.474609" xlink:href="#DejaVuSans-6f"/>
      <use x="372.65625" xlink:href="#DejaVuSans-66"/>
      <use x="407.861328" xlink:href="#DejaVuSans-20"/>
      <use x="439.648438" xlink:href="#DejaVuSans-46"/>
      <use x="497.167969" xlink:href="#DejaVuSans-45"/>
      <use x="560.351562" xlink:href="#DejaVuSans-76"/>
      <use x="619.53125" xlink:href="#DejaVuSans-61"/>
      <use x="680.810547" xlink:href="#DejaVuSans-6c"/>
      <use x="708.59375" xlink:href="#DejaVuSans-73"/>
      <use x="760.693359" xlink:href="#DejaVuSans-20"/>
      <use x="792.480469" xlink:href="#DejaVuSans-72"/>
      <use x="833.59375" xlink:href="#DejaVuSans-61"/>
      <use x="894.873047" xlink:href="#DejaVuSans-74"/>
      <use x="934.082031" xlink:href="#DejaVuSans-69"/>
      <use x="961.865234" xlink:href="#DejaVuSans-6f"/>
     </g>
    </g>
   </g>
   <g id="matplotlib.axis_2">
    <g id="ytick_1">
     <g id="line2d_7">
      <path clip-path="url(#p1330eac198)" d="M 34.16 288.478431 
L 450.672 288.478431 
" style="fill:none;stroke:#b0b0b0;stroke-linecap:square;stroke-width:0.8;"/>
     </g>
     <g id="line2d_8">
      <defs>
       <path d="M 0 0 
L -3.5 0 
" id="m0d2896f7a2" style="stroke:#000000;stroke-width:0.8;"/>
      </defs>
      <g>
       <use style="stroke:#000000;stroke-width:0.8;" x="34.16" xlink:href="#m0d2896f7a2" y="288.478431"/>
      </g>
     </g>
    </g>
    <g id="ytick_2">
     <g id="line2d_9">
      <path clip-path="url(#p1330eac198)" d="M 34.16 218.439216 
L 450.672 218.439216 
" style="fill:none;stroke:#b0b0b0;stroke-linecap:square;stroke-width:0.8;"/>
     </g>
     <g id="line2d_10">
      <g>
       <use style="stroke:#000000;stroke-width:0.8;" x="34.16" xlink:href="#m0d2896f7a2" y="218.439216"/>
      </g>
     </g>
    </g>
    <g id="ytick_3">
     <g id="line2d_11">
      <path clip-path="url(#p1330eac198)" d="M 34.16 148.4 
L 450.672 148.4 
" style="fill:none;stroke:#b0b0b0;stroke-linecap:square;stroke-width:0.8;"/>
     </g>
     <g id="line2d_12">
      <g>
       <use style="stroke:#000000;stroke-width:0.8;" x="34.16" xlink:href="#m0d2896f7a2" y="148.4"/>
      </g>
     </g>
    </g>
    <g id="ytick_4">
     <g id="line2d_13">
      <path clip-path="url(#p1330eac198)" d="M 34.16 78.360784 
L 450.672 78.360784 
" style="fill:none;stroke:#b0b0b0;stroke-linecap:square;stroke-width:0.8;"/>
     </g>
     <g id="line2d_14">
      <g>
       <use style="stroke:#000000;stroke-width:0.8;" x="34.16" xlink:href="#m0d2896f7a2" y="78.360784"/>
      </g>
     </g>
    </g>
    <g id="ytick_5">
     <g id="line2d_15">
      <path clip-path="url(#p1330eac198)" d="M 34.16 8.321569 
L 450.672 8.321569 
" style="fill:none;stroke:#b0b0b0;stroke-linecap:square;stroke-width:0.8;"/>
     </g>
     <g id="line2d_16">
      <g>
       <use style="stroke:#000000;stroke-width:0.8;" x="34.16" xlink:href="#m0d2896f7a2" y="8.321569"/>
      </g>
     </g>
    </g>
    <g id="text_5">
     <!-- proportion of trials -->
     <defs>
      <path d="M 18.109375 8.203125 
L 18.109375 -20.796875 
L 9.078125 -20.796875 
L 9.078125 54.6875 
L 18.109375 54.6875 
L 18.109375 46.390625 
Q 20.953125 51.265625 25.265625 53.625 
Q 29.59375 56 35.59375 56 
Q 45.5625 56 51.78125 48.09375 
Q 58.015625 40.1875 58.015625 27.296875 
Q 58.015625 14.40625 51.78125 6.484375 
Q 45.5625 -1.421875 35.59375 -1.421875 
Q 29.59375 -1.421875 25.265625 0.953125 
Q 20.953125 3.328125 18.109375 8.203125 
z
M 48.6875 27.296875 
Q 48.6875 37.203125 44.609375 42.84375 
Q 40.53125 48.484375 33.40625 48.484375 
Q 26.265625 48.484375 22.1875 42.84375 
Q 18.109375 37.203125 18.109375 27.296875 
Q 18.109375 17.390625 22.1875 11.75 
Q 26.265625 6.109375 33.40625 6.109375 
Q 40.53125 6.109375 44.609375 11.75 
Q 48.6875 17.390625 48.6875 27.296875 
z
" id="DejaVuSans-70"/>
      <path d="M 54.890625 33.015625 
L 54.890625 0 
L 45.90625 0 
L 45.90625 32.71875 
Q 45.90625 40.484375 42.875 44.328125 
Q 39.84375 48.1875 33.796875 48.1875 
Q 26.515625 48.1875 22.3125 43.546875 
Q 18.109375 38.921875 18.109375 30.90625 
L 18.109375 0 
L 9.078125 0 
L 9.078125 54.6875 
L 18.109375 54.6875 
L 18.109375 46.1875 
Q 21.34375 51.125 25.703125 53.5625 
Q 30.078125 56 35.796875 56 
Q 45.21875 56 50.046875 50.171875 
Q 54.890625 44.34375 54.890625 33.015625 
z
" id="DejaVuSans-6e"/>
     </defs>
     <g transform="translate(19.000625 241.628125)rotate(-90)scale(0.2 -0.2)">
      <use xlink:href="#DejaVuSans-70"/>
      <use x="63.476562" xlink:href="#DejaVuSans-72"/>
      <use x="104.558594" xlink:href="#DejaVuSans-6f"/>
      <use x="165.740234" xlink:href="#DejaVuSans-70"/>
      <use x="229.216797" xlink:href="#DejaVuSans-6f"/>
      <use x="290.398438" xlink:href="#DejaVuSans-72"/>
      <use x="331.511719" xlink:href="#DejaVuSans-74"/>
      <use x="370.720703" xlink:href="#DejaVuSans-69"/>
      <use x="398.503906" xlink:href="#DejaVuSans-6f"/>
      <use x="459.685547" xlink:href="#DejaVuSans-6e"/>
      <use x="523.064453" xlink:href="#DejaVuSans-20"/>
      <use x="554.851562" xlink:href="#DejaVuSans-6f"/>
      <use x="616.033203" xlink:href="#DejaVuSans-66"/>
      <use x="651.238281" xlink:href="#DejaVuSans-20"/>
      <use x="683.025391" xlink:href="#DejaVuSans-74"/>
      <use x="722.234375" xlink:href="#DejaVuSans-72"/>
      <use x="763.347656" xlink:href="#DejaVuSans-69"/>
      <use x="791.130859" xlink:href="#DejaVuSans-61"/>
      <use x="852.410156" xlink:href="#DejaVuSans-6c"/>
      <use x="880.193359" xlink:href="#DejaVuSans-73"/>
     </g>
    </g>
   </g>
   <g id="line2d_17">
    <path clip-path="url(#p1330eac198)" d="M 34.16 270.059814 
L 51.737224 270.059814 
L 51.737224 269.73668 
L 52.632856 269.73668 
L 52.632856 269.413547 
L 54.241858 269.413547 
L 54.241858 269.090413 
L 70.820335 269.090413 
L 70.820335 268.76728 
L 79.812734 268.76728 
L 79.812734 268.444146 
L 81.295034 268.444146 
L 81.295034 268.121012 
L 88.382541 268.121012 
L 88.382541 267.797879 
L 96.222523 267.797879 
L 96.222523 267.474745 
L 111.570092 267.474745 
L 111.570092 267.151611 
L 139.356375 267.151611 
L 139.356375 266.828478 
L 144.620845 266.828478 
L 144.620845 266.505344 
L 146.167628 266.505344 
L 146.167628 266.18221 
L 147.982922 266.18221 
L 147.982922 265.859077 
L 151.690652 265.859077 
L 151.690652 265.21281 
L 157.642902 265.21281 
L 157.642902 264.889676 
L 159.583724 264.889676 
L 159.583724 264.566542 
L 160.479356 264.566542 
L 160.479356 264.243409 
L 162.088358 264.243409 
L 162.088358 263.920275 
L 162.506244 263.920275 
L 162.506244 263.597141 
L 162.995699 263.597141 
L 162.995699 263.274008 
L 164.278636 263.274008 
L 164.278636 262.950874 
L 164.680033 262.950874 
L 164.680033 262.62774 
L 165.575665 262.62774 
L 165.575665 262.304607 
L 166.647214 262.304607 
L 166.647214 261.981473 
L 167.184667 261.981473 
L 167.184667 261.65834 
L 168.260169 261.65834 
L 168.260169 261.335206 
L 169.806952 261.335206 
L 169.806952 261.012072 
L 171.622247 261.012072 
L 171.622247 260.688939 
L 176.132279 260.688939 
L 176.132279 260.042671 
L 178.453266 260.042671 
L 178.453266 259.396404 
L 178.666835 259.396404 
L 178.666835 259.07327 
L 180.995621 259.07327 
L 180.995621 258.427003 
L 183.763144 258.427003 
L 183.763144 258.10387 
L 184.519302 258.10387 
L 184.519302 257.780736 
L 184.961675 257.780736 
L 184.961675 257.457602 
L 186.94787 257.457602 
L 186.94787 256.811335 
L 187.472103 256.811335 
L 187.472103 256.488201 
L 187.659233 256.488201 
L 187.659233 256.165068 
L 187.91796 256.165068 
L 187.91796 255.841934 
L 189.141533 255.841934 
L 189.141533 255.5188 
L 189.893374 255.5188 
L 189.893374 255.195667 
L 190.286539 255.195667 
L 190.286539 254.872533 
L 190.509758 254.872533 
L 190.509758 254.226266 
L 191.879001 254.226266 
L 191.879001 253.903132 
L 192.755542 253.903132 
L 192.755542 253.579999 
L 192.940814 253.579999 
L 192.940814 253.256865 
L 194.237842 253.256865 
L 194.237842 252.933731 
L 194.621655 252.933731 
L 194.621655 251.641197 
L 195.157845 251.641197 
L 195.157845 251.318063 
L 196.229041 251.318063 
L 196.229041 250.99493 
L 196.704628 250.99493 
L 196.704628 250.671796 
L 198.519922 250.671796 
L 198.519922 250.348662 
L 199.484997 250.348662 
L 199.484997 249.702395 
L 201.32535 249.702395 
L 201.32535 249.379261 
L 201.499126 249.379261 
L 201.499126 249.056128 
L 202.241606 249.056128 
L 202.241606 248.732994 
L 204.069022 248.732994 
L 204.069022 248.40986 
L 205.437247 248.40986 
L 205.437247 247.763593 
L 206.763596 247.763593 
L 206.763596 247.44046 
L 207.506077 247.44046 
L 207.506077 247.117326 
L 208.158626 247.117326 
L 208.158626 246.794192 
L 208.310379 246.794192 
L 208.373217 246.147925 
L 208.601 246.147925 
L 208.601 245.824791 
L 209.05286 245.824791 
L 209.05286 245.501658 
L 209.165331 245.501658 
L 209.268849 244.85539 
L 210.125674 244.85539 
L 210.125674 244.532257 
L 210.868154 244.532257 
L 210.877851 243.88599 
L 211.111428 243.88599 
L 211.111428 243.562856 
L 211.694352 243.562856 
L 211.694352 243.239722 
L 213.111032 243.239722 
L 213.111032 242.593455 
L 214.149393 242.593455 
L 214.149393 242.270321 
L 214.520117 242.270321 
L 214.520117 241.947188 
L 214.815636 241.947188 
L 214.815636 241.624054 
L 215.415749 241.624054 
L 215.518325 240.977787 
L 216.580138 240.977787 
L 216.580138 240.654653 
L 216.92818 240.654653 
L 217.024752 239.685252 
L 217.184214 239.685252 
L 217.184214 239.362119 
L 217.877551 239.362119 
L 217.877551 239.038985 
L 218.452387 239.038985 
L 218.505605 238.392718 
L 219.348019 238.392718 
L 219.416592 237.74645 
L 220.215855 237.74645 
L 220.3209 236.77705 
L 220.957022 236.77705 
L 221.000456 236.130782 
L 222.19265 236.130782 
L 222.19265 235.807649 
L 222.758209 235.807649 
L 222.758209 234.515114 
L 223.142022 234.515114 
L 223.142022 234.19198 
L 223.542811 234.19198 
L 223.542811 233.545713 
L 223.739433 233.545713 
L 223.739433 233.22258 
L 223.926623 233.22258 
L 223.926623 231.930045 
L 224.512901 231.930045 
L 224.512901 231.606911 
L 224.688805 231.606911 
L 224.688805 231.283778 
L 225.554727 231.283778 
L 225.648158 230.63751 
L 226.421387 230.63751 
L 226.504099 229.991243 
L 227.163868 229.991243 
L 227.163868 229.66811 
L 227.456328 229.66811 
L 227.456328 229.344976 
L 228.693143 229.344976 
L 228.789966 228.052441 
L 229.191094 228.052441 
L 229.191094 227.729308 
L 229.49506 227.729308 
L 229.532446 227.08304 
L 230.179153 227.08304 
L 230.179153 226.436773 
L 230.737877 226.436773 
L 230.737877 226.11364 
L 230.963754 226.11364 
L 230.963754 225.790506 
L 231.092306 225.790506 
L 231.092306 225.467372 
L 231.600408 225.467372 
L 231.600408 225.144239 
L 231.733448 225.144239 
L 231.733448 224.497971 
L 231.987938 224.497971 
L 231.987938 224.174838 
L 232.51805 224.174838 
L 232.553171 223.52857 
L 233.596941 223.52857 
L 233.603228 222.882303 
L 233.957614 222.882303 
L 233.957614 222.55917 
L 235.056301 222.55917 
L 235.056301 222.236036 
L 235.498675 222.236036 
L 235.504397 221.589769 
L 236.448727 221.589769 
L 236.448727 221.266635 
L 236.616613 221.266635 
L 236.616613 220.943501 
L 237.319691 220.943501 
L 237.319691 220.620368 
L 237.535498 220.620368 
L 237.535498 220.297234 
L 237.685698 220.297234 
L 237.788717 219.327833 
L 237.931026 219.327833 
L 238.009103 218.681566 
L 238.4703 218.681566 
L 238.4703 218.358432 
L 238.985192 218.358432 
L 238.985192 218.035299 
L 240.439205 218.035299 
L 240.439205 217.712165 
L 240.575647 217.712165 
L 240.575647 217.389031 
L 240.80969 217.389031 
L 240.80969 216.742764 
L 241.850441 216.742764 
L 241.850441 216.41963 
L 242.416 216.41963 
L 242.416 214.157695 
L 242.595627 214.157695 
L 242.595627 213.834561 
L 242.799813 213.834561 
L 242.799813 213.511428 
L 242.981559 213.511428 
L 242.981559 212.86516 
L 243.352045 212.86516 
L 243.352045 211.572626 
L 243.477813 211.572626 
L 243.477813 211.249492 
L 243.931049 211.249492 
L 243.931049 210.926359 
L 244.077927 210.926359 
L 244.077927 210.603225 
L 244.219019 210.603225 
L 244.256353 209.956958 
L 245.018534 209.956958 
L 245.052666 208.987557 
L 245.168391 208.987557 
L 245.168391 208.664423 
L 245.359483 208.664423 
L 245.359483 208.018156 
L 246.129018 208.018156 
L 246.144084 207.371889 
L 246.473404 207.371889 
L 246.527897 206.402488 
L 246.662053 206.402488 
L 246.662053 206.079354 
L 246.798707 206.079354 
L 246.798707 205.433087 
L 247.104427 205.433087 
L 247.104427 205.109953 
L 247.404533 205.109953 
L 247.404533 204.78682 
L 247.595021 204.78682 
L 247.595021 203.494285 
L 247.846907 203.494285 
L 247.846907 203.171151 
L 248.010197 203.171151 
L 248.010197 202.848018 
L 248.671373 202.848018 
L 248.671373 202.20175 
L 248.848885 202.20175 
L 248.933809 201.555483 
L 249.119695 201.555483 
L 249.119695 200.909216 
L 249.304294 200.909216 
L 249.304294 200.262949 
L 249.614855 200.262949 
L 249.614855 199.939815 
L 250.089785 199.939815 
L 250.175417 199.293548 
L 250.357335 199.293548 
L 250.402502 198.64728 
L 250.772988 198.64728 
L 250.772988 198.001013 
L 251.165434 198.001013 
L 251.217463 197.354746 
L 251.662049 197.354746 
L 251.662049 196.062211 
L 251.956798 196.062211 
L 251.956798 195.739078 
L 252.327284 195.739078 
L 252.425654 194.446543 
L 252.750957 194.446543 
L 252.858515 193.800276 
L 253.547271 193.800276 
L 253.615405 192.830875 
L 253.894347 192.830875 
L 253.894347 192.507741 
L 254.021752 192.507741 
L 254.021752 192.184608 
L 254.219651 192.184608 
L 254.219651 191.861474 
L 254.623622 191.861474 
L 254.623622 191.53834 
L 254.764232 191.53834 
L 254.764232 191.215207 
L 254.953127 191.215207 
L 255.015964 190.245806 
L 255.083565 190.245806 
L 255.097705 189.599539 
L 255.448643 189.599539 
L 255.448643 189.276405 
L 255.773946 189.276405 
L 255.826045 188.630138 
L 255.983983 188.630138 
L 256.092316 187.660737 
L 256.175075 187.660737 
L 256.175075 187.01447 
L 256.57026 187.01447 
L 256.57026 186.368202 
L 256.857279 186.368202 
L 256.959676 185.721935 
L 257.299653 185.721935 
L 257.299653 185.398801 
L 257.614299 185.398801 
L 257.646612 184.4294 
L 257.909048 184.4294 
L 257.909048 184.106267 
L 258.279534 184.106267 
L 258.363022 183.136866 
L 259.005416 183.136866 
L 259.082993 182.167465 
L 259.167816 182.167465 
L 259.167816 181.844331 
L 259.810081 181.844331 
L 259.810081 181.521198 
L 260.637289 181.521198 
L 260.650116 180.551797 
L 260.905377 180.551797 
L 260.905377 179.90553 
L 261.400893 179.90553 
L 261.400893 179.582396 
L 261.726196 179.582396 
L 261.726196 179.259262 
L 262.091106 179.259262 
L 262.091106 178.936129 
L 262.52251 178.936129 
L 262.53348 177.966728 
L 262.937686 177.966728 
L 263.040478 177.32046 
L 263.482852 177.32046 
L 263.482852 176.997327 
L 263.598862 176.997327 
L 263.598862 176.674193 
L 264.216978 176.674193 
L 264.216978 176.35106 
L 264.467264 176.35106 
L 264.467264 176.027926 
L 264.686392 176.027926 
L 264.686392 175.704792 
L 265.017274 175.704792 
L 265.043908 175.058525 
L 265.278791 175.058525 
L 265.278791 174.735391 
L 265.489402 174.735391 
L 265.582833 174.089124 
L 265.953318 174.089124 
L 265.99328 173.119723 
L 266.589538 173.119723 
L 266.589538 172.473456 
L 266.857626 172.473456 
L 266.857626 172.150322 
L 267.338261 172.150322 
L 267.338261 171.827189 
L 267.737623 171.827189 
L 267.737623 171.504055 
L 268.206085 171.504055 
L 268.206085 171.180921 
L 268.579161 171.180921 
L 268.579161 170.534654 
L 268.794801 170.534654 
L 268.794801 169.888387 
L 269.074677 169.888387 
L 269.08955 169.24212 
L 269.399981 169.24212 
L 269.450805 168.595852 
L 269.531924 168.595852 
L 269.531924 168.272719 
L 269.880616 168.272719 
L 269.880616 167.949585 
L 270.196295 167.949585 
L 270.196295 167.303318 
L 270.352744 167.303318 
L 270.419514 166.333917 
L 270.512619 166.333917 
L 270.585711 165.68765 
L 271.272646 165.68765 
L 271.337156 164.071981 
L 271.46199 164.071981 
L 271.46199 163.748848 
L 272.042352 163.748848 
L 272.042352 163.425714 
L 273.442503 163.425714 
L 273.442503 163.10258 
L 273.85607 163.10258 
L 273.85607 162.779447 
L 274.263323 162.779447 
L 274.352985 161.486912 
L 274.531411 161.486912 
L 274.531411 160.840645 
L 275.449053 160.840645 
L 275.449053 160.517511 
L 275.577605 160.517511 
L 275.577605 160.194378 
L 275.832866 160.194378 
L 275.832866 159.871244 
L 276.292144 159.871244 
L 276.398425 158.901843 
L 276.449249 158.901843 
L 276.449249 158.57871 
L 276.76891 158.57871 
L 276.808872 157.609309 
L 277.034624 157.609309 
L 277.034624 157.286175 
L 277.289405 157.286175 
L 277.289405 156.639908 
L 277.511062 156.639908 
L 277.511062 156.316774 
L 278.285255 156.316774 
L 278.285255 155.99364 
L 278.758099 155.99364 
L 278.758099 155.347373 
L 278.999568 155.347373 
L 278.999568 154.701106 
L 279.394753 154.701106 
L 279.394753 153.731705 
L 279.784169 153.731705 
L 279.890269 153.085438 
L 280.215573 153.085438 
L 280.312395 152.116037 
L 281.011886 152.116037 
L 281.011886 151.46977 
L 281.215769 151.46977 
L 281.215769 151.146636 
L 282.088238 151.146636 
L 282.088238 150.823502 
L 282.277582 150.823502 
L 282.277582 150.500369 
L 283.50665 150.500369 
L 283.50665 149.854101 
L 285.078915 149.854101 
L 285.078915 149.207834 
L 285.347003 149.207834 
L 285.347003 148.8847 
L 286.264645 148.8847 
L 286.264645 148.238433 
L 286.48737 148.238433 
L 286.48737 147.9153 
L 287.068538 147.9153 
L 287.068538 147.592166 
L 288.290486 147.592166 
L 288.369992 145.976498 
L 289.075087 145.976498 
L 289.075087 145.33023 
L 290.925174 145.33023 
L 290.925174 145.007097 
L 291.721198 145.007097 
L 291.721198 144.683963 
L 292.67057 144.683963 
L 292.67057 144.36083 
L 293.020787 144.36083 
L 293.020787 144.037696 
L 293.841607 144.037696 
L 293.938429 143.068295 
L 294.322242 143.068295 
L 294.322242 142.745161 
L 295.96427 142.745161 
L 295.96427 142.098894 
L 296.748872 142.098894 
L 296.748872 141.77576 
L 297.88413 141.77576 
L 297.88413 141.452627 
L 298.719642 141.452627 
L 298.719642 141.129493 
L 299.106077 141.129493 
L 299.106077 140.80636 
L 299.222917 140.80636 
L 299.222917 140.483226 
L 299.593403 140.483226 
L 299.593403 139.836959 
L 300.65286 139.836959 
L 300.65286 139.513825 
L 300.7778 139.513825 
L 300.7778 139.190691 
L 301.996027 139.190691 
L 301.996027 138.867558 
L 302.468155 138.867558 
L 302.468155 138.544424 
L 302.714762 138.544424 
L 302.714762 138.22129 
L 303.040065 138.22129 
L 303.098788 137.575023 
L 303.486162 137.575023 
L 303.486162 137.25189 
L 303.836379 137.25189 
L 303.836379 136.282489 
L 304.754021 136.282489 
L 304.754021 135.636221 
L 304.912731 135.636221 
L 304.912731 135.313088 
L 305.641142 135.313088 
L 305.641142 134.989954 
L 307.903408 134.989954 
L 307.903408 134.343687 
L 308.513835 134.343687 
L 308.513835 133.69742 
L 308.884321 133.69742 
L 308.884321 132.404885 
L 311.593392 132.404885 
L 311.593392 132.081751 
L 312.00568 132.081751 
L 312.00568 131.435484 
L 312.330983 131.435484 
L 312.330983 130.789217 
L 312.811619 130.789217 
L 312.811619 130.466083 
L 313.127297 130.466083 
L 313.127297 129.173549 
L 314.203649 129.173549 
L 314.278895 128.204148 
L 315.155279 128.204148 
L 315.155279 127.881014 
L 316.18762 127.881014 
L 316.18762 127.55788 
L 316.373506 127.55788 
L 316.373506 126.58848 
L 316.558106 126.58848 
L 316.558106 125.942212 
L 317.194326 125.942212 
L 317.194326 124.649678 
L 317.595454 124.649678 
L 317.595454 124.00341 
L 318.380056 124.00341 
L 318.380056 123.680277 
L 318.763868 123.680277 
L 318.763868 123.357143 
L 319.142237 123.357143 
L 319.142237 123.03401 
L 319.267176 123.03401 
L 319.267176 122.387742 
L 319.679465 122.387742 
L 319.679465 122.064609 
L 320.004768 122.064609 
L 320.004768 121.418341 
L 320.425795 121.418341 
L 320.425795 121.095208 
L 320.801082 121.095208 
L 320.801082 120.44894 
L 321.132447 120.44894 
L 321.132447 120.125807 
L 321.877434 120.125807 
L 321.877434 119.802673 
L 322.325756 119.802673 
L 322.325756 118.833272 
L 324.130519 118.833272 
L 324.130519 118.510139 
L 324.358065 118.510139 
L 324.358065 118.187005 
L 324.86811 118.187005 
L 324.86811 117.540738 
L 325.269239 117.540738 
L 325.289138 116.248203 
L 326.05384 116.248203 
L 326.05384 115.92507 
L 326.816022 115.92507 
L 326.816022 115.601936 
L 327.578514 115.601936 
L 327.578514 114.955669 
L 328.631316 114.955669 
L 328.631316 114.632535 
L 329.221408 114.632535 
L 329.221408 114.309401 
L 330.082768 114.309401 
L 330.082768 113.986268 
L 331.300995 113.986268 
L 331.300995 113.016867 
L 331.773123 113.016867 
L 331.773123 112.693733 
L 336.869432 112.693733 
L 336.869432 111.078065 
L 336.997984 111.078065 
L 336.997984 110.754931 
L 337.756553 110.754931 
L 337.818804 110.108664 
L 338.189289 110.108664 
L 338.189289 109.462397 
L 339.004534 109.462397 
L 339.004534 109.139263 
L 339.446908 109.139263 
L 339.446908 108.81613 
L 341.310649 108.81613 
L 341.310649 108.492996 
L 341.635952 108.492996 
L 341.635952 108.169862 
L 341.861326 108.169862 
L 341.957336 107.523595 
L 342.432266 107.523595 
L 342.432266 106.877328 
L 343.508618 106.877328 
L 343.508618 106.554194 
L 344.543217 106.554194 
L 344.543217 105.907927 
L 344.92703 105.907927 
L 344.92703 105.584793 
L 345.492589 105.584793 
L 345.492589 105.26166 
L 345.863074 105.26166 
L 345.863074 104.615392 
L 346.364233 104.615392 
L 346.364233 104.292259 
L 346.499294 104.292259 
L 346.499294 103.645991 
L 347.295608 103.645991 
L 347.295608 103.322858 
L 347.426046 103.322858 
L 347.426046 102.999724 
L 348.572145 102.999724 
L 348.572145 102.67659 
L 348.984433 102.67659 
L 348.984433 102.353457 
L 349.309737 102.353457 
L 349.309737 102.030323 
L 350.10605 102.030323 
L 350.10605 101.384056 
L 351.182402 101.384056 
L 351.182402 101.060922 
L 354.173079 101.060922 
L 354.173079 100.414655 
L 365.167695 100.414655 
L 365.167695 100.091521 
L 365.610069 100.091521 
L 365.610069 99.768388 
L 366.174401 99.768388 
L 366.174401 99.12212 
L 367.061521 99.12212 
L 367.061521 98.15272 
L 368.120497 98.15272 
L 368.120497 97.829586 
L 368.634625 97.829586 
L 368.634625 97.506452 
L 372.527394 97.506452 
L 372.527394 97.183319 
L 373.589207 97.183319 
L 373.589207 96.860185 
L 373.848185 96.860185 
L 373.848185 96.213918 
L 380.562616 96.213918 
L 380.562616 95.890784 
L 386.709517 95.890784 
L 386.709517 95.56765 
L 390.641787 95.56765 
L 390.641787 95.244517 
L 394.797786 95.244517 
L 394.797786 94.921383 
L 403.281706 94.921383 
L 403.281706 94.59825 
L 450.672 94.59825 
L 450.672 94.59825 
" style="fill:none;stroke:#000000;stroke-linecap:square;stroke-width:3;"/>
   </g>
   <g id="line2d_18">
    <path clip-path="url(#p1330eac198)" style="fill:none;stroke:#000000;stroke-linecap:square;stroke-width:3;"/>
   </g>
   <g id="line2d_19">
    <path clip-path="url(#p1330eac198)" d="M 34.16 82.047059 
L 163.353126 82.047059 
L 163.353126 79.589542 
L 186.998133 79.589542 
L 186.998133 77.132026 
L 209.403566 77.132026 
L 209.403566 74.67451 
L 210.290525 74.67451 
L 210.290525 72.216993 
L 216.538131 72.216993 
L 216.538131 69.759477 
L 222.693918 69.759477 
L 222.693918 67.301961 
L 450.672 67.301961 
" style="fill:none;stroke:#00bfbf;stroke-linecap:square;stroke-width:3;"/>
   </g>
   <g id="line2d_20">
    <path clip-path="url(#p1330eac198)" style="fill:none;stroke:#00bfbf;stroke-linecap:square;stroke-width:3;"/>
   </g>
   <g id="line2d_21">
    <path clip-path="url(#p1330eac198)" d="M 34.16 82.047059 
L 206.838794 82.047059 
L 206.838794 77.132026 
L 207.851666 77.132026 
L 207.851666 72.216993 
L 211.696585 72.216993 
L 211.696585 67.301961 
L 450.672 67.301961 
" style="fill:none;stroke:#bf00bf;stroke-linecap:square;stroke-width:3;"/>
   </g>
   <g id="line2d_22">
    <path clip-path="url(#p1330eac198)" style="fill:none;stroke:#bf00bf;stroke-linecap:square;stroke-width:3;"/>
   </g>
   <g id="line2d_23">
    <path clip-path="url(#p1330eac198)" d="M 34.16 106.050707 
L 206.171418 106.050707 
L 206.171418 99.535431 
L 207.445575 99.535431 
L 207.445575 93.020155 
L 450.672 93.020155 
" style="fill:none;stroke:#ff0000;stroke-linecap:square;stroke-width:3;"/>
   </g>
   <g id="line2d_24">
    <path clip-path="url(#p1330eac198)" style="fill:none;stroke:#ff0000;stroke-linecap:square;stroke-width:3;"/>
   </g>
   <g id="line2d_25">
    <path clip-path="url(#p1330eac198)" d="M 242.416 291.28 
L 242.416 5.52 
" style="fill:none;stroke:#000000;stroke-linecap:square;stroke-width:1.5;"/>
   </g>
   <g id="line2d_26">
    <path clip-path="url(#p1330eac198)" d="M 34.16 148.4 
L 450.672 148.4 
" style="fill:none;stroke:#000000;stroke-dasharray:2,3.3;stroke-dashoffset:0;stroke-width:2;"/>
   </g>
   <g id="patch_3">
    <path d="M 34.16 291.28 
L 34.16 5.52 
" style="fill:none;stroke:#000000;stroke-linecap:square;stroke-linejoin:miter;stroke-width:0.8;"/>
   </g>
   <g id="patch_4">
    <path d="M 450.672 291.28 
L 450.672 5.52 
" style="fill:none;stroke:#000000;stroke-linecap:square;stroke-linejoin:miter;stroke-width:0.8;"/>
   </g>
   <g id="patch_5">
    <path d="M 34.16 291.28 
L 450.672 291.28 
" style="fill:none;stroke:#000000;stroke-linecap:square;stroke-linejoin:miter;stroke-width:0.8;"/>
   </g>
   <g id="patch_6">
    <path d="M 34.16 5.52 
L 450.672 5.52 
" style="fill:none;stroke:#000000;stroke-linecap:square;stroke-linejoin:miter;stroke-width:0.8;"/>
   </g>
   <g id="text_6">
    <!-- f20-f24,5-D -->
    <defs>
     <path d="M 37.796875 64.3125 
L 12.890625 25.390625 
L 37.796875 25.390625 
z
M 35.203125 72.90625 
L 47.609375 72.90625 
L 47.609375 25.390625 
L 58.015625 25.390625 
L 58.015625 17.1875 
L 47.609375 17.1875 
L 47.609375 0 
L 37.796875 0 
L 37.796875 17.1875 
L 4.890625 17.1875 
L 4.890625 26.703125 
z
" id="DejaVuSans-34"/>
     <path d="M 11.71875 12.40625 
L 22.015625 12.40625 
L 22.015625 4 
L 14.015625 -11.625 
L 7.71875 -11.625 
L 11.71875 4 
z
" id="DejaVuSans-2c"/>
     <path d="M 10.796875 72.90625 
L 49.515625 72.90625 
L 49.515625 64.59375 
L 19.828125 64.59375 
L 19.828125 46.734375 
Q 21.96875 47.46875 24.109375 47.828125 
Q 26.265625 48.1875 28.421875 48.1875 
Q 40.625 48.1875 47.75 41.5 
Q 54.890625 34.8125 54.890625 23.390625 
Q 54.890625 11.625 47.5625 5.09375 
Q 40.234375 -1.421875 26.90625 -1.421875 
Q 22.3125 -1.421875 17.546875 -0.640625 
Q 12.796875 0.140625 7.71875 1.703125 
L 7.71875 11.625 
Q 12.109375 9.234375 16.796875 8.0625 
Q 21.484375 6.890625 26.703125 6.890625 
Q 35.15625 6.890625 40.078125 11.328125 
Q 45.015625 15.765625 45.015625 23.390625 
Q 45.015625 31 40.078125 35.4375 
Q 35.15625 39.890625 26.703125 39.890625 
Q 22.75 39.890625 18.8125 39.015625 
Q 14.890625 38.140625 10.796875 36.28125 
z
" id="DejaVuSans-35"/>
     <path d="M 19.671875 64.796875 
L 19.671875 8.109375 
L 31.59375 8.109375 
Q 46.6875 8.109375 53.6875 14.9375 
Q 60.6875 21.78125 60.6875 36.53125 
Q 60.6875 51.171875 53.6875 57.984375 
Q 46.6875 64.796875 31.59375 64.796875 
z
M 9.8125 72.90625 
L 30.078125 72.90625 
Q 51.265625 72.90625 61.171875 64.09375 
Q 71.09375 55.28125 71.09375 36.53125 
Q 71.09375 17.671875 61.125 8.828125 
Q 51.171875 0 30.078125 0 
L 9.8125 0 
z
" id="DejaVuSans-44"/>
    </defs>
    <g transform="translate(328.44801 285.5648)scale(0.2 -0.2)">
     <use xlink:href="#DejaVuSans-66"/>
     <use x="35.205078" xlink:href="#DejaVuSans-32"/>
     <use x="98.828125" xlink:href="#DejaVuSans-30"/>
     <use x="162.451172" xlink:href="#DejaVuSans-2d"/>
     <use x="198.535156" xlink:href="#DejaVuSans-66"/>
     <use x="233.740234" xlink:href="#DejaVuSans-32"/>
     <use x="297.363281" xlink:href="#DejaVuSans-34"/>
     <use x="360.986328" xlink:href="#DejaVuSans-2c"/>
     <use x="392.773438" xlink:href="#DejaVuSans-35"/>
     <use x="456.396484" xlink:href="#DejaVuSans-2d"/>
     <use x="492.480469" xlink:href="#DejaVuSans-44"/>
    </g>
   </g>
   <g id="text_7">
    <!-- v0.0.0 -->
    <defs>
     <path d="M 10.6875 12.40625 
L 21 12.40625 
L 21 0 
L 10.6875 0 
z
" id="DejaVuSans-2e"/>
    </defs>
    <g style="fill:#808080;" transform="translate(226.73475 286.342713)scale(0.1 -0.1)">
     <use xlink:href="#DejaVuSans-76"/>
     <use x="59.179688" xlink:href="#DejaVuSans-30"/>
     <use x="122.802734" xlink:href="#DejaVuSans-2e"/>
     <use x="154.589844" xlink:href="#DejaVuSans-30"/>
     <use x="218.212891" xlink:href="#DejaVuSans-2e"/>
     <use x="250" xlink:href="#DejaVuSans-30"/>
    </g>
   </g>
   <g id="legend_1">
    <g id="patch_7">
     <path d="M 307.450125 281.28 
L 436.672 281.28 
Q 440.672 281.28 440.672 277.28 
L 440.672 161.855 
Q 440.672 157.855 436.672 157.855 
L 307.450125 157.855 
Q 303.450125 157.855 303.450125 161.855 
L 303.450125 277.28 
Q 303.450125 281.28 307.450125 281.28 
z
" style="fill:#ffffff;opacity:0.2;stroke:#cccccc;stroke-linejoin:miter;"/>
    </g>
    <g id="line2d_27">
     <path d="M 311.450125 174.051875 
L 351.450125 174.051875 
" style="fill:none;stroke:#000000;stroke-linecap:square;stroke-width:3;"/>
    </g>
    <g id="line2d_28"/>
    <g id="text_8">
     <!-- 1: 4/4 -->
     <defs>
      <path d="M 11.71875 12.40625 
L 22.015625 12.40625 
L 22.015625 0 
L 11.71875 0 
z
M 11.71875 51.703125 
L 22.015625 51.703125 
L 22.015625 39.3125 
L 11.71875 39.3125 
z
" id="DejaVuSans-3a"/>
      <path d="M 25.390625 72.90625 
L 33.6875 72.90625 
L 8.296875 -9.28125 
L 0 -9.28125 
z
" id="DejaVuSans-2f"/>
     </defs>
     <g transform="translate(367.450125 181.051875)scale(0.2 -0.2)">
      <use xlink:href="#DejaVuSans-31"/>
      <use x="63.623047" xlink:href="#DejaVuSans-3a"/>
      <use x="97.314453" xlink:href="#DejaVuSans-20"/>
      <use x="129.101562" xlink:href="#DejaVuSans-34"/>
      <use x="192.724609" xlink:href="#DejaVuSans-2f"/>
      <use x="226.416016" xlink:href="#DejaVuSans-34"/>
     </g>
    </g>
    <g id="line2d_29">
     <path d="M 311.450125 203.408125 
L 351.450125 203.408125 
" style="fill:none;stroke:#00bfbf;stroke-linecap:square;stroke-width:3;"/>
    </g>
    <g id="line2d_30"/>
    <g id="text_9">
     <!-- -1: 2/2 -->
     <g transform="translate(367.450125 210.408125)scale(0.2 -0.2)">
      <use xlink:href="#DejaVuSans-2d"/>
      <use x="36.083984" xlink:href="#DejaVuSans-31"/>
      <use x="99.707031" xlink:href="#DejaVuSans-3a"/>
      <use x="133.398438" xlink:href="#DejaVuSans-20"/>
      <use x="165.185547" xlink:href="#DejaVuSans-32"/>
      <use x="228.808594" xlink:href="#DejaVuSans-2f"/>
      <use x="262.5" xlink:href="#DejaVuSans-32"/>
     </g>
    </g>
    <g id="line2d_31">
     <path d="M 311.450125 232.764375 
L 351.450125 232.764375 
" style="fill:none;stroke:#bf00bf;stroke-linecap:square;stroke-width:3;"/>
    </g>
    <g id="line2d_32"/>
    <g id="text_10">
     <!-- -4: 1/1 -->
     <g transform="translate(367.450125 239.764375)scale(0.2 -0.2)">
      <use xlink:href="#DejaVuSans-2d"/>
      <use x="36.083984" xlink:href="#DejaVuSans-34"/>
      <use x="99.707031" xlink:href="#DejaVuSans-3a"/>
      <use x="133.398438" xlink:href="#DejaVuSans-20"/>
      <use x="165.185547" xlink:href="#DejaVuSans-31"/>
      <use x="228.808594" xlink:href="#DejaVuSans-2f"/>
      <use x="262.5" xlink:href="#DejaVuSans-31"/>
     </g>
    </g>
    <g id="line2d_33">
     <path d="M 311.450125 262.120625 
L 351.450125 262.120625 
" style="fill:none;stroke:#ff0000;stroke-linecap:square;stroke-width:3;"/>
    </g>
    <g id="line2d_34"/>
    <g id="text_11">
     <!-- -8: 1/1 -->
     <defs>
      <path d="M 31.78125 34.625 
Q 24.75 34.625 20.71875 30.859375 
Q 16.703125 27.09375 16.703125 20.515625 
Q 16.703125 13.921875 20.71875 10.15625 
Q 24.75 6.390625 31.78125 6.390625 
Q 38.8125 6.390625 42.859375 10.171875 
Q 46.921875 13.96875 46.921875 20.515625 
Q 46.921875 27.09375 42.890625 30.859375 
Q 38.875 34.625 31.78125 34.625 
z
M 21.921875 38.8125 
Q 15.578125 40.375 12.03125 44.71875 
Q 8.5 49.078125 8.5 55.328125 
Q 8.5 64.0625 14.71875 69.140625 
Q 20.953125 74.21875 31.78125 74.21875 
Q 42.671875 74.21875 48.875 69.140625 
Q 55.078125 64.0625 55.078125 55.328125 
Q 55.078125 49.078125 51.53125 44.71875 
Q 48 40.375 41.703125 38.8125 
Q 48.828125 37.15625 52.796875 32.3125 
Q 56.78125 27.484375 56.78125 20.515625 
Q 56.78125 9.90625 50.3125 4.234375 
Q 43.84375 -1.421875 31.78125 -1.421875 
Q 19.734375 -1.421875 13.25 4.234375 
Q 6.78125 9.90625 6.78125 20.515625 
Q 6.78125 27.484375 10.78125 32.3125 
Q 14.796875 37.15625 21.921875 38.8125 
z
M 18.3125 54.390625 
Q 18.3125 48.734375 21.84375 45.5625 
Q 25.390625 42.390625 31.78125 42.390625 
Q 38.140625 42.390625 41.71875 45.5625 
Q 45.3125 48.734375 45.3125 54.390625 
Q 45.3125 60.0625 41.71875 63.234375 
Q 38.140625 66.40625 31.78125 66.40625 
Q 25.390625 66.40625 21.84375 63.234375 
Q 18.3125 60.0625 18.3125 54.390625 
z
" id="DejaVuSans-38"/>
     </defs>
     <g transform="translate(367.450125 269.120625)scale(0.2 -0.2)">
      <use xlink:href="#DejaVuSans-2d"/>
      <use x="36.083984" xlink:href="#DejaVuSans-38"/>
      <use x="99.707031" xlink:href="#DejaVuSans-3a"/>
      <use x="133.398438" xlink:href="#DejaVuSans-20"/>
      <use x="165.185547" xlink:href="#DejaVuSans-31"/>
      <use x="228.808594" xlink:href="#DejaVuSans-2f"/>
      <use x="262.5" xlink:href="#DejaVuSans-31"/>
     </g>
    </g>
   </g>
  </g>
 </g>
 <defs>
  <clipPath id="p1330eac198">
   <rect height="285.76" width="416.512" x="34.16" y="5.52"/>
  </clipPath>
 </defs>
</svg>
