<?xml version="1.0" encoding="utf-8" standalone="no"?>
<!DOCTYPE svg PUBLIC "-//W3C//DTD SVG 1.1//EN"
  "http://www.w3.org/Graphics/SVG/1.1/DTD/svg11.dtd">
<!-- Created with matplotlib (http://matplotlib.org/) -->
<svg height="345pt" version="1.1" viewBox="0 0 460 345" width="460pt" xmlns="http://www.w3.org/2000/svg" xmlns:xlink="http://www.w3.org/1999/xlink">
 <defs>
  <style type="text/css">
*{stroke-linecap:butt;stroke-linejoin:round;}
  </style>
 </defs>
 <g id="figure_1">
  <g id="patch_1">
   <path d="M 0 345.6 
L 460.8 345.6 
L 460.8 0 
L 0 0 
z
" style="fill:#ffffff;"/>
  </g>
  <g id="axes_1">
   <g id="patch_2">
    <path d="M 56.12 294.88 
L 333.168 294.88 
L 333.168 6.845228 
L 56.12 6.845228 
z
" style="fill:#ffffff;"/>
   </g>
   <g id="line2d_1">
    <path d="M 4.627463 294.88 
L 4.627463 287.051449 
L 23.511104 287.051449 
L 23.511104 285.933084 
L 62.506669 285.933084 
L 62.506669 284.81472 
L 66.223248 284.81472 
L 66.223248 283.696355 
L 70.05878 283.696355 
L 70.05878 282.577991 
L 77.155024 282.577991 
L 77.155024 281.459626 
L 77.897095 281.459626 
L 77.897095 280.341262 
L 78.60845 280.341262 
L 78.60845 279.222897 
L 78.839174 279.222897 
L 78.839174 278.104533 
L 79.291532 278.104533 
L 79.291532 276.986168 
L 79.513324 276.986168 
L 79.513324 275.867804 
L 79.948502 275.867804 
L 79.948502 274.749439 
L 80.372935 274.749439 
L 80.372935 273.631075 
L 81.191596 273.631075 
L 81.191596 272.51271 
L 82.536644 272.51271 
L 82.536644 271.394346 
L 83.955067 271.394346 
L 83.955067 270.275981 
L 86.629001 270.275981 
L 86.629001 269.157617 
L 91.317037 269.157617 
L 91.317037 268.039252 
L 98.175173 268.039252 
L 98.175173 266.920888 
L 99.533818 266.920888 
L 99.533818 265.802523 
L 103.008056 265.802523 
L 103.008056 264.684159 
L 109.864733 264.684159 
L 109.864733 263.565795 
L 110.274449 263.565795 
L 110.274449 262.44743 
L 112.57887 262.44743 
L 112.57887 261.329066 
L 113.426701 261.329066 
L 113.426701 260.210701 
L 121.891697 260.210701 
L 121.891697 259.092337 
L 124.906559 259.092337 
L 124.906559 257.973972 
L 126.766199 257.973972 
L 126.766199 256.855608 
L 131.590786 256.855608 
L 131.590786 255.737243 
L 135.473113 255.737243 
L 135.473113 254.618879 
L 139.357855 254.618879 
L 139.357855 253.500514 
L 140.97391 253.500514 
L 141.053929 251.263785 
L 147.319256 251.263785 
L 147.319256 250.145421 
L 152.789162 250.145421 
L 152.789162 249.027056 
L 152.912822 249.027056 
L 152.912822 247.908692 
L 155.129314 247.908692 
L 155.129314 246.790327 
L 155.644117 246.790327 
L 155.644117 245.671963 
L 155.871232 245.671963 
L 155.871232 244.553598 
L 162.741791 244.553598 
L 162.741791 243.435234 
L 168.61819 243.435234 
L 168.714278 241.198505 
L 168.744962 241.198505 
L 168.850099 237.843411 
L 168.884192 237.843411 
L 168.958231 234.488318 
L 169.002985 234.488318 
L 169.110162 232.251589 
L 169.147337 232.251589 
L 169.188018 230.01486 
L 169.354518 230.01486 
L 169.424206 227.778131 
L 169.49596 227.778131 
L 169.49596 226.659767 
L 169.656029 226.659767 
L 169.760379 223.304673 
L 169.879029 223.304673 
L 169.879029 222.186309 
L 170.008263 222.186309 
L 170.118429 219.94958 
L 170.168169 219.94958 
L 170.168169 218.831215 
L 170.377974 218.831215 
L 170.377974 217.712851 
L 170.513484 217.712851 
L 170.547747 215.476122 
L 170.989219 215.476122 
L 170.989219 214.357757 
L 171.169071 214.357757 
L 171.169071 213.239393 
L 171.287936 213.239393 
L 171.287936 212.121028 
L 171.543038 212.121028 
L 171.543038 211.002664 
L 171.724437 211.002664 
L 171.724437 209.884299 
L 172.541946 209.884299 
L 172.64683 204.292477 
L 172.663435 204.292477 
L 172.744277 198.700655 
L 172.785041 198.700655 
L 172.785041 197.58229 
L 177.190532 197.58229 
L 177.190532 196.463926 
L 177.375591 196.463926 
L 177.468854 193.108832 
L 177.620252 193.108832 
L 177.684522 190.872103 
L 177.779029 190.872103 
L 177.83982 188.635374 
L 177.939945 188.635374 
L 177.939945 187.51701 
L 178.10506 187.51701 
L 178.182424 184.161916 
L 178.556485 184.161916 
L 178.6546 180.806823 
L 178.944949 180.806823 
L 179.007161 178.570094 
L 179.080578 178.570094 
L 179.080578 177.451729 
L 179.241133 177.451729 
L 179.241133 176.333365 
L 179.457503 176.333365 
L 179.49363 174.096636 
L 179.576107 174.096636 
L 179.641935 171.859907 
L 179.753462 171.859907 
L 179.753462 170.741543 
L 179.915565 170.741543 
L 179.915565 169.623178 
L 182.733131 169.623178 
L 182.733131 168.504814 
L 185.486565 168.504814 
L 185.573851 165.14972 
L 185.725657 165.14972 
L 185.725657 164.031356 
L 189.227383 164.031356 
L 189.227383 162.912991 
L 189.410028 162.912991 
L 189.410028 161.794627 
L 192.83179 161.794627 
L 192.83179 160.676262 
L 195.752074 160.676262 
L 195.752074 159.557898 
L 198.544864 159.557898 
L 198.544864 158.439533 
L 199.786577 158.439533 
L 199.818184 156.202804 
L 201.828315 156.202804 
L 201.828315 155.08444 
L 207.625125 155.08444 
L 207.694586 145.019159 
L 211.243641 145.019159 
L 211.243641 143.900795 
L 211.618014 143.900795 
L 211.618014 142.78243 
L 218.370679 142.78243 
L 218.370679 141.664066 
L 220.576268 141.664066 
L 220.576268 140.545702 
L 224.797809 140.545702 
L 224.797809 139.427337 
L 227.91942 139.427337 
L 227.91942 138.308973 
L 228.730157 138.308973 
L 228.730157 137.190608 
L 228.845475 137.190608 
L 228.845475 136.072244 
L 229.667417 136.072244 
L 229.667417 134.953879 
L 229.795 134.953879 
L 229.795 133.835515 
L 229.954107 133.835515 
L 229.954107 132.71715 
L 230.113516 132.71715 
L 230.113516 131.598786 
L 230.244763 131.598786 
L 230.244763 130.480421 
L 230.423797 130.480421 
L 230.523744 128.243692 
L 230.644847 128.243692 
L 230.644847 127.125328 
L 230.761015 127.125328 
L 230.761015 126.006963 
L 232.802031 126.006963 
L 232.802031 124.888599 
L 238.369081 124.888599 
L 238.442567 122.65187 
L 238.496718 122.65187 
L 238.554015 120.415141 
L 238.608133 120.415141 
L 238.664347 118.178412 
L 238.722136 118.178412 
L 238.783774 115.941683 
L 238.839107 115.941683 
L 238.946453 112.586589 
L 239.003652 112.586589 
L 239.108158 109.231496 
L 239.158664 109.231496 
L 239.252725 105.876403 
L 239.317748 105.876403 
L 239.317748 104.758038 
L 243.526589 104.758038 
L 243.526589 103.639674 
L 247.091646 103.639674 
L 247.091646 102.521309 
L 247.425916 102.521309 
L 247.425916 101.402945 
L 255.070121 101.402945 
L 255.070121 100.28458 
L 258.326376 100.28458 
L 258.326376 99.166216 
L 261.538286 99.166216 
L 261.642955 96.929487 
L 263.435632 96.929487 
L 263.496989 94.692758 
L 271.361776 94.692758 
L 271.457485 89.100935 
L 271.474031 89.100935 
L 271.577976 80.15402 
L 271.596345 80.15402 
L 271.694133 71.207104 
L 271.708784 71.207104 
L 271.818858 61.141823 
L 271.833994 61.141823 
L 271.890506 55.550001 
L 276.684822 55.550001 
L 276.684822 54.431636 
L 283.265502 54.431636 
L 283.265502 53.313272 
L 291.117921 53.313272 
L 291.117921 52.194907 
L 300.993062 52.194907 
L 300.993062 51.076543 
L 309.991797 51.076543 
L 310.033209 9.697057 
L 333.168 9.697057 
L 333.168 9.697057 
" style="fill:none;stroke:#f5deb3;stroke-linecap:square;stroke-width:4;"/>
   </g>
   <g id="line2d_2">
    <defs>
     <path d="M -0 7.778175 
L 7.778175 0 
L 0 -7.778175 
L -7.778175 -0 
z
" id="md356596f3f" style="stroke:#f5deb3;stroke-linejoin:miter;stroke-width:1.5;"/>
    </defs>
    <g>
     <use style="fill:#f5deb3;stroke:#f5deb3;stroke-linejoin:miter;stroke-width:1.5;" x="113.426701" xlink:href="#md356596f3f" y="261.329066"/>
     <use style="fill:#f5deb3;stroke:#f5deb3;stroke-linejoin:miter;stroke-width:1.5;" x="185.486565" xlink:href="#md356596f3f" y="168.504814"/>
     <use style="fill:#f5deb3;stroke:#f5deb3;stroke-linejoin:miter;stroke-width:1.5;" x="258.326376" xlink:href="#md356596f3f" y="99.166216"/>
     <use style="fill:#f5deb3;stroke:#f5deb3;stroke-linejoin:miter;stroke-width:1.5;" x="310.033209" xlink:href="#md356596f3f" y="9.697057"/>
     <use style="fill:#f5deb3;stroke:#f5deb3;stroke-linejoin:miter;stroke-width:1.5;" x="310.033209" xlink:href="#md356596f3f" y="9.697057"/>
     <use style="fill:#f5deb3;stroke:#f5deb3;stroke-linejoin:miter;stroke-width:1.5;" x="333.168" xlink:href="#md356596f3f" y="9.697057"/>
    </g>
   </g>
   <g id="line2d_3">
    <path style="fill:none;stroke:#f5deb3;stroke-linecap:square;stroke-width:4;"/>
    <g/>
   </g>
   <g id="line2d_4">
    <path d="M 333.168 9.697057 
L 363.64328 15.400716 
" style="fill:none;stroke:#f5deb3;stroke-linecap:square;stroke-width:4;"/>
    <g>
     <use style="fill:#f5deb3;stroke:#f5deb3;stroke-linejoin:miter;stroke-width:1.5;" x="333.168" xlink:href="#md356596f3f" y="9.697057"/>
     <use style="fill:#f5deb3;stroke:#f5deb3;stroke-linejoin:miter;stroke-width:1.5;" x="363.64328" xlink:href="#md356596f3f" y="15.400716"/>
    </g>
   </g>
   <g id="matplotlib.axis_1">
    <g id="xtick_1">
     <g id="line2d_5">
      <path clip-path="url(#p2efa8c38f1)" d="M 56.12 294.88 
L 56.12 6.845228 
" style="fill:none;stroke:#b0b0b0;stroke-linecap:square;stroke-width:0.8;"/>
     </g>
     <g id="line2d_6">
      <defs>
       <path d="M 0 0 
L 0 3.5 
" id="m7af378a85e" style="stroke:#000000;stroke-width:0.8;"/>
      </defs>
      <g>
       <use style="stroke:#000000;stroke-width:0.8;" x="56.12" xlink:href="#m7af378a85e" y="294.88"/>
      </g>
     </g>
     <g id="text_1">
      <!-- 0 -->
      <defs>
       <path d="M 31.78125 66.40625 
Q 24.171875 66.40625 20.328125 58.90625 
Q 16.5 51.421875 16.5 36.375 
Q 16.5 21.390625 20.328125 13.890625 
Q 24.171875 6.390625 31.78125 6.390625 
Q 39.453125 6.390625 43.28125 13.890625 
Q 47.125 21.390625 47.125 36.375 
Q 47.125 51.421875 43.28125 58.90625 
Q 39.453125 66.40625 31.78125 66.40625 
z
M 31.78125 74.21875 
Q 44.046875 74.21875 50.515625 64.515625 
Q 56.984375 54.828125 56.984375 36.375 
Q 56.984375 17.96875 50.515625 8.265625 
Q 44.046875 -1.421875 31.78125 -1.421875 
Q 19.53125 -1.421875 13.0625 8.265625 
Q 6.59375 17.96875 6.59375 36.375 
Q 6.59375 54.828125 13.0625 64.515625 
Q 19.53125 74.21875 31.78125 74.21875 
z
" id="DejaVuSans-30"/>
      </defs>
      <g transform="translate(49.7575 317.076875)scale(0.2 -0.2)">
       <use xlink:href="#DejaVuSans-30"/>
      </g>
     </g>
    </g>
    <g id="xtick_2">
     <g id="line2d_7">
      <path clip-path="url(#p2efa8c38f1)" d="M 135.276571 294.88 
L 135.276571 6.845228 
" style="fill:none;stroke:#b0b0b0;stroke-linecap:square;stroke-width:0.8;"/>
     </g>
     <g id="line2d_8">
      <g>
       <use style="stroke:#000000;stroke-width:0.8;" x="135.276571" xlink:href="#m7af378a85e" y="294.88"/>
      </g>
     </g>
     <g id="text_2">
      <!-- 2 -->
      <defs>
       <path d="M 19.1875 8.296875 
L 53.609375 8.296875 
L 53.609375 0 
L 7.328125 0 
L 7.328125 8.296875 
Q 12.9375 14.109375 22.625 23.890625 
Q 32.328125 33.6875 34.8125 36.53125 
Q 39.546875 41.84375 41.421875 45.53125 
Q 43.3125 49.21875 43.3125 52.78125 
Q 43.3125 58.59375 39.234375 62.25 
Q 35.15625 65.921875 28.609375 65.921875 
Q 23.96875 65.921875 18.8125 64.3125 
Q 13.671875 62.703125 7.8125 59.421875 
L 7.8125 69.390625 
Q 13.765625 71.78125 18.9375 73 
Q 24.125 74.21875 28.421875 74.21875 
Q 39.75 74.21875 46.484375 68.546875 
Q 53.21875 62.890625 53.21875 53.421875 
Q 53.21875 48.921875 51.53125 44.890625 
Q 49.859375 40.875 45.40625 35.40625 
Q 44.1875 33.984375 37.640625 27.21875 
Q 31.109375 20.453125 19.1875 8.296875 
z
" id="DejaVuSans-32"/>
      </defs>
      <g transform="translate(128.914071 317.076875)scale(0.2 -0.2)">
       <use xlink:href="#DejaVuSans-32"/>
      </g>
     </g>
    </g>
    <g id="xtick_3">
     <g id="line2d_9">
      <path clip-path="url(#p2efa8c38f1)" d="M 214.433143 294.88 
L 214.433143 6.845228 
" style="fill:none;stroke:#b0b0b0;stroke-linecap:square;stroke-width:0.8;"/>
     </g>
     <g id="line2d_10">
      <g>
       <use style="stroke:#000000;stroke-width:0.8;" x="214.433143" xlink:href="#m7af378a85e" y="294.88"/>
      </g>
     </g>
     <g id="text_3">
      <!-- 4 -->
      <defs>
       <path d="M 37.796875 64.3125 
L 12.890625 25.390625 
L 37.796875 25.390625 
z
M 35.203125 72.90625 
L 47.609375 72.90625 
L 47.609375 25.390625 
L 58.015625 25.390625 
L 58.015625 17.1875 
L 47.609375 17.1875 
L 47.609375 0 
L 37.796875 0 
L 37.796875 17.1875 
L 4.890625 17.1875 
L 4.890625 26.703125 
z
" id="DejaVuSans-34"/>
      </defs>
      <g transform="translate(208.070643 317.076875)scale(0.2 -0.2)">
       <use xlink:href="#DejaVuSans-34"/>
      </g>
     </g>
    </g>
    <g id="xtick_4">
     <g id="line2d_11">
      <path clip-path="url(#p2efa8c38f1)" d="M 293.589714 294.88 
L 293.589714 6.845228 
" style="fill:none;stroke:#b0b0b0;stroke-linecap:square;stroke-width:0.8;"/>
     </g>
     <g id="line2d_12">
      <g>
       <use style="stroke:#000000;stroke-width:0.8;" x="293.589714" xlink:href="#m7af378a85e" y="294.88"/>
      </g>
     </g>
     <g id="text_4">
      <!-- 6 -->
      <defs>
       <path d="M 33.015625 40.375 
Q 26.375 40.375 22.484375 35.828125 
Q 18.609375 31.296875 18.609375 23.390625 
Q 18.609375 15.53125 22.484375 10.953125 
Q 26.375 6.390625 33.015625 6.390625 
Q 39.65625 6.390625 43.53125 10.953125 
Q 47.40625 15.53125 47.40625 23.390625 
Q 47.40625 31.296875 43.53125 35.828125 
Q 39.65625 40.375 33.015625 40.375 
z
M 52.59375 71.296875 
L 52.59375 62.3125 
Q 48.875 64.0625 45.09375 64.984375 
Q 41.3125 65.921875 37.59375 65.921875 
Q 27.828125 65.921875 22.671875 59.328125 
Q 17.53125 52.734375 16.796875 39.40625 
Q 19.671875 43.65625 24.015625 45.921875 
Q 28.375 48.1875 33.59375 48.1875 
Q 44.578125 48.1875 50.953125 41.515625 
Q 57.328125 34.859375 57.328125 23.390625 
Q 57.328125 12.15625 50.6875 5.359375 
Q 44.046875 -1.421875 33.015625 -1.421875 
Q 20.359375 -1.421875 13.671875 8.265625 
Q 6.984375 17.96875 6.984375 36.375 
Q 6.984375 53.65625 15.1875 63.9375 
Q 23.390625 74.21875 37.203125 74.21875 
Q 40.921875 74.21875 44.703125 73.484375 
Q 48.484375 72.75 52.59375 71.296875 
z
" id="DejaVuSans-36"/>
      </defs>
      <g transform="translate(287.227214 317.076875)scale(0.2 -0.2)">
       <use xlink:href="#DejaVuSans-36"/>
      </g>
     </g>
    </g>
    <g id="xtick_5">
     <g id="line2d_13">
      <path clip-path="url(#p2efa8c38f1)" d="M 56.12 294.88 
L 56.12 6.845228 
" style="fill:none;stroke:#b0b0b0;stroke-linecap:square;stroke-width:0.8;"/>
     </g>
     <g id="line2d_14">
      <defs>
       <path d="M 0 0 
L 0 2 
" id="m5ffb00d20f" style="stroke:#000000;stroke-width:0.6;"/>
      </defs>
      <g>
       <use style="stroke:#000000;stroke-width:0.6;" x="56.12" xlink:href="#m5ffb00d20f" y="294.88"/>
      </g>
     </g>
    </g>
    <g id="xtick_6">
     <g id="line2d_15">
      <path clip-path="url(#p2efa8c38f1)" d="M 95.698286 294.88 
L 95.698286 6.845228 
" style="fill:none;stroke:#b0b0b0;stroke-linecap:square;stroke-width:0.8;"/>
     </g>
     <g id="line2d_16">
      <g>
       <use style="stroke:#000000;stroke-width:0.6;" x="95.698286" xlink:href="#m5ffb00d20f" y="294.88"/>
      </g>
     </g>
    </g>
    <g id="xtick_7">
     <g id="line2d_17">
      <path clip-path="url(#p2efa8c38f1)" d="M 135.276571 294.88 
L 135.276571 6.845228 
" style="fill:none;stroke:#b0b0b0;stroke-linecap:square;stroke-width:0.8;"/>
     </g>
     <g id="line2d_18">
      <g>
       <use style="stroke:#000000;stroke-width:0.6;" x="135.276571" xlink:href="#m5ffb00d20f" y="294.88"/>
      </g>
     </g>
    </g>
    <g id="xtick_8">
     <g id="line2d_19">
      <path clip-path="url(#p2efa8c38f1)" d="M 174.854857 294.88 
L 174.854857 6.845228 
" style="fill:none;stroke:#b0b0b0;stroke-linecap:square;stroke-width:0.8;"/>
     </g>
     <g id="line2d_20">
      <g>
       <use style="stroke:#000000;stroke-width:0.6;" x="174.854857" xlink:href="#m5ffb00d20f" y="294.88"/>
      </g>
     </g>
    </g>
    <g id="xtick_9">
     <g id="line2d_21">
      <path clip-path="url(#p2efa8c38f1)" d="M 214.433143 294.88 
L 214.433143 6.845228 
" style="fill:none;stroke:#b0b0b0;stroke-linecap:square;stroke-width:0.8;"/>
     </g>
     <g id="line2d_22">
      <g>
       <use style="stroke:#000000;stroke-width:0.6;" x="214.433143" xlink:href="#m5ffb00d20f" y="294.88"/>
      </g>
     </g>
    </g>
    <g id="xtick_10">
     <g id="line2d_23">
      <path clip-path="url(#p2efa8c38f1)" d="M 254.011429 294.88 
L 254.011429 6.845228 
" style="fill:none;stroke:#b0b0b0;stroke-linecap:square;stroke-width:0.8;"/>
     </g>
     <g id="line2d_24">
      <g>
       <use style="stroke:#000000;stroke-width:0.6;" x="254.011429" xlink:href="#m5ffb00d20f" y="294.88"/>
      </g>
     </g>
    </g>
    <g id="xtick_11">
     <g id="line2d_25">
      <path clip-path="url(#p2efa8c38f1)" d="M 293.589714 294.88 
L 293.589714 6.845228 
" style="fill:none;stroke:#b0b0b0;stroke-linecap:square;stroke-width:0.8;"/>
     </g>
     <g id="line2d_26">
      <g>
       <use style="stroke:#000000;stroke-width:0.6;" x="293.589714" xlink:href="#m5ffb00d20f" y="294.88"/>
      </g>
     </g>
    </g>
    <g id="xtick_12">
     <g id="line2d_27">
      <path clip-path="url(#p2efa8c38f1)" d="M 333.168 294.88 
L 333.168 6.845228 
" style="fill:none;stroke:#b0b0b0;stroke-linecap:square;stroke-width:0.8;"/>
     </g>
     <g id="line2d_28">
      <g>
       <use style="stroke:#000000;stroke-width:0.6;" x="333.168" xlink:href="#m5ffb00d20f" y="294.88"/>
      </g>
     </g>
    </g>
    <g id="text_5">
     <!-- log10(# f-evals / dimension) -->
     <defs>
      <path d="M 9.421875 75.984375 
L 18.40625 75.984375 
L 18.40625 0 
L 9.421875 0 
z
" id="DejaVuSans-6c"/>
      <path d="M 30.609375 48.390625 
Q 23.390625 48.390625 19.1875 42.75 
Q 14.984375 37.109375 14.984375 27.296875 
Q 14.984375 17.484375 19.15625 11.84375 
Q 23.34375 6.203125 30.609375 6.203125 
Q 37.796875 6.203125 41.984375 11.859375 
Q 46.1875 17.53125 46.1875 27.296875 
Q 46.1875 37.015625 41.984375 42.703125 
Q 37.796875 48.390625 30.609375 48.390625 
z
M 30.609375 56 
Q 42.328125 56 49.015625 48.375 
Q 55.71875 40.765625 55.71875 27.296875 
Q 55.71875 13.875 49.015625 6.21875 
Q 42.328125 -1.421875 30.609375 -1.421875 
Q 18.84375 -1.421875 12.171875 6.21875 
Q 5.515625 13.875 5.515625 27.296875 
Q 5.515625 40.765625 12.171875 48.375 
Q 18.84375 56 30.609375 56 
z
" id="DejaVuSans-6f"/>
      <path d="M 45.40625 27.984375 
Q 45.40625 37.75 41.375 43.109375 
Q 37.359375 48.484375 30.078125 48.484375 
Q 22.859375 48.484375 18.828125 43.109375 
Q 14.796875 37.75 14.796875 27.984375 
Q 14.796875 18.265625 18.828125 12.890625 
Q 22.859375 7.515625 30.078125 7.515625 
Q 37.359375 7.515625 41.375 12.890625 
Q 45.40625 18.265625 45.40625 27.984375 
z
M 54.390625 6.78125 
Q 54.390625 -7.171875 48.1875 -13.984375 
Q 42 -20.796875 29.203125 -20.796875 
Q 24.46875 -20.796875 20.265625 -20.09375 
Q 16.0625 -19.390625 12.109375 -17.921875 
L 12.109375 -9.1875 
Q 16.0625 -11.328125 19.921875 -12.34375 
Q 23.78125 -13.375 27.78125 -13.375 
Q 36.625 -13.375 41.015625 -8.765625 
Q 45.40625 -4.15625 45.40625 5.171875 
L 45.40625 9.625 
Q 42.625 4.78125 38.28125 2.390625 
Q 33.9375 0 27.875 0 
Q 17.828125 0 11.671875 7.65625 
Q 5.515625 15.328125 5.515625 27.984375 
Q 5.515625 40.671875 11.671875 48.328125 
Q 17.828125 56 27.875 56 
Q 33.9375 56 38.28125 53.609375 
Q 42.625 51.21875 45.40625 46.390625 
L 45.40625 54.6875 
L 54.390625 54.6875 
z
" id="DejaVuSans-67"/>
      <path d="M 12.40625 8.296875 
L 28.515625 8.296875 
L 28.515625 63.921875 
L 10.984375 60.40625 
L 10.984375 69.390625 
L 28.421875 72.90625 
L 38.28125 72.90625 
L 38.28125 8.296875 
L 54.390625 8.296875 
L 54.390625 0 
L 12.40625 0 
z
" id="DejaVuSans-31"/>
      <path d="M 31 75.875 
Q 24.46875 64.65625 21.28125 53.65625 
Q 18.109375 42.671875 18.109375 31.390625 
Q 18.109375 20.125 21.3125 9.0625 
Q 24.515625 -2 31 -13.1875 
L 23.1875 -13.1875 
Q 15.875 -1.703125 12.234375 9.375 
Q 8.59375 20.453125 8.59375 31.390625 
Q 8.59375 42.28125 12.203125 53.3125 
Q 15.828125 64.359375 23.1875 75.875 
z
" id="DejaVuSans-28"/>
      <path d="M 51.125 44 
L 36.921875 44 
L 32.8125 27.6875 
L 47.125 27.6875 
z
M 43.796875 71.78125 
L 38.71875 51.515625 
L 52.984375 51.515625 
L 58.109375 71.78125 
L 65.921875 71.78125 
L 60.890625 51.515625 
L 76.125 51.515625 
L 76.125 44 
L 58.984375 44 
L 54.984375 27.6875 
L 70.515625 27.6875 
L 70.515625 20.21875 
L 53.078125 20.21875 
L 48 0 
L 40.1875 0 
L 45.21875 20.21875 
L 30.90625 20.21875 
L 25.875 0 
L 18.015625 0 
L 23.09375 20.21875 
L 7.71875 20.21875 
L 7.71875 27.6875 
L 24.90625 27.6875 
L 29 44 
L 13.28125 44 
L 13.28125 51.515625 
L 30.90625 51.515625 
L 35.890625 71.78125 
z
" id="DejaVuSans-23"/>
      <path id="DejaVuSans-20"/>
      <path d="M 37.109375 75.984375 
L 37.109375 68.5 
L 28.515625 68.5 
Q 23.6875 68.5 21.796875 66.546875 
Q 19.921875 64.59375 19.921875 59.515625 
L 19.921875 54.6875 
L 34.71875 54.6875 
L 34.71875 47.703125 
L 19.921875 47.703125 
L 19.921875 0 
L 10.890625 0 
L 10.890625 47.703125 
L 2.296875 47.703125 
L 2.296875 54.6875 
L 10.890625 54.6875 
L 10.890625 58.5 
Q 10.890625 67.625 15.140625 71.796875 
Q 19.390625 75.984375 28.609375 75.984375 
z
" id="DejaVuSans-66"/>
      <path d="M 4.890625 31.390625 
L 31.203125 31.390625 
L 31.203125 23.390625 
L 4.890625 23.390625 
z
" id="DejaVuSans-2d"/>
      <path d="M 56.203125 29.59375 
L 56.203125 25.203125 
L 14.890625 25.203125 
Q 15.484375 15.921875 20.484375 11.0625 
Q 25.484375 6.203125 34.421875 6.203125 
Q 39.59375 6.203125 44.453125 7.46875 
Q 49.3125 8.734375 54.109375 11.28125 
L 54.109375 2.78125 
Q 49.265625 0.734375 44.1875 -0.34375 
Q 39.109375 -1.421875 33.890625 -1.421875 
Q 20.796875 -1.421875 13.15625 6.1875 
Q 5.515625 13.8125 5.515625 26.8125 
Q 5.515625 40.234375 12.765625 48.109375 
Q 20.015625 56 32.328125 56 
Q 43.359375 56 49.78125 48.890625 
Q 56.203125 41.796875 56.203125 29.59375 
z
M 47.21875 32.234375 
Q 47.125 39.59375 43.09375 43.984375 
Q 39.0625 48.390625 32.421875 48.390625 
Q 24.90625 48.390625 20.390625 44.140625 
Q 15.875 39.890625 15.1875 32.171875 
z
" id="DejaVuSans-65"/>
      <path d="M 2.984375 54.6875 
L 12.5 54.6875 
L 29.59375 8.796875 
L 46.6875 54.6875 
L 56.203125 54.6875 
L 35.6875 0 
L 23.484375 0 
z
" id="DejaVuSans-76"/>
      <path d="M 34.28125 27.484375 
Q 23.390625 27.484375 19.1875 25 
Q 14.984375 22.515625 14.984375 16.5 
Q 14.984375 11.71875 18.140625 8.90625 
Q 21.296875 6.109375 26.703125 6.109375 
Q 34.1875 6.109375 38.703125 11.40625 
Q 43.21875 16.703125 43.21875 25.484375 
L 43.21875 27.484375 
z
M 52.203125 31.203125 
L 52.203125 0 
L 43.21875 0 
L 43.21875 8.296875 
Q 40.140625 3.328125 35.546875 0.953125 
Q 30.953125 -1.421875 24.3125 -1.421875 
Q 15.921875 -1.421875 10.953125 3.296875 
Q 6 8.015625 6 15.921875 
Q 6 25.140625 12.171875 29.828125 
Q 18.359375 34.515625 30.609375 34.515625 
L 43.21875 34.515625 
L 43.21875 35.40625 
Q 43.21875 41.609375 39.140625 45 
Q 35.0625 48.390625 27.6875 48.390625 
Q 23 48.390625 18.546875 47.265625 
Q 14.109375 46.140625 10.015625 43.890625 
L 10.015625 52.203125 
Q 14.9375 54.109375 19.578125 55.046875 
Q 24.21875 56 28.609375 56 
Q 40.484375 56 46.34375 49.84375 
Q 52.203125 43.703125 52.203125 31.203125 
z
" id="DejaVuSans-61"/>
      <path d="M 44.28125 53.078125 
L 44.28125 44.578125 
Q 40.484375 46.53125 36.375 47.5 
Q 32.28125 48.484375 27.875 48.484375 
Q 21.1875 48.484375 17.84375 46.4375 
Q 14.5 44.390625 14.5 40.28125 
Q 14.5 37.15625 16.890625 35.375 
Q 19.28125 33.59375 26.515625 31.984375 
L 29.59375 31.296875 
Q 39.15625 29.25 43.1875 25.515625 
Q 47.21875 21.78125 47.21875 15.09375 
Q 47.21875 7.46875 41.1875 3.015625 
Q 35.15625 -1.421875 24.609375 -1.421875 
Q 20.21875 -1.421875 15.453125 -0.5625 
Q 10.6875 0.296875 5.421875 2 
L 5.421875 11.28125 
Q 10.40625 8.6875 15.234375 7.390625 
Q 20.0625 6.109375 24.8125 6.109375 
Q 31.15625 6.109375 34.5625 8.28125 
Q 37.984375 10.453125 37.984375 14.40625 
Q 37.984375 18.0625 35.515625 20.015625 
Q 33.0625 21.96875 24.703125 23.78125 
L 21.578125 24.515625 
Q 13.234375 26.265625 9.515625 29.90625 
Q 5.8125 33.546875 5.8125 39.890625 
Q 5.8125 47.609375 11.28125 51.796875 
Q 16.75 56 26.8125 56 
Q 31.78125 56 36.171875 55.265625 
Q 40.578125 54.546875 44.28125 53.078125 
z
" id="DejaVuSans-73"/>
      <path d="M 25.390625 72.90625 
L 33.6875 72.90625 
L 8.296875 -9.28125 
L 0 -9.28125 
z
" id="DejaVuSans-2f"/>
      <path d="M 45.40625 46.390625 
L 45.40625 75.984375 
L 54.390625 75.984375 
L 54.390625 0 
L 45.40625 0 
L 45.40625 8.203125 
Q 42.578125 3.328125 38.25 0.953125 
Q 33.9375 -1.421875 27.875 -1.421875 
Q 17.96875 -1.421875 11.734375 6.484375 
Q 5.515625 14.40625 5.515625 27.296875 
Q 5.515625 40.1875 11.734375 48.09375 
Q 17.96875 56 27.875 56 
Q 33.9375 56 38.25 53.625 
Q 42.578125 51.265625 45.40625 46.390625 
z
M 14.796875 27.296875 
Q 14.796875 17.390625 18.875 11.75 
Q 22.953125 6.109375 30.078125 6.109375 
Q 37.203125 6.109375 41.296875 11.75 
Q 45.40625 17.390625 45.40625 27.296875 
Q 45.40625 37.203125 41.296875 42.84375 
Q 37.203125 48.484375 30.078125 48.484375 
Q 22.953125 48.484375 18.875 42.84375 
Q 14.796875 37.203125 14.796875 27.296875 
z
" id="DejaVuSans-64"/>
      <path d="M 9.421875 54.6875 
L 18.40625 54.6875 
L 18.40625 0 
L 9.421875 0 
z
M 9.421875 75.984375 
L 18.40625 75.984375 
L 18.40625 64.59375 
L 9.421875 64.59375 
z
" id="DejaVuSans-69"/>
      <path d="M 52 44.1875 
Q 55.375 50.25 60.0625 53.125 
Q 64.75 56 71.09375 56 
Q 79.640625 56 84.28125 50.015625 
Q 88.921875 44.046875 88.921875 33.015625 
L 88.921875 0 
L 79.890625 0 
L 79.890625 32.71875 
Q 79.890625 40.578125 77.09375 44.375 
Q 74.3125 48.1875 68.609375 48.1875 
Q 61.625 48.1875 57.5625 43.546875 
Q 53.515625 38.921875 53.515625 30.90625 
L 53.515625 0 
L 44.484375 0 
L 44.484375 32.71875 
Q 44.484375 40.625 41.703125 44.40625 
Q 38.921875 48.1875 33.109375 48.1875 
Q 26.21875 48.1875 22.15625 43.53125 
Q 18.109375 38.875 18.109375 30.90625 
L 18.109375 0 
L 9.078125 0 
L 9.078125 54.6875 
L 18.109375 54.6875 
L 18.109375 46.1875 
Q 21.1875 51.21875 25.484375 53.609375 
Q 29.78125 56 35.6875 56 
Q 41.65625 56 45.828125 52.96875 
Q 50 49.953125 52 44.1875 
z
" id="DejaVuSans-6d"/>
      <path d="M 54.890625 33.015625 
L 54.890625 0 
L 45.90625 0 
L 45.90625 32.71875 
Q 45.90625 40.484375 42.875 44.328125 
Q 39.84375 48.1875 33.796875 48.1875 
Q 26.515625 48.1875 22.3125 43.546875 
Q 18.109375 38.921875 18.109375 30.90625 
L 18.109375 0 
L 9.078125 0 
L 9.078125 54.6875 
L 18.109375 54.6875 
L 18.109375 46.1875 
Q 21.34375 51.125 25.703125 53.5625 
Q 30.078125 56 35.796875 56 
Q 45.21875 56 50.046875 50.171875 
Q 54.890625 44.34375 54.890625 33.015625 
z
" id="DejaVuSans-6e"/>
      <path d="M 8.015625 75.875 
L 15.828125 75.875 
Q 23.140625 64.359375 26.78125 53.3125 
Q 30.421875 42.28125 30.421875 31.390625 
Q 30.421875 20.453125 26.78125 9.375 
Q 23.140625 -1.703125 15.828125 -13.1875 
L 8.015625 -13.1875 
Q 14.5 -2 17.703125 9.0625 
Q 20.90625 20.125 20.90625 31.390625 
Q 20.90625 42.671875 17.703125 53.65625 
Q 14.5 64.65625 8.015625 75.875 
z
" id="DejaVuSans-29"/>
     </defs>
     <g transform="translate(73.803219 338.153594)scale(0.17 -0.17)">
      <use xlink:href="#DejaVuSans-6c"/>
      <use x="27.783203" xlink:href="#DejaVuSans-6f"/>
      <use x="88.964844" xlink:href="#DejaVuSans-67"/>
      <use x="152.441406" xlink:href="#DejaVuSans-31"/>
      <use x="216.064453" xlink:href="#DejaVuSans-30"/>
      <use x="279.6875" xlink:href="#DejaVuSans-28"/>
      <use x="318.701172" xlink:href="#DejaVuSans-23"/>
      <use x="402.490234" xlink:href="#DejaVuSans-20"/>
      <use x="434.277344" xlink:href="#DejaVuSans-66"/>
      <use x="469.404297" xlink:href="#DejaVuSans-2d"/>
      <use x="505.488281" xlink:href="#DejaVuSans-65"/>
      <use x="567.011719" xlink:href="#DejaVuSans-76"/>
      <use x="626.191406" xlink:href="#DejaVuSans-61"/>
      <use x="687.470703" xlink:href="#DejaVuSans-6c"/>
      <use x="715.253906" xlink:href="#DejaVuSans-73"/>
      <use x="767.353516" xlink:href="#DejaVuSans-20"/>
      <use x="799.140625" xlink:href="#DejaVuSans-2f"/>
      <use x="832.832031" xlink:href="#DejaVuSans-20"/>
      <use x="864.619141" xlink:href="#DejaVuSans-64"/>
      <use x="928.095703" xlink:href="#DejaVuSans-69"/>
      <use x="955.878906" xlink:href="#DejaVuSans-6d"/>
      <use x="1053.291016" xlink:href="#DejaVuSans-65"/>
      <use x="1114.814453" xlink:href="#DejaVuSans-6e"/>
      <use x="1178.193359" xlink:href="#DejaVuSans-73"/>
      <use x="1230.292969" xlink:href="#DejaVuSans-69"/>
      <use x="1258.076172" xlink:href="#DejaVuSans-6f"/>
      <use x="1319.257812" xlink:href="#DejaVuSans-6e"/>
      <use x="1382.636719" xlink:href="#DejaVuSans-29"/>
     </g>
    </g>
   </g>
   <g id="matplotlib.axis_2">
    <g id="ytick_1">
     <g id="line2d_29">
      <path clip-path="url(#p2efa8c38f1)" d="M 56.12 294.88 
L 333.168 294.88 
" style="fill:none;stroke:#b0b0b0;stroke-linecap:square;stroke-width:0.8;"/>
     </g>
     <g id="line2d_30">
      <defs>
       <path d="M 0 0 
L -3.5 0 
" id="m6e800a2ee7" style="stroke:#000000;stroke-width:0.8;"/>
      </defs>
      <g>
       <use style="stroke:#000000;stroke-width:0.8;" x="56.12" xlink:href="#m6e800a2ee7" y="294.88"/>
      </g>
     </g>
     <g id="text_6">
      <!-- 0.0 -->
      <defs>
       <path d="M 10.6875 12.40625 
L 21 12.40625 
L 21 0 
L 10.6875 0 
z
" id="DejaVuSans-2e"/>
      </defs>
      <g transform="translate(23.675 300.95875)scale(0.16 -0.16)">
       <use xlink:href="#DejaVuSans-30"/>
       <use x="63.623047" xlink:href="#DejaVuSans-2e"/>
       <use x="95.410156" xlink:href="#DejaVuSans-30"/>
      </g>
     </g>
    </g>
    <g id="ytick_2">
     <g id="line2d_31">
      <path clip-path="url(#p2efa8c38f1)" d="M 56.12 237.843411 
L 333.168 237.843411 
" style="fill:none;stroke:#b0b0b0;stroke-linecap:square;stroke-width:0.8;"/>
     </g>
     <g id="line2d_32">
      <g>
       <use style="stroke:#000000;stroke-width:0.8;" x="56.12" xlink:href="#m6e800a2ee7" y="237.843411"/>
      </g>
     </g>
     <g id="text_7">
      <!-- 0.2 -->
      <g transform="translate(23.675 243.922161)scale(0.16 -0.16)">
       <use xlink:href="#DejaVuSans-30"/>
       <use x="63.623047" xlink:href="#DejaVuSans-2e"/>
       <use x="95.410156" xlink:href="#DejaVuSans-32"/>
      </g>
     </g>
    </g>
    <g id="ytick_3">
     <g id="line2d_33">
      <path clip-path="url(#p2efa8c38f1)" d="M 56.12 180.806823 
L 333.168 180.806823 
" style="fill:none;stroke:#b0b0b0;stroke-linecap:square;stroke-width:0.8;"/>
     </g>
     <g id="line2d_34">
      <g>
       <use style="stroke:#000000;stroke-width:0.8;" x="56.12" xlink:href="#m6e800a2ee7" y="180.806823"/>
      </g>
     </g>
     <g id="text_8">
      <!-- 0.4 -->
      <g transform="translate(23.675 186.885573)scale(0.16 -0.16)">
       <use xlink:href="#DejaVuSans-30"/>
       <use x="63.623047" xlink:href="#DejaVuSans-2e"/>
       <use x="95.410156" xlink:href="#DejaVuSans-34"/>
      </g>
     </g>
    </g>
    <g id="ytick_4">
     <g id="line2d_35">
      <path clip-path="url(#p2efa8c38f1)" d="M 56.12 123.770234 
L 333.168 123.770234 
" style="fill:none;stroke:#b0b0b0;stroke-linecap:square;stroke-width:0.8;"/>
     </g>
     <g id="line2d_36">
      <g>
       <use style="stroke:#000000;stroke-width:0.8;" x="56.12" xlink:href="#m6e800a2ee7" y="123.770234"/>
      </g>
     </g>
     <g id="text_9">
      <!-- 0.6 -->
      <g transform="translate(23.675 129.848984)scale(0.16 -0.16)">
       <use xlink:href="#DejaVuSans-30"/>
       <use x="63.623047" xlink:href="#DejaVuSans-2e"/>
       <use x="95.410156" xlink:href="#DejaVuSans-36"/>
      </g>
     </g>
    </g>
    <g id="ytick_5">
     <g id="line2d_37">
      <path clip-path="url(#p2efa8c38f1)" d="M 56.12 66.733646 
L 333.168 66.733646 
" style="fill:none;stroke:#b0b0b0;stroke-linecap:square;stroke-width:0.8;"/>
     </g>
     <g id="line2d_38">
      <g>
       <use style="stroke:#000000;stroke-width:0.8;" x="56.12" xlink:href="#m6e800a2ee7" y="66.733646"/>
      </g>
     </g>
     <g id="text_10">
      <!-- 0.8 -->
      <defs>
       <path d="M 31.78125 34.625 
Q 24.75 34.625 20.71875 30.859375 
Q 16.703125 27.09375 16.703125 20.515625 
Q 16.703125 13.921875 20.71875 10.15625 
Q 24.75 6.390625 31.78125 6.390625 
Q 38.8125 6.390625 42.859375 10.171875 
Q 46.921875 13.96875 46.921875 20.515625 
Q 46.921875 27.09375 42.890625 30.859375 
Q 38.875 34.625 31.78125 34.625 
z
M 21.921875 38.8125 
Q 15.578125 40.375 12.03125 44.71875 
Q 8.5 49.078125 8.5 55.328125 
Q 8.5 64.0625 14.71875 69.140625 
Q 20.953125 74.21875 31.78125 74.21875 
Q 42.671875 74.21875 48.875 69.140625 
Q 55.078125 64.0625 55.078125 55.328125 
Q 55.078125 49.078125 51.53125 44.71875 
Q 48 40.375 41.703125 38.8125 
Q 48.828125 37.15625 52.796875 32.3125 
Q 56.78125 27.484375 56.78125 20.515625 
Q 56.78125 9.90625 50.3125 4.234375 
Q 43.84375 -1.421875 31.78125 -1.421875 
Q 19.734375 -1.421875 13.25 4.234375 
Q 6.78125 9.90625 6.78125 20.515625 
Q 6.78125 27.484375 10.78125 32.3125 
Q 14.796875 37.15625 21.921875 38.8125 
z
M 18.3125 54.390625 
Q 18.3125 48.734375 21.84375 45.5625 
Q 25.390625 42.390625 31.78125 42.390625 
Q 38.140625 42.390625 41.71875 45.5625 
Q 45.3125 48.734375 45.3125 54.390625 
Q 45.3125 60.0625 41.71875 63.234375 
Q 38.140625 66.40625 31.78125 66.40625 
Q 25.390625 66.40625 21.84375 63.234375 
Q 18.3125 60.0625 18.3125 54.390625 
z
" id="DejaVuSans-38"/>
      </defs>
      <g transform="translate(23.675 72.812396)scale(0.16 -0.16)">
       <use xlink:href="#DejaVuSans-30"/>
       <use x="63.623047" xlink:href="#DejaVuSans-2e"/>
       <use x="95.410156" xlink:href="#DejaVuSans-38"/>
      </g>
     </g>
    </g>
    <g id="ytick_6">
     <g id="line2d_39">
      <path clip-path="url(#p2efa8c38f1)" d="M 56.12 9.697057 
L 333.168 9.697057 
" style="fill:none;stroke:#b0b0b0;stroke-linecap:square;stroke-width:0.8;"/>
     </g>
     <g id="line2d_40">
      <g>
       <use style="stroke:#000000;stroke-width:0.8;" x="56.12" xlink:href="#m6e800a2ee7" y="9.697057"/>
      </g>
     </g>
     <g id="text_11">
      <!-- 1.0 -->
      <g transform="translate(23.675 15.775807)scale(0.16 -0.16)">
       <use xlink:href="#DejaVuSans-31"/>
       <use x="63.623047" xlink:href="#DejaVuSans-2e"/>
       <use x="95.410156" xlink:href="#DejaVuSans-30"/>
      </g>
     </g>
    </g>
    <g id="text_12">
     <!-- Fraction of function,target pairs -->
     <defs>
      <path d="M 9.8125 72.90625 
L 51.703125 72.90625 
L 51.703125 64.59375 
L 19.671875 64.59375 
L 19.671875 43.109375 
L 48.578125 43.109375 
L 48.578125 34.8125 
L 19.671875 34.8125 
L 19.671875 0 
L 9.8125 0 
z
" id="DejaVuSans-46"/>
      <path d="M 41.109375 46.296875 
Q 39.59375 47.171875 37.8125 47.578125 
Q 36.03125 48 33.890625 48 
Q 26.265625 48 22.1875 43.046875 
Q 18.109375 38.09375 18.109375 28.8125 
L 18.109375 0 
L 9.078125 0 
L 9.078125 54.6875 
L 18.109375 54.6875 
L 18.109375 46.1875 
Q 20.953125 51.171875 25.484375 53.578125 
Q 30.03125 56 36.53125 56 
Q 37.453125 56 38.578125 55.875 
Q 39.703125 55.765625 41.0625 55.515625 
z
" id="DejaVuSans-72"/>
      <path d="M 48.78125 52.59375 
L 48.78125 44.1875 
Q 44.96875 46.296875 41.140625 47.34375 
Q 37.3125 48.390625 33.40625 48.390625 
Q 24.65625 48.390625 19.8125 42.84375 
Q 14.984375 37.3125 14.984375 27.296875 
Q 14.984375 17.28125 19.8125 11.734375 
Q 24.65625 6.203125 33.40625 6.203125 
Q 37.3125 6.203125 41.140625 7.25 
Q 44.96875 8.296875 48.78125 10.40625 
L 48.78125 2.09375 
Q 45.015625 0.34375 40.984375 -0.53125 
Q 36.96875 -1.421875 32.421875 -1.421875 
Q 20.0625 -1.421875 12.78125 6.34375 
Q 5.515625 14.109375 5.515625 27.296875 
Q 5.515625 40.671875 12.859375 48.328125 
Q 20.21875 56 33.015625 56 
Q 37.15625 56 41.109375 55.140625 
Q 45.0625 54.296875 48.78125 52.59375 
z
" id="DejaVuSans-63"/>
      <path d="M 18.3125 70.21875 
L 18.3125 54.6875 
L 36.8125 54.6875 
L 36.8125 47.703125 
L 18.3125 47.703125 
L 18.3125 18.015625 
Q 18.3125 11.328125 20.140625 9.421875 
Q 21.96875 7.515625 27.59375 7.515625 
L 36.8125 7.515625 
L 36.8125 0 
L 27.59375 0 
Q 17.1875 0 13.234375 3.875 
Q 9.28125 7.765625 9.28125 18.015625 
L 9.28125 47.703125 
L 2.6875 47.703125 
L 2.6875 54.6875 
L 9.28125 54.6875 
L 9.28125 70.21875 
z
" id="DejaVuSans-74"/>
      <path d="M 8.5 21.578125 
L 8.5 54.6875 
L 17.484375 54.6875 
L 17.484375 21.921875 
Q 17.484375 14.15625 20.5 10.265625 
Q 23.53125 6.390625 29.59375 6.390625 
Q 36.859375 6.390625 41.078125 11.03125 
Q 45.3125 15.671875 45.3125 23.6875 
L 45.3125 54.6875 
L 54.296875 54.6875 
L 54.296875 0 
L 45.3125 0 
L 45.3125 8.40625 
Q 42.046875 3.421875 37.71875 1 
Q 33.40625 -1.421875 27.6875 -1.421875 
Q 18.265625 -1.421875 13.375 4.4375 
Q 8.5 10.296875 8.5 21.578125 
z
M 31.109375 56 
z
" id="DejaVuSans-75"/>
      <path d="M 11.71875 12.40625 
L 22.015625 12.40625 
L 22.015625 4 
L 14.015625 -11.625 
L 7.71875 -11.625 
L 11.71875 4 
z
" id="DejaVuSans-2c"/>
      <path d="M 18.109375 8.203125 
L 18.109375 -20.796875 
L 9.078125 -20.796875 
L 9.078125 54.6875 
L 18.109375 54.6875 
L 18.109375 46.390625 
Q 20.953125 51.265625 25.265625 53.625 
Q 29.59375 56 35.59375 56 
Q 45.5625 56 51.78125 48.09375 
Q 58.015625 40.1875 58.015625 27.296875 
Q 58.015625 14.40625 51.78125 6.484375 
Q 45.5625 -1.421875 35.59375 -1.421875 
Q 29.59375 -1.421875 25.265625 0.953125 
Q 20.953125 3.328125 18.109375 8.203125 
z
M 48.6875 27.296875 
Q 48.6875 37.203125 44.609375 42.84375 
Q 40.53125 48.484375 33.40625 48.484375 
Q 26.265625 48.484375 22.1875 42.84375 
Q 18.109375 37.203125 18.109375 27.296875 
Q 18.109375 17.390625 22.1875 11.75 
Q 26.265625 6.109375 33.40625 6.109375 
Q 40.53125 6.109375 44.609375 11.75 
Q 48.6875 17.390625 48.6875 27.296875 
z
" id="DejaVuSans-70"/>
     </defs>
     <g transform="translate(16.139531 286.001989)rotate(-90)scale(0.17 -0.17)">
      <use xlink:href="#DejaVuSans-46"/>
      <use x="57.410156" xlink:href="#DejaVuSans-72"/>
      <use x="98.523438" xlink:href="#DejaVuSans-61"/>
      <use x="159.802734" xlink:href="#DejaVuSans-63"/>
      <use x="214.783203" xlink:href="#DejaVuSans-74"/>
      <use x="253.992188" xlink:href="#DejaVuSans-69"/>
      <use x="281.775391" xlink:href="#DejaVuSans-6f"/>
      <use x="342.957031" xlink:href="#DejaVuSans-6e"/>
      <use x="406.335938" xlink:href="#DejaVuSans-20"/>
      <use x="438.123047" xlink:href="#DejaVuSans-6f"/>
      <use x="499.304688" xlink:href="#DejaVuSans-66"/>
      <use x="534.509766" xlink:href="#DejaVuSans-20"/>
      <use x="566.296875" xlink:href="#DejaVuSans-66"/>
      <use x="601.501953" xlink:href="#DejaVuSans-75"/>
      <use x="664.880859" xlink:href="#DejaVuSans-6e"/>
      <use x="728.259766" xlink:href="#DejaVuSans-63"/>
      <use x="783.240234" xlink:href="#DejaVuSans-74"/>
      <use x="822.449219" xlink:href="#DejaVuSans-69"/>
      <use x="850.232422" xlink:href="#DejaVuSans-6f"/>
      <use x="911.414062" xlink:href="#DejaVuSans-6e"/>
      <use x="974.792969" xlink:href="#DejaVuSans-2c"/>
      <use x="1006.580078" xlink:href="#DejaVuSans-74"/>
      <use x="1045.789062" xlink:href="#DejaVuSans-61"/>
      <use x="1107.068359" xlink:href="#DejaVuSans-72"/>
      <use x="1148.166016" xlink:href="#DejaVuSans-67"/>
      <use x="1211.642578" xlink:href="#DejaVuSans-65"/>
      <use x="1273.166016" xlink:href="#DejaVuSans-74"/>
      <use x="1312.375" xlink:href="#DejaVuSans-20"/>
      <use x="1344.162109" xlink:href="#DejaVuSans-70"/>
      <use x="1407.638672" xlink:href="#DejaVuSans-61"/>
      <use x="1468.917969" xlink:href="#DejaVuSans-69"/>
      <use x="1496.701172" xlink:href="#DejaVuSans-72"/>
      <use x="1537.814453" xlink:href="#DejaVuSans-73"/>
     </g>
    </g>
   </g>
   <g id="line2d_41">
    <defs>
     <path d="M 0 1.5 
C 0.397805 1.5 0.77937 1.341951 1.06066 1.06066 
C 1.341951 0.77937 1.5 0.397805 1.5 0 
C 1.5 -0.397805 1.341951 -0.77937 1.06066 -1.06066 
C 0.77937 -1.341951 0.397805 -1.5 0 -1.5 
C -0.397805 -1.5 -0.77937 -1.341951 -1.06066 -1.06066 
C -1.341951 -0.77937 -1.5 -0.397805 -1.5 0 
C -1.5 0.397805 -1.341951 0.77937 -1.06066 1.06066 
C -0.77937 1.341951 -0.397805 1.5 0 1.5 
z
" id="maf2e076f65" style="stroke:#f5deb3;"/>
    </defs>
    <g>
     <use style="fill:#f5deb3;stroke:#f5deb3;" x="310.033209" xlink:href="#maf2e076f65" y="9.697057"/>
     <use style="fill:#f5deb3;stroke:#f5deb3;" x="310.033209" xlink:href="#maf2e076f65" y="9.697057"/>
    </g>
   </g>
   <g id="line2d_42">
    <defs>
     <path d="M 0 1.5 
C 0.397805 1.5 0.77937 1.341951 1.06066 1.06066 
C 1.341951 0.77937 1.5 0.397805 1.5 0 
C 1.5 -0.397805 1.341951 -0.77937 1.06066 -1.06066 
C 0.77937 -1.341951 0.397805 -1.5 0 -1.5 
C -0.397805 -1.5 -0.77937 -1.341951 -1.06066 -1.06066 
C -1.341951 -0.77937 -1.5 -0.397805 -1.5 0 
C -1.5 0.397805 -1.341951 0.77937 -1.06066 1.06066 
C -0.77937 1.341951 -0.397805 1.5 0 1.5 
z
" id="mf323477625" style="stroke:#000080;"/>
    </defs>
    <g>
     <use style="fill:#000080;stroke:#000080;" x="188.228688" xlink:href="#mf323477625" y="271.394346"/>
     <use style="fill:#000080;stroke:#000080;" x="188.228688" xlink:href="#mf323477625" y="271.394346"/>
    </g>
   </g>
   <g id="line2d_43">
    <path d="M 4.627463 294.88 
L 4.627463 287.722467 
L 77.155024 287.722467 
L 77.155024 287.610631 
L 88.814625 287.610631 
L 88.814625 287.498794 
L 91.969848 287.498794 
L 91.969848 287.386958 
L 93.304561 287.386958 
L 93.304561 287.275122 
L 94.634732 287.275122 
L 94.634732 287.163285 
L 99.395756 287.163285 
L 99.395756 287.051449 
L 99.738854 287.051449 
L 99.738854 286.939612 
L 104.615641 286.939612 
L 104.615641 286.827776 
L 108.654591 286.827776 
L 108.654591 286.715939 
L 109.367586 286.715939 
L 109.367586 286.604103 
L 110.566408 286.604103 
L 110.566408 286.492266 
L 110.710548 286.492266 
L 110.710548 286.38043 
L 111.516686 286.38043 
L 111.516686 286.268593 
L 112.188203 286.268593 
L 112.188203 286.156757 
L 113.48787 286.156757 
L 113.48787 286.044921 
L 114.117341 286.044921 
L 114.117341 285.933084 
L 123.050106 285.933084 
L 123.050106 285.709411 
L 123.327909 285.709411 
L 123.327909 285.597575 
L 123.601292 285.597575 
L 123.601292 285.485738 
L 126.695551 285.485738 
L 126.695551 285.373902 
L 127.362076 285.373902 
L 127.416471 285.150229 
L 127.578629 285.150229 
L 127.645746 284.926556 
L 129.034962 284.926556 
L 129.096637 284.702883 
L 129.353279 284.702883 
L 129.353279 284.591047 
L 130.33171 284.591047 
L 130.33171 284.47921 
L 130.828657 284.47921 
L 130.828657 284.367374 
L 132.248954 284.367374 
L 132.248954 284.255537 
L 132.833383 284.255537 
L 132.833383 284.143701 
L 133.049967 284.143701 
L 133.147519 283.920028 
L 133.389004 283.920028 
L 133.389004 283.808192 
L 133.513248 283.808192 
L 133.513248 283.696355 
L 133.740289 283.696355 
L 133.777839 283.472682 
L 134.056882 283.472682 
L 134.056882 283.360846 
L 135.259374 283.360846 
L 135.259374 283.249009 
L 136.77361 283.249009 
L 136.77361 283.137173 
L 137.109047 283.137173 
L 137.109047 283.025336 
L 137.491032 283.025336 
L 137.566421 282.577991 
L 137.648969 282.577991 
L 137.738571 282.242481 
L 138.288243 282.242481 
L 138.33866 282.018808 
L 138.41759 282.018808 
L 138.41759 281.906972 
L 138.897632 281.906972 
L 138.925457 281.683299 
L 139.269516 281.683299 
L 139.269516 281.571463 
L 139.391711 281.571463 
L 139.391711 281.459626 
L 140.542844 281.459626 
L 140.542844 281.34779 
L 141.127463 281.34779 
L 141.127463 281.235953 
L 141.418494 281.235953 
L 141.418494 281.124117 
L 141.74602 281.124117 
L 141.74602 281.01228 
L 142.03265 281.01228 
L 142.03265 280.900444 
L 142.586342 280.900444 
L 142.586342 280.788608 
L 143.505037 280.788608 
L 143.505037 280.676771 
L 145.110339 280.676771 
L 145.110339 280.564935 
L 146.667271 280.564935 
L 146.746827 280.341262 
L 148.413917 280.341262 
L 148.413917 280.229425 
L 148.92646 280.229425 
L 148.92646 280.117589 
L 150.957462 280.117589 
L 150.957462 280.005752 
L 151.074416 280.005752 
L 151.074416 279.893916 
L 151.74672 279.893916 
L 151.842057 279.670243 
L 151.917296 279.670243 
L 151.969442 279.44657 
L 152.664606 279.44657 
L 152.664606 279.222897 
L 153.666169 279.222897 
L 153.76612 278.999224 
L 154.556673 278.999224 
L 154.556673 278.887388 
L 154.957875 278.887388 
L 154.998849 278.551879 
L 155.272227 278.551879 
L 155.272227 278.328206 
L 155.453865 278.328206 
L 155.453865 278.216369 
L 156.077456 278.216369 
L 156.077456 278.104533 
L 156.202558 278.104533 
L 156.202558 277.992696 
L 156.339379 277.992696 
L 156.339379 277.88086 
L 156.460089 277.88086 
L 156.460089 277.769023 
L 158.09629 277.769023 
L 158.09629 277.657187 
L 158.764393 277.657187 
L 158.764393 277.545351 
L 158.88451 277.545351 
L 158.88451 277.433514 
L 159.074967 277.433514 
L 159.074967 277.209841 
L 160.941411 277.209841 
L 160.943342 276.986168 
L 161.535392 276.986168 
L 161.587541 276.762495 
L 162.535371 276.762495 
L 162.644138 276.538822 
L 162.938887 276.538822 
L 162.938887 276.426986 
L 163.448681 276.426986 
L 163.448681 276.203313 
L 163.816852 276.203313 
L 163.816852 276.091477 
L 164.520944 276.091477 
L 164.520944 275.867804 
L 164.672359 275.867804 
L 164.672359 275.755967 
L 164.931489 275.755967 
L 164.931489 275.644131 
L 165.848095 275.644131 
L 165.848095 275.532294 
L 166.807736 275.532294 
L 166.807736 275.420458 
L 167.320222 275.420458 
L 167.320222 275.308622 
L 167.47011 275.308622 
L 167.47011 275.196785 
L 167.843734 275.196785 
L 167.843734 275.084949 
L 168.100266 275.084949 
L 168.100266 274.973112 
L 168.483007 274.973112 
L 168.483007 274.861276 
L 168.662605 274.861276 
L 168.662605 274.637603 
L 169.089742 274.637603 
L 169.098153 274.41393 
L 169.210709 274.41393 
L 169.210709 274.302094 
L 169.355701 274.302094 
L 169.355701 274.190257 
L 171.016102 274.190257 
L 171.016102 274.078421 
L 172.857593 274.078421 
L 172.857593 273.966584 
L 173.25738 273.966584 
L 173.324213 273.631075 
L 173.422576 273.631075 
L 173.422576 273.519238 
L 173.553784 273.519238 
L 173.553784 273.407402 
L 174.179125 273.407402 
L 174.179125 273.295566 
L 175.938115 273.295566 
L 175.938922 273.071893 
L 176.241256 273.071893 
L 176.285598 272.84822 
L 177.038313 272.84822 
L 177.038313 272.736383 
L 179.251783 272.736383 
L 179.251783 272.624547 
L 180.357369 272.624547 
L 180.357369 272.51271 
L 181.251007 272.51271 
L 181.251007 272.400874 
L 181.795576 272.400874 
L 181.795576 272.289037 
L 182.931965 272.289037 
L 182.931965 272.177201 
L 183.841645 272.177201 
L 183.841645 272.065365 
L 184.132141 272.065365 
L 184.177669 271.841692 
L 186.067882 271.841692 
L 186.067882 271.729855 
L 186.360354 271.729855 
L 186.360354 271.618019 
L 187.828949 271.618019 
L 187.828949 271.506182 
L 188.228688 271.506182 
L 188.228688 271.394346 
L 333.168 271.394346 
L 333.168 271.394346 
" style="fill:none;stroke:#000080;stroke-linecap:square;stroke-width:1.5;"/>
   </g>
   <g id="line2d_44">
    <defs>
     <path d="M 0 6 
C 1.591219 6 3.117479 5.367802 4.242641 4.242641 
C 5.367802 3.117479 6 1.591219 6 0 
C 6 -1.591219 5.367802 -3.117479 4.242641 -4.242641 
C 3.117479 -5.367802 1.591219 -6 0 -6 
C -1.591219 -6 -3.117479 -5.367802 -4.242641 -4.242641 
C -5.367802 -3.117479 -6 -1.591219 -6 0 
C -6 1.591219 -5.367802 3.117479 -4.242641 4.242641 
C -3.117479 5.367802 -1.591219 6 0 6 
z
" id="m20c2cddd01" style="stroke:#000080;stroke-width:1.5;"/>
    </defs>
    <g>
     <use style="fill:none;stroke:#000080;stroke-width:1.5;" x="133.389004" xlink:href="#m20c2cddd01" y="283.808192"/>
     <use style="fill:none;stroke:#000080;stroke-width:1.5;" x="188.228688" xlink:href="#m20c2cddd01" y="271.506182"/>
     <use style="fill:none;stroke:#000080;stroke-width:1.5;" x="188.228688" xlink:href="#m20c2cddd01" y="271.394346"/>
     <use style="fill:none;stroke:#000080;stroke-width:1.5;" x="188.228688" xlink:href="#m20c2cddd01" y="271.394346"/>
     <use style="fill:none;stroke:#000080;stroke-width:1.5;" x="333.168" xlink:href="#m20c2cddd01" y="271.394346"/>
    </g>
   </g>
   <g id="line2d_45">
    <path style="fill:none;stroke:#000080;stroke-linecap:square;stroke-width:1.5;"/>
    <g/>
   </g>
   <g id="line2d_46">
    <path clip-path="url(#p2efa8c38f1)" d="M 147.190823 280.341262 
" style="fill:none;stroke:#000080;stroke-linecap:square;stroke-width:1.5;"/>
    <defs>
     <path d="M -12 12 
L 12 -12 
M -12 -12 
L 12 12 
" id="me4a81d3123" style="stroke:#000080;"/>
    </defs>
    <g clip-path="url(#p2efa8c38f1)">
     <use style="fill:#000080;stroke:#000080;" x="147.190823" xlink:href="#me4a81d3123" y="280.341262"/>
    </g>
   </g>
   <g id="line2d_47">
    <defs>
     <path d="M 0 1.5 
C 0.397805 1.5 0.77937 1.341951 1.06066 1.06066 
C 1.341951 0.77937 1.5 0.397805 1.5 0 
C 1.5 -0.397805 1.341951 -0.77937 1.06066 -1.06066 
C 0.77937 -1.341951 0.397805 -1.5 0 -1.5 
C -0.397805 -1.5 -0.77937 -1.341951 -1.06066 -1.06066 
C -1.341951 -0.77937 -1.5 -0.397805 -1.5 0 
C -1.5 0.397805 -1.341951 0.77937 -1.06066 1.06066 
C -0.77937 1.341951 -0.397805 1.5 0 1.5 
z
" id="m2394b4479a" style="stroke:#ff00ff;"/>
    </defs>
    <g>
     <use style="fill:#ff00ff;stroke:#ff00ff;" x="279.741949" xlink:href="#m2394b4479a" y="204.292477"/>
     <use style="fill:#ff00ff;stroke:#ff00ff;" x="279.741949" xlink:href="#m2394b4479a" y="204.292477"/>
    </g>
   </g>
   <g id="line2d_48">
    <path d="M 4.627463 294.88 
L 4.627463 287.498794 
L 16.541714 287.498794 
L 16.541714 287.051449 
L 23.511104 287.051449 
L 23.511104 286.268593 
L 28.455965 286.268593 
L 28.455965 286.044921 
L 32.291498 286.044921 
L 32.291498 285.933084 
L 35.425356 285.933084 
L 35.425356 285.821248 
L 38.074995 285.821248 
L 38.074995 285.709411 
L 45.844 285.709411 
L 45.844 285.597575 
L 49.989246 285.597575 
L 49.989246 285.373902 
L 64.198719 285.373902 
L 64.198719 285.262065 
L 65.240773 285.262065 
L 65.240773 285.150229 
L 68.458683 285.150229 
L 68.458683 284.926556 
L 70.05878 284.926556 
L 70.05878 284.81472 
L 76.641893 284.81472 
L 76.641893 284.702883 
L 86.036231 284.702883 
L 86.036231 284.591047 
L 92.391676 284.591047 
L 92.391676 284.47921 
L 107.612537 284.47921 
L 107.612537 284.143701 
L 108.532829 284.143701 
L 108.573513 283.920028 
L 110.782167 283.920028 
L 110.782167 283.808192 
L 112.022767 283.808192 
L 112.022767 283.696355 
L 112.188203 283.696355 
L 112.188203 283.584519 
L 113.396034 283.584519 
L 113.396034 282.689827 
L 115.691256 282.689827 
L 115.691256 280.788608 
L 116.220179 280.788608 
L 116.220179 280.676771 
L 117.256104 280.676771 
L 117.256104 280.564935 
L 117.715785 280.564935 
L 117.715785 278.216369 
L 117.834738 278.216369 
L 117.905717 277.433514 
L 117.999901 277.433514 
L 117.999901 277.321678 
L 118.302485 277.321678 
L 118.302485 277.098005 
L 119.267005 277.098005 
L 119.267005 276.986168 
L 119.526788 276.986168 
L 119.612517 275.532294 
L 119.909246 275.532294 
L 119.909246 275.420458 
L 120.055711 275.420458 
L 120.055711 275.308622 
L 120.406301 275.308622 
L 120.406301 275.196785 
L 120.889386 275.196785 
L 120.889386 274.637603 
L 121.16504 274.637603 
L 121.262426 274.078421 
L 121.532208 274.078421 
L 121.532208 273.966584 
L 122.660646 273.966584 
L 122.732117 273.519238 
L 122.891847 273.519238 
L 122.962364 273.295566 
L 123.032594 273.295566 
L 123.032594 273.183729 
L 123.224258 273.183729 
L 123.224258 273.071893 
L 123.803514 273.071893 
L 123.803514 272.960056 
L 124.036471 272.960056 
L 124.036471 272.84822 
L 124.573405 272.84822 
L 124.573405 272.736383 
L 124.859359 272.736383 
L 124.859359 272.624547 
L 125.310285 272.624547 
L 125.310285 271.953528 
L 125.629588 271.953528 
L 125.629588 271.841692 
L 125.957853 271.841692 
L 125.957853 271.729855 
L 126.352339 271.729855 
L 126.352339 271.618019 
L 126.496178 271.618019 
L 126.596154 271.058837 
L 127.032044 271.058837 
L 127.032044 270.835164 
L 127.578629 270.835164 
L 127.605507 270.499654 
L 127.92481 270.499654 
L 127.92481 270.387818 
L 128.647561 270.387818 
L 128.647561 269.604963 
L 128.861087 269.604963 
L 128.861087 269.38129 
L 129.145817 269.38129 
L 129.145817 269.269453 
L 129.31685 269.269453 
L 129.31685 269.157617 
L 129.462107 269.157617 
L 129.462107 269.04578 
L 129.630036 269.04578 
L 129.630036 268.933944 
L 130.100987 268.933944 
L 130.100987 268.822108 
L 130.559378 268.822108 
L 130.615826 268.262925 
L 131.322459 268.262925 
L 131.376461 268.039252 
L 131.441039 268.039252 
L 131.483957 267.703743 
L 132.084173 267.703743 
L 132.084173 267.591907 
L 132.279675 267.591907 
L 132.279675 267.368234 
L 132.614036 267.368234 
L 132.614036 267.256397 
L 132.892723 267.256397 
L 132.892723 267.144561 
L 133.079291 267.144561 
L 133.079291 266.920888 
L 133.579779 266.920888 
L 133.579779 266.809052 
L 133.843356 266.809052 
L 133.890001 266.138033 
L 134.574897 266.138033 
L 134.583847 265.91436 
L 134.832576 265.91436 
L 134.832576 265.802523 
L 135.276571 265.802523 
L 135.3623 265.578851 
L 135.784647 265.578851 
L 135.784647 265.467014 
L 136.28624 265.467014 
L 136.359022 265.243341 
L 136.599426 265.243341 
L 136.599426 264.907832 
L 136.930442 264.907832 
L 136.961637 264.572323 
L 137.262861 264.572323 
L 137.308738 264.34865 
L 137.678888 264.34865 
L 137.678888 264.236813 
L 137.909013 264.236813 
L 137.945844 264.01314 
L 138.041234 264.01314 
L 138.041234 263.901304 
L 138.538863 263.901304 
L 138.538863 263.789467 
L 138.974042 263.789467 
L 139.050113 263.342122 
L 139.519758 263.342122 
L 139.559997 263.006612 
L 140.048681 263.006612 
L 140.094197 262.782939 
L 140.485813 262.782939 
L 140.568131 262.335594 
L 140.643768 262.335594 
L 140.643768 262.223757 
L 140.825197 262.223757 
L 140.825197 262.111921 
L 141.00473 262.111921 
L 141.078475 261.888248 
L 141.382384 261.888248 
L 141.382384 261.776411 
L 141.544287 261.776411 
L 141.544287 261.664575 
L 141.67509 261.664575 
L 141.67509 261.552738 
L 142.015238 261.552738 
L 142.015238 261.440902 
L 142.257417 261.440902 
L 142.35448 261.217229 
L 142.473629 261.217229 
L 142.518803 260.993556 
L 142.631221 260.993556 
L 142.631221 260.88172 
L 143.690404 260.88172 
L 143.779723 260.54621 
L 144.11188 260.54621 
L 144.219486 260.098865 
L 144.260302 260.098865 
L 144.260302 259.987028 
L 144.598384 259.987028 
L 144.598384 259.875192 
L 145.071495 259.875192 
L 145.081214 259.651519 
L 145.322428 259.651519 
L 145.322428 259.539682 
L 145.579193 259.539682 
L 145.583912 259.204173 
L 145.757607 259.204173 
L 145.757607 259.092337 
L 146.044786 259.092337 
L 146.127269 258.868664 
L 146.489148 258.868664 
L 146.489148 258.756827 
L 146.843566 258.756827 
L 146.896104 258.533154 
L 147.057092 258.533154 
L 147.057092 258.421318 
L 147.293646 258.421318 
L 147.293646 258.309481 
L 147.627827 258.309481 
L 147.627827 258.197645 
L 147.790438 258.197645 
L 147.864973 257.973972 
L 147.906242 257.973972 
L 147.906242 257.862136 
L 148.349766 257.862136 
L 148.349766 257.750299 
L 148.545479 257.750299 
L 148.545479 257.638463 
L 148.868095 257.638463 
L 148.868095 257.526626 
L 149.123434 257.526626 
L 149.123434 257.41479 
L 149.283969 257.41479 
L 149.283969 257.302953 
L 149.443019 257.302953 
L 149.443019 257.079281 
L 149.741959 257.079281 
L 149.741959 256.743771 
L 150.324681 256.743771 
L 150.324681 256.631935 
L 150.647498 256.631935 
L 150.742124 256.408262 
L 151.547775 256.408262 
L 151.547775 256.296425 
L 151.74672 256.296425 
L 151.74672 256.184589 
L 152.202161 256.184589 
L 152.279039 255.960916 
L 152.97432 255.960916 
L 152.97432 255.84908 
L 153.124066 255.84908 
L 153.124066 255.737243 
L 153.553767 255.737243 
L 153.553767 255.625407 
L 153.783699 255.625407 
L 153.783699 255.51357 
L 154.185976 255.51357 
L 154.271577 255.289897 
L 154.53146 255.289897 
L 154.53146 255.178061 
L 154.648808 255.178061 
L 154.648808 255.066224 
L 156.64206 255.066224 
L 156.64206 254.954388 
L 168.594703 254.954388 
L 168.594703 254.842552 
L 169.238137 254.842552 
L 169.333201 254.618879 
L 169.399434 254.618879 
L 169.446588 254.283369 
L 169.584941 254.283369 
L 169.679273 253.836024 
L 169.771934 253.836024 
L 169.864099 253.612351 
L 169.929466 253.612351 
L 169.955771 253.165005 
L 170.046958 253.165005 
L 170.046958 253.053168 
L 170.227893 253.053168 
L 170.296376 252.493986 
L 170.375743 252.493986 
L 170.375743 252.38215 
L 170.495773 252.38215 
L 170.589655 252.158477 
L 170.672068 252.158477 
L 170.672068 251.934804 
L 170.818337 251.934804 
L 170.846573 251.711131 
L 170.945039 251.711131 
L 171.045089 251.263785 
L 171.194612 251.263785 
L 171.281589 250.928276 
L 171.457377 250.928276 
L 171.533657 250.592767 
L 171.633458 250.592767 
L 171.633458 250.48093 
L 171.784137 250.48093 
L 171.784137 250.369094 
L 172.101776 250.369094 
L 172.114884 249.921748 
L 172.384899 249.921748 
L 172.384899 249.809911 
L 172.579268 249.809911 
L 172.598879 249.474402 
L 172.705365 249.474402 
L 172.73553 249.250729 
L 173.151423 249.250729 
L 173.231897 248.91522 
L 173.271521 248.91522 
L 173.271521 248.691547 
L 173.605618 248.691547 
L 173.605618 248.57971 
L 174.025586 248.57971 
L 174.025586 248.467874 
L 174.463696 248.467874 
L 174.463696 248.356038 
L 174.611644 248.356038 
L 174.611644 248.244201 
L 174.728054 248.244201 
L 174.728054 248.132365 
L 175.454472 248.132365 
L 175.454472 248.020528 
L 179.258437 248.020528 
L 179.260432 247.796855 
L 179.417347 247.796855 
L 179.417347 247.685019 
L 180.375455 247.685019 
L 180.375455 247.573182 
L 180.648174 247.573182 
L 180.648174 247.461346 
L 180.833682 247.461346 
L 180.930519 247.125837 
L 180.956452 247.125837 
L 181.026814 246.902164 
L 181.07476 246.902164 
L 181.07476 246.790327 
L 181.459442 246.790327 
L 181.53186 246.454818 
L 181.894006 246.454818 
L 181.894006 246.342981 
L 182.040037 246.342981 
L 182.040037 246.231145 
L 182.693414 246.231145 
L 182.79389 246.007472 
L 183.019305 246.007472 
L 183.019305 245.895636 
L 183.467186 245.895636 
L 183.467186 245.783799 
L 186.803451 245.783799 
L 186.803451 245.671963 
L 186.94482 245.671963 
L 187.043641 245.44829 
L 187.179281 245.44829 
L 187.179281 245.336453 
L 187.615928 245.336453 
L 187.673101 245.000944 
L 187.977389 245.000944 
L 187.977389 244.889108 
L 188.672125 244.889108 
L 188.672125 244.777271 
L 191.631481 244.777271 
L 191.652841 244.553598 
L 192.032534 244.553598 
L 192.032534 244.441762 
L 193.980578 244.441762 
L 193.980578 244.329925 
L 195.534627 244.329925 
L 195.534627 244.218089 
L 197.99578 244.218089 
L 197.99578 244.106253 
L 198.597201 244.106253 
L 198.597201 243.994416 
L 203.790742 243.994416 
L 203.790742 243.88258 
L 207.814367 243.88258 
L 207.814367 243.770743 
L 214.535966 243.770743 
L 214.645311 241.98136 
L 214.672623 241.98136 
L 214.761723 239.856467 
L 214.797015 239.856467 
L 214.896687 238.626267 
L 214.930368 238.626267 
L 214.930368 238.51443 
L 215.660239 238.51443 
L 215.7696 237.172393 
L 215.775086 237.172393 
L 215.868785 235.38301 
L 215.901799 235.38301 
L 215.977382 234.711991 
L 216.027586 234.711991 
L 216.047079 234.376482 
L 216.556091 234.376482 
L 216.649719 234.040972 
L 216.719156 234.040972 
L 216.806364 233.48179 
L 216.841437 233.48179 
L 216.878228 233.258117 
L 216.964635 233.258117 
L 217.002866 232.810771 
L 217.60213 232.810771 
L 217.698278 232.363425 
L 217.731083 232.363425 
L 217.823339 231.58057 
L 217.84548 231.58057 
L 217.873645 231.245061 
L 217.963461 231.245061 
L 217.963461 231.133225 
L 218.468886 231.133225 
L 218.468886 231.021388 
L 218.75698 231.021388 
L 218.75698 230.909552 
L 219.345314 230.909552 
L 219.422636 230.685879 
L 219.530306 230.685879 
L 219.638004 230.350369 
L 220.319097 230.350369 
L 220.319097 230.238533 
L 220.470135 230.238533 
L 220.470135 230.126697 
L 226.40231 230.126697 
L 226.502507 228.784659 
L 226.517108 228.784659 
L 226.610632 227.778131 
L 226.984566 227.778131 
L 227.095058 226.54793 
L 227.097815 226.54793 
L 227.10863 226.324257 
L 227.536037 226.324257 
L 227.630534 225.317729 
L 227.650423 225.317729 
L 227.676614 225.094056 
L 228.089945 225.094056 
L 228.11563 224.758547 
L 228.587524 224.758547 
L 228.614662 224.311201 
L 228.978951 224.311201 
L 229.078547 224.087528 
L 229.590482 224.087528 
L 229.59436 223.863855 
L 230.262497 223.863855 
L 230.262497 223.752019 
L 230.444936 223.752019 
L 230.444936 223.640183 
L 233.362388 223.640183 
L 233.463804 222.298145 
L 233.75404 222.298145 
L 233.847096 221.51529 
L 234.072387 221.51529 
L 234.165758 220.508762 
L 234.472995 220.508762 
L 234.540279 220.173253 
L 234.778759 220.173253 
L 234.836993 219.837743 
L 234.895188 219.837743 
L 234.928947 219.61407 
L 235.084141 219.61407 
L 235.18887 219.278561 
L 235.210822 219.278561 
L 235.254847 218.943052 
L 236.130647 218.943052 
L 236.132593 218.719379 
L 236.453554 218.719379 
L 236.453554 218.607542 
L 236.830321 218.607542 
L 236.830321 218.495706 
L 238.310992 218.495706 
L 238.337452 218.160197 
L 238.602362 218.160197 
L 238.682115 217.489178 
L 238.853291 217.489178 
L 238.933275 216.706323 
L 239.178679 216.706323 
L 239.247248 216.48265 
L 239.390917 216.48265 
L 239.487341 215.364285 
L 239.622655 215.364285 
L 239.692643 215.028776 
L 239.777461 215.028776 
L 239.777461 214.91694 
L 239.928001 214.91694 
L 240.02802 214.58143 
L 240.391276 214.58143 
L 240.4728 214.245921 
L 240.674421 214.245921 
L 240.674421 214.134084 
L 240.883078 214.134084 
L 240.883078 214.022248 
L 241.835492 214.022248 
L 241.835492 213.910412 
L 242.135054 213.910412 
L 242.153464 213.574902 
L 242.357647 213.574902 
L 242.357647 213.463066 
L 242.560688 213.463066 
L 242.657773 212.568374 
L 242.79247 212.568374 
L 242.881526 212.232865 
L 242.989195 212.232865 
L 243.012467 211.785519 
L 243.232517 211.785519 
L 243.232517 211.673683 
L 243.445526 211.673683 
L 243.464951 211.338173 
L 243.606438 211.338173 
L 243.606438 211.226337 
L 243.842989 211.226337 
L 243.842989 211.1145 
L 245.664409 211.1145 
L 245.664409 211.002664 
L 245.822349 211.002664 
L 245.883383 210.778991 
L 246.20413 210.778991 
L 246.20413 210.667155 
L 246.542666 210.667155 
L 246.588869 210.443482 
L 246.745029 210.443482 
L 246.745029 210.331645 
L 248.392564 210.331645 
L 248.42414 209.996136 
L 248.58502 209.996136 
L 248.58502 209.884299 
L 248.715358 209.884299 
L 248.735206 209.660626 
L 249.074026 209.660626 
L 249.074026 209.54879 
L 250.362047 209.54879 
L 250.362047 209.436954 
L 250.723695 209.436954 
L 250.813979 209.101444 
L 250.921792 209.101444 
L 250.921792 208.989608 
L 251.066021 208.989608 
L 251.172665 208.765935 
L 251.403483 208.765935 
L 251.403483 208.654098 
L 252.070063 208.654098 
L 252.070063 208.542262 
L 252.723551 208.542262 
L 252.826855 208.318589 
L 253.146405 208.318589 
L 253.146405 208.206753 
L 253.32214 208.206753 
L 253.32214 208.094916 
L 253.453119 208.094916 
L 253.453119 207.871243 
L 253.657365 207.871243 
L 253.657365 207.759407 
L 254.365285 207.759407 
L 254.469116 207.535734 
L 255.120328 207.535734 
L 255.120328 207.423898 
L 255.805854 207.423898 
L 255.805854 207.312061 
L 256.083417 207.312061 
L 256.096454 207.088388 
L 256.5954 207.088388 
L 256.5954 206.976552 
L 257.239166 206.976552 
L 257.239166 206.864715 
L 258.793516 206.864715 
L 258.889397 206.641042 
L 259.006315 206.641042 
L 259.063664 206.417369 
L 259.397992 206.417369 
L 259.397992 206.305533 
L 259.639831 206.305533 
L 259.639831 206.193697 
L 259.972764 206.193697 
L 259.972764 206.08186 
L 260.310628 206.08186 
L 260.417072 205.858187 
L 260.511052 205.858187 
L 260.511052 205.746351 
L 261.827311 205.746351 
L 261.827311 205.634514 
L 262.497383 205.634514 
L 262.497383 205.522678 
L 262.618742 205.522678 
L 262.618742 205.410841 
L 262.805985 205.410841 
L 262.805985 205.299005 
L 264.952221 205.299005 
L 264.952221 205.187169 
L 265.125291 205.187169 
L 265.125291 205.075332 
L 265.597705 205.075332 
L 265.597705 204.963496 
L 266.500714 204.963496 
L 266.500714 204.627986 
L 268.10423 204.627986 
L 268.187972 204.404313 
L 279.741949 204.404313 
L 279.741949 204.292477 
L 333.168 204.292477 
L 333.168 204.292477 
" style="fill:none;stroke:#ff00ff;stroke-linecap:square;stroke-width:1.5;"/>
   </g>
   <g id="line2d_49">
    <defs>
     <path d="M -0 8.485281 
L 5.091169 0 
L 0 -8.485281 
L -5.091169 -0 
z
" id="mb3b0e23179" style="stroke:#ff00ff;stroke-linejoin:miter;stroke-width:1.5;"/>
    </defs>
    <g>
     <use style="fill:none;stroke:#ff00ff;stroke-linejoin:miter;stroke-width:1.5;" x="92.391676" xlink:href="#mb3b0e23179" y="284.591047"/>
     <use style="fill:none;stroke:#ff00ff;stroke-linejoin:miter;stroke-width:1.5;" x="156.64206" xlink:href="#mb3b0e23179" y="254.954388"/>
     <use style="fill:none;stroke:#ff00ff;stroke-linejoin:miter;stroke-width:1.5;" x="234.928947" xlink:href="#mb3b0e23179" y="219.725907"/>
     <use style="fill:none;stroke:#ff00ff;stroke-linejoin:miter;stroke-width:1.5;" x="279.741949" xlink:href="#mb3b0e23179" y="204.292477"/>
     <use style="fill:none;stroke:#ff00ff;stroke-linejoin:miter;stroke-width:1.5;" x="279.741949" xlink:href="#mb3b0e23179" y="204.292477"/>
     <use style="fill:none;stroke:#ff00ff;stroke-linejoin:miter;stroke-width:1.5;" x="333.168" xlink:href="#mb3b0e23179" y="204.292477"/>
    </g>
   </g>
   <g id="line2d_50">
    <path style="fill:none;stroke:#ff00ff;stroke-linecap:square;stroke-width:1.5;"/>
    <g/>
   </g>
   <g id="line2d_51">
    <path clip-path="url(#p2efa8c38f1)" d="M 214.433143 243.770743 
" style="fill:none;stroke:#ff00ff;stroke-linecap:square;stroke-width:1.5;"/>
    <defs>
     <path d="M -12 12 
L 12 -12 
M -12 -12 
L 12 12 
" id="m41400c35c1" style="stroke:#ff00ff;"/>
    </defs>
    <g clip-path="url(#p2efa8c38f1)">
     <use style="fill:#ff00ff;stroke:#ff00ff;" x="214.433143" xlink:href="#m41400c35c1" y="243.770743"/>
    </g>
   </g>
   <g id="line2d_52">
    <path d="M 333.168 271.394346 
L 363.64328 289.176341 
" style="fill:none;stroke:#000080;stroke-linecap:square;stroke-width:1.5;"/>
    <g>
     <use style="fill:none;stroke:#000080;stroke-width:1.5;" x="333.168" xlink:href="#m20c2cddd01" y="271.394346"/>
     <use style="fill:none;stroke:#000080;stroke-width:1.5;" x="363.64328" xlink:href="#m20c2cddd01" y="289.176341"/>
    </g>
   </g>
   <g id="line2d_53">
    <path d="M 333.168 204.292477 
L 363.64328 152.288529 
" style="fill:none;stroke:#ff00ff;stroke-linecap:square;stroke-width:1.5;"/>
    <g>
     <use style="fill:none;stroke:#ff00ff;stroke-linejoin:miter;stroke-width:1.5;" x="333.168" xlink:href="#mb3b0e23179" y="204.292477"/>
     <use style="fill:none;stroke:#ff00ff;stroke-linejoin:miter;stroke-width:1.5;" x="363.64328" xlink:href="#mb3b0e23179" y="152.288529"/>
    </g>
   </g>
   <g id="line2d_54">
    <path d="M 333.168 294.88 
L 333.168 9.697057 
" style="fill:none;stroke:#000000;stroke-linecap:square;stroke-width:1.5;"/>
   </g>
   <g id="patch_3">
    <path d="M 56.12 294.88 
L 56.12 6.845228 
" style="fill:none;stroke:#000000;stroke-linecap:square;stroke-linejoin:miter;stroke-width:0.8;"/>
   </g>
   <g id="patch_4">
    <path d="M 333.168 294.88 
L 333.168 6.845228 
" style="fill:none;stroke:#000000;stroke-linecap:square;stroke-linejoin:miter;stroke-width:0.8;"/>
   </g>
   <g id="patch_5">
    <path d="M 56.12 294.88 
L 333.168 294.88 
" style="fill:none;stroke:#000000;stroke-linecap:square;stroke-linejoin:miter;stroke-width:0.8;"/>
   </g>
   <g id="patch_6">
    <path d="M 56.12 6.845228 
L 333.168 6.845228 
" style="fill:none;stroke:#000000;stroke-linecap:square;stroke-linejoin:miter;stroke-width:0.8;"/>
   </g>
   <g id="text_13">
    <!-- scipyAlg -->
    <defs>
     <path d="M 32.171875 -5.078125 
Q 28.375 -14.84375 24.75 -17.8125 
Q 21.140625 -20.796875 15.09375 -20.796875 
L 7.90625 -20.796875 
L 7.90625 -13.28125 
L 13.1875 -13.28125 
Q 16.890625 -13.28125 18.9375 -11.515625 
Q 21 -9.765625 23.484375 -3.21875 
L 25.09375 0.875 
L 2.984375 54.6875 
L 12.5 54.6875 
L 29.59375 11.921875 
L 46.6875 54.6875 
L 56.203125 54.6875 
z
" id="DejaVuSans-79"/>
     <path d="M 34.1875 63.1875 
L 20.796875 26.90625 
L 47.609375 26.90625 
z
M 28.609375 72.90625 
L 39.796875 72.90625 
L 67.578125 0 
L 57.328125 0 
L 50.6875 18.703125 
L 17.828125 18.703125 
L 11.1875 0 
L 0.78125 0 
z
" id="DejaVuSans-41"/>
    </defs>
    <g transform="translate(369.18424 293.867279)scale(0.17 -0.17)">
     <use xlink:href="#DejaVuSans-73"/>
     <use x="52.099609" xlink:href="#DejaVuSans-63"/>
     <use x="107.080078" xlink:href="#DejaVuSans-69"/>
     <use x="134.863281" xlink:href="#DejaVuSans-70"/>
     <use x="198.339844" xlink:href="#DejaVuSans-79"/>
     <use x="257.519531" xlink:href="#DejaVuSans-41"/>
     <use x="325.927734" xlink:href="#DejaVuSans-6c"/>
     <use x="353.710938" xlink:href="#DejaVuSans-67"/>
    </g>
   </g>
   <g id="text_14">
    <!-- CMA ES PP -->
    <defs>
     <path d="M 64.40625 67.28125 
L 64.40625 56.890625 
Q 59.421875 61.53125 53.78125 63.8125 
Q 48.140625 66.109375 41.796875 66.109375 
Q 29.296875 66.109375 22.65625 58.46875 
Q 16.015625 50.828125 16.015625 36.375 
Q 16.015625 21.96875 22.65625 14.328125 
Q 29.296875 6.6875 41.796875 6.6875 
Q 48.140625 6.6875 53.78125 8.984375 
Q 59.421875 11.28125 64.40625 15.921875 
L 64.40625 5.609375 
Q 59.234375 2.09375 53.4375 0.328125 
Q 47.65625 -1.421875 41.21875 -1.421875 
Q 24.65625 -1.421875 15.125 8.703125 
Q 5.609375 18.84375 5.609375 36.375 
Q 5.609375 53.953125 15.125 64.078125 
Q 24.65625 74.21875 41.21875 74.21875 
Q 47.75 74.21875 53.53125 72.484375 
Q 59.328125 70.75 64.40625 67.28125 
z
" id="DejaVuSans-43"/>
     <path d="M 9.8125 72.90625 
L 24.515625 72.90625 
L 43.109375 23.296875 
L 61.8125 72.90625 
L 76.515625 72.90625 
L 76.515625 0 
L 66.890625 0 
L 66.890625 64.015625 
L 48.09375 14.015625 
L 38.1875 14.015625 
L 19.390625 64.015625 
L 19.390625 0 
L 9.8125 0 
z
" id="DejaVuSans-4d"/>
     <path d="M 9.8125 72.90625 
L 55.90625 72.90625 
L 55.90625 64.59375 
L 19.671875 64.59375 
L 19.671875 43.015625 
L 54.390625 43.015625 
L 54.390625 34.71875 
L 19.671875 34.71875 
L 19.671875 8.296875 
L 56.78125 8.296875 
L 56.78125 0 
L 9.8125 0 
z
" id="DejaVuSans-45"/>
     <path d="M 53.515625 70.515625 
L 53.515625 60.890625 
Q 47.90625 63.578125 42.921875 64.890625 
Q 37.9375 66.21875 33.296875 66.21875 
Q 25.25 66.21875 20.875 63.09375 
Q 16.5 59.96875 16.5 54.203125 
Q 16.5 49.359375 19.40625 46.890625 
Q 22.3125 44.4375 30.421875 42.921875 
L 36.375 41.703125 
Q 47.40625 39.59375 52.65625 34.296875 
Q 57.90625 29 57.90625 20.125 
Q 57.90625 9.515625 50.796875 4.046875 
Q 43.703125 -1.421875 29.984375 -1.421875 
Q 24.8125 -1.421875 18.96875 -0.25 
Q 13.140625 0.921875 6.890625 3.21875 
L 6.890625 13.375 
Q 12.890625 10.015625 18.65625 8.296875 
Q 24.421875 6.59375 29.984375 6.59375 
Q 38.421875 6.59375 43.015625 9.90625 
Q 47.609375 13.234375 47.609375 19.390625 
Q 47.609375 24.75 44.3125 27.78125 
Q 41.015625 30.8125 33.5 32.328125 
L 27.484375 33.5 
Q 16.453125 35.6875 11.515625 40.375 
Q 6.59375 45.0625 6.59375 53.421875 
Q 6.59375 63.09375 13.40625 68.65625 
Q 20.21875 74.21875 32.171875 74.21875 
Q 37.3125 74.21875 42.625 73.28125 
Q 47.953125 72.359375 53.515625 70.515625 
z
" id="DejaVuSans-53"/>
     <path d="M 19.671875 64.796875 
L 19.671875 37.40625 
L 32.078125 37.40625 
Q 38.96875 37.40625 42.71875 40.96875 
Q 46.484375 44.53125 46.484375 51.125 
Q 46.484375 57.671875 42.71875 61.234375 
Q 38.96875 64.796875 32.078125 64.796875 
z
M 9.8125 72.90625 
L 32.078125 72.90625 
Q 44.34375 72.90625 50.609375 67.359375 
Q 56.890625 61.8125 56.890625 51.125 
Q 56.890625 40.328125 50.609375 34.8125 
Q 44.34375 29.296875 32.078125 29.296875 
L 19.671875 29.296875 
L 19.671875 0 
L 9.8125 0 
z
" id="DejaVuSans-50"/>
    </defs>
    <g transform="translate(369.18424 156.979466)scale(0.17 -0.17)">
     <use xlink:href="#DejaVuSans-43"/>
     <use x="69.824219" xlink:href="#DejaVuSans-4d"/>
     <use x="156.103516" xlink:href="#DejaVuSans-41"/>
     <use x="224.511719" xlink:href="#DejaVuSans-20"/>
     <use x="256.298828" xlink:href="#DejaVuSans-45"/>
     <use x="319.482422" xlink:href="#DejaVuSans-53"/>
     <use x="382.958984" xlink:href="#DejaVuSans-20"/>
     <use x="414.746094" xlink:href="#DejaVuSans-50"/>
     <use x="475.048828" xlink:href="#DejaVuSans-50"/>
    </g>
   </g>
   <g id="text_15">
    <!-- best 2009 -->
    <defs>
     <path d="M 48.6875 27.296875 
Q 48.6875 37.203125 44.609375 42.84375 
Q 40.53125 48.484375 33.40625 48.484375 
Q 26.265625 48.484375 22.1875 42.84375 
Q 18.109375 37.203125 18.109375 27.296875 
Q 18.109375 17.390625 22.1875 11.75 
Q 26.265625 6.109375 33.40625 6.109375 
Q 40.53125 6.109375 44.609375 11.75 
Q 48.6875 17.390625 48.6875 27.296875 
z
M 18.109375 46.390625 
Q 20.953125 51.265625 25.265625 53.625 
Q 29.59375 56 35.59375 56 
Q 45.5625 56 51.78125 48.09375 
Q 58.015625 40.1875 58.015625 27.296875 
Q 58.015625 14.40625 51.78125 6.484375 
Q 45.5625 -1.421875 35.59375 -1.421875 
Q 29.59375 -1.421875 25.265625 0.953125 
Q 20.953125 3.328125 18.109375 8.203125 
L 18.109375 0 
L 9.078125 0 
L 9.078125 75.984375 
L 18.109375 75.984375 
z
" id="DejaVuSans-62"/>
     <path d="M 10.984375 1.515625 
L 10.984375 10.5 
Q 14.703125 8.734375 18.5 7.8125 
Q 22.3125 6.890625 25.984375 6.890625 
Q 35.75 6.890625 40.890625 13.453125 
Q 46.046875 20.015625 46.78125 33.40625 
Q 43.953125 29.203125 39.59375 26.953125 
Q 35.25 24.703125 29.984375 24.703125 
Q 19.046875 24.703125 12.671875 31.3125 
Q 6.296875 37.9375 6.296875 49.421875 
Q 6.296875 60.640625 12.9375 67.421875 
Q 19.578125 74.21875 30.609375 74.21875 
Q 43.265625 74.21875 49.921875 64.515625 
Q 56.59375 54.828125 56.59375 36.375 
Q 56.59375 19.140625 48.40625 8.859375 
Q 40.234375 -1.421875 26.421875 -1.421875 
Q 22.703125 -1.421875 18.890625 -0.6875 
Q 15.09375 0.046875 10.984375 1.515625 
z
M 30.609375 32.421875 
Q 37.25 32.421875 41.125 36.953125 
Q 45.015625 41.5 45.015625 49.421875 
Q 45.015625 57.28125 41.125 61.84375 
Q 37.25 66.40625 30.609375 66.40625 
Q 23.96875 66.40625 20.09375 61.84375 
Q 16.21875 57.28125 16.21875 49.421875 
Q 16.21875 41.5 20.09375 36.953125 
Q 23.96875 32.421875 30.609375 32.421875 
z
" id="DejaVuSans-39"/>
    </defs>
    <g transform="translate(369.18424 20.091654)scale(0.17 -0.17)">
     <use xlink:href="#DejaVuSans-62"/>
     <use x="63.476562" xlink:href="#DejaVuSans-65"/>
     <use x="125" xlink:href="#DejaVuSans-73"/>
     <use x="177.099609" xlink:href="#DejaVuSans-74"/>
     <use x="216.308594" xlink:href="#DejaVuSans-20"/>
     <use x="248.095703" xlink:href="#DejaVuSans-32"/>
     <use x="311.71875" xlink:href="#DejaVuSans-30"/>
     <use x="375.341797" xlink:href="#DejaVuSans-30"/>
     <use x="438.964844" xlink:href="#DejaVuSans-39"/>
    </g>
   </g>
   <g id="text_16">
    <!-- bbob f20-f24, 20-D -->
    <defs>
     <path d="M 19.671875 64.796875 
L 19.671875 8.109375 
L 31.59375 8.109375 
Q 46.6875 8.109375 53.6875 14.9375 
Q 60.6875 21.78125 60.6875 36.53125 
Q 60.6875 51.171875 53.6875 57.984375 
Q 46.6875 64.796875 31.59375 64.796875 
z
M 9.8125 72.90625 
L 30.078125 72.90625 
Q 51.265625 72.90625 61.171875 64.09375 
Q 71.09375 55.28125 71.09375 36.53125 
Q 71.09375 17.671875 61.125 8.828125 
Q 51.171875 0 30.078125 0 
L 9.8125 0 
z
" id="DejaVuSans-44"/>
    </defs>
    <g transform="translate(58.89048 17.475982)scale(0.102 -0.102)">
     <use xlink:href="#DejaVuSans-62"/>
     <use x="63.476562" xlink:href="#DejaVuSans-62"/>
     <use x="126.953125" xlink:href="#DejaVuSans-6f"/>
     <use x="188.134766" xlink:href="#DejaVuSans-62"/>
     <use x="251.611328" xlink:href="#DejaVuSans-20"/>
     <use x="283.398438" xlink:href="#DejaVuSans-66"/>
     <use x="318.603516" xlink:href="#DejaVuSans-32"/>
     <use x="382.226562" xlink:href="#DejaVuSans-30"/>
     <use x="445.849609" xlink:href="#DejaVuSans-2d"/>
     <use x="481.933594" xlink:href="#DejaVuSans-66"/>
     <use x="517.138672" xlink:href="#DejaVuSans-32"/>
     <use x="580.761719" xlink:href="#DejaVuSans-34"/>
     <use x="644.384766" xlink:href="#DejaVuSans-2c"/>
     <use x="676.171875" xlink:href="#DejaVuSans-20"/>
     <use x="707.958984" xlink:href="#DejaVuSans-32"/>
     <use x="771.582031" xlink:href="#DejaVuSans-30"/>
     <use x="835.205078" xlink:href="#DejaVuSans-2d"/>
     <use x="871.289062" xlink:href="#DejaVuSans-44"/>
    </g>
    <!-- 51 targets: 100..1e-08 -->
    <defs>
     <path d="M 10.796875 72.90625 
L 49.515625 72.90625 
L 49.515625 64.59375 
L 19.828125 64.59375 
L 19.828125 46.734375 
Q 21.96875 47.46875 24.109375 47.828125 
Q 26.265625 48.1875 28.421875 48.1875 
Q 40.625 48.1875 47.75 41.5 
Q 54.890625 34.8125 54.890625 23.390625 
Q 54.890625 11.625 47.5625 5.09375 
Q 40.234375 -1.421875 26.90625 -1.421875 
Q 22.3125 -1.421875 17.546875 -0.640625 
Q 12.796875 0.140625 7.71875 1.703125 
L 7.71875 11.625 
Q 12.109375 9.234375 16.796875 8.0625 
Q 21.484375 6.890625 26.703125 6.890625 
Q 35.15625 6.890625 40.078125 11.328125 
Q 45.015625 15.765625 45.015625 23.390625 
Q 45.015625 31 40.078125 35.4375 
Q 35.15625 39.890625 26.703125 39.890625 
Q 22.75 39.890625 18.8125 39.015625 
Q 14.890625 38.140625 10.796875 36.28125 
z
" id="DejaVuSans-35"/>
     <path d="M 11.71875 12.40625 
L 22.015625 12.40625 
L 22.015625 0 
L 11.71875 0 
z
M 11.71875 51.703125 
L 22.015625 51.703125 
L 22.015625 39.3125 
L 11.71875 39.3125 
z
" id="DejaVuSans-3a"/>
    </defs>
    <g transform="translate(58.89048 28.89775)scale(0.102 -0.102)">
     <use xlink:href="#DejaVuSans-35"/>
     <use x="63.623047" xlink:href="#DejaVuSans-31"/>
     <use x="127.246094" xlink:href="#DejaVuSans-20"/>
     <use x="159.033203" xlink:href="#DejaVuSans-74"/>
     <use x="198.242188" xlink:href="#DejaVuSans-61"/>
     <use x="259.521484" xlink:href="#DejaVuSans-72"/>
     <use x="300.619141" xlink:href="#DejaVuSans-67"/>
     <use x="364.095703" xlink:href="#DejaVuSans-65"/>
     <use x="425.619141" xlink:href="#DejaVuSans-74"/>
     <use x="464.828125" xlink:href="#DejaVuSans-73"/>
     <use x="516.927734" xlink:href="#DejaVuSans-3a"/>
     <use x="550.619141" xlink:href="#DejaVuSans-20"/>
     <use x="582.40625" xlink:href="#DejaVuSans-31"/>
     <use x="646.029297" xlink:href="#DejaVuSans-30"/>
     <use x="709.652344" xlink:href="#DejaVuSans-30"/>
     <use x="773.275391" xlink:href="#DejaVuSans-2e"/>
     <use x="805.0625" xlink:href="#DejaVuSans-2e"/>
     <use x="836.849609" xlink:href="#DejaVuSans-31"/>
     <use x="900.472656" xlink:href="#DejaVuSans-65"/>
     <use x="961.996094" xlink:href="#DejaVuSans-2d"/>
     <use x="998.080078" xlink:href="#DejaVuSans-30"/>
     <use x="1061.703125" xlink:href="#DejaVuSans-38"/>
    </g>
    <!-- 15 instances -->
    <g transform="translate(58.89048 40.319519)scale(0.102 -0.102)">
     <use xlink:href="#DejaVuSans-31"/>
     <use x="63.623047" xlink:href="#DejaVuSans-35"/>
     <use x="127.246094" xlink:href="#DejaVuSans-20"/>
     <use x="159.033203" xlink:href="#DejaVuSans-69"/>
     <use x="186.816406" xlink:href="#DejaVuSans-6e"/>
     <use x="250.195312" xlink:href="#DejaVuSans-73"/>
     <use x="302.294922" xlink:href="#DejaVuSans-74"/>
     <use x="341.503906" xlink:href="#DejaVuSans-61"/>
     <use x="402.783203" xlink:href="#DejaVuSans-6e"/>
     <use x="466.162109" xlink:href="#DejaVuSans-63"/>
     <use x="521.142578" xlink:href="#DejaVuSans-65"/>
     <use x="582.666016" xlink:href="#DejaVuSans-73"/>
    </g>
   </g>
   <g id="text_17">
    <!-- v0.0.0 -->
    <g style="fill:#808080;" transform="translate(178.96275 289.919965)scale(0.1 -0.1)">
     <use xlink:href="#DejaVuSans-76"/>
     <use x="59.179688" xlink:href="#DejaVuSans-30"/>
     <use x="122.802734" xlink:href="#DejaVuSans-2e"/>
     <use x="154.589844" xlink:href="#DejaVuSans-30"/>
     <use x="218.212891" xlink:href="#DejaVuSans-2e"/>
     <use x="250" xlink:href="#DejaVuSans-30"/>
    </g>
   </g>
  </g>
 </g>
 <defs>
  <clipPath id="p2efa8c38f1">
   <rect height="288.034772" width="277.048" x="56.12" y="6.845228"/>
  </clipPath>
 </defs>
</svg>
