<?xml version="1.0" encoding="utf-8" standalone="no"?>
<!DOCTYPE svg PUBLIC "-//W3C//DTD SVG 1.1//EN"
  "http://www.w3.org/Graphics/SVG/1.1/DTD/svg11.dtd">
<!-- Created with matplotlib (http://matplotlib.org/) -->
<svg height="345pt" version="1.1" viewBox="0 0 460 345" width="460pt" xmlns="http://www.w3.org/2000/svg" xmlns:xlink="http://www.w3.org/1999/xlink">
 <defs>
  <style type="text/css">
*{stroke-linecap:butt;stroke-linejoin:round;}
  </style>
 </defs>
 <g id="figure_1">
  <g id="patch_1">
   <path d="M 0 345.6 
L 460.8 345.6 
L 460.8 0 
L 0 0 
z
" style="fill:#ffffff;"/>
  </g>
  <g id="axes_1">
   <g id="patch_2">
    <path d="M 56.12 294.88 
L 333.168 294.88 
L 333.168 6.845228 
L 56.12 6.845228 
z
" style="fill:#ffffff;"/>
   </g>
   <g id="line2d_1">
    <path d="M 28.455965 294.88 
L 28.455965 273.631075 
L 40.370217 273.631075 
L 40.370217 270.275981 
L 47.339607 270.275981 
L 47.339607 269.157617 
L 56.12 269.157617 
L 56.12 266.920888 
L 61.903497 266.920888 
L 61.903497 265.802523 
L 72.543934 265.802523 
L 72.543934 264.684159 
L 76.11297 264.684159 
L 76.11297 263.565795 
L 79.948502 263.565795 
L 79.948502 262.44743 
L 83.08236 262.44743 
L 83.08236 261.329066 
L 84.458185 261.329066 
L 84.458185 260.210701 
L 94.26507 260.210701 
L 94.26507 259.092337 
L 97.336537 259.092337 
L 97.336537 257.973972 
L 97.950482 257.973972 
L 97.950482 256.855608 
L 98.249422 256.855608 
L 98.249422 255.737243 
L 108.120612 255.737243 
L 108.120612 254.618879 
L 109.250788 254.618879 
L 109.250788 253.500514 
L 110.746395 253.500514 
L 110.746395 252.38215 
L 114.117341 252.38215 
L 114.117341 251.263785 
L 115.798351 251.263785 
L 115.798351 250.145421 
L 116.934349 250.145421 
L 116.934349 249.027056 
L 117.905717 249.027056 
L 117.905717 247.908692 
L 118.735356 247.908692 
L 118.735356 246.790327 
L 119.003236 246.790327 
L 119.003236 245.671963 
L 120.769881 245.671963 
L 120.769881 244.553598 
L 122.803291 244.553598 
L 122.803291 242.316869 
L 125.854083 242.316869 
L 125.854083 241.198505 
L 127.497741 241.198505 
L 127.497741 240.08014 
L 128.341524 240.08014 
L 128.341524 238.961776 
L 129.772681 238.961776 
L 129.772681 237.843411 
L 130.468672 237.843411 
L 130.468672 236.725047 
L 130.649607 236.725047 
L 130.649607 235.606682 
L 131.949115 235.606682 
L 131.949115 234.488318 
L 133.579779 234.488318 
L 133.579779 233.369954 
L 134.788423 233.369954 
L 134.788423 232.251589 
L 135.650622 232.251589 
L 135.650622 231.133225 
L 136.180564 231.133225 
L 136.180564 230.01486 
L 138.381758 230.01486 
L 138.381758 228.896496 
L 138.750809 228.896496 
L 138.750809 227.778131 
L 140.434959 227.778131 
L 140.434959 226.659767 
L 142.428336 226.659767 
L 142.428336 225.541402 
L 144.295937 225.541402 
L 144.295937 224.423038 
L 145.36071 224.423038 
L 145.36071 223.304673 
L 148.497755 223.304673 
L 148.497755 222.186309 
L 150.035789 222.186309 
L 150.035789 221.067944 
L 150.209706 221.067944 
L 150.209706 219.94958 
L 155.129314 219.94958 
L 155.129314 218.831215 
L 157.746429 218.831215 
L 157.746429 217.712851 
L 159.479124 217.712851 
L 159.479124 216.594486 
L 160.009066 216.594486 
L 160.033511 214.357757 
L 161.137241 214.357757 
L 161.137241 213.239393 
L 162.677333 213.239393 
L 162.677333 212.121028 
L 164.019828 212.121028 
L 164.019828 211.002664 
L 165.259017 211.002664 
L 165.259017 209.884299 
L 165.651034 209.884299 
L 165.651034 208.765935 
L 166.515657 208.765935 
L 166.515657 207.64757 
L 167.423824 207.64757 
L 167.423824 206.529206 
L 167.655324 206.529206 
L 167.655324 205.410841 
L 168.109176 205.410841 
L 168.109176 204.292477 
L 169.22741 204.292477 
L 169.22741 203.174112 
L 169.534653 203.174112 
L 169.534653 202.055748 
L 169.932899 202.055748 
L 169.932899 200.937384 
L 170.268342 200.937384 
L 170.268342 199.819019 
L 170.881263 199.819019 
L 170.881263 198.700655 
L 171.122149 198.700655 
L 171.12642 196.463926 
L 171.939617 196.463926 
L 171.939617 195.345561 
L 172.346158 195.345561 
L 172.346158 194.227197 
L 173.108667 194.227197 
L 173.108667 193.108832 
L 173.802272 193.108832 
L 173.802272 191.990468 
L 174.138853 191.990468 
L 174.138853 190.872103 
L 174.66821 190.872103 
L 174.66821 189.753739 
L 175.422905 189.753739 
L 175.422905 188.635374 
L 176.940393 188.635374 
L 176.940393 187.51701 
L 177.094987 187.51701 
L 177.094987 186.398645 
L 178.080144 186.398645 
L 178.080144 185.280281 
L 178.574492 185.280281 
L 178.574492 184.161916 
L 178.965937 184.161916 
L 178.965937 183.043552 
L 180.135042 183.043552 
L 180.135042 181.925187 
L 181.167872 181.925187 
L 181.167872 180.806823 
L 181.317226 180.806823 
L 181.399643 178.570094 
L 181.556319 178.570094 
L 181.556319 177.451729 
L 181.672318 177.451729 
L 181.672318 176.333365 
L 181.897429 176.333365 
L 181.897429 175.215 
L 182.171367 175.215 
L 182.171367 174.096636 
L 182.334548 174.096636 
L 182.334548 172.978271 
L 182.452058 172.978271 
L 182.452058 171.859907 
L 182.610419 171.859907 
L 182.610419 170.741543 
L 182.791182 170.741543 
L 182.791182 169.623178 
L 182.997913 169.623178 
L 183.042806 167.386449 
L 183.113116 167.386449 
L 183.113116 166.268085 
L 183.238109 166.268085 
L 183.347524 162.912991 
L 183.472913 162.912991 
L 183.472913 161.794627 
L 183.6325 161.794627 
L 183.6325 160.676262 
L 183.876256 160.676262 
L 183.876256 159.557898 
L 184.066389 159.557898 
L 184.066389 158.439533 
L 184.31601 158.439533 
L 184.31601 157.321169 
L 184.454231 157.321169 
L 184.454231 156.202804 
L 184.992448 156.202804 
L 184.992448 155.08444 
L 185.174461 155.08444 
L 185.174461 153.966075 
L 185.484713 153.966075 
L 185.54019 151.729346 
L 186.178087 151.729346 
L 186.178087 150.610982 
L 186.323349 150.610982 
L 186.323349 149.492617 
L 187.047024 149.492617 
L 187.151566 146.137524 
L 187.218676 146.137524 
L 187.317188 142.78243 
L 187.40686 142.78243 
L 187.421759 140.545702 
L 187.524053 140.545702 
L 187.540496 138.308973 
L 187.695917 138.308973 
L 187.695917 137.190608 
L 187.887029 137.190608 
L 187.887029 136.072244 
L 188.052129 136.072244 
L 188.052129 134.953879 
L 188.258268 134.953879 
L 188.258268 133.835515 
L 188.405797 133.835515 
L 188.405797 132.71715 
L 188.569107 132.71715 
L 188.675586 130.480421 
L 188.706327 130.480421 
L 188.813488 127.125328 
L 188.963914 127.125328 
L 189.045412 124.888599 
L 189.083013 124.888599 
L 189.18039 122.65187 
L 189.25641 122.65187 
L 189.332095 120.415141 
L 189.38532 120.415141 
L 189.45162 118.178412 
L 189.517665 118.178412 
L 189.628635 114.823318 
L 189.685304 114.823318 
L 189.769236 110.349861 
L 189.842701 110.349861 
L 189.902966 106.994767 
L 189.990121 106.994767 
L 190.089592 103.639674 
L 190.1377 103.639674 
L 190.211017 99.166216 
L 190.264398 99.166216 
L 190.289626 96.929487 
L 190.440221 96.929487 
L 190.440221 95.811122 
L 190.56196 95.811122 
L 190.655444 93.574393 
L 190.744331 93.574393 
L 190.843612 91.337664 
L 190.927486 91.337664 
L 191.016323 89.100935 
L 197.776349 89.100935 
L 197.776349 87.982571 
L 197.903622 87.982571 
L 198.001369 85.745842 
L 198.066523 85.745842 
L 198.132319 83.509113 
L 198.213769 83.509113 
L 198.300109 81.272384 
L 198.377271 81.272384 
L 198.461054 77.917291 
L 198.56175 77.917291 
L 198.659279 74.562197 
L 198.685938 74.562197 
L 198.745984 72.325468 
L 198.810087 72.325468 
L 198.877352 70.088739 
L 198.934193 70.088739 
L 199.038899 66.733646 
L 199.063295 66.733646 
L 199.15301 64.496917 
L 199.228109 64.496917 
L 199.331873 61.141823 
L 199.369901 61.141823 
L 199.4309 58.905094 
L 199.506437 58.905094 
L 199.575932 55.550001 
L 199.64271 55.550001 
L 199.715704 52.194907 
L 199.772265 52.194907 
L 199.813356 49.958178 
L 199.892041 49.958178 
L 199.971962 46.603085 
L 200.038016 46.603085 
L 200.09511 44.366356 
L 227.162769 44.366356 
L 227.162769 43.247992 
L 229.463625 43.247992 
L 229.568976 35.41944 
L 229.575246 35.41944 
L 229.684589 23.117431 
L 229.69025 23.117431 
L 229.799008 11.933786 
L 229.81194 11.933786 
L 229.821772 9.697057 
L 333.168 9.697057 
L 333.168 9.697057 
" style="fill:none;stroke:#f5deb3;stroke-linecap:square;stroke-width:4;"/>
   </g>
   <g id="line2d_2">
    <defs>
     <path d="M -0 7.778175 
L 7.778175 0 
L 0 -7.778175 
L -7.778175 -0 
z
" id="mfb96975515" style="stroke:#f5deb3;stroke-linejoin:miter;stroke-width:1.5;"/>
    </defs>
    <g>
     <use style="fill:#f5deb3;stroke:#f5deb3;stroke-linejoin:miter;stroke-width:1.5;" x="140.434959" xlink:href="#mfb96975515" y="227.778131"/>
     <use style="fill:#f5deb3;stroke:#f5deb3;stroke-linejoin:miter;stroke-width:1.5;" x="189.045412" xlink:href="#mfb96975515" y="124.888599"/>
     <use style="fill:#f5deb3;stroke:#f5deb3;stroke-linejoin:miter;stroke-width:1.5;" x="229.708354" xlink:href="#mfb96975515" y="20.880702"/>
     <use style="fill:#f5deb3;stroke:#f5deb3;stroke-linejoin:miter;stroke-width:1.5;" x="229.821772" xlink:href="#mfb96975515" y="9.697057"/>
     <use style="fill:#f5deb3;stroke:#f5deb3;stroke-linejoin:miter;stroke-width:1.5;" x="229.821772" xlink:href="#mfb96975515" y="9.697057"/>
     <use style="fill:#f5deb3;stroke:#f5deb3;stroke-linejoin:miter;stroke-width:1.5;" x="333.168" xlink:href="#mfb96975515" y="9.697057"/>
    </g>
   </g>
   <g id="line2d_3">
    <path style="fill:none;stroke:#f5deb3;stroke-linecap:square;stroke-width:4;"/>
    <g/>
   </g>
   <g id="line2d_4">
    <path d="M 333.168 9.697057 
L 363.64328 15.400716 
" style="fill:none;stroke:#f5deb3;stroke-linecap:square;stroke-width:4;"/>
    <g>
     <use style="fill:#f5deb3;stroke:#f5deb3;stroke-linejoin:miter;stroke-width:1.5;" x="333.168" xlink:href="#mfb96975515" y="9.697057"/>
     <use style="fill:#f5deb3;stroke:#f5deb3;stroke-linejoin:miter;stroke-width:1.5;" x="363.64328" xlink:href="#mfb96975515" y="15.400716"/>
    </g>
   </g>
   <g id="matplotlib.axis_1">
    <g id="xtick_1">
     <g id="line2d_5">
      <path clip-path="url(#p966bd6a517)" d="M 56.12 294.88 
L 56.12 6.845228 
" style="fill:none;stroke:#b0b0b0;stroke-linecap:square;stroke-width:0.8;"/>
     </g>
     <g id="line2d_6">
      <defs>
       <path d="M 0 0 
L 0 3.5 
" id="mb481d1fe91" style="stroke:#000000;stroke-width:0.8;"/>
      </defs>
      <g>
       <use style="stroke:#000000;stroke-width:0.8;" x="56.12" xlink:href="#mb481d1fe91" y="294.88"/>
      </g>
     </g>
     <g id="text_1">
      <!-- 0 -->
      <defs>
       <path d="M 31.78125 66.40625 
Q 24.171875 66.40625 20.328125 58.90625 
Q 16.5 51.421875 16.5 36.375 
Q 16.5 21.390625 20.328125 13.890625 
Q 24.171875 6.390625 31.78125 6.390625 
Q 39.453125 6.390625 43.28125 13.890625 
Q 47.125 21.390625 47.125 36.375 
Q 47.125 51.421875 43.28125 58.90625 
Q 39.453125 66.40625 31.78125 66.40625 
z
M 31.78125 74.21875 
Q 44.046875 74.21875 50.515625 64.515625 
Q 56.984375 54.828125 56.984375 36.375 
Q 56.984375 17.96875 50.515625 8.265625 
Q 44.046875 -1.421875 31.78125 -1.421875 
Q 19.53125 -1.421875 13.0625 8.265625 
Q 6.59375 17.96875 6.59375 36.375 
Q 6.59375 54.828125 13.0625 64.515625 
Q 19.53125 74.21875 31.78125 74.21875 
z
" id="DejaVuSans-30"/>
      </defs>
      <g transform="translate(49.7575 317.076875)scale(0.2 -0.2)">
       <use xlink:href="#DejaVuSans-30"/>
      </g>
     </g>
    </g>
    <g id="xtick_2">
     <g id="line2d_7">
      <path clip-path="url(#p966bd6a517)" d="M 135.276571 294.88 
L 135.276571 6.845228 
" style="fill:none;stroke:#b0b0b0;stroke-linecap:square;stroke-width:0.8;"/>
     </g>
     <g id="line2d_8">
      <g>
       <use style="stroke:#000000;stroke-width:0.8;" x="135.276571" xlink:href="#mb481d1fe91" y="294.88"/>
      </g>
     </g>
     <g id="text_2">
      <!-- 2 -->
      <defs>
       <path d="M 19.1875 8.296875 
L 53.609375 8.296875 
L 53.609375 0 
L 7.328125 0 
L 7.328125 8.296875 
Q 12.9375 14.109375 22.625 23.890625 
Q 32.328125 33.6875 34.8125 36.53125 
Q 39.546875 41.84375 41.421875 45.53125 
Q 43.3125 49.21875 43.3125 52.78125 
Q 43.3125 58.59375 39.234375 62.25 
Q 35.15625 65.921875 28.609375 65.921875 
Q 23.96875 65.921875 18.8125 64.3125 
Q 13.671875 62.703125 7.8125 59.421875 
L 7.8125 69.390625 
Q 13.765625 71.78125 18.9375 73 
Q 24.125 74.21875 28.421875 74.21875 
Q 39.75 74.21875 46.484375 68.546875 
Q 53.21875 62.890625 53.21875 53.421875 
Q 53.21875 48.921875 51.53125 44.890625 
Q 49.859375 40.875 45.40625 35.40625 
Q 44.1875 33.984375 37.640625 27.21875 
Q 31.109375 20.453125 19.1875 8.296875 
z
" id="DejaVuSans-32"/>
      </defs>
      <g transform="translate(128.914071 317.076875)scale(0.2 -0.2)">
       <use xlink:href="#DejaVuSans-32"/>
      </g>
     </g>
    </g>
    <g id="xtick_3">
     <g id="line2d_9">
      <path clip-path="url(#p966bd6a517)" d="M 214.433143 294.88 
L 214.433143 6.845228 
" style="fill:none;stroke:#b0b0b0;stroke-linecap:square;stroke-width:0.8;"/>
     </g>
     <g id="line2d_10">
      <g>
       <use style="stroke:#000000;stroke-width:0.8;" x="214.433143" xlink:href="#mb481d1fe91" y="294.88"/>
      </g>
     </g>
     <g id="text_3">
      <!-- 4 -->
      <defs>
       <path d="M 37.796875 64.3125 
L 12.890625 25.390625 
L 37.796875 25.390625 
z
M 35.203125 72.90625 
L 47.609375 72.90625 
L 47.609375 25.390625 
L 58.015625 25.390625 
L 58.015625 17.1875 
L 47.609375 17.1875 
L 47.609375 0 
L 37.796875 0 
L 37.796875 17.1875 
L 4.890625 17.1875 
L 4.890625 26.703125 
z
" id="DejaVuSans-34"/>
      </defs>
      <g transform="translate(208.070643 317.076875)scale(0.2 -0.2)">
       <use xlink:href="#DejaVuSans-34"/>
      </g>
     </g>
    </g>
    <g id="xtick_4">
     <g id="line2d_11">
      <path clip-path="url(#p966bd6a517)" d="M 293.589714 294.88 
L 293.589714 6.845228 
" style="fill:none;stroke:#b0b0b0;stroke-linecap:square;stroke-width:0.8;"/>
     </g>
     <g id="line2d_12">
      <g>
       <use style="stroke:#000000;stroke-width:0.8;" x="293.589714" xlink:href="#mb481d1fe91" y="294.88"/>
      </g>
     </g>
     <g id="text_4">
      <!-- 6 -->
      <defs>
       <path d="M 33.015625 40.375 
Q 26.375 40.375 22.484375 35.828125 
Q 18.609375 31.296875 18.609375 23.390625 
Q 18.609375 15.53125 22.484375 10.953125 
Q 26.375 6.390625 33.015625 6.390625 
Q 39.65625 6.390625 43.53125 10.953125 
Q 47.40625 15.53125 47.40625 23.390625 
Q 47.40625 31.296875 43.53125 35.828125 
Q 39.65625 40.375 33.015625 40.375 
z
M 52.59375 71.296875 
L 52.59375 62.3125 
Q 48.875 64.0625 45.09375 64.984375 
Q 41.3125 65.921875 37.59375 65.921875 
Q 27.828125 65.921875 22.671875 59.328125 
Q 17.53125 52.734375 16.796875 39.40625 
Q 19.671875 43.65625 24.015625 45.921875 
Q 28.375 48.1875 33.59375 48.1875 
Q 44.578125 48.1875 50.953125 41.515625 
Q 57.328125 34.859375 57.328125 23.390625 
Q 57.328125 12.15625 50.6875 5.359375 
Q 44.046875 -1.421875 33.015625 -1.421875 
Q 20.359375 -1.421875 13.671875 8.265625 
Q 6.984375 17.96875 6.984375 36.375 
Q 6.984375 53.65625 15.1875 63.9375 
Q 23.390625 74.21875 37.203125 74.21875 
Q 40.921875 74.21875 44.703125 73.484375 
Q 48.484375 72.75 52.59375 71.296875 
z
" id="DejaVuSans-36"/>
      </defs>
      <g transform="translate(287.227214 317.076875)scale(0.2 -0.2)">
       <use xlink:href="#DejaVuSans-36"/>
      </g>
     </g>
    </g>
    <g id="xtick_5">
     <g id="line2d_13">
      <path clip-path="url(#p966bd6a517)" d="M 56.12 294.88 
L 56.12 6.845228 
" style="fill:none;stroke:#b0b0b0;stroke-linecap:square;stroke-width:0.8;"/>
     </g>
     <g id="line2d_14">
      <defs>
       <path d="M 0 0 
L 0 2 
" id="m2fdfe3e03a" style="stroke:#000000;stroke-width:0.6;"/>
      </defs>
      <g>
       <use style="stroke:#000000;stroke-width:0.6;" x="56.12" xlink:href="#m2fdfe3e03a" y="294.88"/>
      </g>
     </g>
    </g>
    <g id="xtick_6">
     <g id="line2d_15">
      <path clip-path="url(#p966bd6a517)" d="M 95.698286 294.88 
L 95.698286 6.845228 
" style="fill:none;stroke:#b0b0b0;stroke-linecap:square;stroke-width:0.8;"/>
     </g>
     <g id="line2d_16">
      <g>
       <use style="stroke:#000000;stroke-width:0.6;" x="95.698286" xlink:href="#m2fdfe3e03a" y="294.88"/>
      </g>
     </g>
    </g>
    <g id="xtick_7">
     <g id="line2d_17">
      <path clip-path="url(#p966bd6a517)" d="M 135.276571 294.88 
L 135.276571 6.845228 
" style="fill:none;stroke:#b0b0b0;stroke-linecap:square;stroke-width:0.8;"/>
     </g>
     <g id="line2d_18">
      <g>
       <use style="stroke:#000000;stroke-width:0.6;" x="135.276571" xlink:href="#m2fdfe3e03a" y="294.88"/>
      </g>
     </g>
    </g>
    <g id="xtick_8">
     <g id="line2d_19">
      <path clip-path="url(#p966bd6a517)" d="M 174.854857 294.88 
L 174.854857 6.845228 
" style="fill:none;stroke:#b0b0b0;stroke-linecap:square;stroke-width:0.8;"/>
     </g>
     <g id="line2d_20">
      <g>
       <use style="stroke:#000000;stroke-width:0.6;" x="174.854857" xlink:href="#m2fdfe3e03a" y="294.88"/>
      </g>
     </g>
    </g>
    <g id="xtick_9">
     <g id="line2d_21">
      <path clip-path="url(#p966bd6a517)" d="M 214.433143 294.88 
L 214.433143 6.845228 
" style="fill:none;stroke:#b0b0b0;stroke-linecap:square;stroke-width:0.8;"/>
     </g>
     <g id="line2d_22">
      <g>
       <use style="stroke:#000000;stroke-width:0.6;" x="214.433143" xlink:href="#m2fdfe3e03a" y="294.88"/>
      </g>
     </g>
    </g>
    <g id="xtick_10">
     <g id="line2d_23">
      <path clip-path="url(#p966bd6a517)" d="M 254.011429 294.88 
L 254.011429 6.845228 
" style="fill:none;stroke:#b0b0b0;stroke-linecap:square;stroke-width:0.8;"/>
     </g>
     <g id="line2d_24">
      <g>
       <use style="stroke:#000000;stroke-width:0.6;" x="254.011429" xlink:href="#m2fdfe3e03a" y="294.88"/>
      </g>
     </g>
    </g>
    <g id="xtick_11">
     <g id="line2d_25">
      <path clip-path="url(#p966bd6a517)" d="M 293.589714 294.88 
L 293.589714 6.845228 
" style="fill:none;stroke:#b0b0b0;stroke-linecap:square;stroke-width:0.8;"/>
     </g>
     <g id="line2d_26">
      <g>
       <use style="stroke:#000000;stroke-width:0.6;" x="293.589714" xlink:href="#m2fdfe3e03a" y="294.88"/>
      </g>
     </g>
    </g>
    <g id="xtick_12">
     <g id="line2d_27">
      <path clip-path="url(#p966bd6a517)" d="M 333.168 294.88 
L 333.168 6.845228 
" style="fill:none;stroke:#b0b0b0;stroke-linecap:square;stroke-width:0.8;"/>
     </g>
     <g id="line2d_28">
      <g>
       <use style="stroke:#000000;stroke-width:0.6;" x="333.168" xlink:href="#m2fdfe3e03a" y="294.88"/>
      </g>
     </g>
    </g>
    <g id="text_5">
     <!-- log10(# f-evals / dimension) -->
     <defs>
      <path d="M 9.421875 75.984375 
L 18.40625 75.984375 
L 18.40625 0 
L 9.421875 0 
z
" id="DejaVuSans-6c"/>
      <path d="M 30.609375 48.390625 
Q 23.390625 48.390625 19.1875 42.75 
Q 14.984375 37.109375 14.984375 27.296875 
Q 14.984375 17.484375 19.15625 11.84375 
Q 23.34375 6.203125 30.609375 6.203125 
Q 37.796875 6.203125 41.984375 11.859375 
Q 46.1875 17.53125 46.1875 27.296875 
Q 46.1875 37.015625 41.984375 42.703125 
Q 37.796875 48.390625 30.609375 48.390625 
z
M 30.609375 56 
Q 42.328125 56 49.015625 48.375 
Q 55.71875 40.765625 55.71875 27.296875 
Q 55.71875 13.875 49.015625 6.21875 
Q 42.328125 -1.421875 30.609375 -1.421875 
Q 18.84375 -1.421875 12.171875 6.21875 
Q 5.515625 13.875 5.515625 27.296875 
Q 5.515625 40.765625 12.171875 48.375 
Q 18.84375 56 30.609375 56 
z
" id="DejaVuSans-6f"/>
      <path d="M 45.40625 27.984375 
Q 45.40625 37.75 41.375 43.109375 
Q 37.359375 48.484375 30.078125 48.484375 
Q 22.859375 48.484375 18.828125 43.109375 
Q 14.796875 37.75 14.796875 27.984375 
Q 14.796875 18.265625 18.828125 12.890625 
Q 22.859375 7.515625 30.078125 7.515625 
Q 37.359375 7.515625 41.375 12.890625 
Q 45.40625 18.265625 45.40625 27.984375 
z
M 54.390625 6.78125 
Q 54.390625 -7.171875 48.1875 -13.984375 
Q 42 -20.796875 29.203125 -20.796875 
Q 24.46875 -20.796875 20.265625 -20.09375 
Q 16.0625 -19.390625 12.109375 -17.921875 
L 12.109375 -9.1875 
Q 16.0625 -11.328125 19.921875 -12.34375 
Q 23.78125 -13.375 27.78125 -13.375 
Q 36.625 -13.375 41.015625 -8.765625 
Q 45.40625 -4.15625 45.40625 5.171875 
L 45.40625 9.625 
Q 42.625 4.78125 38.28125 2.390625 
Q 33.9375 0 27.875 0 
Q 17.828125 0 11.671875 7.65625 
Q 5.515625 15.328125 5.515625 27.984375 
Q 5.515625 40.671875 11.671875 48.328125 
Q 17.828125 56 27.875 56 
Q 33.9375 56 38.28125 53.609375 
Q 42.625 51.21875 45.40625 46.390625 
L 45.40625 54.6875 
L 54.390625 54.6875 
z
" id="DejaVuSans-67"/>
      <path d="M 12.40625 8.296875 
L 28.515625 8.296875 
L 28.515625 63.921875 
L 10.984375 60.40625 
L 10.984375 69.390625 
L 28.421875 72.90625 
L 38.28125 72.90625 
L 38.28125 8.296875 
L 54.390625 8.296875 
L 54.390625 0 
L 12.40625 0 
z
" id="DejaVuSans-31"/>
      <path d="M 31 75.875 
Q 24.46875 64.65625 21.28125 53.65625 
Q 18.109375 42.671875 18.109375 31.390625 
Q 18.109375 20.125 21.3125 9.0625 
Q 24.515625 -2 31 -13.1875 
L 23.1875 -13.1875 
Q 15.875 -1.703125 12.234375 9.375 
Q 8.59375 20.453125 8.59375 31.390625 
Q 8.59375 42.28125 12.203125 53.3125 
Q 15.828125 64.359375 23.1875 75.875 
z
" id="DejaVuSans-28"/>
      <path d="M 51.125 44 
L 36.921875 44 
L 32.8125 27.6875 
L 47.125 27.6875 
z
M 43.796875 71.78125 
L 38.71875 51.515625 
L 52.984375 51.515625 
L 58.109375 71.78125 
L 65.921875 71.78125 
L 60.890625 51.515625 
L 76.125 51.515625 
L 76.125 44 
L 58.984375 44 
L 54.984375 27.6875 
L 70.515625 27.6875 
L 70.515625 20.21875 
L 53.078125 20.21875 
L 48 0 
L 40.1875 0 
L 45.21875 20.21875 
L 30.90625 20.21875 
L 25.875 0 
L 18.015625 0 
L 23.09375 20.21875 
L 7.71875 20.21875 
L 7.71875 27.6875 
L 24.90625 27.6875 
L 29 44 
L 13.28125 44 
L 13.28125 51.515625 
L 30.90625 51.515625 
L 35.890625 71.78125 
z
" id="DejaVuSans-23"/>
      <path id="DejaVuSans-20"/>
      <path d="M 37.109375 75.984375 
L 37.109375 68.5 
L 28.515625 68.5 
Q 23.6875 68.5 21.796875 66.546875 
Q 19.921875 64.59375 19.921875 59.515625 
L 19.921875 54.6875 
L 34.71875 54.6875 
L 34.71875 47.703125 
L 19.921875 47.703125 
L 19.921875 0 
L 10.890625 0 
L 10.890625 47.703125 
L 2.296875 47.703125 
L 2.296875 54.6875 
L 10.890625 54.6875 
L 10.890625 58.5 
Q 10.890625 67.625 15.140625 71.796875 
Q 19.390625 75.984375 28.609375 75.984375 
z
" id="DejaVuSans-66"/>
      <path d="M 4.890625 31.390625 
L 31.203125 31.390625 
L 31.203125 23.390625 
L 4.890625 23.390625 
z
" id="DejaVuSans-2d"/>
      <path d="M 56.203125 29.59375 
L 56.203125 25.203125 
L 14.890625 25.203125 
Q 15.484375 15.921875 20.484375 11.0625 
Q 25.484375 6.203125 34.421875 6.203125 
Q 39.59375 6.203125 44.453125 7.46875 
Q 49.3125 8.734375 54.109375 11.28125 
L 54.109375 2.78125 
Q 49.265625 0.734375 44.1875 -0.34375 
Q 39.109375 -1.421875 33.890625 -1.421875 
Q 20.796875 -1.421875 13.15625 6.1875 
Q 5.515625 13.8125 5.515625 26.8125 
Q 5.515625 40.234375 12.765625 48.109375 
Q 20.015625 56 32.328125 56 
Q 43.359375 56 49.78125 48.890625 
Q 56.203125 41.796875 56.203125 29.59375 
z
M 47.21875 32.234375 
Q 47.125 39.59375 43.09375 43.984375 
Q 39.0625 48.390625 32.421875 48.390625 
Q 24.90625 48.390625 20.390625 44.140625 
Q 15.875 39.890625 15.1875 32.171875 
z
" id="DejaVuSans-65"/>
      <path d="M 2.984375 54.6875 
L 12.5 54.6875 
L 29.59375 8.796875 
L 46.6875 54.6875 
L 56.203125 54.6875 
L 35.6875 0 
L 23.484375 0 
z
" id="DejaVuSans-76"/>
      <path d="M 34.28125 27.484375 
Q 23.390625 27.484375 19.1875 25 
Q 14.984375 22.515625 14.984375 16.5 
Q 14.984375 11.71875 18.140625 8.90625 
Q 21.296875 6.109375 26.703125 6.109375 
Q 34.1875 6.109375 38.703125 11.40625 
Q 43.21875 16.703125 43.21875 25.484375 
L 43.21875 27.484375 
z
M 52.203125 31.203125 
L 52.203125 0 
L 43.21875 0 
L 43.21875 8.296875 
Q 40.140625 3.328125 35.546875 0.953125 
Q 30.953125 -1.421875 24.3125 -1.421875 
Q 15.921875 -1.421875 10.953125 3.296875 
Q 6 8.015625 6 15.921875 
Q 6 25.140625 12.171875 29.828125 
Q 18.359375 34.515625 30.609375 34.515625 
L 43.21875 34.515625 
L 43.21875 35.40625 
Q 43.21875 41.609375 39.140625 45 
Q 35.0625 48.390625 27.6875 48.390625 
Q 23 48.390625 18.546875 47.265625 
Q 14.109375 46.140625 10.015625 43.890625 
L 10.015625 52.203125 
Q 14.9375 54.109375 19.578125 55.046875 
Q 24.21875 56 28.609375 56 
Q 40.484375 56 46.34375 49.84375 
Q 52.203125 43.703125 52.203125 31.203125 
z
" id="DejaVuSans-61"/>
      <path d="M 44.28125 53.078125 
L 44.28125 44.578125 
Q 40.484375 46.53125 36.375 47.5 
Q 32.28125 48.484375 27.875 48.484375 
Q 21.1875 48.484375 17.84375 46.4375 
Q 14.5 44.390625 14.5 40.28125 
Q 14.5 37.15625 16.890625 35.375 
Q 19.28125 33.59375 26.515625 31.984375 
L 29.59375 31.296875 
Q 39.15625 29.25 43.1875 25.515625 
Q 47.21875 21.78125 47.21875 15.09375 
Q 47.21875 7.46875 41.1875 3.015625 
Q 35.15625 -1.421875 24.609375 -1.421875 
Q 20.21875 -1.421875 15.453125 -0.5625 
Q 10.6875 0.296875 5.421875 2 
L 5.421875 11.28125 
Q 10.40625 8.6875 15.234375 7.390625 
Q 20.0625 6.109375 24.8125 6.109375 
Q 31.15625 6.109375 34.5625 8.28125 
Q 37.984375 10.453125 37.984375 14.40625 
Q 37.984375 18.0625 35.515625 20.015625 
Q 33.0625 21.96875 24.703125 23.78125 
L 21.578125 24.515625 
Q 13.234375 26.265625 9.515625 29.90625 
Q 5.8125 33.546875 5.8125 39.890625 
Q 5.8125 47.609375 11.28125 51.796875 
Q 16.75 56 26.8125 56 
Q 31.78125 56 36.171875 55.265625 
Q 40.578125 54.546875 44.28125 53.078125 
z
" id="DejaVuSans-73"/>
      <path d="M 25.390625 72.90625 
L 33.6875 72.90625 
L 8.296875 -9.28125 
L 0 -9.28125 
z
" id="DejaVuSans-2f"/>
      <path d="M 45.40625 46.390625 
L 45.40625 75.984375 
L 54.390625 75.984375 
L 54.390625 0 
L 45.40625 0 
L 45.40625 8.203125 
Q 42.578125 3.328125 38.25 0.953125 
Q 33.9375 -1.421875 27.875 -1.421875 
Q 17.96875 -1.421875 11.734375 6.484375 
Q 5.515625 14.40625 5.515625 27.296875 
Q 5.515625 40.1875 11.734375 48.09375 
Q 17.96875 56 27.875 56 
Q 33.9375 56 38.25 53.625 
Q 42.578125 51.265625 45.40625 46.390625 
z
M 14.796875 27.296875 
Q 14.796875 17.390625 18.875 11.75 
Q 22.953125 6.109375 30.078125 6.109375 
Q 37.203125 6.109375 41.296875 11.75 
Q 45.40625 17.390625 45.40625 27.296875 
Q 45.40625 37.203125 41.296875 42.84375 
Q 37.203125 48.484375 30.078125 48.484375 
Q 22.953125 48.484375 18.875 42.84375 
Q 14.796875 37.203125 14.796875 27.296875 
z
" id="DejaVuSans-64"/>
      <path d="M 9.421875 54.6875 
L 18.40625 54.6875 
L 18.40625 0 
L 9.421875 0 
z
M 9.421875 75.984375 
L 18.40625 75.984375 
L 18.40625 64.59375 
L 9.421875 64.59375 
z
" id="DejaVuSans-69"/>
      <path d="M 52 44.1875 
Q 55.375 50.25 60.0625 53.125 
Q 64.75 56 71.09375 56 
Q 79.640625 56 84.28125 50.015625 
Q 88.921875 44.046875 88.921875 33.015625 
L 88.921875 0 
L 79.890625 0 
L 79.890625 32.71875 
Q 79.890625 40.578125 77.09375 44.375 
Q 74.3125 48.1875 68.609375 48.1875 
Q 61.625 48.1875 57.5625 43.546875 
Q 53.515625 38.921875 53.515625 30.90625 
L 53.515625 0 
L 44.484375 0 
L 44.484375 32.71875 
Q 44.484375 40.625 41.703125 44.40625 
Q 38.921875 48.1875 33.109375 48.1875 
Q 26.21875 48.1875 22.15625 43.53125 
Q 18.109375 38.875 18.109375 30.90625 
L 18.109375 0 
L 9.078125 0 
L 9.078125 54.6875 
L 18.109375 54.6875 
L 18.109375 46.1875 
Q 21.1875 51.21875 25.484375 53.609375 
Q 29.78125 56 35.6875 56 
Q 41.65625 56 45.828125 52.96875 
Q 50 49.953125 52 44.1875 
z
" id="DejaVuSans-6d"/>
      <path d="M 54.890625 33.015625 
L 54.890625 0 
L 45.90625 0 
L 45.90625 32.71875 
Q 45.90625 40.484375 42.875 44.328125 
Q 39.84375 48.1875 33.796875 48.1875 
Q 26.515625 48.1875 22.3125 43.546875 
Q 18.109375 38.921875 18.109375 30.90625 
L 18.109375 0 
L 9.078125 0 
L 9.078125 54.6875 
L 18.109375 54.6875 
L 18.109375 46.1875 
Q 21.34375 51.125 25.703125 53.5625 
Q 30.078125 56 35.796875 56 
Q 45.21875 56 50.046875 50.171875 
Q 54.890625 44.34375 54.890625 33.015625 
z
" id="DejaVuSans-6e"/>
      <path d="M 8.015625 75.875 
L 15.828125 75.875 
Q 23.140625 64.359375 26.78125 53.3125 
Q 30.421875 42.28125 30.421875 31.390625 
Q 30.421875 20.453125 26.78125 9.375 
Q 23.140625 -1.703125 15.828125 -13.1875 
L 8.015625 -13.1875 
Q 14.5 -2 17.703125 9.0625 
Q 20.90625 20.125 20.90625 31.390625 
Q 20.90625 42.671875 17.703125 53.65625 
Q 14.5 64.65625 8.015625 75.875 
z
" id="DejaVuSans-29"/>
     </defs>
     <g transform="translate(73.803219 338.153594)scale(0.17 -0.17)">
      <use xlink:href="#DejaVuSans-6c"/>
      <use x="27.783203" xlink:href="#DejaVuSans-6f"/>
      <use x="88.964844" xlink:href="#DejaVuSans-67"/>
      <use x="152.441406" xlink:href="#DejaVuSans-31"/>
      <use x="216.064453" xlink:href="#DejaVuSans-30"/>
      <use x="279.6875" xlink:href="#DejaVuSans-28"/>
      <use x="318.701172" xlink:href="#DejaVuSans-23"/>
      <use x="402.490234" xlink:href="#DejaVuSans-20"/>
      <use x="434.277344" xlink:href="#DejaVuSans-66"/>
      <use x="469.404297" xlink:href="#DejaVuSans-2d"/>
      <use x="505.488281" xlink:href="#DejaVuSans-65"/>
      <use x="567.011719" xlink:href="#DejaVuSans-76"/>
      <use x="626.191406" xlink:href="#DejaVuSans-61"/>
      <use x="687.470703" xlink:href="#DejaVuSans-6c"/>
      <use x="715.253906" xlink:href="#DejaVuSans-73"/>
      <use x="767.353516" xlink:href="#DejaVuSans-20"/>
      <use x="799.140625" xlink:href="#DejaVuSans-2f"/>
      <use x="832.832031" xlink:href="#DejaVuSans-20"/>
      <use x="864.619141" xlink:href="#DejaVuSans-64"/>
      <use x="928.095703" xlink:href="#DejaVuSans-69"/>
      <use x="955.878906" xlink:href="#DejaVuSans-6d"/>
      <use x="1053.291016" xlink:href="#DejaVuSans-65"/>
      <use x="1114.814453" xlink:href="#DejaVuSans-6e"/>
      <use x="1178.193359" xlink:href="#DejaVuSans-73"/>
      <use x="1230.292969" xlink:href="#DejaVuSans-69"/>
      <use x="1258.076172" xlink:href="#DejaVuSans-6f"/>
      <use x="1319.257812" xlink:href="#DejaVuSans-6e"/>
      <use x="1382.636719" xlink:href="#DejaVuSans-29"/>
     </g>
    </g>
   </g>
   <g id="matplotlib.axis_2">
    <g id="ytick_1">
     <g id="line2d_29">
      <path clip-path="url(#p966bd6a517)" d="M 56.12 294.88 
L 333.168 294.88 
" style="fill:none;stroke:#b0b0b0;stroke-linecap:square;stroke-width:0.8;"/>
     </g>
     <g id="line2d_30">
      <defs>
       <path d="M 0 0 
L -3.5 0 
" id="m36a7b2b25e" style="stroke:#000000;stroke-width:0.8;"/>
      </defs>
      <g>
       <use style="stroke:#000000;stroke-width:0.8;" x="56.12" xlink:href="#m36a7b2b25e" y="294.88"/>
      </g>
     </g>
     <g id="text_6">
      <!-- 0.0 -->
      <defs>
       <path d="M 10.6875 12.40625 
L 21 12.40625 
L 21 0 
L 10.6875 0 
z
" id="DejaVuSans-2e"/>
      </defs>
      <g transform="translate(23.675 300.95875)scale(0.16 -0.16)">
       <use xlink:href="#DejaVuSans-30"/>
       <use x="63.623047" xlink:href="#DejaVuSans-2e"/>
       <use x="95.410156" xlink:href="#DejaVuSans-30"/>
      </g>
     </g>
    </g>
    <g id="ytick_2">
     <g id="line2d_31">
      <path clip-path="url(#p966bd6a517)" d="M 56.12 237.843411 
L 333.168 237.843411 
" style="fill:none;stroke:#b0b0b0;stroke-linecap:square;stroke-width:0.8;"/>
     </g>
     <g id="line2d_32">
      <g>
       <use style="stroke:#000000;stroke-width:0.8;" x="56.12" xlink:href="#m36a7b2b25e" y="237.843411"/>
      </g>
     </g>
     <g id="text_7">
      <!-- 0.2 -->
      <g transform="translate(23.675 243.922161)scale(0.16 -0.16)">
       <use xlink:href="#DejaVuSans-30"/>
       <use x="63.623047" xlink:href="#DejaVuSans-2e"/>
       <use x="95.410156" xlink:href="#DejaVuSans-32"/>
      </g>
     </g>
    </g>
    <g id="ytick_3">
     <g id="line2d_33">
      <path clip-path="url(#p966bd6a517)" d="M 56.12 180.806823 
L 333.168 180.806823 
" style="fill:none;stroke:#b0b0b0;stroke-linecap:square;stroke-width:0.8;"/>
     </g>
     <g id="line2d_34">
      <g>
       <use style="stroke:#000000;stroke-width:0.8;" x="56.12" xlink:href="#m36a7b2b25e" y="180.806823"/>
      </g>
     </g>
     <g id="text_8">
      <!-- 0.4 -->
      <g transform="translate(23.675 186.885573)scale(0.16 -0.16)">
       <use xlink:href="#DejaVuSans-30"/>
       <use x="63.623047" xlink:href="#DejaVuSans-2e"/>
       <use x="95.410156" xlink:href="#DejaVuSans-34"/>
      </g>
     </g>
    </g>
    <g id="ytick_4">
     <g id="line2d_35">
      <path clip-path="url(#p966bd6a517)" d="M 56.12 123.770234 
L 333.168 123.770234 
" style="fill:none;stroke:#b0b0b0;stroke-linecap:square;stroke-width:0.8;"/>
     </g>
     <g id="line2d_36">
      <g>
       <use style="stroke:#000000;stroke-width:0.8;" x="56.12" xlink:href="#m36a7b2b25e" y="123.770234"/>
      </g>
     </g>
     <g id="text_9">
      <!-- 0.6 -->
      <g transform="translate(23.675 129.848984)scale(0.16 -0.16)">
       <use xlink:href="#DejaVuSans-30"/>
       <use x="63.623047" xlink:href="#DejaVuSans-2e"/>
       <use x="95.410156" xlink:href="#DejaVuSans-36"/>
      </g>
     </g>
    </g>
    <g id="ytick_5">
     <g id="line2d_37">
      <path clip-path="url(#p966bd6a517)" d="M 56.12 66.733646 
L 333.168 66.733646 
" style="fill:none;stroke:#b0b0b0;stroke-linecap:square;stroke-width:0.8;"/>
     </g>
     <g id="line2d_38">
      <g>
       <use style="stroke:#000000;stroke-width:0.8;" x="56.12" xlink:href="#m36a7b2b25e" y="66.733646"/>
      </g>
     </g>
     <g id="text_10">
      <!-- 0.8 -->
      <defs>
       <path d="M 31.78125 34.625 
Q 24.75 34.625 20.71875 30.859375 
Q 16.703125 27.09375 16.703125 20.515625 
Q 16.703125 13.921875 20.71875 10.15625 
Q 24.75 6.390625 31.78125 6.390625 
Q 38.8125 6.390625 42.859375 10.171875 
Q 46.921875 13.96875 46.921875 20.515625 
Q 46.921875 27.09375 42.890625 30.859375 
Q 38.875 34.625 31.78125 34.625 
z
M 21.921875 38.8125 
Q 15.578125 40.375 12.03125 44.71875 
Q 8.5 49.078125 8.5 55.328125 
Q 8.5 64.0625 14.71875 69.140625 
Q 20.953125 74.21875 31.78125 74.21875 
Q 42.671875 74.21875 48.875 69.140625 
Q 55.078125 64.0625 55.078125 55.328125 
Q 55.078125 49.078125 51.53125 44.71875 
Q 48 40.375 41.703125 38.8125 
Q 48.828125 37.15625 52.796875 32.3125 
Q 56.78125 27.484375 56.78125 20.515625 
Q 56.78125 9.90625 50.3125 4.234375 
Q 43.84375 -1.421875 31.78125 -1.421875 
Q 19.734375 -1.421875 13.25 4.234375 
Q 6.78125 9.90625 6.78125 20.515625 
Q 6.78125 27.484375 10.78125 32.3125 
Q 14.796875 37.15625 21.921875 38.8125 
z
M 18.3125 54.390625 
Q 18.3125 48.734375 21.84375 45.5625 
Q 25.390625 42.390625 31.78125 42.390625 
Q 38.140625 42.390625 41.71875 45.5625 
Q 45.3125 48.734375 45.3125 54.390625 
Q 45.3125 60.0625 41.71875 63.234375 
Q 38.140625 66.40625 31.78125 66.40625 
Q 25.390625 66.40625 21.84375 63.234375 
Q 18.3125 60.0625 18.3125 54.390625 
z
" id="DejaVuSans-38"/>
      </defs>
      <g transform="translate(23.675 72.812396)scale(0.16 -0.16)">
       <use xlink:href="#DejaVuSans-30"/>
       <use x="63.623047" xlink:href="#DejaVuSans-2e"/>
       <use x="95.410156" xlink:href="#DejaVuSans-38"/>
      </g>
     </g>
    </g>
    <g id="ytick_6">
     <g id="line2d_39">
      <path clip-path="url(#p966bd6a517)" d="M 56.12 9.697057 
L 333.168 9.697057 
" style="fill:none;stroke:#b0b0b0;stroke-linecap:square;stroke-width:0.8;"/>
     </g>
     <g id="line2d_40">
      <g>
       <use style="stroke:#000000;stroke-width:0.8;" x="56.12" xlink:href="#m36a7b2b25e" y="9.697057"/>
      </g>
     </g>
     <g id="text_11">
      <!-- 1.0 -->
      <g transform="translate(23.675 15.775807)scale(0.16 -0.16)">
       <use xlink:href="#DejaVuSans-31"/>
       <use x="63.623047" xlink:href="#DejaVuSans-2e"/>
       <use x="95.410156" xlink:href="#DejaVuSans-30"/>
      </g>
     </g>
    </g>
    <g id="text_12">
     <!-- Fraction of function,target pairs -->
     <defs>
      <path d="M 9.8125 72.90625 
L 51.703125 72.90625 
L 51.703125 64.59375 
L 19.671875 64.59375 
L 19.671875 43.109375 
L 48.578125 43.109375 
L 48.578125 34.8125 
L 19.671875 34.8125 
L 19.671875 0 
L 9.8125 0 
z
" id="DejaVuSans-46"/>
      <path d="M 41.109375 46.296875 
Q 39.59375 47.171875 37.8125 47.578125 
Q 36.03125 48 33.890625 48 
Q 26.265625 48 22.1875 43.046875 
Q 18.109375 38.09375 18.109375 28.8125 
L 18.109375 0 
L 9.078125 0 
L 9.078125 54.6875 
L 18.109375 54.6875 
L 18.109375 46.1875 
Q 20.953125 51.171875 25.484375 53.578125 
Q 30.03125 56 36.53125 56 
Q 37.453125 56 38.578125 55.875 
Q 39.703125 55.765625 41.0625 55.515625 
z
" id="DejaVuSans-72"/>
      <path d="M 48.78125 52.59375 
L 48.78125 44.1875 
Q 44.96875 46.296875 41.140625 47.34375 
Q 37.3125 48.390625 33.40625 48.390625 
Q 24.65625 48.390625 19.8125 42.84375 
Q 14.984375 37.3125 14.984375 27.296875 
Q 14.984375 17.28125 19.8125 11.734375 
Q 24.65625 6.203125 33.40625 6.203125 
Q 37.3125 6.203125 41.140625 7.25 
Q 44.96875 8.296875 48.78125 10.40625 
L 48.78125 2.09375 
Q 45.015625 0.34375 40.984375 -0.53125 
Q 36.96875 -1.421875 32.421875 -1.421875 
Q 20.0625 -1.421875 12.78125 6.34375 
Q 5.515625 14.109375 5.515625 27.296875 
Q 5.515625 40.671875 12.859375 48.328125 
Q 20.21875 56 33.015625 56 
Q 37.15625 56 41.109375 55.140625 
Q 45.0625 54.296875 48.78125 52.59375 
z
" id="DejaVuSans-63"/>
      <path d="M 18.3125 70.21875 
L 18.3125 54.6875 
L 36.8125 54.6875 
L 36.8125 47.703125 
L 18.3125 47.703125 
L 18.3125 18.015625 
Q 18.3125 11.328125 20.140625 9.421875 
Q 21.96875 7.515625 27.59375 7.515625 
L 36.8125 7.515625 
L 36.8125 0 
L 27.59375 0 
Q 17.1875 0 13.234375 3.875 
Q 9.28125 7.765625 9.28125 18.015625 
L 9.28125 47.703125 
L 2.6875 47.703125 
L 2.6875 54.6875 
L 9.28125 54.6875 
L 9.28125 70.21875 
z
" id="DejaVuSans-74"/>
      <path d="M 8.5 21.578125 
L 8.5 54.6875 
L 17.484375 54.6875 
L 17.484375 21.921875 
Q 17.484375 14.15625 20.5 10.265625 
Q 23.53125 6.390625 29.59375 6.390625 
Q 36.859375 6.390625 41.078125 11.03125 
Q 45.3125 15.671875 45.3125 23.6875 
L 45.3125 54.6875 
L 54.296875 54.6875 
L 54.296875 0 
L 45.3125 0 
L 45.3125 8.40625 
Q 42.046875 3.421875 37.71875 1 
Q 33.40625 -1.421875 27.6875 -1.421875 
Q 18.265625 -1.421875 13.375 4.4375 
Q 8.5 10.296875 8.5 21.578125 
z
M 31.109375 56 
z
" id="DejaVuSans-75"/>
      <path d="M 11.71875 12.40625 
L 22.015625 12.40625 
L 22.015625 4 
L 14.015625 -11.625 
L 7.71875 -11.625 
L 11.71875 4 
z
" id="DejaVuSans-2c"/>
      <path d="M 18.109375 8.203125 
L 18.109375 -20.796875 
L 9.078125 -20.796875 
L 9.078125 54.6875 
L 18.109375 54.6875 
L 18.109375 46.390625 
Q 20.953125 51.265625 25.265625 53.625 
Q 29.59375 56 35.59375 56 
Q 45.5625 56 51.78125 48.09375 
Q 58.015625 40.1875 58.015625 27.296875 
Q 58.015625 14.40625 51.78125 6.484375 
Q 45.5625 -1.421875 35.59375 -1.421875 
Q 29.59375 -1.421875 25.265625 0.953125 
Q 20.953125 3.328125 18.109375 8.203125 
z
M 48.6875 27.296875 
Q 48.6875 37.203125 44.609375 42.84375 
Q 40.53125 48.484375 33.40625 48.484375 
Q 26.265625 48.484375 22.1875 42.84375 
Q 18.109375 37.203125 18.109375 27.296875 
Q 18.109375 17.390625 22.1875 11.75 
Q 26.265625 6.109375 33.40625 6.109375 
Q 40.53125 6.109375 44.609375 11.75 
Q 48.6875 17.390625 48.6875 27.296875 
z
" id="DejaVuSans-70"/>
     </defs>
     <g transform="translate(16.139531 286.001989)rotate(-90)scale(0.17 -0.17)">
      <use xlink:href="#DejaVuSans-46"/>
      <use x="57.410156" xlink:href="#DejaVuSans-72"/>
      <use x="98.523438" xlink:href="#DejaVuSans-61"/>
      <use x="159.802734" xlink:href="#DejaVuSans-63"/>
      <use x="214.783203" xlink:href="#DejaVuSans-74"/>
      <use x="253.992188" xlink:href="#DejaVuSans-69"/>
      <use x="281.775391" xlink:href="#DejaVuSans-6f"/>
      <use x="342.957031" xlink:href="#DejaVuSans-6e"/>
      <use x="406.335938" xlink:href="#DejaVuSans-20"/>
      <use x="438.123047" xlink:href="#DejaVuSans-6f"/>
      <use x="499.304688" xlink:href="#DejaVuSans-66"/>
      <use x="534.509766" xlink:href="#DejaVuSans-20"/>
      <use x="566.296875" xlink:href="#DejaVuSans-66"/>
      <use x="601.501953" xlink:href="#DejaVuSans-75"/>
      <use x="664.880859" xlink:href="#DejaVuSans-6e"/>
      <use x="728.259766" xlink:href="#DejaVuSans-63"/>
      <use x="783.240234" xlink:href="#DejaVuSans-74"/>
      <use x="822.449219" xlink:href="#DejaVuSans-69"/>
      <use x="850.232422" xlink:href="#DejaVuSans-6f"/>
      <use x="911.414062" xlink:href="#DejaVuSans-6e"/>
      <use x="974.792969" xlink:href="#DejaVuSans-2c"/>
      <use x="1006.580078" xlink:href="#DejaVuSans-74"/>
      <use x="1045.789062" xlink:href="#DejaVuSans-61"/>
      <use x="1107.068359" xlink:href="#DejaVuSans-72"/>
      <use x="1148.166016" xlink:href="#DejaVuSans-67"/>
      <use x="1211.642578" xlink:href="#DejaVuSans-65"/>
      <use x="1273.166016" xlink:href="#DejaVuSans-74"/>
      <use x="1312.375" xlink:href="#DejaVuSans-20"/>
      <use x="1344.162109" xlink:href="#DejaVuSans-70"/>
      <use x="1407.638672" xlink:href="#DejaVuSans-61"/>
      <use x="1468.917969" xlink:href="#DejaVuSans-69"/>
      <use x="1496.701172" xlink:href="#DejaVuSans-72"/>
      <use x="1537.814453" xlink:href="#DejaVuSans-73"/>
     </g>
    </g>
   </g>
   <g id="line2d_41">
    <defs>
     <path d="M 0 1.5 
C 0.397805 1.5 0.77937 1.341951 1.06066 1.06066 
C 1.341951 0.77937 1.5 0.397805 1.5 0 
C 1.5 -0.397805 1.341951 -0.77937 1.06066 -1.06066 
C 0.77937 -1.341951 0.397805 -1.5 0 -1.5 
C -0.397805 -1.5 -0.77937 -1.341951 -1.06066 -1.06066 
C -1.341951 -0.77937 -1.5 -0.397805 -1.5 0 
C -1.5 0.397805 -1.341951 0.77937 -1.06066 1.06066 
C -0.77937 1.341951 -0.397805 1.5 0 1.5 
z
" id="m422bab4887" style="stroke:#f5deb3;"/>
    </defs>
    <g>
     <use style="fill:#f5deb3;stroke:#f5deb3;" x="229.821772" xlink:href="#m422bab4887" y="9.697057"/>
     <use style="fill:#f5deb3;stroke:#f5deb3;" x="229.821772" xlink:href="#m422bab4887" y="9.697057"/>
    </g>
   </g>
   <g id="line2d_42">
    <defs>
     <path d="M 0 1.5 
C 0.397805 1.5 0.77937 1.341951 1.06066 1.06066 
C 1.341951 0.77937 1.5 0.397805 1.5 0 
C 1.5 -0.397805 1.341951 -0.77937 1.06066 -1.06066 
C 0.77937 -1.341951 0.397805 -1.5 0 -1.5 
C -0.397805 -1.5 -0.77937 -1.341951 -1.06066 -1.06066 
C -1.341951 -0.77937 -1.5 -0.397805 -1.5 0 
C -1.5 0.397805 -1.341951 0.77937 -1.06066 1.06066 
C -0.77937 1.341951 -0.397805 1.5 0 1.5 
z
" id="m569f7c3184" style="stroke:#000080;"/>
    </defs>
    <g>
     <use style="fill:#000080;stroke:#000080;" x="214.728639" xlink:href="#m569f7c3184" y="251.263785"/>
     <use style="fill:#000080;stroke:#000080;" x="214.728639" xlink:href="#m569f7c3184" y="251.263785"/>
    </g>
   </g>
   <g id="line2d_43">
    <path d="M 28.455965 294.88 
L 28.455965 272.51271 
L 40.370217 272.51271 
L 40.370217 272.400874 
L 64.198719 272.400874 
L 64.198719 272.289037 
L 79.948502 272.289037 
L 79.948502 272.177201 
L 80.787138 272.177201 
L 80.787138 272.065365 
L 82.350819 272.065365 
L 82.350819 271.953528 
L 83.08236 271.953528 
L 83.08236 271.841692 
L 84.458185 271.841692 
L 84.458185 271.729855 
L 86.335171 271.729855 
L 86.335171 271.618019 
L 87.481505 271.618019 
L 87.481505 271.394346 
L 88.027221 271.394346 
L 88.027221 271.282509 
L 89.069276 271.282509 
L 89.069276 271.170673 
L 90.05175 271.170673 
L 90.05175 270.835164 
L 90.522701 270.835164 
L 90.522701 270.723327 
L 90.981092 270.723327 
L 90.981092 270.611491 
L 91.427575 270.611491 
L 91.427575 270.387818 
L 92.70139 270.387818 
L 92.70139 270.275981 
L 93.105847 270.275981 
L 93.105847 269.940472 
L 93.501005 269.940472 
L 93.501005 269.716799 
L 94.26507 269.716799 
L 94.26507 269.38129 
L 94.634732 269.38129 
L 94.634732 269.157617 
L 94.996612 269.157617 
L 94.996612 269.04578 
L 95.351029 269.04578 
L 95.351029 268.710271 
L 95.698286 268.710271 
L 95.698286 268.262925 
L 96.038666 268.262925 
L 96.038666 268.039252 
L 96.372436 268.039252 
L 96.372436 267.591907 
L 96.699848 267.591907 
L 96.699848 267.48007 
L 97.021141 267.48007 
L 97.021141 267.144561 
L 97.336537 267.144561 
L 97.336537 267.032724 
L 97.646251 267.032724 
L 97.646251 266.920888 
L 97.950482 266.920888 
L 97.950482 266.809052 
L 98.249422 266.809052 
L 98.249422 266.585379 
L 98.543252 266.585379 
L 98.543252 266.473542 
L 99.11626 266.473542 
L 99.11626 266.138033 
L 99.395756 266.138033 
L 99.395756 266.026196 
L 99.941473 266.026196 
L 99.941473 265.578851 
L 100.470395 265.578851 
L 100.470395 265.355178 
L 100.728876 265.355178 
L 100.728876 265.243341 
L 101.966002 265.243341 
L 101.966002 265.131505 
L 102.436953 265.131505 
L 102.436953 265.019668 
L 102.895343 265.019668 
L 102.895343 264.907832 
L 103.990531 264.907832 
L 103.990531 264.684159 
L 104.615641 264.684159 
L 104.615641 264.572323 
L 105.020098 264.572323 
L 105.020098 264.460486 
L 105.415256 264.460486 
L 105.415256 264.34865 
L 107.088985 264.34865 
L 107.088985 264.236813 
L 107.783569 264.236813 
L 107.783569 264.124977 
L 108.120612 264.124977 
L 108.120612 264.01314 
L 108.935392 264.01314 
L 108.935392 263.789467 
L 109.406343 263.789467 
L 109.406343 263.677631 
L 109.713291 263.677631 
L 109.713291 263.453958 
L 110.311216 263.453958 
L 110.311216 263.342122 
L 110.457504 263.342122 
L 110.457504 263.230285 
L 110.602556 263.230285 
L 110.602556 263.118449 
L 111.585031 263.118449 
L 111.585031 263.006612 
L 112.122219 263.006612 
L 112.122219 262.894776 
L 112.253934 262.894776 
L 112.253934 262.671103 
L 113.272818 262.671103 
L 113.272818 262.559266 
L 113.518374 262.559266 
L 113.518374 262.44743 
L 114.581927 262.44743 
L 114.581927 262.335594 
L 115.691256 262.335594 
L 115.798351 262.111921 
L 117.426894 262.111921 
L 117.426894 262.000084 
L 118.371562 262.000084 
L 118.371562 261.888248 
L 119.267005 261.888248 
L 119.267005 261.776411 
L 121.086731 261.776411 
L 121.086731 261.664575 
L 121.242993 261.664575 
L 121.242993 261.552738 
L 122.874172 261.552738 
L 122.874172 261.440902 
L 124.298898 261.440902 
L 124.298898 261.329066 
L 124.685175 261.329066 
L 124.748719 261.105393 
L 124.937954 261.105393 
L 124.937954 260.993556 
L 125.310285 260.993556 
L 125.310285 260.88172 
L 126.090357 260.88172 
L 126.090357 260.769883 
L 127.334814 260.769883 
L 127.334814 260.658047 
L 128.748375 260.658047 
L 128.798561 260.434374 
L 130.193648 260.434374 
L 130.193648 260.322538 
L 130.828657 260.322538 
L 130.828657 260.210701 
L 131.137575 260.210701 
L 131.137575 260.098865 
L 131.949115 260.098865 
L 131.949115 259.987028 
L 132.073821 259.987028 
L 132.073821 259.875192 
L 132.279675 259.875192 
L 132.279675 259.763355 
L 132.52349 259.763355 
L 132.52349 259.651519 
L 133.196088 259.651519 
L 133.196088 259.539682 
L 133.389004 259.539682 
L 133.389004 259.427846 
L 134.681992 259.427846 
L 134.681992 259.316009 
L 134.823755 259.316009 
L 134.823755 259.204173 
L 136.213149 259.204173 
L 136.213149 259.092337 
L 136.439531 259.092337 
L 136.439531 258.9805 
L 137.316373 258.9805 
L 137.316373 258.868664 
L 138.150647 258.868664 
L 138.150647 258.756827 
L 138.46763 258.756827 
L 138.46763 258.644991 
L 138.666344 258.644991 
L 138.666344 258.533154 
L 139.94419 258.533154 
L 139.94419 258.421318 
L 140.986245 258.421318 
L 140.986245 258.309481 
L 141.591967 258.309481 
L 141.591967 258.197645 
L 142.200064 258.197645 
L 142.200064 258.085809 
L 142.69832 258.085809 
L 142.69832 257.973972 
L 143.483724 257.973972 
L 143.483724 257.862136 
L 143.632361 257.862136 
L 143.65349 257.638463 
L 144.856267 257.638463 
L 144.856267 257.526626 
L 145.149096 257.526626 
L 145.149096 257.41479 
L 146.631793 257.41479 
L 146.631793 257.302953 
L 147.208003 257.302953 
L 147.208003 257.191117 
L 147.897996 257.191117 
L 147.897996 257.079281 
L 148.433916 257.079281 
L 148.433916 256.967444 
L 148.844693 256.967444 
L 148.844693 256.855608 
L 152.01494 256.855608 
L 152.01494 256.743771 
L 152.374656 256.743771 
L 152.374656 256.631935 
L 155.237283 256.631935 
L 155.237283 256.520098 
L 155.984961 256.520098 
L 155.984961 256.408262 
L 156.422458 256.408262 
L 156.422458 256.296425 
L 157.848439 256.296425 
L 157.866922 256.072752 
L 158.250531 256.072752 
L 158.250531 255.960916 
L 158.775347 255.960916 
L 158.775347 255.84908 
L 158.98433 255.84908 
L 158.98433 255.737243 
L 159.190803 255.737243 
L 159.190803 255.625407 
L 159.31011 255.625407 
L 159.31011 255.51357 
L 160.945273 255.51357 
L 160.945273 255.289897 
L 161.417476 255.289897 
L 161.469983 255.066224 
L 162.374473 255.066224 
L 162.374473 254.954388 
L 163.280986 254.954388 
L 163.280986 254.842552 
L 163.521952 254.842552 
L 163.521952 254.730715 
L 164.225221 254.730715 
L 164.225221 254.618879 
L 164.528781 254.618879 
L 164.528781 254.507042 
L 165.485815 254.507042 
L 165.485815 254.395206 
L 166.510072 254.395206 
L 166.510072 254.283369 
L 166.710007 254.283369 
L 166.710007 254.171533 
L 167.826926 254.171533 
L 167.826926 254.059696 
L 168.556312 254.059696 
L 168.556312 253.94786 
L 170.411395 253.94786 
L 170.411395 253.836024 
L 171.866144 253.836024 
L 171.866144 253.724187 
L 175.019081 253.724187 
L 175.019081 253.612351 
L 176.139473 253.612351 
L 176.16816 253.388678 
L 176.373939 253.388678 
L 176.373939 253.165005 
L 176.799752 253.165005 
L 176.870217 252.941332 
L 177.269127 252.941332 
L 177.269127 252.829495 
L 177.688167 252.829495 
L 177.688167 252.717659 
L 178.020199 252.717659 
L 178.020199 252.605823 
L 180.928105 252.605823 
L 180.928105 252.493986 
L 181.177394 252.493986 
L 181.177394 252.38215 
L 181.801314 252.38215 
L 181.867737 252.158477 
L 182.418882 252.158477 
L 182.418882 252.04664 
L 183.395698 252.04664 
L 183.395698 251.934804 
L 183.862013 251.934804 
L 183.862013 251.822967 
L 184.393156 251.822967 
L 184.393156 251.711131 
L 185.337761 251.711131 
L 185.337761 251.599295 
L 188.209336 251.599295 
L 188.209336 251.487458 
L 189.734555 251.487458 
L 189.734555 251.375622 
L 214.728639 251.375622 
L 214.728639 251.263785 
L 333.168 251.263785 
L 333.168 251.263785 
" style="fill:none;stroke:#000080;stroke-linecap:square;stroke-width:1.5;"/>
   </g>
   <g id="line2d_44">
    <defs>
     <path d="M 0 6 
C 1.591219 6 3.117479 5.367802 4.242641 4.242641 
C 5.367802 3.117479 6 1.591219 6 0 
C 6 -1.591219 5.367802 -3.117479 4.242641 -4.242641 
C 3.117479 -5.367802 1.591219 -6 0 -6 
C -1.591219 -6 -3.117479 -5.367802 -4.242641 -4.242641 
C -5.367802 -3.117479 -6 -1.591219 -6 0 
C -6 1.591219 -5.367802 3.117479 -4.242641 4.242641 
C -3.117479 5.367802 -1.591219 6 0 6 
z
" id="m90d97b37ca" style="stroke:#000080;stroke-width:1.5;"/>
    </defs>
    <g>
     <use style="fill:none;stroke:#000080;stroke-width:1.5;" x="107.088985" xlink:href="#m90d97b37ca" y="264.236813"/>
     <use style="fill:none;stroke:#000080;stroke-width:1.5;" x="185.337761" xlink:href="#m90d97b37ca" y="251.599295"/>
     <use style="fill:none;stroke:#000080;stroke-width:1.5;" x="214.728639" xlink:href="#m90d97b37ca" y="251.375622"/>
     <use style="fill:none;stroke:#000080;stroke-width:1.5;" x="214.728639" xlink:href="#m90d97b37ca" y="251.263785"/>
     <use style="fill:none;stroke:#000080;stroke-width:1.5;" x="214.728639" xlink:href="#m90d97b37ca" y="251.263785"/>
     <use style="fill:none;stroke:#000080;stroke-width:1.5;" x="333.168" xlink:href="#m90d97b37ca" y="251.263785"/>
    </g>
   </g>
   <g id="line2d_45">
    <path style="fill:none;stroke:#000080;stroke-linecap:square;stroke-width:1.5;"/>
    <g/>
   </g>
   <g id="line2d_46">
    <path clip-path="url(#p966bd6a517)" d="M 134.8942 259.204173 
" style="fill:none;stroke:#000080;stroke-linecap:square;stroke-width:1.5;"/>
    <defs>
     <path d="M -12 12 
L 12 -12 
M -12 -12 
L 12 12 
" id="m5b1a4cd8aa" style="stroke:#000080;"/>
    </defs>
    <g clip-path="url(#p966bd6a517)">
     <use style="fill:#000080;stroke:#000080;" x="134.8942" xlink:href="#m5b1a4cd8aa" y="259.204173"/>
    </g>
   </g>
   <g id="line2d_47">
    <defs>
     <path d="M 0 1.5 
C 0.397805 1.5 0.77937 1.341951 1.06066 1.06066 
C 1.341951 0.77937 1.5 0.397805 1.5 0 
C 1.5 -0.397805 1.341951 -0.77937 1.06066 -1.06066 
C 0.77937 -1.341951 0.397805 -1.5 0 -1.5 
C -0.397805 -1.5 -0.77937 -1.341951 -1.06066 -1.06066 
C -1.341951 -0.77937 -1.5 -0.397805 -1.5 0 
C -1.5 0.397805 -1.341951 0.77937 -1.06066 1.06066 
C -0.77937 1.341951 -0.397805 1.5 0 1.5 
z
" id="ma8cacfc41b" style="stroke:#ff00ff;"/>
    </defs>
    <g>
     <use style="fill:#ff00ff;stroke:#ff00ff;" x="244.924655" xlink:href="#ma8cacfc41b" y="150.610982"/>
     <use style="fill:#ff00ff;stroke:#ff00ff;" x="244.924655" xlink:href="#ma8cacfc41b" y="150.610982"/>
    </g>
   </g>
   <g id="line2d_48">
    <path d="M 28.455965 294.88 
L 28.455965 281.01228 
L 40.370217 281.01228 
L 40.370217 278.663715 
L 47.339607 278.663715 
L 47.339607 277.545351 
L 52.284468 277.545351 
L 52.284468 277.209841 
L 56.12 277.209841 
L 56.12 276.203313 
L 59.253858 276.203313 
L 59.253858 275.755967 
L 61.903497 275.755967 
L 61.903497 275.196785 
L 64.198719 275.196785 
L 64.198719 274.302094 
L 66.223248 274.302094 
L 66.223248 274.190257 
L 68.034251 274.190257 
L 68.034251 273.854748 
L 71.168109 273.854748 
L 71.168109 273.407402 
L 72.543934 273.407402 
L 72.543934 273.071893 
L 73.817748 273.071893 
L 73.817748 272.960056 
L 75.003641 272.960056 
L 75.003641 272.736383 
L 76.11297 272.736383 
L 76.11297 272.51271 
L 77.155024 272.51271 
L 77.155024 272.400874 
L 78.137499 272.400874 
L 78.137499 272.289037 
L 79.066841 272.289037 
L 79.066841 271.841692 
L 79.948502 271.841692 
L 79.948502 271.170673 
L 80.787138 271.170673 
L 80.787138 270.723327 
L 82.350819 270.723327 
L 82.350819 270.164145 
L 83.784035 270.164145 
L 83.784035 269.940472 
L 84.458185 269.940472 
L 84.458185 269.828636 
L 85.106889 269.828636 
L 85.106889 269.716799 
L 86.917893 269.716799 
L 86.917893 269.493126 
L 88.027221 269.493126 
L 88.027221 269.04578 
L 88.556144 269.04578 
L 88.556144 268.933944 
L 89.567532 268.933944 
L 89.567532 268.710271 
L 93.501005 268.710271 
L 93.501005 268.598435 
L 93.887283 268.598435 
L 93.887283 268.486598 
L 97.336537 268.486598 
L 97.336537 268.374762 
L 98.249422 268.374762 
L 98.249422 268.151089 
L 98.543252 268.151089 
L 98.543252 268.039252 
L 98.832144 268.039252 
L 98.832144 267.927416 
L 100.470395 267.927416 
L 100.470395 267.81558 
L 101.23446 267.81558 
L 101.23446 267.703743 
L 101.725597 267.703743 
L 101.725597 267.591907 
L 103.777005 267.591907 
L 103.777005 267.48007 
L 105.020098 267.48007 
L 105.020098 267.368234 
L 105.415256 267.368234 
L 105.415256 267.256397 
L 107.612537 267.256397 
L 107.612537 267.032724 
L 107.783569 267.032724 
L 107.783569 266.809052 
L 107.952917 266.809052 
L 107.952917 266.697215 
L 108.6141 266.697215 
L 108.6141 266.585379 
L 109.093814 266.585379 
L 109.093814 266.138033 
L 110.311216 266.138033 
L 110.311216 266.026196 
L 110.602556 266.026196 
L 110.602556 265.91436 
L 110.746395 265.91436 
L 110.746395 265.690687 
L 111.030511 265.690687 
L 111.030511 265.578851 
L 112.122219 265.578851 
L 112.122219 265.467014 
L 112.253934 265.467014 
L 112.253934 265.355178 
L 113.148711 265.355178 
L 113.148711 265.131505 
L 114.23467 265.131505 
L 114.23467 265.019668 
L 114.922307 265.019668 
L 114.922307 264.907832 
L 115.145539 264.907832 
L 115.256077 264.684159 
L 115.798351 264.684159 
L 115.798351 264.572323 
L 117.033994 264.572323 
L 117.033994 264.460486 
L 117.999901 264.460486 
L 117.999901 264.34865 
L 118.735356 264.34865 
L 118.735356 264.236813 
L 119.354037 264.236813 
L 119.440629 263.901304 
L 119.782703 263.901304 
L 119.782703 263.789467 
L 120.200938 263.789467 
L 120.283378 263.565795 
L 120.528351 263.565795 
L 120.528351 263.453958 
L 120.769881 263.453958 
L 120.849643 263.230285 
L 121.16504 263.230285 
L 121.16504 263.118449 
L 121.929105 263.118449 
L 121.929105 263.006612 
L 122.660646 263.006612 
L 122.660646 262.894776 
L 122.803291 262.894776 
L 122.803291 262.671103 
L 123.769975 262.671103 
L 123.769975 262.559266 
L 123.903739 262.559266 
L 123.903739 262.44743 
L 124.036471 262.44743 
L 124.036471 262.223757 
L 125.913457 262.223757 
L 125.913457 262.111921 
L 126.148921 262.111921 
L 126.148921 262.000084 
L 126.323427 262.000084 
L 126.323427 261.888248 
L 126.667211 261.888248 
L 126.667211 261.776411 
L 127.170329 261.776411 
L 127.28016 261.552738 
L 128.289984 261.552738 
L 128.289984 261.440902 
L 130.054468 261.440902 
L 130.054468 261.329066 
L 130.468672 261.329066 
L 130.514085 261.105393 
L 131.137575 261.105393 
L 131.137575 260.993556 
L 131.441039 260.993556 
L 131.441039 260.88172 
L 131.907344 260.88172 
L 131.990784 260.658047 
L 132.644112 260.658047 
L 132.644112 260.54621 
L 132.803637 260.54621 
L 132.803637 260.322538 
L 133.843356 260.322538 
L 133.880682 260.098865 
L 134.431058 260.098865 
L 134.431058 259.875192 
L 134.574897 259.875192 
L 134.681992 259.539682 
L 135.276571 259.539682 
L 135.276571 259.427846 
L 135.950722 259.427846 
L 135.983745 259.204173 
L 136.407373 259.204173 
L 136.407373 258.9805 
L 136.599426 258.9805 
L 136.599426 258.868664 
L 136.946047 258.868664 
L 136.946047 258.756827 
L 137.224536 258.756827 
L 137.224536 258.644991 
L 138.496158 258.644991 
L 138.496158 258.533154 
L 138.609803 258.533154 
L 138.609803 258.421318 
L 139.112104 258.421318 
L 139.22176 258.085809 
L 139.519758 258.085809 
L 139.519758 257.973972 
L 140.048681 257.973972 
L 140.048681 257.750299 
L 141.010888 257.750299 
L 141.109109 257.41479 
L 141.231101 257.41479 
L 141.231101 257.302953 
L 141.757814 257.302953 
L 141.757814 257.079281 
L 142.084781 257.079281 
L 142.084781 256.855608 
L 142.473629 256.855608 
L 142.473629 256.743771 
L 142.920112 256.743771 
L 142.920112 256.631935 
L 143.779723 256.631935 
L 143.779723 256.072752 
L 144.008769 256.072752 
L 144.008769 255.960916 
L 144.132429 255.960916 
L 144.193927 255.51357 
L 144.498158 255.51357 
L 144.498158 255.401734 
L 144.993542 255.401734 
L 144.993542 255.289897 
L 145.110339 255.289897 
L 145.110339 255.178061 
L 145.37982 255.178061 
L 145.37982 255.066224 
L 145.738913 255.066224 
L 145.77628 254.618879 
L 145.943432 254.618879 
L 145.943432 254.507042 
L 146.34531 254.507042 
L 146.453301 254.283369 
L 146.843566 254.283369 
L 146.843566 253.724187 
L 147.12193 253.724187 
L 147.190823 253.500514 
L 147.531203 253.500514 
L 147.531203 253.388678 
L 147.715578 253.388678 
L 147.715578 253.276841 
L 147.864973 253.276841 
L 147.864973 253.165005 
L 148.192385 253.165005 
L 148.192385 253.053168 
L 148.401907 253.053168 
L 148.497755 252.829495 
L 148.513678 252.829495 
L 148.513678 252.493986 
L 149.031022 252.493986 
L 149.138788 252.04664 
L 149.276358 252.04664 
L 149.276358 251.934804 
L 149.443019 251.934804 
L 149.443019 251.822967 
L 149.741959 251.822967 
L 149.741959 251.487458 
L 149.860095 251.487458 
L 149.860095 251.375622 
L 150.035789 251.375622 
L 150.035789 251.040112 
L 150.324681 251.040112 
L 150.324681 250.928276 
L 150.552348 250.928276 
L 150.62288 250.592767 
L 150.888293 250.592767 
L 150.888293 250.48093 
L 151.163317 250.48093 
L 151.258545 250.257257 
L 151.700505 250.257257 
L 151.740126 249.921748 
L 152.144276 249.921748 
L 152.195739 249.698075 
L 152.476064 249.698075 
L 152.476064 249.474402 
L 152.726997 249.474402 
L 152.726997 249.362566 
L 152.912822 249.362566 
L 152.97432 248.803383 
L 153.242327 248.803383 
L 153.242327 248.691547 
L 153.624843 248.691547 
L 153.624843 248.57971 
L 153.929489 248.57971 
L 153.929489 248.356038 
L 154.068295 248.356038 
L 154.125801 247.908692 
L 154.342587 247.908692 
L 154.399185 247.573182 
L 154.556673 247.573182 
L 154.556673 247.34951 
L 154.690524 247.34951 
L 154.690524 247.237673 
L 154.867386 247.237673 
L 154.867386 247.125837 
L 155.483068 247.125837 
L 155.504275 246.902164 
L 155.693974 246.902164 
L 155.777617 246.566654 
L 156.311596 246.566654 
L 156.311596 246.454818 
L 156.711349 246.454818 
L 156.74096 246.119309 
L 157.198312 246.119309 
L 157.303617 245.783799 
L 157.313159 245.783799 
L 157.313159 245.671963 
L 157.578187 245.671963 
L 157.578187 245.560126 
L 157.959037 245.560126 
L 157.959037 245.44829 
L 158.394445 245.44829 
L 158.4034 245.224617 
L 158.581522 245.224617 
L 158.59038 245.000944 
L 158.705118 245.000944 
L 158.705118 244.889108 
L 158.862733 244.889108 
L 158.932322 244.441762 
L 159.001631 244.441762 
L 159.001631 244.329925 
L 159.276106 244.329925 
L 159.352519 243.994416 
L 159.512728 243.994416 
L 159.512728 243.88258 
L 159.94371 243.88258 
L 159.976419 243.658907 
L 160.106637 243.658907 
L 160.106637 243.54707 
L 160.364149 243.54707 
L 160.427929 243.323397 
L 161.053039 243.323397 
L 161.053039 243.099724 
L 161.19061 243.099724 
L 161.205828 242.876052 
L 162.452458 242.876052 
L 162.523048 242.540542 
L 162.635392 242.540542 
L 162.67035 242.316869 
L 162.802544 242.316869 
L 162.802544 242.205033 
L 162.940606 242.205033 
L 162.940606 241.98136 
L 163.077568 241.98136 
L 163.077568 241.757687 
L 163.368392 241.757687 
L 163.368392 241.645851 
L 163.634578 241.645851 
L 163.634578 241.534014 
L 163.805414 241.534014 
L 163.877183 241.198505 
L 164.006909 241.198505 
L 164.006909 241.086668 
L 164.282549 241.086668 
L 164.390315 240.639323 
L 164.447095 240.639323 
L 164.553838 240.08014 
L 164.765354 240.08014 
L 164.765354 239.968304 
L 165.01091 239.968304 
L 165.01091 239.856467 
L 165.259017 239.856467 
L 165.259017 239.632795 
L 165.408562 239.632795 
L 165.408562 239.520958 
L 165.872751 239.520958 
L 165.959489 239.297285 
L 165.988305 239.297285 
L 166.040052 239.073612 
L 166.290819 239.073612 
L 166.336023 238.849939 
L 166.526822 238.849939 
L 166.526822 238.738103 
L 166.858446 238.738103 
L 166.858446 238.51443 
L 167.156915 238.51443 
L 167.1999 238.178921 
L 167.296225 238.178921 
L 167.381396 237.955248 
L 167.534702 237.955248 
L 167.608225 237.619739 
L 167.930099 237.619739 
L 167.930099 237.507902 
L 168.124439 237.507902 
L 168.124439 237.396066 
L 168.32666 237.396066 
L 168.426886 236.836883 
L 168.486742 236.836883 
L 168.486742 236.725047 
L 168.822044 236.725047 
L 168.919431 236.389538 
L 169.016268 236.389538 
L 169.112563 236.165865 
L 169.492438 236.165865 
L 169.520593 235.830355 
L 169.683918 235.830355 
L 169.771934 235.38301 
L 169.891652 235.38301 
L 169.928321 235.159337 
L 170.04241 235.159337 
L 170.137663 234.711991 
L 170.200874 234.711991 
L 170.227893 234.264645 
L 170.451415 234.264645 
L 170.451415 234.152809 
L 170.579739 234.152809 
L 170.61497 233.817299 
L 170.715861 233.817299 
L 170.715861 233.705463 
L 170.85959 233.705463 
L 170.967682 233.258117 
L 170.971991 233.258117 
L 171.019325 232.810771 
L 171.0965 232.810771 
L 171.0965 232.698935 
L 171.27524 232.698935 
L 171.27524 232.587098 
L 171.627238 232.587098 
L 171.68521 232.251589 
L 171.775915 232.251589 
L 171.862053 232.027916 
L 171.939617 232.027916 
L 172.020888 231.692407 
L 172.202353 231.692407 
L 172.286386 231.468734 
L 172.417612 231.468734 
L 172.441364 231.245061 
L 172.575343 231.245061 
L 172.645853 231.021388 
L 172.692699 231.021388 
L 172.782132 230.797715 
L 172.824741 230.797715 
L 172.824741 230.685879 
L 173.043854 230.685879 
L 173.043854 230.574042 
L 173.263981 230.574042 
L 173.282826 230.350369 
L 173.376743 230.350369 
L 173.421641 230.126697 
L 173.570462 230.126697 
L 173.644391 229.679351 
L 173.718004 229.679351 
L 173.802272 229.455678 
L 173.90067 229.455678 
L 174.002121 229.232005 
L 174.224653 229.232005 
L 174.260278 228.896496 
L 174.366709 228.896496 
L 174.437299 228.560986 
L 174.5076 228.560986 
L 174.546144 228.337313 
L 174.661258 228.337313 
L 174.661258 228.225477 
L 174.854857 228.225477 
L 174.923475 228.001804 
L 174.974758 228.001804 
L 175.059893 227.666295 
L 175.097219 227.666295 
L 175.195237 227.330785 
L 175.262512 227.330785 
L 175.372942 226.88344 
L 175.392945 226.88344 
L 175.396276 226.436094 
L 175.532313 226.436094 
L 175.532313 226.324257 
L 175.791434 226.324257 
L 175.791434 226.212421 
L 175.921161 226.212421 
L 175.921161 225.988748 
L 176.113932 225.988748 
L 176.177712 225.765075 
L 176.241256 225.765075 
L 176.304566 225.429566 
L 176.377085 225.429566 
L 176.377085 225.317729 
L 176.630071 225.317729 
L 176.630071 225.205893 
L 176.769026 225.205893 
L 176.864101 224.870383 
L 176.958653 224.870383 
L 177.061761 224.646711 
L 177.116098 224.646711 
L 177.140193 224.311201 
L 177.34662 224.311201 
L 177.34662 223.863855 
L 177.524129 223.863855 
L 177.591691 223.640183 
L 177.641458 223.640183 
L 177.752184 223.41651 
L 177.757992 223.41651 
L 177.824643 222.857327 
L 177.896797 222.857327 
L 177.982985 222.521818 
L 178.045915 222.521818 
L 178.102926 222.186309 
L 178.179591 222.186309 
L 178.247452 221.850799 
L 178.320667 221.850799 
L 178.429909 221.291617 
L 178.49679 221.291617 
L 178.607685 220.620598 
L 178.662865 220.620598 
L 178.72336 220.396926 
L 178.775434 220.396926 
L 178.881832 219.94958 
L 178.984872 219.94958 
L 179.044245 219.502234 
L 179.098044 219.502234 
L 179.205139 219.278561 
L 179.459476 219.278561 
L 179.556505 219.054888 
L 179.686762 219.054888 
L 179.782521 218.719379 
L 179.9699 218.719379 
L 180.008151 218.383869 
L 180.089469 218.383869 
L 180.140098 217.936524 
L 180.240912 217.936524 
L 180.306125 217.377341 
L 180.478 217.377341 
L 180.490388 217.153669 
L 180.670246 217.153669 
L 180.775316 216.594486 
L 180.785058 216.594486 
L 180.882169 216.14714 
L 180.901525 216.14714 
L 180.901525 216.035304 
L 181.026814 216.035304 
L 181.122573 215.587958 
L 181.144045 215.587958 
L 181.236784 215.252449 
L 181.50036 215.252449 
L 181.581906 215.028776 
L 181.77835 215.028776 
L 181.824247 214.357757 
L 181.98166 214.357757 
L 182.058698 213.910412 
L 182.142144 213.910412 
L 182.189325 213.574902 
L 182.276606 213.574902 
L 182.365666 213.351229 
L 182.498398 213.351229 
L 182.542415 212.903883 
L 182.732588 212.903883 
L 182.804176 212.568374 
L 182.847417 212.568374 
L 182.933576 212.009192 
L 183.06201 212.009192 
L 183.076931 211.561846 
L 183.189491 211.561846 
L 183.273956 211.338173 
L 183.311831 211.338173 
L 183.404062 211.1145 
L 183.607727 211.1145 
L 183.648996 210.890827 
L 183.731238 210.890827 
L 183.827373 210.443482 
L 183.916887 210.443482 
L 184.016027 210.219809 
L 184.096536 210.219809 
L 184.134646 209.996136 
L 184.317993 209.996136 
L 184.403022 209.660626 
L 184.454231 209.660626 
L 184.532718 208.430426 
L 184.571828 208.430426 
L 184.667272 208.206753 
L 184.690565 208.206753 
L 184.766052 207.64757 
L 184.919866 207.64757 
L 184.994354 207.200225 
L 185.072316 207.200225 
L 185.148037 206.976552 
L 185.185773 206.976552 
L 185.281625 206.529206 
L 185.298485 206.529206 
L 185.298485 206.417369 
L 185.443916 206.417369 
L 185.503225 206.193697 
L 185.575233 206.193697 
L 185.595489 205.746351 
L 185.703726 205.746351 
L 185.742088 205.522678 
L 185.959668 205.522678 
L 186.031587 205.187169 
L 186.103207 205.187169 
L 186.103207 204.963496 
L 186.383221 204.963496 
L 186.383221 204.851659 
L 186.526767 204.851659 
L 186.58941 204.51615 
L 186.665666 204.51615 
L 186.665666 204.292477 
L 186.832589 204.292477 
L 186.919707 204.068804 
L 186.974144 204.068804 
L 187.048715 203.845131 
L 187.210302 203.845131 
L 187.310527 203.509622 
L 187.377021 203.509622 
L 187.443259 203.174112 
L 187.497713 203.174112 
L 187.607744 202.61493 
L 187.617564 202.61493 
L 187.705686 202.391257 
L 187.772293 202.391257 
L 187.869303 202.055748 
L 187.932068 202.055748 
L 188.028183 201.608402 
L 188.091963 201.608402 
L 188.174525 201.161056 
L 188.215657 201.161056 
L 188.218817 200.937384 
L 188.344742 200.937384 
L 188.376079 200.601874 
L 188.457291 200.601874 
L 188.457291 200.490038 
L 188.629372 200.490038 
L 188.629372 200.378201 
L 188.763053 200.378201 
L 188.839413 200.154528 
L 188.907848 200.154528 
L 188.907848 200.042692 
L 189.171425 200.042692 
L 189.271277 199.259837 
L 189.289099 199.259837 
L 189.343937 198.924327 
L 189.43838 198.924327 
L 189.54255 198.141472 
L 189.584917 198.141472 
L 189.669339 197.917799 
L 189.787992 197.917799 
L 189.898669 197.58229 
L 189.924439 197.58229 
L 189.924439 197.470454 
L 190.045611 197.470454 
L 190.130634 197.246781 
L 190.158881 197.246781 
L 190.243346 196.911271 
L 190.298027 196.911271 
L 190.339971 196.687599 
L 190.417994 196.687599 
L 190.5247 196.128416 
L 190.564717 196.128416 
L 190.578494 195.904743 
L 190.681474 195.904743 
L 190.681474 195.792907 
L 190.850392 195.792907 
L 190.850392 195.68107 
L 191.122059 195.68107 
L 191.148724 195.457398 
L 191.252326 195.457398 
L 191.252326 195.345561 
L 191.384243 195.345561 
L 191.420999 194.898215 
L 191.5321 194.898215 
L 191.642488 194.674542 
L 191.774025 194.674542 
L 191.774025 194.45087 
L 191.913484 194.45087 
L 191.97581 194.11536 
L 192.054349 194.11536 
L 192.066983 193.891687 
L 192.180274 193.891687 
L 192.180274 193.668014 
L 192.352549 193.668014 
L 192.355033 193.444342 
L 192.531721 193.444342 
L 192.626114 193.108832 
L 192.66153 193.108832 
L 192.66153 192.996996 
L 192.820612 192.996996 
L 192.844771 192.773323 
L 193.079742 192.773323 
L 193.179469 192.325977 
L 193.203129 192.325977 
L 193.297443 192.102304 
L 193.32094 192.102304 
L 193.32094 191.990468 
L 193.57269 191.990468 
L 193.57269 191.878631 
L 193.692601 191.878631 
L 193.738498 191.654958 
L 194.213165 191.654958 
L 194.279917 191.319449 
L 194.50057 191.319449 
L 194.588045 190.872103 
L 194.731411 190.872103 
L 194.783249 190.64843 
L 194.954922 190.64843 
L 194.954922 190.536594 
L 195.146027 190.536594 
L 195.146027 190.424757 
L 195.445367 190.424757 
L 195.510611 190.201085 
L 195.568399 190.201085 
L 195.568399 190.089248 
L 195.930278 190.089248 
L 195.978629 189.865575 
L 196.0509 189.865575 
L 196.110896 189.530066 
L 196.169688 189.530066 
L 196.23819 189.08272 
L 196.466535 189.08272 
L 196.5251 188.411701 
L 196.828374 188.411701 
L 196.891444 188.076192 
L 196.986567 188.076192 
L 197.042444 187.740683 
L 197.108503 187.740683 
L 197.108503 187.628846 
L 197.491327 187.628846 
L 197.546507 187.293337 
L 197.695525 187.293337 
L 197.788123 186.845991 
L 197.998686 186.845991 
L 198.035316 186.510482 
L 198.125218 186.510482 
L 198.212886 186.286809 
L 198.406118 186.286809 
L 198.493237 186.063136 
L 198.614467 186.063136 
L 198.637749 185.839463 
L 198.816911 185.839463 
L 198.816911 185.727627 
L 199.002662 185.727627 
L 199.002662 185.61579 
L 199.174739 185.61579 
L 199.274673 185.280281 
L 199.324423 185.280281 
L 199.395481 185.056608 
L 199.636206 185.056608 
L 199.672756 184.832935 
L 199.983918 184.832935 
L 199.983918 184.721099 
L 200.482584 184.721099 
L 200.482584 184.609262 
L 200.615971 184.609262 
L 200.635161 184.385589 
L 200.931786 184.385589 
L 200.931786 184.273753 
L 201.085676 184.273753 
L 201.175123 183.938243 
L 201.382039 183.938243 
L 201.396724 183.490898 
L 201.875845 183.490898 
L 201.875845 183.379061 
L 202.030744 183.379061 
L 202.117528 183.043552 
L 202.143549 183.043552 
L 202.143549 182.931715 
L 202.339194 182.931715 
L 202.402994 182.708042 
L 202.532637 182.708042 
L 202.642206 182.48437 
L 202.734794 182.48437 
L 202.834313 182.037024 
L 202.872748 182.037024 
L 202.872748 181.925187 
L 203.007598 181.925187 
L 203.10489 181.589678 
L 203.152667 181.589678 
L 203.256391 181.254169 
L 203.31163 181.254169 
L 203.392197 180.918659 
L 203.442442 180.918659 
L 203.442442 180.806823 
L 203.559328 180.806823 
L 203.559328 180.58315 
L 203.675424 180.58315 
L 203.777967 180.135804 
L 203.884347 180.135804 
L 203.969864 179.800295 
L 204.031678 179.800295 
L 204.031678 179.576622 
L 204.218911 179.576622 
L 204.294105 179.129276 
L 204.380698 179.129276 
L 204.380698 179.01744 
L 204.540365 179.01744 
L 204.637889 178.793767 
L 204.698562 178.793767 
L 204.698562 178.68193 
L 204.819269 178.68193 
L 204.915228 178.458257 
L 204.986848 178.458257 
L 205.046304 178.010912 
L 205.147499 178.010912 
L 205.188164 177.787239 
L 205.324775 177.787239 
L 205.408084 177.11622 
L 205.583857 177.11622 
L 205.583857 177.004384 
L 205.835124 177.004384 
L 205.903583 176.668874 
L 206.021193 176.668874 
L 206.128531 176.333365 
L 206.203604 176.333365 
L 206.275588 176.109692 
L 206.518648 176.109692 
L 206.545866 175.886019 
L 206.740579 175.886019 
L 206.815709 175.438673 
L 206.951184 175.438673 
L 206.951184 175.326837 
L 207.102459 175.326837 
L 207.134026 175.103164 
L 207.322225 175.103164 
L 207.385021 174.879491 
L 207.454296 174.879491 
L 207.528946 174.543982 
L 207.574605 174.543982 
L 207.641591 174.320309 
L 207.834439 174.320309 
L 207.849572 174.096636 
L 208.371006 174.096636 
L 208.432529 173.761127 
L 208.500144 173.761127 
L 208.57523 173.313781 
L 208.708125 173.313781 
L 208.813801 172.866435 
L 209.200789 172.866435 
L 209.250589 172.530926 
L 209.35022 172.530926 
L 209.35022 172.419089 
L 209.477278 172.419089 
L 209.569221 171.971743 
L 209.615692 171.971743 
L 209.615692 171.859907 
L 209.761123 171.859907 
L 209.761123 171.636234 
L 209.962057 171.636234 
L 209.962057 171.524398 
L 210.09177 171.524398 
L 210.09177 171.412561 
L 210.476867 171.412561 
L 210.476867 171.300725 
L 210.621229 171.300725 
L 210.631954 171.077052 
L 210.971661 171.077052 
L 210.971661 170.965215 
L 211.122366 170.965215 
L 211.229978 170.629706 
L 211.362423 170.629706 
L 211.39076 170.406033 
L 211.58295 170.406033 
L 211.661087 170.070524 
L 211.808295 170.070524 
L 211.864671 169.735014 
L 211.952267 169.735014 
L 211.952267 169.623178 
L 212.257335 169.623178 
L 212.313815 169.399505 
L 212.406895 169.399505 
L 212.514854 169.063996 
L 212.526765 169.063996 
L 212.526765 168.952159 
L 212.774253 168.952159 
L 212.825288 168.728486 
L 213.120199 168.728486 
L 213.135035 168.504814 
L 213.288943 168.504814 
L 213.380192 168.281141 
L 213.402837 168.281141 
L 213.402837 168.169304 
L 213.595572 168.169304 
L 213.6597 167.945631 
L 213.724305 167.945631 
L 213.81007 167.386449 
L 213.978914 167.386449 
L 214.067284 167.162776 
L 214.196031 167.162776 
L 214.204742 166.939103 
L 214.31863 166.939103 
L 214.3297 166.71543 
L 214.462339 166.71543 
L 214.529473 166.379921 
L 214.692444 166.379921 
L 214.790703 166.044412 
L 214.849524 166.044412 
L 214.849524 165.932575 
L 215.074206 165.932575 
L 215.074206 165.820739 
L 215.192693 165.820739 
L 215.28487 165.597066 
L 215.454801 165.597066 
L 215.454801 165.485229 
L 215.768725 165.485229 
L 215.819542 165.261557 
L 216.05013 165.261557 
L 216.090135 164.926047 
L 216.239332 164.926047 
L 216.344236 164.702374 
L 216.531158 164.702374 
L 216.531158 164.590538 
L 216.661198 164.590538 
L 216.661198 164.478701 
L 216.772869 164.478701 
L 216.772869 164.366865 
L 216.901099 164.366865 
L 216.901099 164.255029 
L 217.167045 164.255029 
L 217.208047 163.919519 
L 217.341503 163.919519 
L 217.426051 163.695846 
L 217.812752 163.695846 
L 217.877865 163.472173 
L 217.929835 163.472173 
L 217.937126 163.2485 
L 218.080638 163.2485 
L 218.125067 162.912991 
L 218.407547 162.912991 
L 218.407547 162.801155 
L 218.67633 162.801155 
L 218.67633 162.689318 
L 218.911063 162.689318 
L 218.911063 162.577482 
L 219.028818 162.577482 
L 219.028818 162.465645 
L 219.190401 162.465645 
L 219.283205 162.241972 
L 219.453468 162.241972 
L 219.550228 161.794627 
L 219.573441 161.794627 
L 219.616976 161.347281 
L 219.753736 161.347281 
L 219.753736 161.235444 
L 219.933158 161.235444 
L 219.997195 160.899935 
L 220.145775 160.899935 
L 220.246081 160.564426 
L 220.479811 160.564426 
L 220.555094 160.228916 
L 220.667404 160.228916 
L 220.767574 159.781571 
L 220.839242 159.781571 
L 220.839242 159.669734 
L 221.179009 159.669734 
L 221.179009 159.557898 
L 221.853999 159.557898 
L 221.853999 159.446061 
L 222.435418 159.446061 
L 222.435418 159.334225 
L 222.708403 159.334225 
L 222.791257 159.110552 
L 223.075127 159.110552 
L 223.075127 158.998715 
L 223.192002 158.998715 
L 223.192002 158.886879 
L 223.746958 158.886879 
L 223.746958 158.775043 
L 223.882397 158.775043 
L 223.987421 158.55137 
L 224.102388 158.55137 
L 224.102388 158.439533 
L 224.245752 158.439533 
L 224.245752 158.327697 
L 224.618129 158.327697 
L 224.657809 158.104024 
L 224.814495 158.104024 
L 224.814495 157.992187 
L 225.103699 157.992187 
L 225.151676 157.656678 
L 225.255474 157.656678 
L 225.255474 157.544842 
L 225.407736 157.544842 
L 225.407736 157.433005 
L 225.555962 157.433005 
L 225.64572 157.209332 
L 225.681135 157.209332 
L 225.752814 156.985659 
L 225.813207 156.985659 
L 225.866495 156.761987 
L 226.012586 156.761987 
L 226.012586 156.65015 
L 226.154664 156.65015 
L 226.18818 156.426477 
L 226.860642 156.426477 
L 226.860642 156.314641 
L 226.973713 156.314641 
L 226.973713 156.202804 
L 227.174895 156.202804 
L 227.182756 155.979131 
L 227.335006 155.979131 
L 227.335006 155.867295 
L 227.455487 155.867295 
L 227.455487 155.755458 
L 227.665633 155.755458 
L 227.762311 155.531786 
L 228.281848 155.531786 
L 228.34746 155.308113 
L 228.63273 155.308113 
L 228.718593 155.08444 
L 229.019609 155.08444 
L 229.019609 154.972603 
L 229.189447 154.972603 
L 229.189447 154.860767 
L 229.340302 154.860767 
L 229.426735 154.637094 
L 229.964277 154.637094 
L 229.964277 154.525258 
L 230.125075 154.525258 
L 230.135558 154.301585 
L 230.774904 154.301585 
L 230.774904 154.189748 
L 231.148127 154.189748 
L 231.148127 154.077912 
L 231.354879 154.077912 
L 231.354879 153.966075 
L 231.611769 153.966075 
L 231.611769 153.854239 
L 231.782256 153.854239 
L 231.859762 153.630566 
L 231.986516 153.630566 
L 231.986516 153.51873 
L 232.133347 153.51873 
L 232.21662 153.295057 
L 232.314075 153.295057 
L 232.314075 153.18322 
L 232.564903 153.18322 
L 232.641231 152.959547 
L 233.63693 152.959547 
L 233.63693 152.847711 
L 234.288051 152.847711 
L 234.288051 152.735874 
L 235.622874 152.735874 
L 235.726274 152.512201 
L 235.752946 152.512201 
L 235.752946 152.400365 
L 236.289462 152.400365 
L 236.289462 152.288529 
L 236.822824 152.288529 
L 236.822824 152.176692 
L 237.25924 152.176692 
L 237.25924 152.064856 
L 237.376365 152.064856 
L 237.376365 151.953019 
L 239.236512 151.953019 
L 239.34571 151.729346 
L 239.55264 151.729346 
L 239.55264 151.61751 
L 240.109564 151.61751 
L 240.109564 151.505673 
L 241.035672 151.505673 
L 241.035672 151.393837 
L 241.293502 151.393837 
L 241.293502 151.282001 
L 242.809629 151.282001 
L 242.809629 151.170164 
L 242.978976 151.170164 
L 242.978976 151.058328 
L 243.662269 151.058328 
L 243.662269 150.946491 
L 244.108317 150.946491 
L 244.108317 150.834655 
L 244.409579 150.834655 
L 244.409579 150.722818 
L 244.924655 150.722818 
L 244.924655 150.610982 
L 333.168 150.610982 
L 333.168 150.610982 
" style="fill:none;stroke:#ff00ff;stroke-linecap:square;stroke-width:1.5;"/>
   </g>
   <g id="line2d_49">
    <defs>
     <path d="M -0 8.485281 
L 5.091169 0 
L 0 -8.485281 
L -5.091169 -0 
z
" id="mfa5aeb2bc6" style="stroke:#ff00ff;stroke-linejoin:miter;stroke-width:1.5;"/>
    </defs>
    <g>
     <use style="fill:none;stroke:#ff00ff;stroke-linejoin:miter;stroke-width:1.5;" x="133.880682" xlink:href="#mfa5aeb2bc6" y="260.098865"/>
     <use style="fill:none;stroke:#ff00ff;stroke-linejoin:miter;stroke-width:1.5;" x="182.933576" xlink:href="#mfa5aeb2bc6" y="212.232865"/>
     <use style="fill:none;stroke:#ff00ff;stroke-linejoin:miter;stroke-width:1.5;" x="244.924655" xlink:href="#mfa5aeb2bc6" y="150.722818"/>
     <use style="fill:none;stroke:#ff00ff;stroke-linejoin:miter;stroke-width:1.5;" x="244.924655" xlink:href="#mfa5aeb2bc6" y="150.610982"/>
     <use style="fill:none;stroke:#ff00ff;stroke-linejoin:miter;stroke-width:1.5;" x="244.924655" xlink:href="#mfa5aeb2bc6" y="150.610982"/>
     <use style="fill:none;stroke:#ff00ff;stroke-linejoin:miter;stroke-width:1.5;" x="333.168" xlink:href="#mfa5aeb2bc6" y="150.610982"/>
    </g>
   </g>
   <g id="line2d_50">
    <path style="fill:none;stroke:#ff00ff;stroke-linecap:square;stroke-width:1.5;"/>
    <g/>
   </g>
   <g id="line2d_51">
    <path clip-path="url(#p966bd6a517)" d="M 191.225821 195.457398 
" style="fill:none;stroke:#ff00ff;stroke-linecap:square;stroke-width:1.5;"/>
    <defs>
     <path d="M -12 12 
L 12 -12 
M -12 -12 
L 12 12 
" id="m670942f88b" style="stroke:#ff00ff;"/>
    </defs>
    <g clip-path="url(#p966bd6a517)">
     <use style="fill:#ff00ff;stroke:#ff00ff;" x="191.225821" xlink:href="#m670942f88b" y="195.457398"/>
    </g>
   </g>
   <g id="line2d_52">
    <path d="M 333.168 251.263785 
L 363.64328 289.176341 
" style="fill:none;stroke:#000080;stroke-linecap:square;stroke-width:1.5;"/>
    <g>
     <use style="fill:none;stroke:#000080;stroke-width:1.5;" x="333.168" xlink:href="#m90d97b37ca" y="251.263785"/>
     <use style="fill:none;stroke:#000080;stroke-width:1.5;" x="363.64328" xlink:href="#m90d97b37ca" y="289.176341"/>
    </g>
   </g>
   <g id="line2d_53">
    <path d="M 333.168 150.610982 
L 363.64328 152.288529 
" style="fill:none;stroke:#ff00ff;stroke-linecap:square;stroke-width:1.5;"/>
    <g>
     <use style="fill:none;stroke:#ff00ff;stroke-linejoin:miter;stroke-width:1.5;" x="333.168" xlink:href="#mfa5aeb2bc6" y="150.610982"/>
     <use style="fill:none;stroke:#ff00ff;stroke-linejoin:miter;stroke-width:1.5;" x="363.64328" xlink:href="#mfa5aeb2bc6" y="152.288529"/>
    </g>
   </g>
   <g id="line2d_54">
    <path d="M 333.168 294.88 
L 333.168 9.697057 
" style="fill:none;stroke:#000000;stroke-linecap:square;stroke-width:1.5;"/>
   </g>
   <g id="patch_3">
    <path d="M 56.12 294.88 
L 56.12 6.845228 
" style="fill:none;stroke:#000000;stroke-linecap:square;stroke-linejoin:miter;stroke-width:0.8;"/>
   </g>
   <g id="patch_4">
    <path d="M 333.168 294.88 
L 333.168 6.845228 
" style="fill:none;stroke:#000000;stroke-linecap:square;stroke-linejoin:miter;stroke-width:0.8;"/>
   </g>
   <g id="patch_5">
    <path d="M 56.12 294.88 
L 333.168 294.88 
" style="fill:none;stroke:#000000;stroke-linecap:square;stroke-linejoin:miter;stroke-width:0.8;"/>
   </g>
   <g id="patch_6">
    <path d="M 56.12 6.845228 
L 333.168 6.845228 
" style="fill:none;stroke:#000000;stroke-linecap:square;stroke-linejoin:miter;stroke-width:0.8;"/>
   </g>
   <g id="text_13">
    <!-- scipyAlg -->
    <defs>
     <path d="M 32.171875 -5.078125 
Q 28.375 -14.84375 24.75 -17.8125 
Q 21.140625 -20.796875 15.09375 -20.796875 
L 7.90625 -20.796875 
L 7.90625 -13.28125 
L 13.1875 -13.28125 
Q 16.890625 -13.28125 18.9375 -11.515625 
Q 21 -9.765625 23.484375 -3.21875 
L 25.09375 0.875 
L 2.984375 54.6875 
L 12.5 54.6875 
L 29.59375 11.921875 
L 46.6875 54.6875 
L 56.203125 54.6875 
z
" id="DejaVuSans-79"/>
     <path d="M 34.1875 63.1875 
L 20.796875 26.90625 
L 47.609375 26.90625 
z
M 28.609375 72.90625 
L 39.796875 72.90625 
L 67.578125 0 
L 57.328125 0 
L 50.6875 18.703125 
L 17.828125 18.703125 
L 11.1875 0 
L 0.78125 0 
z
" id="DejaVuSans-41"/>
    </defs>
    <g transform="translate(369.18424 293.867279)scale(0.17 -0.17)">
     <use xlink:href="#DejaVuSans-73"/>
     <use x="52.099609" xlink:href="#DejaVuSans-63"/>
     <use x="107.080078" xlink:href="#DejaVuSans-69"/>
     <use x="134.863281" xlink:href="#DejaVuSans-70"/>
     <use x="198.339844" xlink:href="#DejaVuSans-79"/>
     <use x="257.519531" xlink:href="#DejaVuSans-41"/>
     <use x="325.927734" xlink:href="#DejaVuSans-6c"/>
     <use x="353.710938" xlink:href="#DejaVuSans-67"/>
    </g>
   </g>
   <g id="text_14">
    <!-- CMA ES PP -->
    <defs>
     <path d="M 64.40625 67.28125 
L 64.40625 56.890625 
Q 59.421875 61.53125 53.78125 63.8125 
Q 48.140625 66.109375 41.796875 66.109375 
Q 29.296875 66.109375 22.65625 58.46875 
Q 16.015625 50.828125 16.015625 36.375 
Q 16.015625 21.96875 22.65625 14.328125 
Q 29.296875 6.6875 41.796875 6.6875 
Q 48.140625 6.6875 53.78125 8.984375 
Q 59.421875 11.28125 64.40625 15.921875 
L 64.40625 5.609375 
Q 59.234375 2.09375 53.4375 0.328125 
Q 47.65625 -1.421875 41.21875 -1.421875 
Q 24.65625 -1.421875 15.125 8.703125 
Q 5.609375 18.84375 5.609375 36.375 
Q 5.609375 53.953125 15.125 64.078125 
Q 24.65625 74.21875 41.21875 74.21875 
Q 47.75 74.21875 53.53125 72.484375 
Q 59.328125 70.75 64.40625 67.28125 
z
" id="DejaVuSans-43"/>
     <path d="M 9.8125 72.90625 
L 24.515625 72.90625 
L 43.109375 23.296875 
L 61.8125 72.90625 
L 76.515625 72.90625 
L 76.515625 0 
L 66.890625 0 
L 66.890625 64.015625 
L 48.09375 14.015625 
L 38.1875 14.015625 
L 19.390625 64.015625 
L 19.390625 0 
L 9.8125 0 
z
" id="DejaVuSans-4d"/>
     <path d="M 9.8125 72.90625 
L 55.90625 72.90625 
L 55.90625 64.59375 
L 19.671875 64.59375 
L 19.671875 43.015625 
L 54.390625 43.015625 
L 54.390625 34.71875 
L 19.671875 34.71875 
L 19.671875 8.296875 
L 56.78125 8.296875 
L 56.78125 0 
L 9.8125 0 
z
" id="DejaVuSans-45"/>
     <path d="M 53.515625 70.515625 
L 53.515625 60.890625 
Q 47.90625 63.578125 42.921875 64.890625 
Q 37.9375 66.21875 33.296875 66.21875 
Q 25.25 66.21875 20.875 63.09375 
Q 16.5 59.96875 16.5 54.203125 
Q 16.5 49.359375 19.40625 46.890625 
Q 22.3125 44.4375 30.421875 42.921875 
L 36.375 41.703125 
Q 47.40625 39.59375 52.65625 34.296875 
Q 57.90625 29 57.90625 20.125 
Q 57.90625 9.515625 50.796875 4.046875 
Q 43.703125 -1.421875 29.984375 -1.421875 
Q 24.8125 -1.421875 18.96875 -0.25 
Q 13.140625 0.921875 6.890625 3.21875 
L 6.890625 13.375 
Q 12.890625 10.015625 18.65625 8.296875 
Q 24.421875 6.59375 29.984375 6.59375 
Q 38.421875 6.59375 43.015625 9.90625 
Q 47.609375 13.234375 47.609375 19.390625 
Q 47.609375 24.75 44.3125 27.78125 
Q 41.015625 30.8125 33.5 32.328125 
L 27.484375 33.5 
Q 16.453125 35.6875 11.515625 40.375 
Q 6.59375 45.0625 6.59375 53.421875 
Q 6.59375 63.09375 13.40625 68.65625 
Q 20.21875 74.21875 32.171875 74.21875 
Q 37.3125 74.21875 42.625 73.28125 
Q 47.953125 72.359375 53.515625 70.515625 
z
" id="DejaVuSans-53"/>
     <path d="M 19.671875 64.796875 
L 19.671875 37.40625 
L 32.078125 37.40625 
Q 38.96875 37.40625 42.71875 40.96875 
Q 46.484375 44.53125 46.484375 51.125 
Q 46.484375 57.671875 42.71875 61.234375 
Q 38.96875 64.796875 32.078125 64.796875 
z
M 9.8125 72.90625 
L 32.078125 72.90625 
Q 44.34375 72.90625 50.609375 67.359375 
Q 56.890625 61.8125 56.890625 51.125 
Q 56.890625 40.328125 50.609375 34.8125 
Q 44.34375 29.296875 32.078125 29.296875 
L 19.671875 29.296875 
L 19.671875 0 
L 9.8125 0 
z
" id="DejaVuSans-50"/>
    </defs>
    <g transform="translate(369.18424 156.979466)scale(0.17 -0.17)">
     <use xlink:href="#DejaVuSans-43"/>
     <use x="69.824219" xlink:href="#DejaVuSans-4d"/>
     <use x="156.103516" xlink:href="#DejaVuSans-41"/>
     <use x="224.511719" xlink:href="#DejaVuSans-20"/>
     <use x="256.298828" xlink:href="#DejaVuSans-45"/>
     <use x="319.482422" xlink:href="#DejaVuSans-53"/>
     <use x="382.958984" xlink:href="#DejaVuSans-20"/>
     <use x="414.746094" xlink:href="#DejaVuSans-50"/>
     <use x="475.048828" xlink:href="#DejaVuSans-50"/>
    </g>
   </g>
   <g id="text_15">
    <!-- best 2009 -->
    <defs>
     <path d="M 48.6875 27.296875 
Q 48.6875 37.203125 44.609375 42.84375 
Q 40.53125 48.484375 33.40625 48.484375 
Q 26.265625 48.484375 22.1875 42.84375 
Q 18.109375 37.203125 18.109375 27.296875 
Q 18.109375 17.390625 22.1875 11.75 
Q 26.265625 6.109375 33.40625 6.109375 
Q 40.53125 6.109375 44.609375 11.75 
Q 48.6875 17.390625 48.6875 27.296875 
z
M 18.109375 46.390625 
Q 20.953125 51.265625 25.265625 53.625 
Q 29.59375 56 35.59375 56 
Q 45.5625 56 51.78125 48.09375 
Q 58.015625 40.1875 58.015625 27.296875 
Q 58.015625 14.40625 51.78125 6.484375 
Q 45.5625 -1.421875 35.59375 -1.421875 
Q 29.59375 -1.421875 25.265625 0.953125 
Q 20.953125 3.328125 18.109375 8.203125 
L 18.109375 0 
L 9.078125 0 
L 9.078125 75.984375 
L 18.109375 75.984375 
z
" id="DejaVuSans-62"/>
     <path d="M 10.984375 1.515625 
L 10.984375 10.5 
Q 14.703125 8.734375 18.5 7.8125 
Q 22.3125 6.890625 25.984375 6.890625 
Q 35.75 6.890625 40.890625 13.453125 
Q 46.046875 20.015625 46.78125 33.40625 
Q 43.953125 29.203125 39.59375 26.953125 
Q 35.25 24.703125 29.984375 24.703125 
Q 19.046875 24.703125 12.671875 31.3125 
Q 6.296875 37.9375 6.296875 49.421875 
Q 6.296875 60.640625 12.9375 67.421875 
Q 19.578125 74.21875 30.609375 74.21875 
Q 43.265625 74.21875 49.921875 64.515625 
Q 56.59375 54.828125 56.59375 36.375 
Q 56.59375 19.140625 48.40625 8.859375 
Q 40.234375 -1.421875 26.421875 -1.421875 
Q 22.703125 -1.421875 18.890625 -0.6875 
Q 15.09375 0.046875 10.984375 1.515625 
z
M 30.609375 32.421875 
Q 37.25 32.421875 41.125 36.953125 
Q 45.015625 41.5 45.015625 49.421875 
Q 45.015625 57.28125 41.125 61.84375 
Q 37.25 66.40625 30.609375 66.40625 
Q 23.96875 66.40625 20.09375 61.84375 
Q 16.21875 57.28125 16.21875 49.421875 
Q 16.21875 41.5 20.09375 36.953125 
Q 23.96875 32.421875 30.609375 32.421875 
z
" id="DejaVuSans-39"/>
    </defs>
    <g transform="translate(369.18424 20.091654)scale(0.17 -0.17)">
     <use xlink:href="#DejaVuSans-62"/>
     <use x="63.476562" xlink:href="#DejaVuSans-65"/>
     <use x="125" xlink:href="#DejaVuSans-73"/>
     <use x="177.099609" xlink:href="#DejaVuSans-74"/>
     <use x="216.308594" xlink:href="#DejaVuSans-20"/>
     <use x="248.095703" xlink:href="#DejaVuSans-32"/>
     <use x="311.71875" xlink:href="#DejaVuSans-30"/>
     <use x="375.341797" xlink:href="#DejaVuSans-30"/>
     <use x="438.964844" xlink:href="#DejaVuSans-39"/>
    </g>
   </g>
   <g id="text_16">
    <!-- bbob f15-f19, 5-D -->
    <defs>
     <path d="M 10.796875 72.90625 
L 49.515625 72.90625 
L 49.515625 64.59375 
L 19.828125 64.59375 
L 19.828125 46.734375 
Q 21.96875 47.46875 24.109375 47.828125 
Q 26.265625 48.1875 28.421875 48.1875 
Q 40.625 48.1875 47.75 41.5 
Q 54.890625 34.8125 54.890625 23.390625 
Q 54.890625 11.625 47.5625 5.09375 
Q 40.234375 -1.421875 26.90625 -1.421875 
Q 22.3125 -1.421875 17.546875 -0.640625 
Q 12.796875 0.140625 7.71875 1.703125 
L 7.71875 11.625 
Q 12.109375 9.234375 16.796875 8.0625 
Q 21.484375 6.890625 26.703125 6.890625 
Q 35.15625 6.890625 40.078125 11.328125 
Q 45.015625 15.765625 45.015625 23.390625 
Q 45.015625 31 40.078125 35.4375 
Q 35.15625 39.890625 26.703125 39.890625 
Q 22.75 39.890625 18.8125 39.015625 
Q 14.890625 38.140625 10.796875 36.28125 
z
" id="DejaVuSans-35"/>
     <path d="M 19.671875 64.796875 
L 19.671875 8.109375 
L 31.59375 8.109375 
Q 46.6875 8.109375 53.6875 14.9375 
Q 60.6875 21.78125 60.6875 36.53125 
Q 60.6875 51.171875 53.6875 57.984375 
Q 46.6875 64.796875 31.59375 64.796875 
z
M 9.8125 72.90625 
L 30.078125 72.90625 
Q 51.265625 72.90625 61.171875 64.09375 
Q 71.09375 55.28125 71.09375 36.53125 
Q 71.09375 17.671875 61.125 8.828125 
Q 51.171875 0 30.078125 0 
L 9.8125 0 
z
" id="DejaVuSans-44"/>
    </defs>
    <g transform="translate(58.89048 17.475982)scale(0.102 -0.102)">
     <use xlink:href="#DejaVuSans-62"/>
     <use x="63.476562" xlink:href="#DejaVuSans-62"/>
     <use x="126.953125" xlink:href="#DejaVuSans-6f"/>
     <use x="188.134766" xlink:href="#DejaVuSans-62"/>
     <use x="251.611328" xlink:href="#DejaVuSans-20"/>
     <use x="283.398438" xlink:href="#DejaVuSans-66"/>
     <use x="318.603516" xlink:href="#DejaVuSans-31"/>
     <use x="382.226562" xlink:href="#DejaVuSans-35"/>
     <use x="445.849609" xlink:href="#DejaVuSans-2d"/>
     <use x="481.933594" xlink:href="#DejaVuSans-66"/>
     <use x="517.138672" xlink:href="#DejaVuSans-31"/>
     <use x="580.761719" xlink:href="#DejaVuSans-39"/>
     <use x="644.384766" xlink:href="#DejaVuSans-2c"/>
     <use x="676.171875" xlink:href="#DejaVuSans-20"/>
     <use x="707.958984" xlink:href="#DejaVuSans-35"/>
     <use x="771.582031" xlink:href="#DejaVuSans-2d"/>
     <use x="807.666016" xlink:href="#DejaVuSans-44"/>
    </g>
    <!-- 51 targets: 100..1e-08 -->
    <defs>
     <path d="M 11.71875 12.40625 
L 22.015625 12.40625 
L 22.015625 0 
L 11.71875 0 
z
M 11.71875 51.703125 
L 22.015625 51.703125 
L 22.015625 39.3125 
L 11.71875 39.3125 
z
" id="DejaVuSans-3a"/>
    </defs>
    <g transform="translate(58.89048 28.89775)scale(0.102 -0.102)">
     <use xlink:href="#DejaVuSans-35"/>
     <use x="63.623047" xlink:href="#DejaVuSans-31"/>
     <use x="127.246094" xlink:href="#DejaVuSans-20"/>
     <use x="159.033203" xlink:href="#DejaVuSans-74"/>
     <use x="198.242188" xlink:href="#DejaVuSans-61"/>
     <use x="259.521484" xlink:href="#DejaVuSans-72"/>
     <use x="300.619141" xlink:href="#DejaVuSans-67"/>
     <use x="364.095703" xlink:href="#DejaVuSans-65"/>
     <use x="425.619141" xlink:href="#DejaVuSans-74"/>
     <use x="464.828125" xlink:href="#DejaVuSans-73"/>
     <use x="516.927734" xlink:href="#DejaVuSans-3a"/>
     <use x="550.619141" xlink:href="#DejaVuSans-20"/>
     <use x="582.40625" xlink:href="#DejaVuSans-31"/>
     <use x="646.029297" xlink:href="#DejaVuSans-30"/>
     <use x="709.652344" xlink:href="#DejaVuSans-30"/>
     <use x="773.275391" xlink:href="#DejaVuSans-2e"/>
     <use x="805.0625" xlink:href="#DejaVuSans-2e"/>
     <use x="836.849609" xlink:href="#DejaVuSans-31"/>
     <use x="900.472656" xlink:href="#DejaVuSans-65"/>
     <use x="961.996094" xlink:href="#DejaVuSans-2d"/>
     <use x="998.080078" xlink:href="#DejaVuSans-30"/>
     <use x="1061.703125" xlink:href="#DejaVuSans-38"/>
    </g>
    <!-- 15 instances -->
    <g transform="translate(58.89048 40.319519)scale(0.102 -0.102)">
     <use xlink:href="#DejaVuSans-31"/>
     <use x="63.623047" xlink:href="#DejaVuSans-35"/>
     <use x="127.246094" xlink:href="#DejaVuSans-20"/>
     <use x="159.033203" xlink:href="#DejaVuSans-69"/>
     <use x="186.816406" xlink:href="#DejaVuSans-6e"/>
     <use x="250.195312" xlink:href="#DejaVuSans-73"/>
     <use x="302.294922" xlink:href="#DejaVuSans-74"/>
     <use x="341.503906" xlink:href="#DejaVuSans-61"/>
     <use x="402.783203" xlink:href="#DejaVuSans-6e"/>
     <use x="466.162109" xlink:href="#DejaVuSans-63"/>
     <use x="521.142578" xlink:href="#DejaVuSans-65"/>
     <use x="582.666016" xlink:href="#DejaVuSans-73"/>
    </g>
   </g>
   <g id="text_17">
    <!-- v0.0.0 -->
    <g style="fill:#808080;" transform="translate(178.96275 289.919965)scale(0.1 -0.1)">
     <use xlink:href="#DejaVuSans-76"/>
     <use x="59.179688" xlink:href="#DejaVuSans-30"/>
     <use x="122.802734" xlink:href="#DejaVuSans-2e"/>
     <use x="154.589844" xlink:href="#DejaVuSans-30"/>
     <use x="218.212891" xlink:href="#DejaVuSans-2e"/>
     <use x="250" xlink:href="#DejaVuSans-30"/>
    </g>
   </g>
  </g>
 </g>
 <defs>
  <clipPath id="p966bd6a517">
   <rect height="288.034772" width="277.048" x="56.12" y="6.845228"/>
  </clipPath>
 </defs>
</svg>
