<?xml version="1.0" encoding="utf-8" standalone="no"?>
<!DOCTYPE svg PUBLIC "-//W3C//DTD SVG 1.1//EN"
  "http://www.w3.org/Graphics/SVG/1.1/DTD/svg11.dtd">
<!-- Created with matplotlib (http://matplotlib.org/) -->
<svg height="345pt" version="1.1" viewBox="0 0 460 345" width="460pt" xmlns="http://www.w3.org/2000/svg" xmlns:xlink="http://www.w3.org/1999/xlink">
 <defs>
  <style type="text/css">
*{stroke-linecap:butt;stroke-linejoin:round;}
  </style>
 </defs>
 <g id="figure_1">
  <g id="patch_1">
   <path d="M 0 345.6 
L 460.8 345.6 
L 460.8 0 
L 0 0 
z
" style="fill:#ffffff;"/>
  </g>
  <g id="axes_1">
   <g id="patch_2">
    <path d="M 56.12 294.88 
L 333.168 294.88 
L 333.168 6.845228 
L 56.12 6.845228 
z
" style="fill:#ffffff;"/>
   </g>
   <g id="line2d_1">
    <path d="M -1 287.051449 
L 26.160744 287.051449 
L 26.160744 285.933084 
L 65.240773 285.933084 
L 65.240773 284.81472 
L 79.948502 284.81472 
L 79.948502 282.577991 
L 81.29124 282.577991 
L 81.29124 281.459626 
L 82.350819 281.459626 
L 82.350819 280.341262 
L 83.436778 280.341262 
L 83.436778 279.222897 
L 84.124415 279.222897 
L 84.124415 278.104533 
L 84.704327 278.104533 
L 84.704327 276.986168 
L 85.57784 276.986168 
L 85.57784 275.867804 
L 86.260922 275.867804 
L 86.260922 273.631075 
L 89.005966 273.631075 
L 89.005966 272.51271 
L 90.288839 272.51271 
L 90.288839 271.394346 
L 91.037541 271.394346 
L 91.037541 270.275981 
L 94.816624 270.275981 
L 94.816624 269.157617 
L 100.041893 269.157617 
L 100.041893 268.039252 
L 102.753405 268.039252 
L 102.753405 266.920888 
L 104.995096 266.920888 
L 104.995096 265.802523 
L 107.26528 265.802523 
L 107.26528 264.684159 
L 112.188203 264.684159 
L 112.188203 263.565795 
L 117.133064 263.565795 
L 117.133064 262.44743 
L 127.108238 262.44743 
L 127.108238 261.329066 
L 127.26647 261.329066 
L 127.26647 260.210701 
L 129.914152 260.210701 
L 129.914152 259.092337 
L 130.839786 259.092337 
L 130.839786 257.973972 
L 134.194722 257.973972 
L 134.194722 256.855608 
L 141.00473 256.855608 
L 141.00473 255.737243 
L 147.124087 255.737243 
L 147.124087 254.618879 
L 147.686377 254.618879 
L 147.686377 253.500514 
L 151.317796 253.500514 
L 151.317796 252.38215 
L 152.76743 252.38215 
L 152.76743 251.263785 
L 154.052447 251.263785 
L 154.052447 250.145421 
L 163.896705 250.145421 
L 163.896705 249.027056 
L 169.162903 249.027056 
L 169.162903 247.908692 
L 170.423077 247.908692 
L 170.423077 246.790327 
L 172.754963 246.790327 
L 172.775344 244.553598 
L 173.407623 244.553598 
L 173.407623 243.435234 
L 174.276729 243.435234 
L 174.276729 242.316869 
L 174.421001 242.316869 
L 174.421001 241.198505 
L 185.763287 241.198505 
L 185.763287 240.08014 
L 189.384213 240.08014 
L 189.384213 238.961776 
L 190.69037 238.961776 
L 190.792853 225.541402 
L 190.814092 225.541402 
L 190.920062 213.239393 
L 190.927149 213.239393 
L 191.020686 198.700655 
L 191.040137 198.700655 
L 191.072952 194.227197 
L 191.573904 194.227197 
L 191.573904 193.108832 
L 195.292947 193.108832 
L 195.292947 191.990468 
L 198.428157 191.990468 
L 198.428157 190.872103 
L 204.10503 190.872103 
L 204.10503 189.753739 
L 205.330249 189.753739 
L 205.330249 188.635374 
L 217.162683 188.635374 
L 217.162683 187.51701 
L 222.727828 187.51701 
L 222.828264 160.676262 
L 222.840679 160.676262 
L 222.906503 143.900795 
L 223.063505 143.900795 
L 223.063505 142.78243 
L 226.204068 142.78243 
L 226.233833 140.545702 
L 228.425164 140.545702 
L 228.425164 139.427337 
L 229.915341 139.427337 
L 229.915341 138.308973 
L 232.252393 138.308973 
L 232.252393 137.190608 
L 232.437444 137.190608 
L 232.437444 136.072244 
L 234.408271 136.072244 
L 234.408271 134.953879 
L 234.990275 134.953879 
L 234.990275 133.835515 
L 235.454639 133.835515 
L 235.454639 132.71715 
L 241.631402 132.71715 
L 241.631402 131.598786 
L 244.316835 131.598786 
L 244.316835 130.480421 
L 249.841931 130.480421 
L 249.841931 129.362057 
L 249.958542 129.362057 
L 249.958542 128.243692 
L 250.094995 128.243692 
L 250.151148 126.006963 
L 250.254911 126.006963 
L 250.339045 123.770234 
L 250.400851 123.770234 
L 250.482788 121.533505 
L 250.54623 121.533505 
L 250.615163 119.296776 
L 250.66536 119.296776 
L 250.737758 117.060047 
L 250.816649 117.060047 
L 250.916936 113.704954 
L 250.968368 113.704954 
L 251.016732 111.468225 
L 251.092497 111.468225 
L 251.162904 109.231496 
L 251.225239 109.231496 
L 251.2833 106.994767 
L 251.356628 106.994767 
L 251.356628 105.876403 
L 257.928027 105.876403 
L 257.928027 104.758038 
L 260.530425 104.758038 
L 260.530425 103.639674 
L 268.404617 103.639674 
L 268.404617 102.521309 
L 276.473546 102.521309 
L 276.473546 101.402945 
L 294.222764 101.402945 
L 294.222764 100.28458 
L 294.806863 100.28458 
L 294.806863 99.166216 
L 298.120717 99.166216 
L 298.120717 98.047851 
L 302.176218 98.047851 
L 302.176218 96.929487 
L 309.021664 96.929487 
L 309.027326 93.574393 
L 316.279381 93.574393 
L 316.283625 90.2193 
L 317.541804 90.2193 
L 317.541804 89.100935 
L 328.232247 89.100935 
L 328.2505 48.839814 
L 333.168 48.839814 
L 333.168 48.839814 
" style="fill:none;stroke:#f5deb3;stroke-linecap:square;stroke-width:4;"/>
   </g>
   <g id="line2d_2">
    <defs>
     <path d="M -0 7.778175 
L 7.778175 0 
L 0 -7.778175 
L -7.778175 -0 
z
" id="md12b632a98" style="stroke:#f5deb3;stroke-linejoin:miter;stroke-width:1.5;"/>
    </defs>
    <g>
     <use style="fill:#f5deb3;stroke:#f5deb3;stroke-linejoin:miter;stroke-width:1.5;" x="117.133064" xlink:href="#md12b632a98" y="262.44743"/>
     <use style="fill:#f5deb3;stroke:#f5deb3;stroke-linejoin:miter;stroke-width:1.5;" x="190.792853" xlink:href="#md12b632a98" y="225.541402"/>
     <use style="fill:#f5deb3;stroke:#f5deb3;stroke-linejoin:miter;stroke-width:1.5;" x="251.092497" xlink:href="#md12b632a98" y="111.468225"/>
     <use style="fill:#f5deb3;stroke:#f5deb3;stroke-linejoin:miter;stroke-width:1.5;" x="328.245419" xlink:href="#md12b632a98" y="60.023459"/>
     <use style="fill:#f5deb3;stroke:#f5deb3;stroke-linejoin:miter;stroke-width:1.5;" x="328.2505" xlink:href="#md12b632a98" y="48.839814"/>
     <use style="fill:#f5deb3;stroke:#f5deb3;stroke-linejoin:miter;stroke-width:1.5;" x="333.168" xlink:href="#md12b632a98" y="48.839814"/>
    </g>
   </g>
   <g id="line2d_3">
    <path style="fill:none;stroke:#f5deb3;stroke-linecap:square;stroke-width:4;"/>
    <g/>
   </g>
   <g id="line2d_4">
    <path d="M 333.168 48.839814 
L 363.64328 15.400716 
" style="fill:none;stroke:#f5deb3;stroke-linecap:square;stroke-width:4;"/>
    <g>
     <use style="fill:#f5deb3;stroke:#f5deb3;stroke-linejoin:miter;stroke-width:1.5;" x="333.168" xlink:href="#md12b632a98" y="48.839814"/>
     <use style="fill:#f5deb3;stroke:#f5deb3;stroke-linejoin:miter;stroke-width:1.5;" x="363.64328" xlink:href="#md12b632a98" y="15.400716"/>
    </g>
   </g>
   <g id="matplotlib.axis_1">
    <g id="xtick_1">
     <g id="line2d_5">
      <path clip-path="url(#p7f123adeaa)" d="M 56.12 294.88 
L 56.12 6.845228 
" style="fill:none;stroke:#b0b0b0;stroke-linecap:square;stroke-width:0.8;"/>
     </g>
     <g id="line2d_6">
      <defs>
       <path d="M 0 0 
L 0 3.5 
" id="m67d9342304" style="stroke:#000000;stroke-width:0.8;"/>
      </defs>
      <g>
       <use style="stroke:#000000;stroke-width:0.8;" x="56.12" xlink:href="#m67d9342304" y="294.88"/>
      </g>
     </g>
     <g id="text_1">
      <!-- 0 -->
      <defs>
       <path d="M 31.78125 66.40625 
Q 24.171875 66.40625 20.328125 58.90625 
Q 16.5 51.421875 16.5 36.375 
Q 16.5 21.390625 20.328125 13.890625 
Q 24.171875 6.390625 31.78125 6.390625 
Q 39.453125 6.390625 43.28125 13.890625 
Q 47.125 21.390625 47.125 36.375 
Q 47.125 51.421875 43.28125 58.90625 
Q 39.453125 66.40625 31.78125 66.40625 
z
M 31.78125 74.21875 
Q 44.046875 74.21875 50.515625 64.515625 
Q 56.984375 54.828125 56.984375 36.375 
Q 56.984375 17.96875 50.515625 8.265625 
Q 44.046875 -1.421875 31.78125 -1.421875 
Q 19.53125 -1.421875 13.0625 8.265625 
Q 6.59375 17.96875 6.59375 36.375 
Q 6.59375 54.828125 13.0625 64.515625 
Q 19.53125 74.21875 31.78125 74.21875 
z
" id="DejaVuSans-30"/>
      </defs>
      <g transform="translate(49.7575 317.076875)scale(0.2 -0.2)">
       <use xlink:href="#DejaVuSans-30"/>
      </g>
     </g>
    </g>
    <g id="xtick_2">
     <g id="line2d_7">
      <path clip-path="url(#p7f123adeaa)" d="M 135.276571 294.88 
L 135.276571 6.845228 
" style="fill:none;stroke:#b0b0b0;stroke-linecap:square;stroke-width:0.8;"/>
     </g>
     <g id="line2d_8">
      <g>
       <use style="stroke:#000000;stroke-width:0.8;" x="135.276571" xlink:href="#m67d9342304" y="294.88"/>
      </g>
     </g>
     <g id="text_2">
      <!-- 2 -->
      <defs>
       <path d="M 19.1875 8.296875 
L 53.609375 8.296875 
L 53.609375 0 
L 7.328125 0 
L 7.328125 8.296875 
Q 12.9375 14.109375 22.625 23.890625 
Q 32.328125 33.6875 34.8125 36.53125 
Q 39.546875 41.84375 41.421875 45.53125 
Q 43.3125 49.21875 43.3125 52.78125 
Q 43.3125 58.59375 39.234375 62.25 
Q 35.15625 65.921875 28.609375 65.921875 
Q 23.96875 65.921875 18.8125 64.3125 
Q 13.671875 62.703125 7.8125 59.421875 
L 7.8125 69.390625 
Q 13.765625 71.78125 18.9375 73 
Q 24.125 74.21875 28.421875 74.21875 
Q 39.75 74.21875 46.484375 68.546875 
Q 53.21875 62.890625 53.21875 53.421875 
Q 53.21875 48.921875 51.53125 44.890625 
Q 49.859375 40.875 45.40625 35.40625 
Q 44.1875 33.984375 37.640625 27.21875 
Q 31.109375 20.453125 19.1875 8.296875 
z
" id="DejaVuSans-32"/>
      </defs>
      <g transform="translate(128.914071 317.076875)scale(0.2 -0.2)">
       <use xlink:href="#DejaVuSans-32"/>
      </g>
     </g>
    </g>
    <g id="xtick_3">
     <g id="line2d_9">
      <path clip-path="url(#p7f123adeaa)" d="M 214.433143 294.88 
L 214.433143 6.845228 
" style="fill:none;stroke:#b0b0b0;stroke-linecap:square;stroke-width:0.8;"/>
     </g>
     <g id="line2d_10">
      <g>
       <use style="stroke:#000000;stroke-width:0.8;" x="214.433143" xlink:href="#m67d9342304" y="294.88"/>
      </g>
     </g>
     <g id="text_3">
      <!-- 4 -->
      <defs>
       <path d="M 37.796875 64.3125 
L 12.890625 25.390625 
L 37.796875 25.390625 
z
M 35.203125 72.90625 
L 47.609375 72.90625 
L 47.609375 25.390625 
L 58.015625 25.390625 
L 58.015625 17.1875 
L 47.609375 17.1875 
L 47.609375 0 
L 37.796875 0 
L 37.796875 17.1875 
L 4.890625 17.1875 
L 4.890625 26.703125 
z
" id="DejaVuSans-34"/>
      </defs>
      <g transform="translate(208.070643 317.076875)scale(0.2 -0.2)">
       <use xlink:href="#DejaVuSans-34"/>
      </g>
     </g>
    </g>
    <g id="xtick_4">
     <g id="line2d_11">
      <path clip-path="url(#p7f123adeaa)" d="M 293.589714 294.88 
L 293.589714 6.845228 
" style="fill:none;stroke:#b0b0b0;stroke-linecap:square;stroke-width:0.8;"/>
     </g>
     <g id="line2d_12">
      <g>
       <use style="stroke:#000000;stroke-width:0.8;" x="293.589714" xlink:href="#m67d9342304" y="294.88"/>
      </g>
     </g>
     <g id="text_4">
      <!-- 6 -->
      <defs>
       <path d="M 33.015625 40.375 
Q 26.375 40.375 22.484375 35.828125 
Q 18.609375 31.296875 18.609375 23.390625 
Q 18.609375 15.53125 22.484375 10.953125 
Q 26.375 6.390625 33.015625 6.390625 
Q 39.65625 6.390625 43.53125 10.953125 
Q 47.40625 15.53125 47.40625 23.390625 
Q 47.40625 31.296875 43.53125 35.828125 
Q 39.65625 40.375 33.015625 40.375 
z
M 52.59375 71.296875 
L 52.59375 62.3125 
Q 48.875 64.0625 45.09375 64.984375 
Q 41.3125 65.921875 37.59375 65.921875 
Q 27.828125 65.921875 22.671875 59.328125 
Q 17.53125 52.734375 16.796875 39.40625 
Q 19.671875 43.65625 24.015625 45.921875 
Q 28.375 48.1875 33.59375 48.1875 
Q 44.578125 48.1875 50.953125 41.515625 
Q 57.328125 34.859375 57.328125 23.390625 
Q 57.328125 12.15625 50.6875 5.359375 
Q 44.046875 -1.421875 33.015625 -1.421875 
Q 20.359375 -1.421875 13.671875 8.265625 
Q 6.984375 17.96875 6.984375 36.375 
Q 6.984375 53.65625 15.1875 63.9375 
Q 23.390625 74.21875 37.203125 74.21875 
Q 40.921875 74.21875 44.703125 73.484375 
Q 48.484375 72.75 52.59375 71.296875 
z
" id="DejaVuSans-36"/>
      </defs>
      <g transform="translate(287.227214 317.076875)scale(0.2 -0.2)">
       <use xlink:href="#DejaVuSans-36"/>
      </g>
     </g>
    </g>
    <g id="xtick_5">
     <g id="line2d_13">
      <path clip-path="url(#p7f123adeaa)" d="M 56.12 294.88 
L 56.12 6.845228 
" style="fill:none;stroke:#b0b0b0;stroke-linecap:square;stroke-width:0.8;"/>
     </g>
     <g id="line2d_14">
      <defs>
       <path d="M 0 0 
L 0 2 
" id="m802489e1cb" style="stroke:#000000;stroke-width:0.6;"/>
      </defs>
      <g>
       <use style="stroke:#000000;stroke-width:0.6;" x="56.12" xlink:href="#m802489e1cb" y="294.88"/>
      </g>
     </g>
    </g>
    <g id="xtick_6">
     <g id="line2d_15">
      <path clip-path="url(#p7f123adeaa)" d="M 95.698286 294.88 
L 95.698286 6.845228 
" style="fill:none;stroke:#b0b0b0;stroke-linecap:square;stroke-width:0.8;"/>
     </g>
     <g id="line2d_16">
      <g>
       <use style="stroke:#000000;stroke-width:0.6;" x="95.698286" xlink:href="#m802489e1cb" y="294.88"/>
      </g>
     </g>
    </g>
    <g id="xtick_7">
     <g id="line2d_17">
      <path clip-path="url(#p7f123adeaa)" d="M 135.276571 294.88 
L 135.276571 6.845228 
" style="fill:none;stroke:#b0b0b0;stroke-linecap:square;stroke-width:0.8;"/>
     </g>
     <g id="line2d_18">
      <g>
       <use style="stroke:#000000;stroke-width:0.6;" x="135.276571" xlink:href="#m802489e1cb" y="294.88"/>
      </g>
     </g>
    </g>
    <g id="xtick_8">
     <g id="line2d_19">
      <path clip-path="url(#p7f123adeaa)" d="M 174.854857 294.88 
L 174.854857 6.845228 
" style="fill:none;stroke:#b0b0b0;stroke-linecap:square;stroke-width:0.8;"/>
     </g>
     <g id="line2d_20">
      <g>
       <use style="stroke:#000000;stroke-width:0.6;" x="174.854857" xlink:href="#m802489e1cb" y="294.88"/>
      </g>
     </g>
    </g>
    <g id="xtick_9">
     <g id="line2d_21">
      <path clip-path="url(#p7f123adeaa)" d="M 214.433143 294.88 
L 214.433143 6.845228 
" style="fill:none;stroke:#b0b0b0;stroke-linecap:square;stroke-width:0.8;"/>
     </g>
     <g id="line2d_22">
      <g>
       <use style="stroke:#000000;stroke-width:0.6;" x="214.433143" xlink:href="#m802489e1cb" y="294.88"/>
      </g>
     </g>
    </g>
    <g id="xtick_10">
     <g id="line2d_23">
      <path clip-path="url(#p7f123adeaa)" d="M 254.011429 294.88 
L 254.011429 6.845228 
" style="fill:none;stroke:#b0b0b0;stroke-linecap:square;stroke-width:0.8;"/>
     </g>
     <g id="line2d_24">
      <g>
       <use style="stroke:#000000;stroke-width:0.6;" x="254.011429" xlink:href="#m802489e1cb" y="294.88"/>
      </g>
     </g>
    </g>
    <g id="xtick_11">
     <g id="line2d_25">
      <path clip-path="url(#p7f123adeaa)" d="M 293.589714 294.88 
L 293.589714 6.845228 
" style="fill:none;stroke:#b0b0b0;stroke-linecap:square;stroke-width:0.8;"/>
     </g>
     <g id="line2d_26">
      <g>
       <use style="stroke:#000000;stroke-width:0.6;" x="293.589714" xlink:href="#m802489e1cb" y="294.88"/>
      </g>
     </g>
    </g>
    <g id="xtick_12">
     <g id="line2d_27">
      <path clip-path="url(#p7f123adeaa)" d="M 333.168 294.88 
L 333.168 6.845228 
" style="fill:none;stroke:#b0b0b0;stroke-linecap:square;stroke-width:0.8;"/>
     </g>
     <g id="line2d_28">
      <g>
       <use style="stroke:#000000;stroke-width:0.6;" x="333.168" xlink:href="#m802489e1cb" y="294.88"/>
      </g>
     </g>
    </g>
    <g id="text_5">
     <!-- log10(# f-evals / dimension) -->
     <defs>
      <path d="M 9.421875 75.984375 
L 18.40625 75.984375 
L 18.40625 0 
L 9.421875 0 
z
" id="DejaVuSans-6c"/>
      <path d="M 30.609375 48.390625 
Q 23.390625 48.390625 19.1875 42.75 
Q 14.984375 37.109375 14.984375 27.296875 
Q 14.984375 17.484375 19.15625 11.84375 
Q 23.34375 6.203125 30.609375 6.203125 
Q 37.796875 6.203125 41.984375 11.859375 
Q 46.1875 17.53125 46.1875 27.296875 
Q 46.1875 37.015625 41.984375 42.703125 
Q 37.796875 48.390625 30.609375 48.390625 
z
M 30.609375 56 
Q 42.328125 56 49.015625 48.375 
Q 55.71875 40.765625 55.71875 27.296875 
Q 55.71875 13.875 49.015625 6.21875 
Q 42.328125 -1.421875 30.609375 -1.421875 
Q 18.84375 -1.421875 12.171875 6.21875 
Q 5.515625 13.875 5.515625 27.296875 
Q 5.515625 40.765625 12.171875 48.375 
Q 18.84375 56 30.609375 56 
z
" id="DejaVuSans-6f"/>
      <path d="M 45.40625 27.984375 
Q 45.40625 37.75 41.375 43.109375 
Q 37.359375 48.484375 30.078125 48.484375 
Q 22.859375 48.484375 18.828125 43.109375 
Q 14.796875 37.75 14.796875 27.984375 
Q 14.796875 18.265625 18.828125 12.890625 
Q 22.859375 7.515625 30.078125 7.515625 
Q 37.359375 7.515625 41.375 12.890625 
Q 45.40625 18.265625 45.40625 27.984375 
z
M 54.390625 6.78125 
Q 54.390625 -7.171875 48.1875 -13.984375 
Q 42 -20.796875 29.203125 -20.796875 
Q 24.46875 -20.796875 20.265625 -20.09375 
Q 16.0625 -19.390625 12.109375 -17.921875 
L 12.109375 -9.1875 
Q 16.0625 -11.328125 19.921875 -12.34375 
Q 23.78125 -13.375 27.78125 -13.375 
Q 36.625 -13.375 41.015625 -8.765625 
Q 45.40625 -4.15625 45.40625 5.171875 
L 45.40625 9.625 
Q 42.625 4.78125 38.28125 2.390625 
Q 33.9375 0 27.875 0 
Q 17.828125 0 11.671875 7.65625 
Q 5.515625 15.328125 5.515625 27.984375 
Q 5.515625 40.671875 11.671875 48.328125 
Q 17.828125 56 27.875 56 
Q 33.9375 56 38.28125 53.609375 
Q 42.625 51.21875 45.40625 46.390625 
L 45.40625 54.6875 
L 54.390625 54.6875 
z
" id="DejaVuSans-67"/>
      <path d="M 12.40625 8.296875 
L 28.515625 8.296875 
L 28.515625 63.921875 
L 10.984375 60.40625 
L 10.984375 69.390625 
L 28.421875 72.90625 
L 38.28125 72.90625 
L 38.28125 8.296875 
L 54.390625 8.296875 
L 54.390625 0 
L 12.40625 0 
z
" id="DejaVuSans-31"/>
      <path d="M 31 75.875 
Q 24.46875 64.65625 21.28125 53.65625 
Q 18.109375 42.671875 18.109375 31.390625 
Q 18.109375 20.125 21.3125 9.0625 
Q 24.515625 -2 31 -13.1875 
L 23.1875 -13.1875 
Q 15.875 -1.703125 12.234375 9.375 
Q 8.59375 20.453125 8.59375 31.390625 
Q 8.59375 42.28125 12.203125 53.3125 
Q 15.828125 64.359375 23.1875 75.875 
z
" id="DejaVuSans-28"/>
      <path d="M 51.125 44 
L 36.921875 44 
L 32.8125 27.6875 
L 47.125 27.6875 
z
M 43.796875 71.78125 
L 38.71875 51.515625 
L 52.984375 51.515625 
L 58.109375 71.78125 
L 65.921875 71.78125 
L 60.890625 51.515625 
L 76.125 51.515625 
L 76.125 44 
L 58.984375 44 
L 54.984375 27.6875 
L 70.515625 27.6875 
L 70.515625 20.21875 
L 53.078125 20.21875 
L 48 0 
L 40.1875 0 
L 45.21875 20.21875 
L 30.90625 20.21875 
L 25.875 0 
L 18.015625 0 
L 23.09375 20.21875 
L 7.71875 20.21875 
L 7.71875 27.6875 
L 24.90625 27.6875 
L 29 44 
L 13.28125 44 
L 13.28125 51.515625 
L 30.90625 51.515625 
L 35.890625 71.78125 
z
" id="DejaVuSans-23"/>
      <path id="DejaVuSans-20"/>
      <path d="M 37.109375 75.984375 
L 37.109375 68.5 
L 28.515625 68.5 
Q 23.6875 68.5 21.796875 66.546875 
Q 19.921875 64.59375 19.921875 59.515625 
L 19.921875 54.6875 
L 34.71875 54.6875 
L 34.71875 47.703125 
L 19.921875 47.703125 
L 19.921875 0 
L 10.890625 0 
L 10.890625 47.703125 
L 2.296875 47.703125 
L 2.296875 54.6875 
L 10.890625 54.6875 
L 10.890625 58.5 
Q 10.890625 67.625 15.140625 71.796875 
Q 19.390625 75.984375 28.609375 75.984375 
z
" id="DejaVuSans-66"/>
      <path d="M 4.890625 31.390625 
L 31.203125 31.390625 
L 31.203125 23.390625 
L 4.890625 23.390625 
z
" id="DejaVuSans-2d"/>
      <path d="M 56.203125 29.59375 
L 56.203125 25.203125 
L 14.890625 25.203125 
Q 15.484375 15.921875 20.484375 11.0625 
Q 25.484375 6.203125 34.421875 6.203125 
Q 39.59375 6.203125 44.453125 7.46875 
Q 49.3125 8.734375 54.109375 11.28125 
L 54.109375 2.78125 
Q 49.265625 0.734375 44.1875 -0.34375 
Q 39.109375 -1.421875 33.890625 -1.421875 
Q 20.796875 -1.421875 13.15625 6.1875 
Q 5.515625 13.8125 5.515625 26.8125 
Q 5.515625 40.234375 12.765625 48.109375 
Q 20.015625 56 32.328125 56 
Q 43.359375 56 49.78125 48.890625 
Q 56.203125 41.796875 56.203125 29.59375 
z
M 47.21875 32.234375 
Q 47.125 39.59375 43.09375 43.984375 
Q 39.0625 48.390625 32.421875 48.390625 
Q 24.90625 48.390625 20.390625 44.140625 
Q 15.875 39.890625 15.1875 32.171875 
z
" id="DejaVuSans-65"/>
      <path d="M 2.984375 54.6875 
L 12.5 54.6875 
L 29.59375 8.796875 
L 46.6875 54.6875 
L 56.203125 54.6875 
L 35.6875 0 
L 23.484375 0 
z
" id="DejaVuSans-76"/>
      <path d="M 34.28125 27.484375 
Q 23.390625 27.484375 19.1875 25 
Q 14.984375 22.515625 14.984375 16.5 
Q 14.984375 11.71875 18.140625 8.90625 
Q 21.296875 6.109375 26.703125 6.109375 
Q 34.1875 6.109375 38.703125 11.40625 
Q 43.21875 16.703125 43.21875 25.484375 
L 43.21875 27.484375 
z
M 52.203125 31.203125 
L 52.203125 0 
L 43.21875 0 
L 43.21875 8.296875 
Q 40.140625 3.328125 35.546875 0.953125 
Q 30.953125 -1.421875 24.3125 -1.421875 
Q 15.921875 -1.421875 10.953125 3.296875 
Q 6 8.015625 6 15.921875 
Q 6 25.140625 12.171875 29.828125 
Q 18.359375 34.515625 30.609375 34.515625 
L 43.21875 34.515625 
L 43.21875 35.40625 
Q 43.21875 41.609375 39.140625 45 
Q 35.0625 48.390625 27.6875 48.390625 
Q 23 48.390625 18.546875 47.265625 
Q 14.109375 46.140625 10.015625 43.890625 
L 10.015625 52.203125 
Q 14.9375 54.109375 19.578125 55.046875 
Q 24.21875 56 28.609375 56 
Q 40.484375 56 46.34375 49.84375 
Q 52.203125 43.703125 52.203125 31.203125 
z
" id="DejaVuSans-61"/>
      <path d="M 44.28125 53.078125 
L 44.28125 44.578125 
Q 40.484375 46.53125 36.375 47.5 
Q 32.28125 48.484375 27.875 48.484375 
Q 21.1875 48.484375 17.84375 46.4375 
Q 14.5 44.390625 14.5 40.28125 
Q 14.5 37.15625 16.890625 35.375 
Q 19.28125 33.59375 26.515625 31.984375 
L 29.59375 31.296875 
Q 39.15625 29.25 43.1875 25.515625 
Q 47.21875 21.78125 47.21875 15.09375 
Q 47.21875 7.46875 41.1875 3.015625 
Q 35.15625 -1.421875 24.609375 -1.421875 
Q 20.21875 -1.421875 15.453125 -0.5625 
Q 10.6875 0.296875 5.421875 2 
L 5.421875 11.28125 
Q 10.40625 8.6875 15.234375 7.390625 
Q 20.0625 6.109375 24.8125 6.109375 
Q 31.15625 6.109375 34.5625 8.28125 
Q 37.984375 10.453125 37.984375 14.40625 
Q 37.984375 18.0625 35.515625 20.015625 
Q 33.0625 21.96875 24.703125 23.78125 
L 21.578125 24.515625 
Q 13.234375 26.265625 9.515625 29.90625 
Q 5.8125 33.546875 5.8125 39.890625 
Q 5.8125 47.609375 11.28125 51.796875 
Q 16.75 56 26.8125 56 
Q 31.78125 56 36.171875 55.265625 
Q 40.578125 54.546875 44.28125 53.078125 
z
" id="DejaVuSans-73"/>
      <path d="M 25.390625 72.90625 
L 33.6875 72.90625 
L 8.296875 -9.28125 
L 0 -9.28125 
z
" id="DejaVuSans-2f"/>
      <path d="M 45.40625 46.390625 
L 45.40625 75.984375 
L 54.390625 75.984375 
L 54.390625 0 
L 45.40625 0 
L 45.40625 8.203125 
Q 42.578125 3.328125 38.25 0.953125 
Q 33.9375 -1.421875 27.875 -1.421875 
Q 17.96875 -1.421875 11.734375 6.484375 
Q 5.515625 14.40625 5.515625 27.296875 
Q 5.515625 40.1875 11.734375 48.09375 
Q 17.96875 56 27.875 56 
Q 33.9375 56 38.25 53.625 
Q 42.578125 51.265625 45.40625 46.390625 
z
M 14.796875 27.296875 
Q 14.796875 17.390625 18.875 11.75 
Q 22.953125 6.109375 30.078125 6.109375 
Q 37.203125 6.109375 41.296875 11.75 
Q 45.40625 17.390625 45.40625 27.296875 
Q 45.40625 37.203125 41.296875 42.84375 
Q 37.203125 48.484375 30.078125 48.484375 
Q 22.953125 48.484375 18.875 42.84375 
Q 14.796875 37.203125 14.796875 27.296875 
z
" id="DejaVuSans-64"/>
      <path d="M 9.421875 54.6875 
L 18.40625 54.6875 
L 18.40625 0 
L 9.421875 0 
z
M 9.421875 75.984375 
L 18.40625 75.984375 
L 18.40625 64.59375 
L 9.421875 64.59375 
z
" id="DejaVuSans-69"/>
      <path d="M 52 44.1875 
Q 55.375 50.25 60.0625 53.125 
Q 64.75 56 71.09375 56 
Q 79.640625 56 84.28125 50.015625 
Q 88.921875 44.046875 88.921875 33.015625 
L 88.921875 0 
L 79.890625 0 
L 79.890625 32.71875 
Q 79.890625 40.578125 77.09375 44.375 
Q 74.3125 48.1875 68.609375 48.1875 
Q 61.625 48.1875 57.5625 43.546875 
Q 53.515625 38.921875 53.515625 30.90625 
L 53.515625 0 
L 44.484375 0 
L 44.484375 32.71875 
Q 44.484375 40.625 41.703125 44.40625 
Q 38.921875 48.1875 33.109375 48.1875 
Q 26.21875 48.1875 22.15625 43.53125 
Q 18.109375 38.875 18.109375 30.90625 
L 18.109375 0 
L 9.078125 0 
L 9.078125 54.6875 
L 18.109375 54.6875 
L 18.109375 46.1875 
Q 21.1875 51.21875 25.484375 53.609375 
Q 29.78125 56 35.6875 56 
Q 41.65625 56 45.828125 52.96875 
Q 50 49.953125 52 44.1875 
z
" id="DejaVuSans-6d"/>
      <path d="M 54.890625 33.015625 
L 54.890625 0 
L 45.90625 0 
L 45.90625 32.71875 
Q 45.90625 40.484375 42.875 44.328125 
Q 39.84375 48.1875 33.796875 48.1875 
Q 26.515625 48.1875 22.3125 43.546875 
Q 18.109375 38.921875 18.109375 30.90625 
L 18.109375 0 
L 9.078125 0 
L 9.078125 54.6875 
L 18.109375 54.6875 
L 18.109375 46.1875 
Q 21.34375 51.125 25.703125 53.5625 
Q 30.078125 56 35.796875 56 
Q 45.21875 56 50.046875 50.171875 
Q 54.890625 44.34375 54.890625 33.015625 
z
" id="DejaVuSans-6e"/>
      <path d="M 8.015625 75.875 
L 15.828125 75.875 
Q 23.140625 64.359375 26.78125 53.3125 
Q 30.421875 42.28125 30.421875 31.390625 
Q 30.421875 20.453125 26.78125 9.375 
Q 23.140625 -1.703125 15.828125 -13.1875 
L 8.015625 -13.1875 
Q 14.5 -2 17.703125 9.0625 
Q 20.90625 20.125 20.90625 31.390625 
Q 20.90625 42.671875 17.703125 53.65625 
Q 14.5 64.65625 8.015625 75.875 
z
" id="DejaVuSans-29"/>
     </defs>
     <g transform="translate(73.803219 338.153594)scale(0.17 -0.17)">
      <use xlink:href="#DejaVuSans-6c"/>
      <use x="27.783203" xlink:href="#DejaVuSans-6f"/>
      <use x="88.964844" xlink:href="#DejaVuSans-67"/>
      <use x="152.441406" xlink:href="#DejaVuSans-31"/>
      <use x="216.064453" xlink:href="#DejaVuSans-30"/>
      <use x="279.6875" xlink:href="#DejaVuSans-28"/>
      <use x="318.701172" xlink:href="#DejaVuSans-23"/>
      <use x="402.490234" xlink:href="#DejaVuSans-20"/>
      <use x="434.277344" xlink:href="#DejaVuSans-66"/>
      <use x="469.404297" xlink:href="#DejaVuSans-2d"/>
      <use x="505.488281" xlink:href="#DejaVuSans-65"/>
      <use x="567.011719" xlink:href="#DejaVuSans-76"/>
      <use x="626.191406" xlink:href="#DejaVuSans-61"/>
      <use x="687.470703" xlink:href="#DejaVuSans-6c"/>
      <use x="715.253906" xlink:href="#DejaVuSans-73"/>
      <use x="767.353516" xlink:href="#DejaVuSans-20"/>
      <use x="799.140625" xlink:href="#DejaVuSans-2f"/>
      <use x="832.832031" xlink:href="#DejaVuSans-20"/>
      <use x="864.619141" xlink:href="#DejaVuSans-64"/>
      <use x="928.095703" xlink:href="#DejaVuSans-69"/>
      <use x="955.878906" xlink:href="#DejaVuSans-6d"/>
      <use x="1053.291016" xlink:href="#DejaVuSans-65"/>
      <use x="1114.814453" xlink:href="#DejaVuSans-6e"/>
      <use x="1178.193359" xlink:href="#DejaVuSans-73"/>
      <use x="1230.292969" xlink:href="#DejaVuSans-69"/>
      <use x="1258.076172" xlink:href="#DejaVuSans-6f"/>
      <use x="1319.257812" xlink:href="#DejaVuSans-6e"/>
      <use x="1382.636719" xlink:href="#DejaVuSans-29"/>
     </g>
    </g>
   </g>
   <g id="matplotlib.axis_2">
    <g id="ytick_1">
     <g id="line2d_29">
      <path clip-path="url(#p7f123adeaa)" d="M 56.12 294.88 
L 333.168 294.88 
" style="fill:none;stroke:#b0b0b0;stroke-linecap:square;stroke-width:0.8;"/>
     </g>
     <g id="line2d_30">
      <defs>
       <path d="M 0 0 
L -3.5 0 
" id="mebd532d176" style="stroke:#000000;stroke-width:0.8;"/>
      </defs>
      <g>
       <use style="stroke:#000000;stroke-width:0.8;" x="56.12" xlink:href="#mebd532d176" y="294.88"/>
      </g>
     </g>
     <g id="text_6">
      <!-- 0.0 -->
      <defs>
       <path d="M 10.6875 12.40625 
L 21 12.40625 
L 21 0 
L 10.6875 0 
z
" id="DejaVuSans-2e"/>
      </defs>
      <g transform="translate(23.675 300.95875)scale(0.16 -0.16)">
       <use xlink:href="#DejaVuSans-30"/>
       <use x="63.623047" xlink:href="#DejaVuSans-2e"/>
       <use x="95.410156" xlink:href="#DejaVuSans-30"/>
      </g>
     </g>
    </g>
    <g id="ytick_2">
     <g id="line2d_31">
      <path clip-path="url(#p7f123adeaa)" d="M 56.12 237.843411 
L 333.168 237.843411 
" style="fill:none;stroke:#b0b0b0;stroke-linecap:square;stroke-width:0.8;"/>
     </g>
     <g id="line2d_32">
      <g>
       <use style="stroke:#000000;stroke-width:0.8;" x="56.12" xlink:href="#mebd532d176" y="237.843411"/>
      </g>
     </g>
     <g id="text_7">
      <!-- 0.2 -->
      <g transform="translate(23.675 243.922161)scale(0.16 -0.16)">
       <use xlink:href="#DejaVuSans-30"/>
       <use x="63.623047" xlink:href="#DejaVuSans-2e"/>
       <use x="95.410156" xlink:href="#DejaVuSans-32"/>
      </g>
     </g>
    </g>
    <g id="ytick_3">
     <g id="line2d_33">
      <path clip-path="url(#p7f123adeaa)" d="M 56.12 180.806823 
L 333.168 180.806823 
" style="fill:none;stroke:#b0b0b0;stroke-linecap:square;stroke-width:0.8;"/>
     </g>
     <g id="line2d_34">
      <g>
       <use style="stroke:#000000;stroke-width:0.8;" x="56.12" xlink:href="#mebd532d176" y="180.806823"/>
      </g>
     </g>
     <g id="text_8">
      <!-- 0.4 -->
      <g transform="translate(23.675 186.885573)scale(0.16 -0.16)">
       <use xlink:href="#DejaVuSans-30"/>
       <use x="63.623047" xlink:href="#DejaVuSans-2e"/>
       <use x="95.410156" xlink:href="#DejaVuSans-34"/>
      </g>
     </g>
    </g>
    <g id="ytick_4">
     <g id="line2d_35">
      <path clip-path="url(#p7f123adeaa)" d="M 56.12 123.770234 
L 333.168 123.770234 
" style="fill:none;stroke:#b0b0b0;stroke-linecap:square;stroke-width:0.8;"/>
     </g>
     <g id="line2d_36">
      <g>
       <use style="stroke:#000000;stroke-width:0.8;" x="56.12" xlink:href="#mebd532d176" y="123.770234"/>
      </g>
     </g>
     <g id="text_9">
      <!-- 0.6 -->
      <g transform="translate(23.675 129.848984)scale(0.16 -0.16)">
       <use xlink:href="#DejaVuSans-30"/>
       <use x="63.623047" xlink:href="#DejaVuSans-2e"/>
       <use x="95.410156" xlink:href="#DejaVuSans-36"/>
      </g>
     </g>
    </g>
    <g id="ytick_5">
     <g id="line2d_37">
      <path clip-path="url(#p7f123adeaa)" d="M 56.12 66.733646 
L 333.168 66.733646 
" style="fill:none;stroke:#b0b0b0;stroke-linecap:square;stroke-width:0.8;"/>
     </g>
     <g id="line2d_38">
      <g>
       <use style="stroke:#000000;stroke-width:0.8;" x="56.12" xlink:href="#mebd532d176" y="66.733646"/>
      </g>
     </g>
     <g id="text_10">
      <!-- 0.8 -->
      <defs>
       <path d="M 31.78125 34.625 
Q 24.75 34.625 20.71875 30.859375 
Q 16.703125 27.09375 16.703125 20.515625 
Q 16.703125 13.921875 20.71875 10.15625 
Q 24.75 6.390625 31.78125 6.390625 
Q 38.8125 6.390625 42.859375 10.171875 
Q 46.921875 13.96875 46.921875 20.515625 
Q 46.921875 27.09375 42.890625 30.859375 
Q 38.875 34.625 31.78125 34.625 
z
M 21.921875 38.8125 
Q 15.578125 40.375 12.03125 44.71875 
Q 8.5 49.078125 8.5 55.328125 
Q 8.5 64.0625 14.71875 69.140625 
Q 20.953125 74.21875 31.78125 74.21875 
Q 42.671875 74.21875 48.875 69.140625 
Q 55.078125 64.0625 55.078125 55.328125 
Q 55.078125 49.078125 51.53125 44.71875 
Q 48 40.375 41.703125 38.8125 
Q 48.828125 37.15625 52.796875 32.3125 
Q 56.78125 27.484375 56.78125 20.515625 
Q 56.78125 9.90625 50.3125 4.234375 
Q 43.84375 -1.421875 31.78125 -1.421875 
Q 19.734375 -1.421875 13.25 4.234375 
Q 6.78125 9.90625 6.78125 20.515625 
Q 6.78125 27.484375 10.78125 32.3125 
Q 14.796875 37.15625 21.921875 38.8125 
z
M 18.3125 54.390625 
Q 18.3125 48.734375 21.84375 45.5625 
Q 25.390625 42.390625 31.78125 42.390625 
Q 38.140625 42.390625 41.71875 45.5625 
Q 45.3125 48.734375 45.3125 54.390625 
Q 45.3125 60.0625 41.71875 63.234375 
Q 38.140625 66.40625 31.78125 66.40625 
Q 25.390625 66.40625 21.84375 63.234375 
Q 18.3125 60.0625 18.3125 54.390625 
z
" id="DejaVuSans-38"/>
      </defs>
      <g transform="translate(23.675 72.812396)scale(0.16 -0.16)">
       <use xlink:href="#DejaVuSans-30"/>
       <use x="63.623047" xlink:href="#DejaVuSans-2e"/>
       <use x="95.410156" xlink:href="#DejaVuSans-38"/>
      </g>
     </g>
    </g>
    <g id="ytick_6">
     <g id="line2d_39">
      <path clip-path="url(#p7f123adeaa)" d="M 56.12 9.697057 
L 333.168 9.697057 
" style="fill:none;stroke:#b0b0b0;stroke-linecap:square;stroke-width:0.8;"/>
     </g>
     <g id="line2d_40">
      <g>
       <use style="stroke:#000000;stroke-width:0.8;" x="56.12" xlink:href="#mebd532d176" y="9.697057"/>
      </g>
     </g>
     <g id="text_11">
      <!-- 1.0 -->
      <g transform="translate(23.675 15.775807)scale(0.16 -0.16)">
       <use xlink:href="#DejaVuSans-31"/>
       <use x="63.623047" xlink:href="#DejaVuSans-2e"/>
       <use x="95.410156" xlink:href="#DejaVuSans-30"/>
      </g>
     </g>
    </g>
    <g id="text_12">
     <!-- Fraction of function,target pairs -->
     <defs>
      <path d="M 9.8125 72.90625 
L 51.703125 72.90625 
L 51.703125 64.59375 
L 19.671875 64.59375 
L 19.671875 43.109375 
L 48.578125 43.109375 
L 48.578125 34.8125 
L 19.671875 34.8125 
L 19.671875 0 
L 9.8125 0 
z
" id="DejaVuSans-46"/>
      <path d="M 41.109375 46.296875 
Q 39.59375 47.171875 37.8125 47.578125 
Q 36.03125 48 33.890625 48 
Q 26.265625 48 22.1875 43.046875 
Q 18.109375 38.09375 18.109375 28.8125 
L 18.109375 0 
L 9.078125 0 
L 9.078125 54.6875 
L 18.109375 54.6875 
L 18.109375 46.1875 
Q 20.953125 51.171875 25.484375 53.578125 
Q 30.03125 56 36.53125 56 
Q 37.453125 56 38.578125 55.875 
Q 39.703125 55.765625 41.0625 55.515625 
z
" id="DejaVuSans-72"/>
      <path d="M 48.78125 52.59375 
L 48.78125 44.1875 
Q 44.96875 46.296875 41.140625 47.34375 
Q 37.3125 48.390625 33.40625 48.390625 
Q 24.65625 48.390625 19.8125 42.84375 
Q 14.984375 37.3125 14.984375 27.296875 
Q 14.984375 17.28125 19.8125 11.734375 
Q 24.65625 6.203125 33.40625 6.203125 
Q 37.3125 6.203125 41.140625 7.25 
Q 44.96875 8.296875 48.78125 10.40625 
L 48.78125 2.09375 
Q 45.015625 0.34375 40.984375 -0.53125 
Q 36.96875 -1.421875 32.421875 -1.421875 
Q 20.0625 -1.421875 12.78125 6.34375 
Q 5.515625 14.109375 5.515625 27.296875 
Q 5.515625 40.671875 12.859375 48.328125 
Q 20.21875 56 33.015625 56 
Q 37.15625 56 41.109375 55.140625 
Q 45.0625 54.296875 48.78125 52.59375 
z
" id="DejaVuSans-63"/>
      <path d="M 18.3125 70.21875 
L 18.3125 54.6875 
L 36.8125 54.6875 
L 36.8125 47.703125 
L 18.3125 47.703125 
L 18.3125 18.015625 
Q 18.3125 11.328125 20.140625 9.421875 
Q 21.96875 7.515625 27.59375 7.515625 
L 36.8125 7.515625 
L 36.8125 0 
L 27.59375 0 
Q 17.1875 0 13.234375 3.875 
Q 9.28125 7.765625 9.28125 18.015625 
L 9.28125 47.703125 
L 2.6875 47.703125 
L 2.6875 54.6875 
L 9.28125 54.6875 
L 9.28125 70.21875 
z
" id="DejaVuSans-74"/>
      <path d="M 8.5 21.578125 
L 8.5 54.6875 
L 17.484375 54.6875 
L 17.484375 21.921875 
Q 17.484375 14.15625 20.5 10.265625 
Q 23.53125 6.390625 29.59375 6.390625 
Q 36.859375 6.390625 41.078125 11.03125 
Q 45.3125 15.671875 45.3125 23.6875 
L 45.3125 54.6875 
L 54.296875 54.6875 
L 54.296875 0 
L 45.3125 0 
L 45.3125 8.40625 
Q 42.046875 3.421875 37.71875 1 
Q 33.40625 -1.421875 27.6875 -1.421875 
Q 18.265625 -1.421875 13.375 4.4375 
Q 8.5 10.296875 8.5 21.578125 
z
M 31.109375 56 
z
" id="DejaVuSans-75"/>
      <path d="M 11.71875 12.40625 
L 22.015625 12.40625 
L 22.015625 4 
L 14.015625 -11.625 
L 7.71875 -11.625 
L 11.71875 4 
z
" id="DejaVuSans-2c"/>
      <path d="M 18.109375 8.203125 
L 18.109375 -20.796875 
L 9.078125 -20.796875 
L 9.078125 54.6875 
L 18.109375 54.6875 
L 18.109375 46.390625 
Q 20.953125 51.265625 25.265625 53.625 
Q 29.59375 56 35.59375 56 
Q 45.5625 56 51.78125 48.09375 
Q 58.015625 40.1875 58.015625 27.296875 
Q 58.015625 14.40625 51.78125 6.484375 
Q 45.5625 -1.421875 35.59375 -1.421875 
Q 29.59375 -1.421875 25.265625 0.953125 
Q 20.953125 3.328125 18.109375 8.203125 
z
M 48.6875 27.296875 
Q 48.6875 37.203125 44.609375 42.84375 
Q 40.53125 48.484375 33.40625 48.484375 
Q 26.265625 48.484375 22.1875 42.84375 
Q 18.109375 37.203125 18.109375 27.296875 
Q 18.109375 17.390625 22.1875 11.75 
Q 26.265625 6.109375 33.40625 6.109375 
Q 40.53125 6.109375 44.609375 11.75 
Q 48.6875 17.390625 48.6875 27.296875 
z
" id="DejaVuSans-70"/>
     </defs>
     <g transform="translate(16.139531 286.001989)rotate(-90)scale(0.17 -0.17)">
      <use xlink:href="#DejaVuSans-46"/>
      <use x="57.410156" xlink:href="#DejaVuSans-72"/>
      <use x="98.523438" xlink:href="#DejaVuSans-61"/>
      <use x="159.802734" xlink:href="#DejaVuSans-63"/>
      <use x="214.783203" xlink:href="#DejaVuSans-74"/>
      <use x="253.992188" xlink:href="#DejaVuSans-69"/>
      <use x="281.775391" xlink:href="#DejaVuSans-6f"/>
      <use x="342.957031" xlink:href="#DejaVuSans-6e"/>
      <use x="406.335938" xlink:href="#DejaVuSans-20"/>
      <use x="438.123047" xlink:href="#DejaVuSans-6f"/>
      <use x="499.304688" xlink:href="#DejaVuSans-66"/>
      <use x="534.509766" xlink:href="#DejaVuSans-20"/>
      <use x="566.296875" xlink:href="#DejaVuSans-66"/>
      <use x="601.501953" xlink:href="#DejaVuSans-75"/>
      <use x="664.880859" xlink:href="#DejaVuSans-6e"/>
      <use x="728.259766" xlink:href="#DejaVuSans-63"/>
      <use x="783.240234" xlink:href="#DejaVuSans-74"/>
      <use x="822.449219" xlink:href="#DejaVuSans-69"/>
      <use x="850.232422" xlink:href="#DejaVuSans-6f"/>
      <use x="911.414062" xlink:href="#DejaVuSans-6e"/>
      <use x="974.792969" xlink:href="#DejaVuSans-2c"/>
      <use x="1006.580078" xlink:href="#DejaVuSans-74"/>
      <use x="1045.789062" xlink:href="#DejaVuSans-61"/>
      <use x="1107.068359" xlink:href="#DejaVuSans-72"/>
      <use x="1148.166016" xlink:href="#DejaVuSans-67"/>
      <use x="1211.642578" xlink:href="#DejaVuSans-65"/>
      <use x="1273.166016" xlink:href="#DejaVuSans-74"/>
      <use x="1312.375" xlink:href="#DejaVuSans-20"/>
      <use x="1344.162109" xlink:href="#DejaVuSans-70"/>
      <use x="1407.638672" xlink:href="#DejaVuSans-61"/>
      <use x="1468.917969" xlink:href="#DejaVuSans-69"/>
      <use x="1496.701172" xlink:href="#DejaVuSans-72"/>
      <use x="1537.814453" xlink:href="#DejaVuSans-73"/>
     </g>
    </g>
   </g>
   <g id="line2d_41">
    <defs>
     <path d="M 0 1.5 
C 0.397805 1.5 0.77937 1.341951 1.06066 1.06066 
C 1.341951 0.77937 1.5 0.397805 1.5 0 
C 1.5 -0.397805 1.341951 -0.77937 1.06066 -1.06066 
C 0.77937 -1.341951 0.397805 -1.5 0 -1.5 
C -0.397805 -1.5 -0.77937 -1.341951 -1.06066 -1.06066 
C -1.341951 -0.77937 -1.5 -0.397805 -1.5 0 
C -1.5 0.397805 -1.341951 0.77937 -1.06066 1.06066 
C -0.77937 1.341951 -0.397805 1.5 0 1.5 
z
" id="med581bdae8" style="stroke:#f5deb3;"/>
    </defs>
    <g>
     <use style="fill:#f5deb3;stroke:#f5deb3;" x="328.2505" xlink:href="#med581bdae8" y="48.839814"/>
     <use style="fill:#f5deb3;stroke:#f5deb3;" x="328.2505" xlink:href="#med581bdae8" y="48.839814"/>
    </g>
   </g>
   <g id="line2d_42">
    <defs>
     <path d="M 0 1.5 
C 0.397805 1.5 0.77937 1.341951 1.06066 1.06066 
C 1.341951 0.77937 1.5 0.397805 1.5 0 
C 1.5 -0.397805 1.341951 -0.77937 1.06066 -1.06066 
C 0.77937 -1.341951 0.397805 -1.5 0 -1.5 
C -0.397805 -1.5 -0.77937 -1.341951 -1.06066 -1.06066 
C -1.341951 -0.77937 -1.5 -0.397805 -1.5 0 
C -1.5 0.397805 -1.341951 0.77937 -1.06066 1.06066 
C -0.77937 1.341951 -0.397805 1.5 0 1.5 
z
" id="m9b91f92659" style="stroke:#000080;"/>
    </defs>
    <g>
     <use style="fill:#000080;stroke:#000080;" x="215.371999" xlink:href="#m9b91f92659" y="272.51271"/>
     <use style="fill:#000080;stroke:#000080;" x="215.371999" xlink:href="#m9b91f92659" y="272.51271"/>
    </g>
   </g>
   <g id="line2d_43">
    <path d="M -1 287.163285 
L 68.458683 287.163285 
L 68.458683 287.051449 
L 85.655093 287.051449 
L 85.655093 286.939612 
L 91.646541 286.939612 
L 91.646541 286.827776 
L 102.667676 286.827776 
L 102.667676 286.715939 
L 103.777005 286.715939 
L 103.777005 286.604103 
L 106.295697 286.604103 
L 106.295697 286.492266 
L 116.010559 286.492266 
L 116.010559 286.38043 
L 117.046409 286.38043 
L 117.046409 286.268593 
L 119.33232 286.268593 
L 119.33232 286.156757 
L 120.839693 286.156757 
L 120.839693 286.044921 
L 130.14738 286.044921 
L 130.14738 285.933084 
L 130.531084 285.933084 
L 130.531084 285.821248 
L 131.532112 285.821248 
L 131.532112 285.709411 
L 135.216306 285.709411 
L 135.216306 285.597575 
L 136.757848 285.597575 
L 136.757848 285.485738 
L 139.690126 285.485738 
L 139.690126 285.373902 
L 140.136353 285.373902 
L 140.136353 285.262065 
L 140.3488 285.262065 
L 140.3488 285.150229 
L 142.202936 285.150229 
L 142.202936 285.038393 
L 142.558233 285.038393 
L 142.558233 284.926556 
L 142.845577 284.926556 
L 142.845577 284.81472 
L 144.944641 284.81472 
L 144.944641 284.702883 
L 145.950361 284.702883 
L 145.950361 284.591047 
L 146.53162 284.591047 
L 146.533852 284.367374 
L 147.579583 284.367374 
L 147.579583 284.255537 
L 150.292422 284.255537 
L 150.292422 284.143701 
L 154.140148 284.143701 
L 154.140148 283.920028 
L 154.521644 283.920028 
L 154.521644 283.696355 
L 154.668288 283.696355 
L 154.705795 283.472682 
L 155.657252 283.472682 
L 155.657252 283.249009 
L 155.937235 283.249009 
L 155.937235 283.137173 
L 156.791426 283.137173 
L 156.791426 283.025336 
L 157.069395 283.025336 
L 157.069395 282.9135 
L 157.356029 282.9135 
L 157.356029 282.801664 
L 157.529982 282.801664 
L 157.529982 282.689827 
L 158.778632 282.689827 
L 158.778632 282.577991 
L 158.961596 282.577991 
L 158.961596 282.466154 
L 163.380962 282.466154 
L 163.380962 282.354318 
L 163.85438 282.354318 
L 163.855195 282.130645 
L 164.664586 282.130645 
L 164.744474 281.906972 
L 165.858252 281.906972 
L 165.858252 281.795136 
L 166.558882 281.795136 
L 166.558882 281.683299 
L 168.048627 281.683299 
L 168.048627 281.571463 
L 168.879934 281.571463 
L 168.986065 281.01228 
L 169.381718 281.01228 
L 169.381718 280.900444 
L 169.508281 280.900444 
L 169.546947 280.564935 
L 169.972906 280.564935 
L 170.031604 280.341262 
L 170.856879 280.341262 
L 170.856879 280.229425 
L 171.54408 280.229425 
L 171.54408 280.117589 
L 173.247474 280.117589 
L 173.252192 279.893916 
L 173.656836 279.893916 
L 173.687217 279.670243 
L 174.02288 279.670243 
L 174.069273 279.44657 
L 174.220641 279.44657 
L 174.220641 279.334734 
L 176.488029 279.334734 
L 176.488029 279.222897 
L 176.633171 279.222897 
L 176.633171 279.111061 
L 177.251568 279.111061 
L 177.251568 278.999224 
L 177.462209 278.999224 
L 177.462209 278.887388 
L 177.880589 278.887388 
L 177.919104 278.663715 
L 179.359911 278.663715 
L 179.359911 278.551879 
L 179.503469 278.551879 
L 179.503469 278.440042 
L 180.156521 278.440042 
L 180.156521 278.328206 
L 180.510191 278.328206 
L 180.510191 278.216369 
L 181.871451 278.216369 
L 181.871451 278.104533 
L 182.134268 278.104533 
L 182.213428 277.657187 
L 182.447086 277.657187 
L 182.539942 277.321678 
L 184.073428 277.321678 
L 184.084232 277.098005 
L 184.249964 277.098005 
L 184.249964 276.986168 
L 187.695306 276.986168 
L 187.695306 276.874332 
L 187.873334 276.874332 
L 187.873334 276.762495 
L 188.348662 276.762495 
L 188.348662 276.650659 
L 188.814061 276.650659 
L 188.814061 276.538822 
L 189.25139 276.538822 
L 189.25139 276.426986 
L 189.374614 276.426986 
L 189.374614 276.31515 
L 190.66658 276.31515 
L 190.66658 276.203313 
L 190.875959 276.203313 
L 190.976504 275.97964 
L 191.037623 275.97964 
L 191.037623 275.867804 
L 192.328932 275.867804 
L 192.328932 275.755967 
L 193.515468 275.755967 
L 193.515468 275.532294 
L 194.638821 275.532294 
L 194.638821 275.420458 
L 195.649719 275.420458 
L 195.705764 275.084949 
L 196.441095 275.084949 
L 196.441095 274.973112 
L 196.555888 274.973112 
L 196.555888 274.749439 
L 196.836749 274.749439 
L 196.836749 274.637603 
L 198.398801 274.637603 
L 198.398801 274.525766 
L 199.221863 274.525766 
L 199.221863 274.41393 
L 199.338286 274.41393 
L 199.338286 274.302094 
L 200.170155 274.302094 
L 200.179512 274.078421 
L 200.838502 274.078421 
L 200.838502 273.966584 
L 202.436792 273.966584 
L 202.436792 273.854748 
L 203.072964 273.854748 
L 203.072964 273.742911 
L 203.726131 273.742911 
L 203.726131 273.631075 
L 204.874586 273.631075 
L 204.874586 273.519238 
L 206.641741 273.519238 
L 206.72437 273.295566 
L 207.168094 273.295566 
L 207.174519 273.071893 
L 208.136519 273.071893 
L 208.136519 272.960056 
L 209.167489 272.960056 
L 209.167489 272.84822 
L 210.946046 272.84822 
L 210.946046 272.736383 
L 213.298953 272.736383 
L 213.298953 272.624547 
L 215.371999 272.624547 
L 215.371999 272.51271 
L 333.168 272.51271 
L 333.168 272.51271 
" style="fill:none;stroke:#000080;stroke-linecap:square;stroke-width:1.5;"/>
   </g>
   <g id="line2d_44">
    <defs>
     <path d="M 0 6 
C 1.591219 6 3.117479 5.367802 4.242641 4.242641 
C 5.367802 3.117479 6 1.591219 6 0 
C 6 -1.591219 5.367802 -3.117479 4.242641 -4.242641 
C 3.117479 -5.367802 1.591219 -6 0 -6 
C -1.591219 -6 -3.117479 -5.367802 -4.242641 -4.242641 
C -5.367802 -3.117479 -6 -1.591219 -6 0 
C -6 1.591219 -5.367802 3.117479 -4.242641 4.242641 
C -3.117479 5.367802 -1.591219 6 0 6 
z
" id="m83a81844a8" style="stroke:#000080;stroke-width:1.5;"/>
    </defs>
    <g>
     <use style="fill:none;stroke:#000080;stroke-width:1.5;" x="68.458683" xlink:href="#m83a81844a8" y="287.051449"/>
     <use style="fill:none;stroke:#000080;stroke-width:1.5;" x="179.503469" xlink:href="#m83a81844a8" y="278.551879"/>
     <use style="fill:none;stroke:#000080;stroke-width:1.5;" x="215.371999" xlink:href="#m83a81844a8" y="272.624547"/>
     <use style="fill:none;stroke:#000080;stroke-width:1.5;" x="215.371999" xlink:href="#m83a81844a8" y="272.51271"/>
     <use style="fill:none;stroke:#000080;stroke-width:1.5;" x="215.371999" xlink:href="#m83a81844a8" y="272.51271"/>
     <use style="fill:none;stroke:#000080;stroke-width:1.5;" x="333.168" xlink:href="#m83a81844a8" y="272.51271"/>
    </g>
   </g>
   <g id="line2d_45">
    <path style="fill:none;stroke:#000080;stroke-linecap:square;stroke-width:1.5;"/>
    <g/>
   </g>
   <g id="line2d_46">
    <path clip-path="url(#p7f123adeaa)" d="M 147.190823 284.367374 
" style="fill:none;stroke:#000080;stroke-linecap:square;stroke-width:1.5;"/>
    <defs>
     <path d="M -12 12 
L 12 -12 
M -12 -12 
L 12 12 
" id="m9c39a195b0" style="stroke:#000080;"/>
    </defs>
    <g clip-path="url(#p7f123adeaa)">
     <use style="fill:#000080;stroke:#000080;" x="147.190823" xlink:href="#m9c39a195b0" y="284.367374"/>
    </g>
   </g>
   <g id="line2d_47">
    <defs>
     <path d="M 0 1.5 
C 0.397805 1.5 0.77937 1.341951 1.06066 1.06066 
C 1.341951 0.77937 1.5 0.397805 1.5 0 
C 1.5 -0.397805 1.341951 -0.77937 1.06066 -1.06066 
C 0.77937 -1.341951 0.397805 -1.5 0 -1.5 
C -0.397805 -1.5 -0.77937 -1.341951 -1.06066 -1.06066 
C -1.341951 -0.77937 -1.5 -0.397805 -1.5 0 
C -1.5 0.397805 -1.341951 0.77937 -1.06066 1.06066 
C -0.77937 1.341951 -0.397805 1.5 0 1.5 
z
" id="m29958aca1d" style="stroke:#ff00ff;"/>
    </defs>
    <g>
     <use style="fill:#ff00ff;stroke:#ff00ff;" x="269.396661" xlink:href="#m29958aca1d" y="206.529206"/>
     <use style="fill:#ff00ff;stroke:#ff00ff;" x="269.396661" xlink:href="#m29958aca1d" y="206.529206"/>
    </g>
   </g>
   <g id="line2d_48">
    <path d="M -1 287.163285 
L 4.627463 287.163285 
L 4.627463 286.715939 
L 11.596853 286.715939 
L 11.596853 286.492266 
L 20.377246 286.492266 
L 20.377246 286.38043 
L 30.480495 286.38043 
L 30.480495 286.268593 
L 36.80118 286.268593 
L 36.80118 286.044921 
L 39.260888 286.044921 
L 39.260888 285.933084 
L 46.608065 285.933084 
L 46.608065 285.709411 
L 56.12 285.709411 
L 56.12 285.597575 
L 68.247777 285.597575 
L 68.247777 285.485738 
L 69.866727 285.485738 
L 69.866727 285.373902 
L 78.374588 285.373902 
L 78.374588 285.262065 
L 89.320209 285.262065 
L 89.320209 285.150229 
L 90.05175 285.150229 
L 90.05175 285.038393 
L 95.263107 285.038393 
L 95.263107 284.926556 
L 96.038666 284.926556 
L 96.038666 284.81472 
L 96.941379 284.81472 
L 96.941379 284.702883 
L 115.691256 284.702883 
L 115.691256 284.591047 
L 117.715785 284.591047 
L 117.715785 283.137173 
L 118.992157 283.137173 
L 118.992157 283.025336 
L 119.526788 283.025336 
L 119.569706 280.788608 
L 119.750921 280.788608 
L 119.750921 280.564935 
L 121.16504 280.564935 
L 121.16504 277.545351 
L 121.994372 277.545351 
L 121.994372 277.433514 
L 122.179496 277.433514 
L 122.179496 277.321678 
L 122.498743 277.321678 
L 122.498743 277.209841 
L 122.660646 277.209841 
L 122.660646 276.426986 
L 122.79441 276.426986 
L 122.79441 276.091477 
L 122.979949 276.091477 
L 122.979949 275.97964 
L 123.198248 275.97964 
L 123.224258 275.755967 
L 123.448049 275.755967 
L 123.448049 275.532294 
L 123.592814 275.532294 
L 123.592814 275.420458 
L 123.8537 275.420458 
L 123.937018 274.973112 
L 124.036471 274.973112 
L 124.135351 274.637603 
L 124.315167 274.637603 
L 124.339542 274.41393 
L 124.677216 274.41393 
L 124.701083 274.190257 
L 125.310285 274.190257 
L 125.409752 273.631075 
L 125.485876 273.631075 
L 125.485876 273.519238 
L 125.599432 273.519238 
L 125.644646 273.295566 
L 125.809418 273.295566 
L 125.809418 273.183729 
L 125.972626 273.183729 
L 125.972626 273.071893 
L 126.496178 273.071893 
L 126.567649 272.624547 
L 126.638823 272.624547 
L 126.638823 272.51271 
L 126.759148 272.51271 
L 126.815481 272.289037 
L 127.087492 272.289037 
L 127.197852 272.065365 
L 127.605507 272.065365 
L 127.685891 271.506182 
L 127.970883 271.506182 
L 127.970883 271.394346 
L 128.082264 271.394346 
L 128.088793 271.170673 
L 128.647561 271.170673 
L 128.666509 270.835164 
L 128.792295 270.835164 
L 128.8486 270.611491 
L 129.022601 270.611491 
L 129.022601 270.499654 
L 129.437982 270.499654 
L 129.437982 270.387818 
L 129.630036 270.387818 
L 129.683667 269.604963 
L 130.007824 269.604963 
L 130.007824 269.493126 
L 130.559378 269.493126 
L 130.559378 269.04578 
L 130.828657 269.04578 
L 130.828657 268.933944 
L 131.441039 268.933944 
L 131.521423 268.486598 
L 131.590786 268.486598 
L 131.590786 268.374762 
L 131.718109 268.374762 
L 131.718109 268.262925 
L 131.865471 268.262925 
L 131.964752 268.039252 
L 132.28479 268.039252 
L 132.376599 267.703743 
L 132.753944 267.703743 
L 132.783777 267.48007 
L 133.079291 267.48007 
L 133.079291 267.368234 
L 133.196088 267.368234 
L 133.244521 266.920888 
L 133.432114 266.920888 
L 133.432114 266.809052 
L 133.749684 266.809052 
L 133.843356 266.585379 
L 134.015313 266.585379 
L 134.015313 266.473542 
L 134.431058 266.473542 
L 134.431058 266.361706 
L 134.574897 266.361706 
L 134.574897 266.249869 
L 135.276571 266.249869 
L 135.276571 266.026196 
L 135.456111 266.026196 
L 135.456111 265.91436 
L 135.950722 265.91436 
L 135.954853 265.690687 
L 136.143831 265.690687 
L 136.143831 265.578851 
L 136.607382 265.578851 
L 136.607382 265.467014 
L 137.224536 265.467014 
L 137.327818 265.243341 
L 137.411516 265.243341 
L 137.479695 265.019668 
L 138.004608 265.019668 
L 138.004608 264.907832 
L 138.435478 264.907832 
L 138.471198 264.684159 
L 138.99136 264.684159 
L 138.99136 264.572323 
L 140.071454 264.572323 
L 140.074705 264.34865 
L 140.583916 264.34865 
L 140.665767 264.124977 
L 141.544287 264.124977 
L 141.633579 263.901304 
L 142.903576 263.901304 
L 142.903576 263.789467 
L 143.35529 263.789467 
L 143.35529 263.677631 
L 144.239906 263.677631 
L 144.239906 263.565795 
L 144.993542 263.565795 
L 145.003305 263.342122 
L 145.557942 263.342122 
L 145.557942 263.230285 
L 146.154676 263.230285 
L 146.234364 263.006612 
L 147.355472 263.006612 
L 147.402227 262.782939 
L 147.883556 262.782939 
L 147.883556 262.671103 
L 148.027412 262.671103 
L 148.027412 262.559266 
L 148.271256 262.559266 
L 148.271256 262.44743 
L 148.393896 262.44743 
L 148.469854 262.223757 
L 149.454324 262.223757 
L 149.454324 262.111921 
L 149.793743 262.111921 
L 149.8122 261.888248 
L 150.041251 261.888248 
L 150.041251 261.776411 
L 150.324681 261.776411 
L 150.324681 261.664575 
L 150.614079 261.664575 
L 150.614079 261.552738 
L 150.778783 261.552738 
L 150.888293 261.329066 
L 151.163317 261.329066 
L 151.176953 261.105393 
L 151.881353 261.105393 
L 151.975949 260.88172 
L 152.223016 260.88172 
L 152.223016 260.769883 
L 152.501323 260.769883 
L 152.524969 260.54621 
L 152.963573 260.54621 
L 152.963573 260.434374 
L 153.2529 260.434374 
L 153.326732 260.210701 
L 153.516631 260.210701 
L 153.516631 260.098865 
L 153.776377 260.098865 
L 153.776377 259.987028 
L 153.945451 259.987028 
L 153.945451 259.875192 
L 154.421772 259.875192 
L 154.421772 259.763355 
L 154.834363 259.763355 
L 154.850883 259.539682 
L 155.146905 259.539682 
L 155.146905 259.427846 
L 155.331203 259.427846 
L 155.353934 259.204173 
L 155.51884 259.204173 
L 155.51884 259.092337 
L 155.672999 259.092337 
L 155.672999 258.9805 
L 155.834886 258.9805 
L 155.834886 258.868664 
L 156.031271 258.868664 
L 156.031271 258.756827 
L 156.491386 258.756827 
L 156.542589 258.533154 
L 156.715054 258.533154 
L 156.715054 258.421318 
L 156.937067 258.421318 
L 156.937067 258.309481 
L 157.121319 258.309481 
L 157.171885 258.085809 
L 157.491084 258.085809 
L 157.565267 257.862136 
L 157.829937 257.862136 
L 157.90037 257.526626 
L 158.103124 257.526626 
L 158.103124 257.41479 
L 158.581522 257.41479 
L 158.625765 257.079281 
L 158.709516 257.079281 
L 158.709516 256.967444 
L 158.835472 256.967444 
L 158.936662 256.743771 
L 159.112592 256.743771 
L 159.149063 256.520098 
L 159.66522 256.520098 
L 159.66522 256.408262 
L 159.866803 256.408262 
L 159.94371 256.184589 
L 160.106637 256.184589 
L 160.106637 256.072752 
L 160.423949 256.072752 
L 160.423949 255.960916 
L 160.544906 255.960916 
L 160.544906 255.84908 
L 169.586109 255.84908 
L 169.586109 255.737243 
L 169.771934 255.737243 
L 169.864099 255.289897 
L 169.955771 255.289897 
L 170.058322 254.283369 
L 170.072517 254.283369 
L 170.137663 253.94786 
L 170.240824 253.94786 
L 170.317651 253.276841 
L 170.406943 253.276841 
L 170.455301 252.829495 
L 170.550508 252.829495 
L 170.550508 252.717659 
L 170.686861 252.717659 
L 170.686861 252.605823 
L 170.846573 252.605823 
L 170.955825 252.38215 
L 171.019325 252.38215 
L 171.106123 252.04664 
L 171.204711 252.04664 
L 171.204711 251.934804 
L 171.376548 251.934804 
L 171.460518 251.711131 
L 172.600349 251.711131 
L 172.600349 251.487458 
L 173.063419 251.487458 
L 173.124356 251.263785 
L 173.214414 251.263785 
L 173.214414 251.151949 
L 174.251824 251.151949 
L 174.251824 251.040112 
L 175.618436 251.040112 
L 175.726202 250.816439 
L 175.993301 250.816439 
L 176.080753 250.592767 
L 176.287179 250.592767 
L 176.332585 250.369094 
L 176.637045 250.369094 
L 176.741324 250.145421 
L 176.927828 250.145421 
L 176.927828 250.033584 
L 179.981703 250.033584 
L 179.981703 249.921748 
L 181.178881 249.921748 
L 181.260482 249.698075 
L 181.453589 249.698075 
L 181.551954 249.250729 
L 181.634125 249.250729 
L 181.634125 249.138893 
L 181.778637 249.138893 
L 181.889155 248.803383 
L 182.016823 248.803383 
L 182.016823 248.691547 
L 182.151422 248.691547 
L 182.151422 248.57971 
L 183.608243 248.57971 
L 183.608243 248.467874 
L 183.885661 248.467874 
L 183.885661 248.356038 
L 184.542504 248.356038 
L 184.542504 248.244201 
L 184.810414 248.244201 
L 184.810414 248.132365 
L 187.968174 248.132365 
L 187.968174 248.020528 
L 188.091963 248.020528 
L 188.123765 247.796855 
L 188.507077 247.796855 
L 188.507077 247.685019 
L 189.075687 247.685019 
L 189.148803 247.461346 
L 189.993505 247.461346 
L 189.993505 247.34951 
L 190.33386 247.34951 
L 190.33386 247.237673 
L 192.757186 247.237673 
L 192.757186 247.125837 
L 193.87546 247.125837 
L 193.87546 247.014 
L 197.299118 247.014 
L 197.299118 246.902164 
L 197.839765 246.902164 
L 197.839765 246.790327 
L 202.360024 246.790327 
L 202.360024 246.678491 
L 202.593072 246.678491 
L 202.593072 246.566654 
L 204.824155 246.566654 
L 204.824155 246.454818 
L 207.266242 246.454818 
L 207.266242 246.342981 
L 209.985228 246.342981 
L 209.985228 246.231145 
L 214.518188 246.231145 
L 214.627432 244.777271 
L 214.645183 244.777271 
L 214.742952 243.770743 
L 214.777693 243.770743 
L 214.868807 243.099724 
L 214.907517 243.099724 
L 215.015486 241.534014 
L 215.021259 241.534014 
L 215.131902 240.751159 
L 215.137223 240.751159 
L 215.16496 240.41565 
L 215.717758 240.41565 
L 215.800622 239.632795 
L 215.838559 239.632795 
L 215.906888 239.409122 
L 215.959618 239.409122 
L 216.059319 238.290757 
L 216.083891 238.290757 
L 216.185631 237.619739 
L 216.196028 237.619739 
L 216.196028 237.507902 
L 216.787563 237.507902 
L 216.890971 237.060556 
L 216.976091 237.060556 
L 217.08482 236.613211 
L 217.097374 236.613211 
L 217.18624 235.942192 
L 217.215359 235.942192 
L 217.295581 235.271173 
L 217.781305 235.271173 
L 217.819846 235.0475 
L 217.907381 235.0475 
L 217.948162 234.823827 
L 218.04724 234.823827 
L 218.138547 234.376482 
L 218.168794 234.376482 
L 218.216239 233.817299 
L 218.777418 233.817299 
L 218.8315 233.593626 
L 219.000904 233.593626 
L 219.000904 233.48179 
L 219.132372 233.48179 
L 219.168818 233.146281 
L 219.860549 233.146281 
L 219.943297 232.922608 
L 219.995578 232.922608 
L 219.995578 232.810771 
L 220.654453 232.810771 
L 220.654453 232.698935 
L 221.427295 232.698935 
L 221.429841 232.475262 
L 221.617926 232.475262 
L 221.617926 232.363425 
L 222.205801 232.363425 
L 222.205801 232.251589 
L 226.431391 232.251589 
L 226.526104 231.58057 
L 226.55589 231.58057 
L 226.664988 230.574042 
L 226.668679 230.574042 
L 226.668679 230.462206 
L 227.00503 230.462206 
L 227.108116 229.791187 
L 227.124286 229.791187 
L 227.228866 229.008332 
L 227.271393 229.008332 
L 227.271393 228.784659 
L 227.57449 228.784659 
L 227.672994 228.11364 
L 227.70205 228.11364 
L 227.812026 227.330785 
L 228.116774 227.330785 
L 228.216891 226.659767 
L 228.25864 226.659767 
L 228.362887 225.988748 
L 228.7047 225.988748 
L 228.7047 225.876911 
L 228.860704 225.876911 
L 228.860704 225.765075 
L 229.163203 225.765075 
L 229.163203 225.653239 
L 229.31228 225.653239 
L 229.31228 225.541402 
L 229.673527 225.541402 
L 229.771689 225.205893 
L 229.804649 225.205893 
L 229.804649 225.094056 
L 230.774788 225.094056 
L 230.774788 224.98222 
L 231.741771 224.98222 
L 231.741771 224.870383 
L 233.364845 224.870383 
L 233.469668 224.087528 
L 233.499811 224.087528 
L 233.555756 223.528346 
L 233.760211 223.528346 
L 233.86127 222.298145 
L 233.872202 222.298145 
L 233.931899 221.850799 
L 234.151627 221.850799 
L 234.247162 221.403454 
L 234.297213 221.403454 
L 234.314576 220.956108 
L 234.547654 220.956108 
L 234.61223 220.173253 
L 234.667733 220.173253 
L 234.667733 220.061416 
L 234.907088 220.061416 
L 235.003447 219.61407 
L 235.021889 219.61407 
L 235.022149 219.390397 
L 235.253363 219.390397 
L 235.354982 218.943052 
L 235.407914 218.943052 
L 235.407914 218.831215 
L 235.638774 218.831215 
L 235.644142 218.607542 
L 236.027433 218.607542 
L 236.08241 218.383869 
L 236.393395 218.383869 
L 236.393395 218.272033 
L 237.368095 218.272033 
L 237.368095 218.160197 
L 237.994695 218.160197 
L 237.994695 218.04836 
L 238.308013 218.04836 
L 238.414565 217.489178 
L 238.641781 217.489178 
L 238.721675 216.818159 
L 238.891548 216.818159 
L 238.996839 216.035304 
L 239.184056 216.035304 
L 239.217835 215.699795 
L 239.491092 215.699795 
L 239.575655 215.364285 
L 239.821432 215.364285 
L 239.84408 215.140612 
L 240.008932 215.140612 
L 240.066558 214.91694 
L 240.558123 214.91694 
L 240.558123 214.805103 
L 242.297329 214.805103 
L 242.40177 214.469594 
L 242.453913 214.469594 
L 242.453913 214.357757 
L 242.679421 214.357757 
L 242.687876 214.134084 
L 242.829406 214.134084 
L 242.936763 213.351229 
L 243.075763 213.351229 
L 243.121176 212.903883 
L 243.344044 212.903883 
L 243.344044 212.792047 
L 243.51526 212.792047 
L 243.578588 212.568374 
L 243.758516 212.568374 
L 243.758516 212.456538 
L 244.00757 212.456538 
L 244.00757 212.344701 
L 244.855692 212.344701 
L 244.855692 212.232865 
L 244.999151 212.232865 
L 244.999151 212.121028 
L 245.313693 212.121028 
L 245.313693 212.009192 
L 245.518835 212.009192 
L 245.518835 211.897355 
L 245.733561 211.897355 
L 245.739264 211.673683 
L 245.858073 211.673683 
L 245.89652 211.338173 
L 246.054154 211.338173 
L 246.054154 211.226337 
L 246.307056 211.226337 
L 246.307056 211.1145 
L 246.463792 211.1145 
L 246.479344 210.778991 
L 246.634525 210.778991 
L 246.634525 210.667155 
L 246.79842 210.667155 
L 246.79842 210.555318 
L 246.991005 210.555318 
L 246.991005 210.443482 
L 247.681518 210.443482 
L 247.681518 210.331645 
L 247.944491 210.331645 
L 247.944491 210.219809 
L 248.285583 210.219809 
L 248.285583 210.107972 
L 248.586917 210.107972 
L 248.586917 209.996136 
L 248.791288 209.996136 
L 248.899834 209.772463 
L 248.966583 209.772463 
L 248.966583 209.660626 
L 249.10326 209.660626 
L 249.136138 209.436954 
L 249.568055 209.436954 
L 249.568055 209.325117 
L 250.523016 209.325117 
L 250.523016 209.213281 
L 250.954051 209.213281 
L 250.954051 209.101444 
L 251.364369 209.101444 
L 251.364369 208.989608 
L 251.654822 208.989608 
L 251.654822 208.877771 
L 252.623875 208.877771 
L 252.652784 208.654098 
L 252.768487 208.654098 
L 252.796725 208.318589 
L 253.397078 208.318589 
L 253.503623 208.094916 
L 253.772839 208.094916 
L 253.772839 207.98308 
L 254.385008 207.98308 
L 254.385008 207.871243 
L 254.768463 207.871243 
L 254.87112 207.64757 
L 255.888151 207.64757 
L 255.888151 207.535734 
L 256.54249 207.535734 
L 256.54249 207.423898 
L 256.688002 207.423898 
L 256.73201 207.200225 
L 258.261449 207.200225 
L 258.261449 207.088388 
L 259.197305 207.088388 
L 259.197305 206.976552 
L 259.866676 206.976552 
L 259.866676 206.864715 
L 260.430459 206.864715 
L 260.430459 206.752879 
L 261.714011 206.752879 
L 261.714011 206.641042 
L 269.396661 206.641042 
L 269.396661 206.529206 
L 333.168 206.529206 
L 333.168 206.529206 
" style="fill:none;stroke:#ff00ff;stroke-linecap:square;stroke-width:1.5;"/>
   </g>
   <g id="line2d_49">
    <defs>
     <path d="M -0 8.485281 
L 5.091169 0 
L 0 -8.485281 
L -5.091169 -0 
z
" id="ma462676f3d" style="stroke:#ff00ff;stroke-linejoin:miter;stroke-width:1.5;"/>
    </defs>
    <g>
     <use style="fill:none;stroke:#ff00ff;stroke-linejoin:miter;stroke-width:1.5;" x="149.454324" xlink:href="#ma462676f3d" y="262.223757"/>
     <use style="fill:none;stroke:#ff00ff;stroke-linejoin:miter;stroke-width:1.5;" x="214.79794" xlink:href="#ma462676f3d" y="243.435234"/>
     <use style="fill:none;stroke:#ff00ff;stroke-linejoin:miter;stroke-width:1.5;" x="269.396661" xlink:href="#ma462676f3d" y="206.641042"/>
     <use style="fill:none;stroke:#ff00ff;stroke-linejoin:miter;stroke-width:1.5;" x="269.396661" xlink:href="#ma462676f3d" y="206.529206"/>
     <use style="fill:none;stroke:#ff00ff;stroke-linejoin:miter;stroke-width:1.5;" x="333.168" xlink:href="#ma462676f3d" y="206.529206"/>
    </g>
   </g>
   <g id="line2d_50">
    <path style="fill:none;stroke:#ff00ff;stroke-linecap:square;stroke-width:1.5;"/>
    <g/>
   </g>
   <g id="line2d_51">
    <path clip-path="url(#p7f123adeaa)" d="M 214.433143 246.231145 
" style="fill:none;stroke:#ff00ff;stroke-linecap:square;stroke-width:1.5;"/>
    <defs>
     <path d="M -12 12 
L 12 -12 
M -12 -12 
L 12 12 
" id="mbbb208c5f4" style="stroke:#ff00ff;"/>
    </defs>
    <g clip-path="url(#p7f123adeaa)">
     <use style="fill:#ff00ff;stroke:#ff00ff;" x="214.433143" xlink:href="#mbbb208c5f4" y="246.231145"/>
    </g>
   </g>
   <g id="line2d_52">
    <path d="M 333.168 272.51271 
L 363.64328 289.176341 
" style="fill:none;stroke:#000080;stroke-linecap:square;stroke-width:1.5;"/>
    <g>
     <use style="fill:none;stroke:#000080;stroke-width:1.5;" x="333.168" xlink:href="#m83a81844a8" y="272.51271"/>
     <use style="fill:none;stroke:#000080;stroke-width:1.5;" x="363.64328" xlink:href="#m83a81844a8" y="289.176341"/>
    </g>
   </g>
   <g id="line2d_53">
    <path d="M 333.168 206.529206 
L 363.64328 152.288529 
" style="fill:none;stroke:#ff00ff;stroke-linecap:square;stroke-width:1.5;"/>
    <g>
     <use style="fill:none;stroke:#ff00ff;stroke-linejoin:miter;stroke-width:1.5;" x="333.168" xlink:href="#ma462676f3d" y="206.529206"/>
     <use style="fill:none;stroke:#ff00ff;stroke-linejoin:miter;stroke-width:1.5;" x="363.64328" xlink:href="#ma462676f3d" y="152.288529"/>
    </g>
   </g>
   <g id="line2d_54">
    <path d="M 333.168 294.88 
L 333.168 9.697057 
" style="fill:none;stroke:#000000;stroke-linecap:square;stroke-width:1.5;"/>
   </g>
   <g id="patch_3">
    <path d="M 56.12 294.88 
L 56.12 6.845228 
" style="fill:none;stroke:#000000;stroke-linecap:square;stroke-linejoin:miter;stroke-width:0.8;"/>
   </g>
   <g id="patch_4">
    <path d="M 333.168 294.88 
L 333.168 6.845228 
" style="fill:none;stroke:#000000;stroke-linecap:square;stroke-linejoin:miter;stroke-width:0.8;"/>
   </g>
   <g id="patch_5">
    <path d="M 56.12 294.88 
L 333.168 294.88 
" style="fill:none;stroke:#000000;stroke-linecap:square;stroke-linejoin:miter;stroke-width:0.8;"/>
   </g>
   <g id="patch_6">
    <path d="M 56.12 6.845228 
L 333.168 6.845228 
" style="fill:none;stroke:#000000;stroke-linecap:square;stroke-linejoin:miter;stroke-width:0.8;"/>
   </g>
   <g id="text_13">
    <!-- scipyAlg -->
    <defs>
     <path d="M 32.171875 -5.078125 
Q 28.375 -14.84375 24.75 -17.8125 
Q 21.140625 -20.796875 15.09375 -20.796875 
L 7.90625 -20.796875 
L 7.90625 -13.28125 
L 13.1875 -13.28125 
Q 16.890625 -13.28125 18.9375 -11.515625 
Q 21 -9.765625 23.484375 -3.21875 
L 25.09375 0.875 
L 2.984375 54.6875 
L 12.5 54.6875 
L 29.59375 11.921875 
L 46.6875 54.6875 
L 56.203125 54.6875 
z
" id="DejaVuSans-79"/>
     <path d="M 34.1875 63.1875 
L 20.796875 26.90625 
L 47.609375 26.90625 
z
M 28.609375 72.90625 
L 39.796875 72.90625 
L 67.578125 0 
L 57.328125 0 
L 50.6875 18.703125 
L 17.828125 18.703125 
L 11.1875 0 
L 0.78125 0 
z
" id="DejaVuSans-41"/>
    </defs>
    <g transform="translate(369.18424 293.867279)scale(0.17 -0.17)">
     <use xlink:href="#DejaVuSans-73"/>
     <use x="52.099609" xlink:href="#DejaVuSans-63"/>
     <use x="107.080078" xlink:href="#DejaVuSans-69"/>
     <use x="134.863281" xlink:href="#DejaVuSans-70"/>
     <use x="198.339844" xlink:href="#DejaVuSans-79"/>
     <use x="257.519531" xlink:href="#DejaVuSans-41"/>
     <use x="325.927734" xlink:href="#DejaVuSans-6c"/>
     <use x="353.710938" xlink:href="#DejaVuSans-67"/>
    </g>
   </g>
   <g id="text_14">
    <!-- CMA ES PP -->
    <defs>
     <path d="M 64.40625 67.28125 
L 64.40625 56.890625 
Q 59.421875 61.53125 53.78125 63.8125 
Q 48.140625 66.109375 41.796875 66.109375 
Q 29.296875 66.109375 22.65625 58.46875 
Q 16.015625 50.828125 16.015625 36.375 
Q 16.015625 21.96875 22.65625 14.328125 
Q 29.296875 6.6875 41.796875 6.6875 
Q 48.140625 6.6875 53.78125 8.984375 
Q 59.421875 11.28125 64.40625 15.921875 
L 64.40625 5.609375 
Q 59.234375 2.09375 53.4375 0.328125 
Q 47.65625 -1.421875 41.21875 -1.421875 
Q 24.65625 -1.421875 15.125 8.703125 
Q 5.609375 18.84375 5.609375 36.375 
Q 5.609375 53.953125 15.125 64.078125 
Q 24.65625 74.21875 41.21875 74.21875 
Q 47.75 74.21875 53.53125 72.484375 
Q 59.328125 70.75 64.40625 67.28125 
z
" id="DejaVuSans-43"/>
     <path d="M 9.8125 72.90625 
L 24.515625 72.90625 
L 43.109375 23.296875 
L 61.8125 72.90625 
L 76.515625 72.90625 
L 76.515625 0 
L 66.890625 0 
L 66.890625 64.015625 
L 48.09375 14.015625 
L 38.1875 14.015625 
L 19.390625 64.015625 
L 19.390625 0 
L 9.8125 0 
z
" id="DejaVuSans-4d"/>
     <path d="M 9.8125 72.90625 
L 55.90625 72.90625 
L 55.90625 64.59375 
L 19.671875 64.59375 
L 19.671875 43.015625 
L 54.390625 43.015625 
L 54.390625 34.71875 
L 19.671875 34.71875 
L 19.671875 8.296875 
L 56.78125 8.296875 
L 56.78125 0 
L 9.8125 0 
z
" id="DejaVuSans-45"/>
     <path d="M 53.515625 70.515625 
L 53.515625 60.890625 
Q 47.90625 63.578125 42.921875 64.890625 
Q 37.9375 66.21875 33.296875 66.21875 
Q 25.25 66.21875 20.875 63.09375 
Q 16.5 59.96875 16.5 54.203125 
Q 16.5 49.359375 19.40625 46.890625 
Q 22.3125 44.4375 30.421875 42.921875 
L 36.375 41.703125 
Q 47.40625 39.59375 52.65625 34.296875 
Q 57.90625 29 57.90625 20.125 
Q 57.90625 9.515625 50.796875 4.046875 
Q 43.703125 -1.421875 29.984375 -1.421875 
Q 24.8125 -1.421875 18.96875 -0.25 
Q 13.140625 0.921875 6.890625 3.21875 
L 6.890625 13.375 
Q 12.890625 10.015625 18.65625 8.296875 
Q 24.421875 6.59375 29.984375 6.59375 
Q 38.421875 6.59375 43.015625 9.90625 
Q 47.609375 13.234375 47.609375 19.390625 
Q 47.609375 24.75 44.3125 27.78125 
Q 41.015625 30.8125 33.5 32.328125 
L 27.484375 33.5 
Q 16.453125 35.6875 11.515625 40.375 
Q 6.59375 45.0625 6.59375 53.421875 
Q 6.59375 63.09375 13.40625 68.65625 
Q 20.21875 74.21875 32.171875 74.21875 
Q 37.3125 74.21875 42.625 73.28125 
Q 47.953125 72.359375 53.515625 70.515625 
z
" id="DejaVuSans-53"/>
     <path d="M 19.671875 64.796875 
L 19.671875 37.40625 
L 32.078125 37.40625 
Q 38.96875 37.40625 42.71875 40.96875 
Q 46.484375 44.53125 46.484375 51.125 
Q 46.484375 57.671875 42.71875 61.234375 
Q 38.96875 64.796875 32.078125 64.796875 
z
M 9.8125 72.90625 
L 32.078125 72.90625 
Q 44.34375 72.90625 50.609375 67.359375 
Q 56.890625 61.8125 56.890625 51.125 
Q 56.890625 40.328125 50.609375 34.8125 
Q 44.34375 29.296875 32.078125 29.296875 
L 19.671875 29.296875 
L 19.671875 0 
L 9.8125 0 
z
" id="DejaVuSans-50"/>
    </defs>
    <g transform="translate(369.18424 156.979466)scale(0.17 -0.17)">
     <use xlink:href="#DejaVuSans-43"/>
     <use x="69.824219" xlink:href="#DejaVuSans-4d"/>
     <use x="156.103516" xlink:href="#DejaVuSans-41"/>
     <use x="224.511719" xlink:href="#DejaVuSans-20"/>
     <use x="256.298828" xlink:href="#DejaVuSans-45"/>
     <use x="319.482422" xlink:href="#DejaVuSans-53"/>
     <use x="382.958984" xlink:href="#DejaVuSans-20"/>
     <use x="414.746094" xlink:href="#DejaVuSans-50"/>
     <use x="475.048828" xlink:href="#DejaVuSans-50"/>
    </g>
   </g>
   <g id="text_15">
    <!-- best 2009 -->
    <defs>
     <path d="M 48.6875 27.296875 
Q 48.6875 37.203125 44.609375 42.84375 
Q 40.53125 48.484375 33.40625 48.484375 
Q 26.265625 48.484375 22.1875 42.84375 
Q 18.109375 37.203125 18.109375 27.296875 
Q 18.109375 17.390625 22.1875 11.75 
Q 26.265625 6.109375 33.40625 6.109375 
Q 40.53125 6.109375 44.609375 11.75 
Q 48.6875 17.390625 48.6875 27.296875 
z
M 18.109375 46.390625 
Q 20.953125 51.265625 25.265625 53.625 
Q 29.59375 56 35.59375 56 
Q 45.5625 56 51.78125 48.09375 
Q 58.015625 40.1875 58.015625 27.296875 
Q 58.015625 14.40625 51.78125 6.484375 
Q 45.5625 -1.421875 35.59375 -1.421875 
Q 29.59375 -1.421875 25.265625 0.953125 
Q 20.953125 3.328125 18.109375 8.203125 
L 18.109375 0 
L 9.078125 0 
L 9.078125 75.984375 
L 18.109375 75.984375 
z
" id="DejaVuSans-62"/>
     <path d="M 10.984375 1.515625 
L 10.984375 10.5 
Q 14.703125 8.734375 18.5 7.8125 
Q 22.3125 6.890625 25.984375 6.890625 
Q 35.75 6.890625 40.890625 13.453125 
Q 46.046875 20.015625 46.78125 33.40625 
Q 43.953125 29.203125 39.59375 26.953125 
Q 35.25 24.703125 29.984375 24.703125 
Q 19.046875 24.703125 12.671875 31.3125 
Q 6.296875 37.9375 6.296875 49.421875 
Q 6.296875 60.640625 12.9375 67.421875 
Q 19.578125 74.21875 30.609375 74.21875 
Q 43.265625 74.21875 49.921875 64.515625 
Q 56.59375 54.828125 56.59375 36.375 
Q 56.59375 19.140625 48.40625 8.859375 
Q 40.234375 -1.421875 26.421875 -1.421875 
Q 22.703125 -1.421875 18.890625 -0.6875 
Q 15.09375 0.046875 10.984375 1.515625 
z
M 30.609375 32.421875 
Q 37.25 32.421875 41.125 36.953125 
Q 45.015625 41.5 45.015625 49.421875 
Q 45.015625 57.28125 41.125 61.84375 
Q 37.25 66.40625 30.609375 66.40625 
Q 23.96875 66.40625 20.09375 61.84375 
Q 16.21875 57.28125 16.21875 49.421875 
Q 16.21875 41.5 20.09375 36.953125 
Q 23.96875 32.421875 30.609375 32.421875 
z
" id="DejaVuSans-39"/>
    </defs>
    <g transform="translate(369.18424 20.091654)scale(0.17 -0.17)">
     <use xlink:href="#DejaVuSans-62"/>
     <use x="63.476562" xlink:href="#DejaVuSans-65"/>
     <use x="125" xlink:href="#DejaVuSans-73"/>
     <use x="177.099609" xlink:href="#DejaVuSans-74"/>
     <use x="216.308594" xlink:href="#DejaVuSans-20"/>
     <use x="248.095703" xlink:href="#DejaVuSans-32"/>
     <use x="311.71875" xlink:href="#DejaVuSans-30"/>
     <use x="375.341797" xlink:href="#DejaVuSans-30"/>
     <use x="438.964844" xlink:href="#DejaVuSans-39"/>
    </g>
   </g>
   <g id="text_16">
    <!-- bbob f20-f24, 40-D -->
    <defs>
     <path d="M 19.671875 64.796875 
L 19.671875 8.109375 
L 31.59375 8.109375 
Q 46.6875 8.109375 53.6875 14.9375 
Q 60.6875 21.78125 60.6875 36.53125 
Q 60.6875 51.171875 53.6875 57.984375 
Q 46.6875 64.796875 31.59375 64.796875 
z
M 9.8125 72.90625 
L 30.078125 72.90625 
Q 51.265625 72.90625 61.171875 64.09375 
Q 71.09375 55.28125 71.09375 36.53125 
Q 71.09375 17.671875 61.125 8.828125 
Q 51.171875 0 30.078125 0 
L 9.8125 0 
z
" id="DejaVuSans-44"/>
    </defs>
    <g transform="translate(58.89048 17.475982)scale(0.102 -0.102)">
     <use xlink:href="#DejaVuSans-62"/>
     <use x="63.476562" xlink:href="#DejaVuSans-62"/>
     <use x="126.953125" xlink:href="#DejaVuSans-6f"/>
     <use x="188.134766" xlink:href="#DejaVuSans-62"/>
     <use x="251.611328" xlink:href="#DejaVuSans-20"/>
     <use x="283.398438" xlink:href="#DejaVuSans-66"/>
     <use x="318.603516" xlink:href="#DejaVuSans-32"/>
     <use x="382.226562" xlink:href="#DejaVuSans-30"/>
     <use x="445.849609" xlink:href="#DejaVuSans-2d"/>
     <use x="481.933594" xlink:href="#DejaVuSans-66"/>
     <use x="517.138672" xlink:href="#DejaVuSans-32"/>
     <use x="580.761719" xlink:href="#DejaVuSans-34"/>
     <use x="644.384766" xlink:href="#DejaVuSans-2c"/>
     <use x="676.171875" xlink:href="#DejaVuSans-20"/>
     <use x="707.958984" xlink:href="#DejaVuSans-34"/>
     <use x="771.582031" xlink:href="#DejaVuSans-30"/>
     <use x="835.205078" xlink:href="#DejaVuSans-2d"/>
     <use x="871.289062" xlink:href="#DejaVuSans-44"/>
    </g>
    <!-- 51 targets: 100..1e-08 -->
    <defs>
     <path d="M 10.796875 72.90625 
L 49.515625 72.90625 
L 49.515625 64.59375 
L 19.828125 64.59375 
L 19.828125 46.734375 
Q 21.96875 47.46875 24.109375 47.828125 
Q 26.265625 48.1875 28.421875 48.1875 
Q 40.625 48.1875 47.75 41.5 
Q 54.890625 34.8125 54.890625 23.390625 
Q 54.890625 11.625 47.5625 5.09375 
Q 40.234375 -1.421875 26.90625 -1.421875 
Q 22.3125 -1.421875 17.546875 -0.640625 
Q 12.796875 0.140625 7.71875 1.703125 
L 7.71875 11.625 
Q 12.109375 9.234375 16.796875 8.0625 
Q 21.484375 6.890625 26.703125 6.890625 
Q 35.15625 6.890625 40.078125 11.328125 
Q 45.015625 15.765625 45.015625 23.390625 
Q 45.015625 31 40.078125 35.4375 
Q 35.15625 39.890625 26.703125 39.890625 
Q 22.75 39.890625 18.8125 39.015625 
Q 14.890625 38.140625 10.796875 36.28125 
z
" id="DejaVuSans-35"/>
     <path d="M 11.71875 12.40625 
L 22.015625 12.40625 
L 22.015625 0 
L 11.71875 0 
z
M 11.71875 51.703125 
L 22.015625 51.703125 
L 22.015625 39.3125 
L 11.71875 39.3125 
z
" id="DejaVuSans-3a"/>
    </defs>
    <g transform="translate(58.89048 28.89775)scale(0.102 -0.102)">
     <use xlink:href="#DejaVuSans-35"/>
     <use x="63.623047" xlink:href="#DejaVuSans-31"/>
     <use x="127.246094" xlink:href="#DejaVuSans-20"/>
     <use x="159.033203" xlink:href="#DejaVuSans-74"/>
     <use x="198.242188" xlink:href="#DejaVuSans-61"/>
     <use x="259.521484" xlink:href="#DejaVuSans-72"/>
     <use x="300.619141" xlink:href="#DejaVuSans-67"/>
     <use x="364.095703" xlink:href="#DejaVuSans-65"/>
     <use x="425.619141" xlink:href="#DejaVuSans-74"/>
     <use x="464.828125" xlink:href="#DejaVuSans-73"/>
     <use x="516.927734" xlink:href="#DejaVuSans-3a"/>
     <use x="550.619141" xlink:href="#DejaVuSans-20"/>
     <use x="582.40625" xlink:href="#DejaVuSans-31"/>
     <use x="646.029297" xlink:href="#DejaVuSans-30"/>
     <use x="709.652344" xlink:href="#DejaVuSans-30"/>
     <use x="773.275391" xlink:href="#DejaVuSans-2e"/>
     <use x="805.0625" xlink:href="#DejaVuSans-2e"/>
     <use x="836.849609" xlink:href="#DejaVuSans-31"/>
     <use x="900.472656" xlink:href="#DejaVuSans-65"/>
     <use x="961.996094" xlink:href="#DejaVuSans-2d"/>
     <use x="998.080078" xlink:href="#DejaVuSans-30"/>
     <use x="1061.703125" xlink:href="#DejaVuSans-38"/>
    </g>
    <!-- 15 instances -->
    <g transform="translate(58.89048 40.319519)scale(0.102 -0.102)">
     <use xlink:href="#DejaVuSans-31"/>
     <use x="63.623047" xlink:href="#DejaVuSans-35"/>
     <use x="127.246094" xlink:href="#DejaVuSans-20"/>
     <use x="159.033203" xlink:href="#DejaVuSans-69"/>
     <use x="186.816406" xlink:href="#DejaVuSans-6e"/>
     <use x="250.195312" xlink:href="#DejaVuSans-73"/>
     <use x="302.294922" xlink:href="#DejaVuSans-74"/>
     <use x="341.503906" xlink:href="#DejaVuSans-61"/>
     <use x="402.783203" xlink:href="#DejaVuSans-6e"/>
     <use x="466.162109" xlink:href="#DejaVuSans-63"/>
     <use x="521.142578" xlink:href="#DejaVuSans-65"/>
     <use x="582.666016" xlink:href="#DejaVuSans-73"/>
    </g>
   </g>
   <g id="text_17">
    <!-- v0.0.0 -->
    <g style="fill:#808080;" transform="translate(178.96275 289.919965)scale(0.1 -0.1)">
     <use xlink:href="#DejaVuSans-76"/>
     <use x="59.179688" xlink:href="#DejaVuSans-30"/>
     <use x="122.802734" xlink:href="#DejaVuSans-2e"/>
     <use x="154.589844" xlink:href="#DejaVuSans-30"/>
     <use x="218.212891" xlink:href="#DejaVuSans-2e"/>
     <use x="250" xlink:href="#DejaVuSans-30"/>
    </g>
   </g>
  </g>
 </g>
 <defs>
  <clipPath id="p7f123adeaa">
   <rect height="288.034772" width="277.048" x="56.12" y="6.845228"/>
  </clipPath>
 </defs>
</svg>
