<?xml version="1.0" encoding="utf-8" standalone="no"?>
<!DOCTYPE svg PUBLIC "-//W3C//DTD SVG 1.1//EN"
  "http://www.w3.org/Graphics/SVG/1.1/DTD/svg11.dtd">
<!-- Created with matplotlib (http://matplotlib.org/) -->
<svg height="345pt" version="1.1" viewBox="0 0 460 345" width="460pt" xmlns="http://www.w3.org/2000/svg" xmlns:xlink="http://www.w3.org/1999/xlink">
 <defs>
  <style type="text/css">
*{stroke-linecap:butt;stroke-linejoin:round;}
  </style>
 </defs>
 <g id="figure_1">
  <g id="patch_1">
   <path d="M 0 345.6 
L 460.8 345.6 
L 460.8 0 
L 0 0 
z
" style="fill:#ffffff;"/>
  </g>
  <g id="axes_1">
   <g id="patch_2">
    <path d="M 56.12 294.88 
L 333.168 294.88 
L 333.168 24.84 
L 56.12 24.84 
z
" style="fill:#ffffff;"/>
   </g>
   <g id="line2d_1">
    <path d="M 37.236359 294.88 
L 37.236359 268.667614 
L 49.15061 268.667614 
L 49.15061 263.425137 
L 61.064861 263.425137 
L 61.064861 258.18266 
L 68.034251 258.18266 
L 68.034251 252.940182 
L 76.814644 252.940182 
L 76.814644 247.697705 
L 82.598142 247.697705 
L 82.598142 242.455228 
L 85.935418 242.455228 
L 85.935418 237.212751 
L 87.847234 237.212751 
L 87.847234 231.970274 
L 91.131212 231.970274 
L 91.131212 226.727797 
L 91.862754 226.727797 
L 91.862754 221.485319 
L 93.887283 221.485319 
L 93.887283 216.242842 
L 94.512393 216.242842 
L 94.512393 211.000365 
L 96.261898 211.000365 
L 96.261898 205.757888 
L 96.807615 205.757888 
L 96.807615 200.515411 
L 97.849669 200.515411 
L 97.849669 195.272933 
L 100.207968 195.272933 
L 100.207968 190.030456 
L 101.88624 190.030456 
L 101.88624 184.787979 
L 103.415125 184.787979 
L 103.415125 179.545502 
L 105.480242 179.545502 
L 105.480242 174.303025 
L 107.323646 174.303025 
L 107.323646 169.060547 
L 109.250788 169.060547 
L 109.250788 163.81807 
L 110.505991 163.81807 
L 110.505991 158.575593 
L 112.557398 158.575593 
L 112.557398 153.333116 
L 113.396034 153.333116 
L 113.396034 148.090639 
L 114.195649 148.090639 
L 114.195649 142.848162 
L 114.581927 142.848162 
L 114.581927 137.605684 
L 114.959714 137.605684 
L 114.959714 132.363207 
L 115.691256 132.363207 
L 115.691256 127.12073 
L 116.73331 127.12073 
L 116.73331 121.878253 
L 117.231566 121.878253 
L 117.231566 116.635776 
L 117.715785 116.635776 
L 117.715785 111.393298 
L 118.031182 111.393298 
L 118.031182 106.150821 
L 118.795247 106.150821 
L 118.795247 100.908344 
L 122.540864 100.908344 
L 122.540864 95.665867 
L 124.471649 95.665867 
L 124.471649 90.42339 
L 125.000572 90.42339 
L 125.000572 85.180912 
L 125.513703 85.180912 
L 125.513703 79.938435 
L 125.814387 79.938435 
L 125.814387 74.695958 
L 126.207287 74.695958 
L 126.207287 69.453481 
L 126.967129 69.453481 
L 126.967129 64.211004 
L 127.334814 64.211004 
L 127.334814 58.968526 
L 127.783629 58.968526 
L 127.783629 53.726049 
L 128.13443 53.726049 
L 128.13443 48.483572 
L 128.898495 48.483572 
L 128.898495 43.241095 
L 129.227474 43.241095 
L 129.227474 37.998618 
L 129.550274 37.998618 
L 129.550274 32.756141 
L 129.945433 32.756141 
L 129.945433 27.513663 
L 333.168 27.513663 
" style="fill:none;stroke:#f5deb3;stroke-linecap:square;stroke-width:4;"/>
   </g>
   <g id="line2d_2">
    <defs>
     <path d="M -0 7.778175 
L 7.778175 0 
L 0 -7.778175 
L -7.778175 -0 
z
" id="me176510d23" style="stroke:#f5deb3;stroke-linejoin:miter;stroke-width:1.5;"/>
    </defs>
    <g>
     <use style="fill:#f5deb3;stroke:#f5deb3;stroke-linejoin:miter;stroke-width:1.5;" x="87.847234" xlink:href="#me176510d23" y="237.212751"/>
     <use style="fill:#f5deb3;stroke:#f5deb3;stroke-linejoin:miter;stroke-width:1.5;" x="114.959714" xlink:href="#me176510d23" y="137.605684"/>
     <use style="fill:#f5deb3;stroke:#f5deb3;stroke-linejoin:miter;stroke-width:1.5;" x="128.13443" xlink:href="#me176510d23" y="53.726049"/>
     <use style="fill:#f5deb3;stroke:#f5deb3;stroke-linejoin:miter;stroke-width:1.5;" x="129.945433" xlink:href="#me176510d23" y="27.513663"/>
     <use style="fill:#f5deb3;stroke:#f5deb3;stroke-linejoin:miter;stroke-width:1.5;" x="129.945433" xlink:href="#me176510d23" y="27.513663"/>
     <use style="fill:#f5deb3;stroke:#f5deb3;stroke-linejoin:miter;stroke-width:1.5;" x="333.168" xlink:href="#me176510d23" y="27.513663"/>
    </g>
   </g>
   <g id="line2d_3">
    <path style="fill:none;stroke:#f5deb3;stroke-linecap:square;stroke-width:4;"/>
    <g/>
   </g>
   <g id="line2d_4">
    <path d="M 333.168 27.513663 
L 363.64328 32.86099 
" style="fill:none;stroke:#f5deb3;stroke-linecap:square;stroke-width:4;"/>
    <g>
     <use style="fill:#f5deb3;stroke:#f5deb3;stroke-linejoin:miter;stroke-width:1.5;" x="333.168" xlink:href="#me176510d23" y="27.513663"/>
     <use style="fill:#f5deb3;stroke:#f5deb3;stroke-linejoin:miter;stroke-width:1.5;" x="363.64328" xlink:href="#me176510d23" y="32.86099"/>
    </g>
   </g>
   <g id="matplotlib.axis_1">
    <g id="xtick_1">
     <g id="line2d_5">
      <path clip-path="url(#pdb0477e115)" d="M 56.12 294.88 
L 56.12 24.84 
" style="fill:none;stroke:#b0b0b0;stroke-linecap:square;stroke-width:0.8;"/>
     </g>
     <g id="line2d_6">
      <defs>
       <path d="M 0 0 
L 0 3.5 
" id="m88eab6eac4" style="stroke:#000000;stroke-width:0.8;"/>
      </defs>
      <g>
       <use style="stroke:#000000;stroke-width:0.8;" x="56.12" xlink:href="#m88eab6eac4" y="294.88"/>
      </g>
     </g>
     <g id="text_1">
      <!-- 0 -->
      <defs>
       <path d="M 31.78125 66.40625 
Q 24.171875 66.40625 20.328125 58.90625 
Q 16.5 51.421875 16.5 36.375 
Q 16.5 21.390625 20.328125 13.890625 
Q 24.171875 6.390625 31.78125 6.390625 
Q 39.453125 6.390625 43.28125 13.890625 
Q 47.125 21.390625 47.125 36.375 
Q 47.125 51.421875 43.28125 58.90625 
Q 39.453125 66.40625 31.78125 66.40625 
z
M 31.78125 74.21875 
Q 44.046875 74.21875 50.515625 64.515625 
Q 56.984375 54.828125 56.984375 36.375 
Q 56.984375 17.96875 50.515625 8.265625 
Q 44.046875 -1.421875 31.78125 -1.421875 
Q 19.53125 -1.421875 13.0625 8.265625 
Q 6.59375 17.96875 6.59375 36.375 
Q 6.59375 54.828125 13.0625 64.515625 
Q 19.53125 74.21875 31.78125 74.21875 
z
" id="DejaVuSans-30"/>
      </defs>
      <g transform="translate(49.7575 317.076875)scale(0.2 -0.2)">
       <use xlink:href="#DejaVuSans-30"/>
      </g>
     </g>
    </g>
    <g id="xtick_2">
     <g id="line2d_7">
      <path clip-path="url(#pdb0477e115)" d="M 135.276571 294.88 
L 135.276571 24.84 
" style="fill:none;stroke:#b0b0b0;stroke-linecap:square;stroke-width:0.8;"/>
     </g>
     <g id="line2d_8">
      <g>
       <use style="stroke:#000000;stroke-width:0.8;" x="135.276571" xlink:href="#m88eab6eac4" y="294.88"/>
      </g>
     </g>
     <g id="text_2">
      <!-- 2 -->
      <defs>
       <path d="M 19.1875 8.296875 
L 53.609375 8.296875 
L 53.609375 0 
L 7.328125 0 
L 7.328125 8.296875 
Q 12.9375 14.109375 22.625 23.890625 
Q 32.328125 33.6875 34.8125 36.53125 
Q 39.546875 41.84375 41.421875 45.53125 
Q 43.3125 49.21875 43.3125 52.78125 
Q 43.3125 58.59375 39.234375 62.25 
Q 35.15625 65.921875 28.609375 65.921875 
Q 23.96875 65.921875 18.8125 64.3125 
Q 13.671875 62.703125 7.8125 59.421875 
L 7.8125 69.390625 
Q 13.765625 71.78125 18.9375 73 
Q 24.125 74.21875 28.421875 74.21875 
Q 39.75 74.21875 46.484375 68.546875 
Q 53.21875 62.890625 53.21875 53.421875 
Q 53.21875 48.921875 51.53125 44.890625 
Q 49.859375 40.875 45.40625 35.40625 
Q 44.1875 33.984375 37.640625 27.21875 
Q 31.109375 20.453125 19.1875 8.296875 
z
" id="DejaVuSans-32"/>
      </defs>
      <g transform="translate(128.914071 317.076875)scale(0.2 -0.2)">
       <use xlink:href="#DejaVuSans-32"/>
      </g>
     </g>
    </g>
    <g id="xtick_3">
     <g id="line2d_9">
      <path clip-path="url(#pdb0477e115)" d="M 214.433143 294.88 
L 214.433143 24.84 
" style="fill:none;stroke:#b0b0b0;stroke-linecap:square;stroke-width:0.8;"/>
     </g>
     <g id="line2d_10">
      <g>
       <use style="stroke:#000000;stroke-width:0.8;" x="214.433143" xlink:href="#m88eab6eac4" y="294.88"/>
      </g>
     </g>
     <g id="text_3">
      <!-- 4 -->
      <defs>
       <path d="M 37.796875 64.3125 
L 12.890625 25.390625 
L 37.796875 25.390625 
z
M 35.203125 72.90625 
L 47.609375 72.90625 
L 47.609375 25.390625 
L 58.015625 25.390625 
L 58.015625 17.1875 
L 47.609375 17.1875 
L 47.609375 0 
L 37.796875 0 
L 37.796875 17.1875 
L 4.890625 17.1875 
L 4.890625 26.703125 
z
" id="DejaVuSans-34"/>
      </defs>
      <g transform="translate(208.070643 317.076875)scale(0.2 -0.2)">
       <use xlink:href="#DejaVuSans-34"/>
      </g>
     </g>
    </g>
    <g id="xtick_4">
     <g id="line2d_11">
      <path clip-path="url(#pdb0477e115)" d="M 293.589714 294.88 
L 293.589714 24.84 
" style="fill:none;stroke:#b0b0b0;stroke-linecap:square;stroke-width:0.8;"/>
     </g>
     <g id="line2d_12">
      <g>
       <use style="stroke:#000000;stroke-width:0.8;" x="293.589714" xlink:href="#m88eab6eac4" y="294.88"/>
      </g>
     </g>
     <g id="text_4">
      <!-- 6 -->
      <defs>
       <path d="M 33.015625 40.375 
Q 26.375 40.375 22.484375 35.828125 
Q 18.609375 31.296875 18.609375 23.390625 
Q 18.609375 15.53125 22.484375 10.953125 
Q 26.375 6.390625 33.015625 6.390625 
Q 39.65625 6.390625 43.53125 10.953125 
Q 47.40625 15.53125 47.40625 23.390625 
Q 47.40625 31.296875 43.53125 35.828125 
Q 39.65625 40.375 33.015625 40.375 
z
M 52.59375 71.296875 
L 52.59375 62.3125 
Q 48.875 64.0625 45.09375 64.984375 
Q 41.3125 65.921875 37.59375 65.921875 
Q 27.828125 65.921875 22.671875 59.328125 
Q 17.53125 52.734375 16.796875 39.40625 
Q 19.671875 43.65625 24.015625 45.921875 
Q 28.375 48.1875 33.59375 48.1875 
Q 44.578125 48.1875 50.953125 41.515625 
Q 57.328125 34.859375 57.328125 23.390625 
Q 57.328125 12.15625 50.6875 5.359375 
Q 44.046875 -1.421875 33.015625 -1.421875 
Q 20.359375 -1.421875 13.671875 8.265625 
Q 6.984375 17.96875 6.984375 36.375 
Q 6.984375 53.65625 15.1875 63.9375 
Q 23.390625 74.21875 37.203125 74.21875 
Q 40.921875 74.21875 44.703125 73.484375 
Q 48.484375 72.75 52.59375 71.296875 
z
" id="DejaVuSans-36"/>
      </defs>
      <g transform="translate(287.227214 317.076875)scale(0.2 -0.2)">
       <use xlink:href="#DejaVuSans-36"/>
      </g>
     </g>
    </g>
    <g id="xtick_5">
     <g id="line2d_13">
      <path clip-path="url(#pdb0477e115)" d="M 56.12 294.88 
L 56.12 24.84 
" style="fill:none;stroke:#b0b0b0;stroke-linecap:square;stroke-width:0.8;"/>
     </g>
     <g id="line2d_14">
      <defs>
       <path d="M 0 0 
L 0 2 
" id="m402252792a" style="stroke:#000000;stroke-width:0.6;"/>
      </defs>
      <g>
       <use style="stroke:#000000;stroke-width:0.6;" x="56.12" xlink:href="#m402252792a" y="294.88"/>
      </g>
     </g>
    </g>
    <g id="xtick_6">
     <g id="line2d_15">
      <path clip-path="url(#pdb0477e115)" d="M 95.698286 294.88 
L 95.698286 24.84 
" style="fill:none;stroke:#b0b0b0;stroke-linecap:square;stroke-width:0.8;"/>
     </g>
     <g id="line2d_16">
      <g>
       <use style="stroke:#000000;stroke-width:0.6;" x="95.698286" xlink:href="#m402252792a" y="294.88"/>
      </g>
     </g>
    </g>
    <g id="xtick_7">
     <g id="line2d_17">
      <path clip-path="url(#pdb0477e115)" d="M 135.276571 294.88 
L 135.276571 24.84 
" style="fill:none;stroke:#b0b0b0;stroke-linecap:square;stroke-width:0.8;"/>
     </g>
     <g id="line2d_18">
      <g>
       <use style="stroke:#000000;stroke-width:0.6;" x="135.276571" xlink:href="#m402252792a" y="294.88"/>
      </g>
     </g>
    </g>
    <g id="xtick_8">
     <g id="line2d_19">
      <path clip-path="url(#pdb0477e115)" d="M 174.854857 294.88 
L 174.854857 24.84 
" style="fill:none;stroke:#b0b0b0;stroke-linecap:square;stroke-width:0.8;"/>
     </g>
     <g id="line2d_20">
      <g>
       <use style="stroke:#000000;stroke-width:0.6;" x="174.854857" xlink:href="#m402252792a" y="294.88"/>
      </g>
     </g>
    </g>
    <g id="xtick_9">
     <g id="line2d_21">
      <path clip-path="url(#pdb0477e115)" d="M 214.433143 294.88 
L 214.433143 24.84 
" style="fill:none;stroke:#b0b0b0;stroke-linecap:square;stroke-width:0.8;"/>
     </g>
     <g id="line2d_22">
      <g>
       <use style="stroke:#000000;stroke-width:0.6;" x="214.433143" xlink:href="#m402252792a" y="294.88"/>
      </g>
     </g>
    </g>
    <g id="xtick_10">
     <g id="line2d_23">
      <path clip-path="url(#pdb0477e115)" d="M 254.011429 294.88 
L 254.011429 24.84 
" style="fill:none;stroke:#b0b0b0;stroke-linecap:square;stroke-width:0.8;"/>
     </g>
     <g id="line2d_24">
      <g>
       <use style="stroke:#000000;stroke-width:0.6;" x="254.011429" xlink:href="#m402252792a" y="294.88"/>
      </g>
     </g>
    </g>
    <g id="xtick_11">
     <g id="line2d_25">
      <path clip-path="url(#pdb0477e115)" d="M 293.589714 294.88 
L 293.589714 24.84 
" style="fill:none;stroke:#b0b0b0;stroke-linecap:square;stroke-width:0.8;"/>
     </g>
     <g id="line2d_26">
      <g>
       <use style="stroke:#000000;stroke-width:0.6;" x="293.589714" xlink:href="#m402252792a" y="294.88"/>
      </g>
     </g>
    </g>
    <g id="xtick_12">
     <g id="line2d_27">
      <path clip-path="url(#pdb0477e115)" d="M 333.168 294.88 
L 333.168 24.84 
" style="fill:none;stroke:#b0b0b0;stroke-linecap:square;stroke-width:0.8;"/>
     </g>
     <g id="line2d_28">
      <g>
       <use style="stroke:#000000;stroke-width:0.6;" x="333.168" xlink:href="#m402252792a" y="294.88"/>
      </g>
     </g>
    </g>
    <g id="text_5">
     <!-- log10(# f-evals / dimension) -->
     <defs>
      <path d="M 9.421875 75.984375 
L 18.40625 75.984375 
L 18.40625 0 
L 9.421875 0 
z
" id="DejaVuSans-6c"/>
      <path d="M 30.609375 48.390625 
Q 23.390625 48.390625 19.1875 42.75 
Q 14.984375 37.109375 14.984375 27.296875 
Q 14.984375 17.484375 19.15625 11.84375 
Q 23.34375 6.203125 30.609375 6.203125 
Q 37.796875 6.203125 41.984375 11.859375 
Q 46.1875 17.53125 46.1875 27.296875 
Q 46.1875 37.015625 41.984375 42.703125 
Q 37.796875 48.390625 30.609375 48.390625 
z
M 30.609375 56 
Q 42.328125 56 49.015625 48.375 
Q 55.71875 40.765625 55.71875 27.296875 
Q 55.71875 13.875 49.015625 6.21875 
Q 42.328125 -1.421875 30.609375 -1.421875 
Q 18.84375 -1.421875 12.171875 6.21875 
Q 5.515625 13.875 5.515625 27.296875 
Q 5.515625 40.765625 12.171875 48.375 
Q 18.84375 56 30.609375 56 
z
" id="DejaVuSans-6f"/>
      <path d="M 45.40625 27.984375 
Q 45.40625 37.75 41.375 43.109375 
Q 37.359375 48.484375 30.078125 48.484375 
Q 22.859375 48.484375 18.828125 43.109375 
Q 14.796875 37.75 14.796875 27.984375 
Q 14.796875 18.265625 18.828125 12.890625 
Q 22.859375 7.515625 30.078125 7.515625 
Q 37.359375 7.515625 41.375 12.890625 
Q 45.40625 18.265625 45.40625 27.984375 
z
M 54.390625 6.78125 
Q 54.390625 -7.171875 48.1875 -13.984375 
Q 42 -20.796875 29.203125 -20.796875 
Q 24.46875 -20.796875 20.265625 -20.09375 
Q 16.0625 -19.390625 12.109375 -17.921875 
L 12.109375 -9.1875 
Q 16.0625 -11.328125 19.921875 -12.34375 
Q 23.78125 -13.375 27.78125 -13.375 
Q 36.625 -13.375 41.015625 -8.765625 
Q 45.40625 -4.15625 45.40625 5.171875 
L 45.40625 9.625 
Q 42.625 4.78125 38.28125 2.390625 
Q 33.9375 0 27.875 0 
Q 17.828125 0 11.671875 7.65625 
Q 5.515625 15.328125 5.515625 27.984375 
Q 5.515625 40.671875 11.671875 48.328125 
Q 17.828125 56 27.875 56 
Q 33.9375 56 38.28125 53.609375 
Q 42.625 51.21875 45.40625 46.390625 
L 45.40625 54.6875 
L 54.390625 54.6875 
z
" id="DejaVuSans-67"/>
      <path d="M 12.40625 8.296875 
L 28.515625 8.296875 
L 28.515625 63.921875 
L 10.984375 60.40625 
L 10.984375 69.390625 
L 28.421875 72.90625 
L 38.28125 72.90625 
L 38.28125 8.296875 
L 54.390625 8.296875 
L 54.390625 0 
L 12.40625 0 
z
" id="DejaVuSans-31"/>
      <path d="M 31 75.875 
Q 24.46875 64.65625 21.28125 53.65625 
Q 18.109375 42.671875 18.109375 31.390625 
Q 18.109375 20.125 21.3125 9.0625 
Q 24.515625 -2 31 -13.1875 
L 23.1875 -13.1875 
Q 15.875 -1.703125 12.234375 9.375 
Q 8.59375 20.453125 8.59375 31.390625 
Q 8.59375 42.28125 12.203125 53.3125 
Q 15.828125 64.359375 23.1875 75.875 
z
" id="DejaVuSans-28"/>
      <path d="M 51.125 44 
L 36.921875 44 
L 32.8125 27.6875 
L 47.125 27.6875 
z
M 43.796875 71.78125 
L 38.71875 51.515625 
L 52.984375 51.515625 
L 58.109375 71.78125 
L 65.921875 71.78125 
L 60.890625 51.515625 
L 76.125 51.515625 
L 76.125 44 
L 58.984375 44 
L 54.984375 27.6875 
L 70.515625 27.6875 
L 70.515625 20.21875 
L 53.078125 20.21875 
L 48 0 
L 40.1875 0 
L 45.21875 20.21875 
L 30.90625 20.21875 
L 25.875 0 
L 18.015625 0 
L 23.09375 20.21875 
L 7.71875 20.21875 
L 7.71875 27.6875 
L 24.90625 27.6875 
L 29 44 
L 13.28125 44 
L 13.28125 51.515625 
L 30.90625 51.515625 
L 35.890625 71.78125 
z
" id="DejaVuSans-23"/>
      <path id="DejaVuSans-20"/>
      <path d="M 37.109375 75.984375 
L 37.109375 68.5 
L 28.515625 68.5 
Q 23.6875 68.5 21.796875 66.546875 
Q 19.921875 64.59375 19.921875 59.515625 
L 19.921875 54.6875 
L 34.71875 54.6875 
L 34.71875 47.703125 
L 19.921875 47.703125 
L 19.921875 0 
L 10.890625 0 
L 10.890625 47.703125 
L 2.296875 47.703125 
L 2.296875 54.6875 
L 10.890625 54.6875 
L 10.890625 58.5 
Q 10.890625 67.625 15.140625 71.796875 
Q 19.390625 75.984375 28.609375 75.984375 
z
" id="DejaVuSans-66"/>
      <path d="M 4.890625 31.390625 
L 31.203125 31.390625 
L 31.203125 23.390625 
L 4.890625 23.390625 
z
" id="DejaVuSans-2d"/>
      <path d="M 56.203125 29.59375 
L 56.203125 25.203125 
L 14.890625 25.203125 
Q 15.484375 15.921875 20.484375 11.0625 
Q 25.484375 6.203125 34.421875 6.203125 
Q 39.59375 6.203125 44.453125 7.46875 
Q 49.3125 8.734375 54.109375 11.28125 
L 54.109375 2.78125 
Q 49.265625 0.734375 44.1875 -0.34375 
Q 39.109375 -1.421875 33.890625 -1.421875 
Q 20.796875 -1.421875 13.15625 6.1875 
Q 5.515625 13.8125 5.515625 26.8125 
Q 5.515625 40.234375 12.765625 48.109375 
Q 20.015625 56 32.328125 56 
Q 43.359375 56 49.78125 48.890625 
Q 56.203125 41.796875 56.203125 29.59375 
z
M 47.21875 32.234375 
Q 47.125 39.59375 43.09375 43.984375 
Q 39.0625 48.390625 32.421875 48.390625 
Q 24.90625 48.390625 20.390625 44.140625 
Q 15.875 39.890625 15.1875 32.171875 
z
" id="DejaVuSans-65"/>
      <path d="M 2.984375 54.6875 
L 12.5 54.6875 
L 29.59375 8.796875 
L 46.6875 54.6875 
L 56.203125 54.6875 
L 35.6875 0 
L 23.484375 0 
z
" id="DejaVuSans-76"/>
      <path d="M 34.28125 27.484375 
Q 23.390625 27.484375 19.1875 25 
Q 14.984375 22.515625 14.984375 16.5 
Q 14.984375 11.71875 18.140625 8.90625 
Q 21.296875 6.109375 26.703125 6.109375 
Q 34.1875 6.109375 38.703125 11.40625 
Q 43.21875 16.703125 43.21875 25.484375 
L 43.21875 27.484375 
z
M 52.203125 31.203125 
L 52.203125 0 
L 43.21875 0 
L 43.21875 8.296875 
Q 40.140625 3.328125 35.546875 0.953125 
Q 30.953125 -1.421875 24.3125 -1.421875 
Q 15.921875 -1.421875 10.953125 3.296875 
Q 6 8.015625 6 15.921875 
Q 6 25.140625 12.171875 29.828125 
Q 18.359375 34.515625 30.609375 34.515625 
L 43.21875 34.515625 
L 43.21875 35.40625 
Q 43.21875 41.609375 39.140625 45 
Q 35.0625 48.390625 27.6875 48.390625 
Q 23 48.390625 18.546875 47.265625 
Q 14.109375 46.140625 10.015625 43.890625 
L 10.015625 52.203125 
Q 14.9375 54.109375 19.578125 55.046875 
Q 24.21875 56 28.609375 56 
Q 40.484375 56 46.34375 49.84375 
Q 52.203125 43.703125 52.203125 31.203125 
z
" id="DejaVuSans-61"/>
      <path d="M 44.28125 53.078125 
L 44.28125 44.578125 
Q 40.484375 46.53125 36.375 47.5 
Q 32.28125 48.484375 27.875 48.484375 
Q 21.1875 48.484375 17.84375 46.4375 
Q 14.5 44.390625 14.5 40.28125 
Q 14.5 37.15625 16.890625 35.375 
Q 19.28125 33.59375 26.515625 31.984375 
L 29.59375 31.296875 
Q 39.15625 29.25 43.1875 25.515625 
Q 47.21875 21.78125 47.21875 15.09375 
Q 47.21875 7.46875 41.1875 3.015625 
Q 35.15625 -1.421875 24.609375 -1.421875 
Q 20.21875 -1.421875 15.453125 -0.5625 
Q 10.6875 0.296875 5.421875 2 
L 5.421875 11.28125 
Q 10.40625 8.6875 15.234375 7.390625 
Q 20.0625 6.109375 24.8125 6.109375 
Q 31.15625 6.109375 34.5625 8.28125 
Q 37.984375 10.453125 37.984375 14.40625 
Q 37.984375 18.0625 35.515625 20.015625 
Q 33.0625 21.96875 24.703125 23.78125 
L 21.578125 24.515625 
Q 13.234375 26.265625 9.515625 29.90625 
Q 5.8125 33.546875 5.8125 39.890625 
Q 5.8125 47.609375 11.28125 51.796875 
Q 16.75 56 26.8125 56 
Q 31.78125 56 36.171875 55.265625 
Q 40.578125 54.546875 44.28125 53.078125 
z
" id="DejaVuSans-73"/>
      <path d="M 25.390625 72.90625 
L 33.6875 72.90625 
L 8.296875 -9.28125 
L 0 -9.28125 
z
" id="DejaVuSans-2f"/>
      <path d="M 45.40625 46.390625 
L 45.40625 75.984375 
L 54.390625 75.984375 
L 54.390625 0 
L 45.40625 0 
L 45.40625 8.203125 
Q 42.578125 3.328125 38.25 0.953125 
Q 33.9375 -1.421875 27.875 -1.421875 
Q 17.96875 -1.421875 11.734375 6.484375 
Q 5.515625 14.40625 5.515625 27.296875 
Q 5.515625 40.1875 11.734375 48.09375 
Q 17.96875 56 27.875 56 
Q 33.9375 56 38.25 53.625 
Q 42.578125 51.265625 45.40625 46.390625 
z
M 14.796875 27.296875 
Q 14.796875 17.390625 18.875 11.75 
Q 22.953125 6.109375 30.078125 6.109375 
Q 37.203125 6.109375 41.296875 11.75 
Q 45.40625 17.390625 45.40625 27.296875 
Q 45.40625 37.203125 41.296875 42.84375 
Q 37.203125 48.484375 30.078125 48.484375 
Q 22.953125 48.484375 18.875 42.84375 
Q 14.796875 37.203125 14.796875 27.296875 
z
" id="DejaVuSans-64"/>
      <path d="M 9.421875 54.6875 
L 18.40625 54.6875 
L 18.40625 0 
L 9.421875 0 
z
M 9.421875 75.984375 
L 18.40625 75.984375 
L 18.40625 64.59375 
L 9.421875 64.59375 
z
" id="DejaVuSans-69"/>
      <path d="M 52 44.1875 
Q 55.375 50.25 60.0625 53.125 
Q 64.75 56 71.09375 56 
Q 79.640625 56 84.28125 50.015625 
Q 88.921875 44.046875 88.921875 33.015625 
L 88.921875 0 
L 79.890625 0 
L 79.890625 32.71875 
Q 79.890625 40.578125 77.09375 44.375 
Q 74.3125 48.1875 68.609375 48.1875 
Q 61.625 48.1875 57.5625 43.546875 
Q 53.515625 38.921875 53.515625 30.90625 
L 53.515625 0 
L 44.484375 0 
L 44.484375 32.71875 
Q 44.484375 40.625 41.703125 44.40625 
Q 38.921875 48.1875 33.109375 48.1875 
Q 26.21875 48.1875 22.15625 43.53125 
Q 18.109375 38.875 18.109375 30.90625 
L 18.109375 0 
L 9.078125 0 
L 9.078125 54.6875 
L 18.109375 54.6875 
L 18.109375 46.1875 
Q 21.1875 51.21875 25.484375 53.609375 
Q 29.78125 56 35.6875 56 
Q 41.65625 56 45.828125 52.96875 
Q 50 49.953125 52 44.1875 
z
" id="DejaVuSans-6d"/>
      <path d="M 54.890625 33.015625 
L 54.890625 0 
L 45.90625 0 
L 45.90625 32.71875 
Q 45.90625 40.484375 42.875 44.328125 
Q 39.84375 48.1875 33.796875 48.1875 
Q 26.515625 48.1875 22.3125 43.546875 
Q 18.109375 38.921875 18.109375 30.90625 
L 18.109375 0 
L 9.078125 0 
L 9.078125 54.6875 
L 18.109375 54.6875 
L 18.109375 46.1875 
Q 21.34375 51.125 25.703125 53.5625 
Q 30.078125 56 35.796875 56 
Q 45.21875 56 50.046875 50.171875 
Q 54.890625 44.34375 54.890625 33.015625 
z
" id="DejaVuSans-6e"/>
      <path d="M 8.015625 75.875 
L 15.828125 75.875 
Q 23.140625 64.359375 26.78125 53.3125 
Q 30.421875 42.28125 30.421875 31.390625 
Q 30.421875 20.453125 26.78125 9.375 
Q 23.140625 -1.703125 15.828125 -13.1875 
L 8.015625 -13.1875 
Q 14.5 -2 17.703125 9.0625 
Q 20.90625 20.125 20.90625 31.390625 
Q 20.90625 42.671875 17.703125 53.65625 
Q 14.5 64.65625 8.015625 75.875 
z
" id="DejaVuSans-29"/>
     </defs>
     <g transform="translate(73.803219 338.153594)scale(0.17 -0.17)">
      <use xlink:href="#DejaVuSans-6c"/>
      <use x="27.783203" xlink:href="#DejaVuSans-6f"/>
      <use x="88.964844" xlink:href="#DejaVuSans-67"/>
      <use x="152.441406" xlink:href="#DejaVuSans-31"/>
      <use x="216.064453" xlink:href="#DejaVuSans-30"/>
      <use x="279.6875" xlink:href="#DejaVuSans-28"/>
      <use x="318.701172" xlink:href="#DejaVuSans-23"/>
      <use x="402.490234" xlink:href="#DejaVuSans-20"/>
      <use x="434.277344" xlink:href="#DejaVuSans-66"/>
      <use x="469.404297" xlink:href="#DejaVuSans-2d"/>
      <use x="505.488281" xlink:href="#DejaVuSans-65"/>
      <use x="567.011719" xlink:href="#DejaVuSans-76"/>
      <use x="626.191406" xlink:href="#DejaVuSans-61"/>
      <use x="687.470703" xlink:href="#DejaVuSans-6c"/>
      <use x="715.253906" xlink:href="#DejaVuSans-73"/>
      <use x="767.353516" xlink:href="#DejaVuSans-20"/>
      <use x="799.140625" xlink:href="#DejaVuSans-2f"/>
      <use x="832.832031" xlink:href="#DejaVuSans-20"/>
      <use x="864.619141" xlink:href="#DejaVuSans-64"/>
      <use x="928.095703" xlink:href="#DejaVuSans-69"/>
      <use x="955.878906" xlink:href="#DejaVuSans-6d"/>
      <use x="1053.291016" xlink:href="#DejaVuSans-65"/>
      <use x="1114.814453" xlink:href="#DejaVuSans-6e"/>
      <use x="1178.193359" xlink:href="#DejaVuSans-73"/>
      <use x="1230.292969" xlink:href="#DejaVuSans-69"/>
      <use x="1258.076172" xlink:href="#DejaVuSans-6f"/>
      <use x="1319.257812" xlink:href="#DejaVuSans-6e"/>
      <use x="1382.636719" xlink:href="#DejaVuSans-29"/>
     </g>
    </g>
   </g>
   <g id="matplotlib.axis_2">
    <g id="ytick_1">
     <g id="line2d_29">
      <path clip-path="url(#pdb0477e115)" d="M 56.12 294.88 
L 333.168 294.88 
" style="fill:none;stroke:#b0b0b0;stroke-linecap:square;stroke-width:0.8;"/>
     </g>
     <g id="line2d_30">
      <defs>
       <path d="M 0 0 
L -3.5 0 
" id="mfedfee5a76" style="stroke:#000000;stroke-width:0.8;"/>
      </defs>
      <g>
       <use style="stroke:#000000;stroke-width:0.8;" x="56.12" xlink:href="#mfedfee5a76" y="294.88"/>
      </g>
     </g>
     <g id="text_6">
      <!-- 0.0 -->
      <defs>
       <path d="M 10.6875 12.40625 
L 21 12.40625 
L 21 0 
L 10.6875 0 
z
" id="DejaVuSans-2e"/>
      </defs>
      <g transform="translate(23.675 300.95875)scale(0.16 -0.16)">
       <use xlink:href="#DejaVuSans-30"/>
       <use x="63.623047" xlink:href="#DejaVuSans-2e"/>
       <use x="95.410156" xlink:href="#DejaVuSans-30"/>
      </g>
     </g>
    </g>
    <g id="ytick_2">
     <g id="line2d_31">
      <path clip-path="url(#pdb0477e115)" d="M 56.12 241.406733 
L 333.168 241.406733 
" style="fill:none;stroke:#b0b0b0;stroke-linecap:square;stroke-width:0.8;"/>
     </g>
     <g id="line2d_32">
      <g>
       <use style="stroke:#000000;stroke-width:0.8;" x="56.12" xlink:href="#mfedfee5a76" y="241.406733"/>
      </g>
     </g>
     <g id="text_7">
      <!-- 0.2 -->
      <g transform="translate(23.675 247.485483)scale(0.16 -0.16)">
       <use xlink:href="#DejaVuSans-30"/>
       <use x="63.623047" xlink:href="#DejaVuSans-2e"/>
       <use x="95.410156" xlink:href="#DejaVuSans-32"/>
      </g>
     </g>
    </g>
    <g id="ytick_3">
     <g id="line2d_33">
      <path clip-path="url(#pdb0477e115)" d="M 56.12 187.933465 
L 333.168 187.933465 
" style="fill:none;stroke:#b0b0b0;stroke-linecap:square;stroke-width:0.8;"/>
     </g>
     <g id="line2d_34">
      <g>
       <use style="stroke:#000000;stroke-width:0.8;" x="56.12" xlink:href="#mfedfee5a76" y="187.933465"/>
      </g>
     </g>
     <g id="text_8">
      <!-- 0.4 -->
      <g transform="translate(23.675 194.012215)scale(0.16 -0.16)">
       <use xlink:href="#DejaVuSans-30"/>
       <use x="63.623047" xlink:href="#DejaVuSans-2e"/>
       <use x="95.410156" xlink:href="#DejaVuSans-34"/>
      </g>
     </g>
    </g>
    <g id="ytick_4">
     <g id="line2d_35">
      <path clip-path="url(#pdb0477e115)" d="M 56.12 134.460198 
L 333.168 134.460198 
" style="fill:none;stroke:#b0b0b0;stroke-linecap:square;stroke-width:0.8;"/>
     </g>
     <g id="line2d_36">
      <g>
       <use style="stroke:#000000;stroke-width:0.8;" x="56.12" xlink:href="#mfedfee5a76" y="134.460198"/>
      </g>
     </g>
     <g id="text_9">
      <!-- 0.6 -->
      <g transform="translate(23.675 140.538948)scale(0.16 -0.16)">
       <use xlink:href="#DejaVuSans-30"/>
       <use x="63.623047" xlink:href="#DejaVuSans-2e"/>
       <use x="95.410156" xlink:href="#DejaVuSans-36"/>
      </g>
     </g>
    </g>
    <g id="ytick_5">
     <g id="line2d_37">
      <path clip-path="url(#pdb0477e115)" d="M 56.12 80.986931 
L 333.168 80.986931 
" style="fill:none;stroke:#b0b0b0;stroke-linecap:square;stroke-width:0.8;"/>
     </g>
     <g id="line2d_38">
      <g>
       <use style="stroke:#000000;stroke-width:0.8;" x="56.12" xlink:href="#mfedfee5a76" y="80.986931"/>
      </g>
     </g>
     <g id="text_10">
      <!-- 0.8 -->
      <defs>
       <path d="M 31.78125 34.625 
Q 24.75 34.625 20.71875 30.859375 
Q 16.703125 27.09375 16.703125 20.515625 
Q 16.703125 13.921875 20.71875 10.15625 
Q 24.75 6.390625 31.78125 6.390625 
Q 38.8125 6.390625 42.859375 10.171875 
Q 46.921875 13.96875 46.921875 20.515625 
Q 46.921875 27.09375 42.890625 30.859375 
Q 38.875 34.625 31.78125 34.625 
z
M 21.921875 38.8125 
Q 15.578125 40.375 12.03125 44.71875 
Q 8.5 49.078125 8.5 55.328125 
Q 8.5 64.0625 14.71875 69.140625 
Q 20.953125 74.21875 31.78125 74.21875 
Q 42.671875 74.21875 48.875 69.140625 
Q 55.078125 64.0625 55.078125 55.328125 
Q 55.078125 49.078125 51.53125 44.71875 
Q 48 40.375 41.703125 38.8125 
Q 48.828125 37.15625 52.796875 32.3125 
Q 56.78125 27.484375 56.78125 20.515625 
Q 56.78125 9.90625 50.3125 4.234375 
Q 43.84375 -1.421875 31.78125 -1.421875 
Q 19.734375 -1.421875 13.25 4.234375 
Q 6.78125 9.90625 6.78125 20.515625 
Q 6.78125 27.484375 10.78125 32.3125 
Q 14.796875 37.15625 21.921875 38.8125 
z
M 18.3125 54.390625 
Q 18.3125 48.734375 21.84375 45.5625 
Q 25.390625 42.390625 31.78125 42.390625 
Q 38.140625 42.390625 41.71875 45.5625 
Q 45.3125 48.734375 45.3125 54.390625 
Q 45.3125 60.0625 41.71875 63.234375 
Q 38.140625 66.40625 31.78125 66.40625 
Q 25.390625 66.40625 21.84375 63.234375 
Q 18.3125 60.0625 18.3125 54.390625 
z
" id="DejaVuSans-38"/>
      </defs>
      <g transform="translate(23.675 87.065681)scale(0.16 -0.16)">
       <use xlink:href="#DejaVuSans-30"/>
       <use x="63.623047" xlink:href="#DejaVuSans-2e"/>
       <use x="95.410156" xlink:href="#DejaVuSans-38"/>
      </g>
     </g>
    </g>
    <g id="ytick_6">
     <g id="line2d_39">
      <path clip-path="url(#pdb0477e115)" d="M 56.12 27.513663 
L 333.168 27.513663 
" style="fill:none;stroke:#b0b0b0;stroke-linecap:square;stroke-width:0.8;"/>
     </g>
     <g id="line2d_40">
      <g>
       <use style="stroke:#000000;stroke-width:0.8;" x="56.12" xlink:href="#mfedfee5a76" y="27.513663"/>
      </g>
     </g>
     <g id="text_11">
      <!-- 1.0 -->
      <g transform="translate(23.675 33.592413)scale(0.16 -0.16)">
       <use xlink:href="#DejaVuSans-31"/>
       <use x="63.623047" xlink:href="#DejaVuSans-2e"/>
       <use x="95.410156" xlink:href="#DejaVuSans-30"/>
      </g>
     </g>
    </g>
    <g id="text_12">
     <!-- Fraction of function,target pairs -->
     <defs>
      <path d="M 9.8125 72.90625 
L 51.703125 72.90625 
L 51.703125 64.59375 
L 19.671875 64.59375 
L 19.671875 43.109375 
L 48.578125 43.109375 
L 48.578125 34.8125 
L 19.671875 34.8125 
L 19.671875 0 
L 9.8125 0 
z
" id="DejaVuSans-46"/>
      <path d="M 41.109375 46.296875 
Q 39.59375 47.171875 37.8125 47.578125 
Q 36.03125 48 33.890625 48 
Q 26.265625 48 22.1875 43.046875 
Q 18.109375 38.09375 18.109375 28.8125 
L 18.109375 0 
L 9.078125 0 
L 9.078125 54.6875 
L 18.109375 54.6875 
L 18.109375 46.1875 
Q 20.953125 51.171875 25.484375 53.578125 
Q 30.03125 56 36.53125 56 
Q 37.453125 56 38.578125 55.875 
Q 39.703125 55.765625 41.0625 55.515625 
z
" id="DejaVuSans-72"/>
      <path d="M 48.78125 52.59375 
L 48.78125 44.1875 
Q 44.96875 46.296875 41.140625 47.34375 
Q 37.3125 48.390625 33.40625 48.390625 
Q 24.65625 48.390625 19.8125 42.84375 
Q 14.984375 37.3125 14.984375 27.296875 
Q 14.984375 17.28125 19.8125 11.734375 
Q 24.65625 6.203125 33.40625 6.203125 
Q 37.3125 6.203125 41.140625 7.25 
Q 44.96875 8.296875 48.78125 10.40625 
L 48.78125 2.09375 
Q 45.015625 0.34375 40.984375 -0.53125 
Q 36.96875 -1.421875 32.421875 -1.421875 
Q 20.0625 -1.421875 12.78125 6.34375 
Q 5.515625 14.109375 5.515625 27.296875 
Q 5.515625 40.671875 12.859375 48.328125 
Q 20.21875 56 33.015625 56 
Q 37.15625 56 41.109375 55.140625 
Q 45.0625 54.296875 48.78125 52.59375 
z
" id="DejaVuSans-63"/>
      <path d="M 18.3125 70.21875 
L 18.3125 54.6875 
L 36.8125 54.6875 
L 36.8125 47.703125 
L 18.3125 47.703125 
L 18.3125 18.015625 
Q 18.3125 11.328125 20.140625 9.421875 
Q 21.96875 7.515625 27.59375 7.515625 
L 36.8125 7.515625 
L 36.8125 0 
L 27.59375 0 
Q 17.1875 0 13.234375 3.875 
Q 9.28125 7.765625 9.28125 18.015625 
L 9.28125 47.703125 
L 2.6875 47.703125 
L 2.6875 54.6875 
L 9.28125 54.6875 
L 9.28125 70.21875 
z
" id="DejaVuSans-74"/>
      <path d="M 8.5 21.578125 
L 8.5 54.6875 
L 17.484375 54.6875 
L 17.484375 21.921875 
Q 17.484375 14.15625 20.5 10.265625 
Q 23.53125 6.390625 29.59375 6.390625 
Q 36.859375 6.390625 41.078125 11.03125 
Q 45.3125 15.671875 45.3125 23.6875 
L 45.3125 54.6875 
L 54.296875 54.6875 
L 54.296875 0 
L 45.3125 0 
L 45.3125 8.40625 
Q 42.046875 3.421875 37.71875 1 
Q 33.40625 -1.421875 27.6875 -1.421875 
Q 18.265625 -1.421875 13.375 4.4375 
Q 8.5 10.296875 8.5 21.578125 
z
M 31.109375 56 
z
" id="DejaVuSans-75"/>
      <path d="M 11.71875 12.40625 
L 22.015625 12.40625 
L 22.015625 4 
L 14.015625 -11.625 
L 7.71875 -11.625 
L 11.71875 4 
z
" id="DejaVuSans-2c"/>
      <path d="M 18.109375 8.203125 
L 18.109375 -20.796875 
L 9.078125 -20.796875 
L 9.078125 54.6875 
L 18.109375 54.6875 
L 18.109375 46.390625 
Q 20.953125 51.265625 25.265625 53.625 
Q 29.59375 56 35.59375 56 
Q 45.5625 56 51.78125 48.09375 
Q 58.015625 40.1875 58.015625 27.296875 
Q 58.015625 14.40625 51.78125 6.484375 
Q 45.5625 -1.421875 35.59375 -1.421875 
Q 29.59375 -1.421875 25.265625 0.953125 
Q 20.953125 3.328125 18.109375 8.203125 
z
M 48.6875 27.296875 
Q 48.6875 37.203125 44.609375 42.84375 
Q 40.53125 48.484375 33.40625 48.484375 
Q 26.265625 48.484375 22.1875 42.84375 
Q 18.109375 37.203125 18.109375 27.296875 
Q 18.109375 17.390625 22.1875 11.75 
Q 26.265625 6.109375 33.40625 6.109375 
Q 40.53125 6.109375 44.609375 11.75 
Q 48.6875 17.390625 48.6875 27.296875 
z
" id="DejaVuSans-70"/>
     </defs>
     <g transform="translate(16.139531 294.999375)rotate(-90)scale(0.17 -0.17)">
      <use xlink:href="#DejaVuSans-46"/>
      <use x="57.410156" xlink:href="#DejaVuSans-72"/>
      <use x="98.523438" xlink:href="#DejaVuSans-61"/>
      <use x="159.802734" xlink:href="#DejaVuSans-63"/>
      <use x="214.783203" xlink:href="#DejaVuSans-74"/>
      <use x="253.992188" xlink:href="#DejaVuSans-69"/>
      <use x="281.775391" xlink:href="#DejaVuSans-6f"/>
      <use x="342.957031" xlink:href="#DejaVuSans-6e"/>
      <use x="406.335938" xlink:href="#DejaVuSans-20"/>
      <use x="438.123047" xlink:href="#DejaVuSans-6f"/>
      <use x="499.304688" xlink:href="#DejaVuSans-66"/>
      <use x="534.509766" xlink:href="#DejaVuSans-20"/>
      <use x="566.296875" xlink:href="#DejaVuSans-66"/>
      <use x="601.501953" xlink:href="#DejaVuSans-75"/>
      <use x="664.880859" xlink:href="#DejaVuSans-6e"/>
      <use x="728.259766" xlink:href="#DejaVuSans-63"/>
      <use x="783.240234" xlink:href="#DejaVuSans-74"/>
      <use x="822.449219" xlink:href="#DejaVuSans-69"/>
      <use x="850.232422" xlink:href="#DejaVuSans-6f"/>
      <use x="911.414062" xlink:href="#DejaVuSans-6e"/>
      <use x="974.792969" xlink:href="#DejaVuSans-2c"/>
      <use x="1006.580078" xlink:href="#DejaVuSans-74"/>
      <use x="1045.789062" xlink:href="#DejaVuSans-61"/>
      <use x="1107.068359" xlink:href="#DejaVuSans-72"/>
      <use x="1148.166016" xlink:href="#DejaVuSans-67"/>
      <use x="1211.642578" xlink:href="#DejaVuSans-65"/>
      <use x="1273.166016" xlink:href="#DejaVuSans-74"/>
      <use x="1312.375" xlink:href="#DejaVuSans-20"/>
      <use x="1344.162109" xlink:href="#DejaVuSans-70"/>
      <use x="1407.638672" xlink:href="#DejaVuSans-61"/>
      <use x="1468.917969" xlink:href="#DejaVuSans-69"/>
      <use x="1496.701172" xlink:href="#DejaVuSans-72"/>
      <use x="1537.814453" xlink:href="#DejaVuSans-73"/>
     </g>
    </g>
   </g>
   <g id="line2d_41">
    <defs>
     <path d="M 0 1.5 
C 0.397805 1.5 0.77937 1.341951 1.06066 1.06066 
C 1.341951 0.77937 1.5 0.397805 1.5 0 
C 1.5 -0.397805 1.341951 -0.77937 1.06066 -1.06066 
C 0.77937 -1.341951 0.397805 -1.5 0 -1.5 
C -0.397805 -1.5 -0.77937 -1.341951 -1.06066 -1.06066 
C -1.341951 -0.77937 -1.5 -0.397805 -1.5 0 
C -1.5 0.397805 -1.341951 0.77937 -1.06066 1.06066 
C -0.77937 1.341951 -0.397805 1.5 0 1.5 
z
" id="md846937839" style="stroke:#f5deb3;"/>
    </defs>
    <g>
     <use style="fill:#f5deb3;stroke:#f5deb3;" x="129.945433" xlink:href="#md846937839" y="27.513663"/>
     <use style="fill:#f5deb3;stroke:#f5deb3;" x="129.945433" xlink:href="#md846937839" y="27.513663"/>
    </g>
   </g>
   <g id="line2d_42">
    <defs>
     <path d="M 0 1.5 
C 0.397805 1.5 0.77937 1.341951 1.06066 1.06066 
C 1.341951 0.77937 1.5 0.397805 1.5 0 
C 1.5 -0.397805 1.341951 -0.77937 1.06066 -1.06066 
C 0.77937 -1.341951 0.397805 -1.5 0 -1.5 
C -0.397805 -1.5 -0.77937 -1.341951 -1.06066 -1.06066 
C -1.341951 -0.77937 -1.5 -0.397805 -1.5 0 
C -1.5 0.397805 -1.341951 0.77937 -1.06066 1.06066 
C -0.77937 1.341951 -0.397805 1.5 0 1.5 
z
" id="m08939bbca6" style="stroke:#000080;"/>
    </defs>
    <g>
     <use style="fill:#000080;stroke:#000080;" x="151.634268" xlink:href="#m08939bbca6" y="27.513663"/>
     <use style="fill:#000080;stroke:#000080;" x="151.634268" xlink:href="#m08939bbca6" y="27.513663"/>
    </g>
   </g>
   <g id="line2d_43">
    <path d="M 37.236359 294.88 
L 37.236359 269.191862 
L 88.728896 269.191862 
L 88.728896 268.667614 
L 96.807615 268.667614 
L 96.807615 268.143366 
L 97.849669 268.143366 
L 97.849669 267.094871 
L 98.832144 267.094871 
L 98.832144 266.570623 
L 99.761485 266.570623 
L 99.761485 265.522128 
L 100.207968 265.522128 
L 100.207968 264.473632 
L 100.643147 264.473632 
L 100.643147 263.425137 
L 101.067579 263.425137 
L 101.067579 262.376641 
L 101.481783 262.376641 
L 101.481783 259.755403 
L 101.88624 259.755403 
L 101.88624 258.18266 
L 102.281398 258.18266 
L 102.281398 257.134164 
L 102.667676 257.134164 
L 102.667676 255.561421 
L 103.045463 255.561421 
L 103.045463 254.512926 
L 103.415125 254.512926 
L 103.415125 252.415935 
L 103.777005 252.415935 
L 103.777005 251.367439 
L 104.131422 251.367439 
L 104.131422 250.318944 
L 104.478679 250.318944 
L 104.478679 248.221953 
L 106.426644 248.221953 
L 106.426644 247.697705 
L 110.262176 247.697705 
L 110.262176 247.173458 
L 111.900428 247.173458 
L 111.900428 246.64921 
L 114.389873 246.64921 
L 114.389873 246.124962 
L 114.771859 246.124962 
L 114.771859 245.600714 
L 115.145539 245.600714 
L 115.145539 245.076467 
L 115.869378 245.076467 
L 115.869378 244.552219 
L 116.045673 244.552219 
L 116.045673 244.027971 
L 116.563963 244.027971 
L 116.563963 243.503724 
L 116.901005 243.503724 
L 116.901005 242.979476 
L 118.031182 242.979476 
L 118.031182 242.455228 
L 118.340895 242.455228 
L 118.340895 241.93098 
L 118.645127 241.93098 
L 118.645127 241.406733 
L 118.795247 241.406733 
L 118.795247 240.882485 
L 119.237897 240.882485 
L 119.237897 239.83399 
L 119.382949 239.83399 
L 119.382949 239.309742 
L 119.526788 239.309742 
L 119.526788 238.785494 
L 119.810904 238.785494 
L 119.810904 238.261246 
L 119.95122 238.261246 
L 119.95122 237.736999 
L 120.501303 237.736999 
L 120.501303 237.212751 
L 120.636117 237.212751 
L 120.636117 236.164255 
L 120.769881 236.164255 
L 120.769881 235.11576 
L 121.16504 235.11576 
L 121.16504 234.591512 
L 123.589988 234.591512 
L 123.589988 234.067265 
L 124.146303 234.067265 
L 124.146303 233.543017 
L 124.790952 233.543017 
L 124.896081 231.970274 
L 125.000572 231.970274 
L 125.104431 230.397531 
L 125.310285 230.397531 
L 125.412295 229.349035 
L 125.714742 229.349035 
L 125.714742 228.30054 
L 126.109901 228.30054 
L 126.109901 227.776292 
L 126.304124 227.776292 
L 126.40042 225.679301 
L 126.873966 225.679301 
L 126.967129 224.106558 
L 127.05979 224.106558 
L 127.151955 223.058063 
L 127.334814 223.058063 
L 127.42552 220.436824 
L 127.605507 220.436824 
L 127.694799 218.864081 
L 127.783629 218.864081 
L 127.872003 215.718594 
L 128.047399 215.718594 
L 128.047399 215.194347 
L 128.39291 215.194347 
L 128.478214 213.621604 
L 128.563096 213.621604 
L 128.563096 212.573108 
L 128.731613 212.573108 
L 128.815257 211.000365 
L 128.898495 211.000365 
L 128.981332 208.903374 
L 129.063771 208.903374 
L 129.145817 204.709392 
L 129.227474 204.709392 
L 129.308744 201.563906 
L 129.550274 201.563906 
L 129.630036 197.369924 
L 129.788458 197.369924 
L 129.867125 195.272933 
L 129.945433 195.272933 
L 129.945433 194.748686 
L 130.178239 194.748686 
L 130.255146 192.651695 
L 130.33171 192.651695 
L 130.33171 191.603199 
L 130.559378 191.603199 
L 130.559378 191.078952 
L 130.784069 191.078952 
L 130.858318 188.981961 
L 131.005861 188.981961 
L 131.07916 187.933465 
L 131.152148 187.933465 
L 131.224827 186.88497 
L 131.2972 186.88497 
L 131.36927 184.263731 
L 131.441039 184.263731 
L 131.441039 183.215236 
L 131.583684 183.215236 
L 131.583684 182.690988 
L 131.725155 182.690988 
L 131.795457 179.545502 
L 131.865471 179.545502 
L 131.865471 179.021254 
L 132.004651 179.021254 
L 132.073821 177.972759 
L 132.142713 177.972759 
L 132.211331 175.35152 
L 132.347749 175.35152 
L 132.415555 174.303025 
L 132.483094 174.303025 
L 132.550368 171.681786 
L 132.684132 171.681786 
L 132.684132 171.157538 
L 132.816864 171.157538 
L 132.882847 170.109043 
L 133.014059 170.109043 
L 133.079291 168.012052 
L 133.144276 168.012052 
L 133.209017 166.439309 
L 133.273515 166.439309 
L 133.273515 164.342318 
L 133.465568 164.342318 
L 133.529112 162.245327 
L 133.592422 162.245327 
L 133.6555 159.624089 
L 133.718347 159.624089 
L 133.718347 159.099841 
L 133.843356 159.099841 
L 133.843356 157.00285 
L 133.967462 157.00285 
L 133.967462 153.857364 
L 134.151957 153.857364 
L 134.213018 152.28462 
L 134.273863 152.28462 
L 134.334493 150.18763 
L 134.39491 150.18763 
L 134.455115 148.614886 
L 134.515111 148.614886 
L 134.574897 147.566391 
L 134.634477 147.566391 
L 134.69385 145.993648 
L 134.753019 145.993648 
L 134.811986 143.896657 
L 134.87075 143.896657 
L 134.929315 140.751171 
L 135.045848 140.751171 
L 135.045848 138.129932 
L 135.161597 138.129932 
L 135.21918 135.508693 
L 135.276571 135.508693 
L 135.333772 132.887455 
L 135.390782 132.887455 
L 135.390782 131.314712 
L 135.616951 131.314712 
L 135.673032 127.12073 
L 135.784647 127.12073 
L 135.895542 125.023739 
L 135.950722 125.023739 
L 136.060554 122.4025 
L 136.169688 122.4025 
L 136.223997 120.829757 
L 136.332102 120.829757 
L 136.439531 115.58728 
L 136.492995 115.58728 
L 136.546293 114.014537 
L 136.652396 114.014537 
L 136.757848 112.441794 
L 136.810332 112.441794 
L 136.914823 110.344803 
L 136.966831 110.344803 
L 137.018682 108.247812 
L 137.173303 108.247812 
L 137.275617 103.005335 
L 137.326546 103.005335 
L 137.377325 101.432592 
L 137.478435 101.432592 
L 137.578954 99.335601 
L 137.728638 99.335601 
L 137.827708 96.190115 
L 137.87703 96.190115 
L 137.975251 93.568876 
L 138.024152 93.568876 
L 138.072914 91.996133 
L 138.170025 91.996133 
L 138.266591 88.850646 
L 138.314671 88.850646 
L 138.410429 85.180912 
L 138.553074 85.180912 
L 138.647518 82.035426 
L 138.694545 82.035426 
L 138.788217 78.365692 
L 138.834862 78.365692 
L 138.88138 76.268701 
L 139.020186 76.268701 
L 139.112104 73.647463 
L 139.157879 73.647463 
L 139.249066 70.501976 
L 139.339771 70.501976 
L 139.43 69.453481 
L 139.474938 69.453481 
L 139.564462 66.307995 
L 139.653523 66.307995 
L 139.742124 64.211004 
L 139.786254 64.211004 
L 139.786254 63.162508 
L 139.96165 63.162508 
L 140.048681 60.017022 
L 140.092032 60.017022 
L 140.178407 58.444279 
L 140.221432 58.444279 
L 140.26435 56.347288 
L 140.349866 56.347288 
L 140.392465 55.298792 
L 140.477347 55.298792 
L 140.561812 53.726049 
L 140.645865 53.726049 
L 140.729508 51.629058 
L 140.812746 51.629058 
L 140.812746 50.580563 
L 141.100945 50.580563 
L 141.182408 48.483572 
L 141.66324 48.483572 
L 141.66324 47.959324 
L 141.781376 47.959324 
L 141.859684 46.386581 
L 141.937637 46.386581 
L 142.015238 43.765343 
L 142.169397 43.765343 
L 142.169397 43.241095 
L 142.322186 43.241095 
L 142.322186 42.716847 
L 142.435893 42.716847 
L 142.435893 42.192599 
L 142.623749 42.192599 
L 142.661075 40.619856 
L 142.809574 40.619856 
L 142.846499 38.522865 
L 143.029944 38.522865 
L 143.066399 37.47437 
L 143.175303 37.47437 
L 143.175303 36.950122 
L 143.391063 36.950122 
L 143.497935 35.377379 
L 143.604148 35.377379 
L 143.709708 34.328884 
L 143.884213 34.328884 
L 143.884213 33.804636 
L 144.193927 33.804636 
L 144.193927 33.280388 
L 148.192385 33.280388 
L 148.192385 32.756141 
L 148.881082 32.756141 
L 148.881082 32.231893 
L 149.342206 32.231893 
L 149.342206 31.707645 
L 150.490985 31.707645 
L 150.490985 31.183397 
L 150.842025 31.183397 
L 150.91138 30.134902 
L 151.231391 30.134902 
L 151.299196 28.562159 
L 151.366735 28.562159 
L 151.366735 28.037911 
L 151.634268 28.037911 
L 151.634268 27.513663 
L 333.168 27.513663 
L 333.168 27.513663 
" style="fill:none;stroke:#000080;stroke-linecap:square;stroke-width:1.5;"/>
   </g>
   <g id="line2d_44">
    <defs>
     <path d="M 0 6 
C 1.591219 6 3.117479 5.367802 4.242641 4.242641 
C 5.367802 3.117479 6 1.591219 6 0 
C 6 -1.591219 5.367802 -3.117479 4.242641 -4.242641 
C 3.117479 -5.367802 1.591219 -6 0 -6 
C -1.591219 -6 -3.117479 -5.367802 -4.242641 -4.242641 
C -5.367802 -3.117479 -6 -1.591219 -6 0 
C -6 1.591219 -5.367802 3.117479 -4.242641 4.242641 
C -3.117479 5.367802 -1.591219 6 0 6 
z
" id="mf9e85535ec" style="stroke:#000080;stroke-width:1.5;"/>
    </defs>
    <g>
     <use style="fill:none;stroke:#000080;stroke-width:1.5;" x="133.014059" xlink:href="#mf9e85535ec" y="170.109043"/>
     <use style="fill:none;stroke:#000080;stroke-width:1.5;" x="151.634268" xlink:href="#mf9e85535ec" y="28.037911"/>
     <use style="fill:none;stroke:#000080;stroke-width:1.5;" x="151.634268" xlink:href="#mf9e85535ec" y="28.037911"/>
     <use style="fill:none;stroke:#000080;stroke-width:1.5;" x="151.634268" xlink:href="#mf9e85535ec" y="27.513663"/>
     <use style="fill:none;stroke:#000080;stroke-width:1.5;" x="333.168" xlink:href="#mf9e85535ec" y="27.513663"/>
    </g>
   </g>
   <g id="line2d_45">
    <path style="fill:none;stroke:#000080;stroke-linecap:square;stroke-width:1.5;"/>
    <g/>
   </g>
   <g id="line2d_46">
    <path clip-path="url(#pdb0477e115)" d="M 136.223997 120.829757 
" style="fill:none;stroke:#000080;stroke-linecap:square;stroke-width:1.5;"/>
    <defs>
     <path d="M -12 12 
L 12 -12 
M -12 -12 
L 12 12 
" id="m7d238c02b6" style="stroke:#000080;"/>
    </defs>
    <g clip-path="url(#pdb0477e115)">
     <use style="fill:#000080;stroke:#000080;" x="136.223997" xlink:href="#m7d238c02b6" y="120.829757"/>
    </g>
   </g>
   <g id="line2d_47">
    <defs>
     <path d="M 0 1.5 
C 0.397805 1.5 0.77937 1.341951 1.06066 1.06066 
C 1.341951 0.77937 1.5 0.397805 1.5 0 
C 1.5 -0.397805 1.341951 -0.77937 1.06066 -1.06066 
C 0.77937 -1.341951 0.397805 -1.5 0 -1.5 
C -0.397805 -1.5 -0.77937 -1.341951 -1.06066 -1.06066 
C -1.341951 -0.77937 -1.5 -0.397805 -1.5 0 
C -1.5 0.397805 -1.341951 0.77937 -1.06066 1.06066 
C -0.77937 1.341951 -0.397805 1.5 0 1.5 
z
" id="mfcce231433" style="stroke:#ff00ff;"/>
    </defs>
    <g>
     <use style="fill:#ff00ff;stroke:#ff00ff;" x="247.307434" xlink:href="#mfcce231433" y="27.513663"/>
     <use style="fill:#ff00ff;stroke:#ff00ff;" x="247.307434" xlink:href="#mfcce231433" y="27.513663"/>
    </g>
   </g>
   <g id="line2d_48">
    <path d="M 37.236359 294.88 
L 37.236359 271.288853 
L 49.15061 271.288853 
L 49.15061 268.667614 
L 56.12 268.667614 
L 56.12 260.803898 
L 61.064861 260.803898 
L 61.064861 260.279651 
L 64.900393 260.279651 
L 64.900393 259.231155 
L 68.034251 259.231155 
L 68.034251 258.706907 
L 70.68389 258.706907 
L 70.68389 256.609917 
L 75.003641 256.609917 
L 75.003641 256.085669 
L 81.324327 256.085669 
L 81.324327 255.561421 
L 84.893363 255.561421 
L 84.893363 255.037173 
L 91.131212 255.037173 
L 91.131212 254.512926 
L 92.564428 254.512926 
L 92.564428 252.940182 
L 94.512393 252.940182 
L 94.512393 252.415935 
L 96.807615 252.415935 
L 96.807615 251.367439 
L 98.832144 251.367439 
L 98.832144 250.318944 
L 101.88624 250.318944 
L 101.88624 249.794696 
L 102.667676 249.794696 
L 102.667676 249.270448 
L 104.131422 249.270448 
L 104.131422 248.746201 
L 104.819059 248.746201 
L 104.819059 247.697705 
L 107.029816 247.697705 
L 107.029816 247.173458 
L 107.612537 247.173458 
L 107.612537 246.124962 
L 110.983483 246.124962 
L 110.983483 245.600714 
L 112.98183 245.600714 
L 112.98183 245.076467 
L 122.660646 245.076467 
L 122.660646 244.552219 
L 124.363883 244.552219 
L 124.363883 244.027971 
L 125.310285 244.027971 
L 125.310285 243.503724 
L 126.496178 243.503724 
L 126.496178 242.979476 
L 129.630036 242.979476 
L 129.630036 240.358237 
L 132.142713 240.358237 
L 132.142713 239.309742 
L 133.843356 239.309742 
L 133.843356 238.261246 
L 134.87075 238.261246 
L 134.87075 236.164255 
L 135.161597 236.164255 
L 135.161597 235.11576 
L 135.950722 235.11576 
L 135.950722 234.067265 
L 137.224536 234.067265 
L 137.224536 233.543017 
L 138.410429 233.543017 
L 138.410429 233.018769 
L 140.221432 233.018769 
L 140.221432 232.494521 
L 141.060069 232.494521 
L 141.060069 231.970274 
L 141.859684 231.970274 
L 141.859684 231.446026 
L 142.473629 231.446026 
L 142.473629 230.921778 
L 142.920112 230.921778 
L 142.920112 229.873283 
L 143.988072 229.873283 
L 143.988072 229.349035 
L 144.498158 229.349035 
L 144.598384 227.776292 
L 146.459281 227.776292 
L 146.459281 226.727797 
L 150.655696 226.727797 
L 150.655696 226.203549 
L 151.612132 226.203549 
L 151.612132 225.679301 
L 152.871701 225.679301 
L 152.892274 224.630806 
L 153.458539 224.630806 
L 153.498281 222.533815 
L 153.929489 222.533815 
L 153.929489 222.009567 
L 156.074039 222.009567 
L 156.074039 220.961072 
L 156.311596 220.961072 
L 156.311596 219.388328 
L 156.562529 219.388328 
L 156.562529 218.864081 
L 157.484002 218.864081 
L 157.484002 218.339833 
L 157.671858 218.339833 
L 157.671858 217.815585 
L 158.699253 217.815585 
L 158.699253 217.291338 
L 162.802544 217.291338 
L 162.848688 216.242842 
L 165.550912 216.242842 
L 165.550912 215.718594 
L 165.727207 215.718594 
L 165.727207 215.194347 
L 166.169692 215.194347 
L 166.169692 214.145851 
L 166.61033 214.145851 
L 166.61033 213.621604 
L 166.967581 213.621604 
L 167.003805 212.573108 
L 167.308672 212.573108 
L 167.308672 212.04886 
L 167.467909 212.04886 
L 167.529438 211.000365 
L 168.022429 211.000365 
L 168.022429 209.95187 
L 168.276328 209.95187 
L 168.276328 208.903374 
L 168.534808 208.903374 
L 168.559617 206.806383 
L 168.650279 206.806383 
L 168.650279 205.757888 
L 170.27283 205.757888 
L 170.27283 205.23364 
L 171.019325 205.23364 
L 171.019325 204.709392 
L 171.857961 204.709392 
L 171.857961 204.185145 
L 172.101776 204.185145 
L 172.101776 203.136649 
L 172.39515 203.136649 
L 172.39515 202.612401 
L 172.806677 202.612401 
L 172.890383 201.563906 
L 173.271521 201.563906 
L 173.271521 201.039658 
L 174.577615 201.039658 
L 174.577615 199.991163 
L 174.728343 199.991163 
L 174.728343 198.942667 
L 175.127698 198.942667 
L 175.127698 197.894172 
L 175.262512 197.894172 
L 175.340667 196.321429 
L 176.304566 196.321429 
L 176.304566 195.797181 
L 176.58661 195.797181 
L 176.58661 195.272933 
L 176.802822 195.272933 
L 176.802822 193.70019 
L 177.122125 193.70019 
L 177.122125 193.175943 
L 177.287041 193.175943 
L 177.287041 192.651695 
L 177.883351 192.651695 
L 177.892956 191.603199 
L 178.662865 191.603199 
L 178.662865 191.078952 
L 178.827351 191.078952 
L 178.827351 190.030456 
L 179.631307 190.030456 
L 179.730826 187.933465 
L 179.928152 187.933465 
L 179.928152 187.409218 
L 180.177973 187.409218 
L 180.249286 185.312227 
L 180.391032 185.312227 
L 180.391032 184.787979 
L 180.506892 184.787979 
L 180.552196 183.215236 
L 180.736295 183.215236 
L 180.793171 181.118245 
L 180.882169 181.118245 
L 180.882169 180.593997 
L 181.042811 180.593997 
L 181.042811 180.06975 
L 181.201966 180.06975 
L 181.265218 179.021254 
L 181.453589 179.021254 
L 181.453589 178.497006 
L 181.686185 178.497006 
L 181.736169 175.875768 
L 181.927071 175.875768 
L 181.927071 175.35152 
L 182.142144 175.35152 
L 182.142144 174.827272 
L 182.804176 174.827272 
L 182.804176 174.303025 
L 182.976494 174.303025 
L 182.976494 173.254529 
L 183.358008 173.254529 
L 183.358008 172.206034 
L 183.826693 172.206034 
L 183.826693 171.681786 
L 184.176669 171.681786 
L 184.176669 170.633291 
L 184.375384 170.633291 
L 184.375384 169.584795 
L 184.516396 169.584795 
L 184.516396 169.060547 
L 184.727382 169.060547 
L 184.727382 167.487804 
L 184.967652 167.487804 
L 185.053333 166.439309 
L 185.185773 166.439309 
L 185.26725 164.866566 
L 185.298485 164.866566 
L 185.391851 163.81807 
L 185.4878 163.81807 
L 185.589353 162.245327 
L 185.671998 162.245327 
L 185.778543 160.148336 
L 185.965673 160.148336 
L 186.019621 159.099841 
L 186.43354 159.099841 
L 186.526767 158.051345 
L 186.561597 158.051345 
L 186.561597 157.527098 
L 187.109488 157.527098 
L 187.134747 156.478602 
L 187.310527 156.478602 
L 187.310527 155.954354 
L 187.5613 155.954354 
L 187.5613 155.430107 
L 187.996205 155.430107 
L 188.091963 153.857364 
L 188.469751 153.857364 
L 188.469751 153.333116 
L 189.051434 153.333116 
L 189.051434 152.808868 
L 189.265827 152.808868 
L 189.265827 152.28462 
L 189.408923 152.28462 
L 189.408923 151.236125 
L 189.93159 151.236125 
L 189.983944 150.18763 
L 190.243346 150.18763 
L 190.299427 149.139134 
L 190.487359 149.139134 
L 190.515026 148.090639 
L 190.721128 148.090639 
L 190.823259 147.042143 
L 190.841352 147.042143 
L 190.841352 146.517896 
L 191.083766 146.517896 
L 191.083766 145.993648 
L 191.225821 145.993648 
L 191.225821 145.4694 
L 191.390812 145.4694 
L 191.390812 144.945152 
L 191.636446 144.945152 
L 191.636446 144.420905 
L 191.748312 144.420905 
L 191.748312 143.896657 
L 191.93386 143.896657 
L 192.016391 141.799666 
L 193.060681 141.799666 
L 193.084504 140.751171 
L 193.391242 140.751171 
L 193.404878 139.178427 
L 193.675358 139.178427 
L 193.761401 137.081437 
L 193.898182 137.081437 
L 193.898182 136.557189 
L 194.196437 136.557189 
L 194.196437 136.032941 
L 195.202245 136.032941 
L 195.202245 135.508693 
L 195.314132 135.508693 
L 195.314132 134.984446 
L 195.439141 134.984446 
L 195.439141 134.460198 
L 195.76812 134.460198 
L 195.76812 133.411703 
L 196.147457 133.411703 
L 196.150776 132.363207 
L 196.329104 132.363207 
L 196.427381 130.266216 
L 196.533218 130.266216 
L 196.619036 129.217721 
L 196.746163 129.217721 
L 196.746163 128.693473 
L 197.156473 128.693473 
L 197.156473 128.169225 
L 197.306102 128.169225 
L 197.3897 126.596482 
L 197.454441 126.596482 
L 197.466745 125.547987 
L 197.631992 125.547987 
L 197.631992 125.023739 
L 197.765473 125.023739 
L 197.765473 124.499491 
L 198.007032 124.499491 
L 198.007032 123.975244 
L 198.178994 123.975244 
L 198.178994 123.450996 
L 198.562616 123.450996 
L 198.597201 122.4025 
L 198.803261 122.4025 
L 198.820321 121.354005 
L 199.091014 121.354005 
L 199.124553 120.30551 
L 199.467342 120.30551 
L 199.467342 119.781262 
L 199.670051 119.781262 
L 199.670051 119.257014 
L 199.808795 119.257014 
L 199.808795 118.732766 
L 199.969038 118.732766 
L 200.069758 117.160023 
L 200.332025 117.160023 
L 200.430647 116.111528 
L 200.585222 116.111528 
L 200.692603 115.063032 
L 200.950627 115.063032 
L 200.951882 114.014537 
L 201.070723 114.014537 
L 201.070723 113.490289 
L 201.334226 113.490289 
L 201.334226 112.966042 
L 201.499168 112.966042 
L 201.499168 112.441794 
L 201.749044 112.441794 
L 201.835113 111.393298 
L 201.888688 111.393298 
L 201.888688 110.869051 
L 202.157598 110.869051 
L 202.157598 110.344803 
L 202.491368 110.344803 
L 202.491368 109.820555 
L 202.618298 109.820555 
L 202.642206 108.77206 
L 202.805262 108.77206 
L 202.886213 107.723564 
L 202.980177 107.723564 
L 203.086939 106.675069 
L 203.206259 106.675069 
L 203.206259 106.150821 
L 203.649693 106.150821 
L 203.649693 105.626573 
L 203.856595 105.626573 
L 203.856595 105.102326 
L 204.085113 105.102326 
L 204.094525 104.05383 
L 204.244427 104.05383 
L 204.34364 102.481087 
L 204.371441 102.481087 
L 204.371441 101.956839 
L 204.491394 101.956839 
L 204.491394 101.432592 
L 205.188164 101.432592 
L 205.188164 100.908344 
L 205.560832 100.908344 
L 205.560832 100.384096 
L 205.869105 100.384096 
L 205.869105 99.859849 
L 205.981892 99.859849 
L 206.015584 98.811353 
L 206.28277 98.811353 
L 206.357174 97.23861 
L 206.534984 97.23861 
L 206.534984 96.714362 
L 206.665119 96.714362 
L 206.665119 96.190115 
L 206.894066 96.190115 
L 207.001227 95.141619 
L 207.176027 95.141619 
L 207.176027 94.617371 
L 207.880637 94.617371 
L 207.880637 94.093124 
L 208.045099 94.093124 
L 208.045099 93.568876 
L 208.33183 93.568876 
L 208.33183 93.044628 
L 208.693249 93.044628 
L 208.693249 92.520381 
L 209.051928 92.520381 
L 209.123086 90.947637 
L 209.359459 90.947637 
L 209.451574 88.850646 
L 209.97632 88.850646 
L 209.97632 88.326399 
L 210.153615 88.326399 
L 210.153615 87.802151 
L 210.424859 87.802151 
L 210.424859 87.277903 
L 210.99687 87.277903 
L 210.99687 86.753656 
L 211.417821 86.753656 
L 211.417821 86.229408 
L 211.68544 86.229408 
L 211.754545 85.180912 
L 211.850028 85.180912 
L 211.936374 83.608169 
L 212.375924 83.608169 
L 212.404316 82.559674 
L 212.530222 82.559674 
L 212.530222 82.035426 
L 212.774253 82.035426 
L 212.774253 81.511178 
L 213.17096 81.511178 
L 213.17096 80.986931 
L 213.458957 80.986931 
L 213.458957 80.462683 
L 213.857533 80.462683 
L 213.916677 79.414188 
L 214.129679 79.414188 
L 214.197773 77.841444 
L 214.274276 77.841444 
L 214.274276 77.317197 
L 214.422253 77.317197 
L 214.460623 76.268701 
L 215.052113 76.268701 
L 215.107293 75.220206 
L 215.232446 75.220206 
L 215.245567 74.17171 
L 215.555358 74.17171 
L 215.555358 73.647463 
L 215.91915 73.647463 
L 215.91915 73.123215 
L 216.344236 73.123215 
L 216.364218 71.550472 
L 216.661198 71.550472 
L 216.703423 70.501976 
L 216.847412 70.501976 
L 216.865327 69.453481 
L 217.347888 69.453481 
L 217.40582 68.404985 
L 217.551237 68.404985 
L 217.611348 67.35649 
L 217.679788 67.35649 
L 217.728576 66.307995 
L 217.822916 66.307995 
L 217.826208 65.259499 
L 218.636894 65.259499 
L 218.708528 64.211004 
L 218.859324 64.211004 
L 218.868622 63.162508 
L 219.369407 63.162508 
L 219.479119 62.114013 
L 220.004157 62.114013 
L 220.004157 61.589765 
L 220.581077 61.589765 
L 220.675375 60.54127 
L 220.731469 60.54127 
L 220.731469 60.017022 
L 220.946186 60.017022 
L 220.946186 59.492774 
L 221.448308 59.492774 
L 221.503078 58.444279 
L 221.79974 58.444279 
L 221.79974 57.920031 
L 222.23462 57.920031 
L 222.256441 56.871536 
L 222.923712 56.871536 
L 222.953055 55.82304 
L 223.065768 55.82304 
L 223.090715 54.774545 
L 223.33412 54.774545 
L 223.33412 54.250297 
L 223.614475 54.250297 
L 223.614475 53.726049 
L 224.235842 53.726049 
L 224.235842 53.201802 
L 224.836154 53.201802 
L 224.858037 52.153306 
L 224.996189 52.153306 
L 224.996189 51.629058 
L 225.195844 51.629058 
L 225.195844 51.104811 
L 225.52714 51.104811 
L 225.52714 50.580563 
L 225.837127 50.580563 
L 225.837127 50.056315 
L 226.340517 50.056315 
L 226.340517 49.532068 
L 226.66079 49.532068 
L 226.704617 48.483572 
L 226.840165 48.483572 
L 226.840165 47.959324 
L 227.345713 47.959324 
L 227.345713 47.435077 
L 227.670249 47.435077 
L 227.670249 46.910829 
L 227.953321 46.910829 
L 227.984604 45.862334 
L 228.773608 45.862334 
L 228.773608 45.338086 
L 229.177788 45.338086 
L 229.177788 44.813838 
L 229.383573 44.813838 
L 229.383573 44.28959 
L 229.980054 44.28959 
L 230.03562 43.241095 
L 230.122315 43.241095 
L 230.122315 42.716847 
L 230.478085 42.716847 
L 230.478085 42.192599 
L 230.944121 42.192599 
L 230.944121 41.668352 
L 231.318877 41.668352 
L 231.318877 40.619856 
L 231.500687 40.619856 
L 231.500687 40.095609 
L 232.592216 40.095609 
L 232.592216 39.571361 
L 232.970502 39.571361 
L 232.970502 39.047113 
L 234.979326 39.047113 
L 235.054752 37.998618 
L 235.135349 37.998618 
L 235.135349 37.47437 
L 235.627684 37.47437 
L 235.627684 36.950122 
L 235.754935 36.950122 
L 235.782755 35.901627 
L 235.881745 35.901627 
L 235.881745 35.377379 
L 236.074128 35.377379 
L 236.074128 34.853131 
L 236.377914 34.853131 
L 236.453825 33.804636 
L 237.527712 33.804636 
L 237.602889 32.756141 
L 238.246168 32.756141 
L 238.246168 32.231893 
L 238.596969 32.231893 
L 238.596969 31.707645 
L 240.955917 31.707645 
L 240.955917 31.183397 
L 241.471252 31.183397 
L 241.471252 30.65915 
L 242.108175 30.65915 
L 242.108175 30.134902 
L 243.607025 30.134902 
L 243.607025 29.610654 
L 243.814004 29.610654 
L 243.814004 29.086407 
L 244.114575 29.086407 
L 244.114575 28.562159 
L 244.446401 28.562159 
L 244.446401 28.037911 
L 247.307434 28.037911 
L 247.307434 27.513663 
L 333.168 27.513663 
L 333.168 27.513663 
" style="fill:none;stroke:#ff00ff;stroke-linecap:square;stroke-width:1.5;"/>
   </g>
   <g id="line2d_49">
    <defs>
     <path d="M -0 8.485281 
L 5.091169 0 
L 0 -8.485281 
L -5.091169 -0 
z
" id="m517e42578d" style="stroke:#ff00ff;stroke-linejoin:miter;stroke-width:1.5;"/>
    </defs>
    <g>
     <use style="fill:none;stroke:#ff00ff;stroke-linejoin:miter;stroke-width:1.5;" x="122.660646" xlink:href="#m517e42578d" y="244.552219"/>
     <use style="fill:none;stroke:#ff00ff;stroke-linejoin:miter;stroke-width:1.5;" x="182.976494" xlink:href="#m517e42578d" y="173.254529"/>
     <use style="fill:none;stroke:#ff00ff;stroke-linejoin:miter;stroke-width:1.5;" x="232.970502" xlink:href="#m517e42578d" y="39.047113"/>
     <use style="fill:none;stroke:#ff00ff;stroke-linejoin:miter;stroke-width:1.5;" x="247.307434" xlink:href="#m517e42578d" y="27.513663"/>
     <use style="fill:none;stroke:#ff00ff;stroke-linejoin:miter;stroke-width:1.5;" x="247.307434" xlink:href="#m517e42578d" y="27.513663"/>
     <use style="fill:none;stroke:#ff00ff;stroke-linejoin:miter;stroke-width:1.5;" x="333.168" xlink:href="#m517e42578d" y="27.513663"/>
    </g>
   </g>
   <g id="line2d_50">
    <path style="fill:none;stroke:#ff00ff;stroke-linecap:square;stroke-width:1.5;"/>
    <g/>
   </g>
   <g id="line2d_51">
    <path clip-path="url(#pdb0477e115)" d="M 177.465163 192.651695 
" style="fill:none;stroke:#ff00ff;stroke-linecap:square;stroke-width:1.5;"/>
    <defs>
     <path d="M -12 12 
L 12 -12 
M -12 -12 
L 12 12 
" id="ma540400bc5" style="stroke:#ff00ff;"/>
    </defs>
    <g clip-path="url(#pdb0477e115)">
     <use style="fill:#ff00ff;stroke:#ff00ff;" x="177.465163" xlink:href="#ma540400bc5" y="192.651695"/>
    </g>
   </g>
   <g id="line2d_52">
    <path d="M 333.168 27.513663 
L 363.64328 289.532673 
" style="fill:none;stroke:#ff00ff;stroke-linecap:square;stroke-width:1.5;"/>
    <g>
     <use style="fill:none;stroke:#ff00ff;stroke-linejoin:miter;stroke-width:1.5;" x="333.168" xlink:href="#m517e42578d" y="27.513663"/>
     <use style="fill:none;stroke:#ff00ff;stroke-linejoin:miter;stroke-width:1.5;" x="363.64328" xlink:href="#m517e42578d" y="289.532673"/>
    </g>
   </g>
   <g id="line2d_53">
    <path d="M 333.168 27.513663 
L 363.64328 161.196832 
" style="fill:none;stroke:#000080;stroke-linecap:square;stroke-width:1.5;"/>
    <g>
     <use style="fill:none;stroke:#000080;stroke-width:1.5;" x="333.168" xlink:href="#mf9e85535ec" y="27.513663"/>
     <use style="fill:none;stroke:#000080;stroke-width:1.5;" x="363.64328" xlink:href="#mf9e85535ec" y="161.196832"/>
    </g>
   </g>
   <g id="line2d_54">
    <path d="M 333.168 294.88 
L 333.168 27.513663 
" style="fill:none;stroke:#000000;stroke-linecap:square;stroke-width:1.5;"/>
   </g>
   <g id="patch_3">
    <path d="M 56.12 294.88 
L 56.12 24.84 
" style="fill:none;stroke:#000000;stroke-linecap:square;stroke-linejoin:miter;stroke-width:0.8;"/>
   </g>
   <g id="patch_4">
    <path d="M 333.168 294.88 
L 333.168 24.84 
" style="fill:none;stroke:#000000;stroke-linecap:square;stroke-linejoin:miter;stroke-width:0.8;"/>
   </g>
   <g id="patch_5">
    <path d="M 56.12 294.88 
L 333.168 294.88 
" style="fill:none;stroke:#000000;stroke-linecap:square;stroke-linejoin:miter;stroke-width:0.8;"/>
   </g>
   <g id="patch_6">
    <path d="M 56.12 24.84 
L 333.168 24.84 
" style="fill:none;stroke:#000000;stroke-linecap:square;stroke-linejoin:miter;stroke-width:0.8;"/>
   </g>
   <g id="text_13">
    <!-- CMA ES PP -->
    <defs>
     <path d="M 64.40625 67.28125 
L 64.40625 56.890625 
Q 59.421875 61.53125 53.78125 63.8125 
Q 48.140625 66.109375 41.796875 66.109375 
Q 29.296875 66.109375 22.65625 58.46875 
Q 16.015625 50.828125 16.015625 36.375 
Q 16.015625 21.96875 22.65625 14.328125 
Q 29.296875 6.6875 41.796875 6.6875 
Q 48.140625 6.6875 53.78125 8.984375 
Q 59.421875 11.28125 64.40625 15.921875 
L 64.40625 5.609375 
Q 59.234375 2.09375 53.4375 0.328125 
Q 47.65625 -1.421875 41.21875 -1.421875 
Q 24.65625 -1.421875 15.125 8.703125 
Q 5.609375 18.84375 5.609375 36.375 
Q 5.609375 53.953125 15.125 64.078125 
Q 24.65625 74.21875 41.21875 74.21875 
Q 47.75 74.21875 53.53125 72.484375 
Q 59.328125 70.75 64.40625 67.28125 
z
" id="DejaVuSans-43"/>
     <path d="M 9.8125 72.90625 
L 24.515625 72.90625 
L 43.109375 23.296875 
L 61.8125 72.90625 
L 76.515625 72.90625 
L 76.515625 0 
L 66.890625 0 
L 66.890625 64.015625 
L 48.09375 14.015625 
L 38.1875 14.015625 
L 19.390625 64.015625 
L 19.390625 0 
L 9.8125 0 
z
" id="DejaVuSans-4d"/>
     <path d="M 34.1875 63.1875 
L 20.796875 26.90625 
L 47.609375 26.90625 
z
M 28.609375 72.90625 
L 39.796875 72.90625 
L 67.578125 0 
L 57.328125 0 
L 50.6875 18.703125 
L 17.828125 18.703125 
L 11.1875 0 
L 0.78125 0 
z
" id="DejaVuSans-41"/>
     <path d="M 9.8125 72.90625 
L 55.90625 72.90625 
L 55.90625 64.59375 
L 19.671875 64.59375 
L 19.671875 43.015625 
L 54.390625 43.015625 
L 54.390625 34.71875 
L 19.671875 34.71875 
L 19.671875 8.296875 
L 56.78125 8.296875 
L 56.78125 0 
L 9.8125 0 
z
" id="DejaVuSans-45"/>
     <path d="M 53.515625 70.515625 
L 53.515625 60.890625 
Q 47.90625 63.578125 42.921875 64.890625 
Q 37.9375 66.21875 33.296875 66.21875 
Q 25.25 66.21875 20.875 63.09375 
Q 16.5 59.96875 16.5 54.203125 
Q 16.5 49.359375 19.40625 46.890625 
Q 22.3125 44.4375 30.421875 42.921875 
L 36.375 41.703125 
Q 47.40625 39.59375 52.65625 34.296875 
Q 57.90625 29 57.90625 20.125 
Q 57.90625 9.515625 50.796875 4.046875 
Q 43.703125 -1.421875 29.984375 -1.421875 
Q 24.8125 -1.421875 18.96875 -0.25 
Q 13.140625 0.921875 6.890625 3.21875 
L 6.890625 13.375 
Q 12.890625 10.015625 18.65625 8.296875 
Q 24.421875 6.59375 29.984375 6.59375 
Q 38.421875 6.59375 43.015625 9.90625 
Q 47.609375 13.234375 47.609375 19.390625 
Q 47.609375 24.75 44.3125 27.78125 
Q 41.015625 30.8125 33.5 32.328125 
L 27.484375 33.5 
Q 16.453125 35.6875 11.515625 40.375 
Q 6.59375 45.0625 6.59375 53.421875 
Q 6.59375 63.09375 13.40625 68.65625 
Q 20.21875 74.21875 32.171875 74.21875 
Q 37.3125 74.21875 42.625 73.28125 
Q 47.953125 72.359375 53.515625 70.515625 
z
" id="DejaVuSans-53"/>
     <path d="M 19.671875 64.796875 
L 19.671875 37.40625 
L 32.078125 37.40625 
Q 38.96875 37.40625 42.71875 40.96875 
Q 46.484375 44.53125 46.484375 51.125 
Q 46.484375 57.671875 42.71875 61.234375 
Q 38.96875 64.796875 32.078125 64.796875 
z
M 9.8125 72.90625 
L 32.078125 72.90625 
Q 44.34375 72.90625 50.609375 67.359375 
Q 56.890625 61.8125 56.890625 51.125 
Q 56.890625 40.328125 50.609375 34.8125 
Q 44.34375 29.296875 32.078125 29.296875 
L 19.671875 29.296875 
L 19.671875 0 
L 9.8125 0 
z
" id="DejaVuSans-50"/>
    </defs>
    <g transform="translate(369.18424 294.223611)scale(0.17 -0.17)">
     <use xlink:href="#DejaVuSans-43"/>
     <use x="69.824219" xlink:href="#DejaVuSans-4d"/>
     <use x="156.103516" xlink:href="#DejaVuSans-41"/>
     <use x="224.511719" xlink:href="#DejaVuSans-20"/>
     <use x="256.298828" xlink:href="#DejaVuSans-45"/>
     <use x="319.482422" xlink:href="#DejaVuSans-53"/>
     <use x="382.958984" xlink:href="#DejaVuSans-20"/>
     <use x="414.746094" xlink:href="#DejaVuSans-50"/>
     <use x="475.048828" xlink:href="#DejaVuSans-50"/>
    </g>
   </g>
   <g id="text_14">
    <!-- scipyAlg -->
    <defs>
     <path d="M 32.171875 -5.078125 
Q 28.375 -14.84375 24.75 -17.8125 
Q 21.140625 -20.796875 15.09375 -20.796875 
L 7.90625 -20.796875 
L 7.90625 -13.28125 
L 13.1875 -13.28125 
Q 16.890625 -13.28125 18.9375 -11.515625 
Q 21 -9.765625 23.484375 -3.21875 
L 25.09375 0.875 
L 2.984375 54.6875 
L 12.5 54.6875 
L 29.59375 11.921875 
L 46.6875 54.6875 
L 56.203125 54.6875 
z
" id="DejaVuSans-79"/>
    </defs>
    <g transform="translate(369.18424 165.887769)scale(0.17 -0.17)">
     <use xlink:href="#DejaVuSans-73"/>
     <use x="52.099609" xlink:href="#DejaVuSans-63"/>
     <use x="107.080078" xlink:href="#DejaVuSans-69"/>
     <use x="134.863281" xlink:href="#DejaVuSans-70"/>
     <use x="198.339844" xlink:href="#DejaVuSans-79"/>
     <use x="257.519531" xlink:href="#DejaVuSans-41"/>
     <use x="325.927734" xlink:href="#DejaVuSans-6c"/>
     <use x="353.710938" xlink:href="#DejaVuSans-67"/>
    </g>
   </g>
   <g id="text_15">
    <!-- best 2009 -->
    <defs>
     <path d="M 48.6875 27.296875 
Q 48.6875 37.203125 44.609375 42.84375 
Q 40.53125 48.484375 33.40625 48.484375 
Q 26.265625 48.484375 22.1875 42.84375 
Q 18.109375 37.203125 18.109375 27.296875 
Q 18.109375 17.390625 22.1875 11.75 
Q 26.265625 6.109375 33.40625 6.109375 
Q 40.53125 6.109375 44.609375 11.75 
Q 48.6875 17.390625 48.6875 27.296875 
z
M 18.109375 46.390625 
Q 20.953125 51.265625 25.265625 53.625 
Q 29.59375 56 35.59375 56 
Q 45.5625 56 51.78125 48.09375 
Q 58.015625 40.1875 58.015625 27.296875 
Q 58.015625 14.40625 51.78125 6.484375 
Q 45.5625 -1.421875 35.59375 -1.421875 
Q 29.59375 -1.421875 25.265625 0.953125 
Q 20.953125 3.328125 18.109375 8.203125 
L 18.109375 0 
L 9.078125 0 
L 9.078125 75.984375 
L 18.109375 75.984375 
z
" id="DejaVuSans-62"/>
     <path d="M 10.984375 1.515625 
L 10.984375 10.5 
Q 14.703125 8.734375 18.5 7.8125 
Q 22.3125 6.890625 25.984375 6.890625 
Q 35.75 6.890625 40.890625 13.453125 
Q 46.046875 20.015625 46.78125 33.40625 
Q 43.953125 29.203125 39.59375 26.953125 
Q 35.25 24.703125 29.984375 24.703125 
Q 19.046875 24.703125 12.671875 31.3125 
Q 6.296875 37.9375 6.296875 49.421875 
Q 6.296875 60.640625 12.9375 67.421875 
Q 19.578125 74.21875 30.609375 74.21875 
Q 43.265625 74.21875 49.921875 64.515625 
Q 56.59375 54.828125 56.59375 36.375 
Q 56.59375 19.140625 48.40625 8.859375 
Q 40.234375 -1.421875 26.421875 -1.421875 
Q 22.703125 -1.421875 18.890625 -0.6875 
Q 15.09375 0.046875 10.984375 1.515625 
z
M 30.609375 32.421875 
Q 37.25 32.421875 41.125 36.953125 
Q 45.015625 41.5 45.015625 49.421875 
Q 45.015625 57.28125 41.125 61.84375 
Q 37.25 66.40625 30.609375 66.40625 
Q 23.96875 66.40625 20.09375 61.84375 
Q 16.21875 57.28125 16.21875 49.421875 
Q 16.21875 41.5 20.09375 36.953125 
Q 23.96875 32.421875 30.609375 32.421875 
z
" id="DejaVuSans-39"/>
    </defs>
    <g transform="translate(369.18424 37.551928)scale(0.17 -0.17)">
     <use xlink:href="#DejaVuSans-62"/>
     <use x="63.476562" xlink:href="#DejaVuSans-65"/>
     <use x="125" xlink:href="#DejaVuSans-73"/>
     <use x="177.099609" xlink:href="#DejaVuSans-74"/>
     <use x="216.308594" xlink:href="#DejaVuSans-20"/>
     <use x="248.095703" xlink:href="#DejaVuSans-32"/>
     <use x="311.71875" xlink:href="#DejaVuSans-30"/>
     <use x="375.341797" xlink:href="#DejaVuSans-30"/>
     <use x="438.964844" xlink:href="#DejaVuSans-39"/>
    </g>
   </g>
   <g id="text_16">
    <!-- bbob f14, 3-D -->
    <defs>
     <path d="M 40.578125 39.3125 
Q 47.65625 37.796875 51.625 33 
Q 55.609375 28.21875 55.609375 21.1875 
Q 55.609375 10.40625 48.1875 4.484375 
Q 40.765625 -1.421875 27.09375 -1.421875 
Q 22.515625 -1.421875 17.65625 -0.515625 
Q 12.796875 0.390625 7.625 2.203125 
L 7.625 11.71875 
Q 11.71875 9.328125 16.59375 8.109375 
Q 21.484375 6.890625 26.8125 6.890625 
Q 36.078125 6.890625 40.9375 10.546875 
Q 45.796875 14.203125 45.796875 21.1875 
Q 45.796875 27.640625 41.28125 31.265625 
Q 36.765625 34.90625 28.71875 34.90625 
L 20.21875 34.90625 
L 20.21875 43.015625 
L 29.109375 43.015625 
Q 36.375 43.015625 40.234375 45.921875 
Q 44.09375 48.828125 44.09375 54.296875 
Q 44.09375 59.90625 40.109375 62.90625 
Q 36.140625 65.921875 28.71875 65.921875 
Q 24.65625 65.921875 20.015625 65.03125 
Q 15.375 64.15625 9.8125 62.3125 
L 9.8125 71.09375 
Q 15.4375 72.65625 20.34375 73.4375 
Q 25.25 74.21875 29.59375 74.21875 
Q 40.828125 74.21875 47.359375 69.109375 
Q 53.90625 64.015625 53.90625 55.328125 
Q 53.90625 49.265625 50.4375 45.09375 
Q 46.96875 40.921875 40.578125 39.3125 
z
" id="DejaVuSans-33"/>
     <path d="M 19.671875 64.796875 
L 19.671875 8.109375 
L 31.59375 8.109375 
Q 46.6875 8.109375 53.6875 14.9375 
Q 60.6875 21.78125 60.6875 36.53125 
Q 60.6875 51.171875 53.6875 57.984375 
Q 46.6875 64.796875 31.59375 64.796875 
z
M 9.8125 72.90625 
L 30.078125 72.90625 
Q 51.265625 72.90625 61.171875 64.09375 
Q 71.09375 55.28125 71.09375 36.53125 
Q 71.09375 17.671875 61.125 8.828125 
Q 51.171875 0 30.078125 0 
L 9.8125 0 
z
" id="DejaVuSans-44"/>
    </defs>
    <g transform="translate(58.89048 35.290806)scale(0.102 -0.102)">
     <use xlink:href="#DejaVuSans-62"/>
     <use x="63.476562" xlink:href="#DejaVuSans-62"/>
     <use x="126.953125" xlink:href="#DejaVuSans-6f"/>
     <use x="188.134766" xlink:href="#DejaVuSans-62"/>
     <use x="251.611328" xlink:href="#DejaVuSans-20"/>
     <use x="283.398438" xlink:href="#DejaVuSans-66"/>
     <use x="318.603516" xlink:href="#DejaVuSans-31"/>
     <use x="382.226562" xlink:href="#DejaVuSans-34"/>
     <use x="445.849609" xlink:href="#DejaVuSans-2c"/>
     <use x="477.636719" xlink:href="#DejaVuSans-20"/>
     <use x="509.423828" xlink:href="#DejaVuSans-33"/>
     <use x="573.046875" xlink:href="#DejaVuSans-2d"/>
     <use x="609.130859" xlink:href="#DejaVuSans-44"/>
    </g>
    <!-- 51 targets: 100..1e-08 -->
    <defs>
     <path d="M 10.796875 72.90625 
L 49.515625 72.90625 
L 49.515625 64.59375 
L 19.828125 64.59375 
L 19.828125 46.734375 
Q 21.96875 47.46875 24.109375 47.828125 
Q 26.265625 48.1875 28.421875 48.1875 
Q 40.625 48.1875 47.75 41.5 
Q 54.890625 34.8125 54.890625 23.390625 
Q 54.890625 11.625 47.5625 5.09375 
Q 40.234375 -1.421875 26.90625 -1.421875 
Q 22.3125 -1.421875 17.546875 -0.640625 
Q 12.796875 0.140625 7.71875 1.703125 
L 7.71875 11.625 
Q 12.109375 9.234375 16.796875 8.0625 
Q 21.484375 6.890625 26.703125 6.890625 
Q 35.15625 6.890625 40.078125 11.328125 
Q 45.015625 15.765625 45.015625 23.390625 
Q 45.015625 31 40.078125 35.4375 
Q 35.15625 39.890625 26.703125 39.890625 
Q 22.75 39.890625 18.8125 39.015625 
Q 14.890625 38.140625 10.796875 36.28125 
z
" id="DejaVuSans-35"/>
     <path d="M 11.71875 12.40625 
L 22.015625 12.40625 
L 22.015625 0 
L 11.71875 0 
z
M 11.71875 51.703125 
L 22.015625 51.703125 
L 22.015625 39.3125 
L 11.71875 39.3125 
z
" id="DejaVuSans-3a"/>
    </defs>
    <g transform="translate(58.89048 46.712575)scale(0.102 -0.102)">
     <use xlink:href="#DejaVuSans-35"/>
     <use x="63.623047" xlink:href="#DejaVuSans-31"/>
     <use x="127.246094" xlink:href="#DejaVuSans-20"/>
     <use x="159.033203" xlink:href="#DejaVuSans-74"/>
     <use x="198.242188" xlink:href="#DejaVuSans-61"/>
     <use x="259.521484" xlink:href="#DejaVuSans-72"/>
     <use x="300.619141" xlink:href="#DejaVuSans-67"/>
     <use x="364.095703" xlink:href="#DejaVuSans-65"/>
     <use x="425.619141" xlink:href="#DejaVuSans-74"/>
     <use x="464.828125" xlink:href="#DejaVuSans-73"/>
     <use x="516.927734" xlink:href="#DejaVuSans-3a"/>
     <use x="550.619141" xlink:href="#DejaVuSans-20"/>
     <use x="582.40625" xlink:href="#DejaVuSans-31"/>
     <use x="646.029297" xlink:href="#DejaVuSans-30"/>
     <use x="709.652344" xlink:href="#DejaVuSans-30"/>
     <use x="773.275391" xlink:href="#DejaVuSans-2e"/>
     <use x="805.0625" xlink:href="#DejaVuSans-2e"/>
     <use x="836.849609" xlink:href="#DejaVuSans-31"/>
     <use x="900.472656" xlink:href="#DejaVuSans-65"/>
     <use x="961.996094" xlink:href="#DejaVuSans-2d"/>
     <use x="998.080078" xlink:href="#DejaVuSans-30"/>
     <use x="1061.703125" xlink:href="#DejaVuSans-38"/>
    </g>
    <!-- 15 instances -->
    <g transform="translate(58.89048 58.134344)scale(0.102 -0.102)">
     <use xlink:href="#DejaVuSans-31"/>
     <use x="63.623047" xlink:href="#DejaVuSans-35"/>
     <use x="127.246094" xlink:href="#DejaVuSans-20"/>
     <use x="159.033203" xlink:href="#DejaVuSans-69"/>
     <use x="186.816406" xlink:href="#DejaVuSans-6e"/>
     <use x="250.195312" xlink:href="#DejaVuSans-73"/>
     <use x="302.294922" xlink:href="#DejaVuSans-74"/>
     <use x="341.503906" xlink:href="#DejaVuSans-61"/>
     <use x="402.783203" xlink:href="#DejaVuSans-6e"/>
     <use x="466.162109" xlink:href="#DejaVuSans-63"/>
     <use x="521.142578" xlink:href="#DejaVuSans-65"/>
     <use x="582.666016" xlink:href="#DejaVuSans-73"/>
    </g>
   </g>
   <g id="text_17">
    <!-- v0.0.0 -->
    <g style="fill:#808080;" transform="translate(178.96275 290.099912)scale(0.1 -0.1)">
     <use xlink:href="#DejaVuSans-76"/>
     <use x="59.179688" xlink:href="#DejaVuSans-30"/>
     <use x="122.802734" xlink:href="#DejaVuSans-2e"/>
     <use x="154.589844" xlink:href="#DejaVuSans-30"/>
     <use x="218.212891" xlink:href="#DejaVuSans-2e"/>
     <use x="250" xlink:href="#DejaVuSans-30"/>
    </g>
   </g>
   <g id="text_18">
    <!-- 14 Sum of different powers -->
    <defs>
     <path d="M 4.203125 54.6875 
L 13.1875 54.6875 
L 24.421875 12.015625 
L 35.59375 54.6875 
L 46.1875 54.6875 
L 57.421875 12.015625 
L 68.609375 54.6875 
L 77.59375 54.6875 
L 63.28125 0 
L 52.6875 0 
L 40.921875 44.828125 
L 29.109375 0 
L 18.5 0 
z
" id="DejaVuSans-77"/>
    </defs>
    <g transform="translate(58.183063 18.84)scale(0.2 -0.2)">
     <use xlink:href="#DejaVuSans-31"/>
     <use x="63.623047" xlink:href="#DejaVuSans-34"/>
     <use x="127.246094" xlink:href="#DejaVuSans-20"/>
     <use x="159.033203" xlink:href="#DejaVuSans-53"/>
     <use x="222.509766" xlink:href="#DejaVuSans-75"/>
     <use x="285.888672" xlink:href="#DejaVuSans-6d"/>
     <use x="383.300781" xlink:href="#DejaVuSans-20"/>
     <use x="415.087891" xlink:href="#DejaVuSans-6f"/>
     <use x="476.269531" xlink:href="#DejaVuSans-66"/>
     <use x="511.474609" xlink:href="#DejaVuSans-20"/>
     <use x="543.261719" xlink:href="#DejaVuSans-64"/>
     <use x="606.738281" xlink:href="#DejaVuSans-69"/>
     <use x="634.521484" xlink:href="#DejaVuSans-66"/>
     <use x="669.726562" xlink:href="#DejaVuSans-66"/>
     <use x="704.931641" xlink:href="#DejaVuSans-65"/>
     <use x="766.455078" xlink:href="#DejaVuSans-72"/>
     <use x="807.537109" xlink:href="#DejaVuSans-65"/>
     <use x="869.060547" xlink:href="#DejaVuSans-6e"/>
     <use x="932.439453" xlink:href="#DejaVuSans-74"/>
     <use x="971.648438" xlink:href="#DejaVuSans-20"/>
     <use x="1003.435547" xlink:href="#DejaVuSans-70"/>
     <use x="1066.912109" xlink:href="#DejaVuSans-6f"/>
     <use x="1128.09375" xlink:href="#DejaVuSans-77"/>
     <use x="1209.880859" xlink:href="#DejaVuSans-65"/>
     <use x="1271.404297" xlink:href="#DejaVuSans-72"/>
     <use x="1312.517578" xlink:href="#DejaVuSans-73"/>
    </g>
   </g>
  </g>
 </g>
 <defs>
  <clipPath id="pdb0477e115">
   <rect height="270.04" width="277.048" x="56.12" y="24.84"/>
  </clipPath>
 </defs>
</svg>
